<?xml version="1.0" encoding="iso-8859-1" standalone="no"?>
<!DOCTYPE svg PUBLIC "-//W3C//DTD SVG 1.0//EN" "http://www.w3.org/TR/2001/REC-SVG-20010904/DTD/svg10.dtd">
<svg xmlns="http://www.w3.org/2000/svg" width="800" height="600">
<path style="fill:rgb(0, 0, 0);fill-opacity:0.0;fill-rule:evenodd;stroke:rgb(0, 0, 0);stroke-width:0.0;" d="M 0, 600 L 800, 600 L 800, 0 L 0, 0 z "/>
<path style="fill:rgb(54, 199, 9);fill-opacity:1.0;fill-rule:evenodd;stroke:rgb(0, 0, 0);stroke-width:3.0;" d="M 427.29, 330.837 L 421.675, 356.692 L 408.085, 350.975 L 412.675, 328.995 z "/>
<path style="fill:rgb(54, 199, 9);fill-opacity:1.0;fill-rule:evenodd;stroke:rgb(0, 0, 0);stroke-width:3.0;" d="M 124.113, 227.806 L 129.933, 235.285 L 126.824, 238.684 L 103.526, 224.676 L 102.365, 221.497 z "/>
<path style="fill:rgb(54, 199, 9);fill-opacity:1.0;fill-rule:evenodd;stroke:rgb(0, 0, 0);stroke-width:3.0;" d="M 500.177, 436.472 L 453.114, 430.975 L 446.129, 418.984 z "/>
<path style="fill:rgb(255, 252, 44);fill-opacity:1.0;fill-rule:evenodd;stroke:rgb(0, 0, 0);stroke-width:3.0;" d="M 273.087, 533.588 L 261.318, 541.334 L 232.568, 547.83 L 268.505, 526.947 z "/>
<path style="fill:rgb(255, 252, 44);fill-opacity:1.0;fill-rule:evenodd;stroke:rgb(0, 0, 0);stroke-width:3.0;" d="M 545.554, 387.69 L 512.815, 377.713 L 554.887, 374.88 z "/>
<path style="fill:rgb(255, 130, 220);fill-opacity:1.0;fill-rule:evenodd;stroke:rgb(0, 0, 0);stroke-width:3.0;" d="M 439.406, 389.921 L 425.038, 395.287 L 423.371, 389.164 L 435.126, 382.505 z "/>
<path style="fill:rgb(255, 130, 220);fill-opacity:1.0;fill-rule:evenodd;stroke:rgb(0, 0, 0);stroke-width:3.0;" d="M 606.885, 466.406 L 596.784, 481.201 L 585.17, 468.932 L 601.804, 461.345 z "/>
<path style="fill:rgb(215, 8, 237);fill-opacity:1.0;fill-rule:evenodd;stroke:rgb(0, 0, 0);stroke-width:3.0;" d="M 643.048, 417.398 L 646.849, 424.706 L 636.213, 425.348 L 595.096, 407.95 L 605.632, 405.997 z "/>
<path style="fill:rgb(140, 91, 255);fill-opacity:1.0;fill-rule:evenodd;stroke:rgb(0, 0, 0);stroke-width:3.0;" d="M 437.573, 532.313 L 437.644, 532.969 L 418.546, 537.018 L 321.694, 541.501 L 323.735, 516.802 z "/>
<path style="fill:rgb(140, 91, 255);fill-opacity:1.0;fill-rule:evenodd;stroke:rgb(0, 0, 0);stroke-width:3.0;" d="M 454.561, 514.203 L 454.122, 499.298 L 468.566, 496.985 z "/>
<path style="fill:rgb(140, 91, 255);fill-opacity:1.0;fill-rule:evenodd;stroke:rgb(0, 0, 0);stroke-width:3.0;" d="M 109.846, 121.424 L 77.7981, 118.534 L 87.4999, 106.892 z "/>
<path style="fill:rgb(140, 91, 255);fill-opacity:1.0;fill-rule:evenodd;stroke:rgb(0, 0, 0);stroke-width:3.0;" d="M 531.519, 561.653 L 521.331, 594.025 L 506.893, 589.171 L 529.713, 558.841 z "/>
<path style="fill:rgb(140, 91, 255);fill-opacity:1.0;fill-rule:evenodd;stroke:rgb(0, 0, 0);stroke-width:3.0;" d="M 287.933, 233.842 L 297.026, 238.631 L 309.635, 261.179 L 278.522, 245.401 L 271.138, 233.77 z "/>
<path style="fill:rgb(140, 91, 255);fill-opacity:1.0;fill-rule:evenodd;stroke:rgb(0, 0, 0);stroke-width:3.0;" d="M 792.715, 113.438 L 793.846, 142.804 L 790.491, 145.139 L 783.749, 104.755 L 789.943, 99.2311 z "/>
<path style="fill:rgb(140, 91, 255);fill-opacity:1.0;fill-rule:evenodd;stroke:rgb(0, 0, 0);stroke-width:3.0;" d="M 235.116, 558.58 L 232.481, 549.63 L 249.63, 543.975 L 261.318, 541.334 z "/>
<path style="fill:rgb(140, 91, 255);fill-opacity:1.0;fill-rule:evenodd;stroke:rgb(0, 0, 0);stroke-width:3.0;" d="M 479.121, 531.549 L 468.918, 541.471 L 455.303, 539.415 L 455.188, 535.506 L 475.058, 517.48 z "/>
<path style="fill:rgb(140, 91, 255);fill-opacity:1.0;fill-rule:evenodd;stroke:rgb(0, 0, 0);stroke-width:3.0;" d="M 596.575, 55.4386 L 580.881, 116.317 L 490.279, 59.884 L 541.259, 37.1664 z "/>
<path style="fill:rgb(140, 91, 255);fill-opacity:1.0;fill-rule:evenodd;stroke:rgb(0, 0, 0);stroke-width:3.0;" d="M 596.575, 55.4386 L 541.259, 37.1664 L 609.076, 6.9463 z "/>
<path style="fill:rgb(140, 91, 255);fill-opacity:1.0;fill-rule:evenodd;stroke:rgb(0, 0, 0);stroke-width:3.0;" d="M 515.633, 48.5859 L 493.812, 58.3099 L 489.869, 52.6519 L 493.564, 49.7941 L 515.236, 47.3631 z "/>
<path style="fill:rgb(140, 91, 255);fill-opacity:1.0;fill-rule:evenodd;stroke:rgb(0, 0, 0);stroke-width:3.0;" d="M 677.139, 215.078 L 672.595, 219.546 L 662.59, 217.719 L 662.038, 213.296 L 670.495, 205.754 z "/>
<path style="fill:rgb(140, 91, 255);fill-opacity:1.0;fill-rule:evenodd;stroke:rgb(0, 0, 0);stroke-width:3.0;" d="M 697.814, 266.531 L 689.052, 271.037 L 682.331, 264.118 L 689.169, 259.834 L 695.057, 258.703 z "/>
<path style="fill:rgb(140, 91, 255);fill-opacity:1.0;fill-rule:evenodd;stroke:rgb(0, 0, 0);stroke-width:3.0;" d="M 398.342, 464.886 L 397.109, 474.709 L 394.166, 483.111 L 384.764, 478.963 L 383.713, 476.081 L 391.153, 464.238 z "/>
<path style="fill:rgb(140, 91, 255);fill-opacity:1.0;fill-rule:evenodd;stroke:rgb(0, 0, 0);stroke-width:3.0;" d="M 383.976, 459.846 L 274.996, 523.175 L 264.077, 512.031 L 355.254, 393.515 z "/>
<path style="fill:rgb(142, 252, 255);fill-opacity:1.0;fill-rule:evenodd;stroke:rgb(0, 0, 0);stroke-width:3.0;" d="M 243.112, 503.51 L 238.68, 509.05 L 231.612, 506.74 L 234.017, 488.573 z "/>
<path style="fill:rgb(142, 252, 255);fill-opacity:1.0;fill-rule:evenodd;stroke:rgb(0, 0, 0);stroke-width:3.0;" d="M 666.052, 245.472 L 671.192, 286.669 L 618.501, 252.123 L 640.942, 232.11 z "/>
<path style="fill:rgb(92, 215, 255);fill-opacity:1.0;fill-rule:evenodd;stroke:rgb(0, 0, 0);stroke-width:3.0;" d="M 579.254, 462.682 L 573.555, 480.102 L 566.713, 479.595 L 567.497, 473.458 L 574.621, 457.788 z "/>
<path style="fill:rgb(92, 215, 255);fill-opacity:1.0;fill-rule:evenodd;stroke:rgb(0, 0, 0);stroke-width:3.0;" d="M 384.872, 382.543 L 376.596, 381.726 L 373.446, 378.068 L 374.131, 372.019 L 381.657, 369.758 z "/>
<path style="fill:rgb(92, 215, 255);fill-opacity:1.0;fill-rule:evenodd;stroke:rgb(0, 0, 0);stroke-width:3.0;" d="M 521.486, 432.279 L 513.782, 432.744 L 511.93, 432.119 L 510.633, 425.577 L 530.297, 421.738 z "/>
<path style="fill:rgb(255, 152, 13);fill-opacity:1.0;fill-rule:evenodd;stroke:rgb(0, 0, 0);stroke-width:3.0;" d="M 592.268, 444.679 L 592.127, 447.211 L 565.86, 444.143 L 556.017, 430.193 L 567.81, 429.481 z "/>
<path style="fill:rgb(255, 2, 123);fill-opacity:1.0;fill-rule:evenodd;stroke:rgb(0, 0, 0);stroke-width:3.0;" d="M 421.675, 356.692 L 419.572, 366.375 L 387.346, 374.748 L 397.276, 346.428 z "/>
<path style="fill:rgb(255, 2, 123);fill-opacity:1.0;fill-rule:evenodd;stroke:rgb(0, 0, 0);stroke-width:3.0;" d="M 409.62, 498.966 L 405.749, 504.998 L 393.358, 504.607 L 394.754, 493.48 z "/>
<path style="fill:rgb(255, 2, 123);fill-opacity:1.0;fill-rule:evenodd;stroke:rgb(0, 0, 0);stroke-width:3.0;" d="M 417.82, 326.878 L 416.183, 329.437 L 405.545, 328.097 L 405.496, 326.974 L 408.89, 319.065 L 413.903, 308.797 z "/>
<path style="fill:rgb(255, 2, 123);fill-opacity:1.0;fill-rule:evenodd;stroke:rgb(0, 0, 0);stroke-width:3.0;" d="M 215.207, 88.1741 L 192.594, 92.9479 L 199.003, 47.3736 z "/>
<path style="fill:rgb(255, 2, 123);fill-opacity:1.0;fill-rule:evenodd;stroke:rgb(0, 0, 0);stroke-width:3.0;" d="M 394.784, 290.119 L 378.056, 349.774 L 343.059, 365.353 L 323.209, 319.51 L 354.455, 268.878 z "/>
<path style="fill:rgb(57, 22, 231);fill-opacity:1.0;fill-rule:evenodd;stroke:rgb(0, 0, 0);stroke-width:3.0;" d="M 98.6747, 139.173 L 85.6957, 175.831 L 64.559, 117.928 z "/>
<path style="fill:rgb(57, 22, 231);fill-opacity:1.0;fill-rule:evenodd;stroke:rgb(0, 0, 0);stroke-width:3.0;" d="M 400.237, 449.78 L 383.713, 476.081 L 379.704, 465.082 L 400.663, 446.391 z "/>
<path style="fill:rgb(57, 22, 231);fill-opacity:1.0;fill-rule:evenodd;stroke:rgb(0, 0, 0);stroke-width:3.0;" d="M 625.225, 498.625 L 620.343, 493.563 L 620.345, 492.438 L 623.867, 485.88 L 635.383, 482.918 z "/>
<path style="fill:rgb(57, 22, 231);fill-opacity:1.0;fill-rule:evenodd;stroke:rgb(0, 0, 0);stroke-width:3.0;" d="M 599.521, 290.789 L 585.993, 301.022 L 570.713, 294.74 L 591.475, 276.224 L 594.421, 276.024 z "/>
<path style="fill:rgb(223, 246, 18);fill-opacity:1.0;fill-rule:evenodd;stroke:rgb(0, 0, 0);stroke-width:3.0;" d="M 395.956, 483.9 L 390.683, 525.924 L 345.434, 519.759 L 344.026, 496.899 L 370.964, 472.876 z "/>
<path style="fill:rgb(223, 246, 18);fill-opacity:1.0;fill-rule:evenodd;stroke:rgb(0, 0, 0);stroke-width:3.0;" d="M 759.224, 196.739 L 747.8, 183.437 L 742.399, 144.975 L 754.891, 131.514 z "/>
<path style="fill:rgb(159, 27, 67);fill-opacity:1.0;fill-rule:evenodd;stroke:rgb(0, 0, 0);stroke-width:3.0;" d="M 610.099, 489.42 L 605.648, 490.565 L 598.781, 483.312 L 608.104, 464.233 L 629.197, 460.93 z "/>
<path style="fill:rgb(159, 27, 67);fill-opacity:1.0;fill-rule:evenodd;stroke:rgb(0, 0, 0);stroke-width:3.0;" d="M 403.868, 300.901 L 385.294, 325.545 L 384.865, 325.491 L 391.819, 300.691 z "/>
<path style="fill:rgb(159, 27, 67);fill-opacity:1.0;fill-rule:evenodd;stroke:rgb(0, 0, 0);stroke-width:3.0;" d="M 134.78, 346.948 L 141.08, 364.866 L 145.777, 406.783 L 54.5539, 317.666 L 55.928, 316.164 z "/>
<path style="fill:rgb(159, 27, 67);fill-opacity:1.0;fill-rule:evenodd;stroke:rgb(0, 0, 0);stroke-width:3.0;" d="M 486.18, 338.256 L 416.183, 329.437 L 429.604, 308.458 z "/>
<path style="fill:rgb(159, 27, 67);fill-opacity:1.0;fill-rule:evenodd;stroke:rgb(0, 0, 0);stroke-width:3.0;" d="M 641.312, 445.448 L 627.526, 425.873 L 648.085, 424.631 z "/>
<path style="fill:rgb(159, 27, 67);fill-opacity:1.0;fill-rule:evenodd;stroke:rgb(0, 0, 0);stroke-width:3.0;" d="M 412.675, 328.995 L 408.085, 350.975 L 397.276, 346.428 L 403.781, 327.874 z "/>
<path style="fill:rgb(159, 27, 67);fill-opacity:1.0;fill-rule:evenodd;stroke:rgb(0, 0, 0);stroke-width:3.0;" d="M 603.467, 308.206 L 588.506, 328.74 L 583.068, 316.396 L 592.552, 303.719 z "/>
<path style="fill:rgb(159, 27, 67);fill-opacity:1.0;fill-rule:evenodd;stroke:rgb(0, 0, 0);stroke-width:3.0;" d="M 479.002, 426.949 L 461.613, 419.171 L 464.83, 416.703 L 478.292, 416.313 z "/>
<path style="fill:rgb(159, 27, 67);fill-opacity:1.0;fill-rule:evenodd;stroke:rgb(0, 0, 0);stroke-width:3.0;" d="M 582.88, 336.46 L 568.872, 355.686 L 514.871, 353.976 L 582.739, 334.838 z "/>
<path style="fill:rgb(159, 27, 67);fill-opacity:1.0;fill-rule:evenodd;stroke:rgb(0, 0, 0);stroke-width:3.0;" d="M 724.833, 344.595 L 717.933, 355.265 L 695.073, 345.867 L 681.717, 324.496 L 700.62, 317.18 z "/>
<path style="fill:rgb(159, 27, 67);fill-opacity:1.0;fill-rule:evenodd;stroke:rgb(0, 0, 0);stroke-width:3.0;" d="M 673.287, 318.448 L 662.784, 325.821 L 649.61, 319.218 L 639.594, 306.912 L 641.957, 292.614 z "/>
<path style="fill:rgb(159, 27, 67);fill-opacity:1.0;fill-rule:evenodd;stroke:rgb(0, 0, 0);stroke-width:3.0;" d="M 539.774, 441.096 L 514.36, 438.128 L 512.72, 432.809 L 527.189, 431.934 z "/>
<path style="fill:rgb(252, 16, 15);fill-opacity:1.0;fill-rule:evenodd;stroke:rgb(0, 0, 0);stroke-width:3.0;" d="M 578.272, 376.234 L 563.731, 389.46 L 547.045, 385.643 L 570.396, 353.594 z "/>
<path style="fill:rgb(252, 16, 15);fill-opacity:1.0;fill-rule:evenodd;stroke:rgb(0, 0, 0);stroke-width:3.0;" d="M 248.424, 512.234 L 250.324, 515.355 L 246.361, 534.006 L 244.095, 538.393 L 242.832, 537.824 L 229.817, 512.185 L 238.771, 509.08 z "/>
<path style="fill:rgb(252, 16, 15);fill-opacity:1.0;fill-rule:evenodd;stroke:rgb(0, 0, 0);stroke-width:3.0;" d="M 362.022, 406.951 L 353.12, 368.385 L 354.766, 360.142 L 378.056, 349.774 z "/>
<path style="fill:rgb(252, 16, 15);fill-opacity:1.0;fill-rule:evenodd;stroke:rgb(0, 0, 0);stroke-width:3.0;" d="M 162.197, 190.094 L 161.881, 203.778 L 156.043, 197.26 L 153.932, 186.922 L 156.45, 167.558 z "/>
<path style="fill:rgb(255, 243, 9);fill-opacity:1.0;fill-rule:evenodd;stroke:rgb(0, 0, 0);stroke-width:3.0;" d="M 478.337, 514.505 L 457.949, 533.001 L 456.116, 529.884 L 457.483, 518.166 L 470.109, 496.738 L 474.589, 496.02 z "/>
<path style="fill:rgb(255, 243, 9);fill-opacity:1.0;fill-rule:evenodd;stroke:rgb(0, 0, 0);stroke-width:3.0;" d="M 589.189, 349.271 L 580.07, 379.331 L 579.061, 378.501 L 570.396, 353.594 L 572.979, 350.049 L 580.028, 347.702 z "/>
<path style="fill:rgb(255, 243, 9);fill-opacity:1.0;fill-rule:evenodd;stroke:rgb(0, 0, 0);stroke-width:3.0;" d="M 433.714, 507.857 L 394.149, 526.397 L 392.189, 526.129 L 409.62, 498.966 z "/>
<path style="fill:rgb(255, 243, 9);fill-opacity:1.0;fill-rule:evenodd;stroke:rgb(0, 0, 0);stroke-width:3.0;" d="M 266.235, 518.981 L 264.802, 524.734 L 250.477, 515.607 L 245.224, 506.979 z "/>
<path style="fill:rgb(255, 243, 9);fill-opacity:1.0;fill-rule:evenodd;stroke:rgb(0, 0, 0);stroke-width:3.0;" d="M 436.658, 401.931 L 426.621, 394.696 L 454.183, 384.401 z "/>
<path style="fill:rgb(255, 243, 9);fill-opacity:1.0;fill-rule:evenodd;stroke:rgb(0, 0, 0);stroke-width:3.0;" d="M 694.319, 256.608 L 682.331, 264.118 L 666.323, 247.639 L 666.25, 247.053 L 681.347, 219.784 z "/>
<path style="fill:rgb(16, 179, 226);fill-opacity:1.0;fill-rule:evenodd;stroke:rgb(0, 0, 0);stroke-width:3.0;" d="M 355.254, 393.515 L 321.966, 436.784 L 271.516, 403.726 L 332.949, 342.004 z "/>
<path style="fill:rgb(16, 179, 226);fill-opacity:1.0;fill-rule:evenodd;stroke:rgb(0, 0, 0);stroke-width:3.0;" d="M 794.347, 50.5939 L 766.219, 120.388 L 733.196, 149.838 L 792.042, 50.4263 z "/>
<path style="fill:rgb(16, 179, 226);fill-opacity:1.0;fill-rule:evenodd;stroke:rgb(0, 0, 0);stroke-width:3.0;" d="M 608.789, 380.772 L 602.834, 381.982 L 593.602, 334.726 L 598.512, 318.541 z "/>
<path style="fill:rgb(16, 179, 226);fill-opacity:1.0;fill-rule:evenodd;stroke:rgb(0, 0, 0);stroke-width:3.0;" d="M 580.881, 116.317 L 576.937, 131.617 L 535.157, 162.899 L 495.217, 161.126 L 564.439, 106.076 z "/>
<path style="fill:rgb(16, 179, 226);fill-opacity:1.0;fill-rule:evenodd;stroke:rgb(0, 0, 0);stroke-width:3.0;" d="M 369.554, 570.008 L 375.158, 581.997 L 374.474, 584.13 L 355.897, 571.078 L 355.421, 567.839 z "/>
<path style="fill:rgb(16, 179, 226);fill-opacity:1.0;fill-rule:evenodd;stroke:rgb(0, 0, 0);stroke-width:3.0;" d="M 563.63, 503.706 L 552.615, 495.066 L 566.887, 478.227 z "/>
<path style="fill:rgb(16, 179, 226);fill-opacity:1.0;fill-rule:evenodd;stroke:rgb(0, 0, 0);stroke-width:3.0;" d="M 400.4, 425.039 L 371.411, 430.828 L 369.208, 425.74 L 395.321, 418.831 z "/>
<path style="fill:rgb(16, 179, 226);fill-opacity:1.0;fill-rule:evenodd;stroke:rgb(0, 0, 0);stroke-width:3.0;" d="M 462.192, 432.035 L 487.06, 456.722 L 476.626, 477.003 L 465.077, 449.097 L 461.605, 431.967 z "/>
<path style="fill:rgb(255, 240, 35);fill-opacity:1.0;fill-rule:evenodd;stroke:rgb(0, 0, 0);stroke-width:3.0;" d="M 522.069, 491.477 L 550.335, 519.537 L 505.329, 565.021 L 481.723, 531.208 L 481.413, 529.683 L 511.942, 486.942 z "/>
<path style="fill:rgb(98, 234, 255);fill-opacity:1.0;fill-rule:evenodd;stroke:rgb(0, 0, 0);stroke-width:3.0;" d="M 650.339, 279.762 L 669.45, 315.284 L 641.957, 292.614 L 644.573, 276.785 z "/>
<path style="fill:rgb(255, 246, 21);fill-opacity:1.0;fill-rule:evenodd;stroke:rgb(0, 0, 0);stroke-width:3.0;" d="M 434.994, 508.329 L 420.859, 503.113 L 430.677, 468.197 z "/>
<path style="fill:rgb(255, 246, 21);fill-opacity:1.0;fill-rule:evenodd;stroke:rgb(0, 0, 0);stroke-width:3.0;" d="M 553.817, 522.993 L 514.523, 567.832 L 510.666, 559.627 L 550.335, 519.537 z "/>
<path style="fill:rgb(255, 246, 21);fill-opacity:1.0;fill-rule:evenodd;stroke:rgb(0, 0, 0);stroke-width:3.0;" d="M 529.057, 331.888 L 511.426, 347.612 L 507.708, 341.859 L 517.098, 326.362 z "/>
<path style="fill:rgb(255, 246, 21);fill-opacity:1.0;fill-rule:evenodd;stroke:rgb(0, 0, 0);stroke-width:3.0;" d="M 249.416, 174.308 L 269.127, 223.937 L 200.238, 187.654 L 229.018, 172.289 z "/>
<path style="fill:rgb(255, 246, 21);fill-opacity:1.0;fill-rule:evenodd;stroke:rgb(0, 0, 0);stroke-width:3.0;" d="M 510.006, 479.501 L 514.249, 483.713 L 481.413, 529.683 L 472.4, 485.219 L 483.236, 464.155 z "/>
<path style="fill:rgb(70, 255, 46);fill-opacity:1.0;fill-rule:evenodd;stroke:rgb(0, 0, 0);stroke-width:3.0;" d="M 413.397, 394.814 L 391.129, 407.427 L 384.764, 382.113 L 387.346, 374.748 L 419.572, 366.375 z "/>
<path style="fill:rgb(70, 255, 46);fill-opacity:1.0;fill-rule:evenodd;stroke:rgb(0, 0, 0);stroke-width:3.0;" d="M 744.682, 161.231 L 744.965, 163.247 L 739.839, 174.168 L 728.048, 160.438 L 731.947, 156.237 z "/>
<path style="fill:rgb(70, 255, 46);fill-opacity:1.0;fill-rule:evenodd;stroke:rgb(0, 0, 0);stroke-width:3.0;" d="M 537.953, 385.374 L 542.063, 389.594 L 539.143, 403.66 L 533.301, 402.212 L 518.35, 385.646 L 521.555, 380.377 z "/>
<path style="fill:rgb(70, 255, 46);fill-opacity:1.0;fill-rule:evenodd;stroke:rgb(0, 0, 0);stroke-width:3.0;" d="M 266.551, 514.556 L 267.135, 515.366 L 266.235, 518.981 L 252.629, 511.209 L 237.841, 485.251 z "/>
<path style="fill:rgb(70, 255, 46);fill-opacity:1.0;fill-rule:evenodd;stroke:rgb(0, 0, 0);stroke-width:3.0;" d="M 187.574, 150.342 L 150.577, 145.421 L 152.33, 124.833 L 173.932, 117.987 z "/>
<path style="fill:rgb(70, 255, 46);fill-opacity:1.0;fill-rule:evenodd;stroke:rgb(0, 0, 0);stroke-width:3.0;" d="M 221.109, 103.034 L 189.78, 112.964 L 192.594, 92.9479 L 215.207, 88.1741 z "/>
<path style="fill:rgb(70, 255, 46);fill-opacity:1.0;fill-rule:evenodd;stroke:rgb(0, 0, 0);stroke-width:3.0;" d="M 245.187, 163.658 L 226.748, 173.502 L 224.692, 173.711 L 206.981, 167.831 L 232.933, 157.883 L 242.665, 157.309 z "/>
<path style="fill:rgb(70, 255, 46);fill-opacity:1.0;fill-rule:evenodd;stroke:rgb(0, 0, 0);stroke-width:3.0;" d="M 511.426, 347.612 L 508.648, 350.09 L 338.067, 260.247 L 412.973, 195.278 z "/>
<path style="fill:rgb(255, 255, 57);fill-opacity:1.0;fill-rule:evenodd;stroke:rgb(0, 0, 0);stroke-width:3.0;" d="M 636.213, 425.348 L 601.697, 427.433 L 611.277, 414.797 z "/>
<path style="fill:rgb(255, 255, 57);fill-opacity:1.0;fill-rule:evenodd;stroke:rgb(0, 0, 0);stroke-width:3.0;" d="M 384.872, 382.543 L 391.129, 407.427 L 367.158, 421.006 L 361.649, 408.283 L 369.298, 381.005 z "/>
<path style="fill:rgb(255, 255, 57);fill-opacity:1.0;fill-rule:evenodd;stroke:rgb(0, 0, 0);stroke-width:3.0;" d="M 558.125, 527.27 L 544.649, 568.465 L 537.336, 566.078 L 539.639, 545.649 L 555.459, 524.623 z "/>
<path style="fill:rgb(255, 255, 57);fill-opacity:1.0;fill-rule:evenodd;stroke:rgb(0, 0, 0);stroke-width:3.0;" d="M 261.76, 570.264 L 284.998, 549.54 L 414.601, 537.201 L 418.546, 537.018 z "/>
<path style="fill:rgb(255, 112, 255);fill-opacity:1.0;fill-rule:evenodd;stroke:rgb(0, 0, 0);stroke-width:3.0;" d="M 555.754, 390.798 L 565.62, 406.021 L 554.506, 407.035 L 552.77, 389.888 z "/>
<path style="fill:rgb(226, 26, 83);fill-opacity:1.0;fill-rule:evenodd;stroke:rgb(0, 0, 0);stroke-width:3.0;" d="M 236.739, 592.577 L 231.117, 565.032 L 332.695, 507.004 z "/>
<path style="fill:rgb(62, 182, 255);fill-opacity:1.0;fill-rule:evenodd;stroke:rgb(0, 0, 0);stroke-width:3.0;" d="M 483.244, 560.443 L 456.255, 571.751 L 455.741, 554.285 L 469.702, 540.709 z "/>
<path style="fill:rgb(252, 159, 168);fill-opacity:1.0;fill-rule:evenodd;stroke:rgb(0, 0, 0);stroke-width:3.0;" d="M 354.455, 268.878 L 341.668, 289.599 L 337.61, 283.591 L 342.324, 262.489 z "/>
<path style="fill:rgb(252, 159, 168);fill-opacity:1.0;fill-rule:evenodd;stroke:rgb(0, 0, 0);stroke-width:3.0;" d="M 619.661, 314.864 L 667.422, 410.39 L 650.228, 419.586 L 613.343, 408.346 L 598.036, 315.659 L 603.467, 308.206 z "/>
<path style="fill:rgb(252, 159, 168);fill-opacity:1.0;fill-rule:evenodd;stroke:rgb(0, 0, 0);stroke-width:3.0;" d="M 299.981, 357.148 L 276.73, 394.825 L 175.997, 295.013 L 175.806, 294.078 z "/>
<path style="fill:rgb(9, 3, 199);fill-opacity:1.0;fill-rule:evenodd;stroke:rgb(0, 0, 0);stroke-width:3.0;" d="M 350.109, 249.802 L 349.531, 250.304 L 301.811, 241.151 L 269.127, 223.937 L 263.995, 211.015 z "/>
<path style="fill:rgb(9, 3, 199);fill-opacity:1.0;fill-rule:evenodd;stroke:rgb(0, 0, 0);stroke-width:3.0;" d="M 17.4337, 358.233 L 10.3183, 366.01 L 6.44064, 351.775 L 13.1327, 341.493 z "/>
<path style="fill:rgb(209, 255, 25);fill-opacity:1.0;fill-rule:evenodd;stroke:rgb(0, 0, 0);stroke-width:3.0;" d="M 201.385, 169.976 L 181.296, 177.677 L 152.709, 162.62 L 168.995, 161.659 z "/>
<path style="fill:rgb(209, 255, 25);fill-opacity:1.0;fill-rule:evenodd;stroke:rgb(0, 0, 0);stroke-width:3.0;" d="M 459.195, 334.856 L 457.509, 338.826 L 439.539, 339.327 L 426.862, 332.807 L 427.29, 330.837 z "/>
<path style="fill:rgb(209, 255, 25);fill-opacity:1.0;fill-rule:evenodd;stroke:rgb(0, 0, 0);stroke-width:3.0;" d="M 568.872, 355.686 L 554.887, 374.88 L 525.305, 376.872 L 488.12, 368.396 L 499.396, 358.34 L 514.871, 353.976 z "/>
<path style="fill:rgb(209, 255, 25);fill-opacity:1.0;fill-rule:evenodd;stroke:rgb(0, 0, 0);stroke-width:3.0;" d="M 334.604, 301.045 L 299.981, 357.148 L 187.489, 300.012 L 174.204, 286.227 L 160.554, 219.363 z "/>
<path style="fill:rgb(255, 132, 25);fill-opacity:1.0;fill-rule:evenodd;stroke:rgb(0, 0, 0);stroke-width:3.0;" d="M 113.825, 252.89 L 88.6844, 280.365 L 33.6785, 295.801 L 48.5029, 73.9434 z "/>
<path style="fill:rgb(67, 243, 59);fill-opacity:1.0;fill-rule:evenodd;stroke:rgb(0, 0, 0);stroke-width:3.0;" d="M 701.588, 529.444 L 666.279, 594.179 L 617.524, 515.172 z "/>
<path style="fill:rgb(199, 148, 243);fill-opacity:1.0;fill-rule:evenodd;stroke:rgb(0, 0, 0);stroke-width:3.0;" d="M 644.604, 276.596 L 644.282, 278.545 L 596.755, 293.414 L 613.217, 282.48 L 642.524, 274.227 z "/>
<path style="fill:rgb(199, 148, 243);fill-opacity:1.0;fill-rule:evenodd;stroke:rgb(0, 0, 0);stroke-width:3.0;" d="M 312.886, 246.984 L 341.668, 289.599 L 334.604, 301.045 L 330.978, 299.344 L 304.578, 252.136 L 305.832, 243.269 z "/>
<path style="fill:rgb(199, 148, 243);fill-opacity:1.0;fill-rule:evenodd;stroke:rgb(0, 0, 0);stroke-width:3.0;" d="M 629.406, 441.911 L 609.247, 426.977 L 622.059, 426.203 z "/>
<path style="fill:rgb(199, 148, 243);fill-opacity:1.0;fill-rule:evenodd;stroke:rgb(0, 0, 0);stroke-width:3.0;" d="M 574.152, 296.154 L 580.659, 310.926 L 582.739, 334.838 L 499.396, 358.34 L 570.713, 294.74 z "/>
<path style="fill:rgb(199, 148, 243);fill-opacity:1.0;fill-rule:evenodd;stroke:rgb(0, 0, 0);stroke-width:3.0;" d="M 517.763, 574.724 L 512.387, 581.868 L 491.446, 579.173 L 491.425, 579.072 L 510.666, 559.627 z "/>
<path style="fill:rgb(199, 148, 243);fill-opacity:1.0;fill-rule:evenodd;stroke:rgb(0, 0, 0);stroke-width:3.0;" d="M 627.148, 257.793 L 635.716, 263.41 L 623.142, 272.921 L 616.396, 267.1 L 618.047, 255.917 z "/>
<path style="fill:rgb(199, 148, 243);fill-opacity:1.0;fill-rule:evenodd;stroke:rgb(0, 0, 0);stroke-width:3.0;" d="M 701.588, 529.444 L 617.524, 515.172 L 616.06, 512.798 L 625.474, 498.241 L 748.922, 442.665 z "/>
<path style="fill:rgb(37, 128, 255);fill-opacity:1.0;fill-rule:evenodd;stroke:rgb(0, 0, 0);stroke-width:3.0;" d="M 458.081, 463.052 L 463.348, 476.614 L 454.209, 477.506 L 441.561, 460.983 L 446.528, 445.757 z "/>
<path style="fill:rgb(177, 249, 78);fill-opacity:1.0;fill-rule:evenodd;stroke:rgb(0, 0, 0);stroke-width:3.0;" d="M 336.466, 564.929 L 334.385, 577.168 L 311.339, 561.071 z "/>
<path style="fill:rgb(255, 255, 69);fill-opacity:1.0;fill-rule:evenodd;stroke:rgb(0, 0, 0);stroke-width:3.0;" d="M 338.763, 518.85 L 326.072, 517.121 L 332.891, 507.457 L 338.383, 505.165 z "/>
<path style="fill:rgb(255, 255, 69);fill-opacity:1.0;fill-rule:evenodd;stroke:rgb(0, 0, 0);stroke-width:3.0;" d="M 772.079, 232.795 L 777.83, 251.881 L 764.09, 270.004 L 760.885, 221.747 z "/>
<path style="fill:rgb(255, 255, 7);fill-opacity:1.0;fill-rule:evenodd;stroke:rgb(0, 0, 0);stroke-width:3.0;" d="M 439.056, 546.095 L 371.533, 565.648 L 361.278, 549.162 L 437.644, 532.969 z "/>
<path style="fill:rgb(228, 255, 27);fill-opacity:1.0;fill-rule:evenodd;stroke:rgb(0, 0, 0);stroke-width:3.0;" d="M 672.242, 295.086 L 675.371, 320.166 L 669.45, 315.284 L 658.582, 295.084 z "/>
<path style="fill:rgb(255, 11, 24);fill-opacity:1.0;fill-rule:evenodd;stroke:rgb(0, 0, 0);stroke-width:3.0;" d="M 676.597, 419.186 L 659.411, 416.506 L 658.338, 415.249 L 690.144, 398.237 z "/>
<path style="fill:rgb(255, 11, 24);fill-opacity:1.0;fill-rule:evenodd;stroke:rgb(0, 0, 0);stroke-width:3.0;" d="M 144.633, 141.367 L 145.263, 144.455 L 53.4016, 84.7185 L 54.2105, 81.6319 z "/>
<path style="fill:rgb(255, 54, 23);fill-opacity:1.0;fill-rule:evenodd;stroke:rgb(0, 0, 0);stroke-width:3.0;" d="M 613.343, 408.346 L 607.645, 406.61 L 602.834, 381.982 L 608.789, 380.772 z "/>
<path style="fill:rgb(255, 54, 23);fill-opacity:1.0;fill-rule:evenodd;stroke:rgb(0, 0, 0);stroke-width:3.0;" d="M 510.006, 479.501 L 486.24, 465.877 L 489.244, 458.89 z "/>
<path style="fill:rgb(255, 59, 138);fill-opacity:1.0;fill-rule:evenodd;stroke:rgb(0, 0, 0);stroke-width:3.0;" d="M 672.04, 426.232 L 653.814, 454.416 L 638.958, 452.681 L 648.085, 424.631 L 663.691, 423.688 z "/>
<path style="fill:rgb(255, 255, 60);fill-opacity:1.0;fill-rule:evenodd;stroke:rgb(0, 0, 0);stroke-width:3.0;" d="M 374.603, 570.783 L 344.64, 566.184 L 333.911, 554.965 L 345.869, 552.429 z "/>
<path style="fill:rgb(54, 16, 255);fill-opacity:1.0;fill-rule:evenodd;stroke:rgb(0, 0, 0);stroke-width:3.0;" d="M 139.268, 348.701 L 55.928, 316.164 L 126.927, 238.571 z "/>
<path style="fill:rgb(56, 98, 255);fill-opacity:1.0;fill-rule:evenodd;stroke:rgb(0, 0, 0);stroke-width:3.0;" d="M 320.009, 285.412 L 322.779, 295.496 L 306.693, 287.947 L 306.056, 280.851 z "/>
<path style="fill:rgb(56, 98, 255);fill-opacity:1.0;fill-rule:evenodd;stroke:rgb(0, 0, 0);stroke-width:3.0;" d="M 426.336, 427.848 L 430.677, 468.197 L 420.859, 503.113 L 394.754, 493.48 L 400.663, 446.391 L 422.021, 427.344 z "/>
<path style="fill:rgb(220, 16, 19);fill-opacity:1.0;fill-rule:evenodd;stroke:rgb(0, 0, 0);stroke-width:3.0;" d="M 109.846, 121.424 L 145.263, 144.455 L 150.813, 171.641 L 73.6071, 123.563 L 77.7981, 118.534 z "/>
<path style="fill:rgb(246, 16, 10);fill-opacity:1.0;fill-rule:evenodd;stroke:rgb(0, 0, 0);stroke-width:3.0;" d="M 594.933, 402.736 L 586.61, 400.2 L 583.785, 392.08 L 586.054, 359.606 L 592.472, 338.45 z "/>
<path style="fill:rgb(246, 16, 10);fill-opacity:1.0;fill-rule:evenodd;stroke:rgb(0, 0, 0);stroke-width:3.0;" d="M 705.29, 287.752 L 725.145, 344.113 L 724.833, 344.595 L 670.784, 283.399 L 666.323, 247.639 z "/>
<path style="fill:rgb(192, 2, 30);fill-opacity:1.0;fill-rule:evenodd;stroke:rgb(0, 0, 0);stroke-width:3.0;" d="M 764.927, 282.595 L 743.538, 315.669 L 728.152, 308.221 L 761.238, 227.065 z "/>
<path style="fill:rgb(255, 15, 6);fill-opacity:1.0;fill-rule:evenodd;stroke:rgb(0, 0, 0);stroke-width:3.0;" d="M 445.937, 444.871 L 432.656, 479.609 L 431.912, 479.682 L 428.382, 446.863 L 444.745, 443.088 z "/>
<path style="fill:rgb(255, 15, 6);fill-opacity:1.0;fill-rule:evenodd;stroke:rgb(0, 0, 0);stroke-width:3.0;" d="M 775.091, 155.857 L 759.317, 166.836 L 759.092, 153.028 z "/>
<path style="fill:rgb(255, 15, 6);fill-opacity:1.0;fill-rule:evenodd;stroke:rgb(0, 0, 0);stroke-width:3.0;" d="M 412.973, 195.278 L 350.109, 249.802 L 263.995, 211.015 L 225.947, 115.216 L 340.703, 83.4582 z "/>
<path style="fill:rgb(255, 255, 33);fill-opacity:1.0;fill-rule:evenodd;stroke:rgb(0, 0, 0);stroke-width:3.0;" d="M 517.763, 574.724 L 514.523, 567.832 L 537.54, 541.567 L 548.052, 534.468 z "/>
<path style="fill:rgb(255, 255, 33);fill-opacity:1.0;fill-rule:evenodd;stroke:rgb(0, 0, 0);stroke-width:3.0;" d="M 120.907, 153.018 L 85.6963, 175.829 L 94.2051, 151.797 L 113.881, 148.643 z "/>
<path style="fill:rgb(255, 255, 33);fill-opacity:1.0;fill-rule:evenodd;stroke:rgb(0, 0, 0);stroke-width:3.0;" d="M 293.88, 548.695 L 293.56, 546.403 L 296.798, 542.654 L 414.601, 537.201 z "/>
<path style="fill:rgb(17, 255, 61);fill-opacity:1.0;fill-rule:evenodd;stroke:rgb(0, 0, 0);stroke-width:3.0;" d="M 47.9543, 324.878 L 30.4579, 344 L 33.6785, 295.801 L 36.9235, 294.89 z "/>
<path style="fill:rgb(243, 3, 65);fill-opacity:1.0;fill-rule:evenodd;stroke:rgb(0, 0, 0);stroke-width:3.0;" d="M 47.9543, 324.878 L 36.9235, 294.89 L 88.6844, 280.365 z "/>
<path style="fill:rgb(67, 255, 37);fill-opacity:1.0;fill-rule:evenodd;stroke:rgb(0, 0, 0);stroke-width:3.0;" d="M 234.856, 233.615 L 249.268, 260.997 L 198.027, 236.949 L 204.011, 233.483 z "/>
<path style="fill:rgb(67, 255, 37);fill-opacity:1.0;fill-rule:evenodd;stroke:rgb(0, 0, 0);stroke-width:3.0;" d="M 403.57, 416.649 L 369.208, 425.74 L 367.158, 421.006 L 387.824, 409.299 L 400.928, 407.482 z "/>
<path style="fill:rgb(67, 255, 37);fill-opacity:1.0;fill-rule:evenodd;stroke:rgb(0, 0, 0);stroke-width:3.0;" d="M 251.351, 214.574 L 197.07, 236.058 L 162.585, 173.298 L 162.71, 167.888 z "/>
<path style="fill:rgb(187, 8, 152);fill-opacity:1.0;fill-rule:evenodd;stroke:rgb(0, 0, 0);stroke-width:3.0;" d="M 275.448, 497.251 L 264.077, 512.031 L 227.463, 474.659 L 234.781, 462.8 z "/>
<path style="fill:rgb(246, 18, 182);fill-opacity:1.0;fill-rule:evenodd;stroke:rgb(0, 0, 0);stroke-width:3.0;" d="M 389.12, 334.22 L 386.727, 360.487 L 379.849, 362.566 L 377.305, 352.449 L 383.455, 330.519 z "/>
<path style="fill:rgb(246, 18, 182);fill-opacity:1.0;fill-rule:evenodd;stroke:rgb(0, 0, 0);stroke-width:3.0;" d="M 321.966, 436.784 L 275.448, 497.251 L 234.781, 462.8 L 271.317, 403.596 z "/>
<path style="fill:rgb(249, 237, 15);fill-opacity:1.0;fill-rule:evenodd;stroke:rgb(0, 0, 0);stroke-width:3.0;" d="M 437.353, 402.432 L 387.824, 409.299 L 388.415, 408.965 L 426.621, 394.696 z "/>
<path style="fill:rgb(249, 237, 15);fill-opacity:1.0;fill-rule:evenodd;stroke:rgb(0, 0, 0);stroke-width:3.0;" d="M 628.955, 295.252 L 640.666, 300.425 L 637.095, 322.031 L 585.993, 301.022 L 589.046, 298.713 L 607.279, 292.497 z "/>
<path style="fill:rgb(249, 237, 15);fill-opacity:1.0;fill-rule:evenodd;stroke:rgb(0, 0, 0);stroke-width:3.0;" d="M 434.994, 508.329 L 437.573, 532.313 L 394.149, 526.397 L 433.714, 507.857 z "/>
<path style="fill:rgb(81, 123, 237);fill-opacity:1.0;fill-rule:evenodd;stroke:rgb(0, 0, 0);stroke-width:3.0;" d="M 404.361, 300.909 L 405.328, 323.126 L 387.596, 322.491 L 403.868, 300.901 z "/>
<path style="fill:rgb(246, 19, 74);fill-opacity:1.0;fill-rule:evenodd;stroke:rgb(0, 0, 0);stroke-width:3.0;" d="M 639.927, 449.704 L 638.958, 452.681 L 592.127, 447.211 L 593.201, 427.947 L 609.247, 426.977 z "/>
<path style="fill:rgb(11, 123, 255);fill-opacity:1.0;fill-rule:evenodd;stroke:rgb(0, 0, 0);stroke-width:3.0;" d="M 200.238, 187.654 L 182.006, 178.051 L 226.748, 173.502 z "/>
<path style="fill:rgb(11, 123, 255);fill-opacity:1.0;fill-rule:evenodd;stroke:rgb(0, 0, 0);stroke-width:3.0;" d="M 253.303, 216.809 L 255.34, 226.346 L 254.391, 226.751 L 234.567, 221.217 L 248.898, 215.545 z "/>
<path style="fill:rgb(11, 123, 255);fill-opacity:1.0;fill-rule:evenodd;stroke:rgb(0, 0, 0);stroke-width:3.0;" d="M 145.777, 406.783 L 158.686, 521.975 L 47.3922, 438.186 L 142.807, 403.881 z "/>
<path style="fill:rgb(11, 123, 255);fill-opacity:1.0;fill-rule:evenodd;stroke:rgb(0, 0, 0);stroke-width:3.0;" d="M 561.188, 443.598 L 567.518, 450.284 L 563.24, 461.859 L 562.665, 462.496 L 553.083, 442.651 z "/>
<path style="fill:rgb(11, 123, 255);fill-opacity:1.0;fill-rule:evenodd;stroke:rgb(0, 0, 0);stroke-width:3.0;" d="M 457.962, 406.716 L 459.806, 411.86 L 459.566, 412.016 L 444.155, 416.231 L 446.915, 405.143 L 447.726, 404.419 z "/>
<path style="fill:rgb(37, 20, 255);fill-opacity:1.0;fill-rule:evenodd;stroke:rgb(0, 0, 0);stroke-width:3.0;" d="M 403.781, 327.874 L 393.012, 358.588 L 386.727, 360.487 L 389.858, 326.12 z "/>
<path style="fill:rgb(37, 20, 255);fill-opacity:1.0;fill-rule:evenodd;stroke:rgb(0, 0, 0);stroke-width:3.0;" d="M 561.349, 517.414 L 558.125, 527.27 L 549.297, 518.507 L 545.79, 489.638 z "/>
<path style="fill:rgb(37, 20, 255);fill-opacity:1.0;fill-rule:evenodd;stroke:rgb(0, 0, 0);stroke-width:3.0;" d="M 584.528, 394.217 L 563.731, 389.46 L 578.272, 376.234 z "/>
<path style="fill:rgb(54, 217, 255);fill-opacity:1.0;fill-rule:evenodd;stroke:rgb(0, 0, 0);stroke-width:3.0;" d="M 240.781, 157.42 L 152.709, 162.62 L 149.267, 160.808 L 150.577, 145.421 z "/>
<path style="fill:rgb(217, 255, 19);fill-opacity:1.0;fill-rule:evenodd;stroke:rgb(0, 0, 0);stroke-width:3.0;" d="M 150.813, 171.641 L 150.856, 171.853 L 125.169, 169.47 L 120.121, 164.893 L 122.423, 153.962 z "/>
<path style="fill:rgb(217, 255, 19);fill-opacity:1.0;fill-rule:evenodd;stroke:rgb(0, 0, 0);stroke-width:3.0;" d="M 242.665, 157.309 L 240.781, 157.42 L 189.805, 150.639 L 217.546, 104.163 L 221.109, 103.034 z "/>
<path style="fill:rgb(217, 255, 19);fill-opacity:1.0;fill-rule:evenodd;stroke:rgb(0, 0, 0);stroke-width:3.0;" d="M 574.298, 396.449 L 576.034, 405.07 L 565.62, 406.021 L 555.754, 390.798 z "/>
<path style="fill:rgb(255, 94, 67);fill-opacity:1.0;fill-rule:evenodd;stroke:rgb(0, 0, 0);stroke-width:3.0;" d="M 786.275, 167.53 L 780.637, 258.302 L 780.041, 259.222 L 758.66, 188.254 L 757.631, 172.761 L 783.244, 158.951 z "/>
<path style="fill:rgb(255, 82, 246);fill-opacity:1.0;fill-rule:evenodd;stroke:rgb(0, 0, 0);stroke-width:3.0;" d="M 790.491, 145.139 L 775.347, 155.68 L 756.295, 136.917 L 775.808, 111.837 L 783.749, 104.755 z "/>
<path style="fill:rgb(58, 255, 255);fill-opacity:1.0;fill-rule:evenodd;stroke:rgb(0, 0, 0);stroke-width:3.0;" d="M 384.421, 460.875 L 341.542, 499.114 L 337.206, 491.386 L 384.231, 460.435 z "/>
<path style="fill:rgb(243, 255, 55);fill-opacity:1.0;fill-rule:evenodd;stroke:rgb(0, 0, 0);stroke-width:3.0;" d="M 508.648, 350.09 L 481.694, 374.127 L 439.406, 389.921 L 435.126, 382.505 L 500.204, 345.643 z "/>
<path style="fill:rgb(243, 255, 55);fill-opacity:1.0;fill-rule:evenodd;stroke:rgb(0, 0, 0);stroke-width:3.0;" d="M 521.552, 438.968 L 514.731, 484.191 L 462.192, 432.035 z "/>
<path style="fill:rgb(243, 255, 55);fill-opacity:1.0;fill-rule:evenodd;stroke:rgb(0, 0, 0);stroke-width:3.0;" d="M 573.555, 480.102 L 562.216, 514.765 L 566.713, 479.595 z "/>
<path style="fill:rgb(243, 255, 55);fill-opacity:1.0;fill-rule:evenodd;stroke:rgb(0, 0, 0);stroke-width:3.0;" d="M 592.552, 303.719 L 583.068, 316.396 L 574.152, 296.154 z "/>
<path style="fill:rgb(243, 255, 55);fill-opacity:1.0;fill-rule:evenodd;stroke:rgb(0, 0, 0);stroke-width:3.0;" d="M 573.214, 292.51 L 546.262, 316.545 L 527.08, 309.89 L 551.111, 270.23 z "/>
<path style="fill:rgb(243, 255, 55);fill-opacity:1.0;fill-rule:evenodd;stroke:rgb(0, 0, 0);stroke-width:3.0;" d="M 442.711, 406.293 L 403.57, 416.649 L 400.928, 407.482 L 437.353, 402.432 z "/>
<path style="fill:rgb(243, 255, 55);fill-opacity:1.0;fill-rule:evenodd;stroke:rgb(0, 0, 0);stroke-width:3.0;" d="M 562.051, 422.365 L 559.32, 425.269 L 553.904, 430.321 L 546.887, 430.745 L 544.959, 427.211 L 552.601, 417.384 L 562.015, 415.546 z "/>
<path style="fill:rgb(249, 170, 7);fill-opacity:1.0;fill-rule:evenodd;stroke:rgb(0, 0, 0);stroke-width:3.0;" d="M 535.157, 162.899 L 510.336, 181.482 L 490.581, 160.92 z "/>
<path style="fill:rgb(175, 255, 202);fill-opacity:1.0;fill-rule:evenodd;stroke:rgb(0, 0, 0);stroke-width:3.0;" d="M 553.979, 401.834 L 554.506, 407.035 L 553.236, 407.151 L 539.143, 403.66 L 542.063, 389.594 z "/>
<path style="fill:rgb(175, 255, 202);fill-opacity:1.0;fill-rule:evenodd;stroke:rgb(0, 0, 0);stroke-width:3.0;" d="M 271.138, 233.77 L 299.709, 278.777 L 258.343, 265.256 L 249.268, 260.997 L 234.856, 233.615 z "/>
<path style="fill:rgb(175, 255, 202);fill-opacity:1.0;fill-rule:evenodd;stroke:rgb(0, 0, 0);stroke-width:3.0;" d="M 122.423, 153.962 L 110.547, 210.371 L 87.4849, 180.732 L 85.6957, 175.831 L 85.6963, 175.829 L 120.907, 153.018 z "/>
<path style="fill:rgb(231, 40, 25);fill-opacity:1.0;fill-rule:evenodd;stroke:rgb(0, 0, 0);stroke-width:3.0;" d="M 680.048, 339.69 L 670.017, 409.002 L 667.422, 410.39 L 619.661, 314.864 z "/>
<path style="fill:rgb(231, 40, 25);fill-opacity:1.0;fill-rule:evenodd;stroke:rgb(0, 0, 0);stroke-width:3.0;" d="M 512.387, 581.868 L 508.456, 587.094 L 492.566, 584.697 L 491.446, 579.173 z "/>
<path style="fill:rgb(231, 40, 25);fill-opacity:1.0;fill-rule:evenodd;stroke:rgb(0, 0, 0);stroke-width:3.0;" d="M 583.856, 446.245 L 589.099, 467.14 L 588.008, 467.638 L 583.759, 467.441 L 562.136, 444.599 L 563.066, 443.817 z "/>
<path style="fill:rgb(79, 237, 128);fill-opacity:1.0;fill-rule:evenodd;stroke:rgb(0, 0, 0);stroke-width:3.0;" d="M 472.887, 381.981 L 446.854, 405.197 L 442.711, 406.293 L 436.658, 401.931 L 454.183, 384.401 L 471.72, 377.852 z "/>
<path style="fill:rgb(79, 237, 128);fill-opacity:1.0;fill-rule:evenodd;stroke:rgb(0, 0, 0);stroke-width:3.0;" d="M 156.095, 197.518 L 157.627, 205.02 L 139.464, 224.87 L 122.37, 225.565 L 110.547, 210.371 L 120.121, 164.893 z "/>
<path style="fill:rgb(88, 55, 255);fill-opacity:1.0;fill-rule:evenodd;stroke:rgb(0, 0, 0);stroke-width:3.0;" d="M 494.375, 342.572 L 488.019, 352.545 L 483.091, 355.336 L 476.46, 350.681 L 486.82, 338.593 z "/>
<path style="fill:rgb(88, 55, 255);fill-opacity:1.0;fill-rule:evenodd;stroke:rgb(0, 0, 0);stroke-width:3.0;" d="M 442.256, 374.745 L 422.998, 350.599 L 425.36, 339.723 L 457.509, 338.826 z "/>
<path style="fill:rgb(255, 45, 11);fill-opacity:1.0;fill-rule:evenodd;stroke:rgb(0, 0, 0);stroke-width:3.0;" d="M 641.565, 273.134 L 614.965, 281.319 L 636.306, 267.145 z "/>
<path style="fill:rgb(255, 45, 11);fill-opacity:1.0;fill-rule:evenodd;stroke:rgb(0, 0, 0);stroke-width:3.0;" d="M 273.087, 533.588 L 268.505, 526.947 L 362.308, 472.438 L 370.964, 469.167 z "/>
<path style="fill:rgb(255, 45, 11);fill-opacity:1.0;fill-rule:evenodd;stroke:rgb(0, 0, 0);stroke-width:3.0;" d="M 695.073, 345.867 L 677.685, 338.719 L 674.463, 312.887 z "/>
<path style="fill:rgb(243, 4, 11);fill-opacity:1.0;fill-rule:evenodd;stroke:rgb(0, 0, 0);stroke-width:3.0;" d="M 564.439, 106.076 L 495.217, 161.126 L 489.497, 160.872 L 434.292, 84.8328 L 490.279, 59.884 z "/>
<path style="fill:rgb(243, 4, 11);fill-opacity:1.0;fill-rule:evenodd;stroke:rgb(0, 0, 0);stroke-width:3.0;" d="M 196.66, 315.487 L 183.791, 333.192 L 175.997, 295.013 z "/>
<path style="fill:rgb(243, 4, 11);fill-opacity:1.0;fill-rule:evenodd;stroke:rgb(0, 0, 0);stroke-width:3.0;" d="M 775.347, 155.68 L 775.091, 155.857 L 759.092, 153.028 L 758.87, 139.453 z "/>
<path style="fill:rgb(243, 4, 11);fill-opacity:1.0;fill-rule:evenodd;stroke:rgb(0, 0, 0);stroke-width:3.0;" d="M 545.79, 489.638 L 549.297, 518.507 L 529.687, 499.039 L 542.872, 484.429 z "/>
<path style="fill:rgb(243, 4, 11);fill-opacity:1.0;fill-rule:evenodd;stroke:rgb(0, 0, 0);stroke-width:3.0;" d="M 87.4999, 106.892 L 73.6071, 123.563 L 64.559, 117.928 L 60.699, 107.354 L 70.7077, 95.9724 z "/>
<path style="fill:rgb(249, 255, 20);fill-opacity:1.0;fill-rule:evenodd;stroke:rgb(0, 0, 0);stroke-width:3.0;" d="M 309.635, 261.179 L 323.898, 286.683 L 299.709, 278.777 L 278.522, 245.401 z "/>
<path style="fill:rgb(237, 237, 12);fill-opacity:1.0;fill-rule:evenodd;stroke:rgb(0, 0, 0);stroke-width:3.0;" d="M 150.856, 171.853 L 156.095, 197.518 L 125.169, 169.47 z "/>
<path style="fill:rgb(255, 22, 18);fill-opacity:1.0;fill-rule:evenodd;stroke:rgb(0, 0, 0);stroke-width:3.0;" d="M 190.595, 107.169 L 189.78, 112.964 L 152.33, 124.833 L 155.436, 88.3577 z "/>
<path style="fill:rgb(255, 22, 18);fill-opacity:1.0;fill-rule:evenodd;stroke:rgb(0, 0, 0);stroke-width:3.0;" d="M 586.621, 409.522 L 509.803, 423.766 L 504.99, 417.298 L 508.064, 411.275 L 584.87, 404.263 z "/>
<path style="fill:rgb(255, 22, 18);fill-opacity:1.0;fill-rule:evenodd;stroke:rgb(0, 0, 0);stroke-width:3.0;" d="M 553.083, 442.651 L 562.665, 462.496 L 529.687, 499.039 L 529.02, 498.377 L 547.942, 442.05 z "/>
<path style="fill:rgb(255, 22, 18);fill-opacity:1.0;fill-rule:evenodd;stroke:rgb(0, 0, 0);stroke-width:3.0;" d="M 664.175, 230.419 L 655.533, 230.997 L 650.84, 225.161 L 653.564, 220.853 L 662.038, 213.296 z "/>
<path style="fill:rgb(146, 255, 154);fill-opacity:1.0;fill-rule:evenodd;stroke:rgb(0, 0, 0);stroke-width:3.0;" d="M 388.901, 370.312 L 382.678, 373.818 L 379.849, 362.566 L 393.012, 358.588 z "/>
<path style="fill:rgb(237, 33, 12);fill-opacity:1.0;fill-rule:evenodd;stroke:rgb(0, 0, 0);stroke-width:3.0;" d="M 201.385, 169.976 L 168.995, 161.659 L 232.933, 157.883 z "/>
<path style="fill:rgb(234, 30, 175);fill-opacity:1.0;fill-rule:evenodd;stroke:rgb(0, 0, 0);stroke-width:3.0;" d="M 369.466, 562.325 L 368.377, 566.806 L 355.724, 558.724 L 351.387, 551.259 L 361.278, 549.162 z "/>
<path style="fill:rgb(234, 30, 175);fill-opacity:1.0;fill-rule:evenodd;stroke:rgb(0, 0, 0);stroke-width:3.0;" d="M 242.832, 537.824 L 224.284, 529.461 L 224.213, 523.065 L 235.272, 522.93 z "/>
<path style="fill:rgb(255, 33, 95);fill-opacity:1.0;fill-rule:evenodd;stroke:rgb(0, 0, 0);stroke-width:3.0;" d="M 410.611, 437.519 L 384.421, 460.875 L 371.411, 430.828 L 400.4, 425.039 z "/>
<path style="fill:rgb(255, 33, 95);fill-opacity:1.0;fill-rule:evenodd;stroke:rgb(0, 0, 0);stroke-width:3.0;" d="M 425.038, 395.287 L 399.539, 404.81 L 398.567, 403.214 L 423.371, 389.164 z "/>
<path style="fill:rgb(255, 33, 95);fill-opacity:1.0;fill-rule:evenodd;stroke:rgb(0, 0, 0);stroke-width:3.0;" d="M 486.18, 338.256 L 486.82, 338.593 L 462.448, 367.029 L 440.175, 379.646 L 459.195, 334.856 z "/>
<path style="fill:rgb(255, 4, 9);fill-opacity:1.0;fill-rule:evenodd;stroke:rgb(0, 0, 0);stroke-width:3.0;" d="M 342.324, 262.489 L 337.61, 283.591 L 312.886, 246.984 z "/>
<path style="fill:rgb(70, 255, 123);fill-opacity:1.0;fill-rule:evenodd;stroke:rgb(0, 0, 0);stroke-width:3.0;" d="M 734.377, 329.836 L 725.145, 344.113 L 720.285, 330.319 L 723.998, 324.594 z "/>
<path style="fill:rgb(70, 255, 123);fill-opacity:1.0;fill-rule:evenodd;stroke:rgb(0, 0, 0);stroke-width:3.0;" d="M 563.63, 503.706 L 562.216, 514.765 L 561.349, 517.414 L 550.337, 497.754 L 552.615, 495.066 z "/>
<path style="fill:rgb(70, 255, 123);fill-opacity:1.0;fill-rule:evenodd;stroke:rgb(0, 0, 0);stroke-width:3.0;" d="M 106.55, 205.233 L 106.338, 206.177 L 97.2347, 207.441 L 87.4849, 180.732 z "/>
<path style="fill:rgb(94, 14, 252);fill-opacity:1.0;fill-rule:evenodd;stroke:rgb(0, 0, 0);stroke-width:3.0;" d="M 70.7077, 95.9724 L 60.699, 107.354 L 55.2195, 92.3431 L 60.3963, 89.2671 z "/>
<path style="fill:rgb(249, 150, 14);fill-opacity:1.0;fill-rule:evenodd;stroke:rgb(0, 0, 0);stroke-width:3.0;" d="M 551.111, 270.23 L 507.708, 341.859 L 293.742, 10.7977 z "/>
<path style="fill:rgb(255, 98, 7);fill-opacity:1.0;fill-rule:evenodd;stroke:rgb(0, 0, 0);stroke-width:3.0;" d="M 547.942, 442.05 L 529.02, 498.377 L 514.731, 484.191 L 521.552, 438.968 z "/>
<path style="fill:rgb(255, 23, 154);fill-opacity:1.0;fill-rule:evenodd;stroke:rgb(0, 0, 0);stroke-width:3.0;" d="M 254.391, 226.751 L 240.728, 232.586 L 225.358, 224.862 L 234.567, 221.217 z "/>
<path style="fill:rgb(252, 21, 187);fill-opacity:1.0;fill-rule:evenodd;stroke:rgb(0, 0, 0);stroke-width:3.0;" d="M 442.256, 374.745 L 440.175, 379.646 L 419.493, 391.361 L 426.809, 355.377 z "/>
<path style="fill:rgb(252, 21, 187);fill-opacity:1.0;fill-rule:evenodd;stroke:rgb(0, 0, 0);stroke-width:3.0;" d="M 759.224, 196.739 L 761.238, 227.065 L 719.756, 328.815 L 709.698, 300.263 L 720.996, 207.975 L 752.849, 189.316 z "/>
<path style="fill:rgb(212, 23, 25);fill-opacity:1.0;fill-rule:evenodd;stroke:rgb(0, 0, 0);stroke-width:3.0;" d="M 709.698, 300.263 L 684.68, 229.248 L 720.996, 207.975 z "/>
<path style="fill:rgb(255, 255, 26);fill-opacity:1.0;fill-rule:evenodd;stroke:rgb(0, 0, 0);stroke-width:3.0;" d="M 528.751, 397.171 L 531.34, 400.04 L 506.843, 406.279 L 507.978, 400.434 L 515.534, 395.256 z "/>
<path style="fill:rgb(255, 255, 26);fill-opacity:1.0;fill-rule:evenodd;stroke:rgb(0, 0, 0);stroke-width:3.0;" d="M 717.933, 355.265 L 690.144, 398.237 L 670.017, 409.002 L 680.048, 339.69 z "/>
<path style="fill:rgb(255, 237, 16);fill-opacity:1.0;fill-rule:evenodd;stroke:rgb(0, 0, 0);stroke-width:3.0;" d="M 635.383, 482.918 L 610.099, 489.42 L 624.573, 467.828 L 648.076, 463.289 z "/>
<path style="fill:rgb(220, 209, 69);fill-opacity:1.0;fill-rule:evenodd;stroke:rgb(0, 0, 0);stroke-width:3.0;" d="M 484.954, 547.148 L 485.765, 551.15 L 480.374, 556.26 L 469.702, 540.709 L 471.594, 538.869 z "/>
<path style="fill:rgb(252, 199, 18);fill-opacity:1.0;fill-rule:evenodd;stroke:rgb(0, 0, 0);stroke-width:3.0;" d="M 122.043, 243.908 L 113.825, 252.89 L 104.714, 227.929 z "/>
<path style="fill:rgb(255, 88, 19);fill-opacity:1.0;fill-rule:evenodd;stroke:rgb(0, 0, 0);stroke-width:3.0;" d="M 546.262, 316.545 L 529.057, 331.888 L 517.098, 326.362 L 527.08, 309.89 z "/>
<path style="fill:rgb(243, 255, 19);fill-opacity:1.0;fill-rule:evenodd;stroke:rgb(0, 0, 0);stroke-width:3.0;" d="M 235.272, 522.93 L 224.807, 523.058 L 221.586, 518.343 L 220.956, 515.259 L 229.817, 512.185 z "/>
<path style="fill:rgb(255, 25, 197);fill-opacity:1.0;fill-rule:evenodd;stroke:rgb(0, 0, 0);stroke-width:3.0;" d="M 237.841, 485.251 L 252.629, 511.209 L 245.224, 506.979 L 226.497, 476.223 L 227.463, 474.659 z "/>
<path style="fill:rgb(136, 255, 11);fill-opacity:1.0;fill-rule:evenodd;stroke:rgb(0, 0, 0);stroke-width:3.0;" d="M 426.809, 355.377 L 420.163, 388.066 L 415.442, 385.393 L 422.998, 350.599 z "/>
<path style="fill:rgb(136, 255, 11);fill-opacity:1.0;fill-rule:evenodd;stroke:rgb(0, 0, 0);stroke-width:3.0;" d="M 332.949, 342.004 L 328.233, 346.743 L 308.306, 343.659 L 323.209, 319.51 z "/>
<path style="fill:rgb(136, 255, 11);fill-opacity:1.0;fill-rule:evenodd;stroke:rgb(0, 0, 0);stroke-width:3.0;" d="M 405.749, 504.998 L 392.189, 526.129 L 390.683, 525.924 L 393.358, 504.607 z "/>
<path style="fill:rgb(255, 33, 43);fill-opacity:1.0;fill-rule:evenodd;stroke:rgb(0, 0, 0);stroke-width:3.0;" d="M 189.805, 150.639 L 187.574, 150.342 L 173.932, 117.987 L 217.546, 104.163 z "/>
<path style="fill:rgb(255, 150, 13);fill-opacity:1.0;fill-rule:evenodd;stroke:rgb(0, 0, 0);stroke-width:3.0;" d="M 268.652, 386.82 L 201.055, 408.338 L 212.106, 330.791 z "/>
<path style="fill:rgb(255, 150, 13);fill-opacity:1.0;fill-rule:evenodd;stroke:rgb(0, 0, 0);stroke-width:3.0;" d="M 412.224, 301.046 L 413.7, 307.859 L 405.496, 326.974 L 404.361, 300.909 z "/>
<path style="fill:rgb(20, 79, 240);fill-opacity:1.0;fill-rule:evenodd;stroke:rgb(0, 0, 0);stroke-width:3.0;" d="M 468.41, 465.539 L 469.858, 472.679 L 464.989, 473.393 L 463.742, 471.526 L 452.977, 450.837 z "/>
<path style="fill:rgb(20, 79, 240);fill-opacity:1.0;fill-rule:evenodd;stroke:rgb(0, 0, 0);stroke-width:3.0;" d="M 700.62, 317.18 L 681.717, 324.496 L 674.463, 312.887 L 670.784, 283.399 z "/>
<path style="fill:rgb(9, 7, 231);fill-opacity:1.0;fill-rule:evenodd;stroke:rgb(0, 0, 0);stroke-width:3.0;" d="M 417.344, 431.514 L 407.043, 429.864 L 402.933, 419.862 L 410.526, 414.809 L 446.854, 405.197 z "/>
<path style="fill:rgb(243, 33, 30);fill-opacity:1.0;fill-rule:evenodd;stroke:rgb(0, 0, 0);stroke-width:3.0;" d="M 565.442, 479.932 L 550.337, 497.754 L 542.872, 484.429 L 552.654, 473.59 z "/>
<path style="fill:rgb(246, 142, 15);fill-opacity:1.0;fill-rule:evenodd;stroke:rgb(0, 0, 0);stroke-width:3.0;" d="M 566.887, 478.227 L 565.442, 479.932 L 552.654, 473.59 L 569.928, 454.449 z "/>
<path style="fill:rgb(61, 255, 252);fill-opacity:1.0;fill-rule:evenodd;stroke:rgb(0, 0, 0);stroke-width:3.0;" d="M 276.73, 394.825 L 216.346, 492.674 L 199.248, 408.913 L 268.652, 386.82 z "/>
<path style="fill:rgb(10, 79, 255);fill-opacity:1.0;fill-rule:evenodd;stroke:rgb(0, 0, 0);stroke-width:3.0;" d="M 602.294, 379.217 L 604.506, 405.654 L 594.933, 402.736 L 592.472, 338.45 L 593.602, 334.726 z "/>
<path style="fill:rgb(231, 5, 215);fill-opacity:1.0;fill-rule:evenodd;stroke:rgb(0, 0, 0);stroke-width:3.0;" d="M 454.707, 519.168 L 454.894, 525.515 L 443.019, 521.244 L 435.602, 513.988 L 434.739, 505.96 z "/>
<path style="fill:rgb(150, 255, 46);fill-opacity:1.0;fill-rule:evenodd;stroke:rgb(0, 0, 0);stroke-width:3.0;" d="M 718.644, 209.353 L 684.68, 229.248 L 674.992, 201.744 L 714.295, 166.694 z "/>
<path style="fill:rgb(134, 255, 255);fill-opacity:1.0;fill-rule:evenodd;stroke:rgb(0, 0, 0);stroke-width:3.0;" d="M 676.822, 338.364 L 659.345, 331.179 L 659.131, 330.916 L 673.439, 323.337 z "/>
<path style="fill:rgb(134, 255, 255);fill-opacity:1.0;fill-rule:evenodd;stroke:rgb(0, 0, 0);stroke-width:3.0;" d="M 752.849, 189.316 L 718.644, 209.353 L 714.295, 166.694 L 725.126, 157.035 z "/>
<path style="fill:rgb(255, 157, 10);fill-opacity:1.0;fill-rule:evenodd;stroke:rgb(0, 0, 0);stroke-width:3.0;" d="M 349.531, 250.304 L 338.067, 260.247 L 320.223, 250.849 L 328.008, 246.176 z "/>
<path style="fill:rgb(255, 12, 86);fill-opacity:1.0;fill-rule:evenodd;stroke:rgb(0, 0, 0);stroke-width:3.0;" d="M 743.538, 315.669 L 736.15, 327.095 L 731.998, 328.634 L 721.907, 323.538 L 728.152, 308.221 z "/>
<path style="fill:rgb(255, 51, 202);fill-opacity:1.0;fill-rule:evenodd;stroke:rgb(0, 0, 0);stroke-width:3.0;" d="M 461.605, 431.967 L 466.291, 455.082 L 460.729, 455.929 L 450.129, 445.362 L 441.966, 429.673 z "/>
<path style="fill:rgb(44, 124, 157);fill-opacity:1.0;fill-rule:evenodd;stroke:rgb(0, 0, 0);stroke-width:3.0;" d="M 212.106, 330.791 L 201.055, 408.338 L 199.248, 408.913 L 183.791, 333.192 L 196.66, 315.487 z "/>
<path style="fill:rgb(252, 246, 17);fill-opacity:1.0;fill-rule:evenodd;stroke:rgb(0, 0, 0);stroke-width:3.0;" d="M 340.703, 83.4582 L 225.947, 115.216 L 221.859, 104.923 L 322.814, 55.7793 z "/>
<path style="fill:rgb(252, 246, 17);fill-opacity:1.0;fill-rule:evenodd;stroke:rgb(0, 0, 0);stroke-width:3.0;" d="M 224.692, 173.711 L 182.006, 178.051 L 181.296, 177.677 L 206.981, 167.831 z "/>
<path style="fill:rgb(11, 48, 217);fill-opacity:1.0;fill-rule:evenodd;stroke:rgb(0, 0, 0);stroke-width:3.0;" d="M 594.333, 427.878 L 585.388, 428.419 L 566.716, 422.904 L 565.815, 413.38 L 569.885, 412.625 z "/>
<path style="fill:rgb(226, 8, 136);fill-opacity:1.0;fill-rule:evenodd;stroke:rgb(0, 0, 0);stroke-width:3.0;" d="M 490.981, 400.277 L 489.119, 415.27 L 477.555, 400.273 L 485.333, 395.195 z "/>
<path style="fill:rgb(243, 252, 10);fill-opacity:1.0;fill-rule:evenodd;stroke:rgb(0, 0, 0);stroke-width:3.0;" d="M 189.82, 222.864 L 185.099, 230.882 L 161.51, 219.812 L 162.585, 173.298 z "/>
<path style="fill:rgb(54, 255, 255);fill-opacity:1.0;fill-rule:evenodd;stroke:rgb(0, 0, 0);stroke-width:3.0;" d="M 641.312, 445.448 L 639.927, 449.704 L 629.406, 441.911 L 626.542, 435.788 L 628.365, 427.064 z "/>
<path style="fill:rgb(14, 107, 255);fill-opacity:1.0;fill-rule:evenodd;stroke:rgb(0, 0, 0);stroke-width:3.0;" d="M 328.233, 346.743 L 271.516, 403.726 L 271.317, 403.596 L 308.306, 343.659 z "/>
<path style="fill:rgb(202, 18, 21);fill-opacity:1.0;fill-rule:evenodd;stroke:rgb(0, 0, 0);stroke-width:3.0;" d="M 231.117, 565.032 L 230.429, 561.664 L 284.075, 526.356 L 313.797, 517.8 z "/>
<path style="fill:rgb(255, 110, 255);fill-opacity:1.0;fill-rule:evenodd;stroke:rgb(0, 0, 0);stroke-width:3.0;" d="M 341.542, 499.114 L 332.695, 507.004 L 313.797, 517.8 L 284.075, 526.356 L 337.206, 491.386 z "/>
<path style="fill:rgb(13, 252, 255);fill-opacity:1.0;fill-rule:evenodd;stroke:rgb(0, 0, 0);stroke-width:3.0;" d="M 234.017, 488.573 L 231.612, 506.74 L 218.331, 502.4 L 216.346, 492.674 L 226.497, 476.223 z "/>
<path style="fill:rgb(234, 255, 9);fill-opacity:1.0;fill-rule:evenodd;stroke:rgb(0, 0, 0);stroke-width:3.0;" d="M 642.601, 288.714 L 629.359, 295.304 L 607.279, 292.497 L 644.047, 279.964 z "/>
<path style="fill:rgb(255, 202, 50);fill-opacity:1.0;fill-rule:evenodd;stroke:rgb(0, 0, 0);stroke-width:3.0;" d="M 493.889, 413.104 L 494.56, 434.654 L 487.016, 432.213 L 489.501, 412.197 z "/>
</svg>