<?xml version="1.0" encoding="iso-8859-1" standalone="no"?>
<!DOCTYPE svg PUBLIC "-//W3C//DTD SVG 1.0//EN" "http://www.w3.org/TR/2001/REC-SVG-20010904/DTD/svg10.dtd">
<svg xmlns="http://www.w3.org/2000/svg" width="800" height="600">
<path style="fill:rgb(0, 0, 0);fill-opacity:0.0;fill-rule:evenodd;stroke:rgb(0, 0, 0);stroke-width:0.0;" d="M 0, 600 L 800, 600 L 800, 0 L 0, 0 z "/>
<path style="fill:rgb(255, 243, 64);fill-opacity:1.0;fill-rule:evenodd;stroke:rgb(0, 0, 0);stroke-width:3.0;" d="M 386.219, 115.456 L 334.569, 104.841 L 332.584, 103.378 L 332.373, 97.1478 L 428.878, 27.9649 z "/>
<path style="fill:rgb(255, 243, 64);fill-opacity:1.0;fill-rule:evenodd;stroke:rgb(0, 0, 0);stroke-width:3.0;" d="M 774.055, 475.103 L 758.543, 497.099 L 734.558, 458.825 L 760.518, 451.567 z "/>
<path style="fill:rgb(255, 243, 64);fill-opacity:1.0;fill-rule:evenodd;stroke:rgb(0, 0, 0);stroke-width:3.0;" d="M 43.6984, 157.941 L 24.9904, 133.23 L 6.6812, 103.528 L 52.5851, 92.529 z "/>
<path style="fill:rgb(255, 243, 64);fill-opacity:1.0;fill-rule:evenodd;stroke:rgb(0, 0, 0);stroke-width:3.0;" d="M 608.732, 39.3163 L 561.787, 217.906 L 523.71, 226.365 L 532.95, 22.6025 z "/>
<path style="fill:rgb(249, 255, 24);fill-opacity:1.0;fill-rule:evenodd;stroke:rgb(0, 0, 0);stroke-width:3.0;" d="M 84.9148, 431.337 L 68.4539, 442.081 L 66.5911, 435.652 L 66.9495, 413.609 z "/>
<path style="fill:rgb(249, 255, 24);fill-opacity:1.0;fill-rule:evenodd;stroke:rgb(0, 0, 0);stroke-width:3.0;" d="M 289.357, 373.071 L 291.806, 383.482 L 210.14, 355.851 L 208.977, 351.99 L 229.041, 340.861 z "/>
<path style="fill:rgb(12, 212, 33);fill-opacity:1.0;fill-rule:evenodd;stroke:rgb(0, 0, 0);stroke-width:3.0;" d="M 167.281, 72.8391 L 145.13, 126.985 L 74.6046, 107.605 L 105.362, 41.724 z "/>
<path style="fill:rgb(12, 212, 33);fill-opacity:1.0;fill-rule:evenodd;stroke:rgb(0, 0, 0);stroke-width:3.0;" d="M 767.462, 424.929 L 745.1, 417.338 L 750.512, 389.632 z "/>
<path style="fill:rgb(13, 165, 255);fill-opacity:1.0;fill-rule:evenodd;stroke:rgb(0, 0, 0);stroke-width:3.0;" d="M 750.512, 389.632 L 745.1, 417.338 L 714.532, 406.962 L 702.331, 395.263 L 702.907, 375.172 L 737.52, 362.577 z "/>
<path style="fill:rgb(255, 240, 15);fill-opacity:1.0;fill-rule:evenodd;stroke:rgb(0, 0, 0);stroke-width:3.0;" d="M 737.52, 362.577 L 685.994, 381.326 L 646.626, 318.501 L 675.514, 233.452 z "/>
<path style="fill:rgb(255, 15, 128);fill-opacity:1.0;fill-rule:evenodd;stroke:rgb(0, 0, 0);stroke-width:3.0;" d="M 569.13, 18.4837 L 580.153, 27.1419 L 582.804, 33.5979 L 572.289, 31.2787 L 552.238, 14.3732 L 551.75, 12.0351 L 555.799, 10.0919 z "/>
<path style="fill:rgb(255, 15, 128);fill-opacity:1.0;fill-rule:evenodd;stroke:rgb(0, 0, 0);stroke-width:3.0;" d="M 53.3434, 179.226 L 53.3272, 186.668 L 41.718, 182.812 L 39.7357, 179.242 L 49.574, 173.111 z "/>
<path style="fill:rgb(59, 1, 252);fill-opacity:1.0;fill-rule:evenodd;stroke:rgb(0, 0, 0);stroke-width:3.0;" d="M 87.3757, 274.8 L 67.6967, 270.922 L 54.4248, 260.822 L 60.5703, 242.704 z "/>
<path style="fill:rgb(59, 1, 252);fill-opacity:1.0;fill-rule:evenodd;stroke:rgb(0, 0, 0);stroke-width:3.0;" d="M 269.015, 326.691 L 235.948, 344.55 L 229.041, 340.861 L 260.402, 323.465 z "/>
<path style="fill:rgb(59, 1, 252);fill-opacity:1.0;fill-rule:evenodd;stroke:rgb(0, 0, 0);stroke-width:3.0;" d="M 567.337, 350.464 L 574.139, 368.193 L 576.546, 393.913 L 563.969, 349.921 z "/>
<path style="fill:rgb(59, 1, 252);fill-opacity:1.0;fill-rule:evenodd;stroke:rgb(0, 0, 0);stroke-width:3.0;" d="M 370.666, 239.659 L 359.961, 220.597 L 362.611, 199.313 L 364.002, 198.498 z "/>
<path style="fill:rgb(59, 1, 252);fill-opacity:1.0;fill-rule:evenodd;stroke:rgb(0, 0, 0);stroke-width:3.0;" d="M 48.5216, 156.013 L 61.449, 171.881 L 59.2961, 178.544 L 43.6984, 157.941 L 44.2786, 153.67 z "/>
<path style="fill:rgb(59, 1, 252);fill-opacity:1.0;fill-rule:evenodd;stroke:rgb(0, 0, 0);stroke-width:3.0;" d="M 361.782, 184.782 L 364.002, 198.498 L 336.34, 214.712 L 334.346, 155.601 z "/>
<path style="fill:rgb(255, 237, 177);fill-opacity:1.0;fill-rule:evenodd;stroke:rgb(0, 0, 0);stroke-width:3.0;" d="M 371.622, 245.568 L 373.773, 258.853 L 341.158, 265.465 L 356.247, 240.725 z "/>
<path style="fill:rgb(255, 237, 177);fill-opacity:1.0;fill-rule:evenodd;stroke:rgb(0, 0, 0);stroke-width:3.0;" d="M 41.9018, 183.143 L 49.7071, 197.199 L 47.3003, 203.784 L 29.4132, 183.11 z "/>
<path style="fill:rgb(243, 1, 237);fill-opacity:1.0;fill-rule:evenodd;stroke:rgb(0, 0, 0);stroke-width:3.0;" d="M 338.079, 266.26 L 338.124, 267.593 L 278.09, 280.929 L 244.563, 228.82 z "/>
<path style="fill:rgb(243, 1, 237);fill-opacity:1.0;fill-rule:evenodd;stroke:rgb(0, 0, 0);stroke-width:3.0;" d="M 655.066, 293.653 L 638.076, 304.857 L 632.978, 296.721 L 659.556, 280.433 z "/>
<path style="fill:rgb(243, 1, 237);fill-opacity:1.0;fill-rule:evenodd;stroke:rgb(0, 0, 0);stroke-width:3.0;" d="M 273.729, 274.151 L 252.891, 261.012 L 236.065, 230.07 L 241.836, 224.58 z "/>
<path style="fill:rgb(243, 1, 237);fill-opacity:1.0;fill-rule:evenodd;stroke:rgb(0, 0, 0);stroke-width:3.0;" d="M 348.975, 115.458 L 351.044, 120.365 L 332.978, 115.076 L 332.584, 103.378 z "/>
<path style="fill:rgb(243, 1, 237);fill-opacity:1.0;fill-rule:evenodd;stroke:rgb(0, 0, 0);stroke-width:3.0;" d="M 216.164, 234.809 L 217.744, 243.169 L 216.227, 268.84 L 213.522, 262.765 L 212.763, 232.946 L 212.858, 232.838 z "/>
<path style="fill:rgb(243, 1, 237);fill-opacity:1.0;fill-rule:evenodd;stroke:rgb(0, 0, 0);stroke-width:3.0;" d="M 224.23, 402.643 L 226.233, 409.295 L 220.27, 438.051 L 215.878, 442.897 L 173.252, 373.747 L 164.754, 331.235 L 194.057, 312.292 z "/>
<path style="fill:rgb(126, 199, 255);fill-opacity:1.0;fill-rule:evenodd;stroke:rgb(0, 0, 0);stroke-width:3.0;" d="M 268.397, 187.165 L 235.473, 212.389 L 256.255, 100.6 z "/>
<path style="fill:rgb(126, 199, 255);fill-opacity:1.0;fill-rule:evenodd;stroke:rgb(0, 0, 0);stroke-width:3.0;" d="M 359.961, 220.597 L 351.625, 205.753 L 362.611, 199.313 z "/>
<path style="fill:rgb(126, 199, 255);fill-opacity:1.0;fill-rule:evenodd;stroke:rgb(0, 0, 0);stroke-width:3.0;" d="M 52.1082, 452.75 L 41.6562, 459.573 L 8.5511, 403.065 L 34.7032, 394.738 z "/>
<path style="fill:rgb(126, 199, 255);fill-opacity:1.0;fill-rule:evenodd;stroke:rgb(0, 0, 0);stroke-width:3.0;" d="M 576.546, 393.913 L 581.466, 446.473 L 513.129, 403.013 L 530.293, 337.716 L 553.457, 313.15 z "/>
<path style="fill:rgb(255, 74, 11);fill-opacity:1.0;fill-rule:evenodd;stroke:rgb(0, 0, 0);stroke-width:3.0;" d="M 632.18, 213.759 L 598.786, 209.028 L 622.82, 196.398 z "/>
<path style="fill:rgb(255, 12, 60);fill-opacity:1.0;fill-rule:evenodd;stroke:rgb(0, 0, 0);stroke-width:3.0;" d="M 24.1491, 156.552 L 26.6718, 171.354 L 21.8743, 176.513 L 16.9584, 166.807 L 19.5241, 156.21 z "/>
<path style="fill:rgb(255, 12, 60);fill-opacity:1.0;fill-rule:evenodd;stroke:rgb(0, 0, 0);stroke-width:3.0;" d="M 285.716, 381.421 L 291.806, 383.482 L 304.874, 439.022 L 237.356, 446.233 L 217.554, 380.473 z "/>
<path style="fill:rgb(231, 24, 100);fill-opacity:1.0;fill-rule:evenodd;stroke:rgb(0, 0, 0);stroke-width:3.0;" d="M 657.847, 196.66 L 663.221, 207.852 L 644.936, 215.143 L 640.808, 186.945 L 640.862, 186.917 z "/>
<path style="fill:rgb(249, 243, 70);fill-opacity:1.0;fill-rule:evenodd;stroke:rgb(0, 0, 0);stroke-width:3.0;" d="M 599.377, 74.904 L 602.782, 61.9498 L 654.308, 53.3903 z "/>
<path style="fill:rgb(249, 27, 8);fill-opacity:1.0;fill-rule:evenodd;stroke:rgb(0, 0, 0);stroke-width:3.0;" d="M 562.986, 253.691 L 571.209, 270.061 L 559.437, 262.612 L 553.575, 255.522 L 559.878, 250.223 z "/>
<path style="fill:rgb(249, 27, 8);fill-opacity:1.0;fill-rule:evenodd;stroke:rgb(0, 0, 0);stroke-width:3.0;" d="M 675.514, 233.452 L 659.556, 280.433 L 632.978, 296.721 L 594.468, 235.268 L 663.221, 207.852 z "/>
<path style="fill:rgb(255, 17, 44);fill-opacity:1.0;fill-rule:evenodd;stroke:rgb(0, 0, 0);stroke-width:3.0;" d="M 119.207, 286.072 L 149.989, 336.01 L 161.456, 363.503 L 111.041, 303.137 L 113.858, 280.212 z "/>
<path style="fill:rgb(228, 246, 24);fill-opacity:1.0;fill-rule:evenodd;stroke:rgb(0, 0, 0);stroke-width:3.0;" d="M 784.382, 188.245 L 712.101, 227.784 L 640.862, 186.917 L 759.602, 124.519 z "/>
<path style="fill:rgb(255, 231, 11);fill-opacity:1.0;fill-rule:evenodd;stroke:rgb(0, 0, 0);stroke-width:3.0;" d="M 336.868, 93.9257 L 341.819, 52.7826 L 403.62, 46.072 z "/>
<path style="fill:rgb(217, 255, 13);fill-opacity:1.0;fill-rule:evenodd;stroke:rgb(0, 0, 0);stroke-width:3.0;" d="M 772.374, 472.182 L 760.518, 451.567 L 792.287, 442.686 z "/>
<path style="fill:rgb(217, 255, 13);fill-opacity:1.0;fill-rule:evenodd;stroke:rgb(0, 0, 0);stroke-width:3.0;" d="M 171.118, 375.072 L 128.777, 402.708 L 96.2924, 375.126 L 155.435, 356.294 z "/>
<path style="fill:rgb(217, 255, 13);fill-opacity:1.0;fill-rule:evenodd;stroke:rgb(0, 0, 0);stroke-width:3.0;" d="M 178.715, 313.995 L 179.843, 321.481 L 169.502, 328.165 L 166.956, 305.618 L 167.45, 305.508 z "/>
<path style="fill:rgb(252, 255, 22);fill-opacity:1.0;fill-rule:evenodd;stroke:rgb(0, 0, 0);stroke-width:3.0;" d="M 306.26, 286.187 L 293.774, 281.167 L 293.518, 277.502 L 310.856, 273.651 z "/>
<path style="fill:rgb(252, 255, 22);fill-opacity:1.0;fill-rule:evenodd;stroke:rgb(0, 0, 0);stroke-width:3.0;" d="M 255.336, 506.908 L 266.972, 525.785 L 259.675, 534.46 L 259.602, 534.435 L 252.67, 508.895 L 252.536, 506.227 z "/>
<path style="fill:rgb(252, 255, 22);fill-opacity:1.0;fill-rule:evenodd;stroke:rgb(0, 0, 0);stroke-width:3.0;" d="M 228.562, 455.567 L 241.411, 465.088 L 249.082, 485.174 L 255.905, 507.831 L 223.287, 454.916 z "/>
<path style="fill:rgb(255, 170, 17);fill-opacity:1.0;fill-rule:evenodd;stroke:rgb(0, 0, 0);stroke-width:3.0;" d="M 622.441, 279.907 L 592.727, 566.791 L 567.585, 298.166 L 607.414, 255.926 z "/>
<path style="fill:rgb(255, 170, 17);fill-opacity:1.0;fill-rule:evenodd;stroke:rgb(0, 0, 0);stroke-width:3.0;" d="M 718.86, 231.661 L 697.616, 279.479 L 657.847, 196.66 z "/>
<path style="fill:rgb(255, 170, 17);fill-opacity:1.0;fill-rule:evenodd;stroke:rgb(0, 0, 0);stroke-width:3.0;" d="M 66.4229, 200.444 L 63.259, 219.823 L 53.9045, 203.599 L 62.6447, 194.315 z "/>
<path style="fill:rgb(255, 170, 17);fill-opacity:1.0;fill-rule:evenodd;stroke:rgb(0, 0, 0);stroke-width:3.0;" d="M 592.63, 236.623 L 587.989, 251.364 L 581.288, 256.157 L 580.004, 254.674 L 586.355, 235.982 z "/>
<path style="fill:rgb(255, 177, 17);fill-opacity:1.0;fill-rule:evenodd;stroke:rgb(0, 0, 0);stroke-width:3.0;" d="M 622.086, 212.329 L 593.695, 234.033 L 585.787, 221.414 L 599.973, 209.196 z "/>
<path style="fill:rgb(255, 177, 17);fill-opacity:1.0;fill-rule:evenodd;stroke:rgb(0, 0, 0);stroke-width:3.0;" d="M 588.671, 226.017 L 584.914, 229.176 L 568.003, 194.26 L 568.23, 193.396 z "/>
<path style="fill:rgb(255, 177, 17);fill-opacity:1.0;fill-rule:evenodd;stroke:rgb(0, 0, 0);stroke-width:3.0;" d="M 593.386, 270.119 L 583.341, 258.526 L 583.07, 254.883 L 584.446, 253.898 L 600.268, 247.381 z "/>
<path style="fill:rgb(255, 177, 17);fill-opacity:1.0;fill-rule:evenodd;stroke:rgb(0, 0, 0);stroke-width:3.0;" d="M 155.435, 356.294 L 154.698, 356.529 L 124.234, 360.571 L 107.409, 360.551 L 106.099, 351.754 L 147.227, 346.466 z "/>
<path style="fill:rgb(255, 177, 17);fill-opacity:1.0;fill-rule:evenodd;stroke:rgb(0, 0, 0);stroke-width:3.0;" d="M 363.313, 226.567 L 351.241, 239.148 L 337.15, 234.709 L 349.225, 207.16 L 351.625, 205.753 z "/>
<path style="fill:rgb(255, 177, 17);fill-opacity:1.0;fill-rule:evenodd;stroke:rgb(0, 0, 0);stroke-width:3.0;" d="M 748.185, 425.78 L 745.652, 432.491 L 724.196, 440.429 L 722.555, 432.209 L 740.735, 422.674 z "/>
<path style="fill:rgb(255, 228, 17);fill-opacity:1.0;fill-rule:evenodd;stroke:rgb(0, 0, 0);stroke-width:3.0;" d="M 237.707, 218.163 L 239.75, 226.564 L 230.044, 235.798 L 213.796, 213.171 L 234.052, 212.482 z "/>
<path style="fill:rgb(255, 228, 17);fill-opacity:1.0;fill-rule:evenodd;stroke:rgb(0, 0, 0);stroke-width:3.0;" d="M 335.268, 182.936 L 327.283, 175.682 L 321.346, 166.526 L 322.33, 163.99 L 334.482, 159.635 z "/>
<path style="fill:rgb(255, 228, 17);fill-opacity:1.0;fill-rule:evenodd;stroke:rgb(0, 0, 0);stroke-width:3.0;" d="M 304.755, 438.516 L 268.195, 283.128 L 293.518, 277.502 z "/>
<path style="fill:rgb(255, 197, 30);fill-opacity:1.0;fill-rule:evenodd;stroke:rgb(0, 0, 0);stroke-width:3.0;" d="M 429.92, 25.8265 L 428.878, 27.9649 L 410.132, 41.4034 L 416.234, 23.7679 L 416.379, 23.6822 z "/>
<path style="fill:rgb(255, 197, 30);fill-opacity:1.0;fill-rule:evenodd;stroke:rgb(0, 0, 0);stroke-width:3.0;" d="M 351.37, 120.46 L 356.566, 152.562 L 351.763, 174.126 L 334.346, 155.601 L 332.978, 115.076 z "/>
<path style="fill:rgb(255, 197, 30);fill-opacity:1.0;fill-rule:evenodd;stroke:rgb(0, 0, 0);stroke-width:3.0;" d="M 569.014, 313.438 L 553.877, 314.62 L 553.457, 313.15 L 567.585, 298.166 z "/>
<path style="fill:rgb(255, 197, 30);fill-opacity:1.0;fill-rule:evenodd;stroke:rgb(0, 0, 0);stroke-width:3.0;" d="M 146.094, 215.473 L 124.363, 216.212 L 114.382, 202.141 L 116.036, 198.1 z "/>
<path style="fill:rgb(255, 197, 30);fill-opacity:1.0;fill-rule:evenodd;stroke:rgb(0, 0, 0);stroke-width:3.0;" d="M 67.4477, 141.992 L 49.1778, 117.609 L 49.4024, 115.956 L 60.8607, 112.251 z "/>
<path style="fill:rgb(255, 255, 8);fill-opacity:1.0;fill-rule:evenodd;stroke:rgb(0, 0, 0);stroke-width:3.0;" d="M 779.305, 428.95 L 767.462, 424.929 L 753.182, 395.192 z "/>
<path style="fill:rgb(255, 255, 8);fill-opacity:1.0;fill-rule:evenodd;stroke:rgb(0, 0, 0);stroke-width:3.0;" d="M 72.6243, 238.47 L 72.49, 239.67 L 49.0469, 226.222 L 58.1058, 212.324 z "/>
<path style="fill:rgb(249, 39, 22);fill-opacity:1.0;fill-rule:evenodd;stroke:rgb(0, 0, 0);stroke-width:3.0;" d="M 521.775, 370.123 L 491.928, 483.666 L 381.512, 341.596 z "/>
<path style="fill:rgb(255, 7, 7);fill-opacity:1.0;fill-rule:evenodd;stroke:rgb(0, 0, 0);stroke-width:3.0;" d="M 44.9523, 505.245 L 22.629, 511.227 L 39.9194, 493.458 z "/>
<path style="fill:rgb(255, 7, 7);fill-opacity:1.0;fill-rule:evenodd;stroke:rgb(0, 0, 0);stroke-width:3.0;" d="M 103.718, 190.398 L 86.6774, 214.711 L 86.2717, 214.175 L 62.4802, 168.689 L 70.0041, 145.404 z "/>
<path style="fill:rgb(255, 202, 8);fill-opacity:1.0;fill-rule:evenodd;stroke:rgb(0, 0, 0);stroke-width:3.0;" d="M 60.3431, 132.51 L 70.0041, 145.404 L 61.449, 171.881 L 44.6123, 151.214 L 47.2043, 132.135 z "/>
<path style="fill:rgb(226, 36, 255);fill-opacity:1.0;fill-rule:evenodd;stroke:rgb(0, 0, 0);stroke-width:3.0;" d="M 307.86, 451.712 L 282.604, 451.235 L 277.95, 441.897 L 304.874, 439.022 z "/>
<path style="fill:rgb(255, 121, 16);fill-opacity:1.0;fill-rule:evenodd;stroke:rgb(0, 0, 0);stroke-width:3.0;" d="M 399.662, 152.814 L 373.279, 255.803 L 369.33, 231.409 L 390.378, 145.971 z "/>
<path style="fill:rgb(255, 121, 16);fill-opacity:1.0;fill-rule:evenodd;stroke:rgb(0, 0, 0);stroke-width:3.0;" d="M 264.052, 381.12 L 232.436, 380.68 L 235.438, 379.378 L 264.803, 375.249 z "/>
<path style="fill:rgb(255, 121, 16);fill-opacity:1.0;fill-rule:evenodd;stroke:rgb(0, 0, 0);stroke-width:3.0;" d="M 434.379, 8.44216 L 434.788, 12.8362 L 416.234, 23.7679 L 422.117, 6.76375 z "/>
<path style="fill:rgb(255, 121, 16);fill-opacity:1.0;fill-rule:evenodd;stroke:rgb(0, 0, 0);stroke-width:3.0;" d="M 391.247, 47.4155 L 365.144, 50.2498 L 357.223, 45.9942 L 358.778, 39.4913 z "/>
<path style="fill:rgb(255, 121, 16);fill-opacity:1.0;fill-rule:evenodd;stroke:rgb(0, 0, 0);stroke-width:3.0;" d="M 574.439, 207.549 L 566.162, 242.194 L 557.536, 243.551 L 559.021, 228.427 L 568.003, 194.26 z "/>
<path style="fill:rgb(255, 121, 16);fill-opacity:1.0;fill-rule:evenodd;stroke:rgb(0, 0, 0);stroke-width:3.0;" d="M 790.488, 317.071 L 790.9, 319.731 L 779.636, 330.375 L 775.135, 312.558 z "/>
<path style="fill:rgb(255, 121, 16);fill-opacity:1.0;fill-rule:evenodd;stroke:rgb(0, 0, 0);stroke-width:3.0;" d="M 763.153, 340.056 L 749.092, 329.145 L 769.14, 318.027 z "/>
<path style="fill:rgb(255, 121, 16);fill-opacity:1.0;fill-rule:evenodd;stroke:rgb(0, 0, 0);stroke-width:3.0;" d="M 88.6901, 236.567 L 119.207, 286.072 L 71.7619, 234.084 z "/>
<path style="fill:rgb(81, 92, 255);fill-opacity:1.0;fill-rule:evenodd;stroke:rgb(0, 0, 0);stroke-width:3.0;" d="M 404.346, 156.266 L 428.025, 247.621 L 416.059, 250.28 L 373.773, 258.853 L 373.279, 255.803 L 399.662, 152.814 z "/>
<path style="fill:rgb(81, 92, 255);fill-opacity:1.0;fill-rule:evenodd;stroke:rgb(0, 0, 0);stroke-width:3.0;" d="M 425.398, 196.423 L 418.673, 211.541 L 413.189, 190.382 z "/>
<path style="fill:rgb(81, 92, 255);fill-opacity:1.0;fill-rule:evenodd;stroke:rgb(0, 0, 0);stroke-width:3.0;" d="M 330.909, 549.676 L 310.504, 533.931 L 311.904, 531.771 L 324.479, 522.347 z "/>
<path style="fill:rgb(81, 92, 255);fill-opacity:1.0;fill-rule:evenodd;stroke:rgb(0, 0, 0);stroke-width:3.0;" d="M 318.775, 498.104 L 302.63, 547.001 L 254.548, 503.326 L 250.322, 489.292 L 316.415, 488.076 z "/>
<path style="fill:rgb(42, 234, 243);fill-opacity:1.0;fill-rule:evenodd;stroke:rgb(0, 0, 0);stroke-width:3.0;" d="M 314.1, 478.235 L 316.415, 488.076 L 250.322, 489.292 L 242.508, 463.342 z "/>
<path style="fill:rgb(249, 255, 6);fill-opacity:1.0;fill-rule:evenodd;stroke:rgb(0, 0, 0);stroke-width:3.0;" d="M 59.3957, 42.3984 L 26.8608, 51.8427 L 61.2425, 28.8049 z "/>
<path style="fill:rgb(249, 255, 6);fill-opacity:1.0;fill-rule:evenodd;stroke:rgb(0, 0, 0);stroke-width:3.0;" d="M 230.044, 235.798 L 218.438, 246.839 L 216.767, 237.995 L 226.09, 230.291 z "/>
<path style="fill:rgb(249, 255, 6);fill-opacity:1.0;fill-rule:evenodd;stroke:rgb(0, 0, 0);stroke-width:3.0;" d="M 273.235, 304.551 L 267.45, 312.463 L 258.712, 302.037 L 270.522, 293.019 z "/>
<path style="fill:rgb(246, 187, 9);fill-opacity:1.0;fill-rule:evenodd;stroke:rgb(0, 0, 0);stroke-width:3.0;" d="M 112.354, 304.709 L 147.227, 346.466 L 118.176, 350.201 L 75.249, 303.544 z "/>
<path style="fill:rgb(110, 52, 175);fill-opacity:1.0;fill-rule:evenodd;stroke:rgb(0, 0, 0);stroke-width:3.0;" d="M 335.268, 182.936 L 335.933, 202.65 L 332.512, 204.881 L 308.861, 198.732 L 320.268, 169.308 z "/>
<path style="fill:rgb(110, 52, 175);fill-opacity:1.0;fill-rule:evenodd;stroke:rgb(0, 0, 0);stroke-width:3.0;" d="M 383.283, 174.769 L 369.33, 231.409 L 351.46, 121.016 z "/>
<path style="fill:rgb(67, 159, 44);fill-opacity:1.0;fill-rule:evenodd;stroke:rgb(0, 0, 0);stroke-width:3.0;" d="M 390.378, 145.971 L 383.283, 174.769 L 351.46, 121.016 L 350.775, 116.785 z "/>
<path style="fill:rgb(56, 4, 255);fill-opacity:1.0;fill-rule:evenodd;stroke:rgb(0, 0, 0);stroke-width:3.0;" d="M 254.82, 370.968 L 232.436, 380.68 L 218.367, 380.484 L 230.075, 362.596 z "/>
<path style="fill:rgb(56, 4, 255);fill-opacity:1.0;fill-rule:evenodd;stroke:rgb(0, 0, 0);stroke-width:3.0;" d="M 296.54, 451.499 L 303.63, 464.744 L 285.197, 472.222 L 265.065, 468.034 L 278.972, 451.167 z "/>
<path style="fill:rgb(8, 15, 255);fill-opacity:1.0;fill-rule:evenodd;stroke:rgb(0, 0, 0);stroke-width:3.0;" d="M 212.288, 214.298 L 213.522, 262.765 L 191.772, 213.92 L 212.086, 213.229 z "/>
<path style="fill:rgb(255, 255, 14);fill-opacity:1.0;fill-rule:evenodd;stroke:rgb(0, 0, 0);stroke-width:3.0;" d="M 195.74, 311.204 L 184.584, 318.416 L 173.426, 310.011 L 179.226, 302.892 L 181.19, 302.456 z "/>
<path style="fill:rgb(255, 255, 14);fill-opacity:1.0;fill-rule:evenodd;stroke:rgb(0, 0, 0);stroke-width:3.0;" d="M 787.229, 144.887 L 775.229, 158.84 L 768.155, 140.826 z "/>
<path style="fill:rgb(255, 255, 14);fill-opacity:1.0;fill-rule:evenodd;stroke:rgb(0, 0, 0);stroke-width:3.0;" d="M 579.297, 285.745 L 573.671, 291.712 L 553.158, 284.653 L 568.241, 279.472 z "/>
<path style="fill:rgb(255, 255, 14);fill-opacity:1.0;fill-rule:evenodd;stroke:rgb(0, 0, 0);stroke-width:3.0;" d="M 60.8607, 112.251 L 58.8085, 112.914 L 51.1749, 102.909 L 54.0708, 81.5932 z "/>
<path style="fill:rgb(223, 12, 7);fill-opacity:1.0;fill-rule:evenodd;stroke:rgb(0, 0, 0);stroke-width:3.0;" d="M 279.355, 330.564 L 280.028, 333.423 L 265.349, 337.812 L 265.257, 328.721 L 269.015, 326.691 z "/>
<path style="fill:rgb(223, 12, 7);fill-opacity:1.0;fill-rule:evenodd;stroke:rgb(0, 0, 0);stroke-width:3.0;" d="M 278.499, 544.484 L 295.054, 571.34 L 155.828, 564.164 L 149.447, 507.73 z "/>
<path style="fill:rgb(223, 12, 7);fill-opacity:1.0;fill-rule:evenodd;stroke:rgb(0, 0, 0);stroke-width:3.0;" d="M 182.386, 388.565 L 185.818, 394.133 L 139.134, 405.903 L 133.67, 399.515 L 171.118, 375.072 z "/>
<path style="fill:rgb(223, 12, 7);fill-opacity:1.0;fill-rule:evenodd;stroke:rgb(0, 0, 0);stroke-width:3.0;" d="M 644.665, 213.287 L 640.207, 212.262 L 637.258, 188.811 L 640.808, 186.945 z "/>
<path style="fill:rgb(255, 255, 7);fill-opacity:1.0;fill-rule:evenodd;stroke:rgb(0, 0, 0);stroke-width:3.0;" d="M 589.365, 227.123 L 575.569, 267.726 L 559.878, 250.223 L 588.671, 226.017 z "/>
<path style="fill:rgb(255, 255, 7);fill-opacity:1.0;fill-rule:evenodd;stroke:rgb(0, 0, 0);stroke-width:3.0;" d="M 226.694, 292.347 L 201.514, 297.941 L 148.131, 295.883 L 109.394, 244.716 L 126.942, 216.124 L 191.772, 213.92 z "/>
<path style="fill:rgb(255, 255, 7);fill-opacity:1.0;fill-rule:evenodd;stroke:rgb(0, 0, 0);stroke-width:3.0;" d="M 375.15, 113.181 L 371.749, 132.242 L 334.569, 104.841 z "/>
<path style="fill:rgb(105, 217, 255);fill-opacity:1.0;fill-rule:evenodd;stroke:rgb(0, 0, 0);stroke-width:3.0;" d="M 284.033, 350.446 L 289.357, 373.071 L 247.714, 350.833 L 245.048, 345.21 z "/>
<path style="fill:rgb(215, 0, 33);fill-opacity:1.0;fill-rule:evenodd;stroke:rgb(0, 0, 0);stroke-width:3.0;" d="M 425.528, 182.895 L 438.543, 202.928 L 413.189, 190.382 L 411.647, 184.432 L 417.03, 175.538 z "/>
<path style="fill:rgb(215, 0, 33);fill-opacity:1.0;fill-rule:evenodd;stroke:rgb(0, 0, 0);stroke-width:3.0;" d="M 638.213, 196.406 L 630.92, 210.126 L 630.123, 209.943 L 622.82, 196.398 L 637.258, 188.811 z "/>
<path style="fill:rgb(215, 0, 33);fill-opacity:1.0;fill-rule:evenodd;stroke:rgb(0, 0, 0);stroke-width:3.0;" d="M 50.0775, 429.076 L 64.2119, 444.85 L 52.1082, 452.75 L 43.8279, 425.151 z "/>
<path style="fill:rgb(215, 0, 33);fill-opacity:1.0;fill-rule:evenodd;stroke:rgb(0, 0, 0);stroke-width:3.0;" d="M 319.096, 561.959 L 301.036, 575.984 L 269.063, 516.51 z "/>
<path style="fill:rgb(51, 255, 246);fill-opacity:1.0;fill-rule:evenodd;stroke:rgb(0, 0, 0);stroke-width:3.0;" d="M 108.195, 283.725 L 112.411, 291.987 L 111.041, 303.137 L 103.557, 294.175 L 94.7323, 278.284 z "/>
<path style="fill:rgb(255, 29, 61);fill-opacity:1.0;fill-rule:evenodd;stroke:rgb(0, 0, 0);stroke-width:3.0;" d="M 66.9495, 413.609 L 66.5911, 435.652 L 57.5029, 404.288 z "/>
<path style="fill:rgb(255, 29, 61);fill-opacity:1.0;fill-rule:evenodd;stroke:rgb(0, 0, 0);stroke-width:3.0;" d="M 611.481, 28.8569 L 609.894, 34.896 L 609.004, 35.3338 L 602.377, 27.4845 L 592.677, 9.39253 z "/>
<path style="fill:rgb(255, 255, 11);fill-opacity:1.0;fill-rule:evenodd;stroke:rgb(0, 0, 0);stroke-width:3.0;" d="M 311.109, 540.153 L 315.921, 559.074 L 302.63, 547.001 L 303.249, 545.124 L 308.145, 537.57 z "/>
<path style="fill:rgb(255, 255, 11);fill-opacity:1.0;fill-rule:evenodd;stroke:rgb(0, 0, 0);stroke-width:3.0;" d="M 226.636, 342.195 L 208.977, 351.99 L 201.575, 327.409 L 208.018, 325.073 z "/>
<path style="fill:rgb(255, 255, 11);fill-opacity:1.0;fill-rule:evenodd;stroke:rgb(0, 0, 0);stroke-width:3.0;" d="M 735.941, 136.953 L 583.168, 217.235 L 568.23, 193.396 L 595.257, 90.5798 L 643.525, 70.3067 z "/>
<path style="fill:rgb(17, 27, 255);fill-opacity:1.0;fill-rule:evenodd;stroke:rgb(0, 0, 0);stroke-width:3.0;" d="M 334.188, 150.92 L 327.117, 162.274 L 322.33, 163.99 L 332.335, 138.181 L 333.722, 137.119 z "/>
<path style="fill:rgb(17, 27, 255);fill-opacity:1.0;fill-rule:evenodd;stroke:rgb(0, 0, 0);stroke-width:3.0;" d="M 790.488, 317.071 L 789.524, 316.788 L 774.509, 298.272 L 777.796, 286.176 L 783.879, 275.329 L 784.005, 275.276 z "/>
<path style="fill:rgb(17, 27, 255);fill-opacity:1.0;fill-rule:evenodd;stroke:rgb(0, 0, 0);stroke-width:3.0;" d="M 200.71, 324.537 L 199.03, 318.957 L 210.186, 296.014 L 219.669, 293.908 z "/>
<path style="fill:rgb(17, 27, 255);fill-opacity:1.0;fill-rule:evenodd;stroke:rgb(0, 0, 0);stroke-width:3.0;" d="M 273.729, 274.151 L 278.09, 280.929 L 227.025, 292.274 L 218.438, 246.839 L 223.211, 242.298 z "/>
<path style="fill:rgb(255, 25, 14);fill-opacity:1.0;fill-rule:evenodd;stroke:rgb(0, 0, 0);stroke-width:3.0;" d="M 124.004, 417.154 L 43.0089, 477.416 L 23.0343, 471.727 L 116.331, 410.832 z "/>
<path style="fill:rgb(255, 25, 14);fill-opacity:1.0;fill-rule:evenodd;stroke:rgb(0, 0, 0);stroke-width:3.0;" d="M 470.511, 205.028 L 488.333, 234.224 L 462.589, 239.943 L 439.137, 203.843 L 461.523, 198.404 z "/>
<path style="fill:rgb(212, 0, 130);fill-opacity:1.0;fill-rule:evenodd;stroke:rgb(0, 0, 0);stroke-width:3.0;" d="M 304.458, 210.088 L 235.411, 212.436 L 332.335, 138.181 z "/>
<path style="fill:rgb(110, 226, 255);fill-opacity:1.0;fill-rule:evenodd;stroke:rgb(0, 0, 0);stroke-width:3.0;" d="M 84.7958, 230.25 L 67.7253, 229.647 L 66.0076, 226.554 L 69.6124, 216.057 L 73.8898, 212.557 z "/>
<path style="fill:rgb(110, 226, 255);fill-opacity:1.0;fill-rule:evenodd;stroke:rgb(0, 0, 0);stroke-width:3.0;" d="M 250.964, 536.642 L 43.0089, 477.416 L 139.131, 405.899 z "/>
<path style="fill:rgb(110, 226, 255);fill-opacity:1.0;fill-rule:evenodd;stroke:rgb(0, 0, 0);stroke-width:3.0;" d="M 593.386, 270.119 L 593.08, 271.128 L 585.537, 279.127 L 574.15, 271.922 L 588.879, 264.918 z "/>
<path style="fill:rgb(13, 165, 255);fill-opacity:1.0;fill-rule:evenodd;stroke:rgb(0, 0, 0);stroke-width:3.0;" d="M 278.972, 451.167 L 272.247, 459.324 L 246.544, 464.181 L 242.508, 463.342 L 238.612, 450.404 z "/>
<path style="fill:rgb(13, 165, 255);fill-opacity:1.0;fill-rule:evenodd;stroke:rgb(0, 0, 0);stroke-width:3.0;" d="M 742.626, 230.267 L 732.474, 239.471 L 722.919, 233.989 L 740.83, 220.534 z "/>
<path style="fill:rgb(255, 255, 24);fill-opacity:1.0;fill-rule:evenodd;stroke:rgb(0, 0, 0);stroke-width:3.0;" d="M 778.904, 282.1 L 765.867, 298.64 L 760.604, 287.332 L 764.415, 282.867 L 779.909, 278.403 z "/>
<path style="fill:rgb(217, 47, 27);fill-opacity:1.0;fill-rule:evenodd;stroke:rgb(0, 0, 0);stroke-width:3.0;" d="M 692.251, 105.446 L 643.525, 70.3067 L 657.24, 64.5465 z "/>
<path style="fill:rgb(217, 47, 27);fill-opacity:1.0;fill-rule:evenodd;stroke:rgb(0, 0, 0);stroke-width:3.0;" d="M 486.075, 268.359 L 334.605, 281.242 L 326.077, 270.269 L 447.206, 243.36 z "/>
<path style="fill:rgb(217, 47, 27);fill-opacity:1.0;fill-rule:evenodd;stroke:rgb(0, 0, 0);stroke-width:3.0;" d="M 124.363, 216.212 L 108.404, 216.755 L 114.382, 202.141 z "/>
<path style="fill:rgb(217, 47, 27);fill-opacity:1.0;fill-rule:evenodd;stroke:rgb(0, 0, 0);stroke-width:3.0;" d="M 331.608, 74.4699 L 333.722, 137.119 L 322.122, 146.006 L 298.453, 23.2339 z "/>
<path style="fill:rgb(246, 0, 177);fill-opacity:1.0;fill-rule:evenodd;stroke:rgb(0, 0, 0);stroke-width:3.0;" d="M 330.985, 55.9824 L 331.608, 74.4699 L 298.453, 23.2339 L 298.103, 21.4177 z "/>
<path style="fill:rgb(252, 228, 37);fill-opacity:1.0;fill-rule:evenodd;stroke:rgb(0, 0, 0);stroke-width:3.0;" d="M 353.078, 305.011 L 306.26, 286.187 L 310.856, 273.651 L 326.077, 270.269 z "/>
<path style="fill:rgb(243, 44, 15);fill-opacity:1.0;fill-rule:evenodd;stroke:rgb(0, 0, 0);stroke-width:3.0;" d="M 761.096, 347.621 L 756.229, 365.529 L 723.027, 331.351 L 731.482, 321.446 z "/>
<path style="fill:rgb(243, 44, 15);fill-opacity:1.0;fill-rule:evenodd;stroke:rgb(0, 0, 0);stroke-width:3.0;" d="M 41.479, 241.013 L 50.4675, 253.447 L 48.1831, 256.072 L 28.0445, 240.746 z "/>
<path style="fill:rgb(243, 44, 15);fill-opacity:1.0;fill-rule:evenodd;stroke:rgb(0, 0, 0);stroke-width:3.0;" d="M 539.493, 302.717 L 524.598, 293.136 L 524.176, 226.261 L 561.787, 217.906 z "/>
<path style="fill:rgb(243, 44, 15);fill-opacity:1.0;fill-rule:evenodd;stroke:rgb(0, 0, 0);stroke-width:3.0;" d="M 644.153, 215.456 L 619.701, 225.206 L 624.102, 212.615 z "/>
<path style="fill:rgb(8, 1, 237);fill-opacity:1.0;fill-rule:evenodd;stroke:rgb(0, 0, 0);stroke-width:3.0;" d="M 759.639, 306.542 L 741.154, 329.995 L 731.482, 321.446 L 753.249, 295.948 z "/>
<path style="fill:rgb(9, 103, 255);fill-opacity:1.0;fill-rule:evenodd;stroke:rgb(0, 0, 0);stroke-width:3.0;" d="M 345.835, 36.3326 L 358.614, 40.1754 L 355.968, 51.2462 L 330.917, 53.9664 L 330.193, 32.515 z "/>
<path style="fill:rgb(9, 103, 255);fill-opacity:1.0;fill-rule:evenodd;stroke:rgb(0, 0, 0);stroke-width:3.0;" d="M 145.13, 126.985 L 113.724, 203.752 L 67.4477, 141.992 L 64.585, 129.066 L 74.6046, 107.605 z "/>
<path style="fill:rgb(226, 5, 32);fill-opacity:1.0;fill-rule:evenodd;stroke:rgb(0, 0, 0);stroke-width:3.0;" d="M 97.7547, 229.342 L 99.2314, 244.423 L 90.0461, 238.767 L 81.8798, 225.519 L 78.6887, 211.488 L 81.3146, 207.627 z "/>
<path style="fill:rgb(255, 14, 13);fill-opacity:1.0;fill-rule:evenodd;stroke:rgb(0, 0, 0);stroke-width:3.0;" d="M 330.551, 43.1417 L 330.985, 55.9824 L 313.389, 37.4861 z "/>
<path style="fill:rgb(255, 14, 13);fill-opacity:1.0;fill-rule:evenodd;stroke:rgb(0, 0, 0);stroke-width:3.0;" d="M 330.909, 549.676 L 331.527, 552.305 L 319.096, 561.959 L 315.921, 559.074 L 309.802, 535.015 L 310.504, 533.931 z "/>
<path style="fill:rgb(246, 252, 11);fill-opacity:1.0;fill-rule:evenodd;stroke:rgb(0, 0, 0);stroke-width:3.0;" d="M 383.116, 114.818 L 374.829, 134.512 L 371.749, 132.242 L 375.15, 113.181 z "/>
<path style="fill:rgb(252, 25, 14);fill-opacity:1.0;fill-rule:evenodd;stroke:rgb(0, 0, 0);stroke-width:3.0;" d="M 782.665, 268.263 L 779.909, 278.403 L 707.165, 299.363 L 697.616, 279.479 L 718.86, 231.661 z "/>
<path style="fill:rgb(252, 25, 14);fill-opacity:1.0;fill-rule:evenodd;stroke:rgb(0, 0, 0);stroke-width:3.0;" d="M 553.162, 313.463 L 545.057, 322.058 L 533.583, 325.201 L 535.225, 318.953 L 550.691, 310.337 z "/>
<path style="fill:rgb(60, 61, 10);fill-opacity:1.0;fill-rule:evenodd;stroke:rgb(0, 0, 0);stroke-width:3.0;" d="M 745.994, 304.446 L 733.765, 318.772 L 713.808, 313.198 L 707.165, 299.363 L 727.105, 293.618 z "/>
<path style="fill:rgb(60, 61, 10);fill-opacity:1.0;fill-rule:evenodd;stroke:rgb(0, 0, 0);stroke-width:3.0;" d="M 253.037, 308.753 L 201.575, 327.409 L 200.71, 324.537 L 209.374, 310.54 L 234.243, 291.046 z "/>
<path style="fill:rgb(91, 255, 94);fill-opacity:1.0;fill-rule:evenodd;stroke:rgb(0, 0, 0);stroke-width:3.0;" d="M 209.043, 298.364 L 199.03, 318.957 L 193.254, 299.776 L 200.375, 298.194 z "/>
<path style="fill:rgb(91, 255, 94);fill-opacity:1.0;fill-rule:evenodd;stroke:rgb(0, 0, 0);stroke-width:3.0;" d="M 234.243, 291.046 L 209.374, 310.54 L 219.669, 293.908 L 233.92, 290.742 z "/>
<path style="fill:rgb(199, 8, 112);fill-opacity:1.0;fill-rule:evenodd;stroke:rgb(0, 0, 0);stroke-width:3.0;" d="M 97.838, 376.439 L 79.768, 426.259 L 57.5029, 404.288 L 53.0435, 388.898 L 96.2924, 375.126 z "/>
<path style="fill:rgb(199, 8, 112);fill-opacity:1.0;fill-rule:evenodd;stroke:rgb(0, 0, 0);stroke-width:3.0;" d="M 783.49, 520.306 L 781.331, 533.464 L 758.543, 497.099 L 760.279, 494.638 L 764.507, 491.61 z "/>
<path style="fill:rgb(255, 52, 212);fill-opacity:1.0;fill-rule:evenodd;stroke:rgb(0, 0, 0);stroke-width:3.0;" d="M 447.444, 188.028 L 444.472, 187.383 L 419.053, 172.927 L 411.795, 161.756 z "/>
<path style="fill:rgb(255, 52, 212);fill-opacity:1.0;fill-rule:evenodd;stroke:rgb(0, 0, 0);stroke-width:3.0;" d="M 82.8295, 246.212 L 113.858, 280.212 L 113.179, 285.739 L 94.7323, 278.284 L 72.1303, 237.58 z "/>
<path style="fill:rgb(255, 246, 21);fill-opacity:1.0;fill-rule:evenodd;stroke:rgb(0, 0, 0);stroke-width:3.0;" d="M 54.6342, 77.4465 L 14.5645, 60.082 L 26.8608, 51.8427 L 59.3957, 42.3984 z "/>
<path style="fill:rgb(98, 124, 187);fill-opacity:1.0;fill-rule:evenodd;stroke:rgb(0, 0, 0);stroke-width:3.0;" d="M 771.646, 308.807 L 745.304, 324.729 L 778.904, 282.1 z "/>
<path style="fill:rgb(115, 255, 30);fill-opacity:1.0;fill-rule:evenodd;stroke:rgb(0, 0, 0);stroke-width:3.0;" d="M 769.14, 318.027 L 743.624, 332.178 L 741.154, 329.995 L 745.304, 324.729 L 771.646, 308.807 z "/>
<path style="fill:rgb(108, 255, 255);fill-opacity:1.0;fill-rule:evenodd;stroke:rgb(0, 0, 0);stroke-width:3.0;" d="M 570.84, 332.939 L 572.559, 351.307 L 563.969, 349.921 L 558.941, 332.333 z "/>
<path style="fill:rgb(252, 119, 7);fill-opacity:1.0;fill-rule:evenodd;stroke:rgb(0, 0, 0);stroke-width:3.0;" d="M 224.163, 212.818 L 146.094, 215.473 L 116.036, 198.1 L 135.804, 149.779 z "/>
<path style="fill:rgb(252, 119, 7);fill-opacity:1.0;fill-rule:evenodd;stroke:rgb(0, 0, 0);stroke-width:3.0;" d="M 226.09, 230.291 L 216.767, 237.995 L 212.086, 213.229 L 213.796, 213.171 z "/>
<path style="fill:rgb(252, 119, 7);fill-opacity:1.0;fill-rule:evenodd;stroke:rgb(0, 0, 0);stroke-width:3.0;" d="M 124.234, 360.571 L 30.926, 372.953 L 27.9748, 361.798 L 38.3347, 360.466 z "/>
<path style="fill:rgb(255, 19, 78);fill-opacity:1.0;fill-rule:evenodd;stroke:rgb(0, 0, 0);stroke-width:3.0;" d="M 570.948, 290.774 L 571.605, 292.371 L 558.368, 298.594 L 552.88, 288.138 L 556.969, 285.964 z "/>
<path style="fill:rgb(74, 83, 255);fill-opacity:1.0;fill-rule:evenodd;stroke:rgb(0, 0, 0);stroke-width:3.0;" d="M 92.6398, 289.905 L 57.255, 300.964 L 7.09444, 259.353 L 8.6711, 226.002 z "/>
<path style="fill:rgb(255, 165, 10);fill-opacity:1.0;fill-rule:evenodd;stroke:rgb(0, 0, 0);stroke-width:3.0;" d="M 59.4579, 241.372 L 60.5703, 242.704 L 54.8636, 259.528 L 51.2116, 254.476 L 51.8671, 241.22 z "/>
<path style="fill:rgb(71, 249, 223);fill-opacity:1.0;fill-rule:evenodd;stroke:rgb(0, 0, 0);stroke-width:3.0;" d="M 14.352, 418.822 L 19.4905, 421.738 L 41.6562, 459.573 L 36.4451, 462.974 L 9.61352, 417.336 z "/>
<path style="fill:rgb(91, 6, 240);fill-opacity:1.0;fill-rule:evenodd;stroke:rgb(0, 0, 0);stroke-width:3.0;" d="M 149.447, 507.73 L 155.828, 564.164 L 68.1809, 559.647 L 31.694, 474.193 z "/>
<path style="fill:rgb(255, 18, 9);fill-opacity:1.0;fill-rule:evenodd;stroke:rgb(0, 0, 0);stroke-width:3.0;" d="M 336.039, 205.798 L 336.147, 209.011 L 304.458, 210.088 L 308.861, 198.732 z "/>
<path style="fill:rgb(85, 142, 161);fill-opacity:1.0;fill-rule:evenodd;stroke:rgb(0, 0, 0);stroke-width:3.0;" d="M 462.589, 239.943 L 428.025, 247.621 L 427.838, 246.899 L 450.916, 221.974 z "/>
<path style="fill:rgb(25, 212, 226);fill-opacity:1.0;fill-rule:evenodd;stroke:rgb(0, 0, 0);stroke-width:3.0;" d="M 338.079, 266.26 L 321.078, 259.453 L 335.313, 209.039 L 336.147, 209.011 z "/>
<path style="fill:rgb(161, 20, 69);fill-opacity:1.0;fill-rule:evenodd;stroke:rgb(0, 0, 0);stroke-width:3.0;" d="M 230.075, 362.596 L 218.367, 380.484 L 217.554, 380.473 L 210.14, 355.851 z "/>
<path style="fill:rgb(161, 20, 69);fill-opacity:1.0;fill-rule:evenodd;stroke:rgb(0, 0, 0);stroke-width:3.0;" d="M 321.078, 259.453 L 244.563, 228.82 L 234.052, 212.482 L 335.313, 209.039 z "/>
<path style="fill:rgb(255, 142, 34);fill-opacity:1.0;fill-rule:evenodd;stroke:rgb(0, 0, 0);stroke-width:3.0;" d="M 615.917, 81.9023 L 599.513, 88.7921 L 595.855, 88.3014 L 598.684, 77.5422 L 616.702, 76.9585 z "/>
<path style="fill:rgb(15, 187, 223);fill-opacity:1.0;fill-rule:evenodd;stroke:rgb(0, 0, 0);stroke-width:3.0;" d="M 733.765, 318.772 L 722.706, 331.727 L 713.808, 313.198 z "/>
<path style="fill:rgb(15, 187, 223);fill-opacity:1.0;fill-rule:evenodd;stroke:rgb(0, 0, 0);stroke-width:3.0;" d="M 438.543, 202.928 L 450.916, 221.974 L 427.838, 246.899 L 418.673, 211.541 L 425.398, 196.423 z "/>
<path style="fill:rgb(24, 246, 228);fill-opacity:1.0;fill-rule:evenodd;stroke:rgb(0, 0, 0);stroke-width:3.0;" d="M 755.895, 365.185 L 748.635, 385.724 L 722.706, 331.727 L 723.027, 331.351 z "/>
<path style="fill:rgb(170, 243, 255);fill-opacity:1.0;fill-rule:evenodd;stroke:rgb(0, 0, 0);stroke-width:3.0;" d="M 584.914, 229.176 L 570.182, 241.561 L 566.162, 242.194 L 574.439, 207.549 z "/>
<path style="fill:rgb(85, 215, 255);fill-opacity:1.0;fill-rule:evenodd;stroke:rgb(0, 0, 0);stroke-width:3.0;" d="M 252.324, 502.022 L 254.112, 537.538 L 250.964, 536.642 L 152.341, 421.344 L 192.939, 405.684 z "/>
<path style="fill:rgb(255, 255, 24);fill-opacity:1.0;fill-rule:evenodd;stroke:rgb(0, 0, 0);stroke-width:3.0;" d="M 269.063, 516.51 L 296.202, 566.991 L 291.629, 565.785 L 255.905, 507.831 L 254.548, 503.326 z "/>
<path style="fill:rgb(255, 255, 24);fill-opacity:1.0;fill-rule:evenodd;stroke:rgb(0, 0, 0);stroke-width:3.0;" d="M 318.433, 513.737 L 314.571, 527.656 L 303.249, 545.124 L 313.996, 512.577 z "/>
<path style="fill:rgb(255, 3, 6);fill-opacity:1.0;fill-rule:evenodd;stroke:rgb(0, 0, 0);stroke-width:3.0;" d="M 447.444, 188.028 L 461.523, 198.404 L 439.137, 203.843 L 425.813, 183.333 z "/>
<path style="fill:rgb(8, 25, 255);fill-opacity:1.0;fill-rule:evenodd;stroke:rgb(0, 0, 0);stroke-width:3.0;" d="M 252.891, 261.012 L 229.68, 246.377 L 234.064, 231.973 L 236.065, 230.07 z "/>
<path style="fill:rgb(255, 19, 9);fill-opacity:1.0;fill-rule:evenodd;stroke:rgb(0, 0, 0);stroke-width:3.0;" d="M 763.153, 340.056 L 761.096, 347.621 L 743.624, 332.178 L 749.092, 329.145 z "/>
<path style="fill:rgb(255, 19, 9);fill-opacity:1.0;fill-rule:evenodd;stroke:rgb(0, 0, 0);stroke-width:3.0;" d="M 739.196, 415.334 L 750.632, 426.8 L 715.547, 412.173 L 716.535, 407.642 z "/>
<path style="fill:rgb(12, 223, 255);fill-opacity:1.0;fill-rule:evenodd;stroke:rgb(0, 0, 0);stroke-width:3.0;" d="M 573.671, 291.712 L 557.765, 308.581 L 552.51, 301.348 L 573.288, 291.58 z "/>
<path style="fill:rgb(54, 60, 217);fill-opacity:1.0;fill-rule:evenodd;stroke:rgb(0, 0, 0);stroke-width:3.0;" d="M 109.394, 244.716 L 101.325, 234.058 L 108.404, 216.755 L 126.942, 216.124 z "/>
<path style="fill:rgb(255, 41, 11);fill-opacity:1.0;fill-rule:evenodd;stroke:rgb(0, 0, 0);stroke-width:3.0;" d="M 765.127, 297.049 L 765.867, 298.64 L 759.639, 306.542 L 753.249, 295.948 L 757.926, 290.469 z "/>
<path style="fill:rgb(255, 27, 25);fill-opacity:1.0;fill-rule:evenodd;stroke:rgb(0, 0, 0);stroke-width:3.0;" d="M 88.358, 33.1795 L 101.697, 49.5742 L 64.585, 129.066 L 54.0708, 81.5932 L 62.419, 20.1449 z "/>
<path style="fill:rgb(255, 226, 30);fill-opacity:1.0;fill-rule:evenodd;stroke:rgb(0, 0, 0);stroke-width:3.0;" d="M 340.277, 589.492 L 311.454, 574.728 L 312.244, 567.28 L 329.071, 554.213 L 331.77, 553.335 z "/>
<path style="fill:rgb(255, 8, 161);fill-opacity:1.0;fill-rule:evenodd;stroke:rgb(0, 0, 0);stroke-width:3.0;" d="M 523.71, 226.365 L 505.079, 230.504 L 460.525, 197.668 L 526.232, 170.735 z "/>
<path style="fill:rgb(152, 249, 25);fill-opacity:1.0;fill-rule:evenodd;stroke:rgb(0, 0, 0);stroke-width:3.0;" d="M 526.232, 170.735 L 460.525, 197.668 L 439.655, 182.287 L 526.774, 158.795 z "/>
<path style="fill:rgb(255, 212, 11);fill-opacity:1.0;fill-rule:evenodd;stroke:rgb(0, 0, 0);stroke-width:3.0;" d="M 750.55, 129.276 L 735.941, 136.953 L 692.251, 105.446 L 657.24, 64.5465 L 670.75, 58.8724 z "/>
<path style="fill:rgb(255, 8, 8);fill-opacity:1.0;fill-rule:evenodd;stroke:rgb(0, 0, 0);stroke-width:3.0;" d="M 263.673, 318.774 L 253.711, 327.177 L 226.636, 342.195 L 208.018, 325.073 L 253.037, 308.753 z "/>
<path style="fill:rgb(100, 199, 15);fill-opacity:1.0;fill-rule:evenodd;stroke:rgb(0, 0, 0);stroke-width:3.0;" d="M 570.84, 332.939 L 558.941, 332.333 L 553.877, 314.62 L 569.014, 313.438 z "/>
<path style="fill:rgb(215, 12, 6);fill-opacity:1.0;fill-rule:evenodd;stroke:rgb(0, 0, 0);stroke-width:3.0;" d="M 274.233, 451.077 L 252.829, 450.673 L 250.241, 445.388 L 250.965, 444.78 L 273.746, 442.346 z "/>
<path style="fill:rgb(255, 108, 14);fill-opacity:1.0;fill-rule:evenodd;stroke:rgb(0, 0, 0);stroke-width:3.0;" d="M 67.9353, 440.292 L 43.8279, 425.151 L 42.576, 420.978 L 45.2734, 391.372 L 53.0435, 388.898 z "/>
<path style="fill:rgb(23, 89, 197);fill-opacity:1.0;fill-rule:evenodd;stroke:rgb(0, 0, 0);stroke-width:3.0;" d="M 42.576, 420.978 L 34.7032, 394.738 L 45.2734, 391.372 z "/>
<path style="fill:rgb(234, 15, 228);fill-opacity:1.0;fill-rule:evenodd;stroke:rgb(0, 0, 0);stroke-width:3.0;" d="M 192.939, 405.684 L 152.341, 421.344 L 139.134, 405.903 L 185.818, 394.133 z "/>
<path style="fill:rgb(243, 0, 108);fill-opacity:1.0;fill-rule:evenodd;stroke:rgb(0, 0, 0);stroke-width:3.0;" d="M 572.062, 270.601 L 560.379, 278.981 L 550.465, 283.726 L 544.981, 281.839 L 551.376, 257.512 z "/>
<path style="fill:rgb(240, 197, 10);fill-opacity:1.0;fill-rule:evenodd;stroke:rgb(0, 0, 0);stroke-width:3.0;" d="M 756.691, 291.916 L 746.857, 303.435 L 738.895, 300.258 L 736.835, 290.814 L 737.011, 290.763 z "/>
<path style="fill:rgb(255, 130, 255);fill-opacity:1.0;fill-rule:evenodd;stroke:rgb(0, 0, 0);stroke-width:3.0;" d="M 539.493, 302.717 L 521.775, 370.123 L 381.512, 341.596 L 334.605, 281.242 L 486.075, 268.359 z "/>
<path style="fill:rgb(226, 2, 13);fill-opacity:1.0;fill-rule:evenodd;stroke:rgb(0, 0, 0);stroke-width:3.0;" d="M 107.409, 360.551 L 38.3347, 360.466 L 106.099, 351.754 z "/>
<path style="fill:rgb(234, 237, 33);fill-opacity:1.0;fill-rule:evenodd;stroke:rgb(0, 0, 0);stroke-width:3.0;" d="M 274.672, 346.464 L 275.671, 349.323 L 260.832, 347.33 L 256.447, 340.473 L 264.143, 338.172 z "/>
<path style="fill:rgb(255, 150, 14);fill-opacity:1.0;fill-rule:evenodd;stroke:rgb(0, 0, 0);stroke-width:3.0;" d="M 356.247, 240.725 L 343.389, 261.806 L 337.323, 243.846 L 337.013, 234.666 z "/>
<path style="fill:rgb(117, 100, 212);fill-opacity:1.0;fill-rule:evenodd;stroke:rgb(0, 0, 0);stroke-width:3.0;" d="M 370.666, 239.659 L 371.622, 245.568 L 351.241, 239.148 L 363.313, 226.567 z "/>
<path style="fill:rgb(255, 11, 85);fill-opacity:1.0;fill-rule:evenodd;stroke:rgb(0, 0, 0);stroke-width:3.0;" d="M 152.527, 563.994 L 173.156, 588.152 L 168.203, 594.002 L 140.041, 573.113 L 143.266, 563.517 z "/>
<path style="fill:rgb(11, 255, 159);fill-opacity:1.0;fill-rule:evenodd;stroke:rgb(0, 0, 0);stroke-width:3.0;" d="M 128.777, 402.708 L 84.9148, 431.337 L 79.768, 426.259 L 81.755, 420.78 L 125.054, 399.547 z "/>
<path style="fill:rgb(252, 21, 187);fill-opacity:1.0;fill-rule:evenodd;stroke:rgb(0, 0, 0);stroke-width:3.0;" d="M 674.846, 54.8418 L 667.393, 60.2823 L 616.756, 81.55 L 656.02, 53.1058 L 673.88, 50.1389 z "/>
<path style="fill:rgb(255, 243, 9);fill-opacity:1.0;fill-rule:evenodd;stroke:rgb(0, 0, 0);stroke-width:3.0;" d="M 524.518, 280.472 L 524.598, 293.136 L 447.206, 243.36 L 479.007, 236.296 z "/>
<path style="fill:rgb(255, 159, 255);fill-opacity:1.0;fill-rule:evenodd;stroke:rgb(0, 0, 0);stroke-width:3.0;" d="M 524.518, 280.472 L 479.007, 236.296 L 524.176, 226.261 z "/>
<path style="fill:rgb(255, 49, 231);fill-opacity:1.0;fill-rule:evenodd;stroke:rgb(0, 0, 0);stroke-width:3.0;" d="M 117.974, 393.536 L 103.733, 410.003 L 81.755, 420.78 L 97.838, 376.439 z "/>
<path style="fill:rgb(255, 49, 231);fill-opacity:1.0;fill-rule:evenodd;stroke:rgb(0, 0, 0);stroke-width:3.0;" d="M 125.054, 399.547 L 103.733, 410.003 L 117.974, 393.536 z "/>
<path style="fill:rgb(246, 59, 243);fill-opacity:1.0;fill-rule:evenodd;stroke:rgb(0, 0, 0);stroke-width:3.0;" d="M 139.131, 405.899 L 127.02, 414.909 L 120.045, 408.408 L 133.67, 399.515 z "/>
</svg>