<?xml version="1.0" encoding="iso-8859-1" standalone="no"?>
<!DOCTYPE svg PUBLIC "-//W3C//DTD SVG 1.0//EN" "http://www.w3.org/TR/2001/REC-SVG-20010904/DTD/svg10.dtd">
<svg xmlns="http://www.w3.org/2000/svg" width="800" height="600">
<path style="fill:rgb(0, 0, 0);fill-opacity:0.0;fill-rule:evenodd;stroke:rgb(0, 0, 0);stroke-width:0.0;" d="M 0, 600 L 800, 600 L 800, 0 L 0, 0 z "/>
<path style="fill:rgb(246, 255, 14);fill-opacity:1.0;fill-rule:evenodd;stroke:rgb(0, 0, 0);stroke-width:3.0;" d="M 335.872, 294.779 L 332.954, 298.611 L 293.198, 300.461 L 289.264, 296.08 L 289.1, 262.821 z "/>
<path style="fill:rgb(9, 215, 255);fill-opacity:1.0;fill-rule:evenodd;stroke:rgb(0, 0, 0);stroke-width:3.0;" d="M 414.621, 150.388 L 420.689, 169.095 L 382.056, 143.563 z "/>
<path style="fill:rgb(9, 215, 255);fill-opacity:1.0;fill-rule:evenodd;stroke:rgb(0, 0, 0);stroke-width:3.0;" d="M 419.882, 180.952 L 418.601, 186.137 L 379.004, 238.137 L 316.732, 201.789 L 330.675, 134.116 z "/>
<path style="fill:rgb(95, 234, 255);fill-opacity:1.0;fill-rule:evenodd;stroke:rgb(0, 0, 0);stroke-width:3.0;" d="M 447.317, 69.9019 L 440.953, 95.6598 L 400.497, 45.5693 L 404.571, 5.58259 z "/>
<path style="fill:rgb(246, 66, 249);fill-opacity:1.0;fill-rule:evenodd;stroke:rgb(0, 0, 0);stroke-width:3.0;" d="M 700.35, 507.936 L 654.618, 531.185 L 651.068, 522.227 L 715.769, 479.641 z "/>
<path style="fill:rgb(177, 69, 255);fill-opacity:1.0;fill-rule:evenodd;stroke:rgb(0, 0, 0);stroke-width:3.0;" d="M 737.357, 467.954 L 723.347, 485.331 L 714.817, 481.388 L 715.769, 479.641 L 734.81, 467.108 z "/>
<path style="fill:rgb(177, 69, 255);fill-opacity:1.0;fill-rule:evenodd;stroke:rgb(0, 0, 0);stroke-width:3.0;" d="M 336.107, 107.753 L 333.48, 120.5 L 320.933, 131.295 L 317.488, 129.939 L 335.441, 106.261 z "/>
<path style="fill:rgb(177, 69, 255);fill-opacity:1.0;fill-rule:evenodd;stroke:rgb(0, 0, 0);stroke-width:3.0;" d="M 437.037, 585.377 L 431.206, 594.489 L 412.806, 588.502 L 413.159, 586.693 L 414.29, 586.08 L 436.464, 585.131 z "/>
<path style="fill:rgb(223, 12, 7);fill-opacity:1.0;fill-rule:evenodd;stroke:rgb(0, 0, 0);stroke-width:3.0;" d="M 491.749, 40.6689 L 470.359, 51.2699 L 450.824, 55.7076 L 457.476, 28.7842 L 475.618, 22.6479 z "/>
<path style="fill:rgb(223, 12, 7);fill-opacity:1.0;fill-rule:evenodd;stroke:rgb(0, 0, 0);stroke-width:3.0;" d="M 679.503, 534.1 L 674.296, 521.181 L 711.935, 502.046 z "/>
<path style="fill:rgb(82, 249, 179);fill-opacity:1.0;fill-rule:evenodd;stroke:rgb(0, 0, 0);stroke-width:3.0;" d="M 259.209, 206.345 L 197.812, 194.135 L 284.472, 146.299 z "/>
<path style="fill:rgb(33, 86, 255);fill-opacity:1.0;fill-rule:evenodd;stroke:rgb(0, 0, 0);stroke-width:3.0;" d="M 440.953, 95.6598 L 438.96, 103.728 L 407.677, 128.979 L 400.787, 107.736 L 419.637, 69.2671 z "/>
<path style="fill:rgb(255, 252, 25);fill-opacity:1.0;fill-rule:evenodd;stroke:rgb(0, 0, 0);stroke-width:3.0;" d="M 273.869, 278.937 L 265.633, 301.744 L 249.695, 302.486 L 242.494, 275.328 L 265.377, 269.48 z "/>
<path style="fill:rgb(255, 252, 25);fill-opacity:1.0;fill-rule:evenodd;stroke:rgb(0, 0, 0);stroke-width:3.0;" d="M 318.467, 193.368 L 316.732, 201.789 L 293.909, 188.467 z "/>
<path style="fill:rgb(255, 252, 25);fill-opacity:1.0;fill-rule:evenodd;stroke:rgb(0, 0, 0);stroke-width:3.0;" d="M 743.32, 576.947 L 739.054, 584.989 L 733.566, 589.374 L 726.621, 585.88 L 738.419, 574.381 z "/>
<path style="fill:rgb(255, 252, 25);fill-opacity:1.0;fill-rule:evenodd;stroke:rgb(0, 0, 0);stroke-width:3.0;" d="M 330.407, 301.956 L 317.486, 318.924 L 315.153, 317.837 L 321.842, 301.107 z "/>
<path style="fill:rgb(255, 1, 24);fill-opacity:1.0;fill-rule:evenodd;stroke:rgb(0, 0, 0);stroke-width:3.0;" d="M 745.929, 468.966 L 707.708, 513.511 L 698.92, 514.91 L 746.091, 468.288 z "/>
<path style="fill:rgb(255, 1, 24);fill-opacity:1.0;fill-rule:evenodd;stroke:rgb(0, 0, 0);stroke-width:3.0;" d="M 168.24, 331.839 L 130.201, 322.876 L 118.985, 308.57 L 187.44, 305.384 z "/>
<path style="fill:rgb(52, 35, 212);fill-opacity:1.0;fill-rule:evenodd;stroke:rgb(0, 0, 0);stroke-width:3.0;" d="M 412.691, 60.6674 L 396.294, 86.8136 L 397.486, 75.1181 L 410.897, 58.4461 z "/>
<path style="fill:rgb(52, 35, 212);fill-opacity:1.0;fill-rule:evenodd;stroke:rgb(0, 0, 0);stroke-width:3.0;" d="M 778.953, 571.584 L 787.243, 578.521 L 761.825, 577.97 L 760.749, 575.831 L 766.17, 571.126 z "/>
<path style="fill:rgb(255, 246, 7);fill-opacity:1.0;fill-rule:evenodd;stroke:rgb(0, 0, 0);stroke-width:3.0;" d="M 723.347, 485.331 L 708.435, 503.825 L 700.35, 507.936 L 714.817, 481.388 z "/>
<path style="fill:rgb(255, 246, 7);fill-opacity:1.0;fill-rule:evenodd;stroke:rgb(0, 0, 0);stroke-width:3.0;" d="M 356.403, 90.5446 L 354.443, 98.6289 L 334.337, 95.29 L 331.202, 87.7928 L 332.358, 87.1603 z "/>
<path style="fill:rgb(255, 246, 7);fill-opacity:1.0;fill-rule:evenodd;stroke:rgb(0, 0, 0);stroke-width:3.0;" d="M 670.179, 570.445 L 661.161, 570.223 L 652.917, 566.683 L 665.536, 558.731 z "/>
<path style="fill:rgb(255, 246, 7);fill-opacity:1.0;fill-rule:evenodd;stroke:rgb(0, 0, 0);stroke-width:3.0;" d="M 765.809, 476.317 L 761.24, 461.109 L 778.826, 457.37 z "/>
<path style="fill:rgb(255, 252, 76);fill-opacity:1.0;fill-rule:evenodd;stroke:rgb(0, 0, 0);stroke-width:3.0;" d="M 217.179, 318.938 L 272.563, 356.095 L 168.941, 330.873 L 178.365, 317.887 z "/>
<path style="fill:rgb(243, 32, 92);fill-opacity:1.0;fill-rule:evenodd;stroke:rgb(0, 0, 0);stroke-width:3.0;" d="M 326.504, 277.328 L 339.387, 288.444 L 333.663, 293.27 L 320.458, 284.247 L 317.659, 278.435 L 325.933, 277.202 z "/>
<path style="fill:rgb(255, 207, 12);fill-opacity:1.0;fill-rule:evenodd;stroke:rgb(0, 0, 0);stroke-width:3.0;" d="M 315.527, 218.651 L 281.01, 218.951 L 277.707, 214.778 L 305.398, 207.889 z "/>
<path style="fill:rgb(255, 207, 12);fill-opacity:1.0;fill-rule:evenodd;stroke:rgb(0, 0, 0);stroke-width:3.0;" d="M 626.077, 576.347 L 623.068, 578.456 L 610.664, 573.889 L 610.348, 573.488 L 611.598, 564.92 L 617.779, 556.928 z "/>
<path style="fill:rgb(255, 207, 12);fill-opacity:1.0;fill-rule:evenodd;stroke:rgb(0, 0, 0);stroke-width:3.0;" d="M 499.732, 549.159 L 480.71, 575.479 L 479.552, 575.31 L 479.037, 574.855 L 478.554, 551.277 L 492.724, 543.602 z "/>
<path style="fill:rgb(255, 207, 12);fill-opacity:1.0;fill-rule:evenodd;stroke:rgb(0, 0, 0);stroke-width:3.0;" d="M 648.755, 459.1 L 510.008, 534.242 L 515.514, 433.634 z "/>
<path style="fill:rgb(255, 207, 12);fill-opacity:1.0;fill-rule:evenodd;stroke:rgb(0, 0, 0);stroke-width:3.0;" d="M 522.387, 49.8404 L 516.338, 57.7852 L 476.826, 48.0649 L 492.7, 40.1975 L 525.778, 36.6292 z "/>
<path style="fill:rgb(255, 207, 12);fill-opacity:1.0;fill-rule:evenodd;stroke:rgb(0, 0, 0);stroke-width:3.0;" d="M 134.847, 503.487 L 131.148, 500.316 L 150.003, 481.927 L 163.05, 477.401 z "/>
<path style="fill:rgb(255, 207, 12);fill-opacity:1.0;fill-rule:evenodd;stroke:rgb(0, 0, 0);stroke-width:3.0;" d="M 748.545, 458.068 L 718.082, 478.119 L 706.014, 428.09 L 763.172, 397.135 z "/>
<path style="fill:rgb(165, 123, 255);fill-opacity:1.0;fill-rule:evenodd;stroke:rgb(0, 0, 0);stroke-width:3.0;" d="M 332.358, 87.1603 L 321.418, 93.1445 L 307.789, 90.8812 L 310.641, 84.1037 z "/>
<path style="fill:rgb(37, 3, 249);fill-opacity:1.0;fill-rule:evenodd;stroke:rgb(0, 0, 0);stroke-width:3.0;" d="M 368.32, 41.4026 L 363.318, 62.0281 L 355.922, 57.5071 L 351.86, 25.0248 z "/>
<path style="fill:rgb(37, 3, 249);fill-opacity:1.0;fill-rule:evenodd;stroke:rgb(0, 0, 0);stroke-width:3.0;" d="M 729.35, 538.031 L 721.63, 570.192 L 706.656, 546.206 L 707.42, 538.838 L 727.903, 522.341 z "/>
<path style="fill:rgb(37, 3, 249);fill-opacity:1.0;fill-rule:evenodd;stroke:rgb(0, 0, 0);stroke-width:3.0;" d="M 436.835, 162.191 L 418.601, 186.137 L 425.835, 156.854 z "/>
<path style="fill:rgb(228, 197, 54);fill-opacity:1.0;fill-rule:evenodd;stroke:rgb(0, 0, 0);stroke-width:3.0;" d="M 764.305, 417.147 L 760.679, 438.591 L 756.719, 442.144 L 757.679, 420.017 L 759.885, 410.826 z "/>
<path style="fill:rgb(228, 197, 54);fill-opacity:1.0;fill-rule:evenodd;stroke:rgb(0, 0, 0);stroke-width:3.0;" d="M 281.118, 213.929 L 275.314, 215.373 L 258.125, 208.92 L 262.709, 198.026 z "/>
<path style="fill:rgb(228, 197, 54);fill-opacity:1.0;fill-rule:evenodd;stroke:rgb(0, 0, 0);stroke-width:3.0;" d="M 194.606, 480.294 L 179.42, 478.731 L 231.009, 432.489 z "/>
<path style="fill:rgb(117, 209, 255);fill-opacity:1.0;fill-rule:evenodd;stroke:rgb(0, 0, 0);stroke-width:3.0;" d="M 703.006, 488.042 L 693.254, 494.46 L 587.336, 502.418 L 595.257, 488.073 L 694.097, 434.544 z "/>
<path style="fill:rgb(215, 36, 249);fill-opacity:1.0;fill-rule:evenodd;stroke:rgb(0, 0, 0);stroke-width:3.0;" d="M 410.897, 58.4461 L 397.486, 75.1181 L 400.497, 45.5693 z "/>
<path style="fill:rgb(215, 36, 249);fill-opacity:1.0;fill-rule:evenodd;stroke:rgb(0, 0, 0);stroke-width:3.0;" d="M 591.217, 495.388 L 587.336, 502.418 L 565.78, 504.037 L 583.625, 494.373 z "/>
<path style="fill:rgb(215, 36, 249);fill-opacity:1.0;fill-rule:evenodd;stroke:rgb(0, 0, 0);stroke-width:3.0;" d="M 285.703, 260.499 L 289.126, 268.055 L 289.128, 268.386 L 269.55, 262.728 L 273.942, 252.464 z "/>
<path style="fill:rgb(226, 36, 255);fill-opacity:1.0;fill-rule:evenodd;stroke:rgb(0, 0, 0);stroke-width:3.0;" d="M 330.048, 137.16 L 319.923, 186.301 L 319.652, 186.255 L 310.42, 169.493 L 313.66, 135.531 z "/>
<path style="fill:rgb(226, 36, 255);fill-opacity:1.0;fill-rule:evenodd;stroke:rgb(0, 0, 0);stroke-width:3.0;" d="M 217.179, 318.938 L 190.495, 318.216 L 205.102, 310.835 z "/>
<path style="fill:rgb(226, 36, 255);fill-opacity:1.0;fill-rule:evenodd;stroke:rgb(0, 0, 0);stroke-width:3.0;" d="M 571.062, 563.229 L 532.784, 552.622 L 539.222, 532.229 z "/>
<path style="fill:rgb(226, 36, 255);fill-opacity:1.0;fill-rule:evenodd;stroke:rgb(0, 0, 0);stroke-width:3.0;" d="M 188.742, 479.691 L 155.896, 511.576 L 149.178, 513.43 L 135.023, 503.638 L 134.847, 503.487 L 163.05, 477.401 L 163.839, 477.127 z "/>
<path style="fill:rgb(226, 36, 255);fill-opacity:1.0;fill-rule:evenodd;stroke:rgb(0, 0, 0);stroke-width:3.0;" d="M 302.821, 252.973 L 311.341, 257.448 L 284.093, 259.399 L 264.431, 245.965 z "/>
<path style="fill:rgb(65, 157, 255);fill-opacity:1.0;fill-rule:evenodd;stroke:rgb(0, 0, 0);stroke-width:3.0;" d="M 734.454, 553.801 L 733.905, 569.971 L 721.787, 569.537 L 726.899, 548.241 L 729.911, 544.658 z "/>
<path style="fill:rgb(212, 7, 21);fill-opacity:1.0;fill-rule:evenodd;stroke:rgb(0, 0, 0);stroke-width:3.0;" d="M 345.18, 218.394 L 317.935, 218.631 L 317.13, 212.264 L 326.056, 207.231 z "/>
<path style="fill:rgb(212, 7, 21);fill-opacity:1.0;fill-rule:evenodd;stroke:rgb(0, 0, 0);stroke-width:3.0;" d="M 756.895, 464.387 L 756.616, 472.603 L 748.57, 476.444 L 744.815, 473.605 L 745.682, 469.993 L 749.948, 464.331 z "/>
<path style="fill:rgb(255, 255, 91);fill-opacity:1.0;fill-rule:evenodd;stroke:rgb(0, 0, 0);stroke-width:3.0;" d="M 787.098, 428.935 L 790.808, 439.93 L 778.826, 457.37 L 775.786, 458.017 L 760.232, 441.235 L 765.443, 410.419 z "/>
<path style="fill:rgb(220, 86, 163);fill-opacity:1.0;fill-rule:evenodd;stroke:rgb(0, 0, 0);stroke-width:3.0;" d="M 359.102, 88.7406 L 388.879, 104.348 L 354.443, 98.6289 L 356.951, 88.2855 z "/>
<path style="fill:rgb(220, 86, 163);fill-opacity:1.0;fill-rule:evenodd;stroke:rgb(0, 0, 0);stroke-width:3.0;" d="M 703.633, 555.622 L 673.96, 571.474 L 671.121, 572.821 L 669.125, 567.785 L 676.383, 550.495 z "/>
<path style="fill:rgb(255, 240, 46);fill-opacity:1.0;fill-rule:evenodd;stroke:rgb(0, 0, 0);stroke-width:3.0;" d="M 521.017, 581.373 L 518.7, 587.779 L 502.603, 593.426 L 494.729, 586.994 L 493.672, 579.017 L 494.671, 577.521 z "/>
<path style="fill:rgb(65, 161, 228);fill-opacity:1.0;fill-rule:evenodd;stroke:rgb(0, 0, 0);stroke-width:3.0;" d="M 677.8, 535.784 L 671.194, 542.313 L 666.403, 542.109 L 657.004, 537.204 L 656.678, 536.383 L 673.322, 531.127 z "/>
<path style="fill:rgb(255, 74, 60);fill-opacity:1.0;fill-rule:evenodd;stroke:rgb(0, 0, 0);stroke-width:3.0;" d="M 273.942, 252.464 L 269.55, 262.728 L 255.726, 258.732 L 255.18, 258.125 L 247.647, 237.056 L 248.185, 234.865 z "/>
<path style="fill:rgb(220, 255, 43);fill-opacity:1.0;fill-rule:evenodd;stroke:rgb(0, 0, 0);stroke-width:3.0;" d="M 555.937, 570.48 L 544.285, 588.302 L 533.849, 565.837 z "/>
<path style="fill:rgb(252, 67, 22);fill-opacity:1.0;fill-rule:evenodd;stroke:rgb(0, 0, 0);stroke-width:3.0;" d="M 320.673, 204.089 L 296.283, 210.157 L 278.785, 198.841 L 270.977, 178.373 L 272.089, 175.731 z "/>
<path style="fill:rgb(255, 48, 16);fill-opacity:1.0;fill-rule:evenodd;stroke:rgb(0, 0, 0);stroke-width:3.0;" d="M 583.527, 566.683 L 566.641, 577.797 L 560.254, 578.908 L 557.951, 568.411 L 565.549, 561.701 z "/>
<path style="fill:rgb(255, 48, 16);fill-opacity:1.0;fill-rule:evenodd;stroke:rgb(0, 0, 0);stroke-width:3.0;" d="M 408.273, 130.818 L 414.621, 150.388 L 330.936, 132.85 L 334.759, 114.293 z "/>
<path style="fill:rgb(255, 48, 16);fill-opacity:1.0;fill-rule:evenodd;stroke:rgb(0, 0, 0);stroke-width:3.0;" d="M 119.015, 308.609 L 111.435, 318.455 L 98.0622, 315.304 L 102.211, 309.351 L 118.985, 308.57 z "/>
<path style="fill:rgb(240, 187, 17);fill-opacity:1.0;fill-rule:evenodd;stroke:rgb(0, 0, 0);stroke-width:3.0;" d="M 348.442, 220.298 L 254.047, 238.87 L 247.427, 234.346 L 253.805, 219.187 L 345.18, 218.394 z "/>
<path style="fill:rgb(240, 187, 17);fill-opacity:1.0;fill-rule:evenodd;stroke:rgb(0, 0, 0);stroke-width:3.0;" d="M 343.121, 260.329 L 316.179, 276.349 L 315.01, 262.459 L 326.043, 257.212 z "/>
<path style="fill:rgb(255, 22, 91);fill-opacity:1.0;fill-rule:evenodd;stroke:rgb(0, 0, 0);stroke-width:3.0;" d="M 748.285, 522.798 L 743.83, 520.983 L 741.809, 509.232 L 765.048, 502.856 z "/>
<path style="fill:rgb(255, 255, 55);fill-opacity:1.0;fill-rule:evenodd;stroke:rgb(0, 0, 0);stroke-width:3.0;" d="M 775.786, 458.017 L 761.24, 461.109 L 758.816, 453.042 L 765.324, 446.73 z "/>
<path style="fill:rgb(255, 255, 55);fill-opacity:1.0;fill-rule:evenodd;stroke:rgb(0, 0, 0);stroke-width:3.0;" d="M 342.354, 400.539 L 220.671, 560.347 L 162.851, 521.995 L 266.393, 386.021 z "/>
<path style="fill:rgb(202, 94, 209);fill-opacity:1.0;fill-rule:evenodd;stroke:rgb(0, 0, 0);stroke-width:3.0;" d="M 265.377, 269.48 L 243.231, 275.14 L 255.548, 258.534 z "/>
<path style="fill:rgb(202, 94, 209);fill-opacity:1.0;fill-rule:evenodd;stroke:rgb(0, 0, 0);stroke-width:3.0;" d="M 649.244, 499.353 L 642.289, 510.101 L 623.64, 517.717 L 588.201, 502.353 L 628.938, 499.292 z "/>
<path style="fill:rgb(70, 2, 220);fill-opacity:1.0;fill-rule:evenodd;stroke:rgb(0, 0, 0);stroke-width:3.0;" d="M 688.012, 536.467 L 682.58, 542.797 L 671.194, 542.313 L 683.227, 530.42 z "/>
<path style="fill:rgb(204, 255, 95);fill-opacity:1.0;fill-rule:evenodd;stroke:rgb(0, 0, 0);stroke-width:3.0;" d="M 400.303, 106.245 L 408.273, 130.818 L 334.759, 114.293 L 338.531, 95.9864 z "/>
<path style="fill:rgb(231, 199, 14);fill-opacity:1.0;fill-rule:evenodd;stroke:rgb(0, 0, 0);stroke-width:3.0;" d="M 491.505, 90.3966 L 474.368, 112.901 L 464.611, 73.4782 z "/>
<path style="fill:rgb(48, 30, 255);fill-opacity:1.0;fill-rule:evenodd;stroke:rgb(0, 0, 0);stroke-width:3.0;" d="M 658.213, 540.301 L 650.402, 554.421 L 646.553, 556.841 L 619.539, 561.047 L 613.514, 546.945 L 617.572, 544.274 L 655.764, 535.71 z "/>
<path style="fill:rgb(255, 3, 14);fill-opacity:1.0;fill-rule:evenodd;stroke:rgb(0, 0, 0);stroke-width:3.0;" d="M 109.08, 368.254 L 104.801, 373.052 L 81.1526, 367.589 L 81.7169, 360.028 z "/>
<path style="fill:rgb(255, 3, 14);fill-opacity:1.0;fill-rule:evenodd;stroke:rgb(0, 0, 0);stroke-width:3.0;" d="M 552.156, 557.99 L 558.117, 563.164 L 549.407, 565.599 L 532.702, 564.608 L 531.69, 556.09 L 532.784, 552.622 z "/>
<path style="fill:rgb(255, 3, 14);fill-opacity:1.0;fill-rule:evenodd;stroke:rgb(0, 0, 0);stroke-width:3.0;" d="M 290.445, 133.223 L 319.652, 186.255 L 282.944, 180.038 L 278.017, 161.641 L 289.993, 133.178 z "/>
<path style="fill:rgb(240, 58, 246);fill-opacity:1.0;fill-rule:evenodd;stroke:rgb(0, 0, 0);stroke-width:3.0;" d="M 264.842, 388.058 L 250.616, 406.74 L 237.679, 403.751 L 231.129, 381.68 z "/>
<path style="fill:rgb(240, 58, 246);fill-opacity:1.0;fill-rule:evenodd;stroke:rgb(0, 0, 0);stroke-width:3.0;" d="M 313.66, 135.531 L 310.42, 169.493 L 290.445, 133.223 z "/>
<path style="fill:rgb(82, 255, 243);fill-opacity:1.0;fill-rule:evenodd;stroke:rgb(0, 0, 0);stroke-width:3.0;" d="M 296.283, 210.157 L 281.118, 213.929 L 272.76, 206.709 L 287.373, 204.394 z "/>
<path style="fill:rgb(255, 204, 7);fill-opacity:1.0;fill-rule:evenodd;stroke:rgb(0, 0, 0);stroke-width:3.0;" d="M 448.961, 63.6331 L 460.287, 106.515 L 454.851, 107.454 L 443.984, 83.3917 L 448.879, 63.5812 z "/>
<path style="fill:rgb(255, 204, 7);fill-opacity:1.0;fill-rule:evenodd;stroke:rgb(0, 0, 0);stroke-width:3.0;" d="M 544.921, 20.2482 L 533.044, 35.8453 L 492.7, 40.1975 L 540.396, 16.559 z "/>
<path style="fill:rgb(255, 0, 255);fill-opacity:1.0;fill-rule:evenodd;stroke:rgb(0, 0, 0);stroke-width:3.0;" d="M 397.243, 96.8101 L 400.303, 106.245 L 388.879, 104.348 L 377.711, 98.4942 L 387.382, 94.724 z "/>
<path style="fill:rgb(255, 5, 45);fill-opacity:1.0;fill-rule:evenodd;stroke:rgb(0, 0, 0);stroke-width:3.0;" d="M 363.318, 62.0281 L 356.403, 90.5446 L 322.304, 85.7452 L 314.78, 74.2646 L 328.805, 40.9321 z "/>
<path style="fill:rgb(182, 61, 217);fill-opacity:1.0;fill-rule:evenodd;stroke:rgb(0, 0, 0);stroke-width:3.0;" d="M 276.823, 264.83 L 269.759, 274.359 L 255.726, 258.732 z "/>
<path style="fill:rgb(10, 86, 255);fill-opacity:1.0;fill-rule:evenodd;stroke:rgb(0, 0, 0);stroke-width:3.0;" d="M 449.26, 145.874 L 442.425, 154.85 L 429.274, 142.933 L 431.991, 131.938 z "/>
<path style="fill:rgb(39, 240, 234);fill-opacity:1.0;fill-rule:evenodd;stroke:rgb(0, 0, 0);stroke-width:3.0;" d="M 464.611, 73.4782 L 471.801, 102.528 L 463.331, 114.928 L 450.582, 64.6529 z "/>
<path style="fill:rgb(39, 240, 234);fill-opacity:1.0;fill-rule:evenodd;stroke:rgb(0, 0, 0);stroke-width:3.0;" d="M 512.374, 57.1842 L 502.56, 75.8788 L 491.505, 90.3966 L 448.879, 63.5812 L 449.348, 61.6832 L 466.148, 53.3569 L 491.589, 53.116 z "/>
<path style="fill:rgb(246, 252, 27);fill-opacity:1.0;fill-rule:evenodd;stroke:rgb(0, 0, 0);stroke-width:3.0;" d="M 264.842, 388.058 L 254.389, 386.08 L 251.52, 378.224 L 272.481, 378.026 z "/>
<path style="fill:rgb(246, 252, 27);fill-opacity:1.0;fill-rule:evenodd;stroke:rgb(0, 0, 0);stroke-width:3.0;" d="M 635.872, 573.126 L 637.987, 591.44 L 636.284, 592.35 L 627.362, 580.311 L 634.247, 572.897 z "/>
<path style="fill:rgb(255, 246, 17);fill-opacity:1.0;fill-rule:evenodd;stroke:rgb(0, 0, 0);stroke-width:3.0;" d="M 369.687, 14.5611 L 370.849, 15.4396 L 372.843, 21.5869 L 362.085, 20.9363 L 352.069, 14.3697 L 356.079, 13.3191 z "/>
<path style="fill:rgb(69, 234, 255);fill-opacity:1.0;fill-rule:evenodd;stroke:rgb(0, 0, 0);stroke-width:3.0;" d="M 504.907, 553.262 L 499.011, 578.155 L 480.71, 575.479 L 499.732, 549.159 z "/>
<path style="fill:rgb(204, 246, 165);fill-opacity:1.0;fill-rule:evenodd;stroke:rgb(0, 0, 0);stroke-width:3.0;" d="M 382.184, 61.3102 L 391.711, 79.755 L 397.243, 96.8101 L 356.951, 88.2855 L 366.252, 49.9312 z "/>
<path style="fill:rgb(76, 0, 255);fill-opacity:1.0;fill-rule:evenodd;stroke:rgb(0, 0, 0);stroke-width:3.0;" d="M 120.914, 360.827 L 231.129, 381.68 L 237.679, 403.751 L 192.223, 393.249 L 66.3866, 355.419 z "/>
<path style="fill:rgb(76, 0, 255);fill-opacity:1.0;fill-rule:evenodd;stroke:rgb(0, 0, 0);stroke-width:3.0;" d="M 339.178, 274.371 L 338.487, 275.331 L 312.974, 279.133 L 312.287, 278.664 L 335.062, 265.121 z "/>
<path style="fill:rgb(83, 123, 202);fill-opacity:1.0;fill-rule:evenodd;stroke:rgb(0, 0, 0);stroke-width:3.0;" d="M 425.342, 158.848 L 421.893, 172.808 L 407.677, 128.979 L 425.829, 114.327 z "/>
<path style="fill:rgb(83, 123, 202);fill-opacity:1.0;fill-rule:evenodd;stroke:rgb(0, 0, 0);stroke-width:3.0;" d="M 379.004, 238.137 L 359.788, 263.372 L 355.753, 262.635 L 350.514, 221.507 z "/>
<path style="fill:rgb(255, 172, 48);fill-opacity:1.0;fill-rule:evenodd;stroke:rgb(0, 0, 0);stroke-width:3.0;" d="M 293.198, 300.461 L 265.633, 301.744 L 273.869, 278.937 z "/>
<path style="fill:rgb(252, 3, 249);fill-opacity:1.0;fill-rule:evenodd;stroke:rgb(0, 0, 0);stroke-width:3.0;" d="M 294.577, 304.102 L 287.233, 317.97 L 280.852, 322.628 L 273.346, 304.068 L 290.77, 300.793 z "/>
<path style="fill:rgb(255, 0, 150);fill-opacity:1.0;fill-rule:evenodd;stroke:rgb(0, 0, 0);stroke-width:3.0;" d="M 442.425, 154.85 L 438.256, 160.324 L 427.165, 151.471 L 429.274, 142.933 z "/>
<path style="fill:rgb(255, 0, 150);fill-opacity:1.0;fill-rule:evenodd;stroke:rgb(0, 0, 0);stroke-width:3.0;" d="M 283.897, 202.146 L 270.739, 204.963 L 262.709, 198.026 L 265.878, 190.494 z "/>
<path style="fill:rgb(255, 1, 252);fill-opacity:1.0;fill-rule:evenodd;stroke:rgb(0, 0, 0);stroke-width:3.0;" d="M 649.076, 574.988 L 651.597, 579.135 L 650.135, 584.952 L 637.987, 591.44 L 635.872, 573.126 z "/>
<path style="fill:rgb(207, 11, 32);fill-opacity:1.0;fill-rule:evenodd;stroke:rgb(0, 0, 0);stroke-width:3.0;" d="M 319.923, 186.301 L 318.467, 193.368 L 293.909, 188.467 L 283.588, 182.443 L 282.944, 180.038 z "/>
<path style="fill:rgb(14, 31, 249);fill-opacity:1.0;fill-rule:evenodd;stroke:rgb(0, 0, 0);stroke-width:3.0;" d="M 515.308, 570.021 L 516.588, 573.241 L 499.515, 576.024 L 500.879, 570.266 L 511.647, 563.937 z "/>
<path style="fill:rgb(14, 31, 249);fill-opacity:1.0;fill-rule:evenodd;stroke:rgb(0, 0, 0);stroke-width:3.0;" d="M 314.887, 300.418 L 320.127, 305.396 L 315.413, 317.187 L 308.181, 317.108 L 313.304, 300.261 z "/>
<path style="fill:rgb(255, 2, 182);fill-opacity:1.0;fill-rule:evenodd;stroke:rgb(0, 0, 0);stroke-width:3.0;" d="M 351.86, 25.0248 L 355.922, 57.5071 L 335.336, 44.924 L 347.962, 21.1468 z "/>
<path style="fill:rgb(255, 2, 182);fill-opacity:1.0;fill-rule:evenodd;stroke:rgb(0, 0, 0);stroke-width:3.0;" d="M 657.769, 517.817 L 644.307, 526.678 L 623.64, 517.717 L 651.292, 506.424 z "/>
<path style="fill:rgb(255, 19, 10);fill-opacity:1.0;fill-rule:evenodd;stroke:rgb(0, 0, 0);stroke-width:3.0;" d="M 538.716, 17.392 L 535.115, 19.1766 L 522.505, 6.78977 L 523.381, 6.49334 L 533.698, 5.79658 z "/>
<path style="fill:rgb(255, 19, 10);fill-opacity:1.0;fill-rule:evenodd;stroke:rgb(0, 0, 0);stroke-width:3.0;" d="M 308.815, 135.049 L 289.993, 133.178 L 291.395, 129.846 L 317.513, 118.437 z "/>
<path style="fill:rgb(228, 20, 228);fill-opacity:1.0;fill-rule:evenodd;stroke:rgb(0, 0, 0);stroke-width:3.0;" d="M 474.368, 112.901 L 465.702, 124.281 L 463.331, 114.928 L 471.801, 102.528 z "/>
<path style="fill:rgb(228, 20, 228);fill-opacity:1.0;fill-rule:evenodd;stroke:rgb(0, 0, 0);stroke-width:3.0;" d="M 269.726, 327.697 L 218.538, 303.936 L 238.857, 302.991 z "/>
<path style="fill:rgb(228, 20, 228);fill-opacity:1.0;fill-rule:evenodd;stroke:rgb(0, 0, 0);stroke-width:3.0;" d="M 275.314, 215.373 L 260.207, 219.131 L 253.805, 219.187 L 258.125, 208.92 z "/>
<path style="fill:rgb(228, 20, 228);fill-opacity:1.0;fill-rule:evenodd;stroke:rgb(0, 0, 0);stroke-width:3.0;" d="M 240.422, 279.116 L 248.614, 302.536 L 245.119, 302.699 L 228.132, 280.206 L 229.84, 276.146 z "/>
<path style="fill:rgb(255, 240, 13);fill-opacity:1.0;fill-rule:evenodd;stroke:rgb(0, 0, 0);stroke-width:3.0;" d="M 454.367, 106.383 L 461.584, 122.365 L 452.974, 140.996 L 452.476, 141.651 L 437.47, 121.748 L 447.368, 106.08 z "/>
<path style="fill:rgb(18, 33, 255);fill-opacity:1.0;fill-rule:evenodd;stroke:rgb(0, 0, 0);stroke-width:3.0;" d="M 644.307, 526.678 L 583.527, 566.683 L 571.062, 563.229 L 539.222, 532.229 L 544.481, 515.572 L 565.78, 504.037 L 588.201, 502.353 z "/>
<path style="fill:rgb(18, 33, 255);fill-opacity:1.0;fill-rule:evenodd;stroke:rgb(0, 0, 0);stroke-width:3.0;" d="M 391.504, 15.286 L 402.015, 30.6644 L 401.605, 34.6909 L 393.126, 56.6393 L 388.273, 14.4397 z "/>
<path style="fill:rgb(18, 33, 255);fill-opacity:1.0;fill-rule:evenodd;stroke:rgb(0, 0, 0);stroke-width:3.0;" d="M 742.622, 570.283 L 731.768, 580.863 L 724.358, 576.111 L 729.81, 569.824 z "/>
<path style="fill:rgb(255, 255, 31);fill-opacity:1.0;fill-rule:evenodd;stroke:rgb(0, 0, 0);stroke-width:3.0;" d="M 716.461, 471.399 L 717.898, 477.355 L 701.106, 476.629 L 697.599, 455.574 z "/>
<path style="fill:rgb(255, 255, 31);fill-opacity:1.0;fill-rule:evenodd;stroke:rgb(0, 0, 0);stroke-width:3.0;" d="M 727.903, 522.341 L 707.42, 538.838 L 707.787, 535.296 L 717.169, 509.588 L 726.413, 506.181 z "/>
<path style="fill:rgb(231, 7, 234);fill-opacity:1.0;fill-rule:evenodd;stroke:rgb(0, 0, 0);stroke-width:3.0;" d="M 449.398, 137.569 L 452.271, 141.379 L 449.552, 141.311 L 432.692, 132.504 L 431.991, 131.938 L 434.39, 122.225 z "/>
<path style="fill:rgb(64, 255, 255);fill-opacity:1.0;fill-rule:evenodd;stroke:rgb(0, 0, 0);stroke-width:3.0;" d="M 259.209, 206.345 L 218.14, 303.955 L 209.631, 304.351 L 183.186, 202.209 L 197.812, 194.135 z "/>
<path style="fill:rgb(243, 12, 71);fill-opacity:1.0;fill-rule:evenodd;stroke:rgb(0, 0, 0);stroke-width:3.0;" d="M 382.056, 143.563 L 420.689, 169.095 L 421.893, 172.808 L 419.882, 180.952 L 330.675, 134.116 L 330.936, 132.85 z "/>
<path style="fill:rgb(255, 3, 7);fill-opacity:1.0;fill-rule:evenodd;stroke:rgb(0, 0, 0);stroke-width:3.0;" d="M 135.019, 474.161 L 144.052, 481.201 L 138.594, 484.698 L 125.785, 482.626 L 132.133, 473.864 z "/>
<path style="fill:rgb(243, 7, 8);fill-opacity:1.0;fill-rule:evenodd;stroke:rgb(0, 0, 0);stroke-width:3.0;" d="M 47.9755, 457.601 L 53.5832, 465.778 L 34.9948, 463.865 L 16.004, 454.386 z "/>
<path style="fill:rgb(43, 249, 209);fill-opacity:1.0;fill-rule:evenodd;stroke:rgb(0, 0, 0);stroke-width:3.0;" d="M 787.098, 428.935 L 769.48, 413.872 L 781.345, 411.881 z "/>
<path style="fill:rgb(255, 3, 23);fill-opacity:1.0;fill-rule:evenodd;stroke:rgb(0, 0, 0);stroke-width:3.0;" d="M 781.345, 411.881 L 769.48, 413.872 L 766.804, 411.584 L 771.445, 397.912 L 775.903, 395.751 z "/>
<path style="fill:rgb(255, 199, 10);fill-opacity:1.0;fill-rule:evenodd;stroke:rgb(0, 0, 0);stroke-width:3.0;" d="M 255.548, 258.534 L 243.231, 275.14 L 239.376, 276.125 L 235.846, 266.031 L 255.213, 258.161 z "/>
<path style="fill:rgb(255, 217, 7);fill-opacity:1.0;fill-rule:evenodd;stroke:rgb(0, 0, 0);stroke-width:3.0;" d="M 335.336, 44.924 L 328.805, 40.9321 L 334.156, 28.2141 L 345.233, 26.2863 z "/>
<path style="fill:rgb(252, 252, 13);fill-opacity:1.0;fill-rule:evenodd;stroke:rgb(0, 0, 0);stroke-width:3.0;" d="M 289.07, 268.37 L 285.894, 281.809 L 280.134, 285.913 L 269.759, 274.359 L 276.823, 264.83 z "/>
<path style="fill:rgb(50, 163, 212);fill-opacity:1.0;fill-rule:evenodd;stroke:rgb(0, 0, 0);stroke-width:3.0;" d="M 350.514, 221.507 L 355.753, 262.635 L 264.431, 245.965 L 254.047, 238.87 L 348.442, 220.298 z "/>
<path style="fill:rgb(159, 255, 8);fill-opacity:1.0;fill-rule:evenodd;stroke:rgb(0, 0, 0);stroke-width:3.0;" d="M 286.445, 359.688 L 272.481, 378.026 L 251.52, 378.224 L 250.801, 376.256 L 273.432, 356.622 z "/>
<path style="fill:rgb(159, 255, 8);fill-opacity:1.0;fill-rule:evenodd;stroke:rgb(0, 0, 0);stroke-width:3.0;" d="M 330.517, 112.756 L 291.395, 129.846 L 294.87, 121.586 L 331.224, 111.824 z "/>
<path style="fill:rgb(255, 114, 170);fill-opacity:1.0;fill-rule:evenodd;stroke:rgb(0, 0, 0);stroke-width:3.0;" d="M 400.787, 107.736 L 395.746, 92.1945 L 396.294, 86.8136 L 403.375, 75.5228 L 418.015, 72.5772 z "/>
<path style="fill:rgb(255, 114, 170);fill-opacity:1.0;fill-rule:evenodd;stroke:rgb(0, 0, 0);stroke-width:3.0;" d="M 330.048, 137.16 L 325.102, 136.668 L 318.5, 133.387 L 333.48, 120.5 z "/>
<path style="fill:rgb(255, 114, 170);fill-opacity:1.0;fill-rule:evenodd;stroke:rgb(0, 0, 0);stroke-width:3.0;" d="M 338.531, 95.9864 L 336.777, 104.5 L 331.224, 111.824 L 294.87, 121.586 L 307.789, 90.8812 z "/>
<path style="fill:rgb(237, 255, 69);fill-opacity:1.0;fill-rule:evenodd;stroke:rgb(0, 0, 0);stroke-width:3.0;" d="M 205.102, 310.835 L 190.495, 318.216 L 178.365, 317.887 L 187.44, 305.384 L 196.358, 304.969 z "/>
<path style="fill:rgb(255, 37, 8);fill-opacity:1.0;fill-rule:evenodd;stroke:rgb(0, 0, 0);stroke-width:3.0;" d="M 676.379, 499.434 L 628.938, 499.292 L 685.168, 495.068 z "/>
<path style="fill:rgb(255, 226, 6);fill-opacity:1.0;fill-rule:evenodd;stroke:rgb(0, 0, 0);stroke-width:3.0;" d="M 772.22, 494.324 L 765.048, 502.856 L 746.868, 507.844 L 748.954, 495.367 L 760.136, 485.188 z "/>
<path style="fill:rgb(110, 3, 194);fill-opacity:1.0;fill-rule:evenodd;stroke:rgb(0, 0, 0);stroke-width:3.0;" d="M 676.461, 505.514 L 663.138, 514.283 L 656.059, 514.81 L 651.292, 506.424 L 666.316, 500.289 z "/>
<path style="fill:rgb(249, 142, 34);fill-opacity:1.0;fill-rule:evenodd;stroke:rgb(0, 0, 0);stroke-width:3.0;" d="M 388.273, 14.4397 L 393.126, 56.6393 L 390.615, 63.1402 L 384.953, 58.9215 L 372.265, 19.8036 L 375.58, 11.1145 z "/>
<path style="fill:rgb(255, 237, 13);fill-opacity:1.0;fill-rule:evenodd;stroke:rgb(0, 0, 0);stroke-width:3.0;" d="M 716.461, 471.399 L 705.302, 462.036 L 694.967, 434.073 L 706.014, 428.09 z "/>
<path style="fill:rgb(39, 255, 240);fill-opacity:1.0;fill-rule:evenodd;stroke:rgb(0, 0, 0);stroke-width:3.0;" d="M 382.184, 61.3102 L 369.901, 52.5379 L 367.66, 44.1249 L 369.464, 36.6849 z "/>
<path style="fill:rgb(255, 48, 21);fill-opacity:1.0;fill-rule:evenodd;stroke:rgb(0, 0, 0);stroke-width:3.0;" d="M 515.736, 28.7809 L 491.749, 40.6689 L 475.618, 22.6479 L 492.019, 17.1008 z "/>
<path style="fill:rgb(255, 3, 128);fill-opacity:1.0;fill-rule:evenodd;stroke:rgb(0, 0, 0);stroke-width:3.0;" d="M 746.342, 467.246 L 746.091, 468.288 L 737.081, 477.194 L 711.988, 499.419 L 740.604, 463.926 L 744.752, 462.763 z "/>
<path style="fill:rgb(255, 175, 27);fill-opacity:1.0;fill-rule:evenodd;stroke:rgb(0, 0, 0);stroke-width:3.0;" d="M 285.947, 335.227 L 290.739, 347.077 L 286.431, 359.685 L 273.304, 356.592 L 196.358, 304.969 L 218.538, 303.936 z "/>
<path style="fill:rgb(255, 255, 45);fill-opacity:1.0;fill-rule:evenodd;stroke:rgb(0, 0, 0);stroke-width:3.0;" d="M 285.947, 335.227 L 269.726, 327.697 L 238.857, 302.991 L 272.281, 301.435 z "/>
<path style="fill:rgb(54, 255, 243);fill-opacity:1.0;fill-rule:evenodd;stroke:rgb(0, 0, 0);stroke-width:3.0;" d="M 115.509, 580.492 L 103.679, 589.892 L 107.341, 574.177 L 123.816, 557.446 z "/>
<path style="fill:rgb(148, 107, 255);fill-opacity:1.0;fill-rule:evenodd;stroke:rgb(0, 0, 0);stroke-width:3.0;" d="M 643.37, 538.489 L 617.572, 544.274 L 636.1, 532.079 z "/>
<path style="fill:rgb(49, 243, 255);fill-opacity:1.0;fill-rule:evenodd;stroke:rgb(0, 0, 0);stroke-width:3.0;" d="M 654.064, 532.524 L 655.764, 535.71 L 643.37, 538.489 L 636.1, 532.079 L 640.05, 529.479 L 649.398, 528.571 z "/>
<path style="fill:rgb(255, 255, 33);fill-opacity:1.0;fill-rule:evenodd;stroke:rgb(0, 0, 0);stroke-width:3.0;" d="M 437.301, 110.445 L 425.342, 158.848 L 425.801, 116.901 L 437.193, 109.61 z "/>
<path style="fill:rgb(255, 255, 30);fill-opacity:1.0;fill-rule:evenodd;stroke:rgb(0, 0, 0);stroke-width:3.0;" d="M 792.253, 572.06 L 784.26, 571.774 L 780.008, 557.704 L 787.837, 554.409 z "/>
<path style="fill:rgb(24, 255, 255);fill-opacity:1.0;fill-rule:evenodd;stroke:rgb(0, 0, 0);stroke-width:3.0;" d="M 782.842, 534.443 L 787.837, 554.409 L 780.008, 557.704 L 779.241, 555.168 L 778.802, 537.149 L 781.972, 533.371 z "/>
<path style="fill:rgb(17, 234, 255);fill-opacity:1.0;fill-rule:evenodd;stroke:rgb(0, 0, 0);stroke-width:3.0;" d="M 497.212, 15.3443 L 457.476, 28.7842 L 461.958, 10.6417 L 495.034, 8.40782 z "/>
<path style="fill:rgb(255, 182, 7);fill-opacity:1.0;fill-rule:evenodd;stroke:rgb(0, 0, 0);stroke-width:3.0;" d="M 497.212, 15.3443 L 495.034, 8.40782 L 523.381, 6.49334 z "/>
</svg>