<?xml version="1.0" encoding="iso-8859-1" standalone="no"?>
<!DOCTYPE svg PUBLIC "-//W3C//DTD SVG 1.0//EN" "http://www.w3.org/TR/2001/REC-SVG-20010904/DTD/svg10.dtd">
<svg xmlns="http://www.w3.org/2000/svg" width="800" height="600">
<path style="fill:rgb(0, 0, 0);fill-opacity:0.0;fill-rule:evenodd;stroke:rgb(0, 0, 0);stroke-width:0.0;" d="M 0, 600 L 800, 600 L 800, 0 L 0, 0 z "/>
<path style="fill:rgb(246, 170, 10);fill-opacity:1.0;fill-rule:evenodd;stroke:rgb(0, 0, 0);stroke-width:3.0;" d="M 108.622, 382.45 L 122.694, 476.074 L 62.5817, 496.445 L 103.926, 380.3 z "/>
<path style="fill:rgb(246, 170, 10);fill-opacity:1.0;fill-rule:evenodd;stroke:rgb(0, 0, 0);stroke-width:3.0;" d="M 536.948, 185.652 L 439.686, 186.547 L 441.624, 180.94 L 539.744, 179.821 z "/>
<path style="fill:rgb(246, 170, 10);fill-opacity:1.0;fill-rule:evenodd;stroke:rgb(0, 0, 0);stroke-width:3.0;" d="M 427.152, 577.103 L 406.706, 584.38 L 396.043, 571.122 L 399.66, 562.636 L 418.521, 545.853 z "/>
<path style="fill:rgb(246, 170, 10);fill-opacity:1.0;fill-rule:evenodd;stroke:rgb(0, 0, 0);stroke-width:3.0;" d="M 56.2108, 172.968 L 55.6259, 171.262 L 71.5162, 161.814 L 94.5947, 159.795 z "/>
<path style="fill:rgb(255, 228, 9);fill-opacity:1.0;fill-rule:evenodd;stroke:rgb(0, 0, 0);stroke-width:3.0;" d="M 111.477, 383.758 L 118.411, 418.222 L 122.242, 450.9 L 117.332, 440.397 L 108.622, 382.45 z "/>
<path style="fill:rgb(255, 228, 9);fill-opacity:1.0;fill-rule:evenodd;stroke:rgb(0, 0, 0);stroke-width:3.0;" d="M 354.521, 292.653 L 363.654, 277.362 L 383.941, 273.105 z "/>
<path style="fill:rgb(255, 228, 9);fill-opacity:1.0;fill-rule:evenodd;stroke:rgb(0, 0, 0);stroke-width:3.0;" d="M 505.749, 461.754 L 515.01, 488.779 L 507.221, 492.222 L 489.657, 451.507 z "/>
<path style="fill:rgb(255, 228, 9);fill-opacity:1.0;fill-rule:evenodd;stroke:rgb(0, 0, 0);stroke-width:3.0;" d="M 717.967, 528.797 L 686.831, 526.966 L 684.268, 521.618 L 713.115, 519.451 z "/>
<path style="fill:rgb(255, 3, 89);fill-opacity:1.0;fill-rule:evenodd;stroke:rgb(0, 0, 0);stroke-width:3.0;" d="M 316.482, 116.432 L 276.732, 135.263 L 247.617, 136.43 L 250.75, 128.647 L 313.122, 109.981 z "/>
<path style="fill:rgb(255, 3, 89);fill-opacity:1.0;fill-rule:evenodd;stroke:rgb(0, 0, 0);stroke-width:3.0;" d="M 716.921, 491.708 L 692.064, 521.033 L 684.268, 521.618 L 659.523, 469.997 z "/>
<path style="fill:rgb(234, 27, 255);fill-opacity:1.0;fill-rule:evenodd;stroke:rgb(0, 0, 0);stroke-width:3.0;" d="M 454.126, 43.8173 L 458.881, 48.9752 L 439.186, 58.305 L 445.907, 40.1858 z "/>
<path style="fill:rgb(234, 27, 255);fill-opacity:1.0;fill-rule:evenodd;stroke:rgb(0, 0, 0);stroke-width:3.0;" d="M 750.288, 504.329 L 771.457, 515.067 L 764.372, 515.599 L 738.064, 501.248 L 737.241, 499.394 z "/>
<path style="fill:rgb(234, 27, 255);fill-opacity:1.0;fill-rule:evenodd;stroke:rgb(0, 0, 0);stroke-width:3.0;" d="M 580.04, 63.2537 L 605.334, 183.06 L 493.609, 109.134 L 482.494, 74.6738 L 508.861, 42.0861 z "/>
<path style="fill:rgb(255, 5, 56);fill-opacity:1.0;fill-rule:evenodd;stroke:rgb(0, 0, 0);stroke-width:3.0;" d="M 686.831, 526.966 L 525.733, 517.491 L 520.875, 514.399 L 656.222, 463.111 z "/>
<path style="fill:rgb(255, 69, 144);fill-opacity:1.0;fill-rule:evenodd;stroke:rgb(0, 0, 0);stroke-width:3.0;" d="M 122.242, 450.9 L 125.868, 481.822 L 124.159, 485.819 L 117.332, 440.397 z "/>
<path style="fill:rgb(255, 255, 9);fill-opacity:1.0;fill-rule:evenodd;stroke:rgb(0, 0, 0);stroke-width:3.0;" d="M 25.633, 482.529 L 18.1221, 500.99 L 12.8207, 486.595 L 24.2227, 480.799 z "/>
<path style="fill:rgb(47, 43, 223);fill-opacity:1.0;fill-rule:evenodd;stroke:rgb(0, 0, 0);stroke-width:3.0;" d="M 549.581, 518.894 L 545.085, 532.284 L 505.361, 524.571 L 498.254, 515.875 z "/>
<path style="fill:rgb(47, 43, 223);fill-opacity:1.0;fill-rule:evenodd;stroke:rgb(0, 0, 0);stroke-width:3.0;" d="M 157.953, 406.788 L 147.985, 430.099 L 144.27, 430.859 L 113.335, 390.823 z "/>
<path style="fill:rgb(47, 43, 223);fill-opacity:1.0;fill-rule:evenodd;stroke:rgb(0, 0, 0);stroke-width:3.0;" d="M 571.549, 23.037 L 552.569, 23.2584 L 556.152, 11.6216 L 568.338, 7.82899 z "/>
<path style="fill:rgb(47, 43, 223);fill-opacity:1.0;fill-rule:evenodd;stroke:rgb(0, 0, 0);stroke-width:3.0;" d="M 356.575, 311.892 L 353.487, 315.421 L 344.4, 315.956 L 331.664, 311.662 L 338.093, 295.552 L 342.879, 290.069 z "/>
<path style="fill:rgb(47, 43, 223);fill-opacity:1.0;fill-rule:evenodd;stroke:rgb(0, 0, 0);stroke-width:3.0;" d="M 782.245, 532.578 L 750.756, 530.726 L 759.3, 523.924 z "/>
<path style="fill:rgb(64, 255, 255);fill-opacity:1.0;fill-rule:evenodd;stroke:rgb(0, 0, 0);stroke-width:3.0;" d="M 747.317, 196.851 L 755.723, 188.293 L 789.387, 188.022 z "/>
<path style="fill:rgb(64, 255, 255);fill-opacity:1.0;fill-rule:evenodd;stroke:rgb(0, 0, 0);stroke-width:3.0;" d="M 747.147, 429.629 L 721.735, 450.19 L 660.901, 426.095 L 701.755, 409.272 z "/>
<path style="fill:rgb(64, 255, 255);fill-opacity:1.0;fill-rule:evenodd;stroke:rgb(0, 0, 0);stroke-width:3.0;" d="M 51.0559, 165.845 L 50.8619, 174.804 L 38.384, 179.086 L 30.7433, 175.17 L 39.219, 164.639 L 45.0133, 164.132 z "/>
<path style="fill:rgb(64, 255, 255);fill-opacity:1.0;fill-rule:evenodd;stroke:rgb(0, 0, 0);stroke-width:3.0;" d="M 45.36, 154.986 L 44.4392, 164.182 L 39.0127, 164.657 L 35.5567, 150.759 L 40.3297, 148.819 z "/>
<path style="fill:rgb(64, 255, 255);fill-opacity:1.0;fill-rule:evenodd;stroke:rgb(0, 0, 0);stroke-width:3.0;" d="M 134.939, 93.4204 L 118.549, 94.3037 L 122.647, 83.847 L 137.699, 67.0276 z "/>
<path style="fill:rgb(64, 255, 255);fill-opacity:1.0;fill-rule:evenodd;stroke:rgb(0, 0, 0);stroke-width:3.0;" d="M 705.954, 184.096 L 697.043, 184.178 L 690.23, 177.12 L 690.564, 172.757 L 695.911, 168.973 z "/>
<path style="fill:rgb(144, 255, 255);fill-opacity:1.0;fill-rule:evenodd;stroke:rgb(0, 0, 0);stroke-width:3.0;" d="M 637.736, 84.0499 L 634.617, 84.4617 L 587.805, 79.223 L 578.658, 56.7056 L 576.873, 48.2546 z "/>
<path style="fill:rgb(144, 255, 255);fill-opacity:1.0;fill-rule:evenodd;stroke:rgb(0, 0, 0);stroke-width:3.0;" d="M 257.45, 501.713 L 229.72, 500.082 L 261.598, 489.523 z "/>
<path style="fill:rgb(144, 255, 255);fill-opacity:1.0;fill-rule:evenodd;stroke:rgb(0, 0, 0);stroke-width:3.0;" d="M 414.902, 14.8425 L 384.435, 29.0156 L 370.164, 28.0491 L 368.973, 26.1652 L 390.237, 14.2417 z "/>
<path style="fill:rgb(144, 255, 255);fill-opacity:1.0;fill-rule:evenodd;stroke:rgb(0, 0, 0);stroke-width:3.0;" d="M 554.366, 149.335 L 539.744, 179.821 L 507.525, 180.188 L 550.202, 149.042 L 553.802, 148.962 z "/>
<path style="fill:rgb(144, 255, 255);fill-opacity:1.0;fill-rule:evenodd;stroke:rgb(0, 0, 0);stroke-width:3.0;" d="M 258.59, 109.171 L 188.593, 138.798 L 176.165, 139.296 L 178.294, 128.597 L 195.382, 113.822 L 260.364, 104.764 z "/>
<path style="fill:rgb(144, 255, 255);fill-opacity:1.0;fill-rule:evenodd;stroke:rgb(0, 0, 0);stroke-width:3.0;" d="M 317.401, 306.853 L 312.246, 305.115 L 298.698, 290.993 L 307.389, 289.169 z "/>
<path style="fill:rgb(231, 187, 7);fill-opacity:1.0;fill-rule:evenodd;stroke:rgb(0, 0, 0);stroke-width:3.0;" d="M 486.432, 35.9235 L 462.22, 47.3933 L 445.907, 40.1858 L 448.443, 33.3506 z "/>
<path style="fill:rgb(231, 187, 7);fill-opacity:1.0;fill-rule:evenodd;stroke:rgb(0, 0, 0);stroke-width:3.0;" d="M 604.247, 113.613 L 596.828, 128.361 L 593.446, 126.751 L 588.018, 101.043 z "/>
<path style="fill:rgb(231, 187, 7);fill-opacity:1.0;fill-rule:evenodd;stroke:rgb(0, 0, 0);stroke-width:3.0;" d="M 394.943, 88.5771 L 388.304, 95.9472 L 386.562, 83.234 L 397.813, 77.9042 z "/>
<path style="fill:rgb(231, 187, 7);fill-opacity:1.0;fill-rule:evenodd;stroke:rgb(0, 0, 0);stroke-width:3.0;" d="M 460.104, 86.1958 L 439.023, 71.4127 L 468.597, 67.1381 z "/>
<path style="fill:rgb(231, 187, 7);fill-opacity:1.0;fill-rule:evenodd;stroke:rgb(0, 0, 0);stroke-width:3.0;" d="M 300.07, 23.3018 L 180.109, 127.028 L 105.338, 10.1133 z "/>
<path style="fill:rgb(159, 212, 14);fill-opacity:1.0;fill-rule:evenodd;stroke:rgb(0, 0, 0);stroke-width:3.0;" d="M 39.8884, 328.995 L 39.4973, 330.398 L 28.485, 340.654 L 8.12276, 337.058 L 10.9773, 332.504 L 29.133, 326.689 z "/>
<path style="fill:rgb(159, 212, 14);fill-opacity:1.0;fill-rule:evenodd;stroke:rgb(0, 0, 0);stroke-width:3.0;" d="M 35.1121, 126.5 L 31.5596, 137.425 L 13.297, 145.829 L 11.087, 145.918 L 34.7146, 125.152 z "/>
<path style="fill:rgb(159, 212, 14);fill-opacity:1.0;fill-rule:evenodd;stroke:rgb(0, 0, 0);stroke-width:3.0;" d="M 331.783, 506.084 L 327.431, 563.454 L 311.195, 531.259 L 311.863, 523.96 L 324.366, 505.648 z "/>
<path style="fill:rgb(237, 243, 7);fill-opacity:1.0;fill-rule:evenodd;stroke:rgb(0, 0, 0);stroke-width:3.0;" d="M 715.714, 516.291 L 710.689, 519.633 L 692.064, 521.033 L 707.381, 502.963 z "/>
<path style="fill:rgb(237, 243, 7);fill-opacity:1.0;fill-rule:evenodd;stroke:rgb(0, 0, 0);stroke-width:3.0;" d="M 159.669, 180.834 L 26.7044, 204.768 L 11.6513, 188.26 L 151.436, 140.288 L 180.862, 139.108 z "/>
<path style="fill:rgb(237, 243, 7);fill-opacity:1.0;fill-rule:evenodd;stroke:rgb(0, 0, 0);stroke-width:3.0;" d="M 594.467, 16.2137 L 639.372, 83.834 L 637.736, 84.0499 L 576.873, 48.2546 L 574.723, 38.0703 L 574.084, 13.7173 z "/>
<path style="fill:rgb(255, 237, 11);fill-opacity:1.0;fill-rule:evenodd;stroke:rgb(0, 0, 0);stroke-width:3.0;" d="M 165.487, 389.169 L 160.503, 400.823 L 146.466, 371.831 L 164.743, 358.545 z "/>
<path style="fill:rgb(255, 237, 11);fill-opacity:1.0;fill-rule:evenodd;stroke:rgb(0, 0, 0);stroke-width:3.0;" d="M 19.8408, 95.6288 L 13.273, 117.92 L 5.81667, 128.471 L 16.4685, 95.3664 z "/>
<path style="fill:rgb(255, 237, 11);fill-opacity:1.0;fill-rule:evenodd;stroke:rgb(0, 0, 0);stroke-width:3.0;" d="M 525.733, 517.491 L 287.898, 503.503 L 342, 462.893 L 406.443, 441.549 z "/>
<path style="fill:rgb(255, 234, 7);fill-opacity:1.0;fill-rule:evenodd;stroke:rgb(0, 0, 0);stroke-width:3.0;" d="M 654.752, 385.759 L 652.151, 387.026 L 639.476, 381.342 L 639.137, 377.773 L 645.976, 362.212 L 657.02, 358.554 z "/>
<path style="fill:rgb(255, 234, 7);fill-opacity:1.0;fill-rule:evenodd;stroke:rgb(0, 0, 0);stroke-width:3.0;" d="M 555.58, 150.139 L 555.729, 185.479 L 536.948, 185.652 L 554.366, 149.335 z "/>
<path style="fill:rgb(237, 240, 138);fill-opacity:1.0;fill-rule:evenodd;stroke:rgb(0, 0, 0);stroke-width:3.0;" d="M 354.853, 319.48 L 331.413, 325.095 L 324.571, 317.963 L 321.98, 308.397 z "/>
<path style="fill:rgb(240, 15, 170);fill-opacity:1.0;fill-rule:evenodd;stroke:rgb(0, 0, 0);stroke-width:3.0;" d="M 693.676, 165.607 L 681.298, 184.323 L 652.05, 184.592 L 608.303, 123.66 L 639.424, 83.912 z "/>
<path style="fill:rgb(240, 15, 170);fill-opacity:1.0;fill-rule:evenodd;stroke:rgb(0, 0, 0);stroke-width:3.0;" d="M 252.054, 300.781 L 93.3462, 334.085 L 154.007, 287.893 z "/>
<path style="fill:rgb(237, 255, 11);fill-opacity:1.0;fill-rule:evenodd;stroke:rgb(0, 0, 0);stroke-width:3.0;" d="M 617.94, 477.617 L 520.875, 514.399 L 494.72, 497.747 L 583.198, 458.639 z "/>
<path style="fill:rgb(237, 255, 11);fill-opacity:1.0;fill-rule:evenodd;stroke:rgb(0, 0, 0);stroke-width:3.0;" d="M 455.602, 15.8339 L 405.305, 30.4291 L 403.487, 30.306 L 419.395, 14.952 z "/>
<path style="fill:rgb(237, 255, 11);fill-opacity:1.0;fill-rule:evenodd;stroke:rgb(0, 0, 0);stroke-width:3.0;" d="M 357.654, 94.166 L 309.36, 102.757 L 307.018, 98.2599 L 357.109, 91.2771 z "/>
<path style="fill:rgb(237, 255, 11);fill-opacity:1.0;fill-rule:evenodd;stroke:rgb(0, 0, 0);stroke-width:3.0;" d="M 649.876, 542.606 L 643.934, 540.986 L 631.856, 529.001 L 644.301, 526.389 z "/>
<path style="fill:rgb(237, 255, 11);fill-opacity:1.0;fill-rule:evenodd;stroke:rgb(0, 0, 0);stroke-width:3.0;" d="M 642.57, 171.388 L 652.05, 184.592 L 643.606, 184.67 L 614.819, 151.081 z "/>
<path style="fill:rgb(237, 255, 11);fill-opacity:1.0;fill-rule:evenodd;stroke:rgb(0, 0, 0);stroke-width:3.0;" d="M 441.343, 74.5511 L 411.365, 96.4068 L 401.402, 96.6517 L 440.063, 73.7041 z "/>
<path style="fill:rgb(237, 255, 11);fill-opacity:1.0;fill-rule:evenodd;stroke:rgb(0, 0, 0);stroke-width:3.0;" d="M 414.064, 269.074 L 394.965, 284.255 L 379.004, 276.385 L 383.941, 273.105 L 412.407, 267.131 z "/>
<path style="fill:rgb(246, 255, 19);fill-opacity:1.0;fill-rule:evenodd;stroke:rgb(0, 0, 0);stroke-width:3.0;" d="M 150.955, 287.671 L 8.5889, 333.269 L 27.3263, 301.498 L 107.051, 286.393 z "/>
<path style="fill:rgb(246, 255, 19);fill-opacity:1.0;fill-rule:evenodd;stroke:rgb(0, 0, 0);stroke-width:3.0;" d="M 162.992, 352.656 L 128.989, 365.3 L 122.431, 364.555 L 166.163, 343.31 z "/>
<path style="fill:rgb(246, 255, 19);fill-opacity:1.0;fill-rule:evenodd;stroke:rgb(0, 0, 0);stroke-width:3.0;" d="M 751.731, 431.684 L 751.977, 456.698 L 748.367, 460.738 L 730.015, 453.469 L 730.973, 442.715 L 747.147, 429.629 z "/>
<path style="fill:rgb(246, 255, 19);fill-opacity:1.0;fill-rule:evenodd;stroke:rgb(0, 0, 0);stroke-width:3.0;" d="M 19.4158, 442.083 L 23.571, 454.134 L 5.88746, 449.084 L 10.0264, 440.513 z "/>
<path style="fill:rgb(255, 234, 7);fill-opacity:1.0;fill-rule:evenodd;stroke:rgb(0, 0, 0);stroke-width:3.0;" d="M 200.718, 171.272 L 184.564, 178.925 L 174.512, 180.615 L 182.301, 169.693 z "/>
<path style="fill:rgb(255, 234, 7);fill-opacity:1.0;fill-rule:evenodd;stroke:rgb(0, 0, 0);stroke-width:3.0;" d="M 186.709, 339.54 L 184.823, 343.95 L 183.167, 345.154 L 162.992, 352.656 L 166.163, 343.31 L 181.703, 335.761 z "/>
<path style="fill:rgb(255, 234, 7);fill-opacity:1.0;fill-rule:evenodd;stroke:rgb(0, 0, 0);stroke-width:3.0;" d="M 653.202, 387.497 L 658.23, 392.897 L 664.601, 414.996 L 630.737, 377.422 z "/>
<path style="fill:rgb(255, 249, 7);fill-opacity:1.0;fill-rule:evenodd;stroke:rgb(0, 0, 0);stroke-width:3.0;" d="M 227.268, 109.377 L 195.382, 113.822 L 230.415, 83.5297 z "/>
<path style="fill:rgb(140, 228, 36);fill-opacity:1.0;fill-rule:evenodd;stroke:rgb(0, 0, 0);stroke-width:3.0;" d="M 552.564, 309.773 L 529.981, 318.285 L 521.965, 312.406 L 540.851, 308.087 z "/>
<path style="fill:rgb(140, 228, 36);fill-opacity:1.0;fill-rule:evenodd;stroke:rgb(0, 0, 0);stroke-width:3.0;" d="M 628.86, 231.803 L 616.632, 224.275 L 668.662, 213.356 z "/>
<path style="fill:rgb(140, 228, 36);fill-opacity:1.0;fill-rule:evenodd;stroke:rgb(0, 0, 0);stroke-width:3.0;" d="M 743.96, 517.133 L 725.542, 518.517 L 725.153, 516.173 L 734.138, 504.836 z "/>
<path style="fill:rgb(140, 228, 36);fill-opacity:1.0;fill-rule:evenodd;stroke:rgb(0, 0, 0);stroke-width:3.0;" d="M 453.195, 314.987 L 458.3, 424.373 L 432.521, 432.911 L 357.779, 313.812 L 414.064, 269.074 z "/>
<path style="fill:rgb(140, 228, 36);fill-opacity:1.0;fill-rule:evenodd;stroke:rgb(0, 0, 0);stroke-width:3.0;" d="M 211.016, 14.1653 L 208.133, 17.0753 L 185.113, 15.5162 L 188.692, 12.0002 L 212.467, 7.85242 z "/>
<path style="fill:rgb(243, 204, 70);fill-opacity:1.0;fill-rule:evenodd;stroke:rgb(0, 0, 0);stroke-width:3.0;" d="M 553.802, 148.962 L 232.82, 156.065 L 355.875, 97.771 L 472.117, 94.9132 z "/>
<path style="fill:rgb(255, 24, 255);fill-opacity:1.0;fill-rule:evenodd;stroke:rgb(0, 0, 0);stroke-width:3.0;" d="M 597.56, 180.926 L 574.569, 177.977 L 578.516, 167.603 z "/>
<path style="fill:rgb(255, 24, 255);fill-opacity:1.0;fill-rule:evenodd;stroke:rgb(0, 0, 0);stroke-width:3.0;" d="M 107.051, 286.393 L 60.6065, 295.193 L 34.9313, 288.603 L 37.4297, 284.366 z "/>
<path style="fill:rgb(255, 24, 255);fill-opacity:1.0;fill-rule:evenodd;stroke:rgb(0, 0, 0);stroke-width:3.0;" d="M 331.812, 22.5797 L 326.302, 23.8535 L 300.732, 20.3697 L 300.416, 19.5038 L 323.525, 10.3796 z "/>
<path style="fill:rgb(255, 24, 255);fill-opacity:1.0;fill-rule:evenodd;stroke:rgb(0, 0, 0);stroke-width:3.0;" d="M 570.924, 39.4482 L 561.662, 44.6839 L 556.38, 41.9444 L 556.795, 32.351 L 569.286, 28.4291 z "/>
<path style="fill:rgb(255, 24, 255);fill-opacity:1.0;fill-rule:evenodd;stroke:rgb(0, 0, 0);stroke-width:3.0;" d="M 315.609, 24.3542 L 316.333, 24.621 L 317.213, 26.3106 L 306.138, 46.0078 L 299.442, 42.791 L 292.722, 29.655 L 300.07, 23.3018 z "/>
<path style="fill:rgb(255, 24, 255);fill-opacity:1.0;fill-rule:evenodd;stroke:rgb(0, 0, 0);stroke-width:3.0;" d="M 314.421, 307.382 L 227.73, 500.741 L 99.6361, 543.167 L 198.475, 312.024 L 298.698, 290.993 z "/>
<path style="fill:rgb(255, 24, 255);fill-opacity:1.0;fill-rule:evenodd;stroke:rgb(0, 0, 0);stroke-width:3.0;" d="M 786.937, 339.484 L 677.008, 398.173 L 652.151, 387.026 L 788.337, 320.742 z "/>
<path style="fill:rgb(15, 89, 255);fill-opacity:1.0;fill-rule:evenodd;stroke:rgb(0, 0, 0);stroke-width:3.0;" d="M 485.374, 83.6043 L 483.177, 97.1852 L 472.614, 95.2424 L 471.628, 94.5898 L 474.897, 84.0621 L 482.494, 74.6738 z "/>
<path style="fill:rgb(23, 255, 170);fill-opacity:1.0;fill-rule:evenodd;stroke:rgb(0, 0, 0);stroke-width:3.0;" d="M 177.353, 129.411 L 165.422, 139.727 L 129.949, 141.15 L 137.462, 69.2906 z "/>
<path style="fill:rgb(55, 255, 223);fill-opacity:1.0;fill-rule:evenodd;stroke:rgb(0, 0, 0);stroke-width:3.0;" d="M 748.811, 339.98 L 729.641, 349.31 L 740.547, 330.889 L 741.922, 330.434 z "/>
<path style="fill:rgb(55, 255, 223);fill-opacity:1.0;fill-rule:evenodd;stroke:rgb(0, 0, 0);stroke-width:3.0;" d="M 160.503, 400.823 L 158.579, 405.325 L 122.877, 388.977 L 146.466, 371.831 z "/>
<path style="fill:rgb(55, 255, 223);fill-opacity:1.0;fill-rule:evenodd;stroke:rgb(0, 0, 0);stroke-width:3.0;" d="M 512.184, 372.82 L 511.089, 382.913 L 481.967, 348.745 z "/>
<path style="fill:rgb(55, 255, 223);fill-opacity:1.0;fill-rule:evenodd;stroke:rgb(0, 0, 0);stroke-width:3.0;" d="M 500.506, 52.4127 L 492.745, 62.0036 L 452.977, 61.204 L 458.849, 48.9902 L 470.907, 43.2778 z "/>
<path style="fill:rgb(255, 217, 88);fill-opacity:1.0;fill-rule:evenodd;stroke:rgb(0, 0, 0);stroke-width:3.0;" d="M 452.977, 61.204 L 433.877, 60.82 L 458.849, 48.9902 z "/>
<path style="fill:rgb(130, 136, 255);fill-opacity:1.0;fill-rule:evenodd;stroke:rgb(0, 0, 0);stroke-width:3.0;" d="M 176.519, 177.802 L 159.669, 180.834 L 180.862, 139.108 L 204.797, 138.148 z "/>
<path style="fill:rgb(130, 136, 255);fill-opacity:1.0;fill-rule:evenodd;stroke:rgb(0, 0, 0);stroke-width:3.0;" d="M 753.856, 521.871 L 756.016, 526.538 L 750.756, 530.726 L 748.088, 530.569 L 741.572, 526.931 L 743.419, 519.451 L 746.453, 519.079 z "/>
<path style="fill:rgb(130, 136, 255);fill-opacity:1.0;fill-rule:evenodd;stroke:rgb(0, 0, 0);stroke-width:3.0;" d="M 537.675, 37.5761 L 533.33, 47.6304 L 500.759, 35.3684 L 505.612, 32.5435 z "/>
<path style="fill:rgb(130, 136, 255);fill-opacity:1.0;fill-rule:evenodd;stroke:rgb(0, 0, 0);stroke-width:3.0;" d="M 601.107, 130.397 L 596.828, 128.361 L 609.55, 103.072 L 616.795, 98.9162 z "/>
<path style="fill:rgb(255, 152, 255);fill-opacity:1.0;fill-rule:evenodd;stroke:rgb(0, 0, 0);stroke-width:3.0;" d="M 548.932, 27.2309 L 545.099, 37.7616 L 526.758, 24.6164 z "/>
<path style="fill:rgb(255, 140, 14);fill-opacity:1.0;fill-rule:evenodd;stroke:rgb(0, 0, 0);stroke-width:3.0;" d="M 492.745, 62.0036 L 491.239, 63.8655 L 444.58, 70.6094 L 444.463, 61.0328 z "/>
<path style="fill:rgb(255, 140, 14);fill-opacity:1.0;fill-rule:evenodd;stroke:rgb(0, 0, 0);stroke-width:3.0;" d="M 577.885, 53.0483 L 567.122, 47.4001 L 563.81, 43.4695 L 574.578, 37.3823 z "/>
<path style="fill:rgb(15, 237, 255);fill-opacity:1.0;fill-rule:evenodd;stroke:rgb(0, 0, 0);stroke-width:3.0;" d="M 62.3964, 316.855 L 45.2251, 344.184 L 33.9223, 346.556 L 58.4369, 317.303 L 62.3529, 316.049 z "/>
<path style="fill:rgb(255, 246, 9);fill-opacity:1.0;fill-rule:evenodd;stroke:rgb(0, 0, 0);stroke-width:3.0;" d="M 168.565, 14.3955 L 142.472, 12.6283 L 141.217, 8.14068 L 165.235, 7.63026 z "/>
<path style="fill:rgb(255, 246, 9);fill-opacity:1.0;fill-rule:evenodd;stroke:rgb(0, 0, 0);stroke-width:3.0;" d="M 33.9223, 346.556 L 18.7241, 349.745 L 50.9996, 319.685 L 58.4369, 317.303 z "/>
<path style="fill:rgb(255, 177, 40);fill-opacity:1.0;fill-rule:evenodd;stroke:rgb(0, 0, 0);stroke-width:3.0;" d="M 23.571, 454.134 L 29.8162, 472.247 L 26.8878, 479.445 L 25.5049, 480.148 L 8.28121, 449.768 z "/>
<path style="fill:rgb(255, 177, 40);fill-opacity:1.0;fill-rule:evenodd;stroke:rgb(0, 0, 0);stroke-width:3.0;" d="M 287.898, 503.503 L 267.807, 502.322 L 264.657, 488.51 L 342, 462.893 z "/>
<path style="fill:rgb(255, 177, 40);fill-opacity:1.0;fill-rule:evenodd;stroke:rgb(0, 0, 0);stroke-width:3.0;" d="M 703.25, 442.869 L 701.414, 454.239 L 645.151, 440.015 L 644.005, 437.625 L 669.073, 429.332 z "/>
<path style="fill:rgb(255, 177, 40);fill-opacity:1.0;fill-rule:evenodd;stroke:rgb(0, 0, 0);stroke-width:3.0;" d="M 303.164, 44.5791 L 309.868, 79.9756 L 267.925, 56.0303 L 268.991, 50.1745 L 285.356, 36.024 z "/>
<path style="fill:rgb(255, 212, 32);fill-opacity:1.0;fill-rule:evenodd;stroke:rgb(0, 0, 0);stroke-width:3.0;" d="M 522.569, 463.914 L 514.721, 467.467 L 501.47, 459.029 L 509.044, 455.282 z "/>
<path style="fill:rgb(255, 212, 32);fill-opacity:1.0;fill-rule:evenodd;stroke:rgb(0, 0, 0);stroke-width:3.0;" d="M 78.3967, 352.842 L 73.7871, 364.171 L 17.3494, 407.471 L 10.9812, 388.39 L 63.9381, 349.446 z "/>
<path style="fill:rgb(249, 69, 30);fill-opacity:1.0;fill-rule:evenodd;stroke:rgb(0, 0, 0);stroke-width:3.0;" d="M 749.393, 509.727 L 759.979, 515.929 L 743.96, 517.133 L 738.885, 510.779 L 738.989, 506.33 z "/>
<path style="fill:rgb(249, 69, 30);fill-opacity:1.0;fill-rule:evenodd;stroke:rgb(0, 0, 0);stroke-width:3.0;" d="M 528.523, 385.839 L 526.088, 400.512 L 519.594, 392.892 L 521.728, 380.425 z "/>
<path style="fill:rgb(249, 69, 30);fill-opacity:1.0;fill-rule:evenodd;stroke:rgb(0, 0, 0);stroke-width:3.0;" d="M 394.965, 284.255 L 357.779, 313.812 L 348.9, 299.662 L 380.859, 277.3 z "/>
<path style="fill:rgb(249, 69, 30);fill-opacity:1.0;fill-rule:evenodd;stroke:rgb(0, 0, 0);stroke-width:3.0;" d="M 77.5384, 161.287 L 61.3805, 162.7 L 62.933, 148.223 z "/>
<path style="fill:rgb(249, 69, 30);fill-opacity:1.0;fill-rule:evenodd;stroke:rgb(0, 0, 0);stroke-width:3.0;" d="M 337.917, 66.0639 L 351.194, 91.5566 L 313.092, 81.8166 L 309.868, 79.9756 L 303.221, 44.8804 z "/>
<path style="fill:rgb(249, 182, 9);fill-opacity:1.0;fill-rule:evenodd;stroke:rgb(0, 0, 0);stroke-width:3.0;" d="M 322.145, 552.972 L 307.994, 566.25 L 311.195, 531.259 z "/>
<path style="fill:rgb(249, 182, 9);fill-opacity:1.0;fill-rule:evenodd;stroke:rgb(0, 0, 0);stroke-width:3.0;" d="M 685.781, 402.108 L 687.427, 415.172 L 681.314, 417.689 L 653.202, 387.497 z "/>
<path style="fill:rgb(255, 38, 10);fill-opacity:1.0;fill-rule:evenodd;stroke:rgb(0, 0, 0);stroke-width:3.0;" d="M 180.109, 127.028 L 177.353, 129.411 L 143.883, 78.9669 L 147.418, 75.9108 z "/>
<path style="fill:rgb(255, 38, 10);fill-opacity:1.0;fill-rule:evenodd;stroke:rgb(0, 0, 0);stroke-width:3.0;" d="M 578.516, 167.603 L 574.569, 177.977 L 571.897, 177.634 L 562.376, 156.31 z "/>
<path style="fill:rgb(6, 72, 215);fill-opacity:1.0;fill-rule:evenodd;stroke:rgb(0, 0, 0);stroke-width:3.0;" d="M 448.443, 33.3506 L 439.186, 58.305 L 374.785, 88.8131 L 359.884, 90.8903 L 380.57, 28.7538 z "/>
<path style="fill:rgb(237, 142, 17);fill-opacity:1.0;fill-rule:evenodd;stroke:rgb(0, 0, 0);stroke-width:3.0;" d="M 293.721, 291.828 L 293.97, 291.985 L 252.054, 300.781 L 154.007, 287.893 L 154.175, 287.765 z "/>
<path style="fill:rgb(255, 237, 11);fill-opacity:1.0;fill-rule:evenodd;stroke:rgb(0, 0, 0);stroke-width:3.0;" d="M 428.127, 425.91 L 382.768, 378.627 L 379.305, 348.112 z "/>
<path style="fill:rgb(212, 38, 31);fill-opacity:1.0;fill-rule:evenodd;stroke:rgb(0, 0, 0);stroke-width:3.0;" d="M 248.702, 19.2694 L 223.962, 13.7815 L 220.549, 9.31649 L 238.828, 7.72568 z "/>
<path style="fill:rgb(212, 38, 31);fill-opacity:1.0;fill-rule:evenodd;stroke:rgb(0, 0, 0);stroke-width:3.0;" d="M 334.591, 59.677 L 325.921, 55.5118 L 309.23, 40.5084 L 317.213, 26.3106 z "/>
<path style="fill:rgb(217, 59, 83);fill-opacity:1.0;fill-rule:evenodd;stroke:rgb(0, 0, 0);stroke-width:3.0;" d="M 656.222, 463.111 L 617.94, 477.617 L 611.597, 474.152 L 626.183, 439.64 L 641.687, 432.787 z "/>
<path style="fill:rgb(182, 83, 255);fill-opacity:1.0;fill-rule:evenodd;stroke:rgb(0, 0, 0);stroke-width:3.0;" d="M 569.897, 173.156 L 575.318, 185.298 L 560.732, 185.433 L 555.691, 176.629 L 555.672, 172.07 z "/>
<path style="fill:rgb(182, 83, 255);fill-opacity:1.0;fill-rule:evenodd;stroke:rgb(0, 0, 0);stroke-width:3.0;" d="M 611.597, 474.152 L 583.198, 458.639 L 626.183, 439.64 z "/>
<path style="fill:rgb(52, 165, 231);fill-opacity:1.0;fill-rule:evenodd;stroke:rgb(0, 0, 0);stroke-width:3.0;" d="M 507.42, 180.189 L 173.863, 183.994 L 232.82, 156.065 L 523.417, 149.635 z "/>
<path style="fill:rgb(52, 165, 231);fill-opacity:1.0;fill-rule:evenodd;stroke:rgb(0, 0, 0);stroke-width:3.0;" d="M 730.619, 200.355 L 709.132, 204.864 L 555.447, 187.252 L 551.679, 185.516 L 724.259, 183.927 z "/>
<path style="fill:rgb(52, 165, 231);fill-opacity:1.0;fill-rule:evenodd;stroke:rgb(0, 0, 0);stroke-width:3.0;" d="M 341.093, 292.115 L 331.219, 303.427 L 325.711, 297.927 L 325.597, 285.348 L 329.094, 284.614 z "/>
<path style="fill:rgb(255, 255, 22);fill-opacity:1.0;fill-rule:evenodd;stroke:rgb(0, 0, 0);stroke-width:3.0;" d="M 725.117, 529.218 L 731.736, 550.522 L 646.645, 533.209 L 643.625, 524.425 z "/>
<path style="fill:rgb(255, 255, 22);fill-opacity:1.0;fill-rule:evenodd;stroke:rgb(0, 0, 0);stroke-width:3.0;" d="M 373.615, 28.2828 L 363.439, 59.4832 L 330.488, 25.3619 z "/>
<path style="fill:rgb(255, 255, 22);fill-opacity:1.0;fill-rule:evenodd;stroke:rgb(0, 0, 0);stroke-width:3.0;" d="M 255.483, 145.329 L 246.854, 139.65 L 276.11, 135.288 L 276.732, 135.263 z "/>
<path style="fill:rgb(187, 14, 130);fill-opacity:1.0;fill-rule:evenodd;stroke:rgb(0, 0, 0);stroke-width:3.0;" d="M 624.129, 94.7097 L 615.015, 99.9377 L 613.64, 94.9413 L 617.795, 86.6817 L 625.232, 85.7003 z "/>
<path style="fill:rgb(237, 157, 22);fill-opacity:1.0;fill-rule:evenodd;stroke:rgb(0, 0, 0);stroke-width:3.0;" d="M 640.218, 387.942 L 659.376, 409.199 L 644.797, 432.727 L 642.175, 433.807 L 626.067, 400.202 L 627.222, 382.929 z "/>
<path style="fill:rgb(237, 157, 22);fill-opacity:1.0;fill-rule:evenodd;stroke:rgb(0, 0, 0);stroke-width:3.0;" d="M 610.366, 101.449 L 606.842, 108.456 L 592.957, 96.7763 L 598.941, 89.207 z "/>
<path style="fill:rgb(237, 157, 22);fill-opacity:1.0;fill-rule:evenodd;stroke:rgb(0, 0, 0);stroke-width:3.0;" d="M 55.8207, 355.416 L 11.8302, 375.099 L 23.4392, 348.755 L 81.4233, 336.587 z "/>
<path style="fill:rgb(237, 157, 22);fill-opacity:1.0;fill-rule:evenodd;stroke:rgb(0, 0, 0);stroke-width:3.0;" d="M 173.06, 371.458 L 165.487, 389.169 L 164.813, 361.431 z "/>
<path style="fill:rgb(237, 157, 22);fill-opacity:1.0;fill-rule:evenodd;stroke:rgb(0, 0, 0);stroke-width:3.0;" d="M 325.649, 291.063 L 323.801, 309.011 L 317.401, 306.853 L 312.429, 298.071 L 316.908, 287.171 L 325.597, 285.348 z "/>
<path style="fill:rgb(249, 255, 20);fill-opacity:1.0;fill-rule:evenodd;stroke:rgb(0, 0, 0);stroke-width:3.0;" d="M 729.641, 349.31 L 672.359, 377.19 L 659.751, 373.109 L 661.361, 357.117 L 740.547, 330.889 z "/>
<path style="fill:rgb(22, 234, 144);fill-opacity:1.0;fill-rule:evenodd;stroke:rgb(0, 0, 0);stroke-width:3.0;" d="M 472.117, 94.9132 L 411.365, 96.4068 L 441.343, 74.5511 z "/>
<path style="fill:rgb(255, 249, 11);fill-opacity:1.0;fill-rule:evenodd;stroke:rgb(0, 0, 0);stroke-width:3.0;" d="M 158.579, 405.325 L 157.953, 406.788 L 113.335, 390.823 L 113.302, 390.78 L 114.061, 384.941 z "/>
<path style="fill:rgb(209, 102, 255);fill-opacity:1.0;fill-rule:evenodd;stroke:rgb(0, 0, 0);stroke-width:3.0;" d="M 27.1734, 341.876 L 18.7241, 349.745 L 9.9365, 351.589 L 8.82004, 343.6 L 14.9308, 339.314 z "/>
<path style="fill:rgb(237, 112, 255);fill-opacity:1.0;fill-rule:evenodd;stroke:rgb(0, 0, 0);stroke-width:3.0;" d="M 103.926, 380.3 L 67.0645, 483.852 L 28.4276, 475.66 L 72.9885, 366.134 z "/>
<path style="fill:rgb(112, 240, 255);fill-opacity:1.0;fill-rule:evenodd;stroke:rgb(0, 0, 0);stroke-width:3.0;" d="M 171.204, 185.254 L 57.8689, 238.943 L 26.7044, 204.768 L 176.519, 177.802 z "/>
<path style="fill:rgb(255, 249, 15);fill-opacity:1.0;fill-rule:evenodd;stroke:rgb(0, 0, 0);stroke-width:3.0;" d="M 670.895, 421.98 L 649.168, 430.927 L 660.139, 410.046 z "/>
<path style="fill:rgb(255, 249, 15);fill-opacity:1.0;fill-rule:evenodd;stroke:rgb(0, 0, 0);stroke-width:3.0;" d="M 152.507, 367.44 L 135.809, 364.126 L 135.864, 362.744 L 183.167, 345.154 z "/>
<path style="fill:rgb(255, 249, 15);fill-opacity:1.0;fill-rule:evenodd;stroke:rgb(0, 0, 0);stroke-width:3.0;" d="M 747.317, 196.851 L 730.619, 200.355 L 724.259, 183.927 L 760.338, 183.595 z "/>
<path style="fill:rgb(249, 228, 13);fill-opacity:1.0;fill-rule:evenodd;stroke:rgb(0, 0, 0);stroke-width:3.0;" d="M 566.51, 165.568 L 566.735, 172.915 L 555.672, 172.07 L 555.608, 156.745 L 562.072, 155.628 z "/>
<path style="fill:rgb(255, 50, 21);fill-opacity:1.0;fill-rule:evenodd;stroke:rgb(0, 0, 0);stroke-width:3.0;" d="M 583.375, 458.561 L 542.494, 476.631 L 459.824, 423.868 L 460.944, 423.497 z "/>
<path style="fill:rgb(237, 199, 168);fill-opacity:1.0;fill-rule:evenodd;stroke:rgb(0, 0, 0);stroke-width:3.0;" d="M 641.687, 432.787 L 583.375, 458.561 L 460.944, 423.497 L 613.079, 373.108 z "/>
<path style="fill:rgb(97, 10, 226);fill-opacity:1.0;fill-rule:evenodd;stroke:rgb(0, 0, 0);stroke-width:3.0;" d="M 785.872, 475.592 L 713.486, 457.291 L 704.688, 443.438 z "/>
<path style="fill:rgb(97, 10, 226);fill-opacity:1.0;fill-rule:evenodd;stroke:rgb(0, 0, 0);stroke-width:3.0;" d="M 378.745, 28.6302 L 355.809, 91.4584 L 352.877, 91.8671 L 373.615, 28.2828 z "/>
<path style="fill:rgb(7, 35, 197);fill-opacity:1.0;fill-rule:evenodd;stroke:rgb(0, 0, 0);stroke-width:3.0;" d="M 255.483, 145.329 L 245.857, 149.889 L 233.374, 141.152 L 233.558, 136.994 L 242.289, 136.644 z "/>
<path style="fill:rgb(35, 249, 255);fill-opacity:1.0;fill-rule:evenodd;stroke:rgb(0, 0, 0);stroke-width:3.0;" d="M 629.926, 287.716 L 520.421, 312.759 L 518.986, 306.617 L 552.519, 237.729 L 599.776, 227.812 z "/>
<path style="fill:rgb(255, 18, 74);fill-opacity:1.0;fill-rule:evenodd;stroke:rgb(0, 0, 0);stroke-width:3.0;" d="M 75.3826, 574.955 L 72.5121, 552.151 L 86.4577, 547.532 z "/>
<path style="fill:rgb(255, 18, 74);fill-opacity:1.0;fill-rule:evenodd;stroke:rgb(0, 0, 0);stroke-width:3.0;" d="M 518.986, 306.617 L 505.205, 247.657 L 552.519, 237.729 z "/>
<path style="fill:rgb(252, 1, 36);fill-opacity:1.0;fill-rule:evenodd;stroke:rgb(0, 0, 0);stroke-width:3.0;" d="M 88.4016, 505.113 L 50.2291, 531.146 L 62.5817, 496.445 L 69.0276, 494.26 z "/>
<path style="fill:rgb(8, 215, 255);fill-opacity:1.0;fill-rule:evenodd;stroke:rgb(0, 0, 0);stroke-width:3.0;" d="M 123.465, 481.201 L 88.4016, 505.113 L 69.0276, 494.26 L 122.694, 476.074 z "/>
<path style="fill:rgb(255, 144, 184);fill-opacity:1.0;fill-rule:evenodd;stroke:rgb(0, 0, 0);stroke-width:3.0;" d="M 439.686, 186.547 L 311.428, 187.728 L 304.784, 182.501 L 441.624, 180.94 z "/>
<path style="fill:rgb(255, 144, 184);fill-opacity:1.0;fill-rule:evenodd;stroke:rgb(0, 0, 0);stroke-width:3.0;" d="M 618.621, 110.482 L 602.506, 131.063 L 601.107, 130.397 L 613.269, 105.993 z "/>
<path style="fill:rgb(255, 255, 20);fill-opacity:1.0;fill-rule:evenodd;stroke:rgb(0, 0, 0);stroke-width:3.0;" d="M 527.025, 401.61 L 458.3, 424.373 L 453.195, 314.987 z "/>
<path style="fill:rgb(255, 255, 20);fill-opacity:1.0;fill-rule:evenodd;stroke:rgb(0, 0, 0);stroke-width:3.0;" d="M 542.494, 476.631 L 534.595, 480.123 L 525.056, 474.049 L 524.395, 465.08 z "/>
<path style="fill:rgb(44, 255, 179);fill-opacity:1.0;fill-rule:evenodd;stroke:rgb(0, 0, 0);stroke-width:3.0;" d="M 245.857, 149.889 L 200.718, 171.272 L 192.732, 170.587 L 228.778, 137.936 z "/>
<path style="fill:rgb(44, 255, 179);fill-opacity:1.0;fill-rule:evenodd;stroke:rgb(0, 0, 0);stroke-width:3.0;" d="M 628.86, 231.803 L 606.906, 241.978 L 599.776, 227.812 L 616.632, 224.275 z "/>
<path style="fill:rgb(25, 11, 255);fill-opacity:1.0;fill-rule:evenodd;stroke:rgb(0, 0, 0);stroke-width:3.0;" d="M 452.261, 427.693 L 451.265, 470.084 L 436.454, 460.654 L 449.194, 427.389 L 450.898, 426.825 z "/>
<path style="fill:rgb(25, 11, 255);fill-opacity:1.0;fill-rule:evenodd;stroke:rgb(0, 0, 0);stroke-width:3.0;" d="M 775.459, 532.179 L 778.31, 547.449 L 739.929, 576.892 L 725.117, 529.218 z "/>
<path style="fill:rgb(215, 12, 88);fill-opacity:1.0;fill-rule:evenodd;stroke:rgb(0, 0, 0);stroke-width:3.0;" d="M 484.277, 520.477 L 481.298, 526.999 L 453.104, 514.424 z "/>
<path style="fill:rgb(255, 92, 231);fill-opacity:1.0;fill-rule:evenodd;stroke:rgb(0, 0, 0);stroke-width:3.0;" d="M 540.839, 34.7084 L 541.173, 38.1251 L 505.612, 32.5435 L 523.385, 22.1989 z "/>
<path style="fill:rgb(170, 255, 255);fill-opacity:1.0;fill-rule:evenodd;stroke:rgb(0, 0, 0);stroke-width:3.0;" d="M 90.4789, 143.346 L 94.0782, 147.405 L 92.7131, 149.561 L 61.8026, 143.884 L 89.5442, 142.771 z "/>
<path style="fill:rgb(170, 255, 255);fill-opacity:1.0;fill-rule:evenodd;stroke:rgb(0, 0, 0);stroke-width:3.0;" d="M 576.237, 52.183 L 578.07, 53.9214 L 579.928, 62.7248 L 557.802, 46.8662 L 561.798, 44.6069 z "/>
<path style="fill:rgb(10, 0, 255);fill-opacity:1.0;fill-rule:evenodd;stroke:rgb(0, 0, 0);stroke-width:3.0;" d="M 790.51, 449.076 L 776.05, 471.702 L 752.031, 462.189 L 751.731, 431.684 z "/>
<path style="fill:rgb(10, 0, 255);fill-opacity:1.0;fill-rule:evenodd;stroke:rgb(0, 0, 0);stroke-width:3.0;" d="M 639.367, 380.194 L 637.854, 380.614 L 625.815, 375.215 L 630.363, 367.383 L 637.913, 364.883 z "/>
<path style="fill:rgb(16, 192, 255);fill-opacity:1.0;fill-rule:evenodd;stroke:rgb(0, 0, 0);stroke-width:3.0;" d="M 350.152, 295.556 L 347.45, 297.351 L 338.25, 282.693 L 360.838, 277.953 z "/>
<path style="fill:rgb(255, 74, 6);fill-opacity:1.0;fill-rule:evenodd;stroke:rgb(0, 0, 0);stroke-width:3.0;" d="M 498.256, 30.3222 L 486.432, 35.9235 L 466.096, 34.5462 L 465, 33.8568 L 489.278, 19.4029 z "/>
<path style="fill:rgb(228, 25, 255);fill-opacity:1.0;fill-rule:evenodd;stroke:rgb(0, 0, 0);stroke-width:3.0;" d="M 489.278, 19.4029 L 465, 33.8568 L 442.435, 19.6547 L 480.422, 8.63162 z "/>
<path style="fill:rgb(246, 152, 15);fill-opacity:1.0;fill-rule:evenodd;stroke:rgb(0, 0, 0);stroke-width:3.0;" d="M 330.488, 25.3619 L 363.439, 59.4832 L 352.877, 91.8671 L 351.459, 92.0648 L 316.215, 24.3953 z "/>
<path style="fill:rgb(246, 152, 15);fill-opacity:1.0;fill-rule:evenodd;stroke:rgb(0, 0, 0);stroke-width:3.0;" d="M 593.089, 521.453 L 595.151, 542.006 L 560.908, 535.357 L 546.458, 528.193 L 549.581, 518.894 z "/>
<path style="fill:rgb(252, 65, 71);fill-opacity:1.0;fill-rule:evenodd;stroke:rgb(0, 0, 0);stroke-width:3.0;" d="M 138.989, 445.472 L 131.09, 469.61 L 129.498, 473.333 L 127.601, 463.904 L 126.451, 437.316 z "/>
<path style="fill:rgb(255, 25, 19);fill-opacity:1.0;fill-rule:evenodd;stroke:rgb(0, 0, 0);stroke-width:3.0;" d="M 446.549, 434.297 L 436.454, 460.654 L 406.443, 441.549 L 444.856, 428.826 z "/>
<path style="fill:rgb(255, 25, 19);fill-opacity:1.0;fill-rule:evenodd;stroke:rgb(0, 0, 0);stroke-width:3.0;" d="M 138.738, 423.699 L 140.371, 441.247 L 138.989, 445.472 L 126.451, 437.316 L 125.099, 406.048 z "/>
<path style="fill:rgb(130, 255, 217);fill-opacity:1.0;fill-rule:evenodd;stroke:rgb(0, 0, 0);stroke-width:3.0;" d="M 483.509, 447.592 L 499.432, 480.236 L 453.096, 428.224 z "/>
<path style="fill:rgb(255, 11, 47);fill-opacity:1.0;fill-rule:evenodd;stroke:rgb(0, 0, 0);stroke-width:3.0;" d="M 379.057, 33.2988 L 359.884, 90.8903 L 355.809, 91.4584 L 377.625, 31.6973 z "/>
<path style="fill:rgb(13, 243, 102);fill-opacity:1.0;fill-rule:evenodd;stroke:rgb(0, 0, 0);stroke-width:3.0;" d="M 745.786, 329.154 L 542.065, 396.629 L 481.967, 348.745 L 473.992, 339.387 L 582.02, 298.672 L 617.907, 290.465 z "/>
<path style="fill:rgb(154, 28, 255);fill-opacity:1.0;fill-rule:evenodd;stroke:rgb(0, 0, 0);stroke-width:3.0;" d="M 406.706, 584.38 L 387.474, 591.224 L 396.043, 571.122 z "/>
<path style="fill:rgb(154, 28, 255);fill-opacity:1.0;fill-rule:evenodd;stroke:rgb(0, 0, 0);stroke-width:3.0;" d="M 27.1282, 99.4212 L 19.3983, 138.268 L 19.1011, 138.874 L 13.0034, 144.234 L 21.819, 105.462 L 26.488, 97.2498 z "/>
<path style="fill:rgb(154, 28, 255);fill-opacity:1.0;fill-rule:evenodd;stroke:rgb(0, 0, 0);stroke-width:3.0;" d="M 228.778, 137.936 L 198.371, 165.479 L 209.747, 137.949 L 227.766, 137.227 z "/>
<path style="fill:rgb(154, 28, 255);fill-opacity:1.0;fill-rule:evenodd;stroke:rgb(0, 0, 0);stroke-width:3.0;" d="M 91.7485, 318.538 L 93.8465, 333.705 L 93.3462, 334.085 L 63.6618, 340.315 L 62.3529, 316.049 L 81.924, 309.781 z "/>
<path style="fill:rgb(237, 3, 9);fill-opacity:1.0;fill-rule:evenodd;stroke:rgb(0, 0, 0);stroke-width:3.0;" d="M 31.379, 113.838 L 19.3983, 138.268 L 27.1282, 99.4212 z "/>
<path style="fill:rgb(237, 3, 9);fill-opacity:1.0;fill-rule:evenodd;stroke:rgb(0, 0, 0);stroke-width:3.0;" d="M 123.819, 299.093 L 119.447, 314.21 L 101.891, 327.579 L 100.228, 326.096 L 110.852, 303.374 L 113.12, 299.789 L 119.532, 297.736 z "/>
<path style="fill:rgb(10, 255, 7);fill-opacity:1.0;fill-rule:evenodd;stroke:rgb(0, 0, 0);stroke-width:3.0;" d="M 722.252, 511.943 L 715.714, 516.291 L 707.381, 502.963 L 716.898, 491.735 z "/>
<path style="fill:rgb(243, 103, 7);fill-opacity:1.0;fill-rule:evenodd;stroke:rgb(0, 0, 0);stroke-width:3.0;" d="M 507.525, 180.188 L 507.42, 180.189 L 523.417, 149.635 L 550.202, 149.042 z "/>
<path style="fill:rgb(240, 165, 152);fill-opacity:1.0;fill-rule:evenodd;stroke:rgb(0, 0, 0);stroke-width:3.0;" d="M 135.177, 380.036 L 122.877, 388.977 L 100.923, 378.925 L 107.741, 373.202 L 135.864, 362.744 z "/>
<path style="fill:rgb(255, 197, 66);fill-opacity:1.0;fill-rule:evenodd;stroke:rgb(0, 0, 0);stroke-width:3.0;" d="M 247.617, 136.43 L 188.593, 138.798 L 258.59, 109.171 z "/>
<path style="fill:rgb(48, 132, 226);fill-opacity:1.0;fill-rule:evenodd;stroke:rgb(0, 0, 0);stroke-width:3.0;" d="M 179.768, 336.701 L 96.7674, 377.022 L 72.9885, 366.134 L 85.3445, 335.765 L 168.21, 318.375 z "/>
<path style="fill:rgb(48, 132, 226);fill-opacity:1.0;fill-rule:evenodd;stroke:rgb(0, 0, 0);stroke-width:3.0;" d="M 642.57, 171.388 L 597.027, 138.062 L 608.303, 123.66 z "/>
<path style="fill:rgb(255, 252, 22);fill-opacity:1.0;fill-rule:evenodd;stroke:rgb(0, 0, 0);stroke-width:3.0;" d="M 780.22, 253.344 L 629.926, 287.716 L 606.906, 241.978 L 668.662, 213.356 L 680.053, 210.966 z "/>
<path style="fill:rgb(255, 252, 22);fill-opacity:1.0;fill-rule:evenodd;stroke:rgb(0, 0, 0);stroke-width:3.0;" d="M 335.05, 94.3522 L 300.428, 99.1786 L 306.324, 77.9523 z "/>
<path style="fill:rgb(163, 255, 255);fill-opacity:1.0;fill-rule:evenodd;stroke:rgb(0, 0, 0);stroke-width:3.0;" d="M 306.324, 77.9523 L 300.428, 99.1786 L 282.938, 101.617 L 274.292, 59.6653 z "/>
<path style="fill:rgb(255, 11, 46);fill-opacity:1.0;fill-rule:evenodd;stroke:rgb(0, 0, 0);stroke-width:3.0;" d="M 519.547, 470.54 L 516.388, 488.17 L 515.01, 488.779 L 505.749, 461.754 z "/>
<path style="fill:rgb(255, 11, 46);fill-opacity:1.0;fill-rule:evenodd;stroke:rgb(0, 0, 0);stroke-width:3.0;" d="M 190.061, 331.701 L 179.768, 336.701 L 168.21, 318.375 L 198.475, 312.024 z "/>
<path style="fill:rgb(246, 35, 25);fill-opacity:1.0;fill-rule:evenodd;stroke:rgb(0, 0, 0);stroke-width:3.0;" d="M 731.736, 550.522 L 741.692, 582.566 L 687.505, 555.335 L 702.484, 544.571 z "/>
<path style="fill:rgb(52, 255, 175);fill-opacity:1.0;fill-rule:evenodd;stroke:rgb(0, 0, 0);stroke-width:3.0;" d="M 702.484, 544.571 L 687.505, 555.335 L 647.307, 535.134 L 646.645, 533.209 z "/>
<path style="fill:rgb(252, 25, 209);fill-opacity:1.0;fill-rule:evenodd;stroke:rgb(0, 0, 0);stroke-width:3.0;" d="M 614.819, 151.081 L 643.606, 184.67 L 608.259, 184.995 L 605.334, 183.06 L 596.087, 139.262 L 597.027, 138.062 z "/>
<path style="fill:rgb(252, 25, 209);fill-opacity:1.0;fill-rule:evenodd;stroke:rgb(0, 0, 0);stroke-width:3.0;" d="M 466.096, 34.5462 L 421.512, 31.5267 L 417.151, 26.9917 L 442.435, 19.6547 z "/>
<path style="fill:rgb(30, 234, 228);fill-opacity:1.0;fill-rule:evenodd;stroke:rgb(0, 0, 0);stroke-width:3.0;" d="M 129.949, 141.15 L 40.4897, 144.739 L 27.0728, 99.2334 L 134.939, 93.4204 z "/>
<path style="fill:rgb(45, 249, 187);fill-opacity:1.0;fill-rule:evenodd;stroke:rgb(0, 0, 0);stroke-width:3.0;" d="M 501.811, 326.266 L 501.905, 328.051 L 500.312, 329.467 L 473.992, 339.387 L 470.196, 334.934 L 487.501, 323.531 z "/>
<path style="fill:rgb(255, 4, 7);fill-opacity:1.0;fill-rule:evenodd;stroke:rgb(0, 0, 0);stroke-width:3.0;" d="M 388.304, 95.9472 L 387.358, 96.997 L 355.875, 97.771 L 386.562, 83.234 z "/>
<path style="fill:rgb(231, 255, 13);fill-opacity:1.0;fill-rule:evenodd;stroke:rgb(0, 0, 0);stroke-width:3.0;" d="M 358.133, 96.7015 L 321.697, 113.962 L 312.794, 103.085 L 357.803, 94.9551 z "/>
<path style="fill:rgb(255, 33, 28);fill-opacity:1.0;fill-rule:evenodd;stroke:rgb(0, 0, 0);stroke-width:3.0;" d="M 327.431, 563.454 L 327.054, 568.413 L 313.972, 572.176 L 307.702, 569.443 L 307.994, 566.25 L 322.145, 552.972 z "/>
<path style="fill:rgb(204, 184, 25);fill-opacity:1.0;fill-rule:evenodd;stroke:rgb(0, 0, 0);stroke-width:3.0;" d="M 382.768, 378.627 L 373.902, 369.386 L 379.588, 350.607 z "/>
<path style="fill:rgb(243, 252, 7);fill-opacity:1.0;fill-rule:evenodd;stroke:rgb(0, 0, 0);stroke-width:3.0;" d="M 363.076, 322.252 L 379.305, 348.112 L 379.588, 350.607 L 373.902, 369.386 L 331.413, 325.095 L 354.853, 319.48 z "/>
<path style="fill:rgb(255, 72, 10);fill-opacity:1.0;fill-rule:evenodd;stroke:rgb(0, 0, 0);stroke-width:3.0;" d="M 792.229, 508.663 L 787.88, 518.548 L 756.682, 506.747 L 783.226, 489.349 z "/>
<path style="fill:rgb(226, 33, 212);fill-opacity:1.0;fill-rule:evenodd;stroke:rgb(0, 0, 0);stroke-width:3.0;" d="M 108.557, 307.002 L 91.1034, 310.804 L 89.9632, 307.206 L 113.12, 299.789 z "/>
<path style="fill:rgb(226, 33, 212);fill-opacity:1.0;fill-rule:evenodd;stroke:rgb(0, 0, 0);stroke-width:3.0;" d="M 428.127, 425.91 L 432.521, 432.911 L 227.73, 500.741 L 314.421, 307.382 z "/>
<path style="fill:rgb(8, 255, 220);fill-opacity:1.0;fill-rule:evenodd;stroke:rgb(0, 0, 0);stroke-width:3.0;" d="M 418.521, 545.853 L 399.66, 562.636 L 406.712, 546.093 L 418.171, 544.586 z "/>
<path style="fill:rgb(234, 240, 7);fill-opacity:1.0;fill-rule:evenodd;stroke:rgb(0, 0, 0);stroke-width:3.0;" d="M 125.099, 406.048 L 126.412, 436.411 L 119.618, 423.128 L 124.408, 405.153 z "/>
<path style="fill:rgb(16, 220, 75);fill-opacity:1.0;fill-rule:evenodd;stroke:rgb(0, 0, 0);stroke-width:3.0;" d="M 150.742, 290.379 L 134.752, 302.555 L 128.062, 300.437 L 131.679, 293.845 L 150.155, 287.928 z "/>
<path style="fill:rgb(255, 243, 32);fill-opacity:1.0;fill-rule:evenodd;stroke:rgb(0, 0, 0);stroke-width:3.0;" d="M 152.507, 367.44 L 135.177, 380.036 L 135.809, 364.126 z "/>
<path style="fill:rgb(255, 243, 32);fill-opacity:1.0;fill-rule:evenodd;stroke:rgb(0, 0, 0);stroke-width:3.0;" d="M 99.7964, 320.848 L 86.4352, 313.802 L 84.6496, 312.21 L 108.557, 307.002 z "/>
<path style="fill:rgb(252, 5, 89);fill-opacity:1.0;fill-rule:evenodd;stroke:rgb(0, 0, 0);stroke-width:3.0;" d="M 76.2386, 581.754 L 74.6725, 583.283 L 60.9256, 555.989 L 72.5121, 552.151 z "/>
<path style="fill:rgb(252, 5, 89);fill-opacity:1.0;fill-rule:evenodd;stroke:rgb(0, 0, 0);stroke-width:3.0;" d="M 311.428, 187.728 L 176.665, 188.969 L 171.385, 185.168 L 173.863, 183.994 L 304.784, 182.501 z "/>
<path style="fill:rgb(255, 112, 17);fill-opacity:1.0;fill-rule:evenodd;stroke:rgb(0, 0, 0);stroke-width:3.0;" d="M 138.266, 61.6009 L 137.699, 67.0276 L 122.647, 83.847 L 133.986, 54.9088 z "/>
<path style="fill:rgb(51, 249, 81);fill-opacity:1.0;fill-rule:evenodd;stroke:rgb(0, 0, 0);stroke-width:3.0;" d="M 279.103, 83.0085 L 282.938, 101.617 L 227.268, 109.377 L 230.415, 83.5297 L 255.76, 61.6148 z "/>
<path style="fill:rgb(252, 184, 7);fill-opacity:1.0;fill-rule:evenodd;stroke:rgb(0, 0, 0);stroke-width:3.0;" d="M 274.292, 59.6653 L 279.103, 83.0085 L 255.76, 61.6148 L 264.488, 54.0683 z "/>
<path style="fill:rgb(41, 187, 199);fill-opacity:1.0;fill-rule:evenodd;stroke:rgb(0, 0, 0);stroke-width:3.0;" d="M 453.096, 428.224 L 499.432, 480.236 L 505.623, 492.928 L 494.72, 497.747 L 451.265, 470.084 L 452.261, 427.693 z "/>
<path style="fill:rgb(240, 255, 6);fill-opacity:1.0;fill-rule:evenodd;stroke:rgb(0, 0, 0);stroke-width:3.0;" d="M 440.063, 73.7041 L 401.402, 96.6517 L 387.358, 96.997 L 409.58, 72.3301 L 426.134, 64.4877 z "/>
<path style="fill:rgb(237, 41, 10);fill-opacity:1.0;fill-rule:evenodd;stroke:rgb(0, 0, 0);stroke-width:3.0;" d="M 313.122, 109.981 L 250.75, 128.647 L 260.364, 104.764 L 307.018, 98.2599 z "/>
<path style="fill:rgb(69, 124, 255);fill-opacity:1.0;fill-rule:evenodd;stroke:rgb(0, 0, 0);stroke-width:3.0;" d="M 198.371, 165.479 L 192.732, 170.587 L 182.301, 169.693 L 204.797, 138.148 L 209.747, 137.949 z "/>
<path style="fill:rgb(255, 140, 7);fill-opacity:1.0;fill-rule:evenodd;stroke:rgb(0, 0, 0);stroke-width:3.0;" d="M 444.463, 61.0328 L 444.58, 70.6094 L 437.034, 71.7001 L 426.134, 64.4877 L 433.877, 60.82 z "/>
<path style="fill:rgb(24, 2, 223);fill-opacity:1.0;fill-rule:evenodd;stroke:rgb(0, 0, 0);stroke-width:3.0;" d="M 407.81, 26.1333 L 403.487, 30.306 L 384.435, 29.0156 L 408.071, 18.0201 z "/>
<path style="fill:rgb(252, 255, 76);fill-opacity:1.0;fill-rule:evenodd;stroke:rgb(0, 0, 0);stroke-width:3.0;" d="M 520.421, 312.759 L 462.572, 325.989 L 423.04, 279.605 L 418.894, 265.77 L 505.205, 247.657 z "/>
<path style="fill:rgb(255, 31, 234);fill-opacity:1.0;fill-rule:evenodd;stroke:rgb(0, 0, 0);stroke-width:3.0;" d="M 62.933, 148.223 L 61.3805, 162.7 L 52.3004, 163.495 L 37.1115, 144.874 L 58.2409, 144.027 z "/>
</svg>