<?xml version="1.0" encoding="iso-8859-1" standalone="no"?>
<!DOCTYPE svg PUBLIC "-//W3C//DTD SVG 1.0//EN" "http://www.w3.org/TR/2001/REC-SVG-20010904/DTD/svg10.dtd">
<svg xmlns="http://www.w3.org/2000/svg" width="800" height="600">
<path style="fill:rgb(0, 0, 0);fill-opacity:0.0;fill-rule:evenodd;stroke:rgb(0, 0, 0);stroke-width:0.0;" d="M 0, 600 L 800, 600 L 800, 0 L 0, 0 z "/>
<path style="fill:rgb(44, 179, 231);fill-opacity:1.0;fill-rule:evenodd;stroke:rgb(0, 0, 0);stroke-width:3.0;" d="M 751.095, 161.944 L 767.138, 173.425 L 763.554, 177.261 L 742.486, 161.62 z "/>
<path style="fill:rgb(44, 179, 231);fill-opacity:1.0;fill-rule:evenodd;stroke:rgb(0, 0, 0);stroke-width:3.0;" d="M 723.249, 90.7944 L 730.216, 100.782 L 730.049, 105.707 L 705.002, 109.408 L 702.726, 107.954 L 709.237, 93.3965 L 714.543, 88.8728 z "/>
<path style="fill:rgb(16, 4, 189);fill-opacity:1.0;fill-rule:evenodd;stroke:rgb(0, 0, 0);stroke-width:3.0;" d="M 742.84, 507.196 L 746.891, 517.814 L 727.799, 523.639 L 736.991, 502.345 z "/>
<path style="fill:rgb(16, 4, 189);fill-opacity:1.0;fill-rule:evenodd;stroke:rgb(0, 0, 0);stroke-width:3.0;" d="M 728.788, 548.235 L 722.557, 536.859 L 722.474, 536.254 L 745.138, 533.514 z "/>
<path style="fill:rgb(16, 4, 189);fill-opacity:1.0;fill-rule:evenodd;stroke:rgb(0, 0, 0);stroke-width:3.0;" d="M 693.842, 127.818 L 668.066, 146.662 L 664.015, 148.393 L 683.163, 115.628 L 709.237, 93.3965 z "/>
<path style="fill:rgb(255, 255, 19);fill-opacity:1.0;fill-rule:evenodd;stroke:rgb(0, 0, 0);stroke-width:3.0;" d="M 697.029, 210.661 L 696.883, 224.618 L 683.227, 226.984 L 692.91, 208.054 z "/>
<path style="fill:rgb(255, 255, 19);fill-opacity:1.0;fill-rule:evenodd;stroke:rgb(0, 0, 0);stroke-width:3.0;" d="M 762.494, 47.9896 L 725.192, 79.7936 L 711.929, 44.4552 z "/>
<path style="fill:rgb(255, 255, 19);fill-opacity:1.0;fill-rule:evenodd;stroke:rgb(0, 0, 0);stroke-width:3.0;" d="M 489.16, 583.463 L 428.607, 591.703 L 490.459, 549.024 z "/>
<path style="fill:rgb(255, 255, 19);fill-opacity:1.0;fill-rule:evenodd;stroke:rgb(0, 0, 0);stroke-width:3.0;" d="M 686.38, 220.82 L 679.542, 234.187 L 671.158, 229.984 L 670.409, 229.019 L 684.677, 217.224 z "/>
<path style="fill:rgb(255, 255, 19);fill-opacity:1.0;fill-rule:evenodd;stroke:rgb(0, 0, 0);stroke-width:3.0;" d="M 697.973, 103 L 674.532, 122.986 L 615.067, 37.1213 L 621.541, 27.213 L 690.571, 11.3343 z "/>
<path style="fill:rgb(255, 6, 7);fill-opacity:1.0;fill-rule:evenodd;stroke:rgb(0, 0, 0);stroke-width:3.0;" d="M 755.752, 109.185 L 743.583, 114.386 L 740.412, 111.874 L 742.436, 100.25 z "/>
<path style="fill:rgb(255, 4, 78);fill-opacity:1.0;fill-rule:evenodd;stroke:rgb(0, 0, 0);stroke-width:3.0;" d="M 717.572, 304.754 L 715.513, 305.5 L 718.232, 236.695 L 725.372, 234.612 z "/>
<path style="fill:rgb(255, 4, 78);fill-opacity:1.0;fill-rule:evenodd;stroke:rgb(0, 0, 0);stroke-width:3.0;" d="M 435.565, 81.2534 L 420.578, 83.7343 L 423.953, 72.8796 L 449.605, 60.542 z "/>
<path style="fill:rgb(255, 4, 78);fill-opacity:1.0;fill-rule:evenodd;stroke:rgb(0, 0, 0);stroke-width:3.0;" d="M 766.225, 19.9317 L 768.194, 23.3526 L 768.937, 27.6302 L 763.572, 40.3284 L 757.778, 20.1477 L 761.387, 18.8916 z "/>
<path style="fill:rgb(255, 184, 24);fill-opacity:1.0;fill-rule:evenodd;stroke:rgb(0, 0, 0);stroke-width:3.0;" d="M 714.509, 574.778 L 689.398, 583.701 L 704.409, 570.185 L 707.497, 569.532 z "/>
<path style="fill:rgb(255, 184, 24);fill-opacity:1.0;fill-rule:evenodd;stroke:rgb(0, 0, 0);stroke-width:3.0;" d="M 756.282, 116.636 L 756.566, 121.578 L 756.469, 122.04 L 729.496, 120.406 L 746.023, 113.343 z "/>
<path style="fill:rgb(255, 252, 71);fill-opacity:1.0;fill-rule:evenodd;stroke:rgb(0, 0, 0);stroke-width:3.0;" d="M 32.5089, 517.129 L 35.5035, 540.37 L 35.4387, 540.538 L 28.6907, 545.868 L 18.6376, 508.181 L 19.5761, 507.277 z "/>
<path style="fill:rgb(209, 70, 22);fill-opacity:1.0;fill-rule:evenodd;stroke:rgb(0, 0, 0);stroke-width:3.0;" d="M 786.165, 219.229 L 772.388, 221.23 L 770.551, 214.517 L 769.46, 204.452 z "/>
<path style="fill:rgb(246, 220, 70);fill-opacity:1.0;fill-rule:evenodd;stroke:rgb(0, 0, 0);stroke-width:3.0;" d="M 715.419, 484.455 L 718.397, 506.322 L 675.754, 544.035 L 624.451, 554.745 L 624.001, 554.625 L 688.555, 462.177 z "/>
<path style="fill:rgb(255, 243, 70);fill-opacity:1.0;fill-rule:evenodd;stroke:rgb(0, 0, 0);stroke-width:3.0;" d="M 753.651, 79.0273 L 784.415, 96.934 L 755.752, 109.185 L 749.538, 105.015 L 747.813, 78.8624 z "/>
<path style="fill:rgb(237, 9, 152);fill-opacity:1.0;fill-rule:evenodd;stroke:rgb(0, 0, 0);stroke-width:3.0;" d="M 715.874, 222.591 L 702.861, 230.475 L 702.607, 214.192 z "/>
<path style="fill:rgb(237, 9, 152);fill-opacity:1.0;fill-rule:evenodd;stroke:rgb(0, 0, 0);stroke-width:3.0;" d="M 630.946, 80.2959 L 634.017, 88.4441 L 631.428, 104.959 L 620.738, 70.3501 z "/>
<path style="fill:rgb(237, 9, 152);fill-opacity:1.0;fill-rule:evenodd;stroke:rgb(0, 0, 0);stroke-width:3.0;" d="M 438.64, 80.7444 L 435.565, 81.2534 L 449.605, 60.542 L 479.593, 46.1191 z "/>
<path style="fill:rgb(237, 9, 152);fill-opacity:1.0;fill-rule:evenodd;stroke:rgb(0, 0, 0);stroke-width:3.0;" d="M 224.018, 147.137 L 170.518, 139.863 L 106.608, 110.518 L 208.723, 68.9485 z "/>
<path style="fill:rgb(112, 123, 255);fill-opacity:1.0;fill-rule:evenodd;stroke:rgb(0, 0, 0);stroke-width:3.0;" d="M 716.593, 461.504 L 702.752, 473.951 L 699.087, 470.911 L 699.353, 460.63 L 708.122, 440.887 z "/>
<path style="fill:rgb(252, 228, 9);fill-opacity:1.0;fill-rule:evenodd;stroke:rgb(0, 0, 0);stroke-width:3.0;" d="M 754.962, 249.142 L 758.858, 266.422 L 738.486, 274.758 L 745.884, 242.652 z "/>
<path style="fill:rgb(252, 228, 9);fill-opacity:1.0;fill-rule:evenodd;stroke:rgb(0, 0, 0);stroke-width:3.0;" d="M 785.187, 71.7197 L 791.441, 80.0948 L 763.953, 79.3183 L 776.698, 70.5863 z "/>
<path style="fill:rgb(252, 228, 9);fill-opacity:1.0;fill-rule:evenodd;stroke:rgb(0, 0, 0);stroke-width:3.0;" d="M 658.951, 180.505 L 672.768, 198.371 L 671.079, 199.808 L 657.354, 197.132 L 656.88, 195.569 L 658.393, 180.106 z "/>
<path style="fill:rgb(255, 243, 12);fill-opacity:1.0;fill-rule:evenodd;stroke:rgb(0, 0, 0);stroke-width:3.0;" d="M 773.072, 262.089 L 745.182, 242.15 L 746.55, 230.289 L 780.642, 222.608 z "/>
<path style="fill:rgb(82, 217, 255);fill-opacity:1.0;fill-rule:evenodd;stroke:rgb(0, 0, 0);stroke-width:3.0;" d="M 152.132, 137.363 L 130.66, 162.863 L 117.254, 132.621 z "/>
<path style="fill:rgb(82, 217, 255);fill-opacity:1.0;fill-rule:evenodd;stroke:rgb(0, 0, 0);stroke-width:3.0;" d="M 508.717, 580.802 L 489.16, 583.463 L 490.459, 549.024 L 508.018, 536.908 z "/>
<path style="fill:rgb(82, 217, 255);fill-opacity:1.0;fill-rule:evenodd;stroke:rgb(0, 0, 0);stroke-width:3.0;" d="M 794.026, 277.068 L 730.897, 299.929 L 731.64, 277.559 L 771.753, 261.146 z "/>
<path style="fill:rgb(89, 91, 255);fill-opacity:1.0;fill-rule:evenodd;stroke:rgb(0, 0, 0);stroke-width:3.0;" d="M 730.516, 577.107 L 722.804, 577.267 L 727.352, 570.214 L 745.618, 563.723 z "/>
<path style="fill:rgb(55, 105, 255);fill-opacity:1.0;fill-rule:evenodd;stroke:rgb(0, 0, 0);stroke-width:3.0;" d="M 686.815, 12.1982 L 670.717, 15.9013 L 665.876, 12.7626 L 682.473, 5.16789 z "/>
<path style="fill:rgb(55, 105, 255);fill-opacity:1.0;fill-rule:evenodd;stroke:rgb(0, 0, 0);stroke-width:3.0;" d="M 744.575, 121.319 L 744.843, 127.982 L 713.059, 127.432 L 729.496, 120.406 z "/>
<path style="fill:rgb(55, 105, 255);fill-opacity:1.0;fill-rule:evenodd;stroke:rgb(0, 0, 0);stroke-width:3.0;" d="M 746.043, 157.814 L 746.102, 159.272 L 731.393, 159.078 L 715.933, 157.107 L 715.868, 157.049 L 726.515, 150.718 z "/>
<path style="fill:rgb(55, 105, 255);fill-opacity:1.0;fill-rule:evenodd;stroke:rgb(0, 0, 0);stroke-width:3.0;" d="M 745.635, 242.474 L 732.993, 277.006 L 731.64, 277.559 L 733.102, 233.515 z "/>
<path style="fill:rgb(55, 105, 255);fill-opacity:1.0;fill-rule:evenodd;stroke:rgb(0, 0, 0);stroke-width:3.0;" d="M 641.328, 21.2589 L 625.872, 20.5854 L 635.379, 6.03588 z "/>
<path style="fill:rgb(252, 255, 13);fill-opacity:1.0;fill-rule:evenodd;stroke:rgb(0, 0, 0);stroke-width:3.0;" d="M 785.957, 130.407 L 753.866, 162.049 L 746.202, 161.76 L 744.857, 128.323 L 781.311, 123.752 z "/>
<path style="fill:rgb(246, 50, 19);fill-opacity:1.0;fill-rule:evenodd;stroke:rgb(0, 0, 0);stroke-width:3.0;" d="M 728.745, 569.719 L 714.509, 574.778 L 706.206, 568.567 L 717.875, 558.06 z "/>
<path style="fill:rgb(255, 119, 17);fill-opacity:1.0;fill-rule:evenodd;stroke:rgb(0, 0, 0);stroke-width:3.0;" d="M 778.455, 64.2766 L 767.839, 76.6562 L 763.953, 79.3183 L 749.562, 78.9118 L 761.542, 61.4734 z "/>
<path style="fill:rgb(255, 22, 22);fill-opacity:1.0;fill-rule:evenodd;stroke:rgb(0, 0, 0);stroke-width:3.0;" d="M 717.294, 236.968 L 692.294, 244.26 L 691.16, 239.378 L 714.175, 226.938 z "/>
<path style="fill:rgb(24, 31, 255);fill-opacity:1.0;fill-rule:evenodd;stroke:rgb(0, 0, 0);stroke-width:3.0;" d="M 696.76, 236.351 L 683.752, 243.383 L 683.21, 227.017 L 683.227, 226.984 L 696.883, 224.618 z "/>
<path style="fill:rgb(88, 179, 231);fill-opacity:1.0;fill-rule:evenodd;stroke:rgb(0, 0, 0);stroke-width:3.0;" d="M 742.486, 161.62 L 780.919, 190.153 L 778.921, 189.38 L 738.459, 163.909 L 740.008, 161.526 z "/>
<path style="fill:rgb(16, 128, 255);fill-opacity:1.0;fill-rule:evenodd;stroke:rgb(0, 0, 0);stroke-width:3.0;" d="M 766.227, 555.988 L 766.283, 556.38 L 754.385, 560.608 L 742.136, 536.217 L 756.347, 523.422 z "/>
<path style="fill:rgb(16, 128, 255);fill-opacity:1.0;fill-rule:evenodd;stroke:rgb(0, 0, 0);stroke-width:3.0;" d="M 220.34, 202.576 L 205.492, 234.666 L 46.6646, 333.818 L 99.0065, 151.215 z "/>
<path style="fill:rgb(255, 226, 6);fill-opacity:1.0;fill-rule:evenodd;stroke:rgb(0, 0, 0);stroke-width:3.0;" d="M 409.612, 111.743 L 398.684, 121.15 L 380.117, 114.65 L 388.993, 93.1675 z "/>
<path style="fill:rgb(255, 237, 11);fill-opacity:1.0;fill-rule:evenodd;stroke:rgb(0, 0, 0);stroke-width:3.0;" d="M 388.993, 93.1675 L 380.117, 114.65 L 371.68, 111.696 L 373.6, 96.0144 L 383.53, 88.2465 z "/>
<path style="fill:rgb(240, 86, 108);fill-opacity:1.0;fill-rule:evenodd;stroke:rgb(0, 0, 0);stroke-width:3.0;" d="M 720.006, 518.132 L 719.882, 518.208 L 691.837, 529.812 L 718.397, 506.322 z "/>
<path style="fill:rgb(252, 1, 56);fill-opacity:1.0;fill-rule:evenodd;stroke:rgb(0, 0, 0);stroke-width:3.0;" d="M 117.254, 132.621 L 130.66, 162.863 L 129.573, 164.154 L 73.1964, 140.29 L 77.623, 127.232 z "/>
<path style="fill:rgb(252, 1, 56);fill-opacity:1.0;fill-rule:evenodd;stroke:rgb(0, 0, 0);stroke-width:3.0;" d="M 755.423, 566.071 L 748.71, 575.629 L 731.605, 576.142 L 745.618, 563.723 L 749.066, 562.498 z "/>
<path style="fill:rgb(252, 1, 56);fill-opacity:1.0;fill-rule:evenodd;stroke:rgb(0, 0, 0);stroke-width:3.0;" d="M 734.719, 500.462 L 729.861, 512.737 L 726.81, 513.36 L 719.299, 512.945 L 715.419, 484.455 z "/>
<path style="fill:rgb(252, 1, 56);fill-opacity:1.0;fill-rule:evenodd;stroke:rgb(0, 0, 0);stroke-width:3.0;" d="M 738.107, 589.651 L 725.683, 577.207 L 745.903, 576.789 z "/>
<path style="fill:rgb(255, 148, 10);fill-opacity:1.0;fill-rule:evenodd;stroke:rgb(0, 0, 0);stroke-width:3.0;" d="M 717.051, 523.93 L 703.016, 537.407 L 693.807, 534.169 L 718.047, 519.331 z "/>
<path style="fill:rgb(6, 184, 255);fill-opacity:1.0;fill-rule:evenodd;stroke:rgb(0, 0, 0);stroke-width:3.0;" d="M 736.327, 481.888 L 728.251, 481.231 L 713.153, 464.597 L 715.286, 462.679 z "/>
<path style="fill:rgb(6, 184, 255);fill-opacity:1.0;fill-rule:evenodd;stroke:rgb(0, 0, 0);stroke-width:3.0;" d="M 717.73, 460.48 L 716.593, 461.504 L 708.122, 440.887 L 716.339, 422.388 L 722.54, 413.507 z "/>
<path style="fill:rgb(234, 255, 9);fill-opacity:1.0;fill-rule:evenodd;stroke:rgb(0, 0, 0);stroke-width:3.0;" d="M 730.057, 233.246 L 717.294, 236.968 L 714.175, 226.938 L 719.619, 223.995 z "/>
<path style="fill:rgb(255, 226, 31);fill-opacity:1.0;fill-rule:evenodd;stroke:rgb(0, 0, 0);stroke-width:3.0;" d="M 640.474, 512.024 L 613.965, 548.29 L 550.523, 574.924 L 638.671, 489.436 z "/>
<path style="fill:rgb(255, 226, 31);fill-opacity:1.0;fill-rule:evenodd;stroke:rgb(0, 0, 0);stroke-width:3.0;" d="M 765.533, 45.3982 L 762.494, 47.9896 L 712.813, 44.517 L 738.219, 8.81689 z "/>
<path style="fill:rgb(255, 226, 31);fill-opacity:1.0;fill-rule:evenodd;stroke:rgb(0, 0, 0);stroke-width:3.0;" d="M 637.349, 73.151 L 650.79, 99.632 L 642.532, 91.5861 L 631.988, 72.7446 L 635.241, 72.1031 z "/>
<path style="fill:rgb(243, 243, 16);fill-opacity:1.0;fill-rule:evenodd;stroke:rgb(0, 0, 0);stroke-width:3.0;" d="M 139.499, 125.62 L 124.705, 133.634 L 68.5718, 126.001 L 106.608, 110.518 z "/>
<path style="fill:rgb(243, 243, 16);fill-opacity:1.0;fill-rule:evenodd;stroke:rgb(0, 0, 0);stroke-width:3.0;" d="M 769.504, 578.835 L 770.647, 586.798 L 765.769, 587.22 L 756.09, 585.045 L 756.564, 577.866 z "/>
<path style="fill:rgb(243, 243, 16);fill-opacity:1.0;fill-rule:evenodd;stroke:rgb(0, 0, 0);stroke-width:3.0;" d="M 763.317, 575.19 L 748.71, 575.629 L 758.656, 561.467 z "/>
<path style="fill:rgb(243, 243, 16);fill-opacity:1.0;fill-rule:evenodd;stroke:rgb(0, 0, 0);stroke-width:3.0;" d="M 244.69, 149.948 L 220.34, 202.576 L 216.478, 200.941 L 181.905, 141.411 z "/>
<path style="fill:rgb(28, 255, 252);fill-opacity:1.0;fill-rule:evenodd;stroke:rgb(0, 0, 0);stroke-width:3.0;" d="M 764.133, 199.74 L 766.041, 214.82 L 764.964, 217.972 L 750.339, 205.677 L 758.404, 194.674 z "/>
<path style="fill:rgb(252, 6, 23);fill-opacity:1.0;fill-rule:evenodd;stroke:rgb(0, 0, 0);stroke-width:3.0;" d="M 181.905, 141.411 L 213.356, 195.566 L 162.506, 138.774 z "/>
<path style="fill:rgb(252, 6, 23);fill-opacity:1.0;fill-rule:evenodd;stroke:rgb(0, 0, 0);stroke-width:3.0;" d="M 738.219, 8.81689 L 712.813, 44.517 L 711.929, 44.4552 L 701.331, 16.2174 L 735.87, 5.67191 z "/>
<path style="fill:rgb(252, 6, 23);fill-opacity:1.0;fill-rule:evenodd;stroke:rgb(0, 0, 0);stroke-width:3.0;" d="M 708.499, 111.642 L 715.472, 120.826 L 701.215, 120.094 L 702.804, 108.004 z "/>
<path style="fill:rgb(252, 19, 75);fill-opacity:1.0;fill-rule:evenodd;stroke:rgb(0, 0, 0);stroke-width:3.0;" d="M 697.852, 252.412 L 674.334, 253.1 L 673.33, 249.791 L 700.683, 241.813 z "/>
<path style="fill:rgb(22, 252, 255);fill-opacity:1.0;fill-rule:evenodd;stroke:rgb(0, 0, 0);stroke-width:3.0;" d="M 702.607, 214.192 L 702.861, 230.475 L 696.783, 234.157 L 697.029, 210.661 z "/>
<path style="fill:rgb(252, 56, 246);fill-opacity:1.0;fill-rule:evenodd;stroke:rgb(0, 0, 0);stroke-width:3.0;" d="M 715.513, 305.5 L 692.734, 313.749 L 686.742, 293.998 L 700.683, 241.813 L 718.232, 236.695 z "/>
<path style="fill:rgb(252, 56, 246);fill-opacity:1.0;fill-rule:evenodd;stroke:rgb(0, 0, 0);stroke-width:3.0;" d="M 621.92, 47.0166 L 618.531, 63.2037 L 611.949, 41.8934 L 615.067, 37.1213 z "/>
<path style="fill:rgb(249, 2, 30);fill-opacity:1.0;fill-rule:evenodd;stroke:rgb(0, 0, 0);stroke-width:3.0;" d="M 88.399, 188.221 L 48.1997, 229.952 L 94.5704, 166.692 z "/>
<path style="fill:rgb(249, 2, 30);fill-opacity:1.0;fill-rule:evenodd;stroke:rgb(0, 0, 0);stroke-width:3.0;" d="M 170.518, 139.863 L 124.705, 133.634 L 139.499, 125.62 z "/>
<path style="fill:rgb(249, 2, 30);fill-opacity:1.0;fill-rule:evenodd;stroke:rgb(0, 0, 0);stroke-width:3.0;" d="M 162.506, 138.774 L 213.356, 195.566 L 216.478, 200.941 L 129.573, 164.154 L 152.132, 137.363 z "/>
<path style="fill:rgb(249, 2, 30);fill-opacity:1.0;fill-rule:evenodd;stroke:rgb(0, 0, 0);stroke-width:3.0;" d="M 754.385, 560.608 L 728.745, 569.719 L 717.875, 558.06 L 742.136, 536.217 z "/>
<path style="fill:rgb(249, 2, 30);fill-opacity:1.0;fill-rule:evenodd;stroke:rgb(0, 0, 0);stroke-width:3.0;" d="M 691.774, 457.567 L 634.423, 539.701 L 613.965, 548.29 L 685.147, 450.912 z "/>
<path style="fill:rgb(249, 2, 30);fill-opacity:1.0;fill-rule:evenodd;stroke:rgb(0, 0, 0);stroke-width:3.0;" d="M 255.4, 126.8 L 212.509, 88.3025 L 208.723, 68.9485 L 299.211, 32.1129 z "/>
<path style="fill:rgb(24, 12, 255);fill-opacity:1.0;fill-rule:evenodd;stroke:rgb(0, 0, 0);stroke-width:3.0;" d="M 723.757, 75.9719 L 698.625, 32.3896 L 706.71, 30.5506 z "/>
<path style="fill:rgb(24, 12, 255);fill-opacity:1.0;fill-rule:evenodd;stroke:rgb(0, 0, 0);stroke-width:3.0;" d="M 752.548, 64.4828 L 742.919, 78.7241 L 738.671, 78.6041 L 741.282, 66.0746 L 748.138, 60.2297 z "/>
<path style="fill:rgb(24, 12, 255);fill-opacity:1.0;fill-rule:evenodd;stroke:rgb(0, 0, 0);stroke-width:3.0;" d="M 550.523, 574.924 L 549.856, 575.204 L 515.841, 579.833 L 516.329, 575.948 L 573.619, 552.525 z "/>
<path style="fill:rgb(21, 3, 249);fill-opacity:1.0;fill-rule:evenodd;stroke:rgb(0, 0, 0);stroke-width:3.0;" d="M 695.975, 433.861 L 573.619, 552.525 L 516.329, 575.948 L 522.484, 526.926 L 694.662, 408.119 z "/>
<path style="fill:rgb(138, 255, 255);fill-opacity:1.0;fill-rule:evenodd;stroke:rgb(0, 0, 0);stroke-width:3.0;" d="M 768.594, 105.537 L 772.982, 111.823 L 769.745, 117.314 L 757.746, 116.005 L 759.531, 107.57 L 765.754, 104.91 z "/>
<path style="fill:rgb(7, 246, 243);fill-opacity:1.0;fill-rule:evenodd;stroke:rgb(0, 0, 0);stroke-width:3.0;" d="M 717.494, 86.3562 L 705.806, 96.322 L 696.551, 85.3812 L 693.383, 46.1498 L 698.795, 42.3002 z "/>
<path style="fill:rgb(7, 246, 243);fill-opacity:1.0;fill-rule:evenodd;stroke:rgb(0, 0, 0);stroke-width:3.0;" d="M 99.0065, 151.215 L 94.5704, 166.692 L 38.1578, 243.652 L 73.1964, 140.29 z "/>
<path style="fill:rgb(184, 0, 7);fill-opacity:1.0;fill-rule:evenodd;stroke:rgb(0, 0, 0);stroke-width:3.0;" d="M 686.742, 293.998 L 683.804, 284.314 L 694.664, 252.505 L 697.852, 252.412 z "/>
<path style="fill:rgb(184, 0, 7);fill-opacity:1.0;fill-rule:evenodd;stroke:rgb(0, 0, 0);stroke-width:3.0;" d="M 700.894, 210.489 L 650.47, 174.442 L 645.029, 156.508 L 688.132, 138.086 z "/>
<path style="fill:rgb(252, 255, 10);fill-opacity:1.0;fill-rule:evenodd;stroke:rgb(0, 0, 0);stroke-width:3.0;" d="M 794.39, 192.927 L 794.07, 199.917 L 763.554, 177.261 L 767.138, 173.425 z "/>
<path style="fill:rgb(152, 40, 252);fill-opacity:1.0;fill-rule:evenodd;stroke:rgb(0, 0, 0);stroke-width:3.0;" d="M 751.378, 188.459 L 749.973, 200.635 L 713.786, 155.208 z "/>
<path style="fill:rgb(240, 128, 14);fill-opacity:1.0;fill-rule:evenodd;stroke:rgb(0, 0, 0);stroke-width:3.0;" d="M 771.753, 261.146 L 758.858, 266.422 L 754.962, 249.142 z "/>
<path style="fill:rgb(240, 128, 14);fill-opacity:1.0;fill-rule:evenodd;stroke:rgb(0, 0, 0);stroke-width:3.0;" d="M 663.619, 132.291 L 654.276, 140.257 L 646.752, 137.57 L 659.825, 124.91 z "/>
<path style="fill:rgb(246, 14, 19);fill-opacity:1.0;fill-rule:evenodd;stroke:rgb(0, 0, 0);stroke-width:3.0;" d="M 515.841, 579.833 L 508.717, 580.802 L 508.018, 536.908 L 522.484, 526.926 z "/>
<path style="fill:rgb(246, 14, 19);fill-opacity:1.0;fill-rule:evenodd;stroke:rgb(0, 0, 0);stroke-width:3.0;" d="M 732.368, 255.63 L 730.897, 299.929 L 717.572, 304.754 L 725.372, 234.612 L 727.283, 234.055 z "/>
<path style="fill:rgb(246, 14, 19);fill-opacity:1.0;fill-rule:evenodd;stroke:rgb(0, 0, 0);stroke-width:3.0;" d="M 792.571, 160.526 L 792.286, 160.761 L 766.669, 157.494 L 765.893, 156.49 L 766.886, 154.659 L 781.054, 148.702 L 789.357, 147.201 z "/>
<path style="fill:rgb(255, 14, 22);fill-opacity:1.0;fill-rule:evenodd;stroke:rgb(0, 0, 0);stroke-width:3.0;" d="M 736.813, 460.837 L 734.893, 474.822 L 718.29, 462.085 L 717.88, 461.71 L 722.696, 459.158 z "/>
<path style="fill:rgb(209, 255, 10);fill-opacity:1.0;fill-rule:evenodd;stroke:rgb(0, 0, 0);stroke-width:3.0;" d="M 47.7193, 291.33 L 21.6771, 292.269 L 34.4097, 254.709 z "/>
<path style="fill:rgb(255, 4, 58);fill-opacity:1.0;fill-rule:evenodd;stroke:rgb(0, 0, 0);stroke-width:3.0;" d="M 58.9596, 290.925 L 47.7193, 291.33 L 34.4097, 254.709 L 38.1578, 243.652 L 48.1997, 229.952 L 88.399, 188.221 z "/>
<path style="fill:rgb(255, 157, 12);fill-opacity:1.0;fill-rule:evenodd;stroke:rgb(0, 0, 0);stroke-width:3.0;" d="M 744.843, 127.982 L 745.495, 144.182 L 719.168, 142.823 L 720.754, 127.565 z "/>
<path style="fill:rgb(255, 74, 16);fill-opacity:1.0;fill-rule:evenodd;stroke:rgb(0, 0, 0);stroke-width:3.0;" d="M 630.02, 58.7132 L 637.349, 73.151 L 620.457, 64.7537 L 627.705, 55.3707 z "/>
<path style="fill:rgb(255, 74, 16);fill-opacity:1.0;fill-rule:evenodd;stroke:rgb(0, 0, 0);stroke-width:3.0;" d="M 720.754, 127.565 L 719.168, 142.823 L 698.584, 141.761 L 692.377, 136.271 L 713.059, 127.432 z "/>
<path style="fill:rgb(150, 0, 179);fill-opacity:1.0;fill-rule:evenodd;stroke:rgb(0, 0, 0);stroke-width:3.0;" d="M 696.082, 435.954 L 640.474, 512.024 L 638.671, 489.436 L 695.975, 433.861 z "/>
<path style="fill:rgb(207, 10, 16);fill-opacity:1.0;fill-rule:evenodd;stroke:rgb(0, 0, 0);stroke-width:3.0;" d="M 619.056, 576.029 L 620.591, 580.123 L 613.284, 590.592 L 604.039, 583.214 L 611.746, 572.176 z "/>
<path style="fill:rgb(255, 154, 25);fill-opacity:1.0;fill-rule:evenodd;stroke:rgb(0, 0, 0);stroke-width:3.0;" d="M 683.804, 284.314 L 674.334, 253.1 L 694.664, 252.505 z "/>
<path style="fill:rgb(27, 207, 231);fill-opacity:1.0;fill-rule:evenodd;stroke:rgb(0, 0, 0);stroke-width:3.0;" d="M 786.3, 175.975 L 785.281, 183.028 L 778.476, 181.539 L 763.599, 170.893 L 764.828, 167.164 z "/>
<path style="fill:rgb(204, 240, 20);fill-opacity:1.0;fill-rule:evenodd;stroke:rgb(0, 0, 0);stroke-width:3.0;" d="M 706.71, 30.5506 L 694.943, 33.2271 L 691.727, 25.6499 L 691.038, 17.1182 L 697.216, 5.25362 z "/>
<path style="fill:rgb(204, 240, 20);fill-opacity:1.0;fill-rule:evenodd;stroke:rgb(0, 0, 0);stroke-width:3.0;" d="M 713.786, 155.208 L 749.973, 200.635 L 745.182, 242.15 L 720.851, 224.757 L 698.755, 198.353 L 688.132, 138.086 L 692.377, 136.271 z "/>
<path style="fill:rgb(246, 18, 182);fill-opacity:1.0;fill-rule:evenodd;stroke:rgb(0, 0, 0);stroke-width:3.0;" d="M 724.618, 551.99 L 713.089, 562.37 L 711.978, 536.472 L 722.213, 534.335 z "/>
<path style="fill:rgb(228, 223, 19);fill-opacity:1.0;fill-rule:evenodd;stroke:rgb(0, 0, 0);stroke-width:3.0;" d="M 723.757, 75.9719 L 725.192, 79.7936 L 717.494, 86.3562 L 694.943, 33.2271 L 698.625, 32.3896 z "/>
<path style="fill:rgb(255, 189, 255);fill-opacity:1.0;fill-rule:evenodd;stroke:rgb(0, 0, 0);stroke-width:3.0;" d="M 688.589, 571.814 L 694.453, 579.15 L 691.492, 581.815 L 673.865, 582.14 L 675.738, 568.394 z "/>
<path style="fill:rgb(255, 189, 255);fill-opacity:1.0;fill-rule:evenodd;stroke:rgb(0, 0, 0);stroke-width:3.0;" d="M 245.333, 117.763 L 244.862, 149.575 L 244.69, 149.948 L 224.018, 147.137 L 212.509, 88.3025 z "/>
<path style="fill:rgb(41, 154, 255);fill-opacity:1.0;fill-rule:evenodd;stroke:rgb(0, 0, 0);stroke-width:3.0;" d="M 398.684, 121.15 L 396.827, 122.749 L 370.729, 119.46 L 371.68, 111.696 z "/>
<path style="fill:rgb(255, 32, 9);fill-opacity:1.0;fill-rule:evenodd;stroke:rgb(0, 0, 0);stroke-width:3.0;" d="M 638.062, 558.367 L 642.921, 565.031 L 637.674, 567.514 L 624.521, 568.261 L 634.652, 557.46 z "/>
<path style="fill:rgb(249, 252, 29);fill-opacity:1.0;fill-rule:evenodd;stroke:rgb(0, 0, 0);stroke-width:3.0;" d="M 671.527, 567.273 L 624.451, 554.745 L 677.188, 543.735 z "/>
<path style="fill:rgb(231, 19, 6);fill-opacity:1.0;fill-rule:evenodd;stroke:rgb(0, 0, 0);stroke-width:3.0;" d="M 381.928, 131.575 L 382.345, 135.216 L 370.416, 145.485 L 368.52, 137.499 L 369.308, 131.068 z "/>
<path style="fill:rgb(255, 0, 150);fill-opacity:1.0;fill-rule:evenodd;stroke:rgb(0, 0, 0);stroke-width:3.0;" d="M 702.805, 544.383 L 701.572, 569.026 L 680.269, 569.6 L 671.527, 567.273 L 677.188, 543.735 L 696.938, 539.612 z "/>
<path style="fill:rgb(255, 234, 11);fill-opacity:1.0;fill-rule:evenodd;stroke:rgb(0, 0, 0);stroke-width:3.0;" d="M 712.77, 554.942 L 713.089, 562.37 L 701.378, 572.914 L 702.49, 550.681 z "/>
<path style="fill:rgb(255, 234, 11);fill-opacity:1.0;fill-rule:evenodd;stroke:rgb(0, 0, 0);stroke-width:3.0;" d="M 769.727, 183.592 L 767.552, 184.983 L 744.742, 176.16 L 737.358, 167.86 L 736.834, 166.411 L 738.459, 163.909 z "/>
<path style="fill:rgb(215, 1, 243);fill-opacity:1.0;fill-rule:evenodd;stroke:rgb(0, 0, 0);stroke-width:3.0;" d="M 712.77, 554.942 L 702.49, 550.681 L 703.109, 538.324 L 711.978, 536.472 z "/>
<path style="fill:rgb(212, 5, 24);fill-opacity:1.0;fill-rule:evenodd;stroke:rgb(0, 0, 0);stroke-width:3.0;" d="M 750.902, 528.324 L 745.138, 533.514 L 722.474, 536.254 L 722.445, 536.04 L 727.799, 523.639 L 746.891, 517.814 z "/>
<path style="fill:rgb(13, 20, 255);fill-opacity:1.0;fill-rule:evenodd;stroke:rgb(0, 0, 0);stroke-width:3.0;" d="M 508.794, 592.443 L 495.454, 582.607 L 549.856, 575.204 z "/>
<path style="fill:rgb(255, 252, 52);fill-opacity:1.0;fill-rule:evenodd;stroke:rgb(0, 0, 0);stroke-width:3.0;" d="M 42.8561, 293.781 L 43.2069, 313.327 L 16.1846, 308.472 L 21.3286, 293.297 z "/>
<path style="fill:rgb(28, 228, 152);fill-opacity:1.0;fill-rule:evenodd;stroke:rgb(0, 0, 0);stroke-width:3.0;" d="M 55.5352, 164.152 L 16.3939, 147.242 L 46.914, 134.818 z "/>
<path style="fill:rgb(249, 255, 20);fill-opacity:1.0;fill-rule:evenodd;stroke:rgb(0, 0, 0);stroke-width:3.0;" d="M 77.623, 127.232 L 63.8846, 167.759 L 55.5352, 164.152 L 46.914, 134.818 L 68.5718, 126.001 z "/>
<path style="fill:rgb(255, 255, 27);fill-opacity:1.0;fill-rule:evenodd;stroke:rgb(0, 0, 0);stroke-width:3.0;" d="M 52.0811, 314.921 L 43.2069, 313.327 L 42.9896, 301.22 L 57.4627, 290.979 L 58.9596, 290.925 z "/>
</svg>