<?xml version="1.0" encoding="iso-8859-1" standalone="no"?>
<!DOCTYPE svg PUBLIC "-//W3C//DTD SVG 1.0//EN" "http://www.w3.org/TR/2001/REC-SVG-20010904/DTD/svg10.dtd">
<svg xmlns="http://www.w3.org/2000/svg" width="800" height="600">
<path style="fill:rgb(0, 0, 0);fill-opacity:0.0;fill-rule:evenodd;stroke:rgb(0, 0, 0);stroke-width:0.0;" d="M 0, 600 L 800, 600 L 800, 0 L 0, 0 z "/>
<path style="fill:rgb(255, 246, 45);fill-opacity:1.0;fill-rule:evenodd;stroke:rgb(0, 0, 0);stroke-width:3.0;" d="M 199.153, 6.03923 L 202.403, 27.7796 L 151.781, 28.3857 L 160.665, 5.78736 z "/>
<path style="fill:rgb(255, 246, 45);fill-opacity:1.0;fill-rule:evenodd;stroke:rgb(0, 0, 0);stroke-width:3.0;" d="M 160.665, 5.78736 L 151.781, 28.3857 L 135.414, 28.5816 L 141.444, 5.66157 z "/>
<path style="fill:rgb(255, 246, 45);fill-opacity:1.0;fill-rule:evenodd;stroke:rgb(0, 0, 0);stroke-width:3.0;" d="M 752.316, 385.892 L 742.064, 424.63 L 718.757, 384.032 L 697.093, 286.115 z "/>
<path style="fill:rgb(255, 246, 45);fill-opacity:1.0;fill-rule:evenodd;stroke:rgb(0, 0, 0);stroke-width:3.0;" d="M 151.566, 111.454 L 137.49, 119.412 L 130.563, 116.003 L 146.009, 104.638 z "/>
<path style="fill:rgb(255, 246, 45);fill-opacity:1.0;fill-rule:evenodd;stroke:rgb(0, 0, 0);stroke-width:3.0;" d="M 247.642, 6.35656 L 239.45, 27.336 L 202.403, 27.7796 L 199.153, 6.03923 z "/>
<path style="fill:rgb(234, 255, 86);fill-opacity:1.0;fill-rule:evenodd;stroke:rgb(0, 0, 0);stroke-width:3.0;" d="M 150.363, 125.746 L 129.12, 134.841 L 128.678, 134.467 L 139.219, 120.262 z "/>
<path style="fill:rgb(234, 255, 86);fill-opacity:1.0;fill-rule:evenodd;stroke:rgb(0, 0, 0);stroke-width:3.0;" d="M 356.964, 382.74 L 322.177, 393.098 L 321.335, 390.065 L 334.558, 364.073 z "/>
<path style="fill:rgb(234, 255, 86);fill-opacity:1.0;fill-rule:evenodd;stroke:rgb(0, 0, 0);stroke-width:3.0;" d="M 196.258, 96.4145 L 178.222, 86.6331 L 182.732, 71.7111 L 186.027, 68.2045 z "/>
<path style="fill:rgb(234, 255, 86);fill-opacity:1.0;fill-rule:evenodd;stroke:rgb(0, 0, 0);stroke-width:3.0;" d="M 376.085, 338.698 L 372.303, 339.026 L 340.808, 338.116 L 366.361, 324.663 z "/>
<path style="fill:rgb(168, 255, 49);fill-opacity:1.0;fill-rule:evenodd;stroke:rgb(0, 0, 0);stroke-width:3.0;" d="M 129.529, 527.052 L 97.1776, 570.614 L 83.9844, 556.873 L 112.904, 522.593 z "/>
<path style="fill:rgb(168, 255, 49);fill-opacity:1.0;fill-rule:evenodd;stroke:rgb(0, 0, 0);stroke-width:3.0;" d="M 386.739, 223.326 L 385.065, 234.232 L 379.423, 235.303 L 369.931, 232.737 L 381.569, 219.718 z "/>
<path style="fill:rgb(168, 255, 49);fill-opacity:1.0;fill-rule:evenodd;stroke:rgb(0, 0, 0);stroke-width:3.0;" d="M 402.257, 220.903 L 406.335, 230.197 L 398.666, 231.652 L 373.292, 213.94 L 376.86, 209.712 z "/>
<path style="fill:rgb(212, 5, 24);fill-opacity:1.0;fill-rule:evenodd;stroke:rgb(0, 0, 0);stroke-width:3.0;" d="M 421.101, 383.286 L 399.016, 399.949 L 405.035, 383.111 L 412.893, 380.248 z "/>
<path style="fill:rgb(212, 5, 24);fill-opacity:1.0;fill-rule:evenodd;stroke:rgb(0, 0, 0);stroke-width:3.0;" d="M 504.441, 215.323 L 419.042, 259.157 L 386.128, 184.142 z "/>
<path style="fill:rgb(212, 5, 24);fill-opacity:1.0;fill-rule:evenodd;stroke:rgb(0, 0, 0);stroke-width:3.0;" d="M 550.026, 557.687 L 530.725, 560.945 L 452.858, 433.09 L 463.528, 414.236 L 479.243, 396.365 z "/>
<path style="fill:rgb(243, 9, 10);fill-opacity:1.0;fill-rule:evenodd;stroke:rgb(0, 0, 0);stroke-width:3.0;" d="M 374.911, 513.092 L 365.4, 528.245 L 363.767, 518.136 L 366.339, 507.354 L 369.57, 506.254 z "/>
<path style="fill:rgb(243, 9, 10);fill-opacity:1.0;fill-rule:evenodd;stroke:rgb(0, 0, 0);stroke-width:3.0;" d="M 727.24, 309.729 L 723.394, 333.635 L 713.266, 315.337 L 719.289, 304.945 z "/>
<path style="fill:rgb(243, 9, 10);fill-opacity:1.0;fill-rule:evenodd;stroke:rgb(0, 0, 0);stroke-width:3.0;" d="M 167.406, 61.5025 L 133.517, 95.6961 L 128.543, 52.7735 z "/>
<path style="fill:rgb(243, 9, 10);fill-opacity:1.0;fill-rule:evenodd;stroke:rgb(0, 0, 0);stroke-width:3.0;" d="M 418.238, 283.87 L 415.397, 290.001 L 399.346, 271.566 L 398.148, 259.83 L 408.337, 254.636 z "/>
<path style="fill:rgb(243, 9, 10);fill-opacity:1.0;fill-rule:evenodd;stroke:rgb(0, 0, 0);stroke-width:3.0;" d="M 255.683, 360.439 L 260.797, 366.987 L 256.569, 383.94 L 255.733, 383.846 L 243.151, 368.204 L 250.44, 359.564 z "/>
<path style="fill:rgb(243, 9, 10);fill-opacity:1.0;fill-rule:evenodd;stroke:rgb(0, 0, 0);stroke-width:3.0;" d="M 241.863, 406.836 L 218.935, 405.442 L 217.937, 399.959 L 227.848, 397.563 L 233.618, 397.138 z "/>
<path style="fill:rgb(243, 9, 10);fill-opacity:1.0;fill-rule:evenodd;stroke:rgb(0, 0, 0);stroke-width:3.0;" d="M 365.715, 137.617 L 284.981, 139.452 L 337.698, 102.296 L 350.016, 101.839 z "/>
<path style="fill:rgb(146, 237, 55);fill-opacity:1.0;fill-rule:evenodd;stroke:rgb(0, 0, 0);stroke-width:3.0;" d="M 388.251, 389.226 L 367.102, 396.931 L 381.153, 379.133 z "/>
<path style="fill:rgb(146, 237, 55);fill-opacity:1.0;fill-rule:evenodd;stroke:rgb(0, 0, 0);stroke-width:3.0;" d="M 740.592, 422.066 L 704.039, 366.104 L 655.038, 288.279 L 660.761, 283.012 z "/>
<path style="fill:rgb(146, 237, 55);fill-opacity:1.0;fill-rule:evenodd;stroke:rgb(0, 0, 0);stroke-width:3.0;" d="M 233.97, 87.7772 L 214.432, 85.7308 L 225.048, 65.6746 L 242.908, 54.5792 z "/>
<path style="fill:rgb(240, 1, 57);fill-opacity:1.0;fill-rule:evenodd;stroke:rgb(0, 0, 0);stroke-width:3.0;" d="M 303.455, 357.781 L 268.131, 376.377 L 266.243, 373.96 L 290.228, 357.374 z "/>
<path style="fill:rgb(240, 1, 57);fill-opacity:1.0;fill-rule:evenodd;stroke:rgb(0, 0, 0);stroke-width:3.0;" d="M 376.046, 417.281 L 328.247, 453.346 L 328.133, 453.2 L 352.756, 402.157 L 376.752, 393.415 z "/>
<path style="fill:rgb(240, 1, 57);fill-opacity:1.0;fill-rule:evenodd;stroke:rgb(0, 0, 0);stroke-width:3.0;" d="M 361.927, 483.695 L 347.793, 470.744 L 375.296, 437.243 L 379.319, 435.358 L 410.105, 425.177 z "/>
<path style="fill:rgb(255, 34, 37);fill-opacity:1.0;fill-rule:evenodd;stroke:rgb(0, 0, 0);stroke-width:3.0;" d="M 25.0964, 130.834 L 22.5614, 132.134 L 11.4464, 134.481 L 14.9363, 116.42 z "/>
<path style="fill:rgb(255, 34, 37);fill-opacity:1.0;fill-rule:evenodd;stroke:rgb(0, 0, 0);stroke-width:3.0;" d="M 371.655, 99.924 L 363.493, 132.554 L 347.835, 96.8663 L 348.416, 87.9159 z "/>
<path style="fill:rgb(255, 34, 37);fill-opacity:1.0;fill-rule:evenodd;stroke:rgb(0, 0, 0);stroke-width:3.0;" d="M 105.486, 198.322 L 103.475, 216.863 L 82.041, 218.383 L 87.8898, 188.939 z "/>
<path style="fill:rgb(255, 34, 37);fill-opacity:1.0;fill-rule:evenodd;stroke:rgb(0, 0, 0);stroke-width:3.0;" d="M 299.284, 301.667 L 226.357, 388.111 L 94.4269, 300.289 L 105.486, 198.322 z "/>
<path style="fill:rgb(255, 83, 202);fill-opacity:1.0;fill-rule:evenodd;stroke:rgb(0, 0, 0);stroke-width:3.0;" d="M 333.821, 309.865 L 328.606, 323.797 L 300.296, 319.317 L 292.691, 309.482 L 301.088, 299.529 z "/>
<path style="fill:rgb(255, 83, 202);fill-opacity:1.0;fill-rule:evenodd;stroke:rgb(0, 0, 0);stroke-width:3.0;" d="M 387.108, 312.119 L 376.076, 317.203 L 362.01, 310.507 L 375.101, 291.218 L 377.149, 291.084 z "/>
<path style="fill:rgb(255, 83, 202);fill-opacity:1.0;fill-rule:evenodd;stroke:rgb(0, 0, 0);stroke-width:3.0;" d="M 318.009, 405.931 L 307.308, 426.536 L 289.637, 403.912 L 305.804, 390.442 z "/>
<path style="fill:rgb(255, 83, 202);fill-opacity:1.0;fill-rule:evenodd;stroke:rgb(0, 0, 0);stroke-width:3.0;" d="M 391.117, 292.538 L 401.108, 299.796 L 396.928, 306.734 L 385.788, 309.331 L 377.149, 291.084 L 385.682, 290.525 z "/>
<path style="fill:rgb(255, 83, 202);fill-opacity:1.0;fill-rule:evenodd;stroke:rgb(0, 0, 0);stroke-width:3.0;" d="M 338.09, 465.949 L 300.782, 487.162 L 311.378, 458.221 L 324.859, 449.008 z "/>
<path style="fill:rgb(255, 83, 202);fill-opacity:1.0;fill-rule:evenodd;stroke:rgb(0, 0, 0);stroke-width:3.0;" d="M 155.318, 100.89 L 152.228, 101.058 L 152.513, 93.0019 L 175.107, 79.8269 z "/>
<path style="fill:rgb(255, 83, 202);fill-opacity:1.0;fill-rule:evenodd;stroke:rgb(0, 0, 0);stroke-width:3.0;" d="M 255.547, 383.615 L 237.782, 379.323 L 235.764, 376.96 L 243.151, 368.204 z "/>
<path style="fill:rgb(255, 83, 202);fill-opacity:1.0;fill-rule:evenodd;stroke:rgb(0, 0, 0);stroke-width:3.0;" d="M 380.379, 344.897 L 371.763, 362.756 L 360.48, 363.979 L 362.844, 350.401 L 377.346, 340.518 z "/>
<path style="fill:rgb(228, 197, 197);fill-opacity:1.0;fill-rule:evenodd;stroke:rgb(0, 0, 0);stroke-width:3.0;" d="M 434.759, 322.429 L 431.138, 323.66 L 406.114, 324.905 L 417.379, 300.5 z "/>
<path style="fill:rgb(255, 3, 10);fill-opacity:1.0;fill-rule:evenodd;stroke:rgb(0, 0, 0);stroke-width:3.0;" d="M 75.4173, 88.8655 L 74.3756, 92.1372 L 59.4174, 107.772 L 60.5681, 98.1868 L 72.7635, 87.5596 z "/>
<path style="fill:rgb(255, 3, 10);fill-opacity:1.0;fill-rule:evenodd;stroke:rgb(0, 0, 0);stroke-width:3.0;" d="M 342.055, 364.657 L 360.379, 381.724 L 356.964, 382.74 L 333.924, 363.545 z "/>
<path style="fill:rgb(255, 3, 10);fill-opacity:1.0;fill-rule:evenodd;stroke:rgb(0, 0, 0);stroke-width:3.0;" d="M 340.223, 79.5177 L 319.552, 87.5856 L 303.693, 34.0279 L 311.916, 15.0025 z "/>
<path style="fill:rgb(252, 0, 12);fill-opacity:1.0;fill-rule:evenodd;stroke:rgb(0, 0, 0);stroke-width:3.0;" d="M 482.389, 488.754 L 478.598, 489.359 L 465.33, 471.939 L 459.311, 459.062 L 461.075, 449.479 z "/>
<path style="fill:rgb(243, 215, 8);fill-opacity:1.0;fill-rule:evenodd;stroke:rgb(0, 0, 0);stroke-width:3.0;" d="M 106.835, 127.25 L 102.653, 143.595 L 71.4246, 144.305 L 86.338, 124.507 z "/>
<path style="fill:rgb(255, 25, 15);fill-opacity:1.0;fill-rule:evenodd;stroke:rgb(0, 0, 0);stroke-width:3.0;" d="M 289.363, 340.154 L 286.026, 357.244 L 253.248, 356.236 L 270.847, 335.375 z "/>
<path style="fill:rgb(255, 25, 15);fill-opacity:1.0;fill-rule:evenodd;stroke:rgb(0, 0, 0);stroke-width:3.0;" d="M 258.425, 587.396 L 248.271, 587.553 L 251.889, 581.256 L 263.568, 566.729 L 268.836, 565.694 z "/>
<path style="fill:rgb(255, 25, 15);fill-opacity:1.0;fill-rule:evenodd;stroke:rgb(0, 0, 0);stroke-width:3.0;" d="M 177.665, 57.3609 L 158.113, 50.3391 L 171.166, 28.1536 L 186.598, 27.9688 z "/>
<path style="fill:rgb(255, 25, 15);fill-opacity:1.0;fill-rule:evenodd;stroke:rgb(0, 0, 0);stroke-width:3.0;" d="M 777.222, 416.262 L 778.853, 423.097 L 775.013, 420.263 L 767.827, 402.375 L 769.873, 392.163 z "/>
<path style="fill:rgb(255, 25, 15);fill-opacity:1.0;fill-rule:evenodd;stroke:rgb(0, 0, 0);stroke-width:3.0;" d="M 219.012, 249.236 L 182.364, 236.86 L 233.722, 234.846 z "/>
<path style="fill:rgb(255, 25, 15);fill-opacity:1.0;fill-rule:evenodd;stroke:rgb(0, 0, 0);stroke-width:3.0;" d="M 86.338, 124.507 L 71.4246, 144.305 L 41.6277, 144.982 L 27.45, 116.627 z "/>
<path style="fill:rgb(255, 255, 21);fill-opacity:1.0;fill-rule:evenodd;stroke:rgb(0, 0, 0);stroke-width:3.0;" d="M 210.573, 93.0213 L 207.919, 98.0363 L 198.49, 98.5479 L 198.351, 75.8041 z "/>
<path style="fill:rgb(255, 255, 21);fill-opacity:1.0;fill-rule:evenodd;stroke:rgb(0, 0, 0);stroke-width:3.0;" d="M 361.921, 383.159 L 353.45, 375.269 L 362.589, 363.75 L 371.763, 362.756 z "/>
<path style="fill:rgb(20, 59, 231);fill-opacity:1.0;fill-rule:evenodd;stroke:rgb(0, 0, 0);stroke-width:3.0;" d="M 443.96, 334.039 L 442.502, 341.96 L 408.175, 332.483 L 393.567, 325.529 L 435.561, 323.44 z "/>
<path style="fill:rgb(20, 59, 231);fill-opacity:1.0;fill-rule:evenodd;stroke:rgb(0, 0, 0);stroke-width:3.0;" d="M 348.146, 97.5765 L 331.497, 92.4016 L 324.285, 85.7383 L 340.223, 79.5177 z "/>
<path style="fill:rgb(20, 59, 231);fill-opacity:1.0;fill-rule:evenodd;stroke:rgb(0, 0, 0);stroke-width:3.0;" d="M 219.913, 441.198 L 202.087, 497.76 L 166.359, 536.93 L 112.904, 522.593 L 185.941, 436.018 z "/>
<path style="fill:rgb(20, 59, 231);fill-opacity:1.0;fill-rule:evenodd;stroke:rgb(0, 0, 0);stroke-width:3.0;" d="M 731.112, 285.659 L 727.24, 309.729 L 701.636, 294.323 L 683.114, 260.858 z "/>
<path style="fill:rgb(20, 59, 231);fill-opacity:1.0;fill-rule:evenodd;stroke:rgb(0, 0, 0);stroke-width:3.0;" d="M 376.781, 524.584 L 376.811, 524.773 L 369.004, 538.911 L 362.323, 537.257 L 361.143, 535.028 L 369.381, 521.903 z "/>
<path style="fill:rgb(20, 59, 231);fill-opacity:1.0;fill-rule:evenodd;stroke:rgb(0, 0, 0);stroke-width:3.0;" d="M 152.228, 101.058 L 126.838, 102.435 L 153.116, 75.9208 z "/>
<path style="fill:rgb(20, 59, 231);fill-opacity:1.0;fill-rule:evenodd;stroke:rgb(0, 0, 0);stroke-width:3.0;" d="M 778.516, 464.72 L 771.953, 473.967 L 757.015, 450.242 z "/>
<path style="fill:rgb(83, 255, 255);fill-opacity:1.0;fill-rule:evenodd;stroke:rgb(0, 0, 0);stroke-width:3.0;" d="M 445.011, 350.017 L 438.797, 367.266 L 435.799, 372.196 L 421.101, 383.286 L 370.834, 364.681 L 390.44, 324.04 z "/>
<path style="fill:rgb(255, 255, 25);fill-opacity:1.0;fill-rule:evenodd;stroke:rgb(0, 0, 0);stroke-width:3.0;" d="M 315.533, 369.186 L 276.899, 376.137 L 311.34, 354.094 z "/>
<path style="fill:rgb(255, 255, 25);fill-opacity:1.0;fill-rule:evenodd;stroke:rgb(0, 0, 0);stroke-width:3.0;" d="M 423.23, 392.864 L 404.592, 423.513 L 356.203, 446.192 L 390.288, 406.535 L 419.325, 384.626 z "/>
<path style="fill:rgb(249, 255, 7);fill-opacity:1.0;fill-rule:evenodd;stroke:rgb(0, 0, 0);stroke-width:3.0;" d="M 633.251, 235.093 L 660.761, 283.012 L 655.038, 288.279 L 615.908, 226.132 z "/>
<path style="fill:rgb(249, 255, 7);fill-opacity:1.0;fill-rule:evenodd;stroke:rgb(0, 0, 0);stroke-width:3.0;" d="M 239.047, 444.116 L 239.211, 457.06 L 224.748, 472.917 L 208.187, 478.404 L 219.913, 441.198 z "/>
<path style="fill:rgb(249, 255, 7);fill-opacity:1.0;fill-rule:evenodd;stroke:rgb(0, 0, 0);stroke-width:3.0;" d="M 33.1204, 117.386 L 27.45, 116.627 L 7.97984, 77.6884 L 11.9515, 69.3048 z "/>
<path style="fill:rgb(255, 0, 13);fill-opacity:1.0;fill-rule:evenodd;stroke:rgb(0, 0, 0);stroke-width:3.0;" d="M 450.458, 391.46 L 453.759, 407.217 L 437.692, 400.36 L 434.675, 395.333 L 439.121, 389.934 z "/>
<path style="fill:rgb(255, 0, 13);fill-opacity:1.0;fill-rule:evenodd;stroke:rgb(0, 0, 0);stroke-width:3.0;" d="M 315.278, 73.1532 L 303.521, 90.3903 L 287.731, 70.9618 L 289.256, 67.4347 L 306.024, 41.8985 z "/>
<path style="fill:rgb(255, 0, 13);fill-opacity:1.0;fill-rule:evenodd;stroke:rgb(0, 0, 0);stroke-width:3.0;" d="M 298.549, 84.2728 L 301.35, 87.7187 L 303.704, 95.0813 L 287.469, 93.3808 L 294.818, 84.1957 z "/>
<path style="fill:rgb(255, 255, 17);fill-opacity:1.0;fill-rule:evenodd;stroke:rgb(0, 0, 0);stroke-width:3.0;" d="M 367.336, 279.059 L 349.363, 304.487 L 329.279, 294.927 L 336.934, 279.908 L 354.552, 272.701 z "/>
<path style="fill:rgb(252, 255, 27);fill-opacity:1.0;fill-rule:evenodd;stroke:rgb(0, 0, 0);stroke-width:3.0;" d="M 381.153, 379.133 L 368.155, 395.596 L 359.74, 387.679 L 362.299, 382.374 L 380.776, 378.597 z "/>
<path style="fill:rgb(252, 255, 27);fill-opacity:1.0;fill-rule:evenodd;stroke:rgb(0, 0, 0);stroke-width:3.0;" d="M 369.55, 314.096 L 375.696, 319.748 L 371.73, 321.836 L 314.306, 303.703 L 310.775, 288.046 L 311.935, 286.671 z "/>
<path style="fill:rgb(252, 255, 27);fill-opacity:1.0;fill-rule:evenodd;stroke:rgb(0, 0, 0);stroke-width:3.0;" d="M 104.858, 47.4537 L 106.254, 53.2307 L 105.531, 54.0375 L 82.1729, 44.9836 L 85.49, 43.1035 z "/>
<path style="fill:rgb(252, 255, 27);fill-opacity:1.0;fill-rule:evenodd;stroke:rgb(0, 0, 0);stroke-width:3.0;" d="M 93.2028, 27.0285 L 105.987, 44.9679 L 106.376, 47.7947 L 78.9588, 41.6366 L 66.9332, 17.5945 z "/>
<path style="fill:rgb(249, 228, 179);fill-opacity:1.0;fill-rule:evenodd;stroke:rgb(0, 0, 0);stroke-width:3.0;" d="M 335.736, 258.458 L 321.645, 275.161 L 316.492, 260.487 L 317.984, 256.654 L 334.771, 253.4 z "/>
<path style="fill:rgb(64, 255, 255);fill-opacity:1.0;fill-rule:evenodd;stroke:rgb(0, 0, 0);stroke-width:3.0;" d="M 390.337, 193.736 L 359.827, 229.901 L 178.071, 237.029 L 150.038, 222.08 L 283.687, 139.481 L 365.715, 137.617 z "/>
<path style="fill:rgb(15, 255, 255);fill-opacity:1.0;fill-rule:evenodd;stroke:rgb(0, 0, 0);stroke-width:3.0;" d="M 771.204, 306.375 L 785.572, 313.799 L 783.092, 326.177 L 744.427, 295.946 z "/>
<path style="fill:rgb(15, 255, 255);fill-opacity:1.0;fill-rule:evenodd;stroke:rgb(0, 0, 0);stroke-width:3.0;" d="M 237.386, 140.533 L 190.623, 141.596 L 192.128, 127.868 L 203.016, 107.298 L 235.779, 106.081 z "/>
<path style="fill:rgb(255, 152, 33);fill-opacity:1.0;fill-rule:evenodd;stroke:rgb(0, 0, 0);stroke-width:3.0;" d="M 290.548, 562.584 L 281.932, 576.04 L 279.523, 564.387 L 283.212, 555.223 z "/>
<path style="fill:rgb(255, 152, 33);fill-opacity:1.0;fill-rule:evenodd;stroke:rgb(0, 0, 0);stroke-width:3.0;" d="M 788.881, 422.589 L 790.975, 432.042 L 778.853, 423.097 L 775.716, 409.946 z "/>
<path style="fill:rgb(255, 152, 33);fill-opacity:1.0;fill-rule:evenodd;stroke:rgb(0, 0, 0);stroke-width:3.0;" d="M 449.176, 327.837 L 437.982, 322.257 L 431.576, 302.281 L 431.581, 300.293 L 434.837, 295.156 z "/>
<path style="fill:rgb(255, 249, 14);fill-opacity:1.0;fill-rule:evenodd;stroke:rgb(0, 0, 0);stroke-width:3.0;" d="M 283.003, 535.723 L 241.294, 549.921 L 315.323, 447.445 z "/>
<path style="fill:rgb(255, 249, 14);fill-opacity:1.0;fill-rule:evenodd;stroke:rgb(0, 0, 0);stroke-width:3.0;" d="M 345.834, 313.659 L 349.187, 327.054 L 328.606, 323.797 L 333.821, 309.865 z "/>
<path style="fill:rgb(255, 249, 14);fill-opacity:1.0;fill-rule:evenodd;stroke:rgb(0, 0, 0);stroke-width:3.0;" d="M 40.0668, 145.017 L 21.9145, 145.43 L 10.5626, 139.055 L 10.7265, 138.207 L 32.6084, 126.979 z "/>
<path style="fill:rgb(110, 27, 163);fill-opacity:1.0;fill-rule:evenodd;stroke:rgb(0, 0, 0);stroke-width:3.0;" d="M 222.628, 70.2467 L 221.178, 72.9872 L 202.563, 66.3021 L 195.209, 48.538 L 201.333, 39.0627 z "/>
<path style="fill:rgb(110, 27, 163);fill-opacity:1.0;fill-rule:evenodd;stroke:rgb(0, 0, 0);stroke-width:3.0;" d="M 333.58, 434.137 L 324.999, 449.188 L 307.308, 426.536 L 323.047, 396.23 z "/>
<path style="fill:rgb(223, 212, 182);fill-opacity:1.0;fill-rule:evenodd;stroke:rgb(0, 0, 0);stroke-width:3.0;" d="M 502.199, 520.619 L 491.939, 524.058 L 488.038, 520.516 L 482.798, 509.306 L 491.69, 507.221 z "/>
<path style="fill:rgb(223, 212, 182);fill-opacity:1.0;fill-rule:evenodd;stroke:rgb(0, 0, 0);stroke-width:3.0;" d="M 226.758, 251.852 L 213.338, 255.835 L 193.551, 245.283 L 195.875, 241.423 z "/>
<path style="fill:rgb(223, 212, 182);fill-opacity:1.0;fill-rule:evenodd;stroke:rgb(0, 0, 0);stroke-width:3.0;" d="M 420.009, 124.909 L 444.147, 199.433 L 386.128, 184.142 L 363.493, 132.554 L 371.655, 99.924 z "/>
<path style="fill:rgb(223, 212, 182);fill-opacity:1.0;fill-rule:evenodd;stroke:rgb(0, 0, 0);stroke-width:3.0;" d="M 136.626, 42.6227 L 116.995, 35.5726 L 111.371, 29.0288 L 111.384, 28.8693 L 131.953, 28.6231 z "/>
<path style="fill:rgb(255, 207, 10);fill-opacity:1.0;fill-rule:evenodd;stroke:rgb(0, 0, 0);stroke-width:3.0;" d="M 319.541, 269.171 L 321.645, 275.161 L 309.665, 289.361 L 295.154, 265.453 z "/>
<path style="fill:rgb(255, 207, 10);fill-opacity:1.0;fill-rule:evenodd;stroke:rgb(0, 0, 0);stroke-width:3.0;" d="M 474.047, 490.586 L 436.813, 474.841 L 454.491, 448.751 z "/>
<path style="fill:rgb(255, 207, 10);fill-opacity:1.0;fill-rule:evenodd;stroke:rgb(0, 0, 0);stroke-width:3.0;" d="M 313.508, 321.408 L 324.339, 328.389 L 318.667, 347.716 L 270.847, 335.375 L 286.267, 317.096 z "/>
<path style="fill:rgb(255, 234, 14);fill-opacity:1.0;fill-rule:evenodd;stroke:rgb(0, 0, 0);stroke-width:3.0;" d="M 303.064, 382.182 L 300.783, 385.758 L 276.128, 376.631 L 276.899, 376.137 L 303.112, 371.421 z "/>
<path style="fill:rgb(255, 234, 14);fill-opacity:1.0;fill-rule:evenodd;stroke:rgb(0, 0, 0);stroke-width:3.0;" d="M 250.656, 582.789 L 228.432, 567.726 L 229.792, 565.844 L 261.618, 553.517 L 275.377, 552.041 z "/>
<path style="fill:rgb(255, 6, 44);fill-opacity:1.0;fill-rule:evenodd;stroke:rgb(0, 0, 0);stroke-width:3.0;" d="M 302.287, 298.108 L 299.284, 301.667 L 242.362, 271.313 L 282.797, 263.475 z "/>
<path style="fill:rgb(255, 49, 16);fill-opacity:1.0;fill-rule:evenodd;stroke:rgb(0, 0, 0);stroke-width:3.0;" d="M 407.894, 288.532 L 407.557, 289.091 L 389.499, 290.275 L 374.891, 276.836 L 385.859, 260.728 z "/>
<path style="fill:rgb(194, 246, 62);fill-opacity:1.0;fill-rule:evenodd;stroke:rgb(0, 0, 0);stroke-width:3.0;" d="M 393.644, 373.123 L 399.832, 375.413 L 382.472, 381.009 L 373.455, 368.187 z "/>
<path style="fill:rgb(36, 17, 246);fill-opacity:1.0;fill-rule:evenodd;stroke:rgb(0, 0, 0);stroke-width:3.0;" d="M 561.551, 583.955 L 555.455, 589.074 L 548.897, 573.344 L 556.078, 571.481 z "/>
<path style="fill:rgb(36, 17, 246);fill-opacity:1.0;fill-rule:evenodd;stroke:rgb(0, 0, 0);stroke-width:3.0;" d="M 386.058, 530.858 L 388.072, 539.95 L 379.393, 540.881 L 376.218, 521.074 z "/>
<path style="fill:rgb(36, 17, 246);fill-opacity:1.0;fill-rule:evenodd;stroke:rgb(0, 0, 0);stroke-width:3.0;" d="M 268.358, 51.7496 L 274.802, 92.0541 L 233.97, 87.7772 L 242.908, 54.5792 L 255.984, 46.4559 z "/>
<path style="fill:rgb(36, 17, 246);fill-opacity:1.0;fill-rule:evenodd;stroke:rgb(0, 0, 0);stroke-width:3.0;" d="M 139.219, 120.262 L 128.678, 134.467 L 122.562, 129.286 L 111.399, 109.416 L 112.046, 106.89 z "/>
<path style="fill:rgb(66, 100, 255);fill-opacity:1.0;fill-rule:evenodd;stroke:rgb(0, 0, 0);stroke-width:3.0;" d="M 436.644, 410.573 L 417.279, 486.586 L 406.239, 475.393 L 435.181, 407.443 z "/>
<path style="fill:rgb(223, 16, 255);fill-opacity:1.0;fill-rule:evenodd;stroke:rgb(0, 0, 0);stroke-width:3.0;" d="M 380.396, 413.999 L 376.046, 417.281 L 376.752, 393.415 L 398.962, 385.323 z "/>
<path style="fill:rgb(223, 16, 255);fill-opacity:1.0;fill-rule:evenodd;stroke:rgb(0, 0, 0);stroke-width:3.0;" d="M 213.438, 439.358 L 213.946, 439.937 L 187.334, 434.367 L 195.466, 424.728 z "/>
<path style="fill:rgb(212, 0, 10);fill-opacity:1.0;fill-rule:evenodd;stroke:rgb(0, 0, 0);stroke-width:3.0;" d="M 432.57, 481.103 L 419.452, 500.463 L 414.682, 496.778 L 425.507, 454.287 z "/>
<path style="fill:rgb(255, 76, 8);fill-opacity:1.0;fill-rule:evenodd;stroke:rgb(0, 0, 0);stroke-width:3.0;" d="M 319.541, 269.171 L 282.855, 263.578 L 282.797, 263.475 L 315.326, 257.169 z "/>
<path style="fill:rgb(50, 2, 255);fill-opacity:1.0;fill-rule:evenodd;stroke:rgb(0, 0, 0);stroke-width:3.0;" d="M 292.54, 21.6925 L 292.955, 23.4874 L 282.868, 29.7539 L 236.957, 43.1772 L 250.459, 17.6681 z "/>
<path style="fill:rgb(146, 23, 187);fill-opacity:1.0;fill-rule:evenodd;stroke:rgb(0, 0, 0);stroke-width:3.0;" d="M 361.921, 383.159 L 357.962, 391.365 L 333.58, 434.137 L 322.177, 393.098 L 360.379, 381.724 z "/>
<path style="fill:rgb(255, 34, 56);fill-opacity:1.0;fill-rule:evenodd;stroke:rgb(0, 0, 0);stroke-width:3.0;" d="M 137.993, 18.7785 L 135.414, 28.5816 L 98.75, 29.0206 L 90.5777, 26.0857 L 89.7941, 17.5062 z "/>
<path style="fill:rgb(255, 34, 56);fill-opacity:1.0;fill-rule:evenodd;stroke:rgb(0, 0, 0);stroke-width:3.0;" d="M 161.724, 123.812 L 154.39, 127.728 L 137.49, 119.412 L 145.054, 115.136 z "/>
<path style="fill:rgb(255, 16, 8);fill-opacity:1.0;fill-rule:evenodd;stroke:rgb(0, 0, 0);stroke-width:3.0;" d="M 415.397, 290.001 L 413.058, 295.048 L 400.07, 278.659 L 399.346, 271.566 z "/>
<path style="fill:rgb(255, 16, 8);fill-opacity:1.0;fill-rule:evenodd;stroke:rgb(0, 0, 0);stroke-width:3.0;" d="M 207.098, 99.587 L 161.724, 123.812 L 145.054, 115.136 L 171.839, 99.9938 L 207.919, 98.0363 z "/>
<path style="fill:rgb(255, 66, 220);fill-opacity:1.0;fill-rule:evenodd;stroke:rgb(0, 0, 0);stroke-width:3.0;" d="M 493.423, 499.698 L 503.848, 516.815 L 503.167, 517.122 L 481.887, 497.341 L 482.667, 494.82 z "/>
<path style="fill:rgb(255, 66, 220);fill-opacity:1.0;fill-rule:evenodd;stroke:rgb(0, 0, 0);stroke-width:3.0;" d="M 365.257, 527.359 L 341.73, 544.922 L 236.771, 556.183 L 241.294, 549.921 L 362.251, 508.745 z "/>
<path style="fill:rgb(62, 15, 226);fill-opacity:1.0;fill-rule:evenodd;stroke:rgb(0, 0, 0);stroke-width:3.0;" d="M 161.651, 44.3255 L 136.523, 36.7936 L 136.332, 32.2648 L 140.811, 28.517 L 171.166, 28.1536 z "/>
<path style="fill:rgb(62, 15, 226);fill-opacity:1.0;fill-rule:evenodd;stroke:rgb(0, 0, 0);stroke-width:3.0;" d="M 334.558, 364.073 L 321.335, 390.065 L 311.34, 354.094 L 315.435, 351.474 L 317.886, 350.183 z "/>
<path style="fill:rgb(62, 15, 226);fill-opacity:1.0;fill-rule:evenodd;stroke:rgb(0, 0, 0);stroke-width:3.0;" d="M 300.14, 42.2496 L 291.716, 61.7421 L 255.984, 46.4559 L 273.833, 35.3672 z "/>
<path style="fill:rgb(62, 15, 226);fill-opacity:1.0;fill-rule:evenodd;stroke:rgb(0, 0, 0);stroke-width:3.0;" d="M 358.899, 328.591 L 340.049, 338.515 L 339.86, 338.393 L 343.389, 326.137 z "/>
<path style="fill:rgb(62, 15, 226);fill-opacity:1.0;fill-rule:evenodd;stroke:rgb(0, 0, 0);stroke-width:3.0;" d="M 381.131, 219.412 L 368.127, 232.25 L 365.245, 231.471 L 361.732, 227.643 L 373.292, 213.94 z "/>
<path style="fill:rgb(255, 43, 255);fill-opacity:1.0;fill-rule:evenodd;stroke:rgb(0, 0, 0);stroke-width:3.0;" d="M 387.952, 214.599 L 376.86, 209.712 L 388.522, 195.888 z "/>
<path style="fill:rgb(255, 43, 255);fill-opacity:1.0;fill-rule:evenodd;stroke:rgb(0, 0, 0);stroke-width:3.0;" d="M 448.252, 327.376 L 454.248, 347.02 L 440.265, 329.376 L 437.982, 322.257 z "/>
<path style="fill:rgb(204, 27, 249);fill-opacity:1.0;fill-rule:evenodd;stroke:rgb(0, 0, 0);stroke-width:3.0;" d="M 291.511, 385.694 L 295.455, 399.064 L 291.822, 402.091 L 288.99, 403.084 L 275.92, 386.35 L 287.23, 385.169 z "/>
<path style="fill:rgb(240, 58, 75);fill-opacity:1.0;fill-rule:evenodd;stroke:rgb(0, 0, 0);stroke-width:3.0;" d="M 429.525, 295.884 L 440.265, 329.376 L 433.031, 320.249 L 425.354, 304.88 L 421.916, 294.729 z "/>
<path style="fill:rgb(64, 103, 252);fill-opacity:1.0;fill-rule:evenodd;stroke:rgb(0, 0, 0);stroke-width:3.0;" d="M 201.663, 38.5517 L 195.209, 48.538 L 190.055, 36.0862 L 200.476, 30.6695 z "/>
<path style="fill:rgb(249, 79, 7);fill-opacity:1.0;fill-rule:evenodd;stroke:rgb(0, 0, 0);stroke-width:3.0;" d="M 462.577, 358.379 L 463.454, 360.378 L 451.198, 375.264 L 445.035, 376.267 L 440.759, 367.041 L 456.713, 355.588 z "/>
<path style="fill:rgb(249, 79, 7);fill-opacity:1.0;fill-rule:evenodd;stroke:rgb(0, 0, 0);stroke-width:3.0;" d="M 68.665, 21.0569 L 95.9992, 75.7043 L 75.708, 89.0085 L 18.7329, 60.9711 L 30.9533, 20.3833 z "/>
<path style="fill:rgb(197, 60, 60);fill-opacity:1.0;fill-rule:evenodd;stroke:rgb(0, 0, 0);stroke-width:3.0;" d="M 271.286, 139.763 L 237.386, 140.533 L 236.278, 116.781 z "/>
<path style="fill:rgb(246, 0, 51);fill-opacity:1.0;fill-rule:evenodd;stroke:rgb(0, 0, 0);stroke-width:3.0;" d="M 350.408, 481.72 L 355.867, 510.919 L 283.003, 535.723 L 300.782, 487.162 L 338.09, 465.949 z "/>
<path style="fill:rgb(255, 252, 9);fill-opacity:1.0;fill-rule:evenodd;stroke:rgb(0, 0, 0);stroke-width:3.0;" d="M 61.0177, 15.4701 L 47.6233, 20.681 L 30.9533, 20.3833 L 35.2219, 6.20621 z "/>
<path style="fill:rgb(255, 252, 9);fill-opacity:1.0;fill-rule:evenodd;stroke:rgb(0, 0, 0);stroke-width:3.0;" d="M 222.628, 70.2467 L 201.333, 39.0627 L 208.673, 27.7045 L 245.379, 27.265 z "/>
<path style="fill:rgb(255, 252, 9);fill-opacity:1.0;fill-rule:evenodd;stroke:rgb(0, 0, 0);stroke-width:3.0;" d="M 48.9773, 220.728 L 25.8808, 222.367 L 29.4136, 212.447 z "/>
<path style="fill:rgb(255, 252, 9);fill-opacity:1.0;fill-rule:evenodd;stroke:rgb(0, 0, 0);stroke-width:3.0;" d="M 332.622, 244.303 L 324.519, 255.387 L 310.704, 258.065 L 324.176, 231.299 L 336.737, 230.807 z "/>
<path style="fill:rgb(98, 234, 255);fill-opacity:1.0;fill-rule:evenodd;stroke:rgb(0, 0, 0);stroke-width:3.0;" d="M 373.412, 267.317 L 367.64, 275.668 L 357.562, 272.444 L 343.153, 266.358 L 363.327, 258.123 z "/>
<path style="fill:rgb(98, 234, 255);fill-opacity:1.0;fill-rule:evenodd;stroke:rgb(0, 0, 0);stroke-width:3.0;" d="M 454.491, 448.751 L 432.57, 481.103 L 425.507, 454.287 L 426.114, 451.905 L 450.574, 440.372 z "/>
<path style="fill:rgb(215, 161, 192);fill-opacity:1.0;fill-rule:evenodd;stroke:rgb(0, 0, 0);stroke-width:3.0;" d="M 731.575, 285.898 L 783.092, 326.177 L 766.129, 410.85 L 723.394, 333.635 L 731.112, 285.659 z "/>
<path style="fill:rgb(189, 60, 231);fill-opacity:1.0;fill-rule:evenodd;stroke:rgb(0, 0, 0);stroke-width:3.0;" d="M 408.337, 254.636 L 398.148, 259.83 L 396.625, 244.916 L 402.248, 236.658 z "/>
<path style="fill:rgb(189, 60, 231);fill-opacity:1.0;fill-rule:evenodd;stroke:rgb(0, 0, 0);stroke-width:3.0;" d="M 241.863, 406.836 L 243.458, 408.713 L 231.036, 442.895 L 214.303, 440.343 L 197.971, 421.759 L 212.087, 405.026 z "/>
<path style="fill:rgb(217, 100, 13);fill-opacity:1.0;fill-rule:evenodd;stroke:rgb(0, 0, 0);stroke-width:3.0;" d="M 175.385, 96.0184 L 162.33, 93.4271 L 182.732, 71.7111 z "/>
<path style="fill:rgb(217, 100, 13);fill-opacity:1.0;fill-rule:evenodd;stroke:rgb(0, 0, 0);stroke-width:3.0;" d="M 255.169, 422.488 L 256.981, 446.851 L 231.036, 442.895 L 243.458, 408.713 z "/>
<path style="fill:rgb(6, 249, 255);fill-opacity:1.0;fill-rule:evenodd;stroke:rgb(0, 0, 0);stroke-width:3.0;" d="M 353.167, 240.689 L 340.817, 263.89 L 332.26, 262.579 L 350.126, 241.401 L 352.334, 239.755 z "/>
<path style="fill:rgb(6, 249, 255);fill-opacity:1.0;fill-rule:evenodd;stroke:rgb(0, 0, 0);stroke-width:3.0;" d="M 278.698, 450.163 L 256.981, 446.851 L 255.169, 422.488 z "/>
<path style="fill:rgb(97, 255, 255);fill-opacity:1.0;fill-rule:evenodd;stroke:rgb(0, 0, 0);stroke-width:3.0;" d="M 339.759, 325.562 L 339.209, 329.815 L 330.255, 332.202 L 320.32, 325.799 L 319.576, 324.939 L 324.86, 323.204 z "/>
<path style="fill:rgb(97, 255, 255);fill-opacity:1.0;fill-rule:evenodd;stroke:rgb(0, 0, 0);stroke-width:3.0;" d="M 104.011, 102.936 L 102.773, 126.706 L 64.9791, 121.649 L 75.4173, 88.8655 z "/>
<path style="fill:rgb(212, 8, 132);fill-opacity:1.0;fill-rule:evenodd;stroke:rgb(0, 0, 0);stroke-width:3.0;" d="M 310.704, 258.065 L 242.362, 271.313 L 230.552, 265.015 L 231.177, 261.963 L 316.164, 231.613 L 324.176, 231.299 z "/>
<path style="fill:rgb(212, 8, 132);fill-opacity:1.0;fill-rule:evenodd;stroke:rgb(0, 0, 0);stroke-width:3.0;" d="M 343.542, 249.205 L 334.791, 246.226 L 340.479, 230.66 L 359.827, 229.901 z "/>
<path style="fill:rgb(255, 228, 15);fill-opacity:1.0;fill-rule:evenodd;stroke:rgb(0, 0, 0);stroke-width:3.0;" d="M 148.014, 54.467 L 140.194, 55.3905 L 126.177, 52.2422 L 132.132, 45.3087 z "/>
<path style="fill:rgb(255, 228, 15);fill-opacity:1.0;fill-rule:evenodd;stroke:rgb(0, 0, 0);stroke-width:3.0;" d="M 129.12, 134.841 L 114.099, 141.271 L 107.787, 123.533 L 109.209, 117.976 z "/>
<path style="fill:rgb(255, 231, 19);fill-opacity:1.0;fill-rule:evenodd;stroke:rgb(0, 0, 0);stroke-width:3.0;" d="M 349.139, 99.8403 L 350.016, 101.839 L 203.016, 107.298 L 207.406, 99.0047 L 284.995, 93.1217 z "/>
<path style="fill:rgb(255, 103, 17);fill-opacity:1.0;fill-rule:evenodd;stroke:rgb(0, 0, 0);stroke-width:3.0;" d="M 284.995, 93.1217 L 207.406, 99.0047 L 214.432, 85.7308 z "/>
<path style="fill:rgb(223, 18, 255);fill-opacity:1.0;fill-rule:evenodd;stroke:rgb(0, 0, 0);stroke-width:3.0;" d="M 57.8657, 120.697 L 37.8148, 118.014 L 60.5681, 98.1868 z "/>
<path style="fill:rgb(234, 255, 20);fill-opacity:1.0;fill-rule:evenodd;stroke:rgb(0, 0, 0);stroke-width:3.0;" d="M 309.92, 454.925 L 236.994, 555.874 L 225.758, 552.861 L 257.884, 446.989 z "/>
<path style="fill:rgb(234, 255, 20);fill-opacity:1.0;fill-rule:evenodd;stroke:rgb(0, 0, 0);stroke-width:3.0;" d="M 377.346, 340.518 L 345.971, 361.899 L 340.372, 359.213 L 376.31, 339.023 z "/>
<path style="fill:rgb(223, 1, 7);fill-opacity:1.0;fill-rule:evenodd;stroke:rgb(0, 0, 0);stroke-width:3.0;" d="M 443.218, 443.841 L 426.114, 451.905 L 434.916, 417.357 z "/>
<path style="fill:rgb(243, 21, 11);fill-opacity:1.0;fill-rule:evenodd;stroke:rgb(0, 0, 0);stroke-width:3.0;" d="M 318.667, 347.716 L 317.953, 350.148 L 303.455, 357.781 L 288.438, 357.318 L 302.686, 343.592 z "/>
<path style="fill:rgb(255, 255, 22);fill-opacity:1.0;fill-rule:evenodd;stroke:rgb(0, 0, 0);stroke-width:3.0;" d="M 417.279, 486.586 L 411.279, 510.136 L 377.109, 515.906 L 356.808, 489.913 L 385.813, 454.683 z "/>
<path style="fill:rgb(255, 255, 22);fill-opacity:1.0;fill-rule:evenodd;stroke:rgb(0, 0, 0);stroke-width:3.0;" d="M 292.798, 265.094 L 295.392, 265.846 L 309.665, 289.361 L 302.287, 298.108 L 282.855, 263.578 z "/>
<path style="fill:rgb(255, 255, 22);fill-opacity:1.0;fill-rule:evenodd;stroke:rgb(0, 0, 0);stroke-width:3.0;" d="M 499.071, 548.955 L 499.268, 553.665 L 477.905, 566.864 L 489.878, 537.928 z "/>
<path style="fill:rgb(255, 255, 22);fill-opacity:1.0;fill-rule:evenodd;stroke:rgb(0, 0, 0);stroke-width:3.0;" d="M 149.571, 47.2717 L 152.723, 53.9109 L 148.014, 54.467 L 132.132, 45.3087 L 134.954, 42.0224 z "/>
<path style="fill:rgb(255, 255, 22);fill-opacity:1.0;fill-rule:evenodd;stroke:rgb(0, 0, 0);stroke-width:3.0;" d="M 281.051, 392.919 L 301.974, 419.708 L 262.11, 430.652 L 227.958, 390.481 z "/>
<path style="fill:rgb(255, 51, 11);fill-opacity:1.0;fill-rule:evenodd;stroke:rgb(0, 0, 0);stroke-width:3.0;" d="M 766.129, 410.85 L 758.092, 450.967 L 757.015, 450.242 L 754.213, 445.791 L 742.064, 424.63 L 752.316, 385.892 z "/>
<path style="fill:rgb(255, 187, 9);fill-opacity:1.0;fill-rule:evenodd;stroke:rgb(0, 0, 0);stroke-width:3.0;" d="M 557.296, 593.491 L 531.797, 592.8 L 542.777, 574.932 L 548.897, 573.344 z "/>
<path style="fill:rgb(202, 92, 154);fill-opacity:1.0;fill-rule:evenodd;stroke:rgb(0, 0, 0);stroke-width:3.0;" d="M 271.963, 356.812 L 277.447, 364.347 L 267.248, 373.266 L 266.243, 373.96 L 261.145, 367.432 L 270.009, 356.751 z "/>
<path style="fill:rgb(202, 92, 154);fill-opacity:1.0;fill-rule:evenodd;stroke:rgb(0, 0, 0);stroke-width:3.0;" d="M 221.178, 72.9872 L 210.573, 93.0213 L 202.418, 81.5334 L 197.525, 64.4929 z "/>
<path style="fill:rgb(243, 255, 25);fill-opacity:1.0;fill-rule:evenodd;stroke:rgb(0, 0, 0);stroke-width:3.0;" d="M 161.651, 44.3255 L 158.113, 50.3391 L 136.77, 42.6745 L 136.523, 36.7936 z "/>
<path style="fill:rgb(255, 130, 12);fill-opacity:1.0;fill-rule:evenodd;stroke:rgb(0, 0, 0);stroke-width:3.0;" d="M 414.41, 302.604 L 406.56, 311.795 L 396.814, 312.803 L 394.24, 308.833 L 412.573, 300.384 z "/>
<path style="fill:rgb(255, 130, 12);fill-opacity:1.0;fill-rule:evenodd;stroke:rgb(0, 0, 0);stroke-width:3.0;" d="M 615.908, 226.132 L 629.925, 248.394 L 559.114, 229.732 L 599.475, 217.641 z "/>
<path style="fill:rgb(9, 72, 255);fill-opacity:1.0;fill-rule:evenodd;stroke:rgb(0, 0, 0);stroke-width:3.0;" d="M 95.0302, 5.35783 L 102.112, 17.8314 L 89.7941, 17.5062 L 88.6808, 5.31627 z "/>
<path style="fill:rgb(9, 72, 255);fill-opacity:1.0;fill-rule:evenodd;stroke:rgb(0, 0, 0);stroke-width:3.0;" d="M 321.131, 389.332 L 323.047, 396.23 L 318.009, 405.931 L 305.804, 390.442 L 308.934, 387.834 z "/>
<path style="fill:rgb(8, 74, 255);fill-opacity:1.0;fill-rule:evenodd;stroke:rgb(0, 0, 0);stroke-width:3.0;" d="M 389.499, 290.275 L 368.021, 291.682 L 376.239, 283.448 L 379.381, 280.967 z "/>
<path style="fill:rgb(237, 249, 7);fill-opacity:1.0;fill-rule:evenodd;stroke:rgb(0, 0, 0);stroke-width:3.0;" d="M 394.809, 321.677 L 381.07, 319.58 L 376.627, 317.465 L 394.538, 310.847 z "/>
<path style="fill:rgb(255, 100, 197);fill-opacity:1.0;fill-rule:evenodd;stroke:rgb(0, 0, 0);stroke-width:3.0;" d="M 202.563, 66.3021 L 177.665, 57.3609 L 186.598, 27.9688 L 186.694, 27.9677 z "/>
<path style="fill:rgb(255, 100, 197);fill-opacity:1.0;fill-rule:evenodd;stroke:rgb(0, 0, 0);stroke-width:3.0;" d="M 376.553, 252.725 L 342.409, 266.661 L 340.477, 265.7 L 348.716, 259.77 L 374.171, 248.32 z "/>
<path style="fill:rgb(140, 255, 255);fill-opacity:1.0;fill-rule:evenodd;stroke:rgb(0, 0, 0);stroke-width:3.0;" d="M 342.055, 364.657 L 333.924, 363.545 L 317.886, 350.183 L 323.398, 347.281 z "/>
<path style="fill:rgb(140, 255, 255);fill-opacity:1.0;fill-rule:evenodd;stroke:rgb(0, 0, 0);stroke-width:3.0;" d="M 791.126, 432.153 L 790.507, 438.465 L 764.424, 419.358 L 765.63, 413.339 z "/>
<path style="fill:rgb(197, 255, 182);fill-opacity:1.0;fill-rule:evenodd;stroke:rgb(0, 0, 0);stroke-width:3.0;" d="M 420.328, 267.199 L 420.301, 267.246 L 413.721, 270.533 L 408.381, 254.766 L 416.125, 254.091 z "/>
<path style="fill:rgb(197, 255, 182);fill-opacity:1.0;fill-rule:evenodd;stroke:rgb(0, 0, 0);stroke-width:3.0;" d="M 410.304, 513.964 L 394.179, 537.761 L 377.109, 515.906 L 411.279, 510.136 z "/>
<path style="fill:rgb(197, 255, 182);fill-opacity:1.0;fill-rule:evenodd;stroke:rgb(0, 0, 0);stroke-width:3.0;" d="M 448.012, 434.892 L 441.156, 437.263 L 435.79, 420.143 L 440.655, 419.154 z "/>
<path style="fill:rgb(255, 231, 7);fill-opacity:1.0;fill-rule:evenodd;stroke:rgb(0, 0, 0);stroke-width:3.0;" d="M 64.9791, 121.649 L 57.8657, 120.697 L 59.4174, 107.772 L 74.3756, 92.1372 z "/>
<path style="fill:rgb(67, 2, 255);fill-opacity:1.0;fill-rule:evenodd;stroke:rgb(0, 0, 0);stroke-width:3.0;" d="M 105.531, 54.0375 L 92.4583, 68.6252 L 80.2626, 44.2431 z "/>
<path style="fill:rgb(246, 220, 146);fill-opacity:1.0;fill-rule:evenodd;stroke:rgb(0, 0, 0);stroke-width:3.0;" d="M 398.153, 259.879 L 397.486, 262.91 L 386.686, 261.772 L 385.859, 260.728 L 396.625, 244.916 z "/>
<path style="fill:rgb(246, 220, 146);fill-opacity:1.0;fill-rule:evenodd;stroke:rgb(0, 0, 0);stroke-width:3.0;" d="M 599.475, 217.641 L 559.114, 229.732 L 444.147, 199.433 L 420.009, 124.909 z "/>
<path style="fill:rgb(246, 220, 146);fill-opacity:1.0;fill-rule:evenodd;stroke:rgb(0, 0, 0);stroke-width:3.0;" d="M 487.66, 519.707 L 491.065, 526.992 L 490.497, 536.43 L 481.825, 557.388 L 398.051, 532.047 L 418.073, 502.498 z "/>
<path style="fill:rgb(79, 30, 231);fill-opacity:1.0;fill-rule:evenodd;stroke:rgb(0, 0, 0);stroke-width:3.0;" d="M 368.05, 504.307 L 366.001, 505.826 L 354.708, 504.722 L 350.408, 481.72 z "/>
<path style="fill:rgb(79, 30, 231);fill-opacity:1.0;fill-rule:evenodd;stroke:rgb(0, 0, 0);stroke-width:3.0;" d="M 231.177, 261.963 L 236.749, 234.728 L 316.164, 231.613 z "/>
<path style="fill:rgb(119, 7, 255);fill-opacity:1.0;fill-rule:evenodd;stroke:rgb(0, 0, 0);stroke-width:3.0;" d="M 187.856, 61.0207 L 198.351, 75.8041 L 198.391, 82.4053 L 192.117, 84.9975 L 182.757, 59.1894 z "/>
<path style="fill:rgb(119, 7, 255);fill-opacity:1.0;fill-rule:evenodd;stroke:rgb(0, 0, 0);stroke-width:3.0;" d="M 202.087, 497.76 L 208.187, 478.404 L 224.748, 472.917 z "/>
<path style="fill:rgb(246, 2, 23);fill-opacity:1.0;fill-rule:evenodd;stroke:rgb(0, 0, 0);stroke-width:3.0;" d="M 683.114, 260.858 L 697.093, 286.115 L 718.757, 384.032 L 633.251, 235.093 z "/>
<path style="fill:rgb(255, 44, 18);fill-opacity:1.0;fill-rule:evenodd;stroke:rgb(0, 0, 0);stroke-width:3.0;" d="M 230.174, 62.4901 L 228.588, 58.9874 L 233.175, 50.3206 L 261.142, 36.1062 L 282.868, 29.7539 z "/>
<path style="fill:rgb(132, 4, 168);fill-opacity:1.0;fill-rule:evenodd;stroke:rgb(0, 0, 0);stroke-width:3.0;" d="M 296.785, 131.132 L 269.634, 138.679 L 236.278, 116.781 L 235.779, 106.081 L 337.698, 102.296 z "/>
<path style="fill:rgb(192, 255, 49);fill-opacity:1.0;fill-rule:evenodd;stroke:rgb(0, 0, 0);stroke-width:3.0;" d="M 788.881, 422.589 L 775.716, 409.946 L 770.604, 388.514 L 773.611, 373.502 L 777.606, 371.698 z "/>
<path style="fill:rgb(22, 255, 154);fill-opacity:1.0;fill-rule:evenodd;stroke:rgb(0, 0, 0);stroke-width:3.0;" d="M 128.543, 52.7735 L 133.517, 95.6961 L 119.021, 110.323 L 111.452, 106.598 L 92.4583, 68.6252 L 110.329, 48.6826 z "/>
<path style="fill:rgb(45, 240, 255);fill-opacity:1.0;fill-rule:evenodd;stroke:rgb(0, 0, 0);stroke-width:3.0;" d="M 22.4647, 62.8076 L 68.8186, 90.9972 L 37.8148, 118.014 L 33.1204, 117.386 L 5.39195, 54.4061 z "/>
<path style="fill:rgb(45, 240, 255);fill-opacity:1.0;fill-rule:evenodd;stroke:rgb(0, 0, 0);stroke-width:3.0;" d="M 272.225, 442.55 L 262.11, 430.652 L 278.948, 426.03 z "/>
<path style="fill:rgb(45, 240, 255);fill-opacity:1.0;fill-rule:evenodd;stroke:rgb(0, 0, 0);stroke-width:3.0;" d="M 182.757, 59.1894 L 186.027, 68.2045 L 175.107, 79.8269 L 152.513, 93.0019 L 153.116, 75.9208 L 173.126, 55.7307 z "/>
<path style="fill:rgb(45, 240, 255);fill-opacity:1.0;fill-rule:evenodd;stroke:rgb(0, 0, 0);stroke-width:3.0;" d="M 291.716, 61.7421 L 278.451, 92.4363 L 274.802, 92.0541 L 268.358, 51.7496 z "/>
<path style="fill:rgb(255, 142, 9);fill-opacity:1.0;fill-rule:evenodd;stroke:rgb(0, 0, 0);stroke-width:3.0;" d="M 316.354, 372.141 L 313.651, 388.413 L 310.675, 388.048 L 307.83, 374.71 L 310.813, 370.035 L 315.533, 369.186 z "/>
<path style="fill:rgb(140, 12, 255);fill-opacity:1.0;fill-rule:evenodd;stroke:rgb(0, 0, 0);stroke-width:3.0;" d="M 308.32, 580.418 L 311.109, 589.758 L 283.381, 573.776 L 290.548, 562.584 z "/>
<path style="fill:rgb(66, 36, 226);fill-opacity:1.0;fill-rule:evenodd;stroke:rgb(0, 0, 0);stroke-width:3.0;" d="M 419.089, 414.265 L 406.122, 420.997 L 420.285, 397.707 L 435.178, 394.723 z "/>
<path style="fill:rgb(243, 13, 255);fill-opacity:1.0;fill-rule:evenodd;stroke:rgb(0, 0, 0);stroke-width:3.0;" d="M 311.449, 431.839 L 312.864, 450.848 L 309.92, 454.925 L 278.698, 450.163 L 272.225, 442.55 L 278.948, 426.03 L 301.974, 419.708 z "/>
<path style="fill:rgb(255, 255, 82);fill-opacity:1.0;fill-rule:evenodd;stroke:rgb(0, 0, 0);stroke-width:3.0;" d="M 308.37, 23.2064 L 300.14, 42.2496 L 273.833, 35.3672 L 295.404, 21.9663 z "/>
<path style="fill:rgb(44, 252, 204);fill-opacity:1.0;fill-rule:evenodd;stroke:rgb(0, 0, 0);stroke-width:3.0;" d="M 399.016, 399.949 L 380.396, 413.999 L 398.962, 385.323 L 405.035, 383.111 z "/>
<path style="fill:rgb(228, 47, 202);fill-opacity:1.0;fill-rule:evenodd;stroke:rgb(0, 0, 0);stroke-width:3.0;" d="M 87.8898, 188.939 L 82.041, 218.383 L 48.9773, 220.728 L 9.95305, 204.209 L 68.5814, 178.643 z "/>
<path style="fill:rgb(255, 159, 11);fill-opacity:1.0;fill-rule:evenodd;stroke:rgb(0, 0, 0);stroke-width:3.0;" d="M 147.834, 220.905 L 6.9368, 145.77 L 98.7209, 143.684 z "/>
<path style="fill:rgb(240, 14, 10);fill-opacity:1.0;fill-rule:evenodd;stroke:rgb(0, 0, 0);stroke-width:3.0;" d="M 150.038, 222.08 L 147.834, 220.905 L 98.7209, 143.684 L 283.687, 139.481 z "/>
<path style="fill:rgb(237, 255, 33);fill-opacity:1.0;fill-rule:evenodd;stroke:rgb(0, 0, 0);stroke-width:3.0;" d="M 196.258, 96.4145 L 197.06, 98.6254 L 174.222, 99.8645 L 176.33, 92.8907 L 184.682, 90.1365 z "/>
<path style="fill:rgb(255, 91, 35);fill-opacity:1.0;fill-rule:evenodd;stroke:rgb(0, 0, 0);stroke-width:3.0;" d="M 425.482, 430.214 L 406.239, 475.393 L 385.813, 454.683 L 416.816, 417.025 z "/>
<path style="fill:rgb(255, 91, 35);fill-opacity:1.0;fill-rule:evenodd;stroke:rgb(0, 0, 0);stroke-width:3.0;" d="M 629.925, 248.394 L 683.442, 333.391 L 444.213, 316.526 L 419.042, 259.157 L 504.441, 215.323 z "/>
<path style="fill:rgb(163, 8, 243);fill-opacity:1.0;fill-rule:evenodd;stroke:rgb(0, 0, 0);stroke-width:3.0;" d="M 225.758, 552.861 L 186.812, 542.415 L 250.656, 470.809 z "/>
<path style="fill:rgb(163, 8, 243);fill-opacity:1.0;fill-rule:evenodd;stroke:rgb(0, 0, 0);stroke-width:3.0;" d="M 15.5523, 92.8327 L 16.1921, 107.442 L 15.7469, 106.905 L 6.68908, 88.6118 L 10.1709, 82.0705 z "/>
<path style="fill:rgb(187, 48, 204);fill-opacity:1.0;fill-rule:evenodd;stroke:rgb(0, 0, 0);stroke-width:3.0;" d="M 789.322, 322.667 L 794.573, 364.036 L 773.611, 373.502 L 783.989, 321.7 z "/>
<path style="fill:rgb(207, 3, 56);fill-opacity:1.0;fill-rule:evenodd;stroke:rgb(0, 0, 0);stroke-width:3.0;" d="M 162.866, 137.233 L 155.779, 142.388 L 132.555, 142.916 L 128.989, 141.289 L 129.956, 140.773 L 156.926, 134.589 z "/>
<path style="fill:rgb(255, 9, 70);fill-opacity:1.0;fill-rule:evenodd;stroke:rgb(0, 0, 0);stroke-width:3.0;" d="M 435.181, 407.443 L 425.482, 430.214 L 416.816, 417.025 L 431.387, 399.327 z "/>
<path style="fill:rgb(34, 1, 197);fill-opacity:1.0;fill-rule:evenodd;stroke:rgb(0, 0, 0);stroke-width:3.0;" d="M 257.884, 446.989 L 250.656, 470.809 L 186.812, 542.415 L 166.359, 536.93 L 249.556, 445.719 z "/>
<path style="fill:rgb(179, 39, 199);fill-opacity:1.0;fill-rule:evenodd;stroke:rgb(0, 0, 0);stroke-width:3.0;" d="M 474.047, 490.586 L 487.66, 519.707 L 418.073, 502.498 L 436.813, 474.841 z "/>
<path style="fill:rgb(249, 255, 55);fill-opacity:1.0;fill-rule:evenodd;stroke:rgb(0, 0, 0);stroke-width:3.0;" d="M 370.365, 321.405 L 371.255, 322.087 L 358.899, 328.591 L 349.187, 327.054 L 345.834, 313.659 z "/>
<path style="fill:rgb(249, 21, 184);fill-opacity:1.0;fill-rule:evenodd;stroke:rgb(0, 0, 0);stroke-width:3.0;" d="M 110.295, 584.276 L 99.3769, 585.361 L 84.7792, 560.155 L 84.6952, 557.613 z "/>
<path style="fill:rgb(246, 100, 12);fill-opacity:1.0;fill-rule:evenodd;stroke:rgb(0, 0, 0);stroke-width:3.0;" d="M 141.444, 5.66157 L 137.993, 18.7785 L 102.112, 17.8314 L 95.0302, 5.35783 z "/>
<path style="fill:rgb(255, 60, 67);fill-opacity:1.0;fill-rule:evenodd;stroke:rgb(0, 0, 0);stroke-width:3.0;" d="M 146.009, 104.638 L 130.563, 116.003 L 119.021, 110.323 L 126.838, 102.435 L 143.477, 101.533 z "/>
<path style="fill:rgb(82, 44, 255);fill-opacity:1.0;fill-rule:evenodd;stroke:rgb(0, 0, 0);stroke-width:3.0;" d="M 787.096, 470.497 L 792.66, 497.226 L 776.272, 474.135 L 780.482, 466.044 z "/>
<path style="fill:rgb(255, 112, 34);fill-opacity:1.0;fill-rule:evenodd;stroke:rgb(0, 0, 0);stroke-width:3.0;" d="M 94.175, 576.379 L 102.26, 590.339 L 85.8788, 593.426 L 85.2273, 573.714 z "/>
<path style="fill:rgb(255, 112, 34);fill-opacity:1.0;fill-rule:evenodd;stroke:rgb(0, 0, 0);stroke-width:3.0;" d="M 353.33, 351.933 L 338.053, 360.516 L 339.242, 341.891 L 363.484, 339.79 z "/>
</svg>