<?xml version="1.0" encoding="iso-8859-1" standalone="no"?>
<!DOCTYPE svg PUBLIC "-//W3C//DTD SVG 1.0//EN" "http://www.w3.org/TR/2001/REC-SVG-20010904/DTD/svg10.dtd">
<svg xmlns="http://www.w3.org/2000/svg" width="800" height="600">
<path style="fill:rgb(0, 0, 0);fill-opacity:0.0;fill-rule:evenodd;stroke:rgb(0, 0, 0);stroke-width:0.0;" d="M 0, 600 L 800, 600 L 800, 0 L 0, 0 z "/>
<path style="fill:rgb(246, 6, 255);fill-opacity:1.0;fill-rule:evenodd;stroke:rgb(0, 0, 0);stroke-width:3.0;" d="M 560.651, 431.104 L 586.827, 399.614 L 662.253, 389.73 z "/>
<path style="fill:rgb(246, 102, 7);fill-opacity:1.0;fill-rule:evenodd;stroke:rgb(0, 0, 0);stroke-width:3.0;" d="M 304.112, 210.175 L 304.431, 223.652 L 231.488, 484.949 L 138.596, 475.298 L 253.754, 203.857 z "/>
<path style="fill:rgb(246, 102, 7);fill-opacity:1.0;fill-rule:evenodd;stroke:rgb(0, 0, 0);stroke-width:3.0;" d="M 711.654, 153.609 L 714.22, 155.66 L 712.627, 159.121 L 707.488, 164.602 L 686.566, 161.251 L 676.083, 151.923 L 677.017, 150.501 z "/>
<path style="fill:rgb(246, 102, 7);fill-opacity:1.0;fill-rule:evenodd;stroke:rgb(0, 0, 0);stroke-width:3.0;" d="M 708.365, 177.387 L 704.087, 197.733 L 694.273, 200.492 L 686.271, 182.202 L 702.421, 169.101 z "/>
<path style="fill:rgb(246, 102, 7);fill-opacity:1.0;fill-rule:evenodd;stroke:rgb(0, 0, 0);stroke-width:3.0;" d="M 144.51, 25.647 L 143.859, 85.4179 L 128.952, 125.213 L 74.5326, 87.5988 L 112.579, 8.51948 L 115.928, 8.51494 z "/>
<path style="fill:rgb(246, 102, 7);fill-opacity:1.0;fill-rule:evenodd;stroke:rgb(0, 0, 0);stroke-width:3.0;" d="M 792.615, 39.2296 L 763.583, 41.4462 L 756.716, 33.5126 L 773.824, 15.6853 z "/>
<path style="fill:rgb(237, 237, 31);fill-opacity:1.0;fill-rule:evenodd;stroke:rgb(0, 0, 0);stroke-width:3.0;" d="M 570.707, 401.141 L 542.263, 397.63 L 531.776, 371.578 L 540.682, 358.022 z "/>
<path style="fill:rgb(237, 237, 31);fill-opacity:1.0;fill-rule:evenodd;stroke:rgb(0, 0, 0);stroke-width:3.0;" d="M 764.308, 209.724 L 711.802, 309.607 L 738.519, 217.124 L 758.03, 193.652 z "/>
<path style="fill:rgb(237, 237, 31);fill-opacity:1.0;fill-rule:evenodd;stroke:rgb(0, 0, 0);stroke-width:3.0;" d="M 26.4547, 513.098 L 26.4806, 517.653 L 22.8167, 531.828 L 13.6427, 523.528 L 5.08427, 512.099 z "/>
<path style="fill:rgb(237, 237, 31);fill-opacity:1.0;fill-rule:evenodd;stroke:rgb(0, 0, 0);stroke-width:3.0;" d="M 689.745, 561.965 L 685.348, 573.765 L 672.563, 580.917 L 666.565, 558.6 L 667.314, 557.717 z "/>
<path style="fill:rgb(81, 4, 255);fill-opacity:1.0;fill-rule:evenodd;stroke:rgb(0, 0, 0);stroke-width:3.0;" d="M 737.693, 104.678 L 734.99, 110.549 L 734.435, 110.296 L 721.72, 100.453 L 734.857, 95.8865 z "/>
<path style="fill:rgb(81, 4, 255);fill-opacity:1.0;fill-rule:evenodd;stroke:rgb(0, 0, 0);stroke-width:3.0;" d="M 345.693, 496.814 L 402.875, 507.643 L 400.808, 576.502 L 339.687, 496.191 z "/>
<path style="fill:rgb(81, 4, 255);fill-opacity:1.0;fill-rule:evenodd;stroke:rgb(0, 0, 0);stroke-width:3.0;" d="M 688.922, 188.261 L 662.287, 209.484 L 647.518, 213.635 L 686.271, 182.202 z "/>
<path style="fill:rgb(81, 4, 255);fill-opacity:1.0;fill-rule:evenodd;stroke:rgb(0, 0, 0);stroke-width:3.0;" d="M 681.23, 286.045 L 660.374, 311.135 L 550.732, 342.725 L 553.922, 337.868 L 655.465, 276.774 z "/>
<path style="fill:rgb(194, 246, 62);fill-opacity:1.0;fill-rule:evenodd;stroke:rgb(0, 0, 0);stroke-width:3.0;" d="M 499.683, 512.813 L 501.116, 526.246 L 468.259, 520.024 L 474.155, 510.161 z "/>
<path style="fill:rgb(194, 246, 62);fill-opacity:1.0;fill-rule:evenodd;stroke:rgb(0, 0, 0);stroke-width:3.0;" d="M 732.659, 560.279 L 743.907, 572.221 L 704.045, 564.673 L 715.192, 554.297 z "/>
<path style="fill:rgb(255, 22, 189);fill-opacity:1.0;fill-rule:evenodd;stroke:rgb(0, 0, 0);stroke-width:3.0;" d="M 535.687, 415.33 L 536.798, 440.818 L 516.207, 449.203 L 516.634, 441.085 L 528.308, 408.226 z "/>
<path style="fill:rgb(226, 204, 33);fill-opacity:1.0;fill-rule:evenodd;stroke:rgb(0, 0, 0);stroke-width:3.0;" d="M 73.5321, 127.459 L 75.4728, 149.011 L 75.6739, 181.514 L 68.8763, 180.662 L 68.4475, 124.05 z "/>
<path style="fill:rgb(255, 79, 15);fill-opacity:1.0;fill-rule:evenodd;stroke:rgb(0, 0, 0);stroke-width:3.0;" d="M 784.657, 364.009 L 765.495, 380.869 L 763.664, 352.751 L 768.191, 347.895 L 781.458, 345.591 z "/>
<path style="fill:rgb(255, 79, 15);fill-opacity:1.0;fill-rule:evenodd;stroke:rgb(0, 0, 0);stroke-width:3.0;" d="M 677.478, 594.882 L 674.312, 594.157 L 667.899, 587.171 L 683.637, 578.355 z "/>
<path style="fill:rgb(255, 79, 15);fill-opacity:1.0;fill-rule:evenodd;stroke:rgb(0, 0, 0);stroke-width:3.0;" d="M 764.722, 42.762 L 768.229, 52.006 L 746.593, 60.1624 L 745.463, 48.8529 L 764.336, 42.3159 z "/>
<path style="fill:rgb(255, 79, 15);fill-opacity:1.0;fill-rule:evenodd;stroke:rgb(0, 0, 0);stroke-width:3.0;" d="M 74.5326, 87.5988 L 69.6379, 84.2157 L 62.8273, 8.58689 L 112.579, 8.51948 z "/>
<path style="fill:rgb(255, 79, 15);fill-opacity:1.0;fill-rule:evenodd;stroke:rgb(0, 0, 0);stroke-width:3.0;" d="M 622.612, 525.45 L 622.527, 525.576 L 545.853, 517.61 L 617.63, 517.483 z "/>
<path style="fill:rgb(255, 79, 15);fill-opacity:1.0;fill-rule:evenodd;stroke:rgb(0, 0, 0);stroke-width:3.0;" d="M 759.681, 143.942 L 759.653, 169.966 L 758.9, 170.417 L 737.794, 104.993 L 746.086, 102.559 z "/>
<path style="fill:rgb(255, 204, 45);fill-opacity:1.0;fill-rule:evenodd;stroke:rgb(0, 0, 0);stroke-width:3.0;" d="M 757.228, 359.656 L 685.322, 380.336 L 770.151, 345.792 z "/>
<path style="fill:rgb(255, 204, 45);fill-opacity:1.0;fill-rule:evenodd;stroke:rgb(0, 0, 0);stroke-width:3.0;" d="M 494.924, 440.96 L 494.654, 447.522 L 483.345, 453.748 L 479.825, 450.654 L 487.669, 438.715 z "/>
<path style="fill:rgb(140, 91, 255);fill-opacity:1.0;fill-rule:evenodd;stroke:rgb(0, 0, 0);stroke-width:3.0;" d="M 613.274, 472.852 L 623.001, 483.396 L 623.165, 487.687 L 616.671, 485.975 L 609.756, 478.44 L 605.874, 472.559 z "/>
<path style="fill:rgb(255, 19, 19);fill-opacity:1.0;fill-rule:evenodd;stroke:rgb(0, 0, 0);stroke-width:3.0;" d="M 573.913, 405.745 L 563.338, 390.558 L 565.416, 338.494 L 585.046, 332.838 z "/>
<path style="fill:rgb(255, 19, 19);fill-opacity:1.0;fill-rule:evenodd;stroke:rgb(0, 0, 0);stroke-width:3.0;" d="M 699.403, 507.774 L 630.913, 513.14 L 644.32, 493.261 z "/>
<path style="fill:rgb(18, 11, 223);fill-opacity:1.0;fill-rule:evenodd;stroke:rgb(0, 0, 0);stroke-width:3.0;" d="M 162.263, 36.2878 L 151.231, 65.7393 L 149.6, 28.6976 z "/>
<path style="fill:rgb(18, 11, 223);fill-opacity:1.0;fill-rule:evenodd;stroke:rgb(0, 0, 0);stroke-width:3.0;" d="M 757.42, 547.896 L 738.196, 566.158 L 727.774, 555.091 L 749.785, 547.778 z "/>
<path style="fill:rgb(255, 202, 32);fill-opacity:1.0;fill-rule:evenodd;stroke:rgb(0, 0, 0);stroke-width:3.0;" d="M 722.29, 479.457 L 736.858, 517.644 L 640.69, 492.304 L 655.248, 469.053 L 678.964, 443.612 z "/>
<path style="fill:rgb(246, 23, 252);fill-opacity:1.0;fill-rule:evenodd;stroke:rgb(0, 0, 0);stroke-width:3.0;" d="M 782.668, 219.767 L 770.402, 225.324 L 766.741, 215.95 L 768.113, 183.099 z "/>
<path style="fill:rgb(246, 23, 252);fill-opacity:1.0;fill-rule:evenodd;stroke:rgb(0, 0, 0);stroke-width:3.0;" d="M 717.414, 567.205 L 720.842, 574.129 L 709.064, 584.029 L 704.579, 577.519 L 711.077, 566.004 z "/>
<path style="fill:rgb(246, 23, 252);fill-opacity:1.0;fill-rule:evenodd;stroke:rgb(0, 0, 0);stroke-width:3.0;" d="M 759.062, 547.922 L 768.575, 570.613 L 750.273, 573.297 L 746.644, 558.133 L 757.42, 547.896 z "/>
<path style="fill:rgb(24, 89, 255);fill-opacity:1.0;fill-rule:evenodd;stroke:rgb(0, 0, 0);stroke-width:3.0;" d="M 657.025, 555.769 L 649.031, 554.255 L 642.737, 542.236 L 661.719, 537.832 z "/>
<path style="fill:rgb(24, 89, 255);fill-opacity:1.0;fill-rule:evenodd;stroke:rgb(0, 0, 0);stroke-width:3.0;" d="M 681.293, 547.768 L 671.266, 554.332 L 665.364, 536.987 L 668.334, 536.298 z "/>
<path style="fill:rgb(24, 89, 255);fill-opacity:1.0;fill-rule:evenodd;stroke:rgb(0, 0, 0);stroke-width:3.0;" d="M 684.747, 159.632 L 673.55, 184.805 L 656.392, 194.601 L 676.126, 151.961 z "/>
<path style="fill:rgb(24, 89, 255);fill-opacity:1.0;fill-rule:evenodd;stroke:rgb(0, 0, 0);stroke-width:3.0;" d="M 672.563, 580.917 L 655.679, 590.362 L 652.812, 583.843 L 668.409, 565.461 z "/>
<path style="fill:rgb(243, 59, 189);fill-opacity:1.0;fill-rule:evenodd;stroke:rgb(0, 0, 0);stroke-width:3.0;" d="M 706.957, 325.09 L 684.178, 344.221 L 678.27, 329.884 L 679.084, 314.568 z "/>
<path style="fill:rgb(243, 59, 189);fill-opacity:1.0;fill-rule:evenodd;stroke:rgb(0, 0, 0);stroke-width:3.0;" d="M 68.8366, 175.416 L 68.8763, 180.662 L 49.0166, 178.17 L 61.1668, 167.604 z "/>
<path style="fill:rgb(243, 59, 189);fill-opacity:1.0;fill-rule:evenodd;stroke:rgb(0, 0, 0);stroke-width:3.0;" d="M 660.319, 229.499 L 640.896, 241.139 L 646.657, 229.587 L 651.726, 225.934 z "/>
<path style="fill:rgb(243, 59, 189);fill-opacity:1.0;fill-rule:evenodd;stroke:rgb(0, 0, 0);stroke-width:3.0;" d="M 548.822, 417.372 L 553.924, 426.6 L 554.941, 429.127 L 536.589, 436.028 L 535.358, 407.781 z "/>
<path style="fill:rgb(124, 85, 255);fill-opacity:1.0;fill-rule:evenodd;stroke:rgb(0, 0, 0);stroke-width:3.0;" d="M 748.767, 81.92 L 747.42, 91.5218 L 745, 93.7364 L 735.953, 60.7918 L 743.306, 49.5999 L 745.463, 48.8529 z "/>
<path style="fill:rgb(124, 85, 255);fill-opacity:1.0;fill-rule:evenodd;stroke:rgb(0, 0, 0);stroke-width:3.0;" d="M 146.512, 476.12 L 150.953, 507.943 L 45.6082, 539.328 L 93.4203, 470.604 z "/>
<path style="fill:rgb(255, 255, 27);fill-opacity:1.0;fill-rule:evenodd;stroke:rgb(0, 0, 0);stroke-width:3.0;" d="M 673.465, 312.447 L 666.793, 358.823 L 624.028, 394.739 L 586.827, 399.614 L 662.67, 308.372 z "/>
<path style="fill:rgb(207, 21, 255);fill-opacity:1.0;fill-rule:evenodd;stroke:rgb(0, 0, 0);stroke-width:3.0;" d="M 641.704, 222.349 L 629.446, 248.001 L 619.224, 254.127 L 612.069, 249.36 L 629.873, 222.261 z "/>
<path style="fill:rgb(234, 114, 144);fill-opacity:1.0;fill-rule:evenodd;stroke:rgb(0, 0, 0);stroke-width:3.0;" d="M 791.131, 198.092 L 788.771, 206.597 L 780.934, 215.399 L 776.52, 204.277 L 787.057, 197.15 z "/>
<path style="fill:rgb(234, 114, 144);fill-opacity:1.0;fill-rule:evenodd;stroke:rgb(0, 0, 0);stroke-width:3.0;" d="M 781.601, 488.668 L 785.562, 530.477 L 783.206, 529.856 L 713.499, 472.184 z "/>
<path style="fill:rgb(42, 69, 226);fill-opacity:1.0;fill-rule:evenodd;stroke:rgb(0, 0, 0);stroke-width:3.0;" d="M 627.997, 517.465 L 545.853, 517.61 L 544.614, 517.482 L 544.775, 515.37 L 634.266, 508.169 z "/>
<path style="fill:rgb(42, 69, 226);fill-opacity:1.0;fill-rule:evenodd;stroke:rgb(0, 0, 0);stroke-width:3.0;" d="M 776.379, 433.562 L 781.601, 488.668 L 713.499, 472.184 L 678.964, 443.612 L 717.785, 401.968 z "/>
<path style="fill:rgb(237, 255, 7);fill-opacity:1.0;fill-rule:evenodd;stroke:rgb(0, 0, 0);stroke-width:3.0;" d="M 676.126, 151.961 L 647.622, 213.551 L 647.518, 213.635 L 632.826, 217.766 L 676.083, 151.923 z "/>
<path style="fill:rgb(54, 255, 249);fill-opacity:1.0;fill-rule:evenodd;stroke:rgb(0, 0, 0);stroke-width:3.0;" d="M 84.3978, 94.4175 L 107.992, 142.167 L 100.033, 145.389 L 81.4089, 92.3517 z "/>
<path style="fill:rgb(54, 255, 249);fill-opacity:1.0;fill-rule:evenodd;stroke:rgb(0, 0, 0);stroke-width:3.0;" d="M 727.046, 406.961 L 717.785, 401.968 L 732.258, 386.442 z "/>
<path style="fill:rgb(209, 3, 9);fill-opacity:1.0;fill-rule:evenodd;stroke:rgb(0, 0, 0);stroke-width:3.0;" d="M 771.563, 50.6644 L 787.259, 68.7967 L 789.983, 76.4849 L 791.763, 89.1511 L 783.265, 91.6456 L 767.439, 49.9237 z "/>
<path style="fill:rgb(255, 207, 13);fill-opacity:1.0;fill-rule:evenodd;stroke:rgb(0, 0, 0);stroke-width:3.0;" d="M 711.654, 153.609 L 696.707, 152.268 L 680.178, 145.69 L 687.605, 134.384 z "/>
<path style="fill:rgb(255, 21, 194);fill-opacity:1.0;fill-rule:evenodd;stroke:rgb(0, 0, 0);stroke-width:3.0;" d="M 601.62, 381.817 L 594.173, 390.776 L 575.983, 392.19 L 577.922, 379.492 z "/>
<path style="fill:rgb(255, 177, 9);fill-opacity:1.0;fill-rule:evenodd;stroke:rgb(0, 0, 0);stroke-width:3.0;" d="M 517.082, 432.547 L 516.207, 449.203 L 508.035, 452.531 L 507.537, 451.478 L 512.254, 430.666 z "/>
<path style="fill:rgb(255, 177, 9);fill-opacity:1.0;fill-rule:evenodd;stroke:rgb(0, 0, 0);stroke-width:3.0;" d="M 685.609, 137.424 L 659.974, 176.442 L 305.563, 271.469 L 301.093, 82.6698 z "/>
<path style="fill:rgb(255, 177, 9);fill-opacity:1.0;fill-rule:evenodd;stroke:rgb(0, 0, 0);stroke-width:3.0;" d="M 694.341, 138.592 L 687.784, 134.112 L 701.835, 112.724 z "/>
<path style="fill:rgb(249, 32, 38);fill-opacity:1.0;fill-rule:evenodd;stroke:rgb(0, 0, 0);stroke-width:3.0;" d="M 679.084, 314.568 L 677.196, 350.086 L 666.793, 358.823 L 667.821, 351.673 L 677.817, 314.09 z "/>
<path style="fill:rgb(249, 32, 38);fill-opacity:1.0;fill-rule:evenodd;stroke:rgb(0, 0, 0);stroke-width:3.0;" d="M 783.206, 529.856 L 751.441, 521.486 L 734.665, 511.895 L 722.29, 479.457 z "/>
<path style="fill:rgb(44, 114, 255);fill-opacity:1.0;fill-rule:evenodd;stroke:rgb(0, 0, 0);stroke-width:3.0;" d="M 544.148, 528.232 L 548.565, 535.231 L 506.541, 527.273 L 530.259, 522.214 z "/>
<path style="fill:rgb(92, 41, 189);fill-opacity:1.0;fill-rule:evenodd;stroke:rgb(0, 0, 0);stroke-width:3.0;" d="M 660.443, 565.817 L 659.758, 566.624 L 588.242, 588.319 L 593.961, 585.182 L 662.433, 559.462 z "/>
<path style="fill:rgb(18, 78, 255);fill-opacity:1.0;fill-rule:evenodd;stroke:rgb(0, 0, 0);stroke-width:3.0;" d="M 563.338, 390.558 L 540.682, 358.022 L 550.732, 342.725 L 565.416, 338.494 z "/>
<path style="fill:rgb(18, 78, 255);fill-opacity:1.0;fill-rule:evenodd;stroke:rgb(0, 0, 0);stroke-width:3.0;" d="M 695.566, 169.26 L 698.742, 172.086 L 668.181, 196.875 L 681.877, 166.084 z "/>
<path style="fill:rgb(18, 78, 255);fill-opacity:1.0;fill-rule:evenodd;stroke:rgb(0, 0, 0);stroke-width:3.0;" d="M 753.528, 153.766 L 734.309, 185.155 L 721.479, 192.844 L 720.545, 193.107 L 748.049, 136.782 z "/>
<path style="fill:rgb(255, 22, 83);fill-opacity:1.0;fill-rule:evenodd;stroke:rgb(0, 0, 0);stroke-width:3.0;" d="M 501.855, 526.386 L 466.03, 531.26 L 464.496, 519.311 z "/>
<path style="fill:rgb(255, 226, 60);fill-opacity:1.0;fill-rule:evenodd;stroke:rgb(0, 0, 0);stroke-width:3.0;" d="M 531.213, 390.886 L 535.01, 414.678 L 518.839, 399.11 L 519.286, 390.589 L 520.189, 389.215 z "/>
<path style="fill:rgb(255, 226, 60);fill-opacity:1.0;fill-rule:evenodd;stroke:rgb(0, 0, 0);stroke-width:3.0;" d="M 778.587, 90.4902 L 775.348, 93.9695 L 747.323, 102.196 L 745, 93.7364 L 769.257, 71.5412 z "/>
<path style="fill:rgb(255, 226, 60);fill-opacity:1.0;fill-rule:evenodd;stroke:rgb(0, 0, 0);stroke-width:3.0;" d="M 794.836, 355.053 L 786.148, 362.698 L 784.391, 362.476 L 781.458, 345.591 L 781.898, 345.515 z "/>
<path style="fill:rgb(255, 226, 60);fill-opacity:1.0;fill-rule:evenodd;stroke:rgb(0, 0, 0);stroke-width:3.0;" d="M 22.634, 581.996 L 19.0296, 589.773 L 6.57609, 594.66 L 11.0093, 577.508 z "/>
<path style="fill:rgb(255, 226, 60);fill-opacity:1.0;fill-rule:evenodd;stroke:rgb(0, 0, 0);stroke-width:3.0;" d="M 725.76, 168.194 L 721.761, 175.724 L 704.785, 194.414 L 711.313, 163.369 L 719.086, 162.88 z "/>
<path style="fill:rgb(255, 226, 60);fill-opacity:1.0;fill-rule:evenodd;stroke:rgb(0, 0, 0);stroke-width:3.0;" d="M 759.178, 405.365 L 735.332, 409.871 L 750.549, 396.841 z "/>
<path style="fill:rgb(255, 226, 60);fill-opacity:1.0;fill-rule:evenodd;stroke:rgb(0, 0, 0);stroke-width:3.0;" d="M 685.427, 211.554 L 680.806, 217.22 L 676.973, 219.517 L 670.116, 217.536 L 669.305, 210.304 L 683.696, 208.958 z "/>
<path style="fill:rgb(255, 226, 60);fill-opacity:1.0;fill-rule:evenodd;stroke:rgb(0, 0, 0);stroke-width:3.0;" d="M 777.489, 564.21 L 782.295, 579.49 L 767.585, 576.705 L 774.507, 563.498 z "/>
<path style="fill:rgb(9, 2, 237);fill-opacity:1.0;fill-rule:evenodd;stroke:rgb(0, 0, 0);stroke-width:3.0;" d="M 743.74, 521.116 L 756.969, 525.27 L 749.401, 538.758 L 724.119, 536.131 L 722.427, 535.094 L 714.999, 528.851 L 719.432, 516.82 z "/>
<path style="fill:rgb(9, 2, 237);fill-opacity:1.0;fill-rule:evenodd;stroke:rgb(0, 0, 0);stroke-width:3.0;" d="M 570.707, 401.141 L 577.476, 410.863 L 560.651, 431.104 L 556.429, 432.824 L 542.263, 397.63 z "/>
<path style="fill:rgb(252, 237, 27);fill-opacity:1.0;fill-rule:evenodd;stroke:rgb(0, 0, 0);stroke-width:3.0;" d="M 688.754, 260.338 L 687.045, 266.989 L 662.551, 279.323 L 655.465, 276.774 L 684.015, 259.597 z "/>
<path style="fill:rgb(252, 237, 27);fill-opacity:1.0;fill-rule:evenodd;stroke:rgb(0, 0, 0);stroke-width:3.0;" d="M 779.836, 528.968 L 770.118, 540.911 L 765.541, 540.435 L 756.349, 526.376 L 758.107, 523.243 z "/>
<path style="fill:rgb(252, 237, 27);fill-opacity:1.0;fill-rule:evenodd;stroke:rgb(0, 0, 0);stroke-width:3.0;" d="M 559.748, 537.349 L 502.873, 559.848 L 488.946, 554.979 L 510.935, 528.105 z "/>
<path style="fill:rgb(40, 34, 220);fill-opacity:1.0;fill-rule:evenodd;stroke:rgb(0, 0, 0);stroke-width:3.0;" d="M 732.284, 87.9103 L 722.486, 89.6387 L 721.193, 83.2596 L 727.625, 73.469 z "/>
<path style="fill:rgb(252, 18, 11);fill-opacity:1.0;fill-rule:evenodd;stroke:rgb(0, 0, 0);stroke-width:3.0;" d="M 671.874, 222.573 L 660.319, 229.499 L 644.478, 222.928 L 644.737, 222.371 z "/>
<path style="fill:rgb(252, 18, 11);fill-opacity:1.0;fill-rule:evenodd;stroke:rgb(0, 0, 0);stroke-width:3.0;" d="M 747.701, 389.535 L 730.915, 391.728 L 732.258, 386.442 L 738.446, 379.803 z "/>
<path style="fill:rgb(252, 18, 11);fill-opacity:1.0;fill-rule:evenodd;stroke:rgb(0, 0, 0);stroke-width:3.0;" d="M 511.368, 514.027 L 530.259, 522.214 L 506.541, 527.273 L 501.116, 526.246 L 499.683, 512.813 z "/>
<path style="fill:rgb(252, 18, 11);fill-opacity:1.0;fill-rule:evenodd;stroke:rgb(0, 0, 0);stroke-width:3.0;" d="M 793.446, 95.3647 L 791.726, 103.127 L 761.942, 140.264 L 747.838, 102.044 L 794.387, 88.3808 z "/>
<path style="fill:rgb(252, 18, 11);fill-opacity:1.0;fill-rule:evenodd;stroke:rgb(0, 0, 0);stroke-width:3.0;" d="M 729.766, 108.169 L 696.634, 130.68 L 701.835, 112.724 L 706.398, 105.779 L 716.677, 102.206 z "/>
<path style="fill:rgb(8, 255, 41);fill-opacity:1.0;fill-rule:evenodd;stroke:rgb(0, 0, 0);stroke-width:3.0;" d="M 750.045, 419.363 L 740.755, 414.353 L 740.347, 408.923 L 775.397, 402.3 z "/>
<path style="fill:rgb(255, 10, 85);fill-opacity:1.0;fill-rule:evenodd;stroke:rgb(0, 0, 0);stroke-width:3.0;" d="M 645.149, 524.386 L 647.27, 528.147 L 622.527, 525.576 L 630.913, 513.14 L 631.615, 513.085 z "/>
<path style="fill:rgb(243, 217, 79);fill-opacity:1.0;fill-rule:evenodd;stroke:rgb(0, 0, 0);stroke-width:3.0;" d="M 719.26, 144.713 L 714.22, 155.66 L 694.064, 139.548 L 695.079, 136.044 z "/>
<path style="fill:rgb(243, 46, 8);fill-opacity:1.0;fill-rule:evenodd;stroke:rgb(0, 0, 0);stroke-width:3.0;" d="M 668.181, 196.875 L 647.622, 213.551 L 656.392, 194.601 L 673.55, 184.805 z "/>
<path style="fill:rgb(243, 46, 8);fill-opacity:1.0;fill-rule:evenodd;stroke:rgb(0, 0, 0);stroke-width:3.0;" d="M 734.99, 110.549 L 719.26, 144.713 L 695.079, 136.044 L 696.634, 130.68 L 729.766, 108.169 z "/>
<path style="fill:rgb(52, 255, 204);fill-opacity:1.0;fill-rule:evenodd;stroke:rgb(0, 0, 0);stroke-width:3.0;" d="M 753.108, 391.769 L 732.499, 409.901 L 727.046, 406.961 L 730.915, 391.728 L 753.586, 388.766 z "/>
<path style="fill:rgb(209, 0, 11);fill-opacity:1.0;fill-rule:evenodd;stroke:rgb(0, 0, 0);stroke-width:3.0;" d="M 310.389, 475.323 L 296.039, 491.656 L 231.488, 484.949 L 294.227, 260.204 L 305.211, 256.604 z "/>
<path style="fill:rgb(246, 25, 23);fill-opacity:1.0;fill-rule:evenodd;stroke:rgb(0, 0, 0);stroke-width:3.0;" d="M 63.6984, 472.441 L 63.9258, 472.882 L 46.1867, 477.249 L 39.4685, 468.47 L 39.5687, 468.1 z "/>
<path style="fill:rgb(66, 255, 255);fill-opacity:1.0;fill-rule:evenodd;stroke:rgb(0, 0, 0);stroke-width:3.0;" d="M 755.155, 378.916 L 753.586, 388.766 L 747.701, 389.535 L 738.446, 379.803 L 746.966, 370.664 z "/>
<path style="fill:rgb(66, 255, 255);fill-opacity:1.0;fill-rule:evenodd;stroke:rgb(0, 0, 0);stroke-width:3.0;" d="M 667.156, 557.688 L 628.482, 572.215 L 623.826, 568.802 L 650.012, 554.441 z "/>
<path style="fill:rgb(30, 255, 165);fill-opacity:1.0;fill-rule:evenodd;stroke:rgb(0, 0, 0);stroke-width:3.0;" d="M 708.376, 534.496 L 714.924, 541.448 L 713.835, 542.125 L 677.605, 537.613 L 675.325, 534.676 L 686.086, 532.18 z "/>
<path style="fill:rgb(30, 255, 165);fill-opacity:1.0;fill-rule:evenodd;stroke:rgb(0, 0, 0);stroke-width:3.0;" d="M 511.222, 416.209 L 501.42, 434.576 L 495.199, 427.253 L 506.819, 409.566 z "/>
<path style="fill:rgb(30, 255, 165);fill-opacity:1.0;fill-rule:evenodd;stroke:rgb(0, 0, 0);stroke-width:3.0;" d="M 128.952, 125.213 L 126.856, 130.81 L 98.4104, 122.775 L 84.3978, 94.4175 z "/>
<path style="fill:rgb(30, 255, 165);fill-opacity:1.0;fill-rule:evenodd;stroke:rgb(0, 0, 0);stroke-width:3.0;" d="M 636.474, 339.886 L 604.609, 343.166 L 600.421, 338.997 L 599.539, 329.465 L 657.714, 314.334 z "/>
<path style="fill:rgb(30, 255, 165);fill-opacity:1.0;fill-rule:evenodd;stroke:rgb(0, 0, 0);stroke-width:3.0;" d="M 790.849, 240.378 L 776.715, 241.482 L 770.402, 225.324 L 782.668, 219.767 z "/>
<path style="fill:rgb(64, 252, 220);fill-opacity:1.0;fill-rule:evenodd;stroke:rgb(0, 0, 0);stroke-width:3.0;" d="M 682.292, 278.079 L 678.905, 285.208 L 675.191, 283.872 L 668.709, 276.222 L 677.906, 271.591 z "/>
<path style="fill:rgb(64, 252, 220);fill-opacity:1.0;fill-rule:evenodd;stroke:rgb(0, 0, 0);stroke-width:3.0;" d="M 561.283, 514.042 L 533.234, 516.299 L 481.366, 510.91 L 476.92, 497.312 z "/>
<path style="fill:rgb(64, 252, 220);fill-opacity:1.0;fill-rule:evenodd;stroke:rgb(0, 0, 0);stroke-width:3.0;" d="M 713.835, 542.125 L 691.754, 555.848 L 677.605, 537.613 z "/>
<path style="fill:rgb(255, 12, 138);fill-opacity:1.0;fill-rule:evenodd;stroke:rgb(0, 0, 0);stroke-width:3.0;" d="M 538.808, 465.459 L 509.915, 503.855 L 476.92, 497.312 L 467.701, 469.109 L 467.838, 468.899 L 500.848, 455.457 z "/>
<path style="fill:rgb(255, 12, 138);fill-opacity:1.0;fill-rule:evenodd;stroke:rgb(0, 0, 0);stroke-width:3.0;" d="M 784.075, 260.322 L 707.448, 324.678 L 711.802, 309.607 L 764.308, 209.724 z "/>
<path style="fill:rgb(255, 5, 43);fill-opacity:1.0;fill-rule:evenodd;stroke:rgb(0, 0, 0);stroke-width:3.0;" d="M 733.945, 570.335 L 734.495, 572.15 L 727.324, 587.224 L 717.414, 567.205 z "/>
<path style="fill:rgb(255, 163, 10);fill-opacity:1.0;fill-rule:evenodd;stroke:rgb(0, 0, 0);stroke-width:3.0;" d="M 64.623, 569.299 L 55.6631, 589.091 L 35.6596, 553.627 L 45.6082, 539.328 L 51.7847, 537.487 z "/>
<path style="fill:rgb(20, 9, 237);fill-opacity:1.0;fill-rule:evenodd;stroke:rgb(0, 0, 0);stroke-width:3.0;" d="M 68.2331, 95.7504 L 68.7276, 161.03 L 49.0166, 178.17 L 44.9707, 177.662 L 62.973, 84.4876 z "/>
<path style="fill:rgb(255, 223, 41);fill-opacity:1.0;fill-rule:evenodd;stroke:rgb(0, 0, 0);stroke-width:3.0;" d="M 650.336, 474.322 L 558.644, 470.686 L 500.848, 455.457 L 685.322, 380.336 L 757.228, 359.656 z "/>
<path style="fill:rgb(246, 199, 10);fill-opacity:1.0;fill-rule:evenodd;stroke:rgb(0, 0, 0);stroke-width:3.0;" d="M 688.183, 532.398 L 650.709, 528.504 L 642, 512.272 L 667.803, 510.25 z "/>
<path style="fill:rgb(240, 0, 110);fill-opacity:1.0;fill-rule:evenodd;stroke:rgb(0, 0, 0);stroke-width:3.0;" d="M 310.629, 485.452 L 310.812, 493.191 L 296.039, 491.656 L 304.905, 481.566 z "/>
<path style="fill:rgb(249, 249, 28);fill-opacity:1.0;fill-rule:evenodd;stroke:rgb(0, 0, 0);stroke-width:3.0;" d="M 157.135, 552.242 L 159.194, 567.001 L 101.022, 541.891 L 100.996, 535.656 z "/>
<path style="fill:rgb(249, 249, 28);fill-opacity:1.0;fill-rule:evenodd;stroke:rgb(0, 0, 0);stroke-width:3.0;" d="M 239.718, 485.804 L 241.253, 510.32 L 238.674, 511.577 L 149.937, 500.66 L 146.512, 476.12 z "/>
<path style="fill:rgb(249, 249, 28);fill-opacity:1.0;fill-rule:evenodd;stroke:rgb(0, 0, 0);stroke-width:3.0;" d="M 744.89, 93.3354 L 735.33, 97.3541 L 727.625, 73.469 L 735.953, 60.7918 z "/>
<path style="fill:rgb(243, 246, 21);fill-opacity:1.0;fill-rule:evenodd;stroke:rgb(0, 0, 0);stroke-width:3.0;" d="M 773.994, 67.2064 L 749.533, 89.5884 L 746.593, 60.1624 L 768.229, 52.006 z "/>
<path style="fill:rgb(184, 243, 255);fill-opacity:1.0;fill-rule:evenodd;stroke:rgb(0, 0, 0);stroke-width:3.0;" d="M 25.8016, 575.162 L 22.634, 581.996 L 11.0093, 577.508 L 12.6112, 571.311 L 24.6787, 568.581 z "/>
<path style="fill:rgb(13, 179, 255);fill-opacity:1.0;fill-rule:evenodd;stroke:rgb(0, 0, 0);stroke-width:3.0;" d="M 149.6, 28.6976 L 151.231, 65.7393 L 143.859, 85.4179 L 144.51, 25.647 z "/>
<path style="fill:rgb(13, 179, 255);fill-opacity:1.0;fill-rule:evenodd;stroke:rgb(0, 0, 0);stroke-width:3.0;" d="M 715.192, 554.297 L 704.045, 564.673 L 697.745, 563.48 L 694.908, 561.908 L 706.407, 551.289 z "/>
<path style="fill:rgb(13, 179, 255);fill-opacity:1.0;fill-rule:evenodd;stroke:rgb(0, 0, 0);stroke-width:3.0;" d="M 511.606, 586.104 L 511.369, 590.639 L 480.963, 592.394 L 500.091, 572.766 z "/>
<path style="fill:rgb(255, 215, 16);fill-opacity:1.0;fill-rule:evenodd;stroke:rgb(0, 0, 0);stroke-width:3.0;" d="M 500.091, 572.766 L 480.963, 592.394 L 473.932, 592.8 L 466.34, 533.673 z "/>
<path style="fill:rgb(255, 75, 249);fill-opacity:1.0;fill-rule:evenodd;stroke:rgb(0, 0, 0);stroke-width:3.0;" d="M 602.445, 360.858 L 602.118, 381.218 L 601.62, 381.817 L 588.865, 380.566 L 600.112, 335.66 z "/>
<path style="fill:rgb(255, 17, 55);fill-opacity:1.0;fill-rule:evenodd;stroke:rgb(0, 0, 0);stroke-width:3.0;" d="M 496.474, 545.779 L 488.946, 554.979 L 482.913, 552.87 L 474.255, 542.842 z "/>
<path style="fill:rgb(138, 130, 179);fill-opacity:1.0;fill-rule:evenodd;stroke:rgb(0, 0, 0);stroke-width:3.0;" d="M 157.135, 552.242 L 100.996, 535.656 L 100.94, 522.843 L 150.953, 507.943 z "/>
<path style="fill:rgb(138, 130, 179);fill-opacity:1.0;fill-rule:evenodd;stroke:rgb(0, 0, 0);stroke-width:3.0;" d="M 510.935, 528.105 L 496.474, 545.779 L 474.255, 542.842 L 466.34, 533.673 L 466.03, 531.26 L 501.855, 526.386 z "/>
<path style="fill:rgb(58, 192, 255);fill-opacity:1.0;fill-rule:evenodd;stroke:rgb(0, 0, 0);stroke-width:3.0;" d="M 241.495, 514.194 L 229.145, 544.579 L 218.696, 557.953 L 173.897, 543.153 L 241.253, 510.32 z "/>
<path style="fill:rgb(58, 192, 255);fill-opacity:1.0;fill-rule:evenodd;stroke:rgb(0, 0, 0);stroke-width:3.0;" d="M 42.4969, 532.3 L 34.1907, 551.023 L 31.1771, 545.68 L 37.6552, 527.513 L 45.0221, 521.497 z "/>
<path style="fill:rgb(58, 192, 255);fill-opacity:1.0;fill-rule:evenodd;stroke:rgb(0, 0, 0);stroke-width:3.0;" d="M 703.982, 508.981 L 705.475, 534.194 L 692.247, 532.82 L 682.871, 519.676 L 684.638, 508.931 L 699.403, 507.774 z "/>
<path style="fill:rgb(255, 192, 27);fill-opacity:1.0;fill-rule:evenodd;stroke:rgb(0, 0, 0);stroke-width:3.0;" d="M 586.468, 395.029 L 582.28, 405.084 L 577.476, 410.863 L 573.913, 405.745 L 575.983, 392.19 L 580.408, 391.846 z "/>
<path style="fill:rgb(255, 192, 27);fill-opacity:1.0;fill-rule:evenodd;stroke:rgb(0, 0, 0);stroke-width:3.0;" d="M 620.553, 359.041 L 617.248, 363.017 L 603.605, 373.397 L 600.421, 338.997 z "/>
<path style="fill:rgb(255, 163, 24);fill-opacity:1.0;fill-rule:evenodd;stroke:rgb(0, 0, 0);stroke-width:3.0;" d="M 73.2643, 590.712 L 58.0739, 593.366 L 55.6631, 589.091 L 56.4782, 587.291 L 66.76, 574.595 z "/>
<path style="fill:rgb(255, 49, 237);fill-opacity:1.0;fill-rule:evenodd;stroke:rgb(0, 0, 0);stroke-width:3.0;" d="M 126.856, 130.81 L 116.302, 158.983 L 98.4104, 122.775 z "/>
<path style="fill:rgb(197, 9, 35);fill-opacity:1.0;fill-rule:evenodd;stroke:rgb(0, 0, 0);stroke-width:3.0;" d="M 100.998, 536.098 L 101.022, 541.891 L 74.88, 530.607 L 88.3357, 526.598 z "/>
<path style="fill:rgb(11, 94, 255);fill-opacity:1.0;fill-rule:evenodd;stroke:rgb(0, 0, 0);stroke-width:3.0;" d="M 729.87, 160.455 L 723.378, 166.297 L 714.547, 159.266 L 726.2, 149.813 L 736.533, 147.909 z "/>
<path style="fill:rgb(11, 94, 255);fill-opacity:1.0;fill-rule:evenodd;stroke:rgb(0, 0, 0);stroke-width:3.0;" d="M 116.302, 158.983 L 106.417, 185.372 L 78.431, 181.86 L 76.022, 155.109 L 107.992, 142.167 z "/>
<path style="fill:rgb(24, 31, 255);fill-opacity:1.0;fill-rule:evenodd;stroke:rgb(0, 0, 0);stroke-width:3.0;" d="M 723.407, 579.312 L 715.178, 592.904 L 709.064, 584.029 L 720.842, 574.129 z "/>
<path style="fill:rgb(255, 144, 16);fill-opacity:1.0;fill-rule:evenodd;stroke:rgb(0, 0, 0);stroke-width:3.0;" d="M 781.599, 87.2555 L 778.587, 90.4902 L 771.464, 76.0236 L 770.868, 70.0672 L 773.994, 67.2064 z "/>
<path style="fill:rgb(255, 255, 21);fill-opacity:1.0;fill-rule:evenodd;stroke:rgb(0, 0, 0);stroke-width:3.0;" d="M 54.2842, 526.857 L 37.7217, 513.514 L 30.9499, 489.85 L 93.306, 470.769 z "/>
<path style="fill:rgb(189, 240, 35);fill-opacity:1.0;fill-rule:evenodd;stroke:rgb(0, 0, 0);stroke-width:3.0;" d="M 35.8326, 506.912 L 30.1823, 507.44 L 26.4053, 504.397 L 26.3308, 491.263 L 30.9499, 489.85 z "/>
<path style="fill:rgb(159, 148, 255);fill-opacity:1.0;fill-rule:evenodd;stroke:rgb(0, 0, 0);stroke-width:3.0;" d="M 442.866, 506.91 L 310.812, 493.191 L 305.563, 271.469 L 659.974, 176.442 z "/>
<path style="fill:rgb(148, 148, 255);fill-opacity:1.0;fill-rule:evenodd;stroke:rgb(0, 0, 0);stroke-width:3.0;" d="M 620.553, 359.041 L 604.609, 343.166 L 636.474, 339.886 z "/>
<path style="fill:rgb(33, 46, 192);fill-opacity:1.0;fill-rule:evenodd;stroke:rgb(0, 0, 0);stroke-width:3.0;" d="M 792.788, 282.626 L 661.715, 363.088 L 784.075, 260.322 z "/>
<path style="fill:rgb(21, 223, 255);fill-opacity:1.0;fill-rule:evenodd;stroke:rgb(0, 0, 0);stroke-width:3.0;" d="M 81.4089, 92.3517 L 100.033, 145.389 L 76.022, 155.109 L 69.6379, 84.2157 z "/>
<path style="fill:rgb(255, 255, 7);fill-opacity:1.0;fill-rule:evenodd;stroke:rgb(0, 0, 0);stroke-width:3.0;" d="M 692.247, 532.82 L 688.183, 532.398 L 670.167, 512.819 L 675.878, 509.875 z "/>
<path style="fill:rgb(132, 11, 20);fill-opacity:1.0;fill-rule:evenodd;stroke:rgb(0, 0, 0);stroke-width:3.0;" d="M 238.674, 511.577 L 173.897, 543.153 L 154.995, 536.909 L 149.937, 500.66 z "/>
<path style="fill:rgb(79, 136, 249);fill-opacity:1.0;fill-rule:evenodd;stroke:rgb(0, 0, 0);stroke-width:3.0;" d="M 750.258, 203.001 L 725.977, 232.212 L 700.909, 249.432 L 553.922, 337.868 L 602.257, 264.296 L 744.894, 178.811 z "/>
<path style="fill:rgb(243, 199, 7);fill-opacity:1.0;fill-rule:evenodd;stroke:rgb(0, 0, 0);stroke-width:3.0;" d="M 746.85, 133.064 L 744.915, 134.633 L 734.824, 127.044 L 732.505, 121.55 L 732.464, 119.629 L 741.275, 115.784 z "/>
<path style="fill:rgb(255, 255, 19);fill-opacity:1.0;fill-rule:evenodd;stroke:rgb(0, 0, 0);stroke-width:3.0;" d="M 53.5267, 482.941 L 26.3308, 491.263 L 26.2869, 483.527 L 44.0567, 479.999 z "/>
<path style="fill:rgb(194, 4, 51);fill-opacity:1.0;fill-rule:evenodd;stroke:rgb(0, 0, 0);stroke-width:3.0;" d="M 80.0021, 474.84 L 53.5267, 482.941 L 44.0567, 479.999 L 79.7467, 472.914 z "/>
<path style="fill:rgb(217, 44, 25);fill-opacity:1.0;fill-rule:evenodd;stroke:rgb(0, 0, 0);stroke-width:3.0;" d="M 650.012, 554.441 L 614.52, 573.907 L 615.406, 547.888 z "/>
<path style="fill:rgb(255, 255, 22);fill-opacity:1.0;fill-rule:evenodd;stroke:rgb(0, 0, 0);stroke-width:3.0;" d="M 615.406, 547.888 L 614.52, 573.907 L 586.708, 589.16 L 502.873, 559.848 L 559.748, 537.349 z "/>
<path style="fill:rgb(255, 6, 243);fill-opacity:1.0;fill-rule:evenodd;stroke:rgb(0, 0, 0);stroke-width:3.0;" d="M 707.448, 324.678 L 706.957, 325.09 L 682.386, 315.814 L 730.12, 246.198 z "/>
<path style="fill:rgb(234, 189, 15);fill-opacity:1.0;fill-rule:evenodd;stroke:rgb(0, 0, 0);stroke-width:3.0;" d="M 730.12, 246.198 L 682.386, 315.814 L 662.67, 308.372 L 738.519, 217.124 z "/>
<path style="fill:rgb(25, 204, 255);fill-opacity:1.0;fill-rule:evenodd;stroke:rgb(0, 0, 0);stroke-width:3.0;" d="M 694.273, 200.492 L 662.287, 209.484 L 688.922, 188.261 z "/>
<path style="fill:rgb(34, 172, 255);fill-opacity:1.0;fill-rule:evenodd;stroke:rgb(0, 0, 0);stroke-width:3.0;" d="M 600.112, 335.66 L 588.865, 380.566 L 585.709, 380.256 L 581.225, 357.858 L 585.046, 332.838 L 599.467, 328.683 z "/>
<path style="fill:rgb(197, 237, 255);fill-opacity:1.0;fill-rule:evenodd;stroke:rgb(0, 0, 0);stroke-width:3.0;" d="M 787.286, 123.162 L 776.252, 160.018 L 770.503, 163.463 L 761.942, 140.264 L 791.726, 103.127 z "/>
<path style="fill:rgb(246, 172, 7);fill-opacity:1.0;fill-rule:evenodd;stroke:rgb(0, 0, 0);stroke-width:3.0;" d="M 644.32, 493.261 L 634.266, 508.169 L 561.283, 514.042 L 509.915, 503.855 L 538.808, 465.459 z "/>
</svg>