<?xml version="1.0" encoding="iso-8859-1" standalone="no"?>
<!DOCTYPE svg PUBLIC "-//W3C//DTD SVG 1.0//EN" "http://www.w3.org/TR/2001/REC-SVG-20010904/DTD/svg10.dtd">
<svg xmlns="http://www.w3.org/2000/svg" width="800" height="600">
<path style="fill:rgb(0, 0, 0);fill-opacity:0.0;fill-rule:evenodd;stroke:rgb(0, 0, 0);stroke-width:0.0;" d="M 0, 600 L 800, 600 L 800, 0 L 0, 0 z "/>
<path style="fill:rgb(10, 0, 152);fill-opacity:1.0;fill-rule:evenodd;stroke:rgb(0, 0, 0);stroke-width:3.0;" d="M 98.3857, 121.361 L 75.0691, 137.089 L 70.0373, 131.856 L 84.3233, 118.076 z "/>
<path style="fill:rgb(246, 152, 14);fill-opacity:1.0;fill-rule:evenodd;stroke:rgb(0, 0, 0);stroke-width:3.0;" d="M 734.552, 349.559 L 715.336, 352.294 L 716.598, 291.764 L 737.917, 268.421 z "/>
<path style="fill:rgb(246, 152, 14);fill-opacity:1.0;fill-rule:evenodd;stroke:rgb(0, 0, 0);stroke-width:3.0;" d="M 124.627, 177.6 L 116.252, 183.519 L 110.268, 184.581 L 101.232, 178.642 L 100.086, 168.867 z "/>
<path style="fill:rgb(255, 255, 8);fill-opacity:1.0;fill-rule:evenodd;stroke:rgb(0, 0, 0);stroke-width:3.0;" d="M 98.5789, 243.367 L 104.595, 248.288 L 88.4173, 268.242 L 87.8473, 268.058 L 92.032, 242.731 L 92.6815, 242.467 z "/>
<path style="fill:rgb(255, 255, 8);fill-opacity:1.0;fill-rule:evenodd;stroke:rgb(0, 0, 0);stroke-width:3.0;" d="M 110.268, 184.581 L 77.5095, 190.397 L 67.5618, 184.925 L 93.4295, 173.514 z "/>
<path style="fill:rgb(255, 41, 42);fill-opacity:1.0;fill-rule:evenodd;stroke:rgb(0, 0, 0);stroke-width:3.0;" d="M 64.1852, 468.093 L 57.0668, 459.468 L 92.5283, 451.789 z "/>
<path style="fill:rgb(33, 172, 252);fill-opacity:1.0;fill-rule:evenodd;stroke:rgb(0, 0, 0);stroke-width:3.0;" d="M 300.586, 53.2532 L 292.255, 59.1407 L 258.503, 57.0659 L 259.352, 54.427 L 297.702, 50.1091 z "/>
<path style="fill:rgb(33, 172, 252);fill-opacity:1.0;fill-rule:evenodd;stroke:rgb(0, 0, 0);stroke-width:3.0;" d="M 137.121, 274.892 L 135.175, 275.255 L 104.067, 265.422 L 110.952, 253.487 z "/>
<path style="fill:rgb(33, 172, 252);fill-opacity:1.0;fill-rule:evenodd;stroke:rgb(0, 0, 0);stroke-width:3.0;" d="M 208.354, 104.171 L 198.049, 104.755 L 173.371, 95.8991 L 150.802, 70.1189 L 162.054, 55.0836 L 167.011, 54.7573 z "/>
<path style="fill:rgb(33, 172, 252);fill-opacity:1.0;fill-rule:evenodd;stroke:rgb(0, 0, 0);stroke-width:3.0;" d="M 120.139, 248.501 L 88.6338, 232.399 L 81.1748, 208.307 L 83.7352, 206.498 z "/>
<path style="fill:rgb(194, 144, 255);fill-opacity:1.0;fill-rule:evenodd;stroke:rgb(0, 0, 0);stroke-width:3.0;" d="M 188.095, 432.459 L 126.638, 451.687 L 126.669, 444.397 L 188.465, 431.016 z "/>
<path style="fill:rgb(194, 144, 255);fill-opacity:1.0;fill-rule:evenodd;stroke:rgb(0, 0, 0);stroke-width:3.0;" d="M 93.3486, 416.894 L 91.8577, 419.057 L 64.6638, 429.006 L 67.7377, 407.184 z "/>
<path style="fill:rgb(194, 144, 255);fill-opacity:1.0;fill-rule:evenodd;stroke:rgb(0, 0, 0);stroke-width:3.0;" d="M 147.86, 180.716 L 146.496, 205.222 L 130.656, 212.999 L 142.058, 174.504 z "/>
<path style="fill:rgb(194, 144, 255);fill-opacity:1.0;fill-rule:evenodd;stroke:rgb(0, 0, 0);stroke-width:3.0;" d="M 138.271, 280.368 L 143.313, 296.69 L 114.204, 292.182 L 101.321, 272.978 z "/>
<path style="fill:rgb(243, 19, 40);fill-opacity:1.0;fill-rule:evenodd;stroke:rgb(0, 0, 0);stroke-width:3.0;" d="M 92.3914, 238.306 L 92.7188, 238.574 L 87.4915, 270.212 L 67.4655, 266.206 L 66.3215, 260.569 L 84.5535, 236.573 z "/>
<path style="fill:rgb(255, 220, 34);fill-opacity:1.0;fill-rule:evenodd;stroke:rgb(0, 0, 0);stroke-width:3.0;" d="M 129.038, 37.9147 L 87.6786, 78.8554 L 82.8174, 78.0407 L 106.535, 41.7663 L 125.088, 30.8426 z "/>
<path style="fill:rgb(255, 220, 34);fill-opacity:1.0;fill-rule:evenodd;stroke:rgb(0, 0, 0);stroke-width:3.0;" d="M 51.3358, 247.803 L 42.7497, 254.214 L 32.6877, 242.572 L 38.8499, 238.217 L 48.9043, 232.314 z "/>
<path style="fill:rgb(255, 220, 34);fill-opacity:1.0;fill-rule:evenodd;stroke:rgb(0, 0, 0);stroke-width:3.0;" d="M 211.539, 48.0318 L 163.554, 51.9346 L 195.538, 29.5655 z "/>
<path style="fill:rgb(246, 161, 42);fill-opacity:1.0;fill-rule:evenodd;stroke:rgb(0, 0, 0);stroke-width:3.0;" d="M 84.5535, 236.573 L 81.1379, 241.068 L 61.8446, 238.506 L 60.367, 231.224 z "/>
<path style="fill:rgb(163, 243, 255);fill-opacity:1.0;fill-rule:evenodd;stroke:rgb(0, 0, 0);stroke-width:3.0;" d="M 250.856, 35.1528 L 244.309, 43.494 L 231.387, 25.586 L 238.619, 14.3767 z "/>
<path style="fill:rgb(9, 209, 255);fill-opacity:1.0;fill-rule:evenodd;stroke:rgb(0, 0, 0);stroke-width:3.0;" d="M 126.391, 510.661 L 126.488, 487.6 L 164.97, 469.223 z "/>
<path style="fill:rgb(220, 18, 142);fill-opacity:1.0;fill-rule:evenodd;stroke:rgb(0, 0, 0);stroke-width:3.0;" d="M 132.243, 141.833 L 123.5, 157.032 L 117.193, 149.266 L 129.583, 140.877 L 131.273, 140.704 z "/>
<path style="fill:rgb(220, 18, 142);fill-opacity:1.0;fill-rule:evenodd;stroke:rgb(0, 0, 0);stroke-width:3.0;" d="M 202.891, 327.981 L 175.83, 327.303 L 142.45, 277.929 L 143.236, 263.809 z "/>
<path style="fill:rgb(220, 18, 142);fill-opacity:1.0;fill-rule:evenodd;stroke:rgb(0, 0, 0);stroke-width:3.0;" d="M 199.22, 187.415 L 191.502, 198.958 L 179.506, 199.413 L 154.194, 186.938 z "/>
<path style="fill:rgb(192, 226, 255);fill-opacity:1.0;fill-rule:evenodd;stroke:rgb(0, 0, 0);stroke-width:3.0;" d="M 213.225, 17.196 L 201.317, 25.5242 L 200.385, 25.6033 L 161.144, 13.1502 L 160.373, 10.1195 L 191.335, 9.53473 z "/>
<path style="fill:rgb(192, 226, 255);fill-opacity:1.0;fill-rule:evenodd;stroke:rgb(0, 0, 0);stroke-width:3.0;" d="M 67.7377, 407.184 L 65.6818, 421.779 L 51.9759, 410.915 L 66.8565, 406.85 z "/>
<path style="fill:rgb(192, 226, 255);fill-opacity:1.0;fill-rule:evenodd;stroke:rgb(0, 0, 0);stroke-width:3.0;" d="M 231.223, 207.152 L 222.989, 222.732 L 219.848, 223.545 L 213.411, 208.974 L 223.129, 201.935 z "/>
<path style="fill:rgb(192, 226, 255);fill-opacity:1.0;fill-rule:evenodd;stroke:rgb(0, 0, 0);stroke-width:3.0;" d="M 85.0061, 409.993 L 82.5186, 412.788 L 25.7283, 391.257 L 22.6063, 387.901 z "/>
<path style="fill:rgb(197, 14, 17);fill-opacity:1.0;fill-rule:evenodd;stroke:rgb(0, 0, 0);stroke-width:3.0;" d="M 312.918, 23.9661 L 308.755, 30.1952 L 297.333, 31.7925 L 304.005, 21.3199 L 316.026, 17.8387 z "/>
<path style="fill:rgb(255, 66, 30);fill-opacity:1.0;fill-rule:evenodd;stroke:rgb(0, 0, 0);stroke-width:3.0;" d="M 68.9891, 452.238 L 61.0244, 454.844 L 64.6638, 429.006 L 91.8577, 419.057 z "/>
<path style="fill:rgb(255, 66, 30);fill-opacity:1.0;fill-rule:evenodd;stroke:rgb(0, 0, 0);stroke-width:3.0;" d="M 176.597, 163.876 L 175.799, 164.262 L 154.298, 158.11 L 153.736, 157.029 L 169.52, 145.875 z "/>
<path style="fill:rgb(255, 66, 30);fill-opacity:1.0;fill-rule:evenodd;stroke:rgb(0, 0, 0);stroke-width:3.0;" d="M 241.538, 138.153 L 208.432, 160.486 L 205.435, 159.098 L 210.635, 146.871 L 240.244, 132.022 z "/>
<path style="fill:rgb(255, 66, 30);fill-opacity:1.0;fill-rule:evenodd;stroke:rgb(0, 0, 0);stroke-width:3.0;" d="M 128.489, 414.776 L 142.89, 430.486 L 103.956, 416.702 L 88.6967, 393.734 z "/>
<path style="fill:rgb(255, 66, 30);fill-opacity:1.0;fill-rule:evenodd;stroke:rgb(0, 0, 0);stroke-width:3.0;" d="M 121.346, 64.5466 L 117.994, 74.8901 L 91.5896, 79.5109 L 87.6786, 78.8554 L 117.84, 48.9995 z "/>
<path style="fill:rgb(255, 66, 30);fill-opacity:1.0;fill-rule:evenodd;stroke:rgb(0, 0, 0);stroke-width:3.0;" d="M 240.945, 218.082 L 222.989, 222.732 L 234.363, 201.21 z "/>
<path style="fill:rgb(86, 231, 246);fill-opacity:1.0;fill-rule:evenodd;stroke:rgb(0, 0, 0);stroke-width:3.0;" d="M 62.9584, 67.4238 L 53.3227, 73.0973 L 50.3889, 72.6056 L 43.8782, 65.6499 L 62.6917, 62.9603 z "/>
<path style="fill:rgb(86, 231, 246);fill-opacity:1.0;fill-rule:evenodd;stroke:rgb(0, 0, 0);stroke-width:3.0;" d="M 234.131, 29.3889 L 205.638, 29.906 L 205.584, 29.8075 L 223.974, 15.3128 z "/>
<path style="fill:rgb(86, 231, 246);fill-opacity:1.0;fill-rule:evenodd;stroke:rgb(0, 0, 0);stroke-width:3.0;" d="M 66.8565, 406.85 L 28.2652, 417.393 L 23.0573, 390.244 z "/>
<path style="fill:rgb(255, 12, 66);fill-opacity:1.0;fill-rule:evenodd;stroke:rgb(0, 0, 0);stroke-width:3.0;" d="M 257.718, 56.7346 L 257.864, 57.0266 L 226.384, 55.0913 L 224.471, 50.9743 L 236.187, 50.203 z "/>
<path style="fill:rgb(199, 78, 56);fill-opacity:1.0;fill-rule:evenodd;stroke:rgb(0, 0, 0);stroke-width:3.0;" d="M 103.956, 416.702 L 91.2934, 412.219 L 28.7611, 329.887 L 44.3161, 326.932 z "/>
<path style="fill:rgb(252, 15, 172);fill-opacity:1.0;fill-rule:evenodd;stroke:rgb(0, 0, 0);stroke-width:3.0;" d="M 119.137, 130.099 L 97.0456, 153.155 L 97.3636, 133.483 L 108.374, 124.529 z "/>
<path style="fill:rgb(246, 20, 187);fill-opacity:1.0;fill-rule:evenodd;stroke:rgb(0, 0, 0);stroke-width:3.0;" d="M 241.719, 197.054 L 212.018, 198.18 L 214.817, 191.122 z "/>
<path style="fill:rgb(246, 20, 187);fill-opacity:1.0;fill-rule:evenodd;stroke:rgb(0, 0, 0);stroke-width:3.0;" d="M 99.0022, 110.365 L 78.3319, 111.536 L 117.585, 84.0838 z "/>
<path style="fill:rgb(74, 209, 237);fill-opacity:1.0;fill-rule:evenodd;stroke:rgb(0, 0, 0);stroke-width:3.0;" d="M 43.262, 284.947 L 43.1109, 305.88 L 18.1426, 291.552 L 32.8835, 284.09 z "/>
<path style="fill:rgb(74, 209, 237);fill-opacity:1.0;fill-rule:evenodd;stroke:rgb(0, 0, 0);stroke-width:3.0;" d="M 166.001, 50.2232 L 158.699, 29.1376 L 201.317, 25.5242 z "/>
<path style="fill:rgb(74, 209, 237);fill-opacity:1.0;fill-rule:evenodd;stroke:rgb(0, 0, 0);stroke-width:3.0;" d="M 519.607, 276.453 L 440.391, 288.354 L 705.444, 140.979 z "/>
<path style="fill:rgb(36, 123, 249);fill-opacity:1.0;fill-rule:evenodd;stroke:rgb(0, 0, 0);stroke-width:3.0;" d="M 24.0136, 257.516 L 42.1586, 280.777 L 16.1644, 269.654 L 22.9857, 257.31 z "/>
<path style="fill:rgb(76, 255, 132);fill-opacity:1.0;fill-rule:evenodd;stroke:rgb(0, 0, 0);stroke-width:3.0;" d="M 32.0633, 144.66 L 27.4862, 143.031 L 37.1403, 113.87 L 39.6433, 113.728 z "/>
<path style="fill:rgb(76, 255, 132);fill-opacity:1.0;fill-rule:evenodd;stroke:rgb(0, 0, 0);stroke-width:3.0;" d="M 197.802, 394.649 L 188.465, 431.016 L 168.928, 435.246 L 78.179, 377.903 L 54.4825, 342.235 L 81.1534, 327.71 z "/>
<path style="fill:rgb(212, 108, 11);fill-opacity:1.0;fill-rule:evenodd;stroke:rgb(0, 0, 0);stroke-width:3.0;" d="M 81.1534, 327.71 L 54.4825, 342.235 L 22.4551, 294.026 z "/>
<path style="fill:rgb(50, 255, 192);fill-opacity:1.0;fill-rule:evenodd;stroke:rgb(0, 0, 0);stroke-width:3.0;" d="M 45.2712, 57.067 L 44.8148, 57.6469 L 27.5051, 53.2289 L 25.2791, 38.9735 L 31.5215, 38.5559 z "/>
<path style="fill:rgb(255, 179, 255);fill-opacity:1.0;fill-rule:evenodd;stroke:rgb(0, 0, 0);stroke-width:3.0;" d="M 239.869, 223.985 L 226.714, 238.275 L 224.213, 224.447 L 233.131, 220.845 z "/>
<path style="fill:rgb(50, 12, 255);fill-opacity:1.0;fill-rule:evenodd;stroke:rgb(0, 0, 0);stroke-width:3.0;" d="M 233.986, 253.71 L 228.181, 244.426 L 235.131, 229.131 L 242.294, 221.351 z "/>
<path style="fill:rgb(255, 56, 8);fill-opacity:1.0;fill-rule:evenodd;stroke:rgb(0, 0, 0);stroke-width:3.0;" d="M 262.75, 141.674 L 261.017, 148.423 L 240.712, 134.239 L 238.847, 125.402 L 245.388, 121.134 z "/>
<path style="fill:rgb(255, 56, 8);fill-opacity:1.0;fill-rule:evenodd;stroke:rgb(0, 0, 0);stroke-width:3.0;" d="M 132.105, 431.587 L 68.9891, 452.238 L 93.3486, 416.894 z "/>
<path style="fill:rgb(217, 255, 9);fill-opacity:1.0;fill-rule:evenodd;stroke:rgb(0, 0, 0);stroke-width:3.0;" d="M 34.4341, 312.057 L 44.3161, 326.932 L 28.7611, 329.887 L 11.7732, 307.521 L 15.4039, 303.849 z "/>
<path style="fill:rgb(217, 255, 9);fill-opacity:1.0;fill-rule:evenodd;stroke:rgb(0, 0, 0);stroke-width:3.0;" d="M 201.896, 53.5859 L 202.132, 54.8143 L 195.352, 88.6313 L 167.011, 54.7573 L 193.057, 53.0425 z "/>
<path style="fill:rgb(217, 255, 9);fill-opacity:1.0;fill-rule:evenodd;stroke:rgb(0, 0, 0);stroke-width:3.0;" d="M 117.022, 402.447 L 114.103, 407.169 L 88.6967, 393.734 L 78.179, 377.903 z "/>
<path style="fill:rgb(209, 255, 6);fill-opacity:1.0;fill-rule:evenodd;stroke:rgb(0, 0, 0);stroke-width:3.0;" d="M 267.487, 106.712 L 261.248, 110.784 L 236.515, 114.356 L 233.609, 100.585 L 243.118, 93.865 z "/>
<path style="fill:rgb(255, 228, 37);fill-opacity:1.0;fill-rule:evenodd;stroke:rgb(0, 0, 0);stroke-width:3.0;" d="M 168.928, 435.246 L 167.701, 435.512 L 127.25, 414.121 L 125.393, 407.737 z "/>
<path style="fill:rgb(255, 246, 34);fill-opacity:1.0;fill-rule:evenodd;stroke:rgb(0, 0, 0);stroke-width:3.0;" d="M 206.505, 227.001 L 194.098, 230.213 L 182.509, 217.807 L 202.11, 209.172 z "/>
<path style="fill:rgb(243, 124, 22);fill-opacity:1.0;fill-rule:evenodd;stroke:rgb(0, 0, 0);stroke-width:3.0;" d="M 180.568, 461.775 L 126.488, 487.6 L 126.638, 451.687 L 188.095, 432.459 z "/>
<path style="fill:rgb(255, 30, 154);fill-opacity:1.0;fill-rule:evenodd;stroke:rgb(0, 0, 0);stroke-width:3.0;" d="M 108.669, 440.626 L 114.994, 443.794 L 112.067, 447.558 L 102.73, 449.58 L 93.0994, 444.349 L 105.709, 440.224 z "/>
<path style="fill:rgb(215, 215, 237);fill-opacity:1.0;fill-rule:evenodd;stroke:rgb(0, 0, 0);stroke-width:3.0;" d="M 202.11, 209.172 L 182.509, 217.807 L 179.211, 214.277 L 200.888, 204.213 z "/>
<path style="fill:rgb(33, 152, 255);fill-opacity:1.0;fill-rule:evenodd;stroke:rgb(0, 0, 0);stroke-width:3.0;" d="M 221.919, 166.727 L 198.388, 175.667 L 205.435, 159.098 z "/>
<path style="fill:rgb(33, 152, 255);fill-opacity:1.0;fill-rule:evenodd;stroke:rgb(0, 0, 0);stroke-width:3.0;" d="M 198.388, 175.667 L 184.592, 180.908 L 183.154, 180.555 L 176.619, 163.93 L 210.635, 146.871 z "/>
<path style="fill:rgb(8, 215, 249);fill-opacity:1.0;fill-rule:evenodd;stroke:rgb(0, 0, 0);stroke-width:3.0;" d="M 275.484, 13.9962 L 274.361, 20.7197 L 262.494, 32.195 L 259.564, 24.0587 L 271.083, 9.38325 L 274.196, 7.10794 z "/>
<path style="fill:rgb(9, 175, 220);fill-opacity:1.0;fill-rule:evenodd;stroke:rgb(0, 0, 0);stroke-width:3.0;" d="M 219.848, 223.545 L 206.505, 227.001 L 202.642, 211.33 L 211.231, 204.04 z "/>
<path style="fill:rgb(255, 184, 8);fill-opacity:1.0;fill-rule:evenodd;stroke:rgb(0, 0, 0);stroke-width:3.0;" d="M 180.508, 19.2955 L 180.135, 26.2768 L 158.383, 25.9914 L 173.165, 16.9652 z "/>
<path style="fill:rgb(226, 8, 45);fill-opacity:1.0;fill-rule:evenodd;stroke:rgb(0, 0, 0);stroke-width:3.0;" d="M 281.225, 450.231 L 286.347, 395.642 L 479.513, 282.476 L 519.607, 276.453 z "/>
<path style="fill:rgb(226, 8, 45);fill-opacity:1.0;fill-rule:evenodd;stroke:rgb(0, 0, 0);stroke-width:3.0;" d="M 88.6338, 232.399 L 79.398, 227.678 L 70.9278, 220.75 L 82.6467, 213.061 z "/>
<path style="fill:rgb(246, 0, 29);fill-opacity:1.0;fill-rule:evenodd;stroke:rgb(0, 0, 0);stroke-width:3.0;" d="M 216.531, 14.8839 L 213.225, 17.196 L 191.335, 9.53473 L 214.279, 9.10143 z "/>
<path style="fill:rgb(14, 50, 252);fill-opacity:1.0;fill-rule:evenodd;stroke:rgb(0, 0, 0);stroke-width:3.0;" d="M 292.255, 59.1407 L 230.292, 102.928 L 211.591, 103.988 L 201.896, 53.5859 z "/>
<path style="fill:rgb(255, 3, 123);fill-opacity:1.0;fill-rule:evenodd;stroke:rgb(0, 0, 0);stroke-width:3.0;" d="M 42.6283, 230.968 L 29.6337, 235.562 L 27.9067, 224.944 L 31.2917, 223.87 L 40.7227, 223.255 z "/>
<path style="fill:rgb(255, 51, 161);fill-opacity:1.0;fill-rule:evenodd;stroke:rgb(0, 0, 0);stroke-width:3.0;" d="M 54.7506, 263.663 L 53.1594, 278.228 L 37.123, 274.321 L 24.0136, 257.516 z "/>
<path style="fill:rgb(255, 249, 25);fill-opacity:1.0;fill-rule:evenodd;stroke:rgb(0, 0, 0);stroke-width:3.0;" d="M 95.1174, 289.227 L 112.873, 291.976 L 75.3855, 324.4 L 43.1109, 305.88 L 43.262, 284.947 z "/>
<path style="fill:rgb(237, 56, 37);fill-opacity:1.0;fill-rule:evenodd;stroke:rgb(0, 0, 0);stroke-width:3.0;" d="M 80.8613, 109.767 L 73.5454, 111.807 L 63.1585, 112.396 L 63.159, 110.422 L 80.4586, 104.094 L 89.1052, 104.002 z "/>
<path style="fill:rgb(237, 56, 37);fill-opacity:1.0;fill-rule:evenodd;stroke:rgb(0, 0, 0);stroke-width:3.0;" d="M 74.2656, 127.777 L 61.1783, 140.401 L 35.1743, 131.965 L 39.6433, 113.728 L 43.7195, 113.497 z "/>
<path style="fill:rgb(237, 56, 37);fill-opacity:1.0;fill-rule:evenodd;stroke:rgb(0, 0, 0);stroke-width:3.0;" d="M 67.4655, 266.206 L 61.2829, 264.97 L 58.554, 242.414 L 62.1004, 239.766 z "/>
<path style="fill:rgb(86, 255, 255);fill-opacity:1.0;fill-rule:evenodd;stroke:rgb(0, 0, 0);stroke-width:3.0;" d="M 212.875, 328.231 L 208.827, 342.459 L 205.539, 342.983 L 182.188, 336.707 L 177.074, 329.142 L 199.982, 327.908 z "/>
<path style="fill:rgb(74, 212, 255);fill-opacity:1.0;fill-rule:evenodd;stroke:rgb(0, 0, 0);stroke-width:3.0;" d="M 169.368, 317.744 L 170.553, 379.012 L 93.3846, 334.729 L 161.091, 305.501 z "/>
<path style="fill:rgb(74, 212, 255);fill-opacity:1.0;fill-rule:evenodd;stroke:rgb(0, 0, 0);stroke-width:3.0;" d="M 167.801, 511.505 L 126.319, 527.761 L 126.322, 527.064 L 169.909, 466.865 L 180.568, 461.775 z "/>
<path style="fill:rgb(74, 212, 255);fill-opacity:1.0;fill-rule:evenodd;stroke:rgb(0, 0, 0);stroke-width:3.0;" d="M 742.634, 464.36 L 741.41, 476.53 L 734.72, 499.032 L 728.328, 499.675 L 732.887, 389.72 z "/>
<path style="fill:rgb(255, 8, 255);fill-opacity:1.0;fill-rule:evenodd;stroke:rgb(0, 0, 0);stroke-width:3.0;" d="M 240.244, 132.022 L 223.195, 140.572 L 198.741, 125.225 L 233.609, 100.585 z "/>
<path style="fill:rgb(255, 8, 255);fill-opacity:1.0;fill-rule:evenodd;stroke:rgb(0, 0, 0);stroke-width:3.0;" d="M 261.017, 148.423 L 253.505, 177.686 L 248.1, 169.243 L 240.712, 134.239 z "/>
<path style="fill:rgb(249, 150, 255);fill-opacity:1.0;fill-rule:evenodd;stroke:rgb(0, 0, 0);stroke-width:3.0;" d="M 126.105, 143.232 L 119.551, 147.669 L 109.915, 139.723 L 112.455, 137.073 L 121.888, 132.711 z "/>
<path style="fill:rgb(249, 150, 255);fill-opacity:1.0;fill-rule:evenodd;stroke:rgb(0, 0, 0);stroke-width:3.0;" d="M 82.8174, 78.0407 L 53.3227, 73.0973 L 106.535, 41.7663 z "/>
<path style="fill:rgb(255, 58, 86);fill-opacity:1.0;fill-rule:evenodd;stroke:rgb(0, 0, 0);stroke-width:3.0;" d="M 724.985, 580.31 L 726.076, 553.993 L 739.944, 533.134 z "/>
<path style="fill:rgb(33, 255, 223);fill-opacity:1.0;fill-rule:evenodd;stroke:rgb(0, 0, 0);stroke-width:3.0;" d="M 210.908, 39.4771 L 203.109, 38.3025 L 195.538, 29.5655 L 202.694, 24.5608 z "/>
<path style="fill:rgb(33, 255, 223);fill-opacity:1.0;fill-rule:evenodd;stroke:rgb(0, 0, 0);stroke-width:3.0;" d="M 748.211, 507.063 L 739.944, 533.134 L 726.076, 553.993 L 727.323, 523.911 L 743.365, 469.954 z "/>
<path style="fill:rgb(18, 255, 255);fill-opacity:1.0;fill-rule:evenodd;stroke:rgb(0, 0, 0);stroke-width:3.0;" d="M 73.1926, 267.352 L 77.526, 286.502 L 52.6759, 282.654 L 54.7506, 263.663 z "/>
<path style="fill:rgb(255, 231, 17);fill-opacity:1.0;fill-rule:evenodd;stroke:rgb(0, 0, 0);stroke-width:3.0;" d="M 61.5947, 181.642 L 65.5923, 184.27 L 51.8581, 194.95 L 47.0568, 195.803 L 48.4712, 174.943 L 48.6938, 174.546 z "/>
<path style="fill:rgb(255, 231, 8);fill-opacity:1.0;fill-rule:evenodd;stroke:rgb(0, 0, 0);stroke-width:3.0;" d="M 132.439, 56.5802 L 138.891, 69.1831 L 134.982, 71.9172 L 117.994, 74.8901 L 124.221, 55.6729 z "/>
<path style="fill:rgb(255, 231, 8);fill-opacity:1.0;fill-rule:evenodd;stroke:rgb(0, 0, 0);stroke-width:3.0;" d="M 69.529, 184.057 L 67.5618, 184.925 L 48.6938, 174.546 L 52.1274, 168.422 L 63.1656, 166.996 z "/>
<path style="fill:rgb(255, 231, 8);fill-opacity:1.0;fill-rule:evenodd;stroke:rgb(0, 0, 0);stroke-width:3.0;" d="M 288.941, 51.0955 L 261.325, 54.2048 L 267.629, 48.133 L 286.707, 46.877 z "/>
<path style="fill:rgb(255, 130, 40);fill-opacity:1.0;fill-rule:evenodd;stroke:rgb(0, 0, 0);stroke-width:3.0;" d="M 143.698, 255.499 L 129.999, 259.512 L 120.876, 246.017 L 130.656, 212.999 L 146.496, 205.222 z "/>
<path style="fill:rgb(255, 130, 40);fill-opacity:1.0;fill-rule:evenodd;stroke:rgb(0, 0, 0);stroke-width:3.0;" d="M 146.036, 171.434 L 158.627, 178.435 L 161.377, 187.014 L 153.668, 186.933 L 137.15, 169.25 z "/>
<path style="fill:rgb(255, 130, 40);fill-opacity:1.0;fill-rule:evenodd;stroke:rgb(0, 0, 0);stroke-width:3.0;" d="M 737.917, 268.421 L 716.598, 291.764 L 719.321, 161.067 L 742.687, 153.357 z "/>
<path style="fill:rgb(252, 234, 19);fill-opacity:1.0;fill-rule:evenodd;stroke:rgb(0, 0, 0);stroke-width:3.0;" d="M 204.286, 369.393 L 197.802, 394.649 L 170.553, 379.012 L 169.368, 317.744 z "/>
<path style="fill:rgb(252, 234, 19);fill-opacity:1.0;fill-rule:evenodd;stroke:rgb(0, 0, 0);stroke-width:3.0;" d="M 157.61, 90.2434 L 155.349, 100.839 L 148.406, 107.567 L 99.8974, 110.315 L 120.287, 82.1942 L 125.337, 78.6626 z "/>
<path style="fill:rgb(252, 234, 19);fill-opacity:1.0;fill-rule:evenodd;stroke:rgb(0, 0, 0);stroke-width:3.0;" d="M 742.687, 153.357 L 719.321, 161.067 L 719.908, 132.937 L 744.092, 119.49 z "/>
<path style="fill:rgb(228, 18, 21);fill-opacity:1.0;fill-rule:evenodd;stroke:rgb(0, 0, 0);stroke-width:3.0;" d="M 101.867, 269.238 L 100.234, 272.069 L 88.4173, 268.242 L 104.069, 248.938 z "/>
<path style="fill:rgb(223, 255, 22);fill-opacity:1.0;fill-rule:evenodd;stroke:rgb(0, 0, 0);stroke-width:3.0;" d="M 231.308, 33.5552 L 243.451, 44.5878 L 242.739, 45.4942 L 215.444, 47.7142 L 205.638, 29.906 L 218.095, 29.6799 z "/>
<path style="fill:rgb(159, 246, 59);fill-opacity:1.0;fill-rule:evenodd;stroke:rgb(0, 0, 0);stroke-width:3.0;" d="M 85.5983, 116.846 L 74.616, 127.439 L 71.3463, 125.548 L 70.0076, 112.981 L 71.7935, 111.907 L 73.5127, 111.809 z "/>
<path style="fill:rgb(168, 220, 255);fill-opacity:1.0;fill-rule:evenodd;stroke:rgb(0, 0, 0);stroke-width:3.0;" d="M 268.179, 95.3978 L 261.304, 103.453 L 260.041, 102.787 L 257.706, 83.5556 L 257.726, 83.5414 L 265.023, 83.132 z "/>
<path style="fill:rgb(146, 249, 226);fill-opacity:1.0;fill-rule:evenodd;stroke:rgb(0, 0, 0);stroke-width:3.0;" d="M 245.665, 157.706 L 221.919, 166.727 L 208.432, 160.486 L 241.538, 138.153 z "/>
<path style="fill:rgb(146, 249, 226);fill-opacity:1.0;fill-rule:evenodd;stroke:rgb(0, 0, 0);stroke-width:3.0;" d="M 56.2009, 472.686 L 44.125, 479.632 L 38.8018, 478.212 L 34.0808, 464.445 L 53.3586, 460.271 z "/>
<path style="fill:rgb(24, 231, 237);fill-opacity:1.0;fill-rule:evenodd;stroke:rgb(0, 0, 0);stroke-width:3.0;" d="M 126.322, 527.064 L 126.391, 510.661 L 164.97, 469.223 L 169.909, 466.865 z "/>
<path style="fill:rgb(172, 27, 18);fill-opacity:1.0;fill-rule:evenodd;stroke:rgb(0, 0, 0);stroke-width:3.0;" d="M 173.371, 95.8991 L 125.337, 78.6626 L 145.77, 64.3717 z "/>
<path style="fill:rgb(140, 255, 16);fill-opacity:1.0;fill-rule:evenodd;stroke:rgb(0, 0, 0);stroke-width:3.0;" d="M 198.049, 104.755 L 153.981, 107.251 L 157.61, 90.2434 z "/>
<path style="fill:rgb(255, 255, 91);fill-opacity:1.0;fill-rule:evenodd;stroke:rgb(0, 0, 0);stroke-width:3.0;" d="M 168.54, 121.468 L 158.098, 125.402 L 174.137, 110.71 L 181.553, 105.689 L 187.348, 105.361 z "/>
<path style="fill:rgb(255, 255, 91);fill-opacity:1.0;fill-rule:evenodd;stroke:rgb(0, 0, 0);stroke-width:3.0;" d="M 238.847, 125.402 L 237.968, 121.237 L 247.668, 112.745 L 261.248, 110.784 z "/>
<path style="fill:rgb(255, 255, 91);fill-opacity:1.0;fill-rule:evenodd;stroke:rgb(0, 0, 0);stroke-width:3.0;" d="M 142.058, 174.504 L 120.876, 246.017 L 90.7884, 201.513 L 136.869, 168.949 z "/>
<path style="fill:rgb(23, 228, 126);fill-opacity:1.0;fill-rule:evenodd;stroke:rgb(0, 0, 0);stroke-width:3.0;" d="M 167.701, 435.512 L 161.113, 436.938 L 142.89, 430.486 L 128.489, 414.776 z "/>
<path style="fill:rgb(23, 228, 126);fill-opacity:1.0;fill-rule:evenodd;stroke:rgb(0, 0, 0);stroke-width:3.0;" d="M 175.799, 164.262 L 161.176, 171.334 L 154.298, 158.11 z "/>
<path style="fill:rgb(16, 6, 226);fill-opacity:1.0;fill-rule:evenodd;stroke:rgb(0, 0, 0);stroke-width:3.0;" d="M 22.9857, 257.31 L 20.7849, 261.293 L 13.3238, 268.438 L 9.62194, 266.854 L 6.26725, 261.243 L 14.2923, 255.572 z "/>
<path style="fill:rgb(199, 21, 23);fill-opacity:1.0;fill-rule:evenodd;stroke:rgb(0, 0, 0);stroke-width:3.0;" d="M 211.591, 103.988 L 208.354, 104.171 L 196.652, 90.1842 L 205.578, 72.7266 z "/>
<path style="fill:rgb(74, 0, 255);fill-opacity:1.0;fill-rule:evenodd;stroke:rgb(0, 0, 0);stroke-width:3.0;" d="M 59.6049, 141.918 L 50.1059, 151.081 L 32.0633, 144.66 L 34.6366, 134.159 z "/>
<path style="fill:rgb(255, 4, 56);fill-opacity:1.0;fill-rule:evenodd;stroke:rgb(0, 0, 0);stroke-width:3.0;" d="M 117.834, 83.9096 L 100.592, 95.968 L 6.3365, 76.3326 L 24.4425, 70.6245 L 29.8593, 69.1648 z "/>
<path style="fill:rgb(37, 85, 255);fill-opacity:1.0;fill-rule:evenodd;stroke:rgb(0, 0, 0);stroke-width:3.0;" d="M 114.004, 124.219 L 100.993, 115.384 L 105.49, 109.998 L 112.267, 109.614 z "/>
<path style="fill:rgb(240, 1, 177);fill-opacity:1.0;fill-rule:evenodd;stroke:rgb(0, 0, 0);stroke-width:3.0;" d="M 205.578, 72.7266 L 196.652, 90.1842 L 195.352, 88.6313 L 202.132, 54.8143 z "/>
<path style="fill:rgb(255, 22, 119);fill-opacity:1.0;fill-rule:evenodd;stroke:rgb(0, 0, 0);stroke-width:3.0;" d="M 105.633, 148.673 L 116.044, 166.425 L 110.282, 171.36 L 95.4059, 163.763 L 90.7789, 159.695 L 103.434, 146.487 z "/>
<path style="fill:rgb(255, 136, 17);fill-opacity:1.0;fill-rule:evenodd;stroke:rgb(0, 0, 0);stroke-width:3.0;" d="M 101.321, 272.978 L 114.204, 292.182 L 77.526, 286.502 L 75.1022, 275.791 L 91.0126, 270.916 z "/>
<path style="fill:rgb(163, 89, 255);fill-opacity:1.0;fill-rule:evenodd;stroke:rgb(0, 0, 0);stroke-width:3.0;" d="M 193.262, 207.754 L 179.211, 214.277 L 176.947, 211.853 L 182.476, 199.3 L 187.416, 199.113 z "/>
<path style="fill:rgb(240, 25, 82);fill-opacity:1.0;fill-rule:evenodd;stroke:rgb(0, 0, 0);stroke-width:3.0;" d="M 201.95, 151.226 L 176.619, 163.93 L 171.029, 149.713 L 175.916, 142.319 z "/>
<path style="fill:rgb(243, 228, 12);fill-opacity:1.0;fill-rule:evenodd;stroke:rgb(0, 0, 0);stroke-width:3.0;" d="M 223.195, 140.572 L 201.95, 151.226 L 175.916, 142.319 L 177.112, 140.51 L 198.741, 125.225 z "/>
<path style="fill:rgb(172, 246, 255);fill-opacity:1.0;fill-rule:evenodd;stroke:rgb(0, 0, 0);stroke-width:3.0;" d="M 231.992, 12.0497 L 234.693, 20.4617 L 231.387, 25.586 L 221.272, 11.5681 L 226.414, 7.97216 z "/>
<path style="fill:rgb(75, 175, 228);fill-opacity:1.0;fill-rule:evenodd;stroke:rgb(0, 0, 0);stroke-width:3.0;" d="M 230.119, 268.774 L 214.841, 328.281 L 202.891, 327.981 L 143.236, 263.809 L 146.171, 211.061 L 163.556, 197.518 z "/>
<path style="fill:rgb(255, 25, 255);fill-opacity:1.0;fill-rule:evenodd;stroke:rgb(0, 0, 0);stroke-width:3.0;" d="M 163.556, 197.518 L 146.171, 211.061 L 147.86, 180.716 z "/>
<path style="fill:rgb(70, 246, 215);fill-opacity:1.0;fill-rule:evenodd;stroke:rgb(0, 0, 0);stroke-width:3.0;" d="M 196.4, 183.81 L 198.898, 187.411 L 174.302, 187.151 L 146.036, 171.434 z "/>
<path style="fill:rgb(255, 0, 7);fill-opacity:1.0;fill-rule:evenodd;stroke:rgb(0, 0, 0);stroke-width:3.0;" d="M 181.826, 456.875 L 189.24, 427.998 L 440.391, 288.354 L 479.513, 282.476 z "/>
<path style="fill:rgb(231, 83, 252);fill-opacity:1.0;fill-rule:evenodd;stroke:rgb(0, 0, 0);stroke-width:3.0;" d="M 281.225, 450.231 L 161.038, 537.846 L 181.826, 456.875 L 286.347, 395.642 z "/>
<path style="fill:rgb(11, 47, 255);fill-opacity:1.0;fill-rule:evenodd;stroke:rgb(0, 0, 0);stroke-width:3.0;" d="M 269.517, 115.315 L 262.75, 141.674 L 245.388, 121.134 L 259.486, 111.934 z "/>
<path style="fill:rgb(255, 255, 11);fill-opacity:1.0;fill-rule:evenodd;stroke:rgb(0, 0, 0);stroke-width:3.0;" d="M 155.529, 298.582 L 146.623, 311.747 L 100.003, 331.872 L 84.1705, 329.442 L 75.3855, 324.4 L 112.873, 291.976 z "/>
<path style="fill:rgb(246, 9, 20);fill-opacity:1.0;fill-rule:evenodd;stroke:rgb(0, 0, 0);stroke-width:3.0;" d="M 183.154, 180.555 L 163.455, 175.714 L 163.363, 175.537 L 166.652, 172.347 L 179.598, 171.509 z "/>
<path style="fill:rgb(255, 79, 46);fill-opacity:1.0;fill-rule:evenodd;stroke:rgb(0, 0, 0);stroke-width:3.0;" d="M 60.5844, 259.196 L 43.266, 253.828 L 58.554, 242.414 z "/>
<path style="fill:rgb(255, 0, 189);fill-opacity:1.0;fill-rule:evenodd;stroke:rgb(0, 0, 0);stroke-width:3.0;" d="M 234.773, 193.24 L 211.365, 187.488 L 199.341, 175.305 L 215.245, 169.263 z "/>
<path style="fill:rgb(184, 0, 7);fill-opacity:1.0;fill-rule:evenodd;stroke:rgb(0, 0, 0);stroke-width:3.0;" d="M 248.328, 170.321 L 251.516, 185.429 L 248.636, 196.647 L 234.773, 193.24 L 215.245, 169.263 L 231.021, 163.269 z "/>
<path style="fill:rgb(231, 7, 7);fill-opacity:1.0;fill-rule:evenodd;stroke:rgb(0, 0, 0);stroke-width:3.0;" d="M 143.508, 44.4755 L 136.286, 50.8896 L 129.319, 38.4175 L 134.704, 25.1806 L 137.851, 23.3273 z "/>
<path style="fill:rgb(255, 7, 255);fill-opacity:1.0;fill-rule:evenodd;stroke:rgb(0, 0, 0);stroke-width:3.0;" d="M 166.87, 115.63 L 156.448, 122.687 L 149.407, 123.283 L 145.434, 114.585 L 158.041, 108.427 z "/>
<path style="fill:rgb(243, 255, 60);fill-opacity:1.0;fill-rule:evenodd;stroke:rgb(0, 0, 0);stroke-width:3.0;" d="M 214.817, 191.122 L 213.994, 193.198 L 201.243, 198.589 L 191.502, 198.958 L 199.064, 187.648 z "/>
</svg>