<?xml version="1.0" encoding="iso-8859-1" standalone="no"?>
<!DOCTYPE svg PUBLIC "-//W3C//DTD SVG 1.0//EN" "http://www.w3.org/TR/2001/REC-SVG-20010904/DTD/svg10.dtd">
<svg xmlns="http://www.w3.org/2000/svg" width="800" height="600">
<path style="fill:rgb(0, 0, 0);fill-opacity:0.0;fill-rule:evenodd;stroke:rgb(0, 0, 0);stroke-width:0.0;" d="M 0, 600 L 800, 600 L 800, 0 L 0, 0 z "/>
<path style="fill:rgb(121, 220, 182);fill-opacity:1.0;fill-rule:evenodd;stroke:rgb(0, 0, 0);stroke-width:3.0;" d="M 155.434, 268.015 L 136.555, 287.022 L 121.023, 291.497 L 109.713, 269.798 L 123.883, 260.534 z "/>
<path style="fill:rgb(121, 220, 182);fill-opacity:1.0;fill-rule:evenodd;stroke:rgb(0, 0, 0);stroke-width:3.0;" d="M 473.075, 155.877 L 353.712, 146.574 L 397.89, 125.817 z "/>
<path style="fill:rgb(255, 46, 61);fill-opacity:1.0;fill-rule:evenodd;stroke:rgb(0, 0, 0);stroke-width:3.0;" d="M 72.7229, 166.149 L 58.2542, 182.674 L 51.4285, 165.687 L 64.9671, 159.946 z "/>
<path style="fill:rgb(255, 46, 61);fill-opacity:1.0;fill-rule:evenodd;stroke:rgb(0, 0, 0);stroke-width:3.0;" d="M 147.421, 214.133 L 147.677, 214.644 L 143.542, 227.678 L 137.311, 230.282 L 127.589, 231.072 L 130.039, 207.137 L 134.392, 200.389 z "/>
<path style="fill:rgb(255, 46, 61);fill-opacity:1.0;fill-rule:evenodd;stroke:rgb(0, 0, 0);stroke-width:3.0;" d="M 611.659, 458.808 L 571.065, 465.801 L 578.297, 451.323 z "/>
<path style="fill:rgb(255, 46, 61);fill-opacity:1.0;fill-rule:evenodd;stroke:rgb(0, 0, 0);stroke-width:3.0;" d="M 94.7284, 272.264 L 75.4564, 272.342 L 60.0632, 261.052 z "/>
<path style="fill:rgb(255, 83, 172);fill-opacity:1.0;fill-rule:evenodd;stroke:rgb(0, 0, 0);stroke-width:3.0;" d="M 505.072, 65.8484 L 493.215, 63.7141 L 488.357, 52.3113 L 499.749, 48.1152 z "/>
<path style="fill:rgb(255, 83, 172);fill-opacity:1.0;fill-rule:evenodd;stroke:rgb(0, 0, 0);stroke-width:3.0;" d="M 99.4275, 272.246 L 94.7284, 272.264 L 60.0632, 261.052 L 46.4355, 251.057 L 72.6156, 249.711 z "/>
<path style="fill:rgb(255, 35, 22);fill-opacity:1.0;fill-rule:evenodd;stroke:rgb(0, 0, 0);stroke-width:3.0;" d="M 55.4065, 194.944 L 26.1748, 218.78 L 19.8471, 211.829 L 59.1944, 187.49 z "/>
<path style="fill:rgb(255, 35, 22);fill-opacity:1.0;fill-rule:evenodd;stroke:rgb(0, 0, 0);stroke-width:3.0;" d="M 182.714, 34.7671 L 161.981, 66.261 L 151.726, 58.1806 L 180.844, 32.0032 z "/>
<path style="fill:rgb(128, 255, 24);fill-opacity:1.0;fill-rule:evenodd;stroke:rgb(0, 0, 0);stroke-width:3.0;" d="M 428.689, 288.681 L 424.009, 292.919 L 394.875, 275.851 L 393.393, 274.656 L 396.919, 262.803 z "/>
<path style="fill:rgb(128, 255, 24);fill-opacity:1.0;fill-rule:evenodd;stroke:rgb(0, 0, 0);stroke-width:3.0;" d="M 505.834, 548.455 L 499.497, 566.226 L 225.877, 464.864 L 252.788, 451.679 z "/>
<path style="fill:rgb(32, 231, 249);fill-opacity:1.0;fill-rule:evenodd;stroke:rgb(0, 0, 0);stroke-width:3.0;" d="M 443.032, 186.435 L 436.428, 178.371 L 434.183, 157.356 L 442.385, 154.08 z "/>
<path style="fill:rgb(252, 252, 19);fill-opacity:1.0;fill-rule:evenodd;stroke:rgb(0, 0, 0);stroke-width:3.0;" d="M 112.773, 326.642 L 110.561, 328.652 L 82.8837, 308.736 L 73.6312, 299.516 L 72.6845, 294.613 z "/>
<path style="fill:rgb(252, 252, 19);fill-opacity:1.0;fill-rule:evenodd;stroke:rgb(0, 0, 0);stroke-width:3.0;" d="M 134.507, 121.216 L 135.075, 129.038 L 116.81, 124.161 L 117.112, 117.878 z "/>
<path style="fill:rgb(252, 252, 19);fill-opacity:1.0;fill-rule:evenodd;stroke:rgb(0, 0, 0);stroke-width:3.0;" d="M 114.947, 101.544 L 90.2155, 113.48 L 109.638, 96.0181 z "/>
<path style="fill:rgb(252, 252, 19);fill-opacity:1.0;fill-rule:evenodd;stroke:rgb(0, 0, 0);stroke-width:3.0;" d="M 86.2309, 323.052 L 49.6927, 342.274 L 20.4916, 239.768 L 23.3651, 239.534 z "/>
<path style="fill:rgb(249, 207, 10);fill-opacity:1.0;fill-rule:evenodd;stroke:rgb(0, 0, 0);stroke-width:3.0;" d="M 771.327, 327.944 L 765.9, 344.935 L 639.606, 413.223 L 578.228, 309.602 L 562.785, 258.145 z "/>
<path style="fill:rgb(255, 30, 40);fill-opacity:1.0;fill-rule:evenodd;stroke:rgb(0, 0, 0);stroke-width:3.0;" d="M 341.249, 142.319 L 340.222, 145.522 L 316.006, 143.635 L 330.632, 134.892 z "/>
<path style="fill:rgb(255, 30, 40);fill-opacity:1.0;fill-rule:evenodd;stroke:rgb(0, 0, 0);stroke-width:3.0;" d="M 252.788, 451.679 L 225.877, 464.864 L 194.801, 453.352 L 203.014, 432.643 z "/>
<path style="fill:rgb(255, 30, 40);fill-opacity:1.0;fill-rule:evenodd;stroke:rgb(0, 0, 0);stroke-width:3.0;" d="M 166.047, 16.3442 L 156.812, 31.8669 L 148.217, 30.3645 L 143.296, 23.1824 L 144.709, 14.8837 L 145.499, 14.212 L 159.737, 7.47875 z "/>
<path style="fill:rgb(255, 30, 40);fill-opacity:1.0;fill-rule:evenodd;stroke:rgb(0, 0, 0);stroke-width:3.0;" d="M 586.575, 430.443 L 588.109, 431.68 L 586.516, 434.87 L 576.999, 438.595 L 568.148, 437.303 L 567.895, 437.195 L 572.259, 431.525 L 582.297, 428.935 z "/>
<path style="fill:rgb(16, 243, 255);fill-opacity:1.0;fill-rule:evenodd;stroke:rgb(0, 0, 0);stroke-width:3.0;" d="M 138.212, 79.1054 L 145.137, 86.9741 L 132.247, 93.1947 L 121.789, 85.0941 L 129.03, 78.5848 z "/>
<path style="fill:rgb(255, 255, 21);fill-opacity:1.0;fill-rule:evenodd;stroke:rgb(0, 0, 0);stroke-width:3.0;" d="M 207.763, 208.62 L 201.401, 225.078 L 155.352, 228.818 L 155.381, 228.579 L 193.891, 200.097 z "/>
<path style="fill:rgb(11, 128, 255);fill-opacity:1.0;fill-rule:evenodd;stroke:rgb(0, 0, 0);stroke-width:3.0;" d="M 89.5565, 135.998 L 75.0689, 127.097 L 90.2155, 113.48 L 93.5678, 111.862 L 158.407, 86.5177 z "/>
<path style="fill:rgb(44, 91, 255);fill-opacity:1.0;fill-rule:evenodd;stroke:rgb(0, 0, 0);stroke-width:3.0;" d="M 165.593, 418.331 L 121.998, 426.382 L 37.4706, 395.068 L 38.6728, 393.976 L 76.0022, 384.068 z "/>
<path style="fill:rgb(243, 14, 168);fill-opacity:1.0;fill-rule:evenodd;stroke:rgb(0, 0, 0);stroke-width:3.0;" d="M 38.6289, 88.4157 L 18.5499, 74.2504 L 51.7664, 58.5413 z "/>
<path style="fill:rgb(243, 14, 168);fill-opacity:1.0;fill-rule:evenodd;stroke:rgb(0, 0, 0);stroke-width:3.0;" d="M 150.423, 157.045 L 139.318, 162.856 L 128.461, 159.9 L 128.259, 159.775 L 133.534, 154.543 L 142.505, 151.441 z "/>
<path style="fill:rgb(243, 14, 168);fill-opacity:1.0;fill-rule:evenodd;stroke:rgb(0, 0, 0);stroke-width:3.0;" d="M 76.0022, 384.068 L 38.6728, 393.976 L 57.4042, 376.955 z "/>
<path style="fill:rgb(148, 231, 39);fill-opacity:1.0;fill-rule:evenodd;stroke:rgb(0, 0, 0);stroke-width:3.0;" d="M 639.606, 413.223 L 621.631, 422.943 L 610.605, 417.48 L 602.923, 391.885 L 626.235, 390.649 z "/>
<path style="fill:rgb(148, 231, 39);fill-opacity:1.0;fill-rule:evenodd;stroke:rgb(0, 0, 0);stroke-width:3.0;" d="M 123.19, 220.183 L 123.348, 228.604 L 118.159, 231.837 L 76.1629, 235.247 L 78.2708, 232.746 L 121.171, 219.719 z "/>
<path style="fill:rgb(16, 255, 255);fill-opacity:1.0;fill-rule:evenodd;stroke:rgb(0, 0, 0);stroke-width:3.0;" d="M 38.6289, 88.4157 L 33.3506, 100.418 L 15.7068, 89.8141 L 12.9009, 76.922 L 18.5499, 74.2504 z "/>
<path style="fill:rgb(16, 255, 255);fill-opacity:1.0;fill-rule:evenodd;stroke:rgb(0, 0, 0);stroke-width:3.0;" d="M 105.079, 307.976 L 106.456, 321.595 L 72.6845, 294.613 L 68.9395, 275.218 z "/>
<path style="fill:rgb(16, 255, 255);fill-opacity:1.0;fill-rule:evenodd;stroke:rgb(0, 0, 0);stroke-width:3.0;" d="M 98.5477, 248.378 L 66.6601, 250.017 L 87.0743, 234.361 L 91.0727, 234.037 z "/>
<path style="fill:rgb(255, 252, 187);fill-opacity:1.0;fill-rule:evenodd;stroke:rgb(0, 0, 0);stroke-width:3.0;" d="M 642.384, 523.367 L 603.839, 552.111 L 578.977, 533.098 L 639.866, 514.976 z "/>
<path style="fill:rgb(13, 130, 249);fill-opacity:1.0;fill-rule:evenodd;stroke:rgb(0, 0, 0);stroke-width:3.0;" d="M 93.6027, 214.556 L 76.1629, 235.247 L 66.605, 236.023 L 34.4007, 219.83 L 40.1319, 215.44 L 84.7267, 213.268 z "/>
<path style="fill:rgb(255, 255, 48);fill-opacity:1.0;fill-rule:evenodd;stroke:rgb(0, 0, 0);stroke-width:3.0;" d="M 555.47, 531.829 L 541.028, 559.203 L 507.738, 543.114 L 528.134, 485.918 z "/>
<path style="fill:rgb(255, 255, 48);fill-opacity:1.0;fill-rule:evenodd;stroke:rgb(0, 0, 0);stroke-width:3.0;" d="M 547.494, 398.926 L 526.799, 382.237 L 550.333, 360.973 z "/>
<path style="fill:rgb(255, 255, 48);fill-opacity:1.0;fill-rule:evenodd;stroke:rgb(0, 0, 0);stroke-width:3.0;" d="M 437.977, 276.067 L 443.585, 299.555 L 413.757, 267.191 z "/>
<path style="fill:rgb(119, 10, 255);fill-opacity:1.0;fill-rule:evenodd;stroke:rgb(0, 0, 0);stroke-width:3.0;" d="M 120.001, 289.537 L 121.378, 292.179 L 116.119, 300.458 L 107.949, 288.565 L 109.208, 280.466 z "/>
<path style="fill:rgb(119, 10, 255);fill-opacity:1.0;fill-rule:evenodd;stroke:rgb(0, 0, 0);stroke-width:3.0;" d="M 584.193, 580.067 L 541.028, 559.203 L 555.47, 531.829 z "/>
<path style="fill:rgb(148, 98, 255);fill-opacity:1.0;fill-rule:evenodd;stroke:rgb(0, 0, 0);stroke-width:3.0;" d="M 150.789, 89.4953 L 99.9327, 109.374 L 97.9377, 109.753 L 151.275, 84.0117 z "/>
<path style="fill:rgb(255, 45, 25);fill-opacity:1.0;fill-rule:evenodd;stroke:rgb(0, 0, 0);stroke-width:3.0;" d="M 95.6157, 139.72 L 92.8967, 143.382 L 78.7629, 140.067 L 73.8679, 131.337 L 76.6126, 128.045 z "/>
<path style="fill:rgb(255, 45, 25);fill-opacity:1.0;fill-rule:evenodd;stroke:rgb(0, 0, 0);stroke-width:3.0;" d="M 387.261, 242.583 L 383.736, 250.096 L 373.138, 258.321 L 352.051, 241.316 L 367.637, 227.792 z "/>
<path style="fill:rgb(255, 45, 25);fill-opacity:1.0;fill-rule:evenodd;stroke:rgb(0, 0, 0);stroke-width:3.0;" d="M 127.714, 191.578 L 122.273, 192.149 L 119.576, 188.765 L 129.953, 174.417 L 134.994, 174.263 z "/>
<path style="fill:rgb(255, 45, 25);fill-opacity:1.0;fill-rule:evenodd;stroke:rgb(0, 0, 0);stroke-width:3.0;" d="M 179.133, 77.8138 L 175.735, 93.5451 L 170.134, 91.0926 L 166.545, 80.6691 L 175.536, 74.2076 z "/>
<path style="fill:rgb(255, 45, 25);fill-opacity:1.0;fill-rule:evenodd;stroke:rgb(0, 0, 0);stroke-width:3.0;" d="M 363.049, 204.408 L 357.025, 216.166 L 341.047, 229.354 L 339.9, 198.013 z "/>
<path style="fill:rgb(255, 45, 25);fill-opacity:1.0;fill-rule:evenodd;stroke:rgb(0, 0, 0);stroke-width:3.0;" d="M 152.814, 67.2908 L 156.073, 72.3488 L 139.923, 79.2025 L 136.76, 79.0231 L 145.313, 65.0114 z "/>
<path style="fill:rgb(255, 45, 25);fill-opacity:1.0;fill-rule:evenodd;stroke:rgb(0, 0, 0);stroke-width:3.0;" d="M 753.058, 385.14 L 735.308, 381.045 L 714.279, 372.847 L 765.9, 344.935 z "/>
<path style="fill:rgb(252, 255, 55);fill-opacity:1.0;fill-rule:evenodd;stroke:rgb(0, 0, 0);stroke-width:3.0;" d="M 149.61, 6.7591 L 148.64, 12.4711 L 145.472, 14.225 L 138.423, 17.5585 L 135.679, 16.8927 L 133.258, 14.392 L 133.024, 13.9995 L 144.452, 5.49282 z "/>
<path style="fill:rgb(252, 255, 55);fill-opacity:1.0;fill-rule:evenodd;stroke:rgb(0, 0, 0);stroke-width:3.0;" d="M 438.488, 301.401 L 443.673, 304.439 L 448.493, 319.09 L 420.71, 296.685 z "/>
<path style="fill:rgb(74, 103, 209);fill-opacity:1.0;fill-rule:evenodd;stroke:rgb(0, 0, 0);stroke-width:3.0;" d="M 586.01, 485.902 L 548.723, 510.526 L 569.49, 468.953 L 578.907, 468.536 z "/>
<path style="fill:rgb(74, 103, 209);fill-opacity:1.0;fill-rule:evenodd;stroke:rgb(0, 0, 0);stroke-width:3.0;" d="M 487.593, 62.7022 L 495.651, 151.084 L 458.326, 63.3725 L 469.156, 59.3835 z "/>
<path style="fill:rgb(74, 103, 209);fill-opacity:1.0;fill-rule:evenodd;stroke:rgb(0, 0, 0);stroke-width:3.0;" d="M 93.8029, 110.255 L 75.0689, 127.097 L 38.8777, 104.862 z "/>
<path style="fill:rgb(220, 47, 220);fill-opacity:1.0;fill-rule:evenodd;stroke:rgb(0, 0, 0);stroke-width:3.0;" d="M 165.288, 141.917 L 155.674, 138.156 L 168.302, 98.7441 L 174.848, 97.6546 z "/>
<path style="fill:rgb(220, 47, 220);fill-opacity:1.0;fill-rule:evenodd;stroke:rgb(0, 0, 0);stroke-width:3.0;" d="M 628.014, 475.487 L 597.057, 512.91 L 578.907, 468.536 L 625.311, 466.479 z "/>
<path style="fill:rgb(255, 19, 187);fill-opacity:1.0;fill-rule:evenodd;stroke:rgb(0, 0, 0);stroke-width:3.0;" d="M 597.057, 512.91 L 580.808, 532.553 L 559.651, 538.85 L 546.015, 515.948 L 548.723, 510.526 L 586.01, 485.902 z "/>
<path style="fill:rgb(255, 19, 187);fill-opacity:1.0;fill-rule:evenodd;stroke:rgb(0, 0, 0);stroke-width:3.0;" d="M 156.152, 222.409 L 154.937, 222.916 L 153.923, 194.955 L 155.933, 188.618 L 160.434, 188.146 z "/>
<path style="fill:rgb(255, 19, 187);fill-opacity:1.0;fill-rule:evenodd;stroke:rgb(0, 0, 0);stroke-width:3.0;" d="M 353.311, 43.2981 L 311.224, 131.498 L 286.148, 37.3761 z "/>
<path style="fill:rgb(255, 19, 187);fill-opacity:1.0;fill-rule:evenodd;stroke:rgb(0, 0, 0);stroke-width:3.0;" d="M 440.019, 211.981 L 432.982, 217.247 L 405.084, 204.603 L 426.608, 158.733 L 433.704, 152.876 z "/>
<path style="fill:rgb(255, 19, 187);fill-opacity:1.0;fill-rule:evenodd;stroke:rgb(0, 0, 0);stroke-width:3.0;" d="M 639.866, 514.976 L 594.908, 528.356 L 619.016, 486.365 L 628.014, 475.487 z "/>
<path style="fill:rgb(255, 19, 187);fill-opacity:1.0;fill-rule:evenodd;stroke:rgb(0, 0, 0);stroke-width:3.0;" d="M 216.488, 201.882 L 227.182, 220.55 L 202.855, 205.604 L 202.33, 197.598 z "/>
<path style="fill:rgb(255, 19, 187);fill-opacity:1.0;fill-rule:evenodd;stroke:rgb(0, 0, 0);stroke-width:3.0;" d="M 365.254, 126.002 L 363.429, 141.051 L 362.217, 141.942 L 355.112, 130.548 L 361.526, 124.114 z "/>
<path style="fill:rgb(255, 19, 187);fill-opacity:1.0;fill-rule:evenodd;stroke:rgb(0, 0, 0);stroke-width:3.0;" d="M 409.716, 109.084 L 411.196, 131.137 L 353.368, 108.017 L 384.667, 79.5749 z "/>
<path style="fill:rgb(78, 74, 234);fill-opacity:1.0;fill-rule:evenodd;stroke:rgb(0, 0, 0);stroke-width:3.0;" d="M 407.454, 75.3679 L 409.716, 109.084 L 384.667, 79.5749 L 394.521, 70.6207 z "/>
<path style="fill:rgb(179, 182, 192);fill-opacity:1.0;fill-rule:evenodd;stroke:rgb(0, 0, 0);stroke-width:3.0;" d="M 367.326, 192.537 L 369.072, 206.072 L 349.644, 200.705 L 346.046, 190.122 L 349.502, 172.302 z "/>
<path style="fill:rgb(255, 95, 7);fill-opacity:1.0;fill-rule:evenodd;stroke:rgb(0, 0, 0);stroke-width:3.0;" d="M 406.74, 259.577 L 409.066, 263.946 L 407.977, 271.81 L 385.037, 253.124 L 394.362, 246.146 z "/>
<path style="fill:rgb(246, 5, 10);fill-opacity:1.0;fill-rule:evenodd;stroke:rgb(0, 0, 0);stroke-width:3.0;" d="M 767.108, 346.555 L 782.803, 502.797 L 724.676, 473.997 L 765.994, 344.64 z "/>
<path style="fill:rgb(246, 5, 10);fill-opacity:1.0;fill-rule:evenodd;stroke:rgb(0, 0, 0);stroke-width:3.0;" d="M 406.081, 171.846 L 391.251, 185.986 L 389.865, 184.106 L 390.569, 180.93 L 402.725, 160.528 L 407.535, 159.733 z "/>
<path style="fill:rgb(246, 5, 10);fill-opacity:1.0;fill-rule:evenodd;stroke:rgb(0, 0, 0);stroke-width:3.0;" d="M 386.116, 186.69 L 378.388, 195.89 L 368.067, 176.293 L 381.357, 175.333 z "/>
<path style="fill:rgb(246, 5, 10);fill-opacity:1.0;fill-rule:evenodd;stroke:rgb(0, 0, 0);stroke-width:3.0;" d="M 114.276, 177.059 L 101.665, 170.168 L 119.291, 157.122 z "/>
<path style="fill:rgb(246, 5, 10);fill-opacity:1.0;fill-rule:evenodd;stroke:rgb(0, 0, 0);stroke-width:3.0;" d="M 401.561, 212.11 L 387.261, 242.583 L 382.431, 238.943 L 388.854, 220.231 L 396.666, 208.713 z "/>
<path style="fill:rgb(246, 5, 10);fill-opacity:1.0;fill-rule:evenodd;stroke:rgb(0, 0, 0);stroke-width:3.0;" d="M 399.659, 204.3 L 388.428, 220.858 L 380.283, 216.567 L 388.475, 203.468 z "/>
<path style="fill:rgb(246, 5, 10);fill-opacity:1.0;fill-rule:evenodd;stroke:rgb(0, 0, 0);stroke-width:3.0;" d="M 38.5401, 104.655 L 57.3639, 119.211 L 32.2047, 117.845 L 23.0906, 95.1631 z "/>
<path style="fill:rgb(223, 6, 62);fill-opacity:1.0;fill-rule:evenodd;stroke:rgb(0, 0, 0);stroke-width:3.0;" d="M 614.063, 370.099 L 599.464, 380.357 L 593.354, 360.001 L 604.32, 353.652 z "/>
<path style="fill:rgb(255, 37, 7);fill-opacity:1.0;fill-rule:evenodd;stroke:rgb(0, 0, 0);stroke-width:3.0;" d="M 314.342, 192.385 L 303.424, 202.101 L 296.529, 196.542 L 313.534, 181.842 z "/>
<path style="fill:rgb(255, 234, 16);fill-opacity:1.0;fill-rule:evenodd;stroke:rgb(0, 0, 0);stroke-width:3.0;" d="M 623.828, 461.538 L 625.311, 466.479 L 569.49, 468.953 L 571.065, 465.801 L 611.659, 458.808 z "/>
<path style="fill:rgb(255, 234, 16);fill-opacity:1.0;fill-rule:evenodd;stroke:rgb(0, 0, 0);stroke-width:3.0;" d="M 138.472, 49.1778 L 119.42, 87.2246 L 93.8029, 110.255 L 38.8777, 104.862 L 34.088, 101.92 L 63.5039, 52.9903 L 131.584, 20.7929 z "/>
<path style="fill:rgb(255, 197, 19);fill-opacity:1.0;fill-rule:evenodd;stroke:rgb(0, 0, 0);stroke-width:3.0;" d="M 388.428, 220.858 L 378.282, 235.816 L 360.508, 222.419 L 381.093, 216.994 z "/>
<path style="fill:rgb(255, 197, 19);fill-opacity:1.0;fill-rule:evenodd;stroke:rgb(0, 0, 0);stroke-width:3.0;" d="M 381.093, 216.994 L 360.508, 222.419 L 356.769, 219.601 L 364.977, 209.603 L 365.79, 208.931 z "/>
<path style="fill:rgb(255, 197, 19);fill-opacity:1.0;fill-rule:evenodd;stroke:rgb(0, 0, 0);stroke-width:3.0;" d="M 49.0476, 340.01 L 59.1264, 375.39 L 56.1512, 378.094 L 23.9351, 396.689 L 17.1935, 394.093 L 25.4359, 309.978 z "/>
<path style="fill:rgb(255, 197, 19);fill-opacity:1.0;fill-rule:evenodd;stroke:rgb(0, 0, 0);stroke-width:3.0;" d="M 363.156, 250.272 L 214.375, 234.318 L 275.028, 179.203 z "/>
<path style="fill:rgb(255, 108, 49);fill-opacity:1.0;fill-rule:evenodd;stroke:rgb(0, 0, 0);stroke-width:3.0;" d="M 418.285, 49.027 L 298.744, 157.652 L 353.311, 43.2981 z "/>
<path style="fill:rgb(255, 249, 36);fill-opacity:1.0;fill-rule:evenodd;stroke:rgb(0, 0, 0);stroke-width:3.0;" d="M 364.312, 169.163 L 366.862, 188.933 L 365.563, 190.534 L 349.561, 172.37 L 354.457, 168.506 L 363.204, 167.06 z "/>
<path style="fill:rgb(255, 249, 36);fill-opacity:1.0;fill-rule:evenodd;stroke:rgb(0, 0, 0);stroke-width:3.0;" d="M 66.605, 236.023 L 38.1307, 238.336 L 28.2587, 230.838 L 26.4009, 225.959 L 34.4007, 219.83 z "/>
<path style="fill:rgb(255, 249, 36);fill-opacity:1.0;fill-rule:evenodd;stroke:rgb(0, 0, 0);stroke-width:3.0;" d="M 339.602, 170.962 L 319.982, 174.204 L 317.717, 170.027 L 318.312, 164.937 L 331.615, 158.626 z "/>
<path style="fill:rgb(234, 44, 27);fill-opacity:1.0;fill-rule:evenodd;stroke:rgb(0, 0, 0);stroke-width:3.0;" d="M 432.982, 217.247 L 432.088, 217.916 L 395.231, 225.599 L 405.084, 204.603 z "/>
<path style="fill:rgb(234, 44, 27);fill-opacity:1.0;fill-rule:evenodd;stroke:rgb(0, 0, 0);stroke-width:3.0;" d="M 77.8018, 174.387 L 73.2621, 190.058 L 68.0372, 194.061 L 65.4021, 189.884 L 75.6485, 172.743 z "/>
<path style="fill:rgb(255, 123, 22);fill-opacity:1.0;fill-rule:evenodd;stroke:rgb(0, 0, 0);stroke-width:3.0;" d="M 433.779, 152.814 L 429.869, 156.041 L 376.116, 164.926 L 371, 149.627 L 371.64, 147.971 z "/>
<path style="fill:rgb(255, 123, 22);fill-opacity:1.0;fill-rule:evenodd;stroke:rgb(0, 0, 0);stroke-width:3.0;" d="M 66.6601, 250.017 L 46.4355, 251.057 L 46.0219, 250.754 L 67.4393, 235.956 L 87.0743, 234.361 z "/>
<path style="fill:rgb(20, 57, 228);fill-opacity:1.0;fill-rule:evenodd;stroke:rgb(0, 0, 0);stroke-width:3.0;" d="M 436.968, 266.351 L 403.348, 255.897 L 394.395, 246.182 L 431.001, 227.933 z "/>
<path style="fill:rgb(234, 14, 66);fill-opacity:1.0;fill-rule:evenodd;stroke:rgb(0, 0, 0);stroke-width:3.0;" d="M 752.255, 387.653 L 724.676, 473.997 L 682.973, 453.336 L 716.372, 373.662 z "/>
<path style="fill:rgb(46, 56, 255);fill-opacity:1.0;fill-rule:evenodd;stroke:rgb(0, 0, 0);stroke-width:3.0;" d="M 69.8108, 365.681 L 59.1264, 375.39 L 54.6367, 359.629 L 69.2242, 331.999 L 80.6963, 325.963 z "/>
<path style="fill:rgb(46, 56, 255);fill-opacity:1.0;fill-rule:evenodd;stroke:rgb(0, 0, 0);stroke-width:3.0;" d="M 716.372, 373.662 L 682.973, 453.336 L 621.631, 422.943 L 714.279, 372.847 z "/>
<path style="fill:rgb(184, 0, 26);fill-opacity:1.0;fill-rule:evenodd;stroke:rgb(0, 0, 0);stroke-width:3.0;" d="M 348.921, 146.2 L 344.038, 170.228 L 339.602, 170.962 L 322.221, 144.119 z "/>
<path style="fill:rgb(240, 231, 83);fill-opacity:1.0;fill-rule:evenodd;stroke:rgb(0, 0, 0);stroke-width:3.0;" d="M 623.411, 460.148 L 601.653, 442.602 L 612.861, 424.997 z "/>
<path style="fill:rgb(34, 240, 234);fill-opacity:1.0;fill-rule:evenodd;stroke:rgb(0, 0, 0);stroke-width:3.0;" d="M 48.9298, 77.2322 L 42.767, 79.0058 L 49.785, 63.0469 L 61.3696, 56.5404 z "/>
<path style="fill:rgb(255, 148, 7);fill-opacity:1.0;fill-rule:evenodd;stroke:rgb(0, 0, 0);stroke-width:3.0;" d="M 654.993, 565.38 L 644.063, 577.899 L 579.773, 570.057 L 642.384, 523.367 z "/>
<path style="fill:rgb(255, 148, 7);fill-opacity:1.0;fill-rule:evenodd;stroke:rgb(0, 0, 0);stroke-width:3.0;" d="M 158.177, 233.17 L 196.837, 250.254 L 172.769, 272.124 L 102.205, 255.395 L 95.0416, 241.651 L 93.969, 233.802 L 141.071, 229.977 z "/>
<path style="fill:rgb(255, 40, 22);fill-opacity:1.0;fill-rule:evenodd;stroke:rgb(0, 0, 0);stroke-width:3.0;" d="M 205.847, 242.067 L 196.837, 250.254 L 158.177, 233.17 z "/>
<path style="fill:rgb(212, 237, 12);fill-opacity:1.0;fill-rule:evenodd;stroke:rgb(0, 0, 0);stroke-width:3.0;" d="M 98.6166, 339.506 L 69.8108, 365.681 L 80.6963, 325.963 L 86.2309, 323.052 z "/>
<path style="fill:rgb(212, 237, 12);fill-opacity:1.0;fill-rule:evenodd;stroke:rgb(0, 0, 0);stroke-width:3.0;" d="M 604.32, 353.652 L 593.616, 359.85 L 588.235, 342.946 L 578.228, 309.602 z "/>
<path style="fill:rgb(255, 89, 36);fill-opacity:1.0;fill-rule:evenodd;stroke:rgb(0, 0, 0);stroke-width:3.0;" d="M 187.39, 41.6789 L 164.422, 77.6665 L 157.026, 81.236 L 160.052, 69.192 L 178.044, 41.8601 L 186.317, 40.0925 z "/>
<path style="fill:rgb(255, 89, 36);fill-opacity:1.0;fill-rule:evenodd;stroke:rgb(0, 0, 0);stroke-width:3.0;" d="M 505.072, 65.8484 L 533.505, 160.587 L 520.347, 159.561 L 492.558, 63.5959 z "/>
<path style="fill:rgb(255, 23, 255);fill-opacity:1.0;fill-rule:evenodd;stroke:rgb(0, 0, 0);stroke-width:3.0;" d="M 546.015, 515.948 L 533.785, 495.409 L 561.933, 484.081 z "/>
<path style="fill:rgb(8, 70, 255);fill-opacity:1.0;fill-rule:evenodd;stroke:rgb(0, 0, 0);stroke-width:3.0;" d="M 558.107, 458.042 L 564.43, 479.084 L 561.933, 484.081 L 533.785, 495.409 L 528.134, 485.918 L 540.949, 449.979 z "/>
<path style="fill:rgb(231, 1, 20);fill-opacity:1.0;fill-rule:evenodd;stroke:rgb(0, 0, 0);stroke-width:3.0;" d="M 287.925, 167.483 L 258.261, 194.439 L 236.78, 161.93 L 272.144, 149.551 z "/>
<path style="fill:rgb(231, 1, 20);fill-opacity:1.0;fill-rule:evenodd;stroke:rgb(0, 0, 0);stroke-width:3.0;" d="M 492.388, 354.488 L 353.625, 412.904 L 330.589, 399.703 L 368.605, 372.345 L 448.329, 318.957 z "/>
<path style="fill:rgb(231, 1, 20);fill-opacity:1.0;fill-rule:evenodd;stroke:rgb(0, 0, 0);stroke-width:3.0;" d="M 363.156, 250.272 L 442.218, 314.029 L 199.397, 247.927 L 214.375, 234.318 z "/>
<path style="fill:rgb(231, 1, 20);fill-opacity:1.0;fill-rule:evenodd;stroke:rgb(0, 0, 0);stroke-width:3.0;" d="M 190.93, 202.287 L 188.982, 203.728 L 159.749, 201.904 L 163.192, 196.654 z "/>
<path style="fill:rgb(231, 1, 20);fill-opacity:1.0;fill-rule:evenodd;stroke:rgb(0, 0, 0);stroke-width:3.0;" d="M 155.674, 138.156 L 140.195, 132.1 L 130.701, 106.429 L 133.283, 104.573 L 168.302, 98.7441 z "/>
<path style="fill:rgb(255, 255, 13);fill-opacity:1.0;fill-rule:evenodd;stroke:rgb(0, 0, 0);stroke-width:3.0;" d="M 512.648, 132.972 L 510.866, 139.153 L 493.69, 129.573 L 488.929, 77.351 L 495.828, 74.8878 z "/>
<path style="fill:rgb(255, 255, 13);fill-opacity:1.0;fill-rule:evenodd;stroke:rgb(0, 0, 0);stroke-width:3.0;" d="M 272.144, 149.551 L 169.882, 185.347 L 157.545, 177.767 L 180.716, 70.485 L 194.097, 60.8685 z "/>
<path style="fill:rgb(215, 189, 255);fill-opacity:1.0;fill-rule:evenodd;stroke:rgb(0, 0, 0);stroke-width:3.0;" d="M 153.747, 188.847 L 133.614, 190.959 L 129.837, 186.529 L 131.989, 181.411 L 150.352, 178.917 z "/>
<path style="fill:rgb(243, 5, 8);fill-opacity:1.0;fill-rule:evenodd;stroke:rgb(0, 0, 0);stroke-width:3.0;" d="M 49.0476, 340.01 L 27.6064, 312.738 L 35.328, 291.849 z "/>
<path style="fill:rgb(249, 2, 10);fill-opacity:1.0;fill-rule:evenodd;stroke:rgb(0, 0, 0);stroke-width:3.0;" d="M 179.215, 447.578 L 151.958, 437.48 L 182.46, 432.424 z "/>
<path style="fill:rgb(255, 199, 12);fill-opacity:1.0;fill-rule:evenodd;stroke:rgb(0, 0, 0);stroke-width:3.0;" d="M 35.328, 291.849 L 33.2692, 297.418 L 25.506, 271.46 L 27.3186, 263.733 z "/>
<path style="fill:rgb(255, 38, 39);fill-opacity:1.0;fill-rule:evenodd;stroke:rgb(0, 0, 0);stroke-width:3.0;" d="M 85.3458, 197.168 L 79.5797, 213.518 L 60.1687, 214.464 L 60.1035, 214.44 L 79.7016, 196.025 z "/>
<path style="fill:rgb(255, 38, 39);fill-opacity:1.0;fill-rule:evenodd;stroke:rgb(0, 0, 0);stroke-width:3.0;" d="M 556.55, 406.23 L 520.143, 508.327 L 353.625, 412.904 L 492.388, 354.488 z "/>
<path style="fill:rgb(234, 10, 255);fill-opacity:1.0;fill-rule:evenodd;stroke:rgb(0, 0, 0);stroke-width:3.0;" d="M 134.652, 142.524 L 132.979, 144.172 L 104.65, 145.27 L 94.4293, 138.991 z "/>
<path style="fill:rgb(220, 255, 11);fill-opacity:1.0;fill-rule:evenodd;stroke:rgb(0, 0, 0);stroke-width:3.0;" d="M 623.411, 460.148 L 623.828, 461.538 L 610.977, 458.655 L 586.869, 434.163 L 588.109, 431.68 z "/>
<path style="fill:rgb(220, 255, 11);fill-opacity:1.0;fill-rule:evenodd;stroke:rgb(0, 0, 0);stroke-width:3.0;" d="M 121.388, 306.03 L 105.706, 308.544 L 96.3155, 300.032 L 96.1547, 287.523 z "/>
<path style="fill:rgb(237, 3, 11);fill-opacity:1.0;fill-rule:evenodd;stroke:rgb(0, 0, 0);stroke-width:3.0;" d="M 97.3655, 199.934 L 96.1254, 208.48 L 84.402, 201.979 L 90.1868, 195.084 L 95.9273, 191.47 z "/>
<path style="fill:rgb(237, 3, 11);fill-opacity:1.0;fill-rule:evenodd;stroke:rgb(0, 0, 0);stroke-width:3.0;" d="M 54.6876, 43.3668 L 26.6646, 57.1167 L 14.4945, 40.4979 L 74.3959, 19.0463 z "/>
<path style="fill:rgb(237, 3, 11);fill-opacity:1.0;fill-rule:evenodd;stroke:rgb(0, 0, 0);stroke-width:3.0;" d="M 500.72, 158.031 L 547.77, 258.926 L 477.692, 342.637 L 451.742, 321.709 L 444.357, 252.584 L 442.373, 153.484 z "/>
<path style="fill:rgb(237, 3, 11);fill-opacity:1.0;fill-rule:evenodd;stroke:rgb(0, 0, 0);stroke-width:3.0;" d="M 123.1, 215.371 L 123.162, 218.683 L 104.038, 222.205 L 108.722, 208.384 z "/>
<path style="fill:rgb(39, 42, 249);fill-opacity:1.0;fill-rule:evenodd;stroke:rgb(0, 0, 0);stroke-width:3.0;" d="M 123.676, 172.432 L 118.68, 179.465 L 114.276, 177.059 L 119.291, 157.122 L 119.33, 157.094 z "/>
<path style="fill:rgb(39, 42, 249);fill-opacity:1.0;fill-rule:evenodd;stroke:rgb(0, 0, 0);stroke-width:3.0;" d="M 144.726, 297.607 L 140.12, 285.994 L 165.579, 278.658 z "/>
<path style="fill:rgb(255, 1, 18);fill-opacity:1.0;fill-rule:evenodd;stroke:rgb(0, 0, 0);stroke-width:3.0;" d="M 584.405, 330.185 L 526.799, 382.237 L 477.692, 342.637 L 558.995, 245.517 z "/>
<path style="fill:rgb(255, 223, 14);fill-opacity:1.0;fill-rule:evenodd;stroke:rgb(0, 0, 0);stroke-width:3.0;" d="M 38.4717, 118.185 L 54.3507, 141.033 L 36.0598, 127.439 L 32.2047, 117.845 z "/>
<path style="fill:rgb(255, 223, 14);fill-opacity:1.0;fill-rule:evenodd;stroke:rgb(0, 0, 0);stroke-width:3.0;" d="M 33.2692, 297.418 L 29.5391, 307.51 L 21.2423, 289.637 L 25.506, 271.46 z "/>
<path style="fill:rgb(255, 223, 14);fill-opacity:1.0;fill-rule:evenodd;stroke:rgb(0, 0, 0);stroke-width:3.0;" d="M 597.322, 439.109 L 575.351, 421.392 L 593.563, 409.929 z "/>
<path style="fill:rgb(194, 184, 177);fill-opacity:1.0;fill-rule:evenodd;stroke:rgb(0, 0, 0);stroke-width:3.0;" d="M 200.625, 54.6757 L 197.747, 56.9863 L 184.103, 36.8207 L 186.41, 30.1105 L 187.149, 29.4207 z "/>
<path style="fill:rgb(76, 5, 212);fill-opacity:1.0;fill-rule:evenodd;stroke:rgb(0, 0, 0);stroke-width:3.0;" d="M 612.861, 424.997 L 601.653, 442.602 L 597.322, 439.109 L 594.507, 417.259 L 608.307, 409.825 z "/>
<path style="fill:rgb(255, 255, 43);fill-opacity:1.0;fill-rule:evenodd;stroke:rgb(0, 0, 0);stroke-width:3.0;" d="M 787.021, 540.348 L 725.519, 546.049 L 726.58, 542.883 L 788.176, 538.747 z "/>
<path style="fill:rgb(249, 24, 12);fill-opacity:1.0;fill-rule:evenodd;stroke:rgb(0, 0, 0);stroke-width:3.0;" d="M 725.519, 546.049 L 651.257, 552.932 L 649.789, 548.04 L 726.58, 542.883 z "/>
<path style="fill:rgb(255, 1, 255);fill-opacity:1.0;fill-rule:evenodd;stroke:rgb(0, 0, 0);stroke-width:3.0;" d="M 119.215, 320.788 L 112.773, 326.642 L 106.456, 321.595 L 105.079, 307.976 z "/>
<path style="fill:rgb(255, 243, 27);fill-opacity:1.0;fill-rule:evenodd;stroke:rgb(0, 0, 0);stroke-width:3.0;" d="M 122.749, 196.565 L 121.005, 201.423 L 110.758, 206.362 L 105.942, 202.631 L 108.824, 196.496 L 111.539, 193.275 L 122.665, 192.108 z "/>
<path style="fill:rgb(255, 31, 234);fill-opacity:1.0;fill-rule:evenodd;stroke:rgb(0, 0, 0);stroke-width:3.0;" d="M 390.909, 257.908 L 395.321, 268.176 L 393.393, 274.656 L 382.111, 265.557 L 387.133, 254.832 z "/>
<path style="fill:rgb(249, 67, 9);fill-opacity:1.0;fill-rule:evenodd;stroke:rgb(0, 0, 0);stroke-width:3.0;" d="M 397.89, 125.817 L 370.983, 138.459 L 363.818, 137.844 L 366.031, 119.595 L 370.675, 114.936 z "/>
<path style="fill:rgb(17, 64, 234);fill-opacity:1.0;fill-rule:evenodd;stroke:rgb(0, 0, 0);stroke-width:3.0;" d="M 196.401, 430.114 L 151.958, 437.48 L 151.575, 437.339 L 172.631, 421.023 z "/>
<path style="fill:rgb(243, 22, 21);fill-opacity:1.0;fill-rule:evenodd;stroke:rgb(0, 0, 0);stroke-width:3.0;" d="M 172.631, 421.023 L 151.575, 437.339 L 121.998, 426.382 L 165.593, 418.331 z "/>
<path style="fill:rgb(255, 24, 11);fill-opacity:1.0;fill-rule:evenodd;stroke:rgb(0, 0, 0);stroke-width:3.0;" d="M 317.062, 143.717 L 299.385, 175.516 L 290.883, 175.856 L 281.627, 173.207 L 314.315, 143.503 z "/>
<path style="fill:rgb(255, 24, 11);fill-opacity:1.0;fill-rule:evenodd;stroke:rgb(0, 0, 0);stroke-width:3.0;" d="M 92.0461, 178.167 L 85.3458, 197.168 L 68.4482, 193.746 L 90.4969, 176.854 z "/>
<path style="fill:rgb(255, 24, 11);fill-opacity:1.0;fill-rule:evenodd;stroke:rgb(0, 0, 0);stroke-width:3.0;" d="M 605.991, 402.106 L 575.351, 421.392 L 550.256, 401.154 L 553.738, 357.896 L 584.405, 330.185 z "/>
<path style="fill:rgb(110, 255, 255);fill-opacity:1.0;fill-rule:evenodd;stroke:rgb(0, 0, 0);stroke-width:3.0;" d="M 130.192, 137.658 L 127.134, 141.864 L 123.845, 141.575 L 95.7742, 131.529 L 99.7825, 128.649 z "/>
<path style="fill:rgb(255, 42, 16);fill-opacity:1.0;fill-rule:evenodd;stroke:rgb(0, 0, 0);stroke-width:3.0;" d="M 550.256, 401.154 L 547.494, 398.926 L 550.333, 360.973 L 553.738, 357.896 z "/>
<path style="fill:rgb(255, 42, 16);fill-opacity:1.0;fill-rule:evenodd;stroke:rgb(0, 0, 0);stroke-width:3.0;" d="M 78.0074, 168.797 L 62.8602, 194.136 L 58.2542, 182.674 L 67.113, 172.556 L 74.6555, 168.499 z "/>
<path style="fill:rgb(255, 42, 16);fill-opacity:1.0;fill-rule:evenodd;stroke:rgb(0, 0, 0);stroke-width:3.0;" d="M 67.2175, 266.299 L 75.3962, 308.658 L 39.3513, 260.772 L 45.56, 250.415 z "/>
<path style="fill:rgb(255, 42, 16);fill-opacity:1.0;fill-rule:evenodd;stroke:rgb(0, 0, 0);stroke-width:3.0;" d="M 515.125, 141.528 L 520.347, 159.561 L 496.252, 157.683 L 493.69, 129.573 z "/>
<path style="fill:rgb(42, 121, 255);fill-opacity:1.0;fill-rule:evenodd;stroke:rgb(0, 0, 0);stroke-width:3.0;" d="M 198.32, 57.8338 L 183.606, 68.4083 L 164.422, 77.6665 L 187.39, 41.6789 z "/>
<path style="fill:rgb(255, 32, 175);fill-opacity:1.0;fill-rule:evenodd;stroke:rgb(0, 0, 0);stroke-width:3.0;" d="M 577.394, 441.222 L 578.133, 451.652 L 573.972, 459.981 L 555.774, 452.944 L 567.895, 437.195 z "/>
<path style="fill:rgb(255, 18, 115);fill-opacity:1.0;fill-rule:evenodd;stroke:rgb(0, 0, 0);stroke-width:3.0;" d="M 154.937, 222.916 L 143.542, 227.678 L 153.923, 194.955 z "/>
<path style="fill:rgb(249, 252, 15);fill-opacity:1.0;fill-rule:evenodd;stroke:rgb(0, 0, 0);stroke-width:3.0;" d="M 594.908, 528.356 L 580.808, 532.553 L 619.016, 486.365 z "/>
<path style="fill:rgb(249, 252, 15);fill-opacity:1.0;fill-rule:evenodd;stroke:rgb(0, 0, 0);stroke-width:3.0;" d="M 343.036, 136.751 L 341.249, 142.319 L 326.835, 132.236 L 336.317, 125.393 z "/>
<path style="fill:rgb(255, 5, 11);fill-opacity:1.0;fill-rule:evenodd;stroke:rgb(0, 0, 0);stroke-width:3.0;" d="M 29.5391, 307.51 L 27.6064, 312.738 L 18.5312, 301.195 L 21.2423, 289.637 z "/>
<path style="fill:rgb(252, 3, 85);fill-opacity:1.0;fill-rule:evenodd;stroke:rgb(0, 0, 0);stroke-width:3.0;" d="M 286.148, 37.3761 L 311.224, 131.498 L 298.744, 157.652 L 287.925, 167.483 L 194.097, 60.8685 L 233.274, 32.7141 z "/>
<path style="fill:rgb(223, 44, 170);fill-opacity:1.0;fill-rule:evenodd;stroke:rgb(0, 0, 0);stroke-width:3.0;" d="M 320.76, 144.005 L 317.174, 174.669 L 316.089, 174.848 L 299.385, 175.516 L 317.062, 143.717 z "/>
<path style="fill:rgb(255, 37, 175);fill-opacity:1.0;fill-rule:evenodd;stroke:rgb(0, 0, 0);stroke-width:3.0;" d="M 442.218, 314.029 L 448.329, 318.957 L 329.06, 398.827 L 147.704, 294.901 L 199.397, 247.927 z "/>
<path style="fill:rgb(75, 100, 255);fill-opacity:1.0;fill-rule:evenodd;stroke:rgb(0, 0, 0);stroke-width:3.0;" d="M 160.657, 148.603 L 157.044, 153.58 L 150.423, 157.045 L 132.276, 144.199 L 150.747, 143.483 z "/>
<path style="fill:rgb(21, 0, 255);fill-opacity:1.0;fill-rule:evenodd;stroke:rgb(0, 0, 0);stroke-width:3.0;" d="M 493.215, 63.7141 L 469.156, 59.3835 L 488.357, 52.3113 z "/>
<path style="fill:rgb(209, 255, 60);fill-opacity:1.0;fill-rule:evenodd;stroke:rgb(0, 0, 0);stroke-width:3.0;" d="M 520.143, 508.327 L 512.68, 529.257 L 342.846, 406.727 z "/>
<path style="fill:rgb(209, 255, 60);fill-opacity:1.0;fill-rule:evenodd;stroke:rgb(0, 0, 0);stroke-width:3.0;" d="M 188.982, 203.728 L 180.977, 209.649 L 157.236, 213.733 L 158.471, 203.851 L 159.749, 201.904 z "/>
<path style="fill:rgb(209, 255, 60);fill-opacity:1.0;fill-rule:evenodd;stroke:rgb(0, 0, 0);stroke-width:3.0;" d="M 171.405, 98.2277 L 133.283, 104.573 L 152.398, 90.8362 z "/>
<path style="fill:rgb(146, 71, 177);fill-opacity:1.0;fill-rule:evenodd;stroke:rgb(0, 0, 0);stroke-width:3.0;" d="M 610.977, 458.655 L 578.297, 451.323 L 586.869, 434.163 z "/>
<path style="fill:rgb(146, 71, 177);fill-opacity:1.0;fill-rule:evenodd;stroke:rgb(0, 0, 0);stroke-width:3.0;" d="M 339.932, 198.871 L 341.047, 229.354 L 339.155, 230.916 L 315.855, 212.126 L 314.678, 196.765 z "/>
<path style="fill:rgb(255, 10, 61);fill-opacity:1.0;fill-rule:evenodd;stroke:rgb(0, 0, 0);stroke-width:3.0;" d="M 131.104, 291.867 L 134.003, 307.35 L 130.802, 310.259 L 121.023, 291.497 L 128.551, 289.328 z "/>
<path style="fill:rgb(255, 10, 61);fill-opacity:1.0;fill-rule:evenodd;stroke:rgb(0, 0, 0);stroke-width:3.0;" d="M 442.504, 235.239 L 446.132, 269.201 L 436.968, 266.351 L 431.501, 231.15 z "/>
<path style="fill:rgb(240, 3, 8);fill-opacity:1.0;fill-rule:evenodd;stroke:rgb(0, 0, 0);stroke-width:3.0;" d="M 371.64, 147.971 L 371.108, 149.346 L 356.609, 165.555 L 354.863, 157.177 L 358.03, 146.91 z "/>
<path style="fill:rgb(240, 3, 8);fill-opacity:1.0;fill-rule:evenodd;stroke:rgb(0, 0, 0);stroke-width:3.0;" d="M 57.3639, 119.211 L 58.0533, 119.744 L 66.3407, 136.191 L 58.8803, 144.399 L 54.3507, 141.033 L 38.4717, 118.185 z "/>
<path style="fill:rgb(220, 177, 6);fill-opacity:1.0;fill-rule:evenodd;stroke:rgb(0, 0, 0);stroke-width:3.0;" d="M 197.235, 430.433 L 200.371, 439.307 L 194.801, 453.352 L 184.326, 449.471 L 195.276, 430.3 L 196.401, 430.114 z "/>
<path style="fill:rgb(220, 177, 6);fill-opacity:1.0;fill-rule:evenodd;stroke:rgb(0, 0, 0);stroke-width:3.0;" d="M 603.839, 552.111 L 589.748, 562.619 L 569.075, 542.733 L 584.687, 537.465 z "/>
<path style="fill:rgb(255, 95, 25);fill-opacity:1.0;fill-rule:evenodd;stroke:rgb(0, 0, 0);stroke-width:3.0;" d="M 342.846, 406.727 L 512.68, 529.257 L 505.834, 548.455 L 57.4042, 376.955 L 147.704, 294.901 z "/>
<path style="fill:rgb(252, 35, 249);fill-opacity:1.0;fill-rule:evenodd;stroke:rgb(0, 0, 0);stroke-width:3.0;" d="M 258.261, 194.439 L 241.681, 209.505 L 177.683, 190.14 L 169.882, 185.347 L 236.78, 161.93 z "/>
<path style="fill:rgb(204, 179, 21);fill-opacity:1.0;fill-rule:evenodd;stroke:rgb(0, 0, 0);stroke-width:3.0;" d="M 135.075, 129.038 L 135.646, 136.899 L 130.332, 137.7 L 126.214, 136.48 L 116.766, 125.072 L 116.81, 124.161 z "/>
<path style="fill:rgb(255, 249, 9);fill-opacity:1.0;fill-rule:evenodd;stroke:rgb(0, 0, 0);stroke-width:3.0;" d="M 362.217, 141.942 L 359.818, 143.705 L 353.712, 146.574 L 340.222, 145.522 L 340.24, 145.466 L 355.112, 130.548 z "/>
<path style="fill:rgb(255, 249, 9);fill-opacity:1.0;fill-rule:evenodd;stroke:rgb(0, 0, 0);stroke-width:3.0;" d="M 768.235, 348.494 L 779.098, 367.175 L 774.507, 393.69 L 771.923, 394.492 L 767.287, 348.337 z "/>
<path style="fill:rgb(255, 249, 9);fill-opacity:1.0;fill-rule:evenodd;stroke:rgb(0, 0, 0);stroke-width:3.0;" d="M 230.597, 34.6376 L 201.204, 55.7612 L 196.594, 47.1215 L 205.089, 25.003 z "/>
<path style="fill:rgb(226, 1, 14);fill-opacity:1.0;fill-rule:evenodd;stroke:rgb(0, 0, 0);stroke-width:3.0;" d="M 101.381, 155.549 L 89.3407, 164.631 L 83.3986, 156.176 L 89.488, 147.974 L 106.618, 147.726 z "/>
<path style="fill:rgb(32, 252, 105);fill-opacity:1.0;fill-rule:evenodd;stroke:rgb(0, 0, 0);stroke-width:3.0;" d="M 172.769, 272.124 L 165.579, 278.658 L 136.555, 287.022 L 155.434, 268.015 z "/>
<path style="fill:rgb(7, 252, 79);fill-opacity:1.0;fill-rule:evenodd;stroke:rgb(0, 0, 0);stroke-width:3.0;" d="M 187.804, 238.699 L 179.223, 237.098 L 173.402, 227.352 L 188.467, 226.129 z "/>
<path style="fill:rgb(255, 255, 69);fill-opacity:1.0;fill-rule:evenodd;stroke:rgb(0, 0, 0);stroke-width:3.0;" d="M 207.31, 19.2204 L 200.472, 37.0256 L 195.709, 29.7645 L 205.991, 13.5337 z "/>
<path style="fill:rgb(252, 255, 59);fill-opacity:1.0;fill-rule:evenodd;stroke:rgb(0, 0, 0);stroke-width:3.0;" d="M 207.202, 11.6219 L 195.709, 29.7645 L 191.119, 22.7658 L 205.38, 9.94467 z "/>
<path style="fill:rgb(12, 4, 255);fill-opacity:1.0;fill-rule:evenodd;stroke:rgb(0, 0, 0);stroke-width:3.0;" d="M 722.355, 579.135 L 712.314, 547.273 L 772.315, 541.711 z "/>
<path style="fill:rgb(246, 243, 37);fill-opacity:1.0;fill-rule:evenodd;stroke:rgb(0, 0, 0);stroke-width:3.0;" d="M 406.699, 201.16 L 402.919, 209.216 L 399.784, 204.052 L 400.971, 184.342 L 401.075, 184.082 L 411.869, 181.136 z "/>
<path style="fill:rgb(168, 49, 255);fill-opacity:1.0;fill-rule:evenodd;stroke:rgb(0, 0, 0);stroke-width:3.0;" d="M 241.681, 209.505 L 228.58, 221.409 L 227.182, 220.55 L 216.488, 201.882 z "/>
<path style="fill:rgb(51, 234, 237);fill-opacity:1.0;fill-rule:evenodd;stroke:rgb(0, 0, 0);stroke-width:3.0;" d="M 208.325, 237.804 L 207.98, 239.693 L 198.886, 240.015 L 193.543, 225.717 L 203.984, 224.869 z "/>
<path style="fill:rgb(255, 20, 103);fill-opacity:1.0;fill-rule:evenodd;stroke:rgb(0, 0, 0);stroke-width:3.0;" d="M 79.7016, 196.025 L 60.1035, 214.44 L 48.5949, 210.173 L 49.0732, 208.59 L 68.4482, 193.746 z "/>
<path style="fill:rgb(6, 255, 255);fill-opacity:1.0;fill-rule:evenodd;stroke:rgb(0, 0, 0);stroke-width:3.0;" d="M 606.739, 404.601 L 605.696, 411.232 L 594.507, 417.259 L 593.662, 410.704 L 597.886, 407.208 L 605.991, 402.106 z "/>
<path style="fill:rgb(255, 228, 38);fill-opacity:1.0;fill-rule:evenodd;stroke:rgb(0, 0, 0);stroke-width:3.0;" d="M 45.56, 250.415 L 39.3513, 260.772 L 32.8103, 252.082 L 35.3746, 242.944 z "/>
<path style="fill:rgb(255, 121, 234);fill-opacity:1.0;fill-rule:evenodd;stroke:rgb(0, 0, 0);stroke-width:3.0;" d="M 24.1679, 277.165 L 19.2446, 298.154 L 12.1795, 270.536 z "/>
<path style="fill:rgb(255, 11, 161);fill-opacity:1.0;fill-rule:evenodd;stroke:rgb(0, 0, 0);stroke-width:3.0;" d="M 339.932, 198.871 L 327.737, 197.854 L 313.706, 184.085 L 313.534, 181.842 L 322.933, 173.717 L 338.915, 171.075 z "/>
<path style="fill:rgb(16, 255, 249);fill-opacity:1.0;fill-rule:evenodd;stroke:rgb(0, 0, 0);stroke-width:3.0;" d="M 495.651, 151.084 L 495.678, 151.383 L 493.281, 157.452 L 473.075, 155.877 L 411.196, 131.137 L 407.896, 81.9467 L 458.326, 63.3725 z "/>
<path style="fill:rgb(255, 107, 43);fill-opacity:1.0;fill-rule:evenodd;stroke:rgb(0, 0, 0);stroke-width:3.0;" d="M 44.6867, 55.708 L 36.5648, 65.7306 L 33.8968, 66.9924 L 26.6646, 57.1167 L 42.3271, 49.4317 z "/>
<path style="fill:rgb(249, 1, 8);fill-opacity:1.0;fill-rule:evenodd;stroke:rgb(0, 0, 0);stroke-width:3.0;" d="M 533.505, 160.587 L 558.995, 245.517 L 547.77, 258.926 L 500.72, 158.031 z "/>
<path style="fill:rgb(46, 0, 220);fill-opacity:1.0;fill-rule:evenodd;stroke:rgb(0, 0, 0);stroke-width:3.0;" d="M 89.7429, 251.88 L 86.5766, 259.723 L 85.2807, 260.356 L 72.6156, 249.711 L 86.115, 249.017 z "/>
<path style="fill:rgb(255, 2, 226);fill-opacity:1.0;fill-rule:evenodd;stroke:rgb(0, 0, 0);stroke-width:3.0;" d="M 620.237, 380.524 L 600.706, 384.498 L 600.172, 382.719 L 609.69, 374.29 L 616.522, 374.251 z "/>
<path style="fill:rgb(255, 163, 7);fill-opacity:1.0;fill-rule:evenodd;stroke:rgb(0, 0, 0);stroke-width:3.0;" d="M 385.037, 253.124 L 383.068, 251.521 L 395.231, 225.599 L 432.088, 217.916 z "/>
</svg>