<?xml version="1.0" encoding="iso-8859-1" standalone="no"?>
<!DOCTYPE svg PUBLIC "-//W3C//DTD SVG 1.0//EN" "http://www.w3.org/TR/2001/REC-SVG-20010904/DTD/svg10.dtd">
<svg xmlns="http://www.w3.org/2000/svg" width="800" height="600">
<path style="fill:rgb(0, 0, 0);fill-opacity:0.0;fill-rule:evenodd;stroke:rgb(0, 0, 0);stroke-width:0.0;" d="M 0, 600 L 800, 600 L 800, 0 L 0, 0 z "/>
<path style="fill:rgb(237, 54, 255);fill-opacity:1.0;fill-rule:evenodd;stroke:rgb(0, 0, 0);stroke-width:3.0;" d="M 747.221, 123.756 L 725.882, 135.658 L 721.936, 121.028 L 741.607, 117.603 z "/>
<path style="fill:rgb(237, 54, 255);fill-opacity:1.0;fill-rule:evenodd;stroke:rgb(0, 0, 0);stroke-width:3.0;" d="M 652.534, 533.811 L 646.35, 532.391 L 646.137, 475.334 L 648.398, 474.698 z "/>
<path style="fill:rgb(237, 54, 255);fill-opacity:1.0;fill-rule:evenodd;stroke:rgb(0, 0, 0);stroke-width:3.0;" d="M 517.751, 478.585 L 488.513, 493.596 L 483.606, 458.833 z "/>
<path style="fill:rgb(237, 54, 255);fill-opacity:1.0;fill-rule:evenodd;stroke:rgb(0, 0, 0);stroke-width:3.0;" d="M 566.797, 410.968 L 516.16, 465.639 L 574.86, 384.812 z "/>
<path style="fill:rgb(255, 10, 64);fill-opacity:1.0;fill-rule:evenodd;stroke:rgb(0, 0, 0);stroke-width:3.0;" d="M 597.779, 329.136 L 558.294, 332.111 L 586.357, 314.97 z "/>
<path style="fill:rgb(255, 10, 64);fill-opacity:1.0;fill-rule:evenodd;stroke:rgb(0, 0, 0);stroke-width:3.0;" d="M 330.1, 531.542 L 326.31, 519.86 L 341.168, 510.402 z "/>
<path style="fill:rgb(255, 10, 64);fill-opacity:1.0;fill-rule:evenodd;stroke:rgb(0, 0, 0);stroke-width:3.0;" d="M 719.439, 275.4 L 703.31, 279.7 L 679.628, 273.448 L 663.839, 262.295 L 670.545, 253.061 z "/>
<path style="fill:rgb(255, 10, 64);fill-opacity:1.0;fill-rule:evenodd;stroke:rgb(0, 0, 0);stroke-width:3.0;" d="M 363.359, 557.852 L 299.034, 590.878 L 299.044, 590.86 L 345.856, 550.794 z "/>
<path style="fill:rgb(255, 10, 64);fill-opacity:1.0;fill-rule:evenodd;stroke:rgb(0, 0, 0);stroke-width:3.0;" d="M 734.831, 314.773 L 712.404, 320.506 L 712.954, 316.505 L 728.887, 306.395 z "/>
<path style="fill:rgb(30, 215, 108);fill-opacity:1.0;fill-rule:evenodd;stroke:rgb(0, 0, 0);stroke-width:3.0;" d="M 644.272, 236.012 L 630.902, 222.478 L 663.802, 191.461 z "/>
<path style="fill:rgb(255, 25, 197);fill-opacity:1.0;fill-rule:evenodd;stroke:rgb(0, 0, 0);stroke-width:3.0;" d="M 634.133, 351.961 L 639.005, 362.43 L 626.873, 362.14 L 626.158, 351.332 z "/>
<path style="fill:rgb(255, 25, 197);fill-opacity:1.0;fill-rule:evenodd;stroke:rgb(0, 0, 0);stroke-width:3.0;" d="M 335.989, 509.258 L 326.944, 511.677 L 337.001, 490.866 L 340.549, 487.039 z "/>
<path style="fill:rgb(255, 25, 197);fill-opacity:1.0;fill-rule:evenodd;stroke:rgb(0, 0, 0);stroke-width:3.0;" d="M 708.135, 465.418 L 704.11, 500.376 L 666.909, 528.691 L 683.013, 432.791 z "/>
<path style="fill:rgb(204, 255, 15);fill-opacity:1.0;fill-rule:evenodd;stroke:rgb(0, 0, 0);stroke-width:3.0;" d="M 101.654, 557.486 L 89.9848, 563.416 L 72.2939, 561.321 L 103.066, 535.825 z "/>
<path style="fill:rgb(204, 255, 15);fill-opacity:1.0;fill-rule:evenodd;stroke:rgb(0, 0, 0);stroke-width:3.0;" d="M 789.641, 340.91 L 772.985, 343.469 L 768.553, 341.996 L 769.617, 326.38 z "/>
<path style="fill:rgb(234, 112, 9);fill-opacity:1.0;fill-rule:evenodd;stroke:rgb(0, 0, 0);stroke-width:3.0;" d="M 509.922, 393.396 L 482.933, 427.361 L 478.191, 413.879 L 496.645, 389.708 z "/>
<path style="fill:rgb(234, 112, 9);fill-opacity:1.0;fill-rule:evenodd;stroke:rgb(0, 0, 0);stroke-width:3.0;" d="M 337.177, 548.012 L 338.768, 556.231 L 333.38, 561.472 L 299.044, 590.86 L 321.765, 547.462 L 332.182, 531.829 z "/>
<path style="fill:rgb(234, 112, 9);fill-opacity:1.0;fill-rule:evenodd;stroke:rgb(0, 0, 0);stroke-width:3.0;" d="M 111.396, 515.806 L 110.606, 516.686 L 104.385, 515.595 L 105.089, 504.796 L 115.39, 502.907 z "/>
<path style="fill:rgb(234, 112, 9);fill-opacity:1.0;fill-rule:evenodd;stroke:rgb(0, 0, 0);stroke-width:3.0;" d="M 458.698, 408.911 L 457.514, 421.725 L 438.733, 424.319 L 427.526, 416.944 L 455.236, 408.658 z "/>
<path style="fill:rgb(154, 255, 15);fill-opacity:1.0;fill-rule:evenodd;stroke:rgb(0, 0, 0);stroke-width:3.0;" d="M 463.832, 347.544 L 468.944, 382.013 L 466.771, 381.409 L 455.784, 350.172 L 459.88, 346.645 z "/>
<path style="fill:rgb(249, 60, 246);fill-opacity:1.0;fill-rule:evenodd;stroke:rgb(0, 0, 0);stroke-width:3.0;" d="M 634.354, 325.983 L 633.291, 346.479 L 631.857, 347.453 L 625.824, 346.271 L 625.428, 340.292 L 628.583, 317.189 z "/>
<path style="fill:rgb(249, 60, 246);fill-opacity:1.0;fill-rule:evenodd;stroke:rgb(0, 0, 0);stroke-width:3.0;" d="M 511.426, 472.157 L 494.852, 461.25 L 484.216, 431.009 L 543.799, 427.581 z "/>
<path style="fill:rgb(252, 231, 71);fill-opacity:1.0;fill-rule:evenodd;stroke:rgb(0, 0, 0);stroke-width:3.0;" d="M 681.177, 238.421 L 671.882, 251.22 L 660.75, 225.771 L 656.327, 208.513 L 663.802, 191.461 L 673.736, 182.096 z "/>
<path style="fill:rgb(255, 16, 88);fill-opacity:1.0;fill-rule:evenodd;stroke:rgb(0, 0, 0);stroke-width:3.0;" d="M 450.413, 382.922 L 447.324, 387.352 L 439.255, 378.152 L 438.107, 375.383 L 451.763, 374.636 z "/>
<path style="fill:rgb(15, 170, 255);fill-opacity:1.0;fill-rule:evenodd;stroke:rgb(0, 0, 0);stroke-width:3.0;" d="M 587.83, 271.835 L 591.903, 283.394 L 572.502, 297.788 L 551.593, 271.858 L 582.336, 261.254 z "/>
<path style="fill:rgb(207, 255, 12);fill-opacity:1.0;fill-rule:evenodd;stroke:rgb(0, 0, 0);stroke-width:3.0;" d="M 370.067, 455.202 L 365.347, 460.293 L 358.865, 437.783 L 399.027, 399.889 z "/>
<path style="fill:rgb(207, 255, 12);fill-opacity:1.0;fill-rule:evenodd;stroke:rgb(0, 0, 0);stroke-width:3.0;" d="M 308.455, 533.209 L 303.546, 542.695 L 277.718, 524.841 L 284.31, 523.078 z "/>
<path style="fill:rgb(207, 255, 12);fill-opacity:1.0;fill-rule:evenodd;stroke:rgb(0, 0, 0);stroke-width:3.0;" d="M 695.18, 353.299 L 692.754, 355.582 L 684.77, 357.351 L 694.895, 334.88 z "/>
<path style="fill:rgb(124, 249, 150);fill-opacity:1.0;fill-rule:evenodd;stroke:rgb(0, 0, 0);stroke-width:3.0;" d="M 706.417, 280.521 L 715.75, 287.293 L 699.276, 309.55 L 661.177, 268.576 z "/>
<path style="fill:rgb(124, 249, 150);fill-opacity:1.0;fill-rule:evenodd;stroke:rgb(0, 0, 0);stroke-width:3.0;" d="M 435.183, 399.984 L 408.968, 390.485 L 423.459, 378.008 z "/>
<path style="fill:rgb(255, 126, 12);fill-opacity:1.0;fill-rule:evenodd;stroke:rgb(0, 0, 0);stroke-width:3.0;" d="M 120.866, 485.019 L 120.876, 485.193 L 116.409, 499.617 L 105.224, 502.728 L 107.218, 472.145 z "/>
<path style="fill:rgb(255, 126, 12);fill-opacity:1.0;fill-rule:evenodd;stroke:rgb(0, 0, 0);stroke-width:3.0;" d="M 549.256, 456.96 L 545.142, 466.748 L 528.592, 469.363 L 524.848, 456.259 L 530.214, 450.466 z "/>
<path style="fill:rgb(95, 255, 255);fill-opacity:1.0;fill-rule:evenodd;stroke:rgb(0, 0, 0);stroke-width:3.0;" d="M 732.637, 287.443 L 735.811, 290.608 L 738.385, 299.758 L 737.446, 303.036 L 706.417, 280.521 z "/>
<path style="fill:rgb(50, 255, 21);fill-opacity:1.0;fill-rule:evenodd;stroke:rgb(0, 0, 0);stroke-width:3.0;" d="M 628.076, 311.538 L 616.309, 327.74 L 607.906, 328.373 L 610.602, 299.353 z "/>
<path style="fill:rgb(50, 255, 21);fill-opacity:1.0;fill-rule:evenodd;stroke:rgb(0, 0, 0);stroke-width:3.0;" d="M 446.921, 511.469 L 437.237, 519.922 L 389.915, 544.218 L 377.876, 523.389 L 398.753, 505.521 z "/>
<path style="fill:rgb(157, 249, 255);fill-opacity:1.0;fill-rule:evenodd;stroke:rgb(0, 0, 0);stroke-width:3.0;" d="M 586.357, 314.97 L 558.294, 332.111 L 555.887, 332.292 L 549.954, 327.309 L 550.852, 270.939 z "/>
<path style="fill:rgb(157, 249, 255);fill-opacity:1.0;fill-rule:evenodd;stroke:rgb(0, 0, 0);stroke-width:3.0;" d="M 373.467, 552.663 L 363.359, 557.852 L 345.856, 550.794 L 361.905, 537.058 z "/>
<path style="fill:rgb(157, 249, 255);fill-opacity:1.0;fill-rule:evenodd;stroke:rgb(0, 0, 0);stroke-width:3.0;" d="M 438.214, 375.64 L 429.907, 390.094 L 423.459, 378.008 L 425.72, 376.06 L 438.107, 375.383 z "/>
<path style="fill:rgb(152, 199, 255);fill-opacity:1.0;fill-rule:evenodd;stroke:rgb(0, 0, 0);stroke-width:3.0;" d="M 704.515, 415.086 L 703.618, 414.775 L 702.375, 404.06 L 726.369, 397.337 z "/>
<path style="fill:rgb(152, 199, 255);fill-opacity:1.0;fill-rule:evenodd;stroke:rgb(0, 0, 0);stroke-width:3.0;" d="M 626.549, 357.25 L 626.873, 362.14 L 620.925, 361.997 L 607.651, 355.522 L 614.019, 352.119 z "/>
<path style="fill:rgb(255, 152, 13);fill-opacity:1.0;fill-rule:evenodd;stroke:rgb(0, 0, 0);stroke-width:3.0;" d="M 416.901, 409.952 L 420.683, 438.368 L 357.985, 478.281 L 399.688, 398.625 z "/>
<path style="fill:rgb(246, 39, 112);fill-opacity:1.0;fill-rule:evenodd;stroke:rgb(0, 0, 0);stroke-width:3.0;" d="M 697.73, 555.776 L 692.64, 554.851 L 687.303, 548.917 L 688.468, 540.591 L 700.576, 531.065 z "/>
<path style="fill:rgb(132, 255, 255);fill-opacity:1.0;fill-rule:evenodd;stroke:rgb(0, 0, 0);stroke-width:3.0;" d="M 496.645, 389.708 L 489.071, 399.628 L 474.962, 404.699 L 466.771, 381.409 z "/>
<path style="fill:rgb(255, 204, 16);fill-opacity:1.0;fill-rule:evenodd;stroke:rgb(0, 0, 0);stroke-width:3.0;" d="M 365.347, 460.293 L 336.595, 491.303 L 335.637, 453.633 L 357.907, 434.455 z "/>
<path style="fill:rgb(255, 204, 16);fill-opacity:1.0;fill-rule:evenodd;stroke:rgb(0, 0, 0);stroke-width:3.0;" d="M 386.655, 563.864 L 384.058, 566.617 L 371.115, 570.31 L 375.427, 551.657 L 396.217, 540.983 z "/>
<path style="fill:rgb(255, 204, 16);fill-opacity:1.0;fill-rule:evenodd;stroke:rgb(0, 0, 0);stroke-width:3.0;" d="M 603.52, 316.361 L 589.057, 318.319 L 586.968, 315.728 L 593.849, 288.917 z "/>
<path style="fill:rgb(255, 204, 16);fill-opacity:1.0;fill-rule:evenodd;stroke:rgb(0, 0, 0);stroke-width:3.0;" d="M 460.108, 409.015 L 443.755, 407.817 L 410.889, 402.078 L 402.353, 398.962 L 418.625, 393.984 z "/>
<path style="fill:rgb(255, 204, 16);fill-opacity:1.0;fill-rule:evenodd;stroke:rgb(0, 0, 0);stroke-width:3.0;" d="M 332.072, 579.72 L 303.429, 588.622 L 357.926, 560.642 z "/>
<path style="fill:rgb(255, 12, 22);fill-opacity:1.0;fill-rule:evenodd;stroke:rgb(0, 0, 0);stroke-width:3.0;" d="M 718.95, 179.744 L 719.851, 185.17 L 719.661, 185.432 L 693.394, 186.02 L 673.507, 180.358 L 673.352, 179.19 z "/>
<path style="fill:rgb(249, 217, 31);fill-opacity:1.0;fill-rule:evenodd;stroke:rgb(0, 0, 0);stroke-width:3.0;" d="M 430.137, 509.396 L 347.065, 499.137 L 351.966, 489.777 L 424.847, 469.653 z "/>
<path style="fill:rgb(249, 237, 30);fill-opacity:1.0;fill-rule:evenodd;stroke:rgb(0, 0, 0);stroke-width:3.0;" d="M 314.659, 514.962 L 264.033, 528.501 L 332.868, 495.323 z "/>
<path style="fill:rgb(249, 237, 30);fill-opacity:1.0;fill-rule:evenodd;stroke:rgb(0, 0, 0);stroke-width:3.0;" d="M 785.106, 381.203 L 764.67, 389.213 L 780.915, 366.167 z "/>
<path style="fill:rgb(249, 237, 30);fill-opacity:1.0;fill-rule:evenodd;stroke:rgb(0, 0, 0);stroke-width:3.0;" d="M 424.847, 469.653 L 351.966, 489.777 L 357.985, 478.281 L 420.683, 438.368 z "/>
<path style="fill:rgb(237, 6, 17);fill-opacity:1.0;fill-rule:evenodd;stroke:rgb(0, 0, 0);stroke-width:3.0;" d="M 632.405, 224 L 666.549, 258.564 L 656.952, 271.778 L 615.273, 249.059 L 617.677, 223.18 z "/>
<path style="fill:rgb(255, 24, 194);fill-opacity:1.0;fill-rule:evenodd;stroke:rgb(0, 0, 0);stroke-width:3.0;" d="M 721.786, 542.656 L 709.412, 545.945 L 707.987, 544.671 L 711.065, 530.986 z "/>
<path style="fill:rgb(255, 24, 194);fill-opacity:1.0;fill-rule:evenodd;stroke:rgb(0, 0, 0);stroke-width:3.0;" d="M 659.71, 221.714 L 667.313, 251.378 L 657.63, 249.535 L 644.272, 236.012 L 651.683, 219.107 z "/>
<path style="fill:rgb(249, 85, 170);fill-opacity:1.0;fill-rule:evenodd;stroke:rgb(0, 0, 0);stroke-width:3.0;" d="M 743.55, 514.322 L 725.068, 525.019 L 702.339, 515.748 L 702.368, 515.504 L 733.436, 506.468 z "/>
<path style="fill:rgb(215, 255, 17);fill-opacity:1.0;fill-rule:evenodd;stroke:rgb(0, 0, 0);stroke-width:3.0;" d="M 656.952, 271.778 L 654.899, 274.605 L 615.14, 250.499 L 615.273, 249.059 z "/>
<path style="fill:rgb(37, 39, 246);fill-opacity:1.0;fill-rule:evenodd;stroke:rgb(0, 0, 0);stroke-width:3.0;" d="M 372.742, 563.269 L 360.477, 565.736 L 360.213, 559.468 L 375.427, 551.657 z "/>
<path style="fill:rgb(37, 39, 246);fill-opacity:1.0;fill-rule:evenodd;stroke:rgb(0, 0, 0);stroke-width:3.0;" d="M 326.944, 511.677 L 314.659, 514.962 L 337.001, 490.866 z "/>
<path style="fill:rgb(33, 217, 252);fill-opacity:1.0;fill-rule:evenodd;stroke:rgb(0, 0, 0);stroke-width:3.0;" d="M 756.31, 345.049 L 739.028, 355.466 L 737.483, 355.652 L 719.94, 318.58 L 734.831, 314.773 z "/>
<path style="fill:rgb(255, 255, 19);fill-opacity:1.0;fill-rule:evenodd;stroke:rgb(0, 0, 0);stroke-width:3.0;" d="M 336.595, 491.303 L 332.868, 495.323 L 264.033, 528.501 L 241.783, 534.451 L 335.637, 453.633 z "/>
<path style="fill:rgb(255, 255, 19);fill-opacity:1.0;fill-rule:evenodd;stroke:rgb(0, 0, 0);stroke-width:3.0;" d="M 787.595, 301.954 L 782.799, 307.622 L 769.39, 316.264 L 760.256, 299.562 L 761.272, 295.004 z "/>
<path style="fill:rgb(240, 255, 10);fill-opacity:1.0;fill-rule:evenodd;stroke:rgb(0, 0, 0);stroke-width:3.0;" d="M 558.771, 406.966 L 543.799, 427.581 L 484.216, 431.009 L 482.933, 427.361 L 509.922, 393.396 z "/>
<path style="fill:rgb(240, 255, 10);fill-opacity:1.0;fill-rule:evenodd;stroke:rgb(0, 0, 0);stroke-width:3.0;" d="M 687.003, 409.027 L 677.343, 466.554 L 667.157, 469.42 L 685.596, 408.54 z "/>
<path style="fill:rgb(18, 24, 255);fill-opacity:1.0;fill-rule:evenodd;stroke:rgb(0, 0, 0);stroke-width:3.0;" d="M 717.145, 145.662 L 735.997, 162.939 L 720.069, 184.871 L 714.68, 145.042 z "/>
<path style="fill:rgb(18, 165, 255);fill-opacity:1.0;fill-rule:evenodd;stroke:rgb(0, 0, 0);stroke-width:3.0;" d="M 482.831, 453.339 L 488.513, 493.596 L 452.386, 512.144 L 430.137, 509.396 L 416.901, 409.952 z "/>
<path style="fill:rgb(27, 94, 212);fill-opacity:1.0;fill-rule:evenodd;stroke:rgb(0, 0, 0);stroke-width:3.0;" d="M 776.058, 328.458 L 769.39, 316.264 L 787.361, 304.682 z "/>
<path style="fill:rgb(223, 255, 10);fill-opacity:1.0;fill-rule:evenodd;stroke:rgb(0, 0, 0);stroke-width:3.0;" d="M 414.933, 560.138 L 405.614, 566.448 L 401.478, 554.101 L 406.262, 547.032 z "/>
<path style="fill:rgb(60, 88, 255);fill-opacity:1.0;fill-rule:evenodd;stroke:rgb(0, 0, 0);stroke-width:3.0;" d="M 550.852, 270.939 L 549.954, 327.309 L 515.722, 298.559 L 549.6, 269.386 z "/>
<path style="fill:rgb(60, 88, 255);fill-opacity:1.0;fill-rule:evenodd;stroke:rgb(0, 0, 0);stroke-width:3.0;" d="M 673.43, 179.774 L 651.504, 189.107 L 652.18, 181.052 L 671.411, 164.492 z "/>
<path style="fill:rgb(60, 88, 255);fill-opacity:1.0;fill-rule:evenodd;stroke:rgb(0, 0, 0);stroke-width:3.0;" d="M 752.067, 290.306 L 750.272, 292.099 L 703.31, 279.7 L 719.439, 275.4 z "/>
<path style="fill:rgb(255, 4, 17);fill-opacity:1.0;fill-rule:evenodd;stroke:rgb(0, 0, 0);stroke-width:3.0;" d="M 652.534, 533.811 L 654.823, 566.522 L 646.457, 561.016 L 646.35, 532.391 z "/>
<path style="fill:rgb(255, 22, 81);fill-opacity:1.0;fill-rule:evenodd;stroke:rgb(0, 0, 0);stroke-width:3.0;" d="M 360.378, 535.211 L 339.496, 555.523 L 337.214, 548.129 L 351.124, 534.123 z "/>
<path style="fill:rgb(255, 165, 10);fill-opacity:1.0;fill-rule:evenodd;stroke:rgb(0, 0, 0);stroke-width:3.0;" d="M 788.275, 549.058 L 788.032, 550.699 L 756.498, 537.838 L 770.536, 535.28 z "/>
<path style="fill:rgb(21, 64, 252);fill-opacity:1.0;fill-rule:evenodd;stroke:rgb(0, 0, 0);stroke-width:3.0;" d="M 542.25, 473.627 L 536.34, 487.688 L 520.827, 474.467 L 524.242, 470.05 L 539.178, 467.69 z "/>
<path style="fill:rgb(197, 42, 255);fill-opacity:1.0;fill-rule:evenodd;stroke:rgb(0, 0, 0);stroke-width:3.0;" d="M 615.755, 243.875 L 582.708, 240.876 L 597.683, 227.981 L 617.657, 223.398 z "/>
<path style="fill:rgb(255, 246, 54);fill-opacity:1.0;fill-rule:evenodd;stroke:rgb(0, 0, 0);stroke-width:3.0;" d="M 122.32, 553.669 L 116.57, 558.36 L 102.328, 547.151 L 102.58, 543.285 z "/>
<path style="fill:rgb(54, 240, 255);fill-opacity:1.0;fill-rule:evenodd;stroke:rgb(0, 0, 0);stroke-width:3.0;" d="M 694.327, 532.016 L 693.185, 536.88 L 676.982, 549.628 L 670.133, 526.237 L 682.133, 517.103 z "/>
<path style="fill:rgb(54, 240, 255);fill-opacity:1.0;fill-rule:evenodd;stroke:rgb(0, 0, 0);stroke-width:3.0;" d="M 607.906, 328.373 L 607.757, 328.384 L 586.257, 267.371 L 615.549, 246.092 z "/>
<path style="fill:rgb(54, 240, 255);fill-opacity:1.0;fill-rule:evenodd;stroke:rgb(0, 0, 0);stroke-width:3.0;" d="M 779.474, 363.859 L 776.945, 365.729 L 764.827, 365.439 L 759.168, 363.001 L 769.754, 354.208 L 773.147, 353.68 z "/>
<path style="fill:rgb(54, 240, 255);fill-opacity:1.0;fill-rule:evenodd;stroke:rgb(0, 0, 0);stroke-width:3.0;" d="M 607.757, 328.384 L 603.177, 328.729 L 591.408, 318.001 L 603.52, 316.361 z "/>
<path style="fill:rgb(54, 240, 255);fill-opacity:1.0;fill-rule:evenodd;stroke:rgb(0, 0, 0);stroke-width:3.0;" d="M 684.961, 348.332 L 672.707, 350.724 L 679.391, 337.804 L 688.115, 332.267 z "/>
<path style="fill:rgb(228, 202, 17);fill-opacity:1.0;fill-rule:evenodd;stroke:rgb(0, 0, 0);stroke-width:3.0;" d="M 757.172, 293.921 L 766.107, 310.262 L 755.984, 313.655 L 751.727, 304.365 L 749.37, 291.861 z "/>
<path style="fill:rgb(255, 0, 123);fill-opacity:1.0;fill-rule:evenodd;stroke:rgb(0, 0, 0);stroke-width:3.0;" d="M 713.124, 418.064 L 683.323, 433.194 L 683.013, 432.791 L 683.735, 428.491 L 694.675, 411.681 z "/>
<path style="fill:rgb(255, 0, 123);fill-opacity:1.0;fill-rule:evenodd;stroke:rgb(0, 0, 0);stroke-width:3.0;" d="M 683.891, 191.908 L 688.004, 205.194 L 675.972, 199.021 L 674.827, 190.352 z "/>
<path style="fill:rgb(157, 0, 6);fill-opacity:1.0;fill-rule:evenodd;stroke:rgb(0, 0, 0);stroke-width:3.0;" d="M 792.384, 445.487 L 773.83, 466.784 L 760.132, 450.627 L 780.072, 441.227 z "/>
<path style="fill:rgb(157, 0, 6);fill-opacity:1.0;fill-rule:evenodd;stroke:rgb(0, 0, 0);stroke-width:3.0;" d="M 764.731, 435.919 L 760.584, 443.386 L 754.259, 443.7 L 747.84, 436.129 L 747.7, 430.027 z "/>
<path style="fill:rgb(157, 0, 6);fill-opacity:1.0;fill-rule:evenodd;stroke:rgb(0, 0, 0);stroke-width:3.0;" d="M 737.871, 364.795 L 732.485, 392.37 L 726.369, 397.337 L 685.951, 408.663 L 583.326, 373.156 L 591.934, 361.304 z "/>
<path style="fill:rgb(157, 0, 6);fill-opacity:1.0;fill-rule:evenodd;stroke:rgb(0, 0, 0);stroke-width:3.0;" d="M 601.127, 427.014 L 596.354, 448.493 L 557.937, 436.307 L 572.128, 402.544 z "/>
<path style="fill:rgb(157, 0, 6);fill-opacity:1.0;fill-rule:evenodd;stroke:rgb(0, 0, 0);stroke-width:3.0;" d="M 790.467, 557.273 L 767.844, 558.674 L 767.113, 557.735 L 775.607, 547.825 z "/>
<path style="fill:rgb(202, 8, 75);fill-opacity:1.0;fill-rule:evenodd;stroke:rgb(0, 0, 0);stroke-width:3.0;" d="M 519.685, 477.592 L 517.751, 478.585 L 483.606, 458.833 L 482.831, 453.339 z "/>
<path style="fill:rgb(249, 187, 11);fill-opacity:1.0;fill-rule:evenodd;stroke:rgb(0, 0, 0);stroke-width:3.0;" d="M 366.951, 528.817 L 360.378, 535.211 L 352.027, 534.229 L 351.908, 523.518 z "/>
<path style="fill:rgb(249, 187, 11);fill-opacity:1.0;fill-rule:evenodd;stroke:rgb(0, 0, 0);stroke-width:3.0;" d="M 751.567, 365.122 L 733.249, 388.457 L 737.871, 364.795 z "/>
<path style="fill:rgb(246, 255, 54);fill-opacity:1.0;fill-rule:evenodd;stroke:rgb(0, 0, 0);stroke-width:3.0;" d="M 767.865, 325.109 L 761.477, 330.872 L 747.908, 322.221 L 754.632, 315.507 z "/>
<path style="fill:rgb(252, 21, 62);fill-opacity:1.0;fill-rule:evenodd;stroke:rgb(0, 0, 0);stroke-width:3.0;" d="M 544.685, 438.04 L 541.971, 454.476 L 530.214, 450.466 L 544.39, 435.159 z "/>
<path style="fill:rgb(252, 21, 62);fill-opacity:1.0;fill-rule:evenodd;stroke:rgb(0, 0, 0);stroke-width:3.0;" d="M 404.729, 572.91 L 405.134, 574.59 L 400.964, 577.08 L 394.366, 577.233 L 391.419, 573.453 L 391.343, 569.077 L 397.782, 559.563 z "/>
<path style="fill:rgb(252, 21, 62);fill-opacity:1.0;fill-rule:evenodd;stroke:rgb(0, 0, 0);stroke-width:3.0;" d="M 116.041, 402.009 L 120.866, 485.019 L 107.218, 472.145 L 112.041, 398.156 z "/>
<path style="fill:rgb(252, 21, 62);fill-opacity:1.0;fill-rule:evenodd;stroke:rgb(0, 0, 0);stroke-width:3.0;" d="M 366.055, 501.483 L 368.272, 506.086 L 366.775, 522.236 L 345.683, 501.777 L 347.065, 499.137 z "/>
<path style="fill:rgb(252, 21, 62);fill-opacity:1.0;fill-rule:evenodd;stroke:rgb(0, 0, 0);stroke-width:3.0;" d="M 701.309, 524.694 L 692.506, 522.041 L 690.233, 510.938 L 704.11, 500.376 z "/>
<path style="fill:rgb(7, 215, 246);fill-opacity:1.0;fill-rule:evenodd;stroke:rgb(0, 0, 0);stroke-width:3.0;" d="M 444.212, 390.104 L 447.823, 398.812 L 447.08, 403.367 L 431.12, 392.367 L 429.907, 390.094 L 433.921, 383.109 z "/>
<path style="fill:rgb(7, 215, 246);fill-opacity:1.0;fill-rule:evenodd;stroke:rgb(0, 0, 0);stroke-width:3.0;" d="M 391.785, 504.66 L 375.305, 520.69 L 366.055, 501.483 z "/>
<path style="fill:rgb(228, 255, 33);fill-opacity:1.0;fill-rule:evenodd;stroke:rgb(0, 0, 0);stroke-width:3.0;" d="M 645.837, 394.784 L 646.457, 561.016 L 592.375, 525.427 L 615.791, 384.389 z "/>
<path style="fill:rgb(231, 252, 7);fill-opacity:1.0;fill-rule:evenodd;stroke:rgb(0, 0, 0);stroke-width:3.0;" d="M 362.01, 470.593 L 342.707, 507.462 L 335.989, 509.258 L 340.549, 487.039 L 359.808, 466.267 z "/>
<path style="fill:rgb(231, 252, 7);fill-opacity:1.0;fill-rule:evenodd;stroke:rgb(0, 0, 0);stroke-width:3.0;" d="M 525.174, 306.497 L 545.472, 403.272 L 468.944, 382.013 L 463.266, 343.729 L 515.722, 298.559 z "/>
<path style="fill:rgb(194, 1, 22);fill-opacity:1.0;fill-rule:evenodd;stroke:rgb(0, 0, 0);stroke-width:3.0;" d="M 661.407, 561.456 L 651.693, 521.792 L 648.398, 474.698 L 677.343, 466.554 z "/>
<path style="fill:rgb(194, 1, 22);fill-opacity:1.0;fill-rule:evenodd;stroke:rgb(0, 0, 0);stroke-width:3.0;" d="M 733.667, 528.526 L 723.467, 542.209 L 721.786, 542.656 L 711.065, 530.986 L 713.47, 520.288 z "/>
<path style="fill:rgb(194, 1, 22);fill-opacity:1.0;fill-rule:evenodd;stroke:rgb(0, 0, 0);stroke-width:3.0;" d="M 731.748, 425.506 L 750.833, 447 L 742.108, 452.191 L 727.068, 424.64 z "/>
<path style="fill:rgb(194, 1, 22);fill-opacity:1.0;fill-rule:evenodd;stroke:rgb(0, 0, 0);stroke-width:3.0;" d="M 576.529, 349.63 L 571.881, 388.915 L 558.771, 406.966 L 545.472, 403.272 L 525.174, 306.497 z "/>
<path style="fill:rgb(246, 255, 61);fill-opacity:1.0;fill-rule:evenodd;stroke:rgb(0, 0, 0);stroke-width:3.0;" d="M 755.748, 523.796 L 739.477, 530.509 L 737.86, 530.236 L 725.068, 525.019 L 743.55, 514.322 z "/>
<path style="fill:rgb(246, 255, 61);fill-opacity:1.0;fill-rule:evenodd;stroke:rgb(0, 0, 0);stroke-width:3.0;" d="M 123.22, 525.524 L 108.752, 525.419 L 111.687, 518.854 L 122.569, 514.333 z "/>
<path style="fill:rgb(246, 255, 61);fill-opacity:1.0;fill-rule:evenodd;stroke:rgb(0, 0, 0);stroke-width:3.0;" d="M 303.546, 542.695 L 301.672, 546.316 L 290.71, 547.881 L 282.391, 535.722 L 286.696, 531.048 z "/>
<path style="fill:rgb(246, 255, 61);fill-opacity:1.0;fill-rule:evenodd;stroke:rgb(0, 0, 0);stroke-width:3.0;" d="M 107.092, 550.901 L 109.71, 563.958 L 100.756, 571.264 L 102.328, 547.151 z "/>
<path style="fill:rgb(246, 3, 34);fill-opacity:1.0;fill-rule:evenodd;stroke:rgb(0, 0, 0);stroke-width:3.0;" d="M 681.192, 407.016 L 685.596, 408.54 L 681.259, 422.859 L 663.811, 406.049 z "/>
<path style="fill:rgb(246, 3, 34);fill-opacity:1.0;fill-rule:evenodd;stroke:rgb(0, 0, 0);stroke-width:3.0;" d="M 652.342, 353.396 L 658.577, 362.898 L 639.005, 362.43 L 634.133, 351.961 z "/>
<path style="fill:rgb(6, 255, 255);fill-opacity:1.0;fill-rule:evenodd;stroke:rgb(0, 0, 0);stroke-width:3.0;" d="M 399.688, 398.625 L 399.027, 399.889 L 358.865, 437.783 L 357.907, 434.455 L 399.591, 398.561 z "/>
<path style="fill:rgb(6, 255, 255);fill-opacity:1.0;fill-rule:evenodd;stroke:rgb(0, 0, 0);stroke-width:3.0;" d="M 663.811, 406.049 L 681.259, 422.859 L 681.07, 423.484 L 645.877, 405.6 L 645.875, 405.051 z "/>
<path style="fill:rgb(6, 255, 255);fill-opacity:1.0;fill-rule:evenodd;stroke:rgb(0, 0, 0);stroke-width:3.0;" d="M 722.52, 509.642 L 721.361, 509.98 L 704.588, 496.224 L 705.786, 485.819 z "/>
<path style="fill:rgb(36, 30, 255);fill-opacity:1.0;fill-rule:evenodd;stroke:rgb(0, 0, 0);stroke-width:3.0;" d="M 370.64, 580.838 L 360.905, 588.608 L 348.213, 576.843 L 384.058, 566.617 z "/>
<path style="fill:rgb(246, 58, 187);fill-opacity:1.0;fill-rule:evenodd;stroke:rgb(0, 0, 0);stroke-width:3.0;" d="M 553.694, 431.113 L 551.316, 452.06 L 549.256, 456.96 L 546.527, 456.03 L 544.39, 435.159 L 549.478, 429.667 z "/>
<path style="fill:rgb(252, 252, 60);fill-opacity:1.0;fill-rule:evenodd;stroke:rgb(0, 0, 0);stroke-width:3.0;" d="M 702.988, 350.09 L 695.66, 345.193 L 694.998, 341.549 L 694.869, 333.205 L 700.792, 326.202 z "/>
<path style="fill:rgb(69, 212, 220);fill-opacity:1.0;fill-rule:evenodd;stroke:rgb(0, 0, 0);stroke-width:3.0;" d="M 697.73, 555.776 L 697.346, 559.111 L 683.486, 566.05 L 667.758, 562.139 L 683.257, 553.148 z "/>
<path style="fill:rgb(255, 23, 83);fill-opacity:1.0;fill-rule:evenodd;stroke:rgb(0, 0, 0);stroke-width:3.0;" d="M 585.063, 343.76 L 584.509, 348 L 579.028, 351.728 L 571.466, 345.377 L 573.847, 339.827 L 575.255, 338.976 z "/>
<path style="fill:rgb(255, 255, 23);fill-opacity:1.0;fill-rule:evenodd;stroke:rgb(0, 0, 0);stroke-width:3.0;" d="M 710.606, 443.955 L 690.239, 442.176 L 687.928, 439.175 L 713.188, 421.535 z "/>
<path style="fill:rgb(204, 249, 255);fill-opacity:1.0;fill-rule:evenodd;stroke:rgb(0, 0, 0);stroke-width:3.0;" d="M 661.177, 268.576 L 699.276, 309.55 L 678.367, 337.797 L 653.2, 276.945 L 659.583, 268.155 z "/>
<path style="fill:rgb(204, 249, 255);fill-opacity:1.0;fill-rule:evenodd;stroke:rgb(0, 0, 0);stroke-width:3.0;" d="M 615.755, 243.875 L 615.549, 246.092 L 586.257, 267.371 L 578.268, 244.699 L 582.708, 240.876 z "/>
<path style="fill:rgb(7, 255, 255);fill-opacity:1.0;fill-rule:evenodd;stroke:rgb(0, 0, 0);stroke-width:3.0;" d="M 89.9848, 563.416 L 38.4818, 589.586 L 39.0708, 588.847 L 72.2939, 561.321 z "/>
<path style="fill:rgb(7, 255, 255);fill-opacity:1.0;fill-rule:evenodd;stroke:rgb(0, 0, 0);stroke-width:3.0;" d="M 114.037, 367.535 L 105.005, 506.095 L 35.8077, 592.942 L 41.1803, 270.88 L 105.689, 223.904 z "/>
<path style="fill:rgb(255, 243, 47);fill-opacity:1.0;fill-rule:evenodd;stroke:rgb(0, 0, 0);stroke-width:3.0;" d="M 711.61, 528.56 L 707.987, 544.671 L 699.846, 537.4 L 701.288, 524.883 z "/>
<path style="fill:rgb(22, 10, 255);fill-opacity:1.0;fill-rule:evenodd;stroke:rgb(0, 0, 0);stroke-width:3.0;" d="M 713.592, 155.86 L 717.042, 171.031 L 709.427, 179.628 L 673.352, 179.19 L 671.601, 165.932 L 692.176, 154.457 z "/>
<path style="fill:rgb(255, 252, 78);fill-opacity:1.0;fill-rule:evenodd;stroke:rgb(0, 0, 0);stroke-width:3.0;" d="M 103.31, 532.095 L 103.066, 535.825 L 39.0708, 588.847 L 93.6024, 520.405 z "/>
<path style="fill:rgb(255, 18, 51);fill-opacity:1.0;fill-rule:evenodd;stroke:rgb(0, 0, 0);stroke-width:3.0;" d="M 593.849, 288.917 L 589.044, 307.642 L 584.283, 312.399 L 572.502, 297.788 L 591.903, 283.394 z "/>
<path style="fill:rgb(237, 152, 18);fill-opacity:1.0;fill-rule:evenodd;stroke:rgb(0, 0, 0);stroke-width:3.0;" d="M 758.06, 365.277 L 749.771, 378.331 L 738.267, 387.674 L 739.225, 380.844 L 751.567, 365.122 z "/>
<path style="fill:rgb(150, 0, 25);fill-opacity:1.0;fill-rule:evenodd;stroke:rgb(0, 0, 0);stroke-width:3.0;" d="M 123.22, 525.524 L 123.859, 536.518 L 111.933, 536.407 L 107.553, 528.1 L 108.752, 525.419 z "/>
<path style="fill:rgb(150, 0, 25);fill-opacity:1.0;fill-rule:evenodd;stroke:rgb(0, 0, 0);stroke-width:3.0;" d="M 313.718, 562.832 L 306.689, 576.257 L 299.784, 565.113 L 304.148, 562.269 z "/>
<path style="fill:rgb(150, 0, 25);fill-opacity:1.0;fill-rule:evenodd;stroke:rgb(0, 0, 0);stroke-width:3.0;" d="M 346.079, 521.465 L 344.906, 533.392 L 332.204, 531.899 L 331.354, 529.146 L 337.042, 518.281 z "/>
<path style="fill:rgb(249, 240, 24);fill-opacity:1.0;fill-rule:evenodd;stroke:rgb(0, 0, 0);stroke-width:3.0;" d="M 755.223, 331.875 L 749.053, 334.82 L 738.926, 320.545 L 738.341, 315.955 L 741.686, 314.246 z "/>
<path style="fill:rgb(255, 165, 6);fill-opacity:1.0;fill-rule:evenodd;stroke:rgb(0, 0, 0);stroke-width:3.0;" d="M 678.69, 359.914 L 674.855, 363.287 L 666.314, 363.083 L 672.707, 350.724 L 679.408, 349.416 z "/>
<path style="fill:rgb(255, 165, 6);fill-opacity:1.0;fill-rule:evenodd;stroke:rgb(0, 0, 0);stroke-width:3.0;" d="M 681.07, 423.484 L 667.157, 469.42 L 646.137, 475.334 L 645.877, 405.6 z "/>
<path style="fill:rgb(246, 255, 16);fill-opacity:1.0;fill-rule:evenodd;stroke:rgb(0, 0, 0);stroke-width:3.0;" d="M 723.058, 325.169 L 727.29, 337.018 L 707.95, 352.898 L 712.21, 321.916 L 720.903, 320.615 z "/>
<path style="fill:rgb(255, 255, 7);fill-opacity:1.0;fill-rule:evenodd;stroke:rgb(0, 0, 0);stroke-width:3.0;" d="M 313.718, 562.832 L 297.79, 561.895 L 289.238, 548.091 L 324.036, 543.123 z "/>
<path style="fill:rgb(255, 132, 18);fill-opacity:1.0;fill-rule:evenodd;stroke:rgb(0, 0, 0);stroke-width:3.0;" d="M 602.074, 467.009 L 592.375, 525.427 L 580.93, 517.895 L 596.26, 448.913 z "/>
<path style="fill:rgb(197, 13, 22);fill-opacity:1.0;fill-rule:evenodd;stroke:rgb(0, 0, 0);stroke-width:3.0;" d="M 615.791, 384.389 L 602.074, 467.009 L 596.26, 448.913 L 610.97, 382.721 z "/>
<path style="fill:rgb(255, 4, 11);fill-opacity:1.0;fill-rule:evenodd;stroke:rgb(0, 0, 0);stroke-width:3.0;" d="M 360.715, 571.359 L 360.795, 573.254 L 328.255, 582.537 L 349.888, 566.573 z "/>
<path style="fill:rgb(144, 95, 184);fill-opacity:1.0;fill-rule:evenodd;stroke:rgb(0, 0, 0);stroke-width:3.0;" d="M 330.1, 531.542 L 327.531, 536.447 L 305.103, 531.803 L 284.31, 523.078 L 323.918, 512.486 z "/>
<path style="fill:rgb(62, 59, 202);fill-opacity:1.0;fill-rule:evenodd;stroke:rgb(0, 0, 0);stroke-width:3.0;" d="M 610.97, 382.721 L 601.127, 427.014 L 572.128, 402.544 L 584.334, 373.505 z "/>
<path style="fill:rgb(212, 38, 255);fill-opacity:1.0;fill-rule:evenodd;stroke:rgb(0, 0, 0);stroke-width:3.0;" d="M 700.537, 430.37 L 687.928, 439.175 L 683.323, 433.194 L 704.436, 422.475 z "/>
<path style="fill:rgb(249, 249, 41);fill-opacity:1.0;fill-rule:evenodd;stroke:rgb(0, 0, 0);stroke-width:3.0;" d="M 749.954, 535.169 L 723.467, 542.209 L 733.667, 528.526 z "/>
<path style="fill:rgb(255, 228, 98);fill-opacity:1.0;fill-rule:evenodd;stroke:rgb(0, 0, 0);stroke-width:3.0;" d="M 779.194, 473.112 L 770.551, 484.364 L 762.452, 489.459 L 742.108, 452.191 L 754.97, 444.539 z "/>
<path style="fill:rgb(184, 150, 255);fill-opacity:1.0;fill-rule:evenodd;stroke:rgb(0, 0, 0);stroke-width:3.0;" d="M 780.819, 365.822 L 780.915, 366.167 L 764.67, 389.213 L 709.973, 410.653 L 765.621, 365.458 z "/>
<path style="fill:rgb(202, 5, 7);fill-opacity:1.0;fill-rule:evenodd;stroke:rgb(0, 0, 0);stroke-width:3.0;" d="M 597.386, 351.21 L 594.63, 357.59 L 591.787, 361.506 L 586.587, 336.588 z "/>
<path style="fill:rgb(202, 5, 7);fill-opacity:1.0;fill-rule:evenodd;stroke:rgb(0, 0, 0);stroke-width:3.0;" d="M 646.821, 269.708 L 645.404, 287.679 L 630.305, 308.469 L 610.872, 296.445 L 615.14, 250.499 z "/>
<path style="fill:rgb(10, 69, 212);fill-opacity:1.0;fill-rule:evenodd;stroke:rgb(0, 0, 0);stroke-width:3.0;" d="M 568.654, 265.973 L 556.78, 270.069 L 552.328, 267.037 L 574.785, 247.698 z "/>
<path style="fill:rgb(199, 13, 7);fill-opacity:1.0;fill-rule:evenodd;stroke:rgb(0, 0, 0);stroke-width:3.0;" d="M 596.354, 448.493 L 582.885, 509.1 L 539.374, 490.548 L 536.056, 488.365 L 557.937, 436.307 z "/>
<path style="fill:rgb(146, 223, 255);fill-opacity:1.0;fill-rule:evenodd;stroke:rgb(0, 0, 0);stroke-width:3.0;" d="M 599.73, 338.721 L 603.106, 345.399 L 599.184, 351.321 L 598.333, 352.492 L 586.587, 336.588 L 586.226, 334.858 L 586.554, 332.352 L 589.093, 331.274 z "/>
<path style="fill:rgb(255, 252, 55);fill-opacity:1.0;fill-rule:evenodd;stroke:rgb(0, 0, 0);stroke-width:3.0;" d="M 737.945, 426.652 L 740.578, 427.563 L 754.97, 444.539 L 750.833, 447 L 731.748, 425.506 z "/>
<path style="fill:rgb(187, 2, 19);fill-opacity:1.0;fill-rule:evenodd;stroke:rgb(0, 0, 0);stroke-width:3.0;" d="M 120.22, 585.905 L 100.595, 573.738 L 100.756, 571.264 L 112.092, 562.014 z "/>
<path style="fill:rgb(12, 154, 240);fill-opacity:1.0;fill-rule:evenodd;stroke:rgb(0, 0, 0);stroke-width:3.0;" d="M 126.973, 590.092 L 120.22, 585.905 L 112.092, 562.014 L 124.741, 551.693 z "/>
<path style="fill:rgb(255, 11, 103);fill-opacity:1.0;fill-rule:evenodd;stroke:rgb(0, 0, 0);stroke-width:3.0;" d="M 386.404, 538.143 L 383.046, 547.745 L 373.467, 552.663 L 361.905, 537.058 L 377.876, 523.389 z "/>
<path style="fill:rgb(255, 95, 6);fill-opacity:1.0;fill-rule:evenodd;stroke:rgb(0, 0, 0);stroke-width:3.0;" d="M 370.25, 525.607 L 366.951, 528.817 L 352.513, 523.731 L 345.472, 502.179 L 345.683, 501.777 z "/>
<path style="fill:rgb(220, 192, 8);fill-opacity:1.0;fill-rule:evenodd;stroke:rgb(0, 0, 0);stroke-width:3.0;" d="M 733.436, 506.468 L 722.52, 509.642 L 716.466, 501.023 L 708.074, 486.771 z "/>
<path style="fill:rgb(220, 240, 9);fill-opacity:1.0;fill-rule:evenodd;stroke:rgb(0, 0, 0);stroke-width:3.0;" d="M 734.089, 356.059 L 720.958, 357.634 L 707.88, 353.401 L 707.95, 352.898 L 727.29, 337.018 z "/>
<path style="fill:rgb(255, 0, 13);fill-opacity:1.0;fill-rule:evenodd;stroke:rgb(0, 0, 0);stroke-width:3.0;" d="M 678.367, 337.797 L 659.766, 362.926 L 658.577, 362.898 L 628.583, 317.189 L 629.65, 309.371 L 653.2, 276.945 z "/>
<path style="fill:rgb(207, 243, 88);fill-opacity:1.0;fill-rule:evenodd;stroke:rgb(0, 0, 0);stroke-width:3.0;" d="M 123.859, 536.518 L 124.741, 551.693 L 123.494, 552.71 L 111.824, 539.911 L 120.921, 536.491 z "/>
</svg>