<?xml version="1.0" encoding="iso-8859-1" standalone="no"?>
<!DOCTYPE svg PUBLIC "-//W3C//DTD SVG 1.0//EN" "http://www.w3.org/TR/2001/REC-SVG-20010904/DTD/svg10.dtd">
<svg xmlns="http://www.w3.org/2000/svg" width="800" height="600">
<path style="fill:rgb(0, 0, 0);fill-opacity:0.0;fill-rule:evenodd;stroke:rgb(0, 0, 0);stroke-width:0.0;" d="M 0, 600 L 800, 600 L 800, 0 L 0, 0 z "/>
<path style="fill:rgb(204, 49, 24);fill-opacity:1.0;fill-rule:evenodd;stroke:rgb(0, 0, 0);stroke-width:3.0;" d="M 111.365, 518.596 L 19.9721, 555.012 L 38.2125, 277.639 L 123.897, 73.2995 z "/>
<path style="fill:rgb(197, 10, 255);fill-opacity:1.0;fill-rule:evenodd;stroke:rgb(0, 0, 0);stroke-width:3.0;" d="M 675.434, 81.2259 L 654.017, 73.8423 L 648.699, 58.3025 L 649.289, 56.5971 L 666.048, 52.5062 z "/>
<path style="fill:rgb(16, 2, 255);fill-opacity:1.0;fill-rule:evenodd;stroke:rgb(0, 0, 0);stroke-width:3.0;" d="M 127.578, 288.089 L 119.962, 273.819 L 174.251, 125.062 z "/>
<path style="fill:rgb(255, 48, 255);fill-opacity:1.0;fill-rule:evenodd;stroke:rgb(0, 0, 0);stroke-width:3.0;" d="M 90.5931, 152.722 L 76.406, 154.022 L 71.5666, 149.161 L 73.4077, 148.225 L 93.4605, 145.884 z "/>
<path style="fill:rgb(202, 152, 37);fill-opacity:1.0;fill-rule:evenodd;stroke:rgb(0, 0, 0);stroke-width:3.0;" d="M 441.121, 300.116 L 329.828, 387.585 L 326.095, 379.756 L 485.382, 144.879 z "/>
<path style="fill:rgb(202, 152, 37);fill-opacity:1.0;fill-rule:evenodd;stroke:rgb(0, 0, 0);stroke-width:3.0;" d="M 334.168, 396.686 L 308.894, 420.272 L 308.741, 418.468 L 329.835, 387.598 z "/>
<path style="fill:rgb(202, 152, 37);fill-opacity:1.0;fill-rule:evenodd;stroke:rgb(0, 0, 0);stroke-width:3.0;" d="M 175.84, 119.514 L 174.251, 125.062 L 119.962, 273.819 L 118.339, 270.779 L 118.782, 255.053 L 129.673, 208.528 L 176.688, 93.2094 z "/>
<path style="fill:rgb(204, 40, 61);fill-opacity:1.0;fill-rule:evenodd;stroke:rgb(0, 0, 0);stroke-width:3.0;" d="M 419.505, 242.018 L 408.523, 258.212 L 408.419, 237.532 L 420.27, 233.418 z "/>
<path style="fill:rgb(255, 255, 123);fill-opacity:1.0;fill-rule:evenodd;stroke:rgb(0, 0, 0);stroke-width:3.0;" d="M 783.684, 418.985 L 762.22, 391.837 L 771.39, 349.178 L 784.136, 348.838 z "/>
<path style="fill:rgb(255, 255, 123);fill-opacity:1.0;fill-rule:evenodd;stroke:rgb(0, 0, 0);stroke-width:3.0;" d="M 242.385, 503.189 L 217.442, 539.969 L 195.051, 426.818 L 199.545, 422.925 z "/>
<path style="fill:rgb(255, 255, 123);fill-opacity:1.0;fill-rule:evenodd;stroke:rgb(0, 0, 0);stroke-width:3.0;" d="M 722.602, 53.1289 L 712.713, 64.0171 L 690.246, 44.9171 L 683.126, 33.6292 L 690.536, 25.3157 z "/>
<path style="fill:rgb(255, 255, 123);fill-opacity:1.0;fill-rule:evenodd;stroke:rgb(0, 0, 0);stroke-width:3.0;" d="M 162.958, 66.3294 L 127.541, 217.633 L 118.962, 248.644 L 124.853, 39.3355 L 149.038, 27.3729 z "/>
<path style="fill:rgb(255, 255, 123);fill-opacity:1.0;fill-rule:evenodd;stroke:rgb(0, 0, 0);stroke-width:3.0;" d="M 496.334, 117.152 L 497.375, 127.195 L 494.894, 130.854 L 470.778, 119.81 L 474.843, 114.582 z "/>
<path style="fill:rgb(255, 255, 123);fill-opacity:1.0;fill-rule:evenodd;stroke:rgb(0, 0, 0);stroke-width:3.0;" d="M 338.75, 361.094 L 334.918, 366.745 L 332.133, 358.62 L 329.986, 324.942 z "/>
<path style="fill:rgb(255, 255, 123);fill-opacity:1.0;fill-rule:evenodd;stroke:rgb(0, 0, 0);stroke-width:3.0;" d="M 766.851, 236.448 L 765.324, 242.043 L 757.124, 241.965 L 720.454, 218.967 L 717.547, 210.073 L 738.845, 190.792 z "/>
<path style="fill:rgb(255, 255, 123);fill-opacity:1.0;fill-rule:evenodd;stroke:rgb(0, 0, 0);stroke-width:3.0;" d="M 584.124, 49.3563 L 587.913, 50.7535 L 581.198, 55.6483 L 567.034, 54.1116 L 567.406, 48.8483 z "/>
<path style="fill:rgb(255, 255, 123);fill-opacity:1.0;fill-rule:evenodd;stroke:rgb(0, 0, 0);stroke-width:3.0;" d="M 602.346, 40.2337 L 587.913, 50.7535 L 568.235, 43.4985 L 571.303, 31.9449 L 588.895, 28.5213 z "/>
<path style="fill:rgb(255, 255, 123);fill-opacity:1.0;fill-rule:evenodd;stroke:rgb(0, 0, 0);stroke-width:3.0;" d="M 753.77, 279.087 L 753.514, 295.094 L 727.338, 303.381 L 751.175, 278.697 z "/>
<path style="fill:rgb(240, 92, 6);fill-opacity:1.0;fill-rule:evenodd;stroke:rgb(0, 0, 0);stroke-width:3.0;" d="M 510.669, 107.593 L 506.014, 114.456 L 498.508, 117.954 L 480.139, 108.618 L 490.318, 96.0614 z "/>
<path style="fill:rgb(240, 92, 6);fill-opacity:1.0;fill-rule:evenodd;stroke:rgb(0, 0, 0);stroke-width:3.0;" d="M 697.179, 64.8885 L 698.189, 80.0084 L 695.991, 82.4286 L 679.77, 80.2739 L 688.043, 53.4105 z "/>
<path style="fill:rgb(240, 92, 6);fill-opacity:1.0;fill-rule:evenodd;stroke:rgb(0, 0, 0);stroke-width:3.0;" d="M 350.951, 431.88 L 312.521, 463.256 L 308.894, 420.272 L 334.168, 396.686 z "/>
<path style="fill:rgb(240, 92, 6);fill-opacity:1.0;fill-rule:evenodd;stroke:rgb(0, 0, 0);stroke-width:3.0;" d="M 634.125, 27.3611 L 627.929, 42.9276 L 626.109, 45.0444 L 619.571, 35.6773 L 624.054, 24.4113 L 631.925, 18.6739 z "/>
<path style="fill:rgb(255, 123, 217);fill-opacity:1.0;fill-rule:evenodd;stroke:rgb(0, 0, 0);stroke-width:3.0;" d="M 490.289, 46.0356 L 434.091, 78.0807 L 436.492, 51.0853 L 487.649, 40.9976 z "/>
<path style="fill:rgb(255, 234, 44);fill-opacity:1.0;fill-rule:evenodd;stroke:rgb(0, 0, 0);stroke-width:3.0;" d="M 371.112, 474.16 L 222.547, 565.128 L 214.276, 556.716 L 234.75, 526.753 L 350.951, 431.88 z "/>
<path style="fill:rgb(255, 234, 44);fill-opacity:1.0;fill-rule:evenodd;stroke:rgb(0, 0, 0);stroke-width:3.0;" d="M 58.4721, 229.324 L 47.3773, 255.783 L 38.233, 254.397 L 36.7479, 246.723 L 45.1281, 224.531 z "/>
<path style="fill:rgb(255, 234, 44);fill-opacity:1.0;fill-rule:evenodd;stroke:rgb(0, 0, 0);stroke-width:3.0;" d="M 273.031, 192.469 L 252.034, 236.995 L 249.725, 227.694 L 264.109, 186.301 z "/>
<path style="fill:rgb(255, 234, 44);fill-opacity:1.0;fill-rule:evenodd;stroke:rgb(0, 0, 0);stroke-width:3.0;" d="M 398.199, 239.41 L 314.178, 273.161 L 304.925, 223.268 L 417.823, 118.542 z "/>
<path style="fill:rgb(255, 25, 197);fill-opacity:1.0;fill-rule:evenodd;stroke:rgb(0, 0, 0);stroke-width:3.0;" d="M 657.229, 164.696 L 648.764, 174.008 L 647.719, 173.353 L 641.986, 154.885 L 648.481, 129.396 z "/>
<path style="fill:rgb(255, 25, 197);fill-opacity:1.0;fill-rule:evenodd;stroke:rgb(0, 0, 0);stroke-width:3.0;" d="M 118.273, 86.7124 L 99.8953, 130.539 L 80.6952, 137.098 L 72.4303, 117.39 L 110.674, 85.3813 z "/>
<path style="fill:rgb(255, 25, 197);fill-opacity:1.0;fill-rule:evenodd;stroke:rgb(0, 0, 0);stroke-width:3.0;" d="M 642.796, 72.2259 L 638.703, 167.698 L 586.922, 135.224 L 600.565, 91.34 L 627.688, 66.924 z "/>
<path style="fill:rgb(212, 54, 255);fill-opacity:1.0;fill-rule:evenodd;stroke:rgb(0, 0, 0);stroke-width:3.0;" d="M 586.922, 135.224 L 566.231, 122.248 L 600.565, 91.34 z "/>
<path style="fill:rgb(25, 7, 231);fill-opacity:1.0;fill-rule:evenodd;stroke:rgb(0, 0, 0);stroke-width:3.0;" d="M 414.137, 564.388 L 427.841, 593.126 L 374.581, 560.837 z "/>
<path style="fill:rgb(255, 177, 44);fill-opacity:1.0;fill-rule:evenodd;stroke:rgb(0, 0, 0);stroke-width:3.0;" d="M 691.262, 345.803 L 643.258, 450.411 L 612.819, 421.97 L 691.401, 340.595 z "/>
<path style="fill:rgb(252, 3, 82);fill-opacity:1.0;fill-rule:evenodd;stroke:rgb(0, 0, 0);stroke-width:3.0;" d="M 34.8644, 328.553 L 14.2574, 334.768 L 38.2125, 277.639 z "/>
<path style="fill:rgb(252, 3, 82);fill-opacity:1.0;fill-rule:evenodd;stroke:rgb(0, 0, 0);stroke-width:3.0;" d="M 75.8528, 187.875 L 60.8846, 223.571 L 55.5937, 219.589 L 73.8414, 187.236 z "/>
<path style="fill:rgb(207, 246, 7);fill-opacity:1.0;fill-rule:evenodd;stroke:rgb(0, 0, 0);stroke-width:3.0;" d="M 680.509, 96.7537 L 720.454, 218.967 L 661.52, 182.008 L 648.481, 129.396 L 660.343, 82.841 z "/>
<path style="fill:rgb(255, 115, 7);fill-opacity:1.0;fill-rule:evenodd;stroke:rgb(0, 0, 0);stroke-width:3.0;" d="M 238.796, 259.142 L 188.845, 402.878 L 167.959, 363.745 L 173.509, 191.753 z "/>
<path style="fill:rgb(255, 46, 43);fill-opacity:1.0;fill-rule:evenodd;stroke:rgb(0, 0, 0);stroke-width:3.0;" d="M 272.771, 161.375 L 238.796, 259.142 L 173.509, 191.753 L 174.836, 150.604 z "/>
<path style="fill:rgb(240, 66, 197);fill-opacity:1.0;fill-rule:evenodd;stroke:rgb(0, 0, 0);stroke-width:3.0;" d="M 279.989, 296.262 L 264.517, 287.27 L 262.926, 280.864 L 284.797, 254.917 z "/>
<path style="fill:rgb(240, 66, 197);fill-opacity:1.0;fill-rule:evenodd;stroke:rgb(0, 0, 0);stroke-width:3.0;" d="M 486.729, 142.894 L 477.534, 156.451 L 452.577, 145.681 L 452.193, 143.716 L 460.675, 132.805 z "/>
<path style="fill:rgb(240, 66, 197);fill-opacity:1.0;fill-rule:evenodd;stroke:rgb(0, 0, 0);stroke-width:3.0;" d="M 794.007, 136.959 L 792.595, 142.132 L 717.547, 210.073 L 681.163, 98.7544 L 722.255, 53.5116 z "/>
<path style="fill:rgb(240, 66, 197);fill-opacity:1.0;fill-rule:evenodd;stroke:rgb(0, 0, 0);stroke-width:3.0;" d="M 217.442, 539.969 L 208.42, 553.272 L 119.355, 492.384 L 195.051, 426.818 z "/>
<path style="fill:rgb(240, 66, 197);fill-opacity:1.0;fill-rule:evenodd;stroke:rgb(0, 0, 0);stroke-width:3.0;" d="M 689.911, 396.445 L 675.567, 422.512 L 665.058, 434.009 L 655.621, 423.47 L 660.875, 412.02 L 690.049, 391.252 z "/>
<path style="fill:rgb(240, 66, 197);fill-opacity:1.0;fill-rule:evenodd;stroke:rgb(0, 0, 0);stroke-width:3.0;" d="M 182.78, 535.743 L 136.921, 576.376 L 116.505, 556.84 L 171.51, 528.039 z "/>
<path style="fill:rgb(240, 66, 197);fill-opacity:1.0;fill-rule:evenodd;stroke:rgb(0, 0, 0);stroke-width:3.0;" d="M 550, 17.9099 L 526.278, 43.8206 L 524.378, 35.1695 L 552.14, 10.7672 L 558.27, 7.27183 z "/>
<path style="fill:rgb(240, 66, 197);fill-opacity:1.0;fill-rule:evenodd;stroke:rgb(0, 0, 0);stroke-width:3.0;" d="M 264.169, 502.733 L 234.75, 526.753 L 268.797, 476.926 z "/>
<path style="fill:rgb(35, 228, 228);fill-opacity:1.0;fill-rule:evenodd;stroke:rgb(0, 0, 0);stroke-width:3.0;" d="M 462.257, 149.859 L 475.936, 158.808 L 471.845, 164.84 L 461.593, 158.792 L 460.055, 156.964 L 452.929, 145.834 z "/>
<path style="fill:rgb(35, 228, 228);fill-opacity:1.0;fill-rule:evenodd;stroke:rgb(0, 0, 0);stroke-width:3.0;" d="M 40.1485, 264.295 L 30.1149, 269.849 L 28.6103, 268.273 L 36.7479, 246.723 z "/>
<path style="fill:rgb(35, 228, 228);fill-opacity:1.0;fill-rule:evenodd;stroke:rgb(0, 0, 0);stroke-width:3.0;" d="M 132.284, 296.905 L 127.578, 288.089 L 133.44, 267.612 L 165.018, 266.838 z "/>
<path style="fill:rgb(249, 114, 9);fill-opacity:1.0;fill-rule:evenodd;stroke:rgb(0, 0, 0);stroke-width:3.0;" d="M 24.4831, 281.703 L 16.4358, 319.871 L 15.4997, 319.847 L 15.1785, 303.843 L 23.628, 281.467 z "/>
<path style="fill:rgb(249, 114, 9);fill-opacity:1.0;fill-rule:evenodd;stroke:rgb(0, 0, 0);stroke-width:3.0;" d="M 387.309, 508.127 L 364.46, 536.542 L 321.593, 557.222 L 373.437, 479.037 z "/>
<path style="fill:rgb(12, 150, 255);fill-opacity:1.0;fill-rule:evenodd;stroke:rgb(0, 0, 0);stroke-width:3.0;" d="M 521.483, 91.6473 L 510.669, 107.593 L 489.571, 95.638 L 539.685, 31.1771 z "/>
<path style="fill:rgb(16, 194, 215);fill-opacity:1.0;fill-rule:evenodd;stroke:rgb(0, 0, 0);stroke-width:3.0;" d="M 754.745, 387.127 L 761.485, 410.937 L 759.645, 414.719 L 751.639, 400.695 L 743.972, 379.845 z "/>
<path style="fill:rgb(30, 35, 255);fill-opacity:1.0;fill-rule:evenodd;stroke:rgb(0, 0, 0);stroke-width:3.0;" d="M 247.421, 508.209 L 189.316, 593.245 L 182.905, 590.895 L 242.702, 502.722 z "/>
<path style="fill:rgb(255, 64, 31);fill-opacity:1.0;fill-rule:evenodd;stroke:rgb(0, 0, 0);stroke-width:3.0;" d="M 294.815, 168.755 L 284.797, 254.917 L 262.926, 280.864 L 252.034, 236.995 L 291.822, 152.617 z "/>
<path style="fill:rgb(255, 64, 31);fill-opacity:1.0;fill-rule:evenodd;stroke:rgb(0, 0, 0);stroke-width:3.0;" d="M 305.671, 265.491 L 307.859, 312.459 L 279.989, 296.262 L 285.314, 250.471 z "/>
<path style="fill:rgb(255, 64, 31);fill-opacity:1.0;fill-rule:evenodd;stroke:rgb(0, 0, 0);stroke-width:3.0;" d="M 494.894, 130.854 L 490.46, 137.393 L 478.445, 139.687 L 460.675, 132.805 L 470.778, 119.81 z "/>
<path style="fill:rgb(255, 64, 31);fill-opacity:1.0;fill-rule:evenodd;stroke:rgb(0, 0, 0);stroke-width:3.0;" d="M 360.544, 553.335 L 354.961, 541.124 L 378.75, 529.648 z "/>
<path style="fill:rgb(9, 204, 255);fill-opacity:1.0;fill-rule:evenodd;stroke:rgb(0, 0, 0);stroke-width:3.0;" d="M 556.856, 59.5637 L 562.479, 69.2923 L 555.517, 74.3666 L 542.818, 78.6245 L 539.134, 68.2072 L 539.71, 64.7704 L 543.439, 59.2714 z "/>
<path style="fill:rgb(9, 204, 255);fill-opacity:1.0;fill-rule:evenodd;stroke:rgb(0, 0, 0);stroke-width:3.0;" d="M 741.643, 35.9666 L 735.29, 44.8644 L 715.683, 47.1273 L 704.246, 37.2075 L 709.945, 32.558 z "/>
<path style="fill:rgb(56, 255, 255);fill-opacity:1.0;fill-rule:evenodd;stroke:rgb(0, 0, 0);stroke-width:3.0;" d="M 173.295, 198.364 L 173.006, 207.332 L 155.5, 190.558 L 156.613, 186.671 L 168.119, 178.44 z "/>
<path style="fill:rgb(11, 217, 187);fill-opacity:1.0;fill-rule:evenodd;stroke:rgb(0, 0, 0);stroke-width:3.0;" d="M 138.166, 308.782 L 116.688, 329.462 L 118.205, 275.56 z "/>
<path style="fill:rgb(11, 217, 187);fill-opacity:1.0;fill-rule:evenodd;stroke:rgb(0, 0, 0);stroke-width:3.0;" d="M 773.993, 210.283 L 743.432, 186.639 L 792.595, 142.132 z "/>
<path style="fill:rgb(11, 217, 187);fill-opacity:1.0;fill-rule:evenodd;stroke:rgb(0, 0, 0);stroke-width:3.0;" d="M 80.6952, 137.098 L 59.9012, 144.202 L 55.7495, 141.386 L 77.9225, 130.487 z "/>
<path style="fill:rgb(11, 217, 187);fill-opacity:1.0;fill-rule:evenodd;stroke:rgb(0, 0, 0);stroke-width:3.0;" d="M 313.879, 271.547 L 321.534, 312.824 L 307.784, 310.854 L 305.671, 265.491 z "/>
<path style="fill:rgb(11, 217, 187);fill-opacity:1.0;fill-rule:evenodd;stroke:rgb(0, 0, 0);stroke-width:3.0;" d="M 431.63, 105.734 L 304.925, 223.268 L 287.673, 130.246 L 436.019, 56.4092 z "/>
<path style="fill:rgb(215, 243, 255);fill-opacity:1.0;fill-rule:evenodd;stroke:rgb(0, 0, 0);stroke-width:3.0;" d="M 444.713, 166.451 L 450.76, 168.13 L 440.033, 176.997 L 436.546, 178.201 L 433.939, 174.924 L 436.229, 166.371 z "/>
<path style="fill:rgb(215, 243, 255);fill-opacity:1.0;fill-rule:evenodd;stroke:rgb(0, 0, 0);stroke-width:3.0;" d="M 298.134, 475.003 L 275.401, 493.563 L 278.432, 474.896 z "/>
<path style="fill:rgb(215, 243, 255);fill-opacity:1.0;fill-rule:evenodd;stroke:rgb(0, 0, 0);stroke-width:3.0;" d="M 463.244, 160.755 L 459.111, 162.274 L 441.661, 157.263 L 450.616, 145.744 z "/>
<path style="fill:rgb(44, 255, 255);fill-opacity:1.0;fill-rule:evenodd;stroke:rgb(0, 0, 0);stroke-width:3.0;" d="M 171.51, 528.039 L 116.505, 556.84 L 110.452, 551.048 L 111.922, 498.822 L 119.355, 492.384 z "/>
<path style="fill:rgb(44, 255, 255);fill-opacity:1.0;fill-rule:evenodd;stroke:rgb(0, 0, 0);stroke-width:3.0;" d="M 738.999, 230.598 L 745.497, 248.911 L 724.185, 306.646 L 527.745, 510.068 L 591.182, 137.897 z "/>
<path style="fill:rgb(6, 123, 246);fill-opacity:1.0;fill-rule:evenodd;stroke:rgb(0, 0, 0);stroke-width:3.0;" d="M 566.231, 122.248 L 565.878, 122.027 L 565.567, 119.321 L 575.182, 99.822 L 592.85, 98.2856 z "/>
<path style="fill:rgb(6, 123, 246);fill-opacity:1.0;fill-rule:evenodd;stroke:rgb(0, 0, 0);stroke-width:3.0;" d="M 330.6, 281.151 L 350.456, 291.84 L 346.943, 296.435 L 337.205, 299.849 L 315.664, 281.175 L 315.229, 278.831 z "/>
<path style="fill:rgb(255, 24, 194);fill-opacity:1.0;fill-rule:evenodd;stroke:rgb(0, 0, 0);stroke-width:3.0;" d="M 794.576, 324.228 L 794.855, 330.129 L 786.001, 325.556 L 784.994, 314.319 L 791.156, 306.645 z "/>
<path style="fill:rgb(255, 24, 194);fill-opacity:1.0;fill-rule:evenodd;stroke:rgb(0, 0, 0);stroke-width:3.0;" d="M 794.576, 324.228 L 786.39, 282.148 L 792.258, 275.122 z "/>
<path style="fill:rgb(255, 255, 8);fill-opacity:1.0;fill-rule:evenodd;stroke:rgb(0, 0, 0);stroke-width:3.0;" d="M 688.043, 53.4105 L 687.016, 56.7427 L 673.069, 73.9883 L 666.115, 52.7128 L 677.405, 40.0468 z "/>
<path style="fill:rgb(255, 255, 8);fill-opacity:1.0;fill-rule:evenodd;stroke:rgb(0, 0, 0);stroke-width:3.0;" d="M 359.776, 279.648 L 328.477, 276.063 L 368.742, 267.919 z "/>
<path style="fill:rgb(255, 134, 59);fill-opacity:1.0;fill-rule:evenodd;stroke:rgb(0, 0, 0);stroke-width:3.0;" d="M 505.33, 75.3666 L 425.157, 178.491 L 432.481, 96.1672 L 445.448, 71.6045 L 487.348, 47.7123 z "/>
<path style="fill:rgb(255, 134, 59);fill-opacity:1.0;fill-rule:evenodd;stroke:rgb(0, 0, 0);stroke-width:3.0;" d="M 383.87, 500.915 L 329.828, 387.585 L 441.121, 300.116 z "/>
<path style="fill:rgb(255, 134, 59);fill-opacity:1.0;fill-rule:evenodd;stroke:rgb(0, 0, 0);stroke-width:3.0;" d="M 77.9225, 130.487 L 55.7495, 141.386 L 51.4899, 138.496 L 56.4583, 130.758 L 72.4303, 117.39 z "/>
<path style="fill:rgb(255, 134, 59);fill-opacity:1.0;fill-rule:evenodd;stroke:rgb(0, 0, 0);stroke-width:3.0;" d="M 262.924, 286.344 L 257.597, 291.14 L 228.369, 289.146 L 234.985, 270.107 z "/>
<path style="fill:rgb(255, 134, 59);fill-opacity:1.0;fill-rule:evenodd;stroke:rgb(0, 0, 0);stroke-width:3.0;" d="M 368.742, 267.919 L 328.477, 276.063 L 314.418, 274.453 L 314.178, 273.161 L 387.14, 243.853 z "/>
<path style="fill:rgb(255, 25, 130);fill-opacity:1.0;fill-rule:evenodd;stroke:rgb(0, 0, 0);stroke-width:3.0;" d="M 264.517, 287.27 L 249.936, 278.796 L 254.519, 247.002 z "/>
<path style="fill:rgb(170, 228, 255);fill-opacity:1.0;fill-rule:evenodd;stroke:rgb(0, 0, 0);stroke-width:3.0;" d="M 753.234, 312.588 L 753.153, 317.692 L 743.419, 330.302 L 723.054, 307.817 L 726.952, 303.78 z "/>
<path style="fill:rgb(252, 11, 11);fill-opacity:1.0;fill-rule:evenodd;stroke:rgb(0, 0, 0);stroke-width:3.0;" d="M 753.234, 312.588 L 726.952, 303.78 L 727.338, 303.381 L 753.514, 295.094 z "/>
<path style="fill:rgb(255, 255, 30);fill-opacity:1.0;fill-rule:evenodd;stroke:rgb(0, 0, 0);stroke-width:3.0;" d="M 176.793, 89.9576 L 168.605, 109.106 L 167.645, 108.902 L 177.515, 67.5744 z "/>
<path style="fill:rgb(255, 255, 30);fill-opacity:1.0;fill-rule:evenodd;stroke:rgb(0, 0, 0);stroke-width:3.0;" d="M 95.0382, 566.614 L 91.8851, 588.136 L 84.346, 575.665 L 94.7115, 565.936 z "/>
<path style="fill:rgb(246, 14, 17);fill-opacity:1.0;fill-rule:evenodd;stroke:rgb(0, 0, 0);stroke-width:3.0;" d="M 332.982, 296.188 L 339.537, 301.871 L 327.837, 303.512 L 318.862, 298.418 L 318.409, 295.973 z "/>
<path style="fill:rgb(246, 14, 17);fill-opacity:1.0;fill-rule:evenodd;stroke:rgb(0, 0, 0);stroke-width:3.0;" d="M 27.2118, 444.922 L 23.8022, 496.77 L 21.829, 496.509 L 10.2964, 468.692 L 20.2444, 438.849 z "/>
<path style="fill:rgb(246, 14, 17);fill-opacity:1.0;fill-rule:evenodd;stroke:rgb(0, 0, 0);stroke-width:3.0;" d="M 773.993, 210.283 L 766.851, 236.448 L 749.155, 207.6 L 758.209, 198.072 z "/>
<path style="fill:rgb(246, 14, 17);fill-opacity:1.0;fill-rule:evenodd;stroke:rgb(0, 0, 0);stroke-width:3.0;" d="M 312.267, 460.237 L 296.917, 474.997 L 270.214, 474.852 L 308.741, 418.468 z "/>
<path style="fill:rgb(246, 14, 17);fill-opacity:1.0;fill-rule:evenodd;stroke:rgb(0, 0, 0);stroke-width:3.0;" d="M 384.534, 526.857 L 364.46, 536.542 L 382.319, 514.332 z "/>
<path style="fill:rgb(246, 14, 17);fill-opacity:1.0;fill-rule:evenodd;stroke:rgb(0, 0, 0);stroke-width:3.0;" d="M 359.776, 279.648 L 355.728, 284.944 L 322.71, 279.96 L 323.847, 275.533 z "/>
<path style="fill:rgb(246, 14, 17);fill-opacity:1.0;fill-rule:evenodd;stroke:rgb(0, 0, 0);stroke-width:3.0;" d="M 177.515, 67.5744 L 167.645, 108.902 L 153.687, 105.935 L 154.193, 103.774 L 178.05, 50.9984 z "/>
<path style="fill:rgb(246, 14, 17);fill-opacity:1.0;fill-rule:evenodd;stroke:rgb(0, 0, 0);stroke-width:3.0;" d="M 765.09, 264.287 L 754.751, 274.993 L 746.674, 252.229 z "/>
<path style="fill:rgb(246, 17, 70);fill-opacity:1.0;fill-rule:evenodd;stroke:rgb(0, 0, 0);stroke-width:3.0;" d="M 391.229, 265.824 L 388.499, 287.737 L 355.227, 336.799 L 352.45, 289.231 L 377.453, 256.525 z "/>
<path style="fill:rgb(237, 255, 9);fill-opacity:1.0;fill-rule:evenodd;stroke:rgb(0, 0, 0);stroke-width:3.0;" d="M 142.492, 305.285 L 139.137, 309.744 L 132.284, 296.905 L 143.492, 286.61 z "/>
<path style="fill:rgb(255, 24, 44);fill-opacity:1.0;fill-rule:evenodd;stroke:rgb(0, 0, 0);stroke-width:3.0;" d="M 91.6379, 568.666 L 69.3757, 573.273 L 101.706, 536.55 z "/>
<path style="fill:rgb(255, 24, 44);fill-opacity:1.0;fill-rule:evenodd;stroke:rgb(0, 0, 0);stroke-width:3.0;" d="M 338.894, 306.964 L 324.048, 326.384 L 323.072, 321.118 L 332.828, 305.789 z "/>
<path style="fill:rgb(255, 85, 255);fill-opacity:1.0;fill-rule:evenodd;stroke:rgb(0, 0, 0);stroke-width:3.0;" d="M 166.04, 115.65 L 164.514, 122.89 L 149.482, 123.901 L 152.396, 111.451 z "/>
<path style="fill:rgb(255, 207, 12);fill-opacity:1.0;fill-rule:evenodd;stroke:rgb(0, 0, 0);stroke-width:3.0;" d="M 354.381, 322.312 L 355.075, 334.193 L 345.076, 332.033 L 347.086, 319.689 L 350.085, 317.523 z "/>
<path style="fill:rgb(255, 207, 12);fill-opacity:1.0;fill-rule:evenodd;stroke:rgb(0, 0, 0);stroke-width:3.0;" d="M 470.588, 166.694 L 457.248, 186.365 L 454.276, 172.08 L 469.897, 166.687 z "/>
<path style="fill:rgb(249, 57, 33);fill-opacity:1.0;fill-rule:evenodd;stroke:rgb(0, 0, 0);stroke-width:3.0;" d="M 659.022, 88.0282 L 638.719, 167.709 L 638.703, 167.698 L 642.698, 74.5086 z "/>
<path style="fill:rgb(249, 57, 33);fill-opacity:1.0;fill-rule:evenodd;stroke:rgb(0, 0, 0);stroke-width:3.0;" d="M 158.818, 232.161 L 157.842, 245.348 L 146.81, 244.553 L 149.183, 231.513 L 157.052, 230.328 z "/>
<path style="fill:rgb(152, 255, 60);fill-opacity:1.0;fill-rule:evenodd;stroke:rgb(0, 0, 0);stroke-width:3.0;" d="M 275.848, 152.523 L 272.771, 161.375 L 213.344, 154.839 L 220.726, 141.464 L 253.312, 123.92 z "/>
<path style="fill:rgb(152, 255, 60);fill-opacity:1.0;fill-rule:evenodd;stroke:rgb(0, 0, 0);stroke-width:3.0;" d="M 430.147, 122.411 L 420.331, 133.545 L 415.839, 130.76 L 417.087, 123.076 L 430.667, 116.563 z "/>
<path style="fill:rgb(249, 197, 22);fill-opacity:1.0;fill-rule:evenodd;stroke:rgb(0, 0, 0);stroke-width:3.0;" d="M 74.6306, 162.165 L 77.3314, 184.349 L 76.8926, 185.395 L 63.0096, 177.178 L 70.0454, 158.546 z "/>
<path style="fill:rgb(204, 0, 124);fill-opacity:1.0;fill-rule:evenodd;stroke:rgb(0, 0, 0);stroke-width:3.0;" d="M 786.417, 260.335 L 785.201, 276.169 L 779.916, 283.017 L 751.175, 278.697 L 775.511, 253.496 z "/>
<path style="fill:rgb(204, 0, 124);fill-opacity:1.0;fill-rule:evenodd;stroke:rgb(0, 0, 0);stroke-width:3.0;" d="M 384.164, 561.697 L 363.52, 559.844 L 360.544, 553.335 L 368.886, 542.482 z "/>
<path style="fill:rgb(204, 0, 124);fill-opacity:1.0;fill-rule:evenodd;stroke:rgb(0, 0, 0);stroke-width:3.0;" d="M 721.316, 346.923 L 742.375, 375.503 L 746.625, 387.061 L 710.697, 346.172 z "/>
<path style="fill:rgb(204, 0, 124);fill-opacity:1.0;fill-rule:evenodd;stroke:rgb(0, 0, 0);stroke-width:3.0;" d="M 779.916, 283.017 L 772.895, 292.114 L 759.19, 286.873 L 756.155, 279.446 z "/>
<path style="fill:rgb(255, 255, 50);fill-opacity:1.0;fill-rule:evenodd;stroke:rgb(0, 0, 0);stroke-width:3.0;" d="M 753.829, 272.395 L 754.751, 274.993 L 724.185, 306.646 L 736.965, 272.024 z "/>
<path style="fill:rgb(237, 4, 28);fill-opacity:1.0;fill-rule:evenodd;stroke:rgb(0, 0, 0);stroke-width:3.0;" d="M 753.829, 272.395 L 736.965, 272.024 L 745.497, 248.911 z "/>
<path style="fill:rgb(255, 144, 49);fill-opacity:1.0;fill-rule:evenodd;stroke:rgb(0, 0, 0);stroke-width:3.0;" d="M 762.759, 389.328 L 762.22, 391.837 L 736.349, 359.117 L 733.071, 350.202 L 745.881, 349.86 z "/>
<path style="fill:rgb(255, 144, 49);fill-opacity:1.0;fill-rule:evenodd;stroke:rgb(0, 0, 0);stroke-width:3.0;" d="M 70.0454, 158.546 L 53.2082, 203.134 L 28.531, 174.517 L 29.444, 170.572 L 63.4093, 153.308 z "/>
<path style="fill:rgb(255, 144, 49);fill-opacity:1.0;fill-rule:evenodd;stroke:rgb(0, 0, 0);stroke-width:3.0;" d="M 169.367, 320.106 L 159.915, 348.674 L 143.469, 317.861 L 142.873, 304.779 L 171.071, 267.304 z "/>
<path style="fill:rgb(255, 94, 66);fill-opacity:1.0;fill-rule:evenodd;stroke:rgb(0, 0, 0);stroke-width:3.0;" d="M 143.479, 262.865 L 134.628, 263.464 L 138.626, 249.499 L 146.236, 247.711 z "/>
<path style="fill:rgb(255, 40, 66);fill-opacity:1.0;fill-rule:evenodd;stroke:rgb(0, 0, 0);stroke-width:3.0;" d="M 433.324, 405.999 L 425.794, 405.194 L 494.255, 131.797 L 495.202, 130.4 z "/>
<path style="fill:rgb(255, 40, 66);fill-opacity:1.0;fill-rule:evenodd;stroke:rgb(0, 0, 0);stroke-width:3.0;" d="M 176.873, 53.602 L 172.936, 62.3119 L 164.728, 58.7674 L 166.641, 50.5961 L 172.245, 47.12 z "/>
<path style="fill:rgb(255, 40, 66);fill-opacity:1.0;fill-rule:evenodd;stroke:rgb(0, 0, 0);stroke-width:3.0;" d="M 549.869, 49.7912 L 521.483, 91.6473 L 537.59, 38.1367 z "/>
<path style="fill:rgb(215, 41, 234);fill-opacity:1.0;fill-rule:evenodd;stroke:rgb(0, 0, 0);stroke-width:3.0;" d="M 170.079, 109.419 L 167.372, 116.06 L 152.396, 111.451 L 153.687, 105.935 z "/>
<path style="fill:rgb(255, 92, 231);fill-opacity:1.0;fill-rule:evenodd;stroke:rgb(0, 0, 0);stroke-width:3.0;" d="M 175.016, 145.031 L 173.654, 187.238 L 170.741, 188.533 L 163.766, 161.686 L 169.478, 141.733 z "/>
<path style="fill:rgb(249, 7, 33);fill-opacity:1.0;fill-rule:evenodd;stroke:rgb(0, 0, 0);stroke-width:3.0;" d="M 137.89, 589.639 L 139.555, 592.392 L 125.54, 592.13 L 109.445, 586.84 L 109.618, 580.687 z "/>
<path style="fill:rgb(255, 168, 192);fill-opacity:1.0;fill-rule:evenodd;stroke:rgb(0, 0, 0);stroke-width:3.0;" d="M 543.476, 417.777 L 527.745, 510.068 L 502.272, 536.446 L 440.197, 543.716 L 391.94, 472.611 L 411.595, 403.676 z "/>
<path style="fill:rgb(255, 168, 192);fill-opacity:1.0;fill-rule:evenodd;stroke:rgb(0, 0, 0);stroke-width:3.0;" d="M 115.761, 563.399 L 120.173, 584.029 L 109.618, 580.687 L 110.136, 562.265 L 113.745, 559.185 z "/>
<path style="fill:rgb(237, 255, 18);fill-opacity:1.0;fill-rule:evenodd;stroke:rgb(0, 0, 0);stroke-width:3.0;" d="M 688.218, 459.873 L 669.412, 438.872 L 688.805, 437.883 z "/>
<path style="fill:rgb(237, 255, 18);fill-opacity:1.0;fill-rule:evenodd;stroke:rgb(0, 0, 0);stroke-width:3.0;" d="M 408.475, 248.63 L 401.231, 255.276 L 378.293, 257.092 L 377.453, 256.525 L 386.03, 245.304 L 408.419, 237.532 z "/>
<path style="fill:rgb(40, 130, 255);fill-opacity:1.0;fill-rule:evenodd;stroke:rgb(0, 0, 0);stroke-width:3.0;" d="M 110.449, 551.164 L 91.8491, 568.623 L 91.6379, 568.666 L 101.706, 536.55 L 111.162, 525.809 z "/>
<path style="fill:rgb(74, 255, 8);fill-opacity:1.0;fill-rule:evenodd;stroke:rgb(0, 0, 0);stroke-width:3.0;" d="M 591.182, 137.897 L 580.55, 200.273 L 571.81, 225.962 L 543.216, 107.815 z "/>
<path style="fill:rgb(74, 255, 8);fill-opacity:1.0;fill-rule:evenodd;stroke:rgb(0, 0, 0);stroke-width:3.0;" d="M 539.495, 581.769 L 538.465, 594.725 L 500.99, 562.452 z "/>
<path style="fill:rgb(74, 255, 8);fill-opacity:1.0;fill-rule:evenodd;stroke:rgb(0, 0, 0);stroke-width:3.0;" d="M 616.205, 554.246 L 486.933, 552.33 L 593.888, 441.574 z "/>
<path style="fill:rgb(50, 37, 255);fill-opacity:1.0;fill-rule:evenodd;stroke:rgb(0, 0, 0);stroke-width:3.0;" d="M 577.184, 46.798 L 574.875, 48.8719 L 551.578, 47.2715 L 556.956, 39.3403 z "/>
<path style="fill:rgb(255, 243, 11);fill-opacity:1.0;fill-rule:evenodd;stroke:rgb(0, 0, 0);stroke-width:3.0;" d="M 59.1481, 152.13 L 54.272, 157.952 L 31.5946, 169.479 L 37.384, 160.463 L 54.3302, 150.178 z "/>
<path style="fill:rgb(255, 24, 10);fill-opacity:1.0;fill-rule:evenodd;stroke:rgb(0, 0, 0);stroke-width:3.0;" d="M 256.703, 494.625 L 253.505, 486.793 L 302.545, 414.48 L 318.717, 403.869 z "/>
<path style="fill:rgb(217, 59, 62);fill-opacity:1.0;fill-rule:evenodd;stroke:rgb(0, 0, 0);stroke-width:3.0;" d="M 442.004, 185.064 L 435.499, 213.279 L 422.309, 210.509 L 425.157, 178.491 L 430.9, 171.104 z "/>
<path style="fill:rgb(255, 37, 255);fill-opacity:1.0;fill-rule:evenodd;stroke:rgb(0, 0, 0);stroke-width:3.0;" d="M 199.545, 422.925 L 111.922, 498.822 L 116.688, 329.462 L 138.468, 308.492 z "/>
<path style="fill:rgb(255, 71, 9);fill-opacity:1.0;fill-rule:evenodd;stroke:rgb(0, 0, 0);stroke-width:3.0;" d="M 712.713, 64.0171 L 704.065, 73.5391 L 687.556, 52.7993 L 692.1, 46.4929 z "/>
<path style="fill:rgb(237, 168, 25);fill-opacity:1.0;fill-rule:evenodd;stroke:rgb(0, 0, 0);stroke-width:3.0;" d="M 564.941, 113.866 L 565.878, 122.027 L 536.016, 103.299 z "/>
<path style="fill:rgb(237, 168, 25);fill-opacity:1.0;fill-rule:evenodd;stroke:rgb(0, 0, 0);stroke-width:3.0;" d="M 156.466, 191.483 L 148.395, 235.843 L 143.288, 233.216 L 155.5, 190.558 z "/>
<path style="fill:rgb(237, 168, 25);fill-opacity:1.0;fill-rule:evenodd;stroke:rgb(0, 0, 0);stroke-width:3.0;" d="M 543.216, 107.815 L 571.81, 225.962 L 525.185, 363 L 451.046, 327.067 L 495.202, 130.4 L 520.275, 93.4281 z "/>
<path style="fill:rgb(237, 168, 25);fill-opacity:1.0;fill-rule:evenodd;stroke:rgb(0, 0, 0);stroke-width:3.0;" d="M 733.881, 352.406 L 742.375, 375.503 L 706.135, 326.321 L 714.046, 324.371 z "/>
<path style="fill:rgb(237, 168, 25);fill-opacity:1.0;fill-rule:evenodd;stroke:rgb(0, 0, 0);stroke-width:3.0;" d="M 479.461, 190.874 L 473.808, 185.475 L 485.382, 144.879 L 494.255, 131.797 z "/>
<path style="fill:rgb(237, 168, 25);fill-opacity:1.0;fill-rule:evenodd;stroke:rgb(0, 0, 0);stroke-width:3.0;" d="M 283.487, 107.674 L 198.846, 153.244 L 186.669, 151.905 L 264.425, 91.4221 L 279.204, 84.5795 z "/>
<path style="fill:rgb(228, 126, 55);fill-opacity:1.0;fill-rule:evenodd;stroke:rgb(0, 0, 0);stroke-width:3.0;" d="M 186.669, 151.905 L 174.836, 150.604 L 175.416, 132.632 L 264.425, 91.4221 z "/>
<path style="fill:rgb(21, 37, 255);fill-opacity:1.0;fill-rule:evenodd;stroke:rgb(0, 0, 0);stroke-width:3.0;" d="M 415.506, 232.458 L 398.199, 239.41 L 404.867, 198.341 z "/>
<path style="fill:rgb(28, 31, 249);fill-opacity:1.0;fill-rule:evenodd;stroke:rgb(0, 0, 0);stroke-width:3.0;" d="M 171.071, 267.304 L 154.311, 289.577 L 157.101, 274.11 L 165.018, 266.838 L 171.091, 266.689 z "/>
<path style="fill:rgb(217, 19, 194);fill-opacity:1.0;fill-rule:evenodd;stroke:rgb(0, 0, 0);stroke-width:3.0;" d="M 543.476, 417.777 L 507.845, 413.967 L 580.55, 200.273 z "/>
<path style="fill:rgb(61, 207, 217);fill-opacity:1.0;fill-rule:evenodd;stroke:rgb(0, 0, 0);stroke-width:3.0;" d="M 329.835, 387.598 L 318.717, 403.869 L 315.435, 406.022 L 312.517, 399.777 L 326.095, 379.756 z "/>
<path style="fill:rgb(237, 18, 220);fill-opacity:1.0;fill-rule:evenodd;stroke:rgb(0, 0, 0);stroke-width:3.0;" d="M 134.445, 196.821 L 133.429, 192.481 L 143.346, 150.115 L 162.526, 127.945 z "/>
<path style="fill:rgb(255, 220, 11);fill-opacity:1.0;fill-rule:evenodd;stroke:rgb(0, 0, 0);stroke-width:3.0;" d="M 164.436, 123.262 L 162.526, 127.945 L 143.346, 150.115 L 149.482, 123.901 L 164.514, 122.89 z "/>
<path style="fill:rgb(255, 252, 10);fill-opacity:1.0;fill-rule:evenodd;stroke:rgb(0, 0, 0);stroke-width:3.0;" d="M 313.879, 271.547 L 285.314, 250.471 L 294.815, 168.755 z "/>
<path style="fill:rgb(61, 95, 255);fill-opacity:1.0;fill-rule:evenodd;stroke:rgb(0, 0, 0);stroke-width:3.0;" d="M 332.133, 358.62 L 327.545, 345.239 L 324.048, 326.384 L 329.614, 319.104 z "/>
<path style="fill:rgb(215, 0, 9);fill-opacity:1.0;fill-rule:evenodd;stroke:rgb(0, 0, 0);stroke-width:3.0;" d="M 323.11, 321.322 L 332.261, 370.664 L 242.385, 503.189 L 188.845, 402.878 L 214.05, 330.351 L 262.924, 286.344 z "/>
<path style="fill:rgb(255, 58, 57);fill-opacity:1.0;fill-rule:evenodd;stroke:rgb(0, 0, 0);stroke-width:3.0;" d="M 686.855, 22.1225 L 686.265, 29.2403 L 665.829, 34.3726 L 664.163, 33.5624 L 686.059, 21.4325 z "/>
<path style="fill:rgb(252, 0, 243);fill-opacity:1.0;fill-rule:evenodd;stroke:rgb(0, 0, 0);stroke-width:3.0;" d="M 286.252, 122.583 L 283.197, 131.374 L 265.361, 139.212 L 261.247, 133.992 L 286.209, 122.351 z "/>
<path style="fill:rgb(204, 4, 7);fill-opacity:1.0;fill-rule:evenodd;stroke:rgb(0, 0, 0);stroke-width:3.0;" d="M 340.847, 358.003 L 338.75, 361.094 L 329.986, 324.942 L 329.614, 319.104 L 351.936, 289.903 z "/>
<path style="fill:rgb(204, 4, 7);fill-opacity:1.0;fill-rule:evenodd;stroke:rgb(0, 0, 0);stroke-width:3.0;" d="M 32.8004, 359.939 L 13.1023, 354.208 L 9.54893, 345.996 L 14.2574, 334.768 L 34.8644, 328.553 z "/>
<path style="fill:rgb(204, 4, 7);fill-opacity:1.0;fill-rule:evenodd;stroke:rgb(0, 0, 0);stroke-width:3.0;" d="M 286.209, 122.351 L 261.247, 133.992 L 253.312, 123.92 L 283.487, 107.674 z "/>
<path style="fill:rgb(138, 246, 255);fill-opacity:1.0;fill-rule:evenodd;stroke:rgb(0, 0, 0);stroke-width:3.0;" d="M 527.066, 47.4089 L 505.33, 75.3666 L 487.348, 47.7123 L 522.705, 27.5517 z "/>
<path style="fill:rgb(217, 255, 44);fill-opacity:1.0;fill-rule:evenodd;stroke:rgb(0, 0, 0);stroke-width:3.0;" d="M 322.63, 112.847 L 287.673, 130.246 L 275.166, 62.8036 z "/>
<path style="fill:rgb(255, 217, 18);fill-opacity:1.0;fill-rule:evenodd;stroke:rgb(0, 0, 0);stroke-width:3.0;" d="M 124.669, 45.8521 L 123.897, 73.2995 L 123.241, 74.8631 L 56.4583, 130.758 L 115.565, 38.7117 z "/>
<path style="fill:rgb(255, 41, 51);fill-opacity:1.0;fill-rule:evenodd;stroke:rgb(0, 0, 0);stroke-width:3.0;" d="M 688.218, 459.873 L 687.371, 491.63 L 685.573, 489.95 L 645.63, 445.242 L 655.621, 423.47 z "/>
<path style="fill:rgb(255, 12, 20);fill-opacity:1.0;fill-rule:evenodd;stroke:rgb(0, 0, 0);stroke-width:3.0;" d="M 746.199, 73.5961 L 758.431, 85.1534 L 758.335, 85.4343 L 738.567, 72.4829 L 722.255, 53.5116 L 722.602, 53.1289 z "/>
<path style="fill:rgb(255, 12, 20);fill-opacity:1.0;fill-rule:evenodd;stroke:rgb(0, 0, 0);stroke-width:3.0;" d="M 564.272, 108.046 L 564.941, 113.866 L 536.016, 103.299 L 535.916, 103.237 L 556.456, 101.451 z "/>
<path style="fill:rgb(255, 97, 7);fill-opacity:1.0;fill-rule:evenodd;stroke:rgb(0, 0, 0);stroke-width:3.0;" d="M 457.248, 186.365 L 450.709, 196.007 L 436.546, 178.201 L 441.837, 176.375 L 454.88, 174.981 z "/>
<path style="fill:rgb(172, 255, 75);fill-opacity:1.0;fill-rule:evenodd;stroke:rgb(0, 0, 0);stroke-width:3.0;" d="M 769.647, 13.2475 L 769.35, 23.9384 L 759.727, 28.4855 L 757.954, 19.8194 L 762.219, 11.5664 z "/>
<path style="fill:rgb(170, 21, 226);fill-opacity:1.0;fill-rule:evenodd;stroke:rgb(0, 0, 0);stroke-width:3.0;" d="M 435.499, 213.279 L 433.699, 221.089 L 427.986, 229.513 L 424.355, 210.939 z "/>
<path style="fill:rgb(24, 52, 243);fill-opacity:1.0;fill-rule:evenodd;stroke:rgb(0, 0, 0);stroke-width:3.0;" d="M 355.075, 334.193 L 355.227, 336.799 L 340.847, 358.003 L 345.076, 332.033 z "/>
<path style="fill:rgb(255, 74, 9);fill-opacity:1.0;fill-rule:evenodd;stroke:rgb(0, 0, 0);stroke-width:3.0;" d="M 84.015, 142.834 L 64.3747, 152.817 L 57.5306, 151.474 L 54.2173, 150.132 L 76.5069, 139.27 z "/>
<path style="fill:rgb(240, 19, 163);fill-opacity:1.0;fill-rule:evenodd;stroke:rgb(0, 0, 0);stroke-width:3.0;" d="M 758.209, 198.072 L 749.155, 207.6 L 738.845, 190.792 L 743.432, 186.639 z "/>
<path style="fill:rgb(255, 21, 67);fill-opacity:1.0;fill-rule:evenodd;stroke:rgb(0, 0, 0);stroke-width:3.0;" d="M 772.013, 102.202 L 793.932, 125.301 L 788.929, 131.055 L 770.342, 109.437 L 767.923, 99.376 z "/>
<path style="fill:rgb(255, 21, 67);fill-opacity:1.0;fill-rule:evenodd;stroke:rgb(0, 0, 0);stroke-width:3.0;" d="M 525.185, 363 L 507.845, 413.967 L 433.324, 405.999 L 451.046, 327.067 z "/>
<path style="fill:rgb(86, 154, 246);fill-opacity:1.0;fill-rule:evenodd;stroke:rgb(0, 0, 0);stroke-width:3.0;" d="M 690.168, 386.822 L 666.362, 400.063 L 691.262, 345.803 z "/>
<path style="fill:rgb(86, 154, 246);fill-opacity:1.0;fill-rule:evenodd;stroke:rgb(0, 0, 0);stroke-width:3.0;" d="M 128.719, 576.705 L 125.405, 585.685 L 120.173, 584.029 L 117.008, 569.231 z "/>
<path style="fill:rgb(255, 179, 8);fill-opacity:1.0;fill-rule:evenodd;stroke:rgb(0, 0, 0);stroke-width:3.0;" d="M 120.183, 560.36 L 129.23, 575.319 L 128.719, 576.705 L 117.008, 569.231 L 114.688, 558.381 L 116.499, 556.835 z "/>
<path style="fill:rgb(252, 71, 10);fill-opacity:1.0;fill-rule:evenodd;stroke:rgb(0, 0, 0);stroke-width:3.0;" d="M 762.759, 389.328 L 745.881, 349.86 L 771.39, 349.178 z "/>
<path style="fill:rgb(252, 192, 10);fill-opacity:1.0;fill-rule:evenodd;stroke:rgb(0, 0, 0);stroke-width:3.0;" d="M 254.519, 247.002 L 251.243, 269.73 L 240.575, 273.355 L 234.985, 270.107 L 249.725, 227.694 z "/>
<path style="fill:rgb(234, 18, 10);fill-opacity:1.0;fill-rule:evenodd;stroke:rgb(0, 0, 0);stroke-width:3.0;" d="M 524.378, 35.1695 L 522.705, 27.5517 L 552.14, 10.7672 z "/>
<path style="fill:rgb(255, 132, 39);fill-opacity:1.0;fill-rule:evenodd;stroke:rgb(0, 0, 0);stroke-width:3.0;" d="M 784.929, 313.592 L 763.624, 313.998 L 758.176, 311.184 L 781.952, 280.379 z "/>
<path style="fill:rgb(255, 132, 39);fill-opacity:1.0;fill-rule:evenodd;stroke:rgb(0, 0, 0);stroke-width:3.0;" d="M 688.805, 437.883 L 669.412, 438.872 L 665.058, 434.009 L 689.626, 407.13 z "/>
<path style="fill:rgb(252, 9, 29);fill-opacity:1.0;fill-rule:evenodd;stroke:rgb(0, 0, 0);stroke-width:3.0;" d="M 392.265, 538.639 L 393.692, 547.429 L 389.664, 562.191 L 384.164, 561.697 L 368.886, 542.482 L 369.209, 542.062 L 389.522, 536.431 z "/>
<path style="fill:rgb(24, 97, 255);fill-opacity:1.0;fill-rule:evenodd;stroke:rgb(0, 0, 0);stroke-width:3.0;" d="M 263.337, 75.7519 L 273.017, 87.4442 L 175.416, 132.632 L 177.599, 64.9981 z "/>
<path style="fill:rgb(30, 20, 255);fill-opacity:1.0;fill-rule:evenodd;stroke:rgb(0, 0, 0);stroke-width:3.0;" d="M 588.895, 28.5213 L 577.451, 30.7484 L 569.412, 20.9745 L 573.427, 15.0532 z "/>
<path style="fill:rgb(24, 65, 255);fill-opacity:1.0;fill-rule:evenodd;stroke:rgb(0, 0, 0);stroke-width:3.0;" d="M 770.26, 258.933 L 765.09, 264.287 L 746.674, 252.229 L 746.484, 251.693 L 765.017, 250.523 z "/>
<path style="fill:rgb(24, 65, 255);fill-opacity:1.0;fill-rule:evenodd;stroke:rgb(0, 0, 0);stroke-width:3.0;" d="M 291.822, 152.617 L 273.031, 192.469 L 264.109, 186.301 L 286.252, 122.583 z "/>
<path style="fill:rgb(24, 65, 255);fill-opacity:1.0;fill-rule:evenodd;stroke:rgb(0, 0, 0);stroke-width:3.0;" d="M 791.156, 306.645 L 788.541, 309.902 L 784.388, 307.553 L 782.728, 289.044 L 785.203, 286.123 L 787.05, 285.538 z "/>
<path style="fill:rgb(212, 30, 15);fill-opacity:1.0;fill-rule:evenodd;stroke:rgb(0, 0, 0);stroke-width:3.0;" d="M 479.461, 190.874 L 425.794, 405.194 L 411.595, 403.676 L 473.808, 185.475 z "/>
<path style="fill:rgb(255, 246, 13);fill-opacity:1.0;fill-rule:evenodd;stroke:rgb(0, 0, 0);stroke-width:3.0;" d="M 690.049, 391.252 L 660.875, 412.02 L 666.362, 400.063 L 690.168, 386.822 z "/>
<path style="fill:rgb(255, 184, 67);fill-opacity:1.0;fill-rule:evenodd;stroke:rgb(0, 0, 0);stroke-width:3.0;" d="M 257.597, 291.14 L 214.05, 330.351 L 228.369, 289.146 z "/>
<path style="fill:rgb(255, 17, 18);fill-opacity:1.0;fill-rule:evenodd;stroke:rgb(0, 0, 0);stroke-width:3.0;" d="M 278.432, 474.896 L 275.401, 493.563 L 264.169, 502.733 L 268.797, 476.926 L 270.214, 474.852 z "/>
<path style="fill:rgb(27, 94, 212);fill-opacity:1.0;fill-rule:evenodd;stroke:rgb(0, 0, 0);stroke-width:3.0;" d="M 721.316, 346.923 L 710.697, 346.172 L 702.345, 336.666 L 707.507, 328.182 z "/>
<path style="fill:rgb(212, 28, 34);fill-opacity:1.0;fill-rule:evenodd;stroke:rgb(0, 0, 0);stroke-width:3.0;" d="M 162.958, 66.3294 L 151.937, 35.487 L 159.005, 22.4431 L 175.094, 14.485 z "/>
<path style="fill:rgb(255, 228, 11);fill-opacity:1.0;fill-rule:evenodd;stroke:rgb(0, 0, 0);stroke-width:3.0;" d="M 785.941, 324.886 L 781.677, 323.322 L 763.624, 313.998 L 784.929, 313.592 z "/>
<path style="fill:rgb(64, 159, 255);fill-opacity:1.0;fill-rule:evenodd;stroke:rgb(0, 0, 0);stroke-width:3.0;" d="M 631.187, 62.7263 L 624.326, 69.9504 L 592.85, 98.2856 L 535.916, 103.237 L 525.161, 96.4923 L 572.143, 62.2482 L 620.963, 55.6725 z "/>
<path style="fill:rgb(252, 255, 27);fill-opacity:1.0;fill-rule:evenodd;stroke:rgb(0, 0, 0);stroke-width:3.0;" d="M 462.919, 577.198 L 440.197, 543.716 L 502.272, 536.446 z "/>
<path style="fill:rgb(98, 255, 212);fill-opacity:1.0;fill-rule:evenodd;stroke:rgb(0, 0, 0);stroke-width:3.0;" d="M 620.963, 55.6725 L 573.632, 62.0477 L 604.033, 43.9929 z "/>
<path style="fill:rgb(255, 22, 220);fill-opacity:1.0;fill-rule:evenodd;stroke:rgb(0, 0, 0);stroke-width:3.0;" d="M 428.695, 138.73 L 420.536, 230.438 L 415.506, 232.458 L 413.177, 224.99 L 407.288, 183.43 L 415.839, 130.76 z "/>
<path style="fill:rgb(175, 255, 255);fill-opacity:1.0;fill-rule:evenodd;stroke:rgb(0, 0, 0);stroke-width:3.0;" d="M 472.281, 44.0282 L 446.1, 49.1907 L 460.297, 28.3105 z "/>
<path style="fill:rgb(255, 12, 88);fill-opacity:1.0;fill-rule:evenodd;stroke:rgb(0, 0, 0);stroke-width:3.0;" d="M 619.33, 27.8543 L 602.346, 40.2337 L 590.948, 30.3089 L 610.18, 16.8853 L 629.462, 12.0954 z "/>
</svg>