<?xml version="1.0" encoding="iso-8859-1" standalone="no"?>
<!DOCTYPE svg PUBLIC "-//W3C//DTD SVG 1.0//EN" "http://www.w3.org/TR/2001/REC-SVG-20010904/DTD/svg10.dtd">
<svg xmlns="http://www.w3.org/2000/svg" width="800" height="600">
<path style="fill:rgb(0, 0, 0);fill-opacity:0.0;fill-rule:evenodd;stroke:rgb(0, 0, 0);stroke-width:0.0;" d="M 0, 600 L 800, 600 L 800, 0 L 0, 0 z "/>
<path style="fill:rgb(51, 217, 255);fill-opacity:1.0;fill-rule:evenodd;stroke:rgb(0, 0, 0);stroke-width:3.0;" d="M 497.516, 231.461 L 610.622, 393.792 L 609.457, 399.689 L 600, 391.464 L 424.528, 203.517 L 422.304, 192.613 z "/>
<path style="fill:rgb(105, 126, 154);fill-opacity:1.0;fill-rule:evenodd;stroke:rgb(0, 0, 0);stroke-width:3.0;" d="M 385.554, 114.26 L 387.15, 135.231 L 373.62, 129.422 L 362.361, 92.3284 z "/>
<path style="fill:rgb(62, 9, 217);fill-opacity:1.0;fill-rule:evenodd;stroke:rgb(0, 0, 0);stroke-width:3.0;" d="M 392.246, 71.1487 L 391.378, 79.1312 L 369.932, 48.3518 L 372.089, 48.0988 z "/>
<path style="fill:rgb(62, 9, 217);fill-opacity:1.0;fill-rule:evenodd;stroke:rgb(0, 0, 0);stroke-width:3.0;" d="M 243.738, 36.072 L 235.102, 52.465 L 204.439, 33.727 L 228.523, 20.8771 z "/>
<path style="fill:rgb(62, 9, 217);fill-opacity:1.0;fill-rule:evenodd;stroke:rgb(0, 0, 0);stroke-width:3.0;" d="M 100.402, 579.707 L 99.3995, 581.075 L 76.9983, 576.928 L 82.5127, 565.277 z "/>
<path style="fill:rgb(81, 134, 223);fill-opacity:1.0;fill-rule:evenodd;stroke:rgb(0, 0, 0);stroke-width:3.0;" d="M 789.027, 497.089 L 760.617, 492.381 L 756.99, 488.234 L 770.523, 488.137 z "/>
<path style="fill:rgb(44, 194, 172);fill-opacity:1.0;fill-rule:evenodd;stroke:rgb(0, 0, 0);stroke-width:3.0;" d="M 448.954, 161.765 L 486.689, 215.922 L 475.479, 220.079 L 422.304, 192.613 L 412.851, 146.265 z "/>
<path style="fill:rgb(74, 249, 249);fill-opacity:1.0;fill-rule:evenodd;stroke:rgb(0, 0, 0);stroke-width:3.0;" d="M 92.9849, 282.897 L 107.354, 294.98 L 38.4934, 425.703 L 10.6916, 279.277 z "/>
<path style="fill:rgb(255, 228, 9);fill-opacity:1.0;fill-rule:evenodd;stroke:rgb(0, 0, 0);stroke-width:3.0;" d="M 476.62, 268.648 L 432.596, 287.613 L 260.627, 282.475 L 186.905, 268.306 L 147.938, 217.936 L 243.738, 36.072 z "/>
<path style="fill:rgb(255, 30, 17);fill-opacity:1.0;fill-rule:evenodd;stroke:rgb(0, 0, 0);stroke-width:3.0;" d="M 123.128, 529.354 L 98.396, 529.375 L 98.7599, 510.262 z "/>
<path style="fill:rgb(255, 30, 17);fill-opacity:1.0;fill-rule:evenodd;stroke:rgb(0, 0, 0);stroke-width:3.0;" d="M 371.777, 123.351 L 370.689, 128.164 L 369.311, 127.573 L 349.466, 82.0492 L 347.462, 60.5348 L 352.622, 60.242 z "/>
<path style="fill:rgb(255, 30, 17);fill-opacity:1.0;fill-rule:evenodd;stroke:rgb(0, 0, 0);stroke-width:3.0;" d="M 554.663, 256.872 L 724.703, 451.313 L 685.36, 452.532 L 625.118, 414.597 L 511.323, 251.277 z "/>
<path style="fill:rgb(255, 30, 17);fill-opacity:1.0;fill-rule:evenodd;stroke:rgb(0, 0, 0);stroke-width:3.0;" d="M 180.54, 102.414 L 156.306, 102.812 L 152.586, 78.7093 z "/>
<path style="fill:rgb(255, 30, 17);fill-opacity:1.0;fill-rule:evenodd;stroke:rgb(0, 0, 0);stroke-width:3.0;" d="M 162.716, 413.178 L 156.328, 416.014 L 151.142, 415.019 L 146.97, 410.659 L 162.879, 403.806 z "/>
<path style="fill:rgb(255, 30, 17);fill-opacity:1.0;fill-rule:evenodd;stroke:rgb(0, 0, 0);stroke-width:3.0;" d="M 49.3634, 543.193 L 52.8023, 552.194 L 52.835, 552.388 L 51.0272, 558.372 L 47.3467, 558.489 L 44.2033, 555.983 L 40.8666, 539.109 L 41.6422, 538.594 z "/>
<path style="fill:rgb(255, 255, 98);fill-opacity:1.0;fill-rule:evenodd;stroke:rgb(0, 0, 0);stroke-width:3.0;" d="M 466.281, 155.808 L 486.407, 178.821 L 459.007, 158.889 L 461.239, 155.038 z "/>
<path style="fill:rgb(255, 255, 98);fill-opacity:1.0;fill-rule:evenodd;stroke:rgb(0, 0, 0);stroke-width:3.0;" d="M 98.7904, 505.129 L 77.7344, 514.091 L 74.5757, 509.956 L 66.2691, 489.18 L 66.3694, 487.557 z "/>
<path style="fill:rgb(255, 255, 98);fill-opacity:1.0;fill-rule:evenodd;stroke:rgb(0, 0, 0);stroke-width:3.0;" d="M 343.593, 44.2112 L 313.693, 86.7813 L 315.54, 19.2276 L 340.427, 13.2349 z "/>
<path style="fill:rgb(255, 85, 14);fill-opacity:1.0;fill-rule:evenodd;stroke:rgb(0, 0, 0);stroke-width:3.0;" d="M 172.369, 118.694 L 164.043, 111.254 L 172.597, 102.544 L 192.574, 102.216 z "/>
<path style="fill:rgb(255, 85, 14);fill-opacity:1.0;fill-rule:evenodd;stroke:rgb(0, 0, 0);stroke-width:3.0;" d="M 55.9456, 517.621 L 41.9465, 502.73 L 41.8803, 499.957 L 43.7932, 496.012 L 51.6849, 495.181 z "/>
<path style="fill:rgb(255, 85, 14);fill-opacity:1.0;fill-rule:evenodd;stroke:rgb(0, 0, 0);stroke-width:3.0;" d="M 282.068, 19.6748 L 264.043, 21.6294 L 264.455, 11.1846 L 265.164, 9.20894 L 271.718, 5.11576 z "/>
<path style="fill:rgb(255, 85, 14);fill-opacity:1.0;fill-rule:evenodd;stroke:rgb(0, 0, 0);stroke-width:3.0;" d="M 342.19, 333.48 L 273.638, 363.921 L 265.287, 359.689 L 330.962, 331.397 z "/>
<path style="fill:rgb(255, 255, 56);fill-opacity:1.0;fill-rule:evenodd;stroke:rgb(0, 0, 0);stroke-width:3.0;" d="M 385.554, 114.26 L 362.361, 92.3284 L 361.635, 89.936 L 369.452, 82.4365 L 383.104, 82.0462 z "/>
<path style="fill:rgb(255, 255, 56);fill-opacity:1.0;fill-rule:evenodd;stroke:rgb(0, 0, 0);stroke-width:3.0;" d="M 402.024, 159.006 L 379.667, 167.039 L 364.682, 150.174 z "/>
<path style="fill:rgb(255, 20, 46);fill-opacity:1.0;fill-rule:evenodd;stroke:rgb(0, 0, 0);stroke-width:3.0;" d="M 416.918, 175.788 L 409.355, 181.402 L 399.902, 175.595 L 410.416, 165.284 z "/>
<path style="fill:rgb(220, 246, 255);fill-opacity:1.0;fill-rule:evenodd;stroke:rgb(0, 0, 0);stroke-width:3.0;" d="M 295.31, 289.141 L 260.002, 361.966 L 133.592, 416.423 L 84.1552, 339.02 L 127.427, 256.874 z "/>
<path style="fill:rgb(243, 18, 159);fill-opacity:1.0;fill-rule:evenodd;stroke:rgb(0, 0, 0);stroke-width:3.0;" d="M 486.407, 178.821 L 520.548, 217.862 L 485.476, 214.182 L 434.557, 141.102 z "/>
<path style="fill:rgb(243, 18, 159);fill-opacity:1.0;fill-rule:evenodd;stroke:rgb(0, 0, 0);stroke-width:3.0;" d="M 112.697, 562.892 L 108.623, 571.993 L 103.218, 571.966 L 96.4838, 567.015 L 92.6221, 563.446 L 98.7897, 555.871 z "/>
<path style="fill:rgb(255, 83, 6);fill-opacity:1.0;fill-rule:evenodd;stroke:rgb(0, 0, 0);stroke-width:3.0;" d="M 279.451, 353.587 L 260.002, 361.966 L 269.269, 342.852 z "/>
<path style="fill:rgb(255, 83, 6);fill-opacity:1.0;fill-rule:evenodd;stroke:rgb(0, 0, 0);stroke-width:3.0;" d="M 195.056, 128.488 L 165.646, 184.32 L 145.257, 140.805 L 175.069, 116.493 z "/>
<path style="fill:rgb(255, 194, 255);fill-opacity:1.0;fill-rule:evenodd;stroke:rgb(0, 0, 0);stroke-width:3.0;" d="M 292.862, 46.4535 L 294.37, 52.9951 L 256.759, 49.0757 L 249.92, 42.2463 L 246.955, 35.743 L 280.645, 27.6304 z "/>
<path style="fill:rgb(255, 142, 13);fill-opacity:1.0;fill-rule:evenodd;stroke:rgb(0, 0, 0);stroke-width:3.0;" d="M 415.677, 160.124 L 394.602, 180.793 L 390.359, 177.479 L 406.882, 157.26 L 414.533, 154.511 z "/>
<path style="fill:rgb(234, 124, 161);fill-opacity:1.0;fill-rule:evenodd;stroke:rgb(0, 0, 0);stroke-width:3.0;" d="M 274.764, 29.0464 L 249.127, 35.2198 L 239.339, 31.6791 L 237.438, 29.7808 L 243.4, 23.8677 L 266.279, 21.3869 z "/>
<path style="fill:rgb(85, 255, 85);fill-opacity:1.0;fill-rule:evenodd;stroke:rgb(0, 0, 0);stroke-width:3.0;" d="M 110.704, 191.63 L 106.515, 195.952 L 101.914, 181.717 L 115.189, 178.039 z "/>
<path style="fill:rgb(85, 255, 85);fill-opacity:1.0;fill-rule:evenodd;stroke:rgb(0, 0, 0);stroke-width:3.0;" d="M 133.592, 416.423 L 44.0549, 454.995 L 38.6454, 426.504 L 130.264, 411.212 z "/>
<path style="fill:rgb(85, 255, 85);fill-opacity:1.0;fill-rule:evenodd;stroke:rgb(0, 0, 0);stroke-width:3.0;" d="M 172.369, 118.694 L 153.929, 133.733 L 145.868, 129.759 L 164.043, 111.254 z "/>
<path style="fill:rgb(255, 43, 44);fill-opacity:1.0;fill-rule:evenodd;stroke:rgb(0, 0, 0);stroke-width:3.0;" d="M 600, 391.464 L 596.883, 388.753 L 527.305, 319.267 L 522.913, 314.147 L 524.847, 310.967 z "/>
<path style="fill:rgb(255, 56, 11);fill-opacity:1.0;fill-rule:evenodd;stroke:rgb(0, 0, 0);stroke-width:3.0;" d="M 372.728, 52.3652 L 358.175, 67.6567 L 354.58, 66.6943 L 346.5, 40.0724 L 355.367, 27.4477 z "/>
<path style="fill:rgb(255, 56, 11);fill-opacity:1.0;fill-rule:evenodd;stroke:rgb(0, 0, 0);stroke-width:3.0;" d="M 524.847, 310.967 L 522.913, 314.147 L 467.331, 249.362 z "/>
<path style="fill:rgb(255, 255, 27);fill-opacity:1.0;fill-rule:evenodd;stroke:rgb(0, 0, 0);stroke-width:3.0;" d="M 383.19, 48.2352 L 373.617, 49.8469 L 366.366, 41.5549 L 369.811, 35.7711 z "/>
<path style="fill:rgb(71, 189, 152);fill-opacity:1.0;fill-rule:evenodd;stroke:rgb(0, 0, 0);stroke-width:3.0;" d="M 294.37, 52.9951 L 295.744, 58.9527 L 285.145, 64.6846 L 273.062, 50.7746 z "/>
<path style="fill:rgb(71, 189, 152);fill-opacity:1.0;fill-rule:evenodd;stroke:rgb(0, 0, 0);stroke-width:3.0;" d="M 135.639, 64.3398 L 149.629, 102.922 L 131.296, 103.223 L 134.392, 63.2818 z "/>
<path style="fill:rgb(33, 255, 237);fill-opacity:1.0;fill-rule:evenodd;stroke:rgb(0, 0, 0);stroke-width:3.0;" d="M 431.083, 115.559 L 462.98, 152.033 L 459.007, 158.889 L 434.557, 141.102 L 410.269, 106.243 z "/>
<path style="fill:rgb(33, 255, 237);fill-opacity:1.0;fill-rule:evenodd;stroke:rgb(0, 0, 0);stroke-width:3.0;" d="M 320.492, 335.907 L 298.14, 345.536 L 273.197, 334.751 L 280.153, 320.404 z "/>
<path style="fill:rgb(33, 255, 237);fill-opacity:1.0;fill-rule:evenodd;stroke:rgb(0, 0, 0);stroke-width:3.0;" d="M 299.099, 73.5023 L 303.505, 92.6071 L 287.08, 72.2647 L 289.149, 71.7467 z "/>
<path style="fill:rgb(33, 255, 237);fill-opacity:1.0;fill-rule:evenodd;stroke:rgb(0, 0, 0);stroke-width:3.0;" d="M 119.427, 235.902 L 126.67, 258.311 L 107.354, 294.98 L 34.1614, 233.433 z "/>
<path style="fill:rgb(220, 130, 237);fill-opacity:1.0;fill-rule:evenodd;stroke:rgb(0, 0, 0);stroke-width:3.0;" d="M 467.331, 249.362 L 477.926, 261.712 L 478.554, 270.58 L 462.802, 254.849 L 455.137, 243.431 L 452.41, 233.381 z "/>
<path style="fill:rgb(220, 130, 237);fill-opacity:1.0;fill-rule:evenodd;stroke:rgb(0, 0, 0);stroke-width:3.0;" d="M 421.606, 189.189 L 416.103, 192.767 L 410.849, 180.292 L 418.615, 174.528 z "/>
<path style="fill:rgb(220, 130, 237);fill-opacity:1.0;fill-rule:evenodd;stroke:rgb(0, 0, 0);stroke-width:3.0;" d="M 579.783, 371.675 L 444.852, 525.714 L 389.85, 312.316 L 480.18, 272.203 z "/>
<path style="fill:rgb(252, 107, 14);fill-opacity:1.0;fill-rule:evenodd;stroke:rgb(0, 0, 0);stroke-width:3.0;" d="M 413.077, 287.03 L 422.827, 291.822 L 399.873, 301.71 L 346.309, 285.035 z "/>
<path style="fill:rgb(98, 44, 255);fill-opacity:1.0;fill-rule:evenodd;stroke:rgb(0, 0, 0);stroke-width:3.0;" d="M 314.085, 72.4506 L 299.95, 77.1915 L 288.107, 25.8335 L 315.54, 19.2276 z "/>
<path style="fill:rgb(255, 28, 207);fill-opacity:1.0;fill-rule:evenodd;stroke:rgb(0, 0, 0);stroke-width:3.0;" d="M 119.427, 235.902 L 34.1614, 233.433 L 23.918, 224.819 L 68.3668, 191.012 L 101.914, 181.717 z "/>
<path style="fill:rgb(255, 255, 7);fill-opacity:1.0;fill-rule:evenodd;stroke:rgb(0, 0, 0);stroke-width:3.0;" d="M 53.8515, 202.052 L 29.2045, 214.04 L 38.2122, 199.367 L 68.3668, 191.012 z "/>
<path style="fill:rgb(255, 255, 7);fill-opacity:1.0;fill-rule:evenodd;stroke:rgb(0, 0, 0);stroke-width:3.0;" d="M 201.342, 102.072 L 180.54, 102.414 L 143.734, 71.2038 z "/>
<path style="fill:rgb(255, 255, 7);fill-opacity:1.0;fill-rule:evenodd;stroke:rgb(0, 0, 0);stroke-width:3.0;" d="M 434.255, 140.668 L 440.081, 149.03 L 435.084, 155.81 L 387.15, 135.231 L 387.121, 134.856 z "/>
<path style="fill:rgb(255, 255, 7);fill-opacity:1.0;fill-rule:evenodd;stroke:rgb(0, 0, 0);stroke-width:3.0;" d="M 211.59, 19.6606 L 192.935, 26.6966 L 183.48, 20.9193 L 211.465, 12.2005 z "/>
<path style="fill:rgb(255, 57, 83);fill-opacity:1.0;fill-rule:evenodd;stroke:rgb(0, 0, 0);stroke-width:3.0;" d="M 576.306, 170.287 L 755.697, 350.483 L 717.991, 371.937 L 671.199, 390.131 L 420.621, 103.595 L 414.981, 93.2394 L 421.965, 88.7542 z "/>
<path style="fill:rgb(255, 57, 83);fill-opacity:1.0;fill-rule:evenodd;stroke:rgb(0, 0, 0);stroke-width:3.0;" d="M 576.306, 170.287 L 421.965, 88.7542 L 466.599, 60.0866 z "/>
<path style="fill:rgb(255, 57, 83);fill-opacity:1.0;fill-rule:evenodd;stroke:rgb(0, 0, 0);stroke-width:3.0;" d="M 778.144, 512.423 L 751.043, 542.71 L 749.223, 540.892 L 746.384, 476.106 z "/>
<path style="fill:rgb(255, 57, 83);fill-opacity:1.0;fill-rule:evenodd;stroke:rgb(0, 0, 0);stroke-width:3.0;" d="M 298.14, 345.536 L 279.451, 353.587 L 269.269, 342.852 L 273.197, 334.751 z "/>
<path style="fill:rgb(255, 57, 83);fill-opacity:1.0;fill-rule:evenodd;stroke:rgb(0, 0, 0);stroke-width:3.0;" d="M 155.505, 119.947 L 132.658, 103.2 L 172.597, 102.544 z "/>
<path style="fill:rgb(255, 57, 83);fill-opacity:1.0;fill-rule:evenodd;stroke:rgb(0, 0, 0);stroke-width:3.0;" d="M 59.3092, 535.336 L 60.6542, 542.42 L 58.0193, 546.584 L 51.4624, 544.239 L 49.5489, 532.879 z "/>
<path style="fill:rgb(255, 57, 83);fill-opacity:1.0;fill-rule:evenodd;stroke:rgb(0, 0, 0);stroke-width:3.0;" d="M 23.918, 224.819 L 17.7331, 219.619 L 53.8515, 202.052 z "/>
<path style="fill:rgb(255, 3, 9);fill-opacity:1.0;fill-rule:evenodd;stroke:rgb(0, 0, 0);stroke-width:3.0;" d="M 789.524, 503.798 L 786.854, 519.468 L 780.388, 514.989 L 775.318, 509.191 L 787.638, 501.505 z "/>
<path style="fill:rgb(249, 39, 22);fill-opacity:1.0;fill-rule:evenodd;stroke:rgb(0, 0, 0);stroke-width:3.0;" d="M 176.249, 254.531 L 186.905, 268.306 L 172.007, 265.443 L 162.511, 257.141 L 160.406, 243.583 z "/>
<path style="fill:rgb(249, 39, 22);fill-opacity:1.0;fill-rule:evenodd;stroke:rgb(0, 0, 0);stroke-width:3.0;" d="M 427.886, 219.978 L 406.738, 198.858 L 421.606, 189.189 z "/>
<path style="fill:rgb(217, 255, 22);fill-opacity:1.0;fill-rule:evenodd;stroke:rgb(0, 0, 0);stroke-width:3.0;" d="M 195.056, 128.488 L 189.197, 124.972 L 201.679, 102.066 L 209.038, 101.945 z "/>
<path style="fill:rgb(207, 45, 255);fill-opacity:1.0;fill-rule:evenodd;stroke:rgb(0, 0, 0);stroke-width:3.0;" d="M 189.197, 124.972 L 175.069, 116.493 L 192.574, 102.216 L 201.679, 102.066 z "/>
<path style="fill:rgb(12, 182, 189);fill-opacity:1.0;fill-rule:evenodd;stroke:rgb(0, 0, 0);stroke-width:3.0;" d="M 142.418, 183.285 L 134.233, 243.954 L 126.67, 258.311 L 108.449, 201.936 L 119.28, 176.905 L 139.586, 171.279 z "/>
<path style="fill:rgb(255, 40, 9);fill-opacity:1.0;fill-rule:evenodd;stroke:rgb(0, 0, 0);stroke-width:3.0;" d="M 152.586, 78.7093 L 153.84, 86.8398 L 144.983, 90.1092 L 135.639, 64.3398 z "/>
<path style="fill:rgb(134, 255, 26);fill-opacity:1.0;fill-rule:evenodd;stroke:rgb(0, 0, 0);stroke-width:3.0;" d="M 685.36, 452.532 L 661.487, 453.272 L 648.112, 439.914 L 644.564, 426.842 z "/>
<path style="fill:rgb(255, 97, 55);fill-opacity:1.0;fill-rule:evenodd;stroke:rgb(0, 0, 0);stroke-width:3.0;" d="M 66.6501, 260.752 L 92.9849, 282.897 L 10.6916, 279.277 L 9.17845, 271.307 L 25.794, 251.49 z "/>
<path style="fill:rgb(27, 30, 243);fill-opacity:1.0;fill-rule:evenodd;stroke:rgb(0, 0, 0);stroke-width:3.0;" d="M 746.384, 476.106 L 749.223, 540.892 L 661.487, 453.272 L 724.703, 451.313 z "/>
<path style="fill:rgb(194, 8, 159);fill-opacity:1.0;fill-rule:evenodd;stroke:rgb(0, 0, 0);stroke-width:3.0;" d="M 373.556, 133.353 L 366.204, 145.517 L 354.242, 146.431 L 351.736, 143.929 L 372.569, 132.883 z "/>
<path style="fill:rgb(204, 10, 197);fill-opacity:1.0;fill-rule:evenodd;stroke:rgb(0, 0, 0);stroke-width:3.0;" d="M 252.576, 373.274 L 203.636, 395.007 L 209.481, 383.73 L 241.18, 370.074 L 244.241, 369.96 z "/>
<path style="fill:rgb(255, 182, 6);fill-opacity:1.0;fill-rule:evenodd;stroke:rgb(0, 0, 0);stroke-width:3.0;" d="M 755.36, 547.022 L 500.156, 508.065 L 511.321, 449.832 L 579.783, 371.675 z "/>
<path style="fill:rgb(252, 255, 23);fill-opacity:1.0;fill-rule:evenodd;stroke:rgb(0, 0, 0);stroke-width:3.0;" d="M 500.156, 508.065 L 465.01, 502.7 L 511.321, 449.832 z "/>
<path style="fill:rgb(126, 2, 228);fill-opacity:1.0;fill-rule:evenodd;stroke:rgb(0, 0, 0);stroke-width:3.0;" d="M 130.264, 411.212 L 38.6454, 426.504 L 38.4934, 425.703 L 84.1552, 339.02 z "/>
<path style="fill:rgb(237, 40, 57);fill-opacity:1.0;fill-rule:evenodd;stroke:rgb(0, 0, 0);stroke-width:3.0;" d="M 228.523, 20.8771 L 211.906, 29.7431 L 202.165, 26.8768 L 200.501, 23.8429 L 222.997, 15.3584 z "/>
<path style="fill:rgb(255, 4, 7);fill-opacity:1.0;fill-rule:evenodd;stroke:rgb(0, 0, 0);stroke-width:3.0;" d="M 431.083, 115.559 L 410.269, 106.243 L 406.598, 100.974 L 415.903, 98.2002 z "/>
<path style="fill:rgb(255, 165, 47);fill-opacity:1.0;fill-rule:evenodd;stroke:rgb(0, 0, 0);stroke-width:3.0;" d="M 520.548, 217.862 L 554.663, 256.872 L 511.323, 251.277 L 485.476, 214.182 z "/>
<path style="fill:rgb(255, 19, 8);fill-opacity:1.0;fill-rule:evenodd;stroke:rgb(0, 0, 0);stroke-width:3.0;" d="M 364.436, 323.601 L 342.19, 333.48 L 330.962, 331.397 L 366.989, 315.876 z "/>
<path style="fill:rgb(255, 19, 8);fill-opacity:1.0;fill-rule:evenodd;stroke:rgb(0, 0, 0);stroke-width:3.0;" d="M 60.0391, 547.943 L 59.7033, 565.591 L 54.9034, 564.668 L 51.9598, 547.192 z "/>
<path style="fill:rgb(207, 27, 43);fill-opacity:1.0;fill-rule:evenodd;stroke:rgb(0, 0, 0);stroke-width:3.0;" d="M 333.548, 330.282 L 320.492, 335.907 L 280.153, 320.404 L 280.488, 319.712 z "/>
<path style="fill:rgb(207, 27, 43);fill-opacity:1.0;fill-rule:evenodd;stroke:rgb(0, 0, 0);stroke-width:3.0;" d="M 405.293, 305.458 L 377.245, 317.913 L 375.648, 312.146 L 416.476, 294.557 z "/>
<path style="fill:rgb(207, 27, 43);fill-opacity:1.0;fill-rule:evenodd;stroke:rgb(0, 0, 0);stroke-width:3.0;" d="M 99.3995, 581.075 L 98.37, 582.478 L 84.4051, 594.095 L 74.4963, 582.215 L 76.9983, 576.928 z "/>
<path style="fill:rgb(202, 255, 13);fill-opacity:1.0;fill-rule:evenodd;stroke:rgb(0, 0, 0);stroke-width:3.0;" d="M 139.586, 171.279 L 125.919, 175.066 L 122.39, 114.039 L 125.384, 111.087 z "/>
<path style="fill:rgb(102, 32, 246);fill-opacity:1.0;fill-rule:evenodd;stroke:rgb(0, 0, 0);stroke-width:3.0;" d="M 158.554, 231.658 L 159.239, 236.069 L 148.226, 244.652 L 138.393, 236.055 L 147.938, 217.936 z "/>
<path style="fill:rgb(255, 7, 19);fill-opacity:1.0;fill-rule:evenodd;stroke:rgb(0, 0, 0);stroke-width:3.0;" d="M 121.93, 425.652 L 114.88, 432.063 L 80.878, 449.519 L 45.9594, 465.025 L 45.237, 461.22 L 100.466, 430.693 L 119.34, 422.562 z "/>
<path style="fill:rgb(12, 69, 237);fill-opacity:1.0;fill-rule:evenodd;stroke:rgb(0, 0, 0);stroke-width:3.0;" d="M 389.163, 75.9527 L 358.175, 67.6567 L 372.728, 52.3652 z "/>
<path style="fill:rgb(33, 223, 252);fill-opacity:1.0;fill-rule:evenodd;stroke:rgb(0, 0, 0);stroke-width:3.0;" d="M 155.505, 119.947 L 141.95, 133.748 L 127.676, 103.282 L 132.658, 103.2 z "/>
<path style="fill:rgb(255, 2, 50);fill-opacity:1.0;fill-rule:evenodd;stroke:rgb(0, 0, 0);stroke-width:3.0;" d="M 148.889, 210.708 L 142.676, 225.244 L 135.472, 234.771 L 142.418, 183.285 z "/>
<path style="fill:rgb(43, 255, 108);fill-opacity:1.0;fill-rule:evenodd;stroke:rgb(0, 0, 0);stroke-width:3.0;" d="M 391.934, 79.9286 L 408.139, 103.187 L 386.042, 120.667 L 383.66, 89.3515 L 384.841, 77.9843 z "/>
<path style="fill:rgb(16, 194, 215);fill-opacity:1.0;fill-rule:evenodd;stroke:rgb(0, 0, 0);stroke-width:3.0;" d="M 783.272, 38.6296 L 792.916, 108.852 L 779.005, 154.211 L 760.98, 34.1675 z "/>
<path style="fill:rgb(255, 255, 33);fill-opacity:1.0;fill-rule:evenodd;stroke:rgb(0, 0, 0);stroke-width:3.0;" d="M 203.636, 395.007 L 183.494, 403.951 L 169.301, 402.919 L 168.919, 401.204 L 209.481, 383.73 z "/>
<path style="fill:rgb(252, 103, 226);fill-opacity:1.0;fill-rule:evenodd;stroke:rgb(0, 0, 0);stroke-width:3.0;" d="M 133.108, 114.876 L 140.015, 158.453 L 137.084, 160.677 L 123.559, 103.35 L 127.676, 103.282 z "/>
<path style="fill:rgb(252, 103, 226);fill-opacity:1.0;fill-rule:evenodd;stroke:rgb(0, 0, 0);stroke-width:3.0;" d="M 463.875, 57.3501 L 458.054, 65.5748 L 433.956, 81.0521 L 431.086, 81.0041 L 430.601, 80.8799 L 441.776, 35.1519 z "/>
<path style="fill:rgb(75, 124, 255);fill-opacity:1.0;fill-rule:evenodd;stroke:rgb(0, 0, 0);stroke-width:3.0;" d="M 334.218, 284.674 L 334.384, 286.084 L 270.665, 284.404 L 260.627, 282.475 z "/>
<path style="fill:rgb(98, 246, 255);fill-opacity:1.0;fill-rule:evenodd;stroke:rgb(0, 0, 0);stroke-width:3.0;" d="M 172.007, 265.443 L 127.427, 256.874 L 132.971, 246.349 L 144.759, 241.621 z "/>
<path style="fill:rgb(255, 52, 255);fill-opacity:1.0;fill-rule:evenodd;stroke:rgb(0, 0, 0);stroke-width:3.0;" d="M 352.516, 131.842 L 351.456, 143.648 L 341.261, 133.467 L 341.641, 123.464 z "/>
<path style="fill:rgb(246, 255, 30);fill-opacity:1.0;fill-rule:evenodd;stroke:rgb(0, 0, 0);stroke-width:3.0;" d="M 369.339, 73.7348 L 369.655, 77.8327 L 365.747, 85.1227 L 360.957, 87.7019 L 357.742, 77.1117 L 365.25, 72.6139 z "/>
<path style="fill:rgb(76, 255, 132);fill-opacity:1.0;fill-rule:evenodd;stroke:rgb(0, 0, 0);stroke-width:3.0;" d="M 387.79, 306.915 L 333.548, 330.282 L 280.488, 319.712 L 295.31, 289.141 z "/>
<path style="fill:rgb(51, 115, 226);fill-opacity:1.0;fill-rule:evenodd;stroke:rgb(0, 0, 0);stroke-width:3.0;" d="M 313.693, 86.7813 L 305.786, 98.0386 L 304.45, 96.7043 L 301.539, 84.0804 L 308.287, 74.395 L 314.085, 72.4506 z "/>
<path style="fill:rgb(231, 255, 21);fill-opacity:1.0;fill-rule:evenodd;stroke:rgb(0, 0, 0);stroke-width:3.0;" d="M 162.464, 190.359 L 149.772, 214.454 L 147.481, 204.74 L 154.004, 186.983 z "/>
<path style="fill:rgb(246, 51, 237);fill-opacity:1.0;fill-rule:evenodd;stroke:rgb(0, 0, 0);stroke-width:3.0;" d="M 165.646, 184.32 L 162.464, 190.359 L 154.004, 186.983 L 159.668, 171.563 z "/>
<path style="fill:rgb(117, 94, 226);fill-opacity:1.0;fill-rule:evenodd;stroke:rgb(0, 0, 0);stroke-width:3.0;" d="M 369.311, 127.573 L 344.573, 116.952 L 357.335, 100.101 z "/>
<path style="fill:rgb(255, 23, 59);fill-opacity:1.0;fill-rule:evenodd;stroke:rgb(0, 0, 0);stroke-width:3.0;" d="M 357.335, 100.101 L 344.573, 116.952 L 319.114, 106.021 L 341.408, 63.5671 z "/>
<path style="fill:rgb(234, 43, 34);fill-opacity:1.0;fill-rule:evenodd;stroke:rgb(0, 0, 0);stroke-width:3.0;" d="M 415.903, 98.2002 L 406.598, 100.974 L 398.441, 89.2686 L 395.962, 84.4649 L 399.21, 79.1117 z "/>
<path style="fill:rgb(255, 234, 112);fill-opacity:1.0;fill-rule:evenodd;stroke:rgb(0, 0, 0);stroke-width:3.0;" d="M 351.092, 286.524 L 399.873, 301.71 L 387.79, 306.915 L 304.875, 290.979 L 310.007, 285.441 z "/>
<path style="fill:rgb(255, 3, 60);fill-opacity:1.0;fill-rule:evenodd;stroke:rgb(0, 0, 0);stroke-width:3.0;" d="M 310.007, 285.441 L 304.875, 290.979 L 270.665, 284.404 z "/>
<path style="fill:rgb(47, 215, 255);fill-opacity:1.0;fill-rule:evenodd;stroke:rgb(0, 0, 0);stroke-width:3.0;" d="M 140.592, 130.85 L 143.085, 136.171 L 143.901, 155.503 L 140.015, 158.453 L 135.164, 127.847 z "/>
<path style="fill:rgb(243, 136, 60);fill-opacity:1.0;fill-rule:evenodd;stroke:rgb(0, 0, 0);stroke-width:3.0;" d="M 400.329, 146.111 L 401.387, 148.87 L 396.546, 155.615 L 388.916, 153.775 L 373.783, 144.938 L 394.538, 143.351 z "/>
<path style="fill:rgb(75, 92, 212);fill-opacity:1.0;fill-rule:evenodd;stroke:rgb(0, 0, 0);stroke-width:3.0;" d="M 416.103, 192.767 L 406.738, 198.858 L 397.826, 189.958 L 404.986, 184.644 L 412.096, 183.252 z "/>
<path style="fill:rgb(255, 255, 14);fill-opacity:1.0;fill-rule:evenodd;stroke:rgb(0, 0, 0);stroke-width:3.0;" d="M 157.671, 167.301 L 159.668, 171.563 L 147.481, 204.74 L 137.084, 160.677 L 146.606, 153.45 z "/>
<path style="fill:rgb(246, 11, 42);fill-opacity:1.0;fill-rule:evenodd;stroke:rgb(0, 0, 0);stroke-width:3.0;" d="M 162.003, 587.788 L 157.244, 588.903 L 142.273, 585.833 L 129.758, 573.218 L 129.624, 571.439 z "/>
<path style="fill:rgb(255, 204, 8);fill-opacity:1.0;fill-rule:evenodd;stroke:rgb(0, 0, 0);stroke-width:3.0;" d="M 434.255, 140.668 L 387.121, 134.856 L 386.042, 120.667 L 408.139, 103.187 z "/>
</svg>