<?xml version="1.0" encoding="iso-8859-1" standalone="no"?>
<!DOCTYPE svg PUBLIC "-//W3C//DTD SVG 1.0//EN" "http://www.w3.org/TR/2001/REC-SVG-20010904/DTD/svg10.dtd">
<svg xmlns="http://www.w3.org/2000/svg" width="800" height="600">
<path style="fill:rgb(0, 0, 0);fill-opacity:0.0;fill-rule:evenodd;stroke:rgb(0, 0, 0);stroke-width:0.0;" d="M 0, 600 L 800, 600 L 800, 0 L 0, 0 z "/>
<path style="fill:rgb(255, 226, 8);fill-opacity:1.0;fill-rule:evenodd;stroke:rgb(0, 0, 0);stroke-width:3.0;" d="M 438.587, 125.585 L 376.209, 143.391 L 330.562, 72.5183 L 331.911, 71.9893 z "/>
<path style="fill:rgb(255, 226, 8);fill-opacity:1.0;fill-rule:evenodd;stroke:rgb(0, 0, 0);stroke-width:3.0;" d="M 788.892, 224.262 L 791.321, 226.576 L 768.664, 228.909 L 764.464, 227.771 L 775.336, 222.066 z "/>
<path style="fill:rgb(255, 226, 8);fill-opacity:1.0;fill-rule:evenodd;stroke:rgb(0, 0, 0);stroke-width:3.0;" d="M 154.435, 18.5449 L 153.849, 24.9643 L 144.577, 28.019 L 114.75, 26.932 L 132.702, 7.96801 z "/>
<path style="fill:rgb(44, 98, 255);fill-opacity:1.0;fill-rule:evenodd;stroke:rgb(0, 0, 0);stroke-width:3.0;" d="M 614.511, 213.972 L 589.342, 201.327 L 654.386, 176.338 z "/>
<path style="fill:rgb(246, 55, 27);fill-opacity:1.0;fill-rule:evenodd;stroke:rgb(0, 0, 0);stroke-width:3.0;" d="M 730.629, 118.159 L 720.513, 124.952 L 718.21, 123.471 L 720.278, 109.199 L 720.975, 108.86 z "/>
<path style="fill:rgb(246, 55, 27);fill-opacity:1.0;fill-rule:evenodd;stroke:rgb(0, 0, 0);stroke-width:3.0;" d="M 781.471, 263.91 L 783.922, 291.279 L 771.858, 287.527 L 775.293, 266.987 L 778.72, 263.678 z "/>
<path style="fill:rgb(246, 55, 27);fill-opacity:1.0;fill-rule:evenodd;stroke:rgb(0, 0, 0);stroke-width:3.0;" d="M 682.256, 173.919 L 669.148, 188.734 L 659.977, 192.523 L 657.619, 191.845 L 653.374, 177.294 L 669.826, 161.766 z "/>
<path style="fill:rgb(246, 55, 27);fill-opacity:1.0;fill-rule:evenodd;stroke:rgb(0, 0, 0);stroke-width:3.0;" d="M 697.307, 206.301 L 705.551, 210.85 L 702.467, 232.132 L 696.866, 231.843 L 692.27, 204.529 z "/>
<path style="fill:rgb(246, 55, 27);fill-opacity:1.0;fill-rule:evenodd;stroke:rgb(0, 0, 0);stroke-width:3.0;" d="M 211.985, 83.191 L 124.072, 127.518 L 119.12, 101.457 L 167.23, 73.5946 L 190.917, 72.5328 z "/>
<path style="fill:rgb(62, 249, 220);fill-opacity:1.0;fill-rule:evenodd;stroke:rgb(0, 0, 0);stroke-width:3.0;" d="M 251.888, 103.377 L 181.946, 130.81 L 193.776, 92.3723 L 211.985, 83.191 z "/>
<path style="fill:rgb(255, 23, 17);fill-opacity:1.0;fill-rule:evenodd;stroke:rgb(0, 0, 0);stroke-width:3.0;" d="M 757.423, 144.05 L 756.177, 204.702 L 750.546, 204.588 L 740.05, 172.607 L 752.552, 140.806 z "/>
<path style="fill:rgb(231, 252, 51);fill-opacity:1.0;fill-rule:evenodd;stroke:rgb(0, 0, 0);stroke-width:3.0;" d="M 173.678, 12.5762 L 154.526, 24.7412 L 153.849, 24.9643 L 155.292, 9.16644 L 161.009, 8.7677 z "/>
<path style="fill:rgb(231, 252, 51);fill-opacity:1.0;fill-rule:evenodd;stroke:rgb(0, 0, 0);stroke-width:3.0;" d="M 755.632, 321.369 L 742.236, 331.241 L 735.483, 322.695 L 750.117, 316.074 z "/>
<path style="fill:rgb(231, 252, 51);fill-opacity:1.0;fill-rule:evenodd;stroke:rgb(0, 0, 0);stroke-width:3.0;" d="M 212.183, 11.8364 L 331.911, 71.9893 L 251.888, 103.377 L 142.54, 48.0598 L 205.331, 10.9232 z "/>
<path style="fill:rgb(255, 50, 19);fill-opacity:1.0;fill-rule:evenodd;stroke:rgb(0, 0, 0);stroke-width:3.0;" d="M 729.349, 382.396 L 490.583, 481.521 L 419.518, 403.579 L 732.964, 285.08 z "/>
<path style="fill:rgb(255, 249, 27);fill-opacity:1.0;fill-rule:evenodd;stroke:rgb(0, 0, 0);stroke-width:3.0;" d="M 686.502, 200.34 L 695.737, 231.785 L 644.729, 229.154 L 637.178, 225.361 L 653.408, 208.409 L 681.134, 197.378 z "/>
<path style="fill:rgb(255, 249, 27);fill-opacity:1.0;fill-rule:evenodd;stroke:rgb(0, 0, 0);stroke-width:3.0;" d="M 781.804, 205.22 L 770.943, 205.001 L 765.912, 202.343 L 776.419, 190.789 z "/>
<path style="fill:rgb(255, 249, 27);fill-opacity:1.0;fill-rule:evenodd;stroke:rgb(0, 0, 0);stroke-width:3.0;" d="M 556.866, 132.871 L 560.25, 161.163 L 545.561, 150.675 L 533.262, 133.271 L 550.615, 129.122 z "/>
<path style="fill:rgb(255, 34, 60);fill-opacity:1.0;fill-rule:evenodd;stroke:rgb(0, 0, 0);stroke-width:3.0;" d="M 563.046, 163.159 L 559.04, 178.569 L 551.054, 154.597 z "/>
<path style="fill:rgb(255, 34, 60);fill-opacity:1.0;fill-rule:evenodd;stroke:rgb(0, 0, 0);stroke-width:3.0;" d="M 663.846, 576.556 L 658.031, 577.08 L 642.812, 570.69 L 646.528, 562.847 z "/>
<path style="fill:rgb(255, 34, 60);fill-opacity:1.0;fill-rule:evenodd;stroke:rgb(0, 0, 0);stroke-width:3.0;" d="M 775.965, 20.7728 L 775.892, 25.239 L 758.163, 36.7926 L 749.541, 26.6073 L 771.68, 18.3342 z "/>
<path style="fill:rgb(255, 34, 60);fill-opacity:1.0;fill-rule:evenodd;stroke:rgb(0, 0, 0);stroke-width:3.0;" d="M 729.906, 164.047 L 720.804, 165.893 L 718.084, 143.658 z "/>
<path style="fill:rgb(255, 34, 60);fill-opacity:1.0;fill-rule:evenodd;stroke:rgb(0, 0, 0);stroke-width:3.0;" d="M 109.691, 51.8376 L 88.4764, 69.2326 L 90.7075, 60.1297 L 108.611, 46.1503 z "/>
<path style="fill:rgb(255, 34, 60);fill-opacity:1.0;fill-rule:evenodd;stroke:rgb(0, 0, 0);stroke-width:3.0;" d="M 180.02, 470.937 L 135.876, 497.973 L 125.757, 460.912 z "/>
<path style="fill:rgb(255, 34, 60);fill-opacity:1.0;fill-rule:evenodd;stroke:rgb(0, 0, 0);stroke-width:3.0;" d="M 727.49, 233.422 L 719.832, 252.791 L 704.169, 259.018 L 702.42, 258.139 L 694.628, 231.764 L 694.844, 231.738 z "/>
<path style="fill:rgb(187, 4, 27);fill-opacity:1.0;fill-rule:evenodd;stroke:rgb(0, 0, 0);stroke-width:3.0;" d="M 181.946, 130.81 L 128.669, 151.707 L 127.96, 147.979 L 160.343, 109.23 L 193.776, 92.3723 z "/>
<path style="fill:rgb(187, 4, 27);fill-opacity:1.0;fill-rule:evenodd;stroke:rgb(0, 0, 0);stroke-width:3.0;" d="M 546.341, 122.346 L 493.384, 122.235 L 491.476, 120.451 L 496.853, 102.791 z "/>
<path style="fill:rgb(255, 105, 146);fill-opacity:1.0;fill-rule:evenodd;stroke:rgb(0, 0, 0);stroke-width:3.0;" d="M 329.657, 148.936 L 290.783, 154.64 L 319.224, 129.165 z "/>
<path style="fill:rgb(255, 105, 146);fill-opacity:1.0;fill-rule:evenodd;stroke:rgb(0, 0, 0);stroke-width:3.0;" d="M 130.21, 65.7649 L 125.475, 70.187 L 113.024, 69.3776 L 112.036, 64.176 L 113.137, 63.8104 L 133.43, 60.9631 z "/>
<path style="fill:rgb(255, 105, 146);fill-opacity:1.0;fill-rule:evenodd;stroke:rgb(0, 0, 0);stroke-width:3.0;" d="M 496.853, 102.791 L 491.476, 120.451 L 468.037, 98.5406 L 458.479, 87.6269 z "/>
<path style="fill:rgb(124, 255, 192);fill-opacity:1.0;fill-rule:evenodd;stroke:rgb(0, 0, 0);stroke-width:3.0;" d="M 580.881, 147.648 L 576.987, 156.207 L 572.287, 160.091 L 565.854, 153.292 L 566.464, 147.48 z "/>
<path style="fill:rgb(124, 255, 192);fill-opacity:1.0;fill-rule:evenodd;stroke:rgb(0, 0, 0);stroke-width:3.0;" d="M 372.931, 92.5986 L 353.717, 82.9451 L 369.301, 73.6529 z "/>
<path style="fill:rgb(124, 255, 192);fill-opacity:1.0;fill-rule:evenodd;stroke:rgb(0, 0, 0);stroke-width:3.0;" d="M 386.358, 59.1576 L 349.681, 68.7302 L 348.697, 60.6796 L 376.624, 50.3151 L 386.993, 48.6022 z "/>
<path style="fill:rgb(243, 246, 21);fill-opacity:1.0;fill-rule:evenodd;stroke:rgb(0, 0, 0);stroke-width:3.0;" d="M 551.054, 154.597 L 561.649, 186.402 L 560.626, 186.9 L 479.477, 146.129 L 524.216, 135.434 z "/>
<path style="fill:rgb(255, 240, 36);fill-opacity:1.0;fill-rule:evenodd;stroke:rgb(0, 0, 0);stroke-width:3.0;" d="M 750.546, 204.588 L 744.392, 204.463 L 736.268, 182.225 L 740.05, 172.607 z "/>
<path style="fill:rgb(255, 1, 71);fill-opacity:1.0;fill-rule:evenodd;stroke:rgb(0, 0, 0);stroke-width:3.0;" d="M 391.924, 61.3275 L 393.649, 82.3992 L 393.396, 87.4964 L 375.37, 70.0339 L 390.749, 60.8633 z "/>
<path style="fill:rgb(255, 1, 71);fill-opacity:1.0;fill-rule:evenodd;stroke:rgb(0, 0, 0);stroke-width:3.0;" d="M 778.591, 92.8269 L 771.27, 93.1936 L 774.528, 84.9076 L 787.201, 76.6288 L 790.982, 74.7885 z "/>
<path style="fill:rgb(255, 1, 71);fill-opacity:1.0;fill-rule:evenodd;stroke:rgb(0, 0, 0);stroke-width:3.0;" d="M 766.766, 46.9545 L 731.268, 33.944 L 729.02, 22.434 L 744.961, 21.1977 z "/>
<path style="fill:rgb(255, 1, 71);fill-opacity:1.0;fill-rule:evenodd;stroke:rgb(0, 0, 0);stroke-width:3.0;" d="M 731.328, 118.832 L 720.975, 108.86 L 736.772, 101.172 z "/>
<path style="fill:rgb(92, 5, 255);fill-opacity:1.0;fill-rule:evenodd;stroke:rgb(0, 0, 0);stroke-width:3.0;" d="M 757.128, 285.625 L 741.594, 311.093 L 732.051, 309.665 L 732.964, 285.08 L 746.133, 280.101 z "/>
<path style="fill:rgb(92, 5, 255);fill-opacity:1.0;fill-rule:evenodd;stroke:rgb(0, 0, 0);stroke-width:3.0;" d="M 461.443, 18.7099 L 425.674, 40.0383 L 420.443, 29.0427 L 456.573, 17.3393 z "/>
<path style="fill:rgb(92, 5, 255);fill-opacity:1.0;fill-rule:evenodd;stroke:rgb(0, 0, 0);stroke-width:3.0;" d="M 748.784, 150.391 L 747.493, 153.673 L 717.81, 141.422 L 716.803, 133.185 L 716.804, 133.18 z "/>
<path style="fill:rgb(255, 112, 7);fill-opacity:1.0;fill-rule:evenodd;stroke:rgb(0, 0, 0);stroke-width:3.0;" d="M 742.236, 331.241 L 730.94, 339.566 L 731.375, 327.846 L 734.938, 322.006 z "/>
<path style="fill:rgb(12, 175, 255);fill-opacity:1.0;fill-rule:evenodd;stroke:rgb(0, 0, 0);stroke-width:3.0;" d="M 161.601, 76.8546 L 141.942, 88.2401 L 142.564, 81.7552 L 153.968, 74.1891 L 160.639, 73.89 z "/>
<path style="fill:rgb(12, 175, 255);fill-opacity:1.0;fill-rule:evenodd;stroke:rgb(0, 0, 0);stroke-width:3.0;" d="M 139.62, 46.5826 L 133.546, 57.0356 L 118.149, 62.1466 L 121.166, 55.3834 L 138.007, 45.7668 z "/>
<path style="fill:rgb(12, 175, 255);fill-opacity:1.0;fill-rule:evenodd;stroke:rgb(0, 0, 0);stroke-width:3.0;" d="M 718.002, 198.624 L 707.891, 194.697 L 709.249, 185.321 L 717.28, 185.184 z "/>
<path style="fill:rgb(12, 175, 255);fill-opacity:1.0;fill-rule:evenodd;stroke:rgb(0, 0, 0);stroke-width:3.0;" d="M 766.766, 46.9545 L 767.589, 47.9273 L 669.339, 21.9891 L 675.022, 13.3283 z "/>
<path style="fill:rgb(12, 175, 255);fill-opacity:1.0;fill-rule:evenodd;stroke:rgb(0, 0, 0);stroke-width:3.0;" d="M 713.984, 152.644 L 685.882, 150.231 L 674.272, 131.59 L 720.278, 109.199 z "/>
<path style="fill:rgb(226, 79, 170);fill-opacity:1.0;fill-rule:evenodd;stroke:rgb(0, 0, 0);stroke-width:3.0;" d="M 280.312, 170.765 L 271.825, 173.187 L 215.826, 134.963 L 310.956, 114.761 z "/>
<path style="fill:rgb(255, 47, 15);fill-opacity:1.0;fill-rule:evenodd;stroke:rgb(0, 0, 0);stroke-width:3.0;" d="M 687.123, 152.224 L 694.557, 164.161 L 688.156, 179.687 L 658.696, 150.885 L 670.913, 149.741 z "/>
<path style="fill:rgb(255, 47, 15);fill-opacity:1.0;fill-rule:evenodd;stroke:rgb(0, 0, 0);stroke-width:3.0;" d="M 34.3823, 157.606 L 34.5284, 163.605 L 21.4147, 165.846 L 13.8471, 152.199 z "/>
<path style="fill:rgb(255, 249, 81);fill-opacity:1.0;fill-rule:evenodd;stroke:rgb(0, 0, 0);stroke-width:3.0;" d="M 658.804, 581.97 L 661.796, 589.883 L 622.656, 576.871 L 630.351, 567.578 z "/>
<path style="fill:rgb(26, 59, 226);fill-opacity:1.0;fill-rule:evenodd;stroke:rgb(0, 0, 0);stroke-width:3.0;" d="M 388.829, 576.929 L 344.075, 505.172 L 358.808, 502.651 z "/>
<path style="fill:rgb(26, 59, 226);fill-opacity:1.0;fill-rule:evenodd;stroke:rgb(0, 0, 0);stroke-width:3.0;" d="M 608.281, 163.706 L 573.712, 180.531 L 573.252, 171.653 L 601.011, 159.346 z "/>
<path style="fill:rgb(179, 45, 234);fill-opacity:1.0;fill-rule:evenodd;stroke:rgb(0, 0, 0);stroke-width:3.0;" d="M 596.391, 156.576 L 579.565, 168.854 L 573.252, 171.653 L 573.16, 169.862 L 585.189, 149.857 z "/>
<path style="fill:rgb(246, 11, 255);fill-opacity:1.0;fill-rule:evenodd;stroke:rgb(0, 0, 0);stroke-width:3.0;" d="M 126.677, 150.178 L 111.152, 158.578 L 72.6666, 173.673 L 59.8966, 159.27 L 118.831, 149.198 z "/>
<path style="fill:rgb(37, 255, 207);fill-opacity:1.0;fill-rule:evenodd;stroke:rgb(0, 0, 0);stroke-width:3.0;" d="M 641.722, 143.721 L 631.225, 134.382 L 654.6, 126.763 z "/>
<path style="fill:rgb(37, 255, 207);fill-opacity:1.0;fill-rule:evenodd;stroke:rgb(0, 0, 0);stroke-width:3.0;" d="M 17.425, 168.126 L 23.5457, 192.94 L 18.8325, 194.788 L 11.1983, 180.339 L 11.9218, 166.224 z "/>
<path style="fill:rgb(37, 255, 207);fill-opacity:1.0;fill-rule:evenodd;stroke:rgb(0, 0, 0);stroke-width:3.0;" d="M 501.007, 492.954 L 412.787, 423.283 L 426.675, 411.428 z "/>
<path style="fill:rgb(51, 255, 136);fill-opacity:1.0;fill-rule:evenodd;stroke:rgb(0, 0, 0);stroke-width:3.0;" d="M 318.785, 128.334 L 319.224, 129.165 L 290.783, 154.64 L 288.991, 154.903 L 308.208, 119.783 z "/>
<path style="fill:rgb(255, 41, 6);fill-opacity:1.0;fill-rule:evenodd;stroke:rgb(0, 0, 0);stroke-width:3.0;" d="M 413.5, 63.7921 L 402.559, 65.53 L 390.749, 60.8633 L 422.434, 41.9704 z "/>
<path style="fill:rgb(255, 41, 6);fill-opacity:1.0;fill-rule:evenodd;stroke:rgb(0, 0, 0);stroke-width:3.0;" d="M 376.947, 50.2618 L 361.125, 52.8755 L 357.97, 45.2212 L 378.152, 37.475 z "/>
<path style="fill:rgb(255, 9, 182);fill-opacity:1.0;fill-rule:evenodd;stroke:rgb(0, 0, 0);stroke-width:3.0;" d="M 190.917, 72.5328 L 173.54, 73.3117 L 149.041, 71.719 L 134.468, 59.9795 L 134.599, 59.219 L 142.197, 47.8864 z "/>
<path style="fill:rgb(14, 255, 252);fill-opacity:1.0;fill-rule:evenodd;stroke:rgb(0, 0, 0);stroke-width:3.0;" d="M 764.509, 158.869 L 759.905, 184.142 L 756.516, 188.198 L 757.504, 140.097 z "/>
<path style="fill:rgb(14, 255, 252);fill-opacity:1.0;fill-rule:evenodd;stroke:rgb(0, 0, 0);stroke-width:3.0;" d="M 74.3309, 126.944 L 70.3609, 143.142 L 38.4971, 139.16 L 9.57846, 122.415 z "/>
<path style="fill:rgb(255, 249, 9);fill-opacity:1.0;fill-rule:evenodd;stroke:rgb(0, 0, 0);stroke-width:3.0;" d="M 500.337, 104.167 L 440.431, 80.4953 L 435.985, 33.8899 L 443.321, 29.5157 z "/>
<path style="fill:rgb(48, 136, 255);fill-opacity:1.0;fill-rule:evenodd;stroke:rgb(0, 0, 0);stroke-width:3.0;" d="M 685.002, 151.899 L 669.032, 149.453 L 654.494, 141.215 L 662.04, 137.543 L 672.375, 137.319 z "/>
<path style="fill:rgb(48, 136, 255);fill-opacity:1.0;fill-rule:evenodd;stroke:rgb(0, 0, 0);stroke-width:3.0;" d="M 496.207, 134.959 L 459.441, 134.461 L 458.265, 134.007 L 468.035, 127.982 z "/>
<path style="fill:rgb(60, 157, 255);fill-opacity:1.0;fill-rule:evenodd;stroke:rgb(0, 0, 0);stroke-width:3.0;" d="M 440.431, 80.4953 L 424.474, 74.1895 L 426.759, 39.3911 L 435.985, 33.8899 z "/>
<path style="fill:rgb(60, 157, 255);fill-opacity:1.0;fill-rule:evenodd;stroke:rgb(0, 0, 0);stroke-width:3.0;" d="M 686.26, 590.111 L 681.527, 590.552 L 640.337, 557.947 L 641.44, 557.677 z "/>
<path style="fill:rgb(60, 157, 255);fill-opacity:1.0;fill-rule:evenodd;stroke:rgb(0, 0, 0);stroke-width:3.0;" d="M 468.035, 127.982 L 458.265, 134.007 L 447.722, 129.93 L 448.934, 125.265 L 450.356, 123.603 z "/>
<path style="fill:rgb(212, 6, 44);fill-opacity:1.0;fill-rule:evenodd;stroke:rgb(0, 0, 0);stroke-width:3.0;" d="M 775.486, 50.012 L 767.589, 47.9273 L 758.163, 36.7926 L 775.892, 25.239 z "/>
<path style="fill:rgb(212, 6, 44);fill-opacity:1.0;fill-rule:evenodd;stroke:rgb(0, 0, 0);stroke-width:3.0;" d="M 774.203, 17.391 L 749.541, 26.6073 L 744.166, 20.2585 L 748.975, 16.9325 z "/>
<path style="fill:rgb(255, 226, 32);fill-opacity:1.0;fill-rule:evenodd;stroke:rgb(0, 0, 0);stroke-width:3.0;" d="M 390.202, 16.7187 L 408.5, 49.5715 L 408.161, 50.481 L 386.088, 63.6429 L 388.922, 16.5493 z "/>
<path style="fill:rgb(255, 175, 95);fill-opacity:1.0;fill-rule:evenodd;stroke:rgb(0, 0, 0);stroke-width:3.0;" d="M 673.537, 584.228 L 678.474, 591.92 L 650.481, 577.76 L 663.846, 576.556 z "/>
<path style="fill:rgb(255, 175, 95);fill-opacity:1.0;fill-rule:evenodd;stroke:rgb(0, 0, 0);stroke-width:3.0;" d="M 393.396, 87.4964 L 392.652, 102.507 L 372.931, 92.5986 L 369.301, 73.6529 L 375.37, 70.0339 z "/>
<path style="fill:rgb(255, 175, 95);fill-opacity:1.0;fill-rule:evenodd;stroke:rgb(0, 0, 0);stroke-width:3.0;" d="M 496.268, 122.241 L 495.585, 124.869 L 454.851, 124.717 L 444.418, 122.133 z "/>
<path style="fill:rgb(255, 177, 212);fill-opacity:1.0;fill-rule:evenodd;stroke:rgb(0, 0, 0);stroke-width:3.0;" d="M 784.827, 257.78 L 778.239, 264.141 L 765.933, 260.967 L 753.756, 240.611 L 760.24, 237.551 z "/>
<path style="fill:rgb(255, 177, 212);fill-opacity:1.0;fill-rule:evenodd;stroke:rgb(0, 0, 0);stroke-width:3.0;" d="M 773.635, 205.055 L 726.965, 233.395 L 716.366, 232.848 L 727.659, 204.125 z "/>
<path style="fill:rgb(255, 49, 33);fill-opacity:1.0;fill-rule:evenodd;stroke:rgb(0, 0, 0);stroke-width:3.0;" d="M 698.986, 190.275 L 625.523, 219.505 L 614.511, 213.972 L 619.533, 209.232 L 689.014, 180.526 z "/>
<path style="fill:rgb(134, 215, 255);fill-opacity:1.0;fill-rule:evenodd;stroke:rgb(0, 0, 0);stroke-width:3.0;" d="M 81.4609, 144.529 L 74.2168, 151.705 L 55.4217, 148.364 L 54.0195, 141.1 z "/>
<path style="fill:rgb(89, 57, 255);fill-opacity:1.0;fill-rule:evenodd;stroke:rgb(0, 0, 0);stroke-width:3.0;" d="M 414.972, 540.907 L 394.905, 571.687 L 357.43, 470.536 L 361.977, 466.655 z "/>
<path style="fill:rgb(255, 130, 255);fill-opacity:1.0;fill-rule:evenodd;stroke:rgb(0, 0, 0);stroke-width:3.0;" d="M 62.8774, 169.449 L 19.2563, 166.215 L 31.8319, 164.066 L 54.8643, 163.292 z "/>
<path style="fill:rgb(255, 79, 30);fill-opacity:1.0;fill-rule:evenodd;stroke:rgb(0, 0, 0);stroke-width:3.0;" d="M 614.359, 130.999 L 614.763, 133.171 L 579.944, 142.823 L 575.438, 136.861 L 582.698, 125.998 z "/>
<path style="fill:rgb(255, 79, 30);fill-opacity:1.0;fill-rule:evenodd;stroke:rgb(0, 0, 0);stroke-width:3.0;" d="M 401.677, 18.2374 L 417.553, 25.3036 L 411.39, 41.8244 L 405.468, 44.1267 L 390.202, 16.7187 z "/>
<path style="fill:rgb(255, 79, 30);fill-opacity:1.0;fill-rule:evenodd;stroke:rgb(0, 0, 0);stroke-width:3.0;" d="M 311.296, 114.14 L 310.956, 114.761 L 227.31, 132.524 L 202.626, 122.699 L 296.403, 85.9166 z "/>
<path style="fill:rgb(255, 255, 89);fill-opacity:1.0;fill-rule:evenodd;stroke:rgb(0, 0, 0);stroke-width:3.0;" d="M 752.47, 141.014 L 741.595, 146.522 L 725.468, 137.843 L 736.772, 101.172 L 775.554, 82.297 z "/>
<path style="fill:rgb(249, 228, 33);fill-opacity:1.0;fill-rule:evenodd;stroke:rgb(0, 0, 0);stroke-width:3.0;" d="M 708.746, 152.195 L 710.169, 164.468 L 705.547, 181.807 L 685.882, 150.231 z "/>
<path style="fill:rgb(240, 189, 39);fill-opacity:1.0;fill-rule:evenodd;stroke:rgb(0, 0, 0);stroke-width:3.0;" d="M 108.611, 46.1503 L 90.7075, 60.1297 L 102.289, 12.8803 z "/>
<path style="fill:rgb(240, 189, 39);fill-opacity:1.0;fill-rule:evenodd;stroke:rgb(0, 0, 0);stroke-width:3.0;" d="M 716.87, 177.56 L 709.9, 180.833 L 715.112, 144.857 z "/>
<path style="fill:rgb(255, 220, 13);fill-opacity:1.0;fill-rule:evenodd;stroke:rgb(0, 0, 0);stroke-width:3.0;" d="M 376.209, 143.391 L 333.208, 155.666 L 310.821, 113.241 L 329.108, 73.0887 L 330.562, 72.5183 z "/>
<path style="fill:rgb(255, 182, 8);fill-opacity:1.0;fill-rule:evenodd;stroke:rgb(0, 0, 0);stroke-width:3.0;" d="M 151.232, 443.207 L 192.901, 473.317 L 125.757, 460.912 L 120.511, 441.697 z "/>
<path style="fill:rgb(255, 182, 8);fill-opacity:1.0;fill-rule:evenodd;stroke:rgb(0, 0, 0);stroke-width:3.0;" d="M 137.331, 45.4247 L 119.352, 36.3295 L 183.522, 15.1884 z "/>
<path style="fill:rgb(70, 246, 243);fill-opacity:1.0;fill-rule:evenodd;stroke:rgb(0, 0, 0);stroke-width:3.0;" d="M 458.479, 87.6269 L 488.781, 122.226 L 431.662, 122.106 L 401.98, 107.193 L 406.2, 66.9688 z "/>
<path style="fill:rgb(255, 115, 24);fill-opacity:1.0;fill-rule:evenodd;stroke:rgb(0, 0, 0);stroke-width:3.0;" d="M 772.722, 308.773 L 759.107, 318.807 L 743.408, 308.118 L 747.725, 301.042 z "/>
<path style="fill:rgb(255, 2, 9);fill-opacity:1.0;fill-rule:evenodd;stroke:rgb(0, 0, 0);stroke-width:3.0;" d="M 118.831, 149.198 L 88.892, 154.315 L 80.3788, 152.801 L 88.7098, 145.434 z "/>
<path style="fill:rgb(11, 54, 199);fill-opacity:1.0;fill-rule:evenodd;stroke:rgb(0, 0, 0);stroke-width:3.0;" d="M 41.2739, 167.847 L 56.0289, 180.199 L 43.1526, 185.249 L 21.4665, 184.51 L 17.0469, 166.593 L 19.2563, 166.215 z "/>
<path style="fill:rgb(11, 54, 199);fill-opacity:1.0;fill-rule:evenodd;stroke:rgb(0, 0, 0);stroke-width:3.0;" d="M 424.474, 74.1895 L 411.364, 69.0093 L 412.477, 66.2901 L 422.443, 52.068 L 425.959, 51.576 z "/>
<path style="fill:rgb(11, 54, 199);fill-opacity:1.0;fill-rule:evenodd;stroke:rgb(0, 0, 0);stroke-width:3.0;" d="M 616.925, 144.793 L 613.113, 161.355 L 611.768, 162.01 L 588.928, 152.099 L 585.321, 149.936 L 579.944, 142.823 L 614.763, 133.171 z "/>
<path style="fill:rgb(15, 252, 154);fill-opacity:1.0;fill-rule:evenodd;stroke:rgb(0, 0, 0);stroke-width:3.0;" d="M 328.328, 154.908 L 326.969, 156.836 L 309.701, 162.376 L 303.877, 164.038 L 296.714, 153.77 L 322.567, 149.976 z "/>
<path style="fill:rgb(15, 252, 154);fill-opacity:1.0;fill-rule:evenodd;stroke:rgb(0, 0, 0);stroke-width:3.0;" d="M 359.85, 530.466 L 369.308, 545.63 L 363.919, 549.189 L 352.013, 530.015 z "/>
<path style="fill:rgb(15, 252, 154);fill-opacity:1.0;fill-rule:evenodd;stroke:rgb(0, 0, 0);stroke-width:3.0;" d="M 316.737, 100.251 L 313.687, 94.1776 L 317.1, 77.7985 L 329.108, 73.0887 z "/>
<path style="fill:rgb(22, 2, 212);fill-opacity:1.0;fill-rule:evenodd;stroke:rgb(0, 0, 0);stroke-width:3.0;" d="M 788.763, 123.384 L 786.463, 127.834 L 767.187, 103.58 L 769.38, 98.0014 z "/>
<path style="fill:rgb(22, 2, 212);fill-opacity:1.0;fill-rule:evenodd;stroke:rgb(0, 0, 0);stroke-width:3.0;" d="M 142.725, 80.0751 L 141.942, 88.2401 L 133.648, 93.0434 L 125.681, 86.2755 L 139.034, 77.6211 z "/>
<path style="fill:rgb(255, 18, 192);fill-opacity:1.0;fill-rule:evenodd;stroke:rgb(0, 0, 0);stroke-width:3.0;" d="M 313.89, 93.2051 L 310.029, 111.739 L 296.403, 85.9166 L 305.744, 82.2528 z "/>
<path style="fill:rgb(202, 11, 237);fill-opacity:1.0;fill-rule:evenodd;stroke:rgb(0, 0, 0);stroke-width:3.0;" d="M 401.851, 65.2499 L 405.998, 68.8957 L 401.98, 107.193 L 392.652, 102.507 L 394.641, 62.4012 z "/>
<path style="fill:rgb(255, 243, 43);fill-opacity:1.0;fill-rule:evenodd;stroke:rgb(0, 0, 0);stroke-width:3.0;" d="M 368.701, 500.958 L 344.075, 505.172 L 334.617, 490.009 L 357.43, 470.536 z "/>
<path style="fill:rgb(255, 20, 69);fill-opacity:1.0;fill-rule:evenodd;stroke:rgb(0, 0, 0);stroke-width:3.0;" d="M 764.426, 289.292 L 761.785, 305.391 L 747.725, 301.042 L 757.128, 285.625 z "/>
<path style="fill:rgb(255, 45, 7);fill-opacity:1.0;fill-rule:evenodd;stroke:rgb(0, 0, 0);stroke-width:3.0;" d="M 742.298, 198.731 L 728.078, 203.057 L 736.268, 182.225 z "/>
<path style="fill:rgb(255, 45, 7);fill-opacity:1.0;fill-rule:evenodd;stroke:rgb(0, 0, 0);stroke-width:3.0;" d="M 515.617, 124.944 L 516.597, 125.331 L 516.914, 137.179 L 510.939, 138.608 L 480.772, 131.136 L 486.633, 124.835 z "/>
<path style="fill:rgb(18, 255, 255);fill-opacity:1.0;fill-rule:evenodd;stroke:rgb(0, 0, 0);stroke-width:3.0;" d="M 456.573, 17.3393 L 420.443, 29.0427 L 412.833, 13.0452 L 421.165, 7.37385 z "/>
<path style="fill:rgb(18, 255, 255);fill-opacity:1.0;fill-rule:evenodd;stroke:rgb(0, 0, 0);stroke-width:3.0;" d="M 140.406, 76.7319 L 124.075, 87.3159 L 119.175, 75.7487 L 138.519, 74.8816 z "/>
<path style="fill:rgb(249, 10, 67);fill-opacity:1.0;fill-rule:evenodd;stroke:rgb(0, 0, 0);stroke-width:3.0;" d="M 646.15, 188.549 L 641.067, 200.335 L 619.533, 209.232 L 642.545, 187.514 z "/>
<path style="fill:rgb(249, 10, 67);fill-opacity:1.0;fill-rule:evenodd;stroke:rgb(0, 0, 0);stroke-width:3.0;" d="M 438.204, 573.456 L 423.081, 584.035 L 420.134, 585.186 L 400.449, 563.183 L 414.972, 540.907 z "/>
<path style="fill:rgb(62, 194, 11);fill-opacity:1.0;fill-rule:evenodd;stroke:rgb(0, 0, 0);stroke-width:3.0;" d="M 719.636, 290.118 L 383.37, 417.245 L 288.949, 203.591 L 307.108, 199.41 z "/>
<path style="fill:rgb(255, 159, 16);fill-opacity:1.0;fill-rule:evenodd;stroke:rgb(0, 0, 0);stroke-width:3.0;" d="M 746.133, 280.101 L 719.636, 290.118 L 307.108, 199.41 L 498.02, 155.445 z "/>
<path style="fill:rgb(74, 83, 255);fill-opacity:1.0;fill-rule:evenodd;stroke:rgb(0, 0, 0);stroke-width:3.0;" d="M 670.613, 126.731 L 672.717, 132.347 L 644.417, 146.12 L 643.942, 145.697 L 665.812, 124.64 z "/>
<path style="fill:rgb(243, 189, 37);fill-opacity:1.0;fill-rule:evenodd;stroke:rgb(0, 0, 0);stroke-width:3.0;" d="M 742.546, 362.895 L 733.746, 380.57 L 729.349, 382.396 L 730.866, 341.571 z "/>
<path style="fill:rgb(26, 144, 255);fill-opacity:1.0;fill-rule:evenodd;stroke:rgb(0, 0, 0);stroke-width:3.0;" d="M 789.192, 137.752 L 785.126, 136.976 L 773.131, 133.376 L 771.286, 127.421 L 771.214, 118.699 z "/>
<path style="fill:rgb(26, 212, 252);fill-opacity:1.0;fill-rule:evenodd;stroke:rgb(0, 0, 0);stroke-width:3.0;" d="M 61.7082, 169.362 L 55.6633, 179.893 L 41.2739, 167.847 z "/>
<path style="fill:rgb(255, 61, 20);fill-opacity:1.0;fill-rule:evenodd;stroke:rgb(0, 0, 0);stroke-width:3.0;" d="M 695.923, 254.875 L 687.074, 250.429 L 681.567, 239.541 L 679.929, 233.473 L 690.698, 232.221 z "/>
<path style="fill:rgb(79, 237, 209);fill-opacity:1.0;fill-rule:evenodd;stroke:rgb(0, 0, 0);stroke-width:3.0;" d="M 426.675, 411.428 L 232.823, 576.9 L 117.899, 517.608 L 419.518, 403.579 z "/>
<path style="fill:rgb(255, 255, 71);fill-opacity:1.0;fill-rule:evenodd;stroke:rgb(0, 0, 0);stroke-width:3.0;" d="M 205.331, 10.9232 L 155.909, 40.1527 L 161.973, 29.294 L 183.522, 15.1884 L 199.021, 10.0821 z "/>
<path style="fill:rgb(24, 11, 255);fill-opacity:1.0;fill-rule:evenodd;stroke:rgb(0, 0, 0);stroke-width:3.0;" d="M 359.131, 11.6825 L 349.714, 21.4303 L 343.68, 19.6447 L 342.619, 10.9604 z "/>
<path style="fill:rgb(24, 11, 255);fill-opacity:1.0;fill-rule:evenodd;stroke:rgb(0, 0, 0);stroke-width:3.0;" d="M 155.909, 40.1527 L 142.54, 48.0598 L 137.331, 45.4247 L 161.973, 29.294 z "/>
<path style="fill:rgb(11, 255, 126);fill-opacity:1.0;fill-rule:evenodd;stroke:rgb(0, 0, 0);stroke-width:3.0;" d="M 748.859, 350.215 L 739.067, 356.544 L 734.522, 348.247 L 756.495, 334.876 z "/>
<path style="fill:rgb(255, 255, 61);fill-opacity:1.0;fill-rule:evenodd;stroke:rgb(0, 0, 0);stroke-width:3.0;" d="M 756.495, 334.876 L 734.522, 348.247 L 730.866, 341.571 L 730.94, 339.566 L 767.618, 312.535 z "/>
<path style="fill:rgb(8, 246, 246);fill-opacity:1.0;fill-rule:evenodd;stroke:rgb(0, 0, 0);stroke-width:3.0;" d="M 747.493, 153.673 L 737.957, 177.931 L 718.084, 143.658 L 717.81, 141.422 z "/>
<path style="fill:rgb(152, 240, 255);fill-opacity:1.0;fill-rule:evenodd;stroke:rgb(0, 0, 0);stroke-width:3.0;" d="M 768.088, 261.523 L 773.285, 268.926 L 767.376, 274.633 L 757.744, 262.659 L 764.639, 260.634 z "/>
<path style="fill:rgb(234, 0, 136);fill-opacity:1.0;fill-rule:evenodd;stroke:rgb(0, 0, 0);stroke-width:3.0;" d="M 56.439, 153.634 L 57.6027, 159.662 L 48.2564, 161.259 L 13.8471, 152.199 L 13.5225, 151.613 L 13.5502, 149.418 L 25.8692, 144.42 z "/>
<path style="fill:rgb(234, 0, 136);fill-opacity:1.0;fill-rule:evenodd;stroke:rgb(0, 0, 0);stroke-width:3.0;" d="M 295.885, 450.319 L 207.38, 483.779 L 151.232, 443.207 z "/>
<path style="fill:rgb(255, 220, 10);fill-opacity:1.0;fill-rule:evenodd;stroke:rgb(0, 0, 0);stroke-width:3.0;" d="M 209.928, 130.937 L 210.558, 190.676 L 136.701, 211.759 L 189.298, 127.926 L 199.599, 123.886 z "/>
<path style="fill:rgb(105, 255, 255);fill-opacity:1.0;fill-rule:evenodd;stroke:rgb(0, 0, 0);stroke-width:3.0;" d="M 375.539, 38.4778 L 359.576, 44.6049 L 350.189, 45.0979 L 359.748, 33.9396 z "/>
<path style="fill:rgb(105, 255, 255);fill-opacity:1.0;fill-rule:evenodd;stroke:rgb(0, 0, 0);stroke-width:3.0;" d="M 271.825, 173.187 L 210.558, 190.676 L 209.928, 130.937 z "/>
<path style="fill:rgb(36, 9, 255);fill-opacity:1.0;fill-rule:evenodd;stroke:rgb(0, 0, 0);stroke-width:3.0;" d="M 54.0195, 141.1 L 56.439, 153.634 L 25.8692, 144.42 L 38.7525, 139.192 z "/>
<path style="fill:rgb(36, 9, 255);fill-opacity:1.0;fill-rule:evenodd;stroke:rgb(0, 0, 0);stroke-width:3.0;" d="M 369.654, 12.1426 L 347.655, 43.9207 L 357.781, 17.9058 L 361.213, 11.7735 z "/>
<path style="fill:rgb(255, 246, 21);fill-opacity:1.0;fill-rule:evenodd;stroke:rgb(0, 0, 0);stroke-width:3.0;" d="M 303.877, 164.038 L 292.067, 167.41 L 288.096, 156.538 L 288.991, 154.903 L 296.714, 153.77 z "/>
<path style="fill:rgb(59, 246, 182);fill-opacity:1.0;fill-rule:evenodd;stroke:rgb(0, 0, 0);stroke-width:3.0;" d="M 386.088, 63.6429 L 378.195, 68.349 L 359.468, 70.9313 L 359.097, 69.4897 L 359.517, 68.0535 L 365.058, 65.4843 L 386.291, 60.2725 z "/>
<path style="fill:rgb(255, 179, 6);fill-opacity:1.0;fill-rule:evenodd;stroke:rgb(0, 0, 0);stroke-width:3.0;" d="M 726.517, 37.084 L 774.451, 68.9427 L 751.384, 82.8478 L 723.925, 36.3998 z "/>
<path style="fill:rgb(252, 24, 194);fill-opacity:1.0;fill-rule:evenodd;stroke:rgb(0, 0, 0);stroke-width:3.0;" d="M 656.88, 167.051 L 657.376, 173.517 L 654.386, 176.338 L 589.342, 201.327 L 560.626, 186.9 L 637.127, 149.668 z "/>
<path style="fill:rgb(255, 184, 21);fill-opacity:1.0;fill-rule:evenodd;stroke:rgb(0, 0, 0);stroke-width:3.0;" d="M 655.391, 147.653 L 656.88, 167.051 L 637.127, 149.668 L 650.697, 143.064 z "/>
<path style="fill:rgb(146, 5, 255);fill-opacity:1.0;fill-rule:evenodd;stroke:rgb(0, 0, 0);stroke-width:3.0;" d="M 574.479, 122.405 L 573.75, 123.591 L 535.376, 132.765 L 533.602, 132.063 L 534.252, 127.541 L 550.395, 122.355 z "/>
<path style="fill:rgb(237, 240, 14);fill-opacity:1.0;fill-rule:evenodd;stroke:rgb(0, 0, 0);stroke-width:3.0;" d="M 231.331, 15.122 L 233.936, 21.4562 L 216.791, 13.3389 L 218.679, 5.70811 z "/>
<path style="fill:rgb(255, 194, 40);fill-opacity:1.0;fill-rule:evenodd;stroke:rgb(0, 0, 0);stroke-width:3.0;" d="M 379.26, 25.7182 L 378.985, 28.6364 L 371.956, 37.448 L 359.748, 33.9396 L 371.119, 20.6665 z "/>
<path style="fill:rgb(231, 58, 237);fill-opacity:1.0;fill-rule:evenodd;stroke:rgb(0, 0, 0);stroke-width:3.0;" d="M 416.043, 580.613 L 420.134, 585.186 L 402.463, 592.089 L 394.905, 571.687 L 395.763, 570.37 z "/>
<path style="fill:rgb(220, 234, 72);fill-opacity:1.0;fill-rule:evenodd;stroke:rgb(0, 0, 0);stroke-width:3.0;" d="M 737.957, 177.931 L 725.997, 208.35 L 720.804, 165.893 L 729.906, 164.047 z "/>
<path style="fill:rgb(10, 0, 255);fill-opacity:1.0;fill-rule:evenodd;stroke:rgb(0, 0, 0);stroke-width:3.0;" d="M 130.923, 49.8121 L 111.422, 60.9474 L 110.891, 58.1496 L 122.8, 45.0875 z "/>
<path style="fill:rgb(255, 37, 161);fill-opacity:1.0;fill-rule:evenodd;stroke:rgb(0, 0, 0);stroke-width:3.0;" d="M 128.419, 150.396 L 70.3609, 143.142 L 88.4764, 69.2326 L 109.691, 51.8376 z "/>
<path style="fill:rgb(255, 240, 7);fill-opacity:1.0;fill-rule:evenodd;stroke:rgb(0, 0, 0);stroke-width:3.0;" d="M 758.052, 348.561 L 749.256, 349.417 L 756.745, 334.373 L 765.158, 334.179 z "/>
<path style="fill:rgb(138, 231, 255);fill-opacity:1.0;fill-rule:evenodd;stroke:rgb(0, 0, 0);stroke-width:3.0;" d="M 773.1, 194.44 L 763.63, 204.853 L 756.177, 204.702 L 756.18, 204.591 L 761.222, 176.913 z "/>
<path style="fill:rgb(138, 231, 255);fill-opacity:1.0;fill-rule:evenodd;stroke:rgb(0, 0, 0);stroke-width:3.0;" d="M 773.066, 318.171 L 765.158, 334.179 L 756.745, 334.373 L 766.542, 314.695 z "/>
<path style="fill:rgb(255, 0, 85);fill-opacity:1.0;fill-rule:evenodd;stroke:rgb(0, 0, 0);stroke-width:3.0;" d="M 192.901, 473.317 L 207.38, 483.779 L 139.053, 509.61 L 135.876, 497.973 L 180.02, 470.937 z "/>
<path style="fill:rgb(255, 15, 184);fill-opacity:1.0;fill-rule:evenodd;stroke:rgb(0, 0, 0);stroke-width:3.0;" d="M 127.96, 147.979 L 124.072, 127.518 L 160.343, 109.23 z "/>
<path style="fill:rgb(18, 255, 220);fill-opacity:1.0;fill-rule:evenodd;stroke:rgb(0, 0, 0);stroke-width:3.0;" d="M 708.963, 187.293 L 707.347, 198.45 L 688.156, 179.687 L 694.557, 164.161 z "/>
<path style="fill:rgb(103, 240, 255);fill-opacity:1.0;fill-rule:evenodd;stroke:rgb(0, 0, 0);stroke-width:3.0;" d="M 771.13, 108.54 L 771.247, 122.669 L 768.139, 124.799 L 763.251, 113.591 L 767.187, 103.58 z "/>
<path style="fill:rgb(48, 144, 255);fill-opacity:1.0;fill-rule:evenodd;stroke:rgb(0, 0, 0);stroke-width:3.0;" d="M 341.371, 500.838 L 359.85, 530.466 L 352.013, 530.015 L 333.571, 500.314 z "/>
<path style="fill:rgb(226, 157, 255);fill-opacity:1.0;fill-rule:evenodd;stroke:rgb(0, 0, 0);stroke-width:3.0;" d="M 776.419, 190.789 L 773.1, 194.44 L 761.222, 176.913 L 764.509, 158.869 z "/>
</svg>