<?xml version="1.0" encoding="iso-8859-1" standalone="no"?>
<!DOCTYPE svg PUBLIC "-//W3C//DTD SVG 1.0//EN" "http://www.w3.org/TR/2001/REC-SVG-20010904/DTD/svg10.dtd">
<svg xmlns="http://www.w3.org/2000/svg" width="800" height="600">
<path style="fill:rgb(0, 0, 0);fill-opacity:0.0;fill-rule:evenodd;stroke:rgb(0, 0, 0);stroke-width:0.0;" d="M 0, 600 L 800, 600 L 800, 0 L 0, 0 z "/>
<path style="fill:rgb(255, 255, 115);fill-opacity:1.0;fill-rule:evenodd;stroke:rgb(0, 0, 0);stroke-width:3.0;" d="M 46.2642, 478.516 L 39.1379, 497.699 L 19.5072, 463.965 L 27.6254, 462.146 z "/>
<path style="fill:rgb(255, 255, 115);fill-opacity:1.0;fill-rule:evenodd;stroke:rgb(0, 0, 0);stroke-width:3.0;" d="M 326.598, 41.3786 L 347.009, 91.3926 L 247.744, 128.302 L 140.297, 29.9028 L 141.638, 26.7502 z "/>
<path style="fill:rgb(255, 255, 115);fill-opacity:1.0;fill-rule:evenodd;stroke:rgb(0, 0, 0);stroke-width:3.0;" d="M 153.24, 444.07 L 160.493, 463.347 L 143.684, 450.442 L 138.813, 434.318 L 142.668, 431.445 z "/>
<path style="fill:rgb(255, 255, 115);fill-opacity:1.0;fill-rule:evenodd;stroke:rgb(0, 0, 0);stroke-width:3.0;" d="M 454.966, 552.257 L 431.595, 534.209 L 456.706, 527.703 z "/>
<path style="fill:rgb(130, 146, 194);fill-opacity:1.0;fill-rule:evenodd;stroke:rgb(0, 0, 0);stroke-width:3.0;" d="M 649.654, 271.844 L 618.411, 249.532 L 624.096, 238.369 L 669.898, 223.067 z "/>
<path style="fill:rgb(237, 0, 45);fill-opacity:1.0;fill-rule:evenodd;stroke:rgb(0, 0, 0);stroke-width:3.0;" d="M 104.86, 184.217 L 107.971, 209.056 L 94.0859, 216.83 L 85.669, 189.22 L 91.4456, 181.142 z "/>
<path style="fill:rgb(237, 0, 45);fill-opacity:1.0;fill-rule:evenodd;stroke:rgb(0, 0, 0);stroke-width:3.0;" d="M 67.7457, 303.313 L 49.0784, 361.027 L 25.2637, 352.139 L 18.9371, 338.173 L 25.0173, 324.855 L 49.9764, 296.944 z "/>
<path style="fill:rgb(237, 0, 45);fill-opacity:1.0;fill-rule:evenodd;stroke:rgb(0, 0, 0);stroke-width:3.0;" d="M 161.525, 411.19 L 140.925, 411.338 L 139.12, 406.54 L 144.718, 402.921 L 170.856, 402 z "/>
<path style="fill:rgb(237, 0, 45);fill-opacity:1.0;fill-rule:evenodd;stroke:rgb(0, 0, 0);stroke-width:3.0;" d="M 96.0002, 342.999 L 86.2828, 354.331 L 80.2052, 341.837 L 82.5376, 335.799 z "/>
<path style="fill:rgb(237, 0, 45);fill-opacity:1.0;fill-rule:evenodd;stroke:rgb(0, 0, 0);stroke-width:3.0;" d="M 629.689, 257.586 L 686.572, 312.86 L 675.388, 328.164 L 602.424, 287.397 L 606.155, 273.592 L 618.411, 249.532 z "/>
<path style="fill:rgb(237, 0, 45);fill-opacity:1.0;fill-rule:evenodd;stroke:rgb(0, 0, 0);stroke-width:3.0;" d="M 421.018, 505.318 L 421.084, 506.209 L 347.912, 492.288 L 344.695, 477.395 L 350.244, 471.829 z "/>
<path style="fill:rgb(237, 0, 45);fill-opacity:1.0;fill-rule:evenodd;stroke:rgb(0, 0, 0);stroke-width:3.0;" d="M 655.567, 587.66 L 651.319, 592.7 L 626.865, 568.171 L 645.026, 563.303 z "/>
<path style="fill:rgb(255, 163, 255);fill-opacity:1.0;fill-rule:evenodd;stroke:rgb(0, 0, 0);stroke-width:3.0;" d="M 675.388, 328.164 L 638.693, 378.374 L 558.051, 368.035 L 599.855, 285.962 z "/>
<path style="fill:rgb(255, 5, 72);fill-opacity:1.0;fill-rule:evenodd;stroke:rgb(0, 0, 0);stroke-width:3.0;" d="M 132.629, 378.015 L 134.658, 368.668 L 177.206, 365.968 z "/>
<path style="fill:rgb(94, 1, 226);fill-opacity:1.0;fill-rule:evenodd;stroke:rgb(0, 0, 0);stroke-width:3.0;" d="M 120.877, 322.357 L 130.24, 349.088 L 117.287, 348.512 L 105.352, 316.792 z "/>
<path style="fill:rgb(94, 1, 226);fill-opacity:1.0;fill-rule:evenodd;stroke:rgb(0, 0, 0);stroke-width:3.0;" d="M 70.9268, 412.127 L 67.2185, 422.109 L 38.712, 412.413 L 46.1463, 407.032 L 58.5668, 404.465 z "/>
<path style="fill:rgb(255, 110, 37);fill-opacity:1.0;fill-rule:evenodd;stroke:rgb(0, 0, 0);stroke-width:3.0;" d="M 558.502, 464.3 L 561.05, 465.58 L 568.35, 474.624 L 563.648, 481.058 L 510.234, 461.913 L 514.496, 453.546 z "/>
<path style="fill:rgb(255, 110, 37);fill-opacity:1.0;fill-rule:evenodd;stroke:rgb(0, 0, 0);stroke-width:3.0;" d="M 225.836, 384.103 L 208.455, 368.933 L 218.063, 362.81 z "/>
<path style="fill:rgb(255, 110, 37);fill-opacity:1.0;fill-rule:evenodd;stroke:rgb(0, 0, 0);stroke-width:3.0;" d="M 412.408, 566.55 L 408.36, 585.544 L 380.586, 549.113 L 380.049, 546.265 L 385.102, 542.314 z "/>
<path style="fill:rgb(255, 110, 37);fill-opacity:1.0;fill-rule:evenodd;stroke:rgb(0, 0, 0);stroke-width:3.0;" d="M 456.299, 478.599 L 459.501, 488.277 L 459.097, 493.969 L 447.907, 487.401 L 447.3, 469.687 z "/>
<path style="fill:rgb(255, 110, 37);fill-opacity:1.0;fill-rule:evenodd;stroke:rgb(0, 0, 0);stroke-width:3.0;" d="M 540.608, 455.305 L 539.318, 459.612 L 514.496, 453.546 L 519.105, 444.496 z "/>
<path style="fill:rgb(255, 110, 37);fill-opacity:1.0;fill-rule:evenodd;stroke:rgb(0, 0, 0);stroke-width:3.0;" d="M 282.815, 471.934 L 190.589, 505.725 L 162.274, 504.088 L 166.161, 489.121 L 216.123, 470.397 z "/>
<path style="fill:rgb(103, 47, 249);fill-opacity:1.0;fill-rule:evenodd;stroke:rgb(0, 0, 0);stroke-width:3.0;" d="M 81.2035, 348.547 L 65.7955, 346.473 L 55.5401, 341.05 L 56.9995, 336.537 L 76.3212, 330.766 z "/>
<path style="fill:rgb(103, 47, 249);fill-opacity:1.0;fill-rule:evenodd;stroke:rgb(0, 0, 0);stroke-width:3.0;" d="M 562.729, 410.68 L 576.458, 463.531 L 568.35, 474.624 L 528.748, 425.565 L 530.993, 421.157 L 559.283, 410.116 z "/>
<path style="fill:rgb(103, 47, 249);fill-opacity:1.0;fill-rule:evenodd;stroke:rgb(0, 0, 0);stroke-width:3.0;" d="M 100.536, 237.989 L 82.7131, 251.286 L 75.5252, 203.407 L 85.669, 189.22 z "/>
<path style="fill:rgb(255, 64, 255);fill-opacity:1.0;fill-rule:evenodd;stroke:rgb(0, 0, 0);stroke-width:3.0;" d="M 188.787, 346.698 L 163.337, 350.562 L 130.24, 349.088 L 120.877, 322.357 z "/>
<path style="fill:rgb(255, 228, 16);fill-opacity:1.0;fill-rule:evenodd;stroke:rgb(0, 0, 0);stroke-width:3.0;" d="M 753.035, 528.521 L 763.582, 533.78 L 748.392, 540.571 L 716.485, 534.444 L 686.351, 524.504 L 690.579, 519.364 z "/>
<path style="fill:rgb(255, 44, 81);fill-opacity:1.0;fill-rule:evenodd;stroke:rgb(0, 0, 0);stroke-width:3.0;" d="M 123.688, 408.781 L 121.331, 419.303 L 110.161, 424.707 L 108.22, 423.217 L 104.15, 385.451 z "/>
<path style="fill:rgb(255, 44, 81);fill-opacity:1.0;fill-rule:evenodd;stroke:rgb(0, 0, 0);stroke-width:3.0;" d="M 485.601, 533.673 L 471.109, 546.721 L 463.802, 537.621 L 463.34, 530.482 L 486.096, 529.351 z "/>
<path style="fill:rgb(71, 249, 223);fill-opacity:1.0;fill-rule:evenodd;stroke:rgb(0, 0, 0);stroke-width:3.0;" d="M 315.904, 511.712 L 302.295, 572.277 L 298.399, 570.997 L 314.252, 495.103 z "/>
<path style="fill:rgb(71, 249, 223);fill-opacity:1.0;fill-rule:evenodd;stroke:rgb(0, 0, 0);stroke-width:3.0;" d="M 728.42, 576.078 L 724.592, 583.001 L 696.44, 574.447 L 718.578, 560.78 z "/>
<path style="fill:rgb(71, 249, 223);fill-opacity:1.0;fill-rule:evenodd;stroke:rgb(0, 0, 0);stroke-width:3.0;" d="M 188.953, 401.363 L 182.455, 401.592 L 153.211, 372.453 L 199.726, 359.882 z "/>
<path style="fill:rgb(228, 175, 255);fill-opacity:1.0;fill-rule:evenodd;stroke:rgb(0, 0, 0);stroke-width:3.0;" d="M 733.561, 69.6681 L 719.148, 104.396 L 679.805, 128.998 L 710.883, 67.9814 z "/>
<path style="fill:rgb(249, 177, 21);fill-opacity:1.0;fill-rule:evenodd;stroke:rgb(0, 0, 0);stroke-width:3.0;" d="M 455.795, 587.376 L 448.655, 592.748 L 430.991, 592.065 L 433.7, 582.089 z "/>
<path style="fill:rgb(249, 177, 21);fill-opacity:1.0;fill-rule:evenodd;stroke:rgb(0, 0, 0);stroke-width:3.0;" d="M 311.235, 509.548 L 298.06, 572.621 L 274.777, 567.065 L 168.532, 513.807 L 304.264, 464.075 z "/>
<path style="fill:rgb(249, 177, 21);fill-opacity:1.0;fill-rule:evenodd;stroke:rgb(0, 0, 0);stroke-width:3.0;" d="M 376.418, 436.896 L 383.667, 444.318 L 370.12, 443.461 L 356.92, 432.901 z "/>
<path style="fill:rgb(249, 177, 21);fill-opacity:1.0;fill-rule:evenodd;stroke:rgb(0, 0, 0);stroke-width:3.0;" d="M 200.731, 554.988 L 197.414, 560.939 L 191.162, 561.227 L 180.399, 556.245 L 176.786, 547.11 z "/>
<path style="fill:rgb(255, 98, 27);fill-opacity:1.0;fill-rule:evenodd;stroke:rgb(0, 0, 0);stroke-width:3.0;" d="M 792.374, 52.1432 L 784.272, 93.4355 L 781.516, 51.4632 z "/>
<path style="fill:rgb(255, 98, 27);fill-opacity:1.0;fill-rule:evenodd;stroke:rgb(0, 0, 0);stroke-width:3.0;" d="M 787.831, 147.62 L 702.897, 218.132 L 784.045, 89.9787 z "/>
<path style="fill:rgb(255, 98, 27);fill-opacity:1.0;fill-rule:evenodd;stroke:rgb(0, 0, 0);stroke-width:3.0;" d="M 159.693, 514.026 L 153.474, 515.29 L 160.487, 495.825 L 166.807, 486.635 z "/>
<path style="fill:rgb(142, 62, 255);fill-opacity:1.0;fill-rule:evenodd;stroke:rgb(0, 0, 0);stroke-width:3.0;" d="M 622.864, 569.244 L 583.424, 579.815 L 558.665, 578.436 L 559.753, 521.73 z "/>
<path style="fill:rgb(142, 62, 255);fill-opacity:1.0;fill-rule:evenodd;stroke:rgb(0, 0, 0);stroke-width:3.0;" d="M 496.166, 456.871 L 148.754, 332.349 L 400.879, 223.389 z "/>
<path style="fill:rgb(142, 62, 255);fill-opacity:1.0;fill-rule:evenodd;stroke:rgb(0, 0, 0);stroke-width:3.0;" d="M 359.806, 558.423 L 349.67, 563.642 L 349.539, 543.113 z "/>
<path style="fill:rgb(142, 62, 255);fill-opacity:1.0;fill-rule:evenodd;stroke:rgb(0, 0, 0);stroke-width:3.0;" d="M 653.841, 507.993 L 651.647, 512.599 L 639.626, 508.291 L 629.878, 496.972 z "/>
<path style="fill:rgb(142, 62, 255);fill-opacity:1.0;fill-rule:evenodd;stroke:rgb(0, 0, 0);stroke-width:3.0;" d="M 782.953, 73.3415 L 784.045, 89.9787 L 702.897, 218.132 L 687.799, 230.667 L 725.813, 105.52 L 777.089, 72.9053 z "/>
<path style="fill:rgb(142, 62, 255);fill-opacity:1.0;fill-rule:evenodd;stroke:rgb(0, 0, 0);stroke-width:3.0;" d="M 173.117, 392.287 L 182.455, 401.592 L 137.849, 403.163 L 132.061, 387.78 z "/>
<path style="fill:rgb(142, 62, 255);fill-opacity:1.0;fill-rule:evenodd;stroke:rgb(0, 0, 0);stroke-width:3.0;" d="M 484.316, 479.392 L 478.973, 511.387 L 462.433, 516.472 L 460.469, 486.134 L 462.233, 463.253 z "/>
<path style="fill:rgb(64, 255, 255);fill-opacity:1.0;fill-rule:evenodd;stroke:rgb(0, 0, 0);stroke-width:3.0;" d="M 137.265, 356.666 L 132.629, 378.015 L 128.779, 379.056 L 120.332, 356.606 L 128.229, 351.957 z "/>
<path style="fill:rgb(252, 207, 11);fill-opacity:1.0;fill-rule:evenodd;stroke:rgb(0, 0, 0);stroke-width:3.0;" d="M 81.2035, 348.547 L 84.7888, 361.604 L 71.2987, 364.871 L 71.1686, 347.196 z "/>
<path style="fill:rgb(252, 207, 11);fill-opacity:1.0;fill-rule:evenodd;stroke:rgb(0, 0, 0);stroke-width:3.0;" d="M 63.135, 255.387 L 55.0458, 265.873 L 38.0966, 273.97 L 40.1181, 254.958 z "/>
<path style="fill:rgb(252, 207, 11);fill-opacity:1.0;fill-rule:evenodd;stroke:rgb(0, 0, 0);stroke-width:3.0;" d="M 611.289, 226.845 L 557.848, 368.434 L 539.535, 404.387 L 477.583, 128.388 z "/>
<path style="fill:rgb(234, 3, 9);fill-opacity:1.0;fill-rule:evenodd;stroke:rgb(0, 0, 0);stroke-width:3.0;" d="M 669.898, 223.067 L 641.416, 232.583 L 655.479, 176.755 L 679.805, 128.998 L 719.148, 104.396 z "/>
<path style="fill:rgb(234, 3, 9);fill-opacity:1.0;fill-rule:evenodd;stroke:rgb(0, 0, 0);stroke-width:3.0;" d="M 638.693, 378.374 L 610.787, 416.558 L 557.412, 369.29 L 558.051, 368.035 z "/>
<path style="fill:rgb(234, 3, 9);fill-opacity:1.0;fill-rule:evenodd;stroke:rgb(0, 0, 0);stroke-width:3.0;" d="M 172.598, 464.336 L 167.807, 482.785 L 157.865, 456.363 L 163.698, 447.114 z "/>
<path style="fill:rgb(234, 3, 9);fill-opacity:1.0;fill-rule:evenodd;stroke:rgb(0, 0, 0);stroke-width:3.0;" d="M 542.5, 508.741 L 478.424, 573.964 L 443.041, 571.991 L 526.594, 496.766 z "/>
<path style="fill:rgb(234, 3, 9);fill-opacity:1.0;fill-rule:evenodd;stroke:rgb(0, 0, 0);stroke-width:3.0;" d="M 611.983, 262.151 L 601.003, 254.098 L 602.924, 249.007 L 619.918, 246.571 z "/>
<path style="fill:rgb(234, 3, 9);fill-opacity:1.0;fill-rule:evenodd;stroke:rgb(0, 0, 0);stroke-width:3.0;" d="M 160.495, 469.067 L 146.31, 561.676 L 120.913, 540.999 L 111.94, 457.732 z "/>
<path style="fill:rgb(234, 3, 9);fill-opacity:1.0;fill-rule:evenodd;stroke:rgb(0, 0, 0);stroke-width:3.0;" d="M 649.722, 453.551 L 598.764, 433.009 L 754.076, 220.494 z "/>
<path style="fill:rgb(209, 0, 202);fill-opacity:1.0;fill-rule:evenodd;stroke:rgb(0, 0, 0);stroke-width:3.0;" d="M 442.783, 437.737 L 456.299, 478.599 L 435.758, 458.255 L 427.718, 432.337 z "/>
<path style="fill:rgb(209, 0, 202);fill-opacity:1.0;fill-rule:evenodd;stroke:rgb(0, 0, 0);stroke-width:3.0;" d="M 699.882, 473.771 L 638.124, 483.867 L 595.096, 438.028 L 598.764, 433.009 z "/>
<path style="fill:rgb(209, 0, 202);fill-opacity:1.0;fill-rule:evenodd;stroke:rgb(0, 0, 0);stroke-width:3.0;" d="M 438.593, 539.613 L 454.966, 552.257 L 454.446, 559.591 L 425.501, 565.34 L 423.383, 536.979 L 426.229, 536.881 z "/>
<path style="fill:rgb(209, 0, 202);fill-opacity:1.0;fill-rule:evenodd;stroke:rgb(0, 0, 0);stroke-width:3.0;" d="M 345.351, 502.896 L 379.946, 548.274 L 365.168, 566.42 L 314.987, 491.587 L 315.859, 487.413 z "/>
<path style="fill:rgb(231, 187, 7);fill-opacity:1.0;fill-rule:evenodd;stroke:rgb(0, 0, 0);stroke-width:3.0;" d="M 743.066, 491.179 L 686.181, 516.583 L 707.158, 476.704 z "/>
<path style="fill:rgb(231, 187, 7);fill-opacity:1.0;fill-rule:evenodd;stroke:rgb(0, 0, 0);stroke-width:3.0;" d="M 611.983, 262.151 L 588.303, 308.642 L 580.788, 307.654 L 585.254, 295.824 L 609.941, 260.653 z "/>
<path style="fill:rgb(231, 187, 7);fill-opacity:1.0;fill-rule:evenodd;stroke:rgb(0, 0, 0);stroke-width:3.0;" d="M 782.953, 73.3415 L 710.883, 67.9814 L 727.823, 34.7241 L 779.023, 13.5095 z "/>
<path style="fill:rgb(255, 237, 17);fill-opacity:1.0;fill-rule:evenodd;stroke:rgb(0, 0, 0);stroke-width:3.0;" d="M 417.861, 540.964 L 412.408, 566.55 L 395.141, 551.225 L 411.245, 537.49 z "/>
<path style="fill:rgb(255, 237, 17);fill-opacity:1.0;fill-rule:evenodd;stroke:rgb(0, 0, 0);stroke-width:3.0;" d="M 29.2125, 275.194 L 28.0102, 289.071 L 17.0742, 285.151 L 27.0149, 271.249 z "/>
<path style="fill:rgb(255, 237, 17);fill-opacity:1.0;fill-rule:evenodd;stroke:rgb(0, 0, 0);stroke-width:3.0;" d="M 274.777, 567.065 L 153.437, 538.115 L 158.826, 517.363 L 168.532, 513.807 z "/>
<path style="fill:rgb(255, 237, 17);fill-opacity:1.0;fill-rule:evenodd;stroke:rgb(0, 0, 0);stroke-width:3.0;" d="M 232.12, 576.099 L 228.946, 578.716 L 201.54, 566.03 L 201.715, 560.74 L 213.817, 560.183 z "/>
<path style="fill:rgb(192, 25, 255);fill-opacity:1.0;fill-rule:evenodd;stroke:rgb(0, 0, 0);stroke-width:3.0;" d="M 125.236, 319.012 L 125.989, 324.189 L 91.8189, 311.942 L 89.8636, 298.917 L 107.064, 259.402 z "/>
<path style="fill:rgb(32, 33, 237);fill-opacity:1.0;fill-rule:evenodd;stroke:rgb(0, 0, 0);stroke-width:3.0;" d="M 49.9764, 296.944 L 25.0173, 324.855 L 39.4785, 293.182 z "/>
<path style="fill:rgb(255, 123, 7);fill-opacity:1.0;fill-rule:evenodd;stroke:rgb(0, 0, 0);stroke-width:3.0;" d="M 331.009, 414.88 L 328.185, 428.399 L 174.456, 486.012 L 176.155, 450.642 L 185.535, 414.523 z "/>
<path style="fill:rgb(255, 27, 165);fill-opacity:1.0;fill-rule:evenodd;stroke:rgb(0, 0, 0);stroke-width:3.0;" d="M 593.032, 491.59 L 639.09, 545.905 L 527.628, 495.835 L 549.624, 476.031 z "/>
<path style="fill:rgb(255, 89, 105);fill-opacity:1.0;fill-rule:evenodd;stroke:rgb(0, 0, 0);stroke-width:3.0;" d="M 301.118, 465.228 L 282.815, 471.934 L 235.663, 470.847 L 293.085, 446.448 z "/>
<path style="fill:rgb(152, 95, 243);fill-opacity:1.0;fill-rule:evenodd;stroke:rgb(0, 0, 0);stroke-width:3.0;" d="M 244.743, 466.989 L 235.663, 470.847 L 216.123, 470.397 L 252.435, 456.788 z "/>
<path style="fill:rgb(121, 207, 226);fill-opacity:1.0;fill-rule:evenodd;stroke:rgb(0, 0, 0);stroke-width:3.0;" d="M 82.0116, 194.335 L 81.3325, 195.285 L 25.87, 182.966 L 9.36163, 142.798 L 12.0363, 140.32 z "/>
<path style="fill:rgb(121, 207, 226);fill-opacity:1.0;fill-rule:evenodd;stroke:rgb(0, 0, 0);stroke-width:3.0;" d="M 120.913, 540.999 L 49.4754, 482.839 L 51.2789, 465.017 L 75.5006, 399.815 L 103.489, 379.313 z "/>
<path style="fill:rgb(121, 207, 226);fill-opacity:1.0;fill-rule:evenodd;stroke:rgb(0, 0, 0);stroke-width:3.0;" d="M 23.7185, 348.728 L 7.73112, 345.596 L 6.60143, 345.174 L 13.8247, 326.886 z "/>
<path style="fill:rgb(121, 207, 226);fill-opacity:1.0;fill-rule:evenodd;stroke:rgb(0, 0, 0);stroke-width:3.0;" d="M 150.921, 350.009 L 170.522, 364.445 L 147.501, 359.401 L 150.124, 349.973 z "/>
<path style="fill:rgb(121, 207, 226);fill-opacity:1.0;fill-rule:evenodd;stroke:rgb(0, 0, 0);stroke-width:3.0;" d="M 153.24, 444.07 L 104.15, 385.451 L 99.3496, 340.904 L 110.51, 330.501 z "/>
<path style="fill:rgb(121, 207, 226);fill-opacity:1.0;fill-rule:evenodd;stroke:rgb(0, 0, 0);stroke-width:3.0;" d="M 313.326, 454.403 L 306.863, 448.173 L 309.244, 435.498 L 324.929, 429.62 z "/>
<path style="fill:rgb(255, 246, 21);fill-opacity:1.0;fill-rule:evenodd;stroke:rgb(0, 0, 0);stroke-width:3.0;" d="M 588.303, 308.642 L 580.302, 324.351 L 574.944, 323.137 L 580.788, 307.654 z "/>
<path style="fill:rgb(255, 246, 21);fill-opacity:1.0;fill-rule:evenodd;stroke:rgb(0, 0, 0);stroke-width:3.0;" d="M 101.073, 239.749 L 105.91, 255.618 L 83.2434, 250.891 L 99.2957, 238.915 z "/>
<path style="fill:rgb(255, 246, 21);fill-opacity:1.0;fill-rule:evenodd;stroke:rgb(0, 0, 0);stroke-width:3.0;" d="M 169.442, 438.005 L 157.865, 456.363 L 147.97, 430.061 L 156.593, 421.365 z "/>
<path style="fill:rgb(255, 246, 21);fill-opacity:1.0;fill-rule:evenodd;stroke:rgb(0, 0, 0);stroke-width:3.0;" d="M 51.8722, 400.315 L 18.8902, 396.325 L 26.5537, 384.62 z "/>
<path style="fill:rgb(255, 246, 21);fill-opacity:1.0;fill-rule:evenodd;stroke:rgb(0, 0, 0);stroke-width:3.0;" d="M 387.524, 570.8 L 386.128, 571.334 L 370.923, 559.353 L 377.477, 551.306 z "/>
<path style="fill:rgb(255, 246, 21);fill-opacity:1.0;fill-rule:evenodd;stroke:rgb(0, 0, 0);stroke-width:3.0;" d="M 13.9868, 284.045 L 15.5975, 321.068 L 12.5821, 324.143 L 11.5267, 321.813 L 11.6344, 283.201 z "/>
<path style="fill:rgb(255, 246, 21);fill-opacity:1.0;fill-rule:evenodd;stroke:rgb(0, 0, 0);stroke-width:3.0;" d="M 112.324, 243.813 L 98.9105, 232.657 L 98.3689, 230.88 L 110.01, 225.336 z "/>
<path style="fill:rgb(255, 246, 21);fill-opacity:1.0;fill-rule:evenodd;stroke:rgb(0, 0, 0);stroke-width:3.0;" d="M 39.3062, 423.2 L 32.7621, 429.89 L 23.1754, 429.506 L 29.2506, 415.358 z "/>
<path style="fill:rgb(255, 27, 237);fill-opacity:1.0;fill-rule:evenodd;stroke:rgb(0, 0, 0);stroke-width:3.0;" d="M 687.799, 230.667 L 655.675, 257.336 L 710.472, 125.301 L 720.693, 122.376 z "/>
<path style="fill:rgb(255, 27, 237);fill-opacity:1.0;fill-rule:evenodd;stroke:rgb(0, 0, 0);stroke-width:3.0;" d="M 789.439, 172.107 L 700.073, 294.388 L 649.662, 271.825 L 655.675, 257.336 L 787.831, 147.62 z "/>
<path style="fill:rgb(255, 1, 6);fill-opacity:1.0;fill-rule:evenodd;stroke:rgb(0, 0, 0);stroke-width:3.0;" d="M 105.91, 255.618 L 107.064, 259.402 L 89.8636, 298.917 L 82.7131, 251.286 L 83.2434, 250.891 z "/>
<path style="fill:rgb(172, 4, 255);fill-opacity:1.0;fill-rule:evenodd;stroke:rgb(0, 0, 0);stroke-width:3.0;" d="M 177.326, 365.936 L 177.206, 365.968 L 134.658, 368.668 L 137.163, 357.135 z "/>
<path style="fill:rgb(255, 22, 76);fill-opacity:1.0;fill-rule:evenodd;stroke:rgb(0, 0, 0);stroke-width:3.0;" d="M 428.761, 567.455 L 437.166, 577.28 L 427.072, 586.369 L 425.623, 566.967 z "/>
<path style="fill:rgb(234, 28, 255);fill-opacity:1.0;fill-rule:evenodd;stroke:rgb(0, 0, 0);stroke-width:3.0;" d="M 89.0321, 184.517 L 82.0116, 194.335 L 78.7416, 191.811 L 58.7758, 172.75 L 59.9171, 170.266 z "/>
<path style="fill:rgb(255, 252, 8);fill-opacity:1.0;fill-rule:evenodd;stroke:rgb(0, 0, 0);stroke-width:3.0;" d="M 609.941, 260.653 L 585.254, 295.824 L 601.003, 254.098 z "/>
<path style="fill:rgb(255, 252, 8);fill-opacity:1.0;fill-rule:evenodd;stroke:rgb(0, 0, 0);stroke-width:3.0;" d="M 322.592, 578.945 L 302.295, 572.277 L 315.904, 511.712 z "/>
<path style="fill:rgb(252, 240, 42);fill-opacity:1.0;fill-rule:evenodd;stroke:rgb(0, 0, 0);stroke-width:3.0;" d="M 186.435, 411.06 L 169.442, 438.005 L 156.593, 421.365 L 166.721, 411.153 L 186.447, 411.011 z "/>
<path style="fill:rgb(252, 240, 42);fill-opacity:1.0;fill-rule:evenodd;stroke:rgb(0, 0, 0);stroke-width:3.0;" d="M 595.903, 482.302 L 589.21, 490.22 L 563.648, 481.058 L 576.872, 462.964 z "/>
<path style="fill:rgb(231, 62, 10);fill-opacity:1.0;fill-rule:evenodd;stroke:rgb(0, 0, 0);stroke-width:3.0;" d="M 561.05, 465.58 L 519.105, 444.496 L 528.748, 425.565 z "/>
<path style="fill:rgb(199, 148, 243);fill-opacity:1.0;fill-rule:evenodd;stroke:rgb(0, 0, 0);stroke-width:3.0;" d="M 698.351, 529.339 L 709.144, 546.116 L 684.821, 552.636 L 625.418, 503.198 z "/>
<path style="fill:rgb(255, 13, 42);fill-opacity:1.0;fill-rule:evenodd;stroke:rgb(0, 0, 0);stroke-width:3.0;" d="M 778.028, 451.285 L 767.691, 480.182 L 758.364, 484.347 L 742.603, 453.259 L 773.273, 444.44 z "/>
<path style="fill:rgb(255, 13, 42);fill-opacity:1.0;fill-rule:evenodd;stroke:rgb(0, 0, 0);stroke-width:3.0;" d="M 408.36, 585.544 L 407.722, 588.536 L 394.009, 583.382 L 377.477, 551.306 L 379.946, 548.274 z "/>
<path style="fill:rgb(255, 13, 42);fill-opacity:1.0;fill-rule:evenodd;stroke:rgb(0, 0, 0);stroke-width:3.0;" d="M 330.877, 407.625 L 319.557, 414.852 L 265.218, 414.718 L 263.615, 396.448 z "/>
<path style="fill:rgb(255, 13, 42);fill-opacity:1.0;fill-rule:evenodd;stroke:rgb(0, 0, 0);stroke-width:3.0;" d="M 600.539, 443.827 L 664.118, 511.559 L 663.037, 512.222 L 662.836, 512.13 L 616.667, 485.171 L 591.111, 443.481 L 593.178, 440.652 z "/>
<path style="fill:rgb(237, 9, 9);fill-opacity:1.0;fill-rule:evenodd;stroke:rgb(0, 0, 0);stroke-width:3.0;" d="M 494.006, 526.106 L 488.085, 517.885 L 489.561, 516.896 L 512.177, 509.746 z "/>
<path style="fill:rgb(234, 255, 27);fill-opacity:1.0;fill-rule:evenodd;stroke:rgb(0, 0, 0);stroke-width:3.0;" d="M 51.8722, 400.315 L 55.9545, 402.846 L 41.6881, 404.443 L 13.3069, 395.649 z "/>
<path style="fill:rgb(234, 255, 27);fill-opacity:1.0;fill-rule:evenodd;stroke:rgb(0, 0, 0);stroke-width:3.0;" d="M 26.3004, 413.057 L 21.5467, 429.441 L 20.8604, 429.414 L 14.8531, 417.973 L 18.0917, 406.656 z "/>
<path style="fill:rgb(226, 255, 49);fill-opacity:1.0;fill-rule:evenodd;stroke:rgb(0, 0, 0);stroke-width:3.0;" d="M 71.1686, 347.196 L 71.2987, 364.871 L 68.6449, 365.513 L 63.0229, 360.81 L 63.0874, 346.109 z "/>
<path style="fill:rgb(58, 226, 117);fill-opacity:1.0;fill-rule:evenodd;stroke:rgb(0, 0, 0);stroke-width:3.0;" d="M 422.896, 530.468 L 423.918, 544.144 L 396.116, 529.548 L 411.948, 520.283 z "/>
<path style="fill:rgb(58, 226, 117);fill-opacity:1.0;fill-rule:evenodd;stroke:rgb(0, 0, 0);stroke-width:3.0;" d="M 712.143, 508.129 L 753.035, 528.521 L 694.941, 520.004 L 696.039, 512.728 L 696.751, 511.863 L 705.501, 507.955 z "/>
<path style="fill:rgb(58, 226, 117);fill-opacity:1.0;fill-rule:evenodd;stroke:rgb(0, 0, 0);stroke-width:3.0;" d="M 83.3852, 255.764 L 91.8189, 311.942 L 57.8376, 299.762 L 37.9007, 275.813 L 38.0966, 273.97 L 76.4772, 255.635 z "/>
<path style="fill:rgb(58, 226, 117);fill-opacity:1.0;fill-rule:evenodd;stroke:rgb(0, 0, 0);stroke-width:3.0;" d="M 758.364, 484.347 L 743.066, 491.179 L 714.575, 479.694 L 725.708, 458.116 L 742.603, 453.259 z "/>
<path style="fill:rgb(58, 226, 117);fill-opacity:1.0;fill-rule:evenodd;stroke:rgb(0, 0, 0);stroke-width:3.0;" d="M 378.14, 536.136 L 380.586, 549.113 L 355.106, 515.691 z "/>
<path style="fill:rgb(228, 249, 59);fill-opacity:1.0;fill-rule:evenodd;stroke:rgb(0, 0, 0);stroke-width:3.0;" d="M 135.122, 422.435 L 123.394, 434.865 L 118.66, 431.231 L 123.688, 408.781 z "/>
<path style="fill:rgb(228, 249, 59);fill-opacity:1.0;fill-rule:evenodd;stroke:rgb(0, 0, 0);stroke-width:3.0;" d="M 751.351, 510.216 L 789.213, 534.706 L 781.923, 542.926 L 745.218, 524.623 L 738.793, 509.248 L 743.007, 506.886 z "/>
<path style="fill:rgb(228, 249, 59);fill-opacity:1.0;fill-rule:evenodd;stroke:rgb(0, 0, 0);stroke-width:3.0;" d="M 142.668, 431.445 L 130.628, 440.42 L 123.394, 434.865 L 135.122, 422.435 z "/>
<path style="fill:rgb(152, 37, 255);fill-opacity:1.0;fill-rule:evenodd;stroke:rgb(0, 0, 0);stroke-width:3.0;" d="M 514.436, 480.787 L 490.298, 492.662 L 492.377, 474.51 L 500.809, 460.983 z "/>
<path style="fill:rgb(249, 223, 41);fill-opacity:1.0;fill-rule:evenodd;stroke:rgb(0, 0, 0);stroke-width:3.0;" d="M 539.535, 404.387 L 510.234, 461.913 L 496.166, 456.871 L 460.543, 369.582 L 524.063, 335.459 z "/>
<path style="fill:rgb(249, 223, 41);fill-opacity:1.0;fill-rule:evenodd;stroke:rgb(0, 0, 0);stroke-width:3.0;" d="M 595.989, 580.462 L 597.559, 586.458 L 596.636, 590.955 L 572.791, 588.344 L 573.698, 585.598 L 594.247, 578.22 z "/>
<path style="fill:rgb(14, 217, 220);fill-opacity:1.0;fill-rule:evenodd;stroke:rgb(0, 0, 0);stroke-width:3.0;" d="M 18.9371, 338.173 L 12.5821, 324.143 L 36.4611, 299.791 z "/>
<path style="fill:rgb(14, 217, 220);fill-opacity:1.0;fill-rule:evenodd;stroke:rgb(0, 0, 0);stroke-width:3.0;" d="M 588.937, 397.208 L 542.03, 399.488 L 557.412, 369.29 z "/>
<path style="fill:rgb(14, 217, 220);fill-opacity:1.0;fill-rule:evenodd;stroke:rgb(0, 0, 0);stroke-width:3.0;" d="M 610.934, 475.817 L 617.486, 486.505 L 607.917, 494.509 L 584.146, 470.355 L 593.361, 469.007 z "/>
<path style="fill:rgb(142, 255, 255);fill-opacity:1.0;fill-rule:evenodd;stroke:rgb(0, 0, 0);stroke-width:3.0;" d="M 183.567, 351.462 L 189.466, 362.654 L 177.326, 365.936 L 170.522, 364.445 L 150.921, 350.009 z "/>
<path style="fill:rgb(142, 255, 255);fill-opacity:1.0;fill-rule:evenodd;stroke:rgb(0, 0, 0);stroke-width:3.0;" d="M 172.598, 464.336 L 163.698, 447.114 L 186.435, 411.06 z "/>
<path style="fill:rgb(172, 0, 255);fill-opacity:1.0;fill-rule:evenodd;stroke:rgb(0, 0, 0);stroke-width:3.0;" d="M 619.654, 233.004 L 612.774, 240.405 L 605.493, 242.2 L 611.289, 226.845 z "/>
<path style="fill:rgb(255, 249, 14);fill-opacity:1.0;fill-rule:evenodd;stroke:rgb(0, 0, 0);stroke-width:3.0;" d="M 411.245, 537.49 L 395.141, 551.225 L 355.106, 515.691 L 345.351, 502.896 z "/>
<path style="fill:rgb(255, 255, 52);fill-opacity:1.0;fill-rule:evenodd;stroke:rgb(0, 0, 0);stroke-width:3.0;" d="M 347.912, 492.288 L 332.728, 489.4 L 344.695, 477.395 z "/>
<path style="fill:rgb(255, 255, 52);fill-opacity:1.0;fill-rule:evenodd;stroke:rgb(0, 0, 0);stroke-width:3.0;" d="M 306.686, 448.002 L 306.138, 453.519 L 298.687, 459.544 L 293.085, 446.448 L 301.406, 442.913 z "/>
<path style="fill:rgb(11, 237, 246);fill-opacity:1.0;fill-rule:evenodd;stroke:rgb(0, 0, 0);stroke-width:3.0;" d="M 459.097, 493.969 L 456.817, 526.135 L 444.108, 485.17 z "/>
<path style="fill:rgb(11, 237, 246);fill-opacity:1.0;fill-rule:evenodd;stroke:rgb(0, 0, 0);stroke-width:3.0;" d="M 225.836, 384.103 L 236.985, 414.649 L 200.001, 414.559 L 188.093, 404.676 L 199.423, 361.051 z "/>
<path style="fill:rgb(11, 237, 246);fill-opacity:1.0;fill-rule:evenodd;stroke:rgb(0, 0, 0);stroke-width:3.0;" d="M 390.87, 460.061 L 322.667, 454.819 L 331.494, 412.56 z "/>
<path style="fill:rgb(11, 237, 246);fill-opacity:1.0;fill-rule:evenodd;stroke:rgb(0, 0, 0);stroke-width:3.0;" d="M 736.548, 550.634 L 741.585, 562.194 L 741.232, 563.443 L 733.828, 570.06 L 723.491, 547.838 z "/>
<path style="fill:rgb(11, 237, 246);fill-opacity:1.0;fill-rule:evenodd;stroke:rgb(0, 0, 0);stroke-width:3.0;" d="M 625.418, 503.198 L 653.639, 526.684 L 668.649, 556.971 L 652.21, 561.377 L 593.032, 491.59 z "/>
<path style="fill:rgb(32, 255, 246);fill-opacity:1.0;fill-rule:evenodd;stroke:rgb(0, 0, 0);stroke-width:3.0;" d="M 684.821, 552.636 L 668.649, 556.971 L 653.639, 526.684 z "/>
<path style="fill:rgb(7, 117, 255);fill-opacity:1.0;fill-rule:evenodd;stroke:rgb(0, 0, 0);stroke-width:3.0;" d="M 693.608, 303.233 L 686.572, 312.86 L 629.689, 257.586 z "/>
<path style="fill:rgb(194, 61, 115);fill-opacity:1.0;fill-rule:evenodd;stroke:rgb(0, 0, 0);stroke-width:3.0;" d="M 349.539, 543.113 L 349.67, 563.642 L 322.463, 577.649 L 314.252, 495.103 L 314.987, 491.587 z "/>
<path style="fill:rgb(255, 234, 9);fill-opacity:1.0;fill-rule:evenodd;stroke:rgb(0, 0, 0);stroke-width:3.0;" d="M 350.244, 471.829 L 347.623, 474.458 L 319.054, 472.117 L 321.914, 458.424 z "/>
<path style="fill:rgb(46, 92, 246);fill-opacity:1.0;fill-rule:evenodd;stroke:rgb(0, 0, 0);stroke-width:3.0;" d="M 683.635, 563.358 L 674.359, 580.517 L 664.081, 572.74 L 664.204, 572.025 L 678.803, 560.89 z "/>
<path style="fill:rgb(163, 255, 59);fill-opacity:1.0;fill-rule:evenodd;stroke:rgb(0, 0, 0);stroke-width:3.0;" d="M 97.0888, 341.702 L 96.5065, 343.27 L 82.5376, 335.799 L 84.4858, 330.756 L 94.425, 326.168 z "/>
<path style="fill:rgb(255, 5, 255);fill-opacity:1.0;fill-rule:evenodd;stroke:rgb(0, 0, 0);stroke-width:3.0;" d="M 83.3852, 255.764 L 40.1181, 254.958 L 40.372, 252.569 L 49.3925, 239.954 L 79.4657, 229.655 z "/>
<path style="fill:rgb(255, 5, 255);fill-opacity:1.0;fill-rule:evenodd;stroke:rgb(0, 0, 0);stroke-width:3.0;" d="M 650.074, 198.213 L 646.078, 214.074 L 633.783, 219.351 L 651.46, 184.646 z "/>
<path style="fill:rgb(29, 37, 255);fill-opacity:1.0;fill-rule:evenodd;stroke:rgb(0, 0, 0);stroke-width:3.0;" d="M 559.753, 521.73 L 558.665, 578.436 L 478.424, 573.964 L 542.5, 508.741 z "/>
<path style="fill:rgb(237, 36, 13);fill-opacity:1.0;fill-rule:evenodd;stroke:rgb(0, 0, 0);stroke-width:3.0;" d="M 777.089, 72.9053 L 725.813, 105.52 L 736.634, 69.8966 z "/>
<path style="fill:rgb(199, 19, 255);fill-opacity:1.0;fill-rule:evenodd;stroke:rgb(0, 0, 0);stroke-width:3.0;" d="M 53.7674, 294.873 L 53.5615, 298.229 L 28.0102, 289.071 L 29.9045, 267.208 L 30.2895, 266.67 z "/>
<path style="fill:rgb(199, 19, 255);fill-opacity:1.0;fill-rule:evenodd;stroke:rgb(0, 0, 0);stroke-width:3.0;" d="M 454.442, 559.648 L 444.595, 569.913 L 434.454, 568.338 L 432.582, 563.933 L 454.446, 559.591 z "/>
<path style="fill:rgb(148, 107, 255);fill-opacity:1.0;fill-rule:evenodd;stroke:rgb(0, 0, 0);stroke-width:3.0;" d="M 477.583, 128.388 L 524.063, 335.459 L 460.543, 369.582 L 312.496, 6.82367 z "/>
<path style="fill:rgb(148, 107, 255);fill-opacity:1.0;fill-rule:evenodd;stroke:rgb(0, 0, 0);stroke-width:3.0;" d="M 744.675, 27.7417 L 727.823, 34.7241 L 740.606, 9.62759 z "/>
<path style="fill:rgb(148, 107, 255);fill-opacity:1.0;fill-rule:evenodd;stroke:rgb(0, 0, 0);stroke-width:3.0;" d="M 415.232, 427.862 L 416.871, 449.796 L 412.293, 448.636 L 404.718, 424.093 z "/>
<path style="fill:rgb(255, 22, 220);fill-opacity:1.0;fill-rule:evenodd;stroke:rgb(0, 0, 0);stroke-width:3.0;" d="M 86.1639, 109.928 L 96.4496, 121.162 L 102.855, 165.186 L 89.0321, 184.517 L 43.3434, 162.154 L 69.0597, 106.541 z "/>
<path style="fill:rgb(255, 146, 47);fill-opacity:1.0;fill-rule:evenodd;stroke:rgb(0, 0, 0);stroke-width:3.0;" d="M 605.656, 467.208 L 587.768, 469.825 L 576.915, 462.905 L 591.111, 443.481 z "/>
<path style="fill:rgb(255, 146, 47);fill-opacity:1.0;fill-rule:evenodd;stroke:rgb(0, 0, 0);stroke-width:3.0;" d="M 473.406, 580.124 L 465.378, 586.828 L 449.916, 578.228 L 472.01, 574.141 z "/>
<path style="fill:rgb(41, 255, 81);fill-opacity:1.0;fill-rule:evenodd;stroke:rgb(0, 0, 0);stroke-width:3.0;" d="M 330.523, 473.057 L 334.501, 487.622 L 332.728, 489.4 L 316.104, 486.237 L 319.054, 472.117 z "/>
<path style="fill:rgb(28, 12, 255);fill-opacity:1.0;fill-rule:evenodd;stroke:rgb(0, 0, 0);stroke-width:3.0;" d="M 421.084, 506.209 L 421.506, 511.858 L 380.757, 521.484 L 374.58, 518.241 L 381.392, 498.658 z "/>
<path style="fill:rgb(38, 182, 237);fill-opacity:1.0;fill-rule:evenodd;stroke:rgb(0, 0, 0);stroke-width:3.0;" d="M 370.475, 411.82 L 404.718, 424.093 L 405.906, 427.943 L 405.378, 442.829 L 356.92, 432.901 L 331.494, 412.56 L 332.261, 408.887 z "/>
<path style="fill:rgb(35, 15, 215);fill-opacity:1.0;fill-rule:evenodd;stroke:rgb(0, 0, 0);stroke-width:3.0;" d="M 370.475, 411.82 L 332.261, 408.887 L 334.353, 398.873 z "/>
<path style="fill:rgb(255, 249, 8);fill-opacity:1.0;fill-rule:evenodd;stroke:rgb(0, 0, 0);stroke-width:3.0;" d="M 110.51, 330.501 L 99.3496, 340.904 L 98.908, 336.805 L 105.85, 318.117 z "/>
<path style="fill:rgb(255, 249, 8);fill-opacity:1.0;fill-rule:evenodd;stroke:rgb(0, 0, 0);stroke-width:3.0;" d="M 92.5776, 387.306 L 75.5006, 399.815 L 88.7829, 364.061 z "/>
<path style="fill:rgb(255, 157, 231);fill-opacity:1.0;fill-rule:evenodd;stroke:rgb(0, 0, 0);stroke-width:3.0;" d="M 125.807, 63.9754 L 90.3673, 79.3583 L 88.304, 65.1774 L 127.795, 59.3017 z "/>
<path style="fill:rgb(255, 157, 231);fill-opacity:1.0;fill-rule:evenodd;stroke:rgb(0, 0, 0);stroke-width:3.0;" d="M 44.8324, 416.137 L 53.9229, 430.738 L 48.7035, 430.529 L 34.9915, 419.835 L 33.686, 413.058 L 35.8061, 411.094 z "/>
<path style="fill:rgb(255, 8, 114);fill-opacity:1.0;fill-rule:evenodd;stroke:rgb(0, 0, 0);stroke-width:3.0;" d="M 390.87, 460.061 L 419.339, 482.837 L 421.018, 505.318 L 321.914, 458.424 L 322.667, 454.819 z "/>
<path style="fill:rgb(249, 117, 20);fill-opacity:1.0;fill-rule:evenodd;stroke:rgb(0, 0, 0);stroke-width:3.0;" d="M 110.01, 225.336 L 98.3689, 230.88 L 94.0859, 216.83 L 107.971, 209.056 z "/>
<path style="fill:rgb(249, 117, 20);fill-opacity:1.0;fill-rule:evenodd;stroke:rgb(0, 0, 0);stroke-width:3.0;" d="M 494.466, 456.262 L 491.624, 481.078 L 487.68, 481.851 L 462.233, 463.253 L 463.624, 445.207 z "/>
<path style="fill:rgb(252, 24, 24);fill-opacity:1.0;fill-rule:evenodd;stroke:rgb(0, 0, 0);stroke-width:3.0;" d="M 645.866, 587.231 L 629.017, 583.711 L 626.552, 568.255 L 626.865, 568.171 z "/>
<path style="fill:rgb(255, 237, 30);fill-opacity:1.0;fill-rule:evenodd;stroke:rgb(0, 0, 0);stroke-width:3.0;" d="M 103.489, 379.313 L 93.2803, 386.791 L 100.528, 351.84 z "/>
<path style="fill:rgb(255, 157, 8);fill-opacity:1.0;fill-rule:evenodd;stroke:rgb(0, 0, 0);stroke-width:3.0;" d="M 411.503, 446.077 L 418.218, 467.834 L 419.339, 482.837 L 370.12, 443.461 z "/>
<path style="fill:rgb(50, 255, 168);fill-opacity:1.0;fill-rule:evenodd;stroke:rgb(0, 0, 0);stroke-width:3.0;" d="M 707.158, 476.704 L 686.181, 516.583 L 675.754, 521.24 L 671.914, 519.863 L 638.124, 483.867 L 699.882, 473.771 z "/>
<path style="fill:rgb(246, 2, 255);fill-opacity:1.0;fill-rule:evenodd;stroke:rgb(0, 0, 0);stroke-width:3.0;" d="M 736.634, 69.8966 L 720.693, 122.376 L 710.472, 125.301 L 733.561, 69.6681 z "/>
<path style="fill:rgb(228, 78, 79);fill-opacity:1.0;fill-rule:evenodd;stroke:rgb(0, 0, 0);stroke-width:3.0;" d="M 367.381, 237.865 L 148.754, 332.349 L 125.989, 324.189 L 97.7334, 129.986 L 140.297, 29.9028 z "/>
<path style="fill:rgb(228, 78, 79);fill-opacity:1.0;fill-rule:evenodd;stroke:rgb(0, 0, 0);stroke-width:3.0;" d="M 112.324, 243.813 L 115.188, 266.681 L 102.505, 244.447 L 98.9105, 232.657 z "/>
<path style="fill:rgb(228, 78, 79);fill-opacity:1.0;fill-rule:evenodd;stroke:rgb(0, 0, 0);stroke-width:3.0;" d="M 754.935, 568.76 L 767.659, 578.031 L 754.569, 580.203 L 749.641, 567.111 z "/>
<path style="fill:rgb(60, 255, 199);fill-opacity:1.0;fill-rule:evenodd;stroke:rgb(0, 0, 0);stroke-width:3.0;" d="M 639.09, 545.905 L 652.21, 561.377 L 622.864, 569.244 L 559.939, 521.87 L 540.19, 501.477 z "/>
<path style="fill:rgb(255, 170, 12);fill-opacity:1.0;fill-rule:evenodd;stroke:rgb(0, 0, 0);stroke-width:3.0;" d="M 514.504, 480.886 L 495.82, 505.609 L 488.28, 510.281 L 489.574, 498.983 L 509.728, 483.102 L 514.436, 480.787 z "/>
<path style="fill:rgb(228, 170, 11);fill-opacity:1.0;fill-rule:evenodd;stroke:rgb(0, 0, 0);stroke-width:3.0;" d="M 381.392, 498.658 L 374.58, 518.241 L 324.972, 492.197 L 324.138, 487.766 z "/>
<path style="fill:rgb(240, 71, 15);fill-opacity:1.0;fill-rule:evenodd;stroke:rgb(0, 0, 0);stroke-width:3.0;" d="M 427.718, 432.337 L 453.527, 515.53 L 431.329, 526.87 L 425.053, 529.157 L 422.661, 527.31 L 415.232, 427.862 z "/>
<path style="fill:rgb(252, 42, 16);fill-opacity:1.0;fill-rule:evenodd;stroke:rgb(0, 0, 0);stroke-width:3.0;" d="M 79.4657, 229.655 L 49.3925, 239.954 L 75.5252, 203.407 z "/>
<path style="fill:rgb(255, 19, 128);fill-opacity:1.0;fill-rule:evenodd;stroke:rgb(0, 0, 0);stroke-width:3.0;" d="M 311.235, 509.548 L 304.264, 464.075 L 322.098, 457.541 z "/>
<path style="fill:rgb(255, 19, 128);fill-opacity:1.0;fill-rule:evenodd;stroke:rgb(0, 0, 0);stroke-width:3.0;" d="M 714.575, 479.694 L 687.966, 468.968 L 725.708, 458.116 z "/>
<path style="fill:rgb(189, 226, 234);fill-opacity:1.0;fill-rule:evenodd;stroke:rgb(0, 0, 0);stroke-width:3.0;" d="M 790.903, 469.815 L 767.691, 480.182 L 778.028, 451.285 z "/>
<path style="fill:rgb(121, 0, 215);fill-opacity:1.0;fill-rule:evenodd;stroke:rgb(0, 0, 0);stroke-width:3.0;" d="M 160.493, 463.347 L 161.117, 465.005 L 160.495, 469.067 L 111.94, 457.732 L 108.22, 423.217 z "/>
<path style="fill:rgb(66, 202, 91);fill-opacity:1.0;fill-rule:evenodd;stroke:rgb(0, 0, 0);stroke-width:3.0;" d="M 99.1258, 126.712 L 92.4681, 93.7972 L 90.3673, 79.3583 L 125.807, 63.9754 z "/>
<path style="fill:rgb(240, 252, 23);fill-opacity:1.0;fill-rule:evenodd;stroke:rgb(0, 0, 0);stroke-width:3.0;" d="M 285.282, 381.284 L 334.353, 398.873 L 332.47, 407.89 L 263.615, 396.448 L 262.169, 379.953 z "/>
<path style="fill:rgb(252, 42, 10);fill-opacity:1.0;fill-rule:evenodd;stroke:rgb(0, 0, 0);stroke-width:3.0;" d="M 609.202, 415.155 L 598.94, 416.61 L 538.362, 406.69 L 539.04, 405.359 L 589.964, 398.117 z "/>
<path style="fill:rgb(168, 3, 255);fill-opacity:1.0;fill-rule:evenodd;stroke:rgb(0, 0, 0);stroke-width:3.0;" d="M 609.487, 418.337 L 576.458, 463.531 L 574, 454.07 L 588.254, 414.86 z "/>
<path style="fill:rgb(255, 43, 17);fill-opacity:1.0;fill-rule:evenodd;stroke:rgb(0, 0, 0);stroke-width:3.0;" d="M 588.254, 414.86 L 574, 454.07 L 562.729, 410.68 z "/>
<path style="fill:rgb(240, 252, 25);fill-opacity:1.0;fill-rule:evenodd;stroke:rgb(0, 0, 0);stroke-width:3.0;" d="M 173.117, 392.287 L 132.061, 387.78 L 128.779, 379.056 L 153.211, 372.453 z "/>
<path style="fill:rgb(252, 23, 56);fill-opacity:1.0;fill-rule:evenodd;stroke:rgb(0, 0, 0);stroke-width:3.0;" d="M 285.177, 449.809 L 244.743, 466.989 L 252.435, 456.788 L 259.404, 454.177 L 282.56, 448.453 z "/>
<path style="fill:rgb(255, 76, 215);fill-opacity:1.0;fill-rule:evenodd;stroke:rgb(0, 0, 0);stroke-width:3.0;" d="M 215.704, 356.346 L 218.063, 362.81 L 209.898, 368.013 L 199.785, 359.654 L 201.927, 351.408 z "/>
<path style="fill:rgb(255, 255, 27);fill-opacity:1.0;fill-rule:evenodd;stroke:rgb(0, 0, 0);stroke-width:3.0;" d="M 381.186, 567.44 L 386.128, 571.334 L 372.069, 576.711 L 365.322, 566.65 z "/>
<path style="fill:rgb(240, 0, 22);fill-opacity:1.0;fill-rule:evenodd;stroke:rgb(0, 0, 0);stroke-width:3.0;" d="M 39.4785, 293.182 L 36.4611, 299.791 L 15.5975, 321.068 L 13.9868, 284.045 z "/>
<path style="fill:rgb(240, 0, 22);fill-opacity:1.0;fill-rule:evenodd;stroke:rgb(0, 0, 0);stroke-width:3.0;" d="M 589.964, 398.117 L 541.061, 405.072 L 549.843, 399.108 L 588.937, 397.208 z "/>
<path style="fill:rgb(249, 86, 6);fill-opacity:1.0;fill-rule:evenodd;stroke:rgb(0, 0, 0);stroke-width:3.0;" d="M 100.528, 351.84 L 98.1077, 363.512 L 90.2415, 360.134 L 98.908, 336.805 z "/>
<path style="fill:rgb(136, 170, 255);fill-opacity:1.0;fill-rule:evenodd;stroke:rgb(0, 0, 0);stroke-width:3.0;" d="M 247.812, 367.854 L 254.101, 414.691 L 236.985, 414.649 L 215.704, 356.346 z "/>
<path style="fill:rgb(255, 255, 57);fill-opacity:1.0;fill-rule:evenodd;stroke:rgb(0, 0, 0);stroke-width:3.0;" d="M 261.539, 372.774 L 265.218, 414.718 L 254.101, 414.691 L 247.812, 367.854 z "/>
<path style="fill:rgb(255, 179, 37);fill-opacity:1.0;fill-rule:evenodd;stroke:rgb(0, 0, 0);stroke-width:3.0;" d="M 98.1077, 363.512 L 93.2803, 386.791 L 92.5776, 387.306 L 89.8548, 370.626 L 92.3342, 361.033 z "/>
<path style="fill:rgb(226, 14, 19);fill-opacity:1.0;fill-rule:evenodd;stroke:rgb(0, 0, 0);stroke-width:3.0;" d="M 400.879, 223.389 L 367.381, 237.865 L 247.744, 128.302 L 347.009, 91.3926 z "/>
<path style="fill:rgb(249, 255, 44);fill-opacity:1.0;fill-rule:evenodd;stroke:rgb(0, 0, 0);stroke-width:3.0;" d="M 410.847, 443.95 L 411.503, 446.077 L 383.667, 444.318 L 376.418, 436.896 z "/>
</svg>