<?xml version="1.0" encoding="iso-8859-1" standalone="no"?>
<!DOCTYPE svg PUBLIC "-//W3C//DTD SVG 1.0//EN" "http://www.w3.org/TR/2001/REC-SVG-20010904/DTD/svg10.dtd">
<svg xmlns="http://www.w3.org/2000/svg" width="800" height="600">
<path style="fill:rgb(0, 0, 0);fill-opacity:0.0;fill-rule:evenodd;stroke:rgb(0, 0, 0);stroke-width:0.0;" d="M 0, 600 L 800, 600 L 800, 0 L 0, 0 z "/>
<path style="fill:rgb(255, 56, 102);fill-opacity:1.0;fill-rule:evenodd;stroke:rgb(0, 0, 0);stroke-width:3.0;" d="M 753.85, 81.1355 L 730.028, 118.547 L 457.793, 359.76 L 120.174, 513.588 L 721.348, 19.8019 z "/>
<path style="fill:rgb(58, 105, 202);fill-opacity:1.0;fill-rule:evenodd;stroke:rgb(0, 0, 0);stroke-width:3.0;" d="M 589.495, 448.374 L 539.916, 456.454 L 586.022, 443.151 z "/>
<path style="fill:rgb(58, 105, 202);fill-opacity:1.0;fill-rule:evenodd;stroke:rgb(0, 0, 0);stroke-width:3.0;" d="M 610.189, 306.749 L 457.776, 359.775 L 730.028, 118.547 z "/>
<path style="fill:rgb(255, 172, 6);fill-opacity:1.0;fill-rule:evenodd;stroke:rgb(0, 0, 0);stroke-width:3.0;" d="M 58.2264, 469.124 L 32.4354, 493.269 L 32.0401, 493.45 L 42.2399, 476.384 L 57.8456, 468.842 z "/>
<path style="fill:rgb(255, 172, 6);fill-opacity:1.0;fill-rule:evenodd;stroke:rgb(0, 0, 0);stroke-width:3.0;" d="M 98.129, 531.695 L 92.3348, 536.454 L 78.9843, 533.701 L 70.5385, 525.181 z "/>
<path style="fill:rgb(223, 121, 252);fill-opacity:1.0;fill-rule:evenodd;stroke:rgb(0, 0, 0);stroke-width:3.0;" d="M 71.8518, 78.0842 L 65.2545, 65.9649 L 95.1839, 24.8843 z "/>
<path style="fill:rgb(223, 121, 252);fill-opacity:1.0;fill-rule:evenodd;stroke:rgb(0, 0, 0);stroke-width:3.0;" d="M 149.169, 455.664 L 144.037, 465.383 L 96.6515, 461.999 L 87.2851, 420.503 L 116.628, 407.739 z "/>
<path style="fill:rgb(223, 121, 252);fill-opacity:1.0;fill-rule:evenodd;stroke:rgb(0, 0, 0);stroke-width:3.0;" d="M 173.425, 274.707 L 146.456, 296.947 L 124.495, 272.189 L 161.167, 264.892 z "/>
<path style="fill:rgb(255, 223, 14);fill-opacity:1.0;fill-rule:evenodd;stroke:rgb(0, 0, 0);stroke-width:3.0;" d="M 79.336, 335.135 L 157.716, 439.48 L 149.169, 455.664 L 64.9682, 331.657 z "/>
<path style="fill:rgb(17, 61, 226);fill-opacity:1.0;fill-rule:evenodd;stroke:rgb(0, 0, 0);stroke-width:3.0;" d="M 57.3614, 459.193 L 44.2166, 465.36 L 15.8441, 473.037 L 11.0833, 455.887 z "/>
<path style="fill:rgb(255, 223, 30);fill-opacity:1.0;fill-rule:evenodd;stroke:rgb(0, 0, 0);stroke-width:3.0;" d="M 214.984, 381.815 L 220.796, 392.335 L 231.002, 422.557 L 220.42, 431.249 L 205.708, 378.608 z "/>
<path style="fill:rgb(255, 223, 30);fill-opacity:1.0;fill-rule:evenodd;stroke:rgb(0, 0, 0);stroke-width:3.0;" d="M 26.9169, 53.9263 L 26.0969, 54.5644 L 10.3047, 38.6751 L 9.83731, 37.7178 L 21.177, 21.751 z "/>
<path style="fill:rgb(14, 3, 182);fill-opacity:1.0;fill-rule:evenodd;stroke:rgb(0, 0, 0);stroke-width:3.0;" d="M 360.42, 446.036 L 336.456, 467.27 L 330.888, 464.066 L 321.119, 452.97 L 320.472, 443.159 z "/>
<path style="fill:rgb(14, 3, 182);fill-opacity:1.0;fill-rule:evenodd;stroke:rgb(0, 0, 0);stroke-width:3.0;" d="M 744.515, 417.637 L 744.156, 417.76 L 722.157, 374.534 L 750.086, 363.23 z "/>
<path style="fill:rgb(14, 3, 182);fill-opacity:1.0;fill-rule:evenodd;stroke:rgb(0, 0, 0);stroke-width:3.0;" d="M 246.189, 403.871 L 233.38, 407.899 L 227.047, 384.593 L 236.883, 379.718 z "/>
<path style="fill:rgb(14, 3, 182);fill-opacity:1.0;fill-rule:evenodd;stroke:rgb(0, 0, 0);stroke-width:3.0;" d="M 58.7385, 516.26 L 58.3868, 522.034 L 56.0873, 523.165 L 38.6584, 520.841 L 38.9071, 519.016 L 52.152, 515.471 z "/>
<path style="fill:rgb(14, 249, 255);fill-opacity:1.0;fill-rule:evenodd;stroke:rgb(0, 0, 0);stroke-width:3.0;" d="M 330.888, 464.066 L 304.24, 448.735 L 313, 443.746 z "/>
<path style="fill:rgb(14, 249, 255);fill-opacity:1.0;fill-rule:evenodd;stroke:rgb(0, 0, 0);stroke-width:3.0;" d="M 564.096, 348.699 L 564.263, 368.051 L 525.443, 342.093 L 527.309, 340.574 z "/>
<path style="fill:rgb(14, 249, 255);fill-opacity:1.0;fill-rule:evenodd;stroke:rgb(0, 0, 0);stroke-width:3.0;" d="M 144.843, 539.513 L 37.3058, 581.653 L 64.2172, 559.549 L 161.537, 530.006 z "/>
<path style="fill:rgb(14, 249, 255);fill-opacity:1.0;fill-rule:evenodd;stroke:rgb(0, 0, 0);stroke-width:3.0;" d="M 182.137, 271.159 L 190.951, 278.985 L 169.175, 287.688 L 168.456, 278.805 L 179.018, 270.096 z "/>
<path style="fill:rgb(14, 249, 255);fill-opacity:1.0;fill-rule:evenodd;stroke:rgb(0, 0, 0);stroke-width:3.0;" d="M 181.303, 405.051 L 181.5, 416.436 L 177.669, 421.826 L 171.943, 412.54 L 179.353, 398.508 z "/>
<path style="fill:rgb(14, 249, 255);fill-opacity:1.0;fill-rule:evenodd;stroke:rgb(0, 0, 0);stroke-width:3.0;" d="M 452.977, 364.027 L 291.062, 456.239 L 293.88, 434.443 L 457.793, 359.76 z "/>
<path style="fill:rgb(240, 65, 27);fill-opacity:1.0;fill-rule:evenodd;stroke:rgb(0, 0, 0);stroke-width:3.0;" d="M 774.648, 389.86 L 757.661, 368.636 L 785.664, 366.431 z "/>
<path style="fill:rgb(240, 65, 27);fill-opacity:1.0;fill-rule:evenodd;stroke:rgb(0, 0, 0);stroke-width:3.0;" d="M 282.557, 533.032 L 285.258, 551.368 L 204.78, 583.941 L 270.192, 525.983 z "/>
<path style="fill:rgb(240, 65, 27);fill-opacity:1.0;fill-rule:evenodd;stroke:rgb(0, 0, 0);stroke-width:3.0;" d="M 720.67, 371.426 L 720.028, 375.396 L 651.106, 403.292 L 703.539, 322.159 z "/>
<path style="fill:rgb(240, 65, 27);fill-opacity:1.0;fill-rule:evenodd;stroke:rgb(0, 0, 0);stroke-width:3.0;" d="M 291.062, 456.239 L 266.348, 470.315 L 244.765, 456.821 L 293.88, 434.443 z "/>
<path style="fill:rgb(255, 246, 17);fill-opacity:1.0;fill-rule:evenodd;stroke:rgb(0, 0, 0);stroke-width:3.0;" d="M 505.214, 366.886 L 486.846, 398.219 L 376.882, 442.669 L 360.846, 445.659 L 457.776, 359.775 L 482.665, 351.116 z "/>
<path style="fill:rgb(255, 246, 17);fill-opacity:1.0;fill-rule:evenodd;stroke:rgb(0, 0, 0);stroke-width:3.0;" d="M 260.337, 245.157 L 259.763, 245.271 L 242.638, 189.85 L 289.855, 189.261 z "/>
<path style="fill:rgb(255, 39, 15);fill-opacity:1.0;fill-rule:evenodd;stroke:rgb(0, 0, 0);stroke-width:3.0;" d="M 54.0645, 25.6622 L 51.6502, 32.0375 L 43.3402, 29.8965 L 51.3096, 10.9522 z "/>
<path style="fill:rgb(255, 39, 15);fill-opacity:1.0;fill-rule:evenodd;stroke:rgb(0, 0, 0);stroke-width:3.0;" d="M 534.634, 413.385 L 496.096, 430.934 L 493.474, 427.54 L 494.386, 420.76 L 534.796, 413.226 z "/>
<path style="fill:rgb(255, 39, 15);fill-opacity:1.0;fill-rule:evenodd;stroke:rgb(0, 0, 0);stroke-width:3.0;" d="M 194.919, 427.123 L 190.324, 429.125 L 180.871, 395.633 L 181.451, 394.536 z "/>
<path style="fill:rgb(255, 39, 15);fill-opacity:1.0;fill-rule:evenodd;stroke:rgb(0, 0, 0);stroke-width:3.0;" d="M 534.17, 426.133 L 513.201, 450.878 L 512.524, 435.132 L 555.115, 393.24 z "/>
<path style="fill:rgb(45, 172, 255);fill-opacity:1.0;fill-rule:evenodd;stroke:rgb(0, 0, 0);stroke-width:3.0;" d="M 103.291, 527.456 L 102.078, 528.452 L 95.2477, 524.045 L 87.8953, 510.746 L 90.042, 506.464 L 90.7241, 506.129 z "/>
<path style="fill:rgb(74, 31, 209);fill-opacity:1.0;fill-rule:evenodd;stroke:rgb(0, 0, 0);stroke-width:3.0;" d="M 270.614, 243.676 L 261.959, 293.024 L 253.338, 313.469 L 253.958, 257.235 L 262.409, 241.233 z "/>
<path style="fill:rgb(74, 31, 209);fill-opacity:1.0;fill-rule:evenodd;stroke:rgb(0, 0, 0);stroke-width:3.0;" d="M 310.452, 357.299 L 305.226, 361.592 L 252.413, 397.231 L 252.945, 349.06 L 300.85, 293.929 z "/>
<path style="fill:rgb(74, 31, 209);fill-opacity:1.0;fill-rule:evenodd;stroke:rgb(0, 0, 0);stroke-width:3.0;" d="M 186.227, 505.484 L 189.817, 513.9 L 173.059, 523.444 L 105.174, 525.908 L 120.174, 513.588 L 152.883, 498.685 z "/>
<path style="fill:rgb(150, 150, 255);fill-opacity:1.0;fill-rule:evenodd;stroke:rgb(0, 0, 0);stroke-width:3.0;" d="M 637.608, 435.256 L 603.896, 453.554 L 580.3, 431.951 L 592.789, 426.896 z "/>
<path style="fill:rgb(150, 150, 255);fill-opacity:1.0;fill-rule:evenodd;stroke:rgb(0, 0, 0);stroke-width:3.0;" d="M 569.096, 371.283 L 555.115, 393.24 L 550.037, 398.235 L 521.598, 378.344 L 557.565, 363.573 z "/>
<path style="fill:rgb(150, 150, 255);fill-opacity:1.0;fill-rule:evenodd;stroke:rgb(0, 0, 0);stroke-width:3.0;" d="M 211.33, 337.957 L 200.859, 357.785 L 185.504, 338.366 L 202.521, 335.068 z "/>
<path style="fill:rgb(150, 150, 255);fill-opacity:1.0;fill-rule:evenodd;stroke:rgb(0, 0, 0);stroke-width:3.0;" d="M 197.69, 363.784 L 161.944, 431.473 L 130.638, 357.871 L 134.303, 348.44 z "/>
<path style="fill:rgb(204, 199, 255);fill-opacity:1.0;fill-rule:evenodd;stroke:rgb(0, 0, 0);stroke-width:3.0;" d="M 203.849, 317.353 L 170.789, 307.635 L 169.175, 287.688 L 191.681, 278.694 z "/>
<path style="fill:rgb(204, 199, 255);fill-opacity:1.0;fill-rule:evenodd;stroke:rgb(0, 0, 0);stroke-width:3.0;" d="M 313.663, 17.6049 L 303.926, 58.2777 L 274.528, 95.7564 L 226.052, 56.6271 L 242.981, 16.3132 z "/>
<path style="fill:rgb(204, 199, 255);fill-opacity:1.0;fill-rule:evenodd;stroke:rgb(0, 0, 0);stroke-width:3.0;" d="M 26.9987, 556.509 L 31.8899, 567.272 L 9.10693, 557.954 L 12.0462, 555.521 z "/>
<path style="fill:rgb(204, 199, 255);fill-opacity:1.0;fill-rule:evenodd;stroke:rgb(0, 0, 0);stroke-width:3.0;" d="M 792.646, 513.036 L 711.052, 555.335 L 573.424, 470.092 L 728.072, 386.157 z "/>
<path style="fill:rgb(204, 199, 255);fill-opacity:1.0;fill-rule:evenodd;stroke:rgb(0, 0, 0);stroke-width:3.0;" d="M 431.389, 545.015 L 428.927, 548.518 L 371.413, 579.733 L 367.422, 558.121 L 402.602, 503.873 L 452.796, 483.557 z "/>
<path style="fill:rgb(240, 58, 75);fill-opacity:1.0;fill-rule:evenodd;stroke:rgb(0, 0, 0);stroke-width:3.0;" d="M 276.954, 97.7145 L 237.901, 174.52 L 193.306, 30.1954 z "/>
<path style="fill:rgb(240, 58, 75);fill-opacity:1.0;fill-rule:evenodd;stroke:rgb(0, 0, 0);stroke-width:3.0;" d="M 330.593, 507.307 L 308.686, 511.205 L 310.067, 490.651 L 323.142, 479.066 z "/>
<path style="fill:rgb(240, 58, 75);fill-opacity:1.0;fill-rule:evenodd;stroke:rgb(0, 0, 0);stroke-width:3.0;" d="M 319.896, 132.376 L 289.855, 189.261 L 242.638, 189.85 L 237.901, 174.52 L 276.954, 97.7145 z "/>
<path style="fill:rgb(255, 2, 34);fill-opacity:1.0;fill-rule:evenodd;stroke:rgb(0, 0, 0);stroke-width:3.0;" d="M 238.884, 485.956 L 206.641, 504.319 L 202.414, 486.502 L 237.5, 480.629 z "/>
<path style="fill:rgb(255, 2, 34);fill-opacity:1.0;fill-rule:evenodd;stroke:rgb(0, 0, 0);stroke-width:3.0;" d="M 366.935, 291.32 L 361.985, 295.955 L 356.384, 298.804 L 354.414, 292.709 L 369.873, 276.898 L 374.039, 275.46 z "/>
<path style="fill:rgb(255, 4, 22);fill-opacity:1.0;fill-rule:evenodd;stroke:rgb(0, 0, 0);stroke-width:3.0;" d="M 359.796, 505.777 L 356.035, 518.964 L 352.636, 524.097 L 336.721, 530.538 L 323.142, 479.066 L 354.418, 451.355 z "/>
<path style="fill:rgb(255, 4, 22);fill-opacity:1.0;fill-rule:evenodd;stroke:rgb(0, 0, 0);stroke-width:3.0;" d="M 200.834, 479.843 L 183.117, 498.193 L 178.373, 487.071 L 200.191, 477.13 z "/>
<path style="fill:rgb(255, 4, 22);fill-opacity:1.0;fill-rule:evenodd;stroke:rgb(0, 0, 0);stroke-width:3.0;" d="M 336.456, 467.27 L 293.54, 505.295 L 147.948, 537.745 L 304.24, 448.735 z "/>
<path style="fill:rgb(255, 0, 62);fill-opacity:1.0;fill-rule:evenodd;stroke:rgb(0, 0, 0);stroke-width:3.0;" d="M 171.828, 424.502 L 159.625, 444.86 L 156.147, 442.451 L 168.031, 419.948 z "/>
<path style="fill:rgb(255, 252, 78);fill-opacity:1.0;fill-rule:evenodd;stroke:rgb(0, 0, 0);stroke-width:3.0;" d="M 564.452, 474.962 L 540.69, 487.859 L 524.101, 459.031 L 553.775, 454.195 z "/>
<path style="fill:rgb(255, 252, 78);fill-opacity:1.0;fill-rule:evenodd;stroke:rgb(0, 0, 0);stroke-width:3.0;" d="M 227.298, 307.72 L 219.743, 322.025 L 203.849, 317.353 L 191.681, 278.694 L 228.12, 264.131 z "/>
<path style="fill:rgb(255, 19, 19);fill-opacity:1.0;fill-rule:evenodd;stroke:rgb(0, 0, 0);stroke-width:3.0;" d="M 11.0833, 455.887 L 19.3632, 485.714 L 10.778, 479.29 L 5.19538, 455.467 z "/>
<path style="fill:rgb(44, 240, 255);fill-opacity:1.0;fill-rule:evenodd;stroke:rgb(0, 0, 0);stroke-width:3.0;" d="M 29.7201, 570.839 L 11.3033, 577.582 L 12.1386, 563.156 z "/>
<path style="fill:rgb(44, 240, 255);fill-opacity:1.0;fill-rule:evenodd;stroke:rgb(0, 0, 0);stroke-width:3.0;" d="M 725.04, 380.2 L 725.589, 387.505 L 674.432, 415.271 L 593.16, 426.745 L 722.157, 374.534 z "/>
<path style="fill:rgb(44, 240, 255);fill-opacity:1.0;fill-rule:evenodd;stroke:rgb(0, 0, 0);stroke-width:3.0;" d="M 114.48, 291.084 L 119.505, 315.544 L 108.532, 321.389 L 108.002, 320.594 L 99.0772, 286.557 z "/>
<path style="fill:rgb(184, 6, 255);fill-opacity:1.0;fill-rule:evenodd;stroke:rgb(0, 0, 0);stroke-width:3.0;" d="M 370.43, 497.229 L 360.442, 512.31 L 359.004, 497.755 L 363.443, 482.672 L 366.901, 481.627 z "/>
<path style="fill:rgb(184, 6, 255);fill-opacity:1.0;fill-rule:evenodd;stroke:rgb(0, 0, 0);stroke-width:3.0;" d="M 80.9858, 494.331 L 89.0442, 501.233 L 74.6926, 504.886 L 70.9485, 488.911 z "/>
<path style="fill:rgb(231, 83, 252);fill-opacity:1.0;fill-rule:evenodd;stroke:rgb(0, 0, 0);stroke-width:3.0;" d="M 216.68, 417.865 L 210.33, 420.961 L 195.891, 372.822 L 200.828, 361.151 z "/>
<path style="fill:rgb(243, 52, 23);fill-opacity:1.0;fill-rule:evenodd;stroke:rgb(0, 0, 0);stroke-width:3.0;" d="M 21.0205, 70.3233 L 35.9154, 73.5853 L 34.5107, 77.2946 L 15.69, 75.7887 L 13.8057, 70.0585 z "/>
<path style="fill:rgb(243, 52, 23);fill-opacity:1.0;fill-rule:evenodd;stroke:rgb(0, 0, 0);stroke-width:3.0;" d="M 637.608, 435.256 L 636.293, 435.011 L 638.223, 420.383 L 674.432, 415.271 z "/>
<path style="fill:rgb(243, 52, 23);fill-opacity:1.0;fill-rule:evenodd;stroke:rgb(0, 0, 0);stroke-width:3.0;" d="M 33.2037, 68.1126 L 34.5811, 70.8209 L 6.53, 69.7916 L 15.1547, 63.0797 z "/>
<path style="fill:rgb(243, 52, 23);fill-opacity:1.0;fill-rule:evenodd;stroke:rgb(0, 0, 0);stroke-width:3.0;" d="M 540.69, 487.859 L 506.775, 506.266 L 464.437, 498.004 L 483.261, 471.227 L 506.175, 461.952 L 524.101, 459.031 z "/>
<path style="fill:rgb(255, 154, 13);fill-opacity:1.0;fill-rule:evenodd;stroke:rgb(0, 0, 0);stroke-width:3.0;" d="M 497.264, 458.558 L 473.499, 473.517 L 500.525, 446.934 z "/>
<path style="fill:rgb(249, 255, 55);fill-opacity:1.0;fill-rule:evenodd;stroke:rgb(0, 0, 0);stroke-width:3.0;" d="M 32.0401, 493.45 L 22.5323, 497.823 L 17.5076, 498.144 L 17.6326, 488.276 L 42.2399, 476.384 z "/>
<path style="fill:rgb(249, 255, 55);fill-opacity:1.0;fill-rule:evenodd;stroke:rgb(0, 0, 0);stroke-width:3.0;" d="M 168.679, 313.153 L 152.329, 345.126 L 143.481, 350.662 L 140.294, 349.891 L 136.627, 335.387 L 144.969, 320.393 L 163.357, 312.22 z "/>
<path style="fill:rgb(255, 243, 105);fill-opacity:1.0;fill-rule:evenodd;stroke:rgb(0, 0, 0);stroke-width:3.0;" d="M 120.993, 317.098 L 120.274, 331.37 L 118.096, 332.338 L 112.293, 327.034 L 108.532, 321.389 L 118.705, 315.97 z "/>
<path style="fill:rgb(255, 243, 105);fill-opacity:1.0;fill-rule:evenodd;stroke:rgb(0, 0, 0);stroke-width:3.0;" d="M 385.917, 529.601 L 377.594, 542.436 L 376.176, 541.657 L 376.045, 534.374 L 380.196, 518.61 z "/>
<path style="fill:rgb(255, 243, 105);fill-opacity:1.0;fill-rule:evenodd;stroke:rgb(0, 0, 0);stroke-width:3.0;" d="M 64.9682, 331.657 L 116.628, 407.739 L 81.1124, 423.188 L 43.8445, 326.544 z "/>
<path style="fill:rgb(255, 243, 105);fill-opacity:1.0;fill-rule:evenodd;stroke:rgb(0, 0, 0);stroke-width:3.0;" d="M 47.2382, 90.6938 L 21.8973, 125.476 L 13.6633, 117.464 L 41.297, 75.5395 L 47.6289, 71.4592 z "/>
<path style="fill:rgb(184, 234, 128);fill-opacity:1.0;fill-rule:evenodd;stroke:rgb(0, 0, 0);stroke-width:3.0;" d="M 422.309, 391.2 L 419.526, 383.078 L 441.031, 370.83 L 445.747, 370.433 z "/>
<path style="fill:rgb(184, 234, 128);fill-opacity:1.0;fill-rule:evenodd;stroke:rgb(0, 0, 0);stroke-width:3.0;" d="M 297.17, 505.062 L 295.812, 528.084 L 280.668, 520.207 L 280.211, 517.105 L 296.044, 503.077 z "/>
<path style="fill:rgb(184, 234, 128);fill-opacity:1.0;fill-rule:evenodd;stroke:rgb(0, 0, 0);stroke-width:3.0;" d="M 176.023, 326.375 L 189.067, 342.872 L 158.552, 332.958 L 163.944, 322.413 z "/>
<path style="fill:rgb(184, 234, 128);fill-opacity:1.0;fill-rule:evenodd;stroke:rgb(0, 0, 0);stroke-width:3.0;" d="M 506.775, 506.266 L 452.659, 535.637 L 431.587, 544.733 L 464.437, 498.004 z "/>
<path style="fill:rgb(184, 234, 128);fill-opacity:1.0;fill-rule:evenodd;stroke:rgb(0, 0, 0);stroke-width:3.0;" d="M 351.477, 283.623 L 361.688, 315.215 L 310.452, 357.299 L 300.85, 293.929 L 326.089, 264.883 z "/>
<path style="fill:rgb(184, 234, 128);fill-opacity:1.0;fill-rule:evenodd;stroke:rgb(0, 0, 0);stroke-width:3.0;" d="M 45.6442, 544.266 L 25.3287, 544.527 L 29.8508, 540.785 L 59.5355, 523.969 z "/>
<path style="fill:rgb(252, 194, 255);fill-opacity:1.0;fill-rule:evenodd;stroke:rgb(0, 0, 0);stroke-width:3.0;" d="M 71.8518, 78.0842 L 67.6793, 87.5981 L 57.6861, 76.3531 L 65.2545, 65.9649 z "/>
<path style="fill:rgb(255, 59, 23);fill-opacity:1.0;fill-rule:evenodd;stroke:rgb(0, 0, 0);stroke-width:3.0;" d="M 87.0871, 35.9979 L 76.8421, 50.06 L 75.484, 39.8707 L 74.7697, 24.7561 L 80.0638, 16.724 z "/>
<path style="fill:rgb(215, 2, 14);fill-opacity:1.0;fill-rule:evenodd;stroke:rgb(0, 0, 0);stroke-width:3.0;" d="M 42.3422, 145.369 L 37.6532, 140.807 L 60.3393, 104.334 z "/>
<path style="fill:rgb(255, 21, 20);fill-opacity:1.0;fill-rule:evenodd;stroke:rgb(0, 0, 0);stroke-width:3.0;" d="M 67.6793, 87.5981 L 60.3393, 104.334 L 37.6532, 140.807 L 25.6685, 129.146 L 39.0902, 101.877 L 57.6861, 76.3531 z "/>
<path style="fill:rgb(255, 18, 187);fill-opacity:1.0;fill-rule:evenodd;stroke:rgb(0, 0, 0);stroke-width:3.0;" d="M 169.18, 592.048 L 62.0839, 586.646 L 138.667, 543.031 z "/>
<path style="fill:rgb(136, 231, 237);fill-opacity:1.0;fill-rule:evenodd;stroke:rgb(0, 0, 0);stroke-width:3.0;" d="M 98.8002, 314.706 L 84.7326, 329.893 L 60.7971, 297.146 L 55.0985, 286.416 L 55.1107, 285.996 L 65.186, 283.991 z "/>
<path style="fill:rgb(255, 25, 199);fill-opacity:1.0;fill-rule:evenodd;stroke:rgb(0, 0, 0);stroke-width:3.0;" d="M 794.703, 400.403 L 785.59, 403.532 L 774.648, 389.86 L 785.664, 366.431 L 793.645, 365.803 z "/>
<path style="fill:rgb(255, 25, 199);fill-opacity:1.0;fill-rule:evenodd;stroke:rgb(0, 0, 0);stroke-width:3.0;" d="M 316.257, 538.717 L 316.305, 538.802 L 285.258, 551.368 L 280.668, 520.207 z "/>
<path style="fill:rgb(140, 240, 252);fill-opacity:1.0;fill-rule:evenodd;stroke:rgb(0, 0, 0);stroke-width:3.0;" d="M 236.203, 418.285 L 231.002, 422.557 L 219.453, 388.357 L 227.047, 384.593 z "/>
<path style="fill:rgb(140, 240, 252);fill-opacity:1.0;fill-rule:evenodd;stroke:rgb(0, 0, 0);stroke-width:3.0;" d="M 124.701, 282.308 L 118.579, 286.789 L 110.156, 280.465 L 109.011, 275.27 L 117.831, 273.515 z "/>
<path style="fill:rgb(252, 252, 17);fill-opacity:1.0;fill-rule:evenodd;stroke:rgb(0, 0, 0);stroke-width:3.0;" d="M 379.581, 462.57 L 379.563, 466.673 L 365.489, 475.384 L 359.858, 450.485 z "/>
<path style="fill:rgb(252, 252, 17);fill-opacity:1.0;fill-rule:evenodd;stroke:rgb(0, 0, 0);stroke-width:3.0;" d="M 505.031, 442.503 L 470.63, 476.339 L 453.168, 483.407 L 443.541, 430.24 L 489.012, 421.762 z "/>
<path style="fill:rgb(255, 231, 24);fill-opacity:1.0;fill-rule:evenodd;stroke:rgb(0, 0, 0);stroke-width:3.0;" d="M 252.864, 356.319 L 252.693, 371.883 L 219.453, 388.357 L 214.18, 372.742 L 227.627, 340.333 z "/>
<path style="fill:rgb(24, 64, 177);fill-opacity:1.0;fill-rule:evenodd;stroke:rgb(0, 0, 0);stroke-width:3.0;" d="M 687.504, 346.971 L 651.106, 403.292 L 513.163, 459.124 L 596.148, 328.799 z "/>
<path style="fill:rgb(24, 64, 177);fill-opacity:1.0;fill-rule:evenodd;stroke:rgb(0, 0, 0);stroke-width:3.0;" d="M 214.984, 381.815 L 205.708, 378.608 L 200.828, 361.151 L 202.017, 358.343 z "/>
<path style="fill:rgb(24, 64, 177);fill-opacity:1.0;fill-rule:evenodd;stroke:rgb(0, 0, 0);stroke-width:3.0;" d="M 252.864, 356.319 L 227.627, 340.333 L 253.736, 277.406 z "/>
<path style="fill:rgb(146, 159, 255);fill-opacity:1.0;fill-rule:evenodd;stroke:rgb(0, 0, 0);stroke-width:3.0;" d="M 548.748, 397.333 L 485.612, 422.396 L 376.882, 442.669 L 526.877, 382.037 z "/>
<path style="fill:rgb(146, 159, 255);fill-opacity:1.0;fill-rule:evenodd;stroke:rgb(0, 0, 0);stroke-width:3.0;" d="M 378.05, 526.762 L 364.451, 542.034 L 363.135, 534.909 L 377.841, 513.895 L 381.866, 512.266 z "/>
<path style="fill:rgb(10, 184, 255);fill-opacity:1.0;fill-rule:evenodd;stroke:rgb(0, 0, 0);stroke-width:3.0;" d="M 506.061, 359.837 L 502.468, 364.966 L 482.665, 351.116 L 504.966, 343.357 z "/>
<path style="fill:rgb(10, 184, 255);fill-opacity:1.0;fill-rule:evenodd;stroke:rgb(0, 0, 0);stroke-width:3.0;" d="M 27.3797, 130.811 L 28.0629, 136.935 L 13.6729, 130.163 L 12.7959, 118.78 L 13.6633, 117.464 z "/>
<path style="fill:rgb(226, 21, 7);fill-opacity:1.0;fill-rule:evenodd;stroke:rgb(0, 0, 0);stroke-width:3.0;" d="M 242.981, 16.3132 L 237.079, 30.3673 L 230.14, 32.3593 L 201.985, 27.2948 L 223.322, 15.9539 z "/>
<path style="fill:rgb(226, 21, 7);fill-opacity:1.0;fill-rule:evenodd;stroke:rgb(0, 0, 0);stroke-width:3.0;" d="M 194.899, 450.675 L 142.332, 468.611 L 150.21, 453.693 L 194.819, 450.404 z "/>
<path style="fill:rgb(226, 21, 7);fill-opacity:1.0;fill-rule:evenodd;stroke:rgb(0, 0, 0);stroke-width:3.0;" d="M 161.537, 530.006 L 99.8029, 548.747 L 103.546, 527.246 L 105.174, 525.908 L 173.059, 523.444 z "/>
<path style="fill:rgb(226, 21, 7);fill-opacity:1.0;fill-rule:evenodd;stroke:rgb(0, 0, 0);stroke-width:3.0;" d="M 336.721, 530.538 L 316.305, 538.802 L 301.39, 512.503 L 330.593, 507.307 z "/>
<path style="fill:rgb(255, 255, 11);fill-opacity:1.0;fill-rule:evenodd;stroke:rgb(0, 0, 0);stroke-width:3.0;" d="M 206.641, 504.319 L 189.817, 513.9 L 186.564, 506.276 L 205.049, 497.609 z "/>
<path style="fill:rgb(51, 255, 234);fill-opacity:1.0;fill-rule:evenodd;stroke:rgb(0, 0, 0);stroke-width:3.0;" d="M 188.296, 439.059 L 180.521, 451.458 L 150.21, 453.693 L 150.966, 452.262 L 185.9, 435.173 z "/>
<path style="fill:rgb(51, 255, 234);fill-opacity:1.0;fill-rule:evenodd;stroke:rgb(0, 0, 0);stroke-width:3.0;" d="M 245.309, 457.161 L 203.837, 486.264 L 202.414, 486.502 L 200.191, 477.13 L 244.765, 456.821 z "/>
<path style="fill:rgb(240, 40, 15);fill-opacity:1.0;fill-rule:evenodd;stroke:rgb(0, 0, 0);stroke-width:3.0;" d="M 586.022, 443.151 L 539.916, 456.454 L 506.175, 461.952 L 578.94, 432.501 z "/>
<path style="fill:rgb(240, 40, 15);fill-opacity:1.0;fill-rule:evenodd;stroke:rgb(0, 0, 0);stroke-width:3.0;" d="M 772.326, 215.719 L 687.504, 346.971 L 596.148, 328.799 L 688.107, 184.383 z "/>
<path style="fill:rgb(255, 112, 194);fill-opacity:1.0;fill-rule:evenodd;stroke:rgb(0, 0, 0);stroke-width:3.0;" d="M 753.85, 81.1355 L 738.401, 51.9827 L 777.269, 44.3577 z "/>
<path style="fill:rgb(255, 112, 194);fill-opacity:1.0;fill-rule:evenodd;stroke:rgb(0, 0, 0);stroke-width:3.0;" d="M 63.4636, 64.5644 L 47.3139, 86.965 L 47.6289, 71.4592 L 61.5923, 62.4613 z "/>
<path style="fill:rgb(255, 112, 194);fill-opacity:1.0;fill-rule:evenodd;stroke:rgb(0, 0, 0);stroke-width:3.0;" d="M 56.6023, 531.83 L 58.5295, 549.33 L 46.0016, 544.789 L 46.0907, 543.613 L 54.3524, 531.542 z "/>
<path style="fill:rgb(255, 112, 194);fill-opacity:1.0;fill-rule:evenodd;stroke:rgb(0, 0, 0);stroke-width:3.0;" d="M 99.0772, 286.557 L 107.335, 318.05 L 96.25, 296.36 L 92.7349, 284.692 z "/>
<path style="fill:rgb(223, 3, 34);fill-opacity:1.0;fill-rule:evenodd;stroke:rgb(0, 0, 0);stroke-width:3.0;" d="M 229.861, 257.65 L 226.243, 264.881 L 192.501, 278.366 L 191.991, 268.887 L 223.263, 255.933 z "/>
<path style="fill:rgb(223, 3, 34);fill-opacity:1.0;fill-rule:evenodd;stroke:rgb(0, 0, 0);stroke-width:3.0;" d="M 392.61, 519.281 L 385.917, 529.601 L 380.196, 518.61 L 381.866, 512.266 L 382.035, 512.198 z "/>
<path style="fill:rgb(223, 3, 34);fill-opacity:1.0;fill-rule:evenodd;stroke:rgb(0, 0, 0);stroke-width:3.0;" d="M 125.746, 346.369 L 127.853, 351.322 L 107.456, 372.57 L 102.791, 366.359 L 108.253, 342.135 z "/>
<path style="fill:rgb(223, 3, 34);fill-opacity:1.0;fill-rule:evenodd;stroke:rgb(0, 0, 0);stroke-width:3.0;" d="M 636.293, 435.011 L 592.789, 426.896 L 593.16, 426.745 L 638.223, 420.383 z "/>
<path style="fill:rgb(223, 3, 34);fill-opacity:1.0;fill-rule:evenodd;stroke:rgb(0, 0, 0);stroke-width:3.0;" d="M 345.803, 266.067 L 351.477, 283.623 L 326.089, 264.883 L 329.324, 261.16 z "/>
<path style="fill:rgb(223, 3, 34);fill-opacity:1.0;fill-rule:evenodd;stroke:rgb(0, 0, 0);stroke-width:3.0;" d="M 226.052, 56.6271 L 204.947, 39.5914 L 237.079, 30.3673 z "/>
<path style="fill:rgb(30, 234, 255);fill-opacity:1.0;fill-rule:evenodd;stroke:rgb(0, 0, 0);stroke-width:3.0;" d="M 526.877, 382.037 L 502.53, 391.879 L 511.18, 371.058 z "/>
<path style="fill:rgb(30, 234, 255);fill-opacity:1.0;fill-rule:evenodd;stroke:rgb(0, 0, 0);stroke-width:3.0;" d="M 266.348, 470.315 L 260.045, 473.904 L 222.314, 473.298 L 245.309, 457.161 z "/>
<path style="fill:rgb(255, 6, 60);fill-opacity:1.0;fill-rule:evenodd;stroke:rgb(0, 0, 0);stroke-width:3.0;" d="M 564.096, 348.699 L 533.675, 341.98 L 540.842, 330.876 L 563.874, 322.863 z "/>
<path style="fill:rgb(255, 6, 60);fill-opacity:1.0;fill-rule:evenodd;stroke:rgb(0, 0, 0);stroke-width:3.0;" d="M 145.642, 300.244 L 146.178, 301.336 L 140.716, 304.245 L 125.104, 303.203 L 123.086, 293.614 z "/>
<path style="fill:rgb(197, 0, 194);fill-opacity:1.0;fill-rule:evenodd;stroke:rgb(0, 0, 0);stroke-width:3.0;" d="M 586.818, 343.453 L 581.629, 316.685 L 610.189, 306.749 z "/>
<path style="fill:rgb(255, 10, 223);fill-opacity:1.0;fill-rule:evenodd;stroke:rgb(0, 0, 0);stroke-width:3.0;" d="M 305.925, 272.961 L 257.187, 320.234 L 270.005, 247.147 z "/>
<path style="fill:rgb(255, 47, 152);fill-opacity:1.0;fill-rule:evenodd;stroke:rgb(0, 0, 0);stroke-width:3.0;" d="M 205.049, 497.609 L 186.564, 506.276 L 183.117, 498.193 L 200.834, 479.843 z "/>
<path style="fill:rgb(255, 15, 194);fill-opacity:1.0;fill-rule:evenodd;stroke:rgb(0, 0, 0);stroke-width:3.0;" d="M 57.8514, 558.548 L 59.9421, 559.773 L 35.4657, 568.735 L 31.8899, 567.272 L 26.9987, 556.509 z "/>
<path style="fill:rgb(11, 217, 187);fill-opacity:1.0;fill-rule:evenodd;stroke:rgb(0, 0, 0);stroke-width:3.0;" d="M 230.14, 32.3593 L 204.947, 39.5914 L 194.585, 31.2278 L 201.985, 27.2948 z "/>
<path style="fill:rgb(255, 223, 13);fill-opacity:1.0;fill-rule:evenodd;stroke:rgb(0, 0, 0);stroke-width:3.0;" d="M 206.283, 582.609 L 139.964, 542.292 L 147.948, 537.745 L 293.54, 505.295 z "/>
<path style="fill:rgb(255, 189, 30);fill-opacity:1.0;fill-rule:evenodd;stroke:rgb(0, 0, 0);stroke-width:3.0;" d="M 232.072, 329.619 L 223.108, 351.225 L 208.593, 356.195 L 205.904, 348.232 L 214.996, 331.014 L 219.4, 327.392 z "/>
<path style="fill:rgb(194, 184, 252);fill-opacity:1.0;fill-rule:evenodd;stroke:rgb(0, 0, 0);stroke-width:3.0;" d="M 232.072, 329.619 L 219.4, 327.392 L 240.04, 310.416 z "/>
<path style="fill:rgb(79, 82, 255);fill-opacity:1.0;fill-rule:evenodd;stroke:rgb(0, 0, 0);stroke-width:3.0;" d="M 319.896, 132.376 L 291.645, 109.572 L 313.744, 17.2664 L 385.389, 8.3578 z "/>
<path style="fill:rgb(119, 75, 255);fill-opacity:1.0;fill-rule:evenodd;stroke:rgb(0, 0, 0);stroke-width:3.0;" d="M 793.645, 365.803 L 757.661, 368.636 L 752.539, 362.237 L 754.074, 361.616 L 793.417, 358.37 z "/>
<path style="fill:rgb(119, 75, 255);fill-opacity:1.0;fill-rule:evenodd;stroke:rgb(0, 0, 0);stroke-width:3.0;" d="M 320.731, 258.601 L 305.925, 272.961 L 279.31, 253.834 L 278.107, 245.908 z "/>
<path style="fill:rgb(255, 12, 16);fill-opacity:1.0;fill-rule:evenodd;stroke:rgb(0, 0, 0);stroke-width:3.0;" d="M 785.59, 403.532 L 744.515, 417.637 L 750.086, 363.23 L 752.539, 362.237 z "/>
<path style="fill:rgb(240, 7, 44);fill-opacity:1.0;fill-rule:evenodd;stroke:rgb(0, 0, 0);stroke-width:3.0;" d="M 213.42, 431.261 L 214.779, 435.795 L 205.092, 440.565 L 201.64, 431.314 L 205.599, 425.29 z "/>
<path style="fill:rgb(255, 249, 26);fill-opacity:1.0;fill-rule:evenodd;stroke:rgb(0, 0, 0);stroke-width:3.0;" d="M 422.309, 391.2 L 410.472, 401.688 L 403.499, 392.205 L 419.526, 383.078 z "/>
<path style="fill:rgb(255, 92, 31);fill-opacity:1.0;fill-rule:evenodd;stroke:rgb(0, 0, 0);stroke-width:3.0;" d="M 308.686, 511.205 L 301.39, 512.503 L 296.044, 503.077 L 310.067, 490.651 z "/>
<path style="fill:rgb(255, 92, 31);fill-opacity:1.0;fill-rule:evenodd;stroke:rgb(0, 0, 0);stroke-width:3.0;" d="M 235.781, 313.919 L 214.996, 331.014 L 229.076, 304.352 z "/>
<path style="fill:rgb(8, 1, 255);fill-opacity:1.0;fill-rule:evenodd;stroke:rgb(0, 0, 0);stroke-width:3.0;" d="M 183.825, 499.854 L 172.144, 502.613 L 169.441, 502.061 L 177.366, 487.53 L 178.373, 487.071 z "/>
<path style="fill:rgb(8, 1, 255);fill-opacity:1.0;fill-rule:evenodd;stroke:rgb(0, 0, 0);stroke-width:3.0;" d="M 290.886, 101.93 L 288.879, 107.34 L 274.528, 95.7564 L 279.482, 89.4404 z "/>
<path style="fill:rgb(8, 1, 255);fill-opacity:1.0;fill-rule:evenodd;stroke:rgb(0, 0, 0);stroke-width:3.0;" d="M 240.04, 310.416 L 235.781, 313.919 L 229.076, 304.352 L 239.328, 284.939 L 253.395, 278.228 z "/>
<path style="fill:rgb(78, 6, 255);fill-opacity:1.0;fill-rule:evenodd;stroke:rgb(0, 0, 0);stroke-width:3.0;" d="M 189.067, 342.872 L 200.859, 357.785 L 197.69, 363.784 L 160.939, 354.888 L 158.646, 332.988 z "/>
<path style="fill:rgb(78, 6, 255);fill-opacity:1.0;fill-rule:evenodd;stroke:rgb(0, 0, 0);stroke-width:3.0;" d="M 161.944, 431.473 L 157.716, 439.48 L 107.456, 372.57 L 127.853, 351.322 z "/>
<path style="fill:rgb(78, 6, 255);fill-opacity:1.0;fill-rule:evenodd;stroke:rgb(0, 0, 0);stroke-width:3.0;" d="M 194.153, 442.702 L 192.746, 443.45 L 188.689, 429.837 L 208.196, 421.339 z "/>
<path style="fill:rgb(78, 6, 255);fill-opacity:1.0;fill-rule:evenodd;stroke:rgb(0, 0, 0);stroke-width:3.0;" d="M 68.4558, 476.703 L 54.9936, 482.895 L 49.1415, 477.629 L 58.2264, 469.124 z "/>
<path style="fill:rgb(78, 6, 255);fill-opacity:1.0;fill-rule:evenodd;stroke:rgb(0, 0, 0);stroke-width:3.0;" d="M 586.818, 343.453 L 577.706, 357.763 L 566.967, 321.787 L 581.629, 316.685 z "/>
<path style="fill:rgb(255, 249, 7);fill-opacity:1.0;fill-rule:evenodd;stroke:rgb(0, 0, 0);stroke-width:3.0;" d="M 54.2256, 316.573 L 39.485, 325.488 L 12.4837, 318.952 L 38.5733, 289.287 L 55.1107, 285.996 z "/>
<path style="fill:rgb(255, 249, 7);fill-opacity:1.0;fill-rule:evenodd;stroke:rgb(0, 0, 0);stroke-width:3.0;" d="M 210.184, 420.473 L 198.033, 425.767 L 186.693, 384.608 L 194.814, 369.231 z "/>
<path style="fill:rgb(255, 249, 7);fill-opacity:1.0;fill-rule:evenodd;stroke:rgb(0, 0, 0);stroke-width:3.0;" d="M 292.227, 14.2121 L 292.443, 17.2171 L 261.111, 16.6445 L 268.34, 11.2467 z "/>
<path style="fill:rgb(209, 2, 240);fill-opacity:1.0;fill-rule:evenodd;stroke:rgb(0, 0, 0);stroke-width:3.0;" d="M 316.257, 538.717 L 295.812, 528.084 L 297.17, 505.062 z "/>
<path style="fill:rgb(243, 17, 11);fill-opacity:1.0;fill-rule:evenodd;stroke:rgb(0, 0, 0);stroke-width:3.0;" d="M 198.507, 15.3882 L 192.922, 28.9522 L 188.113, 13.3874 L 191.008, 9.32711 L 194.88, 9.15316 z "/>
<path style="fill:rgb(243, 17, 11);fill-opacity:1.0;fill-rule:evenodd;stroke:rgb(0, 0, 0);stroke-width:3.0;" d="M 783.738, 246.45 L 769.453, 355.391 L 720.028, 375.396 L 732.552, 298.023 L 767.582, 234.593 z "/>
<path style="fill:rgb(255, 204, 57);fill-opacity:1.0;fill-rule:evenodd;stroke:rgb(0, 0, 0);stroke-width:3.0;" d="M 767.582, 234.593 L 747.408, 271.123 L 744.62, 271.967 L 743.174, 260.828 L 762.526, 230.883 z "/>
<path style="fill:rgb(19, 89, 255);fill-opacity:1.0;fill-rule:evenodd;stroke:rgb(0, 0, 0);stroke-width:3.0;" d="M 144.037, 465.383 L 137.115, 478.489 L 109.164, 496.11 L 92.2542, 500.415 L 84.7713, 496.375 L 118.41, 463.553 z "/>
<path style="fill:rgb(249, 255, 8);fill-opacity:1.0;fill-rule:evenodd;stroke:rgb(0, 0, 0);stroke-width:3.0;" d="M 118.41, 463.553 L 84.7713, 496.375 L 70.9485, 488.911 L 69.0077, 480.63 L 97.8338, 462.083 z "/>
<path style="fill:rgb(255, 46, 8);fill-opacity:1.0;fill-rule:evenodd;stroke:rgb(0, 0, 0);stroke-width:3.0;" d="M 22.5318, 163.282 L 22.8657, 172.271 L 8.89153, 168.782 L 8.51402, 168.359 L 17.9753, 154.028 z "/>
<path style="fill:rgb(255, 46, 8);fill-opacity:1.0;fill-rule:evenodd;stroke:rgb(0, 0, 0);stroke-width:3.0;" d="M 227.298, 307.72 L 227.614, 290.955 L 242.308, 258.461 L 256.255, 252.886 z "/>
<path style="fill:rgb(255, 184, 24);fill-opacity:1.0;fill-rule:evenodd;stroke:rgb(0, 0, 0);stroke-width:3.0;" d="M 429.333, 493.054 L 379.352, 513.283 L 379.581, 462.57 z "/>
<path style="fill:rgb(255, 255, 44);fill-opacity:1.0;fill-rule:evenodd;stroke:rgb(0, 0, 0);stroke-width:3.0;" d="M 329.324, 261.16 L 304.635, 289.573 L 306, 272.889 L 320.731, 258.601 z "/>
<path style="fill:rgb(246, 249, 30);fill-opacity:1.0;fill-rule:evenodd;stroke:rgb(0, 0, 0);stroke-width:3.0;" d="M 304.635, 289.573 L 256.942, 344.459 L 253.214, 324.674 L 253.22, 324.082 L 306, 272.889 z "/>
<path style="fill:rgb(255, 204, 52);fill-opacity:1.0;fill-rule:evenodd;stroke:rgb(0, 0, 0);stroke-width:3.0;" d="M 46.5014, 472.023 L 26.4346, 480.777 L 28.0318, 471.505 L 35.0157, 467.85 L 51.2733, 463.451 z "/>
<path style="fill:rgb(255, 177, 8);fill-opacity:1.0;fill-rule:evenodd;stroke:rgb(0, 0, 0);stroke-width:3.0;" d="M 252.52, 387.473 L 252.326, 405.042 L 248.007, 408.59 L 237.349, 380.927 L 238.175, 380.911 z "/>
<path style="fill:rgb(255, 177, 8);fill-opacity:1.0;fill-rule:evenodd;stroke:rgb(0, 0, 0);stroke-width:3.0;" d="M 228.389, 289.242 L 227.715, 285.596 L 228.12, 264.131 L 242.308, 258.461 z "/>
<path style="fill:rgb(140, 231, 255);fill-opacity:1.0;fill-rule:evenodd;stroke:rgb(0, 0, 0);stroke-width:3.0;" d="M 394.2, 416.106 L 360.42, 446.036 L 314.754, 442.747 L 382.638, 404.086 z "/>
<path style="fill:rgb(146, 0, 15);fill-opacity:1.0;fill-rule:evenodd;stroke:rgb(0, 0, 0);stroke-width:3.0;" d="M 410.472, 401.688 L 394.2, 416.106 L 382.638, 404.086 L 403.499, 392.205 z "/>
<path style="fill:rgb(243, 32, 92);fill-opacity:1.0;fill-rule:evenodd;stroke:rgb(0, 0, 0);stroke-width:3.0;" d="M 557.565, 363.573 L 521.598, 378.344 L 506.594, 367.851 L 504.966, 343.357 L 519.679, 338.238 z "/>
<path style="fill:rgb(150, 123, 255);fill-opacity:1.0;fill-rule:evenodd;stroke:rgb(0, 0, 0);stroke-width:3.0;" d="M 453.168, 483.407 L 429.333, 493.054 L 410.48, 481.502 L 452.522, 479.843 z "/>
<path style="fill:rgb(252, 246, 52);fill-opacity:1.0;fill-rule:evenodd;stroke:rgb(0, 0, 0);stroke-width:3.0;" d="M 452.522, 479.843 L 410.48, 481.502 L 359.858, 450.485 L 359.114, 447.194 L 360.846, 445.659 L 443.541, 430.24 z "/>
<path style="fill:rgb(67, 37, 228);fill-opacity:1.0;fill-rule:evenodd;stroke:rgb(0, 0, 0);stroke-width:3.0;" d="M 99.8029, 548.747 L 64.2172, 559.549 L 103.546, 527.246 z "/>
<path style="fill:rgb(209, 1, 103);fill-opacity:1.0;fill-rule:evenodd;stroke:rgb(0, 0, 0);stroke-width:3.0;" d="M 299.398, 77.1889 L 287.736, 95.709 L 280.462, 88.1916 L 303.926, 58.2777 z "/>
<path style="fill:rgb(209, 1, 103);fill-opacity:1.0;fill-rule:evenodd;stroke:rgb(0, 0, 0);stroke-width:3.0;" d="M 202.521, 335.068 L 185.504, 338.366 L 176.023, 326.375 z "/>
<path style="fill:rgb(237, 252, 14);fill-opacity:1.0;fill-rule:evenodd;stroke:rgb(0, 0, 0);stroke-width:3.0;" d="M 58.5295, 549.33 L 58.7551, 551.378 L 57.1511, 554.598 L 52.1166, 558.169 L 50.0954, 558.035 L 44.6524, 545.715 L 45.4284, 544.581 z "/>
<path style="fill:rgb(246, 199, 44);fill-opacity:1.0;fill-rule:evenodd;stroke:rgb(0, 0, 0);stroke-width:3.0;" d="M 96.6515, 461.999 L 6.6621, 455.572 L 87.2851, 420.503 z "/>
<path style="fill:rgb(184, 0, 114);fill-opacity:1.0;fill-rule:evenodd;stroke:rgb(0, 0, 0);stroke-width:3.0;" d="M 74.6926, 504.886 L 54.5772, 510.008 L 59.3879, 486.819 L 69.0077, 480.63 z "/>
<path style="fill:rgb(199, 255, 29);fill-opacity:1.0;fill-rule:evenodd;stroke:rgb(0, 0, 0);stroke-width:3.0;" d="M 572.936, 341.785 L 565.19, 368.671 L 564.263, 368.051 L 563.874, 322.863 L 566.967, 321.787 z "/>
<path style="fill:rgb(255, 240, 75);fill-opacity:1.0;fill-rule:evenodd;stroke:rgb(0, 0, 0);stroke-width:3.0;" d="M 576.477, 353.648 L 577.706, 357.763 L 569.096, 371.283 L 565.19, 368.671 L 570.397, 350.599 z "/>
<path style="fill:rgb(148, 43, 220);fill-opacity:1.0;fill-rule:evenodd;stroke:rgb(0, 0, 0);stroke-width:3.0;" d="M 37.531, 69.3193 L 15.1547, 63.0797 L 50.232, 35.7822 z "/>
<path style="fill:rgb(42, 223, 255);fill-opacity:1.0;fill-rule:evenodd;stroke:rgb(0, 0, 0);stroke-width:3.0;" d="M 158.855, 265.352 L 156.228, 261.942 L 215.502, 254.079 z "/>
<path style="fill:rgb(255, 0, 8);fill-opacity:1.0;fill-rule:evenodd;stroke:rgb(0, 0, 0);stroke-width:3.0;" d="M 30.7553, 138.202 L 25.2255, 143.74 L 15.5154, 139.164 L 6.46546, 128.384 L 7.27722, 127.153 z "/>
<path style="fill:rgb(249, 16, 17);fill-opacity:1.0;fill-rule:evenodd;stroke:rgb(0, 0, 0);stroke-width:3.0;" d="M 31.9817, 146.924 L 27.396, 159.203 L 22.3398, 158.113 L 21.745, 142.1 z "/>
<path style="fill:rgb(16, 255, 234);fill-opacity:1.0;fill-rule:evenodd;stroke:rgb(0, 0, 0);stroke-width:3.0;" d="M 70.8699, 316.114 L 59.0048, 318.497 L 54.3552, 312.098 L 54.4134, 310.087 L 64.7011, 304.498 z "/>
<path style="fill:rgb(23, 144, 243);fill-opacity:1.0;fill-rule:evenodd;stroke:rgb(0, 0, 0);stroke-width:3.0;" d="M 34.5107, 77.2946 L 28.5429, 93.0526 L 19.642, 94.3785 L 18.9407, 89.6859 L 30.817, 76.9991 z "/>
<path style="fill:rgb(67, 255, 228);fill-opacity:1.0;fill-rule:evenodd;stroke:rgb(0, 0, 0);stroke-width:3.0;" d="M 364.21, 469.729 L 359.445, 477.142 L 355.14, 451.54 L 355.942, 450.005 L 359.114, 447.194 z "/>
<path style="fill:rgb(255, 182, 11);fill-opacity:1.0;fill-rule:evenodd;stroke:rgb(0, 0, 0);stroke-width:3.0;" d="M 193.255, 408.425 L 187.388, 408.901 L 181.451, 394.536 L 186.693, 384.608 z "/>
<path style="fill:rgb(132, 57, 240);fill-opacity:1.0;fill-rule:evenodd;stroke:rgb(0, 0, 0);stroke-width:3.0;" d="M 108.253, 342.135 L 108.089, 342.864 L 89.1244, 343.27 L 84.18, 341.584 L 79.336, 335.135 z "/>
<path style="fill:rgb(237, 18, 14);fill-opacity:1.0;fill-rule:evenodd;stroke:rgb(0, 0, 0);stroke-width:3.0;" d="M 37.6318, 528.376 L 32.3309, 530.381 L 30.6774, 526.898 L 29.7898, 516.319 L 39.6154, 513.817 z "/>
<path style="fill:rgb(246, 249, 10);fill-opacity:1.0;fill-rule:evenodd;stroke:rgb(0, 0, 0);stroke-width:3.0;" d="M 183.357, 461.691 L 117.359, 515.9 L 140.738, 471.63 L 152.756, 465.054 L 180.857, 455.467 z "/>
<path style="fill:rgb(255, 2, 46);fill-opacity:1.0;fill-rule:evenodd;stroke:rgb(0, 0, 0);stroke-width:3.0;" d="M 550.037, 398.235 L 544.882, 403.306 L 528.688, 414.364 L 485.612, 422.396 L 548.748, 397.333 z "/>
<path style="fill:rgb(97, 179, 152);fill-opacity:1.0;fill-rule:evenodd;stroke:rgb(0, 0, 0);stroke-width:3.0;" d="M 379.352, 513.283 L 374.504, 515.246 L 365.489, 475.384 L 379.563, 466.673 z "/>
<path style="fill:rgb(255, 41, 220);fill-opacity:1.0;fill-rule:evenodd;stroke:rgb(0, 0, 0);stroke-width:3.0;" d="M 511.18, 371.058 L 502.53, 391.879 L 486.846, 398.219 L 505.214, 366.886 z "/>
<path style="fill:rgb(31, 207, 255);fill-opacity:1.0;fill-rule:evenodd;stroke:rgb(0, 0, 0);stroke-width:3.0;" d="M 585.852, 463.347 L 564.452, 474.962 L 553.775, 454.195 L 580.461, 449.846 z "/>
<path style="fill:rgb(255, 79, 11);fill-opacity:1.0;fill-rule:evenodd;stroke:rgb(0, 0, 0);stroke-width:3.0;" d="M 250.687, 473.754 L 250.943, 473.899 L 237.313, 480.66 L 203.837, 486.264 L 222.314, 473.298 z "/>
<path style="fill:rgb(58, 255, 50);fill-opacity:1.0;fill-rule:evenodd;stroke:rgb(0, 0, 0);stroke-width:3.0;" d="M 476.196, 481.277 L 431.389, 545.015 L 452.796, 483.557 L 470.233, 476.5 z "/>
<path style="fill:rgb(252, 55, 255);fill-opacity:1.0;fill-rule:evenodd;stroke:rgb(0, 0, 0);stroke-width:3.0;" d="M 103.765, 562.908 L 76.8446, 578.239 L 50.1194, 576.632 L 92.9309, 559.856 z "/>
<path style="fill:rgb(255, 3, 126);fill-opacity:1.0;fill-rule:evenodd;stroke:rgb(0, 0, 0);stroke-width:3.0;" d="M 597.404, 447.611 L 593.091, 453.78 L 578.94, 432.501 L 580.3, 431.951 z "/>
<path style="fill:rgb(194, 237, 95);fill-opacity:1.0;fill-rule:evenodd;stroke:rgb(0, 0, 0);stroke-width:3.0;" d="M 720.67, 371.426 L 703.539, 322.159 L 737.035, 270.328 z "/>
<path style="fill:rgb(165, 175, 172);fill-opacity:1.0;fill-rule:evenodd;stroke:rgb(0, 0, 0);stroke-width:3.0;" d="M 194.997, 314.751 L 200.854, 334.521 L 163.944, 322.413 L 171.408, 307.817 z "/>
<path style="fill:rgb(246, 134, 9);fill-opacity:1.0;fill-rule:evenodd;stroke:rgb(0, 0, 0);stroke-width:3.0;" d="M 219.743, 322.025 L 211.33, 337.957 L 200.854, 334.521 L 194.997, 314.751 z "/>
<path style="fill:rgb(252, 19, 75);fill-opacity:1.0;fill-rule:evenodd;stroke:rgb(0, 0, 0);stroke-width:3.0;" d="M 106.568, 349.219 L 102.678, 359.149 L 96.9076, 358.527 L 84.18, 341.584 z "/>
</svg>