<?xml version="1.0" encoding="iso-8859-1" standalone="no"?>
<!DOCTYPE svg PUBLIC "-//W3C//DTD SVG 1.0//EN" "http://www.w3.org/TR/2001/REC-SVG-20010904/DTD/svg10.dtd">
<svg xmlns="http://www.w3.org/2000/svg" width="800" height="600">
<path style="fill:rgb(0, 0, 0);fill-opacity:0.0;fill-rule:evenodd;stroke:rgb(0, 0, 0);stroke-width:0.0;" d="M 0, 600 L 800, 600 L 800, 0 L 0, 0 z "/>
<path style="fill:rgb(255, 43, 9);fill-opacity:1.0;fill-rule:evenodd;stroke:rgb(0, 0, 0);stroke-width:3.0;" d="M 425.193, 465.205 L 330.855, 477.249 L 179.792, 447.896 L 176.291, 411.185 z "/>
<path style="fill:rgb(255, 43, 9);fill-opacity:1.0;fill-rule:evenodd;stroke:rgb(0, 0, 0);stroke-width:3.0;" d="M 93.3164, 536.764 L 62.4593, 577.892 L 44.692, 569.557 L 90.6267, 535.883 z "/>
<path style="fill:rgb(243, 255, 19);fill-opacity:1.0;fill-rule:evenodd;stroke:rgb(0, 0, 0);stroke-width:3.0;" d="M 224.816, 244.874 L 206.648, 243.601 L 261.582, 170.733 z "/>
<path style="fill:rgb(243, 255, 19);fill-opacity:1.0;fill-rule:evenodd;stroke:rgb(0, 0, 0);stroke-width:3.0;" d="M 20.4601, 515.211 L 12.1117, 521.127 L 11.159, 520.782 L 12.5676, 502.238 L 14.9921, 502.015 z "/>
<path style="fill:rgb(243, 255, 19);fill-opacity:1.0;fill-rule:evenodd;stroke:rgb(0, 0, 0);stroke-width:3.0;" d="M 421.955, 180.127 L 376.655, 181.429 L 354.217, 165.647 L 346.861, 154.033 L 368.533, 119.175 z "/>
<path style="fill:rgb(243, 255, 19);fill-opacity:1.0;fill-rule:evenodd;stroke:rgb(0, 0, 0);stroke-width:3.0;" d="M 364.204, 232.874 L 347.688, 253.479 L 343.651, 253.197 L 345.392, 233.32 L 363.372, 232.024 z "/>
<path style="fill:rgb(243, 255, 19);fill-opacity:1.0;fill-rule:evenodd;stroke:rgb(0, 0, 0);stroke-width:3.0;" d="M 139.728, 27.7079 L 140.602, 36.8664 L 124.875, 35.1355 L 136.56, 24.4375 z "/>
<path style="fill:rgb(243, 255, 19);fill-opacity:1.0;fill-rule:evenodd;stroke:rgb(0, 0, 0);stroke-width:3.0;" d="M 75.0449, 94.4313 L 42.89, 119.268 L 30.9419, 97.4158 L 57.1158, 77.9789 L 74.3727, 71.9911 z "/>
<path style="fill:rgb(243, 255, 19);fill-opacity:1.0;fill-rule:evenodd;stroke:rgb(0, 0, 0);stroke-width:3.0;" d="M 163.039, 272.197 L 147.813, 281.254 L 140.024, 235.082 L 158.039, 219.749 z "/>
<path style="fill:rgb(249, 255, 7);fill-opacity:1.0;fill-rule:evenodd;stroke:rgb(0, 0, 0);stroke-width:3.0;" d="M 151.333, 555.77 L 144.633, 573.885 L 107.909, 573.824 L 110.817, 542.497 z "/>
<path style="fill:rgb(255, 23, 97);fill-opacity:1.0;fill-rule:evenodd;stroke:rgb(0, 0, 0);stroke-width:3.0;" d="M 137.632, 268.915 L 132.698, 275.655 L 120.944, 255.828 L 121.789, 253.348 z "/>
<path style="fill:rgb(255, 23, 97);fill-opacity:1.0;fill-rule:evenodd;stroke:rgb(0, 0, 0);stroke-width:3.0;" d="M 499.626, 49.6129 L 502.55, 87.6889 L 494.067, 91.46 L 476.702, 38.9799 L 479.494, 30.1276 z "/>
<path style="fill:rgb(140, 217, 231);fill-opacity:1.0;fill-rule:evenodd;stroke:rgb(0, 0, 0);stroke-width:3.0;" d="M 745.73, 281.357 L 684.49, 277.068 L 446.841, 207.17 L 464.513, 76.9629 z "/>
<path style="fill:rgb(249, 86, 6);fill-opacity:1.0;fill-rule:evenodd;stroke:rgb(0, 0, 0);stroke-width:3.0;" d="M 484.891, 218.361 L 492.61, 233.467 L 451.01, 215.933 L 451.665, 208.589 z "/>
<path style="fill:rgb(249, 86, 6);fill-opacity:1.0;fill-rule:evenodd;stroke:rgb(0, 0, 0);stroke-width:3.0;" d="M 784.799, 260.816 L 772.51, 288.606 L 761.296, 255.618 z "/>
<path style="fill:rgb(240, 31, 19);fill-opacity:1.0;fill-rule:evenodd;stroke:rgb(0, 0, 0);stroke-width:3.0;" d="M 556.961, 63.4998 L 502.55, 87.6889 L 500.16, 56.5719 L 511.84, 37.5088 z "/>
<path style="fill:rgb(17, 150, 165);fill-opacity:1.0;fill-rule:evenodd;stroke:rgb(0, 0, 0);stroke-width:3.0;" d="M 238.76, 178.807 L 214.178, 214.147 L 158.26, 76.3626 z "/>
<path style="fill:rgb(17, 150, 165);fill-opacity:1.0;fill-rule:evenodd;stroke:rgb(0, 0, 0);stroke-width:3.0;" d="M 438.696, 58.1991 L 414.618, 101.421 L 371.038, 115.146 L 385.08, 92.5606 L 429.349, 51.4053 z "/>
<path style="fill:rgb(17, 150, 165);fill-opacity:1.0;fill-rule:evenodd;stroke:rgb(0, 0, 0);stroke-width:3.0;" d="M 44.5735, 520.797 L 43.4503, 526.076 L 21.5739, 517.899 L 19.3508, 512.534 z "/>
<path style="fill:rgb(255, 1, 19);fill-opacity:1.0;fill-rule:evenodd;stroke:rgb(0, 0, 0);stroke-width:3.0;" d="M 30.9419, 97.4158 L 26.1828, 88.7119 L 57.1158, 77.9789 z "/>
<path style="fill:rgb(255, 1, 19);fill-opacity:1.0;fill-rule:evenodd;stroke:rgb(0, 0, 0);stroke-width:3.0;" d="M 371.987, 113.62 L 287.646, 249.274 L 224.816, 244.874 L 304.308, 84.5743 L 304.487, 84.3164 z "/>
<path style="fill:rgb(237, 142, 55);fill-opacity:1.0;fill-rule:evenodd;stroke:rgb(0, 0, 0);stroke-width:3.0;" d="M 373.301, 247.434 L 385.834, 254.968 L 387.077, 256.238 L 347.688, 253.479 L 357.813, 240.847 z "/>
<path style="fill:rgb(237, 142, 55);fill-opacity:1.0;fill-rule:evenodd;stroke:rgb(0, 0, 0);stroke-width:3.0;" d="M 142.968, 95.2979 L 134.933, 101.419 L 127.981, 84.7485 L 135.835, 77.4918 z "/>
<path style="fill:rgb(237, 142, 55);fill-opacity:1.0;fill-rule:evenodd;stroke:rgb(0, 0, 0);stroke-width:3.0;" d="M 418.932, 13.8376 L 401.08, 27.6789 L 407.392, 8.46863 z "/>
<path style="fill:rgb(110, 50, 255);fill-opacity:1.0;fill-rule:evenodd;stroke:rgb(0, 0, 0);stroke-width:3.0;" d="M 526.873, 112.511 L 510.656, 92.9603 L 511.023, 92.4974 L 553.06, 86.9377 z "/>
<path style="fill:rgb(110, 50, 255);fill-opacity:1.0;fill-rule:evenodd;stroke:rgb(0, 0, 0);stroke-width:3.0;" d="M 376.684, 97.6205 L 380.644, 99.6953 L 372.402, 112.951 L 334.468, 96.8323 L 338.986, 91.7345 z "/>
<path style="fill:rgb(110, 50, 255);fill-opacity:1.0;fill-rule:evenodd;stroke:rgb(0, 0, 0);stroke-width:3.0;" d="M 429.349, 51.4053 L 385.08, 92.5606 L 416.482, 42.0535 z "/>
<path style="fill:rgb(110, 50, 255);fill-opacity:1.0;fill-rule:evenodd;stroke:rgb(0, 0, 0);stroke-width:3.0;" d="M 788.688, 263.265 L 792.171, 274.78 L 779.047, 273.824 L 784.516, 261.457 z "/>
<path style="fill:rgb(110, 50, 255);fill-opacity:1.0;fill-rule:evenodd;stroke:rgb(0, 0, 0);stroke-width:3.0;" d="M 426.306, 185.091 L 415.814, 204.082 L 412.978, 180.385 L 421.955, 180.127 z "/>
<path style="fill:rgb(110, 50, 255);fill-opacity:1.0;fill-rule:evenodd;stroke:rgb(0, 0, 0);stroke-width:3.0;" d="M 446.683, 208.34 L 368.533, 119.175 L 371.038, 115.146 L 463.273, 86.0973 z "/>
<path style="fill:rgb(86, 255, 255);fill-opacity:1.0;fill-rule:evenodd;stroke:rgb(0, 0, 0);stroke-width:3.0;" d="M 65.0694, 514.963 L 88.0576, 528.449 L 94.7395, 537.231 L 57.8584, 525.149 L 41.2896, 514.458 z "/>
<path style="fill:rgb(86, 255, 255);fill-opacity:1.0;fill-rule:evenodd;stroke:rgb(0, 0, 0);stroke-width:3.0;" d="M 120.781, 545.627 L 105.223, 530.459 L 80.1615, 465.079 L 89.9028, 462.959 z "/>
<path style="fill:rgb(255, 177, 6);fill-opacity:1.0;fill-rule:evenodd;stroke:rgb(0, 0, 0);stroke-width:3.0;" d="M 143.511, 169.941 L 118.335, 176.897 L 105.258, 144.264 L 105.236, 93.1706 z "/>
<path style="fill:rgb(246, 209, 9);fill-opacity:1.0;fill-rule:evenodd;stroke:rgb(0, 0, 0);stroke-width:3.0;" d="M 471.439, 237.234 L 479.861, 262.736 L 472.656, 262.232 L 470.053, 250.931 L 467.816, 228.438 z "/>
<path style="fill:rgb(246, 209, 9);fill-opacity:1.0;fill-rule:evenodd;stroke:rgb(0, 0, 0);stroke-width:3.0;" d="M 450.671, 57.6547 L 433.669, 52.8464 L 450.352, 42.5597 z "/>
<path style="fill:rgb(57, 110, 255);fill-opacity:1.0;fill-rule:evenodd;stroke:rgb(0, 0, 0);stroke-width:3.0;" d="M 755.337, 288.34 L 743.777, 300.41 L 736.136, 302.742 L 730.447, 288.918 L 753.335, 286.884 z "/>
<path style="fill:rgb(57, 110, 255);fill-opacity:1.0;fill-rule:evenodd;stroke:rgb(0, 0, 0);stroke-width:3.0;" d="M 347.378, 82.266 L 340.748, 89.7458 L 324.214, 71.6594 L 324.718, 70.3939 z "/>
<path style="fill:rgb(57, 110, 255);fill-opacity:1.0;fill-rule:evenodd;stroke:rgb(0, 0, 0);stroke-width:3.0;" d="M 792.817, 301.037 L 791.896, 311.326 L 780.403, 295.121 L 785.892, 288.174 z "/>
<path style="fill:rgb(57, 110, 255);fill-opacity:1.0;fill-rule:evenodd;stroke:rgb(0, 0, 0);stroke-width:3.0;" d="M 181.206, 565.557 L 181.154, 566.674 L 144.575, 574.042 L 151.333, 555.77 z "/>
<path style="fill:rgb(255, 255, 43);fill-opacity:1.0;fill-rule:evenodd;stroke:rgb(0, 0, 0);stroke-width:3.0;" d="M 51.776, 480.769 L 53.4543, 482.974 L 43.9304, 488.208 L 30.759, 489.805 L 30.4463, 488.595 L 35.8495, 480.583 z "/>
<path style="fill:rgb(255, 255, 43);fill-opacity:1.0;fill-rule:evenodd;stroke:rgb(0, 0, 0);stroke-width:3.0;" d="M 707.019, 278.646 L 708.239, 294.934 L 708.059, 294.992 L 667.59, 275.884 z "/>
<path style="fill:rgb(255, 255, 43);fill-opacity:1.0;fill-rule:evenodd;stroke:rgb(0, 0, 0);stroke-width:3.0;" d="M 144.584, 295.706 L 84.4171, 297.418 L 105.19, 229.254 z "/>
<path style="fill:rgb(255, 255, 43);fill-opacity:1.0;fill-rule:evenodd;stroke:rgb(0, 0, 0);stroke-width:3.0;" d="M 133.066, 213.658 L 116.742, 240.46 L 107.108, 232.488 L 105.293, 229.427 L 105.258, 144.264 z "/>
<path style="fill:rgb(175, 38, 154);fill-opacity:1.0;fill-rule:evenodd;stroke:rgb(0, 0, 0);stroke-width:3.0;" d="M 526.873, 112.511 L 526.013, 113.35 L 495.144, 90.9813 L 505.278, 86.4762 z "/>
<path style="fill:rgb(21, 0, 255);fill-opacity:1.0;fill-rule:evenodd;stroke:rgb(0, 0, 0);stroke-width:3.0;" d="M 43.4503, 526.076 L 42.991, 528.235 L 30.5257, 539.501 L 24.9755, 526.107 L 27.0062, 519.929 z "/>
<path style="fill:rgb(21, 0, 255);fill-opacity:1.0;fill-rule:evenodd;stroke:rgb(0, 0, 0);stroke-width:3.0;" d="M 105.291, 224.589 L 103.621, 226.607 L 77.3417, 182.277 L 42.89, 119.268 L 61.2973, 105.05 L 105.231, 81.2206 z "/>
<path style="fill:rgb(249, 255, 47);fill-opacity:1.0;fill-rule:evenodd;stroke:rgb(0, 0, 0);stroke-width:3.0;" d="M 153.33, 189.634 L 155.942, 221.534 L 141.237, 234.049 L 118.335, 176.897 L 143.511, 169.941 z "/>
<path style="fill:rgb(255, 69, 13);fill-opacity:1.0;fill-rule:evenodd;stroke:rgb(0, 0, 0);stroke-width:3.0;" d="M 524.828, 247.047 L 512.272, 265.006 L 482.003, 262.886 L 465.115, 221.878 z "/>
<path style="fill:rgb(255, 69, 13);fill-opacity:1.0;fill-rule:evenodd;stroke:rgb(0, 0, 0);stroke-width:3.0;" d="M 737.567, 286.118 L 741.469, 287.939 L 720.737, 289.781 L 721.275, 279.999 L 721.329, 279.733 z "/>
<path style="fill:rgb(255, 228, 14);fill-opacity:1.0;fill-rule:evenodd;stroke:rgb(0, 0, 0);stroke-width:3.0;" d="M 741.892, 170.026 L 661.005, 219.778 L 660.923, 219.718 L 678.615, 133.576 z "/>
<path style="fill:rgb(6, 172, 255);fill-opacity:1.0;fill-rule:evenodd;stroke:rgb(0, 0, 0);stroke-width:3.0;" d="M 608.115, 271.719 L 577.795, 452.071 L 501.366, 481.737 L 176.291, 411.185 L 160.001, 240.334 z "/>
<path style="fill:rgb(82, 19, 226);fill-opacity:1.0;fill-rule:evenodd;stroke:rgb(0, 0, 0);stroke-width:3.0;" d="M 486.869, 69.7055 L 466.155, 72.4199 L 476.702, 38.9799 z "/>
<path style="fill:rgb(82, 19, 226);fill-opacity:1.0;fill-rule:evenodd;stroke:rgb(0, 0, 0);stroke-width:3.0;" d="M 415.814, 204.082 L 413.868, 207.604 L 392.633, 192.667 L 414.199, 190.584 z "/>
<path style="fill:rgb(82, 19, 226);fill-opacity:1.0;fill-rule:evenodd;stroke:rgb(0, 0, 0);stroke-width:3.0;" d="M 793.162, 171.844 L 770.185, 186.323 L 765.907, 183.859 L 765.775, 182.993 L 791.18, 165.161 z "/>
<path style="fill:rgb(19, 47, 172);fill-opacity:1.0;fill-rule:evenodd;stroke:rgb(0, 0, 0);stroke-width:3.0;" d="M 546.026, 57.2008 L 515.281, 39.4906 L 550.308, 29.709 z "/>
<path style="fill:rgb(19, 47, 172);fill-opacity:1.0;fill-rule:evenodd;stroke:rgb(0, 0, 0);stroke-width:3.0;" d="M 184.533, 497.622 L 133.94, 474.707 L 140.144, 452.026 L 179.372, 443.489 z "/>
<path style="fill:rgb(184, 0, 249);fill-opacity:1.0;fill-rule:evenodd;stroke:rgb(0, 0, 0);stroke-width:3.0;" d="M 577.099, 75.1001 L 572.037, 82.7492 L 559.369, 75.2267 L 556.989, 66.1853 L 557.465, 63.7899 z "/>
<path style="fill:rgb(255, 76, 10);fill-opacity:1.0;fill-rule:evenodd;stroke:rgb(0, 0, 0);stroke-width:3.0;" d="M 446.683, 208.34 L 443.079, 234.893 L 433.06, 241.157 L 432.344, 240.696 L 437.937, 198.361 z "/>
<path style="fill:rgb(255, 76, 10);fill-opacity:1.0;fill-rule:evenodd;stroke:rgb(0, 0, 0);stroke-width:3.0;" d="M 784.203, 170.059 L 765.157, 183.427 L 761.388, 181.256 L 765.532, 120.534 z "/>
<path style="fill:rgb(255, 76, 10);fill-opacity:1.0;fill-rule:evenodd;stroke:rgb(0, 0, 0);stroke-width:3.0;" d="M 770.789, 186.671 L 762.174, 255.812 L 732.28, 249.2 L 718.099, 184.661 L 741.892, 170.026 z "/>
<path style="fill:rgb(255, 76, 10);fill-opacity:1.0;fill-rule:evenodd;stroke:rgb(0, 0, 0);stroke-width:3.0;" d="M 330.855, 477.249 L 188.649, 495.404 L 261.578, 463.788 z "/>
<path style="fill:rgb(255, 76, 10);fill-opacity:1.0;fill-rule:evenodd;stroke:rgb(0, 0, 0);stroke-width:3.0;" d="M 47.0984, 514.582 L 41.2896, 514.458 L 27.0687, 505.283 L 45.5184, 497.183 z "/>
<path style="fill:rgb(207, 46, 9);fill-opacity:1.0;fill-rule:evenodd;stroke:rgb(0, 0, 0);stroke-width:3.0;" d="M 441.492, 246.584 L 439.682, 259.922 L 387.077, 256.238 L 342.53, 210.733 L 332.981, 176.734 z "/>
<path style="fill:rgb(207, 46, 9);fill-opacity:1.0;fill-rule:evenodd;stroke:rgb(0, 0, 0);stroke-width:3.0;" d="M 352.146, 162.378 L 338.175, 179.267 L 333.63, 177.152 L 332.814, 176.626 L 346.861, 154.033 z "/>
<path style="fill:rgb(207, 46, 9);fill-opacity:1.0;fill-rule:evenodd;stroke:rgb(0, 0, 0);stroke-width:3.0;" d="M 464.513, 76.9629 L 463.273, 86.0973 L 414.618, 101.421 L 438.696, 58.1991 z "/>
<path style="fill:rgb(22, 108, 243);fill-opacity:1.0;fill-rule:evenodd;stroke:rgb(0, 0, 0);stroke-width:3.0;" d="M 442.88, 47.1668 L 433.669, 52.8464 L 429.843, 51.7645 L 427.174, 49.8248 L 421.41, 34.8646 z "/>
<path style="fill:rgb(22, 108, 243);fill-opacity:1.0;fill-rule:evenodd;stroke:rgb(0, 0, 0);stroke-width:3.0;" d="M 158.26, 76.3626 L 214.178, 214.147 L 194.292, 242.736 L 160.001, 240.334 L 142.449, 56.2419 z "/>
<path style="fill:rgb(255, 249, 13);fill-opacity:1.0;fill-rule:evenodd;stroke:rgb(0, 0, 0);stroke-width:3.0;" d="M 731.555, 291.609 L 722.489, 301.805 L 721.027, 301.115 L 717.593, 295.005 L 717.119, 290.103 L 730.447, 288.918 z "/>
<path style="fill:rgb(255, 45, 58);fill-opacity:1.0;fill-rule:evenodd;stroke:rgb(0, 0, 0);stroke-width:3.0;" d="M 567.623, 96.1479 L 569.204, 98.3476 L 568.833, 98.4772 L 543.304, 96.4658 L 546.482, 93.3615 L 559.042, 91.4557 z "/>
<path style="fill:rgb(255, 45, 58);fill-opacity:1.0;fill-rule:evenodd;stroke:rgb(0, 0, 0);stroke-width:3.0;" d="M 791.896, 311.326 L 791.595, 314.693 L 774.866, 302.533 L 774.779, 302.241 L 780.403, 295.121 z "/>
<path style="fill:rgb(255, 45, 58);fill-opacity:1.0;fill-rule:evenodd;stroke:rgb(0, 0, 0);stroke-width:3.0;" d="M 140.602, 36.8664 L 147.174, 105.797 L 118.589, 34.4438 z "/>
<path style="fill:rgb(255, 75, 7);fill-opacity:1.0;fill-rule:evenodd;stroke:rgb(0, 0, 0);stroke-width:3.0;" d="M 137.993, 459.889 L 103.975, 459.897 L 140.144, 452.026 z "/>
<path style="fill:rgb(246, 28, 85);fill-opacity:1.0;fill-rule:evenodd;stroke:rgb(0, 0, 0);stroke-width:3.0;" d="M 578.428, 269.64 L 517.928, 265.402 L 540.527, 253.664 z "/>
<path style="fill:rgb(217, 5, 37);fill-opacity:1.0;fill-rule:evenodd;stroke:rgb(0, 0, 0);stroke-width:3.0;" d="M 533.656, 20.0384 L 503.623, 25.4725 L 493.987, 13.8281 z "/>
<path style="fill:rgb(217, 5, 37);fill-opacity:1.0;fill-rule:evenodd;stroke:rgb(0, 0, 0);stroke-width:3.0;" d="M 560.922, 81.124 L 560.14, 87.6583 L 544.144, 83.3908 L 542.553, 78.3111 L 558.947, 73.6227 z "/>
<path style="fill:rgb(217, 5, 37);fill-opacity:1.0;fill-rule:evenodd;stroke:rgb(0, 0, 0);stroke-width:3.0;" d="M 109.648, 33.4597 L 122.781, 44.9085 L 135.835, 77.4918 L 127.981, 84.7485 L 106.444, 33.107 z "/>
<path style="fill:rgb(217, 5, 37);fill-opacity:1.0;fill-rule:evenodd;stroke:rgb(0, 0, 0);stroke-width:3.0;" d="M 48.2606, 582.3 L 39.9148, 583.899 L 10.8891, 581.265 L 7.62103, 579.974 L 9.02969, 578.638 L 46.0869, 577.054 z "/>
<path style="fill:rgb(217, 5, 37);fill-opacity:1.0;fill-rule:evenodd;stroke:rgb(0, 0, 0);stroke-width:3.0;" d="M 540.527, 253.664 L 517.928, 265.402 L 512.272, 265.006 L 519.279, 254.983 L 526.932, 247.934 z "/>
<path style="fill:rgb(252, 255, 41);fill-opacity:1.0;fill-rule:evenodd;stroke:rgb(0, 0, 0);stroke-width:3.0;" d="M 134.679, 22.4959 L 136.56, 24.4375 L 124.875, 35.1355 L 120.118, 34.612 L 105.208, 24.9829 L 105.205, 19.0535 L 126.033, 18.9377 z "/>
<path style="fill:rgb(252, 255, 41);fill-opacity:1.0;fill-rule:evenodd;stroke:rgb(0, 0, 0);stroke-width:3.0;" d="M 113.326, 57.1861 L 113.192, 80.809 L 105.233, 84.2805 L 105.212, 35.2976 z "/>
<path style="fill:rgb(97, 74, 255);fill-opacity:1.0;fill-rule:evenodd;stroke:rgb(0, 0, 0);stroke-width:3.0;" d="M 437.937, 198.361 L 432.344, 240.696 L 405.229, 223.241 L 426.306, 185.091 z "/>
<path style="fill:rgb(249, 2, 255);fill-opacity:1.0;fill-rule:evenodd;stroke:rgb(0, 0, 0);stroke-width:3.0;" d="M 553.34, 132.341 L 552.019, 132.195 L 526.095, 113.41 L 578.042, 95.2598 z "/>
<path style="fill:rgb(255, 124, 25);fill-opacity:1.0;fill-rule:evenodd;stroke:rgb(0, 0, 0);stroke-width:3.0;" d="M 324.718, 70.3939 L 317.011, 89.7533 L 304.487, 84.3164 L 316.989, 66.3441 z "/>
<path style="fill:rgb(212, 2, 243);fill-opacity:1.0;fill-rule:evenodd;stroke:rgb(0, 0, 0);stroke-width:3.0;" d="M 340.748, 89.7458 L 334.148, 97.1931 L 317.011, 89.7533 L 324.214, 71.6594 z "/>
<path style="fill:rgb(45, 0, 165);fill-opacity:1.0;fill-rule:evenodd;stroke:rgb(0, 0, 0);stroke-width:3.0;" d="M 610.817, 20.8866 L 618.815, 26.8766 L 596.958, 35.4516 L 601.247, 18.4674 z "/>
<path style="fill:rgb(255, 197, 66);fill-opacity:1.0;fill-rule:evenodd;stroke:rgb(0, 0, 0);stroke-width:3.0;" d="M 137.43, 224.549 L 141.237, 234.049 L 132.696, 241.319 L 126.003, 225.254 L 128.21, 221.63 z "/>
<path style="fill:rgb(255, 197, 66);fill-opacity:1.0;fill-rule:evenodd;stroke:rgb(0, 0, 0);stroke-width:3.0;" d="M 138.013, 256.241 L 138.375, 257.111 L 135.262, 258.843 L 125.333, 256.83 L 120.292, 251.876 L 125.882, 247.119 z "/>
<path style="fill:rgb(255, 197, 66);fill-opacity:1.0;fill-rule:evenodd;stroke:rgb(0, 0, 0);stroke-width:3.0;" d="M 380.691, 207.446 L 337.738, 179.796 L 352.146, 162.378 z "/>
<path style="fill:rgb(255, 11, 24);fill-opacity:1.0;fill-rule:evenodd;stroke:rgb(0, 0, 0);stroke-width:3.0;" d="M 159.143, 555.36 L 161.755, 559.184 L 120.838, 545.78 L 117.868, 537.829 z "/>
<path style="fill:rgb(255, 25, 197);fill-opacity:1.0;fill-rule:evenodd;stroke:rgb(0, 0, 0);stroke-width:3.0;" d="M 141.199, 132.371 L 150.404, 157.203 L 143.223, 169.363 L 130.577, 143.998 L 135.331, 129.374 z "/>
<path style="fill:rgb(255, 25, 197);fill-opacity:1.0;fill-rule:evenodd;stroke:rgb(0, 0, 0);stroke-width:3.0;" d="M 356.627, 87.112 L 357.297, 94.5934 L 338.986, 91.7345 L 347.378, 82.266 z "/>
<path style="fill:rgb(255, 25, 197);fill-opacity:1.0;fill-rule:evenodd;stroke:rgb(0, 0, 0);stroke-width:3.0;" d="M 465.115, 221.878 L 467.816, 228.438 L 471.166, 262.127 L 439.682, 259.922 L 445.942, 213.797 z "/>
<path style="fill:rgb(255, 42, 21);fill-opacity:1.0;fill-rule:evenodd;stroke:rgb(0, 0, 0);stroke-width:3.0;" d="M 206.648, 243.601 L 194.292, 242.736 L 235.739, 183.15 L 255.009, 179.452 z "/>
<path style="fill:rgb(54, 228, 226);fill-opacity:1.0;fill-rule:evenodd;stroke:rgb(0, 0, 0);stroke-width:3.0;" d="M 261.582, 170.733 L 255.009, 179.452 L 235.739, 183.15 L 304.308, 84.5743 z "/>
<path style="fill:rgb(255, 21, 19);fill-opacity:1.0;fill-rule:evenodd;stroke:rgb(0, 0, 0);stroke-width:3.0;" d="M 255.879, 571.358 L 250.284, 579.195 L 232.641, 586.043 L 237.348, 563.22 z "/>
<path style="fill:rgb(255, 21, 19);fill-opacity:1.0;fill-rule:evenodd;stroke:rgb(0, 0, 0);stroke-width:3.0;" d="M 480.684, 489.765 L 262.726, 574.366 L 188.752, 541.878 L 184.373, 495.95 L 368.689, 472.419 z "/>
<path style="fill:rgb(252, 59, 207);fill-opacity:1.0;fill-rule:evenodd;stroke:rgb(0, 0, 0);stroke-width:3.0;" d="M 501.366, 481.737 L 480.684, 489.765 L 368.689, 472.419 L 425.193, 465.205 z "/>
<path style="fill:rgb(243, 55, 123);fill-opacity:1.0;fill-rule:evenodd;stroke:rgb(0, 0, 0);stroke-width:3.0;" d="M 478.627, 32.8753 L 476.02, 41.1423 L 465.073, 37.3693 L 461.68, 24.601 L 462.215, 21.7009 L 468.822, 21.5265 z "/>
<path style="fill:rgb(249, 26, 6);fill-opacity:1.0;fill-rule:evenodd;stroke:rgb(0, 0, 0);stroke-width:3.0;" d="M 678.615, 133.576 L 660.923, 219.718 L 570.108, 153.712 L 600.785, 88.7435 z "/>
<path style="fill:rgb(255, 172, 10);fill-opacity:1.0;fill-rule:evenodd;stroke:rgb(0, 0, 0);stroke-width:3.0;" d="M 552.637, 97.2012 L 558.511, 102.084 L 526.095, 113.41 L 526.013, 113.35 L 543.304, 96.4658 z "/>
<path style="fill:rgb(255, 172, 10);fill-opacity:1.0;fill-rule:evenodd;stroke:rgb(0, 0, 0);stroke-width:3.0;" d="M 160.139, 321.946 L 47.3331, 472.223 L 29.996, 475.996 L 84.4171, 297.418 L 144.584, 295.706 z "/>
<path style="fill:rgb(255, 172, 10);fill-opacity:1.0;fill-rule:evenodd;stroke:rgb(0, 0, 0);stroke-width:3.0;" d="M 414.199, 190.584 L 392.633, 192.667 L 376.655, 181.429 L 412.978, 180.385 z "/>
<path style="fill:rgb(255, 172, 10);fill-opacity:1.0;fill-rule:evenodd;stroke:rgb(0, 0, 0);stroke-width:3.0;" d="M 600.785, 88.7435 L 570.108, 153.712 L 549.219, 138.529 L 587.486, 81.0829 z "/>
<path style="fill:rgb(255, 56, 255);fill-opacity:1.0;fill-rule:evenodd;stroke:rgb(0, 0, 0);stroke-width:3.0;" d="M 236.21, 562.72 L 232.323, 586.167 L 218.116, 591.681 L 193.603, 551.696 L 188.882, 543.237 L 188.752, 541.878 z "/>
<path style="fill:rgb(255, 5, 255);fill-opacity:1.0;fill-rule:evenodd;stroke:rgb(0, 0, 0);stroke-width:3.0;" d="M 46.4647, 496.767 L 33.1979, 502.592 L 30.2223, 495.74 L 45.8082, 487.176 z "/>
<path style="fill:rgb(255, 5, 255);fill-opacity:1.0;fill-rule:evenodd;stroke:rgb(0, 0, 0);stroke-width:3.0;" d="M 12.9575, 497.105 L 11.159, 520.782 L 6.73493, 519.178 L 5.56312, 490.304 L 9.85619, 489.621 z "/>
<path style="fill:rgb(255, 43, 157);fill-opacity:1.0;fill-rule:evenodd;stroke:rgb(0, 0, 0);stroke-width:3.0;" d="M 134.62, 8.36724 L 138.291, 12.6381 L 138.885, 18.8663 L 134.121, 18.8927 L 120.759, 10.7859 L 118.112, 8.11808 z "/>
<path style="fill:rgb(72, 3, 255);fill-opacity:1.0;fill-rule:evenodd;stroke:rgb(0, 0, 0);stroke-width:3.0;" d="M 579.75, 27.2837 L 585.427, 33.4795 L 584.168, 43.5971 L 574.627, 47.3334 L 562.981, 27.7677 L 571.886, 21.58 z "/>
<path style="fill:rgb(102, 199, 18);fill-opacity:1.0;fill-rule:evenodd;stroke:rgb(0, 0, 0);stroke-width:3.0;" d="M 90.6267, 535.883 L 77.33, 545.631 L 70.2586, 540.233 L 79.6331, 532.282 z "/>
<path style="fill:rgb(255, 152, 12);fill-opacity:1.0;fill-rule:evenodd;stroke:rgb(0, 0, 0);stroke-width:3.0;" d="M 413.868, 207.604 L 405.229, 223.241 L 380.691, 207.446 L 354.217, 165.647 z "/>
<path style="fill:rgb(255, 152, 12);fill-opacity:1.0;fill-rule:evenodd;stroke:rgb(0, 0, 0);stroke-width:3.0;" d="M 124.972, 88.5988 L 134.164, 113.395 L 114.086, 95.8561 L 124.242, 87.9104 z "/>
<path style="fill:rgb(255, 152, 12);fill-opacity:1.0;fill-rule:evenodd;stroke:rgb(0, 0, 0);stroke-width:3.0;" d="M 261.578, 463.788 L 188.649, 495.404 L 184.373, 495.95 L 179.792, 447.896 z "/>
<path style="fill:rgb(255, 152, 12);fill-opacity:1.0;fill-rule:evenodd;stroke:rgb(0, 0, 0);stroke-width:3.0;" d="M 69.9632, 529.114 L 72.2458, 538.547 L 70.2586, 540.233 L 49.4039, 524.313 L 48.1615, 521.972 z "/>
<path style="fill:rgb(255, 243, 43);fill-opacity:1.0;fill-rule:evenodd;stroke:rgb(0, 0, 0);stroke-width:3.0;" d="M 551.382, 22.8136 L 550.308, 29.709 L 515.281, 39.4906 L 515.172, 39.4278 L 503.623, 25.4725 L 533.656, 20.0384 z "/>
<path style="fill:rgb(255, 121, 33);fill-opacity:1.0;fill-rule:evenodd;stroke:rgb(0, 0, 0);stroke-width:3.0;" d="M 737.497, 250.354 L 766.158, 273.116 L 771.763, 292.051 L 767.227, 296.982 L 722.065, 264.157 L 722.475, 247.031 z "/>
<path style="fill:rgb(117, 255, 20);fill-opacity:1.0;fill-rule:evenodd;stroke:rgb(0, 0, 0);stroke-width:3.0;" d="M 74.3727, 71.9911 L 26.1828, 88.7119 L 15.9946, 70.0786 L 74.3135, 70.0161 z "/>
<path style="fill:rgb(117, 255, 20);fill-opacity:1.0;fill-rule:evenodd;stroke:rgb(0, 0, 0);stroke-width:3.0;" d="M 684.49, 277.068 L 578.428, 269.64 L 508.419, 240.131 L 522.288, 229.36 z "/>
<path style="fill:rgb(66, 255, 212);fill-opacity:1.0;fill-rule:evenodd;stroke:rgb(0, 0, 0);stroke-width:3.0;" d="M 46.2385, 543.499 L 47.375, 567.59 L 44.692, 569.557 L 42.5672, 568.56 L 37.1783, 555.555 L 39.9834, 542.371 z "/>
<path style="fill:rgb(66, 255, 212);fill-opacity:1.0;fill-rule:evenodd;stroke:rgb(0, 0, 0);stroke-width:3.0;" d="M 152.654, 163.271 L 154.32, 180.747 L 147.687, 178.317 L 143.223, 169.363 L 150.404, 157.203 z "/>
<path style="fill:rgb(255, 2, 59);fill-opacity:1.0;fill-rule:evenodd;stroke:rgb(0, 0, 0);stroke-width:3.0;" d="M 760.957, 255.543 L 766.158, 273.116 L 748.31, 258.941 L 759.062, 255.124 z "/>
<path style="fill:rgb(255, 2, 59);fill-opacity:1.0;fill-rule:evenodd;stroke:rgb(0, 0, 0);stroke-width:3.0;" d="M 103.53, 460.934 L 191.045, 568.779 L 189.704, 568.34 L 117.868, 537.829 L 89.9028, 462.959 L 102.127, 460.299 z "/>
<path style="fill:rgb(255, 2, 59);fill-opacity:1.0;fill-rule:evenodd;stroke:rgb(0, 0, 0);stroke-width:3.0;" d="M 522.288, 229.36 L 508.419, 240.131 L 492.61, 233.467 L 484.891, 218.361 z "/>
<path style="fill:rgb(255, 88, 8);fill-opacity:1.0;fill-rule:evenodd;stroke:rgb(0, 0, 0);stroke-width:3.0;" d="M 92.0968, 561.885 L 84.4567, 588.211 L 77.593, 584.991 L 74.1685, 571.938 L 90.7649, 561.371 z "/>
<path style="fill:rgb(237, 165, 6);fill-opacity:1.0;fill-rule:evenodd;stroke:rgb(0, 0, 0);stroke-width:3.0;" d="M 489.611, 77.994 L 465.653, 74.0127 L 466.155, 72.4199 L 486.869, 69.7055 z "/>
<path style="fill:rgb(92, 240, 255);fill-opacity:1.0;fill-rule:evenodd;stroke:rgb(0, 0, 0);stroke-width:3.0;" d="M 765.532, 120.534 L 761.388, 181.256 L 750.023, 174.709 L 751.624, 130.41 L 761.2, 109.044 z "/>
<path style="fill:rgb(192, 255, 9);fill-opacity:1.0;fill-rule:evenodd;stroke:rgb(0, 0, 0);stroke-width:3.0;" d="M 105.19, 229.254 L 98.2834, 251.917 L 82.5353, 238.439 L 104.48, 228.056 z "/>
<path style="fill:rgb(37, 192, 8);fill-opacity:1.0;fill-rule:evenodd;stroke:rgb(0, 0, 0);stroke-width:3.0;" d="M 788.245, 562.799 L 790.508, 588.772 L 757.535, 557.686 L 764.153, 550.579 z "/>
<path style="fill:rgb(231, 124, 18);fill-opacity:1.0;fill-rule:evenodd;stroke:rgb(0, 0, 0);stroke-width:3.0;" d="M 788.245, 562.799 L 764.153, 550.579 L 785.211, 527.965 z "/>
<path style="fill:rgb(252, 226, 24);fill-opacity:1.0;fill-rule:evenodd;stroke:rgb(0, 0, 0);stroke-width:3.0;" d="M 124.242, 87.9104 L 113.103, 96.6259 L 113.211, 77.5066 z "/>
<path style="fill:rgb(255, 40, 7);fill-opacity:1.0;fill-rule:evenodd;stroke:rgb(0, 0, 0);stroke-width:3.0;" d="M 337.634, 252.775 L 287.646, 249.274 L 318.568, 199.539 z "/>
<path style="fill:rgb(237, 128, 25);fill-opacity:1.0;fill-rule:evenodd;stroke:rgb(0, 0, 0);stroke-width:3.0;" d="M 498.088, 29.5871 L 499.048, 42.0899 L 492.088, 42.3172 L 489.86, 40.161 L 492.039, 26.103 z "/>
<path style="fill:rgb(110, 103, 255);fill-opacity:1.0;fill-rule:evenodd;stroke:rgb(0, 0, 0);stroke-width:3.0;" d="M 180.861, 572.927 L 180.463, 581.444 L 162.806, 579.377 L 160.166, 570.982 z "/>
<path style="fill:rgb(255, 255, 19);fill-opacity:1.0;fill-rule:evenodd;stroke:rgb(0, 0, 0);stroke-width:3.0;" d="M 169.248, 337.31 L 179.372, 443.489 L 47.3331, 472.223 L 160.139, 321.946 z "/>
<path style="fill:rgb(8, 1, 184);fill-opacity:1.0;fill-rule:evenodd;stroke:rgb(0, 0, 0);stroke-width:3.0;" d="M 556.997, 66.2153 L 558.947, 73.6227 L 542.553, 78.3111 L 540.241, 70.9329 L 553.481, 65.0467 z "/>
<path style="fill:rgb(255, 1, 50);fill-opacity:1.0;fill-rule:evenodd;stroke:rgb(0, 0, 0);stroke-width:3.0;" d="M 135.331, 129.374 L 130.577, 143.998 L 120.984, 124.756 L 124.223, 123.699 z "/>
<path style="fill:rgb(255, 24, 194);fill-opacity:1.0;fill-rule:evenodd;stroke:rgb(0, 0, 0);stroke-width:3.0;" d="M 712.669, 244.862 L 722.088, 263.19 L 722.065, 264.157 L 706.066, 252.529 L 711.53, 244.61 z "/>
<path style="fill:rgb(255, 24, 194);fill-opacity:1.0;fill-rule:evenodd;stroke:rgb(0, 0, 0);stroke-width:3.0;" d="M 71.0747, 506.131 L 77.3722, 514.407 L 55.6466, 510.832 L 50.1332, 501.249 L 53.1161, 498.29 z "/>
<path style="fill:rgb(255, 105, 102);fill-opacity:1.0;fill-rule:evenodd;stroke:rgb(0, 0, 0);stroke-width:3.0;" d="M 732.28, 249.2 L 688.016, 239.41 L 661.005, 219.778 L 718.099, 184.661 z "/>
<path style="fill:rgb(157, 16, 32);fill-opacity:1.0;fill-rule:evenodd;stroke:rgb(0, 0, 0);stroke-width:3.0;" d="M 184.533, 497.622 L 191.326, 568.872 L 191.045, 568.779 L 137.917, 503.31 L 162.936, 487.84 z "/>
<path style="fill:rgb(29, 97, 217);fill-opacity:1.0;fill-rule:evenodd;stroke:rgb(0, 0, 0);stroke-width:3.0;" d="M 162.936, 487.84 L 137.917, 503.31 L 103.53, 460.934 z "/>
<path style="fill:rgb(255, 182, 7);fill-opacity:1.0;fill-rule:evenodd;stroke:rgb(0, 0, 0);stroke-width:3.0;" d="M 346.973, 215.273 L 343.651, 253.197 L 337.634, 252.775 L 318.568, 199.539 L 323.618, 191.416 z "/>
<path style="fill:rgb(98, 255, 199);fill-opacity:1.0;fill-rule:evenodd;stroke:rgb(0, 0, 0);stroke-width:3.0;" d="M 441.986, 19.4405 L 423.656, 19.6212 L 424.999, 14.5431 L 434.123, 10.091 z "/>
<path style="fill:rgb(255, 228, 21);fill-opacity:1.0;fill-rule:evenodd;stroke:rgb(0, 0, 0);stroke-width:3.0;" d="M 363.372, 232.024 L 345.392, 233.32 L 346.973, 215.273 z "/>
<path style="fill:rgb(223, 5, 117);fill-opacity:1.0;fill-rule:evenodd;stroke:rgb(0, 0, 0);stroke-width:3.0;" d="M 551.976, 19.0031 L 551.382, 22.8136 L 493.987, 13.8281 L 489.289, 8.15164 z "/>
<path style="fill:rgb(255, 6, 70);fill-opacity:1.0;fill-rule:evenodd;stroke:rgb(0, 0, 0);stroke-width:3.0;" d="M 643.274, 16.8501 L 610.187, 14.9484 L 606.637, 9.10006 L 622.381, 7.23442 z "/>
<path style="fill:rgb(228, 0, 10);fill-opacity:1.0;fill-rule:evenodd;stroke:rgb(0, 0, 0);stroke-width:3.0;" d="M 563.889, 51.5385 L 555.504, 54.822 L 554.017, 53.1997 L 551.755, 40.6486 L 565.443, 38.8837 z "/>
<path style="fill:rgb(102, 192, 255);fill-opacity:1.0;fill-rule:evenodd;stroke:rgb(0, 0, 0);stroke-width:3.0;" d="M 448.481, 27.1623 L 446.892, 38.6012 L 421.011, 29.622 L 423.656, 19.6212 L 441.986, 19.4405 z "/>
</svg>