<?xml version="1.0" encoding="iso-8859-1" standalone="no"?>
<!DOCTYPE svg PUBLIC "-//W3C//DTD SVG 1.0//EN" "http://www.w3.org/TR/2001/REC-SVG-20010904/DTD/svg10.dtd">
<svg xmlns="http://www.w3.org/2000/svg" width="800" height="600">
<path style="fill:rgb(0, 0, 0);fill-opacity:0.0;fill-rule:evenodd;stroke:rgb(0, 0, 0);stroke-width:0.0;" d="M 0, 600 L 800, 600 L 800, 0 L 0, 0 z "/>
<path style="fill:rgb(223, 1, 28);fill-opacity:1.0;fill-rule:evenodd;stroke:rgb(0, 0, 0);stroke-width:3.0;" d="M 663.658, 289.181 L 269.666, 369.309 L 295.413, 258.01 L 480.181, 229.804 z "/>
<path style="fill:rgb(255, 182, 8);fill-opacity:1.0;fill-rule:evenodd;stroke:rgb(0, 0, 0);stroke-width:3.0;" d="M 606.674, 247.127 L 591.971, 251.911 L 571.701, 235.375 L 574.677, 232.29 z "/>
<path style="fill:rgb(228, 142, 255);fill-opacity:1.0;fill-rule:evenodd;stroke:rgb(0, 0, 0);stroke-width:3.0;" d="M 340.926, 61.2648 L 334.337, 89.7489 L 332.274, 85.752 L 337.706, 53.1172 L 338.006, 52.9871 z "/>
<path style="fill:rgb(228, 142, 255);fill-opacity:1.0;fill-rule:evenodd;stroke:rgb(0, 0, 0);stroke-width:3.0;" d="M 634.61, 260.08 L 549.866, 220.785 L 611.936, 219.353 z "/>
<path style="fill:rgb(228, 142, 255);fill-opacity:1.0;fill-rule:evenodd;stroke:rgb(0, 0, 0);stroke-width:3.0;" d="M 283.901, 529.624 L 276.23, 520.549 L 275.952, 489.609 L 314.778, 488.843 z "/>
<path style="fill:rgb(228, 142, 255);fill-opacity:1.0;fill-rule:evenodd;stroke:rgb(0, 0, 0);stroke-width:3.0;" d="M 77.6815, 458.288 L 64.7872, 463.48 L 55.2807, 463.898 L 65.6189, 454.791 L 71.9612, 453.517 z "/>
<path style="fill:rgb(228, 142, 255);fill-opacity:1.0;fill-rule:evenodd;stroke:rgb(0, 0, 0);stroke-width:3.0;" d="M 773.008, 257.676 L 759.689, 263.262 L 788.017, 216.124 z "/>
<path style="fill:rgb(228, 142, 255);fill-opacity:1.0;fill-rule:evenodd;stroke:rgb(0, 0, 0);stroke-width:3.0;" d="M 410.025, 240.513 L 383.883, 244.504 L 401.296, 226.268 z "/>
<path style="fill:rgb(228, 142, 255);fill-opacity:1.0;fill-rule:evenodd;stroke:rgb(0, 0, 0);stroke-width:3.0;" d="M 215.525, 136.4 L 207.659, 144.406 L 208.438, 126.397 L 213.516, 124.378 z "/>
<path style="fill:rgb(228, 142, 255);fill-opacity:1.0;fill-rule:evenodd;stroke:rgb(0, 0, 0);stroke-width:3.0;" d="M 369.895, 56.2144 L 361.528, 60.8865 L 355.347, 51.9654 L 354.947, 48.5357 L 358.641, 46.7197 z "/>
<path style="fill:rgb(228, 142, 255);fill-opacity:1.0;fill-rule:evenodd;stroke:rgb(0, 0, 0);stroke-width:3.0;" d="M 251.285, 394.106 L 236.699, 479.99 L 229.515, 430.895 L 236.161, 393.747 z "/>
<path style="fill:rgb(246, 22, 207);fill-opacity:1.0;fill-rule:evenodd;stroke:rgb(0, 0, 0);stroke-width:3.0;" d="M 176.487, 441.331 L 176.804, 441.882 L 128.778, 495.725 L 102.489, 466.282 L 120.813, 440.918 L 121.382, 440.688 z "/>
<path style="fill:rgb(246, 22, 207);fill-opacity:1.0;fill-rule:evenodd;stroke:rgb(0, 0, 0);stroke-width:3.0;" d="M 281.466, 318.298 L 279.186, 328.154 L 266.633, 314.325 L 276.048, 298.615 z "/>
<path style="fill:rgb(246, 22, 207);fill-opacity:1.0;fill-rule:evenodd;stroke:rgb(0, 0, 0);stroke-width:3.0;" d="M 396.208, 7.02004 L 400.974, 24.7158 L 400.898, 34.1456 L 399.766, 35.0681 L 383.185, 13.5402 L 383.19, 6.98268 z "/>
<path style="fill:rgb(207, 119, 7);fill-opacity:1.0;fill-rule:evenodd;stroke:rgb(0, 0, 0);stroke-width:3.0;" d="M 220.975, 390.56 L 208.542, 396.735 L 210.602, 386.227 L 227.11, 378.903 z "/>
<path style="fill:rgb(207, 119, 7);fill-opacity:1.0;fill-rule:evenodd;stroke:rgb(0, 0, 0);stroke-width:3.0;" d="M 360.939, 115.456 L 355.885, 120.12 L 350.709, 116.002 L 351.131, 107.874 L 353.365, 97.4373 L 362.452, 96.6554 z "/>
<path style="fill:rgb(207, 119, 7);fill-opacity:1.0;fill-rule:evenodd;stroke:rgb(0, 0, 0);stroke-width:3.0;" d="M 267.726, 281.445 L 258.739, 305.63 L 252.423, 298.672 L 250.989, 252.577 z "/>
<path style="fill:rgb(207, 119, 7);fill-opacity:1.0;fill-rule:evenodd;stroke:rgb(0, 0, 0);stroke-width:3.0;" d="M 377.876, 85.1431 L 374.563, 96.6733 L 364.224, 111.594 L 361.063, 113.91 L 363.315, 85.9299 L 374.544, 81.7245 z "/>
<path style="fill:rgb(207, 119, 7);fill-opacity:1.0;fill-rule:evenodd;stroke:rgb(0, 0, 0);stroke-width:3.0;" d="M 184.297, 454.916 L 184.092, 455.227 L 165.613, 475.492 L 154.406, 479.161 L 157.701, 473.531 L 180.705, 448.668 z "/>
<path style="fill:rgb(207, 119, 7);fill-opacity:1.0;fill-rule:evenodd;stroke:rgb(0, 0, 0);stroke-width:3.0;" d="M 45.1075, 422.347 L 46.0954, 427.573 L 22.1188, 420.907 L 26.8297, 417.538 z "/>
<path style="fill:rgb(172, 255, 82);fill-opacity:1.0;fill-rule:evenodd;stroke:rgb(0, 0, 0);stroke-width:3.0;" d="M 762.833, 339.494 L 760.96, 341.488 L 735.486, 274.572 L 741.371, 273.376 z "/>
<path style="fill:rgb(172, 255, 82);fill-opacity:1.0;fill-rule:evenodd;stroke:rgb(0, 0, 0);stroke-width:3.0;" d="M 346.841, 118.853 L 347.134, 126.553 L 346.696, 128.599 L 319.556, 153.644 L 324.142, 133.818 L 340.558, 112.928 z "/>
<path style="fill:rgb(172, 255, 82);fill-opacity:1.0;fill-rule:evenodd;stroke:rgb(0, 0, 0);stroke-width:3.0;" d="M 93.9516, 391.605 L 92.8478, 419.471 L 88.1765, 423.952 L 87.1168, 422.692 L 86.8041, 393.674 L 89.8401, 389.406 z "/>
<path style="fill:rgb(66, 231, 255);fill-opacity:1.0;fill-rule:evenodd;stroke:rgb(0, 0, 0);stroke-width:3.0;" d="M 65.9271, 519.959 L 61.1251, 528.702 L 29.3299, 481.906 L 26.2535, 467.714 z "/>
<path style="fill:rgb(66, 231, 255);fill-opacity:1.0;fill-rule:evenodd;stroke:rgb(0, 0, 0);stroke-width:3.0;" d="M 220.113, 458.125 L 196.546, 472.302 L 193.964, 471.1 L 203.153, 424.222 L 217.786, 416.798 z "/>
<path style="fill:rgb(163, 37, 60);fill-opacity:1.0;fill-rule:evenodd;stroke:rgb(0, 0, 0);stroke-width:3.0;" d="M 192.738, 358.448 L 153.716, 347.374 L 113.82, 294.459 L 139.969, 225.919 z "/>
<path style="fill:rgb(163, 37, 60);fill-opacity:1.0;fill-rule:evenodd;stroke:rgb(0, 0, 0);stroke-width:3.0;" d="M 354.71, 234.941 L 351.079, 249.512 L 295.413, 258.01 L 297.01, 251.108 L 327.475, 225.917 L 335.149, 225.74 z "/>
<path style="fill:rgb(163, 37, 60);fill-opacity:1.0;fill-rule:evenodd;stroke:rgb(0, 0, 0);stroke-width:3.0;" d="M 336.552, 60.0539 L 328.357, 55.9228 L 323.604, 48.145 L 341.742, 16.3837 L 344.217, 14.0048 z "/>
<path style="fill:rgb(163, 37, 60);fill-opacity:1.0;fill-rule:evenodd;stroke:rgb(0, 0, 0);stroke-width:3.0;" d="M 110.393, 521.163 L 69.9678, 523.56 L 71.1775, 499.346 z "/>
<path style="fill:rgb(54, 189, 255);fill-opacity:1.0;fill-rule:evenodd;stroke:rgb(0, 0, 0);stroke-width:3.0;" d="M 48.1481, 470.181 L 32.8158, 476.356 L 22.9445, 463.357 L 65.6189, 454.791 z "/>
<path style="fill:rgb(54, 189, 255);fill-opacity:1.0;fill-rule:evenodd;stroke:rgb(0, 0, 0);stroke-width:3.0;" d="M 143.776, 588 L 128.083, 576.139 L 144.405, 557.466 z "/>
<path style="fill:rgb(54, 189, 255);fill-opacity:1.0;fill-rule:evenodd;stroke:rgb(0, 0, 0);stroke-width:3.0;" d="M 152.534, 385.02 L 152.103, 392.547 L 150.196, 395.597 L 137.463, 373.447 L 136.664, 365.776 L 141.793, 356.683 z "/>
<path style="fill:rgb(54, 189, 255);fill-opacity:1.0;fill-rule:evenodd;stroke:rgb(0, 0, 0);stroke-width:3.0;" d="M 279.186, 328.154 L 273.184, 354.1 L 213.268, 372.626 L 232.144, 276.333 z "/>
<path style="fill:rgb(54, 189, 255);fill-opacity:1.0;fill-rule:evenodd;stroke:rgb(0, 0, 0);stroke-width:3.0;" d="M 236.203, 115.356 L 208.438, 126.397 L 209.071, 111.753 L 248.644, 102.695 z "/>
<path style="fill:rgb(255, 209, 11);fill-opacity:1.0;fill-rule:evenodd;stroke:rgb(0, 0, 0);stroke-width:3.0;" d="M 565.787, 241.506 L 554.023, 253.7 L 547.768, 251.676 L 559.097, 234.06 z "/>
<path style="fill:rgb(217, 57, 47);fill-opacity:1.0;fill-rule:evenodd;stroke:rgb(0, 0, 0);stroke-width:3.0;" d="M 196.095, 411.656 L 195.509, 425.204 L 169.139, 428.548 L 151.771, 398.336 L 153.879, 361.547 z "/>
<path style="fill:rgb(255, 6, 255);fill-opacity:1.0;fill-rule:evenodd;stroke:rgb(0, 0, 0);stroke-width:3.0;" d="M 152.534, 385.02 L 145.405, 366.211 L 154.061, 358.372 z "/>
<path style="fill:rgb(255, 128, 25);fill-opacity:1.0;fill-rule:evenodd;stroke:rgb(0, 0, 0);stroke-width:3.0;" d="M 321.188, 146.588 L 317.753, 161.44 L 257.614, 146.405 L 260.726, 130.527 z "/>
<path style="fill:rgb(255, 8, 8);fill-opacity:1.0;fill-rule:evenodd;stroke:rgb(0, 0, 0);stroke-width:3.0;" d="M 235.912, 502.814 L 231.644, 521.071 L 221.566, 515.718 L 235.258, 502.754 z "/>
<path style="fill:rgb(255, 8, 8);fill-opacity:1.0;fill-rule:evenodd;stroke:rgb(0, 0, 0);stroke-width:3.0;" d="M 277.859, 43.1305 L 272.859, 68.6359 L 268.875, 63.729 L 269.266, 42.6289 z "/>
<path style="fill:rgb(255, 8, 8);fill-opacity:1.0;fill-rule:evenodd;stroke:rgb(0, 0, 0);stroke-width:3.0;" d="M 72.574, 260.571 L 56.9331, 269.451 L 45.8835, 214.143 z "/>
<path style="fill:rgb(255, 8, 8);fill-opacity:1.0;fill-rule:evenodd;stroke:rgb(0, 0, 0);stroke-width:3.0;" d="M 287.172, 59.734 L 288.11, 61.0114 L 283.207, 72.6299 L 269.493, 85.808 L 272.229, 71.848 L 283.784, 59.1766 z "/>
<path style="fill:rgb(255, 8, 8);fill-opacity:1.0;fill-rule:evenodd;stroke:rgb(0, 0, 0);stroke-width:3.0;" d="M 58.3531, 492.211 L 70.1102, 520.71 L 69.9678, 523.56 L 68.7176, 523.634 L 34.9818, 479.208 z "/>
<path style="fill:rgb(255, 8, 8);fill-opacity:1.0;fill-rule:evenodd;stroke:rgb(0, 0, 0);stroke-width:3.0;" d="M 270.432, 365.998 L 262.915, 369.731 L 244.319, 371.871 L 236.247, 365.521 L 273.184, 354.1 z "/>
<path style="fill:rgb(255, 8, 8);fill-opacity:1.0;fill-rule:evenodd;stroke:rgb(0, 0, 0);stroke-width:3.0;" d="M 188.793, 149.816 L 186.855, 167.356 L 167.8, 165.919 L 164.217, 162.363 L 167.024, 155.006 L 185.803, 149.275 z "/>
<path style="fill:rgb(243, 252, 22);fill-opacity:1.0;fill-rule:evenodd;stroke:rgb(0, 0, 0);stroke-width:3.0;" d="M 290.884, 190.737 L 274.771, 192.657 L 250.436, 183.022 L 256.532, 151.927 z "/>
<path style="fill:rgb(168, 204, 25);fill-opacity:1.0;fill-rule:evenodd;stroke:rgb(0, 0, 0);stroke-width:3.0;" d="M 200.971, 174.513 L 199.492, 188.178 L 194.418, 192.346 L 186.899, 184.881 L 185.636, 171.776 z "/>
<path style="fill:rgb(168, 204, 25);fill-opacity:1.0;fill-rule:evenodd;stroke:rgb(0, 0, 0);stroke-width:3.0;" d="M 252.76, 385.419 L 251.285, 394.106 L 238.048, 393.792 L 247.484, 377.397 z "/>
<path style="fill:rgb(228, 2, 157);fill-opacity:1.0;fill-rule:evenodd;stroke:rgb(0, 0, 0);stroke-width:3.0;" d="M 268.875, 63.729 L 246.609, 36.3096 L 256.657, 28.5579 L 269.605, 24.3249 z "/>
<path style="fill:rgb(226, 15, 194);fill-opacity:1.0;fill-rule:evenodd;stroke:rgb(0, 0, 0);stroke-width:3.0;" d="M 69.6905, 391.457 L 70.5076, 402.651 L 49.1149, 377.996 z "/>
<path style="fill:rgb(47, 43, 223);fill-opacity:1.0;fill-rule:evenodd;stroke:rgb(0, 0, 0);stroke-width:3.0;" d="M 163.702, 463.277 L 154.406, 479.161 L 139.076, 484.179 L 159.951, 460.777 z "/>
<path style="fill:rgb(47, 43, 223);fill-opacity:1.0;fill-rule:evenodd;stroke:rgb(0, 0, 0);stroke-width:3.0;" d="M 617.473, 252.134 L 614.692, 263.422 L 600.223, 258.883 L 612.025, 249.608 z "/>
<path style="fill:rgb(47, 43, 223);fill-opacity:1.0;fill-rule:evenodd;stroke:rgb(0, 0, 0);stroke-width:3.0;" d="M 317.753, 161.44 L 316.549, 166.641 L 273.381, 170.963 L 256.532, 151.927 L 257.614, 146.405 z "/>
<path style="fill:rgb(13, 215, 112);fill-opacity:1.0;fill-rule:evenodd;stroke:rgb(0, 0, 0);stroke-width:3.0;" d="M 687.091, 284.415 L 678.726, 286.116 L 652.975, 273.996 L 654.241, 269.183 z "/>
<path style="fill:rgb(13, 215, 112);fill-opacity:1.0;fill-rule:evenodd;stroke:rgb(0, 0, 0);stroke-width:3.0;" d="M 104.103, 533.134 L 79.9786, 538.463 L 68.7176, 523.634 L 90.8514, 522.322 L 109.114, 522.154 z "/>
<path style="fill:rgb(255, 95, 231);fill-opacity:1.0;fill-rule:evenodd;stroke:rgb(0, 0, 0);stroke-width:3.0;" d="M 29.9941, 484.97 L 30.0847, 485.388 L 6.29965, 474.155 L 15.7669, 469.69 z "/>
<path style="fill:rgb(255, 95, 231);fill-opacity:1.0;fill-rule:evenodd;stroke:rgb(0, 0, 0);stroke-width:3.0;" d="M 269.832, 190.701 L 262.856, 223.975 L 261.492, 222.14 L 262.779, 187.909 z "/>
<path style="fill:rgb(255, 95, 231);fill-opacity:1.0;fill-rule:evenodd;stroke:rgb(0, 0, 0);stroke-width:3.0;" d="M 147.296, 24.1625 L 120.801, 51.6174 L 120.647, 15.1317 L 120.716, 14.5536 L 127.882, 7.1961 z "/>
<path style="fill:rgb(255, 168, 10);fill-opacity:1.0;fill-rule:evenodd;stroke:rgb(0, 0, 0);stroke-width:3.0;" d="M 77.8251, 535.628 L 121.481, 593.117 L 42.4642, 542.495 L 38.5677, 524.52 z "/>
<path style="fill:rgb(246, 23, 189);fill-opacity:1.0;fill-rule:evenodd;stroke:rgb(0, 0, 0);stroke-width:3.0;" d="M 358.194, 138.094 L 351.198, 152.911 L 345.144, 156.067 L 330.368, 160.455 L 351.011, 130.663 z "/>
<path style="fill:rgb(15, 0, 255);fill-opacity:1.0;fill-rule:evenodd;stroke:rgb(0, 0, 0);stroke-width:3.0;" d="M 790.233, 287.151 L 774.945, 296.528 L 761.153, 290.179 L 748.67, 271.891 L 791.259, 263.23 z "/>
<path style="fill:rgb(15, 0, 255);fill-opacity:1.0;fill-rule:evenodd;stroke:rgb(0, 0, 0);stroke-width:3.0;" d="M 572.782, 534.019 L 461.703, 574.612 L 509.322, 446.564 z "/>
<path style="fill:rgb(15, 0, 255);fill-opacity:1.0;fill-rule:evenodd;stroke:rgb(0, 0, 0);stroke-width:3.0;" d="M 208.089, 537.723 L 166.35, 552.295 L 155.368, 546.185 L 193.734, 530.645 z "/>
<path style="fill:rgb(15, 0, 255);fill-opacity:1.0;fill-rule:evenodd;stroke:rgb(0, 0, 0);stroke-width:3.0;" d="M 369.451, 214.697 L 354.204, 222.33 L 338.177, 208.689 z "/>
<path style="fill:rgb(15, 0, 255);fill-opacity:1.0;fill-rule:evenodd;stroke:rgb(0, 0, 0);stroke-width:3.0;" d="M 547.768, 251.676 L 531.654, 246.461 L 560.974, 231.141 z "/>
<path style="fill:rgb(175, 255, 252);fill-opacity:1.0;fill-rule:evenodd;stroke:rgb(0, 0, 0);stroke-width:3.0;" d="M 134.167, 341.826 L 136.716, 366.28 L 119.417, 337.64 z "/>
<path style="fill:rgb(255, 64, 9);fill-opacity:1.0;fill-rule:evenodd;stroke:rgb(0, 0, 0);stroke-width:3.0;" d="M 350.854, 174.551 L 360.146, 184.506 L 328.122, 175.397 L 334.043, 169.694 z "/>
<path style="fill:rgb(255, 64, 9);fill-opacity:1.0;fill-rule:evenodd;stroke:rgb(0, 0, 0);stroke-width:3.0;" d="M 244.319, 371.871 L 212.703, 375.508 L 213.268, 372.626 L 236.247, 365.521 z "/>
<path style="fill:rgb(255, 64, 9);fill-opacity:1.0;fill-rule:evenodd;stroke:rgb(0, 0, 0);stroke-width:3.0;" d="M 274.572, 293.254 L 276.048, 298.615 L 266.633, 314.325 L 258.739, 305.63 L 267.726, 281.445 z "/>
<path style="fill:rgb(255, 64, 9);fill-opacity:1.0;fill-rule:evenodd;stroke:rgb(0, 0, 0);stroke-width:3.0;" d="M 470.033, 215.762 L 475.999, 222.49 L 417.095, 223.849 L 327.253, 206.591 L 323.047, 180.286 L 328.122, 175.397 z "/>
<path style="fill:rgb(255, 6, 8);fill-opacity:1.0;fill-rule:evenodd;stroke:rgb(0, 0, 0);stroke-width:3.0;" d="M 235.258, 502.754 L 220.066, 517.138 L 217.092, 511.965 L 225.53, 501.856 z "/>
<path style="fill:rgb(62, 9, 217);fill-opacity:1.0;fill-rule:evenodd;stroke:rgb(0, 0, 0);stroke-width:3.0;" d="M 57.8671, 552.363 L 75.0236, 563.354 L 36.6914, 553.732 L 51.7907, 550.71 z "/>
<path style="fill:rgb(62, 9, 217);fill-opacity:1.0;fill-rule:evenodd;stroke:rgb(0, 0, 0);stroke-width:3.0;" d="M 509.322, 446.564 L 461.703, 574.612 L 423.226, 588.673 L 419.393, 410.836 L 452.349, 368.05 z "/>
<path style="fill:rgb(62, 9, 217);fill-opacity:1.0;fill-rule:evenodd;stroke:rgb(0, 0, 0);stroke-width:3.0;" d="M 317.854, 224.17 L 303.846, 221.553 L 310.625, 192.251 L 313.094, 189.872 z "/>
<path style="fill:rgb(252, 179, 27);fill-opacity:1.0;fill-rule:evenodd;stroke:rgb(0, 0, 0);stroke-width:3.0;" d="M 194.308, 472.33 L 196.968, 532.239 L 126.986, 497.733 L 139.076, 484.179 L 191.293, 467.086 z "/>
<path style="fill:rgb(246, 172, 7);fill-opacity:1.0;fill-rule:evenodd;stroke:rgb(0, 0, 0);stroke-width:3.0;" d="M 417.095, 223.849 L 373.577, 224.853 L 374.622, 215.69 z "/>
<path style="fill:rgb(255, 3, 88);fill-opacity:1.0;fill-rule:evenodd;stroke:rgb(0, 0, 0);stroke-width:3.0;" d="M 422.485, 554.3 L 422.748, 566.497 L 345.599, 547.736 L 337.083, 397.564 z "/>
<path style="fill:rgb(255, 3, 88);fill-opacity:1.0;fill-rule:evenodd;stroke:rgb(0, 0, 0);stroke-width:3.0;" d="M 323.845, 135.102 L 321.21, 146.494 L 292.375, 137.368 L 293.365, 132.998 L 300.666, 132.406 z "/>
<path style="fill:rgb(255, 3, 88);fill-opacity:1.0;fill-rule:evenodd;stroke:rgb(0, 0, 0);stroke-width:3.0;" d="M 396.799, 133.188 L 470.033, 215.762 L 384.694, 191.489 L 381.469, 128.783 z "/>
<path style="fill:rgb(255, 3, 88);fill-opacity:1.0;fill-rule:evenodd;stroke:rgb(0, 0, 0);stroke-width:3.0;" d="M 464.822, 230.543 L 459.348, 232.984 L 450.901, 234.274 L 447.862, 223.139 L 457.166, 222.924 z "/>
<path style="fill:rgb(255, 3, 88);fill-opacity:1.0;fill-rule:evenodd;stroke:rgb(0, 0, 0);stroke-width:3.0;" d="M 272.859, 68.6359 L 267.006, 98.4914 L 220.885, 109.049 L 243.647, 32.6616 z "/>
<path style="fill:rgb(170, 175, 234);fill-opacity:1.0;fill-rule:evenodd;stroke:rgb(0, 0, 0);stroke-width:3.0;" d="M 347.545, 32.6535 L 343.381, 50.6545 L 337.706, 53.1172 L 342.277, 25.6622 z "/>
<path style="fill:rgb(70, 240, 204);fill-opacity:1.0;fill-rule:evenodd;stroke:rgb(0, 0, 0);stroke-width:3.0;" d="M 185.569, 562.988 L 166.35, 552.295 L 190.891, 543.727 z "/>
<path style="fill:rgb(70, 240, 204);fill-opacity:1.0;fill-rule:evenodd;stroke:rgb(0, 0, 0);stroke-width:3.0;" d="M 328.32, 213.261 L 314.903, 202.903 L 313.287, 191.257 L 323.827, 185.165 z "/>
<path style="fill:rgb(58, 246, 102);fill-opacity:1.0;fill-rule:evenodd;stroke:rgb(0, 0, 0);stroke-width:3.0;" d="M 205.124, 202.976 L 198.329, 360.035 L 192.738, 358.448 L 139.969, 225.919 L 164.217, 162.363 z "/>
<path style="fill:rgb(255, 14, 255);fill-opacity:1.0;fill-rule:evenodd;stroke:rgb(0, 0, 0);stroke-width:3.0;" d="M 49.1149, 377.996 L 56.1409, 386.094 L 60.6752, 403.319 L 35.8274, 373.261 L 35.8038, 373.136 L 41.5288, 373.034 z "/>
<path style="fill:rgb(255, 14, 255);fill-opacity:1.0;fill-rule:evenodd;stroke:rgb(0, 0, 0);stroke-width:3.0;" d="M 87.114, 422.432 L 87.2755, 437.413 L 68.7817, 425.685 L 68.8041, 423.625 L 79.9697, 417.336 z "/>
<path style="fill:rgb(255, 14, 255);fill-opacity:1.0;fill-rule:evenodd;stroke:rgb(0, 0, 0);stroke-width:3.0;" d="M 165.838, 350.814 L 164.87, 374.473 L 164.544, 374.205 L 153.879, 361.547 L 154.676, 347.647 z "/>
<path style="fill:rgb(255, 14, 255);fill-opacity:1.0;fill-rule:evenodd;stroke:rgb(0, 0, 0);stroke-width:3.0;" d="M 573.827, 535.458 L 527.391, 581.275 L 540.336, 545.876 L 572.782, 534.019 z "/>
<path style="fill:rgb(255, 14, 255);fill-opacity:1.0;fill-rule:evenodd;stroke:rgb(0, 0, 0);stroke-width:3.0;" d="M 275.521, 441.567 L 276.184, 515.437 L 250.512, 452.105 L 256.101, 427.948 z "/>
<path style="fill:rgb(52, 35, 212);fill-opacity:1.0;fill-rule:evenodd;stroke:rgb(0, 0, 0);stroke-width:3.0;" d="M 195.526, 463.13 L 194.188, 455.731 L 207.659, 144.406 L 248.644, 102.695 L 267.006, 98.4914 z "/>
<path style="fill:rgb(255, 252, 103);fill-opacity:1.0;fill-rule:evenodd;stroke:rgb(0, 0, 0);stroke-width:3.0;" d="M 87.2755, 437.413 L 87.3065, 440.291 L 73.1108, 440.126 L 63.7817, 427.422 L 66.2848, 424.101 z "/>
<path style="fill:rgb(255, 252, 27);fill-opacity:1.0;fill-rule:evenodd;stroke:rgb(0, 0, 0);stroke-width:3.0;" d="M 210.944, 62.9966 L 194.585, 97.3936 L 196.86, 76.8041 L 209.912, 42.5935 z "/>
<path style="fill:rgb(175, 105, 255);fill-opacity:1.0;fill-rule:evenodd;stroke:rgb(0, 0, 0);stroke-width:3.0;" d="M 118.346, 430.064 L 93.7516, 438.018 L 92.1871, 436.149 L 92.2022, 435.767 L 106.608, 411.586 L 115.812, 411.453 z "/>
<path style="fill:rgb(175, 105, 255);fill-opacity:1.0;fill-rule:evenodd;stroke:rgb(0, 0, 0);stroke-width:3.0;" d="M 215.525, 136.4 L 213.516, 124.378 L 236.203, 115.356 z "/>
<path style="fill:rgb(175, 105, 255);fill-opacity:1.0;fill-rule:evenodd;stroke:rgb(0, 0, 0);stroke-width:3.0;" d="M 246.935, 586.269 L 243.052, 594.42 L 231.509, 594.1 L 226.343, 589.566 L 243.266, 579.085 z "/>
<path style="fill:rgb(175, 105, 255);fill-opacity:1.0;fill-rule:evenodd;stroke:rgb(0, 0, 0);stroke-width:3.0;" d="M 180.705, 448.668 L 157.701, 473.531 L 175.113, 443.779 L 176.804, 441.882 z "/>
<path style="fill:rgb(175, 105, 255);fill-opacity:1.0;fill-rule:evenodd;stroke:rgb(0, 0, 0);stroke-width:3.0;" d="M 129.044, 208.788 L 135.08, 223.189 L 130.15, 246.41 L 121.098, 251.972 L 106.275, 182.433 z "/>
<path style="fill:rgb(246, 14, 168);fill-opacity:1.0;fill-rule:evenodd;stroke:rgb(0, 0, 0);stroke-width:3.0;" d="M 300.943, 234.104 L 295.435, 257.914 L 290.776, 232.973 z "/>
<path style="fill:rgb(255, 255, 57);fill-opacity:1.0;fill-rule:evenodd;stroke:rgb(0, 0, 0);stroke-width:3.0;" d="M 342.482, 110.481 L 324.142, 133.818 L 329.676, 109.898 L 339.918, 108.497 z "/>
<path style="fill:rgb(255, 255, 57);fill-opacity:1.0;fill-rule:evenodd;stroke:rgb(0, 0, 0);stroke-width:3.0;" d="M 106.148, 555.577 L 125.771, 578.784 L 117.651, 588.073 L 90.6941, 552.574 z "/>
<path style="fill:rgb(255, 255, 57);fill-opacity:1.0;fill-rule:evenodd;stroke:rgb(0, 0, 0);stroke-width:3.0;" d="M 217.607, 512.86 L 211.776, 536.436 L 208.089, 537.723 L 196.968, 532.239 L 194.839, 484.288 L 200.742, 483.523 z "/>
<path style="fill:rgb(255, 255, 57);fill-opacity:1.0;fill-rule:evenodd;stroke:rgb(0, 0, 0);stroke-width:3.0;" d="M 301.403, 232.115 L 300.943, 234.104 L 290.776, 232.973 L 285.372, 204.036 z "/>
<path style="fill:rgb(44, 240, 187);fill-opacity:1.0;fill-rule:evenodd;stroke:rgb(0, 0, 0);stroke-width:3.0;" d="M 361.267, 60.5106 L 358.174, 74.9677 L 350.811, 76.5626 L 345.753, 40.4015 L 346.149, 38.6888 z "/>
<path style="fill:rgb(44, 240, 187);fill-opacity:1.0;fill-rule:evenodd;stroke:rgb(0, 0, 0);stroke-width:3.0;" d="M 242.079, 37.924 L 220.885, 109.049 L 209.071, 111.753 L 212.339, 36.2308 L 219.825, 16.61 z "/>
<path style="fill:rgb(44, 240, 187);fill-opacity:1.0;fill-rule:evenodd;stroke:rgb(0, 0, 0);stroke-width:3.0;" d="M 290.425, 261.058 L 283.148, 268.983 L 271.198, 245.811 L 272.566, 237.036 z "/>
<path style="fill:rgb(228, 240, 13);fill-opacity:1.0;fill-rule:evenodd;stroke:rgb(0, 0, 0);stroke-width:3.0;" d="M 60.6752, 403.319 L 60.7585, 403.635 L 38.5793, 387.817 L 35.8274, 373.261 z "/>
<path style="fill:rgb(228, 240, 13);fill-opacity:1.0;fill-rule:evenodd;stroke:rgb(0, 0, 0);stroke-width:3.0;" d="M 272.566, 237.036 L 271.198, 245.811 L 253.327, 211.158 z "/>
<path style="fill:rgb(246, 237, 9);fill-opacity:1.0;fill-rule:evenodd;stroke:rgb(0, 0, 0);stroke-width:3.0;" d="M 335.338, 67.3448 L 326.287, 121.719 L 274.992, 127.826 L 267.817, 94.3569 L 269.493, 85.808 L 318.085, 39.115 z "/>
<path style="fill:rgb(246, 237, 9);fill-opacity:1.0;fill-rule:evenodd;stroke:rgb(0, 0, 0);stroke-width:3.0;" d="M 227.92, 530.799 L 211.776, 536.436 L 217.607, 512.86 z "/>
<path style="fill:rgb(255, 255, 10);fill-opacity:1.0;fill-rule:evenodd;stroke:rgb(0, 0, 0);stroke-width:3.0;" d="M 323.604, 48.145 L 318.085, 39.115 L 341.742, 16.3837 z "/>
<path style="fill:rgb(255, 255, 10);fill-opacity:1.0;fill-rule:evenodd;stroke:rgb(0, 0, 0);stroke-width:3.0;" d="M 190.859, 92.532 L 145.26, 212.053 L 102.35, 159.889 L 168.322, 86.4819 z "/>
<path style="fill:rgb(228, 6, 255);fill-opacity:1.0;fill-rule:evenodd;stroke:rgb(0, 0, 0);stroke-width:3.0;" d="M 168.322, 86.4819 L 102.35, 159.889 L 62.7605, 111.761 L 103.856, 69.1764 z "/>
<path style="fill:rgb(255, 255, 8);fill-opacity:1.0;fill-rule:evenodd;stroke:rgb(0, 0, 0);stroke-width:3.0;" d="M 340.344, 455.076 L 324.543, 475.945 L 256.101, 427.948 L 267.646, 378.038 L 285.941, 365.999 L 334.73, 356.076 z "/>
<path style="fill:rgb(255, 255, 8);fill-opacity:1.0;fill-rule:evenodd;stroke:rgb(0, 0, 0);stroke-width:3.0;" d="M 612.025, 249.608 L 600.223, 258.883 L 585.111, 254.143 L 606.674, 247.127 z "/>
<path style="fill:rgb(255, 255, 8);fill-opacity:1.0;fill-rule:evenodd;stroke:rgb(0, 0, 0);stroke-width:3.0;" d="M 228.881, 378.117 L 210.602, 386.227 L 212.703, 375.508 L 229.903, 373.529 z "/>
<path style="fill:rgb(255, 0, 10);fill-opacity:1.0;fill-rule:evenodd;stroke:rgb(0, 0, 0);stroke-width:3.0;" d="M 189.517, 143.259 L 187.89, 141.642 L 181.984, 123.038 L 192.052, 120.321 z "/>
<path style="fill:rgb(255, 0, 10);fill-opacity:1.0;fill-rule:evenodd;stroke:rgb(0, 0, 0);stroke-width:3.0;" d="M 116, 557.491 L 127.204, 577.144 L 125.771, 578.784 L 106.148, 555.577 z "/>
<path style="fill:rgb(255, 0, 10);fill-opacity:1.0;fill-rule:evenodd;stroke:rgb(0, 0, 0);stroke-width:3.0;" d="M 280.074, 194.756 L 285.372, 204.036 L 295.435, 257.914 L 294.902, 260.216 L 278.959, 245.636 L 262.856, 223.975 L 269.832, 190.701 z "/>
<path style="fill:rgb(255, 3, 44);fill-opacity:1.0;fill-rule:evenodd;stroke:rgb(0, 0, 0);stroke-width:3.0;" d="M 101.161, 158.444 L 124.299, 266.992 L 105.137, 317.216 L 21.5257, 171.772 L 37.7954, 137.631 L 62.7605, 111.761 z "/>
<path style="fill:rgb(255, 67, 8);fill-opacity:1.0;fill-rule:evenodd;stroke:rgb(0, 0, 0);stroke-width:3.0;" d="M 259.35, 371.502 L 243.62, 379.314 L 232.731, 373.204 L 258.346, 370.257 z "/>
<path style="fill:rgb(255, 67, 8);fill-opacity:1.0;fill-rule:evenodd;stroke:rgb(0, 0, 0);stroke-width:3.0;" d="M 21.5257, 171.772 L 15.2997, 160.941 L 37.7954, 137.631 z "/>
<path style="fill:rgb(243, 47, 255);fill-opacity:1.0;fill-rule:evenodd;stroke:rgb(0, 0, 0);stroke-width:3.0;" d="M 374.622, 215.69 L 373.577, 224.853 L 347.984, 225.443 L 359.71, 219.573 L 371.555, 215.101 z "/>
<path style="fill:rgb(209, 6, 11);fill-opacity:1.0;fill-rule:evenodd;stroke:rgb(0, 0, 0);stroke-width:3.0;" d="M 71.3267, 417.412 L 60.3119, 432.026 L 61.2053, 409.847 z "/>
<path style="fill:rgb(209, 6, 11);fill-opacity:1.0;fill-rule:evenodd;stroke:rgb(0, 0, 0);stroke-width:3.0;" d="M 614.692, 263.422 L 612.43, 272.602 L 593.463, 266.464 L 598.375, 258.304 z "/>
<path style="fill:rgb(209, 6, 11);fill-opacity:1.0;fill-rule:evenodd;stroke:rgb(0, 0, 0);stroke-width:3.0;" d="M 128.778, 495.725 L 107.515, 519.562 L 55.7297, 490.751 L 58.3124, 466.088 L 90.6775, 453.054 z "/>
<path style="fill:rgb(255, 15, 202);fill-opacity:1.0;fill-rule:evenodd;stroke:rgb(0, 0, 0);stroke-width:3.0;" d="M 175.981, 353.693 L 190.298, 367.795 L 192.539, 397.224 L 164.87, 374.473 L 165.838, 350.814 z "/>
<path style="fill:rgb(255, 15, 202);fill-opacity:1.0;fill-rule:evenodd;stroke:rgb(0, 0, 0);stroke-width:3.0;" d="M 55.7297, 490.751 L 34.9818, 479.208 L 32.8158, 476.356 L 58.3124, 466.088 z "/>
<path style="fill:rgb(231, 0, 8);fill-opacity:1.0;fill-rule:evenodd;stroke:rgb(0, 0, 0);stroke-width:3.0;" d="M 306.011, 209.382 L 297.887, 225.956 L 282.632, 199.237 z "/>
<path style="fill:rgb(231, 0, 8);fill-opacity:1.0;fill-rule:evenodd;stroke:rgb(0, 0, 0);stroke-width:3.0;" d="M 324.543, 475.945 L 314.778, 488.843 L 275.952, 489.609 L 275.521, 441.567 z "/>
<path style="fill:rgb(10, 86, 255);fill-opacity:1.0;fill-rule:evenodd;stroke:rgb(0, 0, 0);stroke-width:3.0;" d="M 44.4467, 504.155 L 62.976, 531.426 L 38.5677, 524.52 L 31.7689, 493.157 z "/>
<path style="fill:rgb(10, 86, 255);fill-opacity:1.0;fill-rule:evenodd;stroke:rgb(0, 0, 0);stroke-width:3.0;" d="M 423.364, 25.4659 L 402.479, 53.7464 L 396.234, 41.2231 L 397.005, 37.3189 L 424.729, 14.7192 z "/>
<path style="fill:rgb(231, 150, 19);fill-opacity:1.0;fill-rule:evenodd;stroke:rgb(0, 0, 0);stroke-width:3.0;" d="M 192.381, 117.343 L 192.052, 120.321 L 178.903, 123.869 L 184.602, 108.931 z "/>
<path style="fill:rgb(255, 249, 23);fill-opacity:1.0;fill-rule:evenodd;stroke:rgb(0, 0, 0);stroke-width:3.0;" d="M 278.226, 522.911 L 264.326, 555.479 L 248.373, 576.55 L 231.942, 532.38 L 243.607, 481.956 z "/>
<path style="fill:rgb(255, 37, 83);fill-opacity:1.0;fill-rule:evenodd;stroke:rgb(0, 0, 0);stroke-width:3.0;" d="M 440.53, 235.857 L 410.025, 240.513 L 401.296, 226.268 L 403.302, 224.167 L 439.925, 223.322 z "/>
<path style="fill:rgb(255, 37, 83);fill-opacity:1.0;fill-rule:evenodd;stroke:rgb(0, 0, 0);stroke-width:3.0;" d="M 789.542, 303.247 L 774.945, 296.528 L 790.233, 287.151 z "/>
<path style="fill:rgb(45, 157, 240);fill-opacity:1.0;fill-rule:evenodd;stroke:rgb(0, 0, 0);stroke-width:3.0;" d="M 193.528, 470.974 L 184.928, 456.013 L 175.404, 430.485 L 179.811, 427.195 L 195.509, 425.204 z "/>
<path style="fill:rgb(45, 157, 240);fill-opacity:1.0;fill-rule:evenodd;stroke:rgb(0, 0, 0);stroke-width:3.0;" d="M 235.25, 470.093 L 225.754, 485.896 L 220.872, 483.624 L 231.879, 447.052 z "/>
<path style="fill:rgb(18, 21, 252);fill-opacity:1.0;fill-rule:evenodd;stroke:rgb(0, 0, 0);stroke-width:3.0;" d="M 231.879, 447.052 L 220.872, 483.624 L 220.143, 483.285 L 229.515, 430.895 z "/>
<path style="fill:rgb(64, 37, 223);fill-opacity:1.0;fill-rule:evenodd;stroke:rgb(0, 0, 0);stroke-width:3.0;" d="M 101.526, 395.657 L 110.257, 404.834 L 96.8166, 415.322 L 93.5714, 401.203 L 93.9516, 391.605 z "/>
<path style="fill:rgb(64, 37, 223);fill-opacity:1.0;fill-rule:evenodd;stroke:rgb(0, 0, 0);stroke-width:3.0;" d="M 283.148, 268.983 L 271.409, 281.765 L 268.301, 270.474 L 278.518, 260.006 z "/>
<path style="fill:rgb(64, 37, 223);fill-opacity:1.0;fill-rule:evenodd;stroke:rgb(0, 0, 0);stroke-width:3.0;" d="M 413.82, 13.4928 L 402.686, 32.6876 L 401.704, 33.4886 L 400.912, 32.3914 L 400.986, 23.2322 L 407.345, 11.5036 z "/>
<path style="fill:rgb(64, 37, 223);fill-opacity:1.0;fill-rule:evenodd;stroke:rgb(0, 0, 0);stroke-width:3.0;" d="M 143.226, 539.43 L 149.309, 551.855 L 140.263, 562.205 L 127.311, 559.688 L 140.305, 537.805 z "/>
<path style="fill:rgb(246, 5, 54);fill-opacity:1.0;fill-rule:evenodd;stroke:rgb(0, 0, 0);stroke-width:3.0;" d="M 102.489, 466.282 L 90.6775, 453.054 L 120.813, 440.918 z "/>
<path style="fill:rgb(246, 5, 54);fill-opacity:1.0;fill-rule:evenodd;stroke:rgb(0, 0, 0);stroke-width:3.0;" d="M 324.834, 130.446 L 293.365, 132.998 L 295.077, 125.435 L 326.287, 121.719 z "/>
<path style="fill:rgb(9, 140, 25);fill-opacity:1.0;fill-rule:evenodd;stroke:rgb(0, 0, 0);stroke-width:3.0;" d="M 375.672, 81.3021 L 369.5, 83.6137 L 366.695, 82.7289 L 361.835, 75.6456 L 362.184, 61.8336 z "/>
<path style="fill:rgb(37, 249, 255);fill-opacity:1.0;fill-rule:evenodd;stroke:rgb(0, 0, 0);stroke-width:3.0;" d="M 787.818, 263.929 L 730.123, 275.663 L 772.96, 257.696 z "/>
<path style="fill:rgb(37, 249, 255);fill-opacity:1.0;fill-rule:evenodd;stroke:rgb(0, 0, 0);stroke-width:3.0;" d="M 381.469, 128.783 L 384.694, 191.489 L 360.146, 184.506 L 356.224, 180.304 L 353.116, 151.323 L 377.655, 127.687 z "/>
<path style="fill:rgb(37, 249, 255);fill-opacity:1.0;fill-rule:evenodd;stroke:rgb(0, 0, 0);stroke-width:3.0;" d="M 249.411, 201.855 L 250.372, 232.748 L 233.928, 278.298 L 232.144, 276.333 L 247.853, 196.196 z "/>
<path style="fill:rgb(37, 249, 255);fill-opacity:1.0;fill-rule:evenodd;stroke:rgb(0, 0, 0);stroke-width:3.0;" d="M 593.818, 563.008 L 588.708, 567.573 L 524.385, 589.494 L 527.391, 581.275 L 573.827, 535.458 z "/>
<path style="fill:rgb(37, 249, 255);fill-opacity:1.0;fill-rule:evenodd;stroke:rgb(0, 0, 0);stroke-width:3.0;" d="M 243.647, 32.6616 L 242.079, 37.924 L 219.825, 16.61 L 223.273, 7.57129 z "/>
<path style="fill:rgb(252, 40, 14);fill-opacity:1.0;fill-rule:evenodd;stroke:rgb(0, 0, 0);stroke-width:3.0;" d="M 293.691, 265.452 L 287.691, 291.389 L 274.826, 278.045 L 290.425, 261.058 z "/>
<path style="fill:rgb(255, 255, 17);fill-opacity:1.0;fill-rule:evenodd;stroke:rgb(0, 0, 0);stroke-width:3.0;" d="M 276.184, 515.437 L 276.23, 520.549 L 257.783, 498.726 L 264.1, 485.626 z "/>
<path style="fill:rgb(255, 255, 17);fill-opacity:1.0;fill-rule:evenodd;stroke:rgb(0, 0, 0);stroke-width:3.0;" d="M 27.363, 390.802 L 14.5613, 400.897 L 11.8919, 401.437 L 8.96932, 394.485 L 15.0436, 374.878 L 23.4756, 372.22 z "/>
<path style="fill:rgb(255, 24, 194);fill-opacity:1.0;fill-rule:evenodd;stroke:rgb(0, 0, 0);stroke-width:3.0;" d="M 383.883, 244.504 L 377.207, 245.523 L 335.149, 225.74 L 403.302, 224.167 z "/>
<path style="fill:rgb(255, 187, 91);fill-opacity:1.0;fill-rule:evenodd;stroke:rgb(0, 0, 0);stroke-width:3.0;" d="M 274.572, 293.254 L 250.989, 252.577 L 249.411, 201.855 z "/>
<path style="fill:rgb(154, 246, 15);fill-opacity:1.0;fill-rule:evenodd;stroke:rgb(0, 0, 0);stroke-width:3.0;" d="M 759.689, 263.262 L 730.123, 275.663 L 687.091, 284.415 L 634.61, 260.08 L 611.936, 219.353 L 788.525, 215.278 z "/>
<path style="fill:rgb(22, 234, 144);fill-opacity:1.0;fill-rule:evenodd;stroke:rgb(0, 0, 0);stroke-width:3.0;" d="M 181.605, 135.397 L 183.578, 148.871 L 170.284, 146.462 L 176.457, 130.282 z "/>
<path style="fill:rgb(14, 240, 255);fill-opacity:1.0;fill-rule:evenodd;stroke:rgb(0, 0, 0);stroke-width:3.0;" d="M 502.229, 236.939 L 495.067, 234.621 L 493.008, 228.4 L 504.48, 221.833 L 507.324, 221.767 z "/>
<path style="fill:rgb(255, 182, 237);fill-opacity:1.0;fill-rule:evenodd;stroke:rgb(0, 0, 0);stroke-width:3.0;" d="M 390.14, 73.2931 L 378.378, 85.2069 L 377.855, 84.4519 L 378.448, 78.3391 L 381.635, 66.1181 z "/>
<path style="fill:rgb(249, 231, 28);fill-opacity:1.0;fill-rule:evenodd;stroke:rgb(0, 0, 0);stroke-width:3.0;" d="M 252.423, 298.672 L 233.928, 278.298 L 250.372, 232.748 z "/>
<path style="fill:rgb(249, 231, 28);fill-opacity:1.0;fill-rule:evenodd;stroke:rgb(0, 0, 0);stroke-width:3.0;" d="M 159.666, 412.069 L 155.932, 424.757 L 133.655, 412.841 L 157.452, 408.218 z "/>
<path style="fill:rgb(228, 2, 16);fill-opacity:1.0;fill-rule:evenodd;stroke:rgb(0, 0, 0);stroke-width:3.0;" d="M 267.986, 376.57 L 267.685, 377.873 L 265.256, 382.214 L 252.964, 384.843 L 252.877, 384.729 L 254.735, 373.794 L 258.464, 371.942 z "/>
<path style="fill:rgb(228, 2, 16);fill-opacity:1.0;fill-rule:evenodd;stroke:rgb(0, 0, 0);stroke-width:3.0;" d="M 527.278, 222.208 L 539.37, 242.43 L 531.654, 246.461 L 531.415, 246.384 L 514.613, 223.86 L 515.227, 221.632 z "/>
<path style="fill:rgb(255, 252, 20);fill-opacity:1.0;fill-rule:evenodd;stroke:rgb(0, 0, 0);stroke-width:3.0;" d="M 193.734, 530.645 L 155.368, 546.185 L 107.515, 519.562 L 126.986, 497.733 z "/>
<path style="fill:rgb(246, 95, 10);fill-opacity:1.0;fill-rule:evenodd;stroke:rgb(0, 0, 0);stroke-width:3.0;" d="M 71.1775, 499.346 L 70.1102, 520.71 L 58.3531, 492.211 z "/>
<path style="fill:rgb(240, 78, 192);fill-opacity:1.0;fill-rule:evenodd;stroke:rgb(0, 0, 0);stroke-width:3.0;" d="M 140.305, 537.805 L 129.152, 556.587 L 103.027, 553.506 L 136.22, 535.532 z "/>
<path style="fill:rgb(240, 78, 192);fill-opacity:1.0;fill-rule:evenodd;stroke:rgb(0, 0, 0);stroke-width:3.0;" d="M 153.716, 347.374 L 116.384, 336.779 L 105.137, 317.216 L 113.82, 294.459 z "/>
<path style="fill:rgb(243, 255, 30);fill-opacity:1.0;fill-rule:evenodd;stroke:rgb(0, 0, 0);stroke-width:3.0;" d="M 136.22, 535.532 L 101.037, 554.584 L 90.6941, 552.574 L 79.9786, 538.463 L 124.005, 528.737 z "/>
<path style="fill:rgb(255, 0, 13);fill-opacity:1.0;fill-rule:evenodd;stroke:rgb(0, 0, 0);stroke-width:3.0;" d="M 52.2287, 548.751 L 32.1248, 548.051 L 28.3822, 533.474 z "/>
<path style="fill:rgb(255, 255, 18);fill-opacity:1.0;fill-rule:evenodd;stroke:rgb(0, 0, 0);stroke-width:3.0;" d="M 276.456, 41.4213 L 269.42, 34.3256 L 269.605, 24.3249 L 280.043, 20.9124 z "/>
<path style="fill:rgb(255, 255, 18);fill-opacity:1.0;fill-rule:evenodd;stroke:rgb(0, 0, 0);stroke-width:3.0;" d="M 422.485, 554.3 L 337.083, 397.564 L 334.73, 356.076 L 417.849, 339.172 z "/>
<path style="fill:rgb(19, 255, 246);fill-opacity:1.0;fill-rule:evenodd;stroke:rgb(0, 0, 0);stroke-width:3.0;" d="M 61.4361, 404.118 L 61.1672, 410.794 L 43.5654, 410.777 L 42.3659, 407.846 L 38.5793, 387.817 z "/>
<path style="fill:rgb(64, 1, 255);fill-opacity:1.0;fill-rule:evenodd;stroke:rgb(0, 0, 0);stroke-width:3.0;" d="M 377.207, 245.523 L 351.079, 249.512 L 354.71, 234.941 z "/>
<path style="fill:rgb(255, 246, 7);fill-opacity:1.0;fill-rule:evenodd;stroke:rgb(0, 0, 0);stroke-width:3.0;" d="M 654.241, 269.183 L 652.975, 273.996 L 616.336, 256.752 L 617.473, 252.134 z "/>
<path style="fill:rgb(255, 226, 33);fill-opacity:1.0;fill-rule:evenodd;stroke:rgb(0, 0, 0);stroke-width:3.0;" d="M 378.661, 125.383 L 378.855, 126.531 L 365.868, 139.04 L 364.367, 131.69 L 366.345, 121.345 z "/>
<path style="fill:rgb(255, 226, 33);fill-opacity:1.0;fill-rule:evenodd;stroke:rgb(0, 0, 0);stroke-width:3.0;" d="M 231.049, 536.242 L 220.381, 582.356 L 185.569, 562.988 L 190.891, 543.727 L 227.92, 530.799 z "/>
<path style="fill:rgb(44, 255, 30);fill-opacity:1.0;fill-rule:evenodd;stroke:rgb(0, 0, 0);stroke-width:3.0;" d="M 60.3119, 432.026 L 55.0949, 438.947 L 52.4788, 432.555 L 51.1585, 421.83 L 60.7954, 420.022 z "/>
<path style="fill:rgb(89, 146, 243);fill-opacity:1.0;fill-rule:evenodd;stroke:rgb(0, 0, 0);stroke-width:3.0;" d="M 86.9016, 402.716 L 86.9993, 411.788 L 71.22, 404.456 L 74.1887, 394.4 z "/>
<path style="fill:rgb(89, 146, 243);fill-opacity:1.0;fill-rule:evenodd;stroke:rgb(0, 0, 0);stroke-width:3.0;" d="M 217.689, 415.081 L 216.153, 417.627 L 213.845, 418.798 L 206.982, 404.69 L 207.706, 401 L 216.81, 399.472 z "/>
<path style="fill:rgb(25, 204, 255);fill-opacity:1.0;fill-rule:evenodd;stroke:rgb(0, 0, 0);stroke-width:3.0;" d="M 110.487, 405.076 L 97.2419, 427.308 L 92.7527, 421.871 L 92.8908, 418.385 L 110.257, 404.834 z "/>
<path style="fill:rgb(25, 204, 255);fill-opacity:1.0;fill-rule:evenodd;stroke:rgb(0, 0, 0);stroke-width:3.0;" d="M 348.834, 217.759 L 354.204, 222.33 L 347.984, 225.443 L 330.333, 225.851 L 328.127, 212.054 z "/>
<path style="fill:rgb(255, 237, 9);fill-opacity:1.0;fill-rule:evenodd;stroke:rgb(0, 0, 0);stroke-width:3.0;" d="M 235.999, 394.654 L 223.714, 463.322 L 220.282, 461.121 L 216.484, 393.678 L 233.15, 392.974 z "/>
<path style="fill:rgb(56, 255, 207);fill-opacity:1.0;fill-rule:evenodd;stroke:rgb(0, 0, 0);stroke-width:3.0;" d="M 525.773, 238.821 L 522.186, 243.397 L 512.025, 240.109 L 513.048, 232.298 L 519.845, 230.874 z "/>
<path style="fill:rgb(159, 38, 81);fill-opacity:1.0;fill-rule:evenodd;stroke:rgb(0, 0, 0);stroke-width:3.0;" d="M 351.979, 84.912 L 350.476, 110.939 L 347.134, 126.553 L 345.991, 96.4581 L 350.595, 75.015 z "/>
<path style="fill:rgb(231, 14, 110);fill-opacity:1.0;fill-rule:evenodd;stroke:rgb(0, 0, 0);stroke-width:3.0;" d="M 350.595, 75.015 L 345.991, 96.4581 L 344.128, 47.4225 L 345.753, 40.4015 z "/>
<path style="fill:rgb(228, 38, 255);fill-opacity:1.0;fill-rule:evenodd;stroke:rgb(0, 0, 0);stroke-width:3.0;" d="M 309.696, 196.267 L 297.763, 197.009 L 298.481, 168.45 L 316.549, 166.641 z "/>
<path style="fill:rgb(228, 38, 255);fill-opacity:1.0;fill-rule:evenodd;stroke:rgb(0, 0, 0);stroke-width:3.0;" d="M 128.772, 412.998 L 126.989, 427.269 L 124.475, 428.082 L 117.111, 411.435 L 126.67, 411.297 z "/>
<path style="fill:rgb(228, 38, 255);fill-opacity:1.0;fill-rule:evenodd;stroke:rgb(0, 0, 0);stroke-width:3.0;" d="M 452.349, 368.05 L 419.393, 410.836 L 417.849, 339.172 L 429.651, 336.772 z "/>
<path style="fill:rgb(223, 25, 31);fill-opacity:1.0;fill-rule:evenodd;stroke:rgb(0, 0, 0);stroke-width:3.0;" d="M 297.763, 197.009 L 296.505, 197.087 L 273.381, 170.963 L 298.481, 168.45 z "/>
<path style="fill:rgb(60, 255, 255);fill-opacity:1.0;fill-rule:evenodd;stroke:rgb(0, 0, 0);stroke-width:3.0;" d="M 636.315, 266.155 L 641.954, 282.157 L 615.068, 273.456 L 616.373, 261.319 L 621.021, 258.957 z "/>
<path style="fill:rgb(255, 115, 15);fill-opacity:1.0;fill-rule:evenodd;stroke:rgb(0, 0, 0);stroke-width:3.0;" d="M 678.726, 286.116 L 663.658, 289.181 L 641.954, 282.157 L 636.315, 266.155 z "/>
<path style="fill:rgb(255, 117, 11);fill-opacity:1.0;fill-rule:evenodd;stroke:rgb(0, 0, 0);stroke-width:3.0;" d="M 244.17, 479.522 L 243.636, 480.162 L 242.552, 480.622 L 243.779, 458.061 L 248.453, 443.493 L 252.865, 441.934 z "/>
<path style="fill:rgb(25, 132, 234);fill-opacity:1.0;fill-rule:evenodd;stroke:rgb(0, 0, 0);stroke-width:3.0;" d="M 327.315, 164.861 L 314.155, 183.854 L 313.161, 181.29 L 319.556, 153.644 L 320.628, 152.655 z "/>
<path style="fill:rgb(88, 217, 255);fill-opacity:1.0;fill-rule:evenodd;stroke:rgb(0, 0, 0);stroke-width:3.0;" d="M 104.946, 41.7863 L 103.148, 69.9101 L 99.5662, 73.622 L 86.5676, 29.7448 L 102.434, 15.9767 z "/>
<path style="fill:rgb(88, 217, 255);fill-opacity:1.0;fill-rule:evenodd;stroke:rgb(0, 0, 0);stroke-width:3.0;" d="M 282.363, 20.1542 L 262.141, 26.765 L 263.357, 23.3887 L 285.002, 6.68967 z "/>
<path style="fill:rgb(88, 217, 255);fill-opacity:1.0;fill-rule:evenodd;stroke:rgb(0, 0, 0);stroke-width:3.0;" d="M 346.493, 137.183 L 327.315, 164.861 L 320.628, 152.655 L 339.784, 134.978 z "/>
<path style="fill:rgb(103, 1, 243);fill-opacity:1.0;fill-rule:evenodd;stroke:rgb(0, 0, 0);stroke-width:3.0;" d="M 264.1, 485.626 L 257.783, 498.726 L 243.607, 481.956 L 250.512, 452.105 z "/>
<path style="fill:rgb(255, 49, 6);fill-opacity:1.0;fill-rule:evenodd;stroke:rgb(0, 0, 0);stroke-width:3.0;" d="M 253.327, 211.158 L 278.518, 260.006 L 268.301, 270.474 L 251.176, 208.264 z "/>
<path style="fill:rgb(223, 197, 255);fill-opacity:1.0;fill-rule:evenodd;stroke:rgb(0, 0, 0);stroke-width:3.0;" d="M 555.879, 223.574 L 561.492, 226.176 L 552.275, 235.686 L 539.37, 242.43 L 527.278, 222.208 z "/>
<path style="fill:rgb(255, 212, 20);fill-opacity:1.0;fill-rule:evenodd;stroke:rgb(0, 0, 0);stroke-width:3.0;" d="M 262.779, 187.909 L 261.492, 222.14 L 251.176, 208.264 L 247.853, 196.196 L 248.517, 192.81 L 259.373, 186.56 z "/>
<path style="fill:rgb(243, 234, 25);fill-opacity:1.0;fill-rule:evenodd;stroke:rgb(0, 0, 0);stroke-width:3.0;" d="M 56.8959, 272.64 L 35.0631, 275.574 L 31.8845, 251.538 z "/>
<path style="fill:rgb(179, 234, 12);fill-opacity:1.0;fill-rule:evenodd;stroke:rgb(0, 0, 0);stroke-width:3.0;" d="M 45.8835, 214.143 L 57.5525, 272.552 L 56.8959, 272.64 L 31.8845, 251.538 L 21.2799, 171.344 z "/>
<path style="fill:rgb(231, 255, 9);fill-opacity:1.0;fill-rule:evenodd;stroke:rgb(0, 0, 0);stroke-width:3.0;" d="M 130.222, 436.694 L 124.586, 440.726 L 92.0209, 440.346 L 92.0918, 438.555 L 107.209, 433.666 L 123.606, 432.067 z "/>
<path style="fill:rgb(7, 7, 209);fill-opacity:1.0;fill-rule:evenodd;stroke:rgb(0, 0, 0);stroke-width:3.0;" d="M 422.836, 16.2626 L 402.686, 32.6876 L 413.82, 13.4928 z "/>
<path style="fill:rgb(252, 0, 249);fill-opacity:1.0;fill-rule:evenodd;stroke:rgb(0, 0, 0);stroke-width:3.0;" d="M 778.071, 386.436 L 793.432, 433.761 L 673.356, 287.208 L 735.486, 274.572 z "/>
<path style="fill:rgb(255, 2, 7);fill-opacity:1.0;fill-rule:evenodd;stroke:rgb(0, 0, 0);stroke-width:3.0;" d="M 376.02, 109.758 L 378.661, 125.383 L 366.345, 121.345 L 369.139, 106.738 L 372.682, 105.995 z "/>
<path style="fill:rgb(226, 108, 223);fill-opacity:1.0;fill-rule:evenodd;stroke:rgb(0, 0, 0);stroke-width:3.0;" d="M 61.1672, 410.794 L 60.9077, 417.234 L 48.2582, 422.243 L 46.2536, 417.345 L 51.643, 410.785 z "/>
<path style="fill:rgb(40, 231, 33);fill-opacity:1.0;fill-rule:evenodd;stroke:rgb(0, 0, 0);stroke-width:3.0;" d="M 208.363, 128.131 L 207.449, 149.241 L 188.101, 156.079 L 192.455, 116.67 z "/>
<path style="fill:rgb(255, 20, 100);fill-opacity:1.0;fill-rule:evenodd;stroke:rgb(0, 0, 0);stroke-width:3.0;" d="M 208.363, 128.131 L 192.455, 116.67 L 194.585, 97.3936 L 211.205, 62.4477 z "/>
<path style="fill:rgb(246, 246, 108);fill-opacity:1.0;fill-rule:evenodd;stroke:rgb(0, 0, 0);stroke-width:3.0;" d="M 392.875, 58.246 L 391.591, 64.7507 L 386.385, 67.5098 L 376.479, 59.1109 L 391.806, 54.4126 z "/>
<path style="fill:rgb(255, 223, 15);fill-opacity:1.0;fill-rule:evenodd;stroke:rgb(0, 0, 0);stroke-width:3.0;" d="M 287.691, 291.389 L 285.996, 298.717 L 278.62, 307.959 L 271.837, 283.317 L 278.031, 281.369 z "/>
</svg>