<?xml version="1.0" encoding="iso-8859-1" standalone="no"?>
<!DOCTYPE svg PUBLIC "-//W3C//DTD SVG 1.0//EN" "http://www.w3.org/TR/2001/REC-SVG-20010904/DTD/svg10.dtd">
<svg xmlns="http://www.w3.org/2000/svg" width="800" height="600">
<path style="fill:rgb(0, 0, 0);fill-opacity:0.0;fill-rule:evenodd;stroke:rgb(0, 0, 0);stroke-width:0.0;" d="M 0, 600 L 800, 600 L 800, 0 L 0, 0 z "/>
<path style="fill:rgb(215, 144, 237);fill-opacity:1.0;fill-rule:evenodd;stroke:rgb(0, 0, 0);stroke-width:3.0;" d="M 262.927, 91.0617 L 268.186, 117.492 L 260.134, 106.883 L 257.817, 96.4684 L 259.915, 87.5399 z "/>
<path style="fill:rgb(215, 144, 237);fill-opacity:1.0;fill-rule:evenodd;stroke:rgb(0, 0, 0);stroke-width:3.0;" d="M 159.631, 210.385 L 146.496, 217.337 L 142.572, 214.981 L 155.466, 196.346 z "/>
<path style="fill:rgb(215, 144, 237);fill-opacity:1.0;fill-rule:evenodd;stroke:rgb(0, 0, 0);stroke-width:3.0;" d="M 383.362, 529.848 L 374.069, 558.194 L 365.948, 551.162 L 364.784, 520.702 z "/>
<path style="fill:rgb(255, 168, 13);fill-opacity:1.0;fill-rule:evenodd;stroke:rgb(0, 0, 0);stroke-width:3.0;" d="M 289.238, 562.211 L 252.075, 555.707 L 259.607, 548.18 z "/>
<path style="fill:rgb(255, 168, 13);fill-opacity:1.0;fill-rule:evenodd;stroke:rgb(0, 0, 0);stroke-width:3.0;" d="M 151.624, 285.047 L 139.033, 313.241 L 134.196, 314.242 L 133.529, 309.689 L 149.442, 283.931 z "/>
<path style="fill:rgb(255, 168, 13);fill-opacity:1.0;fill-rule:evenodd;stroke:rgb(0, 0, 0);stroke-width:3.0;" d="M 158.825, 437.475 L 144.828, 496.195 L 115.325, 545.156 L 45.6862, 551.036 L 139.942, 405.712 z "/>
<path style="fill:rgb(255, 255, 8);fill-opacity:1.0;fill-rule:evenodd;stroke:rgb(0, 0, 0);stroke-width:3.0;" d="M 146.874, 492.799 L 145.658, 492.714 L 152.844, 462.565 L 168.764, 456.473 z "/>
<path style="fill:rgb(255, 255, 8);fill-opacity:1.0;fill-rule:evenodd;stroke:rgb(0, 0, 0);stroke-width:3.0;" d="M 369.452, 35.4564 L 369.152, 36.3971 L 255.956, 82.9126 L 245.504, 70.694 L 244.901, 67.4421 L 343.879, 27.9187 z "/>
<path style="fill:rgb(243, 94, 9);fill-opacity:1.0;fill-rule:evenodd;stroke:rgb(0, 0, 0);stroke-width:3.0;" d="M 346.263, 469.643 L 338.911, 464.57 L 286.037, 327.227 L 267.41, 260.542 L 341.221, 248.701 z "/>
<path style="fill:rgb(243, 94, 9);fill-opacity:1.0;fill-rule:evenodd;stroke:rgb(0, 0, 0);stroke-width:3.0;" d="M 158.633, 246.399 L 159.855, 286.573 L 154.606, 297.064 L 157.15, 246.249 z "/>
<path style="fill:rgb(243, 94, 9);fill-opacity:1.0;fill-rule:evenodd;stroke:rgb(0, 0, 0);stroke-width:3.0;" d="M 191.657, 325.977 L 143.931, 399.562 L 120.789, 389.402 L 114.249, 374.03 L 165.82, 321.003 z "/>
<path style="fill:rgb(243, 94, 9);fill-opacity:1.0;fill-rule:evenodd;stroke:rgb(0, 0, 0);stroke-width:3.0;" d="M 31.0388, 508.146 L 33.305, 529.495 L 22.9208, 527.775 L 24.4465, 513.252 L 28.9543, 506.571 z "/>
<path style="fill:rgb(243, 94, 9);fill-opacity:1.0;fill-rule:evenodd;stroke:rgb(0, 0, 0);stroke-width:3.0;" d="M 590.939, 557.049 L 527.056, 554.205 L 642.666, 478.462 z "/>
<path style="fill:rgb(228, 0, 21);fill-opacity:1.0;fill-rule:evenodd;stroke:rgb(0, 0, 0);stroke-width:3.0;" d="M 259.057, 105.465 L 264.924, 140.134 L 216.554, 161.895 L 186.674, 151.24 L 237.76, 77.4046 z "/>
<path style="fill:rgb(252, 119, 22);fill-opacity:1.0;fill-rule:evenodd;stroke:rgb(0, 0, 0);stroke-width:3.0;" d="M 93.6966, 581.049 L 85.8928, 579.713 L 75.3701, 563.758 L 105.389, 561.646 z "/>
<path style="fill:rgb(252, 119, 22);fill-opacity:1.0;fill-rule:evenodd;stroke:rgb(0, 0, 0);stroke-width:3.0;" d="M 152.783, 32.3174 L 147.573, 40.7353 L 138.643, 44.3767 L 137.435, 27.4572 L 138.486, 25.4527 L 141.369, 21.3534 z "/>
<path style="fill:rgb(252, 119, 22);fill-opacity:1.0;fill-rule:evenodd;stroke:rgb(0, 0, 0);stroke-width:3.0;" d="M 239.596, 56.5675 L 225.516, 49.8169 L 252.151, 39.3316 z "/>
<path style="fill:rgb(255, 38, 228);fill-opacity:1.0;fill-rule:evenodd;stroke:rgb(0, 0, 0);stroke-width:3.0;" d="M 668.8, 569.84 L 661.192, 575.011 L 650.181, 573.001 L 656.098, 567.394 L 660.09, 564.709 z "/>
<path style="fill:rgb(255, 202, 132);fill-opacity:1.0;fill-rule:evenodd;stroke:rgb(0, 0, 0);stroke-width:3.0;" d="M 131.65, 243.666 L 105.487, 291.982 L 69.4956, 327.636 L 37.3195, 334.297 L 118.375, 242.322 z "/>
<path style="fill:rgb(252, 0, 187);fill-opacity:1.0;fill-rule:evenodd;stroke:rgb(0, 0, 0);stroke-width:3.0;" d="M 118.244, 439.166 L 98.4216, 469.728 L 90.3674, 451.174 L 94.4705, 436.089 z "/>
<path style="fill:rgb(252, 0, 187);fill-opacity:1.0;fill-rule:evenodd;stroke:rgb(0, 0, 0);stroke-width:3.0;" d="M 103.821, 258.837 L 37.3195, 334.297 L 37.2756, 334.306 L 97.8651, 251.131 z "/>
<path style="fill:rgb(234, 255, 255);fill-opacity:1.0;fill-rule:evenodd;stroke:rgb(0, 0, 0);stroke-width:3.0;" d="M 330.625, 486.852 L 308.013, 490.707 L 307.488, 465.928 L 322.609, 458.152 z "/>
<path style="fill:rgb(234, 255, 255);fill-opacity:1.0;fill-rule:evenodd;stroke:rgb(0, 0, 0);stroke-width:3.0;" d="M 320.834, 451.798 L 238.295, 511.89 L 231.701, 505.1 L 317.407, 439.53 z "/>
<path style="fill:rgb(234, 255, 255);fill-opacity:1.0;fill-rule:evenodd;stroke:rgb(0, 0, 0);stroke-width:3.0;" d="M 28.6303, 417.792 L 20.3048, 405.807 L 34.1193, 392.15 z "/>
<path style="fill:rgb(234, 255, 255);fill-opacity:1.0;fill-rule:evenodd;stroke:rgb(0, 0, 0);stroke-width:3.0;" d="M 28.1976, 54.9399 L 27.5279, 56.6508 L 5.87066, 59.8338 L 5.95236, 59.2541 L 29.5266, 27.2397 z "/>
<path style="fill:rgb(234, 255, 255);fill-opacity:1.0;fill-rule:evenodd;stroke:rgb(0, 0, 0);stroke-width:3.0;" d="M 36.0962, 382.915 L 11.8108, 393.58 L 8.14338, 388.301 L 9.66302, 372.212 L 12.6215, 368.151 L 39.5109, 366.963 z "/>
<path style="fill:rgb(50, 105, 255);fill-opacity:1.0;fill-rule:evenodd;stroke:rgb(0, 0, 0);stroke-width:3.0;" d="M 214.088, 44.3375 L 210.849, 95.8772 L 180.336, 37.5115 L 186.487, 31.1032 z "/>
<path style="fill:rgb(255, 249, 114);fill-opacity:1.0;fill-rule:evenodd;stroke:rgb(0, 0, 0);stroke-width:3.0;" d="M 235.565, 550.601 L 232.243, 549.736 L 230.472, 527.423 L 239.25, 520.094 L 247.235, 516.846 z "/>
<path style="fill:rgb(255, 249, 114);fill-opacity:1.0;fill-rule:evenodd;stroke:rgb(0, 0, 0);stroke-width:3.0;" d="M 349.633, 554.9 L 354.885, 573.701 L 291.627, 562.629 L 251.932, 509.503 L 280.065, 486.008 z "/>
<path style="fill:rgb(65, 36, 255);fill-opacity:1.0;fill-rule:evenodd;stroke:rgb(0, 0, 0);stroke-width:3.0;" d="M 263.742, 23.4205 L 252.151, 39.3316 L 225.516, 49.8169 L 217.206, 45.832 L 247.687, 21.0784 z "/>
<path style="fill:rgb(65, 36, 255);fill-opacity:1.0;fill-rule:evenodd;stroke:rgb(0, 0, 0);stroke-width:3.0;" d="M 341.221, 248.701 L 330.804, 250.373 L 282.574, 236.137 L 292.352, 230.374 L 340.584, 220.799 z "/>
<path style="fill:rgb(65, 36, 255);fill-opacity:1.0;fill-rule:evenodd;stroke:rgb(0, 0, 0);stroke-width:3.0;" d="M 316.212, 96.3806 L 313.033, 102.557 L 278.654, 109.445 L 255.956, 82.9126 L 292.605, 67.8524 z "/>
<path style="fill:rgb(255, 170, 14);fill-opacity:1.0;fill-rule:evenodd;stroke:rgb(0, 0, 0);stroke-width:3.0;" d="M 230.229, 88.2893 L 219.778, 103.394 L 209.877, 103.268 L 213.638, 92.2016 L 224.663, 77.0672 z "/>
<path style="fill:rgb(255, 47, 8);fill-opacity:1.0;fill-rule:evenodd;stroke:rgb(0, 0, 0);stroke-width:3.0;" d="M 108.961, 549.708 L 72.1293, 563.606 L 45.7889, 551.027 L 110.826, 545.536 z "/>
<path style="fill:rgb(33, 226, 240);fill-opacity:1.0;fill-rule:evenodd;stroke:rgb(0, 0, 0);stroke-width:3.0;" d="M 208.705, 521.375 L 137.005, 509.178 L 169.447, 455.34 z "/>
<path style="fill:rgb(33, 226, 240);fill-opacity:1.0;fill-rule:evenodd;stroke:rgb(0, 0, 0);stroke-width:3.0;" d="M 131.243, 304.259 L 119.417, 292.459 L 125.079, 269.052 z "/>
<path style="fill:rgb(33, 226, 240);fill-opacity:1.0;fill-rule:evenodd;stroke:rgb(0, 0, 0);stroke-width:3.0;" d="M 280.167, 133.277 L 264.924, 140.134 L 262.184, 123.942 L 264.173, 112.205 z "/>
<path style="fill:rgb(88, 154, 255);fill-opacity:1.0;fill-rule:evenodd;stroke:rgb(0, 0, 0);stroke-width:3.0;" d="M 84.1355, 463.869 L 59.0951, 448.215 L 59.28, 430.978 L 63.555, 430.939 z "/>
<path style="fill:rgb(88, 154, 255);fill-opacity:1.0;fill-rule:evenodd;stroke:rgb(0, 0, 0);stroke-width:3.0;" d="M 46.9092, 375.614 L 42.3121, 397.167 L 36.4918, 393.503 L 35.7385, 384.586 L 40.8507, 360.704 z "/>
<path style="fill:rgb(88, 154, 255);fill-opacity:1.0;fill-rule:evenodd;stroke:rgb(0, 0, 0);stroke-width:3.0;" d="M 41.994, 453.302 L 39.8133, 460.141 L 6.46884, 491.482 L 35.6238, 442.813 z "/>
<path style="fill:rgb(88, 154, 255);fill-opacity:1.0;fill-rule:evenodd;stroke:rgb(0, 0, 0);stroke-width:3.0;" d="M 404.961, 581.063 L 372.118, 564.146 L 387.462, 517.339 z "/>
<path style="fill:rgb(88, 154, 255);fill-opacity:1.0;fill-rule:evenodd;stroke:rgb(0, 0, 0);stroke-width:3.0;" d="M 320.871, 451.931 L 243.121, 516.86 L 238.295, 511.89 L 320.834, 451.798 z "/>
<path style="fill:rgb(88, 154, 255);fill-opacity:1.0;fill-rule:evenodd;stroke:rgb(0, 0, 0);stroke-width:3.0;" d="M 81.4794, 462.209 L 84.2469, 464.931 L 82.2008, 472.338 L 73.9628, 470.052 L 73.4716, 457.203 z "/>
<path style="fill:rgb(88, 154, 255);fill-opacity:1.0;fill-rule:evenodd;stroke:rgb(0, 0, 0);stroke-width:3.0;" d="M 307.507, 404.09 L 312.101, 420.537 L 268.889, 412.867 L 268.427, 380.218 z "/>
<path style="fill:rgb(88, 154, 255);fill-opacity:1.0;fill-rule:evenodd;stroke:rgb(0, 0, 0);stroke-width:3.0;" d="M 377.779, 130.44 L 370.476, 135.732 L 356.924, 134.117 L 380.571, 116.374 z "/>
<path style="fill:rgb(88, 154, 255);fill-opacity:1.0;fill-rule:evenodd;stroke:rgb(0, 0, 0);stroke-width:3.0;" d="M 28.1031, 56.9108 L 23.0391, 91.5172 L 12.1399, 95.9617 L 28.1976, 54.9399 z "/>
<path style="fill:rgb(88, 154, 255);fill-opacity:1.0;fill-rule:evenodd;stroke:rgb(0, 0, 0);stroke-width:3.0;" d="M 301.027, 125.887 L 297.906, 131.951 L 279.448, 110.374 L 282.884, 108.598 L 295.161, 106.138 z "/>
<path style="fill:rgb(249, 237, 43);fill-opacity:1.0;fill-rule:evenodd;stroke:rgb(0, 0, 0);stroke-width:3.0;" d="M 340.448, 214.836 L 260.575, 236.071 L 257.382, 224.643 L 265.907, 211.5 L 339.16, 158.422 z "/>
<path style="fill:rgb(220, 255, 27);fill-opacity:1.0;fill-rule:evenodd;stroke:rgb(0, 0, 0);stroke-width:3.0;" d="M 340.584, 220.799 L 260.736, 236.65 L 260.575, 236.071 L 340.448, 214.836 z "/>
<path style="fill:rgb(220, 255, 27);fill-opacity:1.0;fill-rule:evenodd;stroke:rgb(0, 0, 0);stroke-width:3.0;" d="M 364.663, 517.53 L 365.884, 549.503 L 350.56, 512.699 L 349.384, 505.333 z "/>
<path style="fill:rgb(220, 255, 27);fill-opacity:1.0;fill-rule:evenodd;stroke:rgb(0, 0, 0);stroke-width:3.0;" d="M 303.639, 153.324 L 286.786, 179.308 L 264.03, 155.125 L 280.126, 146.605 z "/>
<path style="fill:rgb(220, 255, 27);fill-opacity:1.0;fill-rule:evenodd;stroke:rgb(0, 0, 0);stroke-width:3.0;" d="M 78.327, 489.332 L 73.2912, 495.118 L 60.9942, 488.158 L 68.2006, 474.755 z "/>
<path style="fill:rgb(255, 252, 44);fill-opacity:1.0;fill-rule:evenodd;stroke:rgb(0, 0, 0);stroke-width:3.0;" d="M 207.556, 89.5789 L 210.895, 95.9665 L 207.26, 100.957 L 136.735, 109.77 L 121.499, 51.3678 L 137.702, 44.7608 z "/>
<path style="fill:rgb(255, 252, 44);fill-opacity:1.0;fill-rule:evenodd;stroke:rgb(0, 0, 0);stroke-width:3.0;" d="M 794.673, 500.466 L 783.595, 510.29 L 782.719, 510.766 L 781.026, 488.815 z "/>
<path style="fill:rgb(255, 33, 29);fill-opacity:1.0;fill-rule:evenodd;stroke:rgb(0, 0, 0);stroke-width:3.0;" d="M 89.9266, 388.067 L 81.0938, 400.2 L 67.9685, 396.985 L 65.5072, 394.917 L 63.0077, 389.749 L 73.188, 384.115 z "/>
<path style="fill:rgb(237, 15, 66);fill-opacity:1.0;fill-rule:evenodd;stroke:rgb(0, 0, 0);stroke-width:3.0;" d="M 59.1824, 461.773 L 44.7279, 483.195 L 43.4766, 484.11 L 33.3121, 480.528 L 45.5505, 442.149 z "/>
<path style="fill:rgb(237, 15, 66);fill-opacity:1.0;fill-rule:evenodd;stroke:rgb(0, 0, 0);stroke-width:3.0;" d="M 387.704, 470.992 L 350.13, 452.457 L 391, 415.426 z "/>
<path style="fill:rgb(237, 15, 66);fill-opacity:1.0;fill-rule:evenodd;stroke:rgb(0, 0, 0);stroke-width:3.0;" d="M 291.627, 562.629 L 289.238, 562.211 L 239.666, 538.738 L 240.61, 536.008 L 270.22, 533.979 z "/>
<path style="fill:rgb(207, 0, 86);fill-opacity:1.0;fill-rule:evenodd;stroke:rgb(0, 0, 0);stroke-width:3.0;" d="M 32.1281, 281.538 L 16.7814, 286.085 L 15.9065, 280.204 L 15.0252, 239.267 L 17.872, 237.687 z "/>
<path style="fill:rgb(207, 0, 86);fill-opacity:1.0;fill-rule:evenodd;stroke:rgb(0, 0, 0);stroke-width:3.0;" d="M 270.22, 533.979 L 240.61, 536.008 L 248.897, 512.037 L 251.932, 509.503 z "/>
<path style="fill:rgb(9, 37, 204);fill-opacity:1.0;fill-rule:evenodd;stroke:rgb(0, 0, 0);stroke-width:3.0;" d="M 70.3167, 577.046 L 88.9252, 581.872 L 88.9517, 582.19 L 74.5911, 587.974 L 58.4756, 575.018 z "/>
<path style="fill:rgb(252, 21, 187);fill-opacity:1.0;fill-rule:evenodd;stroke:rgb(0, 0, 0);stroke-width:3.0;" d="M 406.594, 310.261 L 397.401, 307.527 L 404.477, 188.26 z "/>
<path style="fill:rgb(197, 7, 100);fill-opacity:1.0;fill-rule:evenodd;stroke:rgb(0, 0, 0);stroke-width:3.0;" d="M 319.146, 90.6802 L 316.212, 96.3806 L 297.168, 73.3656 L 309.528, 67.5741 z "/>
<path style="fill:rgb(243, 243, 31);fill-opacity:1.0;fill-rule:evenodd;stroke:rgb(0, 0, 0);stroke-width:3.0;" d="M 219.992, 163.121 L 226.894, 174.782 L 215.758, 180.676 L 214.252, 161.074 z "/>
<path style="fill:rgb(192, 255, 7);fill-opacity:1.0;fill-rule:evenodd;stroke:rgb(0, 0, 0);stroke-width:3.0;" d="M 776.466, 120.062 L 763.393, 139.217 L 742.731, 127.58 L 710.501, 106.361 L 751.764, 90.498 z "/>
<path style="fill:rgb(231, 44, 217);fill-opacity:1.0;fill-rule:evenodd;stroke:rgb(0, 0, 0);stroke-width:3.0;" d="M 790.06, 100.145 L 776.466, 120.062 L 751.764, 90.498 L 758.221, 88.0156 z "/>
<path style="fill:rgb(255, 100, 16);fill-opacity:1.0;fill-rule:evenodd;stroke:rgb(0, 0, 0);stroke-width:3.0;" d="M 345.626, 540.555 L 342.978, 541.796 L 318.023, 522.701 L 336.088, 506.407 z "/>
<path style="fill:rgb(74, 3, 255);fill-opacity:1.0;fill-rule:evenodd;stroke:rgb(0, 0, 0);stroke-width:3.0;" d="M 292.241, 349.436 L 208.363, 359.053 L 185.369, 335.672 L 257.382, 224.643 z "/>
<path style="fill:rgb(255, 107, 64);fill-opacity:1.0;fill-rule:evenodd;stroke:rgb(0, 0, 0);stroke-width:3.0;" d="M 211.017, 183.186 L 210.613, 183.399 L 193.832, 181.848 L 176.576, 166.729 L 194.704, 158.328 z "/>
<path style="fill:rgb(255, 107, 64);fill-opacity:1.0;fill-rule:evenodd;stroke:rgb(0, 0, 0);stroke-width:3.0;" d="M 123.216, 276.752 L 119.417, 292.459 L 110.205, 283.268 L 119.27, 266.529 z "/>
<path style="fill:rgb(255, 107, 64);fill-opacity:1.0;fill-rule:evenodd;stroke:rgb(0, 0, 0);stroke-width:3.0;" d="M 232.445, 552.271 L 226.449, 551.221 L 218.33, 537.564 L 230.472, 527.423 z "/>
<path style="fill:rgb(220, 97, 255);fill-opacity:1.0;fill-rule:evenodd;stroke:rgb(0, 0, 0);stroke-width:3.0;" d="M 207.556, 89.5789 L 137.702, 44.7608 L 175.968, 29.1568 z "/>
<path style="fill:rgb(220, 97, 255);fill-opacity:1.0;fill-rule:evenodd;stroke:rgb(0, 0, 0);stroke-width:3.0;" d="M 113.462, 374.839 L 110.084, 372.425 L 105.344, 366.89 L 106.038, 365.937 L 140.863, 346.665 z "/>
<path style="fill:rgb(220, 97, 255);fill-opacity:1.0;fill-rule:evenodd;stroke:rgb(0, 0, 0);stroke-width:3.0;" d="M 288.45, 120.897 L 288.833, 129.378 L 287.832, 129.828 L 267.124, 112.156 L 262.927, 91.0617 z "/>
<path style="fill:rgb(220, 97, 255);fill-opacity:1.0;fill-rule:evenodd;stroke:rgb(0, 0, 0);stroke-width:3.0;" d="M 151.867, 335.35 L 73.2827, 332.402 L 71.1661, 327.29 L 182.024, 304.341 z "/>
<path style="fill:rgb(220, 97, 255);fill-opacity:1.0;fill-rule:evenodd;stroke:rgb(0, 0, 0);stroke-width:3.0;" d="M 324.963, 98.2259 L 320.337, 125.322 L 300.994, 135.56 L 297.906, 131.951 L 318.996, 90.9719 z "/>
<path style="fill:rgb(255, 42, 52);fill-opacity:1.0;fill-rule:evenodd;stroke:rgb(0, 0, 0);stroke-width:3.0;" d="M 43.3387, 349.081 L 40.6662, 361.565 L 27.9107, 347.162 L 36.625, 335.199 z "/>
<path style="fill:rgb(255, 42, 52);fill-opacity:1.0;fill-rule:evenodd;stroke:rgb(0, 0, 0);stroke-width:3.0;" d="M 324.963, 98.2259 L 318.996, 90.9719 L 329.777, 70.0216 z "/>
<path style="fill:rgb(55, 255, 252);fill-opacity:1.0;fill-rule:evenodd;stroke:rgb(0, 0, 0);stroke-width:3.0;" d="M 404.477, 188.26 L 393.413, 374.756 L 391.032, 375.154 L 343.506, 348.832 L 339.16, 158.422 L 403.154, 112.054 z "/>
<path style="fill:rgb(212, 26, 9);fill-opacity:1.0;fill-rule:evenodd;stroke:rgb(0, 0, 0);stroke-width:3.0;" d="M 254.396, 81.0892 L 260.134, 106.883 L 237.76, 77.4046 L 243.789, 68.6899 z "/>
<path style="fill:rgb(187, 1, 255);fill-opacity:1.0;fill-rule:evenodd;stroke:rgb(0, 0, 0);stroke-width:3.0;" d="M 778.345, 29.3426 L 779.689, 34.0028 L 760.77, 29.9567 L 759.388, 25.2442 L 759.719, 13.404 z "/>
<path style="fill:rgb(187, 1, 255);fill-opacity:1.0;fill-rule:evenodd;stroke:rgb(0, 0, 0);stroke-width:3.0;" d="M 110.047, 553.916 L 105.389, 561.646 L 70.8905, 564.074 L 92.0221, 556.1 L 107.502, 552.463 z "/>
<path style="fill:rgb(255, 2, 42);fill-opacity:1.0;fill-rule:evenodd;stroke:rgb(0, 0, 0);stroke-width:3.0;" d="M 307.507, 404.09 L 229.763, 356.6 L 292.241, 349.436 z "/>
<path style="fill:rgb(255, 2, 42);fill-opacity:1.0;fill-rule:evenodd;stroke:rgb(0, 0, 0);stroke-width:3.0;" d="M 40.6662, 361.565 L 39.5109, 366.963 L 12.6215, 368.151 L 27.9107, 347.162 z "/>
<path style="fill:rgb(165, 249, 234);fill-opacity:1.0;fill-rule:evenodd;stroke:rgb(0, 0, 0);stroke-width:3.0;" d="M 792.881, 276.749 L 761.569, 314.046 L 751.635, 312.911 L 778.649, 271.869 z "/>
<path style="fill:rgb(255, 19, 19);fill-opacity:1.0;fill-rule:evenodd;stroke:rgb(0, 0, 0);stroke-width:3.0;" d="M 403.154, 112.054 L 377.779, 130.44 L 401.407, 11.4236 z "/>
<path style="fill:rgb(255, 19, 19);fill-opacity:1.0;fill-rule:evenodd;stroke:rgb(0, 0, 0);stroke-width:3.0;" d="M 93.3941, 24.0018 L 94.872, 27.0026 L 96.778, 44.4832 L 92.6431, 41.678 L 84.5122, 13.777 z "/>
<path style="fill:rgb(255, 19, 19);fill-opacity:1.0;fill-rule:evenodd;stroke:rgb(0, 0, 0);stroke-width:3.0;" d="M 411.351, 584.355 L 404.961, 581.063 L 387.462, 517.339 L 387.653, 516.755 L 410.175, 516.587 z "/>
<path style="fill:rgb(255, 19, 19);fill-opacity:1.0;fill-rule:evenodd;stroke:rgb(0, 0, 0);stroke-width:3.0;" d="M 348.793, 25.9567 L 303.89, 43.8869 L 303.516, 40.7686 L 354.006, 10.9978 z "/>
<path style="fill:rgb(154, 0, 38);fill-opacity:1.0;fill-rule:evenodd;stroke:rgb(0, 0, 0);stroke-width:3.0;" d="M 208.705, 521.375 L 232.995, 562.232 L 128.175, 586.952 L 93.6966, 581.049 L 137.005, 509.178 z "/>
<path style="fill:rgb(154, 0, 38);fill-opacity:1.0;fill-rule:evenodd;stroke:rgb(0, 0, 0);stroke-width:3.0;" d="M 370.476, 135.732 L 265.907, 211.5 L 319.025, 129.602 z "/>
<path style="fill:rgb(255, 246, 26);fill-opacity:1.0;fill-rule:evenodd;stroke:rgb(0, 0, 0);stroke-width:3.0;" d="M 238.054, 254.443 L 209.361, 298.681 L 159.527, 308.998 L 156.731, 292.818 L 178.931, 248.455 z "/>
<path style="fill:rgb(215, 1, 255);fill-opacity:1.0;fill-rule:evenodd;stroke:rgb(0, 0, 0);stroke-width:3.0;" d="M 58.4756, 575.018 L 74.5911, 587.974 L 64.9666, 591.85 L 50.0807, 585.298 L 53.9441, 574.242 z "/>
<path style="fill:rgb(215, 1, 255);fill-opacity:1.0;fill-rule:evenodd;stroke:rgb(0, 0, 0);stroke-width:3.0;" d="M 287.832, 129.828 L 280.167, 133.277 L 268.186, 117.492 L 267.124, 112.156 z "/>
<path style="fill:rgb(223, 29, 30);fill-opacity:1.0;fill-rule:evenodd;stroke:rgb(0, 0, 0);stroke-width:3.0;" d="M 365.884, 549.503 L 366.111, 555.441 L 353.399, 530.484 L 350.56, 512.699 z "/>
<path style="fill:rgb(223, 29, 30);fill-opacity:1.0;fill-rule:evenodd;stroke:rgb(0, 0, 0);stroke-width:3.0;" d="M 243.411, 554.19 L 285.563, 568.66 L 239.119, 572.532 L 226.449, 551.221 z "/>
<path style="fill:rgb(223, 29, 30);fill-opacity:1.0;fill-rule:evenodd;stroke:rgb(0, 0, 0);stroke-width:3.0;" d="M 322.567, 124.141 L 320.337, 125.322 L 324.447, 101.243 L 357.714, 41.0974 L 383.229, 30.6126 z "/>
<path style="fill:rgb(107, 102, 255);fill-opacity:1.0;fill-rule:evenodd;stroke:rgb(0, 0, 0);stroke-width:3.0;" d="M 303.639, 153.324 L 280.126, 146.605 L 322.567, 124.141 z "/>
<path style="fill:rgb(107, 102, 255);fill-opacity:1.0;fill-rule:evenodd;stroke:rgb(0, 0, 0);stroke-width:3.0;" d="M 286.786, 179.308 L 269.435, 206.06 L 247.696, 190.462 L 275.512, 167.327 z "/>
<path style="fill:rgb(255, 157, 255);fill-opacity:1.0;fill-rule:evenodd;stroke:rgb(0, 0, 0);stroke-width:3.0;" d="M 248.64, 238.122 L 238.054, 254.443 L 160.368, 246.575 L 159.037, 245.586 L 151.918, 225.952 L 229.404, 213.211 z "/>
<path style="fill:rgb(255, 157, 255);fill-opacity:1.0;fill-rule:evenodd;stroke:rgb(0, 0, 0);stroke-width:3.0;" d="M 72.1134, 510.29 L 65.9188, 519.841 L 59.0099, 511.488 L 55.4899, 498.396 L 57.7032, 494.279 z "/>
<path style="fill:rgb(123, 209, 223);fill-opacity:1.0;fill-rule:evenodd;stroke:rgb(0, 0, 0);stroke-width:3.0;" d="M 313.487, 425.496 L 186.331, 483.74 L 185.591, 482.496 L 312.676, 422.592 z "/>
<path style="fill:rgb(123, 209, 223);fill-opacity:1.0;fill-rule:evenodd;stroke:rgb(0, 0, 0);stroke-width:3.0;" d="M 352.522, 50.4838 L 324.447, 101.243 L 329.777, 70.0216 L 341.162, 47.899 L 342.94, 47.1684 z "/>
<path style="fill:rgb(204, 23, 33);fill-opacity:1.0;fill-rule:evenodd;stroke:rgb(0, 0, 0);stroke-width:3.0;" d="M 247.706, 586.977 L 241.612, 594.604 L 230.965, 585.789 L 230.874, 585.635 L 231.275, 581.545 L 242.412, 578.072 z "/>
<path style="fill:rgb(35, 1, 252);fill-opacity:1.0;fill-rule:evenodd;stroke:rgb(0, 0, 0);stroke-width:3.0;" d="M 317.407, 439.53 L 209.244, 522.281 L 186.331, 483.74 L 313.487, 425.496 z "/>
<path style="fill:rgb(35, 1, 252);fill-opacity:1.0;fill-rule:evenodd;stroke:rgb(0, 0, 0);stroke-width:3.0;" d="M 362.832, 359.535 L 370.039, 372.433 L 358.009, 377.916 L 343.738, 358.983 L 343.506, 348.832 z "/>
<path style="fill:rgb(35, 1, 252);fill-opacity:1.0;fill-rule:evenodd;stroke:rgb(0, 0, 0);stroke-width:3.0;" d="M 177.738, 200.8 L 159.631, 210.385 L 155.466, 196.346 L 161.434, 187.72 z "/>
<path style="fill:rgb(35, 1, 252);fill-opacity:1.0;fill-rule:evenodd;stroke:rgb(0, 0, 0);stroke-width:3.0;" d="M 191.084, 152.813 L 194.704, 158.328 L 176.576, 166.729 L 176.19, 166.392 L 186.674, 151.24 z "/>
<path style="fill:rgb(189, 5, 32);fill-opacity:1.0;fill-rule:evenodd;stroke:rgb(0, 0, 0);stroke-width:3.0;" d="M 410.125, 513.707 L 386.151, 497.166 L 388.005, 465.923 L 408.467, 418.192 z "/>
<path style="fill:rgb(240, 102, 23);fill-opacity:1.0;fill-rule:evenodd;stroke:rgb(0, 0, 0);stroke-width:3.0;" d="M 255.342, 15.415 L 250.74, 21.5238 L 235.328, 19.2755 L 238.46, 12.8662 z "/>
<path style="fill:rgb(240, 102, 23);fill-opacity:1.0;fill-rule:evenodd;stroke:rgb(0, 0, 0);stroke-width:3.0;" d="M 406.594, 310.261 L 408.467, 418.192 L 388.005, 465.923 L 397.401, 307.527 z "/>
<path style="fill:rgb(255, 207, 31);fill-opacity:1.0;fill-rule:evenodd;stroke:rgb(0, 0, 0);stroke-width:3.0;" d="M 123.936, 430.39 L 58.8618, 430.982 L 69.2169, 420.334 L 141.926, 402.654 z "/>
<path style="fill:rgb(157, 51, 231);fill-opacity:1.0;fill-rule:evenodd;stroke:rgb(0, 0, 0);stroke-width:3.0;" d="M 248.64, 238.122 L 229.404, 213.211 L 269.022, 206.697 z "/>
<path style="fill:rgb(252, 71, 146);fill-opacity:1.0;fill-rule:evenodd;stroke:rgb(0, 0, 0);stroke-width:3.0;" d="M 364.539, 514.283 L 348.195, 497.887 L 348.167, 497.71 L 352.917, 484.982 L 363.415, 484.884 z "/>
<path style="fill:rgb(252, 71, 146);fill-opacity:1.0;fill-rule:evenodd;stroke:rgb(0, 0, 0);stroke-width:3.0;" d="M 156.088, 195.446 L 147.203, 208.289 L 140.724, 195.897 L 140.295, 192.884 L 142.226, 190.234 z "/>
<path style="fill:rgb(184, 6, 165);fill-opacity:1.0;fill-rule:evenodd;stroke:rgb(0, 0, 0);stroke-width:3.0;" d="M 347.756, 572.454 L 323.581, 581.711 L 253.923, 557.799 L 259.752, 557.05 z "/>
<path style="fill:rgb(184, 6, 165);fill-opacity:1.0;fill-rule:evenodd;stroke:rgb(0, 0, 0);stroke-width:3.0;" d="M 312.101, 420.537 L 312.676, 422.592 L 185.591, 482.496 L 139.942, 405.712 L 149.093, 391.604 z "/>
<path style="fill:rgb(252, 3, 18);fill-opacity:1.0;fill-rule:evenodd;stroke:rgb(0, 0, 0);stroke-width:3.0;" d="M 337.563, 463.641 L 349.068, 506.193 L 343.26, 511.532 L 336.937, 463.209 z "/>
<path style="fill:rgb(252, 3, 18);fill-opacity:1.0;fill-rule:evenodd;stroke:rgb(0, 0, 0);stroke-width:3.0;" d="M 563.13, 13.6917 L 564.311, 22.1117 L 559.292, 24.261 L 546.166, 16.8679 L 550.134, 8.74076 z "/>
<path style="fill:rgb(252, 3, 18);fill-opacity:1.0;fill-rule:evenodd;stroke:rgb(0, 0, 0);stroke-width:3.0;" d="M 391, 415.426 L 345.957, 456.238 L 344.285, 382.96 L 393.413, 374.756 z "/>
<path style="fill:rgb(249, 69, 30);fill-opacity:1.0;fill-rule:evenodd;stroke:rgb(0, 0, 0);stroke-width:3.0;" d="M 312.615, 396.265 L 306.556, 400.684 L 286.037, 327.227 z "/>
<path style="fill:rgb(234, 12, 237);fill-opacity:1.0;fill-rule:evenodd;stroke:rgb(0, 0, 0);stroke-width:3.0;" d="M 544.912, 555 L 527.369, 575.941 L 497.387, 581.477 L 503.851, 570.022 L 538.347, 554.707 z "/>
<path style="fill:rgb(234, 182, 8);fill-opacity:1.0;fill-rule:evenodd;stroke:rgb(0, 0, 0);stroke-width:3.0;" d="M 169.447, 455.34 L 168.764, 456.473 L 152.844, 462.565 L 158.825, 437.475 z "/>
<path style="fill:rgb(234, 182, 8);fill-opacity:1.0;fill-rule:evenodd;stroke:rgb(0, 0, 0);stroke-width:3.0;" d="M 538.347, 554.707 L 503.851, 570.022 L 504.401, 569.047 L 527.056, 554.205 z "/>
<path style="fill:rgb(117, 1, 100);fill-opacity:1.0;fill-rule:evenodd;stroke:rgb(0, 0, 0);stroke-width:3.0;" d="M 578.825, 19.671 L 612.759, 42.0117 L 613.941, 55.0413 L 559.292, 24.261 L 574.161, 17.8942 z "/>
<path style="fill:rgb(117, 1, 100);fill-opacity:1.0;fill-rule:evenodd;stroke:rgb(0, 0, 0);stroke-width:3.0;" d="M 350.174, 510.282 L 359.057, 565.918 L 353.648, 569.272 L 348.318, 550.191 L 343.26, 511.532 L 349.068, 506.193 z "/>
<path style="fill:rgb(117, 1, 100);fill-opacity:1.0;fill-rule:evenodd;stroke:rgb(0, 0, 0);stroke-width:3.0;" d="M 339.374, 51.3745 L 328.655, 72.202 L 325.957, 70.5456 L 327.679, 53.4394 L 334.858, 50.4896 z "/>
<path style="fill:rgb(255, 37, 255);fill-opacity:1.0;fill-rule:evenodd;stroke:rgb(0, 0, 0);stroke-width:3.0;" d="M 761.654, 529.134 L 731.364, 533.974 L 728.444, 527.552 L 733.01, 523.92 L 777.672, 515.848 z "/>
<path style="fill:rgb(255, 0, 152);fill-opacity:1.0;fill-rule:evenodd;stroke:rgb(0, 0, 0);stroke-width:3.0;" d="M 218.459, 584.754 L 221.544, 588.217 L 209.21, 592.628 L 184.766, 573.606 L 188.165, 572.805 z "/>
<path style="fill:rgb(255, 0, 152);fill-opacity:1.0;fill-rule:evenodd;stroke:rgb(0, 0, 0);stroke-width:3.0;" d="M 359.014, 379.249 L 348.301, 382.289 L 344.285, 382.96 L 343.738, 358.983 z "/>
<path style="fill:rgb(207, 3, 255);fill-opacity:1.0;fill-rule:evenodd;stroke:rgb(0, 0, 0);stroke-width:3.0;" d="M 742.731, 127.58 L 688.909, 97.2655 L 641.655, 67.6954 L 641.674, 61.048 z "/>
<path style="fill:rgb(207, 3, 255);fill-opacity:1.0;fill-rule:evenodd;stroke:rgb(0, 0, 0);stroke-width:3.0;" d="M 375.12, 17.6871 L 369.452, 35.4564 L 367.618, 34.9158 L 362.016, 20.6764 L 370.664, 17.2234 z "/>
<path style="fill:rgb(207, 3, 255);fill-opacity:1.0;fill-rule:evenodd;stroke:rgb(0, 0, 0);stroke-width:3.0;" d="M 193.341, 580.279 L 167.476, 593.682 L 128.175, 586.952 L 184.766, 573.606 z "/>
<path style="fill:rgb(255, 3, 16);fill-opacity:1.0;fill-rule:evenodd;stroke:rgb(0, 0, 0);stroke-width:3.0;" d="M 256.201, 159.269 L 237.278, 169.285 L 216.554, 161.895 L 232.23, 154.842 z "/>
<path style="fill:rgb(220, 215, 182);fill-opacity:1.0;fill-rule:evenodd;stroke:rgb(0, 0, 0);stroke-width:3.0;" d="M 134.732, 307.741 L 130.206, 315.068 L 120.859, 317.003 L 114.725, 287.778 z "/>
<path style="fill:rgb(220, 215, 182);fill-opacity:1.0;fill-rule:evenodd;stroke:rgb(0, 0, 0);stroke-width:3.0;" d="M 269.461, 152.251 L 256.201, 159.269 L 252.277, 158.545 L 264.001, 140.549 L 265.953, 139.671 z "/>
<path style="fill:rgb(220, 215, 182);fill-opacity:1.0;fill-rule:evenodd;stroke:rgb(0, 0, 0);stroke-width:3.0;" d="M 572.804, 556.241 L 570.968, 563.151 L 541.08, 559.574 L 544.912, 555 z "/>
<path style="fill:rgb(220, 215, 182);fill-opacity:1.0;fill-rule:evenodd;stroke:rgb(0, 0, 0);stroke-width:3.0;" d="M 758.221, 88.0156 L 738.376, 95.6447 L 725.613, 86.0995 L 745.613, 83.2122 z "/>
<path style="fill:rgb(220, 215, 182);fill-opacity:1.0;fill-rule:evenodd;stroke:rgb(0, 0, 0);stroke-width:3.0;" d="M 208.363, 359.053 L 200.744, 359.927 L 183.219, 355.461 L 188.423, 338.778 z "/>
<path style="fill:rgb(220, 215, 182);fill-opacity:1.0;fill-rule:evenodd;stroke:rgb(0, 0, 0);stroke-width:3.0;" d="M 99.3436, 303.326 L 89.2092, 322.042 L 86.162, 311.126 L 96.6043, 300.781 z "/>
<path style="fill:rgb(252, 252, 19);fill-opacity:1.0;fill-rule:evenodd;stroke:rgb(0, 0, 0);stroke-width:3.0;" d="M 151.867, 335.35 L 140.863, 346.665 L 63.0077, 389.749 L 36.625, 335.199 L 37.2756, 334.306 L 50.5847, 331.551 z "/>
<path style="fill:rgb(54, 146, 237);fill-opacity:1.0;fill-rule:evenodd;stroke:rgb(0, 0, 0);stroke-width:3.0;" d="M 647.313, 45.7629 L 675.799, 56.6152 L 706.389, 103.653 L 590.57, 27.4037 z "/>
<path style="fill:rgb(44, 0, 177);fill-opacity:1.0;fill-rule:evenodd;stroke:rgb(0, 0, 0);stroke-width:3.0;" d="M 247.687, 21.0784 L 217.206, 45.832 L 179.459, 27.7334 L 209.456, 15.5012 z "/>
<path style="fill:rgb(44, 0, 177);fill-opacity:1.0;fill-rule:evenodd;stroke:rgb(0, 0, 0);stroke-width:3.0;" d="M 33.5806, 479.686 L 25.035, 474.031 L 39.8133, 460.141 z "/>
<path style="fill:rgb(44, 0, 177);fill-opacity:1.0;fill-rule:evenodd;stroke:rgb(0, 0, 0);stroke-width:3.0;" d="M 745.613, 83.2122 L 697.603, 90.1434 L 675.799, 56.6152 z "/>
<path style="fill:rgb(255, 246, 142);fill-opacity:1.0;fill-rule:evenodd;stroke:rgb(0, 0, 0);stroke-width:3.0;" d="M 106.845, 51.3128 L 109.318, 56.3348 L 98.2319, 60.8555 L 96.5067, 54.9355 L 100.036, 46.6935 z "/>
<path style="fill:rgb(30, 10, 255);fill-opacity:1.0;fill-rule:evenodd;stroke:rgb(0, 0, 0);stroke-width:3.0;" d="M 65.3979, 424.261 L 48.5269, 441.609 L 42.602, 437.905 L 35.7325, 428.016 L 37.9592, 417.576 z "/>
<path style="fill:rgb(86, 249, 255);fill-opacity:1.0;fill-rule:evenodd;stroke:rgb(0, 0, 0);stroke-width:3.0;" d="M 330.804, 250.373 L 286.16, 257.534 L 279.509, 235.232 z "/>
<path style="fill:rgb(86, 249, 255);fill-opacity:1.0;fill-rule:evenodd;stroke:rgb(0, 0, 0);stroke-width:3.0;" d="M 74.9495, 414.44 L 65.3979, 424.261 L 37.9592, 417.576 L 49.7438, 362.324 z "/>
<path style="fill:rgb(85, 202, 13);fill-opacity:1.0;fill-rule:evenodd;stroke:rgb(0, 0, 0);stroke-width:3.0;" d="M 270.006, 161.475 L 237.997, 180.358 L 238.054, 168.874 L 264.03, 155.125 z "/>
<path style="fill:rgb(150, 22, 255);fill-opacity:1.0;fill-rule:evenodd;stroke:rgb(0, 0, 0);stroke-width:3.0;" d="M 85.8928, 579.713 L 47.0653, 573.064 L 70.8905, 564.074 L 75.3701, 563.758 z "/>
<path style="fill:rgb(8, 249, 134);fill-opacity:1.0;fill-rule:evenodd;stroke:rgb(0, 0, 0);stroke-width:3.0;" d="M 139.467, 219.47 L 137.733, 221.975 L 121.488, 230.574 L 115.223, 227.303 L 119.01, 222.104 L 126.996, 215.117 z "/>
<path style="fill:rgb(8, 249, 134);fill-opacity:1.0;fill-rule:evenodd;stroke:rgb(0, 0, 0);stroke-width:3.0;" d="M 269.435, 206.06 L 269.022, 206.697 L 124.923, 230.391 L 124.63, 228.911 L 226.289, 175.102 z "/>
<path style="fill:rgb(255, 12, 13);fill-opacity:1.0;fill-rule:evenodd;stroke:rgb(0, 0, 0);stroke-width:3.0;" d="M 157.15, 246.249 L 155.777, 273.677 L 146.694, 288.378 L 127.065, 280.397 L 123.326, 259.039 L 128.853, 248.832 L 151.193, 245.646 z "/>
<path style="fill:rgb(255, 12, 13);fill-opacity:1.0;fill-rule:evenodd;stroke:rgb(0, 0, 0);stroke-width:3.0;" d="M 731.399, 90.4268 L 721.382, 102.178 L 710.501, 106.361 L 706.389, 103.653 L 697.603, 90.1434 L 725.613, 86.0995 z "/>
<path style="fill:rgb(255, 12, 13);fill-opacity:1.0;fill-rule:evenodd;stroke:rgb(0, 0, 0);stroke-width:3.0;" d="M 366.111, 555.441 L 366.339, 561.403 L 359.057, 565.918 L 357.385, 555.448 L 361.241, 545.879 z "/>
<path style="fill:rgb(13, 252, 132);fill-opacity:1.0;fill-rule:evenodd;stroke:rgb(0, 0, 0);stroke-width:3.0;" d="M 153.075, 285.789 L 155.053, 288.13 L 153.95, 310.153 L 139.033, 313.241 L 151.624, 285.047 z "/>
<path style="fill:rgb(13, 252, 132);fill-opacity:1.0;fill-rule:evenodd;stroke:rgb(0, 0, 0);stroke-width:3.0;" d="M 66.5489, 467.995 L 79.0787, 476.557 L 79.2378, 490.643 L 62.7776, 466.948 z "/>
<path style="fill:rgb(150, 0, 179);fill-opacity:1.0;fill-rule:evenodd;stroke:rgb(0, 0, 0);stroke-width:3.0;" d="M 160.368, 246.575 L 105.25, 240.993 L 107.413, 238.024 L 120.442, 231.128 L 136.104, 228.552 z "/>
<path style="fill:rgb(17, 234, 255);fill-opacity:1.0;fill-rule:evenodd;stroke:rgb(0, 0, 0);stroke-width:3.0;" d="M 331.253, 444.678 L 326.815, 456.224 L 320.937, 452.169 L 316.442, 436.075 L 327.104, 433.901 z "/>
<path style="fill:rgb(17, 234, 255);fill-opacity:1.0;fill-rule:evenodd;stroke:rgb(0, 0, 0);stroke-width:3.0;" d="M 641.674, 61.048 L 641.647, 70.646 L 618.336, 57.5167 L 621.053, 47.4723 z "/>
<path style="fill:rgb(255, 199, 14);fill-opacity:1.0;fill-rule:evenodd;stroke:rgb(0, 0, 0);stroke-width:3.0;" d="M 98.4216, 469.728 L 97.004, 471.914 L 87.9896, 466.279 L 85.1517, 439.158 z "/>
<path style="fill:rgb(255, 199, 14);fill-opacity:1.0;fill-rule:evenodd;stroke:rgb(0, 0, 0);stroke-width:3.0;" d="M 97.6134, 413.429 L 69.2169, 420.334 L 93.8343, 395.022 z "/>
<path style="fill:rgb(30, 212, 231);fill-opacity:1.0;fill-rule:evenodd;stroke:rgb(0, 0, 0);stroke-width:3.0;" d="M 146.694, 288.378 L 134.732, 307.741 L 131.243, 304.259 L 127.065, 280.397 z "/>
<path style="fill:rgb(30, 212, 231);fill-opacity:1.0;fill-rule:evenodd;stroke:rgb(0, 0, 0);stroke-width:3.0;" d="M 143.931, 399.562 L 141.926, 402.654 L 97.6134, 413.429 L 93.8343, 395.022 L 105.73, 382.79 z "/>
<path style="fill:rgb(249, 24, 192);fill-opacity:1.0;fill-rule:evenodd;stroke:rgb(0, 0, 0);stroke-width:3.0;" d="M 286.16, 257.534 L 267.41, 260.542 L 260.736, 236.65 L 278.859, 233.052 z "/>
<path style="fill:rgb(249, 24, 192);fill-opacity:1.0;fill-rule:evenodd;stroke:rgb(0, 0, 0);stroke-width:3.0;" d="M 30.131, 14.6418 L 29.7017, 23.5903 L 27.4112, 30.1125 L 23.2019, 35.8288 L 13.4313, 32.742 L 12.7246, 31.9139 L 18.0988, 12.9533 L 27.2641, 12.1917 z "/>
<path style="fill:rgb(107, 246, 255);fill-opacity:1.0;fill-rule:evenodd;stroke:rgb(0, 0, 0);stroke-width:3.0;" d="M 95.3751, 378.015 L 88.3314, 385.224 L 83.7691, 386.613 L 78.3681, 385.338 L 83.5855, 378.361 L 97.8285, 370.479 z "/>
<path style="fill:rgb(107, 246, 255);fill-opacity:1.0;fill-rule:evenodd;stroke:rgb(0, 0, 0);stroke-width:3.0;" d="M 114.725, 287.778 L 120.859, 317.003 L 97.1027, 321.921 L 96.9167, 307.808 L 110.205, 283.268 z "/>
<path style="fill:rgb(252, 237, 136);fill-opacity:1.0;fill-rule:evenodd;stroke:rgb(0, 0, 0);stroke-width:3.0;" d="M 756.218, 135.176 L 775.488, 155.57 L 775.34, 155.619 L 755.268, 148.481 L 746.481, 140.099 L 750.938, 132.202 z "/>
<path style="fill:rgb(240, 252, 7);fill-opacity:1.0;fill-rule:evenodd;stroke:rgb(0, 0, 0);stroke-width:3.0;" d="M 331.965, 491.647 L 323.935, 500.451 L 299.001, 492.244 L 330.625, 486.852 z "/>
<path style="fill:rgb(212, 150, 255);fill-opacity:1.0;fill-rule:evenodd;stroke:rgb(0, 0, 0);stroke-width:3.0;" d="M 68.2006, 474.755 L 52.8353, 503.333 L 40.6069, 500.255 L 56.1953, 466.2 L 59.1824, 461.773 z "/>
<path style="fill:rgb(89, 27, 189);fill-opacity:1.0;fill-rule:evenodd;stroke:rgb(0, 0, 0);stroke-width:3.0;" d="M 40.6069, 500.255 L 34.2897, 498.664 L 56.1953, 466.2 z "/>
<path style="fill:rgb(243, 94, 9);fill-opacity:1.0;fill-rule:evenodd;stroke:rgb(0, 0, 0);stroke-width:3.0;" d="M 782.695, 15.0328 L 786.812, 18.7199 L 787.103, 24.8645 L 779.336, 32.7777 L 774.195, 14.9563 z "/>
<path style="fill:rgb(243, 94, 9);fill-opacity:1.0;fill-rule:evenodd;stroke:rgb(0, 0, 0);stroke-width:3.0;" d="M 162.491, 34.6522 L 157.382, 36.7355 L 141.369, 21.3534 L 144.912, 16.3175 z "/>
<path style="fill:rgb(243, 94, 9);fill-opacity:1.0;fill-rule:evenodd;stroke:rgb(0, 0, 0);stroke-width:3.0;" d="M 62.6221, 524.924 L 37.7744, 563.234 L 24.4702, 556.089 L 55.4899, 498.396 z "/>
<path style="fill:rgb(249, 58, 10);fill-opacity:1.0;fill-rule:evenodd;stroke:rgb(0, 0, 0);stroke-width:3.0;" d="M 223.818, 78.2262 L 210.895, 95.9665 L 210.849, 95.8772 L 212.827, 64.4064 z "/>
<path style="fill:rgb(24, 246, 228);fill-opacity:1.0;fill-rule:evenodd;stroke:rgb(0, 0, 0);stroke-width:3.0;" d="M 234.093, 64.1212 L 223.818, 78.2262 L 212.827, 64.4064 L 213.652, 51.2769 z "/>
<path style="fill:rgb(234, 27, 234);fill-opacity:1.0;fill-rule:evenodd;stroke:rgb(0, 0, 0);stroke-width:3.0;" d="M 211.537, 115.305 L 207.821, 120.676 L 142.294, 190.259 L 142.226, 190.234 L 196.912, 115.163 L 199.237, 113.961 z "/>
<path style="fill:rgb(64, 255, 61);fill-opacity:1.0;fill-rule:evenodd;stroke:rgb(0, 0, 0);stroke-width:3.0;" d="M 19.8966, 40.3175 L 5.95236, 59.2541 L 6.66276, 54.2124 L 14.8679, 34.4252 z "/>
<path style="fill:rgb(31, 34, 255);fill-opacity:1.0;fill-rule:evenodd;stroke:rgb(0, 0, 0);stroke-width:3.0;" d="M 236.843, 510.395 L 243.121, 516.86 L 218.33, 537.564 L 209.244, 522.281 L 224.94, 510.273 z "/>
<path style="fill:rgb(76, 255, 255);fill-opacity:1.0;fill-rule:evenodd;stroke:rgb(0, 0, 0);stroke-width:3.0;" d="M 236.942, 15.9729 L 235.328, 19.2755 L 209.456, 15.5012 L 218.927, 11.639 z "/>
<path style="fill:rgb(146, 6, 220);fill-opacity:1.0;fill-rule:evenodd;stroke:rgb(0, 0, 0);stroke-width:3.0;" d="M 103.846, 380.575 L 101.103, 387.548 L 87.5335, 401.5 L 85.8709, 393.638 L 98.5049, 376.284 z "/>
<path style="fill:rgb(255, 246, 17);fill-opacity:1.0;fill-rule:evenodd;stroke:rgb(0, 0, 0);stroke-width:3.0;" d="M 45.578, 322.909 L 34.3945, 338.261 L 28.3513, 337.433 L 18.326, 295.328 L 19.7227, 285.214 L 32.1281, 281.538 z "/>
<path style="fill:rgb(217, 255, 10);fill-opacity:1.0;fill-rule:evenodd;stroke:rgb(0, 0, 0);stroke-width:3.0;" d="M 327.104, 433.901 L 316.442, 436.075 L 308.067, 406.092 L 312.844, 396.861 z "/>
<path style="fill:rgb(124, 107, 252);fill-opacity:1.0;fill-rule:evenodd;stroke:rgb(0, 0, 0);stroke-width:3.0;" d="M 87.9896, 466.279 L 84.1355, 463.869 L 70.5671, 442.159 L 84.8119, 435.911 z "/>
<path style="fill:rgb(255, 243, 43);fill-opacity:1.0;fill-rule:evenodd;stroke:rgb(0, 0, 0);stroke-width:3.0;" d="M 629.994, 39.1649 L 629.419, 39.9733 L 590.57, 27.4037 L 578.825, 19.671 z "/>
<path style="fill:rgb(215, 56, 136);fill-opacity:1.0;fill-rule:evenodd;stroke:rgb(0, 0, 0);stroke-width:3.0;" d="M 210.613, 183.399 L 177.738, 200.8 L 161.434, 187.72 L 167.201, 179.385 z "/>
<path style="fill:rgb(252, 10, 71);fill-opacity:1.0;fill-rule:evenodd;stroke:rgb(0, 0, 0);stroke-width:3.0;" d="M 268.427, 380.218 L 268.889, 412.867 L 149.093, 391.604 L 167.139, 363.78 L 229.763, 356.6 z "/>
<path style="fill:rgb(252, 10, 71);fill-opacity:1.0;fill-rule:evenodd;stroke:rgb(0, 0, 0);stroke-width:3.0;" d="M 58.3977, 568.788 L 50.5199, 571.761 L 36.0714, 565.86 L 42.6249, 555.756 z "/>
<path style="fill:rgb(148, 0, 91);fill-opacity:1.0;fill-rule:evenodd;stroke:rgb(0, 0, 0);stroke-width:3.0;" d="M 113.022, 248.396 L 103.821, 258.837 L 97.8651, 251.131 L 101.097, 246.695 L 111.66, 245.546 z "/>
<path style="fill:rgb(194, 62, 217);fill-opacity:1.0;fill-rule:evenodd;stroke:rgb(0, 0, 0);stroke-width:3.0;" d="M 260.075, 146.574 L 252.277, 158.545 L 232.23, 154.842 L 251.643, 146.109 z "/>
<path style="fill:rgb(204, 132, 17);fill-opacity:1.0;fill-rule:evenodd;stroke:rgb(0, 0, 0);stroke-width:3.0;" d="M 162.983, 19.9317 L 154.942, 26.7792 L 147.081, 18.5799 L 158.637, 13.8506 z "/>
<path style="fill:rgb(204, 132, 17);fill-opacity:1.0;fill-rule:evenodd;stroke:rgb(0, 0, 0);stroke-width:3.0;" d="M 765.487, 506.481 L 771.698, 516.928 L 739.906, 522.674 L 736.166, 513.554 L 755.552, 500.518 z "/>
<path style="fill:rgb(255, 0, 152);fill-opacity:1.0;fill-rule:evenodd;stroke:rgb(0, 0, 0);stroke-width:3.0;" d="M 159.037, 245.586 L 136.104, 228.552 L 151.918, 225.952 z "/>
<path style="fill:rgb(228, 33, 157);fill-opacity:1.0;fill-rule:evenodd;stroke:rgb(0, 0, 0);stroke-width:3.0;" d="M 275.512, 167.327 L 253.628, 185.528 L 241.464, 185.99 L 238.485, 183.853 L 267.485, 165.115 L 271.607, 163.177 z "/>
<path style="fill:rgb(255, 234, 10);fill-opacity:1.0;fill-rule:evenodd;stroke:rgb(0, 0, 0);stroke-width:3.0;" d="M 325.137, 79.0386 L 324.782, 79.7284 L 308.371, 64.7923 L 307.156, 61.8733 L 314.731, 58.7601 z "/>
<path style="fill:rgb(255, 234, 10);fill-opacity:1.0;fill-rule:evenodd;stroke:rgb(0, 0, 0);stroke-width:3.0;" d="M 35.1105, 387.519 L 34.1193, 392.15 L 20.3048, 405.807 L 16.6472, 400.542 L 32.1278, 384.657 L 34.2064, 383.744 z "/>
<path style="fill:rgb(255, 8, 202);fill-opacity:1.0;fill-rule:evenodd;stroke:rgb(0, 0, 0);stroke-width:3.0;" d="M 387.704, 470.992 L 386.151, 497.166 L 346.263, 469.643 L 345.957, 456.238 L 350.13, 452.457 z "/>
<path style="fill:rgb(48, 9, 255);fill-opacity:1.0;fill-rule:evenodd;stroke:rgb(0, 0, 0);stroke-width:3.0;" d="M 101.199, 32.9864 L 115.037, 48.9168 L 113.185, 52.2202 L 105.989, 49.5741 L 97.3849, 32.1048 z "/>
<path style="fill:rgb(22, 11, 249);fill-opacity:1.0;fill-rule:evenodd;stroke:rgb(0, 0, 0);stroke-width:3.0;" d="M 325.121, 13.3507 L 244.66, 66.1397 L 243.162, 58.0583 L 324.737, 12.407 z "/>
<path style="fill:rgb(249, 24, 255);fill-opacity:1.0;fill-rule:evenodd;stroke:rgb(0, 0, 0);stroke-width:3.0;" d="M 160.521, 189.039 L 145.492, 191.462 L 143.179, 190.592 L 142.501, 190.04 L 207.821, 120.676 z "/>
<path style="fill:rgb(9, 6, 163);fill-opacity:1.0;fill-rule:evenodd;stroke:rgb(0, 0, 0);stroke-width:3.0;" d="M 750.938, 132.202 L 738.359, 154.49 L 545.071, 16.2511 z "/>
<path style="fill:rgb(255, 123, 7);fill-opacity:1.0;fill-rule:evenodd;stroke:rgb(0, 0, 0);stroke-width:3.0;" d="M 308.013, 490.707 L 296.984, 492.588 L 291.206, 488.157 L 302.509, 468.489 L 307.488, 465.928 z "/>
<path style="fill:rgb(255, 123, 7);fill-opacity:1.0;fill-rule:evenodd;stroke:rgb(0, 0, 0);stroke-width:3.0;" d="M 242.412, 578.072 L 228.907, 582.283 L 221.285, 569.294 L 235.083, 565.744 z "/>
<path style="fill:rgb(255, 13, 67);fill-opacity:1.0;fill-rule:evenodd;stroke:rgb(0, 0, 0);stroke-width:3.0;" d="M 52.8353, 503.333 L 43.5266, 520.646 L 32.2642, 519.691 L 30.611, 504.116 L 34.2897, 498.664 z "/>
<path style="fill:rgb(121, 3, 255);fill-opacity:1.0;fill-rule:evenodd;stroke:rgb(0, 0, 0);stroke-width:3.0;" d="M 282.151, 138.012 L 280.904, 142.676 L 267.587, 145.529 L 265.953, 139.671 L 276.91, 134.742 z "/>
<path style="fill:rgb(19, 24, 252);fill-opacity:1.0;fill-rule:evenodd;stroke:rgb(0, 0, 0);stroke-width:3.0;" d="M 324.782, 79.7284 L 319.146, 90.6802 L 308.371, 64.7923 z "/>
<path style="fill:rgb(255, 209, 23);fill-opacity:1.0;fill-rule:evenodd;stroke:rgb(0, 0, 0);stroke-width:3.0;" d="M 338.326, 473.823 L 348.318, 550.191 L 324.491, 464.89 z "/>
<path style="fill:rgb(255, 6, 170);fill-opacity:1.0;fill-rule:evenodd;stroke:rgb(0, 0, 0);stroke-width:3.0;" d="M 336.937, 463.209 L 338.326, 473.823 L 324.491, 464.89 L 320.937, 452.169 z "/>
<path style="fill:rgb(255, 42, 223);fill-opacity:1.0;fill-rule:evenodd;stroke:rgb(0, 0, 0);stroke-width:3.0;" d="M 332.665, 503.324 L 330.825, 511.153 L 317.549, 523.128 L 288.218, 494.082 L 299.001, 492.244 z "/>
<path style="fill:rgb(255, 59, 13);fill-opacity:1.0;fill-rule:evenodd;stroke:rgb(0, 0, 0);stroke-width:3.0;" d="M 779.181, 500.071 L 779.669, 512.423 L 777.421, 513.644 L 755.552, 500.518 L 757.599, 499.141 z "/>
</svg>