<?xml version="1.0" encoding="iso-8859-1" standalone="no"?>
<!DOCTYPE svg PUBLIC "-//W3C//DTD SVG 1.0//EN" "http://www.w3.org/TR/2001/REC-SVG-20010904/DTD/svg10.dtd">
<svg xmlns="http://www.w3.org/2000/svg" width="800" height="600">
<path style="fill:rgb(0, 0, 0);fill-opacity:0.0;fill-rule:evenodd;stroke:rgb(0, 0, 0);stroke-width:0.0;" d="M 0, 600 L 800, 600 L 800, 0 L 0, 0 z "/>
<path style="fill:rgb(246, 2, 6);fill-opacity:1.0;fill-rule:evenodd;stroke:rgb(0, 0, 0);stroke-width:3.0;" d="M 656.887, 502.552 L 657.004, 503.168 L 632.285, 503.184 L 633.675, 495.51 z "/>
<path style="fill:rgb(246, 2, 6);fill-opacity:1.0;fill-rule:evenodd;stroke:rgb(0, 0, 0);stroke-width:3.0;" d="M 681.286, 197.79 L 441.607, 125.836 L 456.046, 40.6411 z "/>
<path style="fill:rgb(234, 26, 255);fill-opacity:1.0;fill-rule:evenodd;stroke:rgb(0, 0, 0);stroke-width:3.0;" d="M 397.297, 41.338 L 385.64, 51.6568 L 374.236, 52.3603 L 369.32, 51.7919 L 384.967, 36.6129 L 386.663, 35.5391 L 397.121, 33.988 z "/>
<path style="fill:rgb(234, 26, 255);fill-opacity:1.0;fill-rule:evenodd;stroke:rgb(0, 0, 0);stroke-width:3.0;" d="M 256.854, 15.5158 L 233.693, 58.2263 L 222.119, 59.9429 L 209.386, 56.1204 L 205.043, 40.9407 L 249.243, 14.5376 z "/>
<path style="fill:rgb(255, 1, 44);fill-opacity:1.0;fill-rule:evenodd;stroke:rgb(0, 0, 0);stroke-width:3.0;" d="M 366.894, 53.9235 L 365.584, 68.9359 L 350.155, 71.3989 L 350.02, 70.6654 L 363.697, 52.9149 z "/>
<path style="fill:rgb(255, 1, 44);fill-opacity:1.0;fill-rule:evenodd;stroke:rgb(0, 0, 0);stroke-width:3.0;" d="M 165.104, 42.8264 L 146.816, 37.3361 L 172.952, 15.2859 z "/>
<path style="fill:rgb(255, 1, 44);fill-opacity:1.0;fill-rule:evenodd;stroke:rgb(0, 0, 0);stroke-width:3.0;" d="M 284.748, 19.1009 L 244.465, 38.3619 L 256.854, 15.5158 z "/>
<path style="fill:rgb(255, 1, 44);fill-opacity:1.0;fill-rule:evenodd;stroke:rgb(0, 0, 0);stroke-width:3.0;" d="M 630.294, 59.9776 L 615.918, 79.3865 L 600.261, 72.2055 L 608.967, 50.9536 z "/>
<path style="fill:rgb(255, 1, 44);fill-opacity:1.0;fill-rule:evenodd;stroke:rgb(0, 0, 0);stroke-width:3.0;" d="M 595.831, 114.558 L 575.782, 120.091 L 573.49, 58.5559 L 587.447, 51.9295 z "/>
<path style="fill:rgb(255, 61, 79);fill-opacity:1.0;fill-rule:evenodd;stroke:rgb(0, 0, 0);stroke-width:3.0;" d="M 748.14, 579.449 L 746.381, 581.212 L 715.418, 582.26 L 714.644, 576.432 L 740.528, 572.565 z "/>
<path style="fill:rgb(228, 138, 31);fill-opacity:1.0;fill-rule:evenodd;stroke:rgb(0, 0, 0);stroke-width:3.0;" d="M 340.284, 115.383 L 320.426, 117.187 L 313.032, 104.786 L 334.247, 95.2828 z "/>
<path style="fill:rgb(228, 138, 31);fill-opacity:1.0;fill-rule:evenodd;stroke:rgb(0, 0, 0);stroke-width:3.0;" d="M 750.005, 25.4432 L 724.878, 42.7778 L 718.213, 7.84293 z "/>
<path style="fill:rgb(255, 2, 26);fill-opacity:1.0;fill-rule:evenodd;stroke:rgb(0, 0, 0);stroke-width:3.0;" d="M 615.886, 103.499 L 618.223, 107.005 L 616.177, 112.935 L 603.003, 109.696 L 594.475, 104.424 L 594.237, 102.647 z "/>
<path style="fill:rgb(255, 2, 26);fill-opacity:1.0;fill-rule:evenodd;stroke:rgb(0, 0, 0);stroke-width:3.0;" d="M 503.139, 331.876 L 482.896, 344.11 L 481.416, 338.687 L 498.435, 307.736 z "/>
<path style="fill:rgb(255, 2, 26);fill-opacity:1.0;fill-rule:evenodd;stroke:rgb(0, 0, 0);stroke-width:3.0;" d="M 600.701, 71.1312 L 599.047, 75.1686 L 589.566, 67.7569 L 588.264, 58.0358 L 591.817, 56.3887 z "/>
<path style="fill:rgb(9, 34, 197);fill-opacity:1.0;fill-rule:evenodd;stroke:rgb(0, 0, 0);stroke-width:3.0;" d="M 643.483, 18.6238 L 641.834, 18.7003 L 636.433, 12.6847 L 661.909, 6.26978 z "/>
<path style="fill:rgb(37, 154, 255);fill-opacity:1.0;fill-rule:evenodd;stroke:rgb(0, 0, 0);stroke-width:3.0;" d="M 405.018, 91.6768 L 402.985, 95.7383 L 398.736, 93.5167 L 396.307, 83.9774 L 404.199, 73.4686 z "/>
<path style="fill:rgb(37, 154, 255);fill-opacity:1.0;fill-rule:evenodd;stroke:rgb(0, 0, 0);stroke-width:3.0;" d="M 424.31, 120.643 L 540.58, 227.821 L 530.01, 239.254 L 428.704, 213.352 L 348.3, 112.35 L 346.837, 97.3848 z "/>
<path style="fill:rgb(100, 226, 165);fill-opacity:1.0;fill-rule:evenodd;stroke:rgb(0, 0, 0);stroke-width:3.0;" d="M 574.302, 80.3601 L 563.295, 115.468 L 535.361, 95.9788 L 574.3, 80.2926 z "/>
<path style="fill:rgb(52, 3, 234);fill-opacity:1.0;fill-rule:evenodd;stroke:rgb(0, 0, 0);stroke-width:3.0;" d="M 609.358, 36.2574 L 602.532, 39.7693 L 584.101, 38.6048 L 584.379, 37.6886 L 591.73, 28.8567 z "/>
<path style="fill:rgb(44, 61, 243);fill-opacity:1.0;fill-rule:evenodd;stroke:rgb(0, 0, 0);stroke-width:3.0;" d="M 316.119, 66.9923 L 302.744, 55.6629 L 331.011, 52.1662 z "/>
<path style="fill:rgb(44, 61, 243);fill-opacity:1.0;fill-rule:evenodd;stroke:rgb(0, 0, 0);stroke-width:3.0;" d="M 721.055, 502.083 L 716.402, 525.277 L 709.593, 544.59 L 709.175, 544.212 L 691.684, 476.192 z "/>
<path style="fill:rgb(44, 61, 243);fill-opacity:1.0;fill-rule:evenodd;stroke:rgb(0, 0, 0);stroke-width:3.0;" d="M 575.42, 110.354 L 567.985, 100.51 L 574.302, 80.3601 z "/>
<path style="fill:rgb(44, 61, 243);fill-opacity:1.0;fill-rule:evenodd;stroke:rgb(0, 0, 0);stroke-width:3.0;" d="M 389.244, 55.0996 L 373.714, 67.3598 L 373.463, 67.343 L 373.313, 62.5681 L 409.204, 30.7986 z "/>
<path style="fill:rgb(255, 114, 170);fill-opacity:1.0;fill-rule:evenodd;stroke:rgb(0, 0, 0);stroke-width:3.0;" d="M 430.656, 213.852 L 420.741, 222.329 L 389.552, 209.402 L 380.95, 201.143 z "/>
<path style="fill:rgb(255, 114, 170);fill-opacity:1.0;fill-rule:evenodd;stroke:rgb(0, 0, 0);stroke-width:3.0;" d="M 115.118, 267.146 L 8.35556, 394.982 L 24.8954, 196.947 z "/>
<path style="fill:rgb(110, 255, 44);fill-opacity:1.0;fill-rule:evenodd;stroke:rgb(0, 0, 0);stroke-width:3.0;" d="M 219.99, 32.0122 L 205.608, 40.6036 L 205.633, 21.1798 z "/>
<path style="fill:rgb(110, 255, 44);fill-opacity:1.0;fill-rule:evenodd;stroke:rgb(0, 0, 0);stroke-width:3.0;" d="M 761.528, 581.185 L 749.568, 580.74 L 748.46, 579.738 L 745.324, 568.194 L 749.057, 566.628 z "/>
<path style="fill:rgb(110, 255, 44);fill-opacity:1.0;fill-rule:evenodd;stroke:rgb(0, 0, 0);stroke-width:3.0;" d="M 240.495, 65.4597 L 257.296, 96.9027 L 115.118, 267.146 L 24.8954, 196.947 L 40.8822, 5.53353 z "/>
<path style="fill:rgb(255, 117, 14);fill-opacity:1.0;fill-rule:evenodd;stroke:rgb(0, 0, 0);stroke-width:3.0;" d="M 666.459, 553.033 L 646.346, 578.886 L 645.075, 579.32 L 655.518, 537.131 L 662.929, 534.418 z "/>
<path style="fill:rgb(255, 117, 14);fill-opacity:1.0;fill-rule:evenodd;stroke:rgb(0, 0, 0);stroke-width:3.0;" d="M 444.335, 101.363 L 431.796, 122.89 L 425.622, 121.037 L 424.17, 117.598 L 428.274, 97.2107 z "/>
<path style="fill:rgb(255, 38, 19);fill-opacity:1.0;fill-rule:evenodd;stroke:rgb(0, 0, 0);stroke-width:3.0;" d="M 447.382, 91.762 L 425.523, 76.115 L 453.761, 54.1244 z "/>
<path style="fill:rgb(255, 38, 19);fill-opacity:1.0;fill-rule:evenodd;stroke:rgb(0, 0, 0);stroke-width:3.0;" d="M 428.274, 97.2107 L 424.17, 117.598 L 414.006, 93.5215 z "/>
<path style="fill:rgb(152, 69, 128);fill-opacity:1.0;fill-rule:evenodd;stroke:rgb(0, 0, 0);stroke-width:3.0;" d="M 200.794, 8.31055 L 220.391, 31.7728 L 219.99, 32.0122 L 197.672, 15.1726 L 195.514, 7.63202 z "/>
<path style="fill:rgb(255, 187, 9);fill-opacity:1.0;fill-rule:evenodd;stroke:rgb(0, 0, 0);stroke-width:3.0;" d="M 791, 518.722 L 790.383, 521.624 L 769.251, 529.993 L 774.408, 514.018 z "/>
<path style="fill:rgb(255, 187, 9);fill-opacity:1.0;fill-rule:evenodd;stroke:rgb(0, 0, 0);stroke-width:3.0;" d="M 648.138, 88.4011 L 630.47, 107.875 L 615.955, 95.366 L 632.796, 81.527 z "/>
<path style="fill:rgb(255, 10, 41);fill-opacity:1.0;fill-rule:evenodd;stroke:rgb(0, 0, 0);stroke-width:3.0;" d="M 432.935, 48.9024 L 422.49, 71.659 L 408.234, 85.2538 L 433.849, 34.082 z "/>
<path style="fill:rgb(45, 19, 243);fill-opacity:1.0;fill-rule:evenodd;stroke:rgb(0, 0, 0);stroke-width:3.0;" d="M 718.706, 10.4249 L 721.802, 26.6565 L 685.815, 6.08628 z "/>
<path style="fill:rgb(255, 165, 75);fill-opacity:1.0;fill-rule:evenodd;stroke:rgb(0, 0, 0);stroke-width:3.0;" d="M 791.784, 460.202 L 776.124, 508.702 L 733.873, 475.723 L 748.001, 435.649 z "/>
<path style="fill:rgb(15, 70, 255);fill-opacity:1.0;fill-rule:evenodd;stroke:rgb(0, 0, 0);stroke-width:3.0;" d="M 480.526, 340.306 L 467.543, 363.917 L 439.503, 316.891 L 465.567, 298.642 z "/>
<path style="fill:rgb(255, 144, 7);fill-opacity:1.0;fill-rule:evenodd;stroke:rgb(0, 0, 0);stroke-width:3.0;" d="M 456.046, 40.6411 L 453.761, 54.1244 L 417.619, 82.2697 L 441.413, 30.4312 z "/>
<path style="fill:rgb(255, 144, 7);fill-opacity:1.0;fill-rule:evenodd;stroke:rgb(0, 0, 0);stroke-width:3.0;" d="M 723.741, 36.8175 L 724.878, 42.7778 L 719.651, 46.3837 L 698.381, 32.7756 z "/>
<path style="fill:rgb(255, 144, 7);fill-opacity:1.0;fill-rule:evenodd;stroke:rgb(0, 0, 0);stroke-width:3.0;" d="M 560.705, 409.948 L 563.781, 412.73 L 553.771, 425.03 L 546.52, 425.674 L 522.69, 421.741 L 544.765, 404.04 z "/>
<path style="fill:rgb(215, 144, 204);fill-opacity:1.0;fill-rule:evenodd;stroke:rgb(0, 0, 0);stroke-width:3.0;" d="M 716.458, 590.093 L 690.072, 591.885 L 688.782, 580.295 L 714.644, 576.432 z "/>
<path style="fill:rgb(249, 215, 59);fill-opacity:1.0;fill-rule:evenodd;stroke:rgb(0, 0, 0);stroke-width:3.0;" d="M 530.266, 585.486 L 516.362, 583.804 L 484.05, 549.277 L 508.959, 464.591 z "/>
<path style="fill:rgb(249, 215, 59);fill-opacity:1.0;fill-rule:evenodd;stroke:rgb(0, 0, 0);stroke-width:3.0;" d="M 626.284, 86.8787 L 615.955, 95.366 L 608.708, 89.1212 L 615.218, 80.3323 z "/>
<path style="fill:rgb(249, 215, 59);fill-opacity:1.0;fill-rule:evenodd;stroke:rgb(0, 0, 0);stroke-width:3.0;" d="M 408.276, 8.75294 L 377.274, 30.9929 L 292.323, 20.0745 L 297.166, 5.28273 z "/>
<path style="fill:rgb(255, 161, 6);fill-opacity:1.0;fill-rule:evenodd;stroke:rgb(0, 0, 0);stroke-width:3.0;" d="M 287.48, 64.2482 L 288.631, 67.7596 L 279.814, 73.3702 L 274.095, 66.443 L 277.528, 61.5935 z "/>
<path style="fill:rgb(255, 161, 6);fill-opacity:1.0;fill-rule:evenodd;stroke:rgb(0, 0, 0);stroke-width:3.0;" d="M 444.078, 324.563 L 29.3812, 369.806 L 50.005, 345.111 L 380.808, 218.453 z "/>
<path style="fill:rgb(255, 161, 6);fill-opacity:1.0;fill-rule:evenodd;stroke:rgb(0, 0, 0);stroke-width:3.0;" d="M 673.424, 37.4302 L 661.757, 57.7296 L 650.548, 66.9399 L 618.581, 37.147 L 635.874, 28.9365 z "/>
<path style="fill:rgb(223, 177, 217);fill-opacity:1.0;fill-rule:evenodd;stroke:rgb(0, 0, 0);stroke-width:3.0;" d="M 669.839, 570.861 L 646.346, 578.886 L 666.459, 553.033 z "/>
<path style="fill:rgb(223, 177, 217);fill-opacity:1.0;fill-rule:evenodd;stroke:rgb(0, 0, 0);stroke-width:3.0;" d="M 658.113, 509.016 L 662.929, 534.418 L 624.05, 548.651 L 631.686, 506.493 z "/>
<path style="fill:rgb(9, 9, 189);fill-opacity:1.0;fill-rule:evenodd;stroke:rgb(0, 0, 0);stroke-width:3.0;" d="M 636.774, 557.315 L 635.331, 569.523 L 622.557, 556.896 L 624.05, 548.651 L 634.399, 544.862 z "/>
<path style="fill:rgb(189, 72, 209);fill-opacity:1.0;fill-rule:evenodd;stroke:rgb(0, 0, 0);stroke-width:3.0;" d="M 576.399, 231.997 L 555.882, 245.869 L 536.71, 240.967 L 572.543, 220.244 z "/>
<path style="fill:rgb(189, 72, 209);fill-opacity:1.0;fill-rule:evenodd;stroke:rgb(0, 0, 0);stroke-width:3.0;" d="M 718.01, 47.5155 L 686.752, 69.08 L 680.319, 63.1049 L 711.034, 45.9375 z "/>
<path style="fill:rgb(189, 72, 209);fill-opacity:1.0;fill-rule:evenodd;stroke:rgb(0, 0, 0);stroke-width:3.0;" d="M 436.445, 26.9652 L 395.37, 78.1734 L 395.804, 75.8147 L 413.277, 34.4396 L 428.459, 21.3935 z "/>
<path style="fill:rgb(184, 255, 26);fill-opacity:1.0;fill-rule:evenodd;stroke:rgb(0, 0, 0);stroke-width:3.0;" d="M 595.048, 171.901 L 590.384, 187.758 L 579.132, 193.379 L 589.342, 175.074 L 592.878, 171.249 z "/>
<path style="fill:rgb(249, 102, 255);fill-opacity:1.0;fill-rule:evenodd;stroke:rgb(0, 0, 0);stroke-width:3.0;" d="M 343.366, 46.4998 L 331.815, 64.1457 L 326.28, 67.0592 L 320.369, 64.9146 L 341.76, 45.9931 z "/>
<path style="fill:rgb(223, 154, 255);fill-opacity:1.0;fill-rule:evenodd;stroke:rgb(0, 0, 0);stroke-width:3.0;" d="M 574.936, 48.7428 L 557.443, 51.3221 L 576.457, 36.5851 z "/>
<path style="fill:rgb(240, 240, 25);fill-opacity:1.0;fill-rule:evenodd;stroke:rgb(0, 0, 0);stroke-width:3.0;" d="M 191.515, 30.4362 L 183.136, 48.2398 L 165.104, 42.8264 L 173, 15.1175 L 183.219, 8.56521 z "/>
<path style="fill:rgb(240, 240, 25);fill-opacity:1.0;fill-rule:evenodd;stroke:rgb(0, 0, 0);stroke-width:3.0;" d="M 620.02, 363.88 L 564.445, 332.715 L 570.822, 322.743 z "/>
<path style="fill:rgb(240, 240, 25);fill-opacity:1.0;fill-rule:evenodd;stroke:rgb(0, 0, 0);stroke-width:3.0;" d="M 686.752, 69.08 L 671.359, 79.6997 L 666.313, 72.7256 L 676.99, 60.0128 z "/>
<path style="fill:rgb(240, 240, 25);fill-opacity:1.0;fill-rule:evenodd;stroke:rgb(0, 0, 0);stroke-width:3.0;" d="M 615.918, 79.3865 L 608.708, 89.1212 L 597.344, 79.3272 L 600.261, 72.2055 z "/>
<path style="fill:rgb(240, 240, 25);fill-opacity:1.0;fill-rule:evenodd;stroke:rgb(0, 0, 0);stroke-width:3.0;" d="M 387.184, 71.5308 L 376.996, 106.439 L 374.92, 105.816 L 373.422, 100.474 L 384.586, 64.7659 z "/>
<path style="fill:rgb(108, 157, 255);fill-opacity:1.0;fill-rule:evenodd;stroke:rgb(0, 0, 0);stroke-width:3.0;" d="M 492.529, 318.477 L 486.179, 330.026 L 472.104, 316.847 L 465.567, 298.642 L 480.234, 288.373 z "/>
<path style="fill:rgb(108, 157, 255);fill-opacity:1.0;fill-rule:evenodd;stroke:rgb(0, 0, 0);stroke-width:3.0;" d="M 507.528, 179.573 L 544.503, 223.577 L 540.58, 227.821 L 480.265, 172.223 z "/>
<path style="fill:rgb(108, 157, 255);fill-opacity:1.0;fill-rule:evenodd;stroke:rgb(0, 0, 0);stroke-width:3.0;" d="M 314.407, 72.9051 L 309.479, 77.3698 L 296.046, 82.1368 L 281.466, 77.7596 L 309.44, 67.4493 z "/>
<path style="fill:rgb(9, 43, 255);fill-opacity:1.0;fill-rule:evenodd;stroke:rgb(0, 0, 0);stroke-width:3.0;" d="M 351.159, 141.597 L 331.275, 116.201 L 348.523, 114.634 z "/>
<path style="fill:rgb(112, 30, 255);fill-opacity:1.0;fill-rule:evenodd;stroke:rgb(0, 0, 0);stroke-width:3.0;" d="M 771.843, 580.166 L 767.694, 588.382 L 749.057, 566.628 L 750.371, 566.076 z "/>
<path style="fill:rgb(112, 30, 255);fill-opacity:1.0;fill-rule:evenodd;stroke:rgb(0, 0, 0);stroke-width:3.0;" d="M 503.909, 253.292 L 470.826, 294.451 L 463.831, 277.996 L 464.114, 269.264 L 488.115, 241.835 z "/>
<path style="fill:rgb(112, 30, 255);fill-opacity:1.0;fill-rule:evenodd;stroke:rgb(0, 0, 0);stroke-width:3.0;" d="M 720.475, 434.673 L 692.511, 444.162 L 707.269, 430.155 z "/>
<path style="fill:rgb(25, 255, 252);fill-opacity:1.0;fill-rule:evenodd;stroke:rgb(0, 0, 0);stroke-width:3.0;" d="M 574.3, 80.2926 L 568.506, 82.6265 L 554.339, 67.649 L 573.49, 58.5559 z "/>
<path style="fill:rgb(25, 255, 252);fill-opacity:1.0;fill-rule:evenodd;stroke:rgb(0, 0, 0);stroke-width:3.0;" d="M 414.413, 72.9089 L 412.376, 76.9779 L 409.543, 66.3521 L 424.668, 46.2108 z "/>
<path style="fill:rgb(34, 255, 237);fill-opacity:1.0;fill-rule:evenodd;stroke:rgb(0, 0, 0);stroke-width:3.0;" d="M 356.254, 28.2913 L 380.051, 36.5197 L 233.693, 58.2263 L 239.307, 47.8739 L 336.148, 25.7072 z "/>
<path style="fill:rgb(34, 255, 237);fill-opacity:1.0;fill-rule:evenodd;stroke:rgb(0, 0, 0);stroke-width:3.0;" d="M 218.882, 10.6353 L 220.365, 31.0192 L 204.472, 8.78335 z "/>
<path style="fill:rgb(10, 6, 240);fill-opacity:1.0;fill-rule:evenodd;stroke:rgb(0, 0, 0);stroke-width:3.0;" d="M 776.224, 571.494 L 771.843, 580.166 L 750.371, 566.076 L 766.696, 559.225 z "/>
<path style="fill:rgb(255, 255, 115);fill-opacity:1.0;fill-rule:evenodd;stroke:rgb(0, 0, 0);stroke-width:3.0;" d="M 567.851, 57.5434 L 562.772, 63.6448 L 534.515, 77.0613 L 527.999, 74.144 L 550.2, 56.9364 L 568.178, 53.8087 z "/>
<path style="fill:rgb(255, 255, 115);fill-opacity:1.0;fill-rule:evenodd;stroke:rgb(0, 0, 0);stroke-width:3.0;" d="M 391.154, 183.57 L 392.266, 193.622 L 385.984, 200 L 363.275, 145.996 L 366.701, 142.124 z "/>
<path style="fill:rgb(255, 255, 115);fill-opacity:1.0;fill-rule:evenodd;stroke:rgb(0, 0, 0);stroke-width:3.0;" d="M 711.034, 45.9375 L 680.319, 63.1049 L 676.99, 60.0128 L 692.359, 41.7132 z "/>
<path style="fill:rgb(255, 103, 10);fill-opacity:1.0;fill-rule:evenodd;stroke:rgb(0, 0, 0);stroke-width:3.0;" d="M 486.179, 330.026 L 480.526, 340.306 L 472.104, 316.847 z "/>
<path style="fill:rgb(35, 91, 255);fill-opacity:1.0;fill-rule:evenodd;stroke:rgb(0, 0, 0);stroke-width:3.0;" d="M 721.802, 26.6565 L 722.092, 28.1769 L 712.194, 34.9771 L 698.381, 32.7756 L 694.526, 30.309 L 711.629, 25.7659 L 718.695, 24.8804 z "/>
<path style="fill:rgb(35, 91, 255);fill-opacity:1.0;fill-rule:evenodd;stroke:rgb(0, 0, 0);stroke-width:3.0;" d="M 346.837, 97.3848 L 348.523, 114.634 L 340.284, 115.383 L 337.459, 105.977 L 337.084, 94.4569 z "/>
<path style="fill:rgb(35, 91, 255);fill-opacity:1.0;fill-rule:evenodd;stroke:rgb(0, 0, 0);stroke-width:3.0;" d="M 231.188, 12.2171 L 237.134, 19.1501 L 235.189, 22.9331 L 220.75, 31.5579 L 220.365, 31.0192 L 218.882, 10.6353 z "/>
<path style="fill:rgb(246, 14, 15);fill-opacity:1.0;fill-rule:evenodd;stroke:rgb(0, 0, 0);stroke-width:3.0;" d="M 698.235, 454.118 L 693.619, 463.295 L 685.474, 446.55 L 691.133, 444.63 z "/>
<path style="fill:rgb(231, 91, 249);fill-opacity:1.0;fill-rule:evenodd;stroke:rgb(0, 0, 0);stroke-width:3.0;" d="M 650.548, 66.9399 L 637.027, 78.0509 L 621.307, 72.1112 L 635.514, 52.9285 z "/>
<path style="fill:rgb(231, 91, 249);fill-opacity:1.0;fill-rule:evenodd;stroke:rgb(0, 0, 0);stroke-width:3.0;" d="M 445.785, 90.6191 L 442.659, 100.93 L 412.619, 93.163 L 417.619, 82.2697 L 425.523, 76.115 z "/>
<path style="fill:rgb(231, 91, 249);fill-opacity:1.0;fill-rule:evenodd;stroke:rgb(0, 0, 0);stroke-width:3.0;" d="M 509.981, 582.34 L 487.78, 592.163 L 473.526, 585.057 L 480.486, 561.393 z "/>
<path style="fill:rgb(255, 255, 7);fill-opacity:1.0;fill-rule:evenodd;stroke:rgb(0, 0, 0);stroke-width:3.0;" d="M 751.828, 218.968 L 794.208, 346.75 L 794.221, 346.917 L 576.227, 327.263 L 554.656, 309.226 L 595.048, 171.901 z "/>
<path style="fill:rgb(255, 255, 7);fill-opacity:1.0;fill-rule:evenodd;stroke:rgb(0, 0, 0);stroke-width:3.0;" d="M 551.899, 262.945 L 515.345, 276.982 L 527.141, 255.528 L 538.488, 247.583 z "/>
<path style="fill:rgb(23, 170, 255);fill-opacity:1.0;fill-rule:evenodd;stroke:rgb(0, 0, 0);stroke-width:3.0;" d="M 578.368, 228.609 L 575.228, 228.427 L 571.519, 217.123 L 587.061, 199.056 z "/>
<path style="fill:rgb(255, 220, 23);fill-opacity:1.0;fill-rule:evenodd;stroke:rgb(0, 0, 0);stroke-width:3.0;" d="M 693.594, 405.139 L 702.769, 417.165 L 679.575, 429.101 L 678.803, 426.097 L 692.583, 404.572 z "/>
<path style="fill:rgb(42, 35, 223);fill-opacity:1.0;fill-rule:evenodd;stroke:rgb(0, 0, 0);stroke-width:3.0;" d="M 615.248, 38.7298 L 613.002, 37.7869 L 633.484, 19.0875 L 659.122, 17.8987 z "/>
<path style="fill:rgb(255, 255, 7);fill-opacity:1.0;fill-rule:evenodd;stroke:rgb(0, 0, 0);stroke-width:3.0;" d="M 705.357, 37.2388 L 701.822, 43.8536 L 685.277, 40.1113 L 678.995, 20.3915 L 679.011, 20.3829 z "/>
<path style="fill:rgb(255, 255, 7);fill-opacity:1.0;fill-rule:evenodd;stroke:rgb(0, 0, 0);stroke-width:3.0;" d="M 692.583, 404.572 L 685.068, 416.31 L 676.177, 415.886 L 675.346, 412.654 L 678.973, 396.94 z "/>
<path style="fill:rgb(255, 255, 7);fill-opacity:1.0;fill-rule:evenodd;stroke:rgb(0, 0, 0);stroke-width:3.0;" d="M 748.001, 435.649 L 723.744, 504.453 L 691.684, 476.192 L 690.144, 470.204 L 705.45, 439.771 L 736.54, 429.222 z "/>
<path style="fill:rgb(69, 1, 217);fill-opacity:1.0;fill-rule:evenodd;stroke:rgb(0, 0, 0);stroke-width:3.0;" d="M 351.159, 141.597 L 354.332, 174.05 L 321.835, 119.549 L 323.448, 116.912 L 331.275, 116.201 z "/>
<path style="fill:rgb(255, 223, 7);fill-opacity:1.0;fill-rule:evenodd;stroke:rgb(0, 0, 0);stroke-width:3.0;" d="M 670.013, 391.915 L 703.501, 522.148 L 541.115, 355.265 L 550.112, 324.677 z "/>
<path style="fill:rgb(255, 255, 17);fill-opacity:1.0;fill-rule:evenodd;stroke:rgb(0, 0, 0);stroke-width:3.0;" d="M 690.812, 41.3632 L 658.711, 76.7467 L 649.454, 67.8389 L 683.646, 39.7424 z "/>
<path style="fill:rgb(255, 144, 255);fill-opacity:1.0;fill-rule:evenodd;stroke:rgb(0, 0, 0);stroke-width:3.0;" d="M 335.751, 94.0567 L 312.211, 103.408 L 300.286, 83.4097 z "/>
<path style="fill:rgb(234, 30, 9);fill-opacity:1.0;fill-rule:evenodd;stroke:rgb(0, 0, 0);stroke-width:3.0;" d="M 282.724, 54.255 L 269.433, 73.0263 L 257.851, 64.8624 L 259.406, 57.2709 L 263.317, 53.8327 L 276.931, 51.8137 z "/>
<path style="fill:rgb(234, 30, 9);fill-opacity:1.0;fill-rule:evenodd;stroke:rgb(0, 0, 0);stroke-width:3.0;" d="M 491.583, 557.326 L 490.655, 563.603 L 488.887, 567.359 L 480.486, 561.393 L 484.05, 549.277 z "/>
<path style="fill:rgb(234, 30, 9);fill-opacity:1.0;fill-rule:evenodd;stroke:rgb(0, 0, 0);stroke-width:3.0;" d="M 655.6, 495.764 L 656.887, 502.552 L 645.246, 499.02 L 643.451, 484.777 z "/>
<path style="fill:rgb(255, 228, 15);fill-opacity:1.0;fill-rule:evenodd;stroke:rgb(0, 0, 0);stroke-width:3.0;" d="M 776.124, 508.702 L 758.733, 562.567 L 738.747, 570.954 L 729.976, 563.023 L 711.679, 538.673 L 733.873, 475.723 z "/>
<path style="fill:rgb(255, 44, 16);fill-opacity:1.0;fill-rule:evenodd;stroke:rgb(0, 0, 0);stroke-width:3.0;" d="M 400.544, 100.616 L 400.378, 100.947 L 390.825, 102.876 L 393.651, 87.5135 L 396.307, 83.9774 z "/>
<path style="fill:rgb(204, 0, 17);fill-opacity:1.0;fill-rule:evenodd;stroke:rgb(0, 0, 0);stroke-width:3.0;" d="M 569.688, 196.334 L 544.503, 223.577 L 507.528, 179.573 z "/>
<path style="fill:rgb(204, 0, 17);fill-opacity:1.0;fill-rule:evenodd;stroke:rgb(0, 0, 0);stroke-width:3.0;" d="M 537.771, 57.9521 L 529.934, 72.6442 L 516.661, 82.9319 L 502.443, 73.0119 L 529.864, 57.438 z "/>
<path style="fill:rgb(119, 184, 255);fill-opacity:1.0;fill-rule:evenodd;stroke:rgb(0, 0, 0);stroke-width:3.0;" d="M 465.04, 240.69 L 463.106, 300.365 L 439.503, 316.891 L 370.769, 201.617 z "/>
<path style="fill:rgb(20, 64, 255);fill-opacity:1.0;fill-rule:evenodd;stroke:rgb(0, 0, 0);stroke-width:3.0;" d="M 544.935, 243.07 L 516.889, 262.707 L 496.223, 247.716 L 489.533, 228.905 z "/>
<path style="fill:rgb(112, 215, 194);fill-opacity:1.0;fill-rule:evenodd;stroke:rgb(0, 0, 0);stroke-width:3.0;" d="M 522.083, 264.728 L 480.553, 289.156 L 480.234, 288.373 L 527.141, 255.528 z "/>
<path style="fill:rgb(234, 105, 255);fill-opacity:1.0;fill-rule:evenodd;stroke:rgb(0, 0, 0);stroke-width:3.0;" d="M 632.947, 76.5096 L 623.574, 85.2758 L 615.218, 80.3323 L 621.307, 72.1112 z "/>
<path style="fill:rgb(234, 105, 255);fill-opacity:1.0;fill-rule:evenodd;stroke:rgb(0, 0, 0);stroke-width:3.0;" d="M 206.162, 44.8512 L 208.626, 53.4653 L 190.642, 50.4931 L 189.804, 50.2417 L 202.447, 42 z "/>
<path style="fill:rgb(240, 17, 47);fill-opacity:1.0;fill-rule:evenodd;stroke:rgb(0, 0, 0);stroke-width:3.0;" d="M 761.528, 581.185 L 767.694, 588.382 L 764.66, 594.388 L 749.568, 580.74 z "/>
<path style="fill:rgb(255, 92, 97);fill-opacity:1.0;fill-rule:evenodd;stroke:rgb(0, 0, 0);stroke-width:3.0;" d="M 703.501, 522.148 L 709.175, 544.212 L 682.249, 519.863 L 695.99, 514.429 z "/>
<path style="fill:rgb(255, 92, 97);fill-opacity:1.0;fill-rule:evenodd;stroke:rgb(0, 0, 0);stroke-width:3.0;" d="M 465.621, 222.791 L 465.246, 234.356 L 461.486, 239.217 L 446.8, 233.13 L 453.412, 219.67 z "/>
<path style="fill:rgb(255, 92, 97);fill-opacity:1.0;fill-rule:evenodd;stroke:rgb(0, 0, 0);stroke-width:3.0;" d="M 511.184, 578.27 L 513.22, 580.906 L 509.981, 582.34 L 488.887, 567.359 L 492.931, 558.767 z "/>
<path style="fill:rgb(255, 215, 12);fill-opacity:1.0;fill-rule:evenodd;stroke:rgb(0, 0, 0);stroke-width:3.0;" d="M 563.256, 77.0759 L 552.762, 88.9687 L 540.864, 93.762 L 540.564, 89.7975 L 560.121, 73.7621 z "/>
<path style="fill:rgb(255, 215, 12);fill-opacity:1.0;fill-rule:evenodd;stroke:rgb(0, 0, 0);stroke-width:3.0;" d="M 300.286, 83.4097 L 380.808, 218.453 L 50.005, 345.111 L 274.924, 75.7956 z "/>
<path style="fill:rgb(252, 44, 199);fill-opacity:1.0;fill-rule:evenodd;stroke:rgb(0, 0, 0);stroke-width:3.0;" d="M 690.21, 527.061 L 715.362, 549.808 L 729.976, 567.53 L 683.093, 573.366 L 664.841, 544.5 L 662.07, 529.886 L 668.991, 522.692 z "/>
<path style="fill:rgb(12, 255, 255);fill-opacity:1.0;fill-rule:evenodd;stroke:rgb(0, 0, 0);stroke-width:3.0;" d="M 695.99, 514.429 L 682.249, 519.863 L 566.215, 414.931 L 593.661, 409.267 z "/>
<path style="fill:rgb(12, 255, 255);fill-opacity:1.0;fill-rule:evenodd;stroke:rgb(0, 0, 0);stroke-width:3.0;" d="M 503.606, 424.397 L 473.789, 374.391 L 496.309, 343.802 z "/>
<path style="fill:rgb(16, 252, 217);fill-opacity:1.0;fill-rule:evenodd;stroke:rgb(0, 0, 0);stroke-width:3.0;" d="M 515.107, 443.687 L 503.606, 424.397 L 496.309, 343.802 L 506.654, 329.752 L 557.691, 298.908 z "/>
<path style="fill:rgb(255, 209, 7);fill-opacity:1.0;fill-rule:evenodd;stroke:rgb(0, 0, 0);stroke-width:3.0;" d="M 671.359, 79.6997 L 645.436, 97.5837 L 666.313, 72.7256 z "/>
<path style="fill:rgb(255, 209, 7);fill-opacity:1.0;fill-rule:evenodd;stroke:rgb(0, 0, 0);stroke-width:3.0;" d="M 371.188, 92.5092 L 373.932, 102.293 L 371.397, 104.758 L 360.333, 101.437 L 368.418, 87.7175 z "/>
<path style="fill:rgb(249, 240, 24);fill-opacity:1.0;fill-rule:evenodd;stroke:rgb(0, 0, 0);stroke-width:3.0;" d="M 381.612, 189.603 L 385.984, 200 L 384.072, 201.941 L 368.604, 197.986 L 367.057, 195.391 L 373.77, 185.46 z "/>
<path style="fill:rgb(249, 240, 24);fill-opacity:1.0;fill-rule:evenodd;stroke:rgb(0, 0, 0);stroke-width:3.0;" d="M 695.466, 16.4532 L 703.196, 28.006 L 694.526, 30.309 L 674.653, 17.5945 L 673.181, 11.2233 L 674.908, 10.4033 z "/>
<path style="fill:rgb(18, 29, 255);fill-opacity:1.0;fill-rule:evenodd;stroke:rgb(0, 0, 0);stroke-width:3.0;" d="M 593.661, 409.267 L 566.215, 414.931 L 532.526, 384.466 L 541.115, 355.265 z "/>
<path style="fill:rgb(255, 168, 255);fill-opacity:1.0;fill-rule:evenodd;stroke:rgb(0, 0, 0);stroke-width:3.0;" d="M 625.912, 26.0006 L 613.002, 37.7869 L 591.73, 28.8567 L 598.513, 20.7091 L 621.414, 19.6471 z "/>
<path style="fill:rgb(86, 255, 212);fill-opacity:1.0;fill-rule:evenodd;stroke:rgb(0, 0, 0);stroke-width:3.0;" d="M 634.236, 51.7373 L 635.343, 53.1595 L 630.294, 59.9776 L 608.967, 50.9536 L 613.668, 39.4799 L 618.581, 37.147 z "/>
<path style="fill:rgb(255, 24, 194);fill-opacity:1.0;fill-rule:evenodd;stroke:rgb(0, 0, 0);stroke-width:3.0;" d="M 667.369, 32.4325 L 659.499, 34.2804 L 641.275, 30.1581 L 661.182, 20.776 z "/>
<path style="fill:rgb(255, 249, 33);fill-opacity:1.0;fill-rule:evenodd;stroke:rgb(0, 0, 0);stroke-width:3.0;" d="M 536.314, 154.268 L 571.354, 194.532 L 569.688, 196.334 L 480.265, 172.223 L 424.31, 120.643 z "/>
<path style="fill:rgb(255, 249, 33);fill-opacity:1.0;fill-rule:evenodd;stroke:rgb(0, 0, 0);stroke-width:3.0;" d="M 553.757, 301.286 L 531.282, 314.868 L 501.338, 302.457 L 503.542, 298.448 z "/>
<path style="fill:rgb(8, 9, 255);fill-opacity:1.0;fill-rule:evenodd;stroke:rgb(0, 0, 0);stroke-width:3.0;" d="M 401.476, 179.149 L 397.809, 187.993 L 392.266, 193.622 L 390.762, 180.021 L 396.603, 173.028 z "/>
<path style="fill:rgb(8, 9, 255);fill-opacity:1.0;fill-rule:evenodd;stroke:rgb(0, 0, 0);stroke-width:3.0;" d="M 557.691, 298.908 L 553.757, 301.286 L 503.542, 298.448 L 515.345, 276.982 L 570.354, 255.858 z "/>
<path style="fill:rgb(27, 74, 175);fill-opacity:1.0;fill-rule:evenodd;stroke:rgb(0, 0, 0);stroke-width:3.0;" d="M 718.758, 419.25 L 692.511, 444.162 L 684.175, 446.991 L 680.751, 433.676 L 708.5, 414.215 L 709.168, 413.872 z "/>
<path style="fill:rgb(255, 157, 7);fill-opacity:1.0;fill-rule:evenodd;stroke:rgb(0, 0, 0);stroke-width:3.0;" d="M 652.546, 83.5421 L 648.138, 88.4011 L 632.796, 81.527 L 640.047, 75.5691 z "/>
<path style="fill:rgb(240, 15, 9);fill-opacity:1.0;fill-rule:evenodd;stroke:rgb(0, 0, 0);stroke-width:3.0;" d="M 516.889, 262.707 L 498.519, 275.569 L 481.887, 280.689 L 503.909, 253.292 z "/>
<path style="fill:rgb(255, 7, 61);fill-opacity:1.0;fill-rule:evenodd;stroke:rgb(0, 0, 0);stroke-width:3.0;" d="M 689.202, 584.067 L 690.072, 591.885 L 677.936, 592.709 L 673.932, 592.448 L 673.348, 589.369 L 677.034, 582.05 L 683.383, 581.101 z "/>
<path style="fill:rgb(255, 255, 10);fill-opacity:1.0;fill-rule:evenodd;stroke:rgb(0, 0, 0);stroke-width:3.0;" d="M 497.365, 309.682 L 486.529, 303.787 L 480.553, 289.156 L 522.083, 264.728 z "/>
<path style="fill:rgb(255, 33, 28);fill-opacity:1.0;fill-rule:evenodd;stroke:rgb(0, 0, 0);stroke-width:3.0;" d="M 615.886, 103.499 L 594.237, 102.647 L 593.371, 96.182 L 598.548, 92.5714 L 606.065, 88.762 z "/>
<path style="fill:rgb(182, 95, 255);fill-opacity:1.0;fill-rule:evenodd;stroke:rgb(0, 0, 0);stroke-width:3.0;" d="M 453.412, 219.67 L 446.8, 233.13 L 420.741, 222.329 L 430.656, 213.852 z "/>
<path style="fill:rgb(255, 204, 14);fill-opacity:1.0;fill-rule:evenodd;stroke:rgb(0, 0, 0);stroke-width:3.0;" d="M 274.924, 75.7956 L 265.404, 87.1939 L 260.408, 83.2896 L 263.949, 72.5008 z "/>
<path style="fill:rgb(255, 209, 138);fill-opacity:1.0;fill-rule:evenodd;stroke:rgb(0, 0, 0);stroke-width:3.0;" d="M 571.983, 249.986 L 550.49, 261.331 L 539.933, 249.238 L 553.578, 245.28 z "/>
<path style="fill:rgb(255, 209, 138);fill-opacity:1.0;fill-rule:evenodd;stroke:rgb(0, 0, 0);stroke-width:3.0;" d="M 524.975, 318.68 L 503.139, 331.876 L 499.64, 313.923 L 516.758, 311.692 z "/>
<path style="fill:rgb(255, 105, 58);fill-opacity:1.0;fill-rule:evenodd;stroke:rgb(0, 0, 0);stroke-width:3.0;" d="M 194.991, 7.56479 L 193.404, 17.9807 L 190.654, 28.1673 L 183.219, 8.56521 L 186.485, 6.47144 z "/>
<path style="fill:rgb(255, 97, 255);fill-opacity:1.0;fill-rule:evenodd;stroke:rgb(0, 0, 0);stroke-width:3.0;" d="M 377.53, 179.897 L 367.057, 195.391 L 363.408, 189.272 L 367.668, 180.419 L 376.915, 178.434 z "/>
<path style="fill:rgb(22, 0, 255);fill-opacity:1.0;fill-rule:evenodd;stroke:rgb(0, 0, 0);stroke-width:3.0;" d="M 417.69, 107.251 L 415.49, 114.062 L 411.255, 116.724 L 409.863, 116.306 L 407.409, 112.778 L 405.618, 108.416 L 411.269, 96.1048 z "/>
<path style="fill:rgb(136, 217, 255);fill-opacity:1.0;fill-rule:evenodd;stroke:rgb(0, 0, 0);stroke-width:3.0;" d="M 645.075, 579.32 L 637.845, 581.79 L 634.291, 578.321 L 638.42, 543.39 L 655.518, 537.131 z "/>
<path style="fill:rgb(255, 150, 14);fill-opacity:1.0;fill-rule:evenodd;stroke:rgb(0, 0, 0);stroke-width:3.0;" d="M 336.148, 25.7072 L 239.307, 47.8739 L 244.465, 38.3619 L 284.748, 19.1009 z "/>
<path style="fill:rgb(91, 74, 255);fill-opacity:1.0;fill-rule:evenodd;stroke:rgb(0, 0, 0);stroke-width:3.0;" d="M 407.218, 186.363 L 416.854, 210.323 L 384.072, 201.941 L 403.73, 181.981 z "/>
<path style="fill:rgb(255, 130, 12);fill-opacity:1.0;fill-rule:evenodd;stroke:rgb(0, 0, 0);stroke-width:3.0;" d="M 428.704, 213.352 L 416.854, 210.323 L 407.218, 186.363 z "/>
<path style="fill:rgb(249, 48, 14);fill-opacity:1.0;fill-rule:evenodd;stroke:rgb(0, 0, 0);stroke-width:3.0;" d="M 350.052, 114.551 L 376.915, 178.434 L 360.208, 182.021 L 354.915, 175.028 L 354.332, 174.05 L 348.3, 112.35 z "/>
<path style="fill:rgb(165, 2, 47);fill-opacity:1.0;fill-rule:evenodd;stroke:rgb(0, 0, 0);stroke-width:3.0;" d="M 789.101, 588.077 L 788.128, 592.87 L 769.5, 584.806 L 776.224, 571.494 z "/>
<path style="fill:rgb(31, 30, 252);fill-opacity:1.0;fill-rule:evenodd;stroke:rgb(0, 0, 0);stroke-width:3.0;" d="M 572.543, 220.244 L 550.687, 232.884 L 552.754, 220.267 L 568.561, 208.108 z "/>
<path style="fill:rgb(86, 54, 255);fill-opacity:1.0;fill-rule:evenodd;stroke:rgb(0, 0, 0);stroke-width:3.0;" d="M 409.204, 30.7986 L 404.964, 34.5518 L 397.212, 33.5555 L 392.212, 25.9051 L 416.915, 21.4112 z "/>
<path style="fill:rgb(255, 226, 28);fill-opacity:1.0;fill-rule:evenodd;stroke:rgb(0, 0, 0);stroke-width:3.0;" d="M 410.439, 8.82049 L 421.13, 16.2797 L 416.915, 21.4112 L 392.212, 25.9051 L 392.105, 25.7427 L 393.63, 19.2595 L 408.276, 8.75294 z "/>
<path style="fill:rgb(255, 179, 25);fill-opacity:1.0;fill-rule:evenodd;stroke:rgb(0, 0, 0);stroke-width:3.0;" d="M 560.121, 73.7621 L 540.564, 89.7975 L 539.592, 76.9617 L 545.925, 71.6439 L 554.339, 67.649 z "/>
<path style="fill:rgb(252, 21, 187);fill-opacity:1.0;fill-rule:evenodd;stroke:rgb(0, 0, 0);stroke-width:3.0;" d="M 480.839, 364.815 L 473.789, 374.391 L 467.543, 363.917 L 471.313, 357.061 z "/>
<path style="fill:rgb(255, 58, 246);fill-opacity:1.0;fill-rule:evenodd;stroke:rgb(0, 0, 0);stroke-width:3.0;" d="M 480.839, 364.815 L 471.313, 357.061 L 476.214, 348.148 L 506.654, 329.752 z "/>
<path style="fill:rgb(255, 207, 17);fill-opacity:1.0;fill-rule:evenodd;stroke:rgb(0, 0, 0);stroke-width:3.0;" d="M 388.921, 163.378 L 389.579, 169.327 L 387.048, 174.545 L 371.438, 141.416 z "/>
<path style="fill:rgb(189, 27, 255);fill-opacity:1.0;fill-rule:evenodd;stroke:rgb(0, 0, 0);stroke-width:3.0;" d="M 592.878, 171.249 L 571.354, 194.532 L 536.314, 154.268 z "/>
<path style="fill:rgb(12, 30, 255);fill-opacity:1.0;fill-rule:evenodd;stroke:rgb(0, 0, 0);stroke-width:3.0;" d="M 565.399, 318.209 L 560.621, 330.57 L 550.944, 325.143 L 550.963, 321.782 L 554.656, 309.226 z "/>
<path style="fill:rgb(121, 3, 255);fill-opacity:1.0;fill-rule:evenodd;stroke:rgb(0, 0, 0);stroke-width:3.0;" d="M 479.437, 251.752 L 464.114, 269.264 L 465.098, 238.922 z "/>
<path style="fill:rgb(255, 243, 9);fill-opacity:1.0;fill-rule:evenodd;stroke:rgb(0, 0, 0);stroke-width:3.0;" d="M 488.115, 241.835 L 479.437, 251.752 L 465.098, 238.922 L 465.534, 225.455 z "/>
</svg>