<?xml version="1.0" encoding="iso-8859-1" standalone="no"?>
<!DOCTYPE svg PUBLIC "-//W3C//DTD SVG 1.0//EN" "http://www.w3.org/TR/2001/REC-SVG-20010904/DTD/svg10.dtd">
<svg xmlns="http://www.w3.org/2000/svg" width="800" height="600">
<path style="fill:rgb(0, 0, 0);fill-opacity:0.0;fill-rule:evenodd;stroke:rgb(0, 0, 0);stroke-width:0.0;" d="M 0, 600 L 800, 600 L 800, 0 L 0, 0 z "/>
<path style="fill:rgb(255, 255, 14);fill-opacity:1.0;fill-rule:evenodd;stroke:rgb(0, 0, 0);stroke-width:3.0;" d="M 750.578, 303.624 L 627.024, 311.279 L 545.447, 218.647 z "/>
<path style="fill:rgb(52, 255, 15);fill-opacity:1.0;fill-rule:evenodd;stroke:rgb(0, 0, 0);stroke-width:3.0;" d="M 720.242, 168.99 L 670.797, 185.02 L 663.962, 179.637 L 720.294, 155.618 z "/>
<path style="fill:rgb(52, 255, 15);fill-opacity:1.0;fill-rule:evenodd;stroke:rgb(0, 0, 0);stroke-width:3.0;" d="M 191.691, 267.802 L 162.359, 278.871 L 175.025, 262.686 L 184.325, 255.6 z "/>
<path style="fill:rgb(52, 255, 15);fill-opacity:1.0;fill-rule:evenodd;stroke:rgb(0, 0, 0);stroke-width:3.0;" d="M 122.018, 432.039 L 124.008, 469.34 L 92.6978, 492.679 L 115.795, 419.152 z "/>
<path style="fill:rgb(246, 255, 24);fill-opacity:1.0;fill-rule:evenodd;stroke:rgb(0, 0, 0);stroke-width:3.0;" d="M 244.829, 503.552 L 212.611, 548.341 L 177.473, 553.377 L 212.52, 488.849 z "/>
<path style="fill:rgb(255, 5, 85);fill-opacity:1.0;fill-rule:evenodd;stroke:rgb(0, 0, 0);stroke-width:3.0;" d="M 689.161, 336.124 L 640.259, 326.308 L 632.933, 317.99 L 691.403, 310.092 z "/>
<path style="fill:rgb(255, 5, 85);fill-opacity:1.0;fill-rule:evenodd;stroke:rgb(0, 0, 0);stroke-width:3.0;" d="M 218.453, 395.045 L 193.028, 441.321 L 132.714, 246.562 L 139.03, 245.891 z "/>
<path style="fill:rgb(58, 37, 226);fill-opacity:1.0;fill-rule:evenodd;stroke:rgb(0, 0, 0);stroke-width:3.0;" d="M 83.1756, 448.017 L 89.9129, 501.545 L 74.2012, 551.561 L 45.568, 497.74 L 10.7903, 353.093 z "/>
<path style="fill:rgb(58, 37, 226);fill-opacity:1.0;fill-rule:evenodd;stroke:rgb(0, 0, 0);stroke-width:3.0;" d="M 618.334, 301.411 L 612.917, 304.782 L 589.829, 293.448 L 601.129, 281.875 z "/>
<path style="fill:rgb(58, 37, 226);fill-opacity:1.0;fill-rule:evenodd;stroke:rgb(0, 0, 0);stroke-width:3.0;" d="M 418.336, 266.808 L 417.839, 271.758 L 402.078, 278.5 L 400.281, 278.139 L 405.125, 265.796 L 411.288, 263.975 z "/>
<path style="fill:rgb(58, 37, 226);fill-opacity:1.0;fill-rule:evenodd;stroke:rgb(0, 0, 0);stroke-width:3.0;" d="M 718.8, 270.645 L 728.053, 275.839 L 720.024, 289.537 L 717.902, 290.087 L 707.355, 285.718 L 702.956, 269.26 L 707.698, 265.893 z "/>
<path style="fill:rgb(39, 168, 249);fill-opacity:1.0;fill-rule:evenodd;stroke:rgb(0, 0, 0);stroke-width:3.0;" d="M 335.942, 265.225 L 321.635, 360.904 L 302.011, 364.795 L 227.525, 344.276 L 222.996, 317.307 L 264.409, 250.867 z "/>
<path style="fill:rgb(39, 168, 249);fill-opacity:1.0;fill-rule:evenodd;stroke:rgb(0, 0, 0);stroke-width:3.0;" d="M 68.2612, 36.4781 L 60.4276, 40.2752 L 54.8611, 38.9048 L 57.9467, 29.0034 L 65.1665, 18.2547 z "/>
<path style="fill:rgb(39, 168, 249);fill-opacity:1.0;fill-rule:evenodd;stroke:rgb(0, 0, 0);stroke-width:3.0;" d="M 566.368, 8.0627 L 577.038, 19.6711 L 568.661, 23.6523 L 568.241, 23.4699 L 565.339, 19.765 L 562.336, 6.57667 z "/>
<path style="fill:rgb(234, 14, 15);fill-opacity:1.0;fill-rule:evenodd;stroke:rgb(0, 0, 0);stroke-width:3.0;" d="M 204.374, 477.957 L 154.604, 464.373 L 187.739, 424.241 z "/>
<path style="fill:rgb(7, 1, 255);fill-opacity:1.0;fill-rule:evenodd;stroke:rgb(0, 0, 0);stroke-width:3.0;" d="M 154.118, 417.454 L 123.005, 450.54 L 121.18, 416.337 z "/>
<path style="fill:rgb(255, 6, 7);fill-opacity:1.0;fill-rule:evenodd;stroke:rgb(0, 0, 0);stroke-width:3.0;" d="M 219.981, 299.356 L 208.452, 295.566 L 184.325, 255.6 L 206.464, 238.731 L 209.741, 238.383 z "/>
<path style="fill:rgb(34, 79, 255);fill-opacity:1.0;fill-rule:evenodd;stroke:rgb(0, 0, 0);stroke-width:3.0;" d="M 221.484, 118.793 L 238.261, 173.861 L 82.0778, 88.4353 L 55.6644, 43.5113 z "/>
<path style="fill:rgb(54, 46, 243);fill-opacity:1.0;fill-rule:evenodd;stroke:rgb(0, 0, 0);stroke-width:3.0;" d="M 683.109, 73.3856 L 675.963, 85.4895 L 602.822, 185.123 L 616.946, 44.6346 z "/>
<path style="fill:rgb(54, 46, 243);fill-opacity:1.0;fill-rule:evenodd;stroke:rgb(0, 0, 0);stroke-width:3.0;" d="M 633.649, 239.056 L 626.631, 252.278 L 606.444, 243.915 L 611.757, 237.371 z "/>
<path style="fill:rgb(54, 46, 243);fill-opacity:1.0;fill-rule:evenodd;stroke:rgb(0, 0, 0);stroke-width:3.0;" d="M 219.981, 299.356 L 220.43, 302.027 L 204.933, 331.094 L 180.429, 323.637 L 177.192, 317.559 L 195.449, 291.292 z "/>
<path style="fill:rgb(121, 237, 255);fill-opacity:1.0;fill-rule:evenodd;stroke:rgb(0, 0, 0);stroke-width:3.0;" d="M 178.059, 492.619 L 180.458, 497.554 L 178.686, 505.359 L 156.843, 492.071 L 157.788, 491.898 z "/>
<path style="fill:rgb(217, 6, 18);fill-opacity:1.0;fill-rule:evenodd;stroke:rgb(0, 0, 0);stroke-width:3.0;" d="M 386.564, 270.082 L 385.344, 271.108 L 378.701, 269.92 L 379.849, 255.052 L 384.783, 242.45 z "/>
<path style="fill:rgb(217, 6, 18);fill-opacity:1.0;fill-rule:evenodd;stroke:rgb(0, 0, 0);stroke-width:3.0;" d="M 200.97, 498.79 L 202.365, 507.546 L 200.358, 511.242 L 191.071, 508.226 L 193.309, 496.794 z "/>
<path style="fill:rgb(47, 255, 32);fill-opacity:1.0;fill-rule:evenodd;stroke:rgb(0, 0, 0);stroke-width:3.0;" d="M 674.162, 189.067 L 614.797, 195.371 L 613.46, 191.344 L 624.645, 172.402 z "/>
<path style="fill:rgb(255, 177, 12);fill-opacity:1.0;fill-rule:evenodd;stroke:rgb(0, 0, 0);stroke-width:3.0;" d="M 675.725, 188.902 L 674.162, 189.067 L 624.645, 172.402 L 634.209, 156.204 z "/>
<path style="fill:rgb(255, 249, 128);fill-opacity:1.0;fill-rule:evenodd;stroke:rgb(0, 0, 0);stroke-width:3.0;" d="M 49.1966, 171.76 L 25.916, 179.644 L 9.91149, 158.645 z "/>
<path style="fill:rgb(255, 249, 128);fill-opacity:1.0;fill-rule:evenodd;stroke:rgb(0, 0, 0);stroke-width:3.0;" d="M 690.699, 108.674 L 653.156, 124.115 L 668.302, 98.4634 z "/>
<path style="fill:rgb(255, 249, 128);fill-opacity:1.0;fill-rule:evenodd;stroke:rgb(0, 0, 0);stroke-width:3.0;" d="M 405.392, 422.114 L 279.86, 458.188 L 396.382, 335.507 z "/>
<path style="fill:rgb(255, 249, 128);fill-opacity:1.0;fill-rule:evenodd;stroke:rgb(0, 0, 0);stroke-width:3.0;" d="M 169.466, 557.158 L 167.01, 572.641 L 164.605, 577.07 L 133.924, 556.482 L 141.439, 535.565 z "/>
<path style="fill:rgb(255, 249, 128);fill-opacity:1.0;fill-rule:evenodd;stroke:rgb(0, 0, 0);stroke-width:3.0;" d="M 219.782, 268.761 L 224.928, 277.032 L 225.408, 280.329 L 217.775, 284.62 L 217.449, 284.28 L 214.855, 268.835 L 218.008, 268.055 z "/>
<path style="fill:rgb(255, 249, 128);fill-opacity:1.0;fill-rule:evenodd;stroke:rgb(0, 0, 0);stroke-width:3.0;" d="M 313.539, 236.168 L 276.311, 240.243 L 274.661, 231.489 L 304.343, 228.337 z "/>
<path style="fill:rgb(255, 249, 128);fill-opacity:1.0;fill-rule:evenodd;stroke:rgb(0, 0, 0);stroke-width:3.0;" d="M 703.883, 53.8026 L 706.709, 57.4943 L 620.029, 45.974 L 613.127, 42.9748 L 597.145, 15.269 z "/>
<path style="fill:rgb(255, 249, 128);fill-opacity:1.0;fill-rule:evenodd;stroke:rgb(0, 0, 0);stroke-width:3.0;" d="M 713.81, 150.805 L 659.492, 171.33 L 659.482, 167.688 L 705.303, 143.888 z "/>
<path style="fill:rgb(255, 249, 128);fill-opacity:1.0;fill-rule:evenodd;stroke:rgb(0, 0, 0);stroke-width:3.0;" d="M 253.861, 169.247 L 245.67, 177.214 L 241.493, 172.619 L 242.841, 152.934 z "/>
<path style="fill:rgb(255, 249, 128);fill-opacity:1.0;fill-rule:evenodd;stroke:rgb(0, 0, 0);stroke-width:3.0;" d="M 25.7511, 57.6269 L 49.0451, 84.6624 L 42.3564, 88.153 L 20.6129, 54.8166 z "/>
<path style="fill:rgb(249, 243, 7);fill-opacity:1.0;fill-rule:evenodd;stroke:rgb(0, 0, 0);stroke-width:3.0;" d="M 376.658, 263.202 L 374.333, 269.14 L 308.437, 257.362 L 355.326, 243.479 z "/>
<path style="fill:rgb(249, 243, 7);fill-opacity:1.0;fill-rule:evenodd;stroke:rgb(0, 0, 0);stroke-width:3.0;" d="M 244.159, 443.32 L 254.077, 502.374 L 206.824, 485.869 L 203.962, 476.625 L 218.713, 395.533 z "/>
<path style="fill:rgb(249, 243, 7);fill-opacity:1.0;fill-rule:evenodd;stroke:rgb(0, 0, 0);stroke-width:3.0;" d="M 442.77, 286.668 L 384.009, 348.535 L 364.698, 352.364 L 346.907, 294.224 L 354.821, 289.309 L 411.335, 280.358 z "/>
<path style="fill:rgb(249, 243, 7);fill-opacity:1.0;fill-rule:evenodd;stroke:rgb(0, 0, 0);stroke-width:3.0;" d="M 157.026, 492.182 L 139.239, 541.688 L 127.703, 538.604 L 124.16, 472.189 z "/>
<path style="fill:rgb(249, 243, 7);fill-opacity:1.0;fill-rule:evenodd;stroke:rgb(0, 0, 0);stroke-width:3.0;" d="M 264.555, 474.302 L 251.646, 487.894 L 233.261, 378.429 L 274.252, 370.3 z "/>
<path style="fill:rgb(70, 2, 231);fill-opacity:1.0;fill-rule:evenodd;stroke:rgb(0, 0, 0);stroke-width:3.0;" d="M 443.888, 221.901 L 409.568, 225.657 L 368.702, 221.503 L 455.301, 212.308 z "/>
<path style="fill:rgb(41, 165, 255);fill-opacity:1.0;fill-rule:evenodd;stroke:rgb(0, 0, 0);stroke-width:3.0;" d="M 243.288, 526.71 L 233.37, 533.305 L 229.931, 528.858 L 234.168, 522.089 L 246.12, 515.628 z "/>
<path style="fill:rgb(41, 165, 255);fill-opacity:1.0;fill-rule:evenodd;stroke:rgb(0, 0, 0);stroke-width:3.0;" d="M 627.688, 312.033 L 640.259, 326.308 L 572.036, 312.614 L 571.594, 312.126 L 589.829, 293.448 z "/>
<path style="fill:rgb(41, 165, 255);fill-opacity:1.0;fill-rule:evenodd;stroke:rgb(0, 0, 0);stroke-width:3.0;" d="M 149.901, 72.1469 L 140.056, 81.8248 L 115.895, 70.856 L 100.201, 43.1061 L 100.427, 42.5957 L 103.697, 42.0317 z "/>
<path style="fill:rgb(41, 165, 255);fill-opacity:1.0;fill-rule:evenodd;stroke:rgb(0, 0, 0);stroke-width:3.0;" d="M 361.73, 240.531 L 379.416, 256.158 L 376.658, 263.202 L 347.294, 236.053 z "/>
<path style="fill:rgb(41, 165, 255);fill-opacity:1.0;fill-rule:evenodd;stroke:rgb(0, 0, 0);stroke-width:3.0;" d="M 125.722, 501.467 L 111.571, 498.787 L 104.508, 495.671 L 125.031, 488.513 z "/>
<path style="fill:rgb(249, 246, 6);fill-opacity:1.0;fill-rule:evenodd;stroke:rgb(0, 0, 0);stroke-width:3.0;" d="M 629.095, 234.652 L 621.9, 238.152 L 614.56, 237.587 L 610.393, 232.366 L 627.283, 227.022 z "/>
<path style="fill:rgb(249, 246, 6);fill-opacity:1.0;fill-rule:evenodd;stroke:rgb(0, 0, 0);stroke-width:3.0;" d="M 763.239, 137.307 L 719.924, 155.776 L 699.953, 139.538 L 778.68, 123.301 z "/>
<path style="fill:rgb(249, 246, 6);fill-opacity:1.0;fill-rule:evenodd;stroke:rgb(0, 0, 0);stroke-width:3.0;" d="M 649.974, 168.039 L 648.855, 166.999 L 638.731, 148.545 L 653.156, 124.115 L 656.348, 122.802 z "/>
<path style="fill:rgb(249, 255, 17);fill-opacity:1.0;fill-rule:evenodd;stroke:rgb(0, 0, 0);stroke-width:3.0;" d="M 150.232, 474.739 L 145.74, 484.317 L 143.467, 483.649 L 123.778, 465.025 L 123.743, 464.373 z "/>
<path style="fill:rgb(14, 252, 255);fill-opacity:1.0;fill-rule:evenodd;stroke:rgb(0, 0, 0);stroke-width:3.0;" d="M 495.427, 227.792 L 418.91, 281.879 L 416.864, 281.468 L 420.906, 241.218 L 455.301, 212.308 L 479.154, 209.775 z "/>
<path style="fill:rgb(231, 40, 61);fill-opacity:1.0;fill-rule:evenodd;stroke:rgb(0, 0, 0);stroke-width:3.0;" d="M 213.754, 365.638 L 218.721, 395.548 L 202.179, 364.482 z "/>
<path style="fill:rgb(231, 40, 61);fill-opacity:1.0;fill-rule:evenodd;stroke:rgb(0, 0, 0);stroke-width:3.0;" d="M 124.596, 261.796 L 128.727, 277.064 L 113.929, 280.439 L 112.843, 260.075 z "/>
<path style="fill:rgb(231, 40, 61);fill-opacity:1.0;fill-rule:evenodd;stroke:rgb(0, 0, 0);stroke-width:3.0;" d="M 747.896, 129.65 L 699.953, 139.538 L 671.637, 116.514 L 715.321, 98.5467 z "/>
<path style="fill:rgb(255, 62, 163);fill-opacity:1.0;fill-rule:evenodd;stroke:rgb(0, 0, 0);stroke-width:3.0;" d="M 677.769, 173.75 L 663.962, 179.637 L 655.385, 172.882 L 677.058, 164.692 z "/>
<path style="fill:rgb(255, 62, 163);fill-opacity:1.0;fill-rule:evenodd;stroke:rgb(0, 0, 0);stroke-width:3.0;" d="M 241.493, 172.619 L 236.062, 166.643 L 230.125, 147.157 L 243.245, 147.026 z "/>
<path style="fill:rgb(255, 62, 163);fill-opacity:1.0;fill-rule:evenodd;stroke:rgb(0, 0, 0);stroke-width:3.0;" d="M 335.656, 329.772 L 327.471, 321.874 L 330.039, 304.704 L 341.714, 297.451 z "/>
<path style="fill:rgb(255, 62, 163);fill-opacity:1.0;fill-rule:evenodd;stroke:rgb(0, 0, 0);stroke-width:3.0;" d="M 195.449, 291.292 L 193.965, 293.427 L 183.232, 298.586 L 164.214, 289.171 L 161.671, 280.19 z "/>
<path style="fill:rgb(255, 62, 163);fill-opacity:1.0;fill-rule:evenodd;stroke:rgb(0, 0, 0);stroke-width:3.0;" d="M 376.135, 244.999 L 347.294, 236.053 L 343.833, 232.852 L 364.201, 230.623 z "/>
<path style="fill:rgb(255, 62, 163);fill-opacity:1.0;fill-rule:evenodd;stroke:rgb(0, 0, 0);stroke-width:3.0;" d="M 606.398, 218.029 L 594.801, 236.066 L 585.829, 235.375 L 545.447, 218.647 L 544.915, 218.042 L 594.333, 205.669 z "/>
<path style="fill:rgb(255, 62, 163);fill-opacity:1.0;fill-rule:evenodd;stroke:rgb(0, 0, 0);stroke-width:3.0;" d="M 616.811, 230.335 L 602.552, 234.847 L 603.288, 222.866 L 610.443, 211.737 z "/>
<path style="fill:rgb(255, 62, 163);fill-opacity:1.0;fill-rule:evenodd;stroke:rgb(0, 0, 0);stroke-width:3.0;" d="M 791.765, 120.602 L 747.896, 129.65 L 715.321, 98.5467 L 728.519, 93.1183 z "/>
<path style="fill:rgb(255, 83, 217);fill-opacity:1.0;fill-rule:evenodd;stroke:rgb(0, 0, 0);stroke-width:3.0;" d="M 719.924, 155.776 L 677.769, 173.75 L 677.058, 164.692 L 713.81, 150.805 z "/>
<path style="fill:rgb(255, 42, 212);fill-opacity:1.0;fill-rule:evenodd;stroke:rgb(0, 0, 0);stroke-width:3.0;" d="M 181.922, 507.327 L 169.79, 525.705 L 169.471, 499.753 z "/>
<path style="fill:rgb(255, 42, 212);fill-opacity:1.0;fill-rule:evenodd;stroke:rgb(0, 0, 0);stroke-width:3.0;" d="M 777.489, 160.44 L 747.059, 181.327 L 700.152, 186.308 L 717.046, 170.026 L 755.486, 157.564 z "/>
<path style="fill:rgb(197, 1, 228);fill-opacity:1.0;fill-rule:evenodd;stroke:rgb(0, 0, 0);stroke-width:3.0;" d="M 65.1665, 18.2547 L 51.802, 38.1516 L 45.3598, 36.5656 L 60.22, 20.2251 L 65.0005, 17.2772 z "/>
<path style="fill:rgb(197, 1, 228);fill-opacity:1.0;fill-rule:evenodd;stroke:rgb(0, 0, 0);stroke-width:3.0;" d="M 717.506, 97.6482 L 690.699, 108.674 L 668.302, 98.4634 L 678.117, 81.8402 z "/>
<path style="fill:rgb(255, 72, 24);fill-opacity:1.0;fill-rule:evenodd;stroke:rgb(0, 0, 0);stroke-width:3.0;" d="M 688.344, 310.505 L 632.933, 317.99 L 627.024, 311.279 L 682.485, 307.843 z "/>
<path style="fill:rgb(243, 47, 207);fill-opacity:1.0;fill-rule:evenodd;stroke:rgb(0, 0, 0);stroke-width:3.0;" d="M 176.622, 576.932 L 172.519, 580.474 L 166.513, 573.556 L 170.643, 565.951 L 178.249, 565.4 z "/>
<path style="fill:rgb(243, 47, 207);fill-opacity:1.0;fill-rule:evenodd;stroke:rgb(0, 0, 0);stroke-width:3.0;" d="M 483.518, 273.17 L 453.07, 257.732 L 486.019, 234.442 z "/>
<path style="fill:rgb(243, 47, 207);fill-opacity:1.0;fill-rule:evenodd;stroke:rgb(0, 0, 0);stroke-width:3.0;" d="M 659.492, 171.33 L 655.385, 172.882 L 654.095, 171.865 L 649.974, 168.039 L 652.075, 153.132 L 659.382, 132.993 z "/>
<path style="fill:rgb(243, 47, 207);fill-opacity:1.0;fill-rule:evenodd;stroke:rgb(0, 0, 0);stroke-width:3.0;" d="M 712.952, 340.899 L 689.161, 336.124 L 689.276, 334.797 L 708.613, 326.245 z "/>
<path style="fill:rgb(243, 47, 207);fill-opacity:1.0;fill-rule:evenodd;stroke:rgb(0, 0, 0);stroke-width:3.0;" d="M 177.192, 317.559 L 170.379, 304.763 L 193.965, 293.427 z "/>
<path style="fill:rgb(246, 228, 19);fill-opacity:1.0;fill-rule:evenodd;stroke:rgb(0, 0, 0);stroke-width:3.0;" d="M 30.2518, 468.95 L 12.0594, 485.432 L 5.48091, 466.015 L 27.7963, 464.335 z "/>
<path style="fill:rgb(246, 228, 19);fill-opacity:1.0;fill-rule:evenodd;stroke:rgb(0, 0, 0);stroke-width:3.0;" d="M 499.491, 232.292 L 524.369, 289.358 L 521.174, 292.261 L 493.179, 278.068 L 492.471, 229.881 L 495.427, 227.792 z "/>
<path style="fill:rgb(246, 228, 19);fill-opacity:1.0;fill-rule:evenodd;stroke:rgb(0, 0, 0);stroke-width:3.0;" d="M 236.025, 394.884 L 234.791, 401.463 L 227.832, 399.922 L 226.775, 376.096 L 231.681, 369.022 z "/>
<path style="fill:rgb(30, 2, 177);fill-opacity:1.0;fill-rule:evenodd;stroke:rgb(0, 0, 0);stroke-width:3.0;" d="M 368.717, 271.804 L 332.257, 289.868 L 335.942, 265.225 z "/>
<path style="fill:rgb(30, 2, 177);fill-opacity:1.0;fill-rule:evenodd;stroke:rgb(0, 0, 0);stroke-width:3.0;" d="M 375.264, 222.17 L 382.846, 225.017 L 383.137, 228.55 L 357.722, 231.332 L 353.375, 223.131 L 368.702, 221.503 z "/>
<path style="fill:rgb(30, 2, 177);fill-opacity:1.0;fill-rule:evenodd;stroke:rgb(0, 0, 0);stroke-width:3.0;" d="M 601.793, 23.3269 L 606.931, 32.2337 L 602.087, 38.1777 L 591.742, 33.6822 L 588.202, 17.2492 z "/>
<path style="fill:rgb(255, 39, 19);fill-opacity:1.0;fill-rule:evenodd;stroke:rgb(0, 0, 0);stroke-width:3.0;" d="M 225.182, 166.707 L 66.0581, 166.05 L 163.593, 133.021 z "/>
<path style="fill:rgb(48, 175, 255);fill-opacity:1.0;fill-rule:evenodd;stroke:rgb(0, 0, 0);stroke-width:3.0;" d="M 403.85, 255.553 L 396.011, 262.142 L 384.91, 244.424 L 384.783, 242.45 L 390.543, 227.739 L 390.763, 227.715 z "/>
<path style="fill:rgb(56, 128, 255);fill-opacity:1.0;fill-rule:evenodd;stroke:rgb(0, 0, 0);stroke-width:3.0;" d="M 610.834, 195.792 L 601.651, 196.767 L 602.822, 185.123 L 675.963, 85.4895 z "/>
<path style="fill:rgb(255, 30, 21);fill-opacity:1.0;fill-rule:evenodd;stroke:rgb(0, 0, 0);stroke-width:3.0;" d="M 185.972, 418.534 L 121.18, 416.337 L 117.171, 341.198 L 145.544, 287.99 z "/>
<path style="fill:rgb(255, 217, 6);fill-opacity:1.0;fill-rule:evenodd;stroke:rgb(0, 0, 0);stroke-width:3.0;" d="M 183.806, 541.717 L 178.143, 540.974 L 169.715, 531.914 L 189.992, 530.327 z "/>
<path style="fill:rgb(237, 69, 41);fill-opacity:1.0;fill-rule:evenodd;stroke:rgb(0, 0, 0);stroke-width:3.0;" d="M 226.197, 363.08 L 226.751, 375.567 L 216.279, 375.712 L 211.577, 347.259 z "/>
<path style="fill:rgb(163, 255, 255);fill-opacity:1.0;fill-rule:evenodd;stroke:rgb(0, 0, 0);stroke-width:3.0;" d="M 769.686, 299.208 L 789.948, 310.582 L 788.309, 319.254 L 759.291, 307.233 L 763.853, 300.504 L 768.765, 299.049 z "/>
<path style="fill:rgb(78, 168, 255);fill-opacity:1.0;fill-rule:evenodd;stroke:rgb(0, 0, 0);stroke-width:3.0;" d="M 234.362, 346.159 L 240.95, 371.236 L 232.343, 372.96 L 227.525, 344.276 z "/>
<path style="fill:rgb(255, 123, 8);fill-opacity:1.0;fill-rule:evenodd;stroke:rgb(0, 0, 0);stroke-width:3.0;" d="M 64.3608, 13.5104 L 64.9543, 17.0054 L 61.4503, 18.9952 L 39.8372, 17.8879 L 44.4929, 5.44242 z "/>
<path style="fill:rgb(97, 98, 255);fill-opacity:1.0;fill-rule:evenodd;stroke:rgb(0, 0, 0);stroke-width:3.0;" d="M 728.054, 62.5284 L 735.382, 68.5877 L 754.395, 98.1166 L 753.569, 104.003 L 745.504, 100.499 L 724.654, 61.301 z "/>
<path style="fill:rgb(255, 6, 168);fill-opacity:1.0;fill-rule:evenodd;stroke:rgb(0, 0, 0);stroke-width:3.0;" d="M 197.377, 516.729 L 197.135, 517.176 L 170.464, 524.684 L 181.922, 507.327 z "/>
<path style="fill:rgb(44, 56, 202);fill-opacity:1.0;fill-rule:evenodd;stroke:rgb(0, 0, 0);stroke-width:3.0;" d="M 185.972, 418.534 L 187.739, 424.241 L 183.245, 429.684 L 130.055, 459.055 L 123.334, 456.708 L 123.187, 453.965 L 182.9, 418.43 z "/>
<path style="fill:rgb(44, 56, 202);fill-opacity:1.0;fill-rule:evenodd;stroke:rgb(0, 0, 0);stroke-width:3.0;" d="M 221.43, 118.768 L 140.056, 81.8248 L 149.901, 72.1469 z "/>
<path style="fill:rgb(255, 23, 255);fill-opacity:1.0;fill-rule:evenodd;stroke:rgb(0, 0, 0);stroke-width:3.0;" d="M 556.059, 307.933 L 556.482, 309.492 L 535.3, 305.24 L 538.572, 294.764 z "/>
<path style="fill:rgb(255, 23, 255);fill-opacity:1.0;fill-rule:evenodd;stroke:rgb(0, 0, 0);stroke-width:3.0;" d="M 145.544, 287.99 L 117.171, 341.198 L 113.929, 280.439 L 141.274, 274.203 z "/>
<path style="fill:rgb(249, 199, 121);fill-opacity:1.0;fill-rule:evenodd;stroke:rgb(0, 0, 0);stroke-width:3.0;" d="M 268.052, 585.583 L 221.992, 576.325 L 223.114, 546.836 L 260.641, 541.458 z "/>
<path style="fill:rgb(61, 252, 255);fill-opacity:1.0;fill-rule:evenodd;stroke:rgb(0, 0, 0);stroke-width:3.0;" d="M 221.992, 576.325 L 185.762, 569.043 L 209.172, 548.834 L 223.114, 546.836 z "/>
<path style="fill:rgb(255, 51, 15);fill-opacity:1.0;fill-rule:evenodd;stroke:rgb(0, 0, 0);stroke-width:3.0;" d="M 138.041, 263.764 L 112.843, 260.075 L 112.238, 248.736 L 132.714, 246.562 z "/>
<path style="fill:rgb(255, 2, 172);fill-opacity:1.0;fill-rule:evenodd;stroke:rgb(0, 0, 0);stroke-width:3.0;" d="M 99.8561, 469.892 L 89.9129, 501.545 L 83.1756, 448.017 z "/>
<path style="fill:rgb(78, 255, 252);fill-opacity:1.0;fill-rule:evenodd;stroke:rgb(0, 0, 0);stroke-width:3.0;" d="M 749.328, 181.418 L 767.112, 186.829 L 744.751, 196.294 L 737.51, 189.217 L 748.972, 181.405 z "/>
<path style="fill:rgb(255, 231, 11);fill-opacity:1.0;fill-rule:evenodd;stroke:rgb(0, 0, 0);stroke-width:3.0;" d="M 763.463, 206.381 L 775.026, 218.21 L 779.901, 225.102 L 779.827, 225.267 L 755.352, 206.655 L 751.309, 202.704 L 748.052, 198.114 z "/>
<path style="fill:rgb(255, 231, 11);fill-opacity:1.0;fill-rule:evenodd;stroke:rgb(0, 0, 0);stroke-width:3.0;" d="M 276.311, 240.243 L 259.175, 242.118 L 244.349, 236.785 L 244.809, 234.659 L 274.661, 231.489 z "/>
<path style="fill:rgb(255, 231, 11);fill-opacity:1.0;fill-rule:evenodd;stroke:rgb(0, 0, 0);stroke-width:3.0;" d="M 364.698, 352.364 L 330.136, 359.218 L 341.714, 297.451 L 346.907, 294.224 z "/>
<path style="fill:rgb(255, 41, 243);fill-opacity:1.0;fill-rule:evenodd;stroke:rgb(0, 0, 0);stroke-width:3.0;" d="M 551.013, 289.338 L 556.059, 307.933 L 538.572, 294.764 L 543.028, 280.496 z "/>
<path style="fill:rgb(255, 45, 209);fill-opacity:1.0;fill-rule:evenodd;stroke:rgb(0, 0, 0);stroke-width:3.0;" d="M 601.651, 196.767 L 548.726, 202.387 L 606.252, 151.007 z "/>
<path style="fill:rgb(255, 237, 19);fill-opacity:1.0;fill-rule:evenodd;stroke:rgb(0, 0, 0);stroke-width:3.0;" d="M 750.886, 159.055 L 723.867, 167.815 L 724.69, 163.894 L 740.38, 149.396 z "/>
<path style="fill:rgb(255, 237, 19);fill-opacity:1.0;fill-rule:evenodd;stroke:rgb(0, 0, 0);stroke-width:3.0;" d="M 708.613, 326.245 L 689.276, 334.797 L 691.403, 310.092 L 703.354, 308.478 z "/>
<path style="fill:rgb(255, 237, 19);fill-opacity:1.0;fill-rule:evenodd;stroke:rgb(0, 0, 0);stroke-width:3.0;" d="M 614.017, 73.7755 L 606.252, 151.007 L 548.726, 202.387 L 358.836, 222.551 L 467.01, 53.8946 z "/>
<path style="fill:rgb(228, 5, 33);fill-opacity:1.0;fill-rule:evenodd;stroke:rgb(0, 0, 0);stroke-width:3.0;" d="M 427.294, 235.848 L 415.143, 246.061 L 412.668, 245.481 L 413.326, 228.697 z "/>
<path style="fill:rgb(126, 11, 231);fill-opacity:1.0;fill-rule:evenodd;stroke:rgb(0, 0, 0);stroke-width:3.0;" d="M 227.355, 389.158 L 228.449, 413.817 L 219.932, 397.822 L 218.172, 387.168 L 219.954, 385.481 z "/>
<path style="fill:rgb(21, 255, 255);fill-opacity:1.0;fill-rule:evenodd;stroke:rgb(0, 0, 0);stroke-width:3.0;" d="M 240.021, 281.413 L 237.495, 272.526 L 239.038, 264.124 L 239.952, 261.269 L 250.13, 261.137 z "/>
<path style="fill:rgb(255, 25, 197);fill-opacity:1.0;fill-rule:evenodd;stroke:rgb(0, 0, 0);stroke-width:3.0;" d="M 245.63, 538.998 L 239.727, 541.523 L 236.422, 537.251 L 235.813, 535.349 L 245.722, 530.076 L 253.043, 529.546 z "/>
<path style="fill:rgb(255, 0, 20);fill-opacity:1.0;fill-rule:evenodd;stroke:rgb(0, 0, 0);stroke-width:3.0;" d="M 299.481, 437.53 L 264.555, 474.302 L 274.252, 370.3 L 332.13, 358.823 z "/>
<path style="fill:rgb(255, 0, 20);fill-opacity:1.0;fill-rule:evenodd;stroke:rgb(0, 0, 0);stroke-width:3.0;" d="M 62.4193, 77.6829 L 51.7614, 83.2449 L 43.7074, 67.4483 z "/>
<path style="fill:rgb(255, 0, 20);fill-opacity:1.0;fill-rule:evenodd;stroke:rgb(0, 0, 0);stroke-width:3.0;" d="M 43.7074, 67.4483 L 49.7777, 79.3542 L 50.007, 84.1605 L 49.0451, 84.6624 L 30.6028, 63.258 L 34.2488, 62.2749 z "/>
<path style="fill:rgb(255, 0, 20);fill-opacity:1.0;fill-rule:evenodd;stroke:rgb(0, 0, 0);stroke-width:3.0;" d="M 218.713, 395.533 L 203.962, 476.625 L 196.167, 451.455 L 203.649, 421.99 L 218.453, 395.045 z "/>
<path style="fill:rgb(46, 40, 223);fill-opacity:1.0;fill-rule:evenodd;stroke:rgb(0, 0, 0);stroke-width:3.0;" d="M 363.221, 277.46 L 365.448, 287.625 L 331.796, 292.955 L 332.257, 289.868 L 358.622, 276.805 z "/>
<path style="fill:rgb(35, 136, 255);fill-opacity:1.0;fill-rule:evenodd;stroke:rgb(0, 0, 0);stroke-width:3.0;" d="M 398.184, 282.441 L 365.448, 287.625 L 363.221, 277.46 z "/>
<path style="fill:rgb(255, 17, 82);fill-opacity:1.0;fill-rule:evenodd;stroke:rgb(0, 0, 0);stroke-width:3.0;" d="M 376.44, 273.354 L 384.865, 280.544 L 358.622, 276.805 L 368.717, 271.804 z "/>
<path style="fill:rgb(255, 17, 82);fill-opacity:1.0;fill-rule:evenodd;stroke:rgb(0, 0, 0);stroke-width:3.0;" d="M 521.174, 292.261 L 512.031, 300.57 L 418.91, 281.879 L 453.07, 257.732 z "/>
<path style="fill:rgb(255, 2, 15);fill-opacity:1.0;fill-rule:evenodd;stroke:rgb(0, 0, 0);stroke-width:3.0;" d="M 335.656, 329.772 L 330.136, 359.218 L 328.12, 359.618 L 325.384, 335.837 L 327.471, 321.874 z "/>
<path style="fill:rgb(240, 7, 44);fill-opacity:1.0;fill-rule:evenodd;stroke:rgb(0, 0, 0);stroke-width:3.0;" d="M 299.481, 437.53 L 332.13, 358.823 L 384.009, 348.535 z "/>
<path style="fill:rgb(255, 22, 22);fill-opacity:1.0;fill-rule:evenodd;stroke:rgb(0, 0, 0);stroke-width:3.0;" d="M 201.385, 572.183 L 181.42, 583.716 L 180.576, 581.642 L 181.337, 574.917 L 188.52, 569.597 z "/>
<path style="fill:rgb(255, 22, 22);fill-opacity:1.0;fill-rule:evenodd;stroke:rgb(0, 0, 0);stroke-width:3.0;" d="M 183.232, 298.586 L 170.379, 304.763 L 166.642, 297.745 L 164.214, 289.171 z "/>
<path style="fill:rgb(89, 215, 255);fill-opacity:1.0;fill-rule:evenodd;stroke:rgb(0, 0, 0);stroke-width:3.0;" d="M 341.937, 226.564 L 342.663, 232.98 L 341.545, 233.103 L 328.443, 231.865 L 328.307, 225.793 L 340.174, 224.533 z "/>
<path style="fill:rgb(89, 215, 255);fill-opacity:1.0;fill-rule:evenodd;stroke:rgb(0, 0, 0);stroke-width:3.0;" d="M 115.895, 70.856 L 92.5944, 60.2775 L 100.201, 43.1061 z "/>
<path style="fill:rgb(8, 27, 255);fill-opacity:1.0;fill-rule:evenodd;stroke:rgb(0, 0, 0);stroke-width:3.0;" d="M 660.158, 256.373 L 660.083, 256.508 L 653.237, 263.3 L 635.922, 256.127 L 637.251, 250.834 L 652.85, 248.424 z "/>
<path style="fill:rgb(64, 255, 255);fill-opacity:1.0;fill-rule:evenodd;stroke:rgb(0, 0, 0);stroke-width:3.0;" d="M 387.921, 234.436 L 381.333, 251.261 L 367.136, 234.159 z "/>
<path style="fill:rgb(123, 255, 215);fill-opacity:1.0;fill-rule:evenodd;stroke:rgb(0, 0, 0);stroke-width:3.0;" d="M 685.739, 187.838 L 680.346, 188.411 L 672.178, 184.573 L 696.226, 176.776 z "/>
<path style="fill:rgb(231, 255, 45);fill-opacity:1.0;fill-rule:evenodd;stroke:rgb(0, 0, 0);stroke-width:3.0;" d="M 715.674, 84.7257 L 711.702, 85.8104 L 698.5, 80.0734 L 711.783, 66.2787 L 715.777, 65.5739 z "/>
<path style="fill:rgb(231, 255, 45);fill-opacity:1.0;fill-rule:evenodd;stroke:rgb(0, 0, 0);stroke-width:3.0;" d="M 244.499, 236.089 L 237.504, 243.45 L 229.437, 243.242 L 221.206, 241.771 L 224.019, 236.867 L 244.809, 234.659 z "/>
<path style="fill:rgb(237, 121, 32);fill-opacity:1.0;fill-rule:evenodd;stroke:rgb(0, 0, 0);stroke-width:3.0;" d="M 341.545, 233.103 L 313.539, 236.168 L 305.995, 229.744 z "/>
<path style="fill:rgb(249, 240, 8);fill-opacity:1.0;fill-rule:evenodd;stroke:rgb(0, 0, 0);stroke-width:3.0;" d="M 189.992, 530.327 L 179.648, 531.137 L 183.475, 521.021 L 197.135, 517.176 z "/>
<path style="fill:rgb(14, 102, 228);fill-opacity:1.0;fill-rule:evenodd;stroke:rgb(0, 0, 0);stroke-width:3.0;" d="M 169.471, 499.753 L 169.699, 518.285 L 164.795, 516.545 L 161.724, 495.04 z "/>
<path style="fill:rgb(255, 41, 20);fill-opacity:1.0;fill-rule:evenodd;stroke:rgb(0, 0, 0);stroke-width:3.0;" d="M 536.009, 272.725 L 539.014, 276.052 L 524.369, 289.358 L 516.357, 270.981 z "/>
<path style="fill:rgb(255, 5, 74);fill-opacity:1.0;fill-rule:evenodd;stroke:rgb(0, 0, 0);stroke-width:3.0;" d="M 700.152, 186.308 L 696.753, 186.669 L 689.998, 183.346 L 696.226, 176.776 L 717.046, 170.026 z "/>
<path style="fill:rgb(255, 1, 22);fill-opacity:1.0;fill-rule:evenodd;stroke:rgb(0, 0, 0);stroke-width:3.0;" d="M 238.875, 126.688 L 246.613, 146.992 L 230.125, 147.157 L 224.982, 130.276 L 229.315, 122.348 z "/>
<path style="fill:rgb(255, 67, 16);fill-opacity:1.0;fill-rule:evenodd;stroke:rgb(0, 0, 0);stroke-width:3.0;" d="M 734.394, 79.613 L 715.674, 84.7257 L 715.777, 65.5739 L 725.97, 63.7753 z "/>
<path style="fill:rgb(24, 0, 202);fill-opacity:1.0;fill-rule:evenodd;stroke:rgb(0, 0, 0);stroke-width:3.0;" d="M 599.948, 280.534 L 596.318, 286.801 L 571.594, 312.126 L 479.154, 209.775 L 532.633, 204.096 z "/>
<path style="fill:rgb(24, 0, 202);fill-opacity:1.0;fill-rule:evenodd;stroke:rgb(0, 0, 0);stroke-width:3.0;" d="M 625.162, 218.086 L 627.283, 227.022 L 616.811, 230.335 L 610.443, 211.737 L 611.347, 210.332 z "/>
<path style="fill:rgb(24, 0, 202);fill-opacity:1.0;fill-rule:evenodd;stroke:rgb(0, 0, 0);stroke-width:3.0;" d="M 189.651, 289.386 L 177.278, 285.32 L 192.426, 270.736 z "/>
<path style="fill:rgb(24, 0, 202);fill-opacity:1.0;fill-rule:evenodd;stroke:rgb(0, 0, 0);stroke-width:3.0;" d="M 192.631, 269.36 L 192.426, 270.736 L 177.278, 285.32 L 161.671, 280.19 L 161.58, 279.866 L 162.359, 278.871 L 191.691, 267.802 z "/>
<path style="fill:rgb(24, 0, 202);fill-opacity:1.0;fill-rule:evenodd;stroke:rgb(0, 0, 0);stroke-width:3.0;" d="M 791.923, 198.119 L 784.924, 213.828 L 770.263, 211.477 L 762.403, 200.364 L 786.193, 193.004 z "/>
<path style="fill:rgb(255, 255, 72);fill-opacity:1.0;fill-rule:evenodd;stroke:rgb(0, 0, 0);stroke-width:3.0;" d="M 786.193, 193.004 L 762.403, 200.364 L 756.12, 191.482 L 775.364, 183.337 z "/>
<path style="fill:rgb(11, 255, 226);fill-opacity:1.0;fill-rule:evenodd;stroke:rgb(0, 0, 0);stroke-width:3.0;" d="M 469.709, 292.075 L 412.018, 420.21 L 405.392, 422.114 L 397.406, 345.35 L 465.886, 291.308 z "/>
<path style="fill:rgb(11, 255, 226);fill-opacity:1.0;fill-rule:evenodd;stroke:rgb(0, 0, 0);stroke-width:3.0;" d="M 533.479, 269.924 L 534.389, 272.581 L 516.357, 270.981 L 507.506, 250.678 L 509.198, 243.039 z "/>
<path style="fill:rgb(11, 255, 226);fill-opacity:1.0;fill-rule:evenodd;stroke:rgb(0, 0, 0);stroke-width:3.0;" d="M 138.041, 263.764 L 141.274, 274.203 L 128.727, 277.064 L 124.596, 261.796 z "/>
<path style="fill:rgb(175, 255, 44);fill-opacity:1.0;fill-rule:evenodd;stroke:rgb(0, 0, 0);stroke-width:3.0;" d="M 55.6644, 43.5113 L 82.0778, 88.4353 L 25.3915, 57.4303 L 50.4197, 41.1303 z "/>
<path style="fill:rgb(175, 255, 44);fill-opacity:1.0;fill-rule:evenodd;stroke:rgb(0, 0, 0);stroke-width:3.0;" d="M 237.101, 538.129 L 223.671, 546.756 L 218.24, 547.535 L 229.931, 528.858 z "/>
<path style="fill:rgb(252, 1, 56);fill-opacity:1.0;fill-rule:evenodd;stroke:rgb(0, 0, 0);stroke-width:3.0;" d="M 169, 545.99 L 170.061, 553.414 L 169.466, 557.158 L 141.439, 535.565 L 144.046, 528.309 z "/>
<path style="fill:rgb(240, 43, 140);fill-opacity:1.0;fill-rule:evenodd;stroke:rgb(0, 0, 0);stroke-width:3.0;" d="M 163.593, 133.021 L 127.735, 145.164 L 116.258, 107.131 z "/>
<path style="fill:rgb(240, 43, 140);fill-opacity:1.0;fill-rule:evenodd;stroke:rgb(0, 0, 0);stroke-width:3.0;" d="M 165.075, 526.884 L 166.814, 530.681 L 169, 545.99 L 144.046, 528.309 L 148.012, 517.271 z "/>
<path style="fill:rgb(255, 3, 255);fill-opacity:1.0;fill-rule:evenodd;stroke:rgb(0, 0, 0);stroke-width:3.0;" d="M 186.265, 248.364 L 157.411, 265.141 L 157.389, 265.066 L 164.858, 243.149 L 182.075, 241.321 z "/>
<path style="fill:rgb(243, 124, 44);fill-opacity:1.0;fill-rule:evenodd;stroke:rgb(0, 0, 0);stroke-width:3.0;" d="M 706.709, 57.4943 L 712.703, 65.3238 L 698.5, 80.0734 L 620.029, 45.974 z "/>
<path style="fill:rgb(249, 64, 29);fill-opacity:1.0;fill-rule:evenodd;stroke:rgb(0, 0, 0);stroke-width:3.0;" d="M 753.369, 71.6675 L 750.757, 88.7461 L 747.711, 87.7363 L 743.821, 81.6947 L 737.947, 66.0998 z "/>
<path style="fill:rgb(237, 8, 24);fill-opacity:1.0;fill-rule:evenodd;stroke:rgb(0, 0, 0);stroke-width:3.0;" d="M 493.179, 278.068 L 483.518, 273.17 L 486.019, 234.442 L 492.471, 229.881 z "/>
<path style="fill:rgb(237, 8, 24);fill-opacity:1.0;fill-rule:evenodd;stroke:rgb(0, 0, 0);stroke-width:3.0;" d="M 412.962, 237.99 L 398.389, 233.531 L 397.981, 226.925 L 413.462, 225.231 z "/>
<path style="fill:rgb(237, 8, 24);fill-opacity:1.0;fill-rule:evenodd;stroke:rgb(0, 0, 0);stroke-width:3.0;" d="M 465.886, 291.308 L 397.406, 345.35 L 396.382, 335.507 L 442.77, 286.668 z "/>
<path style="fill:rgb(59, 33, 226);fill-opacity:1.0;fill-rule:evenodd;stroke:rgb(0, 0, 0);stroke-width:3.0;" d="M 705.303, 143.888 L 659.482, 167.688 L 659.349, 121.568 L 671.637, 116.514 z "/>
<path style="fill:rgb(243, 14, 52);fill-opacity:1.0;fill-rule:evenodd;stroke:rgb(0, 0, 0);stroke-width:3.0;" d="M 149.774, 465.943 L 130.055, 459.055 L 162.597, 441.086 z "/>
<path style="fill:rgb(243, 14, 52);fill-opacity:1.0;fill-rule:evenodd;stroke:rgb(0, 0, 0);stroke-width:3.0;" d="M 256.693, 173.44 L 261.751, 186.709 L 246.933, 178.604 L 245.67, 177.214 L 253.861, 169.247 z "/>
<path style="fill:rgb(177, 142, 255);fill-opacity:1.0;fill-rule:evenodd;stroke:rgb(0, 0, 0);stroke-width:3.0;" d="M 355.326, 243.479 L 335.616, 249.315 L 337.504, 233.545 L 343.833, 232.852 z "/>
<path style="fill:rgb(70, 215, 165);fill-opacity:1.0;fill-rule:evenodd;stroke:rgb(0, 0, 0);stroke-width:3.0;" d="M 335.616, 249.315 L 308.437, 257.362 L 260.415, 248.779 L 238.801, 244.348 L 337.504, 233.545 z "/>
<path style="fill:rgb(17, 17, 231);fill-opacity:1.0;fill-rule:evenodd;stroke:rgb(0, 0, 0);stroke-width:3.0;" d="M 594.333, 205.669 L 544.915, 218.042 L 532.633, 204.096 L 587.147, 198.307 z "/>
<path style="fill:rgb(157, 159, 209);fill-opacity:1.0;fill-rule:evenodd;stroke:rgb(0, 0, 0);stroke-width:3.0;" d="M 389.317, 230.871 L 386.1, 234.412 L 367.136, 234.159 L 364.201, 230.623 L 390.543, 227.739 z "/>
<path style="fill:rgb(255, 240, 18);fill-opacity:1.0;fill-rule:evenodd;stroke:rgb(0, 0, 0);stroke-width:3.0;" d="M 196.861, 276.366 L 200.08, 292.814 L 189.651, 289.386 L 192.631, 269.36 z "/>
<path style="fill:rgb(255, 48, 142);fill-opacity:1.0;fill-rule:evenodd;stroke:rgb(0, 0, 0);stroke-width:3.0;" d="M 742.856, 95.5207 L 734.313, 95.636 L 730.916, 94.1596 L 725.103, 82.1506 L 734.394, 79.613 z "/>
<path style="fill:rgb(240, 98, 100);fill-opacity:1.0;fill-rule:evenodd;stroke:rgb(0, 0, 0);stroke-width:3.0;" d="M 188.622, 252.325 L 162.023, 272.594 L 166.643, 259.773 L 186.265, 248.364 z "/>
<path style="fill:rgb(69, 2, 255);fill-opacity:1.0;fill-rule:evenodd;stroke:rgb(0, 0, 0);stroke-width:3.0;" d="M 250.431, 501.1 L 247.866, 514.684 L 234.168, 522.089 L 247.868, 500.205 z "/>
<path style="fill:rgb(9, 20, 231);fill-opacity:1.0;fill-rule:evenodd;stroke:rgb(0, 0, 0);stroke-width:3.0;" d="M 268.543, 355.575 L 275.389, 357.461 L 264.65, 366.487 L 240.95, 371.236 L 235.587, 350.823 z "/>
<path style="fill:rgb(88, 163, 150);fill-opacity:1.0;fill-rule:evenodd;stroke:rgb(0, 0, 0);stroke-width:3.0;" d="M 412.962, 237.99 L 412.668, 245.481 L 398.929, 242.259 L 398.389, 233.531 z "/>
<path style="fill:rgb(255, 202, 44);fill-opacity:1.0;fill-rule:evenodd;stroke:rgb(0, 0, 0);stroke-width:3.0;" d="M 166.005, 417.857 L 176.881, 422.012 L 142.034, 442.75 L 156.92, 417.549 z "/>
<path style="fill:rgb(255, 255, 8);fill-opacity:1.0;fill-rule:evenodd;stroke:rgb(0, 0, 0);stroke-width:3.0;" d="M 156.92, 417.549 L 142.034, 442.75 L 123.187, 453.965 L 123.005, 450.54 L 154.118, 417.454 z "/>
<path style="fill:rgb(11, 150, 255);fill-opacity:1.0;fill-rule:evenodd;stroke:rgb(0, 0, 0);stroke-width:3.0;" d="M 139.239, 541.688 L 129.338, 569.245 L 127.703, 538.604 z "/>
<path style="fill:rgb(204, 3, 8);fill-opacity:1.0;fill-rule:evenodd;stroke:rgb(0, 0, 0);stroke-width:3.0;" d="M 211.577, 347.259 L 214.628, 365.725 L 208.758, 365.139 L 203.627, 360.73 L 209.888, 345.432 z "/>
<path style="fill:rgb(217, 22, 144);fill-opacity:1.0;fill-rule:evenodd;stroke:rgb(0, 0, 0);stroke-width:3.0;" d="M 152.517, 466.901 L 149.774, 465.943 L 162.597, 441.086 L 183.245, 429.684 z "/>
</svg>