<?xml version="1.0" encoding="iso-8859-1" standalone="no"?>
<!DOCTYPE svg PUBLIC "-//W3C//DTD SVG 1.0//EN" "http://www.w3.org/TR/2001/REC-SVG-20010904/DTD/svg10.dtd">
<svg xmlns="http://www.w3.org/2000/svg" width="800" height="600">
<path style="fill:rgb(0, 0, 0);fill-opacity:0.0;fill-rule:evenodd;stroke:rgb(0, 0, 0);stroke-width:0.0;" d="M 0, 600 L 800, 600 L 800, 0 L 0, 0 z "/>
<path style="fill:rgb(255, 255, 11);fill-opacity:1.0;fill-rule:evenodd;stroke:rgb(0, 0, 0);stroke-width:3.0;" d="M 748.819, 540.398 L 743.111, 543.8 L 717.495, 540.512 L 750.224, 525.133 z "/>
<path style="fill:rgb(252, 255, 23);fill-opacity:1.0;fill-rule:evenodd;stroke:rgb(0, 0, 0);stroke-width:3.0;" d="M 782.261, 179.887 L 777.974, 184.439 L 768.796, 182.503 L 769.87, 165.12 z "/>
<path style="fill:rgb(252, 255, 23);fill-opacity:1.0;fill-rule:evenodd;stroke:rgb(0, 0, 0);stroke-width:3.0;" d="M 776.545, 564.344 L 782.457, 581.291 L 764.148, 588.214 L 728.988, 576.166 L 717.451, 557.391 z "/>
<path style="fill:rgb(252, 255, 23);fill-opacity:1.0;fill-rule:evenodd;stroke:rgb(0, 0, 0);stroke-width:3.0;" d="M 235.949, 490.921 L 227.035, 511.614 L 155.097, 498.026 L 156.667, 489.995 L 208.846, 467.797 z "/>
<path style="fill:rgb(252, 255, 23);fill-opacity:1.0;fill-rule:evenodd;stroke:rgb(0, 0, 0);stroke-width:3.0;" d="M 439.254, 160.53 L 416.217, 165.617 L 448.782, 103.121 z "/>
<path style="fill:rgb(252, 255, 23);fill-opacity:1.0;fill-rule:evenodd;stroke:rgb(0, 0, 0);stroke-width:3.0;" d="M 783.577, 271.871 L 780.925, 273.093 L 760.38, 236.084 L 763.802, 235.045 z "/>
<path style="fill:rgb(252, 255, 23);fill-opacity:1.0;fill-rule:evenodd;stroke:rgb(0, 0, 0);stroke-width:3.0;" d="M 541.566, 434.815 L 536.62, 346.727 L 667.467, 308.585 z "/>
<path style="fill:rgb(255, 255, 70);fill-opacity:1.0;fill-rule:evenodd;stroke:rgb(0, 0, 0);stroke-width:3.0;" d="M 182.718, 356.744 L 151.525, 309.769 L 192.905, 304.637 z "/>
<path style="fill:rgb(255, 255, 70);fill-opacity:1.0;fill-rule:evenodd;stroke:rgb(0, 0, 0);stroke-width:3.0;" d="M 337.522, 287.265 L 302.202, 386.054 L 248.437, 501.576 L 181.662, 444.603 L 284.42, 211.673 z "/>
<path style="fill:rgb(240, 1, 15);fill-opacity:1.0;fill-rule:evenodd;stroke:rgb(0, 0, 0);stroke-width:3.0;" d="M 492.888, 561.313 L 474.381, 559.062 L 485.006, 548.821 z "/>
<path style="fill:rgb(204, 1, 20);fill-opacity:1.0;fill-rule:evenodd;stroke:rgb(0, 0, 0);stroke-width:3.0;" d="M 276.028, 452.202 L 257.362, 509.191 L 249.8, 502.739 L 275.715, 451.707 z "/>
<path style="fill:rgb(204, 1, 20);fill-opacity:1.0;fill-rule:evenodd;stroke:rgb(0, 0, 0);stroke-width:3.0;" d="M 753.563, 516.217 L 666.44, 546.129 L 670.515, 533.776 L 751.6, 506.728 z "/>
<path style="fill:rgb(255, 19, 75);fill-opacity:1.0;fill-rule:evenodd;stroke:rgb(0, 0, 0);stroke-width:3.0;" d="M 345.406, 76.6165 L 357.881, 97.2204 L 354.696, 105.093 L 351.172, 105.31 L 320.208, 82.6579 L 318.821, 80.1711 L 334.789, 74.7782 z "/>
<path style="fill:rgb(255, 19, 75);fill-opacity:1.0;fill-rule:evenodd;stroke:rgb(0, 0, 0);stroke-width:3.0;" d="M 771.028, 218.349 L 786.856, 270.361 L 783.577, 271.871 L 753.806, 216.43 z "/>
<path style="fill:rgb(255, 19, 75);fill-opacity:1.0;fill-rule:evenodd;stroke:rgb(0, 0, 0);stroke-width:3.0;" d="M 530.256, 522.044 L 490.705, 520.129 L 473.759, 502.799 L 474.784, 501.772 L 508.296, 501.644 z "/>
<path style="fill:rgb(255, 19, 75);fill-opacity:1.0;fill-rule:evenodd;stroke:rgb(0, 0, 0);stroke-width:3.0;" d="M 271.742, 459.532 L 249.8, 502.739 L 248.437, 501.576 L 268.375, 458.736 z "/>
<path style="fill:rgb(255, 19, 75);fill-opacity:1.0;fill-rule:evenodd;stroke:rgb(0, 0, 0);stroke-width:3.0;" d="M 650.673, 313.48 L 632.155, 318.879 L 614.916, 320.015 L 641.92, 303.855 z "/>
<path style="fill:rgb(255, 19, 75);fill-opacity:1.0;fill-rule:evenodd;stroke:rgb(0, 0, 0);stroke-width:3.0;" d="M 526.154, 272.657 L 515.664, 281.629 L 514.663, 281.188 L 497.421, 241.645 z "/>
<path style="fill:rgb(255, 19, 75);fill-opacity:1.0;fill-rule:evenodd;stroke:rgb(0, 0, 0);stroke-width:3.0;" d="M 777.974, 184.439 L 766.398, 196.731 L 754.607, 180.817 L 755.345, 179.665 z "/>
<path style="fill:rgb(255, 237, 8);fill-opacity:1.0;fill-rule:evenodd;stroke:rgb(0, 0, 0);stroke-width:3.0;" d="M 443.461, 276.187 L 457.499, 290.823 L 451.961, 291.219 L 435.712, 282.282 L 435.655, 282.207 L 442.935, 275.954 z "/>
<path style="fill:rgb(255, 237, 8);fill-opacity:1.0;fill-rule:evenodd;stroke:rgb(0, 0, 0);stroke-width:3.0;" d="M 377.475, 31.6947 L 382.393, 21.3042 L 415.361, 7.87025 z "/>
<path style="fill:rgb(255, 237, 8);fill-opacity:1.0;fill-rule:evenodd;stroke:rgb(0, 0, 0);stroke-width:3.0;" d="M 182.617, 357.26 L 156.25, 492.127 L 76.3294, 408.001 L 79.1559, 354.692 z "/>
<path style="fill:rgb(255, 237, 8);fill-opacity:1.0;fill-rule:evenodd;stroke:rgb(0, 0, 0);stroke-width:3.0;" d="M 179.941, 443.135 L 177.137, 451.956 L 165.977, 442.375 L 167.846, 432.816 z "/>
<path style="fill:rgb(255, 237, 8);fill-opacity:1.0;fill-rule:evenodd;stroke:rgb(0, 0, 0);stroke-width:3.0;" d="M 79.1559, 354.692 L 76.3294, 408.001 L 41.0266, 370.84 L 51.8556, 354.014 z "/>
<path style="fill:rgb(255, 237, 8);fill-opacity:1.0;fill-rule:evenodd;stroke:rgb(0, 0, 0);stroke-width:3.0;" d="M 628.611, 584.928 L 596.894, 563.779 L 598.014, 561.069 L 620.812, 550.059 z "/>
<path style="fill:rgb(255, 237, 8);fill-opacity:1.0;fill-rule:evenodd;stroke:rgb(0, 0, 0);stroke-width:3.0;" d="M 103.117, 449.316 L 152.294, 512.366 L 147.096, 538.954 L 87.6119, 484.516 L 61.5055, 455.036 L 66.2767, 447.016 L 87.6537, 444.423 z "/>
<path style="fill:rgb(255, 237, 8);fill-opacity:1.0;fill-rule:evenodd;stroke:rgb(0, 0, 0);stroke-width:3.0;" d="M 533.127, 594.744 L 528.45, 593.205 L 532.002, 582.006 L 549.07, 575.262 z "/>
<path style="fill:rgb(124, 64, 237);fill-opacity:1.0;fill-rule:evenodd;stroke:rgb(0, 0, 0);stroke-width:3.0;" d="M 418.184, 578.896 L 397.702, 589.149 L 399.852, 576.899 L 403.318, 573.424 L 417.16, 568.272 z "/>
<path style="fill:rgb(255, 199, 16);fill-opacity:1.0;fill-rule:evenodd;stroke:rgb(0, 0, 0);stroke-width:3.0;" d="M 775.821, 297.869 L 766.067, 317.7 L 686.786, 337.304 L 702.469, 321.517 L 762.951, 286.221 z "/>
<path style="fill:rgb(12, 146, 255);fill-opacity:1.0;fill-rule:evenodd;stroke:rgb(0, 0, 0);stroke-width:3.0;" d="M 477.839, 264.953 L 472.366, 288.951 L 467.84, 286.952 L 463.344, 263.622 L 466.042, 259.752 z "/>
<path style="fill:rgb(105, 105, 240);fill-opacity:1.0;fill-rule:evenodd;stroke:rgb(0, 0, 0);stroke-width:3.0;" d="M 644.04, 544.548 L 645.204, 552.175 L 629.872, 544.525 L 629.708, 532.343 z "/>
<path style="fill:rgb(105, 105, 240);fill-opacity:1.0;fill-rule:evenodd;stroke:rgb(0, 0, 0);stroke-width:3.0;" d="M 449.983, 255.282 L 462.55, 259.108 L 435.655, 282.207 L 425.452, 268.733 L 423.613, 254.772 L 423.91, 252.987 z "/>
<path style="fill:rgb(105, 105, 240);fill-opacity:1.0;fill-rule:evenodd;stroke:rgb(0, 0, 0);stroke-width:3.0;" d="M 464.961, 302.295 L 461.9, 307.03 L 453.539, 305.824 L 442.967, 291.863 L 444.775, 291.733 z "/>
<path style="fill:rgb(105, 105, 240);fill-opacity:1.0;fill-rule:evenodd;stroke:rgb(0, 0, 0);stroke-width:3.0;" d="M 535.901, 522.318 L 530.256, 522.044 L 508.296, 501.644 L 549.24, 501.489 z "/>
<path style="fill:rgb(105, 105, 240);fill-opacity:1.0;fill-rule:evenodd;stroke:rgb(0, 0, 0);stroke-width:3.0;" d="M 485.583, 302.58 L 480.042, 312.098 L 466.841, 323.39 L 466.376, 322.776 L 468.684, 311.983 L 486.771, 283 z "/>
<path style="fill:rgb(105, 105, 240);fill-opacity:1.0;fill-rule:evenodd;stroke:rgb(0, 0, 0);stroke-width:3.0;" d="M 103.32, 303.723 L 86.6335, 275.683 L 89.839, 273.297 L 121.138, 270.136 z "/>
<path style="fill:rgb(105, 105, 240);fill-opacity:1.0;fill-rule:evenodd;stroke:rgb(0, 0, 0);stroke-width:3.0;" d="M 492.888, 271.587 L 493.277, 272.575 L 480.752, 292.646 L 484.31, 267.806 z "/>
<path style="fill:rgb(172, 243, 7);fill-opacity:1.0;fill-rule:evenodd;stroke:rgb(0, 0, 0);stroke-width:3.0;" d="M 528.862, 270.34 L 526.154, 272.657 L 447.317, 187.566 L 446.124, 153.884 z "/>
<path style="fill:rgb(255, 23, 194);fill-opacity:1.0;fill-rule:evenodd;stroke:rgb(0, 0, 0);stroke-width:3.0;" d="M 692.281, 542.196 L 668.221, 551.598 L 666.369, 546.344 L 666.44, 546.129 L 693.828, 536.726 z "/>
<path style="fill:rgb(255, 23, 194);fill-opacity:1.0;fill-rule:evenodd;stroke:rgb(0, 0, 0);stroke-width:3.0;" d="M 351.181, 77.6163 L 334.789, 74.7782 L 359.058, 66.5818 z "/>
<path style="fill:rgb(30, 252, 197);fill-opacity:1.0;fill-rule:evenodd;stroke:rgb(0, 0, 0);stroke-width:3.0;" d="M 480.747, 292.653 L 472.274, 306.23 L 464.608, 298.236 L 454.586, 281.1 z "/>
<path style="fill:rgb(25, 128, 255);fill-opacity:1.0;fill-rule:evenodd;stroke:rgb(0, 0, 0);stroke-width:3.0;" d="M 782.917, 338.788 L 779.014, 367.431 L 758.239, 332.305 z "/>
<path style="fill:rgb(25, 128, 255);fill-opacity:1.0;fill-rule:evenodd;stroke:rgb(0, 0, 0);stroke-width:3.0;" d="M 750.344, 422.114 L 688.329, 508.234 L 720.144, 410.203 z "/>
<path style="fill:rgb(226, 255, 17);fill-opacity:1.0;fill-rule:evenodd;stroke:rgb(0, 0, 0);stroke-width:3.0;" d="M 448.528, 339.054 L 403.189, 377.835 L 415.324, 304.719 L 433.844, 291.165 z "/>
<path style="fill:rgb(226, 255, 17);fill-opacity:1.0;fill-rule:evenodd;stroke:rgb(0, 0, 0);stroke-width:3.0;" d="M 596.983, 467.972 L 578.102, 501.43 L 551.103, 498.581 L 577.329, 457.63 z "/>
<path style="fill:rgb(27, 165, 217);fill-opacity:1.0;fill-rule:evenodd;stroke:rgb(0, 0, 0);stroke-width:3.0;" d="M 262.176, 539.918 L 256.902, 546.423 L 255.808, 546.392 L 254.846, 529.597 L 261.801, 525.598 z "/>
<path style="fill:rgb(27, 165, 217);fill-opacity:1.0;fill-rule:evenodd;stroke:rgb(0, 0, 0);stroke-width:3.0;" d="M 114.329, 314.382 L 96.4917, 316.594 L 121.138, 270.136 L 137.178, 268.517 z "/>
<path style="fill:rgb(102, 226, 246);fill-opacity:1.0;fill-rule:evenodd;stroke:rgb(0, 0, 0);stroke-width:3.0;" d="M 496.532, 527.385 L 482.769, 545.275 L 467.225, 520.641 z "/>
<path style="fill:rgb(102, 226, 246);fill-opacity:1.0;fill-rule:evenodd;stroke:rgb(0, 0, 0);stroke-width:3.0;" d="M 423.415, 73.7811 L 420.035, 80.029 L 417.443, 82.654 L 416.404, 83.1487 L 398.177, 81.9499 L 383.887, 75.6809 L 413.412, 71.5326 z "/>
<path style="fill:rgb(252, 255, 36);fill-opacity:1.0;fill-rule:evenodd;stroke:rgb(0, 0, 0);stroke-width:3.0;" d="M 362.782, 66.4218 L 371.429, 80.1906 L 363.395, 79.6622 L 354.771, 72.5875 L 359.058, 66.5818 L 361.368, 65.8017 z "/>
<path style="fill:rgb(231, 255, 9);fill-opacity:1.0;fill-rule:evenodd;stroke:rgb(0, 0, 0);stroke-width:3.0;" d="M 755.216, 284.934 L 709.099, 306.174 L 705.949, 260.92 L 730.898, 234.427 z "/>
<path style="fill:rgb(231, 255, 9);fill-opacity:1.0;fill-rule:evenodd;stroke:rgb(0, 0, 0);stroke-width:3.0;" d="M 472.067, 306.014 L 444.775, 291.733 L 457.499, 290.823 z "/>
<path style="fill:rgb(231, 255, 9);fill-opacity:1.0;fill-rule:evenodd;stroke:rgb(0, 0, 0);stroke-width:3.0;" d="M 208.846, 467.797 L 166.357, 485.873 L 179.941, 443.135 z "/>
<path style="fill:rgb(231, 255, 9);fill-opacity:1.0;fill-rule:evenodd;stroke:rgb(0, 0, 0);stroke-width:3.0;" d="M 636.891, 377.368 L 632.317, 486.566 L 577.329, 457.63 L 630.376, 374.798 z "/>
<path style="fill:rgb(231, 255, 9);fill-opacity:1.0;fill-rule:evenodd;stroke:rgb(0, 0, 0);stroke-width:3.0;" d="M 431.952, 204.529 L 430.405, 213.85 L 418.252, 245.902 L 417.645, 220.343 L 430.788, 203.457 z "/>
<path style="fill:rgb(231, 255, 9);fill-opacity:1.0;fill-rule:evenodd;stroke:rgb(0, 0, 0);stroke-width:3.0;" d="M 424.464, 249.648 L 418.31, 245.749 L 430.405, 213.85 z "/>
<path style="fill:rgb(231, 255, 9);fill-opacity:1.0;fill-rule:evenodd;stroke:rgb(0, 0, 0);stroke-width:3.0;" d="M 590.78, 502.768 L 592.238, 509.361 L 573.188, 522.318 L 540.645, 514.911 L 551.103, 498.581 z "/>
<path style="fill:rgb(231, 255, 9);fill-opacity:1.0;fill-rule:evenodd;stroke:rgb(0, 0, 0);stroke-width:3.0;" d="M 253.488, 505.886 L 256.002, 549.778 L 228.36, 508.537 L 235.949, 490.921 z "/>
<path style="fill:rgb(231, 255, 9);fill-opacity:1.0;fill-rule:evenodd;stroke:rgb(0, 0, 0);stroke-width:3.0;" d="M 330.59, 76.075 L 326.12, 77.7058 L 318.821, 80.1711 L 309.045, 62.6511 L 326.519, 58.4312 z "/>
<path style="fill:rgb(255, 255, 69);fill-opacity:1.0;fill-rule:evenodd;stroke:rgb(0, 0, 0);stroke-width:3.0;" d="M 734.653, 336.933 L 698.762, 334.342 L 740.428, 324.04 z "/>
<path style="fill:rgb(255, 255, 69);fill-opacity:1.0;fill-rule:evenodd;stroke:rgb(0, 0, 0);stroke-width:3.0;" d="M 729.284, 220.359 L 682.315, 293.699 L 680.693, 295.325 L 630.062, 271.181 L 714.428, 210.92 z "/>
<path style="fill:rgb(255, 255, 69);fill-opacity:1.0;fill-rule:evenodd;stroke:rgb(0, 0, 0);stroke-width:3.0;" d="M 343.417, 71.3955 L 330.59, 76.075 L 326.519, 58.4312 L 352.596, 52.1338 z "/>
<path style="fill:rgb(103, 255, 11);fill-opacity:1.0;fill-rule:evenodd;stroke:rgb(0, 0, 0);stroke-width:3.0;" d="M 356.12, 37.9846 L 319.719, 30.851 L 311.506, 24.2888 L 322.675, 6.53959 z "/>
<path style="fill:rgb(33, 177, 255);fill-opacity:1.0;fill-rule:evenodd;stroke:rgb(0, 0, 0);stroke-width:3.0;" d="M 709.099, 306.174 L 659.777, 328.89 L 697.692, 269.688 L 705.949, 260.92 z "/>
<path style="fill:rgb(255, 249, 33);fill-opacity:1.0;fill-rule:evenodd;stroke:rgb(0, 0, 0);stroke-width:3.0;" d="M 793.29, 310.968 L 769.39, 316.878 L 767.486, 314.815 L 774.326, 300.909 z "/>
<path style="fill:rgb(255, 249, 33);fill-opacity:1.0;fill-rule:evenodd;stroke:rgb(0, 0, 0);stroke-width:3.0;" d="M 644.446, 302.343 L 602.247, 327.597 L 536.62, 346.727 L 533.167, 285.222 z "/>
<path style="fill:rgb(8, 8, 237);fill-opacity:1.0;fill-rule:evenodd;stroke:rgb(0, 0, 0);stroke-width:3.0;" d="M 284.42, 211.673 L 245.007, 301.015 L 185.829, 340.832 L 227.047, 130.002 z "/>
<path style="fill:rgb(17, 255, 172);fill-opacity:1.0;fill-rule:evenodd;stroke:rgb(0, 0, 0);stroke-width:3.0;" d="M 443.612, 34.3325 L 442.547, 53.4822 L 442.081, 54.8307 L 436.097, 53.6582 L 439.584, 33.3726 z "/>
<path style="fill:rgb(17, 255, 172);fill-opacity:1.0;fill-rule:evenodd;stroke:rgb(0, 0, 0);stroke-width:3.0;" d="M 209.763, 380.904 L 173.426, 404.274 L 185.829, 340.832 L 245.007, 301.015 z "/>
<path style="fill:rgb(17, 255, 172);fill-opacity:1.0;fill-rule:evenodd;stroke:rgb(0, 0, 0);stroke-width:3.0;" d="M 395.141, 45.6318 L 371.097, 40.9197 L 404.088, 23.0127 z "/>
<path style="fill:rgb(17, 255, 172);fill-opacity:1.0;fill-rule:evenodd;stroke:rgb(0, 0, 0);stroke-width:3.0;" d="M 298.639, 547.589 L 298.548, 572.621 L 269.094, 582.368 L 257.608, 577.81 L 255.808, 546.392 z "/>
<path style="fill:rgb(17, 255, 172);fill-opacity:1.0;fill-rule:evenodd;stroke:rgb(0, 0, 0);stroke-width:3.0;" d="M 199.866, 269.035 L 192.905, 304.637 L 174.935, 306.866 L 134.424, 274.046 L 137.923, 267.023 z "/>
<path style="fill:rgb(17, 255, 172);fill-opacity:1.0;fill-rule:evenodd;stroke:rgb(0, 0, 0);stroke-width:3.0;" d="M 663.858, 518.224 L 666.912, 522.074 L 639.765, 527.031 L 633.866, 515.191 z "/>
<path style="fill:rgb(17, 255, 172);fill-opacity:1.0;fill-rule:evenodd;stroke:rgb(0, 0, 0);stroke-width:3.0;" d="M 754.016, 207.63 L 733.461, 223.25 L 730.62, 221.427 L 750.582, 201.642 z "/>
<path style="fill:rgb(17, 255, 172);fill-opacity:1.0;fill-rule:evenodd;stroke:rgb(0, 0, 0);stroke-width:3.0;" d="M 678.373, 558.821 L 684.188, 572.816 L 631.778, 586.766 L 652.749, 557.645 L 663.116, 553.593 z "/>
<path style="fill:rgb(103, 159, 255);fill-opacity:1.0;fill-rule:evenodd;stroke:rgb(0, 0, 0);stroke-width:3.0;" d="M 446.428, 313.126 L 449.552, 320.179 L 443.484, 322.602 L 433.258, 289.255 z "/>
<path style="fill:rgb(103, 159, 255);fill-opacity:1.0;fill-rule:evenodd;stroke:rgb(0, 0, 0);stroke-width:3.0;" d="M 426.064, 51.6919 L 428.523, 56.3128 L 409.77, 56.914 L 404.088, 53.0288 L 414.253, 49.3772 z "/>
<path style="fill:rgb(103, 159, 255);fill-opacity:1.0;fill-rule:evenodd;stroke:rgb(0, 0, 0);stroke-width:3.0;" d="M 307.207, 582.23 L 305.811, 586.299 L 274.837, 593.534 L 284.031, 577.425 L 298.798, 572.538 z "/>
<path style="fill:rgb(103, 159, 255);fill-opacity:1.0;fill-rule:evenodd;stroke:rgb(0, 0, 0);stroke-width:3.0;" d="M 487.974, 519.997 L 497.062, 526.696 L 496.532, 527.385 L 467.225, 520.641 L 466.152, 518.941 z "/>
<path style="fill:rgb(103, 159, 255);fill-opacity:1.0;fill-rule:evenodd;stroke:rgb(0, 0, 0);stroke-width:3.0;" d="M 560.645, 519.463 L 577.164, 529.703 L 532.207, 528.086 L 540.645, 514.911 z "/>
<path style="fill:rgb(255, 252, 25);fill-opacity:1.0;fill-rule:evenodd;stroke:rgb(0, 0, 0);stroke-width:3.0;" d="M 780.925, 273.093 L 773.413, 276.553 L 762.461, 261.309 L 772.096, 257.189 z "/>
<path style="fill:rgb(255, 252, 25);fill-opacity:1.0;fill-rule:evenodd;stroke:rgb(0, 0, 0);stroke-width:3.0;" d="M 532.488, 443.917 L 529.882, 446.53 L 421.801, 429.32 z "/>
<path style="fill:rgb(255, 252, 25);fill-opacity:1.0;fill-rule:evenodd;stroke:rgb(0, 0, 0);stroke-width:3.0;" d="M 740.799, 580.213 L 740.232, 583.236 L 728.972, 593.94 L 706.212, 593.172 L 706.844, 590.061 L 708.242, 586.899 L 728.333, 575.941 z "/>
<path style="fill:rgb(255, 252, 25);fill-opacity:1.0;fill-rule:evenodd;stroke:rgb(0, 0, 0);stroke-width:3.0;" d="M 728.333, 575.941 L 724.544, 578.008 L 705.071, 583.941 L 715.742, 572.446 L 717.142, 572.106 z "/>
<path style="fill:rgb(255, 252, 25);fill-opacity:1.0;fill-rule:evenodd;stroke:rgb(0, 0, 0);stroke-width:3.0;" d="M 610.984, 530.92 L 577.164, 529.703 L 560.645, 519.463 z "/>
<path style="fill:rgb(255, 24, 194);fill-opacity:1.0;fill-rule:evenodd;stroke:rgb(0, 0, 0);stroke-width:3.0;" d="M 384.573, 75.5845 L 383.887, 75.6809 L 361.368, 65.8017 L 374.139, 61.4886 z "/>
<path style="fill:rgb(228, 0, 35);fill-opacity:1.0;fill-rule:evenodd;stroke:rgb(0, 0, 0);stroke-width:3.0;" d="M 532.656, 276.117 L 532.995, 282.156 L 523.964, 290.116 L 520.74, 290.227 L 525.26, 275.217 z "/>
<path style="fill:rgb(228, 0, 35);fill-opacity:1.0;fill-rule:evenodd;stroke:rgb(0, 0, 0);stroke-width:3.0;" d="M 592.343, 526.678 L 573.188, 522.318 L 589.686, 511.097 z "/>
<path style="fill:rgb(228, 0, 35);fill-opacity:1.0;fill-rule:evenodd;stroke:rgb(0, 0, 0);stroke-width:3.0;" d="M 137.178, 268.517 L 121.381, 270.112 L 122.985, 263.617 L 142.157, 258.523 z "/>
<path style="fill:rgb(228, 0, 35);fill-opacity:1.0;fill-rule:evenodd;stroke:rgb(0, 0, 0);stroke-width:3.0;" d="M 358.557, 19.2388 L 340.741, 23.5253 L 338.528, 21.4441 L 355.674, 7.30528 z "/>
<path style="fill:rgb(228, 0, 35);fill-opacity:1.0;fill-rule:evenodd;stroke:rgb(0, 0, 0);stroke-width:3.0;" d="M 502.996, 292.464 L 480.042, 312.098 L 496.865, 283.198 z "/>
<path style="fill:rgb(228, 0, 35);fill-opacity:1.0;fill-rule:evenodd;stroke:rgb(0, 0, 0);stroke-width:3.0;" d="M 602.241, 408.782 L 585.101, 427.924 L 598.773, 400.05 z "/>
<path style="fill:rgb(228, 0, 35);fill-opacity:1.0;fill-rule:evenodd;stroke:rgb(0, 0, 0);stroke-width:3.0;" d="M 403.268, 64.2367 L 389.784, 74.8524 L 384.573, 75.5845 L 374.139, 61.4886 L 374.454, 61.3823 z "/>
<path style="fill:rgb(255, 107, 41);fill-opacity:1.0;fill-rule:evenodd;stroke:rgb(0, 0, 0);stroke-width:3.0;" d="M 652.731, 299.251 L 637.213, 301.23 L 533.167, 285.222 L 532.173, 267.508 L 535.006, 265.085 z "/>
<path style="fill:rgb(75, 223, 231);fill-opacity:1.0;fill-rule:evenodd;stroke:rgb(0, 0, 0);stroke-width:3.0;" d="M 377.475, 31.6947 L 364.776, 39.6809 L 356.12, 37.9846 L 347.33, 29.7206 L 382.795, 13.4069 L 386.56, 12.5012 z "/>
<path style="fill:rgb(75, 223, 231);fill-opacity:1.0;fill-rule:evenodd;stroke:rgb(0, 0, 0);stroke-width:3.0;" d="M 470.773, 247.94 L 426.831, 235.386 L 431.622, 206.518 z "/>
<path style="fill:rgb(184, 0, 114);fill-opacity:1.0;fill-rule:evenodd;stroke:rgb(0, 0, 0);stroke-width:3.0;" d="M 696.849, 554.967 L 723.636, 567.456 L 728.401, 575.211 L 727.832, 575.77 L 663.116, 553.593 L 668.22, 551.599 z "/>
<path style="fill:rgb(184, 0, 114);fill-opacity:1.0;fill-rule:evenodd;stroke:rgb(0, 0, 0);stroke-width:3.0;" d="M 467.459, 284.977 L 466.298, 286.272 L 459.663, 283.341 L 459.31, 261.89 L 462.485, 259.164 z "/>
<path style="fill:rgb(184, 0, 114);fill-opacity:1.0;fill-rule:evenodd;stroke:rgb(0, 0, 0);stroke-width:3.0;" d="M 466.841, 323.39 L 456.82, 331.962 L 452.155, 323.507 L 451.616, 303.284 z "/>
<path style="fill:rgb(226, 24, 9);fill-opacity:1.0;fill-rule:evenodd;stroke:rgb(0, 0, 0);stroke-width:3.0;" d="M 762.151, 338.918 L 783.842, 375.595 L 750.344, 422.114 L 686.683, 397.006 L 644.938, 352.061 L 648.293, 346.822 L 698.762, 334.342 z "/>
<path style="fill:rgb(226, 24, 9);fill-opacity:1.0;fill-rule:evenodd;stroke:rgb(0, 0, 0);stroke-width:3.0;" d="M 745.165, 544.064 L 728.391, 558.678 L 668.22, 551.599 L 701.758, 538.492 z "/>
<path style="fill:rgb(226, 24, 9);fill-opacity:1.0;fill-rule:evenodd;stroke:rgb(0, 0, 0);stroke-width:3.0;" d="M 356.796, 78.5886 L 359.773, 92.5466 L 357.881, 97.2204 L 345.406, 76.6165 z "/>
<path style="fill:rgb(255, 69, 31);fill-opacity:1.0;fill-rule:evenodd;stroke:rgb(0, 0, 0);stroke-width:3.0;" d="M 629.412, 510.301 L 629.698, 531.594 L 610.984, 530.92 L 594.323, 527.128 L 592.139, 503.085 z "/>
<path style="fill:rgb(255, 69, 31);fill-opacity:1.0;fill-rule:evenodd;stroke:rgb(0, 0, 0);stroke-width:3.0;" d="M 777.262, 327.916 L 768.182, 334.917 L 759.3, 332.583 L 763.561, 318.319 L 768.63, 317.066 z "/>
<path style="fill:rgb(255, 69, 31);fill-opacity:1.0;fill-rule:evenodd;stroke:rgb(0, 0, 0);stroke-width:3.0;" d="M 181.662, 444.603 L 167.846, 432.816 L 173.426, 404.274 L 209.763, 380.904 z "/>
<path style="fill:rgb(255, 207, 38);fill-opacity:1.0;fill-rule:evenodd;stroke:rgb(0, 0, 0);stroke-width:3.0;" d="M 714.428, 210.92 L 608.667, 286.463 L 535.006, 265.085 L 647.812, 168.596 z "/>
<path style="fill:rgb(255, 207, 38);fill-opacity:1.0;fill-rule:evenodd;stroke:rgb(0, 0, 0);stroke-width:3.0;" d="M 453.506, 561.216 L 426.346, 574.811 L 425.04, 573.395 L 432.768, 549.698 L 456.791, 547.315 z "/>
<path style="fill:rgb(255, 207, 38);fill-opacity:1.0;fill-rule:evenodd;stroke:rgb(0, 0, 0);stroke-width:3.0;" d="M 627.664, 379.034 L 624.171, 351.995 L 682.315, 293.699 z "/>
<path style="fill:rgb(255, 207, 38);fill-opacity:1.0;fill-rule:evenodd;stroke:rgb(0, 0, 0);stroke-width:3.0;" d="M 158.287, 298.937 L 146.907, 310.342 L 114.329, 314.382 L 131.609, 279.697 z "/>
<path style="fill:rgb(255, 207, 38);fill-opacity:1.0;fill-rule:evenodd;stroke:rgb(0, 0, 0);stroke-width:3.0;" d="M 227.035, 511.614 L 205.381, 561.878 L 155.055, 498.24 L 155.097, 498.026 z "/>
<path style="fill:rgb(243, 5, 24);fill-opacity:1.0;fill-rule:evenodd;stroke:rgb(0, 0, 0);stroke-width:3.0;" d="M 451.616, 303.284 L 451.783, 309.558 L 446.558, 313.361 L 433.258, 289.255 L 427.995, 272.092 z "/>
<path style="fill:rgb(226, 209, 33);fill-opacity:1.0;fill-rule:evenodd;stroke:rgb(0, 0, 0);stroke-width:3.0;" d="M 439.447, 34.1661 L 436.097, 53.6582 L 395.141, 45.6318 L 404.088, 23.0127 L 421.417, 13.6075 z "/>
<path style="fill:rgb(246, 23, 252);fill-opacity:1.0;fill-rule:evenodd;stroke:rgb(0, 0, 0);stroke-width:3.0;" d="M 756.768, 229.578 L 755.616, 247.522 L 751.603, 246.198 L 749.516, 243.292 L 751.603, 220.273 z "/>
<path style="fill:rgb(246, 23, 252);fill-opacity:1.0;fill-rule:evenodd;stroke:rgb(0, 0, 0);stroke-width:3.0;" d="M 356.629, 45.7099 L 356.323, 51.2338 L 341.313, 54.8585 L 347.265, 43.4583 z "/>
<path style="fill:rgb(240, 35, 92);fill-opacity:1.0;fill-rule:evenodd;stroke:rgb(0, 0, 0);stroke-width:3.0;" d="M 513.961, 291.959 L 531.017, 309.133 L 494.182, 300.004 L 504.978, 290.769 L 507.745, 290.674 z "/>
<path style="fill:rgb(240, 35, 92);fill-opacity:1.0;fill-rule:evenodd;stroke:rgb(0, 0, 0);stroke-width:3.0;" d="M 660.851, 501.58 L 651.633, 512.3 L 641.194, 510.83 L 629.352, 505.832 L 629.2, 494.5 L 642.167, 491.749 z "/>
<path style="fill:rgb(255, 17, 182);fill-opacity:1.0;fill-rule:evenodd;stroke:rgb(0, 0, 0);stroke-width:3.0;" d="M 496.511, 543.538 L 492.415, 560.562 L 482.769, 545.275 L 486.095, 540.952 z "/>
<path style="fill:rgb(255, 17, 182);fill-opacity:1.0;fill-rule:evenodd;stroke:rgb(0, 0, 0);stroke-width:3.0;" d="M 793.172, 141.414 L 791.211, 147.49 L 778.863, 149.75 L 784.88, 135.31 z "/>
<path style="fill:rgb(255, 17, 182);fill-opacity:1.0;fill-rule:evenodd;stroke:rgb(0, 0, 0);stroke-width:3.0;" d="M 377.493, 82.1722 L 379.054, 82.7756 L 384.639, 98.2826 L 383.311, 98.9149 L 358.201, 85.1781 L 356.796, 78.5886 z "/>
<path style="fill:rgb(108, 14, 255);fill-opacity:1.0;fill-rule:evenodd;stroke:rgb(0, 0, 0);stroke-width:3.0;" d="M 499.578, 278.538 L 485.583, 302.58 L 486.771, 283 L 493.195, 272.707 z "/>
<path style="fill:rgb(108, 14, 255);fill-opacity:1.0;fill-rule:evenodd;stroke:rgb(0, 0, 0);stroke-width:3.0;" d="M 396.112, 89.37 L 397.313, 92.2442 L 384.639, 98.2826 L 379.054, 82.7756 z "/>
<path style="fill:rgb(255, 177, 13);fill-opacity:1.0;fill-rule:evenodd;stroke:rgb(0, 0, 0);stroke-width:3.0;" d="M 686.683, 397.006 L 674.281, 392.114 L 657.801, 365.91 z "/>
<path style="fill:rgb(255, 35, 8);fill-opacity:1.0;fill-rule:evenodd;stroke:rgb(0, 0, 0);stroke-width:3.0;" d="M 199.866, 269.035 L 187.182, 268.623 L 214.418, 180.574 L 217.627, 178.185 z "/>
<path style="fill:rgb(217, 1, 255);fill-opacity:1.0;fill-rule:evenodd;stroke:rgb(0, 0, 0);stroke-width:3.0;" d="M 483.389, 546.258 L 458.447, 558.743 L 465.51, 546.451 L 482.451, 544.771 z "/>
<path style="fill:rgb(255, 70, 123);fill-opacity:1.0;fill-rule:evenodd;stroke:rgb(0, 0, 0);stroke-width:3.0;" d="M 347.33, 29.7206 L 340.741, 23.5253 L 382.795, 13.4069 z "/>
<path style="fill:rgb(51, 115, 255);fill-opacity:1.0;fill-rule:evenodd;stroke:rgb(0, 0, 0);stroke-width:3.0;" d="M 535.901, 522.318 L 518.772, 549.064 L 486.095, 540.952 L 501.704, 520.662 z "/>
<path style="fill:rgb(51, 115, 255);fill-opacity:1.0;fill-rule:evenodd;stroke:rgb(0, 0, 0);stroke-width:3.0;" d="M 762.151, 338.918 L 735.483, 336.993 L 753.475, 324.249 z "/>
<path style="fill:rgb(51, 115, 255);fill-opacity:1.0;fill-rule:evenodd;stroke:rgb(0, 0, 0);stroke-width:3.0;" d="M 422.703, 213.845 L 405.641, 235.767 L 386.66, 201.75 L 405.119, 194.661 z "/>
<path style="fill:rgb(51, 115, 255);fill-opacity:1.0;fill-rule:evenodd;stroke:rgb(0, 0, 0);stroke-width:3.0;" d="M 320.909, 59.786 L 309.045, 62.6511 L 300.462, 47.2698 L 311.313, 44.2271 z "/>
<path style="fill:rgb(51, 115, 255);fill-opacity:1.0;fill-rule:evenodd;stroke:rgb(0, 0, 0);stroke-width:3.0;" d="M 714.275, 519.178 L 696.72, 525.034 L 687.411, 516.867 L 690.622, 513.845 L 692.555, 513.541 z "/>
<path style="fill:rgb(51, 115, 255);fill-opacity:1.0;fill-rule:evenodd;stroke:rgb(0, 0, 0);stroke-width:3.0;" d="M 190.808, 256.9 L 145.179, 252.457 L 161.291, 220.116 L 214.418, 180.574 z "/>
<path style="fill:rgb(51, 115, 255);fill-opacity:1.0;fill-rule:evenodd;stroke:rgb(0, 0, 0);stroke-width:3.0;" d="M 310.855, 34.7031 L 315.754, 42.982 L 300.462, 47.2698 L 295.818, 38.9458 L 300.311, 32.1678 z "/>
<path style="fill:rgb(51, 115, 255);fill-opacity:1.0;fill-rule:evenodd;stroke:rgb(0, 0, 0);stroke-width:3.0;" d="M 458.934, 539.023 L 443.186, 546.655 L 441.761, 534.88 L 449.162, 527.46 L 462.491, 522.531 z "/>
<path style="fill:rgb(24, 255, 159);fill-opacity:1.0;fill-rule:evenodd;stroke:rgb(0, 0, 0);stroke-width:3.0;" d="M 520.74, 290.227 L 504.978, 290.769 L 525.989, 272.798 z "/>
<path style="fill:rgb(249, 55, 7);fill-opacity:1.0;fill-rule:evenodd;stroke:rgb(0, 0, 0);stroke-width:3.0;" d="M 616.719, 531.127 L 561.728, 562.404 L 591.075, 530.204 z "/>
<path style="fill:rgb(249, 55, 7);fill-opacity:1.0;fill-rule:evenodd;stroke:rgb(0, 0, 0);stroke-width:3.0;" d="M 382.21, 49.7821 L 384.311, 58.0533 L 381.39, 59.0398 L 356.439, 49.1367 L 356.461, 48.7454 L 369.963, 45.0665 z "/>
<path style="fill:rgb(255, 243, 17);fill-opacity:1.0;fill-rule:evenodd;stroke:rgb(0, 0, 0);stroke-width:3.0;" d="M 591.075, 530.204 L 550.538, 574.682 L 501.151, 594.197 L 490.217, 593.651 L 532.207, 528.086 z "/>
<path style="fill:rgb(252, 255, 146);fill-opacity:1.0;fill-rule:evenodd;stroke:rgb(0, 0, 0);stroke-width:3.0;" d="M 497.338, 501.686 L 474.784, 501.772 L 475.603, 500.95 L 505.699, 491.403 z "/>
<path style="fill:rgb(255, 148, 70);fill-opacity:1.0;fill-rule:evenodd;stroke:rgb(0, 0, 0);stroke-width:3.0;" d="M 177.137, 451.956 L 166.357, 485.873 L 156.667, 489.995 L 165.977, 442.375 z "/>
<path style="fill:rgb(110, 189, 217);fill-opacity:1.0;fill-rule:evenodd;stroke:rgb(0, 0, 0);stroke-width:3.0;" d="M 174.935, 306.866 L 170.111, 307.464 L 131.609, 279.697 L 134.424, 274.046 z "/>
<path style="fill:rgb(170, 255, 48);fill-opacity:1.0;fill-rule:evenodd;stroke:rgb(0, 0, 0);stroke-width:3.0;" d="M 81.8997, 308.067 L 84.4456, 318.088 L 40.8445, 323.496 L 36.1392, 313.265 L 63.7285, 292.731 z "/>
<path style="fill:rgb(170, 255, 48);fill-opacity:1.0;fill-rule:evenodd;stroke:rgb(0, 0, 0);stroke-width:3.0;" d="M 142.157, 258.523 L 109.586, 267.177 L 128.728, 254.763 L 145.441, 251.931 z "/>
<path style="fill:rgb(170, 255, 48);fill-opacity:1.0;fill-rule:evenodd;stroke:rgb(0, 0, 0);stroke-width:3.0;" d="M 156.25, 492.127 L 152.294, 512.366 L 131.409, 485.59 L 132.916, 467.565 z "/>
<path style="fill:rgb(255, 4, 11);fill-opacity:1.0;fill-rule:evenodd;stroke:rgb(0, 0, 0);stroke-width:3.0;" d="M 470.773, 247.94 L 493.293, 271.766 L 459.392, 256.82 L 463.113, 245.751 z "/>
<path style="fill:rgb(255, 226, 32);fill-opacity:1.0;fill-rule:evenodd;stroke:rgb(0, 0, 0);stroke-width:3.0;" d="M 379.404, 96.7774 L 380.864, 100.081 L 372.674, 103.983 L 362.348, 104.62 L 360.503, 95.9717 L 369.481, 91.3489 z "/>
<path style="fill:rgb(255, 226, 32);fill-opacity:1.0;fill-rule:evenodd;stroke:rgb(0, 0, 0);stroke-width:3.0;" d="M 288.155, 535.464 L 271.389, 546.828 L 262.351, 546.575 L 261.801, 525.598 L 270.636, 520.516 z "/>
<path style="fill:rgb(255, 1, 8);fill-opacity:1.0;fill-rule:evenodd;stroke:rgb(0, 0, 0);stroke-width:3.0;" d="M 282.786, 149.225 L 244.367, 154.657 L 227.047, 130.002 L 242.932, 48.7499 z "/>
<path style="fill:rgb(255, 1, 8);fill-opacity:1.0;fill-rule:evenodd;stroke:rgb(0, 0, 0);stroke-width:3.0;" d="M 598.773, 400.05 L 585.101, 427.924 L 532.424, 486.755 L 512.64, 487.118 L 501.907, 474.577 L 592.356, 383.892 z "/>
<path style="fill:rgb(255, 1, 8);fill-opacity:1.0;fill-rule:evenodd;stroke:rgb(0, 0, 0);stroke-width:3.0;" d="M 51.8556, 354.014 L 41.0266, 370.84 L 24.3934, 353.332 z "/>
<path style="fill:rgb(74, 3, 252);fill-opacity:1.0;fill-rule:evenodd;stroke:rgb(0, 0, 0);stroke-width:3.0;" d="M 359.05, 152.27 L 340.626, 119.251 L 348.16, 115.662 z "/>
<path style="fill:rgb(207, 243, 88);fill-opacity:1.0;fill-rule:evenodd;stroke:rgb(0, 0, 0);stroke-width:3.0;" d="M 448.782, 103.121 L 400.073, 196.599 L 386.66, 201.75 L 359.05, 152.27 L 348.16, 115.662 L 455.161, 64.6842 z "/>
<path style="fill:rgb(255, 223, 21);fill-opacity:1.0;fill-rule:evenodd;stroke:rgb(0, 0, 0);stroke-width:3.0;" d="M 691.738, 327.778 L 667.054, 342.183 L 655.055, 345.15 L 664.416, 326.754 L 695.804, 312.297 z "/>
<path style="fill:rgb(13, 3, 243);fill-opacity:1.0;fill-rule:evenodd;stroke:rgb(0, 0, 0);stroke-width:3.0;" d="M 717.142, 572.106 L 684.027, 580.133 L 680.734, 573.736 L 703.901, 567.569 z "/>
<path style="fill:rgb(13, 3, 243);fill-opacity:1.0;fill-rule:evenodd;stroke:rgb(0, 0, 0);stroke-width:3.0;" d="M 427.995, 272.092 L 433.844, 291.165 L 419.206, 301.877 L 417.064, 294.231 L 422.043, 264.232 z "/>
<path style="fill:rgb(255, 33, 102);fill-opacity:1.0;fill-rule:evenodd;stroke:rgb(0, 0, 0);stroke-width:3.0;" d="M 482.451, 544.771 L 460.75, 546.923 L 465.885, 521.276 L 467.297, 520.754 z "/>
<path style="fill:rgb(255, 11, 103);fill-opacity:1.0;fill-rule:evenodd;stroke:rgb(0, 0, 0);stroke-width:3.0;" d="M 604.68, 414.923 L 573.658, 463.362 L 582.53, 430.795 L 602.241, 408.782 z "/>
<path style="fill:rgb(252, 128, 58);fill-opacity:1.0;fill-rule:evenodd;stroke:rgb(0, 0, 0);stroke-width:3.0;" d="M 451.121, 242.325 L 447.441, 251.551 L 425.736, 241.982 L 426.831, 235.386 z "/>
<path style="fill:rgb(252, 128, 58);fill-opacity:1.0;fill-rule:evenodd;stroke:rgb(0, 0, 0);stroke-width:3.0;" d="M 573.658, 463.362 L 558.988, 486.268 L 532.424, 486.755 L 582.53, 430.795 z "/>
<path style="fill:rgb(30, 215, 108);fill-opacity:1.0;fill-rule:evenodd;stroke:rgb(0, 0, 0);stroke-width:3.0;" d="M 38.2704, 428.799 L 44.1633, 435.453 L 40.1446, 441.075 L 20.6322, 423.218 z "/>
<path style="fill:rgb(30, 215, 108);fill-opacity:1.0;fill-rule:evenodd;stroke:rgb(0, 0, 0);stroke-width:3.0;" d="M 769.221, 252.01 L 772.096, 257.189 L 762.461, 261.309 L 751.603, 246.198 z "/>
<path style="fill:rgb(243, 237, 6);fill-opacity:1.0;fill-rule:evenodd;stroke:rgb(0, 0, 0);stroke-width:3.0;" d="M 536.489, 344.383 L 541.566, 434.815 L 532.488, 443.917 L 421.801, 429.32 L 395.343, 425.107 L 403.189, 377.835 L 491.828, 302.018 z "/>
<path style="fill:rgb(199, 14, 10);fill-opacity:1.0;fill-rule:evenodd;stroke:rgb(0, 0, 0);stroke-width:3.0;" d="M 627.664, 379.034 L 604.68, 414.923 L 592.356, 383.892 L 624.171, 351.995 z "/>
<path style="fill:rgb(255, 252, 81);fill-opacity:1.0;fill-rule:evenodd;stroke:rgb(0, 0, 0);stroke-width:3.0;" d="M 351.181, 37.0168 L 351.524, 37.8095 L 349.709, 44.046 L 299.617, 32.0008 L 305.909, 28.1446 z "/>
<path style="fill:rgb(255, 252, 81);fill-opacity:1.0;fill-rule:evenodd;stroke:rgb(0, 0, 0);stroke-width:3.0;" d="M 337.531, 287.242 L 337.522, 287.265 L 244.367, 154.657 L 282.786, 149.225 z "/>
<path style="fill:rgb(255, 152, 33);fill-opacity:1.0;fill-rule:evenodd;stroke:rgb(0, 0, 0);stroke-width:3.0;" d="M 271.742, 459.532 L 268.375, 458.736 L 278.877, 436.172 L 284.213, 434.974 z "/>
<path style="fill:rgb(255, 152, 33);fill-opacity:1.0;fill-rule:evenodd;stroke:rgb(0, 0, 0);stroke-width:3.0;" d="M 669.802, 306.244 L 667.467, 308.585 L 650.673, 313.48 L 641.92, 303.855 L 644.446, 302.343 z "/>
<path style="fill:rgb(30, 58, 228);fill-opacity:1.0;fill-rule:evenodd;stroke:rgb(0, 0, 0);stroke-width:3.0;" d="M 140.146, 238.177 L 121.371, 259.534 L 109.586, 267.177 L 91.6627, 271.94 L 139.201, 236.557 z "/>
<path style="fill:rgb(255, 35, 10);fill-opacity:1.0;fill-rule:evenodd;stroke:rgb(0, 0, 0);stroke-width:3.0;" d="M 684.027, 580.133 L 663.423, 585.127 L 653.063, 581.101 L 680.734, 573.736 z "/>
<path style="fill:rgb(204, 255, 43);fill-opacity:1.0;fill-rule:evenodd;stroke:rgb(0, 0, 0);stroke-width:3.0;" d="M 111.819, 452.069 L 132.517, 472.333 L 131.409, 485.59 L 103.117, 449.316 z "/>
<path style="fill:rgb(157, 114, 215);fill-opacity:1.0;fill-rule:evenodd;stroke:rgb(0, 0, 0);stroke-width:3.0;" d="M 629.07, 484.857 L 629.304, 502.243 L 601.259, 501.36 L 595.846, 469.988 L 596.983, 467.972 z "/>
<path style="fill:rgb(255, 13, 226);fill-opacity:1.0;fill-rule:evenodd;stroke:rgb(0, 0, 0);stroke-width:3.0;" d="M 769.221, 252.01 L 755.616, 247.522 L 756.768, 229.578 z "/>
<path style="fill:rgb(97, 161, 255);fill-opacity:1.0;fill-rule:evenodd;stroke:rgb(0, 0, 0);stroke-width:3.0;" d="M 752.406, 322.441 L 753.475, 324.249 L 735.483, 336.993 L 734.653, 336.933 L 740.428, 324.04 L 751.211, 321.373 z "/>
<path style="fill:rgb(97, 161, 255);fill-opacity:1.0;fill-rule:evenodd;stroke:rgb(0, 0, 0);stroke-width:3.0;" d="M 720.144, 410.203 L 688.329, 508.234 L 684.253, 513.895 L 632.317, 486.566 L 636.891, 377.368 z "/>
<path style="fill:rgb(255, 56, 33);fill-opacity:1.0;fill-rule:evenodd;stroke:rgb(0, 0, 0);stroke-width:3.0;" d="M 342.761, 99.1572 L 334.588, 103.275 L 322.786, 87.2785 L 320.208, 82.6579 z "/>
<path style="fill:rgb(255, 27, 199);fill-opacity:1.0;fill-rule:evenodd;stroke:rgb(0, 0, 0);stroke-width:3.0;" d="M 309.452, 553.634 L 312.909, 567.868 L 300.469, 571.985 L 306.851, 551.415 z "/>
<path style="fill:rgb(217, 97, 17);fill-opacity:1.0;fill-rule:evenodd;stroke:rgb(0, 0, 0);stroke-width:3.0;" d="M 432.494, 201.265 L 422.703, 213.845 L 405.119, 194.661 L 435.528, 182.983 z "/>
<path style="fill:rgb(255, 100, 16);fill-opacity:1.0;fill-rule:evenodd;stroke:rgb(0, 0, 0);stroke-width:3.0;" d="M 660.106, 513.493 L 663.858, 518.224 L 635.073, 515.313 L 644.866, 511.347 z "/>
<path style="fill:rgb(255, 67, 209);fill-opacity:1.0;fill-rule:evenodd;stroke:rgb(0, 0, 0);stroke-width:3.0;" d="M 680.693, 295.325 L 671.379, 304.663 L 608.667, 286.463 L 630.062, 271.181 z "/>
<path style="fill:rgb(130, 7, 255);fill-opacity:1.0;fill-rule:evenodd;stroke:rgb(0, 0, 0);stroke-width:3.0;" d="M 770.609, 547.33 L 776.545, 564.344 L 728.391, 558.678 L 745.165, 544.064 z "/>
<path style="fill:rgb(255, 11, 8);fill-opacity:1.0;fill-rule:evenodd;stroke:rgb(0, 0, 0);stroke-width:3.0;" d="M 721.358, 309.979 L 721.017, 310.692 L 713.423, 315.124 L 707.892, 307.89 L 708.455, 306.471 L 723.527, 299.529 z "/>
<path style="fill:rgb(220, 0, 40);fill-opacity:1.0;fill-rule:evenodd;stroke:rgb(0, 0, 0);stroke-width:3.0;" d="M 751.603, 220.273 L 749.516, 243.292 L 737.846, 227.05 L 748.868, 215.346 z "/>
<path style="fill:rgb(255, 237, 62);fill-opacity:1.0;fill-rule:evenodd;stroke:rgb(0, 0, 0);stroke-width:3.0;" d="M 347.265, 43.4583 L 341.313, 54.8585 L 320.909, 59.786 L 311.313, 44.2271 L 329.387, 39.1593 z "/>
<path style="fill:rgb(234, 7, 75);fill-opacity:1.0;fill-rule:evenodd;stroke:rgb(0, 0, 0);stroke-width:3.0;" d="M 534.559, 310.011 L 535.041, 318.593 L 517.59, 326.456 L 495.014, 305.041 L 507.453, 303.293 z "/>
<path style="fill:rgb(249, 43, 57);fill-opacity:1.0;fill-rule:evenodd;stroke:rgb(0, 0, 0);stroke-width:3.0;" d="M 765.357, 280.263 L 755.216, 284.934 L 730.898, 234.427 L 733.168, 232.018 z "/>
<path style="fill:rgb(255, 142, 12);fill-opacity:1.0;fill-rule:evenodd;stroke:rgb(0, 0, 0);stroke-width:3.0;" d="M 765.318, 265.286 L 765.669, 280.119 L 765.357, 280.263 L 733.168, 232.018 L 737.846, 227.05 z "/>
<path style="fill:rgb(255, 24, 115);fill-opacity:1.0;fill-rule:evenodd;stroke:rgb(0, 0, 0);stroke-width:3.0;" d="M 550.731, 498.088 L 509.678, 501.05 L 518.822, 487.005 L 535.481, 486.699 z "/>
<path style="fill:rgb(255, 255, 57);fill-opacity:1.0;fill-rule:evenodd;stroke:rgb(0, 0, 0);stroke-width:3.0;" d="M 551.452, 498.035 L 550.731, 498.088 L 535.481, 486.699 L 558.988, 486.268 z "/>
<path style="fill:rgb(255, 56, 51);fill-opacity:1.0;fill-rule:evenodd;stroke:rgb(0, 0, 0);stroke-width:3.0;" d="M 714.275, 519.178 L 692.555, 513.541 L 765.568, 502.069 z "/>
<path style="fill:rgb(246, 255, 17);fill-opacity:1.0;fill-rule:evenodd;stroke:rgb(0, 0, 0);stroke-width:3.0;" d="M 418.026, 236.379 L 411.91, 241.209 L 407.343, 233.579 L 417.645, 220.343 z "/>
<path style="fill:rgb(43, 72, 255);fill-opacity:1.0;fill-rule:evenodd;stroke:rgb(0, 0, 0);stroke-width:3.0;" d="M 512.079, 547.402 L 507.466, 566.718 L 501.841, 575.501 L 497.276, 568.266 L 499.687, 544.326 z "/>
<path style="fill:rgb(255, 5, 7);fill-opacity:1.0;fill-rule:evenodd;stroke:rgb(0, 0, 0);stroke-width:3.0;" d="M 666.596, 178.055 L 649.904, 169.925 L 647.812, 168.596 L 662.127, 156.352 z "/>
<path style="fill:rgb(220, 3, 9);fill-opacity:1.0;fill-rule:evenodd;stroke:rgb(0, 0, 0);stroke-width:3.0;" d="M 170.111, 307.464 L 146.907, 310.342 L 158.287, 298.937 z "/>
<path style="fill:rgb(85, 220, 255);fill-opacity:1.0;fill-rule:evenodd;stroke:rgb(0, 0, 0);stroke-width:3.0;" d="M 190.808, 256.9 L 187.182, 268.623 L 137.923, 267.023 L 145.179, 252.457 z "/>
<path style="fill:rgb(32, 1, 197);fill-opacity:1.0;fill-rule:evenodd;stroke:rgb(0, 0, 0);stroke-width:3.0;" d="M 467.116, 208.935 L 497.421, 241.645 L 514.663, 281.188 L 493.293, 271.766 L 431.622, 206.518 L 433.52, 195.081 z "/>
<path style="fill:rgb(255, 148, 255);fill-opacity:1.0;fill-rule:evenodd;stroke:rgb(0, 0, 0);stroke-width:3.0;" d="M 629.698, 531.594 L 629.856, 543.34 L 550.538, 574.682 L 561.728, 562.404 L 616.719, 531.127 z "/>
<path style="fill:rgb(255, 148, 255);fill-opacity:1.0;fill-rule:evenodd;stroke:rgb(0, 0, 0);stroke-width:3.0;" d="M 657.801, 365.91 L 674.281, 392.114 L 635.039, 376.637 L 638.532, 362.064 L 644.938, 352.061 z "/>
<path style="fill:rgb(189, 246, 199);fill-opacity:1.0;fill-rule:evenodd;stroke:rgb(0, 0, 0);stroke-width:3.0;" d="M 151.547, 239.674 L 146.697, 249.41 L 139.77, 237.533 L 149.577, 229.609 z "/>
<path style="fill:rgb(91, 14, 255);fill-opacity:1.0;fill-rule:evenodd;stroke:rgb(0, 0, 0);stroke-width:3.0;" d="M 256.002, 549.778 L 257.055, 568.157 L 254.183, 570.741 L 220.742, 526.221 L 228.36, 508.537 z "/>
<path style="fill:rgb(255, 108, 6);fill-opacity:1.0;fill-rule:evenodd;stroke:rgb(0, 0, 0);stroke-width:3.0;" d="M 435.528, 182.983 L 400.073, 196.599 L 408.471, 180.482 L 436.812, 175.248 z "/>
<path style="fill:rgb(255, 103, 11);fill-opacity:1.0;fill-rule:evenodd;stroke:rgb(0, 0, 0);stroke-width:3.0;" d="M 103.32, 303.723 L 96.4917, 316.594 L 92.5786, 317.08 L 63.7285, 292.731 L 86.6335, 275.683 z "/>
<path style="fill:rgb(255, 103, 11);fill-opacity:1.0;fill-rule:evenodd;stroke:rgb(0, 0, 0);stroke-width:3.0;" d="M 436.812, 175.248 L 408.471, 180.482 L 416.217, 165.617 L 439.254, 160.53 z "/>
<path style="fill:rgb(44, 123, 220);fill-opacity:1.0;fill-rule:evenodd;stroke:rgb(0, 0, 0);stroke-width:3.0;" d="M 534.154, 302.799 L 534.559, 310.011 L 531.017, 309.133 L 512.521, 290.51 L 527.994, 289.977 z "/>
<path style="fill:rgb(255, 255, 57);fill-opacity:1.0;fill-rule:evenodd;stroke:rgb(0, 0, 0);stroke-width:3.0;" d="M 593.612, 487.529 L 593.752, 503.081 L 578.102, 501.43 L 589.453, 481.315 z "/>
</svg>