<?xml version="1.0" encoding="iso-8859-1" standalone="no"?>
<!DOCTYPE svg PUBLIC "-//W3C//DTD SVG 1.0//EN" "http://www.w3.org/TR/2001/REC-SVG-20010904/DTD/svg10.dtd">
<svg xmlns="http://www.w3.org/2000/svg" width="800" height="600">
<path style="fill:rgb(0, 0, 0);fill-opacity:0.0;fill-rule:evenodd;stroke:rgb(0, 0, 0);stroke-width:0.0;" d="M 0, 600 L 800, 600 L 800, 0 L 0, 0 z "/>
<path style="fill:rgb(252, 24, 194);fill-opacity:1.0;fill-rule:evenodd;stroke:rgb(0, 0, 0);stroke-width:3.0;" d="M 680.812, 376.523 L 596.014, 338.527 L 587.401, 331.398 L 647.381, 325.765 z "/>
<path style="fill:rgb(252, 24, 194);fill-opacity:1.0;fill-rule:evenodd;stroke:rgb(0, 0, 0);stroke-width:3.0;" d="M 766.898, 322.108 L 754.069, 331.502 L 717.127, 326.242 L 766.217, 314.801 z "/>
<path style="fill:rgb(252, 24, 194);fill-opacity:1.0;fill-rule:evenodd;stroke:rgb(0, 0, 0);stroke-width:3.0;" d="M 366.015, 182.205 L 347.414, 202.667 L 342.451, 200.54 L 360.94, 181.078 z "/>
<path style="fill:rgb(252, 24, 194);fill-opacity:1.0;fill-rule:evenodd;stroke:rgb(0, 0, 0);stroke-width:3.0;" d="M 187.72, 202.815 L 187.792, 221.935 L 161.002, 194.335 L 174.092, 184.809 z "/>
<path style="fill:rgb(255, 22, 165);fill-opacity:1.0;fill-rule:evenodd;stroke:rgb(0, 0, 0);stroke-width:3.0;" d="M 280.868, 257.276 L 246.359, 248.786 L 247.28, 247.227 L 269.349, 247.048 z "/>
<path style="fill:rgb(255, 22, 165);fill-opacity:1.0;fill-rule:evenodd;stroke:rgb(0, 0, 0);stroke-width:3.0;" d="M 457.265, 232.463 L 436.943, 287.638 L 420.466, 291.619 L 313.469, 265.297 L 316.721, 229.232 z "/>
<path style="fill:rgb(175, 0, 20);fill-opacity:1.0;fill-rule:evenodd;stroke:rgb(0, 0, 0);stroke-width:3.0;" d="M 653.388, 204.432 L 654.673, 207.53 L 647.763, 236.794 L 645.904, 239.864 L 630.853, 194.589 z "/>
<path style="fill:rgb(175, 0, 20);fill-opacity:1.0;fill-rule:evenodd;stroke:rgb(0, 0, 0);stroke-width:3.0;" d="M 143.623, 223.512 L 140.222, 260.058 L 40.3199, 242.361 L 35.4065, 196.889 z "/>
<path style="fill:rgb(152, 0, 17);fill-opacity:1.0;fill-rule:evenodd;stroke:rgb(0, 0, 0);stroke-width:3.0;" d="M 36.1334, 203.616 L 37.9856, 220.758 L 31.7996, 223.148 L 16.0343, 226.888 L 22.7528, 201.048 z "/>
<path style="fill:rgb(152, 0, 17);fill-opacity:1.0;fill-rule:evenodd;stroke:rgb(0, 0, 0);stroke-width:3.0;" d="M 336.935, 148.692 L 145.821, 99.0822 L 112.277, 59.3554 L 150.547, 46.3379 z "/>
<path style="fill:rgb(152, 0, 17);fill-opacity:1.0;fill-rule:evenodd;stroke:rgb(0, 0, 0);stroke-width:3.0;" d="M 261.292, 21.5916 L 256.827, 26.0146 L 251.461, 24.4055 L 249.589, 21.3598 L 247.953, 9.51438 L 252.044, 7.69812 z "/>
<path style="fill:rgb(152, 0, 17);fill-opacity:1.0;fill-rule:evenodd;stroke:rgb(0, 0, 0);stroke-width:3.0;" d="M 331.44, 206.819 L 320.225, 219.126 L 318.12, 213.715 L 319.26, 201.074 z "/>
<path style="fill:rgb(152, 0, 17);fill-opacity:1.0;fill-rule:evenodd;stroke:rgb(0, 0, 0);stroke-width:3.0;" d="M 87.6292, 194.751 L 87.0741, 209.6 L 83.559, 208.735 L 73.2884, 193.25 L 81.7602, 183.919 z "/>
<path style="fill:rgb(255, 8, 16);fill-opacity:1.0;fill-rule:evenodd;stroke:rgb(0, 0, 0);stroke-width:3.0;" d="M 680.812, 376.523 L 722.137, 439.267 L 597.083, 548.785 L 288.234, 323.569 L 466.504, 280.496 z "/>
<path style="fill:rgb(255, 3, 249);fill-opacity:1.0;fill-rule:evenodd;stroke:rgb(0, 0, 0);stroke-width:3.0;" d="M 300.946, 392.069 L 280.353, 384.753 L 278.671, 377.128 L 290.392, 372.739 z "/>
<path style="fill:rgb(237, 249, 7);fill-opacity:1.0;fill-rule:evenodd;stroke:rgb(0, 0, 0);stroke-width:3.0;" d="M 297.372, 495.041 L 296.377, 496.482 L 277.374, 513.186 L 273.314, 494.01 L 286.933, 485.866 z "/>
<path style="fill:rgb(237, 249, 7);fill-opacity:1.0;fill-rule:evenodd;stroke:rgb(0, 0, 0);stroke-width:3.0;" d="M 705.065, 329.053 L 688.792, 332.846 L 676.351, 311.005 L 690.486, 293.894 z "/>
<path style="fill:rgb(255, 255, 30);fill-opacity:1.0;fill-rule:evenodd;stroke:rgb(0, 0, 0);stroke-width:3.0;" d="M 693.325, 221.877 L 699.557, 229.208 L 694.338, 234.136 L 663.937, 209.04 z "/>
<path style="fill:rgb(199, 20, 11);fill-opacity:1.0;fill-rule:evenodd;stroke:rgb(0, 0, 0);stroke-width:3.0;" d="M 355.834, 22.3697 L 338.212, 30.2116 L 329.217, 28.821 L 348.311, 20.1475 z "/>
<path style="fill:rgb(199, 20, 11);fill-opacity:1.0;fill-rule:evenodd;stroke:rgb(0, 0, 0);stroke-width:3.0;" d="M 755.166, 317.377 L 721.902, 325.129 L 752.037, 311.53 z "/>
<path style="fill:rgb(199, 20, 11);fill-opacity:1.0;fill-rule:evenodd;stroke:rgb(0, 0, 0);stroke-width:3.0;" d="M 33.4413, 123.443 L 32.0622, 139.169 L 25.8708, 143.744 L 12.8962, 145.718 L 22.4123, 121.107 z "/>
<path style="fill:rgb(199, 20, 11);fill-opacity:1.0;fill-rule:evenodd;stroke:rgb(0, 0, 0);stroke-width:3.0;" d="M 722.293, 257.213 L 718.561, 264.429 L 698.926, 271.957 L 718.639, 254.196 z "/>
<path style="fill:rgb(170, 237, 42);fill-opacity:1.0;fill-rule:evenodd;stroke:rgb(0, 0, 0);stroke-width:3.0;" d="M 366.72, 34.6186 L 387.707, 39.8427 L 327.154, 32.6405 L 336.28, 29.913 z "/>
<path style="fill:rgb(170, 237, 42);fill-opacity:1.0;fill-rule:evenodd;stroke:rgb(0, 0, 0);stroke-width:3.0;" d="M 718.639, 254.196 L 703.338, 267.982 L 699.575, 257.087 L 704.585, 242.595 z "/>
<path style="fill:rgb(170, 237, 42);fill-opacity:1.0;fill-rule:evenodd;stroke:rgb(0, 0, 0);stroke-width:3.0;" d="M 126.367, 157.615 L 154.88, 173.727 L 158.882, 179.54 L 156.021, 189.203 L 125.249, 157.5 z "/>
<path style="fill:rgb(170, 237, 42);fill-opacity:1.0;fill-rule:evenodd;stroke:rgb(0, 0, 0);stroke-width:3.0;" d="M 615.482, 160.54 L 608.424, 173.449 L 596.527, 159.052 z "/>
<path style="fill:rgb(170, 237, 42);fill-opacity:1.0;fill-rule:evenodd;stroke:rgb(0, 0, 0);stroke-width:3.0;" d="M 247.738, 373.166 L 263.638, 386.164 L 251.621, 391.534 L 247.731, 373.164 z "/>
<path style="fill:rgb(60, 231, 255);fill-opacity:1.0;fill-rule:evenodd;stroke:rgb(0, 0, 0);stroke-width:3.0;" d="M 687.436, 368.054 L 691.85, 370.581 L 689.265, 378.297 L 678.988, 373.753 L 674.403, 366.792 z "/>
<path style="fill:rgb(255, 136, 255);fill-opacity:1.0;fill-rule:evenodd;stroke:rgb(0, 0, 0);stroke-width:3.0;" d="M 382.185, 30.1541 L 397.584, 39.3897 L 338.212, 30.2116 L 355.834, 22.3697 z "/>
<path style="fill:rgb(255, 136, 255);fill-opacity:1.0;fill-rule:evenodd;stroke:rgb(0, 0, 0);stroke-width:3.0;" d="M 15.2656, 139.59 L 8.45457, 125.154 L 21.8234, 122.63 z "/>
<path style="fill:rgb(255, 136, 255);fill-opacity:1.0;fill-rule:evenodd;stroke:rgb(0, 0, 0);stroke-width:3.0;" d="M 34.7398, 108.637 L 33.8834, 118.403 L 30.0898, 122.734 L 22.4123, 121.107 L 27.8277, 107.102 z "/>
<path style="fill:rgb(255, 136, 255);fill-opacity:1.0;fill-rule:evenodd;stroke:rgb(0, 0, 0);stroke-width:3.0;" d="M 406.045, 527.125 L 314.295, 532.346 L 349.626, 457.692 z "/>
<path style="fill:rgb(14, 154, 246);fill-opacity:1.0;fill-rule:evenodd;stroke:rgb(0, 0, 0);stroke-width:3.0;" d="M 273.253, 352.582 L 280.353, 384.753 L 247.731, 373.164 L 242.837, 350.042 z "/>
<path style="fill:rgb(10, 209, 255);fill-opacity:1.0;fill-rule:evenodd;stroke:rgb(0, 0, 0);stroke-width:3.0;" d="M 377.289, 302.052 L 290.017, 323.139 L 274.599, 322.884 L 299.473, 288.268 z "/>
<path style="fill:rgb(255, 8, 128);fill-opacity:1.0;fill-rule:evenodd;stroke:rgb(0, 0, 0);stroke-width:3.0;" d="M 647.983, 585.902 L 597.083, 548.785 L 657.231, 496.11 z "/>
<path style="fill:rgb(255, 8, 128);fill-opacity:1.0;fill-rule:evenodd;stroke:rgb(0, 0, 0);stroke-width:3.0;" d="M 615.352, 152.986 L 617.475, 158.141 L 582.279, 135.296 L 590.488, 129.386 z "/>
<path style="fill:rgb(255, 8, 128);fill-opacity:1.0;fill-rule:evenodd;stroke:rgb(0, 0, 0);stroke-width:3.0;" d="M 121.713, 127.952 L 118.5, 140.756 L 110.444, 142.248 L 107.454, 139.168 L 106.752, 136.539 L 120.428, 127.666 z "/>
<path style="fill:rgb(255, 8, 128);fill-opacity:1.0;fill-rule:evenodd;stroke:rgb(0, 0, 0);stroke-width:3.0;" d="M 431.392, 97.6788 L 470.57, 114.589 L 449.576, 115.406 L 417.074, 101.209 L 424.267, 95.7969 z "/>
<path style="fill:rgb(255, 255, 74);fill-opacity:1.0;fill-rule:evenodd;stroke:rgb(0, 0, 0);stroke-width:3.0;" d="M 377.454, 281.038 L 221.569, 274.468 L 171.189, 265.544 L 161.213, 227.839 z "/>
<path style="fill:rgb(255, 255, 74);fill-opacity:1.0;fill-rule:evenodd;stroke:rgb(0, 0, 0);stroke-width:3.0;" d="M 46.3953, 193.84 L 38.4533, 197.638 L 31.8972, 196.025 L 28.3659, 181.316 L 29.3611, 169.968 L 43.9183, 166.079 z "/>
<path style="fill:rgb(152, 202, 184);fill-opacity:1.0;fill-rule:evenodd;stroke:rgb(0, 0, 0);stroke-width:3.0;" d="M 167.078, 250.006 L 171.189, 265.544 L 140.222, 260.058 L 143.209, 227.968 z "/>
<path style="fill:rgb(97, 226, 255);fill-opacity:1.0;fill-rule:evenodd;stroke:rgb(0, 0, 0);stroke-width:3.0;" d="M 773.645, 531.927 L 761.777, 537.003 L 745.627, 507.217 L 716.48, 449.239 z "/>
<path style="fill:rgb(97, 226, 255);fill-opacity:1.0;fill-rule:evenodd;stroke:rgb(0, 0, 0);stroke-width:3.0;" d="M 382.185, 30.1541 L 348.311, 20.1475 L 358.092, 15.7049 z "/>
<path style="fill:rgb(28, 10, 246);fill-opacity:1.0;fill-rule:evenodd;stroke:rgb(0, 0, 0);stroke-width:3.0;" d="M 457.813, 447.228 L 420.858, 545.354 L 349.626, 457.692 L 381.064, 391.262 z "/>
<path style="fill:rgb(28, 10, 246);fill-opacity:1.0;fill-rule:evenodd;stroke:rgb(0, 0, 0);stroke-width:3.0;" d="M 48.987, 131.264 L 54.356, 151.961 L 51, 158.031 L 43.6703, 163.299 L 39.3578, 114.967 z "/>
<path style="fill:rgb(255, 228, 14);fill-opacity:1.0;fill-rule:evenodd;stroke:rgb(0, 0, 0);stroke-width:3.0;" d="M 460.969, 87.2334 L 444.582, 98.3148 L 316.71, 57.3695 L 300.736, 50.392 L 304.305, 40.2525 z "/>
<path style="fill:rgb(255, 228, 14);fill-opacity:1.0;fill-rule:evenodd;stroke:rgb(0, 0, 0);stroke-width:3.0;" d="M 752.468, 247.711 L 753.185, 251.154 L 735.579, 257.904 L 735.828, 251.89 L 747.46, 245.524 z "/>
<path style="fill:rgb(115, 17, 255);fill-opacity:1.0;fill-rule:evenodd;stroke:rgb(0, 0, 0);stroke-width:3.0;" d="M 416.324, 193.378 L 398.022, 217.63 L 373.122, 186.5 L 375.21, 184.247 z "/>
<path style="fill:rgb(237, 9, 81);fill-opacity:1.0;fill-rule:evenodd;stroke:rgb(0, 0, 0);stroke-width:3.0;" d="M 695.755, 235.306 L 666.319, 235.615 L 661.706, 224.49 L 673.818, 217.196 z "/>
<path style="fill:rgb(237, 9, 81);fill-opacity:1.0;fill-rule:evenodd;stroke:rgb(0, 0, 0);stroke-width:3.0;" d="M 436.667, 564.809 L 415.272, 571.146 L 410.876, 533.069 z "/>
<path style="fill:rgb(76, 182, 226);fill-opacity:1.0;fill-rule:evenodd;stroke:rgb(0, 0, 0);stroke-width:3.0;" d="M 685.987, 154.713 L 687.594, 167.888 L 644.794, 182.49 L 652.534, 161.202 L 660.557, 147.087 z "/>
<path style="fill:rgb(76, 182, 226);fill-opacity:1.0;fill-rule:evenodd;stroke:rgb(0, 0, 0);stroke-width:3.0;" d="M 293.546, 512.36 L 286.191, 529.795 L 284.441, 507.128 L 290.384, 505.323 z "/>
<path style="fill:rgb(76, 182, 226);fill-opacity:1.0;fill-rule:evenodd;stroke:rgb(0, 0, 0);stroke-width:3.0;" d="M 747.46, 245.524 L 724.234, 258.236 L 718.137, 251.064 L 728.697, 237.328 z "/>
<path style="fill:rgb(255, 246, 81);fill-opacity:1.0;fill-rule:evenodd;stroke:rgb(0, 0, 0);stroke-width:3.0;" d="M 567.104, 314.6 L 560.666, 322.688 L 552.924, 319.219 L 556.08, 305.476 z "/>
<path style="fill:rgb(246, 255, 29);fill-opacity:1.0;fill-rule:evenodd;stroke:rgb(0, 0, 0);stroke-width:3.0;" d="M 326.887, 505.739 L 291.588, 580.326 L 290.956, 577.343 L 297.809, 495.224 L 311.81, 482.916 z "/>
<path style="fill:rgb(150, 255, 255);fill-opacity:1.0;fill-rule:evenodd;stroke:rgb(0, 0, 0);stroke-width:3.0;" d="M 699.293, 347.679 L 692.991, 371.234 L 690.899, 370.037 L 688.901, 355.376 L 699, 347.518 z "/>
<path style="fill:rgb(255, 255, 27);fill-opacity:1.0;fill-rule:evenodd;stroke:rgb(0, 0, 0);stroke-width:3.0;" d="M 262.33, 343.196 L 255.454, 342.964 L 251.402, 337.351 L 256.238, 331.3 L 261.487, 330.032 z "/>
<path style="fill:rgb(255, 255, 27);fill-opacity:1.0;fill-rule:evenodd;stroke:rgb(0, 0, 0);stroke-width:3.0;" d="M 121.845, 70.687 L 110.997, 80.5094 L 58.8461, 77.5297 L 112.277, 59.3554 z "/>
<path style="fill:rgb(255, 255, 27);fill-opacity:1.0;fill-rule:evenodd;stroke:rgb(0, 0, 0);stroke-width:3.0;" d="M 421.072, 44.7209 L 400.73, 69.1688 L 379.776, 62.8851 L 389.613, 49.5762 L 395.552, 43.7092 z "/>
<path style="fill:rgb(255, 255, 27);fill-opacity:1.0;fill-rule:evenodd;stroke:rgb(0, 0, 0);stroke-width:3.0;" d="M 656.011, 231.519 L 674.964, 267.633 L 673.998, 272.856 L 668.673, 270.432 L 652.169, 231.207 z "/>
<path style="fill:rgb(255, 255, 27);fill-opacity:1.0;fill-rule:evenodd;stroke:rgb(0, 0, 0);stroke-width:3.0;" d="M 285.931, 258.522 L 280.868, 257.276 L 269.349, 247.048 L 286.802, 246.906 z "/>
<path style="fill:rgb(255, 255, 27);fill-opacity:1.0;fill-rule:evenodd;stroke:rgb(0, 0, 0);stroke-width:3.0;" d="M 533.968, 64.2469 L 534.655, 102.105 L 487.174, 82.088 L 532.515, 64.155 z "/>
<path style="fill:rgb(255, 255, 27);fill-opacity:1.0;fill-rule:evenodd;stroke:rgb(0, 0, 0);stroke-width:3.0;" d="M 640.578, 315.436 L 647.381, 325.765 L 587.401, 331.398 L 582.805, 327.595 L 609.392, 298.31 z "/>
<path style="fill:rgb(189, 184, 192);fill-opacity:1.0;fill-rule:evenodd;stroke:rgb(0, 0, 0);stroke-width:3.0;" d="M 334.146, 465.429 L 321.257, 497.217 L 311.81, 482.916 L 333.521, 463.831 z "/>
<path style="fill:rgb(189, 184, 192);fill-opacity:1.0;fill-rule:evenodd;stroke:rgb(0, 0, 0);stroke-width:3.0;" d="M 311.112, 340.252 L 277.8, 343.822 L 274.158, 335.545 L 282.512, 329.941 L 292.418, 326.62 z "/>
<path style="fill:rgb(189, 184, 192);fill-opacity:1.0;fill-rule:evenodd;stroke:rgb(0, 0, 0);stroke-width:3.0;" d="M 506.248, 103.641 L 531.284, 119.378 L 528.241, 123.258 L 495.352, 114.571 L 444.582, 98.3148 L 452.952, 92.6548 z "/>
<path style="fill:rgb(189, 184, 192);fill-opacity:1.0;fill-rule:evenodd;stroke:rgb(0, 0, 0);stroke-width:3.0;" d="M 754.069, 331.502 L 735.271, 345.266 L 711.657, 346.054 L 705.497, 334.541 L 725.758, 327.471 z "/>
<path style="fill:rgb(189, 184, 192);fill-opacity:1.0;fill-rule:evenodd;stroke:rgb(0, 0, 0);stroke-width:3.0;" d="M 419.655, 194.117 L 442.121, 206.454 L 413.035, 230.789 L 394.187, 222.712 L 416.324, 193.378 z "/>
<path style="fill:rgb(255, 3, 14);fill-opacity:1.0;fill-rule:evenodd;stroke:rgb(0, 0, 0);stroke-width:3.0;" d="M 366.126, 223.179 L 374.432, 227.097 L 378.649, 230.656 L 351.189, 230.025 L 348.49, 222.219 z "/>
<path style="fill:rgb(255, 1, 9);fill-opacity:1.0;fill-rule:evenodd;stroke:rgb(0, 0, 0);stroke-width:3.0;" d="M 459.248, 215.86 L 479.609, 232.977 L 414.656, 231.484 L 413.035, 230.789 L 442.121, 206.454 z "/>
<path style="fill:rgb(255, 231, 15);fill-opacity:1.0;fill-rule:evenodd;stroke:rgb(0, 0, 0);stroke-width:3.0;" d="M 69.8212, 141.251 L 71.1705, 145.135 L 63.9793, 182.564 L 63.4276, 182.677 L 66.475, 135.714 z "/>
<path style="fill:rgb(255, 231, 15);fill-opacity:1.0;fill-rule:evenodd;stroke:rgb(0, 0, 0);stroke-width:3.0;" d="M 39.7609, 237.188 L 40.0761, 240.105 L 36.2174, 241.635 L 13.2576, 237.568 L 15.0181, 230.797 z "/>
<path style="fill:rgb(255, 231, 15);fill-opacity:1.0;fill-rule:evenodd;stroke:rgb(0, 0, 0);stroke-width:3.0;" d="M 280.302, 284.872 L 251.892, 332.351 L 55.7912, 379.733 L 25.9253, 304.874 L 65.0423, 246.741 z "/>
<path style="fill:rgb(228, 34, 119);fill-opacity:1.0;fill-rule:evenodd;stroke:rgb(0, 0, 0);stroke-width:3.0;" d="M 263.746, 346.801 L 272.991, 351.394 L 273.253, 352.582 L 242.837, 350.042 L 242.324, 347.623 L 250.289, 346.769 z "/>
<path style="fill:rgb(36, 170, 255);fill-opacity:1.0;fill-rule:evenodd;stroke:rgb(0, 0, 0);stroke-width:3.0;" d="M 359.091, 437.69 L 358.86, 438.179 L 337.045, 437.442 L 326.488, 434.363 L 364.841, 416.936 z "/>
<path style="fill:rgb(36, 170, 255);fill-opacity:1.0;fill-rule:evenodd;stroke:rgb(0, 0, 0);stroke-width:3.0;" d="M 407.212, 34.8309 L 407.44, 37.7539 L 387.311, 21.6923 L 382.238, 9.60142 z "/>
<path style="fill:rgb(249, 102, 12);fill-opacity:1.0;fill-rule:evenodd;stroke:rgb(0, 0, 0);stroke-width:3.0;" d="M 342.949, 406.992 L 331.706, 431.992 L 330.507, 432.537 L 305.608, 393.726 z "/>
<path style="fill:rgb(249, 102, 12);fill-opacity:1.0;fill-rule:evenodd;stroke:rgb(0, 0, 0);stroke-width:3.0;" d="M 256.406, 414.14 L 278.217, 517.167 L 230.503, 563.185 L 190.242, 469.524 L 169.851, 356.541 z "/>
<path style="fill:rgb(246, 130, 126);fill-opacity:1.0;fill-rule:evenodd;stroke:rgb(0, 0, 0);stroke-width:3.0;" d="M 564.647, 273.738 L 529.58, 285.582 L 533.113, 264.402 L 543.204, 261.963 z "/>
<path style="fill:rgb(246, 130, 126);fill-opacity:1.0;fill-rule:evenodd;stroke:rgb(0, 0, 0);stroke-width:3.0;" d="M 571.113, 120.264 L 537.432, 110.163 L 555.223, 79.6428 z "/>
<path style="fill:rgb(246, 130, 126);fill-opacity:1.0;fill-rule:evenodd;stroke:rgb(0, 0, 0);stroke-width:3.0;" d="M 378.078, 389.084 L 351.999, 410.208 L 323.412, 400.051 L 286.941, 342.842 L 311.112, 340.252 z "/>
<path style="fill:rgb(249, 215, 27);fill-opacity:1.0;fill-rule:evenodd;stroke:rgb(0, 0, 0);stroke-width:3.0;" d="M 326.887, 505.739 L 321.934, 498.242 L 322.529, 494.08 L 331.794, 471.23 L 344.841, 467.801 z "/>
<path style="fill:rgb(249, 215, 27);fill-opacity:1.0;fill-rule:evenodd;stroke:rgb(0, 0, 0);stroke-width:3.0;" d="M 603.484, 167.471 L 623.09, 191.198 L 569.242, 167.677 L 579.737, 156.76 z "/>
<path style="fill:rgb(249, 215, 27);fill-opacity:1.0;fill-rule:evenodd;stroke:rgb(0, 0, 0);stroke-width:3.0;" d="M 187.792, 221.935 L 187.84, 234.39 L 115.33, 216.551 L 80.0413, 158.161 L 100.49, 131.993 z "/>
<path style="fill:rgb(255, 24, 194);fill-opacity:1.0;fill-rule:evenodd;stroke:rgb(0, 0, 0);stroke-width:3.0;" d="M 538.186, 125.885 L 488.852, 132.562 L 468.515, 123.679 L 471.406, 114.557 L 492.227, 113.746 z "/>
<path style="fill:rgb(255, 24, 194);fill-opacity:1.0;fill-rule:evenodd;stroke:rgb(0, 0, 0);stroke-width:3.0;" d="M 89.6572, 120.833 L 100.49, 131.993 L 80.0413, 158.161 L 52.4937, 112.58 z "/>
<path style="fill:rgb(226, 252, 7);fill-opacity:1.0;fill-rule:evenodd;stroke:rgb(0, 0, 0);stroke-width:3.0;" d="M 311.187, 264.735 L 287.782, 258.977 L 299.257, 253.127 z "/>
<path style="fill:rgb(226, 252, 7);fill-opacity:1.0;fill-rule:evenodd;stroke:rgb(0, 0, 0);stroke-width:3.0;" d="M 497.64, 98.2304 L 506.248, 103.641 L 452.952, 92.6548 L 460.969, 87.2334 z "/>
<path style="fill:rgb(226, 252, 7);fill-opacity:1.0;fill-rule:evenodd;stroke:rgb(0, 0, 0);stroke-width:3.0;" d="M 672.591, 333.016 L 676.845, 361.99 L 667.847, 356.839 L 642.871, 318.917 L 645.873, 318.343 z "/>
<path style="fill:rgb(234, 29, 29);fill-opacity:1.0;fill-rule:evenodd;stroke:rgb(0, 0, 0);stroke-width:3.0;" d="M 145.114, 159.54 L 154.88, 173.727 L 126.367, 157.615 z "/>
<path style="fill:rgb(234, 29, 29);fill-opacity:1.0;fill-rule:evenodd;stroke:rgb(0, 0, 0);stroke-width:3.0;" d="M 697.731, 158.235 L 738.254, 235.673 L 731.179, 238.412 L 694.226, 222.27 L 685.987, 154.713 z "/>
<path style="fill:rgb(234, 29, 29);fill-opacity:1.0;fill-rule:evenodd;stroke:rgb(0, 0, 0);stroke-width:3.0;" d="M 185.039, 457.42 L 193.036, 479.882 L 173.925, 498.665 L 184.795, 456.852 z "/>
<path style="fill:rgb(234, 29, 29);fill-opacity:1.0;fill-rule:evenodd;stroke:rgb(0, 0, 0);stroke-width:3.0;" d="M 292.768, 555.625 L 292.071, 563.988 L 287.802, 562.446 L 282.662, 538.162 L 284.243, 534.413 z "/>
<path style="fill:rgb(207, 255, 107);fill-opacity:1.0;fill-rule:evenodd;stroke:rgb(0, 0, 0);stroke-width:3.0;" d="M 292.768, 555.625 L 284.243, 534.413 L 287.271, 527.236 L 295.721, 520.239 z "/>
<path style="fill:rgb(255, 240, 17);fill-opacity:1.0;fill-rule:evenodd;stroke:rgb(0, 0, 0);stroke-width:3.0;" d="M 772.789, 385.36 L 771.143, 387.135 L 718.032, 357.969 L 711.657, 346.054 L 768.95, 344.142 z "/>
<path style="fill:rgb(255, 255, 32);fill-opacity:1.0;fill-rule:evenodd;stroke:rgb(0, 0, 0);stroke-width:3.0;" d="M 284.83, 548.404 L 249.933, 544.445 L 278.217, 517.167 z "/>
<path style="fill:rgb(255, 255, 32);fill-opacity:1.0;fill-rule:evenodd;stroke:rgb(0, 0, 0);stroke-width:3.0;" d="M 768.95, 344.142 L 735.271, 345.266 L 766.898, 322.108 z "/>
<path style="fill:rgb(255, 255, 12);fill-opacity:1.0;fill-rule:evenodd;stroke:rgb(0, 0, 0);stroke-width:3.0;" d="M 354.968, 411.262 L 358.531, 419.803 L 331.706, 431.992 L 342.949, 406.992 z "/>
<path style="fill:rgb(255, 255, 12);fill-opacity:1.0;fill-rule:evenodd;stroke:rgb(0, 0, 0);stroke-width:3.0;" d="M 462.527, 232.584 L 538.528, 259.396 L 543.204, 261.963 L 436.943, 287.638 L 457.265, 232.463 z "/>
<path style="fill:rgb(252, 255, 11);fill-opacity:1.0;fill-rule:evenodd;stroke:rgb(0, 0, 0);stroke-width:3.0;" d="M 490.892, 233.236 L 538.528, 259.396 L 462.527, 232.584 z "/>
<path style="fill:rgb(255, 123, 22);fill-opacity:1.0;fill-rule:evenodd;stroke:rgb(0, 0, 0);stroke-width:3.0;" d="M 734.054, 308.578 L 701.512, 320.484 L 694.602, 303.821 L 699.576, 300.886 z "/>
<path style="fill:rgb(255, 123, 22);fill-opacity:1.0;fill-rule:evenodd;stroke:rgb(0, 0, 0);stroke-width:3.0;" d="M 35.4065, 196.889 L 36.1334, 203.616 L 28.4653, 202.144 L 12.5432, 196.994 L 17.7611, 192.548 z "/>
<path style="fill:rgb(255, 123, 22);fill-opacity:1.0;fill-rule:evenodd;stroke:rgb(0, 0, 0);stroke-width:3.0;" d="M 555.223, 79.6428 L 537.432, 110.163 L 534.787, 109.37 L 533.226, 23.4062 z "/>
<path style="fill:rgb(255, 123, 22);fill-opacity:1.0;fill-rule:evenodd;stroke:rgb(0, 0, 0);stroke-width:3.0;" d="M 366.126, 223.179 L 318.878, 220.605 L 331.44, 206.819 z "/>
<path style="fill:rgb(255, 123, 22);fill-opacity:1.0;fill-rule:evenodd;stroke:rgb(0, 0, 0);stroke-width:3.0;" d="M 320.367, 188.801 L 317.758, 217.73 L 300.116, 247.825 L 287.305, 240.185 L 292.544, 170.268 z "/>
<path style="fill:rgb(255, 255, 27);fill-opacity:1.0;fill-rule:evenodd;stroke:rgb(0, 0, 0);stroke-width:3.0;" d="M 321.846, 172.396 L 320.367, 188.801 L 292.544, 170.268 L 292.867, 165.961 z "/>
<path style="fill:rgb(172, 124, 249);fill-opacity:1.0;fill-rule:evenodd;stroke:rgb(0, 0, 0);stroke-width:3.0;" d="M 324.445, 463.434 L 302.166, 476.757 L 302.423, 467.378 L 318.452, 460.426 z "/>
<path style="fill:rgb(255, 57, 18);fill-opacity:1.0;fill-rule:evenodd;stroke:rgb(0, 0, 0);stroke-width:3.0;" d="M 689.249, 181.457 L 642.158, 183.39 L 687.594, 167.888 z "/>
<path style="fill:rgb(255, 57, 18);fill-opacity:1.0;fill-rule:evenodd;stroke:rgb(0, 0, 0);stroke-width:3.0;" d="M 438.341, 566.869 L 425.228, 584.889 L 417.331, 588.981 L 415.272, 571.146 L 436.667, 564.809 z "/>
<path style="fill:rgb(95, 132, 246);fill-opacity:1.0;fill-rule:evenodd;stroke:rgb(0, 0, 0);stroke-width:3.0;" d="M 555.867, 306.405 L 552.924, 319.219 L 538.039, 312.549 L 546.546, 306.865 L 555.334, 305.949 z "/>
<path style="fill:rgb(20, 240, 255);fill-opacity:1.0;fill-rule:evenodd;stroke:rgb(0, 0, 0);stroke-width:3.0;" d="M 652.169, 231.207 L 671.467, 277.072 L 660.661, 283.461 L 660.03, 282.353 L 646.567, 241.857 L 649.14, 230.96 z "/>
<path style="fill:rgb(243, 246, 10);fill-opacity:1.0;fill-rule:evenodd;stroke:rgb(0, 0, 0);stroke-width:3.0;" d="M 372.216, 183.582 L 369.732, 190.158 L 355.09, 205.957 L 347.414, 202.667 L 366.015, 182.205 z "/>
<path style="fill:rgb(255, 14, 13);fill-opacity:1.0;fill-rule:evenodd;stroke:rgb(0, 0, 0);stroke-width:3.0;" d="M 175.929, 390.218 L 190.242, 469.524 L 142.625, 358.752 L 157.319, 355.201 z "/>
<path style="fill:rgb(255, 240, 21);fill-opacity:1.0;fill-rule:evenodd;stroke:rgb(0, 0, 0);stroke-width:3.0;" d="M 427.432, 55.6536 L 416.462, 73.8865 L 400.73, 69.1688 L 413.969, 53.2571 z "/>
<path style="fill:rgb(255, 240, 21);fill-opacity:1.0;fill-rule:evenodd;stroke:rgb(0, 0, 0);stroke-width:3.0;" d="M 667.864, 296.106 L 676.278, 310.877 L 678.342, 335.281 L 677.677, 335.436 L 664.073, 294.516 z "/>
<path style="fill:rgb(255, 27, 15);fill-opacity:1.0;fill-rule:evenodd;stroke:rgb(0, 0, 0);stroke-width:3.0;" d="M 315.448, 243.348 L 306.596, 251.689 L 305.993, 251.33 L 311.485, 228.432 L 317.758, 217.73 z "/>
<path style="fill:rgb(240, 240, 17);fill-opacity:1.0;fill-rule:evenodd;stroke:rgb(0, 0, 0);stroke-width:3.0;" d="M 292.867, 165.961 L 286.977, 244.562 L 196.73, 214.72 L 184.195, 198.158 L 195.455, 144.328 z "/>
<path style="fill:rgb(243, 215, 8);fill-opacity:1.0;fill-rule:evenodd;stroke:rgb(0, 0, 0);stroke-width:3.0;" d="M 286.191, 529.795 L 282.662, 538.162 L 278.361, 517.848 L 278.122, 512.529 L 284.175, 507.209 L 284.441, 507.128 z "/>
<path style="fill:rgb(243, 215, 8);fill-opacity:1.0;fill-rule:evenodd;stroke:rgb(0, 0, 0);stroke-width:3.0;" d="M 126.58, 132.618 L 144.793, 159.074 L 120.44, 152.546 L 116.547, 148.536 L 120.925, 131.094 z "/>
<path style="fill:rgb(243, 252, 30);fill-opacity:1.0;fill-rule:evenodd;stroke:rgb(0, 0, 0);stroke-width:3.0;" d="M 758.27, 256.641 L 741.995, 278.588 L 729.24, 260.335 L 739.343, 256.461 z "/>
<path style="fill:rgb(243, 252, 30);fill-opacity:1.0;fill-rule:evenodd;stroke:rgb(0, 0, 0);stroke-width:3.0;" d="M 360.94, 181.078 L 342.451, 200.54 L 337.515, 198.425 L 338.476, 183.64 L 342.443, 176.97 z "/>
<path style="fill:rgb(243, 252, 30);fill-opacity:1.0;fill-rule:evenodd;stroke:rgb(0, 0, 0);stroke-width:3.0;" d="M 461.771, 87.474 L 416.462, 73.8865 L 431.652, 48.6385 L 533.154, 21.1737 z "/>
<path style="fill:rgb(249, 240, 6);fill-opacity:1.0;fill-rule:evenodd;stroke:rgb(0, 0, 0);stroke-width:3.0;" d="M 603.484, 167.471 L 579.737, 156.76 L 587.748, 148.427 z "/>
<path style="fill:rgb(249, 240, 6);fill-opacity:1.0;fill-rule:evenodd;stroke:rgb(0, 0, 0);stroke-width:3.0;" d="M 534.655, 102.105 L 534.787, 109.37 L 496.224, 97.8057 L 502.245, 88.4418 z "/>
<path style="fill:rgb(249, 240, 6);fill-opacity:1.0;fill-rule:evenodd;stroke:rgb(0, 0, 0);stroke-width:3.0;" d="M 286.961, 28.3137 L 282.096, 33.5923 L 266.084, 28.7907 L 255.118, 12.3157 L 283.459, 7.6699 z "/>
<path style="fill:rgb(249, 240, 6);fill-opacity:1.0;fill-rule:evenodd;stroke:rgb(0, 0, 0);stroke-width:3.0;" d="M 181.388, 141.204 L 71.0329, 116.697 L 121.845, 70.687 z "/>
<path style="fill:rgb(40, 243, 255);fill-opacity:1.0;fill-rule:evenodd;stroke:rgb(0, 0, 0);stroke-width:3.0;" d="M 291.122, 349.401 L 284.132, 361.276 L 274.779, 344.145 L 286.941, 342.842 z "/>
<path style="fill:rgb(40, 243, 255);fill-opacity:1.0;fill-rule:evenodd;stroke:rgb(0, 0, 0);stroke-width:3.0;" d="M 169.851, 356.541 L 175.929, 390.218 L 170.919, 380.791 L 164.093, 353.565 L 165.037, 353.337 z "/>
<path style="fill:rgb(40, 243, 255);fill-opacity:1.0;fill-rule:evenodd;stroke:rgb(0, 0, 0);stroke-width:3.0;" d="M 573.18, 278.424 L 528.21, 302.326 L 511.506, 299.061 L 510.624, 291.985 L 564.647, 273.738 z "/>
<path style="fill:rgb(102, 192, 255);fill-opacity:1.0;fill-rule:evenodd;stroke:rgb(0, 0, 0);stroke-width:3.0;" d="M 377.454, 281.038 L 420.466, 291.619 L 377.289, 302.052 L 221.569, 274.468 z "/>
<path style="fill:rgb(255, 3, 33);fill-opacity:1.0;fill-rule:evenodd;stroke:rgb(0, 0, 0);stroke-width:3.0;" d="M 590.824, 126.175 L 585.041, 132.245 L 576.341, 134.622 L 562.29, 117.618 z "/>
<path style="fill:rgb(52, 246, 138);fill-opacity:1.0;fill-rule:evenodd;stroke:rgb(0, 0, 0);stroke-width:3.0;" d="M 740.643, 276.654 L 694.602, 303.821 L 689.745, 292.108 L 690.515, 275.182 L 729.24, 260.335 z "/>
<path style="fill:rgb(52, 246, 138);fill-opacity:1.0;fill-rule:evenodd;stroke:rgb(0, 0, 0);stroke-width:3.0;" d="M 161.213, 227.839 L 167.078, 250.006 L 151.958, 236.046 L 156.743, 226.739 z "/>
<path style="fill:rgb(148, 255, 9);fill-opacity:1.0;fill-rule:evenodd;stroke:rgb(0, 0, 0);stroke-width:3.0;" d="M 782.178, 260.688 L 764.03, 310.124 L 755.139, 297.399 L 764.549, 252.988 z "/>
<path style="fill:rgb(148, 255, 9);fill-opacity:1.0;fill-rule:evenodd;stroke:rgb(0, 0, 0);stroke-width:3.0;" d="M 648.782, 147.404 L 641.118, 164.315 L 638.757, 164.258 L 639.542, 150.179 L 640.837, 145.47 z "/>
<path style="fill:rgb(148, 255, 9);fill-opacity:1.0;fill-rule:evenodd;stroke:rgb(0, 0, 0);stroke-width:3.0;" d="M 608.436, 152.273 L 605.135, 155.922 L 579.971, 136.958 L 582.279, 135.296 z "/>
<path style="fill:rgb(148, 255, 9);fill-opacity:1.0;fill-rule:evenodd;stroke:rgb(0, 0, 0);stroke-width:3.0;" d="M 302.395, 468.409 L 302.166, 476.757 L 286.371, 486.202 L 274.74, 467.841 z "/>
<path style="fill:rgb(215, 1, 255);fill-opacity:1.0;fill-rule:evenodd;stroke:rgb(0, 0, 0);stroke-width:3.0;" d="M 135.933, 134.39 L 151.332, 154.736 L 151.322, 155.601 L 149.63, 156.698 L 146.757, 154.363 L 137.006, 145.379 L 134.582, 133.713 z "/>
<path style="fill:rgb(215, 1, 255);fill-opacity:1.0;fill-rule:evenodd;stroke:rgb(0, 0, 0);stroke-width:3.0;" d="M 691.005, 195.857 L 694.226, 222.27 L 658.826, 206.808 L 649.521, 193.953 z "/>
<path style="fill:rgb(226, 255, 14);fill-opacity:1.0;fill-rule:evenodd;stroke:rgb(0, 0, 0);stroke-width:3.0;" d="M 314.283, 256.273 L 313.469, 265.297 L 311.187, 264.735 L 299.257, 253.127 L 304.514, 250.447 z "/>
<path style="fill:rgb(46, 9, 255);fill-opacity:1.0;fill-rule:evenodd;stroke:rgb(0, 0, 0);stroke-width:3.0;" d="M 358.86, 438.179 L 356.123, 443.962 L 354.241, 445.617 L 344.93, 451.185 L 322.832, 436.961 z "/>
<path style="fill:rgb(11, 112, 246);fill-opacity:1.0;fill-rule:evenodd;stroke:rgb(0, 0, 0);stroke-width:3.0;" d="M 395.35, 214.29 L 398.022, 217.63 L 394.187, 222.712 L 355.09, 205.957 L 355.388, 205.635 z "/>
<path style="fill:rgb(252, 69, 9);fill-opacity:1.0;fill-rule:evenodd;stroke:rgb(0, 0, 0);stroke-width:3.0;" d="M 395.35, 214.29 L 355.388, 205.635 L 373.122, 186.5 z "/>
<path style="fill:rgb(255, 150, 9);fill-opacity:1.0;fill-rule:evenodd;stroke:rgb(0, 0, 0);stroke-width:3.0;" d="M 774.185, 238.136 L 759.485, 230.172 L 782.149, 223.488 z "/>
<path style="fill:rgb(255, 150, 9);fill-opacity:1.0;fill-rule:evenodd;stroke:rgb(0, 0, 0);stroke-width:3.0;" d="M 393.996, 43.6475 L 379.776, 62.8851 L 311.325, 42.3578 L 311.13, 40.3623 z "/>
<path style="fill:rgb(249, 237, 10);fill-opacity:1.0;fill-rule:evenodd;stroke:rgb(0, 0, 0);stroke-width:3.0;" d="M 709.332, 354.936 L 713.735, 375.365 L 695.774, 360.833 L 695.93, 360.249 L 709.056, 354.723 z "/>
<path style="fill:rgb(249, 237, 10);fill-opacity:1.0;fill-rule:evenodd;stroke:rgb(0, 0, 0);stroke-width:3.0;" d="M 764.549, 252.988 L 755.139, 297.399 L 741.995, 278.588 L 761.852, 251.81 z "/>
<path style="fill:rgb(45, 39, 220);fill-opacity:1.0;fill-rule:evenodd;stroke:rgb(0, 0, 0);stroke-width:3.0;" d="M 694.708, 271.165 L 693.748, 273.942 L 683.795, 277.758 L 677.702, 263.066 z "/>
<path style="fill:rgb(163, 47, 199);fill-opacity:1.0;fill-rule:evenodd;stroke:rgb(0, 0, 0);stroke-width:3.0;" d="M 704.585, 242.595 L 694.708, 271.165 L 677.702, 263.066 L 671.503, 248.117 L 696.268, 235.729 z "/>
<path style="fill:rgb(47, 43, 223);fill-opacity:1.0;fill-rule:evenodd;stroke:rgb(0, 0, 0);stroke-width:3.0;" d="M 742.066, 171.53 L 781.002, 219.123 L 738.254, 235.673 L 697.731, 158.235 z "/>
<path style="fill:rgb(47, 43, 223);fill-opacity:1.0;fill-rule:evenodd;stroke:rgb(0, 0, 0);stroke-width:3.0;" d="M 420.827, 43.782 L 421.18, 44.591 L 421.072, 44.7209 L 311.13, 40.3623 L 310.817, 37.1787 L 322.125, 32.0423 z "/>
<path style="fill:rgb(9, 72, 255);fill-opacity:1.0;fill-rule:evenodd;stroke:rgb(0, 0, 0);stroke-width:3.0;" d="M 630.853, 194.589 L 677.677, 335.436 L 677.201, 335.547 L 466.402, 219.788 L 466.364, 219.312 L 611.726, 186.234 z "/>
<path style="fill:rgb(9, 72, 255);fill-opacity:1.0;fill-rule:evenodd;stroke:rgb(0, 0, 0);stroke-width:3.0;" d="M 609.392, 298.31 L 608.216, 299.606 L 570.015, 317.009 L 542.863, 294.538 L 573.18, 278.424 z "/>
<path style="fill:rgb(9, 72, 255);fill-opacity:1.0;fill-rule:evenodd;stroke:rgb(0, 0, 0);stroke-width:3.0;" d="M 529.58, 285.582 L 521.344, 288.364 L 494.971, 276.027 L 496.757, 273.186 L 533.113, 264.402 z "/>
<path style="fill:rgb(231, 23, 78);fill-opacity:1.0;fill-rule:evenodd;stroke:rgb(0, 0, 0);stroke-width:3.0;" d="M 573.694, 135.263 L 561.017, 164.084 L 488.852, 132.562 L 538.186, 125.885 z "/>
<path style="fill:rgb(255, 0, 30);fill-opacity:1.0;fill-rule:evenodd;stroke:rgb(0, 0, 0);stroke-width:3.0;" d="M 619.804, 160.88 L 631.457, 194.853 L 623.09, 191.198 L 608.424, 173.449 L 615.482, 160.54 z "/>
<path style="fill:rgb(255, 0, 30);fill-opacity:1.0;fill-rule:evenodd;stroke:rgb(0, 0, 0);stroke-width:3.0;" d="M 82.8332, 178.713 L 75.2406, 180.264 L 70.8362, 169.644 L 71.0684, 145.666 L 71.1705, 145.135 z "/>
<path style="fill:rgb(255, 48, 16);fill-opacity:1.0;fill-rule:evenodd;stroke:rgb(0, 0, 0);stroke-width:3.0;" d="M 212.75, 385.088 L 185.988, 367.279 L 198.28, 345.304 L 223.528, 339.204 z "/>
<path style="fill:rgb(255, 48, 16);fill-opacity:1.0;fill-rule:evenodd;stroke:rgb(0, 0, 0);stroke-width:3.0;" d="M 80.3891, 185.429 L 66.8934, 200.293 L 63.2068, 186.081 L 63.4276, 182.677 L 65.7362, 182.205 z "/>
<path style="fill:rgb(8, 110, 228);fill-opacity:1.0;fill-rule:evenodd;stroke:rgb(0, 0, 0);stroke-width:3.0;" d="M 502.245, 88.4418 L 496.224, 97.8057 L 464.991, 88.4395 L 474.765, 76.857 z "/>
<path style="fill:rgb(8, 110, 228);fill-opacity:1.0;fill-rule:evenodd;stroke:rgb(0, 0, 0);stroke-width:3.0;" d="M 691.005, 195.857 L 649.521, 193.953 L 641.93, 183.468 L 642.158, 183.39 L 689.249, 181.457 z "/>
<path style="fill:rgb(7, 60, 255);fill-opacity:1.0;fill-rule:evenodd;stroke:rgb(0, 0, 0);stroke-width:3.0;" d="M 611.726, 186.234 L 466.364, 219.312 L 458.307, 119.22 z "/>
<path style="fill:rgb(7, 60, 255);fill-opacity:1.0;fill-rule:evenodd;stroke:rgb(0, 0, 0);stroke-width:3.0;" d="M 195.455, 144.328 L 187.504, 182.34 L 175.392, 186.526 L 132.949, 130.447 z "/>
<path style="fill:rgb(255, 95, 7);fill-opacity:1.0;fill-rule:evenodd;stroke:rgb(0, 0, 0);stroke-width:3.0;" d="M 305.608, 393.726 L 330.507, 432.537 L 266.461, 461.637 L 255.002, 407.507 L 297.346, 390.79 z "/>
<path style="fill:rgb(47, 45, 249);fill-opacity:1.0;fill-rule:evenodd;stroke:rgb(0, 0, 0);stroke-width:3.0;" d="M 521.344, 288.364 L 504.829, 293.942 L 503.666, 280.095 z "/>
<path style="fill:rgb(47, 45, 249);fill-opacity:1.0;fill-rule:evenodd;stroke:rgb(0, 0, 0);stroke-width:3.0;" d="M 256.406, 414.14 L 212.75, 385.088 L 223.528, 339.204 L 239.714, 335.293 z "/>
<path style="fill:rgb(47, 45, 249);fill-opacity:1.0;fill-rule:evenodd;stroke:rgb(0, 0, 0);stroke-width:3.0;" d="M 302.395, 468.409 L 274.74, 467.841 L 270.544, 461.217 L 302.858, 451.484 z "/>
<path style="fill:rgb(255, 197, 19);fill-opacity:1.0;fill-rule:evenodd;stroke:rgb(0, 0, 0);stroke-width:3.0;" d="M 336.935, 148.692 L 419.655, 194.117 L 181.388, 141.204 L 145.821, 99.0822 z "/>
<path style="fill:rgb(35, 255, 168);fill-opacity:1.0;fill-rule:evenodd;stroke:rgb(0, 0, 0);stroke-width:3.0;" d="M 297.372, 495.041 L 286.933, 485.866 L 315.518, 468.773 z "/>
<path style="fill:rgb(223, 89, 192);fill-opacity:1.0;fill-rule:evenodd;stroke:rgb(0, 0, 0);stroke-width:3.0;" d="M 499.494, 477.622 L 447.179, 475.462 L 457.813, 447.228 z "/>
<path style="fill:rgb(223, 89, 192);fill-opacity:1.0;fill-rule:evenodd;stroke:rgb(0, 0, 0);stroke-width:3.0;" d="M 274.369, 311.76 L 280.423, 314.778 L 277.627, 318.67 L 258.506, 321.297 L 258.876, 320.678 L 271.405, 310.673 z "/>
<path style="fill:rgb(255, 21, 184);fill-opacity:1.0;fill-rule:evenodd;stroke:rgb(0, 0, 0);stroke-width:3.0;" d="M 286.977, 244.562 L 286.802, 246.906 L 251.658, 247.191 L 255.952, 234.303 z "/>
<path style="fill:rgb(255, 21, 184);fill-opacity:1.0;fill-rule:evenodd;stroke:rgb(0, 0, 0);stroke-width:3.0;" d="M 492.339, 280.215 L 488.268, 286.692 L 466.562, 280.482 L 493.363, 274.006 z "/>
<path style="fill:rgb(114, 252, 240);fill-opacity:1.0;fill-rule:evenodd;stroke:rgb(0, 0, 0);stroke-width:3.0;" d="M 65.0423, 246.741 L 62.0826, 251.139 L 30.5801, 247.31 L 33.4571, 241.146 z "/>
<path style="fill:rgb(114, 252, 240);fill-opacity:1.0;fill-rule:evenodd;stroke:rgb(0, 0, 0);stroke-width:3.0;" d="M 314.885, 386.676 L 295.68, 382.425 L 284.132, 361.276 L 291.122, 349.401 z "/>
<path style="fill:rgb(114, 252, 240);fill-opacity:1.0;fill-rule:evenodd;stroke:rgb(0, 0, 0);stroke-width:3.0;" d="M 499.494, 477.622 L 520.258, 492.763 L 422.454, 547.318 L 420.858, 545.354 L 447.179, 475.462 z "/>
<path style="fill:rgb(114, 252, 240);fill-opacity:1.0;fill-rule:evenodd;stroke:rgb(0, 0, 0);stroke-width:3.0;" d="M 761.902, 307.078 L 721.902, 325.129 L 705.065, 329.053 L 701.512, 320.484 L 754.736, 301.01 L 757.263, 300.44 z "/>
<path style="fill:rgb(255, 75, 10);fill-opacity:1.0;fill-rule:evenodd;stroke:rgb(0, 0, 0);stroke-width:3.0;" d="M 347.987, 459.353 L 348.29, 460.514 L 344.841, 467.801 L 331.794, 471.23 L 335.499, 462.092 L 341.517, 456.802 z "/>
<path style="fill:rgb(252, 112, 112);fill-opacity:1.0;fill-rule:evenodd;stroke:rgb(0, 0, 0);stroke-width:3.0;" d="M 577.757, 136.336 L 587.748, 148.427 L 570.73, 166.129 L 561.282, 163.484 L 573.694, 135.263 z "/>
<path style="fill:rgb(252, 112, 112);fill-opacity:1.0;fill-rule:evenodd;stroke:rgb(0, 0, 0);stroke-width:3.0;" d="M 188.432, 359.4 L 167.49, 354.969 L 165.037, 353.337 L 187.943, 347.802 z "/>
<path style="fill:rgb(197, 69, 192);fill-opacity:1.0;fill-rule:evenodd;stroke:rgb(0, 0, 0);stroke-width:3.0;" d="M 29.2773, 170.924 L 28.6493, 178.085 L 14.5579, 178.389 L 24.877, 164.194 z "/>
<path style="fill:rgb(60, 168, 192);fill-opacity:1.0;fill-rule:evenodd;stroke:rgb(0, 0, 0);stroke-width:3.0;" d="M 642.778, 184.638 L 647.435, 191.072 L 640.427, 198.771 L 639.873, 198.529 L 636.171, 187.848 L 634.895, 182.33 z "/>
<path style="fill:rgb(212, 234, 15);fill-opacity:1.0;fill-rule:evenodd;stroke:rgb(0, 0, 0);stroke-width:3.0;" d="M 533.24, 24.1801 L 533.968, 64.2469 L 489.788, 61.4518 L 530.846, 23.3174 z "/>
<path style="fill:rgb(187, 255, 83);fill-opacity:1.0;fill-rule:evenodd;stroke:rgb(0, 0, 0);stroke-width:3.0;" d="M 603.127, 129.864 L 614.603, 145.718 L 617.938, 155.441 L 596.362, 134.961 L 598.794, 128.565 z "/>
<path style="fill:rgb(11, 124, 255);fill-opacity:1.0;fill-rule:evenodd;stroke:rgb(0, 0, 0);stroke-width:3.0;" d="M 339.361, 447.601 L 342.848, 449.845 L 302.423, 467.378 L 303.035, 445.019 L 314.23, 439.933 z "/>
<path style="fill:rgb(152, 1, 204);fill-opacity:1.0;fill-rule:evenodd;stroke:rgb(0, 0, 0);stroke-width:3.0;" d="M 684.194, 298.422 L 680.854, 305.554 L 676.351, 311.005 L 668.864, 297.862 L 672.025, 288.764 L 682.334, 287.331 z "/>
<path style="fill:rgb(27, 30, 246);fill-opacity:1.0;fill-rule:evenodd;stroke:rgb(0, 0, 0);stroke-width:3.0;" d="M 720.776, 305.616 L 699.576, 300.886 L 719.322, 289.234 z "/>
<path style="fill:rgb(255, 157, 7);fill-opacity:1.0;fill-rule:evenodd;stroke:rgb(0, 0, 0);stroke-width:3.0;" d="M 757.066, 300.157 L 734.054, 308.578 L 720.776, 305.616 L 719.322, 289.234 L 740.643, 276.654 z "/>
<path style="fill:rgb(252, 246, 36);fill-opacity:1.0;fill-rule:evenodd;stroke:rgb(0, 0, 0);stroke-width:3.0;" d="M 348.49, 222.219 L 350.794, 228.882 L 330.254, 227.295 L 326.994, 221.047 z "/>
<path style="fill:rgb(237, 179, 10);fill-opacity:1.0;fill-rule:evenodd;stroke:rgb(0, 0, 0);stroke-width:3.0;" d="M 314.885, 386.676 L 323.412, 400.051 L 300.946, 392.069 L 299.747, 389.873 L 298.713, 383.097 z "/>
<path style="fill:rgb(255, 192, 237);fill-opacity:1.0;fill-rule:evenodd;stroke:rgb(0, 0, 0);stroke-width:3.0;" d="M 433.656, 45.3079 L 427.432, 55.6536 L 413.969, 53.2571 L 421.761, 43.893 z "/>
<path style="fill:rgb(105, 255, 255);fill-opacity:1.0;fill-rule:evenodd;stroke:rgb(0, 0, 0);stroke-width:3.0;" d="M 620.127, 134.962 L 631.729, 148.976 L 629.586, 156.672 L 619.487, 152.464 L 603.127, 129.864 z "/>
<path style="fill:rgb(243, 79, 37);fill-opacity:1.0;fill-rule:evenodd;stroke:rgb(0, 0, 0);stroke-width:3.0;" d="M 66.475, 135.714 L 63.9282, 174.963 L 54.9642, 154.306 L 47.4008, 125.15 L 56.1428, 118.618 z "/>
<path style="fill:rgb(255, 252, 37);fill-opacity:1.0;fill-rule:evenodd;stroke:rgb(0, 0, 0);stroke-width:3.0;" d="M 348.275, 555.135 L 309.057, 547.417 L 315.129, 533.78 z "/>
<path style="fill:rgb(83, 255, 202);fill-opacity:1.0;fill-rule:evenodd;stroke:rgb(0, 0, 0);stroke-width:3.0;" d="M 255.952, 234.303 L 251.658, 247.191 L 240.25, 247.284 L 217.057, 241.578 L 209.249, 231.261 L 225.223, 225.271 L 227.228, 224.805 z "/>
<path style="fill:rgb(231, 89, 16);fill-opacity:1.0;fill-rule:evenodd;stroke:rgb(0, 0, 0);stroke-width:3.0;" d="M 696.268, 235.729 L 671.503, 248.117 L 668.378, 240.58 L 674.675, 235.527 L 695.755, 235.306 z "/>
<path style="fill:rgb(255, 234, 212);fill-opacity:1.0;fill-rule:evenodd;stroke:rgb(0, 0, 0);stroke-width:3.0;" d="M 110.997, 80.5094 L 71.0329, 116.697 L 43.0904, 110.492 L 48.1221, 81.1774 L 58.8461, 77.5297 z "/>
<path style="fill:rgb(209, 202, 41);fill-opacity:1.0;fill-rule:evenodd;stroke:rgb(0, 0, 0);stroke-width:3.0;" d="M 582.805, 327.595 L 570.015, 317.009 L 608.216, 299.606 z "/>
<path style="fill:rgb(255, 228, 24);fill-opacity:1.0;fill-rule:evenodd;stroke:rgb(0, 0, 0);stroke-width:3.0;" d="M 532.515, 64.155 L 487.174, 82.088 L 473.69, 76.4037 L 489.788, 61.4518 z "/>
<path style="fill:rgb(237, 9, 234);fill-opacity:1.0;fill-rule:evenodd;stroke:rgb(0, 0, 0);stroke-width:3.0;" d="M 688.027, 342.401 L 689.939, 354.569 L 688.292, 355.851 L 673.844, 341.551 L 673.774, 341.07 z "/>
<path style="fill:rgb(220, 66, 255);fill-opacity:1.0;fill-rule:evenodd;stroke:rgb(0, 0, 0);stroke-width:3.0;" d="M 382.968, 561.963 L 348.275, 555.135 L 313.969, 533.034 L 314.295, 532.346 L 330.338, 531.433 z "/>
<path style="fill:rgb(255, 1, 7);fill-opacity:1.0;fill-rule:evenodd;stroke:rgb(0, 0, 0);stroke-width:3.0;" d="M 410.876, 533.069 L 414.938, 568.255 L 382.968, 561.963 L 330.338, 531.433 L 406.045, 527.125 z "/>
<path style="fill:rgb(255, 159, 140);fill-opacity:1.0;fill-rule:evenodd;stroke:rgb(0, 0, 0);stroke-width:3.0;" d="M 36.0011, 236.217 L 15.0181, 230.797 L 16.0343, 226.888 L 27.7132, 224.118 z "/>
<path style="fill:rgb(255, 0, 148);fill-opacity:1.0;fill-rule:evenodd;stroke:rgb(0, 0, 0);stroke-width:3.0;" d="M 39.7609, 237.188 L 36.0011, 236.217 L 27.7132, 224.118 L 38.0828, 221.658 z "/>
</svg>