<?xml version="1.0" encoding="iso-8859-1" standalone="no"?>
<!DOCTYPE svg PUBLIC "-//W3C//DTD SVG 1.0//EN" "http://www.w3.org/TR/2001/REC-SVG-20010904/DTD/svg10.dtd">
<svg xmlns="http://www.w3.org/2000/svg" width="800" height="600">
<path style="fill:rgb(0, 0, 0);fill-opacity:0.0;fill-rule:evenodd;stroke:rgb(0, 0, 0);stroke-width:0.0;" d="M 0, 600 L 800, 600 L 800, 0 L 0, 0 z "/>
<path style="fill:rgb(255, 16, 179);fill-opacity:1.0;fill-rule:evenodd;stroke:rgb(0, 0, 0);stroke-width:3.0;" d="M 652.925, 316.222 L 654.068, 348.737 L 613, 341.826 L 617.542, 312.281 L 648.161, 310.56 z "/>
<path style="fill:rgb(255, 16, 179);fill-opacity:1.0;fill-rule:evenodd;stroke:rgb(0, 0, 0);stroke-width:3.0;" d="M 144.964, 137.502 L 141.099, 139.134 L 115.919, 130.169 L 126.028, 98.5762 L 151.162, 67.7877 z "/>
<path style="fill:rgb(252, 255, 14);fill-opacity:1.0;fill-rule:evenodd;stroke:rgb(0, 0, 0);stroke-width:3.0;" d="M 200.822, 222.005 L 138.993, 230.427 L 136.823, 221.313 L 125.341, 145.784 L 155.296, 133.142 z "/>
<path style="fill:rgb(234, 255, 7);fill-opacity:1.0;fill-rule:evenodd;stroke:rgb(0, 0, 0);stroke-width:3.0;" d="M 262.974, 571.732 L 185.558, 552.89 L 219.615, 284.53 L 380.257, 181.048 z "/>
<path style="fill:rgb(184, 212, 255);fill-opacity:1.0;fill-rule:evenodd;stroke:rgb(0, 0, 0);stroke-width:3.0;" d="M 85.8947, 234.453 L 90.8835, 236.98 L 75.6344, 239.057 L 37.6052, 236.159 L 37.6076, 236.087 L 54.476, 231.985 z "/>
<path style="fill:rgb(184, 212, 255);fill-opacity:1.0;fill-rule:evenodd;stroke:rgb(0, 0, 0);stroke-width:3.0;" d="M 599.855, 21.547 L 607.864, 34.4292 L 600.17, 39.3857 L 591.059, 39.302 L 593.112, 20.5396 z "/>
<path style="fill:rgb(100, 212, 255);fill-opacity:1.0;fill-rule:evenodd;stroke:rgb(0, 0, 0);stroke-width:3.0;" d="M 206.453, 114.697 L 208.49, 128.172 L 204.401, 138.293 L 181.367, 137.477 L 197.338, 115.785 L 198.187, 115.041 L 204.458, 112.395 z "/>
<path style="fill:rgb(100, 212, 255);fill-opacity:1.0;fill-rule:evenodd;stroke:rgb(0, 0, 0);stroke-width:3.0;" d="M 468.876, 48.6228 L 460.307, 55.5611 L 458.141, 54.8206 L 457.101, 37.7866 z "/>
<path style="fill:rgb(100, 212, 255);fill-opacity:1.0;fill-rule:evenodd;stroke:rgb(0, 0, 0);stroke-width:3.0;" d="M 627.456, 247.803 L 608.346, 262.547 L 629.301, 235.8 z "/>
<path style="fill:rgb(100, 212, 255);fill-opacity:1.0;fill-rule:evenodd;stroke:rgb(0, 0, 0);stroke-width:3.0;" d="M 202.103, 568.319 L 203.103, 593.061 L 193.625, 588.566 L 195.271, 567.602 z "/>
<path style="fill:rgb(100, 212, 255);fill-opacity:1.0;fill-rule:evenodd;stroke:rgb(0, 0, 0);stroke-width:3.0;" d="M 467.898, 80.2178 L 462.783, 96.0429 L 459.22, 94.7977 L 453.68, 84.4632 L 449.672, 68.6659 L 462.009, 65.2109 z "/>
<path style="fill:rgb(217, 255, 197);fill-opacity:1.0;fill-rule:evenodd;stroke:rgb(0, 0, 0);stroke-width:3.0;" d="M 307.478, 227.931 L 303.886, 230.245 L 326.815, 161.747 L 333.027, 154.976 z "/>
<path style="fill:rgb(217, 255, 197);fill-opacity:1.0;fill-rule:evenodd;stroke:rgb(0, 0, 0);stroke-width:3.0;" d="M 492.31, 63.4536 L 492.355, 71.7973 L 478.196, 48.3564 L 481.911, 36.8631 z "/>
<path style="fill:rgb(217, 255, 197);fill-opacity:1.0;fill-rule:evenodd;stroke:rgb(0, 0, 0);stroke-width:3.0;" d="M 550.32, 172.535 L 363.907, 235.511 L 380.257, 181.048 L 585.699, 48.7076 z "/>
<path style="fill:rgb(108, 154, 255);fill-opacity:1.0;fill-rule:evenodd;stroke:rgb(0, 0, 0);stroke-width:3.0;" d="M 42.3424, 373.2 L 35.9882, 387.299 L 22.6139, 366.339 L 35.1508, 365.974 z "/>
<path style="fill:rgb(108, 154, 255);fill-opacity:1.0;fill-rule:evenodd;stroke:rgb(0, 0, 0);stroke-width:3.0;" d="M 715.274, 359.037 L 673.438, 351.997 L 628.641, 240.098 L 634.092, 204.642 z "/>
<path style="fill:rgb(255, 26, 231);fill-opacity:1.0;fill-rule:evenodd;stroke:rgb(0, 0, 0);stroke-width:3.0;" d="M 387.622, 69.887 L 359.818, 63.1523 L 366.297, 43.7941 z "/>
<path style="fill:rgb(220, 1, 255);fill-opacity:1.0;fill-rule:evenodd;stroke:rgb(0, 0, 0);stroke-width:3.0;" d="M 519.152, 281.623 L 415.579, 400.196 L 393.126, 383.814 L 453.459, 279.044 L 521.297, 274.115 z "/>
<path style="fill:rgb(220, 1, 255);fill-opacity:1.0;fill-rule:evenodd;stroke:rgb(0, 0, 0);stroke-width:3.0;" d="M 201.454, 234.195 L 196.552, 260.582 L 156.987, 303.477 L 175.869, 263.746 L 200.018, 233.643 z "/>
<path style="fill:rgb(220, 1, 255);fill-opacity:1.0;fill-rule:evenodd;stroke:rgb(0, 0, 0);stroke-width:3.0;" d="M 98.5833, 123.998 L 109.806, 136.628 L 104.318, 154.656 L 98.3521, 157.174 L 55.1222, 128.57 L 73.9554, 115.23 z "/>
<path style="fill:rgb(220, 1, 255);fill-opacity:1.0;fill-rule:evenodd;stroke:rgb(0, 0, 0);stroke-width:3.0;" d="M 489.624, 12.9993 L 484.193, 29.802 L 478.476, 32.6868 L 472.827, 19.4052 L 477.49, 8.88247 z "/>
<path style="fill:rgb(220, 1, 255);fill-opacity:1.0;fill-rule:evenodd;stroke:rgb(0, 0, 0);stroke-width:3.0;" d="M 90.3652, 51.9718 L 72.8093, 59.0493 L 68.6918, 54.1872 L 87.73, 43.2062 z "/>
<path style="fill:rgb(220, 1, 255);fill-opacity:1.0;fill-rule:evenodd;stroke:rgb(0, 0, 0);stroke-width:3.0;" d="M 91.986, 229.866 L 95.3988, 236.365 L 90.8835, 236.98 L 72.4095, 227.624 L 76.6022, 226.605 z "/>
<path style="fill:rgb(220, 1, 255);fill-opacity:1.0;fill-rule:evenodd;stroke:rgb(0, 0, 0);stroke-width:3.0;" d="M 599.362, 430.524 L 574.527, 592.056 L 433.596, 581.068 L 499.144, 351.649 z "/>
<path style="fill:rgb(255, 4, 8);fill-opacity:1.0;fill-rule:evenodd;stroke:rgb(0, 0, 0);stroke-width:3.0;" d="M 200.765, 77.0644 L 195.35, 83.9956 L 160.785, 96.4788 L 160.054, 95.7762 L 158.051, 83.2958 L 199.525, 68.8588 z "/>
<path style="fill:rgb(246, 45, 18);fill-opacity:1.0;fill-rule:evenodd;stroke:rgb(0, 0, 0);stroke-width:3.0;" d="M 380.106, 19.6184 L 407.349, 64.8479 L 404.026, 73.8605 L 387.622, 69.887 L 366.297, 43.7941 L 375.84, 15.2876 z "/>
<path style="fill:rgb(234, 17, 12);fill-opacity:1.0;fill-rule:evenodd;stroke:rgb(0, 0, 0);stroke-width:3.0;" d="M 132.967, 73.4322 L 39.9292, 139.331 L 38.8246, 86.6418 L 93.9611, 52.515 z "/>
<path style="fill:rgb(234, 17, 12);fill-opacity:1.0;fill-rule:evenodd;stroke:rgb(0, 0, 0);stroke-width:3.0;" d="M 623.563, 273.121 L 612.668, 289.789 L 608.256, 283.077 L 625.689, 259.294 z "/>
<path style="fill:rgb(234, 17, 12);fill-opacity:1.0;fill-rule:evenodd;stroke:rgb(0, 0, 0);stroke-width:3.0;" d="M 133.828, 208.743 L 121.518, 207.396 L 116.666, 203.257 L 112.844, 173.593 L 124.841, 171.01 z "/>
<path style="fill:rgb(46, 192, 246);fill-opacity:1.0;fill-rule:evenodd;stroke:rgb(0, 0, 0);stroke-width:3.0;" d="M 109.343, 220.724 L 111.864, 234.122 L 102.761, 235.362 L 98.5088, 229.813 L 102.67, 216.912 z "/>
<path style="fill:rgb(46, 192, 246);fill-opacity:1.0;fill-rule:evenodd;stroke:rgb(0, 0, 0);stroke-width:3.0;" d="M 665.788, 332.888 L 673.438, 351.997 L 660.195, 349.768 L 660.724, 331.257 z "/>
<path style="fill:rgb(46, 192, 246);fill-opacity:1.0;fill-rule:evenodd;stroke:rgb(0, 0, 0);stroke-width:3.0;" d="M 631.694, 19.0786 L 622.59, 24.9434 L 607.541, 22.6952 L 613.415, 16.3401 L 629.485, 12.5332 z "/>
<path style="fill:rgb(220, 16, 6);fill-opacity:1.0;fill-rule:evenodd;stroke:rgb(0, 0, 0);stroke-width:3.0;" d="M 339.85, 486.894 L 337.408, 480.569 L 361.567, 438.617 L 382.428, 438.149 z "/>
<path style="fill:rgb(220, 16, 6);fill-opacity:1.0;fill-rule:evenodd;stroke:rgb(0, 0, 0);stroke-width:3.0;" d="M 599.362, 430.524 L 548.471, 390.471 L 610.991, 354.89 z "/>
<path style="fill:rgb(220, 16, 6);fill-opacity:1.0;fill-rule:evenodd;stroke:rgb(0, 0, 0);stroke-width:3.0;" d="M 521.297, 274.115 L 453.459, 279.044 L 506.213, 187.435 L 550.32, 172.535 z "/>
<path style="fill:rgb(255, 78, 10);fill-opacity:1.0;fill-rule:evenodd;stroke:rgb(0, 0, 0);stroke-width:3.0;" d="M 339.786, 122.995 L 303.886, 230.245 L 231.013, 277.187 L 222.056, 217.924 L 339.231, 122.375 z "/>
<path style="fill:rgb(255, 78, 10);fill-opacity:1.0;fill-rule:evenodd;stroke:rgb(0, 0, 0);stroke-width:3.0;" d="M 436.83, 99.3509 L 438.529, 108.426 L 426.567, 117.415 L 425.414, 116.601 L 429.461, 101.079 L 432.615, 99.1797 z "/>
<path style="fill:rgb(223, 255, 9);fill-opacity:1.0;fill-rule:evenodd;stroke:rgb(0, 0, 0);stroke-width:3.0;" d="M 558.878, 56.1345 L 559.406, 65.6447 L 549.413, 72.082 L 554.746, 51.4737 z "/>
<path style="fill:rgb(22, 231, 255);fill-opacity:1.0;fill-rule:evenodd;stroke:rgb(0, 0, 0);stroke-width:3.0;" d="M 95.2813, 185.015 L 95.347, 185.071 L 95.1689, 192.158 L 91.953, 204.16 L 8.62352, 195.041 L 33.8393, 184.399 z "/>
<path style="fill:rgb(22, 231, 255);fill-opacity:1.0;fill-rule:evenodd;stroke:rgb(0, 0, 0);stroke-width:3.0;" d="M 259.237, 570.823 L 223.102, 591.796 L 224.631, 562.4 z "/>
<path style="fill:rgb(8, 197, 255);fill-opacity:1.0;fill-rule:evenodd;stroke:rgb(0, 0, 0);stroke-width:3.0;" d="M 166.279, 283.925 L 162.315, 292.265 L 146.986, 301.936 L 144.672, 302.635 L 165.728, 276.387 z "/>
<path style="fill:rgb(8, 197, 255);fill-opacity:1.0;fill-rule:evenodd;stroke:rgb(0, 0, 0);stroke-width:3.0;" d="M 231.013, 277.187 L 108.359, 356.198 L 186.835, 271.117 L 227.936, 256.829 z "/>
<path style="fill:rgb(246, 204, 21);fill-opacity:1.0;fill-rule:evenodd;stroke:rgb(0, 0, 0);stroke-width:3.0;" d="M 130.365, 482.338 L 99.1508, 487.132 L 113.683, 478.223 z "/>
<path style="fill:rgb(246, 204, 21);fill-opacity:1.0;fill-rule:evenodd;stroke:rgb(0, 0, 0);stroke-width:3.0;" d="M 415.579, 400.196 L 405.157, 412.128 L 367.9, 427.619 L 393.126, 383.814 z "/>
<path style="fill:rgb(252, 24, 255);fill-opacity:1.0;fill-rule:evenodd;stroke:rgb(0, 0, 0);stroke-width:3.0;" d="M 494.858, 366.652 L 473.572, 441.153 L 456.439, 364.921 z "/>
<path style="fill:rgb(252, 24, 255);fill-opacity:1.0;fill-rule:evenodd;stroke:rgb(0, 0, 0);stroke-width:3.0;" d="M 506.497, 99.7274 L 492.555, 108.709 L 492.31, 63.4536 z "/>
<path style="fill:rgb(252, 24, 255);fill-opacity:1.0;fill-rule:evenodd;stroke:rgb(0, 0, 0);stroke-width:3.0;" d="M 151.162, 67.7877 L 137.82, 84.1318 L 125.393, 79.6471 L 126.748, 77.8368 L 151.849, 60.0577 z "/>
<path style="fill:rgb(252, 24, 255);fill-opacity:1.0;fill-rule:evenodd;stroke:rgb(0, 0, 0);stroke-width:3.0;" d="M 454.588, 46.2953 L 462.009, 65.2109 L 455.991, 66.8964 L 449.471, 65.3591 L 427.722, 25.9662 z "/>
<path style="fill:rgb(102, 255, 62);fill-opacity:1.0;fill-rule:evenodd;stroke:rgb(0, 0, 0);stroke-width:3.0;" d="M 311.678, 505.523 L 262.794, 572.333 L 264.956, 565.132 L 281.618, 530.698 L 310.698, 505.004 z "/>
<path style="fill:rgb(75, 243, 255);fill-opacity:1.0;fill-rule:evenodd;stroke:rgb(0, 0, 0);stroke-width:3.0;" d="M 155.262, 21.6709 L 123.337, 56.0958 L 107.788, 59.9299 L 93.9611, 52.515 L 155.929, 14.1596 z "/>
<path style="fill:rgb(121, 0, 215);fill-opacity:1.0;fill-rule:evenodd;stroke:rgb(0, 0, 0);stroke-width:3.0;" d="M 467.374, 31.7116 L 463.396, 40.6889 L 447.205, 22.2363 L 448.428, 8.83554 z "/>
<path style="fill:rgb(121, 0, 215);fill-opacity:1.0;fill-rule:evenodd;stroke:rgb(0, 0, 0);stroke-width:3.0;" d="M 115.818, 111.083 L 104.201, 125.314 L 97.4157, 123.582 L 94.6463, 122.596 L 94.1183, 121.349 L 109.187, 102.929 z "/>
<path style="fill:rgb(255, 255, 39);fill-opacity:1.0;fill-rule:evenodd;stroke:rgb(0, 0, 0);stroke-width:3.0;" d="M 453.391, 84.3093 L 453.691, 84.4834 L 459.22, 94.7977 L 442.463, 88.9421 L 445.32, 81.5013 z "/>
<path style="fill:rgb(255, 255, 39);fill-opacity:1.0;fill-rule:evenodd;stroke:rgb(0, 0, 0);stroke-width:3.0;" d="M 46.6942, 160.123 L 48.0582, 178.399 L 47.8332, 178.494 L 26.1594, 154.624 z "/>
<path style="fill:rgb(107, 255, 246);fill-opacity:1.0;fill-rule:evenodd;stroke:rgb(0, 0, 0);stroke-width:3.0;" d="M 89.9368, 225.964 L 51.4621, 210.467 L 79.4014, 205.902 z "/>
<path style="fill:rgb(107, 255, 246);fill-opacity:1.0;fill-rule:evenodd;stroke:rgb(0, 0, 0);stroke-width:3.0;" d="M 85.9086, 224.341 L 37.6076, 236.087 L 38.6025, 205.287 z "/>
<path style="fill:rgb(255, 187, 7);fill-opacity:1.0;fill-rule:evenodd;stroke:rgb(0, 0, 0);stroke-width:3.0;" d="M 176.709, 133.855 L 173.081, 137.033 L 156.444, 135.382 L 155.296, 133.142 L 167.856, 127.842 z "/>
<path style="fill:rgb(240, 2, 9);fill-opacity:1.0;fill-rule:evenodd;stroke:rgb(0, 0, 0);stroke-width:3.0;" d="M 195.622, 43.032 L 153.393, 84.9175 L 149.519, 86.2658 L 154.791, 26.9659 L 191.984, 18.9642 z "/>
<path style="fill:rgb(252, 252, 13);fill-opacity:1.0;fill-rule:evenodd;stroke:rgb(0, 0, 0);stroke-width:3.0;" d="M 483.651, 226.616 L 482.169, 229.188 L 415.635, 256.021 L 388.536, 227.191 L 473.266, 198.566 z "/>
<path style="fill:rgb(255, 207, 79);fill-opacity:1.0;fill-rule:evenodd;stroke:rgb(0, 0, 0);stroke-width:3.0;" d="M 152.848, 48.8186 L 147.743, 50.0776 L 145.148, 32.5766 L 155.262, 21.6709 z "/>
<path style="fill:rgb(255, 207, 79);fill-opacity:1.0;fill-rule:evenodd;stroke:rgb(0, 0, 0);stroke-width:3.0;" d="M 35.7801, 324.204 L 25.8604, 300.286 L 80.0204, 273.584 z "/>
<path style="fill:rgb(255, 207, 79);fill-opacity:1.0;fill-rule:evenodd;stroke:rgb(0, 0, 0);stroke-width:3.0;" d="M 431.2, 44.6775 L 415.752, 42.0609 L 421.387, 26.7778 z "/>
<path style="fill:rgb(223, 255, 9);fill-opacity:1.0;fill-rule:evenodd;stroke:rgb(0, 0, 0);stroke-width:3.0;" d="M 447.311, 289.72 L 331.372, 491.051 L 287.901, 488.698 L 363.907, 235.511 L 388.536, 227.191 z "/>
<path style="fill:rgb(64, 154, 204);fill-opacity:1.0;fill-rule:evenodd;stroke:rgb(0, 0, 0);stroke-width:3.0;" d="M 227.936, 256.829 L 194.429, 268.477 L 225.66, 241.768 z "/>
<path style="fill:rgb(228, 170, 11);fill-opacity:1.0;fill-rule:evenodd;stroke:rgb(0, 0, 0);stroke-width:3.0;" d="M 614.76, 330.374 L 610.991, 354.89 L 548.471, 390.471 L 499.144, 351.649 L 512.11, 306.267 z "/>
<path style="fill:rgb(228, 170, 11);fill-opacity:1.0;fill-rule:evenodd;stroke:rgb(0, 0, 0);stroke-width:3.0;" d="M 212.583, 252.951 L 194.429, 268.477 L 186.835, 271.117 L 204.094, 252.405 L 210.534, 248.672 z "/>
<path style="fill:rgb(217, 0, 38);fill-opacity:1.0;fill-rule:evenodd;stroke:rgb(0, 0, 0);stroke-width:3.0;" d="M 77.652, 202.595 L 77.6927, 202.648 L 79.4014, 205.902 L 57.3318, 209.508 L 45.4016, 199.066 z "/>
<path style="fill:rgb(217, 0, 38);fill-opacity:1.0;fill-rule:evenodd;stroke:rgb(0, 0, 0);stroke-width:3.0;" d="M 83.649, 29.6312 L 87.73, 43.2062 L 79.207, 48.1222 L 60.6162, 29.3162 L 61.644, 23.1887 z "/>
<path style="fill:rgb(217, 0, 38);fill-opacity:1.0;fill-rule:evenodd;stroke:rgb(0, 0, 0);stroke-width:3.0;" d="M 29.4473, 252.065 L 17.9729, 281.268 L 5.38178, 250.908 z "/>
<path style="fill:rgb(28, 177, 132);fill-opacity:1.0;fill-rule:evenodd;stroke:rgb(0, 0, 0);stroke-width:3.0;" d="M 120.295, 450.139 L 29.2548, 407.155 L 117.062, 350.592 z "/>
<path style="fill:rgb(41, 234, 249);fill-opacity:1.0;fill-rule:evenodd;stroke:rgb(0, 0, 0);stroke-width:3.0;" d="M 195.51, 474.473 L 150.515, 485.321 L 154.825, 453.001 L 201.897, 424.144 z "/>
<path style="fill:rgb(41, 234, 249);fill-opacity:1.0;fill-rule:evenodd;stroke:rgb(0, 0, 0);stroke-width:3.0;" d="M 494.858, 366.652 L 456.439, 364.921 L 454.382, 355.773 L 519.152, 281.623 z "/>
<path style="fill:rgb(41, 234, 249);fill-opacity:1.0;fill-rule:evenodd;stroke:rgb(0, 0, 0);stroke-width:3.0;" d="M 90.3215, 178.443 L 88.13, 178.915 L 74.4622, 167.256 L 90.9649, 160.291 z "/>
<path style="fill:rgb(41, 234, 249);fill-opacity:1.0;fill-rule:evenodd;stroke:rgb(0, 0, 0);stroke-width:3.0;" d="M 629.301, 235.8 L 607.801, 263.242 L 623.12, 232.131 L 630.095, 230.639 z "/>
<path style="fill:rgb(41, 234, 249);fill-opacity:1.0;fill-rule:evenodd;stroke:rgb(0, 0, 0);stroke-width:3.0;" d="M 90.0278, 262.133 L 80.0204, 273.584 L 25.8604, 300.286 L 17.9729, 281.268 L 32.2357, 244.969 L 73.7947, 239.308 z "/>
<path style="fill:rgb(41, 234, 249);fill-opacity:1.0;fill-rule:evenodd;stroke:rgb(0, 0, 0);stroke-width:3.0;" d="M 213.395, 333.543 L 117.118, 352.323 L 117.062, 350.592 L 219.615, 284.53 z "/>
<path style="fill:rgb(41, 234, 249);fill-opacity:1.0;fill-rule:evenodd;stroke:rgb(0, 0, 0);stroke-width:3.0;" d="M 116.342, 202.98 L 93.1081, 183.161 L 107.728, 174.695 L 111.963, 173.783 z "/>
<path style="fill:rgb(249, 24, 255);fill-opacity:1.0;fill-rule:evenodd;stroke:rgb(0, 0, 0);stroke-width:3.0;" d="M 102.67, 216.912 L 101.604, 220.218 L 91.8614, 221.138 L 88.9335, 217.318 L 87.2935, 208.129 z "/>
<path style="fill:rgb(249, 255, 19);fill-opacity:1.0;fill-rule:evenodd;stroke:rgb(0, 0, 0);stroke-width:3.0;" d="M 449.89, 91.5375 L 439.045, 110.569 L 436.916, 96.5885 L 446.986, 90.5227 z "/>
<path style="fill:rgb(7, 249, 9);fill-opacity:1.0;fill-rule:evenodd;stroke:rgb(0, 0, 0);stroke-width:3.0;" d="M 133.057, 329.421 L 108.359, 356.198 L 102.352, 360.068 L 106.445, 350.288 L 130.099, 320.801 z "/>
<path style="fill:rgb(39, 37, 159);fill-opacity:1.0;fill-rule:evenodd;stroke:rgb(0, 0, 0);stroke-width:3.0;" d="M 342.685, 114.336 L 339.786, 122.995 L 320.111, 101.04 L 346.056, 46.3605 z "/>
<path style="fill:rgb(179, 7, 255);fill-opacity:1.0;fill-rule:evenodd;stroke:rgb(0, 0, 0);stroke-width:3.0;" d="M 121.58, 157.319 L 124.841, 171.01 L 90.3215, 178.443 L 90.9649, 160.291 L 108.96, 152.697 z "/>
<path style="fill:rgb(179, 7, 255);fill-opacity:1.0;fill-rule:evenodd;stroke:rgb(0, 0, 0);stroke-width:3.0;" d="M 109.841, 197.435 L 94.8872, 203.366 L 95.347, 185.071 z "/>
<path style="fill:rgb(255, 27, 179);fill-opacity:1.0;fill-rule:evenodd;stroke:rgb(0, 0, 0);stroke-width:3.0;" d="M 214.551, 212.204 L 202.1, 221.83 L 200.822, 222.005 L 190.572, 201.997 L 193.197, 197.925 z "/>
<path style="fill:rgb(255, 10, 40);fill-opacity:1.0;fill-rule:evenodd;stroke:rgb(0, 0, 0);stroke-width:3.0;" d="M 331.372, 491.051 L 321.995, 507.335 L 319.809, 509.837 L 316.927, 508.308 L 295.72, 489.121 z "/>
<path style="fill:rgb(255, 159, 234);fill-opacity:1.0;fill-rule:evenodd;stroke:rgb(0, 0, 0);stroke-width:3.0;" d="M 441.562, 61.8578 L 440.811, 80.5478 L 435.328, 86.4487 L 425.498, 83.0137 L 423.69, 69.503 L 436.316, 52.0702 z "/>
<path style="fill:rgb(217, 25, 47);fill-opacity:1.0;fill-rule:evenodd;stroke:rgb(0, 0, 0);stroke-width:3.0;" d="M 366.595, 42.9054 L 361.827, 57.1486 L 345.486, 57.8503 L 346.781, 31.7463 z "/>
<path style="fill:rgb(217, 25, 47);fill-opacity:1.0;fill-rule:evenodd;stroke:rgb(0, 0, 0);stroke-width:3.0;" d="M 62.0769, 164.243 L 47.8711, 175.891 L 46.6942, 160.123 z "/>
<path style="fill:rgb(217, 25, 47);fill-opacity:1.0;fill-rule:evenodd;stroke:rgb(0, 0, 0);stroke-width:3.0;" d="M 499.96, 198.295 L 483.651, 226.616 L 473.266, 198.566 L 492.659, 192.014 z "/>
<path style="fill:rgb(126, 231, 67);fill-opacity:1.0;fill-rule:evenodd;stroke:rgb(0, 0, 0);stroke-width:3.0;" d="M 619.421, 300.064 L 614.76, 330.374 L 512.11, 306.267 L 527.445, 252.596 L 580.731, 241.198 z "/>
<path style="fill:rgb(126, 231, 67);fill-opacity:1.0;fill-rule:evenodd;stroke:rgb(0, 0, 0);stroke-width:3.0;" d="M 198.271, 189.957 L 188.791, 198.522 L 174.033, 169.715 z "/>
<path style="fill:rgb(126, 231, 67);fill-opacity:1.0;fill-rule:evenodd;stroke:rgb(0, 0, 0);stroke-width:3.0;" d="M 25.4253, 97.0162 L 16.6828, 111.967 L 8.11847, 105.647 L 22.7575, 96.5865 z "/>
<path style="fill:rgb(126, 231, 67);fill-opacity:1.0;fill-rule:evenodd;stroke:rgb(0, 0, 0);stroke-width:3.0;" d="M 362.293, 40.4828 L 346.781, 31.7463 L 346.931, 28.7209 L 360.079, 20.9788 z "/>
<path style="fill:rgb(11, 5, 226);fill-opacity:1.0;fill-rule:evenodd;stroke:rgb(0, 0, 0);stroke-width:3.0;" d="M 134.285, 88.4611 L 115.818, 111.083 L 108.551, 102.148 L 123.106, 82.7033 z "/>
<path style="fill:rgb(255, 204, 9);fill-opacity:1.0;fill-rule:evenodd;stroke:rgb(0, 0, 0);stroke-width:3.0;" d="M 432.468, 44.8922 L 433.538, 46.888 L 410.369, 77.7269 L 403.487, 75.322 L 404.262, 73.2201 L 427.264, 44.0108 z "/>
<path style="fill:rgb(255, 11, 86);fill-opacity:1.0;fill-rule:evenodd;stroke:rgb(0, 0, 0);stroke-width:3.0;" d="M 128.767, 231.82 L 111.864, 234.122 L 109.343, 220.724 z "/>
<path style="fill:rgb(255, 24, 194);fill-opacity:1.0;fill-rule:evenodd;stroke:rgb(0, 0, 0);stroke-width:3.0;" d="M 136.415, 219.604 L 131.549, 223.647 L 118.871, 217.733 L 134.363, 210.988 z "/>
<path style="fill:rgb(255, 24, 194);fill-opacity:1.0;fill-rule:evenodd;stroke:rgb(0, 0, 0);stroke-width:3.0;" d="M 617.675, 243.189 L 602.412, 274.186 L 580.731, 241.198 L 596.179, 237.894 z "/>
<path style="fill:rgb(231, 150, 170);fill-opacity:1.0;fill-rule:evenodd;stroke:rgb(0, 0, 0);stroke-width:3.0;" d="M 88.5823, 161.297 L 74.0213, 167.442 L 26.1594, 154.624 L 23.0986, 151.253 L 52.0413, 130.752 z "/>
<path style="fill:rgb(79, 138, 179);fill-opacity:1.0;fill-rule:evenodd;stroke:rgb(0, 0, 0);stroke-width:3.0;" d="M 646.631, 285.036 L 664.733, 330.254 L 622.496, 280.062 L 622.601, 279.378 z "/>
<path style="fill:rgb(79, 138, 179);fill-opacity:1.0;fill-rule:evenodd;stroke:rgb(0, 0, 0);stroke-width:3.0;" d="M 202.37, 556.982 L 219.876, 578.416 L 209.678, 593.086 L 204.552, 585.96 L 200.961, 556.639 z "/>
<path style="fill:rgb(79, 138, 179);fill-opacity:1.0;fill-rule:evenodd;stroke:rgb(0, 0, 0);stroke-width:3.0;" d="M 365.89, 64.6232 L 353.607, 181.57 L 317.862, 198.278 L 364.765, 64.3506 z "/>
<path style="fill:rgb(255, 249, 27);fill-opacity:1.0;fill-rule:evenodd;stroke:rgb(0, 0, 0);stroke-width:3.0;" d="M 224.005, 230.818 L 215.805, 239.708 L 213.512, 238.828 L 208.729, 233.135 L 222.967, 223.952 z "/>
<path style="fill:rgb(19, 255, 255);fill-opacity:1.0;fill-rule:evenodd;stroke:rgb(0, 0, 0);stroke-width:3.0;" d="M 449.485, 285.946 L 426.521, 251.631 L 482.169, 229.188 z "/>
<path style="fill:rgb(19, 255, 255);fill-opacity:1.0;fill-rule:evenodd;stroke:rgb(0, 0, 0);stroke-width:3.0;" d="M 492.355, 71.7973 L 492.555, 108.709 L 449.784, 136.261 L 478.196, 48.3564 z "/>
<path style="fill:rgb(19, 255, 255);fill-opacity:1.0;fill-rule:evenodd;stroke:rgb(0, 0, 0);stroke-width:3.0;" d="M 222.967, 223.952 L 208.729, 233.135 L 204.481, 228.079 L 210.4, 220.7 L 222.232, 219.088 z "/>
<path style="fill:rgb(255, 10, 33);fill-opacity:1.0;fill-rule:evenodd;stroke:rgb(0, 0, 0);stroke-width:3.0;" d="M 351.952, 199.282 L 343.952, 204.435 L 316.481, 202.223 L 317.862, 198.278 L 345.373, 185.419 z "/>
<path style="fill:rgb(255, 10, 33);fill-opacity:1.0;fill-rule:evenodd;stroke:rgb(0, 0, 0);stroke-width:3.0;" d="M 199.103, 69.0057 L 153.393, 84.9175 L 180.484, 58.0467 z "/>
<path style="fill:rgb(249, 252, 25);fill-opacity:1.0;fill-rule:evenodd;stroke:rgb(0, 0, 0);stroke-width:3.0;" d="M 374.485, 19.3336 L 367.806, 39.2867 L 361.16, 17.8048 z "/>
<path style="fill:rgb(79, 7, 255);fill-opacity:1.0;fill-rule:evenodd;stroke:rgb(0, 0, 0);stroke-width:3.0;" d="M 382.428, 438.149 L 361.567, 438.617 L 367.9, 427.619 L 405.157, 412.128 z "/>
<path style="fill:rgb(255, 132, 197);fill-opacity:1.0;fill-rule:evenodd;stroke:rgb(0, 0, 0);stroke-width:3.0;" d="M 95.2813, 185.015 L 33.8393, 184.399 L 74.4622, 167.256 z "/>
<path style="fill:rgb(54, 0, 246);fill-opacity:1.0;fill-rule:evenodd;stroke:rgb(0, 0, 0);stroke-width:3.0;" d="M 38.8267, 198.346 L 37.348, 244.123 L 21.9468, 207.806 L 26.7795, 197.028 z "/>
<path style="fill:rgb(54, 0, 246);fill-opacity:1.0;fill-rule:evenodd;stroke:rgb(0, 0, 0);stroke-width:3.0;" d="M 343.952, 204.435 L 307.478, 227.931 L 316.481, 202.223 z "/>
<path style="fill:rgb(255, 246, 37);fill-opacity:1.0;fill-rule:evenodd;stroke:rgb(0, 0, 0);stroke-width:3.0;" d="M 121.06, 473.7 L 104.079, 484.11 L 18.4593, 498.789 L 23.8361, 487.429 L 120.825, 466.475 z "/>
<path style="fill:rgb(255, 144, 12);fill-opacity:1.0;fill-rule:evenodd;stroke:rgb(0, 0, 0);stroke-width:3.0;" d="M 570.797, 186.876 L 583.312, 161.907 L 617.874, 156.384 z "/>
<path style="fill:rgb(255, 144, 12);fill-opacity:1.0;fill-rule:evenodd;stroke:rgb(0, 0, 0);stroke-width:3.0;" d="M 354.586, 78.7811 L 353.906, 78.8336 L 345.229, 63.0391 L 345.486, 57.8503 L 361.827, 57.1486 z "/>
<path style="fill:rgb(255, 5, 255);fill-opacity:1.0;fill-rule:evenodd;stroke:rgb(0, 0, 0);stroke-width:3.0;" d="M 660.884, 325.679 L 660.195, 349.768 L 654.068, 348.737 L 652.925, 316.222 z "/>
<path style="fill:rgb(255, 5, 255);fill-opacity:1.0;fill-rule:evenodd;stroke:rgb(0, 0, 0);stroke-width:3.0;" d="M 152.033, 57.9851 L 113.076, 62.4125 L 111.916, 58.9121 L 152.848, 48.8186 z "/>
<path style="fill:rgb(217, 12, 255);fill-opacity:1.0;fill-rule:evenodd;stroke:rgb(0, 0, 0);stroke-width:3.0;" d="M 141.099, 139.134 L 119.961, 148.055 L 111.827, 138.902 L 117.147, 130.607 z "/>
<path style="fill:rgb(207, 154, 13);fill-opacity:1.0;fill-rule:evenodd;stroke:rgb(0, 0, 0);stroke-width:3.0;" d="M 630.095, 230.639 L 527.445, 252.596 L 540.641, 206.408 L 617.874, 156.384 L 642.107, 152.511 z "/>
<path style="fill:rgb(207, 154, 13);fill-opacity:1.0;fill-rule:evenodd;stroke:rgb(0, 0, 0);stroke-width:3.0;" d="M 161.981, 281.057 L 94.5864, 365.07 L 78.0565, 375.718 L 73.7908, 377.239 L 55.2945, 301.875 L 114.866, 233.713 L 119.175, 233.126 z "/>
<path style="fill:rgb(207, 154, 13);fill-opacity:1.0;fill-rule:evenodd;stroke:rgb(0, 0, 0);stroke-width:3.0;" d="M 319.809, 509.837 L 311.915, 518.875 L 303.312, 516.957 L 311.678, 505.523 z "/>
<path style="fill:rgb(207, 154, 13);fill-opacity:1.0;fill-rule:evenodd;stroke:rgb(0, 0, 0);stroke-width:3.0;" d="M 70.0207, 166.37 L 72.2828, 168.176 L 48.0582, 178.399 L 47.8711, 175.891 L 62.0769, 164.243 z "/>
<path style="fill:rgb(207, 154, 13);fill-opacity:1.0;fill-rule:evenodd;stroke:rgb(0, 0, 0);stroke-width:3.0;" d="M 413.777, 32.7545 L 413.303, 48.7026 L 412.065, 52.0596 L 384.945, 24.5309 z "/>
<path style="fill:rgb(207, 154, 13);fill-opacity:1.0;fill-rule:evenodd;stroke:rgb(0, 0, 0);stroke-width:3.0;" d="M 449.485, 285.946 L 447.311, 289.72 L 415.635, 256.021 L 426.521, 251.631 z "/>
<path style="fill:rgb(243, 12, 15);fill-opacity:1.0;fill-rule:evenodd;stroke:rgb(0, 0, 0);stroke-width:3.0;" d="M 90.0278, 262.133 L 73.7947, 239.308 L 114.866, 233.713 z "/>
<path style="fill:rgb(243, 12, 15);fill-opacity:1.0;fill-rule:evenodd;stroke:rgb(0, 0, 0);stroke-width:3.0;" d="M 161.981, 281.057 L 119.175, 233.126 L 210.4, 220.7 z "/>
<path style="fill:rgb(142, 78, 255);fill-opacity:1.0;fill-rule:evenodd;stroke:rgb(0, 0, 0);stroke-width:3.0;" d="M 201.897, 424.144 L 121.06, 473.7 L 119.027, 411.092 L 211.42, 349.102 z "/>
<path style="fill:rgb(142, 78, 255);fill-opacity:1.0;fill-rule:evenodd;stroke:rgb(0, 0, 0);stroke-width:3.0;" d="M 31.6668, 380.526 L 24.1735, 391.886 L 8.64453, 391.801 L 16.3514, 366.521 L 22.6139, 366.339 z "/>
<path style="fill:rgb(105, 76, 255);fill-opacity:1.0;fill-rule:evenodd;stroke:rgb(0, 0, 0);stroke-width:3.0;" d="M 33.4506, 173.384 L 33.3908, 183.247 L 32.0676, 185.147 L 26.2803, 187.59 L 19.2744, 181.663 L 24.9484, 173.37 z "/>
<path style="fill:rgb(105, 76, 255);fill-opacity:1.0;fill-rule:evenodd;stroke:rgb(0, 0, 0);stroke-width:3.0;" d="M 216.888, 183.731 L 219.422, 200.497 L 203.338, 204.706 L 191.045, 196.486 L 213.679, 176.036 z "/>
<path style="fill:rgb(249, 100, 16);fill-opacity:1.0;fill-rule:evenodd;stroke:rgb(0, 0, 0);stroke-width:3.0;" d="M 434.545, 48.7677 L 433.749, 55.6145 L 423.69, 69.503 L 422.61, 61.4332 L 433.538, 46.888 z "/>
<path style="fill:rgb(249, 100, 16);fill-opacity:1.0;fill-rule:evenodd;stroke:rgb(0, 0, 0);stroke-width:3.0;" d="M 311.915, 518.875 L 261.524, 576.565 L 262.794, 572.333 L 303.312, 516.957 z "/>
<path style="fill:rgb(249, 100, 16);fill-opacity:1.0;fill-rule:evenodd;stroke:rgb(0, 0, 0);stroke-width:3.0;" d="M 35.6417, 20.6144 L 32.5064, 24.9691 L 8.82277, 31.9684 L 23.6087, 9.001 z "/>
<path style="fill:rgb(207, 255, 31);fill-opacity:1.0;fill-rule:evenodd;stroke:rgb(0, 0, 0);stroke-width:3.0;" d="M 112.322, 494.529 L 70.7274, 504.556 L 94.4579, 490.008 z "/>
<path style="fill:rgb(207, 255, 31);fill-opacity:1.0;fill-rule:evenodd;stroke:rgb(0, 0, 0);stroke-width:3.0;" d="M 378.153, 67.5935 L 398.883, 87.8095 L 366.539, 175.526 L 353.607, 181.57 L 365.89, 64.6232 z "/>
<path style="fill:rgb(194, 18, 226);fill-opacity:1.0;fill-rule:evenodd;stroke:rgb(0, 0, 0);stroke-width:3.0;" d="M 211.42, 349.102 L 119.027, 411.092 L 117.118, 352.323 L 213.395, 333.543 z "/>
<path style="fill:rgb(243, 47, 24);fill-opacity:1.0;fill-rule:evenodd;stroke:rgb(0, 0, 0);stroke-width:3.0;" d="M 646.631, 285.036 L 622.601, 279.378 L 628.641, 240.098 z "/>
<path style="fill:rgb(112, 0, 255);fill-opacity:1.0;fill-rule:evenodd;stroke:rgb(0, 0, 0);stroke-width:3.0;" d="M 62.3854, 133.376 L 71.1379, 139.167 L 84.6416, 153.415 L 83.8748, 157.362 L 52.0413, 130.752 L 53.6549, 129.609 z "/>
<path style="fill:rgb(252, 40, 14);fill-opacity:1.0;fill-rule:evenodd;stroke:rgb(0, 0, 0);stroke-width:3.0;" d="M 176.678, 137.389 L 212.316, 153.487 L 215.479, 174.41 L 198.271, 189.957 L 174.033, 169.715 L 156.444, 135.382 z "/>
<path style="fill:rgb(17, 255, 223);fill-opacity:1.0;fill-rule:evenodd;stroke:rgb(0, 0, 0);stroke-width:3.0;" d="M 568.35, 15.646 L 589.412, 27.3491 L 592.109, 29.7091 L 591.453, 35.6971 L 564.756, 15.5686 z "/>
<path style="fill:rgb(10, 88, 255);fill-opacity:1.0;fill-rule:evenodd;stroke:rgb(0, 0, 0);stroke-width:3.0;" d="M 215.805, 239.708 L 203.015, 253.575 L 201.018, 236.542 L 201.454, 234.195 z "/>
<path style="fill:rgb(255, 197, 179);fill-opacity:1.0;fill-rule:evenodd;stroke:rgb(0, 0, 0);stroke-width:3.0;" d="M 151.849, 60.0577 L 132.967, 73.4322 L 117.347, 65.0557 L 114.615, 62.2375 L 152.033, 57.9851 z "/>
<path style="fill:rgb(255, 50, 240);fill-opacity:1.0;fill-rule:evenodd;stroke:rgb(0, 0, 0);stroke-width:3.0;" d="M 53.773, 70.114 L 52.4113, 78.2323 L 49.3496, 80.1273 L 32.7239, 77.9049 L 51.45, 55.6162 z "/>
<path style="fill:rgb(255, 255, 31);fill-opacity:1.0;fill-rule:evenodd;stroke:rgb(0, 0, 0);stroke-width:3.0;" d="M 147.572, 465.172 L 144.474, 485.819 L 113.683, 478.223 L 144.527, 459.314 z "/>
<path style="fill:rgb(243, 246, 35);fill-opacity:1.0;fill-rule:evenodd;stroke:rgb(0, 0, 0);stroke-width:3.0;" d="M 342.342, 54.1882 L 320.111, 101.04 L 277.668, 53.6831 z "/>
<path style="fill:rgb(30, 10, 255);fill-opacity:1.0;fill-rule:evenodd;stroke:rgb(0, 0, 0);stroke-width:3.0;" d="M 146.438, 486.304 L 112.322, 494.529 L 94.4579, 490.008 L 99.1508, 487.132 L 130.365, 482.338 z "/>
<path style="fill:rgb(30, 10, 255);fill-opacity:1.0;fill-rule:evenodd;stroke:rgb(0, 0, 0);stroke-width:3.0;" d="M 359.594, 194.358 L 351.952, 199.282 L 345.373, 185.419 L 366.539, 175.526 z "/>
<path style="fill:rgb(62, 255, 255);fill-opacity:1.0;fill-rule:evenodd;stroke:rgb(0, 0, 0);stroke-width:3.0;" d="M 422.436, 81.9437 L 425.728, 93.1946 L 415.47, 95.3276 L 416.295, 79.7976 z "/>
<path style="fill:rgb(70, 25, 249);fill-opacity:1.0;fill-rule:evenodd;stroke:rgb(0, 0, 0);stroke-width:3.0;" d="M 145.402, 38.6316 L 147.205, 46.4534 L 147.743, 50.0776 L 137.684, 52.558 L 134.558, 43.9961 L 142.803, 35.1052 z "/>
<path style="fill:rgb(240, 45, 92);fill-opacity:1.0;fill-rule:evenodd;stroke:rgb(0, 0, 0);stroke-width:3.0;" d="M 333.027, 154.976 L 326.815, 161.747 L 353.562, 81.8409 L 361.565, 73.4889 z "/>
<path style="fill:rgb(249, 0, 7);fill-opacity:1.0;fill-rule:evenodd;stroke:rgb(0, 0, 0);stroke-width:3.0;" d="M 212.429, 559.43 L 223.827, 577.852 L 223.765, 579.053 L 221.708, 580.659 L 202.37, 556.982 z "/>
<path style="fill:rgb(255, 142, 10);fill-opacity:1.0;fill-rule:evenodd;stroke:rgb(0, 0, 0);stroke-width:3.0;" d="M 79.207, 48.1222 L 68.6918, 54.1872 L 58.4692, 42.1163 L 60.6162, 29.3162 z "/>
<path style="fill:rgb(255, 243, 17);fill-opacity:1.0;fill-rule:evenodd;stroke:rgb(0, 0, 0);stroke-width:3.0;" d="M 73.7908, 377.239 L 53.5465, 384.457 L 16.048, 346.781 L 55.2945, 301.875 z "/>
<path style="fill:rgb(194, 1, 51);fill-opacity:1.0;fill-rule:evenodd;stroke:rgb(0, 0, 0);stroke-width:3.0;" d="M 97.0054, 510.265 L 61.3022, 512.585 L 64.2079, 508.553 L 70.7274, 504.556 L 147.433, 486.064 z "/>
<path style="fill:rgb(194, 1, 51);fill-opacity:1.0;fill-rule:evenodd;stroke:rgb(0, 0, 0);stroke-width:3.0;" d="M 617.045, 8.98186 L 627.923, 12.9033 L 616.408, 15.6312 L 601.621, 18.5733 L 600.994, 14.9649 L 612.124, 8.94333 z "/>
<path style="fill:rgb(255, 252, 69);fill-opacity:1.0;fill-rule:evenodd;stroke:rgb(0, 0, 0);stroke-width:3.0;" d="M 37.348, 244.123 L 37.3431, 244.273 L 9.72394, 248.035 L 5.2218, 245.105 L 21.9468, 207.806 z "/>
<path style="fill:rgb(255, 252, 69);fill-opacity:1.0;fill-rule:evenodd;stroke:rgb(0, 0, 0);stroke-width:3.0;" d="M 404.026, 73.8605 L 401.32, 81.1994 L 391.9, 81.0003 L 378.153, 67.5935 z "/>
<path style="fill:rgb(123, 255, 255);fill-opacity:1.0;fill-rule:evenodd;stroke:rgb(0, 0, 0);stroke-width:3.0;" d="M 44.9852, 535.231 L 61.3022, 512.585 L 97.0054, 510.265 z "/>
<path style="fill:rgb(148, 255, 57);fill-opacity:1.0;fill-rule:evenodd;stroke:rgb(0, 0, 0);stroke-width:3.0;" d="M 128.955, 222.437 L 127.705, 231.213 L 115.926, 224.484 L 114.65, 220.772 L 116.99, 216.855 z "/>
<path style="fill:rgb(255, 223, 9);fill-opacity:1.0;fill-rule:evenodd;stroke:rgb(0, 0, 0);stroke-width:3.0;" d="M 429.601, 136.753 L 423.255, 141.421 L 416.328, 143.322 L 412.924, 131.923 L 419.13, 125.315 z "/>
<path style="fill:rgb(255, 58, 7);fill-opacity:1.0;fill-rule:evenodd;stroke:rgb(0, 0, 0);stroke-width:3.0;" d="M 414.106, 21.6782 L 413.777, 32.7545 L 384.945, 24.5309 L 383.412, 22.9743 L 387.215, 11.1885 z "/>
<path style="fill:rgb(246, 7, 39);fill-opacity:1.0;fill-rule:evenodd;stroke:rgb(0, 0, 0);stroke-width:3.0;" d="M 174.95, 110.105 L 165.236, 122.538 L 149.063, 125.41 L 161.153, 96.8329 z "/>
<path style="fill:rgb(246, 7, 39);fill-opacity:1.0;fill-rule:evenodd;stroke:rgb(0, 0, 0);stroke-width:3.0;" d="M 625.689, 259.294 L 608.256, 283.077 L 602.412, 274.186 L 607.801, 263.242 L 608.346, 262.547 L 627.456, 247.803 z "/>
<path style="fill:rgb(255, 249, 19);fill-opacity:1.0;fill-rule:evenodd;stroke:rgb(0, 0, 0);stroke-width:3.0;" d="M 421.94, 50.7712 L 404.262, 73.2201 L 415.474, 42.8146 z "/>
<path style="fill:rgb(255, 184, 10);fill-opacity:1.0;fill-rule:evenodd;stroke:rgb(0, 0, 0);stroke-width:3.0;" d="M 570.797, 186.876 L 540.641, 206.408 L 551.923, 166.922 L 583.312, 161.907 z "/>
<path style="fill:rgb(128, 62, 217);fill-opacity:1.0;fill-rule:evenodd;stroke:rgb(0, 0, 0);stroke-width:3.0;" d="M 648.161, 310.56 L 617.542, 312.281 L 622.496, 280.062 z "/>
<path style="fill:rgb(255, 85, 202);fill-opacity:1.0;fill-rule:evenodd;stroke:rgb(0, 0, 0);stroke-width:3.0;" d="M 161.153, 96.8329 L 149.063, 125.41 L 145.991, 125.956 L 146.998, 114.622 L 152.346, 88.3612 z "/>
</svg>