<?xml version="1.0" encoding="iso-8859-1" standalone="no"?>
<!DOCTYPE svg PUBLIC "-//W3C//DTD SVG 1.0//EN" "http://www.w3.org/TR/2001/REC-SVG-20010904/DTD/svg10.dtd">
<svg xmlns="http://www.w3.org/2000/svg" width="800" height="600">
<path style="fill:rgb(0, 0, 0);fill-opacity:0.0;fill-rule:evenodd;stroke:rgb(0, 0, 0);stroke-width:0.0;" d="M 0, 600 L 800, 600 L 800, 0 L 0, 0 z "/>
<path style="fill:rgb(121, 228, 255);fill-opacity:1.0;fill-rule:evenodd;stroke:rgb(0, 0, 0);stroke-width:3.0;" d="M 794.402, 427.592 L 623.151, 448.999 L 629.643, 416.112 z "/>
<path style="fill:rgb(121, 228, 255);fill-opacity:1.0;fill-rule:evenodd;stroke:rgb(0, 0, 0);stroke-width:3.0;" d="M 364.135, 424.845 L 342.82, 444.525 L 328.176, 398.356 z "/>
<path style="fill:rgb(121, 228, 255);fill-opacity:1.0;fill-rule:evenodd;stroke:rgb(0, 0, 0);stroke-width:3.0;" d="M 239.491, 333.031 L 219.069, 362.158 L 216.886, 363.459 L 211.724, 340.946 L 228.746, 325.115 z "/>
<path style="fill:rgb(121, 228, 255);fill-opacity:1.0;fill-rule:evenodd;stroke:rgb(0, 0, 0);stroke-width:3.0;" d="M 756.891, 208.898 L 755.749, 219.019 L 729.506, 228.478 L 727.973, 218.101 L 751.28, 204.106 z "/>
<path style="fill:rgb(121, 228, 255);fill-opacity:1.0;fill-rule:evenodd;stroke:rgb(0, 0, 0);stroke-width:3.0;" d="M 175.097, 204.538 L 74.4871, 240.364 L 93.9803, 220.533 L 170.321, 199.047 z "/>
<path style="fill:rgb(121, 228, 255);fill-opacity:1.0;fill-rule:evenodd;stroke:rgb(0, 0, 0);stroke-width:3.0;" d="M 317.71, 424.343 L 307.505, 440.648 L 304.231, 429.526 L 311.758, 423.917 z "/>
<path style="fill:rgb(121, 228, 255);fill-opacity:1.0;fill-rule:evenodd;stroke:rgb(0, 0, 0);stroke-width:3.0;" d="M 336.854, 425.716 L 317.373, 424.319 L 328.838, 400.445 z "/>
<path style="fill:rgb(121, 228, 255);fill-opacity:1.0;fill-rule:evenodd;stroke:rgb(0, 0, 0);stroke-width:3.0;" d="M 688.424, 567.291 L 669.789, 581.554 L 669.403, 573.52 L 676.21, 566.386 z "/>
<path style="fill:rgb(121, 228, 255);fill-opacity:1.0;fill-rule:evenodd;stroke:rgb(0, 0, 0);stroke-width:3.0;" d="M 740.429, 164.791 L 717.647, 214.947 L 696.551, 214.439 L 688.221, 205.598 L 752.575, 110.388 z "/>
<path style="fill:rgb(121, 228, 255);fill-opacity:1.0;fill-rule:evenodd;stroke:rgb(0, 0, 0);stroke-width:3.0;" d="M 130.921, 410.666 L 119.97, 423.586 L 108.158, 429.435 L 107.351, 421.518 L 114.767, 409.305 z "/>
<path style="fill:rgb(121, 228, 255);fill-opacity:1.0;fill-rule:evenodd;stroke:rgb(0, 0, 0);stroke-width:3.0;" d="M 50.4611, 250.066 L 50.6275, 250.453 L 45.6657, 275.883 L 34.8489, 271.192 L 33.2606, 245.85 z "/>
<path style="fill:rgb(255, 255, 17);fill-opacity:1.0;fill-rule:evenodd;stroke:rgb(0, 0, 0);stroke-width:3.0;" d="M 80.5355, 456.99 L 40.6061, 453.557 L 88.9483, 435.786 z "/>
<path style="fill:rgb(249, 41, 16);fill-opacity:1.0;fill-rule:evenodd;stroke:rgb(0, 0, 0);stroke-width:3.0;" d="M 581.105, 581.896 L 561.711, 562.23 L 597.439, 561.817 z "/>
<path style="fill:rgb(61, 240, 255);fill-opacity:1.0;fill-rule:evenodd;stroke:rgb(0, 0, 0);stroke-width:3.0;" d="M 144.395, 169.244 L 78.5192, 236.262 L 45.4002, 119.988 L 89.7654, 106.444 z "/>
<path style="fill:rgb(255, 2, 10);fill-opacity:1.0;fill-rule:evenodd;stroke:rgb(0, 0, 0);stroke-width:3.0;" d="M 89.7654, 106.444 L 45.4002, 119.988 L 18.0649, 24.0194 z "/>
<path style="fill:rgb(249, 19, 75);fill-opacity:1.0;fill-rule:evenodd;stroke:rgb(0, 0, 0);stroke-width:3.0;" d="M 100.733, 299.407 L 89.545, 303.106 L 84.0607, 292.953 L 84.1587, 286.915 L 87.4168, 283.87 z "/>
<path style="fill:rgb(44, 252, 255);fill-opacity:1.0;fill-rule:evenodd;stroke:rgb(0, 0, 0);stroke-width:3.0;" d="M 213.546, 410.69 L 224.344, 426.901 L 136.588, 491.179 L 192.332, 401.119 z "/>
<path style="fill:rgb(44, 252, 255);fill-opacity:1.0;fill-rule:evenodd;stroke:rgb(0, 0, 0);stroke-width:3.0;" d="M 697.354, 393.212 L 666.361, 418.671 L 629.643, 416.112 L 632.232, 402.998 L 641.526, 382.537 z "/>
<path style="fill:rgb(44, 252, 255);fill-opacity:1.0;fill-rule:evenodd;stroke:rgb(0, 0, 0);stroke-width:3.0;" d="M 195.634, 300.725 L 200.017, 303.953 L 176.937, 319.401 L 151.251, 290.576 L 155.729, 284.055 z "/>
<path style="fill:rgb(44, 252, 255);fill-opacity:1.0;fill-rule:evenodd;stroke:rgb(0, 0, 0);stroke-width:3.0;" d="M 717.647, 214.947 L 602.794, 467.81 L 590.76, 426.476 L 704.381, 214.628 z "/>
<path style="fill:rgb(44, 252, 255);fill-opacity:1.0;fill-rule:evenodd;stroke:rgb(0, 0, 0);stroke-width:3.0;" d="M 560.507, 211.166 L 575.651, 374.577 L 527.848, 210.381 z "/>
<path style="fill:rgb(44, 252, 255);fill-opacity:1.0;fill-rule:evenodd;stroke:rgb(0, 0, 0);stroke-width:3.0;" d="M 659.338, 567.695 L 668.634, 582.438 L 654.137, 593.532 L 610.393, 513.618 L 610.979, 510.649 z "/>
<path style="fill:rgb(44, 252, 255);fill-opacity:1.0;fill-rule:evenodd;stroke:rgb(0, 0, 0);stroke-width:3.0;" d="M 785.772, 242.264 L 781.443, 246.718 L 774.469, 231.503 L 777.636, 224.226 z "/>
<path style="fill:rgb(44, 252, 255);fill-opacity:1.0;fill-rule:evenodd;stroke:rgb(0, 0, 0);stroke-width:3.0;" d="M 755.703, 105.761 L 688.221, 205.598 L 659.065, 174.656 L 661.901, 37.088 L 685.241, 16.4613 z "/>
<path style="fill:rgb(44, 252, 255);fill-opacity:1.0;fill-rule:evenodd;stroke:rgb(0, 0, 0);stroke-width:3.0;" d="M 512.715, 534.29 L 419.2, 591.395 L 376.598, 551.008 L 355.281, 483.806 L 382.754, 438.559 z "/>
<path style="fill:rgb(226, 1, 17);fill-opacity:1.0;fill-rule:evenodd;stroke:rgb(0, 0, 0);stroke-width:3.0;" d="M 366.275, 541.222 L 375.619, 550.08 L 374.809, 550.956 L 370.076, 551.133 L 345.337, 539.775 z "/>
<path style="fill:rgb(226, 1, 17);fill-opacity:1.0;fill-rule:evenodd;stroke:rgb(0, 0, 0);stroke-width:3.0;" d="M 296.569, 529.288 L 293.709, 531.043 L 289.504, 524.73 L 301.073, 506.579 z "/>
<path style="fill:rgb(226, 1, 17);fill-opacity:1.0;fill-rule:evenodd;stroke:rgb(0, 0, 0);stroke-width:3.0;" d="M 331.357, 526.957 L 325.319, 529.309 L 301.408, 535.264 L 301.423, 526.31 L 315.112, 517.91 L 332.667, 517.319 z "/>
<path style="fill:rgb(17, 255, 255);fill-opacity:1.0;fill-rule:evenodd;stroke:rgb(0, 0, 0);stroke-width:3.0;" d="M 615.226, 457.879 L 613.32, 466.972 L 599.456, 483.926 L 596.759, 481.097 L 608.047, 456.245 z "/>
<path style="fill:rgb(17, 255, 255);fill-opacity:1.0;fill-rule:evenodd;stroke:rgb(0, 0, 0);stroke-width:3.0;" d="M 26.1008, 231.048 L 22.5502, 239.23 L 22.3452, 239.152 L 13.1143, 229.413 L 19.3897, 222.404 z "/>
<path style="fill:rgb(255, 7, 20);fill-opacity:1.0;fill-rule:evenodd;stroke:rgb(0, 0, 0);stroke-width:3.0;" d="M 60.8651, 489.198 L 62.1675, 491.785 L 59.3614, 495.096 L 42.4782, 500.765 L 8.78097, 499.128 L 6.85792, 495.662 L 35.6959, 478.641 z "/>
<path style="fill:rgb(255, 7, 20);fill-opacity:1.0;fill-rule:evenodd;stroke:rgb(0, 0, 0);stroke-width:3.0;" d="M 729.506, 228.478 L 707.977, 236.238 L 711.805, 227.809 L 727.973, 218.101 z "/>
<path style="fill:rgb(226, 19, 25);fill-opacity:1.0;fill-rule:evenodd;stroke:rgb(0, 0, 0);stroke-width:3.0;" d="M 374.011, 548.556 L 316.97, 494.482 L 348.225, 480.842 z "/>
<path style="fill:rgb(252, 42, 22);fill-opacity:1.0;fill-rule:evenodd;stroke:rgb(0, 0, 0);stroke-width:3.0;" d="M 669.403, 573.52 L 668.124, 546.91 L 699.751, 541.718 z "/>
<path style="fill:rgb(252, 42, 22);fill-opacity:1.0;fill-rule:evenodd;stroke:rgb(0, 0, 0);stroke-width:3.0;" d="M 155.031, 343.382 L 153.953, 344.762 L 128.691, 346.218 L 128.305, 345.987 L 128.978, 343.999 L 139.165, 329.542 z "/>
<path style="fill:rgb(252, 83, 78);fill-opacity:1.0;fill-rule:evenodd;stroke:rgb(0, 0, 0);stroke-width:3.0;" d="M 86.9465, 462.55 L 81.4107, 458.907 L 80.4976, 457.086 L 83.0767, 450.585 L 99.5794, 447.645 z "/>
<path style="fill:rgb(252, 83, 78);fill-opacity:1.0;fill-rule:evenodd;stroke:rgb(0, 0, 0);stroke-width:3.0;" d="M 315.081, 492.691 L 326.047, 503.087 L 305.342, 499.541 L 308.032, 492.322 z "/>
<path style="fill:rgb(255, 194, 30);fill-opacity:1.0;fill-rule:evenodd;stroke:rgb(0, 0, 0);stroke-width:3.0;" d="M 70.4098, 296.495 L 65.302, 301.322 L 46.962, 284.905 L 56.7608, 264.728 z "/>
<path style="fill:rgb(209, 12, 114);fill-opacity:1.0;fill-rule:evenodd;stroke:rgb(0, 0, 0);stroke-width:3.0;" d="M 623.401, 439.685 L 624.55, 440.969 L 620.63, 458.032 L 613.32, 466.972 L 619.258, 438.642 z "/>
<path style="fill:rgb(209, 12, 114);fill-opacity:1.0;fill-rule:evenodd;stroke:rgb(0, 0, 0);stroke-width:3.0;" d="M 146.548, 391.165 L 142.869, 396.569 L 136.036, 404.631 L 121.023, 401.688 L 145.394, 389.423 z "/>
<path style="fill:rgb(209, 12, 114);fill-opacity:1.0;fill-rule:evenodd;stroke:rgb(0, 0, 0);stroke-width:3.0;" d="M 301.669, 536.755 L 328.409, 550.525 L 328.311, 551.143 L 312.517, 552.999 L 301.19, 536.722 z "/>
<path style="fill:rgb(243, 255, 8);fill-opacity:1.0;fill-rule:evenodd;stroke:rgb(0, 0, 0);stroke-width:3.0;" d="M 105.362, 440.823 L 100.438, 446.631 L 85.505, 444.465 L 87.3875, 439.72 L 95.6809, 435.613 z "/>
<path style="fill:rgb(255, 1, 204);fill-opacity:1.0;fill-rule:evenodd;stroke:rgb(0, 0, 0);stroke-width:3.0;" d="M 328.176, 398.356 L 328.838, 400.445 L 317.373, 424.319 L 236.87, 418.548 L 225.26, 407.542 L 242.56, 366.184 L 262.019, 349.625 z "/>
<path style="fill:rgb(255, 1, 204);fill-opacity:1.0;fill-rule:evenodd;stroke:rgb(0, 0, 0);stroke-width:3.0;" d="M 589.39, 561.91 L 569.721, 562.137 L 573.618, 546.828 z "/>
<path style="fill:rgb(255, 1, 204);fill-opacity:1.0;fill-rule:evenodd;stroke:rgb(0, 0, 0);stroke-width:3.0;" d="M 106.265, 430.373 L 87.3875, 439.72 L 97.85, 413.35 L 105.401, 409.55 z "/>
<path style="fill:rgb(228, 255, 13);fill-opacity:1.0;fill-rule:evenodd;stroke:rgb(0, 0, 0);stroke-width:3.0;" d="M 304.019, 482.205 L 293.861, 504.579 L 273.053, 470.558 L 285.404, 464.558 z "/>
<path style="fill:rgb(228, 255, 13);fill-opacity:1.0;fill-rule:evenodd;stroke:rgb(0, 0, 0);stroke-width:3.0;" d="M 325.71, 592.485 L 316.562, 587.667 L 296.416, 573.073 L 302.387, 566.66 z "/>
<path style="fill:rgb(249, 255, 8);fill-opacity:1.0;fill-rule:evenodd;stroke:rgb(0, 0, 0);stroke-width:3.0;" d="M 682.139, 524.001 L 644.329, 498.644 L 703.61, 478.517 z "/>
<path style="fill:rgb(255, 255, 56);fill-opacity:1.0;fill-rule:evenodd;stroke:rgb(0, 0, 0);stroke-width:3.0;" d="M 730.704, 186.532 L 739.359, 211.264 L 729.708, 217.059 L 722.078, 205.193 L 730.596, 186.44 z "/>
<path style="fill:rgb(197, 252, 249);fill-opacity:1.0;fill-rule:evenodd;stroke:rgb(0, 0, 0);stroke-width:3.0;" d="M 691.396, 577.889 L 665.459, 584.867 L 686.521, 568.748 z "/>
<path style="fill:rgb(220, 7, 10);fill-opacity:1.0;fill-rule:evenodd;stroke:rgb(0, 0, 0);stroke-width:3.0;" d="M 259.441, 479.594 L 137.694, 493.47 L 135.79, 492.467 L 136.588, 491.179 L 224.344, 426.901 z "/>
<path style="fill:rgb(6, 38, 255);fill-opacity:1.0;fill-rule:evenodd;stroke:rgb(0, 0, 0);stroke-width:3.0;" d="M 171.826, 362.59 L 171.883, 362.61 L 192.197, 381.212 L 170.495, 371.195 L 169.069, 370.343 L 157.089, 358.377 z "/>
<path style="fill:rgb(255, 252, 70);fill-opacity:1.0;fill-rule:evenodd;stroke:rgb(0, 0, 0);stroke-width:3.0;" d="M 112.898, 301.024 L 109.326, 321.064 L 97.8238, 300.369 L 108.488, 296.843 z "/>
<path style="fill:rgb(119, 240, 126);fill-opacity:1.0;fill-rule:evenodd;stroke:rgb(0, 0, 0);stroke-width:3.0;" d="M 353.29, 585.987 L 329.735, 576.773 L 316.728, 565.601 L 308.622, 553.431 L 349.599, 551.899 z "/>
<path style="fill:rgb(159, 52, 255);fill-opacity:1.0;fill-rule:evenodd;stroke:rgb(0, 0, 0);stroke-width:3.0;" d="M 701.114, 390.123 L 697.354, 393.212 L 641.526, 382.537 L 645.462, 373.872 z "/>
<path style="fill:rgb(255, 182, 7);fill-opacity:1.0;fill-rule:evenodd;stroke:rgb(0, 0, 0);stroke-width:3.0;" d="M 697.092, 297.316 L 674.661, 309.587 L 700.626, 252.422 z "/>
<path style="fill:rgb(255, 138, 34);fill-opacity:1.0;fill-rule:evenodd;stroke:rgb(0, 0, 0);stroke-width:3.0;" d="M 294.624, 422.688 L 276.034, 453.671 L 269.452, 449.435 L 236.87, 418.548 z "/>
<path style="fill:rgb(255, 138, 34);fill-opacity:1.0;fill-rule:evenodd;stroke:rgb(0, 0, 0);stroke-width:3.0;" d="M 774.314, 255.071 L 751.465, 267.571 L 738.245, 261.594 L 769.848, 237.81 z "/>
<path style="fill:rgb(255, 138, 34);fill-opacity:1.0;fill-rule:evenodd;stroke:rgb(0, 0, 0);stroke-width:3.0;" d="M 176.937, 319.401 L 150.764, 336.92 L 131.784, 318.927 L 151.251, 290.576 z "/>
<path style="fill:rgb(249, 255, 55);fill-opacity:1.0;fill-rule:evenodd;stroke:rgb(0, 0, 0);stroke-width:3.0;" d="M 621.891, 508.309 L 659.338, 567.695 L 610.979, 510.649 L 613.178, 499.513 z "/>
<path style="fill:rgb(249, 255, 55);fill-opacity:1.0;fill-rule:evenodd;stroke:rgb(0, 0, 0);stroke-width:3.0;" d="M 71.2891, 555.207 L 17.513, 544.47 L 66.211, 487.014 z "/>
<path style="fill:rgb(249, 255, 55);fill-opacity:1.0;fill-rule:evenodd;stroke:rgb(0, 0, 0);stroke-width:3.0;" d="M 255.446, 344.783 L 260.366, 351.031 L 241.458, 367.122 L 238.088, 350.814 L 252.205, 342.395 z "/>
<path style="fill:rgb(255, 85, 255);fill-opacity:1.0;fill-rule:evenodd;stroke:rgb(0, 0, 0);stroke-width:3.0;" d="M 752.195, 188.342 L 751.746, 204.504 L 730.596, 186.44 L 737.967, 170.212 z "/>
<path style="fill:rgb(255, 2, 29);fill-opacity:1.0;fill-rule:evenodd;stroke:rgb(0, 0, 0);stroke-width:3.0;" d="M 788.259, 261.589 L 784.451, 275.672 L 781.87, 274.902 L 773.82, 232.994 L 774.469, 231.503 z "/>
<path style="fill:rgb(255, 2, 29);fill-opacity:1.0;fill-rule:evenodd;stroke:rgb(0, 0, 0);stroke-width:3.0;" d="M 704.381, 214.628 L 590.76, 426.476 L 575.651, 374.577 L 560.507, 211.166 z "/>
<path style="fill:rgb(255, 2, 29);fill-opacity:1.0;fill-rule:evenodd;stroke:rgb(0, 0, 0);stroke-width:3.0;" d="M 340.887, 539.467 L 351.561, 551.825 L 342.096, 552.179 L 333.462, 538.953 z "/>
<path style="fill:rgb(255, 2, 29);fill-opacity:1.0;fill-rule:evenodd;stroke:rgb(0, 0, 0);stroke-width:3.0;" d="M 190.953, 521.518 L 148.278, 554.397 L 137.731, 554.878 L 189.268, 520.631 z "/>
<path style="fill:rgb(255, 255, 14);fill-opacity:1.0;fill-rule:evenodd;stroke:rgb(0, 0, 0);stroke-width:3.0;" d="M 35.7574, 330.484 L 10.8142, 319.231 L 34.9641, 313.347 z "/>
<path style="fill:rgb(255, 255, 14);fill-opacity:1.0;fill-rule:evenodd;stroke:rgb(0, 0, 0);stroke-width:3.0;" d="M 170.321, 199.047 L 165.125, 200.51 L 150.723, 182.069 L 150.633, 176.415 z "/>
<path style="fill:rgb(52, 0, 255);fill-opacity:1.0;fill-rule:evenodd;stroke:rgb(0, 0, 0);stroke-width:3.0;" d="M 241.458, 367.122 L 212.075, 392.127 L 199.809, 373.644 L 238.088, 350.814 z "/>
<path style="fill:rgb(255, 6, 103);fill-opacity:1.0;fill-rule:evenodd;stroke:rgb(0, 0, 0);stroke-width:3.0;" d="M 789.441, 230.574 L 786.079, 238.22 L 777.891, 224.791 L 777.636, 224.226 L 784.595, 208.234 z "/>
<path style="fill:rgb(255, 6, 103);fill-opacity:1.0;fill-rule:evenodd;stroke:rgb(0, 0, 0);stroke-width:3.0;" d="M 751.465, 267.571 L 697.092, 297.316 L 697.489, 292.266 L 738.245, 261.594 z "/>
<path style="fill:rgb(255, 6, 103);fill-opacity:1.0;fill-rule:evenodd;stroke:rgb(0, 0, 0);stroke-width:3.0;" d="M 557.586, 567.342 L 557.483, 567.568 L 517.505, 584.719 L 510.644, 570.464 L 501.707, 541.013 L 512.715, 534.29 z "/>
<path style="fill:rgb(207, 215, 98);fill-opacity:1.0;fill-rule:evenodd;stroke:rgb(0, 0, 0);stroke-width:3.0;" d="M 194.786, 227.172 L 131.784, 318.927 L 62.1504, 252.915 L 74.4871, 240.364 L 175.097, 204.538 z "/>
<path style="fill:rgb(255, 21, 67);fill-opacity:1.0;fill-rule:evenodd;stroke:rgb(0, 0, 0);stroke-width:3.0;" d="M 250.945, 553.111 L 137.694, 493.47 L 241.447, 481.645 z "/>
<path style="fill:rgb(255, 21, 67);fill-opacity:1.0;fill-rule:evenodd;stroke:rgb(0, 0, 0);stroke-width:3.0;" d="M 102.861, 327.758 L 97.3469, 340.132 L 93.6052, 336.763 L 92.2472, 333.108 L 92.1937, 326.41 L 101.22, 324.72 z "/>
<path style="fill:rgb(255, 194, 10);fill-opacity:1.0;fill-rule:evenodd;stroke:rgb(0, 0, 0);stroke-width:3.0;" d="M 239.404, 373.729 L 227.37, 402.499 L 222.004, 383.678 L 237.95, 370.107 z "/>
<path style="fill:rgb(255, 194, 10);fill-opacity:1.0;fill-rule:evenodd;stroke:rgb(0, 0, 0);stroke-width:3.0;" d="M 74.821, 331.739 L 76.9536, 334.533 L 71.6166, 346.661 L 62.193, 342.41 L 60.1094, 340.051 L 74.4889, 331.447 z "/>
<path style="fill:rgb(255, 252, 56);fill-opacity:1.0;fill-rule:evenodd;stroke:rgb(0, 0, 0);stroke-width:3.0;" d="M 179.116, 422.471 L 135.79, 492.467 L 126.803, 487.734 L 129.071, 412.849 L 133.817, 407.249 z "/>
<path style="fill:rgb(246, 58, 8);fill-opacity:1.0;fill-rule:evenodd;stroke:rgb(0, 0, 0);stroke-width:3.0;" d="M 192.332, 401.119 L 179.116, 422.471 L 133.817, 407.249 L 153.761, 383.719 z "/>
<path style="fill:rgb(13, 34, 255);fill-opacity:1.0;fill-rule:evenodd;stroke:rgb(0, 0, 0);stroke-width:3.0;" d="M 752.664, 171.41 L 752.28, 185.267 L 738.55, 168.927 L 740.598, 164.418 L 750.816, 164.267 z "/>
<path style="fill:rgb(255, 66, 98);fill-opacity:1.0;fill-rule:evenodd;stroke:rgb(0, 0, 0);stroke-width:3.0;" d="M 11.1005, 313.083 L 11.9485, 289.936 L 29.1634, 274.847 z "/>
<path style="fill:rgb(126, 34, 255);fill-opacity:1.0;fill-rule:evenodd;stroke:rgb(0, 0, 0);stroke-width:3.0;" d="M 109.326, 321.064 L 108.313, 326.745 L 105.098, 327.82 L 100.069, 322.588 L 98.8065, 320.252 L 95.3845, 301.224 L 95.3802, 301.177 L 97.8238, 300.369 z "/>
<path style="fill:rgb(255, 255, 57);fill-opacity:1.0;fill-rule:evenodd;stroke:rgb(0, 0, 0);stroke-width:3.0;" d="M 377.63, 434.785 L 376.67, 436.983 L 362.193, 456.481 L 350.049, 467.313 L 342.82, 444.525 L 364.135, 424.845 z "/>
<path style="fill:rgb(255, 255, 57);fill-opacity:1.0;fill-rule:evenodd;stroke:rgb(0, 0, 0);stroke-width:3.0;" d="M 308.365, 553.046 L 270.516, 563.418 L 250.945, 553.111 L 241.447, 481.645 L 259.441, 479.594 z "/>
<path style="fill:rgb(136, 52, 246);fill-opacity:1.0;fill-rule:evenodd;stroke:rgb(0, 0, 0);stroke-width:3.0;" d="M 627.621, 487.439 L 625.412, 499.334 L 614.828, 491.153 L 616.971, 480.297 z "/>
<path style="fill:rgb(136, 52, 246);fill-opacity:1.0;fill-rule:evenodd;stroke:rgb(0, 0, 0);stroke-width:3.0;" d="M 297.323, 573.731 L 301.249, 579.603 L 279.42, 568.107 L 279.558, 564.566 L 282.734, 563.162 z "/>
<path style="fill:rgb(255, 10, 61);fill-opacity:1.0;fill-rule:evenodd;stroke:rgb(0, 0, 0);stroke-width:3.0;" d="M 763.954, 347.535 L 728.477, 333.749 L 715.183, 320.379 L 711.548, 312.548 z "/>
<path style="fill:rgb(240, 243, 60);fill-opacity:1.0;fill-rule:evenodd;stroke:rgb(0, 0, 0);stroke-width:3.0;" d="M 161.745, 347.33 L 150.764, 336.92 L 165.275, 327.207 z "/>
<path style="fill:rgb(240, 243, 60);fill-opacity:1.0;fill-rule:evenodd;stroke:rgb(0, 0, 0);stroke-width:3.0;" d="M 127.623, 316.757 L 120.998, 319.914 L 108.851, 323.73 L 112.817, 301.477 z "/>
<path style="fill:rgb(249, 21, 255);fill-opacity:1.0;fill-rule:evenodd;stroke:rgb(0, 0, 0);stroke-width:3.0;" d="M 135.083, 325.981 L 130.59, 339.244 L 120.522, 330.878 L 127.625, 319.476 z "/>
<path style="fill:rgb(197, 14, 255);fill-opacity:1.0;fill-rule:evenodd;stroke:rgb(0, 0, 0);stroke-width:3.0;" d="M 768.944, 135.438 L 758.109, 147.978 L 754.996, 148.847 L 753.362, 137.241 L 765.363, 127.696 z "/>
<path style="fill:rgb(197, 14, 255);fill-opacity:1.0;fill-rule:evenodd;stroke:rgb(0, 0, 0);stroke-width:3.0;" d="M 298.581, 556.086 L 300.456, 568.734 L 296.416, 573.073 L 284.602, 564.516 L 298.526, 556.039 z "/>
<path style="fill:rgb(246, 220, 146);fill-opacity:1.0;fill-rule:evenodd;stroke:rgb(0, 0, 0);stroke-width:3.0;" d="M 302.383, 423.245 L 307.505, 440.648 L 298.629, 454.83 L 296.817, 422.846 z "/>
<path style="fill:rgb(246, 220, 146);fill-opacity:1.0;fill-rule:evenodd;stroke:rgb(0, 0, 0);stroke-width:3.0;" d="M 237.971, 430.485 L 249.153, 435.25 L 247.766, 437.795 L 234.393, 441.988 L 223.442, 425.547 z "/>
<path style="fill:rgb(255, 146, 16);fill-opacity:1.0;fill-rule:evenodd;stroke:rgb(0, 0, 0);stroke-width:3.0;" d="M 642.114, 497.159 L 623.821, 507.898 L 627.621, 487.439 z "/>
<path style="fill:rgb(255, 146, 16);fill-opacity:1.0;fill-rule:evenodd;stroke:rgb(0, 0, 0);stroke-width:3.0;" d="M 696.593, 533.694 L 669.79, 526.885 L 675.811, 519.757 z "/>
<path style="fill:rgb(255, 146, 16);fill-opacity:1.0;fill-rule:evenodd;stroke:rgb(0, 0, 0);stroke-width:3.0;" d="M 318.453, 512.418 L 299.199, 516.029 L 301.809, 502.867 z "/>
<path style="fill:rgb(79, 177, 255);fill-opacity:1.0;fill-rule:evenodd;stroke:rgb(0, 0, 0);stroke-width:3.0;" d="M 326.047, 503.087 L 331.242, 508.012 L 326.53, 510.904 L 318.453, 512.418 L 301.809, 502.867 L 302.564, 499.065 z "/>
<path style="fill:rgb(220, 89, 102);fill-opacity:1.0;fill-rule:evenodd;stroke:rgb(0, 0, 0);stroke-width:3.0;" d="M 128.275, 439.118 L 126.803, 487.734 L 84.4881, 465.45 L 109.168, 436.332 z "/>
<path style="fill:rgb(220, 89, 102);fill-opacity:1.0;fill-rule:evenodd;stroke:rgb(0, 0, 0);stroke-width:3.0;" d="M 154.71, 187.175 L 165.125, 200.51 L 151.079, 204.463 L 150.794, 186.527 z "/>
<path style="fill:rgb(187, 36, 30);fill-opacity:1.0;fill-rule:evenodd;stroke:rgb(0, 0, 0);stroke-width:3.0;" d="M 147.12, 498.434 L 77.6021, 556.467 L 71.2891, 555.207 L 66.211, 487.014 L 84.4881, 465.45 z "/>
<path style="fill:rgb(187, 36, 30);fill-opacity:1.0;fill-rule:evenodd;stroke:rgb(0, 0, 0);stroke-width:3.0;" d="M 32.2315, 174.363 L 70.1189, 206.771 L 78.5192, 236.262 L 62.1504, 252.915 L 21.3297, 214.217 L 21.7542, 168.253 z "/>
<path style="fill:rgb(255, 159, 255);fill-opacity:1.0;fill-rule:evenodd;stroke:rgb(0, 0, 0);stroke-width:3.0;" d="M 31.5916, 71.5088 L 18.4576, 84.4654 L 13.4104, 67.6578 L 29.8478, 65.3867 z "/>
<path style="fill:rgb(255, 159, 255);fill-opacity:1.0;fill-rule:evenodd;stroke:rgb(0, 0, 0);stroke-width:3.0;" d="M 66.596, 194.402 L 70.1189, 206.771 L 32.2315, 174.363 z "/>
<path style="fill:rgb(234, 172, 240);fill-opacity:1.0;fill-rule:evenodd;stroke:rgb(0, 0, 0);stroke-width:3.0;" d="M 305.609, 483.712 L 301.073, 506.579 L 289.504, 524.73 L 286.655, 520.452 L 304.019, 482.205 z "/>
<path style="fill:rgb(234, 172, 240);fill-opacity:1.0;fill-rule:evenodd;stroke:rgb(0, 0, 0);stroke-width:3.0;" d="M 24.3753, 261.403 L 32.8811, 268.35 L 33.0251, 271.462 L 27.361, 276.427 L 17.2409, 260.283 z "/>
<path style="fill:rgb(252, 1, 34);fill-opacity:1.0;fill-rule:evenodd;stroke:rgb(0, 0, 0);stroke-width:3.0;" d="M 64.2038, 444.882 L 63.9861, 444.962 L 47.3625, 448.839 L 40.0997, 447.311 L 40.2049, 447.204 L 62.2539, 434.609 z "/>
<path style="fill:rgb(29, 246, 255);fill-opacity:1.0;fill-rule:evenodd;stroke:rgb(0, 0, 0);stroke-width:3.0;" d="M 715.636, 546.466 L 693.684, 563.266 L 677.928, 564.586 L 703.187, 538.117 z "/>
<path style="fill:rgb(255, 159, 7);fill-opacity:1.0;fill-rule:evenodd;stroke:rgb(0, 0, 0);stroke-width:3.0;" d="M 285.503, 490.914 L 273.589, 500.673 L 273.359, 500.49 L 240.488, 451.138 L 243.726, 445.202 L 255.11, 441.222 z "/>
<path style="fill:rgb(60, 168, 192);fill-opacity:1.0;fill-rule:evenodd;stroke:rgb(0, 0, 0);stroke-width:3.0;" d="M 367.622, 457.68 L 358.566, 478.395 L 355.281, 483.806 L 350.049, 467.313 L 363.818, 455.032 z "/>
<path style="fill:rgb(60, 168, 192);fill-opacity:1.0;fill-rule:evenodd;stroke:rgb(0, 0, 0);stroke-width:3.0;" d="M 326.963, 425.007 L 348.225, 480.842 L 332.776, 487.584 L 312.963, 432.15 L 323.815, 424.781 z "/>
<path style="fill:rgb(246, 130, 126);fill-opacity:1.0;fill-rule:evenodd;stroke:rgb(0, 0, 0);stroke-width:3.0;" d="M 285.404, 464.558 L 273.053, 470.558 L 255.11, 441.222 L 259.258, 439.772 z "/>
<path style="fill:rgb(15, 246, 255);fill-opacity:1.0;fill-rule:evenodd;stroke:rgb(0, 0, 0);stroke-width:3.0;" d="M 206.272, 369.789 L 198.373, 374.5 L 196.979, 354.658 L 200.643, 351.251 z "/>
<path style="fill:rgb(246, 38, 6);fill-opacity:1.0;fill-rule:evenodd;stroke:rgb(0, 0, 0);stroke-width:3.0;" d="M 774.642, 120.315 L 753.362, 137.241 L 753.263, 136.536 L 758.9, 124.125 L 778.308, 104.081 z "/>
<path style="fill:rgb(212, 27, 165);fill-opacity:1.0;fill-rule:evenodd;stroke:rgb(0, 0, 0);stroke-width:3.0;" d="M 116.138, 579.158 L 96.3199, 594.427 L 94.9374, 591.456 L 96.8757, 582.026 L 108.725, 574.152 z "/>
<path style="fill:rgb(212, 27, 165);fill-opacity:1.0;fill-rule:evenodd;stroke:rgb(0, 0, 0);stroke-width:3.0;" d="M 778.308, 104.081 L 758.9, 124.125 L 762.924, 115.265 L 782.44, 85.7842 z "/>
<path style="fill:rgb(212, 47, 11);fill-opacity:1.0;fill-rule:evenodd;stroke:rgb(0, 0, 0);stroke-width:3.0;" d="M 228.746, 325.115 L 183.096, 367.57 L 161.745, 347.33 L 165.275, 327.207 L 200.017, 303.953 z "/>
<path style="fill:rgb(255, 187, 21);fill-opacity:1.0;fill-rule:evenodd;stroke:rgb(0, 0, 0);stroke-width:3.0;" d="M 711.928, 327.318 L 673.407, 312.348 L 674.661, 309.587 L 690.482, 300.932 z "/>
<path style="fill:rgb(249, 140, 7);fill-opacity:1.0;fill-rule:evenodd;stroke:rgb(0, 0, 0);stroke-width:3.0;" d="M 332.776, 487.584 L 316.97, 494.482 L 300.514, 478.881 L 296.457, 458.301 L 312.912, 432.008 z "/>
<path style="fill:rgb(249, 140, 7);fill-opacity:1.0;fill-rule:evenodd;stroke:rgb(0, 0, 0);stroke-width:3.0;" d="M 659.065, 174.656 L 551.117, 60.0894 L 661.711, 46.2713 z "/>
<path style="fill:rgb(249, 140, 7);fill-opacity:1.0;fill-rule:evenodd;stroke:rgb(0, 0, 0);stroke-width:3.0;" d="M 333.462, 538.953 L 342.096, 552.179 L 332.331, 552.544 L 313.269, 542.728 L 323.139, 538.24 z "/>
<path style="fill:rgb(255, 187, 38);fill-opacity:1.0;fill-rule:evenodd;stroke:rgb(0, 0, 0);stroke-width:3.0;" d="M 613.261, 489.53 L 601.432, 497.162 L 604.583, 477.657 L 613.805, 466.379 z "/>
<path style="fill:rgb(255, 187, 38);fill-opacity:1.0;fill-rule:evenodd;stroke:rgb(0, 0, 0);stroke-width:3.0;" d="M 242.232, 423.631 L 250.972, 431.916 L 249.153, 435.25 L 231.012, 427.519 L 228.969, 419.14 L 230.061, 418.14 z "/>
<path style="fill:rgb(255, 240, 8);fill-opacity:1.0;fill-rule:evenodd;stroke:rgb(0, 0, 0);stroke-width:3.0;" d="M 296.625, 458.032 L 289.883, 468.804 L 275.268, 454.948 L 283.413, 441.373 z "/>
<path style="fill:rgb(255, 240, 8);fill-opacity:1.0;fill-rule:evenodd;stroke:rgb(0, 0, 0);stroke-width:3.0;" d="M 711.548, 312.548 L 719.829, 330.388 L 711.928, 327.318 L 706.854, 321.075 L 706.409, 309.117 z "/>
<path style="fill:rgb(255, 240, 8);fill-opacity:1.0;fill-rule:evenodd;stroke:rgb(0, 0, 0);stroke-width:3.0;" d="M 216.886, 363.459 L 210.382, 367.338 L 200.923, 350.991 L 211.724, 340.946 z "/>
<path style="fill:rgb(55, 207, 255);fill-opacity:1.0;fill-rule:evenodd;stroke:rgb(0, 0, 0);stroke-width:3.0;" d="M 296.817, 422.846 L 298.629, 454.83 L 296.625, 458.032 L 283.413, 441.373 L 294.624, 422.688 z "/>
<path style="fill:rgb(255, 217, 9);fill-opacity:1.0;fill-rule:evenodd;stroke:rgb(0, 0, 0);stroke-width:3.0;" d="M 128.275, 439.118 L 109.168, 436.332 L 129.071, 412.849 z "/>
<path style="fill:rgb(255, 121, 215);fill-opacity:1.0;fill-rule:evenodd;stroke:rgb(0, 0, 0);stroke-width:3.0;" d="M 769.848, 237.81 L 697.489, 292.266 L 700.626, 252.422 L 707.977, 236.238 L 764.197, 215.975 z "/>
<path style="fill:rgb(249, 43, 220);fill-opacity:1.0;fill-rule:evenodd;stroke:rgb(0, 0, 0);stroke-width:3.0;" d="M 706.409, 309.117 L 706.854, 321.075 L 690.482, 300.932 L 692.497, 299.83 z "/>
<path style="fill:rgb(76, 255, 255);fill-opacity:1.0;fill-rule:evenodd;stroke:rgb(0, 0, 0);stroke-width:3.0;" d="M 44.4292, 116.579 L 29.133, 120.015 L 18.4576, 84.4654 L 31.5916, 71.5088 z "/>
<path style="fill:rgb(20, 24, 255);fill-opacity:1.0;fill-rule:evenodd;stroke:rgb(0, 0, 0);stroke-width:3.0;" d="M 105.326, 361.868 L 124.356, 374.994 L 129.211, 381.026 L 128.827, 381.002 L 96.3517, 360.054 L 93.957, 356.739 z "/>
<path style="fill:rgb(255, 228, 10);fill-opacity:1.0;fill-rule:evenodd;stroke:rgb(0, 0, 0);stroke-width:3.0;" d="M 773.439, 423.893 L 780.453, 426.62 L 666.361, 418.671 L 672.967, 413.245 z "/>
<path style="fill:rgb(255, 228, 10);fill-opacity:1.0;fill-rule:evenodd;stroke:rgb(0, 0, 0);stroke-width:3.0;" d="M 171.312, 362.086 L 164.444, 360.039 L 134.511, 349.695 L 128.691, 346.218 L 152.485, 344.847 z "/>
<path style="fill:rgb(51, 237, 223);fill-opacity:1.0;fill-rule:evenodd;stroke:rgb(0, 0, 0);stroke-width:3.0;" d="M 601.432, 497.162 L 590.873, 503.975 L 591.3, 493.901 L 604.583, 477.657 z "/>
<path style="fill:rgb(249, 78, 18);fill-opacity:1.0;fill-rule:evenodd;stroke:rgb(0, 0, 0);stroke-width:3.0;" d="M 696.593, 533.694 L 703.187, 538.117 L 699.751, 541.718 L 668.124, 546.91 L 667.129, 526.209 z "/>
<path style="fill:rgb(202, 255, 128);fill-opacity:1.0;fill-rule:evenodd;stroke:rgb(0, 0, 0);stroke-width:3.0;" d="M 137.689, 208.231 L 114.642, 214.718 L 127.057, 194.213 z "/>
<path style="fill:rgb(255, 226, 64);fill-opacity:1.0;fill-rule:evenodd;stroke:rgb(0, 0, 0);stroke-width:3.0;" d="M 127.057, 194.213 L 114.642, 214.718 L 93.9803, 220.533 L 123.919, 190.075 z "/>
<path style="fill:rgb(255, 1, 6);fill-opacity:1.0;fill-rule:evenodd;stroke:rgb(0, 0, 0);stroke-width:3.0;" d="M 293.861, 504.579 L 292.893, 506.713 L 289.443, 507.577 L 273.907, 500.412 L 285.503, 490.914 z "/>
<path style="fill:rgb(117, 88, 249);fill-opacity:1.0;fill-rule:evenodd;stroke:rgb(0, 0, 0);stroke-width:3.0;" d="M 510.436, 576.983 L 509.018, 583.067 L 500.762, 582.189 L 491.234, 547.407 L 494.705, 545.288 z "/>
<path style="fill:rgb(252, 52, 24);fill-opacity:1.0;fill-rule:evenodd;stroke:rgb(0, 0, 0);stroke-width:3.0;" d="M 148.115, 180.095 L 148.976, 205.055 L 137.689, 208.231 L 123.919, 190.075 L 135.499, 178.294 z "/>
<path style="fill:rgb(255, 240, 50);fill-opacity:1.0;fill-rule:evenodd;stroke:rgb(0, 0, 0);stroke-width:3.0;" d="M 775.961, 244.138 L 781.87, 274.902 L 779.244, 274.118 L 770.547, 240.514 L 772.618, 235.757 z "/>
<path style="fill:rgb(55, 34, 217);fill-opacity:1.0;fill-rule:evenodd;stroke:rgb(0, 0, 0);stroke-width:3.0;" d="M 244.741, 346.847 L 227.8, 356.95 L 226.753, 351.198 L 228.768, 348.324 L 237.956, 339.255 z "/>
<path style="fill:rgb(217, 19, 161);fill-opacity:1.0;fill-rule:evenodd;stroke:rgb(0, 0, 0);stroke-width:3.0;" d="M 345.674, 453.521 L 365.978, 517.53 L 363.547, 521.076 L 337.431, 452.495 z "/>
<path style="fill:rgb(255, 231, 15);fill-opacity:1.0;fill-rule:evenodd;stroke:rgb(0, 0, 0);stroke-width:3.0;" d="M 763.026, 115.042 L 740.429, 164.791 L 752.575, 110.388 L 755.703, 105.761 z "/>
<path style="fill:rgb(54, 52, 255);fill-opacity:1.0;fill-rule:evenodd;stroke:rgb(0, 0, 0);stroke-width:3.0;" d="M 84.8259, 352.62 L 143.421, 390.416 L 128.906, 397.721 L 20.9746, 330.448 L 23.0225, 324.739 z "/>
<path style="fill:rgb(8, 212, 168);fill-opacity:1.0;fill-rule:evenodd;stroke:rgb(0, 0, 0);stroke-width:3.0;" d="M 521.782, 593.604 L 518.182, 592.588 L 503.7, 563.41 L 506.077, 560.976 z "/>
<path style="fill:rgb(255, 30, 197);fill-opacity:1.0;fill-rule:evenodd;stroke:rgb(0, 0, 0);stroke-width:3.0;" d="M 600.885, 561.777 L 589.39, 561.91 L 573.618, 546.828 L 582.179, 513.196 L 584.5, 508.087 L 615.424, 488.134 z "/>
<path style="fill:rgb(255, 255, 30);fill-opacity:1.0;fill-rule:evenodd;stroke:rgb(0, 0, 0);stroke-width:3.0;" d="M 33.8695, 289.703 L 34.7213, 308.101 L 11.9795, 318.947 L 10.8142, 319.231 L 8.6561, 318.257 L 22.6121, 288.715 z "/>
<path style="fill:rgb(49, 33, 255);fill-opacity:1.0;fill-rule:evenodd;stroke:rgb(0, 0, 0);stroke-width:3.0;" d="M 150.97, 359.529 L 162.061, 366.156 L 164.655, 380.803 L 143.284, 367.604 L 138.289, 359.092 z "/>
<path style="fill:rgb(13, 237, 144);fill-opacity:1.0;fill-rule:evenodd;stroke:rgb(0, 0, 0);stroke-width:3.0;" d="M 198.373, 374.5 L 194.493, 376.814 L 192.477, 376.463 L 190.457, 374.548 L 189.304, 361.797 L 196.979, 354.658 z "/>
<path style="fill:rgb(255, 255, 57);fill-opacity:1.0;fill-rule:evenodd;stroke:rgb(0, 0, 0);stroke-width:3.0;" d="M 345.337, 539.775 L 370.076, 551.133 L 351.561, 551.825 L 340.887, 539.467 z "/>
<path style="fill:rgb(255, 249, 197);fill-opacity:1.0;fill-rule:evenodd;stroke:rgb(0, 0, 0);stroke-width:3.0;" d="M 667.718, 538.47 L 669.789, 581.554 L 668.634, 582.438 L 630.433, 521.857 z "/>
<path style="fill:rgb(71, 7, 204);fill-opacity:1.0;fill-rule:evenodd;stroke:rgb(0, 0, 0);stroke-width:3.0;" d="M 666.519, 513.526 L 667.718, 538.47 L 630.433, 521.857 L 623.323, 510.581 L 623.821, 507.898 L 642.114, 497.159 z "/>
<path style="fill:rgb(92, 41, 189);fill-opacity:1.0;fill-rule:evenodd;stroke:rgb(0, 0, 0);stroke-width:3.0;" d="M 136.036, 404.631 L 130.921, 410.666 L 107.16, 408.664 L 121.023, 401.688 z "/>
<path style="fill:rgb(119, 204, 197);fill-opacity:1.0;fill-rule:evenodd;stroke:rgb(0, 0, 0);stroke-width:3.0;" d="M 773.439, 423.893 L 672.967, 413.245 L 696.45, 393.954 z "/>
<path style="fill:rgb(228, 1, 44);fill-opacity:1.0;fill-rule:evenodd;stroke:rgb(0, 0, 0);stroke-width:3.0;" d="M 758.239, 192.952 L 752.235, 169.75 L 754.048, 165.801 L 764.947, 163.246 z "/>
<path style="fill:rgb(255, 22, 76);fill-opacity:1.0;fill-rule:evenodd;stroke:rgb(0, 0, 0);stroke-width:3.0;" d="M 766.627, 142.703 L 768.534, 147.364 L 764.947, 163.246 L 754.048, 165.801 L 764.965, 142.013 z "/>
<path style="fill:rgb(47, 228, 207);fill-opacity:1.0;fill-rule:evenodd;stroke:rgb(0, 0, 0);stroke-width:3.0;" d="M 56.2288, 158.005 L 9.90264, 124.335 L 44.4292, 116.579 z "/>
<path style="fill:rgb(70, 255, 255);fill-opacity:1.0;fill-rule:evenodd;stroke:rgb(0, 0, 0);stroke-width:3.0;" d="M 21.5979, 185.178 L 21.3297, 214.217 L 7.9775, 201.56 L 16.9442, 180.188 z "/>
</svg>