<?xml version="1.0" encoding="iso-8859-1" standalone="no"?>
<!DOCTYPE svg PUBLIC "-//W3C//DTD SVG 1.0//EN" "http://www.w3.org/TR/2001/REC-SVG-20010904/DTD/svg10.dtd">
<svg xmlns="http://www.w3.org/2000/svg" width="800" height="600">
<path style="fill:rgb(0, 0, 0);fill-opacity:0.0;fill-rule:evenodd;stroke:rgb(0, 0, 0);stroke-width:0.0;" d="M 0, 600 L 800, 600 L 800, 0 L 0, 0 z "/>
<path style="fill:rgb(255, 5, 16);fill-opacity:1.0;fill-rule:evenodd;stroke:rgb(0, 0, 0);stroke-width:3.0;" d="M 503.792, 425.579 L 496.94, 433.411 L 477.99, 403.533 L 465.029, 360.185 z "/>
<path style="fill:rgb(255, 5, 16);fill-opacity:1.0;fill-rule:evenodd;stroke:rgb(0, 0, 0);stroke-width:3.0;" d="M 343.434, 310.868 L 446.808, 482.538 L 369.658, 385.871 L 276.463, 232.908 L 285.58, 230.592 z "/>
<path style="fill:rgb(215, 130, 234);fill-opacity:1.0;fill-rule:evenodd;stroke:rgb(0, 0, 0);stroke-width:3.0;" d="M 527.732, 465.966 L 435.951, 311.131 L 438.723, 268.976 z "/>
<path style="fill:rgb(14, 108, 249);fill-opacity:1.0;fill-rule:evenodd;stroke:rgb(0, 0, 0);stroke-width:3.0;" d="M 707.452, 170.259 L 603.406, 195.396 L 611.257, 65.4684 L 692.614, 31.3737 z "/>
<path style="fill:rgb(177, 3, 255);fill-opacity:1.0;fill-rule:evenodd;stroke:rgb(0, 0, 0);stroke-width:3.0;" d="M 261.171, 73.7161 L 256.892, 73.8535 L 226.389, 53.9178 L 240.102, 50.7598 z "/>
<path style="fill:rgb(199, 3, 19);fill-opacity:1.0;fill-rule:evenodd;stroke:rgb(0, 0, 0);stroke-width:3.0;" d="M 294.988, 432.316 L 111.452, 470.506 L 20.2546, 452.093 L 296.518, 430.078 z "/>
<path style="fill:rgb(199, 3, 19);fill-opacity:1.0;fill-rule:evenodd;stroke:rgb(0, 0, 0);stroke-width:3.0;" d="M 322.833, 309.017 L 349.422, 352.658 L 345.67, 358.149 L 226.625, 397.408 L 72.4201, 293.977 L 35.7141, 255.869 L 79.7025, 218.718 z "/>
<path style="fill:rgb(199, 3, 19);fill-opacity:1.0;fill-rule:evenodd;stroke:rgb(0, 0, 0);stroke-width:3.0;" d="M 188.34, 111.97 L 191.063, 124.67 L 189.602, 125.903 L 178.819, 121.452 L 180.823, 114.965 L 184.925, 111.596 z "/>
<path style="fill:rgb(199, 3, 19);fill-opacity:1.0;fill-rule:evenodd;stroke:rgb(0, 0, 0);stroke-width:3.0;" d="M 780.686, 246.279 L 778.238, 263.716 L 702.066, 240.426 z "/>
<path style="fill:rgb(231, 97, 8);fill-opacity:1.0;fill-rule:evenodd;stroke:rgb(0, 0, 0);stroke-width:3.0;" d="M 279.641, 128.393 L 279.659, 128.55 L 278.017, 139.404 L 257.596, 93.549 L 258.789, 93.4119 z "/>
<path style="fill:rgb(231, 97, 8);fill-opacity:1.0;fill-rule:evenodd;stroke:rgb(0, 0, 0);stroke-width:3.0;" d="M 103.658, 89.719 L 103.101, 90.1963 L 77.856, 79.7751 L 85.9718, 64.1714 z "/>
<path style="fill:rgb(231, 97, 8);fill-opacity:1.0;fill-rule:evenodd;stroke:rgb(0, 0, 0);stroke-width:3.0;" d="M 451.228, 489.877 L 471.109, 522.894 L 469.939, 523.257 L 440.441, 489.181 z "/>
<path style="fill:rgb(231, 97, 8);fill-opacity:1.0;fill-rule:evenodd;stroke:rgb(0, 0, 0);stroke-width:3.0;" d="M 514.052, 503.016 L 509.524, 519.288 L 501.132, 506.158 L 508.522, 502.327 z "/>
<path style="fill:rgb(231, 97, 8);fill-opacity:1.0;fill-rule:evenodd;stroke:rgb(0, 0, 0);stroke-width:3.0;" d="M 315.95, 17.7501 L 316.216, 20.993 L 297.513, 32.9017 L 303.92, 20.4321 L 307.849, 15.946 z "/>
<path style="fill:rgb(231, 97, 8);fill-opacity:1.0;fill-rule:evenodd;stroke:rgb(0, 0, 0);stroke-width:3.0;" d="M 295.964, 36.1072 L 266.177, 53.6249 L 253.872, 56.1641 L 300.307, 16.6403 z "/>
<path style="fill:rgb(7, 255, 130);fill-opacity:1.0;fill-rule:evenodd;stroke:rgb(0, 0, 0);stroke-width:3.0;" d="M 407.714, 57.1277 L 405.158, 54.4256 L 423.327, 36.3717 L 454.623, 21.0108 z "/>
<path style="fill:rgb(7, 255, 130);fill-opacity:1.0;fill-rule:evenodd;stroke:rgb(0, 0, 0);stroke-width:3.0;" d="M 264.281, 287.27 L 79.7025, 218.718 L 140.203, 167.623 z "/>
<path style="fill:rgb(255, 21, 89);fill-opacity:1.0;fill-rule:evenodd;stroke:rgb(0, 0, 0);stroke-width:3.0;" d="M 460.091, 441.949 L 541.465, 569.258 L 518.707, 574.744 L 490.343, 554.835 L 269.571, 188.205 z "/>
<path style="fill:rgb(255, 21, 89);fill-opacity:1.0;fill-rule:evenodd;stroke:rgb(0, 0, 0);stroke-width:3.0;" d="M 449.782, 361.215 L 435.302, 380.265 L 438.163, 355.497 z "/>
<path style="fill:rgb(255, 21, 89);fill-opacity:1.0;fill-rule:evenodd;stroke:rgb(0, 0, 0);stroke-width:3.0;" d="M 465.029, 360.185 L 476.115, 397.263 L 455.935, 353.12 L 458.691, 349.494 z "/>
<path style="fill:rgb(255, 21, 89);fill-opacity:1.0;fill-rule:evenodd;stroke:rgb(0, 0, 0);stroke-width:3.0;" d="M 181.086, 186.72 L 187.898, 213.615 L 158.629, 185.391 z "/>
<path style="fill:rgb(255, 21, 89);fill-opacity:1.0;fill-rule:evenodd;stroke:rgb(0, 0, 0);stroke-width:3.0;" d="M 34.0499, 576.164 L 13.1796, 574.428 L 30.4792, 564.212 z "/>
<path style="fill:rgb(255, 21, 89);fill-opacity:1.0;fill-rule:evenodd;stroke:rgb(0, 0, 0);stroke-width:3.0;" d="M 496.117, 329.701 L 491.897, 330.379 L 469.007, 307.395 L 468.294, 306.2 L 471.639, 303.031 z "/>
<path style="fill:rgb(255, 21, 89);fill-opacity:1.0;fill-rule:evenodd;stroke:rgb(0, 0, 0);stroke-width:3.0;" d="M 555.86, 452.784 L 545.484, 460.247 L 529.184, 444.422 L 517.793, 389.061 z "/>
<path style="fill:rgb(255, 31, 134);fill-opacity:1.0;fill-rule:evenodd;stroke:rgb(0, 0, 0);stroke-width:3.0;" d="M 282.789, 164.563 L 259.049, 170.732 L 256.318, 166.196 L 280.902, 161.611 z "/>
<path style="fill:rgb(255, 31, 134);fill-opacity:1.0;fill-rule:evenodd;stroke:rgb(0, 0, 0);stroke-width:3.0;" d="M 333.909, 396.016 L 312.572, 415.471 L 305.369, 417.125 L 323.901, 390.005 z "/>
<path style="fill:rgb(66, 217, 255);fill-opacity:1.0;fill-rule:evenodd;stroke:rgb(0, 0, 0);stroke-width:3.0;" d="M 743.753, 260.172 L 604.129, 329.194 L 495.712, 302.062 L 472.249, 246.383 z "/>
<path style="fill:rgb(66, 217, 255);fill-opacity:1.0;fill-rule:evenodd;stroke:rgb(0, 0, 0);stroke-width:3.0;" d="M 440.65, 171.397 L 447.867, 210.035 L 394.489, 218.971 L 389.287, 213.304 L 430.288, 146.807 z "/>
<path style="fill:rgb(66, 217, 255);fill-opacity:1.0;fill-rule:evenodd;stroke:rgb(0, 0, 0);stroke-width:3.0;" d="M 734.156, 163.807 L 709.556, 169.751 L 728.107, 149.949 L 732.826, 149.296 z "/>
<path style="fill:rgb(66, 217, 255);fill-opacity:1.0;fill-rule:evenodd;stroke:rgb(0, 0, 0);stroke-width:3.0;" d="M 724.637, 59.9254 L 720.141, 65.3439 L 708.47, 34.1165 L 721.534, 26.0703 z "/>
<path style="fill:rgb(66, 217, 255);fill-opacity:1.0;fill-rule:evenodd;stroke:rgb(0, 0, 0);stroke-width:3.0;" d="M 214.027, 484.145 L 202.966, 480.127 L 215.981, 465.369 z "/>
<path style="fill:rgb(66, 217, 255);fill-opacity:1.0;fill-rule:evenodd;stroke:rgb(0, 0, 0);stroke-width:3.0;" d="M 250.838, 190.849 L 258.037, 202.665 L 206.694, 218.234 L 204.437, 188.102 z "/>
<path style="fill:rgb(66, 217, 255);fill-opacity:1.0;fill-rule:evenodd;stroke:rgb(0, 0, 0);stroke-width:3.0;" d="M 261.312, 481.598 L 228.937, 472.196 L 204.826, 451.077 L 294.988, 432.316 z "/>
<path style="fill:rgb(66, 217, 255);fill-opacity:1.0;fill-rule:evenodd;stroke:rgb(0, 0, 0);stroke-width:3.0;" d="M 550.325, 554.204 L 540.073, 556.463 L 533.246, 556.4 L 531.119, 553.072 L 547.843, 533.671 z "/>
<path style="fill:rgb(66, 217, 255);fill-opacity:1.0;fill-rule:evenodd;stroke:rgb(0, 0, 0);stroke-width:3.0;" d="M 482.423, 544.82 L 471.109, 552.387 L 468.218, 547.641 L 462.14, 533.519 z "/>
<path style="fill:rgb(66, 217, 255);fill-opacity:1.0;fill-rule:evenodd;stroke:rgb(0, 0, 0);stroke-width:3.0;" d="M 108.24, 331.165 L 44.5719, 328.159 L 93.1527, 315.501 z "/>
<path style="fill:rgb(66, 217, 255);fill-opacity:1.0;fill-rule:evenodd;stroke:rgb(0, 0, 0);stroke-width:3.0;" d="M 603.584, 558.052 L 604.513, 560.256 L 592.233, 562.392 L 586.77, 559.45 L 582.261, 547.17 L 586.438, 546.25 z "/>
<path style="fill:rgb(9, 83, 85);fill-opacity:1.0;fill-rule:evenodd;stroke:rgb(0, 0, 0);stroke-width:3.0;" d="M 508.996, 343.733 L 510.634, 350.736 L 509.242, 352.806 L 495.524, 340.629 L 498.986, 332.826 z "/>
<path style="fill:rgb(9, 83, 85);fill-opacity:1.0;fill-rule:evenodd;stroke:rgb(0, 0, 0);stroke-width:3.0;" d="M 278.409, 92.4974 L 286.052, 104.625 L 286.715, 114.463 L 277.925, 113.691 L 275.337, 91.5119 L 277.298, 91.2867 z "/>
<path style="fill:rgb(220, 197, 7);fill-opacity:1.0;fill-rule:evenodd;stroke:rgb(0, 0, 0);stroke-width:3.0;" d="M 437.111, 265.411 L 438.723, 268.976 L 430.404, 395.504 L 428.779, 392.962 L 332.706, 205.135 L 376.854, 199.758 z "/>
<path style="fill:rgb(220, 197, 7);fill-opacity:1.0;fill-rule:evenodd;stroke:rgb(0, 0, 0);stroke-width:3.0;" d="M 383.814, 81.3442 L 373.767, 101.801 L 336.368, 65.3096 L 360.689, 21.1107 z "/>
<path style="fill:rgb(220, 197, 7);fill-opacity:1.0;fill-rule:evenodd;stroke:rgb(0, 0, 0);stroke-width:3.0;" d="M 420.382, 469.127 L 423.526, 474.287 L 422.419, 478.007 L 407.534, 484.036 L 408.978, 468.052 L 410.368, 463.542 z "/>
<path style="fill:rgb(220, 197, 7);fill-opacity:1.0;fill-rule:evenodd;stroke:rgb(0, 0, 0);stroke-width:3.0;" d="M 521.788, 363.943 L 531.123, 386.097 L 519.935, 392.646 L 481.339, 328.037 z "/>
<path style="fill:rgb(255, 54, 144);fill-opacity:1.0;fill-rule:evenodd;stroke:rgb(0, 0, 0);stroke-width:3.0;" d="M 370.031, 109.407 L 343.503, 163.42 L 334.783, 153.919 L 317.631, 102.496 z "/>
<path style="fill:rgb(255, 54, 144);fill-opacity:1.0;fill-rule:evenodd;stroke:rgb(0, 0, 0);stroke-width:3.0;" d="M 526.497, 493.009 L 512.448, 500.292 L 522.766, 479.503 z "/>
<path style="fill:rgb(255, 54, 144);fill-opacity:1.0;fill-rule:evenodd;stroke:rgb(0, 0, 0);stroke-width:3.0;" d="M 373.767, 101.801 L 370.031, 109.407 L 283.449, 97.9883 L 260.276, 72.741 L 309.065, 38.6682 z "/>
<path style="fill:rgb(255, 54, 144);fill-opacity:1.0;fill-rule:evenodd;stroke:rgb(0, 0, 0);stroke-width:3.0;" d="M 589.746, 525.212 L 570.869, 516.693 L 566.062, 476.13 L 568.961, 475.889 z "/>
<path style="fill:rgb(255, 54, 144);fill-opacity:1.0;fill-rule:evenodd;stroke:rgb(0, 0, 0);stroke-width:3.0;" d="M 138.957, 59.4509 L 123.99, 72.2846 L 110.059, 55.1413 z "/>
<path style="fill:rgb(255, 54, 144);fill-opacity:1.0;fill-rule:evenodd;stroke:rgb(0, 0, 0);stroke-width:3.0;" d="M 333.266, 178.143 L 336.465, 204.677 L 316.035, 207.166 L 325.965, 174.207 z "/>
<path style="fill:rgb(255, 54, 144);fill-opacity:1.0;fill-rule:evenodd;stroke:rgb(0, 0, 0);stroke-width:3.0;" d="M 246.69, 67.1855 L 238.647, 74.4394 L 233.807, 74.5949 L 222.574, 61.9161 L 222.562, 54.7991 L 226.389, 53.9178 z "/>
<path style="fill:rgb(71, 189, 255);fill-opacity:1.0;fill-rule:evenodd;stroke:rgb(0, 0, 0);stroke-width:3.0;" d="M 376.854, 199.758 L 374.003, 200.105 L 325.965, 174.207 L 332.746, 151.7 z "/>
<path style="fill:rgb(71, 189, 255);fill-opacity:1.0;fill-rule:evenodd;stroke:rgb(0, 0, 0);stroke-width:3.0;" d="M 109.884, 319.105 L 118.785, 328.901 L 106.472, 329.329 L 72.4201, 293.977 z "/>
<path style="fill:rgb(71, 189, 255);fill-opacity:1.0;fill-rule:evenodd;stroke:rgb(0, 0, 0);stroke-width:3.0;" d="M 373.628, 471.711 L 355.908, 499.025 L 350.865, 502.761 L 349.37, 503.174 L 344.707, 492.69 L 372.751, 469.795 z "/>
<path style="fill:rgb(71, 189, 255);fill-opacity:1.0;fill-rule:evenodd;stroke:rgb(0, 0, 0);stroke-width:3.0;" d="M 728.407, 101.071 L 730.967, 129.004 L 704.246, 140.254 L 692.614, 31.3737 L 699.644, 28.4279 z "/>
<path style="fill:rgb(228, 32, 234);fill-opacity:1.0;fill-rule:evenodd;stroke:rgb(0, 0, 0);stroke-width:3.0;" d="M 422.989, 452.694 L 413.588, 451.491 L 408.451, 449.545 L 369.658, 385.871 z "/>
<path style="fill:rgb(13, 231, 98);fill-opacity:1.0;fill-rule:evenodd;stroke:rgb(0, 0, 0);stroke-width:3.0;" d="M 325.709, 521.401 L 323.486, 519.892 L 327.589, 512.104 L 347.367, 503.728 L 350.865, 502.761 z "/>
<path style="fill:rgb(13, 231, 98);fill-opacity:1.0;fill-rule:evenodd;stroke:rgb(0, 0, 0);stroke-width:3.0;" d="M 348.65, 236.307 L 428.779, 392.962 L 310.455, 207.846 L 323.665, 206.237 z "/>
<path style="fill:rgb(13, 231, 98);fill-opacity:1.0;fill-rule:evenodd;stroke:rgb(0, 0, 0);stroke-width:3.0;" d="M 263.034, 567.839 L 257.808, 571.712 L 226.06, 567.006 L 216.246, 560.641 L 226.865, 543.352 L 252.854, 536.139 z "/>
<path style="fill:rgb(13, 231, 98);fill-opacity:1.0;fill-rule:evenodd;stroke:rgb(0, 0, 0);stroke-width:3.0;" d="M 464.99, 542.343 L 371.107, 544.674 L 356.516, 541.843 L 359.895, 528.545 L 441.464, 503.73 z "/>
<path style="fill:rgb(13, 231, 98);fill-opacity:1.0;fill-rule:evenodd;stroke:rgb(0, 0, 0);stroke-width:3.0;" d="M 203.81, 113.661 L 144.145, 107.139 L 103.101, 90.1963 L 159.861, 41.5259 z "/>
<path style="fill:rgb(243, 0, 41);fill-opacity:1.0;fill-rule:evenodd;stroke:rgb(0, 0, 0);stroke-width:3.0;" d="M 204.437, 188.102 L 207.156, 224.391 L 186.921, 209.758 L 181.086, 186.72 z "/>
<path style="fill:rgb(243, 0, 41);fill-opacity:1.0;fill-rule:evenodd;stroke:rgb(0, 0, 0);stroke-width:3.0;" d="M 660.695, 227.776 L 627.243, 254.254 L 553.816, 250.525 L 557.552, 206.474 L 576.253, 201.956 z "/>
<path style="fill:rgb(12, 15, 255);fill-opacity:1.0;fill-rule:evenodd;stroke:rgb(0, 0, 0);stroke-width:3.0;" d="M 280.558, 554.855 L 266.626, 565.178 L 271.317, 530.29 L 288.861, 527.965 z "/>
<path style="fill:rgb(12, 15, 255);fill-opacity:1.0;fill-rule:evenodd;stroke:rgb(0, 0, 0);stroke-width:3.0;" d="M 523.581, 578.165 L 509.094, 585.975 L 505.083, 579.313 L 508.675, 567.703 z "/>
<path style="fill:rgb(47, 91, 255);fill-opacity:1.0;fill-rule:evenodd;stroke:rgb(0, 0, 0);stroke-width:3.0;" d="M 238.241, 170.174 L 250.838, 190.849 L 158.629, 185.391 L 140.203, 167.623 L 159.25, 151.537 z "/>
<path style="fill:rgb(255, 204, 16);fill-opacity:1.0;fill-rule:evenodd;stroke:rgb(0, 0, 0);stroke-width:3.0;" d="M 291.02, 449.282 L 263.256, 478.753 L 289.476, 440.382 z "/>
<path style="fill:rgb(255, 16, 102);fill-opacity:1.0;fill-rule:evenodd;stroke:rgb(0, 0, 0);stroke-width:3.0;" d="M 475.322, 559.718 L 471.54, 564.161 L 435.966, 557.259 L 436.4, 543.053 L 461.271, 542.435 z "/>
<path style="fill:rgb(249, 255, 102);fill-opacity:1.0;fill-rule:evenodd;stroke:rgb(0, 0, 0);stroke-width:3.0;" d="M 412.879, 456.812 L 355.908, 499.025 L 398.551, 433.295 z "/>
<path style="fill:rgb(17, 82, 215);fill-opacity:1.0;fill-rule:evenodd;stroke:rgb(0, 0, 0);stroke-width:3.0;" d="M 564.803, 592.337 L 561.455, 591.679 L 553.133, 573.243 L 558.65, 559.508 z "/>
<path style="fill:rgb(249, 223, 41);fill-opacity:1.0;fill-rule:evenodd;stroke:rgb(0, 0, 0);stroke-width:3.0;" d="M 381.709, 164.139 L 376.778, 199.675 L 356.243, 177.301 L 358.056, 160.687 z "/>
<path style="fill:rgb(249, 223, 41);fill-opacity:1.0;fill-rule:evenodd;stroke:rgb(0, 0, 0);stroke-width:3.0;" d="M 515.427, 385.1 L 515.503, 385.228 L 498.899, 389.793 L 493.237, 378.648 z "/>
<path style="fill:rgb(249, 223, 41);fill-opacity:1.0;fill-rule:evenodd;stroke:rgb(0, 0, 0);stroke-width:3.0;" d="M 235.654, 259.666 L 207.785, 232.792 L 206.694, 218.234 L 234.526, 209.794 z "/>
<path style="fill:rgb(249, 223, 41);fill-opacity:1.0;fill-rule:evenodd;stroke:rgb(0, 0, 0);stroke-width:3.0;" d="M 760.158, 244.751 L 702.066, 240.426 L 576.253, 201.956 L 786.188, 151.236 z "/>
<path style="fill:rgb(252, 234, 40);fill-opacity:1.0;fill-rule:evenodd;stroke:rgb(0, 0, 0);stroke-width:3.0;" d="M 306.396, 432.96 L 291.02, 449.282 L 289.476, 440.382 L 298.995, 426.453 z "/>
<path style="fill:rgb(217, 43, 82);fill-opacity:1.0;fill-rule:evenodd;stroke:rgb(0, 0, 0);stroke-width:3.0;" d="M 349.37, 503.174 L 330.363, 508.427 L 301.517, 487.079 L 315.941, 428.007 z "/>
<path style="fill:rgb(217, 43, 82);fill-opacity:1.0;fill-rule:evenodd;stroke:rgb(0, 0, 0);stroke-width:3.0;" d="M 250.514, 497.399 L 249.803, 498.44 L 196.337, 487.645 L 199.467, 484.096 L 206, 481.229 z "/>
<path style="fill:rgb(217, 43, 82);fill-opacity:1.0;fill-rule:evenodd;stroke:rgb(0, 0, 0);stroke-width:3.0;" d="M 357.819, 536.714 L 356.516, 541.843 L 333.769, 537.43 L 337.385, 530.71 L 344.807, 522.078 z "/>
<path style="fill:rgb(217, 43, 82);fill-opacity:1.0;fill-rule:evenodd;stroke:rgb(0, 0, 0);stroke-width:3.0;" d="M 422.989, 452.694 L 429.057, 460.297 L 434.135, 473.712 L 431.514, 487.398 L 409.303, 450.943 z "/>
<path style="fill:rgb(255, 240, 15);fill-opacity:1.0;fill-rule:evenodd;stroke:rgb(0, 0, 0);stroke-width:3.0;" d="M 528.46, 440.902 L 529.926, 448.027 L 518.635, 445.832 L 512.272, 431.749 L 518.366, 420.588 z "/>
<path style="fill:rgb(83, 202, 255);fill-opacity:1.0;fill-rule:evenodd;stroke:rgb(0, 0, 0);stroke-width:3.0;" d="M 559.165, 558.225 L 556.49, 564.885 L 544.353, 569.746 L 547.355, 557.597 z "/>
<path style="fill:rgb(83, 202, 255);fill-opacity:1.0;fill-rule:evenodd;stroke:rgb(0, 0, 0);stroke-width:3.0;" d="M 516.9, 352.345 L 459.986, 290.334 L 451.813, 209.374 L 456.334, 208.617 z "/>
<path style="fill:rgb(107, 47, 237);fill-opacity:1.0;fill-rule:evenodd;stroke:rgb(0, 0, 0);stroke-width:3.0;" d="M 389.972, 486.465 L 381.072, 490.138 L 375.498, 488.27 L 374.059, 485.576 L 389.176, 474.375 z "/>
<path style="fill:rgb(255, 246, 13);fill-opacity:1.0;fill-rule:evenodd;stroke:rgb(0, 0, 0);stroke-width:3.0;" d="M 507.588, 493.597 L 499.266, 503.239 L 494.92, 496.44 L 491.61, 485.594 z "/>
<path style="fill:rgb(255, 246, 13);fill-opacity:1.0;fill-rule:evenodd;stroke:rgb(0, 0, 0);stroke-width:3.0;" d="M 285.225, 168.374 L 286.264, 174.087 L 269.809, 185.68 L 267.958, 185.527 L 264.516, 179.81 L 283.233, 165.257 z "/>
<path style="fill:rgb(255, 246, 13);fill-opacity:1.0;fill-rule:evenodd;stroke:rgb(0, 0, 0);stroke-width:3.0;" d="M 463.797, 562.658 L 464.484, 563.433 L 392.045, 553.575 L 377.951, 546.002 z "/>
<path style="fill:rgb(255, 12, 11);fill-opacity:1.0;fill-rule:evenodd;stroke:rgb(0, 0, 0);stroke-width:3.0;" d="M 123.99, 72.2846 L 103.658, 89.719 L 85.9718, 64.1714 L 92.7251, 51.1873 L 106.567, 50.8434 z "/>
<path style="fill:rgb(255, 12, 11);fill-opacity:1.0;fill-rule:evenodd;stroke:rgb(0, 0, 0);stroke-width:3.0;" d="M 60.749, 587.038 L 62.6684, 592.197 L 61.3182, 593.554 L 47.7952, 585.029 L 55.739, 575.987 z "/>
<path style="fill:rgb(255, 12, 11);fill-opacity:1.0;fill-rule:evenodd;stroke:rgb(0, 0, 0);stroke-width:3.0;" d="M 484.21, 447.962 L 472.494, 461.354 L 430.404, 395.504 L 431.037, 385.876 L 433.161, 383.081 z "/>
<path style="fill:rgb(215, 179, 255);fill-opacity:1.0;fill-rule:evenodd;stroke:rgb(0, 0, 0);stroke-width:3.0;" d="M 497.409, 363.989 L 496.577, 373.64 L 489.881, 372.043 L 482.519, 357.554 L 484.585, 354.54 z "/>
<path style="fill:rgb(215, 179, 255);fill-opacity:1.0;fill-rule:evenodd;stroke:rgb(0, 0, 0);stroke-width:3.0;" d="M 473.597, 527.026 L 470.127, 537.969 L 458.316, 531.389 L 455.999, 527.585 L 471.109, 522.894 z "/>
<path style="fill:rgb(215, 179, 255);fill-opacity:1.0;fill-rule:evenodd;stroke:rgb(0, 0, 0);stroke-width:3.0;" d="M 728.61, 149.411 L 709.556, 169.751 L 707.452, 170.259 L 704.868, 146.074 L 723.311, 141.14 z "/>
<path style="fill:rgb(215, 179, 255);fill-opacity:1.0;fill-rule:evenodd;stroke:rgb(0, 0, 0);stroke-width:3.0;" d="M 372.751, 469.795 L 344.707, 492.69 L 314.376, 424.489 L 339.71, 397.597 z "/>
<path style="fill:rgb(215, 179, 255);fill-opacity:1.0;fill-rule:evenodd;stroke:rgb(0, 0, 0);stroke-width:3.0;" d="M 287.244, 476.515 L 274.028, 513.095 L 251.117, 508.95 L 253.811, 492.575 L 263.256, 478.753 L 269.454, 472.174 L 275.845, 468.079 z "/>
<path style="fill:rgb(215, 179, 255);fill-opacity:1.0;fill-rule:evenodd;stroke:rgb(0, 0, 0);stroke-width:3.0;" d="M 489.292, 343.391 L 491.571, 345.167 L 507.066, 371.104 L 478.836, 350.304 L 475.3, 343.345 z "/>
<path style="fill:rgb(255, 255, 30);fill-opacity:1.0;fill-rule:evenodd;stroke:rgb(0, 0, 0);stroke-width:3.0;" d="M 265.449, 181.36 L 266.756, 192.352 L 264.689, 195.253 L 257.61, 185.754 L 261.515, 174.828 z "/>
<path style="fill:rgb(255, 102, 184);fill-opacity:1.0;fill-rule:evenodd;stroke:rgb(0, 0, 0);stroke-width:3.0;" d="M 315.941, 428.007 L 301.517, 487.079 L 274.352, 466.974 L 314.376, 424.489 z "/>
<path style="fill:rgb(255, 102, 184);fill-opacity:1.0;fill-rule:evenodd;stroke:rgb(0, 0, 0);stroke-width:3.0;" d="M 441.464, 503.73 L 359.895, 528.545 L 367.423, 498.919 L 434.022, 491.514 z "/>
<path style="fill:rgb(255, 102, 184);fill-opacity:1.0;fill-rule:evenodd;stroke:rgb(0, 0, 0);stroke-width:3.0;" d="M 508.3, 408.295 L 505.488, 410.767 L 489.536, 379.915 L 492.777, 377.744 z "/>
<path style="fill:rgb(54, 37, 189);fill-opacity:1.0;fill-rule:evenodd;stroke:rgb(0, 0, 0);stroke-width:3.0;" d="M 469.939, 523.257 L 455.999, 527.585 L 452.116, 521.213 L 439.641, 488.258 z "/>
<path style="fill:rgb(54, 37, 189);fill-opacity:1.0;fill-rule:evenodd;stroke:rgb(0, 0, 0);stroke-width:3.0;" d="M 381.199, 30.3149 L 382.953, 34.4781 L 367.464, 38.7578 L 364.134, 30.0835 z "/>
<path style="fill:rgb(255, 255, 24);fill-opacity:1.0;fill-rule:evenodd;stroke:rgb(0, 0, 0);stroke-width:3.0;" d="M 584.49, 546.679 L 566.963, 550.54 L 571.222, 536.809 z "/>
<path style="fill:rgb(255, 255, 24);fill-opacity:1.0;fill-rule:evenodd;stroke:rgb(0, 0, 0);stroke-width:3.0;" d="M 571.905, 525.437 L 554.604, 525.436 L 538.538, 489.881 L 536.219, 478.611 L 566.062, 476.13 z "/>
<path style="fill:rgb(255, 255, 24);fill-opacity:1.0;fill-rule:evenodd;stroke:rgb(0, 0, 0);stroke-width:3.0;" d="M 56.9601, 574.597 L 43.9674, 589.386 L 37.2084, 586.735 L 24.0191, 542.589 L 34.9031, 538.465 z "/>
<path style="fill:rgb(21, 246, 243);fill-opacity:1.0;fill-rule:evenodd;stroke:rgb(0, 0, 0);stroke-width:3.0;" d="M 215.876, 409.032 L 184.188, 410.014 L 167.934, 393.14 L 168.082, 393.05 z "/>
<path style="fill:rgb(217, 41, 138);fill-opacity:1.0;fill-rule:evenodd;stroke:rgb(0, 0, 0);stroke-width:3.0;" d="M 242.715, 408.2 L 215.876, 409.032 L 168.082, 393.05 L 195.463, 376.506 z "/>
<path style="fill:rgb(255, 255, 57);fill-opacity:1.0;fill-rule:evenodd;stroke:rgb(0, 0, 0);stroke-width:3.0;" d="M 271.762, 85.255 L 265.213, 92.6743 L 240.662, 95.4933 L 263.814, 76.5955 z "/>
<path style="fill:rgb(255, 255, 57);fill-opacity:1.0;fill-rule:evenodd;stroke:rgb(0, 0, 0);stroke-width:3.0;" d="M 547.564, 219.524 L 512.15, 221.64 L 525.129, 214.308 L 537.52, 211.314 z "/>
<path style="fill:rgb(255, 255, 57);fill-opacity:1.0;fill-rule:evenodd;stroke:rgb(0, 0, 0);stroke-width:3.0;" d="M 594.431, 536.332 L 597.577, 543.796 L 584.49, 546.679 L 571.222, 536.809 L 574.266, 526.998 z "/>
<path style="fill:rgb(10, 22, 237);fill-opacity:1.0;fill-rule:evenodd;stroke:rgb(0, 0, 0);stroke-width:3.0;" d="M 546.144, 506.714 L 551.423, 529.518 L 544.697, 537.32 L 534.407, 541.432 L 539.043, 490.997 z "/>
<path style="fill:rgb(10, 22, 237);fill-opacity:1.0;fill-rule:evenodd;stroke:rgb(0, 0, 0);stroke-width:3.0;" d="M 381.375, 48.6318 L 375.171, 58.8309 L 367.464, 38.7578 L 377.675, 35.9366 z "/>
<path style="fill:rgb(10, 22, 237);fill-opacity:1.0;fill-rule:evenodd;stroke:rgb(0, 0, 0);stroke-width:3.0;" d="M 277.602, 138.473 L 281.959, 148.255 L 284.101, 166.616 L 267.064, 139.961 L 272.736, 137.271 z "/>
<path style="fill:rgb(10, 22, 237);fill-opacity:1.0;fill-rule:evenodd;stroke:rgb(0, 0, 0);stroke-width:3.0;" d="M 485.266, 546.404 L 498.778, 568.844 L 508.369, 593.948 L 486.129, 577.04 L 471.109, 552.387 L 482.423, 544.82 z "/>
<path style="fill:rgb(10, 22, 237);fill-opacity:1.0;fill-rule:evenodd;stroke:rgb(0, 0, 0);stroke-width:3.0;" d="M 639.339, 53.6998 L 611.257, 65.4684 L 612.05, 52.3331 z "/>
<path style="fill:rgb(255, 28, 9);fill-opacity:1.0;fill-rule:evenodd;stroke:rgb(0, 0, 0);stroke-width:3.0;" d="M 555.98, 476.968 L 543.872, 477.975 L 541.624, 474.987 L 545.559, 460.193 L 550.864, 456.377 z "/>
<path style="fill:rgb(168, 24, 255);fill-opacity:1.0;fill-rule:evenodd;stroke:rgb(0, 0, 0);stroke-width:3.0;" d="M 446.808, 482.538 L 448.939, 486.077 L 445.223, 486.61 L 441.234, 484.112 L 431.774, 467.473 L 429.057, 460.297 z "/>
<path style="fill:rgb(168, 24, 255);fill-opacity:1.0;fill-rule:evenodd;stroke:rgb(0, 0, 0);stroke-width:3.0;" d="M 452.597, 217.143 L 459.986, 290.334 L 394.489, 218.971 L 437.104, 211.837 z "/>
<path style="fill:rgb(255, 43, 69);fill-opacity:1.0;fill-rule:evenodd;stroke:rgb(0, 0, 0);stroke-width:3.0;" d="M 762.623, 457.515 L 758.323, 454.734 L 759.646, 436.277 L 769.236, 430.688 z "/>
<path style="fill:rgb(240, 110, 255);fill-opacity:1.0;fill-rule:evenodd;stroke:rgb(0, 0, 0);stroke-width:3.0;" d="M 332.746, 151.7 L 316.035, 207.166 L 310.455, 207.846 L 284.565, 167.341 L 293.637, 109.089 z "/>
<path style="fill:rgb(246, 24, 255);fill-opacity:1.0;fill-rule:evenodd;stroke:rgb(0, 0, 0);stroke-width:3.0;" d="M 248.86, 499.819 L 232.711, 523.453 L 189.715, 509.952 L 191.036, 494.503 z "/>
<path style="fill:rgb(246, 24, 255);fill-opacity:1.0;fill-rule:evenodd;stroke:rgb(0, 0, 0);stroke-width:3.0;" d="M 206.611, 489.719 L 209.75, 496.224 L 119.601, 487.936 L 102.485, 482.562 L 92.7313, 466.726 z "/>
<path style="fill:rgb(255, 255, 9);fill-opacity:1.0;fill-rule:evenodd;stroke:rgb(0, 0, 0);stroke-width:3.0;" d="M 275.721, 216.912 L 271.52, 219.078 L 265.812, 215.425 L 262.696, 210.311 L 264.669, 201.577 z "/>
<path style="fill:rgb(255, 255, 9);fill-opacity:1.0;fill-rule:evenodd;stroke:rgb(0, 0, 0);stroke-width:3.0;" d="M 430.288, 146.807 L 389.287, 213.304 L 376.778, 199.675 L 391.199, 95.7464 L 403.513, 83.2687 z "/>
<path style="fill:rgb(136, 128, 187);fill-opacity:1.0;fill-rule:evenodd;stroke:rgb(0, 0, 0);stroke-width:3.0;" d="M 403.513, 83.2687 L 391.199, 95.7464 L 395.552, 64.3756 z "/>
<path style="fill:rgb(50, 255, 189);fill-opacity:1.0;fill-rule:evenodd;stroke:rgb(0, 0, 0);stroke-width:3.0;" d="M 460.091, 441.949 L 427.279, 398.249 L 419.09, 377.804 z "/>
<path style="fill:rgb(50, 255, 189);fill-opacity:1.0;fill-rule:evenodd;stroke:rgb(0, 0, 0);stroke-width:3.0;" d="M 508.386, 567.5 L 508.227, 569.153 L 505.083, 579.313 L 490.343, 554.835 z "/>
<path style="fill:rgb(50, 255, 189);fill-opacity:1.0;fill-rule:evenodd;stroke:rgb(0, 0, 0);stroke-width:3.0;" d="M 774.417, 409.668 L 769.236, 430.688 L 759.646, 436.277 L 762.925, 390.521 z "/>
<path style="fill:rgb(50, 255, 189);fill-opacity:1.0;fill-rule:evenodd;stroke:rgb(0, 0, 0);stroke-width:3.0;" d="M 523.992, 459.656 L 506.479, 485.842 L 481.163, 474.916 L 476.419, 467.495 L 504.235, 446.048 L 512.898, 440.941 z "/>
<path style="fill:rgb(50, 255, 189);fill-opacity:1.0;fill-rule:evenodd;stroke:rgb(0, 0, 0);stroke-width:3.0;" d="M 551.216, 219.306 L 547.564, 219.524 L 537.52, 211.314 L 553.025, 207.568 z "/>
<path style="fill:rgb(50, 255, 189);fill-opacity:1.0;fill-rule:evenodd;stroke:rgb(0, 0, 0);stroke-width:3.0;" d="M 410.962, 34.6437 L 394.086, 42.7244 L 380.279, 28.1312 L 376.755, 19.7696 L 391.39, 13.7605 z "/>
<path style="fill:rgb(255, 45, 152);fill-opacity:1.0;fill-rule:evenodd;stroke:rgb(0, 0, 0);stroke-width:3.0;" d="M 461.593, 316.399 L 459.931, 315.912 L 447.14, 287.606 L 454.063, 285.756 z "/>
<path style="fill:rgb(228, 207, 34);fill-opacity:1.0;fill-rule:evenodd;stroke:rgb(0, 0, 0);stroke-width:3.0;" d="M 477.091, 402.117 L 496.94, 433.411 L 484.21, 447.962 L 435.629, 386.217 z "/>
<path style="fill:rgb(255, 252, 9);fill-opacity:1.0;fill-rule:evenodd;stroke:rgb(0, 0, 0);stroke-width:3.0;" d="M 456.334, 208.617 L 447.867, 210.035 L 440.65, 171.397 z "/>
<path style="fill:rgb(255, 7, 86);fill-opacity:1.0;fill-rule:evenodd;stroke:rgb(0, 0, 0);stroke-width:3.0;" d="M 500.951, 430.765 L 475.118, 465.46 L 474.527, 464.534 L 475.244, 458.211 L 500.621, 429.204 z "/>
<path style="fill:rgb(255, 7, 86);fill-opacity:1.0;fill-rule:evenodd;stroke:rgb(0, 0, 0);stroke-width:3.0;" d="M 392.278, 442.964 L 373.628, 471.711 L 339.71, 397.597 L 340.968, 396.262 z "/>
<path style="fill:rgb(72, 81, 255);fill-opacity:1.0;fill-rule:evenodd;stroke:rgb(0, 0, 0);stroke-width:3.0;" d="M 297.758, 187.982 L 419.09, 377.804 L 427.279, 398.249 L 269.571, 188.205 L 267.958, 185.527 z "/>
<path style="fill:rgb(168, 240, 207);fill-opacity:1.0;fill-rule:evenodd;stroke:rgb(0, 0, 0);stroke-width:3.0;" d="M 322.833, 309.017 L 267.503, 288.467 L 268.003, 271.147 L 291.688, 257.897 z "/>
<path style="fill:rgb(168, 240, 207);fill-opacity:1.0;fill-rule:evenodd;stroke:rgb(0, 0, 0);stroke-width:3.0;" d="M 395.552, 64.3756 L 381.709, 164.139 L 345.728, 158.888 L 393.98, 60.6455 z "/>
<path style="fill:rgb(255, 134, 42);fill-opacity:1.0;fill-rule:evenodd;stroke:rgb(0, 0, 0);stroke-width:3.0;" d="M 190.079, 510.067 L 189.222, 516.324 L 166.819, 559.121 L 139.773, 555.759 L 139.319, 494.128 z "/>
<path style="fill:rgb(255, 134, 42);fill-opacity:1.0;fill-rule:evenodd;stroke:rgb(0, 0, 0);stroke-width:3.0;" d="M 192.053, 486.78 L 111.452, 470.506 L 170.085, 458.306 z "/>
<path style="fill:rgb(255, 243, 24);fill-opacity:1.0;fill-rule:evenodd;stroke:rgb(0, 0, 0);stroke-width:3.0;" d="M 366.679, 501.849 L 363.695, 513.594 L 359.06, 516.788 L 352.883, 512.686 L 363.599, 500.223 z "/>
<path style="fill:rgb(255, 202, 31);fill-opacity:1.0;fill-rule:evenodd;stroke:rgb(0, 0, 0);stroke-width:3.0;" d="M 314.169, 510.18 L 284.889, 518.461 L 285.499, 513.28 L 309.219, 501.168 z "/>
<path style="fill:rgb(255, 202, 31);fill-opacity:1.0;fill-rule:evenodd;stroke:rgb(0, 0, 0);stroke-width:3.0;" d="M 539.043, 490.997 L 533.601, 550.192 L 531.119, 553.072 L 509.524, 519.288 L 515.208, 498.861 L 537.398, 487.358 z "/>
<path style="fill:rgb(249, 126, 39);fill-opacity:1.0;fill-rule:evenodd;stroke:rgb(0, 0, 0);stroke-width:3.0;" d="M 207.156, 224.391 L 207.785, 232.792 L 187.898, 213.615 L 186.921, 209.758 z "/>
<path style="fill:rgb(249, 126, 39);fill-opacity:1.0;fill-rule:evenodd;stroke:rgb(0, 0, 0);stroke-width:3.0;" d="M 410.368, 463.542 L 402.067, 490.464 L 390.521, 494.796 L 390.299, 491.417 L 408.761, 462.646 z "/>
<path style="fill:rgb(255, 11, 140);fill-opacity:1.0;fill-rule:evenodd;stroke:rgb(0, 0, 0);stroke-width:3.0;" d="M 518.155, 248.714 L 472.249, 246.383 L 464.868, 228.867 L 489.075, 223.018 L 517.294, 221.332 z "/>
<path style="fill:rgb(255, 3, 231);fill-opacity:1.0;fill-rule:evenodd;stroke:rgb(0, 0, 0);stroke-width:3.0;" d="M 553.816, 250.525 L 518.155, 248.714 L 517.294, 221.332 L 556.49, 218.99 z "/>
<path style="fill:rgb(249, 24, 255);fill-opacity:1.0;fill-rule:evenodd;stroke:rgb(0, 0, 0);stroke-width:3.0;" d="M 141.794, 49.9681 L 115.242, 50.6278 L 104.944, 47.2695 L 113.668, 31.3217 z "/>
<path style="fill:rgb(255, 255, 34);fill-opacity:1.0;fill-rule:evenodd;stroke:rgb(0, 0, 0);stroke-width:3.0;" d="M 113.668, 31.3217 L 104.944, 47.2695 L 96.2394, 44.4305 L 105.778, 26.0909 z "/>
<path style="fill:rgb(255, 252, 31);fill-opacity:1.0;fill-rule:evenodd;stroke:rgb(0, 0, 0);stroke-width:3.0;" d="M 253.209, 493.456 L 250.514, 497.399 L 214.027, 484.145 L 215.981, 465.369 L 218.23, 462.818 z "/>
<path style="fill:rgb(255, 252, 31);fill-opacity:1.0;fill-rule:evenodd;stroke:rgb(0, 0, 0);stroke-width:3.0;" d="M 302.298, 43.3939 L 260.276, 72.741 L 250.95, 62.5797 L 286.431, 41.7135 L 297.663, 36.7287 z "/>
<path style="fill:rgb(255, 252, 31);fill-opacity:1.0;fill-rule:evenodd;stroke:rgb(0, 0, 0);stroke-width:3.0;" d="M 321.661, 114.58 L 334.783, 153.919 L 295.157, 110.744 z "/>
<path style="fill:rgb(255, 168, 8);fill-opacity:1.0;fill-rule:evenodd;stroke:rgb(0, 0, 0);stroke-width:3.0;" d="M 317.631, 102.496 L 321.661, 114.58 L 295.157, 110.744 L 283.449, 97.9883 z "/>
<path style="fill:rgb(249, 255, 44);fill-opacity:1.0;fill-rule:evenodd;stroke:rgb(0, 0, 0);stroke-width:3.0;" d="M 263.814, 76.5955 L 250.99, 87.0633 L 234.697, 89.3232 L 227.887, 78.6695 L 233.055, 74.619 L 261.171, 73.7161 z "/>
<path style="fill:rgb(30, 33, 255);fill-opacity:1.0;fill-rule:evenodd;stroke:rgb(0, 0, 0);stroke-width:3.0;" d="M 274.24, 130.922 L 277.602, 138.473 L 263.959, 135.103 L 243.685, 103.385 z "/>
<path style="fill:rgb(255, 136, 14);fill-opacity:1.0;fill-rule:evenodd;stroke:rgb(0, 0, 0);stroke-width:3.0;" d="M 783.206, 374.008 L 774.417, 409.668 L 762.925, 390.521 L 764.445, 369.313 z "/>
<path style="fill:rgb(255, 14, 89);fill-opacity:1.0;fill-rule:evenodd;stroke:rgb(0, 0, 0);stroke-width:3.0;" d="M 531.724, 456.766 L 538.538, 489.881 L 521.037, 451.149 z "/>
<path style="fill:rgb(255, 14, 89);fill-opacity:1.0;fill-rule:evenodd;stroke:rgb(0, 0, 0);stroke-width:3.0;" d="M 195.463, 376.506 L 167.934, 393.14 L 135.984, 359.969 L 146.164, 343.44 z "/>
<path style="fill:rgb(252, 0, 16);fill-opacity:1.0;fill-rule:evenodd;stroke:rgb(0, 0, 0);stroke-width:3.0;" d="M 430.665, 486.005 L 424.419, 492.582 L 404.636, 494.781 L 412.148, 486.682 L 427.556, 480.901 z "/>
<path style="fill:rgb(252, 0, 16);fill-opacity:1.0;fill-rule:evenodd;stroke:rgb(0, 0, 0);stroke-width:3.0;" d="M 133.068, 334.656 L 146.164, 343.44 L 135.984, 359.969 L 106.472, 329.329 L 113.987, 329.068 z "/>
<path style="fill:rgb(255, 9, 123);fill-opacity:1.0;fill-rule:evenodd;stroke:rgb(0, 0, 0);stroke-width:3.0;" d="M 348.65, 236.307 L 323.665, 206.237 L 332.706, 205.135 z "/>
<path style="fill:rgb(255, 202, 25);fill-opacity:1.0;fill-rule:evenodd;stroke:rgb(0, 0, 0);stroke-width:3.0;" d="M 378.511, 23.9358 L 381.199, 30.3149 L 364.134, 30.0835 L 361.515, 23.2634 z "/>
<path style="fill:rgb(255, 1, 47);fill-opacity:1.0;fill-rule:evenodd;stroke:rgb(0, 0, 0);stroke-width:3.0;" d="M 360.689, 21.1107 L 336.368, 65.3096 L 304.134, 33.8571 L 356.637, 10.5576 z "/>
<path style="fill:rgb(255, 1, 47);fill-opacity:1.0;fill-rule:evenodd;stroke:rgb(0, 0, 0);stroke-width:3.0;" d="M 213.482, 565.142 L 205.074, 563.896 L 215.558, 548.554 L 223.931, 548.128 z "/>
<path style="fill:rgb(163, 8, 243);fill-opacity:1.0;fill-rule:evenodd;stroke:rgb(0, 0, 0);stroke-width:3.0;" d="M 232.711, 523.453 L 205.086, 563.878 L 183.084, 561.143 L 190.079, 510.067 z "/>
<path style="fill:rgb(255, 0, 17);fill-opacity:1.0;fill-rule:evenodd;stroke:rgb(0, 0, 0);stroke-width:3.0;" d="M 405.507, 58.827 L 396.225, 65.9734 L 391.177, 53.993 L 393.678, 48.1403 z "/>
<path style="fill:rgb(255, 0, 17);fill-opacity:1.0;fill-rule:evenodd;stroke:rgb(0, 0, 0);stroke-width:3.0;" d="M 198.836, 563.101 L 176.557, 582.915 L 187.368, 561.675 z "/>
<path style="fill:rgb(38, 255, 255);fill-opacity:1.0;fill-rule:evenodd;stroke:rgb(0, 0, 0);stroke-width:3.0;" d="M 456.475, 345.756 L 445.893, 348.361 L 442.049, 335.769 L 445.394, 327.062 z "/>
<path style="fill:rgb(7, 5, 197);fill-opacity:1.0;fill-rule:evenodd;stroke:rgb(0, 0, 0);stroke-width:3.0;" d="M 725.778, 80.4288 L 725.933, 94.8215 L 703.185, 37.3718 L 708.47, 34.1165 z "/>
<path style="fill:rgb(7, 5, 197);fill-opacity:1.0;fill-rule:evenodd;stroke:rgb(0, 0, 0);stroke-width:3.0;" d="M 783.541, 180.386 L 762.18, 237.486 L 778.537, 178.725 z "/>
<path style="fill:rgb(119, 255, 234);fill-opacity:1.0;fill-rule:evenodd;stroke:rgb(0, 0, 0);stroke-width:3.0;" d="M 512.898, 440.941 L 478.102, 461.453 L 504.244, 426.341 z "/>
<path style="fill:rgb(255, 30, 16);fill-opacity:1.0;fill-rule:evenodd;stroke:rgb(0, 0, 0);stroke-width:3.0;" d="M 405.158, 54.4256 L 399.255, 48.187 L 423.327, 36.3717 z "/>
<path style="fill:rgb(255, 30, 16);fill-opacity:1.0;fill-rule:evenodd;stroke:rgb(0, 0, 0);stroke-width:3.0;" d="M 598.624, 591.74 L 561.885, 576.767 L 558.65, 559.508 L 561.795, 551.678 L 582.261, 547.17 z "/>
<path style="fill:rgb(255, 30, 16);fill-opacity:1.0;fill-rule:evenodd;stroke:rgb(0, 0, 0);stroke-width:3.0;" d="M 721.534, 26.0703 L 703.185, 37.3718 L 699.644, 28.4279 L 703.41, 26.8493 L 721.409, 24.7009 z "/>
<path style="fill:rgb(255, 246, 10);fill-opacity:1.0;fill-rule:evenodd;stroke:rgb(0, 0, 0);stroke-width:3.0;" d="M 771.204, 261.566 L 679.034, 256.885 L 645.14, 240.088 L 660.695, 227.776 z "/>
<path style="fill:rgb(255, 246, 10);fill-opacity:1.0;fill-rule:evenodd;stroke:rgb(0, 0, 0);stroke-width:3.0;" d="M 746.114, 151.875 L 747.565, 153.402 L 747.203, 156.95 L 738.063, 162.863 L 734.156, 163.807 L 733.603, 157.77 L 739.334, 149.776 z "/>
<path style="fill:rgb(175, 255, 252);fill-opacity:1.0;fill-rule:evenodd;stroke:rgb(0, 0, 0);stroke-width:3.0;" d="M 460.187, 362.42 L 472.133, 394.299 L 451.752, 362.166 L 459.383, 360.662 z "/>
<path style="fill:rgb(175, 255, 252);fill-opacity:1.0;fill-rule:evenodd;stroke:rgb(0, 0, 0);stroke-width:3.0;" d="M 183.084, 561.143 L 166.819, 559.121 L 189.222, 516.324 z "/>
<path style="fill:rgb(175, 255, 252);fill-opacity:1.0;fill-rule:evenodd;stroke:rgb(0, 0, 0);stroke-width:3.0;" d="M 312.956, 406.023 L 268.182, 407.41 L 335.924, 372.411 z "/>
<path style="fill:rgb(175, 255, 252);fill-opacity:1.0;fill-rule:evenodd;stroke:rgb(0, 0, 0);stroke-width:3.0;" d="M 398.551, 433.295 L 392.278, 442.964 L 368.058, 420.919 L 388.936, 417.513 z "/>
<path style="fill:rgb(175, 255, 252);fill-opacity:1.0;fill-rule:evenodd;stroke:rgb(0, 0, 0);stroke-width:3.0;" d="M 679.034, 256.885 L 627.243, 254.254 L 645.14, 240.088 z "/>
<path style="fill:rgb(12, 57, 255);fill-opacity:1.0;fill-rule:evenodd;stroke:rgb(0, 0, 0);stroke-width:3.0;" d="M 731.869, 138.85 L 704.868, 146.074 L 704.246, 140.254 L 730.967, 129.004 z "/>
<path style="fill:rgb(75, 35, 215);fill-opacity:1.0;fill-rule:evenodd;stroke:rgb(0, 0, 0);stroke-width:3.0;" d="M 459.971, 375.125 L 440.401, 388.047 L 435.629, 386.217 L 433.161, 383.081 L 450.527, 360.235 z "/>
<path style="fill:rgb(34, 255, 255);fill-opacity:1.0;fill-rule:evenodd;stroke:rgb(0, 0, 0);stroke-width:3.0;" d="M 174.309, 155.09 L 159.25, 151.537 L 161.242, 149.855 L 178.092, 142.976 z "/>
<path style="fill:rgb(255, 59, 136);fill-opacity:1.0;fill-rule:evenodd;stroke:rgb(0, 0, 0);stroke-width:3.0;" d="M 477.091, 402.117 L 449.294, 391.457 L 457.849, 376.526 L 459.971, 375.125 z "/>
<path style="fill:rgb(255, 204, 11);fill-opacity:1.0;fill-rule:evenodd;stroke:rgb(0, 0, 0);stroke-width:3.0;" d="M 280.558, 554.855 L 288.861, 527.965 L 322.946, 523.448 z "/>
<path style="fill:rgb(255, 204, 11);fill-opacity:1.0;fill-rule:evenodd;stroke:rgb(0, 0, 0);stroke-width:3.0;" d="M 252.935, 536.117 L 235.088, 541.069 L 233.19, 535.281 L 261.558, 527.441 z "/>
<path style="fill:rgb(243, 94, 14);fill-opacity:1.0;fill-rule:evenodd;stroke:rgb(0, 0, 0);stroke-width:3.0;" d="M 266.626, 565.178 L 263.034, 567.839 L 252.854, 536.139 L 271.215, 531.044 z "/>
<path style="fill:rgb(212, 255, 49);fill-opacity:1.0;fill-rule:evenodd;stroke:rgb(0, 0, 0);stroke-width:3.0;" d="M 146.431, 53.0421 L 138.957, 59.4509 L 110.059, 55.1413 L 106.567, 50.8434 L 141.794, 49.9681 z "/>
<path style="fill:rgb(255, 255, 7);fill-opacity:1.0;fill-rule:evenodd;stroke:rgb(0, 0, 0);stroke-width:3.0;" d="M 257.808, 571.712 L 231.168, 591.45 L 231.092, 567.752 z "/>
<path style="fill:rgb(255, 237, 16);fill-opacity:1.0;fill-rule:evenodd;stroke:rgb(0, 0, 0);stroke-width:3.0;" d="M 22.3101, 517.836 L 23.0277, 537.133 L 12.9777, 524.896 L 13.3954, 523.955 L 21.4257, 516.387 z "/>
<path style="fill:rgb(255, 237, 16);fill-opacity:1.0;fill-rule:evenodd;stroke:rgb(0, 0, 0);stroke-width:3.0;" d="M 374.003, 200.105 L 336.465, 204.677 L 333.266, 178.143 z "/>
<path style="fill:rgb(255, 252, 23);fill-opacity:1.0;fill-rule:evenodd;stroke:rgb(0, 0, 0);stroke-width:3.0;" d="M 267.051, 121.489 L 257.201, 115.566 L 256.922, 115.315 L 244.648, 95.0356 L 252.44, 94.141 z "/>
<path style="fill:rgb(255, 252, 23);fill-opacity:1.0;fill-rule:evenodd;stroke:rgb(0, 0, 0);stroke-width:3.0;" d="M 390.299, 491.417 L 389.21, 474.893 L 402.979, 471.658 z "/>
<path style="fill:rgb(255, 246, 11);fill-opacity:1.0;fill-rule:evenodd;stroke:rgb(0, 0, 0);stroke-width:3.0;" d="M 191.036, 494.503 L 189.715, 509.952 L 119.601, 487.936 z "/>
<path style="fill:rgb(168, 0, 177);fill-opacity:1.0;fill-rule:evenodd;stroke:rgb(0, 0, 0);stroke-width:3.0;" d="M 288.653, 187.232 L 269.809, 185.68 L 286.264, 174.087 z "/>
<path style="fill:rgb(168, 0, 177);fill-opacity:1.0;fill-rule:evenodd;stroke:rgb(0, 0, 0);stroke-width:3.0;" d="M 444.448, 329.524 L 432.738, 360.007 L 434.791, 328.781 L 435.345, 327.776 L 439.156, 325.846 z "/>
<path style="fill:rgb(49, 55, 255);fill-opacity:1.0;fill-rule:evenodd;stroke:rgb(0, 0, 0);stroke-width:3.0;" d="M 267.503, 288.467 L 264.281, 287.27 L 255.066, 278.385 L 268.003, 271.147 z "/>
<path style="fill:rgb(177, 33, 94);fill-opacity:1.0;fill-rule:evenodd;stroke:rgb(0, 0, 0);stroke-width:3.0;" d="M 301.456, 487.033 L 309.219, 501.168 L 285.499, 513.28 L 289.619, 478.273 z "/>
<path style="fill:rgb(8, 255, 187);fill-opacity:1.0;fill-rule:evenodd;stroke:rgb(0, 0, 0);stroke-width:3.0;" d="M 522.253, 413.467 L 516.387, 424.212 L 506.866, 405.473 L 517.067, 402.478 z "/>
<path style="fill:rgb(89, 231, 184);fill-opacity:1.0;fill-rule:evenodd;stroke:rgb(0, 0, 0);stroke-width:3.0;" d="M 261.312, 481.598 L 255.721, 489.78 L 235.388, 477.847 L 228.937, 472.196 z "/>
<path style="fill:rgb(255, 130, 33);fill-opacity:1.0;fill-rule:evenodd;stroke:rgb(0, 0, 0);stroke-width:3.0;" d="M 570.087, 525.437 L 573.341, 529.979 L 569.891, 541.099 L 559.503, 525.436 z "/>
<path style="fill:rgb(255, 130, 33);fill-opacity:1.0;fill-rule:evenodd;stroke:rgb(0, 0, 0);stroke-width:3.0;" d="M 233.142, 161.805 L 238.241, 170.174 L 198.937, 160.9 z "/>
<path style="fill:rgb(255, 20, 78);fill-opacity:1.0;fill-rule:evenodd;stroke:rgb(0, 0, 0);stroke-width:3.0;" d="M 233.142, 161.805 L 198.937, 160.9 L 174.309, 155.09 L 181.211, 132.99 L 203.908, 113.821 z "/>
<path style="fill:rgb(255, 28, 12);fill-opacity:1.0;fill-rule:evenodd;stroke:rgb(0, 0, 0);stroke-width:3.0;" d="M 291.688, 257.897 L 255.066, 278.385 L 235.654, 259.666 L 234.526, 209.794 L 258.037, 202.665 z "/>
<path style="fill:rgb(243, 57, 12);fill-opacity:1.0;fill-rule:evenodd;stroke:rgb(0, 0, 0);stroke-width:3.0;" d="M 335.924, 372.411 L 268.182, 407.41 L 242.715, 408.2 L 226.625, 397.408 L 345.67, 358.149 z "/>
<path style="fill:rgb(252, 255, 9);fill-opacity:1.0;fill-rule:evenodd;stroke:rgb(0, 0, 0);stroke-width:3.0;" d="M 34.0499, 576.164 L 37.2084, 586.735 L 10.2445, 576.161 L 13.1796, 574.428 z "/>
<path style="fill:rgb(182, 124, 255);fill-opacity:1.0;fill-rule:evenodd;stroke:rgb(0, 0, 0);stroke-width:3.0;" d="M 270.286, 122.044 L 266.287, 120.058 L 255.197, 99.3015 L 256.986, 93.619 L 257.596, 93.549 z "/>
<path style="fill:rgb(177, 0, 31);fill-opacity:1.0;fill-rule:evenodd;stroke:rgb(0, 0, 0);stroke-width:3.0;" d="M 546.722, 577.483 L 544.807, 581.874 L 529.272, 572.197 L 541.465, 569.258 z "/>
<path style="fill:rgb(243, 5, 10);fill-opacity:1.0;fill-rule:evenodd;stroke:rgb(0, 0, 0);stroke-width:3.0;" d="M 512.163, 488.295 L 507.588, 493.597 L 491.61, 485.594 L 489.44, 478.489 z "/>
<path style="fill:rgb(42, 21, 255);fill-opacity:1.0;fill-rule:evenodd;stroke:rgb(0, 0, 0);stroke-width:3.0;" d="M 196.054, 487.587 L 192.053, 486.78 L 170.085, 458.306 L 202.36, 451.59 z "/>
<path style="fill:rgb(42, 21, 255);fill-opacity:1.0;fill-rule:evenodd;stroke:rgb(0, 0, 0);stroke-width:3.0;" d="M 255.397, 515.442 L 238.795, 533.732 L 232.253, 535.54 L 241.708, 512.072 z "/>
<path style="fill:rgb(179, 40, 234);fill-opacity:1.0;fill-rule:evenodd;stroke:rgb(0, 0, 0);stroke-width:3.0;" d="M 388.936, 417.513 L 368.058, 420.919 L 340.968, 396.262 L 362.234, 373.687 z "/>
<path style="fill:rgb(246, 82, 165);fill-opacity:1.0;fill-rule:evenodd;stroke:rgb(0, 0, 0);stroke-width:3.0;" d="M 493.791, 332.281 L 490.547, 336.211 L 481.339, 328.037 L 469.007, 307.395 z "/>
<path style="fill:rgb(220, 27, 55);fill-opacity:1.0;fill-rule:evenodd;stroke:rgb(0, 0, 0);stroke-width:3.0;" d="M 218.23, 462.818 L 196.337, 487.645 L 196.054, 487.587 L 202.36, 451.59 L 204.826, 451.077 z "/>
<path style="fill:rgb(136, 255, 179);fill-opacity:1.0;fill-rule:evenodd;stroke:rgb(0, 0, 0);stroke-width:3.0;" d="M 261.229, 516.878 L 249.169, 530.865 L 238.795, 533.732 L 255.397, 515.442 z "/>
<path style="fill:rgb(194, 177, 89);fill-opacity:1.0;fill-rule:evenodd;stroke:rgb(0, 0, 0);stroke-width:3.0;" d="M 289.619, 478.273 L 285.281, 515.131 L 274.028, 513.095 L 287.244, 476.515 z "/>
</svg>