<?xml version="1.0" encoding="iso-8859-1" standalone="no"?>
<!DOCTYPE svg PUBLIC "-//W3C//DTD SVG 1.0//EN" "http://www.w3.org/TR/2001/REC-SVG-20010904/DTD/svg10.dtd">
<svg xmlns="http://www.w3.org/2000/svg" width="800" height="600">
<path style="fill:rgb(0, 0, 0);fill-opacity:0.0;fill-rule:evenodd;stroke:rgb(0, 0, 0);stroke-width:0.0;" d="M 0, 600 L 800, 600 L 800, 0 L 0, 0 z "/>
<path style="fill:rgb(168, 177, 249);fill-opacity:1.0;fill-rule:evenodd;stroke:rgb(0, 0, 0);stroke-width:3.0;" d="M 200.041, 105.336 L 195.364, 115.529 L 172.06, 90.1402 L 171.505, 86.737 L 188.597, 76.6668 z "/>
<path style="fill:rgb(168, 177, 249);fill-opacity:1.0;fill-rule:evenodd;stroke:rgb(0, 0, 0);stroke-width:3.0;" d="M 602.526, 119.044 L 410.834, 121.86 L 390.303, 109.534 L 398.074, 105.66 z "/>
<path style="fill:rgb(255, 159, 234);fill-opacity:1.0;fill-rule:evenodd;stroke:rgb(0, 0, 0);stroke-width:3.0;" d="M 202.019, 364.468 L 163.016, 402.062 L 139.765, 379.708 L 191.825, 352.572 z "/>
<path style="fill:rgb(255, 159, 234);fill-opacity:1.0;fill-rule:evenodd;stroke:rgb(0, 0, 0);stroke-width:3.0;" d="M 411.215, 182.215 L 382.458, 194.306 L 324.337, 177.35 L 379.027, 171.649 z "/>
<path style="fill:rgb(58, 252, 215);fill-opacity:1.0;fill-rule:evenodd;stroke:rgb(0, 0, 0);stroke-width:3.0;" d="M 447.406, 81.0682 L 433.119, 88.1904 L 415.083, 72.453 L 418.945, 56.8207 L 443.594, 55.5666 z "/>
<path style="fill:rgb(255, 1, 24);fill-opacity:1.0;fill-rule:evenodd;stroke:rgb(0, 0, 0);stroke-width:3.0;" d="M 179.645, 98.4039 L 185.503, 122.365 L 177.39, 122.771 L 174.077, 102.489 L 179.214, 97.9338 z "/>
<path style="fill:rgb(255, 1, 24);fill-opacity:1.0;fill-rule:evenodd;stroke:rgb(0, 0, 0);stroke-width:3.0;" d="M 16.2457, 157.585 L 31.7244, 192.57 L 26.3036, 197.172 L 13.5936, 156.735 z "/>
<path style="fill:rgb(255, 1, 24);fill-opacity:1.0;fill-rule:evenodd;stroke:rgb(0, 0, 0);stroke-width:3.0;" d="M 518.871, 45.4433 L 508.581, 50.5729 L 501.165, 39.2311 L 519.28, 33.6353 z "/>
<path style="fill:rgb(255, 1, 24);fill-opacity:1.0;fill-rule:evenodd;stroke:rgb(0, 0, 0);stroke-width:3.0;" d="M 684.268, 59.5654 L 675.007, 66.3699 L 638.033, 46.7263 z "/>
<path style="fill:rgb(255, 1, 24);fill-opacity:1.0;fill-rule:evenodd;stroke:rgb(0, 0, 0);stroke-width:3.0;" d="M 242.034, 110.16 L 249.915, 132.726 L 191.528, 123.889 L 201.397, 102.38 z "/>
<path style="fill:rgb(255, 1, 24);fill-opacity:1.0;fill-rule:evenodd;stroke:rgb(0, 0, 0);stroke-width:3.0;" d="M 536.015, 159.951 L 492.77, 160.835 L 544.211, 150.212 z "/>
<path style="fill:rgb(255, 1, 24);fill-opacity:1.0;fill-rule:evenodd;stroke:rgb(0, 0, 0);stroke-width:3.0;" d="M 162.647, 81.3975 L 131.482, 123.302 L 149.568, 43.4307 z "/>
<path style="fill:rgb(255, 1, 24);fill-opacity:1.0;fill-rule:evenodd;stroke:rgb(0, 0, 0);stroke-width:3.0;" d="M 32.8324, 417.082 L 16.2916, 419.829 L 25.4549, 402.611 L 35.5718, 400.615 z "/>
<path style="fill:rgb(255, 59, 13);fill-opacity:1.0;fill-rule:evenodd;stroke:rgb(0, 0, 0);stroke-width:3.0;" d="M 538.134, 151.467 L 496.843, 159.994 L 508.933, 151.886 L 537.598, 150.483 z "/>
<path style="fill:rgb(255, 59, 13);fill-opacity:1.0;fill-rule:evenodd;stroke:rgb(0, 0, 0);stroke-width:3.0;" d="M 613.81, 46.2367 L 604.158, 39.6401 L 592.912, 11.4266 L 601.788, 7.72762 z "/>
<path style="fill:rgb(255, 59, 13);fill-opacity:1.0;fill-rule:evenodd;stroke:rgb(0, 0, 0);stroke-width:3.0;" d="M 453.985, 44.3858 L 449.541, 50.1919 L 425.814, 40.3065 L 429.688, 36.5604 z "/>
<path style="fill:rgb(255, 59, 13);fill-opacity:1.0;fill-rule:evenodd;stroke:rgb(0, 0, 0);stroke-width:3.0;" d="M 36.7136, 203.846 L 51.6952, 237.708 L 40.6902, 242.944 L 27.1173, 199.761 z "/>
<path style="fill:rgb(255, 59, 13);fill-opacity:1.0;fill-rule:evenodd;stroke:rgb(0, 0, 0);stroke-width:3.0;" d="M 575.819, 117.296 L 429.626, 107.725 L 437.292, 86.1102 L 563.836, 23.0288 z "/>
<path style="fill:rgb(252, 17, 179);fill-opacity:1.0;fill-rule:evenodd;stroke:rgb(0, 0, 0);stroke-width:3.0;" d="M 748.361, 112.519 L 716.176, 126.484 L 603.252, 119.092 L 748.802, 12.149 z "/>
<path style="fill:rgb(252, 47, 20);fill-opacity:1.0;fill-rule:evenodd;stroke:rgb(0, 0, 0);stroke-width:3.0;" d="M 376.349, 58.9316 L 362.714, 51.5283 L 380.588, 42.7311 z "/>
<path style="fill:rgb(252, 47, 20);fill-opacity:1.0;fill-rule:evenodd;stroke:rgb(0, 0, 0);stroke-width:3.0;" d="M 670.052, 123.465 L 668.293, 139.701 L 588.824, 157.552 L 615.798, 119.913 z "/>
<path style="fill:rgb(252, 47, 20);fill-opacity:1.0;fill-rule:evenodd;stroke:rgb(0, 0, 0);stroke-width:3.0;" d="M 378.082, 169.309 L 387.975, 149.359 L 398.751, 142.215 L 405.92, 141.282 z "/>
<path style="fill:rgb(255, 18, 34);fill-opacity:1.0;fill-rule:evenodd;stroke:rgb(0, 0, 0);stroke-width:3.0;" d="M 364.886, 201.694 L 342.241, 211.215 L 331.49, 190.935 L 360.89, 189.286 z "/>
<path style="fill:rgb(255, 18, 34);fill-opacity:1.0;fill-rule:evenodd;stroke:rgb(0, 0, 0);stroke-width:3.0;" d="M 288.333, 62.0232 L 292.398, 73.0866 L 219.435, 47.1411 L 229.858, 24.8713 z "/>
<path style="fill:rgb(255, 18, 34);fill-opacity:1.0;fill-rule:evenodd;stroke:rgb(0, 0, 0);stroke-width:3.0;" d="M 343.058, 212.756 L 305.894, 221.103 L 207.787, 217.774 L 265.369, 182.244 L 324.521, 177.79 z "/>
<path style="fill:rgb(202, 44, 255);fill-opacity:1.0;fill-rule:evenodd;stroke:rgb(0, 0, 0);stroke-width:3.0;" d="M 788.439, 267.84 L 736.528, 372.278 L 765.089, 176.171 z "/>
<path style="fill:rgb(119, 249, 255);fill-opacity:1.0;fill-rule:evenodd;stroke:rgb(0, 0, 0);stroke-width:3.0;" d="M 684.575, 339.611 L 669.285, 139.479 L 754.883, 120.251 z "/>
<path style="fill:rgb(226, 243, 157);fill-opacity:1.0;fill-rule:evenodd;stroke:rgb(0, 0, 0);stroke-width:3.0;" d="M 315.896, 99.5423 L 301.026, 96.5699 L 299.954, 93.6514 L 286.262, 11.7749 L 290.575, 10.5777 z "/>
<path style="fill:rgb(7, 0, 255);fill-opacity:1.0;fill-rule:evenodd;stroke:rgb(0, 0, 0);stroke-width:3.0;" d="M 48.8319, 583.305 L 41.7673, 589.28 L 37.5561, 586.244 L 35.8141, 566.891 L 41.2942, 565.284 z "/>
<path style="fill:rgb(7, 0, 255);fill-opacity:1.0;fill-rule:evenodd;stroke:rgb(0, 0, 0);stroke-width:3.0;" d="M 374.966, 435.405 L 381.889, 450.98 L 348.253, 430.932 L 337.021, 407.616 z "/>
<path style="fill:rgb(7, 0, 255);fill-opacity:1.0;fill-rule:evenodd;stroke:rgb(0, 0, 0);stroke-width:3.0;" d="M 599.716, 112.306 L 598.18, 118.76 L 586.176, 117.974 L 592.666, 100.518 z "/>
<path style="fill:rgb(7, 0, 255);fill-opacity:1.0;fill-rule:evenodd;stroke:rgb(0, 0, 0);stroke-width:3.0;" d="M 187.64, 185.535 L 183.015, 186.164 L 172.307, 178.291 L 180.078, 139.231 z "/>
<path style="fill:rgb(255, 2, 66);fill-opacity:1.0;fill-rule:evenodd;stroke:rgb(0, 0, 0);stroke-width:3.0;" d="M 615.144, 38.3113 L 611.688, 39.4402 L 606.099, 21.536 L 613.95, 20.1559 z "/>
<path style="fill:rgb(255, 2, 66);fill-opacity:1.0;fill-rule:evenodd;stroke:rgb(0, 0, 0);stroke-width:3.0;" d="M 615.798, 119.913 L 602.213, 138.869 L 570.96, 157.205 L 570.582, 156.883 L 608.459, 119.433 z "/>
<path style="fill:rgb(255, 2, 66);fill-opacity:1.0;fill-rule:evenodd;stroke:rgb(0, 0, 0);stroke-width:3.0;" d="M 431.616, 88.9396 L 382.307, 113.52 L 393.109, 68.0318 z "/>
<path style="fill:rgb(255, 246, 212);fill-opacity:1.0;fill-rule:evenodd;stroke:rgb(0, 0, 0);stroke-width:3.0;" d="M 791.32, 93.8788 L 748.361, 112.519 L 748.474, 86.8578 L 774.386, 83.0932 z "/>
<path style="fill:rgb(243, 16, 16);fill-opacity:1.0;fill-rule:evenodd;stroke:rgb(0, 0, 0);stroke-width:3.0;" d="M 30.5185, 508.055 L 30.5196, 508.067 L 14.9887, 504.484 L 5.46133, 483.132 L 15.9157, 474.636 z "/>
<path style="fill:rgb(243, 16, 16);fill-opacity:1.0;fill-rule:evenodd;stroke:rgb(0, 0, 0);stroke-width:3.0;" d="M 405.906, 168.848 L 390.487, 170.455 L 387.716, 164.472 L 392.234, 155.061 L 395.613, 151.659 z "/>
<path style="fill:rgb(8, 246, 246);fill-opacity:1.0;fill-rule:evenodd;stroke:rgb(0, 0, 0);stroke-width:3.0;" d="M 381.889, 450.98 L 395.6, 481.823 L 326.15, 465.574 L 306.072, 412.736 L 316.228, 411.845 z "/>
<path style="fill:rgb(8, 246, 246);fill-opacity:1.0;fill-rule:evenodd;stroke:rgb(0, 0, 0);stroke-width:3.0;" d="M 172.395, 65.2195 L 170.004, 67.7973 L 168.401, 67.7327 L 165.917, 52.5245 L 175.676, 50.6572 z "/>
<path style="fill:rgb(121, 51, 184);fill-opacity:1.0;fill-rule:evenodd;stroke:rgb(0, 0, 0);stroke-width:3.0;" d="M 21.9728, 567.584 L 19.1337, 567.545 L 13.3839, 558.342 L 29.7393, 550.771 z "/>
<path style="fill:rgb(44, 237, 177);fill-opacity:1.0;fill-rule:evenodd;stroke:rgb(0, 0, 0);stroke-width:3.0;" d="M 290.937, 172.131 L 282.294, 172.523 L 277.247, 165.892 L 293.374, 157.853 z "/>
<path style="fill:rgb(44, 237, 177);fill-opacity:1.0;fill-rule:evenodd;stroke:rgb(0, 0, 0);stroke-width:3.0;" d="M 779.847, 305.487 L 758.975, 327.117 L 772.599, 299.707 z "/>
<path style="fill:rgb(243, 144, 7);fill-opacity:1.0;fill-rule:evenodd;stroke:rgb(0, 0, 0);stroke-width:3.0;" d="M 172.599, 176.822 L 166.826, 205.841 L 123.58, 191.982 L 119.128, 177.862 L 128.658, 135.775 z "/>
<path style="fill:rgb(243, 255, 7);fill-opacity:1.0;fill-rule:evenodd;stroke:rgb(0, 0, 0);stroke-width:3.0;" d="M 394.51, 112.06 L 345.203, 150.188 L 355.561, 126.853 L 390.303, 109.534 z "/>
<path style="fill:rgb(243, 255, 7);fill-opacity:1.0;fill-rule:evenodd;stroke:rgb(0, 0, 0);stroke-width:3.0;" d="M 411.891, 69.6679 L 413.467, 71.0426 L 412.657, 78.6453 L 376.349, 58.9316 L 377.042, 56.2851 z "/>
<path style="fill:rgb(243, 255, 7);fill-opacity:1.0;fill-rule:evenodd;stroke:rgb(0, 0, 0);stroke-width:3.0;" d="M 160.022, 16.4246 L 162.166, 80.0004 L 149.568, 43.4307 L 158.204, 5.2926 z "/>
<path style="fill:rgb(243, 255, 7);fill-opacity:1.0;fill-rule:evenodd;stroke:rgb(0, 0, 0);stroke-width:3.0;" d="M 767.834, 117.342 L 756.274, 119.939 L 756.105, 109.159 L 764.917, 105.335 z "/>
<path style="fill:rgb(243, 255, 7);fill-opacity:1.0;fill-rule:evenodd;stroke:rgb(0, 0, 0);stroke-width:3.0;" d="M 636.086, 61.462 L 627.198, 74.0952 L 617.191, 48.5479 z "/>
<path style="fill:rgb(243, 255, 7);fill-opacity:1.0;fill-rule:evenodd;stroke:rgb(0, 0, 0);stroke-width:3.0;" d="M 502.564, 176.927 L 465.521, 185.248 L 470.37, 162.128 L 476.797, 161.458 z "/>
<path style="fill:rgb(204, 136, 21);fill-opacity:1.0;fill-rule:evenodd;stroke:rgb(0, 0, 0);stroke-width:3.0;" d="M 322.517, 113.598 L 325.634, 129.785 L 325.755, 137.995 L 322.27, 143.448 L 318.146, 145.504 L 311.37, 117.094 L 320.616, 112.86 z "/>
<path style="fill:rgb(204, 136, 21);fill-opacity:1.0;fill-rule:evenodd;stroke:rgb(0, 0, 0);stroke-width:3.0;" d="M 465.521, 185.248 L 438.766, 191.258 L 420.015, 185.103 L 423.881, 176.462 L 451.676, 164.077 L 470.37, 162.128 z "/>
<path style="fill:rgb(9, 126, 255);fill-opacity:1.0;fill-rule:evenodd;stroke:rgb(0, 0, 0);stroke-width:3.0;" d="M 13.5936, 156.735 L 51.767, 278.185 L 32.2368, 282.572 L 7.02904, 154.631 z "/>
<path style="fill:rgb(70, 246, 215);fill-opacity:1.0;fill-rule:evenodd;stroke:rgb(0, 0, 0);stroke-width:3.0;" d="M 419.514, 42.4126 L 424.888, 45.5618 L 392.479, 43.8571 L 386.232, 33.3928 z "/>
<path style="fill:rgb(70, 246, 215);fill-opacity:1.0;fill-rule:evenodd;stroke:rgb(0, 0, 0);stroke-width:3.0;" d="M 208.233, 243.04 L 183.339, 248.632 L 192.721, 232.297 L 198.111, 225.143 z "/>
<path style="fill:rgb(24, 255, 249);fill-opacity:1.0;fill-rule:evenodd;stroke:rgb(0, 0, 0);stroke-width:3.0;" d="M 496.852, 505.514 L 395.6, 481.823 L 390.853, 471.144 L 544.753, 309.456 z "/>
<path style="fill:rgb(24, 255, 249);fill-opacity:1.0;fill-rule:evenodd;stroke:rgb(0, 0, 0);stroke-width:3.0;" d="M 613.04, 45.7105 L 586.176, 117.974 L 575.819, 117.296 L 571.526, 83.5261 L 601.673, 37.9418 z "/>
<path style="fill:rgb(24, 255, 249);fill-opacity:1.0;fill-rule:evenodd;stroke:rgb(0, 0, 0);stroke-width:3.0;" d="M 756.274, 119.939 L 746.275, 122.185 L 739.127, 116.526 L 756.105, 109.159 z "/>
<path style="fill:rgb(24, 255, 249);fill-opacity:1.0;fill-rule:evenodd;stroke:rgb(0, 0, 0);stroke-width:3.0;" d="M 547.469, 149.539 L 538.134, 151.467 L 530.488, 137.429 L 542.976, 129.054 z "/>
<path style="fill:rgb(252, 19, 17);fill-opacity:1.0;fill-rule:evenodd;stroke:rgb(0, 0, 0);stroke-width:3.0;" d="M 403.729, 117.594 L 401.193, 122.708 L 367.735, 150.687 L 353.755, 143.575 L 394.51, 112.06 z "/>
<path style="fill:rgb(252, 19, 17);fill-opacity:1.0;fill-rule:evenodd;stroke:rgb(0, 0, 0);stroke-width:3.0;" d="M 424.121, 41.5809 L 423.674, 43.5402 L 377.878, 31.1286 L 381.56, 28.026 z "/>
<path style="fill:rgb(252, 19, 17);fill-opacity:1.0;fill-rule:evenodd;stroke:rgb(0, 0, 0);stroke-width:3.0;" d="M 191.825, 352.572 L 83.8124, 408.872 L 56.4159, 402.462 L 74.1231, 378.466 L 145.341, 298.325 z "/>
<path style="fill:rgb(252, 19, 17);fill-opacity:1.0;fill-rule:evenodd;stroke:rgb(0, 0, 0);stroke-width:3.0;" d="M 302.66, 403.758 L 326.15, 465.574 L 279.253, 454.601 L 258.509, 430.392 L 243.248, 368.347 z "/>
<path style="fill:rgb(252, 19, 17);fill-opacity:1.0;fill-rule:evenodd;stroke:rgb(0, 0, 0);stroke-width:3.0;" d="M 639.571, 63.8439 L 644.745, 73.7584 L 636.48, 94.6776 L 635.533, 95.3733 L 627.629, 75.1945 L 636.827, 61.9681 z "/>
<path style="fill:rgb(255, 30, 197);fill-opacity:1.0;fill-rule:evenodd;stroke:rgb(0, 0, 0);stroke-width:3.0;" d="M 276.164, 28.9002 L 248.192, 36.5202 L 234.668, 27.9277 L 270.409, 13.2371 z "/>
<path style="fill:rgb(255, 30, 197);fill-opacity:1.0;fill-rule:evenodd;stroke:rgb(0, 0, 0);stroke-width:3.0;" d="M 773.152, 523.764 L 750.181, 498.547 L 756.973, 496.65 z "/>
<path style="fill:rgb(255, 30, 197);fill-opacity:1.0;fill-rule:evenodd;stroke:rgb(0, 0, 0);stroke-width:3.0;" d="M 288.807, 26.9958 L 279.035, 36.7163 L 271.388, 15.9037 L 286.262, 11.7749 z "/>
<path style="fill:rgb(189, 6, 255);fill-opacity:1.0;fill-rule:evenodd;stroke:rgb(0, 0, 0);stroke-width:3.0;" d="M 551.402, 29.227 L 550.579, 29.6369 L 529.511, 20.5633 L 529.04, 17.9106 L 540.124, 13.4081 z "/>
<path style="fill:rgb(189, 6, 255);fill-opacity:1.0;fill-rule:evenodd;stroke:rgb(0, 0, 0);stroke-width:3.0;" d="M 62.9365, 569.837 L 62.4159, 570.583 L 43.8947, 571.501 L 41.2942, 565.284 L 59.0135, 560.087 z "/>
<path style="fill:rgb(189, 6, 255);fill-opacity:1.0;fill-rule:evenodd;stroke:rgb(0, 0, 0);stroke-width:3.0;" d="M 424.041, 19.2226 L 455.357, 42.5935 L 453.985, 44.3858 L 416.244, 32.2302 L 415.036, 15.8935 z "/>
<path style="fill:rgb(189, 6, 255);fill-opacity:1.0;fill-rule:evenodd;stroke:rgb(0, 0, 0);stroke-width:3.0;" d="M 382.164, 62.0891 L 390.815, 77.691 L 388.254, 88.4764 L 360.217, 66.5902 L 367.744, 54.2592 z "/>
<path style="fill:rgb(189, 6, 255);fill-opacity:1.0;fill-rule:evenodd;stroke:rgb(0, 0, 0);stroke-width:3.0;" d="M 374.966, 435.405 L 134.817, 259.531 L 282.078, 226.453 z "/>
<path style="fill:rgb(146, 226, 240);fill-opacity:1.0;fill-rule:evenodd;stroke:rgb(0, 0, 0);stroke-width:3.0;" d="M 403.402, 173.844 L 417.354, 184.23 L 379.027, 171.649 L 385.055, 171.021 z "/>
<path style="fill:rgb(146, 226, 240);fill-opacity:1.0;fill-rule:evenodd;stroke:rgb(0, 0, 0);stroke-width:3.0;" d="M 615.212, 47.1954 L 602.434, 100.884 L 599.651, 99.1833 L 604.595, 68.4281 L 613.04, 45.7105 z "/>
<path style="fill:rgb(146, 226, 240);fill-opacity:1.0;fill-rule:evenodd;stroke:rgb(0, 0, 0);stroke-width:3.0;" d="M 292.398, 73.0866 L 294.522, 78.8674 L 220.253, 58.8543 L 212.227, 44.578 z "/>
<path style="fill:rgb(255, 7, 8);fill-opacity:1.0;fill-rule:evenodd;stroke:rgb(0, 0, 0);stroke-width:3.0;" d="M 538.979, 315.522 L 390.853, 471.144 L 282.078, 226.453 L 420.467, 195.368 z "/>
<path style="fill:rgb(255, 168, 172);fill-opacity:1.0;fill-rule:evenodd;stroke:rgb(0, 0, 0);stroke-width:3.0;" d="M 197.475, 224.019 L 194.196, 229.728 L 185.608, 232.192 L 182.401, 219.357 L 186.258, 211.25 L 189.375, 209.696 z "/>
<path style="fill:rgb(255, 168, 172);fill-opacity:1.0;fill-rule:evenodd;stroke:rgb(0, 0, 0);stroke-width:3.0;" d="M 672.053, 175.716 L 538.979, 315.522 L 420.467, 195.368 L 669.285, 139.479 z "/>
<path style="fill:rgb(255, 172, 44);fill-opacity:1.0;fill-rule:evenodd;stroke:rgb(0, 0, 0);stroke-width:3.0;" d="M 572.822, 158.795 L 575.003, 160.656 L 562.519, 163.46 L 549.59, 159.212 L 548.116, 152.488 z "/>
<path style="fill:rgb(255, 83, 9);fill-opacity:1.0;fill-rule:evenodd;stroke:rgb(0, 0, 0);stroke-width:3.0;" d="M 273.297, 31.2204 L 260.072, 42.2733 L 258.129, 42.8334 L 248.192, 36.5202 L 271.695, 30.1175 z "/>
<path style="fill:rgb(25, 9, 255);fill-opacity:1.0;fill-rule:evenodd;stroke:rgb(0, 0, 0);stroke-width:3.0;" d="M 383.264, 22.5789 L 385.281, 24.8899 L 376.882, 31.9676 L 364.577, 22.7968 L 369.297, 16.76 z "/>
<path style="fill:rgb(179, 0, 255);fill-opacity:1.0;fill-rule:evenodd;stroke:rgb(0, 0, 0);stroke-width:3.0;" d="M 440.384, 46.3768 L 449.555, 50.1977 L 435.299, 55.9886 L 416.227, 56.959 L 398.624, 46.0903 L 398.125, 45.2839 L 398.608, 44.1795 z "/>
<path style="fill:rgb(255, 207, 7);fill-opacity:1.0;fill-rule:evenodd;stroke:rgb(0, 0, 0);stroke-width:3.0;" d="M 628.485, 42.5979 L 629.104, 43.7846 L 626.336, 54.7979 L 613.81, 46.2367 L 613.557, 45.4264 L 623.254, 39.6533 z "/>
<path style="fill:rgb(234, 28, 255);fill-opacity:1.0;fill-rule:evenodd;stroke:rgb(0, 0, 0);stroke-width:3.0;" d="M 185.258, 211.748 L 66.4198, 270.988 L 16.2457, 157.585 z "/>
<path style="fill:rgb(240, 14, 35);fill-opacity:1.0;fill-rule:evenodd;stroke:rgb(0, 0, 0);stroke-width:3.0;" d="M 284.731, 369.321 L 240.377, 357.416 L 192.217, 301.568 z "/>
<path style="fill:rgb(240, 14, 35);fill-opacity:1.0;fill-rule:evenodd;stroke:rgb(0, 0, 0);stroke-width:3.0;" d="M 243.248, 368.347 L 258.509, 430.392 L 165.776, 322.172 z "/>
<path style="fill:rgb(240, 14, 35);fill-opacity:1.0;fill-rule:evenodd;stroke:rgb(0, 0, 0);stroke-width:3.0;" d="M 486.615, 43.7259 L 470.913, 48.5765 L 480.382, 37.6757 L 492.055, 32.934 z "/>
<path style="fill:rgb(47, 165, 212);fill-opacity:1.0;fill-rule:evenodd;stroke:rgb(0, 0, 0);stroke-width:3.0;" d="M 436.77, 87.5828 L 422.949, 101.956 L 415.714, 101.917 L 416.552, 96.4488 L 437.292, 86.1102 z "/>
<path style="fill:rgb(42, 172, 255);fill-opacity:1.0;fill-rule:evenodd;stroke:rgb(0, 0, 0);stroke-width:3.0;" d="M 238.159, 199.034 L 212.179, 203.546 L 250.785, 183.342 L 265.369, 182.244 z "/>
<path style="fill:rgb(42, 172, 255);fill-opacity:1.0;fill-rule:evenodd;stroke:rgb(0, 0, 0);stroke-width:3.0;" d="M 378.082, 169.309 L 375.38, 172.029 L 337.493, 175.978 L 401.193, 122.708 z "/>
<path style="fill:rgb(37, 138, 255);fill-opacity:1.0;fill-rule:evenodd;stroke:rgb(0, 0, 0);stroke-width:3.0;" d="M 65.2531, 390.486 L 85.9829, 326.181 L 119.691, 316.714 z "/>
<path style="fill:rgb(255, 5, 197);fill-opacity:1.0;fill-rule:evenodd;stroke:rgb(0, 0, 0);stroke-width:3.0;" d="M 177.83, 125.469 L 180.078, 139.231 L 172.599, 176.822 L 128.658, 135.775 L 131.482, 123.302 L 162.647, 81.3975 z "/>
<path style="fill:rgb(255, 5, 197);fill-opacity:1.0;fill-rule:evenodd;stroke:rgb(0, 0, 0);stroke-width:3.0;" d="M 179.994, 249.383 L 144.704, 257.31 L 142.839, 244.466 L 147.938, 243.002 z "/>
<path style="fill:rgb(255, 5, 197);fill-opacity:1.0;fill-rule:evenodd;stroke:rgb(0, 0, 0);stroke-width:3.0;" d="M 21.463, 466.766 L 13.5151, 463.943 L 6.82315, 450.471 L 9.26366, 442.459 L 11.2079, 441.28 z "/>
<path style="fill:rgb(74, 209, 215);fill-opacity:1.0;fill-rule:evenodd;stroke:rgb(0, 0, 0);stroke-width:3.0;" d="M 188.904, 193.274 L 191.419, 208.677 L 185.258, 211.748 L 166.826, 205.841 L 167.61, 201.9 L 174.405, 187.335 L 185.106, 185.88 z "/>
<path style="fill:rgb(255, 54, 24);fill-opacity:1.0;fill-rule:evenodd;stroke:rgb(0, 0, 0);stroke-width:3.0;" d="M 263.958, 108.319 L 272.439, 115.714 L 276.16, 146.875 L 259.365, 159.786 L 241.072, 107.406 z "/>
<path style="fill:rgb(255, 54, 24);fill-opacity:1.0;fill-rule:evenodd;stroke:rgb(0, 0, 0);stroke-width:3.0;" d="M 421.519, 181.74 L 420.015, 185.103 L 417.354, 184.23 L 409.944, 178.713 L 412.171, 168.195 L 413.549, 168.051 z "/>
<path style="fill:rgb(8, 148, 199);fill-opacity:1.0;fill-rule:evenodd;stroke:rgb(0, 0, 0);stroke-width:3.0;" d="M 444.169, 126.884 L 444.998, 128.92 L 433.984, 135.757 L 422.993, 129.159 L 423.947, 123.592 z "/>
<path style="fill:rgb(12, 189, 209);fill-opacity:1.0;fill-rule:evenodd;stroke:rgb(0, 0, 0);stroke-width:3.0;" d="M 212.21, 78.8161 L 200.041, 105.336 L 194.588, 91.6738 L 211.696, 78.7135 z "/>
<path style="fill:rgb(12, 189, 209);fill-opacity:1.0;fill-rule:evenodd;stroke:rgb(0, 0, 0);stroke-width:3.0;" d="M 29.4993, 544.842 L 26.2972, 549.709 L 14.9619, 546.736 L 16.9852, 542.948 L 26.1363, 533.565 z "/>
<path style="fill:rgb(140, 237, 100);fill-opacity:1.0;fill-rule:evenodd;stroke:rgb(0, 0, 0);stroke-width:3.0;" d="M 323.898, 176.614 L 324.078, 177.823 L 289.521, 180.425 L 290.682, 173.624 L 317.773, 165.062 z "/>
<path style="fill:rgb(140, 237, 100);fill-opacity:1.0;fill-rule:evenodd;stroke:rgb(0, 0, 0);stroke-width:3.0;" d="M 596.265, 131.49 L 570.582, 156.883 L 544.128, 134.304 L 542.968, 129.015 L 565.767, 119.584 L 575.838, 119.436 z "/>
<path style="fill:rgb(140, 237, 100);fill-opacity:1.0;fill-rule:evenodd;stroke:rgb(0, 0, 0);stroke-width:3.0;" d="M 388.254, 88.4764 L 382.307, 113.52 L 357.016, 126.127 L 358.066, 64.9104 z "/>
<path style="fill:rgb(255, 115, 16);fill-opacity:1.0;fill-rule:evenodd;stroke:rgb(0, 0, 0);stroke-width:3.0;" d="M 307.979, 119.747 L 294.083, 113.035 L 302.082, 98.7577 z "/>
<path style="fill:rgb(249, 130, 237);fill-opacity:1.0;fill-rule:evenodd;stroke:rgb(0, 0, 0);stroke-width:3.0;" d="M 468.639, 48.6485 L 439.546, 54.2634 L 478.02, 38.6351 z "/>
<path style="fill:rgb(249, 130, 237);fill-opacity:1.0;fill-rule:evenodd;stroke:rgb(0, 0, 0);stroke-width:3.0;" d="M 206.033, 126.084 L 217.323, 195.764 L 207.403, 200.709 L 189.786, 198.676 L 181.235, 146.318 L 191.528, 123.889 z "/>
<path style="fill:rgb(37, 23, 255);fill-opacity:1.0;fill-rule:evenodd;stroke:rgb(0, 0, 0);stroke-width:3.0;" d="M 638.033, 46.7263 L 675.007, 66.3699 L 650.345, 84.4901 L 629.386, 44.3252 z "/>
<path style="fill:rgb(37, 23, 255);fill-opacity:1.0;fill-rule:evenodd;stroke:rgb(0, 0, 0);stroke-width:3.0;" d="M 66.4198, 270.988 L 52.1589, 278.097 L 51.767, 278.185 L 49.7332, 271.715 L 58.1625, 252.325 z "/>
<path style="fill:rgb(37, 23, 255);fill-opacity:1.0;fill-rule:evenodd;stroke:rgb(0, 0, 0);stroke-width:3.0;" d="M 462.038, 73.7745 L 447.406, 81.0682 L 443.594, 55.5666 L 465.92, 54.4307 z "/>
<path style="fill:rgb(37, 23, 255);fill-opacity:1.0;fill-rule:evenodd;stroke:rgb(0, 0, 0);stroke-width:3.0;" d="M 438.766, 191.258 L 431.705, 192.844 L 407.861, 186.277 L 405.96, 184.424 L 411.215, 182.215 z "/>
<path style="fill:rgb(255, 7, 19);fill-opacity:1.0;fill-rule:evenodd;stroke:rgb(0, 0, 0);stroke-width:3.0;" d="M 700.897, 553.256 L 496.852, 505.514 L 544.753, 309.456 L 672.053, 175.716 z "/>
<path style="fill:rgb(255, 252, 78);fill-opacity:1.0;fill-rule:evenodd;stroke:rgb(0, 0, 0);stroke-width:3.0;" d="M 401.506, 193.496 L 414.221, 196.771 L 400.245, 199.91 L 367.279, 200.688 L 390.709, 190.836 z "/>
<path style="fill:rgb(223, 207, 7);fill-opacity:1.0;fill-rule:evenodd;stroke:rgb(0, 0, 0);stroke-width:3.0;" d="M 211.696, 78.7135 L 194.588, 91.6738 L 189.685, 79.3914 L 198.296, 76.0348 z "/>
<path style="fill:rgb(231, 223, 11);fill-opacity:1.0;fill-rule:evenodd;stroke:rgb(0, 0, 0);stroke-width:3.0;" d="M 613.542, 13.9619 L 613.95, 20.1559 L 606.099, 21.536 L 603.12, 11.994 L 610.056, 7.28165 z "/>
<path style="fill:rgb(231, 223, 11);fill-opacity:1.0;fill-rule:evenodd;stroke:rgb(0, 0, 0);stroke-width:3.0;" d="M 508.357, 50.2299 L 474.305, 47.6941 L 474.431, 47.4899 L 501.165, 39.2311 z "/>
<path style="fill:rgb(231, 223, 11);fill-opacity:1.0;fill-rule:evenodd;stroke:rgb(0, 0, 0);stroke-width:3.0;" d="M 300.622, 96.489 L 293.483, 105.357 L 286.528, 109.385 L 270.774, 101.776 L 269.398, 90.2476 z "/>
<path style="fill:rgb(231, 223, 11);fill-opacity:1.0;fill-rule:evenodd;stroke:rgb(0, 0, 0);stroke-width:3.0;" d="M 267.669, 89.9021 L 260.363, 105.184 L 235.456, 83.4629 z "/>
<path style="fill:rgb(255, 252, 78);fill-opacity:1.0;fill-rule:evenodd;stroke:rgb(0, 0, 0);stroke-width:3.0;" d="M 367.735, 150.687 L 337.493, 175.978 L 324.29, 177.355 L 320.156, 169.556 L 353.755, 143.575 z "/>
<path style="fill:rgb(255, 39, 30);fill-opacity:1.0;fill-rule:evenodd;stroke:rgb(0, 0, 0);stroke-width:3.0;" d="M 358.857, 18.7249 L 357.33, 107.825 L 317.099, 99.7828 L 329.927, 8.82502 z "/>
<path style="fill:rgb(255, 252, 9);fill-opacity:1.0;fill-rule:evenodd;stroke:rgb(0, 0, 0);stroke-width:3.0;" d="M 136.881, 246.175 L 96.0383, 257.896 L 98.7142, 254.89 L 135.932, 236.337 L 143.813, 234.265 z "/>
<path style="fill:rgb(228, 1, 15);fill-opacity:1.0;fill-rule:evenodd;stroke:rgb(0, 0, 0);stroke-width:3.0;" d="M 192.217, 301.568 L 256.734, 376.385 L 165.776, 322.172 L 115.766, 263.81 L 134.817, 259.531 z "/>
<path style="fill:rgb(255, 7, 21);fill-opacity:1.0;fill-rule:evenodd;stroke:rgb(0, 0, 0);stroke-width:3.0;" d="M 206.082, 77.5911 L 172.802, 70.9387 L 181.582, 53.4046 z "/>
<path style="fill:rgb(255, 7, 21);fill-opacity:1.0;fill-rule:evenodd;stroke:rgb(0, 0, 0);stroke-width:3.0;" d="M 58.1625, 252.325 L 49.7332, 271.715 L 40.6902, 242.944 L 51.6952, 237.708 z "/>
<path style="fill:rgb(255, 7, 21);fill-opacity:1.0;fill-rule:evenodd;stroke:rgb(0, 0, 0);stroke-width:3.0;" d="M 496.843, 159.994 L 480.113, 163.449 L 455.542, 148.699 L 536.736, 133.239 z "/>
<path style="fill:rgb(249, 220, 81);fill-opacity:1.0;fill-rule:evenodd;stroke:rgb(0, 0, 0);stroke-width:3.0;" d="M 790.71, 381.785 L 770.74, 394.696 L 753.367, 386.114 L 754.873, 378.197 L 771.286, 364.716 z "/>
<path style="fill:rgb(249, 220, 81);fill-opacity:1.0;fill-rule:evenodd;stroke:rgb(0, 0, 0);stroke-width:3.0;" d="M 167.836, 225.983 L 156.492, 234.699 L 142.969, 235.714 L 145.335, 231.65 L 159.509, 224.584 z "/>
<path style="fill:rgb(249, 220, 81);fill-opacity:1.0;fill-rule:evenodd;stroke:rgb(0, 0, 0);stroke-width:3.0;" d="M 782.638, 219.634 L 775.313, 216.309 L 770.057, 195.675 L 786.122, 185.778 z "/>
<path style="fill:rgb(249, 220, 81);fill-opacity:1.0;fill-rule:evenodd;stroke:rgb(0, 0, 0);stroke-width:3.0;" d="M 343.147, 420.334 L 348.253, 430.932 L 320.352, 414.303 L 326.421, 410.662 z "/>
<path style="fill:rgb(249, 220, 81);fill-opacity:1.0;fill-rule:evenodd;stroke:rgb(0, 0, 0);stroke-width:3.0;" d="M 541.854, 129.807 L 536.736, 133.239 L 455.542, 148.699 L 452.836, 147.074 L 504.438, 120.485 L 523.274, 120.208 z "/>
<path style="fill:rgb(121, 1, 163);fill-opacity:1.0;fill-rule:evenodd;stroke:rgb(0, 0, 0);stroke-width:3.0;" d="M 145.341, 298.325 L 74.1231, 378.466 L 138.85, 290.749 z "/>
<path style="fill:rgb(121, 1, 163);fill-opacity:1.0;fill-rule:evenodd;stroke:rgb(0, 0, 0);stroke-width:3.0;" d="M 209.251, 205.079 L 207.019, 200.9 L 240.72, 184.1 L 250.785, 183.342 z "/>
<path style="fill:rgb(146, 71, 177);fill-opacity:1.0;fill-rule:evenodd;stroke:rgb(0, 0, 0);stroke-width:3.0;" d="M 748.986, 40.1765 L 773.408, 82.4704 L 753.231, 69.6191 L 748.628, 51.8121 L 748.68, 39.8762 z "/>
<path style="fill:rgb(252, 249, 15);fill-opacity:1.0;fill-rule:evenodd;stroke:rgb(0, 0, 0);stroke-width:3.0;" d="M 386.232, 33.3928 L 392.479, 43.8571 L 381.658, 43.288 L 372.712, 35.4818 L 377.878, 31.1286 z "/>
<path style="fill:rgb(240, 35, 16);fill-opacity:1.0;fill-rule:evenodd;stroke:rgb(0, 0, 0);stroke-width:3.0;" d="M 284.731, 369.321 L 334.535, 405.796 L 320.352, 414.303 L 256.734, 376.385 L 240.377, 357.416 z "/>
<path style="fill:rgb(249, 252, 51);fill-opacity:1.0;fill-rule:evenodd;stroke:rgb(0, 0, 0);stroke-width:3.0;" d="M 345.203, 150.188 L 320.156, 169.556 L 318.834, 167.063 L 320.164, 154.18 L 326.185, 141.497 L 355.561, 126.853 z "/>
<path style="fill:rgb(27, 255, 179);fill-opacity:1.0;fill-rule:evenodd;stroke:rgb(0, 0, 0);stroke-width:3.0;" d="M 447.051, 143.602 L 446.527, 143.661 L 413.677, 134.804 L 416.602, 130.527 L 419.841, 127.267 z "/>
<path style="fill:rgb(255, 43, 255);fill-opacity:1.0;fill-rule:evenodd;stroke:rgb(0, 0, 0);stroke-width:3.0;" d="M 617.191, 48.5479 L 631.259, 84.4619 L 611.815, 61.4696 L 615.212, 47.1954 z "/>
<path style="fill:rgb(170, 74, 97);fill-opacity:1.0;fill-rule:evenodd;stroke:rgb(0, 0, 0);stroke-width:3.0;" d="M 508.357, 50.2299 L 508.581, 50.5729 L 504.812, 52.4519 L 470.291, 54.2083 L 474.305, 47.6941 z "/>
<path style="fill:rgb(217, 1, 8);fill-opacity:1.0;fill-rule:evenodd;stroke:rgb(0, 0, 0);stroke-width:3.0;" d="M 635.533, 95.3733 L 603.252, 119.092 L 598.18, 118.76 L 601.425, 105.124 L 633.231, 89.4965 z "/>
<path style="fill:rgb(217, 1, 8);fill-opacity:1.0;fill-rule:evenodd;stroke:rgb(0, 0, 0);stroke-width:3.0;" d="M 60.3193, 573.59 L 48.8319, 583.305 L 43.8947, 571.501 L 62.4159, 570.583 z "/>
<path style="fill:rgb(17, 24, 199);fill-opacity:1.0;fill-rule:evenodd;stroke:rgb(0, 0, 0);stroke-width:3.0;" d="M 299.924, 129.589 L 285.26, 147.142 L 276.937, 153.382 L 273.592, 125.366 L 286.809, 119.666 z "/>
<path style="fill:rgb(243, 226, 10);fill-opacity:1.0;fill-rule:evenodd;stroke:rgb(0, 0, 0);stroke-width:3.0;" d="M 631.259, 84.4619 L 633.231, 89.4965 L 601.425, 105.124 L 611.815, 61.4696 z "/>
<path style="fill:rgb(223, 234, 12);fill-opacity:1.0;fill-rule:evenodd;stroke:rgb(0, 0, 0);stroke-width:3.0;" d="M 480.827, 132.651 L 479.021, 133.582 L 471.988, 134.195 L 464.962, 127.873 L 465.436, 124.666 L 469.904, 122.38 L 472.699, 121.297 z "/>
<path style="fill:rgb(255, 27, 15);fill-opacity:1.0;fill-rule:evenodd;stroke:rgb(0, 0, 0);stroke-width:3.0;" d="M 302.371, 161.92 L 300.059, 169.492 L 299.448, 170.854 L 298.392, 171.188 L 292.473, 163.132 L 293.374, 157.853 L 304.84, 152.137 z "/>
<path style="fill:rgb(12, 140, 255);fill-opacity:1.0;fill-rule:evenodd;stroke:rgb(0, 0, 0);stroke-width:3.0;" d="M 793.847, 111.499 L 767.834, 117.342 L 764.917, 105.335 L 780.216, 98.6972 z "/>
<path style="fill:rgb(243, 1, 36);fill-opacity:1.0;fill-rule:evenodd;stroke:rgb(0, 0, 0);stroke-width:3.0;" d="M 113.871, 264.236 L 52.1589, 278.097 L 88.1338, 260.164 L 128.532, 248.571 z "/>
<path style="fill:rgb(243, 1, 36);fill-opacity:1.0;fill-rule:evenodd;stroke:rgb(0, 0, 0);stroke-width:3.0;" d="M 601.673, 37.9418 L 571.526, 83.5261 L 563.836, 23.0288 L 573.097, 18.4118 z "/>
<path style="fill:rgb(255, 2, 24);fill-opacity:1.0;fill-rule:evenodd;stroke:rgb(0, 0, 0);stroke-width:3.0;" d="M 251.93, 219.272 L 229.138, 238.344 L 208.233, 243.04 L 193.673, 217.295 z "/>
<path style="fill:rgb(255, 2, 24);fill-opacity:1.0;fill-rule:evenodd;stroke:rgb(0, 0, 0);stroke-width:3.0;" d="M 219.377, 57.2975 L 191.126, 62.8268 L 181.582, 53.4046 L 198.355, 19.9034 z "/>
<path style="fill:rgb(255, 2, 24);fill-opacity:1.0;fill-rule:evenodd;stroke:rgb(0, 0, 0);stroke-width:3.0;" d="M 708.547, 125.985 L 709.437, 130.46 L 681.865, 136.653 L 695.736, 125.146 z "/>
<path style="fill:rgb(237, 17, 17);fill-opacity:1.0;fill-rule:evenodd;stroke:rgb(0, 0, 0);stroke-width:3.0;" d="M 177.83, 125.469 L 162.166, 80.0004 L 161.715, 66.6333 L 168.003, 65.2943 z "/>
<path style="fill:rgb(255, 48, 31);fill-opacity:1.0;fill-rule:evenodd;stroke:rgb(0, 0, 0);stroke-width:3.0;" d="M 305.894, 221.103 L 229.138, 238.344 L 251.93, 219.272 z "/>
<path style="fill:rgb(255, 48, 31);fill-opacity:1.0;fill-rule:evenodd;stroke:rgb(0, 0, 0);stroke-width:3.0;" d="M 608.459, 119.433 L 596.265, 131.49 L 575.838, 119.436 L 602.526, 119.044 z "/>
<path style="fill:rgb(255, 48, 31);fill-opacity:1.0;fill-rule:evenodd;stroke:rgb(0, 0, 0);stroke-width:3.0;" d="M 168.003, 65.2943 L 161.715, 66.6333 L 160.022, 16.4246 z "/>
<path style="fill:rgb(237, 243, 25);fill-opacity:1.0;fill-rule:evenodd;stroke:rgb(0, 0, 0);stroke-width:3.0;" d="M 191.855, 74.7473 L 175.483, 84.3929 L 171.662, 73.2157 L 172.802, 70.9387 z "/>
<path style="fill:rgb(249, 243, 8);fill-opacity:1.0;fill-rule:evenodd;stroke:rgb(0, 0, 0);stroke-width:3.0;" d="M 447.659, 143.966 L 451.818, 146.463 L 456.507, 163.573 L 405.906, 168.848 L 398.662, 156.751 L 413.677, 134.804 z "/>
<path style="fill:rgb(255, 5, 228);fill-opacity:1.0;fill-rule:evenodd;stroke:rgb(0, 0, 0);stroke-width:3.0;" d="M 397.997, 57.545 L 393.289, 58.1055 L 377.489, 54.5733 L 380.588, 42.7311 L 380.864, 42.5953 z "/>
<path style="fill:rgb(255, 5, 228);fill-opacity:1.0;fill-rule:evenodd;stroke:rgb(0, 0, 0);stroke-width:3.0;" d="M 558.381, 146.47 L 553.775, 153.26 L 551.809, 153.431 L 548.116, 152.488 L 544.128, 134.304 z "/>
<path style="fill:rgb(255, 5, 228);fill-opacity:1.0;fill-rule:evenodd;stroke:rgb(0, 0, 0);stroke-width:3.0;" d="M 476.797, 161.458 L 456.507, 163.573 L 451.818, 146.463 z "/>
<path style="fill:rgb(220, 86, 60);fill-opacity:1.0;fill-rule:evenodd;stroke:rgb(0, 0, 0);stroke-width:3.0;" d="M 407.48, 136.428 L 387.975, 149.359 L 397.709, 129.733 z "/>
<path style="fill:rgb(255, 25, 199);fill-opacity:1.0;fill-rule:evenodd;stroke:rgb(0, 0, 0);stroke-width:3.0;" d="M 233.914, 83.1545 L 206.082, 77.5911 L 191.126, 62.8268 L 219.377, 57.2975 z "/>
<path style="fill:rgb(255, 25, 199);fill-opacity:1.0;fill-rule:evenodd;stroke:rgb(0, 0, 0);stroke-width:3.0;" d="M 195.364, 115.529 L 192.929, 120.835 L 184.717, 119.151 L 179.645, 98.4039 z "/>
<path style="fill:rgb(255, 255, 61);fill-opacity:1.0;fill-rule:evenodd;stroke:rgb(0, 0, 0);stroke-width:3.0;" d="M 241.051, 75.2407 L 239.226, 84.2164 L 233.914, 83.1545 L 227.76, 72.209 L 236.356, 68.5291 z "/>
<path style="fill:rgb(114, 41, 255);fill-opacity:1.0;fill-rule:evenodd;stroke:rgb(0, 0, 0);stroke-width:3.0;" d="M 689.646, 130.198 L 681.865, 136.653 L 668.293, 139.701 L 669.744, 126.313 z "/>
<path style="fill:rgb(255, 29, 240);fill-opacity:1.0;fill-rule:evenodd;stroke:rgb(0, 0, 0);stroke-width:3.0;" d="M 232.504, 82.8728 L 242.034, 110.16 L 201.397, 102.38 L 212.21, 78.8161 z "/>
<path style="fill:rgb(255, 29, 240);fill-opacity:1.0;fill-rule:evenodd;stroke:rgb(0, 0, 0);stroke-width:3.0;" d="M 182.458, 228.441 L 184.487, 232.514 L 184.089, 232.628 L 156.492, 234.699 L 167.836, 225.983 z "/>
<path style="fill:rgb(255, 29, 240);fill-opacity:1.0;fill-rule:evenodd;stroke:rgb(0, 0, 0);stroke-width:3.0;" d="M 596.106, 34.1371 L 576.7, 20.874 L 592.328, 20.1789 z "/>
<path style="fill:rgb(255, 3, 21);fill-opacity:1.0;fill-rule:evenodd;stroke:rgb(0, 0, 0);stroke-width:3.0;" d="M 279.253, 454.601 L 236.386, 444.571 L 251.226, 421.893 z "/>
<path style="fill:rgb(95, 249, 255);fill-opacity:1.0;fill-rule:evenodd;stroke:rgb(0, 0, 0);stroke-width:3.0;" d="M 251.226, 421.893 L 236.386, 444.571 L 141.859, 422.454 L 202.019, 364.468 z "/>
<path style="fill:rgb(255, 72, 23);fill-opacity:1.0;fill-rule:evenodd;stroke:rgb(0, 0, 0);stroke-width:3.0;" d="M 292.412, 48.549 L 299.954, 93.6514 L 279.035, 36.7163 L 285.979, 29.8088 z "/>
<path style="fill:rgb(26, 237, 255);fill-opacity:1.0;fill-rule:evenodd;stroke:rgb(0, 0, 0);stroke-width:3.0;" d="M 301.263, 122.447 L 276.131, 114.474 L 271.993, 111.978 L 270.86, 102.495 z "/>
<path style="fill:rgb(26, 237, 255);fill-opacity:1.0;fill-rule:evenodd;stroke:rgb(0, 0, 0);stroke-width:3.0;" d="M 183.339, 248.632 L 179.994, 249.383 L 147.938, 243.002 L 194.196, 229.728 z "/>
<path style="fill:rgb(26, 237, 255);fill-opacity:1.0;fill-rule:evenodd;stroke:rgb(0, 0, 0);stroke-width:3.0;" d="M 549.639, 159.437 L 540.139, 168.487 L 528.718, 171.053 L 528.455, 168.933 L 532.121, 164.577 L 547.681, 150.509 z "/>
<path style="fill:rgb(26, 237, 255);fill-opacity:1.0;fill-rule:evenodd;stroke:rgb(0, 0, 0);stroke-width:3.0;" d="M 791.101, 137.387 L 789.932, 148.751 L 769.135, 148.389 L 771.578, 131.619 L 779.151, 127.042 z "/>
<path style="fill:rgb(26, 237, 255);fill-opacity:1.0;fill-rule:evenodd;stroke:rgb(0, 0, 0);stroke-width:3.0;" d="M 163.016, 402.062 L 141.859, 422.454 L 83.8124, 408.872 L 139.765, 379.708 z "/>
<path style="fill:rgb(240, 15, 8);fill-opacity:1.0;fill-rule:evenodd;stroke:rgb(0, 0, 0);stroke-width:3.0;" d="M 526.194, 171.62 L 502.564, 176.927 L 480.113, 163.449 L 492.77, 160.835 L 536.015, 159.951 z "/>
<path style="fill:rgb(9, 157, 255);fill-opacity:1.0;fill-rule:evenodd;stroke:rgb(0, 0, 0);stroke-width:3.0;" d="M 182.458, 228.441 L 159.509, 224.584 L 176.356, 216.186 z "/>
<path style="fill:rgb(255, 48, 7);fill-opacity:1.0;fill-rule:evenodd;stroke:rgb(0, 0, 0);stroke-width:3.0;" d="M 244.555, 131.915 L 237.797, 185.557 L 217.323, 195.764 L 206.033, 126.084 z "/>
<path style="fill:rgb(255, 3, 16);fill-opacity:1.0;fill-rule:evenodd;stroke:rgb(0, 0, 0);stroke-width:3.0;" d="M 229.858, 24.8713 L 219.435, 47.1411 L 212.227, 44.578 L 198.355, 19.9034 L 204.071, 8.48813 z "/>
<path style="fill:rgb(255, 107, 69);fill-opacity:1.0;fill-rule:evenodd;stroke:rgb(0, 0, 0);stroke-width:3.0;" d="M 235.456, 83.4629 L 255.987, 101.367 L 238.939, 101.298 L 232.504, 82.8728 z "/>
<path style="fill:rgb(23, 255, 255);fill-opacity:1.0;fill-rule:evenodd;stroke:rgb(0, 0, 0);stroke-width:3.0;" d="M 253.601, 163.369 L 253.737, 177.612 L 237.797, 185.557 L 241.334, 157.479 z "/>
<path style="fill:rgb(65, 1, 255);fill-opacity:1.0;fill-rule:evenodd;stroke:rgb(0, 0, 0);stroke-width:3.0;" d="M 249.915, 132.726 L 253.403, 142.715 L 253.601, 163.369 L 241.334, 157.479 L 244.555, 131.915 z "/>
<path style="fill:rgb(234, 48, 249);fill-opacity:1.0;fill-rule:evenodd;stroke:rgb(0, 0, 0);stroke-width:3.0;" d="M 542.968, 129.015 L 540.98, 119.948 L 565.767, 119.584 z "/>
<path style="fill:rgb(159, 207, 237);fill-opacity:1.0;fill-rule:evenodd;stroke:rgb(0, 0, 0);stroke-width:3.0;" d="M 464.482, 124.481 L 454.103, 128.501 L 444.731, 126.975 L 445.655, 121.348 L 467.35, 121.03 z "/>
<path style="fill:rgb(237, 124, 16);fill-opacity:1.0;fill-rule:evenodd;stroke:rgb(0, 0, 0);stroke-width:3.0;" d="M 415.036, 15.8935 L 416.244, 32.2302 L 394.128, 25.1073 L 406.224, 12.6361 z "/>
<path style="fill:rgb(249, 246, 61);fill-opacity:1.0;fill-rule:evenodd;stroke:rgb(0, 0, 0);stroke-width:3.0;" d="M 788.604, 79.0486 L 782.779, 86.318 L 780.679, 87.101 L 773.408, 82.4704 L 748.986, 40.1765 z "/>
<path style="fill:rgb(240, 11, 11);fill-opacity:1.0;fill-rule:evenodd;stroke:rgb(0, 0, 0);stroke-width:3.0;" d="M 716.736, 508.166 L 709.864, 555.354 L 700.897, 553.256 L 692.062, 437.609 L 710.035, 383.21 z "/>
<path style="fill:rgb(255, 255, 57);fill-opacity:1.0;fill-rule:evenodd;stroke:rgb(0, 0, 0);stroke-width:3.0;" d="M 294.522, 78.8674 L 301.026, 96.5699 L 248.403, 86.0508 L 253.714, 67.871 z "/>
<path style="fill:rgb(255, 255, 57);fill-opacity:1.0;fill-rule:evenodd;stroke:rgb(0, 0, 0);stroke-width:3.0;" d="M 716.736, 508.166 L 710.035, 383.21 L 754.565, 248.428 z "/>
<path style="fill:rgb(255, 20, 51);fill-opacity:1.0;fill-rule:evenodd;stroke:rgb(0, 0, 0);stroke-width:3.0;" d="M 213.988, 213.948 L 207.787, 217.774 L 194.961, 217.339 L 198.81, 204.992 L 207.019, 200.9 z "/>
<path style="fill:rgb(255, 204, 83);fill-opacity:1.0;fill-rule:evenodd;stroke:rgb(0, 0, 0);stroke-width:3.0;" d="M 789.932, 148.751 L 786.625, 180.887 L 768.235, 188.524 L 765.089, 176.171 L 769.135, 148.389 z "/>
<path style="fill:rgb(255, 204, 33);fill-opacity:1.0;fill-rule:evenodd;stroke:rgb(0, 0, 0);stroke-width:3.0;" d="M 277.03, 154.162 L 278.364, 165.335 L 263.833, 172.579 L 259.365, 159.786 L 268.439, 152.811 z "/>
<path style="fill:rgb(255, 204, 33);fill-opacity:1.0;fill-rule:evenodd;stroke:rgb(0, 0, 0);stroke-width:3.0;" d="M 462.038, 73.7745 L 465.92, 54.4307 L 504.812, 52.4519 z "/>
<path style="fill:rgb(117, 217, 255);fill-opacity:1.0;fill-rule:evenodd;stroke:rgb(0, 0, 0);stroke-width:3.0;" d="M 279.672, 38.4485 L 283.147, 47.9086 L 277.13, 52.369 L 274.519, 53.2465 L 268.374, 49.3422 L 271.467, 38.9882 L 276.69, 37.4822 z "/>
<path style="fill:rgb(240, 65, 30);fill-opacity:1.0;fill-rule:evenodd;stroke:rgb(0, 0, 0);stroke-width:3.0;" d="M 317.052, 160.735 L 311.399, 148.867 L 326.185, 141.497 z "/>
<path style="fill:rgb(86, 152, 217);fill-opacity:1.0;fill-rule:evenodd;stroke:rgb(0, 0, 0);stroke-width:3.0;" d="M 589.626, 147.891 L 589.878, 156.08 L 588.824, 157.552 L 575.003, 160.656 L 570.96, 157.205 L 588.574, 146.871 z "/>
<path style="fill:rgb(255, 36, 22);fill-opacity:1.0;fill-rule:evenodd;stroke:rgb(0, 0, 0);stroke-width:3.0;" d="M 144.704, 257.31 L 113.871, 264.236 L 128.532, 248.571 L 142.839, 244.466 z "/>
<path style="fill:rgb(255, 36, 22);fill-opacity:1.0;fill-rule:evenodd;stroke:rgb(0, 0, 0);stroke-width:3.0;" d="M 754.565, 248.428 L 692.062, 437.609 L 689.133, 399.276 L 733.134, 188.107 L 754.883, 120.251 L 773.854, 115.99 z "/>
<path style="fill:rgb(121, 4, 226);fill-opacity:1.0;fill-rule:evenodd;stroke:rgb(0, 0, 0);stroke-width:3.0;" d="M 689.133, 399.276 L 684.575, 339.611 L 733.134, 188.107 z "/>
<path style="fill:rgb(243, 33, 226);fill-opacity:1.0;fill-rule:evenodd;stroke:rgb(0, 0, 0);stroke-width:3.0;" d="M 519.28, 33.6353 L 488.604, 43.1114 L 499.772, 29.7991 L 519.692, 21.7075 z "/>
<path style="fill:rgb(91, 255, 255);fill-opacity:1.0;fill-rule:evenodd;stroke:rgb(0, 0, 0);stroke-width:3.0;" d="M 253.714, 67.871 L 248.403, 86.0508 L 244.751, 85.3208 L 242.585, 67.6987 L 243.13, 65.019 z "/>
<path style="fill:rgb(255, 18, 255);fill-opacity:1.0;fill-rule:evenodd;stroke:rgb(0, 0, 0);stroke-width:3.0;" d="M 768.705, 505.226 L 763.032, 504.061 L 759.139, 496.045 L 773.645, 491.992 z "/>
</svg>