<?xml version="1.0" encoding="iso-8859-1" standalone="no"?>
<!DOCTYPE svg PUBLIC "-//W3C//DTD SVG 1.0//EN" "http://www.w3.org/TR/2001/REC-SVG-20010904/DTD/svg10.dtd">
<svg xmlns="http://www.w3.org/2000/svg" width="800" height="600">
<path style="fill:rgb(0, 0, 0);fill-opacity:0.0;fill-rule:evenodd;stroke:rgb(0, 0, 0);stroke-width:0.0;" d="M 0, 600 L 800, 600 L 800, 0 L 0, 0 z "/>
<path style="fill:rgb(255, 252, 14);fill-opacity:1.0;fill-rule:evenodd;stroke:rgb(0, 0, 0);stroke-width:3.0;" d="M 151.16, 90.9409 L 149.214, 97.5792 L 138.023, 101.919 L 130.2, 99.709 L 129.004, 94.9705 L 137.089, 90.8154 z "/>
<path style="fill:rgb(255, 252, 14);fill-opacity:1.0;fill-rule:evenodd;stroke:rgb(0, 0, 0);stroke-width:3.0;" d="M 628.925, 439.823 L 609.381, 438.325 L 584.138, 425.934 L 584.112, 425.283 L 609.509, 420.152 z "/>
<path style="fill:rgb(255, 252, 194);fill-opacity:1.0;fill-rule:evenodd;stroke:rgb(0, 0, 0);stroke-width:3.0;" d="M 656.154, 372.628 L 653.429, 462.452 L 569.804, 380.961 L 584.453, 333.838 z "/>
<path style="fill:rgb(220, 14, 255);fill-opacity:1.0;fill-rule:evenodd;stroke:rgb(0, 0, 0);stroke-width:3.0;" d="M 603.295, 293.082 L 635.309, 320.042 L 630.036, 341.201 L 629.591, 342.674 L 615.38, 350.57 L 478.474, 276.503 z "/>
<path style="fill:rgb(220, 14, 255);fill-opacity:1.0;fill-rule:evenodd;stroke:rgb(0, 0, 0);stroke-width:3.0;" d="M 117.526, 64.8429 L 111.118, 82.8969 L 98.7348, 62.1201 L 116.899, 60.8427 z "/>
<path style="fill:rgb(220, 14, 255);fill-opacity:1.0;fill-rule:evenodd;stroke:rgb(0, 0, 0);stroke-width:3.0;" d="M 677.395, 367.297 L 678.446, 384.299 L 677.947, 384.419 L 626.237, 356.443 L 630.541, 339.173 z "/>
<path style="fill:rgb(220, 14, 255);fill-opacity:1.0;fill-rule:evenodd;stroke:rgb(0, 0, 0);stroke-width:3.0;" d="M 596.263, 528.744 L 595.719, 532.852 L 591.35, 532.232 L 585.393, 522.69 L 591.009, 515.192 z "/>
<path style="fill:rgb(220, 14, 255);fill-opacity:1.0;fill-rule:evenodd;stroke:rgb(0, 0, 0);stroke-width:3.0;" d="M 632.608, 526.848 L 634.184, 529.042 L 624.708, 533.649 L 608.521, 503.675 L 610.522, 502.649 z "/>
<path style="fill:rgb(220, 14, 255);fill-opacity:1.0;fill-rule:evenodd;stroke:rgb(0, 0, 0);stroke-width:3.0;" d="M 574.539, 365.73 L 569.804, 380.961 L 550.21, 361.866 L 552.941, 346.943 z "/>
<path style="fill:rgb(220, 14, 255);fill-opacity:1.0;fill-rule:evenodd;stroke:rgb(0, 0, 0);stroke-width:3.0;" d="M 764.687, 475.723 L 756.107, 489.258 L 742.227, 480.132 L 744.008, 465.4 z "/>
<path style="fill:rgb(220, 14, 255);fill-opacity:1.0;fill-rule:evenodd;stroke:rgb(0, 0, 0);stroke-width:3.0;" d="M 498.402, 80.6671 L 561.12, 166.729 L 509.87, 184.413 L 453.995, 112.052 L 496.729, 80.2961 z "/>
<path style="fill:rgb(220, 14, 255);fill-opacity:1.0;fill-rule:evenodd;stroke:rgb(0, 0, 0);stroke-width:3.0;" d="M 671.738, 527.612 L 684.385, 540.679 L 666.112, 544.844 L 654.328, 533.792 L 658.243, 526.074 z "/>
<path style="fill:rgb(220, 14, 255);fill-opacity:1.0;fill-rule:evenodd;stroke:rgb(0, 0, 0);stroke-width:3.0;" d="M 67.4237, 38.6794 L 68.056, 40.1721 L 52.3804, 64.1402 L 46.1203, 56.8158 L 45.6904, 46.3266 L 58.9605, 29.3342 z "/>
<path style="fill:rgb(220, 14, 255);fill-opacity:1.0;fill-rule:evenodd;stroke:rgb(0, 0, 0);stroke-width:3.0;" d="M 775.095, 97.3777 L 736.912, 105.384 L 738.079, 97.2303 z "/>
<path style="fill:rgb(220, 14, 255);fill-opacity:1.0;fill-rule:evenodd;stroke:rgb(0, 0, 0);stroke-width:3.0;" d="M 448.609, 262.857 L 377.549, 293.915 L 444.601, 258.952 z "/>
<path style="fill:rgb(220, 14, 255);fill-opacity:1.0;fill-rule:evenodd;stroke:rgb(0, 0, 0);stroke-width:3.0;" d="M 705.432, 490.559 L 692.116, 500.151 L 653.429, 462.452 L 654.929, 413.026 L 686.981, 408.177 z "/>
<path style="fill:rgb(184, 0, 25);fill-opacity:1.0;fill-rule:evenodd;stroke:rgb(0, 0, 0);stroke-width:3.0;" d="M 689.244, 539.571 L 684.385, 540.679 L 667.526, 523.26 L 702.202, 519.504 z "/>
<path style="fill:rgb(184, 0, 25);fill-opacity:1.0;fill-rule:evenodd;stroke:rgb(0, 0, 0);stroke-width:3.0;" d="M 616.986, 556.56 L 625.361, 588.567 L 605.953, 550.096 L 605.399, 546.943 z "/>
<path style="fill:rgb(39, 255, 194);fill-opacity:1.0;fill-rule:evenodd;stroke:rgb(0, 0, 0);stroke-width:3.0;" d="M 171.225, 40.9954 L 136.933, 74.4358 L 136.281, 69.8544 L 169.559, 40.0171 z "/>
<path style="fill:rgb(39, 255, 194);fill-opacity:1.0;fill-rule:evenodd;stroke:rgb(0, 0, 0);stroke-width:3.0;" d="M 215.498, 52.5454 L 223.8, 83.5267 L 219.121, 91.5905 L 207.836, 87.0431 L 198.58, 49.4453 z "/>
<path style="fill:rgb(67, 107, 228);fill-opacity:1.0;fill-rule:evenodd;stroke:rgb(0, 0, 0);stroke-width:3.0;" d="M 153.791, 90.9644 L 160.128, 107.761 L 159.555, 108.004 L 147.183, 104.508 L 151.16, 90.9409 z "/>
<path style="fill:rgb(255, 1, 16);fill-opacity:1.0;fill-rule:evenodd;stroke:rgb(0, 0, 0);stroke-width:3.0;" d="M 414.112, 229.241 L 389.926, 267.592 L 385.12, 262.166 L 407.485, 222.783 z "/>
<path style="fill:rgb(255, 1, 16);fill-opacity:1.0;fill-rule:evenodd;stroke:rgb(0, 0, 0);stroke-width:3.0;" d="M 563.92, 461.586 L 568.111, 473.797 L 412.27, 285.105 L 444.573, 271.366 z "/>
<path style="fill:rgb(255, 1, 16);fill-opacity:1.0;fill-rule:evenodd;stroke:rgb(0, 0, 0);stroke-width:3.0;" d="M 407.485, 222.783 L 375.163, 279.701 L 253.659, 318.998 L 254.547, 290.946 L 399.445, 214.948 z "/>
<path style="fill:rgb(255, 1, 16);fill-opacity:1.0;fill-rule:evenodd;stroke:rgb(0, 0, 0);stroke-width:3.0;" d="M 704.271, 378.117 L 697.944, 379.632 L 630.541, 339.173 L 635.309, 320.042 z "/>
<path style="fill:rgb(255, 246, 14);fill-opacity:1.0;fill-rule:evenodd;stroke:rgb(0, 0, 0);stroke-width:3.0;" d="M 786.318, 443.687 L 775.925, 460.972 L 768.174, 450.75 L 775.149, 442.439 z "/>
<path style="fill:rgb(255, 246, 14);fill-opacity:1.0;fill-rule:evenodd;stroke:rgb(0, 0, 0);stroke-width:3.0;" d="M 532.899, 305.947 L 529.818, 317.616 L 483.609, 296.964 L 442.815, 257.211 z "/>
<path style="fill:rgb(255, 246, 14);fill-opacity:1.0;fill-rule:evenodd;stroke:rgb(0, 0, 0);stroke-width:3.0;" d="M 598.622, 508.441 L 604.566, 542.213 L 588.871, 509.675 L 585.835, 501.844 z "/>
<path style="fill:rgb(192, 10, 22);fill-opacity:1.0;fill-rule:evenodd;stroke:rgb(0, 0, 0);stroke-width:3.0;" d="M 208.923, 91.456 L 210.711, 98.7185 L 206.628, 105.384 L 197.968, 103.422 L 199.065, 91.3681 z "/>
<path style="fill:rgb(192, 10, 22);fill-opacity:1.0;fill-rule:evenodd;stroke:rgb(0, 0, 0);stroke-width:3.0;" d="M 133.796, 78.9363 L 141.452, 90.8543 L 136.181, 90.8073 L 125.714, 86.7389 L 130.913, 78.6169 z "/>
<path style="fill:rgb(192, 10, 22);fill-opacity:1.0;fill-rule:evenodd;stroke:rgb(0, 0, 0);stroke-width:3.0;" d="M 108.969, 84.0126 L 112.692, 90.5979 L 97.4791, 90.4622 L 84.5833, 86.818 L 88.5852, 71.5784 z "/>
<path style="fill:rgb(163, 97, 107);fill-opacity:1.0;fill-rule:evenodd;stroke:rgb(0, 0, 0);stroke-width:3.0;" d="M 713.309, 554.766 L 715.568, 560.568 L 705.901, 573.598 L 679.142, 555.421 L 705.548, 551.814 z "/>
<path style="fill:rgb(10, 209, 212);fill-opacity:1.0;fill-rule:evenodd;stroke:rgb(0, 0, 0);stroke-width:3.0;" d="M 575.918, 349.053 L 558.1, 351.43 L 549.166, 343.66 L 554.683, 341.856 z "/>
<path style="fill:rgb(10, 209, 212);fill-opacity:1.0;fill-rule:evenodd;stroke:rgb(0, 0, 0);stroke-width:3.0;" d="M 739.64, 497.359 L 733.293, 507.91 L 720.268, 516.36 L 733.592, 497.281 z "/>
<path style="fill:rgb(10, 209, 212);fill-opacity:1.0;fill-rule:evenodd;stroke:rgb(0, 0, 0);stroke-width:3.0;" d="M 558.066, 409.827 L 555.059, 414.487 L 550.808, 411.493 L 545.542, 397.909 L 555.548, 395.815 z "/>
<path style="fill:rgb(177, 9, 23);fill-opacity:1.0;fill-rule:evenodd;stroke:rgb(0, 0, 0);stroke-width:3.0;" d="M 688.41, 122.808 L 561.12, 166.729 L 498.402, 80.6671 z "/>
<path style="fill:rgb(177, 9, 23);fill-opacity:1.0;fill-rule:evenodd;stroke:rgb(0, 0, 0);stroke-width:3.0;" d="M 572.088, 422.332 L 581.466, 435.164 L 572.34, 442.297 L 568.534, 422.316 z "/>
<path style="fill:rgb(255, 56, 215);fill-opacity:1.0;fill-rule:evenodd;stroke:rgb(0, 0, 0);stroke-width:3.0;" d="M 586.766, 441.076 L 589.791, 458.261 L 582.491, 481.049 L 581.569, 481.907 L 571.861, 458.653 L 578.097, 443.018 L 586.047, 438.327 z "/>
<path style="fill:rgb(94, 0, 159);fill-opacity:1.0;fill-rule:evenodd;stroke:rgb(0, 0, 0);stroke-width:3.0;" d="M 240.956, 23.574 L 256.445, 32.1252 L 256.807, 33.4191 L 252.948, 36.1671 L 231.765, 28.1978 L 232.443, 22.4947 z "/>
<path style="fill:rgb(255, 130, 8);fill-opacity:1.0;fill-rule:evenodd;stroke:rgb(0, 0, 0);stroke-width:3.0;" d="M 269.211, 95.1096 L 275.555, 115.079 L 254.686, 115.291 L 251.744, 111.675 L 266.597, 91.0961 z "/>
<path style="fill:rgb(255, 130, 8);fill-opacity:1.0;fill-rule:evenodd;stroke:rgb(0, 0, 0);stroke-width:3.0;" d="M 255.789, 251.7 L 252.582, 353.022 L 190.434, 379.454 L 194.252, 232.608 z "/>
<path style="fill:rgb(255, 75, 126);fill-opacity:1.0;fill-rule:evenodd;stroke:rgb(0, 0, 0);stroke-width:3.0;" d="M 682.422, 387.825 L 683.105, 390.875 L 679.824, 397.557 L 670.685, 399.703 L 672.217, 387.764 z "/>
<path style="fill:rgb(255, 75, 126);fill-opacity:1.0;fill-rule:evenodd;stroke:rgb(0, 0, 0);stroke-width:3.0;" d="M 255.789, 251.7 L 194.252, 232.608 L 194.991, 204.177 L 258.505, 165.896 z "/>
<path style="fill:rgb(255, 64, 29);fill-opacity:1.0;fill-rule:evenodd;stroke:rgb(0, 0, 0);stroke-width:3.0;" d="M 582.479, 332.77 L 535.957, 347.977 L 526.783, 339.037 L 553.905, 317.311 z "/>
<path style="fill:rgb(11, 136, 255);fill-opacity:1.0;fill-rule:evenodd;stroke:rgb(0, 0, 0);stroke-width:3.0;" d="M 669.342, 410.168 L 665.284, 403.663 L 660.85, 385.52 L 672.69, 384.083 z "/>
<path style="fill:rgb(11, 136, 255);fill-opacity:1.0;fill-rule:evenodd;stroke:rgb(0, 0, 0);stroke-width:3.0;" d="M 594.759, 407.121 L 595.644, 416.503 L 586.208, 415.319 L 585.892, 398.899 z "/>
<path style="fill:rgb(11, 136, 255);fill-opacity:1.0;fill-rule:evenodd;stroke:rgb(0, 0, 0);stroke-width:3.0;" d="M 575.486, 362.684 L 573.935, 365.205 L 560.63, 353.631 L 572.786, 349.471 L 579.888, 348.523 z "/>
<path style="fill:rgb(11, 136, 255);fill-opacity:1.0;fill-rule:evenodd;stroke:rgb(0, 0, 0);stroke-width:3.0;" d="M 63.3457, 60.9221 L 74.2379, 76.3489 L 72.2373, 80.0011 L 63.6741, 77.3541 L 60.3754, 73.4946 L 62.3564, 61.0054 L 63.0007, 60.619 z "/>
<path style="fill:rgb(215, 0, 35);fill-opacity:1.0;fill-rule:evenodd;stroke:rgb(0, 0, 0);stroke-width:3.0;" d="M 644.425, 455.527 L 677.193, 488.724 L 676.435, 490.216 L 618.478, 500.169 L 599.811, 482.662 L 609.299, 438.284 z "/>
<path style="fill:rgb(52, 255, 231);fill-opacity:1.0;fill-rule:evenodd;stroke:rgb(0, 0, 0);stroke-width:3.0;" d="M 415.576, 62.2977 L 509.87, 184.413 L 405.179, 220.536 L 307.647, 125.492 L 397.37, 58.2599 z "/>
<path style="fill:rgb(52, 255, 231);fill-opacity:1.0;fill-rule:evenodd;stroke:rgb(0, 0, 0);stroke-width:3.0;" d="M 180.87, 29.8756 L 178.552, 31.954 L 142.886, 45.0231 L 112.717, 34.1789 L 112.234, 31.0968 L 150.448, 8.18197 z "/>
<path style="fill:rgb(52, 255, 231);fill-opacity:1.0;fill-rule:evenodd;stroke:rgb(0, 0, 0);stroke-width:3.0;" d="M 771.466, 479.107 L 772.879, 482.23 L 759.056, 491.197 L 756.107, 489.258 L 764.687, 475.723 z "/>
<path style="fill:rgb(52, 255, 231);fill-opacity:1.0;fill-rule:evenodd;stroke:rgb(0, 0, 0);stroke-width:3.0;" d="M 723.17, 535.304 L 725.808, 544.505 L 702.152, 541.216 L 710.9, 534.635 L 720.377, 532.475 z "/>
<path style="fill:rgb(52, 255, 231);fill-opacity:1.0;fill-rule:evenodd;stroke:rgb(0, 0, 0);stroke-width:3.0;" d="M 563.92, 461.586 L 529.531, 406.775 L 544.256, 404.296 z "/>
<path style="fill:rgb(52, 255, 231);fill-opacity:1.0;fill-rule:evenodd;stroke:rgb(0, 0, 0);stroke-width:3.0;" d="M 672.991, 381.737 L 672.69, 384.083 L 655.744, 386.139 L 656.154, 372.628 z "/>
<path style="fill:rgb(41, 0, 19);fill-opacity:1.0;fill-rule:evenodd;stroke:rgb(0, 0, 0);stroke-width:3.0;" d="M 592.916, 476.015 L 598.318, 506.71 L 595.316, 504.466 L 584.709, 478.987 L 590.18, 473.901 z "/>
<path style="fill:rgb(41, 0, 19);fill-opacity:1.0;fill-rule:evenodd;stroke:rgb(0, 0, 0);stroke-width:3.0;" d="M 389.926, 267.592 L 386.364, 273.241 L 361.581, 306.663 L 359.302, 307.633 L 370.849, 287.299 L 389.059, 266.613 z "/>
<path style="fill:rgb(41, 0, 19);fill-opacity:1.0;fill-rule:evenodd;stroke:rgb(0, 0, 0);stroke-width:3.0;" d="M 264.347, 127.165 L 266.411, 129.701 L 260.934, 136.653 L 243.232, 131.651 L 249.172, 121.733 z "/>
<path style="fill:rgb(255, 41, 255);fill-opacity:1.0;fill-rule:evenodd;stroke:rgb(0, 0, 0);stroke-width:3.0;" d="M 666.086, 404.949 L 655.102, 407.311 L 655.68, 388.263 z "/>
<path style="fill:rgb(255, 41, 255);fill-opacity:1.0;fill-rule:evenodd;stroke:rgb(0, 0, 0);stroke-width:3.0;" d="M 193.75, 91.3207 L 189.108, 95.4485 L 168.616, 104.155 L 176.408, 91.166 z "/>
<path style="fill:rgb(255, 41, 255);fill-opacity:1.0;fill-rule:evenodd;stroke:rgb(0, 0, 0);stroke-width:3.0;" d="M 730.524, 533.199 L 723.728, 530.957 L 713.352, 520.846 L 720.376, 516.29 z "/>
<path style="fill:rgb(255, 41, 255);fill-opacity:1.0;fill-rule:evenodd;stroke:rgb(0, 0, 0);stroke-width:3.0;" d="M 733.276, 545.543 L 735.437, 547.732 L 693.944, 553.399 L 694.517, 540.155 z "/>
<path style="fill:rgb(240, 14, 86);fill-opacity:1.0;fill-rule:evenodd;stroke:rgb(0, 0, 0);stroke-width:3.0;" d="M 197.215, 118.647 L 191.504, 338.274 L 97.9068, 90.5831 z "/>
<path style="fill:rgb(243, 55, 246);fill-opacity:1.0;fill-rule:evenodd;stroke:rgb(0, 0, 0);stroke-width:3.0;" d="M 114.65, 46.5046 L 111.118, 49.6943 L 92.5643, 54.9951 L 87.4539, 45.9558 L 94.3791, 41.8032 L 113.339, 38.1464 z "/>
<path style="fill:rgb(252, 61, 17);fill-opacity:1.0;fill-rule:evenodd;stroke:rgb(0, 0, 0);stroke-width:3.0;" d="M 207.861, 87.1452 L 208.923, 91.456 L 149.339, 90.9247 L 156.04, 81.4018 z "/>
<path style="fill:rgb(255, 130, 40);fill-opacity:1.0;fill-rule:evenodd;stroke:rgb(0, 0, 0);stroke-width:3.0;" d="M 753.426, 569.26 L 753.576, 579.694 L 750.832, 579.162 L 728.75, 557.276 L 731.081, 556.71 z "/>
<path style="fill:rgb(56, 252, 130);fill-opacity:1.0;fill-rule:evenodd;stroke:rgb(0, 0, 0);stroke-width:3.0;" d="M 519.381, 331.824 L 544.256, 404.296 L 529.531, 406.775 L 457.276, 291.614 L 449.46, 269.288 L 453.461, 267.586 z "/>
<path style="fill:rgb(56, 252, 130);fill-opacity:1.0;fill-rule:evenodd;stroke:rgb(0, 0, 0);stroke-width:3.0;" d="M 342.857, 159.804 L 396.582, 212.158 L 255.997, 245.139 L 259.444, 136.232 z "/>
<path style="fill:rgb(255, 246, 32);fill-opacity:1.0;fill-rule:evenodd;stroke:rgb(0, 0, 0);stroke-width:3.0;" d="M 268.973, 87.8048 L 240.321, 127.5 L 234.402, 129.156 L 216.993, 124.236 L 216.181, 120.937 L 245.227, 64.665 z "/>
<path style="fill:rgb(255, 10, 255);fill-opacity:1.0;fill-rule:evenodd;stroke:rgb(0, 0, 0);stroke-width:3.0;" d="M 727.99, 411.492 L 745.072, 420.733 L 748.492, 428.297 L 746.423, 445.412 L 702.289, 476.53 L 684.019, 394.954 z "/>
<path style="fill:rgb(255, 134, 11);fill-opacity:1.0;fill-rule:evenodd;stroke:rgb(0, 0, 0);stroke-width:3.0;" d="M 698.735, 516.238 L 679.679, 512.207 L 681.493, 500.463 z "/>
<path style="fill:rgb(255, 134, 11);fill-opacity:1.0;fill-rule:evenodd;stroke:rgb(0, 0, 0);stroke-width:3.0;" d="M 738.079, 97.2303 L 733.004, 132.698 L 570.067, 96.5612 z "/>
<path style="fill:rgb(255, 16, 172);fill-opacity:1.0;fill-rule:evenodd;stroke:rgb(0, 0, 0);stroke-width:3.0;" d="M 682.55, 560.26 L 651.444, 566.782 L 644.334, 561.376 L 644.882, 547.266 L 653.117, 532.656 z "/>
<path style="fill:rgb(59, 237, 255);fill-opacity:1.0;fill-rule:evenodd;stroke:rgb(0, 0, 0);stroke-width:3.0;" d="M 785.858, 502.592 L 777.828, 517.549 L 742.182, 506.176 L 742.325, 502.051 L 782.725, 475.842 z "/>
<path style="fill:rgb(255, 255, 37);fill-opacity:1.0;fill-rule:evenodd;stroke:rgb(0, 0, 0);stroke-width:3.0;" d="M 708.387, 393.179 L 680.914, 386.023 L 677.947, 384.419 L 699.012, 379.376 L 706.445, 379.12 z "/>
<path style="fill:rgb(21, 12, 217);fill-opacity:1.0;fill-rule:evenodd;stroke:rgb(0, 0, 0);stroke-width:3.0;" d="M 720.377, 532.475 L 690.624, 539.257 L 689.809, 538.697 L 702.202, 519.504 L 707.055, 518.978 z "/>
<path style="fill:rgb(231, 29, 55);fill-opacity:1.0;fill-rule:evenodd;stroke:rgb(0, 0, 0);stroke-width:3.0;" d="M 258.505, 165.896 L 194.991, 204.177 L 195.916, 168.612 L 259.201, 143.911 z "/>
<path style="fill:rgb(255, 55, 18);fill-opacity:1.0;fill-rule:evenodd;stroke:rgb(0, 0, 0);stroke-width:3.0;" d="M 259.444, 136.232 L 259.201, 143.911 L 195.916, 168.612 L 197.215, 118.647 z "/>
<path style="fill:rgb(255, 19, 55);fill-opacity:1.0;fill-rule:evenodd;stroke:rgb(0, 0, 0);stroke-width:3.0;" d="M 732.853, 483.266 L 706.832, 496.811 L 702.289, 476.53 L 721.522, 462.969 z "/>
<path style="fill:rgb(182, 89, 14);fill-opacity:1.0;fill-rule:evenodd;stroke:rgb(0, 0, 0);stroke-width:3.0;" d="M 335.877, 317.596 L 329.043, 320.502 L 253.644, 319.481 L 253.659, 318.998 L 317.08, 298.486 z "/>
<path style="fill:rgb(182, 89, 14);fill-opacity:1.0;fill-rule:evenodd;stroke:rgb(0, 0, 0);stroke-width:3.0;" d="M 781.685, 143.495 L 787.847, 191.206 L 780.291, 197.693 L 760.253, 183.475 L 768.828, 140.643 z "/>
<path style="fill:rgb(255, 41, 148);fill-opacity:1.0;fill-rule:evenodd;stroke:rgb(0, 0, 0);stroke-width:3.0;" d="M 585.059, 426.386 L 609.11, 439.164 L 604.124, 462.486 L 594.792, 471.745 L 582.607, 425.182 z "/>
<path style="fill:rgb(255, 41, 148);fill-opacity:1.0;fill-rule:evenodd;stroke:rgb(0, 0, 0);stroke-width:3.0;" d="M 750.431, 269.991 L 736.877, 310.825 L 734.815, 310.551 L 748.414, 242.616 z "/>
<path style="fill:rgb(255, 41, 148);fill-opacity:1.0;fill-rule:evenodd;stroke:rgb(0, 0, 0);stroke-width:3.0;" d="M 678.537, 497.758 L 681.493, 500.463 L 679.679, 512.207 L 666.675, 509.455 L 673.677, 495.653 z "/>
<path style="fill:rgb(252, 7, 7);fill-opacity:1.0;fill-rule:evenodd;stroke:rgb(0, 0, 0);stroke-width:3.0;" d="M 768.828, 140.643 L 734.815, 310.551 L 478.474, 276.503 L 442.815, 257.211 L 405.179, 220.536 L 688.41, 122.808 z "/>
<path style="fill:rgb(255, 209, 20);fill-opacity:1.0;fill-rule:evenodd;stroke:rgb(0, 0, 0);stroke-width:3.0;" d="M 669.367, 504.149 L 654.328, 533.792 L 618.478, 500.169 L 670.448, 491.244 z "/>
<path style="fill:rgb(228, 50, 7);fill-opacity:1.0;fill-rule:evenodd;stroke:rgb(0, 0, 0);stroke-width:3.0;" d="M 275.331, 49.7689 L 277.487, 63.3097 L 237.937, 57.5612 L 237.848, 57.4741 L 252.388, 46.0475 z "/>
<path style="fill:rgb(13, 12, 255);fill-opacity:1.0;fill-rule:evenodd;stroke:rgb(0, 0, 0);stroke-width:3.0;" d="M 286.271, 64.5865 L 291.648, 95.5549 L 285.839, 104.241 L 263.583, 82.5531 L 249.343, 59.219 z "/>
<path style="fill:rgb(67, 255, 199);fill-opacity:1.0;fill-rule:evenodd;stroke:rgb(0, 0, 0);stroke-width:3.0;" d="M 529.818, 317.616 L 524.699, 337.006 L 483.609, 296.964 z "/>
<path style="fill:rgb(67, 255, 199);fill-opacity:1.0;fill-rule:evenodd;stroke:rgb(0, 0, 0);stroke-width:3.0;" d="M 780.291, 197.693 L 752.657, 221.42 L 759.767, 185.902 L 763.026, 185.442 z "/>
<path style="fill:rgb(255, 25, 197);fill-opacity:1.0;fill-rule:evenodd;stroke:rgb(0, 0, 0);stroke-width:3.0;" d="M 40.6963, 50.4697 L 37.3796, 56.2639 L 17.0136, 60.7762 L 16.9341, 60.7178 L 36.3202, 45.3496 z "/>
<path style="fill:rgb(255, 25, 197);fill-opacity:1.0;fill-rule:evenodd;stroke:rgb(0, 0, 0);stroke-width:3.0;" d="M 357.668, 88.0098 L 355.352, 89.7449 L 293.149, 62.8868 L 290.748, 51.064 z "/>
<path style="fill:rgb(215, 252, 255);fill-opacity:1.0;fill-rule:evenodd;stroke:rgb(0, 0, 0);stroke-width:3.0;" d="M 727.99, 411.492 L 684.019, 394.954 L 683.85, 394.2 L 688.563, 390.162 z "/>
<path style="fill:rgb(255, 5, 148);fill-opacity:1.0;fill-rule:evenodd;stroke:rgb(0, 0, 0);stroke-width:3.0;" d="M 76.5841, 20.6048 L 71.5072, 30.4794 L 63.3598, 16.8497 L 67.6751, 11.9192 z "/>
<path style="fill:rgb(255, 67, 9);fill-opacity:1.0;fill-rule:evenodd;stroke:rgb(0, 0, 0);stroke-width:3.0;" d="M 782.235, 473.253 L 783.734, 475.188 L 774.645, 481.084 L 767.132, 463.404 z "/>
<path style="fill:rgb(204, 10, 12);fill-opacity:1.0;fill-rule:evenodd;stroke:rgb(0, 0, 0);stroke-width:3.0;" d="M 771.466, 479.107 L 744.008, 465.4 L 748.492, 428.297 z "/>
<path style="fill:rgb(66, 197, 255);fill-opacity:1.0;fill-rule:evenodd;stroke:rgb(0, 0, 0);stroke-width:3.0;" d="M 91.0084, 24.8797 L 72.5414, 16.6634 L 67.6751, 11.9192 L 72.8896, 5.96131 z "/>
<path style="fill:rgb(215, 184, 194);fill-opacity:1.0;fill-rule:evenodd;stroke:rgb(0, 0, 0);stroke-width:3.0;" d="M 227.895, 52.7606 L 228.645, 54.9548 L 208.811, 51.3201 L 209.733, 40.9033 z "/>
<path style="fill:rgb(69, 237, 243);fill-opacity:1.0;fill-rule:evenodd;stroke:rgb(0, 0, 0);stroke-width:3.0;" d="M 740.542, 494.071 L 731.232, 494.273 L 725.209, 487.245 L 742.452, 478.27 z "/>
<path style="fill:rgb(69, 237, 243);fill-opacity:1.0;fill-rule:evenodd;stroke:rgb(0, 0, 0);stroke-width:3.0;" d="M 631.558, 296.836 L 634.293, 298.842 L 652.364, 334.405 L 603.295, 293.082 z "/>
<path style="fill:rgb(69, 237, 243);fill-opacity:1.0;fill-rule:evenodd;stroke:rgb(0, 0, 0);stroke-width:3.0;" d="M 157.94, 50.4346 L 126.993, 78.1824 L 119.487, 77.3505 L 112.717, 34.1789 z "/>
<path style="fill:rgb(255, 134, 26);fill-opacity:1.0;fill-rule:evenodd;stroke:rgb(0, 0, 0);stroke-width:3.0;" d="M 157.94, 50.4346 L 142.886, 45.0231 L 178.552, 31.954 z "/>
<path style="fill:rgb(255, 107, 43);fill-opacity:1.0;fill-rule:evenodd;stroke:rgb(0, 0, 0);stroke-width:3.0;" d="M 787.989, 520.791 L 789.732, 535.672 L 773.016, 538.012 L 772.468, 537.754 L 747.161, 507.765 z "/>
<path style="fill:rgb(15, 67, 220);fill-opacity:1.0;fill-rule:evenodd;stroke:rgb(0, 0, 0);stroke-width:3.0;" d="M 444.601, 258.952 L 409.101, 277.462 L 413.472, 236.681 L 416.943, 232 z "/>
<path style="fill:rgb(255, 4, 97);fill-opacity:1.0;fill-rule:evenodd;stroke:rgb(0, 0, 0);stroke-width:3.0;" d="M 683.198, 512.951 L 688.776, 520.958 L 659.214, 524.16 L 660.082, 522.449 L 681.023, 512.491 z "/>
<path style="fill:rgb(243, 0, 42);fill-opacity:1.0;fill-rule:evenodd;stroke:rgb(0, 0, 0);stroke-width:3.0;" d="M 196.507, 41.0259 L 207.861, 87.1452 L 175.644, 83.5745 L 155.269, 56.5556 L 181.886, 30.5997 z "/>
<path style="fill:rgb(204, 16, 8);fill-opacity:1.0;fill-rule:evenodd;stroke:rgb(0, 0, 0);stroke-width:3.0;" d="M 553.905, 317.311 L 526.783, 339.037 L 526.489, 338.75 L 534.036, 320.642 L 549.358, 314.852 z "/>
<path style="fill:rgb(204, 16, 8);fill-opacity:1.0;fill-rule:evenodd;stroke:rgb(0, 0, 0);stroke-width:3.0;" d="M 175.644, 83.5745 L 142.528, 79.9042 L 143.214, 68.311 L 155.269, 56.5556 z "/>
<path style="fill:rgb(204, 16, 8);fill-opacity:1.0;fill-rule:evenodd;stroke:rgb(0, 0, 0);stroke-width:3.0;" d="M 759.056, 491.197 L 739.344, 503.985 L 742.227, 480.132 z "/>
<path style="fill:rgb(40, 24, 202);fill-opacity:1.0;fill-rule:evenodd;stroke:rgb(0, 0, 0);stroke-width:3.0;" d="M 286.195, 104.588 L 280.277, 112.099 L 266.597, 91.0961 L 268.973, 87.8048 z "/>
<path style="fill:rgb(252, 45, 33);fill-opacity:1.0;fill-rule:evenodd;stroke:rgb(0, 0, 0);stroke-width:3.0;" d="M 552.941, 346.943 L 550.21, 361.866 L 535.957, 347.977 L 549.166, 343.66 z "/>
<path style="fill:rgb(20, 0, 194);fill-opacity:1.0;fill-rule:evenodd;stroke:rgb(0, 0, 0);stroke-width:3.0;" d="M 716.428, 497.062 L 718.531, 517.487 L 718.362, 517.596 L 709.361, 508.104 L 706.861, 496.94 z "/>
<path style="fill:rgb(255, 25, 199);fill-opacity:1.0;fill-rule:evenodd;stroke:rgb(0, 0, 0);stroke-width:3.0;" d="M 281.478, 50.7659 L 285.49, 60.0903 L 286.271, 64.5865 L 277.487, 63.3097 L 275.331, 49.7689 z "/>
<path style="fill:rgb(255, 30, 182);fill-opacity:1.0;fill-rule:evenodd;stroke:rgb(0, 0, 0);stroke-width:3.0;" d="M 678.371, 578.876 L 675.554, 582.803 L 672.047, 582.448 L 651.444, 566.782 L 673.64, 562.128 z "/>
<path style="fill:rgb(212, 8, 132);fill-opacity:1.0;fill-rule:evenodd;stroke:rgb(0, 0, 0);stroke-width:3.0;" d="M 233.089, 55.769 L 231.103, 70.9391 L 230.875, 71.3325 L 219.544, 60.2857 L 229.731, 55.1537 z "/>
<path style="fill:rgb(41, 255, 223);fill-opacity:1.0;fill-rule:evenodd;stroke:rgb(0, 0, 0);stroke-width:3.0;" d="M 96.824, 40.3371 L 89.2417, 44.8838 L 84.3401, 44.1207 L 76.3339, 21.0913 L 76.5841, 20.6048 z "/>
<path style="fill:rgb(255, 35, 60);fill-opacity:1.0;fill-rule:evenodd;stroke:rgb(0, 0, 0);stroke-width:3.0;" d="M 496.729, 80.2961 L 453.995, 112.052 L 415.576, 62.2977 z "/>
<path style="fill:rgb(255, 175, 19);fill-opacity:1.0;fill-rule:evenodd;stroke:rgb(0, 0, 0);stroke-width:3.0;" d="M 399.445, 214.948 L 254.547, 290.946 L 255.997, 245.139 L 396.582, 212.158 z "/>
<path style="fill:rgb(115, 255, 70);fill-opacity:1.0;fill-rule:evenodd;stroke:rgb(0, 0, 0);stroke-width:3.0;" d="M 453.461, 267.586 L 375.291, 300.833 L 378.202, 293.63 L 448.609, 262.857 z "/>
<path style="fill:rgb(115, 255, 70);fill-opacity:1.0;fill-rule:evenodd;stroke:rgb(0, 0, 0);stroke-width:3.0;" d="M 624.708, 533.649 L 618.443, 536.694 L 609.644, 528.503 L 605.928, 514.305 L 612.577, 511.186 z "/>
<path style="fill:rgb(249, 24, 255);fill-opacity:1.0;fill-rule:evenodd;stroke:rgb(0, 0, 0);stroke-width:3.0;" d="M 744.654, 460.053 L 736.422, 481.409 L 732.853, 483.266 L 721.522, 462.969 L 746.423, 445.412 z "/>
<path style="fill:rgb(33, 35, 255);fill-opacity:1.0;fill-rule:evenodd;stroke:rgb(0, 0, 0);stroke-width:3.0;" d="M 733.592, 497.281 L 720.268, 516.36 L 718.531, 517.487 L 718.489, 517.082 L 723.333, 497.151 z "/>
<path style="fill:rgb(255, 62, 252);fill-opacity:1.0;fill-rule:evenodd;stroke:rgb(0, 0, 0);stroke-width:3.0;" d="M 753.173, 307.209 L 738.723, 305.265 L 750.431, 269.991 z "/>
<path style="fill:rgb(255, 21, 43);fill-opacity:1.0;fill-rule:evenodd;stroke:rgb(0, 0, 0);stroke-width:3.0;" d="M 148.582, 80.5751 L 145.42, 90.8897 L 141.452, 90.8543 L 133.796, 78.9363 z "/>
<path style="fill:rgb(255, 43, 168);fill-opacity:1.0;fill-rule:evenodd;stroke:rgb(0, 0, 0);stroke-width:3.0;" d="M 769.903, 315.212 L 778.364, 360.38 L 733.021, 371.235 L 631.558, 296.836 z "/>
<path style="fill:rgb(220, 83, 17);fill-opacity:1.0;fill-rule:evenodd;stroke:rgb(0, 0, 0);stroke-width:3.0;" d="M 36.3202, 45.3496 L 16.9341, 60.7178 L 6.85814, 53.3016 L 5.64961, 50.949 L 5.58465, 50.1365 L 34.0083, 42.6446 z "/>
<path style="fill:rgb(252, 255, 11);fill-opacity:1.0;fill-rule:evenodd;stroke:rgb(0, 0, 0);stroke-width:3.0;" d="M 733.021, 371.235 L 704.271, 378.117 L 652.364, 334.405 L 634.293, 298.842 z "/>
<path style="fill:rgb(255, 114, 170);fill-opacity:1.0;fill-rule:evenodd;stroke:rgb(0, 0, 0);stroke-width:3.0;" d="M 298.686, 90.1626 L 302.357, 108.243 L 294.643, 112.801 L 291.561, 95.0486 L 294.49, 87.9553 z "/>
<path style="fill:rgb(255, 34, 207);fill-opacity:1.0;fill-rule:evenodd;stroke:rgb(0, 0, 0);stroke-width:3.0;" d="M 747.161, 507.765 L 775.573, 541.433 L 756.219, 541.676 L 730.524, 533.199 L 720.664, 516.769 L 724.583, 513.56 L 738.015, 504.847 z "/>
<path style="fill:rgb(76, 5, 207);fill-opacity:1.0;fill-rule:evenodd;stroke:rgb(0, 0, 0);stroke-width:3.0;" d="M 176.408, 91.166 L 168.616, 104.155 L 160.128, 107.761 L 156.224, 97.4151 L 174.444, 91.1485 z "/>
<path style="fill:rgb(76, 5, 207);fill-opacity:1.0;fill-rule:evenodd;stroke:rgb(0, 0, 0);stroke-width:3.0;" d="M 409.101, 277.462 L 374.952, 295.269 L 384.94, 276.458 L 409.664, 272.214 z "/>
<path style="fill:rgb(255, 12, 255);fill-opacity:1.0;fill-rule:evenodd;stroke:rgb(0, 0, 0);stroke-width:3.0;" d="M 409.664, 272.214 L 384.94, 276.458 L 387.366, 271.889 L 413.472, 236.681 z "/>
<path style="fill:rgb(57, 255, 7);fill-opacity:1.0;fill-rule:evenodd;stroke:rgb(0, 0, 0);stroke-width:3.0;" d="M 630.435, 555.122 L 620.795, 565.935 L 619.088, 564.593 L 615.88, 552.334 L 621.973, 548.874 z "/>
<path style="fill:rgb(255, 138, 75);fill-opacity:1.0;fill-rule:evenodd;stroke:rgb(0, 0, 0);stroke-width:3.0;" d="M 538.825, 309.153 L 526.489, 338.75 L 524.699, 337.006 L 532.899, 305.947 z "/>
<path style="fill:rgb(255, 32, 7);fill-opacity:1.0;fill-rule:evenodd;stroke:rgb(0, 0, 0);stroke-width:3.0;" d="M 80.8381, 34.0473 L 84.0517, 43.291 L 79.0911, 45.3791 L 70.4646, 32.5073 L 73.3269, 26.9401 z "/>
<path style="fill:rgb(255, 47, 19);fill-opacity:1.0;fill-rule:evenodd;stroke:rgb(0, 0, 0);stroke-width:3.0;" d="M 329.043, 320.502 L 252.582, 353.022 L 253.644, 319.481 z "/>
<path style="fill:rgb(14, 252, 228);fill-opacity:1.0;fill-rule:evenodd;stroke:rgb(0, 0, 0);stroke-width:3.0;" d="M 286.477, 126.593 L 281.772, 142.542 L 260.934, 136.653 L 266.554, 129.519 L 287.21, 122.218 z "/>
<path style="fill:rgb(61, 11, 255);fill-opacity:1.0;fill-rule:evenodd;stroke:rgb(0, 0, 0);stroke-width:3.0;" d="M 301.241, 66.3811 L 321.061, 115.44 L 307.647, 125.492 L 305.418, 123.32 L 293.149, 62.8868 z "/>
<path style="fill:rgb(217, 255, 12);fill-opacity:1.0;fill-rule:evenodd;stroke:rgb(0, 0, 0);stroke-width:3.0;" d="M 355.352, 89.7449 L 321.061, 115.44 L 301.241, 66.3811 z "/>
<path style="fill:rgb(34, 3, 255);fill-opacity:1.0;fill-rule:evenodd;stroke:rgb(0, 0, 0);stroke-width:3.0;" d="M 750.364, 373.112 L 745.974, 377.73 L 724.489, 373.277 L 746.895, 367.914 z "/>
<path style="fill:rgb(110, 3, 194);fill-opacity:1.0;fill-rule:evenodd;stroke:rgb(0, 0, 0);stroke-width:3.0;" d="M 359.302, 307.633 L 335.877, 317.596 L 317.08, 298.486 L 375.163, 279.701 z "/>
</svg>