<?xml version="1.0" encoding="iso-8859-1" standalone="no"?>
<!DOCTYPE svg PUBLIC "-//W3C//DTD SVG 1.0//EN" "http://www.w3.org/TR/2001/REC-SVG-20010904/DTD/svg10.dtd">
<svg xmlns="http://www.w3.org/2000/svg" width="800" height="600">
<path style="fill:rgb(0, 0, 0);fill-opacity:0.0;fill-rule:evenodd;stroke:rgb(0, 0, 0);stroke-width:0.0;" d="M 0, 600 L 800, 600 L 800, 0 L 0, 0 z "/>
<path style="fill:rgb(255, 170, 14);fill-opacity:1.0;fill-rule:evenodd;stroke:rgb(0, 0, 0);stroke-width:3.0;" d="M 106.234, 272.451 L 98.5877, 286.605 L 66.4076, 253.165 L 102.127, 244.12 z "/>
<path style="fill:rgb(234, 246, 249);fill-opacity:1.0;fill-rule:evenodd;stroke:rgb(0, 0, 0);stroke-width:3.0;" d="M 329.198, 192.915 L 348.016, 211.336 L 344.378, 227.377 L 308.829, 226.988 L 301.667, 204.34 L 313.967, 189.572 z "/>
<path style="fill:rgb(234, 246, 249);fill-opacity:1.0;fill-rule:evenodd;stroke:rgb(0, 0, 0);stroke-width:3.0;" d="M 547.474, 124.114 L 561.116, 157.955 L 525.312, 137.318 L 504.322, 112.881 z "/>
<path style="fill:rgb(234, 246, 249);fill-opacity:1.0;fill-rule:evenodd;stroke:rgb(0, 0, 0);stroke-width:3.0;" d="M 71.996, 290.483 L 15.0828, 352.326 L 18.0758, 329.014 L 69.668, 274.694 z "/>
<path style="fill:rgb(234, 246, 249);fill-opacity:1.0;fill-rule:evenodd;stroke:rgb(0, 0, 0);stroke-width:3.0;" d="M 433.391, 116.201 L 422.799, 127.869 L 414.207, 118.614 L 431.824, 104.48 z "/>
<path style="fill:rgb(234, 246, 249);fill-opacity:1.0;fill-rule:evenodd;stroke:rgb(0, 0, 0);stroke-width:3.0;" d="M 185.281, 388.475 L 183.816, 404.926 L 161.868, 406.573 L 161.434, 403.178 L 180.435, 387.893 z "/>
<path style="fill:rgb(234, 246, 249);fill-opacity:1.0;fill-rule:evenodd;stroke:rgb(0, 0, 0);stroke-width:3.0;" d="M 350.3, 164.629 L 357.148, 169.498 L 267.58, 166.38 L 267.316, 155.654 L 273.187, 144.598 z "/>
<path style="fill:rgb(255, 88, 18);fill-opacity:1.0;fill-rule:evenodd;stroke:rgb(0, 0, 0);stroke-width:3.0;" d="M 246.748, 60.9182 L 259.46, 71.2799 L 242.815, 73.3417 L 244.279, 60.5194 z "/>
<path style="fill:rgb(252, 255, 10);fill-opacity:1.0;fill-rule:evenodd;stroke:rgb(0, 0, 0);stroke-width:3.0;" d="M 492.108, 91.7039 L 481.642, 98.872 L 313.499, 71.7038 L 315.877, 69.5861 L 329.883, 63.4909 z "/>
<path style="fill:rgb(47, 1, 255);fill-opacity:1.0;fill-rule:evenodd;stroke:rgb(0, 0, 0);stroke-width:3.0;" d="M 470.223, 228.707 L 459.717, 232.526 L 454.193, 227.804 L 451.994, 223.306 L 468.092, 222.108 z "/>
<path style="fill:rgb(47, 1, 255);fill-opacity:1.0;fill-rule:evenodd;stroke:rgb(0, 0, 0);stroke-width:3.0;" d="M 395.938, 227.476 L 390.471, 227.882 L 370.68, 227.666 L 321.578, 181.971 L 332.037, 177.926 z "/>
<path style="fill:rgb(47, 1, 255);fill-opacity:1.0;fill-rule:evenodd;stroke:rgb(0, 0, 0);stroke-width:3.0;" d="M 699.337, 134.047 L 731.406, 146.995 L 717.893, 153.595 L 654.071, 140.076 L 662.051, 128.022 z "/>
<path style="fill:rgb(47, 1, 255);fill-opacity:1.0;fill-rule:evenodd;stroke:rgb(0, 0, 0);stroke-width:3.0;" d="M 229.537, 122.505 L 211.566, 128.59 L 208.093, 127.688 L 216.117, 111.579 z "/>
<path style="fill:rgb(47, 1, 255);fill-opacity:1.0;fill-rule:evenodd;stroke:rgb(0, 0, 0);stroke-width:3.0;" d="M 531.041, 106.854 L 517.82, 104.718 L 524.151, 90.4267 z "/>
<path style="fill:rgb(47, 1, 255);fill-opacity:1.0;fill-rule:evenodd;stroke:rgb(0, 0, 0);stroke-width:3.0;" d="M 79.9725, 344.584 L 7.64108, 410.287 L 15.0828, 352.326 L 71.996, 290.483 z "/>
<path style="fill:rgb(47, 1, 255);fill-opacity:1.0;fill-rule:evenodd;stroke:rgb(0, 0, 0);stroke-width:3.0;" d="M 627.438, 79.6618 L 615.497, 75.8944 L 626.071, 62.1923 z "/>
<path style="fill:rgb(47, 1, 255);fill-opacity:1.0;fill-rule:evenodd;stroke:rgb(0, 0, 0);stroke-width:3.0;" d="M 269.762, 209.855 L 279.132, 226.662 L 270.846, 226.571 L 257.791, 209.905 L 258.396, 208.565 z "/>
<path style="fill:rgb(47, 1, 255);fill-opacity:1.0;fill-rule:evenodd;stroke:rgb(0, 0, 0);stroke-width:3.0;" d="M 629.047, 371.51 L 440.53, 385.659 L 493.591, 314.02 L 661.082, 291.813 z "/>
<path style="fill:rgb(159, 27, 168);fill-opacity:1.0;fill-rule:evenodd;stroke:rgb(0, 0, 0);stroke-width:3.0;" d="M 452.682, 224.714 L 436.03, 234.179 L 411.41, 226.325 L 451.994, 223.306 z "/>
<path style="fill:rgb(123, 228, 255);fill-opacity:1.0;fill-rule:evenodd;stroke:rgb(0, 0, 0);stroke-width:3.0;" d="M 245.324, 137.359 L 261.867, 159.19 L 263.267, 166.23 L 260.948, 166.149 L 251.975, 161.801 L 230.74, 141.761 L 226.53, 132.477 z "/>
<path style="fill:rgb(123, 228, 255);fill-opacity:1.0;fill-rule:evenodd;stroke:rgb(0, 0, 0);stroke-width:3.0;" d="M 122.089, 360.997 L 119.795, 368.576 L 95.2215, 346.6 L 98.1931, 319.765 z "/>
<path style="fill:rgb(123, 228, 255);fill-opacity:1.0;fill-rule:evenodd;stroke:rgb(0, 0, 0);stroke-width:3.0;" d="M 577.702, 48.7552 L 554.634, 67.5675 L 532.998, 74.0786 L 532.189, 72.2798 L 537.293, 60.7575 L 578.303, 32.6708 z "/>
<path style="fill:rgb(123, 228, 255);fill-opacity:1.0;fill-rule:evenodd;stroke:rgb(0, 0, 0);stroke-width:3.0;" d="M 490.676, 268.001 L 468.207, 292.017 L 439.423, 275.203 L 440.399, 260.987 z "/>
<path style="fill:rgb(255, 130, 255);fill-opacity:1.0;fill-rule:evenodd;stroke:rgb(0, 0, 0);stroke-width:3.0;" d="M 306.507, 167.735 L 292.596, 187.82 L 293.245, 167.273 z "/>
<path style="fill:rgb(255, 130, 255);fill-opacity:1.0;fill-rule:evenodd;stroke:rgb(0, 0, 0);stroke-width:3.0;" d="M 351.359, 120.418 L 308.99, 153.898 L 308.851, 153.862 L 327.265, 103.152 z "/>
<path style="fill:rgb(255, 130, 255);fill-opacity:1.0;fill-rule:evenodd;stroke:rgb(0, 0, 0);stroke-width:3.0;" d="M 689.722, 213.941 L 660.517, 231.657 L 651.689, 208.45 L 687.703, 205.771 z "/>
<path style="fill:rgb(255, 130, 255);fill-opacity:1.0;fill-rule:evenodd;stroke:rgb(0, 0, 0);stroke-width:3.0;" d="M 220.325, 103.131 L 208.093, 127.688 L 193.823, 123.981 L 200.061, 103.369 L 218.412, 95.0091 z "/>
<path style="fill:rgb(223, 50, 136);fill-opacity:1.0;fill-rule:evenodd;stroke:rgb(0, 0, 0);stroke-width:3.0;" d="M 220.325, 103.131 L 215.404, 82.2368 L 232.176, 79.3395 z "/>
<path style="fill:rgb(223, 50, 136);fill-opacity:1.0;fill-rule:evenodd;stroke:rgb(0, 0, 0);stroke-width:3.0;" d="M 363.984, 26.7524 L 336.112, 51.5696 L 244.065, 29.678 L 240.729, 18.9639 z "/>
<path style="fill:rgb(223, 50, 136);fill-opacity:1.0;fill-rule:evenodd;stroke:rgb(0, 0, 0);stroke-width:3.0;" d="M 326.804, 300.722 L 294.571, 390.46 L 273.27, 378.735 L 277.87, 336.474 L 322.21, 289.816 z "/>
<path style="fill:rgb(223, 50, 136);fill-opacity:1.0;fill-rule:evenodd;stroke:rgb(0, 0, 0);stroke-width:3.0;" d="M 125.85, 381.337 L 142.285, 403.653 L 115.557, 394.947 L 121.28, 380.788 z "/>
<path style="fill:rgb(223, 50, 136);fill-opacity:1.0;fill-rule:evenodd;stroke:rgb(0, 0, 0);stroke-width:3.0;" d="M 665.187, 142.431 L 658.49, 160.158 L 642.624, 157.368 L 654.071, 140.076 z "/>
<path style="fill:rgb(223, 50, 136);fill-opacity:1.0;fill-rule:evenodd;stroke:rgb(0, 0, 0);stroke-width:3.0;" d="M 130.128, 264.038 L 137.946, 275.277 L 115.206, 274.197 L 112.414, 264.188 L 122.701, 263.244 z "/>
<path style="fill:rgb(223, 50, 136);fill-opacity:1.0;fill-rule:evenodd;stroke:rgb(0, 0, 0);stroke-width:3.0;" d="M 563.733, 242.531 L 547.105, 268.665 L 535.476, 249.569 L 551.94, 238.893 z "/>
<path style="fill:rgb(223, 50, 136);fill-opacity:1.0;fill-rule:evenodd;stroke:rgb(0, 0, 0);stroke-width:3.0;" d="M 464.928, 173.25 L 370.881, 169.976 L 316.638, 155.885 L 403.909, 107.521 z "/>
<path style="fill:rgb(237, 209, 8);fill-opacity:1.0;fill-rule:evenodd;stroke:rgb(0, 0, 0);stroke-width:3.0;" d="M 115.997, 243.723 L 113.462, 252.191 L 106.14, 250.697 L 102.647, 247.709 L 102.127, 244.12 L 114.155, 241.075 z "/>
<path style="fill:rgb(237, 209, 8);fill-opacity:1.0;fill-rule:evenodd;stroke:rgb(0, 0, 0);stroke-width:3.0;" d="M 197.529, 196.429 L 197.126, 196.722 L 191.548, 195.781 L 193.339, 192.486 L 194.312, 191.344 L 207.612, 180.195 L 217.271, 176.728 z "/>
<path style="fill:rgb(237, 209, 8);fill-opacity:1.0;fill-rule:evenodd;stroke:rgb(0, 0, 0);stroke-width:3.0;" d="M 301.735, 226.91 L 319.782, 233.141 L 234.961, 239.451 L 241.186, 226.246 z "/>
<path style="fill:rgb(237, 209, 8);fill-opacity:1.0;fill-rule:evenodd;stroke:rgb(0, 0, 0);stroke-width:3.0;" d="M 104.253, 402.809 L 90.1219, 413.422 L 88.8084, 404.513 L 89.9538, 394.17 z "/>
<path style="fill:rgb(237, 209, 8);fill-opacity:1.0;fill-rule:evenodd;stroke:rgb(0, 0, 0);stroke-width:3.0;" d="M 229.448, 75.5873 L 212.507, 69.9376 L 211.488, 65.612 L 214.454, 55.814 z "/>
<path style="fill:rgb(237, 209, 8);fill-opacity:1.0;fill-rule:evenodd;stroke:rgb(0, 0, 0);stroke-width:3.0;" d="M 293.114, 137.808 L 292.426, 139.161 L 278.696, 146.029 L 269.163, 143.552 L 289.902, 121.56 z "/>
<path style="fill:rgb(237, 209, 8);fill-opacity:1.0;fill-rule:evenodd;stroke:rgb(0, 0, 0);stroke-width:3.0;" d="M 741.056, 174.676 L 724.471, 178.295 L 695.93, 166.741 z "/>
<path style="fill:rgb(237, 209, 8);fill-opacity:1.0;fill-rule:evenodd;stroke:rgb(0, 0, 0);stroke-width:3.0;" d="M 660.517, 231.657 L 632.411, 248.708 L 557.921, 215.604 L 558.252, 215.401 L 651.689, 208.45 z "/>
<path style="fill:rgb(237, 209, 8);fill-opacity:1.0;fill-rule:evenodd;stroke:rgb(0, 0, 0);stroke-width:3.0;" d="M 180.435, 387.893 L 156.735, 406.959 L 153.238, 407.221 L 142.285, 403.653 L 125.85, 381.337 z "/>
<path style="fill:rgb(237, 209, 8);fill-opacity:1.0;fill-rule:evenodd;stroke:rgb(0, 0, 0);stroke-width:3.0;" d="M 740.403, 158.363 L 718.565, 170.721 L 658.49, 160.158 L 665.187, 142.431 z "/>
<path style="fill:rgb(237, 209, 8);fill-opacity:1.0;fill-rule:evenodd;stroke:rgb(0, 0, 0);stroke-width:3.0;" d="M 565.342, 168.439 L 568.738, 176.864 L 481.243, 173.818 L 491.441, 159.967 L 513.568, 154.586 z "/>
<path style="fill:rgb(255, 50, 49);fill-opacity:1.0;fill-rule:evenodd;stroke:rgb(0, 0, 0);stroke-width:3.0;" d="M 544.814, 109.079 L 581.031, 155.062 L 559.316, 153.491 L 541.177, 108.492 z "/>
<path style="fill:rgb(255, 50, 49);fill-opacity:1.0;fill-rule:evenodd;stroke:rgb(0, 0, 0);stroke-width:3.0;" d="M 513.239, 130.359 L 481.243, 173.818 L 464.928, 173.25 L 449.143, 156.246 L 471.111, 106.076 z "/>
<path style="fill:rgb(159, 110, 255);fill-opacity:1.0;fill-rule:evenodd;stroke:rgb(0, 0, 0);stroke-width:3.0;" d="M 266.786, 142.935 L 260.339, 157.173 L 253.845, 148.603 L 256.417, 140.241 z "/>
<path style="fill:rgb(237, 243, 44);fill-opacity:1.0;fill-rule:evenodd;stroke:rgb(0, 0, 0);stroke-width:3.0;" d="M 440.399, 260.987 L 435.898, 326.551 L 412.437, 351.627 L 414.382, 257.358 z "/>
<path style="fill:rgb(255, 237, 7);fill-opacity:1.0;fill-rule:evenodd;stroke:rgb(0, 0, 0);stroke-width:3.0;" d="M 629.008, 178.962 L 563.758, 190.636 L 563.937, 184.164 L 608.267, 178.24 z "/>
<path style="fill:rgb(255, 237, 7);fill-opacity:1.0;fill-rule:evenodd;stroke:rgb(0, 0, 0);stroke-width:3.0;" d="M 611.635, 263.697 L 559.498, 264.636 L 596.939, 249.134 z "/>
<path style="fill:rgb(255, 246, 22);fill-opacity:1.0;fill-rule:evenodd;stroke:rgb(0, 0, 0);stroke-width:3.0;" d="M 154.962, 239.9 L 128.045, 261.043 L 127.514, 260.279 L 137.787, 241.109 L 147.575, 238.332 z "/>
<path style="fill:rgb(197, 9, 13);fill-opacity:1.0;fill-rule:evenodd;stroke:rgb(0, 0, 0);stroke-width:3.0;" d="M 416.918, 387.431 L 304.41, 395.875 L 294.571, 390.46 L 335.893, 275.418 L 360.007, 250.044 z "/>
<path style="fill:rgb(197, 9, 13);fill-opacity:1.0;fill-rule:evenodd;stroke:rgb(0, 0, 0);stroke-width:3.0;" d="M 522.292, 94.6222 L 519.645, 100.597 L 487.461, 94.8865 L 498.183, 87.5436 z "/>
<path style="fill:rgb(197, 9, 13);fill-opacity:1.0;fill-rule:evenodd;stroke:rgb(0, 0, 0);stroke-width:3.0;" d="M 390.276, 56.4121 L 371.68, 70.7599 L 337.942, 64.8925 L 359.923, 50.4181 L 401.679, 32.2464 z "/>
<path style="fill:rgb(197, 9, 13);fill-opacity:1.0;fill-rule:evenodd;stroke:rgb(0, 0, 0);stroke-width:3.0;" d="M 394.933, 97.8513 L 339.384, 143.279 L 316.638, 155.885 L 308.99, 153.898 L 388.579, 91.007 z "/>
<path style="fill:rgb(197, 9, 13);fill-opacity:1.0;fill-rule:evenodd;stroke:rgb(0, 0, 0);stroke-width:3.0;" d="M 757.117, 161.904 L 717.893, 153.595 L 734.154, 145.652 z "/>
<path style="fill:rgb(255, 52, 22);fill-opacity:1.0;fill-rule:evenodd;stroke:rgb(0, 0, 0);stroke-width:3.0;" d="M 226.53, 132.477 L 236.406, 154.256 L 232.464, 152.346 L 214.074, 129.241 z "/>
<path style="fill:rgb(255, 52, 22);fill-opacity:1.0;fill-rule:evenodd;stroke:rgb(0, 0, 0);stroke-width:3.0;" d="M 532.098, 45.6892 L 537.327, 60.734 L 492.108, 91.7039 L 382.609, 72.6606 L 397.647, 40.7917 z "/>
<path style="fill:rgb(255, 52, 22);fill-opacity:1.0;fill-rule:evenodd;stroke:rgb(0, 0, 0);stroke-width:3.0;" d="M 359.888, 249.756 L 360.007, 250.044 L 249.922, 365.884 L 207.792, 342.695 L 166.967, 244.509 L 268.257, 236.974 z "/>
<path style="fill:rgb(255, 52, 22);fill-opacity:1.0;fill-rule:evenodd;stroke:rgb(0, 0, 0);stroke-width:3.0;" d="M 536.383, 175.737 L 526.879, 217.735 L 507.941, 219.144 L 530.222, 175.523 z "/>
<path style="fill:rgb(255, 52, 22);fill-opacity:1.0;fill-rule:evenodd;stroke:rgb(0, 0, 0);stroke-width:3.0;" d="M 135.244, 275.149 L 131.417, 301.046 L 123.726, 304.742 L 115.206, 274.197 z "/>
<path style="fill:rgb(255, 52, 22);fill-opacity:1.0;fill-rule:evenodd;stroke:rgb(0, 0, 0);stroke-width:3.0;" d="M 575.267, 114 L 549.036, 109.761 L 532.998, 74.0786 L 577.254, 60.7601 z "/>
<path style="fill:rgb(255, 52, 22);fill-opacity:1.0;fill-rule:evenodd;stroke:rgb(0, 0, 0);stroke-width:3.0;" d="M 497.702, 288.982 L 498.474, 295.148 L 484.161, 298.793 L 471.468, 292.472 L 482.337, 277.03 z "/>
<path style="fill:rgb(255, 52, 22);fill-opacity:1.0;fill-rule:evenodd;stroke:rgb(0, 0, 0);stroke-width:3.0;" d="M 454.661, 262.977 L 431.994, 259.815 L 430.545, 256.487 L 444.107, 239.259 z "/>
<path style="fill:rgb(255, 52, 22);fill-opacity:1.0;fill-rule:evenodd;stroke:rgb(0, 0, 0);stroke-width:3.0;" d="M 288.815, 185.953 L 289.441, 219.021 L 283.042, 226.705 L 279.132, 226.662 L 263.161, 198.014 L 266.521, 190.574 L 279.328, 172.219 z "/>
<path style="fill:rgb(255, 24, 194);fill-opacity:1.0;fill-rule:evenodd;stroke:rgb(0, 0, 0);stroke-width:3.0;" d="M 320.213, 109.221 L 316.607, 93.0231 L 329.068, 88.8038 z "/>
<path style="fill:rgb(255, 24, 194);fill-opacity:1.0;fill-rule:evenodd;stroke:rgb(0, 0, 0);stroke-width:3.0;" d="M 522.292, 94.6222 L 509.681, 90.9194 L 530.882, 65.1485 L 537.293, 60.7575 z "/>
<path style="fill:rgb(255, 24, 194);fill-opacity:1.0;fill-rule:evenodd;stroke:rgb(0, 0, 0);stroke-width:3.0;" d="M 301.585, 204.439 L 289.441, 219.021 L 288.815, 185.953 z "/>
<path style="fill:rgb(255, 252, 19);fill-opacity:1.0;fill-rule:evenodd;stroke:rgb(0, 0, 0);stroke-width:3.0;" d="M 471.111, 106.076 L 449.143, 156.246 L 439.081, 145.408 L 459.566, 99.4206 z "/>
<path style="fill:rgb(26, 252, 249);fill-opacity:1.0;fill-rule:evenodd;stroke:rgb(0, 0, 0);stroke-width:3.0;" d="M 91.0998, 321.123 L 76.9242, 323.909 L 76.5308, 321.24 L 99.9633, 308.137 z "/>
<path style="fill:rgb(26, 252, 249);fill-opacity:1.0;fill-rule:evenodd;stroke:rgb(0, 0, 0);stroke-width:3.0;" d="M 355.228, 169.431 L 402.324, 208.36 L 362.977, 201.917 L 326.95, 173.982 L 331.431, 168.602 z "/>
<path style="fill:rgb(240, 3, 130);fill-opacity:1.0;fill-rule:evenodd;stroke:rgb(0, 0, 0);stroke-width:3.0;" d="M 442.806, 223.989 L 423.013, 225.462 L 373.533, 184.562 z "/>
<path style="fill:rgb(240, 3, 130);fill-opacity:1.0;fill-rule:evenodd;stroke:rgb(0, 0, 0);stroke-width:3.0;" d="M 126.66, 398.564 L 124.701, 409.363 L 113.429, 410.209 L 107.826, 408.123 L 109.744, 401.784 L 115.336, 394.875 z "/>
<path style="fill:rgb(240, 3, 130);fill-opacity:1.0;fill-rule:evenodd;stroke:rgb(0, 0, 0);stroke-width:3.0;" d="M 600.557, 118.086 L 609.429, 128.781 L 603.287, 133.175 L 589.307, 121.718 L 588.066, 116.068 z "/>
<path style="fill:rgb(240, 3, 130);fill-opacity:1.0;fill-rule:evenodd;stroke:rgb(0, 0, 0);stroke-width:3.0;" d="M 602.049, 283.537 L 608.042, 298.845 L 550.993, 306.409 L 556.233, 277.146 z "/>
<path style="fill:rgb(249, 98, 13);fill-opacity:1.0;fill-rule:evenodd;stroke:rgb(0, 0, 0);stroke-width:3.0;" d="M 130.464, 333.325 L 122.089, 360.997 L 105.841, 332.961 z "/>
<path style="fill:rgb(249, 98, 13);fill-opacity:1.0;fill-rule:evenodd;stroke:rgb(0, 0, 0);stroke-width:3.0;" d="M 556.233, 277.146 L 550.993, 306.409 L 493.591, 314.02 L 524.211, 272.679 z "/>
<path style="fill:rgb(255, 223, 16);fill-opacity:1.0;fill-rule:evenodd;stroke:rgb(0, 0, 0);stroke-width:3.0;" d="M 760.535, 305.646 L 672.118, 293.312 L 711.906, 284.035 z "/>
<path style="fill:rgb(255, 223, 16);fill-opacity:1.0;fill-rule:evenodd;stroke:rgb(0, 0, 0);stroke-width:3.0;" d="M 464.893, 173.249 L 493.532, 220.216 L 442.806, 223.989 L 373.533, 184.562 L 355.228, 169.431 z "/>
<path style="fill:rgb(255, 223, 16);fill-opacity:1.0;fill-rule:evenodd;stroke:rgb(0, 0, 0);stroke-width:3.0;" d="M 791.373, 184.614 L 778.001, 199.054 L 526.879, 217.735 L 531.714, 196.369 L 629.008, 178.962 z "/>
<path style="fill:rgb(255, 215, 9);fill-opacity:1.0;fill-rule:evenodd;stroke:rgb(0, 0, 0);stroke-width:3.0;" d="M 515.422, 236.73 L 490.152, 245.906 L 482.533, 244.699 L 487.392, 237.86 L 499.415, 233.016 z "/>
<path style="fill:rgb(255, 215, 9);fill-opacity:1.0;fill-rule:evenodd;stroke:rgb(0, 0, 0);stroke-width:3.0;" d="M 118.655, 307.457 L 94.6019, 320.435 L 91.0998, 321.123 L 96.7874, 312.79 L 115.436, 304.112 z "/>
<path style="fill:rgb(255, 215, 9);fill-opacity:1.0;fill-rule:evenodd;stroke:rgb(0, 0, 0);stroke-width:3.0;" d="M 137.946, 275.277 L 144.974, 285.38 L 141.734, 296.088 L 131.417, 301.046 L 135.244, 275.149 z "/>
<path style="fill:rgb(255, 215, 9);fill-opacity:1.0;fill-rule:evenodd;stroke:rgb(0, 0, 0);stroke-width:3.0;" d="M 385.99, 7.15878 L 376.557, 15.5584 L 359.696, 6.30149 L 367.279, 5.65689 z "/>
<path style="fill:rgb(255, 215, 9);fill-opacity:1.0;fill-rule:evenodd;stroke:rgb(0, 0, 0);stroke-width:3.0;" d="M 257.376, 166.024 L 268.707, 185.733 L 256.368, 213.054 L 183.884, 225.618 L 163.131, 225.391 L 164.669, 220.306 L 240.195, 165.426 z "/>
<path style="fill:rgb(255, 215, 9);fill-opacity:1.0;fill-rule:evenodd;stroke:rgb(0, 0, 0);stroke-width:3.0;" d="M 706.448, 281.609 L 694.559, 276.326 L 684.433, 252.372 L 685.104, 250.989 L 697.888, 246.977 z "/>
<path style="fill:rgb(255, 215, 9);fill-opacity:1.0;fill-rule:evenodd;stroke:rgb(0, 0, 0);stroke-width:3.0;" d="M 665.965, 271.561 L 613.083, 271.944 L 612.685, 263.678 L 658.742, 262.848 z "/>
<path style="fill:rgb(56, 252, 130);fill-opacity:1.0;fill-rule:evenodd;stroke:rgb(0, 0, 0);stroke-width:3.0;" d="M 413.472, 233.762 L 401.907, 254.548 L 387.121, 239.192 L 406.9, 232.721 z "/>
<path style="fill:rgb(56, 252, 130);fill-opacity:1.0;fill-rule:evenodd;stroke:rgb(0, 0, 0);stroke-width:3.0;" d="M 697.888, 246.977 L 685.104, 250.989 L 694.226, 232.164 z "/>
<path style="fill:rgb(56, 252, 130);fill-opacity:1.0;fill-rule:evenodd;stroke:rgb(0, 0, 0);stroke-width:3.0;" d="M 242.87, 395.393 L 244.383, 400.38 L 185.502, 404.799 L 183.919, 403.776 L 184.015, 402.691 L 197.832, 389.983 z "/>
<path style="fill:rgb(128, 74, 255);fill-opacity:1.0;fill-rule:evenodd;stroke:rgb(0, 0, 0);stroke-width:3.0;" d="M 449.391, 27.058 L 417.521, 41.5156 L 397.647, 40.7917 L 401.679, 32.2464 L 442.118, 14.6481 z "/>
<path style="fill:rgb(128, 74, 255);fill-opacity:1.0;fill-rule:evenodd;stroke:rgb(0, 0, 0);stroke-width:3.0;" d="M 308.829, 226.988 L 283.042, 226.705 L 288.997, 219.554 L 306.406, 219.324 z "/>
<path style="fill:rgb(255, 10, 81);fill-opacity:1.0;fill-rule:evenodd;stroke:rgb(0, 0, 0);stroke-width:3.0;" d="M 565.518, 261.245 L 565.213, 262.27 L 547.641, 269.545 L 547.105, 268.665 L 557.086, 252.977 z "/>
<path style="fill:rgb(212, 78, 18);fill-opacity:1.0;fill-rule:evenodd;stroke:rgb(0, 0, 0);stroke-width:3.0;" d="M 260.327, 141.257 L 236.293, 135.013 L 265.114, 131.411 z "/>
<path style="fill:rgb(212, 78, 18);fill-opacity:1.0;fill-rule:evenodd;stroke:rgb(0, 0, 0);stroke-width:3.0;" d="M 245.988, 363.718 L 130.749, 332.381 L 139.075, 304.871 z "/>
<path style="fill:rgb(212, 78, 18);fill-opacity:1.0;fill-rule:evenodd;stroke:rgb(0, 0, 0);stroke-width:3.0;" d="M 414.159, 268.161 L 412.707, 338.579 L 395.262, 335.152 L 362.892, 257.008 z "/>
<path style="fill:rgb(212, 78, 18);fill-opacity:1.0;fill-rule:evenodd;stroke:rgb(0, 0, 0);stroke-width:3.0;" d="M 207.792, 342.695 L 139.075, 304.871 L 157.123, 245.241 L 166.967, 244.509 z "/>
<path style="fill:rgb(212, 78, 18);fill-opacity:1.0;fill-rule:evenodd;stroke:rgb(0, 0, 0);stroke-width:3.0;" d="M 87.3411, 394.561 L 37.1312, 421.503 L 52.9017, 369.174 L 79.9725, 344.584 z "/>
<path style="fill:rgb(212, 78, 18);fill-opacity:1.0;fill-rule:evenodd;stroke:rgb(0, 0, 0);stroke-width:3.0;" d="M 562.581, 176.649 L 532.544, 192.701 L 536.383, 175.737 z "/>
<path style="fill:rgb(19, 11, 240);fill-opacity:1.0;fill-rule:evenodd;stroke:rgb(0, 0, 0);stroke-width:3.0;" d="M 95.3959, 449.193 L 83.3388, 489.031 L 51.0539, 500.918 L 43.8338, 495.52 L 93.1917, 434.242 z "/>
<path style="fill:rgb(19, 11, 240);fill-opacity:1.0;fill-rule:evenodd;stroke:rgb(0, 0, 0);stroke-width:3.0;" d="M 370.68, 227.666 L 344.378, 227.377 L 348.908, 207.404 z "/>
<path style="fill:rgb(255, 0, 243);fill-opacity:1.0;fill-rule:evenodd;stroke:rgb(0, 0, 0);stroke-width:3.0;" d="M 784.501, 282.801 L 782.848, 308.758 L 777.184, 307.968 L 767.828, 298.412 L 760.422, 287.014 L 777.699, 275.28 z "/>
<path style="fill:rgb(255, 0, 243);fill-opacity:1.0;fill-rule:evenodd;stroke:rgb(0, 0, 0);stroke-width:3.0;" d="M 384.413, 236.38 L 360.036, 249.777 L 341.049, 247.128 L 342.725, 231.434 L 377.183, 228.871 z "/>
<path style="fill:rgb(255, 0, 243);fill-opacity:1.0;fill-rule:evenodd;stroke:rgb(0, 0, 0);stroke-width:3.0;" d="M 669.18, 55.4146 L 686.421, 90.2288 L 680.862, 96.1701 L 673.511, 94.7496 L 664.861, 53.5477 z "/>
<path style="fill:rgb(255, 0, 243);fill-opacity:1.0;fill-rule:evenodd;stroke:rgb(0, 0, 0);stroke-width:3.0;" d="M 236.452, 226.194 L 239.585, 229.644 L 234.961, 239.451 L 224.505, 240.229 L 219.107, 237.437 L 235.222, 226.181 z "/>
<path style="fill:rgb(255, 246, 56);fill-opacity:1.0;fill-rule:evenodd;stroke:rgb(0, 0, 0);stroke-width:3.0;" d="M 336.112, 51.5696 L 313.499, 71.7038 L 214.486, 55.7055 L 223.821, 24.8633 z "/>
<path style="fill:rgb(255, 237, 11);fill-opacity:1.0;fill-rule:evenodd;stroke:rgb(0, 0, 0);stroke-width:3.0;" d="M 704.291, 280.651 L 711.906, 284.035 L 672.118, 293.312 L 656.195, 291.09 L 652.044, 277.988 z "/>
<path style="fill:rgb(255, 237, 11);fill-opacity:1.0;fill-rule:evenodd;stroke:rgb(0, 0, 0);stroke-width:3.0;" d="M 358.226, 78.9307 L 328.921, 88.8534 L 321.415, 83.6536 L 354.404, 78.3132 z "/>
<path style="fill:rgb(255, 11, 168);fill-opacity:1.0;fill-rule:evenodd;stroke:rgb(0, 0, 0);stroke-width:3.0;" d="M 613.083, 271.944 L 573.577, 272.231 L 569.572, 272.035 L 601.963, 263.871 L 612.685, 263.678 z "/>
<path style="fill:rgb(8, 255, 226);fill-opacity:1.0;fill-rule:evenodd;stroke:rgb(0, 0, 0);stroke-width:3.0;" d="M 576.651, 223.928 L 575.137, 229.003 L 571.092, 234.585 L 546.297, 222.72 L 557.921, 215.604 z "/>
<path style="fill:rgb(8, 255, 226);fill-opacity:1.0;fill-rule:evenodd;stroke:rgb(0, 0, 0);stroke-width:3.0;" d="M 569.572, 272.035 L 544.576, 270.814 L 559.498, 264.636 L 601.963, 263.871 z "/>
<path style="fill:rgb(255, 240, 9);fill-opacity:1.0;fill-rule:evenodd;stroke:rgb(0, 0, 0);stroke-width:3.0;" d="M 265.306, 131.387 L 236.293, 135.013 L 235.529, 134.815 L 225.724, 123.796 L 263.662, 110.95 z "/>
<path style="fill:rgb(255, 252, 78);fill-opacity:1.0;fill-rule:evenodd;stroke:rgb(0, 0, 0);stroke-width:3.0;" d="M 251.139, 112.768 L 245.185, 117.207 L 229.537, 122.505 L 216.117, 111.579 L 222.567, 98.6303 z "/>
<path style="fill:rgb(255, 252, 78);fill-opacity:1.0;fill-rule:evenodd;stroke:rgb(0, 0, 0);stroke-width:3.0;" d="M 525.312, 137.318 L 494.983, 119.836 L 504.539, 113.133 z "/>
<path style="fill:rgb(255, 252, 78);fill-opacity:1.0;fill-rule:evenodd;stroke:rgb(0, 0, 0);stroke-width:3.0;" d="M 494.006, 100.87 L 504.539, 113.133 L 494.983, 119.836 L 465.631, 102.917 L 470.03, 96.9957 z "/>
<path style="fill:rgb(255, 252, 78);fill-opacity:1.0;fill-rule:evenodd;stroke:rgb(0, 0, 0);stroke-width:3.0;" d="M 651.891, 143.369 L 638.416, 163.724 L 629.582, 153.075 L 625.301, 135.685 z "/>
<path style="fill:rgb(252, 16, 154);fill-opacity:1.0;fill-rule:evenodd;stroke:rgb(0, 0, 0);stroke-width:3.0;" d="M 524.211, 272.679 L 509.684, 292.292 L 503.864, 293.775 L 482.274, 276.981 L 490.676, 268.001 z "/>
<path style="fill:rgb(252, 16, 154);fill-opacity:1.0;fill-rule:evenodd;stroke:rgb(0, 0, 0);stroke-width:3.0;" d="M 414.382, 257.358 L 414.159, 268.161 L 395.478, 264.097 L 393.731, 254.477 z "/>
<path style="fill:rgb(234, 11, 255);fill-opacity:1.0;fill-rule:evenodd;stroke:rgb(0, 0, 0);stroke-width:3.0;" d="M 97.6227, 348.748 L 97.1091, 398.493 L 89.9538, 394.17 L 95.2215, 346.6 z "/>
<path style="fill:rgb(192, 228, 76);fill-opacity:1.0;fill-rule:evenodd;stroke:rgb(0, 0, 0);stroke-width:3.0;" d="M 634.348, 123.546 L 634.057, 127.365 L 630.977, 134.419 L 614.612, 120.357 z "/>
<path style="fill:rgb(255, 165, 36);fill-opacity:1.0;fill-rule:evenodd;stroke:rgb(0, 0, 0);stroke-width:3.0;" d="M 704.291, 280.651 L 652.044, 277.988 L 650.045, 271.676 L 683.548, 271.433 z "/>
<path style="fill:rgb(223, 0, 21);fill-opacity:1.0;fill-rule:evenodd;stroke:rgb(0, 0, 0);stroke-width:3.0;" d="M 530.222, 175.523 L 507.941, 219.144 L 493.532, 220.216 L 464.893, 173.249 z "/>
<path style="fill:rgb(223, 0, 21);fill-opacity:1.0;fill-rule:evenodd;stroke:rgb(0, 0, 0);stroke-width:3.0;" d="M 441.358, 276.334 L 458.12, 293.629 L 438.343, 290.929 L 439.423, 275.203 z "/>
<path style="fill:rgb(243, 42, 226);fill-opacity:1.0;fill-rule:evenodd;stroke:rgb(0, 0, 0);stroke-width:3.0;" d="M 449.644, 93.7019 L 459.566, 99.4206 L 439.081, 145.408 L 436.996, 143.162 L 431.824, 104.48 L 445.994, 93.112 z "/>
<path style="fill:rgb(243, 42, 226);fill-opacity:1.0;fill-rule:evenodd;stroke:rgb(0, 0, 0);stroke-width:3.0;" d="M 541.194, 258.959 L 542.504, 261.11 L 537.966, 273.551 L 536.075, 274.334 L 475.733, 265.916 L 485.333, 260.04 L 522.979, 250.281 z "/>
<path style="fill:rgb(243, 42, 226);fill-opacity:1.0;fill-rule:evenodd;stroke:rgb(0, 0, 0);stroke-width:3.0;" d="M 770.595, 113.511 L 690.263, 97.9869 L 660.502, 37.8913 L 679.998, 29.4849 z "/>
<path style="fill:rgb(255, 207, 48);fill-opacity:1.0;fill-rule:evenodd;stroke:rgb(0, 0, 0);stroke-width:3.0;" d="M 756.385, 148.161 L 774.426, 160.071 L 766.455, 163.882 L 757.117, 161.904 L 741.103, 150.57 L 750.175, 147.748 z "/>
<path style="fill:rgb(243, 226, 17);fill-opacity:1.0;fill-rule:evenodd;stroke:rgb(0, 0, 0);stroke-width:3.0;" d="M 458.12, 293.629 L 462.485, 298.133 L 455.03, 306.101 L 448.993, 302.604 L 453.163, 292.952 z "/>
<path style="fill:rgb(240, 243, 14);fill-opacity:1.0;fill-rule:evenodd;stroke:rgb(0, 0, 0);stroke-width:3.0;" d="M 320.188, 23.9849 L 225.89, 18.0262 L 225.999, 17.6665 L 320.87, 9.60194 z "/>
<path style="fill:rgb(228, 9, 14);fill-opacity:1.0;fill-rule:evenodd;stroke:rgb(0, 0, 0);stroke-width:3.0;" d="M 619.624, 70.5467 L 610.363, 82.5465 L 576.684, 76.0381 L 576.76, 74.0006 L 613.522, 58.1488 z "/>
<path style="fill:rgb(138, 179, 194);fill-opacity:1.0;fill-rule:evenodd;stroke:rgb(0, 0, 0);stroke-width:3.0;" d="M 66.5094, 253.271 L 68.1832, 264.623 L 27.8654, 222.883 L 26.1938, 211.377 z "/>
<path style="fill:rgb(138, 179, 194);fill-opacity:1.0;fill-rule:evenodd;stroke:rgb(0, 0, 0);stroke-width:3.0;" d="M 619.624, 70.5467 L 613.522, 58.1488 L 637.005, 48.023 z "/>
<path style="fill:rgb(255, 175, 11);fill-opacity:1.0;fill-rule:evenodd;stroke:rgb(0, 0, 0);stroke-width:3.0;" d="M 773.562, 224.313 L 709.552, 282.989 L 706.448, 281.609 L 688.22, 207.866 z "/>
<path style="fill:rgb(255, 175, 11);fill-opacity:1.0;fill-rule:evenodd;stroke:rgb(0, 0, 0);stroke-width:3.0;" d="M 664.344, 51.0859 L 673.387, 94.1587 L 672.765, 93.9625 L 666.528, 76.9643 L 661.646, 50.6919 z "/>
<path style="fill:rgb(255, 175, 11);fill-opacity:1.0;fill-rule:evenodd;stroke:rgb(0, 0, 0);stroke-width:3.0;" d="M 423.013, 225.462 L 417.116, 225.9 L 394.946, 218.72 L 402.856, 208.8 z "/>
<path style="fill:rgb(10, 5, 246);fill-opacity:1.0;fill-rule:evenodd;stroke:rgb(0, 0, 0);stroke-width:3.0;" d="M 541.177, 108.492 L 547.474, 124.114 L 504.322, 112.881 L 494.006, 100.87 z "/>
<path style="fill:rgb(255, 255, 39);fill-opacity:1.0;fill-rule:evenodd;stroke:rgb(0, 0, 0);stroke-width:3.0;" d="M 673.387, 94.1587 L 673.511, 94.7496 L 610.363, 82.5465 L 615.497, 75.8944 z "/>
<path style="fill:rgb(255, 255, 39);fill-opacity:1.0;fill-rule:evenodd;stroke:rgb(0, 0, 0);stroke-width:3.0;" d="M 375.342, 43.7081 L 346.862, 56.1021 L 341.986, 46.3397 L 382.744, 10.0495 z "/>
<path style="fill:rgb(255, 16, 88);fill-opacity:1.0;fill-rule:evenodd;stroke:rgb(0, 0, 0);stroke-width:3.0;" d="M 68.1832, 264.623 L 69.668, 274.694 L 39.9395, 305.995 L 27.8654, 222.883 z "/>
<path style="fill:rgb(255, 5, 7);fill-opacity:1.0;fill-rule:evenodd;stroke:rgb(0, 0, 0);stroke-width:3.0;" d="M 310.851, 148.354 L 308.851, 153.862 L 294.653, 150.174 L 302.203, 131.431 z "/>
<path style="fill:rgb(255, 5, 7);fill-opacity:1.0;fill-rule:evenodd;stroke:rgb(0, 0, 0);stroke-width:3.0;" d="M 383.234, 253.013 L 385.319, 258.536 L 383.947, 261.589 L 362.892, 257.008 L 359.888, 249.756 z "/>
<path style="fill:rgb(22, 5, 255);fill-opacity:1.0;fill-rule:evenodd;stroke:rgb(0, 0, 0);stroke-width:3.0;" d="M 541.458, 150.047 L 536.318, 160.673 L 514.235, 154.764 L 534.16, 146.55 z "/>
<path style="fill:rgb(22, 5, 255);fill-opacity:1.0;fill-rule:evenodd;stroke:rgb(0, 0, 0);stroke-width:3.0;" d="M 534.16, 146.55 L 520.406, 152.22 L 508.128, 143.865 L 513.208, 136.512 z "/>
<path style="fill:rgb(252, 1, 228);fill-opacity:1.0;fill-rule:evenodd;stroke:rgb(0, 0, 0);stroke-width:3.0;" d="M 234.242, 154.581 L 242.951, 165.522 L 181.893, 163.397 L 192.224, 129.262 z "/>
<path style="fill:rgb(255, 199, 8);fill-opacity:1.0;fill-rule:evenodd;stroke:rgb(0, 0, 0);stroke-width:3.0;" d="M 270.846, 226.571 L 257.062, 226.42 L 253.021, 220.465 L 257.791, 209.905 z "/>
<path style="fill:rgb(255, 199, 8);fill-opacity:1.0;fill-rule:evenodd;stroke:rgb(0, 0, 0);stroke-width:3.0;" d="M 314.219, 168.003 L 323.985, 177.543 L 316.822, 186.144 L 305.757, 176.374 L 305.084, 169.79 L 306.507, 167.735 z "/>
<path style="fill:rgb(255, 199, 8);fill-opacity:1.0;fill-rule:evenodd;stroke:rgb(0, 0, 0);stroke-width:3.0;" d="M 615.873, 241.358 L 612.945, 263.673 L 611.635, 263.697 L 608.965, 261.051 L 601.926, 247.069 L 615.798, 241.325 z "/>
<path style="fill:rgb(255, 95, 6);fill-opacity:1.0;fill-rule:evenodd;stroke:rgb(0, 0, 0);stroke-width:3.0;" d="M 180.335, 193.888 L 181.103, 208.365 L 169.088, 217.096 L 166.781, 213.328 L 173.037, 192.657 z "/>
<path style="fill:rgb(255, 59, 136);fill-opacity:1.0;fill-rule:evenodd;stroke:rgb(0, 0, 0);stroke-width:3.0;" d="M 629.544, 258.984 L 613.348, 260.601 L 615.712, 242.584 z "/>
<path style="fill:rgb(249, 249, 57);fill-opacity:1.0;fill-rule:evenodd;stroke:rgb(0, 0, 0);stroke-width:3.0;" d="M 533.123, 230.784 L 539.604, 217.924 L 540.578, 216.716 L 558.252, 215.401 z "/>
<path style="fill:rgb(249, 249, 57);fill-opacity:1.0;fill-rule:evenodd;stroke:rgb(0, 0, 0);stroke-width:3.0;" d="M 331.906, 236.348 L 329.311, 241.084 L 318.704, 244.011 L 317.241, 243.807 L 314.535, 238.126 L 317.945, 233.278 L 331.231, 232.289 z "/>
<path style="fill:rgb(246, 246, 42);fill-opacity:1.0;fill-rule:evenodd;stroke:rgb(0, 0, 0);stroke-width:3.0;" d="M 695.93, 166.741 L 702.175, 169.27 L 706.983, 181.676 L 697.428, 181.344 L 659.362, 160.311 z "/>
<path style="fill:rgb(246, 246, 42);fill-opacity:1.0;fill-rule:evenodd;stroke:rgb(0, 0, 0);stroke-width:3.0;" d="M 759.826, 162.478 L 760.268, 178.054 L 718.565, 170.721 L 740.403, 158.363 z "/>
<path style="fill:rgb(246, 246, 42);fill-opacity:1.0;fill-rule:evenodd;stroke:rgb(0, 0, 0);stroke-width:3.0;" d="M 625.868, 176 L 612.608, 178.391 L 581.179, 177.297 L 580.368, 171.248 L 628.071, 165.921 z "/>
<path style="fill:rgb(234, 36, 42);fill-opacity:1.0;fill-rule:evenodd;stroke:rgb(0, 0, 0);stroke-width:3.0;" d="M 376.557, 15.5584 L 363.984, 26.7524 L 337.826, 25.0995 L 340.178, 12.9792 L 353.728, 6.80876 L 359.696, 6.30149 z "/>
<path style="fill:rgb(234, 36, 42);fill-opacity:1.0;fill-rule:evenodd;stroke:rgb(0, 0, 0);stroke-width:3.0;" d="M 245.988, 363.718 L 304.41, 395.875 L 269.007, 398.532 L 116.281, 380.187 L 130.749, 332.381 z "/>
<path style="fill:rgb(255, 108, 18);fill-opacity:1.0;fill-rule:evenodd;stroke:rgb(0, 0, 0);stroke-width:3.0;" d="M 754.586, 177.055 L 764.923, 183.693 L 728.58, 182.428 L 727.281, 177.682 L 741.056, 174.676 z "/>
<path style="fill:rgb(228, 246, 25);fill-opacity:1.0;fill-rule:evenodd;stroke:rgb(0, 0, 0);stroke-width:3.0;" d="M 43.8338, 495.52 L 38.2798, 491.368 L 60.9337, 463.735 L 70.8475, 461.983 z "/>
<path style="fill:rgb(255, 33, 114);fill-opacity:1.0;fill-rule:evenodd;stroke:rgb(0, 0, 0);stroke-width:3.0;" d="M 596.882, 156.208 L 599.711, 169.088 L 576.589, 171.67 L 564.946, 161.584 L 591.058, 155.787 z "/>
<path style="fill:rgb(255, 33, 114);fill-opacity:1.0;fill-rule:evenodd;stroke:rgb(0, 0, 0);stroke-width:3.0;" d="M 337.826, 25.0995 L 320.188, 23.9849 L 320.87, 9.60194 L 341.168, 7.87643 z "/>
<path style="fill:rgb(255, 189, 7);fill-opacity:1.0;fill-rule:evenodd;stroke:rgb(0, 0, 0);stroke-width:3.0;" d="M 380.746, 82.5694 L 388.579, 91.007 L 351.359, 120.418 L 327.265, 103.152 L 332.953, 87.4881 L 358.226, 78.9307 z "/>
<path style="fill:rgb(255, 189, 7);fill-opacity:1.0;fill-rule:evenodd;stroke:rgb(0, 0, 0);stroke-width:3.0;" d="M 389.88, 206.322 L 394.419, 219.38 L 391.01, 223.655 L 379.098, 214.418 L 382.842, 205.17 z "/>
<path style="fill:rgb(9, 0, 148);fill-opacity:1.0;fill-rule:evenodd;stroke:rgb(0, 0, 0);stroke-width:3.0;" d="M 326.804, 300.722 L 322.21, 289.816 L 335.893, 275.418 z "/>
<path style="fill:rgb(226, 157, 255);fill-opacity:1.0;fill-rule:evenodd;stroke:rgb(0, 0, 0);stroke-width:3.0;" d="M 653.627, 282.985 L 645.903, 289.596 L 635.106, 274.404 L 650.634, 273.536 z "/>
<path style="fill:rgb(226, 157, 255);fill-opacity:1.0;fill-rule:evenodd;stroke:rgb(0, 0, 0);stroke-width:3.0;" d="M 215.78, 92.6107 L 213.096, 97.4307 L 200.061, 103.369 L 208.049, 76.9744 z "/>
<path style="fill:rgb(13, 255, 255);fill-opacity:1.0;fill-rule:evenodd;stroke:rgb(0, 0, 0);stroke-width:3.0;" d="M 406.9, 232.721 L 387.121, 239.192 L 377.183, 228.871 L 380.861, 228.597 z "/>
<path style="fill:rgb(255, 252, 78);fill-opacity:1.0;fill-rule:evenodd;stroke:rgb(0, 0, 0);stroke-width:3.0;" d="M 92.3116, 345.54 L 83.9076, 371.273 L 80.9247, 351.042 L 89.6542, 342.183 z "/>
<path style="fill:rgb(108, 246, 249);fill-opacity:1.0;fill-rule:evenodd;stroke:rgb(0, 0, 0);stroke-width:3.0;" d="M 307.815, 191.623 L 296.767, 197.465 L 292.487, 191.269 L 292.596, 187.82 L 299.406, 177.988 z "/>
<path style="fill:rgb(255, 1, 10);fill-opacity:1.0;fill-rule:evenodd;stroke:rgb(0, 0, 0);stroke-width:3.0;" d="M 240.729, 18.9639 L 243.66, 28.3756 L 239.851, 28.6757 L 223.821, 24.8633 L 225.89, 18.0262 z "/>
<path style="fill:rgb(255, 1, 10);fill-opacity:1.0;fill-rule:evenodd;stroke:rgb(0, 0, 0);stroke-width:3.0;" d="M 650.634, 273.536 L 564.762, 278.336 L 554.363, 276.885 L 555.994, 272.359 L 650.045, 271.676 z "/>
<path style="fill:rgb(255, 252, 17);fill-opacity:1.0;fill-rule:evenodd;stroke:rgb(0, 0, 0);stroke-width:3.0;" d="M 661.098, 291.774 L 661.082, 291.813 L 623.475, 296.799 L 624.519, 286.672 z "/>
<path style="fill:rgb(72, 5, 240);fill-opacity:1.0;fill-rule:evenodd;stroke:rgb(0, 0, 0);stroke-width:3.0;" d="M 499.243, 233.085 L 492.775, 235.691 L 480.126, 234.13 L 490.825, 225.704 L 502.485, 224.636 z "/>
<path style="fill:rgb(72, 5, 240);fill-opacity:1.0;fill-rule:evenodd;stroke:rgb(0, 0, 0);stroke-width:3.0;" d="M 103.377, 384.5 L 107.827, 400.125 L 104.253, 402.809 L 97.1091, 398.493 L 97.2857, 381.383 z "/>
<path style="fill:rgb(72, 5, 240);fill-opacity:1.0;fill-rule:evenodd;stroke:rgb(0, 0, 0);stroke-width:3.0;" d="M 273.27, 378.735 L 249.922, 365.884 L 277.87, 336.474 z "/>
<path style="fill:rgb(243, 194, 74);fill-opacity:1.0;fill-rule:evenodd;stroke:rgb(0, 0, 0);stroke-width:3.0;" d="M 501.666, 303.118 L 456.949, 363.491 L 492.119, 296.766 L 502.07, 294.232 z "/>
<path style="fill:rgb(255, 215, 49);fill-opacity:1.0;fill-rule:evenodd;stroke:rgb(0, 0, 0);stroke-width:3.0;" d="M 456.949, 363.491 L 440.53, 385.659 L 428.784, 386.54 L 408.3, 366.626 L 405.263, 359.295 L 454.893, 306.248 L 492.119, 296.766 z "/>
<path style="fill:rgb(255, 0, 8);fill-opacity:1.0;fill-rule:evenodd;stroke:rgb(0, 0, 0);stroke-width:3.0;" d="M 694.559, 276.326 L 676.676, 268.379 L 684.433, 252.372 z "/>
<path style="fill:rgb(255, 0, 8);fill-opacity:1.0;fill-rule:evenodd;stroke:rgb(0, 0, 0);stroke-width:3.0;" d="M 659.362, 160.311 L 678.949, 171.134 L 669.274, 175.71 L 653.627, 172.73 L 649.376, 169.526 L 650.027, 158.67 z "/>
<path style="fill:rgb(243, 32, 92);fill-opacity:1.0;fill-rule:evenodd;stroke:rgb(0, 0, 0);stroke-width:3.0;" d="M 662.362, 41.6468 L 664.344, 51.0859 L 638.615, 47.3288 L 660.502, 37.8913 z "/>
<path style="fill:rgb(47, 243, 231);fill-opacity:1.0;fill-rule:evenodd;stroke:rgb(0, 0, 0);stroke-width:3.0;" d="M 92.7782, 431.438 L 75.6565, 452.435 L 75.0215, 446.551 L 91.9601, 425.889 z "/>
<path style="fill:rgb(212, 1, 14);fill-opacity:1.0;fill-rule:evenodd;stroke:rgb(0, 0, 0);stroke-width:3.0;" d="M 473.535, 293.501 L 470.238, 302.339 L 454.893, 306.248 L 468.953, 291.219 z "/>
<path style="fill:rgb(212, 1, 14);fill-opacity:1.0;fill-rule:evenodd;stroke:rgb(0, 0, 0);stroke-width:3.0;" d="M 346.862, 56.1021 L 330.397, 63.2672 L 332.806, 54.5133 L 341.986, 46.3397 z "/>
<path style="fill:rgb(212, 1, 14);fill-opacity:1.0;fill-rule:evenodd;stroke:rgb(0, 0, 0);stroke-width:3.0;" d="M 438.396, 91.8844 L 429.78, 106.12 L 414.207, 118.614 L 380.746, 82.5694 z "/>
<path style="fill:rgb(243, 252, 41);fill-opacity:1.0;fill-rule:evenodd;stroke:rgb(0, 0, 0);stroke-width:3.0;" d="M 326.46, 73.798 L 333.235, 81.7402 L 281.535, 90.1095 L 307.522, 70.738 z "/>
<path style="fill:rgb(243, 252, 41);fill-opacity:1.0;fill-rule:evenodd;stroke:rgb(0, 0, 0);stroke-width:3.0;" d="M 307.522, 70.738 L 251.139, 112.768 L 222.567, 98.6303 L 234.66, 74.3518 L 288.565, 67.675 z "/>
<path style="fill:rgb(255, 2, 46);fill-opacity:1.0;fill-rule:evenodd;stroke:rgb(0, 0, 0);stroke-width:3.0;" d="M 436.996, 143.162 L 422.799, 127.869 L 433.391, 116.201 z "/>
<path style="fill:rgb(100, 197, 223);fill-opacity:1.0;fill-rule:evenodd;stroke:rgb(0, 0, 0);stroke-width:3.0;" d="M 458.744, 43.0172 L 417.521, 41.5156 L 449.391, 27.058 z "/>
<path style="fill:rgb(234, 79, 207);fill-opacity:1.0;fill-rule:evenodd;stroke:rgb(0, 0, 0);stroke-width:3.0;" d="M 179.227, 172.208 L 161.817, 145.088 L 162.685, 128.112 L 192.984, 126.752 z "/>
<path style="fill:rgb(255, 223, 194);fill-opacity:1.0;fill-rule:evenodd;stroke:rgb(0, 0, 0);stroke-width:3.0;" d="M 522.979, 250.281 L 485.333, 260.04 L 499.435, 251.407 L 519.711, 248.725 z "/>
<path style="fill:rgb(255, 223, 194);fill-opacity:1.0;fill-rule:evenodd;stroke:rgb(0, 0, 0);stroke-width:3.0;" d="M 656.618, 49.9576 L 672.765, 93.9625 L 627.438, 79.6618 L 626.071, 62.1923 L 637.005, 48.023 L 638.615, 47.3288 z "/>
<path style="fill:rgb(255, 26, 119);fill-opacity:1.0;fill-rule:evenodd;stroke:rgb(0, 0, 0);stroke-width:3.0;" d="M 567.458, 239.599 L 565.041, 242.934 L 530.62, 232.317 L 545.473, 223.224 z "/>
<path style="fill:rgb(255, 161, 21);fill-opacity:1.0;fill-rule:evenodd;stroke:rgb(0, 0, 0);stroke-width:3.0;" d="M 74.4481, 518.407 L 65.2695, 511.545 L 69.4625, 494.14 L 83.3388, 489.031 z "/>
<path style="fill:rgb(255, 184, 100);fill-opacity:1.0;fill-rule:evenodd;stroke:rgb(0, 0, 0);stroke-width:3.0;" d="M 65.2695, 511.545 L 51.0539, 500.918 L 69.4625, 494.14 z "/>
<path style="fill:rgb(255, 255, 10);fill-opacity:1.0;fill-rule:evenodd;stroke:rgb(0, 0, 0);stroke-width:3.0;" d="M 561.87, 159.827 L 565.342, 168.439 L 537.893, 161.094 L 542.428, 150.512 z "/>
<path style="fill:rgb(255, 255, 10);fill-opacity:1.0;fill-rule:evenodd;stroke:rgb(0, 0, 0);stroke-width:3.0;" d="M 645.949, 289.661 L 564.762, 278.336 L 635.106, 274.404 z "/>
<path style="fill:rgb(255, 59, 23);fill-opacity:1.0;fill-rule:evenodd;stroke:rgb(0, 0, 0);stroke-width:3.0;" d="M 302.203, 131.431 L 294.653, 150.174 L 287.742, 148.378 L 299.271, 125.694 z "/>
<path style="fill:rgb(255, 59, 23);fill-opacity:1.0;fill-rule:evenodd;stroke:rgb(0, 0, 0);stroke-width:3.0;" d="M 273.058, 103.061 L 271.817, 97.3537 L 278.939, 92.045 L 297.876, 91.1836 z "/>
<path style="fill:rgb(255, 59, 23);fill-opacity:1.0;fill-rule:evenodd;stroke:rgb(0, 0, 0);stroke-width:3.0;" d="M 608.267, 178.24 L 557.165, 185.069 L 571.794, 176.97 z "/>
<path style="fill:rgb(246, 255, 25);fill-opacity:1.0;fill-rule:evenodd;stroke:rgb(0, 0, 0);stroke-width:3.0;" d="M 612.615, 285.011 L 617.6, 297.578 L 608.042, 298.845 L 604.971, 291 L 611.966, 284.921 z "/>
<path style="fill:rgb(184, 67, 234);fill-opacity:1.0;fill-rule:evenodd;stroke:rgb(0, 0, 0);stroke-width:3.0;" d="M 107.991, 296.376 L 103.518, 302.93 L 71.8356, 289.395 L 67.6913, 261.287 L 73.5375, 260.574 z "/>
<path style="fill:rgb(117, 240, 38);fill-opacity:1.0;fill-rule:evenodd;stroke:rgb(0, 0, 0);stroke-width:3.0;" d="M 686.226, 248.673 L 676.676, 268.379 L 632.411, 248.708 L 659.593, 232.218 z "/>
<path style="fill:rgb(117, 240, 38);fill-opacity:1.0;fill-rule:evenodd;stroke:rgb(0, 0, 0);stroke-width:3.0;" d="M 127.478, 326.049 L 119.365, 333.161 L 115.467, 333.103 L 115.792, 316.271 L 117.843, 315.868 z "/>
<path style="fill:rgb(117, 240, 38);fill-opacity:1.0;fill-rule:evenodd;stroke:rgb(0, 0, 0);stroke-width:3.0;" d="M 203.745, 126.558 L 224.602, 142.469 L 234.242, 154.581 L 192.224, 129.262 L 193.823, 123.981 z "/>
<path style="fill:rgb(228, 14, 14);fill-opacity:1.0;fill-rule:evenodd;stroke:rgb(0, 0, 0);stroke-width:3.0;" d="M 115.467, 333.103 L 105.841, 332.961 L 98.1931, 319.765 L 98.1972, 319.728 L 115.792, 316.271 z "/>
<path style="fill:rgb(209, 140, 9);fill-opacity:1.0;fill-rule:evenodd;stroke:rgb(0, 0, 0);stroke-width:3.0;" d="M 289.736, 120.72 L 289.902, 121.56 L 276.953, 135.292 L 271.308, 129.729 L 271.717, 125.802 L 275.964, 116.479 L 277.724, 116.021 z "/>
<path style="fill:rgb(243, 215, 8);fill-opacity:1.0;fill-rule:evenodd;stroke:rgb(0, 0, 0);stroke-width:3.0;" d="M 509.681, 90.9194 L 498.183, 87.5436 L 530.882, 65.1485 z "/>
<path style="fill:rgb(13, 215, 252);fill-opacity:1.0;fill-rule:evenodd;stroke:rgb(0, 0, 0);stroke-width:3.0;" d="M 317.011, 131.39 L 310.851, 148.354 L 307.308, 141.421 L 309.865, 128.595 z "/>
<path style="fill:rgb(237, 56, 10);fill-opacity:1.0;fill-rule:evenodd;stroke:rgb(0, 0, 0);stroke-width:3.0;" d="M 403.096, 255.784 L 360.036, 249.777 L 384.413, 236.38 z "/>
<path style="fill:rgb(105, 249, 255);fill-opacity:1.0;fill-rule:evenodd;stroke:rgb(0, 0, 0);stroke-width:3.0;" d="M 544.305, 48.0991 L 540.293, 58.7033 L 537.327, 60.734 L 522.623, 18.4301 z "/>
<path style="fill:rgb(105, 249, 255);fill-opacity:1.0;fill-rule:evenodd;stroke:rgb(0, 0, 0);stroke-width:3.0;" d="M 403.909, 107.521 L 339.384, 143.279 L 394.933, 97.8513 z "/>
<path style="fill:rgb(255, 91, 7);fill-opacity:1.0;fill-rule:evenodd;stroke:rgb(0, 0, 0);stroke-width:3.0;" d="M 226.903, 74.7387 L 233.39, 76.902 L 232.176, 79.3395 L 215.404, 82.2368 L 213.521, 74.2422 z "/>
<path style="fill:rgb(65, 12, 255);fill-opacity:1.0;fill-rule:evenodd;stroke:rgb(0, 0, 0);stroke-width:3.0;" d="M 103.518, 302.93 L 99.9633, 308.137 L 76.5308, 321.24 L 71.8356, 289.395 z "/>
<path style="fill:rgb(252, 246, 8);fill-opacity:1.0;fill-rule:evenodd;stroke:rgb(0, 0, 0);stroke-width:3.0;" d="M 320.213, 109.221 L 311.528, 129.245 L 273.171, 114.239 L 285.836, 103.442 L 316.607, 93.0231 z "/>
<path style="fill:rgb(255, 28, 17);fill-opacity:1.0;fill-rule:evenodd;stroke:rgb(0, 0, 0);stroke-width:3.0;" d="M 551.94, 238.893 L 535.476, 249.569 L 530.178, 240.871 L 533.104, 233.083 z "/>
<path style="fill:rgb(197, 5, 168);fill-opacity:1.0;fill-rule:evenodd;stroke:rgb(0, 0, 0);stroke-width:3.0;" d="M 119.795, 368.576 L 113.612, 389.005 L 105.07, 390.446 L 97.4678, 363.757 L 97.563, 354.537 L 101.216, 351.961 z "/>
<path style="fill:rgb(240, 50, 39);fill-opacity:1.0;fill-rule:evenodd;stroke:rgb(0, 0, 0);stroke-width:3.0;" d="M 317.435, 90.2939 L 283.851, 91.8216 L 306.279, 86.1039 L 314.78, 84.7278 z "/>
<path style="fill:rgb(22, 6, 204);fill-opacity:1.0;fill-rule:evenodd;stroke:rgb(0, 0, 0);stroke-width:3.0;" d="M 199.171, 168.725 L 192.046, 184.329 L 187.772, 181.301 L 182.148, 171.222 L 186.301, 168.542 z "/>
<path style="fill:rgb(255, 212, 7);fill-opacity:1.0;fill-rule:evenodd;stroke:rgb(0, 0, 0);stroke-width:3.0;" d="M 622.524, 148.942 L 624.382, 162.772 L 597.228, 157.783 L 589.307, 121.718 z "/>
<path style="fill:rgb(58, 28, 255);fill-opacity:1.0;fill-rule:evenodd;stroke:rgb(0, 0, 0);stroke-width:3.0;" d="M 250.365, 226.347 L 183.884, 225.618 L 256.368, 213.054 z "/>
<path style="fill:rgb(217, 249, 10);fill-opacity:1.0;fill-rule:evenodd;stroke:rgb(0, 0, 0);stroke-width:3.0;" d="M 276.407, 115.505 L 269.951, 129.678 L 264.561, 122.121 L 263.662, 110.95 L 264.252, 110.75 z "/>
<path style="fill:rgb(217, 249, 10);fill-opacity:1.0;fill-rule:evenodd;stroke:rgb(0, 0, 0);stroke-width:3.0;" d="M 449.333, 307.942 L 444.79, 316.401 L 441.895, 320.141 L 441.004, 321.093 L 436.658, 315.476 L 436.971, 310.927 L 449.133, 304.209 z "/>
<path style="fill:rgb(189, 35, 117);fill-opacity:1.0;fill-rule:evenodd;stroke:rgb(0, 0, 0);stroke-width:3.0;" d="M 540.018, 89.697 L 533.806, 107.301 L 531.041, 106.854 L 524.695, 91.7242 L 536.745, 82.4169 z "/>
<path style="fill:rgb(142, 82, 255);fill-opacity:1.0;fill-rule:evenodd;stroke:rgb(0, 0, 0);stroke-width:3.0;" d="M 588.066, 116.068 L 596.882, 156.208 L 581.031, 155.062 L 544.814, 109.079 z "/>
<path style="fill:rgb(228, 1, 10);fill-opacity:1.0;fill-rule:evenodd;stroke:rgb(0, 0, 0);stroke-width:3.0;" d="M 94.1927, 339.78 L 92.3116, 345.54 L 82.7469, 333.455 L 84.37, 322.446 L 92.15, 320.917 z "/>
<path style="fill:rgb(255, 237, 31);fill-opacity:1.0;fill-rule:evenodd;stroke:rgb(0, 0, 0);stroke-width:3.0;" d="M 694.226, 232.164 L 686.226, 248.673 L 659.593, 232.218 L 689.722, 213.941 z "/>
<path style="fill:rgb(255, 57, 19);fill-opacity:1.0;fill-rule:evenodd;stroke:rgb(0, 0, 0);stroke-width:3.0;" d="M 621.823, 143.722 L 622.524, 148.942 L 603.287, 133.175 L 609.429, 128.781 z "/>
<path style="fill:rgb(255, 27, 92);fill-opacity:1.0;fill-rule:evenodd;stroke:rgb(0, 0, 0);stroke-width:3.0;" d="M 145.799, 282.656 L 140.856, 279.46 L 130.023, 263.887 L 154.23, 254.798 z "/>
<path style="fill:rgb(60, 157, 255);fill-opacity:1.0;fill-rule:evenodd;stroke:rgb(0, 0, 0);stroke-width:3.0;" d="M 577.254, 60.7601 L 554.634, 67.5675 L 577.702, 48.7552 z "/>
<path style="fill:rgb(255, 240, 46);fill-opacity:1.0;fill-rule:evenodd;stroke:rgb(0, 0, 0);stroke-width:3.0;" d="M 305.113, 96.9148 L 245.185, 117.207 L 248.206, 114.954 L 297.876, 91.1836 L 305.069, 90.8564 z "/>
<path style="fill:rgb(223, 22, 255);fill-opacity:1.0;fill-rule:evenodd;stroke:rgb(0, 0, 0);stroke-width:3.0;" d="M 469.257, 242.597 L 458.093, 263.456 L 454.661, 262.977 L 444.107, 239.259 L 444.559, 238.685 z "/>
<path style="fill:rgb(223, 22, 255);fill-opacity:1.0;fill-rule:evenodd;stroke:rgb(0, 0, 0);stroke-width:3.0;" d="M 412.437, 351.627 L 407.801, 356.582 L 403.241, 354.412 L 398.435, 342.812 L 412.661, 340.785 z "/>
<path style="fill:rgb(148, 170, 255);fill-opacity:1.0;fill-rule:evenodd;stroke:rgb(0, 0, 0);stroke-width:3.0;" d="M 769.867, 300.547 L 772.589, 304.781 L 770.875, 307.088 L 760.535, 305.646 L 755.943, 303.605 L 763.013, 295.879 z "/>
<path style="fill:rgb(255, 28, 202);fill-opacity:1.0;fill-rule:evenodd;stroke:rgb(0, 0, 0);stroke-width:3.0;" d="M 595.401, 249.77 L 580.117, 256.099 L 574.381, 253.732 L 585.977, 244.763 z "/>
<path style="fill:rgb(255, 9, 7);fill-opacity:1.0;fill-rule:evenodd;stroke:rgb(0, 0, 0);stroke-width:3.0;" d="M 548.456, 37.1271 L 544.305, 48.0991 L 522.899, 18.8074 z "/>
</svg>