<?xml version="1.0" encoding="iso-8859-1" standalone="no"?>
<!DOCTYPE svg PUBLIC "-//W3C//DTD SVG 1.0//EN" "http://www.w3.org/TR/2001/REC-SVG-20010904/DTD/svg10.dtd">
<svg xmlns="http://www.w3.org/2000/svg" width="800" height="600">
<path style="fill:rgb(0, 0, 0);fill-opacity:0.0;fill-rule:evenodd;stroke:rgb(0, 0, 0);stroke-width:0.0;" d="M 0, 600 L 800, 600 L 800, 0 L 0, 0 z "/>
<path style="fill:rgb(16, 16, 249);fill-opacity:1.0;fill-rule:evenodd;stroke:rgb(0, 0, 0);stroke-width:3.0;" d="M 586.555, 13.9713 L 589.927, 19.4008 L 579.237, 30.8898 L 568.402, 13.8276 z "/>
<path style="fill:rgb(16, 16, 249);fill-opacity:1.0;fill-rule:evenodd;stroke:rgb(0, 0, 0);stroke-width:3.0;" d="M 652.244, 118.228 L 629.291, 143.631 L 641.033, 105.221 z "/>
<path style="fill:rgb(234, 102, 246);fill-opacity:1.0;fill-rule:evenodd;stroke:rgb(0, 0, 0);stroke-width:3.0;" d="M 468.525, 138.213 L 463.905, 141.285 L 455.071, 142.289 L 444.299, 138.063 L 449.98, 134.09 z "/>
<path style="fill:rgb(234, 102, 246);fill-opacity:1.0;fill-rule:evenodd;stroke:rgb(0, 0, 0);stroke-width:3.0;" d="M 771.233, 462.778 L 763.049, 490.684 L 743.821, 433.035 z "/>
<path style="fill:rgb(234, 102, 246);fill-opacity:1.0;fill-rule:evenodd;stroke:rgb(0, 0, 0);stroke-width:3.0;" d="M 489.087, 31.3624 L 480.587, 25.8004 L 474.17, 14.4703 L 490.137, 10.1101 z "/>
<path style="fill:rgb(234, 102, 246);fill-opacity:1.0;fill-rule:evenodd;stroke:rgb(0, 0, 0);stroke-width:3.0;" d="M 754.553, 465.211 L 737.54, 457.95 L 727.511, 384.137 z "/>
<path style="fill:rgb(234, 102, 246);fill-opacity:1.0;fill-rule:evenodd;stroke:rgb(0, 0, 0);stroke-width:3.0;" d="M 555.562, 300.725 L 559.659, 322.902 L 537.346, 299.285 L 544.081, 294.088 z "/>
<path style="fill:rgb(234, 102, 246);fill-opacity:1.0;fill-rule:evenodd;stroke:rgb(0, 0, 0);stroke-width:3.0;" d="M 570.358, 16.9087 L 572.842, 37.7619 L 568.193, 42.7586 L 566.29, 10.5023 z "/>
<path style="fill:rgb(234, 102, 246);fill-opacity:1.0;fill-rule:evenodd;stroke:rgb(0, 0, 0);stroke-width:3.0;" d="M 583.299, 105.906 L 605.266, 132.85 L 597.402, 130.287 L 580.422, 106.724 L 580.94, 104.526 z "/>
<path style="fill:rgb(234, 102, 246);fill-opacity:1.0;fill-rule:evenodd;stroke:rgb(0, 0, 0);stroke-width:3.0;" d="M 606.842, 53.6668 L 604.396, 66.901 L 598.052, 62.4446 L 595.811, 55.1253 L 596.52, 51.8467 z "/>
<path style="fill:rgb(234, 102, 246);fill-opacity:1.0;fill-rule:evenodd;stroke:rgb(0, 0, 0);stroke-width:3.0;" d="M 734.497, 105.938 L 738.159, 111.665 L 706.847, 105.852 L 710.083, 82.7996 z "/>
<path style="fill:rgb(234, 102, 246);fill-opacity:1.0;fill-rule:evenodd;stroke:rgb(0, 0, 0);stroke-width:3.0;" d="M 336.911, 178.35 L 256.031, 380.97 L 177.6, 11.5333 z "/>
<path style="fill:rgb(234, 102, 246);fill-opacity:1.0;fill-rule:evenodd;stroke:rgb(0, 0, 0);stroke-width:3.0;" d="M 661.406, 226.077 L 639.191, 209.788 L 644.118, 202.722 z "/>
<path style="fill:rgb(234, 102, 246);fill-opacity:1.0;fill-rule:evenodd;stroke:rgb(0, 0, 0);stroke-width:3.0;" d="M 564.749, 185.314 L 514.228, 274.814 L 408.618, 163.024 L 444.299, 138.063 z "/>
<path style="fill:rgb(255, 246, 50);fill-opacity:1.0;fill-rule:evenodd;stroke:rgb(0, 0, 0);stroke-width:3.0;" d="M 543.484, 77.3068 L 523.538, 50.1652 L 522.548, 47.6783 L 515.8, 21.099 z "/>
<path style="fill:rgb(255, 246, 50);fill-opacity:1.0;fill-rule:evenodd;stroke:rgb(0, 0, 0);stroke-width:3.0;" d="M 697.882, 50.8276 L 692.683, 63.6412 L 687.84, 64.8732 L 696.587, 36.5158 z "/>
<path style="fill:rgb(7, 212, 255);fill-opacity:1.0;fill-rule:evenodd;stroke:rgb(0, 0, 0);stroke-width:3.0;" d="M 600.776, 290.958 L 600.575, 292.168 L 580.248, 316.437 L 593.036, 290.074 z "/>
<path style="fill:rgb(7, 212, 255);fill-opacity:1.0;fill-rule:evenodd;stroke:rgb(0, 0, 0);stroke-width:3.0;" d="M 583.167, 82.4145 L 584.442, 84.5854 L 582.333, 104.721 L 569.567, 89.0627 L 569.927, 75.8665 z "/>
<path style="fill:rgb(7, 212, 255);fill-opacity:1.0;fill-rule:evenodd;stroke:rgb(0, 0, 0);stroke-width:3.0;" d="M 749.172, 10.9536 L 722.647, 40.3097 L 712.271, 39.467 L 746.14, 10.8585 z "/>
<path style="fill:rgb(7, 212, 255);fill-opacity:1.0;fill-rule:evenodd;stroke:rgb(0, 0, 0);stroke-width:3.0;" d="M 732.259, 35.3225 L 676.562, 94.7554 L 670.288, 98.2586 L 728.58, 33.7443 z "/>
<path style="fill:rgb(255, 255, 13);fill-opacity:1.0;fill-rule:evenodd;stroke:rgb(0, 0, 0);stroke-width:3.0;" d="M 554.405, 45.2291 L 549.324, 49.8512 L 524.839, 12.4562 L 525.843, 11.1354 z "/>
<path style="fill:rgb(255, 255, 13);fill-opacity:1.0;fill-rule:evenodd;stroke:rgb(0, 0, 0);stroke-width:3.0;" d="M 594.727, 327.342 L 592.648, 339.843 L 568.774, 332.551 L 567.702, 331.416 L 584.005, 311.951 z "/>
<path style="fill:rgb(228, 78, 237);fill-opacity:1.0;fill-rule:evenodd;stroke:rgb(0, 0, 0);stroke-width:3.0;" d="M 614.579, 135.886 L 605.266, 132.85 L 582.333, 104.721 L 584.442, 84.5854 z "/>
<path style="fill:rgb(228, 78, 237);fill-opacity:1.0;fill-rule:evenodd;stroke:rgb(0, 0, 0);stroke-width:3.0;" d="M 739.664, 473.58 L 745.99, 520.137 L 729.962, 503.172 L 721.603, 466.85 z "/>
<path style="fill:rgb(255, 40, 15);fill-opacity:1.0;fill-rule:evenodd;stroke:rgb(0, 0, 0);stroke-width:3.0;" d="M 623.49, 102.358 L 619.208, 100.24 L 619.436, 97.2568 L 651.842, 6.79171 L 671.185, 5.49363 z "/>
<path style="fill:rgb(255, 255, 56);fill-opacity:1.0;fill-rule:evenodd;stroke:rgb(0, 0, 0);stroke-width:3.0;" d="M 683.583, 252.438 L 707.686, 324.701 L 701.347, 339.47 L 671.711, 250.061 L 669.292, 239.546 z "/>
<path style="fill:rgb(255, 255, 56);fill-opacity:1.0;fill-rule:evenodd;stroke:rgb(0, 0, 0);stroke-width:3.0;" d="M 778.069, 256.185 L 789.503, 285.041 L 777.179, 274.842 L 765.248, 243.537 z "/>
<path style="fill:rgb(255, 255, 56);fill-opacity:1.0;fill-rule:evenodd;stroke:rgb(0, 0, 0);stroke-width:3.0;" d="M 584.725, 287.898 L 568.172, 317.605 L 548.604, 290.599 L 554.873, 285.763 z "/>
<path style="fill:rgb(255, 255, 56);fill-opacity:1.0;fill-rule:evenodd;stroke:rgb(0, 0, 0);stroke-width:3.0;" d="M 655.687, 99.1449 L 656.383, 99.9039 L 660.178, 109.447 L 652.244, 118.228 L 647.165, 112.335 L 646.968, 98.141 z "/>
<path style="fill:rgb(255, 255, 56);fill-opacity:1.0;fill-rule:evenodd;stroke:rgb(0, 0, 0);stroke-width:3.0;" d="M 710.083, 82.7996 L 708.391, 94.8519 L 692.107, 103.115 L 676.009, 100.127 L 677.022, 94.4983 L 705.593, 78.5448 z "/>
<path style="fill:rgb(255, 255, 56);fill-opacity:1.0;fill-rule:evenodd;stroke:rgb(0, 0, 0);stroke-width:3.0;" d="M 583.371, 8.84353 L 586.555, 13.9713 L 568.402, 13.8276 L 562.972, 5.27657 L 563.425, 5.02747 z "/>
<path style="fill:rgb(255, 255, 56);fill-opacity:1.0;fill-rule:evenodd;stroke:rgb(0, 0, 0);stroke-width:3.0;" d="M 661.406, 226.077 L 669.921, 237.58 L 663.333, 234.17 L 638.077, 211.386 L 639.191, 209.788 z "/>
<path style="fill:rgb(255, 255, 56);fill-opacity:1.0;fill-rule:evenodd;stroke:rgb(0, 0, 0);stroke-width:3.0;" d="M 711.869, 372.724 L 711.462, 422.785 L 686.334, 313.6 z "/>
<path style="fill:rgb(15, 240, 243);fill-opacity:1.0;fill-rule:evenodd;stroke:rgb(0, 0, 0);stroke-width:3.0;" d="M 542.051, 225.525 L 548.076, 214.851 L 579.812, 198.301 L 616.833, 193.212 z "/>
<path style="fill:rgb(115, 255, 15);fill-opacity:1.0;fill-rule:evenodd;stroke:rgb(0, 0, 0);stroke-width:3.0;" d="M 749.048, 520.765 L 748.207, 522.484 L 745.99, 520.137 L 745.366, 515.547 L 748.475, 496.4 L 752.661, 495.993 z "/>
<path style="fill:rgb(115, 255, 15);fill-opacity:1.0;fill-rule:evenodd;stroke:rgb(0, 0, 0);stroke-width:3.0;" d="M 711.44, 422.688 L 718.582, 453.722 L 616.098, 299.203 L 611.724, 276.435 L 615.28, 270.705 z "/>
<path style="fill:rgb(255, 243, 13);fill-opacity:1.0;fill-rule:evenodd;stroke:rgb(0, 0, 0);stroke-width:3.0;" d="M 604.677, 267.497 L 603.19, 276.443 L 587.304, 283.271 L 596.847, 266.144 z "/>
<path style="fill:rgb(255, 243, 13);fill-opacity:1.0;fill-rule:evenodd;stroke:rgb(0, 0, 0);stroke-width:3.0;" d="M 619.149, 100.211 L 620.889, 137.943 L 614.579, 135.886 L 583.167, 82.4145 z "/>
<path style="fill:rgb(255, 243, 13);fill-opacity:1.0;fill-rule:evenodd;stroke:rgb(0, 0, 0);stroke-width:3.0;" d="M 564.534, 51.0609 L 553.394, 54.4163 L 552.277, 54.3604 L 549.324, 49.8512 L 558.275, 41.7082 L 563.473, 41.6156 z "/>
<path style="fill:rgb(255, 243, 13);fill-opacity:1.0;fill-rule:evenodd;stroke:rgb(0, 0, 0);stroke-width:3.0;" d="M 770.947, 81.4946 L 757.517, 78.9321 L 769.02, 68.1526 L 788.989, 61.8283 z "/>
<path style="fill:rgb(255, 243, 13);fill-opacity:1.0;fill-rule:evenodd;stroke:rgb(0, 0, 0);stroke-width:3.0;" d="M 576.145, 130.803 L 560.642, 141.532 L 559.516, 140.515 L 554.391, 127.645 L 573.857, 126.244 z "/>
<path style="fill:rgb(154, 255, 192);fill-opacity:1.0;fill-rule:evenodd;stroke:rgb(0, 0, 0);stroke-width:3.0;" d="M 504.471, 27.4773 L 490.047, 11.9291 L 490.137, 10.1101 L 505.646, 5.87492 z "/>
<path style="fill:rgb(154, 255, 192);fill-opacity:1.0;fill-rule:evenodd;stroke:rgb(0, 0, 0);stroke-width:3.0;" d="M 566.931, 155.542 L 566.41, 156.869 L 530.172, 171.75 L 520.781, 168.066 L 515.576, 159.939 L 550.251, 132.307 z "/>
<path style="fill:rgb(243, 3, 95);fill-opacity:1.0;fill-rule:evenodd;stroke:rgb(0, 0, 0);stroke-width:3.0;" d="M 539.043, 109.896 L 558.951, 140.006 L 432.429, 25.8687 L 457.691, 18.9703 z "/>
<path style="fill:rgb(243, 3, 95);fill-opacity:1.0;fill-rule:evenodd;stroke:rgb(0, 0, 0);stroke-width:3.0;" d="M 624.613, 381.503 L 625.211, 385.451 L 617.283, 383.898 L 606.364, 372.34 L 616.996, 369.51 z "/>
<path style="fill:rgb(243, 3, 95);fill-opacity:1.0;fill-rule:evenodd;stroke:rgb(0, 0, 0);stroke-width:3.0;" d="M 540.025, 35.6479 L 528.392, 35.6484 L 520.652, 20.2246 L 529.032, 18.859 z "/>
<path style="fill:rgb(255, 0, 255);fill-opacity:1.0;fill-rule:evenodd;stroke:rgb(0, 0, 0);stroke-width:3.0;" d="M 794.704, 122.163 L 782.835, 137.855 L 775.026, 124.684 L 782.561, 119.909 z "/>
<path style="fill:rgb(35, 25, 243);fill-opacity:1.0;fill-rule:evenodd;stroke:rgb(0, 0, 0);stroke-width:3.0;" d="M 692.381, 118.121 L 692.226, 123.472 L 689.783, 128.476 L 689.072, 129.416 L 654.091, 124.507 L 653.976, 116.311 L 655.015, 115.161 z "/>
<path style="fill:rgb(35, 25, 243);fill-opacity:1.0;fill-rule:evenodd;stroke:rgb(0, 0, 0);stroke-width:3.0;" d="M 706.634, 29.7618 L 705.337, 33.2601 L 696.617, 36.8384 L 695.988, 29.8921 L 697.331, 20.1885 z "/>
<path style="fill:rgb(35, 25, 243);fill-opacity:1.0;fill-rule:evenodd;stroke:rgb(0, 0, 0);stroke-width:3.0;" d="M 696.253, 263.868 L 695.263, 277.919 L 692.348, 278.716 L 683.583, 252.438 z "/>
<path style="fill:rgb(35, 25, 243);fill-opacity:1.0;fill-rule:evenodd;stroke:rgb(0, 0, 0);stroke-width:3.0;" d="M 669.285, 239.539 L 635.62, 237.925 L 647.059, 219.49 z "/>
<path style="fill:rgb(35, 25, 243);fill-opacity:1.0;fill-rule:evenodd;stroke:rgb(0, 0, 0);stroke-width:3.0;" d="M 596.847, 266.144 L 584.725, 287.898 L 554.873, 285.763 L 583.329, 263.808 z "/>
<path style="fill:rgb(35, 25, 243);fill-opacity:1.0;fill-rule:evenodd;stroke:rgb(0, 0, 0);stroke-width:3.0;" d="M 630.706, 40.9191 L 632.859, 59.6866 L 622.367, 58.7974 L 623.914, 38.5118 z "/>
<path style="fill:rgb(35, 25, 243);fill-opacity:1.0;fill-rule:evenodd;stroke:rgb(0, 0, 0);stroke-width:3.0;" d="M 792.416, 222.101 L 691.99, 204.341 L 673.797, 189.285 L 767.252, 157.789 z "/>
<path style="fill:rgb(35, 25, 243);fill-opacity:1.0;fill-rule:evenodd;stroke:rgb(0, 0, 0);stroke-width:3.0;" d="M 588.568, 166.723 L 589.587, 196.958 L 564.556, 200.398 L 570.336, 175.417 L 579.739, 158.759 z "/>
<path style="fill:rgb(9, 249, 220);fill-opacity:1.0;fill-rule:evenodd;stroke:rgb(0, 0, 0);stroke-width:3.0;" d="M 718.582, 453.722 L 729.962, 503.172 L 669.096, 438.744 L 620.976, 324.601 L 616.098, 299.203 z "/>
<path style="fill:rgb(255, 246, 6);fill-opacity:1.0;fill-rule:evenodd;stroke:rgb(0, 0, 0);stroke-width:3.0;" d="M 754.553, 465.211 L 763.342, 491.561 L 761.598, 495.124 L 742.839, 496.949 L 737.54, 457.95 z "/>
<path style="fill:rgb(255, 246, 6);fill-opacity:1.0;fill-rule:evenodd;stroke:rgb(0, 0, 0);stroke-width:3.0;" d="M 580.43, 104.227 L 555.483, 89.63 L 546.976, 72.68 z "/>
<path style="fill:rgb(255, 246, 6);fill-opacity:1.0;fill-rule:evenodd;stroke:rgb(0, 0, 0);stroke-width:3.0;" d="M 776.417, 65.8099 L 775.805, 66.0037 L 726.783, 73.068 L 718.3, 71.4494 L 732.61, 63.4595 L 776.166, 60.6563 z "/>
<path style="fill:rgb(255, 246, 6);fill-opacity:1.0;fill-rule:evenodd;stroke:rgb(0, 0, 0);stroke-width:3.0;" d="M 671.053, 83.3142 L 660.792, 108.768 L 660.178, 109.447 L 648.624, 80.3915 L 650.434, 74.4699 z "/>
<path style="fill:rgb(255, 246, 6);fill-opacity:1.0;fill-rule:evenodd;stroke:rgb(0, 0, 0);stroke-width:3.0;" d="M 695.799, 322.73 L 711.881, 371.25 L 711.869, 372.724 L 689.008, 319.79 z "/>
<path style="fill:rgb(255, 223, 32);fill-opacity:1.0;fill-rule:evenodd;stroke:rgb(0, 0, 0);stroke-width:3.0;" d="M 519.811, 40.8066 L 522.877, 48.5063 L 512.827, 67.2803 L 505.214, 40.3785 L 505.502, 40.0017 z "/>
<path style="fill:rgb(255, 223, 32);fill-opacity:1.0;fill-rule:evenodd;stroke:rgb(0, 0, 0);stroke-width:3.0;" d="M 641.708, 228.115 L 633.541, 241.276 L 628.9, 233.183 L 629.892, 227.883 L 635.039, 223.912 z "/>
<path style="fill:rgb(255, 223, 32);fill-opacity:1.0;fill-rule:evenodd;stroke:rgb(0, 0, 0);stroke-width:3.0;" d="M 769.498, 329.943 L 712.655, 339.599 L 712.049, 337.781 L 737.091, 300.708 z "/>
<path style="fill:rgb(255, 223, 32);fill-opacity:1.0;fill-rule:evenodd;stroke:rgb(0, 0, 0);stroke-width:3.0;" d="M 777.179, 274.842 L 756.594, 257.806 L 766.772, 247.535 z "/>
<path style="fill:rgb(255, 223, 32);fill-opacity:1.0;fill-rule:evenodd;stroke:rgb(0, 0, 0);stroke-width:3.0;" d="M 507.164, 146.804 L 520.781, 168.066 L 497.75, 159.031 L 483.883, 151.996 L 492.816, 143.614 z "/>
<path style="fill:rgb(234, 252, 67);fill-opacity:1.0;fill-rule:evenodd;stroke:rgb(0, 0, 0);stroke-width:3.0;" d="M 779.405, 497.826 L 774.433, 524.813 L 764.105, 493.85 L 770.326, 490.522 z "/>
<path style="fill:rgb(234, 252, 67);fill-opacity:1.0;fill-rule:evenodd;stroke:rgb(0, 0, 0);stroke-width:3.0;" d="M 748.718, 251.288 L 786.915, 345.655 L 711.805, 277.898 L 677.251, 221.744 L 705.687, 215.677 z "/>
<path style="fill:rgb(246, 231, 8);fill-opacity:1.0;fill-rule:evenodd;stroke:rgb(0, 0, 0);stroke-width:3.0;" d="M 705.687, 215.677 L 677.251, 221.744 L 640.136, 161.428 z "/>
<path style="fill:rgb(228, 14, 148);fill-opacity:1.0;fill-rule:evenodd;stroke:rgb(0, 0, 0);stroke-width:3.0;" d="M 767.252, 157.789 L 673.797, 189.285 L 662.802, 180.186 L 758.546, 135.54 z "/>
<path style="fill:rgb(228, 14, 148);fill-opacity:1.0;fill-rule:evenodd;stroke:rgb(0, 0, 0);stroke-width:3.0;" d="M 770.188, 42.4764 L 760.955, 47.6323 L 752.197, 43.8756 L 736.91, 24.5247 L 737.338, 24.0505 z "/>
<path style="fill:rgb(255, 252, 48);fill-opacity:1.0;fill-rule:evenodd;stroke:rgb(0, 0, 0);stroke-width:3.0;" d="M 650.739, 238.65 L 675.236, 265.375 L 679.387, 283.414 L 679.896, 290.245 L 660.937, 342.867 L 656.054, 335.149 L 623.611, 257.279 L 635.62, 237.925 z "/>
<path style="fill:rgb(255, 252, 48);fill-opacity:1.0;fill-rule:evenodd;stroke:rgb(0, 0, 0);stroke-width:3.0;" d="M 651.128, 396.123 L 634.978, 397.492 L 620.976, 324.601 z "/>
<path style="fill:rgb(240, 55, 15);fill-opacity:1.0;fill-rule:evenodd;stroke:rgb(0, 0, 0);stroke-width:3.0;" d="M 634.801, 169.405 L 634.101, 171.459 L 629.795, 174.905 L 622.002, 174.844 L 616.059, 172.022 L 620.779, 166.316 L 628.561, 164.873 z "/>
<path style="fill:rgb(240, 55, 15);fill-opacity:1.0;fill-rule:evenodd;stroke:rgb(0, 0, 0);stroke-width:3.0;" d="M 512.162, 64.9295 L 518.338, 86.7548 L 509.551, 76.9334 L 506.476, 71.5042 L 508.957, 57.9578 z "/>
<path style="fill:rgb(240, 55, 15);fill-opacity:1.0;fill-rule:evenodd;stroke:rgb(0, 0, 0);stroke-width:3.0;" d="M 625.235, 252.763 L 616.84, 237.952 L 629.892, 227.883 z "/>
<path style="fill:rgb(255, 72, 54);fill-opacity:1.0;fill-rule:evenodd;stroke:rgb(0, 0, 0);stroke-width:3.0;" d="M 787.222, 84.5999 L 751.981, 114.231 L 751.728, 114.184 L 729.283, 100.997 L 705.593, 78.5448 L 718.3, 71.4494 z "/>
<path style="fill:rgb(228, 148, 20);fill-opacity:1.0;fill-rule:evenodd;stroke:rgb(0, 0, 0);stroke-width:3.0;" d="M 532.755, 116.374 L 550.339, 132.236 L 515.576, 159.939 L 483.848, 110.397 L 494.472, 102.965 z "/>
<path style="fill:rgb(255, 33, 18);fill-opacity:1.0;fill-rule:evenodd;stroke:rgb(0, 0, 0);stroke-width:3.0;" d="M 630.203, 273.101 L 656.054, 335.149 L 615.28, 270.705 L 615.833, 269.814 z "/>
<path style="fill:rgb(194, 62, 217);fill-opacity:1.0;fill-rule:evenodd;stroke:rgb(0, 0, 0);stroke-width:3.0;" d="M 787.545, 564.124 L 748.207, 522.484 L 754.821, 508.971 L 769.047, 508.665 z "/>
<path style="fill:rgb(75, 138, 249);fill-opacity:1.0;fill-rule:evenodd;stroke:rgb(0, 0, 0);stroke-width:3.0;" d="M 707.967, 407.596 L 699.288, 403.481 L 686.864, 383.846 L 679.387, 283.414 z "/>
<path style="fill:rgb(75, 138, 249);fill-opacity:1.0;fill-rule:evenodd;stroke:rgb(0, 0, 0);stroke-width:3.0;" d="M 575.839, 165.668 L 564.749, 185.314 L 530.172, 171.75 L 546.584, 165.011 z "/>
<path style="fill:rgb(52, 226, 74);fill-opacity:1.0;fill-rule:evenodd;stroke:rgb(0, 0, 0);stroke-width:3.0;" d="M 648.18, 81.8454 L 639.49, 110.271 L 623.49, 102.358 L 637.599, 73.7037 L 639.52, 73.4702 z "/>
<path style="fill:rgb(52, 226, 74);fill-opacity:1.0;fill-rule:evenodd;stroke:rgb(0, 0, 0);stroke-width:3.0;" d="M 546.558, 232.964 L 522.159, 260.764 L 540.009, 229.142 z "/>
<path style="fill:rgb(52, 226, 74);fill-opacity:1.0;fill-rule:evenodd;stroke:rgb(0, 0, 0);stroke-width:3.0;" d="M 573.857, 126.244 L 567.802, 126.68 L 536.106, 62.3264 L 535.979, 61.9285 L 541.243, 61.2557 z "/>
<path style="fill:rgb(52, 226, 74);fill-opacity:1.0;fill-rule:evenodd;stroke:rgb(0, 0, 0);stroke-width:3.0;" d="M 639.49, 110.271 L 630.111, 140.949 L 620.889, 137.943 L 619.149, 100.211 z "/>
<path style="fill:rgb(52, 226, 74);fill-opacity:1.0;fill-rule:evenodd;stroke:rgb(0, 0, 0);stroke-width:3.0;" d="M 32.5658, 580.299 L 18.3923, 572.244 L 30.3751, 555.99 z "/>
<path style="fill:rgb(52, 226, 74);fill-opacity:1.0;fill-rule:evenodd;stroke:rgb(0, 0, 0);stroke-width:3.0;" d="M 579.739, 158.759 L 575.839, 165.668 L 546.584, 165.011 L 574.13, 153.699 z "/>
<path style="fill:rgb(255, 223, 48);fill-opacity:1.0;fill-rule:evenodd;stroke:rgb(0, 0, 0);stroke-width:3.0;" d="M 720.02, 285.308 L 699.073, 298.879 L 692.348, 278.716 L 707.979, 274.446 z "/>
<path style="fill:rgb(255, 5, 11);fill-opacity:1.0;fill-rule:evenodd;stroke:rgb(0, 0, 0);stroke-width:3.0;" d="M 589.729, 235.113 L 599.06, 251.671 L 559.015, 282.567 L 557.133, 282.52 L 532.994, 249.783 L 555.199, 223.85 z "/>
<path style="fill:rgb(255, 5, 11);fill-opacity:1.0;fill-rule:evenodd;stroke:rgb(0, 0, 0);stroke-width:3.0;" d="M 791.415, 100.983 L 776.937, 101.893 L 776.59, 98.2956 L 787.173, 89.2402 z "/>
<path style="fill:rgb(255, 5, 11);fill-opacity:1.0;fill-rule:evenodd;stroke:rgb(0, 0, 0);stroke-width:3.0;" d="M 771.951, 13.3475 L 764.738, 39.4193 L 737.338, 24.0505 L 751.279, 8.62175 z "/>
<path style="fill:rgb(85, 228, 220);fill-opacity:1.0;fill-rule:evenodd;stroke:rgb(0, 0, 0);stroke-width:3.0;" d="M 612.87, 288.32 L 616.255, 300.024 L 618.017, 309.196 L 610.136, 340.467 L 602.973, 295.425 L 610.216, 281.289 z "/>
<path style="fill:rgb(215, 1, 246);fill-opacity:1.0;fill-rule:evenodd;stroke:rgb(0, 0, 0);stroke-width:3.0;" d="M 597.402, 130.287 L 571.678, 121.902 L 571.44, 121.428 L 588.42, 117.823 z "/>
<path style="fill:rgb(255, 255, 13);fill-opacity:1.0;fill-rule:evenodd;stroke:rgb(0, 0, 0);stroke-width:3.0;" d="M 606.393, 355.316 L 593.627, 358.859 L 590.106, 355.131 L 590.682, 351.664 L 607.905, 349.315 z "/>
<path style="fill:rgb(255, 255, 13);fill-opacity:1.0;fill-rule:evenodd;stroke:rgb(0, 0, 0);stroke-width:3.0;" d="M 593.036, 290.074 L 580.248, 316.437 L 567.702, 331.416 L 563.157, 326.606 L 584.083, 289.051 z "/>
<path style="fill:rgb(33, 38, 249);fill-opacity:1.0;fill-rule:evenodd;stroke:rgb(0, 0, 0);stroke-width:3.0;" d="M 46.7488, 560.975 L 52.4306, 572.22 L 35.8839, 566.071 L 34.9707, 564.266 L 39.2044, 554.325 z "/>
<path style="fill:rgb(243, 243, 31);fill-opacity:1.0;fill-rule:evenodd;stroke:rgb(0, 0, 0);stroke-width:3.0;" d="M 639.012, 176.624 L 625.673, 200.197 L 612.755, 188.543 L 636.811, 169.289 z "/>
<path style="fill:rgb(243, 243, 31);fill-opacity:1.0;fill-rule:evenodd;stroke:rgb(0, 0, 0);stroke-width:3.0;" d="M 562.197, 30.2625 L 563, 37.4093 L 554.405, 45.2291 L 541.411, 29.7186 z "/>
<path style="fill:rgb(243, 243, 31);fill-opacity:1.0;fill-rule:evenodd;stroke:rgb(0, 0, 0);stroke-width:3.0;" d="M 608.582, 344.422 L 608.785, 345.826 L 607.905, 349.315 L 590.682, 351.664 L 592.188, 342.612 z "/>
<path style="fill:rgb(243, 243, 31);fill-opacity:1.0;fill-rule:evenodd;stroke:rgb(0, 0, 0);stroke-width:3.0;" d="M 526.594, 281.752 L 520.641, 281.602 L 514.228, 274.814 L 519.387, 265.674 L 519.902, 265.073 z "/>
<path style="fill:rgb(243, 243, 31);fill-opacity:1.0;fill-rule:evenodd;stroke:rgb(0, 0, 0);stroke-width:3.0;" d="M 553.964, 126.573 L 535.328, 105.744 L 543.994, 101.536 z "/>
<path style="fill:rgb(255, 246, 55);fill-opacity:1.0;fill-rule:evenodd;stroke:rgb(0, 0, 0);stroke-width:3.0;" d="M 532.755, 116.374 L 515.979, 110.498 L 500.27, 98.9089 L 507.663, 93.7378 z "/>
<path style="fill:rgb(234, 209, 172);fill-opacity:1.0;fill-rule:evenodd;stroke:rgb(0, 0, 0);stroke-width:3.0;" d="M 577.305, 102.399 L 586.956, 115.791 L 577.712, 120.096 L 571.44, 121.428 L 555.483, 89.63 z "/>
<path style="fill:rgb(50, 204, 243);fill-opacity:1.0;fill-rule:evenodd;stroke:rgb(0, 0, 0);stroke-width:3.0;" d="M 790.844, 435.736 L 781.89, 484.335 L 764.105, 493.85 L 763.049, 490.684 L 787.945, 405.789 z "/>
<path style="fill:rgb(50, 204, 243);fill-opacity:1.0;fill-rule:evenodd;stroke:rgb(0, 0, 0);stroke-width:3.0;" d="M 728.691, 63.5988 L 707.904, 65.0905 L 708.31, 64.6712 L 735.501, 50.6914 z "/>
<path style="fill:rgb(255, 58, 108);fill-opacity:1.0;fill-rule:evenodd;stroke:rgb(0, 0, 0);stroke-width:3.0;" d="M 695.799, 322.73 L 689.008, 319.79 L 686.334, 313.6 L 680.348, 287.59 L 682.412, 282.342 z "/>
<path style="fill:rgb(55, 184, 220);fill-opacity:1.0;fill-rule:evenodd;stroke:rgb(0, 0, 0);stroke-width:3.0;" d="M 605.804, 336.571 L 599.591, 343.429 L 592.188, 342.612 L 594.055, 331.382 L 603.767, 326.396 z "/>
<path style="fill:rgb(231, 55, 24);fill-opacity:1.0;fill-rule:evenodd;stroke:rgb(0, 0, 0);stroke-width:3.0;" d="M 509.441, 55.3148 L 506.476, 71.5042 L 495.817, 52.6875 L 505.214, 40.3785 z "/>
<path style="fill:rgb(228, 24, 15);fill-opacity:1.0;fill-rule:evenodd;stroke:rgb(0, 0, 0);stroke-width:3.0;" d="M 737.091, 300.708 L 712.049, 337.781 L 710.151, 332.09 L 726.772, 291.399 z "/>
<path style="fill:rgb(255, 0, 22);fill-opacity:1.0;fill-rule:evenodd;stroke:rgb(0, 0, 0);stroke-width:3.0;" d="M 726.772, 291.399 L 710.151, 332.09 L 699.073, 298.879 L 720.02, 285.308 z "/>
<path style="fill:rgb(6, 215, 255);fill-opacity:1.0;fill-rule:evenodd;stroke:rgb(0, 0, 0);stroke-width:3.0;" d="M 619.17, 47.0651 L 617.468, 53.6837 L 607.172, 51.8809 L 607.957, 47.6298 L 612.878, 35.5572 z "/>
<path style="fill:rgb(255, 212, 22);fill-opacity:1.0;fill-rule:evenodd;stroke:rgb(0, 0, 0);stroke-width:3.0;" d="M 477.835, 20.9412 L 491.687, 45.3962 L 490.688, 46.6441 L 471.748, 31.3017 L 471.263, 19.334 z "/>
<path style="fill:rgb(255, 212, 22);fill-opacity:1.0;fill-rule:evenodd;stroke:rgb(0, 0, 0);stroke-width:3.0;" d="M 470.746, 122.517 L 463.557, 137.109 L 449.98, 134.09 L 468.377, 121.22 z "/>
<path style="fill:rgb(255, 249, 7);fill-opacity:1.0;fill-rule:evenodd;stroke:rgb(0, 0, 0);stroke-width:3.0;" d="M 741.515, 39.2934 L 735.501, 50.6914 L 733.063, 51.9452 L 722.831, 49.6745 L 735.416, 36.6768 z "/>
<path style="fill:rgb(255, 255, 12);fill-opacity:1.0;fill-rule:evenodd;stroke:rgb(0, 0, 0);stroke-width:3.0;" d="M 543.994, 101.536 L 535.328, 105.744 L 518.338, 86.7548 L 512.827, 67.2803 L 522.877, 48.5063 z "/>
<path style="fill:rgb(255, 9, 17);fill-opacity:1.0;fill-rule:evenodd;stroke:rgb(0, 0, 0);stroke-width:3.0;" d="M 770.912, 117.746 L 778.802, 131.054 L 757.321, 132.408 L 750.07, 113.876 z "/>
<path style="fill:rgb(234, 88, 16);fill-opacity:1.0;fill-rule:evenodd;stroke:rgb(0, 0, 0);stroke-width:3.0;" d="M 649.927, 408.08 L 650.218, 418.761 L 636.216, 403.94 L 634.978, 397.492 L 646.469, 396.518 z "/>
<path style="fill:rgb(255, 252, 76);fill-opacity:1.0;fill-rule:evenodd;stroke:rgb(0, 0, 0);stroke-width:3.0;" d="M 765.248, 243.537 L 766.435, 246.653 L 756.441, 257.679 L 750.7, 252.929 L 758.734, 243.2 L 763.639, 241.95 z "/>
<path style="fill:rgb(255, 252, 76);fill-opacity:1.0;fill-rule:evenodd;stroke:rgb(0, 0, 0);stroke-width:3.0;" d="M 624.613, 381.503 L 606.844, 353.526 L 615.301, 319.971 z "/>
<path style="fill:rgb(57, 255, 7);fill-opacity:1.0;fill-rule:evenodd;stroke:rgb(0, 0, 0);stroke-width:3.0;" d="M 508.556, 36.0011 L 499.218, 48.2335 L 494.671, 30.162 L 502.306, 25.9069 z "/>
<path style="fill:rgb(10, 1, 255);fill-opacity:1.0;fill-rule:evenodd;stroke:rgb(0, 0, 0);stroke-width:3.0;" d="M 727.511, 384.137 L 727.634, 385.045 L 714.903, 380.368 L 710.35, 366.632 L 717.654, 354.585 z "/>
<path style="fill:rgb(252, 3, 16);fill-opacity:1.0;fill-rule:evenodd;stroke:rgb(0, 0, 0);stroke-width:3.0;" d="M 787.922, 330.583 L 793.896, 340 L 788.484, 347.071 L 786.915, 345.655 L 778.815, 325.643 L 783.381, 323.638 z "/>
<path style="fill:rgb(255, 243, 15);fill-opacity:1.0;fill-rule:evenodd;stroke:rgb(0, 0, 0);stroke-width:3.0;" d="M 651.173, 72.054 L 650.031, 72.1928 L 652.67, 43.0958 L 654.815, 38.7396 L 661.592, 37.9723 z "/>
<path style="fill:rgb(12, 12, 255);fill-opacity:1.0;fill-rule:evenodd;stroke:rgb(0, 0, 0);stroke-width:3.0;" d="M 650.031, 72.1928 L 637.599, 73.7037 L 652.67, 43.0958 z "/>
<path style="fill:rgb(255, 2, 12);fill-opacity:1.0;fill-rule:evenodd;stroke:rgb(0, 0, 0);stroke-width:3.0;" d="M 685.493, 235.137 L 672.482, 238.905 L 669.921, 237.58 L 649.571, 210.088 L 664.858, 201.604 z "/>
<path style="fill:rgb(150, 2, 255);fill-opacity:1.0;fill-rule:evenodd;stroke:rgb(0, 0, 0);stroke-width:3.0;" d="M 601.683, 178.555 L 608.691, 184.877 L 614.362, 193.552 L 604.837, 194.861 L 597.434, 177.178 z "/>
<path style="fill:rgb(150, 2, 255);fill-opacity:1.0;fill-rule:evenodd;stroke:rgb(0, 0, 0);stroke-width:3.0;" d="M 664.858, 201.604 L 649.571, 210.088 L 644.118, 202.722 L 655.502, 186.398 z "/>
<path style="fill:rgb(102, 61, 255);fill-opacity:1.0;fill-rule:evenodd;stroke:rgb(0, 0, 0);stroke-width:3.0;" d="M 662.669, 423.498 L 663.476, 432.794 L 650.218, 418.761 L 649.605, 396.252 L 651.128, 396.123 z "/>
<path style="fill:rgb(255, 1, 249);fill-opacity:1.0;fill-rule:evenodd;stroke:rgb(0, 0, 0);stroke-width:3.0;" d="M 776.451, 274.24 L 774.273, 281.693 L 762.832, 286.159 L 759.82, 278.716 L 771.293, 269.971 z "/>
<path style="fill:rgb(255, 1, 249);fill-opacity:1.0;fill-rule:evenodd;stroke:rgb(0, 0, 0);stroke-width:3.0;" d="M 750.07, 113.876 L 758.546, 135.54 L 662.802, 180.186 L 655.335, 174.006 L 706.894, 105.861 z "/>
<path style="fill:rgb(255, 255, 57);fill-opacity:1.0;fill-rule:evenodd;stroke:rgb(0, 0, 0);stroke-width:3.0;" d="M 492.191, 143.475 L 472.97, 139.201 L 473.535, 129.261 L 477.679, 128.416 z "/>
<path style="fill:rgb(255, 249, 26);fill-opacity:1.0;fill-rule:evenodd;stroke:rgb(0, 0, 0);stroke-width:3.0;" d="M 643.285, 190.864 L 643.684, 192.195 L 628.138, 202.421 L 625.673, 200.197 L 632.784, 187.632 z "/>
<path style="fill:rgb(100, 246, 255);fill-opacity:1.0;fill-rule:evenodd;stroke:rgb(0, 0, 0);stroke-width:3.0;" d="M 735.401, 442.209 L 739.664, 473.58 L 722.78, 467.288 L 728.911, 422.627 z "/>
<path style="fill:rgb(223, 5, 32);fill-opacity:1.0;fill-rule:evenodd;stroke:rgb(0, 0, 0);stroke-width:3.0;" d="M 771.293, 269.971 L 759.82, 278.716 L 756.94, 271.6 L 763.037, 263.138 z "/>
<path style="fill:rgb(255, 255, 22);fill-opacity:1.0;fill-rule:evenodd;stroke:rgb(0, 0, 0);stroke-width:3.0;" d="M 566.29, 10.5023 L 568.193, 42.7586 L 567.25, 43.7718 L 564.783, 43.1852 L 562.637, 34.1715 L 559.598, 7.1294 L 562.972, 5.27657 z "/>
<path style="fill:rgb(72, 33, 255);fill-opacity:1.0;fill-rule:evenodd;stroke:rgb(0, 0, 0);stroke-width:3.0;" d="M 632.806, 386.185 L 632.125, 387.718 L 624.525, 380.924 L 622.434, 367.104 L 628.864, 365.665 z "/>
<path style="fill:rgb(228, 3, 9);fill-opacity:1.0;fill-rule:evenodd;stroke:rgb(0, 0, 0);stroke-width:3.0;" d="M 681.288, 101.107 L 692.813, 103.247 L 692.482, 114.643 L 682.422, 117.332 L 681.778, 117.281 L 673.622, 99.9855 z "/>
<path style="fill:rgb(240, 92, 44);fill-opacity:1.0;fill-rule:evenodd;stroke:rgb(0, 0, 0);stroke-width:3.0;" d="M 678.287, 65.3693 L 671.053, 83.3142 L 650.434, 74.4699 L 653.11, 65.7192 L 680.474, 51.6121 z "/>
<path style="fill:rgb(252, 249, 21);fill-opacity:1.0;fill-rule:evenodd;stroke:rgb(0, 0, 0);stroke-width:3.0;" d="M 773.8, 374.631 L 726.946, 382.443 L 726.718, 381.761 L 778.017, 369.419 z "/>
<path style="fill:rgb(252, 249, 21);fill-opacity:1.0;fill-rule:evenodd;stroke:rgb(0, 0, 0);stroke-width:3.0;" d="M 669.285, 239.539 L 669.292, 239.546 L 675.236, 265.375 L 650.739, 238.65 z "/>
<path style="fill:rgb(7, 255, 237);fill-opacity:1.0;fill-rule:evenodd;stroke:rgb(0, 0, 0);stroke-width:3.0;" d="M 538.236, 267.91 L 541.318, 282.122 L 526.594, 281.752 L 520.984, 267.77 z "/>
<path style="fill:rgb(255, 132, 85);fill-opacity:1.0;fill-rule:evenodd;stroke:rgb(0, 0, 0);stroke-width:3.0;" d="M 534.851, 252.301 L 538.236, 267.91 L 520.984, 267.77 L 519.902, 265.073 L 532.994, 249.783 z "/>
<path style="fill:rgb(246, 243, 44);fill-opacity:1.0;fill-rule:evenodd;stroke:rgb(0, 0, 0);stroke-width:3.0;" d="M 786.617, 304.637 L 791.845, 322.046 L 779.805, 317.787 L 775.69, 311.3 L 777.12, 305.291 L 780.466, 301.608 z "/>
<path style="fill:rgb(255, 16, 19);fill-opacity:1.0;fill-rule:evenodd;stroke:rgb(0, 0, 0);stroke-width:3.0;" d="M 551.297, 66.6527 L 564.94, 83.3872 L 559.305, 84.3059 L 546.976, 72.68 L 541.526, 61.82 z "/>
<path style="fill:rgb(240, 220, 11);fill-opacity:1.0;fill-rule:evenodd;stroke:rgb(0, 0, 0);stroke-width:3.0;" d="M 677.686, 108.604 L 681.778, 117.281 L 657.695, 115.373 L 657.272, 112.663 L 666.969, 101.932 z "/>
<path style="fill:rgb(255, 1, 98);fill-opacity:1.0;fill-rule:evenodd;stroke:rgb(0, 0, 0);stroke-width:3.0;" d="M 630.111, 140.949 L 630.102, 140.979 L 595.857, 170.081 L 587.637, 153.702 L 608.742, 133.984 z "/>
<path style="fill:rgb(255, 136, 13);fill-opacity:1.0;fill-rule:evenodd;stroke:rgb(0, 0, 0);stroke-width:3.0;" d="M 559.214, 109.244 L 554.97, 127.603 L 554.391, 127.645 L 547.709, 110.866 L 557.329, 105.416 z "/>
<path style="fill:rgb(255, 255, 26);fill-opacity:1.0;fill-rule:evenodd;stroke:rgb(0, 0, 0);stroke-width:3.0;" d="M 546.552, 83.5363 L 557.329, 105.416 L 547.709, 110.866 L 535.715, 80.7449 z "/>
<path style="fill:rgb(255, 15, 189);fill-opacity:1.0;fill-rule:evenodd;stroke:rgb(0, 0, 0);stroke-width:3.0;" d="M 761.535, 51.8645 L 766.668, 61.2676 L 747.37, 62.5095 L 744.578, 56.7767 L 756.928, 49.8805 z "/>
<path style="fill:rgb(57, 3, 161);fill-opacity:1.0;fill-rule:evenodd;stroke:rgb(0, 0, 0);stroke-width:3.0;" d="M 600.811, 238.728 L 555.199, 223.85 L 560.645, 217.491 L 576.393, 210.686 z "/>
<path style="fill:rgb(246, 249, 30);fill-opacity:1.0;fill-rule:evenodd;stroke:rgb(0, 0, 0);stroke-width:3.0;" d="M 699.644, 258.134 L 694.098, 261.924 L 669.53, 239.761 L 685.493, 235.137 z "/>
<path style="fill:rgb(246, 249, 30);fill-opacity:1.0;fill-rule:evenodd;stroke:rgb(0, 0, 0);stroke-width:3.0;" d="M 608.151, 46.5775 L 602.047, 40.3021 L 614.226, 13.7004 z "/>
<path style="fill:rgb(246, 249, 30);fill-opacity:1.0;fill-rule:evenodd;stroke:rgb(0, 0, 0);stroke-width:3.0;" d="M 644.16, 216.874 L 611.371, 242.172 L 600.811, 238.728 L 576.393, 210.686 L 616.833, 193.212 L 617.786, 193.081 z "/>
<path style="fill:rgb(255, 243, 67);fill-opacity:1.0;fill-rule:evenodd;stroke:rgb(0, 0, 0);stroke-width:3.0;" d="M 608.742, 133.984 L 587.637, 153.702 L 585.614, 149.672 L 596.934, 130.135 z "/>
<path style="fill:rgb(182, 255, 255);fill-opacity:1.0;fill-rule:evenodd;stroke:rgb(0, 0, 0);stroke-width:3.0;" d="M 596.934, 130.135 L 585.614, 149.672 L 571.678, 121.902 z "/>
<path style="fill:rgb(38, 71, 240);fill-opacity:1.0;fill-rule:evenodd;stroke:rgb(0, 0, 0);stroke-width:3.0;" d="M 616.996, 369.51 L 606.364, 372.34 L 603, 368.779 L 606.844, 353.526 z "/>
<path style="fill:rgb(228, 102, 49);fill-opacity:1.0;fill-rule:evenodd;stroke:rgb(0, 0, 0);stroke-width:3.0;" d="M 686.864, 383.846 L 660.937, 342.867 L 679.896, 290.245 z "/>
<path style="fill:rgb(246, 117, 128);fill-opacity:1.0;fill-rule:evenodd;stroke:rgb(0, 0, 0);stroke-width:3.0;" d="M 740.017, 10.6663 L 740.203, 15.8733 L 721.989, 31.2581 L 714.577, 30.0737 L 730.527, 10.3685 z "/>
<path style="fill:rgb(108, 246, 249);fill-opacity:1.0;fill-rule:evenodd;stroke:rgb(0, 0, 0);stroke-width:3.0;" d="M 723.1, 383.379 L 729.898, 415.493 L 727.998, 419.872 L 714.903, 380.368 z "/>
<path style="fill:rgb(252, 255, 28);fill-opacity:1.0;fill-rule:evenodd;stroke:rgb(0, 0, 0);stroke-width:3.0;" d="M 611.17, 177.931 L 606.82, 183.189 L 599.508, 176.593 L 606.382, 168.986 L 612.322, 167.884 z "/>
<path style="fill:rgb(255, 228, 24);fill-opacity:1.0;fill-rule:evenodd;stroke:rgb(0, 0, 0);stroke-width:3.0;" d="M 646.058, 22.9384 L 638.764, 43.2998 L 630.984, 43.3442 L 627.322, 11.4241 L 627.603, 10.4828 z "/>
<path style="fill:rgb(240, 249, 6);fill-opacity:1.0;fill-rule:evenodd;stroke:rgb(0, 0, 0);stroke-width:3.0;" d="M 556.078, 281.088 L 547.047, 281.324 L 542.373, 280.986 L 540.084, 276.429 L 539.797, 275.107 L 545.934, 267.331 z "/>
<path style="fill:rgb(204, 237, 48);fill-opacity:1.0;fill-rule:evenodd;stroke:rgb(0, 0, 0);stroke-width:3.0;" d="M 728.911, 422.627 L 722.78, 467.288 L 721.603, 466.85 L 715.35, 439.678 L 728.343, 420.913 z "/>
<path style="fill:rgb(252, 179, 21);fill-opacity:1.0;fill-rule:evenodd;stroke:rgb(0, 0, 0);stroke-width:3.0;" d="M 721.335, 399.771 L 728.343, 420.913 L 715.35, 439.678 L 711.462, 422.785 L 711.717, 391.392 z "/>
<path style="fill:rgb(217, 21, 255);fill-opacity:1.0;fill-rule:evenodd;stroke:rgb(0, 0, 0);stroke-width:3.0;" d="M 788.794, 147.907 L 764.064, 149.642 L 759.567, 138.15 L 760.726, 132.193 L 778.802, 131.054 z "/>
</svg>