<?xml version="1.0" encoding="iso-8859-1" standalone="no"?>
<!DOCTYPE svg PUBLIC "-//W3C//DTD SVG 1.0//EN" "http://www.w3.org/TR/2001/REC-SVG-20010904/DTD/svg10.dtd">
<svg xmlns="http://www.w3.org/2000/svg" width="800" height="600">
<path style="fill:rgb(0, 0, 0);fill-opacity:0.0;fill-rule:evenodd;stroke:rgb(0, 0, 0);stroke-width:0.0;" d="M 0, 600 L 800, 600 L 800, 0 L 0, 0 z "/>
<path style="fill:rgb(234, 1, 112);fill-opacity:1.0;fill-rule:evenodd;stroke:rgb(0, 0, 0);stroke-width:3.0;" d="M 323.534, 275.462 L 313.651, 280.658 L 322.757, 220.717 L 332.407, 201.296 L 375.755, 146.771 z "/>
<path style="fill:rgb(234, 1, 112);fill-opacity:1.0;fill-rule:evenodd;stroke:rgb(0, 0, 0);stroke-width:3.0;" d="M 411.627, 263.473 L 409.268, 267.131 L 385.053, 276.599 L 404.758, 253.518 z "/>
<path style="fill:rgb(234, 1, 112);fill-opacity:1.0;fill-rule:evenodd;stroke:rgb(0, 0, 0);stroke-width:3.0;" d="M 274.825, 26.0357 L 260.195, 38.0915 L 248.083, 31.101 L 256.494, 25.8946 z "/>
<path style="fill:rgb(234, 1, 112);fill-opacity:1.0;fill-rule:evenodd;stroke:rgb(0, 0, 0);stroke-width:3.0;" d="M 311.569, 177.708 L 288.071, 163.964 L 364.223, 131.74 z "/>
<path style="fill:rgb(234, 1, 112);fill-opacity:1.0;fill-rule:evenodd;stroke:rgb(0, 0, 0);stroke-width:3.0;" d="M 468.978, 199.006 L 345.833, 263.741 L 337.876, 240.118 L 375.755, 146.771 L 391.553, 126.899 z "/>
<path style="fill:rgb(252, 24, 194);fill-opacity:1.0;fill-rule:evenodd;stroke:rgb(0, 0, 0);stroke-width:3.0;" d="M 424.792, 282.552 L 394.25, 238.289 L 414.905, 227.431 z "/>
<path style="fill:rgb(252, 24, 194);fill-opacity:1.0;fill-rule:evenodd;stroke:rgb(0, 0, 0);stroke-width:3.0;" d="M 317.416, 231.466 L 305.404, 255.64 L 295.498, 247.72 L 320.282, 216.547 z "/>
<path style="fill:rgb(252, 24, 194);fill-opacity:1.0;fill-rule:evenodd;stroke:rgb(0, 0, 0);stroke-width:3.0;" d="M 391.501, 538.857 L 396.994, 549.56 L 332.009, 549.678 L 365.405, 518.234 z "/>
<path style="fill:rgb(252, 24, 194);fill-opacity:1.0;fill-rule:evenodd;stroke:rgb(0, 0, 0);stroke-width:3.0;" d="M 365.512, 488.219 L 292.02, 498.942 L 313.42, 386.719 z "/>
<path style="fill:rgb(255, 246, 22);fill-opacity:1.0;fill-rule:evenodd;stroke:rgb(0, 0, 0);stroke-width:3.0;" d="M 296.19, 547.35 L 286.128, 529.842 L 289.104, 514.235 z "/>
<path style="fill:rgb(255, 56, 255);fill-opacity:1.0;fill-rule:evenodd;stroke:rgb(0, 0, 0);stroke-width:3.0;" d="M 773.439, 16.6926 L 773.441, 34.8878 L 761.189, 11.0806 z "/>
<path style="fill:rgb(255, 56, 255);fill-opacity:1.0;fill-rule:evenodd;stroke:rgb(0, 0, 0);stroke-width:3.0;" d="M 779.364, 565.754 L 767.192, 570.684 L 755.522, 568.221 L 772.716, 558.822 L 780.409, 558.452 z "/>
<path style="fill:rgb(255, 56, 255);fill-opacity:1.0;fill-rule:evenodd;stroke:rgb(0, 0, 0);stroke-width:3.0;" d="M 776.533, 208.373 L 773.98, 228.61 L 765.609, 229.818 L 758.216, 223.918 L 759.087, 206.577 L 759.429, 205.063 L 766.414, 198.206 z "/>
<path style="fill:rgb(255, 56, 255);fill-opacity:1.0;fill-rule:evenodd;stroke:rgb(0, 0, 0);stroke-width:3.0;" d="M 443.012, 119.315 L 424.792, 131.482 L 420.317, 115.728 z "/>
<path style="fill:rgb(243, 30, 37);fill-opacity:1.0;fill-rule:evenodd;stroke:rgb(0, 0, 0);stroke-width:3.0;" d="M 716.421, 481.926 L 662.713, 512.98 L 444.225, 373.259 L 557.895, 186.032 L 762.049, 184.562 z "/>
<path style="fill:rgb(8, 91, 255);fill-opacity:1.0;fill-rule:evenodd;stroke:rgb(0, 0, 0);stroke-width:3.0;" d="M 343.024, 308.542 L 314.892, 389.586 L 313.42, 386.719 L 329.926, 300.166 z "/>
<path style="fill:rgb(8, 91, 255);fill-opacity:1.0;fill-rule:evenodd;stroke:rgb(0, 0, 0);stroke-width:3.0;" d="M 190.189, 207.472 L 172.871, 150.386 L 195.571, 130.233 L 236.589, 120.829 z "/>
<path style="fill:rgb(8, 91, 255);fill-opacity:1.0;fill-rule:evenodd;stroke:rgb(0, 0, 0);stroke-width:3.0;" d="M 213.956, 113.91 L 208.961, 118.345 L 195.722, 104.263 L 197.909, 99.6815 z "/>
<path style="fill:rgb(8, 91, 255);fill-opacity:1.0;fill-rule:evenodd;stroke:rgb(0, 0, 0);stroke-width:3.0;" d="M 768.251, 144.14 L 762.049, 184.562 L 557.895, 186.032 L 585.6, 140.398 z "/>
<path style="fill:rgb(192, 194, 157);fill-opacity:1.0;fill-rule:evenodd;stroke:rgb(0, 0, 0);stroke-width:3.0;" d="M 420.887, 358.335 L 366.266, 489.688 L 322.27, 403.963 L 366.538, 323.579 z "/>
<path style="fill:rgb(255, 243, 23);fill-opacity:1.0;fill-rule:evenodd;stroke:rgb(0, 0, 0);stroke-width:3.0;" d="M 770.576, 416.232 L 769.137, 417.397 L 752.689, 412.454 L 753.059, 407.202 L 765.714, 406.672 z "/>
<path style="fill:rgb(255, 243, 23);fill-opacity:1.0;fill-rule:evenodd;stroke:rgb(0, 0, 0);stroke-width:3.0;" d="M 454.285, 263.224 L 427.913, 220.593 L 448.825, 209.6 z "/>
<path style="fill:rgb(172, 37, 234);fill-opacity:1.0;fill-rule:evenodd;stroke:rgb(0, 0, 0);stroke-width:3.0;" d="M 293.629, 490.504 L 291.614, 501.072 L 273.143, 487.51 L 280.078, 469.855 z "/>
<path style="fill:rgb(255, 30, 105);fill-opacity:1.0;fill-rule:evenodd;stroke:rgb(0, 0, 0);stroke-width:3.0;" d="M 546.629, 186.592 L 542.132, 198.523 L 539.527, 199.375 L 536.6, 180.152 z "/>
<path style="fill:rgb(255, 246, 7);fill-opacity:1.0;fill-rule:evenodd;stroke:rgb(0, 0, 0);stroke-width:3.0;" d="M 465.574, 338.095 L 464.424, 339.989 L 424.792, 282.552 L 414.905, 227.431 L 419.793, 224.861 z "/>
<path style="fill:rgb(98, 138, 255);fill-opacity:1.0;fill-rule:evenodd;stroke:rgb(0, 0, 0);stroke-width:3.0;" d="M 764.708, 287.209 L 761.444, 291.367 L 755.056, 286.841 L 756.548, 257.137 L 761.697, 254.905 z "/>
<path style="fill:rgb(98, 138, 255);fill-opacity:1.0;fill-rule:evenodd;stroke:rgb(0, 0, 0);stroke-width:3.0;" d="M 186.014, 138.718 L 173.792, 149.568 L 170.141, 115.185 z "/>
<path style="fill:rgb(98, 138, 255);fill-opacity:1.0;fill-rule:evenodd;stroke:rgb(0, 0, 0);stroke-width:3.0;" d="M 433.908, 230.284 L 423.52, 234.08 L 419.793, 224.861 L 427.913, 220.593 z "/>
<path style="fill:rgb(98, 138, 255);fill-opacity:1.0;fill-rule:evenodd;stroke:rgb(0, 0, 0);stroke-width:3.0;" d="M 337.037, 82.4433 L 315.959, 111.724 L 253.447, 172.75 L 285.35, 52.6107 z "/>
<path style="fill:rgb(6, 76, 249);fill-opacity:1.0;fill-rule:evenodd;stroke:rgb(0, 0, 0);stroke-width:3.0;" d="M 769.403, 136.631 L 768.251, 144.14 L 741.284, 143.588 L 740.869, 128.037 L 746.28, 117.098 L 753.995, 112.715 z "/>
<path style="fill:rgb(6, 76, 249);fill-opacity:1.0;fill-rule:evenodd;stroke:rgb(0, 0, 0);stroke-width:3.0;" d="M 163.525, 52.8783 L 160.599, 25.3183 L 171.864, 24.8764 z "/>
<path style="fill:rgb(249, 240, 14);fill-opacity:1.0;fill-rule:evenodd;stroke:rgb(0, 0, 0);stroke-width:3.0;" d="M 736.976, 347.967 L 738.581, 337.505 L 767.286, 334.222 z "/>
<path style="fill:rgb(85, 132, 255);fill-opacity:1.0;fill-rule:evenodd;stroke:rgb(0, 0, 0);stroke-width:3.0;" d="M 777.515, 83.761 L 775.676, 95.7463 L 763.608, 89.2496 L 769.624, 79.9786 z "/>
<path style="fill:rgb(85, 132, 255);fill-opacity:1.0;fill-rule:evenodd;stroke:rgb(0, 0, 0);stroke-width:3.0;" d="M 278.548, 534.652 L 265.72, 551.054 L 245.652, 557.496 L 248.789, 549.511 L 274.964, 534.083 z "/>
<path style="fill:rgb(85, 132, 255);fill-opacity:1.0;fill-rule:evenodd;stroke:rgb(0, 0, 0);stroke-width:3.0;" d="M 745.247, 378.251 L 728.228, 404.982 L 732.661, 376.087 L 745.576, 372.212 z "/>
<path style="fill:rgb(85, 132, 255);fill-opacity:1.0;fill-rule:evenodd;stroke:rgb(0, 0, 0);stroke-width:3.0;" d="M 794.824, 430.663 L 788.585, 438.328 L 747.131, 435.207 L 759.647, 425.078 z "/>
<path style="fill:rgb(187, 10, 44);fill-opacity:1.0;fill-rule:evenodd;stroke:rgb(0, 0, 0);stroke-width:3.0;" d="M 768.998, 389.667 L 729.099, 404.924 L 768.393, 384.265 z "/>
<path style="fill:rgb(187, 10, 44);fill-opacity:1.0;fill-rule:evenodd;stroke:rgb(0, 0, 0);stroke-width:3.0;" d="M 769.403, 136.631 L 753.995, 112.715 L 774.894, 100.842 z "/>
<path style="fill:rgb(187, 10, 44);fill-opacity:1.0;fill-rule:evenodd;stroke:rgb(0, 0, 0);stroke-width:3.0;" d="M 178.794, 172.118 L 179.897, 190.543 L 170.534, 191.624 L 160.118, 183.425 L 160.164, 175.204 L 173.767, 168.457 z "/>
<path style="fill:rgb(187, 10, 44);fill-opacity:1.0;fill-rule:evenodd;stroke:rgb(0, 0, 0);stroke-width:3.0;" d="M 464.424, 339.989 L 460.475, 346.493 L 380.958, 311.044 L 383.654, 306.862 L 420.864, 276.859 z "/>
<path style="fill:rgb(255, 79, 146);fill-opacity:1.0;fill-rule:evenodd;stroke:rgb(0, 0, 0);stroke-width:3.0;" d="M 305.404, 255.64 L 294.528, 277.529 L 279.46, 267.894 L 295.498, 247.72 z "/>
<path style="fill:rgb(255, 5, 255);fill-opacity:1.0;fill-rule:evenodd;stroke:rgb(0, 0, 0);stroke-width:3.0;" d="M 519.727, 183.34 L 499.263, 184.79 L 508.223, 177.161 L 517.11, 176.486 z "/>
<path style="fill:rgb(255, 5, 255);fill-opacity:1.0;fill-rule:evenodd;stroke:rgb(0, 0, 0);stroke-width:3.0;" d="M 781.507, 57.7463 L 777.755, 82.1981 L 754.095, 57.6467 L 774.374, 38.9675 z "/>
<path style="fill:rgb(246, 194, 199);fill-opacity:1.0;fill-rule:evenodd;stroke:rgb(0, 0, 0);stroke-width:3.0;" d="M 52.1386, 122.524 L 57.2146, 130.259 L 32.2661, 118.066 L 32.3166, 109.848 z "/>
<path style="fill:rgb(255, 255, 10);fill-opacity:1.0;fill-rule:evenodd;stroke:rgb(0, 0, 0);stroke-width:3.0;" d="M 408.241, 571.476 L 410.086, 590.129 L 387.461, 563.677 L 395.172, 556.531 L 399.669, 554.773 z "/>
<path style="fill:rgb(15, 0, 255);fill-opacity:1.0;fill-rule:evenodd;stroke:rgb(0, 0, 0);stroke-width:3.0;" d="M 738.891, 129.438 L 737.056, 143.501 L 620.235, 141.108 L 611.35, 97.9845 L 632.952, 62.4023 z "/>
<path style="fill:rgb(107, 194, 255);fill-opacity:1.0;fill-rule:evenodd;stroke:rgb(0, 0, 0);stroke-width:3.0;" d="M 142.305, 177.523 L 140.562, 179.07 L 66.0076, 131.393 L 93.2882, 67.9093 L 139.663, 56.5484 z "/>
<path style="fill:rgb(107, 194, 255);fill-opacity:1.0;fill-rule:evenodd;stroke:rgb(0, 0, 0);stroke-width:3.0;" d="M 101.726, 164.781 L 82.477, 168.753 L 79.8015, 164.676 L 100.801, 158.157 z "/>
<path style="fill:rgb(107, 194, 255);fill-opacity:1.0;fill-rule:evenodd;stroke:rgb(0, 0, 0);stroke-width:3.0;" d="M 783.897, 572.616 L 773.88, 579.985 L 759.592, 575.467 L 769.281, 571.068 L 783.049, 568.397 z "/>
<path style="fill:rgb(144, 105, 255);fill-opacity:1.0;fill-rule:evenodd;stroke:rgb(0, 0, 0);stroke-width:3.0;" d="M 340.718, 264.582 L 340.487, 266.551 L 329.362, 272.399 L 334.825, 251.022 z "/>
<path style="fill:rgb(168, 148, 255);fill-opacity:1.0;fill-rule:evenodd;stroke:rgb(0, 0, 0);stroke-width:3.0;" d="M 291.614, 501.072 L 291.491, 501.716 L 265.191, 507.755 L 273.143, 487.51 z "/>
<path style="fill:rgb(168, 148, 255);fill-opacity:1.0;fill-rule:evenodd;stroke:rgb(0, 0, 0);stroke-width:3.0;" d="M 488.724, 37.8101 L 465.282, 34.1603 L 468.148, 30.5551 L 483.283, 27.3029 z "/>
<path style="fill:rgb(168, 148, 255);fill-opacity:1.0;fill-rule:evenodd;stroke:rgb(0, 0, 0);stroke-width:3.0;" d="M 438.676, 135.042 L 428.743, 145.391 L 424.792, 131.482 L 443.074, 119.273 z "/>
<path style="fill:rgb(154, 192, 231);fill-opacity:1.0;fill-rule:evenodd;stroke:rgb(0, 0, 0);stroke-width:3.0;" d="M 326.517, 47.4509 L 404.455, 110.67 L 398.632, 117.995 L 276.337, 47.4086 z "/>
<path style="fill:rgb(154, 192, 231);fill-opacity:1.0;fill-rule:evenodd;stroke:rgb(0, 0, 0);stroke-width:3.0;" d="M 323.059, 286.173 L 387.662, 337.088 L 305.841, 284.764 L 312.667, 281.175 z "/>
<path style="fill:rgb(154, 192, 231);fill-opacity:1.0;fill-rule:evenodd;stroke:rgb(0, 0, 0);stroke-width:3.0;" d="M 782.103, 377.057 L 729.099, 404.924 L 728.183, 405.275 L 728.228, 404.982 L 729.498, 402.986 L 758.481, 364.895 z "/>
<path style="fill:rgb(154, 192, 231);fill-opacity:1.0;fill-rule:evenodd;stroke:rgb(0, 0, 0);stroke-width:3.0;" d="M 274.845, 92.1704 L 253.447, 172.75 L 204.857, 220.186 L 191.443, 211.608 L 190.189, 207.472 L 257.602, 81.5904 z "/>
<path style="fill:rgb(154, 192, 231);fill-opacity:1.0;fill-rule:evenodd;stroke:rgb(0, 0, 0);stroke-width:3.0;" d="M 387.617, 121.84 L 341.573, 141.324 L 318.217, 121.085 L 328.997, 96.8455 z "/>
<path style="fill:rgb(154, 192, 231);fill-opacity:1.0;fill-rule:evenodd;stroke:rgb(0, 0, 0);stroke-width:3.0;" d="M 460.475, 346.493 L 444.225, 373.259 L 418.068, 356.532 L 431.822, 333.72 z "/>
<path style="fill:rgb(146, 81, 231);fill-opacity:1.0;fill-rule:evenodd;stroke:rgb(0, 0, 0);stroke-width:3.0;" d="M 288.451, 517.657 L 265.044, 508.13 L 265.191, 507.755 L 291.491, 501.716 z "/>
<path style="fill:rgb(146, 81, 231);fill-opacity:1.0;fill-rule:evenodd;stroke:rgb(0, 0, 0);stroke-width:3.0;" d="M 431.822, 333.72 L 418.068, 356.532 L 411.962, 352.627 L 421.239, 329.002 z "/>
<path style="fill:rgb(215, 1, 246);fill-opacity:1.0;fill-rule:evenodd;stroke:rgb(0, 0, 0);stroke-width:3.0;" d="M 460.673, 325.972 L 443.874, 284.421 L 456.366, 283.67 z "/>
<path style="fill:rgb(226, 150, 144);fill-opacity:1.0;fill-rule:evenodd;stroke:rgb(0, 0, 0);stroke-width:3.0;" d="M 341.573, 141.324 L 274.096, 169.877 L 312.677, 116.284 z "/>
<path style="fill:rgb(255, 55, 88);fill-opacity:1.0;fill-rule:evenodd;stroke:rgb(0, 0, 0);stroke-width:3.0;" d="M 417.253, 104.943 L 397.17, 129.553 L 393.902, 123.945 L 412.198, 100.931 L 415.685, 99.4219 z "/>
<path style="fill:rgb(255, 55, 88);fill-opacity:1.0;fill-rule:evenodd;stroke:rgb(0, 0, 0);stroke-width:3.0;" d="M 162.591, 44.0769 L 146.614, 43.3803 L 159.811, 17.8962 z "/>
<path style="fill:rgb(246, 246, 56);fill-opacity:1.0;fill-rule:evenodd;stroke:rgb(0, 0, 0);stroke-width:3.0;" d="M 477.27, 19.0814 L 454.63, 47.5588 L 411.963, 47.5229 L 412.992, 31.0926 L 466.265, 9.32948 z "/>
<path style="fill:rgb(246, 246, 56);fill-opacity:1.0;fill-rule:evenodd;stroke:rgb(0, 0, 0);stroke-width:3.0;" d="M 228.813, 207.917 L 224.943, 233.03 L 209.881, 223.399 L 224.357, 204.726 z "/>
<path style="fill:rgb(246, 246, 56);fill-opacity:1.0;fill-rule:evenodd;stroke:rgb(0, 0, 0);stroke-width:3.0;" d="M 193.552, 338.008 L 76.4161, 354.177 L 86.2009, 174.428 z "/>
<path style="fill:rgb(56, 138, 255);fill-opacity:1.0;fill-rule:evenodd;stroke:rgb(0, 0, 0);stroke-width:3.0;" d="M 482.048, 145.53 L 483.743, 146.836 L 437.272, 169.477 L 420.562, 153.915 L 436.065, 137.763 z "/>
<path style="fill:rgb(56, 138, 255);fill-opacity:1.0;fill-rule:evenodd;stroke:rgb(0, 0, 0);stroke-width:3.0;" d="M 139.368, 43.0644 L 139.663, 56.5484 L 93.2882, 67.9093 L 96.7151, 59.9347 L 127.849, 42.5622 z "/>
<path style="fill:rgb(207, 21, 110);fill-opacity:1.0;fill-rule:evenodd;stroke:rgb(0, 0, 0);stroke-width:3.0;" d="M 744.385, 482.792 L 739.549, 490.972 L 717.113, 481.168 L 716.7, 480.108 L 717.128, 477.319 z "/>
<path style="fill:rgb(207, 21, 110);fill-opacity:1.0;fill-rule:evenodd;stroke:rgb(0, 0, 0);stroke-width:3.0;" d="M 547.568, 187.195 L 536.6, 180.152 L 535.825, 175.065 L 551.015, 173.912 z "/>
<path style="fill:rgb(207, 21, 110);fill-opacity:1.0;fill-rule:evenodd;stroke:rgb(0, 0, 0);stroke-width:3.0;" d="M 736.427, 441.044 L 736.369, 443.918 L 728.071, 450.634 L 723.072, 438.582 L 724.475, 429.436 z "/>
<path style="fill:rgb(255, 28, 16);fill-opacity:1.0;fill-rule:evenodd;stroke:rgb(0, 0, 0);stroke-width:3.0;" d="M 329.926, 300.166 L 293.629, 490.504 L 107.632, 207.084 L 100.109, 153.201 z "/>
<path style="fill:rgb(255, 15, 15);fill-opacity:1.0;fill-rule:evenodd;stroke:rgb(0, 0, 0);stroke-width:3.0;" d="M 418.247, 28.9458 L 372.854, 47.49 L 306.32, 47.4339 L 419.252, 20.0129 z "/>
<path style="fill:rgb(255, 199, 11);fill-opacity:1.0;fill-rule:evenodd;stroke:rgb(0, 0, 0);stroke-width:3.0;" d="M 775.446, 437.339 L 776.853, 451.796 L 748.478, 435.309 z "/>
<path style="fill:rgb(255, 199, 11);fill-opacity:1.0;fill-rule:evenodd;stroke:rgb(0, 0, 0);stroke-width:3.0;" d="M 457.712, 115.21 L 446.455, 126.938 L 441.054, 126.519 L 443.074, 119.273 L 452.19, 113.186 z "/>
<path style="fill:rgb(255, 199, 11);fill-opacity:1.0;fill-rule:evenodd;stroke:rgb(0, 0, 0);stroke-width:3.0;" d="M 242.381, 522.16 L 244.467, 560.515 L 236.783, 580.077 L 241.13, 521.655 z "/>
<path style="fill:rgb(255, 199, 11);fill-opacity:1.0;fill-rule:evenodd;stroke:rgb(0, 0, 0);stroke-width:3.0;" d="M 539.122, 196.712 L 539.447, 198.848 L 528.779, 207.051 L 524.131, 194.876 L 526.435, 188.957 L 532.084, 187.921 z "/>
<path style="fill:rgb(207, 3, 237);fill-opacity:1.0;fill-rule:evenodd;stroke:rgb(0, 0, 0);stroke-width:3.0;" d="M 767.195, 313.896 L 754.211, 303.646 L 754.376, 300.369 L 764.708, 287.209 z "/>
<path style="fill:rgb(252, 78, 223);fill-opacity:1.0;fill-rule:evenodd;stroke:rgb(0, 0, 0);stroke-width:3.0;" d="M 694.44, 514.047 L 674.351, 515.366 L 696.837, 493.25 L 714.081, 483.279 z "/>
<path style="fill:rgb(255, 255, 16);fill-opacity:1.0;fill-rule:evenodd;stroke:rgb(0, 0, 0);stroke-width:3.0;" d="M 301.02, 577.772 L 279.069, 566.856 L 281.158, 555.903 z "/>
<path style="fill:rgb(255, 255, 16);fill-opacity:1.0;fill-rule:evenodd;stroke:rgb(0, 0, 0);stroke-width:3.0;" d="M 380.958, 311.044 L 369.029, 305.726 L 366.164, 298.724 L 385.053, 276.599 L 409.268, 267.131 z "/>
<path style="fill:rgb(255, 25, 209);fill-opacity:1.0;fill-rule:evenodd;stroke:rgb(0, 0, 0);stroke-width:3.0;" d="M 370.053, 497.067 L 391.501, 538.857 L 342.821, 500.386 L 342.068, 495.246 z "/>
<path style="fill:rgb(255, 25, 209);fill-opacity:1.0;fill-rule:evenodd;stroke:rgb(0, 0, 0);stroke-width:3.0;" d="M 423.904, 128.358 L 424.296, 129.738 L 422.007, 137.255 L 402.874, 137.442 L 400.455, 135.189 L 397.17, 129.553 L 406.174, 118.52 z "/>
<path style="fill:rgb(255, 25, 209);fill-opacity:1.0;fill-rule:evenodd;stroke:rgb(0, 0, 0);stroke-width:3.0;" d="M 565.941, 172.779 L 565.632, 172.802 L 556.805, 126.357 L 639.125, 52.235 z "/>
<path style="fill:rgb(13, 76, 189);fill-opacity:1.0;fill-rule:evenodd;stroke:rgb(0, 0, 0);stroke-width:3.0;" d="M 524.233, 155.685 L 510.853, 167.733 L 472.562, 138.218 L 475.585, 96.5891 L 537.718, 31.8565 z "/>
<path style="fill:rgb(249, 255, 33);fill-opacity:1.0;fill-rule:evenodd;stroke:rgb(0, 0, 0);stroke-width:3.0;" d="M 238.876, 526.582 L 231.114, 565.62 L 188.496, 515.687 z "/>
<path style="fill:rgb(249, 255, 33);fill-opacity:1.0;fill-rule:evenodd;stroke:rgb(0, 0, 0);stroke-width:3.0;" d="M 754.487, 561.076 L 748.971, 563 L 726.085, 504.215 L 735.806, 496.73 z "/>
<path style="fill:rgb(209, 23, 231);fill-opacity:1.0;fill-rule:evenodd;stroke:rgb(0, 0, 0);stroke-width:3.0;" d="M 482.129, 192.819 L 476.543, 202.592 L 466.366, 192.24 L 477.574, 180.768 z "/>
<path style="fill:rgb(95, 255, 228);fill-opacity:1.0;fill-rule:evenodd;stroke:rgb(0, 0, 0);stroke-width:3.0;" d="M 397.817, 117.524 L 387.617, 121.84 L 376.196, 116.97 L 365.633, 98.9484 z "/>
<path style="fill:rgb(95, 255, 228);fill-opacity:1.0;fill-rule:evenodd;stroke:rgb(0, 0, 0);stroke-width:3.0;" d="M 707.283, 541.482 L 699.382, 592.979 L 677.761, 547.138 L 674.892, 520.768 z "/>
<path style="fill:rgb(255, 255, 132);fill-opacity:1.0;fill-rule:evenodd;stroke:rgb(0, 0, 0);stroke-width:3.0;" d="M 180.428, 199.412 L 180.593, 202.172 L 161.703, 192.589 L 160.071, 191.546 L 160.118, 183.425 z "/>
<path style="fill:rgb(60, 207, 255);fill-opacity:1.0;fill-rule:evenodd;stroke:rgb(0, 0, 0);stroke-width:3.0;" d="M 748.478, 435.309 L 776.853, 451.796 L 780.577, 490.059 L 737.537, 481.417 L 733.969, 445.86 L 747.131, 435.207 z "/>
<path style="fill:rgb(60, 207, 255);fill-opacity:1.0;fill-rule:evenodd;stroke:rgb(0, 0, 0);stroke-width:3.0;" d="M 365.633, 98.9484 L 373.221, 111.895 L 332.85, 98.488 L 327.216, 96.086 L 337.037, 82.4433 z "/>
<path style="fill:rgb(60, 207, 255);fill-opacity:1.0;fill-rule:evenodd;stroke:rgb(0, 0, 0);stroke-width:3.0;" d="M 458.379, 109.052 L 443.012, 119.315 L 420.317, 115.728 L 415.083, 97.3024 L 434.888, 72.3903 z "/>
<path style="fill:rgb(255, 255, 33);fill-opacity:1.0;fill-rule:evenodd;stroke:rgb(0, 0, 0);stroke-width:3.0;" d="M 741.932, 492.013 L 728.715, 502.19 L 720.571, 490.051 L 717.113, 481.168 z "/>
<path style="fill:rgb(255, 255, 33);fill-opacity:1.0;fill-rule:evenodd;stroke:rgb(0, 0, 0);stroke-width:3.0;" d="M 520.164, 50.145 L 507.782, 63.0453 L 485.623, 50.1231 L 480.843, 41.5808 z "/>
<path style="fill:rgb(231, 168, 25);fill-opacity:1.0;fill-rule:evenodd;stroke:rgb(0, 0, 0);stroke-width:3.0;" d="M 255.741, 441.764 L 238.876, 526.582 L 188.496, 515.687 L 157.274, 479.105 L 170.159, 426.279 z "/>
<path style="fill:rgb(231, 168, 25);fill-opacity:1.0;fill-rule:evenodd;stroke:rgb(0, 0, 0);stroke-width:3.0;" d="M 763.709, 349.253 L 735.05, 360.521 L 735.747, 355.978 L 757.082, 338.849 L 767.286, 334.222 L 773.75, 333.483 z "/>
<path style="fill:rgb(231, 168, 25);fill-opacity:1.0;fill-rule:evenodd;stroke:rgb(0, 0, 0);stroke-width:3.0;" d="M 762.616, 34.7931 L 763.62, 48.3418 L 750.759, 38.5037 L 751.5, 32.829 z "/>
<path style="fill:rgb(231, 168, 25);fill-opacity:1.0;fill-rule:evenodd;stroke:rgb(0, 0, 0);stroke-width:3.0;" d="M 617.656, 128.589 L 620.235, 141.108 L 600.734, 140.708 L 607.299, 121.967 z "/>
<path style="fill:rgb(9, 234, 231);fill-opacity:1.0;fill-rule:evenodd;stroke:rgb(0, 0, 0);stroke-width:3.0;" d="M 476.95, 95.1673 L 472.983, 99.3 L 470.443, 100.997 L 443.875, 61.0871 L 458.941, 42.1364 z "/>
<path style="fill:rgb(255, 209, 202);fill-opacity:1.0;fill-rule:evenodd;stroke:rgb(0, 0, 0);stroke-width:3.0;" d="M 507.782, 63.0453 L 476.95, 95.1673 L 458.941, 42.1364 L 463.054, 36.9623 z "/>
<path style="fill:rgb(237, 194, 60);fill-opacity:1.0;fill-rule:evenodd;stroke:rgb(0, 0, 0);stroke-width:3.0;" d="M 533.285, 218.853 L 497.783, 225.833 L 475.468, 205.051 L 480.043, 201.155 L 523.723, 193.806 z "/>
<path style="fill:rgb(184, 10, 92);fill-opacity:1.0;fill-rule:evenodd;stroke:rgb(0, 0, 0);stroke-width:3.0;" d="M 756.95, 60.6095 L 757.95, 74.3835 L 746.775, 69.0272 L 747.463, 63.7555 L 754.095, 57.6467 z "/>
<path style="fill:rgb(140, 255, 249);fill-opacity:1.0;fill-rule:evenodd;stroke:rgb(0, 0, 0);stroke-width:3.0;" d="M 228.536, 122.675 L 195.571, 130.233 L 208.487, 118.766 z "/>
<path style="fill:rgb(140, 255, 249);fill-opacity:1.0;fill-rule:evenodd;stroke:rgb(0, 0, 0);stroke-width:3.0;" d="M 761.189, 11.0806 L 773.441, 34.8878 L 773.441, 36.7057 L 751.5, 32.829 L 753.112, 20.4721 L 758.324, 9.76787 z "/>
<path style="fill:rgb(252, 194, 42);fill-opacity:1.0;fill-rule:evenodd;stroke:rgb(0, 0, 0);stroke-width:3.0;" d="M 164.202, 59.2467 L 166.95, 85.1265 L 140.002, 72.0849 L 139.595, 53.4469 z "/>
<path style="fill:rgb(252, 194, 42);fill-opacity:1.0;fill-rule:evenodd;stroke:rgb(0, 0, 0);stroke-width:3.0;" d="M 773.317, 100.783 L 763.177, 104.475 L 756.962, 96.1012 L 762.484, 89.6708 z "/>
<path style="fill:rgb(252, 194, 42);fill-opacity:1.0;fill-rule:evenodd;stroke:rgb(0, 0, 0);stroke-width:3.0;" d="M 127.849, 42.5622 L 96.7151, 59.9347 L 100.463, 51.2131 L 122.039, 42.3088 z "/>
<path style="fill:rgb(255, 19, 33);fill-opacity:1.0;fill-rule:evenodd;stroke:rgb(0, 0, 0);stroke-width:3.0;" d="M 366.538, 323.579 L 322.27, 403.963 L 314.892, 389.586 L 343.024, 308.542 z "/>
<path style="fill:rgb(154, 255, 223);fill-opacity:1.0;fill-rule:evenodd;stroke:rgb(0, 0, 0);stroke-width:3.0;" d="M 472.562, 138.218 L 465.584, 132.839 L 461.108, 117.819 L 475.285, 100.718 z "/>
<path style="fill:rgb(154, 255, 223);fill-opacity:1.0;fill-rule:evenodd;stroke:rgb(0, 0, 0);stroke-width:3.0;" d="M 741.171, 542.965 L 747.013, 557.969 L 739.034, 558.771 L 728.085, 555.053 L 735.439, 543.847 L 740.575, 542.514 z "/>
<path style="fill:rgb(154, 255, 223);fill-opacity:1.0;fill-rule:evenodd;stroke:rgb(0, 0, 0);stroke-width:3.0;" d="M 510.853, 167.733 L 499.66, 177.811 L 450.247, 181.562 L 437.272, 169.477 L 483.743, 146.836 z "/>
<path style="fill:rgb(243, 150, 255);fill-opacity:1.0;fill-rule:evenodd;stroke:rgb(0, 0, 0);stroke-width:3.0;" d="M 500.044, 39.5726 L 488.724, 37.8101 L 483.283, 27.3029 L 545.181, 14.0026 z "/>
<path style="fill:rgb(243, 150, 255);fill-opacity:1.0;fill-rule:evenodd;stroke:rgb(0, 0, 0);stroke-width:3.0;" d="M 607.299, 121.967 L 605.948, 125.823 L 588.609, 140.46 L 585.6, 140.398 L 597.218, 121.261 L 600.493, 117.616 z "/>
<path style="fill:rgb(240, 40, 15);fill-opacity:1.0;fill-rule:evenodd;stroke:rgb(0, 0, 0);stroke-width:3.0;" d="M 277.014, 84.0023 L 274.845, 92.1704 L 257.602, 81.5904 L 261.551, 74.2172 z "/>
<path style="fill:rgb(240, 40, 15);fill-opacity:1.0;fill-rule:evenodd;stroke:rgb(0, 0, 0);stroke-width:3.0;" d="M 394.803, 47.5084 L 398.696, 105.998 L 326.517, 47.4509 z "/>
<path style="fill:rgb(197, 249, 66);fill-opacity:1.0;fill-rule:evenodd;stroke:rgb(0, 0, 0);stroke-width:3.0;" d="M 784.153, 266.931 L 767.562, 317.825 L 762.053, 258.725 z "/>
<path style="fill:rgb(197, 249, 66);fill-opacity:1.0;fill-rule:evenodd;stroke:rgb(0, 0, 0);stroke-width:3.0;" d="M 420.043, 47.5297 L 425.534, 84.1569 L 404.455, 110.67 L 398.696, 105.998 L 394.803, 47.5084 z "/>
<path style="fill:rgb(255, 3, 33);fill-opacity:1.0;fill-rule:evenodd;stroke:rgb(0, 0, 0);stroke-width:3.0;" d="M 475.285, 100.718 L 455.256, 124.877 L 451.334, 121.855 L 475.585, 96.5891 z "/>
<path style="fill:rgb(255, 19, 70);fill-opacity:1.0;fill-rule:evenodd;stroke:rgb(0, 0, 0);stroke-width:3.0;" d="M 758.334, 414.151 L 754.229, 429.462 L 737.904, 442.675 L 738.165, 419.608 L 756.402, 413.57 z "/>
<path style="fill:rgb(199, 255, 12);fill-opacity:1.0;fill-rule:evenodd;stroke:rgb(0, 0, 0);stroke-width:3.0;" d="M 784.056, 349.378 L 774.033, 350.696 L 767.669, 343.034 L 768.32, 342.011 L 779.063, 340.716 z "/>
<path style="fill:rgb(199, 255, 12);fill-opacity:1.0;fill-rule:evenodd;stroke:rgb(0, 0, 0);stroke-width:3.0;" d="M 756.402, 413.57 L 738.165, 419.608 L 738.294, 408.129 z "/>
<path style="fill:rgb(252, 249, 46);fill-opacity:1.0;fill-rule:evenodd;stroke:rgb(0, 0, 0);stroke-width:3.0;" d="M 482.048, 145.53 L 436.065, 137.763 L 451.334, 121.855 z "/>
<path style="fill:rgb(255, 110, 9);fill-opacity:1.0;fill-rule:evenodd;stroke:rgb(0, 0, 0);stroke-width:3.0;" d="M 404.758, 253.518 L 362.623, 302.871 L 357.425, 300.553 L 382.815, 244.3 L 394.25, 238.289 z "/>
<path style="fill:rgb(255, 110, 9);fill-opacity:1.0;fill-rule:evenodd;stroke:rgb(0, 0, 0);stroke-width:3.0;" d="M 173.792, 149.568 L 153.951, 167.183 L 158.353, 145.277 L 171.893, 131.687 z "/>
<path style="fill:rgb(255, 110, 9);fill-opacity:1.0;fill-rule:evenodd;stroke:rgb(0, 0, 0);stroke-width:3.0;" d="M 306.255, 40.5812 L 304.101, 47.432 L 276.337, 47.4086 L 266.151, 41.5293 L 289.916, 30.5157 z "/>
<path style="fill:rgb(71, 199, 252);fill-opacity:1.0;fill-rule:evenodd;stroke:rgb(0, 0, 0);stroke-width:3.0;" d="M 515.467, 41.9739 L 516.794, 49.4109 L 466.438, 38.4434 L 473.339, 35.4148 z "/>
<path style="fill:rgb(255, 240, 12);fill-opacity:1.0;fill-rule:evenodd;stroke:rgb(0, 0, 0);stroke-width:3.0;" d="M 285.998, 153.344 L 227.471, 234.647 L 224.943, 233.03 L 230.532, 196.76 L 235.758, 190.019 L 304.829, 122.589 z "/>
<path style="fill:rgb(255, 240, 12);fill-opacity:1.0;fill-rule:evenodd;stroke:rgb(0, 0, 0);stroke-width:3.0;" d="M 288.451, 517.657 L 287.359, 523.386 L 278.548, 534.652 L 256.03, 531.077 L 260.258, 520.313 L 279.383, 513.966 z "/>
<path style="fill:rgb(61, 177, 217);fill-opacity:1.0;fill-rule:evenodd;stroke:rgb(0, 0, 0);stroke-width:3.0;" d="M 523.723, 193.806 L 480.043, 201.155 L 499.263, 184.79 L 519.727, 183.34 z "/>
<path style="fill:rgb(255, 7, 52);fill-opacity:1.0;fill-rule:evenodd;stroke:rgb(0, 0, 0);stroke-width:3.0;" d="M 526.377, 43.6724 L 500.044, 39.5726 L 545.181, 14.0026 L 557.369, 11.3836 z "/>
<path style="fill:rgb(255, 47, 69);fill-opacity:1.0;fill-rule:evenodd;stroke:rgb(0, 0, 0);stroke-width:3.0;" d="M 787.874, 356.002 L 774.75, 373.271 L 765.624, 368.572 L 764.324, 351.974 L 784.056, 349.378 z "/>
<path style="fill:rgb(255, 47, 69);fill-opacity:1.0;fill-rule:evenodd;stroke:rgb(0, 0, 0);stroke-width:3.0;" d="M 166.95, 85.1265 L 168.166, 96.5849 L 140.75, 106.348 L 140.002, 72.0849 z "/>
<path style="fill:rgb(255, 47, 69);fill-opacity:1.0;fill-rule:evenodd;stroke:rgb(0, 0, 0);stroke-width:3.0;" d="M 745.247, 378.251 L 746.459, 356.035 L 763.709, 349.253 z "/>
<path style="fill:rgb(255, 47, 69);fill-opacity:1.0;fill-rule:evenodd;stroke:rgb(0, 0, 0);stroke-width:3.0;" d="M 171.893, 131.687 L 141.96, 161.731 L 140.75, 106.348 L 168.166, 96.5849 z "/>
<path style="fill:rgb(234, 255, 30);fill-opacity:1.0;fill-rule:evenodd;stroke:rgb(0, 0, 0);stroke-width:3.0;" d="M 283.927, 51.7892 L 213.956, 113.91 L 182.564, 86.0748 L 246.131, 29.9741 z "/>
<path style="fill:rgb(255, 57, 209);fill-opacity:1.0;fill-rule:evenodd;stroke:rgb(0, 0, 0);stroke-width:3.0;" d="M 691.69, 576.67 L 699.382, 592.979 L 699.315, 593.413 L 680.791, 574.984 L 679.606, 564.092 z "/>
<path style="fill:rgb(255, 255, 74);fill-opacity:1.0;fill-rule:evenodd;stroke:rgb(0, 0, 0);stroke-width:3.0;" d="M 370.053, 497.067 L 342.068, 495.246 L 341.55, 491.715 L 365.512, 488.219 z "/>
<path style="fill:rgb(255, 255, 74);fill-opacity:1.0;fill-rule:evenodd;stroke:rgb(0, 0, 0);stroke-width:3.0;" d="M 746.879, 68.2358 L 738.891, 129.438 L 700.618, 105.22 L 733.087, 62.149 z "/>
<path style="fill:rgb(220, 130, 255);fill-opacity:1.0;fill-rule:evenodd;stroke:rgb(0, 0, 0);stroke-width:3.0;" d="M 733.087, 62.149 L 700.618, 105.22 L 632.952, 62.4023 L 654.234, 27.3489 z "/>
<path style="fill:rgb(255, 22, 81);fill-opacity:1.0;fill-rule:evenodd;stroke:rgb(0, 0, 0);stroke-width:3.0;" d="M 406.823, 326.459 L 408.605, 350.48 L 400.072, 345.023 L 397.529, 321.989 z "/>
<path style="fill:rgb(249, 255, 30);fill-opacity:1.0;fill-rule:evenodd;stroke:rgb(0, 0, 0);stroke-width:3.0;" d="M 752.842, 100.507 L 751.551, 106.177 L 740.567, 116.668 L 740.565, 116.613 L 742.733, 99.999 z "/>
<path style="fill:rgb(249, 255, 30);fill-opacity:1.0;fill-rule:evenodd;stroke:rgb(0, 0, 0);stroke-width:3.0;" d="M 236.589, 120.829 L 228.536, 122.675 L 208.487, 118.766 L 264.166, 69.3327 z "/>
<path style="fill:rgb(249, 255, 30);fill-opacity:1.0;fill-rule:evenodd;stroke:rgb(0, 0, 0);stroke-width:3.0;" d="M 565.632, 172.802 L 544.952, 174.372 L 519.627, 174.606 L 518.109, 161.2 L 556.805, 126.357 z "/>
<path style="fill:rgb(255, 16, 24);fill-opacity:1.0;fill-rule:evenodd;stroke:rgb(0, 0, 0);stroke-width:3.0;" d="M 274.964, 534.083 L 248.789, 549.511 L 254.292, 535.5 L 258.745, 531.508 z "/>
<path style="fill:rgb(255, 16, 24);fill-opacity:1.0;fill-rule:evenodd;stroke:rgb(0, 0, 0);stroke-width:3.0;" d="M 759.095, 44.8804 L 756.516, 55.4166 L 754.579, 57.2015 L 748.662, 54.5706 L 750.759, 38.5037 z "/>
<path style="fill:rgb(255, 16, 24);fill-opacity:1.0;fill-rule:evenodd;stroke:rgb(0, 0, 0);stroke-width:3.0;" d="M 394.447, 320.507 L 399.142, 344.429 L 387.662, 337.088 L 323.059, 286.173 z "/>
<path style="fill:rgb(209, 0, 255);fill-opacity:1.0;fill-rule:evenodd;stroke:rgb(0, 0, 0);stroke-width:3.0;" d="M 162.591, 44.0769 L 164.202, 59.2467 L 139.595, 53.4469 L 139.368, 43.0644 z "/>
<path style="fill:rgb(255, 8, 126);fill-opacity:1.0;fill-rule:evenodd;stroke:rgb(0, 0, 0);stroke-width:3.0;" d="M 26.5609, 106.167 L 32.3166, 109.848 L 32.2661, 118.066 L 19.3382, 111.748 L 12.5721, 102.406 z "/>
<path style="fill:rgb(62, 15, 179);fill-opacity:1.0;fill-rule:evenodd;stroke:rgb(0, 0, 0);stroke-width:3.0;" d="M 338.593, 193.514 L 279.46, 267.894 L 227.471, 234.647 L 274.096, 169.877 L 288.071, 163.964 z "/>
<path style="fill:rgb(255, 170, 9);fill-opacity:1.0;fill-rule:evenodd;stroke:rgb(0, 0, 0);stroke-width:3.0;" d="M 310.243, 26.3084 L 310.506, 27.0648 L 306.255, 40.5812 L 282.743, 26.0967 z "/>
<path style="fill:rgb(128, 255, 255);fill-opacity:1.0;fill-rule:evenodd;stroke:rgb(0, 0, 0);stroke-width:3.0;" d="M 285.35, 52.6107 L 277.014, 84.0023 L 261.551, 74.2172 L 264.166, 69.3327 L 283.927, 51.7892 z "/>
<path style="fill:rgb(128, 255, 255);fill-opacity:1.0;fill-rule:evenodd;stroke:rgb(0, 0, 0);stroke-width:3.0;" d="M 777.755, 82.1981 L 777.515, 83.761 L 762.657, 76.6396 L 757.306, 65.5033 L 756.95, 60.6095 z "/>
<path style="fill:rgb(170, 30, 132);fill-opacity:1.0;fill-rule:evenodd;stroke:rgb(0, 0, 0);stroke-width:3.0;" d="M 304.526, 283.923 L 303.823, 283.473 L 314.276, 237.785 L 322.719, 220.793 z "/>
<path style="fill:rgb(255, 142, 13);fill-opacity:1.0;fill-rule:evenodd;stroke:rgb(0, 0, 0);stroke-width:3.0;" d="M 454.285, 263.224 L 456.035, 280.413 L 442.146, 280.148 L 423.52, 234.08 L 433.908, 230.284 z "/>
<path style="fill:rgb(252, 67, 33);fill-opacity:1.0;fill-rule:evenodd;stroke:rgb(0, 0, 0);stroke-width:3.0;" d="M 282.743, 26.0967 L 289.916, 30.5157 L 266.151, 41.5293 L 260.195, 38.0915 L 274.825, 26.0357 z "/>
<path style="fill:rgb(220, 255, 7);fill-opacity:1.0;fill-rule:evenodd;stroke:rgb(0, 0, 0);stroke-width:3.0;" d="M 365.405, 518.234 L 332.009, 549.678 L 296.702, 549.742 L 289.104, 514.235 L 292.02, 498.942 L 333.361, 492.91 z "/>
<path style="fill:rgb(192, 50, 44);fill-opacity:1.0;fill-rule:evenodd;stroke:rgb(0, 0, 0);stroke-width:3.0;" d="M 398.304, 552.113 L 398.831, 553.141 L 390.395, 560.958 L 343.517, 554.799 L 365.023, 551.35 z "/>
<path style="fill:rgb(197, 4, 182);fill-opacity:1.0;fill-rule:evenodd;stroke:rgb(0, 0, 0);stroke-width:3.0;" d="M 740.575, 542.514 L 723.932, 546.834 L 711.666, 542.497 L 722.609, 528.933 z "/>
<path style="fill:rgb(197, 4, 182);fill-opacity:1.0;fill-rule:evenodd;stroke:rgb(0, 0, 0);stroke-width:3.0;" d="M 207.259, 116.535 L 181.733, 132.371 L 170.141, 115.185 L 168.379, 98.5929 L 180.409, 87.976 z "/>
<path style="fill:rgb(92, 226, 240);fill-opacity:1.0;fill-rule:evenodd;stroke:rgb(0, 0, 0);stroke-width:3.0;" d="M 102.356, 169.293 L 107.632, 207.084 L 82.477, 168.753 L 91.1917, 166.955 z "/>
<path style="fill:rgb(255, 1, 57);fill-opacity:1.0;fill-rule:evenodd;stroke:rgb(0, 0, 0);stroke-width:3.0;" d="M 722.135, 560.318 L 719.866, 583.536 L 705.981, 580.656 L 702.687, 571.437 L 705.966, 550.064 z "/>
<path style="fill:rgb(255, 30, 12);fill-opacity:1.0;fill-rule:evenodd;stroke:rgb(0, 0, 0);stroke-width:3.0;" d="M 763.251, 401.831 L 746.725, 405.877 L 745.435, 398.678 L 759.008, 393.487 z "/>
<path style="fill:rgb(255, 13, 57);fill-opacity:1.0;fill-rule:evenodd;stroke:rgb(0, 0, 0);stroke-width:3.0;" d="M 317.46, 255.582 L 309.801, 265.62 L 322.719, 220.793 L 322.757, 220.717 z "/>
<path style="fill:rgb(197, 246, 7);fill-opacity:1.0;fill-rule:evenodd;stroke:rgb(0, 0, 0);stroke-width:3.0;" d="M 247.728, 524.321 L 250.741, 544.542 L 244.467, 560.515 L 242.381, 522.16 z "/>
<path style="fill:rgb(25, 124, 255);fill-opacity:1.0;fill-rule:evenodd;stroke:rgb(0, 0, 0);stroke-width:3.0;" d="M 435.253, 21.9986 L 418.247, 28.9458 L 419.252, 20.0129 L 432.829, 16.7165 z "/>
<path style="fill:rgb(252, 255, 28);fill-opacity:1.0;fill-rule:evenodd;stroke:rgb(0, 0, 0);stroke-width:3.0;" d="M 398.632, 117.995 L 338.593, 193.514 L 328.747, 187.756 L 329.698, 161.88 L 364.223, 131.74 L 397.817, 117.524 z "/>
<path style="fill:rgb(11, 121, 249);fill-opacity:1.0;fill-rule:evenodd;stroke:rgb(0, 0, 0);stroke-width:3.0;" d="M 411.963, 47.5229 L 395.38, 47.5089 L 412.763, 34.7505 z "/>
<path style="fill:rgb(252, 75, 192);fill-opacity:1.0;fill-rule:evenodd;stroke:rgb(0, 0, 0);stroke-width:3.0;" d="M 412.763, 34.7505 L 395.38, 47.5089 L 372.854, 47.49 L 412.992, 31.0926 z "/>
<path style="fill:rgb(240, 114, 11);fill-opacity:1.0;fill-rule:evenodd;stroke:rgb(0, 0, 0);stroke-width:3.0;" d="M 328.879, 184.158 L 319.527, 182.363 L 311.569, 177.708 L 329.698, 161.88 z "/>
<path style="fill:rgb(46, 28, 197);fill-opacity:1.0;fill-rule:evenodd;stroke:rgb(0, 0, 0);stroke-width:3.0;" d="M 357.425, 300.553 L 313.259, 280.864 L 382.815, 244.3 z "/>
<path style="fill:rgb(83, 226, 212);fill-opacity:1.0;fill-rule:evenodd;stroke:rgb(0, 0, 0);stroke-width:3.0;" d="M 785.436, 262.994 L 784.153, 266.931 L 762.053, 258.725 L 761.697, 254.905 L 777.306, 248.137 z "/>
<path style="fill:rgb(165, 217, 30);fill-opacity:1.0;fill-rule:evenodd;stroke:rgb(0, 0, 0);stroke-width:3.0;" d="M 412.994, 283.204 L 383.654, 306.862 L 411.237, 264.078 z "/>
<path style="fill:rgb(246, 2, 19);fill-opacity:1.0;fill-rule:evenodd;stroke:rgb(0, 0, 0);stroke-width:3.0;" d="M 745.576, 372.212 L 732.661, 376.087 L 735.05, 360.521 L 746.459, 356.035 z "/>
<path style="fill:rgb(243, 161, 35);fill-opacity:1.0;fill-rule:evenodd;stroke:rgb(0, 0, 0);stroke-width:3.0;" d="M 417.736, 151.283 L 402.874, 137.442 L 422.007, 137.255 z "/>
<path style="fill:rgb(255, 165, 234);fill-opacity:1.0;fill-rule:evenodd;stroke:rgb(0, 0, 0);stroke-width:3.0;" d="M 793.822, 225.745 L 773.98, 228.61 L 776.533, 208.373 z "/>
<path style="fill:rgb(255, 100, 240);fill-opacity:1.0;fill-rule:evenodd;stroke:rgb(0, 0, 0);stroke-width:3.0;" d="M 470.443, 100.997 L 458.379, 109.052 L 442.368, 84.0641 L 440.72, 65.0555 L 443.875, 61.0871 z "/>
<path style="fill:rgb(240, 182, 8);fill-opacity:1.0;fill-rule:evenodd;stroke:rgb(0, 0, 0);stroke-width:3.0;" d="M 100.109, 153.201 L 100.801, 158.157 L 79.8015, 164.676 L 52.1386, 122.524 z "/>
<path style="fill:rgb(204, 46, 112);fill-opacity:1.0;fill-rule:evenodd;stroke:rgb(0, 0, 0);stroke-width:3.0;" d="M 612.709, 104.58 L 617.656, 128.589 L 611.803, 124.847 L 610.666, 122.06 L 608.276, 104.243 z "/>
<path style="fill:rgb(204, 46, 112);fill-opacity:1.0;fill-rule:evenodd;stroke:rgb(0, 0, 0);stroke-width:3.0;" d="M 261.886, 516.17 L 257.183, 528.142 L 239.951, 521.178 L 252.696, 457.079 z "/>
<path style="fill:rgb(231, 226, 35);fill-opacity:1.0;fill-rule:evenodd;stroke:rgb(0, 0, 0);stroke-width:3.0;" d="M 280.078, 469.855 L 261.886, 516.17 L 252.696, 457.079 L 257.113, 434.861 z "/>
<path style="fill:rgb(255, 35, 150);fill-opacity:1.0;fill-rule:evenodd;stroke:rgb(0, 0, 0);stroke-width:3.0;" d="M 182.189, 51.5107 L 190.597, 78.9845 L 168.379, 98.5929 L 163.525, 52.8783 L 170.073, 30.8924 z "/>
<path style="fill:rgb(10, 60, 249);fill-opacity:1.0;fill-rule:evenodd;stroke:rgb(0, 0, 0);stroke-width:3.0;" d="M 208.961, 118.345 L 186.014, 138.718 L 184.103, 135.885 L 187.68, 128.681 L 207.259, 116.535 z "/>
<path style="fill:rgb(255, 41, 255);fill-opacity:1.0;fill-rule:evenodd;stroke:rgb(0, 0, 0);stroke-width:3.0;" d="M 520.746, 247.22 L 465.574, 338.095 L 460.673, 325.972 L 453.086, 251.455 L 490.269, 218.836 z "/>
<path style="fill:rgb(37, 121, 255);fill-opacity:1.0;fill-rule:evenodd;stroke:rgb(0, 0, 0);stroke-width:3.0;" d="M 490.269, 218.836 L 453.086, 251.455 L 448.825, 209.6 L 468.978, 199.006 z "/>
<path style="fill:rgb(249, 16, 17);fill-opacity:1.0;fill-rule:evenodd;stroke:rgb(0, 0, 0);stroke-width:3.0;" d="M 153.951, 167.183 L 142.305, 177.523 L 141.96, 161.731 L 158.353, 145.277 z "/>
</svg>