<?xml version="1.0" encoding="iso-8859-1" standalone="no"?>
<!DOCTYPE svg PUBLIC "-//W3C//DTD SVG 1.0//EN" "http://www.w3.org/TR/2001/REC-SVG-20010904/DTD/svg10.dtd">
<svg xmlns="http://www.w3.org/2000/svg" width="800" height="600">
<path style="fill:rgb(0, 0, 0);fill-opacity:0.0;fill-rule:evenodd;stroke:rgb(0, 0, 0);stroke-width:0.0;" d="M 0, 600 L 800, 600 L 800, 0 L 0, 0 z "/>
<path style="fill:rgb(33, 107, 207);fill-opacity:1.0;fill-rule:evenodd;stroke:rgb(0, 0, 0);stroke-width:3.0;" d="M 127.76, 358.322 L 128.709, 375.411 L 114.023, 348.647 z "/>
<path style="fill:rgb(33, 107, 207);fill-opacity:1.0;fill-rule:evenodd;stroke:rgb(0, 0, 0);stroke-width:3.0;" d="M 558.173, 92.6595 L 543.1, 76.005 L 559.325, 73.0073 z "/>
<path style="fill:rgb(33, 107, 207);fill-opacity:1.0;fill-rule:evenodd;stroke:rgb(0, 0, 0);stroke-width:3.0;" d="M 706.957, 450.552 L 668.614, 483.22 L 639.802, 424.919 L 655.817, 419.204 z "/>
<path style="fill:rgb(33, 107, 207);fill-opacity:1.0;fill-rule:evenodd;stroke:rgb(0, 0, 0);stroke-width:3.0;" d="M 714.502, 455.177 L 706.574, 463.516 L 694.934, 460.796 L 706.957, 450.552 z "/>
<path style="fill:rgb(33, 107, 207);fill-opacity:1.0;fill-rule:evenodd;stroke:rgb(0, 0, 0);stroke-width:3.0;" d="M 194.562, 405.124 L 181.816, 411.278 L 147.84, 393.975 L 195.834, 316.476 z "/>
<path style="fill:rgb(33, 107, 207);fill-opacity:1.0;fill-rule:evenodd;stroke:rgb(0, 0, 0);stroke-width:3.0;" d="M 111.52, 224.171 L 48.1556, 241.159 L 99.5418, 191.753 L 125.012, 187.816 z "/>
<path style="fill:rgb(33, 107, 207);fill-opacity:1.0;fill-rule:evenodd;stroke:rgb(0, 0, 0);stroke-width:3.0;" d="M 316.019, 224.083 L 283.027, 219.047 L 319.453, 190.138 z "/>
<path style="fill:rgb(33, 107, 207);fill-opacity:1.0;fill-rule:evenodd;stroke:rgb(0, 0, 0);stroke-width:3.0;" d="M 138.502, 105.193 L 140.237, 106.359 L 71.1416, 112.735 L 62.0398, 104.63 L 76.3584, 93.7948 z "/>
<path style="fill:rgb(33, 107, 207);fill-opacity:1.0;fill-rule:evenodd;stroke:rgb(0, 0, 0);stroke-width:3.0;" d="M 356.104, 270.448 L 207.097, 319.651 L 187.961, 310.835 L 219.024, 269.841 L 237.149, 255.456 z "/>
<path style="fill:rgb(255, 249, 15);fill-opacity:1.0;fill-rule:evenodd;stroke:rgb(0, 0, 0);stroke-width:3.0;" d="M 431.961, 251.834 L 418.969, 339.894 L 376.218, 263.806 L 429.301, 246.278 z "/>
<path style="fill:rgb(255, 3, 22);fill-opacity:1.0;fill-rule:evenodd;stroke:rgb(0, 0, 0);stroke-width:3.0;" d="M 766.984, 116.928 L 753.727, 384.265 L 635.175, 426.57 L 500.272, 285.083 L 593.244, 37.3829 z "/>
<path style="fill:rgb(255, 3, 22);fill-opacity:1.0;fill-rule:evenodd;stroke:rgb(0, 0, 0);stroke-width:3.0;" d="M 28.4106, 447.94 L 7.8088, 431.032 L 44.2612, 400.422 z "/>
<path style="fill:rgb(255, 3, 22);fill-opacity:1.0;fill-rule:evenodd;stroke:rgb(0, 0, 0);stroke-width:3.0;" d="M 351.493, 149.197 L 334.314, 148.986 L 337.924, 142.552 L 361.886, 125.898 z "/>
<path style="fill:rgb(255, 3, 22);fill-opacity:1.0;fill-rule:evenodd;stroke:rgb(0, 0, 0);stroke-width:3.0;" d="M 413.678, 31.1351 L 396.085, 34.2525 L 409.728, 23.6113 L 436.471, 13.9309 z "/>
<path style="fill:rgb(255, 3, 22);fill-opacity:1.0;fill-rule:evenodd;stroke:rgb(0, 0, 0);stroke-width:3.0;" d="M 381.245, 187.582 L 361.789, 189.355 L 367.651, 173.483 L 368.11, 173.329 z "/>
<path style="fill:rgb(255, 3, 22);fill-opacity:1.0;fill-rule:evenodd;stroke:rgb(0, 0, 0);stroke-width:3.0;" d="M 239.103, 116.391 L 238.44, 118.338 L 202.494, 148.124 L 232.259, 99.565 z "/>
<path style="fill:rgb(255, 3, 22);fill-opacity:1.0;fill-rule:evenodd;stroke:rgb(0, 0, 0);stroke-width:3.0;" d="M 153.83, 295.109 L 123.928, 281.333 L 138.834, 255.558 z "/>
<path style="fill:rgb(255, 3, 22);fill-opacity:1.0;fill-rule:evenodd;stroke:rgb(0, 0, 0);stroke-width:3.0;" d="M 75.3946, 307.087 L 42.3914, 318.545 L 24.4111, 288.757 L 83.9828, 281.341 z "/>
<path style="fill:rgb(255, 231, 21);fill-opacity:1.0;fill-rule:evenodd;stroke:rgb(0, 0, 0);stroke-width:3.0;" d="M 535.241, 191.918 L 534.112, 194.926 L 526.298, 182.455 L 526.727, 181.131 L 538.655, 176.837 z "/>
<path style="fill:rgb(255, 231, 21);fill-opacity:1.0;fill-rule:evenodd;stroke:rgb(0, 0, 0);stroke-width:3.0;" d="M 154.311, 478.677 L 89.752, 480.768 L 86.7039, 426.33 z "/>
<path style="fill:rgb(255, 231, 21);fill-opacity:1.0;fill-rule:evenodd;stroke:rgb(0, 0, 0);stroke-width:3.0;" d="M 110.401, 131.96 L 87.4939, 140.252 L 70.9178, 112.756 L 129.805, 107.322 z "/>
<path style="fill:rgb(234, 32, 11);fill-opacity:1.0;fill-rule:evenodd;stroke:rgb(0, 0, 0);stroke-width:3.0;" d="M 191.718, 40.3091 L 184.365, 39.0923 L 195.564, 9.36877 z "/>
<path style="fill:rgb(255, 246, 194);fill-opacity:1.0;fill-rule:evenodd;stroke:rgb(0, 0, 0);stroke-width:3.0;" d="M 577.351, 79.7253 L 574.104, 88.3763 L 568.802, 83.2114 L 549.691, 39.7854 L 582.156, 37.7771 z "/>
<path style="fill:rgb(255, 246, 194);fill-opacity:1.0;fill-rule:evenodd;stroke:rgb(0, 0, 0);stroke-width:3.0;" d="M 442.37, 439.348 L 409.403, 527.178 L 194.382, 417.677 L 194.603, 402.275 z "/>
<path style="fill:rgb(78, 3, 223);fill-opacity:1.0;fill-rule:evenodd;stroke:rgb(0, 0, 0);stroke-width:3.0;" d="M 35.061, 106.987 L 35.3552, 110.718 L 29.6487, 117.555 L 21.8719, 98.3546 z "/>
<path style="fill:rgb(78, 3, 223);fill-opacity:1.0;fill-rule:evenodd;stroke:rgb(0, 0, 0);stroke-width:3.0;" d="M 57.2428, 252.872 L 79.1606, 278.742 L 78.8736, 279.675 L 69.0486, 278.608 L 52.5661, 252.406 z "/>
<path style="fill:rgb(78, 3, 223);fill-opacity:1.0;fill-rule:evenodd;stroke:rgb(0, 0, 0);stroke-width:3.0;" d="M 55.5879, 10.8365 L 53.5697, 15.197 L 21.1986, 11.9858 L 20.8545, 10.72 L 49.5359, 5.95208 z "/>
<path style="fill:rgb(78, 3, 223);fill-opacity:1.0;fill-rule:evenodd;stroke:rgb(0, 0, 0);stroke-width:3.0;" d="M 695.571, 475.089 L 690.319, 480.613 L 682.285, 484.847 L 680.445, 481.26 L 681.987, 471.826 L 687.255, 467.338 z "/>
<path style="fill:rgb(78, 3, 223);fill-opacity:1.0;fill-rule:evenodd;stroke:rgb(0, 0, 0);stroke-width:3.0;" d="M 12.3381, 496.124 L 11.1519, 495.671 L 13.2895, 479.68 L 25.9334, 455.367 z "/>
<path style="fill:rgb(79, 8, 209);fill-opacity:1.0;fill-rule:evenodd;stroke:rgb(0, 0, 0);stroke-width:3.0;" d="M 358.974, 105.03 L 350.417, 120.283 L 348.986, 112.882 L 351.43, 98.0042 z "/>
<path style="fill:rgb(79, 8, 209);fill-opacity:1.0;fill-rule:evenodd;stroke:rgb(0, 0, 0);stroke-width:3.0;" d="M 469.11, 361.396 L 460.687, 376.825 L 458.308, 377.231 L 450.625, 377.244 L 449.912, 376.124 L 450.818, 369.786 L 471.831, 353.94 z "/>
<path style="fill:rgb(79, 8, 209);fill-opacity:1.0;fill-rule:evenodd;stroke:rgb(0, 0, 0);stroke-width:3.0;" d="M 89.8092, 481.788 L 74.2645, 486.91 L 63.2561, 453.141 L 86.493, 422.563 z "/>
<path style="fill:rgb(79, 8, 209);fill-opacity:1.0;fill-rule:evenodd;stroke:rgb(0, 0, 0);stroke-width:3.0;" d="M 445.625, 430.676 L 442.37, 439.348 L 386.601, 431.003 L 337.673, 397.163 z "/>
<path style="fill:rgb(255, 12, 66);fill-opacity:1.0;fill-rule:evenodd;stroke:rgb(0, 0, 0);stroke-width:3.0;" d="M 444.439, 429.001 L 423.036, 419.14 L 463.588, 376.331 L 463.664, 376.318 z "/>
<path style="fill:rgb(217, 50, 255);fill-opacity:1.0;fill-rule:evenodd;stroke:rgb(0, 0, 0);stroke-width:3.0;" d="M 316.376, 57.4024 L 297.19, 64.3474 L 293.111, 51.6112 L 314.883, 46.0838 z "/>
<path style="fill:rgb(217, 50, 255);fill-opacity:1.0;fill-rule:evenodd;stroke:rgb(0, 0, 0);stroke-width:3.0;" d="M 527.306, 213.057 L 517.522, 229.762 L 514.542, 226.12 L 514.337, 217.735 L 529.565, 207.039 z "/>
<path style="fill:rgb(217, 50, 255);fill-opacity:1.0;fill-rule:evenodd;stroke:rgb(0, 0, 0);stroke-width:3.0;" d="M 300.066, 84.3259 L 288.311, 85.7361 L 331.843, 66.8641 L 336.438, 66.6483 z "/>
<path style="fill:rgb(13, 212, 175);fill-opacity:1.0;fill-rule:evenodd;stroke:rgb(0, 0, 0);stroke-width:3.0;" d="M 86.493, 422.563 L 81.8171, 428.716 L 68.3231, 425.142 L 85.9812, 413.423 z "/>
<path style="fill:rgb(13, 212, 175);fill-opacity:1.0;fill-rule:evenodd;stroke:rgb(0, 0, 0);stroke-width:3.0;" d="M 423.171, 369.754 L 424.004, 376.445 L 423.75, 379.67 L 420.551, 383.663 L 412.304, 385.068 L 415.36, 364.353 z "/>
<path style="fill:rgb(13, 212, 175);fill-opacity:1.0;fill-rule:evenodd;stroke:rgb(0, 0, 0);stroke-width:3.0;" d="M 328.914, 158.613 L 328.266, 159.767 L 307.686, 173.055 L 298.375, 166.68 L 301.278, 161.291 L 316.205, 141.591 L 317.493, 141.286 z "/>
<path style="fill:rgb(255, 35, 11);fill-opacity:1.0;fill-rule:evenodd;stroke:rgb(0, 0, 0);stroke-width:3.0;" d="M 354.229, 159.457 L 332.189, 164.918 L 339.509, 153.524 L 344.555, 150.716 z "/>
<path style="fill:rgb(255, 35, 11);fill-opacity:1.0;fill-rule:evenodd;stroke:rgb(0, 0, 0);stroke-width:3.0;" d="M 97.8562, 38.0781 L 93.6442, 66.3788 L 85.4681, 29.086 z "/>
<path style="fill:rgb(255, 4, 59);fill-opacity:1.0;fill-rule:evenodd;stroke:rgb(0, 0, 0);stroke-width:3.0;" d="M 61.1862, 349.683 L 52.4934, 335.281 L 66.4004, 334.051 z "/>
<path style="fill:rgb(255, 74, 19);fill-opacity:1.0;fill-rule:evenodd;stroke:rgb(0, 0, 0);stroke-width:3.0;" d="M 543.118, 110.065 L 528.082, 130.42 L 522.479, 100.232 L 524.628, 85.1366 z "/>
<path style="fill:rgb(255, 74, 19);fill-opacity:1.0;fill-rule:evenodd;stroke:rgb(0, 0, 0);stroke-width:3.0;" d="M 125.036, 309.264 L 127.273, 349.542 L 80.6399, 291.362 L 82.8963, 284.598 z "/>
<path style="fill:rgb(255, 197, 9);fill-opacity:1.0;fill-rule:evenodd;stroke:rgb(0, 0, 0);stroke-width:3.0;" d="M 75.6231, 346.811 L 77.7853, 366.134 L 64.1165, 355.572 L 73.8934, 346.436 z "/>
<path style="fill:rgb(255, 197, 9);fill-opacity:1.0;fill-rule:evenodd;stroke:rgb(0, 0, 0);stroke-width:3.0;" d="M 190.213, 166.714 L 144.459, 245.832 L 144.081, 224.363 L 179.916, 157.467 z "/>
<path style="fill:rgb(252, 220, 11);fill-opacity:1.0;fill-rule:evenodd;stroke:rgb(0, 0, 0);stroke-width:3.0;" d="M 304.625, 201.906 L 283.997, 218.277 L 261.62, 213.627 L 277.685, 192.427 L 298.12, 179.232 L 317.638, 178.712 z "/>
<path style="fill:rgb(255, 144, 30);fill-opacity:1.0;fill-rule:evenodd;stroke:rgb(0, 0, 0);stroke-width:3.0;" d="M 294.551, 56.1069 L 294.964, 57.3954 L 214.302, 44.0467 L 244.726, 41.3835 z "/>
<path style="fill:rgb(255, 144, 30);fill-opacity:1.0;fill-rule:evenodd;stroke:rgb(0, 0, 0);stroke-width:3.0;" d="M 136.89, 385.516 L 129.199, 384.241 L 124.328, 296.51 z "/>
<path style="fill:rgb(45, 255, 234);fill-opacity:1.0;fill-rule:evenodd;stroke:rgb(0, 0, 0);stroke-width:3.0;" d="M 327.771, 266.877 L 244.495, 256.382 L 330.268, 242.207 z "/>
<path style="fill:rgb(45, 255, 234);fill-opacity:1.0;fill-rule:evenodd;stroke:rgb(0, 0, 0);stroke-width:3.0;" d="M 270.576, 201.808 L 187.961, 310.835 L 153.83, 295.109 L 138.834, 255.558 L 193.498, 161.033 z "/>
<path style="fill:rgb(45, 255, 234);fill-opacity:1.0;fill-rule:evenodd;stroke:rgb(0, 0, 0);stroke-width:3.0;" d="M 93.6442, 66.3788 L 92.3454, 75.1055 L 52.2113, 52.4656 L 88.3388, 42.18 z "/>
<path style="fill:rgb(209, 144, 6);fill-opacity:1.0;fill-rule:evenodd;stroke:rgb(0, 0, 0);stroke-width:3.0;" d="M 337.673, 397.163 L 383.258, 428.691 L 194.624, 400.796 L 195.311, 352.969 z "/>
<path style="fill:rgb(243, 112, 10);fill-opacity:1.0;fill-rule:evenodd;stroke:rgb(0, 0, 0);stroke-width:3.0;" d="M 141.473, 229.231 L 130.43, 249.848 L 122.02, 251.678 L 125.573, 229.078 L 138.95, 209.053 z "/>
<path style="fill:rgb(234, 237, 9);fill-opacity:1.0;fill-rule:evenodd;stroke:rgb(0, 0, 0);stroke-width:3.0;" d="M 68.9378, 326.444 L 66.4004, 334.051 L 52.6243, 335.27 L 48.8169, 322.609 z "/>
<path style="fill:rgb(255, 10, 67);fill-opacity:1.0;fill-rule:evenodd;stroke:rgb(0, 0, 0);stroke-width:3.0;" d="M 45.9431, 131.321 L 53.76, 146.725 L 38.7563, 153.85 L 36.9702, 131.199 z "/>
<path style="fill:rgb(255, 10, 67);fill-opacity:1.0;fill-rule:evenodd;stroke:rgb(0, 0, 0);stroke-width:3.0;" d="M 51.0129, 492.275 L 39.0926, 498.501 L 25.3425, 503.032 L 44.2975, 478.089 z "/>
<path style="fill:rgb(255, 10, 67);fill-opacity:1.0;fill-rule:evenodd;stroke:rgb(0, 0, 0);stroke-width:3.0;" d="M 465.951, 129.94 L 473.423, 155.572 L 458.509, 139.602 L 452.563, 132.1 L 458.435, 128.057 z "/>
<path style="fill:rgb(255, 11, 14);fill-opacity:1.0;fill-rule:evenodd;stroke:rgb(0, 0, 0);stroke-width:3.0;" d="M 373.565, 273.165 L 392.174, 292.206 L 418.969, 339.894 L 408.28, 412.342 L 207.097, 319.651 L 349.131, 272.751 z "/>
<path style="fill:rgb(255, 11, 14);fill-opacity:1.0;fill-rule:evenodd;stroke:rgb(0, 0, 0);stroke-width:3.0;" d="M 531.198, 317.518 L 510.525, 471.05 L 418.09, 504.035 L 500.272, 285.083 z "/>
<path style="fill:rgb(255, 11, 14);fill-opacity:1.0;fill-rule:evenodd;stroke:rgb(0, 0, 0);stroke-width:3.0;" d="M 131.871, 219.65 L 98.495, 269.615 L 95.2165, 268.104 L 113.745, 218.176 z "/>
<path style="fill:rgb(249, 255, 16);fill-opacity:1.0;fill-rule:evenodd;stroke:rgb(0, 0, 0);stroke-width:3.0;" d="M 538.779, 176.286 L 527.705, 171.515 L 546.089, 143.993 z "/>
<path style="fill:rgb(172, 16, 9);fill-opacity:1.0;fill-rule:evenodd;stroke:rgb(0, 0, 0);stroke-width:3.0;" d="M 123.474, 281.123 L 124.487, 299.38 L 85.7178, 276.139 L 89.3063, 265.381 z "/>
<path style="fill:rgb(172, 16, 9);fill-opacity:1.0;fill-rule:evenodd;stroke:rgb(0, 0, 0);stroke-width:3.0;" d="M 354.101, 499.015 L 295.2, 548.122 L 135.144, 479.298 L 304.607, 473.809 z "/>
<path style="fill:rgb(172, 16, 9);fill-opacity:1.0;fill-rule:evenodd;stroke:rgb(0, 0, 0);stroke-width:3.0;" d="M 81.8171, 428.716 L 62.7433, 453.815 L 64.3365, 427.788 L 68.3231, 425.142 z "/>
<path style="fill:rgb(172, 16, 9);fill-opacity:1.0;fill-rule:evenodd;stroke:rgb(0, 0, 0);stroke-width:3.0;" d="M 85.9185, 81.9464 L 57.2227, 102.94 L 9.83212, 30.1999 z "/>
<path style="fill:rgb(37, 217, 255);fill-opacity:1.0;fill-rule:evenodd;stroke:rgb(0, 0, 0);stroke-width:3.0;" d="M 475.305, 344.421 L 471.831, 353.94 L 447.48, 372.303 L 420.453, 329.837 L 421.522, 322.589 z "/>
<path style="fill:rgb(37, 217, 255);fill-opacity:1.0;fill-rule:evenodd;stroke:rgb(0, 0, 0);stroke-width:3.0;" d="M 518.691, 180.802 L 522.21, 204.67 L 514.619, 209.234 L 518.594, 180.681 z "/>
<path style="fill:rgb(255, 16, 179);fill-opacity:1.0;fill-rule:evenodd;stroke:rgb(0, 0, 0);stroke-width:3.0;" d="M 520.319, 56.328 L 514.689, 62.3594 L 509.582, 59.9739 L 502.995, 50.3189 L 510.214, 46.1801 z "/>
<path style="fill:rgb(255, 16, 179);fill-opacity:1.0;fill-rule:evenodd;stroke:rgb(0, 0, 0);stroke-width:3.0;" d="M 335.009, 59.4102 L 315.832, 67.6158 L 311.335, 67.827 L 314.825, 57.964 L 326.44, 53.7594 z "/>
<path style="fill:rgb(255, 98, 58);fill-opacity:1.0;fill-rule:evenodd;stroke:rgb(0, 0, 0);stroke-width:3.0;" d="M 85.9812, 413.423 L 71.7559, 422.864 L 72.131, 410.358 L 73.6294, 407.168 L 85.2423, 400.228 z "/>
<path style="fill:rgb(255, 98, 58);fill-opacity:1.0;fill-rule:evenodd;stroke:rgb(0, 0, 0);stroke-width:3.0;" d="M 122.397, 264.842 L 119.069, 271.055 L 115.788, 269.499 L 111.912, 253.878 L 116.903, 252.792 z "/>
<path style="fill:rgb(234, 209, 9);fill-opacity:1.0;fill-rule:evenodd;stroke:rgb(0, 0, 0);stroke-width:3.0;" d="M 209.666, 103.189 L 193.932, 126.743 L 205.203, 97.6444 L 206.88, 97.0374 z "/>
<path style="fill:rgb(234, 209, 9);fill-opacity:1.0;fill-rule:evenodd;stroke:rgb(0, 0, 0);stroke-width:3.0;" d="M 173.458, 156.39 L 128.483, 178.462 L 136.871, 155.862 L 152.483, 140.851 z "/>
<path style="fill:rgb(234, 209, 9);fill-opacity:1.0;fill-rule:evenodd;stroke:rgb(0, 0, 0);stroke-width:3.0;" d="M 74.2645, 486.91 L 51.9539, 494.263 L 44.2975, 478.089 L 63.2561, 453.141 z "/>
<path style="fill:rgb(234, 209, 9);fill-opacity:1.0;fill-rule:evenodd;stroke:rgb(0, 0, 0);stroke-width:3.0;" d="M 297.738, 71.9683 L 269.268, 85.2305 L 264.604, 84.9059 L 260.978, 82.2808 L 270.305, 74.079 L 282.336, 69.7241 z "/>
<path style="fill:rgb(234, 209, 9);fill-opacity:1.0;fill-rule:evenodd;stroke:rgb(0, 0, 0);stroke-width:3.0;" d="M 513.299, 175.366 L 505.357, 233.256 L 503.485, 233.646 L 513.076, 166.277 z "/>
<path style="fill:rgb(234, 209, 9);fill-opacity:1.0;fill-rule:evenodd;stroke:rgb(0, 0, 0);stroke-width:3.0;" d="M 52.5661, 252.406 L 62.8521, 268.758 L 14.1354, 248.578 z "/>
<path style="fill:rgb(255, 148, 16);fill-opacity:1.0;fill-rule:evenodd;stroke:rgb(0, 0, 0);stroke-width:3.0;" d="M 675.19, 496.526 L 612.594, 562.364 L 595.363, 501.078 L 628.781, 428.852 L 639.802, 424.919 z "/>
<path style="fill:rgb(255, 148, 16);fill-opacity:1.0;fill-rule:evenodd;stroke:rgb(0, 0, 0);stroke-width:3.0;" d="M 376.966, 136.982 L 362.782, 129.946 L 368.021, 118.302 z "/>
<path style="fill:rgb(255, 252, 78);fill-opacity:1.0;fill-rule:evenodd;stroke:rgb(0, 0, 0);stroke-width:3.0;" d="M 475.45, 344.022 L 475.305, 344.421 L 458.273, 337.508 L 426.461, 289.115 L 426.596, 288.199 z "/>
<path style="fill:rgb(255, 252, 78);fill-opacity:1.0;fill-rule:evenodd;stroke:rgb(0, 0, 0);stroke-width:3.0;" d="M 170.197, 162.275 L 144.54, 200.684 L 143.131, 171.273 L 165.509, 160.291 z "/>
<path style="fill:rgb(255, 252, 78);fill-opacity:1.0;fill-rule:evenodd;stroke:rgb(0, 0, 0);stroke-width:3.0;" d="M 332.919, 267.526 L 327.771, 266.877 L 336.946, 176.255 L 378.934, 142.932 z "/>
<path style="fill:rgb(255, 0, 14);fill-opacity:1.0;fill-rule:evenodd;stroke:rgb(0, 0, 0);stroke-width:3.0;" d="M 528.082, 130.42 L 515.817, 147.024 L 522.479, 100.232 z "/>
<path style="fill:rgb(255, 0, 14);fill-opacity:1.0;fill-rule:evenodd;stroke:rgb(0, 0, 0);stroke-width:3.0;" d="M 61.0185, 319.919 L 57.7741, 323.044 L 55.6259, 323.907 L 44.3278, 321.753 L 42.3914, 318.545 L 55.5156, 313.989 z "/>
<path style="fill:rgb(255, 0, 14);fill-opacity:1.0;fill-rule:evenodd;stroke:rgb(0, 0, 0);stroke-width:3.0;" d="M 28.4106, 447.94 L 26.0318, 455.072 L 14.1918, 452.211 L 8.27892, 444.929 L 20.6093, 441.538 z "/>
<path style="fill:rgb(255, 0, 14);fill-opacity:1.0;fill-rule:evenodd;stroke:rgb(0, 0, 0);stroke-width:3.0;" d="M 405.101, 37.6089 L 394.333, 45.7362 L 389.615, 47.2534 L 384.818, 32.882 z "/>
<path style="fill:rgb(255, 237, 21);fill-opacity:1.0;fill-rule:evenodd;stroke:rgb(0, 0, 0);stroke-width:3.0;" d="M 56.9013, 342.584 L 56.2555, 345.076 L 51.9696, 347.425 L 36.0088, 335.719 L 39.3106, 316.089 L 40.6031, 315.583 z "/>
<path style="fill:rgb(255, 132, 30);fill-opacity:1.0;fill-rule:evenodd;stroke:rgb(0, 0, 0);stroke-width:3.0;" d="M 201.666, 22.6406 L 194.887, 32.3339 L 192.849, 31.2105 L 195.964, 6.14474 z "/>
<path style="fill:rgb(255, 132, 30);fill-opacity:1.0;fill-rule:evenodd;stroke:rgb(0, 0, 0);stroke-width:3.0;" d="M 294.759, 57.3616 L 262.958, 66.0104 L 267.406, 52.8349 z "/>
<path style="fill:rgb(255, 132, 30);fill-opacity:1.0;fill-rule:evenodd;stroke:rgb(0, 0, 0);stroke-width:3.0;" d="M 267.406, 52.8349 L 262.958, 66.0104 L 231.475, 74.5725 L 238.583, 48.0649 z "/>
<path style="fill:rgb(255, 132, 30);fill-opacity:1.0;fill-rule:evenodd;stroke:rgb(0, 0, 0);stroke-width:3.0;" d="M 465.345, 127.861 L 465.951, 129.94 L 444.992, 124.691 L 445.931, 112.646 L 450.406, 112.052 z "/>
<path style="fill:rgb(255, 132, 30);fill-opacity:1.0;fill-rule:evenodd;stroke:rgb(0, 0, 0);stroke-width:3.0;" d="M 163.697, 95.646 L 149.696, 107.457 L 124.233, 93.0933 L 190.405, 17.9706 z "/>
<path style="fill:rgb(255, 132, 30);fill-opacity:1.0;fill-rule:evenodd;stroke:rgb(0, 0, 0);stroke-width:3.0;" d="M 593.298, 37.2412 L 590.345, 45.1083 L 579.094, 64.5096 L 582.998, 30.429 z "/>
<path style="fill:rgb(255, 132, 30);fill-opacity:1.0;fill-rule:evenodd;stroke:rgb(0, 0, 0);stroke-width:3.0;" d="M 384.818, 32.882 L 387.327, 40.3995 L 384.663, 48.8458 L 384.496, 48.8995 L 371.186, 46.0951 L 365.231, 39.7182 L 384.391, 32.7826 z "/>
<path style="fill:rgb(192, 91, 11);fill-opacity:1.0;fill-rule:evenodd;stroke:rgb(0, 0, 0);stroke-width:3.0;" d="M 83.5842, 370.615 L 85.2423, 400.228 L 34.1394, 430.766 L 60.2249, 352.565 z "/>
<path style="fill:rgb(85, 197, 243);fill-opacity:1.0;fill-rule:evenodd;stroke:rgb(0, 0, 0);stroke-width:3.0;" d="M 238.583, 48.0649 L 231.475, 74.5725 L 164.698, 92.7337 L 183.208, 38.9009 z "/>
<path style="fill:rgb(85, 197, 243);fill-opacity:1.0;fill-rule:evenodd;stroke:rgb(0, 0, 0);stroke-width:3.0;" d="M 566.235, 443.464 L 511.625, 470.22 L 559.2, 438.52 z "/>
<path style="fill:rgb(85, 197, 243);fill-opacity:1.0;fill-rule:evenodd;stroke:rgb(0, 0, 0);stroke-width:3.0;" d="M 91.1991, 506.61 L 94.8204, 571.284 L 56.3922, 552.187 L 68.3958, 492.807 L 78.2849, 488.248 z "/>
<path style="fill:rgb(105, 237, 128);fill-opacity:1.0;fill-rule:evenodd;stroke:rgb(0, 0, 0);stroke-width:3.0;" d="M 331.859, 226.501 L 316.019, 224.083 L 319.453, 190.138 L 336.946, 176.255 z "/>
<path style="fill:rgb(105, 237, 128);fill-opacity:1.0;fill-rule:evenodd;stroke:rgb(0, 0, 0);stroke-width:3.0;" d="M 453.305, 387.187 L 441.097, 400.073 L 425.447, 382.829 L 450.872, 378.498 z "/>
<path style="fill:rgb(146, 252, 54);fill-opacity:1.0;fill-rule:evenodd;stroke:rgb(0, 0, 0);stroke-width:3.0;" d="M 121.178, 341.939 L 120.154, 352.965 L 114.023, 348.647 L 86.819, 299.071 z "/>
<path style="fill:rgb(246, 14, 41);fill-opacity:1.0;fill-rule:evenodd;stroke:rgb(0, 0, 0);stroke-width:3.0;" d="M 88.3388, 42.18 L 53.1793, 52.1901 L 40.4985, 43.439 L 45.6051, 32.4057 L 83.0342, 17.9847 z "/>
<path style="fill:rgb(246, 14, 41);fill-opacity:1.0;fill-rule:evenodd;stroke:rgb(0, 0, 0);stroke-width:3.0;" d="M 330.214, 143.772 L 330.514, 155.76 L 328.914, 158.613 L 317.493, 141.286 L 324.523, 139.622 z "/>
<path style="fill:rgb(246, 14, 41);fill-opacity:1.0;fill-rule:evenodd;stroke:rgb(0, 0, 0);stroke-width:3.0;" d="M 534.112, 194.926 L 533.965, 195.318 L 521.282, 198.377 L 519.588, 186.888 L 526.624, 182.976 z "/>
<path style="fill:rgb(246, 14, 41);fill-opacity:1.0;fill-rule:evenodd;stroke:rgb(0, 0, 0);stroke-width:3.0;" d="M 62.7433, 453.815 L 33.8977, 491.774 L 50.7768, 455.831 L 63.2214, 446.005 z "/>
<path style="fill:rgb(246, 14, 41);fill-opacity:1.0;fill-rule:evenodd;stroke:rgb(0, 0, 0);stroke-width:3.0;" d="M 153.963, 397.094 L 167.988, 478.234 L 154.311, 478.677 L 86.7039, 426.33 L 83.0446, 360.978 z "/>
<path style="fill:rgb(246, 14, 41);fill-opacity:1.0;fill-rule:evenodd;stroke:rgb(0, 0, 0);stroke-width:3.0;" d="M 50.4917, 51.4956 L 48.6932, 56.6294 L 9.83212, 30.1999 L 8.1423, 27.6061 z "/>
<path style="fill:rgb(255, 3, 8);fill-opacity:1.0;fill-rule:evenodd;stroke:rgb(0, 0, 0);stroke-width:3.0;" d="M 141.483, 120.71 L 110.401, 131.96 L 114.917, 126.226 L 125.693, 115.217 L 131.831, 112.898 z "/>
<path style="fill:rgb(255, 56, 28);fill-opacity:1.0;fill-rule:evenodd;stroke:rgb(0, 0, 0);stroke-width:3.0;" d="M 532.282, 69.3135 L 524.823, 78.4743 L 510.352, 66.267 L 525.081, 58.7195 z "/>
<path style="fill:rgb(255, 56, 28);fill-opacity:1.0;fill-rule:evenodd;stroke:rgb(0, 0, 0);stroke-width:3.0;" d="M 417.261, 221.134 L 341.116, 245.333 L 361.789, 189.355 L 400.36, 185.839 z "/>
<path style="fill:rgb(255, 56, 28);fill-opacity:1.0;fill-rule:evenodd;stroke:rgb(0, 0, 0);stroke-width:3.0;" d="M 458.273, 337.508 L 421.522, 322.589 L 426.461, 289.115 z "/>
<path style="fill:rgb(255, 231, 37);fill-opacity:1.0;fill-rule:evenodd;stroke:rgb(0, 0, 0);stroke-width:3.0;" d="M 202.494, 148.124 L 199.556, 150.558 L 233.221, 92.345 L 236.959, 91.8965 z "/>
<path style="fill:rgb(255, 231, 37);fill-opacity:1.0;fill-rule:evenodd;stroke:rgb(0, 0, 0);stroke-width:3.0;" d="M 498.016, 272.06 L 493.651, 302.723 L 477.251, 346.417 L 426.578, 240.592 z "/>
<path style="fill:rgb(255, 231, 37);fill-opacity:1.0;fill-rule:evenodd;stroke:rgb(0, 0, 0);stroke-width:3.0;" d="M 572.71, 92.091 L 568.298, 103.847 L 558.173, 92.6595 L 559.325, 73.0073 L 563.936, 72.1552 z "/>
<path style="fill:rgb(28, 215, 16);fill-opacity:1.0;fill-rule:evenodd;stroke:rgb(0, 0, 0);stroke-width:3.0;" d="M 218.361, 324.841 L 266.735, 375.141 L 215.837, 359.341 L 202.457, 317.513 z "/>
<path style="fill:rgb(28, 215, 16);fill-opacity:1.0;fill-rule:evenodd;stroke:rgb(0, 0, 0);stroke-width:3.0;" d="M 565.076, 112.43 L 562.933, 118.138 L 562.149, 118.332 L 539.39, 103.65 L 538.229, 98.2814 L 545.311, 95.7572 z "/>
<path style="fill:rgb(94, 48, 255);fill-opacity:1.0;fill-rule:evenodd;stroke:rgb(0, 0, 0);stroke-width:3.0;" d="M 128.709, 375.411 L 129.213, 384.49 L 101.723, 370.49 L 117.17, 354.382 z "/>
<path style="fill:rgb(94, 48, 255);fill-opacity:1.0;fill-rule:evenodd;stroke:rgb(0, 0, 0);stroke-width:3.0;" d="M 313.064, 32.2976 L 314.883, 46.0838 L 293.111, 51.6112 L 291.571, 46.8032 L 302.797, 31.3456 z "/>
<path style="fill:rgb(255, 255, 52);fill-opacity:1.0;fill-rule:evenodd;stroke:rgb(0, 0, 0);stroke-width:3.0;" d="M 304.625, 201.906 L 324.276, 166.879 L 359.874, 158.059 z "/>
<path style="fill:rgb(150, 231, 255);fill-opacity:1.0;fill-rule:evenodd;stroke:rgb(0, 0, 0);stroke-width:3.0;" d="M 499.909, 57.458 L 523.807, 90.9053 L 523.516, 92.945 L 484.213, 50.4511 L 483.995, 44.0333 z "/>
<path style="fill:rgb(150, 231, 255);fill-opacity:1.0;fill-rule:evenodd;stroke:rgb(0, 0, 0);stroke-width:3.0;" d="M 277.773, 352.213 L 257.472, 365.51 L 218.361, 324.841 z "/>
<path style="fill:rgb(150, 231, 255);fill-opacity:1.0;fill-rule:evenodd;stroke:rgb(0, 0, 0);stroke-width:3.0;" d="M 137.967, 210.525 L 131.871, 219.65 L 113.745, 218.176 L 128.483, 178.462 L 133.125, 176.185 z "/>
<path style="fill:rgb(255, 25, 114);fill-opacity:1.0;fill-rule:evenodd;stroke:rgb(0, 0, 0);stroke-width:3.0;" d="M 143.894, 201.651 L 137.967, 210.525 L 133.125, 176.185 L 141.786, 171.934 z "/>
<path style="fill:rgb(228, 255, 9);fill-opacity:1.0;fill-rule:evenodd;stroke:rgb(0, 0, 0);stroke-width:3.0;" d="M 512.079, 173.283 L 512.045, 173.521 L 494.341, 177.972 L 491.036, 174.433 L 508.595, 155.425 z "/>
<path style="fill:rgb(249, 57, 47);fill-opacity:1.0;fill-rule:evenodd;stroke:rgb(0, 0, 0);stroke-width:3.0;" d="M 134.502, 158.139 L 121.189, 128.056 L 192.721, 102.162 z "/>
<path style="fill:rgb(249, 57, 47);fill-opacity:1.0;fill-rule:evenodd;stroke:rgb(0, 0, 0);stroke-width:3.0;" d="M 304.371, 364.468 L 299.177, 385.213 L 266.735, 375.141 L 257.472, 365.51 L 277.773, 352.213 z "/>
<path style="fill:rgb(249, 57, 47);fill-opacity:1.0;fill-rule:evenodd;stroke:rgb(0, 0, 0);stroke-width:3.0;" d="M 37.6887, 158.281 L 32.6957, 160.088 L 16.8882, 157.865 L 19.6531, 152.441 L 28.6173, 148.023 z "/>
<path style="fill:rgb(249, 57, 47);fill-opacity:1.0;fill-rule:evenodd;stroke:rgb(0, 0, 0);stroke-width:3.0;" d="M 451.369, 378.413 L 438.792, 380.556 L 415.36, 364.353 L 420.453, 329.837 z "/>
<path style="fill:rgb(20, 217, 74);fill-opacity:1.0;fill-rule:evenodd;stroke:rgb(0, 0, 0);stroke-width:3.0;" d="M 14.1354, 248.578 L 62.8521, 268.758 L 69.0486, 278.608 L 31.7481, 274.559 L 9.35163, 254.149 L 12.6428, 248.429 z "/>
<path style="fill:rgb(255, 15, 82);fill-opacity:1.0;fill-rule:evenodd;stroke:rgb(0, 0, 0);stroke-width:3.0;" d="M 82.3328, 348.266 L 83.5842, 370.615 L 77.7853, 366.134 L 75.6231, 346.811 z "/>
<path style="fill:rgb(255, 234, 41);fill-opacity:1.0;fill-rule:evenodd;stroke:rgb(0, 0, 0);stroke-width:3.0;" d="M 208.412, 336.131 L 209.278, 338.836 L 195.343, 350.741 L 195.676, 327.487 z "/>
<path style="fill:rgb(255, 234, 41);fill-opacity:1.0;fill-rule:evenodd;stroke:rgb(0, 0, 0);stroke-width:3.0;" d="M 370.743, 149.433 L 359.874, 158.059 L 356.623, 158.864 L 345.213, 150.349 L 347.374, 149.146 z "/>
<path style="fill:rgb(223, 2, 30);fill-opacity:1.0;fill-rule:evenodd;stroke:rgb(0, 0, 0);stroke-width:3.0;" d="M 354.79, 90.6709 L 270.576, 201.808 L 219.273, 174.668 L 229.383, 144.957 L 331.471, 80.5584 L 348.944, 78.4622 z "/>
<path style="fill:rgb(223, 2, 30);fill-opacity:1.0;fill-rule:evenodd;stroke:rgb(0, 0, 0);stroke-width:3.0;" d="M 610.434, 554.681 L 397.154, 559.812 L 418.09, 504.035 L 579.956, 446.274 z "/>
<path style="fill:rgb(212, 21, 207);fill-opacity:1.0;fill-rule:evenodd;stroke:rgb(0, 0, 0);stroke-width:3.0;" d="M 304.607, 473.809 L 167.988, 478.234 L 153.963, 397.094 z "/>
<path style="fill:rgb(255, 246, 182);fill-opacity:1.0;fill-rule:evenodd;stroke:rgb(0, 0, 0);stroke-width:3.0;" d="M 62.8801, 520.093 L 46.7385, 547.39 L 31.9508, 540.041 L 37.8244, 524.152 L 63.0067, 519.466 z "/>
<path style="fill:rgb(255, 246, 182);fill-opacity:1.0;fill-rule:evenodd;stroke:rgb(0, 0, 0);stroke-width:3.0;" d="M 441.097, 400.073 L 426.21, 415.789 L 408.295, 412.239 L 412.304, 385.068 L 425.447, 382.829 z "/>
<path style="fill:rgb(37, 121, 255);fill-opacity:1.0;fill-rule:evenodd;stroke:rgb(0, 0, 0);stroke-width:3.0;" d="M 558.287, 130.517 L 551.39, 148.893 L 545.322, 147.382 L 551.279, 121.068 z "/>
<path style="fill:rgb(255, 172, 255);fill-opacity:1.0;fill-rule:evenodd;stroke:rgb(0, 0, 0);stroke-width:3.0;" d="M 124.487, 299.38 L 125.036, 309.264 L 82.8963, 284.598 L 85.7178, 276.139 z "/>
<path style="fill:rgb(255, 255, 60);fill-opacity:1.0;fill-rule:evenodd;stroke:rgb(0, 0, 0);stroke-width:3.0;" d="M 299.97, 72.2935 L 302.805, 79.4528 L 288.311, 85.7361 L 283.985, 86.255 L 269.268, 85.2305 L 297.738, 71.9683 z "/>
<path style="fill:rgb(255, 255, 60);fill-opacity:1.0;fill-rule:evenodd;stroke:rgb(0, 0, 0);stroke-width:3.0;" d="M 331.859, 226.501 L 330.268, 242.207 L 244.495, 256.382 L 237.149, 255.456 L 283.027, 219.047 z "/>
<path style="fill:rgb(255, 255, 60);fill-opacity:1.0;fill-rule:evenodd;stroke:rgb(0, 0, 0);stroke-width:3.0;" d="M 228.065, 148.832 L 227.4, 150.784 L 207.764, 160.383 L 208.734, 142.953 L 219.774, 133.806 z "/>
<path style="fill:rgb(255, 255, 60);fill-opacity:1.0;fill-rule:evenodd;stroke:rgb(0, 0, 0);stroke-width:3.0;" d="M 529.565, 207.039 L 520.777, 213.211 L 514.27, 215.034 L 514.135, 209.525 L 532.857, 198.269 z "/>
<path style="fill:rgb(132, 168, 255);fill-opacity:1.0;fill-rule:evenodd;stroke:rgb(0, 0, 0);stroke-width:3.0;" d="M 560.312, 71.0269 L 560.801, 72.7346 L 543.1, 76.005 L 537.761, 70.1059 L 542.137, 67.2218 z "/>
<path style="fill:rgb(217, 13, 255);fill-opacity:1.0;fill-rule:evenodd;stroke:rgb(0, 0, 0);stroke-width:3.0;" d="M 29.0216, 300.406 L 32.9832, 317.571 L 24.6149, 320.907 L 18.209, 292.742 z "/>
<path style="fill:rgb(255, 252, 7);fill-opacity:1.0;fill-rule:evenodd;stroke:rgb(0, 0, 0);stroke-width:3.0;" d="M 195.863, 314.475 L 195.834, 316.476 L 147.84, 393.975 L 137.329, 388.622 L 124.328, 296.51 L 123.474, 281.123 z "/>
<path style="fill:rgb(255, 1, 9);fill-opacity:1.0;fill-rule:evenodd;stroke:rgb(0, 0, 0);stroke-width:3.0;" d="M 294.964, 57.3954 L 297.19, 64.3474 L 160.796, 113.719 L 158.021, 112.153 L 161.095, 103.214 L 179.852, 88.6124 L 294.759, 57.3616 z "/>
<path style="fill:rgb(255, 1, 9);fill-opacity:1.0;fill-rule:evenodd;stroke:rgb(0, 0, 0);stroke-width:3.0;" d="M 563.352, 98.3819 L 563.642, 107.008 L 556.638, 102.098 L 547.61, 80.9875 z "/>
<path style="fill:rgb(255, 228, 27);fill-opacity:1.0;fill-rule:evenodd;stroke:rgb(0, 0, 0);stroke-width:3.0;" d="M 345.146, 423.055 L 344.15, 424.652 L 205.309, 403.877 L 205.629, 402.423 z "/>
<path style="fill:rgb(246, 243, 29);fill-opacity:1.0;fill-rule:evenodd;stroke:rgb(0, 0, 0);stroke-width:3.0;" d="M 430.917, 422.771 L 417.7, 422.007 L 355.76, 402.778 L 356.793, 388.62 z "/>
<path style="fill:rgb(246, 243, 29);fill-opacity:1.0;fill-rule:evenodd;stroke:rgb(0, 0, 0);stroke-width:3.0;" d="M 455.739, 94.9036 L 456.135, 96.2618 L 444.286, 99.2223 L 441.315, 89.8381 L 446.828, 87.3851 z "/>
<path style="fill:rgb(246, 192, 114);fill-opacity:1.0;fill-rule:evenodd;stroke:rgb(0, 0, 0);stroke-width:3.0;" d="M 683.69, 487.585 L 675.19, 496.526 L 668.614, 483.22 L 677.546, 475.61 z "/>
<path style="fill:rgb(246, 192, 114);fill-opacity:1.0;fill-rule:evenodd;stroke:rgb(0, 0, 0);stroke-width:3.0;" d="M 48.5602, 246.608 L 63.5112, 253.497 L 47.7888, 251.93 L 26.4145, 245.589 z "/>
<path style="fill:rgb(12, 81, 212);fill-opacity:1.0;fill-rule:evenodd;stroke:rgb(0, 0, 0);stroke-width:3.0;" d="M 547.61, 80.9875 L 556.638, 102.098 L 534.111, 86.3093 L 524.823, 78.4743 L 534.537, 66.5434 z "/>
<path style="fill:rgb(14, 197, 192);fill-opacity:1.0;fill-rule:evenodd;stroke:rgb(0, 0, 0);stroke-width:3.0;" d="M 53.5697, 15.197 L 39.6106, 45.3575 L 31.877, 40.995 L 23.8557, 21.7607 L 21.1986, 11.9858 z "/>
<path style="fill:rgb(240, 61, 21);fill-opacity:1.0;fill-rule:evenodd;stroke:rgb(0, 0, 0);stroke-width:3.0;" d="M 41.7532, 475.046 L 33.8977, 491.774 L 25.3425, 503.032 L 8.14347, 508.699 L 34.1394, 430.766 L 47.7099, 422.657 z "/>
<path style="fill:rgb(240, 61, 21);fill-opacity:1.0;fill-rule:evenodd;stroke:rgb(0, 0, 0);stroke-width:3.0;" d="M 312.293, 26.4484 L 313.064, 32.2976 L 298.324, 30.9309 L 294.004, 15.1376 z "/>
<path style="fill:rgb(255, 189, 14);fill-opacity:1.0;fill-rule:evenodd;stroke:rgb(0, 0, 0);stroke-width:3.0;" d="M 635.175, 426.57 L 573.507, 448.576 L 518.735, 410.078 L 531.198, 317.518 z "/>
<path style="fill:rgb(177, 4, 27);fill-opacity:1.0;fill-rule:evenodd;stroke:rgb(0, 0, 0);stroke-width:3.0;" d="M 390.737, 165.741 L 367.651, 173.483 L 378.934, 142.932 L 379.572, 142.426 z "/>
<path style="fill:rgb(82, 51, 255);fill-opacity:1.0;fill-rule:evenodd;stroke:rgb(0, 0, 0);stroke-width:3.0;" d="M 38.2621, 354.936 L 29.0504, 359.984 L 20.4507, 361.38 L 27.3675, 344.764 z "/>
<path style="fill:rgb(82, 51, 255);fill-opacity:1.0;fill-rule:evenodd;stroke:rgb(0, 0, 0);stroke-width:3.0;" d="M 512.353, 67.9549 L 524.413, 86.6468 L 523.807, 90.9053 L 499.909, 57.458 z "/>
<path style="fill:rgb(82, 51, 255);fill-opacity:1.0;fill-rule:evenodd;stroke:rgb(0, 0, 0);stroke-width:3.0;" d="M 429.301, 246.278 L 356.104, 270.448 L 332.919, 267.526 L 341.116, 245.333 L 417.261, 221.134 z "/>
<path style="fill:rgb(82, 51, 255);fill-opacity:1.0;fill-rule:evenodd;stroke:rgb(0, 0, 0);stroke-width:3.0;" d="M 65.0881, 509.17 L 63.0067, 519.466 L 37.8244, 524.152 L 45.5115, 503.357 L 59.2983, 497.001 z "/>
<path style="fill:rgb(91, 30, 255);fill-opacity:1.0;fill-rule:evenodd;stroke:rgb(0, 0, 0);stroke-width:3.0;" d="M 229.383, 144.957 L 247.883, 90.586 L 331.471, 80.5584 z "/>
<path style="fill:rgb(91, 30, 255);fill-opacity:1.0;fill-rule:evenodd;stroke:rgb(0, 0, 0);stroke-width:3.0;" d="M 793.301, 482.845 L 768.468, 485.023 L 746.709, 421.302 L 757.173, 410.296 z "/>
<path style="fill:rgb(91, 30, 255);fill-opacity:1.0;fill-rule:evenodd;stroke:rgb(0, 0, 0);stroke-width:3.0;" d="M 515.719, 147.712 L 491.036, 174.433 L 483.367, 166.221 L 519.078, 124.12 z "/>
<path style="fill:rgb(255, 41, 207);fill-opacity:1.0;fill-rule:evenodd;stroke:rgb(0, 0, 0);stroke-width:3.0;" d="M 449.876, 15.2516 L 457.982, 22.0898 L 523.516, 92.945 L 519.078, 124.12 L 483.367, 166.221 L 473.423, 155.572 L 432.918, 16.6126 L 436.471, 13.9309 L 437.591, 13.5257 z "/>
<path style="fill:rgb(255, 255, 12);fill-opacity:1.0;fill-rule:evenodd;stroke:rgb(0, 0, 0);stroke-width:3.0;" d="M 177.851, 161.322 L 169.79, 176.37 L 162.227, 174.207 L 172.095, 159.434 z "/>
<path style="fill:rgb(255, 255, 12);fill-opacity:1.0;fill-rule:evenodd;stroke:rgb(0, 0, 0);stroke-width:3.0;" d="M 207.321, 168.345 L 193.498, 161.033 L 199.556, 150.558 L 208.734, 142.953 z "/>
<path style="fill:rgb(255, 243, 11);fill-opacity:1.0;fill-rule:evenodd;stroke:rgb(0, 0, 0);stroke-width:3.0;" d="M 356.793, 388.62 L 355.76, 402.778 L 299.177, 385.213 L 304.371, 364.468 z "/>
<path style="fill:rgb(249, 255, 17);fill-opacity:1.0;fill-rule:evenodd;stroke:rgb(0, 0, 0);stroke-width:3.0;" d="M 587.312, 472.442 L 583.068, 457.344 L 625.896, 430.984 z "/>
<path style="fill:rgb(249, 255, 17);fill-opacity:1.0;fill-rule:evenodd;stroke:rgb(0, 0, 0);stroke-width:3.0;" d="M 147.209, 18.317 L 93.9747, 64.1585 L 102.381, 7.6783 z "/>
<path style="fill:rgb(255, 161, 19);fill-opacity:1.0;fill-rule:evenodd;stroke:rgb(0, 0, 0);stroke-width:3.0;" d="M 26.4326, 273.982 L 30.7606, 280.567 L 28.7112, 288.222 L 24.4111, 288.757 L 14.7257, 272.712 z "/>
<path style="fill:rgb(255, 114, 36);fill-opacity:1.0;fill-rule:evenodd;stroke:rgb(0, 0, 0);stroke-width:3.0;" d="M 433.471, 296.055 L 426.596, 288.199 L 428.388, 276.053 L 434.4, 273.34 z "/>
<path style="fill:rgb(255, 114, 36);fill-opacity:1.0;fill-rule:evenodd;stroke:rgb(0, 0, 0);stroke-width:3.0;" d="M 72.2591, 257.527 L 44.4552, 244.717 L 48.1556, 241.159 L 68.2824, 235.763 z "/>
<path style="fill:rgb(108, 22, 240);fill-opacity:1.0;fill-rule:evenodd;stroke:rgb(0, 0, 0);stroke-width:3.0;" d="M 95.2165, 268.104 L 72.2591, 257.527 L 68.2824, 235.763 L 111.52, 224.171 z "/>
<path style="fill:rgb(36, 19, 255);fill-opacity:1.0;fill-rule:evenodd;stroke:rgb(0, 0, 0);stroke-width:3.0;" d="M 68.6596, 131.629 L 58.3216, 144.559 L 53.76, 146.725 L 45.9431, 131.321 z "/>
<path style="fill:rgb(36, 19, 255);fill-opacity:1.0;fill-rule:evenodd;stroke:rgb(0, 0, 0);stroke-width:3.0;" d="M 224.652, 158.861 L 212.558, 171.116 L 207.321, 168.345 L 207.764, 160.383 L 227.4, 150.784 z "/>
<path style="fill:rgb(255, 47, 255);fill-opacity:1.0;fill-rule:evenodd;stroke:rgb(0, 0, 0);stroke-width:3.0;" d="M 398.22, 181.371 L 396.146, 186.223 L 381.245, 187.582 L 368.11, 173.329 L 390.737, 165.741 z "/>
<path style="fill:rgb(223, 121, 115);fill-opacity:1.0;fill-rule:evenodd;stroke:rgb(0, 0, 0);stroke-width:3.0;" d="M 69.4336, 23.2248 L 45.6051, 32.4057 L 49.5441, 23.8948 L 63.1923, 13.3016 z "/>
<path style="fill:rgb(15, 13, 207);fill-opacity:1.0;fill-rule:evenodd;stroke:rgb(0, 0, 0);stroke-width:3.0;" d="M 514.587, 227.959 L 514.775, 235.655 L 508.133, 242.443 L 504.844, 236.994 L 510.295, 197.263 z "/>
<path style="fill:rgb(255, 65, 102);fill-opacity:1.0;fill-rule:evenodd;stroke:rgb(0, 0, 0);stroke-width:3.0;" d="M 193.288, 127.707 L 174.456, 155.9 L 173.458, 156.39 L 152.483, 140.851 L 192.721, 102.162 L 195.845, 101.032 z "/>
<path style="fill:rgb(255, 4, 46);fill-opacity:1.0;fill-rule:evenodd;stroke:rgb(0, 0, 0);stroke-width:3.0;" d="M 215.837, 359.341 L 195.311, 352.969 L 195.343, 350.741 L 209.278, 338.836 z "/>
<path style="fill:rgb(6, 70, 223);fill-opacity:1.0;fill-rule:evenodd;stroke:rgb(0, 0, 0);stroke-width:3.0;" d="M 743.23, 77.7003 L 685.063, 75.3912 L 697.736, 64.8888 L 707.524, 58.0845 z "/>
<path style="fill:rgb(255, 117, 8);fill-opacity:1.0;fill-rule:evenodd;stroke:rgb(0, 0, 0);stroke-width:3.0;" d="M 209.25, 133.796 L 190.213, 166.714 L 179.916, 157.467 L 184.638, 148.652 L 203.777, 129.122 z "/>
<path style="fill:rgb(187, 21, 37);fill-opacity:1.0;fill-rule:evenodd;stroke:rgb(0, 0, 0);stroke-width:3.0;" d="M 135.403, 159.818 L 119.039, 187.449 L 110.571, 181.148 L 134.985, 157.674 L 136.267, 157.488 z "/>
<path style="fill:rgb(78, 0, 187);fill-opacity:1.0;fill-rule:evenodd;stroke:rgb(0, 0, 0);stroke-width:3.0;" d="M 437.665, 103.611 L 440.687, 120.518 L 404.923, 82.2212 z "/>
<path style="fill:rgb(255, 78, 7);fill-opacity:1.0;fill-rule:evenodd;stroke:rgb(0, 0, 0);stroke-width:3.0;" d="M 430.613, 64.1537 L 437.665, 103.611 L 404.923, 82.2212 L 380.559, 56.1322 L 404.339, 38.1838 z "/>
<path style="fill:rgb(246, 255, 7);fill-opacity:1.0;fill-rule:evenodd;stroke:rgb(0, 0, 0);stroke-width:3.0;" d="M 41.7532, 475.046 L 47.7099, 422.657 L 73.6294, 407.168 z "/>
<path style="fill:rgb(246, 255, 7);fill-opacity:1.0;fill-rule:evenodd;stroke:rgb(0, 0, 0);stroke-width:3.0;" d="M 86.819, 299.071 L 117.17, 354.382 L 101.723, 370.49 L 83.0446, 360.978 L 79.3612, 295.196 L 80.6399, 291.362 z "/>
<path style="fill:rgb(246, 255, 7);fill-opacity:1.0;fill-rule:evenodd;stroke:rgb(0, 0, 0);stroke-width:3.0;" d="M 573.507, 448.576 L 510.525, 471.05 L 510.54, 470.943 L 511.625, 470.22 L 566.235, 443.464 z "/>
<path style="fill:rgb(246, 255, 7);fill-opacity:1.0;fill-rule:evenodd;stroke:rgb(0, 0, 0);stroke-width:3.0;" d="M 544.124, 47.0224 L 545.259, 47.3163 L 546.286, 47.8538 L 535.431, 53.4159 L 523.178, 53.2645 L 530.248, 45.6908 z "/>
<path style="fill:rgb(66, 88, 215);fill-opacity:1.0;fill-rule:evenodd;stroke:rgb(0, 0, 0);stroke-width:3.0;" d="M 371.157, 134.101 L 351.918, 148.244 L 360.57, 128.849 z "/>
<path style="fill:rgb(255, 231, 15);fill-opacity:1.0;fill-rule:evenodd;stroke:rgb(0, 0, 0);stroke-width:3.0;" d="M 48.5602, 246.608 L 26.4145, 245.589 L 6.72766, 239.748 L 8.18605, 238.425 L 22.9408, 234.805 z "/>
<path style="fill:rgb(136, 28, 204);fill-opacity:1.0;fill-rule:evenodd;stroke:rgb(0, 0, 0);stroke-width:3.0;" d="M 239.103, 116.391 L 232.259, 99.565 L 236.959, 91.8965 L 247.883, 90.586 z "/>
<path style="fill:rgb(255, 255, 74);fill-opacity:1.0;fill-rule:evenodd;stroke:rgb(0, 0, 0);stroke-width:3.0;" d="M 595.363, 501.078 L 587.312, 472.442 L 627.434, 429.332 L 628.781, 428.852 z "/>
<path style="fill:rgb(126, 11, 231);fill-opacity:1.0;fill-rule:evenodd;stroke:rgb(0, 0, 0);stroke-width:3.0;" d="M 509.153, 193.833 L 498.016, 272.06 L 426.578, 240.592 L 335.538, 50.4661 L 365.231, 39.7182 z "/>
<path style="fill:rgb(255, 30, 15);fill-opacity:1.0;fill-rule:evenodd;stroke:rgb(0, 0, 0);stroke-width:3.0;" d="M 361.886, 125.898 L 357.559, 128.906 L 343.698, 134.949 L 343.098, 133.328 L 346.402, 127.44 L 348.225, 125.105 L 363.438, 122.42 z "/>
<path style="fill:rgb(67, 59, 255);fill-opacity:1.0;fill-rule:evenodd;stroke:rgb(0, 0, 0);stroke-width:3.0;" d="M 169.79, 176.37 L 141.473, 229.231 L 138.95, 209.053 L 162.227, 174.207 z "/>
<path style="fill:rgb(67, 59, 255);fill-opacity:1.0;fill-rule:evenodd;stroke:rgb(0, 0, 0);stroke-width:3.0;" d="M 768.468, 485.023 L 678.633, 492.904 L 746.709, 421.302 z "/>
<path style="fill:rgb(217, 78, 197);fill-opacity:1.0;fill-rule:evenodd;stroke:rgb(0, 0, 0);stroke-width:3.0;" d="M 559.2, 438.52 L 510.54, 470.943 L 518.735, 410.078 z "/>
<path style="fill:rgb(249, 57, 86);fill-opacity:1.0;fill-rule:evenodd;stroke:rgb(0, 0, 0);stroke-width:3.0;" d="M 32.2751, 139.075 L 27.3574, 144.847 L 11.2078, 144.587 L 13.3803, 138.939 z "/>
<path style="fill:rgb(81, 243, 14);fill-opacity:1.0;fill-rule:evenodd;stroke:rgb(0, 0, 0);stroke-width:3.0;" d="M 56.3922, 552.187 L 55.7777, 551.882 L 47.9045, 545.418 L 62.8801, 520.093 z "/>
<path style="fill:rgb(246, 234, 64);fill-opacity:1.0;fill-rule:evenodd;stroke:rgb(0, 0, 0);stroke-width:3.0;" d="M 467.123, 325.265 L 458.506, 324.661 L 433.471, 296.055 L 434.4, 273.34 L 440.862, 270.423 z "/>
<path style="fill:rgb(237, 163, 12);fill-opacity:1.0;fill-rule:evenodd;stroke:rgb(0, 0, 0);stroke-width:3.0;" d="M 228.065, 148.832 L 220.855, 135.765 L 237.166, 122.083 z "/>
<path style="fill:rgb(237, 163, 12);fill-opacity:1.0;fill-rule:evenodd;stroke:rgb(0, 0, 0);stroke-width:3.0;" d="M 450.645, 77.4297 L 452.776, 84.7386 L 441.315, 89.8381 L 436.943, 76.0288 z "/>
<path style="fill:rgb(237, 33, 255);fill-opacity:1.0;fill-rule:evenodd;stroke:rgb(0, 0, 0);stroke-width:3.0;" d="M 546.089, 143.993 L 527.705, 171.515 L 516.389, 166.64 L 513.648, 162.265 L 515.671, 148.053 L 549.888, 127.21 z "/>
<path style="fill:rgb(237, 33, 255);fill-opacity:1.0;fill-rule:evenodd;stroke:rgb(0, 0, 0);stroke-width:3.0;" d="M 612.594, 562.364 L 602.39, 573.096 L 598.44, 565.509 L 604.242, 554.83 L 610.434, 554.681 z "/>
<path style="fill:rgb(237, 33, 255);fill-opacity:1.0;fill-rule:evenodd;stroke:rgb(0, 0, 0);stroke-width:3.0;" d="M 450.645, 77.4297 L 436.943, 76.0288 L 428.26, 48.6071 L 429.514, 47.5828 L 441.319, 45.4327 z "/>
<path style="fill:rgb(124, 83, 223);fill-opacity:1.0;fill-rule:evenodd;stroke:rgb(0, 0, 0);stroke-width:3.0;" d="M 625.896, 430.984 L 583.068, 457.344 L 579.956, 446.274 L 627.434, 429.332 z "/>
<path style="fill:rgb(11, 255, 255);fill-opacity:1.0;fill-rule:evenodd;stroke:rgb(0, 0, 0);stroke-width:3.0;" d="M 424.313, 591.185 L 407.757, 593.209 L 406.916, 579.049 z "/>
<path style="fill:rgb(64, 142, 255);fill-opacity:1.0;fill-rule:evenodd;stroke:rgb(0, 0, 0);stroke-width:3.0;" d="M 194.475, 130.288 L 177.851, 161.322 L 175.341, 160.498 L 176.076, 153.475 L 194.751, 125.517 z "/>
<path style="fill:rgb(252, 255, 10);fill-opacity:1.0;fill-rule:evenodd;stroke:rgb(0, 0, 0);stroke-width:3.0;" d="M 101.141, 80.067 L 120.004, 92.7523 L 124.777, 102.676 L 73.1104, 93.199 L 94.9359, 76.5667 z "/>
<path style="fill:rgb(255, 10, 32);fill-opacity:1.0;fill-rule:evenodd;stroke:rgb(0, 0, 0);stroke-width:3.0;" d="M 31.9508, 540.041 L 20.2511, 534.227 L 45.3282, 503.442 L 45.5115, 503.357 z "/>
<path style="fill:rgb(252, 177, 25);fill-opacity:1.0;fill-rule:evenodd;stroke:rgb(0, 0, 0);stroke-width:3.0;" d="M 294.551, 56.1069 L 244.726, 41.3835 L 288.606, 37.5424 z "/>
<path style="fill:rgb(255, 170, 10);fill-opacity:1.0;fill-rule:evenodd;stroke:rgb(0, 0, 0);stroke-width:3.0;" d="M 551.279, 121.068 L 549.888, 127.21 L 515.671, 148.053 L 515.817, 147.024 L 543.118, 110.065 z "/>
<path style="fill:rgb(55, 3, 255);fill-opacity:1.0;fill-rule:evenodd;stroke:rgb(0, 0, 0);stroke-width:3.0;" d="M 202.228, 24.2657 L 199.416, 16.132 L 228.44, 9.76889 z "/>
</svg>