<?xml version="1.0" encoding="iso-8859-1" standalone="no"?>
<!DOCTYPE svg PUBLIC "-//W3C//DTD SVG 1.0//EN" "http://www.w3.org/TR/2001/REC-SVG-20010904/DTD/svg10.dtd">
<svg xmlns="http://www.w3.org/2000/svg" width="800" height="600">
<path style="fill:rgb(0, 0, 0);fill-opacity:0.0;fill-rule:evenodd;stroke:rgb(0, 0, 0);stroke-width:0.0;" d="M 0, 600 L 800, 600 L 800, 0 L 0, 0 z "/>
<path style="fill:rgb(255, 56, 255);fill-opacity:1.0;fill-rule:evenodd;stroke:rgb(0, 0, 0);stroke-width:3.0;" d="M 244.199, 371.492 L 181.493, 385.699 L 141.348, 338.486 L 150.776, 329.763 z "/>
<path style="fill:rgb(255, 56, 255);fill-opacity:1.0;fill-rule:evenodd;stroke:rgb(0, 0, 0);stroke-width:3.0;" d="M 60.7982, 301.963 L 45.1649, 325.034 L 35.4304, 327.955 L 40.249, 308.546 L 44.9151, 299.746 z "/>
<path style="fill:rgb(255, 56, 255);fill-opacity:1.0;fill-rule:evenodd;stroke:rgb(0, 0, 0);stroke-width:3.0;" d="M 49.8488, 333.916 L 37.8175, 344.199 L 30.8584, 332.457 L 29.8304, 329.636 L 43.0394, 325.672 z "/>
<path style="fill:rgb(255, 56, 255);fill-opacity:1.0;fill-rule:evenodd;stroke:rgb(0, 0, 0);stroke-width:3.0;" d="M 92.2888, 195.182 L 36.6124, 183.612 L 78.1218, 177.879 z "/>
<path style="fill:rgb(255, 56, 255);fill-opacity:1.0;fill-rule:evenodd;stroke:rgb(0, 0, 0);stroke-width:3.0;" d="M 753.053, 244.918 L 692.654, 221.362 L 742.076, 163.182 z "/>
<path style="fill:rgb(255, 37, 16);fill-opacity:1.0;fill-rule:evenodd;stroke:rgb(0, 0, 0);stroke-width:3.0;" d="M 774.205, 161.336 L 763.635, 170.839 L 744.731, 182.954 L 744.722, 182.889 L 771.195, 151.938 z "/>
<path style="fill:rgb(255, 37, 16);fill-opacity:1.0;fill-rule:evenodd;stroke:rgb(0, 0, 0);stroke-width:3.0;" d="M 77.5761, 177.954 L 10.1608, 187.266 L 11.0749, 184.656 L 64.238, 160.021 z "/>
<path style="fill:rgb(255, 37, 16);fill-opacity:1.0;fill-rule:evenodd;stroke:rgb(0, 0, 0);stroke-width:3.0;" d="M 665.572, 210.8 L 703.486, 225.587 L 673.83, 244.246 L 654.307, 246.937 L 653.79, 211.795 L 657.953, 209.476 z "/>
<path style="fill:rgb(255, 37, 16);fill-opacity:1.0;fill-rule:evenodd;stroke:rgb(0, 0, 0);stroke-width:3.0;" d="M 166.327, 418.585 L 136.332, 414.695 L 141.933, 403.827 L 144.052, 402.926 z "/>
<path style="fill:rgb(255, 55, 20);fill-opacity:1.0;fill-rule:evenodd;stroke:rgb(0, 0, 0);stroke-width:3.0;" d="M 46.4836, 114.064 L 39.0501, 109.545 L 43.2563, 98.1352 L 50.8267, 93.2452 z "/>
<path style="fill:rgb(255, 55, 20);fill-opacity:1.0;fill-rule:evenodd;stroke:rgb(0, 0, 0);stroke-width:3.0;" d="M 311.722, 283.737 L 289.928, 311.88 L 295.641, 281.854 z "/>
<path style="fill:rgb(255, 55, 20);fill-opacity:1.0;fill-rule:evenodd;stroke:rgb(0, 0, 0);stroke-width:3.0;" d="M 75.9241, 371.05 L 20.2472, 368.22 L 16.0799, 355.589 L 61.9307, 331.973 z "/>
<path style="fill:rgb(249, 255, 67);fill-opacity:1.0;fill-rule:evenodd;stroke:rgb(0, 0, 0);stroke-width:3.0;" d="M 95.4197, 314.724 L 76.8425, 324.293 L 73.5923, 316.503 L 91.7811, 311.045 z "/>
<path style="fill:rgb(215, 255, 17);fill-opacity:1.0;fill-rule:evenodd;stroke:rgb(0, 0, 0);stroke-width:3.0;" d="M 51.8281, 165.771 L 24.5733, 178.401 L 18.481, 163.514 L 19.2769, 161.242 L 43.4951, 159.779 z "/>
<path style="fill:rgb(215, 255, 17);fill-opacity:1.0;fill-rule:evenodd;stroke:rgb(0, 0, 0);stroke-width:3.0;" d="M 158.381, 333.16 L 150.257, 329.531 L 147.398, 309.422 L 152.205, 299.319 z "/>
<path style="fill:rgb(215, 255, 17);fill-opacity:1.0;fill-rule:evenodd;stroke:rgb(0, 0, 0);stroke-width:3.0;" d="M 736.509, 484.354 L 737.487, 492.674 L 607.153, 475.767 L 556.845, 300.655 L 566.495, 298.469 z "/>
<path style="fill:rgb(240, 36, 41);fill-opacity:1.0;fill-rule:evenodd;stroke:rgb(0, 0, 0);stroke-width:3.0;" d="M 777.772, 454.213 L 790.625, 499.566 L 765.928, 496.363 L 733.893, 462.088 L 730.358, 431.995 z "/>
<path style="fill:rgb(240, 36, 41);fill-opacity:1.0;fill-rule:evenodd;stroke:rgb(0, 0, 0);stroke-width:3.0;" d="M 645.739, 274.091 L 623.555, 285.541 L 608.776, 288.889 L 625.674, 254.089 L 632.991, 247.634 z "/>
<path style="fill:rgb(240, 36, 41);fill-opacity:1.0;fill-rule:evenodd;stroke:rgb(0, 0, 0);stroke-width:3.0;" d="M 731.09, 236.353 L 703.353, 240.176 L 697.481, 229.365 L 703.486, 225.587 z "/>
<path style="fill:rgb(240, 36, 41);fill-opacity:1.0;fill-rule:evenodd;stroke:rgb(0, 0, 0);stroke-width:3.0;" d="M 95.9295, 195.938 L 92.2888, 195.182 L 78.1218, 177.879 L 92.2791, 175.923 z "/>
<path style="fill:rgb(240, 36, 41);fill-opacity:1.0;fill-rule:evenodd;stroke:rgb(0, 0, 0);stroke-width:3.0;" d="M 724.404, 178.866 L 703.519, 193.703 L 696.718, 186.482 L 725.652, 176.972 z "/>
<path style="fill:rgb(240, 36, 41);fill-opacity:1.0;fill-rule:evenodd;stroke:rgb(0, 0, 0);stroke-width:3.0;" d="M 443.068, 329.646 L 442.032, 331.621 L 427.467, 337.768 L 425.172, 330.489 L 444.335, 326.147 z "/>
<path style="fill:rgb(240, 36, 41);fill-opacity:1.0;fill-rule:evenodd;stroke:rgb(0, 0, 0);stroke-width:3.0;" d="M 35.1079, 344.119 L 17.4785, 351.487 L 28.9208, 329.909 L 29.8304, 329.636 z "/>
<path style="fill:rgb(64, 1, 255);fill-opacity:1.0;fill-rule:evenodd;stroke:rgb(0, 0, 0);stroke-width:3.0;" d="M 736.509, 484.354 L 600.474, 335.621 L 650.346, 279.47 L 710.828, 265.767 z "/>
<path style="fill:rgb(64, 1, 255);fill-opacity:1.0;fill-rule:evenodd;stroke:rgb(0, 0, 0);stroke-width:3.0;" d="M 179.196, 382.997 L 181.493, 385.699 L 169.727, 388.365 L 152.709, 381.425 L 152.893, 379.966 z "/>
<path style="fill:rgb(64, 1, 255);fill-opacity:1.0;fill-rule:evenodd;stroke:rgb(0, 0, 0);stroke-width:3.0;" d="M 114.128, 477.06 L 96.8168, 487.743 L 84.4149, 492.351 L 91.5647, 468.561 z "/>
<path style="fill:rgb(9, 124, 226);fill-opacity:1.0;fill-rule:evenodd;stroke:rgb(0, 0, 0);stroke-width:3.0;" d="M 680.86, 262.364 L 649.542, 247.593 L 722.883, 237.484 z "/>
<path style="fill:rgb(9, 124, 226);fill-opacity:1.0;fill-rule:evenodd;stroke:rgb(0, 0, 0);stroke-width:3.0;" d="M 611.33, 323.399 L 607.536, 327.67 L 574.788, 296.59 L 575.341, 296.464 z "/>
<path style="fill:rgb(9, 124, 226);fill-opacity:1.0;fill-rule:evenodd;stroke:rgb(0, 0, 0);stroke-width:3.0;" d="M 233.117, 427.249 L 227.478, 468.557 L 225.499, 469.226 L 224.458, 468.94 L 226.582, 426.401 z "/>
<path style="fill:rgb(9, 124, 226);fill-opacity:1.0;fill-rule:evenodd;stroke:rgb(0, 0, 0);stroke-width:3.0;" d="M 468.748, 302.117 L 169.121, 267.045 L 114.98, 103.487 z "/>
<path style="fill:rgb(255, 255, 18);fill-opacity:1.0;fill-rule:evenodd;stroke:rgb(0, 0, 0);stroke-width:3.0;" d="M 146.888, 475.344 L 72.172, 535.342 L 48.4882, 546.607 L 61.7273, 521.5 L 113.083, 484.542 L 144.681, 463.247 z "/>
<path style="fill:rgb(255, 161, 19);fill-opacity:1.0;fill-rule:evenodd;stroke:rgb(0, 0, 0);stroke-width:3.0;" d="M 156.364, 527.304 L 59.6669, 572.506 L 32.4563, 567.233 L 109.214, 505.597 L 152.208, 504.515 z "/>
<path style="fill:rgb(255, 255, 11);fill-opacity:1.0;fill-rule:evenodd;stroke:rgb(0, 0, 0);stroke-width:3.0;" d="M 793.645, 222.044 L 757.615, 213.784 L 781.689, 184.707 z "/>
<path style="fill:rgb(255, 255, 11);fill-opacity:1.0;fill-rule:evenodd;stroke:rgb(0, 0, 0);stroke-width:3.0;" d="M 134.414, 504.963 L 109.214, 505.597 L 135.608, 484.402 z "/>
<path style="fill:rgb(255, 255, 11);fill-opacity:1.0;fill-rule:evenodd;stroke:rgb(0, 0, 0);stroke-width:3.0;" d="M 604.623, 475.439 L 452.656, 572.568 L 394.373, 567.398 L 432.761, 453.146 z "/>
<path style="fill:rgb(255, 255, 11);fill-opacity:1.0;fill-rule:evenodd;stroke:rgb(0, 0, 0);stroke-width:3.0;" d="M 114.98, 103.487 L 150.154, 209.747 L 91.2446, 170.251 L 74.9712, 81.0234 z "/>
<path style="fill:rgb(255, 24, 194);fill-opacity:1.0;fill-rule:evenodd;stroke:rgb(0, 0, 0);stroke-width:3.0;" d="M 226.582, 426.401 L 224.458, 468.94 L 209.966, 464.959 L 182.064, 420.627 z "/>
<path style="fill:rgb(255, 24, 194);fill-opacity:1.0;fill-rule:evenodd;stroke:rgb(0, 0, 0);stroke-width:3.0;" d="M 75.9241, 371.05 L 76.1231, 371.606 L 64.2457, 448.227 L 45.1921, 443.83 L 20.2472, 368.22 z "/>
<path style="fill:rgb(255, 24, 194);fill-opacity:1.0;fill-rule:evenodd;stroke:rgb(0, 0, 0);stroke-width:3.0;" d="M 639.064, 241.237 L 654.21, 257.422 L 633.316, 248.31 L 629.807, 241.028 z "/>
<path style="fill:rgb(255, 24, 194);fill-opacity:1.0;fill-rule:evenodd;stroke:rgb(0, 0, 0);stroke-width:3.0;" d="M 81.5241, 135.37 L 65.9929, 156.302 L 19.6304, 160.232 L 22.9592, 150.73 L 69.0088, 127.76 z "/>
<path style="fill:rgb(255, 55, 18);fill-opacity:1.0;fill-rule:evenodd;stroke:rgb(0, 0, 0);stroke-width:3.0;" d="M 102.8, 276.188 L 94.0057, 306.598 L 87.0556, 305.628 L 84.7447, 254.94 L 84.8967, 254.777 z "/>
<path style="fill:rgb(255, 46, 19);fill-opacity:1.0;fill-rule:evenodd;stroke:rgb(0, 0, 0);stroke-width:3.0;" d="M 601.713, 263.267 L 597.092, 268.932 L 593.997, 269.106 L 588.297, 257.461 L 587.426, 254.029 L 588.87, 253.07 L 593.021, 252.107 z "/>
<path style="fill:rgb(255, 46, 19);fill-opacity:1.0;fill-rule:evenodd;stroke:rgb(0, 0, 0);stroke-width:3.0;" d="M 64.4837, 573.439 L 66.9706, 581.1 L 30.3728, 581.088 L 28.2917, 570.578 L 32.4563, 567.233 z "/>
<path style="fill:rgb(123, 240, 23);fill-opacity:1.0;fill-rule:evenodd;stroke:rgb(0, 0, 0);stroke-width:3.0;" d="M 128.785, 432.965 L 127.912, 435.717 L 108.32, 451.874 L 110.954, 438.585 L 121.316, 427.481 z "/>
<path style="fill:rgb(123, 240, 23);fill-opacity:1.0;fill-rule:evenodd;stroke:rgb(0, 0, 0);stroke-width:3.0;" d="M 264.523, 537.192 L 250.195, 561.967 L 241.119, 558.53 L 238.448, 512.921 L 273.858, 482.274 z "/>
<path style="fill:rgb(31, 25, 207);fill-opacity:1.0;fill-rule:evenodd;stroke:rgb(0, 0, 0);stroke-width:3.0;" d="M 172.466, 419.382 L 172.574, 422.546 L 143.258, 455.442 L 135.814, 414.627 z "/>
<path style="fill:rgb(31, 25, 207);fill-opacity:1.0;fill-rule:evenodd;stroke:rgb(0, 0, 0);stroke-width:3.0;" d="M 630.908, 243.312 L 630.472, 244.21 L 615.215, 263.19 L 605.256, 269.038 L 605.417, 242.08 L 624.278, 229.553 z "/>
<path style="fill:rgb(31, 25, 207);fill-opacity:1.0;fill-rule:evenodd;stroke:rgb(0, 0, 0);stroke-width:3.0;" d="M 758.413, 305.244 L 756.204, 319.415 L 742.056, 339.448 L 747.516, 304.249 z "/>
<path style="fill:rgb(31, 25, 207);fill-opacity:1.0;fill-rule:evenodd;stroke:rgb(0, 0, 0);stroke-width:3.0;" d="M 706.802, 518.406 L 683.384, 543.43 L 633.675, 527.418 L 697.333, 498.757 z "/>
<path style="fill:rgb(255, 152, 15);fill-opacity:1.0;fill-rule:evenodd;stroke:rgb(0, 0, 0);stroke-width:3.0;" d="M 66.2897, 302.729 L 81.3946, 307.886 L 76.9156, 315.506 L 45.1649, 325.034 L 60.7982, 301.963 z "/>
<path style="fill:rgb(255, 152, 15);fill-opacity:1.0;fill-rule:evenodd;stroke:rgb(0, 0, 0);stroke-width:3.0;" d="M 194.998, 468.203 L 197.807, 478.585 L 176.586, 485.758 L 185.416, 463.034 z "/>
<path style="fill:rgb(207, 4, 255);fill-opacity:1.0;fill-rule:evenodd;stroke:rgb(0, 0, 0);stroke-width:3.0;" d="M 763.72, 160.677 L 760.594, 164.332 L 745.479, 159.469 L 745.593, 152.918 L 751.808, 149.162 z "/>
<path style="fill:rgb(207, 4, 255);fill-opacity:1.0;fill-rule:evenodd;stroke:rgb(0, 0, 0);stroke-width:3.0;" d="M 677.741, 264.211 L 666.688, 270.755 L 645.53, 248.146 L 647.857, 247.826 z "/>
<path style="fill:rgb(207, 4, 255);fill-opacity:1.0;fill-rule:evenodd;stroke:rgb(0, 0, 0);stroke-width:3.0;" d="M 182.064, 420.627 L 195.256, 441.588 L 191.424, 445.424 L 178.76, 437.785 L 175.031, 419.714 z "/>
<path style="fill:rgb(207, 4, 255);fill-opacity:1.0;fill-rule:evenodd;stroke:rgb(0, 0, 0);stroke-width:3.0;" d="M 452.656, 572.568 L 428.262, 588.158 L 409.646, 568.753 z "/>
<path style="fill:rgb(207, 4, 255);fill-opacity:1.0;fill-rule:evenodd;stroke:rgb(0, 0, 0);stroke-width:3.0;" d="M 79.5783, 418.246 L 69.7056, 413.005 L 72.4862, 395.068 L 79.8524, 393.18 z "/>
<path style="fill:rgb(207, 4, 255);fill-opacity:1.0;fill-rule:evenodd;stroke:rgb(0, 0, 0);stroke-width:3.0;" d="M 136.942, 570.909 L 116.006, 546.17 L 139.745, 535.073 z "/>
<path style="fill:rgb(207, 4, 255);fill-opacity:1.0;fill-rule:evenodd;stroke:rgb(0, 0, 0);stroke-width:3.0;" d="M 712.52, 196.91 L 703.053, 194.034 L 724.404, 178.866 z "/>
<path style="fill:rgb(243, 255, 8);fill-opacity:1.0;fill-rule:evenodd;stroke:rgb(0, 0, 0);stroke-width:3.0;" d="M 161.02, 242.573 L 153.924, 265.266 L 107.584, 259.842 L 104.984, 245.586 L 156.369, 228.522 z "/>
<path style="fill:rgb(243, 255, 8);fill-opacity:1.0;fill-rule:evenodd;stroke:rgb(0, 0, 0);stroke-width:3.0;" d="M 20.8504, 370.048 L 28.2794, 392.566 L 20.679, 389.654 L 14.0333, 384.797 L 12.7585, 364.119 z "/>
<path style="fill:rgb(243, 255, 8);fill-opacity:1.0;fill-rule:evenodd;stroke:rgb(0, 0, 0);stroke-width:3.0;" d="M 149.203, 493.372 L 135.097, 493.209 L 135.608, 484.402 L 146.712, 475.486 z "/>
<path style="fill:rgb(243, 255, 8);fill-opacity:1.0;fill-rule:evenodd;stroke:rgb(0, 0, 0);stroke-width:3.0;" d="M 691.529, 486.712 L 697.333, 498.757 L 674.534, 509.022 L 645.634, 480.759 z "/>
<path style="fill:rgb(243, 255, 8);fill-opacity:1.0;fill-rule:evenodd;stroke:rgb(0, 0, 0);stroke-width:3.0;" d="M 45.3994, 277.892 L 35.6945, 307.293 L 26.5053, 314.85 L 17.5319, 295.053 L 17.5984, 293.163 L 42.7254, 276.409 z "/>
<path style="fill:rgb(243, 255, 8);fill-opacity:1.0;fill-rule:evenodd;stroke:rgb(0, 0, 0);stroke-width:3.0;" d="M 190.709, 587.093 L 166.83, 584.685 L 165.632, 578.118 L 175.719, 568.849 z "/>
<path style="fill:rgb(243, 255, 8);fill-opacity:1.0;fill-rule:evenodd;stroke:rgb(0, 0, 0);stroke-width:3.0;" d="M 93.2559, 419.449 L 79.7597, 401.653 L 79.9708, 382.35 z "/>
<path style="fill:rgb(243, 255, 8);fill-opacity:1.0;fill-rule:evenodd;stroke:rgb(0, 0, 0);stroke-width:3.0;" d="M 414.48, 450.775 L 396.184, 448.401 L 402.66, 430.82 z "/>
<path style="fill:rgb(255, 255, 11);fill-opacity:1.0;fill-rule:evenodd;stroke:rgb(0, 0, 0);stroke-width:3.0;" d="M 788.889, 220.954 L 778.081, 250.529 L 771.35, 252.054 L 753.053, 244.918 L 752.252, 238.954 L 768.206, 216.212 z "/>
<path style="fill:rgb(255, 255, 11);fill-opacity:1.0;fill-rule:evenodd;stroke:rgb(0, 0, 0);stroke-width:3.0;" d="M 727.704, 302.44 L 723.265, 315.916 L 716.617, 315.04 L 715.436, 304.987 L 724.017, 302.103 z "/>
<path style="fill:rgb(255, 255, 11);fill-opacity:1.0;fill-rule:evenodd;stroke:rgb(0, 0, 0);stroke-width:3.0;" d="M 95.9342, 426.928 L 102.268, 444.616 L 67.3183, 510.897 L 58.6186, 484.527 L 69.7056, 413.005 z "/>
<path style="fill:rgb(240, 78, 192);fill-opacity:1.0;fill-rule:evenodd;stroke:rgb(0, 0, 0);stroke-width:3.0;" d="M 105.781, 457.767 L 106.129, 462.927 L 104.078, 473.274 L 92.062, 468.748 L 91.877, 467.423 L 101.628, 446.452 z "/>
<path style="fill:rgb(240, 78, 192);fill-opacity:1.0;fill-rule:evenodd;stroke:rgb(0, 0, 0);stroke-width:3.0;" d="M 17.0386, 309.072 L 16.8849, 313.439 L 7.10014, 309.264 L 10.9543, 293.272 z "/>
<path style="fill:rgb(88, 255, 255);fill-opacity:1.0;fill-rule:evenodd;stroke:rgb(0, 0, 0);stroke-width:3.0;" d="M 64.4629, 124.996 L 66.278, 129.123 L 53.869, 135.312 L 38.1117, 136.986 L 46.8511, 114.288 z "/>
<path style="fill:rgb(88, 255, 255);fill-opacity:1.0;fill-rule:evenodd;stroke:rgb(0, 0, 0);stroke-width:3.0;" d="M 85.3019, 137.667 L 46.4836, 114.064 L 50.9381, 92.7109 L 75.0776, 81.6072 z "/>
<path style="fill:rgb(88, 255, 255);fill-opacity:1.0;fill-rule:evenodd;stroke:rgb(0, 0, 0);stroke-width:3.0;" d="M 427.518, 337.928 L 398.079, 343.481 L 393.259, 337.719 L 425.172, 330.489 z "/>
<path style="fill:rgb(88, 255, 255);fill-opacity:1.0;fill-rule:evenodd;stroke:rgb(0, 0, 0);stroke-width:3.0;" d="M 781.863, 388.074 L 783.063, 388.396 L 727.117, 395.662 L 731.172, 386.406 z "/>
<path style="fill:rgb(88, 255, 255);fill-opacity:1.0;fill-rule:evenodd;stroke:rgb(0, 0, 0);stroke-width:3.0;" d="M 443.562, 428.166 L 145.527, 403.963 L 134.646, 396.314 L 379.264, 340.89 z "/>
<path style="fill:rgb(243, 40, 12);fill-opacity:1.0;fill-rule:evenodd;stroke:rgb(0, 0, 0);stroke-width:3.0;" d="M 123.615, 317.631 L 161.601, 362.304 L 141.255, 394.816 L 132.56, 396.786 L 117.637, 314.961 z "/>
<path style="fill:rgb(255, 1, 31);fill-opacity:1.0;fill-rule:evenodd;stroke:rgb(0, 0, 0);stroke-width:3.0;" d="M 133.823, 429.629 L 139.452, 444.13 L 129.588, 470.07 L 119.051, 463.653 L 130.274, 428.269 z "/>
<path style="fill:rgb(240, 192, 168);fill-opacity:1.0;fill-rule:evenodd;stroke:rgb(0, 0, 0);stroke-width:3.0;" d="M 273.858, 482.274 L 259.22, 494.944 L 193.155, 480.158 L 279.159, 451.09 z "/>
<path style="fill:rgb(240, 192, 168);fill-opacity:1.0;fill-rule:evenodd;stroke:rgb(0, 0, 0);stroke-width:3.0;" d="M 150.776, 329.763 L 141.348, 338.486 L 123.615, 317.631 z "/>
<path style="fill:rgb(240, 192, 168);fill-opacity:1.0;fill-rule:evenodd;stroke:rgb(0, 0, 0);stroke-width:3.0;" d="M 398.942, 424.543 L 402.66, 430.82 L 396.184, 448.401 L 368.587, 444.822 L 364.115, 426.597 L 366.588, 421.915 z "/>
<path style="fill:rgb(240, 192, 168);fill-opacity:1.0;fill-rule:evenodd;stroke:rgb(0, 0, 0);stroke-width:3.0;" d="M 204.324, 455.995 L 195.103, 468.591 L 191.236, 454.298 L 198.837, 447.276 z "/>
<path style="fill:rgb(255, 75, 60);fill-opacity:1.0;fill-rule:evenodd;stroke:rgb(0, 0, 0);stroke-width:3.0;" d="M 102.661, 491.566 L 91.3159, 499.212 L 84.9083, 492.167 L 100.204, 486.485 z "/>
<path style="fill:rgb(255, 234, 41);fill-opacity:1.0;fill-rule:evenodd;stroke:rgb(0, 0, 0);stroke-width:3.0;" d="M 771.35, 252.054 L 670.559, 274.891 L 666.688, 270.755 L 722.883, 237.484 L 731.09, 236.353 z "/>
<path style="fill:rgb(249, 255, 20);fill-opacity:1.0;fill-rule:evenodd;stroke:rgb(0, 0, 0);stroke-width:3.0;" d="M 781.689, 184.707 L 757.615, 213.784 L 754.987, 213.181 L 776.23, 167.661 z "/>
<path style="fill:rgb(249, 255, 23);fill-opacity:1.0;fill-rule:evenodd;stroke:rgb(0, 0, 0);stroke-width:3.0;" d="M 93.9599, 394.815 L 81.7809, 379.352 L 80.1301, 322.599 L 86.3362, 319.403 z "/>
<path style="fill:rgb(255, 157, 6);fill-opacity:1.0;fill-rule:evenodd;stroke:rgb(0, 0, 0);stroke-width:3.0;" d="M 448.661, 428.58 L 466.301, 457.497 L 414.48, 450.775 L 398.942, 424.543 z "/>
<path style="fill:rgb(12, 231, 255);fill-opacity:1.0;fill-rule:evenodd;stroke:rgb(0, 0, 0);stroke-width:3.0;" d="M 22.2313, 190.971 L 23.7629, 218.623 L 21.9527, 228.003 L 12.0117, 226.308 L 6.90128, 209.589 L 19.1391, 190.31 z "/>
<path style="fill:rgb(12, 231, 255);fill-opacity:1.0;fill-rule:evenodd;stroke:rgb(0, 0, 0);stroke-width:3.0;" d="M 763.501, 215.133 L 751.824, 235.769 L 748.594, 211.716 z "/>
<path style="fill:rgb(88, 16, 255);fill-opacity:1.0;fill-rule:evenodd;stroke:rgb(0, 0, 0);stroke-width:3.0;" d="M 150.154, 209.747 L 156.369, 228.522 L 104.984, 245.586 L 104.76, 244.354 L 131.423, 197.189 z "/>
<path style="fill:rgb(88, 16, 255);fill-opacity:1.0;fill-rule:evenodd;stroke:rgb(0, 0, 0);stroke-width:3.0;" d="M 107.562, 259.721 L 102.8, 276.188 L 92.9025, 264.351 L 94.4299, 253.905 L 106.215, 252.336 z "/>
<path style="fill:rgb(255, 243, 16);fill-opacity:1.0;fill-rule:evenodd;stroke:rgb(0, 0, 0);stroke-width:3.0;" d="M 657.597, 261.04 L 663.745, 267.61 L 659.756, 277.338 L 648.529, 279.882 L 634.179, 250.101 z "/>
<path style="fill:rgb(255, 240, 11);fill-opacity:1.0;fill-rule:evenodd;stroke:rgb(0, 0, 0);stroke-width:3.0;" d="M 240.413, 546.467 L 241.119, 558.53 L 202.603, 543.944 L 216.053, 532.304 z "/>
<path style="fill:rgb(252, 252, 67);fill-opacity:1.0;fill-rule:evenodd;stroke:rgb(0, 0, 0);stroke-width:3.0;" d="M 240.413, 546.467 L 216.053, 532.304 L 238.448, 512.921 z "/>
<path style="fill:rgb(255, 19, 115);fill-opacity:1.0;fill-rule:evenodd;stroke:rgb(0, 0, 0);stroke-width:3.0;" d="M 64.9093, 338.014 L 81.6152, 373.653 L 81.7809, 379.352 L 76.4927, 372.638 L 64.0009, 337.754 z "/>
<path style="fill:rgb(33, 212, 215);fill-opacity:1.0;fill-rule:evenodd;stroke:rgb(0, 0, 0);stroke-width:3.0;" d="M 259.22, 494.944 L 165.289, 576.239 L 156.335, 527.143 L 184.782, 482.988 L 193.155, 480.158 z "/>
<path style="fill:rgb(33, 212, 215);fill-opacity:1.0;fill-rule:evenodd;stroke:rgb(0, 0, 0);stroke-width:3.0;" d="M 85.9703, 281.822 L 86.5377, 294.268 L 64.726, 288.648 L 64.6024, 287.88 L 64.5156, 276.676 L 77.8177, 262.383 z "/>
<path style="fill:rgb(33, 212, 215);fill-opacity:1.0;fill-rule:evenodd;stroke:rgb(0, 0, 0);stroke-width:3.0;" d="M 91.1557, 499.036 L 67.2688, 513.606 L 65.4104, 514.515 L 75.3149, 495.732 L 84.9083, 492.167 z "/>
<path style="fill:rgb(33, 212, 215);fill-opacity:1.0;fill-rule:evenodd;stroke:rgb(0, 0, 0);stroke-width:3.0;" d="M 230.911, 554.664 L 233.644, 570.784 L 227.099, 572.304 L 213.578, 555.869 L 211.159, 547.184 z "/>
<path style="fill:rgb(33, 212, 215);fill-opacity:1.0;fill-rule:evenodd;stroke:rgb(0, 0, 0);stroke-width:3.0;" d="M 75.0694, 265.336 L 56.689, 285.086 L 24.6924, 213.807 L 27.9418, 196.969 z "/>
<path style="fill:rgb(33, 212, 215);fill-opacity:1.0;fill-rule:evenodd;stroke:rgb(0, 0, 0);stroke-width:3.0;" d="M 140.904, 263.742 L 150.257, 329.531 L 117.637, 314.961 L 107.584, 259.842 z "/>
<path style="fill:rgb(33, 212, 215);fill-opacity:1.0;fill-rule:evenodd;stroke:rgb(0, 0, 0);stroke-width:3.0;" d="M 156.335, 527.143 L 150.401, 494.608 L 184.782, 482.988 z "/>
<path style="fill:rgb(255, 0, 119);fill-opacity:1.0;fill-rule:evenodd;stroke:rgb(0, 0, 0);stroke-width:3.0;" d="M 362.892, 421.615 L 363.613, 424.552 L 343.692, 441.592 L 166.327, 418.585 L 145.527, 403.963 z "/>
<path style="fill:rgb(255, 0, 119);fill-opacity:1.0;fill-rule:evenodd;stroke:rgb(0, 0, 0);stroke-width:3.0;" d="M 240.259, 147.839 L 234.744, 170.731 L 222.634, 163.931 L 222.44, 135.509 z "/>
<path style="fill:rgb(255, 0, 119);fill-opacity:1.0;fill-rule:evenodd;stroke:rgb(0, 0, 0);stroke-width:3.0;" d="M 588.647, 258.842 L 576.435, 287.803 L 574.667, 284.98 L 569.885, 265.68 L 587.426, 254.029 z "/>
<path style="fill:rgb(255, 13, 9);fill-opacity:1.0;fill-rule:evenodd;stroke:rgb(0, 0, 0);stroke-width:3.0;" d="M 245.001, 560 L 240.782, 575.827 L 234.068, 573.286 L 230.911, 554.664 z "/>
<path style="fill:rgb(255, 13, 9);fill-opacity:1.0;fill-rule:evenodd;stroke:rgb(0, 0, 0);stroke-width:3.0;" d="M 157.83, 581.13 L 155.674, 590.956 L 146.136, 590.222 L 140.037, 581.124 z "/>
<path style="fill:rgb(255, 142, 24);fill-opacity:1.0;fill-rule:evenodd;stroke:rgb(0, 0, 0);stroke-width:3.0;" d="M 508.092, 306.722 L 496.715, 314.279 L 247.468, 370.751 L 247.021, 367.29 L 311.722, 283.737 z "/>
<path style="fill:rgb(255, 3, 39);fill-opacity:1.0;fill-rule:evenodd;stroke:rgb(0, 0, 0);stroke-width:3.0;" d="M 137.965, 572.117 L 135.049, 577.966 L 98.7875, 554.219 L 116.006, 546.17 z "/>
<path style="fill:rgb(255, 3, 39);fill-opacity:1.0;fill-rule:evenodd;stroke:rgb(0, 0, 0);stroke-width:3.0;" d="M 53.2512, 277.428 L 56.1325, 283.846 L 18.6578, 263.057 L 18.73, 261.008 L 20.8142, 252.359 z "/>
<path style="fill:rgb(255, 6, 23);fill-opacity:1.0;fill-rule:evenodd;stroke:rgb(0, 0, 0);stroke-width:3.0;" d="M 604.83, 330.717 L 600.474, 335.621 L 566.495, 298.469 L 572.432, 297.124 z "/>
<path style="fill:rgb(255, 6, 23);fill-opacity:1.0;fill-rule:evenodd;stroke:rgb(0, 0, 0);stroke-width:3.0;" d="M 53.2512, 277.428 L 20.8142, 252.359 L 21.9427, 247.677 L 32.0578, 230.215 z "/>
<path style="fill:rgb(231, 22, 6);fill-opacity:1.0;fill-rule:evenodd;stroke:rgb(0, 0, 0);stroke-width:3.0;" d="M 42.7254, 276.409 L 17.5984, 293.163 L 18.6578, 263.057 z "/>
<path style="fill:rgb(7, 41, 255);fill-opacity:1.0;fill-rule:evenodd;stroke:rgb(0, 0, 0);stroke-width:3.0;" d="M 693.335, 552.055 L 689.014, 574.542 L 670.858, 556.815 L 681.475, 545.47 z "/>
<path style="fill:rgb(255, 4, 17);fill-opacity:1.0;fill-rule:evenodd;stroke:rgb(0, 0, 0);stroke-width:3.0;" d="M 150.178, 493.384 L 150.374, 494.458 L 146.395, 502.661 L 134.77, 498.838 L 135.097, 493.209 z "/>
<path style="fill:rgb(255, 4, 17);fill-opacity:1.0;fill-rule:evenodd;stroke:rgb(0, 0, 0);stroke-width:3.0;" d="M 97.9791, 207.176 L 103.094, 235.224 L 75.0694, 265.336 L 27.9418, 196.969 L 28.827, 192.383 z "/>
<path style="fill:rgb(255, 4, 17);fill-opacity:1.0;fill-rule:evenodd;stroke:rgb(0, 0, 0);stroke-width:3.0;" d="M 747.516, 304.249 L 742.056, 339.448 L 722.704, 366.851 L 717.745, 324.646 L 743.015, 303.838 z "/>
<path style="fill:rgb(255, 4, 17);fill-opacity:1.0;fill-rule:evenodd;stroke:rgb(0, 0, 0);stroke-width:3.0;" d="M 693.335, 552.055 L 681.475, 545.47 L 697.993, 527.818 z "/>
<path style="fill:rgb(255, 252, 61);fill-opacity:1.0;fill-rule:evenodd;stroke:rgb(0, 0, 0);stroke-width:3.0;" d="M 166.182, 581.132 L 133.476, 581.122 L 157.42, 533.091 z "/>
<path style="fill:rgb(255, 252, 61);fill-opacity:1.0;fill-rule:evenodd;stroke:rgb(0, 0, 0);stroke-width:3.0;" d="M 126.574, 363.962 L 131.257, 389.641 L 114.666, 421.105 L 93.9599, 394.815 L 86.6476, 322.483 z "/>
<path style="fill:rgb(194, 252, 66);fill-opacity:1.0;fill-rule:evenodd;stroke:rgb(0, 0, 0);stroke-width:3.0;" d="M 776.23, 167.661 L 755.04, 213.069 L 748.225, 208.968 L 744.731, 182.954 L 774.93, 163.6 z "/>
<path style="fill:rgb(194, 252, 66);fill-opacity:1.0;fill-rule:evenodd;stroke:rgb(0, 0, 0);stroke-width:3.0;" d="M 102.471, 581.112 L 93.2638, 586.154 L 27.4123, 581.088 z "/>
<path style="fill:rgb(85, 237, 255);fill-opacity:1.0;fill-rule:evenodd;stroke:rgb(0, 0, 0);stroke-width:3.0;" d="M 173.827, 459.414 L 174.53, 480.091 L 145.221, 466.204 L 143.258, 455.442 L 155.246, 441.989 z "/>
<path style="fill:rgb(255, 194, 34);fill-opacity:1.0;fill-rule:evenodd;stroke:rgb(0, 0, 0);stroke-width:3.0;" d="M 209.524, 588.99 L 197.189, 587.746 L 199.83, 549.14 z "/>
<path style="fill:rgb(255, 194, 34);fill-opacity:1.0;fill-rule:evenodd;stroke:rgb(0, 0, 0);stroke-width:3.0;" d="M 64.2062, 323.043 L 60.0342, 332.95 L 52.3288, 336.918 L 43.0394, 325.672 L 62.215, 319.917 z "/>
<path style="fill:rgb(249, 25, 252);fill-opacity:1.0;fill-rule:evenodd;stroke:rgb(0, 0, 0);stroke-width:3.0;" d="M 52.1389, 464.887 L 65.5441, 505.519 L 29.294, 471.367 L 11.6076, 439.406 z "/>
<path style="fill:rgb(255, 10, 234);fill-opacity:1.0;fill-rule:evenodd;stroke:rgb(0, 0, 0);stroke-width:3.0;" d="M 56.1325, 283.846 L 56.689, 285.086 L 44.9466, 297.703 L 39.8144, 294.812 L 45.3994, 277.892 z "/>
<path style="fill:rgb(255, 10, 234);fill-opacity:1.0;fill-rule:evenodd;stroke:rgb(0, 0, 0);stroke-width:3.0;" d="M 24.8416, 311.179 L 18.5782, 321.369 L 16.5471, 323.039 L 17.5319, 295.053 z "/>
<path style="fill:rgb(255, 10, 234);fill-opacity:1.0;fill-rule:evenodd;stroke:rgb(0, 0, 0);stroke-width:3.0;" d="M 262.349, 163.122 L 248.395, 178.395 L 234.744, 170.731 L 240.259, 147.839 z "/>
<path style="fill:rgb(237, 228, 16);fill-opacity:1.0;fill-rule:evenodd;stroke:rgb(0, 0, 0);stroke-width:3.0;" d="M 366.585, 444.562 L 343.692, 441.592 L 358.073, 429.291 z "/>
<path style="fill:rgb(237, 228, 16);fill-opacity:1.0;fill-rule:evenodd;stroke:rgb(0, 0, 0);stroke-width:3.0;" d="M 28.442, 131.941 L 21.4462, 145.388 L 13.2101, 148.421 L 10.0517, 144.749 L 13.3625, 132.798 L 15.7555, 129.836 z "/>
<path style="fill:rgb(255, 136, 7);fill-opacity:1.0;fill-rule:evenodd;stroke:rgb(0, 0, 0);stroke-width:3.0;" d="M 425.986, 376.848 L 419.321, 395.263 L 379.264, 340.89 L 393.259, 337.719 z "/>
<path style="fill:rgb(255, 187, 14);fill-opacity:1.0;fill-rule:evenodd;stroke:rgb(0, 0, 0);stroke-width:3.0;" d="M 597.059, 440.631 L 607.153, 475.767 L 528.882, 465.614 L 534.051, 435.514 z "/>
<path style="fill:rgb(10, 3, 243);fill-opacity:1.0;fill-rule:evenodd;stroke:rgb(0, 0, 0);stroke-width:3.0;" d="M 793.02, 562.344 L 777.852, 585.657 L 775.061, 583.613 L 783.581, 565.545 L 793.326, 558.725 z "/>
<path style="fill:rgb(10, 3, 243);fill-opacity:1.0;fill-rule:evenodd;stroke:rgb(0, 0, 0);stroke-width:3.0;" d="M 255.63, 430.169 L 247.323, 461.85 L 227.478, 468.557 L 233.117, 427.249 z "/>
<path style="fill:rgb(10, 3, 243);fill-opacity:1.0;fill-rule:evenodd;stroke:rgb(0, 0, 0);stroke-width:3.0;" d="M 534.051, 435.514 L 528.882, 465.614 L 466.301, 457.497 L 448.661, 428.58 z "/>
<path style="fill:rgb(252, 255, 64);fill-opacity:1.0;fill-rule:evenodd;stroke:rgb(0, 0, 0);stroke-width:3.0;" d="M 573.814, 294.019 L 572.513, 297.105 L 526.039, 307.635 L 526.459, 294.523 L 527.556, 293.794 L 573.214, 289.895 z "/>
<path style="fill:rgb(246, 215, 255);fill-opacity:1.0;fill-rule:evenodd;stroke:rgb(0, 0, 0);stroke-width:3.0;" d="M 378.19, 446.067 L 367.552, 580.077 L 294.68, 435.235 z "/>
<path style="fill:rgb(246, 215, 255);fill-opacity:1.0;fill-rule:evenodd;stroke:rgb(0, 0, 0);stroke-width:3.0;" d="M 571.843, 280.471 L 573.214, 289.895 L 527.556, 293.794 L 564.725, 269.107 z "/>
<path style="fill:rgb(237, 62, 240);fill-opacity:1.0;fill-rule:evenodd;stroke:rgb(0, 0, 0);stroke-width:3.0;" d="M 645.634, 480.759 L 674.534, 509.022 L 633.675, 527.418 L 561.19, 504.07 L 562.058, 502.645 L 604.623, 475.439 z "/>
<path style="fill:rgb(24, 119, 226);fill-opacity:1.0;fill-rule:evenodd;stroke:rgb(0, 0, 0);stroke-width:3.0;" d="M 611.33, 323.399 L 575.341, 296.464 L 650.346, 279.47 z "/>
<path style="fill:rgb(212, 1, 29);fill-opacity:1.0;fill-rule:evenodd;stroke:rgb(0, 0, 0);stroke-width:3.0;" d="M 126.574, 363.962 L 121.629, 358.825 L 112.592, 305.879 L 115.69, 304.284 z "/>
<path style="fill:rgb(212, 1, 29);fill-opacity:1.0;fill-rule:evenodd;stroke:rgb(0, 0, 0);stroke-width:3.0;" d="M 95.9295, 195.938 L 97.9791, 207.176 L 21.715, 190.861 L 18.5186, 186.111 L 36.6124, 183.612 z "/>
<path style="fill:rgb(252, 202, 15);fill-opacity:1.0;fill-rule:evenodd;stroke:rgb(0, 0, 0);stroke-width:3.0;" d="M 135.049, 577.966 L 133.476, 581.122 L 104.084, 581.112 L 59.6669, 572.506 L 98.7875, 554.219 z "/>
<path style="fill:rgb(252, 202, 15);fill-opacity:1.0;fill-rule:evenodd;stroke:rgb(0, 0, 0);stroke-width:3.0;" d="M 746.684, 350.993 L 723.822, 376.366 L 722.704, 366.851 L 767.563, 303.33 z "/>
<path style="fill:rgb(255, 255, 57);fill-opacity:1.0;fill-rule:evenodd;stroke:rgb(0, 0, 0);stroke-width:3.0;" d="M 607.536, 327.67 L 604.83, 330.717 L 572.432, 297.124 L 574.788, 296.59 z "/>
<path style="fill:rgb(255, 255, 57);fill-opacity:1.0;fill-rule:evenodd;stroke:rgb(0, 0, 0);stroke-width:3.0;" d="M 49.2923, 456.258 L 52.1389, 464.887 L 18.3718, 443.658 L 8.53092, 417.875 z "/>
<path style="fill:rgb(212, 1, 255);fill-opacity:1.0;fill-rule:evenodd;stroke:rgb(0, 0, 0);stroke-width:3.0;" d="M 758.358, 488.264 L 748.303, 491.882 L 742.921, 493.005 L 739.65, 481.803 L 743.054, 471.889 z "/>
<path style="fill:rgb(212, 1, 255);fill-opacity:1.0;fill-rule:evenodd;stroke:rgb(0, 0, 0);stroke-width:3.0;" d="M 294.68, 435.235 L 367.552, 580.077 L 367.089, 585.909 L 272.959, 487.565 L 282.131, 433.607 z "/>
<path style="fill:rgb(255, 1, 7);fill-opacity:1.0;fill-rule:evenodd;stroke:rgb(0, 0, 0);stroke-width:3.0;" d="M 597.059, 440.631 L 443.562, 428.166 L 419.321, 395.263 L 425.579, 377.972 L 575.995, 367.314 z "/>
<path style="fill:rgb(255, 20, 103);fill-opacity:1.0;fill-rule:evenodd;stroke:rgb(0, 0, 0);stroke-width:3.0;" d="M 575.995, 367.314 L 425.579, 377.972 L 444.335, 326.147 L 556.845, 300.655 z "/>
<path style="fill:rgb(255, 81, 8);fill-opacity:1.0;fill-rule:evenodd;stroke:rgb(0, 0, 0);stroke-width:3.0;" d="M 64.2457, 448.227 L 58.6186, 484.527 L 45.1921, 443.83 z "/>
<path style="fill:rgb(20, 240, 243);fill-opacity:1.0;fill-rule:evenodd;stroke:rgb(0, 0, 0);stroke-width:3.0;" d="M 743.015, 303.838 L 721.373, 321.659 L 727.704, 302.44 z "/>
<path style="fill:rgb(234, 32, 58);fill-opacity:1.0;fill-rule:evenodd;stroke:rgb(0, 0, 0);stroke-width:3.0;" d="M 208.425, 462.51 L 214.044, 473.098 L 209.662, 474.579 L 195.887, 471.487 L 195.103, 468.591 L 204.324, 455.995 z "/>
<path style="fill:rgb(220, 34, 255);fill-opacity:1.0;fill-rule:evenodd;stroke:rgb(0, 0, 0);stroke-width:3.0;" d="M 179.196, 382.997 L 152.893, 379.966 L 153.485, 375.273 L 161.601, 362.304 z "/>
<path style="fill:rgb(105, 255, 240);fill-opacity:1.0;fill-rule:evenodd;stroke:rgb(0, 0, 0);stroke-width:3.0;" d="M 197.189, 587.746 L 190.709, 587.093 L 182.889, 577.575 L 198.422, 569.716 z "/>
<path style="fill:rgb(69, 3, 255);fill-opacity:1.0;fill-rule:evenodd;stroke:rgb(0, 0, 0);stroke-width:3.0;" d="M 199.83, 549.14 L 198.422, 569.716 L 189.01, 574.478 L 196.702, 549.052 L 199.268, 546.831 z "/>
<path style="fill:rgb(255, 228, 11);fill-opacity:1.0;fill-rule:evenodd;stroke:rgb(0, 0, 0);stroke-width:3.0;" d="M 189.01, 574.478 L 182.889, 577.575 L 174.933, 567.892 L 196.702, 549.052 z "/>
<path style="fill:rgb(255, 39, 9);fill-opacity:1.0;fill-rule:evenodd;stroke:rgb(0, 0, 0);stroke-width:3.0;" d="M 433.362, 356.465 L 425.986, 376.848 L 398.079, 343.481 L 427.518, 337.928 z "/>
<path style="fill:rgb(255, 21, 72);fill-opacity:1.0;fill-rule:evenodd;stroke:rgb(0, 0, 0);stroke-width:3.0;" d="M 735.575, 285.108 L 714.158, 294.109 L 710.828, 265.767 L 729.977, 261.428 z "/>
<path style="fill:rgb(212, 28, 255);fill-opacity:1.0;fill-rule:evenodd;stroke:rgb(0, 0, 0);stroke-width:3.0;" d="M 703.968, 197.361 L 705.662, 206.049 L 695.648, 217.838 L 688.736, 208.538 L 696.146, 197.26 z "/>
<path style="fill:rgb(212, 28, 255);fill-opacity:1.0;fill-rule:evenodd;stroke:rgb(0, 0, 0);stroke-width:3.0;" d="M 121.629, 358.825 L 86.6476, 322.483 L 86.3362, 319.403 L 112.592, 305.879 z "/>
<path style="fill:rgb(212, 28, 255);fill-opacity:1.0;fill-rule:evenodd;stroke:rgb(0, 0, 0);stroke-width:3.0;" d="M 654.307, 246.937 L 645.53, 248.146 L 626.653, 227.975 L 636.585, 221.379 L 653.79, 211.795 z "/>
<path style="fill:rgb(46, 0, 217);fill-opacity:1.0;fill-rule:evenodd;stroke:rgb(0, 0, 0);stroke-width:3.0;" d="M 365.93, 49.7474 L 339.868, 78.2739 L 314.801, 17.0962 z "/>
<path style="fill:rgb(243, 94, 9);fill-opacity:1.0;fill-rule:evenodd;stroke:rgb(0, 0, 0);stroke-width:3.0;" d="M 170.288, 446.01 L 164.39, 450.564 L 155.246, 441.989 L 165.13, 430.899 z "/>
<path style="fill:rgb(255, 115, 119);fill-opacity:1.0;fill-rule:evenodd;stroke:rgb(0, 0, 0);stroke-width:3.0;" d="M 173.293, 443.69 L 170.288, 446.01 L 165.13, 430.899 L 172.574, 422.546 z "/>
<path style="fill:rgb(255, 92, 14);fill-opacity:1.0;fill-rule:evenodd;stroke:rgb(0, 0, 0);stroke-width:3.0;" d="M 76.4638, 372.557 L 79.9708, 382.35 L 79.8524, 393.18 L 72.4862, 395.068 L 76.0178, 372.285 z "/>
<path style="fill:rgb(204, 231, 255);fill-opacity:1.0;fill-rule:evenodd;stroke:rgb(0, 0, 0);stroke-width:3.0;" d="M 295.641, 281.854 L 289.928, 311.88 L 268.069, 340.11 L 242.517, 332.375 L 235.085, 274.766 z "/>
<path style="fill:rgb(252, 21, 184);fill-opacity:1.0;fill-rule:evenodd;stroke:rgb(0, 0, 0);stroke-width:3.0;" d="M 235.085, 274.766 L 247.468, 370.751 L 244.199, 371.492 L 158.381, 333.16 L 145.817, 264.317 z "/>
<path style="fill:rgb(246, 255, 40);fill-opacity:1.0;fill-rule:evenodd;stroke:rgb(0, 0, 0);stroke-width:3.0;" d="M 247.021, 367.29 L 244.314, 346.304 L 267.905, 340.322 z "/>
<path style="fill:rgb(92, 14, 217);fill-opacity:1.0;fill-rule:evenodd;stroke:rgb(0, 0, 0);stroke-width:3.0;" d="M 268.069, 340.11 L 267.905, 340.322 L 244.314, 346.304 L 242.517, 332.375 z "/>
<path style="fill:rgb(228, 161, 6);fill-opacity:1.0;fill-rule:evenodd;stroke:rgb(0, 0, 0);stroke-width:3.0;" d="M 730.23, 388.556 L 724.645, 375.453 L 746.684, 350.993 z "/>
<path style="fill:rgb(175, 9, 21);fill-opacity:1.0;fill-rule:evenodd;stroke:rgb(0, 0, 0);stroke-width:3.0;" d="M 131.423, 197.189 L 104.76, 244.354 L 91.2446, 170.251 z "/>
<path style="fill:rgb(110, 252, 231);fill-opacity:1.0;fill-rule:evenodd;stroke:rgb(0, 0, 0);stroke-width:3.0;" d="M 91.5401, 171.871 L 90.029, 176.234 L 88.838, 176.399 L 78.7648, 155.219 L 88.3548, 154.406 z "/>
<path style="fill:rgb(102, 192, 255);fill-opacity:1.0;fill-rule:evenodd;stroke:rgb(0, 0, 0);stroke-width:3.0;" d="M 145.817, 264.317 L 152.205, 299.319 L 147.398, 309.422 L 140.904, 263.742 z "/>
<path style="fill:rgb(154, 0, 231);fill-opacity:1.0;fill-rule:evenodd;stroke:rgb(0, 0, 0);stroke-width:3.0;" d="M 725.652, 176.972 L 696.852, 186.438 L 695.716, 182.104 L 698.56, 180.215 L 731.813, 167.618 z "/>
<path style="fill:rgb(75, 234, 177);fill-opacity:1.0;fill-rule:evenodd;stroke:rgb(0, 0, 0);stroke-width:3.0;" d="M 431.722, 351.261 L 427.467, 337.768 L 442.032, 331.621 z "/>
<path style="fill:rgb(88, 243, 234);fill-opacity:1.0;fill-rule:evenodd;stroke:rgb(0, 0, 0);stroke-width:3.0;" d="M 282.131, 433.607 L 279.159, 451.09 L 250.35, 460.827 L 263.877, 431.239 z "/>
<path style="fill:rgb(249, 65, 8);fill-opacity:1.0;fill-rule:evenodd;stroke:rgb(0, 0, 0);stroke-width:3.0;" d="M 263.877, 431.239 L 250.35, 460.827 L 247.323, 461.85 L 255.63, 430.169 z "/>
<path style="fill:rgb(26, 103, 255);fill-opacity:1.0;fill-rule:evenodd;stroke:rgb(0, 0, 0);stroke-width:3.0;" d="M 125.459, 443.449 L 116.065, 459.195 L 108.52, 451.708 L 123.737, 439.16 L 127.003, 438.581 z "/>
<path style="fill:rgb(243, 255, 19);fill-opacity:1.0;fill-rule:evenodd;stroke:rgb(0, 0, 0);stroke-width:3.0;" d="M 93.2559, 419.449 L 95.9342, 426.928 L 79.5783, 418.246 L 79.7597, 401.653 z "/>
<path style="fill:rgb(36, 246, 255);fill-opacity:1.0;fill-rule:evenodd;stroke:rgb(0, 0, 0);stroke-width:3.0;" d="M 157.42, 533.091 L 137.965, 572.117 L 136.942, 570.909 L 139.745, 535.073 L 156.364, 527.304 z "/>
<path style="fill:rgb(234, 3, 226);fill-opacity:1.0;fill-rule:evenodd;stroke:rgb(0, 0, 0);stroke-width:3.0;" d="M 781.863, 388.074 L 731.172, 386.406 L 735.853, 375.72 z "/>
<path style="fill:rgb(50, 234, 255);fill-opacity:1.0;fill-rule:evenodd;stroke:rgb(0, 0, 0);stroke-width:3.0;" d="M 80.0894, 158.004 L 81.885, 164.741 L 82.5931, 177.261 L 77.5761, 177.954 L 71.9774, 170.426 L 72.3068, 156.282 L 73.6666, 155.651 L 78.7648, 155.219 z "/>
</svg>