<?xml version="1.0" encoding="iso-8859-1" standalone="no"?>
<!DOCTYPE svg PUBLIC "-//W3C//DTD SVG 1.0//EN" "http://www.w3.org/TR/2001/REC-SVG-20010904/DTD/svg10.dtd">
<svg xmlns="http://www.w3.org/2000/svg" width="800" height="600">
<path style="fill:rgb(0, 0, 0);fill-opacity:0.0;fill-rule:evenodd;stroke:rgb(0, 0, 0);stroke-width:0.0;" d="M 0, 600 L 800, 600 L 800, 0 L 0, 0 z "/>
<path style="fill:rgb(249, 252, 24);fill-opacity:1.0;fill-rule:evenodd;stroke:rgb(0, 0, 0);stroke-width:3.0;" d="M 765.785, 531.457 L 769.663, 544.331 L 764.762, 548.427 L 757.411, 547.578 L 749.179, 525.983 L 750.058, 524.974 L 755.551, 520.937 z "/>
<path style="fill:rgb(249, 252, 24);fill-opacity:1.0;fill-rule:evenodd;stroke:rgb(0, 0, 0);stroke-width:3.0;" d="M 756.068, 459.82 L 731.631, 496.35 L 692.028, 455.64 L 731.386, 436.968 z "/>
<path style="fill:rgb(86, 60, 249);fill-opacity:1.0;fill-rule:evenodd;stroke:rgb(0, 0, 0);stroke-width:3.0;" d="M 633.025, 312.966 L 639.829, 329.231 L 636.893, 334.603 L 627.881, 337.542 L 630.114, 312.298 z "/>
<path style="fill:rgb(86, 60, 249);fill-opacity:1.0;fill-rule:evenodd;stroke:rgb(0, 0, 0);stroke-width:3.0;" d="M 454.832, 495.007 L 420.417, 491.806 L 419.356, 477.428 L 461.112, 471.467 z "/>
<path style="fill:rgb(86, 60, 249);fill-opacity:1.0;fill-rule:evenodd;stroke:rgb(0, 0, 0);stroke-width:3.0;" d="M 535.856, 38.8506 L 533.894, 53.0453 L 518.117, 57.4715 L 505.426, 53.5572 L 535.565, 38.3359 z "/>
<path style="fill:rgb(86, 60, 249);fill-opacity:1.0;fill-rule:evenodd;stroke:rgb(0, 0, 0);stroke-width:3.0;" d="M 590.842, 534.687 L 572.667, 556.383 L 565.74, 544.062 L 595.947, 519.995 z "/>
<path style="fill:rgb(255, 10, 255);fill-opacity:1.0;fill-rule:evenodd;stroke:rgb(0, 0, 0);stroke-width:3.0;" d="M 689.643, 388.426 L 688.522, 404.199 L 668.538, 381.142 z "/>
<path style="fill:rgb(255, 10, 255);fill-opacity:1.0;fill-rule:evenodd;stroke:rgb(0, 0, 0);stroke-width:3.0;" d="M 570.13, 390.687 L 550.577, 404.479 L 592.246, 349.413 L 596.454, 348.521 z "/>
<path style="fill:rgb(255, 21, 78);fill-opacity:1.0;fill-rule:evenodd;stroke:rgb(0, 0, 0);stroke-width:3.0;" d="M 552.305, 68.0161 L 545.346, 65.8696 L 534.609, 47.8727 L 535.856, 38.8506 z "/>
<path style="fill:rgb(255, 21, 78);fill-opacity:1.0;fill-rule:evenodd;stroke:rgb(0, 0, 0);stroke-width:3.0;" d="M 764.228, 575.049 L 744.837, 542.956 L 747.582, 534.013 z "/>
<path style="fill:rgb(255, 21, 78);fill-opacity:1.0;fill-rule:evenodd;stroke:rgb(0, 0, 0);stroke-width:3.0;" d="M 742.475, 504.282 L 736.704, 499.213 L 739.154, 493.219 L 755.561, 474.906 L 758.464, 473.083 z "/>
<path style="fill:rgb(255, 21, 78);fill-opacity:1.0;fill-rule:evenodd;stroke:rgb(0, 0, 0);stroke-width:3.0;" d="M 783.908, 550.086 L 782.505, 555.648 L 775.79, 564.672 L 765.785, 531.457 z "/>
<path style="fill:rgb(246, 252, 33);fill-opacity:1.0;fill-rule:evenodd;stroke:rgb(0, 0, 0);stroke-width:3.0;" d="M 575.274, 448.66 L 574.074, 456.495 L 552.607, 415.319 z "/>
<path style="fill:rgb(246, 252, 33);fill-opacity:1.0;fill-rule:evenodd;stroke:rgb(0, 0, 0);stroke-width:3.0;" d="M 675.509, 239.381 L 634.95, 292.979 L 635.087, 287.331 L 658.326, 229.332 L 673.449, 217.29 z "/>
<path style="fill:rgb(103, 88, 240);fill-opacity:1.0;fill-rule:evenodd;stroke:rgb(0, 0, 0);stroke-width:3.0;" d="M 635.366, 275.847 L 624.318, 279.231 L 622.907, 258.98 L 636.075, 246.615 z "/>
<path style="fill:rgb(103, 88, 240);fill-opacity:1.0;fill-rule:evenodd;stroke:rgb(0, 0, 0);stroke-width:3.0;" d="M 608.755, 483.131 L 604.11, 496.501 L 596.85, 500.183 L 574.207, 456.75 L 617.523, 438.876 z "/>
<path style="fill:rgb(103, 88, 240);fill-opacity:1.0;fill-rule:evenodd;stroke:rgb(0, 0, 0);stroke-width:3.0;" d="M 551.172, 593.295 L 529.764, 568.437 L 536.339, 562.064 z "/>
<path style="fill:rgb(103, 88, 240);fill-opacity:1.0;fill-rule:evenodd;stroke:rgb(0, 0, 0);stroke-width:3.0;" d="M 575.156, 404.25 L 580.684, 413.346 L 575.274, 448.66 L 552.607, 415.319 L 548.433, 407.312 L 550.577, 404.479 L 561.25, 396.95 z "/>
<path style="fill:rgb(103, 88, 240);fill-opacity:1.0;fill-rule:evenodd;stroke:rgb(0, 0, 0);stroke-width:3.0;" d="M 366.682, 570.328 L 367.134, 573.215 L 338.983, 585.206 L 353.709, 554.021 z "/>
<path style="fill:rgb(103, 88, 240);fill-opacity:1.0;fill-rule:evenodd;stroke:rgb(0, 0, 0);stroke-width:3.0;" d="M 708.087, 415.396 L 703.086, 450.394 L 692.028, 455.64 L 691.288, 454.879 L 691.208, 429.229 L 707.478, 414.832 z "/>
<path style="fill:rgb(100, 107, 255);fill-opacity:1.0;fill-rule:evenodd;stroke:rgb(0, 0, 0);stroke-width:3.0;" d="M 33.5368, 449.463 L 19.1282, 439.745 L 38.3672, 425.558 L 41.2368, 424.869 z "/>
<path style="fill:rgb(100, 107, 255);fill-opacity:1.0;fill-rule:evenodd;stroke:rgb(0, 0, 0);stroke-width:3.0;" d="M 742.178, 111.342 L 724.77, 107.985 L 716.182, 94.4605 L 719.143, 83.3159 z "/>
<path style="fill:rgb(100, 107, 255);fill-opacity:1.0;fill-rule:evenodd;stroke:rgb(0, 0, 0);stroke-width:3.0;" d="M 706.104, 544.876 L 676.822, 578.919 L 675.711, 573.346 L 701.449, 541.65 z "/>
<path style="fill:rgb(100, 107, 255);fill-opacity:1.0;fill-rule:evenodd;stroke:rgb(0, 0, 0);stroke-width:3.0;" d="M 571.866, 554.958 L 572.711, 559.577 L 546.058, 558.677 L 543.951, 554.687 L 561.921, 537.27 z "/>
<path style="fill:rgb(45, 249, 187);fill-opacity:1.0;fill-rule:evenodd;stroke:rgb(0, 0, 0);stroke-width:3.0;" d="M 773.663, 117.413 L 721.299, 166.586 L 650.713, 93.7029 z "/>
<path style="fill:rgb(255, 243, 46);fill-opacity:1.0;fill-rule:evenodd;stroke:rgb(0, 0, 0);stroke-width:3.0;" d="M 756.812, 439.045 L 760.698, 451.171 L 746.685, 443.556 L 745.388, 438.567 L 748.331, 433.973 z "/>
<path style="fill:rgb(255, 243, 46);fill-opacity:1.0;fill-rule:evenodd;stroke:rgb(0, 0, 0);stroke-width:3.0;" d="M 671.44, 333.176 L 663.007, 358.368 L 653.868, 353.288 L 661.379, 331.669 L 667.796, 327.285 z "/>
<path style="fill:rgb(255, 243, 46);fill-opacity:1.0;fill-rule:evenodd;stroke:rgb(0, 0, 0);stroke-width:3.0;" d="M 47.5362, 533.074 L 25.9347, 531.977 L 27.8225, 516.233 z "/>
<path style="fill:rgb(255, 243, 46);fill-opacity:1.0;fill-rule:evenodd;stroke:rgb(0, 0, 0);stroke-width:3.0;" d="M 671.668, 302.057 L 636.969, 304.504 L 673.978, 290.285 L 675.798, 290.17 z "/>
<path style="fill:rgb(243, 17, 13);fill-opacity:1.0;fill-rule:evenodd;stroke:rgb(0, 0, 0);stroke-width:3.0;" d="M 561.697, 432.755 L 505.275, 481.386 L 481.134, 496.247 L 548.433, 407.312 z "/>
<path style="fill:rgb(243, 17, 13);fill-opacity:1.0;fill-rule:evenodd;stroke:rgb(0, 0, 0);stroke-width:3.0;" d="M 546.137, 561.018 L 549.98, 573.088 L 540.492, 570.809 L 536.339, 562.064 L 539.522, 558.979 z "/>
<path style="fill:rgb(243, 17, 13);fill-opacity:1.0;fill-rule:evenodd;stroke:rgb(0, 0, 0);stroke-width:3.0;" d="M 650.713, 93.7029 L 721.299, 166.586 L 635.465, 247.188 L 470.985, 70.9509 L 488.048, 62.3335 z "/>
<path style="fill:rgb(252, 21, 10);fill-opacity:1.0;fill-rule:evenodd;stroke:rgb(0, 0, 0);stroke-width:3.0;" d="M 447.167, 523.739 L 435.612, 567.049 L 425.953, 521.249 z "/>
<path style="fill:rgb(252, 21, 10);fill-opacity:1.0;fill-rule:evenodd;stroke:rgb(0, 0, 0);stroke-width:3.0;" d="M 732.327, 256.701 L 681.327, 274.255 L 693.794, 238.374 L 758.643, 208.224 z "/>
<path style="fill:rgb(12, 75, 192);fill-opacity:1.0;fill-rule:evenodd;stroke:rgb(0, 0, 0);stroke-width:3.0;" d="M 509.645, 458.571 L 467.636, 514.085 L 456.561, 500.251 L 495.317, 432.39 z "/>
<path style="fill:rgb(12, 75, 192);fill-opacity:1.0;fill-rule:evenodd;stroke:rgb(0, 0, 0);stroke-width:3.0;" d="M 691.404, 311.157 L 661.379, 331.669 L 672.681, 299.141 z "/>
<path style="fill:rgb(12, 75, 192);fill-opacity:1.0;fill-rule:evenodd;stroke:rgb(0, 0, 0);stroke-width:3.0;" d="M 454.832, 495.007 L 447.167, 523.739 L 378.582, 515.691 L 393.185, 489.273 z "/>
<path style="fill:rgb(12, 75, 192);fill-opacity:1.0;fill-rule:evenodd;stroke:rgb(0, 0, 0);stroke-width:3.0;" d="M 625.583, 297.385 L 626.091, 304.686 L 621.451, 310.818 L 607.769, 316.904 L 602.572, 298.273 L 606.762, 294.753 z "/>
<path style="fill:rgb(12, 75, 192);fill-opacity:1.0;fill-rule:evenodd;stroke:rgb(0, 0, 0);stroke-width:3.0;" d="M 502.628, 400.454 L 510.929, 405.053 L 502.395, 419.997 L 475.393, 417.937 L 480.956, 397.085 z "/>
<path style="fill:rgb(12, 75, 192);fill-opacity:1.0;fill-rule:evenodd;stroke:rgb(0, 0, 0);stroke-width:3.0;" d="M 626.751, 431.335 L 625.237, 435.694 L 609.824, 442.053 L 601.482, 418.07 z "/>
<path style="fill:rgb(12, 75, 192);fill-opacity:1.0;fill-rule:evenodd;stroke:rgb(0, 0, 0);stroke-width:3.0;" d="M 222.967, 576.555 L 217.215, 583.858 L 198, 564.154 L 196.62, 555.95 z "/>
<path style="fill:rgb(12, 75, 192);fill-opacity:1.0;fill-rule:evenodd;stroke:rgb(0, 0, 0);stroke-width:3.0;" d="M 642.499, 268.834 L 635.561, 267.8 L 636.063, 247.072 L 654.118, 239.835 z "/>
<path style="fill:rgb(252, 37, 15);fill-opacity:1.0;fill-rule:evenodd;stroke:rgb(0, 0, 0);stroke-width:3.0;" d="M 649.207, 466.396 L 599.192, 510.653 L 605.042, 493.818 L 645.728, 465.437 z "/>
<path style="fill:rgb(27, 51, 255);fill-opacity:1.0;fill-rule:evenodd;stroke:rgb(0, 0, 0);stroke-width:3.0;" d="M 771.927, 494.309 L 770.872, 497.726 L 742.932, 503.39 L 754.608, 480.608 z "/>
<path style="fill:rgb(27, 51, 255);fill-opacity:1.0;fill-rule:evenodd;stroke:rgb(0, 0, 0);stroke-width:3.0;" d="M 526.827, 518.965 L 520.35, 523.515 L 468.508, 512.933 L 481.134, 496.247 L 541.936, 458.817 z "/>
<path style="fill:rgb(27, 51, 255);fill-opacity:1.0;fill-rule:evenodd;stroke:rgb(0, 0, 0);stroke-width:3.0;" d="M 521.587, 410.958 L 510.017, 424.762 L 509.392, 423.627 L 509.559, 407.453 L 510.929, 405.053 z "/>
<path style="fill:rgb(27, 51, 255);fill-opacity:1.0;fill-rule:evenodd;stroke:rgb(0, 0, 0);stroke-width:3.0;" d="M 599.148, 321.844 L 583.395, 345.366 L 574.358, 332.178 L 596.793, 311.923 z "/>
<path style="fill:rgb(27, 51, 255);fill-opacity:1.0;fill-rule:evenodd;stroke:rgb(0, 0, 0);stroke-width:3.0;" d="M 29.3161, 490.503 L 17.9083, 503.984 L 10.3268, 499.819 L 10.5336, 497.995 L 27.2898, 488.606 z "/>
<path style="fill:rgb(231, 17, 252);fill-opacity:1.0;fill-rule:evenodd;stroke:rgb(0, 0, 0);stroke-width:3.0;" d="M 596.793, 311.923 L 552.635, 351.791 L 537.612, 339.075 L 591.277, 288.682 z "/>
<path style="fill:rgb(231, 17, 252);fill-opacity:1.0;fill-rule:evenodd;stroke:rgb(0, 0, 0);stroke-width:3.0;" d="M 775.544, 460.448 L 765.828, 467.175 L 761.815, 454.655 L 769.811, 451.57 z "/>
<path style="fill:rgb(231, 17, 252);fill-opacity:1.0;fill-rule:evenodd;stroke:rgb(0, 0, 0);stroke-width:3.0;" d="M 733.575, 409.926 L 718.289, 406.466 L 718.193, 405.35 L 733.407, 391.887 z "/>
<path style="fill:rgb(231, 17, 252);fill-opacity:1.0;fill-rule:evenodd;stroke:rgb(0, 0, 0);stroke-width:3.0;" d="M 705.994, 199.095 L 685.01, 226.825 L 675.186, 235.923 L 672.954, 211.984 L 694.88, 191.395 z "/>
<path style="fill:rgb(255, 17, 15);fill-opacity:1.0;fill-rule:evenodd;stroke:rgb(0, 0, 0);stroke-width:3.0;" d="M 747.857, 533.118 L 737.557, 566.677 L 707.153, 545.603 L 724.097, 513.58 L 736.631, 507.961 z "/>
<path style="fill:rgb(255, 17, 15);fill-opacity:1.0;fill-rule:evenodd;stroke:rgb(0, 0, 0);stroke-width:3.0;" d="M 610.355, 85.92 L 500.685, 64.7705 L 505.349, 53.5957 L 505.426, 53.5572 z "/>
<path style="fill:rgb(255, 17, 15);fill-opacity:1.0;fill-rule:evenodd;stroke:rgb(0, 0, 0);stroke-width:3.0;" d="M 197.242, 572.208 L 188.647, 587.54 L 166.594, 586.261 L 165.433, 544.024 L 168.287, 540.974 z "/>
<path style="fill:rgb(246, 97, 18);fill-opacity:1.0;fill-rule:evenodd;stroke:rgb(0, 0, 0);stroke-width:3.0;" d="M 774.434, 592.237 L 774.152, 592.042 L 739.237, 513.802 L 743.576, 511.283 z "/>
<path style="fill:rgb(12, 45, 215);fill-opacity:1.0;fill-rule:evenodd;stroke:rgb(0, 0, 0);stroke-width:3.0;" d="M 626.751, 431.335 L 568.132, 400.563 L 639.745, 393.937 z "/>
<path style="fill:rgb(12, 45, 215);fill-opacity:1.0;fill-rule:evenodd;stroke:rgb(0, 0, 0);stroke-width:3.0;" d="M 673.89, 289.708 L 636.264, 291.243 L 644.642, 280.171 z "/>
<path style="fill:rgb(12, 45, 215);fill-opacity:1.0;fill-rule:evenodd;stroke:rgb(0, 0, 0);stroke-width:3.0;" d="M 647.418, 371.85 L 616.859, 363.542 L 617.337, 363.048 L 652.181, 358.142 z "/>
<path style="fill:rgb(12, 45, 215);fill-opacity:1.0;fill-rule:evenodd;stroke:rgb(0, 0, 0);stroke-width:3.0;" d="M 774.018, 558.787 L 760.52, 555.736 L 759.432, 552.881 L 769.663, 544.331 z "/>
<path style="fill:rgb(12, 45, 215);fill-opacity:1.0;fill-rule:evenodd;stroke:rgb(0, 0, 0);stroke-width:3.0;" d="M 572.711, 559.577 L 573.064, 561.508 L 565.615, 569.442 L 554.395, 564.882 L 556.558, 559.032 z "/>
<path style="fill:rgb(105, 209, 223);fill-opacity:1.0;fill-rule:evenodd;stroke:rgb(0, 0, 0);stroke-width:3.0;" d="M 595.432, 532.916 L 604.135, 559.251 L 576.723, 575.325 L 592.473, 529.992 z "/>
<path style="fill:rgb(35, 2, 255);fill-opacity:1.0;fill-rule:evenodd;stroke:rgb(0, 0, 0);stroke-width:3.0;" d="M 615.4, 552.645 L 604.135, 559.251 L 595.432, 532.916 z "/>
<path style="fill:rgb(255, 37, 228);fill-opacity:1.0;fill-rule:evenodd;stroke:rgb(0, 0, 0);stroke-width:3.0;" d="M 756.812, 439.045 L 743.712, 431.211 L 735.591, 389.954 L 739.865, 386.172 z "/>
<path style="fill:rgb(255, 1, 41);fill-opacity:1.0;fill-rule:evenodd;stroke:rgb(0, 0, 0);stroke-width:3.0;" d="M 540.143, 580.489 L 533.006, 592.23 L 529.717, 591.634 L 519.281, 578.597 L 529.764, 568.437 z "/>
<path style="fill:rgb(255, 1, 41);fill-opacity:1.0;fill-rule:evenodd;stroke:rgb(0, 0, 0);stroke-width:3.0;" d="M 630.92, 475.766 L 620.207, 483.24 L 615.019, 484.339 L 640.164, 443.55 L 642.751, 442.344 z "/>
<path style="fill:rgb(255, 1, 41);fill-opacity:1.0;fill-rule:evenodd;stroke:rgb(0, 0, 0);stroke-width:3.0;" d="M 731.295, 496.004 L 736.631, 507.961 L 685.752, 530.77 L 657.316, 511.06 L 649.217, 466.387 L 677.841, 441.057 z "/>
<path style="fill:rgb(231, 0, 20);fill-opacity:1.0;fill-rule:evenodd;stroke:rgb(0, 0, 0);stroke-width:3.0;" d="M 633.939, 75.438 L 673.432, 98.0843 L 610.355, 85.92 L 595.748, 81.4147 L 600.376, 65.2961 z "/>
<path style="fill:rgb(231, 0, 20);fill-opacity:1.0;fill-rule:evenodd;stroke:rgb(0, 0, 0);stroke-width:3.0;" d="M 486.393, 428.034 L 492.068, 438.079 L 456.561, 500.251 L 454.215, 497.32 L 473.439, 425.262 z "/>
<path style="fill:rgb(231, 0, 20);fill-opacity:1.0;fill-rule:evenodd;stroke:rgb(0, 0, 0);stroke-width:3.0;" d="M 509.041, 457.468 L 495.317, 432.39 L 509.559, 407.453 z "/>
<path style="fill:rgb(255, 179, 11);fill-opacity:1.0;fill-rule:evenodd;stroke:rgb(0, 0, 0);stroke-width:3.0;" d="M 647.418, 371.85 L 646.542, 374.373 L 639.562, 375.8 L 614.07, 366.426 L 616.859, 363.542 z "/>
<path style="fill:rgb(255, 179, 11);fill-opacity:1.0;fill-rule:evenodd;stroke:rgb(0, 0, 0);stroke-width:3.0;" d="M 720.635, 275.207 L 721.164, 277.266 L 710.056, 297.729 L 696.417, 292.659 L 702.792, 272.766 z "/>
<path style="fill:rgb(255, 175, 11);fill-opacity:1.0;fill-rule:evenodd;stroke:rgb(0, 0, 0);stroke-width:3.0;" d="M 686.927, 419.242 L 676.324, 428.402 L 668.663, 418.41 L 689.317, 415.281 z "/>
<path style="fill:rgb(255, 175, 11);fill-opacity:1.0;fill-rule:evenodd;stroke:rgb(0, 0, 0);stroke-width:3.0;" d="M 382.804, 567.97 L 387.615, 574.009 L 386.341, 579.56 L 346.441, 544.885 L 334.605, 530.008 z "/>
<path style="fill:rgb(255, 161, 7);fill-opacity:1.0;fill-rule:evenodd;stroke:rgb(0, 0, 0);stroke-width:3.0;" d="M 720.014, 426.439 L 707.478, 414.832 L 718.193, 405.35 z "/>
<path style="fill:rgb(252, 220, 10);fill-opacity:1.0;fill-rule:evenodd;stroke:rgb(0, 0, 0);stroke-width:3.0;" d="M 439.983, 443.994 L 420.644, 477.244 L 385.065, 482.323 L 429.803, 440.312 z "/>
<path style="fill:rgb(212, 27, 165);fill-opacity:1.0;fill-rule:evenodd;stroke:rgb(0, 0, 0);stroke-width:3.0;" d="M 32.2527, 236.049 L 40.63, 273.827 L 27.1552, 291.233 L 18.5072, 288.619 L 24.4074, 225.888 z "/>
<path style="fill:rgb(255, 255, 57);fill-opacity:1.0;fill-rule:evenodd;stroke:rgb(0, 0, 0);stroke-width:3.0;" d="M 666.891, 517.697 L 627.462, 564.563 L 592.473, 529.992 L 599.192, 510.653 L 624.464, 488.29 z "/>
<path style="fill:rgb(255, 255, 57);fill-opacity:1.0;fill-rule:evenodd;stroke:rgb(0, 0, 0);stroke-width:3.0;" d="M 661.348, 357.445 L 672.836, 381.505 L 672.552, 382.528 L 646.797, 373.639 L 653.868, 353.288 z "/>
<path style="fill:rgb(199, 8, 163);fill-opacity:1.0;fill-rule:evenodd;stroke:rgb(0, 0, 0);stroke-width:3.0;" d="M 717.752, 388.794 L 716.665, 397.752 L 682.912, 386.103 L 694.346, 375.785 z "/>
<path style="fill:rgb(199, 8, 163);fill-opacity:1.0;fill-rule:evenodd;stroke:rgb(0, 0, 0);stroke-width:3.0;" d="M 677.087, 366.193 L 672.836, 381.505 L 661.348, 357.445 z "/>
<path style="fill:rgb(20, 41, 255);fill-opacity:1.0;fill-rule:evenodd;stroke:rgb(0, 0, 0);stroke-width:3.0;" d="M 612.295, 488.758 L 605.042, 493.818 L 613.127, 470.548 L 626.859, 449.75 L 640.164, 443.55 z "/>
<path style="fill:rgb(47, 10, 255);fill-opacity:1.0;fill-rule:evenodd;stroke:rgb(0, 0, 0);stroke-width:3.0;" d="M 637.341, 433.877 L 613.127, 470.548 L 625.184, 435.846 L 632.77, 430.601 z "/>
<path style="fill:rgb(255, 59, 255);fill-opacity:1.0;fill-rule:evenodd;stroke:rgb(0, 0, 0);stroke-width:3.0;" d="M 714.517, 77.6873 L 715.161, 93.4405 L 669.459, 22.8671 z "/>
<path style="fill:rgb(255, 59, 255);fill-opacity:1.0;fill-rule:evenodd;stroke:rgb(0, 0, 0);stroke-width:3.0;" d="M 707.153, 545.603 L 685.752, 530.77 L 724.097, 513.58 z "/>
<path style="fill:rgb(255, 59, 255);fill-opacity:1.0;fill-rule:evenodd;stroke:rgb(0, 0, 0);stroke-width:3.0;" d="M 481.382, 582.931 L 429.49, 589.997 L 432.79, 577.627 L 434.815, 572.83 L 451.15, 561.29 z "/>
<path style="fill:rgb(88, 38, 255);fill-opacity:1.0;fill-rule:evenodd;stroke:rgb(0, 0, 0);stroke-width:3.0;" d="M 451.15, 561.29 L 434.815, 572.83 L 442.347, 554.989 z "/>
<path style="fill:rgb(255, 189, 43);fill-opacity:1.0;fill-rule:evenodd;stroke:rgb(0, 0, 0);stroke-width:3.0;" d="M 772.995, 128.263 L 744.252, 158.175 L 716.889, 171.9 L 717.495, 170.158 L 779.619, 111.821 z "/>
<path style="fill:rgb(14, 2, 240);fill-opacity:1.0;fill-rule:evenodd;stroke:rgb(0, 0, 0);stroke-width:3.0;" d="M 482.994, 64.886 L 415.579, 48.9723 L 422.707, 46.3954 L 564.853, 23.5448 z "/>
<path style="fill:rgb(243, 172, 13);fill-opacity:1.0;fill-rule:evenodd;stroke:rgb(0, 0, 0);stroke-width:3.0;" d="M 720.505, 426.893 L 715.718, 432.64 L 705.577, 432.963 L 708.087, 415.396 z "/>
<path style="fill:rgb(231, 92, 168);fill-opacity:1.0;fill-rule:evenodd;stroke:rgb(0, 0, 0);stroke-width:3.0;" d="M 630.114, 312.298 L 628.389, 331.797 L 615.303, 324.961 L 613.704, 321.056 L 621.779, 310.385 z "/>
<path style="fill:rgb(231, 92, 168);fill-opacity:1.0;fill-rule:evenodd;stroke:rgb(0, 0, 0);stroke-width:3.0;" d="M 63.4472, 376.721 L 50.8337, 381.777 L 40.825, 340.244 L 42.1084, 328.554 L 51.3272, 322.066 z "/>
<path style="fill:rgb(231, 92, 168);fill-opacity:1.0;fill-rule:evenodd;stroke:rgb(0, 0, 0);stroke-width:3.0;" d="M 73.0785, 420.153 L 55.0087, 419.256 L 55.505, 412.92 L 69.2302, 402.799 z "/>
<path style="fill:rgb(28, 114, 252);fill-opacity:1.0;fill-rule:evenodd;stroke:rgb(0, 0, 0);stroke-width:3.0;" d="M 571.313, 513.137 L 542.101, 527.955 L 525.424, 524.551 L 541.936, 458.817 L 554.115, 451.319 z "/>
<path style="fill:rgb(28, 114, 252);fill-opacity:1.0;fill-rule:evenodd;stroke:rgb(0, 0, 0);stroke-width:3.0;" d="M 453.855, 449.011 L 457.933, 471.921 L 420.644, 477.244 L 439.983, 443.994 z "/>
<path style="fill:rgb(255, 124, 24);fill-opacity:1.0;fill-rule:evenodd;stroke:rgb(0, 0, 0);stroke-width:3.0;" d="M 667.633, 313.668 L 664.569, 312.924 L 652.178, 303.432 L 671.668, 302.057 z "/>
<path style="fill:rgb(237, 255, 71);fill-opacity:1.0;fill-rule:evenodd;stroke:rgb(0, 0, 0);stroke-width:3.0;" d="M 370.709, 508.508 L 371.114, 508.797 L 368.661, 514.602 L 350.305, 527.182 L 344.737, 520.194 L 358.102, 507.643 z "/>
<path style="fill:rgb(217, 72, 179);fill-opacity:1.0;fill-rule:evenodd;stroke:rgb(0, 0, 0);stroke-width:3.0;" d="M 780.354, 457.117 L 775.544, 460.448 L 764.801, 443.812 L 767.465, 434.213 z "/>
<path style="fill:rgb(255, 24, 197);fill-opacity:1.0;fill-rule:evenodd;stroke:rgb(0, 0, 0);stroke-width:3.0;" d="M 230.512, 567.549 L 230.397, 589.893 L 229.132, 590.506 L 222.786, 581.694 L 222.198, 577.53 L 230.185, 567.39 z "/>
<path style="fill:rgb(255, 24, 197);fill-opacity:1.0;fill-rule:evenodd;stroke:rgb(0, 0, 0);stroke-width:3.0;" d="M 690.06, 247.235 L 674.368, 254.414 L 670.319, 253.17 L 669.49, 247.335 L 671.965, 244.064 L 689.483, 242.122 z "/>
<path style="fill:rgb(209, 223, 255);fill-opacity:1.0;fill-rule:evenodd;stroke:rgb(0, 0, 0);stroke-width:3.0;" d="M 383.775, 516.3 L 402.649, 534.998 L 394.239, 582.321 L 363.25, 543.429 L 378.582, 515.691 z "/>
<path style="fill:rgb(10, 255, 170);fill-opacity:1.0;fill-rule:evenodd;stroke:rgb(0, 0, 0);stroke-width:3.0;" d="M 652.181, 358.142 L 609.006, 364.221 L 608.219, 363.821 L 663.838, 324.591 z "/>
<path style="fill:rgb(255, 226, 16);fill-opacity:1.0;fill-rule:evenodd;stroke:rgb(0, 0, 0);stroke-width:3.0;" d="M 38.766, 452.99 L 33.5368, 449.463 L 41.2368, 424.869 L 48.4111, 423.146 z "/>
<path style="fill:rgb(255, 226, 16);fill-opacity:1.0;fill-rule:evenodd;stroke:rgb(0, 0, 0);stroke-width:3.0;" d="M 600.376, 65.2961 L 595.748, 81.4147 L 552.305, 68.0161 L 540.58, 47.2269 z "/>
<path style="fill:rgb(255, 226, 16);fill-opacity:1.0;fill-rule:evenodd;stroke:rgb(0, 0, 0);stroke-width:3.0;" d="M 165.208, 535.821 L 165.43, 543.897 L 102.596, 541.246 L 90.2514, 499.404 z "/>
<path style="fill:rgb(255, 226, 16);fill-opacity:1.0;fill-rule:evenodd;stroke:rgb(0, 0, 0);stroke-width:3.0;" d="M 694.346, 375.785 L 688.729, 380.854 L 672.924, 381.189 L 674.595, 375.167 L 692.443, 374.728 z "/>
<path style="fill:rgb(255, 226, 16);fill-opacity:1.0;fill-rule:evenodd;stroke:rgb(0, 0, 0);stroke-width:3.0;" d="M 433.267, 147.225 L 383.692, 115.036 L 446.545, 83.2936 z "/>
<path style="fill:rgb(255, 226, 16);fill-opacity:1.0;fill-rule:evenodd;stroke:rgb(0, 0, 0);stroke-width:3.0;" d="M 459.274, 418.022 L 460.223, 423.803 L 456.87, 428.678 L 445.324, 425.738 L 456.426, 415.312 z "/>
<path style="fill:rgb(209, 78, 136);fill-opacity:1.0;fill-rule:evenodd;stroke:rgb(0, 0, 0);stroke-width:3.0;" d="M 622.669, 342.966 L 600.219, 347.723 L 598.297, 341.417 L 613.704, 321.056 z "/>
<path style="fill:rgb(255, 24, 92);fill-opacity:1.0;fill-rule:evenodd;stroke:rgb(0, 0, 0);stroke-width:3.0;" d="M 596.85, 500.183 L 571.313, 513.137 L 554.115, 451.319 L 567.182, 443.276 z "/>
<path style="fill:rgb(243, 46, 8);fill-opacity:1.0;fill-rule:evenodd;stroke:rgb(0, 0, 0);stroke-width:3.0;" d="M 691.238, 438.912 L 691.253, 443.619 L 687.971, 451.47 L 677.841, 441.057 L 682.327, 437.087 z "/>
<path style="fill:rgb(243, 46, 8);fill-opacity:1.0;fill-rule:evenodd;stroke:rgb(0, 0, 0);stroke-width:3.0;" d="M 601.668, 332.463 L 602.481, 335.888 L 575.684, 371.299 L 569.521, 366.083 L 593.93, 329.636 z "/>
<path style="fill:rgb(255, 11, 22);fill-opacity:1.0;fill-rule:evenodd;stroke:rgb(0, 0, 0);stroke-width:3.0;" d="M 733.575, 409.926 L 733.697, 423.014 L 720.236, 426.644 L 720.014, 426.439 L 718.289, 406.466 z "/>
<path style="fill:rgb(255, 11, 22);fill-opacity:1.0;fill-rule:evenodd;stroke:rgb(0, 0, 0);stroke-width:3.0;" d="M 643.938, 381.867 L 639.745, 393.937 L 568.132, 400.563 L 561.25, 396.95 L 571.518, 389.708 L 619.765, 379.846 z "/>
<path style="fill:rgb(220, 88, 255);fill-opacity:1.0;fill-rule:evenodd;stroke:rgb(0, 0, 0);stroke-width:3.0;" d="M 420.417, 491.806 L 398.049, 489.725 L 419.457, 478.788 z "/>
<path style="fill:rgb(220, 88, 255);fill-opacity:1.0;fill-rule:evenodd;stroke:rgb(0, 0, 0);stroke-width:3.0;" d="M 468.675, 72.1176 L 383.692, 115.036 L 350.12, 93.2383 L 385.634, 51.827 z "/>
<path style="fill:rgb(255, 252, 41);fill-opacity:1.0;fill-rule:evenodd;stroke:rgb(0, 0, 0);stroke-width:3.0;" d="M 230.185, 567.39 L 222.967, 576.555 L 196.62, 555.95 L 195.728, 550.649 z "/>
<path style="fill:rgb(255, 252, 41);fill-opacity:1.0;fill-rule:evenodd;stroke:rgb(0, 0, 0);stroke-width:3.0;" d="M 765.106, 471.302 L 780.846, 501.365 L 754.608, 480.608 L 761.078, 467.984 z "/>
<path style="fill:rgb(255, 132, 255);fill-opacity:1.0;fill-rule:evenodd;stroke:rgb(0, 0, 0);stroke-width:3.0;" d="M 364.162, 541.779 L 362.388, 526.655 L 378.206, 516.371 z "/>
<path style="fill:rgb(255, 13, 33);fill-opacity:1.0;fill-rule:evenodd;stroke:rgb(0, 0, 0);stroke-width:3.0;" d="M 382.804, 567.97 L 347.472, 540.142 L 343.411, 521.438 L 344.737, 520.194 z "/>
<path style="fill:rgb(255, 255, 72);fill-opacity:1.0;fill-rule:evenodd;stroke:rgb(0, 0, 0);stroke-width:3.0;" d="M 652.486, 484.416 L 650.746, 493.039 L 643.409, 480.92 L 641.11, 473.561 L 649.217, 466.387 z "/>
<path style="fill:rgb(119, 228, 255);fill-opacity:1.0;fill-rule:evenodd;stroke:rgb(0, 0, 0);stroke-width:3.0;" d="M 767.735, 512.369 L 764.32, 529.952 L 761.209, 526.753 L 754.827, 510.947 z "/>
<path style="fill:rgb(19, 255, 146);fill-opacity:1.0;fill-rule:evenodd;stroke:rgb(0, 0, 0);stroke-width:3.0;" d="M 502.395, 419.997 L 496.563, 430.209 L 473.439, 425.262 L 475.393, 417.937 z "/>
<path style="fill:rgb(7, 72, 255);fill-opacity:1.0;fill-rule:evenodd;stroke:rgb(0, 0, 0);stroke-width:3.0;" d="M 686.885, 258.259 L 676.042, 289.467 L 647.064, 276.971 L 666.064, 251.863 z "/>
<path style="fill:rgb(249, 37, 17);fill-opacity:1.0;fill-rule:evenodd;stroke:rgb(0, 0, 0);stroke-width:3.0;" d="M 378.802, 585.563 L 377.547, 590.976 L 370.345, 593.751 L 366.682, 570.328 z "/>
<path style="fill:rgb(249, 37, 17);fill-opacity:1.0;fill-rule:evenodd;stroke:rgb(0, 0, 0);stroke-width:3.0;" d="M 635.128, 285.653 L 634.95, 292.979 L 634.786, 293.197 L 625.211, 292.043 L 624.318, 279.231 L 624.834, 279.073 z "/>
<path style="fill:rgb(249, 37, 17);fill-opacity:1.0;fill-rule:evenodd;stroke:rgb(0, 0, 0);stroke-width:3.0;" d="M 299.239, 30.717 L 297.237, 58.9012 L 290.469, 54.5069 L 280.104, 26.0414 z "/>
<path style="fill:rgb(249, 37, 17);fill-opacity:1.0;fill-rule:evenodd;stroke:rgb(0, 0, 0);stroke-width:3.0;" d="M 373.896, 48.9589 L 348.586, 92.2416 L 297.237, 58.9012 L 299.239, 30.717 z "/>
<path style="fill:rgb(255, 2, 138);fill-opacity:1.0;fill-rule:evenodd;stroke:rgb(0, 0, 0);stroke-width:3.0;" d="M 613.963, 276.748 L 613.747, 283.777 L 601.133, 293.113 L 599.782, 288.27 L 600.168, 280.333 L 605.415, 275.406 z "/>
<path style="fill:rgb(237, 23, 95);fill-opacity:1.0;fill-rule:evenodd;stroke:rgb(0, 0, 0);stroke-width:3.0;" d="M 575.684, 371.299 L 551.009, 403.908 L 540.67, 341.664 z "/>
<path style="fill:rgb(237, 23, 95);fill-opacity:1.0;fill-rule:evenodd;stroke:rgb(0, 0, 0);stroke-width:3.0;" d="M 663.201, 452.409 L 631.701, 429.835 L 643.157, 403.441 z "/>
<path style="fill:rgb(56, 189, 175);fill-opacity:1.0;fill-rule:evenodd;stroke:rgb(0, 0, 0);stroke-width:3.0;" d="M 643.157, 403.441 L 631.701, 429.835 L 628.155, 427.294 L 639.525, 394.568 z "/>
<path style="fill:rgb(199, 19, 85);fill-opacity:1.0;fill-rule:evenodd;stroke:rgb(0, 0, 0);stroke-width:3.0;" d="M 696.325, 307.795 L 691.404, 311.157 L 682.028, 305.14 L 687.683, 292.438 z "/>
<path style="fill:rgb(199, 19, 85);fill-opacity:1.0;fill-rule:evenodd;stroke:rgb(0, 0, 0);stroke-width:3.0;" d="M 593.09, 516.936 L 581.527, 526.06 L 577.96, 521.725 L 593.9, 506.277 z "/>
<path style="fill:rgb(255, 37, 138);fill-opacity:1.0;fill-rule:evenodd;stroke:rgb(0, 0, 0);stroke-width:3.0;" d="M 238.598, 571.477 L 242.458, 584.046 L 230.397, 589.893 L 230.512, 567.549 z "/>
<path style="fill:rgb(114, 252, 246);fill-opacity:1.0;fill-rule:evenodd;stroke:rgb(0, 0, 0);stroke-width:3.0;" d="M 36.5575, 294.075 L 35.0832, 300.632 L 23.4957, 304.323 L 21.469, 289.514 z "/>
<path style="fill:rgb(50, 26, 255);fill-opacity:1.0;fill-rule:evenodd;stroke:rgb(0, 0, 0);stroke-width:3.0;" d="M 646.497, 393.753 L 677.365, 441.478 L 664.202, 453.127 L 663.201, 452.409 L 639.525, 394.568 L 640.429, 391.967 z "/>
<path style="fill:rgb(50, 26, 255);fill-opacity:1.0;fill-rule:evenodd;stroke:rgb(0, 0, 0);stroke-width:3.0;" d="M 485.981, 582.305 L 481.382, 582.931 L 439.394, 552.875 L 442.108, 542.702 L 459.614, 540.753 z "/>
<path style="fill:rgb(50, 26, 255);fill-opacity:1.0;fill-rule:evenodd;stroke:rgb(0, 0, 0);stroke-width:3.0;" d="M 655.875, 307.657 L 652.748, 317.494 L 639.889, 314.542 L 639.59, 304.319 L 652.054, 303.44 z "/>
<path style="fill:rgb(24, 102, 187);fill-opacity:1.0;fill-rule:evenodd;stroke:rgb(0, 0, 0);stroke-width:3.0;" d="M 540.67, 341.664 L 551.009, 403.908 L 538.558, 420.362 L 483.523, 389.868 L 537.612, 339.075 z "/>
<path style="fill:rgb(252, 19, 75);fill-opacity:1.0;fill-rule:evenodd;stroke:rgb(0, 0, 0);stroke-width:3.0;" d="M 601.482, 418.07 L 609.824, 442.053 L 574.207, 456.75 L 574.074, 456.495 L 581.562, 407.613 z "/>
<path style="fill:rgb(246, 255, 33);fill-opacity:1.0;fill-rule:evenodd;stroke:rgb(0, 0, 0);stroke-width:3.0;" d="M 195.682, 551.969 L 199.02, 572.313 L 193.8, 568.495 L 185.587, 559.635 L 184.469, 548.287 z "/>
<path style="fill:rgb(220, 1, 8);fill-opacity:1.0;fill-rule:evenodd;stroke:rgb(0, 0, 0);stroke-width:3.0;" d="M 733.595, 219.87 L 693.794, 238.374 L 708.862, 195.006 L 723.198, 180.086 L 737.633, 171.513 z "/>
<path style="fill:rgb(220, 1, 8);fill-opacity:1.0;fill-rule:evenodd;stroke:rgb(0, 0, 0);stroke-width:3.0;" d="M 747.227, 449.068 L 733.781, 432.004 L 733.756, 429.331 L 742.586, 425.491 z "/>
<path style="fill:rgb(28, 177, 132);fill-opacity:1.0;fill-rule:evenodd;stroke:rgb(0, 0, 0);stroke-width:3.0;" d="M 742.586, 425.491 L 733.756, 429.331 L 733.407, 391.887 L 735.591, 389.954 z "/>
<path style="fill:rgb(54, 255, 177);fill-opacity:1.0;fill-rule:evenodd;stroke:rgb(0, 0, 0);stroke-width:3.0;" d="M 701.482, 267.785 L 700.65, 279.449 L 693.293, 302.406 L 692.991, 301.869 L 685.979, 278.543 L 689.68, 271.38 L 700.782, 267.559 z "/>
<path style="fill:rgb(252, 7, 228);fill-opacity:1.0;fill-rule:evenodd;stroke:rgb(0, 0, 0);stroke-width:3.0;" d="M 491.48, 520.34 L 534.767, 531.675 L 516.174, 541.107 L 492.159, 544.718 L 471.603, 519.041 z "/>
<path style="fill:rgb(252, 7, 228);fill-opacity:1.0;fill-rule:evenodd;stroke:rgb(0, 0, 0);stroke-width:3.0;" d="M 600.104, 369.546 L 593.217, 374.403 L 580.966, 373.329 L 589.261, 360.043 z "/>
<path style="fill:rgb(252, 7, 228);fill-opacity:1.0;fill-rule:evenodd;stroke:rgb(0, 0, 0);stroke-width:3.0;" d="M 628.389, 331.797 L 627.492, 341.944 L 622.669, 342.966 L 615.303, 324.961 z "/>
<path style="fill:rgb(157, 21, 168);fill-opacity:1.0;fill-rule:evenodd;stroke:rgb(0, 0, 0);stroke-width:3.0;" d="M 568.152, 530.768 L 512.655, 570.321 L 497.038, 550.813 L 558.261, 519.758 z "/>
<path style="fill:rgb(255, 192, 10);fill-opacity:1.0;fill-rule:evenodd;stroke:rgb(0, 0, 0);stroke-width:3.0;" d="M 47.5362, 533.074 L 54.7368, 539.226 L 25.2149, 537.98 L 25.9347, 531.977 z "/>
<path style="fill:rgb(255, 192, 10);fill-opacity:1.0;fill-rule:evenodd;stroke:rgb(0, 0, 0);stroke-width:3.0;" d="M 569.96, 529.479 L 568.152, 530.768 L 558.261, 519.758 L 603.851, 496.632 z "/>
<path style="fill:rgb(255, 246, 34);fill-opacity:1.0;fill-rule:evenodd;stroke:rgb(0, 0, 0);stroke-width:3.0;" d="M 482.193, 532.27 L 465.863, 540.057 L 442.108, 542.702 L 446.328, 526.884 L 462.608, 507.805 z "/>
<path style="fill:rgb(199, 59, 6);fill-opacity:1.0;fill-rule:evenodd;stroke:rgb(0, 0, 0);stroke-width:3.0;" d="M 90.2514, 499.404 L 102.596, 541.246 L 54.7368, 539.226 L 27.8225, 516.233 L 31.1701, 488.312 L 41.7323, 475.831 z "/>
<path style="fill:rgb(161, 207, 255);fill-opacity:1.0;fill-rule:evenodd;stroke:rgb(0, 0, 0);stroke-width:3.0;" d="M 634.038, 376.929 L 609.453, 381.954 L 616.814, 368.184 z "/>
<path style="fill:rgb(243, 212, 9);fill-opacity:1.0;fill-rule:evenodd;stroke:rgb(0, 0, 0);stroke-width:3.0;" d="M 616.814, 368.184 L 609.453, 381.954 L 580.106, 387.953 L 587.129, 378.697 L 608.219, 363.821 z "/>
<path style="fill:rgb(252, 228, 19);fill-opacity:1.0;fill-rule:evenodd;stroke:rgb(0, 0, 0);stroke-width:3.0;" d="M 736.957, 566.261 L 710.513, 577.627 L 680.129, 575.075 L 706.104, 544.876 z "/>
<path style="fill:rgb(252, 228, 19);fill-opacity:1.0;fill-rule:evenodd;stroke:rgb(0, 0, 0);stroke-width:3.0;" d="M 663.794, 452.835 L 630.92, 475.766 L 639.264, 452.195 L 655.282, 446.734 z "/>
<path style="fill:rgb(79, 246, 255);fill-opacity:1.0;fill-rule:evenodd;stroke:rgb(0, 0, 0);stroke-width:3.0;" d="M 78.8883, 483.267 L 51.3556, 465.894 L 53.5323, 438.105 z "/>
<path style="fill:rgb(234, 231, 33);fill-opacity:1.0;fill-rule:evenodd;stroke:rgb(0, 0, 0);stroke-width:3.0;" d="M 57.9112, 411.146 L 30.851, 431.1 L 40.825, 340.244 z "/>
<path style="fill:rgb(136, 209, 159);fill-opacity:1.0;fill-rule:evenodd;stroke:rgb(0, 0, 0);stroke-width:3.0;" d="M 73.0785, 420.153 L 87.1903, 483.79 L 66.4116, 461.044 L 53.5323, 438.105 L 55.0087, 419.256 z "/>
<path style="fill:rgb(136, 209, 159);fill-opacity:1.0;fill-rule:evenodd;stroke:rgb(0, 0, 0);stroke-width:3.0;" d="M 767.465, 434.213 L 761.803, 454.618 L 753.303, 428.097 L 756.46, 414.657 z "/>
<path style="fill:rgb(252, 9, 6);fill-opacity:1.0;fill-rule:evenodd;stroke:rgb(0, 0, 0);stroke-width:3.0;" d="M 21.4446, 569.425 L 12.3029, 575.941 L 6.292, 567.106 L 16.3361, 537.035 L 26.3419, 528.58 z "/>
<path style="fill:rgb(243, 48, 255);fill-opacity:1.0;fill-rule:evenodd;stroke:rgb(0, 0, 0);stroke-width:3.0;" d="M 682.718, 436.742 L 681.357, 437.946 L 673.008, 434.741 L 657.753, 411.156 L 661.967, 409.677 z "/>
<path style="fill:rgb(231, 7, 97);fill-opacity:1.0;fill-rule:evenodd;stroke:rgb(0, 0, 0);stroke-width:3.0;" d="M 705.169, 393.785 L 705.157, 395.705 L 703.244, 403.929 L 688.101, 410.126 L 689.643, 388.426 z "/>
<path style="fill:rgb(255, 217, 25);fill-opacity:1.0;fill-rule:evenodd;stroke:rgb(0, 0, 0);stroke-width:3.0;" d="M 538.558, 420.362 L 520.643, 444.036 L 510.017, 424.762 L 521.587, 410.958 z "/>
<path style="fill:rgb(10, 159, 150);fill-opacity:1.0;fill-rule:evenodd;stroke:rgb(0, 0, 0);stroke-width:3.0;" d="M 280.104, 26.0414 L 290.469, 54.5069 L 237.732, 20.2647 L 242.657, 16.8914 z "/>
<path style="fill:rgb(10, 159, 150);fill-opacity:1.0;fill-rule:evenodd;stroke:rgb(0, 0, 0);stroke-width:3.0;" d="M 69.2302, 402.799 L 57.9112, 411.146 L 50.8337, 381.777 L 63.4472, 376.721 z "/>
<path style="fill:rgb(249, 220, 81);fill-opacity:1.0;fill-rule:evenodd;stroke:rgb(0, 0, 0);stroke-width:3.0;" d="M 49.0344, 311.726 L 27.4858, 338.845 L 12.8118, 349.172 L 14.319, 333.148 L 47.1944, 303.429 z "/>
<path style="fill:rgb(249, 220, 81);fill-opacity:1.0;fill-rule:evenodd;stroke:rgb(0, 0, 0);stroke-width:3.0;" d="M 583.395, 345.366 L 569.521, 366.083 L 552.635, 351.791 L 574.358, 332.178 z "/>
<path style="fill:rgb(70, 126, 255);fill-opacity:1.0;fill-rule:evenodd;stroke:rgb(0, 0, 0);stroke-width:3.0;" d="M 413.832, 546.076 L 402.587, 592.799 L 394.239, 582.321 L 402.649, 534.998 z "/>
<path style="fill:rgb(140, 255, 255);fill-opacity:1.0;fill-rule:evenodd;stroke:rgb(0, 0, 0);stroke-width:3.0;" d="M 514.538, 572.672 L 516.676, 578.125 L 485.981, 582.305 L 459.614, 540.753 L 486.581, 537.75 z "/>
<path style="fill:rgb(10, 177, 237);fill-opacity:1.0;fill-rule:evenodd;stroke:rgb(0, 0, 0);stroke-width:3.0;" d="M 711.819, 186.493 L 708.669, 195.559 L 705.994, 199.095 L 694.88, 191.395 L 716.055, 171.51 z "/>
<path style="fill:rgb(10, 124, 255);fill-opacity:1.0;fill-rule:evenodd;stroke:rgb(0, 0, 0);stroke-width:3.0;" d="M 668.538, 381.142 L 688.522, 404.199 L 688.101, 410.126 L 668.471, 418.16 L 650.573, 394.816 L 652.417, 385.432 L 664.408, 379.717 z "/>
<path style="fill:rgb(150, 177, 255);fill-opacity:1.0;fill-rule:evenodd;stroke:rgb(0, 0, 0);stroke-width:3.0;" d="M 567.182, 443.276 L 539.812, 460.125 L 535.271, 457.362 L 553.212, 440.068 L 561.697, 432.755 z "/>
<path style="fill:rgb(150, 177, 255);fill-opacity:1.0;fill-rule:evenodd;stroke:rgb(0, 0, 0);stroke-width:3.0;" d="M 379.579, 489.758 L 387.067, 500.34 L 385.601, 502.993 L 385.285, 503.21 L 375.948, 502.15 L 373.961, 499.03 L 378.362, 489.336 z "/>
<path style="fill:rgb(252, 4, 12);fill-opacity:1.0;fill-rule:evenodd;stroke:rgb(0, 0, 0);stroke-width:3.0;" d="M 425.953, 521.249 L 435.612, 567.049 L 435.485, 567.526 L 383.775, 516.3 z "/>
<path style="fill:rgb(231, 152, 60);fill-opacity:1.0;fill-rule:evenodd;stroke:rgb(0, 0, 0);stroke-width:3.0;" d="M 773.183, 589.87 L 774.152, 592.042 L 745.228, 571.994 L 738.121, 564.837 L 744.837, 542.956 z "/>
<path style="fill:rgb(231, 152, 60);fill-opacity:1.0;fill-rule:evenodd;stroke:rgb(0, 0, 0);stroke-width:3.0;" d="M 771.167, 502.249 L 776.654, 508.609 L 770.98, 512.726 L 744.752, 509.837 L 741.396, 506.387 L 742.332, 504.56 L 762.523, 500.7 z "/>
<path style="fill:rgb(255, 47, 152);fill-opacity:1.0;fill-rule:evenodd;stroke:rgb(0, 0, 0);stroke-width:3.0;" d="M 710.513, 577.627 L 684.673, 588.734 L 688.955, 575.816 z "/>
<path style="fill:rgb(172, 124, 249);fill-opacity:1.0;fill-rule:evenodd;stroke:rgb(0, 0, 0);stroke-width:3.0;" d="M 730.036, 260.923 L 725.083, 270.047 L 712.009, 269.237 L 717.236, 261.895 L 725.949, 258.896 z "/>
<path style="fill:rgb(255, 157, 6);fill-opacity:1.0;fill-rule:evenodd;stroke:rgb(0, 0, 0);stroke-width:3.0;" d="M 740.243, 385.838 L 736.309, 389.319 L 715.7, 387.653 L 699.611, 378.712 L 667.796, 327.285 L 696.325, 307.795 z "/>
<path style="fill:rgb(255, 163, 11);fill-opacity:1.0;fill-rule:evenodd;stroke:rgb(0, 0, 0);stroke-width:3.0;" d="M 536.499, 561.91 L 519.281, 578.597 L 517.681, 576.599 L 530.848, 558.922 z "/>
<path style="fill:rgb(179, 117, 243);fill-opacity:1.0;fill-rule:evenodd;stroke:rgb(0, 0, 0);stroke-width:3.0;" d="M 272.555, 587.975 L 266.209, 593.934 L 240.927, 579.063 L 238.598, 571.477 z "/>
<path style="fill:rgb(255, 237, 16);fill-opacity:1.0;fill-rule:evenodd;stroke:rgb(0, 0, 0);stroke-width:3.0;" d="M 701.449, 541.65 L 658.189, 594.924 L 627.462, 564.563 L 666.891, 517.697 z "/>
<path style="fill:rgb(255, 252, 20);fill-opacity:1.0;fill-rule:evenodd;stroke:rgb(0, 0, 0);stroke-width:3.0;" d="M 419.457, 478.788 L 398.049, 489.725 L 379.063, 487.959 L 385.065, 482.323 L 419.356, 477.428 z "/>
<path style="fill:rgb(255, 179, 16);fill-opacity:1.0;fill-rule:evenodd;stroke:rgb(0, 0, 0);stroke-width:3.0;" d="M 385.634, 51.827 L 371.473, 68.3392 L 359.233, 74.0335 L 373.896, 48.9589 z "/>
<path style="fill:rgb(105, 252, 252);fill-opacity:1.0;fill-rule:evenodd;stroke:rgb(0, 0, 0);stroke-width:3.0;" d="M 53.9593, 432.654 L 52.729, 448.36 L 45.0911, 461.941 L 37.4348, 457.11 L 46.082, 430.353 z "/>
<path style="fill:rgb(179, 154, 240);fill-opacity:1.0;fill-rule:evenodd;stroke:rgb(0, 0, 0);stroke-width:3.0;" d="M 687.683, 292.438 L 682.028, 305.14 L 672.681, 299.141 L 679.848, 278.513 z "/>
<path style="fill:rgb(255, 48, 255);fill-opacity:1.0;fill-rule:evenodd;stroke:rgb(0, 0, 0);stroke-width:3.0;" d="M 635.465, 247.188 L 615.743, 265.707 L 433.267, 147.225 L 446.545, 83.2936 L 470.985, 70.9509 z "/>
<path style="fill:rgb(255, 226, 25);fill-opacity:1.0;fill-rule:evenodd;stroke:rgb(0, 0, 0);stroke-width:3.0;" d="M 633.939, 75.438 L 540.58, 47.2269 L 535.604, 38.4037 L 560.596, 33.3821 z "/>
<path style="fill:rgb(255, 215, 45);fill-opacity:1.0;fill-rule:evenodd;stroke:rgb(0, 0, 0);stroke-width:3.0;" d="M 47.1944, 303.429 L 14.319, 333.148 L 14.6961, 329.139 L 24.5745, 303.98 L 45.8162, 297.214 z "/>
<path style="fill:rgb(240, 13, 189);fill-opacity:1.0;fill-rule:evenodd;stroke:rgb(0, 0, 0);stroke-width:3.0;" d="M 698.299, 376.59 L 699.611, 378.712 L 663.007, 358.368 L 666.718, 347.282 z "/>
<path style="fill:rgb(199, 240, 71);fill-opacity:1.0;fill-rule:evenodd;stroke:rgb(0, 0, 0);stroke-width:3.0;" d="M 698.299, 376.59 L 666.718, 347.282 L 671.44, 333.176 z "/>
<path style="fill:rgb(10, 175, 215);fill-opacity:1.0;fill-rule:evenodd;stroke:rgb(0, 0, 0);stroke-width:3.0;" d="M 87.1936, 483.805 L 88.4062, 489.273 L 78.8883, 483.267 L 67.7609, 463.448 z "/>
</svg>