<?xml version="1.0" encoding="iso-8859-1" standalone="no"?>
<!DOCTYPE svg PUBLIC "-//W3C//DTD SVG 1.0//EN" "http://www.w3.org/TR/2001/REC-SVG-20010904/DTD/svg10.dtd">
<svg xmlns="http://www.w3.org/2000/svg" width="800" height="600">
<path style="fill:rgb(0, 0, 0);fill-opacity:0.0;fill-rule:evenodd;stroke:rgb(0, 0, 0);stroke-width:0.0;" d="M 0, 600 L 800, 600 L 800, 0 L 0, 0 z "/>
<path style="fill:rgb(8, 124, 255);fill-opacity:1.0;fill-rule:evenodd;stroke:rgb(0, 0, 0);stroke-width:3.0;" d="M 465.072, 172.855 L 454.01, 176.699 L 450.351, 163.669 L 474.916, 142.02 z "/>
<path style="fill:rgb(255, 189, 7);fill-opacity:1.0;fill-rule:evenodd;stroke:rgb(0, 0, 0);stroke-width:3.0;" d="M 685.506, 269.076 L 691.322, 244.639 L 723.467, 233.388 z "/>
<path style="fill:rgb(255, 189, 7);fill-opacity:1.0;fill-rule:evenodd;stroke:rgb(0, 0, 0);stroke-width:3.0;" d="M 480.671, 136.949 L 473.438, 143.323 L 447.124, 106.227 L 471.425, 76.6868 z "/>
<path style="fill:rgb(255, 189, 7);fill-opacity:1.0;fill-rule:evenodd;stroke:rgb(0, 0, 0);stroke-width:3.0;" d="M 562.649, 332.394 L 537.875, 344.859 L 520.958, 317.859 z "/>
<path style="fill:rgb(255, 189, 7);fill-opacity:1.0;fill-rule:evenodd;stroke:rgb(0, 0, 0);stroke-width:3.0;" d="M 602.779, 72.9509 L 621.404, 93.9801 L 599.699, 109.777 L 580.279, 62.7906 z "/>
<path style="fill:rgb(107, 255, 27);fill-opacity:1.0;fill-rule:evenodd;stroke:rgb(0, 0, 0);stroke-width:3.0;" d="M 693.792, 181.428 L 682.63, 231.834 L 646.554, 209.265 L 644.093, 202.586 L 670.019, 179.548 z "/>
<path style="fill:rgb(107, 255, 27);fill-opacity:1.0;fill-rule:evenodd;stroke:rgb(0, 0, 0);stroke-width:3.0;" d="M 488.175, 438.958 L 489.493, 450.912 L 482.51, 456.027 L 479.645, 447.014 L 486.763, 437.314 z "/>
<path style="fill:rgb(107, 255, 27);fill-opacity:1.0;fill-rule:evenodd;stroke:rgb(0, 0, 0);stroke-width:3.0;" d="M 488.22, 130.296 L 480.671, 136.949 L 475.059, 100.373 z "/>
<path style="fill:rgb(107, 255, 27);fill-opacity:1.0;fill-rule:evenodd;stroke:rgb(0, 0, 0);stroke-width:3.0;" d="M 498.401, 29.8867 L 498.812, 57.3375 L 483.13, 38.7289 L 493.448, 22.1346 z "/>
<path style="fill:rgb(255, 1, 56);fill-opacity:1.0;fill-rule:evenodd;stroke:rgb(0, 0, 0);stroke-width:3.0;" d="M 684.741, 83.9738 L 666.834, 108.03 L 656.643, 86.0102 L 668.192, 73.6333 L 680.438, 72.6987 z "/>
<path style="fill:rgb(255, 1, 56);fill-opacity:1.0;fill-rule:evenodd;stroke:rgb(0, 0, 0);stroke-width:3.0;" d="M 740.497, 304.887 L 716.498, 337.724 L 688.004, 323.423 L 676.518, 295.634 L 697.336, 281.603 z "/>
<path style="fill:rgb(10, 132, 246);fill-opacity:1.0;fill-rule:evenodd;stroke:rgb(0, 0, 0);stroke-width:3.0;" d="M 734.741, 33.5106 L 751.396, 52.4016 L 759.405, 87.4161 L 752.03, 86.8834 L 721.491, 32.156 z "/>
<path style="fill:rgb(255, 25, 197);fill-opacity:1.0;fill-rule:evenodd;stroke:rgb(0, 0, 0);stroke-width:3.0;" d="M 588.477, 58.1106 L 588.241, 60.1728 L 586.653, 60.0795 L 574.383, 48.5279 L 572.075, 42.9427 L 573.929, 21.4323 z "/>
<path style="fill:rgb(255, 25, 197);fill-opacity:1.0;fill-rule:evenodd;stroke:rgb(0, 0, 0);stroke-width:3.0;" d="M 514.927, 244.533 L 480.133, 242.762 L 479.216, 240.509 L 493.852, 125.333 L 522.643, 99.9598 z "/>
<path style="fill:rgb(255, 25, 197);fill-opacity:1.0;fill-rule:evenodd;stroke:rgb(0, 0, 0);stroke-width:3.0;" d="M 443.364, 317.7 L 303.126, 293.413 L 320.882, 277.765 L 405.753, 248.487 z "/>
<path style="fill:rgb(255, 25, 197);fill-opacity:1.0;fill-rule:evenodd;stroke:rgb(0, 0, 0);stroke-width:3.0;" d="M 563.391, 21.9335 L 558.602, 26.1244 L 540.941, 19.9968 L 559.874, 13.4241 z "/>
<path style="fill:rgb(255, 25, 197);fill-opacity:1.0;fill-rule:evenodd;stroke:rgb(0, 0, 0);stroke-width:3.0;" d="M 507.9, 112.953 L 488.22, 130.296 L 477.268, 105.396 L 485.972, 102.138 z "/>
<path style="fill:rgb(255, 25, 197);fill-opacity:1.0;fill-rule:evenodd;stroke:rgb(0, 0, 0);stroke-width:3.0;" d="M 759.058, 98.6274 L 758.151, 100.725 L 744.25, 102.869 L 711.118, 95.439 L 754.126, 94.9553 z "/>
<path style="fill:rgb(255, 25, 197);fill-opacity:1.0;fill-rule:evenodd;stroke:rgb(0, 0, 0);stroke-width:3.0;" d="M 639.831, 59.0374 L 634.584, 62.8965 L 624.537, 62.3061 L 610.151, 40.6096 L 613.421, 38.123 z "/>
<path style="fill:rgb(255, 25, 197);fill-opacity:1.0;fill-rule:evenodd;stroke:rgb(0, 0, 0);stroke-width:3.0;" d="M 634.833, 7.53834 L 618.539, 34.231 L 611.28, 39.7508 L 627.844, 6.28065 z "/>
<path style="fill:rgb(255, 25, 197);fill-opacity:1.0;fill-rule:evenodd;stroke:rgb(0, 0, 0);stroke-width:3.0;" d="M 684.707, 82.0196 L 787.721, 240.272 L 786.759, 241.589 L 716.064, 166.049 L 683.975, 81.9667 z "/>
<path style="fill:rgb(234, 252, 16);fill-opacity:1.0;fill-rule:evenodd;stroke:rgb(0, 0, 0);stroke-width:3.0;" d="M 644.538, 557.889 L 652.599, 564.904 L 611.437, 557.714 L 609.929, 541.837 z "/>
<path style="fill:rgb(234, 252, 16);fill-opacity:1.0;fill-rule:evenodd;stroke:rgb(0, 0, 0);stroke-width:3.0;" d="M 491.045, 564.404 L 481.45, 563.613 L 482.295, 548.022 L 482.978, 541.852 L 492.4, 541.846 z "/>
<path style="fill:rgb(234, 252, 16);fill-opacity:1.0;fill-rule:evenodd;stroke:rgb(0, 0, 0);stroke-width:3.0;" d="M 703.025, 83.343 L 699.659, 92.8691 L 690.421, 90.7976 L 684.707, 82.0196 z "/>
<path style="fill:rgb(234, 252, 16);fill-opacity:1.0;fill-rule:evenodd;stroke:rgb(0, 0, 0);stroke-width:3.0;" d="M 525.504, 50.3143 L 505.131, 60.2132 L 498.804, 56.7849 L 498.086, 8.89037 z "/>
<path style="fill:rgb(255, 4, 35);fill-opacity:1.0;fill-rule:evenodd;stroke:rgb(0, 0, 0);stroke-width:3.0;" d="M 614.161, 566.587 L 609.553, 579.001 L 603.824, 578.09 L 590.407, 567.142 L 612.441, 562.268 z "/>
<path style="fill:rgb(255, 4, 35);fill-opacity:1.0;fill-rule:evenodd;stroke:rgb(0, 0, 0);stroke-width:3.0;" d="M 786.759, 241.589 L 782.221, 247.798 L 754.604, 267.036 L 716.064, 166.049 z "/>
<path style="fill:rgb(108, 255, 255);fill-opacity:1.0;fill-rule:evenodd;stroke:rgb(0, 0, 0);stroke-width:3.0;" d="M 635.38, 99.465 L 654.574, 123.045 L 651.865, 128.451 L 623.372, 137.735 L 619.318, 98.4021 z "/>
<path style="fill:rgb(54, 255, 85);fill-opacity:1.0;fill-rule:evenodd;stroke:rgb(0, 0, 0);stroke-width:3.0;" d="M 571.101, 40.5874 L 565.543, 27.1395 L 573.424, 8.46354 z "/>
<path style="fill:rgb(255, 115, 27);fill-opacity:1.0;fill-rule:evenodd;stroke:rgb(0, 0, 0);stroke-width:3.0;" d="M 695.296, 114.3 L 673.085, 121.537 L 667.957, 110.456 L 674.113, 106.648 z "/>
<path style="fill:rgb(165, 249, 234);fill-opacity:1.0;fill-rule:evenodd;stroke:rgb(0, 0, 0);stroke-width:3.0;" d="M 742.195, 252.547 L 740.619, 253.136 L 728.838, 249.219 L 727.026, 230.042 L 727.265, 229.817 z "/>
<path style="fill:rgb(255, 66, 10);fill-opacity:1.0;fill-rule:evenodd;stroke:rgb(0, 0, 0);stroke-width:3.0;" d="M 332.693, 474.124 L 356.859, 485.448 L 273.449, 541.134 L 304.77, 470.626 L 309.579, 469.069 z "/>
<path style="fill:rgb(255, 66, 10);fill-opacity:1.0;fill-rule:evenodd;stroke:rgb(0, 0, 0);stroke-width:3.0;" d="M 623.232, 15.6012 L 611.28, 39.7508 L 588.605, 56.9941 L 588.759, 55.6457 L 622.103, 12.03 z "/>
<path style="fill:rgb(255, 66, 10);fill-opacity:1.0;fill-rule:evenodd;stroke:rgb(0, 0, 0);stroke-width:3.0;" d="M 523.961, 75.3526 L 525.054, 76.2114 L 529.784, 85.1865 L 525.359, 88.8375 L 512.473, 73.5473 z "/>
<path style="fill:rgb(202, 9, 27);fill-opacity:1.0;fill-rule:evenodd;stroke:rgb(0, 0, 0);stroke-width:3.0;" d="M 747.186, 261.503 L 721.944, 261.392 L 719.906, 260.881 L 739.443, 253.576 z "/>
<path style="fill:rgb(202, 9, 27);fill-opacity:1.0;fill-rule:evenodd;stroke:rgb(0, 0, 0);stroke-width:3.0;" d="M 523.414, 70.1194 L 517.702, 74.3691 L 512.473, 73.5473 L 498.812, 57.3375 L 498.804, 56.7849 z "/>
<path style="fill:rgb(255, 2, 18);fill-opacity:1.0;fill-rule:evenodd;stroke:rgb(0, 0, 0);stroke-width:3.0;" d="M 787.411, 434.004 L 770.757, 511.512 L 764.704, 508.991 L 711.208, 379.563 z "/>
<path style="fill:rgb(255, 2, 18);fill-opacity:1.0;fill-rule:evenodd;stroke:rgb(0, 0, 0);stroke-width:3.0;" d="M 467.003, 522.659 L 470.946, 529.071 L 479.881, 546.383 L 479.999, 547.176 L 467.42, 558.208 L 448.796, 524.464 L 453.913, 519.818 z "/>
<path style="fill:rgb(255, 2, 18);fill-opacity:1.0;fill-rule:evenodd;stroke:rgb(0, 0, 0);stroke-width:3.0;" d="M 759.255, 279.222 L 755.748, 270.033 L 775.465, 257.042 z "/>
<path style="fill:rgb(255, 161, 25);fill-opacity:1.0;fill-rule:evenodd;stroke:rgb(0, 0, 0);stroke-width:3.0;" d="M 671.1, 48.2293 L 653.718, 64.0211 L 645.516, 63.5391 L 613.421, 38.123 L 655.137, 6.40141 z "/>
<path style="fill:rgb(243, 22, 249);fill-opacity:1.0;fill-rule:evenodd;stroke:rgb(0, 0, 0);stroke-width:3.0;" d="M 502.228, 518.33 L 503.194, 524.489 L 496.366, 549.566 L 489.879, 530.818 L 485.924, 515.235 L 487.138, 504.271 z "/>
<path style="fill:rgb(215, 255, 24);fill-opacity:1.0;fill-rule:evenodd;stroke:rgb(0, 0, 0);stroke-width:3.0;" d="M 789.9, 70.1749 L 785.666, 80.3745 L 780.371, 80.7523 L 775.868, 64.0376 L 777.835, 60.7269 z "/>
<path style="fill:rgb(215, 255, 24);fill-opacity:1.0;fill-rule:evenodd;stroke:rgb(0, 0, 0);stroke-width:3.0;" d="M 668.656, 64.8991 L 663.859, 78.2769 L 656.643, 86.0102 L 649.455, 70.4782 L 650.39, 63.8255 z "/>
<path style="fill:rgb(234, 228, 28);fill-opacity:1.0;fill-rule:evenodd;stroke:rgb(0, 0, 0);stroke-width:3.0;" d="M 484.051, 202.462 L 476.599, 203.649 L 474.752, 188.825 L 485.854, 188.275 z "/>
<path style="fill:rgb(10, 182, 255);fill-opacity:1.0;fill-rule:evenodd;stroke:rgb(0, 0, 0);stroke-width:3.0;" d="M 515.989, 446.032 L 507.365, 453.761 L 500.424, 450.45 L 503.878, 435.493 z "/>
<path style="fill:rgb(10, 182, 255);fill-opacity:1.0;fill-rule:evenodd;stroke:rgb(0, 0, 0);stroke-width:3.0;" d="M 760.941, 8.63186 L 764.392, 21.4422 L 719.959, 16.743 L 711.734, 7.4132 z "/>
<path style="fill:rgb(255, 252, 17);fill-opacity:1.0;fill-rule:evenodd;stroke:rgb(0, 0, 0);stroke-width:3.0;" d="M 527.953, 135.551 L 525.208, 160.346 L 519.085, 166.633 L 520.134, 146.979 L 524.135, 135.249 z "/>
<path style="fill:rgb(246, 19, 184);fill-opacity:1.0;fill-rule:evenodd;stroke:rgb(0, 0, 0);stroke-width:3.0;" d="M 566.166, 229.488 L 518.392, 221.918 L 521.736, 191.711 z "/>
<path style="fill:rgb(246, 19, 184);fill-opacity:1.0;fill-rule:evenodd;stroke:rgb(0, 0, 0);stroke-width:3.0;" d="M 490.935, 148.287 L 487.411, 176.023 L 476.27, 180.077 L 465.221, 172.385 L 474.211, 144.228 z "/>
<path style="fill:rgb(71, 2, 255);fill-opacity:1.0;fill-rule:evenodd;stroke:rgb(0, 0, 0);stroke-width:3.0;" d="M 489.903, 479.29 L 481.372, 556.359 L 468.646, 471.241 L 482.933, 457.36 z "/>
<path style="fill:rgb(255, 22, 189);fill-opacity:1.0;fill-rule:evenodd;stroke:rgb(0, 0, 0);stroke-width:3.0;" d="M 734.741, 33.5106 L 690.55, 28.9928 L 690.306, 27.7 L 725.613, 23.157 z "/>
<path style="fill:rgb(255, 22, 189);fill-opacity:1.0;fill-rule:evenodd;stroke:rgb(0, 0, 0);stroke-width:3.0;" d="M 168.882, 523.365 L 153.149, 525.105 L 144.396, 522.557 L 175.673, 512.429 z "/>
<path style="fill:rgb(255, 22, 189);fill-opacity:1.0;fill-rule:evenodd;stroke:rgb(0, 0, 0);stroke-width:3.0;" d="M 481.372, 556.359 L 481.196, 557.947 L 470.571, 563.916 L 467.42, 558.208 L 479.999, 547.176 z "/>
<path style="fill:rgb(10, 177, 237);fill-opacity:1.0;fill-rule:evenodd;stroke:rgb(0, 0, 0);stroke-width:3.0;" d="M 604.159, 61.1084 L 620.202, 80.8186 L 594.961, 69.4205 L 582.93, 59.8607 z "/>
<path style="fill:rgb(119, 22, 217);fill-opacity:1.0;fill-rule:evenodd;stroke:rgb(0, 0, 0);stroke-width:3.0;" d="M 523.556, 461.485 L 540.042, 510.06 L 517.72, 507.832 L 498.064, 491.794 L 492.468, 456.124 L 493.463, 447.13 z "/>
<path style="fill:rgb(119, 22, 217);fill-opacity:1.0;fill-rule:evenodd;stroke:rgb(0, 0, 0);stroke-width:3.0;" d="M 747.551, 284.63 L 746.649, 286.657 L 720.427, 283.386 L 716.872, 278.575 L 717.492, 272.518 z "/>
<path style="fill:rgb(119, 22, 217);fill-opacity:1.0;fill-rule:evenodd;stroke:rgb(0, 0, 0);stroke-width:3.0;" d="M 510.824, 71.5902 L 529.58, 93.8466 L 507.9, 112.953 L 474.459, 96.46 L 468.845, 59.8754 z "/>
<path style="fill:rgb(246, 150, 36);fill-opacity:1.0;fill-rule:evenodd;stroke:rgb(0, 0, 0);stroke-width:3.0;" d="M 467.024, 24.9918 L 460.575, 28.1527 L 417.931, 33.4532 L 434.316, 24.7995 z "/>
<path style="fill:rgb(246, 150, 36);fill-opacity:1.0;fill-rule:evenodd;stroke:rgb(0, 0, 0);stroke-width:3.0;" d="M 185.795, 540.307 L 173.422, 554.23 L 172.455, 553.891 L 173.715, 536.516 z "/>
<path style="fill:rgb(246, 150, 36);fill-opacity:1.0;fill-rule:evenodd;stroke:rgb(0, 0, 0);stroke-width:3.0;" d="M 462.455, 321.006 L 443.364, 317.7 L 389.028, 217.71 L 400.758, 207.373 z "/>
<path style="fill:rgb(246, 150, 36);fill-opacity:1.0;fill-rule:evenodd;stroke:rgb(0, 0, 0);stroke-width:3.0;" d="M 664.293, 220.362 L 659.121, 231.086 L 652.583, 225.621 L 650.014, 218.653 L 660.728, 218.132 z "/>
<path style="fill:rgb(249, 30, 157);fill-opacity:1.0;fill-rule:evenodd;stroke:rgb(0, 0, 0);stroke-width:3.0;" d="M 619.615, 114.974 L 616.379, 128.878 L 607.312, 128.195 L 599.699, 109.777 L 603.968, 106.671 z "/>
<path style="fill:rgb(249, 30, 157);fill-opacity:1.0;fill-rule:evenodd;stroke:rgb(0, 0, 0);stroke-width:3.0;" d="M 497.381, 487.438 L 494.066, 501.363 L 488.92, 488.173 L 492.468, 456.124 z "/>
<path style="fill:rgb(249, 30, 157);fill-opacity:1.0;fill-rule:evenodd;stroke:rgb(0, 0, 0);stroke-width:3.0;" d="M 677.663, 65.4285 L 669.649, 64.9575 L 662.929, 55.6532 L 671.1, 48.2293 z "/>
<path style="fill:rgb(249, 30, 157);fill-opacity:1.0;fill-rule:evenodd;stroke:rgb(0, 0, 0);stroke-width:3.0;" d="M 721.491, 32.156 L 743.471, 71.5442 L 703.922, 30.3599 z "/>
<path style="fill:rgb(249, 30, 157);fill-opacity:1.0;fill-rule:evenodd;stroke:rgb(0, 0, 0);stroke-width:3.0;" d="M 789.869, 210.176 L 789.209, 222.239 L 785.4, 220.361 L 774.786, 206.827 L 778.695, 203.905 z "/>
<path style="fill:rgb(249, 30, 157);fill-opacity:1.0;fill-rule:evenodd;stroke:rgb(0, 0, 0);stroke-width:3.0;" d="M 419.69, 532.975 L 415.915, 539.207 L 394.017, 525.297 L 396.096, 524.352 z "/>
<path style="fill:rgb(249, 30, 157);fill-opacity:1.0;fill-rule:evenodd;stroke:rgb(0, 0, 0);stroke-width:3.0;" d="M 423.754, 526.266 L 419.69, 532.975 L 396.096, 524.352 L 400.646, 522.283 z "/>
<path style="fill:rgb(249, 30, 157);fill-opacity:1.0;fill-rule:evenodd;stroke:rgb(0, 0, 0);stroke-width:3.0;" d="M 725.403, 262.259 L 719.431, 273.3 L 703.674, 266.951 L 719.906, 260.881 z "/>
<path style="fill:rgb(67, 240, 255);fill-opacity:1.0;fill-rule:evenodd;stroke:rgb(0, 0, 0);stroke-width:3.0;" d="M 506.578, 328.648 L 499.784, 390.029 L 449.029, 423.914 L 99.1459, 537.209 L 215.796, 370.374 L 303.126, 293.413 z "/>
<path style="fill:rgb(157, 19, 182);fill-opacity:1.0;fill-rule:evenodd;stroke:rgb(0, 0, 0);stroke-width:3.0;" d="M 467.003, 522.659 L 445.186, 517.924 L 437.377, 503.774 L 446.315, 489.017 z "/>
<path style="fill:rgb(255, 43, 255);fill-opacity:1.0;fill-rule:evenodd;stroke:rgb(0, 0, 0);stroke-width:3.0;" d="M 769.509, 88.1461 L 763.631, 102.033 L 742.346, 86.1837 z "/>
<path style="fill:rgb(255, 43, 255);fill-opacity:1.0;fill-rule:evenodd;stroke:rgb(0, 0, 0);stroke-width:3.0;" d="M 459.949, 43.6966 L 451.781, 44.0075 L 447.73, 34.448 L 458.718, 29.0625 z "/>
<path style="fill:rgb(255, 43, 255);fill-opacity:1.0;fill-rule:evenodd;stroke:rgb(0, 0, 0);stroke-width:3.0;" d="M 436.095, 55.6777 L 424.144, 58.9194 L 421.558, 47.2746 L 426.241, 44.9798 L 436.057, 44.6061 z "/>
<path style="fill:rgb(240, 202, 10);fill-opacity:1.0;fill-rule:evenodd;stroke:rgb(0, 0, 0);stroke-width:3.0;" d="M 505.943, 577.25 L 496.515, 549.998 L 504.2, 545.519 z "/>
<path style="fill:rgb(255, 237, 16);fill-opacity:1.0;fill-rule:evenodd;stroke:rgb(0, 0, 0);stroke-width:3.0;" d="M 211.154, 531.066 L 178.356, 570.074 L 182.291, 544.25 L 195.67, 529.195 z "/>
<path style="fill:rgb(255, 237, 16);fill-opacity:1.0;fill-rule:evenodd;stroke:rgb(0, 0, 0);stroke-width:3.0;" d="M 792.697, 57.7775 L 794.115, 60.0181 L 789.9, 70.1749 L 777.835, 60.7269 L 780.177, 56.7837 z "/>
<path style="fill:rgb(28, 240, 14);fill-opacity:1.0;fill-rule:evenodd;stroke:rgb(0, 0, 0);stroke-width:3.0;" d="M 99.1459, 537.209 L 16.5403, 563.958 L 11.5783, 550.344 L 215.796, 370.374 z "/>
<path style="fill:rgb(255, 21, 255);fill-opacity:1.0;fill-rule:evenodd;stroke:rgb(0, 0, 0);stroke-width:3.0;" d="M 765.53, 381.117 L 743.663, 369.054 L 776.066, 367.669 z "/>
<path style="fill:rgb(228, 240, 255);fill-opacity:1.0;fill-rule:evenodd;stroke:rgb(0, 0, 0);stroke-width:3.0;" d="M 782.926, 42.3439 L 785.933, 47.0943 L 775.868, 64.0376 L 767.088, 31.4477 z "/>
<path style="fill:rgb(179, 41, 170);fill-opacity:1.0;fill-rule:evenodd;stroke:rgb(0, 0, 0);stroke-width:3.0;" d="M 481.134, 451.698 L 482.933, 457.36 L 479.399, 460.793 L 467.987, 464.458 L 466.713, 455.34 L 471.001, 448.261 z "/>
<path style="fill:rgb(179, 41, 170);fill-opacity:1.0;fill-rule:evenodd;stroke:rgb(0, 0, 0);stroke-width:3.0;" d="M 658.64, 90.3239 L 673.085, 121.537 L 657.484, 126.62 L 641.188, 106.6 L 642.238, 86.4293 L 649.791, 83.909 z "/>
<path style="fill:rgb(184, 62, 237);fill-opacity:1.0;fill-rule:evenodd;stroke:rgb(0, 0, 0);stroke-width:3.0;" d="M 654.997, 243.564 L 669.493, 278.637 L 664.54, 281.129 L 648.513, 250.891 L 648.12, 242.474 z "/>
<path style="fill:rgb(184, 62, 237);fill-opacity:1.0;fill-rule:evenodd;stroke:rgb(0, 0, 0);stroke-width:3.0;" d="M 483.744, 204.876 L 481.66, 221.277 L 478.515, 221.515 L 474.927, 219.17 L 471.785, 213.175 L 474.535, 203.978 L 476.54, 203.659 z "/>
<path style="fill:rgb(184, 62, 237);fill-opacity:1.0;fill-rule:evenodd;stroke:rgb(0, 0, 0);stroke-width:3.0;" d="M 471.424, 489.821 L 479.331, 542.706 L 446.315, 489.017 L 447.056, 487.794 z "/>
<path style="fill:rgb(184, 62, 237);fill-opacity:1.0;fill-rule:evenodd;stroke:rgb(0, 0, 0);stroke-width:3.0;" d="M 764.144, 67.5924 L 767.254, 71.0194 L 764.471, 80.5854 L 758.644, 84.089 L 754.612, 66.465 L 755.068, 66.2706 z "/>
<path style="fill:rgb(78, 40, 255);fill-opacity:1.0;fill-rule:evenodd;stroke:rgb(0, 0, 0);stroke-width:3.0;" d="M 786.034, 18.32 L 781.87, 23.426 L 774.899, 20.0147 L 772.373, 12.7643 L 775.861, 7.13419 z "/>
<path style="fill:rgb(76, 28, 255);fill-opacity:1.0;fill-rule:evenodd;stroke:rgb(0, 0, 0);stroke-width:3.0;" d="M 646.264, 63.583 L 648.914, 69.3079 L 645.023, 75.9487 L 624.864, 86.5452 L 612.988, 71.9553 L 641.792, 63.3202 z "/>
<path style="fill:rgb(226, 243, 24);fill-opacity:1.0;fill-rule:evenodd;stroke:rgb(0, 0, 0);stroke-width:3.0;" d="M 793.507, 522.157 L 792.211, 534.835 L 776.776, 517.466 L 776.134, 516.546 z "/>
<path style="fill:rgb(226, 243, 24);fill-opacity:1.0;fill-rule:evenodd;stroke:rgb(0, 0, 0);stroke-width:3.0;" d="M 415.915, 539.207 L 400.214, 565.13 L 379.853, 532.861 L 404.316, 531.839 z "/>
<path style="fill:rgb(243, 18, 255);fill-opacity:1.0;fill-rule:evenodd;stroke:rgb(0, 0, 0);stroke-width:3.0;" d="M 719.874, 176.033 L 736.932, 220.729 L 733.633, 223.83 L 686.556, 214.107 L 687.812, 208.432 L 709.084, 174.237 z "/>
<path style="fill:rgb(243, 18, 255);fill-opacity:1.0;fill-rule:evenodd;stroke:rgb(0, 0, 0);stroke-width:3.0;" d="M 624.537, 62.3061 L 614.747, 61.7307 L 605.928, 43.8212 L 610.151, 40.6096 z "/>
<path style="fill:rgb(243, 18, 255);fill-opacity:1.0;fill-rule:evenodd;stroke:rgb(0, 0, 0);stroke-width:3.0;" d="M 791.406, 395.391 L 767.433, 382.167 L 792.662, 370.284 z "/>
<path style="fill:rgb(243, 18, 255);fill-opacity:1.0;fill-rule:evenodd;stroke:rgb(0, 0, 0);stroke-width:3.0;" d="M 399.843, 565.741 L 389.577, 582.691 L 370.746, 557.964 z "/>
<path style="fill:rgb(48, 4, 255);fill-opacity:1.0;fill-rule:evenodd;stroke:rgb(0, 0, 0);stroke-width:3.0;" d="M 367.708, 469.614 L 349.588, 477.108 L 342.74, 473.072 L 342.521, 464.337 L 347.199, 463.313 z "/>
<path style="fill:rgb(48, 4, 255);fill-opacity:1.0;fill-rule:evenodd;stroke:rgb(0, 0, 0);stroke-width:3.0;" d="M 208.777, 514.446 L 190.936, 534.522 L 188.828, 534.453 L 191.279, 507.376 L 201.45, 504.082 z "/>
<path style="fill:rgb(98, 140, 243);fill-opacity:1.0;fill-rule:evenodd;stroke:rgb(0, 0, 0);stroke-width:3.0;" d="M 685.506, 269.076 L 677.24, 276.848 L 682.899, 247.588 L 691.322, 244.639 z "/>
<path style="fill:rgb(98, 140, 243);fill-opacity:1.0;fill-rule:evenodd;stroke:rgb(0, 0, 0);stroke-width:3.0;" d="M 226.055, 500.85 L 230.568, 507.975 L 211.154, 531.066 L 195.67, 529.195 L 222.867, 498.59 z "/>
<path style="fill:rgb(110, 252, 207);fill-opacity:1.0;fill-rule:evenodd;stroke:rgb(0, 0, 0);stroke-width:3.0;" d="M 491.045, 564.404 L 490.135, 579.552 L 480.737, 576.779 L 481.45, 563.613 z "/>
<path style="fill:rgb(110, 252, 207);fill-opacity:1.0;fill-rule:evenodd;stroke:rgb(0, 0, 0);stroke-width:3.0;" d="M 654.662, 165.177 L 655.146, 186.18 L 646.506, 184.275 L 644.796, 163.534 z "/>
<path style="fill:rgb(110, 252, 207);fill-opacity:1.0;fill-rule:evenodd;stroke:rgb(0, 0, 0);stroke-width:3.0;" d="M 546.116, 472.246 L 592.741, 512.818 L 612.441, 562.268 L 590.407, 567.142 L 547.546, 532.169 L 523.556, 461.485 z "/>
<path style="fill:rgb(255, 220, 16);fill-opacity:1.0;fill-rule:evenodd;stroke:rgb(0, 0, 0);stroke-width:3.0;" d="M 621.939, 163.584 L 531.973, 99.2288 L 532.892, 90.9281 L 576.151, 52.8051 z "/>
<path style="fill:rgb(255, 220, 16);fill-opacity:1.0;fill-rule:evenodd;stroke:rgb(0, 0, 0);stroke-width:3.0;" d="M 185.707, 534.586 L 184.35, 539.854 L 136.938, 524.972 L 144.396, 522.557 z "/>
<path style="fill:rgb(48, 46, 255);fill-opacity:1.0;fill-rule:evenodd;stroke:rgb(0, 0, 0);stroke-width:3.0;" d="M 643.15, 556.682 L 643.747, 557.522 L 603.026, 538.635 L 592.741, 512.818 z "/>
<path style="fill:rgb(197, 148, 228);fill-opacity:1.0;fill-rule:evenodd;stroke:rgb(0, 0, 0);stroke-width:3.0;" d="M 677.24, 276.848 L 672.95, 280.88 L 672.213, 278.879 L 678.826, 249.013 L 682.899, 247.588 z "/>
<path style="fill:rgb(228, 2, 255);fill-opacity:1.0;fill-rule:evenodd;stroke:rgb(0, 0, 0);stroke-width:3.0;" d="M 696.734, 216.21 L 681.733, 235.886 L 686.556, 214.107 z "/>
<path style="fill:rgb(228, 2, 255);fill-opacity:1.0;fill-rule:evenodd;stroke:rgb(0, 0, 0);stroke-width:3.0;" d="M 471.424, 489.821 L 459.611, 488.839 L 453.288, 477.505 L 466.357, 455.928 z "/>
<path style="fill:rgb(228, 2, 255);fill-opacity:1.0;fill-rule:evenodd;stroke:rgb(0, 0, 0);stroke-width:3.0;" d="M 188.665, 534.448 L 184.798, 534.321 L 164.116, 528.299 L 182.26, 522.259 z "/>
<path style="fill:rgb(255, 48, 255);fill-opacity:1.0;fill-rule:evenodd;stroke:rgb(0, 0, 0);stroke-width:3.0;" d="M 525.569, 128.97 L 520.902, 132.594 L 522.011, 111.816 L 528.366, 108.619 z "/>
<path style="fill:rgb(130, 7, 255);fill-opacity:1.0;fill-rule:evenodd;stroke:rgb(0, 0, 0);stroke-width:3.0;" d="M 467.116, 48.6044 L 440.506, 96.8971 L 415.273, 61.3254 L 466.919, 47.3174 z "/>
<path style="fill:rgb(130, 7, 255);fill-opacity:1.0;fill-rule:evenodd;stroke:rgb(0, 0, 0);stroke-width:3.0;" d="M 764.392, 21.4422 L 772.492, 51.5064 L 760.254, 62.4494 L 742.744, 42.5878 L 727.396, 17.5295 z "/>
<path style="fill:rgb(255, 159, 110);fill-opacity:1.0;fill-rule:evenodd;stroke:rgb(0, 0, 0);stroke-width:3.0;" d="M 378.161, 456.323 L 371.494, 469.204 L 355.923, 460.379 L 358.716, 453.519 z "/>
<path style="fill:rgb(243, 22, 78);fill-opacity:1.0;fill-rule:evenodd;stroke:rgb(0, 0, 0);stroke-width:3.0;" d="M 682.542, 28.1741 L 677.938, 43.8309 L 673.633, 40.768 L 671.351, 27.0299 z "/>
<path style="fill:rgb(32, 255, 199);fill-opacity:1.0;fill-rule:evenodd;stroke:rgb(0, 0, 0);stroke-width:3.0;" d="M 413.766, 51.0938 L 409.952, 47.6826 L 405.151, 40.2026 L 417.931, 33.4532 L 460.575, 28.1527 z "/>
<path style="fill:rgb(252, 255, 14);fill-opacity:1.0;fill-rule:evenodd;stroke:rgb(0, 0, 0);stroke-width:3.0;" d="M 432.014, 435.273 L 413.375, 447.717 L 408.325, 447.73 L 421.181, 432.931 L 422.433, 432.526 z "/>
<path style="fill:rgb(215, 126, 237);fill-opacity:1.0;fill-rule:evenodd;stroke:rgb(0, 0, 0);stroke-width:3.0;" d="M 713.493, 63.1532 L 715.943, 70.1302 L 692.458, 53.4377 L 700.031, 51.8113 z "/>
<path style="fill:rgb(252, 3, 82);fill-opacity:1.0;fill-rule:evenodd;stroke:rgb(0, 0, 0);stroke-width:3.0;" d="M 733.633, 223.83 L 724.26, 232.643 L 679.206, 247.297 L 681.733, 235.886 L 696.734, 216.21 z "/>
<path style="fill:rgb(184, 255, 47);fill-opacity:1.0;fill-rule:evenodd;stroke:rgb(0, 0, 0);stroke-width:3.0;" d="M 523.406, 452.485 L 518.534, 459.089 L 507.365, 453.761 L 515.989, 446.032 z "/>
<path style="fill:rgb(255, 110, 94);fill-opacity:1.0;fill-rule:evenodd;stroke:rgb(0, 0, 0);stroke-width:3.0;" d="M 706.418, 276.62 L 701.354, 283.771 L 683.888, 274.349 L 696.672, 269.569 z "/>
<path style="fill:rgb(47, 240, 124);fill-opacity:1.0;fill-rule:evenodd;stroke:rgb(0, 0, 0);stroke-width:3.0;" d="M 173.715, 536.516 L 172.455, 553.891 L 112.562, 532.865 L 136.938, 524.972 z "/>
<path style="fill:rgb(38, 47, 255);fill-opacity:1.0;fill-rule:evenodd;stroke:rgb(0, 0, 0);stroke-width:3.0;" d="M 422.148, 71.018 L 436.404, 91.1147 L 409.137, 70.9449 L 398.84, 56.952 z "/>
<path style="fill:rgb(38, 47, 255);fill-opacity:1.0;fill-rule:evenodd;stroke:rgb(0, 0, 0);stroke-width:3.0;" d="M 696.332, 38.4437 L 689.784, 52.259 L 677.938, 43.8309 L 680.484, 35.1717 L 691.906, 33.3182 z "/>
<path style="fill:rgb(44, 44, 255);fill-opacity:1.0;fill-rule:evenodd;stroke:rgb(0, 0, 0);stroke-width:3.0;" d="M 662.677, 277.615 L 651.074, 283.611 L 650.059, 284.015 L 649.474, 271.489 L 658.749, 270.204 z "/>
<path style="fill:rgb(107, 243, 246);fill-opacity:1.0;fill-rule:evenodd;stroke:rgb(0, 0, 0);stroke-width:3.0;" d="M 472.573, 188.933 L 461.706, 189.471 L 457.73, 187.729 L 457.552, 187.292 L 486.91, 176.325 z "/>
<path style="fill:rgb(13, 240, 85);fill-opacity:1.0;fill-rule:evenodd;stroke:rgb(0, 0, 0);stroke-width:3.0;" d="M 748.216, 250.296 L 742.195, 252.547 L 731.09, 235.641 L 738.871, 225.811 z "/>
<path style="fill:rgb(255, 243, 48);fill-opacity:1.0;fill-rule:evenodd;stroke:rgb(0, 0, 0);stroke-width:3.0;" d="M 468.934, 60.4512 L 471.425, 76.6868 L 470.533, 77.771 L 458.928, 63.464 L 461.354, 59.061 z "/>
<path style="fill:rgb(255, 243, 48);fill-opacity:1.0;fill-rule:evenodd;stroke:rgb(0, 0, 0);stroke-width:3.0;" d="M 520.958, 317.859 L 537.875, 344.859 L 512.949, 357.4 L 509.286, 326.593 L 509.116, 313.73 z "/>
<path style="fill:rgb(255, 243, 48);fill-opacity:1.0;fill-rule:evenodd;stroke:rgb(0, 0, 0);stroke-width:3.0;" d="M 718.989, 78.8055 L 719.729, 80.9128 L 709.256, 83.7931 L 699.029, 83.0542 L 692.374, 79.9006 L 708.1, 75.5213 z "/>
<path style="fill:rgb(237, 21, 15);fill-opacity:1.0;fill-rule:evenodd;stroke:rgb(0, 0, 0);stroke-width:3.0;" d="M 690.25, 70.1376 L 708.1, 75.5213 L 692.374, 79.9006 L 681.158, 74.5854 L 679.442, 70.0884 z "/>
<path style="fill:rgb(223, 62, 50);fill-opacity:1.0;fill-rule:evenodd;stroke:rgb(0, 0, 0);stroke-width:3.0;" d="M 514.927, 244.533 L 514.032, 261.31 L 508.399, 312.196 L 505.43, 304.903 L 507.254, 244.143 z "/>
<path style="fill:rgb(8, 134, 209);fill-opacity:1.0;fill-rule:evenodd;stroke:rgb(0, 0, 0);stroke-width:3.0;" d="M 507.254, 244.143 L 505.43, 304.903 L 480.133, 242.762 z "/>
<path style="fill:rgb(27, 30, 243);fill-opacity:1.0;fill-rule:evenodd;stroke:rgb(0, 0, 0);stroke-width:3.0;" d="M 698.738, 59.3671 L 699.06, 63.3861 L 683.505, 62.5616 L 680.934, 46.6566 z "/>
<path style="fill:rgb(157, 144, 255);fill-opacity:1.0;fill-rule:evenodd;stroke:rgb(0, 0, 0);stroke-width:3.0;" d="M 656.439, 231.665 L 676.187, 260.933 L 672.213, 278.879 L 654.572, 231.017 z "/>
<path style="fill:rgb(157, 144, 255);fill-opacity:1.0;fill-rule:evenodd;stroke:rgb(0, 0, 0);stroke-width:3.0;" d="M 359.71, 264.37 L 320.882, 277.765 L 354.505, 248.135 z "/>
<path style="fill:rgb(157, 144, 255);fill-opacity:1.0;fill-rule:evenodd;stroke:rgb(0, 0, 0);stroke-width:3.0;" d="M 709.084, 174.237 L 702.439, 184.919 L 690.765, 195.099 L 695.872, 172.037 z "/>
<path style="fill:rgb(255, 217, 217);fill-opacity:1.0;fill-rule:evenodd;stroke:rgb(0, 0, 0);stroke-width:3.0;" d="M 648.12, 242.474 L 650.26, 288.314 L 562.649, 332.394 L 509.116, 313.73 L 509.022, 306.573 L 518.392, 221.918 z "/>
<path style="fill:rgb(132, 255, 255);fill-opacity:1.0;fill-rule:evenodd;stroke:rgb(0, 0, 0);stroke-width:3.0;" d="M 748.711, 470.299 L 506.6, 360.595 L 669.493, 278.637 z "/>
<path style="fill:rgb(255, 255, 45);fill-opacity:1.0;fill-rule:evenodd;stroke:rgb(0, 0, 0);stroke-width:3.0;" d="M 721.227, 84.6579 L 728.947, 95.2385 L 711.118, 95.439 L 703.553, 93.7424 L 704.666, 83.4615 z "/>
<path style="fill:rgb(12, 134, 255);fill-opacity:1.0;fill-rule:evenodd;stroke:rgb(0, 0, 0);stroke-width:3.0;" d="M 471.576, 25.0185 L 482.269, 37.7075 L 461.972, 38.4995 L 470.397, 25.0116 z "/>
<path style="fill:rgb(255, 140, 30);fill-opacity:1.0;fill-rule:evenodd;stroke:rgb(0, 0, 0);stroke-width:3.0;" d="M 678.31, 137.892 L 661.273, 139.437 L 654.152, 127.706 L 680.736, 119.044 z "/>
<path style="fill:rgb(255, 182, 21);fill-opacity:1.0;fill-rule:evenodd;stroke:rgb(0, 0, 0);stroke-width:3.0;" d="M 625.713, 62.3752 L 629.206, 67.0934 L 612.988, 71.9553 L 612.307, 71.1184 L 612.899, 66.242 L 616.152, 61.8133 z "/>
<path style="fill:rgb(246, 217, 75);fill-opacity:1.0;fill-rule:evenodd;stroke:rgb(0, 0, 0);stroke-width:3.0;" d="M 157.522, 421.729 L 124.183, 451.11 L 10.5929, 95.3631 z "/>
<path style="fill:rgb(204, 15, 52);fill-opacity:1.0;fill-rule:evenodd;stroke:rgb(0, 0, 0);stroke-width:3.0;" d="M 558.602, 26.1244 L 548.157, 35.2641 L 538.895, 25.5318 L 546.563, 21.9474 z "/>
<path style="fill:rgb(165, 0, 204);fill-opacity:1.0;fill-rule:evenodd;stroke:rgb(0, 0, 0);stroke-width:3.0;" d="M 782.008, 550.857 L 785.678, 559.735 L 629.853, 545.111 L 611.233, 528.908 z "/>
<path style="fill:rgb(255, 255, 57);fill-opacity:1.0;fill-rule:evenodd;stroke:rgb(0, 0, 0);stroke-width:3.0;" d="M 741.798, 467.166 L 775.015, 549.958 L 611.233, 528.908 L 495.553, 428.249 L 502.832, 362.49 L 506.6, 360.595 z "/>
<path style="fill:rgb(26, 7, 228);fill-opacity:1.0;fill-rule:evenodd;stroke:rgb(0, 0, 0);stroke-width:3.0;" d="M 498.705, 288.383 L 508.399, 312.196 L 506.578, 328.648 L 462.455, 321.006 L 400.758, 207.373 L 402.083, 206.206 z "/>
<path style="fill:rgb(26, 146, 255);fill-opacity:1.0;fill-rule:evenodd;stroke:rgb(0, 0, 0);stroke-width:3.0;" d="M 498.705, 288.383 L 402.083, 206.206 L 448.573, 165.236 z "/>
<path style="fill:rgb(255, 243, 44);fill-opacity:1.0;fill-rule:evenodd;stroke:rgb(0, 0, 0);stroke-width:3.0;" d="M 652.599, 564.904 L 675.21, 584.579 L 649.467, 590.549 L 650.075, 564.463 z "/>
<path style="fill:rgb(255, 243, 44);fill-opacity:1.0;fill-rule:evenodd;stroke:rgb(0, 0, 0);stroke-width:3.0;" d="M 383.675, 538.919 L 400.214, 565.13 L 399.843, 565.741 L 370.746, 557.964 L 358.253, 541.559 L 366.994, 537.584 z "/>
<path style="fill:rgb(107, 170, 255);fill-opacity:1.0;fill-rule:evenodd;stroke:rgb(0, 0, 0);stroke-width:3.0;" d="M 675.363, 160.789 L 667.378, 138.883 L 678.31, 137.892 z "/>
<path style="fill:rgb(182, 3, 223);fill-opacity:1.0;fill-rule:evenodd;stroke:rgb(0, 0, 0);stroke-width:3.0;" d="M 470.533, 77.771 L 452.971, 99.1197 L 442.572, 93.1475 L 458.928, 63.464 z "/>
<path style="fill:rgb(223, 1, 13);fill-opacity:1.0;fill-rule:evenodd;stroke:rgb(0, 0, 0);stroke-width:3.0;" d="M 703.922, 30.3599 L 743.471, 71.5442 L 746.826, 77.5566 L 747.776, 86.576 L 721.039, 84.6444 L 701.907, 30.1538 z "/>
<path style="fill:rgb(79, 255, 255);fill-opacity:1.0;fill-rule:evenodd;stroke:rgb(0, 0, 0);stroke-width:3.0;" d="M 342.74, 473.072 L 329.214, 465.1 L 335.612, 460.639 L 342.374, 458.45 z "/>
<path style="fill:rgb(94, 94, 226);fill-opacity:1.0;fill-rule:evenodd;stroke:rgb(0, 0, 0);stroke-width:3.0;" d="M 672.49, 157.915 L 619.725, 158.227 L 612.693, 141.214 L 654.152, 127.706 z "/>
<path style="fill:rgb(197, 249, 66);fill-opacity:1.0;fill-rule:evenodd;stroke:rgb(0, 0, 0);stroke-width:3.0;" d="M 621.939, 163.584 L 654.997, 243.564 L 566.166, 229.488 L 521.736, 191.711 L 531.973, 99.2288 z "/>
<path style="fill:rgb(246, 24, 255);fill-opacity:1.0;fill-rule:evenodd;stroke:rgb(0, 0, 0);stroke-width:3.0;" d="M 792.662, 370.284 L 767.433, 382.167 L 765.53, 381.117 L 776.066, 367.669 L 792.829, 366.952 z "/>
<path style="fill:rgb(255, 249, 18);fill-opacity:1.0;fill-rule:evenodd;stroke:rgb(0, 0, 0);stroke-width:3.0;" d="M 533.693, 62.6863 L 528.015, 67.6357 L 505.596, 60.3336 L 507.545, 59.0404 L 525.504, 50.3143 z "/>
<path style="fill:rgb(255, 3, 78);fill-opacity:1.0;fill-rule:evenodd;stroke:rgb(0, 0, 0);stroke-width:3.0;" d="M 710.236, 269.595 L 720.427, 283.386 L 714.802, 282.685 L 696.672, 269.569 L 703.674, 266.951 z "/>
<path style="fill:rgb(255, 226, 11);fill-opacity:1.0;fill-rule:evenodd;stroke:rgb(0, 0, 0);stroke-width:3.0;" d="M 748.711, 470.299 L 782.008, 550.857 L 775.446, 550.013 L 743.173, 470.592 L 741.798, 467.166 z "/>
<path style="fill:rgb(83, 255, 103);fill-opacity:1.0;fill-rule:evenodd;stroke:rgb(0, 0, 0);stroke-width:3.0;" d="M 398.84, 56.952 L 409.137, 70.9449 L 352.029, 28.702 z "/>
<path style="fill:rgb(97, 228, 18);fill-opacity:1.0;fill-rule:evenodd;stroke:rgb(0, 0, 0);stroke-width:3.0;" d="M 644.796, 163.534 L 646.633, 185.818 L 642.707, 190.939 L 638.688, 187.923 L 638.447, 187.27 L 641.348, 162.96 z "/>
<path style="fill:rgb(24, 88, 207);fill-opacity:1.0;fill-rule:evenodd;stroke:rgb(0, 0, 0);stroke-width:3.0;" d="M 682.63, 231.834 L 680.797, 240.115 L 669.05, 236.04 L 669.757, 223.781 z "/>
<path style="fill:rgb(252, 14, 98);fill-opacity:1.0;fill-rule:evenodd;stroke:rgb(0, 0, 0);stroke-width:3.0;" d="M 680.797, 240.115 L 676.187, 260.933 L 659.655, 236.432 L 663.748, 234.2 z "/>
<path style="fill:rgb(255, 246, 27);fill-opacity:1.0;fill-rule:evenodd;stroke:rgb(0, 0, 0);stroke-width:3.0;" d="M 610.739, 26.8952 L 603.271, 36.6636 L 593.553, 14.7547 z "/>
<path style="fill:rgb(234, 215, 37);fill-opacity:1.0;fill-rule:evenodd;stroke:rgb(0, 0, 0);stroke-width:3.0;" d="M 540.042, 510.06 L 547.546, 532.169 L 532.526, 519.914 L 529.904, 509.049 z "/>
<path style="fill:rgb(252, 202, 38);fill-opacity:1.0;fill-rule:evenodd;stroke:rgb(0, 0, 0);stroke-width:3.0;" d="M 178.356, 570.074 L 168.365, 581.957 L 162.83, 568.751 L 163.258, 565.667 L 182.291, 544.25 z "/>
<path style="fill:rgb(255, 0, 18);fill-opacity:1.0;fill-rule:evenodd;stroke:rgb(0, 0, 0);stroke-width:3.0;" d="M 603.271, 36.6636 L 588.759, 55.6457 L 591.603, 30.7902 L 599.558, 28.2943 z "/>
<path style="fill:rgb(255, 255, 18);fill-opacity:1.0;fill-rule:evenodd;stroke:rgb(0, 0, 0);stroke-width:3.0;" d="M 496.051, 54.0604 L 490.354, 65.8776 L 486.673, 64.8506 L 488.7, 45.3379 z "/>
<path style="fill:rgb(255, 5, 207);fill-opacity:1.0;fill-rule:evenodd;stroke:rgb(0, 0, 0);stroke-width:3.0;" d="M 742.346, 86.1837 L 743.326, 86.9134 L 738.708, 95.1287 L 728.947, 95.2385 L 724.135, 88.6439 L 726.132, 85.0123 z "/>
<path style="fill:rgb(255, 5, 207);fill-opacity:1.0;fill-rule:evenodd;stroke:rgb(0, 0, 0);stroke-width:3.0;" d="M 104.538, 468.422 L 42.7308, 522.891 L 40.7991, 522.198 L 38.1659, 518.705 L 17.0089, 463.485 z "/>
<path style="fill:rgb(255, 5, 207);fill-opacity:1.0;fill-rule:evenodd;stroke:rgb(0, 0, 0);stroke-width:3.0;" d="M 488.7, 45.3379 L 486.673, 64.8506 L 468.845, 59.8754 L 466.919, 47.3174 L 486.005, 42.1405 z "/>
<path style="fill:rgb(255, 103, 8);fill-opacity:1.0;fill-rule:evenodd;stroke:rgb(0, 0, 0);stroke-width:3.0;" d="M 743.65, 266.831 L 742.25, 282.494 L 735.154, 279.635 L 722.225, 268.134 L 725.403, 262.259 z "/>
<path style="fill:rgb(234, 30, 217);fill-opacity:1.0;fill-rule:evenodd;stroke:rgb(0, 0, 0);stroke-width:3.0;" d="M 783.819, 89.18 L 793.944, 100.664 L 767.638, 97.4326 L 776.935, 88.6826 z "/>
<path style="fill:rgb(31, 25, 207);fill-opacity:1.0;fill-rule:evenodd;stroke:rgb(0, 0, 0);stroke-width:3.0;" d="M 614.747, 61.7307 L 601.94, 60.978 L 596.435, 52.435 L 608.757, 49.5665 z "/>
<path style="fill:rgb(23, 255, 255);fill-opacity:1.0;fill-rule:evenodd;stroke:rgb(0, 0, 0);stroke-width:3.0;" d="M 685.564, 280.181 L 675.802, 293.901 L 671.128, 282.593 L 677.262, 276.827 L 683.768, 274.394 z "/>
<path style="fill:rgb(220, 32, 226);fill-opacity:1.0;fill-rule:evenodd;stroke:rgb(0, 0, 0);stroke-width:3.0;" d="M 687.501, 91.205 L 689.712, 96.9994 L 667.957, 110.456 L 666.834, 108.03 L 680.37, 89.8456 z "/>
<path style="fill:rgb(220, 32, 226);fill-opacity:1.0;fill-rule:evenodd;stroke:rgb(0, 0, 0);stroke-width:3.0;" d="M 772.779, 212.393 L 767.518, 201.135 L 781.28, 185.847 z "/>
<path style="fill:rgb(255, 64, 61);fill-opacity:1.0;fill-rule:evenodd;stroke:rgb(0, 0, 0);stroke-width:3.0;" d="M 639.938, 8.45709 L 636.656, 20.4548 L 618.539, 34.231 L 634.833, 7.53834 z "/>
<path style="fill:rgb(255, 71, 97);fill-opacity:1.0;fill-rule:evenodd;stroke:rgb(0, 0, 0);stroke-width:3.0;" d="M 667.93, 167.385 L 665.187, 183.841 L 655.295, 192.632 L 654.662, 165.177 z "/>
<path style="fill:rgb(189, 255, 14);fill-opacity:1.0;fill-rule:evenodd;stroke:rgb(0, 0, 0);stroke-width:3.0;" d="M 730.801, 122.576 L 772.779, 212.393 L 772.497, 213.274 L 752.57, 186.272 L 709.3, 119.8 z "/>
<path style="fill:rgb(17, 255, 255);fill-opacity:1.0;fill-rule:evenodd;stroke:rgb(0, 0, 0);stroke-width:3.0;" d="M 718.938, 97.1925 L 730.801, 122.576 L 709.3, 119.8 L 690.421, 90.7976 z "/>
<path style="fill:rgb(255, 226, 17);fill-opacity:1.0;fill-rule:evenodd;stroke:rgb(0, 0, 0);stroke-width:3.0;" d="M 507.361, 67.4816 L 498.47, 68.1427 L 490.354, 65.8776 L 496.051, 54.0604 z "/>
<path style="fill:rgb(94, 78, 255);fill-opacity:1.0;fill-rule:evenodd;stroke:rgb(0, 0, 0);stroke-width:3.0;" d="M 742.833, 286.181 L 742.489, 292.799 L 737.742, 299.279 L 714.802, 282.685 z "/>
<path style="fill:rgb(212, 3, 134);fill-opacity:1.0;fill-rule:evenodd;stroke:rgb(0, 0, 0);stroke-width:3.0;" d="M 405.753, 248.487 L 359.71, 264.37 L 354.505, 248.135 L 389.028, 217.71 z "/>
</svg>