<?xml version="1.0" encoding="iso-8859-1" standalone="no"?>
<!DOCTYPE svg PUBLIC "-//W3C//DTD SVG 1.0//EN" "http://www.w3.org/TR/2001/REC-SVG-20010904/DTD/svg10.dtd">
<svg xmlns="http://www.w3.org/2000/svg" width="800" height="600">
<path style="fill:rgb(0, 0, 0);fill-opacity:0.0;fill-rule:evenodd;stroke:rgb(0, 0, 0);stroke-width:0.0;" d="M 0, 600 L 800, 600 L 800, 0 L 0, 0 z "/>
<path style="fill:rgb(17, 61, 226);fill-opacity:1.0;fill-rule:evenodd;stroke:rgb(0, 0, 0);stroke-width:3.0;" d="M 425.548, 495.138 L 386.254, 576.723 L 352.197, 482.989 L 389.424, 426.785 z "/>
<path style="fill:rgb(255, 170, 21);fill-opacity:1.0;fill-rule:evenodd;stroke:rgb(0, 0, 0);stroke-width:3.0;" d="M 529.697, 116.099 L 347.006, 168.579 L 494.912, 90.2326 z "/>
<path style="fill:rgb(71, 76, 255);fill-opacity:1.0;fill-rule:evenodd;stroke:rgb(0, 0, 0);stroke-width:3.0;" d="M 310.085, 488.433 L 300.385, 500.126 L 296.196, 499.344 L 290.985, 485.209 L 298.679, 483.917 z "/>
<path style="fill:rgb(71, 76, 255);fill-opacity:1.0;fill-rule:evenodd;stroke:rgb(0, 0, 0);stroke-width:3.0;" d="M 645.79, 202.424 L 644.456, 284.413 L 340.421, 334.061 L 265.361, 192.033 L 529.697, 116.099 z "/>
<path style="fill:rgb(249, 21, 184);fill-opacity:1.0;fill-rule:evenodd;stroke:rgb(0, 0, 0);stroke-width:3.0;" d="M 280.2, 220.112 L 284.075, 227.444 L 220.918, 385.435 L 211.091, 373.015 L 225.303, 209.027 z "/>
<path style="fill:rgb(33, 255, 231);fill-opacity:1.0;fill-rule:evenodd;stroke:rgb(0, 0, 0);stroke-width:3.0;" d="M 673.818, 321.102 L 670.67, 322.449 L 665.432, 276.107 L 666.582, 275.76 z "/>
<path style="fill:rgb(33, 255, 231);fill-opacity:1.0;fill-rule:evenodd;stroke:rgb(0, 0, 0);stroke-width:3.0;" d="M 675.504, 519.459 L 669.954, 530.628 L 640.224, 544.43 L 640.438, 531.287 L 647.223, 518.238 L 651.821, 515.607 z "/>
<path style="fill:rgb(249, 255, 7);fill-opacity:1.0;fill-rule:evenodd;stroke:rgb(0, 0, 0);stroke-width:3.0;" d="M 690.176, 492.265 L 670.614, 473.255 L 760.392, 300.604 z "/>
<path style="fill:rgb(255, 249, 128);fill-opacity:1.0;fill-rule:evenodd;stroke:rgb(0, 0, 0);stroke-width:3.0;" d="M 182.115, 561.567 L 171.167, 554.808 L 178.643, 509.438 L 222.248, 473.749 z "/>
<path style="fill:rgb(249, 255, 20);fill-opacity:1.0;fill-rule:evenodd;stroke:rgb(0, 0, 0);stroke-width:3.0;" d="M 300.065, 474.137 L 304.943, 480.818 L 238.896, 460.123 L 253.662, 448.038 z "/>
<path style="fill:rgb(249, 255, 20);fill-opacity:1.0;fill-rule:evenodd;stroke:rgb(0, 0, 0);stroke-width:3.0;" d="M 153.958, 563.201 L 148.795, 574.609 L 138.243, 580.282 L 138.681, 576.51 L 152.517, 559.491 z "/>
<path style="fill:rgb(249, 255, 20);fill-opacity:1.0;fill-rule:evenodd;stroke:rgb(0, 0, 0);stroke-width:3.0;" d="M 723.222, 477.254 L 721.787, 479.531 L 697.336, 499.614 L 693.331, 500.103 L 702.403, 475.184 L 719.903, 456.795 z "/>
<path style="fill:rgb(249, 255, 20);fill-opacity:1.0;fill-rule:evenodd;stroke:rgb(0, 0, 0);stroke-width:3.0;" d="M 794.424, 312.947 L 784.54, 325.093 L 770.47, 326.116 L 759.768, 317.621 L 768.49, 293.663 z "/>
<path style="fill:rgb(7, 161, 177);fill-opacity:1.0;fill-rule:evenodd;stroke:rgb(0, 0, 0);stroke-width:3.0;" d="M 268.411, 493.875 L 278.074, 542.704 L 209.529, 567.667 L 181.381, 563.173 L 222.248, 473.749 L 233.678, 464.394 z "/>
<path style="fill:rgb(7, 161, 177);fill-opacity:1.0;fill-rule:evenodd;stroke:rgb(0, 0, 0);stroke-width:3.0;" d="M 686.483, 488.677 L 679.747, 501.76 L 677.76, 502.002 L 672.71, 494.279 L 679.885, 486.865 L 683.357, 485.638 z "/>
<path style="fill:rgb(7, 161, 177);fill-opacity:1.0;fill-rule:evenodd;stroke:rgb(0, 0, 0);stroke-width:3.0;" d="M 339.715, 407.219 L 330.283, 422.679 L 323.892, 405.09 z "/>
<path style="fill:rgb(7, 161, 177);fill-opacity:1.0;fill-rule:evenodd;stroke:rgb(0, 0, 0);stroke-width:3.0;" d="M 313.689, 466.05 L 310.316, 475.638 L 293.825, 450.394 L 295.988, 446.408 z "/>
<path style="fill:rgb(7, 161, 177);fill-opacity:1.0;fill-rule:evenodd;stroke:rgb(0, 0, 0);stroke-width:3.0;" d="M 760.229, 469.98 L 749.265, 487.128 L 737.48, 470.092 L 747.974, 449.76 z "/>
<path style="fill:rgb(19, 0, 228);fill-opacity:1.0;fill-rule:evenodd;stroke:rgb(0, 0, 0);stroke-width:3.0;" d="M 686.679, 259.872 L 679.391, 271.902 L 668.428, 275.204 L 673.829, 259.52 L 675.698, 258.695 z "/>
<path style="fill:rgb(19, 0, 228);fill-opacity:1.0;fill-rule:evenodd;stroke:rgb(0, 0, 0);stroke-width:3.0;" d="M 725.714, 572.171 L 734.624, 591.53 L 714.952, 578.168 L 717.352, 570.518 z "/>
<path style="fill:rgb(19, 0, 228);fill-opacity:1.0;fill-rule:evenodd;stroke:rgb(0, 0, 0);stroke-width:3.0;" d="M 673.741, 467.242 L 668.293, 477.719 L 640.722, 513.851 L 641.102, 490.521 L 666.741, 466.637 z "/>
<path style="fill:rgb(19, 0, 228);fill-opacity:1.0;fill-rule:evenodd;stroke:rgb(0, 0, 0);stroke-width:3.0;" d="M 277.494, 441.348 L 289.053, 453.557 L 289.197, 456.661 L 283.422, 453.567 L 267.115, 437.027 L 269.104, 435.399 z "/>
<path style="fill:rgb(234, 2, 18);fill-opacity:1.0;fill-rule:evenodd;stroke:rgb(0, 0, 0);stroke-width:3.0;" d="M 455.734, 552.256 L 433.158, 530.364 L 424.67, 503.047 L 429.203, 502.055 z "/>
<path style="fill:rgb(234, 2, 18);fill-opacity:1.0;fill-rule:evenodd;stroke:rgb(0, 0, 0);stroke-width:3.0;" d="M 350.373, 389.749 L 339.715, 407.219 L 323.892, 405.09 L 322.76, 401.972 L 350.688, 379.076 z "/>
<path style="fill:rgb(234, 2, 18);fill-opacity:1.0;fill-rule:evenodd;stroke:rgb(0, 0, 0);stroke-width:3.0;" d="M 753.823, 577.726 L 733.124, 588.27 L 725.714, 572.171 z "/>
<path style="fill:rgb(234, 2, 18);fill-opacity:1.0;fill-rule:evenodd;stroke:rgb(0, 0, 0);stroke-width:3.0;" d="M 263.803, 189.085 L 265.351, 192.015 L 237.836, 195.964 L 237.921, 187.64 z "/>
<path style="fill:rgb(255, 123, 103);fill-opacity:1.0;fill-rule:evenodd;stroke:rgb(0, 0, 0);stroke-width:3.0;" d="M 251.128, 165.103 L 244.909, 188.03 L 244.31, 187.996 L 238.007, 179.243 L 238.165, 163.895 L 245.894, 155.199 z "/>
<path style="fill:rgb(255, 123, 103);fill-opacity:1.0;fill-rule:evenodd;stroke:rgb(0, 0, 0);stroke-width:3.0;" d="M 656.709, 212.057 L 653.131, 225.382 L 645.358, 228.982 L 645.673, 209.636 z "/>
<path style="fill:rgb(33, 7, 255);fill-opacity:1.0;fill-rule:evenodd;stroke:rgb(0, 0, 0);stroke-width:3.0;" d="M 160.953, 567.339 L 162.893, 573.309 L 147.188, 578.159 L 154.436, 562.146 z "/>
<path style="fill:rgb(152, 252, 249);fill-opacity:1.0;fill-rule:evenodd;stroke:rgb(0, 0, 0);stroke-width:3.0;" d="M 337.881, 329.256 L 250.64, 311.082 L 284.075, 227.444 z "/>
<path style="fill:rgb(152, 252, 249);fill-opacity:1.0;fill-rule:evenodd;stroke:rgb(0, 0, 0);stroke-width:3.0;" d="M 661.788, 325.739 L 648.274, 339.285 L 644.379, 339.106 L 643.576, 338.486 L 643.594, 337.347 L 648.131, 323.258 z "/>
<path style="fill:rgb(240, 13, 9);fill-opacity:1.0;fill-rule:evenodd;stroke:rgb(0, 0, 0);stroke-width:3.0;" d="M 741.253, 448.631 L 723.222, 477.254 L 719.903, 456.795 L 735.852, 440.036 z "/>
<path style="fill:rgb(240, 13, 9);fill-opacity:1.0;fill-rule:evenodd;stroke:rgb(0, 0, 0);stroke-width:3.0;" d="M 225.226, 390.879 L 231.569, 416.366 L 218.146, 395.216 L 220.123, 384.43 z "/>
<path style="fill:rgb(240, 13, 9);fill-opacity:1.0;fill-rule:evenodd;stroke:rgb(0, 0, 0);stroke-width:3.0;" d="M 653.139, 549.94 L 647.916, 552.385 L 644.307, 550.422 L 640.221, 544.652 L 640.224, 544.43 L 653.587, 538.227 z "/>
<path style="fill:rgb(175, 255, 52);fill-opacity:1.0;fill-rule:evenodd;stroke:rgb(0, 0, 0);stroke-width:3.0;" d="M 665.33, 377.149 L 674.566, 407.735 L 665.721, 407.099 L 655.47, 400.58 L 660.885, 375.491 z "/>
<path style="fill:rgb(175, 255, 52);fill-opacity:1.0;fill-rule:evenodd;stroke:rgb(0, 0, 0);stroke-width:3.0;" d="M 680.071, 510.27 L 667.991, 518.237 L 651.821, 515.607 L 669.756, 505.346 L 680.904, 501.619 L 684.594, 501.169 z "/>
<path style="fill:rgb(255, 217, 25);fill-opacity:1.0;fill-rule:evenodd;stroke:rgb(0, 0, 0);stroke-width:3.0;" d="M 171.167, 554.808 L 148.71, 540.946 L 174.004, 537.592 z "/>
<path style="fill:rgb(255, 217, 25);fill-opacity:1.0;fill-rule:evenodd;stroke:rgb(0, 0, 0);stroke-width:3.0;" d="M 358.212, 499.545 L 369.672, 566.503 L 322.678, 494.563 L 323.535, 483.308 L 349.181, 474.688 z "/>
<path style="fill:rgb(252, 249, 19);fill-opacity:1.0;fill-rule:evenodd;stroke:rgb(0, 0, 0);stroke-width:3.0;" d="M 764.769, 394.626 L 756.028, 395.17 L 751.575, 377.342 L 753.798, 373.348 z "/>
<path style="fill:rgb(142, 30, 60);fill-opacity:1.0;fill-rule:evenodd;stroke:rgb(0, 0, 0);stroke-width:3.0;" d="M 208.996, 397.185 L 205.187, 441.138 L 167.81, 422.262 L 165.75, 375.546 z "/>
<path style="fill:rgb(142, 30, 60);fill-opacity:1.0;fill-rule:evenodd;stroke:rgb(0, 0, 0);stroke-width:3.0;" d="M 304.943, 480.818 L 306.274, 482.642 L 267.568, 489.141 L 254.267, 481.87 L 233.678, 464.394 L 238.896, 460.123 z "/>
<path style="fill:rgb(237, 16, 138);fill-opacity:1.0;fill-rule:evenodd;stroke:rgb(0, 0, 0);stroke-width:3.0;" d="M 769.497, 403.795 L 762.005, 415.688 L 751.589, 409.302 L 748.47, 395.641 L 764.769, 394.626 z "/>
<path style="fill:rgb(237, 16, 138);fill-opacity:1.0;fill-rule:evenodd;stroke:rgb(0, 0, 0);stroke-width:3.0;" d="M 225.106, 460.073 L 216.087, 468.934 L 212.124, 467.076 L 221.087, 453.353 L 227.848, 449.466 z "/>
<path style="fill:rgb(237, 16, 138);fill-opacity:1.0;fill-rule:evenodd;stroke:rgb(0, 0, 0);stroke-width:3.0;" d="M 509.505, 317.342 L 510.475, 388.279 L 467.813, 400.352 L 379.906, 327.613 L 475.471, 312.008 z "/>
<path style="fill:rgb(237, 16, 138);fill-opacity:1.0;fill-rule:evenodd;stroke:rgb(0, 0, 0);stroke-width:3.0;" d="M 47.3976, 129.171 L 8.04979, 125.013 L 52.6488, 124.481 z "/>
<path style="fill:rgb(237, 16, 138);fill-opacity:1.0;fill-rule:evenodd;stroke:rgb(0, 0, 0);stroke-width:3.0;" d="M 679.993, 455.218 L 678.013, 459.026 L 643.797, 461.448 L 648.12, 452.991 L 653.381, 451.423 z "/>
<path style="fill:rgb(237, 16, 138);fill-opacity:1.0;fill-rule:evenodd;stroke:rgb(0, 0, 0);stroke-width:3.0;" d="M 285.411, 579.783 L 219.524, 569.263 L 216.569, 565.103 L 278.074, 542.704 z "/>
<path style="fill:rgb(38, 255, 209);fill-opacity:1.0;fill-rule:evenodd;stroke:rgb(0, 0, 0);stroke-width:3.0;" d="M 255.977, 429.744 L 246.172, 439.376 L 237.372, 425.51 L 235.73, 404.155 z "/>
<path style="fill:rgb(255, 231, 7);fill-opacity:1.0;fill-rule:evenodd;stroke:rgb(0, 0, 0);stroke-width:3.0;" d="M 363.2, 563.298 L 368.607, 578.92 L 336.548, 551.709 L 352.822, 543.584 z "/>
<path style="fill:rgb(255, 231, 7);fill-opacity:1.0;fill-rule:evenodd;stroke:rgb(0, 0, 0);stroke-width:3.0;" d="M 678.888, 395.152 L 670.732, 385.372 L 665.251, 355.266 L 671.242, 327.509 z "/>
<path style="fill:rgb(255, 7, 134);fill-opacity:1.0;fill-rule:evenodd;stroke:rgb(0, 0, 0);stroke-width:3.0;" d="M 762.321, 431.446 L 764.49, 439.049 L 752.532, 457.28 L 750.776, 454.383 L 752.276, 441.428 L 758.737, 428.91 z "/>
<path style="fill:rgb(255, 7, 134);fill-opacity:1.0;fill-rule:evenodd;stroke:rgb(0, 0, 0);stroke-width:3.0;" d="M 230.937, 398.097 L 235.73, 404.155 L 237.372, 425.51 L 231.569, 416.366 L 227.015, 398.067 z "/>
<path style="fill:rgb(29, 170, 255);fill-opacity:1.0;fill-rule:evenodd;stroke:rgb(0, 0, 0);stroke-width:3.0;" d="M 401.604, 591.907 L 389.286, 585.199 L 385.122, 579.073 L 403.47, 540.979 z "/>
<path style="fill:rgb(231, 24, 33);fill-opacity:1.0;fill-rule:evenodd;stroke:rgb(0, 0, 0);stroke-width:3.0;" d="M 661.629, 275.464 L 666.655, 286.928 L 666.707, 287.391 L 654.791, 290.026 L 644.461, 284.078 L 644.855, 259.924 z "/>
<path style="fill:rgb(231, 24, 33);fill-opacity:1.0;fill-rule:evenodd;stroke:rgb(0, 0, 0);stroke-width:3.0;" d="M 360.122, 371.341 L 331.683, 394.656 L 320.959, 397.018 L 319.822, 393.888 L 356.272, 364.055 z "/>
<path style="fill:rgb(231, 24, 33);fill-opacity:1.0;fill-rule:evenodd;stroke:rgb(0, 0, 0);stroke-width:3.0;" d="M 285.411, 579.783 L 285.507, 580.268 L 248.235, 580.919 L 177.852, 570.894 L 181.381, 563.173 z "/>
<path style="fill:rgb(231, 24, 33);fill-opacity:1.0;fill-rule:evenodd;stroke:rgb(0, 0, 0);stroke-width:3.0;" d="M 656.832, 211.989 L 659.349, 222.298 L 661.767, 243.685 L 651.356, 252.027 L 648.019, 244.416 L 656.733, 211.965 z "/>
<path style="fill:rgb(25, 0, 202);fill-opacity:1.0;fill-rule:evenodd;stroke:rgb(0, 0, 0);stroke-width:3.0;" d="M 772.357, 534.946 L 770.666, 581.055 L 747.277, 576.432 L 745.351, 575.142 L 730.863, 527.46 L 740.078, 498.094 z "/>
<path style="fill:rgb(25, 0, 202);fill-opacity:1.0;fill-rule:evenodd;stroke:rgb(0, 0, 0);stroke-width:3.0;" d="M 754.772, 436.592 L 743.067, 459.268 L 736.998, 455.385 L 750.328, 434.224 z "/>
<path style="fill:rgb(255, 123, 22);fill-opacity:1.0;fill-rule:evenodd;stroke:rgb(0, 0, 0);stroke-width:3.0;" d="M 709.855, 363.898 L 710.963, 395.66 L 684.663, 446.238 L 670.67, 322.449 L 683.669, 316.886 z "/>
<path style="fill:rgb(255, 123, 22);fill-opacity:1.0;fill-rule:evenodd;stroke:rgb(0, 0, 0);stroke-width:3.0;" d="M 444.879, 568.087 L 441.238, 570.341 L 433.154, 564.664 L 422.395, 548.85 L 412.771, 521.666 L 423.521, 499.348 z "/>
<path style="fill:rgb(255, 249, 14);fill-opacity:1.0;fill-rule:evenodd;stroke:rgb(0, 0, 0);stroke-width:3.0;" d="M 131.98, 554.555 L 109.971, 570.968 L 110.386, 565.304 L 130.338, 548.974 z "/>
<path style="fill:rgb(165, 172, 220);fill-opacity:1.0;fill-rule:evenodd;stroke:rgb(0, 0, 0);stroke-width:3.0;" d="M 790.225, 382.302 L 790.224, 382.315 L 773.084, 403.344 L 772.176, 399.542 L 784.986, 379.207 z "/>
<path style="fill:rgb(255, 110, 255);fill-opacity:1.0;fill-rule:evenodd;stroke:rgb(0, 0, 0);stroke-width:3.0;" d="M 328.512, 417.804 L 328.519, 417.824 L 327.773, 427.625 L 324.815, 429.262 L 309.107, 422.228 L 311.686, 417.474 z "/>
<path style="fill:rgb(255, 0, 252);fill-opacity:1.0;fill-rule:evenodd;stroke:rgb(0, 0, 0);stroke-width:3.0;" d="M 709.823, 260.21 L 709.711, 262.768 L 698.43, 266.167 L 695.623, 249.905 L 697.511, 249.072 z "/>
<path style="fill:rgb(231, 66, 6);fill-opacity:1.0;fill-rule:evenodd;stroke:rgb(0, 0, 0);stroke-width:3.0;" d="M 788.631, 373.422 L 776.288, 393.015 L 751.775, 339.573 L 758.445, 321.255 z "/>
<path style="fill:rgb(13, 41, 255);fill-opacity:1.0;fill-rule:evenodd;stroke:rgb(0, 0, 0);stroke-width:3.0;" d="M 765.253, 291.255 L 710.963, 395.66 L 706.361, 263.777 L 721.974, 259.074 z "/>
<path style="fill:rgb(255, 1, 22);fill-opacity:1.0;fill-rule:evenodd;stroke:rgb(0, 0, 0);stroke-width:3.0;" d="M 748.051, 362.203 L 750.071, 375.933 L 739.56, 377.124 L 739.391, 373.591 L 745.405, 357.07 z "/>
<path style="fill:rgb(255, 1, 22);fill-opacity:1.0;fill-rule:evenodd;stroke:rgb(0, 0, 0);stroke-width:3.0;" d="M 83.88, 45.9402 L 74.9824, 58.4282 L 73.1296, 54.4907 L 77.7623, 36.9825 z "/>
<path style="fill:rgb(255, 4, 39);fill-opacity:1.0;fill-rule:evenodd;stroke:rgb(0, 0, 0);stroke-width:3.0;" d="M 648.538, 559.966 L 651.418, 567.931 L 646.065, 578.702 L 639.726, 575.026 L 640.008, 557.746 z "/>
<path style="fill:rgb(12, 220, 240);fill-opacity:1.0;fill-rule:evenodd;stroke:rgb(0, 0, 0);stroke-width:3.0;" d="M 410.31, 556.441 L 412.216, 582.05 L 408.36, 594.877 L 406.858, 594.768 L 401.604, 591.907 L 402.935, 555.588 L 407.472, 549.978 z "/>
<path style="fill:rgb(130, 255, 255);fill-opacity:1.0;fill-rule:evenodd;stroke:rgb(0, 0, 0);stroke-width:3.0;" d="M 669.682, 327.174 L 657.753, 348.726 L 654.88, 347.216 L 650.703, 343.991 L 650.053, 342.081 L 669.128, 327.073 z "/>
<path style="fill:rgb(243, 22, 249);fill-opacity:1.0;fill-rule:evenodd;stroke:rgb(0, 0, 0);stroke-width:3.0;" d="M 776.288, 393.015 L 769.497, 403.795 L 745.405, 357.07 L 746.825, 353.17 L 757.411, 351.86 z "/>
<path style="fill:rgb(255, 21, 192);fill-opacity:1.0;fill-rule:evenodd;stroke:rgb(0, 0, 0);stroke-width:3.0;" d="M 459.362, 559.122 L 444.879, 568.087 L 441.445, 557.034 L 457.218, 555.064 z "/>
<path style="fill:rgb(255, 21, 192);fill-opacity:1.0;fill-rule:evenodd;stroke:rgb(0, 0, 0);stroke-width:3.0;" d="M 374.499, 544.369 L 371.59, 560.76 L 368.813, 561.486 L 366.517, 548.071 L 370.647, 533.769 z "/>
<path style="fill:rgb(255, 21, 192);fill-opacity:1.0;fill-rule:evenodd;stroke:rgb(0, 0, 0);stroke-width:3.0;" d="M 321.161, 492.241 L 310.316, 475.638 L 315.296, 461.484 z "/>
<path style="fill:rgb(255, 21, 192);fill-opacity:1.0;fill-rule:evenodd;stroke:rgb(0, 0, 0);stroke-width:3.0;" d="M 217.552, 415.621 L 226.297, 445.377 L 225.707, 446.281 L 224.243, 446.84 L 213.978, 430.944 L 212.768, 423.716 L 212.462, 420.292 L 216.6, 415.341 z "/>
<path style="fill:rgb(252, 255, 47);fill-opacity:1.0;fill-rule:evenodd;stroke:rgb(0, 0, 0);stroke-width:3.0;" d="M 704.423, 246.023 L 685.197, 254.505 L 684.792, 249.83 L 686.746, 244.605 L 701.707, 244.003 z "/>
<path style="fill:rgb(252, 255, 47);fill-opacity:1.0;fill-rule:evenodd;stroke:rgb(0, 0, 0);stroke-width:3.0;" d="M 666.741, 466.637 L 653.76, 478.729 L 645.668, 470.979 L 665.664, 466.544 z "/>
<path style="fill:rgb(252, 255, 47);fill-opacity:1.0;fill-rule:evenodd;stroke:rgb(0, 0, 0);stroke-width:3.0;" d="M 792.814, 417.603 L 793.492, 421.718 L 793.479, 421.736 L 776.834, 431.308 L 776.664, 431.209 L 783.306, 417.301 z "/>
<path style="fill:rgb(255, 95, 26);fill-opacity:1.0;fill-rule:evenodd;stroke:rgb(0, 0, 0);stroke-width:3.0;" d="M 319.282, 561.13 L 305.635, 579.916 L 288.823, 580.21 L 282.157, 561.72 L 319.192, 545.278 z "/>
<path style="fill:rgb(255, 95, 26);fill-opacity:1.0;fill-rule:evenodd;stroke:rgb(0, 0, 0);stroke-width:3.0;" d="M 320.918, 518.958 L 323.129, 524.251 L 321.111, 538.606 L 286.258, 509.023 z "/>
<path style="fill:rgb(255, 95, 26);fill-opacity:1.0;fill-rule:evenodd;stroke:rgb(0, 0, 0);stroke-width:3.0;" d="M 263.803, 189.085 L 245.289, 188.051 L 254.042, 170.616 z "/>
<path style="fill:rgb(249, 226, 20);fill-opacity:1.0;fill-rule:evenodd;stroke:rgb(0, 0, 0);stroke-width:3.0;" d="M 709.855, 363.898 L 683.669, 316.886 L 707.853, 306.538 z "/>
<path style="fill:rgb(249, 226, 20);fill-opacity:1.0;fill-rule:evenodd;stroke:rgb(0, 0, 0);stroke-width:3.0;" d="M 378.708, 580.336 L 372.726, 581.391 L 352.822, 543.584 L 354.239, 542.877 z "/>
<path style="fill:rgb(255, 255, 69);fill-opacity:1.0;fill-rule:evenodd;stroke:rgb(0, 0, 0);stroke-width:3.0;" d="M 245.966, 439.05 L 231.707, 447.248 L 226.505, 445.06 L 238.31, 426.987 z "/>
<path style="fill:rgb(255, 255, 69);fill-opacity:1.0;fill-rule:evenodd;stroke:rgb(0, 0, 0);stroke-width:3.0;" d="M 734.426, 468.32 L 736.384, 471.031 L 718.807, 496.995 L 717.056, 497.209 L 731.926, 467.731 z "/>
<path style="fill:rgb(255, 252, 55);fill-opacity:1.0;fill-rule:evenodd;stroke:rgb(0, 0, 0);stroke-width:3.0;" d="M 257.502, 440.652 L 233.645, 462.588 L 231.28, 460.134 L 230.177, 455.091 L 250.342, 435.279 z "/>
<path style="fill:rgb(255, 252, 55);fill-opacity:1.0;fill-rule:evenodd;stroke:rgb(0, 0, 0);stroke-width:3.0;" d="M 678.888, 395.152 L 681.281, 416.317 L 676.465, 416.86 L 673.163, 398.724 L 676.193, 391.92 z "/>
<path style="fill:rgb(17, 103, 255);fill-opacity:1.0;fill-rule:evenodd;stroke:rgb(0, 0, 0);stroke-width:3.0;" d="M 191.105, 204.653 L 19.5532, 186.558 L 142.517, 18.4363 z "/>
<path style="fill:rgb(255, 184, 12);fill-opacity:1.0;fill-rule:evenodd;stroke:rgb(0, 0, 0);stroke-width:3.0;" d="M 510.854, 416.051 L 492.78, 409.296 L 492.576, 393.344 L 510.475, 388.279 z "/>
<path style="fill:rgb(255, 157, 231);fill-opacity:1.0;fill-rule:evenodd;stroke:rgb(0, 0, 0);stroke-width:3.0;" d="M 144.418, 538.296 L 151.832, 560.335 L 138.503, 576.729 L 130.338, 548.974 L 143.829, 537.932 z "/>
<path style="fill:rgb(255, 157, 231);fill-opacity:1.0;fill-rule:evenodd;stroke:rgb(0, 0, 0);stroke-width:3.0;" d="M 337.881, 329.256 L 356.272, 364.055 L 263.852, 439.697 L 220.918, 385.435 L 250.64, 311.082 z "/>
<path style="fill:rgb(255, 184, 10);fill-opacity:1.0;fill-rule:evenodd;stroke:rgb(0, 0, 0);stroke-width:3.0;" d="M 328.512, 417.804 L 311.686, 417.474 L 314.219, 412.805 L 316.913, 410.372 L 324.879, 407.806 z "/>
<path style="fill:rgb(243, 255, 7);fill-opacity:1.0;fill-rule:evenodd;stroke:rgb(0, 0, 0);stroke-width:3.0;" d="M 755.43, 426.126 L 755.16, 426.554 L 725.74, 411.084 L 727.756, 405.546 L 748.315, 395.65 L 748.47, 395.641 z "/>
<path style="fill:rgb(255, 182, 123);fill-opacity:1.0;fill-rule:evenodd;stroke:rgb(0, 0, 0);stroke-width:3.0;" d="M 174.004, 537.592 L 148.71, 540.946 L 143.829, 537.932 L 178.643, 509.438 z "/>
<path style="fill:rgb(255, 182, 123);fill-opacity:1.0;fill-rule:evenodd;stroke:rgb(0, 0, 0);stroke-width:3.0;" d="M 684.327, 231.08 L 691.542, 236.445 L 694.568, 244.291 L 682.476, 244.777 L 677.693, 229.546 z "/>
<path style="fill:rgb(255, 0, 146);fill-opacity:1.0;fill-rule:evenodd;stroke:rgb(0, 0, 0);stroke-width:3.0;" d="M 671.034, 325.671 L 650.725, 408.777 L 659.074, 346.34 L 670.946, 324.89 z "/>
<path style="fill:rgb(64, 189, 194);fill-opacity:1.0;fill-rule:evenodd;stroke:rgb(0, 0, 0);stroke-width:3.0;" d="M 716.067, 511.824 L 698.04, 499.528 L 740.432, 494.357 z "/>
<path style="fill:rgb(64, 189, 194);fill-opacity:1.0;fill-rule:evenodd;stroke:rgb(0, 0, 0);stroke-width:3.0;" d="M 53.6115, 139.992 L 42.0163, 133.976 L 88.1273, 92.8003 z "/>
<path style="fill:rgb(64, 189, 194);fill-opacity:1.0;fill-rule:evenodd;stroke:rgb(0, 0, 0);stroke-width:3.0;" d="M 650.725, 408.777 L 649.736, 412.824 L 642.314, 416.041 L 642.975, 375.428 L 659.074, 346.34 z "/>
<path style="fill:rgb(102, 161, 168);fill-opacity:1.0;fill-rule:evenodd;stroke:rgb(0, 0, 0);stroke-width:3.0;" d="M 745.351, 575.142 L 721.017, 558.84 L 730.863, 527.46 z "/>
<path style="fill:rgb(243, 54, 255);fill-opacity:1.0;fill-rule:evenodd;stroke:rgb(0, 0, 0);stroke-width:3.0;" d="M 683.764, 442.369 L 656.179, 450.589 L 677.951, 433.045 z "/>
<path style="fill:rgb(243, 54, 255);fill-opacity:1.0;fill-rule:evenodd;stroke:rgb(0, 0, 0);stroke-width:3.0;" d="M 324.815, 429.262 L 313.912, 435.297 L 303.18, 433.153 L 309.107, 422.228 z "/>
<path style="fill:rgb(10, 97, 255);fill-opacity:1.0;fill-rule:evenodd;stroke:rgb(0, 0, 0);stroke-width:3.0;" d="M 664.747, 270.054 L 656.095, 262.839 L 653.793, 257.587 L 662.637, 251.388 z "/>
<path style="fill:rgb(65, 246, 179);fill-opacity:1.0;fill-rule:evenodd;stroke:rgb(0, 0, 0);stroke-width:3.0;" d="M 679.55, 481.939 L 670.006, 497.073 L 668.034, 499.111 L 668.554, 484.493 L 672.18, 479.824 L 677.113, 479.571 z "/>
<path style="fill:rgb(255, 243, 142);fill-opacity:1.0;fill-rule:evenodd;stroke:rgb(0, 0, 0);stroke-width:3.0;" d="M 492.78, 409.296 L 482.195, 405.34 L 484.782, 395.55 L 492.576, 393.344 z "/>
<path style="fill:rgb(255, 223, 7);fill-opacity:1.0;fill-rule:evenodd;stroke:rgb(0, 0, 0);stroke-width:3.0;" d="M 773.262, 510.296 L 772.357, 534.946 L 748.43, 507.629 z "/>
<path style="fill:rgb(255, 223, 7);fill-opacity:1.0;fill-rule:evenodd;stroke:rgb(0, 0, 0);stroke-width:3.0;" d="M 441.238, 570.341 L 426.088, 579.719 L 420.072, 562.291 L 422.848, 557.426 z "/>
<path style="fill:rgb(37, 255, 237);fill-opacity:1.0;fill-rule:evenodd;stroke:rgb(0, 0, 0);stroke-width:3.0;" d="M 73.2119, 30.3197 L 73.0461, 54.3131 L 62.7302, 32.3899 L 58.3553, 8.56647 z "/>
<path style="fill:rgb(234, 117, 7);fill-opacity:1.0;fill-rule:evenodd;stroke:rgb(0, 0, 0);stroke-width:3.0;" d="M 716.067, 511.824 L 698.515, 524.406 L 681.618, 507.157 L 684.594, 501.169 L 698.04, 499.528 z "/>
<path style="fill:rgb(202, 88, 144);fill-opacity:1.0;fill-rule:evenodd;stroke:rgb(0, 0, 0);stroke-width:3.0;" d="M 310.67, 488.664 L 320.508, 502.141 L 314.895, 504.056 L 296.819, 505.131 L 296.416, 504.911 L 310.085, 488.433 z "/>
<path style="fill:rgb(202, 88, 144);fill-opacity:1.0;fill-rule:evenodd;stroke:rgb(0, 0, 0);stroke-width:3.0;" d="M 135.436, 566.304 L 109.239, 580.957 L 109.971, 570.968 L 131.98, 554.555 z "/>
<path style="fill:rgb(150, 255, 81);fill-opacity:1.0;fill-rule:evenodd;stroke:rgb(0, 0, 0);stroke-width:3.0;" d="M 768.49, 293.663 L 739.259, 373.951 L 744.712, 343.403 L 760.392, 300.604 L 765.253, 291.255 z "/>
<path style="fill:rgb(26, 124, 95);fill-opacity:1.0;fill-rule:evenodd;stroke:rgb(0, 0, 0);stroke-width:3.0;" d="M 739.259, 373.951 L 700.998, 479.042 L 691.971, 487.363 L 744.712, 343.403 z "/>
<path style="fill:rgb(19, 234, 46);fill-opacity:1.0;fill-rule:evenodd;stroke:rgb(0, 0, 0);stroke-width:3.0;" d="M 677.951, 433.045 L 657.031, 449.903 L 657.805, 440.352 L 677.016, 431.546 z "/>
<path style="fill:rgb(255, 37, 59);fill-opacity:1.0;fill-rule:evenodd;stroke:rgb(0, 0, 0);stroke-width:3.0;" d="M 742.176, 419.727 L 705.168, 467.589 L 725.74, 411.084 z "/>
<path style="fill:rgb(82, 240, 187);fill-opacity:1.0;fill-rule:evenodd;stroke:rgb(0, 0, 0);stroke-width:3.0;" d="M 668.902, 428.342 L 663.956, 437.533 L 657.024, 440.71 L 646.098, 444.002 L 654.083, 407.004 z "/>
<path style="fill:rgb(48, 228, 243);fill-opacity:1.0;fill-rule:evenodd;stroke:rgb(0, 0, 0);stroke-width:3.0;" d="M 418.722, 538.474 L 426.286, 559.841 L 416.966, 553.296 L 413.026, 541.881 L 417.288, 537.409 z "/>
<path style="fill:rgb(199, 237, 237);fill-opacity:1.0;fill-rule:evenodd;stroke:rgb(0, 0, 0);stroke-width:3.0;" d="M 707.853, 306.538 L 673.818, 321.102 L 666.582, 275.76 L 706.361, 263.777 z "/>
<path style="fill:rgb(199, 237, 237);fill-opacity:1.0;fill-rule:evenodd;stroke:rgb(0, 0, 0);stroke-width:3.0;" d="M 237.836, 195.964 L 228.508, 197.303 L 229.697, 176.181 L 238.051, 174.998 z "/>
<path style="fill:rgb(199, 237, 237);fill-opacity:1.0;fill-rule:evenodd;stroke:rgb(0, 0, 0);stroke-width:3.0;" d="M 293.351, 464.939 L 300.065, 474.137 L 253.662, 448.038 L 258.649, 443.956 z "/>
<path style="fill:rgb(199, 237, 237);fill-opacity:1.0;fill-rule:evenodd;stroke:rgb(0, 0, 0);stroke-width:3.0;" d="M 455.734, 552.256 L 457.218, 555.064 L 441.445, 557.034 L 433.158, 530.364 z "/>
<path style="fill:rgb(86, 3, 255);fill-opacity:1.0;fill-rule:evenodd;stroke:rgb(0, 0, 0);stroke-width:3.0;" d="M 777.569, 414.06 L 768.255, 420.65 L 765.64, 412.479 L 776.275, 399.429 z "/>
<path style="fill:rgb(24, 9, 159);fill-opacity:1.0;fill-rule:evenodd;stroke:rgb(0, 0, 0);stroke-width:3.0;" d="M 234.198, 420.508 L 237.461, 425.65 L 235.867, 427.054 L 220.991, 427.322 L 217.552, 415.621 z "/>
<path style="fill:rgb(83, 5, 255);fill-opacity:1.0;fill-rule:evenodd;stroke:rgb(0, 0, 0);stroke-width:3.0;" d="M 640.247, 543.032 L 511.129, 436.194 L 510.646, 400.845 L 585.048, 294.114 L 644.456, 284.413 z "/>
<path style="fill:rgb(240, 255, 9);fill-opacity:1.0;fill-rule:evenodd;stroke:rgb(0, 0, 0);stroke-width:3.0;" d="M 510.646, 400.845 L 509.356, 306.474 L 585.048, 294.114 z "/>
<path style="fill:rgb(119, 9, 228);fill-opacity:1.0;fill-rule:evenodd;stroke:rgb(0, 0, 0);stroke-width:3.0;" d="M 344.257, 476.343 L 336.813, 478.845 L 324.598, 469.345 L 325.811, 453.404 z "/>
<path style="fill:rgb(197, 136, 30);fill-opacity:1.0;fill-rule:evenodd;stroke:rgb(0, 0, 0);stroke-width:3.0;" d="M 47.3976, 129.171 L 19.5368, 154.05 L 11.0619, 150.915 L 12.6636, 125.501 z "/>
<path style="fill:rgb(252, 17, 19);fill-opacity:1.0;fill-rule:evenodd;stroke:rgb(0, 0, 0);stroke-width:3.0;" d="M 322.678, 494.563 L 321.161, 492.241 L 315.296, 461.484 L 327.072, 428.013 L 327.773, 427.625 z "/>
<path style="fill:rgb(255, 91, 255);fill-opacity:1.0;fill-rule:evenodd;stroke:rgb(0, 0, 0);stroke-width:3.0;" d="M 668.582, 303.981 L 669.829, 315.007 L 669.755, 315.166 L 659.392, 317.01 L 657.393, 310.11 L 663.164, 301.826 z "/>
<path style="fill:rgb(255, 255, 11);fill-opacity:1.0;fill-rule:evenodd;stroke:rgb(0, 0, 0);stroke-width:3.0;" d="M 371.546, 392.957 L 373.147, 395.986 L 333.707, 432.101 L 330.283, 422.679 L 344.633, 399.158 L 353.881, 387.033 z "/>
<path style="fill:rgb(240, 240, 17);fill-opacity:1.0;fill-rule:evenodd;stroke:rgb(0, 0, 0);stroke-width:3.0;" d="M 268.292, 197.581 L 255.734, 206.953 L 253.156, 205.947 L 240.942, 195.518 L 265.351, 192.015 z "/>
<path style="fill:rgb(132, 0, 220);fill-opacity:1.0;fill-rule:evenodd;stroke:rgb(0, 0, 0);stroke-width:3.0;" d="M 385.51, 419.379 L 371.939, 441.102 L 338.482, 445.242 L 333.905, 432.646 L 341, 425.423 L 373.147, 395.986 z "/>
<path style="fill:rgb(132, 0, 220);fill-opacity:1.0;fill-rule:evenodd;stroke:rgb(0, 0, 0);stroke-width:3.0;" d="M 509.505, 317.342 L 483.759, 313.307 L 483.828, 310.643 L 509.356, 306.474 z "/>
<path style="fill:rgb(243, 252, 39);fill-opacity:1.0;fill-rule:evenodd;stroke:rgb(0, 0, 0);stroke-width:3.0;" d="M 673.741, 467.242 L 641.68, 464.471 L 642.309, 461.553 L 678.013, 459.026 z "/>
<path style="fill:rgb(202, 0, 252);fill-opacity:1.0;fill-rule:evenodd;stroke:rgb(0, 0, 0);stroke-width:3.0;" d="M 296.196, 499.344 L 281.072, 496.523 L 267.568, 489.141 L 290.985, 485.209 z "/>
<path style="fill:rgb(9, 243, 255);fill-opacity:1.0;fill-rule:evenodd;stroke:rgb(0, 0, 0);stroke-width:3.0;" d="M 137.057, 578.508 L 129.71, 587.546 L 113.858, 592.551 L 108.95, 584.895 L 109.239, 580.957 L 133.106, 567.607 z "/>
<path style="fill:rgb(9, 243, 255);fill-opacity:1.0;fill-rule:evenodd;stroke:rgb(0, 0, 0);stroke-width:3.0;" d="M 510.854, 416.051 L 511.129, 436.194 L 487.173, 416.371 L 488.426, 407.668 z "/>
<path style="fill:rgb(255, 28, 217);fill-opacity:1.0;fill-rule:evenodd;stroke:rgb(0, 0, 0);stroke-width:3.0;" d="M 773.262, 510.296 L 748.43, 507.629 L 746.031, 504.891 L 755.422, 492.528 L 773.997, 490.262 z "/>
<path style="fill:rgb(255, 17, 197);fill-opacity:1.0;fill-rule:evenodd;stroke:rgb(0, 0, 0);stroke-width:3.0;" d="M 248.235, 580.919 L 191.371, 581.913 L 200.002, 574.049 z "/>
<path style="fill:rgb(255, 17, 197);fill-opacity:1.0;fill-rule:evenodd;stroke:rgb(0, 0, 0);stroke-width:3.0;" d="M 313.689, 466.05 L 295.988, 446.408 L 296.911, 444.707 L 327.072, 428.013 z "/>
<path style="fill:rgb(255, 252, 21);fill-opacity:1.0;fill-rule:evenodd;stroke:rgb(0, 0, 0);stroke-width:3.0;" d="M 745.583, 429.81 L 707.716, 469.601 L 707.328, 465.311 L 742.395, 428.87 z "/>
<path style="fill:rgb(246, 50, 19);fill-opacity:1.0;fill-rule:evenodd;stroke:rgb(0, 0, 0);stroke-width:3.0;" d="M 286.095, 454.999 L 293.351, 464.939 L 258.649, 443.956 L 261.357, 441.74 z "/>
<path style="fill:rgb(246, 50, 19);fill-opacity:1.0;fill-rule:evenodd;stroke:rgb(0, 0, 0);stroke-width:3.0;" d="M 742.395, 428.87 L 707.328, 465.311 L 707.286, 464.85 L 736.458, 427.121 z "/>
<path style="fill:rgb(255, 3, 66);fill-opacity:1.0;fill-rule:evenodd;stroke:rgb(0, 0, 0);stroke-width:3.0;" d="M 657.796, 135.412 L 674.474, 45.6735 L 744.505, 32.5449 z "/>
<path style="fill:rgb(11, 165, 255);fill-opacity:1.0;fill-rule:evenodd;stroke:rgb(0, 0, 0);stroke-width:3.0;" d="M 657.796, 135.412 L 618.448, 182.093 L 483.208, 81.53 L 674.474, 45.6735 z "/>
<path style="fill:rgb(255, 243, 34);fill-opacity:1.0;fill-rule:evenodd;stroke:rgb(0, 0, 0);stroke-width:3.0;" d="M 53.6115, 139.992 L 31.0875, 170.788 L 19.4059, 154.166 L 42.0163, 133.976 z "/>
<path style="fill:rgb(255, 252, 78);fill-opacity:1.0;fill-rule:evenodd;stroke:rgb(0, 0, 0);stroke-width:3.0;" d="M 342.701, 530.212 L 344.816, 536.652 L 334.033, 549.574 L 331.086, 547.073 L 321.758, 518.764 z "/>
<path style="fill:rgb(37, 187, 217);fill-opacity:1.0;fill-rule:evenodd;stroke:rgb(0, 0, 0);stroke-width:3.0;" d="M 750.628, 433.749 L 741.253, 448.631 L 737.246, 442.255 L 748.734, 427.414 z "/>
<path style="fill:rgb(22, 182, 252);fill-opacity:1.0;fill-rule:evenodd;stroke:rgb(0, 0, 0);stroke-width:3.0;" d="M 370.138, 443.983 L 340.443, 450.64 L 338.482, 445.242 L 371.939, 441.102 z "/>
<path style="fill:rgb(255, 71, 32);fill-opacity:1.0;fill-rule:evenodd;stroke:rgb(0, 0, 0);stroke-width:3.0;" d="M 698.515, 524.406 L 671.866, 543.51 L 665.102, 540.393 L 681.618, 507.157 z "/>
<path style="fill:rgb(138, 65, 204);fill-opacity:1.0;fill-rule:evenodd;stroke:rgb(0, 0, 0);stroke-width:3.0;" d="M 200.002, 574.049 L 191.371, 581.913 L 172.667, 582.24 L 177.852, 570.894 z "/>
<path style="fill:rgb(255, 28, 124);fill-opacity:1.0;fill-rule:evenodd;stroke:rgb(0, 0, 0);stroke-width:3.0;" d="M 319.145, 536.937 L 319.192, 545.278 L 282.157, 561.72 L 281.446, 559.747 L 281.373, 559.376 L 291.129, 513.158 z "/>
<path style="fill:rgb(237, 46, 134);fill-opacity:1.0;fill-rule:evenodd;stroke:rgb(0, 0, 0);stroke-width:3.0;" d="M 291.129, 513.158 L 281.373, 559.376 L 268.411, 493.875 z "/>
<path style="fill:rgb(255, 1, 27);fill-opacity:1.0;fill-rule:evenodd;stroke:rgb(0, 0, 0);stroke-width:3.0;" d="M 653.76, 478.729 L 641.102, 490.521 L 641.404, 471.925 L 645.668, 470.979 z "/>
<path style="fill:rgb(11, 179, 255);fill-opacity:1.0;fill-rule:evenodd;stroke:rgb(0, 0, 0);stroke-width:3.0;" d="M 347.721, 470.671 L 342.5, 474.158 L 325.811, 453.404 L 327.695, 428.66 L 331.337, 425.579 z "/>
</svg>