<?xml version="1.0" encoding="iso-8859-1" standalone="no"?>
<!DOCTYPE svg PUBLIC "-//W3C//DTD SVG 1.0//EN" "http://www.w3.org/TR/2001/REC-SVG-20010904/DTD/svg10.dtd">
<svg xmlns="http://www.w3.org/2000/svg" width="800" height="600">
<path style="fill:rgb(0, 0, 0);fill-opacity:0.0;fill-rule:evenodd;stroke:rgb(0, 0, 0);stroke-width:0.0;" d="M 0, 600 L 800, 600 L 800, 0 L 0, 0 z "/>
<path style="fill:rgb(255, 249, 7);fill-opacity:1.0;fill-rule:evenodd;stroke:rgb(0, 0, 0);stroke-width:3.0;" d="M 232.298, 71.277 L 216.079, 108.148 L 180.55, 129.353 L 173.99, 45.7604 L 196.739, 33.6459 z "/>
<path style="fill:rgb(252, 243, 25);fill-opacity:1.0;fill-rule:evenodd;stroke:rgb(0, 0, 0);stroke-width:3.0;" d="M 188.779, 25.2213 L 183.151, 40.8823 L 173.99, 45.7604 L 171.742, 17.1126 L 175.153, 10.8019 z "/>
<path style="fill:rgb(252, 255, 17);fill-opacity:1.0;fill-rule:evenodd;stroke:rgb(0, 0, 0);stroke-width:3.0;" d="M 196.086, 204.954 L 176.679, 230.157 L 176.014, 230.506 L 194.606, 196.509 z "/>
<path style="fill:rgb(255, 172, 27);fill-opacity:1.0;fill-rule:evenodd;stroke:rgb(0, 0, 0);stroke-width:3.0;" d="M 26.7887, 174.991 L 23.5983, 183.151 L 18.6138, 183.297 L 12.109, 161.8 z "/>
<path style="fill:rgb(255, 217, 11);fill-opacity:1.0;fill-rule:evenodd;stroke:rgb(0, 0, 0);stroke-width:3.0;" d="M 178.804, 169.94 L 178.039, 169.65 L 162.193, 156.853 L 183.501, 134.555 z "/>
<path style="fill:rgb(161, 255, 255);fill-opacity:1.0;fill-rule:evenodd;stroke:rgb(0, 0, 0);stroke-width:3.0;" d="M 379.595, 29.7343 L 377.655, 42.0183 L 371.264, 40.0577 L 359.314, 34.8335 L 364.265, 26.7426 L 374.555, 23.4577 z "/>
<path style="fill:rgb(161, 255, 255);fill-opacity:1.0;fill-rule:evenodd;stroke:rgb(0, 0, 0);stroke-width:3.0;" d="M 216.053, 138.109 L 221.4, 141.192 L 233.696, 172.025 L 210.593, 184.271 L 186.64, 175.074 L 203.714, 136.259 z "/>
<path style="fill:rgb(161, 255, 255);fill-opacity:1.0;fill-rule:evenodd;stroke:rgb(0, 0, 0);stroke-width:3.0;" d="M 334.264, 13.9227 L 335.994, 15.2558 L 347.095, 26.6161 L 336.661, 33.1551 L 304.565, 12.1419 L 306.697, 6.51801 z "/>
<path style="fill:rgb(161, 255, 255);fill-opacity:1.0;fill-rule:evenodd;stroke:rgb(0, 0, 0);stroke-width:3.0;" d="M 85.1457, 194.373 L 88.4616, 213.948 L 80.9122, 210.599 L 81.0329, 194.163 L 83.1654, 190.579 z "/>
<path style="fill:rgb(161, 255, 255);fill-opacity:1.0;fill-rule:evenodd;stroke:rgb(0, 0, 0);stroke-width:3.0;" d="M 86.0699, 175.608 L 77.9844, 190.566 L 57.636, 202.711 L 26.1232, 174.393 L 74.4212, 169.072 z "/>
<path style="fill:rgb(51, 228, 255);fill-opacity:1.0;fill-rule:evenodd;stroke:rgb(0, 0, 0);stroke-width:3.0;" d="M 375.893, 62.2038 L 397.329, 85.2908 L 393.086, 87.5397 L 362.229, 76.7607 L 370.592, 61.1804 z "/>
<path style="fill:rgb(255, 215, 9);fill-opacity:1.0;fill-rule:evenodd;stroke:rgb(0, 0, 0);stroke-width:3.0;" d="M 420.079, 21.3388 L 423.334, 40.3848 L 421.802, 50.7357 L 418.945, 52.4246 L 414.025, 46.8774 L 417.925, 17.0837 z "/>
<path style="fill:rgb(255, 215, 9);fill-opacity:1.0;fill-rule:evenodd;stroke:rgb(0, 0, 0);stroke-width:3.0;" d="M 558.72, 29.3059 L 494.428, 63.1063 L 489.026, 55.9591 L 550.336, 19.3953 z "/>
<path style="fill:rgb(255, 215, 9);fill-opacity:1.0;fill-rule:evenodd;stroke:rgb(0, 0, 0);stroke-width:3.0;" d="M 74.4212, 169.072 L 38.0226, 173.082 L 65.2796, 163.942 z "/>
<path style="fill:rgb(74, 255, 220);fill-opacity:1.0;fill-rule:evenodd;stroke:rgb(0, 0, 0);stroke-width:3.0;" d="M 159.609, 141.851 L 143.333, 151.565 L 122.257, 141.533 L 162.748, 123.886 z "/>
<path style="fill:rgb(74, 255, 220);fill-opacity:1.0;fill-rule:evenodd;stroke:rgb(0, 0, 0);stroke-width:3.0;" d="M 141.212, 172.545 L 109.862, 192.452 L 97.8225, 178.726 L 167.918, 136.892 z "/>
<path style="fill:rgb(228, 0, 13);fill-opacity:1.0;fill-rule:evenodd;stroke:rgb(0, 0, 0);stroke-width:3.0;" d="M 210.593, 184.271 L 208.081, 185.603 L 177.711, 195.373 L 186.64, 175.074 z "/>
<path style="fill:rgb(228, 0, 13);fill-opacity:1.0;fill-rule:evenodd;stroke:rgb(0, 0, 0);stroke-width:3.0;" d="M 147.181, 89.0117 L 132.646, 122.96 L 110.665, 130.107 L 133.916, 87.0915 z "/>
<path style="fill:rgb(228, 0, 13);fill-opacity:1.0;fill-rule:evenodd;stroke:rgb(0, 0, 0);stroke-width:3.0;" d="M 391.061, 65.1323 L 399.748, 74.5298 L 399.986, 75.2324 L 399.519, 77.9129 L 379.343, 65.9195 L 375.893, 62.2038 z "/>
<path style="fill:rgb(228, 0, 13);fill-opacity:1.0;fill-rule:evenodd;stroke:rgb(0, 0, 0);stroke-width:3.0;" d="M 153.754, 107.05 L 132.738, 122.931 L 132.646, 122.96 L 139.937, 105.931 z "/>
<path style="fill:rgb(228, 0, 13);fill-opacity:1.0;fill-rule:evenodd;stroke:rgb(0, 0, 0);stroke-width:3.0;" d="M 76.1473, 128.266 L 88.0707, 171.906 L 86.0699, 175.608 L 13.7684, 135.037 L 31.1988, 102.276 z "/>
<path style="fill:rgb(67, 179, 223);fill-opacity:1.0;fill-rule:evenodd;stroke:rgb(0, 0, 0);stroke-width:3.0;" d="M 40.9574, 281.443 L 37.4763, 282.231 L 64.4712, 241.856 L 74.3213, 236.284 z "/>
<path style="fill:rgb(67, 179, 223);fill-opacity:1.0;fill-rule:evenodd;stroke:rgb(0, 0, 0);stroke-width:3.0;" d="M 196.334, 153.035 L 182.143, 159.017 L 199.992, 128.83 L 211.836, 117.794 z "/>
<path style="fill:rgb(255, 97, 17);fill-opacity:1.0;fill-rule:evenodd;stroke:rgb(0, 0, 0);stroke-width:3.0;" d="M 310.074, 159.242 L 205.612, 189.059 L 206.443, 186.471 L 244.946, 166.062 L 273.138, 156.121 z "/>
<path style="fill:rgb(255, 37, 6);fill-opacity:1.0;fill-rule:evenodd;stroke:rgb(0, 0, 0);stroke-width:3.0;" d="M 418.356, 13.796 L 417.002, 24.1337 L 396.786, 11.946 z "/>
<path style="fill:rgb(255, 37, 6);fill-opacity:1.0;fill-rule:evenodd;stroke:rgb(0, 0, 0);stroke-width:3.0;" d="M 49.4615, 73.396 L 63.9151, 95.7972 L 47.5153, 111.711 L 31.1988, 102.276 L 47.4375, 71.7545 z "/>
<path style="fill:rgb(255, 37, 6);fill-opacity:1.0;fill-rule:evenodd;stroke:rgb(0, 0, 0);stroke-width:3.0;" d="M 403.101, 106.114 L 402.316, 107.368 L 375.335, 121.24 L 367.978, 121.813 L 400.738, 99.6719 z "/>
<path style="fill:rgb(255, 37, 6);fill-opacity:1.0;fill-rule:evenodd;stroke:rgb(0, 0, 0);stroke-width:3.0;" d="M 222.4, 97.5985 L 225.312, 87.1589 L 237.061, 60.4503 L 244.018, 59.2372 z "/>
<path style="fill:rgb(6, 0, 115);fill-opacity:1.0;fill-rule:evenodd;stroke:rgb(0, 0, 0);stroke-width:3.0;" d="M 367.14, 120.016 L 364.782, 116.616 L 368.2, 105.994 L 386.63, 101.352 z "/>
<path style="fill:rgb(6, 0, 115);fill-opacity:1.0;fill-rule:evenodd;stroke:rgb(0, 0, 0);stroke-width:3.0;" d="M 325.468, 143.233 L 311.167, 158.92 L 305.55, 138.905 z "/>
<path style="fill:rgb(6, 0, 115);fill-opacity:1.0;fill-rule:evenodd;stroke:rgb(0, 0, 0);stroke-width:3.0;" d="M 386.586, 101.363 L 367.992, 106.047 L 373.634, 97.8506 L 388.712, 89.8584 z "/>
<path style="fill:rgb(6, 0, 115);fill-opacity:1.0;fill-rule:evenodd;stroke:rgb(0, 0, 0);stroke-width:3.0;" d="M 123.773, 208.311 L 99.5678, 222.003 L 97.0655, 217.21 L 116.214, 199.693 z "/>
<path style="fill:rgb(117, 255, 252);fill-opacity:1.0;fill-rule:evenodd;stroke:rgb(0, 0, 0);stroke-width:3.0;" d="M 412.327, 78.344 L 382.951, 111.693 L 367.978, 121.813 L 365.023, 122.043 L 410.928, 78.0828 L 412.327, 77.3412 z "/>
<path style="fill:rgb(249, 240, 48);fill-opacity:1.0;fill-rule:evenodd;stroke:rgb(0, 0, 0);stroke-width:3.0;" d="M 93.3724, 181.382 L 77.9844, 190.566 L 99.0134, 151.662 L 120.26, 142.403 z "/>
<path style="fill:rgb(249, 240, 48);fill-opacity:1.0;fill-rule:evenodd;stroke:rgb(0, 0, 0);stroke-width:3.0;" d="M 419.326, 98.071 L 420.087, 102.189 L 398.428, 113.577 L 410.562, 94.1993 z "/>
<path style="fill:rgb(126, 29, 255);fill-opacity:1.0;fill-rule:evenodd;stroke:rgb(0, 0, 0);stroke-width:3.0;" d="M 30.603, 262.478 L 33.6972, 273.584 L 26.0185, 284.824 L 20.8099, 286.003 L 19.6592, 267.204 L 28.5905, 262.152 z "/>
<path style="fill:rgb(126, 29, 255);fill-opacity:1.0;fill-rule:evenodd;stroke:rgb(0, 0, 0);stroke-width:3.0;" d="M 463.845, 79.1848 L 429.332, 97.3294 L 428.834, 94.7884 L 432.587, 80.1124 L 451.319, 76.7664 z "/>
<path style="fill:rgb(179, 44, 255);fill-opacity:1.0;fill-rule:evenodd;stroke:rgb(0, 0, 0);stroke-width:3.0;" d="M 179.521, 200.741 L 174.646, 202.339 L 177.711, 195.373 L 208.081, 185.603 z "/>
<path style="fill:rgb(231, 82, 6);fill-opacity:1.0;fill-rule:evenodd;stroke:rgb(0, 0, 0);stroke-width:3.0;" d="M 45.7328, 206.235 L 45.2967, 210.075 L 25.9131, 221.644 L 24.8371, 221.074 L 44.1179, 201.53 z "/>
<path style="fill:rgb(231, 82, 6);fill-opacity:1.0;fill-rule:evenodd;stroke:rgb(0, 0, 0);stroke-width:3.0;" d="M 322.293, 51.8552 L 315.617, 57.3124 L 286.535, 44.9515 z "/>
<path style="fill:rgb(249, 252, 30);fill-opacity:1.0;fill-rule:evenodd;stroke:rgb(0, 0, 0);stroke-width:3.0;" d="M 338.737, 6.79698 L 354.98, 18.3228 L 355.084, 19.9097 L 354.953, 19.9931 L 343.068, 20.7071 L 333.383, 13.2439 L 338.705, 6.79412 z "/>
<path style="fill:rgb(13, 240, 246);fill-opacity:1.0;fill-rule:evenodd;stroke:rgb(0, 0, 0);stroke-width:3.0;" d="M 484.073, 34.8133 L 458.072, 60.0633 L 478.603, 30.3957 z "/>
<path style="fill:rgb(255, 240, 8);fill-opacity:1.0;fill-rule:evenodd;stroke:rgb(0, 0, 0);stroke-width:3.0;" d="M 178.804, 169.94 L 177.764, 177.771 L 142.146, 197.919 L 137.516, 177.479 L 151.051, 159.409 z "/>
<path style="fill:rgb(255, 100, 49);fill-opacity:1.0;fill-rule:evenodd;stroke:rgb(0, 0, 0);stroke-width:3.0;" d="M 103.204, 143.91 L 92.9209, 162.933 L 85.9132, 164.01 L 82.271, 150.679 L 82.1423, 131.732 z "/>
<path style="fill:rgb(220, 37, 175);fill-opacity:1.0;fill-rule:evenodd;stroke:rgb(0, 0, 0);stroke-width:3.0;" d="M 50.2033, 207.332 L 44.118, 240.338 L 24.2955, 225.27 L 29.0591, 219.766 L 50.0592, 207.233 z "/>
<path style="fill:rgb(220, 37, 175);fill-opacity:1.0;fill-rule:evenodd;stroke:rgb(0, 0, 0);stroke-width:3.0;" d="M 155.318, 47.4972 L 124.997, 103.593 L 121.844, 62.2061 L 151.214, 45.1832 z "/>
<path style="fill:rgb(252, 226, 17);fill-opacity:1.0;fill-rule:evenodd;stroke:rgb(0, 0, 0);stroke-width:3.0;" d="M 412.297, 91.4288 L 411.83, 92.1757 L 401.107, 99.4228 L 396.256, 96.5888 L 407.723, 83.5702 z "/>
<path style="fill:rgb(246, 249, 10);fill-opacity:1.0;fill-rule:evenodd;stroke:rgb(0, 0, 0);stroke-width:3.0;" d="M 451.525, 45.8106 L 435.657, 43.9706 L 433.772, 42.6412 L 435.086, 30.4885 z "/>
<path style="fill:rgb(246, 249, 10);fill-opacity:1.0;fill-rule:evenodd;stroke:rgb(0, 0, 0);stroke-width:3.0;" d="M 168.231, 105.926 L 162.477, 113.261 L 132.738, 122.931 L 162.491, 100.447 z "/>
<path style="fill:rgb(255, 3, 170);fill-opacity:1.0;fill-rule:evenodd;stroke:rgb(0, 0, 0);stroke-width:3.0;" d="M 285.42, 147.263 L 281.38, 156.817 L 264.999, 155.433 L 282.624, 146.091 z "/>
<path style="fill:rgb(72, 212, 255);fill-opacity:1.0;fill-rule:evenodd;stroke:rgb(0, 0, 0);stroke-width:3.0;" d="M 39.0419, 21.1451 L 33.2157, 31.5014 L 17.8279, 17.0172 L 40.1438, 6.12848 z "/>
<path style="fill:rgb(72, 212, 255);fill-opacity:1.0;fill-rule:evenodd;stroke:rgb(0, 0, 0);stroke-width:3.0;" d="M 77.082, 72.7919 L 101.457, 115.566 L 87.0792, 103.905 L 68.3752, 64.5963 z "/>
<path style="fill:rgb(72, 212, 255);fill-opacity:1.0;fill-rule:evenodd;stroke:rgb(0, 0, 0);stroke-width:3.0;" d="M 38.295, 185.331 L 41.1222, 187.871 L 24.1357, 201.786 L 18.3465, 196.581 L 25.2548, 178.914 z "/>
<path style="fill:rgb(175, 66, 228);fill-opacity:1.0;fill-rule:evenodd;stroke:rgb(0, 0, 0);stroke-width:3.0;" d="M 362.992, 83.1423 L 290.353, 68.1473 L 287.874, 57.8691 L 292.153, 56.3312 z "/>
<path style="fill:rgb(98, 94, 255);fill-opacity:1.0;fill-rule:evenodd;stroke:rgb(0, 0, 0);stroke-width:3.0;" d="M 154.067, 56.7463 L 163.015, 68.8657 L 146.761, 76.4159 L 145.276, 75.3577 L 142.966, 70.3492 L 148.501, 60.1084 L 153.813, 56.7088 z "/>
<path style="fill:rgb(223, 212, 182);fill-opacity:1.0;fill-rule:evenodd;stroke:rgb(0, 0, 0);stroke-width:3.0;" d="M 687.906, 430.591 L 625.121, 572.486 L 529.824, 416.991 z "/>
<path style="fill:rgb(223, 212, 182);fill-opacity:1.0;fill-rule:evenodd;stroke:rgb(0, 0, 0);stroke-width:3.0;" d="M 116.214, 199.693 L 97.0655, 217.21 L 91.9213, 207.354 L 102.372, 183.913 z "/>
<path style="fill:rgb(252, 255, 76);fill-opacity:1.0;fill-rule:evenodd;stroke:rgb(0, 0, 0);stroke-width:3.0;" d="M 238.866, 197.463 L 215.115, 186.347 L 247.498, 177.103 L 281.672, 174.959 z "/>
<path style="fill:rgb(255, 1, 17);fill-opacity:1.0;fill-rule:evenodd;stroke:rgb(0, 0, 0);stroke-width:3.0;" d="M 59.1816, 213.526 L 50.5595, 235.759 L 45.8837, 230.761 L 50.2033, 207.332 z "/>
<path style="fill:rgb(59, 255, 255);fill-opacity:1.0;fill-rule:evenodd;stroke:rgb(0, 0, 0);stroke-width:3.0;" d="M 238.866, 197.463 L 217.202, 208.852 L 222.358, 189.737 z "/>
<path style="fill:rgb(255, 172, 6);fill-opacity:1.0;fill-rule:evenodd;stroke:rgb(0, 0, 0);stroke-width:3.0;" d="M 159.996, 38.8428 L 155.318, 47.4972 L 122.863, 29.1966 L 108.486, 10.6644 z "/>
<path style="fill:rgb(146, 234, 255);fill-opacity:1.0;fill-rule:evenodd;stroke:rgb(0, 0, 0);stroke-width:3.0;" d="M 143.333, 151.565 L 93.3724, 181.382 L 120.26, 142.403 L 122.257, 141.533 z "/>
<path style="fill:rgb(24, 255, 48);fill-opacity:1.0;fill-rule:evenodd;stroke:rgb(0, 0, 0);stroke-width:3.0;" d="M 255.247, 86.6122 L 252.034, 90.3196 L 227.615, 88.3438 L 244.347, 58.6526 z "/>
<path style="fill:rgb(24, 255, 48);fill-opacity:1.0;fill-rule:evenodd;stroke:rgb(0, 0, 0);stroke-width:3.0;" d="M 103.008, 268.888 L 67.75, 287.424 L 62.0978, 282.892 L 67.2119, 275.502 L 101.924, 267.646 z "/>
<path style="fill:rgb(24, 255, 48);fill-opacity:1.0;fill-rule:evenodd;stroke:rgb(0, 0, 0);stroke-width:3.0;" d="M 366.43, 123.614 L 366.531, 130.346 L 311.361, 159.35 L 310.816, 159.304 L 343.237, 123.742 L 364.836, 122.058 z "/>
<path style="fill:rgb(24, 255, 48);fill-opacity:1.0;fill-rule:evenodd;stroke:rgb(0, 0, 0);stroke-width:3.0;" d="M 233.758, 148.316 L 249.27, 163.77 L 233.696, 172.025 L 221.4, 141.192 z "/>
<path style="fill:rgb(255, 0, 46);fill-opacity:1.0;fill-rule:evenodd;stroke:rgb(0, 0, 0);stroke-width:3.0;" d="M 526.142, 33.8241 L 485.414, 58.1134 L 477.693, 59.8872 L 491.787, 45.9493 L 520.778, 28.8293 z "/>
<path style="fill:rgb(146, 255, 255);fill-opacity:1.0;fill-rule:evenodd;stroke:rgb(0, 0, 0);stroke-width:3.0;" d="M 52.1707, 156.586 L 65.2796, 163.942 L 38.0226, 173.082 L 30.6472, 173.895 L 47.7651, 155.612 z "/>
<path style="fill:rgb(97, 161, 255);fill-opacity:1.0;fill-rule:evenodd;stroke:rgb(0, 0, 0);stroke-width:3.0;" d="M 523.977, 11.645 L 515.431, 29.472 L 496.237, 39.916 L 502.768, 16.6578 L 504.808, 14.6771 L 523.109, 9.44434 z "/>
<path style="fill:rgb(207, 175, 243);fill-opacity:1.0;fill-rule:evenodd;stroke:rgb(0, 0, 0);stroke-width:3.0;" d="M 325.865, 142.797 L 325.468, 143.233 L 298.905, 137.461 L 308.746, 132.245 z "/>
<path style="fill:rgb(255, 252, 7);fill-opacity:1.0;fill-rule:evenodd;stroke:rgb(0, 0, 0);stroke-width:3.0;" d="M 325.865, 142.797 L 308.746, 132.245 L 311.583, 130.741 L 341.254, 125.917 z "/>
<path style="fill:rgb(79, 9, 255);fill-opacity:1.0;fill-rule:evenodd;stroke:rgb(0, 0, 0);stroke-width:3.0;" d="M 273.253, 42.3871 L 270.658, 54.1218 L 267.31, 54.7156 L 258.141, 50.5598 L 256.448, 39.1425 z "/>
<path style="fill:rgb(79, 9, 255);fill-opacity:1.0;fill-rule:evenodd;stroke:rgb(0, 0, 0);stroke-width:3.0;" d="M 20.7633, 190.401 L 12.6247, 211.215 L 10.1056, 213.278 L 9.02978, 212.709 L 13.8998, 167.718 z "/>
<path style="fill:rgb(79, 9, 255);fill-opacity:1.0;fill-rule:evenodd;stroke:rgb(0, 0, 0);stroke-width:3.0;" d="M 458.495, 38.2224 L 452.362, 45.9077 L 451.525, 45.8106 L 426.046, 22.0617 L 427.847, 9.88763 z "/>
<path style="fill:rgb(226, 252, 64);fill-opacity:1.0;fill-rule:evenodd;stroke:rgb(0, 0, 0);stroke-width:3.0;" d="M 79.3412, 119.705 L 82.5454, 131.966 L 47.5153, 111.711 L 63.9151, 95.7972 z "/>
<path style="fill:rgb(31, 65, 255);fill-opacity:1.0;fill-rule:evenodd;stroke:rgb(0, 0, 0);stroke-width:3.0;" d="M 379.907, 8.40905 L 381.69, 21.1802 L 375.964, 23.0079 L 367.074, 22.1508 L 377.288, 5.45684 z "/>
<path style="fill:rgb(255, 207, 12);fill-opacity:1.0;fill-rule:evenodd;stroke:rgb(0, 0, 0);stroke-width:3.0;" d="M 151.214, 45.1832 L 139.903, 51.7391 L 121.525, 58.0138 L 119.851, 36.0487 L 132.047, 34.3753 z "/>
<path style="fill:rgb(255, 207, 12);fill-opacity:1.0;fill-rule:evenodd;stroke:rgb(0, 0, 0);stroke-width:3.0;" d="M 279.152, 147.931 L 255.154, 160.651 L 212.428, 136.02 L 255.247, 86.6122 z "/>
<path style="fill:rgb(255, 91, 33);fill-opacity:1.0;fill-rule:evenodd;stroke:rgb(0, 0, 0);stroke-width:3.0;" d="M 195.606, 220.206 L 191.137, 222.556 L 185.284, 218.981 L 203.669, 195.107 z "/>
<path style="fill:rgb(212, 30, 15);fill-opacity:1.0;fill-rule:evenodd;stroke:rgb(0, 0, 0);stroke-width:3.0;" d="M 108.486, 10.6644 L 122.863, 29.1966 L 104.195, 18.6703 L 103.11, 7.7233 z "/>
<path style="fill:rgb(128, 0, 255);fill-opacity:1.0;fill-rule:evenodd;stroke:rgb(0, 0, 0);stroke-width:3.0;" d="M 349.771, 57.1603 L 350.392, 59.4886 L 346.071, 68.3473 L 316.481, 56.6065 L 322.293, 51.8552 z "/>
<path style="fill:rgb(128, 255, 204);fill-opacity:1.0;fill-rule:evenodd;stroke:rgb(0, 0, 0);stroke-width:3.0;" d="M 372.144, 98.6402 L 357.44, 106.434 L 355.23, 104.862 L 352.149, 98.8206 L 366.649, 86.8345 z "/>
<path style="fill:rgb(105, 237, 128);fill-opacity:1.0;fill-rule:evenodd;stroke:rgb(0, 0, 0);stroke-width:3.0;" d="M 309.469, 152.868 L 300.512, 157.558 L 294.006, 148.206 L 305.922, 140.23 z "/>
<path style="fill:rgb(105, 237, 128);fill-opacity:1.0;fill-rule:evenodd;stroke:rgb(0, 0, 0);stroke-width:3.0;" d="M 65.5433, 86.439 L 78.5407, 104.177 L 64.2237, 96.2754 L 56.8706, 84.8791 L 62.3433, 83.8436 z "/>
<path style="fill:rgb(231, 223, 11);fill-opacity:1.0;fill-rule:evenodd;stroke:rgb(0, 0, 0);stroke-width:3.0;" d="M 252.034, 90.3196 L 212.428, 136.02 L 205.561, 132.06 L 214.744, 111.183 L 227.615, 88.3438 z "/>
<path style="fill:rgb(255, 13, 9);fill-opacity:1.0;fill-rule:evenodd;stroke:rgb(0, 0, 0);stroke-width:3.0;" d="M 267.31, 54.7156 L 244.707, 58.7245 L 242.917, 58.3551 L 246.365, 45.2217 z "/>
<path style="fill:rgb(11, 255, 255);fill-opacity:1.0;fill-rule:evenodd;stroke:rgb(0, 0, 0);stroke-width:3.0;" d="M 301.159, 158.488 L 283.244, 156.975 L 286.923, 143.812 L 289.865, 142.253 z "/>
<path style="fill:rgb(255, 39, 44);fill-opacity:1.0;fill-rule:evenodd;stroke:rgb(0, 0, 0);stroke-width:3.0;" d="M 158.277, 204.746 L 162.629, 217.543 L 149.236, 220.105 L 144.588, 215.919 L 138.727, 204.269 L 154.47, 203.026 z "/>
<path style="fill:rgb(7, 220, 255);fill-opacity:1.0;fill-rule:evenodd;stroke:rgb(0, 0, 0);stroke-width:3.0;" d="M 222.358, 189.737 L 219.165, 201.574 L 201.889, 216.402 L 198.497, 211.208 L 199.906, 206.822 L 217.355, 187.395 z "/>
<path style="fill:rgb(252, 114, 17);fill-opacity:1.0;fill-rule:evenodd;stroke:rgb(0, 0, 0);stroke-width:3.0;" d="M 341.939, 78.7963 L 356.331, 107.022 L 279.152, 147.931 L 250.608, 74.7126 L 263.052, 62.5115 z "/>
<path style="fill:rgb(255, 255, 15);fill-opacity:1.0;fill-rule:evenodd;stroke:rgb(0, 0, 0);stroke-width:3.0;" d="M 263.052, 62.5115 L 250.608, 74.7126 L 244.347, 58.6526 L 244.348, 58.6505 z "/>
<path style="fill:rgb(255, 192, 130);fill-opacity:1.0;fill-rule:evenodd;stroke:rgb(0, 0, 0);stroke-width:3.0;" d="M 142.146, 197.919 L 129.53, 205.055 L 122.388, 206.733 L 118.729, 202.561 L 137.516, 177.479 z "/>
<path style="fill:rgb(223, 3, 9);fill-opacity:1.0;fill-rule:evenodd;stroke:rgb(0, 0, 0);stroke-width:3.0;" d="M 435.086, 30.4885 L 433.653, 43.7382 L 423.02, 42.5052 L 426.046, 22.0617 z "/>
<path style="fill:rgb(184, 30, 255);fill-opacity:1.0;fill-rule:evenodd;stroke:rgb(0, 0, 0);stroke-width:3.0;" d="M 287.949, 58.1782 L 273.294, 64.2102 L 271.447, 61.845 L 270.967, 55.9841 L 280.153, 52.4378 L 286.301, 51.3474 z "/>
<path style="fill:rgb(255, 4, 17);fill-opacity:1.0;fill-rule:evenodd;stroke:rgb(0, 0, 0);stroke-width:3.0;" d="M 47.0586, 155.456 L 29.8507, 170.13 L 27.2384, 151.072 z "/>
<path style="fill:rgb(255, 182, 237);fill-opacity:1.0;fill-rule:evenodd;stroke:rgb(0, 0, 0);stroke-width:3.0;" d="M 344.055, 40.8148 L 342.131, 43.6058 L 322.691, 51.9321 L 319.902, 51.3937 L 281.931, 33.1782 L 311.667, 26.406 z "/>
<path style="fill:rgb(255, 228, 19);fill-opacity:1.0;fill-rule:evenodd;stroke:rgb(0, 0, 0);stroke-width:3.0;" d="M 311.667, 26.406 L 281.931, 33.1782 L 276.258, 30.4569 L 277.023, 28.2985 L 303.194, 22.637 z "/>
<path style="fill:rgb(255, 16, 177);fill-opacity:1.0;fill-rule:evenodd;stroke:rgb(0, 0, 0);stroke-width:3.0;" d="M 159.696, 236.326 L 158.117, 239.916 L 107.976, 266.276 L 40.9574, 281.443 L 74.3213, 236.284 L 116.646, 212.343 z "/>
<path style="fill:rgb(255, 75, 7);fill-opacity:1.0;fill-rule:evenodd;stroke:rgb(0, 0, 0);stroke-width:3.0;" d="M 44.118, 240.338 L 43.6301, 242.985 L 18.5501, 242.554 L 19.7721, 230.496 L 24.2955, 225.27 z "/>
<path style="fill:rgb(255, 75, 7);fill-opacity:1.0;fill-rule:evenodd;stroke:rgb(0, 0, 0);stroke-width:3.0;" d="M 414.025, 46.8774 L 396.668, 27.3077 L 416.894, 24.9593 z "/>
<path style="fill:rgb(255, 59, 10);fill-opacity:1.0;fill-rule:evenodd;stroke:rgb(0, 0, 0);stroke-width:3.0;" d="M 396.786, 11.946 L 417.002, 24.1337 L 416.894, 24.9593 L 396.668, 27.3077 L 381.996, 10.765 L 382.079, 10.6847 z "/>
<path style="fill:rgb(72, 4, 217);fill-opacity:1.0;fill-rule:evenodd;stroke:rgb(0, 0, 0);stroke-width:3.0;" d="M 162.491, 100.447 L 153.754, 107.05 L 139.937, 105.931 L 142.855, 99.1153 L 153.666, 92.0251 z "/>
<path style="fill:rgb(240, 14, 165);fill-opacity:1.0;fill-rule:evenodd;stroke:rgb(0, 0, 0);stroke-width:3.0;" d="M 76.2413, 81.128 L 87.0792, 103.905 L 53.907, 77.0015 z "/>
<path style="fill:rgb(255, 255, 7);fill-opacity:1.0;fill-rule:evenodd;stroke:rgb(0, 0, 0);stroke-width:3.0;" d="M 400.996, 36.4625 L 405.113, 43.373 L 392.757, 62.6987 L 383.136, 57.0374 L 379.377, 46.0261 L 393.805, 36.2976 z "/>
<path style="fill:rgb(255, 237, 9);fill-opacity:1.0;fill-rule:evenodd;stroke:rgb(0, 0, 0);stroke-width:3.0;" d="M 306.092, 162.12 L 281.672, 174.959 L 270.522, 175.659 L 269.742, 170.754 L 304.3, 160.89 z "/>
<path style="fill:rgb(223, 48, 6);fill-opacity:1.0;fill-rule:evenodd;stroke:rgb(0, 0, 0);stroke-width:3.0;" d="M 494.428, 63.1063 L 463.845, 79.1848 L 460.723, 78.5821 L 468.153, 68.4076 L 489.026, 55.9591 z "/>
<path style="fill:rgb(7, 20, 204);fill-opacity:1.0;fill-rule:evenodd;stroke:rgb(0, 0, 0);stroke-width:3.0;" d="M 389.037, 88.5188 L 362.992, 83.1423 L 327.205, 69.5978 L 298.344, 54.1058 L 303.615, 52.2112 z "/>
<path style="fill:rgb(255, 2, 138);fill-opacity:1.0;fill-rule:evenodd;stroke:rgb(0, 0, 0);stroke-width:3.0;" d="M 27.2384, 151.072 L 28.3951, 159.511 L 29.7062, 173.999 L 26.1232, 174.393 L 18.17, 167.247 L 13.0773, 154.967 L 24.372, 150.438 z "/>
<path style="fill:rgb(255, 255, 8);fill-opacity:1.0;fill-rule:evenodd;stroke:rgb(0, 0, 0);stroke-width:3.0;" d="M 119.874, 113.071 L 113.323, 125.19 L 101.457, 115.566 L 77.082, 72.7919 z "/>
</svg>