<?xml version="1.0" encoding="iso-8859-1" standalone="no"?>
<!DOCTYPE svg PUBLIC "-//W3C//DTD SVG 1.0//EN" "http://www.w3.org/TR/2001/REC-SVG-20010904/DTD/svg10.dtd">
<svg xmlns="http://www.w3.org/2000/svg" width="800" height="600">
<path style="fill:rgb(0, 0, 0);fill-opacity:0.0;fill-rule:evenodd;stroke:rgb(0, 0, 0);stroke-width:0.0;" d="M 0, 600 L 800, 600 L 800, 0 L 0, 0 z "/>
<path style="fill:rgb(255, 30, 212);fill-opacity:1.0;fill-rule:evenodd;stroke:rgb(0, 0, 0);stroke-width:3.0;" d="M 17.5036, 449.924 L 16.5119, 480.122 L 15.0227, 482.774 L 10.6936, 443.262 z "/>
<path style="fill:rgb(255, 30, 212);fill-opacity:1.0;fill-rule:evenodd;stroke:rgb(0, 0, 0);stroke-width:3.0;" d="M 132.554, 169.087 L 104.994, 162.624 L 89.787, 147.283 L 111.546, 132.349 z "/>
<path style="fill:rgb(255, 30, 212);fill-opacity:1.0;fill-rule:evenodd;stroke:rgb(0, 0, 0);stroke-width:3.0;" d="M 264.647, 429.389 L 262.15, 433.261 L 244.066, 422.094 L 243.124, 418.097 L 272.52, 408.876 z "/>
<path style="fill:rgb(255, 30, 212);fill-opacity:1.0;fill-rule:evenodd;stroke:rgb(0, 0, 0);stroke-width:3.0;" d="M 544.12, 260.609 L 538.735, 264.817 L 521.781, 253.893 L 541.551, 246.032 z "/>
<path style="fill:rgb(255, 30, 212);fill-opacity:1.0;fill-rule:evenodd;stroke:rgb(0, 0, 0);stroke-width:3.0;" d="M 239.951, 391.129 L 143.368, 399.421 L 141.521, 383.929 L 211.215, 375.742 z "/>
<path style="fill:rgb(255, 30, 212);fill-opacity:1.0;fill-rule:evenodd;stroke:rgb(0, 0, 0);stroke-width:3.0;" d="M 483.594, 229.288 L 510.671, 275.496 L 477.587, 314.222 L 466.578, 304.368 L 462.902, 215.955 z "/>
<path style="fill:rgb(255, 30, 212);fill-opacity:1.0;fill-rule:evenodd;stroke:rgb(0, 0, 0);stroke-width:3.0;" d="M 95.2132, 89.9586 L 122.451, 130.533 L 69.5422, 122.119 L 43.2788, 31.927 z "/>
<path style="fill:rgb(252, 41, 89);fill-opacity:1.0;fill-rule:evenodd;stroke:rgb(0, 0, 0);stroke-width:3.0;" d="M 171.954, 489.217 L 165.834, 513.292 L 159.36, 513.634 L 121.704, 483.643 z "/>
<path style="fill:rgb(252, 41, 89);fill-opacity:1.0;fill-rule:evenodd;stroke:rgb(0, 0, 0);stroke-width:3.0;" d="M 665.236, 482.2 L 440.499, 557.302 L 590.451, 415.255 z "/>
<path style="fill:rgb(252, 41, 89);fill-opacity:1.0;fill-rule:evenodd;stroke:rgb(0, 0, 0);stroke-width:3.0;" d="M 280.086, 189.062 L 285.173, 210.709 L 284.588, 212.809 L 279.675, 210.75 L 271.032, 188.374 L 273.744, 177.526 z "/>
<path style="fill:rgb(252, 41, 89);fill-opacity:1.0;fill-rule:evenodd;stroke:rgb(0, 0, 0);stroke-width:3.0;" d="M 785.615, 450.05 L 775.649, 458.778 L 774.673, 459.071 L 772.875, 446.229 L 782.151, 443.13 z "/>
<path style="fill:rgb(61, 228, 85);fill-opacity:1.0;fill-rule:evenodd;stroke:rgb(0, 0, 0);stroke-width:3.0;" d="M 291.802, 382.806 L 265.546, 379.09 L 266.705, 373.294 L 277.374, 361.313 z "/>
<path style="fill:rgb(61, 228, 85);fill-opacity:1.0;fill-rule:evenodd;stroke:rgb(0, 0, 0);stroke-width:3.0;" d="M 70.5479, 53.216 L 95.2132, 89.9586 L 31.4243, 18.6808 L 31.3103, 18.3144 z "/>
<path style="fill:rgb(240, 117, 9);fill-opacity:1.0;fill-rule:evenodd;stroke:rgb(0, 0, 0);stroke-width:3.0;" d="M 53.1249, 462.042 L 41.7237, 451.912 L 38.1993, 442.005 L 78.1338, 405.022 L 91.5494, 403.87 z "/>
<path style="fill:rgb(65, 255, 255);fill-opacity:1.0;fill-rule:evenodd;stroke:rgb(0, 0, 0);stroke-width:3.0;" d="M 297.216, 218.099 L 297.855, 240.231 L 288.595, 261.177 L 275.607, 273.827 L 271.153, 207.179 z "/>
<path style="fill:rgb(65, 255, 255);fill-opacity:1.0;fill-rule:evenodd;stroke:rgb(0, 0, 0);stroke-width:3.0;" d="M 478.811, 226.206 L 477.385, 225.287 L 470.233, 209.776 L 499.413, 200.777 z "/>
<path style="fill:rgb(209, 45, 49);fill-opacity:1.0;fill-rule:evenodd;stroke:rgb(0, 0, 0);stroke-width:3.0;" d="M 268.277, 311.624 L 250.85, 321.802 L 238.317, 303.133 L 240.065, 301.966 L 253.528, 296.818 z "/>
<path style="fill:rgb(209, 45, 49);fill-opacity:1.0;fill-rule:evenodd;stroke:rgb(0, 0, 0);stroke-width:3.0;" d="M 150.138, 208.167 L 93.7641, 194.943 L 91.4907, 191.269 L 83.2719, 151.754 L 89.787, 147.283 z "/>
<path style="fill:rgb(252, 100, 13);fill-opacity:1.0;fill-rule:evenodd;stroke:rgb(0, 0, 0);stroke-width:3.0;" d="M 18.0225, 434.125 L 17.5036, 449.924 L 10.6936, 443.262 L 9.06147, 428.365 z "/>
<path style="fill:rgb(215, 48, 7);fill-opacity:1.0;fill-rule:evenodd;stroke:rgb(0, 0, 0);stroke-width:3.0;" d="M 574.919, 215.1 L 560.413, 231.934 L 540.24, 238.59 L 533.931, 202.793 z "/>
<path style="fill:rgb(215, 48, 7);fill-opacity:1.0;fill-rule:evenodd;stroke:rgb(0, 0, 0);stroke-width:3.0;" d="M 148.7, 169.635 L 164.49, 211.534 L 155.639, 209.458 L 154.11, 206.783 L 144.67, 163.632 z "/>
<path style="fill:rgb(215, 48, 7);fill-opacity:1.0;fill-rule:evenodd;stroke:rgb(0, 0, 0);stroke-width:3.0;" d="M 473.541, 562.516 L 457.916, 582.586 L 449.054, 577.38 L 462.059, 550.096 L 471.229, 547.032 z "/>
<path style="fill:rgb(255, 82, 41);fill-opacity:1.0;fill-rule:evenodd;stroke:rgb(0, 0, 0);stroke-width:3.0;" d="M 18.0225, 434.125 L 16.3385, 433.042 L 7.44269, 411.091 L 18.8111, 410.115 z "/>
<path style="fill:rgb(255, 255, 8);fill-opacity:1.0;fill-rule:evenodd;stroke:rgb(0, 0, 0);stroke-width:3.0;" d="M 263.938, 434.365 L 262.967, 433.766 L 272.52, 408.876 L 293.484, 402.3 z "/>
<path style="fill:rgb(255, 255, 8);fill-opacity:1.0;fill-rule:evenodd;stroke:rgb(0, 0, 0);stroke-width:3.0;" d="M 398.001, 161.98 L 431.679, 187.001 L 429.921, 191.589 L 426.129, 192.261 L 362.665, 151.37 z "/>
<path style="fill:rgb(255, 255, 8);fill-opacity:1.0;fill-rule:evenodd;stroke:rgb(0, 0, 0);stroke-width:3.0;" d="M 294.697, 130.963 L 297.216, 218.099 L 295.703, 217.465 L 268.538, 168.057 L 265.472, 122.188 z "/>
<path style="fill:rgb(255, 243, 14);fill-opacity:1.0;fill-rule:evenodd;stroke:rgb(0, 0, 0);stroke-width:3.0;" d="M 763.917, 524.403 L 756.661, 533.402 L 744.189, 526.906 L 759.436, 514.394 z "/>
<path style="fill:rgb(255, 237, 6);fill-opacity:1.0;fill-rule:evenodd;stroke:rgb(0, 0, 0);stroke-width:3.0;" d="M 93.7641, 194.943 L 88.9895, 193.823 L 76.8215, 179.829 L 65.6498, 149.505 z "/>
<path style="fill:rgb(255, 31, 134);fill-opacity:1.0;fill-rule:evenodd;stroke:rgb(0, 0, 0);stroke-width:3.0;" d="M 630.105, 564.784 L 601.462, 572.697 L 685.016, 501.098 L 690.844, 500.945 z "/>
<path style="fill:rgb(255, 86, 9);fill-opacity:1.0;fill-rule:evenodd;stroke:rgb(0, 0, 0);stroke-width:3.0;" d="M 727.775, 536.541 L 718.751, 535.878 L 696.029, 527.627 L 678.919, 519.064 L 689.3, 503.656 z "/>
<path style="fill:rgb(255, 86, 9);fill-opacity:1.0;fill-rule:evenodd;stroke:rgb(0, 0, 0);stroke-width:3.0;" d="M 46.341, 426.998 L 33.8923, 440.277 L 28.7696, 430.506 L 52.0703, 416.794 z "/>
<path style="fill:rgb(255, 86, 9);fill-opacity:1.0;fill-rule:evenodd;stroke:rgb(0, 0, 0);stroke-width:3.0;" d="M 601.462, 572.697 L 557.489, 584.844 L 574.192, 512.625 L 602.171, 503.274 L 685.016, 501.098 z "/>
<path style="fill:rgb(234, 3, 38);fill-opacity:1.0;fill-rule:evenodd;stroke:rgb(0, 0, 0);stroke-width:3.0;" d="M 50.5469, 184.805 L 17.8092, 228.144 L 12.9931, 223.029 L 36.7944, 181.579 z "/>
<path style="fill:rgb(234, 3, 38);fill-opacity:1.0;fill-rule:evenodd;stroke:rgb(0, 0, 0);stroke-width:3.0;" d="M 719.314, 544.017 L 719.442, 544.174 L 675.513, 557.542 L 643.649, 550.548 L 675.216, 517.371 z "/>
<path style="fill:rgb(234, 3, 38);fill-opacity:1.0;fill-rule:evenodd;stroke:rgb(0, 0, 0);stroke-width:3.0;" d="M 127.352, 167.867 L 123.065, 180.855 L 104.994, 162.624 z "/>
<path style="fill:rgb(234, 3, 38);fill-opacity:1.0;fill-rule:evenodd;stroke:rgb(0, 0, 0);stroke-width:3.0;" d="M 784.911, 423.434 L 736.747, 452.586 L 735.621, 422.929 L 782.064, 421.6 z "/>
<path style="fill:rgb(108, 255, 255);fill-opacity:1.0;fill-rule:evenodd;stroke:rgb(0, 0, 0);stroke-width:3.0;" d="M 782.064, 421.6 L 756.404, 422.334 L 747.748, 410.879 L 757.094, 405.511 z "/>
<path style="fill:rgb(108, 255, 255);fill-opacity:1.0;fill-rule:evenodd;stroke:rgb(0, 0, 0);stroke-width:3.0;" d="M 143.368, 399.421 L 48.587, 407.558 L 140.389, 374.43 z "/>
<path style="fill:rgb(108, 255, 255);fill-opacity:1.0;fill-rule:evenodd;stroke:rgb(0, 0, 0);stroke-width:3.0;" d="M 115.746, 129.467 L 107.647, 135.025 L 66.6679, 121.662 z "/>
<path style="fill:rgb(108, 255, 255);fill-opacity:1.0;fill-rule:evenodd;stroke:rgb(0, 0, 0);stroke-width:3.0;" d="M 300.917, 346.177 L 279.259, 328.464 L 278.628, 319.027 L 299.242, 288.202 z "/>
<path style="fill:rgb(108, 255, 255);fill-opacity:1.0;fill-rule:evenodd;stroke:rgb(0, 0, 0);stroke-width:3.0;" d="M 775.336, 577.868 L 775.004, 579.06 L 761.345, 588.066 L 754.205, 586.82 L 750.521, 582.3 L 756.684, 566.598 z "/>
<path style="fill:rgb(30, 13, 255);fill-opacity:1.0;fill-rule:evenodd;stroke:rgb(0, 0, 0);stroke-width:3.0;" d="M 307.221, 405.776 L 317.601, 421.238 L 306.19, 431.524 L 288.047, 408.201 L 293.484, 402.3 L 299.886, 400.292 z "/>
<path style="fill:rgb(30, 13, 255);fill-opacity:1.0;fill-rule:evenodd;stroke:rgb(0, 0, 0);stroke-width:3.0;" d="M 590.451, 415.255 L 440.499, 557.302 L 414.723, 565.915 L 302.434, 398.644 L 295.277, 151.025 z "/>
<path style="fill:rgb(255, 132, 6);fill-opacity:1.0;fill-rule:evenodd;stroke:rgb(0, 0, 0);stroke-width:3.0;" d="M 291.082, 20.042 L 290.127, 32.2269 L 289.536, 32.8959 L 273.735, 25.9702 L 279.725, 15.8242 z "/>
<path style="fill:rgb(212, 4, 55);fill-opacity:1.0;fill-rule:evenodd;stroke:rgb(0, 0, 0);stroke-width:3.0;" d="M 530.599, 206.618 L 530.498, 207.6 L 523.258, 217.855 L 522.759, 218.097 L 504.622, 194.424 z "/>
<path style="fill:rgb(202, 9, 27);fill-opacity:1.0;fill-rule:evenodd;stroke:rgb(0, 0, 0);stroke-width:3.0;" d="M 166.821, 442.031 L 40.0844, 481.784 L 84.1661, 415.048 L 119.584, 401.463 L 199.102, 394.636 z "/>
<path style="fill:rgb(202, 9, 27);fill-opacity:1.0;fill-rule:evenodd;stroke:rgb(0, 0, 0);stroke-width:3.0;" d="M 561.9, 565.77 L 550.637, 567.769 L 550.49, 564.357 L 570.094, 530.34 z "/>
<path style="fill:rgb(202, 9, 27);fill-opacity:1.0;fill-rule:evenodd;stroke:rgb(0, 0, 0);stroke-width:3.0;" d="M 718.679, 509.757 L 728.733, 522.082 L 729.413, 523.269 L 720.979, 522.901 L 710, 510.397 L 711.801, 507.315 z "/>
<path style="fill:rgb(163, 15, 59);fill-opacity:1.0;fill-rule:evenodd;stroke:rgb(0, 0, 0);stroke-width:3.0;" d="M 757.094, 405.511 L 747.748, 410.879 L 734.498, 393.344 L 734.405, 390.891 z "/>
<path style="fill:rgb(170, 154, 16);fill-opacity:1.0;fill-rule:evenodd;stroke:rgb(0, 0, 0);stroke-width:3.0;" d="M 63.2694, 121.122 L 46.4314, 118.444 L 43.4843, 113.681 L 62.6139, 107.817 z "/>
<path style="fill:rgb(170, 154, 16);fill-opacity:1.0;fill-rule:evenodd;stroke:rgb(0, 0, 0);stroke-width:3.0;" d="M 276.061, 282.363 L 276.292, 284.069 L 277.363, 300.106 L 263.486, 306.814 L 225.07, 268.249 L 239.475, 256.337 z "/>
<path style="fill:rgb(170, 154, 16);fill-opacity:1.0;fill-rule:evenodd;stroke:rgb(0, 0, 0);stroke-width:3.0;" d="M 301.185, 457.366 L 301.17, 457.443 L 283.434, 470.275 L 206.013, 456.529 L 197.827, 432.305 L 239.456, 419.247 z "/>
<path style="fill:rgb(170, 154, 16);fill-opacity:1.0;fill-rule:evenodd;stroke:rgb(0, 0, 0);stroke-width:3.0;" d="M 264.964, 81.4038 L 249.311, 100.291 L 254.715, 80.5433 L 262.914, 65.2427 z "/>
<path style="fill:rgb(255, 252, 18);fill-opacity:1.0;fill-rule:evenodd;stroke:rgb(0, 0, 0);stroke-width:3.0;" d="M 30.7995, 454.677 L 18.9886, 475.711 L 17.5636, 473.658 L 23.0147, 451.88 L 25.6384, 449.081 z "/>
<path style="fill:rgb(255, 252, 18);fill-opacity:1.0;fill-rule:evenodd;stroke:rgb(0, 0, 0);stroke-width:3.0;" d="M 161.393, 530.761 L 151.742, 568.726 L 105.837, 559.21 L 108.581, 516.321 L 128.578, 515.263 z "/>
<path style="fill:rgb(255, 252, 18);fill-opacity:1.0;fill-rule:evenodd;stroke:rgb(0, 0, 0);stroke-width:3.0;" d="M 594.035, 220.839 L 575.357, 227.003 L 571.673, 218.867 L 574.919, 215.1 z "/>
<path style="fill:rgb(255, 252, 18);fill-opacity:1.0;fill-rule:evenodd;stroke:rgb(0, 0, 0);stroke-width:3.0;" d="M 168.079, 365.294 L 154.123, 374.434 L 140.749, 377.454 L 138.806, 361.151 z "/>
<path style="fill:rgb(255, 252, 18);fill-opacity:1.0;fill-rule:evenodd;stroke:rgb(0, 0, 0);stroke-width:3.0;" d="M 744.928, 407.148 L 749.842, 419.125 L 735.115, 409.607 L 734.498, 393.344 z "/>
<path style="fill:rgb(255, 252, 18);fill-opacity:1.0;fill-rule:evenodd;stroke:rgb(0, 0, 0);stroke-width:3.0;" d="M 787.71, 536.798 L 787.94, 539.196 L 771.412, 532.303 L 771.222, 531.33 L 773.071, 521.793 z "/>
<path style="fill:rgb(255, 252, 18);fill-opacity:1.0;fill-rule:evenodd;stroke:rgb(0, 0, 0);stroke-width:3.0;" d="M 790.731, 533.466 L 792.198, 540.971 L 791.496, 540.678 L 773.071, 521.793 L 773.188, 521.191 L 779.419, 520.574 z "/>
<path style="fill:rgb(152, 163, 255);fill-opacity:1.0;fill-rule:evenodd;stroke:rgb(0, 0, 0);stroke-width:3.0;" d="M 565.479, 282.048 L 685.053, 475.577 L 665.236, 482.2 L 594.895, 419.233 L 483.594, 229.288 z "/>
<path style="fill:rgb(255, 7, 21);fill-opacity:1.0;fill-rule:evenodd;stroke:rgb(0, 0, 0);stroke-width:3.0;" d="M 300.917, 346.177 L 302.434, 398.644 L 281.906, 368.064 L 279.259, 328.464 z "/>
<path style="fill:rgb(255, 255, 44);fill-opacity:1.0;fill-rule:evenodd;stroke:rgb(0, 0, 0);stroke-width:3.0;" d="M 299.176, 285.907 L 277.564, 303.101 L 275.607, 273.827 L 298.191, 251.831 z "/>
<path style="fill:rgb(215, 74, 21);fill-opacity:1.0;fill-rule:evenodd;stroke:rgb(0, 0, 0);stroke-width:3.0;" d="M 266.15, 208.996 L 269.222, 231.738 L 225.07, 268.249 L 193.881, 236.939 L 158.896, 184.824 L 174.28, 133.145 z "/>
<path style="fill:rgb(215, 74, 21);fill-opacity:1.0;fill-rule:evenodd;stroke:rgb(0, 0, 0);stroke-width:3.0;" d="M 565.303, 538.654 L 550.49, 564.357 L 549.1, 532.218 z "/>
<path style="fill:rgb(215, 74, 21);fill-opacity:1.0;fill-rule:evenodd;stroke:rgb(0, 0, 0);stroke-width:3.0;" d="M 103.042, 407.808 L 84.1661, 415.048 L 87.7831, 409.572 L 93.2727, 403.722 L 103.172, 402.872 z "/>
<path style="fill:rgb(255, 1, 9);fill-opacity:1.0;fill-rule:evenodd;stroke:rgb(0, 0, 0);stroke-width:3.0;" d="M 751.148, 453.49 L 736.961, 458.231 L 736.747, 452.586 L 752.273, 443.189 z "/>
<path style="fill:rgb(228, 47, 123);fill-opacity:1.0;fill-rule:evenodd;stroke:rgb(0, 0, 0);stroke-width:3.0;" d="M 493.589, 190.68 L 477.497, 207.536 L 458.789, 213.305 L 457.357, 212.382 L 457.876, 192.738 L 468.521, 183.154 z "/>
<path style="fill:rgb(246, 168, 14);fill-opacity:1.0;fill-rule:evenodd;stroke:rgb(0, 0, 0);stroke-width:3.0;" d="M 152.85, 487.098 L 115.136, 482.915 L 109.697, 478.646 L 168.048, 457.481 z "/>
<path style="fill:rgb(189, 108, 202);fill-opacity:1.0;fill-rule:evenodd;stroke:rgb(0, 0, 0);stroke-width:3.0;" d="M 654.15, 238.889 L 629.385, 323.225 L 538.735, 264.817 L 594.748, 221.054 z "/>
<path style="fill:rgb(240, 114, 7);fill-opacity:1.0;fill-rule:evenodd;stroke:rgb(0, 0, 0);stroke-width:3.0;" d="M 758.576, 493.349 L 737.279, 524.929 L 705.906, 485.114 L 712.764, 477.906 z "/>
<path style="fill:rgb(255, 49, 11);fill-opacity:1.0;fill-rule:evenodd;stroke:rgb(0, 0, 0);stroke-width:3.0;" d="M 144.67, 163.632 L 154.11, 206.783 L 123.19, 152.712 L 126.56, 136.654 z "/>
<path style="fill:rgb(255, 49, 11);fill-opacity:1.0;fill-rule:evenodd;stroke:rgb(0, 0, 0);stroke-width:3.0;" d="M 264.246, 55.0521 L 265.679, 59.9365 L 243.304, 85.2968 L 240.453, 82.3388 L 260.707, 48.0352 L 261.039, 48.0072 z "/>
<path style="fill:rgb(255, 49, 11);fill-opacity:1.0;fill-rule:evenodd;stroke:rgb(0, 0, 0);stroke-width:3.0;" d="M 570.094, 530.34 L 565.303, 538.654 L 549.1, 532.218 L 548.622, 521.169 L 574.192, 512.625 z "/>
<path style="fill:rgb(255, 49, 11);fill-opacity:1.0;fill-rule:evenodd;stroke:rgb(0, 0, 0);stroke-width:3.0;" d="M 42.6821, 469.727 L 21.5189, 484.052 L 21.5444, 472.704 L 23.3691, 467.91 L 25.2463, 464.567 L 38.6862, 464.529 z "/>
<path style="fill:rgb(255, 49, 11);fill-opacity:1.0;fill-rule:evenodd;stroke:rgb(0, 0, 0);stroke-width:3.0;" d="M 734.405, 390.891 L 736.961, 458.231 L 685.053, 475.577 L 657.013, 430.194 L 717.816, 380.203 z "/>
<path style="fill:rgb(249, 66, 22);fill-opacity:1.0;fill-rule:evenodd;stroke:rgb(0, 0, 0);stroke-width:3.0;" d="M 64.1573, 103.627 L 60.1958, 108.558 L 43.4843, 113.681 L 40.2988, 108.533 L 58.8037, 85.2419 z "/>
<path style="fill:rgb(249, 66, 22);fill-opacity:1.0;fill-rule:evenodd;stroke:rgb(0, 0, 0);stroke-width:3.0;" d="M 268.824, 172.345 L 272.512, 227.517 L 268.913, 224.567 L 267.697, 172.175 z "/>
<path style="fill:rgb(249, 66, 22);fill-opacity:1.0;fill-rule:evenodd;stroke:rgb(0, 0, 0);stroke-width:3.0;" d="M 717.816, 380.203 L 657.013, 430.194 L 565.479, 282.048 z "/>
<path style="fill:rgb(7, 19, 220);fill-opacity:1.0;fill-rule:evenodd;stroke:rgb(0, 0, 0);stroke-width:3.0;" d="M 52.6373, 415.784 L 52.0703, 416.794 L 28.7696, 430.506 L 21.2473, 416.159 L 27.8964, 409.335 L 42.9227, 408.045 z "/>
<path style="fill:rgb(7, 19, 220);fill-opacity:1.0;fill-rule:evenodd;stroke:rgb(0, 0, 0);stroke-width:3.0;" d="M 540.772, 241.607 L 541.342, 244.841 L 518.519, 251.791 L 478.811, 226.206 L 504.592, 194.384 z "/>
<path style="fill:rgb(7, 19, 220);fill-opacity:1.0;fill-rule:evenodd;stroke:rgb(0, 0, 0);stroke-width:3.0;" d="M 63.0101, 408.299 L 60.572, 421.286 L 49.963, 431.111 L 55.1248, 411.354 L 57.5922, 406.96 z "/>
<path style="fill:rgb(7, 19, 220);fill-opacity:1.0;fill-rule:evenodd;stroke:rgb(0, 0, 0);stroke-width:3.0;" d="M 243.315, 97.56 L 238.46, 113.384 L 238, 113.939 L 220.058, 108.552 L 223.987, 94.5956 L 235.447, 88.2666 z "/>
<path style="fill:rgb(255, 243, 85);fill-opacity:1.0;fill-rule:evenodd;stroke:rgb(0, 0, 0);stroke-width:3.0;" d="M 232.322, 84.5753 L 202.746, 103.354 L 180.19, 96.5818 L 226.291, 77.4507 z "/>
<path style="fill:rgb(255, 246, 7);fill-opacity:1.0;fill-rule:evenodd;stroke:rgb(0, 0, 0);stroke-width:3.0;" d="M 137.819, 468.446 L 109.697, 478.646 L 107.396, 476.84 L 123.404, 464.263 z "/>
<path style="fill:rgb(255, 246, 7);fill-opacity:1.0;fill-rule:evenodd;stroke:rgb(0, 0, 0);stroke-width:3.0;" d="M 253.047, 370.613 L 243.755, 376.006 L 236.281, 374.948 L 250.854, 361.092 z "/>
<path style="fill:rgb(255, 27, 255);fill-opacity:1.0;fill-rule:evenodd;stroke:rgb(0, 0, 0);stroke-width:3.0;" d="M 168.048, 457.481 L 137.819, 468.446 L 123.404, 464.263 L 141.657, 449.924 L 177.732, 438.608 z "/>
<path style="fill:rgb(255, 30, 255);fill-opacity:1.0;fill-rule:evenodd;stroke:rgb(0, 0, 0);stroke-width:3.0;" d="M 226.782, 326.101 L 246.944, 364.81 L 236.281, 374.948 L 232.175, 374.367 L 210.251, 310.722 z "/>
<path style="fill:rgb(8, 255, 30);fill-opacity:1.0;fill-rule:evenodd;stroke:rgb(0, 0, 0);stroke-width:3.0;" d="M 254.66, 123.949 L 266.15, 208.996 L 186.875, 143.544 L 254.631, 123.938 z "/>
<path style="fill:rgb(255, 25, 197);fill-opacity:1.0;fill-rule:evenodd;stroke:rgb(0, 0, 0);stroke-width:3.0;" d="M 273.547, 316.915 L 272.663, 326.746 L 255.315, 328.453 L 250.85, 321.802 L 268.277, 311.624 z "/>
<path style="fill:rgb(126, 64, 189);fill-opacity:1.0;fill-rule:evenodd;stroke:rgb(0, 0, 0);stroke-width:3.0;" d="M 726.44, 260.594 L 729.535, 273.669 L 724.079, 278.831 L 712.924, 263.285 L 717.615, 257.944 z "/>
<path style="fill:rgb(255, 189, 11);fill-opacity:1.0;fill-rule:evenodd;stroke:rgb(0, 0, 0);stroke-width:3.0;" d="M 179.133, 214.969 L 214.386, 267.483 L 183.573, 268.524 L 36.2639, 203.713 L 50.5469, 184.805 z "/>
<path style="fill:rgb(255, 56, 25);fill-opacity:1.0;fill-rule:evenodd;stroke:rgb(0, 0, 0);stroke-width:3.0;" d="M 455.532, 563.791 L 448.545, 578.449 L 426.378, 577.305 L 424.67, 576.555 L 436.152, 558.754 L 437.034, 558.459 z "/>
<path style="fill:rgb(237, 255, 33);fill-opacity:1.0;fill-rule:evenodd;stroke:rgb(0, 0, 0);stroke-width:3.0;" d="M 132.554, 169.087 L 155.639, 209.458 L 150.138, 208.167 L 132.606, 190.481 L 128.104, 168.044 z "/>
<path style="fill:rgb(237, 255, 33);fill-opacity:1.0;fill-rule:evenodd;stroke:rgb(0, 0, 0);stroke-width:3.0;" d="M 266.857, 372.533 L 264.792, 376.103 L 253.961, 370.083 L 269.104, 361.295 z "/>
<path style="fill:rgb(237, 255, 33);fill-opacity:1.0;fill-rule:evenodd;stroke:rgb(0, 0, 0);stroke-width:3.0;" d="M 206.667, 307.388 L 209.213, 340.407 L 208.823, 368.567 L 208.754, 368.557 L 201.833, 302.89 z "/>
<path style="fill:rgb(54, 255, 217);fill-opacity:1.0;fill-rule:evenodd;stroke:rgb(0, 0, 0);stroke-width:3.0;" d="M 458.211, 180.058 L 457.357, 212.382 L 428.964, 194.088 L 436.803, 173.63 z "/>
<path style="fill:rgb(72, 255, 124);fill-opacity:1.0;fill-rule:evenodd;stroke:rgb(0, 0, 0);stroke-width:3.0;" d="M 270.999, 351.817 L 269.104, 361.295 L 261.443, 365.741 L 253.352, 358.717 L 261.746, 350.736 L 269.853, 350.11 z "/>
<path style="fill:rgb(255, 255, 65);fill-opacity:1.0;fill-rule:evenodd;stroke:rgb(0, 0, 0);stroke-width:3.0;" d="M 267.565, 166.454 L 268.913, 224.567 L 268.171, 223.959 L 260.305, 165.73 z "/>
<path style="fill:rgb(255, 255, 65);fill-opacity:1.0;fill-rule:evenodd;stroke:rgb(0, 0, 0);stroke-width:3.0;" d="M 241.029, 284.27 L 247.351, 297.096 L 245.578, 298.281 L 241.713, 298.869 L 226.793, 282.965 L 238.127, 281.357 z "/>
<path style="fill:rgb(249, 255, 33);fill-opacity:1.0;fill-rule:evenodd;stroke:rgb(0, 0, 0);stroke-width:3.0;" d="M 210.251, 310.722 L 219.936, 338.836 L 208.982, 337.41 L 206.667, 307.388 z "/>
<path style="fill:rgb(249, 255, 33);fill-opacity:1.0;fill-rule:evenodd;stroke:rgb(0, 0, 0);stroke-width:3.0;" d="M 787.998, 585.519 L 786.442, 584.579 L 756.495, 561.869 L 762.902, 560.085 z "/>
<path style="fill:rgb(255, 44, 13);fill-opacity:1.0;fill-rule:evenodd;stroke:rgb(0, 0, 0);stroke-width:3.0;" d="M 107.258, 135.292 L 71.8792, 159.573 L 55.9574, 133.84 z "/>
<path style="fill:rgb(255, 44, 13);fill-opacity:1.0;fill-rule:evenodd;stroke:rgb(0, 0, 0);stroke-width:3.0;" d="M 247.973, 48.9559 L 230.023, 81.8598 L 216.865, 66.3161 L 217.6, 40.1636 L 249.013, 28.6859 z "/>
<path style="fill:rgb(21, 152, 217);fill-opacity:1.0;fill-rule:evenodd;stroke:rgb(0, 0, 0);stroke-width:3.0;" d="M 216.865, 66.3161 L 200.129, 46.5472 L 217.6, 40.1636 z "/>
<path style="fill:rgb(21, 194, 207);fill-opacity:1.0;fill-rule:evenodd;stroke:rgb(0, 0, 0);stroke-width:3.0;" d="M 171.98, 94.1165 L 254.631, 123.938 L 186.875, 143.544 L 130.614, 97.0933 L 148.636, 87.1077 z "/>
<path style="fill:rgb(15, 228, 255);fill-opacity:1.0;fill-rule:evenodd;stroke:rgb(0, 0, 0);stroke-width:3.0;" d="M 436.803, 173.63 L 431.679, 187.001 L 398.001, 161.98 z "/>
<path style="fill:rgb(15, 228, 255);fill-opacity:1.0;fill-rule:evenodd;stroke:rgb(0, 0, 0);stroke-width:3.0;" d="M 266.951, 345.787 L 257.095, 355.158 L 256.659, 354.858 L 253.464, 331.929 L 254.659, 327.477 z "/>
<path style="fill:rgb(15, 228, 255);fill-opacity:1.0;fill-rule:evenodd;stroke:rgb(0, 0, 0);stroke-width:3.0;" d="M 148.636, 87.1077 L 130.614, 97.0933 L 113.453, 82.9249 L 113.802, 80.4184 L 117.199, 77.6685 z "/>
<path style="fill:rgb(255, 64, 7);fill-opacity:1.0;fill-rule:evenodd;stroke:rgb(0, 0, 0);stroke-width:3.0;" d="M 254.659, 327.477 L 248.771, 349.406 L 233.381, 338.769 L 220.646, 314.32 L 239.949, 305.565 z "/>
<path style="fill:rgb(255, 57, 240);fill-opacity:1.0;fill-rule:evenodd;stroke:rgb(0, 0, 0);stroke-width:3.0;" d="M 370.649, 500.261 L 287.141, 448.693 L 317.601, 421.238 z "/>
<path style="fill:rgb(59, 4, 189);fill-opacity:1.0;fill-rule:evenodd;stroke:rgb(0, 0, 0);stroke-width:3.0;" d="M 531.443, 310.946 L 479.599, 316.023 L 477.587, 314.222 L 510.671, 275.496 z "/>
<path style="fill:rgb(59, 4, 189);fill-opacity:1.0;fill-rule:evenodd;stroke:rgb(0, 0, 0);stroke-width:3.0;" d="M 164.45, 193.097 L 161.277, 203.009 L 148.7, 169.635 z "/>
<path style="fill:rgb(255, 69, 249);fill-opacity:1.0;fill-rule:evenodd;stroke:rgb(0, 0, 0);stroke-width:3.0;" d="M 136.213, 116.431 L 142.606, 160.557 L 87.9921, 79.2016 z "/>
<path style="fill:rgb(62, 249, 16);fill-opacity:1.0;fill-rule:evenodd;stroke:rgb(0, 0, 0);stroke-width:3.0;" d="M 171.211, 143.452 L 158.896, 184.824 L 142.606, 160.557 L 136.213, 116.431 z "/>
<path style="fill:rgb(49, 209, 212);fill-opacity:1.0;fill-rule:evenodd;stroke:rgb(0, 0, 0);stroke-width:3.0;" d="M 706.751, 254.683 L 755.128, 322.099 L 736.533, 369.189 L 634.161, 306.963 L 654.15, 238.889 z "/>
<path style="fill:rgb(49, 209, 212);fill-opacity:1.0;fill-rule:evenodd;stroke:rgb(0, 0, 0);stroke-width:3.0;" d="M 283.434, 470.275 L 224.954, 512.585 L 206.013, 456.529 z "/>
<path style="fill:rgb(49, 209, 212);fill-opacity:1.0;fill-rule:evenodd;stroke:rgb(0, 0, 0);stroke-width:3.0;" d="M 736.533, 369.189 L 729.935, 385.899 L 719.087, 381.022 L 629.385, 323.225 L 634.161, 306.963 z "/>
<path style="fill:rgb(46, 255, 246);fill-opacity:1.0;fill-rule:evenodd;stroke:rgb(0, 0, 0);stroke-width:3.0;" d="M 745.183, 266.222 L 773.371, 289.791 L 744.095, 306.724 L 724.079, 278.831 L 739.279, 264.449 z "/>
<path style="fill:rgb(255, 44, 98);fill-opacity:1.0;fill-rule:evenodd;stroke:rgb(0, 0, 0);stroke-width:3.0;" d="M 101.308, 72.8972 L 174.28, 133.145 L 171.211, 143.452 L 90.5716, 81.1931 L 90.6792, 69.7059 z "/>
<path style="fill:rgb(255, 105, 18);fill-opacity:1.0;fill-rule:evenodd;stroke:rgb(0, 0, 0);stroke-width:3.0;" d="M 271.22, 342.795 L 270.478, 351.042 L 255.315, 328.453 L 270.88, 326.921 z "/>
<path style="fill:rgb(246, 117, 128);fill-opacity:1.0;fill-rule:evenodd;stroke:rgb(0, 0, 0);stroke-width:3.0;" d="M 224.954, 512.585 L 152.73, 564.839 L 185.434, 436.192 L 197.827, 432.305 z "/>
<path style="fill:rgb(246, 117, 128);fill-opacity:1.0;fill-rule:evenodd;stroke:rgb(0, 0, 0);stroke-width:3.0;" d="M 36.7944, 181.579 L 20.4163, 210.102 L 14.6683, 209.845 L 6.22141, 198.754 L 34.1336, 180.955 z "/>
<path style="fill:rgb(246, 117, 128);fill-opacity:1.0;fill-rule:evenodd;stroke:rgb(0, 0, 0);stroke-width:3.0;" d="M 758.987, 492.739 L 758.576, 493.349 L 712.764, 477.906 L 713.113, 477.539 L 739.738, 469.551 z "/>
<path style="fill:rgb(237, 7, 59);fill-opacity:1.0;fill-rule:evenodd;stroke:rgb(0, 0, 0);stroke-width:3.0;" d="M 762.632, 487.334 L 758.987, 492.739 L 739.738, 469.551 L 758.085, 464.047 z "/>
<path style="fill:rgb(22, 223, 255);fill-opacity:1.0;fill-rule:evenodd;stroke:rgb(0, 0, 0);stroke-width:3.0;" d="M 227.976, 373.772 L 141.521, 383.929 L 141.417, 383.059 L 177.401, 369.176 L 184.375, 367.601 z "/>
<path style="fill:rgb(22, 223, 255);fill-opacity:1.0;fill-rule:evenodd;stroke:rgb(0, 0, 0);stroke-width:3.0;" d="M 299.242, 288.202 L 278.628, 319.027 L 277.564, 303.101 L 299.176, 285.907 z "/>
<path style="fill:rgb(22, 223, 255);fill-opacity:1.0;fill-rule:evenodd;stroke:rgb(0, 0, 0);stroke-width:3.0;" d="M 289.267, 520.295 L 235.46, 516.288 L 232.066, 507.439 L 242.019, 500.238 L 293.793, 496.398 z "/>
<path style="fill:rgb(22, 223, 255);fill-opacity:1.0;fill-rule:evenodd;stroke:rgb(0, 0, 0);stroke-width:3.0;" d="M 41.2815, 106.889 L 40.2718, 108.489 L 33.5534, 97.6306 L 14.9539, 25.8444 z "/>
<path style="fill:rgb(22, 223, 255);fill-opacity:1.0;fill-rule:evenodd;stroke:rgb(0, 0, 0);stroke-width:3.0;" d="M 282.205, 60.5999 L 271.571, 73.4305 L 265.829, 59.7665 L 289.059, 33.437 L 294.468, 31.5385 z "/>
<path style="fill:rgb(11, 88, 228);fill-opacity:1.0;fill-rule:evenodd;stroke:rgb(0, 0, 0);stroke-width:3.0;" d="M 66.6679, 121.662 L 107.647, 135.025 L 107.258, 135.292 L 55.9574, 133.84 L 46.4314, 118.444 z "/>
<path style="fill:rgb(237, 35, 64);fill-opacity:1.0;fill-rule:evenodd;stroke:rgb(0, 0, 0);stroke-width:3.0;" d="M 238.672, 114.141 L 228.662, 114.568 L 171.98, 94.1165 z "/>
<path style="fill:rgb(255, 217, 58);fill-opacity:1.0;fill-rule:evenodd;stroke:rgb(0, 0, 0);stroke-width:3.0;" d="M 171.954, 489.217 L 168.057, 488.785 L 165.439, 477.368 L 182.485, 447.795 z "/>
<path style="fill:rgb(255, 217, 58);fill-opacity:1.0;fill-rule:evenodd;stroke:rgb(0, 0, 0);stroke-width:3.0;" d="M 148.718, 509.272 L 154.597, 513.886 L 133.234, 515.016 L 123.127, 510.759 L 127.905, 507.398 z "/>
<path style="fill:rgb(119, 255, 59);fill-opacity:1.0;fill-rule:evenodd;stroke:rgb(0, 0, 0);stroke-width:3.0;" d="M 178.58, 214.145 L 162.35, 205.855 L 161.277, 203.009 L 164.45, 193.097 z "/>
<path style="fill:rgb(255, 10, 39);fill-opacity:1.0;fill-rule:evenodd;stroke:rgb(0, 0, 0);stroke-width:3.0;" d="M 78.4062, 184.13 L 64.5295, 188.085 L 58.6916, 186.716 L 72.9117, 169.216 z "/>
<path style="fill:rgb(175, 255, 39);fill-opacity:1.0;fill-rule:evenodd;stroke:rgb(0, 0, 0);stroke-width:3.0;" d="M 557.489, 584.844 L 551.448, 586.513 L 550.637, 567.769 L 561.9, 565.77 z "/>
<path style="fill:rgb(255, 43, 255);fill-opacity:1.0;fill-rule:evenodd;stroke:rgb(0, 0, 0);stroke-width:3.0;" d="M 31.7559, 442.556 L 17.237, 458.043 L 17.7889, 441.238 L 25.8701, 433.341 z "/>
<path style="fill:rgb(255, 43, 255);fill-opacity:1.0;fill-rule:evenodd;stroke:rgb(0, 0, 0);stroke-width:3.0;" d="M 182.485, 447.795 L 178.271, 455.105 L 172.033, 449.713 L 177.732, 438.608 L 185.434, 436.192 z "/>
<path style="fill:rgb(215, 237, 22);fill-opacity:1.0;fill-rule:evenodd;stroke:rgb(0, 0, 0);stroke-width:3.0;" d="M 664.28, 487.805 L 657.277, 492.172 L 635.339, 502.403 L 631.212, 502.511 L 632.404, 495.767 L 658.757, 485.988 z "/>
<path style="fill:rgb(252, 246, 17);fill-opacity:1.0;fill-rule:evenodd;stroke:rgb(0, 0, 0);stroke-width:3.0;" d="M 675.513, 557.542 L 621.298, 574.04 L 643.649, 550.548 z "/>
<path style="fill:rgb(8, 126, 255);fill-opacity:1.0;fill-rule:evenodd;stroke:rgb(0, 0, 0);stroke-width:3.0;" d="M 293.793, 496.398 L 242.019, 500.238 L 301.17, 457.443 z "/>
<path style="fill:rgb(215, 252, 42);fill-opacity:1.0;fill-rule:evenodd;stroke:rgb(0, 0, 0);stroke-width:3.0;" d="M 211.017, 295.832 L 226.05, 324.694 L 200.993, 294.926 L 200.288, 288.231 z "/>
<path style="fill:rgb(255, 255, 6);fill-opacity:1.0;fill-rule:evenodd;stroke:rgb(0, 0, 0);stroke-width:3.0;" d="M 239.949, 305.565 L 234.462, 308.054 L 216.331, 306.034 L 198.57, 271.933 L 198.159, 268.031 L 214.386, 267.483 z "/>
<path style="fill:rgb(255, 255, 89);fill-opacity:1.0;fill-rule:evenodd;stroke:rgb(0, 0, 0);stroke-width:3.0;" d="M 275.621, 380.516 L 273.795, 388.223 L 239.951, 391.129 L 211.215, 375.742 L 227.976, 373.772 z "/>
<path style="fill:rgb(255, 5, 85);fill-opacity:1.0;fill-rule:evenodd;stroke:rgb(0, 0, 0);stroke-width:3.0;" d="M 276.061, 282.363 L 239.475, 256.337 L 255.641, 242.969 L 269.941, 237.059 z "/>
<path style="fill:rgb(9, 14, 199);fill-opacity:1.0;fill-rule:evenodd;stroke:rgb(0, 0, 0);stroke-width:3.0;" d="M 285.529, 33.0254 L 264.599, 47.7078 L 260.707, 48.0352 L 270.898, 30.7745 z "/>
<path style="fill:rgb(255, 20, 20);fill-opacity:1.0;fill-rule:evenodd;stroke:rgb(0, 0, 0);stroke-width:3.0;" d="M 788.129, 302.13 L 759.282, 314.667 L 751.696, 317.316 L 744.095, 306.724 L 773.371, 289.791 z "/>
<path style="fill:rgb(9, 255, 86);fill-opacity:1.0;fill-rule:evenodd;stroke:rgb(0, 0, 0);stroke-width:3.0;" d="M 306.19, 431.524 L 287.141, 448.693 L 263.938, 434.365 L 288.047, 408.201 z "/>
<path style="fill:rgb(9, 255, 86);fill-opacity:1.0;fill-rule:evenodd;stroke:rgb(0, 0, 0);stroke-width:3.0;" d="M 257.095, 355.158 L 246.944, 364.81 L 236.351, 344.473 L 241.52, 344.395 z "/>
<path style="fill:rgb(9, 255, 86);fill-opacity:1.0;fill-rule:evenodd;stroke:rgb(0, 0, 0);stroke-width:3.0;" d="M 275.888, 22.324 L 271.336, 30.0332 L 261.448, 22.7582 L 260.097, 19.3987 L 270.824, 14.4946 z "/>
<path style="fill:rgb(10, 97, 255);fill-opacity:1.0;fill-rule:evenodd;stroke:rgb(0, 0, 0);stroke-width:3.0;" d="M 567.892, 240.706 L 554.911, 247.648 L 541.258, 244.37 L 540.557, 240.392 z "/>
<path style="fill:rgb(95, 54, 255);fill-opacity:1.0;fill-rule:evenodd;stroke:rgb(0, 0, 0);stroke-width:3.0;" d="M 594.895, 419.233 L 479.599, 316.023 L 531.443, 310.946 z "/>
<path style="fill:rgb(255, 112, 28);fill-opacity:1.0;fill-rule:evenodd;stroke:rgb(0, 0, 0);stroke-width:3.0;" d="M 354.77, 490.455 L 298.223, 541.121 L 323.513, 471.154 z "/>
<path style="fill:rgb(240, 255, 10);fill-opacity:1.0;fill-rule:evenodd;stroke:rgb(0, 0, 0);stroke-width:3.0;" d="M 323.513, 471.154 L 298.223, 541.121 L 282.686, 555.043 L 301.185, 457.366 z "/>
<path style="fill:rgb(246, 187, 249);fill-opacity:1.0;fill-rule:evenodd;stroke:rgb(0, 0, 0);stroke-width:3.0;" d="M 296.011, 401.508 L 166.821, 442.031 L 199.102, 394.636 L 256.388, 389.718 z "/>
<path style="fill:rgb(9, 0, 168);fill-opacity:1.0;fill-rule:evenodd;stroke:rgb(0, 0, 0);stroke-width:3.0;" d="M 302.905, 399.345 L 296.011, 401.508 L 256.388, 389.718 L 294.259, 386.467 z "/>
<path style="fill:rgb(255, 177, 8);fill-opacity:1.0;fill-rule:evenodd;stroke:rgb(0, 0, 0);stroke-width:3.0;" d="M 219.936, 338.836 L 232.175, 374.367 L 211.608, 371.456 L 208.982, 337.41 z "/>
<path style="fill:rgb(88, 115, 246);fill-opacity:1.0;fill-rule:evenodd;stroke:rgb(0, 0, 0);stroke-width:3.0;" d="M 155.454, 520.891 L 153.875, 527.211 L 128.578, 515.263 L 140.176, 514.649 z "/>
<path style="fill:rgb(252, 255, 33);fill-opacity:1.0;fill-rule:evenodd;stroke:rgb(0, 0, 0);stroke-width:3.0;" d="M 362.665, 151.37 L 462.902, 215.955 L 466.578, 304.368 L 295.277, 151.025 L 294.697, 130.963 z "/>
<path style="fill:rgb(60, 255, 255);fill-opacity:1.0;fill-rule:evenodd;stroke:rgb(0, 0, 0);stroke-width:3.0;" d="M 101.443, 472.168 L 137.621, 500.563 L 115.761, 515.941 L 37.8708, 520.062 L 58.9683, 475.861 L 79.7641, 469.338 z "/>
</svg>