<?xml version="1.0" encoding="iso-8859-1" standalone="no"?>
<!DOCTYPE svg PUBLIC "-//W3C//DTD SVG 1.0//EN" "http://www.w3.org/TR/2001/REC-SVG-20010904/DTD/svg10.dtd">
<svg xmlns="http://www.w3.org/2000/svg" width="800" height="600">
<path style="fill:rgb(0, 0, 0);fill-opacity:0.0;fill-rule:evenodd;stroke:rgb(0, 0, 0);stroke-width:0.0;" d="M 0, 600 L 800, 600 L 800, 0 L 0, 0 z "/>
<path style="fill:rgb(252, 246, 82);fill-opacity:1.0;fill-rule:evenodd;stroke:rgb(0, 0, 0);stroke-width:3.0;" d="M 713.405, 275.948 L 710.002, 297.75 L 699.402, 290.504 L 712.732, 274.655 z "/>
<path style="fill:rgb(252, 246, 82);fill-opacity:1.0;fill-rule:evenodd;stroke:rgb(0, 0, 0);stroke-width:3.0;" d="M 189.79, 212.662 L 166.744, 217.69 L 146.227, 214.14 L 196.451, 205.917 z "/>
<path style="fill:rgb(255, 152, 13);fill-opacity:1.0;fill-rule:evenodd;stroke:rgb(0, 0, 0);stroke-width:3.0;" d="M 617.641, 102.293 L 478.068, 80.3016 L 453.32, 58.1747 L 459.514, 52.1948 z "/>
<path style="fill:rgb(255, 152, 13);fill-opacity:1.0;fill-rule:evenodd;stroke:rgb(0, 0, 0);stroke-width:3.0;" d="M 725.7, 136.529 L 718.09, 148.862 L 716.302, 148.519 L 702.26, 129.103 z "/>
<path style="fill:rgb(255, 152, 13);fill-opacity:1.0;fill-rule:evenodd;stroke:rgb(0, 0, 0);stroke-width:3.0;" d="M 451.644, 33.5764 L 434.821, 44.3712 L 419.345, 39.4681 L 428.124, 24.725 L 435.605, 24.0693 z "/>
<path style="fill:rgb(255, 152, 13);fill-opacity:1.0;fill-rule:evenodd;stroke:rgb(0, 0, 0);stroke-width:3.0;" d="M 221.352, 227.137 L 211.571, 229.11 L 90.199, 225.036 L 84.1216, 224.309 L 146.227, 214.14 z "/>
<path style="fill:rgb(249, 24, 255);fill-opacity:1.0;fill-rule:evenodd;stroke:rgb(0, 0, 0);stroke-width:3.0;" d="M 674.664, 294.887 L 707.671, 332.493 L 692.228, 395.585 L 666.031, 374.314 L 646.118, 291.476 z "/>
<path style="fill:rgb(255, 204, 30);fill-opacity:1.0;fill-rule:evenodd;stroke:rgb(0, 0, 0);stroke-width:3.0;" d="M 792.921, 491.132 L 790.5, 499.987 L 777.238, 476.179 L 778.834, 473.827 z "/>
<path style="fill:rgb(255, 204, 30);fill-opacity:1.0;fill-rule:evenodd;stroke:rgb(0, 0, 0);stroke-width:3.0;" d="M 790.791, 321.248 L 751.836, 365.737 L 706.45, 337.483 L 707.172, 334.534 L 782.942, 311.314 z "/>
<path style="fill:rgb(255, 249, 103);fill-opacity:1.0;fill-rule:evenodd;stroke:rgb(0, 0, 0);stroke-width:3.0;" d="M 345.488, 225.869 L 325.653, 230.988 L 321.78, 218.826 L 347.156, 209.644 z "/>
<path style="fill:rgb(255, 234, 22);fill-opacity:1.0;fill-rule:evenodd;stroke:rgb(0, 0, 0);stroke-width:3.0;" d="M 766.344, 460.386 L 742.33, 490.338 L 715.238, 512.632 L 680.632, 447.056 L 683.831, 443.404 z "/>
<path style="fill:rgb(255, 86, 37);fill-opacity:1.0;fill-rule:evenodd;stroke:rgb(0, 0, 0);stroke-width:3.0;" d="M 738.824, 294.021 L 736.253, 310.597 L 730.335, 314.043 L 718.524, 288.157 L 722.091, 273.585 z "/>
<path style="fill:rgb(255, 86, 37);fill-opacity:1.0;fill-rule:evenodd;stroke:rgb(0, 0, 0);stroke-width:3.0;" d="M 715.238, 512.632 L 700.306, 524.92 L 692.266, 497.127 L 705.753, 494.658 z "/>
<path style="fill:rgb(231, 199, 14);fill-opacity:1.0;fill-rule:evenodd;stroke:rgb(0, 0, 0);stroke-width:3.0;" d="M 379.291, 232.671 L 375.315, 234.168 L 362.804, 225.712 L 368.386, 216.738 z "/>
<path style="fill:rgb(255, 204, 78);fill-opacity:1.0;fill-rule:evenodd;stroke:rgb(0, 0, 0);stroke-width:3.0;" d="M 358.305, 183.64 L 360.377, 226.515 L 359.929, 226.774 L 349.106, 190.678 L 349.87, 183.249 z "/>
<path style="fill:rgb(255, 204, 78);fill-opacity:1.0;fill-rule:evenodd;stroke:rgb(0, 0, 0);stroke-width:3.0;" d="M 781.225, 102.859 L 761.41, 112.953 L 765.292, 97.0951 L 781.151, 90.8495 z "/>
<path style="fill:rgb(255, 204, 78);fill-opacity:1.0;fill-rule:evenodd;stroke:rgb(0, 0, 0);stroke-width:3.0;" d="M 769.222, 252.099 L 730.303, 244.687 L 729.434, 243.587 L 740.453, 198.57 L 754.728, 193.252 z "/>
<path style="fill:rgb(43, 184, 194);fill-opacity:1.0;fill-rule:evenodd;stroke:rgb(0, 0, 0);stroke-width:3.0;" d="M 786.074, 189.66 L 779.238, 229.815 L 774.074, 226.057 L 782.426, 179.854 z "/>
<path style="fill:rgb(43, 184, 194);fill-opacity:1.0;fill-rule:evenodd;stroke:rgb(0, 0, 0);stroke-width:3.0;" d="M 769.362, 252.126 L 769.222, 252.099 L 754.728, 193.252 L 781.829, 183.157 z "/>
<path style="fill:rgb(177, 36, 231);fill-opacity:1.0;fill-rule:evenodd;stroke:rgb(0, 0, 0);stroke-width:3.0;" d="M 676.594, 544.432 L 662.791, 555.791 L 655.826, 547.078 L 670.831, 533.789 z "/>
<path style="fill:rgb(177, 36, 231);fill-opacity:1.0;fill-rule:evenodd;stroke:rgb(0, 0, 0);stroke-width:3.0;" d="M 347.983, 201.596 L 288.331, 213.627 L 276.749, 192.769 L 350.126, 180.755 z "/>
<path style="fill:rgb(215, 182, 252);fill-opacity:1.0;fill-rule:evenodd;stroke:rgb(0, 0, 0);stroke-width:3.0;" d="M 324.36, 253.021 L 311.469, 251.48 L 313.332, 228.789 z "/>
<path style="fill:rgb(215, 182, 252);fill-opacity:1.0;fill-rule:evenodd;stroke:rgb(0, 0, 0);stroke-width:3.0;" d="M 140.659, 16.8033 L 109.502, 22.2283 L 70.1002, 16.02 L 140.707, 10.8418 z "/>
<path style="fill:rgb(246, 16, 61);fill-opacity:1.0;fill-rule:evenodd;stroke:rgb(0, 0, 0);stroke-width:3.0;" d="M 751.836, 365.737 L 733.54, 386.632 L 695.004, 384.243 L 699.992, 363.868 L 707.601, 362.055 L 736.882, 356.428 z "/>
<path style="fill:rgb(246, 16, 61);fill-opacity:1.0;fill-rule:evenodd;stroke:rgb(0, 0, 0);stroke-width:3.0;" d="M 414.169, 20.3237 L 386.821, 28.3454 L 384.995, 28.5054 L 379.337, 20.7037 L 402.426, 9.76167 z "/>
<path style="fill:rgb(246, 16, 61);fill-opacity:1.0;fill-rule:evenodd;stroke:rgb(0, 0, 0);stroke-width:3.0;" d="M 587.749, 284.5 L 595.589, 295.751 L 590.305, 302.715 L 573.474, 298.338 L 571.159, 282.517 z "/>
<path style="fill:rgb(246, 16, 61);fill-opacity:1.0;fill-rule:evenodd;stroke:rgb(0, 0, 0);stroke-width:3.0;" d="M 791.195, 531.645 L 779.802, 557.683 L 772.125, 554.48 L 788.55, 528.657 z "/>
<path style="fill:rgb(103, 240, 255);fill-opacity:1.0;fill-rule:evenodd;stroke:rgb(0, 0, 0);stroke-width:3.0;" d="M 762.835, 73.408 L 724.107, 78.4774 L 703.376, 35.985 z "/>
<path style="fill:rgb(44, 255, 175);fill-opacity:1.0;fill-rule:evenodd;stroke:rgb(0, 0, 0);stroke-width:3.0;" d="M 84.9606, 577.761 L 78.2277, 589.858 L 75.0247, 591.353 L 71.9325, 582.233 L 75.1732, 577.771 L 84.8103, 577.663 z "/>
<path style="fill:rgb(44, 255, 175);fill-opacity:1.0;fill-rule:evenodd;stroke:rgb(0, 0, 0);stroke-width:3.0;" d="M 287.859, 231.1 L 283.123, 232.813 L 275.336, 220.655 L 274.584, 216.4 L 289.91, 213.309 z "/>
<path style="fill:rgb(246, 5, 54);fill-opacity:1.0;fill-rule:evenodd;stroke:rgb(0, 0, 0);stroke-width:3.0;" d="M 211.571, 229.11 L 179.097, 235.66 L 178.801, 235.625 L 179.357, 228.119 L 181.57, 228.103 z "/>
<path style="fill:rgb(56, 39, 255);fill-opacity:1.0;fill-rule:evenodd;stroke:rgb(0, 0, 0);stroke-width:3.0;" d="M 178.801, 235.625 L 152.562, 232.489 L 155.864, 228.291 L 179.357, 228.119 z "/>
<path style="fill:rgb(22, 8, 170);fill-opacity:1.0;fill-rule:evenodd;stroke:rgb(0, 0, 0);stroke-width:3.0;" d="M 287.404, 234.045 L 302.974, 247.489 L 305.286, 250.742 L 269.95, 246.518 L 268.772, 246.187 L 273.865, 236.163 L 283.616, 232.635 z "/>
<path style="fill:rgb(22, 8, 170);fill-opacity:1.0;fill-rule:evenodd;stroke:rgb(0, 0, 0);stroke-width:3.0;" d="M 773.356, 252.886 L 773.316, 253.081 L 768.282, 262.822 L 760.133, 259.045 L 758.661, 256.685 L 762.706, 250.858 z "/>
<path style="fill:rgb(89, 255, 255);fill-opacity:1.0;fill-rule:evenodd;stroke:rgb(0, 0, 0);stroke-width:3.0;" d="M 777.979, 477.51 L 787.862, 509.638 L 786.7, 513.889 L 762.116, 498.466 L 777.238, 476.179 z "/>
<path style="fill:rgb(126, 48, 212);fill-opacity:1.0;fill-rule:evenodd;stroke:rgb(0, 0, 0);stroke-width:3.0;" d="M 647.539, 230.16 L 587.781, 284.504 L 504.897, 274.598 L 437.087, 173.094 L 550.595, 152.974 z "/>
<path style="fill:rgb(126, 48, 212);fill-opacity:1.0;fill-rule:evenodd;stroke:rgb(0, 0, 0);stroke-width:3.0;" d="M 646.118, 291.476 L 652.691, 318.819 L 629.779, 322.441 L 619.583, 303.997 L 633.727, 289.995 z "/>
<path style="fill:rgb(126, 48, 212);fill-opacity:1.0;fill-rule:evenodd;stroke:rgb(0, 0, 0);stroke-width:3.0;" d="M 729.628, 351.912 L 724.59, 358.79 L 707.719, 362.033 L 701.761, 356.641 L 703.716, 348.651 L 723.677, 348.207 z "/>
<path style="fill:rgb(126, 48, 212);fill-opacity:1.0;fill-rule:evenodd;stroke:rgb(0, 0, 0);stroke-width:3.0;" d="M 504.897, 274.598 L 375.548, 259.139 L 398.007, 172.915 L 433.126, 167.165 z "/>
<path style="fill:rgb(29, 91, 246);fill-opacity:1.0;fill-rule:evenodd;stroke:rgb(0, 0, 0);stroke-width:3.0;" d="M 701.303, 528.871 L 702.823, 539.578 L 701.546, 540.944 L 689.029, 539.751 L 694.129, 530.003 L 699.331, 525.722 z "/>
<path style="fill:rgb(95, 234, 189);fill-opacity:1.0;fill-rule:evenodd;stroke:rgb(0, 0, 0);stroke-width:3.0;" d="M 244.277, 204.81 L 257.43, 216.793 L 255.071, 220.336 L 252.432, 220.868 L 227.216, 205.196 L 227.501, 203.982 z "/>
<path style="fill:rgb(246, 23, 252);fill-opacity:1.0;fill-rule:evenodd;stroke:rgb(0, 0, 0);stroke-width:3.0;" d="M 638.994, 575.936 L 617.15, 594.005 L 581.855, 572.095 L 640.898, 571.433 z "/>
<path style="fill:rgb(237, 26, 7);fill-opacity:1.0;fill-rule:evenodd;stroke:rgb(0, 0, 0);stroke-width:3.0;" d="M 389.164, 201.576 L 375.841, 220.942 L 368.886, 215.935 L 387.509, 185.994 z "/>
<path style="fill:rgb(237, 26, 7);fill-opacity:1.0;fill-rule:evenodd;stroke:rgb(0, 0, 0);stroke-width:3.0;" d="M 720.282, 554.451 L 708.521, 569.405 L 687.193, 559.109 L 705.109, 536.762 z "/>
<path style="fill:rgb(237, 26, 7);fill-opacity:1.0;fill-rule:evenodd;stroke:rgb(0, 0, 0);stroke-width:3.0;" d="M 784.169, 447.838 L 768.519, 467.964 L 767.957, 467.599 L 775.768, 448.632 L 780.25, 443.041 z "/>
<path style="fill:rgb(237, 26, 7);fill-opacity:1.0;fill-rule:evenodd;stroke:rgb(0, 0, 0);stroke-width:3.0;" d="M 718.92, 286.54 L 715.677, 299.789 L 709.794, 299.086 L 713.405, 275.948 z "/>
<path style="fill:rgb(237, 26, 7);fill-opacity:1.0;fill-rule:evenodd;stroke:rgb(0, 0, 0);stroke-width:3.0;" d="M 682.915, 270.218 L 648.516, 291.762 L 587.781, 284.504 L 634.819, 241.727 z "/>
<path style="fill:rgb(165, 255, 255);fill-opacity:1.0;fill-rule:evenodd;stroke:rgb(0, 0, 0);stroke-width:3.0;" d="M 703.127, 257.56 L 682.915, 270.218 L 634.819, 241.727 L 639.809, 237.189 z "/>
<path style="fill:rgb(255, 27, 91);fill-opacity:1.0;fill-rule:evenodd;stroke:rgb(0, 0, 0);stroke-width:3.0;" d="M 769.988, 77.9102 L 738.154, 57.874 L 787.375, 6.88137 z "/>
<path style="fill:rgb(255, 27, 91);fill-opacity:1.0;fill-rule:evenodd;stroke:rgb(0, 0, 0);stroke-width:3.0;" d="M 778.983, 312.527 L 759.997, 318.345 L 765.095, 293.302 z "/>
<path style="fill:rgb(255, 27, 91);fill-opacity:1.0;fill-rule:evenodd;stroke:rgb(0, 0, 0);stroke-width:3.0;" d="M 765.095, 293.302 L 759.997, 318.345 L 750.096, 321.38 L 734.37, 322.736 L 743.56, 263.492 z "/>
<path style="fill:rgb(255, 27, 91);fill-opacity:1.0;fill-rule:evenodd;stroke:rgb(0, 0, 0);stroke-width:3.0;" d="M 680.943, 496.711 L 680.529, 499.275 L 666.205, 501.897 L 670.929, 482.596 z "/>
<path style="fill:rgb(255, 27, 91);fill-opacity:1.0;fill-rule:evenodd;stroke:rgb(0, 0, 0);stroke-width:3.0;" d="M 65.6856, 586.198 L 36.827, 586.101 L 32.0103, 578.254 L 73.8089, 577.786 z "/>
<path style="fill:rgb(255, 27, 91);fill-opacity:1.0;fill-rule:evenodd;stroke:rgb(0, 0, 0);stroke-width:3.0;" d="M 753.485, 145.332 L 747.138, 171.26 L 729.224, 155.876 L 744.091, 142.356 z "/>
<path style="fill:rgb(255, 27, 91);fill-opacity:1.0;fill-rule:evenodd;stroke:rgb(0, 0, 0);stroke-width:3.0;" d="M 722.119, 273.469 L 725.096, 261.309 L 742.193, 260.259 z "/>
<path style="fill:rgb(255, 27, 91);fill-opacity:1.0;fill-rule:evenodd;stroke:rgb(0, 0, 0);stroke-width:3.0;" d="M 464.946, 25.0413 L 451.644, 33.5764 L 439.447, 26.3466 L 461.807, 24.2526 z "/>
<path style="fill:rgb(255, 237, 44);fill-opacity:1.0;fill-rule:evenodd;stroke:rgb(0, 0, 0);stroke-width:3.0;" d="M 665.936, 580.088 L 662.03, 590.493 L 658.961, 594.321 L 653.453, 590.876 L 661.929, 572.357 z "/>
<path style="fill:rgb(172, 255, 82);fill-opacity:1.0;fill-rule:evenodd;stroke:rgb(0, 0, 0);stroke-width:3.0;" d="M 439.56, 45.8728 L 463.909, 67.6419 L 429.435, 72.6387 L 416.174, 70.5491 L 398.936, 33.0018 z "/>
<path style="fill:rgb(172, 255, 82);fill-opacity:1.0;fill-rule:evenodd;stroke:rgb(0, 0, 0);stroke-width:3.0;" d="M 786.7, 513.889 L 784.151, 523.212 L 783.791, 523.281 L 761.99, 498.652 L 762.116, 498.466 z "/>
<path style="fill:rgb(16, 18, 255);fill-opacity:1.0;fill-rule:evenodd;stroke:rgb(0, 0, 0);stroke-width:3.0;" d="M 316.754, 216.859 L 291.463, 212.996 L 315.555, 208.136 z "/>
<path style="fill:rgb(16, 18, 255);fill-opacity:1.0;fill-rule:evenodd;stroke:rgb(0, 0, 0);stroke-width:3.0;" d="M 634.983, 177.991 L 601.826, 193.763 L 550.595, 152.974 L 558.55, 151.563 z "/>
<path style="fill:rgb(16, 18, 255);fill-opacity:1.0;fill-rule:evenodd;stroke:rgb(0, 0, 0);stroke-width:3.0;" d="M 747.138, 171.26 L 736.572, 214.426 L 650.44, 240.609 L 639.809, 237.189 L 729.224, 155.876 z "/>
<path style="fill:rgb(16, 18, 255);fill-opacity:1.0;fill-rule:evenodd;stroke:rgb(0, 0, 0);stroke-width:3.0;" d="M 694.964, 297.314 L 700.513, 310.146 L 689.077, 311.309 L 688.823, 311.019 L 690.325, 301.623 L 693.927, 297.19 z "/>
<path style="fill:rgb(234, 255, 10);fill-opacity:1.0;fill-rule:evenodd;stroke:rgb(0, 0, 0);stroke-width:3.0;" d="M 781.125, 86.6319 L 781.151, 90.8495 L 765.292, 97.0951 L 768.512, 83.9419 z "/>
<path style="fill:rgb(234, 255, 10);fill-opacity:1.0;fill-rule:evenodd;stroke:rgb(0, 0, 0);stroke-width:3.0;" d="M 527.556, 576.274 L 512.084, 589.054 L 492.312, 574.683 z "/>
<path style="fill:rgb(234, 255, 10);fill-opacity:1.0;fill-rule:evenodd;stroke:rgb(0, 0, 0);stroke-width:3.0;" d="M 718.501, 385.7 L 731.259, 389.237 L 679.239, 448.648 L 695.004, 384.243 z "/>
<path style="fill:rgb(255, 142, 209);fill-opacity:1.0;fill-rule:evenodd;stroke:rgb(0, 0, 0);stroke-width:3.0;" d="M 384.444, 190.921 L 383.083, 193.109 L 363.985, 178.486 L 377.768, 176.229 z "/>
<path style="fill:rgb(255, 243, 25);fill-opacity:1.0;fill-rule:evenodd;stroke:rgb(0, 0, 0);stroke-width:3.0;" d="M 769.988, 77.9102 L 767.835, 86.7061 L 745.072, 97.9371 L 732.533, 95.7477 L 725.719, 81.7816 L 738.79, 76.5554 L 762.835, 73.408 z "/>
<path style="fill:rgb(255, 197, 61);fill-opacity:1.0;fill-rule:evenodd;stroke:rgb(0, 0, 0);stroke-width:3.0;" d="M 728.261, 309.499 L 714.75, 332.212 L 711.485, 333.212 L 707.908, 331.526 L 718.524, 288.157 z "/>
<path style="fill:rgb(255, 197, 61);fill-opacity:1.0;fill-rule:evenodd;stroke:rgb(0, 0, 0);stroke-width:3.0;" d="M 202.479, 581.696 L 180.028, 583.537 L 181.858, 576.575 L 206.674, 576.297 z "/>
<path style="fill:rgb(255, 197, 61);fill-opacity:1.0;fill-rule:evenodd;stroke:rgb(0, 0, 0);stroke-width:3.0;" d="M 707.879, 280.425 L 693.792, 297.174 L 661.841, 293.355 L 675.266, 284.955 L 704.073, 276.069 z "/>
<path style="fill:rgb(255, 197, 61);fill-opacity:1.0;fill-rule:evenodd;stroke:rgb(0, 0, 0);stroke-width:3.0;" d="M 624.593, 316.723 L 590.967, 313.364 L 584.939, 308.469 L 612.881, 289.378 z "/>
<path style="fill:rgb(255, 16, 11);fill-opacity:1.0;fill-rule:evenodd;stroke:rgb(0, 0, 0);stroke-width:3.0;" d="M 571.159, 282.517 L 573.61, 299.27 L 549.841, 279.969 z "/>
<path style="fill:rgb(252, 61, 6);fill-opacity:1.0;fill-rule:evenodd;stroke:rgb(0, 0, 0);stroke-width:3.0;" d="M 750.653, 111.635 L 742.379, 115.93 L 735.827, 102.499 L 740.167, 100.358 z "/>
<path style="fill:rgb(252, 61, 6);fill-opacity:1.0;fill-rule:evenodd;stroke:rgb(0, 0, 0);stroke-width:3.0;" d="M 478.068, 80.3016 L 447.865, 75.5426 L 451.362, 69.4604 L 463.909, 67.6419 z "/>
<path style="fill:rgb(252, 61, 6);fill-opacity:1.0;fill-rule:evenodd;stroke:rgb(0, 0, 0);stroke-width:3.0;" d="M 781.528, 134.551 L 790.759, 148.52 L 791.673, 160.973 L 772.281, 135.233 L 773.551, 131.393 z "/>
<path style="fill:rgb(252, 61, 6);fill-opacity:1.0;fill-rule:evenodd;stroke:rgb(0, 0, 0);stroke-width:3.0;" d="M 558.55, 151.563 L 437.087, 173.094 L 433.126, 167.165 L 548.863, 148.214 z "/>
<path style="fill:rgb(246, 217, 75);fill-opacity:1.0;fill-rule:evenodd;stroke:rgb(0, 0, 0);stroke-width:3.0;" d="M 781.076, 78.6983 L 769.647, 79.3017 L 772.274, 68.5717 L 780.91, 51.7538 z "/>
<path style="fill:rgb(246, 217, 75);fill-opacity:1.0;fill-rule:evenodd;stroke:rgb(0, 0, 0);stroke-width:3.0;" d="M 749.82, 572.375 L 748.784, 573.444 L 695.708, 589.972 L 723.39, 558.963 z "/>
<path style="fill:rgb(246, 217, 75);fill-opacity:1.0;fill-rule:evenodd;stroke:rgb(0, 0, 0);stroke-width:3.0;" d="M 776.289, 163.364 L 755.928, 177.017 L 750.577, 175.568 L 772.321, 152.702 z "/>
<path style="fill:rgb(76, 1, 255);fill-opacity:1.0;fill-rule:evenodd;stroke:rgb(0, 0, 0);stroke-width:3.0;" d="M 744.091, 142.356 L 727.253, 157.669 L 722.09, 154.524 L 728.672, 143.948 L 733.683, 139.059 z "/>
<path style="fill:rgb(209, 255, 33);fill-opacity:1.0;fill-rule:evenodd;stroke:rgb(0, 0, 0);stroke-width:3.0;" d="M 734.041, 224.764 L 711.537, 222.036 L 736.572, 214.426 z "/>
<path style="fill:rgb(209, 255, 33);fill-opacity:1.0;fill-rule:evenodd;stroke:rgb(0, 0, 0);stroke-width:3.0;" d="M 611.497, 315.415 L 608.805, 323.499 L 603.087, 323.205 L 590.967, 313.364 z "/>
<path style="fill:rgb(43, 154, 234);fill-opacity:1.0;fill-rule:evenodd;stroke:rgb(0, 0, 0);stroke-width:3.0;" d="M 160.622, 30.2831 L 109.502, 22.2283 L 155.665, 14.1907 z "/>
<path style="fill:rgb(255, 23, 50);fill-opacity:1.0;fill-rule:evenodd;stroke:rgb(0, 0, 0);stroke-width:3.0;" d="M 627.915, 324.48 L 637.292, 346.374 L 616.346, 333.971 L 603.087, 323.205 z "/>
<path style="fill:rgb(255, 41, 16);fill-opacity:1.0;fill-rule:evenodd;stroke:rgb(0, 0, 0);stroke-width:3.0;" d="M 237.085, 238.052 L 256.118, 242.554 L 255.727, 244.819 L 188.772, 236.817 z "/>
<path style="fill:rgb(255, 255, 44);fill-opacity:1.0;fill-rule:evenodd;stroke:rgb(0, 0, 0);stroke-width:3.0;" d="M 312.954, 233.396 L 311.469, 251.48 L 305.286, 250.742 L 290.615, 230.103 L 303.611, 225.4 z "/>
<path style="fill:rgb(255, 44, 44);fill-opacity:1.0;fill-rule:evenodd;stroke:rgb(0, 0, 0);stroke-width:3.0;" d="M 314.119, 43.7138 L 309.914, 53.8062 L 299.513, 52.1674 L 307.648, 36.8278 z "/>
<path style="fill:rgb(255, 44, 44);fill-opacity:1.0;fill-rule:evenodd;stroke:rgb(0, 0, 0);stroke-width:3.0;" d="M 237.085, 238.052 L 188.772, 236.817 L 187.877, 236.71 L 188.167, 233.831 L 204.94, 230.448 z "/>
<path style="fill:rgb(255, 44, 44);fill-opacity:1.0;fill-rule:evenodd;stroke:rgb(0, 0, 0);stroke-width:3.0;" d="M 224.152, 585.759 L 202.309, 586.747 L 207.617, 576.287 L 216.061, 576.192 z "/>
<path style="fill:rgb(255, 255, 67);fill-opacity:1.0;fill-rule:evenodd;stroke:rgb(0, 0, 0);stroke-width:3.0;" d="M 359.929, 226.774 L 344.479, 235.678 L 349.106, 190.678 z "/>
<path style="fill:rgb(231, 148, 11);fill-opacity:1.0;fill-rule:evenodd;stroke:rgb(0, 0, 0);stroke-width:3.0;" d="M 742.099, 538.006 L 712.398, 571.277 L 708.521, 569.405 L 733.299, 537.9 z "/>
<path style="fill:rgb(231, 148, 11);fill-opacity:1.0;fill-rule:evenodd;stroke:rgb(0, 0, 0);stroke-width:3.0;" d="M 699.745, 182.685 L 685.644, 195.507 L 548.863, 148.214 L 638.322, 133.566 z "/>
<path style="fill:rgb(231, 255, 9);fill-opacity:1.0;fill-rule:evenodd;stroke:rgb(0, 0, 0);stroke-width:3.0;" d="M 717.535, 166.506 L 699.745, 182.685 L 638.322, 133.566 L 663.305, 129.476 z "/>
<path style="fill:rgb(58, 60, 255);fill-opacity:1.0;fill-rule:evenodd;stroke:rgb(0, 0, 0);stroke-width:3.0;" d="M 347.495, 206.341 L 323.093, 210.164 L 319.838, 208.589 L 324.748, 206.282 L 347.983, 201.596 z "/>
<path style="fill:rgb(255, 187, 18);fill-opacity:1.0;fill-rule:evenodd;stroke:rgb(0, 0, 0);stroke-width:3.0;" d="M 417.897, 25.6214 L 386.821, 28.3454 L 424.022, 17.4335 z "/>
<path style="fill:rgb(209, 204, 15);fill-opacity:1.0;fill-rule:evenodd;stroke:rgb(0, 0, 0);stroke-width:3.0;" d="M 762.809, 127.142 L 770.886, 148.846 L 755.04, 164.728 L 751.94, 151.644 L 758.368, 125.384 z "/>
<path style="fill:rgb(13, 255, 255);fill-opacity:1.0;fill-rule:evenodd;stroke:rgb(0, 0, 0);stroke-width:3.0;" d="M 381.301, 237.051 L 367.13, 249.891 L 363.226, 238.722 L 382.785, 231.354 z "/>
<path style="fill:rgb(13, 223, 243);fill-opacity:1.0;fill-rule:evenodd;stroke:rgb(0, 0, 0);stroke-width:3.0;" d="M 400.189, 592.747 L 378.978, 592.747 L 399.674, 581.372 z "/>
<path style="fill:rgb(252, 255, 37);fill-opacity:1.0;fill-rule:evenodd;stroke:rgb(0, 0, 0);stroke-width:3.0;" d="M 199.928, 219.787 L 195.047, 222.586 L 175.6, 219.222 L 176.298, 215.605 L 189.096, 212.813 z "/>
<path style="fill:rgb(243, 19, 54);fill-opacity:1.0;fill-rule:evenodd;stroke:rgb(0, 0, 0);stroke-width:3.0;" d="M 600.892, 583.912 L 589.895, 593.692 L 580.566, 594.049 L 580.113, 589.317 L 596.087, 580.929 z "/>
<path style="fill:rgb(252, 15, 172);fill-opacity:1.0;fill-rule:evenodd;stroke:rgb(0, 0, 0);stroke-width:3.0;" d="M 370.137, 258.492 L 348.894, 255.953 L 348.483, 253.15 L 366.28, 247.459 z "/>
<path style="fill:rgb(252, 15, 172);fill-opacity:1.0;fill-rule:evenodd;stroke:rgb(0, 0, 0);stroke-width:3.0;" d="M 424.282, 17.3574 L 414.169, 20.3237 L 402.426, 9.76167 L 407.45, 7.3806 z "/>
<path style="fill:rgb(16, 249, 246);fill-opacity:1.0;fill-rule:evenodd;stroke:rgb(0, 0, 0);stroke-width:3.0;" d="M 763.143, 499.955 L 720.282, 554.451 L 705.109, 536.762 L 748.176, 483.047 z "/>
<path style="fill:rgb(128, 165, 199);fill-opacity:1.0;fill-rule:evenodd;stroke:rgb(0, 0, 0);stroke-width:3.0;" d="M 762.848, 569.065 L 762.818, 569.074 L 757.749, 564.195 L 781.59, 539.599 z "/>
<path style="fill:rgb(246, 246, 13);fill-opacity:1.0;fill-rule:evenodd;stroke:rgb(0, 0, 0);stroke-width:3.0;" d="M 492.808, 21.8194 L 446.53, 48.0811 L 442.571, 46.8267 L 444.266, 43.8937 L 492.425, 14.1755 z "/>
<path style="fill:rgb(128, 144, 231);fill-opacity:1.0;fill-rule:evenodd;stroke:rgb(0, 0, 0);stroke-width:3.0;" d="M 727.253, 157.669 L 717.535, 166.506 L 692.26, 149.247 L 693.067, 146.755 L 708.008, 145.948 z "/>
<path style="fill:rgb(128, 144, 231);fill-opacity:1.0;fill-rule:evenodd;stroke:rgb(0, 0, 0);stroke-width:3.0;" d="M 492.425, 14.1755 L 444.266, 43.8937 L 446.599, 39.8548 L 492.277, 11.213 z "/>
<path style="fill:rgb(29, 97, 255);fill-opacity:1.0;fill-rule:evenodd;stroke:rgb(0, 0, 0);stroke-width:3.0;" d="M 714.161, 445.214 L 713.825, 449.577 L 689.462, 444.563 L 689.316, 437.139 L 690.441, 435.854 z "/>
<path style="fill:rgb(255, 255, 69);fill-opacity:1.0;fill-rule:evenodd;stroke:rgb(0, 0, 0);stroke-width:3.0;" d="M 765.538, 556.159 L 749.82, 572.375 L 723.39, 558.963 L 738.411, 542.137 z "/>
<path style="fill:rgb(108, 223, 255);fill-opacity:1.0;fill-rule:evenodd;stroke:rgb(0, 0, 0);stroke-width:3.0;" d="M 788.55, 528.657 L 781.59, 539.599 L 765.538, 556.159 L 738.411, 542.137 L 769.578, 507.224 z "/>
<path style="fill:rgb(234, 217, 25);fill-opacity:1.0;fill-rule:evenodd;stroke:rgb(0, 0, 0);stroke-width:3.0;" d="M 326.555, 583.308 L 301.226, 575.238 L 340.119, 574.803 z "/>
<path style="fill:rgb(234, 217, 25);fill-opacity:1.0;fill-rule:evenodd;stroke:rgb(0, 0, 0);stroke-width:3.0;" d="M 747.381, 456.484 L 737.639, 454.478 L 690.441, 435.854 L 697.581, 427.7 L 710.37, 424.298 z "/>
<path style="fill:rgb(121, 237, 67);fill-opacity:1.0;fill-rule:evenodd;stroke:rgb(0, 0, 0);stroke-width:3.0;" d="M 321.971, 217.656 L 288.483, 225.685 L 289.91, 213.309 L 291.463, 212.996 z "/>
<path style="fill:rgb(121, 237, 67);fill-opacity:1.0;fill-rule:evenodd;stroke:rgb(0, 0, 0);stroke-width:3.0;" d="M 747.527, 456.514 L 747.381, 456.484 L 710.37, 424.298 L 763.327, 410.21 z "/>
<path style="fill:rgb(100, 5, 217);fill-opacity:1.0;fill-rule:evenodd;stroke:rgb(0, 0, 0);stroke-width:3.0;" d="M 686.546, 535.685 L 676.2, 543.704 L 662.268, 517.979 L 666.205, 501.897 L 679.993, 499.374 z "/>
<path style="fill:rgb(92, 215, 255);fill-opacity:1.0;fill-rule:evenodd;stroke:rgb(0, 0, 0);stroke-width:3.0;" d="M 670.831, 533.789 L 657.366, 545.714 L 662.675, 518.729 z "/>
<path style="fill:rgb(92, 215, 255);fill-opacity:1.0;fill-rule:evenodd;stroke:rgb(0, 0, 0);stroke-width:3.0;" d="M 754.851, 523.721 L 742.099, 538.006 L 733.299, 537.9 L 746.422, 521.215 z "/>
<path style="fill:rgb(132, 252, 255);fill-opacity:1.0;fill-rule:evenodd;stroke:rgb(0, 0, 0);stroke-width:3.0;" d="M 696.944, 496.271 L 680.529, 499.275 L 686.628, 461.42 z "/>
<path style="fill:rgb(255, 234, 7);fill-opacity:1.0;fill-rule:evenodd;stroke:rgb(0, 0, 0);stroke-width:3.0;" d="M 778.361, 406.212 L 761.546, 410.684 L 704.458, 419.846 L 719.753, 402.378 L 753.355, 393.944 z "/>
<path style="fill:rgb(255, 234, 7);fill-opacity:1.0;fill-rule:evenodd;stroke:rgb(0, 0, 0);stroke-width:3.0;" d="M 710.495, 307.609 L 712.643, 312.183 L 711.003, 318.882 L 704.055, 313.99 L 698.364, 298.432 z "/>
<path style="fill:rgb(243, 249, 20);fill-opacity:1.0;fill-rule:evenodd;stroke:rgb(0, 0, 0);stroke-width:3.0;" d="M 753.355, 393.944 L 719.753, 402.378 L 735.016, 384.947 z "/>
<path style="fill:rgb(220, 71, 71);fill-opacity:1.0;fill-rule:evenodd;stroke:rgb(0, 0, 0);stroke-width:3.0;" d="M 659.068, 578.607 L 655.676, 586.019 L 646.886, 586.77 L 645.623, 585.98 L 647.669, 577.62 L 654.245, 574.609 z "/>
<path style="fill:rgb(30, 86, 207);fill-opacity:1.0;fill-rule:evenodd;stroke:rgb(0, 0, 0);stroke-width:3.0;" d="M 255.967, 45.3062 L 247.933, 44.0403 L 253.289, 8.27293 L 260.451, 5.12192 z "/>
<path style="fill:rgb(240, 154, 7);fill-opacity:1.0;fill-rule:evenodd;stroke:rgb(0, 0, 0);stroke-width:3.0;" d="M 247.933, 44.0403 L 192.012, 35.2291 L 253.289, 8.27293 z "/>
<path style="fill:rgb(255, 52, 199);fill-opacity:1.0;fill-rule:evenodd;stroke:rgb(0, 0, 0);stroke-width:3.0;" d="M 363.382, 224.784 L 360.377, 226.515 L 359.412, 206.549 L 382.748, 193.648 z "/>
<path style="fill:rgb(255, 57, 22);fill-opacity:1.0;fill-rule:evenodd;stroke:rgb(0, 0, 0);stroke-width:3.0;" d="M 399.514, 577.824 L 378.79, 592.529 L 377.251, 590.04 L 380.05, 574.355 L 399.347, 574.139 z "/>
<path style="fill:rgb(255, 57, 22);fill-opacity:1.0;fill-rule:evenodd;stroke:rgb(0, 0, 0);stroke-width:3.0;" d="M 371.517, 184.253 L 383.083, 193.109 L 382.748, 193.648 L 359.412, 206.549 L 358.305, 183.64 z "/>
<path style="fill:rgb(255, 32, 182);fill-opacity:1.0;fill-rule:evenodd;stroke:rgb(0, 0, 0);stroke-width:3.0;" d="M 685.644, 195.507 L 647.539, 230.16 L 620.158, 208.359 L 682.828, 194.534 z "/>
<path style="fill:rgb(255, 32, 182);fill-opacity:1.0;fill-rule:evenodd;stroke:rgb(0, 0, 0);stroke-width:3.0;" d="M 226.573, 207.932 L 206.175, 221.001 L 202.835, 221.659 L 200.369, 220.071 L 199.537, 210.535 L 227.389, 204.458 z "/>
<path style="fill:rgb(255, 32, 182);fill-opacity:1.0;fill-rule:evenodd;stroke:rgb(0, 0, 0);stroke-width:3.0;" d="M 593.374, 579.245 L 464.169, 573.413 L 581.855, 572.095 z "/>
<path style="fill:rgb(165, 25, 184);fill-opacity:1.0;fill-rule:evenodd;stroke:rgb(0, 0, 0);stroke-width:3.0;" d="M 726.959, 50.8281 L 695.254, 30.8728 L 748.304, 7.28344 z "/>
<path style="fill:rgb(255, 255, 12);fill-opacity:1.0;fill-rule:evenodd;stroke:rgb(0, 0, 0);stroke-width:3.0;" d="M 708.103, 265.765 L 708.973, 274.557 L 675.266, 284.955 L 707.57, 264.741 z "/>
<path style="fill:rgb(13, 83, 255);fill-opacity:1.0;fill-rule:evenodd;stroke:rgb(0, 0, 0);stroke-width:3.0;" d="M 658.879, 344.559 L 654.163, 351.352 L 638.205, 348.505 L 630.748, 331.094 L 653.234, 321.078 z "/>
<path style="fill:rgb(243, 17, 19);fill-opacity:1.0;fill-rule:evenodd;stroke:rgb(0, 0, 0);stroke-width:3.0;" d="M 754.377, 584.433 L 729.493, 579.451 L 745.68, 574.411 z "/>
<path style="fill:rgb(16, 220, 40);fill-opacity:1.0;fill-rule:evenodd;stroke:rgb(0, 0, 0);stroke-width:3.0;" d="M 781.958, 573.896 L 790.306, 591.627 L 754.377, 584.433 L 745.68, 574.411 L 771.783, 566.282 z "/>
<path style="fill:rgb(255, 26, 130);fill-opacity:1.0;fill-rule:evenodd;stroke:rgb(0, 0, 0);stroke-width:3.0;" d="M 696.982, 127.431 L 698.768, 140.32 L 677.22, 127.197 L 689.764, 125.144 z "/>
<path style="fill:rgb(252, 255, 35);fill-opacity:1.0;fill-rule:evenodd;stroke:rgb(0, 0, 0);stroke-width:3.0;" d="M 702.26, 129.103 L 716.302, 148.519 L 710.356, 147.378 L 698.768, 140.32 L 696.982, 127.431 z "/>
<path style="fill:rgb(243, 252, 66);fill-opacity:1.0;fill-rule:evenodd;stroke:rgb(0, 0, 0);stroke-width:3.0;" d="M 398.936, 33.0018 L 416.174, 70.5491 L 325.983, 56.3381 L 307.648, 36.8278 L 322.517, 8.79045 z "/>
<path style="fill:rgb(228, 42, 11);fill-opacity:1.0;fill-rule:evenodd;stroke:rgb(0, 0, 0);stroke-width:3.0;" d="M 781.316, 117.669 L 768.363, 118.194 L 762.811, 112.24 L 781.225, 102.859 z "/>
<path style="fill:rgb(246, 3, 103);fill-opacity:1.0;fill-rule:evenodd;stroke:rgb(0, 0, 0);stroke-width:3.0;" d="M 180.746, 33.4539 L 160.622, 30.2831 L 157.96, 21.6426 L 169.81, 17.0486 z "/>
<path style="fill:rgb(255, 237, 47);fill-opacity:1.0;fill-rule:evenodd;stroke:rgb(0, 0, 0);stroke-width:3.0;" d="M 734.041, 224.764 L 730.157, 240.631 L 703.127, 257.56 L 650.44, 240.609 L 711.537, 222.036 z "/>
<path style="fill:rgb(255, 246, 50);fill-opacity:1.0;fill-rule:evenodd;stroke:rgb(0, 0, 0);stroke-width:3.0;" d="M 686.628, 461.42 L 680.943, 496.711 L 670.929, 482.596 L 676.564, 459.576 L 685.135, 456.378 z "/>
<path style="fill:rgb(240, 40, 15);fill-opacity:1.0;fill-rule:evenodd;stroke:rgb(0, 0, 0);stroke-width:3.0;" d="M 767.043, 89.9435 L 763.16, 105.803 L 751.649, 112.94 L 750.845, 107.698 L 750.898, 106.172 L 755.34, 92.8709 L 764.29, 88.455 z "/>
<path style="fill:rgb(234, 243, 27);fill-opacity:1.0;fill-rule:evenodd;stroke:rgb(0, 0, 0);stroke-width:3.0;" d="M 325.5, 230.506 L 325.857, 253.2 L 324.36, 253.021 L 313.332, 228.789 L 313.917, 221.671 L 321.78, 218.826 z "/>
<path style="fill:rgb(234, 243, 27);fill-opacity:1.0;fill-rule:evenodd;stroke:rgb(0, 0, 0);stroke-width:3.0;" d="M 682.828, 194.534 L 620.158, 208.359 L 601.826, 193.763 L 634.983, 177.991 z "/>
<path style="fill:rgb(255, 240, 38);fill-opacity:1.0;fill-rule:evenodd;stroke:rgb(0, 0, 0);stroke-width:3.0;" d="M 686.568, 132.891 L 690.491, 148.039 L 675.118, 137.542 L 676.798, 127.267 L 677.22, 127.197 z "/>
<path style="fill:rgb(255, 240, 38);fill-opacity:1.0;fill-rule:evenodd;stroke:rgb(0, 0, 0);stroke-width:3.0;" d="M 703.376, 35.985 L 712.146, 53.9613 L 615.801, 19.9963 L 669.716, 14.7992 z "/>
<path style="fill:rgb(34, 220, 255);fill-opacity:1.0;fill-rule:evenodd;stroke:rgb(0, 0, 0);stroke-width:3.0;" d="M 190.5, 8.12542 L 155.224, 14.2674 L 152.925, 9.94573 L 197.277, 6.69303 z "/>
<path style="fill:rgb(255, 11, 6);fill-opacity:1.0;fill-rule:evenodd;stroke:rgb(0, 0, 0);stroke-width:3.0;" d="M 700.306, 524.92 L 698.234, 526.625 L 693.847, 530.026 L 692.355, 507.452 L 694.325, 504.245 z "/>
<path style="fill:rgb(98, 18, 255);fill-opacity:1.0;fill-rule:evenodd;stroke:rgb(0, 0, 0);stroke-width:3.0;" d="M 757.128, 584.984 L 769.136, 587.389 L 768.778, 588.495 L 721.337, 587.131 L 727.315, 581.662 z "/>
<path style="fill:rgb(82, 47, 255);fill-opacity:1.0;fill-rule:evenodd;stroke:rgb(0, 0, 0);stroke-width:3.0;" d="M 693.847, 530.026 L 693.74, 530.108 L 685.887, 532.032 L 683.928, 521.177 L 692.355, 507.452 z "/>
<path style="fill:rgb(255, 71, 57);fill-opacity:1.0;fill-rule:evenodd;stroke:rgb(0, 0, 0);stroke-width:3.0;" d="M 767.634, 505.029 L 760.367, 517.542 L 754.851, 523.721 L 751.575, 522.747 L 751.873, 514.285 L 763.143, 499.955 z "/>
<path style="fill:rgb(194, 46, 237);fill-opacity:1.0;fill-rule:evenodd;stroke:rgb(0, 0, 0);stroke-width:3.0;" d="M 694.325, 504.245 L 684.907, 519.581 L 681.42, 499.112 L 692.266, 497.127 z "/>
<path style="fill:rgb(255, 182, 16);fill-opacity:1.0;fill-rule:evenodd;stroke:rgb(0, 0, 0);stroke-width:3.0;" d="M 764.218, 273.72 L 768.759, 284.504 L 763.727, 286.992 L 753.104, 273.547 L 763.431, 273.148 z "/>
<path style="fill:rgb(255, 249, 42);fill-opacity:1.0;fill-rule:evenodd;stroke:rgb(0, 0, 0);stroke-width:3.0;" d="M 419.345, 39.4681 L 384.798, 28.5227 L 428.124, 24.725 z "/>
<path style="fill:rgb(25, 255, 246);fill-opacity:1.0;fill-rule:evenodd;stroke:rgb(0, 0, 0);stroke-width:3.0;" d="M 612.035, 287.402 L 612.881, 289.378 L 598.158, 299.437 L 589.291, 286.713 L 598.233, 285.753 z "/>
<path style="fill:rgb(223, 81, 9);fill-opacity:1.0;fill-rule:evenodd;stroke:rgb(0, 0, 0);stroke-width:3.0;" d="M 743.823, 261.799 L 738.824, 294.021 L 722.091, 273.585 L 722.119, 273.469 L 742.193, 260.259 L 742.587, 260.235 z "/>
<path style="fill:rgb(255, 189, 255);fill-opacity:1.0;fill-rule:evenodd;stroke:rgb(0, 0, 0);stroke-width:3.0;" d="M 712.398, 571.277 L 697.693, 587.749 L 696.415, 563.561 z "/>
</svg>