<?xml version="1.0" encoding="iso-8859-1" standalone="no"?>
<!DOCTYPE svg PUBLIC "-//W3C//DTD SVG 1.0//EN" "http://www.w3.org/TR/2001/REC-SVG-20010904/DTD/svg10.dtd">
<svg xmlns="http://www.w3.org/2000/svg" width="800" height="600">
<path style="fill:rgb(0, 0, 0);fill-opacity:0.0;fill-rule:evenodd;stroke:rgb(0, 0, 0);stroke-width:0.0;" d="M 0, 600 L 800, 600 L 800, 0 L 0, 0 z "/>
<path style="fill:rgb(197, 255, 65);fill-opacity:1.0;fill-rule:evenodd;stroke:rgb(0, 0, 0);stroke-width:3.0;" d="M 124.622, 269.45 L 121.288, 282.41 L 85.8468, 308.87 L 77.3605, 231.464 z "/>
<path style="fill:rgb(197, 255, 65);fill-opacity:1.0;fill-rule:evenodd;stroke:rgb(0, 0, 0);stroke-width:3.0;" d="M 773.592, 55.8948 L 767.701, 58.753 L 752.992, 58.3804 L 734.996, 51.6034 L 732.371, 45.7025 z "/>
<path style="fill:rgb(197, 255, 65);fill-opacity:1.0;fill-rule:evenodd;stroke:rgb(0, 0, 0);stroke-width:3.0;" d="M 538.144, 138.876 L 554.18, 146.823 L 547.039, 159.2 L 533.663, 137.8 z "/>
<path style="fill:rgb(197, 255, 65);fill-opacity:1.0;fill-rule:evenodd;stroke:rgb(0, 0, 0);stroke-width:3.0;" d="M 26.9572, 352.665 L 27.9009, 377.974 L 20.6659, 371.204 L 21.0387, 346.055 z "/>
<path style="fill:rgb(197, 255, 65);fill-opacity:1.0;fill-rule:evenodd;stroke:rgb(0, 0, 0);stroke-width:3.0;" d="M 287.032, 226.459 L 288.342, 239.026 L 285.486, 238.268 L 270.056, 221.48 L 271.059, 215.184 z "/>
<path style="fill:rgb(197, 255, 65);fill-opacity:1.0;fill-rule:evenodd;stroke:rgb(0, 0, 0);stroke-width:3.0;" d="M 347.222, 353.021 L 266.945, 532.043 L 195.716, 397.058 L 197.775, 335.245 L 326.321, 272.882 z "/>
<path style="fill:rgb(246, 91, 14);fill-opacity:1.0;fill-rule:evenodd;stroke:rgb(0, 0, 0);stroke-width:3.0;" d="M 336.308, 71.924 L 325.11, 86.5703 L 275.276, 93.1348 L 262.845, 84.8879 L 310.076, 64.9621 z "/>
<path style="fill:rgb(246, 91, 14);fill-opacity:1.0;fill-rule:evenodd;stroke:rgb(0, 0, 0);stroke-width:3.0;" d="M 693.386, 56.8701 L 699.373, 57.8431 L 702.618, 84.4326 L 685.982, 96.442 L 682.665, 86.1478 L 687.24, 56.7144 z "/>
<path style="fill:rgb(246, 91, 14);fill-opacity:1.0;fill-rule:evenodd;stroke:rgb(0, 0, 0);stroke-width:3.0;" d="M 52.8118, 345.395 L 55.2479, 349.868 L 50.4746, 372.874 L 41.6333, 369.057 L 40.2478, 367.509 L 35.0903, 343.608 z "/>
<path style="fill:rgb(246, 91, 14);fill-opacity:1.0;fill-rule:evenodd;stroke:rgb(0, 0, 0);stroke-width:3.0;" d="M 223.722, 450.131 L 192.096, 560.845 L 82.1967, 519.604 L 110.595, 377.539 L 170.166, 348.639 z "/>
<path style="fill:rgb(246, 91, 14);fill-opacity:1.0;fill-rule:evenodd;stroke:rgb(0, 0, 0);stroke-width:3.0;" d="M 62.6734, 286.714 L 56.5704, 320.913 L 32.1861, 307.524 L 27.6314, 299.161 L 47.6823, 286.424 z "/>
<path style="fill:rgb(246, 91, 14);fill-opacity:1.0;fill-rule:evenodd;stroke:rgb(0, 0, 0);stroke-width:3.0;" d="M 679.246, 47.5467 L 667.531, 52.9798 L 660.048, 43.0683 L 673.929, 38.2433 z "/>
<path style="fill:rgb(246, 91, 14);fill-opacity:1.0;fill-rule:evenodd;stroke:rgb(0, 0, 0);stroke-width:3.0;" d="M 542.512, 365.843 L 438.41, 547.174 L 391.957, 545.251 L 565.264, 225.168 z "/>
<path style="fill:rgb(234, 255, 6);fill-opacity:1.0;fill-rule:evenodd;stroke:rgb(0, 0, 0);stroke-width:3.0;" d="M 124.622, 269.45 L 73.1385, 228.071 L 92.9319, 117.154 L 166.295, 107.49 z "/>
<path style="fill:rgb(121, 249, 255);fill-opacity:1.0;fill-rule:evenodd;stroke:rgb(0, 0, 0);stroke-width:3.0;" d="M 511.95, 182.827 L 458.951, 208.539 L 454.078, 185.899 L 496.52, 171.034 z "/>
<path style="fill:rgb(121, 249, 255);fill-opacity:1.0;fill-rule:evenodd;stroke:rgb(0, 0, 0);stroke-width:3.0;" d="M 329.52, 481.507 L 312.03, 487.273 L 296.096, 486.249 L 296.767, 465.538 L 311.083, 433.614 z "/>
<path style="fill:rgb(121, 249, 255);fill-opacity:1.0;fill-rule:evenodd;stroke:rgb(0, 0, 0);stroke-width:3.0;" d="M 275.276, 93.1348 L 142.091, 110.679 L 142.927, 109.783 L 223.735, 58.9406 z "/>
<path style="fill:rgb(255, 240, 10);fill-opacity:1.0;fill-rule:evenodd;stroke:rgb(0, 0, 0);stroke-width:3.0;" d="M 387.744, 88.3162 L 356.339, 74.4627 L 350.446, 70.8832 L 378.439, 60.6743 z "/>
<path style="fill:rgb(255, 240, 10);fill-opacity:1.0;fill-rule:evenodd;stroke:rgb(0, 0, 0);stroke-width:3.0;" d="M 374.397, 477.574 L 376.651, 488.851 L 375.312, 492.969 L 356.245, 456.627 z "/>
<path style="fill:rgb(146, 25, 212);fill-opacity:1.0;fill-rule:evenodd;stroke:rgb(0, 0, 0);stroke-width:3.0;" d="M 461.028, 52.9411 L 456.436, 74.231 L 435.648, 55.5963 L 432.562, 40.9352 L 457.891, 31.6976 z "/>
<path style="fill:rgb(146, 25, 212);fill-opacity:1.0;fill-rule:evenodd;stroke:rgb(0, 0, 0);stroke-width:3.0;" d="M 420.597, 353.612 L 402.194, 410.245 L 369.853, 407.133 L 342.186, 364.251 L 398.96, 237.643 L 420.672, 227.109 z "/>
<path style="fill:rgb(146, 25, 212);fill-opacity:1.0;fill-rule:evenodd;stroke:rgb(0, 0, 0);stroke-width:3.0;" d="M 23.7565, 395.723 L 31.6594, 415.834 L 10.6259, 426.038 L 16.4951, 392.081 z "/>
<path style="fill:rgb(146, 25, 212);fill-opacity:1.0;fill-rule:evenodd;stroke:rgb(0, 0, 0);stroke-width:3.0;" d="M 340.538, 73.0467 L 341.541, 73.4493 L 338.748, 84.7738 L 328.195, 86.1639 L 326.565, 84.6671 L 336.308, 71.924 z "/>
<path style="fill:rgb(146, 25, 212);fill-opacity:1.0;fill-rule:evenodd;stroke:rgb(0, 0, 0);stroke-width:3.0;" d="M 642.611, 19.475 L 616.22, 26.2397 L 613.535, 13.5871 z "/>
<path style="fill:rgb(146, 25, 212);fill-opacity:1.0;fill-rule:evenodd;stroke:rgb(0, 0, 0);stroke-width:3.0;" d="M 305.101, 43.3416 L 244.383, 30.1349 L 236.342, 14.7147 L 242.305, 5.20043 z "/>
<path style="fill:rgb(255, 8, 9);fill-opacity:1.0;fill-rule:evenodd;stroke:rgb(0, 0, 0);stroke-width:3.0;" d="M 259.32, 43.2802 L 239.177, 46.1455 L 233.924, 44.7512 L 233.532, 39.5341 L 248.267, 38.5822 z "/>
<path style="fill:rgb(255, 8, 9);fill-opacity:1.0;fill-rule:evenodd;stroke:rgb(0, 0, 0);stroke-width:3.0;" d="M 53.7012, 382.535 L 29.6084, 410.614 L 23.9189, 396.136 L 39.4563, 377.38 L 47.3613, 375.454 z "/>
<path style="fill:rgb(255, 60, 7);fill-opacity:1.0;fill-rule:evenodd;stroke:rgb(0, 0, 0);stroke-width:3.0;" d="M 585.279, 286.25 L 573.141, 303.197 L 554.265, 293.172 L 565.264, 225.168 L 568.218, 219.711 z "/>
<path style="fill:rgb(240, 6, 182);fill-opacity:1.0;fill-rule:evenodd;stroke:rgb(0, 0, 0);stroke-width:3.0;" d="M 578.062, 124.83 L 575.26, 91.9299 L 588.984, 89.7774 z "/>
<path style="fill:rgb(240, 6, 182);fill-opacity:1.0;fill-rule:evenodd;stroke:rgb(0, 0, 0);stroke-width:3.0;" d="M 463.104, 16.3089 L 467.698, 28.121 L 419.747, 45.6088 L 426.719, 6.86915 z "/>
<path style="fill:rgb(199, 175, 240);fill-opacity:1.0;fill-rule:evenodd;stroke:rgb(0, 0, 0);stroke-width:3.0;" d="M 500.22, 161.853 L 469.285, 143.064 L 494.485, 111.591 L 521.72, 109.207 z "/>
<path style="fill:rgb(199, 175, 240);fill-opacity:1.0;fill-rule:evenodd;stroke:rgb(0, 0, 0);stroke-width:3.0;" d="M 435.862, 279.765 L 420.641, 278.738 L 420.672, 227.109 L 431.409, 221.901 z "/>
<path style="fill:rgb(199, 175, 240);fill-opacity:1.0;fill-rule:evenodd;stroke:rgb(0, 0, 0);stroke-width:3.0;" d="M 236.874, 170.001 L 191.259, 173.553 L 182.273, 158.16 L 246.041, 150.856 z "/>
<path style="fill:rgb(199, 175, 240);fill-opacity:1.0;fill-rule:evenodd;stroke:rgb(0, 0, 0);stroke-width:3.0;" d="M 384.526, 429.874 L 369.054, 449.876 L 348.04, 413.775 L 366.352, 401.705 z "/>
<path style="fill:rgb(240, 165, 8);fill-opacity:1.0;fill-rule:evenodd;stroke:rgb(0, 0, 0);stroke-width:3.0;" d="M 357.987, 257.52 L 333.609, 269.347 L 323.52, 261.648 L 323.486, 261.557 L 357.797, 257.47 z "/>
<path style="fill:rgb(240, 165, 8);fill-opacity:1.0;fill-rule:evenodd;stroke:rgb(0, 0, 0);stroke-width:3.0;" d="M 81.0331, 264.963 L 65.0786, 273.236 L 69.7661, 246.969 L 78.6549, 243.27 z "/>
<path style="fill:rgb(255, 29, 8);fill-opacity:1.0;fill-rule:evenodd;stroke:rgb(0, 0, 0);stroke-width:3.0;" d="M 480.607, 128.924 L 471.361, 133.154 L 438.266, 116.51 L 494.485, 111.591 z "/>
<path style="fill:rgb(255, 29, 8);fill-opacity:1.0;fill-rule:evenodd;stroke:rgb(0, 0, 0);stroke-width:3.0;" d="M 77.3046, 544.077 L 20.0808, 527.928 L 99.2781, 434.154 z "/>
<path style="fill:rgb(255, 29, 8);fill-opacity:1.0;fill-rule:evenodd;stroke:rgb(0, 0, 0);stroke-width:3.0;" d="M 279.869, 56.9451 L 246.5, 74.0437 L 203.111, 45.2575 L 209.603, 38.2965 z "/>
<path style="fill:rgb(255, 175, 42);fill-opacity:1.0;fill-rule:evenodd;stroke:rgb(0, 0, 0);stroke-width:3.0;" d="M 647.098, 57.8717 L 628.163, 82.5032 L 619.393, 41.1874 L 647.674, 35.9291 z "/>
<path style="fill:rgb(255, 175, 42);fill-opacity:1.0;fill-rule:evenodd;stroke:rgb(0, 0, 0);stroke-width:3.0;" d="M 101.868, 357.883 L 96.2306, 379.793 L 87.0496, 353.059 z "/>
<path style="fill:rgb(255, 175, 42);fill-opacity:1.0;fill-rule:evenodd;stroke:rgb(0, 0, 0);stroke-width:3.0;" d="M 462.639, 224.235 L 447.118, 228.886 L 445.996, 214.824 L 469.384, 203.477 z "/>
<path style="fill:rgb(246, 3, 51);fill-opacity:1.0;fill-rule:evenodd;stroke:rgb(0, 0, 0);stroke-width:3.0;" d="M 84.722, 346.281 L 96.2306, 379.793 L 94.8445, 385.18 L 92.5609, 386.288 L 64.0829, 366.09 L 52.4032, 344.645 z "/>
<path style="fill:rgb(246, 3, 51);fill-opacity:1.0;fill-rule:evenodd;stroke:rgb(0, 0, 0);stroke-width:3.0;" d="M 218.427, 220.46 L 219.849, 238.795 L 129.574, 250.205 L 142.421, 200.277 z "/>
<path style="fill:rgb(246, 3, 51);fill-opacity:1.0;fill-rule:evenodd;stroke:rgb(0, 0, 0);stroke-width:3.0;" d="M 397.435, 535.135 L 387.359, 515.931 L 414.921, 442.081 L 535.582, 194.435 L 568.778, 155.258 L 615.349, 132.664 z "/>
<path style="fill:rgb(246, 3, 51);fill-opacity:1.0;fill-rule:evenodd;stroke:rgb(0, 0, 0);stroke-width:3.0;" d="M 344.13, 407.058 L 369.054, 449.876 L 367.456, 451.941 L 349.887, 429.591 L 341.602, 406.708 z "/>
<path style="fill:rgb(246, 3, 51);fill-opacity:1.0;fill-rule:evenodd;stroke:rgb(0, 0, 0);stroke-width:3.0;" d="M 273.552, 36.9487 L 218.755, 40.4888 L 225.901, 28.5713 z "/>
<path style="fill:rgb(246, 3, 51);fill-opacity:1.0;fill-rule:evenodd;stroke:rgb(0, 0, 0);stroke-width:3.0;" d="M 240.471, 217.615 L 218.082, 220.369 L 216.94, 220.065 L 213.725, 218.35 L 216.679, 212.182 z "/>
<path style="fill:rgb(246, 3, 51);fill-opacity:1.0;fill-rule:evenodd;stroke:rgb(0, 0, 0);stroke-width:3.0;" d="M 528.525, 129.58 L 518.366, 163.4 L 514.782, 160.585 L 523.331, 121.27 z "/>
<path style="fill:rgb(246, 3, 51);fill-opacity:1.0;fill-rule:evenodd;stroke:rgb(0, 0, 0);stroke-width:3.0;" d="M 418.823, 45.9461 L 387.286, 57.4474 L 382.188, 50.6317 L 411.537, 44.7516 z "/>
<path style="fill:rgb(60, 220, 126);fill-opacity:1.0;fill-rule:evenodd;stroke:rgb(0, 0, 0);stroke-width:3.0;" d="M 627.677, 114.761 L 616.683, 97.4367 L 619.136, 94.2463 L 628.029, 93.2451 z "/>
<path style="fill:rgb(243, 136, 47);fill-opacity:1.0;fill-rule:evenodd;stroke:rgb(0, 0, 0);stroke-width:3.0;" d="M 318.936, 276.465 L 94.8445, 385.18 L 127.66, 257.645 z "/>
<path style="fill:rgb(98, 252, 255);fill-opacity:1.0;fill-rule:evenodd;stroke:rgb(0, 0, 0);stroke-width:3.0;" d="M 566.662, 299.756 L 561.442, 312.305 L 551.238, 311.887 L 554.265, 293.172 z "/>
<path style="fill:rgb(98, 252, 255);fill-opacity:1.0;fill-rule:evenodd;stroke:rgb(0, 0, 0);stroke-width:3.0;" d="M 693.651, 35.1426 L 674.041, 14.5548 L 704.528, 10.4758 z "/>
<path style="fill:rgb(98, 252, 255);fill-opacity:1.0;fill-rule:evenodd;stroke:rgb(0, 0, 0);stroke-width:3.0;" d="M 467.496, 132.85 L 473.884, 137.32 L 469.285, 143.064 L 455.379, 134.617 L 461.714, 130.969 z "/>
<path style="fill:rgb(98, 252, 255);fill-opacity:1.0;fill-rule:evenodd;stroke:rgb(0, 0, 0);stroke-width:3.0;" d="M 410.911, 546.036 L 418.325, 556.273 L 397.708, 551.615 L 394.855, 545.371 z "/>
<path style="fill:rgb(255, 0, 8);fill-opacity:1.0;fill-rule:evenodd;stroke:rgb(0, 0, 0);stroke-width:3.0;" d="M 347.381, 34.2334 L 323.93, 30.3886 L 324.182, 26.8243 L 327.504, 19.0024 L 335.755, 16.561 z "/>
<path style="fill:rgb(255, 0, 8);fill-opacity:1.0;fill-rule:evenodd;stroke:rgb(0, 0, 0);stroke-width:3.0;" d="M 283.88, 196.227 L 257.401, 230.81 L 250.762, 229.047 L 259.448, 189.539 L 282.842, 186.278 z "/>
<path style="fill:rgb(255, 0, 8);fill-opacity:1.0;fill-rule:evenodd;stroke:rgb(0, 0, 0);stroke-width:3.0;" d="M 188.741, 60.6636 L 180.922, 69.0469 L 170.431, 61.6472 L 190.075, 56.2545 z "/>
<path style="fill:rgb(255, 0, 8);fill-opacity:1.0;fill-rule:evenodd;stroke:rgb(0, 0, 0);stroke-width:3.0;" d="M 617.784, 234.73 L 609.447, 249.251 L 577.567, 256.172 L 568.218, 219.711 L 568.625, 218.96 L 589.963, 213.423 z "/>
<path style="fill:rgb(255, 0, 8);fill-opacity:1.0;fill-rule:evenodd;stroke:rgb(0, 0, 0);stroke-width:3.0;" d="M 245.109, 580.739 L 240.853, 590.232 L 201.937, 579.249 L 200.373, 563.951 z "/>
<path style="fill:rgb(255, 0, 8);fill-opacity:1.0;fill-rule:evenodd;stroke:rgb(0, 0, 0);stroke-width:3.0;" d="M 62.9987, 390.749 L 58.0677, 392.387 L 52.7877, 389.278 L 57.6256, 377.961 L 61.0382, 373.984 z "/>
<path style="fill:rgb(255, 0, 8);fill-opacity:1.0;fill-rule:evenodd;stroke:rgb(0, 0, 0);stroke-width:3.0;" d="M 422.801, 56.7673 L 399.552, 71.158 L 394.334, 70.187 L 379.709, 60.2108 L 419.965, 45.5296 z "/>
<path style="fill:rgb(255, 0, 8);fill-opacity:1.0;fill-rule:evenodd;stroke:rgb(0, 0, 0);stroke-width:3.0;" d="M 520.002, 109.357 L 507.721, 110.432 L 518.672, 75.1167 L 526.672, 71.0694 z "/>
<path style="fill:rgb(255, 0, 8);fill-opacity:1.0;fill-rule:evenodd;stroke:rgb(0, 0, 0);stroke-width:3.0;" d="M 51.1126, 234.974 L 65.3208, 271.879 L 64.6143, 275.838 L 60.578, 272.531 L 56.2121, 263.262 L 50.641, 234.512 z "/>
<path style="fill:rgb(255, 165, 7);fill-opacity:1.0;fill-rule:evenodd;stroke:rgb(0, 0, 0);stroke-width:3.0;" d="M 374.802, 56.5277 L 366.468, 65.0398 L 350.446, 70.8832 L 344.221, 67.1023 L 344.99, 41.4725 z "/>
<path style="fill:rgb(192, 2, 30);fill-opacity:1.0;fill-rule:evenodd;stroke:rgb(0, 0, 0);stroke-width:3.0;" d="M 251.012, 219.373 L 251.882, 223.953 L 250.762, 229.047 L 223.524, 221.814 L 226.304, 219.357 L 244.131, 217.165 z "/>
<path style="fill:rgb(192, 2, 30);fill-opacity:1.0;fill-rule:evenodd;stroke:rgb(0, 0, 0);stroke-width:3.0;" d="M 597.387, 67.031 L 609.755, 86.5195 L 609.266, 86.5963 L 588.467, 76.5078 L 591.45, 65.175 z "/>
<path style="fill:rgb(23, 74, 255);fill-opacity:1.0;fill-rule:evenodd;stroke:rgb(0, 0, 0);stroke-width:3.0;" d="M 197.17, 353.421 L 196.609, 370.261 L 195.68, 372.694 L 179.983, 356.595 L 186.499, 348.957 z "/>
<path style="fill:rgb(23, 74, 255);fill-opacity:1.0;fill-rule:evenodd;stroke:rgb(0, 0, 0);stroke-width:3.0;" d="M 670.932, 84.6304 L 668.557, 91.1916 L 659.917, 98.362 L 650.969, 75.1806 z "/>
<path style="fill:rgb(33, 121, 255);fill-opacity:1.0;fill-rule:evenodd;stroke:rgb(0, 0, 0);stroke-width:3.0;" d="M 42.4163, 326.308 L 31.3537, 326.291 L 28.441, 312.792 L 33.0788, 309.163 z "/>
<path style="fill:rgb(255, 32, 9);fill-opacity:1.0;fill-rule:evenodd;stroke:rgb(0, 0, 0);stroke-width:3.0;" d="M 242.284, 173.423 L 240.283, 162.883 L 273.57, 93.3594 L 275.085, 93.1599 z "/>
<path style="fill:rgb(255, 32, 9);fill-opacity:1.0;fill-rule:evenodd;stroke:rgb(0, 0, 0);stroke-width:3.0;" d="M 64.6143, 275.838 L 63.067, 284.509 L 28.1571, 282.294 L 25.7093, 275.172 L 62.5856, 274.176 z "/>
<path style="fill:rgb(255, 32, 9);fill-opacity:1.0;fill-rule:evenodd;stroke:rgb(0, 0, 0);stroke-width:3.0;" d="M 353.694, 78.3289 L 351.366, 83.1118 L 338.748, 84.7738 L 341.541, 73.4493 z "/>
<path style="fill:rgb(255, 32, 9);fill-opacity:1.0;fill-rule:evenodd;stroke:rgb(0, 0, 0);stroke-width:3.0;" d="M 475.538, 135.255 L 475.404, 135.423 L 435.139, 122.324 L 427.166, 117.482 L 438.266, 116.51 z "/>
<path style="fill:rgb(255, 148, 9);fill-opacity:1.0;fill-rule:evenodd;stroke:rgb(0, 0, 0);stroke-width:3.0;" d="M 348.825, 426.659 L 341.317, 428.175 L 331.879, 410.184 L 340.216, 402.882 z "/>
<path style="fill:rgb(255, 148, 9);fill-opacity:1.0;fill-rule:evenodd;stroke:rgb(0, 0, 0);stroke-width:3.0;" d="M 274.169, 567.073 L 253.245, 562.595 L 265.255, 535.812 z "/>
<path style="fill:rgb(220, 18, 252);fill-opacity:1.0;fill-rule:evenodd;stroke:rgb(0, 0, 0);stroke-width:3.0;" d="M 573.141, 303.197 L 554.267, 329.551 L 566.662, 299.756 z "/>
<path style="fill:rgb(255, 50, 252);fill-opacity:1.0;fill-rule:evenodd;stroke:rgb(0, 0, 0);stroke-width:3.0;" d="M 251.882, 223.953 L 242.284, 173.423 L 275.085, 93.1599 L 280.801, 92.407 z "/>
<path style="fill:rgb(14, 1, 150);fill-opacity:1.0;fill-rule:evenodd;stroke:rgb(0, 0, 0);stroke-width:3.0;" d="M 246.041, 150.856 L 186.832, 157.638 L 189.946, 104.375 L 273.57, 93.3594 z "/>
<path style="fill:rgb(243, 179, 16);fill-opacity:1.0;fill-rule:evenodd;stroke:rgb(0, 0, 0);stroke-width:3.0;" d="M 378.635, 35.2613 L 364.664, 30.5432 L 384.403, 18.1831 z "/>
<path style="fill:rgb(243, 179, 16);fill-opacity:1.0;fill-rule:evenodd;stroke:rgb(0, 0, 0);stroke-width:3.0;" d="M 561.442, 312.305 L 554.267, 329.551 L 546.665, 340.166 L 551.238, 311.887 z "/>
<path style="fill:rgb(243, 179, 16);fill-opacity:1.0;fill-rule:evenodd;stroke:rgb(0, 0, 0);stroke-width:3.0;" d="M 321.812, 521.871 L 309.225, 520.927 L 281.595, 499.373 L 282.682, 496.949 L 345.573, 476.214 z "/>
<path style="fill:rgb(243, 179, 16);fill-opacity:1.0;fill-rule:evenodd;stroke:rgb(0, 0, 0);stroke-width:3.0;" d="M 21.8302, 263.886 L 11.7515, 263.502 L 12.2108, 235.9 z "/>
<path style="fill:rgb(243, 179, 16);fill-opacity:1.0;fill-rule:evenodd;stroke:rgb(0, 0, 0);stroke-width:3.0;" d="M 459.734, 283.948 L 432.971, 315.533 L 441.424, 289.52 L 456.536, 279.496 z "/>
<path style="fill:rgb(243, 179, 16);fill-opacity:1.0;fill-rule:evenodd;stroke:rgb(0, 0, 0);stroke-width:3.0;" d="M 709.681, 69.3544 L 707.532, 79.9231 L 703.478, 83.4892 L 701.808, 64.0467 L 704.651, 62.4031 z "/>
<path style="fill:rgb(243, 179, 16);fill-opacity:1.0;fill-rule:evenodd;stroke:rgb(0, 0, 0);stroke-width:3.0;" d="M 579.886, 146.248 L 579.972, 147.26 L 568.283, 151.375 L 566.775, 150.721 L 563.097, 135.786 z "/>
<path style="fill:rgb(243, 179, 16);fill-opacity:1.0;fill-rule:evenodd;stroke:rgb(0, 0, 0);stroke-width:3.0;" d="M 220.34, 61.0765 L 199.01, 74.4966 L 203.09, 58.9972 z "/>
<path style="fill:rgb(243, 179, 16);fill-opacity:1.0;fill-rule:evenodd;stroke:rgb(0, 0, 0);stroke-width:3.0;" d="M 27.9009, 377.974 L 28.3774, 390.754 L 23.9189, 396.136 L 20.4281, 387.253 L 20.6659, 371.204 z "/>
<path style="fill:rgb(243, 179, 16);fill-opacity:1.0;fill-rule:evenodd;stroke:rgb(0, 0, 0);stroke-width:3.0;" d="M 543.098, 152.896 L 538.248, 166.092 L 528.244, 171.162 L 518.366, 163.4 L 528.525, 129.58 z "/>
<path style="fill:rgb(243, 179, 16);fill-opacity:1.0;fill-rule:evenodd;stroke:rgb(0, 0, 0);stroke-width:3.0;" d="M 492.628, 282.595 L 475.134, 318.499 L 478.003, 273.061 L 485.122, 253.986 L 485.804, 253.181 z "/>
<path style="fill:rgb(243, 179, 16);fill-opacity:1.0;fill-rule:evenodd;stroke:rgb(0, 0, 0);stroke-width:3.0;" d="M 456.436, 74.231 L 452.721, 91.4572 L 433.62, 99.6273 L 425.502, 67.4654 L 437.094, 56.8917 z "/>
<path style="fill:rgb(231, 187, 21);fill-opacity:1.0;fill-rule:evenodd;stroke:rgb(0, 0, 0);stroke-width:3.0;" d="M 524.47, 116.03 L 516.599, 152.231 L 509.303, 139.612 L 513.612, 129.061 L 523.402, 109.216 z "/>
<path style="fill:rgb(255, 126, 21);fill-opacity:1.0;fill-rule:evenodd;stroke:rgb(0, 0, 0);stroke-width:3.0;" d="M 66.8009, 235.013 L 56.6352, 249.319 L 49.1777, 229.948 L 54.0573, 226.485 z "/>
<path style="fill:rgb(249, 70, 10);fill-opacity:1.0;fill-rule:evenodd;stroke:rgb(0, 0, 0);stroke-width:3.0;" d="M 382.395, 255.307 L 367.576, 307.631 L 351.686, 343.065 L 327.571, 272.276 L 365.798, 253.731 z "/>
<path style="fill:rgb(249, 70, 10);fill-opacity:1.0;fill-rule:evenodd;stroke:rgb(0, 0, 0);stroke-width:3.0;" d="M 402.194, 410.245 L 392.034, 441.511 L 369.853, 407.133 z "/>
<path style="fill:rgb(255, 243, 45);fill-opacity:1.0;fill-rule:evenodd;stroke:rgb(0, 0, 0);stroke-width:3.0;" d="M 432.814, 96.4366 L 433.62, 99.6273 L 423.346, 104.022 L 387.744, 88.3162 L 378.439, 60.6743 L 379.709, 60.2108 z "/>
<path style="fill:rgb(255, 243, 45);fill-opacity:1.0;fill-rule:evenodd;stroke:rgb(0, 0, 0);stroke-width:3.0;" d="M 355.846, 456.473 L 345.573, 476.214 L 344.321, 476.626 L 317.115, 449.283 L 311.083, 433.614 L 315.991, 422.668 z "/>
<path style="fill:rgb(255, 243, 45);fill-opacity:1.0;fill-rule:evenodd;stroke:rgb(0, 0, 0);stroke-width:3.0;" d="M 563.488, 137.373 L 535.204, 127.533 L 534.771, 127.161 L 556.183, 107.707 z "/>
<path style="fill:rgb(240, 13, 11);fill-opacity:1.0;fill-rule:evenodd;stroke:rgb(0, 0, 0);stroke-width:3.0;" d="M 368.759, 82.0063 L 387.079, 220.09 L 332.776, 85.5606 L 367.155, 81.032 z "/>
<path style="fill:rgb(240, 13, 11);fill-opacity:1.0;fill-rule:evenodd;stroke:rgb(0, 0, 0);stroke-width:3.0;" d="M 582.013, 58.5943 L 583.252, 62.2703 L 572.48, 59.2803 L 570.636, 37.6169 z "/>
<path style="fill:rgb(240, 13, 11);fill-opacity:1.0;fill-rule:evenodd;stroke:rgb(0, 0, 0);stroke-width:3.0;" d="M 645.821, 185.892 L 617.784, 234.73 L 576.999, 203.495 L 615.349, 132.664 L 620.154, 130.333 z "/>
<path style="fill:rgb(18, 159, 255);fill-opacity:1.0;fill-rule:evenodd;stroke:rgb(0, 0, 0);stroke-width:3.0;" d="M 289.898, 59.6067 L 297.083, 70.4437 L 280.974, 77.2399 L 261.874, 66.1659 L 279.869, 56.9451 z "/>
<path style="fill:rgb(18, 159, 255);fill-opacity:1.0;fill-rule:evenodd;stroke:rgb(0, 0, 0);stroke-width:3.0;" d="M 223.735, 58.9406 L 220.34, 61.0765 L 203.09, 58.9972 L 206.172, 47.2888 z "/>
<path style="fill:rgb(18, 159, 255);fill-opacity:1.0;fill-rule:evenodd;stroke:rgb(0, 0, 0);stroke-width:3.0;" d="M 316.008, 246.373 L 323.135, 261.355 L 296.827, 241.279 z "/>
<path style="fill:rgb(18, 159, 255);fill-opacity:1.0;fill-rule:evenodd;stroke:rgb(0, 0, 0);stroke-width:3.0;" d="M 322.506, 13.976 L 293.032, 8.45059 L 322.594, 6.31201 z "/>
<path style="fill:rgb(59, 33, 226);fill-opacity:1.0;fill-rule:evenodd;stroke:rgb(0, 0, 0);stroke-width:3.0;" d="M 74.4112, 307.1 L 58.5885, 316.302 L 63.6289, 286.111 z "/>
<path style="fill:rgb(59, 33, 226);fill-opacity:1.0;fill-rule:evenodd;stroke:rgb(0, 0, 0);stroke-width:3.0;" d="M 321.812, 521.871 L 295.872, 571.718 L 274.552, 567.155 L 277.873, 545.294 L 311.191, 521.075 z "/>
<path style="fill:rgb(59, 33, 226);fill-opacity:1.0;fill-rule:evenodd;stroke:rgb(0, 0, 0);stroke-width:3.0;" d="M 38.3855, 204.673 L 58.9768, 229.777 L 20.2212, 203.843 L 26.7019, 200.837 z "/>
<path style="fill:rgb(59, 33, 226);fill-opacity:1.0;fill-rule:evenodd;stroke:rgb(0, 0, 0);stroke-width:3.0;" d="M 530.774, 87.0376 L 521.72, 109.207 L 520.002, 109.357 L 525.154, 79.7811 L 533.773, 73.2451 z "/>
<path style="fill:rgb(59, 33, 226);fill-opacity:1.0;fill-rule:evenodd;stroke:rgb(0, 0, 0);stroke-width:3.0;" d="M 387.359, 515.931 L 375.312, 492.969 L 432.971, 315.533 L 485.122, 253.986 z "/>
<path style="fill:rgb(255, 14, 179);fill-opacity:1.0;fill-rule:evenodd;stroke:rgb(0, 0, 0);stroke-width:3.0;" d="M 35.2648, 257.563 L 38.1316, 273.423 L 25.6204, 274.913 L 25.3509, 274.129 L 27.0131, 256.885 z "/>
<path style="fill:rgb(255, 237, 8);fill-opacity:1.0;fill-rule:evenodd;stroke:rgb(0, 0, 0);stroke-width:3.0;" d="M 116.761, 294.813 L 113.932, 306.672 L 101.594, 306.808 L 89.921, 305.828 L 108.415, 292.021 z "/>
<path style="fill:rgb(255, 237, 8);fill-opacity:1.0;fill-rule:evenodd;stroke:rgb(0, 0, 0);stroke-width:3.0;" d="M 114.726, 307.911 L 104.595, 347.287 L 102.483, 347.18 L 85.3209, 309.262 L 89.921, 305.828 z "/>
<path style="fill:rgb(255, 161, 255);fill-opacity:1.0;fill-rule:evenodd;stroke:rgb(0, 0, 0);stroke-width:3.0;" d="M 386.383, 432.752 L 387.96, 454.049 L 385.751, 460.846 L 361.226, 460.666 L 361.596, 459.518 L 384.526, 429.874 z "/>
<path style="fill:rgb(255, 255, 25);fill-opacity:1.0;fill-rule:evenodd;stroke:rgb(0, 0, 0);stroke-width:3.0;" d="M 78.2383, 314.55 L 54.55, 332.235 L 57.2549, 317.078 L 74.4112, 307.1 z "/>
<path style="fill:rgb(255, 255, 22);fill-opacity:1.0;fill-rule:evenodd;stroke:rgb(0, 0, 0);stroke-width:3.0;" d="M 387.079, 220.09 L 389.985, 241.997 L 357.987, 257.52 L 288.342, 239.026 L 275.547, 116.305 L 280.801, 92.407 L 332.776, 85.5606 z "/>
<path style="fill:rgb(255, 255, 22);fill-opacity:1.0;fill-rule:evenodd;stroke:rgb(0, 0, 0);stroke-width:3.0;" d="M 94.4582, 346.774 L 102.584, 355.101 L 101.868, 357.883 L 87.0496, 353.059 L 84.722, 346.281 z "/>
<path style="fill:rgb(255, 255, 22);fill-opacity:1.0;fill-rule:evenodd;stroke:rgb(0, 0, 0);stroke-width:3.0;" d="M 311.995, 17.8769 L 322.331, 29.4022 L 322.248, 36.6981 L 304.905, 32.1799 L 301.383, 28.7458 L 295.323, 16.0874 z "/>
<path style="fill:rgb(255, 255, 22);fill-opacity:1.0;fill-rule:evenodd;stroke:rgb(0, 0, 0);stroke-width:3.0;" d="M 172.082, 91.439 L 159.577, 99.3067 L 154.358, 97.5266 L 170.906, 79.7845 z "/>
<path style="fill:rgb(255, 255, 22);fill-opacity:1.0;fill-rule:evenodd;stroke:rgb(0, 0, 0);stroke-width:3.0;" d="M 659.049, 162.851 L 636.874, 166.526 L 620.154, 130.333 L 699.939, 91.6268 z "/>
<path style="fill:rgb(255, 252, 78);fill-opacity:1.0;fill-rule:evenodd;stroke:rgb(0, 0, 0);stroke-width:3.0;" d="M 646.224, 91.1968 L 620.48, 94.0949 L 630.45, 80.9324 L 646.835, 67.9121 z "/>
<path style="fill:rgb(6, 33, 189);fill-opacity:1.0;fill-rule:evenodd;stroke:rgb(0, 0, 0);stroke-width:3.0;" d="M 383.327, 36.8457 L 378.635, 35.2613 L 384.403, 18.1831 L 391.357, 13.8289 z "/>
<path style="fill:rgb(223, 154, 8);fill-opacity:1.0;fill-rule:evenodd;stroke:rgb(0, 0, 0);stroke-width:3.0;" d="M 645.916, 102.939 L 645.52, 118.027 L 633.462, 123.877 L 630.502, 119.212 L 641.397, 99.4851 z "/>
<path style="fill:rgb(223, 154, 8);fill-opacity:1.0;fill-rule:evenodd;stroke:rgb(0, 0, 0);stroke-width:3.0;" d="M 56.5704, 320.913 L 54.7234, 331.264 L 37.226, 316.778 L 32.1861, 307.524 z "/>
<path style="fill:rgb(223, 154, 8);fill-opacity:1.0;fill-rule:evenodd;stroke:rgb(0, 0, 0);stroke-width:3.0;" d="M 276.435, 74.6081 L 278.504, 78.282 L 266.504, 83.3443 L 248.466, 73.0361 L 261.874, 66.1659 z "/>
<path style="fill:rgb(255, 228, 98);fill-opacity:1.0;fill-rule:evenodd;stroke:rgb(0, 0, 0);stroke-width:3.0;" d="M 537.718, 55.1006 L 452.721, 91.4572 L 464.426, 37.1869 L 545.73, 18.2534 z "/>
<path style="fill:rgb(136, 228, 255);fill-opacity:1.0;fill-rule:evenodd;stroke:rgb(0, 0, 0);stroke-width:3.0;" d="M 587.763, 79.1831 L 586.298, 84.7512 L 575.004, 88.9236 L 572.721, 62.11 z "/>
<path style="fill:rgb(37, 243, 255);fill-opacity:1.0;fill-rule:evenodd;stroke:rgb(0, 0, 0);stroke-width:3.0;" d="M 344.321, 476.626 L 329.52, 481.507 L 317.115, 449.283 z "/>
<path style="fill:rgb(37, 243, 255);fill-opacity:1.0;fill-rule:evenodd;stroke:rgb(0, 0, 0);stroke-width:3.0;" d="M 492.434, 281.759 L 485.804, 253.181 L 515.356, 218.305 z "/>
<path style="fill:rgb(37, 243, 255);fill-opacity:1.0;fill-rule:evenodd;stroke:rgb(0, 0, 0);stroke-width:3.0;" d="M 673.019, 78.8645 L 670.932, 84.6304 L 652.768, 76.0321 L 653.212, 70.7664 L 655.44, 69.4096 z "/>
<path style="fill:rgb(124, 148, 255);fill-opacity:1.0;fill-rule:evenodd;stroke:rgb(0, 0, 0);stroke-width:3.0;" d="M 633.462, 123.877 L 580.182, 149.725 L 578.956, 135.326 L 590.029, 89.6134 L 609.755, 86.5195 z "/>
<path style="fill:rgb(124, 148, 255);fill-opacity:1.0;fill-rule:evenodd;stroke:rgb(0, 0, 0);stroke-width:3.0;" d="M 206.172, 47.2888 L 199.323, 73.308 L 189.21, 76.9166 L 203.587, 45.5738 z "/>
<path style="fill:rgb(124, 148, 255);fill-opacity:1.0;fill-rule:evenodd;stroke:rgb(0, 0, 0);stroke-width:3.0;" d="M 475.134, 318.499 L 414.921, 442.081 L 478.003, 273.061 z "/>
<path style="fill:rgb(124, 148, 255);fill-opacity:1.0;fill-rule:evenodd;stroke:rgb(0, 0, 0);stroke-width:3.0;" d="M 383.327, 36.8457 L 382.244, 39.9491 L 357.607, 35.9099 L 367.199, 31.3994 z "/>
<path style="fill:rgb(255, 157, 7);fill-opacity:1.0;fill-rule:evenodd;stroke:rgb(0, 0, 0);stroke-width:3.0;" d="M 309.225, 520.927 L 273.143, 518.222 L 281.595, 499.373 z "/>
<path style="fill:rgb(255, 43, 255);fill-opacity:1.0;fill-rule:evenodd;stroke:rgb(0, 0, 0);stroke-width:3.0;" d="M 553.872, 58.7576 L 577.829, 122.094 L 579.654, 143.524 L 555.897, 106.546 L 543.964, 58.0869 z "/>
<path style="fill:rgb(255, 43, 255);fill-opacity:1.0;fill-rule:evenodd;stroke:rgb(0, 0, 0);stroke-width:3.0;" d="M 364.462, 79.3961 L 310.749, 65.1407 L 287.962, 55.4548 L 312.775, 48.0028 z "/>
<path style="fill:rgb(255, 1, 76);fill-opacity:1.0;fill-rule:evenodd;stroke:rgb(0, 0, 0);stroke-width:3.0;" d="M 305.101, 43.3416 L 312.775, 48.0028 L 287.962, 55.4548 L 248.267, 38.5822 L 275.216, 36.8412 z "/>
<path style="fill:rgb(30, 255, 255);fill-opacity:1.0;fill-rule:evenodd;stroke:rgb(0, 0, 0);stroke-width:3.0;" d="M 794.722, 6.97216 L 793.101, 18.475 L 765.51, 8.99255 L 768.569, 5.15031 z "/>
<path style="fill:rgb(30, 255, 255);fill-opacity:1.0;fill-rule:evenodd;stroke:rgb(0, 0, 0);stroke-width:3.0;" d="M 627.163, 30.4278 L 631.138, 39.0037 L 619.393, 41.1874 L 617.028, 30.0461 L 619.925, 29.1485 z "/>
<path style="fill:rgb(9, 172, 11);fill-opacity:1.0;fill-rule:evenodd;stroke:rgb(0, 0, 0);stroke-width:3.0;" d="M 423.862, 343.565 L 423.255, 323.736 L 433.217, 314.776 z "/>
<path style="fill:rgb(9, 172, 11);fill-opacity:1.0;fill-rule:evenodd;stroke:rgb(0, 0, 0);stroke-width:3.0;" d="M 556.183, 107.707 L 534.771, 127.161 L 524.052, 117.953 L 527.961, 99.9761 L 553.584, 97.1545 z "/>
<path style="fill:rgb(252, 226, 17);fill-opacity:1.0;fill-rule:evenodd;stroke:rgb(0, 0, 0);stroke-width:3.0;" d="M 635.47, 105.546 L 629.156, 117.092 L 627.677, 114.761 L 628.029, 93.2451 L 629.536, 93.0754 z "/>
<path style="fill:rgb(255, 207, 9);fill-opacity:1.0;fill-rule:evenodd;stroke:rgb(0, 0, 0);stroke-width:3.0;" d="M 56.8727, 396.727 L 60.63, 401.779 L 50.9903, 406.456 L 48.7336, 406.955 L 47.4337, 403.514 L 50.2549, 393.314 z "/>
<path style="fill:rgb(255, 207, 9);fill-opacity:1.0;fill-rule:evenodd;stroke:rgb(0, 0, 0);stroke-width:3.0;" d="M 732.371, 45.7025 L 736.851, 55.7723 L 725.567, 55.6353 L 722.351, 54.4589 L 715.784, 50.2803 L 725.948, 44.1145 z "/>
<path style="fill:rgb(255, 207, 9);fill-opacity:1.0;fill-rule:evenodd;stroke:rgb(0, 0, 0);stroke-width:3.0;" d="M 434.786, 288.133 L 425.077, 309.294 L 420.625, 305.923 L 420.638, 284.034 L 429.946, 283.135 z "/>
<path style="fill:rgb(255, 207, 9);fill-opacity:1.0;fill-rule:evenodd;stroke:rgb(0, 0, 0);stroke-width:3.0;" d="M 492.628, 282.595 L 492.434, 281.759 L 515.356, 218.305 L 535.582, 194.435 z "/>
<path style="fill:rgb(255, 207, 9);fill-opacity:1.0;fill-rule:evenodd;stroke:rgb(0, 0, 0);stroke-width:3.0;" d="M 553.584, 97.1545 L 552.413, 97.2836 L 534.667, 81.0106 L 548.721, 77.4048 z "/>
<path style="fill:rgb(51, 1, 8);fill-opacity:1.0;fill-rule:evenodd;stroke:rgb(0, 0, 0);stroke-width:3.0;" d="M 507.721, 110.432 L 427.166, 117.482 L 412.584, 108.625 L 522.916, 61.4321 z "/>
<path style="fill:rgb(51, 1, 8);fill-opacity:1.0;fill-rule:evenodd;stroke:rgb(0, 0, 0);stroke-width:3.0;" d="M 69.0175, 125.406 L 21.796, 145.193 L 6.40308, 128.552 L 61.3591, 121.313 z "/>
<path style="fill:rgb(255, 25, 32);fill-opacity:1.0;fill-rule:evenodd;stroke:rgb(0, 0, 0);stroke-width:3.0;" d="M 646.965, 183.9 L 641.63, 173.835 L 641.067, 165.831 L 659.049, 162.851 z "/>
<path style="fill:rgb(255, 52, 33);fill-opacity:1.0;fill-rule:evenodd;stroke:rgb(0, 0, 0);stroke-width:3.0;" d="M 65.5851, 345.312 L 52.4032, 344.645 L 48.2188, 336.962 L 83.7622, 310.426 z "/>
<path style="fill:rgb(255, 52, 33);fill-opacity:1.0;fill-rule:evenodd;stroke:rgb(0, 0, 0);stroke-width:3.0;" d="M 449.881, 263.494 L 444.688, 279.475 L 434.84, 266.491 L 431.409, 221.901 L 445.996, 214.824 z "/>
<path style="fill:rgb(255, 52, 33);fill-opacity:1.0;fill-rule:evenodd;stroke:rgb(0, 0, 0);stroke-width:3.0;" d="M 55.7264, 262.231 L 55.0497, 262.45 L 48.1348, 258.341 L 42.5509, 242.45 L 41.0379, 231.048 z "/>
<path style="fill:rgb(255, 231, 15);fill-opacity:1.0;fill-rule:evenodd;stroke:rgb(0, 0, 0);stroke-width:3.0;" d="M 43.096, 258.206 L 45.934, 260.531 L 44.0416, 272.719 L 38.1316, 273.423 L 35.2648, 257.563 z "/>
<path style="fill:rgb(255, 231, 15);fill-opacity:1.0;fill-rule:evenodd;stroke:rgb(0, 0, 0);stroke-width:3.0;" d="M 409.287, 44.3827 L 410.56, 44.9475 L 386.897, 49.6881 L 384.18, 40.2665 z "/>
<path style="fill:rgb(255, 231, 15);fill-opacity:1.0;fill-rule:evenodd;stroke:rgb(0, 0, 0);stroke-width:3.0;" d="M 340.216, 402.882 L 331.879, 410.184 L 326.331, 399.61 L 333.358, 383.939 z "/>
<path style="fill:rgb(255, 231, 15);fill-opacity:1.0;fill-rule:evenodd;stroke:rgb(0, 0, 0);stroke-width:3.0;" d="M 40.4733, 229.85 L 43.4319, 258.481 L 38.5234, 254.459 L 36.2246, 224.084 L 37.7187, 224.002 z "/>
<path style="fill:rgb(255, 64, 170);fill-opacity:1.0;fill-rule:evenodd;stroke:rgb(0, 0, 0);stroke-width:3.0;" d="M 222.03, 266.931 L 199.973, 264.76 L 200.845, 241.197 L 219.849, 238.795 z "/>
<path style="fill:rgb(255, 64, 170);fill-opacity:1.0;fill-rule:evenodd;stroke:rgb(0, 0, 0);stroke-width:3.0;" d="M 38.5234, 254.459 L 27.6318, 245.535 L 36.8718, 232.635 z "/>
<path style="fill:rgb(255, 2, 10);fill-opacity:1.0;fill-rule:evenodd;stroke:rgb(0, 0, 0);stroke-width:3.0;" d="M 287.032, 226.459 L 269.959, 214.407 L 283.88, 196.227 z "/>
<path style="fill:rgb(252, 255, 47);fill-opacity:1.0;fill-rule:evenodd;stroke:rgb(0, 0, 0);stroke-width:3.0;" d="M 673.929, 38.2433 L 647.371, 47.4748 L 647.681, 35.6515 L 670.087, 31.5206 z "/>
<path style="fill:rgb(252, 255, 47);fill-opacity:1.0;fill-rule:evenodd;stroke:rgb(0, 0, 0);stroke-width:3.0;" d="M 670.087, 31.5206 L 647.681, 35.6515 L 647.818, 30.4478 L 665.131, 22.8484 z "/>
<path style="fill:rgb(252, 255, 47);fill-opacity:1.0;fill-rule:evenodd;stroke:rgb(0, 0, 0);stroke-width:3.0;" d="M 203.587, 45.5738 L 186.795, 82.1819 L 175.699, 89.1634 L 176.962, 73.2924 L 203.111, 45.2575 z "/>
<path style="fill:rgb(12, 119, 187);fill-opacity:1.0;fill-rule:evenodd;stroke:rgb(0, 0, 0);stroke-width:3.0;" d="M 353.283, 381.449 L 347.275, 412.462 L 337.777, 396.144 L 333.358, 383.939 L 337.478, 374.75 L 347.151, 371.946 z "/>
<path style="fill:rgb(12, 119, 187);fill-opacity:1.0;fill-rule:evenodd;stroke:rgb(0, 0, 0);stroke-width:3.0;" d="M 76.7929, 291.962 L 69.8658, 298.252 L 63.3928, 285.651 L 74.0834, 284.648 z "/>
<path style="fill:rgb(223, 255, 6);fill-opacity:1.0;fill-rule:evenodd;stroke:rgb(0, 0, 0);stroke-width:3.0;" d="M 44.0837, 371.794 L 28.3774, 390.754 L 26.9572, 352.665 z "/>
<path style="fill:rgb(223, 255, 6);fill-opacity:1.0;fill-rule:evenodd;stroke:rgb(0, 0, 0);stroke-width:3.0;" d="M 423.685, 115.367 L 496.52, 171.034 L 482.89, 175.808 L 388.584, 94.0475 z "/>
<path style="fill:rgb(223, 255, 6);fill-opacity:1.0;fill-rule:evenodd;stroke:rgb(0, 0, 0);stroke-width:3.0;" d="M 427.759, 76.4074 L 432.814, 96.4366 L 394.334, 70.187 z "/>
<path style="fill:rgb(223, 255, 6);fill-opacity:1.0;fill-rule:evenodd;stroke:rgb(0, 0, 0);stroke-width:3.0;" d="M 725.948, 44.1145 L 710.361, 53.5701 L 705.818, 39.1371 z "/>
<path style="fill:rgb(255, 255, 14);fill-opacity:1.0;fill-rule:evenodd;stroke:rgb(0, 0, 0);stroke-width:3.0;" d="M 190.551, 367.434 L 191.197, 384.441 L 190.3, 386.793 L 176.512, 360.664 L 179.983, 356.595 z "/>
<path style="fill:rgb(255, 255, 14);fill-opacity:1.0;fill-rule:evenodd;stroke:rgb(0, 0, 0);stroke-width:3.0;" d="M 285.486, 238.268 L 257.401, 230.81 L 267.049, 218.208 z "/>
<path style="fill:rgb(255, 249, 42);fill-opacity:1.0;fill-rule:evenodd;stroke:rgb(0, 0, 0);stroke-width:3.0;" d="M 84.5506, 298.873 L 79.7015, 299.813 L 69.0861, 271.158 L 78.0168, 266.527 z "/>
<path style="fill:rgb(215, 138, 243);fill-opacity:1.0;fill-rule:evenodd;stroke:rgb(0, 0, 0);stroke-width:3.0;" d="M 21.8302, 263.886 L 28.5852, 283.539 L 20.0193, 285.184 L 11.6466, 269.811 L 11.7515, 263.502 z "/>
<path style="fill:rgb(255, 23, 194);fill-opacity:1.0;fill-rule:evenodd;stroke:rgb(0, 0, 0);stroke-width:3.0;" d="M 18.2762, 381.777 L 10.6259, 426.038 L 5.37707, 428.584 L 7.20772, 411.903 L 16.1489, 376.364 z "/>
<path style="fill:rgb(255, 16, 130);fill-opacity:1.0;fill-rule:evenodd;stroke:rgb(0, 0, 0);stroke-width:3.0;" d="M 437.483, 301.647 L 433.217, 314.776 L 420.613, 326.113 L 420.617, 319.013 L 424.672, 310.177 L 434.682, 300.589 z "/>
<path style="fill:rgb(121, 56, 255);fill-opacity:1.0;fill-rule:evenodd;stroke:rgb(0, 0, 0);stroke-width:3.0;" d="M 266.945, 532.043 L 245.109, 580.739 L 192.096, 560.845 L 223.722, 450.131 z "/>
<path style="fill:rgb(121, 56, 255);fill-opacity:1.0;fill-rule:evenodd;stroke:rgb(0, 0, 0);stroke-width:3.0;" d="M 385.571, 460.845 L 373.793, 476.877 L 367.501, 469.616 L 372.624, 460.75 z "/>
<path style="fill:rgb(255, 197, 31);fill-opacity:1.0;fill-rule:evenodd;stroke:rgb(0, 0, 0);stroke-width:3.0;" d="M 393.195, 250.498 L 391.382, 251.759 L 383.71, 250.667 L 385.557, 244.145 L 398.96, 237.643 z "/>
<path style="fill:rgb(255, 197, 31);fill-opacity:1.0;fill-rule:evenodd;stroke:rgb(0, 0, 0);stroke-width:3.0;" d="M 456.869, 198.863 L 454.609, 201.76 L 441.682, 197.817 L 448.18, 187.965 L 454.078, 185.899 z "/>
<path style="fill:rgb(255, 197, 31);fill-opacity:1.0;fill-rule:evenodd;stroke:rgb(0, 0, 0);stroke-width:3.0;" d="M 31.3045, 326.063 L 34.0806, 338.928 L 11.4957, 323.232 L 12.2404, 315.878 L 18.6085, 312.864 z "/>
<path style="fill:rgb(255, 15, 175);fill-opacity:1.0;fill-rule:evenodd;stroke:rgb(0, 0, 0);stroke-width:3.0;" d="M 343.266, 431.888 L 342.024, 438.196 L 323.339, 423.798 L 334.691, 415.545 z "/>
<path style="fill:rgb(56, 255, 152);fill-opacity:1.0;fill-rule:evenodd;stroke:rgb(0, 0, 0);stroke-width:3.0;" d="M 699.978, 37.6932 L 701.326, 42.6664 L 692.419, 49.884 L 688.745, 46.269 L 693.259, 36.0317 z "/>
<path style="fill:rgb(56, 255, 152);fill-opacity:1.0;fill-rule:evenodd;stroke:rgb(0, 0, 0);stroke-width:3.0;" d="M 92.1879, 121.324 L 89.9234, 134.013 L 87.7818, 135.435 L 61.3591, 121.313 L 89.3072, 117.631 z "/>
<path style="fill:rgb(255, 4, 18);fill-opacity:1.0;fill-rule:evenodd;stroke:rgb(0, 0, 0);stroke-width:3.0;" d="M 160.737, 190.084 L 159.255, 202.614 L 158.171, 203.453 L 147.166, 193.416 L 157.251, 188.224 z "/>
<path style="fill:rgb(95, 234, 189);fill-opacity:1.0;fill-rule:evenodd;stroke:rgb(0, 0, 0);stroke-width:3.0;" d="M 60.1981, 367.453 L 61.5756, 373.357 L 53.7012, 382.535 L 49.4542, 377.792 L 53.0886, 360.275 L 54.4061, 358.861 z "/>
<path style="fill:rgb(255, 212, 37);fill-opacity:1.0;fill-rule:evenodd;stroke:rgb(0, 0, 0);stroke-width:3.0;" d="M 15.5157, 354.714 L 20.2245, 381.671 L 17.6466, 380.175 L 8.39363, 356.628 L 12.1802, 354.348 z "/>
<path style="fill:rgb(255, 41, 16);fill-opacity:1.0;fill-rule:evenodd;stroke:rgb(0, 0, 0);stroke-width:3.0;" d="M 454.609, 201.76 L 443.458, 216.055 L 423.16, 225.902 L 441.682, 197.817 z "/>
<path style="fill:rgb(255, 41, 16);fill-opacity:1.0;fill-rule:evenodd;stroke:rgb(0, 0, 0);stroke-width:3.0;" d="M 388.584, 94.0475 L 482.89, 175.808 L 385.719, 209.841 L 368.759, 82.0063 z "/>
<path style="fill:rgb(255, 255, 59);fill-opacity:1.0;fill-rule:evenodd;stroke:rgb(0, 0, 0);stroke-width:3.0;" d="M 459.55, 233.741 L 456.007, 244.642 L 448.637, 247.907 L 447.83, 237.8 L 454.556, 233.535 z "/>
<path style="fill:rgb(255, 255, 59);fill-opacity:1.0;fill-rule:evenodd;stroke:rgb(0, 0, 0);stroke-width:3.0;" d="M 482.343, 150.995 L 479.091, 157.713 L 423.685, 115.367 z "/>
<path style="fill:rgb(255, 255, 59);fill-opacity:1.0;fill-rule:evenodd;stroke:rgb(0, 0, 0);stroke-width:3.0;" d="M 311.191, 521.075 L 277.873, 545.294 L 281.887, 518.877 z "/>
<path style="fill:rgb(154, 255, 223);fill-opacity:1.0;fill-rule:evenodd;stroke:rgb(0, 0, 0);stroke-width:3.0;" d="M 244.425, 202.872 L 224.665, 210.919 L 218.267, 208.866 L 227.256, 190.09 L 232.247, 189.831 z "/>
<path style="fill:rgb(154, 255, 223);fill-opacity:1.0;fill-rule:evenodd;stroke:rgb(0, 0, 0);stroke-width:3.0;" d="M 374.158, 51.3801 L 381.205, 59.6655 L 381.095, 59.7056 L 341.425, 39.6721 L 344.661, 34.4242 z "/>
<path style="fill:rgb(81, 255, 255);fill-opacity:1.0;fill-rule:evenodd;stroke:rgb(0, 0, 0);stroke-width:3.0;" d="M 181.493, 262.942 L 127.66, 257.645 L 129.574, 250.205 L 189.491, 242.632 z "/>
<path style="fill:rgb(237, 220, 8);fill-opacity:1.0;fill-rule:evenodd;stroke:rgb(0, 0, 0);stroke-width:3.0;" d="M 295.89, 492.595 L 282.682, 496.949 L 296.767, 465.538 z "/>
<path style="fill:rgb(255, 161, 255);fill-opacity:1.0;fill-rule:evenodd;stroke:rgb(0, 0, 0);stroke-width:3.0;" d="M 586.182, 289.775 L 577.567, 256.172 L 609.447, 249.251 z "/>
<path style="fill:rgb(45, 249, 187);fill-opacity:1.0;fill-rule:evenodd;stroke:rgb(0, 0, 0);stroke-width:3.0;" d="M 427.759, 76.4074 L 399.552, 71.158 L 422.801, 56.7673 z "/>
<path style="fill:rgb(45, 249, 187);fill-opacity:1.0;fill-rule:evenodd;stroke:rgb(0, 0, 0);stroke-width:3.0;" d="M 199.973, 264.76 L 181.493, 262.942 L 187.4, 247.941 L 194.777, 241.964 L 200.845, 241.197 z "/>
<path style="fill:rgb(255, 252, 56);fill-opacity:1.0;fill-rule:evenodd;stroke:rgb(0, 0, 0);stroke-width:3.0;" d="M 524.626, 176.677 L 511.95, 182.827 L 479.091, 157.713 L 482.343, 150.995 z "/>
<path style="fill:rgb(255, 252, 56);fill-opacity:1.0;fill-rule:evenodd;stroke:rgb(0, 0, 0);stroke-width:3.0;" d="M 472.453, 268.937 L 441.424, 289.52 L 469.384, 203.477 L 568.778, 155.258 z "/>
<path style="fill:rgb(255, 108, 18);fill-opacity:1.0;fill-rule:evenodd;stroke:rgb(0, 0, 0);stroke-width:3.0;" d="M 339.988, 308.725 L 351.686, 343.065 L 347.222, 353.021 L 334.368, 303.737 z "/>
<path style="fill:rgb(255, 249, 70);fill-opacity:1.0;fill-rule:evenodd;stroke:rgb(0, 0, 0);stroke-width:3.0;" d="M 793.101, 18.475 L 788.872, 48.4821 L 781.721, 51.9513 L 752.823, 24.9299 L 765.51, 8.99255 z "/>
<path style="fill:rgb(10, 112, 255);fill-opacity:1.0;fill-rule:evenodd;stroke:rgb(0, 0, 0);stroke-width:3.0;" d="M 548.059, 93.2909 L 552.413, 97.2836 L 527.961, 99.9761 L 530.232, 89.5303 z "/>
<path style="fill:rgb(255, 0, 25);fill-opacity:1.0;fill-rule:evenodd;stroke:rgb(0, 0, 0);stroke-width:3.0;" d="M 215.387, 214.88 L 213.725, 218.35 L 146.938, 182.723 L 152.377, 161.584 L 182.273, 158.16 z "/>
<path style="fill:rgb(246, 25, 194);fill-opacity:1.0;fill-rule:evenodd;stroke:rgb(0, 0, 0);stroke-width:3.0;" d="M 224.849, 195.118 L 210.107, 205.837 L 191.259, 173.553 L 236.874, 170.001 z "/>
<path style="fill:rgb(255, 48, 97);fill-opacity:1.0;fill-rule:evenodd;stroke:rgb(0, 0, 0);stroke-width:3.0;" d="M 574.91, 87.817 L 577.829, 122.094 L 564.318, 86.3731 z "/>
<path style="fill:rgb(15, 255, 165);fill-opacity:1.0;fill-rule:evenodd;stroke:rgb(0, 0, 0);stroke-width:3.0;" d="M 296.827, 241.279 L 333.609, 269.347 L 318.936, 276.465 L 222.03, 266.931 L 220.981, 253.4 L 296.724, 241.252 z "/>
<path style="fill:rgb(255, 92, 6);fill-opacity:1.0;fill-rule:evenodd;stroke:rgb(0, 0, 0);stroke-width:3.0;" d="M 296.724, 241.252 L 220.981, 253.4 L 218.427, 220.46 z "/>
<path style="fill:rgb(252, 172, 7);fill-opacity:1.0;fill-rule:evenodd;stroke:rgb(0, 0, 0);stroke-width:3.0;" d="M 186.999, 154.772 L 186.832, 157.638 L 152.377, 161.584 L 154.591, 152.978 z "/>
<path style="fill:rgb(223, 234, 10);fill-opacity:1.0;fill-rule:evenodd;stroke:rgb(0, 0, 0);stroke-width:3.0;" d="M 186.999, 154.772 L 154.591, 152.978 L 166.295, 107.49 L 189.946, 104.375 z "/>
<path style="fill:rgb(240, 255, 28);fill-opacity:1.0;fill-rule:evenodd;stroke:rgb(0, 0, 0);stroke-width:3.0;" d="M 363.271, 396.931 L 353.323, 410.293 L 348.04, 413.775 L 347.275, 412.462 L 353.283, 381.449 z "/>
<path style="fill:rgb(255, 35, 226);fill-opacity:1.0;fill-rule:evenodd;stroke:rgb(0, 0, 0);stroke-width:3.0;" d="M 200.373, 563.951 L 201.937, 579.249 L 77.3046, 544.077 L 82.1967, 519.604 z "/>
<path style="fill:rgb(18, 48, 255);fill-opacity:1.0;fill-rule:evenodd;stroke:rgb(0, 0, 0);stroke-width:3.0;" d="M 357.797, 257.47 L 323.486, 261.557 L 318.004, 246.903 z "/>
<path style="fill:rgb(255, 1, 39);fill-opacity:1.0;fill-rule:evenodd;stroke:rgb(0, 0, 0);stroke-width:3.0;" d="M 102.483, 347.18 L 65.9526, 345.331 L 85.8897, 310.519 z "/>
<path style="fill:rgb(182, 45, 184);fill-opacity:1.0;fill-rule:evenodd;stroke:rgb(0, 0, 0);stroke-width:3.0;" d="M 276.825, 128.565 L 282.842, 186.278 L 259.448, 189.539 L 272.915, 128.28 z "/>
<path style="fill:rgb(255, 50, 49);fill-opacity:1.0;fill-rule:evenodd;stroke:rgb(0, 0, 0);stroke-width:3.0;" d="M 279.493, 534.633 L 277.64, 546.832 L 268.037, 545.568 L 265.255, 535.812 L 272.981, 518.583 z "/>
<path style="fill:rgb(252, 163, 49);fill-opacity:1.0;fill-rule:evenodd;stroke:rgb(0, 0, 0);stroke-width:3.0;" d="M 248.76, 207.514 L 232.247, 189.831 L 245.273, 189.156 z "/>
<path style="fill:rgb(217, 62, 255);fill-opacity:1.0;fill-rule:evenodd;stroke:rgb(0, 0, 0);stroke-width:3.0;" d="M 36.5877, 228.882 L 36.8718, 232.635 L 27.6318, 245.535 L 16.3662, 236.304 L 33.2665, 224.247 L 34.2424, 224.193 z "/>
<path style="fill:rgb(255, 255, 57);fill-opacity:1.0;fill-rule:evenodd;stroke:rgb(0, 0, 0);stroke-width:3.0;" d="M 682.367, 53.0073 L 671.723, 59.4908 L 659.106, 57.5884 L 662.555, 55.2874 L 679.246, 47.5467 z "/>
<path style="fill:rgb(255, 11, 57);fill-opacity:1.0;fill-rule:evenodd;stroke:rgb(0, 0, 0);stroke-width:3.0;" d="M 438.41, 547.174 L 434.672, 553.686 L 428.669, 558.374 L 418.948, 557.133 L 410.911, 546.036 z "/>
<path style="fill:rgb(55, 255, 252);fill-opacity:1.0;fill-rule:evenodd;stroke:rgb(0, 0, 0);stroke-width:3.0;" d="M 553.872, 58.7576 L 543.964, 58.0869 L 540.302, 43.2166 L 543.11, 30.3046 z "/>
<path style="fill:rgb(255, 40, 255);fill-opacity:1.0;fill-rule:evenodd;stroke:rgb(0, 0, 0);stroke-width:3.0;" d="M 421.582, 560.769 L 426.615, 567.719 L 424.399, 571.581 L 417.346, 570.668 L 409.903, 562.616 L 411.229, 558.145 z "/>
<path style="fill:rgb(202, 209, 255);fill-opacity:1.0;fill-rule:evenodd;stroke:rgb(0, 0, 0);stroke-width:3.0;" d="M 533.773, 73.2451 L 525.154, 79.7811 L 528.788, 58.9205 L 537.718, 55.1006 z "/>
<path style="fill:rgb(17, 231, 220);fill-opacity:1.0;fill-rule:evenodd;stroke:rgb(0, 0, 0);stroke-width:3.0;" d="M 667.531, 52.9798 L 651.176, 60.5644 L 654.953, 44.8394 L 660.048, 43.0683 z "/>
<path style="fill:rgb(13, 47, 199);fill-opacity:1.0;fill-rule:evenodd;stroke:rgb(0, 0, 0);stroke-width:3.0;" d="M 423.16, 225.902 L 390.582, 241.707 L 385.749, 209.831 L 448.18, 187.965 z "/>
<path style="fill:rgb(212, 182, 26);fill-opacity:1.0;fill-rule:evenodd;stroke:rgb(0, 0, 0);stroke-width:3.0;" d="M 248.76, 207.514 L 251.012, 219.373 L 224.665, 210.919 L 244.425, 202.872 z "/>
<path style="fill:rgb(237, 128, 132);fill-opacity:1.0;fill-rule:evenodd;stroke:rgb(0, 0, 0);stroke-width:3.0;" d="M 395.717, 554.214 L 404.1, 556.338 L 417.346, 570.668 L 380.759, 565.934 L 387.266, 553.915 z "/>
<path style="fill:rgb(255, 209, 11);fill-opacity:1.0;fill-rule:evenodd;stroke:rgb(0, 0, 0);stroke-width:3.0;" d="M 565.396, 325.982 L 548.516, 355.385 L 548.459, 354.826 L 549.553, 336.132 L 558.988, 322.959 z "/>
<path style="fill:rgb(42, 121, 255);fill-opacity:1.0;fill-rule:evenodd;stroke:rgb(0, 0, 0);stroke-width:3.0;" d="M 583.252, 62.2703 L 585.241, 68.1737 L 588.218, 77.4567 L 587.763, 79.1831 L 572.721, 62.11 L 572.48, 59.2803 z "/>
</svg>