<?xml version="1.0" encoding="iso-8859-1" standalone="no"?>
<!DOCTYPE svg PUBLIC "-//W3C//DTD SVG 1.0//EN" "http://www.w3.org/TR/2001/REC-SVG-20010904/DTD/svg10.dtd">
<svg xmlns="http://www.w3.org/2000/svg" width="800" height="600">
<path style="fill:rgb(0, 0, 0);fill-opacity:0.0;fill-rule:evenodd;stroke:rgb(0, 0, 0);stroke-width:0.0;" d="M 0, 600 L 800, 600 L 800, 0 L 0, 0 z "/>
<path style="fill:rgb(252, 249, 102);fill-opacity:1.0;fill-rule:evenodd;stroke:rgb(0, 0, 0);stroke-width:3.0;" d="M 486.523, 391.595 L 543.631, 423.356 L 558.753, 465.632 L 499.805, 448.645 L 458.893, 379.467 z "/>
<path style="fill:rgb(100, 231, 255);fill-opacity:1.0;fill-rule:evenodd;stroke:rgb(0, 0, 0);stroke-width:3.0;" d="M 790.864, 559.987 L 686.788, 579.425 L 682.015, 555.335 L 694.844, 542.693 L 773.039, 535.89 z "/>
<path style="fill:rgb(10, 0, 172);fill-opacity:1.0;fill-rule:evenodd;stroke:rgb(0, 0, 0);stroke-width:3.0;" d="M 610.106, 183.08 L 583.006, 201.858 L 503.63, 235.375 L 504.57, 165.615 L 531.384, 147.235 z "/>
<path style="fill:rgb(10, 0, 172);fill-opacity:1.0;fill-rule:evenodd;stroke:rgb(0, 0, 0);stroke-width:3.0;" d="M 673.668, 562.926 L 673.377, 563.847 L 659.035, 577.981 L 658.123, 577.898 L 660.716, 563.643 L 670.664, 558.878 z "/>
<path style="fill:rgb(126, 91, 255);fill-opacity:1.0;fill-rule:evenodd;stroke:rgb(0, 0, 0);stroke-width:3.0;" d="M 384.447, 346.788 L 396.032, 366.859 L 358.698, 337.115 L 357.677, 335.037 z "/>
<path style="fill:rgb(228, 163, 161);fill-opacity:1.0;fill-rule:evenodd;stroke:rgb(0, 0, 0);stroke-width:3.0;" d="M 582.634, 161.323 L 580.566, 157.905 L 636.724, 102.044 z "/>
<path style="fill:rgb(228, 163, 161);fill-opacity:1.0;fill-rule:evenodd;stroke:rgb(0, 0, 0);stroke-width:3.0;" d="M 694.423, 526.499 L 678.132, 533.036 L 678.696, 521.709 L 692.576, 517.773 z "/>
<path style="fill:rgb(228, 163, 161);fill-opacity:1.0;fill-rule:evenodd;stroke:rgb(0, 0, 0);stroke-width:3.0;" d="M 424.184, 470.344 L 345.886, 486.225 L 383.57, 425.946 L 398.643, 418.381 z "/>
<path style="fill:rgb(33, 255, 237);fill-opacity:1.0;fill-rule:evenodd;stroke:rgb(0, 0, 0);stroke-width:3.0;" d="M 383.131, 569.815 L 356.309, 572.148 L 344.561, 555.03 z "/>
<path style="fill:rgb(33, 255, 237);fill-opacity:1.0;fill-rule:evenodd;stroke:rgb(0, 0, 0);stroke-width:3.0;" d="M 538.02, 479.984 L 542.496, 488.043 L 522.86, 493.764 L 525.442, 484.146 L 537.4, 479.491 z "/>
<path style="fill:rgb(33, 255, 237);fill-opacity:1.0;fill-rule:evenodd;stroke:rgb(0, 0, 0);stroke-width:3.0;" d="M 459.548, 386.533 L 450.797, 397 L 435.583, 385.53 L 445.778, 385.094 z "/>
<path style="fill:rgb(33, 255, 237);fill-opacity:1.0;fill-rule:evenodd;stroke:rgb(0, 0, 0);stroke-width:3.0;" d="M 535.018, 522.698 L 515.945, 520.124 L 518.247, 517.398 L 542.275, 515.517 z "/>
<path style="fill:rgb(33, 255, 237);fill-opacity:1.0;fill-rule:evenodd;stroke:rgb(0, 0, 0);stroke-width:3.0;" d="M 170.313, 59.9499 L 137.711, 75.174 L 135.138, 38.8054 L 136.034, 38.1904 z "/>
<path style="fill:rgb(33, 255, 237);fill-opacity:1.0;fill-rule:evenodd;stroke:rgb(0, 0, 0);stroke-width:3.0;" d="M 723.961, 65.5743 L 703.521, 62.8028 L 730.879, 49.3972 z "/>
<path style="fill:rgb(8, 1, 255);fill-opacity:1.0;fill-rule:evenodd;stroke:rgb(0, 0, 0);stroke-width:3.0;" d="M 324.246, 45.6023 L 316.605, 43.6427 L 317.569, 35.4794 L 342.704, 28.6584 z "/>
<path style="fill:rgb(8, 1, 255);fill-opacity:1.0;fill-rule:evenodd;stroke:rgb(0, 0, 0);stroke-width:3.0;" d="M 449.672, 426.64 L 517.462, 513.867 L 511.607, 535.669 L 467.13, 557.716 L 392.934, 406.766 z "/>
<path style="fill:rgb(8, 1, 255);fill-opacity:1.0;fill-rule:evenodd;stroke:rgb(0, 0, 0);stroke-width:3.0;" d="M 451.805, 547.316 L 428.786, 548.236 L 437.096, 517.932 z "/>
<path style="fill:rgb(30, 255, 255);fill-opacity:1.0;fill-rule:evenodd;stroke:rgb(0, 0, 0);stroke-width:3.0;" d="M 417.376, 249.048 L 427.812, 265.232 L 380.173, 250.882 L 394.856, 240.818 z "/>
<path style="fill:rgb(30, 255, 255);fill-opacity:1.0;fill-rule:evenodd;stroke:rgb(0, 0, 0);stroke-width:3.0;" d="M 492.452, 436.211 L 490.613, 435.842 L 473.632, 427.063 L 479.175, 420.832 L 483.219, 420.6 z "/>
<path style="fill:rgb(30, 255, 255);fill-opacity:1.0;fill-rule:evenodd;stroke:rgb(0, 0, 0);stroke-width:3.0;" d="M 47.4553, 117.32 L 18.0458, 131.053 L 16.9611, 130.45 L 42.5003, 108.93 z "/>
<path style="fill:rgb(30, 255, 255);fill-opacity:1.0;fill-rule:evenodd;stroke:rgb(0, 0, 0);stroke-width:3.0;" d="M 432.775, 396.134 L 493.695, 454.214 L 475.613, 460.019 L 414.889, 381.883 z "/>
<path style="fill:rgb(30, 255, 255);fill-opacity:1.0;fill-rule:evenodd;stroke:rgb(0, 0, 0);stroke-width:3.0;" d="M 687.161, 116.318 L 647.208, 90.554 L 647.468, 90.2699 L 654.283, 86.9301 z "/>
<path style="fill:rgb(30, 255, 255);fill-opacity:1.0;fill-rule:evenodd;stroke:rgb(0, 0, 0);stroke-width:3.0;" d="M 769.492, 35.5519 L 747.819, 50.631 L 730.344, 50.648 L 730.879, 49.3972 L 766.229, 32.075 z "/>
<path style="fill:rgb(30, 255, 255);fill-opacity:1.0;fill-rule:evenodd;stroke:rgb(0, 0, 0);stroke-width:3.0;" d="M 425.34, 560.801 L 423.343, 543.237 L 433.552, 530.856 z "/>
<path style="fill:rgb(215, 71, 255);fill-opacity:1.0;fill-rule:evenodd;stroke:rgb(0, 0, 0);stroke-width:3.0;" d="M 615.537, 525.72 L 598.765, 522.149 L 618.358, 497.483 L 621.022, 496.877 z "/>
<path style="fill:rgb(215, 71, 255);fill-opacity:1.0;fill-rule:evenodd;stroke:rgb(0, 0, 0);stroke-width:3.0;" d="M 407.736, 347.779 L 413.629, 351.056 L 410.796, 357.735 L 400.074, 353.648 L 375.324, 342.784 z "/>
<path style="fill:rgb(223, 23, 255);fill-opacity:1.0;fill-rule:evenodd;stroke:rgb(0, 0, 0);stroke-width:3.0;" d="M 350.787, 190.906 L 242.699, 221.857 L 320.53, 85.8397 z "/>
<path style="fill:rgb(223, 23, 255);fill-opacity:1.0;fill-rule:evenodd;stroke:rgb(0, 0, 0);stroke-width:3.0;" d="M 577.065, 124.768 L 550.469, 137.801 L 556.278, 130.171 L 572.469, 119.073 z "/>
<path style="fill:rgb(249, 255, 23);fill-opacity:1.0;fill-rule:evenodd;stroke:rgb(0, 0, 0);stroke-width:3.0;" d="M 126.17, 588.589 L 76.5128, 592.569 L 105.485, 544.854 z "/>
<path style="fill:rgb(249, 255, 23);fill-opacity:1.0;fill-rule:evenodd;stroke:rgb(0, 0, 0);stroke-width:3.0;" d="M 621.583, 466.709 L 637.993, 475.836 L 627.862, 486.55 L 579.324, 468.671 L 580.551, 449.667 z "/>
<path style="fill:rgb(249, 255, 23);fill-opacity:1.0;fill-rule:evenodd;stroke:rgb(0, 0, 0);stroke-width:3.0;" d="M 775.914, 42.3934 L 766.213, 60.1517 L 735.207, 59.4053 L 769.492, 35.5519 z "/>
<path style="fill:rgb(249, 255, 23);fill-opacity:1.0;fill-rule:evenodd;stroke:rgb(0, 0, 0);stroke-width:3.0;" d="M 561.92, 554.259 L 558.787, 554.531 L 559.454, 536.399 L 571.899, 517.975 z "/>
<path style="fill:rgb(249, 255, 23);fill-opacity:1.0;fill-rule:evenodd;stroke:rgb(0, 0, 0);stroke-width:3.0;" d="M 531.801, 501.342 L 521.449, 499.018 L 522.86, 493.764 L 543.203, 487.837 z "/>
<path style="fill:rgb(249, 255, 23);fill-opacity:1.0;fill-rule:evenodd;stroke:rgb(0, 0, 0);stroke-width:3.0;" d="M 311.358, 532.29 L 319.54, 555.971 L 256.534, 522.269 z "/>
<path style="fill:rgb(255, 69, 15);fill-opacity:1.0;fill-rule:evenodd;stroke:rgb(0, 0, 0);stroke-width:3.0;" d="M 312.684, 259.884 L 278.794, 240.14 L 284.171, 232.164 z "/>
<path style="fill:rgb(255, 69, 15);fill-opacity:1.0;fill-rule:evenodd;stroke:rgb(0, 0, 0);stroke-width:3.0;" d="M 199.866, 46.1503 L 186.787, 52.2574 L 168.577, 45.5379 L 168.271, 32.2764 L 168.339, 32.0676 z "/>
<path style="fill:rgb(255, 69, 15);fill-opacity:1.0;fill-rule:evenodd;stroke:rgb(0, 0, 0);stroke-width:3.0;" d="M 341.083, 49.9208 L 314.054, 97.1567 L 288.966, 85.95 L 338.195, 49.1801 z "/>
<path style="fill:rgb(21, 240, 255);fill-opacity:1.0;fill-rule:evenodd;stroke:rgb(0, 0, 0);stroke-width:3.0;" d="M 592.803, 523.631 L 574.196, 508.807 L 568.533, 492.973 L 624.978, 489.601 z "/>
<path style="fill:rgb(220, 136, 34);fill-opacity:1.0;fill-rule:evenodd;stroke:rgb(0, 0, 0);stroke-width:3.0;" d="M 408.144, 259.308 L 418.279, 271.414 L 334.236, 306.902 L 314.477, 295.913 L 380.173, 250.882 z "/>
<path style="fill:rgb(220, 136, 34);fill-opacity:1.0;fill-rule:evenodd;stroke:rgb(0, 0, 0);stroke-width:3.0;" d="M 215.219, 78.0635 L 212.668, 81.4204 L 176.941, 70.1443 L 184.54, 67.6006 L 215.724, 65.6525 z "/>
<path style="fill:rgb(220, 136, 34);fill-opacity:1.0;fill-rule:evenodd;stroke:rgb(0, 0, 0);stroke-width:3.0;" d="M 168.339, 32.0676 L 164.446, 44.0133 L 134.731, 33.048 L 133.563, 16.5336 z "/>
<path style="fill:rgb(220, 136, 34);fill-opacity:1.0;fill-rule:evenodd;stroke:rgb(0, 0, 0);stroke-width:3.0;" d="M 367.799, 559.053 L 371.168, 564.47 L 341.675, 550.825 L 341.406, 550.433 L 350.896, 549.391 z "/>
<path style="fill:rgb(220, 136, 34);fill-opacity:1.0;fill-rule:evenodd;stroke:rgb(0, 0, 0);stroke-width:3.0;" d="M 601.974, 455.804 L 602.098, 458.616 L 548.243, 436.248 L 547.598, 434.446 L 551.579, 428.549 L 552.485, 428.28 z "/>
<path style="fill:rgb(220, 136, 34);fill-opacity:1.0;fill-rule:evenodd;stroke:rgb(0, 0, 0);stroke-width:3.0;" d="M 261.743, 587.906 L 246.174, 590.799 L 243.231, 581.987 L 258.624, 580.648 z "/>
<path style="fill:rgb(255, 255, 54);fill-opacity:1.0;fill-rule:evenodd;stroke:rgb(0, 0, 0);stroke-width:3.0;" d="M 325.875, 534.944 L 326.986, 544.569 L 321.453, 549.029 L 315.417, 533.032 z "/>
<path style="fill:rgb(255, 255, 54);fill-opacity:1.0;fill-rule:evenodd;stroke:rgb(0, 0, 0);stroke-width:3.0;" d="M 194.449, 66.9816 L 171.468, 68.4171 L 159.96, 64.7848 L 173.901, 58.2748 z "/>
<path style="fill:rgb(255, 66, 36);fill-opacity:1.0;fill-rule:evenodd;stroke:rgb(0, 0, 0);stroke-width:3.0;" d="M 101.858, 537.187 L 76.8847, 562.088 L 82.0481, 539.738 L 101.225, 535.849 z "/>
<path style="fill:rgb(255, 66, 36);fill-opacity:1.0;fill-rule:evenodd;stroke:rgb(0, 0, 0);stroke-width:3.0;" d="M 332.766, 548.396 L 336.785, 565.196 L 320.257, 556.355 L 318.389, 551.499 L 330.717, 541.561 z "/>
<path style="fill:rgb(255, 66, 36);fill-opacity:1.0;fill-rule:evenodd;stroke:rgb(0, 0, 0);stroke-width:3.0;" d="M 618.464, 186.886 L 583.006, 201.858 L 610.106, 183.08 z "/>
<path style="fill:rgb(14, 70, 243);fill-opacity:1.0;fill-rule:evenodd;stroke:rgb(0, 0, 0);stroke-width:3.0;" d="M 696.402, 542.558 L 682.345, 543.781 L 673.003, 535.094 L 691.066, 527.846 z "/>
<path style="fill:rgb(22, 81, 204);fill-opacity:1.0;fill-rule:evenodd;stroke:rgb(0, 0, 0);stroke-width:3.0;" d="M 792.497, 19.2035 L 683.806, 72.4635 L 691.016, 66.8147 L 786.863, 9.12544 z "/>
<path style="fill:rgb(22, 81, 204);fill-opacity:1.0;fill-rule:evenodd;stroke:rgb(0, 0, 0);stroke-width:3.0;" d="M 387.122, 546.138 L 378.099, 567.886 L 371.788, 565.467 L 361.092, 548.271 L 384.637, 545.684 z "/>
<path style="fill:rgb(22, 81, 204);fill-opacity:1.0;fill-rule:evenodd;stroke:rgb(0, 0, 0);stroke-width:3.0;" d="M 311.826, 576.019 L 174.825, 587.939 L 172.279, 586.72 L 168.113, 570.523 z "/>
<path style="fill:rgb(22, 81, 204);fill-opacity:1.0;fill-rule:evenodd;stroke:rgb(0, 0, 0);stroke-width:3.0;" d="M 653.299, 87.4124 L 646.033, 90.9729 L 632.887, 77.6596 L 648.071, 67.2519 z "/>
<path style="fill:rgb(22, 81, 204);fill-opacity:1.0;fill-rule:evenodd;stroke:rgb(0, 0, 0);stroke-width:3.0;" d="M 293.054, 37.6023 L 258.023, 28.6175 L 256.816, 24.527 L 284.339, 16.5175 z "/>
<path style="fill:rgb(255, 25, 14);fill-opacity:1.0;fill-rule:evenodd;stroke:rgb(0, 0, 0);stroke-width:3.0;" d="M 792.319, 113.474 L 757.72, 128.084 L 697.193, 65.9038 L 701.503, 63.7919 z "/>
<path style="fill:rgb(255, 25, 14);fill-opacity:1.0;fill-rule:evenodd;stroke:rgb(0, 0, 0);stroke-width:3.0;" d="M 434.862, 492.068 L 426.593, 497.916 L 421.766, 496.847 L 418.343, 480.343 L 426.871, 475.811 z "/>
<path style="fill:rgb(255, 7, 27);fill-opacity:1.0;fill-rule:evenodd;stroke:rgb(0, 0, 0);stroke-width:3.0;" d="M 619.489, 103.98 L 599.418, 113.815 L 597.92, 110.196 L 605.69, 96.3017 L 612.561, 91.5924 z "/>
<path style="fill:rgb(255, 7, 27);fill-opacity:1.0;fill-rule:evenodd;stroke:rgb(0, 0, 0);stroke-width:3.0;" d="M 728.178, 76.4328 L 781.862, 87.0701 L 784.943, 92.1679 L 768.987, 100.71 L 723.528, 75.8413 z "/>
<path style="fill:rgb(255, 243, 24);fill-opacity:1.0;fill-rule:evenodd;stroke:rgb(0, 0, 0);stroke-width:3.0;" d="M 172.642, 588.129 L 127.797, 592.031 L 101.225, 535.849 L 156.32, 524.674 z "/>
<path style="fill:rgb(237, 243, 7);fill-opacity:1.0;fill-rule:evenodd;stroke:rgb(0, 0, 0);stroke-width:3.0;" d="M 274.284, 166.66 L 253.702, 202.628 L 123.575, 157.022 L 139.438, 117.158 z "/>
<path style="fill:rgb(30, 237, 152);fill-opacity:1.0;fill-rule:evenodd;stroke:rgb(0, 0, 0);stroke-width:3.0;" d="M 87.0649, 575.19 L 76.5128, 592.569 L 69.717, 593.114 L 76.8847, 562.088 L 81.032, 557.953 z "/>
<path style="fill:rgb(30, 237, 152);fill-opacity:1.0;fill-rule:evenodd;stroke:rgb(0, 0, 0);stroke-width:3.0;" d="M 639.087, 476.444 L 633.245, 528.225 L 631.809, 529.184 L 625.623, 527.867 L 626.65, 487.832 L 637.993, 475.836 z "/>
<path style="fill:rgb(255, 82, 82);fill-opacity:1.0;fill-rule:evenodd;stroke:rgb(0, 0, 0);stroke-width:3.0;" d="M 523.871, 521.194 L 550.422, 549.772 L 547.245, 554.476 L 514.409, 525.234 L 515.705, 520.408 L 515.945, 520.124 z "/>
<path style="fill:rgb(255, 82, 82);fill-opacity:1.0;fill-rule:evenodd;stroke:rgb(0, 0, 0);stroke-width:3.0;" d="M 156.249, 168.474 L 115.046, 184.999 L 18.0458, 131.053 L 31.5218, 124.76 z "/>
<path style="fill:rgb(255, 82, 82);fill-opacity:1.0;fill-rule:evenodd;stroke:rgb(0, 0, 0);stroke-width:3.0;" d="M 449.668, 396.149 L 443.554, 404.721 L 423.658, 388.869 L 431.317, 385.712 L 435.583, 385.53 z "/>
<path style="fill:rgb(255, 82, 82);fill-opacity:1.0;fill-rule:evenodd;stroke:rgb(0, 0, 0);stroke-width:3.0;" d="M 551.618, 437.65 L 567.694, 452.077 L 563.258, 462.753 L 556.883, 460.405 L 548.243, 436.248 z "/>
<path style="fill:rgb(255, 82, 82);fill-opacity:1.0;fill-rule:evenodd;stroke:rgb(0, 0, 0);stroke-width:3.0;" d="M 314.054, 97.1567 L 306.172, 110.932 L 299.591, 108.854 L 286.387, 86.54 L 288.32, 85.6616 z "/>
<path style="fill:rgb(234, 12, 217);fill-opacity:1.0;fill-rule:evenodd;stroke:rgb(0, 0, 0);stroke-width:3.0;" d="M 528.58, 472.463 L 524.071, 489.252 L 500.991, 492.674 L 475.613, 460.019 L 502.233, 451.472 z "/>
<path style="fill:rgb(21, 3, 207);fill-opacity:1.0;fill-rule:evenodd;stroke:rgb(0, 0, 0);stroke-width:3.0;" d="M 451.7, 201.853 L 342.067, 277.002 L 312.684, 259.884 L 266.546, 215.029 L 426.954, 169.095 z "/>
<path style="fill:rgb(21, 3, 207);fill-opacity:1.0;fill-rule:evenodd;stroke:rgb(0, 0, 0);stroke-width:3.0;" d="M 256.534, 522.269 L 264.561, 526.563 L 220.329, 558.208 L 235.98, 518.512 z "/>
<path style="fill:rgb(21, 3, 207);fill-opacity:1.0;fill-rule:evenodd;stroke:rgb(0, 0, 0);stroke-width:3.0;" d="M 448.618, 162.891 L 422.329, 170.419 L 405.494, 153.64 L 447.366, 152.928 z "/>
<path style="fill:rgb(240, 13, 58);fill-opacity:1.0;fill-rule:evenodd;stroke:rgb(0, 0, 0);stroke-width:3.0;" d="M 547.245, 554.476 L 546.484, 555.602 L 505.831, 559.139 L 505.338, 559.018 L 514.409, 525.234 z "/>
<path style="fill:rgb(240, 13, 58);fill-opacity:1.0;fill-rule:evenodd;stroke:rgb(0, 0, 0);stroke-width:3.0;" d="M 201.935, 571.816 L 168.113, 570.523 L 156.32, 524.674 L 184.259, 519.007 z "/>
<path style="fill:rgb(240, 13, 58);fill-opacity:1.0;fill-rule:evenodd;stroke:rgb(0, 0, 0);stroke-width:3.0;" d="M 687.161, 116.318 L 718.739, 144.544 L 618.464, 186.886 L 576.672, 167.856 L 647.208, 90.554 z "/>
<path style="fill:rgb(240, 13, 58);fill-opacity:1.0;fill-rule:evenodd;stroke:rgb(0, 0, 0);stroke-width:3.0;" d="M 57.7837, 98.9039 L 58.8051, 112.02 L 47.4553, 117.32 L 42.5003, 108.93 L 55.7758, 97.7438 z "/>
<path style="fill:rgb(240, 13, 58);fill-opacity:1.0;fill-rule:evenodd;stroke:rgb(0, 0, 0);stroke-width:3.0;" d="M 410.178, 493.815 L 396.644, 485.187 L 400.439, 475.161 L 403.985, 474.441 z "/>
<path style="fill:rgb(240, 13, 58);fill-opacity:1.0;fill-rule:evenodd;stroke:rgb(0, 0, 0);stroke-width:3.0;" d="M 518.253, 586.91 L 508.362, 591.573 L 499.973, 589.678 L 516.672, 576.595 z "/>
<path style="fill:rgb(240, 14, 255);fill-opacity:1.0;fill-rule:evenodd;stroke:rgb(0, 0, 0);stroke-width:3.0;" d="M 166.817, 44.8882 L 186.787, 52.2574 L 170.313, 59.9499 L 136.034, 38.1904 L 138.512, 36.4907 z "/>
<path style="fill:rgb(240, 14, 255);fill-opacity:1.0;fill-rule:evenodd;stroke:rgb(0, 0, 0);stroke-width:3.0;" d="M 274.168, 79.3398 L 284.985, 84.1719 L 299.127, 108.07 L 250.961, 76.3669 z "/>
<path style="fill:rgb(15, 75, 255);fill-opacity:1.0;fill-rule:evenodd;stroke:rgb(0, 0, 0);stroke-width:3.0;" d="M 536.212, 569.88 L 544.641, 584.798 L 532.701, 578.31 L 521.929, 569.093 z "/>
<path style="fill:rgb(249, 103, 14);fill-opacity:1.0;fill-rule:evenodd;stroke:rgb(0, 0, 0);stroke-width:3.0;" d="M 697.014, 57.4278 L 678.326, 75.1486 L 653.299, 87.4124 L 648.071, 67.2519 L 685.12, 41.8569 z "/>
<path style="fill:rgb(249, 103, 14);fill-opacity:1.0;fill-rule:evenodd;stroke:rgb(0, 0, 0);stroke-width:3.0;" d="M 350.851, 472.016 L 347.98, 474.613 L 334.759, 481.051 L 329.74, 480.807 L 327.574, 475.57 L 334.43, 468.995 z "/>
<path style="fill:rgb(249, 103, 14);fill-opacity:1.0;fill-rule:evenodd;stroke:rgb(0, 0, 0);stroke-width:3.0;" d="M 420.699, 535.1 L 409.511, 550.231 L 210.059, 513.774 L 386.871, 477.912 z "/>
<path style="fill:rgb(94, 140, 255);fill-opacity:1.0;fill-rule:evenodd;stroke:rgb(0, 0, 0);stroke-width:3.0;" d="M 306.172, 110.932 L 274.284, 166.66 L 258.275, 160.783 L 156.924, 66.2022 L 159.96, 64.7848 z "/>
<path style="fill:rgb(249, 7, 21);fill-opacity:1.0;fill-rule:evenodd;stroke:rgb(0, 0, 0);stroke-width:3.0;" d="M 742.139, 59.5722 L 740.994, 75.6647 L 735.304, 75.4224 L 731.051, 59.3053 z "/>
<path style="fill:rgb(249, 7, 21);fill-opacity:1.0;fill-rule:evenodd;stroke:rgb(0, 0, 0);stroke-width:3.0;" d="M 576.638, 572.106 L 579.12, 579.999 L 555.034, 590.445 L 544.641, 584.798 L 540.98, 578.319 L 543.668, 570.29 z "/>
<path style="fill:rgb(16, 13, 255);fill-opacity:1.0;fill-rule:evenodd;stroke:rgb(0, 0, 0);stroke-width:3.0;" d="M 311.629, 33.5113 L 299.242, 39.1894 L 293.054, 37.6023 L 289.475, 28.9428 L 287.171, 15.6932 L 303.405, 10.9691 z "/>
<path style="fill:rgb(249, 95, 207);fill-opacity:1.0;fill-rule:evenodd;stroke:rgb(0, 0, 0);stroke-width:3.0;" d="M 548.825, 524.561 L 559.029, 537.029 L 550.422, 549.772 L 523.871, 521.194 z "/>
<path style="fill:rgb(255, 1, 64);fill-opacity:1.0;fill-rule:evenodd;stroke:rgb(0, 0, 0);stroke-width:3.0;" d="M 468.261, 560.017 L 465.367, 562.66 L 459.731, 563.15 L 441.232, 526.194 L 439.975, 507.434 L 440.849, 504.248 z "/>
<path style="fill:rgb(199, 19, 255);fill-opacity:1.0;fill-rule:evenodd;stroke:rgb(0, 0, 0);stroke-width:3.0;" d="M 531.801, 501.342 L 515.705, 520.408 L 521.449, 499.018 z "/>
<path style="fill:rgb(199, 19, 255);fill-opacity:1.0;fill-rule:evenodd;stroke:rgb(0, 0, 0);stroke-width:3.0;" d="M 502.848, 217.361 L 497.913, 237.789 L 446.254, 259.602 L 394.856, 240.818 L 469.736, 189.491 z "/>
<path style="fill:rgb(255, 52, 22);fill-opacity:1.0;fill-rule:evenodd;stroke:rgb(0, 0, 0);stroke-width:3.0;" d="M 370.985, 446.078 L 359.869, 463.859 L 350.851, 472.016 L 334.43, 468.995 L 348.017, 455.965 L 367.903, 443.598 z "/>
<path style="fill:rgb(255, 52, 22);fill-opacity:1.0;fill-rule:evenodd;stroke:rgb(0, 0, 0);stroke-width:3.0;" d="M 503.933, 212.87 L 502.848, 217.361 L 469.736, 189.491 L 504.57, 165.615 z "/>
<path style="fill:rgb(243, 240, 7);fill-opacity:1.0;fill-rule:evenodd;stroke:rgb(0, 0, 0);stroke-width:3.0;" d="M 635.761, 565.595 L 658.188, 577.541 L 658.123, 577.898 L 625.686, 574.962 L 619.962, 565.114 z "/>
<path style="fill:rgb(243, 240, 7);fill-opacity:1.0;fill-rule:evenodd;stroke:rgb(0, 0, 0);stroke-width:3.0;" d="M 414.269, 359.879 L 415.537, 372.298 L 410.433, 378.333 L 398.262, 368.636 L 394.172, 351.549 L 394.36, 351.14 z "/>
<path style="fill:rgb(223, 75, 237);fill-opacity:1.0;fill-rule:evenodd;stroke:rgb(0, 0, 0);stroke-width:3.0;" d="M 255.008, 70.7814 L 228.549, 84.0777 L 221.665, 69.5806 L 225.095, 65.0671 L 240.115, 64.1289 z "/>
<path style="fill:rgb(47, 199, 255);fill-opacity:1.0;fill-rule:evenodd;stroke:rgb(0, 0, 0);stroke-width:3.0;" d="M 277.561, 93.8753 L 274.79, 101.027 L 239.716, 89.957 L 242.407, 77.1133 L 247.901, 74.3528 z "/>
<path style="fill:rgb(95, 12, 255);fill-opacity:1.0;fill-rule:evenodd;stroke:rgb(0, 0, 0);stroke-width:3.0;" d="M 793.63, 112.921 L 792.319, 113.474 L 779.312, 106.359 L 772.579, 98.7866 L 779.19, 95.248 z "/>
<path style="fill:rgb(243, 47, 207);fill-opacity:1.0;fill-rule:evenodd;stroke:rgb(0, 0, 0);stroke-width:3.0;" d="M 510.381, 540.236 L 509.999, 541.657 L 490.169, 556.233 L 486.574, 554.81 L 494.95, 543.925 L 503.934, 539.472 z "/>
<path style="fill:rgb(243, 47, 207);fill-opacity:1.0;fill-rule:evenodd;stroke:rgb(0, 0, 0);stroke-width:3.0;" d="M 471.024, 188.608 L 451.7, 201.853 L 426.954, 169.095 L 481.609, 153.444 z "/>
<path style="fill:rgb(243, 47, 207);fill-opacity:1.0;fill-rule:evenodd;stroke:rgb(0, 0, 0);stroke-width:3.0;" d="M 502.233, 451.472 L 493.695, 454.214 L 461.75, 423.757 L 463.819, 420.867 z "/>
<path style="fill:rgb(243, 47, 207);fill-opacity:1.0;fill-rule:evenodd;stroke:rgb(0, 0, 0);stroke-width:3.0;" d="M 685.608, 580.386 L 675.333, 589.702 L 660.927, 578.152 z "/>
<path style="fill:rgb(243, 47, 207);fill-opacity:1.0;fill-rule:evenodd;stroke:rgb(0, 0, 0);stroke-width:3.0;" d="M 576.728, 510.824 L 575.304, 512.932 L 518.247, 517.398 L 545.082, 485.611 z "/>
<path style="fill:rgb(27, 54, 255);fill-opacity:1.0;fill-rule:evenodd;stroke:rgb(0, 0, 0);stroke-width:3.0;" d="M 735.207, 59.4053 L 726.687, 59.2002 L 730.344, 50.648 L 747.819, 50.631 z "/>
<path style="fill:rgb(27, 54, 255);fill-opacity:1.0;fill-rule:evenodd;stroke:rgb(0, 0, 0);stroke-width:3.0;" d="M 402.18, 488.716 L 419.456, 509.051 L 422.189, 533.086 L 420.699, 535.1 L 387.863, 479.588 z "/>
<path style="fill:rgb(255, 255, 57);fill-opacity:1.0;fill-rule:evenodd;stroke:rgb(0, 0, 0);stroke-width:3.0;" d="M 627.862, 486.55 L 624.978, 489.601 L 571.482, 492.797 L 571.126, 465.651 z "/>
<path style="fill:rgb(255, 255, 57);fill-opacity:1.0;fill-rule:evenodd;stroke:rgb(0, 0, 0);stroke-width:3.0;" d="M 657.214, 488.908 L 659.022, 511.018 L 655.168, 513.59 L 649.448, 510.762 L 637.565, 489.929 L 637.574, 489.852 L 650.977, 484.325 z "/>
<path style="fill:rgb(18, 19, 255);fill-opacity:1.0;fill-rule:evenodd;stroke:rgb(0, 0, 0);stroke-width:3.0;" d="M 709.153, 531.532 L 696.37, 542.471 L 692.018, 530.469 L 706.105, 528.213 z "/>
<path style="fill:rgb(217, 1, 97);fill-opacity:1.0;fill-rule:evenodd;stroke:rgb(0, 0, 0);stroke-width:3.0;" d="M 46.401, 577.826 L 19.6458, 570.91 L 33.9346, 549.497 L 60.5098, 544.107 z "/>
<path style="fill:rgb(217, 1, 97);fill-opacity:1.0;fill-rule:evenodd;stroke:rgb(0, 0, 0);stroke-width:3.0;" d="M 462.818, 390.763 L 452.781, 408.555 L 447.042, 401.491 L 460.822, 385.01 z "/>
<path style="fill:rgb(217, 1, 97);fill-opacity:1.0;fill-rule:evenodd;stroke:rgb(0, 0, 0);stroke-width:3.0;" d="M 494.411, 149.778 L 485.69, 152.275 L 405.494, 153.64 L 395.625, 143.803 L 432.626, 117.55 z "/>
<path style="fill:rgb(255, 255, 115);fill-opacity:1.0;fill-rule:evenodd;stroke:rgb(0, 0, 0);stroke-width:3.0;" d="M 682.387, 571.51 L 679.031, 577.089 L 669.334, 571.326 L 668.527, 568.627 L 677.427, 559.857 z "/>
<path style="fill:rgb(255, 243, 38);fill-opacity:1.0;fill-rule:evenodd;stroke:rgb(0, 0, 0);stroke-width:3.0;" d="M 428.735, 505.728 L 429.129, 511.373 L 420.314, 516.595 L 418.815, 503.417 L 423.093, 500.392 z "/>
<path style="fill:rgb(22, 255, 209);fill-opacity:1.0;fill-rule:evenodd;stroke:rgb(0, 0, 0);stroke-width:3.0;" d="M 580.551, 449.667 L 579.891, 459.897 L 567.586, 452.336 L 570.44, 445.468 z "/>
<path style="fill:rgb(22, 255, 209);fill-opacity:1.0;fill-rule:evenodd;stroke:rgb(0, 0, 0);stroke-width:3.0;" d="M 573.506, 515.595 L 565.895, 526.864 L 535.018, 522.698 L 542.275, 515.517 L 557.311, 514.341 z "/>
<path style="fill:rgb(21, 243, 192);fill-opacity:1.0;fill-rule:evenodd;stroke:rgb(0, 0, 0);stroke-width:3.0;" d="M 97.2152, 53.0887 L 108.662, 88.7386 L 73.5164, 105.15 L 71.1037, 104.51 L 69.6285, 45.7861 z "/>
<path style="fill:rgb(21, 243, 192);fill-opacity:1.0;fill-rule:evenodd;stroke:rgb(0, 0, 0);stroke-width:3.0;" d="M 253.55, 202.575 L 217.928, 217.284 L 219.508, 201.879 L 235.144, 196.124 z "/>
<path style="fill:rgb(21, 243, 192);fill-opacity:1.0;fill-rule:evenodd;stroke:rgb(0, 0, 0);stroke-width:3.0;" d="M 636.724, 102.044 L 580.566, 157.905 L 564.301, 131.023 L 647.468, 90.2699 z "/>
<path style="fill:rgb(21, 243, 192);fill-opacity:1.0;fill-rule:evenodd;stroke:rgb(0, 0, 0);stroke-width:3.0;" d="M 758.408, 585.241 L 745.625, 584.585 L 731.197, 577.263 L 750.732, 569.466 L 761.644, 568.773 z "/>
<path style="fill:rgb(226, 15, 79);fill-opacity:1.0;fill-rule:evenodd;stroke:rgb(0, 0, 0);stroke-width:3.0;" d="M 582.634, 161.323 L 576.672, 167.856 L 531.384, 147.235 L 531.803, 146.947 L 564.301, 131.023 z "/>
<path style="fill:rgb(37, 117, 255);fill-opacity:1.0;fill-rule:evenodd;stroke:rgb(0, 0, 0);stroke-width:3.0;" d="M 659.458, 520.368 L 647.266, 541.333 L 633.441, 543.194 L 628.299, 531.855 L 653.001, 517.605 z "/>
<path style="fill:rgb(37, 117, 255);fill-opacity:1.0;fill-rule:evenodd;stroke:rgb(0, 0, 0);stroke-width:3.0;" d="M 660.225, 566.34 L 658.188, 577.541 L 635.761, 565.595 z "/>
<path style="fill:rgb(255, 246, 34);fill-opacity:1.0;fill-rule:evenodd;stroke:rgb(0, 0, 0);stroke-width:3.0;" d="M 218.669, 242.629 L 192.199, 227.908 L 244.222, 206.427 z "/>
<path style="fill:rgb(157, 168, 252);fill-opacity:1.0;fill-rule:evenodd;stroke:rgb(0, 0, 0);stroke-width:3.0;" d="M 654.359, 566.161 L 619.962, 565.114 L 616.797, 559.669 L 621.03, 549.116 L 642.405, 547.256 z "/>
<path style="fill:rgb(202, 0, 220);fill-opacity:1.0;fill-rule:evenodd;stroke:rgb(0, 0, 0);stroke-width:3.0;" d="M 139.438, 117.158 L 123.575, 157.022 L 110.274, 152.361 L 133.044, 114.811 z "/>
<path style="fill:rgb(226, 22, 240);fill-opacity:1.0;fill-rule:evenodd;stroke:rgb(0, 0, 0);stroke-width:3.0;" d="M 133.044, 114.811 L 110.274, 152.361 L 31.5218, 124.76 L 88.1343, 98.3243 z "/>
<path style="fill:rgb(255, 117, 14);fill-opacity:1.0;fill-rule:evenodd;stroke:rgb(0, 0, 0);stroke-width:3.0;" d="M 422.329, 170.419 L 350.787, 190.906 L 320.53, 85.8397 L 326.682, 75.0889 z "/>
<path style="fill:rgb(255, 117, 14);fill-opacity:1.0;fill-rule:evenodd;stroke:rgb(0, 0, 0);stroke-width:3.0;" d="M 558.787, 554.531 L 546.484, 555.602 L 559.454, 536.399 z "/>
<path style="fill:rgb(152, 4, 215);fill-opacity:1.0;fill-rule:evenodd;stroke:rgb(0, 0, 0);stroke-width:3.0;" d="M 345.886, 486.225 L 333.057, 488.827 L 332.842, 488.307 L 359.869, 463.859 z "/>
<path style="fill:rgb(255, 209, 25);fill-opacity:1.0;fill-rule:evenodd;stroke:rgb(0, 0, 0);stroke-width:3.0;" d="M 471.024, 188.608 L 481.609, 153.444 L 551.54, 133.419 z "/>
<path style="fill:rgb(31, 15, 255);fill-opacity:1.0;fill-rule:evenodd;stroke:rgb(0, 0, 0);stroke-width:3.0;" d="M 757.72, 128.084 L 718.739, 144.544 L 654.283, 86.9301 L 697.193, 65.9038 z "/>
<path style="fill:rgb(89, 31, 255);fill-opacity:1.0;fill-rule:evenodd;stroke:rgb(0, 0, 0);stroke-width:3.0;" d="M 105.485, 544.854 L 87.0649, 575.19 L 82.8836, 563.243 L 102.814, 539.207 z "/>
<path style="fill:rgb(128, 220, 255);fill-opacity:1.0;fill-rule:evenodd;stroke:rgb(0, 0, 0);stroke-width:3.0;" d="M 102.814, 539.207 L 82.8836, 563.243 L 81.032, 557.953 L 101.858, 537.187 z "/>
<path style="fill:rgb(246, 100, 12);fill-opacity:1.0;fill-rule:evenodd;stroke:rgb(0, 0, 0);stroke-width:3.0;" d="M 184.939, 178.529 L 134.356, 177.255 L 156.249, 168.474 z "/>
<path style="fill:rgb(74, 209, 237);fill-opacity:1.0;fill-rule:evenodd;stroke:rgb(0, 0, 0);stroke-width:3.0;" d="M 395.085, 97.9675 L 370.418, 118.681 L 326.682, 75.0889 L 332.323, 65.2298 z "/>
<path style="fill:rgb(74, 209, 237);fill-opacity:1.0;fill-rule:evenodd;stroke:rgb(0, 0, 0);stroke-width:3.0;" d="M 660.476, 564.958 L 645.805, 552.632 L 642.405, 547.256 L 664.038, 545.374 z "/>
<path style="fill:rgb(243, 55, 8);fill-opacity:1.0;fill-rule:evenodd;stroke:rgb(0, 0, 0);stroke-width:3.0;" d="M 595.476, 104.291 L 590.711, 117.678 L 577.011, 124.701 L 572.469, 119.073 L 595.158, 103.521 z "/>
<path style="fill:rgb(243, 55, 8);fill-opacity:1.0;fill-rule:evenodd;stroke:rgb(0, 0, 0);stroke-width:3.0;" d="M 786.863, 9.12544 L 706.193, 57.6798 L 705.567, 55.4141 L 762.537, 10.7786 L 785.227, 6.19884 z "/>
<path style="fill:rgb(209, 26, 240);fill-opacity:1.0;fill-rule:evenodd;stroke:rgb(0, 0, 0);stroke-width:3.0;" d="M 725.814, 30.1184 L 697.014, 57.4278 L 685.12, 41.8569 L 705.829, 27.6617 z "/>
<path style="fill:rgb(32, 231, 249);fill-opacity:1.0;fill-rule:evenodd;stroke:rgb(0, 0, 0);stroke-width:3.0;" d="M 342.067, 277.002 L 314.477, 295.913 L 227.882, 247.753 L 242.699, 221.857 L 245.858, 220.953 z "/>
<path style="fill:rgb(240, 85, 76);fill-opacity:1.0;fill-rule:evenodd;stroke:rgb(0, 0, 0);stroke-width:3.0;" d="M 418.313, 499.002 L 410.178, 493.815 L 403.985, 474.441 L 415.261, 472.154 z "/>
<path style="fill:rgb(240, 85, 76);fill-opacity:1.0;fill-rule:evenodd;stroke:rgb(0, 0, 0);stroke-width:3.0;" d="M 71.1037, 104.51 L 57.9482, 101.016 L 57.6956, 97.7723 L 70.5887, 84.0088 z "/>
<path style="fill:rgb(217, 255, 10);fill-opacity:1.0;fill-rule:evenodd;stroke:rgb(0, 0, 0);stroke-width:3.0;" d="M 184.939, 178.529 L 220.621, 191.034 L 217.928, 217.284 L 192.199, 227.908 L 115.046, 184.999 L 134.356, 177.255 z "/>
<path style="fill:rgb(217, 255, 10);fill-opacity:1.0;fill-rule:evenodd;stroke:rgb(0, 0, 0);stroke-width:3.0;" d="M 730.099, 36.1936 L 683.806, 72.4635 L 678.326, 75.1486 L 722.853, 32.926 z "/>
<path style="fill:rgb(255, 18, 32);fill-opacity:1.0;fill-rule:evenodd;stroke:rgb(0, 0, 0);stroke-width:3.0;" d="M 424.449, 552.961 L 424.457, 553.036 L 399.536, 568.387 L 383.131, 569.815 L 378.099, 567.886 L 384.678, 552.029 L 390.629, 546.779 z "/>
<path style="fill:rgb(249, 41, 255);fill-opacity:1.0;fill-rule:evenodd;stroke:rgb(0, 0, 0);stroke-width:3.0;" d="M 599.84, 529.238 L 613.933, 540.466 L 611.063, 549.983 L 597.472, 551.165 L 587.279, 543.576 L 586.692, 524.049 z "/>
<path style="fill:rgb(243, 255, 72);fill-opacity:1.0;fill-rule:evenodd;stroke:rgb(0, 0, 0);stroke-width:3.0;" d="M 212.636, 118.192 L 213.651, 144.401 L 88.1343, 98.3243 L 156.924, 66.2022 z "/>
<path style="fill:rgb(255, 67, 255);fill-opacity:1.0;fill-rule:evenodd;stroke:rgb(0, 0, 0);stroke-width:3.0;" d="M 258.275, 160.783 L 213.651, 144.401 L 212.636, 118.192 z "/>
<path style="fill:rgb(255, 25, 67);fill-opacity:1.0;fill-rule:evenodd;stroke:rgb(0, 0, 0);stroke-width:3.0;" d="M 646.033, 90.9729 L 619.489, 103.98 L 612.561, 91.5924 L 632.887, 77.6596 z "/>
<path style="fill:rgb(255, 25, 67);fill-opacity:1.0;fill-rule:evenodd;stroke:rgb(0, 0, 0);stroke-width:3.0;" d="M 432.626, 117.55 L 395.625, 143.803 L 370.418, 118.681 L 395.085, 97.9675 z "/>
<path style="fill:rgb(255, 25, 67);fill-opacity:1.0;fill-rule:evenodd;stroke:rgb(0, 0, 0);stroke-width:3.0;" d="M 459.747, 159.704 L 451.168, 162.161 L 447.882, 152.919 L 464.121, 152.642 z "/>
<path style="fill:rgb(184, 6, 165);fill-opacity:1.0;fill-rule:evenodd;stroke:rgb(0, 0, 0);stroke-width:3.0;" d="M 226.084, 246.753 L 218.669, 242.629 L 229.86, 226.775 L 237.79, 220.778 z "/>
<path style="fill:rgb(255, 25, 114);fill-opacity:1.0;fill-rule:evenodd;stroke:rgb(0, 0, 0);stroke-width:3.0;" d="M 414.889, 381.883 L 449.672, 426.64 L 392.934, 406.766 L 358.698, 337.115 z "/>
<path style="fill:rgb(220, 62, 207);fill-opacity:1.0;fill-rule:evenodd;stroke:rgb(0, 0, 0);stroke-width:3.0;" d="M 284.171, 232.164 L 283.677, 232.898 L 263.751, 231.377 L 245.858, 220.953 L 266.546, 215.029 z "/>
<path style="fill:rgb(175, 240, 255);fill-opacity:1.0;fill-rule:evenodd;stroke:rgb(0, 0, 0);stroke-width:3.0;" d="M 235.98, 518.512 L 223.842, 549.299 L 200.201, 566.636 L 184.259, 519.007 L 210.059, 513.774 z "/>
<path style="fill:rgb(255, 150, 204);fill-opacity:1.0;fill-rule:evenodd;stroke:rgb(0, 0, 0);stroke-width:3.0;" d="M 350.696, 572.637 L 311.826, 576.019 L 214.77, 572.307 L 220.329, 558.208 L 264.561, 526.563 z "/>
<path style="fill:rgb(255, 37, 92);fill-opacity:1.0;fill-rule:evenodd;stroke:rgb(0, 0, 0);stroke-width:3.0;" d="M 571.126, 465.651 L 571.482, 492.797 L 568.533, 492.973 L 556.883, 460.405 z "/>
<path style="fill:rgb(64, 255, 255);fill-opacity:1.0;fill-rule:evenodd;stroke:rgb(0, 0, 0);stroke-width:3.0;" d="M 759.141, 59.9814 L 757.238, 71.4436 L 741.279, 71.6556 L 742.139, 59.5722 z "/>
<path style="fill:rgb(243, 234, 52);fill-opacity:1.0;fill-rule:evenodd;stroke:rgb(0, 0, 0);stroke-width:3.0;" d="M 346.652, 39.737 L 329.367, 46.9158 L 324.246, 45.6023 L 342.704, 28.6584 L 345.329, 27.9461 z "/>
<path style="fill:rgb(246, 184, 255);fill-opacity:1.0;fill-rule:evenodd;stroke:rgb(0, 0, 0);stroke-width:3.0;" d="M 365.67, 542.217 L 359.458, 548.45 L 346.209, 549.905 L 337.151, 542.763 L 337.707, 539.439 L 338.724, 537.292 z "/>
<path style="fill:rgb(255, 66, 7);fill-opacity:1.0;fill-rule:evenodd;stroke:rgb(0, 0, 0);stroke-width:3.0;" d="M 587.464, 549.715 L 587.533, 552.03 L 561.92, 554.259 L 567.943, 532.358 z "/>
<path style="fill:rgb(15, 56, 172);fill-opacity:1.0;fill-rule:evenodd;stroke:rgb(0, 0, 0);stroke-width:3.0;" d="M 586.529, 518.633 L 587.464, 549.715 L 567.943, 532.358 L 571.899, 517.975 L 576.728, 510.824 z "/>
<path style="fill:rgb(10, 1, 150);fill-opacity:1.0;fill-rule:evenodd;stroke:rgb(0, 0, 0);stroke-width:3.0;" d="M 219.656, 559.914 L 208.058, 572.05 L 201.935, 571.816 L 200.201, 566.636 L 223.842, 549.299 z "/>
</svg>