<?xml version="1.0" encoding="iso-8859-1" standalone="no"?>
<!DOCTYPE svg PUBLIC "-//W3C//DTD SVG 1.0//EN" "http://www.w3.org/TR/2001/REC-SVG-20010904/DTD/svg10.dtd">
<svg xmlns="http://www.w3.org/2000/svg" width="800" height="600">
<path style="fill:rgb(0, 0, 0);fill-opacity:0.0;fill-rule:evenodd;stroke:rgb(0, 0, 0);stroke-width:0.0;" d="M 0, 600 L 800, 600 L 800, 0 L 0, 0 z "/>
<path style="fill:rgb(55, 234, 172);fill-opacity:1.0;fill-rule:evenodd;stroke:rgb(0, 0, 0);stroke-width:3.0;" d="M 84.8485, 418.702 L 75.7336, 406.244 L 96.8392, 402.933 z "/>
<path style="fill:rgb(249, 228, 13);fill-opacity:1.0;fill-rule:evenodd;stroke:rgb(0, 0, 0);stroke-width:3.0;" d="M 79.543, 416.486 L 81.1892, 428.341 L 59.5667, 414.021 z "/>
<path style="fill:rgb(249, 228, 13);fill-opacity:1.0;fill-rule:evenodd;stroke:rgb(0, 0, 0);stroke-width:3.0;" d="M 38.3322, 269.31 L 17.9183, 264.854 L 42.3398, 259.368 z "/>
<path style="fill:rgb(249, 228, 13);fill-opacity:1.0;fill-rule:evenodd;stroke:rgb(0, 0, 0);stroke-width:3.0;" d="M 61.8091, 529.184 L 58.8045, 534.375 L 49.649, 542.989 L 46.0245, 536.761 L 58.8161, 523.039 z "/>
<path style="fill:rgb(249, 228, 13);fill-opacity:1.0;fill-rule:evenodd;stroke:rgb(0, 0, 0);stroke-width:3.0;" d="M 132.331, 208.992 L 130.74, 219.617 L 120.474, 195.128 L 125.655, 184.05 z "/>
<path style="fill:rgb(249, 228, 13);fill-opacity:1.0;fill-rule:evenodd;stroke:rgb(0, 0, 0);stroke-width:3.0;" d="M 156.05, 238.818 L 155.351, 243.97 L 147.022, 246.446 L 129.566, 227.46 L 135.04, 190.899 z "/>
<path style="fill:rgb(212, 65, 146);fill-opacity:1.0;fill-rule:evenodd;stroke:rgb(0, 0, 0);stroke-width:3.0;" d="M 69.1719, 263.392 L 82.9967, 277.293 L 72.5503, 284.716 L 50.3955, 253.759 z "/>
<path style="fill:rgb(255, 112, 194);fill-opacity:1.0;fill-rule:evenodd;stroke:rgb(0, 0, 0);stroke-width:3.0;" d="M 156.292, 374.353 L 149.54, 389.706 L 141.086, 394.032 L 131.641, 388.504 L 152.656, 368.399 L 157.618, 364.252 z "/>
<path style="fill:rgb(255, 112, 194);fill-opacity:1.0;fill-rule:evenodd;stroke:rgb(0, 0, 0);stroke-width:3.0;" d="M 79.3372, 82.6719 L 70.7264, 79.2688 L 105.921, 46.3244 z "/>
<path style="fill:rgb(255, 112, 194);fill-opacity:1.0;fill-rule:evenodd;stroke:rgb(0, 0, 0);stroke-width:3.0;" d="M 164.555, 269.583 L 162.861, 276.732 L 148.854, 279.388 L 151.912, 271.216 L 163.432, 268.203 z "/>
<path style="fill:rgb(255, 112, 194);fill-opacity:1.0;fill-rule:evenodd;stroke:rgb(0, 0, 0);stroke-width:3.0;" d="M 48.3043, 406.562 L 54.8784, 410.916 L 51.7851, 412.175 L 31.1394, 405.55 L 23.4291, 399.432 z "/>
<path style="fill:rgb(212, 7, 59);fill-opacity:1.0;fill-rule:evenodd;stroke:rgb(0, 0, 0);stroke-width:3.0;" d="M 118.695, 322.201 L 132.515, 327.5 L 133.654, 332.87 L 131.704, 332.837 L 113.839, 326.467 L 115.976, 322.156 z "/>
<path style="fill:rgb(212, 7, 59);fill-opacity:1.0;fill-rule:evenodd;stroke:rgb(0, 0, 0);stroke-width:3.0;" d="M 136.477, 234.976 L 138.123, 249.092 L 107.636, 258.156 L 95.5476, 248.426 L 113.517, 210.004 z "/>
<path style="fill:rgb(240, 19, 246);fill-opacity:1.0;fill-rule:evenodd;stroke:rgb(0, 0, 0);stroke-width:3.0;" d="M 199.819, 491.632 L 140.83, 492.147 L 157.577, 364.562 z "/>
<path style="fill:rgb(240, 19, 246);fill-opacity:1.0;fill-rule:evenodd;stroke:rgb(0, 0, 0);stroke-width:3.0;" d="M 26.5037, 500.739 L 32.2241, 503.318 L 30.8698, 505.911 L 9.66203, 508.494 L 9.41838, 508.302 L 12.9295, 496.872 z "/>
<path style="fill:rgb(252, 249, 37);fill-opacity:1.0;fill-rule:evenodd;stroke:rgb(0, 0, 0);stroke-width:3.0;" d="M 59.0469, 515.412 L 48.6017, 510.702 L 65.5836, 494.365 z "/>
<path style="fill:rgb(252, 249, 37);fill-opacity:1.0;fill-rule:evenodd;stroke:rgb(0, 0, 0);stroke-width:3.0;" d="M 72.5503, 284.716 L 61.8894, 292.291 L 53.2193, 283.065 L 60.7982, 268.295 z "/>
<path style="fill:rgb(255, 157, 50);fill-opacity:1.0;fill-rule:evenodd;stroke:rgb(0, 0, 0);stroke-width:3.0;" d="M 45.0143, 308.833 L 45.7011, 322.354 L 13.5735, 321.283 L 5.41403, 310.131 L 19.8129, 306.693 z "/>
<path style="fill:rgb(231, 249, 8);fill-opacity:1.0;fill-rule:evenodd;stroke:rgb(0, 0, 0);stroke-width:3.0;" d="M 97.0873, 594.163 L 55.1107, 560.466 L 83.7803, 554.786 z "/>
<path style="fill:rgb(22, 175, 237);fill-opacity:1.0;fill-rule:evenodd;stroke:rgb(0, 0, 0);stroke-width:3.0;" d="M 30.8335, 135.347 L 32.8011, 168.37 L 22.742, 139.746 L 26.395, 135.281 z "/>
<path style="fill:rgb(22, 175, 237);fill-opacity:1.0;fill-rule:evenodd;stroke:rgb(0, 0, 0);stroke-width:3.0;" d="M 179.66, 196.317 L 178.981, 201.493 L 165.651, 198.894 L 166.389, 191.262 L 169.866, 190.181 z "/>
<path style="fill:rgb(252, 5, 179);fill-opacity:1.0;fill-rule:evenodd;stroke:rgb(0, 0, 0);stroke-width:3.0;" d="M 156.312, 259.454 L 148.854, 279.388 L 145.948, 279.939 L 128.128, 259.588 L 147.575, 248.718 z "/>
<path style="fill:rgb(252, 5, 179);fill-opacity:1.0;fill-rule:evenodd;stroke:rgb(0, 0, 0);stroke-width:3.0;" d="M 155.437, 112.748 L 138.858, 106.196 L 141.571, 101.792 L 162.17, 94.9633 z "/>
<path style="fill:rgb(252, 5, 179);fill-opacity:1.0;fill-rule:evenodd;stroke:rgb(0, 0, 0);stroke-width:3.0;" d="M 185.562, 145.543 L 184.758, 157.48 L 184.485, 159.564 L 183.022, 161.628 L 167.206, 154.045 L 171.56, 132.144 z "/>
<path style="fill:rgb(255, 255, 102);fill-opacity:1.0;fill-rule:evenodd;stroke:rgb(0, 0, 0);stroke-width:3.0;" d="M 134.687, 383.419 L 117.846, 397.496 L 98.8399, 384.887 L 107.778, 374.816 z "/>
<path style="fill:rgb(255, 255, 102);fill-opacity:1.0;fill-rule:evenodd;stroke:rgb(0, 0, 0);stroke-width:3.0;" d="M 163.978, 128.039 L 170.945, 135.236 L 170.09, 139.539 L 167.415, 146.796 L 151.313, 155.239 L 151.024, 129.807 L 152.037, 127.64 z "/>
<path style="fill:rgb(255, 157, 13);fill-opacity:1.0;fill-rule:evenodd;stroke:rgb(0, 0, 0);stroke-width:3.0;" d="M 12.4368, 266.084 L 30.5628, 277.344 L 27.3545, 279.957 L 13.7962, 279.379 L 5.62829, 263.473 z "/>
<path style="fill:rgb(255, 255, 46);fill-opacity:1.0;fill-rule:evenodd;stroke:rgb(0, 0, 0);stroke-width:3.0;" d="M 158.661, 306.604 L 158.104, 309.363 L 138.206, 319.293 L 135.965, 315.024 L 147.787, 306.997 L 154.162, 305.102 z "/>
<path style="fill:rgb(255, 105, 58);fill-opacity:1.0;fill-rule:evenodd;stroke:rgb(0, 0, 0);stroke-width:3.0;" d="M 149.289, 282.422 L 148.896, 306.244 L 135.965, 315.024 L 135.687, 314.496 L 143.912, 280.578 z "/>
<path style="fill:rgb(209, 207, 197);fill-opacity:1.0;fill-rule:evenodd;stroke:rgb(0, 0, 0);stroke-width:3.0;" d="M 97.0885, 273.061 L 91.517, 273.923 L 93.595, 262.331 L 110.714, 257.241 z "/>
<path style="fill:rgb(209, 207, 197);fill-opacity:1.0;fill-rule:evenodd;stroke:rgb(0, 0, 0);stroke-width:3.0;" d="M 78.353, 524.116 L 72.7749, 530.677 L 63.9397, 533.558 L 58.8161, 523.039 L 63.89, 517.595 z "/>
<path style="fill:rgb(255, 175, 72);fill-opacity:1.0;fill-rule:evenodd;stroke:rgb(0, 0, 0);stroke-width:3.0;" d="M 112.36, 95.7232 L 79.3372, 82.6719 L 86.4728, 72.9156 L 131.811, 56.352 z "/>
<path style="fill:rgb(252, 142, 255);fill-opacity:1.0;fill-rule:evenodd;stroke:rgb(0, 0, 0);stroke-width:3.0;" d="M 53.815, 376.286 L 50.8387, 378.786 L 36.4821, 371.902 L 30.3886, 360.305 L 35.4748, 351.218 z "/>
<path style="fill:rgb(249, 142, 7);fill-opacity:1.0;fill-rule:evenodd;stroke:rgb(0, 0, 0);stroke-width:3.0;" d="M 34.8819, 477.411 L 22.8022, 463.47 L 40.0729, 462.063 z "/>
<path style="fill:rgb(226, 202, 74);fill-opacity:1.0;fill-rule:evenodd;stroke:rgb(0, 0, 0);stroke-width:3.0;" d="M 191.221, 108.244 L 188.894, 125.971 L 181.579, 123.08 L 177.553, 112.761 L 183.104, 106.247 z "/>
<path style="fill:rgb(187, 1, 22);fill-opacity:1.0;fill-rule:evenodd;stroke:rgb(0, 0, 0);stroke-width:3.0;" d="M 159, 353.717 L 157.618, 364.252 L 134.687, 383.419 L 125.166, 380.375 L 141.833, 349.151 L 151.821, 346.497 z "/>
<path style="fill:rgb(187, 1, 22);fill-opacity:1.0;fill-rule:evenodd;stroke:rgb(0, 0, 0);stroke-width:3.0;" d="M 38.1976, 375.167 L 40.5273, 391.906 L 22.9637, 381.419 L 23.5088, 364.248 L 30.9434, 361.361 z "/>
<path style="fill:rgb(249, 2, 7);fill-opacity:1.0;fill-rule:evenodd;stroke:rgb(0, 0, 0);stroke-width:3.0;" d="M 102.826, 498.159 L 89.6476, 508.075 L 87.9956, 505.611 L 86.2702, 489.404 L 98.6129, 484.673 z "/>
<path style="fill:rgb(172, 255, 58);fill-opacity:1.0;fill-rule:evenodd;stroke:rgb(0, 0, 0);stroke-width:3.0;" d="M 72.5261, 438.392 L 60.1132, 464.022 L 57.0076, 459.39 L 57.0259, 457.838 L 70.277, 436.608 z "/>
<path style="fill:rgb(255, 19, 7);fill-opacity:1.0;fill-rule:evenodd;stroke:rgb(0, 0, 0);stroke-width:3.0;" d="M 142.898, 430.766 L 117.832, 447.49 L 112.902, 437.564 L 136.464, 426.909 z "/>
<path style="fill:rgb(85, 1, 134);fill-opacity:1.0;fill-rule:evenodd;stroke:rgb(0, 0, 0);stroke-width:3.0;" d="M 116.439, 396.563 L 117.846, 397.496 L 114.693, 400.132 L 88.0699, 404.309 L 79.8438, 393.319 L 91.6033, 383.456 z "/>
<path style="fill:rgb(85, 1, 134);fill-opacity:1.0;fill-rule:evenodd;stroke:rgb(0, 0, 0);stroke-width:3.0;" d="M 125.166, 380.375 L 121.265, 379.128 L 135.788, 350.758 L 141.833, 349.151 z "/>
<path style="fill:rgb(85, 1, 134);fill-opacity:1.0;fill-rule:evenodd;stroke:rgb(0, 0, 0);stroke-width:3.0;" d="M 140.488, 494.752 L 137.802, 515.221 L 105.359, 511.83 L 106.912, 448.859 z "/>
<path style="fill:rgb(255, 65, 16);fill-opacity:1.0;fill-rule:evenodd;stroke:rgb(0, 0, 0);stroke-width:3.0;" d="M 173.079, 50.6497 L 138.858, 106.196 L 112.36, 95.7232 L 131.811, 56.352 L 169.666, 42.5223 z "/>
<path style="fill:rgb(144, 110, 220);fill-opacity:1.0;fill-rule:evenodd;stroke:rgb(0, 0, 0);stroke-width:3.0;" d="M 98.8399, 384.887 L 91.5647, 380.06 L 118.729, 362.477 z "/>
<path style="fill:rgb(255, 255, 14);fill-opacity:1.0;fill-rule:evenodd;stroke:rgb(0, 0, 0);stroke-width:3.0;" d="M 118.729, 362.477 L 91.5647, 380.06 L 88.7986, 378.225 L 89.2748, 363.119 L 127.074, 353.074 z "/>
<path style="fill:rgb(252, 202, 20);fill-opacity:1.0;fill-rule:evenodd;stroke:rgb(0, 0, 0);stroke-width:3.0;" d="M 36.2212, 567.919 L 40.7387, 578.784 L 39.1695, 580.893 L 25.913, 575.433 L 27.4319, 566.893 z "/>
<path style="fill:rgb(252, 202, 20);fill-opacity:1.0;fill-rule:evenodd;stroke:rgb(0, 0, 0);stroke-width:3.0;" d="M 137.45, 159.424 L 140.204, 177.679 L 134.877, 178.442 L 129.26, 176.343 L 137.311, 159.128 z "/>
<path style="fill:rgb(252, 202, 20);fill-opacity:1.0;fill-rule:evenodd;stroke:rgb(0, 0, 0);stroke-width:3.0;" d="M 90.2959, 280.735 L 87.8046, 282.127 L 82.3511, 276.644 L 88.31, 263.902 L 93.595, 262.331 z "/>
<path style="fill:rgb(252, 202, 20);fill-opacity:1.0;fill-rule:evenodd;stroke:rgb(0, 0, 0);stroke-width:3.0;" d="M 38.6668, 493.542 L 35.7977, 497.789 L 28.5543, 501.664 L 26.9275, 500.93 L 31.7506, 486.67 L 37.7243, 485.281 z "/>
<path style="fill:rgb(255, 159, 234);fill-opacity:1.0;fill-rule:evenodd;stroke:rgb(0, 0, 0);stroke-width:3.0;" d="M 151.375, 322.17 L 144.1, 330.519 L 138.315, 319.501 L 138.823, 318.985 L 142.192, 317.304 L 149.668, 317.055 z "/>
<path style="fill:rgb(255, 159, 234);fill-opacity:1.0;fill-rule:evenodd;stroke:rgb(0, 0, 0);stroke-width:3.0;" d="M 41.0605, 322.199 L 27.6856, 329.291 L 18.709, 328.302 L 13.5735, 321.283 z "/>
<path style="fill:rgb(255, 50, 48);fill-opacity:1.0;fill-rule:evenodd;stroke:rgb(0, 0, 0);stroke-width:3.0;" d="M 97.1158, 558.936 L 88.6629, 569.234 L 83.7803, 554.786 L 91.848, 553.188 z "/>
<path style="fill:rgb(255, 50, 48);fill-opacity:1.0;fill-rule:evenodd;stroke:rgb(0, 0, 0);stroke-width:3.0;" d="M 144.612, 49.4786 L 89.5744, 68.6748 L 93.6507, 63.1013 L 111.593, 48.3003 z "/>
<path style="fill:rgb(94, 255, 255);fill-opacity:1.0;fill-rule:evenodd;stroke:rgb(0, 0, 0);stroke-width:3.0;" d="M 169.014, 40.9678 L 144.612, 49.4786 L 111.593, 48.3003 L 156.529, 11.2311 z "/>
<path style="fill:rgb(79, 220, 255);fill-opacity:1.0;fill-rule:evenodd;stroke:rgb(0, 0, 0);stroke-width:3.0;" d="M 44.5181, 299.065 L 41.1593, 301.593 L 33.459, 301.228 L 30.7657, 299.317 L 30.609, 291.942 L 43.8163, 285.249 z "/>
<path style="fill:rgb(255, 7, 23);fill-opacity:1.0;fill-rule:evenodd;stroke:rgb(0, 0, 0);stroke-width:3.0;" d="M 43.4469, 277.975 L 43.8163, 285.249 L 30.609, 291.942 L 30.3032, 277.555 L 34.1606, 274.414 z "/>
<path style="fill:rgb(29, 89, 255);fill-opacity:1.0;fill-rule:evenodd;stroke:rgb(0, 0, 0);stroke-width:3.0;" d="M 74.5134, 404.576 L 56.5395, 405.599 L 56.5394, 405.592 L 58.9916, 397.166 L 66.698, 393.894 z "/>
<path style="fill:rgb(29, 89, 255);fill-opacity:1.0;fill-rule:evenodd;stroke:rgb(0, 0, 0);stroke-width:3.0;" d="M 21.1457, 135.204 L 32.2158, 166.705 L 13.458, 137.785 L 18.3092, 135.162 z "/>
<path style="fill:rgb(29, 89, 255);fill-opacity:1.0;fill-rule:evenodd;stroke:rgb(0, 0, 0);stroke-width:3.0;" d="M 73.9652, 356.452 L 59.4481, 358.752 L 59.4439, 358.75 L 57.2238, 353.243 L 63.9285, 344.947 z "/>
<path style="fill:rgb(29, 89, 255);fill-opacity:1.0;fill-rule:evenodd;stroke:rgb(0, 0, 0);stroke-width:3.0;" d="M 34.9745, 204.848 L 35.7724, 218.24 L 30.0004, 219.839 L 26.2112, 207.83 L 33.9203, 204.128 z "/>
<path style="fill:rgb(134, 142, 231);fill-opacity:1.0;fill-rule:evenodd;stroke:rgb(0, 0, 0);stroke-width:3.0;" d="M 177.035, 92.5663 L 177.586, 97.2694 L 162.871, 93.1107 L 168.478, 78.2987 z "/>
<path style="fill:rgb(14, 240, 255);fill-opacity:1.0;fill-rule:evenodd;stroke:rgb(0, 0, 0);stroke-width:3.0;" d="M 11.2887, 121.807 L 13.4409, 126.358 L 13.604, 137.706 L 6.35374, 141.625 L 5.30286, 132.733 L 6.31554, 119.938 z "/>
<path style="fill:rgb(255, 255, 11);fill-opacity:1.0;fill-rule:evenodd;stroke:rgb(0, 0, 0);stroke-width:3.0;" d="M 65.7463, 433.012 L 66.288, 442.999 L 65.5379, 444.2 L 57.2542, 438.478 L 57.3968, 426.387 z "/>
<path style="fill:rgb(255, 255, 11);fill-opacity:1.0;fill-rule:evenodd;stroke:rgb(0, 0, 0);stroke-width:3.0;" d="M 174.863, 61.4305 L 169.936, 74.4475 L 163.161, 66.7481 L 168.645, 57.8464 z "/>
<path style="fill:rgb(255, 202, 13);fill-opacity:1.0;fill-rule:evenodd;stroke:rgb(0, 0, 0);stroke-width:3.0;" d="M 78.6801, 410.271 L 79.543, 416.486 L 59.5667, 414.021 L 56.6534, 412.091 L 56.5395, 405.599 L 74.5134, 404.576 z "/>
<path style="fill:rgb(220, 88, 36);fill-opacity:1.0;fill-rule:evenodd;stroke:rgb(0, 0, 0);stroke-width:3.0;" d="M 137.056, 332.928 L 139.117, 343.773 L 86.4807, 341.395 L 86.6138, 332.066 z "/>
<path style="fill:rgb(255, 14, 44);fill-opacity:1.0;fill-rule:evenodd;stroke:rgb(0, 0, 0);stroke-width:3.0;" d="M 160.271, 257.911 L 151.114, 246.74 L 156.888, 243.513 L 169.543, 239.75 z "/>
<path style="fill:rgb(255, 14, 44);fill-opacity:1.0;fill-rule:evenodd;stroke:rgb(0, 0, 0);stroke-width:3.0;" d="M 26.6723, 414.142 L 29.7392, 430.993 L 26.8006, 429.657 L 10.0889, 389.407 z "/>
<path style="fill:rgb(82, 64, 255);fill-opacity:1.0;fill-rule:evenodd;stroke:rgb(0, 0, 0);stroke-width:3.0;" d="M 120.778, 194.479 L 101.941, 234.755 L 35.5798, 215.008 L 30.4321, 128.61 L 56.1761, 114.695 z "/>
<path style="fill:rgb(82, 64, 255);fill-opacity:1.0;fill-rule:evenodd;stroke:rgb(0, 0, 0);stroke-width:3.0;" d="M 101.97, 442.105 L 106.912, 448.859 L 106.099, 481.803 L 101.285, 483.648 L 74.9205, 433.449 L 78.3157, 426.438 z "/>
<path style="fill:rgb(82, 64, 255);fill-opacity:1.0;fill-rule:evenodd;stroke:rgb(0, 0, 0);stroke-width:3.0;" d="M 158.446, 113.937 L 148.544, 135.108 L 68.4959, 108.036 L 100.181, 90.9097 z "/>
<path style="fill:rgb(237, 18, 243);fill-opacity:1.0;fill-rule:evenodd;stroke:rgb(0, 0, 0);stroke-width:3.0;" d="M 92.1345, 520.421 L 86.6617, 527.862 L 59.0469, 515.412 L 65.5836, 494.365 L 68.2003, 491.848 z "/>
<path style="fill:rgb(255, 19, 86);fill-opacity:1.0;fill-rule:evenodd;stroke:rgb(0, 0, 0);stroke-width:3.0;" d="M 67.9716, 492.068 L 63.6018, 496.272 L 41.6672, 493.98 L 54.2273, 460.767 z "/>
<path style="fill:rgb(255, 202, 7);fill-opacity:1.0;fill-rule:evenodd;stroke:rgb(0, 0, 0);stroke-width:3.0;" d="M 74.6246, 485.667 L 67.9716, 492.068 L 54.2273, 460.767 L 55.5629, 457.235 z "/>
<path style="fill:rgb(170, 126, 82);fill-opacity:1.0;fill-rule:evenodd;stroke:rgb(0, 0, 0);stroke-width:3.0;" d="M 41.1672, 102.633 L 54.1429, 115.794 L 13.604, 137.706 L 12.8723, 86.7877 z "/>
<path style="fill:rgb(252, 61, 6);fill-opacity:1.0;fill-rule:evenodd;stroke:rgb(0, 0, 0);stroke-width:3.0;" d="M 150.758, 416.515 L 150.41, 419.164 L 146.935, 428.072 L 142.898, 430.766 L 111.196, 411.764 L 127.418, 402.536 z "/>
<path style="fill:rgb(252, 61, 6);fill-opacity:1.0;fill-rule:evenodd;stroke:rgb(0, 0, 0);stroke-width:3.0;" d="M 149.581, 344.245 L 151.435, 346.109 L 105.228, 353.064 L 100.831, 347.8 L 119.984, 342.908 z "/>
<path style="fill:rgb(255, 0, 81);fill-opacity:1.0;fill-rule:evenodd;stroke:rgb(0, 0, 0);stroke-width:3.0;" d="M 41.1672, 102.633 L 12.8723, 86.7877 L 12.8201, 83.1549 L 20.9134, 82.091 z "/>
<path style="fill:rgb(217, 47, 59);fill-opacity:1.0;fill-rule:evenodd;stroke:rgb(0, 0, 0);stroke-width:3.0;" d="M 101.941, 234.755 L 82.3511, 276.644 L 48.3331, 242.438 L 58.5665, 221.848 z "/>
<path style="fill:rgb(16, 179, 226);fill-opacity:1.0;fill-rule:evenodd;stroke:rgb(0, 0, 0);stroke-width:3.0;" d="M 58.5665, 221.848 L 48.3331, 242.438 L 36.5055, 230.545 L 35.5798, 215.008 z "/>
<path style="fill:rgb(249, 114, 9);fill-opacity:1.0;fill-rule:evenodd;stroke:rgb(0, 0, 0);stroke-width:3.0;" d="M 153.953, 329.894 L 152.382, 337.662 L 150.139, 342.021 L 144.1, 330.519 L 151.375, 322.17 z "/>
<path style="fill:rgb(13, 65, 234);fill-opacity:1.0;fill-rule:evenodd;stroke:rgb(0, 0, 0);stroke-width:3.0;" d="M 68.8726, 420.184 L 68.1751, 434.94 L 43.6574, 415.484 L 54.8784, 410.916 z "/>
<path style="fill:rgb(226, 1, 10);fill-opacity:1.0;fill-rule:evenodd;stroke:rgb(0, 0, 0);stroke-width:3.0;" d="M 148.544, 135.108 L 120.778, 194.479 L 56.1761, 114.695 L 68.4959, 108.036 z "/>
<path style="fill:rgb(252, 26, 255);fill-opacity:1.0;fill-rule:evenodd;stroke:rgb(0, 0, 0);stroke-width:3.0;" d="M 183.815, 47.0825 L 175.277, 77.5379 L 173.74, 64.3972 L 180.952, 45.346 z "/>
<path style="fill:rgb(252, 26, 255);fill-opacity:1.0;fill-rule:evenodd;stroke:rgb(0, 0, 0);stroke-width:3.0;" d="M 96.0618, 349.296 L 92.2105, 355.023 L 74.9812, 357.616 L 67.896, 349.495 L 69.2273, 346.02 L 85.7995, 344.872 z "/>
<path style="fill:rgb(252, 26, 255);fill-opacity:1.0;fill-rule:evenodd;stroke:rgb(0, 0, 0);stroke-width:3.0;" d="M 101.285, 483.648 L 78.9982, 492.191 L 60.1132, 464.022 L 74.9205, 433.449 z "/>
<path style="fill:rgb(255, 85, 17);fill-opacity:1.0;fill-rule:evenodd;stroke:rgb(0, 0, 0);stroke-width:3.0;" d="M 71.8983, 78.1719 L 70.7264, 79.2688 L 51.9238, 71.8376 L 89.7726, 29.3742 z "/>
<path style="fill:rgb(226, 255, 37);fill-opacity:1.0;fill-rule:evenodd;stroke:rgb(0, 0, 0);stroke-width:3.0;" d="M 105.921, 46.3244 L 71.8983, 78.1719 L 89.7726, 29.3742 L 106.143, 11.0083 L 132.765, 9.62079 z "/>
<path style="fill:rgb(57, 255, 226);fill-opacity:1.0;fill-rule:evenodd;stroke:rgb(0, 0, 0);stroke-width:3.0;" d="M 164.167, 89.6865 L 162.17, 94.9633 L 141.571, 101.792 L 150.729, 86.9262 z "/>
<path style="fill:rgb(255, 237, 30);fill-opacity:1.0;fill-rule:evenodd;stroke:rgb(0, 0, 0);stroke-width:3.0;" d="M 191.553, 31.7702 L 198.373, 53.7556 L 198.11, 55.7547 L 180.952, 45.346 L 186.773, 29.969 z "/>
<path style="fill:rgb(58, 246, 255);fill-opacity:1.0;fill-rule:evenodd;stroke:rgb(0, 0, 0);stroke-width:3.0;" d="M 137.802, 515.221 L 137.221, 519.642 L 117.612, 541.817 L 109.954, 538.364 L 107.788, 535.133 L 130.439, 514.451 z "/>
<path style="fill:rgb(243, 177, 14);fill-opacity:1.0;fill-rule:evenodd;stroke:rgb(0, 0, 0);stroke-width:3.0;" d="M 130.439, 514.451 L 107.788, 535.133 L 104.891, 530.812 L 105.359, 511.83 z "/>
<path style="fill:rgb(240, 13, 10);fill-opacity:1.0;fill-rule:evenodd;stroke:rgb(0, 0, 0);stroke-width:3.0;" d="M 94.1445, 288.502 L 117.609, 312.096 L 111.44, 316.039 L 87.7269, 288.42 z "/>
<path style="fill:rgb(240, 13, 10);fill-opacity:1.0;fill-rule:evenodd;stroke:rgb(0, 0, 0);stroke-width:3.0;" d="M 102.998, 320.91 L 46.0172, 328.579 L 44.7912, 304.441 L 60.6845, 293.147 z "/>
<path style="fill:rgb(255, 23, 182);fill-opacity:1.0;fill-rule:evenodd;stroke:rgb(0, 0, 0);stroke-width:3.0;" d="M 111.44, 316.039 L 104.039, 320.77 L 102.998, 320.91 L 60.6845, 293.147 L 80.0009, 279.421 z "/>
<path style="fill:rgb(33, 46, 192);fill-opacity:1.0;fill-rule:evenodd;stroke:rgb(0, 0, 0);stroke-width:3.0;" d="M 123.754, 432.656 L 102.191, 442.407 L 89.0068, 424.386 L 90.3945, 423.597 z "/>
<path style="fill:rgb(33, 46, 192);fill-opacity:1.0;fill-rule:evenodd;stroke:rgb(0, 0, 0);stroke-width:3.0;" d="M 198.11, 55.7547 L 192.273, 100.228 L 178.578, 105.755 L 175.277, 77.5379 L 183.815, 47.0825 z "/>
<path style="fill:rgb(220, 240, 255);fill-opacity:1.0;fill-rule:evenodd;stroke:rgb(0, 0, 0);stroke-width:3.0;" d="M 142.699, 276.229 L 125.066, 277.377 L 121.221, 271.821 L 119.853, 264.213 L 128.128, 259.588 z "/>
<path style="fill:rgb(255, 9, 123);fill-opacity:1.0;fill-rule:evenodd;stroke:rgb(0, 0, 0);stroke-width:3.0;" d="M 48.8422, 462.466 L 50.563, 469.486 L 41.0226, 484.514 L 40.4599, 484.645 L 37.3791, 480.25 L 36.247, 473.375 L 37.797, 468.792 L 42.9718, 459.448 z "/>
<path style="fill:rgb(255, 7, 134);fill-opacity:1.0;fill-rule:evenodd;stroke:rgb(0, 0, 0);stroke-width:3.0;" d="M 127.028, 293.403 L 129.21, 299.165 L 104.512, 287.796 L 117.056, 285.418 z "/>
<path style="fill:rgb(255, 207, 124);fill-opacity:1.0;fill-rule:evenodd;stroke:rgb(0, 0, 0);stroke-width:3.0;" d="M 111.529, 574.661 L 91.848, 553.188 L 103.003, 550.978 z "/>
<path style="fill:rgb(220, 49, 105);fill-opacity:1.0;fill-rule:evenodd;stroke:rgb(0, 0, 0);stroke-width:3.0;" d="M 150.758, 416.515 L 127.418, 402.536 L 154.624, 387.061 z "/>
<path style="fill:rgb(255, 89, 16);fill-opacity:1.0;fill-rule:evenodd;stroke:rgb(0, 0, 0);stroke-width:3.0;" d="M 169.936, 74.4475 L 168.113, 79.2618 L 159.574, 88.7429 L 156.762, 88.1655 L 160.908, 70.4044 L 163.161, 66.7481 z "/>
<path style="fill:rgb(255, 179, 8);fill-opacity:1.0;fill-rule:evenodd;stroke:rgb(0, 0, 0);stroke-width:3.0;" d="M 121.265, 379.128 L 107.778, 374.816 L 127.074, 353.074 L 135.788, 350.758 z "/>
<path style="fill:rgb(255, 249, 44);fill-opacity:1.0;fill-rule:evenodd;stroke:rgb(0, 0, 0);stroke-width:3.0;" d="M 111.529, 574.661 L 113.002, 578.754 L 91.3898, 577.303 L 88.6629, 569.234 L 97.1158, 558.936 z "/>
<path style="fill:rgb(255, 0, 228);fill-opacity:1.0;fill-rule:evenodd;stroke:rgb(0, 0, 0);stroke-width:3.0;" d="M 136.464, 426.909 L 123.754, 432.656 L 90.3945, 423.597 L 111.196, 411.764 z "/>
<path style="fill:rgb(220, 16, 17);fill-opacity:1.0;fill-rule:evenodd;stroke:rgb(0, 0, 0);stroke-width:3.0;" d="M 54.1776, 434.619 L 52.6891, 446.1 L 47.6167, 445.383 L 42.7781, 438.166 L 45.0887, 428.291 z "/>
<path style="fill:rgb(255, 21, 179);fill-opacity:1.0;fill-rule:evenodd;stroke:rgb(0, 0, 0);stroke-width:3.0;" d="M 60.7982, 268.295 L 53.2193, 283.065 L 43.1618, 272.362 L 43.0419, 270.002 L 50.1868, 262.528 L 54.9082, 260.064 z "/>
<path style="fill:rgb(26, 105, 240);fill-opacity:1.0;fill-rule:evenodd;stroke:rgb(0, 0, 0);stroke-width:3.0;" d="M 34.3216, 247.727 L 34.7721, 248.807 L 33.4132, 254.436 L 31.9443, 255.796 L 14.2498, 250.05 L 16.5121, 245.231 z "/>
<path style="fill:rgb(255, 123, 252);fill-opacity:1.0;fill-rule:evenodd;stroke:rgb(0, 0, 0);stroke-width:3.0;" d="M 177.586, 97.2694 L 178.578, 105.755 L 160.586, 113.016 L 170.239, 95.193 z "/>
<path style="fill:rgb(163, 1, 40);fill-opacity:1.0;fill-rule:evenodd;stroke:rgb(0, 0, 0);stroke-width:3.0;" d="M 170.239, 95.193 L 160.586, 113.016 L 158.374, 113.909 L 155.437, 112.748 L 162.871, 93.1107 z "/>
</svg>