<?xml version="1.0" encoding="iso-8859-1" standalone="no"?>
<!DOCTYPE svg PUBLIC "-//W3C//DTD SVG 1.0//EN" "http://www.w3.org/TR/2001/REC-SVG-20010904/DTD/svg10.dtd">
<svg xmlns="http://www.w3.org/2000/svg" width="800" height="600">
<path style="fill:rgb(0, 0, 0);fill-opacity:0.0;fill-rule:evenodd;stroke:rgb(0, 0, 0);stroke-width:0.0;" d="M 0, 600 L 800, 600 L 800, 0 L 0, 0 z "/>
<path style="fill:rgb(255, 154, 34);fill-opacity:1.0;fill-rule:evenodd;stroke:rgb(0, 0, 0);stroke-width:3.0;" d="M 369.524, 481.798 L 384.295, 508.024 L 376.914, 508.783 L 336.904, 469.146 z "/>
<path style="fill:rgb(255, 94, 154);fill-opacity:1.0;fill-rule:evenodd;stroke:rgb(0, 0, 0);stroke-width:3.0;" d="M 393.289, 384.332 L 372.64, 403.662 L 381.229, 382.941 z "/>
<path style="fill:rgb(255, 94, 154);fill-opacity:1.0;fill-rule:evenodd;stroke:rgb(0, 0, 0);stroke-width:3.0;" d="M 616.841, 393.547 L 601.137, 405.036 L 597.452, 400.731 L 597.208, 390.691 L 599.584, 380.29 z "/>
<path style="fill:rgb(255, 94, 154);fill-opacity:1.0;fill-rule:evenodd;stroke:rgb(0, 0, 0);stroke-width:3.0;" d="M 477.46, 242.048 L 462.115, 248.187 L 459.038, 227.074 z "/>
<path style="fill:rgb(217, 255, 22);fill-opacity:1.0;fill-rule:evenodd;stroke:rgb(0, 0, 0);stroke-width:3.0;" d="M 365.284, 393.031 L 365.291, 410.541 L 364.164, 411.596 L 349.381, 411.035 L 358.497, 367.463 z "/>
<path style="fill:rgb(217, 255, 22);fill-opacity:1.0;fill-rule:evenodd;stroke:rgb(0, 0, 0);stroke-width:3.0;" d="M 748.286, 57.1903 L 740.346, 59.6459 L 729.036, 47.1083 L 736.144, 27.7814 L 736.423, 27.5238 L 745.069, 24.0405 z "/>
<path style="fill:rgb(255, 91, 19);fill-opacity:1.0;fill-rule:evenodd;stroke:rgb(0, 0, 0);stroke-width:3.0;" d="M 285.597, 485.142 L 277.658, 492.574 L 267.773, 486.894 L 273.442, 477.183 z "/>
<path style="fill:rgb(255, 91, 19);fill-opacity:1.0;fill-rule:evenodd;stroke:rgb(0, 0, 0);stroke-width:3.0;" d="M 138.127, 383.676 L 132.429, 418.714 L 129.432, 423.421 L 126.505, 387.764 L 131.337, 370.568 z "/>
<path style="fill:rgb(255, 91, 19);fill-opacity:1.0;fill-rule:evenodd;stroke:rgb(0, 0, 0);stroke-width:3.0;" d="M 326.983, 450.544 L 306.475, 473.891 L 305.968, 466.072 L 325.542, 447.75 z "/>
<path style="fill:rgb(255, 91, 19);fill-opacity:1.0;fill-rule:evenodd;stroke:rgb(0, 0, 0);stroke-width:3.0;" d="M 385.462, 336.788 L 385.203, 338.013 L 373.287, 346.028 L 369.419, 342.553 L 374.347, 335.92 L 383.556, 331.727 z "/>
<path style="fill:rgb(255, 91, 19);fill-opacity:1.0;fill-rule:evenodd;stroke:rgb(0, 0, 0);stroke-width:3.0;" d="M 559.919, 383.034 L 559.411, 416.409 L 551.008, 417.695 L 531.889, 380.28 z "/>
<path style="fill:rgb(255, 0, 246);fill-opacity:1.0;fill-rule:evenodd;stroke:rgb(0, 0, 0);stroke-width:3.0;" d="M 459.012, 452.491 L 506.136, 499.724 L 424.423, 559.258 L 450.629, 451.26 z "/>
<path style="fill:rgb(255, 3, 146);fill-opacity:1.0;fill-rule:evenodd;stroke:rgb(0, 0, 0);stroke-width:3.0;" d="M 431.917, 298.475 L 422.774, 301.064 L 415.69, 292.525 L 430.679, 291.13 z "/>
<path style="fill:rgb(255, 3, 146);fill-opacity:1.0;fill-rule:evenodd;stroke:rgb(0, 0, 0);stroke-width:3.0;" d="M 397.418, 458.326 L 397.33, 458.343 L 392.453, 455.164 L 383.669, 442.328 L 383.731, 442.046 L 393.09, 440.305 z "/>
<path style="fill:rgb(255, 3, 146);fill-opacity:1.0;fill-rule:evenodd;stroke:rgb(0, 0, 0);stroke-width:3.0;" d="M 644.221, 391.807 L 613.907, 414.176 L 596.912, 408.127 L 627.928, 385.436 z "/>
<path style="fill:rgb(255, 3, 146);fill-opacity:1.0;fill-rule:evenodd;stroke:rgb(0, 0, 0);stroke-width:3.0;" d="M 496.531, 424.854 L 487.393, 424.878 L 464.095, 395.767 L 473.975, 355.052 z "/>
<path style="fill:rgb(255, 3, 146);fill-opacity:1.0;fill-rule:evenodd;stroke:rgb(0, 0, 0);stroke-width:3.0;" d="M 541.258, 351.547 L 551.653, 382.222 L 531.889, 380.28 L 525.002, 366.801 L 530.881, 347.49 z "/>
<path style="fill:rgb(255, 3, 146);fill-opacity:1.0;fill-rule:evenodd;stroke:rgb(0, 0, 0);stroke-width:3.0;" d="M 594.808, 435.121 L 552.181, 466.178 L 450.629, 451.26 L 456.874, 425.527 L 481.951, 424.893 L 588.534, 424.607 z "/>
<path style="fill:rgb(11, 243, 228);fill-opacity:1.0;fill-rule:evenodd;stroke:rgb(0, 0, 0);stroke-width:3.0;" d="M 124.825, 406.134 L 108.957, 417.594 L 110.214, 397.955 z "/>
<path style="fill:rgb(11, 243, 228);fill-opacity:1.0;fill-rule:evenodd;stroke:rgb(0, 0, 0);stroke-width:3.0;" d="M 188.556, 276.459 L 176.378, 396.675 L 113.917, 302.826 L 180.207, 266.839 z "/>
<path style="fill:rgb(255, 255, 12);fill-opacity:1.0;fill-rule:evenodd;stroke:rgb(0, 0, 0);stroke-width:3.0;" d="M 210.46, 484.119 L 204.071, 486.148 L 190.511, 484.801 L 188.363, 480.653 L 194.078, 456.823 L 197.22, 456.127 z "/>
<path style="fill:rgb(255, 255, 12);fill-opacity:1.0;fill-rule:evenodd;stroke:rgb(0, 0, 0);stroke-width:3.0;" d="M 271.212, 371.704 L 180.721, 403.201 L 176.378, 396.675 L 188.556, 276.459 z "/>
<path style="fill:rgb(231, 17, 237);fill-opacity:1.0;fill-rule:evenodd;stroke:rgb(0, 0, 0);stroke-width:3.0;" d="M 303.861, 483.314 L 309.034, 496.854 L 296.866, 502.092 L 298.527, 480.449 z "/>
<path style="fill:rgb(231, 17, 237);fill-opacity:1.0;fill-rule:evenodd;stroke:rgb(0, 0, 0);stroke-width:3.0;" d="M 440.417, 404.404 L 442.894, 434.266 L 439.494, 444.185 L 428.765, 400.83 z "/>
<path style="fill:rgb(231, 17, 237);fill-opacity:1.0;fill-rule:evenodd;stroke:rgb(0, 0, 0);stroke-width:3.0;" d="M 448.769, 332.398 L 444.797, 336.116 L 431.574, 339.233 L 414.76, 313.161 L 413.159, 289.475 z "/>
<path style="fill:rgb(136, 228, 255);fill-opacity:1.0;fill-rule:evenodd;stroke:rgb(0, 0, 0);stroke-width:3.0;" d="M 191.503, 467.562 L 188.261, 447.336 L 199.898, 432.557 z "/>
<path style="fill:rgb(136, 228, 255);fill-opacity:1.0;fill-rule:evenodd;stroke:rgb(0, 0, 0);stroke-width:3.0;" d="M 426.976, 333.292 L 426.866, 352.901 L 426.63, 353.122 L 417.305, 350.795 L 416.018, 331.757 z "/>
<path style="fill:rgb(136, 228, 255);fill-opacity:1.0;fill-rule:evenodd;stroke:rgb(0, 0, 0);stroke-width:3.0;" d="M 560.117, 370.082 L 559.919, 383.034 L 552.23, 382.278 L 553.439, 361.55 z "/>
<path style="fill:rgb(123, 136, 255);fill-opacity:1.0;fill-rule:evenodd;stroke:rgb(0, 0, 0);stroke-width:3.0;" d="M 347.415, 420.431 L 332.533, 416.862 L 326.394, 406.752 L 328.724, 403.214 L 351.081, 402.912 z "/>
<path style="fill:rgb(255, 22, 231);fill-opacity:1.0;fill-rule:evenodd;stroke:rgb(0, 0, 0);stroke-width:3.0;" d="M 498.776, 252.846 L 497.452, 258.298 L 485.718, 248.76 L 484.55, 244.718 L 486.944, 235.159 z "/>
<path style="fill:rgb(240, 95, 97);fill-opacity:1.0;fill-rule:evenodd;stroke:rgb(0, 0, 0);stroke-width:3.0;" d="M 209.371, 521.208 L 193.026, 489.655 L 223.496, 479.979 z "/>
<path style="fill:rgb(25, 2, 255);fill-opacity:1.0;fill-rule:evenodd;stroke:rgb(0, 0, 0);stroke-width:3.0;" d="M 782.064, 35.9197 L 779.47, 55.6264 L 753.118, 43.5517 L 750.037, 21.1494 z "/>
<path style="fill:rgb(25, 2, 255);fill-opacity:1.0;fill-rule:evenodd;stroke:rgb(0, 0, 0);stroke-width:3.0;" d="M 353.788, 508.531 L 324.245, 568.097 L 262.008, 507.224 L 266.983, 502.567 z "/>
<path style="fill:rgb(14, 91, 252);fill-opacity:1.0;fill-rule:evenodd;stroke:rgb(0, 0, 0);stroke-width:3.0;" d="M 361.395, 353.611 L 331.612, 398.829 L 323.109, 407.223 L 321.17, 407.5 L 361.469, 353.254 z "/>
<path style="fill:rgb(14, 91, 252);fill-opacity:1.0;fill-rule:evenodd;stroke:rgb(0, 0, 0);stroke-width:3.0;" d="M 417.159, 361.988 L 404.376, 373.954 L 381.878, 353.744 L 390.139, 314.664 L 407.733, 290.981 z "/>
<path style="fill:rgb(17, 5, 197);fill-opacity:1.0;fill-rule:evenodd;stroke:rgb(0, 0, 0);stroke-width:3.0;" d="M 418.974, 419.36 L 418.396, 425.177 L 399.674, 441.197 L 412.996, 419.224 z "/>
<path style="fill:rgb(17, 5, 197);fill-opacity:1.0;fill-rule:evenodd;stroke:rgb(0, 0, 0);stroke-width:3.0;" d="M 481.912, 235.588 L 483.244, 240.2 L 459.1, 225.903 L 463.414, 218.891 z "/>
<path style="fill:rgb(17, 5, 197);fill-opacity:1.0;fill-rule:evenodd;stroke:rgb(0, 0, 0);stroke-width:3.0;" d="M 590.197, 33.4679 L 587.164, 38.1903 L 576.927, 37.0902 L 572.303, 33.1272 L 580.372, 25.2694 z "/>
<path style="fill:rgb(17, 5, 197);fill-opacity:1.0;fill-rule:evenodd;stroke:rgb(0, 0, 0);stroke-width:3.0;" d="M 600.828, 374.84 L 597.138, 390.997 L 581.918, 406.945 L 570.517, 387.169 L 569.979, 362.778 z "/>
<path style="fill:rgb(17, 5, 197);fill-opacity:1.0;fill-rule:evenodd;stroke:rgb(0, 0, 0);stroke-width:3.0;" d="M 359.479, 463.962 L 354.481, 475.963 L 336.497, 468.988 L 332.016, 460.302 L 331.336, 442.326 L 341.785, 432.545 z "/>
<path style="fill:rgb(23, 3, 255);fill-opacity:1.0;fill-rule:evenodd;stroke:rgb(0, 0, 0);stroke-width:3.0;" d="M 295.813, 459.788 L 284.913, 472.989 L 274.29, 470.604 L 295.513, 442.035 z "/>
<path style="fill:rgb(44, 50, 255);fill-opacity:1.0;fill-rule:evenodd;stroke:rgb(0, 0, 0);stroke-width:3.0;" d="M 334.397, 417.309 L 326.102, 434.145 L 305.144, 429.072 L 316.985, 413.134 z "/>
<path style="fill:rgb(12, 255, 255);fill-opacity:1.0;fill-rule:evenodd;stroke:rgb(0, 0, 0);stroke-width:3.0;" d="M 641.107, 419.111 L 632.703, 424.488 L 631.458, 424.491 L 635.134, 398.512 L 635.756, 398.053 z "/>
<path style="fill:rgb(231, 66, 6);fill-opacity:1.0;fill-rule:evenodd;stroke:rgb(0, 0, 0);stroke-width:3.0;" d="M 312.456, 419.23 L 260.332, 489.392 L 224.623, 387.92 L 271.212, 371.704 z "/>
<path style="fill:rgb(75, 67, 202);fill-opacity:1.0;fill-rule:evenodd;stroke:rgb(0, 0, 0);stroke-width:3.0;" d="M 509.493, 378.63 L 510.89, 379.317 L 493.281, 390.078 L 486.639, 375.924 L 496.156, 374.234 z "/>
<path style="fill:rgb(75, 67, 202);fill-opacity:1.0;fill-rule:evenodd;stroke:rgb(0, 0, 0);stroke-width:3.0;" d="M 450.206, 331.053 L 448.769, 332.398 L 434.796, 315.556 L 434.645, 314.658 L 442.591, 304.611 z "/>
<path style="fill:rgb(75, 67, 202);fill-opacity:1.0;fill-rule:evenodd;stroke:rgb(0, 0, 0);stroke-width:3.0;" d="M 391.98, 362.819 L 393.004, 382.966 L 368.68, 359.472 L 375.408, 347.932 z "/>
<path style="fill:rgb(9, 234, 249);fill-opacity:1.0;fill-rule:evenodd;stroke:rgb(0, 0, 0);stroke-width:3.0;" d="M 584.986, 412.266 L 559.429, 415.222 L 560.131, 369.154 z "/>
<path style="fill:rgb(246, 19, 74);fill-opacity:1.0;fill-rule:evenodd;stroke:rgb(0, 0, 0);stroke-width:3.0;" d="M 427.699, 273.448 L 429.46, 283.899 L 420.401, 292.087 L 415.927, 292.503 L 413.152, 283.686 L 421.5, 272.449 z "/>
<path style="fill:rgb(255, 92, 67);fill-opacity:1.0;fill-rule:evenodd;stroke:rgb(0, 0, 0);stroke-width:3.0;" d="M 288.467, 533.103 L 275.123, 554.275 L 237.528, 530.14 L 262.008, 507.224 z "/>
<path style="fill:rgb(255, 92, 67);fill-opacity:1.0;fill-rule:evenodd;stroke:rgb(0, 0, 0);stroke-width:3.0;" d="M 567.376, 485.195 L 459.155, 533.953 L 609.316, 424.551 L 645.145, 424.455 z "/>
<path style="fill:rgb(72, 0, 209);fill-opacity:1.0;fill-rule:evenodd;stroke:rgb(0, 0, 0);stroke-width:3.0;" d="M 351.856, 399.207 L 343.21, 389.581 L 352.767, 374.62 L 357.297, 373.198 z "/>
<path style="fill:rgb(72, 0, 209);fill-opacity:1.0;fill-rule:evenodd;stroke:rgb(0, 0, 0);stroke-width:3.0;" d="M 503.568, 412.002 L 498.308, 424.849 L 496.531, 424.854 L 488.612, 400.349 L 497.51, 399.09 z "/>
<path style="fill:rgb(72, 0, 209);fill-opacity:1.0;fill-rule:evenodd;stroke:rgb(0, 0, 0);stroke-width:3.0;" d="M 693.086, 25.0102 L 678.993, 27.3351 L 675.532, 24.6782 L 682.64, 15.6387 L 701.697, 14.4317 z "/>
<path style="fill:rgb(72, 0, 209);fill-opacity:1.0;fill-rule:evenodd;stroke:rgb(0, 0, 0);stroke-width:3.0;" d="M 208.644, 445.155 L 220.113, 462.387 L 210.768, 484.021 L 210.46, 484.119 L 195.246, 451.954 L 198.775, 437.237 z "/>
<path style="fill:rgb(72, 0, 209);fill-opacity:1.0;fill-rule:evenodd;stroke:rgb(0, 0, 0);stroke-width:3.0;" d="M 320.336, 492.166 L 332.228, 507.05 L 312.409, 505.688 L 303.861, 483.314 z "/>
<path style="fill:rgb(17, 9, 220);fill-opacity:1.0;fill-rule:evenodd;stroke:rgb(0, 0, 0);stroke-width:3.0;" d="M 519.211, 355.468 L 510.29, 366.033 L 485.021, 372.476 L 474.953, 351.02 L 475.469, 348.894 L 512.452, 342.24 z "/>
<path style="fill:rgb(234, 165, 252);fill-opacity:1.0;fill-rule:evenodd;stroke:rgb(0, 0, 0);stroke-width:3.0;" d="M 248.598, 505.186 L 228.126, 532.743 L 229.358, 476.279 z "/>
<path style="fill:rgb(255, 240, 7);fill-opacity:1.0;fill-rule:evenodd;stroke:rgb(0, 0, 0);stroke-width:3.0;" d="M 106.181, 419.598 L 95.8944, 427.027 L 105.89, 396.66 z "/>
<path style="fill:rgb(255, 240, 7);fill-opacity:1.0;fill-rule:evenodd;stroke:rgb(0, 0, 0);stroke-width:3.0;" d="M 131.316, 446.372 L 110.318, 457.428 L 61.9691, 451.527 L 127.834, 403.961 z "/>
<path style="fill:rgb(255, 240, 7);fill-opacity:1.0;fill-rule:evenodd;stroke:rgb(0, 0, 0);stroke-width:3.0;" d="M 681.221, 406.274 L 699.412, 413.387 L 696.504, 424.317 L 667.883, 424.394 L 663.442, 417.823 L 666.226, 404.443 z "/>
<path style="fill:rgb(9, 161, 207);fill-opacity:1.0;fill-rule:evenodd;stroke:rgb(0, 0, 0);stroke-width:3.0;" d="M 179.817, 85.2012 L 188.002, 91.217 L 176.194, 94.5866 L 114.425, 91.3671 L 67.0069, 75.4354 L 87.8312, 73.9261 z "/>
<path style="fill:rgb(9, 161, 207);fill-opacity:1.0;fill-rule:evenodd;stroke:rgb(0, 0, 0);stroke-width:3.0;" d="M 479.941, 424.899 L 467.34, 424.932 L 460.781, 409.423 L 461.647, 405.857 z "/>
<path style="fill:rgb(9, 161, 207);fill-opacity:1.0;fill-rule:evenodd;stroke:rgb(0, 0, 0);stroke-width:3.0;" d="M 582.904, 529.594 L 550.4, 549.95 L 508.032, 531.544 L 512.591, 527.984 z "/>
<path style="fill:rgb(9, 161, 207);fill-opacity:1.0;fill-rule:evenodd;stroke:rgb(0, 0, 0);stroke-width:3.0;" d="M 475.283, 212.65 L 481.912, 235.588 L 462.142, 217.743 L 469.656, 207.628 z "/>
<path style="fill:rgb(30, 255, 204);fill-opacity:1.0;fill-rule:evenodd;stroke:rgb(0, 0, 0);stroke-width:3.0;" d="M 516.114, 460.879 L 483.311, 476.847 L 459.012, 452.491 z "/>
<path style="fill:rgb(30, 255, 204);fill-opacity:1.0;fill-rule:evenodd;stroke:rgb(0, 0, 0);stroke-width:3.0;" d="M 487.393, 424.878 L 479.941, 424.899 L 461.647, 405.857 L 464.095, 395.767 z "/>
<path style="fill:rgb(30, 255, 204);fill-opacity:1.0;fill-rule:evenodd;stroke:rgb(0, 0, 0);stroke-width:3.0;" d="M 130.618, 327.919 L 122.283, 353.09 L 100.124, 310.313 L 113.917, 302.826 z "/>
<path style="fill:rgb(30, 255, 204);fill-opacity:1.0;fill-rule:evenodd;stroke:rgb(0, 0, 0);stroke-width:3.0;" d="M 70.9521, 89.1014 L 40.8556, 106.262 L 23.8318, 86.6455 z "/>
<path style="fill:rgb(255, 61, 12);fill-opacity:1.0;fill-rule:evenodd;stroke:rgb(0, 0, 0);stroke-width:3.0;" d="M 441.63, 381.102 L 444.353, 384.793 L 442.936, 405.176 L 441.684, 404.793 L 436.992, 397.189 L 435.027, 382.859 L 441.348, 380.958 z "/>
<path style="fill:rgb(255, 61, 12);fill-opacity:1.0;fill-rule:evenodd;stroke:rgb(0, 0, 0);stroke-width:3.0;" d="M 324.245, 568.097 L 317.581, 581.532 L 275.123, 554.275 L 288.467, 533.103 z "/>
<path style="fill:rgb(243, 182, 22);fill-opacity:1.0;fill-rule:evenodd;stroke:rgb(0, 0, 0);stroke-width:3.0;" d="M 779.47, 55.6264 L 773.632, 99.9721 L 759.372, 89.0272 L 753.118, 43.5517 z "/>
<path style="fill:rgb(243, 182, 22);fill-opacity:1.0;fill-rule:evenodd;stroke:rgb(0, 0, 0);stroke-width:3.0;" d="M 435.905, 429.683 L 443.141, 458.922 L 439.753, 474.277 L 423.916, 423.572 z "/>
<path style="fill:rgb(243, 182, 22);fill-opacity:1.0;fill-rule:evenodd;stroke:rgb(0, 0, 0);stroke-width:3.0;" d="M 363.97, 424.699 L 376.138, 440.13 L 364.844, 448.574 L 347.136, 427.536 L 354.476, 420.665 z "/>
<path style="fill:rgb(255, 14, 92);fill-opacity:1.0;fill-rule:evenodd;stroke:rgb(0, 0, 0);stroke-width:3.0;" d="M 483.244, 240.2 L 485.718, 248.76 L 456.651, 225.134 L 457.002, 224.661 z "/>
<path style="fill:rgb(255, 14, 92);fill-opacity:1.0;fill-rule:evenodd;stroke:rgb(0, 0, 0);stroke-width:3.0;" d="M 439.951, 474.911 L 418.886, 547.701 L 409.919, 510.37 L 419.85, 410.556 z "/>
<path style="fill:rgb(255, 66, 35);fill-opacity:1.0;fill-rule:evenodd;stroke:rgb(0, 0, 0);stroke-width:3.0;" d="M 180.787, 466.029 L 132.445, 460.129 L 129.432, 423.421 L 145.578, 398.06 z "/>
<path style="fill:rgb(9, 81, 255);fill-opacity:1.0;fill-rule:evenodd;stroke:rgb(0, 0, 0);stroke-width:3.0;" d="M 624.134, 424.511 L 599.812, 424.576 L 611.304, 416.097 z "/>
<path style="fill:rgb(9, 81, 255);fill-opacity:1.0;fill-rule:evenodd;stroke:rgb(0, 0, 0);stroke-width:3.0;" d="M 126.136, 405.187 L 124.825, 406.134 L 25.7639, 350.681 L 97.8515, 311.547 z "/>
<path style="fill:rgb(9, 81, 255);fill-opacity:1.0;fill-rule:evenodd;stroke:rgb(0, 0, 0);stroke-width:3.0;" d="M 226.325, 471.721 L 223.496, 479.979 L 210.768, 484.021 L 220.113, 462.387 z "/>
<path style="fill:rgb(255, 212, 24);fill-opacity:1.0;fill-rule:evenodd;stroke:rgb(0, 0, 0);stroke-width:3.0;" d="M 179.879, 401.935 L 199.994, 432.157 L 199.898, 432.557 L 177.912, 460.479 L 146.596, 400.025 z "/>
<path style="fill:rgb(249, 8, 37);fill-opacity:1.0;fill-rule:evenodd;stroke:rgb(0, 0, 0);stroke-width:3.0;" d="M 412.469, 288.642 L 413.159, 289.475 L 418.008, 361.193 L 417.159, 361.988 L 407.733, 290.981 L 410.075, 287.828 z "/>
<path style="fill:rgb(249, 8, 37);fill-opacity:1.0;fill-rule:evenodd;stroke:rgb(0, 0, 0);stroke-width:3.0;" d="M 631.458, 424.491 L 624.134, 424.511 L 611.304, 416.097 L 635.134, 398.512 z "/>
<path style="fill:rgb(234, 2, 255);fill-opacity:1.0;fill-rule:evenodd;stroke:rgb(0, 0, 0);stroke-width:3.0;" d="M 179.879, 401.935 L 146.596, 400.025 L 122.283, 353.09 L 130.618, 327.919 z "/>
<path style="fill:rgb(234, 2, 255);fill-opacity:1.0;fill-rule:evenodd;stroke:rgb(0, 0, 0);stroke-width:3.0;" d="M 409.919, 510.37 L 395.112, 448.723 L 399.674, 441.197 L 418.396, 425.177 z "/>
<path style="fill:rgb(13, 237, 209);fill-opacity:1.0;fill-rule:evenodd;stroke:rgb(0, 0, 0);stroke-width:3.0;" d="M 767.577, 17.4273 L 765.47, 28.267 L 752.573, 22.3189 L 746.72, 9.33034 z "/>
<path style="fill:rgb(13, 237, 209);fill-opacity:1.0;fill-rule:evenodd;stroke:rgb(0, 0, 0);stroke-width:3.0;" d="M 359.061, 364.767 L 343.786, 388.679 L 343.29, 381.098 L 361.395, 353.611 z "/>
<path style="fill:rgb(207, 255, 31);fill-opacity:1.0;fill-rule:evenodd;stroke:rgb(0, 0, 0);stroke-width:3.0;" d="M 226.929, 472.629 L 229.234, 481.963 L 228.126, 532.743 L 220.596, 542.878 L 209.371, 521.208 L 226.325, 471.721 z "/>
<path style="fill:rgb(7, 5, 255);fill-opacity:1.0;fill-rule:evenodd;stroke:rgb(0, 0, 0);stroke-width:3.0;" d="M 348.502, 420.692 L 338.08, 436.013 L 329.793, 443.771 L 335.505, 422.411 L 339.065, 418.429 z "/>
<path style="fill:rgb(255, 234, 142);fill-opacity:1.0;fill-rule:evenodd;stroke:rgb(0, 0, 0);stroke-width:3.0;" d="M 329.793, 443.771 L 314.137, 458.426 L 327.436, 431.438 L 335.505, 422.411 z "/>
<path style="fill:rgb(243, 39, 15);fill-opacity:1.0;fill-rule:evenodd;stroke:rgb(0, 0, 0);stroke-width:3.0;" d="M 432.036, 586.029 L 433.473, 570.452 L 452.362, 569.706 z "/>
<path style="fill:rgb(220, 204, 41);fill-opacity:1.0;fill-rule:evenodd;stroke:rgb(0, 0, 0);stroke-width:3.0;" d="M 551.687, 97.2095 L 398.177, 303.844 L 395.173, 299.652 L 526.791, 67.4269 L 540.821, 50.0245 z "/>
<path style="fill:rgb(220, 204, 41);fill-opacity:1.0;fill-rule:evenodd;stroke:rgb(0, 0, 0);stroke-width:3.0;" d="M 620.335, 530.451 L 512.591, 527.984 L 587.71, 469.313 z "/>
<path style="fill:rgb(220, 204, 41);fill-opacity:1.0;fill-rule:evenodd;stroke:rgb(0, 0, 0);stroke-width:3.0;" d="M 380.976, 418.779 L 381.405, 419.751 L 373.743, 428.852 L 354.476, 420.665 L 360.467, 415.056 z "/>
<path style="fill:rgb(220, 204, 41);fill-opacity:1.0;fill-rule:evenodd;stroke:rgb(0, 0, 0);stroke-width:3.0;" d="M 145.578, 398.06 L 132.429, 418.714 L 138.127, 383.676 z "/>
<path style="fill:rgb(255, 220, 13);fill-opacity:1.0;fill-rule:evenodd;stroke:rgb(0, 0, 0);stroke-width:3.0;" d="M 709.509, 22.301 L 693.086, 25.0102 L 701.697, 14.4317 L 709.333, 13.9481 z "/>
<path style="fill:rgb(255, 220, 13);fill-opacity:1.0;fill-rule:evenodd;stroke:rgb(0, 0, 0);stroke-width:3.0;" d="M 701.496, 37.2987 L 698.264, 42.1258 L 681.688, 29.4037 L 687.344, 25.9575 L 688.682, 25.7368 z "/>
<path style="fill:rgb(255, 220, 13);fill-opacity:1.0;fill-rule:evenodd;stroke:rgb(0, 0, 0);stroke-width:3.0;" d="M 179.817, 85.2012 L 87.8312, 73.9261 L 157.596, 68.8697 z "/>
<path style="fill:rgb(168, 1, 255);fill-opacity:1.0;fill-rule:evenodd;stroke:rgb(0, 0, 0);stroke-width:3.0;" d="M 543.44, 424.728 L 525.949, 424.775 L 514.21, 411.057 L 522.659, 405.992 z "/>
<path style="fill:rgb(246, 255, 20);fill-opacity:1.0;fill-rule:evenodd;stroke:rgb(0, 0, 0);stroke-width:3.0;" d="M 114.565, 338.191 L 103.03, 328.693 L 97.8515, 311.547 L 100.124, 310.313 z "/>
<path style="fill:rgb(246, 255, 20);fill-opacity:1.0;fill-rule:evenodd;stroke:rgb(0, 0, 0);stroke-width:3.0;" d="M 440.88, 491.437 L 434.779, 492.781 L 440.165, 474.17 L 446.251, 469.304 z "/>
<path style="fill:rgb(202, 220, 255);fill-opacity:1.0;fill-rule:evenodd;stroke:rgb(0, 0, 0);stroke-width:3.0;" d="M 511.202, 339.795 L 512.452, 342.24 L 503.941, 343.772 L 477.234, 341.619 L 479.651, 331.659 L 489.098, 331.153 z "/>
<path style="fill:rgb(252, 255, 26);fill-opacity:1.0;fill-rule:evenodd;stroke:rgb(0, 0, 0);stroke-width:3.0;" d="M 353.338, 501.637 L 357.008, 508.752 L 350.358, 508.296 L 300.824, 481.683 L 300.024, 471.637 L 300.203, 471.469 z "/>
<path style="fill:rgb(252, 255, 26);fill-opacity:1.0;fill-rule:evenodd;stroke:rgb(0, 0, 0);stroke-width:3.0;" d="M 334.36, 464.846 L 323.916, 476.326 L 307.904, 475.841 L 305.808, 474.651 L 326.983, 450.544 z "/>
<path style="fill:rgb(252, 255, 26);fill-opacity:1.0;fill-rule:evenodd;stroke:rgb(0, 0, 0);stroke-width:3.0;" d="M 471.314, 311.293 L 459.608, 322.252 L 448.989, 324.195 L 469.659, 299.938 z "/>
<path style="fill:rgb(255, 4, 17);fill-opacity:1.0;fill-rule:evenodd;stroke:rgb(0, 0, 0);stroke-width:3.0;" d="M 613.907, 414.176 L 601.158, 423.583 L 594.114, 421.209 L 595.532, 409.137 L 596.912, 408.127 z "/>
<path style="fill:rgb(255, 0, 36);fill-opacity:1.0;fill-rule:evenodd;stroke:rgb(0, 0, 0);stroke-width:3.0;" d="M 432.936, 390.616 L 441.684, 404.793 L 422.222, 398.824 L 421.457, 397.958 L 417.915, 380.862 L 418.721, 379.805 z "/>
<path style="fill:rgb(255, 0, 36);fill-opacity:1.0;fill-rule:evenodd;stroke:rgb(0, 0, 0);stroke-width:3.0;" d="M 205.836, 425.653 L 183.416, 402.263 L 209.675, 393.123 z "/>
<path style="fill:rgb(17, 159, 161);fill-opacity:1.0;fill-rule:evenodd;stroke:rgb(0, 0, 0);stroke-width:3.0;" d="M 475.924, 259.613 L 474.168, 260.289 L 463.303, 256.335 L 462.835, 253.126 L 480.108, 249.33 z "/>
<path style="fill:rgb(17, 159, 161);fill-opacity:1.0;fill-rule:evenodd;stroke:rgb(0, 0, 0);stroke-width:3.0;" d="M 521.872, 157.663 L 521.076, 158.004 L 513.757, 148.265 L 517.606, 143.085 L 525.973, 140.761 z "/>
<path style="fill:rgb(17, 159, 161);fill-opacity:1.0;fill-rule:evenodd;stroke:rgb(0, 0, 0);stroke-width:3.0;" d="M 236.392, 421.362 L 213.078, 439.927 L 205.283, 440.105 L 204.305, 438.635 L 204.918, 433.436 L 233.981, 414.512 z "/>
<path style="fill:rgb(17, 159, 161);fill-opacity:1.0;fill-rule:evenodd;stroke:rgb(0, 0, 0);stroke-width:3.0;" d="M 435.905, 429.683 L 423.916, 423.572 L 419.307, 408.815 L 421.83, 404.653 L 429.144, 402.364 z "/>
<path style="fill:rgb(17, 159, 161);fill-opacity:1.0;fill-rule:evenodd;stroke:rgb(0, 0, 0);stroke-width:3.0;" d="M 593.576, 40.8252 L 552.343, 96.3272 L 552.385, 92.341 L 597.979, 21.3514 z "/>
<path style="fill:rgb(97, 5, 255);fill-opacity:1.0;fill-rule:evenodd;stroke:rgb(0, 0, 0);stroke-width:3.0;" d="M 320.808, 432.863 L 320.358, 445.801 L 318.367, 449.842 L 305.006, 454.144 L 301.187, 434.398 L 305.144, 429.072 z "/>
<path style="fill:rgb(58, 246, 134);fill-opacity:1.0;fill-rule:evenodd;stroke:rgb(0, 0, 0);stroke-width:3.0;" d="M 414.299, 265.907 L 418.093, 202.253 L 526.791, 67.4269 z "/>
<path style="fill:rgb(255, 103, 15);fill-opacity:1.0;fill-rule:evenodd;stroke:rgb(0, 0, 0);stroke-width:3.0;" d="M 414.299, 265.907 L 375.489, 334.384 L 312.456, 419.23 L 276.536, 377.839 L 418.093, 202.253 z "/>
<path style="fill:rgb(255, 0, 11);fill-opacity:1.0;fill-rule:evenodd;stroke:rgb(0, 0, 0);stroke-width:3.0;" d="M 542.301, 400.655 L 546.776, 409.414 L 515.755, 401.091 L 519.811, 397.881 L 532.981, 397.824 z "/>
<path style="fill:rgb(255, 0, 11);fill-opacity:1.0;fill-rule:evenodd;stroke:rgb(0, 0, 0);stroke-width:3.0;" d="M 343.445, 487.867 L 342.574, 495.526 L 310.071, 477.071 z "/>
<path style="fill:rgb(240, 212, 30);fill-opacity:1.0;fill-rule:evenodd;stroke:rgb(0, 0, 0);stroke-width:3.0;" d="M 246.744, 450.778 L 222.756, 466.359 L 205.283, 440.105 L 242.687, 439.25 z "/>
<path style="fill:rgb(237, 88, 56);fill-opacity:1.0;fill-rule:evenodd;stroke:rgb(0, 0, 0);stroke-width:3.0;" d="M 405.212, 432.063 L 398.089, 443.812 L 392.422, 437.527 L 391.626, 434.212 L 400.558, 428.612 z "/>
<path style="fill:rgb(62, 212, 91);fill-opacity:1.0;fill-rule:evenodd;stroke:rgb(0, 0, 0);stroke-width:3.0;" d="M 469.387, 561.728 L 459.494, 533.8 L 530.762, 501.691 L 553.806, 495.794 z "/>
<path style="fill:rgb(255, 86, 36);fill-opacity:1.0;fill-rule:evenodd;stroke:rgb(0, 0, 0);stroke-width:3.0;" d="M 380.728, 468.197 L 383.113, 476.958 L 381.146, 486.105 L 375.966, 492.45 L 369.836, 467.181 z "/>
<path style="fill:rgb(255, 252, 78);fill-opacity:1.0;fill-rule:evenodd;stroke:rgb(0, 0, 0);stroke-width:3.0;" d="M 530.881, 347.49 L 525.002, 366.801 L 516.413, 349.993 L 521.975, 344.008 z "/>
<path style="fill:rgb(255, 252, 78);fill-opacity:1.0;fill-rule:evenodd;stroke:rgb(0, 0, 0);stroke-width:3.0;" d="M 735.677, 17.8578 L 728.791, 28.0266 L 716.966, 16.3495 L 716.68, 11.9763 z "/>
<path style="fill:rgb(255, 255, 54);fill-opacity:1.0;fill-rule:evenodd;stroke:rgb(0, 0, 0);stroke-width:3.0;" d="M 406.882, 553.541 L 402.933, 575.547 L 398.05, 558.076 L 397.445, 538.762 L 399.265, 537.968 z "/>
<path style="fill:rgb(255, 255, 54);fill-opacity:1.0;fill-rule:evenodd;stroke:rgb(0, 0, 0);stroke-width:3.0;" d="M 486.91, 249.73 L 479.654, 269.125 L 473.709, 265.057 L 479.406, 251.056 L 483.903, 247.285 z "/>
<path style="fill:rgb(62, 252, 83);fill-opacity:1.0;fill-rule:evenodd;stroke:rgb(0, 0, 0);stroke-width:3.0;" d="M 569.979, 362.778 L 570.517, 387.169 L 552.519, 355.95 z "/>
<path style="fill:rgb(62, 252, 83);fill-opacity:1.0;fill-rule:evenodd;stroke:rgb(0, 0, 0);stroke-width:3.0;" d="M 431.466, 265.978 L 437.4, 286.586 L 431.49, 295.941 L 426.415, 265.833 L 429.659, 261.467 z "/>
<path style="fill:rgb(20, 82, 255);fill-opacity:1.0;fill-rule:evenodd;stroke:rgb(0, 0, 0);stroke-width:3.0;" d="M 469.387, 561.728 L 459.534, 569.423 L 421.593, 570.921 L 424.238, 560.018 L 463.987, 546.484 z "/>
<path style="fill:rgb(30, 37, 212);fill-opacity:1.0;fill-rule:evenodd;stroke:rgb(0, 0, 0);stroke-width:3.0;" d="M 247.665, 453.398 L 225.704, 470.788 L 222.756, 466.359 L 246.744, 450.778 z "/>
<path style="fill:rgb(30, 37, 212);fill-opacity:1.0;fill-rule:evenodd;stroke:rgb(0, 0, 0);stroke-width:3.0;" d="M 463.987, 546.484 L 424.238, 560.018 L 424.423, 559.258 L 459.155, 533.953 L 459.494, 533.8 z "/>
<path style="fill:rgb(52, 0, 255);fill-opacity:1.0;fill-rule:evenodd;stroke:rgb(0, 0, 0);stroke-width:3.0;" d="M 376.614, 367.135 L 382.636, 379.548 L 372.64, 403.662 L 365.291, 410.541 L 365.271, 356.179 z "/>
<path style="fill:rgb(108, 172, 255);fill-opacity:1.0;fill-rule:evenodd;stroke:rgb(0, 0, 0);stroke-width:3.0;" d="M 357.008, 508.752 L 378.589, 550.589 L 353.179, 591.774 L 325.965, 564.628 L 353.788, 508.531 z "/>
<path style="fill:rgb(237, 172, 14);fill-opacity:1.0;fill-rule:evenodd;stroke:rgb(0, 0, 0);stroke-width:3.0;" d="M 659.344, 424.417 L 638.566, 424.472 L 635.6, 422.634 L 646.508, 415.656 z "/>
<path style="fill:rgb(237, 172, 14);fill-opacity:1.0;fill-rule:evenodd;stroke:rgb(0, 0, 0);stroke-width:3.0;" d="M 83.0742, 80.8338 L 72.8737, 89.2015 L 61.7985, 88.6243 L 66.9277, 75.4411 L 67.0069, 75.4354 z "/>
<path style="fill:rgb(237, 172, 14);fill-opacity:1.0;fill-rule:evenodd;stroke:rgb(0, 0, 0);stroke-width:3.0;" d="M 340.542, 476.83 L 342.638, 480.893 L 332.135, 484.209 L 325.657, 482.113 L 322.466, 476.282 z "/>
<path style="fill:rgb(255, 252, 11);fill-opacity:1.0;fill-rule:evenodd;stroke:rgb(0, 0, 0);stroke-width:3.0;" d="M 180.787, 466.029 L 212.434, 527.121 L 53.9532, 526.029 L 106.881, 457.009 z "/>
<path style="fill:rgb(223, 1, 7);fill-opacity:1.0;fill-rule:evenodd;stroke:rgb(0, 0, 0);stroke-width:3.0;" d="M 552.181, 466.178 L 512.602, 495.014 L 498.186, 469.607 L 516.114, 460.879 z "/>
<path style="fill:rgb(223, 1, 7);fill-opacity:1.0;fill-rule:evenodd;stroke:rgb(0, 0, 0);stroke-width:3.0;" d="M 257.386, 481.019 L 259.15, 490.982 L 248.598, 505.186 L 225.704, 470.788 L 247.665, 453.398 z "/>
<path style="fill:rgb(223, 1, 7);fill-opacity:1.0;fill-rule:evenodd;stroke:rgb(0, 0, 0);stroke-width:3.0;" d="M 242.687, 439.25 L 237.854, 439.361 L 228.249, 427.847 L 236.392, 421.362 z "/>
<path style="fill:rgb(223, 1, 7);fill-opacity:1.0;fill-rule:evenodd;stroke:rgb(0, 0, 0);stroke-width:3.0;" d="M 529.861, 376.31 L 536.568, 389.437 L 531.204, 390.811 L 523.08, 384.715 L 521.162, 378.314 L 525.634, 371.246 z "/>
<path style="fill:rgb(255, 255, 56);fill-opacity:1.0;fill-rule:evenodd;stroke:rgb(0, 0, 0);stroke-width:3.0;" d="M 365.271, 356.179 L 365.281, 383.693 L 358.74, 366.301 L 360.896, 355.993 L 364.042, 354.992 z "/>
<path style="fill:rgb(255, 255, 56);fill-opacity:1.0;fill-rule:evenodd;stroke:rgb(0, 0, 0);stroke-width:3.0;" d="M 458.729, 410.02 L 443.803, 461.598 L 439.494, 444.185 L 451.923, 407.933 z "/>
<path style="fill:rgb(255, 217, 6);fill-opacity:1.0;fill-rule:evenodd;stroke:rgb(0, 0, 0);stroke-width:3.0;" d="M 233.981, 414.512 L 204.918, 433.436 L 209.675, 393.123 L 224.623, 387.92 z "/>
<path style="fill:rgb(255, 240, 7);fill-opacity:1.0;fill-rule:evenodd;stroke:rgb(0, 0, 0);stroke-width:3.0;" d="M 525.346, 386.415 L 535.196, 393.806 L 537.404, 397.805 L 521.299, 397.875 L 512.659, 380.185 z "/>
<path style="fill:rgb(88, 59, 187);fill-opacity:1.0;fill-rule:evenodd;stroke:rgb(0, 0, 0);stroke-width:3.0;" d="M 662.433, 422.672 L 662.072, 424.409 L 659.344, 424.417 L 646.508, 415.656 L 662.154, 405.646 z "/>
<path style="fill:rgb(220, 209, 69);fill-opacity:1.0;fill-rule:evenodd;stroke:rgb(0, 0, 0);stroke-width:3.0;" d="M 436.218, 282.481 L 430.025, 260.975 L 436.573, 252.161 L 446.248, 249.984 z "/>
<path style="fill:rgb(255, 240, 16);fill-opacity:1.0;fill-rule:evenodd;stroke:rgb(0, 0, 0);stroke-width:3.0;" d="M 334.488, 573.13 L 326.813, 587.459 L 317.581, 581.532 L 325.965, 564.628 z "/>
<path style="fill:rgb(144, 255, 255);fill-opacity:1.0;fill-rule:evenodd;stroke:rgb(0, 0, 0);stroke-width:3.0;" d="M 781.779, 445.593 L 669.506, 531.576 L 620.335, 530.451 L 587.71, 469.313 L 645.145, 424.455 L 727.155, 424.234 z "/>
<path style="fill:rgb(175, 18, 172);fill-opacity:1.0;fill-rule:evenodd;stroke:rgb(0, 0, 0);stroke-width:3.0;" d="M 469.659, 299.938 L 453.534, 318.861 L 445.255, 313.862 L 443.148, 306.543 L 465.137, 268.919 z "/>
<path style="fill:rgb(204, 148, 43);fill-opacity:1.0;fill-rule:evenodd;stroke:rgb(0, 0, 0);stroke-width:3.0;" d="M 459.038, 227.074 L 465.137, 268.919 L 443.148, 306.543 L 440.714, 298.093 L 447.842, 236.991 L 456.651, 225.134 z "/>
<path style="fill:rgb(220, 182, 6);fill-opacity:1.0;fill-rule:evenodd;stroke:rgb(0, 0, 0);stroke-width:3.0;" d="M 398.893, 398.535 L 399.878, 400.164 L 398.446, 404.261 L 387.708, 417.902 L 382.15, 394.76 L 385.215, 391.89 z "/>
<path style="fill:rgb(255, 19, 189);fill-opacity:1.0;fill-rule:evenodd;stroke:rgb(0, 0, 0);stroke-width:3.0;" d="M 296.694, 487.363 L 297.955, 487.904 L 296.866, 502.092 L 293.579, 503.507 L 281.861, 488.639 L 286.319, 484.466 z "/>
<path style="fill:rgb(255, 51, 8);fill-opacity:1.0;fill-rule:evenodd;stroke:rgb(0, 0, 0);stroke-width:3.0;" d="M 114.565, 338.191 L 123.917, 356.245 L 127.834, 403.961 L 126.136, 405.187 L 103.03, 328.693 z "/>
<path style="fill:rgb(243, 209, 255);fill-opacity:1.0;fill-rule:evenodd;stroke:rgb(0, 0, 0);stroke-width:3.0;" d="M 196.22, 81.2723 L 198.24, 85.2208 L 196.738, 86.7917 L 177.992, 83.8599 L 157.596, 68.8697 L 163.098, 68.471 z "/>
<path style="fill:rgb(255, 20, 170);fill-opacity:1.0;fill-rule:evenodd;stroke:rgb(0, 0, 0);stroke-width:3.0;" d="M 552.519, 355.95 L 553.651, 357.915 L 552.23, 382.278 L 551.653, 382.222 L 544.016, 359.686 L 542.741, 352.127 z "/>
<path style="fill:rgb(249, 0, 255);fill-opacity:1.0;fill-rule:evenodd;stroke:rgb(0, 0, 0);stroke-width:3.0;" d="M 518.628, 171.032 L 511.492, 200.44 L 493.578, 213.06 L 477.269, 207.913 L 475.221, 200.137 L 484.842, 187.187 L 517.403, 167.911 z "/>
<path style="fill:rgb(255, 255, 54);fill-opacity:1.0;fill-rule:evenodd;stroke:rgb(0, 0, 0);stroke-width:3.0;" d="M 517.403, 167.911 L 484.842, 187.187 L 511.098, 151.844 z "/>
<path style="fill:rgb(255, 59, 74);fill-opacity:1.0;fill-rule:evenodd;stroke:rgb(0, 0, 0);stroke-width:3.0;" d="M 512.602, 495.014 L 511.131, 496.085 L 497.379, 490.948 L 483.311, 476.847 L 498.186, 469.607 z "/>
<path style="fill:rgb(252, 46, 22);fill-opacity:1.0;fill-rule:evenodd;stroke:rgb(0, 0, 0);stroke-width:3.0;" d="M 709.571, 25.2388 L 701.496, 37.2987 L 688.682, 25.7368 L 709.509, 22.301 z "/>
<path style="fill:rgb(215, 9, 255);fill-opacity:1.0;fill-rule:evenodd;stroke:rgb(0, 0, 0);stroke-width:3.0;" d="M 194.486, 413.812 L 205.836, 425.653 L 204.305, 438.635 L 187.076, 412.749 z "/>
<path style="fill:rgb(243, 240, 28);fill-opacity:1.0;fill-rule:evenodd;stroke:rgb(0, 0, 0);stroke-width:3.0;" d="M 512.659, 380.185 L 516.784, 388.631 L 510.169, 397.923 L 504.046, 397.949 L 495.956, 395.779 L 493.281, 390.078 L 510.89, 379.317 z "/>
<path style="fill:rgb(255, 126, 23);fill-opacity:1.0;fill-rule:evenodd;stroke:rgb(0, 0, 0);stroke-width:3.0;" d="M 655.405, 402.777 L 657.459, 408.649 L 650.98, 412.795 L 637.409, 404.56 L 637.265, 403.993 L 646.152, 400.659 z "/>
<path style="fill:rgb(6, 123, 255);fill-opacity:1.0;fill-rule:evenodd;stroke:rgb(0, 0, 0);stroke-width:3.0;" d="M 392.993, 462.295 L 393.25, 462.662 L 392.772, 469.925 L 387.836, 477.146 L 383.135, 477.041 L 379.044, 462.012 L 389.443, 459.926 z "/>
<path style="fill:rgb(184, 249, 110);fill-opacity:1.0;fill-rule:evenodd;stroke:rgb(0, 0, 0);stroke-width:3.0;" d="M 101.696, 87.0904 L 77.2827, 89.4313 L 72.8737, 89.2015 L 83.0742, 80.8338 z "/>
<path style="fill:rgb(243, 246, 22);fill-opacity:1.0;fill-rule:evenodd;stroke:rgb(0, 0, 0);stroke-width:3.0;" d="M 440.532, 404.439 L 448.361, 418.321 L 442.894, 434.266 L 440.417, 404.404 z "/>
<path style="fill:rgb(27, 220, 130);fill-opacity:1.0;fill-rule:evenodd;stroke:rgb(0, 0, 0);stroke-width:3.0;" d="M 188.662, 95.2364 L 106.157, 181.51 L 103.663, 178.636 L 150.147, 93.229 z "/>
<path style="fill:rgb(255, 231, 14);fill-opacity:1.0;fill-rule:evenodd;stroke:rgb(0, 0, 0);stroke-width:3.0;" d="M 150.147, 93.229 L 103.663, 178.636 L 40.8556, 106.262 L 70.9521, 89.1014 z "/>
<path style="fill:rgb(7, 150, 255);fill-opacity:1.0;fill-rule:evenodd;stroke:rgb(0, 0, 0);stroke-width:3.0;" d="M 61.7985, 88.6243 L 23.8318, 86.6455 L 17.234, 79.0428 L 66.9277, 75.4411 z "/>
<path style="fill:rgb(11, 51, 234);fill-opacity:1.0;fill-rule:evenodd;stroke:rgb(0, 0, 0);stroke-width:3.0;" d="M 442.591, 304.611 L 434.645, 314.658 L 431.49, 295.941 L 437.4, 286.586 z "/>
<path style="fill:rgb(249, 255, 23);fill-opacity:1.0;fill-rule:evenodd;stroke:rgb(0, 0, 0);stroke-width:3.0;" d="M 590.197, 33.4679 L 578.475, 23.6868 L 600.429, 17.5375 z "/>
</svg>