<?xml version="1.0" encoding="iso-8859-1" standalone="no"?>
<!DOCTYPE svg PUBLIC "-//W3C//DTD SVG 1.0//EN" "http://www.w3.org/TR/2001/REC-SVG-20010904/DTD/svg10.dtd">
<svg xmlns="http://www.w3.org/2000/svg" width="800" height="600">
<path style="fill:rgb(0, 0, 0);fill-opacity:0.0;fill-rule:evenodd;stroke:rgb(0, 0, 0);stroke-width:0.0;" d="M 0, 600 L 800, 600 L 800, 0 L 0, 0 z "/>
<path style="fill:rgb(243, 1, 255);fill-opacity:1.0;fill-rule:evenodd;stroke:rgb(0, 0, 0);stroke-width:3.0;" d="M 736.627, 307.55 L 659.301, 358.936 L 555.707, 274.481 L 464.022, 157.987 L 462.904, 136.542 L 640.6, 133.814 z "/>
<path style="fill:rgb(255, 3, 234);fill-opacity:1.0;fill-rule:evenodd;stroke:rgb(0, 0, 0);stroke-width:3.0;" d="M 38.3253, 209.676 L 30.2572, 223.742 L 24.4816, 220.735 L 41.217, 183.761 z "/>
<path style="fill:rgb(192, 5, 89);fill-opacity:1.0;fill-rule:evenodd;stroke:rgb(0, 0, 0);stroke-width:3.0;" d="M 699.313, 437.244 L 686.656, 440.865 L 676.032, 427.366 L 703.611, 406.43 z "/>
<path style="fill:rgb(85, 223, 255);fill-opacity:1.0;fill-rule:evenodd;stroke:rgb(0, 0, 0);stroke-width:3.0;" d="M 139.56, 148.716 L 134.804, 148.343 L 123.765, 120.353 L 123.537, 119.336 L 127.334, 117.571 z "/>
<path style="fill:rgb(85, 223, 255);fill-opacity:1.0;fill-rule:evenodd;stroke:rgb(0, 0, 0);stroke-width:3.0;" d="M 47.4591, 127.821 L 41.5479, 145.204 L 17.2219, 174.005 L 48.6814, 116.868 z "/>
<path style="fill:rgb(85, 223, 255);fill-opacity:1.0;fill-rule:evenodd;stroke:rgb(0, 0, 0);stroke-width:3.0;" d="M 697.708, 151.7 L 709.596, 182.798 L 665.068, 129.096 L 674.574, 126.508 z "/>
<path style="fill:rgb(217, 215, 60);fill-opacity:1.0;fill-rule:evenodd;stroke:rgb(0, 0, 0);stroke-width:3.0;" d="M 515.376, 347.569 L 232.926, 309.535 L 221.674, 175.14 L 299.25, 142.181 z "/>
<path style="fill:rgb(152, 1, 240);fill-opacity:1.0;fill-rule:evenodd;stroke:rgb(0, 0, 0);stroke-width:3.0;" d="M 366.17, 327.477 L 384.27, 390.388 L 372.761, 416.19 L 370.599, 417.298 L 352.198, 326.379 L 353.671, 325.794 z "/>
<path style="fill:rgb(152, 1, 240);fill-opacity:1.0;fill-rule:evenodd;stroke:rgb(0, 0, 0);stroke-width:3.0;" d="M 41.217, 183.761 L 29.1726, 210.371 L 20.3465, 207.548 L 47.4591, 127.821 z "/>
<path style="fill:rgb(13, 0, 255);fill-opacity:1.0;fill-rule:evenodd;stroke:rgb(0, 0, 0);stroke-width:3.0;" d="M 623.03, 102.025 L 484.989, 136.203 L 483.686, 136.223 L 599.751, 59.9081 z "/>
<path style="fill:rgb(255, 24, 30);fill-opacity:1.0;fill-rule:evenodd;stroke:rgb(0, 0, 0);stroke-width:3.0;" d="M 445.752, 108.332 L 443.121, 111.356 L 433.369, 114.971 L 428.582, 107.105 L 435.436, 98.6159 z "/>
<path style="fill:rgb(255, 24, 30);fill-opacity:1.0;fill-rule:evenodd;stroke:rgb(0, 0, 0);stroke-width:3.0;" d="M 599.751, 59.9081 L 483.686, 136.223 L 462.904, 136.542 L 457.473, 32.3441 L 569.441, 5.07027 z "/>
<path style="fill:rgb(255, 1, 70);fill-opacity:1.0;fill-rule:evenodd;stroke:rgb(0, 0, 0);stroke-width:3.0;" d="M 655.711, 67.9485 L 617.115, 33.6448 L 616.713, 23.8478 z "/>
<path style="fill:rgb(255, 1, 70);fill-opacity:1.0;fill-rule:evenodd;stroke:rgb(0, 0, 0);stroke-width:3.0;" d="M 604.538, 535.672 L 605.86, 539.124 L 547.945, 516.5 L 553.349, 515.875 z "/>
<path style="fill:rgb(255, 1, 70);fill-opacity:1.0;fill-rule:evenodd;stroke:rgb(0, 0, 0);stroke-width:3.0;" d="M 520.894, 348.312 L 525.828, 358.822 L 498.324, 358.188 L 496.703, 345.054 z "/>
<path style="fill:rgb(255, 228, 10);fill-opacity:1.0;fill-rule:evenodd;stroke:rgb(0, 0, 0);stroke-width:3.0;" d="M 98.2478, 172.993 L 98.411, 181.642 L 90.6205, 201.123 L 90.2615, 201.062 L 88.2323, 190.94 L 94.5978, 170.246 z "/>
<path style="fill:rgb(255, 228, 10);fill-opacity:1.0;fill-rule:evenodd;stroke:rgb(0, 0, 0);stroke-width:3.0;" d="M 194.896, 116.186 L 192.011, 121.113 L 177.383, 116.744 L 183.446, 107.518 L 192.886, 104.593 z "/>
<path style="fill:rgb(255, 228, 10);fill-opacity:1.0;fill-rule:evenodd;stroke:rgb(0, 0, 0);stroke-width:3.0;" d="M 686.656, 440.865 L 611.965, 462.235 L 592.28, 404.982 L 604.128, 336.005 z "/>
<path style="fill:rgb(240, 37, 105);fill-opacity:1.0;fill-rule:evenodd;stroke:rgb(0, 0, 0);stroke-width:3.0;" d="M 478.204, 342.563 L 484.15, 360.147 L 471.93, 358.246 L 460.788, 340.218 z "/>
<path style="fill:rgb(69, 192, 255);fill-opacity:1.0;fill-rule:evenodd;stroke:rgb(0, 0, 0);stroke-width:3.0;" d="M 72.9717, 269.831 L 64.4182, 286.844 L 58.9574, 286.109 L 67.315, 258.939 z "/>
<path style="fill:rgb(255, 31, 98);fill-opacity:1.0;fill-rule:evenodd;stroke:rgb(0, 0, 0);stroke-width:3.0;" d="M 685.276, 380.112 L 676.67, 410.882 L 664.547, 412.772 L 657.179, 403.412 L 677.059, 381.305 L 683.927, 379.012 z "/>
<path style="fill:rgb(240, 5, 8);fill-opacity:1.0;fill-rule:evenodd;stroke:rgb(0, 0, 0);stroke-width:3.0;" d="M 478.968, 258.991 L 457.898, 292.947 L 428.272, 264.793 L 468.004, 235.633 z "/>
<path style="fill:rgb(240, 5, 8);fill-opacity:1.0;fill-rule:evenodd;stroke:rgb(0, 0, 0);stroke-width:3.0;" d="M 611.965, 462.235 L 596.699, 466.602 L 584.78, 448.646 L 592.28, 404.982 z "/>
<path style="fill:rgb(240, 231, 19);fill-opacity:1.0;fill-rule:evenodd;stroke:rgb(0, 0, 0);stroke-width:3.0;" d="M 19.6697, 209.538 L 12.3175, 231.157 L 11.418, 196.187 z "/>
<path style="fill:rgb(240, 231, 19);fill-opacity:1.0;fill-rule:evenodd;stroke:rgb(0, 0, 0);stroke-width:3.0;" d="M 89.182, 207.476 L 94.7361, 229.75 L 94.2734, 234.03 L 87.251, 233.543 L 85.4852, 205.673 z "/>
<path style="fill:rgb(24, 154, 255);fill-opacity:1.0;fill-rule:evenodd;stroke:rgb(0, 0, 0);stroke-width:3.0;" d="M 722.318, 563.558 L 704.639, 574.387 L 673.761, 562.445 L 704.932, 548.176 z "/>
<path style="fill:rgb(209, 12, 114);fill-opacity:1.0;fill-rule:evenodd;stroke:rgb(0, 0, 0);stroke-width:3.0;" d="M 238.229, 42.1886 L 223.215, 67.8267 L 220.548, 51.0589 L 229.368, 37.6375 z "/>
<path style="fill:rgb(255, 0, 123);fill-opacity:1.0;fill-rule:evenodd;stroke:rgb(0, 0, 0);stroke-width:3.0;" d="M 435.544, 166.479 L 380.73, 140.694 L 409.864, 111.771 z "/>
<path style="fill:rgb(8, 177, 255);fill-opacity:1.0;fill-rule:evenodd;stroke:rgb(0, 0, 0);stroke-width:3.0;" d="M 793.429, 410.317 L 740.796, 425.375 L 727.391, 414.447 L 743.643, 320.242 z "/>
<path style="fill:rgb(189, 252, 26);fill-opacity:1.0;fill-rule:evenodd;stroke:rgb(0, 0, 0);stroke-width:3.0;" d="M 674.574, 126.508 L 665.068, 129.096 L 657.452, 119.911 L 658.49, 108.994 z "/>
<path style="fill:rgb(189, 252, 26);fill-opacity:1.0;fill-rule:evenodd;stroke:rgb(0, 0, 0);stroke-width:3.0;" d="M 138.271, 480.816 L 113.608, 501.457 L 107.31, 492.988 L 113.698, 470.377 L 129.418, 467.593 z "/>
<path style="fill:rgb(189, 252, 26);fill-opacity:1.0;fill-rule:evenodd;stroke:rgb(0, 0, 0);stroke-width:3.0;" d="M 290.697, 317.314 L 162.42, 356.258 L 255.115, 312.523 z "/>
<path style="fill:rgb(189, 252, 26);fill-opacity:1.0;fill-rule:evenodd;stroke:rgb(0, 0, 0);stroke-width:3.0;" d="M 455.164, 97.5108 L 445.752, 108.332 L 442.149, 104.939 L 441.381, 91.2529 L 444.969, 86.809 z "/>
<path style="fill:rgb(189, 252, 26);fill-opacity:1.0;fill-rule:evenodd;stroke:rgb(0, 0, 0);stroke-width:3.0;" d="M 626.449, 108.212 L 592.984, 118.615 L 602.557, 107.094 L 623.03, 102.025 z "/>
<path style="fill:rgb(243, 24, 252);fill-opacity:1.0;fill-rule:evenodd;stroke:rgb(0, 0, 0);stroke-width:3.0;" d="M 703.292, 508.61 L 677.791, 532.07 L 663.592, 524.296 L 698.19, 502.348 z "/>
<path style="fill:rgb(243, 24, 252);fill-opacity:1.0;fill-rule:evenodd;stroke:rgb(0, 0, 0);stroke-width:3.0;" d="M 695.787, 499.4 L 626.047, 507.466 L 636.978, 455.078 L 655.378, 449.814 z "/>
<path style="fill:rgb(88, 62, 215);fill-opacity:1.0;fill-rule:evenodd;stroke:rgb(0, 0, 0);stroke-width:3.0;" d="M 651.203, 352.334 L 645.819, 370.976 L 636.897, 364.017 L 629.587, 348.668 L 643.926, 346.401 z "/>
<path style="fill:rgb(88, 62, 215);fill-opacity:1.0;fill-rule:evenodd;stroke:rgb(0, 0, 0);stroke-width:3.0;" d="M 104.064, 145.929 L 123.466, 176.114 L 119.115, 179.419 L 103.601, 147.751 L 103.8, 145.908 z "/>
<path style="fill:rgb(255, 255, 15);fill-opacity:1.0;fill-rule:evenodd;stroke:rgb(0, 0, 0);stroke-width:3.0;" d="M 129.544, 202.635 L 121.615, 220.688 L 107.864, 223.967 L 118.327, 201.813 z "/>
<path style="fill:rgb(255, 255, 15);fill-opacity:1.0;fill-rule:evenodd;stroke:rgb(0, 0, 0);stroke-width:3.0;" d="M 670.326, 80.0689 L 660.439, 54.2051 L 659.414, 40.8284 L 664.961, 34.5617 z "/>
<path style="fill:rgb(255, 255, 15);fill-opacity:1.0;fill-rule:evenodd;stroke:rgb(0, 0, 0);stroke-width:3.0;" d="M 443.273, 33.1994 L 458.979, 61.2379 L 459.644, 73.9876 L 442.759, 33.0543 z "/>
<path style="fill:rgb(255, 255, 15);fill-opacity:1.0;fill-rule:evenodd;stroke:rgb(0, 0, 0);stroke-width:3.0;" d="M 587.071, 300.05 L 629, 347.438 L 646.145, 383.431 L 643.289, 385.762 L 555.707, 274.481 z "/>
<path style="fill:rgb(15, 249, 252);fill-opacity:1.0;fill-rule:evenodd;stroke:rgb(0, 0, 0);stroke-width:3.0;" d="M 622.893, 480.777 L 619.882, 508.179 L 593.31, 511.253 L 582.701, 503.353 L 609.644, 476.687 z "/>
<path style="fill:rgb(15, 249, 252);fill-opacity:1.0;fill-rule:evenodd;stroke:rgb(0, 0, 0);stroke-width:3.0;" d="M 774.832, 555.139 L 773.716, 555.207 L 772.852, 535.911 L 784.219, 534.939 z "/>
<path style="fill:rgb(252, 22, 22);fill-opacity:1.0;fill-rule:evenodd;stroke:rgb(0, 0, 0);stroke-width:3.0;" d="M 149.904, 193.016 L 143.666, 203.669 L 137.57, 203.223 L 138.629, 187.97 z "/>
<path style="fill:rgb(252, 22, 22);fill-opacity:1.0;fill-rule:evenodd;stroke:rgb(0, 0, 0);stroke-width:3.0;" d="M 447.031, 190.952 L 452.515, 202.634 L 435.51, 239.217 L 418.298, 255.315 L 343.999, 184.708 z "/>
<path style="fill:rgb(81, 237, 223);fill-opacity:1.0;fill-rule:evenodd;stroke:rgb(0, 0, 0);stroke-width:3.0;" d="M 15.2374, 241.158 L 14.9684, 241.753 L 9.13766, 240.508 L 19.6944, 209.465 z "/>
<path style="fill:rgb(81, 237, 223);fill-opacity:1.0;fill-rule:evenodd;stroke:rgb(0, 0, 0);stroke-width:3.0;" d="M 161.391, 164.71 L 149.474, 168.516 L 146.048, 158.959 L 170.635, 140.281 z "/>
<path style="fill:rgb(81, 237, 223);fill-opacity:1.0;fill-rule:evenodd;stroke:rgb(0, 0, 0);stroke-width:3.0;" d="M 699.457, 543.772 L 679.1, 544.37 L 705.03, 530.578 L 710.21, 528.578 z "/>
<path style="fill:rgb(81, 237, 223);fill-opacity:1.0;fill-rule:evenodd;stroke:rgb(0, 0, 0);stroke-width:3.0;" d="M 760.411, 125.695 L 770.471, 145.1 L 754.782, 172.02 L 726.849, 182.641 L 725.515, 116.718 z "/>
<path style="fill:rgb(170, 243, 105);fill-opacity:1.0;fill-rule:evenodd;stroke:rgb(0, 0, 0);stroke-width:3.0;" d="M 634.128, 338.414 L 643.926, 346.401 L 629.587, 348.668 L 623.718, 336.347 z "/>
<path style="fill:rgb(255, 37, 8);fill-opacity:1.0;fill-rule:evenodd;stroke:rgb(0, 0, 0);stroke-width:3.0;" d="M 444.937, 86.7755 L 426.032, 102.915 L 394.377, 50.9011 L 400.731, 40.3746 z "/>
<path style="fill:rgb(38, 1, 255);fill-opacity:1.0;fill-rule:evenodd;stroke:rgb(0, 0, 0);stroke-width:3.0;" d="M 138.271, 480.816 L 129.418, 467.593 L 160.687, 462.056 z "/>
<path style="fill:rgb(38, 1, 255);fill-opacity:1.0;fill-rule:evenodd;stroke:rgb(0, 0, 0);stroke-width:3.0;" d="M 632.095, 478.481 L 631.42, 477.873 L 626.333, 460.17 L 629.242, 457.292 L 636.978, 455.078 z "/>
<path style="fill:rgb(38, 1, 255);fill-opacity:1.0;fill-rule:evenodd;stroke:rgb(0, 0, 0);stroke-width:3.0;" d="M 676.371, 110.29 L 666.875, 118.125 L 598.449, 43.614 z "/>
<path style="fill:rgb(182, 240, 255);fill-opacity:1.0;fill-rule:evenodd;stroke:rgb(0, 0, 0);stroke-width:3.0;" d="M 743.643, 320.242 L 727.391, 414.447 L 690.182, 384.112 L 741.111, 315.661 z "/>
<path style="fill:rgb(255, 22, 192);fill-opacity:1.0;fill-rule:evenodd;stroke:rgb(0, 0, 0);stroke-width:3.0;" d="M 760.268, 578.526 L 739.915, 572.16 L 740.146, 568.671 L 750.85, 566.969 z "/>
<path style="fill:rgb(255, 22, 192);fill-opacity:1.0;fill-rule:evenodd;stroke:rgb(0, 0, 0);stroke-width:3.0;" d="M 749.056, 286.022 L 750.339, 289.38 L 723.99, 284.686 L 719.538, 276.631 z "/>
<path style="fill:rgb(255, 22, 192);fill-opacity:1.0;fill-rule:evenodd;stroke:rgb(0, 0, 0);stroke-width:3.0;" d="M 524.851, 386.724 L 509.03, 386.374 L 501.227, 381.693 L 500.963, 379.554 L 509.59, 378.494 z "/>
<path style="fill:rgb(255, 22, 192);fill-opacity:1.0;fill-rule:evenodd;stroke:rgb(0, 0, 0);stroke-width:3.0;" d="M 702.991, 174.832 L 709.596, 182.798 L 749.056, 286.022 L 730.362, 280.075 L 677.099, 154.599 z "/>
<path style="fill:rgb(255, 22, 192);fill-opacity:1.0;fill-rule:evenodd;stroke:rgb(0, 0, 0);stroke-width:3.0;" d="M 524.952, 262.461 L 506.352, 278.873 L 504.531, 247.224 z "/>
<path style="fill:rgb(255, 22, 192);fill-opacity:1.0;fill-rule:evenodd;stroke:rgb(0, 0, 0);stroke-width:3.0;" d="M 34.6241, 577.945 L 22.0827, 584.828 L 18.9048, 582.256 L 17.8435, 564.219 L 24.4961, 562.477 z "/>
<path style="fill:rgb(13, 255, 194);fill-opacity:1.0;fill-rule:evenodd;stroke:rgb(0, 0, 0);stroke-width:3.0;" d="M 572.065, 297.615 L 515.513, 316.058 L 509.64, 307.003 L 513.712, 295.695 L 529.537, 265.882 z "/>
<path style="fill:rgb(13, 255, 194);fill-opacity:1.0;fill-rule:evenodd;stroke:rgb(0, 0, 0);stroke-width:3.0;" d="M 480.458, 359.572 L 460.339, 376.698 L 398.61, 401.046 L 393.921, 346.111 z "/>
<path style="fill:rgb(165, 255, 255);fill-opacity:1.0;fill-rule:evenodd;stroke:rgb(0, 0, 0);stroke-width:3.0;" d="M 726.6, 542.815 L 747.624, 567.482 L 730.407, 570.22 L 720.404, 541.135 z "/>
<path style="fill:rgb(246, 182, 105);fill-opacity:1.0;fill-rule:evenodd;stroke:rgb(0, 0, 0);stroke-width:3.0;" d="M 92.7269, 290.656 L 88.2172, 290.049 L 89.9611, 273.918 L 103.742, 271.846 z "/>
<path style="fill:rgb(249, 119, 36);fill-opacity:1.0;fill-rule:evenodd;stroke:rgb(0, 0, 0);stroke-width:3.0;" d="M 116.165, 173.398 L 110.833, 176.071 L 101.097, 170.911 L 103.036, 152.977 L 106.112, 152.876 z "/>
<path style="fill:rgb(14, 255, 246);fill-opacity:1.0;fill-rule:evenodd;stroke:rgb(0, 0, 0);stroke-width:3.0;" d="M 699.687, 451.766 L 687.556, 466.456 L 676.74, 456.54 L 692.691, 440.525 z "/>
<path style="fill:rgb(14, 255, 246);fill-opacity:1.0;fill-rule:evenodd;stroke:rgb(0, 0, 0);stroke-width:3.0;" d="M 104.072, 246.113 L 91.9384, 255.628 L 92.9132, 246.612 L 119.162, 221.273 L 127.148, 219.369 z "/>
<path style="fill:rgb(14, 255, 246);fill-opacity:1.0;fill-rule:evenodd;stroke:rgb(0, 0, 0);stroke-width:3.0;" d="M 162.433, 300.043 L 94.4916, 389.761 L 6.78565, 413.9 L 157.746, 299.411 z "/>
<path style="fill:rgb(226, 5, 144);fill-opacity:1.0;fill-rule:evenodd;stroke:rgb(0, 0, 0);stroke-width:3.0;" d="M 738.89, 587.633 L 736.013, 586.52 L 730.407, 570.22 L 740.146, 568.671 z "/>
<path style="fill:rgb(237, 112, 12);fill-opacity:1.0;fill-rule:evenodd;stroke:rgb(0, 0, 0);stroke-width:3.0;" d="M 584.922, 126.424 L 567.958, 127.372 L 569.862, 115.189 L 571.654, 114.745 z "/>
<path style="fill:rgb(6, 22, 255);fill-opacity:1.0;fill-rule:evenodd;stroke:rgb(0, 0, 0);stroke-width:3.0;" d="M 88.2202, 290.021 L 88.2172, 290.049 L 71.6949, 287.824 L 84.8784, 266.824 z "/>
<path style="fill:rgb(17, 255, 194);fill-opacity:1.0;fill-rule:evenodd;stroke:rgb(0, 0, 0);stroke-width:3.0;" d="M 392.634, 331.041 L 395.543, 365.118 L 384.27, 390.388 L 366.17, 327.477 z "/>
<path style="fill:rgb(100, 51, 255);fill-opacity:1.0;fill-rule:evenodd;stroke:rgb(0, 0, 0);stroke-width:3.0;" d="M 573.536, 297.135 L 572.065, 297.615 L 456.688, 211.526 L 383.584, 55.7833 z "/>
<path style="fill:rgb(100, 51, 255);fill-opacity:1.0;fill-rule:evenodd;stroke:rgb(0, 0, 0);stroke-width:3.0;" d="M 618.718, 325.851 L 629, 347.438 L 601.931, 316.845 L 603.012, 313.046 z "/>
<path style="fill:rgb(100, 51, 255);fill-opacity:1.0;fill-rule:evenodd;stroke:rgb(0, 0, 0);stroke-width:3.0;" d="M 139.56, 148.716 L 144.147, 160.403 L 135.087, 167.286 L 120.472, 171.456 L 111.449, 157.418 L 131.339, 148.071 z "/>
<path style="fill:rgb(249, 194, 14);fill-opacity:1.0;fill-rule:evenodd;stroke:rgb(0, 0, 0);stroke-width:3.0;" d="M 793.972, 471.544 L 771.79, 475.542 L 694.891, 444.061 L 691.958, 439.348 L 739.961, 425.614 z "/>
<path style="fill:rgb(249, 194, 14);fill-opacity:1.0;fill-rule:evenodd;stroke:rgb(0, 0, 0);stroke-width:3.0;" d="M 709.064, 486.175 L 704.673, 491.679 L 699.93, 491.428 L 666.155, 446.835 z "/>
<path style="fill:rgb(249, 194, 14);fill-opacity:1.0;fill-rule:evenodd;stroke:rgb(0, 0, 0);stroke-width:3.0;" d="M 202.134, 268.802 L 186.786, 301.159 L 180.977, 267.891 L 194.947, 254.685 z "/>
<path style="fill:rgb(249, 194, 14);fill-opacity:1.0;fill-rule:evenodd;stroke:rgb(0, 0, 0);stroke-width:3.0;" d="M 51.023, 265.893 L 59.7998, 275.567 L 42.9339, 283.951 L 39.9523, 283.55 L 37.1213, 277.134 L 42.2362, 260.175 z "/>
<path style="fill:rgb(255, 237, 18);fill-opacity:1.0;fill-rule:evenodd;stroke:rgb(0, 0, 0);stroke-width:3.0;" d="M 353.671, 325.794 L 26.5888, 455.547 L 232.875, 351.674 L 335.7, 323.374 z "/>
<path style="fill:rgb(220, 1, 72);fill-opacity:1.0;fill-rule:evenodd;stroke:rgb(0, 0, 0);stroke-width:3.0;" d="M 113.536, 211.957 L 107.864, 223.967 L 95.0305, 227.027 L 98.4828, 195.093 L 103.938, 190.949 z "/>
<path style="fill:rgb(168, 10, 217);fill-opacity:1.0;fill-rule:evenodd;stroke:rgb(0, 0, 0);stroke-width:3.0;" d="M 766.594, 545.573 L 767.795, 547.542 L 749.396, 556.737 L 738.17, 541.915 z "/>
<path style="fill:rgb(168, 10, 217);fill-opacity:1.0;fill-rule:evenodd;stroke:rgb(0, 0, 0);stroke-width:3.0;" d="M 38.0868, 155.381 L 8.16214, 190.46 L 17.2219, 174.005 L 41.5479, 145.204 z "/>
<path style="fill:rgb(168, 10, 217);fill-opacity:1.0;fill-rule:evenodd;stroke:rgb(0, 0, 0);stroke-width:3.0;" d="M 695.376, 80.406 L 683.461, 114.43 L 670.326, 80.0689 L 670.24, 79.343 z "/>
<path style="fill:rgb(255, 249, 86);fill-opacity:1.0;fill-rule:evenodd;stroke:rgb(0, 0, 0);stroke-width:3.0;" d="M 725.515, 116.718 L 726.849, 182.641 L 711.733, 188.389 L 692.444, 137.93 L 690.095, 109.902 L 692.088, 108.119 z "/>
<path style="fill:rgb(249, 22, 255);fill-opacity:1.0;fill-rule:evenodd;stroke:rgb(0, 0, 0);stroke-width:3.0;" d="M 176.617, 301.953 L 161.101, 321.771 L 138.225, 332.01 L 162.433, 300.043 z "/>
<path style="fill:rgb(252, 119, 7);fill-opacity:1.0;fill-rule:evenodd;stroke:rgb(0, 0, 0);stroke-width:3.0;" d="M 496.703, 345.054 L 498.322, 358.167 L 497.448, 372.569 L 493.823, 388.753 L 488.939, 374.308 L 489.057, 344.025 z "/>
<path style="fill:rgb(209, 49, 15);fill-opacity:1.0;fill-rule:evenodd;stroke:rgb(0, 0, 0);stroke-width:3.0;" d="M 399.657, 42.1538 L 394.377, 50.9011 L 387.232, 39.1609 L 389.264, 29.208 z "/>
<path style="fill:rgb(209, 49, 15);fill-opacity:1.0;fill-rule:evenodd;stroke:rgb(0, 0, 0);stroke-width:3.0;" d="M 482.402, 266.307 L 461.238, 293.936 L 458.568, 291.867 L 478.968, 258.991 z "/>
<path style="fill:rgb(255, 226, 21);fill-opacity:1.0;fill-rule:evenodd;stroke:rgb(0, 0, 0);stroke-width:3.0;" d="M 468.004, 235.633 L 428.272, 264.793 L 425.046, 261.727 L 427.543, 256.357 L 460.911, 220.521 z "/>
<path style="fill:rgb(255, 22, 10);fill-opacity:1.0;fill-rule:evenodd;stroke:rgb(0, 0, 0);stroke-width:3.0;" d="M 460.911, 220.521 L 427.543, 256.357 L 452.515, 202.634 z "/>
<path style="fill:rgb(255, 187, 14);fill-opacity:1.0;fill-rule:evenodd;stroke:rgb(0, 0, 0);stroke-width:3.0;" d="M 380.104, 27.4499 L 377.817, 43.4967 L 371.197, 29.3931 L 373.653, 16.8497 z "/>
<path style="fill:rgb(255, 187, 14);fill-opacity:1.0;fill-rule:evenodd;stroke:rgb(0, 0, 0);stroke-width:3.0;" d="M 604.128, 336.005 L 596.948, 377.806 L 541.733, 307.507 L 573.536, 297.135 z "/>
<path style="fill:rgb(255, 187, 14);fill-opacity:1.0;fill-rule:evenodd;stroke:rgb(0, 0, 0);stroke-width:3.0;" d="M 733.314, 73.4205 L 701.528, 108.486 L 697.726, 109.569 L 692.088, 108.119 L 732.537, 71.9203 z "/>
<path style="fill:rgb(26, 231, 163);fill-opacity:1.0;fill-rule:evenodd;stroke:rgb(0, 0, 0);stroke-width:3.0;" d="M 729.392, 499.497 L 726.882, 502.51 L 687.556, 466.456 L 699.687, 451.766 z "/>
<path style="fill:rgb(240, 255, 11);fill-opacity:1.0;fill-rule:evenodd;stroke:rgb(0, 0, 0);stroke-width:3.0;" d="M 434.075, 169.172 L 439.542, 183.767 L 424.603, 182.252 L 433.237, 168.753 z "/>
<path style="fill:rgb(240, 255, 11);fill-opacity:1.0;fill-rule:evenodd;stroke:rgb(0, 0, 0);stroke-width:3.0;" d="M 116.413, 250.208 L 112.47, 256.942 L 111.08, 256.626 L 106.972, 243.839 L 114.645, 237.821 z "/>
<path style="fill:rgb(255, 22, 75);fill-opacity:1.0;fill-rule:evenodd;stroke:rgb(0, 0, 0);stroke-width:3.0;" d="M 152.904, 482.44 L 139.198, 486.714 L 132.375, 485.751 L 160.687, 462.056 L 161.291, 461.949 z "/>
<path style="fill:rgb(75, 255, 255);fill-opacity:1.0;fill-rule:evenodd;stroke:rgb(0, 0, 0);stroke-width:3.0;" d="M 730.313, 500.977 L 728.994, 521.496 L 718.58, 512.47 L 729.392, 499.497 z "/>
<path style="fill:rgb(75, 255, 255);fill-opacity:1.0;fill-rule:evenodd;stroke:rgb(0, 0, 0);stroke-width:3.0;" d="M 29.3632, 223.277 L 21.0223, 239.843 L 10.4757, 258.23 L 6.91358, 261.72 L 6.1526, 261.229 L 13.9447, 244.014 L 28.9092, 223.04 z "/>
<path style="fill:rgb(255, 41, 24);fill-opacity:1.0;fill-rule:evenodd;stroke:rgb(0, 0, 0);stroke-width:3.0;" d="M 683.927, 379.012 L 682.512, 379.484 L 659.856, 381.924 L 650.591, 374.698 L 661.497, 360.727 z "/>
<path style="fill:rgb(255, 41, 24);fill-opacity:1.0;fill-rule:evenodd;stroke:rgb(0, 0, 0);stroke-width:3.0;" d="M 760.411, 125.695 L 711.538, 113.123 L 751.922, 109.317 z "/>
<path style="fill:rgb(20, 95, 255);fill-opacity:1.0;fill-rule:evenodd;stroke:rgb(0, 0, 0);stroke-width:3.0;" d="M 788.759, 9.18566 L 783.26, 23.9566 L 782.538, 24.1793 L 771.706, 6.32211 z "/>
<path style="fill:rgb(20, 95, 255);fill-opacity:1.0;fill-rule:evenodd;stroke:rgb(0, 0, 0);stroke-width:3.0;" d="M 231.81, 296.205 L 225.877, 308.586 L 222.131, 308.081 L 205.019, 274.468 L 229.804, 272.254 z "/>
<path style="fill:rgb(20, 95, 255);fill-opacity:1.0;fill-rule:evenodd;stroke:rgb(0, 0, 0);stroke-width:3.0;" d="M 751.922, 109.317 L 737.307, 110.694 L 735.642, 77.9119 z "/>
<path style="fill:rgb(20, 95, 255);fill-opacity:1.0;fill-rule:evenodd;stroke:rgb(0, 0, 0);stroke-width:3.0;" d="M 460.788, 340.218 L 464.124, 345.615 L 452.367, 355.203 L 421.289, 350.368 L 422.232, 335.026 z "/>
<path style="fill:rgb(20, 95, 255);fill-opacity:1.0;fill-rule:evenodd;stroke:rgb(0, 0, 0);stroke-width:3.0;" d="M 525.525, 262.889 L 509.64, 307.003 L 507.809, 304.18 L 506.352, 278.873 L 524.952, 262.461 z "/>
<path style="fill:rgb(20, 95, 255);fill-opacity:1.0;fill-rule:evenodd;stroke:rgb(0, 0, 0);stroke-width:3.0;" d="M 649.658, 99.3767 L 642.434, 101.799 L 629.129, 85.7526 L 626.313, 73.9559 z "/>
<path style="fill:rgb(20, 95, 255);fill-opacity:1.0;fill-rule:evenodd;stroke:rgb(0, 0, 0);stroke-width:3.0;" d="M 692.691, 440.525 L 676.74, 456.54 L 671.116, 451.384 L 677.893, 443.372 L 691.958, 439.348 z "/>
<path style="fill:rgb(252, 228, 14);fill-opacity:1.0;fill-rule:evenodd;stroke:rgb(0, 0, 0);stroke-width:3.0;" d="M 688.845, 476.793 L 694.304, 494.548 L 690.865, 493.36 L 680.845, 481.064 L 682.742, 468.734 z "/>
<path style="fill:rgb(252, 228, 14);fill-opacity:1.0;fill-rule:evenodd;stroke:rgb(0, 0, 0);stroke-width:3.0;" d="M 122.317, 193.363 L 113.536, 211.957 L 103.938, 190.949 L 113.686, 183.543 z "/>
<path style="fill:rgb(240, 202, 6);fill-opacity:1.0;fill-rule:evenodd;stroke:rgb(0, 0, 0);stroke-width:3.0;" d="M 696.701, 408.929 L 682.853, 422.188 L 676.032, 427.366 L 670.548, 420.398 L 676.336, 410.935 L 696.735, 407.754 z "/>
<path style="fill:rgb(240, 202, 6);fill-opacity:1.0;fill-rule:evenodd;stroke:rgb(0, 0, 0);stroke-width:3.0;" d="M 423.931, 407.687 L 400.079, 418.254 L 398.61, 401.046 L 460.339, 376.698 z "/>
<path style="fill:rgb(6, 146, 252);fill-opacity:1.0;fill-rule:evenodd;stroke:rgb(0, 0, 0);stroke-width:3.0;" d="M 484.15, 360.147 L 493.038, 386.431 L 467.447, 382.305 L 470.448, 368.093 L 480.458, 359.572 z "/>
<path style="fill:rgb(6, 146, 252);fill-opacity:1.0;fill-rule:evenodd;stroke:rgb(0, 0, 0);stroke-width:3.0;" d="M 593.31, 511.253 L 441.212, 528.846 L 451.366, 508.183 L 550.931, 479.697 z "/>
<path style="fill:rgb(217, 255, 69);fill-opacity:1.0;fill-rule:evenodd;stroke:rgb(0, 0, 0);stroke-width:3.0;" d="M 441.212, 528.846 L 438.233, 529.19 L 419.063, 517.425 L 451.366, 508.183 z "/>
<path style="fill:rgb(44, 144, 212);fill-opacity:1.0;fill-rule:evenodd;stroke:rgb(0, 0, 0);stroke-width:3.0;" d="M 112.223, 333.936 L 111.614, 334.398 L 26.8266, 299.502 L 90.3389, 291.516 z "/>
<path style="fill:rgb(255, 249, 13);fill-opacity:1.0;fill-rule:evenodd;stroke:rgb(0, 0, 0);stroke-width:3.0;" d="M 525.828, 358.822 L 532.469, 372.971 L 529.869, 376.001 L 500.963, 379.554 L 498.324, 358.188 z "/>
<path style="fill:rgb(255, 249, 13);fill-opacity:1.0;fill-rule:evenodd;stroke:rgb(0, 0, 0);stroke-width:3.0;" d="M 409.864, 111.771 L 380.73, 140.694 L 374.375, 137.704 L 374.922, 110.031 L 403.374, 97.9431 z "/>
<path style="fill:rgb(223, 13, 14);fill-opacity:1.0;fill-rule:evenodd;stroke:rgb(0, 0, 0);stroke-width:3.0;" d="M 690.182, 384.112 L 681.977, 377.423 L 720.539, 343.31 z "/>
<path style="fill:rgb(223, 16, 255);fill-opacity:1.0;fill-rule:evenodd;stroke:rgb(0, 0, 0);stroke-width:3.0;" d="M 625.12, 122.597 L 620.403, 124.443 L 590.116, 126.134 L 615.146, 112.069 z "/>
<path style="fill:rgb(223, 16, 255);fill-opacity:1.0;fill-rule:evenodd;stroke:rgb(0, 0, 0);stroke-width:3.0;" d="M 741.111, 315.661 L 720.539, 343.31 L 681.977, 377.423 L 659.301, 358.936 L 736.627, 307.55 z "/>
<path style="fill:rgb(86, 56, 234);fill-opacity:1.0;fill-rule:evenodd;stroke:rgb(0, 0, 0);stroke-width:3.0;" d="M 125.302, 295.043 L 124.809, 301.504 L 102.602, 304.164 L 106.904, 292.565 z "/>
<path style="fill:rgb(95, 255, 255);fill-opacity:1.0;fill-rule:evenodd;stroke:rgb(0, 0, 0);stroke-width:3.0;" d="M 22.2838, 76.1608 L 44.07, 120.528 L 34.7949, 125.149 L 17.6769, 71.0613 z "/>
<path style="fill:rgb(255, 110, 9);fill-opacity:1.0;fill-rule:evenodd;stroke:rgb(0, 0, 0);stroke-width:3.0;" d="M 763.062, 246.53 L 758.219, 309.993 L 725.693, 224.905 L 739.304, 214.088 z "/>
<path style="fill:rgb(255, 110, 9);fill-opacity:1.0;fill-rule:evenodd;stroke:rgb(0, 0, 0);stroke-width:3.0;" d="M 632.08, 13.9793 L 626.178, 22.417 L 620.696, 18.5607 L 617.617, 9.61119 L 631.812, 7.58979 z "/>
<path style="fill:rgb(45, 54, 243);fill-opacity:1.0;fill-rule:evenodd;stroke:rgb(0, 0, 0);stroke-width:3.0;" d="M 664.457, 385.513 L 649.513, 390.503 L 636.897, 364.017 z "/>
<path style="fill:rgb(240, 28, 8);fill-opacity:1.0;fill-rule:evenodd;stroke:rgb(0, 0, 0);stroke-width:3.0;" d="M 626.313, 73.9559 L 629.129, 85.7526 L 610.309, 63.0544 L 611.813, 58.1667 z "/>
<path style="fill:rgb(240, 28, 8);fill-opacity:1.0;fill-rule:evenodd;stroke:rgb(0, 0, 0);stroke-width:3.0;" d="M 760.268, 578.526 L 769.686, 590.082 L 741.714, 588.726 L 738.89, 587.633 L 739.915, 572.16 z "/>
<path style="fill:rgb(59, 144, 255);fill-opacity:1.0;fill-rule:evenodd;stroke:rgb(0, 0, 0);stroke-width:3.0;" d="M 631.088, 483.307 L 626.047, 507.466 L 619.882, 508.179 L 622.893, 480.777 z "/>
<path style="fill:rgb(59, 144, 255);fill-opacity:1.0;fill-rule:evenodd;stroke:rgb(0, 0, 0);stroke-width:3.0;" d="M 702.991, 174.832 L 633.072, 120.195 L 583.858, 31.154 z "/>
<path style="fill:rgb(59, 144, 255);fill-opacity:1.0;fill-rule:evenodd;stroke:rgb(0, 0, 0);stroke-width:3.0;" d="M 457.73, 37.2834 L 458.979, 61.2379 L 443.273, 33.1994 z "/>
<path style="fill:rgb(59, 144, 255);fill-opacity:1.0;fill-rule:evenodd;stroke:rgb(0, 0, 0);stroke-width:3.0;" d="M 721.67, 522.975 L 741.272, 549.394 L 740.579, 550.78 L 726.977, 537.674 L 714.852, 522.795 z "/>
<path style="fill:rgb(59, 144, 255);fill-opacity:1.0;fill-rule:evenodd;stroke:rgb(0, 0, 0);stroke-width:3.0;" d="M 224.432, 208.078 L 211.973, 273.847 L 205.019, 274.468 L 166.406, 198.621 L 221.674, 175.14 z "/>
<path style="fill:rgb(59, 144, 255);fill-opacity:1.0;fill-rule:evenodd;stroke:rgb(0, 0, 0);stroke-width:3.0;" d="M 194.947, 254.685 L 180.977, 267.891 L 170.174, 206.023 z "/>
<path style="fill:rgb(59, 144, 255);fill-opacity:1.0;fill-rule:evenodd;stroke:rgb(0, 0, 0);stroke-width:3.0;" d="M 717.326, 525.831 L 672.458, 543.15 L 667.987, 541.09 L 703.292, 508.61 z "/>
<path style="fill:rgb(29, 103, 226);fill-opacity:1.0;fill-rule:evenodd;stroke:rgb(0, 0, 0);stroke-width:3.0;" d="M 588.282, 428.256 L 584.573, 449.848 L 564.593, 441.409 L 529.658, 366.982 L 502.519, 296.024 z "/>
<path style="fill:rgb(29, 103, 226);fill-opacity:1.0;fill-rule:evenodd;stroke:rgb(0, 0, 0);stroke-width:3.0;" d="M 385.723, 535.264 L 365.547, 537.598 L 354.279, 535.96 L 381.49, 528.175 z "/>
<path style="fill:rgb(29, 103, 226);fill-opacity:1.0;fill-rule:evenodd;stroke:rgb(0, 0, 0);stroke-width:3.0;" d="M 117.751, 147.004 L 120.635, 150.835 L 121.475, 152.706 L 111.449, 157.418 L 104.064, 145.929 z "/>
<path style="fill:rgb(29, 103, 226);fill-opacity:1.0;fill-rule:evenodd;stroke:rgb(0, 0, 0);stroke-width:3.0;" d="M 750.339, 289.38 L 763.897, 324.844 L 748.024, 328.169 L 723.99, 284.686 z "/>
<path style="fill:rgb(255, 231, 11);fill-opacity:1.0;fill-rule:evenodd;stroke:rgb(0, 0, 0);stroke-width:3.0;" d="M 753.105, 537.599 L 748.072, 538.029 L 728.994, 521.496 L 730.313, 500.977 z "/>
<path style="fill:rgb(30, 71, 255);fill-opacity:1.0;fill-rule:evenodd;stroke:rgb(0, 0, 0);stroke-width:3.0;" d="M 727.22, 537.973 L 726.428, 538.335 L 696.813, 547.509 L 710.21, 528.578 L 717.326, 525.831 z "/>
<path style="fill:rgb(237, 255, 76);fill-opacity:1.0;fill-rule:evenodd;stroke:rgb(0, 0, 0);stroke-width:3.0;" d="M 637.997, 523.771 L 638.258, 527.388 L 601.256, 510.334 L 625.031, 507.584 z "/>
<path style="fill:rgb(237, 255, 76);fill-opacity:1.0;fill-rule:evenodd;stroke:rgb(0, 0, 0);stroke-width:3.0;" d="M 595.226, 530.238 L 594.366, 531.738 L 579.263, 525.897 L 574.898, 513.382 L 591.502, 511.462 z "/>
<path style="fill:rgb(177, 18, 8);fill-opacity:1.0;fill-rule:evenodd;stroke:rgb(0, 0, 0);stroke-width:3.0;" d="M 170.174, 206.023 L 187.173, 303.374 L 92.7269, 290.656 L 140.07, 209.811 L 166.406, 198.621 z "/>
<path style="fill:rgb(177, 18, 8);fill-opacity:1.0;fill-rule:evenodd;stroke:rgb(0, 0, 0);stroke-width:3.0;" d="M 790.718, 562.968 L 781.285, 569.663 L 776.197, 561.319 L 780.02, 551.991 z "/>
<path style="fill:rgb(37, 255, 255);fill-opacity:1.0;fill-rule:evenodd;stroke:rgb(0, 0, 0);stroke-width:3.0;" d="M 779.353, 268.776 L 785.489, 381.328 L 758.219, 309.993 L 763.062, 246.53 z "/>
<path style="fill:rgb(255, 70, 36);fill-opacity:1.0;fill-rule:evenodd;stroke:rgb(0, 0, 0);stroke-width:3.0;" d="M 655.711, 67.9485 L 655.995, 68.2706 L 660.997, 86.7041 L 660.584, 91.2897 L 617.807, 50.5237 L 617.115, 33.6448 z "/>
<path style="fill:rgb(255, 70, 36);fill-opacity:1.0;fill-rule:evenodd;stroke:rgb(0, 0, 0);stroke-width:3.0;" d="M 775.08, 354.099 L 760.157, 350.121 L 751.101, 333.736 L 760.551, 325.545 L 763.897, 324.844 z "/>
<path style="fill:rgb(255, 70, 36);fill-opacity:1.0;fill-rule:evenodd;stroke:rgb(0, 0, 0);stroke-width:3.0;" d="M 632.095, 478.481 L 631.088, 483.307 L 609.644, 476.687 L 619.399, 467.033 z "/>
<path style="fill:rgb(255, 11, 24);fill-opacity:1.0;fill-rule:evenodd;stroke:rgb(0, 0, 0);stroke-width:3.0;" d="M 520.894, 348.312 L 515.376, 347.569 L 499.979, 332.937 L 501.118, 330.397 L 512.405, 330.227 z "/>
<path style="fill:rgb(255, 11, 24);fill-opacity:1.0;fill-rule:evenodd;stroke:rgb(0, 0, 0);stroke-width:3.0;" d="M 238.331, 310.263 L 240.767, 319.293 L 132.352, 370.445 L 124.709, 368.254 L 176.617, 301.953 z "/>
<path style="fill:rgb(255, 11, 24);fill-opacity:1.0;fill-rule:evenodd;stroke:rgb(0, 0, 0);stroke-width:3.0;" d="M 499.979, 332.937 L 488.888, 322.397 L 505.978, 319.557 z "/>
<path style="fill:rgb(89, 14, 223);fill-opacity:1.0;fill-rule:evenodd;stroke:rgb(0, 0, 0);stroke-width:3.0;" d="M 160.609, 371.564 L 111.547, 385.067 L 117.513, 377.446 L 153.512, 360.461 z "/>
<path style="fill:rgb(89, 14, 223);fill-opacity:1.0;fill-rule:evenodd;stroke:rgb(0, 0, 0);stroke-width:3.0;" d="M 683.862, 115.48 L 683.461, 114.43 L 689.023, 98.546 L 703.992, 97.4658 z "/>
<path style="fill:rgb(231, 179, 246);fill-opacity:1.0;fill-rule:evenodd;stroke:rgb(0, 0, 0);stroke-width:3.0;" d="M 700.928, 80.6408 L 709.059, 92.9307 L 703.992, 97.4658 L 689.023, 98.546 L 695.376, 80.406 z "/>
<path style="fill:rgb(72, 255, 255);fill-opacity:1.0;fill-rule:evenodd;stroke:rgb(0, 0, 0);stroke-width:3.0;" d="M 89.6839, 290.247 L 90.3389, 291.516 L 69.352, 294.155 L 62.0709, 286.528 z "/>
<path style="fill:rgb(237, 13, 44);fill-opacity:1.0;fill-rule:evenodd;stroke:rgb(0, 0, 0);stroke-width:3.0;" d="M 502.695, 309.539 L 507.294, 319.338 L 488.888, 322.397 L 460.27, 295.2 L 479.118, 270.595 z "/>
<path style="fill:rgb(237, 13, 44);fill-opacity:1.0;fill-rule:evenodd;stroke:rgb(0, 0, 0);stroke-width:3.0;" d="M 108.126, 231.927 L 92.9132, 246.612 L 95.0305, 227.027 L 100.382, 225.751 z "/>
<path style="fill:rgb(255, 44, 18);fill-opacity:1.0;fill-rule:evenodd;stroke:rgb(0, 0, 0);stroke-width:3.0;" d="M 155.449, 183.547 L 149.782, 170.819 L 150.588, 168.16 L 167.651, 162.711 z "/>
<path style="fill:rgb(255, 44, 18);fill-opacity:1.0;fill-rule:evenodd;stroke:rgb(0, 0, 0);stroke-width:3.0;" d="M 157.746, 299.411 L 112.223, 333.936 L 104.743, 319.438 L 103.347, 304.075 L 150.463, 298.431 z "/>
<path style="fill:rgb(255, 44, 18);fill-opacity:1.0;fill-rule:evenodd;stroke:rgb(0, 0, 0);stroke-width:3.0;" d="M 593.805, 117.627 L 588.201, 124.371 L 575.348, 113.83 L 589.101, 110.425 z "/>
<path style="fill:rgb(255, 246, 55);fill-opacity:1.0;fill-rule:evenodd;stroke:rgb(0, 0, 0);stroke-width:3.0;" d="M 155.449, 183.547 L 149.904, 193.016 L 129.912, 184.068 L 124.34, 175.45 L 144.892, 159.837 z "/>
<path style="fill:rgb(255, 246, 55);fill-opacity:1.0;fill-rule:evenodd;stroke:rgb(0, 0, 0);stroke-width:3.0;" d="M 685.049, 72.3473 L 683.315, 79.896 L 670.24, 79.343 L 668.171, 61.7906 z "/>
<path style="fill:rgb(255, 246, 55);fill-opacity:1.0;fill-rule:evenodd;stroke:rgb(0, 0, 0);stroke-width:3.0;" d="M 572.899, 134.853 L 569.974, 134.898 L 565.21, 133.163 L 557.146, 128.821 L 557.467, 118.258 L 560.619, 117.477 z "/>
<path style="fill:rgb(159, 3, 209);fill-opacity:1.0;fill-rule:evenodd;stroke:rgb(0, 0, 0);stroke-width:3.0;" d="M 616.713, 23.8478 L 617.807, 50.5237 L 600.535, 34.0632 L 611.234, 17.6521 z "/>
<path style="fill:rgb(159, 3, 209);fill-opacity:1.0;fill-rule:evenodd;stroke:rgb(0, 0, 0);stroke-width:3.0;" d="M 611.813, 58.1667 L 610.309, 63.0544 L 591.072, 39.8547 L 593.001, 37.6821 z "/>
<path style="fill:rgb(159, 3, 209);fill-opacity:1.0;fill-rule:evenodd;stroke:rgb(0, 0, 0);stroke-width:3.0;" d="M 651.352, 46.9596 L 664.863, 74.9355 L 665.34, 78.8375 L 630.825, 39.8062 L 631.012, 25.5895 L 631.787, 25.3495 z "/>
<path style="fill:rgb(159, 3, 209);fill-opacity:1.0;fill-rule:evenodd;stroke:rgb(0, 0, 0);stroke-width:3.0;" d="M 711.657, 107.43 L 704.684, 105.004 L 710.791, 98.2667 L 732.669, 77.0849 z "/>
<path style="fill:rgb(41, 246, 240);fill-opacity:1.0;fill-rule:evenodd;stroke:rgb(0, 0, 0);stroke-width:3.0;" d="M 724.127, 55.6966 L 732.537, 71.9203 L 719.6, 83.4974 L 698.617, 77.1484 L 696.918, 74.5808 L 711.202, 54.1084 z "/>
<path style="fill:rgb(41, 246, 240);fill-opacity:1.0;fill-rule:evenodd;stroke:rgb(0, 0, 0);stroke-width:3.0;" d="M 370.058, 135.673 L 343.725, 123.285 L 368.016, 112.965 z "/>
<path style="fill:rgb(255, 255, 57);fill-opacity:1.0;fill-rule:evenodd;stroke:rgb(0, 0, 0);stroke-width:3.0;" d="M 658.31, 48.6374 L 654.801, 50.7686 L 631.787, 25.3495 L 647.543, 20.4711 z "/>
<path style="fill:rgb(255, 255, 57);fill-opacity:1.0;fill-rule:evenodd;stroke:rgb(0, 0, 0);stroke-width:3.0;" d="M 477.985, 9.29354 L 462.342, 31.1581 L 457.473, 32.3441 L 457.147, 26.0868 L 477.743, 9.15315 z "/>
<path style="fill:rgb(255, 255, 57);fill-opacity:1.0;fill-rule:evenodd;stroke:rgb(0, 0, 0);stroke-width:3.0;" d="M 771.79, 475.542 L 720.264, 484.829 L 694.891, 444.061 z "/>
<path style="fill:rgb(102, 255, 234);fill-opacity:1.0;fill-rule:evenodd;stroke:rgb(0, 0, 0);stroke-width:3.0;" d="M 435.544, 166.479 L 437.646, 170.957 L 361.619, 132.94 L 359.466, 130.69 z "/>
<path style="fill:rgb(102, 255, 234);fill-opacity:1.0;fill-rule:evenodd;stroke:rgb(0, 0, 0);stroke-width:3.0;" d="M 770.614, 552.165 L 764.443, 576.604 L 749.396, 556.737 L 767.795, 547.542 z "/>
<path style="fill:rgb(102, 255, 234);fill-opacity:1.0;fill-rule:evenodd;stroke:rgb(0, 0, 0);stroke-width:3.0;" d="M 112.101, 146.56 L 103.8, 145.908 L 105.96, 125.93 L 118.869, 115.461 z "/>
<path style="fill:rgb(255, 1, 7);fill-opacity:1.0;fill-rule:evenodd;stroke:rgb(0, 0, 0);stroke-width:3.0;" d="M 117.573, 92.7046 L 120.742, 106.855 L 118.869, 115.461 L 105.96, 125.93 L 111.284, 76.6835 z "/>
<path style="fill:rgb(65, 255, 255);fill-opacity:1.0;fill-rule:evenodd;stroke:rgb(0, 0, 0);stroke-width:3.0;" d="M 539.072, 387.038 L 524.851, 386.724 L 509.59, 378.494 L 533.672, 375.534 z "/>
<path style="fill:rgb(67, 255, 231);fill-opacity:1.0;fill-rule:evenodd;stroke:rgb(0, 0, 0);stroke-width:3.0;" d="M 715.706, 492.264 L 726.882, 502.51 L 717.159, 514.175 L 699.93, 491.428 z "/>
<path style="fill:rgb(255, 8, 8);fill-opacity:1.0;fill-rule:evenodd;stroke:rgb(0, 0, 0);stroke-width:3.0;" d="M 146.17, 498.892 L 104.089, 509.424 L 125.503, 491.503 L 149.238, 491.398 z "/>
<path style="fill:rgb(255, 8, 8);fill-opacity:1.0;fill-rule:evenodd;stroke:rgb(0, 0, 0);stroke-width:3.0;" d="M 359.466, 130.69 L 415.29, 189.028 L 343.999, 184.708 L 299.25, 142.181 L 343.725, 123.285 z "/>
<path style="fill:rgb(49, 252, 217);fill-opacity:1.0;fill-rule:evenodd;stroke:rgb(0, 0, 0);stroke-width:3.0;" d="M 605.515, 512.297 L 604.591, 513.908 L 594.141, 524.767 L 591.502, 511.462 L 601.256, 510.334 z "/>
<path style="fill:rgb(21, 197, 209);fill-opacity:1.0;fill-rule:evenodd;stroke:rgb(0, 0, 0);stroke-width:3.0;" d="M 111.547, 385.067 L 94.4916, 389.761 L 103.405, 377.99 L 123.051, 370.373 z "/>
<path style="fill:rgb(255, 231, 19);fill-opacity:1.0;fill-rule:evenodd;stroke:rgb(0, 0, 0);stroke-width:3.0;" d="M 506.172, 386.31 L 519.201, 391.275 L 505.785, 400.944 L 503.65, 401.322 L 502.886, 395.134 L 505.548, 386.297 z "/>
<path style="fill:rgb(255, 231, 19);fill-opacity:1.0;fill-rule:evenodd;stroke:rgb(0, 0, 0);stroke-width:3.0;" d="M 143.666, 203.669 L 135.661, 217.339 L 133.229, 217.919 L 125.125, 212.697 L 129.544, 202.635 z "/>
<path style="fill:rgb(255, 231, 19);fill-opacity:1.0;fill-rule:evenodd;stroke:rgb(0, 0, 0);stroke-width:3.0;" d="M 723.868, 523.033 L 714.852, 522.795 L 706.012, 511.948 L 710.35, 505.185 z "/>
<path style="fill:rgb(243, 110, 88);fill-opacity:1.0;fill-rule:evenodd;stroke:rgb(0, 0, 0);stroke-width:3.0;" d="M 728.121, 568.691 L 724.58, 582.099 L 712.859, 577.566 L 713.389, 574.257 L 725.032, 565.959 z "/>
<path style="fill:rgb(243, 110, 88);fill-opacity:1.0;fill-rule:evenodd;stroke:rgb(0, 0, 0);stroke-width:3.0;" d="M 638.434, 527.469 L 638.916, 541.534 L 619.595, 541.496 L 615.099, 539.757 L 597.823, 525.71 L 605.515, 512.297 z "/>
<path style="fill:rgb(243, 110, 88);fill-opacity:1.0;fill-rule:evenodd;stroke:rgb(0, 0, 0);stroke-width:3.0;" d="M 632.75, 119.611 L 625.12, 122.597 L 615.146, 112.069 L 616.514, 111.3 L 626.449, 108.212 z "/>
<path style="fill:rgb(29, 57, 255);fill-opacity:1.0;fill-rule:evenodd;stroke:rgb(0, 0, 0);stroke-width:3.0;" d="M 595.296, 134.509 L 585.685, 134.657 L 578.196, 128.929 L 584.287, 126.46 L 601.393, 125.505 z "/>
<path style="fill:rgb(29, 57, 255);fill-opacity:1.0;fill-rule:evenodd;stroke:rgb(0, 0, 0);stroke-width:3.0;" d="M 397.445, 55.9437 L 396.403, 70.8367 L 395.452, 70.8618 L 383.584, 55.7833 L 377.817, 43.4967 L 380.104, 27.4499 z "/>
<path style="fill:rgb(255, 234, 18);fill-opacity:1.0;fill-rule:evenodd;stroke:rgb(0, 0, 0);stroke-width:3.0;" d="M 504.531, 247.224 L 507.809, 304.18 L 480.193, 261.6 L 456.688, 211.526 z "/>
<path style="fill:rgb(255, 255, 7);fill-opacity:1.0;fill-rule:evenodd;stroke:rgb(0, 0, 0);stroke-width:3.0;" d="M 698.19, 502.348 L 650.109, 532.85 L 642.437, 529.314 L 625.031, 507.584 L 695.787, 499.4 z "/>
<path style="fill:rgb(255, 42, 255);fill-opacity:1.0;fill-rule:evenodd;stroke:rgb(0, 0, 0);stroke-width:3.0;" d="M 663.773, 24.4843 L 664.961, 34.5617 L 659.414, 40.8284 L 657.426, 14.891 z "/>
<path style="fill:rgb(246, 255, 20);fill-opacity:1.0;fill-rule:evenodd;stroke:rgb(0, 0, 0);stroke-width:3.0;" d="M 661.497, 360.727 L 650.591, 374.698 L 645.819, 370.976 L 651.203, 352.334 z "/>
<path style="fill:rgb(148, 1, 228);fill-opacity:1.0;fill-rule:evenodd;stroke:rgb(0, 0, 0);stroke-width:3.0;" d="M 739.304, 214.088 L 735.27, 217.294 L 721.117, 212.935 L 711.733, 188.389 L 718.578, 185.786 z "/>
<path style="fill:rgb(243, 157, 8);fill-opacity:1.0;fill-rule:evenodd;stroke:rgb(0, 0, 0);stroke-width:3.0;" d="M 222.833, 65.4227 L 223.215, 67.8267 L 203.635, 101.262 L 183.446, 107.518 L 212.09, 63.9304 z "/>
<path style="fill:rgb(112, 97, 255);fill-opacity:1.0;fill-rule:evenodd;stroke:rgb(0, 0, 0);stroke-width:3.0;" d="M 776.787, 562.287 L 766.198, 578.92 L 764.443, 576.604 L 770.614, 552.165 z "/>
<path style="fill:rgb(255, 49, 16);fill-opacity:1.0;fill-rule:evenodd;stroke:rgb(0, 0, 0);stroke-width:3.0;" d="M 155.048, 329.503 L 123.64, 369.62 L 116.007, 361.35 L 138.225, 332.01 L 153.813, 325.033 z "/>
<path style="fill:rgb(108, 255, 255);fill-opacity:1.0;fill-rule:evenodd;stroke:rgb(0, 0, 0);stroke-width:3.0;" d="M 109.592, 261.857 L 103.742, 271.846 L 94.8405, 273.184 L 90.3321, 270.486 L 91.9384, 255.628 L 95.3946, 252.918 z "/>
<path style="fill:rgb(249, 255, 59);fill-opacity:1.0;fill-rule:evenodd;stroke:rgb(0, 0, 0);stroke-width:3.0;" d="M 129.949, 147.961 L 117.216, 146.962 L 121.581, 118.216 L 123.083, 117.307 z "/>
<path style="fill:rgb(255, 150, 21);fill-opacity:1.0;fill-rule:evenodd;stroke:rgb(0, 0, 0);stroke-width:3.0;" d="M 550.835, 127.385 L 547.943, 135.236 L 531.322, 135.491 L 522.311, 126.962 L 528.162, 125.513 z "/>
<path style="fill:rgb(255, 138, 255);fill-opacity:1.0;fill-rule:evenodd;stroke:rgb(0, 0, 0);stroke-width:3.0;" d="M 433.237, 168.753 L 420.084, 189.319 L 415.29, 189.028 L 414.934, 188.656 L 428.942, 166.605 z "/>
<path style="fill:rgb(255, 138, 255);fill-opacity:1.0;fill-rule:evenodd;stroke:rgb(0, 0, 0);stroke-width:3.0;" d="M 673.293, 87.8316 L 684.555, 117.293 L 664.684, 100.289 L 657.06, 72.1948 L 656.706, 69.0743 z "/>
<path style="fill:rgb(42, 117, 240);fill-opacity:1.0;fill-rule:evenodd;stroke:rgb(0, 0, 0);stroke-width:3.0;" d="M 428.942, 166.605 L 414.934, 188.656 L 361.619, 132.94 z "/>
<path style="fill:rgb(231, 5, 243);fill-opacity:1.0;fill-rule:evenodd;stroke:rgb(0, 0, 0);stroke-width:3.0;" d="M 677.791, 532.07 L 667.987, 541.09 L 650.109, 532.85 L 663.592, 524.296 z "/>
<path style="fill:rgb(255, 249, 46);fill-opacity:1.0;fill-rule:evenodd;stroke:rgb(0, 0, 0);stroke-width:3.0;" d="M 442.685, 541.926 L 420.968, 571.104 L 319.103, 546.024 L 337.025, 540.897 L 437.265, 529.302 z "/>
<path style="fill:rgb(138, 215, 172);fill-opacity:1.0;fill-rule:evenodd;stroke:rgb(0, 0, 0);stroke-width:3.0;" d="M 463.109, 156.827 L 439.908, 127.347 L 460.038, 112.302 z "/>
<path style="fill:rgb(255, 249, 7);fill-opacity:1.0;fill-rule:evenodd;stroke:rgb(0, 0, 0);stroke-width:3.0;" d="M 696.993, 398.931 L 696.735, 407.754 L 676.67, 410.882 L 683.83, 385.281 z "/>
<path style="fill:rgb(252, 128, 29);fill-opacity:1.0;fill-rule:evenodd;stroke:rgb(0, 0, 0);stroke-width:3.0;" d="M 438.233, 529.19 L 400.275, 533.581 L 393.135, 524.843 L 419.063, 517.425 z "/>
<path style="fill:rgb(246, 107, 39);fill-opacity:1.0;fill-rule:evenodd;stroke:rgb(0, 0, 0);stroke-width:3.0;" d="M 611.234, 17.6521 L 603.278, 29.8552 L 595.09, 33.9271 L 598.901, 18.2166 L 609.679, 15.894 z "/>
<path style="fill:rgb(197, 0, 44);fill-opacity:1.0;fill-rule:evenodd;stroke:rgb(0, 0, 0);stroke-width:3.0;" d="M 669.081, 541.594 L 694.11, 553.13 L 674.999, 561.878 L 652.734, 554.312 L 619.595, 541.496 z "/>
<path style="fill:rgb(255, 24, 119);fill-opacity:1.0;fill-rule:evenodd;stroke:rgb(0, 0, 0);stroke-width:3.0;" d="M 20.4179, 556.249 L 24.4961, 562.477 L 17.9167, 564.2 L 9.85557, 563.135 L 9.68663, 553.952 z "/>
<path style="fill:rgb(237, 50, 161);fill-opacity:1.0;fill-rule:evenodd;stroke:rgb(0, 0, 0);stroke-width:3.0;" d="M 775.08, 354.099 L 794.075, 403.789 L 787.34, 399.301 L 760.157, 350.121 z "/>
<path style="fill:rgb(199, 237, 237);fill-opacity:1.0;fill-rule:evenodd;stroke:rgb(0, 0, 0);stroke-width:3.0;" d="M 176.973, 122.248 L 164.36, 145.048 L 153.222, 153.509 L 174.535, 121.078 z "/>
<path style="fill:rgb(199, 237, 237);fill-opacity:1.0;fill-rule:evenodd;stroke:rgb(0, 0, 0);stroke-width:3.0;" d="M 493.038, 386.431 L 497.496, 399.614 L 495.372, 402.788 L 412.432, 417.476 L 455.932, 380.449 z "/>
<path style="fill:rgb(255, 172, 168);fill-opacity:1.0;fill-rule:evenodd;stroke:rgb(0, 0, 0);stroke-width:3.0;" d="M 222.131, 308.081 L 187.173, 303.374 L 186.786, 301.159 L 202.134, 268.802 z "/>
<path style="fill:rgb(255, 100, 215);fill-opacity:1.0;fill-rule:evenodd;stroke:rgb(0, 0, 0);stroke-width:3.0;" d="M 149.238, 491.398 L 125.503, 491.503 L 126.487, 490.678 L 152.904, 482.44 z "/>
<path style="fill:rgb(212, 11, 88);fill-opacity:1.0;fill-rule:evenodd;stroke:rgb(0, 0, 0);stroke-width:3.0;" d="M 34.7949, 125.149 L 13.8077, 135.603 L 13.3349, 134.189 L 21.6803, 83.7108 z "/>
<path style="fill:rgb(11, 223, 255);fill-opacity:1.0;fill-rule:evenodd;stroke:rgb(0, 0, 0);stroke-width:3.0;" d="M 711.202, 54.1084 L 696.918, 74.5808 L 680.911, 50.3861 z "/>
<path style="fill:rgb(10, 255, 226);fill-opacity:1.0;fill-rule:evenodd;stroke:rgb(0, 0, 0);stroke-width:3.0;" d="M 687.726, 60.6872 L 685.049, 72.3473 L 668.171, 61.7906 L 663.773, 24.4843 z "/>
<path style="fill:rgb(255, 21, 18);fill-opacity:1.0;fill-rule:evenodd;stroke:rgb(0, 0, 0);stroke-width:3.0;" d="M 33.3506, 144.712 L 27.9148, 154.585 L 7.4261, 138.782 L 14.6292, 135.194 z "/>
<path style="fill:rgb(255, 21, 18);fill-opacity:1.0;fill-rule:evenodd;stroke:rgb(0, 0, 0);stroke-width:3.0;" d="M 19.6697, 209.538 L 8.02848, 190.703 L 8.16214, 190.46 L 38.0868, 155.381 z "/>
<path style="fill:rgb(255, 45, 192);fill-opacity:1.0;fill-rule:evenodd;stroke:rgb(0, 0, 0);stroke-width:3.0;" d="M 669.081, 541.594 L 638.916, 541.534 L 638.434, 527.469 z "/>
<path style="fill:rgb(255, 45, 192);fill-opacity:1.0;fill-rule:evenodd;stroke:rgb(0, 0, 0);stroke-width:3.0;" d="M 27.9148, 154.585 L 20.2265, 168.548 L 10.4949, 166.076 L 5.45531, 139.763 L 7.4261, 138.782 z "/>
<path style="fill:rgb(240, 0, 223);fill-opacity:1.0;fill-rule:evenodd;stroke:rgb(0, 0, 0);stroke-width:3.0;" d="M 138.629, 187.97 L 137.57, 203.223 L 126.847, 202.437 L 135.795, 186.701 z "/>
<path style="fill:rgb(115, 47, 255);fill-opacity:1.0;fill-rule:evenodd;stroke:rgb(0, 0, 0);stroke-width:3.0;" d="M 477.743, 9.15315 L 457.147, 26.0868 L 456.366, 11.1143 L 477.203, 8.84148 z "/>
<path style="fill:rgb(74, 138, 237);fill-opacity:1.0;fill-rule:evenodd;stroke:rgb(0, 0, 0);stroke-width:3.0;" d="M 502.519, 296.024 L 529.658, 366.982 L 480.193, 261.6 z "/>
<path style="fill:rgb(252, 21, 10);fill-opacity:1.0;fill-rule:evenodd;stroke:rgb(0, 0, 0);stroke-width:3.0;" d="M 596.948, 377.806 L 588.282, 428.256 L 515.513, 316.058 L 541.733, 307.507 z "/>
<path style="fill:rgb(168, 24, 255);fill-opacity:1.0;fill-rule:evenodd;stroke:rgb(0, 0, 0);stroke-width:3.0;" d="M 794.962, 168.087 L 778.097, 267.06 L 718.578, 185.786 L 782.013, 161.666 z "/>
<path style="fill:rgb(220, 255, 24);fill-opacity:1.0;fill-rule:evenodd;stroke:rgb(0, 0, 0);stroke-width:3.0;" d="M 79.3658, 266.474 L 78.0656, 277.676 L 71.6949, 287.824 L 64.4182, 286.844 L 73.6804, 268.422 L 77.2336, 265.787 z "/>
<path style="fill:rgb(252, 21, 187);fill-opacity:1.0;fill-rule:evenodd;stroke:rgb(0, 0, 0);stroke-width:3.0;" d="M 781.453, 569.938 L 780.891, 572.514 L 772.382, 587.086 L 766.198, 578.92 L 773.658, 567.202 L 779.576, 566.861 z "/>
<path style="fill:rgb(255, 1, 100);fill-opacity:1.0;fill-rule:evenodd;stroke:rgb(0, 0, 0);stroke-width:3.0;" d="M 724.24, 411.877 L 712.801, 427.274 L 705.609, 435.442 L 699.313, 437.244 L 703.611, 406.43 L 710.833, 400.948 z "/>
<path style="fill:rgb(59, 217, 255);fill-opacity:1.0;fill-rule:evenodd;stroke:rgb(0, 0, 0);stroke-width:3.0;" d="M 660.584, 91.2897 L 660.125, 96.3885 L 622.547, 64.2343 L 626.49, 58.7977 z "/>
<path style="fill:rgb(255, 234, 29);fill-opacity:1.0;fill-rule:evenodd;stroke:rgb(0, 0, 0);stroke-width:3.0;" d="M 626.49, 58.7977 L 622.547, 64.2343 L 598.449, 43.614 L 596.028, 40.9773 L 600.535, 34.0632 z "/>
<path style="fill:rgb(215, 252, 50);fill-opacity:1.0;fill-rule:evenodd;stroke:rgb(0, 0, 0);stroke-width:3.0;" d="M 36.9563, 138.163 L 33.3506, 144.712 L 14.6292, 135.194 L 23.2683, 130.89 z "/>
<path style="fill:rgb(252, 12, 58);fill-opacity:1.0;fill-rule:evenodd;stroke:rgb(0, 0, 0);stroke-width:3.0;" d="M 671.133, 116.443 L 687.331, 127.472 L 681.357, 133.894 L 666.875, 118.125 L 669.402, 116.04 z "/>
<path style="fill:rgb(255, 115, 255);fill-opacity:1.0;fill-rule:evenodd;stroke:rgb(0, 0, 0);stroke-width:3.0;" d="M 229.804, 272.254 L 211.973, 273.847 L 224.432, 208.078 z "/>
<path style="fill:rgb(78, 228, 255);fill-opacity:1.0;fill-rule:evenodd;stroke:rgb(0, 0, 0);stroke-width:3.0;" d="M 677.099, 154.599 L 730.362, 280.075 L 719.538, 276.631 L 633.072, 120.195 z "/>
<path style="fill:rgb(184, 86, 64);fill-opacity:1.0;fill-rule:evenodd;stroke:rgb(0, 0, 0);stroke-width:3.0;" d="M 735.642, 77.9119 L 737.307, 110.694 L 711.538, 113.123 L 708.293, 112.288 L 734.124, 74.9833 z "/>
<path style="fill:rgb(194, 255, 154);fill-opacity:1.0;fill-rule:evenodd;stroke:rgb(0, 0, 0);stroke-width:3.0;" d="M 439.542, 183.767 L 442.122, 190.654 L 420.084, 189.319 L 424.603, 182.252 z "/>
<path style="fill:rgb(240, 67, 249);fill-opacity:1.0;fill-rule:evenodd;stroke:rgb(0, 0, 0);stroke-width:3.0;" d="M 422.232, 335.026 L 421.289, 350.368 L 412.633, 349.021 L 393.002, 331.09 z "/>
<path style="fill:rgb(240, 255, 11);fill-opacity:1.0;fill-rule:evenodd;stroke:rgb(0, 0, 0);stroke-width:3.0;" d="M 335.7, 323.374 L 160.609, 371.564 L 153.512, 360.461 L 162.42, 356.258 L 290.697, 317.314 z "/>
<path style="fill:rgb(240, 215, 10);fill-opacity:1.0;fill-rule:evenodd;stroke:rgb(0, 0, 0);stroke-width:3.0;" d="M 459.644, 73.9876 L 460.48, 90.0427 L 449.678, 91.7523 L 392.542, 31.779 L 440.323, 27.1482 z "/>
<path style="fill:rgb(255, 177, 11);fill-opacity:1.0;fill-rule:evenodd;stroke:rgb(0, 0, 0);stroke-width:3.0;" d="M 593.51, 492.655 L 616.503, 460.936 L 629.242, 457.292 z "/>
<path style="fill:rgb(255, 3, 124);fill-opacity:1.0;fill-rule:evenodd;stroke:rgb(0, 0, 0);stroke-width:3.0;" d="M 593.51, 492.655 L 582.701, 503.353 L 550.931, 479.697 L 616.503, 460.936 z "/>
<path style="fill:rgb(45, 157, 240);fill-opacity:1.0;fill-rule:evenodd;stroke:rgb(0, 0, 0);stroke-width:3.0;" d="M 186.191, 131.051 L 175.002, 150.157 L 172.808, 152.526 L 170.238, 141.33 L 170.635, 140.281 L 185.538, 128.96 z "/>
<path style="fill:rgb(82, 60, 255);fill-opacity:1.0;fill-rule:evenodd;stroke:rgb(0, 0, 0);stroke-width:3.0;" d="M 87.631, 239.541 L 81.4235, 253.021 L 78.4402, 258.955 L 76.6613, 258.338 L 71.4157, 245.609 L 73.1678, 239.913 L 87.5264, 237.891 z "/>
<path style="fill:rgb(9, 13, 255);fill-opacity:1.0;fill-rule:evenodd;stroke:rgb(0, 0, 0);stroke-width:3.0;" d="M 187.635, 127.366 L 164.36, 145.048 L 176.973, 122.248 z "/>
</svg>