<?xml version="1.0" encoding="iso-8859-1" standalone="no"?>
<!DOCTYPE svg PUBLIC "-//W3C//DTD SVG 1.0//EN" "http://www.w3.org/TR/2001/REC-SVG-20010904/DTD/svg10.dtd">
<svg xmlns="http://www.w3.org/2000/svg" width="800" height="600">
<path style="fill:rgb(0, 0, 0);fill-opacity:0.0;fill-rule:evenodd;stroke:rgb(0, 0, 0);stroke-width:0.0;" d="M 0, 600 L 800, 600 L 800, 0 L 0, 0 z "/>
<path style="fill:rgb(255, 189, 42);fill-opacity:1.0;fill-rule:evenodd;stroke:rgb(0, 0, 0);stroke-width:3.0;" d="M 434.535, 114.235 L 443.425, 129.854 L 432.786, 143.519 L 422.915, 136.67 L 416.958, 128.315 L 424.886, 109.221 z "/>
<path style="fill:rgb(255, 189, 42);fill-opacity:1.0;fill-rule:evenodd;stroke:rgb(0, 0, 0);stroke-width:3.0;" d="M 461.654, 546.372 L 295.516, 545.423 L 279.011, 457.857 L 282.036, 425.406 L 481.935, 382.65 z "/>
<path style="fill:rgb(24, 255, 255);fill-opacity:1.0;fill-rule:evenodd;stroke:rgb(0, 0, 0);stroke-width:3.0;" d="M 765.844, 406.936 L 719.301, 449.454 L 487.508, 546.52 L 486.569, 546.514 L 491.695, 511.738 L 764.672, 405.197 z "/>
<path style="fill:rgb(255, 0, 43);fill-opacity:1.0;fill-rule:evenodd;stroke:rgb(0, 0, 0);stroke-width:3.0;" d="M 339.859, 98.7276 L 335.732, 100.902 L 316.198, 93.485 L 328.123, 88.4675 L 336.214, 88.2827 z "/>
<path style="fill:rgb(255, 0, 43);fill-opacity:1.0;fill-rule:evenodd;stroke:rgb(0, 0, 0);stroke-width:3.0;" d="M 513.863, 426.052 L 498.488, 422.359 L 488.565, 409.376 L 492.798, 408.452 z "/>
<path style="fill:rgb(255, 0, 43);fill-opacity:1.0;fill-rule:evenodd;stroke:rgb(0, 0, 0);stroke-width:3.0;" d="M 468.321, 121.373 L 471.868, 124.403 L 470.961, 133.163 L 457.83, 126.34 L 461.935, 120.425 z "/>
<path style="fill:rgb(255, 0, 43);fill-opacity:1.0;fill-rule:evenodd;stroke:rgb(0, 0, 0);stroke-width:3.0;" d="M 519.291, 174.806 L 500.787, 280.357 L 493.656, 288.028 L 508.148, 171.036 z "/>
<path style="fill:rgb(255, 0, 43);fill-opacity:1.0;fill-rule:evenodd;stroke:rgb(0, 0, 0);stroke-width:3.0;" d="M 709.826, 426.603 L 578.621, 477.811 L 650.795, 397.845 z "/>
<path style="fill:rgb(243, 255, 40);fill-opacity:1.0;fill-rule:evenodd;stroke:rgb(0, 0, 0);stroke-width:3.0;" d="M 794.405, 399.2 L 775.376, 413.579 L 775.355, 413.583 L 775.31, 400.708 L 780.924, 399.049 z "/>
<path style="fill:rgb(243, 255, 40);fill-opacity:1.0;fill-rule:evenodd;stroke:rgb(0, 0, 0);stroke-width:3.0;" d="M 284.837, 488.765 L 268.023, 494.992 L 267.23, 494.434 L 264.895, 476.591 L 279.434, 460.1 z "/>
<path style="fill:rgb(243, 255, 40);fill-opacity:1.0;fill-rule:evenodd;stroke:rgb(0, 0, 0);stroke-width:3.0;" d="M 784.717, 588.341 L 731.509, 576.31 L 755.164, 563.811 z "/>
<path style="fill:rgb(243, 255, 40);fill-opacity:1.0;fill-rule:evenodd;stroke:rgb(0, 0, 0);stroke-width:3.0;" d="M 744.178, 468.922 L 746.675, 483.426 L 734.99, 461.503 L 736.941, 455.612 L 739.132, 453.731 z "/>
<path style="fill:rgb(243, 255, 40);fill-opacity:1.0;fill-rule:evenodd;stroke:rgb(0, 0, 0);stroke-width:3.0;" d="M 580.438, 456.171 L 543.257, 472.561 L 590.669, 423.567 z "/>
<path style="fill:rgb(243, 255, 40);fill-opacity:1.0;fill-rule:evenodd;stroke:rgb(0, 0, 0);stroke-width:3.0;" d="M 274.67, 434.825 L 257.505, 436.864 L 259.987, 430.122 L 273.249, 427.286 z "/>
<path style="fill:rgb(243, 255, 40);fill-opacity:1.0;fill-rule:evenodd;stroke:rgb(0, 0, 0);stroke-width:3.0;" d="M 625.678, 425.674 L 622.762, 428.905 L 622.717, 409.844 L 647.698, 381.698 z "/>
<path style="fill:rgb(243, 255, 40);fill-opacity:1.0;fill-rule:evenodd;stroke:rgb(0, 0, 0);stroke-width:3.0;" d="M 782.847, 104.144 L 779.433, 108.733 L 738.177, 91.3369 z "/>
<path style="fill:rgb(243, 255, 40);fill-opacity:1.0;fill-rule:evenodd;stroke:rgb(0, 0, 0);stroke-width:3.0;" d="M 296.693, 42.6093 L 253.629, 84.9032 L 192.611, 64.2538 L 240.598, 13.4611 z "/>
<path style="fill:rgb(255, 51, 255);fill-opacity:1.0;fill-rule:evenodd;stroke:rgb(0, 0, 0);stroke-width:3.0;" d="M 775.225, 536.99 L 768.451, 541.104 L 760.236, 530.917 L 750.208, 502.033 L 753.834, 496.857 z "/>
<path style="fill:rgb(255, 51, 255);fill-opacity:1.0;fill-rule:evenodd;stroke:rgb(0, 0, 0);stroke-width:3.0;" d="M 169.023, 510.768 L 108.974, 541.023 L 111.317, 504.925 L 143.963, 476.415 z "/>
<path style="fill:rgb(255, 51, 255);fill-opacity:1.0;fill-rule:evenodd;stroke:rgb(0, 0, 0);stroke-width:3.0;" d="M 457.017, 153.732 L 431.545, 145.112 L 443.425, 129.854 z "/>
<path style="fill:rgb(204, 249, 255);fill-opacity:1.0;fill-rule:evenodd;stroke:rgb(0, 0, 0);stroke-width:3.0;" d="M 530.462, 164.081 L 546.039, 172.175 L 542.205, 182.561 L 506.506, 170.48 L 505.881, 157.287 z "/>
<path style="fill:rgb(204, 249, 255);fill-opacity:1.0;fill-rule:evenodd;stroke:rgb(0, 0, 0);stroke-width:3.0;" d="M 560.506, 454.737 L 534.063, 482.062 L 532.269, 477.56 L 553.372, 452.166 z "/>
<path style="fill:rgb(204, 249, 255);fill-opacity:1.0;fill-rule:evenodd;stroke:rgb(0, 0, 0);stroke-width:3.0;" d="M 503.056, 149.84 L 496.256, 156.605 L 486.243, 158.103 L 480.815, 147.44 L 480.19, 137.958 z "/>
<path style="fill:rgb(204, 249, 255);fill-opacity:1.0;fill-rule:evenodd;stroke:rgb(0, 0, 0);stroke-width:3.0;" d="M 279.434, 460.1 L 242.611, 501.867 L 230.376, 498.45 L 244.551, 472.713 L 278.579, 455.568 z "/>
<path style="fill:rgb(255, 184, 19);fill-opacity:1.0;fill-rule:evenodd;stroke:rgb(0, 0, 0);stroke-width:3.0;" d="M 540.856, 397.966 L 478.348, 411.605 L 484.452, 362.327 L 510.726, 346.597 z "/>
<path style="fill:rgb(243, 168, 8);fill-opacity:1.0;fill-rule:evenodd;stroke:rgb(0, 0, 0);stroke-width:3.0;" d="M 460.833, 102.468 L 448.947, 107.113 L 427.486, 110.573 L 417.132, 105.192 L 402.186, 86.08 L 421.656, 73.3904 z "/>
<path style="fill:rgb(209, 223, 11);fill-opacity:1.0;fill-rule:evenodd;stroke:rgb(0, 0, 0);stroke-width:3.0;" d="M 588.33, 194.151 L 564.591, 190.136 L 542.205, 182.561 L 546.039, 172.175 z "/>
<path style="fill:rgb(255, 0, 56);fill-opacity:1.0;fill-rule:evenodd;stroke:rgb(0, 0, 0);stroke-width:3.0;" d="M 583.552, 472.349 L 578.621, 477.811 L 567.631, 482.101 L 578.903, 464.318 z "/>
<path style="fill:rgb(255, 0, 56);fill-opacity:1.0;fill-rule:evenodd;stroke:rgb(0, 0, 0);stroke-width:3.0;" d="M 257.505, 436.864 L 192.198, 444.622 L 259.987, 430.122 z "/>
<path style="fill:rgb(255, 0, 56);fill-opacity:1.0;fill-rule:evenodd;stroke:rgb(0, 0, 0);stroke-width:3.0;" d="M 679.152, 278.36 L 679.469, 307.656 L 634.987, 305.386 L 628.467, 276.106 L 663.494, 255.136 z "/>
<path style="fill:rgb(255, 0, 56);fill-opacity:1.0;fill-rule:evenodd;stroke:rgb(0, 0, 0);stroke-width:3.0;" d="M 149.079, 470.213 L 174.336, 508.09 L 169.023, 510.768 L 134.934, 464.037 L 135.372, 463.298 z "/>
<path style="fill:rgb(255, 0, 56);fill-opacity:1.0;fill-rule:evenodd;stroke:rgb(0, 0, 0);stroke-width:3.0;" d="M 482.913, 374.751 L 481.935, 382.65 L 126.073, 458.765 L 168.319, 281.433 z "/>
<path style="fill:rgb(29, 33, 231);fill-opacity:1.0;fill-rule:evenodd;stroke:rgb(0, 0, 0);stroke-width:3.0;" d="M 565.977, 233.1 L 534.544, 244.046 L 551.853, 225.427 z "/>
<path style="fill:rgb(29, 33, 231);fill-opacity:1.0;fill-rule:evenodd;stroke:rgb(0, 0, 0);stroke-width:3.0;" d="M 143.963, 476.415 L 113.569, 502.958 L 111.713, 498.816 L 114.146, 461.316 L 130.411, 457.837 z "/>
<path style="fill:rgb(29, 33, 231);fill-opacity:1.0;fill-rule:evenodd;stroke:rgb(0, 0, 0);stroke-width:3.0;" d="M 625.929, 253.968 L 587.39, 288.083 L 586.722, 227.593 L 588.476, 225.718 z "/>
<path style="fill:rgb(255, 138, 44);fill-opacity:1.0;fill-rule:evenodd;stroke:rgb(0, 0, 0);stroke-width:3.0;" d="M 764.99, 239.569 L 793.896, 308.53 L 739.28, 367.537 L 586.053, 140.281 L 614.31, 133.829 z "/>
<path style="fill:rgb(255, 138, 44);fill-opacity:1.0;fill-rule:evenodd;stroke:rgb(0, 0, 0);stroke-width:3.0;" d="M 715.466, 486.32 L 704.513, 475.256 L 726.867, 471.764 z "/>
<path style="fill:rgb(255, 138, 44);fill-opacity:1.0;fill-rule:evenodd;stroke:rgb(0, 0, 0);stroke-width:3.0;" d="M 146.669, 540.588 L 144.035, 544.559 L 127.932, 544.467 L 111.186, 539.909 L 141.816, 524.476 z "/>
<path style="fill:rgb(255, 138, 44);fill-opacity:1.0;fill-rule:evenodd;stroke:rgb(0, 0, 0);stroke-width:3.0;" d="M 610.511, 205.676 L 640.734, 221.381 L 648.96, 233.581 L 625.929, 253.968 L 588.476, 225.718 L 608.013, 204.831 z "/>
<path style="fill:rgb(33, 9, 207);fill-opacity:1.0;fill-rule:evenodd;stroke:rgb(0, 0, 0);stroke-width:3.0;" d="M 751.142, 385.13 L 751.661, 385.9 L 755.653, 408.718 L 749.6, 411.08 L 732.337, 393.912 L 720.583, 350.19 z "/>
<path style="fill:rgb(33, 9, 207);fill-opacity:1.0;fill-rule:evenodd;stroke:rgb(0, 0, 0);stroke-width:3.0;" d="M 441.871, 54.1577 L 328.928, 26.3615 L 328.968, 24.2151 L 443.315, 16.0022 z "/>
<path style="fill:rgb(33, 9, 207);fill-opacity:1.0;fill-rule:evenodd;stroke:rgb(0, 0, 0);stroke-width:3.0;" d="M 587.528, 300.616 L 543.009, 327.269 L 568.154, 247.446 L 586.722, 227.593 z "/>
<path style="fill:rgb(246, 70, 23);fill-opacity:1.0;fill-rule:evenodd;stroke:rgb(0, 0, 0);stroke-width:3.0;" d="M 638.707, 373.925 L 635.406, 377.337 L 633.975, 377.649 L 545.379, 325.851 L 562.519, 315.589 z "/>
<path style="fill:rgb(246, 74, 144);fill-opacity:1.0;fill-rule:evenodd;stroke:rgb(0, 0, 0);stroke-width:3.0;" d="M 190.731, 483.49 L 196.734, 496.806 L 174.336, 508.09 L 139.526, 455.888 L 149.2, 453.819 z "/>
<path style="fill:rgb(246, 74, 144);fill-opacity:1.0;fill-rule:evenodd;stroke:rgb(0, 0, 0);stroke-width:3.0;" d="M 90.4011, 517.968 L 82.3533, 506.084 L 83.1074, 503.854 L 92.6215, 493.992 z "/>
<path style="fill:rgb(246, 74, 144);fill-opacity:1.0;fill-rule:evenodd;stroke:rgb(0, 0, 0);stroke-width:3.0;" d="M 681.273, 281.505 L 692.895, 317.928 L 679.728, 331.535 L 679.152, 278.36 z "/>
<path style="fill:rgb(243, 0, 36);fill-opacity:1.0;fill-rule:evenodd;stroke:rgb(0, 0, 0);stroke-width:3.0;" d="M 267.08, 493.289 L 269.174, 509.284 L 256.156, 505.649 L 266.216, 492.11 z "/>
<path style="fill:rgb(243, 0, 36);fill-opacity:1.0;fill-rule:evenodd;stroke:rgb(0, 0, 0);stroke-width:3.0;" d="M 317.897, 58.7782 L 332.797, 88.3607 L 304.037, 89.0177 L 307.884, 55.1852 z "/>
<path style="fill:rgb(243, 0, 36);fill-opacity:1.0;fill-rule:evenodd;stroke:rgb(0, 0, 0);stroke-width:3.0;" d="M 487.142, 483.211 L 502.041, 501.938 L 501.805, 507.793 L 489.844, 512.461 L 468.987, 489.28 L 468.86, 488.197 L 468.881, 488.027 L 485.048, 481.378 z "/>
<path style="fill:rgb(243, 0, 36);fill-opacity:1.0;fill-rule:evenodd;stroke:rgb(0, 0, 0);stroke-width:3.0;" d="M 228.486, 501.883 L 222.23, 504.531 L 219.705, 485.232 L 244.551, 472.713 z "/>
<path style="fill:rgb(243, 0, 36);fill-opacity:1.0;fill-rule:evenodd;stroke:rgb(0, 0, 0);stroke-width:3.0;" d="M 647.559, 361.842 L 648.091, 364.228 L 638.707, 373.925 L 604.733, 347.911 z "/>
<path style="fill:rgb(243, 0, 36);fill-opacity:1.0;fill-rule:evenodd;stroke:rgb(0, 0, 0);stroke-width:3.0;" d="M 564.597, 131.229 L 564.774, 134.106 L 553.662, 139.567 L 549.169, 134.874 L 552.205, 116.369 z "/>
<path style="fill:rgb(243, 0, 36);fill-opacity:1.0;fill-rule:evenodd;stroke:rgb(0, 0, 0);stroke-width:3.0;" d="M 508.148, 171.036 L 501.217, 226.992 L 366.387, 334.842 L 362.269, 326.963 L 376.224, 310.018 L 507.873, 170.942 z "/>
<path style="fill:rgb(243, 0, 36);fill-opacity:1.0;fill-rule:evenodd;stroke:rgb(0, 0, 0);stroke-width:3.0;" d="M 706.5, 474.945 L 692.544, 477.126 L 682.819, 464.731 L 701.831, 456.77 z "/>
<path style="fill:rgb(255, 187, 8);fill-opacity:1.0;fill-rule:evenodd;stroke:rgb(0, 0, 0);stroke-width:3.0;" d="M 647.698, 381.698 L 598.993, 436.574 L 641.529, 371.009 L 665.406, 346.336 z "/>
<path style="fill:rgb(255, 187, 8);fill-opacity:1.0;fill-rule:evenodd;stroke:rgb(0, 0, 0);stroke-width:3.0;" d="M 554.137, 92.9452 L 503.426, 17.7341 L 636.35, 17.2034 z "/>
<path style="fill:rgb(255, 187, 8);fill-opacity:1.0;fill-rule:evenodd;stroke:rgb(0, 0, 0);stroke-width:3.0;" d="M 539.409, 147.418 L 538.937, 160.465 L 530.506, 164.104 L 529.252, 163.452 L 532.306, 145.18 z "/>
<path style="fill:rgb(255, 187, 8);fill-opacity:1.0;fill-rule:evenodd;stroke:rgb(0, 0, 0);stroke-width:3.0;" d="M 349.932, 70.2735 L 372.046, 81.7644 L 360.741, 87.7224 L 332.797, 88.3607 L 317.897, 58.7782 z "/>
<path style="fill:rgb(255, 187, 8);fill-opacity:1.0;fill-rule:evenodd;stroke:rgb(0, 0, 0);stroke-width:3.0;" d="M 665.126, 381.966 L 656.8, 391.191 L 656.284, 391.098 L 655.575, 381.74 L 665.052, 372.332 L 668.2, 371.082 z "/>
<path style="fill:rgb(255, 187, 8);fill-opacity:1.0;fill-rule:evenodd;stroke:rgb(0, 0, 0);stroke-width:3.0;" d="M 640.734, 221.381 L 619.366, 210.277 L 612.077, 178.878 z "/>
<path style="fill:rgb(255, 187, 8);fill-opacity:1.0;fill-rule:evenodd;stroke:rgb(0, 0, 0);stroke-width:3.0;" d="M 790.042, 381.613 L 761.785, 396.657 L 758.469, 395.997 L 750.085, 383.562 L 776.27, 365.77 z "/>
<path style="fill:rgb(35, 82, 187);fill-opacity:1.0;fill-rule:evenodd;stroke:rgb(0, 0, 0);stroke-width:3.0;" d="M 190.955, 34.5225 L 191.013, 34.6151 L 171.896, 35.8004 L 171.14, 31.3425 L 180.768, 27.1638 z "/>
<path style="fill:rgb(35, 82, 187);fill-opacity:1.0;fill-rule:evenodd;stroke:rgb(0, 0, 0);stroke-width:3.0;" d="M 679.469, 307.656 L 679.728, 331.535 L 648.091, 364.228 L 634.987, 305.386 z "/>
<path style="fill:rgb(35, 82, 187);fill-opacity:1.0;fill-rule:evenodd;stroke:rgb(0, 0, 0);stroke-width:3.0;" d="M 382.935, 110.229 L 380.751, 112.31 L 373.078, 106.74 L 369.289, 101.109 L 381.967, 98.6195 z "/>
<path style="fill:rgb(255, 56, 28);fill-opacity:1.0;fill-rule:evenodd;stroke:rgb(0, 0, 0);stroke-width:3.0;" d="M 579.582, 235.227 L 577.018, 237.969 L 576.124, 238.613 L 566.225, 233.235 L 565.677, 231.026 L 569.39, 215.914 z "/>
<path style="fill:rgb(255, 56, 28);fill-opacity:1.0;fill-rule:evenodd;stroke:rgb(0, 0, 0);stroke-width:3.0;" d="M 688.943, 408.961 L 713.72, 425.084 L 709.826, 426.603 L 681.369, 412.74 L 676.737, 405.718 z "/>
<path style="fill:rgb(255, 51, 8);fill-opacity:1.0;fill-rule:evenodd;stroke:rgb(0, 0, 0);stroke-width:3.0;" d="M 469.785, 109.112 L 460.345, 122.716 L 445.406, 113.74 L 466.839, 106.925 z "/>
<path style="fill:rgb(255, 51, 8);fill-opacity:1.0;fill-rule:evenodd;stroke:rgb(0, 0, 0);stroke-width:3.0;" d="M 514.138, 426.118 L 519.964, 441.011 L 508.199, 435.066 L 498.488, 422.359 z "/>
<path style="fill:rgb(255, 51, 8);fill-opacity:1.0;fill-rule:evenodd;stroke:rgb(0, 0, 0);stroke-width:3.0;" d="M 502.241, 89.4725 L 490.463, 124.459 L 482.924, 118.864 L 460.597, 74.2655 z "/>
<path style="fill:rgb(255, 51, 8);fill-opacity:1.0;fill-rule:evenodd;stroke:rgb(0, 0, 0);stroke-width:3.0;" d="M 169.061, 19.0783 L 153.726, 29.3658 L 146.684, 23.3861 L 161.696, 12.8235 L 167.938, 12.4569 z "/>
<path style="fill:rgb(255, 51, 8);fill-opacity:1.0;fill-rule:evenodd;stroke:rgb(0, 0, 0);stroke-width:3.0;" d="M 604.745, 168.004 L 557.733, 153.192 L 554.49, 149.803 L 577.14, 127.062 z "/>
<path style="fill:rgb(252, 255, 45);fill-opacity:1.0;fill-rule:evenodd;stroke:rgb(0, 0, 0);stroke-width:3.0;" d="M 446.363, 546.285 L 420.493, 570.65 L 418.397, 569.486 L 405.268, 552.13 L 403.709, 546.041 z "/>
<path style="fill:rgb(223, 255, 27);fill-opacity:1.0;fill-rule:evenodd;stroke:rgb(0, 0, 0);stroke-width:3.0;" d="M 543.009, 327.269 L 484.452, 362.327 L 486.534, 345.52 L 556.568, 284.224 z "/>
<path style="fill:rgb(252, 184, 7);fill-opacity:1.0;fill-rule:evenodd;stroke:rgb(0, 0, 0);stroke-width:3.0;" d="M 336.075, 545.655 L 354.641, 581.221 L 214.918, 544.963 z "/>
<path style="fill:rgb(252, 184, 7);fill-opacity:1.0;fill-rule:evenodd;stroke:rgb(0, 0, 0);stroke-width:3.0;" d="M 255.313, 505.413 L 257.257, 528.546 L 252.426, 530.689 L 249.863, 503.892 z "/>
<path style="fill:rgb(252, 184, 7);fill-opacity:1.0;fill-rule:evenodd;stroke:rgb(0, 0, 0);stroke-width:3.0;" d="M 507.873, 170.942 L 376.224, 310.018 L 494.487, 166.412 z "/>
<path style="fill:rgb(252, 184, 7);fill-opacity:1.0;fill-rule:evenodd;stroke:rgb(0, 0, 0);stroke-width:3.0;" d="M 172.61, 40.0082 L 161.189, 48.2767 L 154.566, 28.8018 L 169.061, 19.0783 z "/>
<path style="fill:rgb(255, 252, 78);fill-opacity:1.0;fill-rule:evenodd;stroke:rgb(0, 0, 0);stroke-width:3.0;" d="M 560.506, 454.737 L 553.461, 452.199 L 552.917, 448.153 L 573.566, 441.241 z "/>
<path style="fill:rgb(255, 252, 78);fill-opacity:1.0;fill-rule:evenodd;stroke:rgb(0, 0, 0);stroke-width:3.0;" d="M 403.709, 546.041 L 409.67, 569.329 L 377.634, 587.188 L 354.641, 581.221 L 336.075, 545.655 z "/>
<path style="fill:rgb(255, 252, 78);fill-opacity:1.0;fill-rule:evenodd;stroke:rgb(0, 0, 0);stroke-width:3.0;" d="M 707.404, 335.123 L 695.597, 348.205 L 674.045, 337.408 L 682.786, 328.375 L 695.708, 321.75 z "/>
<path style="fill:rgb(255, 252, 78);fill-opacity:1.0;fill-rule:evenodd;stroke:rgb(0, 0, 0);stroke-width:3.0;" d="M 441.871, 54.1577 L 441.636, 60.3683 L 434.395, 65.088 L 419.184, 54.7739 L 430.983, 51.4779 z "/>
<path style="fill:rgb(255, 252, 78);fill-opacity:1.0;fill-rule:evenodd;stroke:rgb(0, 0, 0);stroke-width:3.0;" d="M 715.466, 486.32 L 714.093, 488.073 L 694.129, 479.145 L 692.544, 477.126 L 704.513, 475.256 z "/>
<path style="fill:rgb(255, 252, 78);fill-opacity:1.0;fill-rule:evenodd;stroke:rgb(0, 0, 0);stroke-width:3.0;" d="M 525.273, 457.407 L 501.54, 465.352 L 494.021, 459.702 L 501.002, 446.722 L 515.184, 444.206 z "/>
<path style="fill:rgb(159, 52, 255);fill-opacity:1.0;fill-rule:evenodd;stroke:rgb(0, 0, 0);stroke-width:3.0;" d="M 516.144, 303.053 L 515.918, 303.294 L 499.493, 293.8 L 541.366, 263.645 z "/>
<path style="fill:rgb(159, 52, 255);fill-opacity:1.0;fill-rule:evenodd;stroke:rgb(0, 0, 0);stroke-width:3.0;" d="M 517.367, 434.372 L 506.093, 405.551 L 529.729, 400.394 z "/>
<path style="fill:rgb(159, 52, 255);fill-opacity:1.0;fill-rule:evenodd;stroke:rgb(0, 0, 0);stroke-width:3.0;" d="M 266.216, 492.11 L 256.156, 505.649 L 242.611, 501.867 L 259.403, 482.821 z "/>
<path style="fill:rgb(159, 52, 255);fill-opacity:1.0;fill-rule:evenodd;stroke:rgb(0, 0, 0);stroke-width:3.0;" d="M 720.583, 350.19 L 728.673, 380.282 L 717.393, 379.05 L 695.997, 357.772 L 710.585, 338.76 z "/>
<path style="fill:rgb(159, 52, 255);fill-opacity:1.0;fill-rule:evenodd;stroke:rgb(0, 0, 0);stroke-width:3.0;" d="M 576.124, 238.613 L 565.866, 246 L 539.81, 257.3 L 548.71, 239.113 L 565.977, 233.1 z "/>
<path style="fill:rgb(159, 52, 255);fill-opacity:1.0;fill-rule:evenodd;stroke:rgb(0, 0, 0);stroke-width:3.0;" d="M 744.856, 543.79 L 738.916, 547.955 L 738.325, 547.952 L 724.549, 532.152 L 729.66, 524.426 z "/>
<path style="fill:rgb(159, 52, 255);fill-opacity:1.0;fill-rule:evenodd;stroke:rgb(0, 0, 0);stroke-width:3.0;" d="M 342.274, 29.6459 L 317.146, 53.2372 L 307.64, 48.2977 L 326.151, 25.6779 z "/>
<path style="fill:rgb(255, 97, 11);fill-opacity:1.0;fill-rule:evenodd;stroke:rgb(0, 0, 0);stroke-width:3.0;" d="M 541.888, 275.528 L 516.144, 303.053 L 541.366, 263.645 L 548.029, 258.846 L 554.503, 258.432 z "/>
<path style="fill:rgb(255, 97, 11);fill-opacity:1.0;fill-rule:evenodd;stroke:rgb(0, 0, 0);stroke-width:3.0;" d="M 637.389, 254.561 L 626.541, 264.429 L 617.824, 262.55 L 618.425, 260.611 L 629.801, 250.541 z "/>
<path style="fill:rgb(255, 97, 11);fill-opacity:1.0;fill-rule:evenodd;stroke:rgb(0, 0, 0);stroke-width:3.0;" d="M 760.208, 424.665 L 748.104, 435.845 L 748.645, 422.648 L 759.799, 412.459 z "/>
<path style="fill:rgb(38, 117, 215);fill-opacity:1.0;fill-rule:evenodd;stroke:rgb(0, 0, 0);stroke-width:3.0;" d="M 748.104, 435.845 L 745.038, 438.677 L 732.399, 443.969 L 730.836, 438.917 L 748.645, 422.648 z "/>
<path style="fill:rgb(209, 17, 9);fill-opacity:1.0;fill-rule:evenodd;stroke:rgb(0, 0, 0);stroke-width:3.0;" d="M 482.913, 374.751 L 361.513, 338.74 L 501.217, 226.992 z "/>
<path style="fill:rgb(252, 114, 17);fill-opacity:1.0;fill-rule:evenodd;stroke:rgb(0, 0, 0);stroke-width:3.0;" d="M 472.919, 39.98 L 441.636, 60.3683 L 441.813, 55.6968 L 474.39, 32.0812 z "/>
<path style="fill:rgb(252, 114, 17);fill-opacity:1.0;fill-rule:evenodd;stroke:rgb(0, 0, 0);stroke-width:3.0;" d="M 758.828, 548.069 L 760.16, 556.611 L 745.294, 555.619 L 736.041, 547.939 z "/>
<path style="fill:rgb(252, 114, 17);fill-opacity:1.0;fill-rule:evenodd;stroke:rgb(0, 0, 0);stroke-width:3.0;" d="M 146.684, 23.3861 L 136.021, 14.3315 L 161.696, 12.8235 z "/>
<path style="fill:rgb(252, 114, 17);fill-opacity:1.0;fill-rule:evenodd;stroke:rgb(0, 0, 0);stroke-width:3.0;" d="M 204.791, 544.905 L 178.369, 544.755 L 183.786, 532.128 L 193.343, 516.757 L 228.486, 501.883 z "/>
<path style="fill:rgb(255, 71, 130);fill-opacity:1.0;fill-rule:evenodd;stroke:rgb(0, 0, 0);stroke-width:3.0;" d="M 278.579, 455.568 L 196.734, 496.806 L 174.88, 448.326 L 192.198, 444.622 L 274.67, 434.825 z "/>
<path style="fill:rgb(255, 71, 130);fill-opacity:1.0;fill-rule:evenodd;stroke:rgb(0, 0, 0);stroke-width:3.0;" d="M 688.057, 368.12 L 682.127, 375.848 L 673.427, 380.648 L 675.226, 370.776 L 683.797, 361.279 z "/>
<path style="fill:rgb(255, 71, 130);fill-opacity:1.0;fill-rule:evenodd;stroke:rgb(0, 0, 0);stroke-width:3.0;" d="M 609.515, 363.348 L 530.155, 379.722 L 510.726, 346.597 L 545.379, 325.851 z "/>
<path style="fill:rgb(19, 255, 255);fill-opacity:1.0;fill-rule:evenodd;stroke:rgb(0, 0, 0);stroke-width:3.0;" d="M 553.79, 487.503 L 513.629, 503.177 L 543.257, 472.561 L 582.346, 455.33 z "/>
<path style="fill:rgb(36, 255, 182);fill-opacity:1.0;fill-rule:evenodd;stroke:rgb(0, 0, 0);stroke-width:3.0;" d="M 532.306, 145.18 L 529.252, 163.452 L 521.281, 159.311 L 520.096, 152.597 L 526.37, 143.31 z "/>
<path style="fill:rgb(255, 231, 7);fill-opacity:1.0;fill-rule:evenodd;stroke:rgb(0, 0, 0);stroke-width:3.0;" d="M 559.303, 546.93 L 487.508, 546.52 L 543.578, 523.04 z "/>
<path style="fill:rgb(255, 255, 19);fill-opacity:1.0;fill-rule:evenodd;stroke:rgb(0, 0, 0);stroke-width:3.0;" d="M 749.6, 411.08 L 713.72, 425.084 L 671.05, 397.318 L 672.772, 388.04 L 695.997, 357.772 z "/>
<path style="fill:rgb(255, 255, 19);fill-opacity:1.0;fill-rule:evenodd;stroke:rgb(0, 0, 0);stroke-width:3.0;" d="M 473.655, 32.6144 L 441.813, 55.6968 L 442.656, 33.4146 L 464.728, 6.94242 z "/>
<path style="fill:rgb(255, 255, 19);fill-opacity:1.0;fill-rule:evenodd;stroke:rgb(0, 0, 0);stroke-width:3.0;" d="M 761.996, 545.024 L 760.069, 546.194 L 736.902, 521.029 L 749.578, 502.933 z "/>
<path style="fill:rgb(255, 255, 19);fill-opacity:1.0;fill-rule:evenodd;stroke:rgb(0, 0, 0);stroke-width:3.0;" d="M 521.941, 273.263 L 514.077, 283.297 L 499.493, 293.8 L 493.379, 290.266 L 493.656, 288.028 L 509.652, 270.822 z "/>
<path style="fill:rgb(33, 146, 202);fill-opacity:1.0;fill-rule:evenodd;stroke:rgb(0, 0, 0);stroke-width:3.0;" d="M 499.988, 465.871 L 470.399, 475.776 L 470.686, 473.456 L 481.61, 456.029 z "/>
<path style="fill:rgb(33, 146, 202);fill-opacity:1.0;fill-rule:evenodd;stroke:rgb(0, 0, 0);stroke-width:3.0;" d="M 450.137, 74.0279 L 449.366, 75.977 L 438.204, 72.6484 L 437.639, 71.9647 L 444.546, 59.1878 z "/>
<path style="fill:rgb(33, 146, 202);fill-opacity:1.0;fill-rule:evenodd;stroke:rgb(0, 0, 0);stroke-width:3.0;" d="M 532.927, 61.4875 L 539.666, 71.4828 L 534.937, 78.4378 L 531.182, 76.9915 L 526.171, 65.6398 L 527.173, 59.2961 z "/>
<path style="fill:rgb(255, 27, 10);fill-opacity:1.0;fill-rule:evenodd;stroke:rgb(0, 0, 0);stroke-width:3.0;" d="M 510.544, 56.8137 L 512.236, 75.967 L 506.093, 73.2954 L 502.876, 55.0752 z "/>
<path style="fill:rgb(255, 255, 13);fill-opacity:1.0;fill-rule:evenodd;stroke:rgb(0, 0, 0);stroke-width:3.0;" d="M 653.226, 395.151 L 625.678, 425.674 L 639.873, 397.326 L 654.262, 383.042 z "/>
<path style="fill:rgb(255, 255, 57);fill-opacity:1.0;fill-rule:evenodd;stroke:rgb(0, 0, 0);stroke-width:3.0;" d="M 748.81, 482.87 L 735.463, 442.686 L 773.048, 426.947 z "/>
<path style="fill:rgb(252, 243, 56);fill-opacity:1.0;fill-rule:evenodd;stroke:rgb(0, 0, 0);stroke-width:3.0;" d="M 607.529, 406.144 L 573.566, 441.241 L 526.25, 457.08 L 517.367, 434.372 L 529.729, 400.394 L 530.905, 400.138 L 573.052, 395.02 z "/>
<path style="fill:rgb(252, 243, 56);fill-opacity:1.0;fill-rule:evenodd;stroke:rgb(0, 0, 0);stroke-width:3.0;" d="M 403.118, 44.62 L 351.667, 71.1752 L 317.146, 53.2372 L 342.274, 29.6459 z "/>
<path style="fill:rgb(252, 243, 56);fill-opacity:1.0;fill-rule:evenodd;stroke:rgb(0, 0, 0);stroke-width:3.0;" d="M 369.74, 86.1822 L 382.513, 96.8656 L 382.945, 98.4276 L 382.451, 98.5245 L 365.205, 95.0399 L 360.401, 87.9012 L 365.77, 85.0721 z "/>
<path style="fill:rgb(252, 243, 56);fill-opacity:1.0;fill-rule:evenodd;stroke:rgb(0, 0, 0);stroke-width:3.0;" d="M 534.063, 482.062 L 513.629, 503.177 L 502.043, 507.7 L 508.429, 475.443 L 531.129, 474.697 z "/>
<path style="fill:rgb(249, 21, 15);fill-opacity:1.0;fill-rule:evenodd;stroke:rgb(0, 0, 0);stroke-width:3.0;" d="M 292.526, 18.1284 L 269.114, 21.2792 L 270.916, 17.6263 L 284.936, 12.3486 z "/>
<path style="fill:rgb(59, 255, 255);fill-opacity:1.0;fill-rule:evenodd;stroke:rgb(0, 0, 0);stroke-width:3.0;" d="M 498.679, 31.3079 L 509.144, 90.573 L 491.138, 28.1057 L 491.378, 27.9498 z "/>
<path style="fill:rgb(48, 240, 255);fill-opacity:1.0;fill-rule:evenodd;stroke:rgb(0, 0, 0);stroke-width:3.0;" d="M 190.726, 515.949 L 178.473, 508.385 L 186.514, 501.955 L 199.546, 495.389 z "/>
<path style="fill:rgb(48, 240, 255);fill-opacity:1.0;fill-rule:evenodd;stroke:rgb(0, 0, 0);stroke-width:3.0;" d="M 609.337, 383.025 L 575.201, 390.473 L 571.661, 371.159 L 592.75, 366.807 z "/>
<path style="fill:rgb(48, 240, 255);fill-opacity:1.0;fill-rule:evenodd;stroke:rgb(0, 0, 0);stroke-width:3.0;" d="M 559.489, 188.41 L 554.441, 222.643 L 500.787, 280.357 L 519.291, 174.806 z "/>
<path style="fill:rgb(48, 240, 255);fill-opacity:1.0;fill-rule:evenodd;stroke:rgb(0, 0, 0);stroke-width:3.0;" d="M 301.705, 45.2138 L 306.732, 65.3188 L 302.619, 101.482 L 253.629, 84.9032 L 296.693, 42.6093 z "/>
<path style="fill:rgb(255, 102, 55);fill-opacity:1.0;fill-rule:evenodd;stroke:rgb(0, 0, 0);stroke-width:3.0;" d="M 539.81, 257.3 L 528.62, 262.153 L 524.939, 254.378 L 534.544, 244.046 L 548.71, 239.113 z "/>
<path style="fill:rgb(255, 102, 55);fill-opacity:1.0;fill-rule:evenodd;stroke:rgb(0, 0, 0);stroke-width:3.0;" d="M 733.987, 462.671 L 726.867, 471.764 L 706.5, 474.945 L 702.081, 457.742 L 719.132, 453.641 z "/>
<path style="fill:rgb(255, 102, 55);fill-opacity:1.0;fill-rule:evenodd;stroke:rgb(0, 0, 0);stroke-width:3.0;" d="M 328.928, 26.3615 L 302.324, 19.8139 L 304.337, 16.5388 L 329.173, 13.1962 z "/>
<path style="fill:rgb(255, 102, 55);fill-opacity:1.0;fill-rule:evenodd;stroke:rgb(0, 0, 0);stroke-width:3.0;" d="M 779.433, 108.733 L 735.116, 168.3 L 719.401, 130.808 L 753.792, 97.9214 z "/>
<path style="fill:rgb(249, 234, 26);fill-opacity:1.0;fill-rule:evenodd;stroke:rgb(0, 0, 0);stroke-width:3.0;" d="M 326.151, 25.6779 L 317.769, 35.9196 L 305.204, 38.7309 L 295.605, 30.7445 L 302.324, 19.8139 z "/>
<path style="fill:rgb(249, 234, 26);fill-opacity:1.0;fill-rule:evenodd;stroke:rgb(0, 0, 0);stroke-width:3.0;" d="M 753.792, 97.9214 L 719.401, 130.808 L 695.272, 73.2454 z "/>
<path style="fill:rgb(255, 255, 55);fill-opacity:1.0;fill-rule:evenodd;stroke:rgb(0, 0, 0);stroke-width:3.0;" d="M 738.325, 547.952 L 559.303, 546.93 L 543.578, 523.04 L 638.134, 483.444 L 678.814, 479.697 z "/>
<path style="fill:rgb(255, 124, 255);fill-opacity:1.0;fill-rule:evenodd;stroke:rgb(0, 0, 0);stroke-width:3.0;" d="M 305.886, 39.2984 L 308.893, 46.7668 L 307.64, 48.2977 L 290.341, 39.3086 L 295.605, 30.7445 z "/>
<path style="fill:rgb(255, 124, 255);fill-opacity:1.0;fill-rule:evenodd;stroke:rgb(0, 0, 0);stroke-width:3.0;" d="M 678.814, 479.697 L 638.134, 483.444 L 670.326, 469.963 z "/>
<path style="fill:rgb(255, 192, 13);fill-opacity:1.0;fill-rule:evenodd;stroke:rgb(0, 0, 0);stroke-width:3.0;" d="M 604.745, 168.004 L 607.944, 172.749 L 571.072, 185.183 L 566.65, 182.885 L 597.632, 165.763 z "/>
<path style="fill:rgb(252, 255, 25);fill-opacity:1.0;fill-rule:evenodd;stroke:rgb(0, 0, 0);stroke-width:3.0;" d="M 597.632, 165.763 L 566.65, 182.885 L 541.95, 170.05 L 554.865, 152.288 z "/>
<path style="fill:rgb(255, 255, 192);fill-opacity:1.0;fill-rule:evenodd;stroke:rgb(0, 0, 0);stroke-width:3.0;" d="M 94.9522, 468.827 L 82.3533, 506.084 L 59.8942, 472.92 L 95.2739, 465.353 z "/>
<path style="fill:rgb(25, 163, 192);fill-opacity:1.0;fill-rule:evenodd;stroke:rgb(0, 0, 0);stroke-width:3.0;" d="M 738.347, 451.368 L 734.99, 461.503 L 726.877, 446.282 L 735.463, 442.686 z "/>
<path style="fill:rgb(237, 39, 237);fill-opacity:1.0;fill-rule:evenodd;stroke:rgb(0, 0, 0);stroke-width:3.0;" d="M 487.316, 122.124 L 477.934, 124.643 L 468.139, 111.484 L 469.785, 109.112 z "/>
<path style="fill:rgb(15, 20, 215);fill-opacity:1.0;fill-rule:evenodd;stroke:rgb(0, 0, 0);stroke-width:3.0;" d="M 515.722, 127.823 L 516.539, 132.451 L 512.613, 135.773 L 502.352, 136.337 L 495.891, 128.887 L 502.444, 120.879 z "/>
<path style="fill:rgb(44, 144, 255);fill-opacity:1.0;fill-rule:evenodd;stroke:rgb(0, 0, 0);stroke-width:3.0;" d="M 764.99, 239.569 L 614.31, 133.829 L 711.376, 111.664 z "/>
<path style="fill:rgb(44, 144, 255);fill-opacity:1.0;fill-rule:evenodd;stroke:rgb(0, 0, 0);stroke-width:3.0;" d="M 283.869, 506.139 L 282.129, 512.901 L 270.43, 509.635 L 273.76, 499.027 z "/>
<path style="fill:rgb(44, 144, 255);fill-opacity:1.0;fill-rule:evenodd;stroke:rgb(0, 0, 0);stroke-width:3.0;" d="M 397.622, 95.0543 L 398.255, 98.9676 L 390.318, 103.394 L 367.391, 84.2176 L 372.046, 81.7644 z "/>
<path style="fill:rgb(44, 215, 255);fill-opacity:1.0;fill-rule:evenodd;stroke:rgb(0, 0, 0);stroke-width:3.0;" d="M 227.402, 525.062 L 224.783, 544.409 L 208.373, 538.402 L 215.865, 524.798 z "/>
<path style="fill:rgb(64, 107, 157);fill-opacity:1.0;fill-rule:evenodd;stroke:rgb(0, 0, 0);stroke-width:3.0;" d="M 230.326, 503.461 L 227.402, 525.062 L 215.865, 524.798 L 229.148, 500.681 z "/>
<path style="fill:rgb(252, 115, 255);fill-opacity:1.0;fill-rule:evenodd;stroke:rgb(0, 0, 0);stroke-width:3.0;" d="M 509.181, 26.27 L 502.951, 43.0279 L 500.802, 43.3335 L 499.051, 33.4133 L 501.822, 15.3555 z "/>
<path style="fill:rgb(197, 255, 92);fill-opacity:1.0;fill-rule:evenodd;stroke:rgb(0, 0, 0);stroke-width:3.0;" d="M 525.945, 54.8929 L 520.061, 79.3699 L 512.236, 75.967 L 509.248, 42.1321 L 509.677, 42.0709 z "/>
<path style="fill:rgb(172, 255, 249);fill-opacity:1.0;fill-rule:evenodd;stroke:rgb(0, 0, 0);stroke-width:3.0;" d="M 714.093, 488.073 L 707.62, 496.338 L 694.129, 479.145 z "/>
<path style="fill:rgb(172, 255, 249);fill-opacity:1.0;fill-rule:evenodd;stroke:rgb(0, 0, 0);stroke-width:3.0;" d="M 611.719, 364.637 L 619.24, 380.864 L 609.337, 383.025 L 592.75, 366.807 L 609.515, 363.348 z "/>
<path style="fill:rgb(172, 255, 249);fill-opacity:1.0;fill-rule:evenodd;stroke:rgb(0, 0, 0);stroke-width:3.0;" d="M 688.361, 344.58 L 688.624, 346.362 L 685.479, 359.415 L 677.102, 368.697 L 661.909, 353.319 L 665.406, 346.336 L 674.045, 337.408 z "/>
<path style="fill:rgb(172, 255, 249);fill-opacity:1.0;fill-rule:evenodd;stroke:rgb(0, 0, 0);stroke-width:3.0;" d="M 472.727, 69.5557 L 447.403, 56.6099 L 458.361, 49.4684 z "/>
<path style="fill:rgb(172, 255, 249);fill-opacity:1.0;fill-rule:evenodd;stroke:rgb(0, 0, 0);stroke-width:3.0;" d="M 503.124, 69.6879 L 508.332, 87.7579 L 472.727, 69.5557 L 458.361, 49.4684 L 461.899, 47.1621 z "/>
<path style="fill:rgb(172, 255, 249);fill-opacity:1.0;fill-rule:evenodd;stroke:rgb(0, 0, 0);stroke-width:3.0;" d="M 483.595, 132.247 L 482.252, 133.608 L 474.721, 135.117 L 470.961, 133.163 L 472.587, 117.459 z "/>
<path style="fill:rgb(15, 94, 255);fill-opacity:1.0;fill-rule:evenodd;stroke:rgb(0, 0, 0);stroke-width:3.0;" d="M 515.918, 303.294 L 495.709, 324.901 L 488.962, 325.924 L 493.379, 290.266 z "/>
<path style="fill:rgb(15, 94, 255);fill-opacity:1.0;fill-rule:evenodd;stroke:rgb(0, 0, 0);stroke-width:3.0;" d="M 233.288, 9.66257 L 232.139, 22.4149 L 209.386, 46.4979 L 198.453, 47.039 L 198.558, 46.0145 L 231.745, 8.8608 z "/>
<path style="fill:rgb(11, 2, 231);fill-opacity:1.0;fill-rule:evenodd;stroke:rgb(0, 0, 0);stroke-width:3.0;" d="M 505.591, 151.157 L 506.506, 170.48 L 499.157, 167.993 L 496.318, 156.544 L 503.056, 149.84 z "/>
<path style="fill:rgb(252, 142, 37);fill-opacity:1.0;fill-rule:evenodd;stroke:rgb(0, 0, 0);stroke-width:3.0;" d="M 286.183, 495.909 L 279.802, 503.277 L 268.023, 494.992 L 284.837, 488.765 z "/>
<path style="fill:rgb(207, 215, 98);fill-opacity:1.0;fill-rule:evenodd;stroke:rgb(0, 0, 0);stroke-width:3.0;" d="M 301.662, 20.8902 L 290.773, 38.6047 L 290.188, 23.7307 L 294.656, 19.068 z "/>
<path style="fill:rgb(255, 11, 70);fill-opacity:1.0;fill-rule:evenodd;stroke:rgb(0, 0, 0);stroke-width:3.0;" d="M 198.371, 46.2235 L 197.602, 47.0852 L 172.525, 39.5093 L 171.896, 35.8004 L 191.013, 34.6151 z "/>
<path style="fill:rgb(255, 11, 70);fill-opacity:1.0;fill-rule:evenodd;stroke:rgb(0, 0, 0);stroke-width:3.0;" d="M 575.201, 390.473 L 540.856, 397.966 L 530.155, 379.722 L 571.661, 371.159 z "/>
<path style="fill:rgb(226, 243, 23);fill-opacity:1.0;fill-rule:evenodd;stroke:rgb(0, 0, 0);stroke-width:3.0;" d="M 289.789, 515.04 L 295.516, 545.423 L 258.658, 545.213 L 255.313, 505.413 z "/>
<path style="fill:rgb(159, 59, 255);fill-opacity:1.0;fill-rule:evenodd;stroke:rgb(0, 0, 0);stroke-width:3.0;" d="M 651.748, 262.168 L 635.105, 272.132 L 614.924, 274.995 L 637.389, 254.561 z "/>
<path style="fill:rgb(159, 59, 255);fill-opacity:1.0;fill-rule:evenodd;stroke:rgb(0, 0, 0);stroke-width:3.0;" d="M 235.468, 515.592 L 237.195, 526.383 L 225.819, 536.757 L 230.326, 503.461 z "/>
<path style="fill:rgb(255, 168, 10);fill-opacity:1.0;fill-rule:evenodd;stroke:rgb(0, 0, 0);stroke-width:3.0;" d="M 520.533, 315.763 L 486.534, 345.52 L 488.078, 333.059 L 519.544, 299.417 z "/>
<path style="fill:rgb(255, 237, 14);fill-opacity:1.0;fill-rule:evenodd;stroke:rgb(0, 0, 0);stroke-width:3.0;" d="M 791.835, 92.0637 L 782.847, 104.144 L 738.177, 91.3369 L 734.822, 89.9222 z "/>
<path style="fill:rgb(255, 237, 14);fill-opacity:1.0;fill-rule:evenodd;stroke:rgb(0, 0, 0);stroke-width:3.0;" d="M 556.568, 284.224 L 520.533, 315.763 L 519.544, 299.417 L 568.154, 247.446 z "/>
<path style="fill:rgb(64, 159, 234);fill-opacity:1.0;fill-rule:evenodd;stroke:rgb(0, 0, 0);stroke-width:3.0;" d="M 684.298, 7.25197 L 674.964, 24.7961 L 667.222, 6.32694 z "/>
<path style="fill:rgb(64, 159, 234);fill-opacity:1.0;fill-rule:evenodd;stroke:rgb(0, 0, 0);stroke-width:3.0;" d="M 531.129, 474.697 L 528.459, 474.785 L 509.465, 470.213 L 511.058, 462.165 L 524.362, 457.712 z "/>
<path style="fill:rgb(64, 159, 234);fill-opacity:1.0;fill-rule:evenodd;stroke:rgb(0, 0, 0);stroke-width:3.0;" d="M 368.475, 103.4 L 352.152, 114.088 L 358.248, 95.9771 z "/>
<path style="fill:rgb(64, 159, 234);fill-opacity:1.0;fill-rule:evenodd;stroke:rgb(0, 0, 0);stroke-width:3.0;" d="M 736.284, 483.991 L 723.708, 516.84 L 707.62, 496.338 L 728.685, 469.442 z "/>
<path style="fill:rgb(22, 255, 177);fill-opacity:1.0;fill-rule:evenodd;stroke:rgb(0, 0, 0);stroke-width:3.0;" d="M 249.863, 503.892 L 253.812, 545.185 L 247.997, 545.152 L 229.148, 500.681 L 230.376, 498.45 z "/>
<path style="fill:rgb(228, 64, 228);fill-opacity:1.0;fill-rule:evenodd;stroke:rgb(0, 0, 0);stroke-width:3.0;" d="M 787.307, 438.768 L 786.597, 548.227 L 781.199, 548.197 L 747.72, 485.386 L 773.048, 426.947 L 777.952, 424.894 z "/>
<path style="fill:rgb(255, 66, 49);fill-opacity:1.0;fill-rule:evenodd;stroke:rgb(0, 0, 0);stroke-width:3.0;" d="M 210.218, 266.887 L 208.573, 293.373 L 178.761, 284.53 L 198.44, 264.581 z "/>
<path style="fill:rgb(255, 66, 49);fill-opacity:1.0;fill-rule:evenodd;stroke:rgb(0, 0, 0);stroke-width:3.0;" d="M 197.602, 47.0852 L 184.667, 61.5657 L 175.754, 58.5492 L 172.525, 39.5093 z "/>
<path style="fill:rgb(255, 66, 49);fill-opacity:1.0;fill-rule:evenodd;stroke:rgb(0, 0, 0);stroke-width:3.0;" d="M 182.612, 534.865 L 178.369, 544.755 L 147.872, 544.58 L 146.721, 540.762 L 181.1, 532.307 z "/>
<path style="fill:rgb(243, 97, 10);fill-opacity:1.0;fill-rule:evenodd;stroke:rgb(0, 0, 0);stroke-width:3.0;" d="M 580.201, 234.565 L 579.582, 235.227 L 566.242, 209.949 L 579.21, 196 z "/>
<path style="fill:rgb(255, 11, 39);fill-opacity:1.0;fill-rule:evenodd;stroke:rgb(0, 0, 0);stroke-width:3.0;" d="M 502.777, 443.421 L 494.021, 459.702 L 474.232, 444.835 L 478.348, 411.605 L 479.895, 411.267 z "/>
<path style="fill:rgb(255, 11, 39);fill-opacity:1.0;fill-rule:evenodd;stroke:rgb(0, 0, 0);stroke-width:3.0;" d="M 756.149, 548.054 L 748.165, 548.008 L 735.476, 531.836 L 733.947, 525.248 L 736.337, 521.835 z "/>
<path style="fill:rgb(44, 252, 255);fill-opacity:1.0;fill-rule:evenodd;stroke:rgb(0, 0, 0);stroke-width:3.0;" d="M 404.833, 45.0421 L 421.94, 56.6423 L 380.902, 86.3663 L 351.667, 71.1752 L 403.118, 44.62 z "/>
<path style="fill:rgb(44, 252, 255);fill-opacity:1.0;fill-rule:evenodd;stroke:rgb(0, 0, 0);stroke-width:3.0;" d="M 106.767, 542.135 L 102.428, 544.321 L 89.3959, 544.247 L 90.6757, 518.374 z "/>
<path style="fill:rgb(237, 228, 16);fill-opacity:1.0;fill-rule:evenodd;stroke:rgb(0, 0, 0);stroke-width:3.0;" d="M 402.819, 113.85 L 415.27, 127.236 L 408.458, 132.42 L 403.375, 128.73 L 386.72, 106.623 L 390.206, 103.3 z "/>
<path style="fill:rgb(237, 228, 16);fill-opacity:1.0;fill-rule:evenodd;stroke:rgb(0, 0, 0);stroke-width:3.0;" d="M 383.764, 300.861 L 354.326, 336.608 L 208.573, 293.373 L 210.218, 266.887 z "/>
<path style="fill:rgb(6, 226, 255);fill-opacity:1.0;fill-rule:evenodd;stroke:rgb(0, 0, 0);stroke-width:3.0;" d="M 610.25, 287.012 L 608.397, 288.122 L 589.917, 285.846 L 618.425, 260.611 z "/>
<path style="fill:rgb(100, 255, 255);fill-opacity:1.0;fill-rule:evenodd;stroke:rgb(0, 0, 0);stroke-width:3.0;" d="M 598.993, 436.574 L 582.346, 455.33 L 580.438, 456.171 L 590.669, 423.567 L 641.529, 371.009 z "/>
<path style="fill:rgb(100, 255, 255);fill-opacity:1.0;fill-rule:evenodd;stroke:rgb(0, 0, 0);stroke-width:3.0;" d="M 552.014, 451.677 L 530.671, 473.547 L 524.362, 457.712 L 547.379, 450.007 z "/>
<path style="fill:rgb(197, 5, 32);fill-opacity:1.0;fill-rule:evenodd;stroke:rgb(0, 0, 0);stroke-width:3.0;" d="M 108.974, 541.023 L 106.767, 542.135 L 94.9688, 524.713 L 106.034, 463.051 L 114.146, 461.316 z "/>
<path style="fill:rgb(255, 52, 7);fill-opacity:1.0;fill-rule:evenodd;stroke:rgb(0, 0, 0);stroke-width:3.0;" d="M 501.54, 465.352 L 499.988, 465.871 L 473.39, 451.627 L 474.232, 444.835 z "/>
<path style="fill:rgb(249, 249, 41);fill-opacity:1.0;fill-rule:evenodd;stroke:rgb(0, 0, 0);stroke-width:3.0;" d="M 187.413, 476.129 L 188.016, 481.55 L 149.2, 453.819 L 174.88, 448.326 z "/>
<path style="fill:rgb(249, 249, 41);fill-opacity:1.0;fill-rule:evenodd;stroke:rgb(0, 0, 0);stroke-width:3.0;" d="M 503.628, 85.3528 L 502.241, 89.4725 L 460.597, 74.2655 L 453.256, 59.6022 z "/>
<path style="fill:rgb(255, 3, 33);fill-opacity:1.0;fill-rule:evenodd;stroke:rgb(0, 0, 0);stroke-width:3.0;" d="M 682.929, 464.871 L 683.215, 484.744 L 670.326, 469.963 L 682.819, 464.731 z "/>
<path style="fill:rgb(44, 1, 197);fill-opacity:1.0;fill-rule:evenodd;stroke:rgb(0, 0, 0);stroke-width:3.0;" d="M 704.1, 491.852 L 697.146, 500.722 L 683.215, 484.744 L 682.929, 464.871 z "/>
<path style="fill:rgb(74, 255, 240);fill-opacity:1.0;fill-rule:evenodd;stroke:rgb(0, 0, 0);stroke-width:3.0;" d="M 630.562, 382.343 L 624.318, 388.794 L 616.58, 389.734 L 610.298, 386.026 L 612.392, 382.358 L 627.385, 379.087 z "/>
<path style="fill:rgb(240, 255, 10);fill-opacity:1.0;fill-rule:evenodd;stroke:rgb(0, 0, 0);stroke-width:3.0;" d="M 180.63, 509.716 L 184.986, 523.923 L 178.237, 527.463 L 170.655, 514.636 L 178.473, 508.385 z "/>
<path style="fill:rgb(234, 39, 11);fill-opacity:1.0;fill-rule:evenodd;stroke:rgb(0, 0, 0);stroke-width:3.0;" d="M 494.009, 38.065 L 503.124, 69.6879 L 461.899, 47.1621 L 476.566, 37.6031 z "/>
<path style="fill:rgb(255, 10, 110);fill-opacity:1.0;fill-rule:evenodd;stroke:rgb(0, 0, 0);stroke-width:3.0;" d="M 742.259, 509.044 L 732.525, 518.795 L 732.321, 518.787 L 729.979, 507.152 L 733.929, 500.063 L 735.552, 499.699 z "/>
<path style="fill:rgb(62, 255, 255);fill-opacity:1.0;fill-rule:evenodd;stroke:rgb(0, 0, 0);stroke-width:3.0;" d="M 482.924, 118.864 L 460.857, 102.486 L 453.297, 82.416 L 462.056, 77.1786 z "/>
<path style="fill:rgb(249, 13, 31);fill-opacity:1.0;fill-rule:evenodd;stroke:rgb(0, 0, 0);stroke-width:3.0;" d="M 566.613, 112.478 L 573.073, 130.027 L 564.774, 134.106 L 563.114, 107.111 z "/>
<path style="fill:rgb(212, 255, 62);fill-opacity:1.0;fill-rule:evenodd;stroke:rgb(0, 0, 0);stroke-width:3.0;" d="M 453.256, 59.6022 L 458.96, 70.9961 L 448.254, 69.03 L 444.33, 58.6131 L 447.403, 56.6099 z "/>
<path style="fill:rgb(21, 6, 220);fill-opacity:1.0;fill-rule:evenodd;stroke:rgb(0, 0, 0);stroke-width:3.0;" d="M 508.332, 87.7579 L 509.144, 90.573 L 511.126, 101.8 L 490.561, 124.532 L 490.463, 124.459 L 503.628, 85.3528 z "/>
<path style="fill:rgb(255, 123, 102);fill-opacity:1.0;fill-rule:evenodd;stroke:rgb(0, 0, 0);stroke-width:3.0;" d="M 182.738, 544.779 L 195.502, 560.592 L 102.369, 544.321 z "/>
<path style="fill:rgb(237, 76, 170);fill-opacity:1.0;fill-rule:evenodd;stroke:rgb(0, 0, 0);stroke-width:3.0;" d="M 90.6757, 518.374 L 89.6881, 538.339 L 40.5875, 543.968 L 32.2806, 543.92 L 76.9952, 498.173 z "/>
<path style="fill:rgb(237, 76, 170);fill-opacity:1.0;fill-rule:evenodd;stroke:rgb(0, 0, 0);stroke-width:3.0;" d="M 214.918, 544.963 L 238.741, 551.145 L 276.897, 574.813 L 195.502, 560.592 L 182.738, 544.779 z "/>
<path style="fill:rgb(255, 246, 20);fill-opacity:1.0;fill-rule:evenodd;stroke:rgb(0, 0, 0);stroke-width:3.0;" d="M 507.654, 434.354 L 506.664, 436.195 L 501.811, 442.063 L 479.895, 411.267 L 488.565, 409.376 z "/>
<path style="fill:rgb(199, 15, 123);fill-opacity:1.0;fill-rule:evenodd;stroke:rgb(0, 0, 0);stroke-width:3.0;" d="M 222.23, 504.531 L 189.722, 518.289 L 199.546, 495.389 L 219.705, 485.232 z "/>
<path style="fill:rgb(255, 36, 14);fill-opacity:1.0;fill-rule:evenodd;stroke:rgb(0, 0, 0);stroke-width:3.0;" d="M 89.3959, 544.247 L 40.5875, 543.968 L 89.6881, 538.339 z "/>
<path style="fill:rgb(255, 255, 9);fill-opacity:1.0;fill-rule:evenodd;stroke:rgb(0, 0, 0);stroke-width:3.0;" d="M 104.762, 470.141 L 94.9688, 524.713 L 90.4011, 517.968 L 95.2739, 465.353 L 99.8115, 464.382 z "/>
<path style="fill:rgb(255, 255, 9);fill-opacity:1.0;fill-rule:evenodd;stroke:rgb(0, 0, 0);stroke-width:3.0;" d="M 633.975, 377.649 L 619.24, 380.864 L 615.163, 372.067 L 615.41, 366.795 z "/>
<path style="fill:rgb(19, 255, 71);fill-opacity:1.0;fill-rule:evenodd;stroke:rgb(0, 0, 0);stroke-width:3.0;" d="M 600.925, 212.409 L 593.122, 220.751 L 588.015, 199.507 z "/>
<path style="fill:rgb(76, 4, 249);fill-opacity:1.0;fill-rule:evenodd;stroke:rgb(0, 0, 0);stroke-width:3.0;" d="M 608.013, 204.831 L 600.925, 212.409 L 588.015, 199.507 L 587.637, 197.935 z "/>
<path style="fill:rgb(255, 252, 25);fill-opacity:1.0;fill-rule:evenodd;stroke:rgb(0, 0, 0);stroke-width:3.0;" d="M 424.886, 109.221 L 419.56, 122.048 L 417.423, 123.934 L 408.357, 117.255 L 415.222, 104.2 z "/>
<path style="fill:rgb(67, 255, 199);fill-opacity:1.0;fill-rule:evenodd;stroke:rgb(0, 0, 0);stroke-width:3.0;" d="M 66.0781, 482.052 L 24.5801, 494.09 L 35.703, 478.095 L 59.8942, 472.92 z "/>
<path style="fill:rgb(255, 237, 12);fill-opacity:1.0;fill-rule:evenodd;stroke:rgb(0, 0, 0);stroke-width:3.0;" d="M 647.559, 361.842 L 604.733, 347.911 L 562.519, 315.589 L 628.467, 276.106 z "/>
<path style="fill:rgb(56, 255, 204);fill-opacity:1.0;fill-rule:evenodd;stroke:rgb(0, 0, 0);stroke-width:3.0;" d="M 563.114, 107.111 L 563.994, 121.419 L 558.463, 116.255 L 553.726, 107.097 L 553.863, 106.264 L 560.662, 103.35 z "/>
<path style="fill:rgb(255, 202, 7);fill-opacity:1.0;fill-rule:evenodd;stroke:rgb(0, 0, 0);stroke-width:3.0;" d="M 663.494, 255.136 L 651.748, 262.168 L 638.067, 254.92 L 642.667, 239.152 L 648.96, 233.581 z "/>
<path style="fill:rgb(246, 255, 91);fill-opacity:1.0;fill-rule:evenodd;stroke:rgb(0, 0, 0);stroke-width:3.0;" d="M 701.964, 38.6376 L 688.002, 55.9022 L 687.5, 54.7046 L 686.81, 30.4625 z "/>
<path style="fill:rgb(246, 255, 91);fill-opacity:1.0;fill-rule:evenodd;stroke:rgb(0, 0, 0);stroke-width:3.0;" d="M 686.81, 30.4625 L 687.5, 54.7046 L 674.964, 24.7961 L 675.263, 24.233 z "/>
<path style="fill:rgb(61, 246, 47);fill-opacity:1.0;fill-rule:evenodd;stroke:rgb(0, 0, 0);stroke-width:3.0;" d="M 479.748, 501.24 L 489.844, 512.461 L 472.486, 519.235 L 469.961, 497.626 z "/>
<path style="fill:rgb(15, 255, 255);fill-opacity:1.0;fill-rule:evenodd;stroke:rgb(0, 0, 0);stroke-width:3.0;" d="M 181.1, 532.307 L 153.054, 539.205 L 145.399, 522.67 L 168.519, 511.021 z "/>
<path style="fill:rgb(255, 237, 30);fill-opacity:1.0;fill-rule:evenodd;stroke:rgb(0, 0, 0);stroke-width:3.0;" d="M 622.762, 428.905 L 583.552, 472.349 L 577.113, 461.226 L 622.717, 409.844 z "/>
<path style="fill:rgb(252, 1, 16);fill-opacity:1.0;fill-rule:evenodd;stroke:rgb(0, 0, 0);stroke-width:3.0;" d="M 612.077, 178.878 L 619.152, 209.354 L 617.148, 209.125 L 571.072, 185.183 L 607.944, 172.749 z "/>
<path style="fill:rgb(255, 3, 255);fill-opacity:1.0;fill-rule:evenodd;stroke:rgb(0, 0, 0);stroke-width:3.0;" d="M 729.66, 524.426 L 724.549, 532.152 L 697.146, 500.722 L 704.1, 491.852 z "/>
<path style="fill:rgb(91, 255, 42);fill-opacity:1.0;fill-rule:evenodd;stroke:rgb(0, 0, 0);stroke-width:3.0;" d="M 519.424, 148.789 L 509.873, 145.009 L 506.413, 141.019 L 516.539, 132.451 z "/>
<path style="fill:rgb(255, 255, 56);fill-opacity:1.0;fill-rule:evenodd;stroke:rgb(0, 0, 0);stroke-width:3.0;" d="M 434.395, 65.088 L 392.5, 92.3928 L 380.902, 86.3663 L 421.94, 56.6423 z "/>
<path style="fill:rgb(89, 172, 243);fill-opacity:1.0;fill-rule:evenodd;stroke:rgb(0, 0, 0);stroke-width:3.0;" d="M 368.885, 103.698 L 358.659, 120.446 L 350.896, 117.819 L 352.152, 114.088 L 368.475, 103.4 z "/>
<path style="fill:rgb(255, 182, 64);fill-opacity:1.0;fill-rule:evenodd;stroke:rgb(0, 0, 0);stroke-width:3.0;" d="M 745.149, 579.394 L 699.06, 593.456 L 731.509, 576.31 z "/>
<path style="fill:rgb(177, 231, 240);fill-opacity:1.0;fill-rule:evenodd;stroke:rgb(0, 0, 0);stroke-width:3.0;" d="M 700.647, 350.603 L 687.488, 367.206 L 683.797, 361.279 L 700.233, 343.068 z "/>
<path style="fill:rgb(255, 28, 94);fill-opacity:1.0;fill-rule:evenodd;stroke:rgb(0, 0, 0);stroke-width:3.0;" d="M 475.37, 136.743 L 484.328, 154.34 L 479.175, 161.231 L 476.075, 160.182 L 471.285, 136.013 z "/>
</svg>