<?xml version="1.0" encoding="iso-8859-1" standalone="no"?>
<!DOCTYPE svg PUBLIC "-//W3C//DTD SVG 1.0//EN" "http://www.w3.org/TR/2001/REC-SVG-20010904/DTD/svg10.dtd">
<svg xmlns="http://www.w3.org/2000/svg" width="800" height="600">
<path style="fill:rgb(0, 0, 0);fill-opacity:0.0;fill-rule:evenodd;stroke:rgb(0, 0, 0);stroke-width:0.0;" d="M 0, 600 L 800, 600 L 800, 0 L 0, 0 z "/>
<path style="fill:rgb(223, 16, 234);fill-opacity:1.0;fill-rule:evenodd;stroke:rgb(0, 0, 0);stroke-width:3.0;" d="M 382.298, 573.865 L 351.11, 553.135 L 356.298, 497.876 L 399.999, 482.931 z "/>
<path style="fill:rgb(252, 51, 21);fill-opacity:1.0;fill-rule:evenodd;stroke:rgb(0, 0, 0);stroke-width:3.0;" d="M 351.524, 548.729 L 335.726, 555.023 L 310.38, 535.191 L 310.39, 525.602 L 355.715, 504.091 z "/>
<path style="fill:rgb(19, 10, 204);fill-opacity:1.0;fill-rule:evenodd;stroke:rgb(0, 0, 0);stroke-width:3.0;" d="M 212.38, 529.447 L 194.047, 547.673 L 152.484, 501.839 L 177.396, 483.024 z "/>
<path style="fill:rgb(212, 0, 9);fill-opacity:1.0;fill-rule:evenodd;stroke:rgb(0, 0, 0);stroke-width:3.0;" d="M 627.338, 428.539 L 589.553, 429.152 L 528.3, 408.998 L 551.276, 401.089 z "/>
<path style="fill:rgb(212, 0, 9);fill-opacity:1.0;fill-rule:evenodd;stroke:rgb(0, 0, 0);stroke-width:3.0;" d="M 772.235, 442.685 L 758.602, 444.706 L 743.838, 435.544 L 774.553, 432.034 z "/>
<path style="fill:rgb(152, 255, 255);fill-opacity:1.0;fill-rule:evenodd;stroke:rgb(0, 0, 0);stroke-width:3.0;" d="M 34.0185, 343.37 L 23.4316, 349.478 L 23.8766, 321.882 L 32.8893, 309.966 L 42.9168, 309.772 z "/>
<path style="fill:rgb(152, 255, 255);fill-opacity:1.0;fill-rule:evenodd;stroke:rgb(0, 0, 0);stroke-width:3.0;" d="M 760.014, 468.195 L 758.698, 476.009 L 758.045, 477.081 L 728.45, 470.826 L 720.513, 462.519 z "/>
<path style="fill:rgb(152, 255, 255);fill-opacity:1.0;fill-rule:evenodd;stroke:rgb(0, 0, 0);stroke-width:3.0;" d="M 109.134, 363.366 L 85.0541, 426.247 L 17.2985, 436.649 L 78.2125, 339.808 L 97.5356, 330.462 z "/>
<path style="fill:rgb(152, 255, 255);fill-opacity:1.0;fill-rule:evenodd;stroke:rgb(0, 0, 0);stroke-width:3.0;" d="M 315.299, 390.9 L 208.634, 407.275 L 205.277, 400.364 L 323.413, 357.091 z "/>
<path style="fill:rgb(152, 255, 255);fill-opacity:1.0;fill-rule:evenodd;stroke:rgb(0, 0, 0);stroke-width:3.0;" d="M 60.3473, 346.595 L 56.642, 326.622 L 83.3455, 299.795 z "/>
<path style="fill:rgb(152, 255, 255);fill-opacity:1.0;fill-rule:evenodd;stroke:rgb(0, 0, 0);stroke-width:3.0;" d="M 47.6328, 443.571 L 39.7011, 448.974 L 29.9518, 438.228 L 53.0564, 437.854 z "/>
<path style="fill:rgb(16, 228, 255);fill-opacity:1.0;fill-rule:evenodd;stroke:rgb(0, 0, 0);stroke-width:3.0;" d="M 606.827, 409.867 L 610.939, 422.621 L 593.368, 416.28 L 591.831, 404.071 z "/>
<path style="fill:rgb(16, 228, 255);fill-opacity:1.0;fill-rule:evenodd;stroke:rgb(0, 0, 0);stroke-width:3.0;" d="M 287.824, 549.783 L 287.963, 552.251 L 269.686, 560.469 L 279.334, 544.613 L 279.616, 544.316 z "/>
<path style="fill:rgb(16, 228, 255);fill-opacity:1.0;fill-rule:evenodd;stroke:rgb(0, 0, 0);stroke-width:3.0;" d="M 173.853, 576.628 L 167.278, 592.587 L 166.356, 591.849 L 162.075, 570.607 L 167.332, 569.482 z "/>
<path style="fill:rgb(16, 228, 255);fill-opacity:1.0;fill-rule:evenodd;stroke:rgb(0, 0, 0);stroke-width:3.0;" d="M 97.3119, 517.051 L 90.4737, 523.514 L 70.8714, 513.453 L 91.4558, 508.765 z "/>
<path style="fill:rgb(16, 228, 255);fill-opacity:1.0;fill-rule:evenodd;stroke:rgb(0, 0, 0);stroke-width:3.0;" d="M 324.01, 545.855 L 304.674, 556.859 L 285.723, 555.571 L 294.807, 549.417 L 299.757, 546.948 L 316.045, 539.624 z "/>
<path style="fill:rgb(255, 255, 11);fill-opacity:1.0;fill-rule:evenodd;stroke:rgb(0, 0, 0);stroke-width:3.0;" d="M 613.672, 442.443 L 598.974, 443.459 L 594.727, 442.561 L 598.693, 429.004 L 601.06, 428.965 z "/>
<path style="fill:rgb(255, 255, 11);fill-opacity:1.0;fill-rule:evenodd;stroke:rgb(0, 0, 0);stroke-width:3.0;" d="M 345.484, 308.853 L 438.003, 391.991 L 446.232, 431.476 L 305.01, 433.767 L 335.882, 305.141 z "/>
<path style="fill:rgb(255, 11, 255);fill-opacity:1.0;fill-rule:evenodd;stroke:rgb(0, 0, 0);stroke-width:3.0;" d="M 199.276, 408.712 L 128.925, 419.512 L 97.5356, 330.462 L 153.691, 303.302 z "/>
<path style="fill:rgb(228, 2, 255);fill-opacity:1.0;fill-rule:evenodd;stroke:rgb(0, 0, 0);stroke-width:3.0;" d="M 271.915, 521.989 L 266.993, 528.417 L 262.67, 529.896 L 257.884, 517.138 L 278.412, 503.882 z "/>
<path style="fill:rgb(228, 2, 255);fill-opacity:1.0;fill-rule:evenodd;stroke:rgb(0, 0, 0);stroke-width:3.0;" d="M 781.562, 281.228 L 781.753, 283.37 L 774.604, 283.691 L 772.095, 271.516 L 776.702, 265.423 z "/>
<path style="fill:rgb(228, 2, 255);fill-opacity:1.0;fill-rule:evenodd;stroke:rgb(0, 0, 0);stroke-width:3.0;" d="M 303.442, 422.336 L 300.265, 428.803 L 256.92, 399.862 L 261.15, 399.213 z "/>
<path style="fill:rgb(30, 177, 255);fill-opacity:1.0;fill-rule:evenodd;stroke:rgb(0, 0, 0);stroke-width:3.0;" d="M 89.3594, 483.114 L 88.4634, 500.046 L 49.7526, 474.546 L 60.7111, 437.73 L 76.0003, 437.482 z "/>
<path style="fill:rgb(30, 177, 255);fill-opacity:1.0;fill-rule:evenodd;stroke:rgb(0, 0, 0);stroke-width:3.0;" d="M 465.755, 413.511 L 475.042, 424.353 L 471.117, 431.073 L 446.232, 431.476 L 444.397, 422.669 L 462.196, 411.928 z "/>
<path style="fill:rgb(30, 177, 255);fill-opacity:1.0;fill-rule:evenodd;stroke:rgb(0, 0, 0);stroke-width:3.0;" d="M 398.03, 157.771 L 402.665, 178.791 L 390.086, 181.96 L 373.501, 156.38 z "/>
<path style="fill:rgb(30, 177, 255);fill-opacity:1.0;fill-rule:evenodd;stroke:rgb(0, 0, 0);stroke-width:3.0;" d="M 428.709, 341.021 L 468.738, 375.129 L 489.049, 430.782 L 480.665, 430.918 L 391.268, 326.55 z "/>
<path style="fill:rgb(243, 74, 249);fill-opacity:1.0;fill-rule:evenodd;stroke:rgb(0, 0, 0);stroke-width:3.0;" d="M 640.679, 452.274 L 560.379, 450.134 L 514.227, 430.374 L 535.436, 430.03 z "/>
<path style="fill:rgb(243, 74, 249);fill-opacity:1.0;fill-rule:evenodd;stroke:rgb(0, 0, 0);stroke-width:3.0;" d="M 513.172, 412.989 L 499.247, 430.617 L 489.049, 430.782 L 484.011, 416.977 L 498.471, 400.464 z "/>
<path style="fill:rgb(255, 1, 117);fill-opacity:1.0;fill-rule:evenodd;stroke:rgb(0, 0, 0);stroke-width:3.0;" d="M 387.675, 453.577 L 378.811, 454.44 L 376.257, 439.738 L 383.68, 438.066 z "/>
<path style="fill:rgb(22, 217, 10);fill-opacity:1.0;fill-rule:evenodd;stroke:rgb(0, 0, 0);stroke-width:3.0;" d="M 759.366, 415.763 L 739.728, 418.431 L 722.036, 414.646 L 685.129, 386.534 L 687.368, 383.573 z "/>
<path style="fill:rgb(22, 217, 10);fill-opacity:1.0;fill-rule:evenodd;stroke:rgb(0, 0, 0);stroke-width:3.0;" d="M 369.611, 449.916 L 377.562, 465.795 L 362.38, 455.763 L 361.732, 449.256 z "/>
<path style="fill:rgb(22, 217, 10);fill-opacity:1.0;fill-rule:evenodd;stroke:rgb(0, 0, 0);stroke-width:3.0;" d="M 426.717, 196.073 L 411.761, 220.036 L 401.177, 172.044 L 394.288, 137.85 L 414.47, 123.417 z "/>
<path style="fill:rgb(22, 217, 10);fill-opacity:1.0;fill-rule:evenodd;stroke:rgb(0, 0, 0);stroke-width:3.0;" d="M 482.979, 361.998 L 479.517, 375.193 L 460.949, 368.492 L 460.526, 368.132 L 462.782, 362.873 L 476.667, 359.558 z "/>
<path style="fill:rgb(255, 21, 54);fill-opacity:1.0;fill-rule:evenodd;stroke:rgb(0, 0, 0);stroke-width:3.0;" d="M 128.925, 419.512 L 85.0541, 426.247 L 109.134, 363.366 z "/>
<path style="fill:rgb(255, 21, 54);fill-opacity:1.0;fill-rule:evenodd;stroke:rgb(0, 0, 0);stroke-width:3.0;" d="M 307.87, 501.997 L 299.839, 517.184 L 266.993, 528.417 L 290.275, 498.01 z "/>
<path style="fill:rgb(249, 108, 7);fill-opacity:1.0;fill-rule:evenodd;stroke:rgb(0, 0, 0);stroke-width:3.0;" d="M 744.334, 520.549 L 722.716, 535.272 L 750.801, 501.624 L 751.299, 501.466 z "/>
<path style="fill:rgb(36, 9, 255);fill-opacity:1.0;fill-rule:evenodd;stroke:rgb(0, 0, 0);stroke-width:3.0;" d="M 354.28, 481.873 L 359.336, 495.494 L 328.572, 501.796 L 326.532, 480.057 z "/>
<path style="fill:rgb(36, 146, 217);fill-opacity:1.0;fill-rule:evenodd;stroke:rgb(0, 0, 0);stroke-width:3.0;" d="M 326.089, 102.111 L 293.874, 319.46 L 106.768, 276.263 L 298.448, 83.6943 z "/>
<path style="fill:rgb(36, 146, 217);fill-opacity:1.0;fill-rule:evenodd;stroke:rgb(0, 0, 0);stroke-width:3.0;" d="M 330.956, 69.2737 L 331.868, 63.1204 L 372.572, 20.6786 z "/>
<path style="fill:rgb(36, 146, 217);fill-opacity:1.0;fill-rule:evenodd;stroke:rgb(0, 0, 0);stroke-width:3.0;" d="M 130.598, 451.957 L 141.075, 548.806 L 103.437, 529.588 L 100.399, 449.984 z "/>
<path style="fill:rgb(36, 146, 217);fill-opacity:1.0;fill-rule:evenodd;stroke:rgb(0, 0, 0);stroke-width:3.0;" d="M 102.667, 509.402 L 95.7147, 504.822 L 84.238, 465.62 L 100.371, 449.23 z "/>
<path style="fill:rgb(12, 1, 255);fill-opacity:1.0;fill-rule:evenodd;stroke:rgb(0, 0, 0);stroke-width:3.0;" d="M 395.25, 484.555 L 382.757, 488.827 L 358.942, 494.432 L 354.28, 481.873 z "/>
<path style="fill:rgb(12, 1, 255);fill-opacity:1.0;fill-rule:evenodd;stroke:rgb(0, 0, 0);stroke-width:3.0;" d="M 490.25, 451.769 L 484.761, 433.516 L 492.129, 430.732 L 512.144, 430.407 z "/>
<path style="fill:rgb(12, 1, 255);fill-opacity:1.0;fill-rule:evenodd;stroke:rgb(0, 0, 0);stroke-width:3.0;" d="M 213.067, 480.515 L 229.292, 541.311 L 228.124, 541.71 L 206.587, 498.731 L 206.026, 478.919 z "/>
<path style="fill:rgb(255, 142, 110);fill-opacity:1.0;fill-rule:evenodd;stroke:rgb(0, 0, 0);stroke-width:3.0;" d="M 50.1551, 282.442 L 24.2661, 297.734 L 24.8623, 260.765 L 57.0268, 256.496 z "/>
<path style="fill:rgb(255, 142, 110);fill-opacity:1.0;fill-rule:evenodd;stroke:rgb(0, 0, 0);stroke-width:3.0;" d="M 726.791, 452.006 L 704.271, 461.571 L 717.452, 439.397 z "/>
<path style="fill:rgb(255, 142, 110);fill-opacity:1.0;fill-rule:evenodd;stroke:rgb(0, 0, 0);stroke-width:3.0;" d="M 291.729, 404.621 L 296.334, 413.845 L 276.587, 405.357 L 277.254, 396.74 L 278.262, 396.586 z "/>
<path style="fill:rgb(255, 142, 110);fill-opacity:1.0;fill-rule:evenodd;stroke:rgb(0, 0, 0);stroke-width:3.0;" d="M 574.862, 456.335 L 587.018, 461.54 L 479.945, 461.823 L 495.862, 446.293 z "/>
<path style="fill:rgb(255, 142, 110);fill-opacity:1.0;fill-rule:evenodd;stroke:rgb(0, 0, 0);stroke-width:3.0;" d="M 654.712, 447.059 L 642.922, 452.748 L 631.002, 450.229 L 634.3, 441.017 L 658.212, 439.364 z "/>
<path style="fill:rgb(255, 142, 110);fill-opacity:1.0;fill-rule:evenodd;stroke:rgb(0, 0, 0);stroke-width:3.0;" d="M 693.372, 435.374 L 684.256, 456.822 L 681.843, 460.974 L 658.119, 455.96 L 663.687, 442.729 L 684.679, 432.599 z "/>
<path style="fill:rgb(14, 17, 249);fill-opacity:1.0;fill-rule:evenodd;stroke:rgb(0, 0, 0);stroke-width:3.0;" d="M 786.378, 471.983 L 783.881, 477.776 L 764.792, 478.507 L 758.045, 477.081 L 763.181, 468.65 z "/>
<path style="fill:rgb(14, 17, 249);fill-opacity:1.0;fill-rule:evenodd;stroke:rgb(0, 0, 0);stroke-width:3.0;" d="M 281.41, 490.733 L 279.754, 495.626 L 264.87, 492.253 L 254.279, 483.018 L 257.317, 477.83 z "/>
<path style="fill:rgb(14, 17, 249);fill-opacity:1.0;fill-rule:evenodd;stroke:rgb(0, 0, 0);stroke-width:3.0;" d="M 187.606, 363.983 L 175.64, 354.058 L 160.283, 318.546 L 156.578, 301.906 L 157.287, 301.563 z "/>
<path style="fill:rgb(14, 17, 249);fill-opacity:1.0;fill-rule:evenodd;stroke:rgb(0, 0, 0);stroke-width:3.0;" d="M 93.1538, 508.378 L 70.8714, 513.453 L 65.8309, 510.866 L 61.3733, 505.007 L 63.8818, 495.662 z "/>
<path style="fill:rgb(14, 17, 249);fill-opacity:1.0;fill-rule:evenodd;stroke:rgb(0, 0, 0);stroke-width:3.0;" d="M 728.796, 432.193 L 707.013, 443.194 L 700.898, 439.736 L 715.555, 427.108 L 719.313, 427.047 z "/>
<path style="fill:rgb(207, 39, 128);fill-opacity:1.0;fill-rule:evenodd;stroke:rgb(0, 0, 0);stroke-width:3.0;" d="M 365.626, 462.859 L 226.202, 473.491 L 167.308, 469.637 L 142.266, 436.407 L 346.228, 433.098 z "/>
<path style="fill:rgb(207, 39, 128);fill-opacity:1.0;fill-rule:evenodd;stroke:rgb(0, 0, 0);stroke-width:3.0;" d="M 72.3128, 575.402 L 72.2167, 579.23 L 10.6245, 588.41 L 28.6895, 573.211 z "/>
<path style="fill:rgb(207, 39, 128);fill-opacity:1.0;fill-rule:evenodd;stroke:rgb(0, 0, 0);stroke-width:3.0;" d="M 784.831, 317.863 L 761.16, 320.544 L 758.34, 289.709 L 762.479, 284.235 L 781.753, 283.37 z "/>
<path style="fill:rgb(207, 39, 128);fill-opacity:1.0;fill-rule:evenodd;stroke:rgb(0, 0, 0);stroke-width:3.0;" d="M 790, 513.819 L 755.276, 519.34 L 748.396, 509.42 L 750.609, 503.356 z "/>
<path style="fill:rgb(207, 39, 128);fill-opacity:1.0;fill-rule:evenodd;stroke:rgb(0, 0, 0);stroke-width:3.0;" d="M 272.188, 539.37 L 274.118, 543.727 L 271.132, 546.656 L 257.911, 551.089 L 259.509, 541.707 L 261.776, 539.677 L 272.107, 539.315 z "/>
<path style="fill:rgb(207, 39, 128);fill-opacity:1.0;fill-rule:evenodd;stroke:rgb(0, 0, 0);stroke-width:3.0;" d="M 305.382, 432.219 L 305.01, 433.767 L 279.583, 434.179 L 227.799, 414.517 L 225.538, 404.68 L 256.92, 399.862 z "/>
<path style="fill:rgb(207, 39, 128);fill-opacity:1.0;fill-rule:evenodd;stroke:rgb(0, 0, 0);stroke-width:3.0;" d="M 130.598, 451.957 L 100.399, 449.984 L 99.9074, 437.094 L 128.94, 436.623 z "/>
<path style="fill:rgb(207, 39, 128);fill-opacity:1.0;fill-rule:evenodd;stroke:rgb(0, 0, 0);stroke-width:3.0;" d="M 601.128, 572.479 L 598.626, 575.216 L 562.666, 561.457 L 576.634, 557.014 z "/>
<path style="fill:rgb(61, 187, 246);fill-opacity:1.0;fill-rule:evenodd;stroke:rgb(0, 0, 0);stroke-width:3.0;" d="M 228.916, 551.39 L 194.468, 547.254 L 212.38, 529.447 z "/>
<path style="fill:rgb(61, 187, 246);fill-opacity:1.0;fill-rule:evenodd;stroke:rgb(0, 0, 0);stroke-width:3.0;" d="M 373.388, 574.075 L 373.79, 580.761 L 371.633, 581.348 L 368.558, 580.711 L 361.801, 575.424 L 360.781, 573.607 L 369.453, 568.121 z "/>
<path style="fill:rgb(61, 187, 246);fill-opacity:1.0;fill-rule:evenodd;stroke:rgb(0, 0, 0);stroke-width:3.0;" d="M 721.905, 385.197 L 722.604, 399.327 L 687.368, 383.573 L 694.061, 374.721 z "/>
<path style="fill:rgb(61, 187, 246);fill-opacity:1.0;fill-rule:evenodd;stroke:rgb(0, 0, 0);stroke-width:3.0;" d="M 283.259, 538.239 L 282.625, 546.04 L 281.671, 545.685 L 273.168, 540.022 L 269.645, 534.736 L 268.124, 529.114 L 269.31, 527.625 L 280.998, 523.628 z "/>
<path style="fill:rgb(61, 187, 246);fill-opacity:1.0;fill-rule:evenodd;stroke:rgb(0, 0, 0);stroke-width:3.0;" d="M 718.316, 383.847 L 694.061, 374.721 L 718.209, 342.784 z "/>
<path style="fill:rgb(61, 187, 246);fill-opacity:1.0;fill-rule:evenodd;stroke:rgb(0, 0, 0);stroke-width:3.0;" d="M 307.448, 409.378 L 289.584, 403.341 L 278.262, 396.586 L 303.763, 392.671 z "/>
<path style="fill:rgb(61, 187, 246);fill-opacity:1.0;fill-rule:evenodd;stroke:rgb(0, 0, 0);stroke-width:3.0;" d="M 585.066, 594.086 L 585.027, 590.101 L 631.073, 539.701 L 641.175, 536.488 z "/>
<path style="fill:rgb(61, 187, 246);fill-opacity:1.0;fill-rule:evenodd;stroke:rgb(0, 0, 0);stroke-width:3.0;" d="M 783.029, 369.083 L 764.67, 415.042 L 759.366, 415.763 L 722.604, 399.327 L 719.707, 340.804 L 741.665, 311.763 z "/>
<path style="fill:rgb(61, 187, 246);fill-opacity:1.0;fill-rule:evenodd;stroke:rgb(0, 0, 0);stroke-width:3.0;" d="M 73.5374, 261.794 L 77.1189, 269.541 L 76.9241, 271.579 L 55.0258, 264.051 L 56.395, 258.881 z "/>
<path style="fill:rgb(61, 187, 246);fill-opacity:1.0;fill-rule:evenodd;stroke:rgb(0, 0, 0);stroke-width:3.0;" d="M 376.516, 479.568 L 379.077, 483.496 L 226.202, 473.491 L 358.704, 463.387 z "/>
<path style="fill:rgb(61, 187, 246);fill-opacity:1.0;fill-rule:evenodd;stroke:rgb(0, 0, 0);stroke-width:3.0;" d="M 494.533, 397.108 L 483.991, 416.923 L 475.007, 392.305 L 480.528, 385.175 z "/>
<path style="fill:rgb(61, 187, 246);fill-opacity:1.0;fill-rule:evenodd;stroke:rgb(0, 0, 0);stroke-width:3.0;" d="M 229.319, 541.302 L 229.292, 541.311 L 219.125, 503.213 L 237.897, 490.548 z "/>
<path style="fill:rgb(61, 187, 246);fill-opacity:1.0;fill-rule:evenodd;stroke:rgb(0, 0, 0);stroke-width:3.0;" d="M 364.56, 577.583 L 367.495, 591.306 L 366.763, 591.297 L 352.379, 580.383 L 357.235, 571.852 z "/>
<path style="fill:rgb(61, 187, 246);fill-opacity:1.0;fill-rule:evenodd;stroke:rgb(0, 0, 0);stroke-width:3.0;" d="M 206.026, 478.919 L 206.758, 504.735 L 204.467, 502.279 L 198.084, 477.12 z "/>
<path style="fill:rgb(237, 97, 121);fill-opacity:1.0;fill-rule:evenodd;stroke:rgb(0, 0, 0);stroke-width:3.0;" d="M 72.7378, 558.477 L 72.3128, 575.402 L 31.5031, 573.353 L 6.75301, 520.792 L 15.3585, 511.04 z "/>
<path style="fill:rgb(126, 182, 255);fill-opacity:1.0;fill-rule:evenodd;stroke:rgb(0, 0, 0);stroke-width:3.0;" d="M 252.524, 582.717 L 244.87, 572.561 L 246.072, 563.784 L 255.913, 562.82 z "/>
<path style="fill:rgb(255, 9, 8);fill-opacity:1.0;fill-rule:evenodd;stroke:rgb(0, 0, 0);stroke-width:3.0;" d="M 244.786, 536.012 L 239.31, 537.885 L 233.667, 515.577 L 234.492, 510.695 z "/>
<path style="fill:rgb(220, 7, 11);fill-opacity:1.0;fill-rule:evenodd;stroke:rgb(0, 0, 0);stroke-width:3.0;" d="M 608.81, 553.058 L 616.025, 556.173 L 601.128, 572.479 L 576.634, 557.014 L 591.513, 552.282 z "/>
<path style="fill:rgb(220, 10, 108);fill-opacity:1.0;fill-rule:evenodd;stroke:rgb(0, 0, 0);stroke-width:3.0;" d="M 307.517, 414.043 L 303.442, 422.336 L 299.498, 420.18 L 291.729, 404.621 z "/>
<path style="fill:rgb(231, 11, 75);fill-opacity:1.0;fill-rule:evenodd;stroke:rgb(0, 0, 0);stroke-width:3.0;" d="M 316.611, 65.4473 L 178.825, 203.872 L 25.1199, 18.2098 z "/>
<path style="fill:rgb(197, 7, 11);fill-opacity:1.0;fill-rule:evenodd;stroke:rgb(0, 0, 0);stroke-width:3.0;" d="M 594.727, 442.561 L 535.436, 430.03 L 598.693, 429.004 z "/>
<path style="fill:rgb(197, 7, 11);fill-opacity:1.0;fill-rule:evenodd;stroke:rgb(0, 0, 0);stroke-width:3.0;" d="M 352.268, 567.965 L 335.589, 577.072 L 330.387, 567.046 L 338.566, 557.245 z "/>
<path style="fill:rgb(37, 252, 246);fill-opacity:1.0;fill-rule:evenodd;stroke:rgb(0, 0, 0);stroke-width:3.0;" d="M 326.532, 480.057 L 329.041, 506.794 L 291.91, 498.38 L 309.907, 478.969 z "/>
<path style="fill:rgb(92, 189, 29);fill-opacity:1.0;fill-rule:evenodd;stroke:rgb(0, 0, 0);stroke-width:3.0;" d="M 238.615, 486.304 L 237.897, 490.548 L 219.125, 503.213 L 213.067, 480.515 z "/>
<path style="fill:rgb(92, 189, 29);fill-opacity:1.0;fill-rule:evenodd;stroke:rgb(0, 0, 0);stroke-width:3.0;" d="M 176.443, 472.216 L 201.828, 499.448 L 191.818, 501.532 L 169.45, 470.632 z "/>
<path style="fill:rgb(10, 187, 197);fill-opacity:1.0;fill-rule:evenodd;stroke:rgb(0, 0, 0);stroke-width:3.0;" d="M 244.824, 487.711 L 249.293, 496.56 L 235.022, 507.561 L 238.615, 486.304 z "/>
<path style="fill:rgb(10, 187, 197);fill-opacity:1.0;fill-rule:evenodd;stroke:rgb(0, 0, 0);stroke-width:3.0;" d="M 111.971, 271.037 L 73.2583, 309.929 L 78.6401, 253.627 L 85.3135, 252.741 z "/>
<path style="fill:rgb(25, 217, 231);fill-opacity:1.0;fill-rule:evenodd;stroke:rgb(0, 0, 0);stroke-width:3.0;" d="M 330.42, 327.897 L 323.413, 357.091 L 205.277, 400.364 L 162.407, 312.104 L 194.106, 296.427 z "/>
<path style="fill:rgb(25, 217, 231);fill-opacity:1.0;fill-rule:evenodd;stroke:rgb(0, 0, 0);stroke-width:3.0;" d="M 407.37, 208.619 L 410.209, 212.997 L 410.315, 213.48 L 389.074, 220.312 L 389.026, 220.271 L 384.849, 208.536 z "/>
<path style="fill:rgb(25, 217, 231);fill-opacity:1.0;fill-rule:evenodd;stroke:rgb(0, 0, 0);stroke-width:3.0;" d="M 551.276, 401.089 L 528.3, 408.998 L 496.026, 398.38 L 460.949, 368.492 z "/>
<path style="fill:rgb(25, 217, 231);fill-opacity:1.0;fill-rule:evenodd;stroke:rgb(0, 0, 0);stroke-width:3.0;" d="M 391.268, 326.55 L 409.248, 347.541 L 397.718, 355.791 L 345.484, 308.853 z "/>
<path style="fill:rgb(255, 14, 115);fill-opacity:1.0;fill-rule:evenodd;stroke:rgb(0, 0, 0);stroke-width:3.0;" d="M 172.505, 523.917 L 158.39, 531.143 L 156.446, 529.774 L 162.425, 519.007 L 167.598, 518.507 z "/>
<path style="fill:rgb(255, 14, 115);fill-opacity:1.0;fill-rule:evenodd;stroke:rgb(0, 0, 0);stroke-width:3.0;" d="M 187.606, 363.983 L 198.699, 386.822 L 199.945, 394.735 L 191.429, 390.567 L 175.64, 354.058 z "/>
<path style="fill:rgb(255, 14, 115);fill-opacity:1.0;fill-rule:evenodd;stroke:rgb(0, 0, 0);stroke-width:3.0;" d="M 462.196, 411.928 L 444.397, 422.669 L 440.111, 402.104 z "/>
<path style="fill:rgb(197, 17, 8);fill-opacity:1.0;fill-rule:evenodd;stroke:rgb(0, 0, 0);stroke-width:3.0;" d="M 533.373, 410.668 L 543.232, 417.378 L 525.021, 423.086 L 496.026, 398.38 z "/>
<path style="fill:rgb(197, 17, 8);fill-opacity:1.0;fill-rule:evenodd;stroke:rgb(0, 0, 0);stroke-width:3.0;" d="M 528.224, 379.486 L 558.158, 391.056 L 544.357, 398.592 L 480.745, 375.636 L 481.541, 373.803 z "/>
<path style="fill:rgb(199, 39, 54);fill-opacity:1.0;fill-rule:evenodd;stroke:rgb(0, 0, 0);stroke-width:3.0;" d="M 405.66, 71.1556 L 387.993, 112.264 L 385.207, 99.6297 L 400.041, 37.8232 z "/>
<path style="fill:rgb(199, 39, 54);fill-opacity:1.0;fill-rule:evenodd;stroke:rgb(0, 0, 0);stroke-width:3.0;" d="M 177.396, 483.024 L 148.778, 504.637 L 146.808, 494.86 L 165.108, 477.608 L 171.951, 475.798 z "/>
<path style="fill:rgb(199, 39, 54);fill-opacity:1.0;fill-rule:evenodd;stroke:rgb(0, 0, 0);stroke-width:3.0;" d="M 782.16, 267.531 L 793.02, 280.258 L 781.795, 283.837 L 780.154, 265.455 z "/>
<path style="fill:rgb(199, 39, 54);fill-opacity:1.0;fill-rule:evenodd;stroke:rgb(0, 0, 0);stroke-width:3.0;" d="M 102.667, 509.402 L 102.788, 512.563 L 49.5134, 489.42 L 49.3187, 489.164 L 62.6758, 483.059 z "/>
<path style="fill:rgb(231, 1, 37);fill-opacity:1.0;fill-rule:evenodd;stroke:rgb(0, 0, 0);stroke-width:3.0;" d="M 62.6758, 483.059 L 49.3187, 489.164 L 46.503, 485.463 L 49.7526, 474.546 z "/>
<path style="fill:rgb(6, 255, 114);fill-opacity:1.0;fill-rule:evenodd;stroke:rgb(0, 0, 0);stroke-width:3.0;" d="M 722.036, 414.646 L 671.973, 403.934 L 685.129, 386.534 z "/>
<path style="fill:rgb(6, 255, 114);fill-opacity:1.0;fill-rule:evenodd;stroke:rgb(0, 0, 0);stroke-width:3.0;" d="M 392.175, 203.132 L 367.819, 172.078 L 371.59, 156.363 z "/>
<path style="fill:rgb(6, 255, 114);fill-opacity:1.0;fill-rule:evenodd;stroke:rgb(0, 0, 0);stroke-width:3.0;" d="M 103.46, 530.18 L 104.671, 561.914 L 88.044, 540.061 L 88.1526, 522.323 z "/>
<path style="fill:rgb(6, 255, 114);fill-opacity:1.0;fill-rule:evenodd;stroke:rgb(0, 0, 0);stroke-width:3.0;" d="M 435.006, 377.613 L 438.003, 391.991 L 423.821, 379.247 L 430.804, 372.706 z "/>
<path style="fill:rgb(194, 255, 255);fill-opacity:1.0;fill-rule:evenodd;stroke:rgb(0, 0, 0);stroke-width:3.0;" d="M 68.2548, 309.058 L 54.2139, 300.598 L 65.9983, 288.379 z "/>
<path style="fill:rgb(194, 255, 255);fill-opacity:1.0;fill-rule:evenodd;stroke:rgb(0, 0, 0);stroke-width:3.0;" d="M 430.804, 372.706 L 423.821, 379.247 L 397.718, 355.791 L 409.248, 347.541 z "/>
<path style="fill:rgb(32, 154, 212);fill-opacity:1.0;fill-rule:evenodd;stroke:rgb(0, 0, 0);stroke-width:3.0;" d="M 149.419, 291.084 L 141.238, 309.325 L 134.617, 312.528 L 99.4688, 309.822 L 102.959, 300.466 L 111.107, 287.512 z "/>
<path style="fill:rgb(32, 154, 212);fill-opacity:1.0;fill-rule:evenodd;stroke:rgb(0, 0, 0);stroke-width:3.0;" d="M 677.869, 419.874 L 672.969, 427.502 L 670.488, 427.839 L 653.692, 428.111 L 665.383, 412.65 z "/>
<path style="fill:rgb(252, 249, 22);fill-opacity:1.0;fill-rule:evenodd;stroke:rgb(0, 0, 0);stroke-width:3.0;" d="M 91.5656, 440.856 L 98.5683, 446.437 L 97.6133, 452.031 L 95.2067, 454.476 L 79.2925, 437.428 L 82.6428, 437.374 z "/>
<path style="fill:rgb(252, 249, 22);fill-opacity:1.0;fill-rule:evenodd;stroke:rgb(0, 0, 0);stroke-width:3.0;" d="M 732.277, 426.013 L 724.843, 420.454 L 755.833, 416.243 z "/>
<path style="fill:rgb(252, 249, 22);fill-opacity:1.0;fill-rule:evenodd;stroke:rgb(0, 0, 0);stroke-width:3.0;" d="M 686.157, 406.969 L 677.869, 419.874 L 665.383, 412.65 L 671.973, 403.934 z "/>
<path style="fill:rgb(204, 255, 255);fill-opacity:1.0;fill-rule:evenodd;stroke:rgb(0, 0, 0);stroke-width:3.0;" d="M 695.167, 549.538 L 666.186, 528.534 L 718.103, 512.023 z "/>
<path style="fill:rgb(204, 255, 255);fill-opacity:1.0;fill-rule:evenodd;stroke:rgb(0, 0, 0);stroke-width:3.0;" d="M 143.832, 438.484 L 171.951, 475.798 L 144.433, 483.077 L 135.05, 436.524 L 139.364, 436.454 z "/>
<path style="fill:rgb(255, 148, 7);fill-opacity:1.0;fill-rule:evenodd;stroke:rgb(0, 0, 0);stroke-width:3.0;" d="M 86.3415, 444.979 L 87.0186, 462.795 L 84.238, 465.62 L 76.0003, 437.482 L 79.2925, 437.428 z "/>
<path style="fill:rgb(255, 172, 8);fill-opacity:1.0;fill-rule:evenodd;stroke:rgb(0, 0, 0);stroke-width:3.0;" d="M 76.109, 280.106 L 73.2583, 309.929 L 71.9241, 311.269 L 68.2548, 309.058 L 64.4786, 274.452 z "/>
<path style="fill:rgb(255, 172, 8);fill-opacity:1.0;fill-rule:evenodd;stroke:rgb(0, 0, 0);stroke-width:3.0;" d="M 71.9241, 311.269 L 31.8605, 351.519 L 42.5546, 311.14 L 57.3332, 302.478 z "/>
<path style="fill:rgb(255, 152, 12);fill-opacity:1.0;fill-rule:evenodd;stroke:rgb(0, 0, 0);stroke-width:3.0;" d="M 714.652, 544.934 L 725.732, 509.597 L 750.801, 501.624 z "/>
<path style="fill:rgb(255, 152, 12);fill-opacity:1.0;fill-rule:evenodd;stroke:rgb(0, 0, 0);stroke-width:3.0;" d="M 398.716, 442.289 L 394.412, 443.263 L 383.712, 438.189 L 382.25, 432.514 L 402.234, 432.19 z "/>
<path style="fill:rgb(255, 20, 97);fill-opacity:1.0;fill-rule:evenodd;stroke:rgb(0, 0, 0);stroke-width:3.0;" d="M 120.653, 262.314 L 111.971, 271.037 L 85.3135, 252.741 L 122.384, 247.82 z "/>
<path style="fill:rgb(69, 165, 228);fill-opacity:1.0;fill-rule:evenodd;stroke:rgb(0, 0, 0);stroke-width:3.0;" d="M 144.037, 285.742 L 139.353, 290.146 L 115.853, 287.955 L 130.958, 282.56 z "/>
<path style="fill:rgb(69, 165, 228);fill-opacity:1.0;fill-rule:evenodd;stroke:rgb(0, 0, 0);stroke-width:3.0;" d="M 279.616, 544.316 L 265.682, 558.96 L 261.185, 558.587 L 260.266, 557.311 L 275.984, 541.898 z "/>
<path style="fill:rgb(243, 31, 175);fill-opacity:1.0;fill-rule:evenodd;stroke:rgb(0, 0, 0);stroke-width:3.0;" d="M 506.198, 370.972 L 502.506, 376.355 L 481.541, 373.803 L 486.135, 363.217 z "/>
<path style="fill:rgb(134, 94, 199);fill-opacity:1.0;fill-rule:evenodd;stroke:rgb(0, 0, 0);stroke-width:3.0;" d="M 159.951, 416.689 L 150.456, 436.274 L 144.54, 436.37 L 101.183, 423.771 L 153.223, 415.782 z "/>
<path style="fill:rgb(134, 94, 199);fill-opacity:1.0;fill-rule:evenodd;stroke:rgb(0, 0, 0);stroke-width:3.0;" d="M 178.035, 421.796 L 166.367, 413.764 L 186.923, 410.608 z "/>
<path style="fill:rgb(134, 94, 199);fill-opacity:1.0;fill-rule:evenodd;stroke:rgb(0, 0, 0);stroke-width:3.0;" d="M 574.862, 456.335 L 495.862, 446.293 L 512.144, 430.407 L 514.227, 430.374 z "/>
<path style="fill:rgb(134, 94, 199);fill-opacity:1.0;fill-rule:evenodd;stroke:rgb(0, 0, 0);stroke-width:3.0;" d="M 787.378, 375.11 L 772.697, 413.952 L 764.67, 415.042 L 783.029, 369.083 z "/>
<path style="fill:rgb(134, 94, 199);fill-opacity:1.0;fill-rule:evenodd;stroke:rgb(0, 0, 0);stroke-width:3.0;" d="M 116.735, 278.564 L 17.2985, 436.649 L 15.9953, 436.849 L 54.0265, 359.458 L 108.799, 276.732 z "/>
<path style="fill:rgb(249, 43, 55);fill-opacity:1.0;fill-rule:evenodd;stroke:rgb(0, 0, 0);stroke-width:3.0;" d="M 414.47, 123.417 L 393.725, 138.252 L 387.993, 112.264 L 405.66, 71.1556 z "/>
<path style="fill:rgb(249, 43, 55);fill-opacity:1.0;fill-rule:evenodd;stroke:rgb(0, 0, 0);stroke-width:3.0;" d="M 184.903, 549.809 L 177.713, 567.261 L 168.816, 569.164 L 154.444, 531.816 L 155.932, 529.412 z "/>
<path style="fill:rgb(249, 43, 55);fill-opacity:1.0;fill-rule:evenodd;stroke:rgb(0, 0, 0);stroke-width:3.0;" d="M 88.1526, 522.323 L 88.044, 540.061 L 65.8309, 510.866 z "/>
<path style="fill:rgb(249, 43, 55);fill-opacity:1.0;fill-rule:evenodd;stroke:rgb(0, 0, 0);stroke-width:3.0;" d="M 108.799, 276.732 L 69.1877, 336.559 L 66.6122, 333.846 L 83.3455, 299.795 L 106.768, 276.263 z "/>
<path style="fill:rgb(249, 43, 55);fill-opacity:1.0;fill-rule:evenodd;stroke:rgb(0, 0, 0);stroke-width:3.0;" d="M 198.084, 477.12 L 204.467, 502.279 L 193.504, 490.518 L 196.213, 476.696 z "/>
<path style="fill:rgb(27, 252, 76);fill-opacity:1.0;fill-rule:evenodd;stroke:rgb(0, 0, 0);stroke-width:3.0;" d="M 178.152, 421.877 L 177.665, 425.405 L 165.151, 436.036 L 159.254, 436.131 L 159.033, 435.8 L 163.204, 414.25 L 166.367, 413.764 z "/>
<path style="fill:rgb(123, 134, 255);fill-opacity:1.0;fill-rule:evenodd;stroke:rgb(0, 0, 0);stroke-width:3.0;" d="M 407.37, 208.619 L 396.447, 208.579 L 392.175, 203.132 L 386.007, 189.118 L 390.163, 182.078 z "/>
<path style="fill:rgb(123, 134, 255);fill-opacity:1.0;fill-rule:evenodd;stroke:rgb(0, 0, 0);stroke-width:3.0;" d="M 730.172, 432.939 L 737.94, 441.611 L 722.116, 445.694 L 717.452, 439.397 L 718.705, 437.289 L 728.796, 432.193 z "/>
<path style="fill:rgb(123, 134, 255);fill-opacity:1.0;fill-rule:evenodd;stroke:rgb(0, 0, 0);stroke-width:3.0;" d="M 189.529, 544.386 L 191.135, 552.981 L 189.829, 553.277 L 164.133, 535.186 L 174.096, 532.815 z "/>
<path style="fill:rgb(123, 134, 255);fill-opacity:1.0;fill-rule:evenodd;stroke:rgb(0, 0, 0);stroke-width:3.0;" d="M 380.998, 269.328 L 354.222, 312.23 L 335.882, 305.141 L 355.856, 221.919 z "/>
<path style="fill:rgb(255, 209, 138);fill-opacity:1.0;fill-rule:evenodd;stroke:rgb(0, 0, 0);stroke-width:3.0;" d="M 47.1812, 373.387 L 25.6373, 417.228 L 5.96985, 380.279 L 6.4254, 377.072 L 33.2294, 350.143 z "/>
<path style="fill:rgb(255, 202, 102);fill-opacity:1.0;fill-rule:evenodd;stroke:rgb(0, 0, 0);stroke-width:3.0;" d="M 673.313, 437.438 L 672.428, 438.381 L 659.556, 439.271 L 653.529, 431.949 L 652.877, 428.125 L 668.823, 427.866 z "/>
<path style="fill:rgb(255, 202, 102);fill-opacity:1.0;fill-rule:evenodd;stroke:rgb(0, 0, 0);stroke-width:3.0;" d="M 694.022, 555.901 L 637.087, 583.995 L 611.551, 576.564 L 637.687, 549.119 z "/>
<path style="fill:rgb(50, 199, 234);fill-opacity:1.0;fill-rule:evenodd;stroke:rgb(0, 0, 0);stroke-width:3.0;" d="M 102.944, 559.644 L 82.0871, 561.128 L 81.6029, 559.362 L 96.4381, 551.093 z "/>
<path style="fill:rgb(226, 199, 177);fill-opacity:1.0;fill-rule:evenodd;stroke:rgb(0, 0, 0);stroke-width:3.0;" d="M 526.496, 424.342 L 522.196, 430.244 L 518.833, 430.299 L 511.143, 417.845 L 513.601, 413.355 z "/>
<path style="fill:rgb(226, 199, 177);fill-opacity:1.0;fill-rule:evenodd;stroke:rgb(0, 0, 0);stroke-width:3.0;" d="M 384.805, 216.674 L 403.772, 232.836 L 380.998, 269.328 L 355.856, 221.919 L 357.963, 213.139 z "/>
<path style="fill:rgb(226, 199, 177);fill-opacity:1.0;fill-rule:evenodd;stroke:rgb(0, 0, 0);stroke-width:3.0;" d="M 789.312, 378.2 L 791.348, 411.417 L 772.697, 413.952 L 786.584, 377.212 z "/>
<path style="fill:rgb(226, 199, 177);fill-opacity:1.0;fill-rule:evenodd;stroke:rgb(0, 0, 0);stroke-width:3.0;" d="M 96.4381, 551.093 L 81.6029, 559.362 L 73.4613, 529.665 L 73.6745, 521.175 z "/>
<path style="fill:rgb(37, 18, 252);fill-opacity:1.0;fill-rule:evenodd;stroke:rgb(0, 0, 0);stroke-width:3.0;" d="M 555.785, 425.922 L 530.961, 428.147 L 525.021, 423.086 L 543.232, 417.378 z "/>
<path style="fill:rgb(37, 18, 252);fill-opacity:1.0;fill-rule:evenodd;stroke:rgb(0, 0, 0);stroke-width:3.0;" d="M 314.995, 180.873 L 322.508, 326.07 L 293.874, 319.46 L 314.426, 180.795 z "/>
<path style="fill:rgb(255, 17, 25);fill-opacity:1.0;fill-rule:evenodd;stroke:rgb(0, 0, 0);stroke-width:3.0;" d="M 59.692, 343.063 L 43.2954, 340.031 L 56.642, 326.622 z "/>
<path style="fill:rgb(255, 17, 25);fill-opacity:1.0;fill-rule:evenodd;stroke:rgb(0, 0, 0);stroke-width:3.0;" d="M 364.099, 187.575 L 330.42, 327.897 L 322.508, 326.07 L 314.995, 180.873 z "/>
<path style="fill:rgb(55, 255, 252);fill-opacity:1.0;fill-rule:evenodd;stroke:rgb(0, 0, 0);stroke-width:3.0;" d="M 396.447, 208.579 L 359.091, 208.442 L 367.819, 172.078 z "/>
<path style="fill:rgb(255, 240, 8);fill-opacity:1.0;fill-rule:evenodd;stroke:rgb(0, 0, 0);stroke-width:3.0;" d="M 260.808, 524.932 L 262.67, 529.896 L 250.821, 533.948 L 242.118, 527.319 L 250.742, 521.75 z "/>
<path style="fill:rgb(255, 1, 246);fill-opacity:1.0;fill-rule:evenodd;stroke:rgb(0, 0, 0);stroke-width:3.0;" d="M 267.411, 510.986 L 258.317, 516.859 L 234.677, 509.6 L 235.022, 507.561 L 252.819, 493.841 z "/>
<path style="fill:rgb(255, 1, 246);fill-opacity:1.0;fill-rule:evenodd;stroke:rgb(0, 0, 0);stroke-width:3.0;" d="M 793.959, 242.601 L 761.668, 285.307 L 721.75, 97.9004 L 774.693, 67.2254 z "/>
<path style="fill:rgb(212, 108, 11);fill-opacity:1.0;fill-rule:evenodd;stroke:rgb(0, 0, 0);stroke-width:3.0;" d="M 411.761, 220.036 L 403.772, 232.836 L 398.925, 228.706 L 394.785, 218.476 L 410.315, 213.48 z "/>
<path style="fill:rgb(212, 108, 11);fill-opacity:1.0;fill-rule:evenodd;stroke:rgb(0, 0, 0);stroke-width:3.0;" d="M 76.9241, 271.579 L 76.109, 280.106 L 53.6636, 269.194 L 55.0258, 264.051 z "/>
<path style="fill:rgb(240, 2, 54);fill-opacity:1.0;fill-rule:evenodd;stroke:rgb(0, 0, 0);stroke-width:3.0;" d="M 701.201, 423.522 L 700.961, 423.699 L 672.969, 427.502 L 677.26, 420.821 L 695.427, 418.985 z "/>
<path style="fill:rgb(255, 5, 50);fill-opacity:1.0;fill-rule:evenodd;stroke:rgb(0, 0, 0);stroke-width:3.0;" d="M 782.534, 337.959 L 761.635, 325.737 L 761.16, 320.544 L 775.676, 318.9 z "/>
<path style="fill:rgb(255, 172, 33);fill-opacity:1.0;fill-rule:evenodd;stroke:rgb(0, 0, 0);stroke-width:3.0;" d="M 218.328, 550.119 L 217.272, 572.598 L 215.55, 571.386 L 194.047, 547.673 L 194.468, 547.254 z "/>
<path style="fill:rgb(12, 67, 237);fill-opacity:1.0;fill-rule:evenodd;stroke:rgb(0, 0, 0);stroke-width:3.0;" d="M 64.4786, 274.452 L 65.979, 288.202 L 51.5285, 277.256 L 53.6636, 269.194 z "/>
<path style="fill:rgb(12, 67, 237);fill-opacity:1.0;fill-rule:evenodd;stroke:rgb(0, 0, 0);stroke-width:3.0;" d="M 659.556, 439.271 L 613.672, 442.443 L 601.06, 428.965 L 650.414, 428.165 z "/>
<path style="fill:rgb(255, 234, 8);fill-opacity:1.0;fill-rule:evenodd;stroke:rgb(0, 0, 0);stroke-width:3.0;" d="M 279.583, 434.179 L 232.494, 434.943 L 230.56, 426.528 L 241.599, 419.757 z "/>
<path style="fill:rgb(255, 234, 8);fill-opacity:1.0;fill-rule:evenodd;stroke:rgb(0, 0, 0);stroke-width:3.0;" d="M 640.679, 452.274 L 683.31, 461.285 L 587.018, 461.54 L 560.379, 450.134 z "/>
<path style="fill:rgb(255, 9, 70);fill-opacity:1.0;fill-rule:evenodd;stroke:rgb(0, 0, 0);stroke-width:3.0;" d="M 485.869, 437.202 L 490.25, 451.769 L 487.783, 454.176 L 476.977, 444.666 L 482.931, 435.707 z "/>
<path style="fill:rgb(255, 9, 70);fill-opacity:1.0;fill-rule:evenodd;stroke:rgb(0, 0, 0);stroke-width:3.0;" d="M 51.2833, 469.403 L 49.8836, 474.106 L 42.5082, 480.213 L 38.6398, 475.129 L 32.9177, 453.595 L 47.958, 443.349 z "/>
<path style="fill:rgb(255, 9, 70);fill-opacity:1.0;fill-rule:evenodd;stroke:rgb(0, 0, 0);stroke-width:3.0;" d="M 177.59, 435.834 L 165.151, 436.036 L 190.063, 414.874 z "/>
<path style="fill:rgb(94, 255, 217);fill-opacity:1.0;fill-rule:evenodd;stroke:rgb(0, 0, 0);stroke-width:3.0;" d="M 115.972, 311.092 L 108.908, 324.962 L 90.4984, 333.866 L 99.4688, 309.822 z "/>
<path style="fill:rgb(237, 52, 7);fill-opacity:1.0;fill-rule:evenodd;stroke:rgb(0, 0, 0);stroke-width:3.0;" d="M 475.521, 461.835 L 404.069, 462.024 L 409.9, 432.066 L 426.31, 431.8 z "/>
<path style="fill:rgb(255, 14, 172);fill-opacity:1.0;fill-rule:evenodd;stroke:rgb(0, 0, 0);stroke-width:3.0;" d="M 65.979, 288.202 L 65.9983, 288.379 L 54.2139, 300.598 L 46.5668, 295.99 L 51.5285, 277.256 z "/>
<path style="fill:rgb(255, 14, 172);fill-opacity:1.0;fill-rule:evenodd;stroke:rgb(0, 0, 0);stroke-width:3.0;" d="M 487.783, 454.176 L 479.945, 461.823 L 475.521, 461.835 L 426.31, 431.8 L 461.706, 431.225 z "/>
<path style="fill:rgb(255, 19, 76);fill-opacity:1.0;fill-rule:evenodd;stroke:rgb(0, 0, 0);stroke-width:3.0;" d="M 102.788, 512.563 L 103.46, 530.18 L 90.4737, 523.514 L 102.289, 512.347 z "/>
<path style="fill:rgb(57, 50, 209);fill-opacity:1.0;fill-rule:evenodd;stroke:rgb(0, 0, 0);stroke-width:3.0;" d="M 27.8987, 445.15 L 23.0223, 454.602 L 20.0746, 450.728 L 13.9458, 439.503 L 17.6096, 438.429 L 20.8551, 438.376 z "/>
<path style="fill:rgb(128, 89, 246);fill-opacity:1.0;fill-rule:evenodd;stroke:rgb(0, 0, 0);stroke-width:3.0;" d="M 302.6, 529.104 L 316.045, 539.624 L 303.669, 545.188 L 301.037, 543.458 L 295.567, 526.66 z "/>
<path style="fill:rgb(128, 89, 246);fill-opacity:1.0;fill-rule:evenodd;stroke:rgb(0, 0, 0);stroke-width:3.0;" d="M 789.804, 423.86 L 791.066, 425.883 L 733.356, 426.819 L 732.277, 426.013 L 755.833, 416.243 L 759.863, 415.695 z "/>
<path style="fill:rgb(128, 89, 246);fill-opacity:1.0;fill-rule:evenodd;stroke:rgb(0, 0, 0);stroke-width:3.0;" d="M 375.213, 208.501 L 384.805, 216.674 L 357.963, 213.139 L 359.091, 208.442 z "/>
<path style="fill:rgb(8, 255, 255);fill-opacity:1.0;fill-rule:evenodd;stroke:rgb(0, 0, 0);stroke-width:3.0;" d="M 793.294, 344.251 L 784.558, 362.085 L 779.352, 363.988 L 775.426, 358.547 L 766.427, 338.145 L 780.18, 336.582 z "/>
<path style="fill:rgb(18, 140, 240);fill-opacity:1.0;fill-rule:evenodd;stroke:rgb(0, 0, 0);stroke-width:3.0;" d="M 309.907, 478.969 L 309.548, 479.357 L 283.246, 490.59 L 278.305, 485.97 L 274.785, 476.671 z "/>
<path style="fill:rgb(18, 140, 240);fill-opacity:1.0;fill-rule:evenodd;stroke:rgb(0, 0, 0);stroke-width:3.0;" d="M 249.991, 535.173 L 247.341, 554.521 L 238.548, 561.021 L 235.871, 539.061 L 249.277, 534.476 z "/>
<path style="fill:rgb(18, 140, 240);fill-opacity:1.0;fill-rule:evenodd;stroke:rgb(0, 0, 0);stroke-width:3.0;" d="M 704.271, 461.571 L 697.757, 464.338 L 693.845, 463.511 L 704.783, 448.072 L 712.413, 447.875 z "/>
<path style="fill:rgb(35, 255, 255);fill-opacity:1.0;fill-rule:evenodd;stroke:rgb(0, 0, 0);stroke-width:3.0;" d="M 693.845, 463.511 L 681.843, 460.974 L 686.012, 453.799 L 696.951, 448.275 L 704.783, 448.072 z "/>
<path style="fill:rgb(10, 204, 237);fill-opacity:1.0;fill-rule:evenodd;stroke:rgb(0, 0, 0);stroke-width:3.0;" d="M 73.6745, 521.175 L 72.8736, 553.068 L 67.5329, 554.174 L 50.2594, 539.893 L 71.9919, 518.963 z "/>
<path style="fill:rgb(237, 249, 35);fill-opacity:1.0;fill-rule:evenodd;stroke:rgb(0, 0, 0);stroke-width:3.0;" d="M 695.167, 549.538 L 691.465, 555.593 L 637.687, 549.119 L 653.426, 532.592 L 666.186, 528.534 z "/>
<path style="fill:rgb(255, 29, 255);fill-opacity:1.0;fill-rule:evenodd;stroke:rgb(0, 0, 0);stroke-width:3.0;" d="M 291.91, 498.38 L 291.468, 498.28 L 283.246, 490.59 L 309.548, 479.357 z "/>
<path style="fill:rgb(255, 112, 7);fill-opacity:1.0;fill-rule:evenodd;stroke:rgb(0, 0, 0);stroke-width:3.0;" d="M 194.106, 296.427 L 162.407, 312.104 L 149.827, 286.204 z "/>
<path style="fill:rgb(255, 48, 140);fill-opacity:1.0;fill-rule:evenodd;stroke:rgb(0, 0, 0);stroke-width:3.0;" d="M 221.058, 435.129 L 197.319, 435.514 L 202.303, 408.247 L 208.775, 407.253 z "/>
<path style="fill:rgb(52, 255, 220);fill-opacity:1.0;fill-rule:evenodd;stroke:rgb(0, 0, 0);stroke-width:3.0;" d="M 197.319, 435.514 L 177.59, 435.834 L 190.063, 414.874 L 196.884, 409.079 L 202.303, 408.247 z "/>
<path style="fill:rgb(24, 79, 255);fill-opacity:1.0;fill-rule:evenodd;stroke:rgb(0, 0, 0);stroke-width:3.0;" d="M 390.163, 182.078 L 386.007, 189.118 L 371.59, 156.363 L 372.104, 154.224 z "/>
<path style="fill:rgb(255, 25, 197);fill-opacity:1.0;fill-rule:evenodd;stroke:rgb(0, 0, 0);stroke-width:3.0;" d="M 398.03, 157.771 L 373.501, 156.38 L 372.104, 154.224 L 385.207, 99.6297 z "/>
<path style="fill:rgb(255, 25, 197);fill-opacity:1.0;fill-rule:evenodd;stroke:rgb(0, 0, 0);stroke-width:3.0;" d="M 59.692, 343.063 L 60.3473, 346.595 L 47.1812, 373.387 L 33.2294, 350.143 L 43.2954, 340.031 z "/>
<path style="fill:rgb(255, 194, 20);fill-opacity:1.0;fill-rule:evenodd;stroke:rgb(0, 0, 0);stroke-width:3.0;" d="M 741.611, 445.71 L 726.791, 452.006 L 722.116, 445.694 L 737.94, 441.611 z "/>
<path style="fill:rgb(255, 8, 8);fill-opacity:1.0;fill-rule:evenodd;stroke:rgb(0, 0, 0);stroke-width:3.0;" d="M 261.348, 489.182 L 256.878, 490.442 L 235.106, 485.509 L 236.82, 484.583 L 253.355, 482.212 z "/>
<path style="fill:rgb(255, 103, 37);fill-opacity:1.0;fill-rule:evenodd;stroke:rgb(0, 0, 0);stroke-width:3.0;" d="M 456.68, 402.916 L 452.828, 407.761 L 440.111, 402.104 L 436.737, 385.916 L 439.352, 382.686 z "/>
<path style="fill:rgb(86, 5, 252);fill-opacity:1.0;fill-rule:evenodd;stroke:rgb(0, 0, 0);stroke-width:3.0;" d="M 785.37, 323.898 L 786.85, 340.483 L 782.534, 337.959 L 775.676, 318.9 L 780.066, 318.403 z "/>
<path style="fill:rgb(237, 170, 255);fill-opacity:1.0;fill-rule:evenodd;stroke:rgb(0, 0, 0);stroke-width:3.0;" d="M 326.089, 102.111 L 315.194, 94.8519 L 319.844, 62.1986 L 334.133, 47.8439 z "/>
<path style="fill:rgb(255, 57, 249);fill-opacity:1.0;fill-rule:evenodd;stroke:rgb(0, 0, 0);stroke-width:3.0;" d="M 315.194, 94.8519 L 298.448, 83.6943 L 319.844, 62.1986 z "/>
<path style="fill:rgb(240, 197, 255);fill-opacity:1.0;fill-rule:evenodd;stroke:rgb(0, 0, 0);stroke-width:3.0;" d="M 410.209, 212.997 L 390.086, 181.96 L 402.665, 178.791 z "/>
<path style="fill:rgb(226, 1, 10);fill-opacity:1.0;fill-rule:evenodd;stroke:rgb(0, 0, 0);stroke-width:3.0;" d="M 228.124, 541.71 L 222.954, 543.478 L 208.667, 524.52 L 218.012, 521.53 z "/>
<path style="fill:rgb(255, 31, 223);fill-opacity:1.0;fill-rule:evenodd;stroke:rgb(0, 0, 0);stroke-width:3.0;" d="M 482.931, 435.707 L 476.977, 444.666 L 461.706, 431.225 L 473.739, 431.03 z "/>
<path style="fill:rgb(60, 126, 209);fill-opacity:1.0;fill-rule:evenodd;stroke:rgb(0, 0, 0);stroke-width:3.0;" d="M 563.576, 420.605 L 556.801, 426.614 L 536.191, 412.586 L 536.651, 411.746 z "/>
<path style="fill:rgb(60, 126, 209);fill-opacity:1.0;fill-rule:evenodd;stroke:rgb(0, 0, 0);stroke-width:3.0;" d="M 106.701, 564.581 L 101.709, 585.497 L 91.4651, 574.29 L 106.493, 564.309 z "/>
<path style="fill:rgb(187, 5, 217);fill-opacity:1.0;fill-rule:evenodd;stroke:rgb(0, 0, 0);stroke-width:3.0;" d="M 31.5031, 573.353 L 16.0488, 572.576 L 13.9111, 553.807 L 21.8727, 552.901 z "/>
<path style="fill:rgb(102, 126, 231);fill-opacity:1.0;fill-rule:evenodd;stroke:rgb(0, 0, 0);stroke-width:3.0;" d="M 714.652, 544.934 L 713.533, 546.274 L 709.416, 548.306 L 698.7, 543.76 L 718.103, 512.023 L 725.732, 509.597 z "/>
</svg>