<?xml version="1.0" encoding="iso-8859-1" standalone="no"?>
<!DOCTYPE svg PUBLIC "-//W3C//DTD SVG 1.0//EN" "http://www.w3.org/TR/2001/REC-SVG-20010904/DTD/svg10.dtd">
<svg xmlns="http://www.w3.org/2000/svg" width="800" height="600">
<path style="fill:rgb(0, 0, 0);fill-opacity:0.0;fill-rule:evenodd;stroke:rgb(0, 0, 0);stroke-width:0.0;" d="M 0, 600 L 800, 600 L 800, 0 L 0, 0 z "/>
<path style="fill:rgb(234, 13, 10);fill-opacity:1.0;fill-rule:evenodd;stroke:rgb(0, 0, 0);stroke-width:3.0;" d="M 777.592, 522.52 L 749.719, 529.983 L 746.784, 524.423 L 771.195, 517.07 z "/>
<path style="fill:rgb(234, 13, 10);fill-opacity:1.0;fill-rule:evenodd;stroke:rgb(0, 0, 0);stroke-width:3.0;" d="M 766.48, 392.522 L 772.122, 478.666 L 722.063, 418.407 L 718.966, 399.613 L 764.635, 391.752 z "/>
<path style="fill:rgb(234, 13, 10);fill-opacity:1.0;fill-rule:evenodd;stroke:rgb(0, 0, 0);stroke-width:3.0;" d="M 44.52, 160.008 L 31.6943, 167.884 L 30.6771, 151.168 L 32.1583, 149.176 z "/>
<path style="fill:rgb(234, 13, 10);fill-opacity:1.0;fill-rule:evenodd;stroke:rgb(0, 0, 0);stroke-width:3.0;" d="M 734.27, 316.085 L 714.295, 330.265 L 724.547, 289.416 z "/>
<path style="fill:rgb(255, 35, 115);fill-opacity:1.0;fill-rule:evenodd;stroke:rgb(0, 0, 0);stroke-width:3.0;" d="M 687.494, 371.889 L 682.865, 370.516 L 681.414, 368.999 L 681.147, 366.206 L 683.444, 358.58 L 687.73, 353.889 L 693.891, 353.672 z "/>
<path style="fill:rgb(255, 35, 115);fill-opacity:1.0;fill-rule:evenodd;stroke:rgb(0, 0, 0);stroke-width:3.0;" d="M 773.797, 369.884 L 787.516, 414.356 L 779.753, 414.721 L 771.194, 369.357 z "/>
<path style="fill:rgb(255, 35, 115);fill-opacity:1.0;fill-rule:evenodd;stroke:rgb(0, 0, 0);stroke-width:3.0;" d="M 79.6754, 95.1693 L 64.9356, 93.8125 L 85.4858, 79.4068 z "/>
<path style="fill:rgb(255, 35, 115);fill-opacity:1.0;fill-rule:evenodd;stroke:rgb(0, 0, 0);stroke-width:3.0;" d="M 666.008, 500.63 L 645.976, 531.752 L 638.636, 507.34 L 644.776, 486.954 z "/>
<path style="fill:rgb(255, 231, 7);fill-opacity:1.0;fill-rule:evenodd;stroke:rgb(0, 0, 0);stroke-width:3.0;" d="M 754.74, 261.927 L 744.395, 274.199 L 733.452, 253.939 L 737.88, 236.295 z "/>
<path style="fill:rgb(255, 231, 7);fill-opacity:1.0;fill-rule:evenodd;stroke:rgb(0, 0, 0);stroke-width:3.0;" d="M 701.497, 487.892 L 699.793, 492.208 L 670.747, 481.944 L 668.301, 478.344 L 667.947, 472.137 z "/>
<path style="fill:rgb(255, 231, 7);fill-opacity:1.0;fill-rule:evenodd;stroke:rgb(0, 0, 0);stroke-width:3.0;" d="M 708.115, 581.598 L 697.572, 585.788 L 680.686, 577.868 L 681.533, 569.939 z "/>
<path style="fill:rgb(234, 152, 20);fill-opacity:1.0;fill-rule:evenodd;stroke:rgb(0, 0, 0);stroke-width:3.0;" d="M 773.409, 516.403 L 735.672, 527.77 L 734.43, 524.511 L 735.435, 522.663 L 773.153, 512.109 z "/>
<path style="fill:rgb(234, 152, 20);fill-opacity:1.0;fill-rule:evenodd;stroke:rgb(0, 0, 0);stroke-width:3.0;" d="M 743.751, 99.1401 L 749.188, 116.485 L 730.526, 101.235 L 735.518, 94.6899 z "/>
<path style="fill:rgb(223, 55, 142);fill-opacity:1.0;fill-rule:evenodd;stroke:rgb(0, 0, 0);stroke-width:3.0;" d="M 709.482, 368.729 L 708.691, 401.381 L 699.512, 402.962 L 706.969, 371.558 L 709.385, 368.688 z "/>
<path style="fill:rgb(255, 0, 92);fill-opacity:1.0;fill-rule:evenodd;stroke:rgb(0, 0, 0);stroke-width:3.0;" d="M 752.447, 178.258 L 715.089, 327.1 L 712.26, 329.069 L 705.243, 325.335 L 699.411, 305.573 L 706.008, 283.671 L 751.708, 166.974 z "/>
<path style="fill:rgb(21, 98, 255);fill-opacity:1.0;fill-rule:evenodd;stroke:rgb(0, 0, 0);stroke-width:3.0;" d="M 700.955, 548.597 L 687.839, 537.249 L 685.358, 534.135 L 685.773, 530.254 L 693.271, 528.869 z "/>
<path style="fill:rgb(240, 82, 88);fill-opacity:1.0;fill-rule:evenodd;stroke:rgb(0, 0, 0);stroke-width:3.0;" d="M 50.6534, 90.8152 L 52.4744, 95.1844 L 52.7672, 102.343 L 17.2668, 127.229 L 39.2919, 88.3244 z "/>
<path style="fill:rgb(240, 82, 88);fill-opacity:1.0;fill-rule:evenodd;stroke:rgb(0, 0, 0);stroke-width:3.0;" d="M 740.563, 309.448 L 732.635, 311.599 L 729.053, 301.775 L 736.273, 287.309 z "/>
<path style="fill:rgb(240, 82, 88);fill-opacity:1.0;fill-rule:evenodd;stroke:rgb(0, 0, 0);stroke-width:3.0;" d="M 59.687, 52.2994 L 45.2447, 77.8095 L 27.1971, 50.58 L 56.6254, 48.0555 z "/>
<path style="fill:rgb(240, 82, 88);fill-opacity:1.0;fill-rule:evenodd;stroke:rgb(0, 0, 0);stroke-width:3.0;" d="M 739.435, 198.314 L 722.687, 241.079 L 720.029, 237.124 L 731.878, 197.786 z "/>
<path style="fill:rgb(255, 98, 223);fill-opacity:1.0;fill-rule:evenodd;stroke:rgb(0, 0, 0);stroke-width:3.0;" d="M 91.2673, 86.2221 L 81.5062, 102.414 L 77.8718, 100.062 L 83.3308, 85.2528 z "/>
<path style="fill:rgb(255, 98, 223);fill-opacity:1.0;fill-rule:evenodd;stroke:rgb(0, 0, 0);stroke-width:3.0;" d="M 755.385, 223.119 L 757.697, 258.419 L 754.74, 261.927 L 737.88, 236.295 L 739.424, 230.145 L 749.578, 222.182 z "/>
<path style="fill:rgb(255, 98, 223);fill-opacity:1.0;fill-rule:evenodd;stroke:rgb(0, 0, 0);stroke-width:3.0;" d="M 772.122, 478.666 L 772.361, 482.327 L 765.405, 488.434 L 761.114, 490.265 L 727.724, 452.761 L 722.063, 418.407 z "/>
<path style="fill:rgb(255, 98, 223);fill-opacity:1.0;fill-rule:evenodd;stroke:rgb(0, 0, 0);stroke-width:3.0;" d="M 742.595, 270.866 L 744.794, 274.938 L 745.143, 277.134 L 738.078, 291.737 L 732.444, 264.752 L 737.148, 263.791 z "/>
<path style="fill:rgb(18, 243, 252);fill-opacity:1.0;fill-rule:evenodd;stroke:rgb(0, 0, 0);stroke-width:3.0;" d="M 718.845, 466.852 L 720.898, 478.575 L 692.847, 472.919 L 717.767, 466.648 z "/>
<path style="fill:rgb(243, 252, 23);fill-opacity:1.0;fill-rule:evenodd;stroke:rgb(0, 0, 0);stroke-width:3.0;" d="M 699.418, 24.4232 L 693.201, 49.0511 L 689.718, 48.9244 L 683.627, 28.0851 L 687.378, 22.7429 z "/>
<path style="fill:rgb(204, 2, 215);fill-opacity:1.0;fill-rule:evenodd;stroke:rgb(0, 0, 0);stroke-width:3.0;" d="M 681.987, 565.692 L 672.38, 560.412 L 673.878, 554.905 L 684.503, 542.135 z "/>
<path style="fill:rgb(207, 3, 28);fill-opacity:1.0;fill-rule:evenodd;stroke:rgb(0, 0, 0);stroke-width:3.0;" d="M 719.882, 469.366 L 735.834, 489.472 L 729.589, 493.273 L 720.49, 476.245 L 719.231, 469.054 z "/>
<path style="fill:rgb(207, 3, 28);fill-opacity:1.0;fill-rule:evenodd;stroke:rgb(0, 0, 0);stroke-width:3.0;" d="M 719.55, 32.263 L 719.17, 33.7949 L 702.518, 43.8105 L 695.117, 41.4589 L 697.365, 32.5565 L 705.432, 28.7956 z "/>
<path style="fill:rgb(33, 15, 182);fill-opacity:1.0;fill-rule:evenodd;stroke:rgb(0, 0, 0);stroke-width:3.0;" d="M 746.203, 181.03 L 739.435, 198.314 L 731.878, 197.786 L 737.784, 178.177 L 746.024, 177.218 z "/>
<path style="fill:rgb(33, 15, 182);fill-opacity:1.0;fill-rule:evenodd;stroke:rgb(0, 0, 0);stroke-width:3.0;" d="M 734.609, 278.716 L 726.615, 295.088 L 724.547, 289.416 L 729.747, 268.698 L 732.313, 266.866 z "/>
<path style="fill:rgb(33, 15, 182);fill-opacity:1.0;fill-rule:evenodd;stroke:rgb(0, 0, 0);stroke-width:3.0;" d="M 99.3932, 64.7 L 78.1913, 83.2488 L 71.482, 75.9553 L 98.3402, 63.5556 z "/>
<path style="fill:rgb(81, 237, 223);fill-opacity:1.0;fill-rule:evenodd;stroke:rgb(0, 0, 0);stroke-width:3.0;" d="M 727.724, 452.761 L 693.264, 414.055 L 695.892, 403.585 L 718.966, 399.613 z "/>
<path style="fill:rgb(81, 237, 223);fill-opacity:1.0;fill-rule:evenodd;stroke:rgb(0, 0, 0);stroke-width:3.0;" d="M 120.9, 37.0662 L 111.895, 52.0034 L 107.216, 42.6351 L 118.319, 33.5642 z "/>
<path style="fill:rgb(81, 237, 223);fill-opacity:1.0;fill-rule:evenodd;stroke:rgb(0, 0, 0);stroke-width:3.0;" d="M 727.47, 570.35 L 734.124, 574.283 L 717.557, 585.739 L 714.982, 584.61 L 708.653, 568.36 z "/>
<path style="fill:rgb(234, 207, 23);fill-opacity:1.0;fill-rule:evenodd;stroke:rgb(0, 0, 0);stroke-width:3.0;" d="M 30.9593, 56.2563 L 30.1729, 61.3572 L 18.3023, 67.1525 L 22.5156, 43.5167 z "/>
<path style="fill:rgb(234, 207, 23);fill-opacity:1.0;fill-rule:evenodd;stroke:rgb(0, 0, 0);stroke-width:3.0;" d="M 707.098, 450.474 L 672.131, 468.741 L 651.515, 464.583 L 659.987, 436.457 L 682.287, 422.317 z "/>
<path style="fill:rgb(30, 20, 255);fill-opacity:1.0;fill-rule:evenodd;stroke:rgb(0, 0, 0);stroke-width:3.0;" d="M 760.709, 304.402 L 744.395, 274.199 L 757.697, 258.419 z "/>
<path style="fill:rgb(252, 192, 10);fill-opacity:1.0;fill-rule:evenodd;stroke:rgb(0, 0, 0);stroke-width:3.0;" d="M 52.328, 147.037 L 19.8986, 126.843 L 70.649, 113.081 z "/>
<path style="fill:rgb(246, 95, 10);fill-opacity:1.0;fill-rule:evenodd;stroke:rgb(0, 0, 0);stroke-width:3.0;" d="M 718.329, 385.212 L 712.268, 400.766 L 708.691, 401.381 L 709.192, 380.679 L 715.432, 372.075 z "/>
<path style="fill:rgb(246, 95, 10);fill-opacity:1.0;fill-rule:evenodd;stroke:rgb(0, 0, 0);stroke-width:3.0;" d="M 76.5217, 81.4339 L 68.9361, 89.1505 L 65.4142, 80.1536 L 64.8726, 73.7552 L 67.795, 71.9471 z "/>
<path style="fill:rgb(255, 228, 45);fill-opacity:1.0;fill-rule:evenodd;stroke:rgb(0, 0, 0);stroke-width:3.0;" d="M 30.0162, 168.915 L 6.96141, 183.073 L 24.1204, 159.989 z "/>
<path style="fill:rgb(209, 62, 107);fill-opacity:1.0;fill-rule:evenodd;stroke:rgb(0, 0, 0);stroke-width:3.0;" d="M 748.954, 580.957 L 747.886, 582.416 L 723.221, 567.839 L 725.805, 561.269 L 727.937, 559.906 z "/>
<path style="fill:rgb(209, 62, 107);fill-opacity:1.0;fill-rule:evenodd;stroke:rgb(0, 0, 0);stroke-width:3.0;" d="M 663.553, 508.221 L 680.963, 524.465 L 669.298, 529.443 L 657.575, 513.732 L 661.629, 507.434 z "/>
<path style="fill:rgb(152, 114, 255);fill-opacity:1.0;fill-rule:evenodd;stroke:rgb(0, 0, 0);stroke-width:3.0;" d="M 91.2673, 86.2221 L 83.3308, 85.2528 L 85.4858, 79.4068 L 102.614, 67.4001 z "/>
<path style="fill:rgb(152, 114, 255);fill-opacity:1.0;fill-rule:evenodd;stroke:rgb(0, 0, 0);stroke-width:3.0;" d="M 757.594, 378.842 L 750.74, 385.951 L 705.1, 366.9 L 714.295, 330.265 L 723.97, 323.397 z "/>
<path style="fill:rgb(152, 114, 255);fill-opacity:1.0;fill-rule:evenodd;stroke:rgb(0, 0, 0);stroke-width:3.0;" d="M 45.2447, 77.8095 L 38.7541, 89.2743 L 32.7655, 91.8271 L 39.2598, 68.7796 z "/>
<path style="fill:rgb(45, 0, 249);fill-opacity:1.0;fill-rule:evenodd;stroke:rgb(0, 0, 0);stroke-width:3.0;" d="M 127.564, 26.0108 L 102.118, 46.7997 L 109.587, 20.3522 L 133.033, 16.9395 z "/>
<path style="fill:rgb(255, 35, 30);fill-opacity:1.0;fill-rule:evenodd;stroke:rgb(0, 0, 0);stroke-width:3.0;" d="M 715.133, 584.676 L 726.286, 589.567 L 724.751, 592.202 L 698.777, 586.354 L 697.572, 585.788 L 702.429, 583.857 L 710.805, 583.695 z "/>
<path style="fill:rgb(255, 35, 30);fill-opacity:1.0;fill-rule:evenodd;stroke:rgb(0, 0, 0);stroke-width:3.0;" d="M 779.496, 136.015 L 763.109, 341.054 L 750.821, 153.425 L 770.118, 118.621 z "/>
<path style="fill:rgb(177, 65, 255);fill-opacity:1.0;fill-rule:evenodd;stroke:rgb(0, 0, 0);stroke-width:3.0;" d="M 644.99, 528.474 L 645.005, 533.261 L 642.559, 537.061 L 635.313, 529.889 L 641.438, 516.659 z "/>
<path style="fill:rgb(25, 228, 237);fill-opacity:1.0;fill-rule:evenodd;stroke:rgb(0, 0, 0);stroke-width:3.0;" d="M 76.9103, 73.4492 L 71.482, 75.9553 L 66.0513, 70.0515 L 84.1609, 52.8609 z "/>
<path style="fill:rgb(25, 228, 237);fill-opacity:1.0;fill-rule:evenodd;stroke:rgb(0, 0, 0);stroke-width:3.0;" d="M 26.1662, 157.237 L 24.2519, 156.242 L 24.42, 146.949 L 31.6621, 141.051 L 38.3658, 140.824 z "/>
<path style="fill:rgb(255, 249, 35);fill-opacity:1.0;fill-rule:evenodd;stroke:rgb(0, 0, 0);stroke-width:3.0;" d="M 111.895, 52.0034 L 102.614, 67.4001 L 102.166, 67.7139 L 97.6103, 62.7622 L 102.118, 46.7997 L 107.216, 42.6351 z "/>
<path style="fill:rgb(255, 252, 12);fill-opacity:1.0;fill-rule:evenodd;stroke:rgb(0, 0, 0);stroke-width:3.0;" d="M 730.526, 101.235 L 707.436, 82.3672 L 747.551, 78.916 z "/>
<path style="fill:rgb(110, 12, 249);fill-opacity:1.0;fill-rule:evenodd;stroke:rgb(0, 0, 0);stroke-width:3.0;" d="M 685.997, 17.18 L 671.284, 25.1311 L 671.29, 13.7163 L 681.907, 9.42935 z "/>
<path style="fill:rgb(110, 12, 249);fill-opacity:1.0;fill-rule:evenodd;stroke:rgb(0, 0, 0);stroke-width:3.0;" d="M 773.024, 509.964 L 773.153, 512.109 L 756.147, 516.867 L 759.307, 508.057 L 767.586, 505.491 z "/>
<path style="fill:rgb(240, 25, 7);fill-opacity:1.0;fill-rule:evenodd;stroke:rgb(0, 0, 0);stroke-width:3.0;" d="M 756.147, 516.867 L 735.435, 522.663 L 739.747, 514.732 L 740.527, 513.877 L 759.307, 508.057 z "/>
<path style="fill:rgb(223, 3, 237);fill-opacity:1.0;fill-rule:evenodd;stroke:rgb(0, 0, 0);stroke-width:3.0;" d="M 31.6215, 85.8114 L 28.6041, 96.612 L 13.4566, 94.3361 L 17.7016, 70.5228 L 24.0302, 66.8577 z "/>
<path style="fill:rgb(255, 249, 37);fill-opacity:1.0;fill-rule:evenodd;stroke:rgb(0, 0, 0);stroke-width:3.0;" d="M 693.993, 506.903 L 691.68, 512.762 L 685.047, 502.998 L 683.43, 486.498 z "/>
<path style="fill:rgb(117, 85, 255);fill-opacity:1.0;fill-rule:evenodd;stroke:rgb(0, 0, 0);stroke-width:3.0;" d="M 745.462, 79.0957 L 707.436, 82.3672 L 706.179, 81.3402 L 758.815, 61.5793 z "/>
<path style="fill:rgb(12, 52, 163);fill-opacity:1.0;fill-rule:evenodd;stroke:rgb(0, 0, 0);stroke-width:3.0;" d="M 24.7293, 129.851 L 24.3074, 153.171 L 15.3221, 147.105 L 15.8599, 136.384 L 20.2119, 127.038 z "/>
<path style="fill:rgb(255, 212, 27);fill-opacity:1.0;fill-rule:evenodd;stroke:rgb(0, 0, 0);stroke-width:3.0;" d="M 98.3402, 63.5556 L 81.8196, 71.1827 L 80.3541, 63.6705 L 85.3621, 49.45 z "/>
<path style="fill:rgb(204, 121, 255);fill-opacity:1.0;fill-rule:evenodd;stroke:rgb(0, 0, 0);stroke-width:3.0;" d="M 708.718, 352.484 L 704.346, 369.901 L 702.153, 370.79 L 701.116, 354.954 L 703.654, 346.827 z "/>
<path style="fill:rgb(255, 1, 252);fill-opacity:1.0;fill-rule:evenodd;stroke:rgb(0, 0, 0);stroke-width:3.0;" d="M 753.98, 201.664 L 755.043, 217.897 L 754.28, 218.496 L 743.226, 214.995 L 746.876, 200.453 z "/>
<path style="fill:rgb(255, 1, 252);fill-opacity:1.0;fill-rule:evenodd;stroke:rgb(0, 0, 0);stroke-width:3.0;" d="M 786.495, 566.123 L 766.998, 576.732 L 759.731, 571.127 L 763.013, 565.246 z "/>
<path style="fill:rgb(70, 215, 165);fill-opacity:1.0;fill-rule:evenodd;stroke:rgb(0, 0, 0);stroke-width:3.0;" d="M 746.802, 488.846 L 748.999, 495.434 L 732.377, 502.527 L 727.443, 494.58 L 739.199, 487.424 z "/>
<path style="fill:rgb(237, 249, 35);fill-opacity:1.0;fill-rule:evenodd;stroke:rgb(0, 0, 0);stroke-width:3.0;" d="M 698.194, 364.313 L 696.959, 368.27 L 688.742, 378.388 L 686.429, 374.921 L 693.028, 356.131 z "/>
<path style="fill:rgb(246, 40, 15);fill-opacity:1.0;fill-rule:evenodd;stroke:rgb(0, 0, 0);stroke-width:3.0;" d="M 31.303, 97.0175 L 28.2634, 107.805 L 25.9839, 111.831 L 13.4508, 102.171 L 23.0398, 95.776 z "/>
<path style="fill:rgb(246, 40, 15);fill-opacity:1.0;fill-rule:evenodd;stroke:rgb(0, 0, 0);stroke-width:3.0;" d="M 759.093, 107.433 L 748.328, 101.614 L 745.579, 89.7013 L 768.239, 77.0702 z "/>
<path style="fill:rgb(246, 40, 15);fill-opacity:1.0;fill-rule:evenodd;stroke:rgb(0, 0, 0);stroke-width:3.0;" d="M 37.2338, 65.7229 L 34.264, 76.3531 L 28.0892, 76.9919 L 24.0302, 66.8577 L 34.1149, 61.0173 z "/>
<path style="fill:rgb(255, 54, 92);fill-opacity:1.0;fill-rule:evenodd;stroke:rgb(0, 0, 0);stroke-width:3.0;" d="M 776.538, 562.608 L 745.336, 553.145 L 737.66, 532.99 L 777.532, 530.799 z "/>
<path style="fill:rgb(255, 54, 92);fill-opacity:1.0;fill-rule:evenodd;stroke:rgb(0, 0, 0);stroke-width:3.0;" d="M 786.715, 530.295 L 769.018, 531.267 L 763.541, 526.282 L 777.592, 522.52 z "/>
<path style="fill:rgb(255, 24, 194);fill-opacity:1.0;fill-rule:evenodd;stroke:rgb(0, 0, 0);stroke-width:3.0;" d="M 782.444, 113.146 L 776.741, 106.675 L 788.403, 85.6416 L 792.113, 84.7902 z "/>
<path style="fill:rgb(255, 24, 194);fill-opacity:1.0;fill-rule:evenodd;stroke:rgb(0, 0, 0);stroke-width:3.0;" d="M 709.789, 465.141 L 700.716, 463.427 L 700.353, 453.997 L 708.193, 449.902 z "/>
<path style="fill:rgb(255, 255, 8);fill-opacity:1.0;fill-rule:evenodd;stroke:rgb(0, 0, 0);stroke-width:3.0;" d="M 79.2075, 42.7607 L 70.7751, 65.5675 L 66.0513, 70.0515 L 64.931, 68.8337 L 63.6549, 45.2906 L 70.466, 33.2599 z "/>
<path style="fill:rgb(231, 202, 8);fill-opacity:1.0;fill-rule:evenodd;stroke:rgb(0, 0, 0);stroke-width:3.0;" d="M 783.298, 115.343 L 786.242, 119.976 L 774.143, 126.087 L 770.118, 118.621 L 773.021, 113.385 z "/>
<path style="fill:rgb(240, 3, 33);fill-opacity:1.0;fill-rule:evenodd;stroke:rgb(0, 0, 0);stroke-width:3.0;" d="M 765.45, 376.791 L 766.48, 392.522 L 765.69, 392.192 L 755.847, 375.962 L 757.856, 370.411 z "/>
<path style="fill:rgb(240, 3, 33);fill-opacity:1.0;fill-rule:evenodd;stroke:rgb(0, 0, 0);stroke-width:3.0;" d="M 105.588, 34.5121 L 94.5192, 30.2634 L 110.359, 17.6184 z "/>
<path style="fill:rgb(255, 124, 18);fill-opacity:1.0;fill-rule:evenodd;stroke:rgb(0, 0, 0);stroke-width:3.0;" d="M 638.816, 533.356 L 641.229, 539.128 L 639.195, 542.287 L 627.204, 547.404 L 635.313, 529.889 z "/>
<path style="fill:rgb(255, 124, 18);fill-opacity:1.0;fill-rule:evenodd;stroke:rgb(0, 0, 0);stroke-width:3.0;" d="M 792.343, 167.991 L 780.756, 173.66 L 776.534, 173.071 L 778.78, 144.97 z "/>
<path style="fill:rgb(237, 117, 7);fill-opacity:1.0;fill-rule:evenodd;stroke:rgb(0, 0, 0);stroke-width:3.0;" d="M 760.709, 304.402 L 765.45, 376.791 L 746.898, 361.205 L 723.97, 323.397 L 757.943, 299.281 z "/>
<path style="fill:rgb(16, 9, 249);fill-opacity:1.0;fill-rule:evenodd;stroke:rgb(0, 0, 0);stroke-width:3.0;" d="M 713.602, 436.899 L 715.234, 446.223 L 707.098, 450.474 L 697.35, 439.41 L 712.359, 435.503 z "/>
<path style="fill:rgb(255, 25, 197);fill-opacity:1.0;fill-rule:evenodd;stroke:rgb(0, 0, 0);stroke-width:3.0;" d="M 79.8894, 43.5019 L 70.466, 33.2599 L 74.159, 26.7368 L 77.2457, 24.4258 L 104.34, 15.7021 z "/>
<path style="fill:rgb(240, 142, 255);fill-opacity:1.0;fill-rule:evenodd;stroke:rgb(0, 0, 0);stroke-width:3.0;" d="M 20.7816, 53.244 L 13.6175, 59.2526 L 13.2137, 59.2976 L 11.9458, 59.1592 L 11.0936, 52.4349 L 15.6877, 42.5618 L 22.7175, 42.3839 z "/>
<path style="fill:rgb(240, 42, 31);fill-opacity:1.0;fill-rule:evenodd;stroke:rgb(0, 0, 0);stroke-width:3.0;" d="M 90.1421, 39.2061 L 96.8446, 61.9301 L 79.8894, 43.5019 L 84.2662, 38.5255 z "/>
<path style="fill:rgb(240, 42, 31);fill-opacity:1.0;fill-rule:evenodd;stroke:rgb(0, 0, 0);stroke-width:3.0;" d="M 786.057, 495.029 L 774.064, 510.819 L 759.536, 498.87 L 785.797, 493.991 z "/>
<path style="fill:rgb(255, 184, 6);fill-opacity:1.0;fill-rule:evenodd;stroke:rgb(0, 0, 0);stroke-width:3.0;" d="M 785.797, 493.991 L 759.536, 498.87 L 753.187, 493.647 L 782.572, 481.109 z "/>
<path style="fill:rgb(50, 89, 255);fill-opacity:1.0;fill-rule:evenodd;stroke:rgb(0, 0, 0);stroke-width:3.0;" d="M 789.735, 421.549 L 768.981, 430.707 L 767.97, 415.276 L 787.516, 414.356 z "/>
<path style="fill:rgb(255, 64, 22);fill-opacity:1.0;fill-rule:evenodd;stroke:rgb(0, 0, 0);stroke-width:3.0;" d="M 752.156, 503.186 L 751.529, 510.467 L 738.752, 514.427 L 731.042, 505.656 L 751.514, 501.658 z "/>
<path style="fill:rgb(255, 64, 22);fill-opacity:1.0;fill-rule:evenodd;stroke:rgb(0, 0, 0);stroke-width:3.0;" d="M 696.551, 548.186 L 701.01, 553.784 L 700.645, 562.14 L 693.588, 567.469 L 683.887, 547.901 L 684.376, 543.325 z "/>
<path style="fill:rgb(249, 78, 18);fill-opacity:1.0;fill-rule:evenodd;stroke:rgb(0, 0, 0);stroke-width:3.0;" d="M 104.954, 36.7575 L 97.6103, 62.7622 L 96.8446, 61.9301 L 88.8414, 34.7962 L 93.8038, 30.8346 z "/>
<path style="fill:rgb(255, 2, 66);fill-opacity:1.0;fill-rule:evenodd;stroke:rgb(0, 0, 0);stroke-width:3.0;" d="M 67.5593, 113.919 L 37.5953, 122.044 L 50.8214, 108.348 L 65.6166, 107.27 z "/>
<path style="fill:rgb(255, 199, 9);fill-opacity:1.0;fill-rule:evenodd;stroke:rgb(0, 0, 0);stroke-width:3.0;" d="M 37.5953, 122.044 L 19.8986, 126.843 L 18.7961, 126.156 L 43.4323, 108.886 L 50.8214, 108.348 z "/>
<path style="fill:rgb(255, 10, 11);fill-opacity:1.0;fill-rule:evenodd;stroke:rgb(0, 0, 0);stroke-width:3.0;" d="M 791.882, 106.136 L 794.856, 117.545 L 784.6, 115.591 L 782.444, 113.146 L 785.703, 103.588 z "/>
<path style="fill:rgb(252, 249, 62);fill-opacity:1.0;fill-rule:evenodd;stroke:rgb(0, 0, 0);stroke-width:3.0;" d="M 698.196, 419.595 L 701.948, 423.808 L 698.592, 439.087 L 697.35, 439.41 L 688.105, 428.919 L 691.305, 417.55 z "/>
<path style="fill:rgb(255, 220, 19);fill-opacity:1.0;fill-rule:evenodd;stroke:rgb(0, 0, 0);stroke-width:3.0;" d="M 675.121, 550.335 L 670.633, 566.834 L 659.627, 545.704 L 659.005, 542.177 z "/>
<path style="fill:rgb(7, 55, 240);fill-opacity:1.0;fill-rule:evenodd;stroke:rgb(0, 0, 0);stroke-width:3.0;" d="M 714.35, 510.219 L 700.289, 516.219 L 698.34, 505.714 L 712.791, 498.062 z "/>
<path style="fill:rgb(255, 179, 10);fill-opacity:1.0;fill-rule:evenodd;stroke:rgb(0, 0, 0);stroke-width:3.0;" d="M 753.445, 387.081 L 712.498, 400.176 L 714.846, 394.149 L 719.396, 387.197 L 747.711, 384.687 z "/>
<path style="fill:rgb(192, 240, 42);fill-opacity:1.0;fill-rule:evenodd;stroke:rgb(0, 0, 0);stroke-width:3.0;" d="M 747.711, 384.687 L 719.396, 387.197 L 726.762, 375.942 z "/>
<path style="fill:rgb(255, 35, 11);fill-opacity:1.0;fill-rule:evenodd;stroke:rgb(0, 0, 0);stroke-width:3.0;" d="M 789.925, 542.786 L 778.848, 563.309 L 776.538, 562.608 L 777.35, 536.64 z "/>
<path style="fill:rgb(255, 21, 187);fill-opacity:1.0;fill-rule:evenodd;stroke:rgb(0, 0, 0);stroke-width:3.0;" d="M 79.6754, 95.1693 L 75.4796, 106.552 L 60.3088, 107.657 L 55.7484, 100.253 L 64.9356, 93.8125 z "/>
<path style="fill:rgb(89, 0, 204);fill-opacity:1.0;fill-rule:evenodd;stroke:rgb(0, 0, 0);stroke-width:3.0;" d="M 778.366, 407.367 L 767.832, 413.171 L 766.377, 390.955 L 771.978, 373.511 z "/>
<path style="fill:rgb(67, 255, 217);fill-opacity:1.0;fill-rule:evenodd;stroke:rgb(0, 0, 0);stroke-width:3.0;" d="M 787.302, 565.873 L 785.029, 577.872 L 760.984, 584.512 L 757.857, 581.706 L 787.079, 565.805 z "/>
<path style="fill:rgb(194, 237, 95);fill-opacity:1.0;fill-rule:evenodd;stroke:rgb(0, 0, 0);stroke-width:3.0;" d="M 672.299, 486.114 L 685.124, 504.987 L 678.746, 508.835 L 659.179, 496.231 L 659.633, 491.074 L 668.893, 485.801 z "/>
</svg>