<?xml version="1.0" encoding="iso-8859-1" standalone="no"?>
<!DOCTYPE svg PUBLIC "-//W3C//DTD SVG 1.0//EN" "http://www.w3.org/TR/2001/REC-SVG-20010904/DTD/svg10.dtd">
<svg xmlns="http://www.w3.org/2000/svg" width="800" height="600">
<path style="fill:rgb(0, 0, 0);fill-opacity:0.0;fill-rule:evenodd;stroke:rgb(0, 0, 0);stroke-width:0.0;" d="M 0, 600 L 800, 600 L 800, 0 L 0, 0 z "/>
<path style="fill:rgb(175, 161, 161);fill-opacity:1.0;fill-rule:evenodd;stroke:rgb(0, 0, 0);stroke-width:3.0;" d="M 363.174, 482.687 L 276.451, 543.66 L 261.749, 542.905 L 323.517, 462.858 z "/>
<path style="fill:rgb(175, 161, 161);fill-opacity:1.0;fill-rule:evenodd;stroke:rgb(0, 0, 0);stroke-width:3.0;" d="M 732.05, 151.411 L 720.995, 173.487 L 708.661, 161.344 L 731.714, 151.35 z "/>
<path style="fill:rgb(175, 161, 161);fill-opacity:1.0;fill-rule:evenodd;stroke:rgb(0, 0, 0);stroke-width:3.0;" d="M 598.711, 221.304 L 601.713, 248.097 L 590.307, 236.934 L 590.951, 218.616 z "/>
<path style="fill:rgb(223, 202, 67);fill-opacity:1.0;fill-rule:evenodd;stroke:rgb(0, 0, 0);stroke-width:3.0;" d="M 298.215, 283.535 L 182.812, 246.731 L 184.788, 208.692 L 249.641, 196.536 z "/>
<path style="fill:rgb(226, 46, 9);fill-opacity:1.0;fill-rule:evenodd;stroke:rgb(0, 0, 0);stroke-width:3.0;" d="M 722.009, 513.497 L 708.477, 531.711 L 701.09, 528.681 L 664.181, 345.276 z "/>
<path style="fill:rgb(226, 46, 9);fill-opacity:1.0;fill-rule:evenodd;stroke:rgb(0, 0, 0);stroke-width:3.0;" d="M 123.569, 405.439 L 122.456, 406.273 L 108.4, 405.499 L 110.126, 390.558 L 117.822, 388.928 z "/>
<path style="fill:rgb(226, 46, 9);fill-opacity:1.0;fill-rule:evenodd;stroke:rgb(0, 0, 0);stroke-width:3.0;" d="M 513.109, 32.1828 L 523.142, 50.1139 L 500.942, 37.4744 L 500.675, 35.2617 L 506.435, 31.1031 z "/>
<path style="fill:rgb(226, 46, 9);fill-opacity:1.0;fill-rule:evenodd;stroke:rgb(0, 0, 0);stroke-width:3.0;" d="M 522.682, 33.7313 L 526.039, 48.4558 L 525.327, 51.3579 L 523.142, 50.1139 L 513.109, 32.1828 z "/>
<path style="fill:rgb(226, 46, 9);fill-opacity:1.0;fill-rule:evenodd;stroke:rgb(0, 0, 0);stroke-width:3.0;" d="M 353.47, 63.0179 L 356.509, 68.9355 L 342.994, 88.699 L 340.921, 89.8973 L 339.752, 88.0755 L 349.033, 59.2601 z "/>
<path style="fill:rgb(226, 46, 9);fill-opacity:1.0;fill-rule:evenodd;stroke:rgb(0, 0, 0);stroke-width:3.0;" d="M 440.78, 521.491 L 450.367, 542.759 L 416.895, 536.353 L 381.975, 492.088 z "/>
<path style="fill:rgb(226, 46, 9);fill-opacity:1.0;fill-rule:evenodd;stroke:rgb(0, 0, 0);stroke-width:3.0;" d="M 625.296, 197.484 L 607.205, 200.254 L 602.311, 185.761 L 679.927, 173.8 z "/>
<path style="fill:rgb(177, 1, 231);fill-opacity:1.0;fill-rule:evenodd;stroke:rgb(0, 0, 0);stroke-width:3.0;" d="M 424.289, 124.666 L 400.521, 129.733 L 395.042, 121.288 L 427.222, 109.15 z "/>
<path style="fill:rgb(177, 1, 231);fill-opacity:1.0;fill-rule:evenodd;stroke:rgb(0, 0, 0);stroke-width:3.0;" d="M 716.586, 360.519 L 701.959, 455.172 L 662.483, 340.337 L 665.482, 310.505 z "/>
<path style="fill:rgb(234, 128, 217);fill-opacity:1.0;fill-rule:evenodd;stroke:rgb(0, 0, 0);stroke-width:3.0;" d="M 559.146, 139.953 L 579.337, 181.647 L 554.877, 174.931 L 548.229, 145.777 L 556.77, 136.792 z "/>
<path style="fill:rgb(234, 128, 217);fill-opacity:1.0;fill-rule:evenodd;stroke:rgb(0, 0, 0);stroke-width:3.0;" d="M 670.8, 250.313 L 672.579, 317.451 L 634.044, 279.738 L 624.3, 250.881 L 627.573, 248.804 z "/>
<path style="fill:rgb(234, 128, 217);fill-opacity:1.0;fill-rule:evenodd;stroke:rgb(0, 0, 0);stroke-width:3.0;" d="M 372.179, 93.0461 L 349.872, 98.8369 L 369.771, 85.7496 L 387.312, 79.9897 z "/>
<path style="fill:rgb(255, 45, 18);fill-opacity:1.0;fill-rule:evenodd;stroke:rgb(0, 0, 0);stroke-width:3.0;" d="M 176.558, 292.616 L 116.493, 335.448 L 116.915, 331.794 L 146.816, 291.395 z "/>
<path style="fill:rgb(255, 45, 18);fill-opacity:1.0;fill-rule:evenodd;stroke:rgb(0, 0, 0);stroke-width:3.0;" d="M 274.553, 295.085 L 319.545, 384.791 L 311.368, 389.56 L 185.216, 313.274 L 232.111, 286.825 z "/>
<path style="fill:rgb(255, 45, 18);fill-opacity:1.0;fill-rule:evenodd;stroke:rgb(0, 0, 0);stroke-width:3.0;" d="M 79.4856, 49.4287 L 68.1219, 44.4969 L 57.8487, 29.3277 L 89.6765, 19.3733 z "/>
<path style="fill:rgb(255, 45, 18);fill-opacity:1.0;fill-rule:evenodd;stroke:rgb(0, 0, 0);stroke-width:3.0;" d="M 387.312, 79.9897 L 369.771, 85.7496 L 398.912, 66.5847 L 406.823, 63.1572 z "/>
<path style="fill:rgb(112, 209, 217);fill-opacity:1.0;fill-rule:evenodd;stroke:rgb(0, 0, 0);stroke-width:3.0;" d="M 670.871, 85.6674 L 669.99, 91.8459 L 651.723, 111.322 L 562.807, 82.2857 z "/>
<path style="fill:rgb(112, 209, 217);fill-opacity:1.0;fill-rule:evenodd;stroke:rgb(0, 0, 0);stroke-width:3.0;" d="M 605.328, 251.634 L 584.483, 274.614 L 593.37, 239.931 z "/>
<path style="fill:rgb(112, 209, 217);fill-opacity:1.0;fill-rule:evenodd;stroke:rgb(0, 0, 0);stroke-width:3.0;" d="M 539.387, 106.997 L 543.541, 125.213 L 533.582, 139.9 L 531.305, 111.164 L 534.059, 104.257 z "/>
<path style="fill:rgb(11, 255, 65);fill-opacity:1.0;fill-rule:evenodd;stroke:rgb(0, 0, 0);stroke-width:3.0;" d="M 709.359, 137.769 L 690.566, 140.891 L 689.508, 139.071 L 717.532, 121.965 z "/>
<path style="fill:rgb(11, 255, 65);fill-opacity:1.0;fill-rule:evenodd;stroke:rgb(0, 0, 0);stroke-width:3.0;" d="M 776.045, 100.883 L 784.569, 119.831 L 749.086, 118.319 L 744.597, 107.936 L 767.309, 96.6164 z "/>
<path style="fill:rgb(11, 255, 65);fill-opacity:1.0;fill-rule:evenodd;stroke:rgb(0, 0, 0);stroke-width:3.0;" d="M 729.209, 181.575 L 625.296, 197.484 L 708.661, 161.344 z "/>
<path style="fill:rgb(11, 255, 65);fill-opacity:1.0;fill-rule:evenodd;stroke:rgb(0, 0, 0);stroke-width:3.0;" d="M 512.168, 43.8656 L 494.848, 52.8476 L 489.689, 52.4223 L 490.549, 44.0918 L 500.304, 37.1108 z "/>
<path style="fill:rgb(11, 255, 65);fill-opacity:1.0;fill-rule:evenodd;stroke:rgb(0, 0, 0);stroke-width:3.0;" d="M 617.783, 450.822 L 351.235, 322.842 L 325.915, 266.671 L 565.438, 221.248 z "/>
<path style="fill:rgb(252, 64, 189);fill-opacity:1.0;fill-rule:evenodd;stroke:rgb(0, 0, 0);stroke-width:3.0;" d="M 665.099, 314.316 L 664.991, 315.391 L 628.883, 322.091 L 582.654, 296.754 L 581.174, 290.264 z "/>
<path style="fill:rgb(252, 64, 189);fill-opacity:1.0;fill-rule:evenodd;stroke:rgb(0, 0, 0);stroke-width:3.0;" d="M 687.837, 7.68981 L 637.889, 34.5004 L 621.272, 5.53846 z "/>
<path style="fill:rgb(252, 64, 189);fill-opacity:1.0;fill-rule:evenodd;stroke:rgb(0, 0, 0);stroke-width:3.0;" d="M 565.438, 221.248 L 325.915, 266.671 L 290.821, 188.818 L 547.091, 140.784 z "/>
<path style="fill:rgb(255, 17, 23);fill-opacity:1.0;fill-rule:evenodd;stroke:rgb(0, 0, 0);stroke-width:3.0;" d="M 407.622, 25.5077 L 341.03, 55.0267 L 340.186, 49.4344 L 388.131, 28.8433 L 406.764, 25.167 z "/>
<path style="fill:rgb(255, 17, 23);fill-opacity:1.0;fill-rule:evenodd;stroke:rgb(0, 0, 0);stroke-width:3.0;" d="M 588.241, 303.666 L 594.323, 332.062 L 592.338, 339.227 L 583.037, 298.432 z "/>
<path style="fill:rgb(255, 17, 23);fill-opacity:1.0;fill-rule:evenodd;stroke:rgb(0, 0, 0);stroke-width:3.0;" d="M 622.639, 449.151 L 630.23, 466.861 L 622.984, 473.631 L 617.396, 449.123 z "/>
<path style="fill:rgb(255, 17, 23);fill-opacity:1.0;fill-rule:evenodd;stroke:rgb(0, 0, 0);stroke-width:3.0;" d="M 311.368, 389.56 L 171.147, 471.338 L 179.179, 316.678 L 185.216, 313.274 z "/>
<path style="fill:rgb(255, 17, 23);fill-opacity:1.0;fill-rule:evenodd;stroke:rgb(0, 0, 0);stroke-width:3.0;" d="M 760.153, 65.559 L 661.858, 100.517 L 738.918, 18.3562 z "/>
<path style="fill:rgb(255, 17, 23);fill-opacity:1.0;fill-rule:evenodd;stroke:rgb(0, 0, 0);stroke-width:3.0;" d="M 772.991, 156.527 L 770.144, 158.334 L 704.861, 146.469 L 706.342, 143.605 z "/>
<path style="fill:rgb(255, 17, 23);fill-opacity:1.0;fill-rule:evenodd;stroke:rgb(0, 0, 0);stroke-width:3.0;" d="M 618.762, 234.479 L 611.036, 251.589 L 599.847, 221.585 L 613.996, 220.365 z "/>
<path style="fill:rgb(255, 17, 23);fill-opacity:1.0;fill-rule:evenodd;stroke:rgb(0, 0, 0);stroke-width:3.0;" d="M 654.439, 420.361 L 653.411, 430.578 L 641.952, 420.936 L 639.187, 405.232 z "/>
<path style="fill:rgb(255, 17, 23);fill-opacity:1.0;fill-rule:evenodd;stroke:rgb(0, 0, 0);stroke-width:3.0;" d="M 593.37, 239.931 L 590.973, 249.284 L 587.497, 249.952 L 578.369, 241.897 L 588.801, 235.46 z "/>
<path style="fill:rgb(255, 17, 23);fill-opacity:1.0;fill-rule:evenodd;stroke:rgb(0, 0, 0);stroke-width:3.0;" d="M 588.801, 235.46 L 578.369, 241.897 L 576.246, 240.024 L 573.882, 220.859 z "/>
<path style="fill:rgb(255, 17, 23);fill-opacity:1.0;fill-rule:evenodd;stroke:rgb(0, 0, 0);stroke-width:3.0;" d="M 558.039, 109.02 L 540.751, 112.979 L 537.092, 96.9297 L 550.421, 89.1477 z "/>
<path style="fill:rgb(255, 17, 23);fill-opacity:1.0;fill-rule:evenodd;stroke:rgb(0, 0, 0);stroke-width:3.0;" d="M 349.736, 105.702 L 349.55, 112.568 L 340.556, 120.328 L 340.103, 119.899 L 335.54, 103.704 z "/>
<path style="fill:rgb(255, 17, 23);fill-opacity:1.0;fill-rule:evenodd;stroke:rgb(0, 0, 0);stroke-width:3.0;" d="M 333.656, 107.001 L 326.576, 122.155 L 313.212, 112.967 L 324.457, 98.6184 L 337.569, 94.8517 z "/>
<path style="fill:rgb(255, 17, 23);fill-opacity:1.0;fill-rule:evenodd;stroke:rgb(0, 0, 0);stroke-width:3.0;" d="M 330.607, 130.577 L 310.593, 124.034 L 299.74, 116.627 L 306.516, 114.904 z "/>
<path style="fill:rgb(255, 17, 23);fill-opacity:1.0;fill-rule:evenodd;stroke:rgb(0, 0, 0);stroke-width:3.0;" d="M 657.357, 337.696 L 648.998, 348.319 L 643.451, 345.38 L 643.799, 332.435 L 645.259, 331.066 z "/>
<path style="fill:rgb(255, 17, 23);fill-opacity:1.0;fill-rule:evenodd;stroke:rgb(0, 0, 0);stroke-width:3.0;" d="M 400.521, 129.733 L 376.401, 134.875 L 383.139, 125.777 L 395.042, 121.288 z "/>
<path style="fill:rgb(255, 17, 23);fill-opacity:1.0;fill-rule:evenodd;stroke:rgb(0, 0, 0);stroke-width:3.0;" d="M 57.7785, 22.4795 L 49.9916, 33.8695 L 28.4872, 25.0878 L 27.2696, 21.7261 z "/>
<path style="fill:rgb(255, 17, 23);fill-opacity:1.0;fill-rule:evenodd;stroke:rgb(0, 0, 0);stroke-width:3.0;" d="M 680.222, 520.12 L 670.71, 523.648 L 658.442, 515.122 L 658.264, 511.112 z "/>
<path style="fill:rgb(255, 17, 23);fill-opacity:1.0;fill-rule:evenodd;stroke:rgb(0, 0, 0);stroke-width:3.0;" d="M 157.689, 334.408 L 177.202, 354.761 L 176.567, 366.974 L 121.223, 335.221 L 140.907, 331.892 z "/>
<path style="fill:rgb(255, 17, 23);fill-opacity:1.0;fill-rule:evenodd;stroke:rgb(0, 0, 0);stroke-width:3.0;" d="M 660.918, 355.903 L 659.588, 369.135 L 608.255, 392.581 L 603.613, 388.675 L 598.586, 366.626 L 652.301, 353.836 z "/>
<path style="fill:rgb(255, 249, 19);fill-opacity:1.0;fill-rule:evenodd;stroke:rgb(0, 0, 0);stroke-width:3.0;" d="M 684.311, 76.5771 L 669.99, 91.8459 L 672.3, 75.6421 L 685.61, 63.7486 z "/>
<path style="fill:rgb(255, 249, 19);fill-opacity:1.0;fill-rule:evenodd;stroke:rgb(0, 0, 0);stroke-width:3.0;" d="M 362.641, 90.4391 L 347.881, 88.6937 L 398.912, 66.5847 z "/>
<path style="fill:rgb(192, 3, 35);fill-opacity:1.0;fill-rule:evenodd;stroke:rgb(0, 0, 0);stroke-width:3.0;" d="M 573.882, 220.859 L 577.703, 251.836 L 572.634, 252.811 L 564.425, 216.808 L 567.98, 215.084 z "/>
<path style="fill:rgb(192, 3, 35);fill-opacity:1.0;fill-rule:evenodd;stroke:rgb(0, 0, 0);stroke-width:3.0;" d="M 376.401, 134.875 L 352.488, 139.973 L 350.014, 138.272 L 383.139, 125.777 z "/>
<path style="fill:rgb(192, 3, 35);fill-opacity:1.0;fill-rule:evenodd;stroke:rgb(0, 0, 0);stroke-width:3.0;" d="M 773.604, 156.138 L 772.991, 156.527 L 706.342, 143.605 L 715.024, 126.814 z "/>
<path style="fill:rgb(192, 3, 35);fill-opacity:1.0;fill-rule:evenodd;stroke:rgb(0, 0, 0);stroke-width:3.0;" d="M 234.52, 139.241 L 232.318, 154.224 L 191.394, 152.607 L 194.885, 122.63 z "/>
<path style="fill:rgb(192, 3, 35);fill-opacity:1.0;fill-rule:evenodd;stroke:rgb(0, 0, 0);stroke-width:3.0;" d="M 440.559, 38.5882 L 427.222, 109.15 L 350.014, 138.272 L 333.177, 126.694 L 436.958, 37.1582 z "/>
<path style="fill:rgb(243, 142, 217);fill-opacity:1.0;fill-rule:evenodd;stroke:rgb(0, 0, 0);stroke-width:3.0;" d="M 784.569, 119.831 L 794.84, 142.662 L 773.604, 156.138 L 715.024, 126.814 L 717.907, 121.238 L 725.759, 117.325 z "/>
<path style="fill:rgb(243, 142, 217);fill-opacity:1.0;fill-rule:evenodd;stroke:rgb(0, 0, 0);stroke-width:3.0;" d="M 648.52, 479.234 L 636.68, 463.787 L 650.452, 460.019 z "/>
<path style="fill:rgb(78, 223, 255);fill-opacity:1.0;fill-rule:evenodd;stroke:rgb(0, 0, 0);stroke-width:3.0;" d="M 625.892, 339.698 L 617.434, 343.068 L 609.972, 327.815 L 617.407, 322.211 z "/>
<path style="fill:rgb(78, 223, 255);fill-opacity:1.0;fill-rule:evenodd;stroke:rgb(0, 0, 0);stroke-width:3.0;" d="M 356.823, 106.294 L 356.418, 106.643 L 335.54, 103.704 L 335.156, 102.342 L 338.763, 91.1443 L 340.072, 90.3877 z "/>
<path style="fill:rgb(67, 179, 217);fill-opacity:1.0;fill-rule:evenodd;stroke:rgb(0, 0, 0);stroke-width:3.0;" d="M 262.225, 272.057 L 264.069, 275.715 L 266.678, 288.597 L 261.467, 292.539 L 232.111, 286.825 L 259.716, 271.257 z "/>
<path style="fill:rgb(255, 179, 255);fill-opacity:1.0;fill-rule:evenodd;stroke:rgb(0, 0, 0);stroke-width:3.0;" d="M 222.667, 201.592 L 184.788, 208.692 L 185.664, 191.83 z "/>
<path style="fill:rgb(240, 252, 8);fill-opacity:1.0;fill-rule:evenodd;stroke:rgb(0, 0, 0);stroke-width:3.0;" d="M 323.197, 53.9679 L 285.061, 138.047 L 192.841, 53.6278 L 193.496, 41.0298 z "/>
<path style="fill:rgb(240, 252, 8);fill-opacity:1.0;fill-rule:evenodd;stroke:rgb(0, 0, 0);stroke-width:3.0;" d="M 609.879, 393.947 L 617.049, 426.04 L 614.676, 430.572 L 611.45, 423.045 L 603.613, 388.675 z "/>
<path style="fill:rgb(10, 9, 255);fill-opacity:1.0;fill-rule:evenodd;stroke:rgb(0, 0, 0);stroke-width:3.0;" d="M 507.968, 100.756 L 483.798, 111.108 L 451.98, 83.2276 L 490.27, 68.7577 z "/>
<path style="fill:rgb(10, 9, 255);fill-opacity:1.0;fill-rule:evenodd;stroke:rgb(0, 0, 0);stroke-width:3.0;" d="M 646.053, 503.777 L 644.376, 520.463 L 626.871, 490.677 L 624.106, 478.551 L 633.918, 475.466 z "/>
<path style="fill:rgb(61, 103, 255);fill-opacity:1.0;fill-rule:evenodd;stroke:rgb(0, 0, 0);stroke-width:3.0;" d="M 321.05, 290.818 L 340.388, 298.779 L 344.894, 308.774 L 275.028, 295.178 L 278.336, 277.195 z "/>
<path style="fill:rgb(255, 220, 48);fill-opacity:1.0;fill-rule:evenodd;stroke:rgb(0, 0, 0);stroke-width:3.0;" d="M 618.766, 345.793 L 592.393, 339.467 L 592.338, 339.227 L 600.731, 308.925 z "/>
<path style="fill:rgb(255, 220, 48);fill-opacity:1.0;fill-rule:evenodd;stroke:rgb(0, 0, 0);stroke-width:3.0;" d="M 610.359, 343.776 L 620.345, 356.497 L 598.245, 365.13 L 592.393, 339.467 z "/>
<path style="fill:rgb(255, 17, 54);fill-opacity:1.0;fill-rule:evenodd;stroke:rgb(0, 0, 0);stroke-width:3.0;" d="M 383.193, 15.8059 L 380.1, 27.6725 L 373.562, 25.4638 L 371.335, 11.097 z "/>
<path style="fill:rgb(255, 17, 54);fill-opacity:1.0;fill-rule:evenodd;stroke:rgb(0, 0, 0);stroke-width:3.0;" d="M 636.721, 350.099 L 620.345, 356.497 L 610.359, 343.776 z "/>
<path style="fill:rgb(255, 10, 255);fill-opacity:1.0;fill-rule:evenodd;stroke:rgb(0, 0, 0);stroke-width:3.0;" d="M 671.126, 83.8753 L 664.383, 85.4643 L 562.807, 82.2857 L 554.14, 79.4553 L 564.191, 74.0599 L 672.956, 71.0376 z "/>
<path style="fill:rgb(44, 255, 223);fill-opacity:1.0;fill-rule:evenodd;stroke:rgb(0, 0, 0);stroke-width:3.0;" d="M 419.35, 150.795 L 416.62, 165.239 L 395.099, 169.272 L 385.459, 162.644 L 388.272, 132.344 L 406.931, 128.367 z "/>
<path style="fill:rgb(255, 1, 124);fill-opacity:1.0;fill-rule:evenodd;stroke:rgb(0, 0, 0);stroke-width:3.0;" d="M 352.241, 44.2574 L 321.641, 57.3994 L 327.999, 43.3813 L 352.601, 40.6711 z "/>
<path style="fill:rgb(255, 1, 124);fill-opacity:1.0;fill-rule:evenodd;stroke:rgb(0, 0, 0);stroke-width:3.0;" d="M 456.379, 578.833 L 419.704, 590.787 L 419.456, 589.504 L 455.79, 572.601 z "/>
<path style="fill:rgb(240, 148, 7);fill-opacity:1.0;fill-rule:evenodd;stroke:rgb(0, 0, 0);stroke-width:3.0;" d="M 686.747, 143.177 L 681.939, 148.187 L 645.585, 150.272 L 632.077, 148.446 L 624.406, 140.447 L 631.297, 133.1 z "/>
<path style="fill:rgb(204, 0, 24);fill-opacity:1.0;fill-rule:evenodd;stroke:rgb(0, 0, 0);stroke-width:3.0;" d="M 351.322, 139.171 L 347.785, 160.529 L 327.532, 166.335 L 329.751, 141.435 L 345.109, 134.899 z "/>
<path style="fill:rgb(26, 115, 226);fill-opacity:1.0;fill-rule:evenodd;stroke:rgb(0, 0, 0);stroke-width:3.0;" d="M 321.157, 142.307 L 289.98, 127.202 L 294.549, 117.129 z "/>
<path style="fill:rgb(255, 237, 36);fill-opacity:1.0;fill-rule:evenodd;stroke:rgb(0, 0, 0);stroke-width:3.0;" d="M 784.945, 57.8261 L 784.675, 72.0541 L 770.289, 43.3318 L 770.666, 42.1918 z "/>
<path style="fill:rgb(255, 237, 36);fill-opacity:1.0;fill-rule:evenodd;stroke:rgb(0, 0, 0);stroke-width:3.0;" d="M 768.935, 557.006 L 695.13, 549.676 L 779.256, 436.444 z "/>
<path style="fill:rgb(255, 237, 36);fill-opacity:1.0;fill-rule:evenodd;stroke:rgb(0, 0, 0);stroke-width:3.0;" d="M 646.702, 424.933 L 617.028, 425.945 L 613.431, 409.848 L 628.723, 409.804 z "/>
<path style="fill:rgb(255, 165, 119);fill-opacity:1.0;fill-rule:evenodd;stroke:rgb(0, 0, 0);stroke-width:3.0;" d="M 246.812, 267.141 L 252.592, 270.422 L 245.295, 273.794 L 219.149, 258.319 z "/>
<path style="fill:rgb(255, 165, 119);fill-opacity:1.0;fill-rule:evenodd;stroke:rgb(0, 0, 0);stroke-width:3.0;" d="M 656.664, 177.385 L 602.311, 185.761 L 596.909, 169.764 L 613.175, 152.421 z "/>
<path style="fill:rgb(40, 154, 252);fill-opacity:1.0;fill-rule:evenodd;stroke:rgb(0, 0, 0);stroke-width:3.0;" d="M 731.714, 151.35 L 679.927, 173.8 L 656.664, 177.385 L 613.175, 152.421 L 613.464, 152.114 L 706.549, 146.776 z "/>
<path style="fill:rgb(207, 44, 14);fill-opacity:1.0;fill-rule:evenodd;stroke:rgb(0, 0, 0);stroke-width:3.0;" d="M 770.144, 158.334 L 734.889, 180.706 L 729.209, 181.575 L 720.995, 173.487 L 732.05, 151.411 z "/>
<path style="fill:rgb(207, 44, 14);fill-opacity:1.0;fill-rule:evenodd;stroke:rgb(0, 0, 0);stroke-width:3.0;" d="M 575.192, 161.302 L 588.384, 178.853 L 582.825, 184.78 L 580.888, 184.85 L 568.202, 158.653 z "/>
<path style="fill:rgb(255, 168, 237);fill-opacity:1.0;fill-rule:evenodd;stroke:rgb(0, 0, 0);stroke-width:3.0;" d="M 324.17, 143.767 L 281.564, 166.501 L 293.905, 134.701 L 299.705, 131.914 z "/>
<path style="fill:rgb(255, 168, 237);fill-opacity:1.0;fill-rule:evenodd;stroke:rgb(0, 0, 0);stroke-width:3.0;" d="M 192.699, 274.322 L 216.406, 284.873 L 208.98, 299.871 L 199.111, 305.437 L 184.89, 290.477 L 186.642, 273.465 z "/>
<path style="fill:rgb(17, 234, 255);fill-opacity:1.0;fill-rule:evenodd;stroke:rgb(0, 0, 0);stroke-width:3.0;" d="M 643.637, 564.209 L 641.098, 553.073 L 642.877, 535.368 L 651.148, 528.6 z "/>
<path style="fill:rgb(75, 75, 223);fill-opacity:1.0;fill-rule:evenodd;stroke:rgb(0, 0, 0);stroke-width:3.0;" d="M 680.177, 215.423 L 629.18, 247.784 L 637.443, 209.073 z "/>
<path style="fill:rgb(237, 2, 34);fill-opacity:1.0;fill-rule:evenodd;stroke:rgb(0, 0, 0);stroke-width:3.0;" d="M 660.499, 561.475 L 660.611, 564.004 L 649.33, 568.43 L 643.69, 563.957 L 648.331, 541.954 z "/>
<path style="fill:rgb(246, 23, 34);fill-opacity:1.0;fill-rule:evenodd;stroke:rgb(0, 0, 0);stroke-width:3.0;" d="M 636.724, 463.845 L 648.52, 479.234 L 647.153, 492.838 L 640.151, 490.007 L 627.576, 460.669 z "/>
<path style="fill:rgb(81, 246, 255);fill-opacity:1.0;fill-rule:evenodd;stroke:rgb(0, 0, 0);stroke-width:3.0;" d="M 344.659, 72.8413 L 330.75, 90.589 L 312.606, 77.3169 L 318.108, 65.1879 L 351.957, 50.1832 z "/>
<path style="fill:rgb(81, 246, 255);fill-opacity:1.0;fill-rule:evenodd;stroke:rgb(0, 0, 0);stroke-width:3.0;" d="M 743.089, 562.861 L 750.395, 581.5 L 726.07, 565.794 L 730.11, 562.606 z "/>
<path style="fill:rgb(81, 246, 255);fill-opacity:1.0;fill-rule:evenodd;stroke:rgb(0, 0, 0);stroke-width:3.0;" d="M 772.877, 93.8413 L 677.325, 141.465 L 631.297, 133.1 L 661.858, 100.517 L 760.153, 65.559 z "/>
<path style="fill:rgb(255, 249, 7);fill-opacity:1.0;fill-rule:evenodd;stroke:rgb(0, 0, 0);stroke-width:3.0;" d="M 381.975, 492.088 L 416.895, 536.353 L 314.669, 516.789 L 363.174, 482.687 z "/>
<path style="fill:rgb(255, 249, 7);fill-opacity:1.0;fill-rule:evenodd;stroke:rgb(0, 0, 0);stroke-width:3.0;" d="M 612.021, 106.081 L 587.419, 177.568 L 541.569, 116.568 L 540.751, 112.979 L 595.586, 100.423 z "/>
<path style="fill:rgb(234, 0, 24);fill-opacity:1.0;fill-rule:evenodd;stroke:rgb(0, 0, 0);stroke-width:3.0;" d="M 672.956, 71.0376 L 564.191, 74.0599 L 564.836, 73.7137 L 673.362, 68.1916 z "/>
<path style="fill:rgb(234, 0, 24);fill-opacity:1.0;fill-rule:evenodd;stroke:rgb(0, 0, 0);stroke-width:3.0;" d="M 413.993, 20.174 L 417.164, 29.2973 L 410.665, 26.716 L 399.544, 18.034 L 391.997, 10.0905 z "/>
<path style="fill:rgb(234, 0, 24);fill-opacity:1.0;fill-rule:evenodd;stroke:rgb(0, 0, 0);stroke-width:3.0;" d="M 116.915, 331.794 L 123.026, 278.901 L 166.551, 264.732 z "/>
<path style="fill:rgb(228, 255, 9);fill-opacity:1.0;fill-rule:evenodd;stroke:rgb(0, 0, 0);stroke-width:3.0;" d="M 785.271, 558.629 L 786.6, 563.716 L 686.165, 561.743 L 695.13, 549.676 z "/>
<path style="fill:rgb(255, 0, 13);fill-opacity:1.0;fill-rule:evenodd;stroke:rgb(0, 0, 0);stroke-width:3.0;" d="M 789.297, 122.234 L 786.313, 123.707 L 777.737, 104.645 L 780.732, 94.775 z "/>
<path style="fill:rgb(255, 220, 10);fill-opacity:1.0;fill-rule:evenodd;stroke:rgb(0, 0, 0);stroke-width:3.0;" d="M 427.221, 134.929 L 434.951, 161.803 L 427.747, 163.153 L 424.051, 133.025 z "/>
<path style="fill:rgb(255, 220, 10);fill-opacity:1.0;fill-rule:evenodd;stroke:rgb(0, 0, 0);stroke-width:3.0;" d="M 143.642, 348.084 L 172.596, 386.874 L 124.34, 407.651 L 112.185, 372.735 L 116.493, 335.448 L 118.778, 333.819 z "/>
<path style="fill:rgb(255, 43, 168);fill-opacity:1.0;fill-rule:evenodd;stroke:rgb(0, 0, 0);stroke-width:3.0;" d="M 785.533, 427.995 L 753.543, 471.053 L 714.121, 376.474 L 716.586, 360.519 z "/>
<path style="fill:rgb(29, 61, 237);fill-opacity:1.0;fill-rule:evenodd;stroke:rgb(0, 0, 0);stroke-width:3.0;" d="M 611.036, 251.589 L 609.272, 255.494 L 601.713, 248.097 L 598.753, 221.679 L 599.847, 221.585 z "/>
<path style="fill:rgb(29, 61, 237);fill-opacity:1.0;fill-rule:evenodd;stroke:rgb(0, 0, 0);stroke-width:3.0;" d="M 670.034, 556.565 L 673.213, 578.372 L 672.346, 580.343 L 661.957, 594.326 L 660.239, 555.616 z "/>
<path style="fill:rgb(29, 61, 237);fill-opacity:1.0;fill-rule:evenodd;stroke:rgb(0, 0, 0);stroke-width:3.0;" d="M 532.713, 19.9165 L 542.059, 32.5897 L 524.503, 41.721 L 516.965, 8.65766 z "/>
<path style="fill:rgb(29, 61, 237);fill-opacity:1.0;fill-rule:evenodd;stroke:rgb(0, 0, 0);stroke-width:3.0;" d="M 492.452, 23.3418 L 490.563, 29.2435 L 474.232, 15.1533 L 473.868, 10.5256 z "/>
<path style="fill:rgb(243, 94, 9);fill-opacity:1.0;fill-rule:evenodd;stroke:rgb(0, 0, 0);stroke-width:3.0;" d="M 688.454, 35.6728 L 685.61, 63.7486 L 672.3, 75.6421 L 680.184, 20.3255 z "/>
<path style="fill:rgb(24, 228, 255);fill-opacity:1.0;fill-rule:evenodd;stroke:rgb(0, 0, 0);stroke-width:3.0;" d="M 283.96, 178.825 L 273.312, 181.877 L 269.574, 172.899 L 282.694, 165.898 z "/>
<path style="fill:rgb(234, 192, 9);fill-opacity:1.0;fill-rule:evenodd;stroke:rgb(0, 0, 0);stroke-width:3.0;" d="M 692.938, 525.336 L 690.574, 534.767 L 660.436, 555.635 L 660.239, 555.616 L 659.888, 547.718 L 685.977, 522.481 z "/>
<path style="fill:rgb(234, 192, 9);fill-opacity:1.0;fill-rule:evenodd;stroke:rgb(0, 0, 0);stroke-width:3.0;" d="M 587.661, 262.21 L 586.305, 267.503 L 584.18, 267.976 L 579.75, 259.844 L 578.355, 251.711 L 584.773, 250.476 z "/>
<path style="fill:rgb(255, 252, 46);fill-opacity:1.0;fill-rule:evenodd;stroke:rgb(0, 0, 0);stroke-width:3.0;" d="M 336.965, 291.184 L 324.508, 291.921 L 298.215, 283.535 L 249.641, 196.536 L 290.821, 188.818 z "/>
<path style="fill:rgb(255, 252, 46);fill-opacity:1.0;fill-rule:evenodd;stroke:rgb(0, 0, 0);stroke-width:3.0;" d="M 160.759, 262.1 L 147.107, 266.321 L 127.696, 269.193 L 133.523, 248.953 L 153.58, 245.998 z "/>
<path style="fill:rgb(255, 252, 46);fill-opacity:1.0;fill-rule:evenodd;stroke:rgb(0, 0, 0);stroke-width:3.0;" d="M 450.367, 542.759 L 454.903, 552.822 L 276.451, 543.66 L 314.669, 516.789 z "/>
<path style="fill:rgb(255, 3, 6);fill-opacity:1.0;fill-rule:evenodd;stroke:rgb(0, 0, 0);stroke-width:3.0;" d="M 657.385, 391.047 L 655.32, 411.594 L 638.048, 398.759 L 635.366, 383.527 z "/>
<path style="fill:rgb(39, 12, 199);fill-opacity:1.0;fill-rule:evenodd;stroke:rgb(0, 0, 0);stroke-width:3.0;" d="M 354.911, 141.639 L 367.807, 154.789 L 355.595, 158.29 L 350.474, 144.289 L 351.322, 139.171 z "/>
<path style="fill:rgb(39, 12, 199);fill-opacity:1.0;fill-rule:evenodd;stroke:rgb(0, 0, 0);stroke-width:3.0;" d="M 179.251, 315.299 L 164.717, 312.95 L 177.555, 291.905 L 180.578, 289.749 z "/>
<path style="fill:rgb(60, 255, 209);fill-opacity:1.0;fill-rule:evenodd;stroke:rgb(0, 0, 0);stroke-width:3.0;" d="M 331.003, 125.199 L 315.482, 120.737 L 306.001, 114.569 L 308.192, 109.515 z "/>
<path style="fill:rgb(60, 255, 209);fill-opacity:1.0;fill-rule:evenodd;stroke:rgb(0, 0, 0);stroke-width:3.0;" d="M 176.567, 366.974 L 176.254, 373.012 L 169.432, 382.635 L 166.88, 379.216 L 168.017, 362.069 z "/>
<path style="fill:rgb(60, 255, 209);fill-opacity:1.0;fill-rule:evenodd;stroke:rgb(0, 0, 0);stroke-width:3.0;" d="M 670.8, 250.313 L 627.573, 248.804 L 670.045, 221.853 z "/>
<path style="fill:rgb(60, 255, 209);fill-opacity:1.0;fill-rule:evenodd;stroke:rgb(0, 0, 0);stroke-width:3.0;" d="M 417.237, 469.262 L 382.66, 449.416 L 400.039, 431.11 z "/>
<path style="fill:rgb(60, 255, 209);fill-opacity:1.0;fill-rule:evenodd;stroke:rgb(0, 0, 0);stroke-width:3.0;" d="M 642.574, 344.915 L 648.998, 348.319 L 645.869, 352.294 L 630.176, 348.53 L 625.945, 339.807 z "/>
<path style="fill:rgb(60, 255, 209);fill-opacity:1.0;fill-rule:evenodd;stroke:rgb(0, 0, 0);stroke-width:3.0;" d="M 406.823, 63.1572 L 366.033, 80.8295 L 388.123, 67.3288 L 411.225, 59.3593 z "/>
<path style="fill:rgb(255, 61, 10);fill-opacity:1.0;fill-rule:evenodd;stroke:rgb(0, 0, 0);stroke-width:3.0;" d="M 327.532, 166.335 L 289.994, 177.095 L 285.892, 164.192 L 329.811, 140.756 z "/>
<path style="fill:rgb(226, 144, 6);fill-opacity:1.0;fill-rule:evenodd;stroke:rgb(0, 0, 0);stroke-width:3.0;" d="M 385.459, 162.644 L 354.465, 141.332 L 387.861, 136.771 z "/>
<path style="fill:rgb(226, 144, 6);fill-opacity:1.0;fill-rule:evenodd;stroke:rgb(0, 0, 0);stroke-width:3.0;" d="M 371.335, 11.097 L 372.565, 19.0299 L 370.524, 21.5152 L 354.154, 17.7955 L 369.557, 10.3906 z "/>
<path style="fill:rgb(255, 112, 9);fill-opacity:1.0;fill-rule:evenodd;stroke:rgb(0, 0, 0);stroke-width:3.0;" d="M 161.162, 266.486 L 123.026, 278.901 L 123.642, 273.575 L 157.989, 262.956 z "/>
<path style="fill:rgb(255, 112, 9);fill-opacity:1.0;fill-rule:evenodd;stroke:rgb(0, 0, 0);stroke-width:3.0;" d="M 632.539, 232.049 L 629.18, 247.784 L 624.3, 250.881 L 615.013, 223.377 L 625.296, 210.366 z "/>
<path style="fill:rgb(255, 112, 9);fill-opacity:1.0;fill-rule:evenodd;stroke:rgb(0, 0, 0);stroke-width:3.0;" d="M 323.197, 53.9679 L 193.496, 41.0298 L 193.68, 37.4802 L 335.605, 26.6114 z "/>
<path style="fill:rgb(249, 121, 22);fill-opacity:1.0;fill-rule:evenodd;stroke:rgb(0, 0, 0);stroke-width:3.0;" d="M 178.158, 336.338 L 178.1, 337.467 L 146.238, 332.691 L 129.573, 326.121 L 142.115, 317.177 z "/>
<path style="fill:rgb(249, 121, 22);fill-opacity:1.0;fill-rule:evenodd;stroke:rgb(0, 0, 0);stroke-width:3.0;" d="M 649.548, 447.911 L 645.369, 457.424 L 624.033, 452.403 L 621.748, 447.071 L 619.671, 437.774 z "/>
<path style="fill:rgb(249, 121, 22);fill-opacity:1.0;fill-rule:evenodd;stroke:rgb(0, 0, 0);stroke-width:3.0;" d="M 628.948, 322.126 L 643.857, 330.297 L 643.451, 345.38 L 623.527, 334.825 L 617.064, 321.504 z "/>
<path style="fill:rgb(249, 121, 22);fill-opacity:1.0;fill-rule:evenodd;stroke:rgb(0, 0, 0);stroke-width:3.0;" d="M 79.4856, 49.4287 L 63.8731, 95.4737 L 43.9831, 34.0208 z "/>
<path style="fill:rgb(255, 184, 21);fill-opacity:1.0;fill-rule:evenodd;stroke:rgb(0, 0, 0);stroke-width:3.0;" d="M 448.463, 576.01 L 429.175, 584.983 L 407.108, 593.074 L 406.854, 584.702 L 440.951, 564.416 z "/>
<path style="fill:rgb(255, 144, 6);fill-opacity:1.0;fill-rule:evenodd;stroke:rgb(0, 0, 0);stroke-width:3.0;" d="M 644.226, 203.488 L 625.518, 198.26 L 625.048, 197.522 L 663.498, 191.635 z "/>
<path style="fill:rgb(255, 144, 6);fill-opacity:1.0;fill-rule:evenodd;stroke:rgb(0, 0, 0);stroke-width:3.0;" d="M 664.181, 345.276 L 688.546, 466.349 L 646.824, 496.112 L 662.483, 340.337 z "/>
<path style="fill:rgb(255, 144, 6);fill-opacity:1.0;fill-rule:evenodd;stroke:rgb(0, 0, 0);stroke-width:3.0;" d="M 34.5344, 29.9201 L 43.9831, 34.0208 L 49.878, 52.2338 L 43.0768, 61.9081 L 40.3427, 57.8214 L 30.1157, 29.5841 z "/>
<path style="fill:rgb(255, 144, 6);fill-opacity:1.0;fill-rule:evenodd;stroke:rgb(0, 0, 0);stroke-width:3.0;" d="M 627.882, 389.471 L 633.094, 403.813 L 611.461, 391.116 L 618.971, 387.687 z "/>
<path style="fill:rgb(249, 2, 138);fill-opacity:1.0;fill-rule:evenodd;stroke:rgb(0, 0, 0);stroke-width:3.0;" d="M 519.434, 48.0027 L 521.785, 62.3485 L 501.26, 88.6291 L 484.452, 58.239 L 512.168, 43.8656 z "/>
<path style="fill:rgb(249, 2, 138);fill-opacity:1.0;fill-rule:evenodd;stroke:rgb(0, 0, 0);stroke-width:3.0;" d="M 68.1219, 44.4969 L 48.537, 35.9972 L 51.8043, 31.2182 L 57.8487, 29.3277 z "/>
<path style="fill:rgb(249, 2, 138);fill-opacity:1.0;fill-rule:evenodd;stroke:rgb(0, 0, 0);stroke-width:3.0;" d="M 700.941, 58.8463 L 697.738, 62.2621 L 686.525, 54.7188 L 688.454, 35.6728 z "/>
<path style="fill:rgb(189, 159, 202);fill-opacity:1.0;fill-rule:evenodd;stroke:rgb(0, 0, 0);stroke-width:3.0;" d="M 285.061, 138.047 L 259.358, 194.715 L 225.432, 201.074 L 240.668, 97.409 z "/>
<path style="fill:rgb(215, 9, 255);fill-opacity:1.0;fill-rule:evenodd;stroke:rgb(0, 0, 0);stroke-width:3.0;" d="M 391.254, 19.0073 L 396.963, 23.4941 L 385.561, 29.5175 L 380.1, 27.6725 L 383.193, 15.8059 z "/>
<path style="fill:rgb(215, 9, 255);fill-opacity:1.0;fill-rule:evenodd;stroke:rgb(0, 0, 0);stroke-width:3.0;" d="M 485.77, 25.1083 L 485.919, 25.7979 L 479.254, 25.1259 L 464, 16.4412 L 464.973, 7.16477 z "/>
<path style="fill:rgb(215, 9, 255);fill-opacity:1.0;fill-rule:evenodd;stroke:rgb(0, 0, 0);stroke-width:3.0;" d="M 690.364, 556.091 L 688.669, 558.372 L 673.038, 556.857 L 693.26, 542.971 z "/>
<path style="fill:rgb(98, 8, 249);fill-opacity:1.0;fill-rule:evenodd;stroke:rgb(0, 0, 0);stroke-width:3.0;" d="M 575.498, 192.593 L 572.01, 196.311 L 564.633, 196.61 L 558.305, 178.226 z "/>
<path style="fill:rgb(212, 103, 255);fill-opacity:1.0;fill-rule:evenodd;stroke:rgb(0, 0, 0);stroke-width:3.0;" d="M 330.607, 130.577 L 330.712, 130.646 L 329.811, 140.756 L 324.17, 143.767 L 321.157, 142.307 L 297.229, 119.665 z "/>
<path style="fill:rgb(212, 103, 255);fill-opacity:1.0;fill-rule:evenodd;stroke:rgb(0, 0, 0);stroke-width:3.0;" d="M 344.894, 308.774 L 366.75, 357.26 L 319.545, 384.791 L 274.553, 295.085 z "/>
<path style="fill:rgb(212, 103, 255);fill-opacity:1.0;fill-rule:evenodd;stroke:rgb(0, 0, 0);stroke-width:3.0;" d="M 180.578, 289.749 L 176.558, 292.616 L 146.816, 291.395 L 170.795, 258.997 L 182.361, 255.422 z "/>
<path style="fill:rgb(146, 207, 204);fill-opacity:1.0;fill-rule:evenodd;stroke:rgb(0, 0, 0);stroke-width:3.0;" d="M 334.052, 180.715 L 299.142, 187.258 L 275.663, 187.525 L 273.312, 181.877 L 292.825, 176.284 z "/>
<path style="fill:rgb(212, 49, 9);fill-opacity:1.0;fill-rule:evenodd;stroke:rgb(0, 0, 0);stroke-width:3.0;" d="M 279.924, 167.376 L 269.574, 172.899 L 269.42, 172.53 L 284.537, 139.202 L 292.996, 135.137 z "/>
<path style="fill:rgb(212, 49, 9);fill-opacity:1.0;fill-rule:evenodd;stroke:rgb(0, 0, 0);stroke-width:3.0;" d="M 395.099, 169.272 L 334.052, 180.715 L 292.825, 176.284 L 372.203, 153.529 z "/>
<path style="fill:rgb(255, 255, 19);fill-opacity:1.0;fill-rule:evenodd;stroke:rgb(0, 0, 0);stroke-width:3.0;" d="M 522.85, 145.328 L 434.951, 161.803 L 424.281, 124.709 L 434.943, 68.2989 z "/>
<path style="fill:rgb(255, 27, 13);fill-opacity:1.0;fill-rule:evenodd;stroke:rgb(0, 0, 0);stroke-width:3.0;" d="M 627.488, 207.593 L 619.428, 217.791 L 613.16, 217.891 L 608.742, 204.808 z "/>
<path style="fill:rgb(215, 10, 255);fill-opacity:1.0;fill-rule:evenodd;stroke:rgb(0, 0, 0);stroke-width:3.0;" d="M 182.623, 250.378 L 172.557, 253.889 L 162.015, 244.755 L 183.076, 241.652 z "/>
<path style="fill:rgb(255, 249, 51);fill-opacity:1.0;fill-rule:evenodd;stroke:rgb(0, 0, 0);stroke-width:3.0;" d="M 201.95, 61.9662 L 190.414, 161.025 L 187.138, 163.448 L 192.841, 53.6278 z "/>
<path style="fill:rgb(243, 204, 255);fill-opacity:1.0;fill-rule:evenodd;stroke:rgb(0, 0, 0);stroke-width:3.0;" d="M 358.202, 26.3832 L 369.259, 36.9484 L 360.46, 40.7275 L 353.452, 32.2051 L 354.119, 25.5685 z "/>
<path style="fill:rgb(243, 204, 255);fill-opacity:1.0;fill-rule:evenodd;stroke:rgb(0, 0, 0);stroke-width:3.0;" d="M 168.017, 362.069 L 167.076, 376.262 L 163.904, 375.23 L 158.345, 367.781 L 161.315, 358.224 z "/>
<path style="fill:rgb(243, 204, 255);fill-opacity:1.0;fill-rule:evenodd;stroke:rgb(0, 0, 0);stroke-width:3.0;" d="M 417.237, 469.262 L 440.78, 521.491 L 323.517, 462.858 L 348.86, 430.015 z "/>
<path style="fill:rgb(255, 255, 52);fill-opacity:1.0;fill-rule:evenodd;stroke:rgb(0, 0, 0);stroke-width:3.0;" d="M 673.362, 68.1916 L 564.836, 73.7137 L 681.5, 11.0911 z "/>
<path style="fill:rgb(255, 255, 52);fill-opacity:1.0;fill-rule:evenodd;stroke:rgb(0, 0, 0);stroke-width:3.0;" d="M 240.668, 97.409 L 234.545, 139.066 L 197.605, 99.2774 L 201.95, 61.9662 z "/>
<path style="fill:rgb(8, 30, 184);fill-opacity:1.0;fill-rule:evenodd;stroke:rgb(0, 0, 0);stroke-width:3.0;" d="M 674.884, 211.988 L 671.74, 214.17 L 646.411, 210.405 L 645.383, 202.777 L 654.922, 196.91 z "/>
<path style="fill:rgb(8, 30, 184);fill-opacity:1.0;fill-rule:evenodd;stroke:rgb(0, 0, 0);stroke-width:3.0;" d="M 330.75, 90.589 L 313.212, 112.967 L 300.425, 104.174 L 312.606, 77.3169 z "/>
<path style="fill:rgb(231, 66, 6);fill-opacity:1.0;fill-rule:evenodd;stroke:rgb(0, 0, 0);stroke-width:3.0;" d="M 426.528, 153.224 L 427.747, 163.153 L 416.62, 165.239 L 419.904, 147.865 z "/>
<path style="fill:rgb(255, 62, 65);fill-opacity:1.0;fill-rule:evenodd;stroke:rgb(0, 0, 0);stroke-width:3.0;" d="M 659.082, 585.271 L 650.408, 593.904 L 643.905, 565.387 z "/>
<path style="fill:rgb(55, 255, 255);fill-opacity:1.0;fill-rule:evenodd;stroke:rgb(0, 0, 0);stroke-width:3.0;" d="M 566.197, 96.2916 L 573.428, 105.497 L 558.039, 109.02 L 550.421, 89.1477 L 553.181, 87.5369 z "/>
<path style="fill:rgb(255, 22, 18);fill-opacity:1.0;fill-rule:evenodd;stroke:rgb(0, 0, 0);stroke-width:3.0;" d="M 657.385, 391.047 L 649.921, 388.497 L 650.734, 373.179 L 659.588, 369.135 z "/>
<path style="fill:rgb(252, 22, 209);fill-opacity:1.0;fill-rule:evenodd;stroke:rgb(0, 0, 0);stroke-width:3.0;" d="M 172.557, 253.889 L 159.178, 258.555 L 156.32, 252.143 L 164.151, 246.606 z "/>
<path style="fill:rgb(255, 255, 41);fill-opacity:1.0;fill-rule:evenodd;stroke:rgb(0, 0, 0);stroke-width:3.0;" d="M 588.384, 178.853 L 587.419, 177.568 L 594.422, 157.219 L 613.381, 152.201 z "/>
<path style="fill:rgb(249, 98, 23);fill-opacity:1.0;fill-rule:evenodd;stroke:rgb(0, 0, 0);stroke-width:3.0;" d="M 645.749, 117.691 L 613.381, 152.201 L 594.422, 157.219 L 612.021, 106.081 z "/>
<path style="fill:rgb(255, 7, 94);fill-opacity:1.0;fill-rule:evenodd;stroke:rgb(0, 0, 0);stroke-width:3.0;" d="M 531.702, 143.669 L 522.85, 145.328 L 483.798, 111.108 L 507.968, 100.756 z "/>
<path style="fill:rgb(243, 1, 161);fill-opacity:1.0;fill-rule:evenodd;stroke:rgb(0, 0, 0);stroke-width:3.0;" d="M 534.171, 84.1188 L 524.503, 41.721 L 567.301, 19.4599 z "/>
<path style="fill:rgb(15, 220, 255);fill-opacity:1.0;fill-rule:evenodd;stroke:rgb(0, 0, 0);stroke-width:3.0;" d="M 417.773, 43.5678 L 411.967, 48.8347 L 361.242, 78.152 L 350, 56.2595 L 351.957, 50.1832 L 395.808, 30.7446 z "/>
<path style="fill:rgb(115, 255, 7);fill-opacity:1.0;fill-rule:evenodd;stroke:rgb(0, 0, 0);stroke-width:3.0;" d="M 660.499, 561.475 L 648.331, 541.954 L 649.847, 534.771 L 659, 527.701 z "/>
<path style="fill:rgb(115, 255, 7);fill-opacity:1.0;fill-rule:evenodd;stroke:rgb(0, 0, 0);stroke-width:3.0;" d="M 179.251, 315.299 L 178.352, 332.607 L 174.004, 334.13 L 142.115, 317.177 L 151.124, 310.753 z "/>
<path style="fill:rgb(115, 255, 7);fill-opacity:1.0;fill-rule:evenodd;stroke:rgb(0, 0, 0);stroke-width:3.0;" d="M 753.543, 471.053 L 722.009, 513.497 L 701.959, 455.172 L 704.059, 441.584 L 736.548, 430.278 z "/>
<path style="fill:rgb(243, 19, 249);fill-opacity:1.0;fill-rule:evenodd;stroke:rgb(0, 0, 0);stroke-width:3.0;" d="M 736.548, 430.278 L 704.059, 441.584 L 714.121, 376.474 z "/>
<path style="fill:rgb(13, 117, 255);fill-opacity:1.0;fill-rule:evenodd;stroke:rgb(0, 0, 0);stroke-width:3.0;" d="M 428.529, 33.8106 L 418.658, 42.7645 L 395.988, 30.6651 L 407.622, 25.5077 z "/>
<path style="fill:rgb(102, 5, 85);fill-opacity:1.0;fill-rule:evenodd;stroke:rgb(0, 0, 0);stroke-width:3.0;" d="M 651.723, 111.322 L 645.749, 117.691 L 567.342, 90.6998 L 568.936, 84.2873 z "/>
<path style="fill:rgb(37, 246, 228);fill-opacity:1.0;fill-rule:evenodd;stroke:rgb(0, 0, 0);stroke-width:3.0;" d="M 691.159, 544.414 L 673.038, 556.857 L 660.436, 555.635 L 681.121, 541.312 z "/>
<path style="fill:rgb(33, 39, 223);fill-opacity:1.0;fill-rule:evenodd;stroke:rgb(0, 0, 0);stroke-width:3.0;" d="M 665.482, 310.505 L 665.099, 314.316 L 581.174, 290.264 L 580.844, 288.815 L 584.483, 274.614 L 605.328, 251.634 z "/>
<path style="fill:rgb(255, 157, 6);fill-opacity:1.0;fill-rule:evenodd;stroke:rgb(0, 0, 0);stroke-width:3.0;" d="M 166.23, 310.47 L 163.988, 312.832 L 155.655, 311.485 L 161.793, 303.145 L 177.555, 291.905 z "/>
<path style="fill:rgb(234, 9, 51);fill-opacity:1.0;fill-rule:evenodd;stroke:rgb(0, 0, 0);stroke-width:3.0;" d="M 701.09, 528.681 L 645.829, 506.011 L 646.824, 496.112 L 688.546, 466.349 z "/>
<path style="fill:rgb(255, 255, 6);fill-opacity:1.0;fill-rule:evenodd;stroke:rgb(0, 0, 0);stroke-width:3.0;" d="M 62.3173, 90.6666 L 63.8731, 95.4737 L 59.0894, 109.582 L 40.3427, 57.8214 z "/>
<path style="fill:rgb(234, 231, 249);fill-opacity:1.0;fill-rule:evenodd;stroke:rgb(0, 0, 0);stroke-width:3.0;" d="M 763.085, 30.4907 L 744.65, 31.0987 L 741.246, 23.5302 L 745.713, 17.8706 L 760.031, 16.6881 z "/>
<path style="fill:rgb(246, 124, 8);fill-opacity:1.0;fill-rule:evenodd;stroke:rgb(0, 0, 0);stroke-width:3.0;" d="M 347.568, 24.2615 L 352.833, 38.3656 L 352.601, 40.6711 L 327.999, 43.3813 L 335.546, 26.7415 L 342.718, 23.2937 z "/>
<path style="fill:rgb(255, 237, 30);fill-opacity:1.0;fill-rule:evenodd;stroke:rgb(0, 0, 0);stroke-width:3.0;" d="M 462.985, 19.4263 L 467.334, 35.9914 L 447.288, 79.1159 L 444.24, 76.4448 L 457.927, 10.2803 z "/>
<path style="fill:rgb(209, 31, 249);fill-opacity:1.0;fill-rule:evenodd;stroke:rgb(0, 0, 0);stroke-width:3.0;" d="M 677.657, 210.065 L 680.056, 189.1 L 715.756, 183.635 z "/>
<path style="fill:rgb(220, 2, 11);fill-opacity:1.0;fill-rule:evenodd;stroke:rgb(0, 0, 0);stroke-width:3.0;" d="M 677.657, 210.065 L 674.884, 211.988 L 654.922, 196.91 L 663.498, 191.635 L 680.056, 189.1 z "/>
<path style="fill:rgb(92, 58, 231);fill-opacity:1.0;fill-rule:evenodd;stroke:rgb(0, 0, 0);stroke-width:3.0;" d="M 777.737, 104.645 L 767.179, 81.1765 L 785.537, 78.94 z "/>
<path style="fill:rgb(223, 94, 107);fill-opacity:1.0;fill-rule:evenodd;stroke:rgb(0, 0, 0);stroke-width:3.0;" d="M 786.513, 75.7246 L 785.537, 78.94 L 767.179, 81.1765 L 761.77, 69.1517 L 770.289, 43.3318 z "/>
<path style="fill:rgb(252, 24, 255);fill-opacity:1.0;fill-rule:evenodd;stroke:rgb(0, 0, 0);stroke-width:3.0;" d="M 400.039, 431.11 L 382.66, 449.416 L 348.86, 430.015 L 380.855, 388.551 z "/>
<path style="fill:rgb(249, 46, 255);fill-opacity:1.0;fill-rule:evenodd;stroke:rgb(0, 0, 0);stroke-width:3.0;" d="M 229.598, 133.737 L 212.341, 129.946 L 194.885, 122.63 L 197.605, 99.2774 z "/>
<path style="fill:rgb(192, 223, 13);fill-opacity:1.0;fill-rule:evenodd;stroke:rgb(0, 0, 0);stroke-width:3.0;" d="M 62.3173, 90.6666 L 43.0768, 61.9081 L 49.878, 52.2338 z "/>
<path style="fill:rgb(192, 223, 13);fill-opacity:1.0;fill-rule:evenodd;stroke:rgb(0, 0, 0);stroke-width:3.0;" d="M 777.338, 21.6709 L 769.741, 30.2712 L 764.53, 30.443 L 763.555, 16.3971 L 768.281, 16.0067 z "/>
<path style="fill:rgb(76, 4, 243);fill-opacity:1.0;fill-rule:evenodd;stroke:rgb(0, 0, 0);stroke-width:3.0;" d="M 232.318, 154.224 L 225.432, 201.074 L 222.667, 201.592 L 186.792, 192.128 L 191.394, 152.607 z "/>
<path style="fill:rgb(157, 255, 255);fill-opacity:1.0;fill-rule:evenodd;stroke:rgb(0, 0, 0);stroke-width:3.0;" d="M 785.487, 29.3101 L 784.945, 57.8261 L 770.666, 42.1918 L 775.355, 27.9806 z "/>
<path style="fill:rgb(255, 23, 194);fill-opacity:1.0;fill-rule:evenodd;stroke:rgb(0, 0, 0);stroke-width:3.0;" d="M 653.411, 430.578 L 652.72, 437.454 L 640.988, 445.007 L 619.671, 437.774 L 617.028, 425.945 L 646.702, 424.933 z "/>
<path style="fill:rgb(43, 33, 255);fill-opacity:1.0;fill-rule:evenodd;stroke:rgb(0, 0, 0);stroke-width:3.0;" d="M 643.055, 518.215 L 634.963, 526.166 L 631.341, 510.281 L 637.583, 508.904 z "/>
<path style="fill:rgb(226, 98, 212);fill-opacity:1.0;fill-rule:evenodd;stroke:rgb(0, 0, 0);stroke-width:3.0;" d="M 490.27, 68.7577 L 451.98, 83.2276 L 447.288, 79.1159 L 469.532, 31.2628 z "/>
</svg>