<?xml version="1.0" encoding="iso-8859-1" standalone="no"?>
<!DOCTYPE svg PUBLIC "-//W3C//DTD SVG 1.0//EN" "http://www.w3.org/TR/2001/REC-SVG-20010904/DTD/svg10.dtd">
<svg xmlns="http://www.w3.org/2000/svg" width="800" height="600">
<path style="fill:rgb(0, 0, 0);fill-opacity:0.0;fill-rule:evenodd;stroke:rgb(0, 0, 0);stroke-width:0.0;" d="M 0, 600 L 800, 600 L 800, 0 L 0, 0 z "/>
<path style="fill:rgb(255, 30, 212);fill-opacity:1.0;fill-rule:evenodd;stroke:rgb(0, 0, 0);stroke-width:3.0;" d="M 89.51, 499.943 L 76.2263, 530.791 L 67.3725, 515.198 L 82.5373, 499.787 z "/>
<path style="fill:rgb(255, 30, 212);fill-opacity:1.0;fill-rule:evenodd;stroke:rgb(0, 0, 0);stroke-width:3.0;" d="M 682.113, 534.523 L 675.946, 552.292 L 627.22, 549.337 L 668.213, 527.917 z "/>
<path style="fill:rgb(231, 255, 7);fill-opacity:1.0;fill-rule:evenodd;stroke:rgb(0, 0, 0);stroke-width:3.0;" d="M 769.307, 312.407 L 746.101, 267.953 L 763.726, 244.107 z "/>
<path style="fill:rgb(249, 42, 19);fill-opacity:1.0;fill-rule:evenodd;stroke:rgb(0, 0, 0);stroke-width:3.0;" d="M 110.833, 369.185 L 99.8866, 385.949 L 95.2262, 376.325 L 111.034, 362.776 z "/>
<path style="fill:rgb(249, 42, 19);fill-opacity:1.0;fill-rule:evenodd;stroke:rgb(0, 0, 0);stroke-width:3.0;" d="M 769.174, 384.168 L 779.027, 428.882 L 771.668, 423.201 L 768.311, 383.887 z "/>
<path style="fill:rgb(249, 42, 19);fill-opacity:1.0;fill-rule:evenodd;stroke:rgb(0, 0, 0);stroke-width:3.0;" d="M 701.764, 381.666 L 720.619, 401.438 L 714.586, 447.559 L 687.522, 435.158 L 683.633, 371.847 z "/>
<path style="fill:rgb(252, 249, 8);fill-opacity:1.0;fill-rule:evenodd;stroke:rgb(0, 0, 0);stroke-width:3.0;" d="M 637.768, 449.111 L 645.83, 468.298 L 611.195, 486.561 L 623.19, 456.11 L 630.152, 448.403 z "/>
<path style="fill:rgb(252, 249, 8);fill-opacity:1.0;fill-rule:evenodd;stroke:rgb(0, 0, 0);stroke-width:3.0;" d="M 480.344, 292.883 L 487.178, 310.924 L 479.135, 310.74 L 466.551, 282.998 z "/>
<path style="fill:rgb(252, 249, 8);fill-opacity:1.0;fill-rule:evenodd;stroke:rgb(0, 0, 0);stroke-width:3.0;" d="M 336.527, 469.36 L 336.431, 473.967 L 335.127, 475.935 L 319.414, 484.717 L 328.295, 465.033 z "/>
<path style="fill:rgb(252, 249, 8);fill-opacity:1.0;fill-rule:evenodd;stroke:rgb(0, 0, 0);stroke-width:3.0;" d="M 714.586, 447.559 L 711.825, 468.661 L 704.243, 462.758 L 706.23, 443.73 z "/>
<path style="fill:rgb(42, 22, 255);fill-opacity:1.0;fill-rule:evenodd;stroke:rgb(0, 0, 0);stroke-width:3.0;" d="M 767.776, 377.364 L 738.607, 379.202 L 738.754, 366.8 L 757.876, 360.26 z "/>
<path style="fill:rgb(62, 15, 226);fill-opacity:1.0;fill-rule:evenodd;stroke:rgb(0, 0, 0);stroke-width:3.0;" d="M 683.719, 373.24 L 687.952, 442.165 L 649.597, 452.196 L 636.2, 445.378 L 628.499, 427.052 L 671.824, 368.44 z "/>
<path style="fill:rgb(62, 15, 226);fill-opacity:1.0;fill-rule:evenodd;stroke:rgb(0, 0, 0);stroke-width:3.0;" d="M 656.963, 533.795 L 627.22, 549.337 L 605.604, 548.027 L 657.978, 529.096 z "/>
<path style="fill:rgb(255, 67, 126);fill-opacity:1.0;fill-rule:evenodd;stroke:rgb(0, 0, 0);stroke-width:3.0;" d="M 105.913, 525.585 L 100.489, 535.909 L 95.9915, 534.802 L 92.5517, 514.041 L 106.421, 509.418 z "/>
<path style="fill:rgb(255, 67, 126);fill-opacity:1.0;fill-rule:evenodd;stroke:rgb(0, 0, 0);stroke-width:3.0;" d="M 701.989, 327.631 L 697.706, 327.783 L 695.13, 311.204 L 720.576, 302.484 z "/>
<path style="fill:rgb(255, 18, 75);fill-opacity:1.0;fill-rule:evenodd;stroke:rgb(0, 0, 0);stroke-width:3.0;" d="M 511.22, 285.163 L 513.468, 312.467 L 498.367, 292.106 L 499.237, 282.493 z "/>
<path style="fill:rgb(255, 18, 75);fill-opacity:1.0;fill-rule:evenodd;stroke:rgb(0, 0, 0);stroke-width:3.0;" d="M 726.176, 485.533 L 709.981, 522.506 L 693.248, 528.402 L 692.65, 518.664 L 720.96, 484.126 z "/>
<path style="fill:rgb(252, 23, 192);fill-opacity:1.0;fill-rule:evenodd;stroke:rgb(0, 0, 0);stroke-width:3.0;" d="M 738.455, 391.964 L 719.787, 356.422 L 739.18, 331.077 z "/>
<path style="fill:rgb(255, 61, 163);fill-opacity:1.0;fill-rule:evenodd;stroke:rgb(0, 0, 0);stroke-width:3.0;" d="M 594.129, 586.614 L 561.562, 593.871 L 563.698, 589.46 L 595.314, 584.077 z "/>
<path style="fill:rgb(255, 61, 163);fill-opacity:1.0;fill-rule:evenodd;stroke:rgb(0, 0, 0);stroke-width:3.0;" d="M 627.403, 448.148 L 628.174, 450.593 L 607.787, 473.164 L 598.331, 467.867 L 613.838, 446.887 z "/>
<path style="fill:rgb(255, 61, 163);fill-opacity:1.0;fill-rule:evenodd;stroke:rgb(0, 0, 0);stroke-width:3.0;" d="M 699.043, 259.995 L 678.747, 305.739 L 540.573, 375.526 L 538.268, 368.277 L 704.586, 203.134 z "/>
<path style="fill:rgb(255, 61, 163);fill-opacity:1.0;fill-rule:evenodd;stroke:rgb(0, 0, 0);stroke-width:3.0;" d="M 739.18, 331.077 L 719.787, 356.422 L 703.553, 325.514 L 739.83, 276.435 z "/>
<path style="fill:rgb(26, 35, 240);fill-opacity:1.0;fill-rule:evenodd;stroke:rgb(0, 0, 0);stroke-width:3.0;" d="M 334.817, 549.298 L 316.807, 570.948 L 292.829, 553.041 L 330.568, 537.73 z "/>
<path style="fill:rgb(47, 228, 207);fill-opacity:1.0;fill-rule:evenodd;stroke:rgb(0, 0, 0);stroke-width:3.0;" d="M 769.324, 314.766 L 739.24, 326.002 L 739.742, 283.876 z "/>
<path style="fill:rgb(47, 228, 207);fill-opacity:1.0;fill-rule:evenodd;stroke:rgb(0, 0, 0);stroke-width:3.0;" d="M 677.792, 489.136 L 683.254, 496.984 L 682.45, 498.276 L 662.969, 499.694 L 665.762, 494.693 L 672.734, 487.37 z "/>
<path style="fill:rgb(47, 228, 207);fill-opacity:1.0;fill-rule:evenodd;stroke:rgb(0, 0, 0);stroke-width:3.0;" d="M 527.193, 338.889 L 517.385, 340.043 L 488.828, 317.967 L 501.953, 298.018 z "/>
<path style="fill:rgb(47, 228, 207);fill-opacity:1.0;fill-rule:evenodd;stroke:rgb(0, 0, 0);stroke-width:3.0;" d="M 771.164, 497.67 L 720.333, 498.874 L 726.176, 485.533 z "/>
<path style="fill:rgb(47, 228, 207);fill-opacity:1.0;fill-rule:evenodd;stroke:rgb(0, 0, 0);stroke-width:3.0;" d="M 665.827, 326.819 L 639.634, 329.673 L 636.584, 327.034 L 651.991, 319.253 L 667.787, 316.454 z "/>
<path style="fill:rgb(47, 228, 207);fill-opacity:1.0;fill-rule:evenodd;stroke:rgb(0, 0, 0);stroke-width:3.0;" d="M 758.112, 512.074 L 741.275, 527.568 L 740.799, 527.605 L 736.207, 513.267 L 753.63, 507.129 z "/>
<path style="fill:rgb(47, 228, 207);fill-opacity:1.0;fill-rule:evenodd;stroke:rgb(0, 0, 0);stroke-width:3.0;" d="M 49.8774, 84.5161 L 48.9602, 86.0951 L 17.6956, 97.6971 L 16.8253, 90.5708 L 24.1609, 61.7747 L 27.0505, 60.7025 z "/>
<path style="fill:rgb(47, 228, 207);fill-opacity:1.0;fill-rule:evenodd;stroke:rgb(0, 0, 0);stroke-width:3.0;" d="M 346.317, 524.289 L 335.433, 550.977 L 316.336, 498.975 z "/>
<path style="fill:rgb(47, 228, 207);fill-opacity:1.0;fill-rule:evenodd;stroke:rgb(0, 0, 0);stroke-width:3.0;" d="M 383.774, 121.609 L 332.921, 154.695 L 330.473, 151.862 L 357.832, 89.9981 L 367.91, 87.7077 z "/>
<path style="fill:rgb(47, 228, 207);fill-opacity:1.0;fill-rule:evenodd;stroke:rgb(0, 0, 0);stroke-width:3.0;" d="M 380.844, 101.911 L 385.441, 120.524 L 383.774, 121.609 L 367.91, 87.7077 L 371.56, 86.8781 z "/>
<path style="fill:rgb(47, 228, 207);fill-opacity:1.0;fill-rule:evenodd;stroke:rgb(0, 0, 0);stroke-width:3.0;" d="M 105.913, 525.585 L 106.335, 512.164 L 117.864, 494.805 L 126.263, 486.224 L 126.681, 486.05 z "/>
<path style="fill:rgb(47, 228, 207);fill-opacity:1.0;fill-rule:evenodd;stroke:rgb(0, 0, 0);stroke-width:3.0;" d="M 602.541, 470.226 L 597.166, 484.922 L 594.45, 487.929 L 584.543, 491.388 L 582.754, 489.812 L 582.697, 489.018 L 598.331, 467.867 z "/>
<path style="fill:rgb(47, 228, 207);fill-opacity:1.0;fill-rule:evenodd;stroke:rgb(0, 0, 0);stroke-width:3.0;" d="M 644.828, 501.015 L 627.096, 502.305 L 624.256, 496.024 L 655.071, 487.905 z "/>
<path style="fill:rgb(47, 228, 207);fill-opacity:1.0;fill-rule:evenodd;stroke:rgb(0, 0, 0);stroke-width:3.0;" d="M 106.732, 499.556 L 92.6993, 513.992 L 92.5517, 514.041 L 90.5627, 502.036 L 103.987, 493.935 L 106.918, 493.639 z "/>
<path style="fill:rgb(47, 228, 207);fill-opacity:1.0;fill-rule:evenodd;stroke:rgb(0, 0, 0);stroke-width:3.0;" d="M 369.865, 520.999 L 343.266, 572.306 L 335.433, 550.977 L 366.454, 474.912 z "/>
<path style="fill:rgb(252, 255, 13);fill-opacity:1.0;fill-rule:evenodd;stroke:rgb(0, 0, 0);stroke-width:3.0;" d="M 699.043, 259.995 L 704.586, 203.134 L 739.773, 168.194 z "/>
<path style="fill:rgb(252, 255, 13);fill-opacity:1.0;fill-rule:evenodd;stroke:rgb(0, 0, 0);stroke-width:3.0;" d="M 88.1137, 551.727 L 53.782, 524.967 L 51.3999, 520.669 L 52.5127, 499.144 L 57.9446, 498.594 z "/>
<path style="fill:rgb(252, 255, 13);fill-opacity:1.0;fill-rule:evenodd;stroke:rgb(0, 0, 0);stroke-width:3.0;" d="M 118.261, 303.475 L 117.291, 333.112 L 112.288, 322.909 L 113.099, 297.124 z "/>
<path style="fill:rgb(252, 255, 13);fill-opacity:1.0;fill-rule:evenodd;stroke:rgb(0, 0, 0);stroke-width:3.0;" d="M 729.124, 474.165 L 707.683, 500.324 L 709.116, 489.37 L 720.259, 472.087 z "/>
<path style="fill:rgb(11, 207, 234);fill-opacity:1.0;fill-rule:evenodd;stroke:rgb(0, 0, 0);stroke-width:3.0;" d="M 713.455, 358.047 L 721.132, 378.146 L 698.244, 373.447 L 694.869, 370.95 L 697.633, 358.852 L 701.307, 355.997 z "/>
<path style="fill:rgb(11, 207, 234);fill-opacity:1.0;fill-rule:evenodd;stroke:rgb(0, 0, 0);stroke-width:3.0;" d="M 344.359, 167.933 L 323.584, 188.629 L 306.312, 167.311 L 324.78, 145.273 z "/>
<path style="fill:rgb(11, 207, 234);fill-opacity:1.0;fill-rule:evenodd;stroke:rgb(0, 0, 0);stroke-width:3.0;" d="M 761.125, 435.124 L 729.124, 474.165 L 720.259, 472.087 L 753.478, 420.566 z "/>
<path style="fill:rgb(161, 114, 255);fill-opacity:1.0;fill-rule:evenodd;stroke:rgb(0, 0, 0);stroke-width:3.0;" d="M 406.704, 222.708 L 393.899, 224.094 L 393.343, 218.193 L 401.48, 206.403 z "/>
<path style="fill:rgb(252, 82, 130);fill-opacity:1.0;fill-rule:evenodd;stroke:rgb(0, 0, 0);stroke-width:3.0;" d="M 665.093, 330.697 L 664.979, 331.3 L 650.802, 339.334 L 643.109, 332.678 L 651.43, 328.388 L 664.619, 326.951 z "/>
<path style="fill:rgb(252, 82, 130);fill-opacity:1.0;fill-rule:evenodd;stroke:rgb(0, 0, 0);stroke-width:3.0;" d="M 537.527, 365.944 L 544.353, 387.418 L 511.616, 355.83 z "/>
<path style="fill:rgb(240, 142, 6);fill-opacity:1.0;fill-rule:evenodd;stroke:rgb(0, 0, 0);stroke-width:3.0;" d="M 58.5427, 331.236 L 40.4384, 339.636 L 17.1731, 323.513 L 25.8925, 298.184 z "/>
<path style="fill:rgb(231, 161, 9);fill-opacity:1.0;fill-rule:evenodd;stroke:rgb(0, 0, 0);stroke-width:3.0;" d="M 652.42, 394.691 L 619.384, 439.384 L 602.93, 400.924 L 652.673, 393.513 z "/>
<path style="fill:rgb(231, 161, 9);fill-opacity:1.0;fill-rule:evenodd;stroke:rgb(0, 0, 0);stroke-width:3.0;" d="M 676.748, 361.778 L 675.315, 363.717 L 662.586, 374.39 L 661.492, 374.57 L 659.674, 368.71 L 668.887, 354.977 z "/>
<path style="fill:rgb(231, 161, 9);fill-opacity:1.0;fill-rule:evenodd;stroke:rgb(0, 0, 0);stroke-width:3.0;" d="M 778.716, 345.012 L 768.571, 357.075 L 753.493, 337.731 z "/>
<path style="fill:rgb(231, 161, 9);fill-opacity:1.0;fill-rule:evenodd;stroke:rgb(0, 0, 0);stroke-width:3.0;" d="M 721.34, 359.378 L 729.575, 375.058 L 725.99, 382.247 L 723.869, 385.309 L 713.455, 358.047 z "/>
<path style="fill:rgb(231, 161, 9);fill-opacity:1.0;fill-rule:evenodd;stroke:rgb(0, 0, 0);stroke-width:3.0;" d="M 770.341, 314.386 L 769.324, 314.766 L 739.742, 283.876 L 739.83, 276.435 L 746.101, 267.953 z "/>
<path style="fill:rgb(255, 220, 13);fill-opacity:1.0;fill-rule:evenodd;stroke:rgb(0, 0, 0);stroke-width:3.0;" d="M 497.326, 305.051 L 493.368, 311.066 L 487.178, 310.924 L 480.344, 292.883 z "/>
<path style="fill:rgb(255, 220, 13);fill-opacity:1.0;fill-rule:evenodd;stroke:rgb(0, 0, 0);stroke-width:3.0;" d="M 597.352, 554.128 L 574.262, 559.788 L 517.264, 500.312 L 567.979, 461.734 z "/>
<path style="fill:rgb(255, 27, 66);fill-opacity:1.0;fill-rule:evenodd;stroke:rgb(0, 0, 0);stroke-width:3.0;" d="M 517.385, 340.043 L 497.661, 342.365 L 489.559, 334.547 L 489.889, 318.788 z "/>
<path style="fill:rgb(255, 27, 66);fill-opacity:1.0;fill-rule:evenodd;stroke:rgb(0, 0, 0);stroke-width:3.0;" d="M 409.197, 147.823 L 406.13, 201.934 L 387.631, 218.018 L 332.921, 154.695 L 390.361, 117.323 z "/>
<path style="fill:rgb(255, 27, 66);fill-opacity:1.0;fill-rule:evenodd;stroke:rgb(0, 0, 0);stroke-width:3.0;" d="M 770.287, 545.807 L 769.531, 568.632 L 753.76, 575.308 L 743.132, 550.679 L 751.883, 542.329 z "/>
<path style="fill:rgb(255, 27, 66);fill-opacity:1.0;fill-rule:evenodd;stroke:rgb(0, 0, 0);stroke-width:3.0;" d="M 770.75, 524.324 L 753.42, 540.862 L 733.953, 551.118 L 756.092, 524.663 L 766.378, 519.97 z "/>
<path style="fill:rgb(255, 27, 66);fill-opacity:1.0;fill-rule:evenodd;stroke:rgb(0, 0, 0);stroke-width:3.0;" d="M 163.656, 295.034 L 164.547, 308.278 L 76.1204, 288.259 z "/>
<path style="fill:rgb(255, 27, 66);fill-opacity:1.0;fill-rule:evenodd;stroke:rgb(0, 0, 0);stroke-width:3.0;" d="M 783.355, 492.086 L 782.693, 492.877 L 776.101, 490.053 L 763.897, 468.486 L 765.541, 457.799 z "/>
<path style="fill:rgb(255, 27, 66);fill-opacity:1.0;fill-rule:evenodd;stroke:rgb(0, 0, 0);stroke-width:3.0;" d="M 574.285, 581.633 L 554.089, 564.733 L 589.443, 556.066 z "/>
<path style="fill:rgb(255, 27, 66);fill-opacity:1.0;fill-rule:evenodd;stroke:rgb(0, 0, 0);stroke-width:3.0;" d="M 485.813, 291.571 L 412.948, 196.006 L 425.807, 184.825 z "/>
<path style="fill:rgb(255, 27, 66);fill-opacity:1.0;fill-rule:evenodd;stroke:rgb(0, 0, 0);stroke-width:3.0;" d="M 179.092, 313.315 L 184.575, 315.005 L 172.782, 338.71 L 124.795, 316.63 L 125.882, 310.051 z "/>
<path style="fill:rgb(255, 27, 66);fill-opacity:1.0;fill-rule:evenodd;stroke:rgb(0, 0, 0);stroke-width:3.0;" d="M 783.197, 339.685 L 778.716, 345.012 L 753.493, 337.731 L 743.198, 324.524 L 750.973, 321.62 z "/>
<path style="fill:rgb(255, 27, 66);fill-opacity:1.0;fill-rule:evenodd;stroke:rgb(0, 0, 0);stroke-width:3.0;" d="M 345.591, 117.677 L 335.84, 139.725 L 336.424, 111.742 z "/>
<path style="fill:rgb(255, 1, 17);fill-opacity:1.0;fill-rule:evenodd;stroke:rgb(0, 0, 0);stroke-width:3.0;" d="M 106.412, 493.69 L 52.5127, 499.144 L 56.3444, 425.022 z "/>
<path style="fill:rgb(255, 1, 17);fill-opacity:1.0;fill-rule:evenodd;stroke:rgb(0, 0, 0);stroke-width:3.0;" d="M 276.922, 235.115 L 238.276, 273.614 L 273.634, 206.304 L 285.389, 192.278 z "/>
<path style="fill:rgb(255, 1, 17);fill-opacity:1.0;fill-rule:evenodd;stroke:rgb(0, 0, 0);stroke-width:3.0;" d="M 496.135, 288.597 L 487.778, 294.148 L 485.813, 291.571 L 425.807, 184.825 L 429.868, 181.294 z "/>
<path style="fill:rgb(255, 1, 17);fill-opacity:1.0;fill-rule:evenodd;stroke:rgb(0, 0, 0);stroke-width:3.0;" d="M 529.384, 342.436 L 519.571, 348.918 L 507.329, 351.693 L 497.661, 342.365 L 527.193, 338.889 z "/>
<path style="fill:rgb(255, 1, 17);fill-opacity:1.0;fill-rule:evenodd;stroke:rgb(0, 0, 0);stroke-width:3.0;" d="M 408.54, 211.156 L 424.294, 253.005 L 416.826, 243.453 L 404.075, 214.502 L 402.258, 208.831 z "/>
<path style="fill:rgb(255, 1, 17);fill-opacity:1.0;fill-rule:evenodd;stroke:rgb(0, 0, 0);stroke-width:3.0;" d="M 743.633, 581.719 L 734.911, 580.033 L 727.417, 565.676 L 739.742, 553.915 z "/>
<path style="fill:rgb(255, 1, 17);fill-opacity:1.0;fill-rule:evenodd;stroke:rgb(0, 0, 0);stroke-width:3.0;" d="M 618.754, 498.451 L 615.506, 503.149 L 614.17, 503.246 L 606.63, 488.968 L 615.084, 484.511 z "/>
<path style="fill:rgb(252, 163, 49);fill-opacity:1.0;fill-rule:evenodd;stroke:rgb(0, 0, 0);stroke-width:3.0;" d="M 647.038, 450.894 L 651.199, 465.467 L 645.83, 468.298 L 636.2, 445.378 z "/>
<path style="fill:rgb(159, 27, 168);fill-opacity:1.0;fill-rule:evenodd;stroke:rgb(0, 0, 0);stroke-width:3.0;" d="M 740.786, 527.566 L 728.644, 525.945 L 731.658, 514.87 L 736.207, 513.267 z "/>
<path style="fill:rgb(159, 27, 168);fill-opacity:1.0;fill-rule:evenodd;stroke:rgb(0, 0, 0);stroke-width:3.0;" d="M 743.633, 581.719 L 745.152, 592.569 L 720.641, 577.275 z "/>
<path style="fill:rgb(255, 197, 23);fill-opacity:1.0;fill-rule:evenodd;stroke:rgb(0, 0, 0);stroke-width:3.0;" d="M 67.3725, 515.198 L 60.601, 503.272 L 66.233, 497.755 L 86.5604, 495.699 z "/>
<path style="fill:rgb(255, 182, 44);fill-opacity:1.0;fill-rule:evenodd;stroke:rgb(0, 0, 0);stroke-width:3.0;" d="M 645.296, 334.571 L 613.466, 352.02 L 618.079, 336.38 L 636.584, 327.034 z "/>
<path style="fill:rgb(240, 2, 17);fill-opacity:1.0;fill-rule:evenodd;stroke:rgb(0, 0, 0);stroke-width:3.0;" d="M 457.465, 298.843 L 278.101, 394.859 L 265.701, 361.095 L 359.785, 185.788 z "/>
<path style="fill:rgb(240, 2, 17);fill-opacity:1.0;fill-rule:evenodd;stroke:rgb(0, 0, 0);stroke-width:3.0;" d="M 77.5013, 288.572 L 112.529, 315.25 L 112.268, 323.549 L 77.675, 331.383 L 63.0992, 294.355 L 63.5613, 285.416 z "/>
<path style="fill:rgb(240, 2, 17);fill-opacity:1.0;fill-rule:evenodd;stroke:rgb(0, 0, 0);stroke-width:3.0;" d="M 63.4462, 383.765 L 57.8695, 427.114 L 56.3444, 425.022 L 58.7612, 378.271 z "/>
<path style="fill:rgb(240, 2, 17);fill-opacity:1.0;fill-rule:evenodd;stroke:rgb(0, 0, 0);stroke-width:3.0;" d="M 111.264, 355.465 L 111.034, 362.776 L 99.7625, 372.437 L 74.7619, 339.045 L 105.802, 329.986 z "/>
<path style="fill:rgb(240, 2, 17);fill-opacity:1.0;fill-rule:evenodd;stroke:rgb(0, 0, 0);stroke-width:3.0;" d="M 154.049, 432.326 L 133.462, 417.745 L 141.642, 401.305 L 153.602, 394.262 z "/>
<path style="fill:rgb(240, 2, 17);fill-opacity:1.0;fill-rule:evenodd;stroke:rgb(0, 0, 0);stroke-width:3.0;" d="M 707.799, 499.44 L 693.645, 498.869 L 710.646, 477.677 z "/>
<path style="fill:rgb(240, 2, 17);fill-opacity:1.0;fill-rule:evenodd;stroke:rgb(0, 0, 0);stroke-width:3.0;" d="M 424.072, 416.437 L 416.926, 430.222 L 375.018, 453.642 L 312.501, 376.444 L 362.86, 349.487 z "/>
<path style="fill:rgb(255, 21, 19);fill-opacity:1.0;fill-rule:evenodd;stroke:rgb(0, 0, 0);stroke-width:3.0;" d="M 474.696, 318.787 L 424.072, 416.437 L 362.86, 349.487 L 457.465, 298.843 z "/>
<path style="fill:rgb(255, 134, 7);fill-opacity:1.0;fill-rule:evenodd;stroke:rgb(0, 0, 0);stroke-width:3.0;" d="M 756.918, 394.92 L 759.044, 407.95 L 749.328, 412.665 L 745.572, 405.513 L 748.202, 392.062 z "/>
<path style="fill:rgb(128, 61, 252);fill-opacity:1.0;fill-rule:evenodd;stroke:rgb(0, 0, 0);stroke-width:3.0;" d="M 613.466, 352.02 L 575.032, 373.091 L 573.993, 358.647 L 618.079, 336.38 z "/>
<path style="fill:rgb(128, 61, 252);fill-opacity:1.0;fill-rule:evenodd;stroke:rgb(0, 0, 0);stroke-width:3.0;" d="M 187.604, 296.887 L 194.535, 297.658 L 200.978, 301.382 L 197.316, 315.696 L 164.547, 308.278 L 163.656, 295.034 z "/>
<path style="fill:rgb(128, 61, 252);fill-opacity:1.0;fill-rule:evenodd;stroke:rgb(0, 0, 0);stroke-width:3.0;" d="M 793.708, 399.506 L 783.64, 407.99 L 774.696, 376.281 L 792.128, 366.345 z "/>
<path style="fill:rgb(70, 255, 31);fill-opacity:1.0;fill-rule:evenodd;stroke:rgb(0, 0, 0);stroke-width:3.0;" d="M 741.441, 403.152 L 722.959, 418.308 L 718.717, 415.98 L 721.787, 392.509 z "/>
<path style="fill:rgb(70, 255, 31);fill-opacity:1.0;fill-rule:evenodd;stroke:rgb(0, 0, 0);stroke-width:3.0;" d="M 767.238, 446.763 L 761.908, 481.419 L 759.432, 482.909 L 731.699, 471.024 L 761.125, 435.124 z "/>
<path style="fill:rgb(255, 255, 12);fill-opacity:1.0;fill-rule:evenodd;stroke:rgb(0, 0, 0);stroke-width:3.0;" d="M 732.572, 286.255 L 704.474, 299.702 L 696.387, 301.086 L 715.1, 288.647 L 732.659, 286.137 z "/>
<path style="fill:rgb(255, 12, 138);fill-opacity:1.0;fill-rule:evenodd;stroke:rgb(0, 0, 0);stroke-width:3.0;" d="M 300.842, 559.025 L 292.166, 566.435 L 283.02, 557.02 L 292.829, 553.041 z "/>
<path style="fill:rgb(255, 3, 255);fill-opacity:1.0;fill-rule:evenodd;stroke:rgb(0, 0, 0);stroke-width:3.0;" d="M 783.205, 512.439 L 771.864, 523.261 L 769.958, 508.095 L 774.023, 503.238 z "/>
<path style="fill:rgb(255, 3, 255);fill-opacity:1.0;fill-rule:evenodd;stroke:rgb(0, 0, 0);stroke-width:3.0;" d="M 90.169, 380.659 L 73.1998, 395.203 L 58.7612, 378.271 L 60.5749, 343.186 L 72.1091, 339.82 z "/>
<path style="fill:rgb(9, 154, 255);fill-opacity:1.0;fill-rule:evenodd;stroke:rgb(0, 0, 0);stroke-width:3.0;" d="M 108.704, 436.841 L 106.918, 493.639 L 106.412, 493.69 L 59.6816, 429.599 L 67.5118, 388.533 z "/>
<path style="fill:rgb(9, 154, 255);fill-opacity:1.0;fill-rule:evenodd;stroke:rgb(0, 0, 0);stroke-width:3.0;" d="M 743.957, 435.334 L 740.884, 440.099 L 713.631, 454.853 L 715.43, 441.103 L 742.577, 429.984 z "/>
<path style="fill:rgb(246, 246, 13);fill-opacity:1.0;fill-rule:evenodd;stroke:rgb(0, 0, 0);stroke-width:3.0;" d="M 188.617, 313.727 L 197.588, 351.068 L 191.252, 363.131 L 165.154, 354.043 L 185.555, 313.034 z "/>
<path style="fill:rgb(246, 246, 13);fill-opacity:1.0;fill-rule:evenodd;stroke:rgb(0, 0, 0);stroke-width:3.0;" d="M 90.97, 334.315 L 60.5749, 343.186 L 60.9897, 335.162 L 94.4973, 327.573 z "/>
<path style="fill:rgb(32, 1, 197);fill-opacity:1.0;fill-rule:evenodd;stroke:rgb(0, 0, 0);stroke-width:3.0;" d="M 218.399, 311.452 L 214.166, 319.511 L 197.316, 315.696 L 200.978, 301.382 z "/>
<path style="fill:rgb(32, 1, 197);fill-opacity:1.0;fill-rule:evenodd;stroke:rgb(0, 0, 0);stroke-width:3.0;" d="M 684.705, 513.973 L 678.537, 521.665 L 676.685, 522.334 L 663.846, 509.1 L 663.968, 508.908 L 664.928, 508.903 z "/>
<path style="fill:rgb(177, 10, 223);fill-opacity:1.0;fill-rule:evenodd;stroke:rgb(0, 0, 0);stroke-width:3.0;" d="M 90.9987, 553.976 L 73.735, 586.84 L 62.0651, 581.805 L 62.6675, 579.088 L 85.6586, 549.814 z "/>
<path style="fill:rgb(255, 217, 10);fill-opacity:1.0;fill-rule:evenodd;stroke:rgb(0, 0, 0);stroke-width:3.0;" d="M 459.945, 285.036 L 461.03, 302.97 L 444.488, 283.824 z "/>
<path style="fill:rgb(255, 255, 11);fill-opacity:1.0;fill-rule:evenodd;stroke:rgb(0, 0, 0);stroke-width:3.0;" d="M 214.166, 319.511 L 209.732, 327.952 L 203.209, 333.977 L 199.516, 330.066 L 203.418, 317.078 z "/>
<path style="fill:rgb(255, 255, 11);fill-opacity:1.0;fill-rule:evenodd;stroke:rgb(0, 0, 0);stroke-width:3.0;" d="M 303.22, 463.258 L 314.702, 494.526 L 148.587, 444.348 L 178.993, 386.467 z "/>
<path style="fill:rgb(255, 255, 11);fill-opacity:1.0;fill-rule:evenodd;stroke:rgb(0, 0, 0);stroke-width:3.0;" d="M 468.464, 148.702 L 511.001, 282.507 L 511.22, 285.163 L 491.268, 280.716 L 477.514, 258.446 L 434.982, 126.189 z "/>
<path style="fill:rgb(184, 231, 231);fill-opacity:1.0;fill-rule:evenodd;stroke:rgb(0, 0, 0);stroke-width:3.0;" d="M 642.861, 510.669 L 633.029, 516.445 L 598.927, 507.363 L 594.094, 504.708 L 644.664, 501.027 z "/>
<path style="fill:rgb(184, 231, 231);fill-opacity:1.0;fill-rule:evenodd;stroke:rgb(0, 0, 0);stroke-width:3.0;" d="M 743.07, 429.343 L 741.003, 430.628 L 736.372, 432.525 L 718.169, 420.169 L 718.717, 415.98 z "/>
<path style="fill:rgb(126, 21, 223);fill-opacity:1.0;fill-rule:evenodd;stroke:rgb(0, 0, 0);stroke-width:3.0;" d="M 690.869, 330.045 L 688.859, 345.241 L 664.533, 333.66 L 667.046, 320.373 z "/>
<path style="fill:rgb(126, 21, 223);fill-opacity:1.0;fill-rule:evenodd;stroke:rgb(0, 0, 0);stroke-width:3.0;" d="M 662.19, 349.184 L 652.673, 393.513 L 602.93, 400.924 L 587.985, 365.99 L 645.296, 334.571 z "/>
<path style="fill:rgb(126, 21, 223);fill-opacity:1.0;fill-rule:evenodd;stroke:rgb(0, 0, 0);stroke-width:3.0;" d="M 733.253, 551.954 L 697.331, 594.878 L 693.43, 531.36 L 712.706, 529.832 z "/>
<path style="fill:rgb(223, 1, 13);fill-opacity:1.0;fill-rule:evenodd;stroke:rgb(0, 0, 0);stroke-width:3.0;" d="M 485.428, 91.6342 L 452.545, 98.6271 L 446.03, 78.1359 L 468.66, 68.8578 z "/>
<path style="fill:rgb(223, 1, 13);fill-opacity:1.0;fill-rule:evenodd;stroke:rgb(0, 0, 0);stroke-width:3.0;" d="M 771.668, 423.201 L 763.303, 416.743 L 766.199, 395.528 L 769.146, 393.659 z "/>
<path style="fill:rgb(223, 1, 13);fill-opacity:1.0;fill-rule:evenodd;stroke:rgb(0, 0, 0);stroke-width:3.0;" d="M 145.527, 326.169 L 164.488, 355.381 L 140.273, 404.055 L 116.252, 364.864 L 117.934, 313.473 z "/>
<path style="fill:rgb(223, 1, 13);fill-opacity:1.0;fill-rule:evenodd;stroke:rgb(0, 0, 0);stroke-width:3.0;" d="M 733.253, 551.954 L 712.706, 529.832 L 754.542, 526.516 z "/>
<path style="fill:rgb(25, 82, 246);fill-opacity:1.0;fill-rule:evenodd;stroke:rgb(0, 0, 0);stroke-width:3.0;" d="M 439.239, 263.428 L 441.754, 280.66 L 433.949, 271.626 L 425.956, 253.91 z "/>
<path style="fill:rgb(255, 22, 192);fill-opacity:1.0;fill-rule:evenodd;stroke:rgb(0, 0, 0);stroke-width:3.0;" d="M 287.271, 561.396 L 235.344, 592.929 L 201.25, 590.195 L 283.02, 557.02 z "/>
<path style="fill:rgb(255, 226, 184);fill-opacity:1.0;fill-rule:evenodd;stroke:rgb(0, 0, 0);stroke-width:3.0;" d="M 365.805, 442.266 L 311.973, 463.754 L 307.101, 379.335 L 312.501, 376.444 z "/>
<path style="fill:rgb(62, 226, 234);fill-opacity:1.0;fill-rule:evenodd;stroke:rgb(0, 0, 0);stroke-width:3.0;" d="M 93.0578, 517.095 L 82.5498, 526.075 L 79.9206, 522.212 L 90.0198, 498.759 z "/>
<path style="fill:rgb(8, 159, 255);fill-opacity:1.0;fill-rule:evenodd;stroke:rgb(0, 0, 0);stroke-width:3.0;" d="M 37.0542, 106.593 L 30.5715, 106.651 L 14.758, 101.603 L 43.4624, 95.5601 z "/>
<path style="fill:rgb(8, 159, 255);fill-opacity:1.0;fill-rule:evenodd;stroke:rgb(0, 0, 0);stroke-width:3.0;" d="M 228.728, 468.556 L 106.783, 523.929 L 148.587, 444.348 z "/>
<path style="fill:rgb(252, 217, 12);fill-opacity:1.0;fill-rule:evenodd;stroke:rgb(0, 0, 0);stroke-width:3.0;" d="M 361.777, 81.0787 L 353.444, 99.9203 L 337.748, 94.1134 L 337.315, 93.4594 L 339.721, 80.4989 L 341.531, 77.054 L 351.812, 73.9936 z "/>
<path style="fill:rgb(36, 246, 38);fill-opacity:1.0;fill-rule:evenodd;stroke:rgb(0, 0, 0);stroke-width:3.0;" d="M 519.11, 308.014 L 521.395, 315.199 L 517.226, 322.75 L 513.866, 317.309 L 512.317, 298.486 L 512.714, 297.967 z "/>
<path style="fill:rgb(36, 246, 38);fill-opacity:1.0;fill-rule:evenodd;stroke:rgb(0, 0, 0);stroke-width:3.0;" d="M 63.1594, 293.19 L 61.2577, 329.976 L 58.5427, 331.236 L 19.5261, 291.739 z "/>
<path style="fill:rgb(255, 170, 19);fill-opacity:1.0;fill-rule:evenodd;stroke:rgb(0, 0, 0);stroke-width:3.0;" d="M 758.43, 385.552 L 743.544, 394.037 L 738.528, 385.865 L 738.607, 379.202 L 755.145, 378.16 z "/>
<path style="fill:rgb(255, 15, 60);fill-opacity:1.0;fill-rule:evenodd;stroke:rgb(0, 0, 0);stroke-width:3.0;" d="M 651.485, 521.361 L 633.029, 516.445 L 653.351, 504.506 z "/>
<path style="fill:rgb(255, 15, 60);fill-opacity:1.0;fill-rule:evenodd;stroke:rgb(0, 0, 0);stroke-width:3.0;" d="M 565.213, 574.042 L 564.323, 589.353 L 557.956, 590.438 L 531.322, 581.124 L 542.888, 567.478 L 554.089, 564.733 z "/>
<path style="fill:rgb(255, 15, 60);fill-opacity:1.0;fill-rule:evenodd;stroke:rgb(0, 0, 0);stroke-width:3.0;" d="M 67.5118, 388.533 L 59.6816, 429.599 L 57.8695, 427.114 L 63.4462, 383.765 z "/>
<path style="fill:rgb(255, 15, 60);fill-opacity:1.0;fill-rule:evenodd;stroke:rgb(0, 0, 0);stroke-width:3.0;" d="M 116.592, 354.46 L 113.187, 458.5 L 107.674, 469.581 L 111.39, 351.454 z "/>
<path style="fill:rgb(255, 54, 24);fill-opacity:1.0;fill-rule:evenodd;stroke:rgb(0, 0, 0);stroke-width:3.0;" d="M 692.552, 317.322 L 690.872, 330.021 L 678.783, 321.355 L 678.175, 314.173 z "/>
<path style="fill:rgb(192, 228, 110);fill-opacity:1.0;fill-rule:evenodd;stroke:rgb(0, 0, 0);stroke-width:3.0;" d="M 429.868, 181.294 L 406.13, 201.934 L 409.197, 147.823 z "/>
<path style="fill:rgb(192, 228, 110);fill-opacity:1.0;fill-rule:evenodd;stroke:rgb(0, 0, 0);stroke-width:3.0;" d="M 696.26, 577.443 L 696.712, 584.803 L 696.183, 594.775 L 669.676, 570.681 z "/>
<path style="fill:rgb(192, 228, 110);fill-opacity:1.0;fill-rule:evenodd;stroke:rgb(0, 0, 0);stroke-width:3.0;" d="M 352.67, 508.71 L 346.317, 524.289 L 316.336, 498.975 L 312.516, 488.572 L 331.878, 477.751 z "/>
<path style="fill:rgb(47, 14, 255);fill-opacity:1.0;fill-rule:evenodd;stroke:rgb(0, 0, 0);stroke-width:3.0;" d="M 468.464, 148.702 L 434.982, 126.189 L 418.266, 74.212 L 442.869, 68.1905 z "/>
<path style="fill:rgb(47, 14, 255);fill-opacity:1.0;fill-rule:evenodd;stroke:rgb(0, 0, 0);stroke-width:3.0;" d="M 352.67, 508.71 L 331.878, 477.751 L 375.161, 453.562 z "/>
<path style="fill:rgb(60, 212, 197);fill-opacity:1.0;fill-rule:evenodd;stroke:rgb(0, 0, 0);stroke-width:3.0;" d="M 117.291, 333.112 L 116.592, 354.46 L 111.39, 351.454 L 112.288, 322.909 z "/>
<path style="fill:rgb(60, 212, 197);fill-opacity:1.0;fill-rule:evenodd;stroke:rgb(0, 0, 0);stroke-width:3.0;" d="M 772.619, 385.29 L 790.682, 437.88 L 779.027, 428.882 L 769.174, 384.168 z "/>
<path style="fill:rgb(255, 255, 54);fill-opacity:1.0;fill-rule:evenodd;stroke:rgb(0, 0, 0);stroke-width:3.0;" d="M 735.561, 472.68 L 758.516, 486.505 L 764.199, 495.791 L 720.96, 484.126 L 731.699, 471.024 z "/>
<path style="fill:rgb(252, 142, 37);fill-opacity:1.0;fill-rule:evenodd;stroke:rgb(0, 0, 0);stroke-width:3.0;" d="M 379.35, 502.702 L 369.865, 520.999 L 368.428, 501.59 z "/>
<path style="fill:rgb(252, 142, 37);fill-opacity:1.0;fill-rule:evenodd;stroke:rgb(0, 0, 0);stroke-width:3.0;" d="M 379.35, 502.702 L 368.428, 501.59 L 367.063, 483.14 L 412.732, 432.566 L 416.926, 430.222 z "/>
<path style="fill:rgb(252, 142, 37);fill-opacity:1.0;fill-rule:evenodd;stroke:rgb(0, 0, 0);stroke-width:3.0;" d="M 690.694, 364.244 L 689.098, 365.484 L 682.698, 356.612 L 682.534, 353.95 L 691.93, 341.238 z "/>
<path style="fill:rgb(234, 78, 126);fill-opacity:1.0;fill-rule:evenodd;stroke:rgb(0, 0, 0);stroke-width:3.0;" d="M 753.478, 420.566 L 751, 424.41 L 743.07, 429.343 L 726.008, 419.981 L 748.049, 410.23 z "/>
<path style="fill:rgb(255, 240, 16);fill-opacity:1.0;fill-rule:evenodd;stroke:rgb(0, 0, 0);stroke-width:3.0;" d="M 309.744, 425.127 L 286.887, 418.784 L 278.101, 394.859 L 307.101, 379.335 z "/>
<path style="fill:rgb(255, 246, 25);fill-opacity:1.0;fill-rule:evenodd;stroke:rgb(0, 0, 0);stroke-width:3.0;" d="M 487.778, 294.148 L 484.837, 296.102 L 425.956, 253.91 L 420.633, 242.111 L 406.36, 201.734 L 412.948, 196.006 z "/>
<path style="fill:rgb(255, 223, 20);fill-opacity:1.0;fill-rule:evenodd;stroke:rgb(0, 0, 0);stroke-width:3.0;" d="M 359.785, 185.788 L 317.577, 264.434 L 313.697, 198.478 L 344.359, 167.933 z "/>
<path style="fill:rgb(255, 51, 21);fill-opacity:1.0;fill-rule:evenodd;stroke:rgb(0, 0, 0);stroke-width:3.0;" d="M 710.853, 476.092 L 710.646, 477.677 L 693.228, 499.389 L 689.934, 470.472 z "/>
<path style="fill:rgb(246, 240, 10);fill-opacity:1.0;fill-rule:evenodd;stroke:rgb(0, 0, 0);stroke-width:3.0;" d="M 611.195, 486.561 L 592.268, 496.541 L 586.008, 497.275 L 623.19, 456.11 z "/>
<path style="fill:rgb(184, 0, 34);fill-opacity:1.0;fill-rule:evenodd;stroke:rgb(0, 0, 0);stroke-width:3.0;" d="M 203.418, 317.078 L 196.472, 340.2 L 195.249, 341.33 L 188.617, 313.727 z "/>
<path style="fill:rgb(252, 21, 187);fill-opacity:1.0;fill-rule:evenodd;stroke:rgb(0, 0, 0);stroke-width:3.0;" d="M 466.526, 282.981 L 475.904, 320.186 L 461.03, 302.97 L 459.517, 277.959 z "/>
<path style="fill:rgb(252, 91, 16);fill-opacity:1.0;fill-rule:evenodd;stroke:rgb(0, 0, 0);stroke-width:3.0;" d="M 792.539, 561.863 L 769.627, 565.723 L 771.007, 524.079 L 772.414, 522.737 z "/>
<path style="fill:rgb(39, 110, 212);fill-opacity:1.0;fill-rule:evenodd;stroke:rgb(0, 0, 0);stroke-width:3.0;" d="M 721.132, 378.146 L 723.869, 385.309 L 720.619, 389.999 L 698.244, 373.447 z "/>
<path style="fill:rgb(39, 110, 212);fill-opacity:1.0;fill-rule:evenodd;stroke:rgb(0, 0, 0);stroke-width:3.0;" d="M 321.052, 461.227 L 317.857, 485.587 L 312.516, 488.572 L 304.497, 466.738 L 319.866, 460.603 z "/>
<path style="fill:rgb(15, 15, 207);fill-opacity:1.0;fill-rule:evenodd;stroke:rgb(0, 0, 0);stroke-width:3.0;" d="M 426.576, 16.9397 L 433.017, 37.2009 L 409.752, 27.6653 L 408.035, 16.835 z "/>
<path style="fill:rgb(255, 31, 234);fill-opacity:1.0;fill-rule:evenodd;stroke:rgb(0, 0, 0);stroke-width:3.0;" d="M 99.7625, 372.437 L 90.169, 380.659 L 72.1091, 339.82 L 74.7619, 339.045 z "/>
<path style="fill:rgb(255, 31, 234);fill-opacity:1.0;fill-rule:evenodd;stroke:rgb(0, 0, 0);stroke-width:3.0;" d="M 711.825, 468.661 L 710.853, 476.092 L 689.934, 470.472 L 689.405, 465.829 L 689.306, 464.218 L 695.608, 456.035 z "/>
<path style="fill:rgb(255, 31, 234);fill-opacity:1.0;fill-rule:evenodd;stroke:rgb(0, 0, 0);stroke-width:3.0;" d="M 20.2151, 135.583 L 18.0905, 123.514 L 24.4208, 106.707 L 37.0542, 106.593 z "/>
<path style="fill:rgb(231, 0, 48);fill-opacity:1.0;fill-rule:evenodd;stroke:rgb(0, 0, 0);stroke-width:3.0;" d="M 780.82, 372.79 L 769.021, 379.516 L 739.216, 328.02 L 739.24, 326.002 L 743.198, 324.524 z "/>
<path style="fill:rgb(29, 170, 255);fill-opacity:1.0;fill-rule:evenodd;stroke:rgb(0, 0, 0);stroke-width:3.0;" d="M 573.764, 373.786 L 551.706, 385.879 L 556.157, 367.655 L 570.409, 360.457 z "/>
<path style="fill:rgb(29, 170, 255);fill-opacity:1.0;fill-rule:evenodd;stroke:rgb(0, 0, 0);stroke-width:3.0;" d="M 696.387, 439.22 L 697.559, 441.687 L 692.915, 453.938 L 688.462, 450.472 L 687.522, 435.158 z "/>
<path style="fill:rgb(12, 246, 255);fill-opacity:1.0;fill-rule:evenodd;stroke:rgb(0, 0, 0);stroke-width:3.0;" d="M 699.375, 592.436 L 733.953, 551.118 L 753.42, 540.862 z "/>
<path style="fill:rgb(12, 246, 255);fill-opacity:1.0;fill-rule:evenodd;stroke:rgb(0, 0, 0);stroke-width:3.0;" d="M 315.919, 570.285 L 295.966, 570.346 L 292.166, 566.435 L 300.842, 559.025 z "/>
<path style="fill:rgb(255, 204, 30);fill-opacity:1.0;fill-rule:evenodd;stroke:rgb(0, 0, 0);stroke-width:3.0;" d="M 109.67, 406.151 L 99.8866, 385.949 L 110.833, 369.185 z "/>
<path style="fill:rgb(223, 231, 62);fill-opacity:1.0;fill-rule:evenodd;stroke:rgb(0, 0, 0);stroke-width:3.0;" d="M 171.453, 341.382 L 164.488, 355.381 L 149.963, 333.003 z "/>
<path style="fill:rgb(223, 231, 62);fill-opacity:1.0;fill-rule:evenodd;stroke:rgb(0, 0, 0);stroke-width:3.0;" d="M 62.2311, 557.146 L 49.8714, 574.114 L 48.9791, 567.498 L 49.2993, 561.304 L 51.3523, 558.251 L 60.0892, 556.67 z "/>
<path style="fill:rgb(223, 231, 62);fill-opacity:1.0;fill-rule:evenodd;stroke:rgb(0, 0, 0);stroke-width:3.0;" d="M 191.252, 363.131 L 154.671, 432.766 L 154.049, 432.326 L 153.407, 377.656 L 165.154, 354.043 z "/>
<path style="fill:rgb(231, 1, 255);fill-opacity:1.0;fill-rule:evenodd;stroke:rgb(0, 0, 0);stroke-width:3.0;" d="M 688.859, 345.241 L 688.835, 345.426 L 679.411, 358.176 L 667.655, 335.146 z "/>
<path style="fill:rgb(231, 1, 255);fill-opacity:1.0;fill-rule:evenodd;stroke:rgb(0, 0, 0);stroke-width:3.0;" d="M 76.4294, 328.219 L 61.477, 325.734 L 62.2929, 309.953 L 67.5233, 305.594 z "/>
<path style="fill:rgb(255, 252, 61);fill-opacity:1.0;fill-rule:evenodd;stroke:rgb(0, 0, 0);stroke-width:3.0;" d="M 335.488, 561.977 L 320.471, 577.56 L 310.647, 578.353 L 333.694, 550.647 z "/>
<path style="fill:rgb(240, 255, 33);fill-opacity:1.0;fill-rule:evenodd;stroke:rgb(0, 0, 0);stroke-width:3.0;" d="M 634.488, 526.904 L 631.923, 538.514 L 630.107, 539.17 L 618.708, 534.526 L 617.618, 532.325 L 623.107, 520.65 z "/>
<path style="fill:rgb(255, 41, 226);fill-opacity:1.0;fill-rule:evenodd;stroke:rgb(0, 0, 0);stroke-width:3.0;" d="M 323.584, 188.629 L 276.922, 235.115 L 285.389, 192.278 L 306.312, 167.311 z "/>
<path style="fill:rgb(255, 41, 226);fill-opacity:1.0;fill-rule:evenodd;stroke:rgb(0, 0, 0);stroke-width:3.0;" d="M 375.018, 453.642 L 346.426, 469.621 L 340.278, 452.455 L 365.805, 442.266 z "/>
<path style="fill:rgb(255, 252, 48);fill-opacity:1.0;fill-rule:evenodd;stroke:rgb(0, 0, 0);stroke-width:3.0;" d="M 309.744, 425.127 L 310.328, 435.249 L 296.074, 443.802 L 286.887, 418.784 z "/>
<path style="fill:rgb(255, 252, 48);fill-opacity:1.0;fill-rule:evenodd;stroke:rgb(0, 0, 0);stroke-width:3.0;" d="M 733.641, 514.171 L 709.981, 522.506 L 720.333, 498.874 L 722.531, 498.822 z "/>
<path style="fill:rgb(199, 76, 255);fill-opacity:1.0;fill-rule:evenodd;stroke:rgb(0, 0, 0);stroke-width:3.0;" d="M 776.439, 499.093 L 733.641, 514.171 L 722.531, 498.822 L 771.164, 497.67 z "/>
<path style="fill:rgb(78, 40, 255);fill-opacity:1.0;fill-rule:evenodd;stroke:rgb(0, 0, 0);stroke-width:3.0;" d="M 534.759, 357.237 L 529.865, 362.954 L 511.616, 355.83 L 507.329, 351.693 L 531.271, 346.266 z "/>
<path style="fill:rgb(78, 40, 255);fill-opacity:1.0;fill-rule:evenodd;stroke:rgb(0, 0, 0);stroke-width:3.0;" d="M 721.497, 470.167 L 718.592, 474.673 L 710.432, 479.309 L 713.097, 458.938 L 715.44, 453.874 L 719.501, 451.675 z "/>
<path style="fill:rgb(255, 192, 24);fill-opacity:1.0;fill-rule:evenodd;stroke:rgb(0, 0, 0);stroke-width:3.0;" d="M 728.439, 459.401 L 721.497, 470.167 L 719.501, 451.675 L 730.721, 445.601 z "/>
<path style="fill:rgb(255, 114, 7);fill-opacity:1.0;fill-rule:evenodd;stroke:rgb(0, 0, 0);stroke-width:3.0;" d="M 790.877, 23.921 L 765.058, 29.6123 L 760.505, 25.2753 L 762.324, 21.8079 z "/>
<path style="fill:rgb(252, 21, 187);fill-opacity:1.0;fill-rule:evenodd;stroke:rgb(0, 0, 0);stroke-width:3.0;" d="M 317.577, 264.434 L 274.308, 345.058 L 261.81, 250.169 L 313.697, 198.478 z "/>
<path style="fill:rgb(252, 21, 187);fill-opacity:1.0;fill-rule:evenodd;stroke:rgb(0, 0, 0);stroke-width:3.0;" d="M 619.384, 439.384 L 578.47, 494.736 L 545.028, 389.54 L 587.985, 365.99 z "/>
<path style="fill:rgb(60, 168, 240);fill-opacity:1.0;fill-rule:evenodd;stroke:rgb(0, 0, 0);stroke-width:3.0;" d="M 783.413, 339.428 L 783.197, 339.685 L 750.973, 321.62 L 770.341, 314.386 z "/>
<path style="fill:rgb(60, 168, 240);fill-opacity:1.0;fill-rule:evenodd;stroke:rgb(0, 0, 0);stroke-width:3.0;" d="M 692.552, 317.322 L 680.491, 314.681 L 677.799, 309.727 L 677.514, 306.362 L 695.181, 297.439 z "/>
<path style="fill:rgb(26, 140, 220);fill-opacity:1.0;fill-rule:evenodd;stroke:rgb(0, 0, 0);stroke-width:3.0;" d="M 274.308, 345.058 L 265.701, 361.095 L 235.509, 278.881 L 238.276, 273.614 L 261.81, 250.169 z "/>
<path style="fill:rgb(177, 3, 255);fill-opacity:1.0;fill-rule:evenodd;stroke:rgb(0, 0, 0);stroke-width:3.0;" d="M 135.194, 414.265 L 113.698, 442.907 L 114.544, 417.057 L 136.989, 410.656 z "/>
<path style="fill:rgb(226, 0, 47);fill-opacity:1.0;fill-rule:evenodd;stroke:rgb(0, 0, 0);stroke-width:3.0;" d="M 654.649, 488.016 L 619.581, 497.256 L 635.273, 474.557 z "/>
<path style="fill:rgb(226, 0, 47);fill-opacity:1.0;fill-rule:evenodd;stroke:rgb(0, 0, 0);stroke-width:3.0;" d="M 666.841, 334.759 L 678.077, 358.689 L 673.154, 358.668 L 661.68, 348.743 L 664.533, 333.66 z "/>
<path style="fill:rgb(226, 0, 47);fill-opacity:1.0;fill-rule:evenodd;stroke:rgb(0, 0, 0);stroke-width:3.0;" d="M 752.919, 418.536 L 773.989, 442.202 L 776.061, 455.94 L 774.488, 456.253 L 769.389, 450.858 L 752.073, 417.891 z "/>
<path style="fill:rgb(226, 0, 47);fill-opacity:1.0;fill-rule:evenodd;stroke:rgb(0, 0, 0);stroke-width:3.0;" d="M 93.9399, 292.294 L 107.888, 308.333 L 104.572, 309.189 L 77.5013, 288.572 z "/>
<path style="fill:rgb(226, 0, 47);fill-opacity:1.0;fill-rule:evenodd;stroke:rgb(0, 0, 0);stroke-width:3.0;" d="M 788.079, 486.442 L 783.355, 492.086 L 765.541, 457.799 L 767.238, 446.763 z "/>
<path style="fill:rgb(17, 82, 199);fill-opacity:1.0;fill-rule:evenodd;stroke:rgb(0, 0, 0);stroke-width:3.0;" d="M 433.017, 37.2009 L 442.869, 68.1905 L 418.266, 74.212 L 416.024, 67.2394 L 409.752, 27.6653 z "/>
<path style="fill:rgb(255, 252, 8);fill-opacity:1.0;fill-rule:evenodd;stroke:rgb(0, 0, 0);stroke-width:3.0;" d="M 62.6078, 579.358 L 57.5993, 579.383 L 65.1941, 552.172 L 71.3734, 539.835 z "/>
<path style="fill:rgb(82, 223, 40);fill-opacity:1.0;fill-rule:evenodd;stroke:rgb(0, 0, 0);stroke-width:3.0;" d="M 106.348, 434.078 L 73.1998, 395.203 L 77.1017, 391.859 z "/>
<path style="fill:rgb(240, 161, 204);fill-opacity:1.0;fill-rule:evenodd;stroke:rgb(0, 0, 0);stroke-width:3.0;" d="M 109.67, 406.151 L 108.704, 436.841 L 106.348, 434.078 L 77.1017, 391.859 L 95.2262, 376.325 z "/>
<path style="fill:rgb(255, 177, 58);fill-opacity:1.0;fill-rule:evenodd;stroke:rgb(0, 0, 0);stroke-width:3.0;" d="M 335.84, 139.725 L 334.456, 142.854 L 324.847, 136.83 L 322.728, 134.888 L 316.449, 124.801 L 320.862, 116.399 L 336.828, 92.4208 z "/>
<path style="fill:rgb(255, 177, 58);fill-opacity:1.0;fill-rule:evenodd;stroke:rgb(0, 0, 0);stroke-width:3.0;" d="M 688.206, 446.307 L 681.594, 466.346 L 672.052, 483.431 L 654.649, 488.016 L 635.273, 474.557 L 636.026, 473.467 L 688.185, 445.964 z "/>
<path style="fill:rgb(79, 207, 255);fill-opacity:1.0;fill-rule:evenodd;stroke:rgb(0, 0, 0);stroke-width:3.0;" d="M 303.22, 463.258 L 178.993, 386.467 L 235.509, 278.881 z "/>
<path style="fill:rgb(243, 226, 10);fill-opacity:1.0;fill-rule:evenodd;stroke:rgb(0, 0, 0);stroke-width:3.0;" d="M 468.66, 68.8578 L 446.03, 78.1359 L 423.639, 7.7027 z "/>
<path style="fill:rgb(243, 226, 10);fill-opacity:1.0;fill-rule:evenodd;stroke:rgb(0, 0, 0);stroke-width:3.0;" d="M 337.829, 576.757 L 339.129, 584.969 L 329.583, 593.773 L 324.272, 593.577 L 333.292, 575.338 z "/>
<path style="fill:rgb(212, 8, 132);fill-opacity:1.0;fill-rule:evenodd;stroke:rgb(0, 0, 0);stroke-width:3.0;" d="M 47.9589, 587.232 L 47.9355, 587.684 L 35.8803, 591.724 L 31.0394, 591.393 L 22.9422, 582.525 L 35.3837, 578.098 z "/>
<path style="fill:rgb(215, 85, 10);fill-opacity:1.0;fill-rule:evenodd;stroke:rgb(0, 0, 0);stroke-width:3.0;" d="M 185.102, 111.469 L 7.48808, 157.494 L 62.8224, 62.2296 z "/>
<path style="fill:rgb(249, 0, 10);fill-opacity:1.0;fill-rule:evenodd;stroke:rgb(0, 0, 0);stroke-width:3.0;" d="M 191.817, 109.729 L 185.102, 111.469 L 62.8224, 62.2296 L 66.3412, 56.1717 z "/>
<path style="fill:rgb(249, 42, 20);fill-opacity:1.0;fill-rule:evenodd;stroke:rgb(0, 0, 0);stroke-width:3.0;" d="M 324.272, 593.577 L 305.696, 592.891 L 323.207, 574.721 L 335.576, 570.72 z "/>
<path style="fill:rgb(18, 161, 209);fill-opacity:1.0;fill-rule:evenodd;stroke:rgb(0, 0, 0);stroke-width:3.0;" d="M 606.279, 582.21 L 580.267, 586.639 L 574.285, 581.633 L 589.443, 556.066 L 597.352, 554.128 z "/>
<path style="fill:rgb(255, 249, 6);fill-opacity:1.0;fill-rule:evenodd;stroke:rgb(0, 0, 0);stroke-width:3.0;" d="M 63.5613, 285.416 L 63.1594, 293.19 L 39.1336, 292.391 L 36.4189, 279.272 z "/>
<path style="fill:rgb(159, 207, 255);fill-opacity:1.0;fill-rule:evenodd;stroke:rgb(0, 0, 0);stroke-width:3.0;" d="M 793.41, 279.879 L 793.512, 280.663 L 777.448, 328 L 769.307, 312.407 L 766.081, 272.922 z "/>
<path style="fill:rgb(255, 249, 26);fill-opacity:1.0;fill-rule:evenodd;stroke:rgb(0, 0, 0);stroke-width:3.0;" d="M 340.525, 453.146 L 336.791, 469.499 L 332.81, 467.407 L 327.523, 457.547 L 340.278, 452.455 z "/>
<path style="fill:rgb(255, 249, 26);fill-opacity:1.0;fill-rule:evenodd;stroke:rgb(0, 0, 0);stroke-width:3.0;" d="M 793.41, 279.879 L 766.081, 272.922 L 763.726, 244.107 L 784.956, 215.386 z "/>
<path style="fill:rgb(32, 2, 255);fill-opacity:1.0;fill-rule:evenodd;stroke:rgb(0, 0, 0);stroke-width:3.0;" d="M 662.969, 499.694 L 644.828, 501.015 L 655.071, 487.905 L 672.052, 483.431 z "/>
<path style="fill:rgb(159, 255, 255);fill-opacity:1.0;fill-rule:evenodd;stroke:rgb(0, 0, 0);stroke-width:3.0;" d="M 157.793, 306.749 L 179.092, 313.315 L 118.062, 309.571 L 118.187, 305.757 L 129.566, 300.359 z "/>
<path style="fill:rgb(159, 255, 255);fill-opacity:1.0;fill-rule:evenodd;stroke:rgb(0, 0, 0);stroke-width:3.0;" d="M 64.9248, 533.652 L 61.8714, 557.066 L 49.6589, 554.348 L 51.2786, 523.016 z "/>
<path style="fill:rgb(33, 39, 228);fill-opacity:1.0;fill-rule:evenodd;stroke:rgb(0, 0, 0);stroke-width:3.0;" d="M 85.6586, 549.814 L 73.2484, 565.616 L 73.7684, 540.546 z "/>
<path style="fill:rgb(249, 128, 22);fill-opacity:1.0;fill-rule:evenodd;stroke:rgb(0, 0, 0);stroke-width:3.0;" d="M 73.7684, 540.546 L 73.2484, 565.616 L 67.9542, 572.357 L 65.5443, 566.117 L 71.5921, 538.849 z "/>
<path style="fill:rgb(255, 25, 199);fill-opacity:1.0;fill-rule:evenodd;stroke:rgb(0, 0, 0);stroke-width:3.0;" d="M 551.706, 385.879 L 545.028, 389.54 L 540.573, 375.526 L 556.157, 367.655 z "/>
<path style="fill:rgb(255, 212, 14);fill-opacity:1.0;fill-rule:evenodd;stroke:rgb(0, 0, 0);stroke-width:3.0;" d="M 557.956, 590.438 L 537.124, 593.985 L 528.429, 584.537 L 531.322, 581.124 z "/>
<path style="fill:rgb(223, 8, 59);fill-opacity:1.0;fill-rule:evenodd;stroke:rgb(0, 0, 0);stroke-width:3.0;" d="M 790.865, 353.703 L 778.693, 370.06 L 768.571, 357.075 L 775.264, 349.117 L 786.361, 345.075 z "/>
<path style="fill:rgb(16, 121, 255);fill-opacity:1.0;fill-rule:evenodd;stroke:rgb(0, 0, 0);stroke-width:3.0;" d="M 367.063, 483.14 L 366.454, 474.912 L 375.161, 453.562 L 412.732, 432.566 z "/>
<path style="fill:rgb(255, 252, 78);fill-opacity:1.0;fill-rule:evenodd;stroke:rgb(0, 0, 0);stroke-width:3.0;" d="M 324.78, 145.273 L 317.251, 154.258 L 305.397, 145.839 L 312.911, 131.536 z "/>
<path style="fill:rgb(255, 132, 45);fill-opacity:1.0;fill-rule:evenodd;stroke:rgb(0, 0, 0);stroke-width:3.0;" d="M 451.129, 271.948 L 459.069, 284.828 L 451.335, 284.24 L 445.662, 279.648 L 443.071, 266.174 z "/>
<path style="fill:rgb(231, 7, 234);fill-opacity:1.0;fill-rule:evenodd;stroke:rgb(0, 0, 0);stroke-width:3.0;" d="M 317.251, 154.258 L 302.323, 172.071 L 302.201, 171.943 L 302.522, 151.313 L 305.397, 145.839 z "/>
<path style="fill:rgb(252, 255, 37);fill-opacity:1.0;fill-rule:evenodd;stroke:rgb(0, 0, 0);stroke-width:3.0;" d="M 311.973, 463.754 L 304.497, 466.738 L 296.074, 443.802 L 310.328, 435.249 z "/>
<path style="fill:rgb(69, 159, 240);fill-opacity:1.0;fill-rule:evenodd;stroke:rgb(0, 0, 0);stroke-width:3.0;" d="M 124.972, 414.083 L 114.544, 417.057 L 115.98, 373.185 z "/>
<path style="fill:rgb(175, 128, 255);fill-opacity:1.0;fill-rule:evenodd;stroke:rgb(0, 0, 0);stroke-width:3.0;" d="M 140.273, 404.055 L 136.989, 410.656 L 124.972, 414.083 L 115.98, 373.185 L 116.252, 364.864 z "/>
<path style="fill:rgb(9, 0, 249);fill-opacity:1.0;fill-rule:evenodd;stroke:rgb(0, 0, 0);stroke-width:3.0;" d="M 129.504, 477.278 L 106.335, 512.164 L 107.674, 469.581 L 111.439, 462.014 z "/>
<path style="fill:rgb(255, 255, 123);fill-opacity:1.0;fill-rule:evenodd;stroke:rgb(0, 0, 0);stroke-width:3.0;" d="M 143.835, 425.091 L 147.866, 427.947 L 148.62, 444.287 L 138.044, 464.419 L 129.504, 477.278 L 111.439, 462.014 L 130.434, 423.833 z "/>
<path style="fill:rgb(255, 170, 9);fill-opacity:1.0;fill-rule:evenodd;stroke:rgb(0, 0, 0);stroke-width:3.0;" d="M 767.536, 486.382 L 776.996, 498.897 L 776.439, 499.093 L 764.199, 495.791 L 763.456, 494.577 L 758.064, 482.323 z "/>
<path style="fill:rgb(255, 228, 82);fill-opacity:1.0;fill-rule:evenodd;stroke:rgb(0, 0, 0);stroke-width:3.0;" d="M 734.911, 580.033 L 716.168, 576.411 L 727.417, 565.676 z "/>
</svg>