<?xml version="1.0" encoding="iso-8859-1" standalone="no"?>
<!DOCTYPE svg PUBLIC "-//W3C//DTD SVG 1.0//EN" "http://www.w3.org/TR/2001/REC-SVG-20010904/DTD/svg10.dtd">
<svg xmlns="http://www.w3.org/2000/svg" width="800" height="600">
<path style="fill:rgb(0, 0, 0);fill-opacity:0.0;fill-rule:evenodd;stroke:rgb(0, 0, 0);stroke-width:0.0;" d="M 0, 600 L 800, 600 L 800, 0 L 0, 0 z "/>
<path style="fill:rgb(61, 192, 231);fill-opacity:1.0;fill-rule:evenodd;stroke:rgb(0, 0, 0);stroke-width:3.0;" d="M 788.999, 273.637 L 771.416, 282.805 L 762.776, 259.192 L 776.087, 250.187 z "/>
<path style="fill:rgb(107, 91, 255);fill-opacity:1.0;fill-rule:evenodd;stroke:rgb(0, 0, 0);stroke-width:3.0;" d="M 71.6628, 105.72 L 70.5218, 114.022 L 42.8624, 88.3737 L 42.2823, 87.6085 L 38.3034, 81.0647 L 41.0003, 80.9373 z "/>
<path style="fill:rgb(107, 91, 255);fill-opacity:1.0;fill-rule:evenodd;stroke:rgb(0, 0, 0);stroke-width:3.0;" d="M 37.6567, 98.3217 L 27.9614, 89.5235 L 20.7617, 79.6243 L 24.4128, 68.4095 z "/>
<path style="fill:rgb(184, 150, 255);fill-opacity:1.0;fill-rule:evenodd;stroke:rgb(0, 0, 0);stroke-width:3.0;" d="M 120.801, 352.828 L 92.0537, 345.142 L 105.079, 329.068 L 127.797, 329.007 z "/>
<path style="fill:rgb(184, 150, 255);fill-opacity:1.0;fill-rule:evenodd;stroke:rgb(0, 0, 0);stroke-width:3.0;" d="M 63.3542, 465.302 L 12.0853, 450.582 L 60.8549, 436.118 z "/>
<path style="fill:rgb(19, 179, 255);fill-opacity:1.0;fill-rule:evenodd;stroke:rgb(0, 0, 0);stroke-width:3.0;" d="M 231.124, 450.525 L 232.173, 456.158 L 67.489, 513.586 L 65.8712, 494.694 L 218.749, 444.088 z "/>
<path style="fill:rgb(40, 2, 212);fill-opacity:1.0;fill-rule:evenodd;stroke:rgb(0, 0, 0);stroke-width:3.0;" d="M 189.8, 107.468 L 186.106, 115.723 L 177.78, 106.13 L 192.172, 90.8058 z "/>
<path style="fill:rgb(40, 2, 212);fill-opacity:1.0;fill-rule:evenodd;stroke:rgb(0, 0, 0);stroke-width:3.0;" d="M 148.403, 39.4775 L 143.174, 48.1545 L 136.653, 34.7595 L 137.249, 26.3247 L 146.753, 23.9281 z "/>
<path style="fill:rgb(40, 2, 212);fill-opacity:1.0;fill-rule:evenodd;stroke:rgb(0, 0, 0);stroke-width:3.0;" d="M 218.749, 444.088 L 65.8712, 494.694 L 65.7197, 492.925 L 169.794, 418.621 z "/>
<path style="fill:rgb(228, 1, 10);fill-opacity:1.0;fill-rule:evenodd;stroke:rgb(0, 0, 0);stroke-width:3.0;" d="M 81.7315, 372.811 L 84.3529, 374.174 L 81.5189, 375.509 L 67.01, 380.44 L 66.7263, 376.461 L 70.4251, 369.032 z "/>
<path style="fill:rgb(228, 1, 10);fill-opacity:1.0;fill-rule:evenodd;stroke:rgb(0, 0, 0);stroke-width:3.0;" d="M 31.2518, 73.0582 L 41.0021, 85.9198 L 39.3973, 95.8611 L 37.018, 96.8792 L 24.4128, 68.4095 L 24.6392, 67.7137 z "/>
<path style="fill:rgb(255, 197, 43);fill-opacity:1.0;fill-rule:evenodd;stroke:rgb(0, 0, 0);stroke-width:3.0;" d="M 56.6559, 387.083 L 57.7479, 399.835 L 34.9068, 385.335 L 34.1643, 383.21 z "/>
<path style="fill:rgb(255, 197, 43);fill-opacity:1.0;fill-rule:evenodd;stroke:rgb(0, 0, 0);stroke-width:3.0;" d="M 157.279, 93.8095 L 136.576, 98.1887 L 114.234, 96.1765 L 114.7, 95.4027 L 160.298, 84.4685 z "/>
<path style="fill:rgb(255, 197, 43);fill-opacity:1.0;fill-rule:evenodd;stroke:rgb(0, 0, 0);stroke-width:3.0;" d="M 189.347, 226.261 L 190.463, 232.249 L 165.164, 246.055 L 166.93, 231.825 L 173.485, 216.529 z "/>
<path style="fill:rgb(255, 197, 43);fill-opacity:1.0;fill-rule:evenodd;stroke:rgb(0, 0, 0);stroke-width:3.0;" d="M 80.1674, 137.992 L 77.0571, 140.813 L 64.6912, 140.025 L 63.4261, 138.286 L 64.3689, 128.895 z "/>
<path style="fill:rgb(255, 23, 172);fill-opacity:1.0;fill-rule:evenodd;stroke:rgb(0, 0, 0);stroke-width:3.0;" d="M 124.168, 60.265 L 129.438, 70.9468 L 125.608, 77.3025 L 102.235, 56.0308 L 104.393, 39.516 z "/>
<path style="fill:rgb(255, 23, 172);fill-opacity:1.0;fill-rule:evenodd;stroke:rgb(0, 0, 0);stroke-width:3.0;" d="M 187.482, 50.4032 L 195.882, 64.7368 L 193.212, 83.4956 L 173.149, 60.6164 L 178.838, 42.2603 z "/>
<path style="fill:rgb(255, 23, 172);fill-opacity:1.0;fill-rule:evenodd;stroke:rgb(0, 0, 0);stroke-width:3.0;" d="M 161.784, 79.8693 L 160.298, 84.4685 L 114.7, 95.4027 L 125.283, 77.8427 L 139.819, 76.0918 z "/>
<path style="fill:rgb(255, 23, 172);fill-opacity:1.0;fill-rule:evenodd;stroke:rgb(0, 0, 0);stroke-width:3.0;" d="M 195.206, 417.685 L 199.104, 432.924 L 197.619, 433.096 L 194.425, 431.434 L 186.525, 418.099 L 193.002, 416.096 z "/>
<path style="fill:rgb(220, 61, 255);fill-opacity:1.0;fill-rule:evenodd;stroke:rgb(0, 0, 0);stroke-width:3.0;" d="M 190.457, 87.9616 L 161.834, 78.5658 L 160.895, 73.5216 L 175.206, 65.6632 z "/>
<path style="fill:rgb(41, 228, 255);fill-opacity:1.0;fill-rule:evenodd;stroke:rgb(0, 0, 0);stroke-width:3.0;" d="M 172.236, 134.406 L 166.258, 157.929 L 66.0801, 200.751 L 165.23, 96.7951 z "/>
<path style="fill:rgb(255, 28, 15);fill-opacity:1.0;fill-rule:evenodd;stroke:rgb(0, 0, 0);stroke-width:3.0;" d="M 35.787, 503.446 L 36.3801, 504.393 L 25.4686, 519.011 L 12.9122, 526.904 L 18.7775, 498.251 z "/>
<path style="fill:rgb(243, 50, 79);fill-opacity:1.0;fill-rule:evenodd;stroke:rgb(0, 0, 0);stroke-width:3.0;" d="M 65.3682, 177.263 L 52.1025, 199.276 L 50.9182, 194.411 L 57.937, 169.764 z "/>
<path style="fill:rgb(243, 50, 79);fill-opacity:1.0;fill-rule:evenodd;stroke:rgb(0, 0, 0);stroke-width:3.0;" d="M 317.758, 588.027 L 289.234, 570.699 L 289.268, 566.903 L 302.555, 560.571 z "/>
<path style="fill:rgb(252, 255, 9);fill-opacity:1.0;fill-rule:evenodd;stroke:rgb(0, 0, 0);stroke-width:3.0;" d="M 270.445, 466.493 L 264.662, 474.207 L 248.478, 476.835 L 249.689, 458.033 L 269.535, 456.158 z "/>
<path style="fill:rgb(252, 249, 45);fill-opacity:1.0;fill-rule:evenodd;stroke:rgb(0, 0, 0);stroke-width:3.0;" d="M 146.358, 543.579 L 42.4694, 522.311 L 145.292, 486.455 L 179.907, 479.682 z "/>
<path style="fill:rgb(252, 249, 45);fill-opacity:1.0;fill-rule:evenodd;stroke:rgb(0, 0, 0);stroke-width:3.0;" d="M 761.767, 203.079 L 754.165, 202 L 746.005, 198.985 L 754.037, 189.517 L 780.894, 182.321 z "/>
<path style="fill:rgb(252, 249, 45);fill-opacity:1.0;fill-rule:evenodd;stroke:rgb(0, 0, 0);stroke-width:3.0;" d="M 157.94, 391.432 L 146.209, 406.352 L 140.111, 403.18 L 142.667, 394.35 L 144.059, 393.167 L 147.22, 391.091 z "/>
<path style="fill:rgb(102, 231, 94);fill-opacity:1.0;fill-rule:evenodd;stroke:rgb(0, 0, 0);stroke-width:3.0;" d="M 416.843, 564.016 L 417.961, 585.655 L 417.886, 585.743 L 398.739, 566.109 L 410.35, 556.708 z "/>
<path style="fill:rgb(102, 231, 94);fill-opacity:1.0;fill-rule:evenodd;stroke:rgb(0, 0, 0);stroke-width:3.0;" d="M 173.133, 36.8857 L 178.838, 42.2603 L 173.149, 60.6164 L 166.811, 53.3884 L 153.816, 34.3879 z "/>
<path style="fill:rgb(102, 231, 94);fill-opacity:1.0;fill-rule:evenodd;stroke:rgb(0, 0, 0);stroke-width:3.0;" d="M 317.86, 539.086 L 317.773, 540.284 L 309.3, 544.697 L 292.964, 544.783 L 289.497, 541.494 L 289.97, 489.098 L 304.281, 484.401 z "/>
<path style="fill:rgb(102, 231, 94);fill-opacity:1.0;fill-rule:evenodd;stroke:rgb(0, 0, 0);stroke-width:3.0;" d="M 465.882, 529.17 L 426.806, 575.23 L 413.309, 560.038 L 411.74, 513.675 z "/>
<path style="fill:rgb(102, 231, 94);fill-opacity:1.0;fill-rule:evenodd;stroke:rgb(0, 0, 0);stroke-width:3.0;" d="M 90.7184, 79.8702 L 81.6764, 91.3552 L 59.8273, 92.5395 L 53.8688, 91.3379 L 24.867, 67.8978 L 45.8608, 40.051 z "/>
<path style="fill:rgb(102, 231, 94);fill-opacity:1.0;fill-rule:evenodd;stroke:rgb(0, 0, 0);stroke-width:3.0;" d="M 98.4041, 381.484 L 84.4711, 387.779 L 72.271, 381.859 L 86.119, 375.093 z "/>
<path style="fill:rgb(102, 231, 94);fill-opacity:1.0;fill-rule:evenodd;stroke:rgb(0, 0, 0);stroke-width:3.0;" d="M 139.345, 120.371 L 95.6986, 165.154 L 74.7834, 161.64 L 111.041, 101.474 z "/>
<path style="fill:rgb(70, 94, 255);fill-opacity:1.0;fill-rule:evenodd;stroke:rgb(0, 0, 0);stroke-width:3.0;" d="M 127.797, 329.007 L 105.079, 329.068 L 140.68, 285.137 z "/>
<path style="fill:rgb(70, 94, 255);fill-opacity:1.0;fill-rule:evenodd;stroke:rgb(0, 0, 0);stroke-width:3.0;" d="M 155.318, 99.8767 L 153.333, 106.019 L 144.126, 115.466 L 129.4, 113.732 L 111.041, 101.474 L 114.234, 96.1765 z "/>
<path style="fill:rgb(255, 26, 177);fill-opacity:1.0;fill-rule:evenodd;stroke:rgb(0, 0, 0);stroke-width:3.0;" d="M 137.243, 26.4163 L 136.471, 37.344 L 129.854, 30.917 L 129.203, 20.5841 L 133.223, 18.0892 z "/>
<path style="fill:rgb(240, 220, 199);fill-opacity:1.0;fill-rule:evenodd;stroke:rgb(0, 0, 0);stroke-width:3.0;" d="M 264.403, 525.473 L 256.55, 549.595 L 249.523, 549.298 L 244.712, 523.47 z "/>
<path style="fill:rgb(32, 226, 161);fill-opacity:1.0;fill-rule:evenodd;stroke:rgb(0, 0, 0);stroke-width:3.0;" d="M 245.571, 487.321 L 247.635, 488.445 L 241.823, 507.961 L 237.628, 485.441 z "/>
<path style="fill:rgb(255, 252, 55);fill-opacity:1.0;fill-rule:evenodd;stroke:rgb(0, 0, 0);stroke-width:3.0;" d="M 186.106, 115.723 L 173.855, 143.098 L 168.759, 115.737 L 177.78, 106.13 z "/>
<path style="fill:rgb(255, 252, 55);fill-opacity:1.0;fill-rule:evenodd;stroke:rgb(0, 0, 0);stroke-width:3.0;" d="M 772.98, 184.442 L 758.548, 188.308 L 759.54, 183.03 L 769.666, 171.095 z "/>
<path style="fill:rgb(255, 252, 55);fill-opacity:1.0;fill-rule:evenodd;stroke:rgb(0, 0, 0);stroke-width:3.0;" d="M 216.445, 371.725 L 227.116, 429.01 L 209.026, 427.651 L 180.957, 407.411 L 195.902, 358.89 z "/>
<path style="fill:rgb(34, 212, 255);fill-opacity:1.0;fill-rule:evenodd;stroke:rgb(0, 0, 0);stroke-width:3.0;" d="M 134.234, 392.88 L 131.163, 398.525 L 110.533, 387.793 L 111.283, 385.237 L 128.302, 377.616 z "/>
<path style="fill:rgb(34, 212, 255);fill-opacity:1.0;fill-rule:evenodd;stroke:rgb(0, 0, 0);stroke-width:3.0;" d="M 187.44, 386.362 L 172.897, 407.812 L 159.535, 409.141 L 188.219, 383.834 z "/>
<path style="fill:rgb(228, 8, 55);fill-opacity:1.0;fill-rule:evenodd;stroke:rgb(0, 0, 0);stroke-width:3.0;" d="M 89.8142, 420.248 L 82.9568, 432.546 L 58.9171, 413.489 L 57.7494, 399.853 L 67.9215, 395.257 z "/>
<path style="fill:rgb(223, 255, 29);fill-opacity:1.0;fill-rule:evenodd;stroke:rgb(0, 0, 0);stroke-width:3.0;" d="M 203.877, 31.3631 L 174.358, 16.5518 L 173.538, 15.4577 L 202.988, 7.67955 z "/>
<path style="fill:rgb(223, 255, 29);fill-opacity:1.0;fill-rule:evenodd;stroke:rgb(0, 0, 0);stroke-width:3.0;" d="M 179.616, 174.021 L 182.429, 222.016 L 171.3, 215.188 L 168.688, 189.765 L 177.169, 160.887 z "/>
<path style="fill:rgb(18, 19, 179);fill-opacity:1.0;fill-rule:evenodd;stroke:rgb(0, 0, 0);stroke-width:3.0;" d="M 476.755, 516.354 L 432.156, 484.567 L 506.809, 480.928 z "/>
<path style="fill:rgb(255, 249, 18);fill-opacity:1.0;fill-rule:evenodd;stroke:rgb(0, 0, 0);stroke-width:3.0;" d="M 86.9867, 454.137 L 94.8327, 472.139 L 89.9182, 475.648 L 64.9415, 483.837 L 62.7147, 457.834 L 65.738, 430.243 z "/>
<path style="fill:rgb(255, 249, 18);fill-opacity:1.0;fill-rule:evenodd;stroke:rgb(0, 0, 0);stroke-width:3.0;" d="M 205.854, 314.874 L 186.725, 296.37 L 192.878, 285.059 L 198.998, 278.07 z "/>
<path style="fill:rgb(172, 126, 255);fill-opacity:1.0;fill-rule:evenodd;stroke:rgb(0, 0, 0);stroke-width:3.0;" d="M 400.862, 546.029 L 401.781, 563.646 L 398.739, 566.109 L 391.237, 558.416 L 386.677, 530.063 z "/>
<path style="fill:rgb(255, 121, 15);fill-opacity:1.0;fill-rule:evenodd;stroke:rgb(0, 0, 0);stroke-width:3.0;" d="M 277.933, 236.555 L 204.815, 309.294 L 186.42, 210.549 L 187.156, 209.322 L 270.831, 148.654 z "/>
<path style="fill:rgb(255, 121, 15);fill-opacity:1.0;fill-rule:evenodd;stroke:rgb(0, 0, 0);stroke-width:3.0;" d="M 45.2997, 440.731 L 15.2752, 449.636 L 15.0006, 445.758 L 41.7157, 435.955 z "/>
<path style="fill:rgb(255, 121, 15);fill-opacity:1.0;fill-rule:evenodd;stroke:rgb(0, 0, 0);stroke-width:3.0;" d="M 727.545, 564.041 L 682.284, 577.499 L 637.267, 393.381 z "/>
<path style="fill:rgb(255, 121, 15);fill-opacity:1.0;fill-rule:evenodd;stroke:rgb(0, 0, 0);stroke-width:3.0;" d="M 144.899, 373.271 L 141.469, 379.578 L 131.609, 386.123 L 123.237, 364.581 L 129.792, 357.095 z "/>
<path style="fill:rgb(255, 121, 15);fill-opacity:1.0;fill-rule:evenodd;stroke:rgb(0, 0, 0);stroke-width:3.0;" d="M 120.801, 352.828 L 118.152, 361.849 L 99.9556, 382.291 L 71.4607, 367.468 L 90.1686, 344.638 z "/>
<path style="fill:rgb(255, 121, 15);fill-opacity:1.0;fill-rule:evenodd;stroke:rgb(0, 0, 0);stroke-width:3.0;" d="M 85.7503, 97.7669 L 91.6715, 121.891 L 53.8688, 91.3379 z "/>
<path style="fill:rgb(255, 121, 15);fill-opacity:1.0;fill-rule:evenodd;stroke:rgb(0, 0, 0);stroke-width:3.0;" d="M 185.294, 478.628 L 168.961, 481.824 L 174.608, 476.232 L 196.097, 468.738 z "/>
<path style="fill:rgb(249, 246, 61);fill-opacity:1.0;fill-rule:evenodd;stroke:rgb(0, 0, 0);stroke-width:3.0;" d="M 233.858, 416.472 L 237.21, 454.554 L 232.521, 458.026 L 231.199, 450.93 L 229.255, 415.392 z "/>
<path style="fill:rgb(249, 246, 61);fill-opacity:1.0;fill-rule:evenodd;stroke:rgb(0, 0, 0);stroke-width:3.0;" d="M 279.748, 259.012 L 257.623, 260.711 L 257.792, 256.592 L 277.933, 236.555 z "/>
<path style="fill:rgb(249, 246, 61);fill-opacity:1.0;fill-rule:evenodd;stroke:rgb(0, 0, 0);stroke-width:3.0;" d="M 78.0798, 110.906 L 83.4222, 140.231 L 82.3572, 140.471 L 69.261, 123.196 L 71.6628, 105.72 z "/>
<path style="fill:rgb(7, 126, 228);fill-opacity:1.0;fill-rule:evenodd;stroke:rgb(0, 0, 0);stroke-width:3.0;" d="M 82.4606, 18.4001 L 84.3265, 31.7687 L 79.6232, 34.9349 L 71.5519, 12.8938 L 72.7981, 11.9856 z "/>
<path style="fill:rgb(7, 126, 228);fill-opacity:1.0;fill-rule:evenodd;stroke:rgb(0, 0, 0);stroke-width:3.0;" d="M 154.516, 410.673 L 93.956, 417.474 L 108.776, 386.879 z "/>
<path style="fill:rgb(7, 126, 228);fill-opacity:1.0;fill-rule:evenodd;stroke:rgb(0, 0, 0);stroke-width:3.0;" d="M 158.953, 409.654 L 158.268, 410.258 L 157.414, 410.153 L 167.212, 373.5 L 176.739, 365.408 z "/>
<path style="fill:rgb(13, 15, 255);fill-opacity:1.0;fill-rule:evenodd;stroke:rgb(0, 0, 0);stroke-width:3.0;" d="M 176.256, 246.075 L 149.848, 259.756 L 154.518, 252.18 L 169.627, 243.717 z "/>
<path style="fill:rgb(255, 9, 123);fill-opacity:1.0;fill-rule:evenodd;stroke:rgb(0, 0, 0);stroke-width:3.0;" d="M 317.904, 588.292 L 321.149, 594.151 L 289.183, 576.33 L 289.208, 573.563 z "/>
<path style="fill:rgb(98, 157, 255);fill-opacity:1.0;fill-rule:evenodd;stroke:rgb(0, 0, 0);stroke-width:3.0;" d="M 177.669, 313.021 L 172.903, 321.784 L 165.275, 316.578 L 176.553, 303.7 z "/>
<path style="fill:rgb(98, 157, 255);fill-opacity:1.0;fill-rule:evenodd;stroke:rgb(0, 0, 0);stroke-width:3.0;" d="M 60.6793, 434.066 L 60.8549, 436.118 L 45.2997, 440.731 L 22.7683, 410.705 L 33.1077, 402.745 z "/>
<path style="fill:rgb(170, 146, 177);fill-opacity:1.0;fill-rule:evenodd;stroke:rgb(0, 0, 0);stroke-width:3.0;" d="M 791.662, 254.037 L 774.967, 235.78 L 791.477, 221.933 z "/>
<path style="fill:rgb(226, 24, 42);fill-opacity:1.0;fill-rule:evenodd;stroke:rgb(0, 0, 0);stroke-width:3.0;" d="M 125.608, 77.3025 L 124.564, 79.035 L 115.125, 76.5521 L 100.827, 66.8115 L 102.235, 56.0308 z "/>
<path style="fill:rgb(226, 24, 42);fill-opacity:1.0;fill-rule:evenodd;stroke:rgb(0, 0, 0);stroke-width:3.0;" d="M 476.755, 516.354 L 465.882, 529.17 L 453.506, 525.628 L 463.872, 507.172 z "/>
<path style="fill:rgb(226, 24, 42);fill-opacity:1.0;fill-rule:evenodd;stroke:rgb(0, 0, 0);stroke-width:3.0;" d="M 95.7071, 71.4446 L 78.8466, 67.0096 L 70.6548, 62.0601 L 67.7623, 59.4925 L 68.5314, 52.1586 L 71.7202, 50.3982 z "/>
<path style="fill:rgb(226, 24, 42);fill-opacity:1.0;fill-rule:evenodd;stroke:rgb(0, 0, 0);stroke-width:3.0;" d="M 95.2427, 71.3224 L 119.701, 87.1041 L 117.674, 90.4689 L 78.8466, 67.0096 z "/>
<path style="fill:rgb(9, 234, 255);fill-opacity:1.0;fill-rule:evenodd;stroke:rgb(0, 0, 0);stroke-width:3.0;" d="M 69.8992, 191.625 L 57.3801, 204.47 L 46.055, 209.311 L 59.7766, 186.542 L 75.2636, 180.035 z "/>
<path style="fill:rgb(255, 237, 16);fill-opacity:1.0;fill-rule:evenodd;stroke:rgb(0, 0, 0);stroke-width:3.0;" d="M 280.033, 490.019 L 286.153, 550.848 L 263.067, 549.871 L 260.617, 537.103 L 277.17, 486.258 z "/>
<path style="fill:rgb(255, 237, 16);fill-opacity:1.0;fill-rule:evenodd;stroke:rgb(0, 0, 0);stroke-width:3.0;" d="M 25.758, 117.842 L 23.8684, 123.282 L 15.3362, 125.549 L 14.5357, 109.191 L 15.4466, 107.897 z "/>
<path style="fill:rgb(215, 148, 83);fill-opacity:1.0;fill-rule:evenodd;stroke:rgb(0, 0, 0);stroke-width:3.0;" d="M 191.379, 286.77 L 114.379, 374.695 L 140.46, 285.888 z "/>
<path style="fill:rgb(255, 3, 255);fill-opacity:1.0;fill-rule:evenodd;stroke:rgb(0, 0, 0);stroke-width:3.0;" d="M 166.464, 251.685 L 148.999, 279.846 L 141.695, 281.68 L 147.826, 260.804 L 166.21, 251.28 z "/>
<path style="fill:rgb(255, 3, 255);fill-opacity:1.0;fill-rule:evenodd;stroke:rgb(0, 0, 0);stroke-width:3.0;" d="M 319.73, 485.091 L 307.557, 497.592 L 299.233, 464.073 z "/>
<path style="fill:rgb(255, 3, 255);fill-opacity:1.0;fill-rule:evenodd;stroke:rgb(0, 0, 0);stroke-width:3.0;" d="M 198.998, 278.07 L 191.379, 286.77 L 140.46, 285.888 L 141.695, 281.68 L 197.08, 267.773 z "/>
<path style="fill:rgb(231, 7, 234);fill-opacity:1.0;fill-rule:evenodd;stroke:rgb(0, 0, 0);stroke-width:3.0;" d="M 23.3127, 391.619 L 15.1249, 400.52 L 11.45, 395.622 L 10.8726, 387.469 L 19.5409, 387.334 z "/>
<path style="fill:rgb(231, 7, 234);fill-opacity:1.0;fill-rule:evenodd;stroke:rgb(0, 0, 0);stroke-width:3.0;" d="M 47.977, 182.33 L 25.3419, 191.4 L 18.2551, 189.499 L 45.2262, 171.031 z "/>
<path style="fill:rgb(255, 19, 24);fill-opacity:1.0;fill-rule:evenodd;stroke:rgb(0, 0, 0);stroke-width:3.0;" d="M 164.059, 357.998 L 135.008, 400.525 L 131.163, 398.525 L 149.259, 365.254 L 165.09, 353.858 z "/>
<path style="fill:rgb(8, 234, 202);fill-opacity:1.0;fill-rule:evenodd;stroke:rgb(0, 0, 0);stroke-width:3.0;" d="M 390.932, 556.519 L 356.557, 521.884 L 363.477, 493.944 L 380.276, 490.264 z "/>
<path style="fill:rgb(255, 64, 255);fill-opacity:1.0;fill-rule:evenodd;stroke:rgb(0, 0, 0);stroke-width:3.0;" d="M 104.216, 396.294 L 78.5581, 399.758 L 74.9269, 393.64 L 106.969, 390.612 z "/>
<path style="fill:rgb(255, 64, 255);fill-opacity:1.0;fill-rule:evenodd;stroke:rgb(0, 0, 0);stroke-width:3.0;" d="M 183.938, 359.293 L 158.319, 381.055 L 168.448, 340.369 L 174.214, 332.811 z "/>
<path style="fill:rgb(255, 33, 57);fill-opacity:1.0;fill-rule:evenodd;stroke:rgb(0, 0, 0);stroke-width:3.0;" d="M 194.664, 362.908 L 174.766, 370.318 L 176.739, 365.408 L 199.972, 345.674 z "/>
<path style="fill:rgb(64, 252, 255);fill-opacity:1.0;fill-rule:evenodd;stroke:rgb(0, 0, 0);stroke-width:3.0;" d="M 26.8041, 65.3283 L 24.867, 67.8978 L 7.20233, 53.6207 L 23.7133, 30.7546 z "/>
<path style="fill:rgb(64, 252, 255);fill-opacity:1.0;fill-rule:evenodd;stroke:rgb(0, 0, 0);stroke-width:3.0;" d="M 177.169, 160.887 L 144.683, 271.506 L 52.1413, 206.71 L 175.854, 153.827 z "/>
<path style="fill:rgb(249, 202, 9);fill-opacity:1.0;fill-rule:evenodd;stroke:rgb(0, 0, 0);stroke-width:3.0;" d="M 190.833, 375.347 L 171.743, 388.632 L 171.771, 377.766 L 174.766, 370.318 L 194.664, 362.908 z "/>
<path style="fill:rgb(255, 21, 70);fill-opacity:1.0;fill-rule:evenodd;stroke:rgb(0, 0, 0);stroke-width:3.0;" d="M 111.373, 24.943 L 108.77, 35.8656 L 101.318, 30.9186 L 97.7686, 7.53974 z "/>
<path style="fill:rgb(237, 163, 172);fill-opacity:1.0;fill-rule:evenodd;stroke:rgb(0, 0, 0);stroke-width:3.0;" d="M 232.105, 176.732 L 187.156, 209.322 L 222.509, 150.393 z "/>
<path style="fill:rgb(237, 163, 172);fill-opacity:1.0;fill-rule:evenodd;stroke:rgb(0, 0, 0);stroke-width:3.0;" d="M 655.631, 335.865 L 632.57, 355.206 L 596.115, 375.662 L 629.904, 335.834 L 645.925, 325.483 z "/>
<path style="fill:rgb(237, 163, 172);fill-opacity:1.0;fill-rule:evenodd;stroke:rgb(0, 0, 0);stroke-width:3.0;" d="M 252.092, 420.748 L 250.55, 444.676 L 237.21, 454.554 L 233.858, 416.472 z "/>
<path style="fill:rgb(237, 163, 172);fill-opacity:1.0;fill-rule:evenodd;stroke:rgb(0, 0, 0);stroke-width:3.0;" d="M 157.253, 350.558 L 144.899, 373.271 L 129.792, 357.095 L 137.789, 347.964 L 142.944, 343.845 z "/>
<path style="fill:rgb(220, 49, 105);fill-opacity:1.0;fill-rule:evenodd;stroke:rgb(0, 0, 0);stroke-width:3.0;" d="M 286.365, 550.856 L 285.287, 588.133 L 281.915, 594.059 L 255.215, 579.85 L 249.523, 549.298 z "/>
<path style="fill:rgb(255, 21, 255);fill-opacity:1.0;fill-rule:evenodd;stroke:rgb(0, 0, 0);stroke-width:3.0;" d="M 358.228, 515.134 L 356.557, 521.884 L 348.799, 514.068 L 356.58, 499.852 z "/>
<path style="fill:rgb(207, 32, 237);fill-opacity:1.0;fill-rule:evenodd;stroke:rgb(0, 0, 0);stroke-width:3.0;" d="M 252.506, 565.309 L 256.129, 584.756 L 206.867, 579.597 L 187.873, 552.077 z "/>
<path style="fill:rgb(207, 32, 237);fill-opacity:1.0;fill-rule:evenodd;stroke:rgb(0, 0, 0);stroke-width:3.0;" d="M 299.233, 464.073 L 304.281, 484.401 L 289.97, 489.098 L 290.189, 464.734 L 294.527, 459.247 z "/>
<path style="fill:rgb(255, 47, 19);fill-opacity:1.0;fill-rule:evenodd;stroke:rgb(0, 0, 0);stroke-width:3.0;" d="M 67.2237, 375.462 L 64.2841, 381.366 L 56.3958, 384.046 L 55.5959, 374.706 L 62.1031, 369.08 z "/>
<path style="fill:rgb(255, 88, 69);fill-opacity:1.0;fill-rule:evenodd;stroke:rgb(0, 0, 0);stroke-width:3.0;" d="M 736.366, 580.716 L 707.092, 570.123 L 727.545, 564.041 z "/>
<path style="fill:rgb(217, 33, 10);fill-opacity:1.0;fill-rule:evenodd;stroke:rgb(0, 0, 0);stroke-width:3.0;" d="M 207.299, 45.8577 L 204.419, 45.7891 L 203.738, 27.6473 L 214.676, 18.1498 z "/>
<path style="fill:rgb(107, 240, 255);fill-opacity:1.0;fill-rule:evenodd;stroke:rgb(0, 0, 0);stroke-width:3.0;" d="M 124.564, 79.035 L 119.701, 87.1041 L 107.027, 78.9259 L 104.377, 73.7252 z "/>
<path style="fill:rgb(107, 240, 255);fill-opacity:1.0;fill-rule:evenodd;stroke:rgb(0, 0, 0);stroke-width:3.0;" d="M 791.662, 254.037 L 791.785, 275.379 L 790.262, 275.93 L 778.968, 255.418 L 789.27, 251.422 z "/>
<path style="fill:rgb(243, 192, 21);fill-opacity:1.0;fill-rule:evenodd;stroke:rgb(0, 0, 0);stroke-width:3.0;" d="M 190.457, 87.9616 L 192.211, 90.5269 L 192.172, 90.8058 L 176.835, 107.136 L 167.364, 108.252 L 161.834, 78.5658 z "/>
<path style="fill:rgb(255, 234, 30);fill-opacity:1.0;fill-rule:evenodd;stroke:rgb(0, 0, 0);stroke-width:3.0;" d="M 51.3455, 147.594 L 39.5381, 147.667 L 33.0099, 120.852 L 37.7518, 119.592 z "/>
<path style="fill:rgb(187, 220, 202);fill-opacity:1.0;fill-rule:evenodd;stroke:rgb(0, 0, 0);stroke-width:3.0;" d="M 411.74, 513.675 L 413.309, 560.038 L 386.677, 530.063 L 382.704, 505.365 z "/>
<path style="fill:rgb(255, 179, 217);fill-opacity:1.0;fill-rule:evenodd;stroke:rgb(0, 0, 0);stroke-width:3.0;" d="M 193.212, 83.4956 L 192.211, 90.5269 L 173.022, 62.4699 L 172.769, 60.1823 z "/>
<path style="fill:rgb(255, 179, 217);fill-opacity:1.0;fill-rule:evenodd;stroke:rgb(0, 0, 0);stroke-width:3.0;" d="M 82.8982, 141.185 L 85.2449, 144.28 L 77.3337, 157.408 L 67.5722, 143.987 L 82.0508, 141.131 z "/>
<path style="fill:rgb(255, 179, 217);fill-opacity:1.0;fill-rule:evenodd;stroke:rgb(0, 0, 0);stroke-width:3.0;" d="M 74.6227, 425.939 L 67.3884, 432.099 L 59.778, 423.541 L 58.9171, 413.489 z "/>
<path style="fill:rgb(255, 179, 217);fill-opacity:1.0;fill-rule:evenodd;stroke:rgb(0, 0, 0);stroke-width:3.0;" d="M 165.23, 96.7951 L 70.4823, 196.136 L 64.9691, 196.684 L 164.763, 94.2903 z "/>
<path style="fill:rgb(255, 100, 64);fill-opacity:1.0;fill-rule:evenodd;stroke:rgb(0, 0, 0);stroke-width:3.0;" d="M 289.627, 527.102 L 289.555, 535.096 L 284.672, 536.12 L 283.243, 521.921 L 285.807, 510.659 z "/>
<path style="fill:rgb(255, 0, 14);fill-opacity:1.0;fill-rule:evenodd;stroke:rgb(0, 0, 0);stroke-width:3.0;" d="M 774.684, 291.738 L 768.467, 295.73 L 766.601, 295.143 L 762.024, 289.003 L 762.513, 284.455 L 771.385, 282.721 z "/>
<path style="fill:rgb(255, 0, 14);fill-opacity:1.0;fill-rule:evenodd;stroke:rgb(0, 0, 0);stroke-width:3.0;" d="M 167.455, 331.8 L 167.236, 332.203 L 158.027, 337.673 L 150.721, 336.37 L 150.937, 332.95 L 158.342, 324.494 z "/>
<path style="fill:rgb(246, 110, 16);fill-opacity:1.0;fill-rule:evenodd;stroke:rgb(0, 0, 0);stroke-width:3.0;" d="M 79.6232, 34.9349 L 73.9644, 38.7442 L 65.4674, 27.693 L 71.5659, 12.9323 z "/>
<path style="fill:rgb(41, 0, 168);fill-opacity:1.0;fill-rule:evenodd;stroke:rgb(0, 0, 0);stroke-width:3.0;" d="M 699.084, 299.422 L 655.631, 335.865 L 645.925, 325.483 L 694.238, 294.265 z "/>
<path style="fill:rgb(255, 24, 94);fill-opacity:1.0;fill-rule:evenodd;stroke:rgb(0, 0, 0);stroke-width:3.0;" d="M 321.384, 551.597 L 304.232, 559.772 L 304.426, 558.501 L 315.838, 544.663 L 324.308, 544.619 z "/>
<path style="fill:rgb(226, 150, 144);fill-opacity:1.0;fill-rule:evenodd;stroke:rgb(0, 0, 0);stroke-width:3.0;" d="M 265.367, 522.513 L 264.403, 525.473 L 244.712, 523.47 L 244.604, 522.889 L 263.414, 501.645 z "/>
<path style="fill:rgb(226, 150, 144);fill-opacity:1.0;fill-rule:evenodd;stroke:rgb(0, 0, 0);stroke-width:3.0;" d="M 23.7459, 412.008 L 12.8553, 415.465 L 11.45, 395.622 z "/>
<path style="fill:rgb(226, 150, 144);fill-opacity:1.0;fill-rule:evenodd;stroke:rgb(0, 0, 0);stroke-width:3.0;" d="M 66.4542, 159.504 L 58.8328, 163.017 L 54.0223, 153.108 L 62.9393, 146.77 z "/>
<path style="fill:rgb(237, 249, 7);fill-opacity:1.0;fill-rule:evenodd;stroke:rgb(0, 0, 0);stroke-width:3.0;" d="M 273.401, 485.973 L 268.199, 492.554 L 262.935, 493.482 L 261.582, 492.192 L 260.181, 480.183 L 270.274, 466.721 z "/>
<path style="fill:rgb(255, 128, 28);fill-opacity:1.0;fill-rule:evenodd;stroke:rgb(0, 0, 0);stroke-width:3.0;" d="M 455.312, 143.696 L 384.623, 226.247 L 281.291, 278.113 L 270.177, 140.552 z "/>
<path style="fill:rgb(255, 128, 28);fill-opacity:1.0;fill-rule:evenodd;stroke:rgb(0, 0, 0);stroke-width:3.0;" d="M 114.863, 457.839 L 99.8259, 468.574 L 67.3884, 432.099 L 74.6227, 425.939 z "/>
<path style="fill:rgb(255, 128, 28);fill-opacity:1.0;fill-rule:evenodd;stroke:rgb(0, 0, 0);stroke-width:3.0;" d="M 169.794, 418.621 L 114.863, 457.839 L 85.6288, 434.664 L 93.956, 417.474 L 154.516, 410.673 z "/>
<path style="fill:rgb(246, 255, 64);fill-opacity:1.0;fill-rule:evenodd;stroke:rgb(0, 0, 0);stroke-width:3.0;" d="M 252.506, 565.309 L 146.358, 543.579 L 179.907, 479.682 L 234.563, 468.987 z "/>
<path style="fill:rgb(117, 249, 182);fill-opacity:1.0;fill-rule:evenodd;stroke:rgb(0, 0, 0);stroke-width:3.0;" d="M 169.158, 213.874 L 165.164, 246.055 L 153.111, 252.633 L 150.5, 251.7 L 162.761, 209.949 z "/>
<path style="fill:rgb(255, 220, 10);fill-opacity:1.0;fill-rule:evenodd;stroke:rgb(0, 0, 0);stroke-width:3.0;" d="M 248.226, 165.044 L 232.105, 176.732 L 222.509, 150.393 L 250.156, 104.31 z "/>
<path style="fill:rgb(255, 220, 10);fill-opacity:1.0;fill-rule:evenodd;stroke:rgb(0, 0, 0);stroke-width:3.0;" d="M 275.951, 445.8 L 270.363, 453.224 L 265.702, 452.902 L 254.971, 434.212 L 255.183, 433.141 L 258.99, 429.906 z "/>
<path style="fill:rgb(249, 16, 70);fill-opacity:1.0;fill-rule:evenodd;stroke:rgb(0, 0, 0);stroke-width:3.0;" d="M 637.267, 393.381 L 655.717, 468.841 L 424.868, 592.903 L 417.886, 585.743 L 566.361, 410.734 L 621.835, 364.209 z "/>
<path style="fill:rgb(33, 175, 255);fill-opacity:1.0;fill-rule:evenodd;stroke:rgb(0, 0, 0);stroke-width:3.0;" d="M 117.272, 364.844 L 109.14, 387.069 L 99.9556, 382.291 L 118.152, 361.849 z "/>
<path style="fill:rgb(255, 33, 14);fill-opacity:1.0;fill-rule:evenodd;stroke:rgb(0, 0, 0);stroke-width:3.0;" d="M 270.831, 148.654 L 248.226, 165.044 L 250.156, 104.31 L 265.22, 79.2005 z "/>
<path style="fill:rgb(255, 33, 14);fill-opacity:1.0;fill-rule:evenodd;stroke:rgb(0, 0, 0);stroke-width:3.0;" d="M 256.397, 290.609 L 254.964, 291.328 L 233.95, 280.309 L 257.792, 256.592 z "/>
<path style="fill:rgb(255, 33, 14);fill-opacity:1.0;fill-rule:evenodd;stroke:rgb(0, 0, 0);stroke-width:3.0;" d="M 281.291, 278.113 L 256.397, 290.609 L 257.623, 260.711 L 279.748, 259.012 z "/>
<path style="fill:rgb(255, 33, 14);fill-opacity:1.0;fill-rule:evenodd;stroke:rgb(0, 0, 0);stroke-width:3.0;" d="M 193.794, 310.47 L 198.192, 326.297 L 177.905, 327.971 L 192.624, 308.676 z "/>
<path style="fill:rgb(255, 14, 11);fill-opacity:1.0;fill-rule:evenodd;stroke:rgb(0, 0, 0);stroke-width:3.0;" d="M 229.63, 442.508 L 230.309, 446.15 L 229.14, 449.493 L 215.324, 442.306 L 218.902, 434.773 z "/>
<path style="fill:rgb(249, 28, 61);fill-opacity:1.0;fill-rule:evenodd;stroke:rgb(0, 0, 0);stroke-width:3.0;" d="M 213.78, 357.418 L 196.136, 358.129 L 203.867, 333.029 L 209.037, 331.96 z "/>
<path style="fill:rgb(255, 240, 7);fill-opacity:1.0;fill-rule:evenodd;stroke:rgb(0, 0, 0);stroke-width:3.0;" d="M 128.302, 377.616 L 111.283, 385.237 L 114.379, 374.695 L 123.237, 364.581 z "/>
<path style="fill:rgb(9, 64, 255);fill-opacity:1.0;fill-rule:evenodd;stroke:rgb(0, 0, 0);stroke-width:3.0;" d="M 57.5355, 164.949 L 50.7691, 193.799 L 42.4793, 159.748 L 49.6934, 155.764 z "/>
<path style="fill:rgb(231, 48, 13);fill-opacity:1.0;fill-rule:evenodd;stroke:rgb(0, 0, 0);stroke-width:3.0;" d="M 254.964, 291.328 L 206.042, 315.883 L 204.815, 309.294 L 233.95, 280.309 z "/>
<path style="fill:rgb(255, 21, 82);fill-opacity:1.0;fill-rule:evenodd;stroke:rgb(0, 0, 0);stroke-width:3.0;" d="M 162.872, 50.2395 L 170.396, 65.9233 L 160.252, 70.0732 L 156.255, 48.613 z "/>
<path style="fill:rgb(228, 24, 240);fill-opacity:1.0;fill-rule:evenodd;stroke:rgb(0, 0, 0);stroke-width:3.0;" d="M 179.331, 272.23 L 154.347, 278.503 L 158.538, 264.465 L 166.464, 251.685 z "/>
<path style="fill:rgb(112, 231, 34);fill-opacity:1.0;fill-rule:evenodd;stroke:rgb(0, 0, 0);stroke-width:3.0;" d="M 91.7615, 422.004 L 78.5581, 399.758 L 104.216, 396.294 z "/>
<path style="fill:rgb(255, 220, 36);fill-opacity:1.0;fill-rule:evenodd;stroke:rgb(0, 0, 0);stroke-width:3.0;" d="M 463.872, 507.172 L 453.506, 525.628 L 382.704, 505.365 L 380.276, 490.264 L 398.883, 486.188 L 432.156, 484.567 z "/>
<path style="fill:rgb(255, 154, 46);fill-opacity:1.0;fill-rule:evenodd;stroke:rgb(0, 0, 0);stroke-width:3.0;" d="M 33.1077, 402.745 L 22.7683, 410.705 L 15.1249, 400.52 L 23.3127, 391.619 z "/>
<path style="fill:rgb(234, 2, 11);fill-opacity:1.0;fill-rule:evenodd;stroke:rgb(0, 0, 0);stroke-width:3.0;" d="M 203.877, 31.3631 L 204.419, 45.7891 L 196.126, 45.5916 L 174.358, 16.5518 z "/>
<path style="fill:rgb(234, 2, 11);fill-opacity:1.0;fill-rule:evenodd;stroke:rgb(0, 0, 0);stroke-width:3.0;" d="M 349.364, 515.479 L 364.532, 531.032 L 336.155, 544.557 L 325.438, 544.613 L 324.091, 526.155 L 323.855, 515.27 z "/>
<path style="fill:rgb(220, 51, 12);fill-opacity:1.0;fill-rule:evenodd;stroke:rgb(0, 0, 0);stroke-width:3.0;" d="M 331.127, 496.777 L 349.364, 515.479 L 323.855, 515.27 L 323.434, 495.82 z "/>
<path style="fill:rgb(240, 50, 14);fill-opacity:1.0;fill-rule:evenodd;stroke:rgb(0, 0, 0);stroke-width:3.0;" d="M 54.2075, 358.493 L 55.9365, 378.683 L 25.5608, 358.591 L 19.1536, 340.257 z "/>
<path style="fill:rgb(255, 150, 255);fill-opacity:1.0;fill-rule:evenodd;stroke:rgb(0, 0, 0);stroke-width:3.0;" d="M 57.7479, 399.835 L 60.6793, 434.066 L 50.8597, 422.911 L 45.5552, 415.805 L 34.9068, 385.335 z "/>
<path style="fill:rgb(30, 33, 255);fill-opacity:1.0;fill-rule:evenodd;stroke:rgb(0, 0, 0);stroke-width:3.0;" d="M 65.5789, 176.914 L 60.9636, 167.407 L 61.6218, 165.135 L 66.5911, 162.681 L 75.813, 159.931 z "/>
<path style="fill:rgb(228, 255, 28);fill-opacity:1.0;fill-rule:evenodd;stroke:rgb(0, 0, 0);stroke-width:3.0;" d="M 321.65, 487.059 L 317.86, 539.086 L 307.557, 497.592 L 319.73, 485.091 z "/>
<path style="fill:rgb(243, 45, 65);fill-opacity:1.0;fill-rule:evenodd;stroke:rgb(0, 0, 0);stroke-width:3.0;" d="M 196.835, 267.834 L 189.991, 269.553 L 173.597, 263.073 L 166.21, 251.28 L 181.213, 243.507 z "/>
<path style="fill:rgb(237, 165, 140);fill-opacity:1.0;fill-rule:evenodd;stroke:rgb(0, 0, 0);stroke-width:3.0;" d="M 197.08, 267.773 L 196.835, 267.834 L 181.213, 243.507 L 191.561, 238.146 z "/>
<path style="fill:rgb(202, 228, 10);fill-opacity:1.0;fill-rule:evenodd;stroke:rgb(0, 0, 0);stroke-width:3.0;" d="M 45.8608, 40.051 L 26.8041, 65.3283 L 23.7133, 30.7546 L 28.2736, 24.4391 z "/>
<path style="fill:rgb(202, 110, 61);fill-opacity:1.0;fill-rule:evenodd;stroke:rgb(0, 0, 0);stroke-width:3.0;" d="M 140.68, 285.137 L 92.0537, 345.142 L 90.1686, 344.638 L 141.66, 281.801 z "/>
<path style="fill:rgb(35, 243, 148);fill-opacity:1.0;fill-rule:evenodd;stroke:rgb(0, 0, 0);stroke-width:3.0;" d="M 200.771, 343.08 L 199.972, 345.674 L 183.938, 359.293 L 174.214, 332.811 L 177.905, 327.971 L 180.659, 327.744 z "/>
<path style="fill:rgb(255, 187, 47);fill-opacity:1.0;fill-rule:evenodd;stroke:rgb(0, 0, 0);stroke-width:3.0;" d="M 110.293, 102.716 L 96.4231, 125.732 L 91.6715, 121.891 L 85.7503, 97.7669 z "/>
<path style="fill:rgb(255, 252, 76);fill-opacity:1.0;fill-rule:evenodd;stroke:rgb(0, 0, 0);stroke-width:3.0;" d="M 205.356, 328.194 L 200.771, 343.08 L 182.865, 329.426 L 185.646, 327.332 L 203.816, 325.833 z "/>
<path style="fill:rgb(237, 20, 7);fill-opacity:1.0;fill-rule:evenodd;stroke:rgb(0, 0, 0);stroke-width:3.0;" d="M 40.0292, 433.708 L 14.4157, 437.5 L 12.8553, 415.465 L 23.7459, 412.008 z "/>
<path style="fill:rgb(255, 197, 26);fill-opacity:1.0;fill-rule:evenodd;stroke:rgb(0, 0, 0);stroke-width:3.0;" d="M 128.419, 8.13605 L 128.859, 15.1182 L 118.955, 20.332 L 113.275, 14.8158 L 127.898, 7.27013 L 127.993, 7.25319 z "/>
<path style="fill:rgb(249, 46, 18);fill-opacity:1.0;fill-rule:evenodd;stroke:rgb(0, 0, 0);stroke-width:3.0;" d="M 104.393, 39.516 L 100.071, 72.5926 L 95.7071, 71.4446 L 71.7202, 50.3982 L 99.9249, 34.8283 z "/>
<path style="fill:rgb(255, 128, 25);fill-opacity:1.0;fill-rule:evenodd;stroke:rgb(0, 0, 0);stroke-width:3.0;" d="M 55.9365, 378.683 L 56.6559, 387.083 L 36.7285, 383.652 L 26.0217, 359.91 L 25.5608, 358.591 z "/>
</svg>