<?xml version="1.0" encoding="iso-8859-1" standalone="no"?>
<!DOCTYPE svg PUBLIC "-//W3C//DTD SVG 1.0//EN" "http://www.w3.org/TR/2001/REC-SVG-20010904/DTD/svg10.dtd">
<svg xmlns="http://www.w3.org/2000/svg" width="800" height="600">
<path style="fill:rgb(0, 0, 0);fill-opacity:0.0;fill-rule:evenodd;stroke:rgb(0, 0, 0);stroke-width:0.0;" d="M 0, 600 L 800, 600 L 800, 0 L 0, 0 z "/>
<path style="fill:rgb(199, 56, 170);fill-opacity:1.0;fill-rule:evenodd;stroke:rgb(0, 0, 0);stroke-width:3.0;" d="M 731.919, 66.1356 L 725.106, 75.3891 L 706.096, 51.2496 z "/>
<path style="fill:rgb(199, 56, 170);fill-opacity:1.0;fill-rule:evenodd;stroke:rgb(0, 0, 0);stroke-width:3.0;" d="M 748.416, 462.829 L 747.524, 487.844 L 742.319, 487.267 L 743.696, 459.18 L 747.65, 454.32 z "/>
<path style="fill:rgb(199, 56, 170);fill-opacity:1.0;fill-rule:evenodd;stroke:rgb(0, 0, 0);stroke-width:3.0;" d="M 751.681, 488.305 L 751.767, 492.787 L 738.219, 499.927 L 716.428, 490.15 L 717.906, 484.562 z "/>
<path style="fill:rgb(199, 56, 170);fill-opacity:1.0;fill-rule:evenodd;stroke:rgb(0, 0, 0);stroke-width:3.0;" d="M 594.911, 33.017 L 592.641, 52.9876 L 584.966, 50.1593 L 575.647, 30.2038 L 586.088, 25.6074 z "/>
<path style="fill:rgb(33, 146, 228);fill-opacity:1.0;fill-rule:evenodd;stroke:rgb(0, 0, 0);stroke-width:3.0;" d="M 670.617, 351.213 L 656.348, 396.413 L 636.089, 410.402 L 625.831, 404.534 L 666.282, 345.72 z "/>
<path style="fill:rgb(223, 177, 10);fill-opacity:1.0;fill-rule:evenodd;stroke:rgb(0, 0, 0);stroke-width:3.0;" d="M 749.642, 428.412 L 739.254, 428.13 L 742.889, 407.61 L 750.432, 406.263 z "/>
<path style="fill:rgb(246, 40, 246);fill-opacity:1.0;fill-rule:evenodd;stroke:rgb(0, 0, 0);stroke-width:3.0;" d="M 670.007, 544.313 L 642.245, 562.755 L 626.251, 547.304 L 626.219, 543.011 z "/>
<path style="fill:rgb(228, 0, 12);fill-opacity:1.0;fill-rule:evenodd;stroke:rgb(0, 0, 0);stroke-width:3.0;" d="M 722.191, 468.36 L 715.246, 494.617 L 714.37, 452.169 L 718.414, 451.189 z "/>
<path style="fill:rgb(228, 0, 12);fill-opacity:1.0;fill-rule:evenodd;stroke:rgb(0, 0, 0);stroke-width:3.0;" d="M 628.311, 33.5695 L 651.313, 66.8122 L 637.801, 69.0385 L 618.563, 52.8815 L 613.184, 38.725 L 613.648, 35.5741 L 623.307, 32.5798 z "/>
<path style="fill:rgb(237, 5, 7);fill-opacity:1.0;fill-rule:evenodd;stroke:rgb(0, 0, 0);stroke-width:3.0;" d="M 558.881, 470.372 L 540.321, 474.499 L 536.786, 430.474 L 557.024, 418.079 z "/>
<path style="fill:rgb(237, 5, 7);fill-opacity:1.0;fill-rule:evenodd;stroke:rgb(0, 0, 0);stroke-width:3.0;" d="M 778.305, 316.746 L 767.475, 321.618 L 762.611, 315.541 L 765.791, 303.521 z "/>
<path style="fill:rgb(237, 5, 7);fill-opacity:1.0;fill-rule:evenodd;stroke:rgb(0, 0, 0);stroke-width:3.0;" d="M 680.615, 51.8562 L 680.632, 51.9916 L 658.226, 52.063 L 658.668, 38.0788 z "/>
<path style="fill:rgb(237, 5, 7);fill-opacity:1.0;fill-rule:evenodd;stroke:rgb(0, 0, 0);stroke-width:3.0;" d="M 557.024, 418.079 L 525.819, 437.19 L 533.387, 424.078 L 556.223, 395.505 z "/>
<path style="fill:rgb(237, 5, 7);fill-opacity:1.0;fill-rule:evenodd;stroke:rgb(0, 0, 0);stroke-width:3.0;" d="M 739.367, 427.495 L 729.039, 485.796 L 718.602, 484.639 L 718.13, 483.714 L 733.21, 426.7 z "/>
<path style="fill:rgb(255, 252, 78);fill-opacity:1.0;fill-rule:evenodd;stroke:rgb(0, 0, 0);stroke-width:3.0;" d="M 576.788, 520.127 L 570.501, 520.701 L 560.674, 520.865 L 560.657, 520.395 L 574.378, 506.768 z "/>
<path style="fill:rgb(34, 172, 255);fill-opacity:1.0;fill-rule:evenodd;stroke:rgb(0, 0, 0);stroke-width:3.0;" d="M 631.977, 395.597 L 600.963, 409.736 L 596.559, 389.784 L 645.542, 375.875 z "/>
<path style="fill:rgb(246, 9, 255);fill-opacity:1.0;fill-rule:evenodd;stroke:rgb(0, 0, 0);stroke-width:3.0;" d="M 651.479, 17.1644 L 653.299, 22.3916 L 644.254, 30.5358 L 641.608, 10.199 L 645.517, 7.2409 z "/>
<path style="fill:rgb(246, 9, 255);fill-opacity:1.0;fill-rule:evenodd;stroke:rgb(0, 0, 0);stroke-width:3.0;" d="M 540.333, 67.6888 L 541.062, 72.5842 L 527.472, 64.8174 L 527.612, 63.7401 L 532.016, 50.7597 z "/>
<path style="fill:rgb(246, 9, 255);fill-opacity:1.0;fill-rule:evenodd;stroke:rgb(0, 0, 0);stroke-width:3.0;" d="M 788.928, 267.363 L 785.797, 300.93 L 776.86, 311.385 L 773.759, 311.942 L 765.791, 303.521 L 776.099, 264.545 L 782.259, 258.521 z "/>
<path style="fill:rgb(243, 228, 12);fill-opacity:1.0;fill-rule:evenodd;stroke:rgb(0, 0, 0);stroke-width:3.0;" d="M 713.891, 428.951 L 703.248, 423.269 L 707.388, 412.907 L 713.531, 411.545 z "/>
<path style="fill:rgb(255, 82, 255);fill-opacity:1.0;fill-rule:evenodd;stroke:rgb(0, 0, 0);stroke-width:3.0;" d="M 585.321, 524.356 L 579.381, 534.496 L 574.378, 506.768 L 595.612, 485.681 z "/>
<path style="fill:rgb(240, 42, 69);fill-opacity:1.0;fill-rule:evenodd;stroke:rgb(0, 0, 0);stroke-width:3.0;" d="M 581.651, 360.968 L 579.729, 364.644 L 565.544, 356.535 L 561.401, 344.589 L 571.053, 344.279 z "/>
<path style="fill:rgb(240, 42, 69);fill-opacity:1.0;fill-rule:evenodd;stroke:rgb(0, 0, 0);stroke-width:3.0;" d="M 643.641, 424.796 L 633.568, 441.992 L 616.651, 447.037 L 611.485, 427.39 L 622.747, 419.614 z "/>
<path style="fill:rgb(255, 22, 192);fill-opacity:1.0;fill-rule:evenodd;stroke:rgb(0, 0, 0);stroke-width:3.0;" d="M 711.332, 575.864 L 693.647, 576.281 L 699.578, 553.855 z "/>
<path style="fill:rgb(30, 2, 177);fill-opacity:1.0;fill-rule:evenodd;stroke:rgb(0, 0, 0);stroke-width:3.0;" d="M 765.224, 512.043 L 760.67, 518.746 L 750.619, 518.519 L 734.801, 510.753 L 749.695, 505.076 z "/>
<path style="fill:rgb(255, 21, 51);fill-opacity:1.0;fill-rule:evenodd;stroke:rgb(0, 0, 0);stroke-width:3.0;" d="M 741.636, 393.567 L 738.339, 400.592 L 730.099, 398.187 L 733.32, 384.257 z "/>
<path style="fill:rgb(255, 74, 38);fill-opacity:1.0;fill-rule:evenodd;stroke:rgb(0, 0, 0);stroke-width:3.0;" d="M 738.242, 509.441 L 716.447, 517.747 L 713.776, 517.687 L 710.999, 510.677 L 714.703, 496.673 z "/>
<path style="fill:rgb(255, 74, 38);fill-opacity:1.0;fill-rule:evenodd;stroke:rgb(0, 0, 0);stroke-width:3.0;" d="M 581.819, 447.874 L 564.605, 459.76 L 560.799, 428.417 z "/>
<path style="fill:rgb(240, 30, 74);fill-opacity:1.0;fill-rule:evenodd;stroke:rgb(0, 0, 0);stroke-width:3.0;" d="M 686.398, 354.715 L 685.57, 373.304 L 673.518, 381.325 L 666.948, 362.837 L 671.595, 348.114 z "/>
<path style="fill:rgb(240, 30, 74);fill-opacity:1.0;fill-rule:evenodd;stroke:rgb(0, 0, 0);stroke-width:3.0;" d="M 713.738, 428.87 L 712.217, 435.671 L 696.972, 455.561 L 690.239, 456.265 L 685.972, 417.403 L 687.255, 414.73 z "/>
<path style="fill:rgb(240, 30, 74);fill-opacity:1.0;fill-rule:evenodd;stroke:rgb(0, 0, 0);stroke-width:3.0;" d="M 696.326, 566.149 L 696.027, 567.281 L 657.166, 565.533 L 663.037, 557.026 z "/>
<path style="fill:rgb(240, 71, 10);fill-opacity:1.0;fill-rule:evenodd;stroke:rgb(0, 0, 0);stroke-width:3.0;" d="M 663.037, 557.026 L 657.166, 565.533 L 639.275, 564.728 L 654.423, 554.665 z "/>
<path style="fill:rgb(33, 255, 237);fill-opacity:1.0;fill-rule:evenodd;stroke:rgb(0, 0, 0);stroke-width:3.0;" d="M 507.834, 312.808 L 505.739, 319.401 L 494.045, 321.561 L 495.525, 310.194 L 502.732, 309.585 z "/>
<path style="fill:rgb(255, 49, 240);fill-opacity:1.0;fill-rule:evenodd;stroke:rgb(0, 0, 0);stroke-width:3.0;" d="M 569.536, 32.894 L 555.216, 39.1975 L 552.602, 38.2341 L 559.771, 23.7201 z "/>
<path style="fill:rgb(255, 49, 240);fill-opacity:1.0;fill-rule:evenodd;stroke:rgb(0, 0, 0);stroke-width:3.0;" d="M 657.3, 401.479 L 649.976, 413.981 L 638.623, 409.588 L 658.487, 396.082 z "/>
<path style="fill:rgb(255, 49, 240);fill-opacity:1.0;fill-rule:evenodd;stroke:rgb(0, 0, 0);stroke-width:3.0;" d="M 741.391, 487.165 L 729.039, 485.796 L 731.642, 471.102 L 740.109, 465.024 z "/>
<path style="fill:rgb(255, 165, 189);fill-opacity:1.0;fill-rule:evenodd;stroke:rgb(0, 0, 0);stroke-width:3.0;" d="M 667.936, 80.7315 L 618.28, 318.174 L 500.276, 273.697 L 510.143, 197.915 L 534.285, 142.975 L 603.932, 57.1479 z "/>
<path style="fill:rgb(255, 165, 189);fill-opacity:1.0;fill-rule:evenodd;stroke:rgb(0, 0, 0);stroke-width:3.0;" d="M 744.322, 533.221 L 725.908, 541.662 L 725.869, 540.988 L 740.427, 523.123 z "/>
<path style="fill:rgb(255, 165, 189);fill-opacity:1.0;fill-rule:evenodd;stroke:rgb(0, 0, 0);stroke-width:3.0;" d="M 693.641, 518.715 L 652.053, 534.89 L 648.674, 529.205 L 695.178, 511.845 z "/>
<path style="fill:rgb(255, 12, 192);fill-opacity:1.0;fill-rule:evenodd;stroke:rgb(0, 0, 0);stroke-width:3.0;" d="M 723.136, 541.311 L 725.566, 547.444 L 715.267, 547.299 L 705.415, 531.789 L 709.721, 515.506 z "/>
<path style="fill:rgb(252, 26, 255);fill-opacity:1.0;fill-rule:evenodd;stroke:rgb(0, 0, 0);stroke-width:3.0;" d="M 158.447, 488.728 L 158.248, 488.884 L 130.818, 461.335 L 149.845, 446.781 z "/>
<path style="fill:rgb(252, 26, 255);fill-opacity:1.0;fill-rule:evenodd;stroke:rgb(0, 0, 0);stroke-width:3.0;" d="M 542.791, 357.258 L 527.637, 368.502 L 527.512, 359.567 L 529.691, 352.901 L 536.739, 344.796 z "/>
<path style="fill:rgb(252, 26, 255);fill-opacity:1.0;fill-rule:evenodd;stroke:rgb(0, 0, 0);stroke-width:3.0;" d="M 587.661, 349.473 L 581.651, 360.968 L 567.603, 338.847 L 576.99, 331.881 L 583.248, 329.479 z "/>
<path style="fill:rgb(252, 26, 255);fill-opacity:1.0;fill-rule:evenodd;stroke:rgb(0, 0, 0);stroke-width:3.0;" d="M 559.771, 23.7201 L 552.602, 38.2341 L 545.197, 35.5056 L 545.42, 31.2157 L 559.077, 23.0683 z "/>
<path style="fill:rgb(194, 33, 11);fill-opacity:1.0;fill-rule:evenodd;stroke:rgb(0, 0, 0);stroke-width:3.0;" d="M 536.463, 140.292 L 514.679, 167.138 L 514.281, 166.134 L 522.052, 106.446 z "/>
<path style="fill:rgb(194, 33, 11);fill-opacity:1.0;fill-rule:evenodd;stroke:rgb(0, 0, 0);stroke-width:3.0;" d="M 713.019, 386.742 L 713.241, 397.488 L 697.48, 395.716 L 700.186, 387.777 L 703.175, 381.548 L 704.91, 379.057 z "/>
<path style="fill:rgb(194, 33, 11);fill-opacity:1.0;fill-rule:evenodd;stroke:rgb(0, 0, 0);stroke-width:3.0;" d="M 522.236, 170.397 L 512.872, 176.957 L 514.049, 167.913 L 534.285, 142.975 z "/>
<path style="fill:rgb(255, 255, 21);fill-opacity:1.0;fill-rule:evenodd;stroke:rgb(0, 0, 0);stroke-width:3.0;" d="M 699.693, 59.3317 L 717.149, 81.8565 L 700.384, 75.4637 L 691.317, 50.5745 z "/>
<path style="fill:rgb(255, 255, 21);fill-opacity:1.0;fill-rule:evenodd;stroke:rgb(0, 0, 0);stroke-width:3.0;" d="M 749.695, 505.076 L 738.242, 509.441 L 714.703, 496.673 L 716.428, 490.15 z "/>
<path style="fill:rgb(255, 255, 21);fill-opacity:1.0;fill-rule:evenodd;stroke:rgb(0, 0, 0);stroke-width:3.0;" d="M 648.712, 329.645 L 652.586, 354.277 L 646.934, 362.649 L 646.242, 328.714 z "/>
<path style="fill:rgb(255, 255, 21);fill-opacity:1.0;fill-rule:evenodd;stroke:rgb(0, 0, 0);stroke-width:3.0;" d="M 603.932, 57.1479 L 562.134, 108.657 L 545.627, 103.255 L 534.983, 31.742 z "/>
<path style="fill:rgb(13, 46, 255);fill-opacity:1.0;fill-rule:evenodd;stroke:rgb(0, 0, 0);stroke-width:3.0;" d="M 707.339, 524.512 L 701.852, 545.26 L 688.662, 544.868 L 700.189, 508.073 z "/>
<path style="fill:rgb(132, 194, 255);fill-opacity:1.0;fill-rule:evenodd;stroke:rgb(0, 0, 0);stroke-width:3.0;" d="M 758.288, 21.9838 L 758.099, 38.444 L 753.593, 41.7752 L 748.053, 37.9989 L 756.801, 21.0574 z "/>
<path style="fill:rgb(132, 194, 255);fill-opacity:1.0;fill-rule:evenodd;stroke:rgb(0, 0, 0);stroke-width:3.0;" d="M 792.6, 44.9732 L 770.227, 56.219 L 766.233, 43.0572 z "/>
<path style="fill:rgb(132, 194, 255);fill-opacity:1.0;fill-rule:evenodd;stroke:rgb(0, 0, 0);stroke-width:3.0;" d="M 583.574, 366.842 L 555.648, 379.308 L 554.617, 350.289 z "/>
<path style="fill:rgb(255, 34, 46);fill-opacity:1.0;fill-rule:evenodd;stroke:rgb(0, 0, 0);stroke-width:3.0;" d="M 540.321, 474.499 L 472.446, 489.594 L 474.533, 471.421 L 474.933, 468.354 L 536.786, 430.474 z "/>
<path style="fill:rgb(255, 34, 46);fill-opacity:1.0;fill-rule:evenodd;stroke:rgb(0, 0, 0);stroke-width:3.0;" d="M 504.485, 428.427 L 480.106, 428.623 L 483.687, 401.114 L 504.772, 385.469 z "/>
<path style="fill:rgb(246, 255, 54);fill-opacity:1.0;fill-rule:evenodd;stroke:rgb(0, 0, 0);stroke-width:3.0;" d="M 541.062, 72.5842 L 545.627, 103.255 L 523.414, 95.9853 L 527.472, 64.8174 z "/>
<path style="fill:rgb(212, 86, 69);fill-opacity:1.0;fill-rule:evenodd;stroke:rgb(0, 0, 0);stroke-width:3.0;" d="M 586.576, 494.654 L 560.657, 520.395 L 559.365, 484.019 L 580.364, 479.988 z "/>
<path style="fill:rgb(255, 105, 112);fill-opacity:1.0;fill-rule:evenodd;stroke:rgb(0, 0, 0);stroke-width:3.0;" d="M 566.142, 316.217 L 560.691, 339.567 L 555.522, 334.791 L 563.991, 313.459 L 564.61, 312.747 z "/>
<path style="fill:rgb(255, 105, 112);fill-opacity:1.0;fill-rule:evenodd;stroke:rgb(0, 0, 0);stroke-width:3.0;" d="M 611.294, 30.2044 L 613.929, 33.6612 L 611.923, 47.3043 L 598.819, 36.2991 L 596.769, 33.8157 L 609.87, 29.9226 z "/>
<path style="fill:rgb(255, 105, 112);fill-opacity:1.0;fill-rule:evenodd;stroke:rgb(0, 0, 0);stroke-width:3.0;" d="M 555.855, 385.153 L 525.819, 437.19 L 504.338, 450.346 L 504.772, 385.469 L 554.555, 348.529 z "/>
<path style="fill:rgb(255, 105, 112);fill-opacity:1.0;fill-rule:evenodd;stroke:rgb(0, 0, 0);stroke-width:3.0;" d="M 648.492, 371.586 L 645.542, 375.875 L 596.559, 389.784 L 594.336, 379.713 L 595.206, 374.937 L 646.833, 369.129 z "/>
<path style="fill:rgb(255, 105, 112);fill-opacity:1.0;fill-rule:evenodd;stroke:rgb(0, 0, 0);stroke-width:3.0;" d="M 573.44, 544.637 L 562.199, 563.827 L 561.266, 537.543 z "/>
<path style="fill:rgb(209, 9, 252);fill-opacity:1.0;fill-rule:evenodd;stroke:rgb(0, 0, 0);stroke-width:3.0;" d="M 785.242, 355.477 L 773.951, 372.081 L 754.226, 347.245 L 754.506, 346.185 L 760.901, 335.177 z "/>
<path style="fill:rgb(209, 9, 252);fill-opacity:1.0;fill-rule:evenodd;stroke:rgb(0, 0, 0);stroke-width:3.0;" d="M 495.385, 436.513 L 478.962, 437.403 L 480.106, 428.623 L 503.762, 428.433 z "/>
<path style="fill:rgb(209, 9, 252);fill-opacity:1.0;fill-rule:evenodd;stroke:rgb(0, 0, 0);stroke-width:3.0;" d="M 737.158, 411.776 L 735.537, 417.902 L 722.479, 424.663 L 722.715, 406.749 z "/>
<path style="fill:rgb(209, 9, 252);fill-opacity:1.0;fill-rule:evenodd;stroke:rgb(0, 0, 0);stroke-width:3.0;" d="M 579.381, 534.496 L 573.44, 544.637 L 561.266, 537.543 L 560.7, 521.595 L 576.788, 520.127 z "/>
<path style="fill:rgb(255, 255, 7);fill-opacity:1.0;fill-rule:evenodd;stroke:rgb(0, 0, 0);stroke-width:3.0;" d="M 690.821, 531.326 L 687.797, 544.842 L 657.429, 543.939 L 652.053, 534.89 L 688.445, 520.736 z "/>
<path style="fill:rgb(50, 255, 62);fill-opacity:1.0;fill-rule:evenodd;stroke:rgb(0, 0, 0);stroke-width:3.0;" d="M 42.9021, 177.745 L 29.1637, 224.515 L 10.0689, 135.099 z "/>
<path style="fill:rgb(255, 252, 78);fill-opacity:1.0;fill-rule:evenodd;stroke:rgb(0, 0, 0);stroke-width:3.0;" d="M 143.794, 377.692 L 173.758, 531.241 L 166.59, 528.441 L 134.473, 371.816 z "/>
<path style="fill:rgb(255, 252, 78);fill-opacity:1.0;fill-rule:evenodd;stroke:rgb(0, 0, 0);stroke-width:3.0;" d="M 685.021, 419.386 L 676.891, 436.329 L 637.05, 436.048 L 662.421, 392.737 z "/>
<path style="fill:rgb(255, 252, 78);fill-opacity:1.0;fill-rule:evenodd;stroke:rgb(0, 0, 0);stroke-width:3.0;" d="M 562.134, 108.657 L 538.928, 137.254 L 532.789, 131.664 L 522.052, 106.446 L 523.414, 95.9853 z "/>
<path style="fill:rgb(255, 252, 78);fill-opacity:1.0;fill-rule:evenodd;stroke:rgb(0, 0, 0);stroke-width:3.0;" d="M 687.021, 55.8776 L 697.31, 67.0259 L 701.188, 77.6705 L 684.113, 80.0117 L 680.615, 51.8562 z "/>
<path style="fill:rgb(255, 252, 78);fill-opacity:1.0;fill-rule:evenodd;stroke:rgb(0, 0, 0);stroke-width:3.0;" d="M 600.562, 345.545 L 591.59, 367.27 L 584.994, 337.387 L 603.179, 331.185 z "/>
<path style="fill:rgb(255, 252, 78);fill-opacity:1.0;fill-rule:evenodd;stroke:rgb(0, 0, 0);stroke-width:3.0;" d="M 149.845, 446.781 L 23.6284, 543.325 L 123.59, 318.745 z "/>
<path style="fill:rgb(107, 246, 249);fill-opacity:1.0;fill-rule:evenodd;stroke:rgb(0, 0, 0);stroke-width:3.0;" d="M 695.178, 511.845 L 670.011, 521.24 L 656.549, 478.726 L 666.117, 458.785 L 708.026, 454.406 z "/>
<path style="fill:rgb(18, 255, 29);fill-opacity:1.0;fill-rule:evenodd;stroke:rgb(0, 0, 0);stroke-width:3.0;" d="M 623.398, 408.072 L 608.869, 429.197 L 604.515, 432.203 L 587.649, 415.805 L 607.916, 406.566 L 620.686, 405.811 z "/>
<path style="fill:rgb(255, 255, 54);fill-opacity:1.0;fill-rule:evenodd;stroke:rgb(0, 0, 0);stroke-width:3.0;" d="M 604.515, 432.203 L 581.819, 447.874 L 575.041, 441.6 L 592.56, 420.58 z "/>
<path style="fill:rgb(255, 1, 72);fill-opacity:1.0;fill-rule:evenodd;stroke:rgb(0, 0, 0);stroke-width:3.0;" d="M 714.875, 476.609 L 714.931, 479.356 L 702.645, 478.467 L 708.077, 454.18 z "/>
<path style="fill:rgb(255, 1, 72);fill-opacity:1.0;fill-rule:evenodd;stroke:rgb(0, 0, 0);stroke-width:3.0;" d="M 670.679, 20.6983 L 672.301, 33.6203 L 667.532, 34.7601 L 657.399, 23.7798 L 659.035, 19.0739 z "/>
<path style="fill:rgb(255, 1, 72);fill-opacity:1.0;fill-rule:evenodd;stroke:rgb(0, 0, 0);stroke-width:3.0;" d="M 592.56, 420.58 L 575.041, 441.6 L 560.799, 428.417 L 560.756, 428.065 L 587.649, 415.805 z "/>
<path style="fill:rgb(194, 1, 13);fill-opacity:1.0;fill-rule:evenodd;stroke:rgb(0, 0, 0);stroke-width:3.0;" d="M 697.31, 67.0259 L 677.772, 45.8552 L 676.595, 33.5996 L 677.511, 32.3747 L 684.112, 30.7967 z "/>
<path style="fill:rgb(45, 249, 255);fill-opacity:1.0;fill-rule:evenodd;stroke:rgb(0, 0, 0);stroke-width:3.0;" d="M 600.963, 409.736 L 560.756, 428.065 L 559.704, 419.402 L 595.169, 383.485 z "/>
<path style="fill:rgb(252, 94, 121);fill-opacity:1.0;fill-rule:evenodd;stroke:rgb(0, 0, 0);stroke-width:3.0;" d="M 592.639, 372.025 L 595.169, 383.485 L 559.704, 419.402 L 555.983, 388.765 L 555.648, 379.308 L 583.574, 366.842 z "/>
<path style="fill:rgb(255, 246, 54);fill-opacity:1.0;fill-rule:evenodd;stroke:rgb(0, 0, 0);stroke-width:3.0;" d="M 651.241, 540.081 L 653.425, 543.82 L 625.713, 542.996 L 628.764, 536.638 L 632.862, 535.108 z "/>
<path style="fill:rgb(255, 121, 6);fill-opacity:1.0;fill-rule:evenodd;stroke:rgb(0, 0, 0);stroke-width:3.0;" d="M 499.74, 453.162 L 481.502, 464.331 L 477.029, 452.256 L 478.603, 440.165 z "/>
<path style="fill:rgb(204, 5, 187);fill-opacity:1.0;fill-rule:evenodd;stroke:rgb(0, 0, 0);stroke-width:3.0;" d="M 504.338, 450.346 L 499.74, 453.162 L 491.127, 447.866 L 496.402, 438.615 L 499.303, 437.002 L 504.43, 436.634 z "/>
<path style="fill:rgb(204, 5, 187);fill-opacity:1.0;fill-rule:evenodd;stroke:rgb(0, 0, 0);stroke-width:3.0;" d="M 789.53, 349.172 L 785.242, 355.477 L 774.967, 346.908 L 766.934, 324.791 L 767.703, 323.467 L 768.486, 322.881 z "/>
<path style="fill:rgb(204, 5, 187);fill-opacity:1.0;fill-rule:evenodd;stroke:rgb(0, 0, 0);stroke-width:3.0;" d="M 610.398, 429.318 L 607.603, 449.736 L 591.596, 454.51 L 586.17, 451.682 L 590.504, 441.877 L 609.921, 428.47 z "/>
<path style="fill:rgb(204, 5, 187);fill-opacity:1.0;fill-rule:evenodd;stroke:rgb(0, 0, 0);stroke-width:3.0;" d="M 684.113, 80.0117 L 670.899, 81.8235 L 661.578, 78.3887 L 657.678, 69.3641 L 658.226, 52.063 L 680.632, 51.9916 z "/>
<path style="fill:rgb(204, 5, 187);fill-opacity:1.0;fill-rule:evenodd;stroke:rgb(0, 0, 0);stroke-width:3.0;" d="M 741.849, 514.213 L 742.704, 518.341 L 716.447, 517.747 L 734.801, 510.753 z "/>
<path style="fill:rgb(30, 255, 255);fill-opacity:1.0;fill-rule:evenodd;stroke:rgb(0, 0, 0);stroke-width:3.0;" d="M 669.885, 337.626 L 653.038, 357.153 L 648.712, 329.645 z "/>
<path style="fill:rgb(89, 146, 240);fill-opacity:1.0;fill-rule:evenodd;stroke:rgb(0, 0, 0);stroke-width:3.0;" d="M 793.453, 332.754 L 791.582, 351.735 L 777.489, 334.128 L 779.334, 322.57 L 783.692, 322.438 z "/>
<path style="fill:rgb(89, 146, 240);fill-opacity:1.0;fill-rule:evenodd;stroke:rgb(0, 0, 0);stroke-width:3.0;" d="M 680.956, 22.132 L 684.112, 30.7967 L 672.301, 33.6203 L 670.679, 20.6983 z "/>
<path style="fill:rgb(89, 146, 240);fill-opacity:1.0;fill-rule:evenodd;stroke:rgb(0, 0, 0);stroke-width:3.0;" d="M 733.499, 361.603 L 747.285, 373.485 L 741.897, 393.858 L 712.863, 361.356 L 715.709, 355.425 L 716.203, 355.084 z "/>
<path style="fill:rgb(246, 95, 10);fill-opacity:1.0;fill-rule:evenodd;stroke:rgb(0, 0, 0);stroke-width:3.0;" d="M 752.027, 587.623 L 735.622, 588.859 L 735.129, 584.821 L 744.148, 578.378 z "/>
<path style="fill:rgb(255, 15, 100);fill-opacity:1.0;fill-rule:evenodd;stroke:rgb(0, 0, 0);stroke-width:3.0;" d="M 670.011, 521.24 L 628.764, 536.638 L 635.481, 522.636 L 668.635, 516.893 z "/>
<path style="fill:rgb(144, 237, 32);fill-opacity:1.0;fill-rule:evenodd;stroke:rgb(0, 0, 0);stroke-width:3.0;" d="M 714.931, 479.356 L 714.954, 480.471 L 699.156, 505.697 L 697.437, 501.746 L 702.645, 478.467 z "/>
<path style="fill:rgb(255, 14, 60);fill-opacity:1.0;fill-rule:evenodd;stroke:rgb(0, 0, 0);stroke-width:3.0;" d="M 223.342, 412.111 L 184.993, 535.629 L 173.758, 531.241 L 130.717, 310.682 L 141.884, 306.309 z "/>
<path style="fill:rgb(255, 184, 56);fill-opacity:1.0;fill-rule:evenodd;stroke:rgb(0, 0, 0);stroke-width:3.0;" d="M 703.552, 363.819 L 697.55, 367.963 L 686.162, 360.01 L 686.226, 358.579 L 695.985, 355.011 z "/>
<path style="fill:rgb(88, 16, 249);fill-opacity:1.0;fill-rule:evenodd;stroke:rgb(0, 0, 0);stroke-width:3.0;" d="M 779.981, 318.517 L 777.489, 334.128 L 767.475, 321.618 L 778.305, 316.746 z "/>
<path style="fill:rgb(88, 16, 249);fill-opacity:1.0;fill-rule:evenodd;stroke:rgb(0, 0, 0);stroke-width:3.0;" d="M 614.045, 475.32 L 593.52, 510.359 L 592.519, 497.302 L 595.612, 485.681 L 610.085, 471.307 z "/>
<path style="fill:rgb(255, 5, 255);fill-opacity:1.0;fill-rule:evenodd;stroke:rgb(0, 0, 0);stroke-width:3.0;" d="M 646.242, 328.714 L 646.575, 345.037 L 628.23, 338.224 L 628.92, 329.319 L 642.758, 327.401 z "/>
<path style="fill:rgb(255, 5, 255);fill-opacity:1.0;fill-rule:evenodd;stroke:rgb(0, 0, 0);stroke-width:3.0;" d="M 642.758, 327.401 L 620.731, 330.454 L 610.452, 315.224 z "/>
<path style="fill:rgb(255, 22, 18);fill-opacity:1.0;fill-rule:evenodd;stroke:rgb(0, 0, 0);stroke-width:3.0;" d="M 685.021, 419.386 L 662.421, 392.737 L 662.93, 391.868 L 715.709, 355.425 z "/>
<path style="fill:rgb(255, 255, 23);fill-opacity:1.0;fill-rule:evenodd;stroke:rgb(0, 0, 0);stroke-width:3.0;" d="M 715.246, 494.617 L 707.339, 524.512 L 701.487, 511.058 L 714.58, 481.068 L 714.954, 480.471 z "/>
<path style="fill:rgb(255, 255, 23);fill-opacity:1.0;fill-rule:evenodd;stroke:rgb(0, 0, 0);stroke-width:3.0;" d="M 784.043, 76.1306 L 789.609, 85.132 L 776.378, 87.9675 L 776.368, 87.9551 L 779.132, 75.0904 z "/>
<path style="fill:rgb(255, 255, 23);fill-opacity:1.0;fill-rule:evenodd;stroke:rgb(0, 0, 0);stroke-width:3.0;" d="M 737.672, 552.59 L 727.864, 550.686 L 752.88, 529.298 L 753.779, 528.886 z "/>
<path style="fill:rgb(255, 255, 23);fill-opacity:1.0;fill-rule:evenodd;stroke:rgb(0, 0, 0);stroke-width:3.0;" d="M 717.149, 81.8565 L 717.73, 82.6055 L 705.267, 88.8696 L 700.384, 75.4637 z "/>
<path style="fill:rgb(212, 30, 15);fill-opacity:1.0;fill-rule:evenodd;stroke:rgb(0, 0, 0);stroke-width:3.0;" d="M 192.828, 538.69 L 176.479, 576.664 L 166.59, 528.441 z "/>
<path style="fill:rgb(255, 255, 65);fill-opacity:1.0;fill-rule:evenodd;stroke:rgb(0, 0, 0);stroke-width:3.0;" d="M 611.956, 469.449 L 609.763, 471.627 L 558.812, 468.417 L 558.782, 467.596 L 577.043, 462.79 z "/>
<path style="fill:rgb(255, 45, 161);fill-opacity:1.0;fill-rule:evenodd;stroke:rgb(0, 0, 0);stroke-width:3.0;" d="M 774.967, 346.908 L 760.901, 335.177 L 766.934, 324.791 z "/>
<path style="fill:rgb(255, 45, 161);fill-opacity:1.0;fill-rule:evenodd;stroke:rgb(0, 0, 0);stroke-width:3.0;" d="M 598.328, 482.983 L 586.576, 494.654 L 580.364, 479.988 L 582.128, 479.649 z "/>
<path style="fill:rgb(255, 45, 161);fill-opacity:1.0;fill-rule:evenodd;stroke:rgb(0, 0, 0);stroke-width:3.0;" d="M 793.815, 469.97 L 779.278, 491.363 L 747.524, 487.844 L 750.954, 391.611 z "/>
<path style="fill:rgb(237, 249, 35);fill-opacity:1.0;fill-rule:evenodd;stroke:rgb(0, 0, 0);stroke-width:3.0;" d="M 712.283, 45.0958 L 736.52, 59.888 L 731.919, 66.1356 L 725.886, 62.6575 L 706.892, 44.6538 z "/>
<path style="fill:rgb(237, 249, 35);fill-opacity:1.0;fill-rule:evenodd;stroke:rgb(0, 0, 0);stroke-width:3.0;" d="M 739.678, 425.737 L 735.026, 426.935 L 733.21, 426.7 L 740.254, 400.07 L 745.903, 390.596 z "/>
<path style="fill:rgb(240, 240, 24);fill-opacity:1.0;fill-rule:evenodd;stroke:rgb(0, 0, 0);stroke-width:3.0;" d="M 590.052, 453.706 L 589.368, 455.175 L 558.666, 464.331 L 558.65, 463.872 L 580.548, 448.752 z "/>
<path style="fill:rgb(21, 255, 252);fill-opacity:1.0;fill-rule:evenodd;stroke:rgb(0, 0, 0);stroke-width:3.0;" d="M 568.131, 308.699 L 518.679, 365.563 L 497.382, 336.756 L 540.112, 300.637 z "/>
<path style="fill:rgb(255, 243, 52);fill-opacity:1.0;fill-rule:evenodd;stroke:rgb(0, 0, 0);stroke-width:3.0;" d="M 240.422, 557.282 L 220.631, 574.291 L 190.601, 543.862 L 192.828, 538.69 z "/>
<path style="fill:rgb(252, 228, 14);fill-opacity:1.0;fill-rule:evenodd;stroke:rgb(0, 0, 0);stroke-width:3.0;" d="M 744.294, 518.376 L 725.869, 540.988 L 724.529, 517.93 z "/>
<path style="fill:rgb(255, 220, 11);fill-opacity:1.0;fill-rule:evenodd;stroke:rgb(0, 0, 0);stroke-width:3.0;" d="M 664.25, 503.044 L 647.335, 520.583 L 635.481, 522.636 L 656.549, 478.726 z "/>
<path style="fill:rgb(255, 249, 33);fill-opacity:1.0;fill-rule:evenodd;stroke:rgb(0, 0, 0);stroke-width:3.0;" d="M 574.305, 301.6 L 568.131, 308.699 L 551.881, 304.023 L 546.901, 294.898 L 549.869, 292.389 z "/>
<path style="fill:rgb(255, 249, 33);fill-opacity:1.0;fill-rule:evenodd;stroke:rgb(0, 0, 0);stroke-width:3.0;" d="M 689.257, 447.315 L 677.313, 457.615 L 666.117, 458.785 L 685.972, 417.403 z "/>
<path style="fill:rgb(217, 100, 184);fill-opacity:1.0;fill-rule:evenodd;stroke:rgb(0, 0, 0);stroke-width:3.0;" d="M 658.668, 38.0788 L 657.759, 66.8153 L 650.287, 44.2398 L 653.546, 34.8633 z "/>
<path style="fill:rgb(255, 3, 64);fill-opacity:1.0;fill-rule:evenodd;stroke:rgb(0, 0, 0);stroke-width:3.0;" d="M 652.331, 565.315 L 650.225, 574.695 L 637.331, 572.842 L 640.975, 564.804 z "/>
<path style="fill:rgb(255, 3, 64);fill-opacity:1.0;fill-rule:evenodd;stroke:rgb(0, 0, 0);stroke-width:3.0;" d="M 582.791, 304.798 L 582.857, 318.868 L 578.467, 320.144 L 575.134, 310.224 L 575.019, 301.869 z "/>
<path style="fill:rgb(43, 220, 255);fill-opacity:1.0;fill-rule:evenodd;stroke:rgb(0, 0, 0);stroke-width:3.0;" d="M 626.219, 543.011 L 626.288, 552.372 L 618.917, 571.349 L 616.283, 562.65 L 625.713, 542.996 z "/>
<path style="fill:rgb(246, 187, 249);fill-opacity:1.0;fill-rule:evenodd;stroke:rgb(0, 0, 0);stroke-width:3.0;" d="M 767.822, 48.9176 L 769.953, 56.3566 L 760.33, 61.1933 L 755.706, 53.4976 L 763.832, 48.349 z "/>
<path style="fill:rgb(255, 35, 255);fill-opacity:1.0;fill-rule:evenodd;stroke:rgb(0, 0, 0);stroke-width:3.0;" d="M 606.368, 313.685 L 603.179, 331.185 L 584.994, 337.387 L 582.823, 327.553 L 603.148, 312.471 z "/>
<path style="fill:rgb(184, 45, 184);fill-opacity:1.0;fill-rule:evenodd;stroke:rgb(0, 0, 0);stroke-width:3.0;" d="M 136.324, 514.996 L 115.254, 558.424 L 89.4741, 501.198 z "/>
<path style="fill:rgb(184, 45, 184);fill-opacity:1.0;fill-rule:evenodd;stroke:rgb(0, 0, 0);stroke-width:3.0;" d="M 649.976, 413.981 L 643.641, 424.796 L 623.575, 419.819 L 638.623, 409.588 z "/>
<path style="fill:rgb(10, 202, 255);fill-opacity:1.0;fill-rule:evenodd;stroke:rgb(0, 0, 0);stroke-width:3.0;" d="M 165.602, 523.619 L 127.972, 512.537 L 158.447, 488.728 z "/>
<path style="fill:rgb(243, 24, 252);fill-opacity:1.0;fill-rule:evenodd;stroke:rgb(0, 0, 0);stroke-width:3.0;" d="M 619.657, 573.793 L 615.567, 580.477 L 613.307, 581.979 L 608.781, 578.286 L 616.283, 562.65 z "/>
<path style="fill:rgb(255, 36, 255);fill-opacity:1.0;fill-rule:evenodd;stroke:rgb(0, 0, 0);stroke-width:3.0;" d="M 701.852, 545.26 L 696.326, 566.149 L 666.914, 558.088 L 682.049, 547.76 L 692.646, 544.986 z "/>
<path style="fill:rgb(66, 36, 226);fill-opacity:1.0;fill-rule:evenodd;stroke:rgb(0, 0, 0);stroke-width:3.0;" d="M 725.566, 547.444 L 731.313, 561.948 L 727.829, 567.074 L 719.923, 554.627 L 722.248, 547.397 z "/>
<path style="fill:rgb(255, 154, 46);fill-opacity:1.0;fill-rule:evenodd;stroke:rgb(0, 0, 0);stroke-width:3.0;" d="M 574.026, 334.081 L 563.338, 342.011 L 560.691, 339.567 L 566.142, 316.217 z "/>
<path style="fill:rgb(105, 175, 255);fill-opacity:1.0;fill-rule:evenodd;stroke:rgb(0, 0, 0);stroke-width:3.0;" d="M 654.06, 33.3852 L 652.185, 38.7776 L 645.667, 41.3922 L 644.254, 30.5358 L 650.664, 24.7648 z "/>
<path style="fill:rgb(255, 255, 18);fill-opacity:1.0;fill-rule:evenodd;stroke:rgb(0, 0, 0);stroke-width:3.0;" d="M 725.886, 62.6575 L 693.599, 44.0455 L 700.813, 38.8908 z "/>
<path style="fill:rgb(192, 19, 55);fill-opacity:1.0;fill-rule:evenodd;stroke:rgb(0, 0, 0);stroke-width:3.0;" d="M 554.906, 334.223 L 544.339, 356.109 L 542.791, 357.258 L 536.739, 344.796 L 549.931, 329.627 z "/>
<path style="fill:rgb(47, 51, 165);fill-opacity:1.0;fill-rule:evenodd;stroke:rgb(0, 0, 0);stroke-width:3.0;" d="M 727.864, 550.686 L 726.766, 550.473 L 723.68, 542.683 L 752.88, 529.298 z "/>
<path style="fill:rgb(252, 152, 7);fill-opacity:1.0;fill-rule:evenodd;stroke:rgb(0, 0, 0);stroke-width:3.0;" d="M 139.869, 357.582 L 133.646, 367.785 L 122.589, 313.865 L 130.717, 310.682 z "/>
<path style="fill:rgb(255, 148, 10);fill-opacity:1.0;fill-rule:evenodd;stroke:rgb(0, 0, 0);stroke-width:3.0;" d="M 620.891, 460.575 L 611.956, 469.449 L 584.905, 464.29 L 584.588, 459.656 z "/>
<path style="fill:rgb(255, 255, 52);fill-opacity:1.0;fill-rule:evenodd;stroke:rgb(0, 0, 0);stroke-width:3.0;" d="M 625.174, 456.322 L 620.891, 460.575 L 584.588, 459.656 L 584.383, 456.661 L 633.568, 441.992 z "/>
<path style="fill:rgb(163, 105, 217);fill-opacity:1.0;fill-rule:evenodd;stroke:rgb(0, 0, 0);stroke-width:3.0;" d="M 696.027, 567.281 L 692.46, 580.766 L 650.225, 574.695 L 652.331, 565.315 z "/>
<path style="fill:rgb(249, 66, 22);fill-opacity:1.0;fill-rule:evenodd;stroke:rgb(0, 0, 0);stroke-width:3.0;" d="M 148.143, 496.778 L 127.972, 512.537 L 81.6977, 498.907 L 94.8839, 488.821 z "/>
<path style="fill:rgb(15, 5, 240);fill-opacity:1.0;fill-rule:evenodd;stroke:rgb(0, 0, 0);stroke-width:3.0;" d="M 158.248, 488.884 L 148.143, 496.778 L 94.8839, 488.821 L 130.818, 461.335 z "/>
<path style="fill:rgb(255, 3, 8);fill-opacity:1.0;fill-rule:evenodd;stroke:rgb(0, 0, 0);stroke-width:3.0;" d="M 713.241, 397.488 L 713.256, 398.218 L 703.248, 423.269 L 690.423, 416.421 L 697.48, 395.716 z "/>
<path style="fill:rgb(192, 58, 255);fill-opacity:1.0;fill-rule:evenodd;stroke:rgb(0, 0, 0);stroke-width:3.0;" d="M 556.223, 395.505 L 533.387, 424.078 L 555.855, 385.153 z "/>
<path style="fill:rgb(192, 58, 255);fill-opacity:1.0;fill-rule:evenodd;stroke:rgb(0, 0, 0);stroke-width:3.0;" d="M 609.763, 471.627 L 606.371, 474.995 L 559.365, 484.019 L 559.221, 479.954 L 560.09, 468.498 z "/>
<path style="fill:rgb(130, 146, 194);fill-opacity:1.0;fill-rule:evenodd;stroke:rgb(0, 0, 0);stroke-width:3.0;" d="M 692.46, 580.766 L 689.067, 593.594 L 637.979, 572.935 z "/>
<path style="fill:rgb(255, 209, 29);fill-opacity:1.0;fill-rule:evenodd;stroke:rgb(0, 0, 0);stroke-width:3.0;" d="M 760.67, 518.746 L 753.779, 528.886 L 744.322, 533.221 L 740.427, 523.123 L 742.976, 519.994 L 746.384, 518.424 z "/>
<path style="fill:rgb(255, 231, 20);fill-opacity:1.0;fill-rule:evenodd;stroke:rgb(0, 0, 0);stroke-width:3.0;" d="M 784.996, 38.6319 L 779.771, 41.7964 L 766.881, 33.5254 L 764.736, 26.003 z "/>
<path style="fill:rgb(255, 4, 32);fill-opacity:1.0;fill-rule:evenodd;stroke:rgb(0, 0, 0);stroke-width:3.0;" d="M 722.746, 404.36 L 722.479, 424.663 L 713.894, 429.107 L 713.784, 423.763 L 721.905, 404.259 z "/>
<path style="fill:rgb(255, 187, 255);fill-opacity:1.0;fill-rule:evenodd;stroke:rgb(0, 0, 0);stroke-width:3.0;" d="M 646.575, 345.037 L 647.074, 369.485 L 625.221, 337.107 z "/>
<path style="fill:rgb(24, 243, 252);fill-opacity:1.0;fill-rule:evenodd;stroke:rgb(0, 0, 0);stroke-width:3.0;" d="M 610.452, 315.224 L 646.833, 369.129 L 595.206, 374.937 L 606.368, 313.685 z "/>
<path style="fill:rgb(226, 36, 132);fill-opacity:1.0;fill-rule:evenodd;stroke:rgb(0, 0, 0);stroke-width:3.0;" d="M 706.096, 51.2496 L 725.106, 75.3891 L 721.004, 80.96 L 720.583, 81.1717 L 710.665, 70.8024 L 703.399, 56.6318 L 704.953, 50.5905 z "/>
</svg>