<?xml version="1.0" encoding="iso-8859-1" standalone="no"?>
<!DOCTYPE svg PUBLIC "-//W3C//DTD SVG 1.0//EN" "http://www.w3.org/TR/2001/REC-SVG-20010904/DTD/svg10.dtd">
<svg xmlns="http://www.w3.org/2000/svg" width="800" height="600">
<path style="fill:rgb(0, 0, 0);fill-opacity:0.0;fill-rule:evenodd;stroke:rgb(0, 0, 0);stroke-width:0.0;" d="M 0, 600 L 800, 600 L 800, 0 L 0, 0 z "/>
<path style="fill:rgb(212, 83, 182);fill-opacity:1.0;fill-rule:evenodd;stroke:rgb(0, 0, 0);stroke-width:3.0;" d="M 303.439, 571.9 L 298.003, 558.379 L 321.898, 507.076 L 346.625, 504.94 z "/>
<path style="fill:rgb(212, 83, 182);fill-opacity:1.0;fill-rule:evenodd;stroke:rgb(0, 0, 0);stroke-width:3.0;" d="M 443.378, 127.378 L 443.342, 127.6 L 431.433, 139.459 L 424.087, 140.318 L 418.984, 130.51 L 423.346, 125.857 z "/>
<path style="fill:rgb(212, 83, 182);fill-opacity:1.0;fill-rule:evenodd;stroke:rgb(0, 0, 0);stroke-width:3.0;" d="M 28.6982, 546.722 L 12.7972, 563.679 L 12.3699, 563.087 L 13.6708, 513.296 z "/>
<path style="fill:rgb(252, 215, 7);fill-opacity:1.0;fill-rule:evenodd;stroke:rgb(0, 0, 0);stroke-width:3.0;" d="M 233.716, 328.084 L 225.298, 337.062 L 217.413, 331.911 L 226.24, 324.401 z "/>
<path style="fill:rgb(252, 215, 7);fill-opacity:1.0;fill-rule:evenodd;stroke:rgb(0, 0, 0);stroke-width:3.0;" d="M 585.795, 484.277 L 63.7285, 529.381 L 267.75, 300.851 L 574.002, 286.391 z "/>
<path style="fill:rgb(255, 142, 10);fill-opacity:1.0;fill-rule:evenodd;stroke:rgb(0, 0, 0);stroke-width:3.0;" d="M 119.688, 24.8039 L 109.845, 31.8767 L 103.141, 26.7934 L 120.539, 17.1909 z "/>
<path style="fill:rgb(255, 40, 35);fill-opacity:1.0;fill-rule:evenodd;stroke:rgb(0, 0, 0);stroke-width:3.0;" d="M 198.611, 35.2961 L 208.755, 57.9816 L 207.938, 59.9778 L 201.696, 59.2232 L 193.808, 28.47 L 194.053, 27.6671 z "/>
<path style="fill:rgb(255, 33, 255);fill-opacity:1.0;fill-rule:evenodd;stroke:rgb(0, 0, 0);stroke-width:3.0;" d="M 357.464, 225.772 L 344.699, 226.795 L 344.717, 220.07 L 362.198, 218.661 z "/>
<path style="fill:rgb(255, 33, 255);fill-opacity:1.0;fill-rule:evenodd;stroke:rgb(0, 0, 0);stroke-width:3.0;" d="M 241.877, 525.864 L 244.893, 531.314 L 212.697, 521.196 L 212.715, 517.423 z "/>
<path style="fill:rgb(255, 33, 255);fill-opacity:1.0;fill-rule:evenodd;stroke:rgb(0, 0, 0);stroke-width:3.0;" d="M 87.7373, 330.534 L 49.2845, 371.806 L 38.8459, 354.949 L 77.2325, 314.182 L 80.9822, 313.944 z "/>
<path style="fill:rgb(255, 33, 255);fill-opacity:1.0;fill-rule:evenodd;stroke:rgb(0, 0, 0);stroke-width:3.0;" d="M 25.3024, 463.044 L 25.9559, 469.036 L 16.3555, 477.688 L 13.5831, 464.547 L 23.648, 460.3 z "/>
<path style="fill:rgb(255, 249, 7);fill-opacity:1.0;fill-rule:evenodd;stroke:rgb(0, 0, 0);stroke-width:3.0;" d="M 531.275, 120.987 L 493.01, 162.616 L 492.8, 162.403 L 457.827, 89.0856 L 488.117, 56.7834 z "/>
<path style="fill:rgb(19, 14, 240);fill-opacity:1.0;fill-rule:evenodd;stroke:rgb(0, 0, 0);stroke-width:3.0;" d="M 151.314, 177.088 L 143.433, 187.195 L 114.924, 169.766 z "/>
<path style="fill:rgb(19, 14, 240);fill-opacity:1.0;fill-rule:evenodd;stroke:rgb(0, 0, 0);stroke-width:3.0;" d="M 143.433, 187.195 L 142.394, 188.528 L 117.268, 183.671 L 116.487, 179.364 L 119.435, 172.524 z "/>
<path style="fill:rgb(19, 14, 240);fill-opacity:1.0;fill-rule:evenodd;stroke:rgb(0, 0, 0);stroke-width:3.0;" d="M 91.378, 178.667 L 42.255, 169.171 L 36.1673, 153.872 L 107.326, 149.374 z "/>
<path style="fill:rgb(19, 14, 240);fill-opacity:1.0;fill-rule:evenodd;stroke:rgb(0, 0, 0);stroke-width:3.0;" d="M 100.111, 317.253 L 87.7373, 330.534 L 80.9822, 313.944 L 87.4956, 313.531 z "/>
<path style="fill:rgb(19, 14, 240);fill-opacity:1.0;fill-rule:evenodd;stroke:rgb(0, 0, 0);stroke-width:3.0;" d="M 576.764, 230.19 L 571.158, 238.677 L 570.181, 222.272 L 575.699, 215.777 L 576.862, 215.449 z "/>
<path style="fill:rgb(19, 14, 240);fill-opacity:1.0;fill-rule:evenodd;stroke:rgb(0, 0, 0);stroke-width:3.0;" d="M 308.5, 55.4316 L 303.683, 56.3814 L 293.929, 41.3056 L 300.051, 35.6359 L 300.451, 35.533 z "/>
<path style="fill:rgb(246, 100, 12);fill-opacity:1.0;fill-rule:evenodd;stroke:rgb(0, 0, 0);stroke-width:3.0;" d="M 208.289, 367.455 L 207.036, 366.463 L 216.135, 346.833 L 258.859, 301.271 L 267.75, 300.851 z "/>
<path style="fill:rgb(246, 100, 12);fill-opacity:1.0;fill-rule:evenodd;stroke:rgb(0, 0, 0);stroke-width:3.0;" d="M 212.42, 49.3264 L 209.02, 52.7169 L 195.563, 30.1942 L 199.667, 28.8715 z "/>
<path style="fill:rgb(246, 100, 12);fill-opacity:1.0;fill-rule:evenodd;stroke:rgb(0, 0, 0);stroke-width:3.0;" d="M 465.944, 176.109 L 464.436, 184.972 L 435.273, 177.643 L 436.592, 169.467 L 447.105, 153.159 z "/>
<path style="fill:rgb(246, 100, 12);fill-opacity:1.0;fill-rule:evenodd;stroke:rgb(0, 0, 0);stroke-width:3.0;" d="M 119.901, 75.4993 L 114.748, 83.2267 L 111.653, 85.8763 L 95.5487, 66.8362 L 99.0819, 63.0814 L 108.696, 61.9263 z "/>
<path style="fill:rgb(255, 16, 11);fill-opacity:1.0;fill-rule:evenodd;stroke:rgb(0, 0, 0);stroke-width:3.0;" d="M 87.6725, 502.561 L 68.9975, 523.479 L 67.0228, 524.033 L 81.4528, 496.717 z "/>
<path style="fill:rgb(255, 16, 11);fill-opacity:1.0;fill-rule:evenodd;stroke:rgb(0, 0, 0);stroke-width:3.0;" d="M 535.614, 127.441 L 537.849, 130.766 L 535.24, 135.327 L 517.281, 139.347 L 517.082, 136.428 L 530.779, 121.527 z "/>
<path style="fill:rgb(255, 16, 11);fill-opacity:1.0;fill-rule:evenodd;stroke:rgb(0, 0, 0);stroke-width:3.0;" d="M 501.52, 194.29 L 484.266, 224.46 L 470.627, 225.539 L 429.755, 211.87 L 435.273, 177.643 z "/>
<path style="fill:rgb(22, 50, 255);fill-opacity:1.0;fill-rule:evenodd;stroke:rgb(0, 0, 0);stroke-width:3.0;" d="M 97.6017, 473.241 L 79.9426, 472.671 L 130.12, 438.562 z "/>
<path style="fill:rgb(255, 22, 189);fill-opacity:1.0;fill-rule:evenodd;stroke:rgb(0, 0, 0);stroke-width:3.0;" d="M 544.633, 177.401 L 524.182, 178.458 L 528.504, 166.401 z "/>
<path style="fill:rgb(255, 22, 189);fill-opacity:1.0;fill-rule:evenodd;stroke:rgb(0, 0, 0);stroke-width:3.0;" d="M 225.298, 337.062 L 190.114, 374.583 L 162.713, 378.445 L 217.413, 331.911 z "/>
<path style="fill:rgb(255, 22, 189);fill-opacity:1.0;fill-rule:evenodd;stroke:rgb(0, 0, 0);stroke-width:3.0;" d="M 142.394, 188.528 L 94.4651, 249.995 L 92.5036, 218.634 L 128.913, 185.923 z "/>
<path style="fill:rgb(252, 255, 25);fill-opacity:1.0;fill-rule:evenodd;stroke:rgb(0, 0, 0);stroke-width:3.0;" d="M 103.773, 76.5596 L 100.99, 91.632 L 92.6992, 87.312 L 88.7831, 77.0366 L 96.5965, 68.075 z "/>
<path style="fill:rgb(252, 255, 25);fill-opacity:1.0;fill-rule:evenodd;stroke:rgb(0, 0, 0);stroke-width:3.0;" d="M 303.439, 571.9 L 290.07, 592.629 L 275.723, 584.167 L 279.331, 511.931 z "/>
<path style="fill:rgb(128, 157, 220);fill-opacity:1.0;fill-rule:evenodd;stroke:rgb(0, 0, 0);stroke-width:3.0;" d="M 36.9541, 168.147 L 92.5851, 219.937 L 93.6063, 236.264 L 43.0453, 226.771 L 34.2727, 167.628 z "/>
<path style="fill:rgb(128, 157, 220);fill-opacity:1.0;fill-rule:evenodd;stroke:rgb(0, 0, 0);stroke-width:3.0;" d="M 27.5088, 483.274 L 19.4293, 492.258 L 16.3555, 477.688 L 25.9559, 469.036 z "/>
<path style="fill:rgb(255, 55, 134);fill-opacity:1.0;fill-rule:evenodd;stroke:rgb(0, 0, 0);stroke-width:3.0;" d="M 483.919, 161.582 L 453.493, 160.941 L 447.105, 153.159 L 458.61, 135.312 z "/>
<path style="fill:rgb(255, 55, 134);fill-opacity:1.0;fill-rule:evenodd;stroke:rgb(0, 0, 0);stroke-width:3.0;" d="M 458.777, 127.887 L 461.57, 130.72 L 438.519, 166.478 L 438.318, 158.758 L 443.468, 126.818 z "/>
<path style="fill:rgb(255, 55, 134);fill-opacity:1.0;fill-rule:evenodd;stroke:rgb(0, 0, 0);stroke-width:3.0;" d="M 244.266, 274.626 L 268.521, 288.432 L 116.929, 417.395 L 144.128, 270.01 L 144.611, 269.491 z "/>
<path style="fill:rgb(255, 255, 62);fill-opacity:1.0;fill-rule:evenodd;stroke:rgb(0, 0, 0);stroke-width:3.0;" d="M 282.02, 276.571 L 280.274, 278.433 L 268.521, 288.432 L 244.266, 274.626 z "/>
<path style="fill:rgb(231, 255, 40);fill-opacity:1.0;fill-rule:evenodd;stroke:rgb(0, 0, 0);stroke-width:3.0;" d="M 604.759, 425.332 L 609.944, 431.949 L 601.233, 438.646 L 591.114, 431.406 L 603.962, 424.637 z "/>
<path style="fill:rgb(237, 21, 223);fill-opacity:1.0;fill-rule:evenodd;stroke:rgb(0, 0, 0);stroke-width:3.0;" d="M 315.588, 239.69 L 300.334, 57.0418 L 442.662, 28.9778 z "/>
<path style="fill:rgb(255, 36, 6);fill-opacity:1.0;fill-rule:evenodd;stroke:rgb(0, 0, 0);stroke-width:3.0;" d="M 199.401, 50.2765 L 191.574, 53.1411 L 189.871, 51.7133 L 194.128, 29.7193 z "/>
<path style="fill:rgb(197, 31, 114);fill-opacity:1.0;fill-rule:evenodd;stroke:rgb(0, 0, 0);stroke-width:3.0;" d="M 461.325, 25.2979 L 415.514, 34.3308 L 403.501, 28.0728 L 419.494, 18.713 z "/>
<path style="fill:rgb(220, 255, 17);fill-opacity:1.0;fill-rule:evenodd;stroke:rgb(0, 0, 0);stroke-width:3.0;" d="M 419.494, 18.713 L 403.501, 28.0728 L 370.829, 11.0524 z "/>
<path style="fill:rgb(255, 0, 42);fill-opacity:1.0;fill-rule:evenodd;stroke:rgb(0, 0, 0);stroke-width:3.0;" d="M 544.602, 142.163 L 544.748, 142.397 L 539.721, 148.557 L 523.325, 156.163 L 531.498, 141.871 z "/>
<path style="fill:rgb(255, 81, 44);fill-opacity:1.0;fill-rule:evenodd;stroke:rgb(0, 0, 0);stroke-width:3.0;" d="M 67.0228, 524.033 L 59.1935, 526.231 L 47.9133, 526.23 L 89.0194, 482.393 z "/>
<path style="fill:rgb(255, 81, 44);fill-opacity:1.0;fill-rule:evenodd;stroke:rgb(0, 0, 0);stroke-width:3.0;" d="M 476.294, 291.004 L 258.859, 301.271 L 318.595, 237.567 L 502.041, 223.054 z "/>
<path style="fill:rgb(35, 255, 252);fill-opacity:1.0;fill-rule:evenodd;stroke:rgb(0, 0, 0);stroke-width:3.0;" d="M 655.489, 305.773 L 682.744, 346.319 L 625.979, 420.157 L 581.948, 419.725 L 575.015, 303.389 z "/>
<path style="fill:rgb(35, 255, 252);fill-opacity:1.0;fill-rule:evenodd;stroke:rgb(0, 0, 0);stroke-width:3.0;" d="M 130.12, 438.562 L 45.3044, 496.217 L 38.1747, 484.392 L 162.713, 378.445 L 190.114, 374.583 z "/>
<path style="fill:rgb(246, 246, 33);fill-opacity:1.0;fill-rule:evenodd;stroke:rgb(0, 0, 0);stroke-width:3.0;" d="M 483.919, 161.582 L 506.702, 185.23 L 501.52, 194.29 L 475.5, 187.752 L 453.493, 160.941 z "/>
<path style="fill:rgb(246, 246, 33);fill-opacity:1.0;fill-rule:evenodd;stroke:rgb(0, 0, 0);stroke-width:3.0;" d="M 304.141, 102.629 L 267.517, 63.5126 L 300.334, 57.0418 z "/>
<path style="fill:rgb(246, 246, 33);fill-opacity:1.0;fill-rule:evenodd;stroke:rgb(0, 0, 0);stroke-width:3.0;" d="M 43.0896, 63.8045 L 26.6899, 76.8149 L 21.4375, 78.4502 L 21.7273, 71.7285 L 43.9288, 59.4747 z "/>
<path style="fill:rgb(255, 252, 7);fill-opacity:1.0;fill-rule:evenodd;stroke:rgb(0, 0, 0);stroke-width:3.0;" d="M 94.2838, 44.4679 L 85.8613, 92.6593 L 71.2323, 50.5504 L 78.7806, 40.2389 L 87.0326, 35.6844 z "/>
<path style="fill:rgb(249, 21, 184);fill-opacity:1.0;fill-rule:evenodd;stroke:rgb(0, 0, 0);stroke-width:3.0;" d="M 787.108, 13.2256 L 757.929, 36.9416 L 496.932, 47.3836 L 533.111, 8.801 z "/>
<path style="fill:rgb(255, 136, 14);fill-opacity:1.0;fill-rule:evenodd;stroke:rgb(0, 0, 0);stroke-width:3.0;" d="M 85.6933, 93.6206 L 84.6537, 99.5692 L 69.6613, 102.525 L 58.8609, 51.2332 L 61.2823, 49.8968 z "/>
<path style="fill:rgb(255, 3, 240);fill-opacity:1.0;fill-rule:evenodd;stroke:rgb(0, 0, 0);stroke-width:3.0;" d="M 42.255, 169.171 L 19.0693, 164.69 L 16.9188, 155.735 L 26.8253, 154.462 L 36.1673, 153.872 z "/>
<path style="fill:rgb(255, 3, 240);fill-opacity:1.0;fill-rule:evenodd;stroke:rgb(0, 0, 0);stroke-width:3.0;" d="M 85.8613, 92.6593 L 85.6933, 93.6206 L 61.2823, 49.8968 L 69.4409, 45.3938 z "/>
<path style="fill:rgb(246, 207, 7);fill-opacity:1.0;fill-rule:evenodd;stroke:rgb(0, 0, 0);stroke-width:3.0;" d="M 186.828, 215.305 L 82.4944, 265.347 L 172.679, 149.688 z "/>
<path style="fill:rgb(246, 179, 21);fill-opacity:1.0;fill-rule:evenodd;stroke:rgb(0, 0, 0);stroke-width:3.0;" d="M 32.4054, 361.789 L 48.701, 315.991 L 77.2325, 314.182 z "/>
<path style="fill:rgb(7, 255, 255);fill-opacity:1.0;fill-rule:evenodd;stroke:rgb(0, 0, 0);stroke-width:3.0;" d="M 445.492, 114.27 L 444.734, 118.967 L 437.145, 126.905 L 423.346, 125.857 L 442.067, 105.893 z "/>
<path style="fill:rgb(255, 1, 217);fill-opacity:1.0;fill-rule:evenodd;stroke:rgb(0, 0, 0);stroke-width:3.0;" d="M 738, 53.1392 L 578.414, 44.1237 L 757.929, 36.9416 z "/>
<path style="fill:rgb(255, 1, 217);fill-opacity:1.0;fill-rule:evenodd;stroke:rgb(0, 0, 0);stroke-width:3.0;" d="M 547.857, 145.655 L 535.275, 171.019 L 526.357, 164.936 L 545.252, 141.779 z "/>
<path style="fill:rgb(255, 89, 7);fill-opacity:1.0;fill-rule:evenodd;stroke:rgb(0, 0, 0);stroke-width:3.0;" d="M 38.82, 535.927 L 33.8316, 541.247 L 31.431, 519.236 L 40.9585, 517.763 z "/>
<path style="fill:rgb(255, 89, 7);fill-opacity:1.0;fill-rule:evenodd;stroke:rgb(0, 0, 0);stroke-width:3.0;" d="M 62.77, 69.7979 L 40.9996, 74.5867 L 43.9288, 59.4747 L 58.8609, 51.2332 z "/>
<path style="fill:rgb(255, 89, 7);fill-opacity:1.0;fill-rule:evenodd;stroke:rgb(0, 0, 0);stroke-width:3.0;" d="M 198.623, 116.416 L 192.679, 124.039 L 184.654, 80.7641 L 185.568, 79.6712 L 206.512, 75.5413 z "/>
<path style="fill:rgb(249, 33, 97);fill-opacity:1.0;fill-rule:evenodd;stroke:rgb(0, 0, 0);stroke-width:3.0;" d="M 116.07, 57.1703 L 106.922, 59.3285 L 114.286, 28.6859 L 119.688, 24.8039 z "/>
<path style="fill:rgb(249, 33, 97);fill-opacity:1.0;fill-rule:evenodd;stroke:rgb(0, 0, 0);stroke-width:3.0;" d="M 192.679, 124.039 L 175.569, 145.982 L 164.602, 104.742 L 184.654, 80.7641 z "/>
<path style="fill:rgb(255, 237, 34);fill-opacity:1.0;fill-rule:evenodd;stroke:rgb(0, 0, 0);stroke-width:3.0;" d="M 216.418, 93.5955 L 203.469, 91.3078 L 204.777, 84.5335 L 224.994, 71.8972 L 234.853, 69.9532 z "/>
<path style="fill:rgb(255, 237, 34);fill-opacity:1.0;fill-rule:evenodd;stroke:rgb(0, 0, 0);stroke-width:3.0;" d="M 372.249, 11.7925 L 372.579, 23.8486 L 362.437, 24.5011 L 365.983, 8.52774 z "/>
<path style="fill:rgb(255, 18, 175);fill-opacity:1.0;fill-rule:evenodd;stroke:rgb(0, 0, 0);stroke-width:3.0;" d="M 148.754, 32.3105 L 148.424, 32.9305 L 117.687, 62.8492 L 125.12, 14.6625 L 142.056, 5.31536 z "/>
<path style="fill:rgb(255, 18, 175);fill-opacity:1.0;fill-rule:evenodd;stroke:rgb(0, 0, 0);stroke-width:3.0;" d="M 225.176, 36.6087 L 213.79, 47.9606 L 200.959, 28.4553 L 206.865, 26.5518 z "/>
<path style="fill:rgb(255, 18, 175);fill-opacity:1.0;fill-rule:evenodd;stroke:rgb(0, 0, 0);stroke-width:3.0;" d="M 158.332, 546.349 L 146.509, 522.229 L 178.586, 519.458 z "/>
<path style="fill:rgb(255, 18, 175);fill-opacity:1.0;fill-rule:evenodd;stroke:rgb(0, 0, 0);stroke-width:3.0;" d="M 184.202, 394.436 L 140.961, 442.871 L 129.021, 439.734 L 148.647, 418.804 L 181.388, 393.86 z "/>
<path style="fill:rgb(255, 18, 175);fill-opacity:1.0;fill-rule:evenodd;stroke:rgb(0, 0, 0);stroke-width:3.0;" d="M 186.191, 583.204 L 183.128, 593.552 L 134.905, 586.461 L 156.024, 556.877 z "/>
<path style="fill:rgb(255, 18, 175);fill-opacity:1.0;fill-rule:evenodd;stroke:rgb(0, 0, 0);stroke-width:3.0;" d="M 257.163, 22.8216 L 240.3, 44.9148 L 198.986, 22.2246 L 198.445, 18.669 L 242.16, 7.57156 z "/>
<path style="fill:rgb(246, 18, 18);fill-opacity:1.0;fill-rule:evenodd;stroke:rgb(0, 0, 0);stroke-width:3.0;" d="M 33.6335, 358.337 L 10.0132, 352.277 L 7.70689, 347.322 L 11.9509, 318.32 L 48.701, 315.991 z "/>
<path style="fill:rgb(246, 18, 18);fill-opacity:1.0;fill-rule:evenodd;stroke:rgb(0, 0, 0);stroke-width:3.0;" d="M 433.157, 190.768 L 431.305, 202.254 L 389.478, 161.975 L 394.226, 156.912 z "/>
<path style="fill:rgb(246, 18, 18);fill-opacity:1.0;fill-rule:evenodd;stroke:rgb(0, 0, 0);stroke-width:3.0;" d="M 159.145, 548.008 L 156.591, 557.372 L 146.674, 548.717 L 141.035, 537.568 L 152.494, 534.44 z "/>
<path style="fill:rgb(226, 65, 105);fill-opacity:1.0;fill-rule:evenodd;stroke:rgb(0, 0, 0);stroke-width:3.0;" d="M 655.489, 305.773 L 575.015, 303.389 L 571.621, 246.445 L 598.746, 221.359 z "/>
<path style="fill:rgb(252, 19, 182);fill-opacity:1.0;fill-rule:evenodd;stroke:rgb(0, 0, 0);stroke-width:3.0;" d="M 345.112, 235.469 L 336.818, 236.125 L 320.617, 235.411 L 327.397, 228.181 L 343.762, 226.87 z "/>
<path style="fill:rgb(252, 19, 182);fill-opacity:1.0;fill-rule:evenodd;stroke:rgb(0, 0, 0);stroke-width:3.0;" d="M 181.388, 393.86 L 148.647, 418.804 L 161.589, 405.003 L 174.356, 392.421 z "/>
<path style="fill:rgb(252, 19, 182);fill-opacity:1.0;fill-rule:evenodd;stroke:rgb(0, 0, 0);stroke-width:3.0;" d="M 737.292, 427.466 L 738.004, 465.664 L 737.129, 492.516 L 724.503, 408.441 z "/>
<path style="fill:rgb(252, 19, 182);fill-opacity:1.0;fill-rule:evenodd;stroke:rgb(0, 0, 0);stroke-width:3.0;" d="M 183.417, 9.8645 L 194.053, 27.6671 L 185.027, 57.2076 L 139.462, 51.6985 L 133.644, 47.3173 L 172.3, 9.68956 z "/>
<path style="fill:rgb(27, 126, 255);fill-opacity:1.0;fill-rule:evenodd;stroke:rgb(0, 0, 0);stroke-width:3.0;" d="M 135.59, 441.46 L 138.304, 445.847 L 134.651, 449.939 L 117.656, 451.854 L 129.021, 439.734 z "/>
<path style="fill:rgb(69, 159, 240);fill-opacity:1.0;fill-rule:evenodd;stroke:rgb(0, 0, 0);stroke-width:3.0;" d="M 270.681, 275.987 L 199.118, 272.3 L 193.455, 246.039 L 220.465, 88.4046 L 234.853, 69.9532 L 248.583, 67.246 z "/>
<path style="fill:rgb(69, 159, 240);fill-opacity:1.0;fill-rule:evenodd;stroke:rgb(0, 0, 0);stroke-width:3.0;" d="M 264.868, 579.478 L 264.196, 583.988 L 221.096, 578.235 L 245.238, 568.614 z "/>
<path style="fill:rgb(69, 159, 240);fill-opacity:1.0;fill-rule:evenodd;stroke:rgb(0, 0, 0);stroke-width:3.0;" d="M 256.825, 303.441 L 233.716, 328.084 L 226.24, 324.401 L 252.711, 301.882 z "/>
<path style="fill:rgb(246, 161, 7);fill-opacity:1.0;fill-rule:evenodd;stroke:rgb(0, 0, 0);stroke-width:3.0;" d="M 262.023, 44.029 L 270.462, 62.9319 L 257.148, 65.5571 L 257.656, 41.2266 z "/>
<path style="fill:rgb(157, 94, 255);fill-opacity:1.0;fill-rule:evenodd;stroke:rgb(0, 0, 0);stroke-width:3.0;" d="M 522.049, 158.393 L 515.449, 169.934 L 512.683, 172.793 L 500.513, 166.462 L 515.451, 154.453 z "/>
<path style="fill:rgb(157, 94, 255);fill-opacity:1.0;fill-rule:evenodd;stroke:rgb(0, 0, 0);stroke-width:3.0;" d="M 144.611, 269.491 L 104.588, 312.448 L 104.383, 312.461 L 69.0337, 306.274 L 99.5184, 267.168 z "/>
<path style="fill:rgb(157, 94, 255);fill-opacity:1.0;fill-rule:evenodd;stroke:rgb(0, 0, 0);stroke-width:3.0;" d="M 275.879, 581.036 L 273.632, 584.328 L 245.238, 568.614 L 277.134, 555.904 z "/>
<path style="fill:rgb(157, 94, 255);fill-opacity:1.0;fill-rule:evenodd;stroke:rgb(0, 0, 0);stroke-width:3.0;" d="M 401.282, 580.007 L 290.937, 591.284 L 346.625, 504.94 L 429.193, 497.807 z "/>
<path style="fill:rgb(11, 91, 243);fill-opacity:1.0;fill-rule:evenodd;stroke:rgb(0, 0, 0);stroke-width:3.0;" d="M 492.471, 162.07 L 445.472, 114.389 L 447.834, 99.743 L 456.428, 90.578 z "/>
<path style="fill:rgb(11, 91, 243);fill-opacity:1.0;fill-rule:evenodd;stroke:rgb(0, 0, 0);stroke-width:3.0;" d="M 193.455, 246.039 L 173.551, 153.732 L 218.121, 102.089 z "/>
<path style="fill:rgb(249, 19, 75);fill-opacity:1.0;fill-rule:evenodd;stroke:rgb(0, 0, 0);stroke-width:3.0;" d="M 173.821, 139.409 L 157.087, 169.685 L 157.017, 169.774 L 131.946, 143.793 L 164.602, 104.742 z "/>
<path style="fill:rgb(21, 3, 202);fill-opacity:1.0;fill-rule:evenodd;stroke:rgb(0, 0, 0);stroke-width:3.0;" d="M 568.364, 191.782 L 569.907, 217.685 L 545.202, 219.64 L 553.745, 182.352 z "/>
<path style="fill:rgb(21, 3, 202);fill-opacity:1.0;fill-rule:evenodd;stroke:rgb(0, 0, 0);stroke-width:3.0;" d="M 531.981, 141.027 L 518.102, 151.408 L 517.281, 139.347 L 535.24, 135.327 z "/>
<path style="fill:rgb(21, 3, 202);fill-opacity:1.0;fill-rule:evenodd;stroke:rgb(0, 0, 0);stroke-width:3.0;" d="M 502.497, 555.922 L 426.908, 504.537 L 429.193, 497.807 L 465.889, 494.636 z "/>
<path style="fill:rgb(207, 2, 14);fill-opacity:1.0;fill-rule:evenodd;stroke:rgb(0, 0, 0);stroke-width:3.0;" d="M 256.542, 530.109 L 210.284, 516.719 L 253.898, 512.951 z "/>
<path style="fill:rgb(255, 4, 42);fill-opacity:1.0;fill-rule:evenodd;stroke:rgb(0, 0, 0);stroke-width:3.0;" d="M 278.111, 536.353 L 256.542, 530.109 L 253.898, 512.951 L 279.39, 510.749 z "/>
<path style="fill:rgb(22, 255, 255);fill-opacity:1.0;fill-rule:evenodd;stroke:rgb(0, 0, 0);stroke-width:3.0;" d="M 49.2845, 371.806 L 29.1572, 393.409 L 24.6218, 383.665 L 32.4054, 361.789 L 38.8459, 354.949 z "/>
<path style="fill:rgb(81, 249, 134);fill-opacity:1.0;fill-rule:evenodd;stroke:rgb(0, 0, 0);stroke-width:3.0;" d="M 135.339, 75.397 L 137.116, 89.2248 L 132.056, 90.2225 L 113.751, 68.0491 L 116.925, 65.244 z "/>
<path style="fill:rgb(255, 152, 255);fill-opacity:1.0;fill-rule:evenodd;stroke:rgb(0, 0, 0);stroke-width:3.0;" d="M 277.845, 541.67 L 277.134, 555.904 L 237.958, 571.516 L 197.709, 544.291 L 199.159, 539.393 L 222.489, 530.4 L 236.257, 528.6 z "/>
<path style="fill:rgb(255, 115, 10);fill-opacity:1.0;fill-rule:evenodd;stroke:rgb(0, 0, 0);stroke-width:3.0;" d="M 110.538, 476.327 L 94.7625, 485.79 L 91.4594, 479.791 L 104.142, 466.266 z "/>
<path style="fill:rgb(255, 1, 94);fill-opacity:1.0;fill-rule:evenodd;stroke:rgb(0, 0, 0);stroke-width:3.0;" d="M 509.859, 179.71 L 506.702, 185.23 L 458.61, 135.312 L 461.57, 130.72 z "/>
<path style="fill:rgb(69, 37, 255);fill-opacity:1.0;fill-rule:evenodd;stroke:rgb(0, 0, 0);stroke-width:3.0;" d="M 103.892, 208.402 L 92.5036, 218.634 L 91.3576, 200.313 z "/>
<path style="fill:rgb(69, 37, 255);fill-opacity:1.0;fill-rule:evenodd;stroke:rgb(0, 0, 0);stroke-width:3.0;" d="M 89.9869, 178.398 L 91.1154, 196.44 L 88.7886, 199.443 L 79.3059, 198.927 L 77.5241, 190.9 L 80.1913, 176.505 z "/>
<path style="fill:rgb(215, 11, 36);fill-opacity:1.0;fill-rule:evenodd;stroke:rgb(0, 0, 0);stroke-width:3.0;" d="M 391.046, 163.485 L 386.824, 216.677 L 369.505, 218.072 L 344.732, 209.694 L 389.478, 161.975 z "/>
<path style="fill:rgb(255, 25, 255);fill-opacity:1.0;fill-rule:evenodd;stroke:rgb(0, 0, 0);stroke-width:3.0;" d="M 156.761, 53.79 L 158.744, 54.8824 L 175.69, 78.5896 L 141.943, 79.0383 L 130.967, 72.9864 L 123.939, 56.764 L 130.283, 50.5886 z "/>
<path style="fill:rgb(255, 249, 148);fill-opacity:1.0;fill-rule:evenodd;stroke:rgb(0, 0, 0);stroke-width:3.0;" d="M 116.929, 417.395 L 39.4336, 483.321 L 34.1775, 464.261 L 125.833, 369.147 z "/>
<path style="fill:rgb(255, 21, 21);fill-opacity:1.0;fill-rule:evenodd;stroke:rgb(0, 0, 0);stroke-width:3.0;" d="M 74.0661, 175.321 L 75.3801, 181.24 L 51.1401, 181.353 L 36.9541, 168.147 z "/>
<path style="fill:rgb(255, 21, 21);fill-opacity:1.0;fill-rule:evenodd;stroke:rgb(0, 0, 0);stroke-width:3.0;" d="M 374.321, 33.9013 L 358.282, 43.2184 L 362.437, 24.5011 L 363.289, 24.4462 z "/>
<path style="fill:rgb(199, 62, 16);fill-opacity:1.0;fill-rule:evenodd;stroke:rgb(0, 0, 0);stroke-width:3.0;" d="M 28.6121, 357.049 L 28.586, 363.318 L 23.7393, 376.41 L 14.7696, 353.498 z "/>
<path style="fill:rgb(255, 72, 123);fill-opacity:1.0;fill-rule:evenodd;stroke:rgb(0, 0, 0);stroke-width:3.0;" d="M 553.745, 182.352 L 545.202, 219.64 L 484.266, 224.46 L 499.447, 197.916 L 514.933, 178.937 L 545.964, 177.332 z "/>
<path style="fill:rgb(255, 6, 255);fill-opacity:1.0;fill-rule:evenodd;stroke:rgb(0, 0, 0);stroke-width:3.0;" d="M 382.652, 231.579 L 372.891, 232.615 L 367.668, 224.955 L 384.769, 223.585 z "/>
<path style="fill:rgb(255, 74, 142);fill-opacity:1.0;fill-rule:evenodd;stroke:rgb(0, 0, 0);stroke-width:3.0;" d="M 128.392, 148.043 L 16.7658, 155.098 L 7.10253, 114.861 L 185.568, 79.6712 z "/>
<path style="fill:rgb(110, 215, 255);fill-opacity:1.0;fill-rule:evenodd;stroke:rgb(0, 0, 0);stroke-width:3.0;" d="M 237.958, 571.516 L 225.444, 576.503 L 196.396, 548.727 L 197.709, 544.291 z "/>
<path style="fill:rgb(231, 255, 52);fill-opacity:1.0;fill-rule:evenodd;stroke:rgb(0, 0, 0);stroke-width:3.0;" d="M 110.769, 476.69 L 105.178, 467.895 L 112.98, 456.841 L 117.656, 451.854 L 134.651, 449.939 z "/>
<path style="fill:rgb(231, 255, 52);fill-opacity:1.0;fill-rule:evenodd;stroke:rgb(0, 0, 0);stroke-width:3.0;" d="M 529.299, 288.502 L 476.294, 291.004 L 494.845, 242.046 z "/>
<path style="fill:rgb(100, 39, 255);fill-opacity:1.0;fill-rule:evenodd;stroke:rgb(0, 0, 0);stroke-width:3.0;" d="M 574.002, 286.391 L 529.299, 288.502 L 494.845, 242.046 L 502.041, 223.054 L 569.907, 217.685 z "/>
<path style="fill:rgb(255, 0, 30);fill-opacity:1.0;fill-rule:evenodd;stroke:rgb(0, 0, 0);stroke-width:3.0;" d="M 99.5184, 267.168 L 87.3165, 282.821 L 56.7408, 293.32 L 58.4352, 289.872 L 96.2896, 267.001 z "/>
<path style="fill:rgb(7, 40, 226);fill-opacity:1.0;fill-rule:evenodd;stroke:rgb(0, 0, 0);stroke-width:3.0;" d="M 30.3781, 471.462 L 35.6063, 486.466 L 33.3927, 493.845 L 31.3941, 498.459 L 28.9755, 496.722 L 25.3024, 463.044 z "/>
<path style="fill:rgb(85, 130, 197);fill-opacity:1.0;fill-rule:evenodd;stroke:rgb(0, 0, 0);stroke-width:3.0;" d="M 304.141, 102.629 L 315.671, 240.685 L 282.02, 276.571 L 270.681, 275.987 L 248.583, 67.246 L 267.517, 63.5126 z "/>
<path style="fill:rgb(85, 130, 197);fill-opacity:1.0;fill-rule:evenodd;stroke:rgb(0, 0, 0);stroke-width:3.0;" d="M 186.191, 583.204 L 169.077, 568.269 L 158.332, 546.349 L 178.586, 519.458 L 205.755, 517.111 z "/>
<path style="fill:rgb(209, 103, 12);fill-opacity:1.0;fill-rule:evenodd;stroke:rgb(0, 0, 0);stroke-width:3.0;" d="M 41.9617, 69.6231 L 40.3668, 77.8511 L 21.308, 81.4553 L 21.3246, 81.0714 L 40.3338, 65.9907 L 40.7737, 65.9633 z "/>
<path style="fill:rgb(255, 3, 6);fill-opacity:1.0;fill-rule:evenodd;stroke:rgb(0, 0, 0);stroke-width:3.0;" d="M 433.157, 190.768 L 394.226, 156.912 L 408.025, 142.197 L 441.622, 138.267 z "/>
<path style="fill:rgb(255, 3, 6);fill-opacity:1.0;fill-rule:evenodd;stroke:rgb(0, 0, 0);stroke-width:3.0;" d="M 101.195, 180.565 L 91.378, 178.667 L 107.326, 149.374 L 128.392, 148.043 z "/>
<path style="fill:rgb(246, 55, 27);fill-opacity:1.0;fill-rule:evenodd;stroke:rgb(0, 0, 0);stroke-width:3.0;" d="M 68.9541, 197.937 L 58.548, 188.25 L 71.7902, 181.257 L 73.1461, 181.251 z "/>
<path style="fill:rgb(255, 252, 76);fill-opacity:1.0;fill-rule:evenodd;stroke:rgb(0, 0, 0);stroke-width:3.0;" d="M 128.913, 185.923 L 114.553, 198.824 L 110.959, 182.452 z "/>
<path style="fill:rgb(154, 0, 226);fill-opacity:1.0;fill-rule:evenodd;stroke:rgb(0, 0, 0);stroke-width:3.0;" d="M 214.155, 106.683 L 184.64, 140.883 L 178.602, 142.093 L 210.144, 101.641 z "/>
<path style="fill:rgb(11, 123, 255);fill-opacity:1.0;fill-rule:evenodd;stroke:rgb(0, 0, 0);stroke-width:3.0;" d="M 431.305, 202.254 L 428.43, 220.088 L 393.505, 222.885 L 410.367, 182.091 z "/>
<path style="fill:rgb(50, 252, 204);fill-opacity:1.0;fill-rule:evenodd;stroke:rgb(0, 0, 0);stroke-width:3.0;" d="M 470.196, 75.8955 L 315.671, 240.685 L 315.588, 239.69 L 437.413, 37.6824 z "/>
<path style="fill:rgb(50, 252, 204);fill-opacity:1.0;fill-rule:evenodd;stroke:rgb(0, 0, 0);stroke-width:3.0;" d="M 410.367, 182.091 L 393.505, 222.885 L 386.285, 223.464 L 391.046, 163.485 z "/>
<path style="fill:rgb(228, 17, 121);fill-opacity:1.0;fill-rule:evenodd;stroke:rgb(0, 0, 0);stroke-width:3.0;" d="M 81.5065, 208.842 L 81.1547, 209.296 L 77.5577, 205.947 L 70.6072, 195.021 L 75.6544, 182.476 z "/>
<path style="fill:rgb(255, 252, 81);fill-opacity:1.0;fill-rule:evenodd;stroke:rgb(0, 0, 0);stroke-width:3.0;" d="M 93.6063, 236.264 L 94.4651, 249.995 L 81.7873, 266.254 L 48.6486, 264.546 L 43.0453, 226.771 z "/>
<path style="fill:rgb(69, 52, 148);fill-opacity:1.0;fill-rule:evenodd;stroke:rgb(0, 0, 0);stroke-width:3.0;" d="M 148.364, 526.013 L 149.992, 530.355 L 140.62, 536.749 L 135.335, 526.3 L 137.875, 522.975 L 146.509, 522.229 z "/>
<path style="fill:rgb(150, 255, 182);fill-opacity:1.0;fill-rule:evenodd;stroke:rgb(0, 0, 0);stroke-width:3.0;" d="M 598.746, 221.359 L 578.004, 240.542 L 571.28, 240.722 L 571.255, 240.303 L 592.119, 211.5 z "/>
<path style="fill:rgb(231, 150, 19);fill-opacity:1.0;fill-rule:evenodd;stroke:rgb(0, 0, 0);stroke-width:3.0;" d="M 420.507, 227.56 L 382.652, 231.579 L 384.769, 223.585 L 421.218, 220.666 z "/>
<path style="fill:rgb(231, 192, 34);fill-opacity:1.0;fill-rule:evenodd;stroke:rgb(0, 0, 0);stroke-width:3.0;" d="M 280.073, 55.6131 L 284.426, 58.4068 L 282.197, 60.618 L 270.462, 62.9319 L 263.115, 46.475 z "/>
<path style="fill:rgb(57, 61, 255);fill-opacity:1.0;fill-rule:evenodd;stroke:rgb(0, 0, 0);stroke-width:3.0;" d="M 589.834, 552.051 L 555.817, 508.536 L 552.523, 487.152 L 585.795, 484.277 z "/>
<path style="fill:rgb(199, 2, 40);fill-opacity:1.0;fill-rule:evenodd;stroke:rgb(0, 0, 0);stroke-width:3.0;" d="M 25.2263, 384.964 L 16.8429, 397.395 L 8.59217, 379.235 L 22.0364, 378.11 z "/>
<path style="fill:rgb(199, 2, 40);fill-opacity:1.0;fill-rule:evenodd;stroke:rgb(0, 0, 0);stroke-width:3.0;" d="M 64.9741, 311.482 L 62.3099, 311.682 L 50.4871, 306.045 L 56.7408, 293.32 L 87.3165, 282.821 z "/>
<path style="fill:rgb(212, 0, 10);fill-opacity:1.0;fill-rule:evenodd;stroke:rgb(0, 0, 0);stroke-width:3.0;" d="M 69.6613, 102.525 L 31.8884, 109.973 L 24.894, 98.6421 L 30.9663, 79.6288 L 63.5429, 73.4684 z "/>
<path style="fill:rgb(212, 0, 10);fill-opacity:1.0;fill-rule:evenodd;stroke:rgb(0, 0, 0);stroke-width:3.0;" d="M 327.977, 51.5912 L 317.403, 53.6761 L 307.266, 52.3804 L 304.34, 45.1464 L 312.402, 39.5951 z "/>
<path style="fill:rgb(255, 138, 6);fill-opacity:1.0;fill-rule:evenodd;stroke:rgb(0, 0, 0);stroke-width:3.0;" d="M 518.102, 151.408 L 502.544, 163.045 L 506.8, 147.614 L 517.082, 136.428 z "/>
<path style="fill:rgb(45, 11, 255);fill-opacity:1.0;fill-rule:evenodd;stroke:rgb(0, 0, 0);stroke-width:3.0;" d="M 155.72, 168.43 L 137.647, 174.338 L 130.694, 172.939 L 148.364, 160.806 z "/>
<path style="fill:rgb(255, 33, 57);fill-opacity:1.0;fill-rule:evenodd;stroke:rgb(0, 0, 0);stroke-width:3.0;" d="M 148.364, 160.806 L 130.694, 172.939 L 114.924, 169.766 L 114.724, 169.644 L 113.941, 165.323 L 131.946, 143.793 z "/>
<path style="fill:rgb(29, 11, 255);fill-opacity:1.0;fill-rule:evenodd;stroke:rgb(0, 0, 0);stroke-width:3.0;" d="M 567.342, 174.641 L 567.436, 176.221 L 544.633, 177.401 L 537.808, 172.746 L 555.446, 156.944 z "/>
<path style="fill:rgb(29, 11, 255);fill-opacity:1.0;fill-rule:evenodd;stroke:rgb(0, 0, 0);stroke-width:3.0;" d="M 555.446, 156.944 L 537.808, 172.746 L 535.275, 171.019 L 547.857, 145.655 z "/>
<path style="fill:rgb(29, 11, 255);fill-opacity:1.0;fill-rule:evenodd;stroke:rgb(0, 0, 0);stroke-width:3.0;" d="M 369.505, 218.072 L 340.966, 220.372 L 344.705, 209.722 L 344.732, 209.694 z "/>
<path style="fill:rgb(6, 45, 255);fill-opacity:1.0;fill-rule:evenodd;stroke:rgb(0, 0, 0);stroke-width:3.0;" d="M 24.894, 98.6421 L 20.8497, 92.09 L 21.308, 81.4553 L 30.9663, 79.6288 z "/>
<path style="fill:rgb(255, 58, 26);fill-opacity:1.0;fill-rule:evenodd;stroke:rgb(0, 0, 0);stroke-width:3.0;" d="M 91.9085, 310.278 L 62.8961, 315.091 L 62.123, 315.14 L 69.0337, 306.274 z "/>
<path style="fill:rgb(255, 58, 26);fill-opacity:1.0;fill-rule:evenodd;stroke:rgb(0, 0, 0);stroke-width:3.0;" d="M 156.024, 556.877 L 134.905, 586.461 L 8.82131, 567.919 L 43.3041, 531.145 L 119.042, 524.602 z "/>
<path style="fill:rgb(255, 25, 62);fill-opacity:1.0;fill-rule:evenodd;stroke:rgb(0, 0, 0);stroke-width:3.0;" d="M 470.196, 75.8955 L 437.413, 37.6824 L 442.662, 28.9778 L 530.416, 11.6746 z "/>
<path style="fill:rgb(88, 163, 150);fill-opacity:1.0;fill-rule:evenodd;stroke:rgb(0, 0, 0);stroke-width:3.0;" d="M 194.091, 248.987 L 199.118, 272.3 L 81.7873, 266.254 L 82.4944, 265.347 L 119.588, 247.556 z "/>
<path style="fill:rgb(243, 255, 40);fill-opacity:1.0;fill-rule:evenodd;stroke:rgb(0, 0, 0);stroke-width:3.0;" d="M 194.091, 248.987 L 119.588, 247.556 L 186.828, 215.305 z "/>
<path style="fill:rgb(246, 130, 12);fill-opacity:1.0;fill-rule:evenodd;stroke:rgb(0, 0, 0);stroke-width:3.0;" d="M 738, 53.1392 L 574.822, 185.768 L 488.117, 56.7834 L 496.932, 47.3836 L 578.414, 44.1237 z "/>
<path style="fill:rgb(146, 231, 255);fill-opacity:1.0;fill-rule:evenodd;stroke:rgb(0, 0, 0);stroke-width:3.0;" d="M 283.554, 36.3901 L 280.792, 40.5933 L 278.182, 41.2652 L 271.266, 38.6153 L 279.51, 25.2776 L 284.864, 23.9405 z "/>
<path style="fill:rgb(85, 255, 255);fill-opacity:1.0;fill-rule:evenodd;stroke:rgb(0, 0, 0);stroke-width:3.0;" d="M 87.1598, 484.376 L 57.3398, 516.177 L 51.2084, 506.008 L 49.5862, 493.306 L 73.8797, 476.792 z "/>
<path style="fill:rgb(42, 38, 255);fill-opacity:1.0;fill-rule:evenodd;stroke:rgb(0, 0, 0);stroke-width:3.0;" d="M 577.006, 193.936 L 576.869, 214.399 L 572.967, 218.992 L 570.029, 219.72 L 568.154, 188.269 z "/>
<path style="fill:rgb(234, 255, 7);fill-opacity:1.0;fill-rule:evenodd;stroke:rgb(0, 0, 0);stroke-width:3.0;" d="M 227.787, 47.663 L 221.713, 60.6534 L 217.004, 58.4482 L 211.649, 50.0955 L 224.073, 37.7087 z "/>
<path style="fill:rgb(144, 172, 192);fill-opacity:1.0;fill-rule:evenodd;stroke:rgb(0, 0, 0);stroke-width:3.0;" d="M 81.4089, 24.8854 L 53.9146, 40.9843 L 70.2505, 21.0282 L 71.1469, 20.4408 z "/>
<path style="fill:rgb(255, 21, 179);fill-opacity:1.0;fill-rule:evenodd;stroke:rgb(0, 0, 0);stroke-width:3.0;" d="M 47.753, 311.609 L 24.0377, 314.304 L 23.2292, 313.534 L 53.7497, 299.407 z "/>
<path style="fill:rgb(52, 3, 255);fill-opacity:1.0;fill-rule:evenodd;stroke:rgb(0, 0, 0);stroke-width:3.0;" d="M 297.496, 46.8182 L 287.684, 56.5242 L 283.321, 56.7301 L 280.98, 53.2979 L 293.929, 41.3056 z "/>
<path style="fill:rgb(215, 0, 47);fill-opacity:1.0;fill-rule:evenodd;stroke:rgb(0, 0, 0);stroke-width:3.0;" d="M 225.444, 576.503 L 190.383, 590.475 L 189.815, 570.961 L 196.396, 548.727 z "/>
<path style="fill:rgb(10, 102, 255);fill-opacity:1.0;fill-rule:evenodd;stroke:rgb(0, 0, 0);stroke-width:3.0;" d="M 319.847, 511.481 L 298.003, 558.379 L 279.331, 511.931 L 279.39, 510.749 L 321.242, 507.133 z "/>
<path style="fill:rgb(246, 19, 74);fill-opacity:1.0;fill-rule:evenodd;stroke:rgb(0, 0, 0);stroke-width:3.0;" d="M 110.959, 182.452 L 114.553, 198.824 L 103.892, 208.402 L 91.3576, 200.313 L 89.9869, 178.398 z "/>
</svg>