<?xml version="1.0" encoding="iso-8859-1" standalone="no"?>
<!DOCTYPE svg PUBLIC "-//W3C//DTD SVG 1.0//EN" "http://www.w3.org/TR/2001/REC-SVG-20010904/DTD/svg10.dtd">
<svg xmlns="http://www.w3.org/2000/svg" width="800" height="600">
<path style="fill:rgb(0, 0, 0);fill-opacity:0.0;fill-rule:evenodd;stroke:rgb(0, 0, 0);stroke-width:0.0;" d="M 0, 600 L 800, 600 L 800, 0 L 0, 0 z "/>
<path style="fill:rgb(34, 220, 226);fill-opacity:1.0;fill-rule:evenodd;stroke:rgb(0, 0, 0);stroke-width:3.0;" d="M 379.871, 335.492 L 343.651, 279.102 L 375.676, 188.213 L 415.245, 178.407 z "/>
<path style="fill:rgb(217, 7, 194);fill-opacity:1.0;fill-rule:evenodd;stroke:rgb(0, 0, 0);stroke-width:3.0;" d="M 330.681, 31.2209 L 305.755, 35.5017 L 354.92, 6.28836 z "/>
<path style="fill:rgb(217, 7, 194);fill-opacity:1.0;fill-rule:evenodd;stroke:rgb(0, 0, 0);stroke-width:3.0;" d="M 644.298, 352.511 L 650.28, 404.216 L 647.498, 406.722 L 606.068, 334.066 L 614.258, 329.948 z "/>
<path style="fill:rgb(217, 7, 194);fill-opacity:1.0;fill-rule:evenodd;stroke:rgb(0, 0, 0);stroke-width:3.0;" d="M 216.738, 401.054 L 219.557, 427.212 L 201.035, 401.626 L 215.494, 399.587 z "/>
<path style="fill:rgb(217, 7, 194);fill-opacity:1.0;fill-rule:evenodd;stroke:rgb(0, 0, 0);stroke-width:3.0;" d="M 67.0505, 239.425 L 60.7082, 243.957 L 42.3458, 220.736 L 42.1368, 220.37 z "/>
<path style="fill:rgb(217, 7, 194);fill-opacity:1.0;fill-rule:evenodd;stroke:rgb(0, 0, 0);stroke-width:3.0;" d="M 410.623, 121.364 L 415.797, 132.683 L 412.754, 137.787 L 352.312, 95.2083 L 313.425, 63.2625 L 324.403, 58.448 z "/>
<path style="fill:rgb(217, 7, 194);fill-opacity:1.0;fill-rule:evenodd;stroke:rgb(0, 0, 0);stroke-width:3.0;" d="M 520.203, 387.043 L 484.692, 393.18 L 480.071, 354.64 z "/>
<path style="fill:rgb(217, 7, 194);fill-opacity:1.0;fill-rule:evenodd;stroke:rgb(0, 0, 0);stroke-width:3.0;" d="M 326.831, 252.915 L 330.174, 258.12 L 289.552, 238.893 L 295.854, 217.746 z "/>
<path style="fill:rgb(255, 30, 11);fill-opacity:1.0;fill-rule:evenodd;stroke:rgb(0, 0, 0);stroke-width:3.0;" d="M 61.8485, 245.399 L 60.2279, 246.569 L 47.1233, 252.455 L 42.8118, 238.087 L 52.978, 234.181 z "/>
<path style="fill:rgb(255, 30, 11);fill-opacity:1.0;fill-rule:evenodd;stroke:rgb(0, 0, 0);stroke-width:3.0;" d="M 106.564, 80.5267 L 47.5954, 118.529 L 41.651, 119.345 L 41.6848, 119.162 L 72.619, 56.9123 z "/>
<path style="fill:rgb(255, 30, 11);fill-opacity:1.0;fill-rule:evenodd;stroke:rgb(0, 0, 0);stroke-width:3.0;" d="M 170.212, 362.512 L 165.246, 369.299 L 159.861, 369.346 L 152.245, 359.714 L 157.927, 356.762 z "/>
<path style="fill:rgb(240, 6, 76);fill-opacity:1.0;fill-rule:evenodd;stroke:rgb(0, 0, 0);stroke-width:3.0;" d="M 413.665, 221.671 L 400.486, 243.949 L 403.968, 228.487 L 412.826, 207.081 z "/>
<path style="fill:rgb(175, 255, 33);fill-opacity:1.0;fill-rule:evenodd;stroke:rgb(0, 0, 0);stroke-width:3.0;" d="M 438.095, 401.233 L 423.697, 403.722 L 418.652, 395.868 L 461.275, 370.162 z "/>
<path style="fill:rgb(49, 138, 255);fill-opacity:1.0;fill-rule:evenodd;stroke:rgb(0, 0, 0);stroke-width:3.0;" d="M 757.955, 259.353 L 724.635, 159.894 L 770.096, 89.6293 z "/>
<path style="fill:rgb(49, 138, 255);fill-opacity:1.0;fill-rule:evenodd;stroke:rgb(0, 0, 0);stroke-width:3.0;" d="M 665.523, 333.748 L 671.832, 368.436 L 627.764, 299.695 z "/>
<path style="fill:rgb(49, 138, 255);fill-opacity:1.0;fill-rule:evenodd;stroke:rgb(0, 0, 0);stroke-width:3.0;" d="M 560.126, 586.027 L 532.396, 564.391 L 608.073, 455.351 L 756.995, 448.056 z "/>
<path style="fill:rgb(49, 138, 255);fill-opacity:1.0;fill-rule:evenodd;stroke:rgb(0, 0, 0);stroke-width:3.0;" d="M 782.267, 366.523 L 780.827, 404.423 L 779.244, 404.068 L 778.02, 401.616 L 779.25, 363.388 z "/>
<path style="fill:rgb(49, 138, 255);fill-opacity:1.0;fill-rule:evenodd;stroke:rgb(0, 0, 0);stroke-width:3.0;" d="M 180.383, 128.179 L 189.494, 138.327 L 189.074, 145.083 L 175.784, 139.622 L 166.299, 126.608 L 167.032, 124.465 z "/>
<path style="fill:rgb(49, 138, 255);fill-opacity:1.0;fill-rule:evenodd;stroke:rgb(0, 0, 0);stroke-width:3.0;" d="M 478.797, 451.22 L 480.823, 458.119 L 473.21, 461.188 L 453.838, 450.648 L 452.183, 448.072 z "/>
<path style="fill:rgb(49, 138, 255);fill-opacity:1.0;fill-rule:evenodd;stroke:rgb(0, 0, 0);stroke-width:3.0;" d="M 51.092, 205.718 L 102.981, 266.908 L 42.1368, 220.37 L 35.7805, 209.242 L 38.6866, 195.212 z "/>
<path style="fill:rgb(49, 138, 255);fill-opacity:1.0;fill-rule:evenodd;stroke:rgb(0, 0, 0);stroke-width:3.0;" d="M 85.6641, 253.663 L 100.947, 277.554 L 94.4854, 280.642 L 76.9026, 246.961 z "/>
<path style="fill:rgb(49, 138, 255);fill-opacity:1.0;fill-rule:evenodd;stroke:rgb(0, 0, 0);stroke-width:3.0;" d="M 425.833, 221.453 L 428.035, 289.933 L 390.549, 288.076 L 400.486, 243.949 L 419.601, 211.637 z "/>
<path style="fill:rgb(49, 138, 255);fill-opacity:1.0;fill-rule:evenodd;stroke:rgb(0, 0, 0);stroke-width:3.0;" d="M 514.094, 550.112 L 515.137, 556.072 L 504.3, 570.554 L 493.78, 555.673 L 506.282, 544.017 z "/>
<path style="fill:rgb(49, 138, 255);fill-opacity:1.0;fill-rule:evenodd;stroke:rgb(0, 0, 0);stroke-width:3.0;" d="M 272.051, 203.691 L 247.937, 207.915 L 245.01, 203.775 L 270.362, 198.1 z "/>
<path style="fill:rgb(49, 138, 255);fill-opacity:1.0;fill-rule:evenodd;stroke:rgb(0, 0, 0);stroke-width:3.0;" d="M 157.457, 60.6162 L 150.425, 69.98 L 143.988, 60.8744 L 149.429, 51.5019 z "/>
<path style="fill:rgb(49, 138, 255);fill-opacity:1.0;fill-rule:evenodd;stroke:rgb(0, 0, 0);stroke-width:3.0;" d="M 250.882, 134.675 L 229.138, 125.037 L 233.238, 107.205 z "/>
<path style="fill:rgb(255, 79, 12);fill-opacity:1.0;fill-rule:evenodd;stroke:rgb(0, 0, 0);stroke-width:3.0;" d="M 601.3, 164.905 L 596.383, 169.503 L 592.581, 162.226 L 591.562, 149.252 L 594.039, 147.494 z "/>
<path style="fill:rgb(255, 79, 12);fill-opacity:1.0;fill-rule:evenodd;stroke:rgb(0, 0, 0);stroke-width:3.0;" d="M 585.498, 180.108 L 579.083, 223.762 L 577.405, 221.144 L 579.794, 185.013 L 585.514, 179.664 z "/>
<path style="fill:rgb(255, 79, 12);fill-opacity:1.0;fill-rule:evenodd;stroke:rgb(0, 0, 0);stroke-width:3.0;" d="M 252.875, 25.1593 L 296.058, 55.5795 L 272.501, 67.6365 L 205.469, 23.5915 z "/>
<path style="fill:rgb(255, 79, 12);fill-opacity:1.0;fill-rule:evenodd;stroke:rgb(0, 0, 0);stroke-width:3.0;" d="M 521.402, 591.899 L 518.351, 590.43 L 504.3, 570.554 L 515.137, 556.072 z "/>
<path style="fill:rgb(255, 79, 12);fill-opacity:1.0;fill-rule:evenodd;stroke:rgb(0, 0, 0);stroke-width:3.0;" d="M 768.788, 291.69 L 757.955, 259.353 L 770.096, 89.6293 L 784.462, 67.425 z "/>
<path style="fill:rgb(163, 255, 255);fill-opacity:1.0;fill-rule:evenodd;stroke:rgb(0, 0, 0);stroke-width:3.0;" d="M 183.058, 142.611 L 158.596, 151.196 L 87.8071, 113.007 L 105.197, 110.619 z "/>
<path style="fill:rgb(199, 18, 175);fill-opacity:1.0;fill-rule:evenodd;stroke:rgb(0, 0, 0);stroke-width:3.0;" d="M 184.388, 91.1928 L 206.951, 116.81 L 173.877, 94.0612 L 171.061, 83.8143 z "/>
<path style="fill:rgb(255, 46, 217);fill-opacity:1.0;fill-rule:evenodd;stroke:rgb(0, 0, 0);stroke-width:3.0;" d="M 196.462, 109.596 L 201.889, 123.531 L 193.079, 130.316 L 184.769, 118.561 L 179.201, 97.7229 z "/>
<path style="fill:rgb(223, 1, 29);fill-opacity:1.0;fill-rule:evenodd;stroke:rgb(0, 0, 0);stroke-width:3.0;" d="M 495.445, 246.22 L 558.963, 354.99 L 536.627, 365.643 L 508.095, 334.629 L 456.341, 221.392 z "/>
<path style="fill:rgb(255, 123, 144);fill-opacity:1.0;fill-rule:evenodd;stroke:rgb(0, 0, 0);stroke-width:3.0;" d="M 758.669, 389.903 L 747.466, 402.53 L 743.005, 397.24 L 746.432, 390.639 L 756.826, 389.501 z "/>
<path style="fill:rgb(255, 123, 144);fill-opacity:1.0;fill-rule:evenodd;stroke:rgb(0, 0, 0);stroke-width:3.0;" d="M 52.978, 234.181 L 25.4196, 244.77 L 29.794, 235.001 L 35.1808, 233.682 L 51.8161, 232.712 z "/>
<path style="fill:rgb(255, 123, 144);fill-opacity:1.0;fill-rule:evenodd;stroke:rgb(0, 0, 0);stroke-width:3.0;" d="M 764.876, 423.178 L 757.895, 427.43 L 744.137, 398.582 z "/>
<path style="fill:rgb(204, 255, 36);fill-opacity:1.0;fill-rule:evenodd;stroke:rgb(0, 0, 0);stroke-width:3.0;" d="M 647.498, 406.722 L 607.459, 442.798 L 600.795, 446.369 L 587.837, 343.232 L 606.068, 334.066 z "/>
<path style="fill:rgb(204, 255, 36);fill-opacity:1.0;fill-rule:evenodd;stroke:rgb(0, 0, 0);stroke-width:3.0;" d="M 668.784, 428.748 L 670.37, 433.747 L 654.402, 438.817 L 634.633, 433.364 L 649.385, 425.404 z "/>
<path style="fill:rgb(204, 255, 36);fill-opacity:1.0;fill-rule:evenodd;stroke:rgb(0, 0, 0);stroke-width:3.0;" d="M 178.082, 109.102 L 125.483, 118.954 L 113.335, 113.963 L 139.719, 105.878 L 172.61, 101.362 z "/>
<path style="fill:rgb(204, 255, 36);fill-opacity:1.0;fill-rule:evenodd;stroke:rgb(0, 0, 0);stroke-width:3.0;" d="M 646.089, 422.096 L 615.537, 438.469 L 612.134, 438.586 L 644.462, 409.458 z "/>
<path style="fill:rgb(255, 5, 154);fill-opacity:1.0;fill-rule:evenodd;stroke:rgb(0, 0, 0);stroke-width:3.0;" d="M 776.612, 392.986 L 778.239, 394.81 L 776.869, 437.402 L 775.344, 435.594 L 772.281, 389.671 z "/>
<path style="fill:rgb(255, 5, 154);fill-opacity:1.0;fill-rule:evenodd;stroke:rgb(0, 0, 0);stroke-width:3.0;" d="M 154.615, 121.01 L 148.465, 128.397 L 125.483, 118.954 L 138.478, 116.52 z "/>
<path style="fill:rgb(237, 168, 34);fill-opacity:1.0;fill-rule:evenodd;stroke:rgb(0, 0, 0);stroke-width:3.0;" d="M 481.258, 308.74 L 460.21, 324.594 L 429.558, 337.318 L 425.833, 221.453 z "/>
<path style="fill:rgb(255, 20, 69);fill-opacity:1.0;fill-rule:evenodd;stroke:rgb(0, 0, 0);stroke-width:3.0;" d="M 210.511, 116.781 L 258.445, 146.449 L 326.831, 252.915 L 204.629, 114.174 z "/>
<path style="fill:rgb(255, 20, 69);fill-opacity:1.0;fill-rule:evenodd;stroke:rgb(0, 0, 0);stroke-width:3.0;" d="M 330.174, 258.12 L 347.56, 285.188 L 312.139, 298.733 L 277.439, 249.647 L 281.665, 235.159 z "/>
<path style="fill:rgb(255, 20, 69);fill-opacity:1.0;fill-rule:evenodd;stroke:rgb(0, 0, 0);stroke-width:3.0;" d="M 363.355, 309.779 L 353.854, 311.17 L 326.213, 293.351 L 347.56, 285.188 z "/>
<path style="fill:rgb(255, 20, 69);fill-opacity:1.0;fill-rule:evenodd;stroke:rgb(0, 0, 0);stroke-width:3.0;" d="M 573.076, 505.776 L 563.045, 484.169 L 575.962, 459.677 L 581.617, 456.647 L 608.073, 455.351 z "/>
<path style="fill:rgb(255, 20, 69);fill-opacity:1.0;fill-rule:evenodd;stroke:rgb(0, 0, 0);stroke-width:3.0;" d="M 761.901, 271.131 L 787.151, 346.502 L 697.15, 394.733 L 653.017, 288.911 L 653.69, 284.922 L 680.034, 251.498 z "/>
<path style="fill:rgb(255, 157, 31);fill-opacity:1.0;fill-rule:evenodd;stroke:rgb(0, 0, 0);stroke-width:3.0;" d="M 102.981, 266.908 L 104.148, 268.284 L 99.8093, 275.776 L 85.6641, 253.663 z "/>
<path style="fill:rgb(255, 157, 31);fill-opacity:1.0;fill-rule:evenodd;stroke:rgb(0, 0, 0);stroke-width:3.0;" d="M 19.7902, 264.733 L 19.5075, 264.859 L 5.18312, 252.545 L 23.4632, 245.521 z "/>
<path style="fill:rgb(255, 157, 31);fill-opacity:1.0;fill-rule:evenodd;stroke:rgb(0, 0, 0);stroke-width:3.0;" d="M 498.863, 314.429 L 467.104, 361.004 L 453.72, 357.252 L 448.088, 337.177 L 453.988, 329.28 L 492.42, 300.332 z "/>
<path style="fill:rgb(255, 157, 31);fill-opacity:1.0;fill-rule:evenodd;stroke:rgb(0, 0, 0);stroke-width:3.0;" d="M 658.633, 347.847 L 677.711, 377.606 L 637.295, 347.251 L 638.134, 346.856 z "/>
<path style="fill:rgb(255, 157, 31);fill-opacity:1.0;fill-rule:evenodd;stroke:rgb(0, 0, 0);stroke-width:3.0;" d="M 573.076, 505.776 L 532.396, 564.391 L 470.572, 516.156 L 556.513, 470.1 z "/>
<path style="fill:rgb(255, 157, 31);fill-opacity:1.0;fill-rule:evenodd;stroke:rgb(0, 0, 0);stroke-width:3.0;" d="M 431.742, 73.9465 L 412.549, 80.3502 L 412.032, 66.7561 L 420.947, 49.9836 z "/>
<path style="fill:rgb(255, 157, 31);fill-opacity:1.0;fill-rule:evenodd;stroke:rgb(0, 0, 0);stroke-width:3.0;" d="M 421.298, 293.861 L 414.308, 301.301 L 387.92, 299.75 L 389.989, 290.561 z "/>
<path style="fill:rgb(255, 157, 31);fill-opacity:1.0;fill-rule:evenodd;stroke:rgb(0, 0, 0);stroke-width:3.0;" d="M 761.901, 271.131 L 680.034, 251.498 L 732.867, 184.465 z "/>
<path style="fill:rgb(255, 252, 22);fill-opacity:1.0;fill-rule:evenodd;stroke:rgb(0, 0, 0);stroke-width:3.0;" d="M 281.665, 235.159 L 279.042, 244.153 L 272.076, 242.061 L 259.921, 224.867 z "/>
<path style="fill:rgb(255, 252, 22);fill-opacity:1.0;fill-rule:evenodd;stroke:rgb(0, 0, 0);stroke-width:3.0;" d="M 206.951, 116.81 L 211.37, 121.827 L 205.452, 132.682 L 196.462, 109.596 z "/>
<path style="fill:rgb(255, 252, 22);fill-opacity:1.0;fill-rule:evenodd;stroke:rgb(0, 0, 0);stroke-width:3.0;" d="M 536.627, 365.643 L 530.99, 368.332 L 530.864, 368.347 L 510.175, 336.89 z "/>
<path style="fill:rgb(146, 114, 8);fill-opacity:1.0;fill-rule:evenodd;stroke:rgb(0, 0, 0);stroke-width:3.0;" d="M 763.343, 373.901 L 758.26, 389.814 L 731.889, 384.056 L 727.278, 378.587 L 764.351, 358.72 z "/>
<path style="fill:rgb(146, 114, 8);fill-opacity:1.0;fill-rule:evenodd;stroke:rgb(0, 0, 0);stroke-width:3.0;" d="M 322.726, 41.7103 L 350.229, 52.9679 L 340.352, 70.0863 L 298.701, 39.6929 L 301.219, 38.1969 z "/>
<path style="fill:rgb(146, 114, 8);fill-opacity:1.0;fill-rule:evenodd;stroke:rgb(0, 0, 0);stroke-width:3.0;" d="M 564.928, 201.681 L 521.214, 262.581 L 513.56, 257.721 L 538.647, 177.963 L 547.312, 174.203 z "/>
<path style="fill:rgb(146, 114, 8);fill-opacity:1.0;fill-rule:evenodd;stroke:rgb(0, 0, 0);stroke-width:3.0;" d="M 773.079, 447.268 L 730.486, 449.355 L 717.829, 426.018 z "/>
<path style="fill:rgb(100, 75, 255);fill-opacity:1.0;fill-rule:evenodd;stroke:rgb(0, 0, 0);stroke-width:3.0;" d="M 772.714, 396.158 L 773.441, 407.06 L 753.353, 409.512 L 751.674, 407.521 L 754.54, 394.557 L 762.151, 385.979 z "/>
<path style="fill:rgb(100, 75, 255);fill-opacity:1.0;fill-rule:evenodd;stroke:rgb(0, 0, 0);stroke-width:3.0;" d="M 732.867, 184.465 L 687.159, 242.458 L 667.349, 204.03 L 670.815, 183.507 L 720.565, 147.744 z "/>
<path style="fill:rgb(100, 75, 255);fill-opacity:1.0;fill-rule:evenodd;stroke:rgb(0, 0, 0);stroke-width:3.0;" d="M 471.016, 253.501 L 471.623, 293.565 L 451.592, 262.019 L 467.236, 245.23 z "/>
<path style="fill:rgb(255, 12, 243);fill-opacity:1.0;fill-rule:evenodd;stroke:rgb(0, 0, 0);stroke-width:3.0;" d="M 506.282, 544.017 L 497.519, 552.187 L 489.661, 540.911 L 487.975, 529.733 z "/>
<path style="fill:rgb(255, 12, 243);fill-opacity:1.0;fill-rule:evenodd;stroke:rgb(0, 0, 0);stroke-width:3.0;" d="M 728.982, 403.17 L 724.532, 418.164 L 708.976, 410.278 L 700.273, 393.059 L 705.245, 390.395 z "/>
<path style="fill:rgb(117, 255, 255);fill-opacity:1.0;fill-rule:evenodd;stroke:rgb(0, 0, 0);stroke-width:3.0;" d="M 368.987, 207.197 L 304.853, 205.764 L 375.676, 188.213 z "/>
<path style="fill:rgb(246, 50, 22);fill-opacity:1.0;fill-rule:evenodd;stroke:rgb(0, 0, 0);stroke-width:3.0;" d="M 744.137, 398.582 L 762.297, 436.662 L 746.107, 423.481 L 738.104, 391.427 z "/>
<path style="fill:rgb(25, 228, 237);fill-opacity:1.0;fill-rule:evenodd;stroke:rgb(0, 0, 0);stroke-width:3.0;" d="M 638.801, 316.912 L 620.521, 325.631 L 521.214, 262.581 L 564.928, 201.681 z "/>
<path style="fill:rgb(25, 228, 237);fill-opacity:1.0;fill-rule:evenodd;stroke:rgb(0, 0, 0);stroke-width:3.0;" d="M 428.035, 289.933 L 428.427, 302.131 L 414.308, 301.301 L 425.125, 289.788 z "/>
<path style="fill:rgb(25, 228, 237);fill-opacity:1.0;fill-rule:evenodd;stroke:rgb(0, 0, 0);stroke-width:3.0;" d="M 600.795, 446.369 L 578.087, 458.539 L 593.089, 420.444 L 597.209, 417.825 z "/>
<path style="fill:rgb(177, 5, 228);fill-opacity:1.0;fill-rule:evenodd;stroke:rgb(0, 0, 0);stroke-width:3.0;" d="M 339.473, 545.787 L 340.323, 546.79 L 326.122, 557.842 L 313.411, 556.148 L 316.23, 532.939 z "/>
<path style="fill:rgb(177, 5, 228);fill-opacity:1.0;fill-rule:evenodd;stroke:rgb(0, 0, 0);stroke-width:3.0;" d="M 566.263, 186.591 L 566.197, 189.694 L 555.506, 186.985 L 542.798, 167.162 z "/>
<path style="fill:rgb(177, 5, 228);fill-opacity:1.0;fill-rule:evenodd;stroke:rgb(0, 0, 0);stroke-width:3.0;" d="M 784.707, 446.699 L 778.493, 447.003 L 772.548, 443.912 L 768.581, 427.573 z "/>
<path style="fill:rgb(249, 102, 12);fill-opacity:1.0;fill-rule:evenodd;stroke:rgb(0, 0, 0);stroke-width:3.0;" d="M 566.685, 166.7 L 566.263, 186.591 L 542.798, 167.162 L 529.734, 146.783 L 535.837, 145.941 z "/>
<path style="fill:rgb(8, 234, 202);fill-opacity:1.0;fill-rule:evenodd;stroke:rgb(0, 0, 0);stroke-width:3.0;" d="M 775.344, 435.594 L 753.353, 409.512 L 773.441, 407.06 z "/>
<path style="fill:rgb(8, 234, 202);fill-opacity:1.0;fill-rule:evenodd;stroke:rgb(0, 0, 0);stroke-width:3.0;" d="M 579.493, 189.561 L 566.166, 203.613 L 565.91, 203.213 L 566.215, 188.864 L 580.227, 178.462 z "/>
<path style="fill:rgb(8, 234, 202);fill-opacity:1.0;fill-rule:evenodd;stroke:rgb(0, 0, 0);stroke-width:3.0;" d="M 210.497, 71.8004 L 197.873, 80.8065 L 190.656, 40.9107 z "/>
<path style="fill:rgb(8, 234, 202);fill-opacity:1.0;fill-rule:evenodd;stroke:rgb(0, 0, 0);stroke-width:3.0;" d="M 484.692, 393.18 L 455.854, 398.164 L 472.242, 385.71 L 483.727, 385.134 z "/>
<path style="fill:rgb(8, 234, 202);fill-opacity:1.0;fill-rule:evenodd;stroke:rgb(0, 0, 0);stroke-width:3.0;" d="M 573.727, 460.875 L 567.356, 464.289 L 557.623, 442.995 L 589.358, 422.817 z "/>
<path style="fill:rgb(76, 246, 226);fill-opacity:1.0;fill-rule:evenodd;stroke:rgb(0, 0, 0);stroke-width:3.0;" d="M 310.527, 511.654 L 293.572, 529.455 L 219.557, 427.212 L 216.738, 401.054 z "/>
<path style="fill:rgb(212, 47, 11);fill-opacity:1.0;fill-rule:evenodd;stroke:rgb(0, 0, 0);stroke-width:3.0;" d="M 295.854, 217.746 L 292.162, 230.135 L 285.475, 236.778 L 252.071, 213.763 L 247.937, 207.915 L 281.947, 201.957 z "/>
<path style="fill:rgb(255, 252, 20);fill-opacity:1.0;fill-rule:evenodd;stroke:rgb(0, 0, 0);stroke-width:3.0;" d="M 606.431, 177.207 L 585.36, 183.988 L 585.514, 179.664 L 601.3, 164.905 z "/>
<path style="fill:rgb(255, 252, 20);fill-opacity:1.0;fill-rule:evenodd;stroke:rgb(0, 0, 0);stroke-width:3.0;" d="M 143.787, 334.694 L 146.86, 352.905 L 130.933, 332.763 L 133.504, 328.485 z "/>
<path style="fill:rgb(243, 124, 22);fill-opacity:1.0;fill-rule:evenodd;stroke:rgb(0, 0, 0);stroke-width:3.0;" d="M 277.202, 196.569 L 253.538, 201.866 L 257.473, 188.274 L 269.804, 188.17 z "/>
<path style="fill:rgb(243, 124, 22);fill-opacity:1.0;fill-rule:evenodd;stroke:rgb(0, 0, 0);stroke-width:3.0;" d="M 403.709, 106.236 L 405.199, 109.495 L 402.224, 115.235 L 372.14, 93.2825 L 379.74, 88.0517 z "/>
<path style="fill:rgb(243, 124, 22);fill-opacity:1.0;fill-rule:evenodd;stroke:rgb(0, 0, 0);stroke-width:3.0;" d="M 449.385, 356.036 L 449.038, 377.543 L 418.652, 395.868 L 411.989, 385.495 L 436.663, 352.469 z "/>
<path style="fill:rgb(243, 124, 22);fill-opacity:1.0;fill-rule:evenodd;stroke:rgb(0, 0, 0);stroke-width:3.0;" d="M 617.475, 323.698 L 601.133, 334.878 L 589.801, 340.283 L 600.331, 325.098 L 611.286, 319.768 z "/>
<path style="fill:rgb(243, 124, 22);fill-opacity:1.0;fill-rule:evenodd;stroke:rgb(0, 0, 0);stroke-width:3.0;" d="M 223.22, 112.856 L 213.772, 118.226 L 208.039, 115.685 L 208.545, 99.213 z "/>
<path style="fill:rgb(243, 124, 22);fill-opacity:1.0;fill-rule:evenodd;stroke:rgb(0, 0, 0);stroke-width:3.0;" d="M 531.044, 385.169 L 520.203, 387.043 L 480.071, 354.64 L 479.831, 352.63 L 485.566, 350.222 z "/>
<path style="fill:rgb(243, 124, 22);fill-opacity:1.0;fill-rule:evenodd;stroke:rgb(0, 0, 0);stroke-width:3.0;" d="M 548.544, 459.636 L 534.419, 476.416 L 533.2, 476.082 L 528.539, 458.336 L 537.299, 456.3 z "/>
<path style="fill:rgb(66, 65, 255);fill-opacity:1.0;fill-rule:evenodd;stroke:rgb(0, 0, 0);stroke-width:3.0;" d="M 719.37, 428.859 L 730.486, 449.355 L 704.394, 450.633 L 674.894, 448.011 L 666.008, 419.998 z "/>
<path style="fill:rgb(66, 65, 255);fill-opacity:1.0;fill-rule:evenodd;stroke:rgb(0, 0, 0);stroke-width:3.0;" d="M 639.276, 255.963 L 625.454, 270.432 L 603.005, 250.534 L 627.061, 226.675 z "/>
<path style="fill:rgb(249, 0, 209);fill-opacity:1.0;fill-rule:evenodd;stroke:rgb(0, 0, 0);stroke-width:3.0;" d="M 200.058, 92.883 L 185.904, 52.0726 L 192.234, 49.6336 z "/>
<path style="fill:rgb(255, 17, 189);fill-opacity:1.0;fill-rule:evenodd;stroke:rgb(0, 0, 0);stroke-width:3.0;" d="M 626.422, 446.026 L 626.239, 446.211 L 604.435, 455.097 L 600.91, 452.956 L 600.898, 450.541 L 616.478, 445.429 z "/>
<path style="fill:rgb(61, 28, 237);fill-opacity:1.0;fill-rule:evenodd;stroke:rgb(0, 0, 0);stroke-width:3.0;" d="M 733.398, 385.846 L 733.934, 386.482 L 731.568, 394.454 L 709.041, 388.469 L 708.952, 388.408 L 722.413, 381.195 z "/>
<path style="fill:rgb(61, 28, 237);fill-opacity:1.0;fill-rule:evenodd;stroke:rgb(0, 0, 0);stroke-width:3.0;" d="M 717.829, 426.018 L 719.37, 428.859 L 666.008, 419.998 L 665.533, 418.499 L 687.315, 414.282 z "/>
<path style="fill:rgb(61, 28, 237);fill-opacity:1.0;fill-rule:evenodd;stroke:rgb(0, 0, 0);stroke-width:3.0;" d="M 753.106, 433.804 L 750.429, 438.556 L 677.204, 410.393 L 692.355, 402.218 z "/>
<path style="fill:rgb(124, 30, 154);fill-opacity:1.0;fill-rule:evenodd;stroke:rgb(0, 0, 0);stroke-width:3.0;" d="M 345.504, 218.416 L 310.108, 226.88 L 308.915, 225.023 L 308.523, 221.888 L 330.032, 216.863 z "/>
<path style="fill:rgb(124, 30, 154);fill-opacity:1.0;fill-rule:evenodd;stroke:rgb(0, 0, 0);stroke-width:3.0;" d="M 374.359, 42.0188 L 378.373, 50.8007 L 343.241, 45.0615 L 342.901, 44.4438 L 345.425, 28.8043 z "/>
<path style="fill:rgb(255, 179, 10);fill-opacity:1.0;fill-rule:evenodd;stroke:rgb(0, 0, 0);stroke-width:3.0;" d="M 174.023, 15.0161 L 188.946, 38.2489 L 188.216, 45.8964 L 179.166, 32.6431 L 172.982, 14.8134 z "/>
<path style="fill:rgb(255, 179, 10);fill-opacity:1.0;fill-rule:evenodd;stroke:rgb(0, 0, 0);stroke-width:3.0;" d="M 686.457, 369.093 L 688.411, 373.777 L 681.589, 383.655 L 676.06, 375.03 L 675.463, 366.623 z "/>
<path style="fill:rgb(25, 255, 207);fill-opacity:1.0;fill-rule:evenodd;stroke:rgb(0, 0, 0);stroke-width:3.0;" d="M 677.711, 377.606 L 678.481, 378.807 L 650.28, 404.216 L 644.298, 352.511 z "/>
<path style="fill:rgb(25, 255, 207);fill-opacity:1.0;fill-rule:evenodd;stroke:rgb(0, 0, 0);stroke-width:3.0;" d="M 572, 325.834 L 558.115, 353.537 L 521.139, 290.218 L 524.39, 285.772 z "/>
<path style="fill:rgb(25, 255, 207);fill-opacity:1.0;fill-rule:evenodd;stroke:rgb(0, 0, 0);stroke-width:3.0;" d="M 498.717, 409.075 L 490.83, 412.148 L 491.151, 403.215 L 502.611, 390.083 L 509.239, 388.938 z "/>
<path style="fill:rgb(25, 255, 207);fill-opacity:1.0;fill-rule:evenodd;stroke:rgb(0, 0, 0);stroke-width:3.0;" d="M 467.236, 245.23 L 451.592, 262.019 L 446.188, 253.509 L 447.048, 248.55 L 463.388, 236.81 z "/>
<path style="fill:rgb(25, 255, 207);fill-opacity:1.0;fill-rule:evenodd;stroke:rgb(0, 0, 0);stroke-width:3.0;" d="M 467.488, 517.808 L 467.143, 517.993 L 427.544, 461.978 L 424.074, 438.239 z "/>
<path style="fill:rgb(25, 255, 207);fill-opacity:1.0;fill-rule:evenodd;stroke:rgb(0, 0, 0);stroke-width:3.0;" d="M 472.416, 479.571 L 450.231, 486.18 L 433.327, 455.198 L 455.217, 452.794 z "/>
<path style="fill:rgb(25, 255, 207);fill-opacity:1.0;fill-rule:evenodd;stroke:rgb(0, 0, 0);stroke-width:3.0;" d="M 483.727, 385.134 L 456.917, 386.479 L 454.67, 379.016 L 456.303, 376.827 L 482.499, 374.891 z "/>
<path style="fill:rgb(255, 41, 21);fill-opacity:1.0;fill-rule:evenodd;stroke:rgb(0, 0, 0);stroke-width:3.0;" d="M 339.378, 272.45 L 310.108, 226.88 L 329.892, 222.149 z "/>
<path style="fill:rgb(255, 41, 21);fill-opacity:1.0;fill-rule:evenodd;stroke:rgb(0, 0, 0);stroke-width:3.0;" d="M 570.693, 594.271 L 560.126, 586.027 L 756.995, 448.056 L 779.886, 446.935 z "/>
<path style="fill:rgb(237, 24, 189);fill-opacity:1.0;fill-rule:evenodd;stroke:rgb(0, 0, 0);stroke-width:3.0;" d="M 673.663, 444.13 L 674.894, 448.011 L 635.7, 444.527 L 633.522, 437.111 L 637.746, 434.223 z "/>
<path style="fill:rgb(237, 24, 189);fill-opacity:1.0;fill-rule:evenodd;stroke:rgb(0, 0, 0);stroke-width:3.0;" d="M 483.341, 74.4182 L 448.924, 81.86 L 447.976, 81.4892 L 461.719, 63.9446 L 474, 59.8473 z "/>
<path style="fill:rgb(237, 24, 189);fill-opacity:1.0;fill-rule:evenodd;stroke:rgb(0, 0, 0);stroke-width:3.0;" d="M 424.074, 438.239 L 427.544, 461.978 L 324.018, 315.536 L 354.676, 311.049 z "/>
<path style="fill:rgb(237, 24, 189);fill-opacity:1.0;fill-rule:evenodd;stroke:rgb(0, 0, 0);stroke-width:3.0;" d="M 153.471, 327.873 L 154.881, 355.387 L 150.365, 357.337 L 146.86, 352.905 L 143.3, 331.807 L 145.438, 325.441 z "/>
<path style="fill:rgb(237, 24, 189);fill-opacity:1.0;fill-rule:evenodd;stroke:rgb(0, 0, 0);stroke-width:3.0;" d="M 324.113, 206.195 L 318.915, 215.748 L 301.858, 214.037 L 297.685, 207.54 L 304.853, 205.764 z "/>
<path style="fill:rgb(237, 24, 189);fill-opacity:1.0;fill-rule:evenodd;stroke:rgb(0, 0, 0);stroke-width:3.0;" d="M 531.183, 385.145 L 531.044, 385.169 L 485.566, 350.222 L 510.447, 339.774 z "/>
<path style="fill:rgb(252, 45, 12);fill-opacity:1.0;fill-rule:evenodd;stroke:rgb(0, 0, 0);stroke-width:3.0;" d="M 112.942, 278.654 L 133.789, 312.038 L 134.581, 319.154 L 113.187, 307.788 L 111.368, 303.396 L 108.92, 273.911 z "/>
<path style="fill:rgb(255, 123, 19);fill-opacity:1.0;fill-rule:evenodd;stroke:rgb(0, 0, 0);stroke-width:3.0;" d="M 38.6866, 195.212 L 37.2084, 202.349 L 22.9592, 186.797 L 17.5318, 177.296 z "/>
<path style="fill:rgb(255, 123, 19);fill-opacity:1.0;fill-rule:evenodd;stroke:rgb(0, 0, 0);stroke-width:3.0;" d="M 458.968, 227.141 L 422.46, 197.574 L 427.244, 157.73 z "/>
<path style="fill:rgb(255, 123, 19);fill-opacity:1.0;fill-rule:evenodd;stroke:rgb(0, 0, 0);stroke-width:3.0;" d="M 234.775, 153.604 L 236.275, 171.346 L 233.332, 170.751 L 227.251, 156.596 L 226.846, 153.281 z "/>
<path style="fill:rgb(142, 6, 202);fill-opacity:1.0;fill-rule:evenodd;stroke:rgb(0, 0, 0);stroke-width:3.0;" d="M 778.831, 376.397 L 773.637, 389.65 L 766.248, 381.362 L 779.139, 366.834 z "/>
<path style="fill:rgb(255, 72, 10);fill-opacity:1.0;fill-rule:evenodd;stroke:rgb(0, 0, 0);stroke-width:3.0;" d="M 488.483, 291.719 L 471.46, 282.828 L 471.353, 275.728 L 480.505, 274.263 z "/>
<path style="fill:rgb(255, 72, 10);fill-opacity:1.0;fill-rule:evenodd;stroke:rgb(0, 0, 0);stroke-width:3.0;" d="M 76.9026, 246.961 L 94.4854, 280.642 L 91.0257, 282.296 L 79.2672, 267.426 L 74.0064, 244.746 z "/>
<path style="fill:rgb(255, 72, 10);fill-opacity:1.0;fill-rule:evenodd;stroke:rgb(0, 0, 0);stroke-width:3.0;" d="M 635.495, 332.35 L 645.244, 341.809 L 636.598, 346.727 L 614.258, 329.948 L 616.654, 328.743 z "/>
<path style="fill:rgb(255, 72, 10);fill-opacity:1.0;fill-rule:evenodd;stroke:rgb(0, 0, 0);stroke-width:3.0;" d="M 429.884, 347.436 L 410.057, 362.37 L 408.457, 338.358 L 429.341, 330.549 z "/>
<path style="fill:rgb(255, 72, 10);fill-opacity:1.0;fill-rule:evenodd;stroke:rgb(0, 0, 0);stroke-width:3.0;" d="M 515.654, 447.381 L 515.826, 455.6 L 452.183, 448.072 L 443.773, 434.978 L 456.199, 408.166 z "/>
<path style="fill:rgb(115, 91, 255);fill-opacity:1.0;fill-rule:evenodd;stroke:rgb(0, 0, 0);stroke-width:3.0;" d="M 646.498, 447.231 L 650.398, 453.278 L 623.094, 454.615 L 640.717, 446.884 z "/>
<path style="fill:rgb(115, 91, 255);fill-opacity:1.0;fill-rule:evenodd;stroke:rgb(0, 0, 0);stroke-width:3.0;" d="M 615.231, 238.407 L 598.873, 254.631 L 598.162, 253.522 L 588.104, 183.105 L 589.829, 182.55 z "/>
<path style="fill:rgb(115, 91, 255);fill-opacity:1.0;fill-rule:evenodd;stroke:rgb(0, 0, 0);stroke-width:3.0;" d="M 391.739, 83.4643 L 396.157, 89.7121 L 403.709, 106.236 L 370.201, 80.8148 L 374.328, 68.7195 z "/>
<path style="fill:rgb(75, 255, 234);fill-opacity:1.0;fill-rule:evenodd;stroke:rgb(0, 0, 0);stroke-width:3.0;" d="M 255.268, 195.89 L 243.932, 202.25 L 238.202, 194.145 L 237.72, 188.44 L 257.473, 188.274 z "/>
<path style="fill:rgb(243, 110, 88);fill-opacity:1.0;fill-rule:evenodd;stroke:rgb(0, 0, 0);stroke-width:3.0;" d="M 588.806, 350.94 L 528.387, 379.028 L 526.193, 374.227 L 587.837, 343.232 z "/>
<path style="fill:rgb(243, 110, 88);fill-opacity:1.0;fill-rule:evenodd;stroke:rgb(0, 0, 0);stroke-width:3.0;" d="M 356.958, 566.406 L 366.049, 577.127 L 335.052, 590.892 L 315.533, 566.208 z "/>
<path style="fill:rgb(243, 110, 88);fill-opacity:1.0;fill-rule:evenodd;stroke:rgb(0, 0, 0);stroke-width:3.0;" d="M 423.106, 178.026 L 420.904, 184.448 L 412.092, 192.409 L 413.399, 186.606 L 417.725, 172.052 L 421.562, 171.307 z "/>
<path style="fill:rgb(243, 110, 88);fill-opacity:1.0;fill-rule:evenodd;stroke:rgb(0, 0, 0);stroke-width:3.0;" d="M 453.72, 357.252 L 436.663, 352.469 L 448.088, 337.177 z "/>
<path style="fill:rgb(249, 10, 67);fill-opacity:1.0;fill-rule:evenodd;stroke:rgb(0, 0, 0);stroke-width:3.0;" d="M 583.791, 302.311 L 572, 325.834 L 512.892, 276.096 L 495.445, 246.22 z "/>
<path style="fill:rgb(246, 27, 189);fill-opacity:1.0;fill-rule:evenodd;stroke:rgb(0, 0, 0);stroke-width:3.0;" d="M 455.854, 398.164 L 438.095, 401.233 L 448.798, 386.886 L 472.242, 385.71 z "/>
<path style="fill:rgb(246, 27, 189);fill-opacity:1.0;fill-rule:evenodd;stroke:rgb(0, 0, 0);stroke-width:3.0;" d="M 142.464, 105.501 L 47.5954, 118.529 L 106.564, 80.5267 z "/>
<path style="fill:rgb(249, 246, 165);fill-opacity:1.0;fill-rule:evenodd;stroke:rgb(0, 0, 0);stroke-width:3.0;" d="M 515.826, 455.6 L 516.264, 476.479 L 512.87, 482.766 L 490.331, 470.503 L 507.397, 454.603 z "/>
<path style="fill:rgb(255, 172, 43);fill-opacity:1.0;fill-rule:evenodd;stroke:rgb(0, 0, 0);stroke-width:3.0;" d="M 547.312, 174.203 L 453.398, 214.953 L 397.637, 92.9497 L 483.341, 74.4182 z "/>
<path style="fill:rgb(255, 18, 14);fill-opacity:1.0;fill-rule:evenodd;stroke:rgb(0, 0, 0);stroke-width:3.0;" d="M 353.854, 311.17 L 324.018, 315.536 L 312.139, 298.733 L 326.213, 293.351 z "/>
<path style="fill:rgb(255, 18, 14);fill-opacity:1.0;fill-rule:evenodd;stroke:rgb(0, 0, 0);stroke-width:3.0;" d="M 356.958, 566.406 L 315.533, 566.208 L 315.471, 566.13 L 340.323, 546.79 z "/>
<path style="fill:rgb(255, 18, 14);fill-opacity:1.0;fill-rule:evenodd;stroke:rgb(0, 0, 0);stroke-width:3.0;" d="M 20.6311, 246.61 L 8.43062, 251.297 L 5.60882, 216.72 z "/>
<path style="fill:rgb(199, 0, 10);fill-opacity:1.0;fill-rule:evenodd;stroke:rgb(0, 0, 0);stroke-width:3.0;" d="M 215.494, 399.587 L 201.035, 401.626 L 173.949, 364.209 L 177.338, 354.592 z "/>
<path style="fill:rgb(27, 105, 255);fill-opacity:1.0;fill-rule:evenodd;stroke:rgb(0, 0, 0);stroke-width:3.0;" d="M 565.809, 145.408 L 551.081, 154.105 L 547.787, 153.983 L 540.303, 148.946 L 537.818, 145.667 L 562.709, 142.232 z "/>
<path style="fill:rgb(231, 2, 22);fill-opacity:1.0;fill-rule:evenodd;stroke:rgb(0, 0, 0);stroke-width:3.0;" d="M 627.061, 226.675 L 615.231, 238.407 L 589.829, 182.55 L 606.431, 177.207 z "/>
<path style="fill:rgb(231, 2, 22);fill-opacity:1.0;fill-rule:evenodd;stroke:rgb(0, 0, 0);stroke-width:3.0;" d="M 486.784, 416.925 L 487.27, 419.206 L 467.248, 410.889 L 464.583, 407.328 L 473.694, 397.932 z "/>
<path style="fill:rgb(71, 243, 103);fill-opacity:1.0;fill-rule:evenodd;stroke:rgb(0, 0, 0);stroke-width:3.0;" d="M 671.27, 395.69 L 660.83, 411.608 L 645.537, 417.804 L 644.462, 409.458 L 663.506, 392.299 z "/>
<path style="fill:rgb(249, 223, 7);fill-opacity:1.0;fill-rule:evenodd;stroke:rgb(0, 0, 0);stroke-width:3.0;" d="M 64.1685, 187.311 L 49.3732, 203.692 L 40.1185, 192.778 L 63.6536, 184.518 z "/>
<path style="fill:rgb(255, 29, 215);fill-opacity:1.0;fill-rule:evenodd;stroke:rgb(0, 0, 0);stroke-width:3.0;" d="M 343.651, 279.102 L 342.534, 277.364 L 334.973, 220.934 L 366.831, 213.316 z "/>
<path style="fill:rgb(255, 29, 215);fill-opacity:1.0;fill-rule:evenodd;stroke:rgb(0, 0, 0);stroke-width:3.0;" d="M 169.703, 74.5202 L 165.548, 80.762 L 153.224, 73.9387 L 150.425, 69.98 L 157.457, 60.6162 z "/>
<path style="fill:rgb(255, 29, 215);fill-opacity:1.0;fill-rule:evenodd;stroke:rgb(0, 0, 0);stroke-width:3.0;" d="M 437.415, 351.462 L 411.989, 385.495 L 401.349, 368.929 L 430.837, 346.718 z "/>
<path style="fill:rgb(94, 209, 202);fill-opacity:1.0;fill-rule:evenodd;stroke:rgb(0, 0, 0);stroke-width:3.0;" d="M 650.545, 335.231 L 616.654, 328.743 L 639.138, 317.438 z "/>
<path style="fill:rgb(94, 209, 202);fill-opacity:1.0;fill-rule:evenodd;stroke:rgb(0, 0, 0);stroke-width:3.0;" d="M 437.415, 351.462 L 430.837, 346.718 L 453.988, 329.28 z "/>
<path style="fill:rgb(255, 255, 23);fill-opacity:1.0;fill-rule:evenodd;stroke:rgb(0, 0, 0);stroke-width:3.0;" d="M 456.199, 408.166 L 445.058, 432.206 L 426.519, 407.529 L 447.279, 402.282 z "/>
<path style="fill:rgb(252, 24, 194);fill-opacity:1.0;fill-rule:evenodd;stroke:rgb(0, 0, 0);stroke-width:3.0;" d="M 258.901, 18.4699 L 264.017, 22.6724 L 261.579, 28.2622 L 258.223, 28.9269 L 253.522, 25.6152 L 244.89, 11.1688 z "/>
<path style="fill:rgb(252, 24, 194);fill-opacity:1.0;fill-rule:evenodd;stroke:rgb(0, 0, 0);stroke-width:3.0;" d="M 309.29, 530.682 L 309.176, 535.847 L 303.198, 539.773 L 295.236, 527.707 L 298.276, 524.516 z "/>
<path style="fill:rgb(252, 24, 194);fill-opacity:1.0;fill-rule:evenodd;stroke:rgb(0, 0, 0);stroke-width:3.0;" d="M 428.427, 302.131 L 429.341, 330.549 L 386.891, 346.421 L 379.871, 335.492 L 387.92, 299.75 z "/>
<path style="fill:rgb(237, 39, 237);fill-opacity:1.0;fill-rule:evenodd;stroke:rgb(0, 0, 0);stroke-width:3.0;" d="M 549.391, 424.982 L 550.265, 426.895 L 536.165, 440.126 L 529.088, 427.14 L 541.195, 417.284 z "/>
<path style="fill:rgb(237, 39, 237);fill-opacity:1.0;fill-rule:evenodd;stroke:rgb(0, 0, 0);stroke-width:3.0;" d="M 420.947, 49.9836 L 412.032, 66.7561 L 410.512, 26.8221 z "/>
<path style="fill:rgb(237, 39, 237);fill-opacity:1.0;fill-rule:evenodd;stroke:rgb(0, 0, 0);stroke-width:3.0;" d="M 580.252, 178.076 L 566.279, 185.82 L 567.218, 141.609 L 582.805, 139.458 z "/>
<path style="fill:rgb(255, 152, 14);fill-opacity:1.0;fill-rule:evenodd;stroke:rgb(0, 0, 0);stroke-width:3.0;" d="M 455.217, 452.794 L 433.327, 455.198 L 354.676, 311.049 L 363.355, 309.779 z "/>
<path style="fill:rgb(255, 128, 28);fill-opacity:1.0;fill-rule:evenodd;stroke:rgb(0, 0, 0);stroke-width:3.0;" d="M 515.168, 424.224 L 493.187, 432.563 L 490.17, 430.572 L 490.367, 425.056 L 509.239, 388.938 L 514.409, 388.044 z "/>
<path style="fill:rgb(144, 100, 255);fill-opacity:1.0;fill-rule:evenodd;stroke:rgb(0, 0, 0);stroke-width:3.0;" d="M 74.0064, 244.746 L 79.2672, 267.426 L 67.5697, 252.634 L 68.9177, 245.173 L 72.4439, 243.551 z "/>
<path style="fill:rgb(40, 255, 252);fill-opacity:1.0;fill-rule:evenodd;stroke:rgb(0, 0, 0);stroke-width:3.0;" d="M 172.61, 101.362 L 142.464, 105.501 L 41.862, 35.5155 L 118.293, 24.5277 z "/>
<path style="fill:rgb(40, 255, 252);fill-opacity:1.0;fill-rule:evenodd;stroke:rgb(0, 0, 0);stroke-width:3.0;" d="M 510.447, 339.774 L 495.865, 345.897 L 502.078, 321.465 z "/>
<path style="fill:rgb(7, 128, 255);fill-opacity:1.0;fill-rule:evenodd;stroke:rgb(0, 0, 0);stroke-width:3.0;" d="M 410.057, 362.37 L 401.349, 368.929 L 386.891, 346.421 L 408.457, 338.358 z "/>
<path style="fill:rgb(7, 128, 255);fill-opacity:1.0;fill-rule:evenodd;stroke:rgb(0, 0, 0);stroke-width:3.0;" d="M 250.868, 134.669 L 256.54, 145.27 L 233.852, 131.227 L 235.285, 127.762 z "/>
<path style="fill:rgb(237, 27, 37);fill-opacity:1.0;fill-rule:evenodd;stroke:rgb(0, 0, 0);stroke-width:3.0;" d="M 309.332, 91.8373 L 272.501, 67.6365 L 296.003, 55.6072 z "/>
<path style="fill:rgb(255, 71, 12);fill-opacity:1.0;fill-rule:evenodd;stroke:rgb(0, 0, 0);stroke-width:3.0;" d="M 420.682, 143.372 L 422.325, 146.967 L 418.576, 163.618 L 309.332, 91.8373 L 296.003, 55.6072 L 296.058, 55.5795 z "/>
<path style="fill:rgb(8, 255, 255);fill-opacity:1.0;fill-rule:evenodd;stroke:rgb(0, 0, 0);stroke-width:3.0;" d="M 513.56, 257.721 L 456.341, 221.392 L 453.398, 214.953 L 538.647, 177.963 z "/>
<path style="fill:rgb(72, 67, 207);fill-opacity:1.0;fill-rule:evenodd;stroke:rgb(0, 0, 0);stroke-width:3.0;" d="M 502.078, 321.465 L 495.865, 345.897 L 486.586, 349.793 L 480.774, 348.406 L 479.736, 345.418 L 487.428, 335.107 L 501.97, 321.228 z "/>
<path style="fill:rgb(142, 30, 255);fill-opacity:1.0;fill-rule:evenodd;stroke:rgb(0, 0, 0);stroke-width:3.0;" d="M 687.159, 242.458 L 655.168, 283.047 L 676.102, 221.008 z "/>
<path style="fill:rgb(240, 19, 47);fill-opacity:1.0;fill-rule:evenodd;stroke:rgb(0, 0, 0);stroke-width:3.0;" d="M 660.734, 307.414 L 662.726, 318.37 L 630.597, 302.251 L 627.764, 299.695 L 615.61, 280.737 L 639.276, 255.963 z "/>
<path style="fill:rgb(240, 19, 47);fill-opacity:1.0;fill-rule:evenodd;stroke:rgb(0, 0, 0);stroke-width:3.0;" d="M 676.102, 221.008 L 655.168, 283.047 L 653.69, 284.922 L 667.349, 204.03 z "/>
<path style="fill:rgb(7, 192, 246);fill-opacity:1.0;fill-rule:evenodd;stroke:rgb(0, 0, 0);stroke-width:3.0;" d="M 205.469, 23.5915 L 406.02, 155.368 L 276.581, 174.684 L 178.968, 22.7151 z "/>
<path style="fill:rgb(7, 192, 246);fill-opacity:1.0;fill-rule:evenodd;stroke:rgb(0, 0, 0);stroke-width:3.0;" d="M 306.807, 45.6082 L 298.528, 51.024 L 282.399, 37.7742 L 288.404, 32.1791 z "/>
<path style="fill:rgb(32, 10, 255);fill-opacity:1.0;fill-rule:evenodd;stroke:rgb(0, 0, 0);stroke-width:3.0;" d="M 585.22, 102.932 L 582.805, 139.458 L 529.734, 146.783 L 488.318, 82.1819 L 521.12, 56.9587 z "/>
<path style="fill:rgb(32, 10, 255);fill-opacity:1.0;fill-rule:evenodd;stroke:rgb(0, 0, 0);stroke-width:3.0;" d="M 704.933, 101.084 L 715.053, 131.29 L 680.881, 123.891 L 685.675, 95.5016 z "/>
<path style="fill:rgb(32, 10, 255);fill-opacity:1.0;fill-rule:evenodd;stroke:rgb(0, 0, 0);stroke-width:3.0;" d="M 597.209, 417.825 L 570.241, 434.972 L 565.179, 427.135 L 595.129, 401.271 z "/>
<path style="fill:rgb(255, 25, 197);fill-opacity:1.0;fill-rule:evenodd;stroke:rgb(0, 0, 0);stroke-width:3.0;" d="M 448.924, 81.86 L 397.637, 92.9497 L 394.613, 86.3346 L 430.096, 74.4959 z "/>
<path style="fill:rgb(44, 255, 231);fill-opacity:1.0;fill-rule:evenodd;stroke:rgb(0, 0, 0);stroke-width:3.0;" d="M 282.886, 514.694 L 293.572, 529.455 L 289.691, 533.528 L 228.001, 455.515 L 227.826, 454.849 z "/>
<path style="fill:rgb(255, 48, 108);fill-opacity:1.0;fill-rule:evenodd;stroke:rgb(0, 0, 0);stroke-width:3.0;" d="M 368.987, 207.197 L 366.831, 213.316 L 345.504, 218.416 L 318.915, 215.748 L 324.113, 206.195 z "/>
<path style="fill:rgb(255, 48, 108);fill-opacity:1.0;fill-rule:evenodd;stroke:rgb(0, 0, 0);stroke-width:3.0;" d="M 282.886, 514.694 L 227.826, 454.849 L 221.102, 429.346 z "/>
<path style="fill:rgb(252, 13, 76);fill-opacity:1.0;fill-rule:evenodd;stroke:rgb(0, 0, 0);stroke-width:3.0;" d="M 595.129, 401.271 L 554.564, 436.301 L 528.387, 379.028 L 588.806, 350.94 z "/>
<path style="fill:rgb(255, 255, 74);fill-opacity:1.0;fill-rule:evenodd;stroke:rgb(0, 0, 0);stroke-width:3.0;" d="M 553.018, 580.481 L 524.134, 572.305 L 537.394, 568.291 z "/>
<path style="fill:rgb(226, 27, 9);fill-opacity:1.0;fill-rule:evenodd;stroke:rgb(0, 0, 0);stroke-width:3.0;" d="M 208.545, 99.213 L 208.039, 115.685 L 204.629, 114.174 L 203.723, 113.145 L 199.718, 91.0057 z "/>
<path style="fill:rgb(204, 150, 134);fill-opacity:1.0;fill-rule:evenodd;stroke:rgb(0, 0, 0);stroke-width:3.0;" d="M 299.738, 52.018 L 296.987, 56.2344 L 281.633, 45.418 L 286.836, 41.4188 z "/>
<path style="fill:rgb(240, 207, 32);fill-opacity:1.0;fill-rule:evenodd;stroke:rgb(0, 0, 0);stroke-width:3.0;" d="M 418.576, 163.618 L 415.245, 178.407 L 297.685, 207.54 L 276.581, 174.684 L 406.02, 155.368 z "/>
<path style="fill:rgb(16, 249, 136);fill-opacity:1.0;fill-rule:evenodd;stroke:rgb(0, 0, 0);stroke-width:3.0;" d="M 489.425, 506.052 L 467.488, 517.808 L 450.231, 486.18 L 472.416, 479.571 z "/>
<path style="fill:rgb(16, 249, 136);fill-opacity:1.0;fill-rule:evenodd;stroke:rgb(0, 0, 0);stroke-width:3.0;" d="M 209.432, 153.448 L 223.1, 172.783 L 111.339, 276.763 L 72.0714, 230.458 L 80.4067, 178.638 L 183.058, 142.611 z "/>
<path style="fill:rgb(255, 0, 17);fill-opacity:1.0;fill-rule:evenodd;stroke:rgb(0, 0, 0);stroke-width:3.0;" d="M 482.194, 372.344 L 482.499, 374.891 L 456.303, 376.827 L 468.919, 359.916 z "/>
<path style="fill:rgb(255, 0, 17);fill-opacity:1.0;fill-rule:evenodd;stroke:rgb(0, 0, 0);stroke-width:3.0;" d="M 47.1233, 252.455 L 19.7902, 264.733 L 19.8802, 264.262 L 43.4346, 240.163 z "/>
<path style="fill:rgb(255, 0, 17);fill-opacity:1.0;fill-rule:evenodd;stroke:rgb(0, 0, 0);stroke-width:3.0;" d="M 72.0714, 230.458 L 50.1747, 204.637 L 78.4872, 179.312 L 80.4067, 178.638 z "/>
<path style="fill:rgb(67, 20, 192);fill-opacity:1.0;fill-rule:evenodd;stroke:rgb(0, 0, 0);stroke-width:3.0;" d="M 255.648, 172.098 L 251.663, 182.979 L 247.887, 188.354 L 241.063, 188.412 L 240.645, 171.598 L 240.901, 161.205 L 244.862, 159.853 z "/>
<path style="fill:rgb(255, 28, 45);fill-opacity:1.0;fill-rule:evenodd;stroke:rgb(0, 0, 0);stroke-width:3.0;" d="M 662.726, 318.37 L 665.523, 333.748 L 630.597, 302.251 z "/>
<path style="fill:rgb(249, 170, 255);fill-opacity:1.0;fill-rule:evenodd;stroke:rgb(0, 0, 0);stroke-width:3.0;" d="M 598.162, 253.522 L 583.682, 230.935 L 583.708, 230.218 L 593.933, 223.911 z "/>
<path style="fill:rgb(212, 37, 255);fill-opacity:1.0;fill-rule:evenodd;stroke:rgb(0, 0, 0);stroke-width:3.0;" d="M 495.838, 465.373 L 490.331, 470.503 L 483.343, 466.701 L 481.69, 461.07 L 493.871, 458.011 z "/>
<path style="fill:rgb(197, 69, 192);fill-opacity:1.0;fill-rule:evenodd;stroke:rgb(0, 0, 0);stroke-width:3.0;" d="M 738.848, 402.746 L 744.976, 425.128 L 726.332, 412.098 L 730.21, 399.03 z "/>
<path style="fill:rgb(177, 59, 240);fill-opacity:1.0;fill-rule:evenodd;stroke:rgb(0, 0, 0);stroke-width:3.0;" d="M 35.8036, 247.97 L 19.8802, 264.262 L 23.4632, 245.521 L 26.259, 244.447 z "/>
<path style="fill:rgb(240, 126, 25);fill-opacity:1.0;fill-rule:evenodd;stroke:rgb(0, 0, 0);stroke-width:3.0;" d="M 590.142, 197.372 L 593.933, 223.911 L 583.708, 230.218 L 584.966, 195.003 z "/>
<path style="fill:rgb(255, 1, 22);fill-opacity:1.0;fill-rule:evenodd;stroke:rgb(0, 0, 0);stroke-width:3.0;" d="M 72.619, 56.9123 L 41.6848, 119.162 L 55.4246, 44.9506 z "/>
<path style="fill:rgb(6, 255, 17);fill-opacity:1.0;fill-rule:evenodd;stroke:rgb(0, 0, 0);stroke-width:3.0;" d="M 369.682, 581.411 L 345.407, 594.862 L 339.396, 588.963 L 366.049, 577.127 z "/>
<path style="fill:rgb(237, 142, 55);fill-opacity:1.0;fill-rule:evenodd;stroke:rgb(0, 0, 0);stroke-width:3.0;" d="M 342.534, 277.364 L 339.378, 272.45 L 329.892, 222.149 L 334.973, 220.934 z "/>
<path style="fill:rgb(255, 184, 24);fill-opacity:1.0;fill-rule:evenodd;stroke:rgb(0, 0, 0);stroke-width:3.0;" d="M 224.878, 137.163 L 225.457, 141.907 L 218.625, 166.452 L 218.573, 166.378 L 217.147, 162.717 L 218.436, 129.85 z "/>
<path style="fill:rgb(212, 108, 11);fill-opacity:1.0;fill-rule:evenodd;stroke:rgb(0, 0, 0);stroke-width:3.0;" d="M 218.436, 129.85 L 217.147, 162.717 L 205.452, 132.682 L 211.37, 121.827 z "/>
<path style="fill:rgb(18, 27, 255);fill-opacity:1.0;fill-rule:evenodd;stroke:rgb(0, 0, 0);stroke-width:3.0;" d="M 233.218, 107.174 L 223.22, 112.856 L 199.718, 91.0057 L 197.873, 80.8065 L 210.497, 71.8004 z "/>
<path style="fill:rgb(140, 138, 177);fill-opacity:1.0;fill-rule:evenodd;stroke:rgb(0, 0, 0);stroke-width:3.0;" d="M 704.933, 101.084 L 685.675, 95.5016 L 691.502, 60.9919 z "/>
<path style="fill:rgb(144, 0, 16);fill-opacity:1.0;fill-rule:evenodd;stroke:rgb(0, 0, 0);stroke-width:3.0;" d="M 425.125, 289.788 L 421.298, 293.861 L 389.989, 290.561 L 390.549, 288.076 z "/>
<path style="fill:rgb(38, 54, 240);fill-opacity:1.0;fill-rule:evenodd;stroke:rgb(0, 0, 0);stroke-width:3.0;" d="M 451.669, 76.7752 L 447.976, 81.4892 L 430.096, 74.4959 L 446.931, 68.879 z "/>
<path style="fill:rgb(255, 255, 6);fill-opacity:1.0;fill-rule:evenodd;stroke:rgb(0, 0, 0);stroke-width:3.0;" d="M 596.32, 310.266 L 606.246, 316.568 L 589.801, 340.283 L 558.963, 354.99 L 558.115, 353.537 L 580.106, 309.663 z "/>
<path style="fill:rgb(237, 252, 20);fill-opacity:1.0;fill-rule:evenodd;stroke:rgb(0, 0, 0);stroke-width:3.0;" d="M 222.192, 433.482 L 228.001, 455.515 L 207.122, 429.112 z "/>
<path style="fill:rgb(255, 228, 24);fill-opacity:1.0;fill-rule:evenodd;stroke:rgb(0, 0, 0);stroke-width:3.0;" d="M 516.437, 484.707 L 516.437, 484.711 L 503.105, 498.721 L 494.406, 503.383 L 466.377, 457.47 z "/>
<path style="fill:rgb(255, 228, 24);fill-opacity:1.0;fill-rule:evenodd;stroke:rgb(0, 0, 0);stroke-width:3.0;" d="M 774.466, 353.91 L 779.388, 359.106 L 779.211, 364.594 L 773.048, 368.129 L 768.428, 357.981 L 768.985, 356.237 L 773.743, 353.687 z "/>
<path style="fill:rgb(255, 228, 24);fill-opacity:1.0;fill-rule:evenodd;stroke:rgb(0, 0, 0);stroke-width:3.0;" d="M 221.102, 429.346 L 222.192, 433.482 L 207.122, 429.112 L 173.549, 386.655 L 171.641, 370.756 L 173.949, 364.209 z "/>
<path style="fill:rgb(255, 108, 12);fill-opacity:1.0;fill-rule:evenodd;stroke:rgb(0, 0, 0);stroke-width:3.0;" d="M 329.654, 76.5943 L 328.501, 78.4345 L 300.264, 58.5425 L 306.122, 57.2623 z "/>
<path style="fill:rgb(240, 86, 243);fill-opacity:1.0;fill-rule:evenodd;stroke:rgb(0, 0, 0);stroke-width:3.0;" d="M 528.891, 427.3 L 521.886, 433.003 L 518.585, 420.434 L 534.786, 418.308 z "/>
<path style="fill:rgb(240, 86, 243);fill-opacity:1.0;fill-rule:evenodd;stroke:rgb(0, 0, 0);stroke-width:3.0;" d="M 596.383, 169.503 L 581.103, 183.789 L 589.758, 156.824 z "/>
<path style="fill:rgb(240, 86, 243);fill-opacity:1.0;fill-rule:evenodd;stroke:rgb(0, 0, 0);stroke-width:3.0;" d="M 566.525, 477.57 L 557.637, 472.522 L 556.513, 470.1 L 575.962, 459.677 z "/>
<path style="fill:rgb(255, 119, 23);fill-opacity:1.0;fill-rule:evenodd;stroke:rgb(0, 0, 0);stroke-width:3.0;" d="M 466.377, 457.47 L 494.406, 503.383 L 489.425, 506.052 L 453.838, 450.648 z "/>
<path style="fill:rgb(252, 54, 255);fill-opacity:1.0;fill-rule:evenodd;stroke:rgb(0, 0, 0);stroke-width:3.0;" d="M 715.053, 131.29 L 720.565, 147.744 L 670.815, 183.507 L 680.881, 123.891 z "/>
<path style="fill:rgb(243, 136, 19);fill-opacity:1.0;fill-rule:evenodd;stroke:rgb(0, 0, 0);stroke-width:3.0;" d="M 458.968, 227.141 L 463.388, 236.81 L 444.295, 250.528 L 420.585, 213.187 L 422.46, 197.574 z "/>
<path style="fill:rgb(228, 6, 21);fill-opacity:1.0;fill-rule:evenodd;stroke:rgb(0, 0, 0);stroke-width:3.0;" d="M 563.182, 466.526 L 544.581, 476.494 L 554.555, 459.582 z "/>
<path style="fill:rgb(86, 5, 255);fill-opacity:1.0;fill-rule:evenodd;stroke:rgb(0, 0, 0);stroke-width:3.0;" d="M 455.814, 360.466 L 460.059, 370.896 L 456.061, 373.307 L 449.104, 373.458 L 449.376, 356.576 z "/>
<path style="fill:rgb(243, 220, 13);fill-opacity:1.0;fill-rule:evenodd;stroke:rgb(0, 0, 0);stroke-width:3.0;" d="M 589.758, 156.824 L 581.103, 183.789 L 579.794, 185.013 L 582.567, 143.064 z "/>
</svg>