<?xml version="1.0" encoding="iso-8859-1" standalone="no"?>
<!DOCTYPE svg PUBLIC "-//W3C//DTD SVG 1.0//EN" "http://www.w3.org/TR/2001/REC-SVG-20010904/DTD/svg10.dtd">
<svg xmlns="http://www.w3.org/2000/svg" width="800" height="600">
<path style="fill:rgb(0, 0, 0);fill-opacity:0.0;fill-rule:evenodd;stroke:rgb(0, 0, 0);stroke-width:0.0;" d="M 0, 600 L 800, 600 L 800, 0 L 0, 0 z "/>
<path style="fill:rgb(255, 9, 97);fill-opacity:1.0;fill-rule:evenodd;stroke:rgb(0, 0, 0);stroke-width:3.0;" d="M 698.663, 207.256 L 693.14, 209.379 L 671.029, 198.737 L 689.927, 191.89 z "/>
<path style="fill:rgb(255, 9, 97);fill-opacity:1.0;fill-rule:evenodd;stroke:rgb(0, 0, 0);stroke-width:3.0;" d="M 716.962, 423.942 L 699.336, 430.322 L 674.395, 366.016 L 703.898, 365.581 z "/>
<path style="fill:rgb(255, 8, 220);fill-opacity:1.0;fill-rule:evenodd;stroke:rgb(0, 0, 0);stroke-width:3.0;" d="M 491.6, 463.699 L 492.41, 487.136 L 423.525, 547.795 L 262.74, 453.139 L 343.386, 377.456 z "/>
<path style="fill:rgb(255, 8, 220);fill-opacity:1.0;fill-rule:evenodd;stroke:rgb(0, 0, 0);stroke-width:3.0;" d="M 242.233, 441.066 L 145.855, 480.374 L 102.621, 375.105 L 110.595, 363.569 z "/>
<path style="fill:rgb(36, 83, 179);fill-opacity:1.0;fill-rule:evenodd;stroke:rgb(0, 0, 0);stroke-width:3.0;" d="M 693.694, 415.774 L 686.876, 441.447 L 678.022, 405.605 L 689.434, 404.792 z "/>
<path style="fill:rgb(36, 83, 179);fill-opacity:1.0;fill-rule:evenodd;stroke:rgb(0, 0, 0);stroke-width:3.0;" d="M 436.887, 52.1838 L 416.738, 74.7787 L 409.755, 74.0312 L 405.223, 68.4079 L 419.203, 50.0749 L 436.273, 37.1649 L 445.693, 35.2983 z "/>
<path style="fill:rgb(36, 83, 179);fill-opacity:1.0;fill-rule:evenodd;stroke:rgb(0, 0, 0);stroke-width:3.0;" d="M 657.968, 197.605 L 647.179, 207.379 L 635.695, 211.539 L 635.394, 211.347 L 639.549, 191.064 L 641.692, 189.582 z "/>
<path style="fill:rgb(36, 83, 179);fill-opacity:1.0;fill-rule:evenodd;stroke:rgb(0, 0, 0);stroke-width:3.0;" d="M 566.025, 348.146 L 472.43, 324.245 L 587.643, 292.286 z "/>
<path style="fill:rgb(36, 83, 179);fill-opacity:1.0;fill-rule:evenodd;stroke:rgb(0, 0, 0);stroke-width:3.0;" d="M 246.861, 267.262 L 195.037, 227.213 L 255.319, 221.052 z "/>
<path style="fill:rgb(36, 83, 179);fill-opacity:1.0;fill-rule:evenodd;stroke:rgb(0, 0, 0);stroke-width:3.0;" d="M 545.735, 255.938 L 512.846, 278.681 L 433.249, 309.277 L 440.961, 299.197 L 525.245, 244.665 L 531.368, 244.279 z "/>
<path style="fill:rgb(255, 255, 33);fill-opacity:1.0;fill-rule:evenodd;stroke:rgb(0, 0, 0);stroke-width:3.0;" d="M 759.85, 393.84 L 766.737, 405.923 L 759.323, 408.607 L 713.93, 410.4 L 709.315, 389.783 z "/>
<path style="fill:rgb(255, 16, 16);fill-opacity:1.0;fill-rule:evenodd;stroke:rgb(0, 0, 0);stroke-width:3.0;" d="M 597.91, 211.107 L 594.408, 213.296 L 580.949, 211.5 L 587.868, 196.124 z "/>
<path style="fill:rgb(255, 16, 16);fill-opacity:1.0;fill-rule:evenodd;stroke:rgb(0, 0, 0);stroke-width:3.0;" d="M 87.1546, 143.845 L 93.921, 156.98 L 90.7694, 167.163 L 51.8897, 155.483 L 80.8613, 138.981 z "/>
<path style="fill:rgb(255, 16, 16);fill-opacity:1.0;fill-rule:evenodd;stroke:rgb(0, 0, 0);stroke-width:3.0;" d="M 532.826, 307.491 L 360.704, 355.237 L 345.084, 343.166 L 481.902, 290.575 z "/>
<path style="fill:rgb(100, 7, 252);fill-opacity:1.0;fill-rule:evenodd;stroke:rgb(0, 0, 0);stroke-width:3.0;" d="M 791.748, 226.461 L 761.312, 282.249 L 726.977, 196.373 L 728.374, 195.836 z "/>
<path style="fill:rgb(231, 37, 161);fill-opacity:1.0;fill-rule:evenodd;stroke:rgb(0, 0, 0);stroke-width:3.0;" d="M 735.625, 218.001 L 747.587, 247.919 L 661.763, 271.726 L 671.327, 217.764 L 684.462, 212.715 z "/>
<path style="fill:rgb(255, 246, 10);fill-opacity:1.0;fill-rule:evenodd;stroke:rgb(0, 0, 0);stroke-width:3.0;" d="M 661.763, 271.726 L 532.826, 307.491 L 481.902, 290.575 L 671.327, 217.764 z "/>
<path style="fill:rgb(110, 255, 30);fill-opacity:1.0;fill-rule:evenodd;stroke:rgb(0, 0, 0);stroke-width:3.0;" d="M 791.33, 257.875 L 791.286, 268.556 L 787.027, 270.026 L 777.529, 268.029 L 784.972, 254.866 z "/>
<path style="fill:rgb(110, 255, 30);fill-opacity:1.0;fill-rule:evenodd;stroke:rgb(0, 0, 0);stroke-width:3.0;" d="M 95.584, 357.971 L 145.855, 480.374 L 121.221, 490.421 L 91.6717, 470.34 L 37.4167, 336.333 z "/>
<path style="fill:rgb(110, 255, 30);fill-opacity:1.0;fill-rule:evenodd;stroke:rgb(0, 0, 0);stroke-width:3.0;" d="M 767.322, 297.279 L 764.699, 290.718 L 773.822, 274.583 L 793.563, 267.77 z "/>
<path style="fill:rgb(255, 11, 19);fill-opacity:1.0;fill-rule:evenodd;stroke:rgb(0, 0, 0);stroke-width:3.0;" d="M 791.926, 217.321 L 787.292, 224.308 L 777.486, 219.569 L 773.234, 214.453 L 786.582, 214.438 z "/>
<path style="fill:rgb(255, 11, 19);fill-opacity:1.0;fill-rule:evenodd;stroke:rgb(0, 0, 0);stroke-width:3.0;" d="M 589.248, 193.056 L 587.871, 196.117 L 584.476, 195.655 L 582.45, 160.693 L 585.145, 143.549 z "/>
<path style="fill:rgb(255, 11, 19);fill-opacity:1.0;fill-rule:evenodd;stroke:rgb(0, 0, 0);stroke-width:3.0;" d="M 31.1638, 34.1374 L 7.02858, 51.9662 L 6.33304, 42.0762 L 27.5624, 32.045 z "/>
<path style="fill:rgb(255, 11, 19);fill-opacity:1.0;fill-rule:evenodd;stroke:rgb(0, 0, 0);stroke-width:3.0;" d="M 254.424, 425.505 L 245.459, 442.965 L 233.266, 435.787 L 233.273, 435.711 L 239.962, 413.241 L 252.599, 399.119 z "/>
<path style="fill:rgb(255, 11, 19);fill-opacity:1.0;fill-rule:evenodd;stroke:rgb(0, 0, 0);stroke-width:3.0;" d="M 247.49, 267.748 L 139.396, 254.162 L 174.434, 211.292 z "/>
<path style="fill:rgb(255, 11, 19);fill-opacity:1.0;fill-rule:evenodd;stroke:rgb(0, 0, 0);stroke-width:3.0;" d="M 33.2027, 430.606 L 39.788, 435.081 L 20.0617, 466.062 L 15.7105, 447.469 L 30.6522, 430.465 z "/>
<path style="fill:rgb(255, 11, 19);fill-opacity:1.0;fill-rule:evenodd;stroke:rgb(0, 0, 0);stroke-width:3.0;" d="M 93.8298, 353.699 L 95.584, 357.971 L 37.4167, 336.333 L 28.9945, 315.53 z "/>
<path style="fill:rgb(255, 11, 19);fill-opacity:1.0;fill-rule:evenodd;stroke:rgb(0, 0, 0);stroke-width:3.0;" d="M 396.814, 34.2495 L 393.849, 39.7348 L 367.165, 42.8012 L 366.288, 41.316 L 397.638, 23.9479 z "/>
<path style="fill:rgb(255, 11, 19);fill-opacity:1.0;fill-rule:evenodd;stroke:rgb(0, 0, 0);stroke-width:3.0;" d="M 519.594, 586.516 L 495.85, 586.688 L 495.524, 577.252 L 507.289, 574.962 z "/>
<path style="fill:rgb(255, 11, 19);fill-opacity:1.0;fill-rule:evenodd;stroke:rgb(0, 0, 0);stroke-width:3.0;" d="M 744.879, 479.206 L 726.15, 499.457 L 722.928, 491.148 L 754.824, 461.245 z "/>
<path style="fill:rgb(255, 11, 19);fill-opacity:1.0;fill-rule:evenodd;stroke:rgb(0, 0, 0);stroke-width:3.0;" d="M 570.974, 233.669 L 567.829, 240.66 L 550.044, 252.958 L 507.737, 211.922 L 550.214, 156.404 L 585.698, 140.036 z "/>
<path style="fill:rgb(14, 215, 246);fill-opacity:1.0;fill-rule:evenodd;stroke:rgb(0, 0, 0);stroke-width:3.0;" d="M 481.982, 28.1082 L 459.148, 32.6326 L 457.081, 30.0816 L 471.596, 13.118 z "/>
<path style="fill:rgb(255, 32, 12);fill-opacity:1.0;fill-rule:evenodd;stroke:rgb(0, 0, 0);stroke-width:3.0;" d="M 707.578, 451.571 L 696.26, 449.408 L 688.889, 433.865 L 690.53, 427.688 L 697.689, 426.076 z "/>
<path style="fill:rgb(255, 32, 12);fill-opacity:1.0;fill-rule:evenodd;stroke:rgb(0, 0, 0);stroke-width:3.0;" d="M 449.543, 386.75 L 462.173, 412.451 L 436.943, 414.153 L 406.504, 390.63 L 411.823, 369.986 z "/>
<path style="fill:rgb(249, 202, 17);fill-opacity:1.0;fill-rule:evenodd;stroke:rgb(0, 0, 0);stroke-width:3.0;" d="M 14.0223, 82.5395 L 24.9224, 38.748 L 45.4173, 23.6083 L 56.0355, 18.5911 z "/>
<path style="fill:rgb(249, 202, 17);fill-opacity:1.0;fill-rule:evenodd;stroke:rgb(0, 0, 0);stroke-width:3.0;" d="M 510.238, 241.47 L 495.382, 246.549 L 480.73, 247.473 L 489.564, 238.946 z "/>
<path style="fill:rgb(249, 202, 17);fill-opacity:1.0;fill-rule:evenodd;stroke:rgb(0, 0, 0);stroke-width:3.0;" d="M 673.415, 197.873 L 664.826, 200.985 L 645.293, 191.357 L 652.171, 187.656 z "/>
<path style="fill:rgb(246, 33, 255);fill-opacity:1.0;fill-rule:evenodd;stroke:rgb(0, 0, 0);stroke-width:3.0;" d="M 134.659, 76.5033 L 98.5352, 98.7774 L 86.4705, 54.6167 z "/>
<path style="fill:rgb(246, 33, 255);fill-opacity:1.0;fill-rule:evenodd;stroke:rgb(0, 0, 0);stroke-width:3.0;" d="M 328.406, 368.74 L 226.84, 366.369 L 174.693, 279.297 z "/>
<path style="fill:rgb(246, 33, 255);fill-opacity:1.0;fill-rule:evenodd;stroke:rgb(0, 0, 0);stroke-width:3.0;" d="M 553.922, 262.892 L 512.846, 278.681 L 565.613, 242.192 L 575.519, 241.636 z "/>
<path style="fill:rgb(74, 76, 252);fill-opacity:1.0;fill-rule:evenodd;stroke:rgb(0, 0, 0);stroke-width:3.0;" d="M 495.98, 590.449 L 423.525, 547.795 L 492.41, 487.136 z "/>
<path style="fill:rgb(240, 255, 12);fill-opacity:1.0;fill-rule:evenodd;stroke:rgb(0, 0, 0);stroke-width:3.0;" d="M 413.659, 78.8752 L 346.082, 108.211 L 337.621, 56.7115 L 387.785, 46.772 z "/>
<path style="fill:rgb(255, 9, 226);fill-opacity:1.0;fill-rule:evenodd;stroke:rgb(0, 0, 0);stroke-width:3.0;" d="M 711.813, 213.325 L 690.089, 210.552 L 698.294, 207.398 L 718.171, 205.17 z "/>
<path style="fill:rgb(255, 108, 8);fill-opacity:1.0;fill-rule:evenodd;stroke:rgb(0, 0, 0);stroke-width:3.0;" d="M 529.366, 338.785 L 444.466, 369.406 L 380.265, 370.353 L 360.704, 355.237 L 472.43, 324.245 z "/>
<path style="fill:rgb(255, 108, 8);fill-opacity:1.0;fill-rule:evenodd;stroke:rgb(0, 0, 0);stroke-width:3.0;" d="M 526.754, 240.534 L 531.037, 244.01 L 487.274, 238.666 L 491.625, 232.98 z "/>
<path style="fill:rgb(231, 8, 88);fill-opacity:1.0;fill-rule:evenodd;stroke:rgb(0, 0, 0);stroke-width:3.0;" d="M 628.597, 214.111 L 598.509, 225.012 L 589.029, 225.999 L 612.866, 209.516 z "/>
<path style="fill:rgb(231, 8, 88);fill-opacity:1.0;fill-rule:evenodd;stroke:rgb(0, 0, 0);stroke-width:3.0;" d="M 728.645, 366.516 L 730.385, 388.768 L 730.181, 388.96 L 704.628, 368.846 L 703.898, 365.581 L 727.18, 365.237 z "/>
<path style="fill:rgb(82, 112, 177);fill-opacity:1.0;fill-rule:evenodd;stroke:rgb(0, 0, 0);stroke-width:3.0;" d="M 536.427, 566.376 L 516.289, 537.571 L 524.876, 531.51 z "/>
<path style="fill:rgb(82, 112, 177);fill-opacity:1.0;fill-rule:evenodd;stroke:rgb(0, 0, 0);stroke-width:3.0;" d="M 529.514, 485.76 L 515.9, 497.975 L 513.677, 497.702 L 504.993, 471.492 z "/>
<path style="fill:rgb(82, 112, 177);fill-opacity:1.0;fill-rule:evenodd;stroke:rgb(0, 0, 0);stroke-width:3.0;" d="M 601.642, 461.356 L 509.444, 470.18 L 506.101, 467.596 L 604.063, 410.873 L 621.051, 409.663 z "/>
<path style="fill:rgb(82, 112, 177);fill-opacity:1.0;fill-rule:evenodd;stroke:rgb(0, 0, 0);stroke-width:3.0;" d="M 753.796, 201.693 L 759.445, 210.851 L 752.49, 207.49 L 737.279, 193.632 L 740.714, 191.313 z "/>
<path style="fill:rgb(82, 112, 177);fill-opacity:1.0;fill-rule:evenodd;stroke:rgb(0, 0, 0);stroke-width:3.0;" d="M 707.578, 451.571 L 716.97, 475.789 L 709.792, 477.944 L 696.26, 449.408 z "/>
<path style="fill:rgb(82, 112, 177);fill-opacity:1.0;fill-rule:evenodd;stroke:rgb(0, 0, 0);stroke-width:3.0;" d="M 308.811, 124.391 L 225.621, 160.505 L 160.879, 127.701 L 176.947, 88.5469 L 296.618, 64.8356 z "/>
<path style="fill:rgb(112, 231, 255);fill-opacity:1.0;fill-rule:evenodd;stroke:rgb(0, 0, 0);stroke-width:3.0;" d="M 328.406, 368.74 L 343.386, 377.456 L 278.859, 438.012 L 245.612, 366.807 z "/>
<path style="fill:rgb(255, 85, 6);fill-opacity:1.0;fill-rule:evenodd;stroke:rgb(0, 0, 0);stroke-width:3.0;" d="M 550.989, 502.284 L 574.104, 520.147 L 560.024, 567.589 L 524.369, 529.977 L 513.677, 497.702 z "/>
<path style="fill:rgb(255, 85, 6);fill-opacity:1.0;fill-rule:evenodd;stroke:rgb(0, 0, 0);stroke-width:3.0;" d="M 354.706, 210.895 L 340.29, 212.369 L 335.866, 150.779 L 403.001, 145.788 z "/>
<path style="fill:rgb(255, 85, 6);fill-opacity:1.0;fill-rule:evenodd;stroke:rgb(0, 0, 0);stroke-width:3.0;" d="M 755.588, 98.9836 L 751.128, 71.8532 L 785.716, 69.9445 z "/>
<path style="fill:rgb(255, 220, 7);fill-opacity:1.0;fill-rule:evenodd;stroke:rgb(0, 0, 0);stroke-width:3.0;" d="M 498.343, 252.702 L 473.517, 269.1 L 469.139, 262.369 L 480.526, 247.486 L 503.545, 246.034 z "/>
<path style="fill:rgb(243, 172, 37);fill-opacity:1.0;fill-rule:evenodd;stroke:rgb(0, 0, 0);stroke-width:3.0;" d="M 231.494, 71.3105 L 192.579, 74.4293 L 184.777, 71.8789 L 187.403, 58.0979 L 222.311, 52.4051 z "/>
<path style="fill:rgb(243, 172, 37);fill-opacity:1.0;fill-rule:evenodd;stroke:rgb(0, 0, 0);stroke-width:3.0;" d="M 239.289, 366.66 L 235.362, 411.732 L 221.05, 401.696 L 216.895, 366.137 z "/>
<path style="fill:rgb(243, 172, 37);fill-opacity:1.0;fill-rule:evenodd;stroke:rgb(0, 0, 0);stroke-width:3.0;" d="M 433.249, 309.277 L 345.084, 343.166 L 288.834, 299.697 L 409.552, 136.956 L 579.845, 117.676 z "/>
<path style="fill:rgb(255, 110, 12);fill-opacity:1.0;fill-rule:evenodd;stroke:rgb(0, 0, 0);stroke-width:3.0;" d="M 153.617, 236.762 L 136.85, 257.277 L 136.066, 256.821 L 135.667, 255.126 L 145.215, 232.97 z "/>
<path style="fill:rgb(246, 14, 17);fill-opacity:1.0;fill-rule:evenodd;stroke:rgb(0, 0, 0);stroke-width:3.0;" d="M 587.871, 196.117 L 570.974, 233.669 L 577.11, 194.653 z "/>
<path style="fill:rgb(252, 228, 14);fill-opacity:1.0;fill-rule:evenodd;stroke:rgb(0, 0, 0);stroke-width:3.0;" d="M 186.055, 140.457 L 117.127, 167.006 L 48.5244, 113.992 L 109.844, 101.843 z "/>
<path style="fill:rgb(252, 228, 14);fill-opacity:1.0;fill-rule:evenodd;stroke:rgb(0, 0, 0);stroke-width:3.0;" d="M 340.29, 212.369 L 326.771, 213.75 L 255.974, 147.328 L 333.21, 113.799 z "/>
<path style="fill:rgb(252, 228, 14);fill-opacity:1.0;fill-rule:evenodd;stroke:rgb(0, 0, 0);stroke-width:3.0;" d="M 733.815, 176.295 L 712.815, 193.28 L 711.155, 184.753 L 730.237, 174.327 z "/>
<path style="fill:rgb(255, 1, 95);fill-opacity:1.0;fill-rule:evenodd;stroke:rgb(0, 0, 0);stroke-width:3.0;" d="M 485.377, 270.46 L 440.961, 299.197 L 454.255, 281.823 L 476.026, 267.443 z "/>
<path style="fill:rgb(215, 25, 65);fill-opacity:1.0;fill-rule:evenodd;stroke:rgb(0, 0, 0);stroke-width:3.0;" d="M 278.859, 438.012 L 262.74, 453.139 L 245.459, 442.965 L 264.162, 406.535 z "/>
<path style="fill:rgb(115, 255, 217);fill-opacity:1.0;fill-rule:evenodd;stroke:rgb(0, 0, 0);stroke-width:3.0;" d="M 653.106, 581.198 L 619.554, 570.91 L 593.966, 535.496 z "/>
<path style="fill:rgb(115, 255, 217);fill-opacity:1.0;fill-rule:evenodd;stroke:rgb(0, 0, 0);stroke-width:3.0;" d="M 690.189, 178.082 L 678.759, 185.184 L 669.515, 170.342 L 677.573, 164.77 z "/>
<path style="fill:rgb(115, 255, 217);fill-opacity:1.0;fill-rule:evenodd;stroke:rgb(0, 0, 0);stroke-width:3.0;" d="M 689.434, 404.792 L 466.223, 420.691 L 450.85, 389.41 L 510.086, 368.439 L 674.395, 366.016 z "/>
<path style="fill:rgb(115, 255, 217);fill-opacity:1.0;fill-rule:evenodd;stroke:rgb(0, 0, 0);stroke-width:3.0;" d="M 366.288, 41.316 L 361.467, 33.153 L 401.617, 21.7432 z "/>
<path style="fill:rgb(97, 255, 234);fill-opacity:1.0;fill-rule:evenodd;stroke:rgb(0, 0, 0);stroke-width:3.0;" d="M 116.859, 487.457 L 91.2691, 489.76 L 20.9229, 467.953 L 29.0303, 458.721 L 56.3288, 446.322 z "/>
<path style="fill:rgb(97, 255, 234);fill-opacity:1.0;fill-rule:evenodd;stroke:rgb(0, 0, 0);stroke-width:3.0;" d="M 161.083, 61.7437 L 160.735, 63.2779 L 148.114, 65.0488 L 146.062, 42.3757 z "/>
<path style="fill:rgb(97, 255, 234);fill-opacity:1.0;fill-rule:evenodd;stroke:rgb(0, 0, 0);stroke-width:3.0;" d="M 148.594, 70.3534 L 149.772, 83.3678 L 86.4705, 54.6167 L 85.8343, 52.288 L 111.967, 30.6069 z "/>
<path style="fill:rgb(97, 255, 234);fill-opacity:1.0;fill-rule:evenodd;stroke:rgb(0, 0, 0);stroke-width:3.0;" d="M 168.731, 365.013 L 172.115, 367.386 L 150.166, 386.865 L 110.748, 363.66 z "/>
<path style="fill:rgb(97, 255, 234);fill-opacity:1.0;fill-rule:evenodd;stroke:rgb(0, 0, 0);stroke-width:3.0;" d="M 222.272, 158.808 L 225.621, 160.505 L 150.764, 193.001 L 117.127, 167.006 L 139.966, 158.21 z "/>
<path style="fill:rgb(97, 255, 234);fill-opacity:1.0;fill-rule:evenodd;stroke:rgb(0, 0, 0);stroke-width:3.0;" d="M 299.82, 64.2011 L 234.343, 77.1746 L 222.311, 52.4051 L 283.774, 42.3818 z "/>
<path style="fill:rgb(255, 255, 18);fill-opacity:1.0;fill-rule:evenodd;stroke:rgb(0, 0, 0);stroke-width:3.0;" d="M 371.424, 50.0138 L 299.82, 64.2011 L 283.774, 42.3818 L 359.613, 30.0141 z "/>
<path style="fill:rgb(16, 220, 75);fill-opacity:1.0;fill-rule:evenodd;stroke:rgb(0, 0, 0);stroke-width:3.0;" d="M 506.101, 467.596 L 478.97, 446.63 L 474.96, 438.47 L 482.773, 419.512 L 604.063, 410.873 z "/>
<path style="fill:rgb(16, 220, 75);fill-opacity:1.0;fill-rule:evenodd;stroke:rgb(0, 0, 0);stroke-width:3.0;" d="M 495.886, 38.1183 L 441.989, 42.4002 L 445.693, 35.2983 L 464.625, 31.5474 z "/>
<path style="fill:rgb(16, 220, 75);fill-opacity:1.0;fill-rule:evenodd;stroke:rgb(0, 0, 0);stroke-width:3.0;" d="M 199.1, 415.673 L 150.166, 386.865 L 168.498, 370.596 z "/>
<path style="fill:rgb(16, 220, 75);fill-opacity:1.0;fill-rule:evenodd;stroke:rgb(0, 0, 0);stroke-width:3.0;" d="M 205.024, 55.2241 L 187.403, 58.0979 L 191.216, 38.0845 z "/>
<path style="fill:rgb(16, 220, 75);fill-opacity:1.0;fill-rule:evenodd;stroke:rgb(0, 0, 0);stroke-width:3.0;" d="M 153.983, 93.0968 L 150.711, 93.7451 L 148.114, 65.0488 L 160.735, 63.2779 z "/>
<path style="fill:rgb(44, 82, 255);fill-opacity:1.0;fill-rule:evenodd;stroke:rgb(0, 0, 0);stroke-width:3.0;" d="M 457.904, 71.7732 L 403.001, 145.788 L 335.866, 150.779 L 333.21, 113.799 L 456.12, 60.4425 z "/>
<path style="fill:rgb(44, 82, 255);fill-opacity:1.0;fill-rule:evenodd;stroke:rgb(0, 0, 0);stroke-width:3.0;" d="M 99.9103, 103.811 L 48.5244, 113.992 L 29.3349, 99.1629 L 85.8343, 52.288 z "/>
<path style="fill:rgb(20, 117, 240);fill-opacity:1.0;fill-rule:evenodd;stroke:rgb(0, 0, 0);stroke-width:3.0;" d="M 240.249, 49.4798 L 205.024, 55.2241 L 191.216, 38.0845 L 193.475, 26.2319 z "/>
<path style="fill:rgb(20, 117, 240);fill-opacity:1.0;fill-rule:evenodd;stroke:rgb(0, 0, 0);stroke-width:3.0;" d="M 592.4, 116.866 L 579.755, 142.777 L 550.214, 156.404 L 582.711, 113.931 z "/>
<path style="fill:rgb(7, 161, 237);fill-opacity:1.0;fill-rule:evenodd;stroke:rgb(0, 0, 0);stroke-width:3.0;" d="M 600.593, 100.076 L 592.4, 116.866 L 582.711, 113.931 L 596.807, 95.5079 z "/>
<path style="fill:rgb(35, 1, 192);fill-opacity:1.0;fill-rule:evenodd;stroke:rgb(0, 0, 0);stroke-width:3.0;" d="M 35.9583, 183.646 L 30.8303, 191.17 L 20.5582, 186.614 L 20.7569, 176.783 z "/>
<path style="fill:rgb(35, 1, 192);fill-opacity:1.0;fill-rule:evenodd;stroke:rgb(0, 0, 0);stroke-width:3.0;" d="M 677.243, 182.75 L 676.481, 192.391 L 667.309, 192.17 L 666.864, 181.954 L 671.832, 174.062 z "/>
<path style="fill:rgb(83, 138, 228);fill-opacity:1.0;fill-rule:evenodd;stroke:rgb(0, 0, 0);stroke-width:3.0;" d="M 741.081, 377.113 L 740.961, 377.267 L 727.18, 365.237 L 746.311, 364.955 z "/>
<path style="fill:rgb(83, 138, 228);fill-opacity:1.0;fill-rule:evenodd;stroke:rgb(0, 0, 0);stroke-width:3.0;" d="M 499.965, 253.766 L 501.516, 260.018 L 485.377, 270.46 L 476.026, 267.443 L 498.507, 252.594 z "/>
<path style="fill:rgb(83, 138, 228);fill-opacity:1.0;fill-rule:evenodd;stroke:rgb(0, 0, 0);stroke-width:3.0;" d="M 502.663, 520.388 L 493.696, 524.362 L 492.436, 487.881 z "/>
<path style="fill:rgb(83, 138, 228);fill-opacity:1.0;fill-rule:evenodd;stroke:rgb(0, 0, 0);stroke-width:3.0;" d="M 31.0795, 527.186 L 11.5868, 535.136 L 9.53962, 529.867 L 30.8281, 521.915 z "/>
<path style="fill:rgb(83, 138, 228);fill-opacity:1.0;fill-rule:evenodd;stroke:rgb(0, 0, 0);stroke-width:3.0;" d="M 759.196, 368.744 L 778.093, 401.812 L 771.724, 404.118 L 740.961, 377.267 L 750.622, 364.892 L 751.747, 364.875 z "/>
<path style="fill:rgb(83, 138, 228);fill-opacity:1.0;fill-rule:evenodd;stroke:rgb(0, 0, 0);stroke-width:3.0;" d="M 450.85, 389.41 L 441.044, 369.457 L 510.086, 368.439 z "/>
<path style="fill:rgb(83, 138, 228);fill-opacity:1.0;fill-rule:evenodd;stroke:rgb(0, 0, 0);stroke-width:3.0;" d="M 579.183, 242.413 L 582.225, 248.017 L 575.623, 254.551 L 553.922, 262.892 L 575.519, 241.636 L 577.477, 241.527 z "/>
<path style="fill:rgb(255, 252, 15);fill-opacity:1.0;fill-rule:evenodd;stroke:rgb(0, 0, 0);stroke-width:3.0;" d="M 20.9519, 422.28 L 9.12759, 429.176 L 5.55168, 419.056 L 9.95642, 414.808 z "/>
<path style="fill:rgb(255, 252, 15);fill-opacity:1.0;fill-rule:evenodd;stroke:rgb(0, 0, 0);stroke-width:3.0;" d="M 288.834, 299.697 L 251.263, 270.664 L 275.975, 218.941 L 354.706, 210.895 z "/>
<path style="fill:rgb(255, 252, 15);fill-opacity:1.0;fill-rule:evenodd;stroke:rgb(0, 0, 0);stroke-width:3.0;" d="M 401.771, 64.1251 L 390.71, 50.4013 L 390.164, 48.1076 L 410.998, 44.7398 z "/>
<path style="fill:rgb(255, 75, 60);fill-opacity:1.0;fill-rule:evenodd;stroke:rgb(0, 0, 0);stroke-width:3.0;" d="M 639.134, 230.138 L 627.072, 234.775 L 608.57, 221.367 L 660.917, 202.401 z "/>
<path style="fill:rgb(255, 75, 60);fill-opacity:1.0;fill-rule:evenodd;stroke:rgb(0, 0, 0);stroke-width:3.0;" d="M 536.427, 566.376 L 541.3, 581.085 L 520.944, 583.036 L 499.64, 549.323 L 516.289, 537.571 z "/>
<path style="fill:rgb(237, 12, 246);fill-opacity:1.0;fill-rule:evenodd;stroke:rgb(0, 0, 0);stroke-width:3.0;" d="M 168.033, 31.0492 L 164.027, 48.7399 L 158.57, 58.5033 L 146.062, 42.3757 L 143.862, 18.064 z "/>
<path style="fill:rgb(237, 12, 246);fill-opacity:1.0;fill-rule:evenodd;stroke:rgb(0, 0, 0);stroke-width:3.0;" d="M 665.104, 101.508 L 646.579, 152.164 L 601.099, 166.718 L 604.861, 158.356 L 660.878, 90.5845 z "/>
<path style="fill:rgb(237, 12, 246);fill-opacity:1.0;fill-rule:evenodd;stroke:rgb(0, 0, 0);stroke-width:3.0;" d="M 635.331, 182.922 L 629.918, 197.724 L 602.375, 216.77 L 596.115, 208.428 L 587.868, 196.124 L 592.771, 185.227 L 635.638, 175.794 z "/>
<path style="fill:rgb(255, 91, 25);fill-opacity:1.0;fill-rule:evenodd;stroke:rgb(0, 0, 0);stroke-width:3.0;" d="M 149.772, 83.3678 L 150.711, 93.7451 L 99.9103, 103.811 L 98.5352, 98.7774 L 134.659, 76.5033 z "/>
<path style="fill:rgb(220, 0, 8);fill-opacity:1.0;fill-rule:evenodd;stroke:rgb(0, 0, 0);stroke-width:3.0;" d="M 564.913, 119.367 L 410.047, 136.9 L 633.105, 17.7062 z "/>
<path style="fill:rgb(66, 37, 255);fill-opacity:1.0;fill-rule:evenodd;stroke:rgb(0, 0, 0);stroke-width:3.0;" d="M 748.252, 145.513 L 735.536, 145.529 L 739.665, 133.211 L 742.767, 131.306 L 747.396, 129.249 z "/>
<path style="fill:rgb(72, 255, 91);fill-opacity:1.0;fill-rule:evenodd;stroke:rgb(0, 0, 0);stroke-width:3.0;" d="M 552.346, 503.333 L 509.444, 470.18 L 563.445, 465.011 z "/>
<path style="fill:rgb(72, 255, 91);fill-opacity:1.0;fill-rule:evenodd;stroke:rgb(0, 0, 0);stroke-width:3.0;" d="M 593.966, 535.496 L 619.554, 570.91 L 564.086, 553.903 L 574.104, 520.147 z "/>
<path style="fill:rgb(255, 148, 56);fill-opacity:1.0;fill-rule:evenodd;stroke:rgb(0, 0, 0);stroke-width:3.0;" d="M 148.594, 70.3534 L 111.967, 30.6069 L 142.69, 5.11736 z "/>
<path style="fill:rgb(105, 243, 252);fill-opacity:1.0;fill-rule:evenodd;stroke:rgb(0, 0, 0);stroke-width:3.0;" d="M 550.044, 252.958 L 545.735, 255.938 L 517.091, 232.692 L 517.554, 227.068 L 520.043, 223.858 z "/>
<path style="fill:rgb(220, 172, 223);fill-opacity:1.0;fill-rule:evenodd;stroke:rgb(0, 0, 0);stroke-width:3.0;" d="M 46.0519, 439.338 L 32.4168, 454.864 L 30.2867, 450.003 L 39.788, 435.081 z "/>
<path style="fill:rgb(220, 172, 223);fill-opacity:1.0;fill-rule:evenodd;stroke:rgb(0, 0, 0);stroke-width:3.0;" d="M 745.037, 72.1894 L 680.872, 75.7303 L 688.397, 37.9893 z "/>
<path style="fill:rgb(217, 142, 28);fill-opacity:1.0;fill-rule:evenodd;stroke:rgb(0, 0, 0);stroke-width:3.0;" d="M 329.666, 79.7814 L 343.55, 97.5014 L 344.538, 108.881 L 339.654, 111.001 L 315.041, 78.3709 z "/>
<path style="fill:rgb(217, 142, 28);fill-opacity:1.0;fill-rule:evenodd;stroke:rgb(0, 0, 0);stroke-width:3.0;" d="M 46.5127, 23.0907 L 19.5598, 35.8264 L 7.51797, 38.1479 L 30.852, 12.6581 z "/>
<path style="fill:rgb(217, 142, 28);fill-opacity:1.0;fill-rule:evenodd;stroke:rgb(0, 0, 0);stroke-width:3.0;" d="M 513.453, 497.028 L 524.876, 531.51 L 509.562, 542.319 L 492.436, 487.881 L 492.32, 484.53 z "/>
<path style="fill:rgb(86, 226, 202);fill-opacity:1.0;fill-rule:evenodd;stroke:rgb(0, 0, 0);stroke-width:3.0;" d="M 635.735, 173.536 L 595.822, 184.5 L 597.221, 175.336 L 601.099, 166.718 L 636.516, 155.384 z "/>
<path style="fill:rgb(86, 226, 202);fill-opacity:1.0;fill-rule:evenodd;stroke:rgb(0, 0, 0);stroke-width:3.0;" d="M 504.993, 471.492 L 513.453, 497.028 L 492.32, 484.53 L 491.6, 463.699 z "/>
<path style="fill:rgb(114, 3, 197);fill-opacity:1.0;fill-rule:evenodd;stroke:rgb(0, 0, 0);stroke-width:3.0;" d="M 431.623, 412.72 L 435.366, 430.978 L 294.318, 348.904 L 341.284, 340.925 z "/>
<path style="fill:rgb(23, 231, 255);fill-opacity:1.0;fill-rule:evenodd;stroke:rgb(0, 0, 0);stroke-width:3.0;" d="M 711.505, 180.221 L 707.412, 196.256 L 698.538, 186.892 L 697.849, 178.901 z "/>
<path style="fill:rgb(61, 197, 255);fill-opacity:1.0;fill-rule:evenodd;stroke:rgb(0, 0, 0);stroke-width:3.0;" d="M 715.59, 164.217 L 711.505, 180.221 L 697.849, 178.901 L 697.706, 177.245 L 700.113, 162.467 z "/>
<path style="fill:rgb(255, 255, 44);fill-opacity:1.0;fill-rule:evenodd;stroke:rgb(0, 0, 0);stroke-width:3.0;" d="M 541.377, 28.5472 L 453.948, 113.441 L 410.047, 136.9 L 409.552, 136.956 L 471.148, 53.9185 L 539.97, 24.0422 z "/>
<path style="fill:rgb(66, 36, 226);fill-opacity:1.0;fill-rule:evenodd;stroke:rgb(0, 0, 0);stroke-width:3.0;" d="M 513.449, 35.555 L 510.156, 36.9847 L 495.886, 38.1183 L 464.625, 31.5474 L 471.802, 30.1252 z "/>
<path style="fill:rgb(66, 36, 226);fill-opacity:1.0;fill-rule:evenodd;stroke:rgb(0, 0, 0);stroke-width:3.0;" d="M 479.79, 99.6318 L 463.68, 108.24 L 470.146, 97.7125 L 479.818, 88.3215 z "/>
<path style="fill:rgb(66, 36, 226);fill-opacity:1.0;fill-rule:evenodd;stroke:rgb(0, 0, 0);stroke-width:3.0;" d="M 252.042, 391.06 L 252.599, 399.119 L 239.962, 413.241 L 247.584, 387.637 z "/>
<path style="fill:rgb(94, 89, 255);fill-opacity:1.0;fill-rule:evenodd;stroke:rgb(0, 0, 0);stroke-width:3.0;" d="M 519.868, 238.557 L 518.86, 238.836 L 491.625, 232.98 L 496.16, 227.052 z "/>
<path style="fill:rgb(255, 115, 25);fill-opacity:1.0;fill-rule:evenodd;stroke:rgb(0, 0, 0);stroke-width:3.0;" d="M 596.508, 176.921 L 587.387, 170.601 L 585.145, 143.549 L 585.698, 140.036 L 620.283, 124.082 z "/>
<path style="fill:rgb(255, 115, 25);fill-opacity:1.0;fill-rule:evenodd;stroke:rgb(0, 0, 0);stroke-width:3.0;" d="M 730.181, 388.96 L 727.747, 391.263 L 713.606, 390.127 L 710.159, 373.2 z "/>
<path style="fill:rgb(255, 115, 25);fill-opacity:1.0;fill-rule:evenodd;stroke:rgb(0, 0, 0);stroke-width:3.0;" d="M 551.598, 61.2602 L 479.79, 99.6318 L 479.818, 88.3215 L 541.377, 28.5472 z "/>
<path style="fill:rgb(59, 35, 255);fill-opacity:1.0;fill-rule:evenodd;stroke:rgb(0, 0, 0);stroke-width:3.0;" d="M 514.905, 573.48 L 495.524, 577.252 L 494.68, 552.824 L 499.64, 549.323 z "/>
<path style="fill:rgb(25, 255, 252);fill-opacity:1.0;fill-rule:evenodd;stroke:rgb(0, 0, 0);stroke-width:3.0;" d="M 136.527, 229.047 L 79.5735, 203.336 L 83.6135, 190.283 z "/>
<path style="fill:rgb(255, 22, 115);fill-opacity:1.0;fill-rule:evenodd;stroke:rgb(0, 0, 0);stroke-width:3.0;" d="M 174.434, 211.292 L 153.617, 236.762 L 136.527, 229.047 L 83.6135, 190.283 L 95.8957, 150.599 z "/>
<path style="fill:rgb(252, 228, 14);fill-opacity:1.0;fill-rule:evenodd;stroke:rgb(0, 0, 0);stroke-width:3.0;" d="M 15.9109, 74.9519 L 8.15955, 69.2964 L 10.818, 49.1669 L 24.9224, 38.748 z "/>
<path style="fill:rgb(252, 228, 14);fill-opacity:1.0;fill-rule:evenodd;stroke:rgb(0, 0, 0);stroke-width:3.0;" d="M 786.691, 378.561 L 763.396, 368.232 L 761.189, 364.736 L 772.187, 364.574 z "/>
<path style="fill:rgb(255, 7, 226);fill-opacity:1.0;fill-rule:evenodd;stroke:rgb(0, 0, 0);stroke-width:3.0;" d="M 89.4588, 207.799 L 80.429, 213.168 L 30.8303, 191.17 L 35.9583, 183.646 z "/>
<path style="fill:rgb(19, 105, 255);fill-opacity:1.0;fill-rule:evenodd;stroke:rgb(0, 0, 0);stroke-width:3.0;" d="M 216.895, 366.137 L 221.05, 401.696 L 168.731, 365.013 z "/>
<path style="fill:rgb(19, 105, 255);fill-opacity:1.0;fill-rule:evenodd;stroke:rgb(0, 0, 0);stroke-width:3.0;" d="M 234.343, 77.1746 L 213.234, 81.3571 L 192.038, 74.4727 L 231.494, 71.3105 z "/>
<path style="fill:rgb(88, 223, 202);fill-opacity:1.0;fill-rule:evenodd;stroke:rgb(0, 0, 0);stroke-width:3.0;" d="M 182.706, 82.7443 L 181.783, 87.5887 L 165.865, 90.7426 L 165.098, 70.0503 L 175.388, 70.0173 z "/>
<path style="fill:rgb(237, 33, 255);fill-opacity:1.0;fill-rule:evenodd;stroke:rgb(0, 0, 0);stroke-width:3.0;" d="M 390.316, 46.2706 L 375.626, 49.1813 L 370.606, 48.6285 L 367.165, 42.8012 L 393.849, 39.7348 z "/>
<path style="fill:rgb(237, 33, 255);fill-opacity:1.0;fill-rule:evenodd;stroke:rgb(0, 0, 0);stroke-width:3.0;" d="M 121.221, 490.421 L 69.4219, 511.548 L 42.751, 502.567 L 39.7156, 494.399 L 116.859, 487.457 z "/>
<path style="fill:rgb(86, 152, 217);fill-opacity:1.0;fill-rule:evenodd;stroke:rgb(0, 0, 0);stroke-width:3.0;" d="M 213.234, 81.3571 L 185.162, 86.9191 L 182.653, 83.0258 L 184.162, 75.1038 L 192.038, 74.4727 z "/>
<path style="fill:rgb(255, 14, 14);fill-opacity:1.0;fill-rule:evenodd;stroke:rgb(0, 0, 0);stroke-width:3.0;" d="M 693.14, 209.379 L 639.134, 230.138 L 660.917, 202.401 L 671.029, 198.737 z "/>
<path style="fill:rgb(86, 240, 255);fill-opacity:1.0;fill-rule:evenodd;stroke:rgb(0, 0, 0);stroke-width:3.0;" d="M 60.858, 515.04 L 31.0795, 527.186 L 29.6891, 498.035 L 32.3178, 496.787 z "/>
<path style="fill:rgb(121, 0, 29);fill-opacity:1.0;fill-rule:evenodd;stroke:rgb(0, 0, 0);stroke-width:3.0;" d="M 689.712, 452.926 L 601.642, 461.356 L 621.051, 409.663 L 678.022, 405.605 z "/>
<path style="fill:rgb(121, 0, 29);fill-opacity:1.0;fill-rule:evenodd;stroke:rgb(0, 0, 0);stroke-width:3.0;" d="M 794.099, 364.251 L 638.095, 366.551 L 566.025, 348.146 L 587.643, 292.286 L 747.587, 247.919 z "/>
<path style="fill:rgb(26, 23, 255);fill-opacity:1.0;fill-rule:evenodd;stroke:rgb(0, 0, 0);stroke-width:3.0;" d="M 780.192, 119.096 L 764.287, 110.409 L 766.452, 105.914 L 789.317, 105.799 z "/>
<path style="fill:rgb(79, 240, 255);fill-opacity:1.0;fill-rule:evenodd;stroke:rgb(0, 0, 0);stroke-width:3.0;" d="M 474.96, 438.47 L 466.223, 420.691 L 482.773, 419.512 z "/>
<path style="fill:rgb(231, 18, 61);fill-opacity:1.0;fill-rule:evenodd;stroke:rgb(0, 0, 0);stroke-width:3.0;" d="M 288.672, 299.573 L 304.481, 311.789 L 266.036, 332.448 L 182.207, 283.67 z "/>
<path style="fill:rgb(189, 0, 32);fill-opacity:1.0;fill-rule:evenodd;stroke:rgb(0, 0, 0);stroke-width:3.0;" d="M 638.095, 366.551 L 444.466, 369.406 L 529.366, 338.785 z "/>
<path style="fill:rgb(189, 0, 32);fill-opacity:1.0;fill-rule:evenodd;stroke:rgb(0, 0, 0);stroke-width:3.0;" d="M 80.3314, 56.8535 L 29.3349, 99.1629 L 11.9349, 85.7167 L 53.4387, 22.5437 z "/>
<path style="fill:rgb(252, 13, 9);fill-opacity:1.0;fill-rule:evenodd;stroke:rgb(0, 0, 0);stroke-width:3.0;" d="M 311.152, 73.2149 L 339.654, 111.001 L 308.811, 124.391 L 297.019, 66.7914 z "/>
<path style="fill:rgb(252, 13, 9);fill-opacity:1.0;fill-rule:evenodd;stroke:rgb(0, 0, 0);stroke-width:3.0;" d="M 341.284, 340.925 L 315.519, 345.302 L 327.981, 330.351 z "/>
<path style="fill:rgb(252, 13, 9);fill-opacity:1.0;fill-rule:evenodd;stroke:rgb(0, 0, 0);stroke-width:3.0;" d="M 81.1527, 56.172 L 80.3314, 56.8535 L 53.4387, 22.5437 L 56.0355, 18.5911 L 69.2779, 12.3339 z "/>
<path style="fill:rgb(46, 55, 255);fill-opacity:1.0;fill-rule:evenodd;stroke:rgb(0, 0, 0);stroke-width:3.0;" d="M 790.435, 288.634 L 789.968, 303.821 L 777.67, 303.871 L 776.214, 299.063 L 777.165, 286.275 z "/>
<path style="fill:rgb(255, 37, 144);fill-opacity:1.0;fill-rule:evenodd;stroke:rgb(0, 0, 0);stroke-width:3.0;" d="M 412.605, 58.7275 L 405.223, 68.4079 L 401.771, 64.1251 L 410.998, 44.7398 L 415.104, 44.0762 z "/>
<path style="fill:rgb(56, 255, 255);fill-opacity:1.0;fill-rule:evenodd;stroke:rgb(0, 0, 0);stroke-width:3.0;" d="M 656.174, 78.4266 L 660.878, 90.5845 L 604.861, 158.356 L 642.899, 73.8192 z "/>
<path style="fill:rgb(6, 15, 255);fill-opacity:1.0;fill-rule:evenodd;stroke:rgb(0, 0, 0);stroke-width:3.0;" d="M 559.039, 49.7949 L 562.337, 54.7242 L 560.629, 56.4347 L 551.598, 61.2602 L 545.861, 42.8965 z "/>
<path style="fill:rgb(6, 15, 255);fill-opacity:1.0;fill-rule:evenodd;stroke:rgb(0, 0, 0);stroke-width:3.0;" d="M 317.834, 73.9267 L 310.036, 70.7584 L 304.643, 63.2457 L 335.268, 57.1777 z "/>
<path style="fill:rgb(35, 255, 69);fill-opacity:1.0;fill-rule:evenodd;stroke:rgb(0, 0, 0);stroke-width:3.0;" d="M 341.6, 80.9323 L 342.684, 87.5301 L 343.55, 97.5014 L 329.666, 79.7814 z "/>
<path style="fill:rgb(252, 220, 16);fill-opacity:1.0;fill-rule:evenodd;stroke:rgb(0, 0, 0);stroke-width:3.0;" d="M 729.246, 507.44 L 726.15, 499.457 L 744.879, 479.206 z "/>
<path style="fill:rgb(252, 220, 16);fill-opacity:1.0;fill-rule:evenodd;stroke:rgb(0, 0, 0);stroke-width:3.0;" d="M 737.849, 116.081 L 712.123, 140.878 L 629.918, 197.724 L 674.4, 76.0875 L 726.348, 73.2207 z "/>
<path style="fill:rgb(252, 220, 16);fill-opacity:1.0;fill-rule:evenodd;stroke:rgb(0, 0, 0);stroke-width:3.0;" d="M 741.786, 377.986 L 730.385, 388.768 L 729.619, 378.968 L 732.432, 369.822 z "/>
<path style="fill:rgb(252, 220, 16);fill-opacity:1.0;fill-rule:evenodd;stroke:rgb(0, 0, 0);stroke-width:3.0;" d="M 165.497, 80.8153 L 165.865, 90.7426 L 153.983, 93.0968 L 162.458, 55.6715 z "/>
<path style="fill:rgb(14, 182, 255);fill-opacity:1.0;fill-rule:evenodd;stroke:rgb(0, 0, 0);stroke-width:3.0;" d="M 750.724, 562.816 L 720.844, 578.952 L 696.852, 481.83 L 716.97, 475.789 z "/>
<path style="fill:rgb(14, 182, 255);fill-opacity:1.0;fill-rule:evenodd;stroke:rgb(0, 0, 0);stroke-width:3.0;" d="M 326.771, 213.75 L 195.037, 227.213 L 150.764, 193.001 L 255.974, 147.328 z "/>
<path style="fill:rgb(100, 107, 255);fill-opacity:1.0;fill-rule:evenodd;stroke:rgb(0, 0, 0);stroke-width:3.0;" d="M 509.562, 542.319 L 504.314, 546.024 L 494.551, 549.097 L 493.774, 526.626 L 503.234, 522.203 z "/>
<path style="fill:rgb(100, 107, 255);fill-opacity:1.0;fill-rule:evenodd;stroke:rgb(0, 0, 0);stroke-width:3.0;" d="M 513.449, 35.555 L 486.169, 31.9983 L 484.646, 27.5803 L 571.429, 10.3856 z "/>
<path style="fill:rgb(182, 202, 61);fill-opacity:1.0;fill-rule:evenodd;stroke:rgb(0, 0, 0);stroke-width:3.0;" d="M 250.603, 377.496 L 236.963, 423.314 L 245.747, 367.096 z "/>
<path style="fill:rgb(255, 28, 13);fill-opacity:1.0;fill-rule:evenodd;stroke:rgb(0, 0, 0);stroke-width:3.0;" d="M 90.2073, 208.136 L 144.224, 235.268 L 141.983, 240.469 L 80.429, 213.168 L 89.4588, 207.799 z "/>
<path style="fill:rgb(255, 28, 13);fill-opacity:1.0;fill-rule:evenodd;stroke:rgb(0, 0, 0);stroke-width:3.0;" d="M 627.072, 234.775 L 612.16, 240.507 L 582.562, 230.79 L 608.57, 221.367 z "/>
<path style="fill:rgb(255, 28, 13);fill-opacity:1.0;fill-rule:evenodd;stroke:rgb(0, 0, 0);stroke-width:3.0;" d="M 765.926, 372.239 L 783.387, 399.896 L 778.093, 401.812 L 759.196, 368.744 z "/>
<path style="fill:rgb(255, 28, 13);fill-opacity:1.0;fill-rule:evenodd;stroke:rgb(0, 0, 0);stroke-width:3.0;" d="M 160.879, 127.701 L 111.791, 102.829 L 112.47, 101.322 L 176.947, 88.5469 z "/>
<path style="fill:rgb(223, 243, 12);fill-opacity:1.0;fill-rule:evenodd;stroke:rgb(0, 0, 0);stroke-width:3.0;" d="M 235.362, 411.732 L 233.266, 435.787 L 199.1, 415.673 L 168.498, 370.596 L 172.115, 367.386 z "/>
<path style="fill:rgb(237, 30, 8);fill-opacity:1.0;fill-rule:evenodd;stroke:rgb(0, 0, 0);stroke-width:3.0;" d="M 488.918, 46.2044 L 455.76, 60.5984 L 460.271, 40.9478 L 486.431, 38.8695 z "/>
<path style="fill:rgb(28, 177, 132);fill-opacity:1.0;fill-rule:evenodd;stroke:rgb(0, 0, 0);stroke-width:3.0;" d="M 455.76, 60.5984 L 425.69, 73.6523 L 441.989, 42.4002 L 460.271, 40.9478 z "/>
<path style="fill:rgb(231, 7, 58);fill-opacity:1.0;fill-rule:evenodd;stroke:rgb(0, 0, 0);stroke-width:3.0;" d="M 222.272, 158.808 L 139.966, 158.21 L 186.055, 140.457 z "/>
<path style="fill:rgb(255, 132, 12);fill-opacity:1.0;fill-rule:evenodd;stroke:rgb(0, 0, 0);stroke-width:3.0;" d="M 254.268, 264.375 L 252.958, 233.952 L 255.319, 221.052 L 275.975, 218.941 z "/>
<path style="fill:rgb(88, 187, 231);fill-opacity:1.0;fill-rule:evenodd;stroke:rgb(0, 0, 0);stroke-width:3.0;" d="M 341.6, 80.9323 L 334.531, 80.2505 L 321.763, 72.3963 L 337.733, 57.3936 z "/>
<path style="fill:rgb(88, 187, 231);fill-opacity:1.0;fill-rule:evenodd;stroke:rgb(0, 0, 0);stroke-width:3.0;" d="M 709.792, 477.944 L 696.852, 481.83 L 686.876, 441.447 L 688.889, 433.865 z "/>
<path style="fill:rgb(240, 249, 47);fill-opacity:1.0;fill-rule:evenodd;stroke:rgb(0, 0, 0);stroke-width:3.0;" d="M 309.654, 315.786 L 327.981, 330.351 L 315.519, 345.302 L 294.318, 348.904 L 266.036, 332.448 L 304.481, 311.789 z "/>
<path style="fill:rgb(255, 243, 25);fill-opacity:1.0;fill-rule:evenodd;stroke:rgb(0, 0, 0);stroke-width:3.0;" d="M 699.864, 188.29 L 684.223, 193.957 L 678.759, 185.184 L 690.189, 178.082 z "/>
<path style="fill:rgb(255, 217, 10);fill-opacity:1.0;fill-rule:evenodd;stroke:rgb(0, 0, 0);stroke-width:3.0;" d="M 774.406, 520.165 L 772.158, 543.753 L 754.264, 571.944 L 748.894, 558.099 L 767.789, 519.262 z "/>
<path style="fill:rgb(243, 217, 10);fill-opacity:1.0;fill-rule:evenodd;stroke:rgb(0, 0, 0);stroke-width:3.0;" d="M 90.7694, 167.163 L 79.5735, 203.336 L 69.4291, 198.756 L 71.8993, 161.494 z "/>
<path style="fill:rgb(255, 252, 17);fill-opacity:1.0;fill-rule:evenodd;stroke:rgb(0, 0, 0);stroke-width:3.0;" d="M 584.411, 560.135 L 575.925, 569.128 L 561.25, 563.457 L 564.086, 553.903 z "/>
<path style="fill:rgb(255, 252, 17);fill-opacity:1.0;fill-rule:evenodd;stroke:rgb(0, 0, 0);stroke-width:3.0;" d="M 71.8993, 161.494 L 69.4291, 198.756 L 17.2617, 175.205 L 51.8897, 155.483 z "/>
<path style="fill:rgb(255, 0, 49);fill-opacity:1.0;fill-rule:evenodd;stroke:rgb(0, 0, 0);stroke-width:3.0;" d="M 454.001, 418.724 L 452.599, 426.251 L 436.943, 414.153 L 450.778, 413.22 z "/>
<path style="fill:rgb(252, 255, 34);fill-opacity:1.0;fill-rule:evenodd;stroke:rgb(0, 0, 0);stroke-width:3.0;" d="M 247.49, 267.748 L 288.672, 299.573 L 182.207, 283.67 L 143.788, 261.315 L 190.421, 260.575 z "/>
<path style="fill:rgb(252, 255, 21);fill-opacity:1.0;fill-rule:evenodd;stroke:rgb(0, 0, 0);stroke-width:3.0;" d="M 190.421, 260.575 L 143.788, 261.315 L 136.85, 257.277 L 139.396, 254.162 z "/>
<path style="fill:rgb(10, 134, 255);fill-opacity:1.0;fill-rule:evenodd;stroke:rgb(0, 0, 0);stroke-width:3.0;" d="M 755.588, 98.9836 L 737.849, 116.081 L 726.348, 73.2207 L 751.128, 71.8532 z "/>
<path style="fill:rgb(115, 255, 184);fill-opacity:1.0;fill-rule:evenodd;stroke:rgb(0, 0, 0);stroke-width:3.0;" d="M 789.652, 314.069 L 789.116, 331.493 L 782.866, 321.03 L 777.764, 304.182 z "/>
<path style="fill:rgb(144, 5, 152);fill-opacity:1.0;fill-rule:evenodd;stroke:rgb(0, 0, 0);stroke-width:3.0;" d="M 245.612, 366.807 L 245.747, 367.096 L 245.535, 368.453 L 235.314, 412.282 L 239.102, 368.81 L 240.498, 366.688 z "/>
<path style="fill:rgb(65, 1, 255);fill-opacity:1.0;fill-rule:evenodd;stroke:rgb(0, 0, 0);stroke-width:3.0;" d="M 615.134, 27.3093 L 566.119, 53.5009 L 545.861, 42.8965 L 539.97, 24.0422 L 568.331, 11.7302 L 608.58, 8.27728 z "/>
</svg>