<?xml version="1.0" encoding="iso-8859-1" standalone="no"?>
<!DOCTYPE svg PUBLIC "-//W3C//DTD SVG 1.0//EN" "http://www.w3.org/TR/2001/REC-SVG-20010904/DTD/svg10.dtd">
<svg xmlns="http://www.w3.org/2000/svg" width="800" height="600">
<path style="fill:rgb(0, 0, 0);fill-opacity:0.0;fill-rule:evenodd;stroke:rgb(0, 0, 0);stroke-width:0.0;" d="M 0, 600 L 800, 600 L 800, 0 L 0, 0 z "/>
<path style="fill:rgb(115, 59, 234);fill-opacity:1.0;fill-rule:evenodd;stroke:rgb(0, 0, 0);stroke-width:3.0;" d="M 730.039, 365.391 L 724.308, 365.301 L 720.217, 357.025 L 720.396, 354.616 L 730.98, 348.973 z "/>
<path style="fill:rgb(240, 42, 31);fill-opacity:1.0;fill-rule:evenodd;stroke:rgb(0, 0, 0);stroke-width:3.0;" d="M 768.371, 533.87 L 728.406, 594.487 L 511.909, 554.745 L 650.297, 508.457 z "/>
<path style="fill:rgb(240, 42, 31);fill-opacity:1.0;fill-rule:evenodd;stroke:rgb(0, 0, 0);stroke-width:3.0;" d="M 765.498, 383.001 L 754.082, 380.643 L 756.902, 370.8 L 769.052, 367.79 z "/>
<path style="fill:rgb(240, 42, 31);fill-opacity:1.0;fill-rule:evenodd;stroke:rgb(0, 0, 0);stroke-width:3.0;" d="M 488.291, 473.588 L 448.026, 481.442 L 436.752, 476.521 L 448.264, 466.444 L 452.014, 465.78 z "/>
<path style="fill:rgb(240, 42, 31);fill-opacity:1.0;fill-rule:evenodd;stroke:rgb(0, 0, 0);stroke-width:3.0;" d="M 68.7392, 90.2113 L 31.9782, 108.538 L 37.3744, 85.5924 L 63.6737, 80.6944 z "/>
<path style="fill:rgb(102, 199, 18);fill-opacity:1.0;fill-rule:evenodd;stroke:rgb(0, 0, 0);stroke-width:3.0;" d="M 78.1146, 178.199 L 73.9585, 192.663 L 68.2223, 197.385 L 71.3258, 171.848 z "/>
<path style="fill:rgb(102, 199, 18);fill-opacity:1.0;fill-rule:evenodd;stroke:rgb(0, 0, 0);stroke-width:3.0;" d="M 58.9091, 167.543 L 59.0246, 170.792 L 56.5632, 176.292 L 53.9368, 178.699 L 48.0369, 177.527 L 51.428, 164.546 z "/>
<path style="fill:rgb(102, 199, 18);fill-opacity:1.0;fill-rule:evenodd;stroke:rgb(0, 0, 0);stroke-width:3.0;" d="M 18.6099, 300.684 L 17.0985, 324.244 L 6.85713, 303.977 L 6.6631, 267.017 L 10.5765, 265.6 z "/>
<path style="fill:rgb(102, 199, 18);fill-opacity:1.0;fill-rule:evenodd;stroke:rgb(0, 0, 0);stroke-width:3.0;" d="M 43.2278, 341.741 L 46.1923, 361.005 L 43.2561, 372.457 L 37.6462, 337.044 z "/>
<path style="fill:rgb(102, 199, 18);fill-opacity:1.0;fill-rule:evenodd;stroke:rgb(0, 0, 0);stroke-width:3.0;" d="M 389.989, 396.962 L 367.803, 447.655 L 287.368, 430.343 L 326.786, 385.994 z "/>
<path style="fill:rgb(102, 199, 18);fill-opacity:1.0;fill-rule:evenodd;stroke:rgb(0, 0, 0);stroke-width:3.0;" d="M 87.2884, 146.272 L 75.9121, 134.112 L 83.2506, 73.7292 L 110.654, 64.955 z "/>
<path style="fill:rgb(255, 249, 27);fill-opacity:1.0;fill-rule:evenodd;stroke:rgb(0, 0, 0);stroke-width:3.0;" d="M 45.3436, 385.635 L 42.8187, 406.411 L 22.5718, 317.987 L 34.0962, 314.634 z "/>
<path style="fill:rgb(255, 255, 9);fill-opacity:1.0;fill-rule:evenodd;stroke:rgb(0, 0, 0);stroke-width:3.0;" d="M 78.2216, 115.109 L 76.7506, 127.212 L 68.7619, 124.468 L 65.1148, 119.993 L 72.8102, 111.206 z "/>
<path style="fill:rgb(255, 255, 9);fill-opacity:1.0;fill-rule:evenodd;stroke:rgb(0, 0, 0);stroke-width:3.0;" d="M 554.305, 79.6295 L 549.499, 85.9212 L 540.973, 73.3395 L 551.985, 70.3116 z "/>
<path style="fill:rgb(255, 255, 9);fill-opacity:1.0;fill-rule:evenodd;stroke:rgb(0, 0, 0);stroke-width:3.0;" d="M 785.885, 425.077 L 786.381, 433.445 L 779.364, 438.33 L 767.263, 413.527 L 770.937, 410.214 z "/>
<path style="fill:rgb(182, 83, 255);fill-opacity:1.0;fill-rule:evenodd;stroke:rgb(0, 0, 0);stroke-width:3.0;" d="M 695.715, 268.229 L 700.67, 287.585 L 692.966, 289.74 L 684.737, 283.747 L 692.625, 265.544 z "/>
<path style="fill:rgb(182, 83, 255);fill-opacity:1.0;fill-rule:evenodd;stroke:rgb(0, 0, 0);stroke-width:3.0;" d="M 759.923, 278.004 L 747.381, 287.021 L 742.44, 283.801 L 755.537, 262.07 L 758.686, 261.999 z "/>
<path style="fill:rgb(159, 165, 246);fill-opacity:1.0;fill-rule:evenodd;stroke:rgb(0, 0, 0);stroke-width:3.0;" d="M 25.0373, 498.757 L 23.4276, 500.158 L 13.4578, 493.665 L 33.6492, 465.906 z "/>
<path style="fill:rgb(159, 165, 246);fill-opacity:1.0;fill-rule:evenodd;stroke:rgb(0, 0, 0);stroke-width:3.0;" d="M 608.676, 173.257 L 549.499, 85.9212 L 562.718, 68.6151 z "/>
<path style="fill:rgb(159, 165, 246);fill-opacity:1.0;fill-rule:evenodd;stroke:rgb(0, 0, 0);stroke-width:3.0;" d="M 623.239, 502.633 L 606.381, 499.005 L 620.738, 487.844 z "/>
<path style="fill:rgb(159, 165, 246);fill-opacity:1.0;fill-rule:evenodd;stroke:rgb(0, 0, 0);stroke-width:3.0;" d="M 282.915, 433.12 L 277.522, 451.155 L 270.592, 429.389 z "/>
<path style="fill:rgb(170, 74, 223);fill-opacity:1.0;fill-rule:evenodd;stroke:rgb(0, 0, 0);stroke-width:3.0;" d="M 448.026, 481.442 L 290.891, 512.094 L 276.8, 508.643 L 272.588, 497.53 L 423.646, 470.8 z "/>
<path style="fill:rgb(170, 74, 223);fill-opacity:1.0;fill-rule:evenodd;stroke:rgb(0, 0, 0);stroke-width:3.0;" d="M 240.247, 420.201 L 270.592, 429.389 L 273.234, 437.687 L 225.899, 417.113 z "/>
<path style="fill:rgb(228, 182, 17);fill-opacity:1.0;fill-rule:evenodd;stroke:rgb(0, 0, 0);stroke-width:3.0;" d="M 176.407, 359.899 L 182.808, 361.009 L 177.911, 378.109 L 169.895, 384.519 L 143.488, 361.626 L 154.429, 356.547 z "/>
<path style="fill:rgb(255, 246, 49);fill-opacity:1.0;fill-rule:evenodd;stroke:rgb(0, 0, 0);stroke-width:3.0;" d="M 16.6954, 495.774 L 24.2025, 527.072 L 5.44552, 504.681 L 13.4578, 493.665 z "/>
<path style="fill:rgb(60, 16, 234);fill-opacity:1.0;fill-rule:evenodd;stroke:rgb(0, 0, 0);stroke-width:3.0;" d="M 67.1381, 206.306 L 60.9696, 257.062 L 59.9427, 258.068 L 51.9454, 215.788 L 57.8664, 202.475 z "/>
<path style="fill:rgb(60, 16, 234);fill-opacity:1.0;fill-rule:evenodd;stroke:rgb(0, 0, 0);stroke-width:3.0;" d="M 13.8443, 514.707 L 11.0071, 544.542 L 6.63375, 506.099 z "/>
<path style="fill:rgb(255, 4, 59);fill-opacity:1.0;fill-rule:evenodd;stroke:rgb(0, 0, 0);stroke-width:3.0;" d="M 650.297, 508.457 L 511.909, 554.745 L 457.984, 544.846 L 406.558, 489.531 L 488.291, 473.588 z "/>
<path style="fill:rgb(255, 5, 76);fill-opacity:1.0;fill-rule:evenodd;stroke:rgb(0, 0, 0);stroke-width:3.0;" d="M 32.3713, 492.374 L 25.0373, 498.757 L 33.6492, 465.906 L 35.977, 462.706 z "/>
<path style="fill:rgb(148, 36, 255);fill-opacity:1.0;fill-rule:evenodd;stroke:rgb(0, 0, 0);stroke-width:3.0;" d="M 418.637, 458.596 L 290.506, 490.516 L 305.615, 434.271 z "/>
<path style="fill:rgb(100, 10, 255);fill-opacity:1.0;fill-rule:evenodd;stroke:rgb(0, 0, 0);stroke-width:3.0;" d="M 26.3856, 334.643 L 22.4708, 334.876 L 17.0985, 324.244 L 18.6099, 300.684 z "/>
<path style="fill:rgb(243, 246, 24);fill-opacity:1.0;fill-rule:evenodd;stroke:rgb(0, 0, 0);stroke-width:3.0;" d="M 419.471, 471.539 L 343.396, 485 L 347.475, 476.324 L 418.076, 458.736 z "/>
<path style="fill:rgb(243, 246, 24);fill-opacity:1.0;fill-rule:evenodd;stroke:rgb(0, 0, 0);stroke-width:3.0;" d="M 707.306, 357.655 L 707.949, 359.11 L 691.787, 360.852 L 687.703, 353.197 L 684.117, 345.033 L 687.421, 340.699 z "/>
<path style="fill:rgb(243, 246, 24);fill-opacity:1.0;fill-rule:evenodd;stroke:rgb(0, 0, 0);stroke-width:3.0;" d="M 302.396, 446.254 L 289.422, 494.551 L 258.451, 500.031 L 288.142, 431.659 z "/>
<path style="fill:rgb(243, 246, 24);fill-opacity:1.0;fill-rule:evenodd;stroke:rgb(0, 0, 0);stroke-width:3.0;" d="M 691.99, 264.993 L 669.617, 272.38 L 665.955, 264.095 L 690.323, 263.544 z "/>
<path style="fill:rgb(243, 246, 24);fill-opacity:1.0;fill-rule:evenodd;stroke:rgb(0, 0, 0);stroke-width:3.0;" d="M 70.9724, 94.4069 L 50.1934, 105.722 L 46.167, 104.162 L 58.4593, 95.3361 L 68.7392, 90.2113 z "/>
<path style="fill:rgb(255, 15, 13);fill-opacity:1.0;fill-rule:evenodd;stroke:rgb(0, 0, 0);stroke-width:3.0;" d="M 707.226, 366.594 L 713.615, 373.56 L 714.638, 375.204 L 714.756, 384.032 L 705.593, 380.433 L 701.77, 367.477 L 702.57, 366.576 z "/>
<path style="fill:rgb(255, 15, 13);fill-opacity:1.0;fill-rule:evenodd;stroke:rgb(0, 0, 0);stroke-width:3.0;" d="M 538.188, 422.679 L 546.42, 486.099 L 464.96, 468.566 L 377.048, 426.531 L 389.989, 396.962 z "/>
<path style="fill:rgb(255, 15, 13);fill-opacity:1.0;fill-rule:evenodd;stroke:rgb(0, 0, 0);stroke-width:3.0;" d="M 39.3911, 434.614 L 35.977, 462.706 L 16.923, 488.901 L 25.9814, 427.989 z "/>
<path style="fill:rgb(255, 15, 13);fill-opacity:1.0;fill-rule:evenodd;stroke:rgb(0, 0, 0);stroke-width:3.0;" d="M 36.7468, 170.376 L 33.8588, 171.134 L 30.7379, 168.589 L 40.6758, 150.745 L 47.0699, 149.383 z "/>
<path style="fill:rgb(255, 13, 54);fill-opacity:1.0;fill-rule:evenodd;stroke:rgb(0, 0, 0);stroke-width:3.0;" d="M 57.5529, 285.175 L 47.5519, 297.599 L 36.4639, 281.083 L 60.9696, 257.062 z "/>
<path style="fill:rgb(255, 13, 54);fill-opacity:1.0;fill-rule:evenodd;stroke:rgb(0, 0, 0);stroke-width:3.0;" d="M 273.116, 466.26 L 268.982, 475.781 L 24.2894, 558.874 L 46.0406, 379.9 z "/>
<path style="fill:rgb(255, 13, 54);fill-opacity:1.0;fill-rule:evenodd;stroke:rgb(0, 0, 0);stroke-width:3.0;" d="M 614.623, 492.598 L 606.381, 499.005 L 602.613, 498.194 L 601.992, 491.107 L 610.504, 480.345 z "/>
<path style="fill:rgb(255, 13, 54);fill-opacity:1.0;fill-rule:evenodd;stroke:rgb(0, 0, 0);stroke-width:3.0;" d="M 643.258, 506.942 L 623.239, 502.633 L 620.738, 487.844 L 621.939, 486.911 z "/>
<path style="fill:rgb(255, 13, 54);fill-opacity:1.0;fill-rule:evenodd;stroke:rgb(0, 0, 0);stroke-width:3.0;" d="M 85.6266, 144.496 L 72.1463, 165.097 L 75.9121, 134.112 z "/>
<path style="fill:rgb(207, 220, 24);fill-opacity:1.0;fill-rule:evenodd;stroke:rgb(0, 0, 0);stroke-width:3.0;" d="M 47.3906, 368.792 L 38.8439, 313.253 L 54.7011, 308.64 z "/>
<path style="fill:rgb(255, 11, 70);fill-opacity:1.0;fill-rule:evenodd;stroke:rgb(0, 0, 0);stroke-width:3.0;" d="M 272.481, 437.36 L 268.876, 448.255 L 251.818, 436.678 L 258.346, 431.216 z "/>
<path style="fill:rgb(124, 209, 42);fill-opacity:1.0;fill-rule:evenodd;stroke:rgb(0, 0, 0);stroke-width:3.0;" d="M 368.011, 528.33 L 324.775, 520.393 L 290.891, 512.094 L 359.593, 498.692 z "/>
<path style="fill:rgb(124, 209, 42);fill-opacity:1.0;fill-rule:evenodd;stroke:rgb(0, 0, 0);stroke-width:3.0;" d="M 225.899, 417.113 L 258.346, 431.216 L 251.818, 436.678 L 221.642, 416.197 z "/>
<path style="fill:rgb(255, 19, 6);fill-opacity:1.0;fill-rule:evenodd;stroke:rgb(0, 0, 0);stroke-width:3.0;" d="M 727.145, 310.197 L 706.265, 329.512 L 698.804, 325.469 L 714.376, 286.317 z "/>
<path style="fill:rgb(255, 19, 6);fill-opacity:1.0;fill-rule:evenodd;stroke:rgb(0, 0, 0);stroke-width:3.0;" d="M 767.408, 424.527 L 774.573, 438.762 L 775.096, 457.198 L 772.668, 457.403 L 759.756, 449.225 L 753.03, 426.362 L 758.859, 421.106 z "/>
<path style="fill:rgb(130, 0, 212);fill-opacity:1.0;fill-rule:evenodd;stroke:rgb(0, 0, 0);stroke-width:3.0;" d="M 557.058, 425.954 L 612.399, 477.949 L 597.293, 497.049 L 595.012, 496.558 L 552.288, 425.126 z "/>
<path style="fill:rgb(204, 43, 8);fill-opacity:1.0;fill-rule:evenodd;stroke:rgb(0, 0, 0);stroke-width:3.0;" d="M 140.854, 398.809 L 95.8788, 389.129 L 132.437, 364.244 z "/>
<path style="fill:rgb(255, 7, 38);fill-opacity:1.0;fill-rule:evenodd;stroke:rgb(0, 0, 0);stroke-width:3.0;" d="M 129.392, 351.74 L 132.437, 364.244 L 95.8788, 389.129 L 46.218, 378.441 L 51.1139, 338.156 z "/>
<path style="fill:rgb(69, 231, 255);fill-opacity:1.0;fill-rule:evenodd;stroke:rgb(0, 0, 0);stroke-width:3.0;" d="M 61.7079, 193.837 L 58.6405, 200.735 L 29.016, 200.233 L 29.008, 167.179 z "/>
<path style="fill:rgb(234, 255, 14);fill-opacity:1.0;fill-rule:evenodd;stroke:rgb(0, 0, 0);stroke-width:3.0;" d="M 772.036, 355.014 L 769.052, 367.79 L 746.746, 373.316 L 749.593, 359.967 L 757.4, 348.324 z "/>
<path style="fill:rgb(240, 13, 11);fill-opacity:1.0;fill-rule:evenodd;stroke:rgb(0, 0, 0);stroke-width:3.0;" d="M 343.396, 485 L 289.422, 494.551 L 290.506, 490.516 L 347.475, 476.324 z "/>
<path style="fill:rgb(17, 56, 249);fill-opacity:1.0;fill-rule:evenodd;stroke:rgb(0, 0, 0);stroke-width:3.0;" d="M 560.373, 63.2747 L 540.416, 72.517 L 518.253, 39.8076 L 536.435, 8.76998 z "/>
<path style="fill:rgb(11, 172, 255);fill-opacity:1.0;fill-rule:evenodd;stroke:rgb(0, 0, 0);stroke-width:3.0;" d="M 552.288, 425.126 L 595.012, 496.558 L 546.42, 486.099 L 538.188, 422.679 z "/>
<path style="fill:rgb(94, 89, 255);fill-opacity:1.0;fill-rule:evenodd;stroke:rgb(0, 0, 0);stroke-width:3.0;" d="M 457.984, 544.846 L 368.011, 528.33 L 359.593, 498.692 L 406.558, 489.531 z "/>
<path style="fill:rgb(255, 240, 15);fill-opacity:1.0;fill-rule:evenodd;stroke:rgb(0, 0, 0);stroke-width:3.0;" d="M 77.9606, 178.055 L 71.3258, 171.848 L 72.1463, 165.097 L 80.5238, 152.294 z "/>
<path style="fill:rgb(31, 124, 255);fill-opacity:1.0;fill-rule:evenodd;stroke:rgb(0, 0, 0);stroke-width:3.0;" d="M 425.44, 460.061 L 367.803, 447.655 L 371.072, 440.186 z "/>
<path style="fill:rgb(255, 204, 163);fill-opacity:1.0;fill-rule:evenodd;stroke:rgb(0, 0, 0);stroke-width:3.0;" d="M 464.96, 468.566 L 425.44, 460.061 L 371.072, 440.186 L 377.048, 426.531 z "/>
<path style="fill:rgb(217, 255, 10);fill-opacity:1.0;fill-rule:evenodd;stroke:rgb(0, 0, 0);stroke-width:3.0;" d="M 452.014, 465.78 L 420.454, 471.365 L 420.999, 459.105 z "/>
<path style="fill:rgb(255, 28, 15);fill-opacity:1.0;fill-rule:evenodd;stroke:rgb(0, 0, 0);stroke-width:3.0;" d="M 30.8388, 504.984 L 28.8556, 521.302 L 19.5255, 507.573 L 16.6954, 495.774 z "/>
<path style="fill:rgb(140, 15, 184);fill-opacity:1.0;fill-rule:evenodd;stroke:rgb(0, 0, 0);stroke-width:3.0;" d="M 765.498, 383.001 L 759.911, 406.916 L 752.473, 397.348 L 750.62, 392.726 L 754.082, 380.643 z "/>
<path style="fill:rgb(255, 24, 9);fill-opacity:1.0;fill-rule:evenodd;stroke:rgb(0, 0, 0);stroke-width:3.0;" d="M 54.7414, 308.308 L 54.7011, 308.64 L 34.1444, 314.62 L 28.1058, 313.136 L 22.7739, 303.164 L 26.9504, 282.233 L 33.9856, 277.392 z "/>
<path style="fill:rgb(255, 24, 9);fill-opacity:1.0;fill-rule:evenodd;stroke:rgb(0, 0, 0);stroke-width:3.0;" d="M 784.344, 360.266 L 764.972, 351.495 L 789.065, 348.255 z "/>
<path style="fill:rgb(255, 19, 9);fill-opacity:1.0;fill-rule:evenodd;stroke:rgb(0, 0, 0);stroke-width:3.0;" d="M 54.9488, 200.672 L 57.9799, 202.22 L 42.4786, 237.075 L 41.4877, 236.704 L 52.6323, 200.633 z "/>
<path style="fill:rgb(255, 215, 27);fill-opacity:1.0;fill-rule:evenodd;stroke:rgb(0, 0, 0);stroke-width:3.0;" d="M 727.514, 310.887 L 719.191, 336.514 L 706.265, 329.512 L 727.145, 310.197 z "/>
<path style="fill:rgb(255, 215, 27);fill-opacity:1.0;fill-rule:evenodd;stroke:rgb(0, 0, 0);stroke-width:3.0;" d="M 201.394, 438.983 L 159.119, 422.906 L 171.158, 417.528 z "/>
<path style="fill:rgb(157, 168, 252);fill-opacity:1.0;fill-rule:evenodd;stroke:rgb(0, 0, 0);stroke-width:3.0;" d="M 146.487, 400.022 L 171.158, 417.528 L 159.119, 422.906 L 46.0406, 379.9 L 46.218, 378.441 z "/>
<path style="fill:rgb(226, 22, 108);fill-opacity:1.0;fill-rule:evenodd;stroke:rgb(0, 0, 0);stroke-width:3.0;" d="M 758.512, 412.417 L 753.594, 414.755 L 741.942, 395.845 L 745.39, 379.676 z "/>
<path style="fill:rgb(255, 33, 255);fill-opacity:1.0;fill-rule:evenodd;stroke:rgb(0, 0, 0);stroke-width:3.0;" d="M 749.582, 288.455 L 737.2, 302.692 L 736.589, 286.808 L 737.938, 280.867 z "/>
<path style="fill:rgb(255, 8, 212);fill-opacity:1.0;fill-rule:evenodd;stroke:rgb(0, 0, 0);stroke-width:3.0;" d="M 305.615, 434.271 L 302.396, 446.254 L 288.142, 431.659 L 288.598, 430.608 z "/>
<path style="fill:rgb(255, 19, 123);fill-opacity:1.0;fill-rule:evenodd;stroke:rgb(0, 0, 0);stroke-width:3.0;" d="M 215.844, 366.742 L 185.262, 408.367 L 149.657, 400.704 L 196.353, 363.36 z "/>
<path style="fill:rgb(255, 19, 123);fill-opacity:1.0;fill-rule:evenodd;stroke:rgb(0, 0, 0);stroke-width:3.0;" d="M 679.378, 294.465 L 694.172, 327.938 L 682.401, 334.951 L 675.12, 324.547 L 666.582, 305.106 L 662.914, 280.11 z "/>
<path style="fill:rgb(255, 16, 103);fill-opacity:1.0;fill-rule:evenodd;stroke:rgb(0, 0, 0);stroke-width:3.0;" d="M 692.625, 265.544 L 688.707, 274.584 L 672.165, 274.59 L 669.847, 272.902 L 669.617, 272.38 L 691.99, 264.993 z "/>
<path style="fill:rgb(30, 255, 165);fill-opacity:1.0;fill-rule:evenodd;stroke:rgb(0, 0, 0);stroke-width:3.0;" d="M 278.19, 454.577 L 273.116, 466.26 L 265.148, 463.23 L 269.93, 448.971 z "/>
<path style="fill:rgb(255, 182, 11);fill-opacity:1.0;fill-rule:evenodd;stroke:rgb(0, 0, 0);stroke-width:3.0;" d="M 221.642, 416.197 L 269.93, 448.971 L 265.148, 463.23 L 201.394, 438.983 L 146.487, 400.022 z "/>
<path style="fill:rgb(252, 165, 30);fill-opacity:1.0;fill-rule:evenodd;stroke:rgb(0, 0, 0);stroke-width:3.0;" d="M 65.8914, 107.419 L 51.1832, 118.429 L 46.6093, 116.857 L 64.0177, 101.552 z "/>
<path style="fill:rgb(255, 24, 215);fill-opacity:1.0;fill-rule:evenodd;stroke:rgb(0, 0, 0);stroke-width:3.0;" d="M 751.494, 411.346 L 737.15, 418.319 L 741.942, 395.845 z "/>
<path style="fill:rgb(255, 165, 44);fill-opacity:1.0;fill-rule:evenodd;stroke:rgb(0, 0, 0);stroke-width:3.0;" d="M 39.3911, 434.614 L 25.9814, 427.989 L 26.1345, 426.959 L 41.3784, 418.262 z "/>
<path style="fill:rgb(255, 0, 228);fill-opacity:1.0;fill-rule:evenodd;stroke:rgb(0, 0, 0);stroke-width:3.0;" d="M 757.049, 440.022 L 759.756, 449.225 L 740.914, 437.289 L 749.066, 429.938 z "/>
<path style="fill:rgb(14, 50, 240);fill-opacity:1.0;fill-rule:evenodd;stroke:rgb(0, 0, 0);stroke-width:3.0;" d="M 59.9427, 258.068 L 36.4639, 281.083 L 28.3088, 268.936 L 51.9454, 215.788 z "/>
<path style="fill:rgb(249, 243, 7);fill-opacity:1.0;fill-rule:evenodd;stroke:rgb(0, 0, 0);stroke-width:3.0;" d="M 575.761, 429.199 L 582.617, 432.431 L 579.909, 444.878 L 577.042, 444.729 L 575.011, 442.821 L 567.943, 427.842 z "/>
<path style="fill:rgb(255, 189, 46);fill-opacity:1.0;fill-rule:evenodd;stroke:rgb(0, 0, 0);stroke-width:3.0;" d="M 760.05, 261.499 L 758.58, 262.001 L 673.861, 263.917 L 766.581, 183.451 z "/>
<path style="fill:rgb(10, 240, 226);fill-opacity:1.0;fill-rule:evenodd;stroke:rgb(0, 0, 0);stroke-width:3.0;" d="M 402.012, 539.312 L 423.375, 571.427 L 337.034, 523.396 z "/>
<path style="fill:rgb(255, 255, 24);fill-opacity:1.0;fill-rule:evenodd;stroke:rgb(0, 0, 0);stroke-width:3.0;" d="M 747.147, 306.384 L 747.044, 309.44 L 728.106, 313.148 L 732.855, 307.687 L 738.684, 302.026 z "/>
<path style="fill:rgb(55, 89, 255);fill-opacity:1.0;fill-rule:evenodd;stroke:rgb(0, 0, 0);stroke-width:3.0;" d="M 697.312, 304.163 L 703.768, 312.989 L 701.788, 317.966 L 698.1, 317.407 L 687.31, 312.413 L 681.372, 298.978 L 683.851, 298.63 z "/>
<path style="fill:rgb(255, 1, 170);fill-opacity:1.0;fill-rule:evenodd;stroke:rgb(0, 0, 0);stroke-width:3.0;" d="M 326.786, 385.994 L 287.368, 430.343 L 185.262, 408.367 L 215.844, 366.742 z "/>
<path style="fill:rgb(187, 0, 30);fill-opacity:1.0;fill-rule:evenodd;stroke:rgb(0, 0, 0);stroke-width:3.0;" d="M 17.6957, 325.426 L 11.6279, 335.52 L 7.02416, 335.793 L 6.94352, 320.433 L 14.4531, 319.009 z "/>
</svg>