<?xml version="1.0" encoding="iso-8859-1" standalone="no"?>
<!DOCTYPE svg PUBLIC "-//W3C//DTD SVG 1.0//EN" "http://www.w3.org/TR/2001/REC-SVG-20010904/DTD/svg10.dtd">
<svg xmlns="http://www.w3.org/2000/svg" width="800" height="600">
<path style="fill:rgb(0, 0, 0);fill-opacity:0.0;fill-rule:evenodd;stroke:rgb(0, 0, 0);stroke-width:0.0;" d="M 0, 600 L 800, 600 L 800, 0 L 0, 0 z "/>
<path style="fill:rgb(217, 255, 10);fill-opacity:1.0;fill-rule:evenodd;stroke:rgb(0, 0, 0);stroke-width:3.0;" d="M 773.218, 435.082 L 745.364, 457.564 L 748.277, 442.986 L 767.685, 432.181 z "/>
<path style="fill:rgb(217, 255, 10);fill-opacity:1.0;fill-rule:evenodd;stroke:rgb(0, 0, 0);stroke-width:3.0;" d="M 722.407, 245.838 L 734.419, 270.289 L 732.02, 290.56 L 728.325, 287.984 L 716.246, 241.384 z "/>
<path style="fill:rgb(246, 246, 12);fill-opacity:1.0;fill-rule:evenodd;stroke:rgb(0, 0, 0);stroke-width:3.0;" d="M 773.666, 458.961 L 767.067, 465.843 L 729.938, 460.059 L 766.246, 454.763 z "/>
<path style="fill:rgb(255, 140, 9);fill-opacity:1.0;fill-rule:evenodd;stroke:rgb(0, 0, 0);stroke-width:3.0;" d="M 369.651, 45.4911 L 371.85, 52.2199 L 363.925, 53.3928 L 356.837, 49.6375 L 353.303, 47.2114 L 358.604, 43.2283 z "/>
<path style="fill:rgb(255, 108, 19);fill-opacity:1.0;fill-rule:evenodd;stroke:rgb(0, 0, 0);stroke-width:3.0;" d="M 766.389, 170.134 L 759.068, 179.598 L 754.286, 174.886 L 753.806, 170.728 L 753.834, 155.529 L 760.676, 150.762 z "/>
<path style="fill:rgb(255, 108, 19);fill-opacity:1.0;fill-rule:evenodd;stroke:rgb(0, 0, 0);stroke-width:3.0;" d="M 696.968, 487.629 L 683.861, 513.35 L 681.062, 509.755 L 679.212, 478.902 z "/>
<path style="fill:rgb(255, 108, 19);fill-opacity:1.0;fill-rule:evenodd;stroke:rgb(0, 0, 0);stroke-width:3.0;" d="M 665.265, 172.223 L 663.317, 178.323 L 637.491, 171.343 L 637.231, 166.728 L 651.166, 151.218 z "/>
<path style="fill:rgb(100, 9, 255);fill-opacity:1.0;fill-rule:evenodd;stroke:rgb(0, 0, 0);stroke-width:3.0;" d="M 523.738, 145.348 L 567.853, 176.105 L 534.765, 161.731 L 520.323, 143.642 z "/>
<path style="fill:rgb(255, 48, 21);fill-opacity:1.0;fill-rule:evenodd;stroke:rgb(0, 0, 0);stroke-width:3.0;" d="M 637.652, 174.213 L 624.551, 201.039 L 628.657, 163.218 L 636.251, 149.272 z "/>
<path style="fill:rgb(255, 48, 21);fill-opacity:1.0;fill-rule:evenodd;stroke:rgb(0, 0, 0);stroke-width:3.0;" d="M 520.323, 143.642 L 523.246, 147.303 L 515.72, 151.583 L 506.827, 144.619 L 506.226, 136.601 z "/>
<path style="fill:rgb(255, 48, 21);fill-opacity:1.0;fill-rule:evenodd;stroke:rgb(0, 0, 0);stroke-width:3.0;" d="M 777.42, 153.729 L 780.823, 159.156 L 777.542, 191.303 L 769.2, 186.57 L 766.251, 150.475 z "/>
<path style="fill:rgb(255, 48, 21);fill-opacity:1.0;fill-rule:evenodd;stroke:rgb(0, 0, 0);stroke-width:3.0;" d="M 764.883, 133.737 L 768.42, 177.023 L 754.029, 128.219 L 757.974, 122.719 z "/>
<path style="fill:rgb(123, 255, 91);fill-opacity:1.0;fill-rule:evenodd;stroke:rgb(0, 0, 0);stroke-width:3.0;" d="M 624.682, 398.376 L 614.785, 412.3 L 613.545, 412.16 L 605.15, 410.303 L 597.254, 401.344 L 624.669, 398.368 z "/>
<path style="fill:rgb(123, 255, 91);fill-opacity:1.0;fill-rule:evenodd;stroke:rgb(0, 0, 0);stroke-width:3.0;" d="M 628.039, 168.911 L 619.946, 183.81 L 620.547, 154.669 L 631.182, 139.959 z "/>
<path style="fill:rgb(123, 255, 91);fill-opacity:1.0;fill-rule:evenodd;stroke:rgb(0, 0, 0);stroke-width:3.0;" d="M 707.645, 88.3546 L 704.581, 91.7654 L 668.474, 116.504 L 655.001, 115.9 L 705.088, 83.4447 z "/>
<path style="fill:rgb(255, 234, 16);fill-opacity:1.0;fill-rule:evenodd;stroke:rgb(0, 0, 0);stroke-width:3.0;" d="M 507.337, 149.816 L 468.329, 181.997 L 469.953, 133.576 z "/>
<path style="fill:rgb(255, 234, 16);fill-opacity:1.0;fill-rule:evenodd;stroke:rgb(0, 0, 0);stroke-width:3.0;" d="M 708.157, 167.222 L 693.5, 176.38 L 686.762, 169.95 L 687.397, 168.998 L 701.766, 160.307 z "/>
<path style="fill:rgb(255, 234, 16);fill-opacity:1.0;fill-rule:evenodd;stroke:rgb(0, 0, 0);stroke-width:3.0;" d="M 760.686, 410.885 L 766.172, 425.719 L 747.967, 432.029 L 735.587, 423.132 L 758.722, 410.668 z "/>
<path style="fill:rgb(255, 234, 16);fill-opacity:1.0;fill-rule:evenodd;stroke:rgb(0, 0, 0);stroke-width:3.0;" d="M 725.279, 406.978 L 693.744, 423.275 L 662.188, 402.395 L 663.869, 400.202 z "/>
<path style="fill:rgb(255, 7, 7);fill-opacity:1.0;fill-rule:evenodd;stroke:rgb(0, 0, 0);stroke-width:3.0;" d="M 342.075, 54.6037 L 334.369, 62.4513 L 333.195, 62.8745 L 320.316, 46.3301 L 320.962, 44.0573 z "/>
<path style="fill:rgb(255, 7, 7);fill-opacity:1.0;fill-rule:evenodd;stroke:rgb(0, 0, 0);stroke-width:3.0;" d="M 536.515, 279.12 L 537.805, 262.218 L 552.488, 257.935 z "/>
<path style="fill:rgb(255, 7, 7);fill-opacity:1.0;fill-rule:evenodd;stroke:rgb(0, 0, 0);stroke-width:3.0;" d="M 780.121, 34.8255 L 768.901, 42.0959 L 770.224, 20.4619 z "/>
<path style="fill:rgb(217, 57, 246);fill-opacity:1.0;fill-rule:evenodd;stroke:rgb(0, 0, 0);stroke-width:3.0;" d="M 758.722, 410.668 L 666.959, 460.104 L 647.627, 466.804 L 636.693, 452.758 L 725.279, 406.978 z "/>
<path style="fill:rgb(220, 3, 9);fill-opacity:1.0;fill-rule:evenodd;stroke:rgb(0, 0, 0);stroke-width:3.0;" d="M 601.458, 291.097 L 619.528, 395.31 L 589.385, 391.984 L 519.301, 301.952 L 538.085, 277.038 z "/>
<path style="fill:rgb(255, 8, 18);fill-opacity:1.0;fill-rule:evenodd;stroke:rgb(0, 0, 0);stroke-width:3.0;" d="M 721.328, 279.227 L 719.084, 281.541 L 712.593, 277.016 L 709.836, 271.812 L 721.635, 265.787 z "/>
<path style="fill:rgb(255, 8, 18);fill-opacity:1.0;fill-rule:evenodd;stroke:rgb(0, 0, 0);stroke-width:3.0;" d="M 791.574, 496.634 L 793.547, 506.074 L 786.942, 507.015 L 779.538, 499.088 L 788.661, 494.567 z "/>
<path style="fill:rgb(255, 8, 18);fill-opacity:1.0;fill-rule:evenodd;stroke:rgb(0, 0, 0);stroke-width:3.0;" d="M 473.567, 223.641 L 473.163, 226.647 L 466.189, 233.723 L 456.26, 220.967 L 455.8, 220.01 L 472.911, 218.513 z "/>
<path style="fill:rgb(255, 8, 18);fill-opacity:1.0;fill-rule:evenodd;stroke:rgb(0, 0, 0);stroke-width:3.0;" d="M 702.475, 159.878 L 687.397, 168.998 L 749.839, 75.4252 L 751.334, 75.0845 z "/>
<path style="fill:rgb(255, 8, 18);fill-opacity:1.0;fill-rule:evenodd;stroke:rgb(0, 0, 0);stroke-width:3.0;" d="M 658.318, 187.796 L 658.178, 193.778 L 639.449, 206.201 L 637.554, 172.468 z "/>
<path style="fill:rgb(255, 8, 18);fill-opacity:1.0;fill-rule:evenodd;stroke:rgb(0, 0, 0);stroke-width:3.0;" d="M 769.91, 430.942 L 718.655, 459.479 L 716.268, 443.015 L 766.612, 425.567 z "/>
<path style="fill:rgb(252, 40, 14);fill-opacity:1.0;fill-rule:evenodd;stroke:rgb(0, 0, 0);stroke-width:3.0;" d="M 468.329, 181.997 L 454.876, 193.096 L 457.681, 168.443 L 469.062, 160.126 z "/>
<path style="fill:rgb(252, 40, 14);fill-opacity:1.0;fill-rule:evenodd;stroke:rgb(0, 0, 0);stroke-width:3.0;" d="M 272.52, 32.0232 L 219.811, 45.1559 L 167.646, 22.8188 z "/>
<path style="fill:rgb(252, 40, 14);fill-opacity:1.0;fill-rule:evenodd;stroke:rgb(0, 0, 0);stroke-width:3.0;" d="M 349.993, 24.2151 L 341.499, 25.564 L 327.32, 18.4111 L 326.794, 17.5147 L 338.989, 16.5434 z "/>
<path style="fill:rgb(11, 75, 231);fill-opacity:1.0;fill-rule:evenodd;stroke:rgb(0, 0, 0);stroke-width:3.0;" d="M 751.995, 72.194 L 663.308, 205.097 L 685.027, 113.529 L 721.766, 72.6378 L 730, 67.3021 z "/>
<path style="fill:rgb(47, 255, 179);fill-opacity:1.0;fill-rule:evenodd;stroke:rgb(0, 0, 0);stroke-width:3.0;" d="M 552.745, 237.076 L 553.148, 248.083 L 538.207, 256.952 L 540.951, 221.006 L 542.202, 219.882 z "/>
<path style="fill:rgb(47, 255, 179);fill-opacity:1.0;fill-rule:evenodd;stroke:rgb(0, 0, 0);stroke-width:3.0;" d="M 624.551, 201.039 L 619.372, 211.642 L 619.91, 185.556 L 627.265, 176.041 z "/>
<path style="fill:rgb(47, 255, 179);fill-opacity:1.0;fill-rule:evenodd;stroke:rgb(0, 0, 0);stroke-width:3.0;" d="M 792.111, 307.973 L 785.748, 328.019 L 770.735, 317.552 L 768.153, 295.16 L 773.411, 292.016 z "/>
<path style="fill:rgb(47, 255, 179);fill-opacity:1.0;fill-rule:evenodd;stroke:rgb(0, 0, 0);stroke-width:3.0;" d="M 297.569, 21.4065 L 286.188, 33.2229 L 280.775, 32.7478 L 276.322, 11.6535 z "/>
<path style="fill:rgb(255, 255, 32);fill-opacity:1.0;fill-rule:evenodd;stroke:rgb(0, 0, 0);stroke-width:3.0;" d="M 653.003, 414.378 L 651.428, 416.431 L 614.785, 412.3 L 624.682, 398.376 z "/>
<path style="fill:rgb(25, 246, 255);fill-opacity:1.0;fill-rule:evenodd;stroke:rgb(0, 0, 0);stroke-width:3.0;" d="M 766.908, 483.495 L 684.938, 514.735 L 683.861, 513.35 L 703.41, 474.989 z "/>
<path style="fill:rgb(25, 246, 255);fill-opacity:1.0;fill-rule:evenodd;stroke:rgb(0, 0, 0);stroke-width:3.0;" d="M 442.452, 91.8341 L 440.179, 99.0399 L 428.903, 97.9764 L 419.495, 93.2766 L 415.781, 80.3604 z "/>
<path style="fill:rgb(25, 246, 255);fill-opacity:1.0;fill-rule:evenodd;stroke:rgb(0, 0, 0);stroke-width:3.0;" d="M 469.953, 133.576 L 469.255, 154.401 L 458.357, 162.495 L 462.038, 130.138 z "/>
<path style="fill:rgb(255, 29, 29);fill-opacity:1.0;fill-rule:evenodd;stroke:rgb(0, 0, 0);stroke-width:3.0;" d="M 782.228, 161.398 L 785.237, 187.564 L 777.379, 192.902 L 780.823, 159.156 z "/>
<path style="fill:rgb(17, 255, 35);fill-opacity:1.0;fill-rule:evenodd;stroke:rgb(0, 0, 0);stroke-width:3.0;" d="M 349.802, 38.7785 L 343.495, 40.1333 L 319.071, 35.1305 L 322.124, 31.2012 L 334.073, 26.2826 z "/>
<path style="fill:rgb(22, 32, 255);fill-opacity:1.0;fill-rule:evenodd;stroke:rgb(0, 0, 0);stroke-width:3.0;" d="M 717.115, 161.626 L 708.157, 167.222 L 701.766, 160.307 L 736.006, 139.597 z "/>
<path style="fill:rgb(22, 32, 255);fill-opacity:1.0;fill-rule:evenodd;stroke:rgb(0, 0, 0);stroke-width:3.0;" d="M 326.564, 54.3567 L 317.692, 69.3662 L 315.217, 72.9077 L 305.505, 69.0449 L 304.535, 68.0792 L 324.211, 51.3339 z "/>
<path style="fill:rgb(255, 37, 6);fill-opacity:1.0;fill-rule:evenodd;stroke:rgb(0, 0, 0);stroke-width:3.0;" d="M 777.542, 191.303 L 777.383, 192.865 L 775.573, 205.672 L 771.14, 210.317 L 769.2, 186.57 z "/>
<path style="fill:rgb(67, 228, 255);fill-opacity:1.0;fill-rule:evenodd;stroke:rgb(0, 0, 0);stroke-width:3.0;" d="M 748.269, 153.212 L 706.436, 188.727 L 699.528, 182.134 L 736.006, 139.597 L 750.949, 130.559 z "/>
<path style="fill:rgb(67, 228, 255);fill-opacity:1.0;fill-rule:evenodd;stroke:rgb(0, 0, 0);stroke-width:3.0;" d="M 545.896, 166.567 L 546.343, 213.295 L 541.524, 213.504 L 545.132, 166.235 z "/>
<path style="fill:rgb(67, 228, 255);fill-opacity:1.0;fill-rule:evenodd;stroke:rgb(0, 0, 0);stroke-width:3.0;" d="M 592.583, 193.346 L 574.698, 180.877 L 614.897, 162.484 z "/>
<path style="fill:rgb(67, 228, 255);fill-opacity:1.0;fill-rule:evenodd;stroke:rgb(0, 0, 0);stroke-width:3.0;" d="M 658.571, 177.041 L 658.318, 187.796 L 637.554, 172.468 L 637.491, 171.343 z "/>
<path style="fill:rgb(67, 228, 255);fill-opacity:1.0;fill-rule:evenodd;stroke:rgb(0, 0, 0);stroke-width:3.0;" d="M 769.467, 189.842 L 769.671, 192.327 L 757.471, 202.509 L 754.286, 174.886 z "/>
<path style="fill:rgb(246, 17, 70);fill-opacity:1.0;fill-rule:evenodd;stroke:rgb(0, 0, 0);stroke-width:3.0;" d="M 458.647, 128.665 L 461.798, 132.25 L 454.876, 193.096 L 442.507, 203.3 L 346.477, 79.9367 z "/>
<path style="fill:rgb(35, 23, 255);fill-opacity:1.0;fill-rule:evenodd;stroke:rgb(0, 0, 0);stroke-width:3.0;" d="M 689.783, 420.654 L 687.773, 421.272 L 663.489, 410.253 L 661.761, 402.951 L 662.188, 402.395 z "/>
<path style="fill:rgb(94, 94, 255);fill-opacity:1.0;fill-rule:evenodd;stroke:rgb(0, 0, 0);stroke-width:3.0;" d="M 767.952, 80.9697 L 779.379, 98.4205 L 760.256, 123.758 L 754.262, 102.56 L 756.769, 81.3723 L 758.474, 79.5459 z "/>
<path style="fill:rgb(255, 240, 12);fill-opacity:1.0;fill-rule:evenodd;stroke:rgb(0, 0, 0);stroke-width:3.0;" d="M 749.955, 571.853 L 745.398, 592.403 L 684.938, 514.735 L 713.973, 503.669 L 750.183, 497.43 z "/>
<path style="fill:rgb(255, 240, 12);fill-opacity:1.0;fill-rule:evenodd;stroke:rgb(0, 0, 0);stroke-width:3.0;" d="M 734.718, 220.395 L 738.332, 225.471 L 729.059, 236.573 L 721.616, 236.068 L 728.127, 214.029 z "/>
<path style="fill:rgb(255, 249, 13);fill-opacity:1.0;fill-rule:evenodd;stroke:rgb(0, 0, 0);stroke-width:3.0;" d="M 471.79, 182.991 L 472.348, 193.584 L 465.092, 197.617 L 458.228, 193.663 L 460.158, 188.738 L 468.657, 181.727 z "/>
<path style="fill:rgb(255, 249, 13);fill-opacity:1.0;fill-rule:evenodd;stroke:rgb(0, 0, 0);stroke-width:3.0;" d="M 743.869, 190.411 L 743.099, 196.919 L 733.455, 199.66 L 729.072, 197.779 L 740.449, 182.733 z "/>
<path style="fill:rgb(255, 16, 16);fill-opacity:1.0;fill-rule:evenodd;stroke:rgb(0, 0, 0);stroke-width:3.0;" d="M 664.554, 414.755 L 650.451, 424.987 L 642.314, 429.829 L 641.718, 429.1 L 648.299, 420.514 L 663.598, 410.713 z "/>
<path style="fill:rgb(255, 16, 16);fill-opacity:1.0;fill-rule:evenodd;stroke:rgb(0, 0, 0);stroke-width:3.0;" d="M 496.835, 246.981 L 481.02, 252.775 L 466.189, 233.723 L 485.163, 214.47 z "/>
<path style="fill:rgb(255, 31, 6);fill-opacity:1.0;fill-rule:evenodd;stroke:rgb(0, 0, 0);stroke-width:3.0;" d="M 510.019, 150.981 L 496.962, 168.105 L 492.211, 164.761 L 491.159, 163.163 L 507.337, 149.816 z "/>
<path style="fill:rgb(255, 31, 6);fill-opacity:1.0;fill-rule:evenodd;stroke:rgb(0, 0, 0);stroke-width:3.0;" d="M 738.001, 479.623 L 678.779, 471.689 L 678.531, 467.556 L 729.505, 460.122 z "/>
<path style="fill:rgb(46, 249, 179);fill-opacity:1.0;fill-rule:evenodd;stroke:rgb(0, 0, 0);stroke-width:3.0;" d="M 727.075, 217.592 L 719.377, 243.647 L 714.336, 240.003 L 717.064, 220.109 L 726.931, 211.289 z "/>
<path style="fill:rgb(7, 22, 252);fill-opacity:1.0;fill-rule:evenodd;stroke:rgb(0, 0, 0);stroke-width:3.0;" d="M 517.967, 239.24 L 496.835, 246.981 L 489.432, 226.362 z "/>
<path style="fill:rgb(237, 59, 26);fill-opacity:1.0;fill-rule:evenodd;stroke:rgb(0, 0, 0);stroke-width:3.0;" d="M 697.348, 196.441 L 673.483, 216.702 L 664.303, 219.31 L 663.553, 213.009 L 672.95, 190.647 L 673.543, 189.759 z "/>
<path style="fill:rgb(237, 59, 26);fill-opacity:1.0;fill-rule:evenodd;stroke:rgb(0, 0, 0);stroke-width:3.0;" d="M 786.353, 49.1123 L 773.883, 54.9656 L 768.054, 51.9126 L 783.3, 37.3392 z "/>
<path style="fill:rgb(237, 59, 26);fill-opacity:1.0;fill-rule:evenodd;stroke:rgb(0, 0, 0);stroke-width:3.0;" d="M 541.698, 211.219 L 540.18, 231.103 L 517.967, 239.24 L 489.432, 226.362 L 480.047, 200.22 L 509.022, 198.025 z "/>
<path style="fill:rgb(255, 46, 217);fill-opacity:1.0;fill-rule:evenodd;stroke:rgb(0, 0, 0);stroke-width:3.0;" d="M 691.713, 424.324 L 669.531, 435.788 L 667.565, 427.482 L 687.607, 421.323 z "/>
<path style="fill:rgb(26, 249, 255);fill-opacity:1.0;fill-rule:evenodd;stroke:rgb(0, 0, 0);stroke-width:3.0;" d="M 671.528, 128.555 L 661.977, 139.184 L 655.28, 132.131 L 663.315, 125.83 z "/>
<path style="fill:rgb(26, 249, 255);fill-opacity:1.0;fill-rule:evenodd;stroke:rgb(0, 0, 0);stroke-width:3.0;" d="M 732.703, 187.426 L 721.199, 203.143 L 719.351, 203.668 L 718.336, 178.624 L 722.277, 175.278 z "/>
<path style="fill:rgb(255, 0, 243);fill-opacity:1.0;fill-rule:evenodd;stroke:rgb(0, 0, 0);stroke-width:3.0;" d="M 619.372, 211.642 L 619.233, 211.927 L 592.583, 193.346 L 620.547, 154.669 z "/>
<path style="fill:rgb(255, 0, 243);fill-opacity:1.0;fill-rule:evenodd;stroke:rgb(0, 0, 0);stroke-width:3.0;" d="M 669.641, 178.397 L 667.695, 179.048 L 679.42, 127.882 L 683.437, 115.299 L 685.027, 113.529 z "/>
<path style="fill:rgb(255, 0, 243);fill-opacity:1.0;fill-rule:evenodd;stroke:rgb(0, 0, 0);stroke-width:3.0;" d="M 701.257, 212.923 L 707.697, 223.138 L 695.124, 226.115 L 679.671, 214.943 L 689.33, 212.198 z "/>
<path style="fill:rgb(255, 0, 243);fill-opacity:1.0;fill-rule:evenodd;stroke:rgb(0, 0, 0);stroke-width:3.0;" d="M 553.462, 256.643 L 552.488, 257.935 L 541.046, 261.273 L 537.938, 260.476 L 538.207, 256.952 L 553.148, 248.083 z "/>
<path style="fill:rgb(255, 0, 243);fill-opacity:1.0;fill-rule:evenodd;stroke:rgb(0, 0, 0);stroke-width:3.0;" d="M 640.027, 216.485 L 634.786, 219.834 L 632.113, 211.156 L 631.336, 199.575 L 638.919, 196.761 z "/>
<path style="fill:rgb(240, 21, 33);fill-opacity:1.0;fill-rule:evenodd;stroke:rgb(0, 0, 0);stroke-width:3.0;" d="M 700.898, 183.441 L 699.124, 194.934 L 697.348, 196.441 L 673.543, 189.759 L 686.762, 169.95 z "/>
<path style="fill:rgb(252, 255, 64);fill-opacity:1.0;fill-rule:evenodd;stroke:rgb(0, 0, 0);stroke-width:3.0;" d="M 656.52, 145.259 L 651.969, 150.324 L 649.344, 150.223 L 646.783, 131.365 L 653.867, 126.511 z "/>
<path style="fill:rgb(252, 255, 64);fill-opacity:1.0;fill-rule:evenodd;stroke:rgb(0, 0, 0);stroke-width:3.0;" d="M 759.921, 299.406 L 758.348, 298.654 L 752.006, 252.045 L 753.393, 242.761 z "/>
<path style="fill:rgb(246, 255, 10);fill-opacity:1.0;fill-rule:evenodd;stroke:rgb(0, 0, 0);stroke-width:3.0;" d="M 521.096, 155.793 L 499.272, 146.312 L 484.091, 129.999 L 483.933, 129.509 L 486.468, 128.675 z "/>
<path style="fill:rgb(234, 255, 48);fill-opacity:1.0;fill-rule:evenodd;stroke:rgb(0, 0, 0);stroke-width:3.0;" d="M 788.621, 57.8558 L 778.932, 74.9277 L 777.033, 74.5996 L 777.011, 74.5186 L 779.229, 52.4565 L 786.353, 49.1123 z "/>
<path style="fill:rgb(255, 74, 11);fill-opacity:1.0;fill-rule:evenodd;stroke:rgb(0, 0, 0);stroke-width:3.0;" d="M 748.144, 223.666 L 745.748, 238.644 L 740.099, 230.245 L 739.493, 227.395 L 741.084, 213.945 L 745.94, 207.463 z "/>
<path style="fill:rgb(15, 8, 231);fill-opacity:1.0;fill-rule:evenodd;stroke:rgb(0, 0, 0);stroke-width:3.0;" d="M 536.515, 279.12 L 519.301, 301.952 L 506.901, 286.022 L 538.409, 254.311 z "/>
<path style="fill:rgb(15, 8, 231);fill-opacity:1.0;fill-rule:evenodd;stroke:rgb(0, 0, 0);stroke-width:3.0;" d="M 269.357, 66.3713 L 185.351, 49.7504 L 190.23, 32.4891 z "/>
<path style="fill:rgb(32, 55, 255);fill-opacity:1.0;fill-rule:evenodd;stroke:rgb(0, 0, 0);stroke-width:3.0;" d="M 538.409, 254.311 L 506.901, 286.022 L 481.02, 252.775 L 540.18, 231.103 z "/>
<path style="fill:rgb(37, 40, 255);fill-opacity:1.0;fill-rule:evenodd;stroke:rgb(0, 0, 0);stroke-width:3.0;" d="M 783.3, 37.3392 L 761.45, 58.2251 L 763.357, 46.9356 L 782.874, 35.6943 z "/>
<path style="fill:rgb(51, 0, 228);fill-opacity:1.0;fill-rule:evenodd;stroke:rgb(0, 0, 0);stroke-width:3.0;" d="M 475.986, 126.845 L 465.455, 131.622 L 458.829, 128.744 L 467.621, 117.618 z "/>
<path style="fill:rgb(51, 0, 228);fill-opacity:1.0;fill-rule:evenodd;stroke:rgb(0, 0, 0);stroke-width:3.0;" d="M 515.966, 200.829 L 480.82, 186.638 L 485.113, 176.494 L 497.197, 172.332 z "/>
<path style="fill:rgb(255, 182, 41);fill-opacity:1.0;fill-rule:evenodd;stroke:rgb(0, 0, 0);stroke-width:3.0;" d="M 542.541, 200.187 L 541.698, 211.219 L 515.966, 200.829 L 492.211, 164.761 z "/>
<path style="fill:rgb(237, 62, 16);fill-opacity:1.0;fill-rule:evenodd;stroke:rgb(0, 0, 0);stroke-width:3.0;" d="M 665.481, 418.671 L 666.882, 424.593 L 663.569, 433.567 L 654.19, 422.274 L 661.534, 416.946 z "/>
<path style="fill:rgb(237, 62, 16);fill-opacity:1.0;fill-rule:evenodd;stroke:rgb(0, 0, 0);stroke-width:3.0;" d="M 762.448, 46.2767 L 743.142, 58.7869 L 736.869, 53.763 L 745.048, 41.2408 z "/>
<path style="fill:rgb(35, 136, 255);fill-opacity:1.0;fill-rule:evenodd;stroke:rgb(0, 0, 0);stroke-width:3.0;" d="M 485.163, 214.47 L 473.163, 226.647 L 476.683, 200.475 L 480.047, 200.22 z "/>
<path style="fill:rgb(9, 121, 220);fill-opacity:1.0;fill-rule:evenodd;stroke:rgb(0, 0, 0);stroke-width:3.0;" d="M 767.073, 34.3654 L 742.909, 30.861 L 732.735, 24.1751 L 764.901, 19.2759 z "/>
<path style="fill:rgb(184, 0, 34);fill-opacity:1.0;fill-rule:evenodd;stroke:rgb(0, 0, 0);stroke-width:3.0;" d="M 179.512, 48.5952 L 179.026, 59.8352 L 158.259, 44.3901 z "/>
<path style="fill:rgb(184, 0, 34);fill-opacity:1.0;fill-rule:evenodd;stroke:rgb(0, 0, 0);stroke-width:3.0;" d="M 350.587, 85.2169 L 361.926, 99.783 L 353.841, 102.547 L 321.303, 88.6144 L 324.155, 82.0182 z "/>
<path style="fill:rgb(32, 226, 161);fill-opacity:1.0;fill-rule:evenodd;stroke:rgb(0, 0, 0);stroke-width:3.0;" d="M 350.587, 85.2169 L 324.155, 82.0182 L 325.201, 79.601 L 338.729, 69.9838 z "/>
<path style="fill:rgb(175, 4, 45);fill-opacity:1.0;fill-rule:evenodd;stroke:rgb(0, 0, 0);stroke-width:3.0;" d="M 331.966, 67.9708 L 313.157, 82.0937 L 310.717, 79.3474 L 327.217, 55.7366 z "/>
<path style="fill:rgb(255, 223, 182);fill-opacity:1.0;fill-rule:evenodd;stroke:rgb(0, 0, 0);stroke-width:3.0;" d="M 344.101, 76.8845 L 334.341, 64.3469 L 334.174, 62.5216 L 345.81, 58.3251 z "/>
<path style="fill:rgb(88, 55, 255);fill-opacity:1.0;fill-rule:evenodd;stroke:rgb(0, 0, 0);stroke-width:3.0;" d="M 750.949, 130.559 L 702.475, 159.878 L 751.334, 75.0845 L 757.684, 73.6372 z "/>
<path style="fill:rgb(88, 55, 255);fill-opacity:1.0;fill-rule:evenodd;stroke:rgb(0, 0, 0);stroke-width:3.0;" d="M 699.528, 182.134 L 693.5, 176.38 L 717.115, 161.626 z "/>
<path style="fill:rgb(243, 13, 17);fill-opacity:1.0;fill-rule:evenodd;stroke:rgb(0, 0, 0);stroke-width:3.0;" d="M 749.15, 34.9618 L 736.869, 53.763 L 717.532, 38.2745 L 728.886, 21.6453 z "/>
<path style="fill:rgb(255, 50, 9);fill-opacity:1.0;fill-rule:evenodd;stroke:rgb(0, 0, 0);stroke-width:3.0;" d="M 674.786, 415.379 L 676.305, 424.796 L 667.565, 427.482 L 666.323, 422.233 L 665.127, 410.996 z "/>
<path style="fill:rgb(220, 0, 240);fill-opacity:1.0;fill-rule:evenodd;stroke:rgb(0, 0, 0);stroke-width:3.0;" d="M 671.878, 248.63 L 585.84, 213.7 L 598.221, 197.277 z "/>
<path style="fill:rgb(26, 255, 15);fill-opacity:1.0;fill-rule:evenodd;stroke:rgb(0, 0, 0);stroke-width:3.0;" d="M 567.853, 176.105 L 598.221, 197.277 L 587.491, 211.509 L 546.343, 213.295 L 545.896, 166.567 z "/>
<path style="fill:rgb(255, 27, 121);fill-opacity:1.0;fill-rule:evenodd;stroke:rgb(0, 0, 0);stroke-width:3.0;" d="M 618.79, 227.077 L 626.463, 296.644 L 538.085, 277.038 L 585.84, 213.7 z "/>
<path style="fill:rgb(255, 215, 10);fill-opacity:1.0;fill-rule:evenodd;stroke:rgb(0, 0, 0);stroke-width:3.0;" d="M 671.878, 248.63 L 794.082, 333.829 L 626.463, 296.644 L 618.79, 227.077 z "/>
<path style="fill:rgb(255, 255, 18);fill-opacity:1.0;fill-rule:evenodd;stroke:rgb(0, 0, 0);stroke-width:3.0;" d="M 545.132, 166.235 L 542.541, 200.187 L 496.962, 168.105 L 510.019, 150.981 z "/>
<path style="fill:rgb(240, 107, 237);fill-opacity:1.0;fill-rule:evenodd;stroke:rgb(0, 0, 0);stroke-width:3.0;" d="M 747.967, 432.029 L 713.904, 443.834 L 700.67, 441.942 L 735.587, 423.132 z "/>
<path style="fill:rgb(128, 91, 220);fill-opacity:1.0;fill-rule:evenodd;stroke:rgb(0, 0, 0);stroke-width:3.0;" d="M 675.224, 119.252 L 672.88, 127.049 L 671.528, 128.555 L 661.009, 125.065 L 664.478, 119.594 L 671.683, 116.873 z "/>
<path style="fill:rgb(207, 246, 34);fill-opacity:1.0;fill-rule:evenodd;stroke:rgb(0, 0, 0);stroke-width:3.0;" d="M 624.073, 149.792 L 614.897, 162.484 L 574.698, 180.877 L 565.076, 174.168 L 621.307, 137.732 z "/>
<path style="fill:rgb(246, 81, 40);fill-opacity:1.0;fill-rule:evenodd;stroke:rgb(0, 0, 0);stroke-width:3.0;" d="M 467.792, 117.402 L 458.829, 128.744 L 362.94, 87.0884 L 352.526, 78.7866 L 368.059, 67.5835 z "/>
<path style="fill:rgb(234, 92, 14);fill-opacity:1.0;fill-rule:evenodd;stroke:rgb(0, 0, 0);stroke-width:3.0;" d="M 772.35, 65.7162 L 773.087, 73.9183 L 756.234, 71.0078 L 753.789, 67.6066 L 755.425, 63.6294 L 764.76, 59.2476 z "/>
<path style="fill:rgb(140, 3, 7);fill-opacity:1.0;fill-rule:evenodd;stroke:rgb(0, 0, 0);stroke-width:3.0;" d="M 764.035, 508.164 L 753.906, 501.992 L 758.192, 496.05 L 773.262, 493.454 z "/>
<path style="fill:rgb(168, 237, 255);fill-opacity:1.0;fill-rule:evenodd;stroke:rgb(0, 0, 0);stroke-width:3.0;" d="M 362.117, 64.6152 L 355.716, 76.486 L 349.257, 81.1443 L 346.477, 79.9367 L 344.101, 76.8845 L 345.396, 62.8224 L 353.506, 60.3136 z "/>
<path style="fill:rgb(255, 4, 79);fill-opacity:1.0;fill-rule:evenodd;stroke:rgb(0, 0, 0);stroke-width:3.0;" d="M 488.572, 189.768 L 491.731, 191.043 L 492.691, 192.466 L 487.778, 199.635 L 478.989, 200.301 L 473.165, 193.13 L 479.567, 189.571 z "/>
<path style="fill:rgb(159, 255, 38);fill-opacity:1.0;fill-rule:evenodd;stroke:rgb(0, 0, 0);stroke-width:3.0;" d="M 760.09, 514.453 L 750.082, 530.41 L 750.153, 507.194 L 752.91, 503.372 z "/>
<path style="fill:rgb(226, 33, 212);fill-opacity:1.0;fill-rule:evenodd;stroke:rgb(0, 0, 0);stroke-width:3.0;" d="M 745.364, 457.564 L 744.993, 457.863 L 732.263, 459.719 L 731.642, 452.249 L 748.277, 442.986 z "/>
<path style="fill:rgb(24, 21, 194);fill-opacity:1.0;fill-rule:evenodd;stroke:rgb(0, 0, 0);stroke-width:3.0;" d="M 723.585, 214.28 L 715.83, 221.212 L 707.697, 223.138 L 702.654, 215.138 L 714.188, 213.709 z "/>
<path style="fill:rgb(237, 255, 20);fill-opacity:1.0;fill-rule:evenodd;stroke:rgb(0, 0, 0);stroke-width:3.0;" d="M 269.357, 66.3713 L 293.145, 76.5571 L 234.535, 101.118 L 179.026, 59.8352 L 179.512, 48.5952 z "/>
<path style="fill:rgb(255, 34, 18);fill-opacity:1.0;fill-rule:evenodd;stroke:rgb(0, 0, 0);stroke-width:3.0;" d="M 648.829, 223.707 L 640.564, 226.056 L 639.449, 206.201 L 658.439, 193.605 z "/>
<path style="fill:rgb(92, 140, 207);fill-opacity:1.0;fill-rule:evenodd;stroke:rgb(0, 0, 0);stroke-width:3.0;" d="M 714.122, 201.144 L 713.295, 205.389 L 700.366, 209.062 L 693.169, 200.763 L 693.222, 199.945 L 695.539, 197.977 z "/>
<path style="fill:rgb(10, 121, 252);fill-opacity:1.0;fill-rule:evenodd;stroke:rgb(0, 0, 0);stroke-width:3.0;" d="M 472.911, 218.513 L 455.8, 220.01 L 447.486, 202.688 L 470.662, 200.932 z "/>
<path style="fill:rgb(231, 4, 102);fill-opacity:1.0;fill-rule:evenodd;stroke:rgb(0, 0, 0);stroke-width:3.0;" d="M 700.535, 474.604 L 701.884, 477.983 L 696.968, 487.629 L 685.395, 481.941 L 686.182, 472.681 z "/>
<path style="fill:rgb(255, 30, 161);fill-opacity:1.0;fill-rule:evenodd;stroke:rgb(0, 0, 0);stroke-width:3.0;" d="M 311.868, 35.4767 L 324.211, 51.3339 L 294.095, 76.9638 L 219.811, 45.1559 L 272.52, 32.0232 z "/>
<path style="fill:rgb(255, 48, 8);fill-opacity:1.0;fill-rule:evenodd;stroke:rgb(0, 0, 0);stroke-width:3.0;" d="M 576.925, 225.523 L 559.683, 248.392 L 541.166, 218.192 L 541.524, 213.504 L 553.397, 212.989 z "/>
</svg>