<?xml version="1.0" encoding="iso-8859-1" standalone="no"?>
<!DOCTYPE svg PUBLIC "-//W3C//DTD SVG 1.0//EN" "http://www.w3.org/TR/2001/REC-SVG-20010904/DTD/svg10.dtd">
<svg xmlns="http://www.w3.org/2000/svg" width="800" height="600">
<path style="fill:rgb(0, 0, 0);fill-opacity:0.0;fill-rule:evenodd;stroke:rgb(0, 0, 0);stroke-width:0.0;" d="M 0, 600 L 800, 600 L 800, 0 L 0, 0 z "/>
<path style="fill:rgb(255, 228, 66);fill-opacity:1.0;fill-rule:evenodd;stroke:rgb(0, 0, 0);stroke-width:3.0;" d="M 792.349, 483.346 L 761.499, 489.982 L 749.642, 477.796 L 794.945, 451.549 z "/>
<path style="fill:rgb(255, 175, 123);fill-opacity:1.0;fill-rule:evenodd;stroke:rgb(0, 0, 0);stroke-width:3.0;" d="M 537.077, 490.462 L 522.413, 541.413 L 508.253, 544.459 L 506.327, 482.318 L 522.777, 472.472 z "/>
<path style="fill:rgb(255, 255, 54);fill-opacity:1.0;fill-rule:evenodd;stroke:rgb(0, 0, 0);stroke-width:3.0;" d="M 593.994, 272.318 L 587.596, 253.34 L 631.313, 245.468 z "/>
<path style="fill:rgb(255, 58, 255);fill-opacity:1.0;fill-rule:evenodd;stroke:rgb(0, 0, 0);stroke-width:3.0;" d="M 527.366, 561.905 L 472.575, 588.379 L 458.759, 589.898 L 456.069, 584.177 L 527.187, 560.658 z "/>
<path style="fill:rgb(71, 1, 204);fill-opacity:1.0;fill-rule:evenodd;stroke:rgb(0, 0, 0);stroke-width:3.0;" d="M 527.187, 560.658 L 456.069, 584.177 L 452.213, 575.976 L 524.955, 545.07 z "/>
<path style="fill:rgb(142, 223, 34);fill-opacity:1.0;fill-rule:evenodd;stroke:rgb(0, 0, 0);stroke-width:3.0;" d="M 350.238, 337.945 L 323.133, 368.673 L 302.94, 311.323 L 338.245, 297.289 z "/>
<path style="fill:rgb(142, 223, 34);fill-opacity:1.0;fill-rule:evenodd;stroke:rgb(0, 0, 0);stroke-width:3.0;" d="M 788.242, 559.778 L 747.217, 521.158 L 762.102, 503.29 z "/>
<path style="fill:rgb(37, 79, 255);fill-opacity:1.0;fill-rule:evenodd;stroke:rgb(0, 0, 0);stroke-width:3.0;" d="M 700.916, 62.4932 L 681.911, 65.4523 L 681.307, 64.4121 L 707.648, 45.2623 z "/>
<path style="fill:rgb(243, 237, 50);fill-opacity:1.0;fill-rule:evenodd;stroke:rgb(0, 0, 0);stroke-width:3.0;" d="M 562.987, 326.316 L 568.146, 355.84 L 554.929, 367.436 L 530.166, 375.537 L 508.416, 317.034 z "/>
<path style="fill:rgb(243, 237, 50);fill-opacity:1.0;fill-rule:evenodd;stroke:rgb(0, 0, 0);stroke-width:3.0;" d="M 579.364, 410.621 L 577.365, 439.799 L 506.327, 482.318 L 503.29, 384.329 L 515.221, 380.426 z "/>
<path style="fill:rgb(204, 228, 161);fill-opacity:1.0;fill-rule:evenodd;stroke:rgb(0, 0, 0);stroke-width:3.0;" d="M 607.277, 537.056 L 638.42, 553.093 L 634.214, 566.215 L 630.235, 570.726 L 602.675, 535.916 z "/>
<path style="fill:rgb(204, 228, 161);fill-opacity:1.0;fill-rule:evenodd;stroke:rgb(0, 0, 0);stroke-width:3.0;" d="M 692.247, 330.414 L 696.919, 338.6 L 676.517, 334.602 L 674.868, 320.291 z "/>
<path style="fill:rgb(204, 228, 161);fill-opacity:1.0;fill-rule:evenodd;stroke:rgb(0, 0, 0);stroke-width:3.0;" d="M 337.884, 581.107 L 330.615, 582.671 L 322.176, 576.582 L 343.962, 562.458 z "/>
<path style="fill:rgb(204, 228, 161);fill-opacity:1.0;fill-rule:evenodd;stroke:rgb(0, 0, 0);stroke-width:3.0;" d="M 638.278, 104.099 L 495.923, 146.647 L 494.644, 105.407 L 539.538, 64.9355 z "/>
<path style="fill:rgb(59, 255, 255);fill-opacity:1.0;fill-rule:evenodd;stroke:rgb(0, 0, 0);stroke-width:3.0;" d="M 595.502, 526.856 L 596.03, 527.882 L 559.389, 578.831 L 559.371, 578.833 L 569.261, 548.34 L 583.311, 528.313 L 594.713, 525.86 z "/>
<path style="fill:rgb(59, 255, 255);fill-opacity:1.0;fill-rule:evenodd;stroke:rgb(0, 0, 0);stroke-width:3.0;" d="M 170.166, 547.681 L 136.265, 555.147 L 122.906, 495.252 L 127.043, 490.29 z "/>
<path style="fill:rgb(59, 255, 255);fill-opacity:1.0;fill-rule:evenodd;stroke:rgb(0, 0, 0);stroke-width:3.0;" d="M 89.3781, 353.142 L 76.4166, 345.746 L 76.7619, 325.606 L 81.1081, 312.879 z "/>
<path style="fill:rgb(59, 255, 255);fill-opacity:1.0;fill-rule:evenodd;stroke:rgb(0, 0, 0);stroke-width:3.0;" d="M 354.127, 283.141 L 356.805, 289.912 L 330.543, 300.351 L 335.239, 280.597 z "/>
<path style="fill:rgb(59, 255, 255);fill-opacity:1.0;fill-rule:evenodd;stroke:rgb(0, 0, 0);stroke-width:3.0;" d="M 559.904, 521.141 L 557.736, 533.814 L 548.752, 535.747 L 550.556, 524.929 L 556.434, 520.429 z "/>
<path style="fill:rgb(246, 228, 35);fill-opacity:1.0;fill-rule:evenodd;stroke:rgb(0, 0, 0);stroke-width:3.0;" d="M 572.3, 256.095 L 544.278, 261.141 L 554.276, 253.647 L 595.036, 231.897 z "/>
<path style="fill:rgb(255, 187, 19);fill-opacity:1.0;fill-rule:evenodd;stroke:rgb(0, 0, 0);stroke-width:3.0;" d="M 543.945, 386.439 L 545.094, 394.488 L 531.02, 387.863 L 528.873, 378.745 L 529.369, 378.536 z "/>
<path style="fill:rgb(255, 187, 19);fill-opacity:1.0;fill-rule:evenodd;stroke:rgb(0, 0, 0);stroke-width:3.0;" d="M 632.598, 275.501 L 623.943, 250.771 L 631.313, 245.468 L 633.635, 245.05 z "/>
<path style="fill:rgb(252, 126, 24);fill-opacity:1.0;fill-rule:evenodd;stroke:rgb(0, 0, 0);stroke-width:3.0;" d="M 634.54, 218.494 L 634.161, 229.629 L 587.255, 253.402 L 572.3, 256.095 L 613.204, 212.56 z "/>
<path style="fill:rgb(252, 126, 24);fill-opacity:1.0;fill-rule:evenodd;stroke:rgb(0, 0, 0);stroke-width:3.0;" d="M 636.132, 171.756 L 567.459, 237.966 L 623.924, 166.75 L 636.562, 159.106 z "/>
<path style="fill:rgb(252, 126, 24);fill-opacity:1.0;fill-rule:evenodd;stroke:rgb(0, 0, 0);stroke-width:3.0;" d="M 762.233, 14.5722 L 732.419, 27.2545 L 759.038, 7.90275 z "/>
<path style="fill:rgb(252, 255, 34);fill-opacity:1.0;fill-rule:evenodd;stroke:rgb(0, 0, 0);stroke-width:3.0;" d="M 600.961, 425.676 L 599.405, 426.607 L 588.558, 414.208 L 602.68, 413.298 z "/>
<path style="fill:rgb(252, 255, 34);fill-opacity:1.0;fill-rule:evenodd;stroke:rgb(0, 0, 0);stroke-width:3.0;" d="M 404.816, 450.654 L 408.634, 476.084 L 403.443, 493.235 L 373.902, 429.902 z "/>
<path style="fill:rgb(252, 255, 34);fill-opacity:1.0;fill-rule:evenodd;stroke:rgb(0, 0, 0);stroke-width:3.0;" d="M 515.103, 583.702 L 489.423, 586.526 L 488.043, 580.905 L 501.209, 574.544 z "/>
<path style="fill:rgb(184, 228, 19);fill-opacity:1.0;fill-rule:evenodd;stroke:rgb(0, 0, 0);stroke-width:3.0;" d="M 685.772, 528.476 L 665.624, 546.463 L 630.625, 518.135 L 632.13, 517.811 z "/>
<path style="fill:rgb(252, 0, 249);fill-opacity:1.0;fill-rule:evenodd;stroke:rgb(0, 0, 0);stroke-width:3.0;" d="M 484.764, 174.569 L 467.684, 162.858 L 481.046, 152.875 z "/>
<path style="fill:rgb(252, 0, 249);fill-opacity:1.0;fill-rule:evenodd;stroke:rgb(0, 0, 0);stroke-width:3.0;" d="M 481.046, 152.875 L 467.684, 162.858 L 424.601, 133.316 L 468.641, 80.4818 z "/>
<path style="fill:rgb(252, 0, 249);fill-opacity:1.0;fill-rule:evenodd;stroke:rgb(0, 0, 0);stroke-width:3.0;" d="M 36.8669, 436.22 L 41.3405, 475.547 L 37.4335, 484.428 L 18.7701, 454.863 L 27.8344, 424.415 z "/>
<path style="fill:rgb(252, 0, 249);fill-opacity:1.0;fill-rule:evenodd;stroke:rgb(0, 0, 0);stroke-width:3.0;" d="M 84.148, 498.013 L 61.2594, 468.099 L 67.2783, 456.105 z "/>
<path style="fill:rgb(252, 0, 249);fill-opacity:1.0;fill-rule:evenodd;stroke:rgb(0, 0, 0);stroke-width:3.0;" d="M 614.791, 139.095 L 585.965, 154.34 L 589.349, 144.773 L 601.654, 136.565 z "/>
<path style="fill:rgb(252, 0, 249);fill-opacity:1.0;fill-rule:evenodd;stroke:rgb(0, 0, 0);stroke-width:3.0;" d="M 685.772, 528.476 L 632.13, 517.811 L 718.54, 499.224 z "/>
<path style="fill:rgb(86, 5, 252);fill-opacity:1.0;fill-rule:evenodd;stroke:rgb(0, 0, 0);stroke-width:3.0;" d="M 670.621, 90.559 L 658.396, 98.7134 L 565.383, 40.474 L 552.407, 19.4462 L 573.76, 15.0593 z "/>
<path style="fill:rgb(86, 5, 252);fill-opacity:1.0;fill-rule:evenodd;stroke:rgb(0, 0, 0);stroke-width:3.0;" d="M 330.543, 300.351 L 302.94, 311.323 L 295.005, 288.789 L 348.565, 224.535 z "/>
<path style="fill:rgb(255, 0, 11);fill-opacity:1.0;fill-rule:evenodd;stroke:rgb(0, 0, 0);stroke-width:3.0;" d="M 614.285, 211.409 L 595.036, 231.897 L 547.378, 257.328 L 611.978, 195.044 z "/>
<path style="fill:rgb(179, 255, 255);fill-opacity:1.0;fill-rule:evenodd;stroke:rgb(0, 0, 0);stroke-width:3.0;" d="M 670.966, 298.866 L 640.756, 327.594 L 630.89, 325.66 L 632.176, 287.911 L 657.467, 281.758 z "/>
<path style="fill:rgb(246, 243, 9);fill-opacity:1.0;fill-rule:evenodd;stroke:rgb(0, 0, 0);stroke-width:3.0;" d="M 721.215, 221.662 L 697.314, 171.269 L 726.621, 170.886 z "/>
<path style="fill:rgb(246, 243, 9);fill-opacity:1.0;fill-rule:evenodd;stroke:rgb(0, 0, 0);stroke-width:3.0;" d="M 672.644, 300.992 L 676.517, 334.602 L 640.756, 327.594 L 670.966, 298.866 z "/>
<path style="fill:rgb(255, 252, 22);fill-opacity:1.0;fill-rule:evenodd;stroke:rgb(0, 0, 0);stroke-width:3.0;" d="M 438.768, 571.965 L 436.689, 581.151 L 427.177, 582.074 L 407.941, 575.538 L 408.887, 571.504 z "/>
<path style="fill:rgb(255, 252, 22);fill-opacity:1.0;fill-rule:evenodd;stroke:rgb(0, 0, 0);stroke-width:3.0;" d="M 755.296, 487.006 L 740.874, 494.419 L 732.597, 496.2 L 733.185, 495.361 L 750.739, 479.969 z "/>
<path style="fill:rgb(255, 3, 18);fill-opacity:1.0;fill-rule:evenodd;stroke:rgb(0, 0, 0);stroke-width:3.0;" d="M 652.234, 283.031 L 632.176, 287.911 L 632.789, 269.894 z "/>
<path style="fill:rgb(26, 18, 148);fill-opacity:1.0;fill-rule:evenodd;stroke:rgb(0, 0, 0);stroke-width:3.0;" d="M 615.063, 127.62 L 497.758, 205.871 L 495.923, 146.647 L 615.924, 110.781 z "/>
<path style="fill:rgb(26, 18, 148);fill-opacity:1.0;fill-rule:evenodd;stroke:rgb(0, 0, 0);stroke-width:3.0;" d="M 693.874, 504.529 L 655.917, 512.694 L 668.011, 496.337 z "/>
<path style="fill:rgb(255, 159, 7);fill-opacity:1.0;fill-rule:evenodd;stroke:rgb(0, 0, 0);stroke-width:3.0;" d="M 629.155, 376.607 L 628.949, 382.655 L 617.8, 368.992 L 607.72, 342.284 L 615.684, 336.651 z "/>
<path style="fill:rgb(255, 159, 7);fill-opacity:1.0;fill-rule:evenodd;stroke:rgb(0, 0, 0);stroke-width:3.0;" d="M 634.336, 114.763 L 615.063, 127.62 L 615.924, 110.781 L 624.258, 108.29 z "/>
<path style="fill:rgb(66, 255, 255);fill-opacity:1.0;fill-rule:evenodd;stroke:rgb(0, 0, 0);stroke-width:3.0;" d="M 552.971, 510.457 L 549.473, 531.424 L 531.497, 509.849 L 537.077, 490.462 z "/>
<path style="fill:rgb(66, 255, 255);fill-opacity:1.0;fill-rule:evenodd;stroke:rgb(0, 0, 0);stroke-width:3.0;" d="M 501.785, 270.342 L 509.932, 290.176 L 500.51, 294.636 L 499.72, 269.165 L 500.214, 269.076 z "/>
<path style="fill:rgb(66, 255, 255);fill-opacity:1.0;fill-rule:evenodd;stroke:rgb(0, 0, 0);stroke-width:3.0;" d="M 564.942, 287.097 L 560.679, 298.99 L 537.557, 270.655 L 545.474, 268.569 z "/>
<path style="fill:rgb(9, 154, 255);fill-opacity:1.0;fill-rule:evenodd;stroke:rgb(0, 0, 0);stroke-width:3.0;" d="M 445.44, 591.363 L 439.836, 591.979 L 434.336, 591.174 L 433.168, 584.523 L 449.604, 582.626 z "/>
<path style="fill:rgb(9, 154, 255);fill-opacity:1.0;fill-rule:evenodd;stroke:rgb(0, 0, 0);stroke-width:3.0;" d="M 699.662, 574.014 L 679.958, 585.912 L 678.674, 586.294 L 588.042, 575.68 L 688.123, 564.674 z "/>
<path style="fill:rgb(246, 2, 204);fill-opacity:1.0;fill-rule:evenodd;stroke:rgb(0, 0, 0);stroke-width:3.0;" d="M 627.661, 529.942 L 624.203, 545.367 L 623.717, 545.522 L 601.144, 533.899 L 606.425, 528.498 L 615.934, 526.337 z "/>
<path style="fill:rgb(246, 2, 204);fill-opacity:1.0;fill-rule:evenodd;stroke:rgb(0, 0, 0);stroke-width:3.0;" d="M 466.223, 556.736 L 449.932, 576.945 L 443.575, 579.646 L 445.04, 562.842 L 465.822, 555.67 z "/>
<path style="fill:rgb(246, 2, 204);fill-opacity:1.0;fill-rule:evenodd;stroke:rgb(0, 0, 0);stroke-width:3.0;" d="M 682.798, 313.861 L 692.247, 330.414 L 674.868, 320.291 L 674.458, 316.731 L 681.362, 312.041 z "/>
<path style="fill:rgb(246, 2, 204);fill-opacity:1.0;fill-rule:evenodd;stroke:rgb(0, 0, 0);stroke-width:3.0;" d="M 125.532, 545.149 L 119.904, 544.744 L 107.944, 529.113 L 107.898, 528.077 L 118.96, 521.53 z "/>
<path style="fill:rgb(246, 2, 204);fill-opacity:1.0;fill-rule:evenodd;stroke:rgb(0, 0, 0);stroke-width:3.0;" d="M 622.852, 519.807 L 595.535, 525.683 L 602.918, 500.85 z "/>
<path style="fill:rgb(246, 2, 204);fill-opacity:1.0;fill-rule:evenodd;stroke:rgb(0, 0, 0);stroke-width:3.0;" d="M 657.467, 281.758 L 652.234, 283.031 L 651.199, 282.332 L 638.273, 270.756 L 646.717, 268.134 z "/>
<path style="fill:rgb(223, 217, 7);fill-opacity:1.0;fill-rule:evenodd;stroke:rgb(0, 0, 0);stroke-width:3.0;" d="M 526.162, 575.878 L 527.947, 582.289 L 515.103, 583.702 L 501.209, 574.544 L 501.926, 574.197 z "/>
<path style="fill:rgb(223, 217, 7);fill-opacity:1.0;fill-rule:evenodd;stroke:rgb(0, 0, 0);stroke-width:3.0;" d="M 421.693, 563.079 L 343.519, 579.895 L 379.765, 539.246 L 414.714, 516.588 z "/>
<path style="fill:rgb(255, 231, 18);fill-opacity:1.0;fill-rule:evenodd;stroke:rgb(0, 0, 0);stroke-width:3.0;" d="M 580.13, 496.47 L 536.632, 464.18 L 623.636, 412.105 z "/>
<path style="fill:rgb(226, 234, 13);fill-opacity:1.0;fill-rule:evenodd;stroke:rgb(0, 0, 0);stroke-width:3.0;" d="M 684.422, 76.435 L 676.383, 86.0696 L 674.886, 85.8458 L 669.62, 73.377 L 669.677, 72.8668 L 670.213, 72.477 z "/>
<path style="fill:rgb(228, 91, 44);fill-opacity:1.0;fill-rule:evenodd;stroke:rgb(0, 0, 0);stroke-width:3.0;" d="M 710.134, 500.685 L 709.182, 501.236 L 693.874, 504.529 L 625.536, 482.883 L 628.303, 401.633 z "/>
<path style="fill:rgb(231, 49, 132);fill-opacity:1.0;fill-rule:evenodd;stroke:rgb(0, 0, 0);stroke-width:3.0;" d="M 379.341, 280.954 L 356.805, 289.912 L 341.953, 252.352 L 348.565, 224.535 L 367.467, 201.858 z "/>
<path style="fill:rgb(231, 49, 132);fill-opacity:1.0;fill-rule:evenodd;stroke:rgb(0, 0, 0);stroke-width:3.0;" d="M 619.307, 370.838 L 623.847, 388.226 L 604.809, 357.664 L 603.845, 351.89 z "/>
<path style="fill:rgb(231, 49, 132);fill-opacity:1.0;fill-rule:evenodd;stroke:rgb(0, 0, 0);stroke-width:3.0;" d="M 530.166, 375.537 L 503.29, 384.329 L 500.703, 300.888 L 502.059, 299.937 z "/>
<path style="fill:rgb(231, 49, 132);fill-opacity:1.0;fill-rule:evenodd;stroke:rgb(0, 0, 0);stroke-width:3.0;" d="M 557.541, 295.144 L 562.987, 326.316 L 508.416, 317.034 L 502.059, 299.937 L 539.826, 273.435 z "/>
<path style="fill:rgb(231, 49, 132);fill-opacity:1.0;fill-rule:evenodd;stroke:rgb(0, 0, 0);stroke-width:3.0;" d="M 45.8545, 519.624 L 46.398, 523.68 L 44.3056, 550.331 L 32.9934, 539.18 L 29.603, 522.563 L 41.3466, 513.41 z "/>
<path style="fill:rgb(231, 49, 132);fill-opacity:1.0;fill-rule:evenodd;stroke:rgb(0, 0, 0);stroke-width:3.0;" d="M 370.621, 503.535 L 331.584, 512.132 L 363.962, 484.623 z "/>
<path style="fill:rgb(255, 255, 12);fill-opacity:1.0;fill-rule:evenodd;stroke:rgb(0, 0, 0);stroke-width:3.0;" d="M 363.962, 484.623 L 331.584, 512.132 L 170.351, 547.64 L 315.443, 346.832 z "/>
<path style="fill:rgb(207, 0, 65);fill-opacity:1.0;fill-rule:evenodd;stroke:rgb(0, 0, 0);stroke-width:3.0;" d="M 603.279, 355.208 L 596.835, 368.548 L 587.651, 373.897 L 582.188, 369.388 L 582.95, 358.27 L 601.422, 352.227 z "/>
<path style="fill:rgb(207, 0, 65);fill-opacity:1.0;fill-rule:evenodd;stroke:rgb(0, 0, 0);stroke-width:3.0;" d="M 590.829, 335.939 L 587.925, 338.488 L 561.526, 317.954 L 561.419, 317.338 L 568.927, 309.099 z "/>
<path style="fill:rgb(255, 168, 11);fill-opacity:1.0;fill-rule:evenodd;stroke:rgb(0, 0, 0);stroke-width:3.0;" d="M 658.396, 98.7134 L 645.831, 107.095 L 574.919, 78.9686 L 575.812, 47.0039 z "/>
<path style="fill:rgb(163, 0, 226);fill-opacity:1.0;fill-rule:evenodd;stroke:rgb(0, 0, 0);stroke-width:3.0;" d="M 243.592, 446.274 L 203.057, 502.375 L 210.921, 428.544 L 250.487, 417.564 z "/>
<path style="fill:rgb(163, 0, 226);fill-opacity:1.0;fill-rule:evenodd;stroke:rgb(0, 0, 0);stroke-width:3.0;" d="M 681.904, 559.64 L 678.818, 565.697 L 663.873, 567.341 L 665.512, 560.05 L 676.121, 554.96 z "/>
<path style="fill:rgb(184, 46, 114);fill-opacity:1.0;fill-rule:evenodd;stroke:rgb(0, 0, 0);stroke-width:3.0;" d="M 628.11, 407.296 L 628.05, 409.045 L 606.454, 414.138 L 604.123, 402.901 L 606.042, 389.08 z "/>
<path style="fill:rgb(184, 46, 114);fill-opacity:1.0;fill-rule:evenodd;stroke:rgb(0, 0, 0);stroke-width:3.0;" d="M 637.656, 127.003 L 614.791, 139.095 L 611.361, 138.434 L 615.502, 131.499 L 637.831, 121.866 z "/>
<path style="fill:rgb(184, 46, 114);fill-opacity:1.0;fill-rule:evenodd;stroke:rgb(0, 0, 0);stroke-width:3.0;" d="M 758.429, 472.705 L 710.134, 500.685 L 660.765, 440.926 z "/>
<path style="fill:rgb(184, 46, 114);fill-opacity:1.0;fill-rule:evenodd;stroke:rgb(0, 0, 0);stroke-width:3.0;" d="M 382.42, 301.46 L 350.238, 337.945 L 338.245, 297.289 L 379.341, 280.954 z "/>
<path style="fill:rgb(184, 46, 114);fill-opacity:1.0;fill-rule:evenodd;stroke:rgb(0, 0, 0);stroke-width:3.0;" d="M 477.221, 560.401 L 468.108, 561.744 L 465.822, 555.67 L 481.852, 550.138 L 482.349, 550.031 z "/>
<path style="fill:rgb(255, 243, 144);fill-opacity:1.0;fill-rule:evenodd;stroke:rgb(0, 0, 0);stroke-width:3.0;" d="M 628.036, 409.471 L 600.961, 425.676 L 602.431, 415.087 L 628.05, 409.045 z "/>
<path style="fill:rgb(255, 243, 144);fill-opacity:1.0;fill-rule:evenodd;stroke:rgb(0, 0, 0);stroke-width:3.0;" d="M 725.592, 547.118 L 724.653, 548.245 L 675.009, 554.059 L 665.624, 546.463 L 669.14, 543.324 z "/>
<path style="fill:rgb(255, 207, 9);fill-opacity:1.0;fill-rule:evenodd;stroke:rgb(0, 0, 0);stroke-width:3.0;" d="M 764.867, 499.971 L 725.592, 547.118 L 669.14, 543.324 L 718.54, 499.224 L 750.941, 492.254 z "/>
<path style="fill:rgb(255, 83, 157);fill-opacity:1.0;fill-rule:evenodd;stroke:rgb(0, 0, 0);stroke-width:3.0;" d="M 465.269, 438.805 L 407.211, 466.605 L 399.654, 416.265 z "/>
<path style="fill:rgb(255, 83, 157);fill-opacity:1.0;fill-rule:evenodd;stroke:rgb(0, 0, 0);stroke-width:3.0;" d="M 630.552, 335.601 L 620.39, 350.61 L 614.979, 334.562 L 630.724, 330.524 z "/>
<path style="fill:rgb(237, 21, 8);fill-opacity:1.0;fill-rule:evenodd;stroke:rgb(0, 0, 0);stroke-width:3.0;" d="M 627.77, 417.263 L 595.535, 525.683 L 569.521, 531.279 L 565.068, 525.677 L 623.636, 412.105 L 628.036, 409.471 z "/>
<path style="fill:rgb(237, 21, 8);fill-opacity:1.0;fill-rule:evenodd;stroke:rgb(0, 0, 0);stroke-width:3.0;" d="M 404.816, 450.654 L 335.653, 404.227 L 323.133, 368.673 L 382.42, 301.46 z "/>
<path style="fill:rgb(255, 126, 10);fill-opacity:1.0;fill-rule:evenodd;stroke:rgb(0, 0, 0);stroke-width:3.0;" d="M 203.057, 502.375 L 170.351, 547.64 L 170.166, 547.681 L 127.043, 490.29 L 168.758, 440.244 L 210.921, 428.544 z "/>
<path style="fill:rgb(255, 126, 10);fill-opacity:1.0;fill-rule:evenodd;stroke:rgb(0, 0, 0);stroke-width:3.0;" d="M 650.498, 536.963 L 624.203, 545.367 L 625.937, 537.63 L 634.117, 531.927 z "/>
<path style="fill:rgb(79, 240, 255);fill-opacity:1.0;fill-rule:evenodd;stroke:rgb(0, 0, 0);stroke-width:3.0;" d="M 491.383, 80.8753 L 484.409, 98.6045 L 471.149, 95.117 L 468.641, 80.4818 L 476.471, 71.089 z "/>
<path style="fill:rgb(79, 240, 255);fill-opacity:1.0;fill-rule:evenodd;stroke:rgb(0, 0, 0);stroke-width:3.0;" d="M 89.3781, 353.142 L 93.5557, 373.481 L 92.5518, 373.305 L 76.267, 354.473 L 76.4166, 345.746 z "/>
<path style="fill:rgb(215, 114, 197);fill-opacity:1.0;fill-rule:evenodd;stroke:rgb(0, 0, 0);stroke-width:3.0;" d="M 78.709, 376.884 L 109.474, 487.441 L 90.8571, 506.781 L 84.148, 498.013 L 53.7466, 422.49 L 66.3492, 363.314 L 70.8392, 362.411 z "/>
<path style="fill:rgb(255, 249, 8);fill-opacity:1.0;fill-rule:evenodd;stroke:rgb(0, 0, 0);stroke-width:3.0;" d="M 70.8989, 575.826 L 71.5837, 582.206 L 61.5388, 584.574 L 53.7755, 578.728 L 53.6915, 578.102 L 57.549, 572.159 z "/>
<path style="fill:rgb(246, 255, 55);fill-opacity:1.0;fill-rule:evenodd;stroke:rgb(0, 0, 0);stroke-width:3.0;" d="M 76.35, 349.629 L 71.415, 327.953 L 77.0044, 311.468 z "/>
<path style="fill:rgb(243, 3, 12);fill-opacity:1.0;fill-rule:evenodd;stroke:rgb(0, 0, 0);stroke-width:3.0;" d="M 66.5472, 242.556 L 77.3551, 291.015 L 77.0044, 311.468 L 71.415, 327.953 L 51.0702, 238.596 z "/>
<path style="fill:rgb(252, 38, 18);fill-opacity:1.0;fill-rule:evenodd;stroke:rgb(0, 0, 0);stroke-width:3.0;" d="M 505.406, 452.594 L 508.253, 544.459 L 421.693, 563.079 L 407.211, 466.605 L 465.269, 438.805 z "/>
<path style="fill:rgb(252, 38, 18);fill-opacity:1.0;fill-rule:evenodd;stroke:rgb(0, 0, 0);stroke-width:3.0;" d="M 441.368, 144.813 L 396.937, 200.811 L 367.995, 205.374 L 367.467, 201.858 L 404.563, 157.355 L 437.985, 142.493 z "/>
<path style="fill:rgb(252, 38, 18);fill-opacity:1.0;fill-rule:evenodd;stroke:rgb(0, 0, 0);stroke-width:3.0;" d="M 728.388, 154.288 L 726.621, 170.886 L 636.121, 172.071 L 638.159, 112.213 L 705.038, 67.6004 z "/>
<path style="fill:rgb(252, 38, 18);fill-opacity:1.0;fill-rule:evenodd;stroke:rgb(0, 0, 0);stroke-width:3.0;" d="M 493.32, 62.6822 L 493.739, 76.1916 L 483.191, 63.027 L 490.22, 54.5944 z "/>
<path style="fill:rgb(255, 255, 54);fill-opacity:1.0;fill-rule:evenodd;stroke:rgb(0, 0, 0);stroke-width:3.0;" d="M 548.959, 565.89 L 554.185, 579.404 L 530.249, 582.036 L 527.036, 559.601 z "/>
<path style="fill:rgb(95, 102, 255);fill-opacity:1.0;fill-rule:evenodd;stroke:rgb(0, 0, 0);stroke-width:3.0;" d="M 118.773, 520.858 L 107.691, 523.47 L 106.222, 490.819 L 109.474, 487.441 z "/>
<path style="fill:rgb(95, 102, 255);fill-opacity:1.0;fill-rule:evenodd;stroke:rgb(0, 0, 0);stroke-width:3.0;" d="M 560.969, 482.246 L 570.016, 516.081 L 565.068, 525.677 L 522.777, 472.472 L 536.632, 464.18 z "/>
<path style="fill:rgb(95, 102, 255);fill-opacity:1.0;fill-rule:evenodd;stroke:rgb(0, 0, 0);stroke-width:3.0;" d="M 128.205, 536.3 L 121.695, 531.36 L 117.668, 516.887 L 124.79, 516.344 z "/>
<path style="fill:rgb(95, 102, 255);fill-opacity:1.0;fill-rule:evenodd;stroke:rgb(0, 0, 0);stroke-width:3.0;" d="M 628.606, 196.167 L 614.285, 211.409 L 612.717, 200.286 L 621.779, 190.376 z "/>
<path style="fill:rgb(95, 102, 255);fill-opacity:1.0;fill-rule:evenodd;stroke:rgb(0, 0, 0);stroke-width:3.0;" d="M 556.545, 568.066 L 527.036, 559.601 L 524.955, 545.07 L 525.395, 544.883 z "/>
<path style="fill:rgb(95, 102, 255);fill-opacity:1.0;fill-rule:evenodd;stroke:rgb(0, 0, 0);stroke-width:3.0;" d="M 562.326, 569.724 L 559.371, 578.833 L 554.185, 579.404 L 548.959, 565.89 z "/>
<path style="fill:rgb(255, 43, 252);fill-opacity:1.0;fill-rule:evenodd;stroke:rgb(0, 0, 0);stroke-width:3.0;" d="M 63.6801, 491.895 L 77.2451, 499.095 L 76.9641, 516.787 L 65.6827, 506.201 L 59.3912, 494.613 L 60.2804, 491.253 z "/>
<path style="fill:rgb(255, 199, 19);fill-opacity:1.0;fill-rule:evenodd;stroke:rgb(0, 0, 0);stroke-width:3.0;" d="M 632.001, 273.794 L 610.472, 307.294 L 596.373, 270.607 L 623.943, 250.771 z "/>
<path style="fill:rgb(255, 240, 91);fill-opacity:1.0;fill-rule:evenodd;stroke:rgb(0, 0, 0);stroke-width:3.0;" d="M 529.058, 573.724 L 516.065, 575.178 L 508.697, 574.667 L 527.595, 563.503 z "/>
<path style="fill:rgb(243, 255, 18);fill-opacity:1.0;fill-rule:evenodd;stroke:rgb(0, 0, 0);stroke-width:3.0;" d="M 330.615, 582.671 L 303.93, 588.411 L 322.176, 576.582 z "/>
<path style="fill:rgb(27, 255, 223);fill-opacity:1.0;fill-rule:evenodd;stroke:rgb(0, 0, 0);stroke-width:3.0;" d="M 568.623, 283.201 L 568.49, 290.474 L 545.474, 268.569 L 547.603, 268.009 z "/>
<path style="fill:rgb(27, 255, 223);fill-opacity:1.0;fill-rule:evenodd;stroke:rgb(0, 0, 0);stroke-width:3.0;" d="M 45.0599, 506.75 L 58.0845, 523.572 L 55.8974, 530.343 L 38.5141, 503.934 z "/>
<path style="fill:rgb(192, 2, 22);fill-opacity:1.0;fill-rule:evenodd;stroke:rgb(0, 0, 0);stroke-width:3.0;" d="M 606.6, 339.318 L 617.8, 368.992 L 599.895, 347.049 L 605.116, 338.422 z "/>
<path style="fill:rgb(30, 119, 237);fill-opacity:1.0;fill-rule:evenodd;stroke:rgb(0, 0, 0);stroke-width:3.0;" d="M 88.7908, 535.172 L 97.589, 544.889 L 72.4778, 555.532 L 55.8974, 530.343 L 61.0171, 514.492 z "/>
<path style="fill:rgb(255, 202, 26);fill-opacity:1.0;fill-rule:evenodd;stroke:rgb(0, 0, 0);stroke-width:3.0;" d="M 494.516, 101.263 L 496.811, 175.312 L 483.4, 166.614 L 471.149, 95.117 z "/>
<path style="fill:rgb(22, 161, 220);fill-opacity:1.0;fill-rule:evenodd;stroke:rgb(0, 0, 0);stroke-width:3.0;" d="M 728.388, 154.288 L 705.038, 67.6004 L 740.108, 44.2062 z "/>
<path style="fill:rgb(22, 161, 220);fill-opacity:1.0;fill-rule:evenodd;stroke:rgb(0, 0, 0);stroke-width:3.0;" d="M 615.837, 375.367 L 623.847, 388.226 L 628.193, 404.867 L 628.11, 407.296 L 587.651, 373.897 L 600.449, 366.443 z "/>
<path style="fill:rgb(255, 150, 16);fill-opacity:1.0;fill-rule:evenodd;stroke:rgb(0, 0, 0);stroke-width:3.0;" d="M 661.617, 504.986 L 655.917, 512.694 L 627.015, 518.912 L 624.761, 505.627 L 624.893, 501.75 z "/>
<path style="fill:rgb(255, 150, 16);fill-opacity:1.0;fill-rule:evenodd;stroke:rgb(0, 0, 0);stroke-width:3.0;" d="M 709.837, 566.03 L 701.767, 575.718 L 688.614, 565.072 L 686.228, 561.596 L 692.827, 551.972 L 703.526, 550.719 z "/>
<path style="fill:rgb(255, 150, 16);fill-opacity:1.0;fill-rule:evenodd;stroke:rgb(0, 0, 0);stroke-width:3.0;" d="M 539.538, 64.9355 L 524.035, 78.9118 L 493.701, 74.9726 L 492.967, 51.2988 L 495.996, 47.665 z "/>
<path style="fill:rgb(255, 170, 44);fill-opacity:1.0;fill-rule:evenodd;stroke:rgb(0, 0, 0);stroke-width:3.0;" d="M 497.842, 208.56 L 370.292, 220.672 L 367.995, 205.374 L 497.112, 185.016 z "/>
<path style="fill:rgb(18, 217, 255);fill-opacity:1.0;fill-rule:evenodd;stroke:rgb(0, 0, 0);stroke-width:3.0;" d="M 446.701, 106.804 L 279.945, 306.856 L 251.639, 36.1157 z "/>
<path style="fill:rgb(240, 226, 10);fill-opacity:1.0;fill-rule:evenodd;stroke:rgb(0, 0, 0);stroke-width:3.0;" d="M 606.042, 389.08 L 602.68, 413.298 L 588.558, 414.208 L 579.803, 404.2 L 582.188, 369.388 z "/>
<path style="fill:rgb(249, 255, 121);fill-opacity:1.0;fill-rule:evenodd;stroke:rgb(0, 0, 0);stroke-width:3.0;" d="M 497.049, 182.994 L 497.112, 185.016 L 396.937, 200.811 L 441.368, 144.813 z "/>
<path style="fill:rgb(105, 252, 255);fill-opacity:1.0;fill-rule:evenodd;stroke:rgb(0, 0, 0);stroke-width:3.0;" d="M 282.255, 392.764 L 267.809, 412.757 L 168.758, 440.244 L 231.305, 365.208 z "/>
<path style="fill:rgb(105, 252, 255);fill-opacity:1.0;fill-rule:evenodd;stroke:rgb(0, 0, 0);stroke-width:3.0;" d="M 640.306, 260.009 L 646.717, 268.134 L 635.39, 271.651 L 632.789, 269.894 L 633.238, 256.713 z "/>
<path style="fill:rgb(37, 18, 246);fill-opacity:1.0;fill-rule:evenodd;stroke:rgb(0, 0, 0);stroke-width:3.0;" d="M 80.5755, 305.454 L 103.378, 407.695 L 99.8596, 400.271 L 96.5982, 388.295 L 79.3713, 304.423 z "/>
<path style="fill:rgb(255, 217, 7);fill-opacity:1.0;fill-rule:evenodd;stroke:rgb(0, 0, 0);stroke-width:3.0;" d="M 568.623, 283.201 L 547.603, 268.009 L 569.004, 262.371 z "/>
<path style="fill:rgb(255, 75, 8);fill-opacity:1.0;fill-rule:evenodd;stroke:rgb(0, 0, 0);stroke-width:3.0;" d="M 354.127, 283.141 L 335.239, 280.597 L 341.953, 252.352 z "/>
<path style="fill:rgb(255, 75, 8);fill-opacity:1.0;fill-rule:evenodd;stroke:rgb(0, 0, 0);stroke-width:3.0;" d="M 637.831, 121.866 L 622.491, 128.484 L 624.619, 121.245 L 638.159, 112.213 z "/>
<path style="fill:rgb(255, 240, 74);fill-opacity:1.0;fill-rule:evenodd;stroke:rgb(0, 0, 0);stroke-width:3.0;" d="M 592.705, 567.011 L 578.026, 576.782 L 577.561, 576.833 L 562.565, 576.045 L 565.609, 572.644 L 590.83, 565.596 z "/>
<path style="fill:rgb(255, 240, 74);fill-opacity:1.0;fill-rule:evenodd;stroke:rgb(0, 0, 0);stroke-width:3.0;" d="M 630.724, 330.524 L 620.415, 333.168 L 613.523, 315.234 L 631.644, 303.521 z "/>
<path style="fill:rgb(21, 255, 252);fill-opacity:1.0;fill-rule:evenodd;stroke:rgb(0, 0, 0);stroke-width:3.0;" d="M 632.598, 275.501 L 631.644, 303.521 L 613.523, 315.234 L 610.472, 307.294 L 632.001, 273.794 z "/>
<path style="fill:rgb(177, 91, 228);fill-opacity:1.0;fill-rule:evenodd;stroke:rgb(0, 0, 0);stroke-width:3.0;" d="M 635.459, 528.959 L 635.431, 529.032 L 631.978, 531.27 L 610.248, 524.589 L 612.811, 521.967 L 630.093, 518.25 z "/>
<path style="fill:rgb(255, 102, 8);fill-opacity:1.0;fill-rule:evenodd;stroke:rgb(0, 0, 0);stroke-width:3.0;" d="M 437.985, 142.493 L 404.563, 157.355 L 424.601, 133.316 z "/>
<path style="fill:rgb(255, 6, 17);fill-opacity:1.0;fill-rule:evenodd;stroke:rgb(0, 0, 0);stroke-width:3.0;" d="M 592.931, 185.497 L 498.89, 242.38 L 497.758, 205.871 L 533.083, 182.306 L 574.91, 160.186 z "/>
<path style="fill:rgb(255, 217, 35);fill-opacity:1.0;fill-rule:evenodd;stroke:rgb(0, 0, 0);stroke-width:3.0;" d="M 343.519, 579.895 L 337.884, 581.107 L 343.962, 562.458 L 379.765, 539.246 z "/>
<path style="fill:rgb(255, 217, 35);fill-opacity:1.0;fill-rule:evenodd;stroke:rgb(0, 0, 0);stroke-width:3.0;" d="M 636.562, 159.106 L 592.931, 185.497 L 574.91, 160.186 L 637.656, 127.003 z "/>
<path style="fill:rgb(243, 55, 123);fill-opacity:1.0;fill-rule:evenodd;stroke:rgb(0, 0, 0);stroke-width:3.0;" d="M 124.79, 516.344 L 117.668, 516.887 L 115.262, 508.242 L 118.099, 477.247 z "/>
<path style="fill:rgb(243, 55, 123);fill-opacity:1.0;fill-rule:evenodd;stroke:rgb(0, 0, 0);stroke-width:3.0;" d="M 575.41, 61.3725 L 574.919, 78.9686 L 495.996, 47.665 L 512.795, 27.5124 z "/>
<path style="fill:rgb(246, 24, 255);fill-opacity:1.0;fill-rule:evenodd;stroke:rgb(0, 0, 0);stroke-width:3.0;" d="M 575.812, 47.0039 L 575.41, 61.3725 L 512.795, 27.5124 L 514.069, 25.9831 L 535.205, 21.5783 z "/>
<path style="fill:rgb(255, 14, 115);fill-opacity:1.0;fill-rule:evenodd;stroke:rgb(0, 0, 0);stroke-width:3.0;" d="M 696.919, 338.6 L 769.734, 466.156 L 758.429, 472.705 L 660.765, 440.926 L 628.303, 401.633 L 630.89, 325.66 z "/>
<path style="fill:rgb(234, 48, 13);fill-opacity:1.0;fill-rule:evenodd;stroke:rgb(0, 0, 0);stroke-width:3.0;" d="M 108.882, 432.369 L 115.491, 462.004 L 118.099, 477.247 L 115.452, 506.164 L 114.573, 505.767 L 78.709, 376.884 z "/>
<path style="fill:rgb(243, 168, 12);fill-opacity:1.0;fill-rule:evenodd;stroke:rgb(0, 0, 0);stroke-width:3.0;" d="M 243.592, 446.274 L 250.487, 417.564 L 267.809, 412.757 z "/>
<path style="fill:rgb(255, 55, 182);fill-opacity:1.0;fill-rule:evenodd;stroke:rgb(0, 0, 0);stroke-width:3.0;" d="M 746.663, 11.6486 L 746.419, 17.0771 L 691.991, 56.645 L 679.473, 49.3399 L 734.989, 8.83879 z "/>
<path style="fill:rgb(255, 10, 11);fill-opacity:1.0;fill-rule:evenodd;stroke:rgb(0, 0, 0);stroke-width:3.0;" d="M 502.618, 362.649 L 505.406, 452.594 L 399.654, 416.265 L 370.292, 220.672 L 463.3, 211.84 z "/>
<path style="fill:rgb(255, 255, 37);fill-opacity:1.0;fill-rule:evenodd;stroke:rgb(0, 0, 0);stroke-width:3.0;" d="M 598.895, 535.46 L 560.145, 578.748 L 559.389, 578.831 L 594.067, 530.613 z "/>
<path style="fill:rgb(255, 255, 37);fill-opacity:1.0;fill-rule:evenodd;stroke:rgb(0, 0, 0);stroke-width:3.0;" d="M 502.618, 362.649 L 463.3, 211.84 L 497.842, 208.56 z "/>
<path style="fill:rgb(249, 62, 237);fill-opacity:1.0;fill-rule:evenodd;stroke:rgb(0, 0, 0);stroke-width:3.0;" d="M 52.8968, 495.529 L 54.0327, 497.51 L 54.8105, 510.944 L 42.1299, 505.489 L 41.1921, 494.771 L 47.8173, 489.919 z "/>
<path style="fill:rgb(255, 52, 33);fill-opacity:1.0;fill-rule:evenodd;stroke:rgb(0, 0, 0);stroke-width:3.0;" d="M 741.11, 43.5373 L 696.765, 73.119 L 707.648, 45.2623 L 724.294, 33.1615 z "/>
<path style="fill:rgb(255, 56, 255);fill-opacity:1.0;fill-rule:evenodd;stroke:rgb(0, 0, 0);stroke-width:3.0;" d="M 689.643, 41.921 L 673.592, 53.6302 L 672.181, 50.6085 L 673.016, 43.1824 L 676.318, 38.4566 z "/>
<path style="fill:rgb(255, 56, 255);fill-opacity:1.0;fill-rule:evenodd;stroke:rgb(0, 0, 0);stroke-width:3.0;" d="M 763.958, 18.1734 L 767.633, 25.8449 L 741.11, 43.5373 L 724.294, 33.1615 L 732.419, 27.2545 L 757.658, 16.5183 z "/>
<path style="fill:rgb(21, 255, 246);fill-opacity:1.0;fill-rule:evenodd;stroke:rgb(0, 0, 0);stroke-width:3.0;" d="M 633.173, 241.683 L 632.941, 243.914 L 629.603, 245.776 L 602.763, 250.609 L 611.58, 245.778 L 626.185, 241.291 z "/>
<path style="fill:rgb(249, 21, 184);fill-opacity:1.0;fill-rule:evenodd;stroke:rgb(0, 0, 0);stroke-width:3.0;" d="M 49.1451, 544.178 L 52.2472, 567.324 L 42.4993, 573.338 L 44.9766, 541.785 z "/>
<path style="fill:rgb(255, 237, 16);fill-opacity:1.0;fill-rule:evenodd;stroke:rgb(0, 0, 0);stroke-width:3.0;" d="M 549.473, 531.424 L 548.752, 535.747 L 522.413, 541.413 L 531.497, 509.849 z "/>
<path style="fill:rgb(240, 22, 220);fill-opacity:1.0;fill-rule:evenodd;stroke:rgb(0, 0, 0);stroke-width:3.0;" d="M 579.876, 403.147 L 566.497, 404.564 L 550.577, 397.07 L 545.121, 370.645 L 551.881, 368.433 L 582.804, 360.399 z "/>
<path style="fill:rgb(255, 255, 8);fill-opacity:1.0;fill-rule:evenodd;stroke:rgb(0, 0, 0);stroke-width:3.0;" d="M 61.8328, 479.654 L 48.505, 489.415 L 42.9808, 482.723 L 47.6431, 478.736 L 62.6629, 475.968 z "/>
<path style="fill:rgb(86, 152, 255);fill-opacity:1.0;fill-rule:evenodd;stroke:rgb(0, 0, 0);stroke-width:3.0;" d="M 668.011, 496.337 L 661.617, 504.986 L 624.893, 501.75 L 625.536, 482.883 z "/>
<path style="fill:rgb(252, 255, 23);fill-opacity:1.0;fill-rule:evenodd;stroke:rgb(0, 0, 0);stroke-width:3.0;" d="M 493.739, 76.1916 L 494.516, 101.263 L 484.409, 98.6045 L 493.394, 75.7616 z "/>
<path style="fill:rgb(255, 2, 9);fill-opacity:1.0;fill-rule:evenodd;stroke:rgb(0, 0, 0);stroke-width:3.0;" d="M 107.012, 508.39 L 102.204, 521.611 L 93.1502, 509.778 L 106.591, 499.038 z "/>
<path style="fill:rgb(255, 252, 32);fill-opacity:1.0;fill-rule:evenodd;stroke:rgb(0, 0, 0);stroke-width:3.0;" d="M 603.336, 330.67 L 602.662, 336.939 L 580.936, 323.815 L 568.166, 308.165 L 569.004, 262.371 L 576.785, 260.322 z "/>
<path style="fill:rgb(255, 0, 105);fill-opacity:1.0;fill-rule:evenodd;stroke:rgb(0, 0, 0);stroke-width:3.0;" d="M 50.6927, 454.289 L 41.3405, 475.547 L 36.8669, 436.22 z "/>
<path style="fill:rgb(207, 27, 41);fill-opacity:1.0;fill-rule:evenodd;stroke:rgb(0, 0, 0);stroke-width:3.0;" d="M 615.684, 336.651 L 607.72, 342.284 L 592.827, 302.826 L 600.284, 290.973 z "/>
<path style="fill:rgb(9, 51, 228);fill-opacity:1.0;fill-rule:evenodd;stroke:rgb(0, 0, 0);stroke-width:3.0;" d="M 691.991, 56.645 L 677.437, 67.2257 L 673.826, 53.4598 L 679.473, 49.3399 z "/>
<path style="fill:rgb(9, 51, 228);fill-opacity:1.0;fill-rule:evenodd;stroke:rgb(0, 0, 0);stroke-width:3.0;" d="M 600.284, 290.973 L 592.827, 302.826 L 575.005, 255.608 L 587.596, 253.34 z "/>
<path style="fill:rgb(255, 234, 17);fill-opacity:1.0;fill-rule:evenodd;stroke:rgb(0, 0, 0);stroke-width:3.0;" d="M 711.362, 562.493 L 703.739, 550.694 L 722.916, 548.448 z "/>
<path style="fill:rgb(204, 223, 7);fill-opacity:1.0;fill-rule:evenodd;stroke:rgb(0, 0, 0);stroke-width:3.0;" d="M 625.074, 496.427 L 611.969, 470.409 L 627.77, 417.263 z "/>
<path style="fill:rgb(246, 50, 19);fill-opacity:1.0;fill-rule:evenodd;stroke:rgb(0, 0, 0);stroke-width:3.0;" d="M 580.13, 496.47 L 570.016, 516.081 L 560.969, 482.246 z "/>
<path style="fill:rgb(249, 24, 255);fill-opacity:1.0;fill-rule:evenodd;stroke:rgb(0, 0, 0);stroke-width:3.0;" d="M 81.5854, 371.376 L 93.91, 375.206 L 96.3905, 387.283 L 92.0678, 389.605 L 83.3296, 385.381 L 75.9691, 371.845 L 75.994, 370.393 z "/>
<path style="fill:rgb(252, 9, 9);fill-opacity:1.0;fill-rule:evenodd;stroke:rgb(0, 0, 0);stroke-width:3.0;" d="M 110.859, 539.042 L 99.8589, 544.391 L 98.6827, 540.864 L 97.3546, 525.762 z "/>
<path style="fill:rgb(21, 66, 228);fill-opacity:1.0;fill-rule:evenodd;stroke:rgb(0, 0, 0);stroke-width:3.0;" d="M 579.83, 332.191 L 579.145, 343.412 L 566.813, 348.212 L 561.526, 317.954 z "/>
<path style="fill:rgb(220, 92, 6);fill-opacity:1.0;fill-rule:evenodd;stroke:rgb(0, 0, 0);stroke-width:3.0;" d="M 315.443, 346.832 L 282.255, 392.764 L 231.305, 365.208 L 295.005, 288.789 z "/>
<path style="fill:rgb(21, 50, 255);fill-opacity:1.0;fill-rule:evenodd;stroke:rgb(0, 0, 0);stroke-width:3.0;" d="M 92.926, 523.606 L 95.76, 532.102 L 90.0818, 529.096 L 76.9641, 516.787 L 77.2171, 500.856 z "/>
<path style="fill:rgb(170, 74, 97);fill-opacity:1.0;fill-rule:evenodd;stroke:rgb(0, 0, 0);stroke-width:3.0;" d="M 398.912, 584.431 L 399.008, 584.888 L 394.716, 592.934 L 382.066, 582.552 L 383.448, 576.835 z "/>
<path style="fill:rgb(170, 74, 97);fill-opacity:1.0;fill-rule:evenodd;stroke:rgb(0, 0, 0);stroke-width:3.0;" d="M 510.065, 77.0976 L 513.114, 88.7572 L 512.105, 89.667 L 501.232, 86.4795 L 498.924, 78.8442 L 504.549, 76.3813 z "/>
<path style="fill:rgb(102, 5, 85);fill-opacity:1.0;fill-rule:evenodd;stroke:rgb(0, 0, 0);stroke-width:3.0;" d="M 664.602, 554.733 L 672.14, 556.87 L 646.287, 569.275 L 642.19, 569.726 L 639.493, 560.228 L 644.812, 554.196 z "/>
<path style="fill:rgb(85, 1, 255);fill-opacity:1.0;fill-rule:evenodd;stroke:rgb(0, 0, 0);stroke-width:3.0;" d="M 44.3056, 550.331 L 41.7946, 582.314 L 32.9934, 539.18 z "/>
<path style="fill:rgb(7, 41, 255);fill-opacity:1.0;fill-rule:evenodd;stroke:rgb(0, 0, 0);stroke-width:3.0;" d="M 625.074, 496.427 L 624.289, 519.498 L 622.852, 519.807 L 602.918, 500.85 L 611.969, 470.409 z "/>
<path style="fill:rgb(237, 12, 60);fill-opacity:1.0;fill-rule:evenodd;stroke:rgb(0, 0, 0);stroke-width:3.0;" d="M 373.902, 429.902 L 404.742, 496.02 L 370.621, 503.535 L 335.653, 404.227 z "/>
<path style="fill:rgb(249, 170, 255);fill-opacity:1.0;fill-rule:evenodd;stroke:rgb(0, 0, 0);stroke-width:3.0;" d="M 492.944, 75.1999 L 485.536, 77.0384 L 476.471, 71.089 L 483.191, 63.027 z "/>
<path style="fill:rgb(255, 9, 140);fill-opacity:1.0;fill-rule:evenodd;stroke:rgb(0, 0, 0);stroke-width:3.0;" d="M 88.621, 503.859 L 102.857, 526.967 L 100.958, 529.306 L 92.782, 521.265 L 85.1248, 499.29 z "/>
<path style="fill:rgb(234, 88, 170);fill-opacity:1.0;fill-rule:evenodd;stroke:rgb(0, 0, 0);stroke-width:3.0;" d="M 635.818, 180.964 L 635.552, 188.774 L 628.606, 196.167 L 619.141, 188.138 L 630.152, 177.521 z "/>
<path style="fill:rgb(8, 0, 163);fill-opacity:1.0;fill-rule:evenodd;stroke:rgb(0, 0, 0);stroke-width:3.0;" d="M 706.903, 356.089 L 693.982, 333.455 L 709.797, 328.907 z "/>
<path style="fill:rgb(255, 110, 14);fill-opacity:1.0;fill-rule:evenodd;stroke:rgb(0, 0, 0);stroke-width:3.0;" d="M 721.215, 221.662 L 709.797, 328.907 L 693.982, 333.455 L 634.192, 228.713 L 636.121, 172.071 L 697.314, 171.269 z "/>
<path style="fill:rgb(255, 115, 44);fill-opacity:1.0;fill-rule:evenodd;stroke:rgb(0, 0, 0);stroke-width:3.0;" d="M 436.333, 582.722 L 415.388, 591.622 L 413.46, 583.405 L 436.689, 581.151 z "/>
<path style="fill:rgb(19, 86, 220);fill-opacity:1.0;fill-rule:evenodd;stroke:rgb(0, 0, 0);stroke-width:3.0;" d="M 562.326, 569.724 L 556.545, 568.066 L 525.395, 544.883 L 544.997, 536.555 L 575.19, 530.06 z "/>
<path style="fill:rgb(240, 255, 11);fill-opacity:1.0;fill-rule:evenodd;stroke:rgb(0, 0, 0);stroke-width:3.0;" d="M 585.965, 154.34 L 533.083, 182.306 L 589.349, 144.773 z "/>
<path style="fill:rgb(69, 1, 217);fill-opacity:1.0;fill-rule:evenodd;stroke:rgb(0, 0, 0);stroke-width:3.0;" d="M 567.459, 237.966 L 543.227, 261.33 L 499.72, 269.165 L 498.89, 242.38 L 623.924, 166.75 z "/>
</svg>