<?xml version="1.0" encoding="iso-8859-1" standalone="no"?>
<!DOCTYPE svg PUBLIC "-//W3C//DTD SVG 1.0//EN" "http://www.w3.org/TR/2001/REC-SVG-20010904/DTD/svg10.dtd">
<svg xmlns="http://www.w3.org/2000/svg" width="800" height="600">
<path style="fill:rgb(0, 0, 0);fill-opacity:0.0;fill-rule:evenodd;stroke:rgb(0, 0, 0);stroke-width:0.0;" d="M 0, 600 L 800, 600 L 800, 0 L 0, 0 z "/>
<path style="fill:rgb(35, 255, 231);fill-opacity:1.0;fill-rule:evenodd;stroke:rgb(0, 0, 0);stroke-width:3.0;" d="M 512.037, 374.714 L 517.907, 401.673 L 498.06, 410.572 L 473.982, 368.888 L 495.362, 366.75 z "/>
<path style="fill:rgb(35, 255, 231);fill-opacity:1.0;fill-rule:evenodd;stroke:rgb(0, 0, 0);stroke-width:3.0;" d="M 75.293, 209.608 L 95.6688, 242.276 L 92.6904, 244.989 L 75.9442, 251.283 L 62.0606, 209.872 L 69.7679, 205.482 z "/>
<path style="fill:rgb(35, 255, 231);fill-opacity:1.0;fill-rule:evenodd;stroke:rgb(0, 0, 0);stroke-width:3.0;" d="M 98.7131, 518.673 L 48.4609, 531.481 L 47.1764, 518.93 L 57.1325, 504.485 z "/>
<path style="fill:rgb(35, 255, 231);fill-opacity:1.0;fill-rule:evenodd;stroke:rgb(0, 0, 0);stroke-width:3.0;" d="M 373.697, 466.332 L 365.575, 469.973 L 359.028, 454.829 L 357.13, 440.238 L 368.275, 432.054 z "/>
<path style="fill:rgb(249, 27, 8);fill-opacity:1.0;fill-rule:evenodd;stroke:rgb(0, 0, 0);stroke-width:3.0;" d="M 375.03, 65.5394 L 375.576, 98.1108 L 371.429, 103.55 L 373.042, 65.1081 z "/>
<path style="fill:rgb(249, 27, 8);fill-opacity:1.0;fill-rule:evenodd;stroke:rgb(0, 0, 0);stroke-width:3.0;" d="M 615.027, 79.7576 L 577.671, 88.8793 L 565.831, 26.5443 L 565.783, 24.8227 z "/>
<path style="fill:rgb(249, 27, 8);fill-opacity:1.0;fill-rule:evenodd;stroke:rgb(0, 0, 0);stroke-width:3.0;" d="M 20.9208, 224.131 L 19.5772, 224.721 L 15.7728, 199.166 L 36.5628, 148.644 L 40.4765, 146.449 z "/>
<path style="fill:rgb(249, 27, 8);fill-opacity:1.0;fill-rule:evenodd;stroke:rgb(0, 0, 0);stroke-width:3.0;" d="M 468.14, 442.831 L 463.684, 445.967 L 429.531, 441.298 L 469.774, 423.254 z "/>
<path style="fill:rgb(249, 27, 8);fill-opacity:1.0;fill-rule:evenodd;stroke:rgb(0, 0, 0);stroke-width:3.0;" d="M 302.39, 409.617 L 248.763, 402.913 L 267.019, 353.91 L 268.273, 353.836 z "/>
<path style="fill:rgb(249, 27, 8);fill-opacity:1.0;fill-rule:evenodd;stroke:rgb(0, 0, 0);stroke-width:3.0;" d="M 679.931, 181.437 L 663.509, 195.477 L 662.02, 190.068 L 672.035, 178.33 z "/>
<path style="fill:rgb(249, 27, 8);fill-opacity:1.0;fill-rule:evenodd;stroke:rgb(0, 0, 0);stroke-width:3.0;" d="M 509.985, 365.288 L 502.662, 366.02 L 487.911, 340.84 L 504.449, 339.862 z "/>
<path style="fill:rgb(249, 27, 8);fill-opacity:1.0;fill-rule:evenodd;stroke:rgb(0, 0, 0);stroke-width:3.0;" d="M 763.074, 321.655 L 770.016, 343.49 L 713.045, 315.413 L 704.701, 291.097 z "/>
<path style="fill:rgb(249, 27, 8);fill-opacity:1.0;fill-rule:evenodd;stroke:rgb(0, 0, 0);stroke-width:3.0;" d="M 106.196, 232.685 L 95.6688, 242.276 L 75.293, 209.608 z "/>
<path style="fill:rgb(249, 27, 8);fill-opacity:1.0;fill-rule:evenodd;stroke:rgb(0, 0, 0);stroke-width:3.0;" d="M 782.772, 153.976 L 787.934, 164.732 L 787.691, 165.028 L 764.858, 182.174 L 741.108, 173.864 L 754.188, 147.776 z "/>
<path style="fill:rgb(249, 27, 8);fill-opacity:1.0;fill-rule:evenodd;stroke:rgb(0, 0, 0);stroke-width:3.0;" d="M 449.34, 432.416 L 423.771, 443.88 L 427.086, 422.933 z "/>
<path style="fill:rgb(249, 27, 8);fill-opacity:1.0;fill-rule:evenodd;stroke:rgb(0, 0, 0);stroke-width:3.0;" d="M 61.808, 177.421 L 56, 191.795 L 50.2819, 174.739 L 50.2782, 162.138 z "/>
<path style="fill:rgb(249, 27, 8);fill-opacity:1.0;fill-rule:evenodd;stroke:rgb(0, 0, 0);stroke-width:3.0;" d="M 403.452, 480.029 L 405.482, 505.961 L 384.397, 513.514 L 369.049, 478.01 z "/>
<path style="fill:rgb(243, 252, 23);fill-opacity:1.0;fill-rule:evenodd;stroke:rgb(0, 0, 0);stroke-width:3.0;" d="M 708.37, 325.031 L 695.774, 365.841 L 632.06, 360.016 L 629.848, 358.104 L 677.514, 299.799 z "/>
<path style="fill:rgb(243, 252, 23);fill-opacity:1.0;fill-rule:evenodd;stroke:rgb(0, 0, 0);stroke-width:3.0;" d="M 379.746, 347.24 L 236.789, 355.699 L 376.279, 140.113 z "/>
<path style="fill:rgb(255, 40, 60);fill-opacity:1.0;fill-rule:evenodd;stroke:rgb(0, 0, 0);stroke-width:3.0;" d="M 130.042, 412.646 L 114.113, 408.288 L 97.8359, 316.582 z "/>
<path style="fill:rgb(207, 255, 23);fill-opacity:1.0;fill-rule:evenodd;stroke:rgb(0, 0, 0);stroke-width:3.0;" d="M 402.938, 473.458 L 383.688, 478.651 L 382.681, 476.993 L 401.853, 459.599 z "/>
<path style="fill:rgb(255, 10, 17);fill-opacity:1.0;fill-rule:evenodd;stroke:rgb(0, 0, 0);stroke-width:3.0;" d="M 148.537, 390.914 L 123.646, 393.568 L 111.884, 358.485 L 162.414, 353.367 z "/>
<path style="fill:rgb(49, 243, 255);fill-opacity:1.0;fill-rule:evenodd;stroke:rgb(0, 0, 0);stroke-width:3.0;" d="M 43.4131, 141.739 L 62.1581, 169.53 L 63.4465, 173.366 L 61.808, 177.421 L 42.6818, 152.069 L 40.5885, 145.825 L 41.5359, 140.86 z "/>
<path style="fill:rgb(49, 243, 255);fill-opacity:1.0;fill-rule:evenodd;stroke:rgb(0, 0, 0);stroke-width:3.0;" d="M 607.171, 406.229 L 674.013, 436.345 L 671.445, 444.665 L 580.695, 418.229 L 590.954, 405.68 z "/>
<path style="fill:rgb(19, 89, 255);fill-opacity:1.0;fill-rule:evenodd;stroke:rgb(0, 0, 0);stroke-width:3.0;" d="M 733.814, 250.525 L 712.877, 275.354 L 701.481, 272.732 L 700.203, 272.045 L 723.793, 243.19 z "/>
<path style="fill:rgb(19, 89, 255);fill-opacity:1.0;fill-rule:evenodd;stroke:rgb(0, 0, 0);stroke-width:3.0;" d="M 87.4424, 551.069 L 84.9348, 554.187 L 52.306, 569.053 L 49.3194, 539.87 z "/>
<path style="fill:rgb(19, 89, 255);fill-opacity:1.0;fill-rule:evenodd;stroke:rgb(0, 0, 0);stroke-width:3.0;" d="M 356.425, 357.146 L 357.643, 364.846 L 353.134, 375.14 L 348.925, 377.19 L 346.001, 354.721 z "/>
<path style="fill:rgb(19, 89, 255);fill-opacity:1.0;fill-rule:evenodd;stroke:rgb(0, 0, 0);stroke-width:3.0;" d="M 355.571, 428.257 L 345.343, 412.359 L 347.018, 362.531 z "/>
<path style="fill:rgb(19, 89, 255);fill-opacity:1.0;fill-rule:evenodd;stroke:rgb(0, 0, 0);stroke-width:3.0;" d="M 95.957, 533.18 L 81.3249, 538.521 L 53.411, 541.072 L 49.3194, 539.87 L 48.4609, 531.481 L 101.589, 517.94 z "/>
<path style="fill:rgb(19, 89, 255);fill-opacity:1.0;fill-rule:evenodd;stroke:rgb(0, 0, 0);stroke-width:3.0;" d="M 94.8239, 266.472 L 90.6323, 273.681 L 86.015, 281.322 L 78.9172, 260.151 z "/>
<path style="fill:rgb(168, 177, 243);fill-opacity:1.0;fill-rule:evenodd;stroke:rgb(0, 0, 0);stroke-width:3.0;" d="M 357.005, 450.149 L 332.137, 458.254 L 321.357, 440.629 L 349.589, 432.994 z "/>
<path style="fill:rgb(168, 177, 243);fill-opacity:1.0;fill-rule:evenodd;stroke:rgb(0, 0, 0);stroke-width:3.0;" d="M 340.822, 422.5 L 307.497, 417.967 L 306.433, 416.228 L 325.074, 410.799 z "/>
<path style="fill:rgb(168, 177, 243);fill-opacity:1.0;fill-rule:evenodd;stroke:rgb(0, 0, 0);stroke-width:3.0;" d="M 186.16, 289.115 L 153.446, 266.235 L 196.488, 261.172 z "/>
<path style="fill:rgb(168, 177, 243);fill-opacity:1.0;fill-rule:evenodd;stroke:rgb(0, 0, 0);stroke-width:3.0;" d="M 771.232, 288.786 L 712.877, 275.354 L 739.843, 243.375 z "/>
<path style="fill:rgb(223, 255, 9);fill-opacity:1.0;fill-rule:evenodd;stroke:rgb(0, 0, 0);stroke-width:3.0;" d="M 142.532, 267.231 L 151.244, 288.894 L 133.779, 281.953 L 139.547, 266.908 z "/>
<path style="fill:rgb(223, 255, 9);fill-opacity:1.0;fill-rule:evenodd;stroke:rgb(0, 0, 0);stroke-width:3.0;" d="M 102.983, 269.715 L 99.0658, 279.187 L 87.9887, 287.21 L 86.0785, 281.512 L 94.8239, 266.472 z "/>
<path style="fill:rgb(223, 255, 9);fill-opacity:1.0;fill-rule:evenodd;stroke:rgb(0, 0, 0);stroke-width:3.0;" d="M 171.214, 296.829 L 181.76, 301.02 L 179.207, 307.928 L 119.104, 304.217 L 121.459, 292.063 z "/>
<path style="fill:rgb(223, 255, 9);fill-opacity:1.0;fill-rule:evenodd;stroke:rgb(0, 0, 0);stroke-width:3.0;" d="M 644.413, 112.539 L 647.065, 124.542 L 590.028, 112.171 L 620.266, 85.6015 z "/>
<path style="fill:rgb(223, 255, 9);fill-opacity:1.0;fill-rule:evenodd;stroke:rgb(0, 0, 0);stroke-width:3.0;" d="M 479.557, 88.2105 L 468.46, 85.8037 L 467.5, 68.641 L 477.945, 48.615 z "/>
<path style="fill:rgb(223, 255, 9);fill-opacity:1.0;fill-rule:evenodd;stroke:rgb(0, 0, 0);stroke-width:3.0;" d="M 179.677, 542.494 L 154.9, 535.508 L 152.019, 522.843 L 160.635, 519.63 z "/>
<path style="fill:rgb(223, 255, 9);fill-opacity:1.0;fill-rule:evenodd;stroke:rgb(0, 0, 0);stroke-width:3.0;" d="M 120.115, 442.098 L 123.198, 459.472 L 120.936, 465.595 L 83.7646, 465.847 L 86.1121, 462.441 L 110.173, 441.967 z "/>
<path style="fill:rgb(223, 255, 9);fill-opacity:1.0;fill-rule:evenodd;stroke:rgb(0, 0, 0);stroke-width:3.0;" d="M 121.332, 340.876 L 114.283, 355.571 L 110.518, 354.41 L 104.041, 335.089 L 117.459, 330.375 z "/>
<path style="fill:rgb(223, 255, 9);fill-opacity:1.0;fill-rule:evenodd;stroke:rgb(0, 0, 0);stroke-width:3.0;" d="M 786.009, 318.156 L 771.837, 342.588 L 765.787, 307.288 z "/>
<path style="fill:rgb(223, 255, 9);fill-opacity:1.0;fill-rule:evenodd;stroke:rgb(0, 0, 0);stroke-width:3.0;" d="M 213.772, 496.834 L 122.846, 526.47 L 100.74, 520.237 L 127.053, 449.043 L 228.635, 356.182 L 267.019, 353.91 z "/>
<path style="fill:rgb(223, 255, 9);fill-opacity:1.0;fill-rule:evenodd;stroke:rgb(0, 0, 0);stroke-width:3.0;" d="M 101.589, 517.94 L 98.7131, 518.673 L 57.1325, 504.485 L 83.7646, 465.847 L 120.936, 465.595 z "/>
<path style="fill:rgb(223, 255, 9);fill-opacity:1.0;fill-rule:evenodd;stroke:rgb(0, 0, 0);stroke-width:3.0;" d="M 676.564, 130.94 L 674.592, 172.304 L 609.214, 116.332 z "/>
<path style="fill:rgb(223, 255, 9);fill-opacity:1.0;fill-rule:evenodd;stroke:rgb(0, 0, 0);stroke-width:3.0;" d="M 495.648, 522.259 L 468.709, 555.211 L 452.314, 538.618 L 492.167, 513.835 z "/>
<path style="fill:rgb(255, 255, 32);fill-opacity:1.0;fill-rule:evenodd;stroke:rgb(0, 0, 0);stroke-width:3.0;" d="M 456.882, 287.19 L 451.424, 269.957 L 481.336, 266.741 z "/>
<path style="fill:rgb(255, 255, 32);fill-opacity:1.0;fill-rule:evenodd;stroke:rgb(0, 0, 0);stroke-width:3.0;" d="M 130.042, 412.646 L 131.908, 418.211 L 128.968, 436.016 L 117.705, 428.525 L 114.113, 408.288 z "/>
<path style="fill:rgb(18, 255, 146);fill-opacity:1.0;fill-rule:evenodd;stroke:rgb(0, 0, 0);stroke-width:3.0;" d="M 76.1014, 142.049 L 63.4465, 173.366 L 53.0476, 142.407 L 70.1827, 138.212 z "/>
<path style="fill:rgb(255, 5, 165);fill-opacity:1.0;fill-rule:evenodd;stroke:rgb(0, 0, 0);stroke-width:3.0;" d="M 494.985, 91.5567 L 633.217, 223.827 L 618.727, 240.81 L 558.203, 258.478 L 489.561, 265.857 L 377.879, 235.696 L 375.03, 65.5394 z "/>
<path style="fill:rgb(255, 5, 165);fill-opacity:1.0;fill-rule:evenodd;stroke:rgb(0, 0, 0);stroke-width:3.0;" d="M 701.422, 438.473 L 766.998, 467.896 L 687.238, 546.511 L 649.762, 514.913 L 672.098, 442.547 L 681.303, 436.583 z "/>
<path style="fill:rgb(228, 179, 255);fill-opacity:1.0;fill-rule:evenodd;stroke:rgb(0, 0, 0);stroke-width:3.0;" d="M 395.951, 462.752 L 380.072, 475.446 L 375.891, 465.348 L 390.033, 459.007 z "/>
<path style="fill:rgb(228, 179, 255);fill-opacity:1.0;fill-rule:evenodd;stroke:rgb(0, 0, 0);stroke-width:3.0;" d="M 554.674, 450.058 L 544.607, 389.702 L 638.394, 347.651 z "/>
<path style="fill:rgb(228, 179, 255);fill-opacity:1.0;fill-rule:evenodd;stroke:rgb(0, 0, 0);stroke-width:3.0;" d="M 308.972, 88.5945 L 304.769, 190.982 L 176.465, 359.268 L 159.87, 360.25 L 273, 54.1528 z "/>
<path style="fill:rgb(228, 179, 255);fill-opacity:1.0;fill-rule:evenodd;stroke:rgb(0, 0, 0);stroke-width:3.0;" d="M 634.05, 65.6491 L 637.405, 80.8309 L 635.379, 98.9972 L 607.097, 60.1228 z "/>
<path style="fill:rgb(228, 179, 255);fill-opacity:1.0;fill-rule:evenodd;stroke:rgb(0, 0, 0);stroke-width:3.0;" d="M 48.4638, 169.316 L 42.772, 196.395 L 29.6085, 207.934 L 28.2805, 194.895 L 34.6158, 169.729 L 44.1733, 156.518 z "/>
<path style="fill:rgb(228, 179, 255);fill-opacity:1.0;fill-rule:evenodd;stroke:rgb(0, 0, 0);stroke-width:3.0;" d="M 40.7466, 146.297 L 23.8526, 155.773 L 9.57602, 144.534 L 37.3105, 136.048 z "/>
<path style="fill:rgb(228, 179, 255);fill-opacity:1.0;fill-rule:evenodd;stroke:rgb(0, 0, 0);stroke-width:3.0;" d="M 191.554, 582.609 L 184.708, 591.119 L 182.353, 592.471 L 181.846, 573.842 L 182.795, 572.108 z "/>
<path style="fill:rgb(228, 179, 255);fill-opacity:1.0;fill-rule:evenodd;stroke:rgb(0, 0, 0);stroke-width:3.0;" d="M 139.547, 266.908 L 136.297, 275.383 L 124.089, 278.102 L 107.917, 271.676 L 104.881, 267.847 L 106.828, 263.367 z "/>
<path style="fill:rgb(228, 179, 255);fill-opacity:1.0;fill-rule:evenodd;stroke:rgb(0, 0, 0);stroke-width:3.0;" d="M 133.455, 266.249 L 101.853, 262.829 L 137.394, 259.042 z "/>
<path style="fill:rgb(228, 179, 255);fill-opacity:1.0;fill-rule:evenodd;stroke:rgb(0, 0, 0);stroke-width:3.0;" d="M 683.771, 404.728 L 682.521, 408.78 L 590.954, 405.68 L 607.348, 385.627 L 659.629, 383.854 z "/>
<path style="fill:rgb(9, 255, 255);fill-opacity:1.0;fill-rule:evenodd;stroke:rgb(0, 0, 0);stroke-width:3.0;" d="M 788.469, 446.653 L 739.132, 455.284 L 755.296, 443.536 z "/>
<path style="fill:rgb(9, 255, 255);fill-opacity:1.0;fill-rule:evenodd;stroke:rgb(0, 0, 0);stroke-width:3.0;" d="M 144.128, 395.58 L 145.814, 398.28 L 143.095, 405.638 L 130.123, 412.888 L 129.201, 410.136 L 138.235, 395.369 z "/>
<path style="fill:rgb(66, 197, 255);fill-opacity:1.0;fill-rule:evenodd;stroke:rgb(0, 0, 0);stroke-width:3.0;" d="M 347.018, 362.531 L 345.343, 412.359 L 331.099, 390.219 L 314.196, 351.119 L 345.293, 349.279 z "/>
<path style="fill:rgb(66, 197, 255);fill-opacity:1.0;fill-rule:evenodd;stroke:rgb(0, 0, 0);stroke-width:3.0;" d="M 196.488, 261.172 L 153.446, 266.235 L 150.565, 264.22 L 154.724, 256.942 L 204.052, 240.706 z "/>
<path style="fill:rgb(66, 197, 255);fill-opacity:1.0;fill-rule:evenodd;stroke:rgb(0, 0, 0);stroke-width:3.0;" d="M 30.6676, 248.938 L 25.0001, 261.278 L 10.4159, 266.552 L 8.60786, 233.953 L 10.9653, 231.435 z "/>
<path style="fill:rgb(212, 0, 7);fill-opacity:1.0;fill-rule:evenodd;stroke:rgb(0, 0, 0);stroke-width:3.0;" d="M 659.629, 383.854 L 643.091, 384.415 L 640.878, 367.641 z "/>
<path style="fill:rgb(212, 0, 7);fill-opacity:1.0;fill-rule:evenodd;stroke:rgb(0, 0, 0);stroke-width:3.0;" d="M 661.377, 532.941 L 662.406, 534.436 L 643.816, 552.032 L 650.606, 531 z "/>
<path style="fill:rgb(212, 0, 7);fill-opacity:1.0;fill-rule:evenodd;stroke:rgb(0, 0, 0);stroke-width:3.0;" d="M 104.793, 262.516 L 101.853, 262.829 L 100.813, 262.716 L 92.3292, 252.018 L 110.325, 250.989 z "/>
<path style="fill:rgb(212, 0, 7);fill-opacity:1.0;fill-rule:evenodd;stroke:rgb(0, 0, 0);stroke-width:3.0;" d="M 124.64, 286.5 L 117.228, 291.376 L 102.056, 287.127 L 118.275, 281.907 z "/>
<path style="fill:rgb(255, 138, 255);fill-opacity:1.0;fill-rule:evenodd;stroke:rgb(0, 0, 0);stroke-width:3.0;" d="M 505.644, 505.455 L 410.093, 564.873 L 407.02, 525.606 L 496.156, 473.621 z "/>
<path style="fill:rgb(157, 0, 6);fill-opacity:1.0;fill-rule:evenodd;stroke:rgb(0, 0, 0);stroke-width:3.0;" d="M 210.542, 551.197 L 179.677, 542.494 L 157.047, 515.323 L 166.426, 512.266 z "/>
<path style="fill:rgb(157, 0, 6);fill-opacity:1.0;fill-rule:evenodd;stroke:rgb(0, 0, 0);stroke-width:3.0;" d="M 97.8359, 316.582 L 105.918, 362.118 L 76.816, 353.644 L 96.2889, 311.967 z "/>
<path style="fill:rgb(157, 0, 6);fill-opacity:1.0;fill-rule:evenodd;stroke:rgb(0, 0, 0);stroke-width:3.0;" d="M 502.662, 366.02 L 473.982, 368.888 L 458.777, 342.564 L 487.911, 340.84 z "/>
<path style="fill:rgb(157, 0, 6);fill-opacity:1.0;fill-rule:evenodd;stroke:rgb(0, 0, 0);stroke-width:3.0;" d="M 171.464, 40.7398 L 174.445, 44.1848 L 123.423, 40.9077 L 123.14, 33.9656 L 132.742, 32.4229 z "/>
<path style="fill:rgb(157, 0, 6);fill-opacity:1.0;fill-rule:evenodd;stroke:rgb(0, 0, 0);stroke-width:3.0;" d="M 85.351, 581.255 L 74.2067, 592.03 L 84.6047, 563.896 L 91.251, 563.41 z "/>
<path style="fill:rgb(157, 0, 6);fill-opacity:1.0;fill-rule:evenodd;stroke:rgb(0, 0, 0);stroke-width:3.0;" d="M 430.675, 511.81 L 422.253, 516.722 L 406.041, 513.097 L 405.669, 508.347 L 406.585, 507.94 z "/>
<path style="fill:rgb(157, 0, 6);fill-opacity:1.0;fill-rule:evenodd;stroke:rgb(0, 0, 0);stroke-width:3.0;" d="M 58.5744, 199.473 L 47.2854, 202.623 L 42.9087, 195.745 L 44.0213, 190.452 L 55.2641, 189.599 z "/>
<path style="fill:rgb(157, 0, 6);fill-opacity:1.0;fill-rule:evenodd;stroke:rgb(0, 0, 0);stroke-width:3.0;" d="M 199.203, 242.302 L 143.731, 260.56 L 136.706, 238.762 z "/>
<path style="fill:rgb(157, 0, 6);fill-opacity:1.0;fill-rule:evenodd;stroke:rgb(0, 0, 0);stroke-width:3.0;" d="M 754.137, 443.427 L 734.081, 453.126 L 732.066, 452.222 L 736.637, 441.782 z "/>
<path style="fill:rgb(240, 85, 228);fill-opacity:1.0;fill-rule:evenodd;stroke:rgb(0, 0, 0);stroke-width:3.0;" d="M 149.652, 306.103 L 140.906, 317.101 L 137.446, 320.093 L 131.185, 316.165 L 125.994, 304.642 z "/>
<path style="fill:rgb(240, 85, 228);fill-opacity:1.0;fill-rule:evenodd;stroke:rgb(0, 0, 0);stroke-width:3.0;" d="M 528.39, 443.443 L 487.941, 446.059 L 479.804, 418.757 L 507.816, 406.198 z "/>
<path style="fill:rgb(110, 255, 255);fill-opacity:1.0;fill-rule:evenodd;stroke:rgb(0, 0, 0);stroke-width:3.0;" d="M 554.674, 450.058 L 541.169, 466.578 L 507.816, 406.198 L 544.607, 389.702 z "/>
<path style="fill:rgb(220, 16, 243);fill-opacity:1.0;fill-rule:evenodd;stroke:rgb(0, 0, 0);stroke-width:3.0;" d="M 176.289, 44.3032 L 127.938, 106.656 L 100.139, 65.2246 L 125.416, 41.0358 z "/>
<path style="fill:rgb(220, 16, 243);fill-opacity:1.0;fill-rule:evenodd;stroke:rgb(0, 0, 0);stroke-width:3.0;" d="M 620.266, 85.6015 L 590.028, 112.171 L 568.065, 107.407 L 567.957, 103.512 L 611.266, 80.676 L 615.027, 79.7576 z "/>
<path style="fill:rgb(220, 16, 243);fill-opacity:1.0;fill-rule:evenodd;stroke:rgb(0, 0, 0);stroke-width:3.0;" d="M 274.313, 50.5991 L 208.964, 227.416 L 127.938, 106.656 L 176.289, 44.3032 z "/>
<path style="fill:rgb(240, 107, 23);fill-opacity:1.0;fill-rule:evenodd;stroke:rgb(0, 0, 0);stroke-width:3.0;" d="M 82.3702, 117.638 L 69.9524, 133.077 L 46.9207, 123.134 L 29.1108, 111.59 L 28.6527, 110.223 L 73.919, 96.6242 z "/>
<path style="fill:rgb(12, 189, 255);fill-opacity:1.0;fill-rule:evenodd;stroke:rgb(0, 0, 0);stroke-width:3.0;" d="M 490.006, 396.63 L 498.06, 410.572 L 449.34, 432.416 L 362.477, 395.402 L 361.026, 386.231 z "/>
<path style="fill:rgb(255, 231, 15);fill-opacity:1.0;fill-rule:evenodd;stroke:rgb(0, 0, 0);stroke-width:3.0;" d="M 771.714, 184.573 L 769.408, 187.392 L 732.263, 191.506 L 741.108, 173.864 z "/>
<path style="fill:rgb(255, 231, 15);fill-opacity:1.0;fill-rule:evenodd;stroke:rgb(0, 0, 0);stroke-width:3.0;" d="M 114.075, 196.473 L 128.217, 231.637 L 126.661, 232.222 L 98.4577, 186.268 L 96.4037, 173.539 z "/>
<path style="fill:rgb(249, 0, 165);fill-opacity:1.0;fill-rule:evenodd;stroke:rgb(0, 0, 0);stroke-width:3.0;" d="M 494.74, 468.87 L 405.669, 508.347 L 402.89, 472.842 L 487.307, 443.931 z "/>
<path style="fill:rgb(249, 0, 165);fill-opacity:1.0;fill-rule:evenodd;stroke:rgb(0, 0, 0);stroke-width:3.0;" d="M 747.05, 231.497 L 739.118, 224.443 L 761.216, 197.414 z "/>
<path style="fill:rgb(255, 0, 22);fill-opacity:1.0;fill-rule:evenodd;stroke:rgb(0, 0, 0);stroke-width:3.0;" d="M 687.238, 546.511 L 647.186, 585.989 L 651.503, 544.756 L 667.357, 529.749 z "/>
<path style="fill:rgb(255, 0, 22);fill-opacity:1.0;fill-rule:evenodd;stroke:rgb(0, 0, 0);stroke-width:3.0;" d="M 256.006, 553.461 L 284.57, 572.069 L 284.073, 571.929 L 231.582, 553.024 z "/>
<path style="fill:rgb(255, 0, 22);fill-opacity:1.0;fill-rule:evenodd;stroke:rgb(0, 0, 0);stroke-width:3.0;" d="M 345.317, 423.111 L 346.776, 426.486 L 315.447, 430.966 L 307.497, 417.967 z "/>
<path style="fill:rgb(18, 8, 226);fill-opacity:1.0;fill-rule:evenodd;stroke:rgb(0, 0, 0);stroke-width:3.0;" d="M 312.539, 572.657 L 328.192, 584.368 L 284.57, 572.069 L 263.439, 558.304 L 267.655, 554.12 z "/>
<path style="fill:rgb(234, 16, 138);fill-opacity:1.0;fill-rule:evenodd;stroke:rgb(0, 0, 0);stroke-width:3.0;" d="M 355.262, 124.755 L 304.769, 190.982 L 310.31, 56.0021 z "/>
<path style="fill:rgb(234, 16, 138);fill-opacity:1.0;fill-rule:evenodd;stroke:rgb(0, 0, 0);stroke-width:3.0;" d="M 335.254, 399.832 L 304.967, 405.476 L 325.097, 376.336 z "/>
<path style="fill:rgb(234, 16, 138);fill-opacity:1.0;fill-rule:evenodd;stroke:rgb(0, 0, 0);stroke-width:3.0;" d="M 785.721, 188.968 L 757.209, 222.78 L 749.949, 224.521 L 761.216, 197.414 L 778.556, 176.203 z "/>
<path style="fill:rgb(255, 207, 18);fill-opacity:1.0;fill-rule:evenodd;stroke:rgb(0, 0, 0);stroke-width:3.0;" d="M 154.9, 535.508 L 122.846, 526.47 L 150.773, 517.368 z "/>
<path style="fill:rgb(255, 207, 18);fill-opacity:1.0;fill-rule:evenodd;stroke:rgb(0, 0, 0);stroke-width:3.0;" d="M 496.156, 473.621 L 430.675, 511.81 L 428.359, 511.438 L 447.296, 489.897 L 494.74, 468.87 z "/>
<path style="fill:rgb(255, 207, 18);fill-opacity:1.0;fill-rule:evenodd;stroke:rgb(0, 0, 0);stroke-width:3.0;" d="M 84.0858, 565.3 L 73.6808, 593.453 L 68.1061, 576.636 L 83.6842, 564.459 z "/>
<path style="fill:rgb(136, 220, 184);fill-opacity:1.0;fill-rule:evenodd;stroke:rgb(0, 0, 0);stroke-width:3.0;" d="M 602.407, 114.856 L 645.97, 208.88 L 633.217, 223.827 L 494.985, 91.5567 z "/>
<path style="fill:rgb(136, 220, 184);fill-opacity:1.0;fill-rule:evenodd;stroke:rgb(0, 0, 0);stroke-width:3.0;" d="M 33.1136, 391.747 L 27.5255, 381.107 L 26.6116, 375.468 L 40.4814, 371.723 z "/>
<path style="fill:rgb(136, 220, 184);fill-opacity:1.0;fill-rule:evenodd;stroke:rgb(0, 0, 0);stroke-width:3.0;" d="M 434.134, 279.604 L 428.457, 292.329 L 414.361, 273.941 L 420.945, 273.233 z "/>
<path style="fill:rgb(136, 220, 184);fill-opacity:1.0;fill-rule:evenodd;stroke:rgb(0, 0, 0);stroke-width:3.0;" d="M 672.849, 408.452 L 656.099, 418.543 L 646.984, 420.951 L 633.206, 417.959 L 607.171, 406.229 z "/>
<path style="fill:rgb(136, 220, 184);fill-opacity:1.0;fill-rule:evenodd;stroke:rgb(0, 0, 0);stroke-width:3.0;" d="M 455.29, 288.52 L 481.336, 266.741 L 558.203, 258.478 z "/>
<path style="fill:rgb(136, 220, 184);fill-opacity:1.0;fill-rule:evenodd;stroke:rgb(0, 0, 0);stroke-width:3.0;" d="M 408.678, 546.8 L 410.102, 564.998 L 398.405, 545.656 L 398.063, 540.818 z "/>
<path style="fill:rgb(255, 132, 98);fill-opacity:1.0;fill-rule:evenodd;stroke:rgb(0, 0, 0);stroke-width:3.0;" d="M 325.097, 376.336 L 304.967, 405.476 L 300.38, 406.33 L 268.273, 353.836 L 314.196, 351.119 z "/>
<path style="fill:rgb(255, 132, 98);fill-opacity:1.0;fill-rule:evenodd;stroke:rgb(0, 0, 0);stroke-width:3.0;" d="M 276.676, 44.2069 L 275.892, 46.3277 L 214.673, 37.5315 L 222.808, 32.5235 z "/>
<path style="fill:rgb(223, 240, 7);fill-opacity:1.0;fill-rule:evenodd;stroke:rgb(0, 0, 0);stroke-width:3.0;" d="M 133.94, 249.639 L 94.3191, 251.905 L 85.6069, 247.652 L 125.741, 232.567 z "/>
<path style="fill:rgb(13, 212, 175);fill-opacity:1.0;fill-rule:evenodd;stroke:rgb(0, 0, 0);stroke-width:3.0;" d="M 459.748, 83.5032 L 456.428, 77.5161 L 475.907, 47.8115 L 480.614, 43.4972 z "/>
<path style="fill:rgb(13, 212, 175);fill-opacity:1.0;fill-rule:evenodd;stroke:rgb(0, 0, 0);stroke-width:3.0;" d="M 487.307, 443.931 L 472.581, 448.974 L 474.794, 421.004 L 479.804, 418.757 z "/>
<path style="fill:rgb(13, 212, 175);fill-opacity:1.0;fill-rule:evenodd;stroke:rgb(0, 0, 0);stroke-width:3.0;" d="M 102.722, 290.268 L 106.038, 303.101 L 96.3771, 312.23 L 88.5591, 288.911 z "/>
<path style="fill:rgb(246, 0, 10);fill-opacity:1.0;fill-rule:evenodd;stroke:rgb(0, 0, 0);stroke-width:3.0;" d="M 489.561, 265.857 L 378.583, 277.787 L 377.879, 235.696 z "/>
<path style="fill:rgb(246, 0, 10);fill-opacity:1.0;fill-rule:evenodd;stroke:rgb(0, 0, 0);stroke-width:3.0;" d="M 107.088, 200.33 L 115.1, 236.567 L 112.635, 237.493 L 86.0358, 217.63 L 106.723, 199.736 z "/>
<path style="fill:rgb(246, 0, 10);fill-opacity:1.0;fill-rule:evenodd;stroke:rgb(0, 0, 0);stroke-width:3.0;" d="M 73.2293, 94.9092 L 68.6427, 93.0346 L 38.4431, 61.7628 L 51.3583, 40.5269 z "/>
<path style="fill:rgb(246, 0, 10);fill-opacity:1.0;fill-rule:evenodd;stroke:rgb(0, 0, 0);stroke-width:3.0;" d="M 84.1635, 122.097 L 77.9675, 137.431 L 69.0355, 134.217 L 82.3702, 117.638 z "/>
<path style="fill:rgb(246, 0, 10);fill-opacity:1.0;fill-rule:evenodd;stroke:rgb(0, 0, 0);stroke-width:3.0;" d="M 273.591, 548.229 L 263.439, 558.304 L 254.046, 552.185 L 266.559, 544.857 z "/>
<path style="fill:rgb(150, 252, 255);fill-opacity:1.0;fill-rule:evenodd;stroke:rgb(0, 0, 0);stroke-width:3.0;" d="M 336.243, 436.603 L 321.87, 440.49 L 319.033, 430.453 L 335.206, 428.141 z "/>
<path style="fill:rgb(150, 252, 255);fill-opacity:1.0;fill-rule:evenodd;stroke:rgb(0, 0, 0);stroke-width:3.0;" d="M 759.878, 260.255 L 752.562, 261.776 L 742.125, 246.676 L 745.836, 236.267 L 760.682, 218.662 z "/>
<path style="fill:rgb(150, 252, 255);fill-opacity:1.0;fill-rule:evenodd;stroke:rgb(0, 0, 0);stroke-width:3.0;" d="M 529.748, 445.901 L 535.152, 473.938 L 513.256, 500.722 L 505.644, 505.455 L 494.281, 467.329 L 516.297, 444.225 L 528.39, 443.443 z "/>
<path style="fill:rgb(150, 252, 255);fill-opacity:1.0;fill-rule:evenodd;stroke:rgb(0, 0, 0);stroke-width:3.0;" d="M 535.801, 338.007 L 389.525, 346.662 L 460.401, 287.028 L 618.727, 240.81 z "/>
<path style="fill:rgb(150, 252, 255);fill-opacity:1.0;fill-rule:evenodd;stroke:rgb(0, 0, 0);stroke-width:3.0;" d="M 606.433, 336.319 L 509.528, 363.188 L 504.449, 339.862 L 608.312, 333.716 z "/>
<path style="fill:rgb(150, 252, 255);fill-opacity:1.0;fill-rule:evenodd;stroke:rgb(0, 0, 0);stroke-width:3.0;" d="M 472.581, 448.974 L 467.482, 450.72 L 469.036, 432.095 L 474.402, 425.952 z "/>
<path style="fill:rgb(150, 252, 255);fill-opacity:1.0;fill-rule:evenodd;stroke:rgb(0, 0, 0);stroke-width:3.0;" d="M 644.413, 112.539 L 635.035, 102.078 L 637.405, 80.8309 z "/>
<path style="fill:rgb(102, 240, 55);fill-opacity:1.0;fill-rule:evenodd;stroke:rgb(0, 0, 0);stroke-width:3.0;" d="M 302.39, 409.617 L 332.137, 458.254 L 257.062, 482.724 L 290.72, 408.158 z "/>
<path style="fill:rgb(102, 240, 55);fill-opacity:1.0;fill-rule:evenodd;stroke:rgb(0, 0, 0);stroke-width:3.0;" d="M 758.227, 463.463 L 756.02, 462.97 L 738.958, 455.315 L 757.114, 452.138 z "/>
<path style="fill:rgb(123, 215, 15);fill-opacity:1.0;fill-rule:evenodd;stroke:rgb(0, 0, 0);stroke-width:3.0;" d="M 71.8713, 37.5967 L 143.731, 260.56 L 140.303, 261.688 L 49.6047, 36.1666 z "/>
<path style="fill:rgb(243, 138, 33);fill-opacity:1.0;fill-rule:evenodd;stroke:rgb(0, 0, 0);stroke-width:3.0;" d="M 241.998, 556.776 L 243.043, 560.36 L 210.542, 551.197 L 199.534, 541.482 z "/>
<path style="fill:rgb(246, 215, 28);fill-opacity:1.0;fill-rule:evenodd;stroke:rgb(0, 0, 0);stroke-width:3.0;" d="M 451.451, 576.321 L 439.93, 590.414 L 417.363, 589.774 L 410.865, 574.742 L 410.093, 564.873 L 428.124, 553.66 z "/>
<path style="fill:rgb(255, 37, 6);fill-opacity:1.0;fill-rule:evenodd;stroke:rgb(0, 0, 0);stroke-width:3.0;" d="M 46.819, 417.843 L 40.8014, 406.385 L 42.5682, 371.159 L 72.3957, 363.104 z "/>
<path style="fill:rgb(152, 92, 255);fill-opacity:1.0;fill-rule:evenodd;stroke:rgb(0, 0, 0);stroke-width:3.0;" d="M 360.301, 381.65 L 350.7, 390.828 L 348.925, 377.19 L 358.832, 372.363 z "/>
<path style="fill:rgb(152, 92, 255);fill-opacity:1.0;fill-rule:evenodd;stroke:rgb(0, 0, 0);stroke-width:3.0;" d="M 46.4775, 122.847 L 62.1581, 169.53 L 35.073, 129.374 L 29.1108, 111.59 z "/>
<path style="fill:rgb(249, 16, 177);fill-opacity:1.0;fill-rule:evenodd;stroke:rgb(0, 0, 0);stroke-width:3.0;" d="M 310.493, 51.5418 L 308.972, 88.5945 L 291.432, 71.801 L 304.476, 50.2366 z "/>
<path style="fill:rgb(255, 5, 228);fill-opacity:1.0;fill-rule:evenodd;stroke:rgb(0, 0, 0);stroke-width:3.0;" d="M 431.456, 455.179 L 435.752, 461.587 L 402.89, 472.842 L 401.408, 453.907 L 407.256, 451.285 z "/>
<path style="fill:rgb(255, 234, 25);fill-opacity:1.0;fill-rule:evenodd;stroke:rgb(0, 0, 0);stroke-width:3.0;" d="M 749.064, 212.278 L 743.327, 214.009 L 732.311, 196.922 L 731.67, 191.572 L 769.408, 187.392 z "/>
<path style="fill:rgb(255, 228, 13);fill-opacity:1.0;fill-rule:evenodd;stroke:rgb(0, 0, 0);stroke-width:3.0;" d="M 396.078, 456.297 L 373.697, 466.332 L 366.337, 419.806 L 377.126, 411.559 z "/>
<path style="fill:rgb(255, 228, 13);fill-opacity:1.0;fill-rule:evenodd;stroke:rgb(0, 0, 0);stroke-width:3.0;" d="M 355.571, 428.257 L 359.028, 454.829 L 349.831, 433.553 L 353.285, 424.704 z "/>
<path style="fill:rgb(255, 231, 19);fill-opacity:1.0;fill-rule:evenodd;stroke:rgb(0, 0, 0);stroke-width:3.0;" d="M 353.285, 424.704 L 349.831, 433.553 L 331.099, 390.219 z "/>
<path style="fill:rgb(192, 255, 175);fill-opacity:1.0;fill-rule:evenodd;stroke:rgb(0, 0, 0);stroke-width:3.0;" d="M 480.614, 43.4972 L 448.55, 72.8858 L 458.447, 39.8096 L 490.394, 24.7461 z "/>
<path style="fill:rgb(255, 83, 16);fill-opacity:1.0;fill-rule:evenodd;stroke:rgb(0, 0, 0);stroke-width:3.0;" d="M 22.819, 92.8231 L 19.6365, 100.723 L 9.33879, 109.979 L 6.72227, 108.776 L 8.00348, 93.5693 L 21.1574, 87.8666 z "/>
<path style="fill:rgb(255, 83, 16);fill-opacity:1.0;fill-rule:evenodd;stroke:rgb(0, 0, 0);stroke-width:3.0;" d="M 326.669, 573.678 L 320.19, 575.817 L 294.339, 565.14 L 292.034, 557.072 z "/>
<path style="fill:rgb(249, 249, 41);fill-opacity:1.0;fill-rule:evenodd;stroke:rgb(0, 0, 0);stroke-width:3.0;" d="M 132.742, 32.4229 L 99.8226, 37.7118 L 88.0837, 22.8311 z "/>
<path style="fill:rgb(255, 27, 58);fill-opacity:1.0;fill-rule:evenodd;stroke:rgb(0, 0, 0);stroke-width:3.0;" d="M 653.617, 521.67 L 643.816, 552.032 L 636.031, 559.401 L 649.516, 515.712 z "/>
<path style="fill:rgb(255, 179, 8);fill-opacity:1.0;fill-rule:evenodd;stroke:rgb(0, 0, 0);stroke-width:3.0;" d="M 82.6998, 131.758 L 88.4286, 139.667 L 85.0635, 158.822 L 74.7382, 145.422 L 80.3292, 131.586 z "/>
<path style="fill:rgb(255, 179, 8);fill-opacity:1.0;fill-rule:evenodd;stroke:rgb(0, 0, 0);stroke-width:3.0;" d="M 238.518, 531.412 L 241.784, 540.356 L 238.829, 540.741 L 211.247, 518.336 z "/>
<path style="fill:rgb(255, 25, 24);fill-opacity:1.0;fill-rule:evenodd;stroke:rgb(0, 0, 0);stroke-width:3.0;" d="M 494.281, 467.329 L 487.941, 446.059 L 516.297, 444.225 z "/>
<path style="fill:rgb(255, 25, 24);fill-opacity:1.0;fill-rule:evenodd;stroke:rgb(0, 0, 0);stroke-width:3.0;" d="M 702.891, 285.824 L 701.559, 309.753 L 692.97, 305.52 L 693.234, 280.569 L 698.766, 273.803 z "/>
<path style="fill:rgb(255, 25, 24);fill-opacity:1.0;fill-rule:evenodd;stroke:rgb(0, 0, 0);stroke-width:3.0;" d="M 280.454, 406.874 L 281.935, 427.62 L 257.062, 482.724 L 213.772, 496.834 L 248.763, 402.913 z "/>
<path style="fill:rgb(255, 25, 24);fill-opacity:1.0;fill-rule:evenodd;stroke:rgb(0, 0, 0);stroke-width:3.0;" d="M 470.942, 363.626 L 490.006, 396.63 L 361.026, 386.231 L 359.967, 379.535 L 362.707, 362.24 z "/>
<path style="fill:rgb(255, 25, 24);fill-opacity:1.0;fill-rule:evenodd;stroke:rgb(0, 0, 0);stroke-width:3.0;" d="M 105.918, 362.118 L 109.281, 381.065 L 107.372, 382.235 L 81.6774, 360.173 L 83.0637, 355.463 z "/>
<path style="fill:rgb(207, 36, 255);fill-opacity:1.0;fill-rule:evenodd;stroke:rgb(0, 0, 0);stroke-width:3.0;" d="M 187.43, 544.68 L 196.707, 554.363 L 196.794, 559.558 L 185.817, 565.711 L 183.602, 564.612 L 170.038, 549.347 L 168.605, 539.372 z "/>
<path style="fill:rgb(207, 36, 255);fill-opacity:1.0;fill-rule:evenodd;stroke:rgb(0, 0, 0);stroke-width:3.0;" d="M 674.439, 175.511 L 675.135, 160.913 L 696.535, 149.613 z "/>
<path style="fill:rgb(207, 36, 255);fill-opacity:1.0;fill-rule:evenodd;stroke:rgb(0, 0, 0);stroke-width:3.0;" d="M 27.5536, 448.719 L 16.0881, 477.875 L 12.1094, 474.735 L 6.29462, 469.138 L 26.4518, 433.474 z "/>
<path style="fill:rgb(223, 52, 255);fill-opacity:1.0;fill-rule:evenodd;stroke:rgb(0, 0, 0);stroke-width:3.0;" d="M 463.684, 445.967 L 450.726, 455.088 L 430.442, 455.016 L 407.256, 451.285 L 429.531, 441.298 z "/>
<path style="fill:rgb(223, 52, 255);fill-opacity:1.0;fill-rule:evenodd;stroke:rgb(0, 0, 0);stroke-width:3.0;" d="M 169.827, 333.308 L 163.393, 350.718 L 127.579, 333.859 L 142.437, 315.176 z "/>
<path style="fill:rgb(48, 40, 220);fill-opacity:1.0;fill-rule:evenodd;stroke:rgb(0, 0, 0);stroke-width:3.0;" d="M 367.908, 429.735 L 356.013, 431.654 L 350.7, 390.828 L 360.301, 381.65 z "/>
<path style="fill:rgb(226, 34, 17);fill-opacity:1.0;fill-rule:evenodd;stroke:rgb(0, 0, 0);stroke-width:3.0;" d="M 453.609, 289.011 L 430.978, 295.617 L 428.457, 292.329 L 434.134, 279.604 z "/>
<path style="fill:rgb(8, 26, 255);fill-opacity:1.0;fill-rule:evenodd;stroke:rgb(0, 0, 0);stroke-width:3.0;" d="M 725.681, 141.593 L 732.956, 202.303 L 672.035, 178.33 L 706.86, 137.511 z "/>
<path style="fill:rgb(255, 177, 212);fill-opacity:1.0;fill-rule:evenodd;stroke:rgb(0, 0, 0);stroke-width:3.0;" d="M 264.426, 312.986 L 236.789, 355.699 L 181.875, 358.948 L 186.692, 345.854 L 225.132, 295.436 z "/>
<path style="fill:rgb(255, 177, 212);fill-opacity:1.0;fill-rule:evenodd;stroke:rgb(0, 0, 0);stroke-width:3.0;" d="M 577.671, 88.8793 L 567.621, 91.3335 L 565.831, 26.5443 z "/>
<path style="fill:rgb(240, 27, 255);fill-opacity:1.0;fill-rule:evenodd;stroke:rgb(0, 0, 0);stroke-width:3.0;" d="M 138.167, 320.545 L 132.936, 327.122 L 116.925, 315.468 L 118.349, 308.115 z "/>
<path style="fill:rgb(165, 231, 255);fill-opacity:1.0;fill-rule:evenodd;stroke:rgb(0, 0, 0);stroke-width:3.0;" d="M 106.723, 199.736 L 86.0358, 217.63 L 57.5234, 196.339 L 56, 191.795 L 57.8435, 187.233 L 80.9541, 157.749 z "/>
<path style="fill:rgb(165, 231, 255);fill-opacity:1.0;fill-rule:evenodd;stroke:rgb(0, 0, 0);stroke-width:3.0;" d="M 456.882, 287.19 L 455.29, 288.52 L 453.609, 289.011 L 420.945, 273.233 L 451.424, 269.957 z "/>
<path style="fill:rgb(165, 231, 255);fill-opacity:1.0;fill-rule:evenodd;stroke:rgb(0, 0, 0);stroke-width:3.0;" d="M 292.034, 557.072 L 294.339, 565.14 L 276.043, 557.584 L 281.336, 551.942 z "/>
<path style="fill:rgb(37, 223, 215);fill-opacity:1.0;fill-rule:evenodd;stroke:rgb(0, 0, 0);stroke-width:3.0;" d="M 37.3105, 136.048 L 9.57602, 144.534 L 9.46118, 144.444 L 26.9814, 105.239 z "/>
<path style="fill:rgb(255, 123, 38);fill-opacity:1.0;fill-rule:evenodd;stroke:rgb(0, 0, 0);stroke-width:3.0;" d="M 126.661, 232.222 L 115.1, 236.567 L 111.667, 221.042 L 116.588, 215.809 z "/>
<path style="fill:rgb(255, 123, 38);fill-opacity:1.0;fill-rule:evenodd;stroke:rgb(0, 0, 0);stroke-width:3.0;" d="M 706.86, 137.511 L 696.535, 149.613 L 675.135, 160.913 L 676.564, 130.94 z "/>
<path style="fill:rgb(255, 123, 38);fill-opacity:1.0;fill-rule:evenodd;stroke:rgb(0, 0, 0);stroke-width:3.0;" d="M 732.956, 202.303 L 736.058, 228.187 L 651.894, 331.138 L 535.801, 338.007 L 640.945, 214.769 L 679.931, 181.437 z "/>
<path style="fill:rgb(255, 4, 15);fill-opacity:1.0;fill-rule:evenodd;stroke:rgb(0, 0, 0);stroke-width:3.0;" d="M 37.3528, 234.383 L 30.6676, 248.938 L 10.9653, 231.435 L 15.6281, 226.456 L 22.6615, 223.366 z "/>
<path style="fill:rgb(255, 4, 15);fill-opacity:1.0;fill-rule:evenodd;stroke:rgb(0, 0, 0);stroke-width:3.0;" d="M 387.742, 521.252 L 338.108, 553.682 L 380.354, 504.161 z "/>
<path style="fill:rgb(240, 7, 44);fill-opacity:1.0;fill-rule:evenodd;stroke:rgb(0, 0, 0);stroke-width:3.0;" d="M 759.227, 303.764 L 758.253, 319.13 L 704.701, 291.097 L 698.766, 273.803 L 700.203, 272.045 z "/>
<path style="fill:rgb(240, 7, 44);fill-opacity:1.0;fill-rule:evenodd;stroke:rgb(0, 0, 0);stroke-width:3.0;" d="M 214.292, 37.4768 L 213.005, 46.6614 L 193.074, 45.3813 L 127.508, 31.2987 L 133.823, 25.9146 z "/>
<path style="fill:rgb(240, 7, 44);fill-opacity:1.0;fill-rule:evenodd;stroke:rgb(0, 0, 0);stroke-width:3.0;" d="M 358.47, 61.9477 L 347.749, 113.264 L 314.087, 61.7788 L 328.027, 55.3448 z "/>
<path style="fill:rgb(240, 7, 44);fill-opacity:1.0;fill-rule:evenodd;stroke:rgb(0, 0, 0);stroke-width:3.0;" d="M 676.768, 427.417 L 661.206, 424.038 L 668.804, 415.188 L 681.585, 411.813 z "/>
<path style="fill:rgb(240, 7, 44);fill-opacity:1.0;fill-rule:evenodd;stroke:rgb(0, 0, 0);stroke-width:3.0;" d="M 380.354, 504.161 L 338.108, 553.682 L 315.615, 568.378 L 293.429, 557.74 L 295.868, 470.076 L 357.005, 450.149 z "/>
<path style="fill:rgb(237, 10, 17);fill-opacity:1.0;fill-rule:evenodd;stroke:rgb(0, 0, 0);stroke-width:3.0;" d="M 370.931, 64.6503 L 372.828, 70.2144 L 371.429, 103.55 L 355.262, 124.755 L 347.749, 113.264 L 358.47, 61.9477 z "/>
<path style="fill:rgb(82, 159, 255);fill-opacity:1.0;fill-rule:evenodd;stroke:rgb(0, 0, 0);stroke-width:3.0;" d="M 453.169, 82.487 L 446.134, 80.9613 L 448.55, 72.8858 L 475.907, 47.8115 z "/>
<path style="fill:rgb(204, 15, 52);fill-opacity:1.0;fill-rule:evenodd;stroke:rgb(0, 0, 0);stroke-width:3.0;" d="M 292.962, 574.435 L 249.294, 575.763 L 197.303, 576.021 L 211.98, 551.602 z "/>
<path style="fill:rgb(255, 249, 27);fill-opacity:1.0;fill-rule:evenodd;stroke:rgb(0, 0, 0);stroke-width:3.0;" d="M 787.583, 319.002 L 784.255, 336.553 L 771.98, 343.423 L 771.837, 342.588 L 786.009, 318.156 z "/>
<path style="fill:rgb(19, 255, 148);fill-opacity:1.0;fill-rule:evenodd;stroke:rgb(0, 0, 0);stroke-width:3.0;" d="M 746.452, 536.212 L 727.195, 569.337 L 706.746, 566.442 L 702.863, 560.023 L 726.446, 510.45 z "/>
<path style="fill:rgb(255, 41, 94);fill-opacity:1.0;fill-rule:evenodd;stroke:rgb(0, 0, 0);stroke-width:3.0;" d="M 54.3242, 88.5051 L 64.8326, 99.354 L 28.6527, 110.223 L 21.6584, 89.3612 L 28.453, 78.1891 z "/>
<path style="fill:rgb(255, 41, 94);fill-opacity:1.0;fill-rule:evenodd;stroke:rgb(0, 0, 0);stroke-width:3.0;" d="M 82.0403, 38.2498 L 208.964, 227.416 L 204.052, 240.706 L 199.203, 242.302 L 136.706, 238.762 L 71.8713, 37.5967 z "/>
<path style="fill:rgb(255, 41, 94);fill-opacity:1.0;fill-rule:evenodd;stroke:rgb(0, 0, 0);stroke-width:3.0;" d="M 726.446, 510.45 L 702.863, 560.023 L 691.906, 541.91 L 725.31, 508.986 z "/>
<path style="fill:rgb(255, 1, 35);fill-opacity:1.0;fill-rule:evenodd;stroke:rgb(0, 0, 0);stroke-width:3.0;" d="M 186.16, 289.115 L 181.76, 301.02 L 151.244, 288.894 L 144.897, 273.112 L 148.54, 262.804 z "/>
<path style="fill:rgb(255, 102, 40);fill-opacity:1.0;fill-rule:evenodd;stroke:rgb(0, 0, 0);stroke-width:3.0;" d="M 730.901, 142.725 L 731.5, 190.154 L 725.681, 141.593 z "/>
<path style="fill:rgb(240, 89, 27);fill-opacity:1.0;fill-rule:evenodd;stroke:rgb(0, 0, 0);stroke-width:3.0;" d="M 754.188, 147.776 L 732.263, 191.506 L 731.67, 191.572 L 731.5, 190.154 L 730.901, 142.725 z "/>
<path style="fill:rgb(255, 240, 14);fill-opacity:1.0;fill-rule:evenodd;stroke:rgb(0, 0, 0);stroke-width:3.0;" d="M 389.525, 346.662 L 388.972, 346.695 L 382.92, 309.646 L 460.401, 287.028 z "/>
<path style="fill:rgb(255, 255, 45);fill-opacity:1.0;fill-rule:evenodd;stroke:rgb(0, 0, 0);stroke-width:3.0;" d="M 116.887, 328.826 L 117.459, 330.375 L 104.041, 335.089 L 100.722, 325.191 L 106.473, 323.923 z "/>
<path style="fill:rgb(255, 29, 65);fill-opacity:1.0;fill-rule:evenodd;stroke:rgb(0, 0, 0);stroke-width:3.0;" d="M 275.892, 46.3277 L 274.313, 50.5991 L 213.005, 46.6614 L 214.292, 37.4768 z "/>
<path style="fill:rgb(255, 144, 30);fill-opacity:1.0;fill-rule:evenodd;stroke:rgb(0, 0, 0);stroke-width:3.0;" d="M 84.9799, 18.8966 L 101.219, 39.4816 L 53.4737, 36.4151 L 54.8234, 14.5636 z "/>
<path style="fill:rgb(255, 144, 30);fill-opacity:1.0;fill-rule:evenodd;stroke:rgb(0, 0, 0);stroke-width:3.0;" d="M 54.8234, 14.5636 L 53.4737, 36.4151 L 49.6047, 36.1666 L 40.0637, 12.4428 z "/>
<path style="fill:rgb(255, 144, 30);fill-opacity:1.0;fill-rule:evenodd;stroke:rgb(0, 0, 0);stroke-width:3.0;" d="M 138.457, 257.098 L 137.394, 259.042 L 104.793, 262.516 L 110.325, 250.989 L 135.423, 249.555 z "/>
<path style="fill:rgb(255, 144, 30);fill-opacity:1.0;fill-rule:evenodd;stroke:rgb(0, 0, 0);stroke-width:3.0;" d="M 46.819, 417.843 L 39.2817, 433.975 L 14.3608, 414.86 L 33.1477, 391.812 z "/>
<path style="fill:rgb(255, 1, 11);fill-opacity:1.0;fill-rule:evenodd;stroke:rgb(0, 0, 0);stroke-width:3.0;" d="M 376.279, 140.113 L 291.418, 271.269 L 276.208, 228.444 L 375.576, 98.1108 z "/>
<path style="fill:rgb(249, 234, 9);fill-opacity:1.0;fill-rule:evenodd;stroke:rgb(0, 0, 0);stroke-width:3.0;" d="M 640.878, 367.641 L 643.091, 384.415 L 615.732, 385.342 L 639.569, 366.509 z "/>
<path style="fill:rgb(249, 234, 9);fill-opacity:1.0;fill-rule:evenodd;stroke:rgb(0, 0, 0);stroke-width:3.0;" d="M 26.9814, 105.239 L 12.2138, 138.284 L 5.25505, 127.17 L 11.7541, 117.866 L 26.6814, 104.344 z "/>
<path style="fill:rgb(249, 234, 9);fill-opacity:1.0;fill-rule:evenodd;stroke:rgb(0, 0, 0);stroke-width:3.0;" d="M 127.053, 449.043 L 159.87, 360.25 L 228.635, 356.182 z "/>
<path style="fill:rgb(255, 27, 50);fill-opacity:1.0;fill-rule:evenodd;stroke:rgb(0, 0, 0);stroke-width:3.0;" d="M 198.09, 519.933 L 239.298, 542.577 L 256.006, 553.461 L 231.582, 553.024 L 199.534, 541.482 L 166.426, 512.266 L 172.169, 510.394 z "/>
<path style="fill:rgb(49, 209, 255);fill-opacity:1.0;fill-rule:evenodd;stroke:rgb(0, 0, 0);stroke-width:3.0;" d="M 123.423, 40.9077 L 101.219, 39.4816 L 99.8226, 37.7118 L 123.14, 33.9656 z "/>
<path style="fill:rgb(255, 37, 83);fill-opacity:1.0;fill-rule:evenodd;stroke:rgb(0, 0, 0);stroke-width:3.0;" d="M 609.214, 116.332 L 674.592, 172.304 L 674.439, 175.511 L 645.97, 208.88 L 602.407, 114.856 z "/>
<path style="fill:rgb(255, 37, 83);fill-opacity:1.0;fill-rule:evenodd;stroke:rgb(0, 0, 0);stroke-width:3.0;" d="M 98.7513, 260.117 L 98.0187, 267.742 L 78.9172, 260.151 L 76.494, 252.924 L 92.3292, 252.018 z "/>
<path style="fill:rgb(165, 100, 255);fill-opacity:1.0;fill-rule:evenodd;stroke:rgb(0, 0, 0);stroke-width:3.0;" d="M 639.569, 366.509 L 615.732, 385.342 L 607.348, 385.627 L 610.67, 381.563 L 637.579, 364.788 z "/>
<path style="fill:rgb(255, 26, 202);fill-opacity:1.0;fill-rule:evenodd;stroke:rgb(0, 0, 0);stroke-width:3.0;" d="M 387.919, 340.252 L 379.578, 337.224 L 379.244, 317.227 L 384.007, 316.302 z "/>
<path style="fill:rgb(255, 0, 10);fill-opacity:1.0;fill-rule:evenodd;stroke:rgb(0, 0, 0);stroke-width:3.0;" d="M 125.416, 41.0358 L 100.139, 65.2246 L 89.4047, 49.2258 L 123.596, 40.9189 z "/>
<path style="fill:rgb(255, 21, 71);fill-opacity:1.0;fill-rule:evenodd;stroke:rgb(0, 0, 0);stroke-width:3.0;" d="M 694.57, 568.629 L 663.507, 569.902 L 684.186, 549.519 z "/>
<path style="fill:rgb(255, 21, 71);fill-opacity:1.0;fill-rule:evenodd;stroke:rgb(0, 0, 0);stroke-width:3.0;" d="M 123.596, 40.9189 L 89.4047, 49.2258 L 82.0403, 38.2498 z "/>
<path style="fill:rgb(100, 252, 9);fill-opacity:1.0;fill-rule:evenodd;stroke:rgb(0, 0, 0);stroke-width:3.0;" d="M 407.027, 525.699 L 408.678, 546.8 L 398.063, 540.818 L 397.212, 528.798 L 404.459, 520.661 z "/>
<path style="fill:rgb(189, 187, 39);fill-opacity:1.0;fill-rule:evenodd;stroke:rgb(0, 0, 0);stroke-width:3.0;" d="M 294.418, 522.181 L 293.429, 557.74 L 185.572, 506.026 L 202.061, 500.651 z "/>
<path style="fill:rgb(189, 187, 39);fill-opacity:1.0;fill-rule:evenodd;stroke:rgb(0, 0, 0);stroke-width:3.0;" d="M 291.418, 271.269 L 264.426, 312.986 L 225.132, 295.436 L 276.208, 228.444 z "/>
<path style="fill:rgb(231, 0, 15);fill-opacity:1.0;fill-rule:evenodd;stroke:rgb(0, 0, 0);stroke-width:3.0;" d="M 294.418, 522.181 L 202.061, 500.651 L 295.868, 470.076 z "/>
<path style="fill:rgb(246, 240, 10);fill-opacity:1.0;fill-rule:evenodd;stroke:rgb(0, 0, 0);stroke-width:3.0;" d="M 304.476, 50.2366 L 291.432, 71.801 L 283.937, 64.6247 L 299.633, 49.1862 z "/>
<path style="fill:rgb(204, 13, 6);fill-opacity:1.0;fill-rule:evenodd;stroke:rgb(0, 0, 0);stroke-width:3.0;" d="M 43.776, 572.939 L 29.8686, 579.275 L 10.7363, 576.88 L 22.7608, 554.353 L 42.4393, 525.803 z "/>
<path style="fill:rgb(204, 13, 6);fill-opacity:1.0;fill-rule:evenodd;stroke:rgb(0, 0, 0);stroke-width:3.0;" d="M 427.086, 422.933 L 423.771, 443.88 L 396.078, 456.297 L 372.002, 399.461 z "/>
<path style="fill:rgb(204, 13, 6);fill-opacity:1.0;fill-rule:evenodd;stroke:rgb(0, 0, 0);stroke-width:3.0;" d="M 455.172, 541.51 L 433.016, 558.413 L 428.124, 553.66 L 452.314, 538.618 z "/>
<path style="fill:rgb(255, 255, 66);fill-opacity:1.0;fill-rule:evenodd;stroke:rgb(0, 0, 0);stroke-width:3.0;" d="M 621.743, 355.117 L 517.907, 401.673 L 509.528, 363.188 L 617.857, 333.152 L 626.702, 332.628 z "/>
<path style="fill:rgb(255, 243, 71);fill-opacity:1.0;fill-rule:evenodd;stroke:rgb(0, 0, 0);stroke-width:3.0;" d="M 83.6842, 564.459 L 58.2134, 584.369 L 41.8728, 573.806 L 79.878, 556.491 z "/>
<path style="fill:rgb(255, 243, 71);fill-opacity:1.0;fill-rule:evenodd;stroke:rgb(0, 0, 0);stroke-width:3.0;" d="M 94.7264, 148.362 L 107.221, 179.428 L 109.692, 188.786 L 109.072, 189.979 L 85.0635, 158.822 L 88.4286, 139.667 z "/>
<path style="fill:rgb(249, 48, 14);fill-opacity:1.0;fill-rule:evenodd;stroke:rgb(0, 0, 0);stroke-width:3.0;" d="M 266.559, 544.857 L 254.046, 552.185 L 238.008, 541.737 L 240.635, 540.506 L 253.886, 538.78 z "/>
<path style="fill:rgb(66, 12, 255);fill-opacity:1.0;fill-rule:evenodd;stroke:rgb(0, 0, 0);stroke-width:3.0;" d="M 133.823, 25.9146 L 127.508, 31.2987 L 88.0837, 22.8311 L 84.9799, 18.8966 z "/>
<path style="fill:rgb(255, 65, 255);fill-opacity:1.0;fill-rule:evenodd;stroke:rgb(0, 0, 0);stroke-width:3.0;" d="M 638.394, 347.651 L 632.003, 350.517 L 635.164, 332.128 L 651.894, 331.138 z "/>
<path style="fill:rgb(240, 237, 19);fill-opacity:1.0;fill-rule:evenodd;stroke:rgb(0, 0, 0);stroke-width:3.0;" d="M 634.28, 337.271 L 632.003, 350.517 L 621.743, 355.117 L 626.671, 332.769 z "/>
<path style="fill:rgb(240, 237, 19);fill-opacity:1.0;fill-rule:evenodd;stroke:rgb(0, 0, 0);stroke-width:3.0;" d="M 791.241, 444.001 L 788.543, 446.66 L 674.147, 435.91 L 687.315, 393.247 z "/>
<path style="fill:rgb(249, 154, 37);fill-opacity:1.0;fill-rule:evenodd;stroke:rgb(0, 0, 0);stroke-width:3.0;" d="M 430.978, 295.617 L 382.888, 309.656 L 379.904, 308.184 L 379.059, 280.851 L 416.041, 276.131 z "/>
<path style="fill:rgb(249, 154, 37);fill-opacity:1.0;fill-rule:evenodd;stroke:rgb(0, 0, 0);stroke-width:3.0;" d="M 700.131, 309.049 L 703.852, 321.336 L 687.953, 308.335 L 687.857, 303 z "/>
<path style="fill:rgb(249, 154, 37);fill-opacity:1.0;fill-rule:evenodd;stroke:rgb(0, 0, 0);stroke-width:3.0;" d="M 133.973, 336.869 L 128.475, 347.318 L 118.638, 346.492 L 125.229, 332.753 z "/>
<path style="fill:rgb(249, 154, 37);fill-opacity:1.0;fill-rule:evenodd;stroke:rgb(0, 0, 0);stroke-width:3.0;" d="M 445.116, 570.167 L 437.104, 562.383 L 440.462, 552.733 L 451.847, 544.047 z "/>
<path style="fill:rgb(249, 154, 37);fill-opacity:1.0;fill-rule:evenodd;stroke:rgb(0, 0, 0);stroke-width:3.0;" d="M 695.774, 365.841 L 683.771, 404.728 L 632.06, 360.016 z "/>
<path style="fill:rgb(249, 154, 37);fill-opacity:1.0;fill-rule:evenodd;stroke:rgb(0, 0, 0);stroke-width:3.0;" d="M 468.709, 555.211 L 451.451, 576.321 L 445.116, 570.167 L 451.847, 544.047 L 455.172, 541.51 z "/>
<path style="fill:rgb(15, 6, 140);fill-opacity:1.0;fill-rule:evenodd;stroke:rgb(0, 0, 0);stroke-width:3.0;" d="M 109.87, 384.38 L 110.369, 387.193 L 18.0778, 479.356 L 39.326, 433.88 L 107.24, 382.121 z "/>
<path style="fill:rgb(15, 6, 140);fill-opacity:1.0;fill-rule:evenodd;stroke:rgb(0, 0, 0);stroke-width:3.0;" d="M 68.6427, 93.0346 L 29.223, 76.923 L 38.4431, 61.7628 z "/>
<path style="fill:rgb(15, 6, 140);fill-opacity:1.0;fill-rule:evenodd;stroke:rgb(0, 0, 0);stroke-width:3.0;" d="M 470.942, 363.626 L 362.707, 362.24 L 364.945, 348.116 L 458.777, 342.564 z "/>
<path style="fill:rgb(117, 237, 28);fill-opacity:1.0;fill-rule:evenodd;stroke:rgb(0, 0, 0);stroke-width:3.0;" d="M 593.656, 89.9613 L 578.411, 97.9999 L 567.779, 97.0688 L 567.621, 91.3335 L 588.437, 86.2505 z "/>
<path style="fill:rgb(117, 237, 28);fill-opacity:1.0;fill-rule:evenodd;stroke:rgb(0, 0, 0);stroke-width:3.0;" d="M 176.152, 316.194 L 169.827, 333.308 L 142.437, 315.176 L 144.833, 312.162 z "/>
<path style="fill:rgb(255, 51, 130);fill-opacity:1.0;fill-rule:evenodd;stroke:rgb(0, 0, 0);stroke-width:3.0;" d="M 179.207, 307.928 L 176.152, 316.194 L 144.833, 312.162 L 149.652, 306.103 z "/>
<path style="fill:rgb(132, 115, 220);fill-opacity:1.0;fill-rule:evenodd;stroke:rgb(0, 0, 0);stroke-width:3.0;" d="M 282.509, 45.4721 L 282.86, 46.0491 L 282.704, 63.4438 L 273, 54.1528 L 276.676, 44.2069 z "/>
<path style="fill:rgb(237, 182, 179);fill-opacity:1.0;fill-rule:evenodd;stroke:rgb(0, 0, 0);stroke-width:3.0;" d="M 716.609, 567.839 L 719.685, 582.255 L 718.032, 585.098 L 706.746, 566.442 z "/>
<path style="fill:rgb(240, 197, 10);fill-opacity:1.0;fill-rule:evenodd;stroke:rgb(0, 0, 0);stroke-width:3.0;" d="M 615.012, 71.0028 L 618.894, 79.8592 L 617.961, 83.0303 L 605.03, 68.6057 L 606.126, 58.7886 z "/>
<path style="fill:rgb(249, 246, 14);fill-opacity:1.0;fill-rule:evenodd;stroke:rgb(0, 0, 0);stroke-width:3.0;" d="M 712.107, 575.304 L 712.955, 576.705 L 674.375, 571.853 L 674.087, 571.413 L 677.999, 569.308 L 691.145, 568.77 z "/>
<path style="fill:rgb(76, 243, 255);fill-opacity:1.0;fill-rule:evenodd;stroke:rgb(0, 0, 0);stroke-width:3.0;" d="M 107.24, 382.121 L 39.326, 433.88 L 76.0306, 355.325 z "/>
<path style="fill:rgb(252, 24, 194);fill-opacity:1.0;fill-rule:evenodd;stroke:rgb(0, 0, 0);stroke-width:3.0;" d="M 707.743, 568.09 L 694.57, 568.629 L 684.186, 549.519 L 691.906, 541.91 z "/>
<path style="fill:rgb(255, 231, 44);fill-opacity:1.0;fill-rule:evenodd;stroke:rgb(0, 0, 0);stroke-width:3.0;" d="M 439.2, 499.107 L 428.359, 511.438 L 406.585, 507.94 L 437.527, 494.227 z "/>
<path style="fill:rgb(215, 13, 11);fill-opacity:1.0;fill-rule:evenodd;stroke:rgb(0, 0, 0);stroke-width:3.0;" d="M 372.002, 399.461 L 377.126, 411.559 L 366.337, 419.806 L 362.477, 395.402 z "/>
<path style="fill:rgb(231, 2, 44);fill-opacity:1.0;fill-rule:evenodd;stroke:rgb(0, 0, 0);stroke-width:3.0;" d="M 37.3528, 234.383 L 22.6615, 223.366 L 47.406, 212.495 z "/>
<path style="fill:rgb(237, 88, 12);fill-opacity:1.0;fill-rule:evenodd;stroke:rgb(0, 0, 0);stroke-width:3.0;" d="M 338.326, 406.939 L 306.433, 416.228 L 300.38, 406.33 L 335.254, 399.832 z "/>
<path style="fill:rgb(252, 255, 14);fill-opacity:1.0;fill-rule:evenodd;stroke:rgb(0, 0, 0);stroke-width:3.0;" d="M 112.52, 326.77 L 99.14, 320.471 L 96.4578, 312.471 L 117.268, 296.747 z "/>
</svg>