<?xml version="1.0" encoding="iso-8859-1" standalone="no"?>
<!DOCTYPE svg PUBLIC "-//W3C//DTD SVG 1.0//EN" "http://www.w3.org/TR/2001/REC-SVG-20010904/DTD/svg10.dtd">
<svg xmlns="http://www.w3.org/2000/svg" width="800" height="600">
<path style="fill:rgb(0, 0, 0);fill-opacity:0.0;fill-rule:evenodd;stroke:rgb(0, 0, 0);stroke-width:0.0;" d="M 0, 600 L 800, 600 L 800, 0 L 0, 0 z "/>
<path style="fill:rgb(23, 24, 255);fill-opacity:1.0;fill-rule:evenodd;stroke:rgb(0, 0, 0);stroke-width:3.0;" d="M 105.341, 465.861 L 182.62, 491.601 L 213.2, 547.179 L 204.436, 553.794 L 78.2252, 457.854 z "/>
<path style="fill:rgb(23, 24, 255);fill-opacity:1.0;fill-rule:evenodd;stroke:rgb(0, 0, 0);stroke-width:3.0;" d="M 431.186, 382.655 L 421.162, 390.221 L 407.462, 384.236 L 427.449, 370.638 L 449.598, 361.925 z "/>
<path style="fill:rgb(23, 24, 255);fill-opacity:1.0;fill-rule:evenodd;stroke:rgb(0, 0, 0);stroke-width:3.0;" d="M 286.521, 491.841 L 252.795, 517.296 L 264.791, 493.214 L 269.149, 491.041 z "/>
<path style="fill:rgb(255, 11, 58);fill-opacity:1.0;fill-rule:evenodd;stroke:rgb(0, 0, 0);stroke-width:3.0;" d="M 286.969, 91.4648 L 283.891, 95.4461 L 264.636, 88.3359 L 281.436, 57.302 z "/>
<path style="fill:rgb(255, 11, 58);fill-opacity:1.0;fill-rule:evenodd;stroke:rgb(0, 0, 0);stroke-width:3.0;" d="M 429.954, 86.06 L 305.669, 220.444 L 233.53, 160.597 L 349.263, 10.8762 z "/>
<path style="fill:rgb(255, 27, 54);fill-opacity:1.0;fill-rule:evenodd;stroke:rgb(0, 0, 0);stroke-width:3.0;" d="M 115.269, 394.98 L 125.317, 414.205 L 111.04, 421.054 L 104.515, 394.806 L 105.481, 393.202 z "/>
<path style="fill:rgb(255, 27, 54);fill-opacity:1.0;fill-rule:evenodd;stroke:rgb(0, 0, 0);stroke-width:3.0;" d="M 750.743, 274.99 L 727.454, 301.788 L 746.791, 269.334 z "/>
<path style="fill:rgb(88, 7, 255);fill-opacity:1.0;fill-rule:evenodd;stroke:rgb(0, 0, 0);stroke-width:3.0;" d="M 661.862, 418.373 L 665.107, 485.887 L 643.724, 500.895 L 641.812, 499.309 L 601.259, 421.529 L 631.148, 390.47 z "/>
<path style="fill:rgb(246, 95, 10);fill-opacity:1.0;fill-rule:evenodd;stroke:rgb(0, 0, 0);stroke-width:3.0;" d="M 690.986, 430.057 L 690.487, 431.897 L 672.136, 427.707 L 656.12, 413.157 L 680.818, 403.413 z "/>
<path style="fill:rgb(246, 95, 10);fill-opacity:1.0;fill-rule:evenodd;stroke:rgb(0, 0, 0);stroke-width:3.0;" d="M 282.298, 491.646 L 278.767, 491.483 L 280.424, 485.418 L 287.496, 481.89 L 302.907, 479.426 z "/>
<path style="fill:rgb(246, 95, 10);fill-opacity:1.0;fill-rule:evenodd;stroke:rgb(0, 0, 0);stroke-width:3.0;" d="M 651.444, 507.3 L 647.441, 528.086 L 630.618, 522.325 L 629.844, 519.939 L 647.772, 504.253 z "/>
<path style="fill:rgb(246, 95, 10);fill-opacity:1.0;fill-rule:evenodd;stroke:rgb(0, 0, 0);stroke-width:3.0;" d="M 254.339, 366.245 L 245.317, 368.652 L 239.125, 365.492 L 228.767, 358.65 L 233.155, 354.36 z "/>
<path style="fill:rgb(246, 95, 10);fill-opacity:1.0;fill-rule:evenodd;stroke:rgb(0, 0, 0);stroke-width:3.0;" d="M 685.642, 439.976 L 684.337, 445.729 L 669.145, 459.452 L 663.83, 459.323 L 661.862, 418.373 z "/>
<path style="fill:rgb(246, 95, 10);fill-opacity:1.0;fill-rule:evenodd;stroke:rgb(0, 0, 0);stroke-width:3.0;" d="M 395.185, 399.334 L 395.146, 409.856 L 393.105, 411.397 L 368.026, 420.371 L 365.855, 418.434 L 390.555, 397.256 z "/>
<path style="fill:rgb(246, 95, 10);fill-opacity:1.0;fill-rule:evenodd;stroke:rgb(0, 0, 0);stroke-width:3.0;" d="M 301.09, 384.638 L 279.994, 386.351 L 245.317, 368.652 L 288.229, 357.205 z "/>
<path style="fill:rgb(223, 71, 231);fill-opacity:1.0;fill-rule:evenodd;stroke:rgb(0, 0, 0);stroke-width:3.0;" d="M 297.026, 428.505 L 291.517, 430.086 L 283.087, 406.188 L 316.942, 388.525 z "/>
<path style="fill:rgb(223, 71, 231);fill-opacity:1.0;fill-rule:evenodd;stroke:rgb(0, 0, 0);stroke-width:3.0;" d="M 332.419, 453.663 L 329.659, 459.283 L 323.489, 463.94 L 264.791, 493.214 L 270.938, 480.875 L 335.649, 440.921 z "/>
<path style="fill:rgb(41, 255, 81);fill-opacity:1.0;fill-rule:evenodd;stroke:rgb(0, 0, 0);stroke-width:3.0;" d="M 141.635, 218.365 L 176.602, 257.276 L 150.753, 306.748 L 66.4067, 175.842 L 79.1842, 162.64 z "/>
<path style="fill:rgb(61, 75, 237);fill-opacity:1.0;fill-rule:evenodd;stroke:rgb(0, 0, 0);stroke-width:3.0;" d="M 666.14, 507.382 L 666.746, 519.994 L 643.724, 500.895 L 655.701, 492.488 z "/>
<path style="fill:rgb(243, 144, 14);fill-opacity:1.0;fill-rule:evenodd;stroke:rgb(0, 0, 0);stroke-width:3.0;" d="M 769.966, 346.831 L 775.981, 350.97 L 745.801, 364.163 L 743.264, 361.797 L 745.624, 338.991 z "/>
<path style="fill:rgb(243, 144, 14);fill-opacity:1.0;fill-rule:evenodd;stroke:rgb(0, 0, 0);stroke-width:3.0;" d="M 698.531, 344.726 L 670.501, 327.624 L 672.507, 310.876 L 681.094, 310.371 z "/>
<path style="fill:rgb(243, 144, 14);fill-opacity:1.0;fill-rule:evenodd;stroke:rgb(0, 0, 0);stroke-width:3.0;" d="M 91.1427, 411.439 L 77.7171, 422.585 L 54.4322, 412.832 L 78.5674, 404.329 z "/>
<path style="fill:rgb(243, 144, 14);fill-opacity:1.0;fill-rule:evenodd;stroke:rgb(0, 0, 0);stroke-width:3.0;" d="M 279.994, 386.351 L 170.147, 395.27 L 176.963, 389.237 L 251.352, 371.732 z "/>
<path style="fill:rgb(243, 144, 14);fill-opacity:1.0;fill-rule:evenodd;stroke:rgb(0, 0, 0);stroke-width:3.0;" d="M 666.14, 507.382 L 655.701, 492.488 L 665.107, 485.887 z "/>
<path style="fill:rgb(94, 255, 255);fill-opacity:1.0;fill-rule:evenodd;stroke:rgb(0, 0, 0);stroke-width:3.0;" d="M 673.809, 385.046 L 680.818, 403.413 L 678.836, 404.195 L 665.024, 384.542 z "/>
<path style="fill:rgb(94, 255, 255);fill-opacity:1.0;fill-rule:evenodd;stroke:rgb(0, 0, 0);stroke-width:3.0;" d="M 333.131, 389.234 L 351.589, 405.705 L 340.934, 415.258 L 309.416, 403.634 L 318.92, 384.556 z "/>
<path style="fill:rgb(94, 255, 255);fill-opacity:1.0;fill-rule:evenodd;stroke:rgb(0, 0, 0);stroke-width:3.0;" d="M 427.286, 310.059 L 418.916, 314.394 L 398.659, 297.589 L 398.523, 296.606 L 420.646, 283.35 z "/>
<path style="fill:rgb(94, 255, 255);fill-opacity:1.0;fill-rule:evenodd;stroke:rgb(0, 0, 0);stroke-width:3.0;" d="M 620.887, 459.174 L 613.888, 475.629 L 600.464, 458.71 L 619.906, 457.293 z "/>
<path style="fill:rgb(172, 240, 61);fill-opacity:1.0;fill-rule:evenodd;stroke:rgb(0, 0, 0);stroke-width:3.0;" d="M 457.443, 346.356 L 449.855, 353.185 L 436.109, 334.127 L 439.086, 331.127 z "/>
<path style="fill:rgb(14, 18, 255);fill-opacity:1.0;fill-rule:evenodd;stroke:rgb(0, 0, 0);stroke-width:3.0;" d="M 594.341, 428.719 L 577.641, 446.073 L 555.991, 428.112 L 597.174, 399.969 L 606.724, 394.641 z "/>
<path style="fill:rgb(56, 74, 255);fill-opacity:1.0;fill-rule:evenodd;stroke:rgb(0, 0, 0);stroke-width:3.0;" d="M 748.147, 178.016 L 738.189, 171.641 L 755.333, 149.455 z "/>
<path style="fill:rgb(56, 74, 255);fill-opacity:1.0;fill-rule:evenodd;stroke:rgb(0, 0, 0);stroke-width:3.0;" d="M 711.662, 306.707 L 660.843, 271.736 L 680.827, 245.874 L 750.211, 182.551 z "/>
<path style="fill:rgb(92, 134, 223);fill-opacity:1.0;fill-rule:evenodd;stroke:rgb(0, 0, 0);stroke-width:3.0;" d="M 311.237, 274.626 L 309.101, 285.432 L 270.641, 300.198 L 277.242, 285.861 L 304.169, 271.401 z "/>
<path style="fill:rgb(92, 134, 223);fill-opacity:1.0;fill-rule:evenodd;stroke:rgb(0, 0, 0);stroke-width:3.0;" d="M 208.329, 438.587 L 189.55, 393.694 L 261.494, 387.853 z "/>
<path style="fill:rgb(92, 134, 223);fill-opacity:1.0;fill-rule:evenodd;stroke:rgb(0, 0, 0);stroke-width:3.0;" d="M 274.136, 108.067 L 242.641, 148.811 L 164.635, 89.8504 L 212.474, 63.1669 z "/>
<path style="fill:rgb(255, 103, 17);fill-opacity:1.0;fill-rule:evenodd;stroke:rgb(0, 0, 0);stroke-width:3.0;" d="M 666.015, 314.873 L 661.93, 322.394 L 648.666, 314.302 L 647.528, 308.726 z "/>
<path style="fill:rgb(255, 255, 12);fill-opacity:1.0;fill-rule:evenodd;stroke:rgb(0, 0, 0);stroke-width:3.0;" d="M 709.064, 356.912 L 726.085, 397.434 L 680.24, 381.533 L 691.119, 354.267 z "/>
<path style="fill:rgb(85, 7, 255);fill-opacity:1.0;fill-rule:evenodd;stroke:rgb(0, 0, 0);stroke-width:3.0;" d="M 175.814, 360.303 L 161.992, 368.593 L 156.715, 351.078 z "/>
<path style="fill:rgb(85, 7, 255);fill-opacity:1.0;fill-rule:evenodd;stroke:rgb(0, 0, 0);stroke-width:3.0;" d="M 273.349, 28.0119 L 265.279, 31.1507 L 259.172, 23.3779 L 273.722, 18.5363 z "/>
<path style="fill:rgb(85, 7, 255);fill-opacity:1.0;fill-rule:evenodd;stroke:rgb(0, 0, 0);stroke-width:3.0;" d="M 299.005, 463.545 L 270.938, 480.875 L 278.762, 465.169 L 287.275, 459.252 z "/>
<path style="fill:rgb(39, 223, 252);fill-opacity:1.0;fill-rule:evenodd;stroke:rgb(0, 0, 0);stroke-width:3.0;" d="M 433.982, 354.644 L 424.652, 361.263 L 418, 361.186 L 420.449, 349.904 L 421.41, 348.936 z "/>
<path style="fill:rgb(39, 223, 252);fill-opacity:1.0;fill-rule:evenodd;stroke:rgb(0, 0, 0);stroke-width:3.0;" d="M 596.344, 400.537 L 578.324, 412.851 L 562.118, 413.364 L 567.569, 399.008 L 585.826, 394.851 z "/>
<path style="fill:rgb(39, 223, 252);fill-opacity:1.0;fill-rule:evenodd;stroke:rgb(0, 0, 0);stroke-width:3.0;" d="M 776.97, 328.506 L 773.046, 339.699 L 760.343, 325.039 L 760.268, 319.441 z "/>
<path style="fill:rgb(39, 223, 252);fill-opacity:1.0;fill-rule:evenodd;stroke:rgb(0, 0, 0);stroke-width:3.0;" d="M 429.954, 86.06 L 425.045, 81.4858 L 443.527, 50.4037 L 475.537, 36.7742 z "/>
<path style="fill:rgb(255, 44, 43);fill-opacity:1.0;fill-rule:evenodd;stroke:rgb(0, 0, 0);stroke-width:3.0;" d="M 425.045, 81.4858 L 407.946, 65.5535 L 443.527, 50.4037 z "/>
<path style="fill:rgb(215, 52, 42);fill-opacity:1.0;fill-rule:evenodd;stroke:rgb(0, 0, 0);stroke-width:3.0;" d="M 726.363, 569.452 L 742.199, 582.59 L 742.864, 584.723 L 679.149, 552.708 z "/>
<path style="fill:rgb(215, 52, 42);fill-opacity:1.0;fill-rule:evenodd;stroke:rgb(0, 0, 0);stroke-width:3.0;" d="M 283.891, 95.4461 L 274.136, 108.067 L 228.936, 75.1538 z "/>
<path style="fill:rgb(255, 121, 6);fill-opacity:1.0;fill-rule:evenodd;stroke:rgb(0, 0, 0);stroke-width:3.0;" d="M 751.733, 491.377 L 723.386, 514.961 L 701.501, 457.612 z "/>
<path style="fill:rgb(27, 255, 255);fill-opacity:1.0;fill-rule:evenodd;stroke:rgb(0, 0, 0);stroke-width:3.0;" d="M 425.331, 58.1513 L 407.946, 65.5535 L 397.101, 55.4487 L 387.668, 13.2781 z "/>
<path style="fill:rgb(255, 8, 255);fill-opacity:1.0;fill-rule:evenodd;stroke:rgb(0, 0, 0);stroke-width:3.0;" d="M 421.162, 390.221 L 419.785, 391.26 L 404.367, 395.316 L 405.544, 383.398 z "/>
<path style="fill:rgb(255, 154, 10);fill-opacity:1.0;fill-rule:evenodd;stroke:rgb(0, 0, 0);stroke-width:3.0;" d="M 212.114, 447.637 L 204.903, 453.801 L 196.395, 447.523 L 208.477, 438.941 z "/>
<path style="fill:rgb(255, 154, 10);fill-opacity:1.0;fill-rule:evenodd;stroke:rgb(0, 0, 0);stroke-width:3.0;" d="M 429.415, 369.864 L 414.159, 375.865 L 402.69, 367.796 L 407.003, 363.451 L 425.96, 362.948 z "/>
<path style="fill:rgb(255, 154, 10);fill-opacity:1.0;fill-rule:evenodd;stroke:rgb(0, 0, 0);stroke-width:3.0;" d="M 204.124, 124.956 L 213.563, 141.907 L 213.725, 144.167 L 198.894, 131.863 L 199.474, 123.808 z "/>
<path style="fill:rgb(255, 154, 10);fill-opacity:1.0;fill-rule:evenodd;stroke:rgb(0, 0, 0);stroke-width:3.0;" d="M 390.555, 397.256 L 365.855, 418.434 L 363.304, 416.158 L 382.664, 393.713 z "/>
<path style="fill:rgb(255, 154, 10);fill-opacity:1.0;fill-rule:evenodd;stroke:rgb(0, 0, 0);stroke-width:3.0;" d="M 94.1984, 218.975 L 95.6937, 221.295 L 81.4959, 218.026 L 72.994, 200.916 z "/>
<path style="fill:rgb(237, 189, 226);fill-opacity:1.0;fill-rule:evenodd;stroke:rgb(0, 0, 0);stroke-width:3.0;" d="M 684.768, 487.514 L 666.2, 508.632 L 665.073, 485.19 z "/>
<path style="fill:rgb(237, 189, 226);fill-opacity:1.0;fill-rule:evenodd;stroke:rgb(0, 0, 0);stroke-width:3.0;" d="M 641.353, 498.429 L 641.563, 499.102 L 616.279, 478.127 L 630.443, 477.502 z "/>
<path style="fill:rgb(237, 189, 226);fill-opacity:1.0;fill-rule:evenodd;stroke:rgb(0, 0, 0);stroke-width:3.0;" d="M 634.027, 492.85 L 624.203, 502.57 L 616.602, 479.164 L 616.413, 478.238 z "/>
<path style="fill:rgb(26, 27, 255);fill-opacity:1.0;fill-rule:evenodd;stroke:rgb(0, 0, 0);stroke-width:3.0;" d="M 724.118, 315.28 L 726.497, 327.067 L 713.406, 328.567 L 710.015, 322.354 L 718.22, 311.221 z "/>
<path style="fill:rgb(26, 27, 255);fill-opacity:1.0;fill-rule:evenodd;stroke:rgb(0, 0, 0);stroke-width:3.0;" d="M 757.312, 429.693 L 757.634, 432.047 L 716.384, 467.616 L 701.501, 457.612 L 697.801, 447.916 L 750.524, 427.714 z "/>
<path style="fill:rgb(26, 27, 255);fill-opacity:1.0;fill-rule:evenodd;stroke:rgb(0, 0, 0);stroke-width:3.0;" d="M 670.501, 327.624 L 661.93, 322.394 L 667.72, 311.735 L 668.959, 311.084 L 672.507, 310.876 z "/>
<path style="fill:rgb(9, 202, 255);fill-opacity:1.0;fill-rule:evenodd;stroke:rgb(0, 0, 0);stroke-width:3.0;" d="M 107.923, 276.344 L 53.465, 256.863 L 29.7336, 213.732 L 59.8527, 182.613 z "/>
<path style="fill:rgb(9, 202, 255);fill-opacity:1.0;fill-rule:evenodd;stroke:rgb(0, 0, 0);stroke-width:3.0;" d="M 154.731, 344.493 L 167.106, 385.568 L 165.922, 387.937 L 140.753, 337.284 z "/>
<path style="fill:rgb(255, 25, 95);fill-opacity:1.0;fill-rule:evenodd;stroke:rgb(0, 0, 0);stroke-width:3.0;" d="M 742.607, 313.078 L 724.122, 314.27 L 722.237, 313.18 L 721.257, 312.237 L 734.544, 305.201 z "/>
<path style="fill:rgb(25, 220, 255);fill-opacity:1.0;fill-rule:evenodd;stroke:rgb(0, 0, 0);stroke-width:3.0;" d="M 299.713, 74.9786 L 286.969, 91.4648 L 281.436, 57.302 L 283.226, 53.9948 z "/>
<path style="fill:rgb(25, 220, 255);fill-opacity:1.0;fill-rule:evenodd;stroke:rgb(0, 0, 0);stroke-width:3.0;" d="M 146.313, 425.613 L 145.489, 428.567 L 134.221, 420.849 L 136.636, 408.026 z "/>
<path style="fill:rgb(25, 220, 255);fill-opacity:1.0;fill-rule:evenodd;stroke:rgb(0, 0, 0);stroke-width:3.0;" d="M 637.752, 383.606 L 628.47, 393.252 L 621.379, 377.192 z "/>
<path style="fill:rgb(255, 252, 10);fill-opacity:1.0;fill-rule:evenodd;stroke:rgb(0, 0, 0);stroke-width:3.0;" d="M 647.699, 351.929 L 639.736, 355.63 L 639.152, 349.253 L 641.665, 345.158 L 652.031, 336.792 z "/>
<path style="fill:rgb(255, 252, 10);fill-opacity:1.0;fill-rule:evenodd;stroke:rgb(0, 0, 0);stroke-width:3.0;" d="M 295.261, 355.444 L 276.447, 338.656 L 285.156, 329.868 L 300.878, 327.029 z "/>
<path style="fill:rgb(255, 252, 10);fill-opacity:1.0;fill-rule:evenodd;stroke:rgb(0, 0, 0);stroke-width:3.0;" d="M 783.913, 308.701 L 780.328, 318.926 L 764.756, 311.811 L 768.295, 295.871 z "/>
<path style="fill:rgb(255, 252, 10);fill-opacity:1.0;fill-rule:evenodd;stroke:rgb(0, 0, 0);stroke-width:3.0;" d="M 434.874, 337.258 L 440.419, 351.073 L 433.323, 350.922 L 424.278, 346.047 L 434.209, 336.041 z "/>
<path style="fill:rgb(217, 187, 187);fill-opacity:1.0;fill-rule:evenodd;stroke:rgb(0, 0, 0);stroke-width:3.0;" d="M 716.833, 497.791 L 684.265, 534.527 L 683.769, 534.116 L 700.759, 470.686 L 705.918, 469.187 z "/>
<path style="fill:rgb(217, 187, 187);fill-opacity:1.0;fill-rule:evenodd;stroke:rgb(0, 0, 0);stroke-width:3.0;" d="M 49.5106, 193.299 L 29.7336, 213.732 L 10.2854, 178.385 L 28.0289, 130.758 L 30.4545, 130.116 z "/>
<path style="fill:rgb(217, 187, 187);fill-opacity:1.0;fill-rule:evenodd;stroke:rgb(0, 0, 0);stroke-width:3.0;" d="M 546.226, 420.01 L 609.392, 499.664 L 462.345, 359.138 L 467.846, 354.986 z "/>
<path style="fill:rgb(217, 187, 187);fill-opacity:1.0;fill-rule:evenodd;stroke:rgb(0, 0, 0);stroke-width:3.0;" d="M 256.048, 510.764 L 252.795, 517.296 L 249.216, 519.996 L 240.607, 489.493 L 251.866, 475.048 z "/>
<path style="fill:rgb(217, 187, 187);fill-opacity:1.0;fill-rule:evenodd;stroke:rgb(0, 0, 0);stroke-width:3.0;" d="M 413.069, 321.083 L 418.823, 330.56 L 383.766, 354.477 L 378.584, 338.914 L 406.255, 317.975 z "/>
<path style="fill:rgb(217, 187, 187);fill-opacity:1.0;fill-rule:evenodd;stroke:rgb(0, 0, 0);stroke-width:3.0;" d="M 274.131, 474.466 L 263.918, 494.966 L 251.922, 441.451 L 271.372, 435.869 z "/>
<path style="fill:rgb(172, 0, 255);fill-opacity:1.0;fill-rule:evenodd;stroke:rgb(0, 0, 0);stroke-width:3.0;" d="M 365.71, 293.35 L 363.91, 298.656 L 361.875, 297.728 L 330.347, 257.342 L 330.565, 257.225 z "/>
<path style="fill:rgb(237, 52, 7);fill-opacity:1.0;fill-rule:evenodd;stroke:rgb(0, 0, 0);stroke-width:3.0;" d="M 666.772, 325.349 L 665.304, 334.722 L 647.34, 315.683 L 646.251, 312.828 z "/>
<path style="fill:rgb(255, 209, 12);fill-opacity:1.0;fill-rule:evenodd;stroke:rgb(0, 0, 0);stroke-width:3.0;" d="M 131.035, 397.845 L 32.7372, 379.985 L 91.0804, 325.229 z "/>
<path style="fill:rgb(255, 209, 12);fill-opacity:1.0;fill-rule:evenodd;stroke:rgb(0, 0, 0);stroke-width:3.0;" d="M 225.655, 346.141 L 221.848, 349.51 L 198.381, 367.006 L 145.914, 339.945 L 193.512, 328.359 z "/>
<path style="fill:rgb(255, 209, 12);fill-opacity:1.0;fill-rule:evenodd;stroke:rgb(0, 0, 0);stroke-width:3.0;" d="M 266.902, 308.319 L 259.781, 323.785 L 239.808, 305.964 L 256.599, 296.947 z "/>
<path style="fill:rgb(246, 13, 7);fill-opacity:1.0;fill-rule:evenodd;stroke:rgb(0, 0, 0);stroke-width:3.0;" d="M 200.718, 368.212 L 190.444, 377.305 L 183.917, 371.955 L 187.855, 364.836 L 192.893, 364.176 z "/>
<path style="fill:rgb(177, 9, 23);fill-opacity:1.0;fill-rule:evenodd;stroke:rgb(0, 0, 0);stroke-width:3.0;" d="M 312.514, 441.712 L 302.501, 448.67 L 289.865, 456.018 L 286.308, 450.021 L 290.558, 441.489 z "/>
<path style="fill:rgb(177, 9, 23);fill-opacity:1.0;fill-rule:evenodd;stroke:rgb(0, 0, 0);stroke-width:3.0;" d="M 404.353, 395.454 L 395.189, 398.47 L 395.228, 387.905 L 405.524, 383.604 z "/>
<path style="fill:rgb(177, 9, 23);fill-opacity:1.0;fill-rule:evenodd;stroke:rgb(0, 0, 0);stroke-width:3.0;" d="M 751.044, 179.87 L 748.147, 178.016 L 755.333, 149.455 L 758.856, 144.895 L 761.946, 144.757 z "/>
<path style="fill:rgb(177, 9, 23);fill-opacity:1.0;fill-rule:evenodd;stroke:rgb(0, 0, 0);stroke-width:3.0;" d="M 387.668, 13.2781 L 394.948, 45.8255 L 388.673, 43.235 L 379.199, 19.2432 L 385.278, 10.4308 z "/>
<path style="fill:rgb(255, 110, 7);fill-opacity:1.0;fill-rule:evenodd;stroke:rgb(0, 0, 0);stroke-width:3.0;" d="M 683.704, 454.741 L 686.928, 474.704 L 677.117, 477.554 L 682.568, 453.524 z "/>
<path style="fill:rgb(255, 110, 7);fill-opacity:1.0;fill-rule:evenodd;stroke:rgb(0, 0, 0);stroke-width:3.0;" d="M 175.585, 98.1265 L 169.657, 98.9848 L 153.615, 86.2667 L 149.481, 78.3963 z "/>
<path style="fill:rgb(255, 110, 7);fill-opacity:1.0;fill-rule:evenodd;stroke:rgb(0, 0, 0);stroke-width:3.0;" d="M 95.6937, 221.295 L 137.117, 285.585 L 114.389, 284.226 L 81.4959, 218.026 z "/>
<path style="fill:rgb(255, 110, 7);fill-opacity:1.0;fill-rule:evenodd;stroke:rgb(0, 0, 0);stroke-width:3.0;" d="M 276.434, 427.804 L 280.752, 429.619 L 280.973, 433.113 L 232.655, 446.982 L 217.885, 449.716 L 210.94, 443.829 L 251.041, 422.907 z "/>
<path style="fill:rgb(255, 110, 7);fill-opacity:1.0;fill-rule:evenodd;stroke:rgb(0, 0, 0);stroke-width:3.0;" d="M 244.785, 310.404 L 249.605, 314.705 L 228.05, 319.952 L 231.565, 305.477 z "/>
<path style="fill:rgb(255, 110, 7);fill-opacity:1.0;fill-rule:evenodd;stroke:rgb(0, 0, 0);stroke-width:3.0;" d="M 180.895, 357.987 L 167.106, 385.568 L 161.992, 368.593 L 180.239, 357.649 z "/>
<path style="fill:rgb(246, 52, 27);fill-opacity:1.0;fill-rule:evenodd;stroke:rgb(0, 0, 0);stroke-width:3.0;" d="M 108.295, 410.009 L 106.382, 432.602 L 104.383, 432.717 L 95.8375, 409.226 L 104.515, 394.806 z "/>
<path style="fill:rgb(246, 52, 27);fill-opacity:1.0;fill-rule:evenodd;stroke:rgb(0, 0, 0);stroke-width:3.0;" d="M 625.997, 316.83 L 545.417, 384.657 L 540.124, 373.827 L 667.468, 263.163 z "/>
<path style="fill:rgb(246, 52, 27);fill-opacity:1.0;fill-rule:evenodd;stroke:rgb(0, 0, 0);stroke-width:3.0;" d="M 584.774, 506.625 L 578.475, 512.3 L 567.793, 511.377 L 551.1, 502.753 L 553.917, 496.058 z "/>
<path style="fill:rgb(255, 13, 45);fill-opacity:1.0;fill-rule:evenodd;stroke:rgb(0, 0, 0);stroke-width:3.0;" d="M 621.379, 377.192 L 628.47, 393.252 L 626.384, 395.42 L 615.619, 388.316 L 615.615, 388.3 L 618.891, 376.217 z "/>
<path style="fill:rgb(255, 17, 152);fill-opacity:1.0;fill-rule:evenodd;stroke:rgb(0, 0, 0);stroke-width:3.0;" d="M 90.5007, 390.48 L 103.977, 395.701 L 102.55, 398.072 L 80.2592, 395.3 L 55.7471, 384.166 z "/>
<path style="fill:rgb(255, 17, 152);fill-opacity:1.0;fill-rule:evenodd;stroke:rgb(0, 0, 0);stroke-width:3.0;" d="M 185.211, 426.757 L 155.827, 419.914 L 153.596, 418.92 L 130.863, 385.431 L 146.546, 348.942 z "/>
<path style="fill:rgb(220, 102, 35);fill-opacity:1.0;fill-rule:evenodd;stroke:rgb(0, 0, 0);stroke-width:3.0;" d="M 298.659, 305.518 L 268.736, 331.775 L 259.781, 323.785 L 270.641, 300.198 L 290.622, 292.527 z "/>
<path style="fill:rgb(255, 1, 7);fill-opacity:1.0;fill-rule:evenodd;stroke:rgb(0, 0, 0);stroke-width:3.0;" d="M 750.524, 427.714 L 738.895, 432.17 L 691.69, 431.902 L 682.526, 407.888 z "/>
<path style="fill:rgb(240, 237, 27);fill-opacity:1.0;fill-rule:evenodd;stroke:rgb(0, 0, 0);stroke-width:3.0;" d="M 615.264, 406.976 L 594.341, 428.719 L 602.3, 406.815 L 615.311, 406.579 z "/>
<path style="fill:rgb(255, 223, 37);fill-opacity:1.0;fill-rule:evenodd;stroke:rgb(0, 0, 0);stroke-width:3.0;" d="M 94.1984, 218.975 L 85.0446, 211.179 L 64.8066, 177.495 L 66.4067, 175.842 z "/>
<path style="fill:rgb(255, 223, 37);fill-opacity:1.0;fill-rule:evenodd;stroke:rgb(0, 0, 0);stroke-width:3.0;" d="M 708.878, 391.466 L 710.588, 416.069 L 682.526, 407.888 L 671.284, 378.427 z "/>
<path style="fill:rgb(255, 223, 37);fill-opacity:1.0;fill-rule:evenodd;stroke:rgb(0, 0, 0);stroke-width:3.0;" d="M 137.117, 285.585 L 142.647, 294.166 L 145.16, 306.176 L 122.782, 301.117 L 114.389, 284.226 z "/>
<path style="fill:rgb(255, 223, 37);fill-opacity:1.0;fill-rule:evenodd;stroke:rgb(0, 0, 0);stroke-width:3.0;" d="M 135.723, 406.365 L 133.74, 423.403 L 132.783, 428.487 L 126.383, 416.243 L 134.299, 403.777 z "/>
<path style="fill:rgb(255, 223, 37);fill-opacity:1.0;fill-rule:evenodd;stroke:rgb(0, 0, 0);stroke-width:3.0;" d="M 728.159, 527.47 L 704.91, 551.655 L 692.306, 541.199 L 727.088, 524.663 z "/>
<path style="fill:rgb(255, 1, 38);fill-opacity:1.0;fill-rule:evenodd;stroke:rgb(0, 0, 0);stroke-width:3.0;" d="M 727.088, 524.663 L 692.306, 541.199 L 689.603, 538.956 L 717.187, 498.716 z "/>
<path style="fill:rgb(16, 237, 255);fill-opacity:1.0;fill-rule:evenodd;stroke:rgb(0, 0, 0);stroke-width:3.0;" d="M 329.719, 283.057 L 361.942, 351.507 L 323.473, 380.617 L 295.261, 355.444 L 311.237, 274.626 z "/>
<path style="fill:rgb(16, 237, 255);fill-opacity:1.0;fill-rule:evenodd;stroke:rgb(0, 0, 0);stroke-width:3.0;" d="M 406.255, 317.975 L 361.942, 351.507 L 329.719, 283.057 z "/>
<path style="fill:rgb(16, 237, 255);fill-opacity:1.0;fill-rule:evenodd;stroke:rgb(0, 0, 0);stroke-width:3.0;" d="M 131.035, 397.845 L 131.939, 399.488 L 125.436, 414.431 L 120.141, 404.303 L 122.227, 396.245 z "/>
<path style="fill:rgb(16, 237, 255);fill-opacity:1.0;fill-rule:evenodd;stroke:rgb(0, 0, 0);stroke-width:3.0;" d="M 150.608, 433.419 L 137.113, 447.465 L 131.413, 445.077 L 148.101, 430.208 L 148.818, 430.167 z "/>
<path style="fill:rgb(16, 237, 255);fill-opacity:1.0;fill-rule:evenodd;stroke:rgb(0, 0, 0);stroke-width:3.0;" d="M 719.284, 439.684 L 705.718, 444.882 L 699.778, 441.87 L 698.992, 433.888 z "/>
<path style="fill:rgb(16, 237, 255);fill-opacity:1.0;fill-rule:evenodd;stroke:rgb(0, 0, 0);stroke-width:3.0;" d="M 733.215, 540.72 L 737.342, 551.535 L 728.897, 556.062 L 720.733, 551.654 L 725.66, 533.45 z "/>
<path style="fill:rgb(16, 237, 255);fill-opacity:1.0;fill-rule:evenodd;stroke:rgb(0, 0, 0);stroke-width:3.0;" d="M 672.191, 550.24 L 686.289, 558.09 L 660.072, 559.047 L 579.151, 517.244 z "/>
<path style="fill:rgb(212, 237, 27);fill-opacity:1.0;fill-rule:evenodd;stroke:rgb(0, 0, 0);stroke-width:3.0;" d="M 230.154, 517.206 L 236.361, 529.699 L 213.2, 547.179 L 196.418, 516.679 z "/>
<path style="fill:rgb(212, 237, 27);fill-opacity:1.0;fill-rule:evenodd;stroke:rgb(0, 0, 0);stroke-width:3.0;" d="M 99.0944, 253.444 L 98.6445, 258.252 L 59.8527, 182.613 L 62.5268, 179.85 z "/>
<path style="fill:rgb(255, 1, 19);fill-opacity:1.0;fill-rule:evenodd;stroke:rgb(0, 0, 0);stroke-width:3.0;" d="M 222.014, 344.127 L 215.283, 340.403 L 238.319, 317.452 L 245.776, 315.637 z "/>
<path style="fill:rgb(255, 1, 19);fill-opacity:1.0;fill-rule:evenodd;stroke:rgb(0, 0, 0);stroke-width:3.0;" d="M 83.2914, 530.877 L 59.305, 557.401 L 51.943, 504.498 z "/>
<path style="fill:rgb(255, 1, 19);fill-opacity:1.0;fill-rule:evenodd;stroke:rgb(0, 0, 0);stroke-width:3.0;" d="M 699.043, 471.185 L 686.928, 474.704 L 683.704, 454.741 z "/>
<path style="fill:rgb(25, 6, 197);fill-opacity:1.0;fill-rule:evenodd;stroke:rgb(0, 0, 0);stroke-width:3.0;" d="M 683.769, 534.116 L 666.746, 519.994 L 666.2, 508.632 L 699.153, 471.153 L 700.759, 470.686 z "/>
<path style="fill:rgb(255, 14, 103);fill-opacity:1.0;fill-rule:evenodd;stroke:rgb(0, 0, 0);stroke-width:3.0;" d="M 300.878, 327.029 L 269.722, 332.656 L 268.736, 331.775 L 306.489, 298.648 z "/>
<path style="fill:rgb(252, 66, 8);fill-opacity:1.0;fill-rule:evenodd;stroke:rgb(0, 0, 0);stroke-width:3.0;" d="M 766.531, 312.622 L 780.328, 318.926 L 776.97, 328.506 L 768.108, 323.695 L 760.193, 313.831 L 760.177, 312.563 z "/>
<path style="fill:rgb(252, 66, 8);fill-opacity:1.0;fill-rule:evenodd;stroke:rgb(0, 0, 0);stroke-width:3.0;" d="M 615.625, 374.938 L 611.997, 373.517 L 604.828, 344.226 L 613.847, 332.554 L 645.199, 326.031 z "/>
<path style="fill:rgb(50, 255, 33);fill-opacity:1.0;fill-rule:evenodd;stroke:rgb(0, 0, 0);stroke-width:3.0;" d="M 272.638, 453.584 L 271.372, 435.869 L 287.229, 431.317 z "/>
<path style="fill:rgb(50, 255, 33);fill-opacity:1.0;fill-rule:evenodd;stroke:rgb(0, 0, 0);stroke-width:3.0;" d="M 561.32, 424.47 L 553.275, 424.451 L 549.801, 422.976 L 547.999, 421.482 L 571.492, 413.067 L 578.324, 412.851 z "/>
<path style="fill:rgb(69, 165, 228);fill-opacity:1.0;fill-rule:evenodd;stroke:rgb(0, 0, 0);stroke-width:3.0;" d="M 28.5128, 125.857 L 31.2009, 127.6 L 29.1077, 130.472 L 10.2715, 135.459 L 15.5858, 128.128 L 21.0246, 124.168 z "/>
<path style="fill:rgb(30, 95, 255);fill-opacity:1.0;fill-rule:evenodd;stroke:rgb(0, 0, 0);stroke-width:3.0;" d="M 316.942, 388.525 L 270.974, 412.508 L 273.05, 386.915 L 319.628, 383.133 z "/>
<path style="fill:rgb(207, 2, 62);fill-opacity:1.0;fill-rule:evenodd;stroke:rgb(0, 0, 0);stroke-width:3.0;" d="M 546.435, 439.499 L 555.618, 496.641 L 366.136, 431.752 L 462.345, 359.138 z "/>
<path style="fill:rgb(255, 52, 240);fill-opacity:1.0;fill-rule:evenodd;stroke:rgb(0, 0, 0);stroke-width:3.0;" d="M 629.5, 518.881 L 630.618, 522.325 L 555.618, 496.641 L 546.435, 439.499 z "/>
<path style="fill:rgb(182, 105, 255);fill-opacity:1.0;fill-rule:evenodd;stroke:rgb(0, 0, 0);stroke-width:3.0;" d="M 107.923, 276.344 L 143.786, 346.272 L 92.3695, 327.572 L 53.465, 256.863 z "/>
<path style="fill:rgb(252, 255, 11);fill-opacity:1.0;fill-rule:evenodd;stroke:rgb(0, 0, 0);stroke-width:3.0;" d="M 696.927, 545.033 L 711.163, 556.843 L 698.793, 559.675 L 647.172, 541.367 L 635.492, 523.994 z "/>
<path style="fill:rgb(252, 255, 11);fill-opacity:1.0;fill-rule:evenodd;stroke:rgb(0, 0, 0);stroke-width:3.0;" d="M 338.398, 274.112 L 321.35, 275.197 L 308.766, 268.932 L 321.78, 261.943 z "/>
<path style="fill:rgb(252, 255, 11);fill-opacity:1.0;fill-rule:evenodd;stroke:rgb(0, 0, 0);stroke-width:3.0;" d="M 717.951, 561.93 L 717.553, 562.143 L 704.91, 551.655 L 708.707, 547.706 L 723.519, 541.362 z "/>
<path style="fill:rgb(255, 5, 255);fill-opacity:1.0;fill-rule:evenodd;stroke:rgb(0, 0, 0);stroke-width:3.0;" d="M 131.381, 425.806 L 131.05, 429.25 L 112.735, 427.87 L 111.341, 422.266 L 113.244, 419.997 L 125.317, 414.205 z "/>
<path style="fill:rgb(194, 24, 255);fill-opacity:1.0;fill-rule:evenodd;stroke:rgb(0, 0, 0);stroke-width:3.0;" d="M 475.537, 36.7742 L 466.027, 40.8233 L 471.275, 30.8147 L 474.94, 27.5572 L 491.763, 19.2298 z "/>
<path style="fill:rgb(231, 8, 49);fill-opacity:1.0;fill-rule:evenodd;stroke:rgb(0, 0, 0);stroke-width:3.0;" d="M 571.988, 387.369 L 562.118, 413.364 L 551.134, 413.712 L 571.637, 387.179 z "/>
<path style="fill:rgb(255, 134, 255);fill-opacity:1.0;fill-rule:evenodd;stroke:rgb(0, 0, 0);stroke-width:3.0;" d="M 249.785, 56.0962 L 226.223, 68.0509 L 221.86, 57.9316 L 242.666, 46.3263 z "/>
<path style="fill:rgb(255, 134, 255);fill-opacity:1.0;fill-rule:evenodd;stroke:rgb(0, 0, 0);stroke-width:3.0;" d="M 270.974, 412.508 L 210.596, 444.008 L 208.329, 438.587 L 261.494, 387.853 L 273.05, 386.915 z "/>
<path style="fill:rgb(64, 27, 249);fill-opacity:1.0;fill-rule:evenodd;stroke:rgb(0, 0, 0);stroke-width:3.0;" d="M 612.964, 377.469 L 607.303, 393.048 L 602.773, 396.144 L 587.923, 387.993 L 582.112, 373.623 L 604.828, 344.226 z "/>
<path style="fill:rgb(237, 8, 74);fill-opacity:1.0;fill-rule:evenodd;stroke:rgb(0, 0, 0);stroke-width:3.0;" d="M 426.728, 343.578 L 358.735, 412.081 L 332.996, 389.114 L 418.823, 330.56 z "/>
<path style="fill:rgb(204, 21, 36);fill-opacity:1.0;fill-rule:evenodd;stroke:rgb(0, 0, 0);stroke-width:3.0;" d="M 153.972, 66.548 L 147.527, 76.9191 L 125.884, 60.5606 z "/>
<path style="fill:rgb(255, 3, 56);fill-opacity:1.0;fill-rule:evenodd;stroke:rgb(0, 0, 0);stroke-width:3.0;" d="M 678.978, 469.351 L 664.476, 472.756 L 664.057, 464.048 L 684.337, 445.729 z "/>
<path style="fill:rgb(255, 3, 56);fill-opacity:1.0;fill-rule:evenodd;stroke:rgb(0, 0, 0);stroke-width:3.0;" d="M 726.881, 346.516 L 709.98, 351.712 L 699.549, 345.347 L 718.355, 338.564 z "/>
<path style="fill:rgb(255, 41, 44);fill-opacity:1.0;fill-rule:evenodd;stroke:rgb(0, 0, 0);stroke-width:3.0;" d="M 635.492, 523.994 L 647.172, 541.367 L 601.096, 525.027 L 615.333, 517.09 z "/>
<path style="fill:rgb(255, 41, 103);fill-opacity:1.0;fill-rule:evenodd;stroke:rgb(0, 0, 0);stroke-width:3.0;" d="M 78.5674, 404.329 L 54.4322, 412.832 L 30.0834, 402.633 L 47.0265, 386.497 z "/>
<path style="fill:rgb(246, 215, 10);fill-opacity:1.0;fill-rule:evenodd;stroke:rgb(0, 0, 0);stroke-width:3.0;" d="M 215.283, 340.403 L 193.512, 328.359 L 238.319, 317.452 z "/>
<path style="fill:rgb(246, 215, 10);fill-opacity:1.0;fill-rule:evenodd;stroke:rgb(0, 0, 0);stroke-width:3.0;" d="M 239.967, 152.27 L 233.53, 160.597 L 218.39, 148.037 L 225.397, 136.344 z "/>
<path style="fill:rgb(246, 215, 10);fill-opacity:1.0;fill-rule:evenodd;stroke:rgb(0, 0, 0);stroke-width:3.0;" d="M 667.468, 263.163 L 515.915, 394.865 L 505.003, 385.812 L 632.572, 241.143 L 687.51, 237.226 z "/>
<path style="fill:rgb(246, 215, 10);fill-opacity:1.0;fill-rule:evenodd;stroke:rgb(0, 0, 0);stroke-width:3.0;" d="M 677.468, 283.176 L 676.92, 289.683 L 670.425, 289.351 L 661.828, 272.413 z "/>
<path style="fill:rgb(246, 215, 10);fill-opacity:1.0;fill-rule:evenodd;stroke:rgb(0, 0, 0);stroke-width:3.0;" d="M 658.553, 300.442 L 660.477, 313.031 L 647.528, 308.726 L 647.185, 307.049 L 649.479, 292.043 z "/>
<path style="fill:rgb(117, 255, 252);fill-opacity:1.0;fill-rule:evenodd;stroke:rgb(0, 0, 0);stroke-width:3.0;" d="M 699.616, 452.671 L 705.918, 469.187 L 699.043, 471.185 L 688.528, 459.912 L 685.645, 439.98 z "/>
<path style="fill:rgb(117, 255, 252);fill-opacity:1.0;fill-rule:evenodd;stroke:rgb(0, 0, 0);stroke-width:3.0;" d="M 618.02, 453.676 L 608.95, 456.403 L 594.74, 451.246 L 595.205, 427.821 L 601.259, 421.529 z "/>
<path style="fill:rgb(117, 255, 252);fill-opacity:1.0;fill-rule:evenodd;stroke:rgb(0, 0, 0);stroke-width:3.0;" d="M 666.717, 519.97 L 675.425, 537.669 L 647.441, 528.086 L 651.444, 507.3 z "/>
<path style="fill:rgb(255, 249, 28);fill-opacity:1.0;fill-rule:evenodd;stroke:rgb(0, 0, 0);stroke-width:3.0;" d="M 668.027, 369.892 L 673.809, 385.046 L 665.024, 384.542 L 653.133, 367.623 L 656.484, 364.141 z "/>
<path style="fill:rgb(255, 249, 28);fill-opacity:1.0;fill-rule:evenodd;stroke:rgb(0, 0, 0);stroke-width:3.0;" d="M 674.991, 298.348 L 668.734, 309.867 L 649.479, 292.043 L 650.547, 285.06 L 652.615, 282.384 L 666.415, 281.45 z "/>
<path style="fill:rgb(255, 249, 28);fill-opacity:1.0;fill-rule:evenodd;stroke:rgb(0, 0, 0);stroke-width:3.0;" d="M 274.131, 474.466 L 272.638, 453.584 L 287.229, 431.317 L 297.026, 428.505 z "/>
<path style="fill:rgb(255, 246, 10);fill-opacity:1.0;fill-rule:evenodd;stroke:rgb(0, 0, 0);stroke-width:3.0;" d="M 773.046, 339.699 L 770.433, 347.152 L 760.548, 340.349 L 760.343, 325.039 z "/>
<path style="fill:rgb(255, 65, 110);fill-opacity:1.0;fill-rule:evenodd;stroke:rgb(0, 0, 0);stroke-width:3.0;" d="M 153.596, 418.92 L 139.071, 412.451 L 109.718, 359.102 L 111.221, 356.495 z "/>
<path style="fill:rgb(255, 0, 252);fill-opacity:1.0;fill-rule:evenodd;stroke:rgb(0, 0, 0);stroke-width:3.0;" d="M 505.003, 385.812 L 430.818, 324.268 L 414.028, 256.727 L 632.572, 241.143 z "/>
<path style="fill:rgb(255, 0, 252);fill-opacity:1.0;fill-rule:evenodd;stroke:rgb(0, 0, 0);stroke-width:3.0;" d="M 391.398, 50.1352 L 374.436, 34.3311 L 379.782, 20.7194 z "/>
<path style="fill:rgb(255, 71, 7);fill-opacity:1.0;fill-rule:evenodd;stroke:rgb(0, 0, 0);stroke-width:3.0;" d="M 679.149, 552.708 L 742.864, 584.723 L 744.7, 590.612 L 672.191, 550.24 z "/>
<path style="fill:rgb(255, 71, 7);fill-opacity:1.0;fill-rule:evenodd;stroke:rgb(0, 0, 0);stroke-width:3.0;" d="M 218.128, 462.014 L 230.15, 490.755 L 218.44, 493.632 L 202.445, 461.44 z "/>
<path style="fill:rgb(179, 56, 255);fill-opacity:1.0;fill-rule:evenodd;stroke:rgb(0, 0, 0);stroke-width:3.0;" d="M 738.895, 432.17 L 719.284, 439.684 L 692.045, 431.904 z "/>
<path style="fill:rgb(115, 231, 182);fill-opacity:1.0;fill-rule:evenodd;stroke:rgb(0, 0, 0);stroke-width:3.0;" d="M 268.281, 81.6017 L 242.833, 77.381 L 275.699, 67.8994 z "/>
<path style="fill:rgb(115, 231, 182);fill-opacity:1.0;fill-rule:evenodd;stroke:rgb(0, 0, 0);stroke-width:3.0;" d="M 187.88, 107.42 L 214.454, 127.506 L 184.826, 120.192 L 172.848, 110.256 L 173.984, 105.422 z "/>
<path style="fill:rgb(30, 189, 204);fill-opacity:1.0;fill-rule:evenodd;stroke:rgb(0, 0, 0);stroke-width:3.0;" d="M 414.159, 375.865 L 392.824, 384.258 L 395.664, 374.875 L 402.69, 367.796 z "/>
<path style="fill:rgb(30, 189, 204);fill-opacity:1.0;fill-rule:evenodd;stroke:rgb(0, 0, 0);stroke-width:3.0;" d="M 680.827, 245.874 L 726.44, 186.846 L 749.899, 182.835 z "/>
<path style="fill:rgb(255, 192, 21);fill-opacity:1.0;fill-rule:evenodd;stroke:rgb(0, 0, 0);stroke-width:3.0;" d="M 79.1842, 162.64 L 49.5106, 193.299 L 30.4545, 130.116 L 39.924, 127.609 z "/>
<path style="fill:rgb(246, 255, 40);fill-opacity:1.0;fill-rule:evenodd;stroke:rgb(0, 0, 0);stroke-width:3.0;" d="M 161.34, 457.613 L 137.123, 447.469 L 143.351, 444.049 L 152.097, 444.011 z "/>
<path style="fill:rgb(246, 255, 40);fill-opacity:1.0;fill-rule:evenodd;stroke:rgb(0, 0, 0);stroke-width:3.0;" d="M 190.204, 414.458 L 189.804, 425.18 L 184.616, 425.559 L 177.58, 411.399 L 187.457, 401.754 z "/>
<path style="fill:rgb(255, 33, 25);fill-opacity:1.0;fill-rule:evenodd;stroke:rgb(0, 0, 0);stroke-width:3.0;" d="M 251.352, 371.732 L 176.963, 389.237 L 216.714, 354.054 z "/>
<path style="fill:rgb(234, 51, 43);fill-opacity:1.0;fill-rule:evenodd;stroke:rgb(0, 0, 0);stroke-width:3.0;" d="M 680.994, 334.026 L 683.245, 341.641 L 667.707, 363.859 L 664.975, 361.895 L 662.261, 354.782 L 669.501, 327.014 z "/>
<path style="fill:rgb(234, 51, 43);fill-opacity:1.0;fill-rule:evenodd;stroke:rgb(0, 0, 0);stroke-width:3.0;" d="M 414.016, 315.761 L 401.708, 315.9 L 363.91, 298.656 L 367.185, 289.002 z "/>
<path style="fill:rgb(194, 3, 9);fill-opacity:1.0;fill-rule:evenodd;stroke:rgb(0, 0, 0);stroke-width:3.0;" d="M 687.725, 290.235 L 699.901, 298.614 L 700.936, 301.347 L 688.199, 316.374 L 682.98, 314.088 L 670.425, 289.351 z "/>
<path style="fill:rgb(194, 3, 9);fill-opacity:1.0;fill-rule:evenodd;stroke:rgb(0, 0, 0);stroke-width:3.0;" d="M 180.239, 357.649 L 175.814, 360.303 L 156.715, 351.078 L 154.731, 344.493 z "/>
<path style="fill:rgb(255, 110, 12);fill-opacity:1.0;fill-rule:evenodd;stroke:rgb(0, 0, 0);stroke-width:3.0;" d="M 318.693, 437.418 L 312.514, 441.712 L 294.115, 441.525 L 303.084, 418.934 z "/>
<path style="fill:rgb(11, 150, 255);fill-opacity:1.0;fill-rule:evenodd;stroke:rgb(0, 0, 0);stroke-width:3.0;" d="M 185.211, 426.757 L 230.154, 517.206 L 196.418, 516.679 L 141.318, 416.535 z "/>
<path style="fill:rgb(18, 231, 255);fill-opacity:1.0;fill-rule:evenodd;stroke:rgb(0, 0, 0);stroke-width:3.0;" d="M 231.565, 305.477 L 228.05, 319.952 L 145.914, 339.945 L 140.753, 337.284 L 137.85, 331.442 L 164.48, 280.475 z "/>
<path style="fill:rgb(18, 231, 255);fill-opacity:1.0;fill-rule:evenodd;stroke:rgb(0, 0, 0);stroke-width:3.0;" d="M 647.772, 504.253 L 629.844, 519.939 L 624.203, 502.57 L 634.027, 492.85 z "/>
<path style="fill:rgb(255, 252, 27);fill-opacity:1.0;fill-rule:evenodd;stroke:rgb(0, 0, 0);stroke-width:3.0;" d="M 85.0446, 211.179 L 72.994, 200.916 L 66.6543, 188.157 L 68.7349, 184.033 z "/>
<path style="fill:rgb(255, 252, 27);fill-opacity:1.0;fill-rule:evenodd;stroke:rgb(0, 0, 0);stroke-width:3.0;" d="M 594.74, 451.246 L 578.377, 445.308 L 595.205, 427.821 z "/>
<path style="fill:rgb(255, 255, 44);fill-opacity:1.0;fill-rule:evenodd;stroke:rgb(0, 0, 0);stroke-width:3.0;" d="M 238.61, 357.42 L 222.881, 348.596 L 236.531, 336.514 z "/>
<path style="fill:rgb(255, 41, 21);fill-opacity:1.0;fill-rule:evenodd;stroke:rgb(0, 0, 0);stroke-width:3.0;" d="M 248.584, 329.393 L 248.389, 362.907 L 238.61, 357.42 L 236.531, 336.514 L 247.85, 326.495 z "/>
<path style="fill:rgb(255, 37, 49);fill-opacity:1.0;fill-rule:evenodd;stroke:rgb(0, 0, 0);stroke-width:3.0;" d="M 776.575, 544.563 L 774.588, 554.906 L 760.997, 561.454 L 759.47, 546.974 L 767.149, 541.619 z "/>
<path style="fill:rgb(255, 209, 6);fill-opacity:1.0;fill-rule:evenodd;stroke:rgb(0, 0, 0);stroke-width:3.0;" d="M 371.823, 275.325 L 371.706, 275.669 L 358.475, 285.914 L 346.233, 273.331 L 364.812, 269.509 z "/>
<path style="fill:rgb(220, 9, 255);fill-opacity:1.0;fill-rule:evenodd;stroke:rgb(0, 0, 0);stroke-width:3.0;" d="M 730.907, 350.271 L 731.533, 350.855 L 732.701, 354.161 L 729.284, 358.664 L 711.607, 352.704 L 709.98, 351.712 L 718.493, 349.094 z "/>
<path style="fill:rgb(255, 255, 7);fill-opacity:1.0;fill-rule:evenodd;stroke:rgb(0, 0, 0);stroke-width:3.0;" d="M 302.937, 70.8078 L 299.713, 74.9786 L 265.279, 31.1507 L 274.596, 27.5268 z "/>
<path style="fill:rgb(255, 12, 55);fill-opacity:1.0;fill-rule:evenodd;stroke:rgb(0, 0, 0);stroke-width:3.0;" d="M 240.673, 332.848 L 225.655, 346.141 L 222.014, 344.127 L 242.547, 319.508 z "/>
<path style="fill:rgb(255, 3, 123);fill-opacity:1.0;fill-rule:evenodd;stroke:rgb(0, 0, 0);stroke-width:3.0;" d="M 139.738, 344.799 L 142.222, 359.003 L 130.863, 385.431 L 95.7149, 333.652 L 92.3695, 327.572 z "/>
<path style="fill:rgb(202, 249, 226);fill-opacity:1.0;fill-rule:evenodd;stroke:rgb(0, 0, 0);stroke-width:3.0;" d="M 305.843, 287.562 L 303.319, 297.838 L 293.686, 297.478 L 290.622, 292.527 L 305.852, 286.679 z "/>
<path style="fill:rgb(202, 249, 226);fill-opacity:1.0;fill-rule:evenodd;stroke:rgb(0, 0, 0);stroke-width:3.0;" d="M 676.404, 528.006 L 685.37, 541.075 L 675.425, 537.669 L 666.717, 519.97 z "/>
<path style="fill:rgb(255, 246, 9);fill-opacity:1.0;fill-rule:evenodd;stroke:rgb(0, 0, 0);stroke-width:3.0;" d="M 751.044, 179.87 L 750.211, 182.551 L 749.899, 182.835 L 726.44, 186.846 L 738.189, 171.641 z "/>
<path style="fill:rgb(255, 75, 246);fill-opacity:1.0;fill-rule:evenodd;stroke:rgb(0, 0, 0);stroke-width:3.0;" d="M 244.785, 310.404 L 164.48, 280.475 L 179.35, 252.017 z "/>
<path style="fill:rgb(255, 17, 72);fill-opacity:1.0;fill-rule:evenodd;stroke:rgb(0, 0, 0);stroke-width:3.0;" d="M 274.876, 43.3657 L 249.785, 56.0962 L 242.666, 46.3263 L 266.679, 32.9324 z "/>
<path style="fill:rgb(255, 17, 72);fill-opacity:1.0;fill-rule:evenodd;stroke:rgb(0, 0, 0);stroke-width:3.0;" d="M 395.224, 294.739 L 415.439, 311.51 L 415.384, 315.745 L 414.016, 315.761 L 375.67, 293.85 L 379.777, 287.072 z "/>
<path style="fill:rgb(231, 0, 179);fill-opacity:1.0;fill-rule:evenodd;stroke:rgb(0, 0, 0);stroke-width:3.0;" d="M 257.759, 467.487 L 234.595, 497.206 L 231.449, 460.152 L 245.413, 443.32 L 251.922, 441.451 z "/>
<path style="fill:rgb(231, 0, 179);fill-opacity:1.0;fill-rule:evenodd;stroke:rgb(0, 0, 0);stroke-width:3.0;" d="M 347.235, 417.582 L 345.634, 418.695 L 306.782, 423.314 L 302.272, 417.973 L 309.416, 403.634 z "/>
<path style="fill:rgb(65, 31, 255);fill-opacity:1.0;fill-rule:evenodd;stroke:rgb(0, 0, 0);stroke-width:3.0;" d="M 660.599, 378.246 L 669.468, 390.866 L 662.442, 410.663 L 656.12, 413.157 L 631.148, 390.47 L 647.655, 373.316 z "/>
<path style="fill:rgb(65, 31, 255);fill-opacity:1.0;fill-rule:evenodd;stroke:rgb(0, 0, 0);stroke-width:3.0;" d="M 208.477, 438.941 L 195.756, 447.978 L 189.428, 435.244 L 190.863, 396.832 z "/>
<path style="fill:rgb(33, 121, 255);fill-opacity:1.0;fill-rule:evenodd;stroke:rgb(0, 0, 0);stroke-width:3.0;" d="M 323.166, 434.309 L 318.693, 437.418 L 306.782, 423.314 L 323.804, 421.29 z "/>
<path style="fill:rgb(249, 119, 36);fill-opacity:1.0;fill-rule:evenodd;stroke:rgb(0, 0, 0);stroke-width:3.0;" d="M 779.185, 141.288 L 777.719, 148.627 L 769.737, 149.725 L 763.112, 140.999 L 763.218, 140.66 z "/>
<path style="fill:rgb(255, 5, 78);fill-opacity:1.0;fill-rule:evenodd;stroke:rgb(0, 0, 0);stroke-width:3.0;" d="M 398.659, 297.589 L 354.52, 260.97 L 393.208, 258.212 z "/>
<path style="fill:rgb(255, 12, 33);fill-opacity:1.0;fill-rule:evenodd;stroke:rgb(0, 0, 0);stroke-width:3.0;" d="M 101.074, 400.525 L 99.794, 402.651 L 83.8223, 407.3 L 72.8373, 401.09 L 97.8732, 400.042 z "/>
<path style="fill:rgb(252, 24, 194);fill-opacity:1.0;fill-rule:evenodd;stroke:rgb(0, 0, 0);stroke-width:3.0;" d="M 646.251, 312.828 L 648.933, 319.857 L 645.199, 326.031 L 637.614, 327.609 L 629.688, 312.054 L 634.589, 305.712 z "/>
<path style="fill:rgb(255, 37, 55);fill-opacity:1.0;fill-rule:evenodd;stroke:rgb(0, 0, 0);stroke-width:3.0;" d="M 556.332, 406.986 L 546.251, 420.031 L 515.915, 394.865 L 540.124, 373.827 z "/>
<path style="fill:rgb(255, 37, 55);fill-opacity:1.0;fill-rule:evenodd;stroke:rgb(0, 0, 0);stroke-width:3.0;" d="M 283.226, 53.9948 L 275.699, 67.8994 L 242.833, 77.381 L 228.797, 75.0532 L 222.073, 70.1564 L 274.876, 43.3657 z "/>
<path style="fill:rgb(255, 37, 55);fill-opacity:1.0;fill-rule:evenodd;stroke:rgb(0, 0, 0);stroke-width:3.0;" d="M 249.216, 519.996 L 248.547, 520.501 L 238.059, 509.663 L 235.039, 502.443 L 234.595, 497.206 L 240.607, 489.493 z "/>
<path style="fill:rgb(228, 150, 7);fill-opacity:1.0;fill-rule:evenodd;stroke:rgb(0, 0, 0);stroke-width:3.0;" d="M 295.163, 355.356 L 262.926, 363.955 L 262.199, 325.942 z "/>
<path style="fill:rgb(228, 150, 7);fill-opacity:1.0;fill-rule:evenodd;stroke:rgb(0, 0, 0);stroke-width:3.0;" d="M 165.877, 69.0858 L 158.301, 85.0625 L 147.527, 76.9191 L 153.972, 66.548 z "/>
<path style="fill:rgb(228, 150, 7);fill-opacity:1.0;fill-rule:evenodd;stroke:rgb(0, 0, 0);stroke-width:3.0;" d="M 760.138, 309.701 L 760.548, 340.349 L 743.378, 328.534 L 746.373, 309.883 L 754.925, 309.011 L 758.092, 308.766 z "/>
<path style="fill:rgb(228, 150, 7);fill-opacity:1.0;fill-rule:evenodd;stroke:rgb(0, 0, 0);stroke-width:3.0;" d="M 291.517, 430.086 L 285.779, 431.733 L 257.176, 419.707 L 283.087, 406.188 z "/>
<path style="fill:rgb(105, 255, 255);fill-opacity:1.0;fill-rule:evenodd;stroke:rgb(0, 0, 0);stroke-width:3.0;" d="M 302.951, 364.13 L 306.366, 375.006 L 294.839, 371.305 L 290.854, 362.804 z "/>
<path style="fill:rgb(21, 255, 11);fill-opacity:1.0;fill-rule:evenodd;stroke:rgb(0, 0, 0);stroke-width:3.0;" d="M 637.614, 327.609 L 619.419, 331.395 L 622.51, 321.343 L 629.688, 312.054 z "/>
<path style="fill:rgb(7, 119, 228);fill-opacity:1.0;fill-rule:evenodd;stroke:rgb(0, 0, 0);stroke-width:3.0;" d="M 214.454, 127.506 L 223.716, 134.507 L 225.397, 136.344 L 218.39, 148.037 L 215.763, 145.858 L 204.124, 124.956 z "/>
<path style="fill:rgb(187, 15, 9);fill-opacity:1.0;fill-rule:evenodd;stroke:rgb(0, 0, 0);stroke-width:3.0;" d="M 318.725, 25.8503 L 287.612, 47.4038 L 274.596, 27.5268 L 288.407, 22.1555 z "/>
<path style="fill:rgb(187, 15, 9);fill-opacity:1.0;fill-rule:evenodd;stroke:rgb(0, 0, 0);stroke-width:3.0;" d="M 191.913, 74.6356 L 164.635, 89.8504 L 158.301, 85.0625 L 165.877, 69.0858 z "/>
<path style="fill:rgb(187, 15, 9);fill-opacity:1.0;fill-rule:evenodd;stroke:rgb(0, 0, 0);stroke-width:3.0;" d="M 193.578, 127.453 L 181.234, 124.943 L 156.073, 96.3386 z "/>
<path style="fill:rgb(48, 255, 246);fill-opacity:1.0;fill-rule:evenodd;stroke:rgb(0, 0, 0);stroke-width:3.0;" d="M 616.26, 478.11 L 629.5, 518.881 L 609.392, 499.664 L 546.226, 420.01 z "/>
<path style="fill:rgb(234, 39, 134);fill-opacity:1.0;fill-rule:evenodd;stroke:rgb(0, 0, 0);stroke-width:3.0;" d="M 745.794, 313.488 L 742.028, 312.512 L 734.544, 305.201 L 748.295, 297.919 z "/>
<path style="fill:rgb(163, 255, 72);fill-opacity:1.0;fill-rule:evenodd;stroke:rgb(0, 0, 0);stroke-width:3.0;" d="M 185.232, 381.919 L 179.506, 386.986 L 168.747, 393.623 L 165.922, 387.937 L 166.596, 386.587 L 179.152, 379.786 z "/>
<path style="fill:rgb(255, 0, 123);fill-opacity:1.0;fill-rule:evenodd;stroke:rgb(0, 0, 0);stroke-width:3.0;" d="M 350.542, 443.521 L 342.246, 449.782 L 335.75, 440.858 L 345.363, 434.923 L 347.704, 434.418 z "/>
<path style="fill:rgb(255, 0, 123);fill-opacity:1.0;fill-rule:evenodd;stroke:rgb(0, 0, 0);stroke-width:3.0;" d="M 336.056, 27.9624 L 302.937, 70.8078 L 287.612, 47.4038 L 318.725, 25.8503 z "/>
<path style="fill:rgb(255, 170, 19);fill-opacity:1.0;fill-rule:evenodd;stroke:rgb(0, 0, 0);stroke-width:3.0;" d="M 420.646, 283.35 L 398.523, 296.606 L 393.208, 258.212 L 414.028, 256.727 z "/>
<path style="fill:rgb(249, 237, 65);fill-opacity:1.0;fill-rule:evenodd;stroke:rgb(0, 0, 0);stroke-width:3.0;" d="M 745.624, 338.991 L 743.264, 361.797 L 720.805, 340.849 L 724.352, 332.139 z "/>
<path style="fill:rgb(240, 22, 98);fill-opacity:1.0;fill-rule:evenodd;stroke:rgb(0, 0, 0);stroke-width:3.0;" d="M 164.692, 459.017 L 173.556, 475.126 L 172.263, 485.623 L 110.163, 467.285 L 148.608, 452.28 z "/>
<path style="fill:rgb(240, 22, 98);fill-opacity:1.0;fill-rule:evenodd;stroke:rgb(0, 0, 0);stroke-width:3.0;" d="M 616.396, 397.304 L 615.311, 406.579 L 602.3, 406.815 L 607.071, 393.686 z "/>
<path style="fill:rgb(255, 24, 194);fill-opacity:1.0;fill-rule:evenodd;stroke:rgb(0, 0, 0);stroke-width:3.0;" d="M 145.719, 316.381 L 137.85, 331.442 L 134.904, 325.512 L 137.414, 311.878 L 139.45, 311.728 z "/>
<path style="fill:rgb(255, 16, 177);fill-opacity:1.0;fill-rule:evenodd;stroke:rgb(0, 0, 0);stroke-width:3.0;" d="M 261.739, 485.244 L 263.918, 494.966 L 256.048, 510.764 L 251.866, 475.048 L 252.469, 474.274 z "/>
<path style="fill:rgb(255, 165, 26);fill-opacity:1.0;fill-rule:evenodd;stroke:rgb(0, 0, 0);stroke-width:3.0;" d="M 313.997, 445.602 L 314.059, 446.943 L 310.774, 456.079 L 290.897, 456.735 L 309.66, 443.695 z "/>
<path style="fill:rgb(255, 165, 26);fill-opacity:1.0;fill-rule:evenodd;stroke:rgb(0, 0, 0);stroke-width:3.0;" d="M 688.077, 357.987 L 668.069, 363.341 L 683.245, 341.641 z "/>
<path style="fill:rgb(252, 9, 9);fill-opacity:1.0;fill-rule:evenodd;stroke:rgb(0, 0, 0);stroke-width:3.0;" d="M 262.199, 325.942 L 262.926, 363.955 L 257.682, 365.354 L 247.85, 326.495 L 255.365, 319.844 z "/>
<path style="fill:rgb(105, 44, 255);fill-opacity:1.0;fill-rule:evenodd;stroke:rgb(0, 0, 0);stroke-width:3.0;" d="M 148.608, 452.28 L 110.163, 467.285 L 102.036, 464.885 L 80.8633, 423.903 z "/>
<path style="fill:rgb(255, 184, 45);fill-opacity:1.0;fill-rule:evenodd;stroke:rgb(0, 0, 0);stroke-width:3.0;" d="M 556.332, 406.986 L 545.417, 384.657 L 625.997, 316.83 z "/>
<path style="fill:rgb(255, 184, 45);fill-opacity:1.0;fill-rule:evenodd;stroke:rgb(0, 0, 0);stroke-width:3.0;" d="M 677.117, 477.554 L 664.877, 481.109 L 664.476, 472.756 L 678.978, 469.351 z "/>
<path style="fill:rgb(20, 9, 255);fill-opacity:1.0;fill-rule:evenodd;stroke:rgb(0, 0, 0);stroke-width:3.0;" d="M 758.673, 287.967 L 760.588, 307.365 L 758.874, 309.123 L 755.541, 307.6 L 751.396, 281.99 z "/>
<path style="fill:rgb(20, 24, 255);fill-opacity:1.0;fill-rule:evenodd;stroke:rgb(0, 0, 0);stroke-width:3.0;" d="M 769.966, 346.831 L 742.468, 337.974 L 744.303, 329.17 z "/>
<path style="fill:rgb(20, 24, 255);fill-opacity:1.0;fill-rule:evenodd;stroke:rgb(0, 0, 0);stroke-width:3.0;" d="M 702.76, 325.121 L 693.233, 334.288 L 685.977, 319.992 z "/>
<path style="fill:rgb(20, 24, 255);fill-opacity:1.0;fill-rule:evenodd;stroke:rgb(0, 0, 0);stroke-width:3.0;" d="M 273.722, 18.5363 L 259.172, 23.3779 L 252.451, 14.8229 L 274.149, 7.67967 z "/>
<path style="fill:rgb(38, 255, 255);fill-opacity:1.0;fill-rule:evenodd;stroke:rgb(0, 0, 0);stroke-width:3.0;" d="M 395.185, 399.334 L 382.664, 393.713 L 389.79, 385.451 L 395.245, 383.305 z "/>
<path style="fill:rgb(252, 48, 39);fill-opacity:1.0;fill-rule:evenodd;stroke:rgb(0, 0, 0);stroke-width:3.0;" d="M 323.166, 434.309 L 323.597, 425.526 L 331.747, 420.346 L 345.634, 418.695 z "/>
<path style="fill:rgb(255, 179, 10);fill-opacity:1.0;fill-rule:evenodd;stroke:rgb(0, 0, 0);stroke-width:3.0;" d="M 135.01, 441.872 L 131.413, 445.077 L 123.907, 441.933 L 123.651, 431.611 L 137.225, 430.832 z "/>
<path style="fill:rgb(15, 88, 255);fill-opacity:1.0;fill-rule:evenodd;stroke:rgb(0, 0, 0);stroke-width:3.0;" d="M 678.836, 404.195 L 670.06, 407.657 L 665.142, 403.057 L 669.468, 390.866 z "/>
<path style="fill:rgb(27, 37, 255);fill-opacity:1.0;fill-rule:evenodd;stroke:rgb(0, 0, 0);stroke-width:3.0;" d="M 439.086, 331.127 L 437.839, 332.384 L 413.167, 321.128 L 420.83, 315.982 z "/>
<path style="fill:rgb(228, 2, 157);fill-opacity:1.0;fill-rule:evenodd;stroke:rgb(0, 0, 0);stroke-width:3.0;" d="M 344.448, 434.077 L 341.554, 437.274 L 310.681, 456.336 L 317.082, 438.537 L 325.257, 432.856 z "/>
<path style="fill:rgb(252, 19, 157);fill-opacity:1.0;fill-rule:evenodd;stroke:rgb(0, 0, 0);stroke-width:3.0;" d="M 361.844, 414.855 L 344.448, 434.077 L 325.257, 432.856 L 357.166, 410.68 z "/>
<path style="fill:rgb(121, 91, 215);fill-opacity:1.0;fill-rule:evenodd;stroke:rgb(0, 0, 0);stroke-width:3.0;" d="M 383.766, 354.477 L 332.996, 389.114 L 323.473, 380.617 L 378.584, 338.914 z "/>
<path style="fill:rgb(237, 11, 255);fill-opacity:1.0;fill-rule:evenodd;stroke:rgb(0, 0, 0);stroke-width:3.0;" d="M 684.195, 371.622 L 680.24, 381.533 L 671.284, 378.427 L 666.424, 365.693 L 668.069, 363.341 L 677.038, 360.941 z "/>
<path style="fill:rgb(14, 2, 255);fill-opacity:1.0;fill-rule:evenodd;stroke:rgb(0, 0, 0);stroke-width:3.0;" d="M 781.986, 127.263 L 780.045, 136.982 L 773.875, 141.079 L 763.218, 140.66 L 763.949, 138.305 L 773.013, 126.575 z "/>
</svg>