<?xml version="1.0" encoding="iso-8859-1" standalone="no"?>
<!DOCTYPE svg PUBLIC "-//W3C//DTD SVG 1.0//EN" "http://www.w3.org/TR/2001/REC-SVG-20010904/DTD/svg10.dtd">
<svg xmlns="http://www.w3.org/2000/svg" width="800" height="600">
<path style="fill:rgb(0, 0, 0);fill-opacity:0.0;fill-rule:evenodd;stroke:rgb(0, 0, 0);stroke-width:0.0;" d="M 0, 600 L 800, 600 L 800, 0 L 0, 0 z "/>
<path style="fill:rgb(255, 246, 12);fill-opacity:1.0;fill-rule:evenodd;stroke:rgb(0, 0, 0);stroke-width:3.0;" d="M 743.085, 259.833 L 752.793, 296.371 L 726.88, 384.828 L 667.069, 377.847 L 724.379, 257.83 z "/>
<path style="fill:rgb(255, 110, 60);fill-opacity:1.0;fill-rule:evenodd;stroke:rgb(0, 0, 0);stroke-width:3.0;" d="M 509.055, 517.598 L 461.959, 524.388 L 467.298, 514.942 L 490.081, 507.19 z "/>
<path style="fill:rgb(255, 161, 22);fill-opacity:1.0;fill-rule:evenodd;stroke:rgb(0, 0, 0);stroke-width:3.0;" d="M 612.687, 243.071 L 599.742, 244.489 L 589.427, 243.385 L 589.543, 240.789 L 604.582, 229.093 z "/>
<path style="fill:rgb(255, 161, 22);fill-opacity:1.0;fill-rule:evenodd;stroke:rgb(0, 0, 0);stroke-width:3.0;" d="M 704.36, 484.454 L 689.789, 487.217 L 698.956, 478.523 L 718.589, 472.671 z "/>
<path style="fill:rgb(124, 240, 231);fill-opacity:1.0;fill-rule:evenodd;stroke:rgb(0, 0, 0);stroke-width:3.0;" d="M 422.689, 554.105 L 329.166, 580.99 L 297.112, 548.151 L 431.873, 528.725 z "/>
<path style="fill:rgb(255, 8, 30);fill-opacity:1.0;fill-rule:evenodd;stroke:rgb(0, 0, 0);stroke-width:3.0;" d="M 636.402, 383.347 L 618.159, 399.018 L 614.713, 381.901 z "/>
<path style="fill:rgb(255, 8, 30);fill-opacity:1.0;fill-rule:evenodd;stroke:rgb(0, 0, 0);stroke-width:3.0;" d="M 698.838, 311.318 L 686.604, 336.939 L 680.906, 340.179 L 691.581, 304.968 z "/>
<path style="fill:rgb(255, 8, 30);fill-opacity:1.0;fill-rule:evenodd;stroke:rgb(0, 0, 0);stroke-width:3.0;" d="M 229.39, 560.671 L 233.655, 570.112 L 233.618, 571.402 L 212.829, 560.301 L 221.322, 559.077 z "/>
<path style="fill:rgb(255, 8, 30);fill-opacity:1.0;fill-rule:evenodd;stroke:rgb(0, 0, 0);stroke-width:3.0;" d="M 650.979, 105.877 L 656.92, 109.13 L 662.327, 115.109 L 649.799, 116.435 L 633.705, 111.454 L 632.049, 109.629 L 645.947, 105.317 z "/>
<path style="fill:rgb(255, 8, 30);fill-opacity:1.0;fill-rule:evenodd;stroke:rgb(0, 0, 0);stroke-width:3.0;" d="M 664.576, 243.746 L 660.486, 248.173 L 648.701, 232.385 L 649.647, 230.091 L 661.64, 229.659 z "/>
<path style="fill:rgb(255, 8, 30);fill-opacity:1.0;fill-rule:evenodd;stroke:rgb(0, 0, 0);stroke-width:3.0;" d="M 730.252, 217.843 L 724.21, 220.459 L 675.852, 224.467 L 675.59, 203.65 L 700.239, 186.748 L 701.699, 186.38 z "/>
<path style="fill:rgb(255, 8, 30);fill-opacity:1.0;fill-rule:evenodd;stroke:rgb(0, 0, 0);stroke-width:3.0;" d="M 133.156, 48.2986 L 95.2278, 91.2515 L 25.1851, 36.2929 z "/>
<path style="fill:rgb(255, 243, 9);fill-opacity:1.0;fill-rule:evenodd;stroke:rgb(0, 0, 0);stroke-width:3.0;" d="M 721.528, 113.721 L 682.637, 123.211 L 650.979, 105.877 z "/>
<path style="fill:rgb(204, 5, 32);fill-opacity:1.0;fill-rule:evenodd;stroke:rgb(0, 0, 0);stroke-width:3.0;" d="M 788.95, 436.224 L 739.504, 505.068 L 737.362, 506.491 L 787.501, 431.681 z "/>
<path style="fill:rgb(204, 5, 32);fill-opacity:1.0;fill-rule:evenodd;stroke:rgb(0, 0, 0);stroke-width:3.0;" d="M 789.252, 239.346 L 773.665, 232.376 L 769.263, 211.839 L 783.558, 194.735 z "/>
<path style="fill:rgb(255, 105, 107);fill-opacity:1.0;fill-rule:evenodd;stroke:rgb(0, 0, 0);stroke-width:3.0;" d="M 783.089, 191.064 L 763.418, 192.203 L 772.434, 155.876 L 774.91, 150.666 L 777.876, 150.223 z "/>
<path style="fill:rgb(255, 105, 107);fill-opacity:1.0;fill-rule:evenodd;stroke:rgb(0, 0, 0);stroke-width:3.0;" d="M 298.171, 580.525 L 266.943, 593.851 L 244.499, 586.337 L 244.189, 585.717 L 254.939, 574.974 L 266.937, 574.151 z "/>
<path style="fill:rgb(255, 105, 107);fill-opacity:1.0;fill-rule:evenodd;stroke:rgb(0, 0, 0);stroke-width:3.0;" d="M 698.385, 420.595 L 691.033, 433.47 L 679.449, 426.862 L 696.603, 419.286 z "/>
<path style="fill:rgb(255, 105, 107);fill-opacity:1.0;fill-rule:evenodd;stroke:rgb(0, 0, 0);stroke-width:3.0;" d="M 675.003, 156.963 L 675.145, 168.234 L 673.906, 171.239 L 664.374, 188.209 L 646.035, 188.151 L 651.199, 130.732 z "/>
<path style="fill:rgb(72, 255, 255);fill-opacity:1.0;fill-rule:evenodd;stroke:rgb(0, 0, 0);stroke-width:3.0;" d="M 760.151, 161.548 L 752.634, 176.868 L 747.797, 171.686 L 751.285, 158.338 z "/>
<path style="fill:rgb(72, 255, 255);fill-opacity:1.0;fill-rule:evenodd;stroke:rgb(0, 0, 0);stroke-width:3.0;" d="M 654.217, 499.813 L 659.763, 508.437 L 640.459, 508.806 L 634.946, 503.258 L 636.682, 499.2 L 642.49, 498.363 z "/>
<path style="fill:rgb(72, 255, 255);fill-opacity:1.0;fill-rule:evenodd;stroke:rgb(0, 0, 0);stroke-width:3.0;" d="M 675.502, 196.675 L 675.547, 200.189 L 666.026, 224.713 L 655.084, 216.9 L 666.18, 189.983 z "/>
<path style="fill:rgb(72, 255, 255);fill-opacity:1.0;fill-rule:evenodd;stroke:rgb(0, 0, 0);stroke-width:3.0;" d="M 242.179, 527.016 L 153.608, 534.301 L 235.486, 507.478 z "/>
<path style="fill:rgb(27, 136, 234);fill-opacity:1.0;fill-rule:evenodd;stroke:rgb(0, 0, 0);stroke-width:3.0;" d="M 724.379, 257.83 L 721.544, 263.768 L 711.688, 276.039 L 707.629, 256.037 z "/>
<path style="fill:rgb(23, 52, 255);fill-opacity:1.0;fill-rule:evenodd;stroke:rgb(0, 0, 0);stroke-width:3.0;" d="M 646.608, 181.779 L 644.071, 209.982 L 637.378, 192.587 L 637.908, 172.609 L 642.042, 169.718 z "/>
<path style="fill:rgb(23, 52, 255);fill-opacity:1.0;fill-rule:evenodd;stroke:rgb(0, 0, 0);stroke-width:3.0;" d="M 666.45, 537.373 L 655.357, 531.824 L 657.462, 522.264 L 660.24, 520.15 L 672.402, 516.729 z "/>
<path style="fill:rgb(240, 146, 110);fill-opacity:1.0;fill-rule:evenodd;stroke:rgb(0, 0, 0);stroke-width:3.0;" d="M 653.363, 221.077 L 644.049, 243.671 L 641.184, 242.088 L 641.48, 238.797 L 643.907, 224.646 L 646.888, 219.338 z "/>
<path style="fill:rgb(240, 146, 110);fill-opacity:1.0;fill-rule:evenodd;stroke:rgb(0, 0, 0);stroke-width:3.0;" d="M 429.539, 586.717 L 414.842, 593.163 L 399.003, 583.209 z "/>
<path style="fill:rgb(237, 2, 11);fill-opacity:1.0;fill-rule:evenodd;stroke:rgb(0, 0, 0);stroke-width:3.0;" d="M 675.59, 203.65 L 675.456, 193 L 700.239, 186.748 z "/>
<path style="fill:rgb(237, 2, 11);fill-opacity:1.0;fill-rule:evenodd;stroke:rgb(0, 0, 0);stroke-width:3.0;" d="M 689.743, 303.36 L 674.957, 290.422 L 701.512, 288.708 z "/>
<path style="fill:rgb(255, 24, 194);fill-opacity:1.0;fill-rule:evenodd;stroke:rgb(0, 0, 0);stroke-width:3.0;" d="M 777.877, 390.781 L 743.206, 386.734 L 741.521, 334.849 L 742.705, 330.806 L 761.424, 328.859 z "/>
<path style="fill:rgb(255, 97, 15);fill-opacity:1.0;fill-rule:evenodd;stroke:rgb(0, 0, 0);stroke-width:3.0;" d="M 67.1263, 95.9138 L 48.2203, 139.021 L 16.8169, 107.118 L 52.9181, 81.3489 z "/>
<path style="fill:rgb(255, 97, 15);fill-opacity:1.0;fill-rule:evenodd;stroke:rgb(0, 0, 0);stroke-width:3.0;" d="M 485.162, 508.864 L 478.539, 511.117 L 458.788, 513.359 L 458.842, 512.881 L 480.647, 502.842 z "/>
<path style="fill:rgb(255, 255, 31);fill-opacity:1.0;fill-rule:evenodd;stroke:rgb(0, 0, 0);stroke-width:3.0;" d="M 751.508, 117.055 L 746.285, 142.864 L 714.712, 126.419 L 723.212, 113.909 z "/>
<path style="fill:rgb(255, 255, 31);fill-opacity:1.0;fill-rule:evenodd;stroke:rgb(0, 0, 0);stroke-width:3.0;" d="M 696.681, 592.842 L 684.177, 578.522 L 701.58, 541.891 L 710.236, 539.837 z "/>
<path style="fill:rgb(255, 255, 31);fill-opacity:1.0;fill-rule:evenodd;stroke:rgb(0, 0, 0);stroke-width:3.0;" d="M 524.918, 504.879 L 504.588, 508.637 L 504.818, 508.231 L 520.207, 496.865 L 523.431, 496.717 z "/>
<path style="fill:rgb(255, 255, 31);fill-opacity:1.0;fill-rule:evenodd;stroke:rgb(0, 0, 0);stroke-width:3.0;" d="M 584.64, 491.209 L 597.469, 492.795 L 537.864, 493.904 L 541.177, 487.689 z "/>
<path style="fill:rgb(255, 255, 31);fill-opacity:1.0;fill-rule:evenodd;stroke:rgb(0, 0, 0);stroke-width:3.0;" d="M 743.807, 259.91 L 777.909, 339.916 L 790.869, 379.039 L 782.534, 391.325 L 777.877, 390.781 L 743.085, 259.833 z "/>
<path style="fill:rgb(255, 255, 31);fill-opacity:1.0;fill-rule:evenodd;stroke:rgb(0, 0, 0);stroke-width:3.0;" d="M 755.69, 479.144 L 735.132, 509.819 L 681.706, 503.212 L 749.03, 447.465 z "/>
<path style="fill:rgb(105, 243, 252);fill-opacity:1.0;fill-rule:evenodd;stroke:rgb(0, 0, 0);stroke-width:3.0;" d="M 787.501, 431.681 L 755.69, 479.144 L 749.03, 447.465 L 783.447, 418.967 z "/>
<path style="fill:rgb(21, 11, 243);fill-opacity:1.0;fill-rule:evenodd;stroke:rgb(0, 0, 0);stroke-width:3.0;" d="M 328.812, 35.8681 L 309.027, 67.8542 L 305.097, 67.4172 L 297.595, 10.2019 L 306.843, 5.6176 z "/>
<path style="fill:rgb(21, 11, 243);fill-opacity:1.0;fill-rule:evenodd;stroke:rgb(0, 0, 0);stroke-width:3.0;" d="M 649.603, 384.745 L 625.775, 436.844 L 624.318, 429.609 L 646.426, 382.41 z "/>
<path style="fill:rgb(43, 202, 212);fill-opacity:1.0;fill-rule:evenodd;stroke:rgb(0, 0, 0);stroke-width:3.0;" d="M 522.583, 483.535 L 421.034, 530.287 L 368.902, 537.802 L 295.643, 487.77 L 367.214, 464.323 z "/>
<path style="fill:rgb(14, 0, 228);fill-opacity:1.0;fill-rule:evenodd;stroke:rgb(0, 0, 0);stroke-width:3.0;" d="M 672.487, 501.56 L 666.198, 475.065 L 686.14, 472.983 z "/>
<path style="fill:rgb(182, 61, 217);fill-opacity:1.0;fill-rule:evenodd;stroke:rgb(0, 0, 0);stroke-width:3.0;" d="M 625.632, 247.261 L 691.581, 304.968 L 681.034, 339.759 L 598.855, 303.138 L 586.767, 243.1 z "/>
<path style="fill:rgb(255, 72, 8);fill-opacity:1.0;fill-rule:evenodd;stroke:rgb(0, 0, 0);stroke-width:3.0;" d="M 282.192, 37.7441 L 274.306, 63.9934 L 204.695, 56.2532 L 245.287, 36.1314 z "/>
<path style="fill:rgb(255, 72, 8);fill-opacity:1.0;fill-rule:evenodd;stroke:rgb(0, 0, 0);stroke-width:3.0;" d="M 561.427, 117.243 L 562.696, 132.747 L 553.83, 126.73 L 556.647, 114.054 L 560.499, 112.632 z "/>
<path style="fill:rgb(255, 72, 8);fill-opacity:1.0;fill-rule:evenodd;stroke:rgb(0, 0, 0);stroke-width:3.0;" d="M 659.609, 447.306 L 669.747, 490.015 L 628.313, 449.451 L 625.775, 436.844 L 628.875, 430.066 z "/>
<path style="fill:rgb(255, 72, 8);fill-opacity:1.0;fill-rule:evenodd;stroke:rgb(0, 0, 0);stroke-width:3.0;" d="M 525.202, 515.271 L 509.055, 517.598 L 501.766, 513.6 L 504.435, 508.905 L 525.05, 506.458 z "/>
<path style="fill:rgb(255, 255, 57);fill-opacity:1.0;fill-rule:evenodd;stroke:rgb(0, 0, 0);stroke-width:3.0;" d="M 634.933, 153.66 L 643.005, 166.803 L 631.145, 176.389 L 621.069, 150.2 z "/>
<path style="fill:rgb(255, 255, 57);fill-opacity:1.0;fill-rule:evenodd;stroke:rgb(0, 0, 0);stroke-width:3.0;" d="M 723.169, 73.0805 L 720.561, 32.6025 L 727.737, 29.2423 z "/>
<path style="fill:rgb(255, 255, 57);fill-opacity:1.0;fill-rule:evenodd;stroke:rgb(0, 0, 0);stroke-width:3.0;" d="M 590.408, 529.884 L 585.745, 529.923 L 584.705, 529.411 L 584.275, 523.813 L 597.648, 504.827 L 597.712, 504.818 z "/>
<path style="fill:rgb(255, 255, 57);fill-opacity:1.0;fill-rule:evenodd;stroke:rgb(0, 0, 0);stroke-width:3.0;" d="M 762.324, 196.611 L 752.526, 197.78 L 772.434, 155.876 z "/>
<path style="fill:rgb(255, 255, 57);fill-opacity:1.0;fill-rule:evenodd;stroke:rgb(0, 0, 0);stroke-width:3.0;" d="M 628.095, 508.633 L 624.01, 508.432 L 613.978, 507.282 L 612.222, 502.726 L 631.072, 500.009 z "/>
<path style="fill:rgb(38, 220, 204);fill-opacity:1.0;fill-rule:evenodd;stroke:rgb(0, 0, 0);stroke-width:3.0;" d="M 759.386, 223.659 L 756.806, 226.746 L 733.577, 205.655 L 734.742, 199.903 L 762.444, 196.596 z "/>
<path style="fill:rgb(38, 220, 204);fill-opacity:1.0;fill-rule:evenodd;stroke:rgb(0, 0, 0);stroke-width:3.0;" d="M 431.794, 218.309 L 336.164, 396.419 L 299.508, 281.965 L 383.5, 214.142 z "/>
<path style="fill:rgb(38, 220, 204);fill-opacity:1.0;fill-rule:evenodd;stroke:rgb(0, 0, 0);stroke-width:3.0;" d="M 702.801, 505.821 L 684.499, 577.845 L 684.177, 578.522 L 661.931, 553.043 L 676.486, 502.566 z "/>
<path style="fill:rgb(38, 220, 204);fill-opacity:1.0;fill-rule:evenodd;stroke:rgb(0, 0, 0);stroke-width:3.0;" d="M 438.007, 540.257 L 433.346, 547.652 L 429.041, 547.984 L 428.365, 538.42 L 431.873, 528.725 L 432.667, 528.61 z "/>
<path style="fill:rgb(202, 9, 255);fill-opacity:1.0;fill-rule:evenodd;stroke:rgb(0, 0, 0);stroke-width:3.0;" d="M 725.819, 114.198 L 633.115, 103.891 L 628.961, 80.3825 L 670.732, 40.5882 L 720.416, 30.3564 z "/>
<path style="fill:rgb(189, 2, 64);fill-opacity:1.0;fill-rule:evenodd;stroke:rgb(0, 0, 0);stroke-width:3.0;" d="M 696.862, 131 L 723.635, 145.659 L 686.68, 162.377 L 677.85, 160.099 L 653.244, 132.985 L 666.889, 121.724 z "/>
<path style="fill:rgb(189, 2, 64);fill-opacity:1.0;fill-rule:evenodd;stroke:rgb(0, 0, 0);stroke-width:3.0;" d="M 641.444, 19.1707 L 637.166, 72.5659 L 607.299, 101.02 L 597.923, 99.9773 L 591.579, 83.2261 L 636.912, 14.7343 z "/>
<path style="fill:rgb(189, 2, 64);fill-opacity:1.0;fill-rule:evenodd;stroke:rgb(0, 0, 0);stroke-width:3.0;" d="M 79.7153, 108.819 L 58.2918, 133.08 L 55.458, 122.519 L 67.1263, 95.9138 z "/>
<path style="fill:rgb(189, 2, 64);fill-opacity:1.0;fill-rule:evenodd;stroke:rgb(0, 0, 0);stroke-width:3.0;" d="M 689.78, 173.246 L 675.353, 184.779 L 675.21, 173.42 L 687.146, 170.343 z "/>
<path style="fill:rgb(189, 2, 64);fill-opacity:1.0;fill-rule:evenodd;stroke:rgb(0, 0, 0);stroke-width:3.0;" d="M 365.009, 20.0235 L 325.468, 41.2752 L 347.244, 6.06863 z "/>
<path style="fill:rgb(189, 2, 64);fill-opacity:1.0;fill-rule:evenodd;stroke:rgb(0, 0, 0);stroke-width:3.0;" d="M 433.102, 587.126 L 403.351, 583.709 L 403.857, 580.184 L 427.955, 575.383 z "/>
<path style="fill:rgb(189, 2, 64);fill-opacity:1.0;fill-rule:evenodd;stroke:rgb(0, 0, 0);stroke-width:3.0;" d="M 676.009, 236.957 L 663.78, 239.925 L 661.64, 229.659 L 675.91, 229.144 z "/>
<path style="fill:rgb(189, 2, 64);fill-opacity:1.0;fill-rule:evenodd;stroke:rgb(0, 0, 0);stroke-width:3.0;" d="M 713.991, 432.064 L 689.909, 465.095 L 697.727, 448.732 L 710.134, 429.23 z "/>
<path style="fill:rgb(189, 2, 64);fill-opacity:1.0;fill-rule:evenodd;stroke:rgb(0, 0, 0);stroke-width:3.0;" d="M 744.71, 150.647 L 743.517, 156.545 L 707.603, 136.881 L 711.727, 130.812 z "/>
<path style="fill:rgb(226, 33, 8);fill-opacity:1.0;fill-rule:evenodd;stroke:rgb(0, 0, 0);stroke-width:3.0;" d="M 648.825, 157.128 L 648.072, 165.501 L 643.968, 168.371 L 634.933, 153.66 z "/>
<path style="fill:rgb(243, 37, 44);fill-opacity:1.0;fill-rule:evenodd;stroke:rgb(0, 0, 0);stroke-width:3.0;" d="M 606.224, 183.748 L 605.608, 219.049 L 604.707, 221.941 L 579.729, 208.146 L 561.536, 117.786 z "/>
<path style="fill:rgb(92, 240, 179);fill-opacity:1.0;fill-rule:evenodd;stroke:rgb(0, 0, 0);stroke-width:3.0;" d="M 657.31, 522.953 L 622.723, 515.499 L 621.741, 515.008 L 629.73, 509.012 L 660.509, 508.423 z "/>
<path style="fill:rgb(92, 240, 179);fill-opacity:1.0;fill-rule:evenodd;stroke:rgb(0, 0, 0);stroke-width:3.0;" d="M 635.147, 374.12 L 641.612, 378.872 L 636.402, 383.347 L 614.713, 381.901 L 612.617, 371.49 z "/>
<path style="fill:rgb(199, 59, 220);fill-opacity:1.0;fill-rule:evenodd;stroke:rgb(0, 0, 0);stroke-width:3.0;" d="M 615.781, 136.458 L 606.276, 111.755 L 624.615, 108.971 z "/>
<path style="fill:rgb(246, 49, 7);fill-opacity:1.0;fill-rule:evenodd;stroke:rgb(0, 0, 0);stroke-width:3.0;" d="M 789.985, 392.195 L 782.215, 399.563 L 762.165, 393.865 L 761.261, 388.842 z "/>
<path style="fill:rgb(43, 249, 209);fill-opacity:1.0;fill-rule:evenodd;stroke:rgb(0, 0, 0);stroke-width:3.0;" d="M 642.49, 498.363 L 579.181, 507.489 L 550.092, 498.281 L 553.564, 493.612 L 597.469, 492.795 z "/>
<path style="fill:rgb(27, 30, 243);fill-opacity:1.0;fill-rule:evenodd;stroke:rgb(0, 0, 0);stroke-width:3.0;" d="M 588.986, 98.9837 L 599.059, 106.554 L 604.809, 127.804 L 558.626, 103.332 L 557.036, 95.431 z "/>
<path style="fill:rgb(255, 255, 11);fill-opacity:1.0;fill-rule:evenodd;stroke:rgb(0, 0, 0);stroke-width:3.0;" d="M 628.89, 316.522 L 602.515, 321.316 L 598.855, 303.138 z "/>
<path style="fill:rgb(255, 152, 255);fill-opacity:1.0;fill-rule:evenodd;stroke:rgb(0, 0, 0);stroke-width:3.0;" d="M 606.397, 112.069 L 636.211, 189.553 L 620.972, 187.528 L 599.059, 106.554 z "/>
<path style="fill:rgb(255, 152, 255);fill-opacity:1.0;fill-rule:evenodd;stroke:rgb(0, 0, 0);stroke-width:3.0;" d="M 730.903, 149.638 L 730.428, 173.661 L 711.47, 168.771 L 708.936, 152.308 L 723.635, 145.659 z "/>
<path style="fill:rgb(255, 152, 255);fill-opacity:1.0;fill-rule:evenodd;stroke:rgb(0, 0, 0);stroke-width:3.0;" d="M 674.889, 403.328 L 653.788, 422.784 L 648.744, 401.537 L 667.419, 397.837 z "/>
<path style="fill:rgb(207, 140, 255);fill-opacity:1.0;fill-rule:evenodd;stroke:rgb(0, 0, 0);stroke-width:3.0;" d="M 783.329, 93.6634 L 780.579, 100.524 L 770.838, 95.0901 L 768.164, 74.1359 L 771.4, 73.9868 z "/>
<path style="fill:rgb(8, 255, 255);fill-opacity:1.0;fill-rule:evenodd;stroke:rgb(0, 0, 0);stroke-width:3.0;" d="M 615.09, 101.886 L 615.361, 110.376 L 606.276, 111.755 L 601.915, 100.421 z "/>
<path style="fill:rgb(8, 255, 255);fill-opacity:1.0;fill-rule:evenodd;stroke:rgb(0, 0, 0);stroke-width:3.0;" d="M 630.378, 88.4022 L 630.706, 90.2569 L 622.695, 102.732 L 608.477, 101.151 L 629.474, 86.249 z "/>
<path style="fill:rgb(8, 255, 255);fill-opacity:1.0;fill-rule:evenodd;stroke:rgb(0, 0, 0);stroke-width:3.0;" d="M 251.663, 554.703 L 190.728, 563.487 L 242.82, 528.887 z "/>
<path style="fill:rgb(8, 161, 255);fill-opacity:1.0;fill-rule:evenodd;stroke:rgb(0, 0, 0);stroke-width:3.0;" d="M 628.479, 215.267 L 629.078, 217.481 L 561.536, 117.786 L 559.683, 108.581 z "/>
<path style="fill:rgb(217, 0, 138);fill-opacity:1.0;fill-rule:evenodd;stroke:rgb(0, 0, 0);stroke-width:3.0;" d="M 598.423, 218.47 L 604.582, 229.093 L 589.543, 240.789 L 590.723, 214.217 z "/>
<path style="fill:rgb(217, 0, 138);fill-opacity:1.0;fill-rule:evenodd;stroke:rgb(0, 0, 0);stroke-width:3.0;" d="M 604.809, 127.804 L 628.479, 215.267 L 559.683, 108.581 L 558.626, 103.332 z "/>
<path style="fill:rgb(255, 5, 128);fill-opacity:1.0;fill-rule:evenodd;stroke:rgb(0, 0, 0);stroke-width:3.0;" d="M 235.202, 447.998 L 254.901, 501.117 L 121.002, 544.983 L 227.905, 447.096 z "/>
<path style="fill:rgb(255, 5, 128);fill-opacity:1.0;fill-rule:evenodd;stroke:rgb(0, 0, 0);stroke-width:3.0;" d="M 366.931, 538.086 L 299.283, 547.838 L 262.231, 499.233 z "/>
<path style="fill:rgb(255, 5, 128);fill-opacity:1.0;fill-rule:evenodd;stroke:rgb(0, 0, 0);stroke-width:3.0;" d="M 663.606, 535.951 L 631.608, 553.038 L 627.558, 542.525 L 636.225, 522.253 z "/>
<path style="fill:rgb(255, 5, 128);fill-opacity:1.0;fill-rule:evenodd;stroke:rgb(0, 0, 0);stroke-width:3.0;" d="M 383.5, 214.142 L 299.508, 281.965 L 274.782, 204.761 z "/>
<path style="fill:rgb(255, 5, 128);fill-opacity:1.0;fill-rule:evenodd;stroke:rgb(0, 0, 0);stroke-width:3.0;" d="M 739.575, 176.02 L 737.117, 188.166 L 714.952, 175.796 L 721.508, 171.36 z "/>
<path style="fill:rgb(255, 5, 128);fill-opacity:1.0;fill-rule:evenodd;stroke:rgb(0, 0, 0);stroke-width:3.0;" d="M 666.889, 121.724 L 653.244, 132.985 L 640.336, 118.761 L 642.366, 114.134 z "/>
<path style="fill:rgb(255, 5, 128);fill-opacity:1.0;fill-rule:evenodd;stroke:rgb(0, 0, 0);stroke-width:3.0;" d="M 713.899, 383.313 L 740.155, 407.125 L 738.849, 410.809 L 708.99, 388.139 L 707.492, 382.565 z "/>
<path style="fill:rgb(255, 5, 128);fill-opacity:1.0;fill-rule:evenodd;stroke:rgb(0, 0, 0);stroke-width:3.0;" d="M 707.398, 470.518 L 673.937, 502.251 L 672.613, 502.088 L 672.487, 501.56 L 689.23, 466.516 z "/>
<path style="fill:rgb(255, 5, 128);fill-opacity:1.0;fill-rule:evenodd;stroke:rgb(0, 0, 0);stroke-width:3.0;" d="M 590.723, 214.217 L 589.427, 243.385 L 586.767, 243.1 L 579.729, 208.146 z "/>
<path style="fill:rgb(249, 255, 20);fill-opacity:1.0;fill-rule:evenodd;stroke:rgb(0, 0, 0);stroke-width:3.0;" d="M 316.678, 568.197 L 310.594, 574.95 L 242.398, 556.039 L 297.112, 548.151 z "/>
<path style="fill:rgb(249, 255, 20);fill-opacity:1.0;fill-rule:evenodd;stroke:rgb(0, 0, 0);stroke-width:3.0;" d="M 750.628, 116.957 L 725.819, 114.198 L 725.288, 105.962 z "/>
<path style="fill:rgb(249, 255, 20);fill-opacity:1.0;fill-rule:evenodd;stroke:rgb(0, 0, 0);stroke-width:3.0;" d="M 386.421, 567.103 L 387.248, 576.007 L 366.746, 579.505 L 361.568, 578.91 L 379.612, 568.604 L 385.577, 567.098 z "/>
<path style="fill:rgb(215, 1, 255);fill-opacity:1.0;fill-rule:evenodd;stroke:rgb(0, 0, 0);stroke-width:3.0;" d="M 777.876, 150.223 L 774.374, 150.746 L 771.221, 147.513 L 768.122, 131.549 L 775.187, 129.16 z "/>
<path style="fill:rgb(215, 1, 255);fill-opacity:1.0;fill-rule:evenodd;stroke:rgb(0, 0, 0);stroke-width:3.0;" d="M 633.303, 557.437 L 632.159, 569.828 L 580.322, 564.497 L 597.712, 504.818 L 612.222, 502.726 z "/>
<path style="fill:rgb(215, 1, 255);fill-opacity:1.0;fill-rule:evenodd;stroke:rgb(0, 0, 0);stroke-width:3.0;" d="M 613.34, 194.251 L 608.741, 209.003 L 605.833, 206.153 L 606.224, 183.748 z "/>
<path style="fill:rgb(215, 1, 255);fill-opacity:1.0;fill-rule:evenodd;stroke:rgb(0, 0, 0);stroke-width:3.0;" d="M 746.285, 142.864 L 744.71, 150.647 L 711.727, 130.812 L 714.712, 126.419 z "/>
<path style="fill:rgb(255, 25, 199);fill-opacity:1.0;fill-rule:evenodd;stroke:rgb(0, 0, 0);stroke-width:3.0;" d="M 367.214, 464.323 L 254.901, 501.117 L 235.202, 447.998 z "/>
<path style="fill:rgb(255, 57, 7);fill-opacity:1.0;fill-rule:evenodd;stroke:rgb(0, 0, 0);stroke-width:3.0;" d="M 425.726, 570.296 L 409.12, 579.135 L 403.351, 580.284 L 403.438, 579.529 L 415.946, 556.043 L 419.085, 555.141 z "/>
<path style="fill:rgb(255, 9, 82);fill-opacity:1.0;fill-rule:evenodd;stroke:rgb(0, 0, 0);stroke-width:3.0;" d="M 529.434, 92.3618 L 567.678, 148.288 L 578.507, 202.077 L 232.018, 71.2376 L 228.051, 58.8502 z "/>
<path style="fill:rgb(255, 9, 82);fill-opacity:1.0;fill-rule:evenodd;stroke:rgb(0, 0, 0);stroke-width:3.0;" d="M 403.438, 579.529 L 405.806, 558.958 L 415.946, 556.043 z "/>
<path style="fill:rgb(197, 40, 121);fill-opacity:1.0;fill-rule:evenodd;stroke:rgb(0, 0, 0);stroke-width:3.0;" d="M 206.511, 55.3533 L 204.695, 56.2532 L 90.5142, 43.5571 L 108.094, 31.1956 z "/>
<path style="fill:rgb(255, 240, 6);fill-opacity:1.0;fill-rule:evenodd;stroke:rgb(0, 0, 0);stroke-width:3.0;" d="M 694.54, 164.404 L 737.117, 188.166 L 730.954, 218.618 L 677.85, 160.099 z "/>
<path style="fill:rgb(228, 189, 21);fill-opacity:1.0;fill-rule:evenodd;stroke:rgb(0, 0, 0);stroke-width:3.0;" d="M 661.063, 251.053 L 678.727, 290.179 L 674.957, 290.422 L 632.828, 253.557 L 632.275, 247.972 z "/>
<path style="fill:rgb(67, 255, 217);fill-opacity:1.0;fill-rule:evenodd;stroke:rgb(0, 0, 0);stroke-width:3.0;" d="M 718.441, 507.755 L 710.236, 539.837 L 701.58, 541.891 L 717.833, 507.679 z "/>
<path style="fill:rgb(69, 255, 192);fill-opacity:1.0;fill-rule:evenodd;stroke:rgb(0, 0, 0);stroke-width:3.0;" d="M 581.766, 98.0522 L 535.413, 75.8438 L 528.56, 48.9531 L 625.019, 32.7026 z "/>
<path style="fill:rgb(252, 3, 37);fill-opacity:1.0;fill-rule:evenodd;stroke:rgb(0, 0, 0);stroke-width:3.0;" d="M 702.023, 439.74 L 696.108, 452.12 L 658.172, 441.252 L 653.788, 422.784 L 660.864, 416.26 z "/>
<path style="fill:rgb(243, 7, 38);fill-opacity:1.0;fill-rule:evenodd;stroke:rgb(0, 0, 0);stroke-width:3.0;" d="M 756.39, 189.647 L 746.179, 190.024 L 764.745, 152.183 L 774.91, 150.666 z "/>
<path style="fill:rgb(252, 39, 252);fill-opacity:1.0;fill-rule:evenodd;stroke:rgb(0, 0, 0);stroke-width:3.0;" d="M 655.858, 431.505 L 633.616, 432.725 L 628.875, 430.066 L 630.375, 426.787 L 653.176, 420.206 z "/>
<path style="fill:rgb(76, 255, 212);fill-opacity:1.0;fill-rule:evenodd;stroke:rgb(0, 0, 0);stroke-width:3.0;" d="M 578.507, 202.077 L 584.427, 231.478 L 274.782, 204.761 L 232.018, 71.2376 z "/>
<path style="fill:rgb(255, 8, 8);fill-opacity:1.0;fill-rule:evenodd;stroke:rgb(0, 0, 0);stroke-width:3.0;" d="M 641.719, 236.14 L 641.184, 242.088 L 625.709, 233.541 L 620.043, 228.646 L 624.156, 216.279 L 627.281, 214.829 z "/>
<path style="fill:rgb(255, 1, 249);fill-opacity:1.0;fill-rule:evenodd;stroke:rgb(0, 0, 0);stroke-width:3.0;" d="M 282.192, 37.7441 L 245.287, 36.1314 L 289.218, 14.3542 z "/>
<path style="fill:rgb(237, 37, 228);fill-opacity:1.0;fill-rule:evenodd;stroke:rgb(0, 0, 0);stroke-width:3.0;" d="M 95.2278, 91.2515 L 79.7153, 108.819 L 52.9181, 81.3489 L 68.4644, 70.2517 z "/>
<path style="fill:rgb(255, 5, 64);fill-opacity:1.0;fill-rule:evenodd;stroke:rgb(0, 0, 0);stroke-width:3.0;" d="M 760.264, 438.163 L 733.878, 460.012 L 734.509, 451.045 L 752.753, 434.379 z "/>
<path style="fill:rgb(255, 5, 64);fill-opacity:1.0;fill-rule:evenodd;stroke:rgb(0, 0, 0);stroke-width:3.0;" d="M 676.1, 244.21 L 675.852, 224.467 L 726.977, 220.23 z "/>
<path style="fill:rgb(10, 144, 204);fill-opacity:1.0;fill-rule:evenodd;stroke:rgb(0, 0, 0);stroke-width:3.0;" d="M 227.905, 447.096 L 196.527, 475.828 L 202.658, 443.974 z "/>
<path style="fill:rgb(10, 144, 204);fill-opacity:1.0;fill-rule:evenodd;stroke:rgb(0, 0, 0);stroke-width:3.0;" d="M 336.3, 515.536 L 310.843, 517.273 L 264.235, 499.977 L 299.078, 490.116 z "/>
<path style="fill:rgb(255, 243, 50);fill-opacity:1.0;fill-rule:evenodd;stroke:rgb(0, 0, 0);stroke-width:3.0;" d="M 679.897, 339.252 L 645.847, 362.853 L 617.016, 344.408 L 638.27, 320.702 z "/>
<path style="fill:rgb(255, 243, 50);fill-opacity:1.0;fill-rule:evenodd;stroke:rgb(0, 0, 0);stroke-width:3.0;" d="M 655.586, 215.684 L 649.203, 215.218 L 673.906, 171.239 z "/>
<path style="fill:rgb(255, 179, 16);fill-opacity:1.0;fill-rule:evenodd;stroke:rgb(0, 0, 0);stroke-width:3.0;" d="M 690.585, 463.68 L 686.14, 472.983 L 681.699, 473.447 L 662.934, 461.315 L 662.841, 460.924 z "/>
<path style="fill:rgb(255, 179, 16);fill-opacity:1.0;fill-rule:evenodd;stroke:rgb(0, 0, 0);stroke-width:3.0;" d="M 666.978, 44.1648 L 637.166, 72.5659 L 641.444, 19.1707 z "/>
<path style="fill:rgb(252, 249, 37);fill-opacity:1.0;fill-rule:evenodd;stroke:rgb(0, 0, 0);stroke-width:3.0;" d="M 584.427, 231.478 L 589.666, 257.498 L 492.748, 261.886 L 455.36, 222.172 L 456.069, 220.403 z "/>
<path style="fill:rgb(252, 249, 37);fill-opacity:1.0;fill-rule:evenodd;stroke:rgb(0, 0, 0);stroke-width:3.0;" d="M 627.281, 214.829 L 620.14, 218.141 L 610.119, 220.073 L 606.314, 216.786 L 613.34, 194.251 z "/>
<path style="fill:rgb(204, 0, 117);fill-opacity:1.0;fill-rule:evenodd;stroke:rgb(0, 0, 0);stroke-width:3.0;" d="M 617.154, 394.029 L 638.05, 497.814 L 358.696, 463.269 L 455.36, 222.172 z "/>
<path style="fill:rgb(240, 168, 14);fill-opacity:1.0;fill-rule:evenodd;stroke:rgb(0, 0, 0);stroke-width:3.0;" d="M 747.365, 173.343 L 741.611, 195.363 L 734.909, 199.075 L 742.445, 161.838 z "/>
<path style="fill:rgb(240, 168, 14);fill-opacity:1.0;fill-rule:evenodd;stroke:rgb(0, 0, 0);stroke-width:3.0;" d="M 561.304, 509.951 L 561.073, 510.1 L 526.583, 515.072 L 531.158, 506.488 L 553.019, 504.277 z "/>
<path style="fill:rgb(255, 33, 30);fill-opacity:1.0;fill-rule:evenodd;stroke:rgb(0, 0, 0);stroke-width:3.0;" d="M 711.47, 168.771 L 686.68, 162.377 L 708.936, 152.308 z "/>
<path style="fill:rgb(255, 33, 30);fill-opacity:1.0;fill-rule:evenodd;stroke:rgb(0, 0, 0);stroke-width:3.0;" d="M 646.426, 382.41 L 631.39, 414.51 L 621.704, 416.627 L 618.159, 399.018 L 641.612, 378.872 z "/>
<path style="fill:rgb(255, 33, 30);fill-opacity:1.0;fill-rule:evenodd;stroke:rgb(0, 0, 0);stroke-width:3.0;" d="M 327.974, 579.77 L 329.166, 580.99 L 317.243, 584.417 L 235.175, 567.669 L 234.002, 565.321 L 245.348, 556.857 z "/>
<path style="fill:rgb(255, 4, 22);fill-opacity:1.0;fill-rule:evenodd;stroke:rgb(0, 0, 0);stroke-width:3.0;" d="M 667.587, 376.762 L 667.069, 377.847 L 628.342, 373.326 L 611.685, 366.863 L 605.707, 337.174 z "/>
<path style="fill:rgb(255, 4, 22);fill-opacity:1.0;fill-rule:evenodd;stroke:rgb(0, 0, 0);stroke-width:3.0;" d="M 783.558, 194.735 L 773.526, 206.738 L 764.269, 201.868 L 764.854, 196.309 L 783.475, 194.086 z "/>
<path style="fill:rgb(255, 4, 22);fill-opacity:1.0;fill-rule:evenodd;stroke:rgb(0, 0, 0);stroke-width:3.0;" d="M 681.034, 339.759 L 673.692, 363.978 L 667.587, 376.762 L 645.847, 362.853 L 679.897, 339.252 z "/>
<path style="fill:rgb(255, 4, 22);fill-opacity:1.0;fill-rule:evenodd;stroke:rgb(0, 0, 0);stroke-width:3.0;" d="M 262.231, 499.233 L 299.283, 547.838 L 266.816, 552.519 L 241.561, 525.214 L 235.486, 507.478 L 261.49, 498.958 z "/>
<path style="fill:rgb(255, 4, 22);fill-opacity:1.0;fill-rule:evenodd;stroke:rgb(0, 0, 0);stroke-width:3.0;" d="M 750.65, 429.499 L 733.121, 446.123 L 683.561, 409.701 z "/>
<path style="fill:rgb(110, 249, 57);fill-opacity:1.0;fill-rule:evenodd;stroke:rgb(0, 0, 0);stroke-width:3.0;" d="M 331.947, 586.401 L 321.991, 592.906 L 309.303, 592.09 L 310.197, 586.443 L 322.906, 582.79 z "/>
<path style="fill:rgb(110, 249, 57);fill-opacity:1.0;fill-rule:evenodd;stroke:rgb(0, 0, 0);stroke-width:3.0;" d="M 456.069, 220.403 L 358.696, 463.269 L 357.528, 463.125 L 336.164, 396.419 L 431.794, 218.309 z "/>
<path style="fill:rgb(252, 95, 29);fill-opacity:1.0;fill-rule:evenodd;stroke:rgb(0, 0, 0);stroke-width:3.0;" d="M 282.954, 275.424 L 248.73, 288.034 L 240.415, 212.541 z "/>
<path style="fill:rgb(252, 95, 29);fill-opacity:1.0;fill-rule:evenodd;stroke:rgb(0, 0, 0);stroke-width:3.0;" d="M 644.055, 464.863 L 633.492, 475.173 L 630.903, 462.312 L 634.858, 455.859 z "/>
<path style="fill:rgb(252, 95, 29);fill-opacity:1.0;fill-rule:evenodd;stroke:rgb(0, 0, 0);stroke-width:3.0;" d="M 696.108, 452.12 L 690.585, 463.68 L 662.841, 460.924 L 658.172, 441.252 z "/>
<path style="fill:rgb(255, 231, 33);fill-opacity:1.0;fill-rule:evenodd;stroke:rgb(0, 0, 0);stroke-width:3.0;" d="M 692.395, 14.9731 L 691.509, 20.7947 L 682.552, 29.3282 L 669.795, 9.06469 z "/>
<path style="fill:rgb(255, 231, 33);fill-opacity:1.0;fill-rule:evenodd;stroke:rgb(0, 0, 0);stroke-width:3.0;" d="M 741.481, 166.601 L 739.575, 176.02 L 730.428, 173.661 L 730.759, 156.923 z "/>
<path style="fill:rgb(130, 0, 134);fill-opacity:1.0;fill-rule:evenodd;stroke:rgb(0, 0, 0);stroke-width:3.0;" d="M 743.517, 156.545 L 741.481, 166.601 L 730.759, 156.923 L 730.903, 149.638 z "/>
<path style="fill:rgb(134, 255, 27);fill-opacity:1.0;fill-rule:evenodd;stroke:rgb(0, 0, 0);stroke-width:3.0;" d="M 713.323, 256.647 L 676.206, 252.674 L 676.1, 244.21 L 709.296, 228.564 z "/>
<path style="fill:rgb(246, 19, 19);fill-opacity:1.0;fill-rule:evenodd;stroke:rgb(0, 0, 0);stroke-width:3.0;" d="M 769.191, 397.545 L 741.927, 408.733 L 736.226, 403.562 L 751.544, 390.103 z "/>
<path style="fill:rgb(207, 33, 255);fill-opacity:1.0;fill-rule:evenodd;stroke:rgb(0, 0, 0);stroke-width:3.0;" d="M 751.544, 390.103 L 736.226, 403.562 L 727.062, 395.252 L 745.564, 387.581 z "/>
<path style="fill:rgb(10, 5, 246);fill-opacity:1.0;fill-rule:evenodd;stroke:rgb(0, 0, 0);stroke-width:3.0;" d="M 310.414, 316.016 L 179.846, 123.007 L 247.941, 120.955 z "/>
<path style="fill:rgb(255, 255, 36);fill-opacity:1.0;fill-rule:evenodd;stroke:rgb(0, 0, 0);stroke-width:3.0;" d="M 698.701, 183.076 L 692.89, 188.602 L 675.456, 193 L 675.353, 184.779 L 689.78, 173.246 z "/>
<path style="fill:rgb(255, 255, 36);fill-opacity:1.0;fill-rule:evenodd;stroke:rgb(0, 0, 0);stroke-width:3.0;" d="M 228.051, 58.8502 L 247.941, 120.955 L 179.846, 123.007 L 130.977, 50.767 L 133.156, 48.2986 z "/>
<path style="fill:rgb(240, 67, 10);fill-opacity:1.0;fill-rule:evenodd;stroke:rgb(0, 0, 0);stroke-width:3.0;" d="M 707.847, 427.549 L 702.023, 439.74 L 691.033, 433.47 L 698.385, 420.595 z "/>
<path style="fill:rgb(240, 67, 10);fill-opacity:1.0;fill-rule:evenodd;stroke:rgb(0, 0, 0);stroke-width:3.0;" d="M 647, 394.191 L 648.974, 421.419 L 630.375, 426.787 L 646.414, 391.719 z "/>
<path style="fill:rgb(255, 51, 246);fill-opacity:1.0;fill-rule:evenodd;stroke:rgb(0, 0, 0);stroke-width:3.0;" d="M 666.026, 224.713 L 664.141, 229.568 L 649.647, 230.091 L 655.084, 216.9 z "/>
<path style="fill:rgb(13, 7, 202);fill-opacity:1.0;fill-rule:evenodd;stroke:rgb(0, 0, 0);stroke-width:3.0;" d="M 680.15, 25.5133 L 675.452, 30.7891 L 660.681, 38.0011 L 655.732, 33.1568 L 671.879, 12.3757 z "/>
<path style="fill:rgb(243, 24, 94);fill-opacity:1.0;fill-rule:evenodd;stroke:rgb(0, 0, 0);stroke-width:3.0;" d="M 146.598, 73.8582 L 131.659, 267.161 L 107.38, 77.4892 L 130.977, 50.767 z "/>
<path style="fill:rgb(184, 189, 252);fill-opacity:1.0;fill-rule:evenodd;stroke:rgb(0, 0, 0);stroke-width:3.0;" d="M 751.686, 260.753 L 777.909, 339.916 L 743.807, 259.91 z "/>
<path style="fill:rgb(240, 217, 13);fill-opacity:1.0;fill-rule:evenodd;stroke:rgb(0, 0, 0);stroke-width:3.0;" d="M 771.96, 409.289 L 757.579, 422.928 L 757.318, 422.692 L 748.02, 408.512 L 760.073, 406.582 z "/>
<path style="fill:rgb(237, 134, 21);fill-opacity:1.0;fill-rule:evenodd;stroke:rgb(0, 0, 0);stroke-width:3.0;" d="M 238.858, 39.3184 L 206.511, 55.3533 L 202.04, 54.256 L 228.196, 6.13624 z "/>
<path style="fill:rgb(237, 134, 21);fill-opacity:1.0;fill-rule:evenodd;stroke:rgb(0, 0, 0);stroke-width:3.0;" d="M 696.603, 419.286 L 679.449, 426.862 L 660.864, 416.26 L 674.889, 403.328 z "/>
<path style="fill:rgb(150, 0, 179);fill-opacity:1.0;fill-rule:evenodd;stroke:rgb(0, 0, 0);stroke-width:3.0;" d="M 310.414, 316.016 L 357.528, 463.125 L 266.781, 451.903 L 248.73, 288.034 L 282.954, 275.424 z "/>
<path style="fill:rgb(150, 0, 179);fill-opacity:1.0;fill-rule:evenodd;stroke:rgb(0, 0, 0);stroke-width:3.0;" d="M 445.173, 82.9926 L 309.027, 67.8542 L 325.468, 41.2752 L 365.009, 20.0235 z "/>
<path style="fill:rgb(11, 46, 215);fill-opacity:1.0;fill-rule:evenodd;stroke:rgb(0, 0, 0);stroke-width:3.0;" d="M 689.947, 254.145 L 706.764, 260.985 L 709.538, 278.716 L 701.512, 288.708 L 678.727, 290.179 L 661.063, 251.053 z "/>
<path style="fill:rgb(15, 255, 182);fill-opacity:1.0;fill-rule:evenodd;stroke:rgb(0, 0, 0);stroke-width:3.0;" d="M 700.588, 381.759 L 728.186, 402.713 L 657.387, 390.465 L 635.147, 374.12 z "/>
<path style="fill:rgb(240, 217, 7);fill-opacity:1.0;fill-rule:evenodd;stroke:rgb(0, 0, 0);stroke-width:3.0;" d="M 646.484, 467.241 L 667.543, 501.461 L 648.244, 499.074 L 637.835, 496.746 L 633.492, 475.173 L 644.055, 464.863 z "/>
<path style="fill:rgb(88, 255, 15);fill-opacity:1.0;fill-rule:evenodd;stroke:rgb(0, 0, 0);stroke-width:3.0;" d="M 652.784, 387.082 L 655.905, 400.118 L 648.744, 401.537 L 646.414, 391.719 L 649.603, 384.745 z "/>
<path style="fill:rgb(11, 255, 255);fill-opacity:1.0;fill-rule:evenodd;stroke:rgb(0, 0, 0);stroke-width:3.0;" d="M 765.613, 118.623 L 766.499, 123.189 L 758.997, 134.983 L 749.79, 125.545 L 750.505, 122.014 L 763.852, 118.428 z "/>
<path style="fill:rgb(234, 255, 76);fill-opacity:1.0;fill-rule:evenodd;stroke:rgb(0, 0, 0);stroke-width:3.0;" d="M 717.833, 507.679 L 684.499, 577.845 L 702.801, 505.821 z "/>
<path style="fill:rgb(223, 231, 62);fill-opacity:1.0;fill-rule:evenodd;stroke:rgb(0, 0, 0);stroke-width:3.0;" d="M 733.615, 221.55 L 742.703, 243.621 L 730.299, 258.464 L 715.46, 256.876 L 710.629, 237.861 L 709.296, 228.564 L 726.977, 220.23 L 732.037, 219.811 z "/>
<path style="fill:rgb(223, 231, 62);fill-opacity:1.0;fill-rule:evenodd;stroke:rgb(0, 0, 0);stroke-width:3.0;" d="M 752.753, 434.379 L 734.509, 451.045 L 734.979, 444.36 L 748.019, 431.994 z "/>
<path style="fill:rgb(228, 249, 6);fill-opacity:1.0;fill-rule:evenodd;stroke:rgb(0, 0, 0);stroke-width:3.0;" d="M 676.206, 252.674 L 666.214, 251.604 L 663.78, 239.925 L 676.009, 236.957 z "/>
<path style="fill:rgb(228, 249, 6);fill-opacity:1.0;fill-rule:evenodd;stroke:rgb(0, 0, 0);stroke-width:3.0;" d="M 757.535, 117.725 L 750.628, 116.957 L 725.288, 105.962 L 724.335, 91.1787 z "/>
<path style="fill:rgb(108, 255, 255);fill-opacity:1.0;fill-rule:evenodd;stroke:rgb(0, 0, 0);stroke-width:3.0;" d="M 655.443, 476.012 L 669.747, 490.015 L 672.613, 502.088 L 667.543, 501.461 L 651.667, 475.663 z "/>
<path style="fill:rgb(255, 234, 61);fill-opacity:1.0;fill-rule:evenodd;stroke:rgb(0, 0, 0);stroke-width:3.0;" d="M 188.305, 135.512 L 240.415, 212.541 L 266.781, 451.903 L 151.2, 437.611 L 121.487, 398.787 L 141.904, 134.592 z "/>
<path style="fill:rgb(249, 175, 30);fill-opacity:1.0;fill-rule:evenodd;stroke:rgb(0, 0, 0);stroke-width:3.0;" d="M 188.305, 135.512 L 141.904, 134.592 L 146.598, 73.8582 z "/>
<path style="fill:rgb(228, 134, 192);fill-opacity:1.0;fill-rule:evenodd;stroke:rgb(0, 0, 0);stroke-width:3.0;" d="M 640.838, 576.991 L 637.172, 583.021 L 631.636, 575.49 L 633.303, 557.437 z "/>
<path style="fill:rgb(255, 255, 13);fill-opacity:1.0;fill-rule:evenodd;stroke:rgb(0, 0, 0);stroke-width:3.0;" d="M 636.211, 189.553 L 641.013, 202.033 L 636.237, 205.981 L 625.086, 202.731 L 620.972, 187.528 z "/>
<path style="fill:rgb(255, 1, 48);fill-opacity:1.0;fill-rule:evenodd;stroke:rgb(0, 0, 0);stroke-width:3.0;" d="M 746.704, 217.574 L 747.195, 226.468 L 744.967, 234.059 L 742.027, 230.819 L 738.697, 210.303 z "/>
<path style="fill:rgb(39, 40, 223);fill-opacity:1.0;fill-rule:evenodd;stroke:rgb(0, 0, 0);stroke-width:3.0;" d="M 305.097, 67.4172 L 274.306, 63.9934 L 289.218, 14.3542 L 297.595, 10.2019 z "/>
<path style="fill:rgb(192, 123, 7);fill-opacity:1.0;fill-rule:evenodd;stroke:rgb(0, 0, 0);stroke-width:3.0;" d="M 266.816, 552.519 L 251.663, 554.703 L 241.561, 525.214 z "/>
<path style="fill:rgb(255, 107, 41);fill-opacity:1.0;fill-rule:evenodd;stroke:rgb(0, 0, 0);stroke-width:3.0;" d="M 756.348, 424.095 L 750.65, 429.499 L 701.255, 414.922 L 728.891, 403.249 z "/>
<path style="fill:rgb(246, 124, 123);fill-opacity:1.0;fill-rule:evenodd;stroke:rgb(0, 0, 0);stroke-width:3.0;" d="M 728.186, 402.713 L 728.891, 403.249 L 701.255, 414.922 L 683.561, 409.701 L 657.387, 390.465 z "/>
<path style="fill:rgb(255, 237, 36);fill-opacity:1.0;fill-rule:evenodd;stroke:rgb(0, 0, 0);stroke-width:3.0;" d="M 617.154, 394.029 L 492.748, 261.886 L 589.666, 257.498 z "/>
<path style="fill:rgb(246, 24, 255);fill-opacity:1.0;fill-rule:evenodd;stroke:rgb(0, 0, 0);stroke-width:3.0;" d="M 635.83, 323.424 L 617.016, 344.408 L 605.707, 337.174 L 602.515, 321.316 L 624.45, 317.329 z "/>
<path style="fill:rgb(255, 226, 7);fill-opacity:1.0;fill-rule:evenodd;stroke:rgb(0, 0, 0);stroke-width:3.0;" d="M 649.75, 146.846 L 648.825, 157.128 L 621.069, 150.2 L 615.781, 136.458 L 618.745, 127.234 z "/>
<path style="fill:rgb(255, 41, 223);fill-opacity:1.0;fill-rule:evenodd;stroke:rgb(0, 0, 0);stroke-width:3.0;" d="M 651.199, 130.732 L 649.75, 146.846 L 618.745, 127.234 L 626.403, 103.407 z "/>
<path style="fill:rgb(240, 110, 18);fill-opacity:1.0;fill-rule:evenodd;stroke:rgb(0, 0, 0);stroke-width:3.0;" d="M 733.121, 446.123 L 707.398, 470.518 L 689.23, 466.516 L 689.909, 465.095 L 713.991, 432.064 z "/>
<path style="fill:rgb(255, 252, 9);fill-opacity:1.0;fill-rule:evenodd;stroke:rgb(0, 0, 0);stroke-width:3.0;" d="M 644.071, 209.982 L 642.9, 223.001 L 628.905, 216.842 L 627.844, 212.921 L 641.013, 202.033 z "/>
</svg>