<?xml version="1.0" encoding="iso-8859-1" standalone="no"?>
<!DOCTYPE svg PUBLIC "-//W3C//DTD SVG 1.0//EN" "http://www.w3.org/TR/2001/REC-SVG-20010904/DTD/svg10.dtd">
<svg xmlns="http://www.w3.org/2000/svg" width="800" height="600">
<path style="fill:rgb(0, 0, 0);fill-opacity:0.0;fill-rule:evenodd;stroke:rgb(0, 0, 0);stroke-width:0.0;" d="M 0, 600 L 800, 600 L 800, 0 L 0, 0 z "/>
<path style="fill:rgb(243, 240, 45);fill-opacity:1.0;fill-rule:evenodd;stroke:rgb(0, 0, 0);stroke-width:3.0;" d="M 615.444, 56.9618 L 614.753, 84.4443 L 559.827, 106.574 L 555.344, 50.8308 z "/>
<path style="fill:rgb(243, 240, 45);fill-opacity:1.0;fill-rule:evenodd;stroke:rgb(0, 0, 0);stroke-width:3.0;" d="M 645.408, 521.051 L 621.323, 494.038 L 630.147, 492.661 z "/>
<path style="fill:rgb(243, 240, 45);fill-opacity:1.0;fill-rule:evenodd;stroke:rgb(0, 0, 0);stroke-width:3.0;" d="M 259.045, 68.8033 L 263.823, 75.0695 L 202.082, 64.7 L 222.245, 38.7278 z "/>
<path style="fill:rgb(243, 240, 45);fill-opacity:1.0;fill-rule:evenodd;stroke:rgb(0, 0, 0);stroke-width:3.0;" d="M 415.459, 136.811 L 364.895, 187.522 L 225.58, 78.7937 L 228.582, 75.4074 z "/>
<path style="fill:rgb(243, 240, 45);fill-opacity:1.0;fill-rule:evenodd;stroke:rgb(0, 0, 0);stroke-width:3.0;" d="M 733.923, 114.335 L 733.861, 121.386 L 727.098, 125.914 L 718.284, 114.425 L 733.19, 113.594 z "/>
<path style="fill:rgb(243, 240, 45);fill-opacity:1.0;fill-rule:evenodd;stroke:rgb(0, 0, 0);stroke-width:3.0;" d="M 657.752, 531.784 L 649.726, 527.561 L 636.404, 488.458 L 651.814, 487.319 z "/>
<path style="fill:rgb(243, 240, 45);fill-opacity:1.0;fill-rule:evenodd;stroke:rgb(0, 0, 0);stroke-width:3.0;" d="M 727.551, 558.097 L 708.122, 546.323 L 725.622, 481.861 L 726.008, 481.833 z "/>
<path style="fill:rgb(243, 240, 45);fill-opacity:1.0;fill-rule:evenodd;stroke:rgb(0, 0, 0);stroke-width:3.0;" d="M 231.923, 26.2618 L 200.845, 66.2936 L 179.312, 59.2183 L 215.002, 20.7529 z "/>
<path style="fill:rgb(6, 85, 246);fill-opacity:1.0;fill-rule:evenodd;stroke:rgb(0, 0, 0);stroke-width:3.0;" d="M 641.133, 153.061 L 631.512, 153.745 L 625.013, 149.656 L 645.696, 119.119 z "/>
<path style="fill:rgb(6, 85, 246);fill-opacity:1.0;fill-rule:evenodd;stroke:rgb(0, 0, 0);stroke-width:3.0;" d="M 763.415, 412.643 L 764.608, 414.759 L 733.965, 412.438 L 733.556, 407.24 L 735.368, 405.983 z "/>
<path style="fill:rgb(6, 85, 246);fill-opacity:1.0;fill-rule:evenodd;stroke:rgb(0, 0, 0);stroke-width:3.0;" d="M 541.988, 380.427 L 535.068, 387.925 L 523.788, 382.711 L 525.835, 374.461 z "/>
<path style="fill:rgb(6, 85, 246);fill-opacity:1.0;fill-rule:evenodd;stroke:rgb(0, 0, 0);stroke-width:3.0;" d="M 343.073, 352.838 L 325.719, 375.145 L 323.87, 375.759 L 313.988, 371.932 L 340.676, 350.811 z "/>
<path style="fill:rgb(6, 85, 246);fill-opacity:1.0;fill-rule:evenodd;stroke:rgb(0, 0, 0);stroke-width:3.0;" d="M 46.2841, 345.116 L 26.5863, 359.116 L 8.02584, 328.546 z "/>
<path style="fill:rgb(252, 40, 14);fill-opacity:1.0;fill-rule:evenodd;stroke:rgb(0, 0, 0);stroke-width:3.0;" d="M 263.823, 75.0695 L 275.944, 90.9695 L 200.845, 66.2936 L 202.082, 64.7 z "/>
<path style="fill:rgb(252, 40, 14);fill-opacity:1.0;fill-rule:evenodd;stroke:rgb(0, 0, 0);stroke-width:3.0;" d="M 130.52, 434.277 L 109.13, 450.961 L 47.0925, 438.721 L 51.6907, 431.005 L 102.02, 388.497 z "/>
<path style="fill:rgb(41, 146, 255);fill-opacity:1.0;fill-rule:evenodd;stroke:rgb(0, 0, 0);stroke-width:3.0;" d="M 63.778, 442.013 L 50.8341, 460.12 L 51.7139, 439.633 z "/>
<path style="fill:rgb(41, 146, 255);fill-opacity:1.0;fill-rule:evenodd;stroke:rgb(0, 0, 0);stroke-width:3.0;" d="M 146.582, 527.777 L 137.947, 530.361 L 136.248, 525.661 L 137.66, 511.485 L 138.377, 510.918 z "/>
<path style="fill:rgb(41, 146, 255);fill-opacity:1.0;fill-rule:evenodd;stroke:rgb(0, 0, 0);stroke-width:3.0;" d="M 45.0148, 296.928 L 16.967, 295.198 L 28.7859, 287.547 L 38.237, 286.04 z "/>
<path style="fill:rgb(240, 243, 9);fill-opacity:1.0;fill-rule:evenodd;stroke:rgb(0, 0, 0);stroke-width:3.0;" d="M 487.314, 179.461 L 475.285, 260.419 L 469.982, 169.508 L 471.814, 168.08 z "/>
<path style="fill:rgb(223, 14, 14);fill-opacity:1.0;fill-rule:evenodd;stroke:rgb(0, 0, 0);stroke-width:3.0;" d="M 712.68, 414.437 L 659.659, 458.662 L 627.067, 434.643 L 689.706, 412.075 z "/>
<path style="fill:rgb(255, 0, 228);fill-opacity:1.0;fill-rule:evenodd;stroke:rgb(0, 0, 0);stroke-width:3.0;" d="M 648.333, 99.5018 L 644.94, 103.26 L 633.63, 112.439 L 613.885, 119 L 613.938, 116.886 L 648.418, 98.8676 z "/>
<path style="fill:rgb(20, 72, 240);fill-opacity:1.0;fill-rule:evenodd;stroke:rgb(0, 0, 0);stroke-width:3.0;" d="M 380.589, 348.831 L 362.475, 356.56 L 334.416, 363.966 L 346.852, 347.981 L 383.971, 344.481 z "/>
<path style="fill:rgb(20, 72, 240);fill-opacity:1.0;fill-rule:evenodd;stroke:rgb(0, 0, 0);stroke-width:3.0;" d="M 435.021, 278.815 L 386.621, 341.072 L 350.204, 343.27 L 433.744, 277.153 z "/>
<path style="fill:rgb(187, 255, 39);fill-opacity:1.0;fill-rule:evenodd;stroke:rgb(0, 0, 0);stroke-width:3.0;" d="M 579.945, 446.834 L 622.464, 489.686 L 606.938, 502.636 L 561.992, 444.12 L 562.215, 443.758 z "/>
<path style="fill:rgb(115, 51, 152);fill-opacity:1.0;fill-rule:evenodd;stroke:rgb(0, 0, 0);stroke-width:3.0;" d="M 38.5794, 172.405 L 42.0807, 177.339 L 38.9319, 180.088 L 20.7793, 176.037 L 20.6731, 173.106 L 24.722, 170.993 z "/>
<path style="fill:rgb(115, 51, 152);fill-opacity:1.0;fill-rule:evenodd;stroke:rgb(0, 0, 0);stroke-width:3.0;" d="M 275.45, 550.695 L 268.883, 565.71 L 257.628, 544.196 z "/>
<path style="fill:rgb(115, 51, 152);fill-opacity:1.0;fill-rule:evenodd;stroke:rgb(0, 0, 0);stroke-width:3.0;" d="M 382.367, 33.1853 L 375.511, 54.2761 L 302.807, 49.3393 L 201.939, 16.5001 L 201.061, 14.6901 z "/>
<path style="fill:rgb(184, 4, 234);fill-opacity:1.0;fill-rule:evenodd;stroke:rgb(0, 0, 0);stroke-width:3.0;" d="M 437.979, 211.619 L 430.211, 224.084 L 405.101, 220.113 L 422.584, 206.477 z "/>
<path style="fill:rgb(184, 4, 234);fill-opacity:1.0;fill-rule:evenodd;stroke:rgb(0, 0, 0);stroke-width:3.0;" d="M 646.797, 95.0235 L 614.202, 106.374 L 614.535, 93.1365 L 640.008, 83.0882 z "/>
<path style="fill:rgb(75, 45, 255);fill-opacity:1.0;fill-rule:evenodd;stroke:rgb(0, 0, 0);stroke-width:3.0;" d="M 469.223, 96.1671 L 444.384, 85.5303 L 446.346, 81.0974 L 461.818, 75.4533 z "/>
<path style="fill:rgb(75, 45, 255);fill-opacity:1.0;fill-rule:evenodd;stroke:rgb(0, 0, 0);stroke-width:3.0;" d="M 731.815, 132.063 L 747.142, 152.042 L 701.75, 157.211 L 704.121, 139.858 L 718.868, 131.18 z "/>
<path style="fill:rgb(75, 45, 255);fill-opacity:1.0;fill-rule:evenodd;stroke:rgb(0, 0, 0);stroke-width:3.0;" d="M 622.988, 374.085 L 607.471, 383.211 L 588.166, 386.29 L 588.934, 369.045 z "/>
<path style="fill:rgb(140, 0, 215);fill-opacity:1.0;fill-rule:evenodd;stroke:rgb(0, 0, 0);stroke-width:3.0;" d="M 538.181, 413.12 L 474.37, 456.524 L 477.578, 433.437 L 529.26, 401.506 z "/>
<path style="fill:rgb(140, 0, 215);fill-opacity:1.0;fill-rule:evenodd;stroke:rgb(0, 0, 0);stroke-width:3.0;" d="M 791.371, 355.553 L 785.001, 370.961 L 769.884, 377.52 L 782.927, 354.615 L 787.285, 351.912 z "/>
<path style="fill:rgb(140, 0, 215);fill-opacity:1.0;fill-rule:evenodd;stroke:rgb(0, 0, 0);stroke-width:3.0;" d="M 602.89, 102.527 L 591.058, 111.706 L 597.75, 93.6676 L 604.328, 92.557 z "/>
<path style="fill:rgb(182, 204, 255);fill-opacity:1.0;fill-rule:evenodd;stroke:rgb(0, 0, 0);stroke-width:3.0;" d="M 645.408, 521.051 L 654.965, 538.83 L 654.222, 538.39 L 630.511, 513.546 L 619.416, 492.229 L 619.585, 492.088 z "/>
<path style="fill:rgb(182, 204, 255);fill-opacity:1.0;fill-rule:evenodd;stroke:rgb(0, 0, 0);stroke-width:3.0;" d="M 608.199, 402.91 L 621.667, 413.669 L 617.716, 417.695 L 590.245, 401.55 z "/>
<path style="fill:rgb(255, 44, 18);fill-opacity:1.0;fill-rule:evenodd;stroke:rgb(0, 0, 0);stroke-width:3.0;" d="M 89.9414, 448.554 L 86.2798, 455.373 L 71.5256, 462.464 L 67.9182, 445.322 z "/>
<path style="fill:rgb(13, 43, 246);fill-opacity:1.0;fill-rule:evenodd;stroke:rgb(0, 0, 0);stroke-width:3.0;" d="M 51.6762, 172.527 L 57.4276, 184.217 L 44.9922, 181.441 L 34.1031, 166.097 L 38.4782, 163.814 z "/>
<path style="fill:rgb(13, 43, 246);fill-opacity:1.0;fill-rule:evenodd;stroke:rgb(0, 0, 0);stroke-width:3.0;" d="M 309.453, 420.022 L 301.613, 404.265 L 326.039, 395.05 L 330.052, 394.25 z "/>
<path style="fill:rgb(13, 43, 246);fill-opacity:1.0;fill-rule:evenodd;stroke:rgb(0, 0, 0);stroke-width:3.0;" d="M 66.2016, 330.96 L 46.2841, 345.116 L 46.0806, 345.028 L 46.0453, 338.333 L 60.8469, 322.359 z "/>
<path style="fill:rgb(255, 220, 7);fill-opacity:1.0;fill-rule:evenodd;stroke:rgb(0, 0, 0);stroke-width:3.0;" d="M 538.611, 430.952 L 497.291, 440.933 L 527.54, 420.358 z "/>
<path style="fill:rgb(255, 220, 7);fill-opacity:1.0;fill-rule:evenodd;stroke:rgb(0, 0, 0);stroke-width:3.0;" d="M 203.062, 286.304 L 210.853, 371.62 L 130.52, 434.277 L 100.985, 386.835 L 131.799, 306.882 L 155.225, 276.156 z "/>
<path style="fill:rgb(243, 3, 128);fill-opacity:1.0;fill-rule:evenodd;stroke:rgb(0, 0, 0);stroke-width:3.0;" d="M 241.277, 477.191 L 250.825, 496.576 L 237.985, 500.419 L 217.296, 491.815 L 235.662, 467.42 z "/>
<path style="fill:rgb(204, 255, 95);fill-opacity:1.0;fill-rule:evenodd;stroke:rgb(0, 0, 0);stroke-width:3.0;" d="M 250.688, 530.93 L 268.883, 565.71 L 261.432, 582.747 L 236.162, 548.157 L 245.099, 526.04 z "/>
<path style="fill:rgb(204, 255, 95);fill-opacity:1.0;fill-rule:evenodd;stroke:rgb(0, 0, 0);stroke-width:3.0;" d="M 102.02, 388.497 L 96.5048, 393.156 L 79.3841, 388.726 L 93.9181, 375.482 z "/>
<path style="fill:rgb(204, 255, 95);fill-opacity:1.0;fill-rule:evenodd;stroke:rgb(0, 0, 0);stroke-width:3.0;" d="M 529.26, 401.506 L 477.578, 433.437 L 479.24, 421.483 L 509.797, 376.166 z "/>
<path style="fill:rgb(175, 228, 237);fill-opacity:1.0;fill-rule:evenodd;stroke:rgb(0, 0, 0);stroke-width:3.0;" d="M 719.905, 438.179 L 747.088, 454.646 L 685.836, 467.182 L 710.993, 436.514 z "/>
<path style="fill:rgb(189, 246, 199);fill-opacity:1.0;fill-rule:evenodd;stroke:rgb(0, 0, 0);stroke-width:3.0;" d="M 430.211, 224.084 L 421.06, 238.771 L 398.33, 231.046 L 395.615, 227.512 L 405.101, 220.113 z "/>
<path style="fill:rgb(189, 246, 199);fill-opacity:1.0;fill-rule:evenodd;stroke:rgb(0, 0, 0);stroke-width:3.0;" d="M 315.616, 432.407 L 313.246, 435.455 L 198.902, 464.493 L 196.852, 464.638 L 293.567, 388.094 z "/>
<path style="fill:rgb(255, 79, 207);fill-opacity:1.0;fill-rule:evenodd;stroke:rgb(0, 0, 0);stroke-width:3.0;" d="M 372.104, 359.746 L 346.53, 368.236 L 340.652, 365.871 L 380.589, 348.831 z "/>
<path style="fill:rgb(215, 36, 249);fill-opacity:1.0;fill-rule:evenodd;stroke:rgb(0, 0, 0);stroke-width:3.0;" d="M 746.837, 514.149 L 726.581, 510.175 L 726.008, 481.833 L 767.326, 478.778 z "/>
<path style="fill:rgb(215, 36, 249);fill-opacity:1.0;fill-rule:evenodd;stroke:rgb(0, 0, 0);stroke-width:3.0;" d="M 651.446, 425.86 L 639.119, 430.301 L 617.938, 419.713 L 616.903, 418.524 L 625.31, 409.958 z "/>
<path style="fill:rgb(30, 255, 255);fill-opacity:1.0;fill-rule:evenodd;stroke:rgb(0, 0, 0);stroke-width:3.0;" d="M 87.4352, 365.069 L 64.9905, 329.015 L 144.099, 290.75 z "/>
<path style="fill:rgb(30, 255, 255);fill-opacity:1.0;fill-rule:evenodd;stroke:rgb(0, 0, 0);stroke-width:3.0;" d="M 769.058, 170.726 L 766.09, 176.74 L 744.925, 149.152 L 747.214, 133.739 L 749.427, 133.061 z "/>
<path style="fill:rgb(30, 255, 255);fill-opacity:1.0;fill-rule:evenodd;stroke:rgb(0, 0, 0);stroke-width:3.0;" d="M 224.132, 480.369 L 208.578, 488.189 L 205.792, 487.03 L 212.455, 463.536 L 225.274, 462.63 z "/>
<path style="fill:rgb(30, 255, 255);fill-opacity:1.0;fill-rule:evenodd;stroke:rgb(0, 0, 0);stroke-width:3.0;" d="M 449.144, 39.9973 L 456.207, 59.7557 L 418.211, 57.1756 L 383.087, 33.2587 z "/>
<path style="fill:rgb(246, 168, 255);fill-opacity:1.0;fill-rule:evenodd;stroke:rgb(0, 0, 0);stroke-width:3.0;" d="M 352.385, 385.111 L 301.613, 404.265 L 293.567, 388.094 L 298.519, 384.175 L 372.104, 359.746 z "/>
<path style="fill:rgb(246, 168, 255);fill-opacity:1.0;fill-rule:evenodd;stroke:rgb(0, 0, 0);stroke-width:3.0;" d="M 709.304, 386.862 L 707.149, 399.282 L 696.153, 396.671 L 691.63, 384.647 L 692.018, 384.303 z "/>
<path style="fill:rgb(255, 144, 37);fill-opacity:1.0;fill-rule:evenodd;stroke:rgb(0, 0, 0);stroke-width:3.0;" d="M 562.004, 409.492 L 548.512, 420.986 L 545.426, 409.614 L 557.116, 408.617 z "/>
<path style="fill:rgb(255, 144, 37);fill-opacity:1.0;fill-rule:evenodd;stroke:rgb(0, 0, 0);stroke-width:3.0;" d="M 45.0148, 296.928 L 46.52, 299.345 L 25.4377, 323.857 L 26.7158, 295.799 z "/>
<path style="fill:rgb(46, 255, 255);fill-opacity:1.0;fill-rule:evenodd;stroke:rgb(0, 0, 0);stroke-width:3.0;" d="M 745.134, 517.089 L 727.343, 547.803 L 726.599, 511.044 z "/>
<path style="fill:rgb(46, 255, 255);fill-opacity:1.0;fill-rule:evenodd;stroke:rgb(0, 0, 0);stroke-width:3.0;" d="M 668.49, 582.771 L 643.847, 573.914 L 650.86, 559.818 z "/>
<path style="fill:rgb(46, 255, 255);fill-opacity:1.0;fill-rule:evenodd;stroke:rgb(0, 0, 0);stroke-width:3.0;" d="M 290.774, 304.91 L 219.068, 327.153 L 206.098, 319.547 L 203.062, 286.304 z "/>
<path style="fill:rgb(26, 27, 148);fill-opacity:1.0;fill-rule:evenodd;stroke:rgb(0, 0, 0);stroke-width:3.0;" d="M 529.366, 360.228 L 525.134, 377.287 L 513.379, 379.343 L 527.018, 359.88 z "/>
<path style="fill:rgb(26, 27, 148);fill-opacity:1.0;fill-rule:evenodd;stroke:rgb(0, 0, 0);stroke-width:3.0;" d="M 31.6677, 159.318 L 38.4782, 163.814 L 11.4522, 177.918 L 14.7222, 156.693 z "/>
<path style="fill:rgb(26, 27, 148);fill-opacity:1.0;fill-rule:evenodd;stroke:rgb(0, 0, 0);stroke-width:3.0;" d="M 657.99, 406.682 L 666.587, 418.824 L 661.572, 422.212 L 651.446, 425.86 L 625.31, 409.958 L 630.564, 404.604 z "/>
<path style="fill:rgb(75, 115, 184);fill-opacity:1.0;fill-rule:evenodd;stroke:rgb(0, 0, 0);stroke-width:3.0;" d="M 617.716, 417.695 L 613.159, 422.338 L 600.561, 415.109 L 598.791, 413.804 L 597.033, 405.539 z "/>
<path style="fill:rgb(75, 115, 184);fill-opacity:1.0;fill-rule:evenodd;stroke:rgb(0, 0, 0);stroke-width:3.0;" d="M 466.048, 94.8074 L 469.223, 96.1671 L 472.197, 104.487 L 403.509, 82.1242 L 413.314, 77.8784 z "/>
<path style="fill:rgb(246, 237, 134);fill-opacity:1.0;fill-rule:evenodd;stroke:rgb(0, 0, 0);stroke-width:3.0;" d="M 276.581, 459.005 L 260.741, 460.124 L 239.405, 455.748 L 274.583, 454.671 z "/>
<path style="fill:rgb(246, 237, 134);fill-opacity:1.0;fill-rule:evenodd;stroke:rgb(0, 0, 0);stroke-width:3.0;" d="M 222.46, 505.066 L 146.582, 527.777 L 138.377, 510.918 L 147.099, 504.015 z "/>
<path style="fill:rgb(246, 237, 134);fill-opacity:1.0;fill-rule:evenodd;stroke:rgb(0, 0, 0);stroke-width:3.0;" d="M 758.475, 166.815 L 732.27, 163.399 L 720.414, 155.086 L 747.142, 152.042 z "/>
<path style="fill:rgb(246, 237, 134);fill-opacity:1.0;fill-rule:evenodd;stroke:rgb(0, 0, 0);stroke-width:3.0;" d="M 277.693, 481.187 L 248.122, 491.087 L 233.808, 462.027 L 296.005, 457.632 z "/>
<path style="fill:rgb(246, 237, 134);fill-opacity:1.0;fill-rule:evenodd;stroke:rgb(0, 0, 0);stroke-width:3.0;" d="M 96.5048, 393.156 L 51.6907, 431.005 L 73.9193, 393.705 L 79.3841, 388.726 z "/>
<path style="fill:rgb(246, 237, 134);fill-opacity:1.0;fill-rule:evenodd;stroke:rgb(0, 0, 0);stroke-width:3.0;" d="M 330.802, 486.159 L 269.578, 506.192 L 308.032, 489.217 L 329.531, 481.677 z "/>
<path style="fill:rgb(246, 237, 134);fill-opacity:1.0;fill-rule:evenodd;stroke:rgb(0, 0, 0);stroke-width:3.0;" d="M 315.616, 432.407 L 309.453, 420.022 L 330.052, 394.25 L 348.072, 390.658 z "/>
<path style="fill:rgb(246, 237, 134);fill-opacity:1.0;fill-rule:evenodd;stroke:rgb(0, 0, 0);stroke-width:3.0;" d="M 533.573, 360.851 L 531.157, 360.493 L 504.139, 142.867 L 521.155, 129.595 z "/>
<path style="fill:rgb(243, 71, 16);fill-opacity:1.0;fill-rule:evenodd;stroke:rgb(0, 0, 0);stroke-width:3.0;" d="M 588.774, 113.478 L 581.257, 119.31 L 571.48, 118.051 L 573.008, 101.264 L 574.183, 100.79 z "/>
<path style="fill:rgb(243, 71, 16);fill-opacity:1.0;fill-rule:evenodd;stroke:rgb(0, 0, 0);stroke-width:3.0;" d="M 679.797, 452.475 L 660.732, 462.651 L 656.943, 463.967 L 669.844, 450.166 L 675.741, 445.248 z "/>
<path style="fill:rgb(246, 24, 255);fill-opacity:1.0;fill-rule:evenodd;stroke:rgb(0, 0, 0);stroke-width:3.0;" d="M 466.754, 511.314 L 409.388, 571.962 L 316.671, 490.783 L 476.895, 438.354 z "/>
<path style="fill:rgb(255, 29, 65);fill-opacity:1.0;fill-rule:evenodd;stroke:rgb(0, 0, 0);stroke-width:3.0;" d="M 543.584, 402.825 L 545.428, 409.623 L 545.915, 422.012 L 545.052, 422.065 L 530.251, 402.796 z "/>
<path style="fill:rgb(223, 202, 67);fill-opacity:1.0;fill-rule:evenodd;stroke:rgb(0, 0, 0);stroke-width:3.0;" d="M 487.319, 168.202 L 477.416, 172.193 L 471.814, 168.08 L 488.538, 155.035 z "/>
<path style="fill:rgb(202, 29, 9);fill-opacity:1.0;fill-rule:evenodd;stroke:rgb(0, 0, 0);stroke-width:3.0;" d="M 342.134, 326.262 L 268.132, 326.945 L 284.619, 314.085 L 298.682, 311.375 z "/>
<path style="fill:rgb(202, 29, 9);fill-opacity:1.0;fill-rule:evenodd;stroke:rgb(0, 0, 0);stroke-width:3.0;" d="M 93.9181, 375.482 L 73.9193, 393.705 L 89.2487, 367.982 z "/>
<path style="fill:rgb(110, 223, 11);fill-opacity:1.0;fill-rule:evenodd;stroke:rgb(0, 0, 0);stroke-width:3.0;" d="M 677.368, 382.135 L 679.661, 398.354 L 671.498, 407.705 L 577.881, 400.613 L 622.988, 374.085 z "/>
<path style="fill:rgb(110, 223, 11);fill-opacity:1.0;fill-rule:evenodd;stroke:rgb(0, 0, 0);stroke-width:3.0;" d="M 144.099, 290.75 L 64.9905, 329.015 L 38.0482, 285.737 L 151.491, 281.055 z "/>
<path style="fill:rgb(152, 132, 217);fill-opacity:1.0;fill-rule:evenodd;stroke:rgb(0, 0, 0);stroke-width:3.0;" d="M 696.465, 384.961 L 691.614, 384.243 L 703.029, 351.441 L 720.217, 346.58 z "/>
<path style="fill:rgb(255, 82, 7);fill-opacity:1.0;fill-rule:evenodd;stroke:rgb(0, 0, 0);stroke-width:3.0;" d="M 295.183, 305.846 L 280.048, 317.65 L 264.344, 313.109 L 290.774, 304.91 z "/>
<path style="fill:rgb(255, 82, 7);fill-opacity:1.0;fill-rule:evenodd;stroke:rgb(0, 0, 0);stroke-width:3.0;" d="M 418.211, 57.1756 L 385.075, 54.9256 L 396.432, 42.3456 z "/>
<path style="fill:rgb(255, 51, 11);fill-opacity:1.0;fill-rule:evenodd;stroke:rgb(0, 0, 0);stroke-width:3.0;" d="M 729.351, 409.446 L 729.168, 412.074 L 681.086, 408.432 L 680.674, 405.523 z "/>
<path style="fill:rgb(21, 16, 231);fill-opacity:1.0;fill-rule:evenodd;stroke:rgb(0, 0, 0);stroke-width:3.0;" d="M 641.248, 45.3435 L 640.223, 62.8635 L 638.696, 60.9472 L 628.906, 43.561 L 637.129, 40.9449 z "/>
<path style="fill:rgb(21, 16, 231);fill-opacity:1.0;fill-rule:evenodd;stroke:rgb(0, 0, 0);stroke-width:3.0;" d="M 654.965, 538.83 L 655.772, 540.332 L 647.364, 545.927 L 638.639, 529.164 z "/>
<path style="fill:rgb(231, 37, 11);fill-opacity:1.0;fill-rule:evenodd;stroke:rgb(0, 0, 0);stroke-width:3.0;" d="M 355.21, 52.8976 L 357.797, 67.2422 L 340.475, 61.6027 L 340.999, 55.0711 L 348.593, 52.4483 z "/>
<path style="fill:rgb(231, 37, 11);fill-opacity:1.0;fill-rule:evenodd;stroke:rgb(0, 0, 0);stroke-width:3.0;" d="M 111.583, 359.337 L 100.985, 386.835 L 87.4352, 365.069 L 93.3738, 357.28 z "/>
<path style="fill:rgb(231, 37, 11);fill-opacity:1.0;fill-rule:evenodd;stroke:rgb(0, 0, 0);stroke-width:3.0;" d="M 588.897, 369.865 L 587.788, 394.786 L 577.881, 400.613 L 566.211, 399.729 L 565.656, 397.898 L 570.658, 368.125 z "/>
<path style="fill:rgb(231, 37, 11);fill-opacity:1.0;fill-rule:evenodd;stroke:rgb(0, 0, 0);stroke-width:3.0;" d="M 762.921, 394.798 L 765.977, 402.833 L 747.524, 408.869 L 736.715, 406.303 L 708.116, 397.666 L 709.402, 386.876 z "/>
<path style="fill:rgb(231, 37, 11);fill-opacity:1.0;fill-rule:evenodd;stroke:rgb(0, 0, 0);stroke-width:3.0;" d="M 349.513, 480.036 L 330.802, 486.159 L 324.799, 464.983 z "/>
<path style="fill:rgb(85, 5, 255);fill-opacity:1.0;fill-rule:evenodd;stroke:rgb(0, 0, 0);stroke-width:3.0;" d="M 51.7139, 439.633 L 50.8341, 460.12 L 39.3719, 476.154 L 35.6024, 458.002 L 47.0925, 438.721 z "/>
<path style="fill:rgb(97, 98, 255);fill-opacity:1.0;fill-rule:evenodd;stroke:rgb(0, 0, 0);stroke-width:3.0;" d="M 641.748, 118.208 L 628.234, 136.444 L 614.943, 138.338 L 641.424, 116.953 z "/>
<path style="fill:rgb(249, 94, 10);fill-opacity:1.0;fill-rule:evenodd;stroke:rgb(0, 0, 0);stroke-width:3.0;" d="M 555.344, 50.8308 L 559.827, 106.574 L 535.083, 116.544 L 467.869, 41.9075 z "/>
<path style="fill:rgb(249, 94, 10);fill-opacity:1.0;fill-rule:evenodd;stroke:rgb(0, 0, 0);stroke-width:3.0;" d="M 654.941, 38.1267 L 650.438, 55.1581 L 642.052, 46.2026 L 651.894, 35.7653 z "/>
<path style="fill:rgb(249, 94, 10);fill-opacity:1.0;fill-rule:evenodd;stroke:rgb(0, 0, 0);stroke-width:3.0;" d="M 270.249, 490.762 L 250.825, 496.576 L 248.122, 491.087 L 277.693, 481.187 z "/>
<path style="fill:rgb(249, 94, 10);fill-opacity:1.0;fill-rule:evenodd;stroke:rgb(0, 0, 0);stroke-width:3.0;" d="M 419.093, 457.268 L 349.513, 480.036 L 301.379, 450.719 L 356.307, 380.065 z "/>
<path style="fill:rgb(249, 94, 10);fill-opacity:1.0;fill-rule:evenodd;stroke:rgb(0, 0, 0);stroke-width:3.0;" d="M 642.339, 473.108 L 630.237, 483.203 L 624.624, 470.685 L 640.146, 468.094 z "/>
<path style="fill:rgb(255, 18, 39);fill-opacity:1.0;fill-rule:evenodd;stroke:rgb(0, 0, 0);stroke-width:3.0;" d="M 137.502, 529.131 L 135.609, 531.061 L 99.1285, 541.98 L 132.576, 515.508 z "/>
<path style="fill:rgb(97, 57, 215);fill-opacity:1.0;fill-rule:evenodd;stroke:rgb(0, 0, 0);stroke-width:3.0;" d="M 712.602, 433.755 L 710.401, 436.14 L 688.955, 447.587 L 699.532, 425.838 z "/>
<path style="fill:rgb(136, 128, 187);fill-opacity:1.0;fill-rule:evenodd;stroke:rgb(0, 0, 0);stroke-width:3.0;" d="M 36.1911, 460.837 L 27.7839, 492.365 L 24.8748, 496.434 L 30.1559, 467.141 L 35.6024, 458.002 z "/>
<path style="fill:rgb(136, 128, 187);fill-opacity:1.0;fill-rule:evenodd;stroke:rgb(0, 0, 0);stroke-width:3.0;" d="M 397.148, 561.246 L 292.969, 569.227 L 255.124, 510.922 L 316.671, 490.783 z "/>
<path style="fill:rgb(78, 215, 255);fill-opacity:1.0;fill-rule:evenodd;stroke:rgb(0, 0, 0);stroke-width:3.0;" d="M 709.974, 160.492 L 712.138, 164.424 L 698.954, 177.678 L 701.454, 159.382 z "/>
<path style="fill:rgb(78, 215, 255);fill-opacity:1.0;fill-rule:evenodd;stroke:rgb(0, 0, 0);stroke-width:3.0;" d="M 23.584, 478.169 L 5.23627, 475.423 L 33.7881, 435.672 L 53.3147, 428.28 z "/>
<path style="fill:rgb(71, 159, 226);fill-opacity:1.0;fill-rule:evenodd;stroke:rgb(0, 0, 0);stroke-width:3.0;" d="M 111.583, 359.337 L 93.3738, 357.28 L 131.799, 306.882 z "/>
<path style="fill:rgb(71, 159, 226);fill-opacity:1.0;fill-rule:evenodd;stroke:rgb(0, 0, 0);stroke-width:3.0;" d="M 36.2589, 250.919 L 36.5355, 264.936 L 16.0317, 250.371 L 13.3471, 246.059 z "/>
<path style="fill:rgb(71, 159, 226);fill-opacity:1.0;fill-rule:evenodd;stroke:rgb(0, 0, 0);stroke-width:3.0;" d="M 64.2931, 284.654 L 38.0482, 285.737 L 16.0317, 250.371 z "/>
<path style="fill:rgb(255, 226, 154);fill-opacity:1.0;fill-rule:evenodd;stroke:rgb(0, 0, 0);stroke-width:3.0;" d="M 699.26, 397.409 L 729.686, 404.634 L 729.351, 409.446 L 680.674, 405.523 L 679.395, 396.47 z "/>
<path style="fill:rgb(168, 10, 217);fill-opacity:1.0;fill-rule:evenodd;stroke:rgb(0, 0, 0);stroke-width:3.0;" d="M 737.572, 391.046 L 696.465, 384.961 L 703.489, 373.611 L 753.207, 370.442 z "/>
<path style="fill:rgb(249, 252, 6);fill-opacity:1.0;fill-rule:evenodd;stroke:rgb(0, 0, 0);stroke-width:3.0;" d="M 727.551, 558.097 L 728.09, 584.705 L 683.143, 591.248 L 659.926, 548.058 L 655.429, 514.389 z "/>
<path style="fill:rgb(255, 197, 41);fill-opacity:1.0;fill-rule:evenodd;stroke:rgb(0, 0, 0);stroke-width:3.0;" d="M 444.275, 81.8598 L 419.895, 75.0287 L 452.627, 60.8557 z "/>
<path style="fill:rgb(255, 197, 41);fill-opacity:1.0;fill-rule:evenodd;stroke:rgb(0, 0, 0);stroke-width:3.0;" d="M 698.719, 363.827 L 691.614, 384.243 L 630.354, 375.176 L 646.234, 367.501 L 697.632, 352.967 z "/>
<path style="fill:rgb(255, 255, 11);fill-opacity:1.0;fill-rule:evenodd;stroke:rgb(0, 0, 0);stroke-width:3.0;" d="M 596.02, 127.878 L 583.521, 129.562 L 583.117, 117.867 L 600.111, 104.683 z "/>
<path style="fill:rgb(255, 4, 81);fill-opacity:1.0;fill-rule:evenodd;stroke:rgb(0, 0, 0);stroke-width:3.0;" d="M 405.878, 219.507 L 295.183, 305.846 L 233.937, 292.853 L 108.95, 210.339 L 225.58, 78.7937 z "/>
<path style="fill:rgb(234, 97, 35);fill-opacity:1.0;fill-rule:evenodd;stroke:rgb(0, 0, 0);stroke-width:3.0;" d="M 477.614, 52.729 L 489.4, 65.8163 L 487.222, 93.8511 L 469.037, 95.6482 L 453.312, 51.6569 z "/>
<path style="fill:rgb(234, 97, 35);fill-opacity:1.0;fill-rule:evenodd;stroke:rgb(0, 0, 0);stroke-width:3.0;" d="M 775.344, 341.27 L 753.207, 370.442 L 716.234, 372.799 L 711.541, 360.6 L 720.217, 346.58 L 766.589, 333.468 z "/>
<path style="fill:rgb(226, 3, 157);fill-opacity:1.0;fill-rule:evenodd;stroke:rgb(0, 0, 0);stroke-width:3.0;" d="M 698.872, 178.284 L 654.51, 163.842 L 663.589, 117.475 L 707.513, 115.026 z "/>
<path style="fill:rgb(226, 3, 157);fill-opacity:1.0;fill-rule:evenodd;stroke:rgb(0, 0, 0);stroke-width:3.0;" d="M 662.44, 574.895 L 625.151, 526.347 L 619.93, 510.122 L 626.481, 505.803 z "/>
<path style="fill:rgb(226, 3, 157);fill-opacity:1.0;fill-rule:evenodd;stroke:rgb(0, 0, 0);stroke-width:3.0;" d="M 422.458, 262.459 L 417.497, 265.263 L 317.927, 307.667 L 284.619, 314.085 L 395.615, 227.512 z "/>
<path style="fill:rgb(226, 3, 157);fill-opacity:1.0;fill-rule:evenodd;stroke:rgb(0, 0, 0);stroke-width:3.0;" d="M 529.449, 123.126 L 483.317, 159.107 L 456.863, 150.415 L 477.125, 106.091 z "/>
<path style="fill:rgb(237, 184, 212);fill-opacity:1.0;fill-rule:evenodd;stroke:rgb(0, 0, 0);stroke-width:3.0;" d="M 477.125, 106.091 L 456.863, 150.415 L 293.042, 96.5874 L 222.245, 38.7278 L 231.923, 26.2618 z "/>
<path style="fill:rgb(179, 246, 194);fill-opacity:1.0;fill-rule:evenodd;stroke:rgb(0, 0, 0);stroke-width:3.0;" d="M 365.538, 53.5989 L 363.191, 68.9983 L 357.797, 67.2422 L 355.21, 52.8976 z "/>
<path style="fill:rgb(179, 246, 194);fill-opacity:1.0;fill-rule:evenodd;stroke:rgb(0, 0, 0);stroke-width:3.0;" d="M 663.406, 486.462 L 653.016, 487.23 L 648.916, 467.622 L 650.7, 466.135 L 655.394, 464.505 z "/>
<path style="fill:rgb(220, 7, 255);fill-opacity:1.0;fill-rule:evenodd;stroke:rgb(0, 0, 0);stroke-width:3.0;" d="M 663.979, 486.42 L 663.406, 486.462 L 655.394, 464.505 L 697.812, 449.775 z "/>
<path style="fill:rgb(255, 10, 189);fill-opacity:1.0;fill-rule:evenodd;stroke:rgb(0, 0, 0);stroke-width:3.0;" d="M 205.792, 487.03 L 181.385, 476.879 L 196.852, 464.638 L 212.455, 463.536 z "/>
<path style="fill:rgb(255, 10, 189);fill-opacity:1.0;fill-rule:evenodd;stroke:rgb(0, 0, 0);stroke-width:3.0;" d="M 775.919, 124.943 L 735.787, 137.241 L 729.015, 128.414 L 773.773, 116.533 z "/>
<path style="fill:rgb(255, 12, 7);fill-opacity:1.0;fill-rule:evenodd;stroke:rgb(0, 0, 0);stroke-width:3.0;" d="M 730.602, 188.614 L 698.872, 178.284 L 698.954, 177.678 L 715.239, 161.305 z "/>
<path style="fill:rgb(255, 12, 7);fill-opacity:1.0;fill-rule:evenodd;stroke:rgb(0, 0, 0);stroke-width:3.0;" d="M 535.083, 116.544 L 523.529, 121.199 L 472.197, 104.487 L 469.037, 95.6482 L 512.406, 91.3625 z "/>
<path style="fill:rgb(255, 9, 7);fill-opacity:1.0;fill-rule:evenodd;stroke:rgb(0, 0, 0);stroke-width:3.0;" d="M 768.05, 118.052 L 743.926, 124.456 L 733.19, 113.594 L 775.558, 111.232 z "/>
<path style="fill:rgb(255, 255, 12);fill-opacity:1.0;fill-rule:evenodd;stroke:rgb(0, 0, 0);stroke-width:3.0;" d="M 456.207, 59.7557 L 461.818, 75.4533 L 446.346, 81.0974 L 455.803, 59.7283 z "/>
<path style="fill:rgb(255, 220, 10);fill-opacity:1.0;fill-rule:evenodd;stroke:rgb(0, 0, 0);stroke-width:3.0;" d="M 142.805, 232.689 L 233.937, 292.853 L 122.656, 269.247 L 93.227, 225.509 z "/>
<path style="fill:rgb(255, 97, 62);fill-opacity:1.0;fill-rule:evenodd;stroke:rgb(0, 0, 0);stroke-width:3.0;" d="M 731.815, 132.063 L 705.431, 130.264 L 705.858, 127.142 L 722.23, 119.569 z "/>
<path style="fill:rgb(255, 97, 62);fill-opacity:1.0;fill-rule:evenodd;stroke:rgb(0, 0, 0);stroke-width:3.0;" d="M 471.511, 195.72 L 475.285, 260.419 L 466.469, 319.757 L 413.536, 250.844 L 448.624, 194.536 z "/>
<path style="fill:rgb(255, 97, 62);fill-opacity:1.0;fill-rule:evenodd;stroke:rgb(0, 0, 0);stroke-width:3.0;" d="M 769.058, 170.726 L 759.374, 152.147 L 769.694, 126.85 L 794.452, 119.263 z "/>
<path style="fill:rgb(243, 187, 7);fill-opacity:1.0;fill-rule:evenodd;stroke:rgb(0, 0, 0);stroke-width:3.0;" d="M 236.413, 455.134 L 248.874, 460.962 L 210.794, 463.653 L 212.39, 461.068 L 236.048, 455.059 z "/>
<path style="fill:rgb(243, 187, 7);fill-opacity:1.0;fill-rule:evenodd;stroke:rgb(0, 0, 0);stroke-width:3.0;" d="M 93.227, 225.509 L 120.821, 266.52 L 119.577, 268.594 L 13.0208, 245.99 L 14.8711, 214.162 z "/>
<path style="fill:rgb(255, 11, 83);fill-opacity:1.0;fill-rule:evenodd;stroke:rgb(0, 0, 0);stroke-width:3.0;" d="M 778.644, 344.211 L 772.867, 358.346 L 763.197, 374.123 L 753.957, 369.454 L 775.344, 341.27 z "/>
<path style="fill:rgb(9, 92, 255);fill-opacity:1.0;fill-rule:evenodd;stroke:rgb(0, 0, 0);stroke-width:3.0;" d="M 236.147, 466.776 L 225.531, 480.876 L 224.159, 479.955 L 225.274, 462.63 L 233.808, 462.027 z "/>
<path style="fill:rgb(9, 92, 255);fill-opacity:1.0;fill-rule:evenodd;stroke:rgb(0, 0, 0);stroke-width:3.0;" d="M 471.511, 195.72 L 448.624, 194.536 L 458.771, 178.252 L 469.982, 169.508 z "/>
<path style="fill:rgb(9, 92, 255);fill-opacity:1.0;fill-rule:evenodd;stroke:rgb(0, 0, 0);stroke-width:3.0;" d="M 467.869, 41.9075 L 477.614, 52.729 L 453.312, 51.6569 L 452.44, 49.2179 L 466.059, 41.7228 z "/>
<path style="fill:rgb(9, 92, 255);fill-opacity:1.0;fill-rule:evenodd;stroke:rgb(0, 0, 0);stroke-width:3.0;" d="M 763.197, 374.123 L 757.937, 382.704 L 754.308, 384.279 L 749.978, 374.698 L 753.957, 369.454 z "/>
<path style="fill:rgb(212, 237, 17);fill-opacity:1.0;fill-rule:evenodd;stroke:rgb(0, 0, 0);stroke-width:3.0;" d="M 455.308, 59.6947 L 403.509, 82.1242 L 363.191, 68.9983 L 365.538, 53.5989 z "/>
<path style="fill:rgb(255, 1, 54);fill-opacity:1.0;fill-rule:evenodd;stroke:rgb(0, 0, 0);stroke-width:3.0;" d="M 57.0859, 316.318 L 39.0963, 342.003 L 24.8913, 335.851 L 25.4377, 323.857 L 38.422, 308.761 L 48.4497, 302.445 z "/>
<path style="fill:rgb(255, 1, 54);fill-opacity:1.0;fill-rule:evenodd;stroke:rgb(0, 0, 0);stroke-width:3.0;" d="M 433.744, 277.153 L 420.049, 287.992 L 355.175, 300.491 L 422.458, 262.459 z "/>
<path style="fill:rgb(255, 1, 54);fill-opacity:1.0;fill-rule:evenodd;stroke:rgb(0, 0, 0);stroke-width:3.0;" d="M 615.346, 452.977 L 598.758, 450.098 L 593.542, 440.881 L 608.423, 436.112 z "/>
<path style="fill:rgb(223, 1, 47);fill-opacity:1.0;fill-rule:evenodd;stroke:rgb(0, 0, 0);stroke-width:3.0;" d="M 659.659, 458.662 L 657.671, 460.32 L 615.346, 452.977 L 608.423, 436.112 L 622.805, 431.502 z "/>
<path style="fill:rgb(255, 252, 26);fill-opacity:1.0;fill-rule:evenodd;stroke:rgb(0, 0, 0);stroke-width:3.0;" d="M 483.317, 159.107 L 405.878, 219.507 L 364.895, 187.522 L 415.459, 136.811 z "/>
<path style="fill:rgb(255, 255, 16);fill-opacity:1.0;fill-rule:evenodd;stroke:rgb(0, 0, 0);stroke-width:3.0;" d="M 597.67, 412.978 L 607.238, 420.03 L 608.688, 436.027 L 604.599, 437.337 L 560.963, 436.497 L 577.417, 406.741 z "/>
<path style="fill:rgb(215, 25, 65);fill-opacity:1.0;fill-rule:evenodd;stroke:rgb(0, 0, 0);stroke-width:3.0;" d="M 355.175, 300.491 L 317.927, 307.667 L 417.497, 265.263 z "/>
<path style="fill:rgb(215, 25, 65);fill-opacity:1.0;fill-rule:evenodd;stroke:rgb(0, 0, 0);stroke-width:3.0;" d="M 287.376, 454.279 L 259.747, 455.125 L 267.103, 447.173 L 274.665, 445.252 z "/>
<path style="fill:rgb(212, 0, 46);fill-opacity:1.0;fill-rule:evenodd;stroke:rgb(0, 0, 0);stroke-width:3.0;" d="M 259.747, 455.125 L 239.405, 455.748 L 236.048, 455.059 L 267.103, 447.173 z "/>
<path style="fill:rgb(255, 58, 161);fill-opacity:1.0;fill-rule:evenodd;stroke:rgb(0, 0, 0);stroke-width:3.0;" d="M 246.42, 522.771 L 236.162, 548.157 L 231.059, 541.172 L 245.996, 521.959 z "/>
<path style="fill:rgb(121, 60, 255);fill-opacity:1.0;fill-rule:evenodd;stroke:rgb(0, 0, 0);stroke-width:3.0;" d="M 608.074, 451.715 L 623.916, 465.086 L 621.612, 469.277 L 598.361, 465.394 L 579.945, 446.834 z "/>
<path style="fill:rgb(121, 60, 255);fill-opacity:1.0;fill-rule:evenodd;stroke:rgb(0, 0, 0);stroke-width:3.0;" d="M 528.354, 346.276 L 530.182, 360.349 L 493.474, 354.915 L 468.595, 322.526 z "/>
<path style="fill:rgb(32, 37, 217);fill-opacity:1.0;fill-rule:evenodd;stroke:rgb(0, 0, 0);stroke-width:3.0;" d="M 528.354, 346.276 L 468.595, 322.526 L 466.469, 319.757 L 491.259, 152.913 L 502.136, 144.429 z "/>
<path style="fill:rgb(11, 6, 255);fill-opacity:1.0;fill-rule:evenodd;stroke:rgb(0, 0, 0);stroke-width:3.0;" d="M 784.794, 477.486 L 680.194, 485.221 L 687.674, 466.806 L 747.088, 454.646 z "/>
<path style="fill:rgb(255, 37, 95);fill-opacity:1.0;fill-rule:evenodd;stroke:rgb(0, 0, 0);stroke-width:3.0;" d="M 680.194, 485.221 L 670.448, 485.941 L 685.836, 467.182 L 687.674, 466.806 z "/>
<path style="fill:rgb(226, 249, 23);fill-opacity:1.0;fill-rule:evenodd;stroke:rgb(0, 0, 0);stroke-width:3.0;" d="M 324.799, 464.983 L 329.531, 481.677 L 283.127, 497.951 L 306.792, 454.016 z "/>
<path style="fill:rgb(226, 249, 23);fill-opacity:1.0;fill-rule:evenodd;stroke:rgb(0, 0, 0);stroke-width:3.0;" d="M 697.812, 449.775 L 680.768, 455.693 L 682.459, 451.054 L 710.401, 436.14 z "/>
<path style="fill:rgb(226, 249, 23);fill-opacity:1.0;fill-rule:evenodd;stroke:rgb(0, 0, 0);stroke-width:3.0;" d="M 540.794, 433.04 L 466.754, 511.314 L 474.37, 456.524 L 497.291, 440.933 L 538.611, 430.952 z "/>
<path style="fill:rgb(100, 3, 255);fill-opacity:1.0;fill-rule:evenodd;stroke:rgb(0, 0, 0);stroke-width:3.0;" d="M 237.985, 500.419 L 222.46, 505.066 L 147.099, 504.015 L 181.385, 476.879 z "/>
<path style="fill:rgb(237, 255, 126);fill-opacity:1.0;fill-rule:evenodd;stroke:rgb(0, 0, 0);stroke-width:3.0;" d="M 39.3719, 476.154 L 27.7839, 492.365 L 36.1911, 460.837 z "/>
<path style="fill:rgb(81, 19, 175);fill-opacity:1.0;fill-rule:evenodd;stroke:rgb(0, 0, 0);stroke-width:3.0;" d="M 179.312, 59.2183 L 146.911, 48.5721 L 153.631, 41.6013 L 212.383, 23.5751 z "/>
<path style="fill:rgb(255, 199, 255);fill-opacity:1.0;fill-rule:evenodd;stroke:rgb(0, 0, 0);stroke-width:3.0;" d="M 215.002, 20.7529 L 212.383, 23.5751 L 153.631, 41.6013 L 179.929, 14.3215 L 189.562, 12.4707 z "/>
<path style="fill:rgb(252, 36, 209);fill-opacity:1.0;fill-rule:evenodd;stroke:rgb(0, 0, 0);stroke-width:3.0;" d="M 655.722, 157.652 L 640.968, 154.29 L 645.783, 118.468 L 663.589, 117.475 z "/>
<path style="fill:rgb(17, 29, 255);fill-opacity:1.0;fill-rule:evenodd;stroke:rgb(0, 0, 0);stroke-width:3.0;" d="M 237.966, 348.875 L 222.599, 356.497 L 209.499, 356.801 L 208.414, 344.915 L 220.044, 327.757 z "/>
<path style="fill:rgb(27, 207, 231);fill-opacity:1.0;fill-rule:evenodd;stroke:rgb(0, 0, 0);stroke-width:3.0;" d="M 509.797, 376.166 L 509.243, 376.987 L 493.395, 372.094 L 497.172, 359.73 z "/>
<path style="fill:rgb(255, 25, 197);fill-opacity:1.0;fill-rule:evenodd;stroke:rgb(0, 0, 0);stroke-width:3.0;" d="M 448.463, 194.795 L 442.432, 204.473 L 432.411, 209.759 L 422.584, 206.477 L 431.919, 199.196 L 445.848, 191.522 z "/>
<path style="fill:rgb(255, 179, 255);fill-opacity:1.0;fill-rule:evenodd;stroke:rgb(0, 0, 0);stroke-width:3.0;" d="M 301.988, 449.936 L 282.587, 450.879 L 280.999, 449.751 L 307.808, 436.836 L 313.246, 435.455 z "/>
<path style="fill:rgb(228, 17, 234);fill-opacity:1.0;fill-rule:evenodd;stroke:rgb(0, 0, 0);stroke-width:3.0;" d="M 637.129, 40.9449 L 628.906, 43.561 L 616.342, 21.2456 L 616.403, 18.8104 z "/>
<path style="fill:rgb(34, 243, 134);fill-opacity:1.0;fill-rule:evenodd;stroke:rgb(0, 0, 0);stroke-width:3.0;" d="M 647.99, 481.878 L 627.743, 488.19 L 626.664, 486.183 L 639.906, 475.138 z "/>
<path style="fill:rgb(194, 170, 52);fill-opacity:1.0;fill-rule:evenodd;stroke:rgb(0, 0, 0);stroke-width:3.0;" d="M 69.859, 258.047 L 76.0735, 284.167 L 64.2931, 284.654 L 36.5355, 264.936 L 36.2589, 250.919 z "/>
<path style="fill:rgb(128, 4, 209);fill-opacity:1.0;fill-rule:evenodd;stroke:rgb(0, 0, 0);stroke-width:3.0;" d="M 280.048, 317.65 L 238.782, 349.837 L 219.435, 327.04 L 264.344, 313.109 z "/>
<path style="fill:rgb(22, 252, 255);fill-opacity:1.0;fill-rule:evenodd;stroke:rgb(0, 0, 0);stroke-width:3.0;" d="M 179.726, 14.5329 L 148.539, 46.8832 L 141.726, 30.1206 L 155.598, 5.77197 z "/>
<path style="fill:rgb(123, 228, 255);fill-opacity:1.0;fill-rule:evenodd;stroke:rgb(0, 0, 0);stroke-width:3.0;" d="M 512.406, 91.3625 L 487.222, 93.8511 L 489.4, 65.8163 z "/>
<path style="fill:rgb(255, 7, 66);fill-opacity:1.0;fill-rule:evenodd;stroke:rgb(0, 0, 0);stroke-width:3.0;" d="M 515.914, 46.8086 L 454.87, 40.5814 L 466.59, 19.6881 z "/>
<path style="fill:rgb(249, 252, 25);fill-opacity:1.0;fill-rule:evenodd;stroke:rgb(0, 0, 0);stroke-width:3.0;" d="M 500.492, 389.965 L 479.24, 421.483 L 480.021, 415.864 L 492.287, 375.719 z "/>
<path style="fill:rgb(255, 25, 255);fill-opacity:1.0;fill-rule:evenodd;stroke:rgb(0, 0, 0);stroke-width:3.0;" d="M 509.243, 376.987 L 500.492, 389.965 L 492.287, 375.719 L 493.395, 372.094 z "/>
<path style="fill:rgb(255, 97, 255);fill-opacity:1.0;fill-rule:evenodd;stroke:rgb(0, 0, 0);stroke-width:3.0;" d="M 372.042, 325.986 L 342.134, 326.262 L 298.682, 311.375 L 420.049, 287.992 z "/>
<path style="fill:rgb(187, 4, 255);fill-opacity:1.0;fill-rule:evenodd;stroke:rgb(0, 0, 0);stroke-width:3.0;" d="M 651.141, 531.717 L 635.758, 503.099 L 638.199, 493.729 z "/>
<path style="fill:rgb(187, 4, 255);fill-opacity:1.0;fill-rule:evenodd;stroke:rgb(0, 0, 0);stroke-width:3.0;" d="M 668.49, 582.771 L 672.606, 588.129 L 635.272, 591.149 L 643.847, 573.914 z "/>
<path style="fill:rgb(243, 19, 249);fill-opacity:1.0;fill-rule:evenodd;stroke:rgb(0, 0, 0);stroke-width:3.0;" d="M 758.475, 166.815 L 790.047, 207.968 L 730.602, 188.614 L 715.239, 161.305 L 715.35, 161.193 z "/>
<path style="fill:rgb(223, 6, 115);fill-opacity:1.0;fill-rule:evenodd;stroke:rgb(0, 0, 0);stroke-width:3.0;" d="M 135.409, 271.952 L 148.89, 281.162 L 76.0735, 284.167 L 69.859, 258.047 z "/>
<path style="fill:rgb(223, 6, 115);fill-opacity:1.0;fill-rule:evenodd;stroke:rgb(0, 0, 0);stroke-width:3.0;" d="M 719.578, 116.113 L 722.23, 119.569 L 705.858, 127.142 L 707.513, 115.026 L 713.243, 114.706 z "/>
<path style="fill:rgb(112, 243, 226);fill-opacity:1.0;fill-rule:evenodd;stroke:rgb(0, 0, 0);stroke-width:3.0;" d="M 558.521, 374.366 L 548.543, 379.596 L 538.713, 375.31 L 536.395, 373.188 L 556.104, 366.393 z "/>
<path style="fill:rgb(255, 78, 24);fill-opacity:1.0;fill-rule:evenodd;stroke:rgb(0, 0, 0);stroke-width:3.0;" d="M 306.792, 454.016 L 283.127, 497.951 L 257.737, 506.856 L 301.379, 450.719 z "/>
<path style="fill:rgb(255, 226, 31);fill-opacity:1.0;fill-rule:evenodd;stroke:rgb(0, 0, 0);stroke-width:3.0;" d="M 489.255, 349.423 L 476.895, 438.354 L 419.093, 457.268 L 356.307, 380.065 L 435.021, 278.815 z "/>
<path style="fill:rgb(14, 255, 57);fill-opacity:1.0;fill-rule:evenodd;stroke:rgb(0, 0, 0);stroke-width:3.0;" d="M 277.369, 545.193 L 276.814, 547.576 L 275.45, 550.695 L 257.628, 544.196 L 245.996, 521.959 L 254.875, 510.538 z "/>
<path style="fill:rgb(255, 2, 65);fill-opacity:1.0;fill-rule:evenodd;stroke:rgb(0, 0, 0);stroke-width:3.0;" d="M 570.658, 368.125 L 565.656, 397.898 L 556.211, 366.746 z "/>
<path style="fill:rgb(240, 21, 246);fill-opacity:1.0;fill-rule:evenodd;stroke:rgb(0, 0, 0);stroke-width:3.0;" d="M 580.688, 400.826 L 564.248, 430.558 L 560.673, 428.63 L 563.437, 413.521 L 573.002, 400.243 z "/>
<path style="fill:rgb(199, 7, 246);fill-opacity:1.0;fill-rule:evenodd;stroke:rgb(0, 0, 0);stroke-width:3.0;" d="M 708.122, 546.323 L 655.429, 514.389 L 651.814, 487.319 L 725.622, 481.861 z "/>
<path style="fill:rgb(255, 65, 16);fill-opacity:1.0;fill-rule:evenodd;stroke:rgb(0, 0, 0);stroke-width:3.0;" d="M 269.578, 506.192 L 255.124, 510.922 L 255.062, 510.827 L 263.405, 504.868 L 308.032, 489.217 z "/>
<path style="fill:rgb(255, 7, 44);fill-opacity:1.0;fill-rule:evenodd;stroke:rgb(0, 0, 0);stroke-width:3.0;" d="M 749.388, 413.606 L 759.888, 462.399 L 699.23, 425.655 L 716.649, 411.126 z "/>
</svg>