<?xml version="1.0" encoding="iso-8859-1" standalone="no"?>
<!DOCTYPE svg PUBLIC "-//W3C//DTD SVG 1.0//EN" "http://www.w3.org/TR/2001/REC-SVG-20010904/DTD/svg10.dtd">
<svg xmlns="http://www.w3.org/2000/svg" width="800" height="600">
<path style="fill:rgb(0, 0, 0);fill-opacity:0.0;fill-rule:evenodd;stroke:rgb(0, 0, 0);stroke-width:0.0;" d="M 0, 600 L 800, 600 L 800, 0 L 0, 0 z "/>
<path style="fill:rgb(234, 10, 255);fill-opacity:1.0;fill-rule:evenodd;stroke:rgb(0, 0, 0);stroke-width:3.0;" d="M 118.024, 467.054 L 115.557, 472.896 L 62.5965, 463.623 L 69.7693, 454.661 z "/>
<path style="fill:rgb(255, 8, 25);fill-opacity:1.0;fill-rule:evenodd;stroke:rgb(0, 0, 0);stroke-width:3.0;" d="M 413.223, 525.01 L 326.904, 560.442 L 312.916, 551.977 L 303.563, 544.17 L 339.889, 512.171 z "/>
<path style="fill:rgb(255, 8, 25);fill-opacity:1.0;fill-rule:evenodd;stroke:rgb(0, 0, 0);stroke-width:3.0;" d="M 175.571, 52.0419 L 171.59, 53.7237 L 152.248, 47.6712 L 144.015, 37.7791 L 145.927, 35.6381 z "/>
<path style="fill:rgb(255, 8, 25);fill-opacity:1.0;fill-rule:evenodd;stroke:rgb(0, 0, 0);stroke-width:3.0;" d="M 782.598, 162.005 L 769.548, 173.269 L 765.064, 145.993 z "/>
<path style="fill:rgb(255, 8, 25);fill-opacity:1.0;fill-rule:evenodd;stroke:rgb(0, 0, 0);stroke-width:3.0;" d="M 334.312, 206.654 L 273.102, 223.991 L 205.756, 224.222 L 184.565, 151.465 L 209.888, 104.236 z "/>
<path style="fill:rgb(252, 19, 75);fill-opacity:1.0;fill-rule:evenodd;stroke:rgb(0, 0, 0);stroke-width:3.0;" d="M 436.672, 184.164 L 420.806, 182.156 L 460.13, 171.017 z "/>
<path style="fill:rgb(252, 19, 75);fill-opacity:1.0;fill-rule:evenodd;stroke:rgb(0, 0, 0);stroke-width:3.0;" d="M 424.27, 57.3051 L 484.521, 164.109 L 406.82, 186.117 L 182.562, 63.0836 L 230.956, 8.03877 z "/>
<path style="fill:rgb(98, 24, 234);fill-opacity:1.0;fill-rule:evenodd;stroke:rgb(0, 0, 0);stroke-width:3.0;" d="M 335.176, 146.812 L 329.953, 148.828 L 318.124, 147.805 L 317.618, 137.179 z "/>
<path style="fill:rgb(98, 24, 234);fill-opacity:1.0;fill-rule:evenodd;stroke:rgb(0, 0, 0);stroke-width:3.0;" d="M 339.889, 512.171 L 289.545, 556.518 L 208.783, 489.217 z "/>
<path style="fill:rgb(78, 255, 255);fill-opacity:1.0;fill-rule:evenodd;stroke:rgb(0, 0, 0);stroke-width:3.0;" d="M 245.033, 97.3566 L 228.746, 105.011 L 181.917, 63.8173 L 182.562, 63.0836 z "/>
<path style="fill:rgb(255, 138, 136);fill-opacity:1.0;fill-rule:evenodd;stroke:rgb(0, 0, 0);stroke-width:3.0;" d="M 177.568, 251.051 L 128.282, 265.011 L 124.597, 253.342 L 163.141, 236.925 z "/>
<path style="fill:rgb(255, 138, 136);fill-opacity:1.0;fill-rule:evenodd;stroke:rgb(0, 0, 0);stroke-width:3.0;" d="M 482.917, 168.525 L 489.936, 197.554 L 482.013, 196.402 L 475.953, 170.724 L 476.875, 166.275 L 478.458, 165.826 z "/>
<path style="fill:rgb(98, 255, 255);fill-opacity:1.0;fill-rule:evenodd;stroke:rgb(0, 0, 0);stroke-width:3.0;" d="M 460.36, 69.2425 L 443.616, 83.441 L 442.892, 61.7421 z "/>
<path style="fill:rgb(243, 255, 38);fill-opacity:1.0;fill-rule:evenodd;stroke:rgb(0, 0, 0);stroke-width:3.0;" d="M 268.491, 110.226 L 258.235, 125.885 L 253.088, 126.423 L 241.776, 116.473 L 230.357, 104.254 L 245.033, 97.3566 z "/>
<path style="fill:rgb(243, 255, 38);fill-opacity:1.0;fill-rule:evenodd;stroke:rgb(0, 0, 0);stroke-width:3.0;" d="M 702.169, 575.597 L 702.963, 580.577 L 695.114, 585.016 L 682.279, 580.26 L 686.664, 572.883 z "/>
<path style="fill:rgb(212, 38, 255);fill-opacity:1.0;fill-rule:evenodd;stroke:rgb(0, 0, 0);stroke-width:3.0;" d="M 507.769, 46.3327 L 440.102, 50.1511 L 437.85, 48.2613 L 435.728, 44.0451 L 520.351, 35.8649 z "/>
<path style="fill:rgb(255, 228, 6);fill-opacity:1.0;fill-rule:evenodd;stroke:rgb(0, 0, 0);stroke-width:3.0;" d="M 595.333, 152.842 L 563.991, 184.644 L 557.52, 176.415 L 578.329, 146.738 z "/>
<path style="fill:rgb(255, 228, 6);fill-opacity:1.0;fill-rule:evenodd;stroke:rgb(0, 0, 0);stroke-width:3.0;" d="M 767.064, 175.277 L 767.105, 175.378 L 749.793, 190.321 L 750.444, 171.558 z "/>
<path style="fill:rgb(255, 228, 6);fill-opacity:1.0;fill-rule:evenodd;stroke:rgb(0, 0, 0);stroke-width:3.0;" d="M 198.951, 200.857 L 195.931, 216.555 L 155.738, 205.232 L 184.565, 151.465 z "/>
<path style="fill:rgb(255, 228, 6);fill-opacity:1.0;fill-rule:evenodd;stroke:rgb(0, 0, 0);stroke-width:3.0;" d="M 202.9, 33.0027 L 170.624, 24.1572 L 173.118, 19.9588 L 188.318, 16.9524 z "/>
<path style="fill:rgb(255, 228, 6);fill-opacity:1.0;fill-rule:evenodd;stroke:rgb(0, 0, 0);stroke-width:3.0;" d="M 473.844, 74.8896 L 473.569, 75.5241 L 453.682, 52.8902 L 451.721, 49.4954 L 477.282, 48.0531 z "/>
<path style="fill:rgb(240, 17, 45);fill-opacity:1.0;fill-rule:evenodd;stroke:rgb(0, 0, 0);stroke-width:3.0;" d="M 538.575, 20.7037 L 520.351, 35.8649 L 435.728, 44.0451 L 430.693, 34.0371 L 462.268, 14.4456 z "/>
<path style="fill:rgb(249, 24, 255);fill-opacity:1.0;fill-rule:evenodd;stroke:rgb(0, 0, 0);stroke-width:3.0;" d="M 694.443, 192.599 L 667.368, 223.359 L 650.69, 220.933 L 652.957, 150.256 z "/>
<path style="fill:rgb(249, 24, 255);fill-opacity:1.0;fill-rule:evenodd;stroke:rgb(0, 0, 0);stroke-width:3.0;" d="M 189.818, 70.7671 L 226.037, 117.41 L 225.753, 117.295 L 180.666, 80.1818 L 186.645, 67.976 z "/>
<path style="fill:rgb(249, 24, 255);fill-opacity:1.0;fill-rule:evenodd;stroke:rgb(0, 0, 0);stroke-width:3.0;" d="M 154.272, 207.965 L 145.445, 224.428 L 85.9935, 224.632 L 89.1023, 204.366 z "/>
<path style="fill:rgb(249, 24, 255);fill-opacity:1.0;fill-rule:evenodd;stroke:rgb(0, 0, 0);stroke-width:3.0;" d="M 501.093, 128.89 L 465.495, 114.333 L 460.66, 105.241 L 461.2, 103.997 z "/>
<path style="fill:rgb(249, 24, 255);fill-opacity:1.0;fill-rule:evenodd;stroke:rgb(0, 0, 0);stroke-width:3.0;" d="M 128.282, 265.011 L 68.6517, 281.9 L 70.0789, 276.563 L 124.597, 253.342 z "/>
<path style="fill:rgb(249, 24, 255);fill-opacity:1.0;fill-rule:evenodd;stroke:rgb(0, 0, 0);stroke-width:3.0;" d="M 383.795, 579.41 L 375.224, 591.35 L 324.358, 581.154 L 337.595, 563.896 z "/>
<path style="fill:rgb(237, 25, 19);fill-opacity:1.0;fill-rule:evenodd;stroke:rgb(0, 0, 0);stroke-width:3.0;" d="M 292.452, 464.504 L 218.973, 449.846 L 340.678, 448.256 z "/>
<path style="fill:rgb(255, 255, 11);fill-opacity:1.0;fill-rule:evenodd;stroke:rgb(0, 0, 0);stroke-width:3.0;" d="M 311.028, 344.065 L 234.661, 342.65 L 238.168, 337.614 L 313.539, 333.492 z "/>
<path style="fill:rgb(255, 255, 11);fill-opacity:1.0;fill-rule:evenodd;stroke:rgb(0, 0, 0);stroke-width:3.0;" d="M 485.537, 113.251 L 488.331, 120.926 L 461.2, 103.997 L 466.741, 91.2417 z "/>
<path style="fill:rgb(168, 60, 33);fill-opacity:1.0;fill-rule:evenodd;stroke:rgb(0, 0, 0);stroke-width:3.0;" d="M 536.586, 34.3719 L 533.135, 44.9013 L 526.472, 45.2773 L 519.425, 36.6359 L 531.645, 26.4693 z "/>
<path style="fill:rgb(95, 121, 168);fill-opacity:1.0;fill-rule:evenodd;stroke:rgb(0, 0, 0);stroke-width:3.0;" d="M 413.68, 38.5334 L 395.809, 50.052 L 371.671, 43.9001 L 410.64, 33.1459 z "/>
<path style="fill:rgb(243, 255, 33);fill-opacity:1.0;fill-rule:evenodd;stroke:rgb(0, 0, 0);stroke-width:3.0;" d="M 262.653, 458.56 L 227.336, 476.528 L 160.239, 450.614 L 218.973, 449.846 z "/>
<path style="fill:rgb(243, 255, 33);fill-opacity:1.0;fill-rule:evenodd;stroke:rgb(0, 0, 0);stroke-width:3.0;" d="M 175.906, 483.461 L 145.508, 478.139 L 144.785, 471.387 z "/>
<path style="fill:rgb(243, 255, 33);fill-opacity:1.0;fill-rule:evenodd;stroke:rgb(0, 0, 0);stroke-width:3.0;" d="M 205.202, 557.272 L 191.089, 554.443 L 200.819, 542.221 z "/>
<path style="fill:rgb(255, 12, 17);fill-opacity:1.0;fill-rule:evenodd;stroke:rgb(0, 0, 0);stroke-width:3.0;" d="M 658.655, 380.784 L 650.452, 411.759 L 476.643, 337.429 z "/>
<path style="fill:rgb(255, 12, 17);fill-opacity:1.0;fill-rule:evenodd;stroke:rgb(0, 0, 0);stroke-width:3.0;" d="M 294.565, 464.926 L 242.924, 482.549 L 227.336, 476.528 L 262.653, 458.56 z "/>
<path style="fill:rgb(255, 10, 179);fill-opacity:1.0;fill-rule:evenodd;stroke:rgb(0, 0, 0);stroke-width:3.0;" d="M 78.9227, 243.487 L 6.64495, 249.127 L 7.29481, 238.473 L 26.6691, 224.835 L 83.9625, 224.639 z "/>
<path style="fill:rgb(255, 10, 179);fill-opacity:1.0;fill-rule:evenodd;stroke:rgb(0, 0, 0);stroke-width:3.0;" d="M 514.153, 91.8804 L 516.83, 94.6561 L 513.969, 103.386 L 489.768, 85.3815 z "/>
<path style="fill:rgb(231, 255, 21);fill-opacity:1.0;fill-rule:evenodd;stroke:rgb(0, 0, 0);stroke-width:3.0;" d="M 452.061, 50.0834 L 450.045, 56.0684 L 434.452, 60.7973 L 439.96, 50.1591 L 451.721, 49.4954 z "/>
<path style="fill:rgb(255, 255, 57);fill-opacity:1.0;fill-rule:evenodd;stroke:rgb(0, 0, 0);stroke-width:3.0;" d="M 509.698, 53.3548 L 501.194, 53.3602 L 490.337, 47.3164 L 517.226, 45.799 z "/>
<path style="fill:rgb(255, 255, 13);fill-opacity:1.0;fill-rule:evenodd;stroke:rgb(0, 0, 0);stroke-width:3.0;" d="M 22.9993, 227.418 L 7.38611, 236.977 L 8.12287, 224.898 L 26.6691, 224.835 z "/>
<path style="fill:rgb(255, 255, 13);fill-opacity:1.0;fill-rule:evenodd;stroke:rgb(0, 0, 0);stroke-width:3.0;" d="M 492.724, 435.818 L 491.602, 436.741 L 442.726, 435.044 L 461.399, 431.551 L 488.056, 429.04 z "/>
<path style="fill:rgb(255, 255, 13);fill-opacity:1.0;fill-rule:evenodd;stroke:rgb(0, 0, 0);stroke-width:3.0;" d="M 574.484, 197.988 L 570.352, 198.313 L 550.793, 186.009 L 557.52, 176.415 z "/>
<path style="fill:rgb(62, 246, 8);fill-opacity:1.0;fill-rule:evenodd;stroke:rgb(0, 0, 0);stroke-width:3.0;" d="M 341.864, 204.515 L 334.312, 206.654 L 277.173, 159.621 L 277.207, 147.639 z "/>
<path style="fill:rgb(62, 246, 8);fill-opacity:1.0;fill-rule:evenodd;stroke:rgb(0, 0, 0);stroke-width:3.0;" d="M 208.783, 489.217 L 226.058, 503.613 L 194.666, 521.092 L 184.126, 484.9 z "/>
<path style="fill:rgb(62, 246, 8);fill-opacity:1.0;fill-rule:evenodd;stroke:rgb(0, 0, 0);stroke-width:3.0;" d="M 424.146, 57.0866 L 403.362, 45.1836 L 413.68, 38.5334 z "/>
<path style="fill:rgb(255, 246, 14);fill-opacity:1.0;fill-rule:evenodd;stroke:rgb(0, 0, 0);stroke-width:3.0;" d="M 434.839, 60.0502 L 434.452, 60.7973 L 427.439, 62.9241 L 420.847, 51.2377 L 432.906, 50.5572 z "/>
<path style="fill:rgb(255, 252, 33);fill-opacity:1.0;fill-rule:evenodd;stroke:rgb(0, 0, 0);stroke-width:3.0;" d="M 502.983, 348.693 L 525.209, 358.198 L 532.88, 445.744 L 522.537, 445.879 L 430.334, 327.103 L 439.62, 326.595 z "/>
<path style="fill:rgb(52, 187, 255);fill-opacity:1.0;fill-rule:evenodd;stroke:rgb(0, 0, 0);stroke-width:3.0;" d="M 299.959, 505.18 L 218.432, 490.907 L 275.601, 471.398 z "/>
<path style="fill:rgb(52, 187, 255);fill-opacity:1.0;fill-rule:evenodd;stroke:rgb(0, 0, 0);stroke-width:3.0;" d="M 724.076, 443.245 L 532.88, 445.744 L 525.209, 358.198 z "/>
<path style="fill:rgb(249, 255, 18);fill-opacity:1.0;fill-rule:evenodd;stroke:rgb(0, 0, 0);stroke-width:3.0;" d="M 790.226, 470.662 L 793.938, 484.946 L 784.86, 481.461 L 781.817, 468.791 L 783.324, 466.838 z "/>
<path style="fill:rgb(249, 255, 18);fill-opacity:1.0;fill-rule:evenodd;stroke:rgb(0, 0, 0);stroke-width:3.0;" d="M 480.769, 536.836 L 532.578, 545.906 L 544.671, 557.005 L 544.501, 558.055 L 383.205, 537.331 L 387.484, 535.575 z "/>
<path style="fill:rgb(249, 255, 18);fill-opacity:1.0;fill-rule:evenodd;stroke:rgb(0, 0, 0);stroke-width:3.0;" d="M 617.912, 316.843 L 504.267, 323.059 L 554.325, 251.88 z "/>
<path style="fill:rgb(249, 255, 18);fill-opacity:1.0;fill-rule:evenodd;stroke:rgb(0, 0, 0);stroke-width:3.0;" d="M 182.374, 212.735 L 161.351, 224.374 L 145.445, 224.428 L 147.516, 220.567 L 161.857, 206.955 z "/>
<path style="fill:rgb(249, 255, 18);fill-opacity:1.0;fill-rule:evenodd;stroke:rgb(0, 0, 0);stroke-width:3.0;" d="M 462.655, 86.404 L 450.123, 96.9527 L 448.901, 78.9591 L 459.378, 70.075 z "/>
<path style="fill:rgb(249, 255, 18);fill-opacity:1.0;fill-rule:evenodd;stroke:rgb(0, 0, 0);stroke-width:3.0;" d="M 229.467, 538.554 L 228.65, 546.848 L 200.46, 540.988 L 197.821, 531.926 z "/>
<path style="fill:rgb(98, 243, 14);fill-opacity:1.0;fill-rule:evenodd;stroke:rgb(0, 0, 0);stroke-width:3.0;" d="M 92.0013, 231.358 L 74.9194, 258.46 L 83.4935, 226.393 z "/>
<path style="fill:rgb(243, 163, 108);fill-opacity:1.0;fill-rule:evenodd;stroke:rgb(0, 0, 0);stroke-width:3.0;" d="M 576.46, 149.404 L 529.788, 172.795 L 512.912, 162.179 L 579.696, 144.788 z "/>
<path style="fill:rgb(243, 163, 108);fill-opacity:1.0;fill-rule:evenodd;stroke:rgb(0, 0, 0);stroke-width:3.0;" d="M 731.714, 580.77 L 697.275, 574.741 L 647.769, 462.264 z "/>
<path style="fill:rgb(7, 187, 108);fill-opacity:1.0;fill-rule:evenodd;stroke:rgb(0, 0, 0);stroke-width:3.0;" d="M 501.093, 128.89 L 502.408, 129.711 L 479.462, 136.991 L 463.943, 127.632 L 456.593, 114.602 L 458.035, 111.283 z "/>
<path style="fill:rgb(7, 187, 108);fill-opacity:1.0;fill-rule:evenodd;stroke:rgb(0, 0, 0);stroke-width:3.0;" d="M 107.409, 454.153 L 110.026, 458.247 L 103.47, 463.316 L 86.435, 458.941 L 85.7522, 453.505 z "/>
<path style="fill:rgb(7, 187, 108);fill-opacity:1.0;fill-rule:evenodd;stroke:rgb(0, 0, 0);stroke-width:3.0;" d="M 695.871, 200.64 L 690.171, 220.402 L 677.762, 211.55 L 688.769, 199.045 z "/>
<path style="fill:rgb(7, 187, 108);fill-opacity:1.0;fill-rule:evenodd;stroke:rgb(0, 0, 0);stroke-width:3.0;" d="M 437.258, 446.993 L 388.632, 447.629 L 371.649, 397.286 L 371.725, 397.223 L 425.592, 395.184 z "/>
<path style="fill:rgb(7, 187, 108);fill-opacity:1.0;fill-rule:evenodd;stroke:rgb(0, 0, 0);stroke-width:3.0;" d="M 697.275, 574.741 L 653.328, 567.047 L 672.718, 518.947 z "/>
<path style="fill:rgb(255, 240, 19);fill-opacity:1.0;fill-rule:evenodd;stroke:rgb(0, 0, 0);stroke-width:3.0;" d="M 607.629, 170.093 L 595.361, 186.663 L 590.285, 172.854 L 593.226, 167.796 L 603.093, 165.926 z "/>
<path style="fill:rgb(27, 243, 255);fill-opacity:1.0;fill-rule:evenodd;stroke:rgb(0, 0, 0);stroke-width:3.0;" d="M 439.744, 500.701 L 402.03, 447.454 L 511.035, 446.029 z "/>
<path style="fill:rgb(100, 138, 255);fill-opacity:1.0;fill-rule:evenodd;stroke:rgb(0, 0, 0);stroke-width:3.0;" d="M 194.566, 74.9441 L 243.947, 124.634 L 226.037, 117.41 L 189.818, 70.7671 z "/>
<path style="fill:rgb(100, 138, 255);fill-opacity:1.0;fill-rule:evenodd;stroke:rgb(0, 0, 0);stroke-width:3.0;" d="M 158.515, 225.632 L 167.307, 233.397 L 179.045, 245.04 L 177.488, 246.082 L 169.644, 243.292 L 151.011, 225.049 z "/>
<path style="fill:rgb(100, 138, 255);fill-opacity:1.0;fill-rule:evenodd;stroke:rgb(0, 0, 0);stroke-width:3.0;" d="M 608.694, 190.831 L 607.344, 198.628 L 601.098, 202.27 L 597.622, 192.812 L 603.38, 186.903 z "/>
<path style="fill:rgb(100, 138, 255);fill-opacity:1.0;fill-rule:evenodd;stroke:rgb(0, 0, 0);stroke-width:3.0;" d="M 710.635, 469.405 L 660.97, 480.778 L 660.744, 480.581 L 635.12, 444.407 L 651.786, 444.19 z "/>
<path style="fill:rgb(255, 119, 255);fill-opacity:1.0;fill-rule:evenodd;stroke:rgb(0, 0, 0);stroke-width:3.0;" d="M 748.654, 131.008 L 694.443, 192.599 L 652.957, 150.256 L 654.053, 116.09 L 713.791, 99.1701 z "/>
<path style="fill:rgb(255, 220, 7);fill-opacity:1.0;fill-rule:evenodd;stroke:rgb(0, 0, 0);stroke-width:3.0;" d="M 329.953, 148.828 L 301.581, 159.776 L 308.944, 147.011 z "/>
<path style="fill:rgb(128, 197, 246);fill-opacity:1.0;fill-rule:evenodd;stroke:rgb(0, 0, 0);stroke-width:3.0;" d="M 308.944, 147.011 L 301.581, 159.776 L 294.23, 162.614 L 272.956, 143.9 z "/>
<path style="fill:rgb(249, 237, 43);fill-opacity:1.0;fill-rule:evenodd;stroke:rgb(0, 0, 0);stroke-width:3.0;" d="M 261.764, 553.732 L 245.502, 565.349 L 242.099, 564.667 L 237.07, 560.723 L 234.578, 548.08 z "/>
<path style="fill:rgb(249, 237, 43);fill-opacity:1.0;fill-rule:evenodd;stroke:rgb(0, 0, 0);stroke-width:3.0;" d="M 203.79, 467.434 L 190.897, 477.506 L 180.286, 480.823 L 153.645, 450.7 L 160.239, 450.614 z "/>
<path style="fill:rgb(249, 237, 43);fill-opacity:1.0;fill-rule:evenodd;stroke:rgb(0, 0, 0);stroke-width:3.0;" d="M 462.231, 14.4425 L 441.375, 25.2113 L 425.34, 23.3989 L 419.052, 10.9013 z "/>
<path style="fill:rgb(255, 60, 240);fill-opacity:1.0;fill-rule:evenodd;stroke:rgb(0, 0, 0);stroke-width:3.0;" d="M 690.171, 220.402 L 688.434, 226.423 L 667.368, 223.359 L 677.762, 211.55 z "/>
<path style="fill:rgb(255, 60, 240);fill-opacity:1.0;fill-rule:evenodd;stroke:rgb(0, 0, 0);stroke-width:3.0;" d="M 95.1584, 237.524 L 100.358, 244.932 L 85.3147, 260.158 L 84.2022, 249.972 L 93.0446, 236.856 z "/>
<path style="fill:rgb(94, 187, 255);fill-opacity:1.0;fill-rule:evenodd;stroke:rgb(0, 0, 0);stroke-width:3.0;" d="M 602.374, 577.905 L 577.338, 586.989 L 575.061, 584.899 L 590.564, 567.907 z "/>
<path style="fill:rgb(179, 0, 255);fill-opacity:1.0;fill-rule:evenodd;stroke:rgb(0, 0, 0);stroke-width:3.0;" d="M 440.036, 339.601 L 435.412, 351.389 L 411.851, 334.166 L 410.505, 328.188 L 430.334, 327.103 z "/>
<path style="fill:rgb(179, 0, 255);fill-opacity:1.0;fill-rule:evenodd;stroke:rgb(0, 0, 0);stroke-width:3.0;" d="M 530.89, 197.559 L 536.887, 204.383 L 490.401, 197.622 L 492.262, 174.181 z "/>
<path style="fill:rgb(255, 252, 177);fill-opacity:1.0;fill-rule:evenodd;stroke:rgb(0, 0, 0);stroke-width:3.0;" d="M 765.064, 145.993 L 769.548, 173.269 L 767.105, 175.378 L 751.638, 137.132 L 751.752, 133.837 z "/>
<path style="fill:rgb(255, 252, 177);fill-opacity:1.0;fill-rule:evenodd;stroke:rgb(0, 0, 0);stroke-width:3.0;" d="M 504.844, 131.231 L 490.984, 122.582 L 513.724, 104.134 z "/>
<path style="fill:rgb(255, 3, 11);fill-opacity:1.0;fill-rule:evenodd;stroke:rgb(0, 0, 0);stroke-width:3.0;" d="M 73.0781, 265.346 L 64.1698, 263.318 L 68.4898, 253.044 L 78.1842, 246.249 z "/>
<path style="fill:rgb(255, 3, 11);fill-opacity:1.0;fill-rule:evenodd;stroke:rgb(0, 0, 0);stroke-width:3.0;" d="M 275.16, 141.262 L 270.844, 142.042 L 259.023, 131.644 L 269.24, 124.736 L 272.604, 124.385 z "/>
<path style="fill:rgb(255, 3, 11);fill-opacity:1.0;fill-rule:evenodd;stroke:rgb(0, 0, 0);stroke-width:3.0;" d="M 626.216, 217.374 L 614.061, 226.458 L 396.897, 256.021 L 459.287, 193.097 z "/>
<path style="fill:rgb(217, 3, 255);fill-opacity:1.0;fill-rule:evenodd;stroke:rgb(0, 0, 0);stroke-width:3.0;" d="M 257.368, 544.397 L 264.72, 554.346 L 237.514, 548.69 L 236.011, 539.924 z "/>
<path style="fill:rgb(217, 3, 255);fill-opacity:1.0;fill-rule:evenodd;stroke:rgb(0, 0, 0);stroke-width:3.0;" d="M 116.511, 463.645 L 105.52, 451.329 L 126.089, 451.06 z "/>
<path style="fill:rgb(249, 5, 255);fill-opacity:1.0;fill-rule:evenodd;stroke:rgb(0, 0, 0);stroke-width:3.0;" d="M 518.626, 440.842 L 519.847, 445.914 L 504.498, 446.115 L 487.933, 426.588 L 505.073, 423.382 z "/>
<path style="fill:rgb(234, 7, 9);fill-opacity:1.0;fill-rule:evenodd;stroke:rgb(0, 0, 0);stroke-width:3.0;" d="M 164.532, 22.7607 L 159.901, 30.8289 L 138.891, 31.7445 L 137.065, 30.7343 L 137.285, 17.4143 z "/>
<path style="fill:rgb(234, 7, 9);fill-opacity:1.0;fill-rule:evenodd;stroke:rgb(0, 0, 0);stroke-width:3.0;" d="M 491.602, 436.741 L 483.01, 443.815 L 434.912, 436.573 L 434.897, 436.509 L 442.726, 435.044 z "/>
<path style="fill:rgb(234, 7, 9);fill-opacity:1.0;fill-rule:evenodd;stroke:rgb(0, 0, 0);stroke-width:3.0;" d="M 614.077, 573.923 L 620.955, 587.526 L 621.16, 589.259 L 620.003, 592.831 L 599.344, 575.341 L 600.246, 570.129 z "/>
<path style="fill:rgb(246, 22, 182);fill-opacity:1.0;fill-rule:evenodd;stroke:rgb(0, 0, 0);stroke-width:3.0;" d="M 748.415, 191.51 L 729.176, 208.116 L 721.823, 206.466 L 717.954, 165.887 L 720.709, 162.757 z "/>
<path style="fill:rgb(246, 22, 182);fill-opacity:1.0;fill-rule:evenodd;stroke:rgb(0, 0, 0);stroke-width:3.0;" d="M 652.504, 164.386 L 635.328, 208.905 L 605.453, 209.548 L 619.965, 125.746 L 654.053, 116.09 z "/>
<path style="fill:rgb(252, 252, 60);fill-opacity:1.0;fill-rule:evenodd;stroke:rgb(0, 0, 0);stroke-width:3.0;" d="M 660.93, 548.19 L 653.328, 567.047 L 472.739, 535.43 L 457.786, 526.174 L 439.744, 500.701 L 511.035, 446.029 L 576.907, 445.168 z "/>
<path style="fill:rgb(152, 226, 255);fill-opacity:1.0;fill-rule:evenodd;stroke:rgb(0, 0, 0);stroke-width:3.0;" d="M 483.233, 80.5197 L 478.72, 94.5208 L 472.61, 77.7313 L 474.289, 73.8659 z "/>
<path style="fill:rgb(152, 226, 255);fill-opacity:1.0;fill-rule:evenodd;stroke:rgb(0, 0, 0);stroke-width:3.0;" d="M 647.769, 462.264 L 672.718, 518.947 L 660.93, 548.19 L 576.907, 445.168 L 635.12, 444.407 z "/>
<path style="fill:rgb(192, 21, 207);fill-opacity:1.0;fill-rule:evenodd;stroke:rgb(0, 0, 0);stroke-width:3.0;" d="M 467.258, 374.669 L 463.259, 371.746 L 438.362, 343.868 L 440.036, 339.601 z "/>
<path style="fill:rgb(192, 21, 207);fill-opacity:1.0;fill-rule:evenodd;stroke:rgb(0, 0, 0);stroke-width:3.0;" d="M 598.515, 142.429 L 596.649, 153.314 L 589.753, 150.839 L 581.697, 144.267 L 594.47, 140.941 z "/>
<path style="fill:rgb(252, 243, 20);fill-opacity:1.0;fill-rule:evenodd;stroke:rgb(0, 0, 0);stroke-width:3.0;" d="M 311.028, 344.065 L 286.117, 448.969 L 193.589, 450.178 L 129.274, 343.571 L 168.51, 341.425 z "/>
<path style="fill:rgb(255, 255, 18);fill-opacity:1.0;fill-rule:evenodd;stroke:rgb(0, 0, 0);stroke-width:3.0;" d="M 274.351, 556.348 L 266.501, 569.558 L 245.502, 565.349 L 261.764, 553.732 z "/>
<path style="fill:rgb(255, 255, 18);fill-opacity:1.0;fill-rule:evenodd;stroke:rgb(0, 0, 0);stroke-width:3.0;" d="M 266.806, 543.01 L 270.669, 547.183 L 212.167, 534.931 L 224.04, 517.763 z "/>
<path style="fill:rgb(255, 255, 18);fill-opacity:1.0;fill-rule:evenodd;stroke:rgb(0, 0, 0);stroke-width:3.0;" d="M 154.15, 228.123 L 163.141, 236.925 L 106.373, 261.104 L 83.557, 261.937 L 120.531, 224.514 L 144.133, 224.433 z "/>
<path style="fill:rgb(255, 252, 40);fill-opacity:1.0;fill-rule:evenodd;stroke:rgb(0, 0, 0);stroke-width:3.0;" d="M 652.6, 221.211 L 624.352, 225.057 L 620.443, 221.688 L 626.216, 217.374 z "/>
<path style="fill:rgb(255, 0, 7);fill-opacity:1.0;fill-rule:evenodd;stroke:rgb(0, 0, 0);stroke-width:3.0;" d="M 474.417, 178.133 L 462.91, 186.404 L 459.467, 187.05 L 436.672, 184.164 L 460.13, 171.017 L 476.875, 166.275 z "/>
<path style="fill:rgb(226, 62, 28);fill-opacity:1.0;fill-rule:evenodd;stroke:rgb(0, 0, 0);stroke-width:3.0;" d="M 328.154, 576.205 L 324.358, 581.154 L 297.56, 575.783 L 325.266, 568.942 z "/>
<path style="fill:rgb(192, 19, 55);fill-opacity:1.0;fill-rule:evenodd;stroke:rgb(0, 0, 0);stroke-width:3.0;" d="M 257.073, 129.928 L 277.207, 147.639 L 277.173, 159.621 L 263.382, 148.269 L 251.373, 127.629 z "/>
<path style="fill:rgb(228, 179, 14);fill-opacity:1.0;fill-rule:evenodd;stroke:rgb(0, 0, 0);stroke-width:3.0;" d="M 651.047, 209.809 L 645.958, 208.25 L 649.915, 171.098 L 652.504, 164.386 z "/>
<path style="fill:rgb(255, 25, 192);fill-opacity:1.0;fill-rule:evenodd;stroke:rgb(0, 0, 0);stroke-width:3.0;" d="M 81.5359, 271.683 L 77.9607, 267.601 L 83.557, 261.937 L 106.373, 261.104 z "/>
<path style="fill:rgb(252, 50, 25);fill-opacity:1.0;fill-rule:evenodd;stroke:rgb(0, 0, 0);stroke-width:3.0;" d="M 85.6951, 204.178 L 78.7694, 224.657 L 9.55417, 224.893 L 37.392, 201.51 z "/>
<path style="fill:rgb(252, 55, 28);fill-opacity:1.0;fill-rule:evenodd;stroke:rgb(0, 0, 0);stroke-width:3.0;" d="M 58.0189, 454.344 L 58.6185, 456.607 L 43.4404, 460.27 L 28.4955, 457.653 L 25.958, 452.369 L 42.8193, 452.149 z "/>
<path style="fill:rgb(21, 2, 243);fill-opacity:1.0;fill-rule:evenodd;stroke:rgb(0, 0, 0);stroke-width:3.0;" d="M 513.969, 103.386 L 513.724, 104.134 L 490.984, 122.582 L 488.331, 120.926 L 478.72, 94.5208 L 483.233, 80.5197 z "/>
<path style="fill:rgb(21, 2, 243);fill-opacity:1.0;fill-rule:evenodd;stroke:rgb(0, 0, 0);stroke-width:3.0;" d="M 290.83, 122.482 L 258.235, 125.885 L 268.491, 110.226 z "/>
<path style="fill:rgb(50, 255, 33);fill-opacity:1.0;fill-rule:evenodd;stroke:rgb(0, 0, 0);stroke-width:3.0;" d="M 748.092, 485.454 L 743.647, 483.55 L 697.349, 443.594 L 701.911, 443.534 z "/>
<path style="fill:rgb(50, 255, 33);fill-opacity:1.0;fill-rule:evenodd;stroke:rgb(0, 0, 0);stroke-width:3.0;" d="M 127.773, 25.5926 L 128.155, 27.7428 L 121.346, 31.3533 L 101.089, 14.6788 L 99.7684, 10.0958 z "/>
<path style="fill:rgb(246, 255, 11);fill-opacity:1.0;fill-rule:evenodd;stroke:rgb(0, 0, 0);stroke-width:3.0;" d="M 317.632, 137.471 L 317.809, 141.183 L 308.142, 146.942 L 299.416, 146.188 L 298.741, 137.003 L 310.315, 134.912 z "/>
<path style="fill:rgb(246, 255, 11);fill-opacity:1.0;fill-rule:evenodd;stroke:rgb(0, 0, 0);stroke-width:3.0;" d="M 223.239, 342.439 L 168.51, 341.425 L 229.044, 338.113 z "/>
<path style="fill:rgb(246, 255, 11);fill-opacity:1.0;fill-rule:evenodd;stroke:rgb(0, 0, 0);stroke-width:3.0;" d="M 786.914, 446.427 L 776.22, 451.183 L 763.606, 444.981 L 764.825, 442.712 L 774.859, 442.581 z "/>
<path style="fill:rgb(243, 255, 19);fill-opacity:1.0;fill-rule:evenodd;stroke:rgb(0, 0, 0);stroke-width:3.0;" d="M 238.77, 113.828 L 235.699, 116.334 L 194.566, 74.9441 z "/>
<path style="fill:rgb(255, 67, 36);fill-opacity:1.0;fill-rule:evenodd;stroke:rgb(0, 0, 0);stroke-width:3.0;" d="M 289.545, 556.518 L 286.8, 558.936 L 280.298, 557.584 L 251.367, 526.333 L 252.54, 525.681 z "/>
<path style="fill:rgb(217, 159, 9);fill-opacity:1.0;fill-rule:evenodd;stroke:rgb(0, 0, 0);stroke-width:3.0;" d="M 793.18, 222.485 L 793.937, 225.9 L 747.688, 213.982 L 747.81, 212.3 z "/>
<path style="fill:rgb(217, 159, 9);fill-opacity:1.0;fill-rule:evenodd;stroke:rgb(0, 0, 0);stroke-width:3.0;" d="M 535.25, 179.373 L 524.232, 189.983 L 519.779, 184.916 L 524.317, 176.096 L 524.358, 176.054 z "/>
<path style="fill:rgb(243, 12, 11);fill-opacity:1.0;fill-rule:evenodd;stroke:rgb(0, 0, 0);stroke-width:3.0;" d="M 767.064, 175.277 L 750.444, 171.558 L 751.638, 137.132 z "/>
<path style="fill:rgb(243, 12, 11);fill-opacity:1.0;fill-rule:evenodd;stroke:rgb(0, 0, 0);stroke-width:3.0;" d="M 154.366, 454.71 L 158.403, 456.08 L 178.085, 478.334 L 174.026, 482.732 L 159.499, 477.096 L 149.908, 454.174 L 150.138, 453.722 z "/>
<path style="fill:rgb(243, 12, 11);fill-opacity:1.0;fill-rule:evenodd;stroke:rgb(0, 0, 0);stroke-width:3.0;" d="M 418.576, 535.995 L 387.484, 535.575 L 410.859, 525.98 z "/>
<path style="fill:rgb(243, 12, 11);fill-opacity:1.0;fill-rule:evenodd;stroke:rgb(0, 0, 0);stroke-width:3.0;" d="M 242.924, 482.549 L 218.432, 490.907 L 197.581, 487.256 L 220.72, 473.973 z "/>
<path style="fill:rgb(243, 12, 11);fill-opacity:1.0;fill-rule:evenodd;stroke:rgb(0, 0, 0);stroke-width:3.0;" d="M 692.256, 501.202 L 690.552, 500.918 L 679.301, 496.793 L 660.97, 480.778 L 673.53, 477.902 z "/>
<path style="fill:rgb(243, 12, 11);fill-opacity:1.0;fill-rule:evenodd;stroke:rgb(0, 0, 0);stroke-width:3.0;" d="M 388.632, 447.629 L 308.647, 448.674 L 371.649, 397.286 z "/>
<path style="fill:rgb(243, 12, 11);fill-opacity:1.0;fill-rule:evenodd;stroke:rgb(0, 0, 0);stroke-width:3.0;" d="M 480.769, 536.836 L 436.582, 536.238 L 411.211, 525.836 L 413.223, 525.01 z "/>
<path style="fill:rgb(255, 255, 11);fill-opacity:1.0;fill-rule:evenodd;stroke:rgb(0, 0, 0);stroke-width:3.0;" d="M 204.201, 218.885 L 205.756, 224.222 L 161.351, 224.374 L 182.374, 212.735 z "/>
<path style="fill:rgb(44, 202, 207);fill-opacity:1.0;fill-rule:evenodd;stroke:rgb(0, 0, 0);stroke-width:3.0;" d="M 425.085, 22.8916 L 430.561, 33.7755 L 424.729, 36.5885 L 414.911, 15.9368 z "/>
<path style="fill:rgb(223, 3, 12);fill-opacity:1.0;fill-rule:evenodd;stroke:rgb(0, 0, 0);stroke-width:3.0;" d="M 286.8, 558.936 L 273.214, 570.904 L 266.501, 569.558 L 274.351, 556.348 z "/>
<path style="fill:rgb(184, 94, 226);fill-opacity:1.0;fill-rule:evenodd;stroke:rgb(0, 0, 0);stroke-width:3.0;" d="M 174.435, 240.467 L 158.222, 224.385 L 181.976, 224.303 z "/>
<path style="fill:rgb(182, 249, 10);fill-opacity:1.0;fill-rule:evenodd;stroke:rgb(0, 0, 0);stroke-width:3.0;" d="M 227.699, 504.981 L 207.883, 534.034 L 197.821, 531.926 L 194.666, 521.092 L 226.058, 503.613 z "/>
<path style="fill:rgb(10, 212, 255);fill-opacity:1.0;fill-rule:evenodd;stroke:rgb(0, 0, 0);stroke-width:3.0;" d="M 370.453, 590.393 L 375.345, 594.689 L 303.248, 576.923 z "/>
<path style="fill:rgb(10, 212, 255);fill-opacity:1.0;fill-rule:evenodd;stroke:rgb(0, 0, 0);stroke-width:3.0;" d="M 159.499, 477.096 L 144.785, 471.387 L 144.15, 465.456 L 149.908, 454.174 z "/>
<path style="fill:rgb(231, 21, 148);fill-opacity:1.0;fill-rule:evenodd;stroke:rgb(0, 0, 0);stroke-width:3.0;" d="M 312.701, 134.481 L 302.131, 136.39 L 289.128, 125.372 L 288.105, 122.767 L 290.83, 122.482 z "/>
<path style="fill:rgb(21, 154, 82);fill-opacity:1.0;fill-rule:evenodd;stroke:rgb(0, 0, 0);stroke-width:3.0;" d="M 201.3, 32.564 L 205.943, 36.49 L 186.805, 58.2582 L 183.987, 56.6991 L 178.019, 36.0793 L 186.423, 28.4868 z "/>
<path style="fill:rgb(255, 3, 255);fill-opacity:1.0;fill-rule:evenodd;stroke:rgb(0, 0, 0);stroke-width:3.0;" d="M 140.308, 577.361 L 78.4017, 591.278 L 126.835, 564.49 z "/>
<path style="fill:rgb(255, 3, 255);fill-opacity:1.0;fill-rule:evenodd;stroke:rgb(0, 0, 0);stroke-width:3.0;" d="M 203.127, 241.359 L 176.467, 249.973 L 174.521, 248.067 L 199.368, 231.443 z "/>
<path style="fill:rgb(255, 3, 255);fill-opacity:1.0;fill-rule:evenodd;stroke:rgb(0, 0, 0);stroke-width:3.0;" d="M 647.965, 215.412 L 640.46, 217.088 L 635.216, 209.196 L 640.308, 195.996 z "/>
<path style="fill:rgb(209, 150, 10);fill-opacity:1.0;fill-rule:evenodd;stroke:rgb(0, 0, 0);stroke-width:3.0;" d="M 467.258, 374.669 L 470.186, 378.441 L 475.747, 428.867 L 434.897, 436.509 L 411.851, 334.166 z "/>
<path style="fill:rgb(255, 24, 117);fill-opacity:1.0;fill-rule:evenodd;stroke:rgb(0, 0, 0);stroke-width:3.0;" d="M 505.073, 423.382 L 475.747, 428.867 L 470.186, 378.441 z "/>
<path style="fill:rgb(197, 237, 246);fill-opacity:1.0;fill-rule:evenodd;stroke:rgb(0, 0, 0);stroke-width:3.0;" d="M 376.47, 364.858 L 304.183, 372.892 L 311.779, 340.903 L 332.75, 337.811 z "/>
<path style="fill:rgb(197, 237, 246);fill-opacity:1.0;fill-rule:evenodd;stroke:rgb(0, 0, 0);stroke-width:3.0;" d="M 234.578, 548.08 L 237.07, 560.723 L 216.033, 544.225 z "/>
<path style="fill:rgb(240, 49, 192);fill-opacity:1.0;fill-rule:evenodd;stroke:rgb(0, 0, 0);stroke-width:3.0;" d="M 776.295, 413.505 L 658.366, 381.874 L 676.437, 313.641 L 767.001, 308.688 z "/>
<path style="fill:rgb(240, 49, 192);fill-opacity:1.0;fill-rule:evenodd;stroke:rgb(0, 0, 0);stroke-width:3.0;" d="M 743.647, 483.55 L 671.412, 452.599 L 674.224, 443.896 L 697.349, 443.594 z "/>
<path style="fill:rgb(255, 252, 24);fill-opacity:1.0;fill-rule:evenodd;stroke:rgb(0, 0, 0);stroke-width:3.0;" d="M 315.036, 180.916 L 294.23, 162.614 L 306.696, 157.803 z "/>
<path style="fill:rgb(52, 255, 7);fill-opacity:1.0;fill-rule:evenodd;stroke:rgb(0, 0, 0);stroke-width:3.0;" d="M 588.42, 176.06 L 575.724, 197.89 L 574.484, 197.988 L 563.991, 184.644 L 580.246, 168.151 z "/>
<path style="fill:rgb(52, 255, 7);fill-opacity:1.0;fill-rule:evenodd;stroke:rgb(0, 0, 0);stroke-width:3.0;" d="M 751.215, 448.727 L 752.221, 461.025 L 737.541, 461.584 L 728.469, 454.218 L 739.357, 446.128 z "/>
<path style="fill:rgb(52, 255, 7);fill-opacity:1.0;fill-rule:evenodd;stroke:rgb(0, 0, 0);stroke-width:3.0;" d="M 406.82, 186.117 L 341.864, 204.515 L 315.036, 180.916 L 306.696, 157.803 L 335.176, 146.812 z "/>
<path style="fill:rgb(177, 237, 220);fill-opacity:1.0;fill-rule:evenodd;stroke:rgb(0, 0, 0);stroke-width:3.0;" d="M 425.592, 395.184 L 371.725, 397.223 L 416.917, 360.362 L 417.73, 360.272 z "/>
<path style="fill:rgb(177, 237, 220);fill-opacity:1.0;fill-rule:evenodd;stroke:rgb(0, 0, 0);stroke-width:3.0;" d="M 451.056, 439.004 L 448.033, 446.853 L 437.258, 446.993 L 434.912, 436.573 z "/>
<path style="fill:rgb(255, 58, 154);fill-opacity:1.0;fill-rule:evenodd;stroke:rgb(0, 0, 0);stroke-width:3.0;" d="M 308.647, 448.674 L 286.117, 448.969 L 304.183, 372.892 L 416.917, 360.362 z "/>
<path style="fill:rgb(255, 58, 154);fill-opacity:1.0;fill-rule:evenodd;stroke:rgb(0, 0, 0);stroke-width:3.0;" d="M 220.72, 473.973 L 197.581, 487.256 L 183.849, 484.852 L 180.286, 480.823 L 212.436, 470.774 z "/>
<path style="fill:rgb(255, 58, 154);fill-opacity:1.0;fill-rule:evenodd;stroke:rgb(0, 0, 0);stroke-width:3.0;" d="M 73.0781, 265.346 L 68.6517, 281.9 L 54.6933, 285.854 L 64.1698, 263.318 z "/>
<path style="fill:rgb(255, 134, 6);fill-opacity:1.0;fill-rule:evenodd;stroke:rgb(0, 0, 0);stroke-width:3.0;" d="M 412.869, 360.812 L 376.47, 364.858 L 332.75, 337.811 L 385.142, 330.088 z "/>
<path style="fill:rgb(255, 134, 6);fill-opacity:1.0;fill-rule:evenodd;stroke:rgb(0, 0, 0);stroke-width:3.0;" d="M 751.752, 133.837 L 749.793, 190.321 L 748.415, 191.51 L 720.709, 162.757 L 748.654, 131.008 z "/>
<path style="fill:rgb(255, 48, 20);fill-opacity:1.0;fill-rule:evenodd;stroke:rgb(0, 0, 0);stroke-width:3.0;" d="M 634.179, 211.882 L 631.75, 218.179 L 604.641, 214.236 L 605.453, 209.548 L 625.315, 209.12 z "/>
<path style="fill:rgb(255, 48, 20);fill-opacity:1.0;fill-rule:evenodd;stroke:rgb(0, 0, 0);stroke-width:3.0;" d="M 230.986, 507.72 L 212.167, 534.931 L 207.883, 534.034 L 227.699, 504.981 z "/>
<path style="fill:rgb(255, 212, 13);fill-opacity:1.0;fill-rule:evenodd;stroke:rgb(0, 0, 0);stroke-width:3.0;" d="M 478.126, 92.8866 L 483.189, 106.799 L 478.346, 104.831 L 466.741, 91.2417 L 467.762, 88.8919 z "/>
<path style="fill:rgb(42, 21, 255);fill-opacity:1.0;fill-rule:evenodd;stroke:rgb(0, 0, 0);stroke-width:3.0;" d="M 138.053, 543.813 L 54.9313, 576.978 L 38.792, 523.918 z "/>
<path style="fill:rgb(50, 255, 33);fill-opacity:1.0;fill-rule:evenodd;stroke:rgb(0, 0, 0);stroke-width:3.0;" d="M 572.92, 552.969 L 583.564, 561.981 L 584.532, 574.518 L 575.061, 584.899 L 565.828, 576.424 L 554.658, 549.772 z "/>
<path style="fill:rgb(243, 29, 10);fill-opacity:1.0;fill-rule:evenodd;stroke:rgb(0, 0, 0);stroke-width:3.0;" d="M 522.421, 187.922 L 523.052, 192.815 L 517.067, 189.193 L 492.853, 165.619 L 499.798, 162.181 z "/>
<path style="fill:rgb(243, 252, 7);fill-opacity:1.0;fill-rule:evenodd;stroke:rgb(0, 0, 0);stroke-width:3.0;" d="M 218.135, 559.864 L 140.308, 577.361 L 126.835, 564.49 L 157.26, 547.663 z "/>
<path style="fill:rgb(199, 179, 175);fill-opacity:1.0;fill-rule:evenodd;stroke:rgb(0, 0, 0);stroke-width:3.0;" d="M 600.785, 154.799 L 588.42, 176.06 L 580.246, 168.151 L 595.333, 152.842 z "/>
<path style="fill:rgb(42, 48, 249);fill-opacity:1.0;fill-rule:evenodd;stroke:rgb(0, 0, 0);stroke-width:3.0;" d="M 763.536, 482.692 L 742.951, 465.977 L 767.437, 455.089 z "/>
<path style="fill:rgb(42, 48, 249);fill-opacity:1.0;fill-rule:evenodd;stroke:rgb(0, 0, 0);stroke-width:3.0;" d="M 550.793, 186.009 L 529.788, 172.795 L 576.46, 149.404 z "/>
<path style="fill:rgb(255, 249, 72);fill-opacity:1.0;fill-rule:evenodd;stroke:rgb(0, 0, 0);stroke-width:3.0;" d="M 786.371, 590.339 L 739.74, 582.175 L 770.998, 576.908 z "/>
<path style="fill:rgb(71, 39, 237);fill-opacity:1.0;fill-rule:evenodd;stroke:rgb(0, 0, 0);stroke-width:3.0;" d="M 218.533, 22.17 L 207.823, 34.3517 L 202.9, 33.0027 L 188.318, 16.9524 L 205.113, 13.6305 z "/>
<path style="fill:rgb(71, 39, 237);fill-opacity:1.0;fill-rule:evenodd;stroke:rgb(0, 0, 0);stroke-width:3.0;" d="M 770.998, 576.908 L 739.74, 582.175 L 731.714, 580.77 L 660.744, 480.581 z "/>
<path style="fill:rgb(107, 249, 212);fill-opacity:1.0;fill-rule:evenodd;stroke:rgb(0, 0, 0);stroke-width:3.0;" d="M 463.154, 533.752 L 299.959, 505.18 L 275.601, 471.398 L 343.523, 448.219 L 402.03, 447.454 z "/>
<path style="fill:rgb(255, 249, 148);fill-opacity:1.0;fill-rule:evenodd;stroke:rgb(0, 0, 0);stroke-width:3.0;" d="M 311.779, 340.903 L 313.539, 333.492 L 390.677, 329.272 z "/>
<path style="fill:rgb(255, 69, 18);fill-opacity:1.0;fill-rule:evenodd;stroke:rgb(0, 0, 0);stroke-width:3.0;" d="M 787.992, 502.55 L 748.092, 485.454 L 701.911, 443.534 L 715.1, 443.362 z "/>
<path style="fill:rgb(91, 88, 255);fill-opacity:1.0;fill-rule:evenodd;stroke:rgb(0, 0, 0);stroke-width:3.0;" d="M 347.172, 35.4212 L 349.638, 38.2852 L 312.194, 28.7423 L 310.954, 27.2918 L 318.371, 23.6857 z "/>
<path style="fill:rgb(217, 28, 8);fill-opacity:1.0;fill-rule:evenodd;stroke:rgb(0, 0, 0);stroke-width:3.0;" d="M 244.77, 519.206 L 266.806, 543.01 L 224.04, 517.763 L 230.986, 507.72 z "/>
<path style="fill:rgb(228, 14, 148);fill-opacity:1.0;fill-rule:evenodd;stroke:rgb(0, 0, 0);stroke-width:3.0;" d="M 776.295, 413.505 L 778.869, 442.529 L 724.076, 443.245 L 650.452, 411.759 L 658.366, 381.874 z "/>
<path style="fill:rgb(33, 23, 223);fill-opacity:1.0;fill-rule:evenodd;stroke:rgb(0, 0, 0);stroke-width:3.0;" d="M 721.823, 206.466 L 688.769, 199.045 L 717.954, 165.887 z "/>
<path style="fill:rgb(33, 23, 223);fill-opacity:1.0;fill-rule:evenodd;stroke:rgb(0, 0, 0);stroke-width:3.0;" d="M 658.655, 380.784 L 476.643, 337.429 L 449.984, 326.028 L 676.437, 313.641 z "/>
<path style="fill:rgb(249, 157, 255);fill-opacity:1.0;fill-rule:evenodd;stroke:rgb(0, 0, 0);stroke-width:3.0;" d="M 294.736, 568.811 L 295.365, 573.388 L 292.164, 574.702 L 285.466, 573.359 L 276.937, 567.625 L 281.8, 563.341 z "/>
<path style="fill:rgb(255, 62, 21);fill-opacity:1.0;fill-rule:evenodd;stroke:rgb(0, 0, 0);stroke-width:3.0;" d="M 414.911, 15.9368 L 419.236, 25.0339 L 413.963, 28.2172 L 408.735, 23.8296 L 402.802, 7.65968 z "/>
<path style="fill:rgb(197, 2, 29);fill-opacity:1.0;fill-rule:evenodd;stroke:rgb(0, 0, 0);stroke-width:3.0;" d="M 114.052, 231.071 L 113.451, 231.679 L 93.5308, 236.135 L 101.322, 224.579 L 112.69, 224.54 z "/>
<path style="fill:rgb(246, 55, 27);fill-opacity:1.0;fill-rule:evenodd;stroke:rgb(0, 0, 0);stroke-width:3.0;" d="M 417.73, 360.272 L 412.869, 360.812 L 385.142, 330.088 L 390.677, 329.272 L 410.505, 328.188 z "/>
<path style="fill:rgb(252, 76, 255);fill-opacity:1.0;fill-rule:evenodd;stroke:rgb(0, 0, 0);stroke-width:3.0;" d="M 138.319, 476.881 L 127.783, 475.036 L 136.956, 450.918 L 151.667, 450.726 z "/>
<path style="fill:rgb(255, 7, 16);fill-opacity:1.0;fill-rule:evenodd;stroke:rgb(0, 0, 0);stroke-width:3.0;" d="M 127.783, 475.036 L 126.473, 474.807 L 118.08, 465.402 L 130.384, 451.004 L 136.956, 450.918 z "/>
<path style="fill:rgb(252, 255, 61);fill-opacity:1.0;fill-rule:evenodd;stroke:rgb(0, 0, 0);stroke-width:3.0;" d="M 519.034, 87.9299 L 511.352, 80.2809 L 520.393, 45.6203 L 533.135, 44.9013 z "/>
<path style="fill:rgb(255, 252, 78);fill-opacity:1.0;fill-rule:evenodd;stroke:rgb(0, 0, 0);stroke-width:3.0;" d="M 511.352, 80.2809 L 504.205, 73.1643 L 505.393, 57.6762 L 517.226, 45.799 L 520.393, 45.6203 z "/>
</svg>