<?xml version="1.0" encoding="iso-8859-1" standalone="no"?>
<!DOCTYPE svg PUBLIC "-//W3C//DTD SVG 1.0//EN" "http://www.w3.org/TR/2001/REC-SVG-20010904/DTD/svg10.dtd">
<svg xmlns="http://www.w3.org/2000/svg" width="800" height="600">
<path style="fill:rgb(0, 0, 0);fill-opacity:0.0;fill-rule:evenodd;stroke:rgb(0, 0, 0);stroke-width:0.0;" d="M 0, 600 L 800, 600 L 800, 0 L 0, 0 z "/>
<path style="fill:rgb(255, 1, 215);fill-opacity:1.0;fill-rule:evenodd;stroke:rgb(0, 0, 0);stroke-width:3.0;" d="M 777.731, 53.1574 L 770.132, 54.7584 L 758.571, 51.3392 L 757.937, 25.9881 L 762.522, 13.6642 z "/>
<path style="fill:rgb(255, 1, 215);fill-opacity:1.0;fill-rule:evenodd;stroke:rgb(0, 0, 0);stroke-width:3.0;" d="M 505.78, 563.459 L 472.607, 583.097 L 465.48, 580.504 L 468.136, 575.513 L 507.446, 548.47 z "/>
<path style="fill:rgb(255, 1, 215);fill-opacity:1.0;fill-rule:evenodd;stroke:rgb(0, 0, 0);stroke-width:3.0;" d="M 63.3229, 146.225 L 59.6315, 160.651 L 47.4004, 156.637 L 46.4813, 140.962 z "/>
<path style="fill:rgb(255, 1, 215);fill-opacity:1.0;fill-rule:evenodd;stroke:rgb(0, 0, 0);stroke-width:3.0;" d="M 266.41, 334.899 L 218.637, 343.923 L 227.28, 332.468 L 276.941, 297.542 z "/>
<path style="fill:rgb(255, 1, 215);fill-opacity:1.0;fill-rule:evenodd;stroke:rgb(0, 0, 0);stroke-width:3.0;" d="M 101.158, 409.291 L 100.663, 402.014 L 104.581, 395.907 L 117.748, 386.709 L 133.35, 386.597 z "/>
<path style="fill:rgb(255, 255, 18);fill-opacity:1.0;fill-rule:evenodd;stroke:rgb(0, 0, 0);stroke-width:3.0;" d="M 507.638, 279.36 L 532.995, 353.831 L 511.197, 352.838 L 477.048, 281.837 L 489.758, 266.102 z "/>
<path style="fill:rgb(255, 255, 18);fill-opacity:1.0;fill-rule:evenodd;stroke:rgb(0, 0, 0);stroke-width:3.0;" d="M 515.767, 362.34 L 444.778, 384.377 L 351.356, 385.043 L 344.634, 320.123 L 482.9, 294.005 z "/>
<path style="fill:rgb(255, 255, 18);fill-opacity:1.0;fill-rule:evenodd;stroke:rgb(0, 0, 0);stroke-width:3.0;" d="M 65.8514, 508.055 L 56.8656, 516.643 L 52.13, 520.613 L 47.3076, 518.666 L 46.8802, 510.729 L 50.628, 506.735 L 71.7373, 500.182 z "/>
<path style="fill:rgb(255, 255, 18);fill-opacity:1.0;fill-rule:evenodd;stroke:rgb(0, 0, 0);stroke-width:3.0;" d="M 659.989, 425.931 L 652.393, 433.397 L 630.417, 368.697 L 635.993, 353.711 z "/>
<path style="fill:rgb(255, 255, 18);fill-opacity:1.0;fill-rule:evenodd;stroke:rgb(0, 0, 0);stroke-width:3.0;" d="M 586.977, 485.442 L 582.9, 479.763 L 597.715, 451.217 L 600.429, 449.289 z "/>
<path style="fill:rgb(209, 41, 50);fill-opacity:1.0;fill-rule:evenodd;stroke:rgb(0, 0, 0);stroke-width:3.0;" d="M 103.734, 522.306 L 103.686, 522.374 L 79.9303, 506.082 L 91.293, 500.85 L 91.6974, 500.792 z "/>
<path style="fill:rgb(209, 41, 50);fill-opacity:1.0;fill-rule:evenodd;stroke:rgb(0, 0, 0);stroke-width:3.0;" d="M 632.472, 411.804 L 643.143, 453.307 L 620.231, 441.429 L 613.824, 422.812 L 630.42, 408.653 z "/>
<path style="fill:rgb(209, 41, 50);fill-opacity:1.0;fill-rule:evenodd;stroke:rgb(0, 0, 0);stroke-width:3.0;" d="M 782.977, 140.792 L 774.77, 140.618 L 760.624, 133.397 L 760.526, 129.488 L 773.025, 129.273 z "/>
<path style="fill:rgb(209, 41, 50);fill-opacity:1.0;fill-rule:evenodd;stroke:rgb(0, 0, 0);stroke-width:3.0;" d="M 104.777, 375.502 L 104.078, 381.257 L 93.7772, 378.588 L 94.6247, 367.348 L 96.8212, 366.933 z "/>
<path style="fill:rgb(209, 41, 50);fill-opacity:1.0;fill-rule:evenodd;stroke:rgb(0, 0, 0);stroke-width:3.0;" d="M 409.716, 391.643 L 410.144, 392.865 L 399.599, 398.402 L 383.855, 403.29 L 383.413, 398.723 L 394.372, 390.478 z "/>
<path style="fill:rgb(209, 41, 50);fill-opacity:1.0;fill-rule:evenodd;stroke:rgb(0, 0, 0);stroke-width:3.0;" d="M 673.459, 466.469 L 672.978, 474.017 L 658.788, 452.223 L 652.393, 433.397 L 659.989, 425.931 z "/>
<path style="fill:rgb(209, 41, 50);fill-opacity:1.0;fill-rule:evenodd;stroke:rgb(0, 0, 0);stroke-width:3.0;" d="M 450.528, 171.536 L 426.929, 177.633 L 400.877, 123.467 L 414.554, 114.747 z "/>
<path style="fill:rgb(209, 41, 50);fill-opacity:1.0;fill-rule:evenodd;stroke:rgb(0, 0, 0);stroke-width:3.0;" d="M 602.955, 508.947 L 601.003, 528.344 L 598.476, 528.804 L 593.361, 521.465 L 597.757, 498.686 z "/>
<path style="fill:rgb(209, 41, 50);fill-opacity:1.0;fill-rule:evenodd;stroke:rgb(0, 0, 0);stroke-width:3.0;" d="M 643.658, 509.494 L 635.837, 514.463 L 626.096, 504.851 L 637.417, 491.362 z "/>
<path style="fill:rgb(255, 119, 10);fill-opacity:1.0;fill-rule:evenodd;stroke:rgb(0, 0, 0);stroke-width:3.0;" d="M 157.391, 525.612 L 111.441, 536.083 L 107.677, 529.355 L 125.704, 497.307 L 142.413, 490.678 z "/>
<path style="fill:rgb(255, 119, 10);fill-opacity:1.0;fill-rule:evenodd;stroke:rgb(0, 0, 0);stroke-width:3.0;" d="M 626.871, 378.225 L 587.988, 399.156 L 547.128, 352.604 L 648.064, 321.27 z "/>
<path style="fill:rgb(255, 119, 10);fill-opacity:1.0;fill-rule:evenodd;stroke:rgb(0, 0, 0);stroke-width:3.0;" d="M 768.161, 7.68007 L 780.618, 30.6036 L 780.62, 30.6198 L 763.344, 15.797 L 762.522, 13.6642 L 763.519, 10.9855 L 766.149, 7.22265 z "/>
<path style="fill:rgb(255, 119, 10);fill-opacity:1.0;fill-rule:evenodd;stroke:rgb(0, 0, 0);stroke-width:3.0;" d="M 453.245, 438.286 L 426.132, 390.165 L 447.647, 383.487 z "/>
<path style="fill:rgb(255, 119, 10);fill-opacity:1.0;fill-rule:evenodd;stroke:rgb(0, 0, 0);stroke-width:3.0;" d="M 666.15, 574.844 L 666.49, 575.831 L 666.375, 577.625 L 612.699, 592.984 L 583.514, 572.495 L 588.087, 548.799 z "/>
<path style="fill:rgb(88, 161, 255);fill-opacity:1.0;fill-rule:evenodd;stroke:rgb(0, 0, 0);stroke-width:3.0;" d="M 372.766, 406.732 L 259.843, 441.787 L 259.747, 435.609 L 374.582, 384.878 L 402.077, 384.682 z "/>
<path style="fill:rgb(243, 255, 10);fill-opacity:1.0;fill-rule:evenodd;stroke:rgb(0, 0, 0);stroke-width:3.0;" d="M 627.341, 403.923 L 613.768, 415.712 L 614.679, 410.991 L 620.957, 394.119 z "/>
<path style="fill:rgb(255, 37, 8);fill-opacity:1.0;fill-rule:evenodd;stroke:rgb(0, 0, 0);stroke-width:3.0;" d="M 672.978, 474.017 L 668.11, 550.409 L 632.472, 411.804 z "/>
<path style="fill:rgb(46, 159, 255);fill-opacity:1.0;fill-rule:evenodd;stroke:rgb(0, 0, 0);stroke-width:3.0;" d="M 430.017, 303.994 L 309.945, 326.675 L 407.185, 220.439 z "/>
<path style="fill:rgb(46, 159, 255);fill-opacity:1.0;fill-rule:evenodd;stroke:rgb(0, 0, 0);stroke-width:3.0;" d="M 791.012, 103.946 L 760.926, 118.171 L 789.484, 93.1645 z "/>
<path style="fill:rgb(46, 159, 255);fill-opacity:1.0;fill-rule:evenodd;stroke:rgb(0, 0, 0);stroke-width:3.0;" d="M 164.499, 542.19 L 169.49, 553.831 L 162.399, 557.955 L 141.458, 529.243 L 147.813, 527.795 z "/>
<path style="fill:rgb(46, 159, 255);fill-opacity:1.0;fill-rule:evenodd;stroke:rgb(0, 0, 0);stroke-width:3.0;" d="M 365.798, 388.758 L 346.621, 397.23 L 343.442, 385.1 L 359.919, 384.982 z "/>
<path style="fill:rgb(46, 159, 255);fill-opacity:1.0;fill-rule:evenodd;stroke:rgb(0, 0, 0);stroke-width:3.0;" d="M 56.0422, 266.854 L 45.7085, 301.768 L 15.7985, 331.953 L 37.1296, 248.59 z "/>
<path style="fill:rgb(46, 159, 255);fill-opacity:1.0;fill-rule:evenodd;stroke:rgb(0, 0, 0);stroke-width:3.0;" d="M 64.7966, 537.205 L 68.9983, 544.59 L 36.272, 536.328 L 38.2528, 534.434 z "/>
<path style="fill:rgb(46, 159, 255);fill-opacity:1.0;fill-rule:evenodd;stroke:rgb(0, 0, 0);stroke-width:3.0;" d="M 583.103, 574.625 L 580.642, 587.379 L 557.179, 565.521 L 562.635, 550.86 z "/>
<path style="fill:rgb(187, 161, 6);fill-opacity:1.0;fill-rule:evenodd;stroke:rgb(0, 0, 0);stroke-width:3.0;" d="M 578.601, 507.951 L 570.891, 528.671 L 562.265, 529.318 L 561.856, 524.582 L 574.115, 497.735 z "/>
<path style="fill:rgb(187, 161, 6);fill-opacity:1.0;fill-rule:evenodd;stroke:rgb(0, 0, 0);stroke-width:3.0;" d="M 398.468, 89.3537 L 414.554, 114.747 L 158.776, 277.834 L 107.61, 239.296 L 305.284, 39.8012 z "/>
<path style="fill:rgb(187, 161, 6);fill-opacity:1.0;fill-rule:evenodd;stroke:rgb(0, 0, 0);stroke-width:3.0;" d="M 407.185, 220.439 L 389.755, 239.481 L 353.457, 153.703 L 383.683, 134.43 z "/>
<path style="fill:rgb(187, 161, 6);fill-opacity:1.0;fill-rule:evenodd;stroke:rgb(0, 0, 0);stroke-width:3.0;" d="M 73.0495, 103.161 L 67.1532, 108.386 L 64.4942, 107.545 L 56.2615, 93.1935 L 57.6642, 92.6331 z "/>
<path style="fill:rgb(187, 161, 6);fill-opacity:1.0;fill-rule:evenodd;stroke:rgb(0, 0, 0);stroke-width:3.0;" d="M 150.065, 565.129 L 133.184, 574.949 L 111.441, 536.083 L 130.358, 531.772 z "/>
<path style="fill:rgb(246, 7, 39);fill-opacity:1.0;fill-rule:evenodd;stroke:rgb(0, 0, 0);stroke-width:3.0;" d="M 648.165, 522.59 L 592.071, 542.27 L 632.484, 516.594 L 645.38, 514.498 z "/>
<path style="fill:rgb(246, 7, 39);fill-opacity:1.0;fill-rule:evenodd;stroke:rgb(0, 0, 0);stroke-width:3.0;" d="M 587.988, 399.156 L 467.684, 463.913 L 453.245, 438.286 L 447.647, 383.487 L 547.128, 352.604 z "/>
<path style="fill:rgb(246, 7, 39);fill-opacity:1.0;fill-rule:evenodd;stroke:rgb(0, 0, 0);stroke-width:3.0;" d="M 578.21, 473.231 L 571.647, 491.233 L 570.73, 490.027 L 564.158, 475.061 L 574.333, 467.832 z "/>
<path style="fill:rgb(246, 7, 39);fill-opacity:1.0;fill-rule:evenodd;stroke:rgb(0, 0, 0);stroke-width:3.0;" d="M 569.616, 180.365 L 614.575, 331.666 L 562.254, 347.909 L 398.468, 89.3537 z "/>
<path style="fill:rgb(246, 217, 25);fill-opacity:1.0;fill-rule:evenodd;stroke:rgb(0, 0, 0);stroke-width:3.0;" d="M 95.3133, 386.869 L 46.0369, 387.22 L 43.8382, 376.942 L 81.6652, 369.796 z "/>
<path style="fill:rgb(246, 217, 25);fill-opacity:1.0;fill-rule:evenodd;stroke:rgb(0, 0, 0);stroke-width:3.0;" d="M 64.7966, 537.205 L 38.2528, 534.434 L 54.4244, 518.977 z "/>
<path style="fill:rgb(246, 217, 25);fill-opacity:1.0;fill-rule:evenodd;stroke:rgb(0, 0, 0);stroke-width:3.0;" d="M 127.281, 330.66 L 83.0343, 369.538 L 32.4647, 379.09 L 33.6785, 357.597 L 92.2872, 320.227 z "/>
<path style="fill:rgb(246, 217, 25);fill-opacity:1.0;fill-rule:evenodd;stroke:rgb(0, 0, 0);stroke-width:3.0;" d="M 490.267, 533.914 L 474.326, 563.878 L 450.529, 555.868 L 442.795, 547.481 L 457.907, 532.55 L 460.838, 530.457 z "/>
<path style="fill:rgb(246, 217, 25);fill-opacity:1.0;fill-rule:evenodd;stroke:rgb(0, 0, 0);stroke-width:3.0;" d="M 276.164, 428.356 L 212.48, 456.49 L 39.5344, 510.179 L 144.437, 396.841 z "/>
<path style="fill:rgb(199, 0, 15);fill-opacity:1.0;fill-rule:evenodd;stroke:rgb(0, 0, 0);stroke-width:3.0;" d="M 544.102, 484.557 L 534.151, 496.383 L 528.77, 500.207 L 534.568, 484.457 L 540.244, 477.964 z "/>
<path style="fill:rgb(199, 0, 15);fill-opacity:1.0;fill-rule:evenodd;stroke:rgb(0, 0, 0);stroke-width:3.0;" d="M 521.542, 528.387 L 518.105, 530.288 L 513.394, 528.086 L 524.382, 503.324 L 525.555, 502.491 z "/>
<path style="fill:rgb(255, 86, 184);fill-opacity:1.0;fill-rule:evenodd;stroke:rgb(0, 0, 0);stroke-width:3.0;" d="M 635.129, 484.714 L 620.446, 499.275 L 601.291, 480.373 L 609.246, 439.149 L 618.419, 436.163 z "/>
<path style="fill:rgb(255, 16, 82);fill-opacity:1.0;fill-rule:evenodd;stroke:rgb(0, 0, 0);stroke-width:3.0;" d="M 675.397, 436.052 L 673.459, 466.469 L 635.993, 353.711 L 637.52, 349.606 z "/>
<path style="fill:rgb(255, 16, 82);fill-opacity:1.0;fill-rule:evenodd;stroke:rgb(0, 0, 0);stroke-width:3.0;" d="M 609.8, 424.105 L 518.713, 489.137 L 509.445, 487.007 L 504.82, 443.923 L 626.871, 378.225 z "/>
<path style="fill:rgb(9, 136, 255);fill-opacity:1.0;fill-rule:evenodd;stroke:rgb(0, 0, 0);stroke-width:3.0;" d="M 483.686, 223.879 L 501.345, 251.756 L 477.048, 281.837 L 428.027, 179.915 z "/>
<path style="fill:rgb(108, 0, 255);fill-opacity:1.0;fill-rule:evenodd;stroke:rgb(0, 0, 0);stroke-width:3.0;" d="M 770.223, 91.0247 L 759.595, 92.2778 L 758.693, 56.1962 z "/>
<path style="fill:rgb(207, 252, 33);fill-opacity:1.0;fill-rule:evenodd;stroke:rgb(0, 0, 0);stroke-width:3.0;" d="M 132.833, 28.7893 L 140.461, 54.8693 L 116.505, 70.3837 L 125.373, 23.4483 z "/>
<path style="fill:rgb(207, 252, 33);fill-opacity:1.0;fill-rule:evenodd;stroke:rgb(0, 0, 0);stroke-width:3.0;" d="M 68.9273, 278.335 L 45.7085, 301.768 L 56.6266, 264.879 z "/>
<path style="fill:rgb(249, 182, 15);fill-opacity:1.0;fill-rule:evenodd;stroke:rgb(0, 0, 0);stroke-width:3.0;" d="M 80.5162, 508.872 L 117.526, 546.96 L 123.962, 558.465 L 68.9983, 544.59 L 54.4244, 518.977 L 68.1762, 505.832 z "/>
<path style="fill:rgb(249, 182, 15);fill-opacity:1.0;fill-rule:evenodd;stroke:rgb(0, 0, 0);stroke-width:3.0;" d="M 79.1649, 268.003 L 68.9273, 278.335 L 56.6266, 264.879 L 92.4419, 143.872 L 105.467, 128.799 z "/>
<path style="fill:rgb(240, 182, 132);fill-opacity:1.0;fill-rule:evenodd;stroke:rgb(0, 0, 0);stroke-width:3.0;" d="M 351.356, 385.043 L 146.899, 386.501 L 110.513, 364.347 L 344.634, 320.123 z "/>
<path style="fill:rgb(240, 182, 132);fill-opacity:1.0;fill-rule:evenodd;stroke:rgb(0, 0, 0);stroke-width:3.0;" d="M 604.8, 437.54 L 603.887, 439.995 L 601.644, 441.613 L 559.719, 460.026 L 559.692, 459.88 L 595.483, 434.326 z "/>
<path style="fill:rgb(240, 182, 132);fill-opacity:1.0;fill-rule:evenodd;stroke:rgb(0, 0, 0);stroke-width:3.0;" d="M 277.273, 68.0709 L 79.1649, 268.003 L 96.4418, 176.566 L 282.944, 45.3396 z "/>
<path style="fill:rgb(91, 255, 255);fill-opacity:1.0;fill-rule:evenodd;stroke:rgb(0, 0, 0);stroke-width:3.0;" d="M 608.951, 502.479 L 600.796, 504.684 L 597.757, 498.686 L 601.055, 481.593 z "/>
<path style="fill:rgb(91, 255, 255);fill-opacity:1.0;fill-rule:evenodd;stroke:rgb(0, 0, 0);stroke-width:3.0;" d="M 127.281, 330.66 L 92.2872, 320.227 L 263.124, 211.3 z "/>
<path style="fill:rgb(91, 255, 255);fill-opacity:1.0;fill-rule:evenodd;stroke:rgb(0, 0, 0);stroke-width:3.0;" d="M 46.7384, 145.346 L 40.0837, 155.676 L 38.2053, 155.038 L 39.0633, 134.534 L 45.576, 125.522 z "/>
<path style="fill:rgb(91, 255, 255);fill-opacity:1.0;fill-rule:evenodd;stroke:rgb(0, 0, 0);stroke-width:3.0;" d="M 666.15, 574.844 L 588.087, 548.799 L 588.966, 544.242 L 592.071, 542.27 L 648.165, 522.59 z "/>
<path style="fill:rgb(91, 255, 255);fill-opacity:1.0;fill-rule:evenodd;stroke:rgb(0, 0, 0);stroke-width:3.0;" d="M 733.996, 291.822 L 736.078, 301.071 L 726.569, 311.924 L 715.826, 275.871 z "/>
<path style="fill:rgb(91, 255, 255);fill-opacity:1.0;fill-rule:evenodd;stroke:rgb(0, 0, 0);stroke-width:3.0;" d="M 585.271, 475.195 L 576.174, 470.396 L 574.333, 467.832 L 597.715, 451.217 z "/>
<path style="fill:rgb(204, 40, 61);fill-opacity:1.0;fill-rule:evenodd;stroke:rgb(0, 0, 0);stroke-width:3.0;" d="M 562.254, 347.909 L 533.968, 356.689 L 500.492, 258.373 L 503.005, 254.377 z "/>
<path style="fill:rgb(220, 25, 255);fill-opacity:1.0;fill-rule:evenodd;stroke:rgb(0, 0, 0);stroke-width:3.0;" d="M 760.733, 137.771 L 762.589, 211.944 L 736.774, 172.905 L 751.706, 120.279 z "/>
<path style="fill:rgb(255, 255, 74);fill-opacity:1.0;fill-rule:evenodd;stroke:rgb(0, 0, 0);stroke-width:3.0;" d="M 43.3876, 88.1991 L 45.4923, 124.095 L 39.6856, 119.662 L 41.1431, 84.8318 z "/>
<path style="fill:rgb(119, 255, 255);fill-opacity:1.0;fill-rule:evenodd;stroke:rgb(0, 0, 0);stroke-width:3.0;" d="M 563.443, 542.972 L 563.844, 547.611 L 562.335, 551.667 L 547.522, 547.827 L 551.822, 536.239 z "/>
<path style="fill:rgb(249, 243, 70);fill-opacity:1.0;fill-rule:evenodd;stroke:rgb(0, 0, 0);stroke-width:3.0;" d="M 717.531, 376.838 L 675.981, 426.881 L 689.871, 208.914 L 712.207, 148.886 z "/>
<path style="fill:rgb(249, 243, 70);fill-opacity:1.0;fill-rule:evenodd;stroke:rgb(0, 0, 0);stroke-width:3.0;" d="M 75.7587, 471.042 L 38.4719, 473.847 L 35.0453, 463.414 L 104.622, 439.858 z "/>
<path style="fill:rgb(249, 243, 70);fill-opacity:1.0;fill-rule:evenodd;stroke:rgb(0, 0, 0);stroke-width:3.0;" d="M 508.162, 514.602 L 503.266, 523.66 L 487.721, 519.205 L 486.496, 518.418 L 499.912, 510.428 z "/>
<path style="fill:rgb(134, 237, 255);fill-opacity:1.0;fill-rule:evenodd;stroke:rgb(0, 0, 0);stroke-width:3.0;" d="M 590.765, 534.918 L 583.103, 574.625 L 569.775, 559.151 L 581.983, 506.936 z "/>
<path style="fill:rgb(255, 0, 16);fill-opacity:1.0;fill-rule:evenodd;stroke:rgb(0, 0, 0);stroke-width:3.0;" d="M 590.765, 534.918 L 581.983, 506.936 L 587.063, 485.209 L 614.679, 410.991 z "/>
<path style="fill:rgb(215, 255, 25);fill-opacity:1.0;fill-rule:evenodd;stroke:rgb(0, 0, 0);stroke-width:3.0;" d="M 109.054, 523.101 L 105.833, 526.059 L 96.892, 510.077 L 106.763, 506.817 z "/>
<path style="fill:rgb(215, 255, 25);fill-opacity:1.0;fill-rule:evenodd;stroke:rgb(0, 0, 0);stroke-width:3.0;" d="M 502.393, 593.934 L 472.607, 583.097 L 505.78, 563.459 z "/>
<path style="fill:rgb(197, 184, 9);fill-opacity:1.0;fill-rule:evenodd;stroke:rgb(0, 0, 0);stroke-width:3.0;" d="M 678.875, 238.466 L 648.064, 321.27 L 614.575, 331.666 L 587.637, 241.01 L 646.038, 221.004 z "/>
<path style="fill:rgb(128, 75, 243);fill-opacity:1.0;fill-rule:evenodd;stroke:rgb(0, 0, 0);stroke-width:3.0;" d="M 546.999, 538.243 L 529.538, 541.215 L 524.216, 541.787 L 521.622, 541.114 L 550.103, 526.394 z "/>
<path style="fill:rgb(128, 75, 243);fill-opacity:1.0;fill-rule:evenodd;stroke:rgb(0, 0, 0);stroke-width:3.0;" d="M 539.728, 530.885 L 520.888, 532.603 L 525.555, 502.491 L 538.565, 493.246 z "/>
<path style="fill:rgb(255, 255, 9);fill-opacity:1.0;fill-rule:evenodd;stroke:rgb(0, 0, 0);stroke-width:3.0;" d="M 162.399, 557.955 L 156.528, 561.37 L 130.43, 531.756 L 141.458, 529.243 z "/>
<path style="fill:rgb(255, 71, 30);fill-opacity:1.0;fill-rule:evenodd;stroke:rgb(0, 0, 0);stroke-width:3.0;" d="M 758.567, 51.1664 L 759.6, 92.4587 L 729.293, 199.272 L 713.339, 145.844 L 749.115, 49.6978 z "/>
<path style="fill:rgb(255, 71, 30);fill-opacity:1.0;fill-rule:evenodd;stroke:rgb(0, 0, 0);stroke-width:3.0;" d="M 683.127, 314.744 L 683.018, 316.453 L 644.193, 364.836 L 637.52, 349.606 L 664.002, 278.438 z "/>
<path style="fill:rgb(255, 71, 30);fill-opacity:1.0;fill-rule:evenodd;stroke:rgb(0, 0, 0);stroke-width:3.0;" d="M 635.837, 514.463 L 628.641, 519.035 L 616.551, 522.584 L 601.055, 481.593 L 601.291, 480.373 z "/>
<path style="fill:rgb(255, 255, 22);fill-opacity:1.0;fill-rule:evenodd;stroke:rgb(0, 0, 0);stroke-width:3.0;" d="M 794.275, 126.969 L 782.766, 138.176 L 777.173, 116.753 L 791.894, 110.169 z "/>
<path style="fill:rgb(255, 255, 22);fill-opacity:1.0;fill-rule:evenodd;stroke:rgb(0, 0, 0);stroke-width:3.0;" d="M 710.404, 572.083 L 669.051, 535.644 L 671.813, 492.286 z "/>
<path style="fill:rgb(255, 255, 22);fill-opacity:1.0;fill-rule:evenodd;stroke:rgb(0, 0, 0);stroke-width:3.0;" d="M 726.569, 311.924 L 716.289, 323.655 L 715.118, 273.492 z "/>
<path style="fill:rgb(255, 184, 7);fill-opacity:1.0;fill-rule:evenodd;stroke:rgb(0, 0, 0);stroke-width:3.0;" d="M 185.255, 590.6 L 177.477, 591.91 L 160.748, 558.916 L 169.49, 553.831 z "/>
<path style="fill:rgb(234, 47, 226);fill-opacity:1.0;fill-rule:evenodd;stroke:rgb(0, 0, 0);stroke-width:3.0;" d="M 552.291, 518.046 L 552.265, 518.144 L 549.179, 526.872 L 539.755, 531.742 L 538.702, 497.685 L 541.861, 490.905 L 542.292, 490.598 z "/>
<path style="fill:rgb(234, 47, 226);fill-opacity:1.0;fill-rule:evenodd;stroke:rgb(0, 0, 0);stroke-width:3.0;" d="M 79.6278, 187.166 L 73.0768, 166.282 L 92.4419, 143.872 z "/>
<path style="fill:rgb(234, 47, 226);fill-opacity:1.0;fill-rule:evenodd;stroke:rgb(0, 0, 0);stroke-width:3.0;" d="M 507.446, 548.47 L 468.136, 575.513 L 479.691, 553.793 L 508.48, 539.17 z "/>
<path style="fill:rgb(21, 226, 240);fill-opacity:1.0;fill-rule:evenodd;stroke:rgb(0, 0, 0);stroke-width:3.0;" d="M 406.827, 135.836 L 394.346, 165.736 L 392.588, 167.02 L 383.683, 134.43 L 400.877, 123.467 z "/>
<path style="fill:rgb(21, 226, 240);fill-opacity:1.0;fill-rule:evenodd;stroke:rgb(0, 0, 0);stroke-width:3.0;" d="M 38.4714, 235.934 L 39.8424, 237.988 L 34.0969, 260.442 L 30.6769, 243.55 L 35.0739, 236.402 L 35.9431, 235.902 z "/>
<path style="fill:rgb(21, 226, 240);fill-opacity:1.0;fill-rule:evenodd;stroke:rgb(0, 0, 0);stroke-width:3.0;" d="M 91.5788, 35.7983 L 82.4011, 71.6652 L 61.144, 11.2851 L 63.2567, 5.80468 z "/>
<path style="fill:rgb(243, 30, 22);fill-opacity:1.0;fill-rule:evenodd;stroke:rgb(0, 0, 0);stroke-width:3.0;" d="M 600.429, 449.289 L 562.734, 476.073 L 561.677, 470.445 L 603.887, 439.995 z "/>
<path style="fill:rgb(243, 30, 22);fill-opacity:1.0;fill-rule:evenodd;stroke:rgb(0, 0, 0);stroke-width:3.0;" d="M 346.621, 397.23 L 276.164, 428.356 L 240.992, 419.942 L 331.599, 385.184 L 343.442, 385.1 z "/>
<path style="fill:rgb(243, 30, 22);fill-opacity:1.0;fill-rule:evenodd;stroke:rgb(0, 0, 0);stroke-width:3.0;" d="M 760.173, 115.378 L 759.752, 98.5468 L 764.58, 93.3591 L 771.114, 90.7623 z "/>
<path style="fill:rgb(243, 30, 22);fill-opacity:1.0;fill-rule:evenodd;stroke:rgb(0, 0, 0);stroke-width:3.0;" d="M 415.659, 154.2 L 404.77, 161.959 L 409.016, 140.389 z "/>
<path style="fill:rgb(255, 19, 76);fill-opacity:1.0;fill-rule:evenodd;stroke:rgb(0, 0, 0);stroke-width:3.0;" d="M 643.143, 453.307 L 668.11, 550.409 L 666.49, 575.831 L 620.231, 441.429 z "/>
<path style="fill:rgb(107, 152, 255);fill-opacity:1.0;fill-rule:evenodd;stroke:rgb(0, 0, 0);stroke-width:3.0;" d="M 781.226, 62.2315 L 786.267, 75.3217 L 783.699, 75.8378 L 771.485, 72.4254 L 771.736, 59.0345 z "/>
<path style="fill:rgb(255, 29, 197);fill-opacity:1.0;fill-rule:evenodd;stroke:rgb(0, 0, 0);stroke-width:3.0;" d="M 57.3885, 215.246 L 43.6854, 222.969 L 49.8154, 199.013 z "/>
<path style="fill:rgb(255, 29, 197);fill-opacity:1.0;fill-rule:evenodd;stroke:rgb(0, 0, 0);stroke-width:3.0;" d="M 740.079, 177.902 L 739.834, 204.968 L 729.494, 198.565 L 736.774, 172.905 z "/>
<path style="fill:rgb(255, 29, 197);fill-opacity:1.0;fill-rule:evenodd;stroke:rgb(0, 0, 0);stroke-width:3.0;" d="M 574.115, 497.735 L 561.856, 524.582 L 561.352, 518.74 L 565.184, 496.336 L 569.876, 488.081 z "/>
<path style="fill:rgb(255, 4, 31);fill-opacity:1.0;fill-rule:evenodd;stroke:rgb(0, 0, 0);stroke-width:3.0;" d="M 50.289, 60.0303 L 51.7139, 69.339 L 43.6786, 76.23 L 31.9394, 57.6923 L 32.3411, 37.3478 z "/>
<path style="fill:rgb(255, 20, 28);fill-opacity:1.0;fill-rule:evenodd;stroke:rgb(0, 0, 0);stroke-width:3.0;" d="M 531.732, 566.017 L 518.792, 566.861 L 522.705, 554.449 L 532.306, 552.922 z "/>
<path style="fill:rgb(204, 0, 175);fill-opacity:1.0;fill-rule:evenodd;stroke:rgb(0, 0, 0);stroke-width:3.0;" d="M 527.182, 586.913 L 526.562, 587.862 L 520.827, 590.201 L 515.725, 564.53 L 517.414, 563.65 z "/>
<path style="fill:rgb(255, 237, 16);fill-opacity:1.0;fill-rule:evenodd;stroke:rgb(0, 0, 0);stroke-width:3.0;" d="M 789.476, 93.1052 L 789.484, 93.1645 L 766.977, 112.873 L 767.269, 99.4128 L 771.114, 90.7623 L 780.089, 87.195 z "/>
<path style="fill:rgb(194, 83, 179);fill-opacity:1.0;fill-rule:evenodd;stroke:rgb(0, 0, 0);stroke-width:3.0;" d="M 123.456, 501.304 L 120.511, 502.277 L 92.8578, 493.625 L 135.163, 480.492 z "/>
<path style="fill:rgb(255, 182, 16);fill-opacity:1.0;fill-rule:evenodd;stroke:rgb(0, 0, 0);stroke-width:3.0;" d="M 281.299, 64.0071 L 279.966, 57.2747 L 281.879, 49.6096 L 300.376, 44.7551 z "/>
<path style="fill:rgb(7, 255, 187);fill-opacity:1.0;fill-rule:evenodd;stroke:rgb(0, 0, 0);stroke-width:3.0;" d="M 64.1607, 239.424 L 60.1575, 252.95 L 50.1654, 261.178 L 37.1296, 248.59 L 38.0174, 245.12 L 47.957, 228.725 z "/>
<path style="fill:rgb(255, 255, 69);fill-opacity:1.0;fill-rule:evenodd;stroke:rgb(0, 0, 0);stroke-width:3.0;" d="M 164.016, 579.117 L 164.167, 579.457 L 141.448, 576.967 L 141.566, 570.073 L 151.454, 564.322 z "/>
<path style="fill:rgb(255, 255, 69);fill-opacity:1.0;fill-rule:evenodd;stroke:rgb(0, 0, 0);stroke-width:3.0;" d="M 52.5399, 520.778 L 16.5496, 555.179 L 24.9423, 542.824 L 45.1339, 517.789 z "/>
<path style="fill:rgb(255, 30, 161);fill-opacity:1.0;fill-rule:evenodd;stroke:rgb(0, 0, 0);stroke-width:3.0;" d="M 782.766, 138.176 L 781.653, 139.259 L 766.378, 121.581 L 777.173, 116.753 z "/>
<path style="fill:rgb(255, 6, 7);fill-opacity:1.0;fill-rule:evenodd;stroke:rgb(0, 0, 0);stroke-width:3.0;" d="M 389.755, 239.481 L 309.945, 326.675 L 266.41, 334.899 L 309.608, 181.662 L 353.457, 153.703 z "/>
<path style="fill:rgb(255, 43, 10);fill-opacity:1.0;fill-rule:evenodd;stroke:rgb(0, 0, 0);stroke-width:3.0;" d="M 763.264, 238.906 L 748.166, 262.475 L 742.561, 243.704 L 763.211, 236.791 z "/>
<path style="fill:rgb(163, 217, 43);fill-opacity:1.0;fill-rule:evenodd;stroke:rgb(0, 0, 0);stroke-width:3.0;" d="M 32.503, 90.2493 L 27.8213, 99.1503 L 16.2355, 42.5163 L 30.0315, 33.8893 z "/>
<path style="fill:rgb(255, 255, 123);fill-opacity:1.0;fill-rule:evenodd;stroke:rgb(0, 0, 0);stroke-width:3.0;" d="M 525.8, 496.694 L 521.331, 505.492 L 507.944, 515.004 L 518.467, 495.533 z "/>
<path style="fill:rgb(255, 12, 132);fill-opacity:1.0;fill-rule:evenodd;stroke:rgb(0, 0, 0);stroke-width:3.0;" d="M 658.788, 452.223 L 620.957, 394.119 L 630.417, 368.697 z "/>
<path style="fill:rgb(255, 12, 132);fill-opacity:1.0;fill-rule:evenodd;stroke:rgb(0, 0, 0);stroke-width:3.0;" d="M 85.9498, 510.211 L 103.824, 522.468 L 117.526, 546.96 L 80.5162, 508.872 z "/>
<path style="fill:rgb(55, 24, 220);fill-opacity:1.0;fill-rule:evenodd;stroke:rgb(0, 0, 0);stroke-width:3.0;" d="M 409.016, 140.389 L 405.651, 157.484 L 394.346, 165.736 L 406.827, 135.836 z "/>
<path style="fill:rgb(255, 33, 16);fill-opacity:1.0;fill-rule:evenodd;stroke:rgb(0, 0, 0);stroke-width:3.0;" d="M 761.473, 210.256 L 756.389, 215.22 L 739.834, 204.968 L 739.955, 191.538 L 747.116, 188.545 z "/>
<path style="fill:rgb(255, 33, 16);fill-opacity:1.0;fill-rule:evenodd;stroke:rgb(0, 0, 0);stroke-width:3.0;" d="M 124.918, 386.658 L 106.107, 386.792 L 91.3682, 381.364 L 94.7841, 378.849 z "/>
<path style="fill:rgb(255, 33, 16);fill-opacity:1.0;fill-rule:evenodd;stroke:rgb(0, 0, 0);stroke-width:3.0;" d="M 56.2936, 107.562 L 57.9437, 110.038 L 63.4229, 145.833 L 63.3229, 146.225 L 46.4813, 140.962 L 44.1985, 102.029 z "/>
<path style="fill:rgb(14, 25, 255);fill-opacity:1.0;fill-rule:evenodd;stroke:rgb(0, 0, 0);stroke-width:3.0;" d="M 127.146, 381.505 L 114.796, 383.716 L 104.689, 376.223 L 105.849, 366.681 z "/>
<path style="fill:rgb(255, 60, 7);fill-opacity:1.0;fill-rule:evenodd;stroke:rgb(0, 0, 0);stroke-width:3.0;" d="M 68.6209, 44.7143 L 53.5562, 59.1896 L 58.2186, 43.5699 L 67.5054, 36.0718 z "/>
<path style="fill:rgb(255, 237, 12);fill-opacity:1.0;fill-rule:evenodd;stroke:rgb(0, 0, 0);stroke-width:3.0;" d="M 55.9533, 175.025 L 45.3563, 216.439 L 37.9777, 215.091 L 36.9784, 192.304 L 43.0753, 179.801 L 54.1264, 172.871 z "/>
<path style="fill:rgb(255, 202, 14);fill-opacity:1.0;fill-rule:evenodd;stroke:rgb(0, 0, 0);stroke-width:3.0;" d="M 142.723, 144.002 L 96.4418, 176.566 L 116.505, 70.3837 L 199.34, 16.7376 z "/>
<path style="fill:rgb(255, 202, 14);fill-opacity:1.0;fill-rule:evenodd;stroke:rgb(0, 0, 0);stroke-width:3.0;" d="M 753.689, 280.972 L 736.078, 301.071 L 713.41, 200.39 L 712.207, 148.886 L 713.339, 145.844 z "/>
<path style="fill:rgb(252, 132, 9);fill-opacity:1.0;fill-rule:evenodd;stroke:rgb(0, 0, 0);stroke-width:3.0;" d="M 281.625, 280.926 L 191.687, 349.014 L 83.0343, 369.538 L 263.124, 211.3 L 309.608, 181.662 z "/>
<path style="fill:rgb(108, 71, 255);fill-opacity:1.0;fill-rule:evenodd;stroke:rgb(0, 0, 0);stroke-width:3.0;" d="M 574.031, 540.95 L 565.161, 553.794 L 562.635, 550.86 L 571.802, 526.223 L 578.184, 523.188 z "/>
<path style="fill:rgb(70, 255, 182);fill-opacity:1.0;fill-rule:evenodd;stroke:rgb(0, 0, 0);stroke-width:3.0;" d="M 578.184, 523.188 L 571.802, 526.223 L 587.063, 485.209 z "/>
<path style="fill:rgb(255, 58, 14);fill-opacity:1.0;fill-rule:evenodd;stroke:rgb(0, 0, 0);stroke-width:3.0;" d="M 41.4937, 508.062 L 23.4216, 474.979 L 75.7587, 471.042 z "/>
<path style="fill:rgb(117, 202, 255);fill-opacity:1.0;fill-rule:evenodd;stroke:rgb(0, 0, 0);stroke-width:3.0;" d="M 240.992, 419.942 L 144.437, 396.841 L 154.055, 386.45 L 331.599, 385.184 z "/>
<path style="fill:rgb(36, 132, 184);fill-opacity:1.0;fill-rule:evenodd;stroke:rgb(0, 0, 0);stroke-width:3.0;" d="M 675.397, 436.052 L 644.193, 364.836 L 683.018, 316.453 z "/>
<path style="fill:rgb(36, 132, 184);fill-opacity:1.0;fill-rule:evenodd;stroke:rgb(0, 0, 0);stroke-width:3.0;" d="M 638.394, 223.623 L 587.637, 241.01 L 575.432, 199.937 z "/>
<path style="fill:rgb(36, 132, 184);fill-opacity:1.0;fill-rule:evenodd;stroke:rgb(0, 0, 0);stroke-width:3.0;" d="M 276.941, 297.542 L 208.187, 345.897 L 191.687, 349.014 L 281.625, 280.926 z "/>
<path style="fill:rgb(255, 33, 21);fill-opacity:1.0;fill-rule:evenodd;stroke:rgb(0, 0, 0);stroke-width:3.0;" d="M 524.417, 541.839 L 534.912, 552.508 L 520.102, 554.863 L 511.902, 550.521 L 510.847, 548.011 L 509.951, 538.089 z "/>
<path style="fill:rgb(255, 25, 202);fill-opacity:1.0;fill-rule:evenodd;stroke:rgb(0, 0, 0);stroke-width:3.0;" d="M 63.4744, 237.446 L 50.1996, 223.955 L 66.7184, 209.988 L 73.8887, 205.947 z "/>
<path style="fill:rgb(46, 252, 255);fill-opacity:1.0;fill-rule:evenodd;stroke:rgb(0, 0, 0);stroke-width:3.0;" d="M 570.339, 577.781 L 572.312, 591.913 L 570.151, 591.618 L 555.257, 570.687 L 557.179, 565.521 z "/>
<path style="fill:rgb(172, 2, 11);fill-opacity:1.0;fill-rule:evenodd;stroke:rgb(0, 0, 0);stroke-width:3.0;" d="M 482.9, 294.005 L 470.274, 296.39 L 471.951, 271.239 z "/>
<path style="fill:rgb(255, 16, 11);fill-opacity:1.0;fill-rule:evenodd;stroke:rgb(0, 0, 0);stroke-width:3.0;" d="M 616.138, 521.491 L 614.766, 527.851 L 613.076, 528.924 L 604.689, 512.369 L 609.31, 503.428 z "/>
<path style="fill:rgb(255, 16, 11);fill-opacity:1.0;fill-rule:evenodd;stroke:rgb(0, 0, 0);stroke-width:3.0;" d="M 471.951, 271.239 L 470.274, 296.39 L 430.017, 303.994 L 393.416, 170.049 L 415.659, 154.2 z "/>
<path style="fill:rgb(7, 0, 240);fill-opacity:1.0;fill-rule:evenodd;stroke:rgb(0, 0, 0);stroke-width:3.0;" d="M 79.6278, 187.166 L 74.1053, 205.825 L 58.8991, 214.395 L 50.6769, 195.646 L 51.9281, 190.756 L 73.0768, 166.282 z "/>
<path style="fill:rgb(249, 86, 6);fill-opacity:1.0;fill-rule:evenodd;stroke:rgb(0, 0, 0);stroke-width:3.0;" d="M 483.686, 223.879 L 455.51, 201.623 L 460.794, 187.742 z "/>
<path style="fill:rgb(252, 119, 121);fill-opacity:1.0;fill-rule:evenodd;stroke:rgb(0, 0, 0);stroke-width:3.0;" d="M 113.484, 519.031 L 109.054, 523.101 L 106.763, 506.817 L 123.456, 501.304 z "/>
<path style="fill:rgb(255, 199, 6);fill-opacity:1.0;fill-rule:evenodd;stroke:rgb(0, 0, 0);stroke-width:3.0;" d="M 762.77, 219.172 L 763.211, 236.791 L 753.79, 239.945 L 741.87, 241.389 L 735.228, 219.149 L 737.724, 203.662 z "/>
<path style="fill:rgb(255, 132, 20);fill-opacity:1.0;fill-rule:evenodd;stroke:rgb(0, 0, 0);stroke-width:3.0;" d="M 570.151, 591.618 L 548.676, 588.685 L 556.55, 572.503 z "/>
<path style="fill:rgb(163, 209, 34);fill-opacity:1.0;fill-rule:evenodd;stroke:rgb(0, 0, 0);stroke-width:3.0;" d="M 583.619, 480.765 L 577.002, 498.281 L 571.647, 491.233 L 578.21, 473.231 z "/>
<path style="fill:rgb(215, 17, 255);fill-opacity:1.0;fill-rule:evenodd;stroke:rgb(0, 0, 0);stroke-width:3.0;" d="M 733.996, 291.822 L 715.826, 275.871 L 715.118, 273.492 L 713.41, 200.39 z "/>
<path style="fill:rgb(255, 246, 40);fill-opacity:1.0;fill-rule:evenodd;stroke:rgb(0, 0, 0);stroke-width:3.0;" d="M 444.105, 192.615 L 428.027, 179.915 L 426.929, 177.633 L 440.594, 174.103 z "/>
<path style="fill:rgb(255, 255, 10);fill-opacity:1.0;fill-rule:evenodd;stroke:rgb(0, 0, 0);stroke-width:3.0;" d="M 460.794, 187.742 L 455.51, 201.623 L 444.105, 192.615 L 440.594, 174.103 L 450.528, 171.536 z "/>
<path style="fill:rgb(34, 187, 255);fill-opacity:1.0;fill-rule:evenodd;stroke:rgb(0, 0, 0);stroke-width:3.0;" d="M 104.622, 439.858 L 35.0453, 463.414 L 33.0403, 457.309 L 133.35, 386.597 L 154.055, 386.45 z "/>
<path style="fill:rgb(243, 33, 226);fill-opacity:1.0;fill-rule:evenodd;stroke:rgb(0, 0, 0);stroke-width:3.0;" d="M 561.677, 470.445 L 559.719, 460.026 L 601.644, 441.613 z "/>
<path style="fill:rgb(243, 33, 226);fill-opacity:1.0;fill-rule:evenodd;stroke:rgb(0, 0, 0);stroke-width:3.0;" d="M 36.2759, 467.161 L 18.2056, 472.84 L 17.3121, 468.397 L 33.0403, 457.309 z "/>
<path style="fill:rgb(237, 240, 21);fill-opacity:1.0;fill-rule:evenodd;stroke:rgb(0, 0, 0);stroke-width:3.0;" d="M 599.476, 196.244 L 646.038, 221.004 L 638.394, 223.623 L 575.432, 199.937 L 571.729, 187.474 z "/>
<path style="fill:rgb(110, 255, 22);fill-opacity:1.0;fill-rule:evenodd;stroke:rgb(0, 0, 0);stroke-width:3.0;" d="M 50.3184, 159.151 L 36.8519, 189.419 L 36.8083, 188.425 L 38.1361, 156.693 L 40.7101, 155.889 z "/>
</svg>