<?xml version="1.0" encoding="iso-8859-1" standalone="no"?>
<!DOCTYPE svg PUBLIC "-//W3C//DTD SVG 1.0//EN" "http://www.w3.org/TR/2001/REC-SVG-20010904/DTD/svg10.dtd">
<svg xmlns="http://www.w3.org/2000/svg" width="800" height="600">
<path style="fill:rgb(0, 0, 0);fill-opacity:0.0;fill-rule:evenodd;stroke:rgb(0, 0, 0);stroke-width:0.0;" d="M 0, 600 L 800, 600 L 800, 0 L 0, 0 z "/>
<path style="fill:rgb(228, 33, 24);fill-opacity:1.0;fill-rule:evenodd;stroke:rgb(0, 0, 0);stroke-width:3.0;" d="M 363.261, 124.903 L 361.177, 128.09 L 320.813, 127.116 L 329.533, 115.279 z "/>
<path style="fill:rgb(228, 33, 24);fill-opacity:1.0;fill-rule:evenodd;stroke:rgb(0, 0, 0);stroke-width:3.0;" d="M 727.111, 102.423 L 670.077, 157.814 L 643.026, 66.2927 L 726.7, 47.9123 z "/>
<path style="fill:rgb(255, 7, 61);fill-opacity:1.0;fill-rule:evenodd;stroke:rgb(0, 0, 0);stroke-width:3.0;" d="M 412.441, 430.672 L 409.467, 439.763 L 401.511, 444.759 L 407.699, 422.74 z "/>
<path style="fill:rgb(115, 255, 134);fill-opacity:1.0;fill-rule:evenodd;stroke:rgb(0, 0, 0);stroke-width:3.0;" d="M 737.273, 107.293 L 698.127, 167.955 L 679.666, 148.502 L 736.883, 92.9321 z "/>
<path style="fill:rgb(115, 255, 134);fill-opacity:1.0;fill-rule:evenodd;stroke:rgb(0, 0, 0);stroke-width:3.0;" d="M 719.545, 190.524 L 724.193, 195.421 L 716.594, 201.575 L 696.72, 186.134 L 695.598, 182.65 z "/>
<path style="fill:rgb(115, 255, 134);fill-opacity:1.0;fill-rule:evenodd;stroke:rgb(0, 0, 0);stroke-width:3.0;" d="M 665.19, 390.921 L 654.904, 413.293 L 651.882, 401.136 L 657.121, 389.826 z "/>
<path style="fill:rgb(115, 255, 134);fill-opacity:1.0;fill-rule:evenodd;stroke:rgb(0, 0, 0);stroke-width:3.0;" d="M 730.773, 47.0175 L 712.989, 50.924 L 703.281, 44.0173 L 704.254, 41.7752 z "/>
<path style="fill:rgb(115, 255, 134);fill-opacity:1.0;fill-rule:evenodd;stroke:rgb(0, 0, 0);stroke-width:3.0;" d="M 709.161, 534.71 L 684.381, 572.64 L 676.259, 524.819 z "/>
<path style="fill:rgb(37, 255, 228);fill-opacity:1.0;fill-rule:evenodd;stroke:rgb(0, 0, 0);stroke-width:3.0;" d="M 176.291, 510.434 L 142.789, 508.249 L 140.534, 503.255 L 191.296, 486.916 z "/>
<path style="fill:rgb(37, 255, 228);fill-opacity:1.0;fill-rule:evenodd;stroke:rgb(0, 0, 0);stroke-width:3.0;" d="M 513.844, 198.502 L 462.281, 228.531 L 476.731, 177.114 z "/>
<path style="fill:rgb(37, 255, 228);fill-opacity:1.0;fill-rule:evenodd;stroke:rgb(0, 0, 0);stroke-width:3.0;" d="M 439.695, 308.893 L 165.715, 337.647 L 271.501, 194.052 L 503.604, 81.4984 z "/>
<path style="fill:rgb(255, 255, 57);fill-opacity:1.0;fill-rule:evenodd;stroke:rgb(0, 0, 0);stroke-width:3.0;" d="M 702.76, 478.013 L 715.338, 525.255 L 709.161, 534.71 L 706.089, 533.787 L 667.068, 470.698 L 667.06, 470.651 z "/>
<path style="fill:rgb(255, 255, 57);fill-opacity:1.0;fill-rule:evenodd;stroke:rgb(0, 0, 0);stroke-width:3.0;" d="M 790.556, 142.809 L 791.724, 144.757 L 777.832, 153.704 L 774.705, 152.364 L 781.472, 139.703 z "/>
<path style="fill:rgb(255, 255, 57);fill-opacity:1.0;fill-rule:evenodd;stroke:rgb(0, 0, 0);stroke-width:3.0;" d="M 168.752, 205.422 L 173.382, 216.818 L 158.051, 229.546 L 161.727, 201.159 z "/>
<path style="fill:rgb(255, 255, 57);fill-opacity:1.0;fill-rule:evenodd;stroke:rgb(0, 0, 0);stroke-width:3.0;" d="M 696.416, 325.55 L 679.426, 390.376 L 616.049, 152.343 L 620.763, 109.65 z "/>
<path style="fill:rgb(255, 226, 6);fill-opacity:1.0;fill-rule:evenodd;stroke:rgb(0, 0, 0);stroke-width:3.0;" d="M 746.78, 136.788 L 743.99, 139.243 L 744.039, 77.0331 L 752.576, 73.799 z "/>
<path style="fill:rgb(255, 226, 6);fill-opacity:1.0;fill-rule:evenodd;stroke:rgb(0, 0, 0);stroke-width:3.0;" d="M 757.06, 330.483 L 756.909, 451.587 L 749.846, 427.691 L 750.933, 291.534 z "/>
<path style="fill:rgb(255, 226, 6);fill-opacity:1.0;fill-rule:evenodd;stroke:rgb(0, 0, 0);stroke-width:3.0;" d="M 729.668, 178.244 L 718.747, 182.719 L 711.596, 181.72 L 710.884, 179.225 L 725.037, 172.281 z "/>
<path style="fill:rgb(255, 226, 6);fill-opacity:1.0;fill-rule:evenodd;stroke:rgb(0, 0, 0);stroke-width:3.0;" d="M 740.333, 220.019 L 741.02, 245.334 L 725.532, 274.856 L 724.666, 272.945 L 696.72, 186.134 z "/>
<path style="fill:rgb(10, 240, 226);fill-opacity:1.0;fill-rule:evenodd;stroke:rgb(0, 0, 0);stroke-width:3.0;" d="M 142.066, 455.685 L 130.578, 505.927 L 54.0614, 466.285 L 60.8581, 433.674 z "/>
<path style="fill:rgb(10, 240, 226);fill-opacity:1.0;fill-rule:evenodd;stroke:rgb(0, 0, 0);stroke-width:3.0;" d="M 791.877, 515.463 L 792.473, 526.156 L 783.254, 540.719 L 757.635, 454.043 L 762.762, 445.773 z "/>
<path style="fill:rgb(10, 240, 226);fill-opacity:1.0;fill-rule:evenodd;stroke:rgb(0, 0, 0);stroke-width:3.0;" d="M 778.151, 292.478 L 764.431, 295.838 L 759.231, 267.2 z "/>
<path style="fill:rgb(10, 240, 226);fill-opacity:1.0;fill-rule:evenodd;stroke:rgb(0, 0, 0);stroke-width:3.0;" d="M 690.649, 432.525 L 691.13, 434.333 L 667.254, 446.244 L 667.253, 446.244 L 669.243, 427.909 L 674.22, 414.191 z "/>
<path style="fill:rgb(10, 240, 226);fill-opacity:1.0;fill-rule:evenodd;stroke:rgb(0, 0, 0);stroke-width:3.0;" d="M 380.293, 520.254 L 365.832, 571.71 L 302.838, 576.388 L 328.68, 510.352 L 342.06, 509.891 z "/>
<path style="fill:rgb(107, 144, 255);fill-opacity:1.0;fill-rule:evenodd;stroke:rgb(0, 0, 0);stroke-width:3.0;" d="M 780.092, 417.82 L 757.635, 454.043 L 756.909, 451.587 L 756.97, 402.565 L 775.267, 391.731 z "/>
<path style="fill:rgb(107, 144, 255);fill-opacity:1.0;fill-rule:evenodd;stroke:rgb(0, 0, 0);stroke-width:3.0;" d="M 681.535, 555.88 L 681.045, 568.266 L 673.258, 550.757 L 671.036, 539.643 L 677.489, 532.058 z "/>
<path style="fill:rgb(65, 22, 255);fill-opacity:1.0;fill-rule:evenodd;stroke:rgb(0, 0, 0);stroke-width:3.0;" d="M 49.4784, 191.957 L 51.8999, 199.752 L 27.3903, 194.176 L 37.3589, 184.89 z "/>
<path style="fill:rgb(65, 22, 255);fill-opacity:1.0;fill-rule:evenodd;stroke:rgb(0, 0, 0);stroke-width:3.0;" d="M 448.174, 490.457 L 407.699, 422.74 L 426.738, 354.997 z "/>
<path style="fill:rgb(223, 154, 255);fill-opacity:1.0;fill-rule:evenodd;stroke:rgb(0, 0, 0);stroke-width:3.0;" d="M 305.791, 568.84 L 302.838, 576.388 L 283.318, 577.838 L 286.385, 552.821 z "/>
<path style="fill:rgb(98, 234, 255);fill-opacity:1.0;fill-rule:evenodd;stroke:rgb(0, 0, 0);stroke-width:3.0;" d="M 105.07, 68.3942 L 122.979, 113.827 L 107.175, 114.237 L 86.7178, 53.3499 z "/>
<path style="fill:rgb(98, 234, 255);fill-opacity:1.0;fill-rule:evenodd;stroke:rgb(0, 0, 0);stroke-width:3.0;" d="M 221.466, 477.205 L 140.097, 503.396 L 136.262, 481.065 L 142.066, 455.685 z "/>
<path style="fill:rgb(98, 234, 255);fill-opacity:1.0;fill-rule:evenodd;stroke:rgb(0, 0, 0);stroke-width:3.0;" d="M 643.824, 68.9908 L 686.79, 214.359 L 697.159, 279.493 L 607.677, 71.5755 L 609.904, 31.0045 z "/>
<path style="fill:rgb(228, 249, 29);fill-opacity:1.0;fill-rule:evenodd;stroke:rgb(0, 0, 0);stroke-width:3.0;" d="M 740.121, 212.205 L 740.333, 220.019 L 716.594, 201.575 L 724.193, 195.421 z "/>
<path style="fill:rgb(237, 138, 134);fill-opacity:1.0;fill-rule:evenodd;stroke:rgb(0, 0, 0);stroke-width:3.0;" d="M 715.718, 312.228 L 710.56, 310.63 L 701.351, 289.232 L 706.767, 281.945 z "/>
<path style="fill:rgb(237, 138, 134);fill-opacity:1.0;fill-rule:evenodd;stroke:rgb(0, 0, 0);stroke-width:3.0;" d="M 582.11, 22.0115 L 542.304, 43.0348 L 533.406, 28.0056 L 584.591, 7.57214 z "/>
<path style="fill:rgb(37, 43, 234);fill-opacity:1.0;fill-rule:evenodd;stroke:rgb(0, 0, 0);stroke-width:3.0;" d="M 644.623, 65.9419 L 643.729, 60.6608 L 688.613, 56.2788 z "/>
<path style="fill:rgb(252, 6, 7);fill-opacity:1.0;fill-rule:evenodd;stroke:rgb(0, 0, 0);stroke-width:3.0;" d="M 755.946, 270.658 L 770.355, 315.347 L 763.661, 308.751 L 758.681, 302.049 L 752.709, 269.759 z "/>
<path style="fill:rgb(21, 0, 255);fill-opacity:1.0;fill-rule:evenodd;stroke:rgb(0, 0, 0);stroke-width:3.0;" d="M 735.837, 54.4006 L 734.782, 15.5144 L 741.009, 11.322 L 753.953, 9.05574 z "/>
<path style="fill:rgb(215, 16, 19);fill-opacity:1.0;fill-rule:evenodd;stroke:rgb(0, 0, 0);stroke-width:3.0;" d="M 208.373, 173.6 L 216.099, 181.352 L 201.112, 193.795 L 166.782, 164.213 z "/>
<path style="fill:rgb(215, 16, 19);fill-opacity:1.0;fill-rule:evenodd;stroke:rgb(0, 0, 0);stroke-width:3.0;" d="M 186.437, 168.649 L 166.519, 164.153 L 168.102, 151.923 L 230.029, 144.42 z "/>
<path style="fill:rgb(215, 16, 19);fill-opacity:1.0;fill-rule:evenodd;stroke:rgb(0, 0, 0);stroke-width:3.0;" d="M 287.179, 546.342 L 284.075, 571.662 L 265.972, 554.086 L 261.933, 541.371 L 262.996, 525.162 z "/>
<path style="fill:rgb(215, 16, 19);fill-opacity:1.0;fill-rule:evenodd;stroke:rgb(0, 0, 0);stroke-width:3.0;" d="M 198.804, 523.212 L 176.615, 529.778 L 167.096, 524.846 L 191.296, 486.916 L 202.279, 483.381 z "/>
<path style="fill:rgb(177, 192, 255);fill-opacity:1.0;fill-rule:evenodd;stroke:rgb(0, 0, 0);stroke-width:3.0;" d="M 700.874, 470.929 L 702.76, 478.013 L 667.06, 470.651 L 665.562, 461.829 L 667.253, 446.244 z "/>
<path style="fill:rgb(177, 192, 255);fill-opacity:1.0;fill-rule:evenodd;stroke:rgb(0, 0, 0);stroke-width:3.0;" d="M 293.268, 496.667 L 291.382, 512.046 L 268.534, 506.217 L 268.518, 502.584 L 290.787, 495.994 z "/>
<path style="fill:rgb(249, 255, 39);fill-opacity:1.0;fill-rule:evenodd;stroke:rgb(0, 0, 0);stroke-width:3.0;" d="M 779.762, 88.4998 L 769.341, 111.077 L 767.196, 72.5893 z "/>
<path style="fill:rgb(243, 33, 37);fill-opacity:1.0;fill-rule:evenodd;stroke:rgb(0, 0, 0);stroke-width:3.0;" d="M 542.157, 214.82 L 514.635, 245.239 L 475.245, 251.857 L 524.91, 204.88 z "/>
<path style="fill:rgb(243, 33, 37);fill-opacity:1.0;fill-rule:evenodd;stroke:rgb(0, 0, 0);stroke-width:3.0;" d="M 656.182, 349.734 L 631.322, 350.054 L 594.584, 310.103 L 594.731, 307.43 z "/>
<path style="fill:rgb(255, 154, 34);fill-opacity:1.0;fill-rule:evenodd;stroke:rgb(0, 0, 0);stroke-width:3.0;" d="M 275.42, 188.733 L 211.77, 174.366 L 276.071, 138.842 L 315.713, 134.039 z "/>
<path style="fill:rgb(255, 154, 34);fill-opacity:1.0;fill-rule:evenodd;stroke:rgb(0, 0, 0);stroke-width:3.0;" d="M 735.455, 40.3195 L 716.569, 41.5321 L 732.464, 24.7295 L 735.005, 23.7218 z "/>
<path style="fill:rgb(255, 154, 34);fill-opacity:1.0;fill-rule:evenodd;stroke:rgb(0, 0, 0);stroke-width:3.0;" d="M 565.052, 45.6045 L 564.263, 50.7932 L 563.555, 51.67 L 540.47, 48.5727 L 541.023, 45.5182 z "/>
<path style="fill:rgb(255, 154, 34);fill-opacity:1.0;fill-rule:evenodd;stroke:rgb(0, 0, 0);stroke-width:3.0;" d="M 384.502, 516.076 L 382.376, 512.843 L 389.858, 486.221 L 396.061, 480.74 z "/>
<path style="fill:rgb(74, 234, 255);fill-opacity:1.0;fill-rule:evenodd;stroke:rgb(0, 0, 0);stroke-width:3.0;" d="M 560.49, 225.386 L 580.73, 274.848 L 588.124, 342.948 L 496.551, 324.739 L 545.156, 216.548 z "/>
<path style="fill:rgb(74, 234, 255);fill-opacity:1.0;fill-rule:evenodd;stroke:rgb(0, 0, 0);stroke-width:3.0;" d="M 738.368, 147.623 L 739.007, 171.162 L 700.499, 170.454 L 698.127, 167.955 L 722.284, 130.521 z "/>
<path style="fill:rgb(82, 44, 255);fill-opacity:1.0;fill-rule:evenodd;stroke:rgb(0, 0, 0);stroke-width:3.0;" d="M 699.867, 44.8448 L 709.136, 51.7706 L 702.436, 53.2422 L 677.363, 38.3404 L 681.343, 36.2337 z "/>
<path style="fill:rgb(82, 44, 255);fill-opacity:1.0;fill-rule:evenodd;stroke:rgb(0, 0, 0);stroke-width:3.0;" d="M 211.77, 174.366 L 186.437, 168.649 L 230.029, 144.42 L 276.071, 138.842 z "/>
<path style="fill:rgb(82, 44, 255);fill-opacity:1.0;fill-rule:evenodd;stroke:rgb(0, 0, 0);stroke-width:3.0;" d="M 721.404, 396.86 L 718.857, 441.938 L 693.349, 442.666 L 679.426, 390.376 L 684.015, 372.868 L 708.171, 359.096 z "/>
<path style="fill:rgb(255, 123, 24);fill-opacity:1.0;fill-rule:evenodd;stroke:rgb(0, 0, 0);stroke-width:3.0;" d="M 658.855, 386.082 L 645.552, 414.802 L 636.381, 391.309 L 632.45, 360.291 z "/>
<path style="fill:rgb(255, 123, 24);fill-opacity:1.0;fill-rule:evenodd;stroke:rgb(0, 0, 0);stroke-width:3.0;" d="M 779.561, 16.4598 L 777.231, 21.066 L 765.954, 15.2068 L 774.695, 6.30466 L 776.57, 5.30836 z "/>
<path style="fill:rgb(255, 123, 24);fill-opacity:1.0;fill-rule:evenodd;stroke:rgb(0, 0, 0);stroke-width:3.0;" d="M 154.933, 253.632 L 158.051, 229.546 L 161.389, 226.775 L 236.658, 224.178 z "/>
<path style="fill:rgb(255, 123, 24);fill-opacity:1.0;fill-rule:evenodd;stroke:rgb(0, 0, 0);stroke-width:3.0;" d="M 219.157, 551.818 L 218.267, 572.531 L 205.443, 571.582 L 216.101, 550.235 z "/>
<path style="fill:rgb(255, 123, 24);fill-opacity:1.0;fill-rule:evenodd;stroke:rgb(0, 0, 0);stroke-width:3.0;" d="M 163.877, 116.603 L 119.692, 151.494 L 107.175, 114.237 L 159.34, 112.884 z "/>
<path style="fill:rgb(207, 91, 255);fill-opacity:1.0;fill-rule:evenodd;stroke:rgb(0, 0, 0);stroke-width:3.0;" d="M 632.745, 31.5077 L 610.006, 29.1326 L 611.04, 10.3078 L 625.344, 6.46988 z "/>
<path style="fill:rgb(246, 246, 33);fill-opacity:1.0;fill-rule:evenodd;stroke:rgb(0, 0, 0);stroke-width:3.0;" d="M 676.387, 380.943 L 673.05, 395.431 L 664.808, 386.469 L 664.612, 383.337 L 670.696, 380.656 z "/>
<path style="fill:rgb(255, 212, 7);fill-opacity:1.0;fill-rule:evenodd;stroke:rgb(0, 0, 0);stroke-width:3.0;" d="M 721.909, 591.726 L 718.477, 594.855 L 706.698, 594.919 L 709.958, 582.136 z "/>
<path style="fill:rgb(255, 255, 8);fill-opacity:1.0;fill-rule:evenodd;stroke:rgb(0, 0, 0);stroke-width:3.0;" d="M 789.172, 466.913 L 791.877, 515.463 L 762.762, 445.773 L 780.092, 417.82 z "/>
<path style="fill:rgb(255, 255, 8);fill-opacity:1.0;fill-rule:evenodd;stroke:rgb(0, 0, 0);stroke-width:3.0;" d="M 691.058, 198.818 L 690.646, 213.417 L 681.871, 197.714 L 677.599, 183.263 L 682.241, 179.37 z "/>
<path style="fill:rgb(255, 255, 8);fill-opacity:1.0;fill-rule:evenodd;stroke:rgb(0, 0, 0);stroke-width:3.0;" d="M 177.735, 575.981 L 160.241, 584.549 L 158.863, 572.862 z "/>
<path style="fill:rgb(249, 240, 46);fill-opacity:1.0;fill-rule:evenodd;stroke:rgb(0, 0, 0);stroke-width:3.0;" d="M 605.863, 104.611 L 598.046, 247.029 L 543.164, 215.4 L 542.881, 80.9477 z "/>
<path style="fill:rgb(249, 240, 46);fill-opacity:1.0;fill-rule:evenodd;stroke:rgb(0, 0, 0);stroke-width:3.0;" d="M 589.676, 74.0942 L 571.424, 80.15 L 574.747, 54.7508 z "/>
<path style="fill:rgb(249, 240, 46);fill-opacity:1.0;fill-rule:evenodd;stroke:rgb(0, 0, 0);stroke-width:3.0;" d="M 626.225, 365.292 L 622.763, 387.742 L 619.681, 395.492 L 588.753, 416.331 L 591.809, 360.667 L 620.72, 351.19 z "/>
<path style="fill:rgb(249, 240, 46);fill-opacity:1.0;fill-rule:evenodd;stroke:rgb(0, 0, 0);stroke-width:3.0;" d="M 592.731, 343.864 L 583.981, 503.277 L 437.618, 423.752 L 426.738, 354.997 L 438.487, 313.194 z "/>
<path style="fill:rgb(249, 240, 46);fill-opacity:1.0;fill-rule:evenodd;stroke:rgb(0, 0, 0);stroke-width:3.0;" d="M 781.327, 326.158 L 782.097, 339.964 L 773.418, 381.734 L 764.786, 335.06 L 777.85, 322.732 z "/>
<path style="fill:rgb(249, 240, 46);fill-opacity:1.0;fill-rule:evenodd;stroke:rgb(0, 0, 0);stroke-width:3.0;" d="M 737.972, 133.023 L 725.468, 133.907 L 722.284, 130.521 L 737.273, 107.293 z "/>
<path style="fill:rgb(255, 70, 36);fill-opacity:1.0;fill-rule:evenodd;stroke:rgb(0, 0, 0);stroke-width:3.0;" d="M 262.824, 525.011 L 246.893, 533.616 L 239.736, 530.017 L 251.163, 514.798 z "/>
<path style="fill:rgb(6, 86, 249);fill-opacity:1.0;fill-rule:evenodd;stroke:rgb(0, 0, 0);stroke-width:3.0;" d="M 227.064, 523.644 L 240.66, 540.002 L 178.949, 529.087 L 216.054, 518.108 z "/>
<path style="fill:rgb(6, 86, 249);fill-opacity:1.0;fill-rule:evenodd;stroke:rgb(0, 0, 0);stroke-width:3.0;" d="M 671.661, 497.744 L 660.744, 501.239 L 660.356, 501.183 L 656.318, 483.386 L 668.202, 477.374 z "/>
<path style="fill:rgb(255, 199, 255);fill-opacity:1.0;fill-rule:evenodd;stroke:rgb(0, 0, 0);stroke-width:3.0;" d="M 613.247, 464.67 L 610.674, 466.095 L 596.239, 454.454 L 600.718, 443.189 z "/>
<path style="fill:rgb(72, 52, 255);fill-opacity:1.0;fill-rule:evenodd;stroke:rgb(0, 0, 0);stroke-width:3.0;" d="M 315.713, 134.039 L 168.102, 151.923 L 170.007, 137.213 L 172.399, 135.712 L 407.152, 9.91913 z "/>
<path style="fill:rgb(255, 189, 15);fill-opacity:1.0;fill-rule:evenodd;stroke:rgb(0, 0, 0);stroke-width:3.0;" d="M 729.217, 26.0173 L 717.591, 30.6289 L 708.455, 21.8825 L 717.133, 17.2892 z "/>
<path style="fill:rgb(255, 189, 15);fill-opacity:1.0;fill-rule:evenodd;stroke:rgb(0, 0, 0);stroke-width:3.0;" d="M 305.791, 568.84 L 290.07, 555.862 L 323.781, 522.87 z "/>
<path style="fill:rgb(255, 189, 15);fill-opacity:1.0;fill-rule:evenodd;stroke:rgb(0, 0, 0);stroke-width:3.0;" d="M 47.7741, 549.471 L 13.4859, 567.491 L 8.82462, 560.097 L 29.9132, 535.128 z "/>
<path style="fill:rgb(255, 189, 15);fill-opacity:1.0;fill-rule:evenodd;stroke:rgb(0, 0, 0);stroke-width:3.0;" d="M 249.084, 512.977 L 239.445, 529.87 L 226.08, 523.15 L 235.366, 512.393 L 245.122, 509.506 z "/>
<path style="fill:rgb(255, 189, 15);fill-opacity:1.0;fill-rule:evenodd;stroke:rgb(0, 0, 0);stroke-width:3.0;" d="M 203.557, 533.44 L 205.075, 544.523 L 176.615, 529.778 L 178.949, 529.087 z "/>
<path style="fill:rgb(255, 202, 44);fill-opacity:1.0;fill-rule:evenodd;stroke:rgb(0, 0, 0);stroke-width:3.0;" d="M 168.956, 525.81 L 173.552, 553.171 L 169.543, 553.863 L 166.148, 540.815 L 168.439, 525.542 z "/>
<path style="fill:rgb(255, 202, 44);fill-opacity:1.0;fill-rule:evenodd;stroke:rgb(0, 0, 0);stroke-width:3.0;" d="M 216.101, 550.235 L 205.443, 571.582 L 162.016, 568.368 L 164.049, 554.81 L 209.727, 546.933 z "/>
<path style="fill:rgb(255, 202, 44);fill-opacity:1.0;fill-rule:evenodd;stroke:rgb(0, 0, 0);stroke-width:3.0;" d="M 86.7178, 53.3499 L 119.536, 151.03 L 11.8286, 70.7591 L 8.02257, 58.507 L 68.2749, 38.2309 z "/>
<path style="fill:rgb(255, 202, 44);fill-opacity:1.0;fill-rule:evenodd;stroke:rgb(0, 0, 0);stroke-width:3.0;" d="M 261.778, 543.737 L 259.865, 572.908 L 205.075, 544.523 L 203.557, 533.44 z "/>
<path style="fill:rgb(168, 207, 255);fill-opacity:1.0;fill-rule:evenodd;stroke:rgb(0, 0, 0);stroke-width:3.0;" d="M 380.293, 520.254 L 100.065, 444.301 L 105.575, 419.282 L 165.715, 337.647 L 439.695, 308.893 z "/>
<path style="fill:rgb(168, 207, 255);fill-opacity:1.0;fill-rule:evenodd;stroke:rgb(0, 0, 0);stroke-width:3.0;" d="M 781.472, 139.703 L 771.973, 157.477 L 771.928, 157.506 L 770.732, 136.031 z "/>
<path style="fill:rgb(168, 207, 255);fill-opacity:1.0;fill-rule:evenodd;stroke:rgb(0, 0, 0);stroke-width:3.0;" d="M 607.87, 68.0578 L 590.251, 73.9033 L 574.986, 52.9188 L 578.802, 23.7588 L 611.242, 6.62561 z "/>
<path style="fill:rgb(168, 207, 255);fill-opacity:1.0;fill-rule:evenodd;stroke:rgb(0, 0, 0);stroke-width:3.0;" d="M 45.1957, 19.3113 L 32.4716, 22.3887 L 30.283, 7.08617 z "/>
<path style="fill:rgb(168, 207, 255);fill-opacity:1.0;fill-rule:evenodd;stroke:rgb(0, 0, 0);stroke-width:3.0;" d="M 655.818, 441.1 L 642.027, 448.735 L 605.182, 431.96 L 610.551, 418.456 L 630.014, 383.709 L 632.722, 381.936 z "/>
<path style="fill:rgb(168, 207, 255);fill-opacity:1.0;fill-rule:evenodd;stroke:rgb(0, 0, 0);stroke-width:3.0;" d="M 77.1821, 119.465 L 117.999, 169.853 L 54.9115, 209.446 L 11.8286, 70.7591 z "/>
<path style="fill:rgb(255, 226, 50);fill-opacity:1.0;fill-rule:evenodd;stroke:rgb(0, 0, 0);stroke-width:3.0;" d="M 265.948, 576.06 L 269.676, 577.991 L 277.127, 585.293 L 198.313, 571.209 L 197.994, 571.031 z "/>
<path style="fill:rgb(255, 226, 50);fill-opacity:1.0;fill-rule:evenodd;stroke:rgb(0, 0, 0);stroke-width:3.0;" d="M 545.156, 216.548 L 496.551, 324.739 L 450.918, 315.666 L 542.157, 214.82 z "/>
<path style="fill:rgb(255, 204, 22);fill-opacity:1.0;fill-rule:evenodd;stroke:rgb(0, 0, 0);stroke-width:3.0;" d="M 708.221, 574.928 L 704.245, 584.237 L 700.304, 584.05 L 697.204, 572.509 L 699.742, 568.75 z "/>
<path style="fill:rgb(255, 204, 22);fill-opacity:1.0;fill-rule:evenodd;stroke:rgb(0, 0, 0);stroke-width:3.0;" d="M 492.284, 564.256 L 477.626, 558.705 L 476.837, 538.412 z "/>
<path style="fill:rgb(255, 204, 22);fill-opacity:1.0;fill-rule:evenodd;stroke:rgb(0, 0, 0);stroke-width:3.0;" d="M 573.867, 61.4743 L 571.424, 80.15 L 568.324, 81.1785 L 519.409, 55.1269 L 532.451, 48.239 z "/>
<path style="fill:rgb(255, 255, 7);fill-opacity:1.0;fill-rule:evenodd;stroke:rgb(0, 0, 0);stroke-width:3.0;" d="M 222.894, 516.084 L 211.388, 519.488 L 229.897, 481.977 z "/>
<path style="fill:rgb(255, 255, 7);fill-opacity:1.0;fill-rule:evenodd;stroke:rgb(0, 0, 0);stroke-width:3.0;" d="M 287.179, 546.342 L 276.061, 536.605 L 281.374, 528.981 L 283.978, 527.631 L 289.519, 527.249 z "/>
<path style="fill:rgb(255, 255, 7);fill-opacity:1.0;fill-rule:evenodd;stroke:rgb(0, 0, 0);stroke-width:3.0;" d="M 577.21, 35.9242 L 552.337, 45.5588 L 537.625, 45.506 L 552.912, 37.4326 L 577.398, 34.4864 z "/>
<path style="fill:rgb(255, 255, 7);fill-opacity:1.0;fill-rule:evenodd;stroke:rgb(0, 0, 0);stroke-width:3.0;" d="M 180.775, 130.455 L 124.491, 165.778 L 121.022, 155.453 L 153.925, 130.811 L 173.77, 124.713 z "/>
<path style="fill:rgb(234, 18, 159);fill-opacity:1.0;fill-rule:evenodd;stroke:rgb(0, 0, 0);stroke-width:3.0;" d="M 587.182, 524.607 L 582.912, 522.752 L 585.249, 480.173 L 591.851, 476.517 z "/>
<path style="fill:rgb(234, 18, 159);fill-opacity:1.0;fill-rule:evenodd;stroke:rgb(0, 0, 0);stroke-width:3.0;" d="M 730.289, 592.767 L 725.574, 594.667 L 706.371, 579.258 L 710.881, 568.698 z "/>
<path style="fill:rgb(234, 18, 159);fill-opacity:1.0;fill-rule:evenodd;stroke:rgb(0, 0, 0);stroke-width:3.0;" d="M 162.016, 568.368 L 143.999, 567.035 L 164.827, 549.622 z "/>
<path style="fill:rgb(234, 18, 159);fill-opacity:1.0;fill-rule:evenodd;stroke:rgb(0, 0, 0);stroke-width:3.0;" d="M 776.383, 237.44 L 767.105, 277.721 L 749.941, 254.788 L 745.55, 231.048 L 770.74, 136.182 z "/>
<path style="fill:rgb(49, 255, 234);fill-opacity:1.0;fill-rule:evenodd;stroke:rgb(0, 0, 0);stroke-width:3.0;" d="M 660.039, 451.915 L 646.218, 511.92 L 584.928, 547.828 L 591.851, 476.517 L 655.818, 441.1 z "/>
<path style="fill:rgb(255, 182, 33);fill-opacity:1.0;fill-rule:evenodd;stroke:rgb(0, 0, 0);stroke-width:3.0;" d="M 166.782, 164.213 L 201.112, 193.795 L 173.382, 216.818 L 163.006, 191.282 L 166.519, 164.153 z "/>
<path style="fill:rgb(255, 108, 14);fill-opacity:1.0;fill-rule:evenodd;stroke:rgb(0, 0, 0);stroke-width:3.0;" d="M 89.336, 511.332 L 97.2314, 523.48 L 57.1277, 544.556 L 56.5263, 543.956 L 73.5568, 497.374 z "/>
<path style="fill:rgb(255, 108, 14);fill-opacity:1.0;fill-rule:evenodd;stroke:rgb(0, 0, 0);stroke-width:3.0;" d="M 655.615, 557.77 L 654.237, 559.389 L 641.112, 534.085 L 643.684, 522.919 z "/>
<path style="fill:rgb(234, 255, 255);fill-opacity:1.0;fill-rule:evenodd;stroke:rgb(0, 0, 0);stroke-width:3.0;" d="M 129.04, 552.42 L 129.833, 556.085 L 113.152, 564.752 L 30.3573, 558.625 L 81.8888, 531.543 z "/>
<path style="fill:rgb(223, 255, 20);fill-opacity:1.0;fill-rule:evenodd;stroke:rgb(0, 0, 0);stroke-width:3.0;" d="M 569.582, 230.625 L 576.351, 234.526 L 577.072, 241.164 L 567.481, 242.469 L 561.922, 228.883 z "/>
<path style="fill:rgb(223, 255, 20);fill-opacity:1.0;fill-rule:evenodd;stroke:rgb(0, 0, 0);stroke-width:3.0;" d="M 730.782, 449.886 L 702.389, 476.62 L 698.582, 462.321 L 715.774, 446.023 z "/>
<path style="fill:rgb(223, 255, 20);fill-opacity:1.0;fill-rule:evenodd;stroke:rgb(0, 0, 0);stroke-width:3.0;" d="M 119.536, 151.03 L 124.491, 165.778 L 117.999, 169.853 L 87.2017, 131.834 L 93.3907, 131.545 z "/>
<path style="fill:rgb(234, 2, 65);fill-opacity:1.0;fill-rule:evenodd;stroke:rgb(0, 0, 0);stroke-width:3.0;" d="M 340.048, 160.812 L 271.501, 194.052 L 319.998, 128.222 z "/>
<path style="fill:rgb(234, 2, 65);fill-opacity:1.0;fill-rule:evenodd;stroke:rgb(0, 0, 0);stroke-width:3.0;" d="M 128.44, 87.5525 L 122.622, 101.511 L 121.624, 103.438 L 116.34, 96.9858 L 105.07, 68.3942 z "/>
<path style="fill:rgb(234, 2, 65);fill-opacity:1.0;fill-rule:evenodd;stroke:rgb(0, 0, 0);stroke-width:3.0;" d="M 642.027, 448.735 L 632.017, 454.278 L 614.465, 449.463 L 601.115, 442.191 L 605.182, 431.96 z "/>
<path style="fill:rgb(234, 2, 65);fill-opacity:1.0;fill-rule:evenodd;stroke:rgb(0, 0, 0);stroke-width:3.0;" d="M 763.451, 5.39744 L 766.96, 68.35 L 765.979, 68.7216 L 760.89, 5.26639 z "/>
<path style="fill:rgb(234, 2, 65);fill-opacity:1.0;fill-rule:evenodd;stroke:rgb(0, 0, 0);stroke-width:3.0;" d="M 598.046, 247.029 L 592.731, 343.864 L 588.124, 342.948 L 576.351, 234.526 z "/>
<path style="fill:rgb(14, 252, 255);fill-opacity:1.0;fill-rule:evenodd;stroke:rgb(0, 0, 0);stroke-width:3.0;" d="M 130.605, 505.941 L 97.2314, 523.48 L 63.3777, 471.395 L 63.7821, 471.321 z "/>
<path style="fill:rgb(86, 79, 189);fill-opacity:1.0;fill-rule:evenodd;stroke:rgb(0, 0, 0);stroke-width:3.0;" d="M 323.781, 522.87 L 290.07, 555.862 L 286.385, 552.821 L 291.433, 511.634 L 328.68, 510.352 z "/>
<path style="fill:rgb(86, 79, 189);fill-opacity:1.0;fill-rule:evenodd;stroke:rgb(0, 0, 0);stroke-width:3.0;" d="M 290.787, 495.994 L 222.894, 516.084 L 229.897, 481.977 L 230.979, 479.784 z "/>
<path style="fill:rgb(252, 13, 9);fill-opacity:1.0;fill-rule:evenodd;stroke:rgb(0, 0, 0);stroke-width:3.0;" d="M 700.378, 197.496 L 715.037, 243.035 L 710.743, 242.236 L 688.51, 193.197 L 688.97, 184.68 z "/>
<path style="fill:rgb(252, 13, 9);fill-opacity:1.0;fill-rule:evenodd;stroke:rgb(0, 0, 0);stroke-width:3.0;" d="M 543.164, 215.4 L 476.731, 177.114 L 485.19, 147.016 L 543.013, 143.902 z "/>
<path style="fill:rgb(123, 237, 255);fill-opacity:1.0;fill-rule:evenodd;stroke:rgb(0, 0, 0);stroke-width:3.0;" d="M 542.881, 80.9477 L 543.013, 143.902 L 485.19, 147.016 L 507.495, 67.6531 z "/>
<path style="fill:rgb(255, 246, 75);fill-opacity:1.0;fill-rule:evenodd;stroke:rgb(0, 0, 0);stroke-width:3.0;" d="M 672.98, 537.358 L 662.335, 549.871 L 643.685, 522.923 L 643.684, 522.919 L 643.71, 522.808 L 661.579, 511.105 z "/>
<path style="fill:rgb(255, 246, 75);fill-opacity:1.0;fill-rule:evenodd;stroke:rgb(0, 0, 0);stroke-width:3.0;" d="M 775.267, 391.731 L 756.97, 402.565 L 757.106, 293.533 z "/>
<path style="fill:rgb(249, 255, 20);fill-opacity:1.0;fill-rule:evenodd;stroke:rgb(0, 0, 0);stroke-width:3.0;" d="M 661.533, 353.418 L 663.065, 358.587 L 664.171, 376.271 L 658.225, 379.309 L 631.322, 350.054 L 656.182, 349.734 z "/>
<path style="fill:rgb(249, 255, 20);fill-opacity:1.0;fill-rule:evenodd;stroke:rgb(0, 0, 0);stroke-width:3.0;" d="M 610.674, 466.095 L 599.074, 472.518 L 591.038, 467.536 L 596.239, 454.454 z "/>
<path style="fill:rgb(252, 23, 192);fill-opacity:1.0;fill-rule:evenodd;stroke:rgb(0, 0, 0);stroke-width:3.0;" d="M 697.431, 167.222 L 696.421, 168.554 L 678.066, 159.993 L 681.177, 153.7 L 683.403, 152.44 z "/>
<path style="fill:rgb(255, 24, 146);fill-opacity:1.0;fill-rule:evenodd;stroke:rgb(0, 0, 0);stroke-width:3.0;" d="M 662.335, 549.871 L 655.615, 557.77 L 650.909, 544.024 L 651.096, 533.631 z "/>
<path style="fill:rgb(255, 24, 146);fill-opacity:1.0;fill-rule:evenodd;stroke:rgb(0, 0, 0);stroke-width:3.0;" d="M 770.74, 136.182 L 754.255, 198.266 L 743.089, 176.901 L 752.576, 73.799 L 766.96, 68.35 z "/>
<path style="fill:rgb(255, 24, 146);fill-opacity:1.0;fill-rule:evenodd;stroke:rgb(0, 0, 0);stroke-width:3.0;" d="M 696.166, 277.184 L 725.52, 345.391 L 756.021, 448.586 L 761.787, 512.106 L 675.985, 267.244 z "/>
<path style="fill:rgb(255, 24, 146);fill-opacity:1.0;fill-rule:evenodd;stroke:rgb(0, 0, 0);stroke-width:3.0;" d="M 159.34, 112.884 L 122.979, 113.827 L 120.311, 107.058 L 128.44, 87.5525 z "/>
<path style="fill:rgb(38, 182, 249);fill-opacity:1.0;fill-rule:evenodd;stroke:rgb(0, 0, 0);stroke-width:3.0;" d="M 776.128, 572.025 L 751.48, 554.741 L 753.848, 547.431 z "/>
<path style="fill:rgb(38, 182, 249);fill-opacity:1.0;fill-rule:evenodd;stroke:rgb(0, 0, 0);stroke-width:3.0;" d="M 230.979, 479.784 L 211.388, 519.488 L 200.44, 522.728 L 199.044, 520.453 L 202.279, 483.381 L 221.466, 477.205 z "/>
<path style="fill:rgb(38, 182, 249);fill-opacity:1.0;fill-rule:evenodd;stroke:rgb(0, 0, 0);stroke-width:3.0;" d="M 324.995, 505.266 L 324.171, 506.999 L 300.716, 509.751 L 299.411, 509.466 L 304.684, 499.761 z "/>
<path style="fill:rgb(38, 182, 249);fill-opacity:1.0;fill-rule:evenodd;stroke:rgb(0, 0, 0);stroke-width:3.0;" d="M 654.904, 413.293 L 649.527, 424.986 L 645.552, 414.802 L 651.882, 401.136 z "/>
<path style="fill:rgb(157, 114, 215);fill-opacity:1.0;fill-rule:evenodd;stroke:rgb(0, 0, 0);stroke-width:3.0;" d="M 89.336, 511.332 L 53.8367, 479.929 L 62.9773, 471.467 L 63.3777, 471.395 z "/>
<path style="fill:rgb(255, 192, 59);fill-opacity:1.0;fill-rule:evenodd;stroke:rgb(0, 0, 0);stroke-width:3.0;" d="M 616.049, 152.343 L 607.285, 119.427 L 607.541, 118.629 L 620.129, 115.39 z "/>
<path style="fill:rgb(240, 6, 9);fill-opacity:1.0;fill-rule:evenodd;stroke:rgb(0, 0, 0);stroke-width:3.0;" d="M 603.422, 436.387 L 588.624, 418.695 L 588.753, 416.331 L 619.681, 395.492 z "/>
<path style="fill:rgb(240, 6, 9);fill-opacity:1.0;fill-rule:evenodd;stroke:rgb(0, 0, 0);stroke-width:3.0;" d="M 696.705, 518.615 L 702.882, 532.823 L 676.259, 524.819 L 673.036, 505.84 L 684.763, 499.307 z "/>
<path style="fill:rgb(26, 126, 212);fill-opacity:1.0;fill-rule:evenodd;stroke:rgb(0, 0, 0);stroke-width:3.0;" d="M 742.859, 313.072 L 743.129, 323.01 L 701.832, 249.225 L 691.056, 198.887 L 691.058, 198.818 z "/>
<path style="fill:rgb(26, 126, 212);fill-opacity:1.0;fill-rule:evenodd;stroke:rgb(0, 0, 0);stroke-width:3.0;" d="M 60.8581, 433.674 L 59.8233, 438.639 L 20.5423, 438.17 L 14.3161, 436.65 L 31.1321, 425.617 z "/>
<path style="fill:rgb(26, 126, 212);fill-opacity:1.0;fill-rule:evenodd;stroke:rgb(0, 0, 0);stroke-width:3.0;" d="M 778.68, 293.185 L 778.772, 323.641 L 770.355, 315.347 L 764.092, 295.921 L 778.151, 292.478 z "/>
<path style="fill:rgb(246, 18, 100);fill-opacity:1.0;fill-rule:evenodd;stroke:rgb(0, 0, 0);stroke-width:3.0;" d="M 661.112, 504.514 L 659.28, 507.506 L 647.392, 509.979 L 648.729, 501.017 L 654.567, 475.67 z "/>
<path style="fill:rgb(246, 18, 100);fill-opacity:1.0;fill-rule:evenodd;stroke:rgb(0, 0, 0);stroke-width:3.0;" d="M 32.3935, 213.375 L 15.5885, 202.606 L 9.07367, 191.497 L 17.8388, 188.498 z "/>
<path style="fill:rgb(246, 18, 100);fill-opacity:1.0;fill-rule:evenodd;stroke:rgb(0, 0, 0);stroke-width:3.0;" d="M 752.124, 266.593 L 741.956, 279.817 L 739.786, 199.883 z "/>
<path style="fill:rgb(81, 255, 252);fill-opacity:1.0;fill-rule:evenodd;stroke:rgb(0, 0, 0);stroke-width:3.0;" d="M 741.264, 254.329 L 741.516, 263.617 L 738.557, 281.355 L 728.694, 281.83 L 725.532, 274.856 L 737.456, 252.128 z "/>
<path style="fill:rgb(255, 20, 97);fill-opacity:1.0;fill-rule:evenodd;stroke:rgb(0, 0, 0);stroke-width:3.0;" d="M 603.422, 436.387 L 601.535, 441.134 L 587.275, 452.717 L 586.758, 452.682 L 588.624, 418.695 z "/>
<path style="fill:rgb(255, 20, 97);fill-opacity:1.0;fill-rule:evenodd;stroke:rgb(0, 0, 0);stroke-width:3.0;" d="M 51.2405, 211.75 L 40.4374, 218.53 L 32.3935, 213.375 L 30.5232, 210.178 L 49.3778, 209.336 z "/>
<path style="fill:rgb(36, 243, 16);fill-opacity:1.0;fill-rule:evenodd;stroke:rgb(0, 0, 0);stroke-width:3.0;" d="M 625.243, 186.87 L 604.093, 313.875 L 594.731, 307.43 L 605.432, 112.466 z "/>
<path style="fill:rgb(36, 243, 16);fill-opacity:1.0;fill-rule:evenodd;stroke:rgb(0, 0, 0);stroke-width:3.0;" d="M 102.26, 540.563 L 81.8888, 531.543 L 108.256, 517.686 z "/>
<path style="fill:rgb(23, 246, 226);fill-opacity:1.0;fill-rule:evenodd;stroke:rgb(0, 0, 0);stroke-width:3.0;" d="M 699.077, 236.354 L 697.68, 236.4 L 695.135, 230.858 L 690.526, 217.693 L 691.056, 198.887 z "/>
<path style="fill:rgb(22, 10, 179);fill-opacity:1.0;fill-rule:evenodd;stroke:rgb(0, 0, 0);stroke-width:3.0;" d="M 579.393, 586.87 L 579.698, 581.3 L 600.003, 538.996 L 605.801, 535.599 z "/>
<path style="fill:rgb(22, 10, 179);fill-opacity:1.0;fill-rule:evenodd;stroke:rgb(0, 0, 0);stroke-width:3.0;" d="M 749.846, 427.691 L 745.578, 413.254 L 741.994, 281.207 L 751.077, 273.605 z "/>
<path style="fill:rgb(22, 10, 179);fill-opacity:1.0;fill-rule:evenodd;stroke:rgb(0, 0, 0);stroke-width:3.0;" d="M 537.006, 37.5601 L 526.229, 48.7879 L 521.228, 44.6287 L 526.963, 35.2399 z "/>
<path style="fill:rgb(22, 10, 179);fill-opacity:1.0;fill-rule:evenodd;stroke:rgb(0, 0, 0);stroke-width:3.0;" d="M 786.982, 584.007 L 710.436, 499.508 L 709.514, 469.911 L 737.702, 443.371 z "/>
<path style="fill:rgb(22, 10, 179);fill-opacity:1.0;fill-rule:evenodd;stroke:rgb(0, 0, 0);stroke-width:3.0;" d="M 550.974, 71.9382 L 530.716, 76.3774 L 507.495, 67.6531 L 509.552, 60.3327 L 519.409, 55.1269 z "/>
<path style="fill:rgb(22, 10, 179);fill-opacity:1.0;fill-rule:evenodd;stroke:rgb(0, 0, 0);stroke-width:3.0;" d="M 684.003, 407.564 L 687.513, 420.747 L 674.358, 413.811 L 678.191, 403.244 z "/>
<path style="fill:rgb(22, 10, 179);fill-opacity:1.0;fill-rule:evenodd;stroke:rgb(0, 0, 0);stroke-width:3.0;" d="M 743.129, 323.01 L 745.578, 413.254 L 714.269, 307.325 L 701.832, 249.225 z "/>
<path style="fill:rgb(24, 217, 255);fill-opacity:1.0;fill-rule:evenodd;stroke:rgb(0, 0, 0);stroke-width:3.0;" d="M 702.436, 53.2422 L 688.613, 56.2788 L 668.991, 58.1944 L 655.438, 49.9461 L 677.363, 38.3404 z "/>
<path style="fill:rgb(255, 249, 58);fill-opacity:1.0;fill-rule:evenodd;stroke:rgb(0, 0, 0);stroke-width:3.0;" d="M 193.892, 225.654 L 161.389, 226.775 L 189.926, 203.082 z "/>
<path style="fill:rgb(255, 249, 58);fill-opacity:1.0;fill-rule:evenodd;stroke:rgb(0, 0, 0);stroke-width:3.0;" d="M 68.2749, 38.2309 L 8.02257, 58.507 L 5.33423, 49.8531 L 46.7279, 20.5673 z "/>
<path style="fill:rgb(255, 249, 58);fill-opacity:1.0;fill-rule:evenodd;stroke:rgb(0, 0, 0);stroke-width:3.0;" d="M 766.113, 311.167 L 777.85, 322.732 L 771.883, 328.363 L 763.288, 326.96 L 759.829, 308.257 z "/>
<path style="fill:rgb(7, 3, 204);fill-opacity:1.0;fill-rule:evenodd;stroke:rgb(0, 0, 0);stroke-width:3.0;" d="M 63.7821, 471.321 L 39.2278, 475.788 L 33.5687, 455.668 z "/>
<path style="fill:rgb(7, 3, 204);fill-opacity:1.0;fill-rule:evenodd;stroke:rgb(0, 0, 0);stroke-width:3.0;" d="M 100.065, 444.301 L 89.2943, 441.382 L 105.575, 419.282 z "/>
<path style="fill:rgb(240, 255, 37);fill-opacity:1.0;fill-rule:evenodd;stroke:rgb(0, 0, 0);stroke-width:3.0;" d="M 58.0144, 447.318 L 54.0614, 466.285 L 42.3662, 460.226 L 41.9577, 443.398 z "/>
<path style="fill:rgb(243, 215, 8);fill-opacity:1.0;fill-rule:evenodd;stroke:rgb(0, 0, 0);stroke-width:3.0;" d="M 266.234, 514.67 L 261.109, 523.509 L 245.122, 509.506 L 263.747, 503.995 z "/>
<path style="fill:rgb(237, 154, 15);fill-opacity:1.0;fill-rule:evenodd;stroke:rgb(0, 0, 0);stroke-width:3.0;" d="M 707.084, 8.17248 L 707.223, 8.66765 L 707.193, 17.8441 L 691.197, 22.0785 L 696.062, 7.49969 z "/>
<path style="fill:rgb(255, 231, 21);fill-opacity:1.0;fill-rule:evenodd;stroke:rgb(0, 0, 0);stroke-width:3.0;" d="M 384.884, 128.662 L 388.083, 137.518 L 340.048, 160.812 L 319.998, 128.222 L 320.813, 127.116 z "/>
<path style="fill:rgb(255, 231, 21);fill-opacity:1.0;fill-rule:evenodd;stroke:rgb(0, 0, 0);stroke-width:3.0;" d="M 776.474, 60.3353 L 766.816, 65.7793 L 765.876, 48.9091 L 775.707, 45.2583 z "/>
<path style="fill:rgb(255, 2, 25);fill-opacity:1.0;fill-rule:evenodd;stroke:rgb(0, 0, 0);stroke-width:3.0;" d="M 767.061, 485.936 L 759.49, 486.8 L 756.021, 448.586 z "/>
<path style="fill:rgb(255, 240, 37);fill-opacity:1.0;fill-rule:evenodd;stroke:rgb(0, 0, 0);stroke-width:3.0;" d="M 681.131, 161.423 L 687.868, 175.099 L 674.217, 171.821 L 670.627, 159.674 L 673.678, 157.947 z "/>
<path style="fill:rgb(20, 14, 255);fill-opacity:1.0;fill-rule:evenodd;stroke:rgb(0, 0, 0);stroke-width:3.0;" d="M 786.22, 413.952 L 780.809, 421.694 L 773.932, 384.508 L 783.558, 366.181 z "/>
<path style="fill:rgb(252, 66, 24);fill-opacity:1.0;fill-rule:evenodd;stroke:rgb(0, 0, 0);stroke-width:3.0;" d="M 261.945, 541.184 L 261.778, 543.737 L 240.66, 540.002 L 227.064, 523.644 z "/>
<path style="fill:rgb(255, 228, 7);fill-opacity:1.0;fill-rule:evenodd;stroke:rgb(0, 0, 0);stroke-width:3.0;" d="M 283.141, 509.944 L 290.004, 518.246 L 284.113, 527.622 L 268.634, 528.689 L 268.587, 518.156 L 273.262, 507.423 z "/>
<path style="fill:rgb(255, 228, 7);fill-opacity:1.0;fill-rule:evenodd;stroke:rgb(0, 0, 0);stroke-width:3.0;" d="M 301.297, 54.816 L 180.775, 130.455 L 111.857, 73.9584 L 289.274, 5.69527 z "/>
<path style="fill:rgb(13, 64, 255);fill-opacity:1.0;fill-rule:evenodd;stroke:rgb(0, 0, 0);stroke-width:3.0;" d="M 716.569, 41.5321 L 706.345, 42.1885 L 704.254, 41.7752 L 707.323, 34.7019 L 732.464, 24.7295 z "/>
<path style="fill:rgb(13, 64, 255);fill-opacity:1.0;fill-rule:evenodd;stroke:rgb(0, 0, 0);stroke-width:3.0;" d="M 745.988, 145.393 L 740.58, 204.172 L 739.786, 199.883 L 738.108, 138.033 z "/>
<path style="fill:rgb(255, 255, 21);fill-opacity:1.0;fill-rule:evenodd;stroke:rgb(0, 0, 0);stroke-width:3.0;" d="M 350.58, 585.171 L 298.667, 593.011 L 282.486, 584.628 L 283.318, 577.838 L 363.473, 571.885 z "/>
<path style="fill:rgb(255, 255, 21);fill-opacity:1.0;fill-rule:evenodd;stroke:rgb(0, 0, 0);stroke-width:3.0;" d="M 259.327, 185.1 L 221.912, 218.878 L 214.959, 182.299 L 221.789, 176.628 z "/>
<path style="fill:rgb(255, 255, 21);fill-opacity:1.0;fill-rule:evenodd;stroke:rgb(0, 0, 0);stroke-width:3.0;" d="M 367.628, 31.0981 L 172.399, 135.712 L 365.605, 14.4568 z "/>
<path style="fill:rgb(255, 74, 10);fill-opacity:1.0;fill-rule:evenodd;stroke:rgb(0, 0, 0);stroke-width:3.0;" d="M 456.984, 505.197 L 467.867, 542.703 L 371.849, 554.754 L 412.441, 430.672 z "/>
<path style="fill:rgb(215, 0, 33);fill-opacity:1.0;fill-rule:evenodd;stroke:rgb(0, 0, 0);stroke-width:3.0;" d="M 223.009, 224.649 L 193.892, 225.654 L 189.926, 203.082 L 214.959, 182.299 z "/>
<path style="fill:rgb(215, 0, 33);fill-opacity:1.0;fill-rule:evenodd;stroke:rgb(0, 0, 0);stroke-width:3.0;" d="M 715.774, 446.023 L 698.582, 462.321 L 693.349, 442.666 L 701.794, 442.425 z "/>
<path style="fill:rgb(255, 165, 12);fill-opacity:1.0;fill-rule:evenodd;stroke:rgb(0, 0, 0);stroke-width:3.0;" d="M 502.285, 226.28 L 448.657, 277.006 L 462.281, 228.531 L 492.49, 210.938 z "/>
<path style="fill:rgb(255, 138, 75);fill-opacity:1.0;fill-rule:evenodd;stroke:rgb(0, 0, 0);stroke-width:3.0;" d="M 524.91, 204.88 L 502.285, 226.28 L 492.49, 210.938 L 513.844, 198.502 z "/>
<path style="fill:rgb(255, 4, 72);fill-opacity:1.0;fill-rule:evenodd;stroke:rgb(0, 0, 0);stroke-width:3.0;" d="M 737.018, 441.42 L 718.857, 441.938 L 720.254, 417.215 L 725.566, 408.738 z "/>
<path style="fill:rgb(255, 37, 234);fill-opacity:1.0;fill-rule:evenodd;stroke:rgb(0, 0, 0);stroke-width:3.0;" d="M 606.808, 87.3954 L 606.542, 92.2496 L 597.835, 98.4683 L 591.035, 94.4518 L 590.909, 86.6233 L 594.493, 82.6864 z "/>
<path style="fill:rgb(13, 6, 165);fill-opacity:1.0;fill-rule:evenodd;stroke:rgb(0, 0, 0);stroke-width:3.0;" d="M 583.981, 503.277 L 579.688, 581.483 L 484.796, 551.728 L 448.174, 490.457 L 437.618, 423.752 z "/>
<path style="fill:rgb(13, 6, 165);fill-opacity:1.0;fill-rule:evenodd;stroke:rgb(0, 0, 0);stroke-width:3.0;" d="M 518.654, 43.7112 L 513.219, 47.2851 L 517.774, 31.0802 L 527.894, 23.7336 z "/>
<path style="fill:rgb(47, 228, 255);fill-opacity:1.0;fill-rule:evenodd;stroke:rgb(0, 0, 0);stroke-width:3.0;" d="M 706.033, 352.995 L 690.348, 348.702 L 696.416, 325.55 z "/>
<path style="fill:rgb(47, 228, 255);fill-opacity:1.0;fill-rule:evenodd;stroke:rgb(0, 0, 0);stroke-width:3.0;" d="M 384.884, 128.662 L 375.655, 128.44 L 329.533, 115.279 L 363.432, 69.2647 z "/>
<path style="fill:rgb(70, 159, 255);fill-opacity:1.0;fill-rule:evenodd;stroke:rgb(0, 0, 0);stroke-width:3.0;" d="M 789.728, 476.898 L 787.302, 433.362 L 794.908, 427.897 z "/>
<path style="fill:rgb(50, 3, 209);fill-opacity:1.0;fill-rule:evenodd;stroke:rgb(0, 0, 0);stroke-width:3.0;" d="M 152.044, 517.048 L 168.439, 525.542 L 164.827, 549.622 L 143.999, 567.035 L 132.009, 566.148 L 125.996, 538.344 L 129.936, 516.184 z "/>
<path style="fill:rgb(255, 249, 20);fill-opacity:1.0;fill-rule:evenodd;stroke:rgb(0, 0, 0);stroke-width:3.0;" d="M 761.661, 577.485 L 751.809, 577.974 L 744.936, 574.944 L 750.183, 558.745 z "/>
<path style="fill:rgb(24, 20, 119);fill-opacity:1.0;fill-rule:evenodd;stroke:rgb(0, 0, 0);stroke-width:3.0;" d="M 743.987, 143.524 L 738.108, 138.033 L 736.529, 79.8779 L 744.039, 77.0331 z "/>
<path style="fill:rgb(24, 20, 119);fill-opacity:1.0;fill-rule:evenodd;stroke:rgb(0, 0, 0);stroke-width:3.0;" d="M 660.642, 319.823 L 662.796, 354.287 L 604.093, 313.875 L 625.243, 186.87 z "/>
<path style="fill:rgb(220, 255, 34);fill-opacity:1.0;fill-rule:evenodd;stroke:rgb(0, 0, 0);stroke-width:3.0;" d="M 199.351, 541.557 L 189.903, 550.208 L 173.872, 547.387 L 170.106, 526.405 z "/>
<path style="fill:rgb(246, 207, 33);fill-opacity:1.0;fill-rule:evenodd;stroke:rgb(0, 0, 0);stroke-width:3.0;" d="M 160.433, 344.818 L 139.435, 373.32 L 154.933, 253.632 L 166.863, 249.332 z "/>
<path style="fill:rgb(25, 231, 184);fill-opacity:1.0;fill-rule:evenodd;stroke:rgb(0, 0, 0);stroke-width:3.0;" d="M 249.368, 21.0496 L 111.857, 73.9584 L 102.612, 66.3796 L 248.31, 20.3326 z "/>
<path style="fill:rgb(255, 108, 255);fill-opacity:1.0;fill-rule:evenodd;stroke:rgb(0, 0, 0);stroke-width:3.0;" d="M 248.31, 20.3326 L 102.612, 66.3796 L 90.9003, 56.7786 L 233.639, 10.3933 z "/>
<path style="fill:rgb(246, 223, 14);fill-opacity:1.0;fill-rule:evenodd;stroke:rgb(0, 0, 0);stroke-width:3.0;" d="M 51.8999, 199.752 L 54.2062, 207.176 L 38.3962, 208.786 L 24.5806, 198.78 L 25.8976, 193.836 z "/>
<path style="fill:rgb(43, 12, 255);fill-opacity:1.0;fill-rule:evenodd;stroke:rgb(0, 0, 0);stroke-width:3.0;" d="M 593.78, 455.498 L 594.513, 458.796 L 586.229, 479.63 L 585.249, 480.173 L 586.603, 455.508 L 587.053, 455.464 z "/>
<path style="fill:rgb(255, 1, 217);fill-opacity:1.0;fill-rule:evenodd;stroke:rgb(0, 0, 0);stroke-width:3.0;" d="M 706.033, 352.995 L 708.171, 359.096 L 689.507, 369.737 L 688.265, 356.651 L 690.348, 348.702 z "/>
<path style="fill:rgb(255, 1, 217);fill-opacity:1.0;fill-rule:evenodd;stroke:rgb(0, 0, 0);stroke-width:3.0;" d="M 124.759, 532.622 L 109.138, 517.222 L 120.174, 511.422 z "/>
<path style="fill:rgb(255, 1, 217);fill-opacity:1.0;fill-rule:evenodd;stroke:rgb(0, 0, 0);stroke-width:3.0;" d="M 677.489, 532.058 L 672.98, 537.358 L 661.579, 511.105 L 672.694, 503.825 z "/>
<path style="fill:rgb(52, 231, 220);fill-opacity:1.0;fill-rule:evenodd;stroke:rgb(0, 0, 0);stroke-width:3.0;" d="M 656.055, 376.95 L 653.933, 381.273 L 632.45, 360.291 L 632.107, 357.578 L 632.239, 357.28 L 637.607, 356.889 z "/>
<path style="fill:rgb(255, 74, 249);fill-opacity:1.0;fill-rule:evenodd;stroke:rgb(0, 0, 0);stroke-width:3.0;" d="M 632.745, 31.5077 L 637.338, 47.0478 L 633.348, 51.541 L 624.379, 47.2151 L 609.904, 31.0045 L 610.006, 29.1326 z "/>
<path style="fill:rgb(255, 74, 249);fill-opacity:1.0;fill-rule:evenodd;stroke:rgb(0, 0, 0);stroke-width:3.0;" d="M 265.948, 576.06 L 229.296, 573.347 L 218.406, 569.282 L 219.157, 551.818 z "/>
<path style="fill:rgb(249, 18, 19);fill-opacity:1.0;fill-rule:evenodd;stroke:rgb(0, 0, 0);stroke-width:3.0;" d="M 696.166, 277.184 L 675.985, 267.244 L 607.642, 72.2063 L 607.677, 71.5755 z "/>
<path style="fill:rgb(249, 18, 19);fill-opacity:1.0;fill-rule:evenodd;stroke:rgb(0, 0, 0);stroke-width:3.0;" d="M 450.918, 315.666 L 438.487, 313.194 L 448.657, 277.006 L 475.245, 251.857 L 514.635, 245.239 z "/>
<path style="fill:rgb(65, 255, 161);fill-opacity:1.0;fill-rule:evenodd;stroke:rgb(0, 0, 0);stroke-width:3.0;" d="M 176.599, 322.873 L 160.433, 344.818 L 166.863, 249.332 L 191.649, 240.4 z "/>
<path style="fill:rgb(65, 255, 161);fill-opacity:1.0;fill-rule:evenodd;stroke:rgb(0, 0, 0);stroke-width:3.0;" d="M 597.87, 76.3573 L 582.157, 95.7041 L 574.088, 92.6726 L 573.479, 88.1383 L 588.393, 74.5199 L 591.243, 73.5742 z "/>
<path style="fill:rgb(64, 255, 123);fill-opacity:1.0;fill-rule:evenodd;stroke:rgb(0, 0, 0);stroke-width:3.0;" d="M 568.324, 81.1785 L 555.139, 85.5531 L 530.716, 76.3774 L 550.974, 71.9382 z "/>
<path style="fill:rgb(18, 78, 255);fill-opacity:1.0;fill-rule:evenodd;stroke:rgb(0, 0, 0);stroke-width:3.0;" d="M 57.1277, 544.556 L 47.7741, 549.471 L 29.9132, 535.128 L 31.2362, 533.562 L 45.5872, 533.049 z "/>
<path style="fill:rgb(18, 78, 255);fill-opacity:1.0;fill-rule:evenodd;stroke:rgb(0, 0, 0);stroke-width:3.0;" d="M 275.42, 188.733 L 249.637, 223.73 L 223.009, 224.649 L 221.912, 218.878 L 259.327, 185.1 z "/>
<path style="fill:rgb(56, 255, 255);fill-opacity:1.0;fill-rule:evenodd;stroke:rgb(0, 0, 0);stroke-width:3.0;" d="M 476.837, 538.412 L 477.626, 558.705 L 471.878, 556.528 L 456.984, 505.197 z "/>
<path style="fill:rgb(246, 255, 54);fill-opacity:1.0;fill-rule:evenodd;stroke:rgb(0, 0, 0);stroke-width:3.0;" d="M 786.396, 417.115 L 788.001, 445.913 L 785.134, 445.084 L 781.238, 424.014 L 784.277, 417.08 z "/>
<path style="fill:rgb(24, 197, 255);fill-opacity:1.0;fill-rule:evenodd;stroke:rgb(0, 0, 0);stroke-width:3.0;" d="M 700.874, 470.929 L 675.223, 452.095 L 692.006, 437.624 z "/>
<path style="fill:rgb(255, 246, 86);fill-opacity:1.0;fill-rule:evenodd;stroke:rgb(0, 0, 0);stroke-width:3.0;" d="M 672.702, 395.052 L 662.77, 425.996 L 650.921, 428.557 L 649.527, 424.986 L 666.428, 388.23 z "/>
<path style="fill:rgb(255, 246, 86);fill-opacity:1.0;fill-rule:evenodd;stroke:rgb(0, 0, 0);stroke-width:3.0;" d="M 692.006, 437.624 L 675.223, 452.095 L 667.254, 446.244 L 691.13, 434.333 z "/>
<path style="fill:rgb(255, 255, 20);fill-opacity:1.0;fill-rule:evenodd;stroke:rgb(0, 0, 0);stroke-width:3.0;" d="M 640.82, 25.1902 L 660.274, 47.3862 L 645.043, 55.4487 L 635.373, 19.9672 z "/>
<path style="fill:rgb(51, 0, 86);fill-opacity:1.0;fill-rule:evenodd;stroke:rgb(0, 0, 0);stroke-width:3.0;" d="M 176.599, 322.873 L 191.649, 240.4 L 236.658, 224.178 L 249.637, 223.73 z "/>
<path style="fill:rgb(226, 47, 182);fill-opacity:1.0;fill-rule:evenodd;stroke:rgb(0, 0, 0);stroke-width:3.0;" d="M 735.005, 23.7218 L 729.217, 26.0173 L 724.055, 22.2885 L 728.578, 11.2309 L 734.579, 8.05439 z "/>
<path style="fill:rgb(49, 23, 255);fill-opacity:1.0;fill-rule:evenodd;stroke:rgb(0, 0, 0);stroke-width:3.0;" d="M 783.558, 366.181 L 773.932, 384.508 L 773.418, 381.734 L 782.097, 339.964 z "/>
<path style="fill:rgb(228, 6, 168);fill-opacity:1.0;fill-rule:evenodd;stroke:rgb(0, 0, 0);stroke-width:3.0;" d="M 588.723, 562.497 L 586.044, 562.278 L 582.229, 551.079 L 586.063, 547.163 L 600.003, 538.996 z "/>
<path style="fill:rgb(103, 240, 255);fill-opacity:1.0;fill-rule:evenodd;stroke:rgb(0, 0, 0);stroke-width:3.0;" d="M 284.075, 571.662 L 282.486, 584.628 L 259.865, 572.908 L 260.423, 564.401 L 267.934, 555.991 z "/>
<path style="fill:rgb(55, 243, 246);fill-opacity:1.0;fill-rule:evenodd;stroke:rgb(0, 0, 0);stroke-width:3.0;" d="M 754.255, 198.266 L 745.55, 231.048 L 740.58, 204.172 L 743.089, 176.901 z "/>
<path style="fill:rgb(255, 121, 215);fill-opacity:1.0;fill-rule:evenodd;stroke:rgb(0, 0, 0);stroke-width:3.0;" d="M 757.106, 293.533 L 757.06, 330.483 L 750.933, 291.534 L 751.077, 273.605 L 753.106, 271.906 z "/>
<path style="fill:rgb(21, 207, 255);fill-opacity:1.0;fill-rule:evenodd;stroke:rgb(0, 0, 0);stroke-width:3.0;" d="M 708.257, 27.0682 L 701.924, 36.8436 L 693.585, 40.1512 L 688.655, 36.4672 L 688.087, 32.6642 L 705.971, 23.1978 z "/>
<path style="fill:rgb(246, 228, 51);fill-opacity:1.0;fill-rule:evenodd;stroke:rgb(0, 0, 0);stroke-width:3.0;" d="M 124.759, 532.622 L 129.04, 552.42 L 102.26, 540.563 L 108.256, 517.686 L 109.138, 517.222 z "/>
</svg>