<?xml version="1.0" encoding="iso-8859-1" standalone="no"?>
<!DOCTYPE svg PUBLIC "-//W3C//DTD SVG 1.0//EN" "http://www.w3.org/TR/2001/REC-SVG-20010904/DTD/svg10.dtd">
<svg xmlns="http://www.w3.org/2000/svg" width="800" height="600">
<path style="fill:rgb(0, 0, 0);fill-opacity:0.0;fill-rule:evenodd;stroke:rgb(0, 0, 0);stroke-width:0.0;" d="M 0, 600 L 800, 600 L 800, 0 L 0, 0 z "/>
<path style="fill:rgb(209, 83, 8);fill-opacity:1.0;fill-rule:evenodd;stroke:rgb(0, 0, 0);stroke-width:3.0;" d="M 455.822, 291.032 L 451.094, 329.711 L 243.697, 316.752 L 348.488, 238.206 z "/>
<path style="fill:rgb(123, 136, 255);fill-opacity:1.0;fill-rule:evenodd;stroke:rgb(0, 0, 0);stroke-width:3.0;" d="M 777.712, 98.2418 L 746.568, 108.822 L 732.425, 107.34 L 761.667, 97.1337 z "/>
<path style="fill:rgb(123, 136, 255);fill-opacity:1.0;fill-rule:evenodd;stroke:rgb(0, 0, 0);stroke-width:3.0;" d="M 542.037, 333.464 L 541.571, 335.364 L 451.094, 329.711 L 453.273, 311.882 L 484.724, 305.257 z "/>
<path style="fill:rgb(94, 94, 255);fill-opacity:1.0;fill-rule:evenodd;stroke:rgb(0, 0, 0);stroke-width:3.0;" d="M 556.038, 196.151 L 509.232, 317.318 L 486.319, 306.041 L 517.978, 178.233 z "/>
<path style="fill:rgb(94, 94, 255);fill-opacity:1.0;fill-rule:evenodd;stroke:rgb(0, 0, 0);stroke-width:3.0;" d="M 608.447, 62.1782 L 607.463, 69.352 L 595.525, 71.1203 L 603.281, 55.692 z "/>
<path style="fill:rgb(94, 94, 255);fill-opacity:1.0;fill-rule:evenodd;stroke:rgb(0, 0, 0);stroke-width:3.0;" d="M 288.492, 562.442 L 287.228, 563.724 L 266.595, 559.41 L 267.004, 556.753 L 283.046, 553.099 z "/>
<path style="fill:rgb(94, 94, 255);fill-opacity:1.0;fill-rule:evenodd;stroke:rgb(0, 0, 0);stroke-width:3.0;" d="M 66.7021, 475.248 L 69.1331, 485.596 L 40.3823, 484.913 L 46.3589, 471.381 z "/>
<path style="fill:rgb(94, 94, 255);fill-opacity:1.0;fill-rule:evenodd;stroke:rgb(0, 0, 0);stroke-width:3.0;" d="M 789.145, 532.354 L 791.452, 542.003 L 766.931, 555.22 L 774.707, 521.954 z "/>
<path style="fill:rgb(252, 231, 17);fill-opacity:1.0;fill-rule:evenodd;stroke:rgb(0, 0, 0);stroke-width:3.0;" d="M 750.851, 46.4632 L 751.591, 52.4899 L 731.55, 45.5028 L 734.903, 38.8574 z "/>
<path style="fill:rgb(8, 1, 255);fill-opacity:1.0;fill-rule:evenodd;stroke:rgb(0, 0, 0);stroke-width:3.0;" d="M 536.495, 37.3301 L 533.544, 60.581 L 520.32, 53.2234 L 508.294, 30.2748 z "/>
<path style="fill:rgb(8, 1, 255);fill-opacity:1.0;fill-rule:evenodd;stroke:rgb(0, 0, 0);stroke-width:3.0;" d="M 476.776, 306.931 L 453.273, 311.882 L 453.605, 309.172 L 472.499, 299.954 z "/>
<path style="fill:rgb(8, 1, 255);fill-opacity:1.0;fill-rule:evenodd;stroke:rgb(0, 0, 0);stroke-width:3.0;" d="M 668.175, 36.5422 L 678.246, 56.9989 L 670.038, 53.834 L 658.866, 33.4409 z "/>
<path style="fill:rgb(8, 1, 255);fill-opacity:1.0;fill-rule:evenodd;stroke:rgb(0, 0, 0);stroke-width:3.0;" d="M 358.508, 408.712 L 353.949, 431.82 L 338.83, 442.397 L 340.765, 412.635 L 355.932, 407.886 z "/>
<path style="fill:rgb(8, 1, 255);fill-opacity:1.0;fill-rule:evenodd;stroke:rgb(0, 0, 0);stroke-width:3.0;" d="M 782.295, 556.221 L 775.256, 566.254 L 767.045, 565.982 L 767.234, 555.056 L 770.754, 553.159 z "/>
<path style="fill:rgb(255, 130, 220);fill-opacity:1.0;fill-rule:evenodd;stroke:rgb(0, 0, 0);stroke-width:3.0;" d="M 758.452, 516.5 L 744.93, 556.068 L 712.567, 512.805 L 719.142, 508.819 z "/>
<path style="fill:rgb(249, 255, 18);fill-opacity:1.0;fill-rule:evenodd;stroke:rgb(0, 0, 0);stroke-width:3.0;" d="M 491.987, 283.158 L 486.319, 306.041 L 152.852, 141.922 L 180.085, 92.0607 z "/>
<path style="fill:rgb(249, 255, 18);fill-opacity:1.0;fill-rule:evenodd;stroke:rgb(0, 0, 0);stroke-width:3.0;" d="M 327.529, 565.748 L 324.208, 572.764 L 296.25, 561.313 L 297.753, 558.615 L 335.733, 524.158 z "/>
<path style="fill:rgb(249, 255, 18);fill-opacity:1.0;fill-rule:evenodd;stroke:rgb(0, 0, 0);stroke-width:3.0;" d="M 465.637, 330.619 L 499.05, 365.701 L 510.364, 406.991 L 457.771, 330.128 z "/>
<path style="fill:rgb(249, 255, 18);fill-opacity:1.0;fill-rule:evenodd;stroke:rgb(0, 0, 0);stroke-width:3.0;" d="M 302.479, 548.249 L 301.941, 548.795 L 287.629, 552.055 L 285.994, 531.171 L 291.575, 525.062 z "/>
<path style="fill:rgb(249, 255, 18);fill-opacity:1.0;fill-rule:evenodd;stroke:rgb(0, 0, 0);stroke-width:3.0;" d="M 454.955, 54.3325 L 443.08, 65.1417 L 414.931, 53.296 L 436.502, 18.5952 z "/>
<path style="fill:rgb(237, 226, 26);fill-opacity:1.0;fill-rule:evenodd;stroke:rgb(0, 0, 0);stroke-width:3.0;" d="M 607.488, 300.278 L 626.935, 417.407 L 512.38, 454.406 L 557.45, 270.613 z "/>
<path style="fill:rgb(246, 237, 20);fill-opacity:1.0;fill-rule:evenodd;stroke:rgb(0, 0, 0);stroke-width:3.0;" d="M 516.858, 416.482 L 477.526, 410.898 L 473.967, 353.798 z "/>
<path style="fill:rgb(246, 237, 20);fill-opacity:1.0;fill-rule:evenodd;stroke:rgb(0, 0, 0);stroke-width:3.0;" d="M 449.981, 118.438 L 501.909, 243.105 L 501.836, 243.4 L 195.076, 72.5316 z "/>
<path style="fill:rgb(255, 240, 7);fill-opacity:1.0;fill-rule:evenodd;stroke:rgb(0, 0, 0);stroke-width:3.0;" d="M 751.107, 504.954 L 760.382, 516.877 L 740.694, 513.03 L 750.357, 504.414 z "/>
<path style="fill:rgb(255, 240, 7);fill-opacity:1.0;fill-rule:evenodd;stroke:rgb(0, 0, 0);stroke-width:3.0;" d="M 575.73, 153.862 L 573.518, 175.821 L 572.423, 175.976 L 565.191, 174.843 L 565.832, 170.796 L 574.935, 147.232 z "/>
<path style="fill:rgb(255, 240, 7);fill-opacity:1.0;fill-rule:evenodd;stroke:rgb(0, 0, 0);stroke-width:3.0;" d="M 586.589, 151.781 L 580.422, 176.933 L 578.117, 173.769 L 576.141, 157.288 L 580.246, 147.981 z "/>
<path style="fill:rgb(57, 207, 228);fill-opacity:1.0;fill-rule:evenodd;stroke:rgb(0, 0, 0);stroke-width:3.0;" d="M 418.628, 402.536 L 414.992, 408.635 L 377.091, 397.046 L 377.536, 396.703 z "/>
<path style="fill:rgb(57, 207, 228);fill-opacity:1.0;fill-rule:evenodd;stroke:rgb(0, 0, 0);stroke-width:3.0;" d="M 758.944, 127.311 L 692.711, 250.166 L 673.943, 125.95 L 679.674, 115.663 L 681.959, 112.945 z "/>
<path style="fill:rgb(57, 207, 228);fill-opacity:1.0;fill-rule:evenodd;stroke:rgb(0, 0, 0);stroke-width:3.0;" d="M 625.267, 189.607 L 579.092, 283.443 L 557.45, 270.613 L 560.761, 257.107 L 629.456, 175.396 z "/>
<path style="fill:rgb(6, 119, 255);fill-opacity:1.0;fill-rule:evenodd;stroke:rgb(0, 0, 0);stroke-width:3.0;" d="M 269.028, 381.298 L 272.052, 449.801 L 263.692, 461.311 L 41.3687, 468.406 L 175.33, 367.996 z "/>
<path style="fill:rgb(37, 220, 255);fill-opacity:1.0;fill-rule:evenodd;stroke:rgb(0, 0, 0);stroke-width:3.0;" d="M 315.486, 44.557 L 277.839, 37.5316 L 280.278, 30.3333 z "/>
<path style="fill:rgb(240, 7, 234);fill-opacity:1.0;fill-rule:evenodd;stroke:rgb(0, 0, 0);stroke-width:3.0;" d="M 264.6, 35.0611 L 264.214, 58.4567 L 187.089, 41.1782 L 205.457, 24.0244 z "/>
<path style="fill:rgb(255, 237, 64);fill-opacity:1.0;fill-rule:evenodd;stroke:rgb(0, 0, 0);stroke-width:3.0;" d="M 616.873, 94.7402 L 597.322, 86.9243 L 594.461, 80.9463 L 617.74, 75.1929 z "/>
<path style="fill:rgb(255, 237, 64);fill-opacity:1.0;fill-rule:evenodd;stroke:rgb(0, 0, 0);stroke-width:3.0;" d="M 62.2725, 82.7217 L 60.8541, 96.6445 L 38.5224, 85.6537 L 61.6638, 79.4129 z "/>
<path style="fill:rgb(255, 19, 7);fill-opacity:1.0;fill-rule:evenodd;stroke:rgb(0, 0, 0);stroke-width:3.0;" d="M 674.563, 535.846 L 662.436, 543.199 L 578.15, 545.204 L 607.774, 503.496 z "/>
<path style="fill:rgb(255, 19, 7);fill-opacity:1.0;fill-rule:evenodd;stroke:rgb(0, 0, 0);stroke-width:3.0;" d="M 621.536, 35.1334 L 583.453, 35.2805 L 548.176, 17.1027 L 560.791, 11.7127 z "/>
<path style="fill:rgb(255, 19, 7);fill-opacity:1.0;fill-rule:evenodd;stroke:rgb(0, 0, 0);stroke-width:3.0;" d="M 768.566, 491.22 L 749.216, 503.592 L 739.412, 496.53 L 767.732, 479.36 z "/>
<path style="fill:rgb(255, 255, 10);fill-opacity:1.0;fill-rule:evenodd;stroke:rgb(0, 0, 0);stroke-width:3.0;" d="M 520.975, 131.223 L 505.485, 139.885 L 496.454, 131.073 L 499.024, 127.27 z "/>
<path style="fill:rgb(255, 255, 10);fill-opacity:1.0;fill-rule:evenodd;stroke:rgb(0, 0, 0);stroke-width:3.0;" d="M 410.915, 111.402 L 387.07, 107.108 L 383.27, 103.601 L 399.589, 99.5223 z "/>
<path style="fill:rgb(255, 255, 10);fill-opacity:1.0;fill-rule:evenodd;stroke:rgb(0, 0, 0);stroke-width:3.0;" d="M 636.932, 41.0698 L 645.697, 45.3981 L 643.421, 66.1809 L 583.453, 35.2805 L 621.536, 35.1334 z "/>
<path style="fill:rgb(255, 255, 10);fill-opacity:1.0;fill-rule:evenodd;stroke:rgb(0, 0, 0);stroke-width:3.0;" d="M 670.281, 110.766 L 653.865, 127.883 L 650.359, 113.208 L 651.979, 107.351 z "/>
<path style="fill:rgb(255, 255, 10);fill-opacity:1.0;fill-rule:evenodd;stroke:rgb(0, 0, 0);stroke-width:3.0;" d="M 227.051, 50.131 L 232.089, 79.1973 L 165.271, 67.1638 L 180.301, 39.6575 z "/>
<path style="fill:rgb(246, 240, 7);fill-opacity:1.0;fill-rule:evenodd;stroke:rgb(0, 0, 0);stroke-width:3.0;" d="M 516.146, 333.775 L 530.29, 338.566 L 539.638, 343.248 L 538.475, 347.989 L 501.346, 332.851 z "/>
<path style="fill:rgb(246, 240, 7);fill-opacity:1.0;fill-rule:evenodd;stroke:rgb(0, 0, 0);stroke-width:3.0;" d="M 647.17, 68.1125 L 622.297, 71.2232 L 618.403, 65.5577 L 631.137, 59.8511 z "/>
<path style="fill:rgb(246, 240, 7);fill-opacity:1.0;fill-rule:evenodd;stroke:rgb(0, 0, 0);stroke-width:3.0;" d="M 264.214, 58.4567 L 263.777, 84.904 L 232.089, 79.1973 L 227.051, 50.131 z "/>
<path style="fill:rgb(255, 255, 57);fill-opacity:1.0;fill-rule:evenodd;stroke:rgb(0, 0, 0);stroke-width:3.0;" d="M 96.9866, 426.718 L 117.675, 370.335 L 176.592, 367.05 z "/>
<path style="fill:rgb(255, 255, 57);fill-opacity:1.0;fill-rule:evenodd;stroke:rgb(0, 0, 0);stroke-width:3.0;" d="M 195.076, 72.5316 L 501.836, 243.4 L 491.987, 283.158 L 180.085, 92.0607 L 191.139, 71.8225 z "/>
<path style="fill:rgb(21, 187, 255);fill-opacity:1.0;fill-rule:evenodd;stroke:rgb(0, 0, 0);stroke-width:3.0;" d="M 509.71, 80.8014 L 545.188, 135.584 L 503.121, 128.008 L 487.7, 118.604 L 501.046, 79.1847 z "/>
<path style="fill:rgb(21, 187, 255);fill-opacity:1.0;fill-rule:evenodd;stroke:rgb(0, 0, 0);stroke-width:3.0;" d="M 264.49, 557.577 L 263.213, 576.527 L 245.059, 575.976 L 263.205, 556.114 z "/>
<path style="fill:rgb(21, 187, 255);fill-opacity:1.0;fill-rule:evenodd;stroke:rgb(0, 0, 0);stroke-width:3.0;" d="M 742.992, 568.123 L 719.819, 580.614 L 644.522, 554.06 L 708.671, 515.167 z "/>
<path style="fill:rgb(25, 217, 255);fill-opacity:1.0;fill-rule:evenodd;stroke:rgb(0, 0, 0);stroke-width:3.0;" d="M 553.074, 231.984 L 552.763, 250.143 L 540.891, 263.119 L 546.189, 227.846 z "/>
<path style="fill:rgb(25, 217, 255);fill-opacity:1.0;fill-rule:evenodd;stroke:rgb(0, 0, 0);stroke-width:3.0;" d="M 512.679, 415.889 L 514.895, 433.579 L 414.308, 484.644 L 426.679, 403.679 z "/>
<path style="fill:rgb(17, 22, 255);fill-opacity:1.0;fill-rule:evenodd;stroke:rgb(0, 0, 0);stroke-width:3.0;" d="M 493.764, 332.377 L 535.287, 360.99 L 526.949, 394.993 L 465.637, 330.619 z "/>
<path style="fill:rgb(17, 22, 255);fill-opacity:1.0;fill-rule:evenodd;stroke:rgb(0, 0, 0);stroke-width:3.0;" d="M 781.932, 105.331 L 783.975, 131.982 L 763.823, 128.222 L 748.478, 120.315 L 769.33, 104.148 z "/>
<path style="fill:rgb(17, 22, 255);fill-opacity:1.0;fill-rule:evenodd;stroke:rgb(0, 0, 0);stroke-width:3.0;" d="M 547.449, 135.991 L 523.88, 154.408 L 527.326, 140.497 L 535.112, 133.769 z "/>
<path style="fill:rgb(17, 22, 255);fill-opacity:1.0;fill-rule:evenodd;stroke:rgb(0, 0, 0);stroke-width:3.0;" d="M 749.673, 36.8802 L 748.716, 45.4452 L 734.903, 38.8574 L 739.434, 29.876 L 746.07, 27.8354 L 748.528, 27.5564 z "/>
<path style="fill:rgb(249, 3, 140);fill-opacity:1.0;fill-rule:evenodd;stroke:rgb(0, 0, 0);stroke-width:3.0;" d="M 576.602, 93.2842 L 581.47, 142.118 L 545.188, 135.584 L 509.71, 80.8014 z "/>
<path style="fill:rgb(128, 110, 255);fill-opacity:1.0;fill-rule:evenodd;stroke:rgb(0, 0, 0);stroke-width:3.0;" d="M 761.667, 97.1337 L 743.425, 103.5 L 713.637, 96.445 L 713.784, 96.1638 L 736.565, 95.4002 z "/>
<path style="fill:rgb(128, 110, 255);fill-opacity:1.0;fill-rule:evenodd;stroke:rgb(0, 0, 0);stroke-width:3.0;" d="M 599.869, 97.6262 L 588.642, 143.409 L 581.47, 142.118 L 576.602, 93.2842 z "/>
<path style="fill:rgb(202, 17, 79);fill-opacity:1.0;fill-rule:evenodd;stroke:rgb(0, 0, 0);stroke-width:3.0;" d="M 591.113, 290.57 L 584.432, 286.609 L 590.484, 275.746 L 598.286, 274.294 z "/>
<path style="fill:rgb(202, 17, 79);fill-opacity:1.0;fill-rule:evenodd;stroke:rgb(0, 0, 0);stroke-width:3.0;" d="M 692.711, 250.166 L 651.597, 326.428 L 591.113, 290.57 L 624.774, 214.202 L 673.943, 125.95 z "/>
<path style="fill:rgb(202, 17, 79);fill-opacity:1.0;fill-rule:evenodd;stroke:rgb(0, 0, 0);stroke-width:3.0;" d="M 507.487, 220.584 L 501.909, 243.105 L 490.871, 216.605 z "/>
<path style="fill:rgb(202, 17, 79);fill-opacity:1.0;fill-rule:evenodd;stroke:rgb(0, 0, 0);stroke-width:3.0;" d="M 652.899, 31.4529 L 658.866, 33.4409 L 670.038, 53.834 L 630.16, 38.4588 L 638.873, 30.2065 z "/>
<path style="fill:rgb(202, 17, 79);fill-opacity:1.0;fill-rule:evenodd;stroke:rgb(0, 0, 0);stroke-width:3.0;" d="M 534.542, 23.0142 L 532.66, 30.2603 L 520.615, 20.6691 L 516.025, 14.4054 L 523.396, 12.4007 z "/>
<path style="fill:rgb(202, 17, 79);fill-opacity:1.0;fill-rule:evenodd;stroke:rgb(0, 0, 0);stroke-width:3.0;" d="M 102.258, 84.8859 L 86.373, 109.204 L 71.5675, 101.917 L 76.8224, 75.3248 L 97.5914, 69.7238 z "/>
<path style="fill:rgb(202, 17, 79);fill-opacity:1.0;fill-rule:evenodd;stroke:rgb(0, 0, 0);stroke-width:3.0;" d="M 191.139, 71.8225 L 178.371, 95.2002 L 152.665, 122.525 L 117.607, 124.576 L 113.916, 122.759 L 97.5914, 69.7238 L 130.382, 60.8807 z "/>
<path style="fill:rgb(223, 3, 255);fill-opacity:1.0;fill-rule:evenodd;stroke:rgb(0, 0, 0);stroke-width:3.0;" d="M 469.662, 297.843 L 466.2, 301.813 L 453.922, 306.574 L 455.822, 291.032 z "/>
<path style="fill:rgb(223, 3, 255);fill-opacity:1.0;fill-rule:evenodd;stroke:rgb(0, 0, 0);stroke-width:3.0;" d="M 449.817, 329.631 L 454.629, 348.545 L 417.441, 402.368 L 175.33, 367.996 L 243.697, 316.752 z "/>
<path style="fill:rgb(223, 3, 255);fill-opacity:1.0;fill-rule:evenodd;stroke:rgb(0, 0, 0);stroke-width:3.0;" d="M 723.107, 532.609 L 730.056, 539.089 L 742.178, 563.108 L 738.439, 561.099 L 721.219, 534.529 L 721.367, 531.693 z "/>
<path style="fill:rgb(223, 3, 255);fill-opacity:1.0;fill-rule:evenodd;stroke:rgb(0, 0, 0);stroke-width:3.0;" d="M 686.804, 60.2985 L 710.564, 73.288 L 708.185, 76.2575 L 676.009, 60.3677 L 671.607, 54.4389 z "/>
<path style="fill:rgb(223, 3, 255);fill-opacity:1.0;fill-rule:evenodd;stroke:rgb(0, 0, 0);stroke-width:3.0;" d="M 651.979, 107.351 L 634.975, 168.832 L 589.206, 223.273 L 626.108, 102.523 z "/>
<path style="fill:rgb(60, 43, 255);fill-opacity:1.0;fill-rule:evenodd;stroke:rgb(0, 0, 0);stroke-width:3.0;" d="M 501.046, 79.1847 L 485.585, 124.85 L 410.915, 111.402 L 356.644, 54.4761 L 356.58, 52.2257 z "/>
<path style="fill:rgb(209, 19, 152);fill-opacity:1.0;fill-rule:evenodd;stroke:rgb(0, 0, 0);stroke-width:3.0;" d="M 107.548, 56.7684 L 112.203, 65.7833 L 93.6109, 70.7973 L 95.5372, 66.5895 L 105.681, 56.4322 z "/>
<path style="fill:rgb(243, 100, 102);fill-opacity:1.0;fill-rule:evenodd;stroke:rgb(0, 0, 0);stroke-width:3.0;" d="M 777.207, 570.385 L 778.97, 584.469 L 766.647, 588.959 L 766.832, 578.262 L 775.147, 566.41 z "/>
<path style="fill:rgb(220, 204, 41);fill-opacity:1.0;fill-rule:evenodd;stroke:rgb(0, 0, 0);stroke-width:3.0;" d="M 342.127, 391.676 L 338.83, 442.397 L 214.001, 529.727 L 316.873, 388.09 z "/>
<path style="fill:rgb(220, 204, 41);fill-opacity:1.0;fill-rule:evenodd;stroke:rgb(0, 0, 0);stroke-width:3.0;" d="M 527.243, 25.9469 L 526.495, 26.6182 L 507.629, 22.6097 L 505.655, 8.75806 z "/>
<path style="fill:rgb(220, 204, 41);fill-opacity:1.0;fill-rule:evenodd;stroke:rgb(0, 0, 0);stroke-width:3.0;" d="M 265.992, 501.905 L 241.244, 511.183 L 241.007, 510.834 L 280.794, 482.999 z "/>
<path style="fill:rgb(220, 204, 41);fill-opacity:1.0;fill-rule:evenodd;stroke:rgb(0, 0, 0);stroke-width:3.0;" d="M 356.58, 52.2257 L 357.973, 101.868 L 292.283, 90.0376 L 299.153, 41.5092 z "/>
<path style="fill:rgb(46, 255, 217);fill-opacity:1.0;fill-rule:evenodd;stroke:rgb(0, 0, 0);stroke-width:3.0;" d="M 617.353, 227.521 L 641.546, 161.016 L 679.674, 115.663 z "/>
<path style="fill:rgb(255, 212, 25);fill-opacity:1.0;fill-rule:evenodd;stroke:rgb(0, 0, 0);stroke-width:3.0;" d="M 601.363, 53.2836 L 602.435, 54.63 L 559.251, 64.6989 L 558.5, 59.601 L 575.348, 51.1016 z "/>
<path style="fill:rgb(255, 212, 25);fill-opacity:1.0;fill-rule:evenodd;stroke:rgb(0, 0, 0);stroke-width:3.0;" d="M 277.9, 594.261 L 278.245, 572.839 L 304.886, 545.808 z "/>
<path style="fill:rgb(255, 108, 14);fill-opacity:1.0;fill-rule:evenodd;stroke:rgb(0, 0, 0);stroke-width:3.0;" d="M 421.259, 516.986 L 410.469, 565.72 L 402.419, 562.457 L 409.415, 516.67 z "/>
<path style="fill:rgb(255, 108, 14);fill-opacity:1.0;fill-rule:evenodd;stroke:rgb(0, 0, 0);stroke-width:3.0;" d="M 148.827, 487.489 L 160.08, 510.819 L 19.9615, 484.451 L 19.9916, 484.429 z "/>
<path style="fill:rgb(234, 255, 8);fill-opacity:1.0;fill-rule:evenodd;stroke:rgb(0, 0, 0);stroke-width:3.0;" d="M 123.563, 486.889 L 81.6483, 485.893 L 92.1248, 466.786 L 131.298, 465.536 z "/>
<path style="fill:rgb(234, 255, 8);fill-opacity:1.0;fill-rule:evenodd;stroke:rgb(0, 0, 0);stroke-width:3.0;" d="M 569.518, 221.4 L 556.616, 211.18 L 561.718, 199.498 L 575.237, 198.075 z "/>
<path style="fill:rgb(234, 255, 8);fill-opacity:1.0;fill-rule:evenodd;stroke:rgb(0, 0, 0);stroke-width:3.0;" d="M 515.771, 440.577 L 507.145, 475.755 L 462.285, 518.08 L 409.415, 516.67 L 414.308, 484.644 L 514.895, 433.579 z "/>
<path style="fill:rgb(46, 255, 163);fill-opacity:1.0;fill-rule:evenodd;stroke:rgb(0, 0, 0);stroke-width:3.0;" d="M 666.658, 22.879 L 620.647, 26.2935 L 610.153, 24.2927 L 633.209, 11.2177 z "/>
<path style="fill:rgb(255, 1, 12);fill-opacity:1.0;fill-rule:evenodd;stroke:rgb(0, 0, 0);stroke-width:3.0;" d="M 505.485, 139.885 L 481.402, 153.351 L 496.454, 131.073 z "/>
<path style="fill:rgb(255, 1, 12);fill-opacity:1.0;fill-rule:evenodd;stroke:rgb(0, 0, 0);stroke-width:3.0;" d="M 338.114, 512.092 L 330.02, 520.304 L 316.837, 508.835 L 321.293, 492.534 L 347.667, 463.667 z "/>
<path style="fill:rgb(37, 228, 204);fill-opacity:1.0;fill-rule:evenodd;stroke:rgb(0, 0, 0);stroke-width:3.0;" d="M 243.054, 489.727 L 233.206, 503.285 L 176.441, 513.898 L 160.08, 510.819 L 148.827, 487.489 z "/>
<path style="fill:rgb(255, 255, 10);fill-opacity:1.0;fill-rule:evenodd;stroke:rgb(0, 0, 0);stroke-width:3.0;" d="M 637.611, 171.831 L 617.353, 227.521 L 592.073, 272.895 L 587.88, 265.584 L 636.087, 167.619 z "/>
<path style="fill:rgb(255, 255, 10);fill-opacity:1.0;fill-rule:evenodd;stroke:rgb(0, 0, 0);stroke-width:3.0;" d="M 501.346, 332.851 L 538.475, 347.989 L 535.876, 358.589 L 500.913, 332.824 z "/>
<path style="fill:rgb(255, 85, 255);fill-opacity:1.0;fill-rule:evenodd;stroke:rgb(0, 0, 0);stroke-width:3.0;" d="M 774.543, 94.1272 L 713.784, 96.1638 L 716.292, 91.3792 L 760.198, 88.5964 z "/>
<path style="fill:rgb(255, 202, 7);fill-opacity:1.0;fill-rule:evenodd;stroke:rgb(0, 0, 0);stroke-width:3.0;" d="M 692.04, 31.7282 L 689.23, 34.6812 L 643.245, 30.595 L 651.72, 23.9875 L 666.658, 22.879 z "/>
<path style="fill:rgb(255, 202, 7);fill-opacity:1.0;fill-rule:evenodd;stroke:rgb(0, 0, 0);stroke-width:3.0;" d="M 564.069, 194.117 L 556.616, 211.18 L 551.728, 207.308 L 562.273, 180.011 L 564.334, 179.837 z "/>
<path style="fill:rgb(69, 234, 252);fill-opacity:1.0;fill-rule:evenodd;stroke:rgb(0, 0, 0);stroke-width:3.0;" d="M 690.464, 99.5852 L 691.787, 111.906 L 690.907, 114.615 L 649.05, 106.804 L 655.426, 95.2917 z "/>
<path style="fill:rgb(69, 234, 252);fill-opacity:1.0;fill-rule:evenodd;stroke:rgb(0, 0, 0);stroke-width:3.0;" d="M 626.108, 102.523 L 615.459, 137.368 L 596.8, 110.142 L 599.869, 97.6262 z "/>
<path style="fill:rgb(69, 234, 252);fill-opacity:1.0;fill-rule:evenodd;stroke:rgb(0, 0, 0);stroke-width:3.0;" d="M 762.767, 553.064 L 747.727, 547.884 L 750.626, 539.401 L 764.068, 538.154 z "/>
<path style="fill:rgb(69, 234, 252);fill-opacity:1.0;fill-rule:evenodd;stroke:rgb(0, 0, 0);stroke-width:3.0;" d="M 470.233, 409.863 L 417.441, 402.368 L 454.629, 348.545 z "/>
<path style="fill:rgb(255, 3, 146);fill-opacity:1.0;fill-rule:evenodd;stroke:rgb(0, 0, 0);stroke-width:3.0;" d="M 462.285, 518.08 L 410.119, 567.298 L 421.259, 516.986 z "/>
<path style="fill:rgb(255, 3, 146);fill-opacity:1.0;fill-rule:evenodd;stroke:rgb(0, 0, 0);stroke-width:3.0;" d="M 219.599, 522.02 L 198.718, 550.768 L 5.27895, 495.456 L 19.9615, 484.451 z "/>
<path style="fill:rgb(152, 136, 255);fill-opacity:1.0;fill-rule:evenodd;stroke:rgb(0, 0, 0);stroke-width:3.0;" d="M 794.54, 13.5217 L 781.496, 51.5745 L 781.374, 51.7354 L 765.444, 39.2877 L 767.866, 30.4508 L 782.028, 13.17 z "/>
<path style="fill:rgb(226, 17, 223);fill-opacity:1.0;fill-rule:evenodd;stroke:rgb(0, 0, 0);stroke-width:3.0;" d="M 85.5236, 478.825 L 81.6483, 485.893 L 69.1331, 485.596 L 66.7021, 475.248 z "/>
<path style="fill:rgb(226, 17, 223);fill-opacity:1.0;fill-rule:evenodd;stroke:rgb(0, 0, 0);stroke-width:3.0;" d="M 40.3823, 484.913 L 19.9916, 484.429 L 41.3687, 468.406 L 47.7634, 468.202 z "/>
<path style="fill:rgb(165, 2, 234);fill-opacity:1.0;fill-rule:evenodd;stroke:rgb(0, 0, 0);stroke-width:3.0;" d="M 278.857, 37.7217 L 294.209, 76.4297 L 292.283, 90.0376 L 263.777, 84.904 L 264.6, 35.0611 z "/>
<path style="fill:rgb(8, 1, 194);fill-opacity:1.0;fill-rule:evenodd;stroke:rgb(0, 0, 0);stroke-width:3.0;" d="M 569.518, 221.4 L 566.024, 235.648 L 552.763, 250.143 L 553.474, 208.691 z "/>
<path style="fill:rgb(249, 123, 142);fill-opacity:1.0;fill-rule:evenodd;stroke:rgb(0, 0, 0);stroke-width:3.0;" d="M 374.607, 396.287 L 402.044, 404.676 L 422.904, 428.381 L 416.672, 469.174 L 352.786, 437.716 L 361.331, 394.402 z "/>
<path style="fill:rgb(249, 123, 142);fill-opacity:1.0;fill-rule:evenodd;stroke:rgb(0, 0, 0);stroke-width:3.0;" d="M 316.873, 388.09 L 308.041, 400.251 L 269.865, 400.262 L 269.028, 381.298 z "/>
<path style="fill:rgb(249, 123, 142);fill-opacity:1.0;fill-rule:evenodd;stroke:rgb(0, 0, 0);stroke-width:3.0;" d="M 689.421, 89.884 L 690.464, 99.5852 L 655.426, 95.2917 L 656.876, 92.6732 L 685.24, 87.7292 z "/>
<path style="fill:rgb(124, 199, 82);fill-opacity:1.0;fill-rule:evenodd;stroke:rgb(0, 0, 0);stroke-width:3.0;" d="M 513.348, 78.1145 L 497.367, 78.4981 L 484.213, 76.0434 L 481.821, 73.4144 L 516.6, 70.3532 z "/>
<path style="fill:rgb(124, 199, 82);fill-opacity:1.0;fill-rule:evenodd;stroke:rgb(0, 0, 0);stroke-width:3.0;" d="M 632.441, 10.9499 L 593.767, 14.7647 L 594.431, 10.9214 L 616.337, 5.33549 z "/>
<path style="fill:rgb(124, 199, 82);fill-opacity:1.0;fill-rule:evenodd;stroke:rgb(0, 0, 0);stroke-width:3.0;" d="M 681.959, 112.945 L 640.971, 161.7 L 636.977, 161.591 L 643.235, 138.967 L 670.281, 110.766 z "/>
<path style="fill:rgb(124, 199, 82);fill-opacity:1.0;fill-rule:evenodd;stroke:rgb(0, 0, 0);stroke-width:3.0;" d="M 351.334, 576.388 L 350.924, 586.446 L 327.942, 563.653 L 328.277, 561.955 z "/>
<path style="fill:rgb(124, 199, 82);fill-opacity:1.0;fill-rule:evenodd;stroke:rgb(0, 0, 0);stroke-width:3.0;" d="M 615.676, 71.2561 L 593.921, 79.8178 L 592.571, 76.9962 L 595.525, 71.1203 L 613.453, 68.4648 z "/>
<path style="fill:rgb(255, 1, 12);fill-opacity:1.0;fill-rule:evenodd;stroke:rgb(0, 0, 0);stroke-width:3.0;" d="M 619.403, 75.9359 L 631.846, 100.726 L 616.873, 94.7402 L 617.74, 75.1929 L 618.635, 74.9716 z "/>
<path style="fill:rgb(220, 69, 148);fill-opacity:1.0;fill-rule:evenodd;stroke:rgb(0, 0, 0);stroke-width:3.0;" d="M 547.454, 311.373 L 542.037, 333.464 L 509.232, 317.318 L 522.332, 283.404 L 530.11, 274.903 z "/>
<path style="fill:rgb(220, 69, 148);fill-opacity:1.0;fill-rule:evenodd;stroke:rgb(0, 0, 0);stroke-width:3.0;" d="M 425.434, 411.827 L 422.904, 428.381 L 402.044, 404.676 z "/>
<path style="fill:rgb(226, 51, 9);fill-opacity:1.0;fill-rule:evenodd;stroke:rgb(0, 0, 0);stroke-width:3.0;" d="M 742.241, 380.165 L 634.508, 414.961 L 655.555, 328.774 z "/>
<path style="fill:rgb(18, 78, 255);fill-opacity:1.0;fill-rule:evenodd;stroke:rgb(0, 0, 0);stroke-width:3.0;" d="M 655.555, 328.774 L 634.508, 414.961 L 626.935, 417.407 L 607.488, 300.278 z "/>
<path style="fill:rgb(255, 255, 13);fill-opacity:1.0;fill-rule:evenodd;stroke:rgb(0, 0, 0);stroke-width:3.0;" d="M 716.728, 90.5477 L 711.195, 101.103 L 701.943, 96.3359 L 700.99, 85.5074 z "/>
<path style="fill:rgb(255, 255, 13);fill-opacity:1.0;fill-rule:evenodd;stroke:rgb(0, 0, 0);stroke-width:3.0;" d="M 638.873, 30.2065 L 630.16, 38.4588 L 599.738, 26.7291 z "/>
<path style="fill:rgb(223, 66, 44);fill-opacity:1.0;fill-rule:evenodd;stroke:rgb(0, 0, 0);stroke-width:3.0;" d="M 770.367, 518.828 L 774.707, 521.954 L 773.198, 528.41 L 769.139, 529.926 L 757.73, 522.63 L 764.305, 517.643 z "/>
<path style="fill:rgb(223, 66, 44);fill-opacity:1.0;fill-rule:evenodd;stroke:rgb(0, 0, 0);stroke-width:3.0;" d="M 684.646, 10.4328 L 684.32, 12.7452 L 674.552, 25.6313 L 626.25, 8.79147 z "/>
<path style="fill:rgb(252, 136, 30);fill-opacity:1.0;fill-rule:evenodd;stroke:rgb(0, 0, 0);stroke-width:3.0;" d="M 551.339, 76.5142 L 550.7, 88.4507 L 538.226, 86.1228 L 540.552, 69.9434 L 547.902, 67.6629 z "/>
<path style="fill:rgb(17, 82, 215);fill-opacity:1.0;fill-rule:evenodd;stroke:rgb(0, 0, 0);stroke-width:3.0;" d="M 299.153, 41.5092 L 294.242, 76.1981 L 286.06, 41.6447 L 288.379, 39.4986 z "/>
<path style="fill:rgb(217, 26, 14);fill-opacity:1.0;fill-rule:evenodd;stroke:rgb(0, 0, 0);stroke-width:3.0;" d="M 667.663, 56.2461 L 684.499, 77.5042 L 685.916, 80.6795 L 669.078, 75.287 L 665.417, 55.1365 z "/>
<path style="fill:rgb(212, 255, 14);fill-opacity:1.0;fill-rule:evenodd;stroke:rgb(0, 0, 0);stroke-width:3.0;" d="M 540.891, 263.119 L 522.332, 283.404 L 530.735, 261.652 L 545.355, 233.395 z "/>
<path style="fill:rgb(212, 255, 14);fill-opacity:1.0;fill-rule:evenodd;stroke:rgb(0, 0, 0);stroke-width:3.0;" d="M 285.034, 552.646 L 267.004, 556.753 L 267.893, 550.983 L 279.088, 538.73 z "/>
<path style="fill:rgb(212, 255, 14);fill-opacity:1.0;fill-rule:evenodd;stroke:rgb(0, 0, 0);stroke-width:3.0;" d="M 614.524, 51.2905 L 626.976, 57.707 L 627.072, 59.902 L 615.642, 65.1399 L 607.463, 54.0146 L 608.653, 51.5785 L 613.803, 51.1521 z "/>
<path style="fill:rgb(212, 255, 14);fill-opacity:1.0;fill-rule:evenodd;stroke:rgb(0, 0, 0);stroke-width:3.0;" d="M 457.771, 330.128 L 473.967, 353.798 L 477.526, 410.898 L 470.233, 409.863 L 449.817, 329.631 z "/>
<path style="fill:rgb(212, 255, 14);fill-opacity:1.0;fill-rule:evenodd;stroke:rgb(0, 0, 0);stroke-width:3.0;" d="M 335.733, 524.158 L 299.705, 556.844 L 299.75, 555.029 L 304.886, 545.808 L 329.043, 521.295 L 336.975, 517.867 z "/>
<path style="fill:rgb(255, 252, 18);fill-opacity:1.0;fill-rule:evenodd;stroke:rgb(0, 0, 0);stroke-width:3.0;" d="M 592.073, 272.895 L 584.432, 286.609 L 579.092, 283.443 L 587.88, 265.584 z "/>
<path style="fill:rgb(159, 52, 255);fill-opacity:1.0;fill-rule:evenodd;stroke:rgb(0, 0, 0);stroke-width:3.0;" d="M 430.694, 60.9349 L 441.811, 66.2968 L 440.139, 67.8187 L 409.462, 62.0941 L 410.549, 60.3459 z "/>
<path style="fill:rgb(182, 21, 159);fill-opacity:1.0;fill-rule:evenodd;stroke:rgb(0, 0, 0);stroke-width:3.0;" d="M 16.6288, 40.3947 L 30.8159, 72.361 L 13.5994, 71.8075 L 12.3932, 39.6319 z "/>
<path style="fill:rgb(33, 255, 246);fill-opacity:1.0;fill-rule:evenodd;stroke:rgb(0, 0, 0);stroke-width:3.0;" d="M 91.1659, 53.8182 L 92.5532, 71.0825 L 53.5245, 81.6079 L 32.2912, 75.6851 L 16.6288, 40.3947 z "/>
<path style="fill:rgb(246, 55, 27);fill-opacity:1.0;fill-rule:evenodd;stroke:rgb(0, 0, 0);stroke-width:3.0;" d="M 688.555, 43.332 L 686.723, 49.6936 L 676.493, 53.4379 L 668.175, 36.5422 z "/>
<path style="fill:rgb(255, 117, 9);fill-opacity:1.0;fill-rule:evenodd;stroke:rgb(0, 0, 0);stroke-width:3.0;" d="M 281.463, 30.8123 L 259.217, 21.8249 L 289.194, 14.3481 z "/>
<path style="fill:rgb(255, 117, 9);fill-opacity:1.0;fill-rule:evenodd;stroke:rgb(0, 0, 0);stroke-width:3.0;" d="M 410.251, 511.195 L 362.065, 558.78 L 359.483, 495.256 L 415.267, 478.366 z "/>
<path style="fill:rgb(249, 7, 7);fill-opacity:1.0;fill-rule:evenodd;stroke:rgb(0, 0, 0);stroke-width:3.0;" d="M 416.672, 469.174 L 415.267, 478.366 L 359.483, 495.256 L 357.234, 439.907 z "/>
<path style="fill:rgb(20, 64, 255);fill-opacity:1.0;fill-rule:evenodd;stroke:rgb(0, 0, 0);stroke-width:3.0;" d="M 720.922, 82.5471 L 716.728, 90.5477 L 714.394, 89.8002 L 699.771, 84.6368 L 700.639, 72.5306 z "/>
<path style="fill:rgb(140, 215, 86);fill-opacity:1.0;fill-rule:evenodd;stroke:rgb(0, 0, 0);stroke-width:3.0;" d="M 361.331, 394.402 L 358.508, 408.712 L 341.376, 403.221 L 342.127, 391.676 z "/>
<path style="fill:rgb(140, 215, 86);fill-opacity:1.0;fill-rule:evenodd;stroke:rgb(0, 0, 0);stroke-width:3.0;" d="M 603.281, 55.692 L 589.211, 83.6814 L 568.439, 75.3774 L 559.558, 66.7822 L 559.251, 64.6989 L 602.435, 54.63 z "/>
<path style="fill:rgb(255, 207, 14);fill-opacity:1.0;fill-rule:evenodd;stroke:rgb(0, 0, 0);stroke-width:3.0;" d="M 510.48, 377.702 L 511.328, 408.401 L 510.364, 406.991 L 499.05, 365.701 z "/>
<path style="fill:rgb(234, 9, 22);fill-opacity:1.0;fill-rule:evenodd;stroke:rgb(0, 0, 0);stroke-width:3.0;" d="M 209.88, 514.279 L 203.648, 519.018 L 176.441, 513.898 L 199.249, 509.634 z "/>
<path style="fill:rgb(234, 165, 252);fill-opacity:1.0;fill-rule:evenodd;stroke:rgb(0, 0, 0);stroke-width:3.0;" d="M 519.417, 387.085 L 522.657, 412.495 L 521.517, 417.143 L 516.858, 416.482 L 511.328, 408.401 L 510.48, 377.702 z "/>
<path style="fill:rgb(234, 165, 252);fill-opacity:1.0;fill-rule:evenodd;stroke:rgb(0, 0, 0);stroke-width:3.0;" d="M 580.677, 51.5485 L 551.974, 49.141 L 559.939, 24.9762 z "/>
<path style="fill:rgb(255, 86, 94);fill-opacity:1.0;fill-rule:evenodd;stroke:rgb(0, 0, 0);stroke-width:3.0;" d="M 551.974, 49.141 L 540.591, 48.1863 L 541.897, 43.0763 L 556.741, 34.6776 z "/>
<path style="fill:rgb(249, 204, 11);fill-opacity:1.0;fill-rule:evenodd;stroke:rgb(0, 0, 0);stroke-width:3.0;" d="M 85.23, 478.769 L 46.3589, 471.381 L 47.7634, 468.202 L 56.1181, 467.935 z "/>
<path style="fill:rgb(255, 15, 126);fill-opacity:1.0;fill-rule:evenodd;stroke:rgb(0, 0, 0);stroke-width:3.0;" d="M 700.99, 85.5074 L 701.943, 96.3359 L 647.98, 68.5298 z "/>
<path style="fill:rgb(237, 249, 44);fill-opacity:1.0;fill-rule:evenodd;stroke:rgb(0, 0, 0);stroke-width:3.0;" d="M 205.457, 24.0244 L 192.074, 36.5226 L 182.515, 40.1535 L 175.546, 38.592 L 191.564, 21.4318 z "/>
<path style="fill:rgb(255, 194, 202);fill-opacity:1.0;fill-rule:evenodd;stroke:rgb(0, 0, 0);stroke-width:3.0;" d="M 30.8159, 72.361 L 34.5583, 80.7934 L 28.5943, 80.7675 L 13.6598, 73.4173 L 13.5994, 71.8075 z "/>
<path style="fill:rgb(215, 3, 44);fill-opacity:1.0;fill-rule:evenodd;stroke:rgb(0, 0, 0);stroke-width:3.0;" d="M 574.164, 140.802 L 574.935, 147.232 L 556.038, 196.151 L 517.978, 178.233 L 523.88, 154.408 L 547.449, 135.991 z "/>
<path style="fill:rgb(240, 192, 33);fill-opacity:1.0;fill-rule:evenodd;stroke:rgb(0, 0, 0);stroke-width:3.0;" d="M 229.007, 509.066 L 226.708, 512.231 L 211.483, 520.493 L 203.648, 519.018 L 220.83, 505.951 z "/>
<path style="fill:rgb(46, 252, 37);fill-opacity:1.0;fill-rule:evenodd;stroke:rgb(0, 0, 0);stroke-width:3.0;" d="M 352.601, 577.181 L 328.277, 561.955 L 337.898, 513.185 z "/>
<path style="fill:rgb(46, 252, 37);fill-opacity:1.0;fill-rule:evenodd;stroke:rgb(0, 0, 0);stroke-width:3.0;" d="M 553.474, 208.691 L 553.074, 231.984 L 546.189, 227.846 L 547.713, 217.703 L 551.728, 207.308 z "/>
<path style="fill:rgb(46, 252, 37);fill-opacity:1.0;fill-rule:evenodd;stroke:rgb(0, 0, 0);stroke-width:3.0;" d="M 166.902, 64.1776 L 165.271, 67.1638 L 24.1407, 41.7475 L 27.7473, 41.1251 z "/>
<path style="fill:rgb(255, 184, 67);fill-opacity:1.0;fill-rule:evenodd;stroke:rgb(0, 0, 0);stroke-width:3.0;" d="M 700.595, 73.1336 L 700.454, 75.1071 L 690.268, 82.0736 L 685.916, 80.6795 L 681.115, 69.9179 z "/>
<path style="fill:rgb(255, 249, 24);fill-opacity:1.0;fill-rule:evenodd;stroke:rgb(0, 0, 0);stroke-width:3.0;" d="M 720.792, 24.9455 L 718.742, 41.0373 L 682.137, 28.2756 L 682.248, 27.4858 L 690.143, 15.8444 L 709.008, 11.5556 z "/>
<path style="fill:rgb(252, 159, 255);fill-opacity:1.0;fill-rule:evenodd;stroke:rgb(0, 0, 0);stroke-width:3.0;" d="M 743.425, 103.5 L 726.983, 109.239 L 720.43, 105.862 L 719.157, 104.262 L 720.767, 98.1339 z "/>
<path style="fill:rgb(255, 170, 18);fill-opacity:1.0;fill-rule:evenodd;stroke:rgb(0, 0, 0);stroke-width:3.0;" d="M 330.02, 520.304 L 302.479, 548.249 L 291.575, 525.062 L 311.022, 503.777 z "/>
<path style="fill:rgb(168, 234, 7);fill-opacity:1.0;fill-rule:evenodd;stroke:rgb(0, 0, 0);stroke-width:3.0;" d="M 556.274, 21.9218 L 558.585, 23.2418 L 558.804, 23.5221 L 558.376, 29.7174 L 556.741, 34.6776 L 541.897, 43.0763 L 547.428, 21.4386 z "/>
<path style="fill:rgb(55, 55, 255);fill-opacity:1.0;fill-rule:evenodd;stroke:rgb(0, 0, 0);stroke-width:3.0;" d="M 229.739, 548.213 L 198.703, 587.856 L 188.809, 583.777 L 185.296, 569.249 L 209.664, 535.698 z "/>
<path style="fill:rgb(25, 246, 255);fill-opacity:1.0;fill-rule:evenodd;stroke:rgb(0, 0, 0);stroke-width:3.0;" d="M 249.345, 523.17 L 229.739, 548.213 L 209.664, 535.698 L 214.001, 529.727 L 241.007, 510.834 z "/>
<path style="fill:rgb(179, 0, 255);fill-opacity:1.0;fill-rule:evenodd;stroke:rgb(0, 0, 0);stroke-width:3.0;" d="M 526.495, 26.6182 L 519.34, 33.0383 L 508.737, 30.3858 L 507.629, 22.6097 z "/>
<path style="fill:rgb(255, 209, 16);fill-opacity:1.0;fill-rule:evenodd;stroke:rgb(0, 0, 0);stroke-width:3.0;" d="M 243.054, 489.727 L 197.804, 488.652 L 218.022, 462.769 L 263.692, 461.311 z "/>
<path style="fill:rgb(255, 177, 11);fill-opacity:1.0;fill-rule:evenodd;stroke:rgb(0, 0, 0);stroke-width:3.0;" d="M 598.286, 274.294 L 590.484, 275.746 L 603.107, 253.09 L 611.191, 245.017 z "/>
<path style="fill:rgb(243, 204, 10);fill-opacity:1.0;fill-rule:evenodd;stroke:rgb(0, 0, 0);stroke-width:3.0;" d="M 665.417, 55.1365 L 669.078, 75.287 L 647.98, 68.5298 L 643.421, 66.1809 L 645.697, 45.3981 z "/>
<path style="fill:rgb(243, 234, 55);fill-opacity:1.0;fill-rule:evenodd;stroke:rgb(0, 0, 0);stroke-width:3.0;" d="M 160.924, 127.145 L 154.86, 138.246 L 147.556, 127.957 L 156.473, 118.478 z "/>
<path style="fill:rgb(255, 41, 13);fill-opacity:1.0;fill-rule:evenodd;stroke:rgb(0, 0, 0);stroke-width:3.0;" d="M 160.924, 127.145 L 156.473, 118.478 L 178.371, 95.2002 z "/>
<path style="fill:rgb(157, 255, 70);fill-opacity:1.0;fill-rule:evenodd;stroke:rgb(0, 0, 0);stroke-width:3.0;" d="M 607.774, 503.496 L 578.15, 545.204 L 489.597, 547.312 L 511.748, 456.983 z "/>
<path style="fill:rgb(255, 207, 15);fill-opacity:1.0;fill-rule:evenodd;stroke:rgb(0, 0, 0);stroke-width:3.0;" d="M 636.54, 517.429 L 511.748, 456.983 L 512.38, 454.406 L 606.018, 424.163 z "/>
<path style="fill:rgb(255, 243, 161);fill-opacity:1.0;fill-rule:evenodd;stroke:rgb(0, 0, 0);stroke-width:3.0;" d="M 197.804, 488.652 L 123.563, 486.889 L 131.298, 465.536 L 218.022, 462.769 z "/>
<path style="fill:rgb(140, 197, 255);fill-opacity:1.0;fill-rule:evenodd;stroke:rgb(0, 0, 0);stroke-width:3.0;" d="M 399.107, 99.0171 L 376.521, 95.1005 L 370.925, 87.4327 L 356.722, 57.2788 L 356.644, 54.4761 z "/>
<path style="fill:rgb(255, 102, 91);fill-opacity:1.0;fill-rule:evenodd;stroke:rgb(0, 0, 0);stroke-width:3.0;" d="M 249.345, 523.17 L 241.244, 511.183 L 265.992, 501.905 z "/>
<path style="fill:rgb(119, 1, 6);fill-opacity:1.0;fill-rule:evenodd;stroke:rgb(0, 0, 0);stroke-width:3.0;" d="M 499.024, 127.27 L 481.402, 153.351 L 480.5, 153.856 L 483.997, 124.564 z "/>
<path style="fill:rgb(255, 179, 31);fill-opacity:1.0;fill-rule:evenodd;stroke:rgb(0, 0, 0);stroke-width:3.0;" d="M 483.997, 124.564 L 480.5, 153.856 L 467.712, 161.006 L 449.981, 118.438 z "/>
<path style="fill:rgb(119, 255, 255);fill-opacity:1.0;fill-rule:evenodd;stroke:rgb(0, 0, 0);stroke-width:3.0;" d="M 113.916, 122.759 L 86.373, 109.204 L 102.258, 84.8859 z "/>
<path style="fill:rgb(255, 28, 7);fill-opacity:1.0;fill-rule:evenodd;stroke:rgb(0, 0, 0);stroke-width:3.0;" d="M 80.3652, 476.959 L 56.1181, 467.935 L 86.2924, 466.972 z "/>
<path style="fill:rgb(255, 25, 255);fill-opacity:1.0;fill-rule:evenodd;stroke:rgb(0, 0, 0);stroke-width:3.0;" d="M 579.129, 182.206 L 575.237, 198.075 L 561.718, 199.498 L 570.533, 179.316 L 578.7, 178.63 z "/>
<path style="fill:rgb(243, 237, 50);fill-opacity:1.0;fill-rule:evenodd;stroke:rgb(0, 0, 0);stroke-width:3.0;" d="M 561.038, 255.977 L 547.454, 311.373 L 530.11, 274.903 L 550.747, 252.346 z "/>
<path style="fill:rgb(246, 28, 85);fill-opacity:1.0;fill-rule:evenodd;stroke:rgb(0, 0, 0);stroke-width:3.0;" d="M 512.831, 199.014 L 507.487, 220.584 L 490.871, 216.605 L 467.712, 161.006 L 489.731, 148.694 z "/>
<path style="fill:rgb(243, 252, 39);fill-opacity:1.0;fill-rule:evenodd;stroke:rgb(0, 0, 0);stroke-width:3.0;" d="M 529.254, 132.714 L 512.831, 199.014 L 489.731, 148.694 L 520.975, 131.223 z "/>
<path style="fill:rgb(197, 81, 79);fill-opacity:1.0;fill-rule:evenodd;stroke:rgb(0, 0, 0);stroke-width:3.0;" d="M 600.742, 185.526 L 589.206, 223.273 L 560.761, 257.107 L 578.613, 184.308 z "/>
<path style="fill:rgb(255, 23, 124);fill-opacity:1.0;fill-rule:evenodd;stroke:rgb(0, 0, 0);stroke-width:3.0;" d="M 615.459, 137.368 L 600.742, 185.526 L 578.613, 184.308 L 596.8, 110.142 z "/>
<path style="fill:rgb(179, 246, 255);fill-opacity:1.0;fill-rule:evenodd;stroke:rgb(0, 0, 0);stroke-width:3.0;" d="M 272.052, 449.801 L 269.865, 400.262 L 308.041, 400.251 z "/>
<path style="fill:rgb(98, 7, 130);fill-opacity:1.0;fill-rule:evenodd;stroke:rgb(0, 0, 0);stroke-width:3.0;" d="M 189.832, 588.006 L 183.707, 587.698 L 180.469, 582.068 L 180.066, 576.448 L 185.296, 569.249 z "/>
</svg>