<?xml version="1.0" encoding="iso-8859-1" standalone="no"?>
<!DOCTYPE svg PUBLIC "-//W3C//DTD SVG 1.0//EN" "http://www.w3.org/TR/2001/REC-SVG-20010904/DTD/svg10.dtd">
<svg xmlns="http://www.w3.org/2000/svg" width="800" height="600">
<path style="fill:rgb(0, 0, 0);fill-opacity:0.0;fill-rule:evenodd;stroke:rgb(0, 0, 0);stroke-width:0.0;" d="M 0, 600 L 800, 600 L 800, 0 L 0, 0 z "/>
<path style="fill:rgb(152, 246, 59);fill-opacity:1.0;fill-rule:evenodd;stroke:rgb(0, 0, 0);stroke-width:3.0;" d="M 771.852, 438.982 L 718.364, 535.771 L 544.627, 340.883 z "/>
<path style="fill:rgb(45, 0, 249);fill-opacity:1.0;fill-rule:evenodd;stroke:rgb(0, 0, 0);stroke-width:3.0;" d="M 612.87, 580.046 L 615.681, 588.49 L 598.58, 594.956 L 590.814, 585.999 L 609.216, 577.905 z "/>
<path style="fill:rgb(45, 0, 249);fill-opacity:1.0;fill-rule:evenodd;stroke:rgb(0, 0, 0);stroke-width:3.0;" d="M 679.267, 72.8298 L 375.715, 81.6471 L 407.39, 65.4313 L 671.137, 60.3867 z "/>
<path style="fill:rgb(255, 161, 24);fill-opacity:1.0;fill-rule:evenodd;stroke:rgb(0, 0, 0);stroke-width:3.0;" d="M 471.206, 258.525 L 471.002, 258.718 L 434.24, 241.134 L 432.809, 229.498 L 443.524, 227.473 z "/>
<path style="fill:rgb(255, 19, 182);fill-opacity:1.0;fill-rule:evenodd;stroke:rgb(0, 0, 0);stroke-width:3.0;" d="M 593.775, 441.487 L 591.882, 456.012 L 574.17, 464.456 L 565.944, 465.239 L 585.845, 413.27 z "/>
<path style="fill:rgb(255, 19, 182);fill-opacity:1.0;fill-rule:evenodd;stroke:rgb(0, 0, 0);stroke-width:3.0;" d="M 403.897, 183.022 L 315.094, 83.408 L 626.996, 74.3481 z "/>
<path style="fill:rgb(255, 22, 59);fill-opacity:1.0;fill-rule:evenodd;stroke:rgb(0, 0, 0);stroke-width:3.0;" d="M 97.8826, 436.513 L 83.3237, 431.864 L 76.7925, 424.653 L 77.3456, 421.639 L 78.0786, 420.397 L 90.9409, 415.245 z "/>
<path style="fill:rgb(255, 22, 59);fill-opacity:1.0;fill-rule:evenodd;stroke:rgb(0, 0, 0);stroke-width:3.0;" d="M 534.975, 546.112 L 523.898, 549.643 L 522.616, 501.333 L 541.643, 461.402 L 590.615, 400.813 z "/>
<path style="fill:rgb(255, 22, 59);fill-opacity:1.0;fill-rule:evenodd;stroke:rgb(0, 0, 0);stroke-width:3.0;" d="M 184.572, 520.914 L 114.136, 486.31 L 74.5901, 365.151 L 212.554, 324.544 z "/>
<path style="fill:rgb(12, 14, 220);fill-opacity:1.0;fill-rule:evenodd;stroke:rgb(0, 0, 0);stroke-width:3.0;" d="M 311.542, 48.2418 L 295.529, 41.9128 L 298.598, 37.0331 L 306.053, 32.807 z "/>
<path style="fill:rgb(255, 35, 10);fill-opacity:1.0;fill-rule:evenodd;stroke:rgb(0, 0, 0);stroke-width:3.0;" d="M 456.249, 40.1519 L 425.74, 45.988 L 425.682, 39.8204 L 453.492, 35.8648 z "/>
<path style="fill:rgb(255, 35, 10);fill-opacity:1.0;fill-rule:evenodd;stroke:rgb(0, 0, 0);stroke-width:3.0;" d="M 445.259, 37.0358 L 383.054, 45.8834 L 400.368, 18.9932 L 426.531, 9.30278 z "/>
<path style="fill:rgb(255, 35, 10);fill-opacity:1.0;fill-rule:evenodd;stroke:rgb(0, 0, 0);stroke-width:3.0;" d="M 727.435, 90.5478 L 725.173, 87.2072 L 744.587, 70.9324 L 752.885, 70.6914 z "/>
<path style="fill:rgb(255, 35, 10);fill-opacity:1.0;fill-rule:evenodd;stroke:rgb(0, 0, 0);stroke-width:3.0;" d="M 422.907, 231.37 L 419.498, 232.014 L 418.515, 217.581 L 431.374, 215.752 z "/>
<path style="fill:rgb(255, 35, 10);fill-opacity:1.0;fill-rule:evenodd;stroke:rgb(0, 0, 0);stroke-width:3.0;" d="M 366.367, 537.941 L 345.586, 549.92 L 341.982, 548.716 L 353.946, 534.295 z "/>
<path style="fill:rgb(255, 35, 10);fill-opacity:1.0;fill-rule:evenodd;stroke:rgb(0, 0, 0);stroke-width:3.0;" d="M 384.941, 430.055 L 380.01, 424.378 L 378.097, 397.672 L 387.719, 383.806 z "/>
<path style="fill:rgb(255, 35, 10);fill-opacity:1.0;fill-rule:evenodd;stroke:rgb(0, 0, 0);stroke-width:3.0;" d="M 167.602, 162.197 L 168.753, 165.086 L 163.356, 175.11 L 157.749, 175.37 L 146.785, 165.578 L 166.67, 160.897 z "/>
<path style="fill:rgb(255, 35, 10);fill-opacity:1.0;fill-rule:evenodd;stroke:rgb(0, 0, 0);stroke-width:3.0;" d="M 284.259, 522.538 L 246.568, 529.424 L 258.447, 516.192 z "/>
<path style="fill:rgb(255, 35, 10);fill-opacity:1.0;fill-rule:evenodd;stroke:rgb(0, 0, 0);stroke-width:3.0;" d="M 333.29, 513.579 L 284.259, 522.538 L 258.447, 516.192 L 333.259, 432.862 z "/>
<path style="fill:rgb(255, 35, 10);fill-opacity:1.0;fill-rule:evenodd;stroke:rgb(0, 0, 0);stroke-width:3.0;" d="M 154.241, 143.564 L 166.67, 160.897 L 149.763, 164.877 L 142.978, 148.339 L 148.965, 142.782 z "/>
<path style="fill:rgb(255, 35, 10);fill-opacity:1.0;fill-rule:evenodd;stroke:rgb(0, 0, 0);stroke-width:3.0;" d="M 218.87, 46.4891 L 187.942, 190.563 L 130.45, 110.386 L 193.474, 34.2872 z "/>
<path style="fill:rgb(6, 15, 255);fill-opacity:1.0;fill-rule:evenodd;stroke:rgb(0, 0, 0);stroke-width:3.0;" d="M 741.524, 531.947 L 738.258, 536.071 L 719.849, 537.436 L 718.364, 535.771 L 727.247, 519.697 z "/>
<path style="fill:rgb(249, 234, 16);fill-opacity:1.0;fill-rule:evenodd;stroke:rgb(0, 0, 0);stroke-width:3.0;" d="M 522.616, 501.333 L 522.195, 485.464 L 541.643, 461.402 z "/>
<path style="fill:rgb(249, 234, 16);fill-opacity:1.0;fill-rule:evenodd;stroke:rgb(0, 0, 0);stroke-width:3.0;" d="M 491.329, 259.553 L 467.498, 152.042 L 626.996, 74.3481 L 666.885, 73.1894 z "/>
<path style="fill:rgb(10, 202, 255);fill-opacity:1.0;fill-rule:evenodd;stroke:rgb(0, 0, 0);stroke-width:3.0;" d="M 685.091, 498.448 L 685.128, 498.779 L 608.96, 568.889 L 585.762, 543.194 L 611.071, 521.855 L 684.96, 498.301 z "/>
<path style="fill:rgb(10, 202, 255);fill-opacity:1.0;fill-rule:evenodd;stroke:rgb(0, 0, 0);stroke-width:3.0;" d="M 378.25, 541.429 L 377.108, 560.447 L 345.586, 549.92 L 366.367, 537.941 z "/>
<path style="fill:rgb(10, 202, 255);fill-opacity:1.0;fill-rule:evenodd;stroke:rgb(0, 0, 0);stroke-width:3.0;" d="M 761.199, 548.829 L 737.802, 556.955 L 735.848, 548.261 L 745.819, 536.27 L 746.407, 536.138 z "/>
<path style="fill:rgb(33, 140, 234);fill-opacity:1.0;fill-rule:evenodd;stroke:rgb(0, 0, 0);stroke-width:3.0;" d="M 280.488, 258.507 L 274.706, 272.654 L 252.576, 280.701 L 249.282, 276.106 L 264.453, 257.694 z "/>
<path style="fill:rgb(33, 140, 234);fill-opacity:1.0;fill-rule:evenodd;stroke:rgb(0, 0, 0);stroke-width:3.0;" d="M 248.736, 30.5344 L 215.48, 90.0287 L 227.358, 11.3524 z "/>
<path style="fill:rgb(255, 18, 74);fill-opacity:1.0;fill-rule:evenodd;stroke:rgb(0, 0, 0);stroke-width:3.0;" d="M 342.603, 67.5539 L 324.9, 70.1589 L 319.715, 63.4901 L 334.174, 62.1562 z "/>
<path style="fill:rgb(255, 18, 74);fill-opacity:1.0;fill-rule:evenodd;stroke:rgb(0, 0, 0);stroke-width:3.0;" d="M 527.849, 578.485 L 520.1, 586.752 L 511.571, 580.333 L 519.705, 569.547 z "/>
<path style="fill:rgb(255, 18, 74);fill-opacity:1.0;fill-rule:evenodd;stroke:rgb(0, 0, 0);stroke-width:3.0;" d="M 767.344, 528.446 L 782.367, 541.477 L 773.05, 544.713 L 743.403, 528.842 L 748.63, 526.735 z "/>
<path style="fill:rgb(255, 18, 74);fill-opacity:1.0;fill-rule:evenodd;stroke:rgb(0, 0, 0);stroke-width:3.0;" d="M 519.977, 313.233 L 511.515, 340.888 L 457.043, 271.923 L 471.206, 258.525 z "/>
<path style="fill:rgb(255, 18, 74);fill-opacity:1.0;fill-rule:evenodd;stroke:rgb(0, 0, 0);stroke-width:3.0;" d="M 491.329, 259.553 L 481.461, 270.028 L 429.605, 211.86 L 428.538, 171.02 L 467.498, 152.042 z "/>
<path style="fill:rgb(255, 92, 11);fill-opacity:1.0;fill-rule:evenodd;stroke:rgb(0, 0, 0);stroke-width:3.0;" d="M 231.863, 251.814 L 220.462, 267.529 L 225.289, 242.646 z "/>
<path style="fill:rgb(255, 92, 11);fill-opacity:1.0;fill-rule:evenodd;stroke:rgb(0, 0, 0);stroke-width:3.0;" d="M 565.571, 62.4058 L 407.39, 65.4313 L 479.227, 28.6546 z "/>
<path style="fill:rgb(14, 70, 243);fill-opacity:1.0;fill-rule:evenodd;stroke:rgb(0, 0, 0);stroke-width:3.0;" d="M 532.804, 472.338 L 493.121, 521.435 L 475.256, 459.386 L 503.659, 366.561 z "/>
<path style="fill:rgb(14, 70, 243);fill-opacity:1.0;fill-rule:evenodd;stroke:rgb(0, 0, 0);stroke-width:3.0;" d="M 108.665, 469.548 L 113.582, 484.612 L 56.8507, 452.86 L 68.3096, 447.689 z "/>
<path style="fill:rgb(126, 255, 81);fill-opacity:1.0;fill-rule:evenodd;stroke:rgb(0, 0, 0);stroke-width:3.0;" d="M 214.748, 94.8826 L 209.313, 91.0079 L 214.477, 66.9534 L 219.187, 65.4805 z "/>
<path style="fill:rgb(126, 255, 81);fill-opacity:1.0;fill-rule:evenodd;stroke:rgb(0, 0, 0);stroke-width:3.0;" d="M 399.074, 194.804 L 388.467, 371.367 L 365.432, 397.024 L 320.047, 230.567 L 392.24, 171.071 z "/>
<path style="fill:rgb(126, 255, 81);fill-opacity:1.0;fill-rule:evenodd;stroke:rgb(0, 0, 0);stroke-width:3.0;" d="M 510.492, 581.763 L 505.337, 563.86 L 525.763, 561.513 z "/>
<path style="fill:rgb(217, 75, 58);fill-opacity:1.0;fill-rule:evenodd;stroke:rgb(0, 0, 0);stroke-width:3.0;" d="M 387.719, 383.806 L 333.27, 462.265 L 333.259, 432.862 L 388.467, 371.367 z "/>
<path style="fill:rgb(50, 39, 255);fill-opacity:1.0;fill-rule:evenodd;stroke:rgb(0, 0, 0);stroke-width:3.0;" d="M 594.152, 396.437 L 548.306, 453.159 L 564.589, 363.276 z "/>
<path style="fill:rgb(255, 7, 187);fill-opacity:1.0;fill-rule:evenodd;stroke:rgb(0, 0, 0);stroke-width:3.0;" d="M 671.137, 60.3867 L 565.571, 62.4058 L 479.227, 28.6546 L 491.36, 22.4433 L 642.724, 16.8972 z "/>
<path style="fill:rgb(34, 215, 255);fill-opacity:1.0;fill-rule:evenodd;stroke:rgb(0, 0, 0);stroke-width:3.0;" d="M 396.231, 25.418 L 388.251, 37.8116 L 370.652, 45.535 L 369.341, 43.2526 L 381.169, 26.104 L 389.255, 23.1092 z "/>
<path style="fill:rgb(34, 215, 255);fill-opacity:1.0;fill-rule:evenodd;stroke:rgb(0, 0, 0);stroke-width:3.0;" d="M 349.724, 72.1144 L 342.208, 82.6204 L 334.758, 82.8368 L 324.9, 70.1589 L 342.603, 67.5539 z "/>
<path style="fill:rgb(8, 21, 192);fill-opacity:1.0;fill-rule:evenodd;stroke:rgb(0, 0, 0);stroke-width:3.0;" d="M 787.334, 126.233 L 776.871, 150.303 L 778.666, 122.518 z "/>
<path style="fill:rgb(255, 255, 57);fill-opacity:1.0;fill-rule:evenodd;stroke:rgb(0, 0, 0);stroke-width:3.0;" d="M 747.612, 97.8558 L 735.678, 102.723 L 727.435, 90.5478 L 746.692, 75.5228 z "/>
<path style="fill:rgb(255, 12, 44);fill-opacity:1.0;fill-rule:evenodd;stroke:rgb(0, 0, 0);stroke-width:3.0;" d="M 76.857, 420.886 L 43.495, 434.249 L 33.3871, 428.774 L 31.6269, 377.796 L 54.2751, 371.13 z "/>
<path style="fill:rgb(255, 17, 7);fill-opacity:1.0;fill-rule:evenodd;stroke:rgb(0, 0, 0);stroke-width:3.0;" d="M 759.004, 556.26 L 755.488, 561.127 L 746.426, 567.249 L 745.277, 565.961 L 743.794, 554.874 L 751.541, 552.183 z "/>
<path style="fill:rgb(234, 209, 9);fill-opacity:1.0;fill-rule:evenodd;stroke:rgb(0, 0, 0);stroke-width:3.0;" d="M 480.866, 26.1882 L 479.776, 28.3733 L 465.154, 35.8593 L 470.017, 11.8743 L 475.083, 10.3408 L 476.353, 10.3381 z "/>
<path style="fill:rgb(234, 209, 9);fill-opacity:1.0;fill-rule:evenodd;stroke:rgb(0, 0, 0);stroke-width:3.0;" d="M 213.379, 226.036 L 225.289, 242.646 L 220.462, 267.529 L 206.315, 287.03 L 200.395, 223.591 z "/>
<path style="fill:rgb(234, 209, 9);fill-opacity:1.0;fill-rule:evenodd;stroke:rgb(0, 0, 0);stroke-width:3.0;" d="M 272.021, 307.042 L 271.561, 307.177 L 252.576, 280.701 L 285.013, 268.906 z "/>
<path style="fill:rgb(255, 4, 10);fill-opacity:1.0;fill-rule:evenodd;stroke:rgb(0, 0, 0);stroke-width:3.0;" d="M 633.016, 591.853 L 607.122, 576.677 L 628.099, 560.093 z "/>
<path style="fill:rgb(255, 4, 10);fill-opacity:1.0;fill-rule:evenodd;stroke:rgb(0, 0, 0);stroke-width:3.0;" d="M 778.67, 122.465 L 776.871, 150.303 L 773.361, 158.377 L 758.478, 136.397 L 763.83, 120.322 z "/>
<path style="fill:rgb(234, 79, 8);fill-opacity:1.0;fill-rule:evenodd;stroke:rgb(0, 0, 0);stroke-width:3.0;" d="M 609.216, 577.905 L 607.209, 578.788 L 577.886, 568.288 L 576.852, 558.937 z "/>
<path style="fill:rgb(231, 255, 189);fill-opacity:1.0;fill-rule:evenodd;stroke:rgb(0, 0, 0);stroke-width:3.0;" d="M 169.306, 513.857 L 135.508, 554.433 L 83.0869, 544.455 L 130.903, 508.77 z "/>
<path style="fill:rgb(7, 197, 252);fill-opacity:1.0;fill-rule:evenodd;stroke:rgb(0, 0, 0);stroke-width:3.0;" d="M 319.106, 168.832 L 288.418, 258.909 L 235.008, 256.201 L 198.153, 204.803 L 215.48, 90.0287 L 227.639, 68.2771 z "/>
<path style="fill:rgb(255, 255, 11);fill-opacity:1.0;fill-rule:evenodd;stroke:rgb(0, 0, 0);stroke-width:3.0;" d="M 172.054, 60.1516 L 164.395, 56.7564 L 169.887, 33.2888 L 198.556, 28.152 z "/>
<path style="fill:rgb(255, 58, 17);fill-opacity:1.0;fill-rule:evenodd;stroke:rgb(0, 0, 0);stroke-width:3.0;" d="M 553.848, 547.162 L 544.843, 579.501 L 529.9, 592.037 L 551.516, 547.118 z "/>
<path style="fill:rgb(255, 58, 17);fill-opacity:1.0;fill-rule:evenodd;stroke:rgb(0, 0, 0);stroke-width:3.0;" d="M 264.453, 257.694 L 249.282, 276.106 L 235.008, 256.201 z "/>
<path style="fill:rgb(255, 58, 17);fill-opacity:1.0;fill-rule:evenodd;stroke:rgb(0, 0, 0);stroke-width:3.0;" d="M 648.487, 457.388 L 590.99, 462.856 L 598.947, 401.816 z "/>
<path style="fill:rgb(62, 64, 152);fill-opacity:1.0;fill-rule:evenodd;stroke:rgb(0, 0, 0);stroke-width:3.0;" d="M 531.523, 574.565 L 527.849, 578.485 L 519.705, 569.547 L 529.666, 556.339 z "/>
<path style="fill:rgb(62, 64, 152);fill-opacity:1.0;fill-rule:evenodd;stroke:rgb(0, 0, 0);stroke-width:3.0;" d="M 443.524, 227.473 L 422.907, 231.37 L 431.374, 215.752 L 432.884, 215.537 z "/>
<path style="fill:rgb(62, 64, 152);fill-opacity:1.0;fill-rule:evenodd;stroke:rgb(0, 0, 0);stroke-width:3.0;" d="M 791.615, 546.661 L 758.105, 572.781 L 762.716, 556.897 L 784.659, 542.355 z "/>
<path style="fill:rgb(255, 234, 37);fill-opacity:1.0;fill-rule:evenodd;stroke:rgb(0, 0, 0);stroke-width:3.0;" d="M 564.589, 363.276 L 548.306, 453.159 L 532.804, 472.338 L 503.659, 366.561 L 519.977, 313.233 z "/>
<path style="fill:rgb(177, 7, 255);fill-opacity:1.0;fill-rule:evenodd;stroke:rgb(0, 0, 0);stroke-width:3.0;" d="M 254.412, 17.7102 L 254.533, 20.1627 L 253.206, 22.5371 L 240.587, 23.2228 L 235.302, 18.4803 L 251.15, 14.8588 z "/>
<path style="fill:rgb(177, 7, 255);fill-opacity:1.0;fill-rule:evenodd;stroke:rgb(0, 0, 0);stroke-width:3.0;" d="M 646.759, 560.824 L 636.419, 567.068 L 628.057, 559.817 L 626.904, 552.372 L 639.373, 540.895 z "/>
<path style="fill:rgb(199, 5, 184);fill-opacity:1.0;fill-rule:evenodd;stroke:rgb(0, 0, 0);stroke-width:3.0;" d="M 792.742, 178.885 L 791.554, 185.247 L 779.5, 167.444 L 790.393, 163.735 z "/>
<path style="fill:rgb(199, 5, 184);fill-opacity:1.0;fill-rule:evenodd;stroke:rgb(0, 0, 0);stroke-width:3.0;" d="M 420.286, 187.783 L 418.027, 198.872 L 403.897, 183.022 L 412.411, 178.875 z "/>
<path style="fill:rgb(42, 249, 48);fill-opacity:1.0;fill-rule:evenodd;stroke:rgb(0, 0, 0);stroke-width:3.0;" d="M 247.061, 11.2841 L 251.15, 14.8588 L 235.302, 18.4803 L 227.358, 11.3524 L 227.652, 9.40848 z "/>
<path style="fill:rgb(42, 249, 48);fill-opacity:1.0;fill-rule:evenodd;stroke:rgb(0, 0, 0);stroke-width:3.0;" d="M 773.833, 483.197 L 786.297, 493.774 L 743.104, 491.003 L 748.906, 480.505 z "/>
<path style="fill:rgb(255, 172, 255);fill-opacity:1.0;fill-rule:evenodd;stroke:rgb(0, 0, 0);stroke-width:3.0;" d="M 515.697, 21.5515 L 491.36, 22.4433 L 500.846, 17.5865 L 522.571, 13.2717 z "/>
<path style="fill:rgb(255, 172, 255);fill-opacity:1.0;fill-rule:evenodd;stroke:rgb(0, 0, 0);stroke-width:3.0;" d="M 664.839, 570.639 L 654.57, 581.896 L 639.373, 540.895 L 643.747, 536.869 z "/>
<path style="fill:rgb(255, 228, 27);fill-opacity:1.0;fill-rule:evenodd;stroke:rgb(0, 0, 0);stroke-width:3.0;" d="M 181.891, 182.124 L 101.576, 200.158 L 84.6285, 197.337 L 85.4149, 195.853 L 153.051, 175.588 L 176.426, 174.502 z "/>
<path style="fill:rgb(255, 175, 6);fill-opacity:1.0;fill-rule:evenodd;stroke:rgb(0, 0, 0);stroke-width:3.0;" d="M 84.1557, 394.457 L 90.9409, 415.245 L 84.6657, 417.759 L 72.7361, 401.319 L 74.9422, 392.843 z "/>
<path style="fill:rgb(255, 246, 9);fill-opacity:1.0;fill-rule:evenodd;stroke:rgb(0, 0, 0);stroke-width:3.0;" d="M 779.782, 105.26 L 779.243, 113.603 L 745.392, 117.07 L 740.959, 110.522 L 770.289, 104.925 z "/>
<path style="fill:rgb(255, 246, 9);fill-opacity:1.0;fill-rule:evenodd;stroke:rgb(0, 0, 0);stroke-width:3.0;" d="M 339.403, 214.615 L 289.497, 255.744 L 299.392, 226.699 L 331.03, 210.501 z "/>
<path style="fill:rgb(255, 246, 9);fill-opacity:1.0;fill-rule:evenodd;stroke:rgb(0, 0, 0);stroke-width:3.0;" d="M 557.198, 547.226 L 562.274, 553.081 L 562.118, 565.01 L 544.843, 579.501 L 553.848, 547.162 z "/>
<path style="fill:rgb(255, 18, 21);fill-opacity:1.0;fill-rule:evenodd;stroke:rgb(0, 0, 0);stroke-width:3.0;" d="M 589.245, 572.356 L 598.051, 582.816 L 590.814, 585.999 L 578.049, 571.275 L 579.762, 568.96 z "/>
<path style="fill:rgb(255, 18, 21);fill-opacity:1.0;fill-rule:evenodd;stroke:rgb(0, 0, 0);stroke-width:3.0;" d="M 198.556, 28.152 L 190.734, 29.5535 L 185.668, 21.7998 L 206.58, 18.4623 z "/>
<path style="fill:rgb(240, 228, 9);fill-opacity:1.0;fill-rule:evenodd;stroke:rgb(0, 0, 0);stroke-width:3.0;" d="M 135.508, 554.433 L 123.842, 568.439 L 102.087, 562.754 L 66.4486, 541.288 z "/>
<path style="fill:rgb(255, 237, 11);fill-opacity:1.0;fill-rule:evenodd;stroke:rgb(0, 0, 0);stroke-width:3.0;" d="M 280.854, 544.91 L 276.566, 544.821 L 272.459, 524.694 L 286.565, 522.116 z "/>
<path style="fill:rgb(255, 237, 11);fill-opacity:1.0;fill-rule:evenodd;stroke:rgb(0, 0, 0);stroke-width:3.0;" d="M 267.013, 321.74 L 226.496, 338.6 L 210.481, 339.09 L 212.554, 324.544 L 272.021, 307.042 z "/>
<path style="fill:rgb(255, 255, 107);fill-opacity:1.0;fill-rule:evenodd;stroke:rgb(0, 0, 0);stroke-width:3.0;" d="M 734.82, 79.12 L 725.81, 79.831 L 724.92, 71.5037 L 744.587, 70.9324 z "/>
<path style="fill:rgb(255, 255, 107);fill-opacity:1.0;fill-rule:evenodd;stroke:rgb(0, 0, 0);stroke-width:3.0;" d="M 71.1294, 447.791 L 43.532, 434.234 L 64.2931, 425.919 z "/>
<path style="fill:rgb(255, 255, 14);fill-opacity:1.0;fill-rule:evenodd;stroke:rgb(0, 0, 0);stroke-width:3.0;" d="M 231.541, 390.412 L 204.287, 382.56 L 210.481, 339.09 L 257.713, 337.646 z "/>
<path style="fill:rgb(255, 255, 14);fill-opacity:1.0;fill-rule:evenodd;stroke:rgb(0, 0, 0);stroke-width:3.0;" d="M 94.2054, 185.935 L 89.1261, 194.741 L 64.4125, 202.146 L 59.1013, 196.535 L 69.6177, 183.837 z "/>
<path style="fill:rgb(234, 28, 34);fill-opacity:1.0;fill-rule:evenodd;stroke:rgb(0, 0, 0);stroke-width:3.0;" d="M 790.393, 163.735 L 779.5, 167.444 L 775.974, 162.236 L 784.501, 150.065 L 788.181, 149.472 z "/>
<path style="fill:rgb(234, 28, 34);fill-opacity:1.0;fill-rule:evenodd;stroke:rgb(0, 0, 0);stroke-width:3.0;" d="M 539.945, 571.163 L 539.284, 572.536 L 527.104, 592.024 L 520.1, 586.752 L 534.924, 570.937 z "/>
<path style="fill:rgb(234, 28, 34);fill-opacity:1.0;fill-rule:evenodd;stroke:rgb(0, 0, 0);stroke-width:3.0;" d="M 224.162, 21.8383 L 222.24, 30.7873 L 202.508, 23.3792 L 204.499, 20.9754 L 212.202, 17.4349 z "/>
<path style="fill:rgb(234, 28, 34);fill-opacity:1.0;fill-rule:evenodd;stroke:rgb(0, 0, 0);stroke-width:3.0;" d="M 281.966, 17.7886 L 291.485, 31.1025 L 289.411, 52.2225 L 288.572, 53.6569 L 251.986, 12.6169 L 260.323, 8.23877 z "/>
<path style="fill:rgb(226, 36, 91);fill-opacity:1.0;fill-rule:evenodd;stroke:rgb(0, 0, 0);stroke-width:3.0;" d="M 99.9329, 442.794 L 103.372, 453.33 L 81.841, 452.16 L 93.1624, 439.313 z "/>
<path style="fill:rgb(255, 215, 13);fill-opacity:1.0;fill-rule:evenodd;stroke:rgb(0, 0, 0);stroke-width:3.0;" d="M 93.1624, 439.313 L 81.841, 452.16 L 75.9741, 451.841 L 72.1801, 449.786 L 75.7458, 430.356 z "/>
<path style="fill:rgb(255, 61, 103);fill-opacity:1.0;fill-rule:evenodd;stroke:rgb(0, 0, 0);stroke-width:3.0;" d="M 248.365, 337.932 L 226.496, 338.6 L 265.491, 322.374 z "/>
<path style="fill:rgb(255, 61, 103);fill-opacity:1.0;fill-rule:evenodd;stroke:rgb(0, 0, 0);stroke-width:3.0;" d="M 68.9086, 459.608 L 113.582, 484.612 L 114.136, 486.31 L 51.2205, 455.4 L 51.8236, 455.128 z "/>
<path style="fill:rgb(15, 255, 255);fill-opacity:1.0;fill-rule:evenodd;stroke:rgb(0, 0, 0);stroke-width:3.0;" d="M 381.556, 486.403 L 348.559, 523.772 L 348.559, 520.058 L 382.757, 466.402 z "/>
<path style="fill:rgb(249, 240, 48);fill-opacity:1.0;fill-rule:evenodd;stroke:rgb(0, 0, 0);stroke-width:3.0;" d="M 369.341, 43.2526 L 363.293, 32.7251 L 381.169, 26.104 z "/>
<path style="fill:rgb(249, 240, 48);fill-opacity:1.0;fill-rule:evenodd;stroke:rgb(0, 0, 0);stroke-width:3.0;" d="M 109.388, 174.382 L 69.7122, 183.723 L 102.523, 144.106 L 122.061, 140.896 z "/>
<path style="fill:rgb(249, 240, 48);fill-opacity:1.0;fill-rule:evenodd;stroke:rgb(0, 0, 0);stroke-width:3.0;" d="M 202.932, 27.3542 L 208.427, 41.4713 L 193.474, 34.2872 L 199.934, 26.4872 z "/>
<path style="fill:rgb(249, 240, 48);fill-opacity:1.0;fill-rule:evenodd;stroke:rgb(0, 0, 0);stroke-width:3.0;" d="M 130.903, 508.77 L 83.0869, 544.455 L 13.6925, 531.247 L 21.537, 494.281 z "/>
<path style="fill:rgb(10, 67, 184);fill-opacity:1.0;fill-rule:evenodd;stroke:rgb(0, 0, 0);stroke-width:3.0;" d="M 593.197, 551.429 L 586.883, 564.816 L 557.537, 547.617 L 551.629, 540.803 L 576.458, 532.888 z "/>
<path style="fill:rgb(255, 226, 83);fill-opacity:1.0;fill-rule:evenodd;stroke:rgb(0, 0, 0);stroke-width:3.0;" d="M 132.517, 113.268 L 122.061, 140.896 L 102.523, 144.106 L 130.45, 110.386 z "/>
<path style="fill:rgb(255, 226, 83);fill-opacity:1.0;fill-rule:evenodd;stroke:rgb(0, 0, 0);stroke-width:3.0;" d="M 592.806, 588.297 L 560.724, 592.644 L 557.372, 568.992 L 568.196, 559.911 z "/>
<path style="fill:rgb(255, 2, 14);fill-opacity:1.0;fill-rule:evenodd;stroke:rgb(0, 0, 0);stroke-width:3.0;" d="M 301.69, 545.342 L 280.854, 544.91 L 286.565, 522.116 L 298.128, 520.004 z "/>
<path style="fill:rgb(105, 237, 255);fill-opacity:1.0;fill-rule:evenodd;stroke:rgb(0, 0, 0);stroke-width:3.0;" d="M 365.771, 520.041 L 333.308, 559.172 L 333.304, 547.716 L 352.095, 519.767 L 361.683, 508.909 z "/>
<path style="fill:rgb(114, 246, 220);fill-opacity:1.0;fill-rule:evenodd;stroke:rgb(0, 0, 0);stroke-width:3.0;" d="M 80.6398, 204.859 L 79.2896, 205.162 L 68.8152, 205.322 L 62.3853, 202.753 L 85.4149, 195.853 z "/>
<path style="fill:rgb(114, 246, 220);fill-opacity:1.0;fill-rule:evenodd;stroke:rgb(0, 0, 0);stroke-width:3.0;" d="M 13.6925, 531.247 L 7.65119, 530.097 L 20.6157, 498.622 z "/>
<path style="fill:rgb(13, 79, 243);fill-opacity:1.0;fill-rule:evenodd;stroke:rgb(0, 0, 0);stroke-width:3.0;" d="M 78.7959, 378.036 L 71.0014, 407.984 L 54.2751, 371.13 L 60.5443, 369.285 L 75.0499, 366.559 z "/>
<path style="fill:rgb(255, 252, 52);fill-opacity:1.0;fill-rule:evenodd;stroke:rgb(0, 0, 0);stroke-width:3.0;" d="M 449.643, 29.8792 L 445.217, 36.9741 L 436.337, 23.8241 L 444.126, 21.301 z "/>
<path style="fill:rgb(255, 252, 52);fill-opacity:1.0;fill-rule:evenodd;stroke:rgb(0, 0, 0);stroke-width:3.0;" d="M 551.516, 547.118 L 545.466, 559.69 L 531.523, 574.565 L 529.666, 556.339 L 536.832, 546.837 z "/>
<path style="fill:rgb(255, 6, 7);fill-opacity:1.0;fill-rule:evenodd;stroke:rgb(0, 0, 0);stroke-width:3.0;" d="M 320.516, 89.49 L 335.399, 121.007 L 319.106, 168.832 L 227.639, 68.2771 L 256.144, 17.2811 z "/>
<path style="fill:rgb(255, 192, 9);fill-opacity:1.0;fill-rule:evenodd;stroke:rgb(0, 0, 0);stroke-width:3.0;" d="M 428.784, 191.476 L 427.639, 209.654 L 418.027, 198.872 L 421.579, 181.438 z "/>
<path style="fill:rgb(161, 243, 202);fill-opacity:1.0;fill-rule:evenodd;stroke:rgb(0, 0, 0);stroke-width:3.0;" d="M 394.325, 54.428 L 396.444, 67.4205 L 377.46, 67.7526 L 354.968, 59.3035 L 354.357, 49.9653 L 379.541, 46.3832 z "/>
<path style="fill:rgb(255, 212, 21);fill-opacity:1.0;fill-rule:evenodd;stroke:rgb(0, 0, 0);stroke-width:3.0;" d="M 602.535, 561.772 L 601.515, 563.099 L 592.704, 568.227 L 586.883, 564.816 L 593.197, 551.429 z "/>
<path style="fill:rgb(255, 212, 21);fill-opacity:1.0;fill-rule:evenodd;stroke:rgb(0, 0, 0);stroke-width:3.0;" d="M 271.561, 307.177 L 210.364, 325.189 L 207.543, 285.337 L 231.863, 251.814 z "/>
<path style="fill:rgb(74, 54, 228);fill-opacity:1.0;fill-rule:evenodd;stroke:rgb(0, 0, 0);stroke-width:3.0;" d="M 179.707, 555.051 L 175.383, 585.4 L 118.311, 593.231 L 117.081, 576.556 L 153.327, 533.041 z "/>
<path style="fill:rgb(255, 146, 56);fill-opacity:1.0;fill-rule:evenodd;stroke:rgb(0, 0, 0);stroke-width:3.0;" d="M 133.597, 181.417 L 96.6768, 192.479 L 91.202, 191.142 L 98.7166, 178.113 L 127.846, 176.76 z "/>
<path style="fill:rgb(255, 89, 33);fill-opacity:1.0;fill-rule:evenodd;stroke:rgb(0, 0, 0);stroke-width:3.0;" d="M 786.297, 493.774 L 792.642, 499.159 L 774.235, 506.946 L 739.373, 497.756 L 743.104, 491.003 z "/>
<path style="fill:rgb(252, 252, 58);fill-opacity:1.0;fill-rule:evenodd;stroke:rgb(0, 0, 0);stroke-width:3.0;" d="M 214.748, 94.8826 L 198.153, 204.803 L 187.942, 190.563 L 209.313, 91.0079 z "/>
<path style="fill:rgb(255, 209, 15);fill-opacity:1.0;fill-rule:evenodd;stroke:rgb(0, 0, 0);stroke-width:3.0;" d="M 242.538, 393.581 L 231.541, 390.412 L 257.713, 337.646 L 261.635, 337.526 z "/>
<path style="fill:rgb(249, 223, 30);fill-opacity:1.0;fill-rule:evenodd;stroke:rgb(0, 0, 0);stroke-width:3.0;" d="M 778.67, 122.465 L 745.834, 117.723 L 745.392, 117.07 L 779.243, 113.603 z "/>
<path style="fill:rgb(13, 24, 255);fill-opacity:1.0;fill-rule:evenodd;stroke:rgb(0, 0, 0);stroke-width:3.0;" d="M 344.689, 549.62 L 349.711, 583.355 L 333.314, 574.994 L 333.308, 559.172 L 341.982, 548.716 z "/>
<path style="fill:rgb(255, 91, 33);fill-opacity:1.0;fill-rule:evenodd;stroke:rgb(0, 0, 0);stroke-width:3.0;" d="M 391.762, 169.409 L 392.24, 171.071 L 366.316, 192.436 L 299.392, 226.699 L 339.052, 110.283 z "/>
<path style="fill:rgb(255, 1, 67);fill-opacity:1.0;fill-rule:evenodd;stroke:rgb(0, 0, 0);stroke-width:3.0;" d="M 242.538, 393.581 L 240.312, 400.115 L 213.636, 436.175 L 203.786, 386.076 L 204.287, 382.56 z "/>
<path style="fill:rgb(237, 117, 10);fill-opacity:1.0;fill-rule:evenodd;stroke:rgb(0, 0, 0);stroke-width:3.0;" d="M 318.177, 42.6785 L 316.52, 44.4858 L 312.972, 23.515 L 320.505, 17.3761 z "/>
<path style="fill:rgb(237, 117, 10);fill-opacity:1.0;fill-rule:evenodd;stroke:rgb(0, 0, 0);stroke-width:3.0;" d="M 261.635, 337.526 L 248.365, 337.932 L 265.491, 322.374 L 267.013, 321.74 z "/>
<path style="fill:rgb(199, 17, 36);fill-opacity:1.0;fill-rule:evenodd;stroke:rgb(0, 0, 0);stroke-width:3.0;" d="M 588.613, 540.789 L 584.226, 530.412 L 611.071, 521.855 z "/>
<path style="fill:rgb(199, 17, 36);fill-opacity:1.0;fill-rule:evenodd;stroke:rgb(0, 0, 0);stroke-width:3.0;" d="M 628.099, 560.093 L 607.122, 576.677 L 603.075, 574.306 L 626.904, 552.372 z "/>
<path style="fill:rgb(234, 2, 28);fill-opacity:1.0;fill-rule:evenodd;stroke:rgb(0, 0, 0);stroke-width:3.0;" d="M 179.707, 555.051 L 159.6, 538.275 L 184.316, 522.709 z "/>
<path style="fill:rgb(252, 16, 42);fill-opacity:1.0;fill-rule:evenodd;stroke:rgb(0, 0, 0);stroke-width:3.0;" d="M 435.202, 51.1928 L 414.4, 61.8426 L 410.569, 63.2673 L 409.284, 62.5684 L 408.171, 59.5641 L 416.258, 48.5921 z "/>
<path style="fill:rgb(255, 132, 117);fill-opacity:1.0;fill-rule:evenodd;stroke:rgb(0, 0, 0);stroke-width:3.0;" d="M 523.898, 549.643 L 503.148, 556.257 L 493.121, 521.435 L 509.013, 501.773 L 522.333, 490.655 z "/>
<path style="fill:rgb(255, 255, 11);fill-opacity:1.0;fill-rule:evenodd;stroke:rgb(0, 0, 0);stroke-width:3.0;" d="M 676.118, 488.382 L 669.944, 503.088 L 534.975, 546.112 L 559.353, 482.451 L 566.343, 465.201 L 648.487, 457.388 z "/>
<path style="fill:rgb(231, 255, 23);fill-opacity:1.0;fill-rule:evenodd;stroke:rgb(0, 0, 0);stroke-width:3.0;" d="M 157.749, 175.37 L 136.499, 176.358 L 132.254, 168.999 L 146.785, 165.578 z "/>
<path style="fill:rgb(255, 228, 98);fill-opacity:1.0;fill-rule:evenodd;stroke:rgb(0, 0, 0);stroke-width:3.0;" d="M 232.513, 423.008 L 223.564, 449.276 L 215.255, 444.409 L 213.636, 436.175 L 228.985, 415.427 z "/>
<path style="fill:rgb(255, 228, 98);fill-opacity:1.0;fill-rule:evenodd;stroke:rgb(0, 0, 0);stroke-width:3.0;" d="M 384.111, 443.869 L 382.757, 466.402 L 333.302, 543.994 L 333.27, 462.265 L 353.656, 432.889 z "/>
<path style="fill:rgb(18, 4, 255);fill-opacity:1.0;fill-rule:evenodd;stroke:rgb(0, 0, 0);stroke-width:3.0;" d="M 384.941, 430.055 L 384.111, 443.869 L 353.656, 432.889 L 368.645, 411.292 z "/>
<path style="fill:rgb(255, 249, 49);fill-opacity:1.0;fill-rule:evenodd;stroke:rgb(0, 0, 0);stroke-width:3.0;" d="M 329.536, 545.919 L 301.69, 545.342 L 298.128, 520.004 L 332.965, 513.639 z "/>
<path style="fill:rgb(24, 163, 255);fill-opacity:1.0;fill-rule:evenodd;stroke:rgb(0, 0, 0);stroke-width:3.0;" d="M 207.533, 224.935 L 89.9021, 202.779 L 161.648, 186.67 z "/>
<path style="fill:rgb(255, 215, 16);fill-opacity:1.0;fill-rule:evenodd;stroke:rgb(0, 0, 0);stroke-width:3.0;" d="M 221.806, 32.8123 L 218.87, 46.4891 L 208.427, 41.4713 L 202.932, 27.3542 z "/>
<path style="fill:rgb(255, 215, 16);fill-opacity:1.0;fill-rule:evenodd;stroke:rgb(0, 0, 0);stroke-width:3.0;" d="M 213.379, 226.036 L 207.533, 224.935 L 161.648, 186.67 L 181.891, 182.124 z "/>
<path style="fill:rgb(243, 49, 22);fill-opacity:1.0;fill-rule:evenodd;stroke:rgb(0, 0, 0);stroke-width:3.0;" d="M 149.763, 164.877 L 116.797, 172.638 L 142.978, 148.339 z "/>
<path style="fill:rgb(255, 126, 132);fill-opacity:1.0;fill-rule:evenodd;stroke:rgb(0, 0, 0);stroke-width:3.0;" d="M 173.543, 529.493 L 159.6, 538.275 L 154.396, 533.933 L 166.325, 517.874 z "/>
<path style="fill:rgb(240, 168, 30);fill-opacity:1.0;fill-rule:evenodd;stroke:rgb(0, 0, 0);stroke-width:3.0;" d="M 793.336, 512.651 L 786.612, 516.385 L 750.44, 512.976 L 758, 507.315 z "/>
<path style="fill:rgb(240, 168, 30);fill-opacity:1.0;fill-rule:evenodd;stroke:rgb(0, 0, 0);stroke-width:3.0;" d="M 773.05, 544.713 L 765.272, 547.415 L 755.89, 544.274 L 744.168, 534.216 L 742.906, 528.576 z "/>
<path style="fill:rgb(255, 215, 142);fill-opacity:1.0;fill-rule:evenodd;stroke:rgb(0, 0, 0);stroke-width:3.0;" d="M 131.547, 158.948 L 116.797, 172.638 L 109.388, 174.382 L 128.936, 122.73 z "/>
<path style="fill:rgb(240, 177, 24);fill-opacity:1.0;fill-rule:evenodd;stroke:rgb(0, 0, 0);stroke-width:3.0;" d="M 151.796, 140.155 L 131.547, 158.948 L 128.936, 122.73 L 132.517, 113.268 z "/>
<path style="fill:rgb(255, 234, 12);fill-opacity:1.0;fill-rule:evenodd;stroke:rgb(0, 0, 0);stroke-width:3.0;" d="M 276.566, 544.821 L 233.546, 543.928 L 246.568, 529.424 L 272.459, 524.694 z "/>
<path style="fill:rgb(255, 217, 24);fill-opacity:1.0;fill-rule:evenodd;stroke:rgb(0, 0, 0);stroke-width:3.0;" d="M 180.078, 13.2433 L 176.531, 27.9174 L 171.494, 31.9183 L 170.986, 28.5931 L 176.029, 7.04568 z "/>
<path style="fill:rgb(255, 51, 255);fill-opacity:1.0;fill-rule:evenodd;stroke:rgb(0, 0, 0);stroke-width:3.0;" d="M 511.515, 340.888 L 475.256, 459.386 L 428.935, 298.513 L 457.043, 271.923 z "/>
<path style="fill:rgb(255, 51, 255);fill-opacity:1.0;fill-rule:evenodd;stroke:rgb(0, 0, 0);stroke-width:3.0;" d="M 303.897, 27.4654 L 297.14, 39.0129 L 293.37, 33.7385 L 289.609, 21.1608 z "/>
<path style="fill:rgb(249, 240, 136);fill-opacity:1.0;fill-rule:evenodd;stroke:rgb(0, 0, 0);stroke-width:3.0;" d="M 435.127, 320.016 L 437.651, 328.783 L 385.348, 423.273 L 393.159, 293.266 z "/>
<path style="fill:rgb(12, 255, 82);fill-opacity:1.0;fill-rule:evenodd;stroke:rgb(0, 0, 0);stroke-width:3.0;" d="M 435.127, 320.016 L 393.159, 293.266 L 399.074, 194.804 z "/>
<path style="fill:rgb(255, 10, 79);fill-opacity:1.0;fill-rule:evenodd;stroke:rgb(0, 0, 0);stroke-width:3.0;" d="M 380.01, 424.378 L 368.645, 411.292 L 378.097, 397.672 z "/>
<path style="fill:rgb(255, 115, 15);fill-opacity:1.0;fill-rule:evenodd;stroke:rgb(0, 0, 0);stroke-width:3.0;" d="M 339.403, 214.615 L 331.03, 210.501 L 366.316, 192.436 z "/>
<path style="fill:rgb(24, 234, 255);fill-opacity:1.0;fill-rule:evenodd;stroke:rgb(0, 0, 0);stroke-width:3.0;" d="M 212.087, 428.298 L 218.902, 462.959 L 191.524, 543.323 L 183.171, 562.232 L 179.935, 553.456 L 201.373, 403.01 z "/>
<path style="fill:rgb(56, 128, 255);fill-opacity:1.0;fill-rule:evenodd;stroke:rgb(0, 0, 0);stroke-width:3.0;" d="M 378.811, 532.097 L 378.25, 541.429 L 353.946, 534.295 L 367.111, 518.425 z "/>
<path style="fill:rgb(255, 255, 8);fill-opacity:1.0;fill-rule:evenodd;stroke:rgb(0, 0, 0);stroke-width:3.0;" d="M 378.811, 532.097 L 367.111, 518.425 L 380.61, 502.154 z "/>
</svg>