<?xml version="1.0" encoding="iso-8859-1" standalone="no"?>
<!DOCTYPE svg PUBLIC "-//W3C//DTD SVG 1.0//EN" "http://www.w3.org/TR/2001/REC-SVG-20010904/DTD/svg10.dtd">
<svg xmlns="http://www.w3.org/2000/svg" width="800" height="600">
<path style="fill:rgb(0, 0, 0);fill-opacity:0.0;fill-rule:evenodd;stroke:rgb(0, 0, 0);stroke-width:0.0;" d="M 0, 600 L 800, 600 L 800, 0 L 0, 0 z "/>
<path style="fill:rgb(255, 20, 78);fill-opacity:1.0;fill-rule:evenodd;stroke:rgb(0, 0, 0);stroke-width:3.0;" d="M 742.809, 364.434 L 742.928, 392.258 L 739.313, 393.853 L 734.003, 384.623 L 724.165, 349.643 z "/>
<path style="fill:rgb(255, 20, 78);fill-opacity:1.0;fill-rule:evenodd;stroke:rgb(0, 0, 0);stroke-width:3.0;" d="M 788.217, 170.916 L 786.103, 174.047 L 777.513, 169.141 L 788.972, 148.406 z "/>
<path style="fill:rgb(255, 20, 78);fill-opacity:1.0;fill-rule:evenodd;stroke:rgb(0, 0, 0);stroke-width:3.0;" d="M 468.354, 33.0879 L 440.647, 53.1016 L 375.218, 56.5548 L 401.742, 26.8824 z "/>
<path style="fill:rgb(255, 11, 58);fill-opacity:1.0;fill-rule:evenodd;stroke:rgb(0, 0, 0);stroke-width:3.0;" d="M 108.581, 124.434 L 101.908, 144.881 L 91.1193, 146.882 L 55.4643, 120.8 L 53.6953, 112.019 L 63.9457, 96.1787 z "/>
<path style="fill:rgb(255, 11, 58);fill-opacity:1.0;fill-rule:evenodd;stroke:rgb(0, 0, 0);stroke-width:3.0;" d="M 572.291, 106.339 L 567.664, 107.117 L 561.484, 89.6565 L 584.583, 84.7354 z "/>
<path style="fill:rgb(255, 11, 58);fill-opacity:1.0;fill-rule:evenodd;stroke:rgb(0, 0, 0);stroke-width:3.0;" d="M 63.9457, 96.1787 L 50.4066, 117.101 L 35.1395, 105.933 L 38.1961, 79.8789 z "/>
<path style="fill:rgb(255, 136, 9);fill-opacity:1.0;fill-rule:evenodd;stroke:rgb(0, 0, 0);stroke-width:3.0;" d="M 378.704, 63.0894 L 381.935, 77.6847 L 381.346, 78.4138 L 366.835, 65.9336 L 373.586, 58.3813 z "/>
<path style="fill:rgb(255, 136, 9);fill-opacity:1.0;fill-rule:evenodd;stroke:rgb(0, 0, 0);stroke-width:3.0;" d="M 769.964, 98.6216 L 723.243, 141.507 L 698.178, 153.318 L 760.268, 94.9033 z "/>
<path style="fill:rgb(255, 136, 9);fill-opacity:1.0;fill-rule:evenodd;stroke:rgb(0, 0, 0);stroke-width:3.0;" d="M 221.553, 175.545 L 177.195, 189.494 L 196.929, 155.569 L 240.467, 147.711 z "/>
<path style="fill:rgb(255, 136, 9);fill-opacity:1.0;fill-rule:evenodd;stroke:rgb(0, 0, 0);stroke-width:3.0;" d="M 643.926, 204.359 L 235.94, 588.194 L 112.03, 290.475 L 484.961, 21.092 z "/>
<path style="fill:rgb(24, 246, 255);fill-opacity:1.0;fill-rule:evenodd;stroke:rgb(0, 0, 0);stroke-width:3.0;" d="M 53.2643, 119.191 L 50.2406, 124.615 L 28.5574, 121.645 L 30.3406, 102.422 z "/>
<path style="fill:rgb(24, 246, 255);fill-opacity:1.0;fill-rule:evenodd;stroke:rgb(0, 0, 0);stroke-width:3.0;" d="M 661.984, 187.37 L 643.926, 204.359 L 613.936, 169.784 L 648.526, 150.346 z "/>
<path style="fill:rgb(24, 246, 255);fill-opacity:1.0;fill-rule:evenodd;stroke:rgb(0, 0, 0);stroke-width:3.0;" d="M 227.89, 185.623 L 195.642, 185.625 L 196.242, 183.505 L 232.31, 172.163 z "/>
<path style="fill:rgb(24, 246, 255);fill-opacity:1.0;fill-rule:evenodd;stroke:rgb(0, 0, 0);stroke-width:3.0;" d="M 614.326, 95.7748 L 611.243, 102.855 L 578.598, 70.6186 L 583.384, 49.4449 L 590.087, 45.4578 z "/>
<path style="fill:rgb(246, 249, 10);fill-opacity:1.0;fill-rule:evenodd;stroke:rgb(0, 0, 0);stroke-width:3.0;" d="M 367.209, 528.58 L 334.622, 593.792 L 265.555, 560.332 L 302.493, 525.58 L 343.905, 517.045 z "/>
<path style="fill:rgb(228, 223, 75);fill-opacity:1.0;fill-rule:evenodd;stroke:rgb(0, 0, 0);stroke-width:3.0;" d="M 780.632, 109.952 L 678.871, 188.607 L 677.447, 183.544 L 767.562, 100.826 z "/>
<path style="fill:rgb(228, 223, 75);fill-opacity:1.0;fill-rule:evenodd;stroke:rgb(0, 0, 0);stroke-width:3.0;" d="M 249.725, 124.592 L 249.971, 133.724 L 246.396, 138.986 L 226.499, 104.734 L 228.28, 101.672 z "/>
<path style="fill:rgb(228, 223, 75);fill-opacity:1.0;fill-rule:evenodd;stroke:rgb(0, 0, 0);stroke-width:3.0;" d="M 298.038, 49.2356 L 300.002, 60.0954 L 284.203, 83.3458 L 273.762, 86.3911 L 277.118, 40.0071 L 279.545, 38.1435 z "/>
<path style="fill:rgb(228, 223, 75);fill-opacity:1.0;fill-rule:evenodd;stroke:rgb(0, 0, 0);stroke-width:3.0;" d="M 292.954, 148.584 L 279.892, 131.714 L 288.054, 129.407 L 311.299, 128.062 z "/>
<path style="fill:rgb(30, 177, 255);fill-opacity:1.0;fill-rule:evenodd;stroke:rgb(0, 0, 0);stroke-width:3.0;" d="M 736.505, 243.345 L 750.718, 217.626 L 767.709, 216.744 z "/>
<path style="fill:rgb(69, 35, 255);fill-opacity:1.0;fill-rule:evenodd;stroke:rgb(0, 0, 0);stroke-width:3.0;" d="M 773.81, 453.819 L 661.871, 317.227 L 668.776, 271.237 z "/>
<path style="fill:rgb(69, 35, 255);fill-opacity:1.0;fill-rule:evenodd;stroke:rgb(0, 0, 0);stroke-width:3.0;" d="M 409.456, 518.703 L 412.12, 531.598 L 377.665, 535.222 L 375.761, 515.286 z "/>
<path style="fill:rgb(28, 255, 215);fill-opacity:1.0;fill-rule:evenodd;stroke:rgb(0, 0, 0);stroke-width:3.0;" d="M 380.928, 569.377 L 362.335, 559.677 L 362.483, 559.482 L 379.325, 552.599 z "/>
<path style="fill:rgb(117, 255, 112);fill-opacity:1.0;fill-rule:evenodd;stroke:rgb(0, 0, 0);stroke-width:3.0;" d="M 124.4, 75.9686 L 116.363, 100.593 L 40.6831, 58.6804 L 42.1538, 46.1445 L 127.999, 36.3312 z "/>
<path style="fill:rgb(255, 243, 37);fill-opacity:1.0;fill-rule:evenodd;stroke:rgb(0, 0, 0);stroke-width:3.0;" d="M 704.604, 280.097 L 665.124, 249.702 L 690.135, 228.657 z "/>
<path style="fill:rgb(103, 175, 243);fill-opacity:1.0;fill-rule:evenodd;stroke:rgb(0, 0, 0);stroke-width:3.0;" d="M 177.195, 189.494 L 121.682, 206.95 L 123.581, 157.928 L 253.677, 58.011 z "/>
<path style="fill:rgb(220, 255, 34);fill-opacity:1.0;fill-rule:evenodd;stroke:rgb(0, 0, 0);stroke-width:3.0;" d="M 155.939, 225.767 L 140.877, 200.914 L 195.051, 183.879 z "/>
<path style="fill:rgb(220, 255, 34);fill-opacity:1.0;fill-rule:evenodd;stroke:rgb(0, 0, 0);stroke-width:3.0;" d="M 82.1514, 312.058 L 71.0322, 311.333 L 62.4725, 295.947 L 129.119, 278.131 z "/>
<path style="fill:rgb(220, 255, 34);fill-opacity:1.0;fill-rule:evenodd;stroke:rgb(0, 0, 0);stroke-width:3.0;" d="M 7.71848, 346.291 L 21.2896, 199.993 L 40.1576, 198.152 z "/>
<path style="fill:rgb(255, 49, 14);fill-opacity:1.0;fill-rule:evenodd;stroke:rgb(0, 0, 0);stroke-width:3.0;" d="M 273.103, 95.4913 L 272.764, 100.181 L 249.971, 133.724 L 248.187, 67.4488 L 248.448, 67 z "/>
<path style="fill:rgb(255, 49, 14);fill-opacity:1.0;fill-rule:evenodd;stroke:rgb(0, 0, 0);stroke-width:3.0;" d="M 668.776, 271.237 L 661.871, 317.227 L 601.83, 243.962 L 635.087, 212.675 z "/>
<path style="fill:rgb(255, 49, 14);fill-opacity:1.0;fill-rule:evenodd;stroke:rgb(0, 0, 0);stroke-width:3.0;" d="M 618.776, 110.293 L 581.074, 116.102 L 598.853, 102.486 L 600.436, 101.605 L 608.589, 100.234 z "/>
<path style="fill:rgb(163, 35, 197);fill-opacity:1.0;fill-rule:evenodd;stroke:rgb(0, 0, 0);stroke-width:3.0;" d="M 753.502, 101.269 L 719.224, 133.518 L 703.697, 123.119 L 671.062, 89.103 L 709.93, 25.8646 z "/>
<path style="fill:rgb(163, 35, 197);fill-opacity:1.0;fill-rule:evenodd;stroke:rgb(0, 0, 0);stroke-width:3.0;" d="M 780.379, 404.632 L 778.885, 449.169 L 767.456, 442.774 L 743.357, 400.882 z "/>
<path style="fill:rgb(234, 61, 25);fill-opacity:1.0;fill-rule:evenodd;stroke:rgb(0, 0, 0);stroke-width:3.0;" d="M 70.015, 25.4266 L 69.637, 29.7344 L 15.3113, 17.6654 L 5.16867, 7.84223 L 9.9044, 6.49614 z "/>
<path style="fill:rgb(45, 40, 255);fill-opacity:1.0;fill-rule:evenodd;stroke:rgb(0, 0, 0);stroke-width:3.0;" d="M 514.773, 18.5505 L 494.422, 20.2329 L 496.881, 16.7511 L 510.637, 10.0716 z "/>
<path style="fill:rgb(45, 40, 255);fill-opacity:1.0;fill-rule:evenodd;stroke:rgb(0, 0, 0);stroke-width:3.0;" d="M 21.4861, 167.542 L 12.7351, 165.228 L 7.89829, 161.346 L 12.8192, 149.67 z "/>
<path style="fill:rgb(255, 5, 11);fill-opacity:1.0;fill-rule:evenodd;stroke:rgb(0, 0, 0);stroke-width:3.0;" d="M 141.685, 269.055 L 129.119, 278.131 L 51.6574, 298.838 L 63.3651, 262.968 L 106.724, 218.348 z "/>
<path style="fill:rgb(255, 5, 11);fill-opacity:1.0;fill-rule:evenodd;stroke:rgb(0, 0, 0);stroke-width:3.0;" d="M 448.072, 24.3156 L 462.559, 32.5481 L 406.44, 27.3201 L 407.261, 25.3086 L 419.818, 22.3189 z "/>
<path style="fill:rgb(255, 182, 37);fill-opacity:1.0;fill-rule:evenodd;stroke:rgb(0, 0, 0);stroke-width:3.0;" d="M 535.122, 65.2361 L 516.115, 50.7739 L 503.593, 35.4369 L 513.377, 24.1886 z "/>
<path style="fill:rgb(255, 182, 37);fill-opacity:1.0;fill-rule:evenodd;stroke:rgb(0, 0, 0);stroke-width:3.0;" d="M 682.425, 201.242 L 676.773, 209.83 L 674.21, 210.879 L 674.184, 210.644 L 676.78, 181.174 z "/>
<path style="fill:rgb(255, 182, 37);fill-opacity:1.0;fill-rule:evenodd;stroke:rgb(0, 0, 0);stroke-width:3.0;" d="M 742.809, 364.434 L 724.165, 349.643 L 723.262, 346.434 L 741.688, 332.243 L 742.67, 332.067 z "/>
<path style="fill:rgb(255, 182, 37);fill-opacity:1.0;fill-rule:evenodd;stroke:rgb(0, 0, 0);stroke-width:3.0;" d="M 540.003, 80.0345 L 538.847, 83.2157 L 502.425, 41.2256 L 503.735, 35.61 z "/>
<path style="fill:rgb(144, 189, 255);fill-opacity:1.0;fill-rule:evenodd;stroke:rgb(0, 0, 0);stroke-width:3.0;" d="M 651.057, 218.798 L 655.844, 223.098 L 658.389, 234.42 L 648.893, 236.674 L 636.964, 215.939 z "/>
<path style="fill:rgb(255, 255, 27);fill-opacity:1.0;fill-rule:evenodd;stroke:rgb(0, 0, 0);stroke-width:3.0;" d="M 164.762, 240.327 L 122.414, 241.106 L 118.457, 235.366 L 159.079, 230.949 z "/>
<path style="fill:rgb(255, 255, 27);fill-opacity:1.0;fill-rule:evenodd;stroke:rgb(0, 0, 0);stroke-width:3.0;" d="M 248.889, 93.549 L 233.792, 92.195 L 248.187, 67.4488 z "/>
<path style="fill:rgb(13, 252, 255);fill-opacity:1.0;fill-rule:evenodd;stroke:rgb(0, 0, 0);stroke-width:3.0;" d="M 153.433, 221.632 L 110.042, 223.161 L 102.93, 212.846 L 140.877, 200.914 z "/>
<path style="fill:rgb(66, 65, 255);fill-opacity:1.0;fill-rule:evenodd;stroke:rgb(0, 0, 0);stroke-width:3.0;" d="M 328.228, 107.385 L 297.536, 126.726 L 279.892, 131.714 L 265.045, 112.539 L 326.572, 102.001 z "/>
<path style="fill:rgb(66, 65, 255);fill-opacity:1.0;fill-rule:evenodd;stroke:rgb(0, 0, 0);stroke-width:3.0;" d="M 326.572, 102.001 L 265.045, 112.539 L 264.683, 112.073 L 267.438, 108.018 L 323.55, 92.178 z "/>
<path style="fill:rgb(66, 65, 255);fill-opacity:1.0;fill-rule:evenodd;stroke:rgb(0, 0, 0);stroke-width:3.0;" d="M 779.499, 221.53 L 752.209, 229.957 L 786.719, 200.538 z "/>
<path style="fill:rgb(66, 65, 255);fill-opacity:1.0;fill-rule:evenodd;stroke:rgb(0, 0, 0);stroke-width:3.0;" d="M 330.87, 14.6682 L 310.709, 44.3376 L 297.32, 24.4914 L 307.31, 16.8193 L 330.848, 14.5004 z "/>
<path style="fill:rgb(66, 65, 255);fill-opacity:1.0;fill-rule:evenodd;stroke:rgb(0, 0, 0);stroke-width:3.0;" d="M 783.056, 324.82 L 720.348, 336.073 L 714.327, 314.667 L 764.039, 226.304 L 786.593, 219.339 z "/>
<path style="fill:rgb(66, 65, 255);fill-opacity:1.0;fill-rule:evenodd;stroke:rgb(0, 0, 0);stroke-width:3.0;" d="M 378.033, 539.072 L 362.335, 559.677 L 353.875, 555.263 L 370.776, 521.44 L 376.148, 519.332 z "/>
<path style="fill:rgb(33, 215, 249);fill-opacity:1.0;fill-rule:evenodd;stroke:rgb(0, 0, 0);stroke-width:3.0;" d="M 773.277, 519.961 L 771.569, 529.173 L 743.067, 526.051 L 740.385, 520.804 L 749.686, 493.685 z "/>
<path style="fill:rgb(246, 228, 51);fill-opacity:1.0;fill-rule:evenodd;stroke:rgb(0, 0, 0);stroke-width:3.0;" d="M 749.686, 493.685 L 748.499, 497.145 L 738.92, 506.867 L 732.405, 505.19 L 709.924, 461.204 L 714.584, 454.587 z "/>
<path style="fill:rgb(246, 228, 51);fill-opacity:1.0;fill-rule:evenodd;stroke:rgb(0, 0, 0);stroke-width:3.0;" d="M 770.116, 85.6381 L 753.502, 101.269 L 738.454, 75.2271 L 778.175, 46.6392 z "/>
<path style="fill:rgb(255, 255, 19);fill-opacity:1.0;fill-rule:evenodd;stroke:rgb(0, 0, 0);stroke-width:3.0;" d="M 55.2197, 129.368 L 42.9904, 185.215 L 25.1187, 169.675 L 49.5657, 125.825 z "/>
<path style="fill:rgb(246, 21, 172);fill-opacity:1.0;fill-rule:evenodd;stroke:rgb(0, 0, 0);stroke-width:3.0;" d="M 680.944, 169.532 L 677.169, 173.083 L 632.409, 99.1596 L 632.274, 98.4688 L 666.661, 97.9295 z "/>
<path style="fill:rgb(192, 30, 33);fill-opacity:1.0;fill-rule:evenodd;stroke:rgb(0, 0, 0);stroke-width:3.0;" d="M 704.604, 280.097 L 715.69, 319.511 L 707.141, 337.927 L 658.357, 253.126 L 663.297, 248.295 z "/>
<path style="fill:rgb(192, 30, 33);fill-opacity:1.0;fill-rule:evenodd;stroke:rgb(0, 0, 0);stroke-width:3.0;" d="M 276.224, 158.354 L 252.288, 165.881 L 258.38, 146.688 z "/>
<path style="fill:rgb(34, 212, 255);fill-opacity:1.0;fill-rule:evenodd;stroke:rgb(0, 0, 0);stroke-width:3.0;" d="M 291.268, 572.788 L 309.49, 581.616 L 299.366, 593.83 L 251.227, 573.811 L 258.812, 566.675 z "/>
<path style="fill:rgb(255, 134, 255);fill-opacity:1.0;fill-rule:evenodd;stroke:rgb(0, 0, 0);stroke-width:3.0;" d="M 582.705, 12.2707 L 586.986, 19.4263 L 584.508, 25.0082 L 582.233, 26.7702 L 580.317, 26.8138 L 570.331, 7.34976 L 577.766, 5.99737 z "/>
<path style="fill:rgb(17, 255, 255);fill-opacity:1.0;fill-rule:evenodd;stroke:rgb(0, 0, 0);stroke-width:3.0;" d="M 181.532, 240.272 L 180.477, 239.248 L 195.642, 185.625 L 257.188, 185.622 z "/>
<path style="fill:rgb(17, 255, 255);fill-opacity:1.0;fill-rule:evenodd;stroke:rgb(0, 0, 0);stroke-width:3.0;" d="M 247.253, 163.445 L 247.749, 167.308 L 221.553, 175.545 L 234.244, 156.868 z "/>
<path style="fill:rgb(249, 54, 18);fill-opacity:1.0;fill-rule:evenodd;stroke:rgb(0, 0, 0);stroke-width:3.0;" d="M 313.276, 58.7817 L 319.91, 80.347 L 313.526, 95.0077 L 267.438, 108.018 L 303.751, 54.5782 z "/>
<path style="fill:rgb(255, 105, 103);fill-opacity:1.0;fill-rule:evenodd;stroke:rgb(0, 0, 0);stroke-width:3.0;" d="M 778.673, 376.479 L 742.928, 392.258 L 742.67, 332.067 L 762.437, 328.52 z "/>
<path style="fill:rgb(7, 252, 79);fill-opacity:1.0;fill-rule:evenodd;stroke:rgb(0, 0, 0);stroke-width:3.0;" d="M 633.697, 158.679 L 625.385, 163.35 L 574.801, 117.069 L 611.5, 111.414 z "/>
<path style="fill:rgb(7, 252, 79);fill-opacity:1.0;fill-rule:evenodd;stroke:rgb(0, 0, 0);stroke-width:3.0;" d="M 338.939, 126.57 L 326.775, 135.357 L 320.062, 127.984 L 330.085, 123.15 z "/>
<path style="fill:rgb(7, 252, 79);fill-opacity:1.0;fill-rule:evenodd;stroke:rgb(0, 0, 0);stroke-width:3.0;" d="M 632.031, 104.967 L 631.724, 106.569 L 624.077, 109.477 L 621.144, 109.928 L 602.458, 71.1371 L 615.98, 60.8112 z "/>
<path style="fill:rgb(255, 228, 36);fill-opacity:1.0;fill-rule:evenodd;stroke:rgb(0, 0, 0);stroke-width:3.0;" d="M 707.25, 156.188 L 694.494, 156.784 L 698.178, 153.318 L 723.243, 141.507 z "/>
<path style="fill:rgb(237, 249, 44);fill-opacity:1.0;fill-rule:evenodd;stroke:rgb(0, 0, 0);stroke-width:3.0;" d="M 648.371, 125.521 L 642.077, 132.605 L 638.039, 121.496 L 640.35, 112.274 z "/>
<path style="fill:rgb(237, 249, 44);fill-opacity:1.0;fill-rule:evenodd;stroke:rgb(0, 0, 0);stroke-width:3.0;" d="M 85.9781, 83.7657 L 83.6618, 108.659 L 74.8196, 103.062 L 77.6005, 79.126 z "/>
<path style="fill:rgb(237, 249, 44);fill-opacity:1.0;fill-rule:evenodd;stroke:rgb(0, 0, 0);stroke-width:3.0;" d="M 401.687, 562.853 L 380.115, 560.872 L 377.665, 535.222 L 380.389, 534.935 z "/>
<path style="fill:rgb(237, 249, 44);fill-opacity:1.0;fill-rule:evenodd;stroke:rgb(0, 0, 0);stroke-width:3.0;" d="M 608.589, 100.234 L 572.291, 106.339 L 584.583, 84.7354 L 591.419, 83.279 z "/>
<path style="fill:rgb(237, 249, 44);fill-opacity:1.0;fill-rule:evenodd;stroke:rgb(0, 0, 0);stroke-width:3.0;" d="M 625.385, 163.35 L 613.936, 169.784 L 573.237, 122.863 L 571.373, 117.597 L 574.801, 117.069 z "/>
<path style="fill:rgb(246, 8, 10);fill-opacity:1.0;fill-rule:evenodd;stroke:rgb(0, 0, 0);stroke-width:3.0;" d="M 42.9904, 185.215 L 40.1576, 198.152 L 24.4973, 199.68 L 28.5655, 172.672 z "/>
<path style="fill:rgb(255, 243, 64);fill-opacity:1.0;fill-rule:evenodd;stroke:rgb(0, 0, 0);stroke-width:3.0;" d="M 783.913, 172.796 L 770.672, 188.726 L 766.811, 188.507 L 777.513, 169.141 z "/>
<path style="fill:rgb(255, 243, 64);fill-opacity:1.0;fill-rule:evenodd;stroke:rgb(0, 0, 0);stroke-width:3.0;" d="M 622.491, 540.306 L 631.33, 542.487 L 612.418, 551.939 L 591.809, 537.195 z "/>
<path style="fill:rgb(255, 243, 64);fill-opacity:1.0;fill-rule:evenodd;stroke:rgb(0, 0, 0);stroke-width:3.0;" d="M 489.518, 526.822 L 439.007, 574.83 L 418.521, 519.622 z "/>
<path style="fill:rgb(7, 199, 108);fill-opacity:1.0;fill-rule:evenodd;stroke:rgb(0, 0, 0);stroke-width:3.0;" d="M 538.904, 68.1136 L 540.806, 77.8241 L 540.003, 80.0345 L 516.115, 50.7739 z "/>
<path style="fill:rgb(7, 199, 108);fill-opacity:1.0;fill-rule:evenodd;stroke:rgb(0, 0, 0);stroke-width:3.0;" d="M 28.5655, 172.672 L 24.4973, 199.68 L 23.0176, 199.825 L 22.601, 185.856 L 23.8991, 171.863 L 25.1187, 169.675 z "/>
<path style="fill:rgb(7, 199, 108);fill-opacity:1.0;fill-rule:evenodd;stroke:rgb(0, 0, 0);stroke-width:3.0;" d="M 719.224, 133.518 L 680.944, 169.532 L 666.749, 98.3746 z "/>
<path style="fill:rgb(175, 246, 255);fill-opacity:1.0;fill-rule:evenodd;stroke:rgb(0, 0, 0);stroke-width:3.0;" d="M 422.79, 66.0007 L 417.608, 54.9281 L 419.837, 54.1999 L 440.647, 53.1016 z "/>
<path style="fill:rgb(255, 117, 52);fill-opacity:1.0;fill-rule:evenodd;stroke:rgb(0, 0, 0);stroke-width:3.0;" d="M 757.341, 553.98 L 719.82, 550.176 L 522.626, 318.478 L 599.848, 245.828 z "/>
<path style="fill:rgb(252, 255, 85);fill-opacity:1.0;fill-rule:evenodd;stroke:rgb(0, 0, 0);stroke-width:3.0;" d="M 420.067, 60.1815 L 411.537, 66.9326 L 393.049, 65.5956 L 394.963, 62.329 L 417.608, 54.9281 z "/>
<path style="fill:rgb(252, 255, 85);fill-opacity:1.0;fill-rule:evenodd;stroke:rgb(0, 0, 0);stroke-width:3.0;" d="M 124.139, 143.539 L 85.7462, 194.397 L 92.2097, 174.594 L 115.074, 136.152 L 124.886, 124.242 z "/>
<path style="fill:rgb(207, 33, 207);fill-opacity:1.0;fill-rule:evenodd;stroke:rgb(0, 0, 0);stroke-width:3.0;" d="M 179.842, 241.492 L 169.845, 248.714 L 160.661, 233.559 L 162.201, 219.061 L 195.051, 183.879 L 196.242, 183.505 z "/>
<path style="fill:rgb(207, 33, 207);fill-opacity:1.0;fill-rule:evenodd;stroke:rgb(0, 0, 0);stroke-width:3.0;" d="M 95.0218, 187.72 L 86.1314, 215.183 L 80.1222, 214.22 L 94.9224, 186.078 z "/>
<path style="fill:rgb(182, 1, 32);fill-opacity:1.0;fill-rule:evenodd;stroke:rgb(0, 0, 0);stroke-width:3.0;" d="M 584.139, 48.9955 L 571.796, 56.3373 L 571.324, 56.1634 L 559.032, 34.5227 z "/>
<path style="fill:rgb(182, 1, 32);fill-opacity:1.0;fill-rule:evenodd;stroke:rgb(0, 0, 0);stroke-width:3.0;" d="M 547.2, 49.297 L 529.84, 55.2639 L 524.121, 44.4688 L 539.116, 26.4585 z "/>
<path style="fill:rgb(182, 1, 32);fill-opacity:1.0;fill-rule:evenodd;stroke:rgb(0, 0, 0);stroke-width:3.0;" d="M 629.667, 564.28 L 578.938, 592.191 L 563.878, 585.13 L 624.605, 560.658 z "/>
<path style="fill:rgb(30, 220, 231);fill-opacity:1.0;fill-rule:evenodd;stroke:rgb(0, 0, 0);stroke-width:3.0;" d="M 106.724, 218.348 L 63.3651, 262.968 L 77.0703, 220.978 L 102.93, 212.846 z "/>
<path style="fill:rgb(223, 40, 62);fill-opacity:1.0;fill-rule:evenodd;stroke:rgb(0, 0, 0);stroke-width:3.0;" d="M 16.5329, 17.9368 L 63.9556, 31.4717 L 32.9645, 34.7626 L 15.3113, 17.6654 z "/>
<path style="fill:rgb(237, 92, 17);fill-opacity:1.0;fill-rule:evenodd;stroke:rgb(0, 0, 0);stroke-width:3.0;" d="M 556.78, 89.0479 L 554.006, 100.692 L 539.655, 84.1473 L 545.173, 73.7993 z "/>
<path style="fill:rgb(237, 92, 17);fill-opacity:1.0;fill-rule:evenodd;stroke:rgb(0, 0, 0);stroke-width:3.0;" d="M 558.585, 81.4666 L 556.78, 89.0479 L 545.173, 73.7993 L 551.604, 61.7406 z "/>
<path style="fill:rgb(237, 92, 17);fill-opacity:1.0;fill-rule:evenodd;stroke:rgb(0, 0, 0);stroke-width:3.0;" d="M 571.252, 56.0365 L 543.599, 39.1239 L 539.57, 27.7404 L 554.981, 27.3899 z "/>
<path style="fill:rgb(252, 179, 14);fill-opacity:1.0;fill-rule:evenodd;stroke:rgb(0, 0, 0);stroke-width:3.0;" d="M 39.8583, 65.7113 L 10.0645, 67.7053 L 30.7231, 47.4513 L 42.1538, 46.1445 z "/>
<path style="fill:rgb(255, 78, 88);fill-opacity:1.0;fill-rule:evenodd;stroke:rgb(0, 0, 0);stroke-width:3.0;" d="M 121.682, 206.95 L 110.859, 210.353 L 105.065, 211.392 L 107.328, 165.807 L 124.139, 143.539 z "/>
<path style="fill:rgb(51, 255, 47);fill-opacity:1.0;fill-rule:evenodd;stroke:rgb(0, 0, 0);stroke-width:3.0;" d="M 655.836, 43.6658 L 663.917, 84.1776 L 628.428, 78.8703 L 621.302, 42.5569 z "/>
<path style="fill:rgb(51, 255, 47);fill-opacity:1.0;fill-rule:evenodd;stroke:rgb(0, 0, 0);stroke-width:3.0;" d="M 770.747, 533.603 L 766.791, 554.939 L 757.341, 553.98 L 744.051, 527.977 z "/>
<path style="fill:rgb(51, 255, 47);fill-opacity:1.0;fill-rule:evenodd;stroke:rgb(0, 0, 0);stroke-width:3.0;" d="M 36.604, 344.959 L 5.77644, 367.227 L 6.73473, 356.896 L 52.6249, 295.874 z "/>
<path style="fill:rgb(255, 5, 231);fill-opacity:1.0;fill-rule:evenodd;stroke:rgb(0, 0, 0);stroke-width:3.0;" d="M 664.493, 152.147 L 677.169, 173.083 L 661.984, 187.37 L 647.455, 147.401 z "/>
<path style="fill:rgb(255, 5, 231);fill-opacity:1.0;fill-rule:evenodd;stroke:rgb(0, 0, 0);stroke-width:3.0;" d="M 397.161, 59.5449 L 381.183, 64.7375 L 380.437, 64.6836 L 378.705, 63.0905 L 383.656, 56.1094 L 399.942, 55.2499 z "/>
<path style="fill:rgb(255, 48, 10);fill-opacity:1.0;fill-rule:evenodd;stroke:rgb(0, 0, 0);stroke-width:3.0;" d="M 74.5074, 317.58 L 36.604, 344.959 L 51.6574, 298.838 L 62.4725, 295.947 z "/>
<path style="fill:rgb(88, 217, 152);fill-opacity:1.0;fill-rule:evenodd;stroke:rgb(0, 0, 0);stroke-width:3.0;" d="M 304.737, 151.275 L 267.26, 178.346 L 269.784, 174.504 L 297.151, 143.889 L 303.073, 139.584 z "/>
<path style="fill:rgb(22, 11, 255);fill-opacity:1.0;fill-rule:evenodd;stroke:rgb(0, 0, 0);stroke-width:3.0;" d="M 697.004, 547.862 L 699.678, 550.28 L 709.042, 579.916 L 612.566, 551.864 L 633.467, 541.419 z "/>
<path style="fill:rgb(22, 11, 255);fill-opacity:1.0;fill-rule:evenodd;stroke:rgb(0, 0, 0);stroke-width:3.0;" d="M 572.798, 87.2461 L 564.593, 88.9941 L 560.515, 86.9201 L 555.678, 73.2528 L 559.217, 70.7036 z "/>
<path style="fill:rgb(255, 252, 76);fill-opacity:1.0;fill-rule:evenodd;stroke:rgb(0, 0, 0);stroke-width:3.0;" d="M 155.957, 102.054 L 159.488, 130.35 L 150.33, 137.384 L 142.464, 83.4034 z "/>
<path style="fill:rgb(255, 252, 76);fill-opacity:1.0;fill-rule:evenodd;stroke:rgb(0, 0, 0);stroke-width:3.0;" d="M 334.171, 116.982 L 325.469, 123.307 L 327.512, 109.924 L 335.654, 100.816 z "/>
<path style="fill:rgb(249, 246, 9);fill-opacity:1.0;fill-rule:evenodd;stroke:rgb(0, 0, 0);stroke-width:3.0;" d="M 325.469, 123.307 L 297.151, 143.889 L 327.512, 109.924 z "/>
<path style="fill:rgb(243, 234, 55);fill-opacity:1.0;fill-rule:evenodd;stroke:rgb(0, 0, 0);stroke-width:3.0;" d="M 310.709, 44.3376 L 300.996, 58.6323 L 299.424, 56.8974 L 296.214, 39.1531 L 303.491, 33.6386 z "/>
<path style="fill:rgb(65, 255, 255);fill-opacity:1.0;fill-rule:evenodd;stroke:rgb(0, 0, 0);stroke-width:3.0;" d="M 781.887, 359.674 L 771.473, 355.213 L 768.32, 345.899 L 768.1, 344.602 L 782.512, 341.044 z "/>
<path style="fill:rgb(65, 255, 255);fill-opacity:1.0;fill-rule:evenodd;stroke:rgb(0, 0, 0);stroke-width:3.0;" d="M 150.33, 137.384 L 123.581, 157.928 L 125.368, 111.797 L 145.899, 106.974 z "/>
<path style="fill:rgb(134, 243, 255);fill-opacity:1.0;fill-rule:evenodd;stroke:rgb(0, 0, 0);stroke-width:3.0;" d="M 256.829, 17.0951 L 238.692, 25.5928 L 257.142, 5.37143 z "/>
<path style="fill:rgb(255, 47, 8);fill-opacity:1.0;fill-rule:evenodd;stroke:rgb(0, 0, 0);stroke-width:3.0;" d="M 417.453, 581.483 L 421.009, 591.785 L 416.413, 594.265 L 396.386, 590.959 L 396.395, 590.933 L 417.202, 581.445 z "/>
<path style="fill:rgb(255, 47, 8);fill-opacity:1.0;fill-rule:evenodd;stroke:rgb(0, 0, 0);stroke-width:3.0;" d="M 50.2406, 124.615 L 36.637, 149.015 L 32.2849, 144.152 L 44.261, 123.796 z "/>
<path style="fill:rgb(243, 6, 202);fill-opacity:1.0;fill-rule:evenodd;stroke:rgb(0, 0, 0);stroke-width:3.0;" d="M 44.261, 123.796 L 32.2849, 144.152 L 27.0159, 138.263 L 28.5574, 121.645 z "/>
<path style="fill:rgb(11, 3, 255);fill-opacity:1.0;fill-rule:evenodd;stroke:rgb(0, 0, 0);stroke-width:3.0;" d="M 29.9186, 106.971 L 29.6657, 109.697 L 20.7644, 130.818 L 10.3754, 125.192 L 8.69289, 123.475 L 17.4911, 106.213 z "/>
<path style="fill:rgb(13, 57, 255);fill-opacity:1.0;fill-rule:evenodd;stroke:rgb(0, 0, 0);stroke-width:3.0;" d="M 723.262, 346.434 L 720.348, 336.073 L 741.688, 332.243 z "/>
<path style="fill:rgb(249, 237, 30);fill-opacity:1.0;fill-rule:evenodd;stroke:rgb(0, 0, 0);stroke-width:3.0;" d="M 549.161, 54.8387 L 543.159, 71.3509 L 535.122, 65.2361 L 529.84, 55.2639 L 547.2, 49.297 z "/>
<path style="fill:rgb(34, 25, 172);fill-opacity:1.0;fill-rule:evenodd;stroke:rgb(0, 0, 0);stroke-width:3.0;" d="M 127.841, 65.427 L 129.512, 36.1582 L 137.699, 35.2223 z "/>
<path style="fill:rgb(187, 228, 220);fill-opacity:1.0;fill-rule:evenodd;stroke:rgb(0, 0, 0);stroke-width:3.0;" d="M 276.544, 166.942 L 264.69, 180.203 L 263.483, 181.075 L 258.014, 164.08 L 280.392, 157.043 z "/>
<path style="fill:rgb(234, 252, 25);fill-opacity:1.0;fill-rule:evenodd;stroke:rgb(0, 0, 0);stroke-width:3.0;" d="M 249.141, 102.901 L 239.441, 113.602 L 228.28, 101.672 L 232.399, 94.5896 L 248.902, 94.0115 z "/>
<path style="fill:rgb(234, 252, 25);fill-opacity:1.0;fill-rule:evenodd;stroke:rgb(0, 0, 0);stroke-width:3.0;" d="M 601.711, 36.4141 L 578.724, 28.9861 L 578.02, 26.866 L 593.91, 26.5046 z "/>
<path style="fill:rgb(10, 228, 237);fill-opacity:1.0;fill-rule:evenodd;stroke:rgb(0, 0, 0);stroke-width:3.0;" d="M 743.546, 589.949 L 747.666, 593.674 L 641.169, 572.509 L 612.418, 551.939 L 612.566, 551.864 z "/>
<path style="fill:rgb(255, 12, 25);fill-opacity:1.0;fill-rule:evenodd;stroke:rgb(0, 0, 0);stroke-width:3.0;" d="M 99.3012, 152.867 L 52.6249, 295.874 L 45.9425, 304.76 L 31.0066, 239.942 L 56.8706, 121.829 z "/>
<path style="fill:rgb(255, 12, 25);fill-opacity:1.0;fill-rule:evenodd;stroke:rgb(0, 0, 0);stroke-width:3.0;" d="M 274.562, 75.3327 L 254.3, 57.5322 L 277.118, 40.0071 z "/>
<path style="fill:rgb(255, 12, 25);fill-opacity:1.0;fill-rule:evenodd;stroke:rgb(0, 0, 0);stroke-width:3.0;" d="M 734.003, 384.623 L 707.141, 337.927 L 715.69, 319.511 z "/>
<path style="fill:rgb(237, 12, 83);fill-opacity:1.0;fill-rule:evenodd;stroke:rgb(0, 0, 0);stroke-width:3.0;" d="M 703.697, 123.119 L 666.749, 98.3746 L 666.41, 96.6718 L 671.062, 89.103 z "/>
<path style="fill:rgb(11, 121, 249);fill-opacity:1.0;fill-rule:evenodd;stroke:rgb(0, 0, 0);stroke-width:3.0;" d="M 781.887, 359.674 L 781.084, 383.602 L 771.473, 355.213 z "/>
<path style="fill:rgb(240, 97, 24);fill-opacity:1.0;fill-rule:evenodd;stroke:rgb(0, 0, 0);stroke-width:3.0;" d="M 663.917, 84.1776 L 666.661, 97.9295 L 632.274, 98.4688 L 628.428, 78.8703 z "/>
<path style="fill:rgb(14, 51, 255);fill-opacity:1.0;fill-rule:evenodd;stroke:rgb(0, 0, 0);stroke-width:3.0;" d="M 105.065, 211.392 L 99.1538, 212.451 L 88.5657, 207.663 L 98.202, 177.897 L 107.328, 165.807 z "/>
<path style="fill:rgb(246, 215, 10);fill-opacity:1.0;fill-rule:evenodd;stroke:rgb(0, 0, 0);stroke-width:3.0;" d="M 782.66, 336.628 L 782.512, 341.044 L 768.1, 344.602 L 765.286, 328.009 L 765.443, 327.981 z "/>
<path style="fill:rgb(18, 86, 255);fill-opacity:1.0;fill-rule:evenodd;stroke:rgb(0, 0, 0);stroke-width:3.0;" d="M 142.464, 83.4034 L 145.899, 106.974 L 141.2, 108.078 L 126.409, 84.9452 L 127.074, 67.7768 L 128.344, 63.8851 z "/>
<path style="fill:rgb(18, 86, 255);fill-opacity:1.0;fill-rule:evenodd;stroke:rgb(0, 0, 0);stroke-width:3.0;" d="M 326.775, 135.357 L 312.27, 145.834 L 304.811, 138.321 L 317.006, 129.458 L 320.062, 127.984 z "/>
<path style="fill:rgb(18, 86, 255);fill-opacity:1.0;fill-rule:evenodd;stroke:rgb(0, 0, 0);stroke-width:3.0;" d="M 583.755, 44.1294 L 585.169, 48.3833 L 584.139, 48.9955 L 559.032, 34.5227 L 554.981, 27.3899 L 574.261, 26.9515 z "/>
<path style="fill:rgb(18, 86, 255);fill-opacity:1.0;fill-rule:evenodd;stroke:rgb(0, 0, 0);stroke-width:3.0;" d="M 295.488, 35.1424 L 287.614, 42.9833 L 279.545, 38.1435 L 294.02, 27.0258 z "/>
<path style="fill:rgb(255, 52, 69);fill-opacity:1.0;fill-rule:evenodd;stroke:rgb(0, 0, 0);stroke-width:3.0;" d="M 613.117, 52.935 L 615.98, 60.8112 L 604.094, 69.8877 L 602.223, 70.6494 L 592.67, 50.8195 L 605.17, 44.4758 z "/>
<path style="fill:rgb(11, 237, 246);fill-opacity:1.0;fill-rule:evenodd;stroke:rgb(0, 0, 0);stroke-width:3.0;" d="M 684.582, 176.995 L 678.482, 171.848 L 679.731, 170.673 L 705.87, 156.252 L 707.25, 156.188 z "/>
<path style="fill:rgb(11, 237, 246);fill-opacity:1.0;fill-rule:evenodd;stroke:rgb(0, 0, 0);stroke-width:3.0;" d="M 246.396, 138.986 L 240.467, 147.711 L 196.929, 155.569 L 226.499, 104.734 z "/>
<path style="fill:rgb(11, 237, 246);fill-opacity:1.0;fill-rule:evenodd;stroke:rgb(0, 0, 0);stroke-width:3.0;" d="M 714.327, 314.667 L 708.513, 293.996 L 736.505, 243.345 L 752.209, 229.957 L 764.039, 226.304 z "/>
<path style="fill:rgb(220, 2, 237);fill-opacity:1.0;fill-rule:evenodd;stroke:rgb(0, 0, 0);stroke-width:3.0;" d="M 601.711, 36.4141 L 602.404, 37.2949 L 582.529, 40.4396 L 578.724, 28.9861 z "/>
<path style="fill:rgb(14, 10, 255);fill-opacity:1.0;fill-rule:evenodd;stroke:rgb(0, 0, 0);stroke-width:3.0;" d="M 258.132, 184.94 L 257.188, 185.622 L 227.89, 185.623 L 232.31, 172.163 L 251.243, 166.209 z "/>
<path style="fill:rgb(14, 10, 255);fill-opacity:1.0;fill-rule:evenodd;stroke:rgb(0, 0, 0);stroke-width:3.0;" d="M 683.612, 68.6836 L 680.119, 74.3668 L 664.217, 85.6818 L 656.612, 47.5574 z "/>
<path style="fill:rgb(255, 27, 10);fill-opacity:1.0;fill-rule:evenodd;stroke:rgb(0, 0, 0);stroke-width:3.0;" d="M 280.575, 142.985 L 262.082, 149.108 L 247.817, 139.783 L 259.426, 125.138 z "/>
<path style="fill:rgb(228, 76, 255);fill-opacity:1.0;fill-rule:evenodd;stroke:rgb(0, 0, 0);stroke-width:3.0;" d="M 286.977, 140.865 L 280.575, 142.985 L 259.426, 125.138 L 267.203, 115.327 z "/>
<path style="fill:rgb(22, 255, 64);fill-opacity:1.0;fill-rule:evenodd;stroke:rgb(0, 0, 0);stroke-width:3.0;" d="M 469.714, 15.184 L 468.528, 32.962 L 468.354, 33.0879 L 462.559, 32.5481 L 449.421, 25.0819 L 452.545, 10.0542 z "/>
<path style="fill:rgb(255, 234, 10);fill-opacity:1.0;fill-rule:evenodd;stroke:rgb(0, 0, 0);stroke-width:3.0;" d="M 169.845, 248.714 L 141.685, 269.055 L 122.414, 241.106 L 164.762, 240.327 z "/>
<path style="fill:rgb(255, 25, 199);fill-opacity:1.0;fill-rule:evenodd;stroke:rgb(0, 0, 0);stroke-width:3.0;" d="M 407.305, 563.369 L 383.342, 594.656 L 380.588, 565.822 L 402.323, 562.911 z "/>
<path style="fill:rgb(252, 37, 119);fill-opacity:1.0;fill-rule:evenodd;stroke:rgb(0, 0, 0);stroke-width:3.0;" d="M 141.2, 108.078 L 125.368, 111.797 L 126.409, 84.9452 z "/>
<path style="fill:rgb(252, 10, 71);fill-opacity:1.0;fill-rule:evenodd;stroke:rgb(0, 0, 0);stroke-width:3.0;" d="M 743.546, 589.949 L 709.042, 579.916 L 699.678, 550.28 z "/>
<path style="fill:rgb(37, 37, 252);fill-opacity:1.0;fill-rule:evenodd;stroke:rgb(0, 0, 0);stroke-width:3.0;" d="M 781.759, 529.409 L 782.122, 555.868 L 771.196, 552.443 L 773.871, 520.623 z "/>
<path style="fill:rgb(72, 255, 255);fill-opacity:1.0;fill-rule:evenodd;stroke:rgb(0, 0, 0);stroke-width:3.0;" d="M 781.084, 383.602 L 780.762, 393.201 L 768.466, 394.355 L 760.275, 384.6 L 778.673, 376.479 z "/>
<path style="fill:rgb(72, 255, 255);fill-opacity:1.0;fill-rule:evenodd;stroke:rgb(0, 0, 0);stroke-width:3.0;" d="M 45.9425, 304.76 L 6.73473, 356.896 L 7.71848, 346.291 L 31.0066, 239.942 z "/>
<path style="fill:rgb(255, 92, 231);fill-opacity:1.0;fill-rule:evenodd;stroke:rgb(0, 0, 0);stroke-width:3.0;" d="M 116.363, 100.593 L 108.581, 124.434 L 83.6618, 108.659 L 85.9781, 83.7657 z "/>
<path style="fill:rgb(255, 7, 168);fill-opacity:1.0;fill-rule:evenodd;stroke:rgb(0, 0, 0);stroke-width:3.0;" d="M 166.967, 117.274 L 169.155, 122.926 L 159.488, 130.35 L 155.957, 102.054 z "/>
<path style="fill:rgb(255, 7, 168);fill-opacity:1.0;fill-rule:evenodd;stroke:rgb(0, 0, 0);stroke-width:3.0;" d="M 396.38, 24.4373 L 398.361, 30.6652 L 390.293, 39.6905 L 381.601, 27.7204 L 384.437, 20.6376 z "/>
<path style="fill:rgb(22, 11, 255);fill-opacity:1.0;fill-rule:evenodd;stroke:rgb(0, 0, 0);stroke-width:3.0;" d="M 719.82, 550.176 L 549.469, 532.901 L 652.669, 471.275 z "/>
<path style="fill:rgb(255, 252, 8);fill-opacity:1.0;fill-rule:evenodd;stroke:rgb(0, 0, 0);stroke-width:3.0;" d="M 652.669, 471.275 L 549.469, 532.901 L 319.499, 509.581 L 522.626, 318.478 z "/>
<path style="fill:rgb(255, 172, 7);fill-opacity:1.0;fill-rule:evenodd;stroke:rgb(0, 0, 0);stroke-width:3.0;" d="M 767.244, 403.301 L 746.991, 401.25 L 744.143, 391.721 L 748.317, 389.879 z "/>
<path style="fill:rgb(255, 197, 255);fill-opacity:1.0;fill-rule:evenodd;stroke:rgb(0, 0, 0);stroke-width:3.0;" d="M 249.654, 121.945 L 246.297, 120.928 L 239.441, 113.602 L 249.141, 102.901 z "/>
<path style="fill:rgb(70, 231, 102);fill-opacity:1.0;fill-rule:evenodd;stroke:rgb(0, 0, 0);stroke-width:3.0;" d="M 412.759, 556.248 L 407.305, 563.369 L 401.687, 562.853 L 380.389, 534.935 L 415.012, 531.294 z "/>
<path style="fill:rgb(255, 184, 72);fill-opacity:1.0;fill-rule:evenodd;stroke:rgb(0, 0, 0);stroke-width:3.0;" d="M 664.493, 152.147 L 647.455, 147.401 L 642.077, 132.605 L 648.371, 125.521 z "/>
<path style="fill:rgb(255, 9, 97);fill-opacity:1.0;fill-rule:evenodd;stroke:rgb(0, 0, 0);stroke-width:3.0;" d="M 274.562, 75.3327 L 273.103, 95.4913 L 248.448, 67 L 253.677, 58.011 L 254.3, 57.5322 z "/>
<path style="fill:rgb(255, 27, 204);fill-opacity:1.0;fill-rule:evenodd;stroke:rgb(0, 0, 0);stroke-width:3.0;" d="M 159.079, 230.949 L 145.023, 232.478 L 141.565, 226.808 L 148.568, 221.804 L 153.433, 221.632 z "/>
<path style="fill:rgb(243, 252, 30);fill-opacity:1.0;fill-rule:evenodd;stroke:rgb(0, 0, 0);stroke-width:3.0;" d="M 35.1395, 105.933 L 18.8275, 94.0006 L 30.7189, 75.8034 L 38.7939, 74.7837 z "/>
<path style="fill:rgb(237, 112, 255);fill-opacity:1.0;fill-rule:evenodd;stroke:rgb(0, 0, 0);stroke-width:3.0;" d="M 72.5365, 76.3215 L 75.2471, 99.3817 L 74.8196, 103.062 L 38.1961, 79.8789 L 40.6831, 58.6804 z "/>
<path style="fill:rgb(255, 22, 41);fill-opacity:1.0;fill-rule:evenodd;stroke:rgb(0, 0, 0);stroke-width:3.0;" d="M 373.857, 58.0777 L 348.66, 86.2652 L 314.962, 64.2619 L 309.418, 46.2387 L 327.236, 20.0163 z "/>
<path style="fill:rgb(255, 22, 41);fill-opacity:1.0;fill-rule:evenodd;stroke:rgb(0, 0, 0);stroke-width:3.0;" d="M 348.66, 86.2652 L 328.626, 108.678 L 314.962, 64.2619 z "/>
<path style="fill:rgb(255, 24, 194);fill-opacity:1.0;fill-rule:evenodd;stroke:rgb(0, 0, 0);stroke-width:3.0;" d="M 376.482, 567.058 L 371.535, 577.958 L 356.109, 560.433 L 356.66, 556.716 z "/>
<path style="fill:rgb(76, 237, 10);fill-opacity:1.0;fill-rule:evenodd;stroke:rgb(0, 0, 0);stroke-width:3.0;" d="M 539.116, 26.4585 L 524.121, 44.4688 L 514.992, 27.2366 L 538.67, 25.1958 z "/>
<path style="fill:rgb(255, 163, 16);fill-opacity:1.0;fill-rule:evenodd;stroke:rgb(0, 0, 0);stroke-width:3.0;" d="M 644.618, 152.542 L 633.697, 158.679 L 611.5, 111.414 L 620.821, 109.978 z "/>
<path style="fill:rgb(255, 1, 255);fill-opacity:1.0;fill-rule:evenodd;stroke:rgb(0, 0, 0);stroke-width:3.0;" d="M 648.526, 150.346 L 644.618, 152.542 L 620.821, 109.978 L 633.161, 108.077 z "/>
</svg>