<?xml version="1.0" encoding="iso-8859-1" standalone="no"?>
<!DOCTYPE svg PUBLIC "-//W3C//DTD SVG 1.0//EN" "http://www.w3.org/TR/2001/REC-SVG-20010904/DTD/svg10.dtd">
<svg xmlns="http://www.w3.org/2000/svg" width="800" height="600">
<path style="fill:rgb(0, 0, 0);fill-opacity:0.0;fill-rule:evenodd;stroke:rgb(0, 0, 0);stroke-width:0.0;" d="M 0, 600 L 800, 600 L 800, 0 L 0, 0 z "/>
<path style="fill:rgb(187, 7, 209);fill-opacity:1.0;fill-rule:evenodd;stroke:rgb(0, 0, 0);stroke-width:3.0;" d="M 133.076, 508.895 L 118.911, 506.113 L 115.245, 501.523 L 133.694, 496.919 z "/>
<path style="fill:rgb(234, 150, 7);fill-opacity:1.0;fill-rule:evenodd;stroke:rgb(0, 0, 0);stroke-width:3.0;" d="M 745.661, 460.939 L 718.314, 494.469 L 642.057, 451.597 z "/>
<path style="fill:rgb(234, 150, 7);fill-opacity:1.0;fill-rule:evenodd;stroke:rgb(0, 0, 0);stroke-width:3.0;" d="M 771.411, 97.5513 L 788.347, 110.371 L 787.862, 110.766 L 765.882, 103.494 L 764.683, 97.9085 L 768.409, 96.8457 z "/>
<path style="fill:rgb(234, 150, 7);fill-opacity:1.0;fill-rule:evenodd;stroke:rgb(0, 0, 0);stroke-width:3.0;" d="M 652.598, 24.2664 L 657.558, 30.7978 L 612.97, 35.8756 L 584.46, 21.5602 z "/>
<path style="fill:rgb(234, 150, 7);fill-opacity:1.0;fill-rule:evenodd;stroke:rgb(0, 0, 0);stroke-width:3.0;" d="M 766.277, 363.943 L 756.695, 344.024 L 777.039, 323.471 z "/>
<path style="fill:rgb(234, 150, 7);fill-opacity:1.0;fill-rule:evenodd;stroke:rgb(0, 0, 0);stroke-width:3.0;" d="M 143.738, 476.183 L 151.607, 501.925 L 133.521, 500.278 L 135.644, 459.098 z "/>
<path style="fill:rgb(255, 187, 10);fill-opacity:1.0;fill-rule:evenodd;stroke:rgb(0, 0, 0);stroke-width:3.0;" d="M 475.879, 466.091 L 477.663, 480.947 L 472.82, 485.999 L 466.301, 481.353 L 454.945, 463.244 z "/>
<path style="fill:rgb(255, 58, 18);fill-opacity:1.0;fill-rule:evenodd;stroke:rgb(0, 0, 0);stroke-width:3.0;" d="M 470.71, 95.3978 L 427.304, 56.6881 L 543.886, 40.0761 z "/>
<path style="fill:rgb(255, 58, 18);fill-opacity:1.0;fill-rule:evenodd;stroke:rgb(0, 0, 0);stroke-width:3.0;" d="M 706.237, 256.361 L 706.603, 258.091 L 703.231, 270.431 L 698.627, 269.253 L 696.731, 255.228 z "/>
<path style="fill:rgb(255, 58, 18);fill-opacity:1.0;fill-rule:evenodd;stroke:rgb(0, 0, 0);stroke-width:3.0;" d="M 781.738, 396.081 L 667.213, 402.228 L 709.774, 246.487 z "/>
<path style="fill:rgb(217, 255, 13);fill-opacity:1.0;fill-rule:evenodd;stroke:rgb(0, 0, 0);stroke-width:3.0;" d="M 737.772, 180.207 L 702.771, 200.644 L 706.755, 183.193 L 726.206, 171.454 z "/>
<path style="fill:rgb(217, 255, 13);fill-opacity:1.0;fill-rule:evenodd;stroke:rgb(0, 0, 0);stroke-width:3.0;" d="M 656.63, 402.796 L 237.733, 425.28 L 416.163, 273.702 L 714.822, 147.849 z "/>
<path style="fill:rgb(43, 255, 159);fill-opacity:1.0;fill-rule:evenodd;stroke:rgb(0, 0, 0);stroke-width:3.0;" d="M 718.784, 47.876 L 701.396, 49.8769 L 695.99, 47.3299 L 696.622, 41.8891 L 719.508, 40.1689 z "/>
<path style="fill:rgb(159, 255, 255);fill-opacity:1.0;fill-rule:evenodd;stroke:rgb(0, 0, 0);stroke-width:3.0;" d="M 152.132, 501.973 L 147.497, 514.158 L 133.354, 503.51 L 133.521, 500.278 z "/>
<path style="fill:rgb(255, 157, 255);fill-opacity:1.0;fill-rule:evenodd;stroke:rgb(0, 0, 0);stroke-width:3.0;" d="M 159.395, 509.23 L 162.934, 516.701 L 161.301, 524.552 L 147.497, 514.158 L 149.535, 508.799 z "/>
<path style="fill:rgb(246, 243, 46);fill-opacity:1.0;fill-rule:evenodd;stroke:rgb(0, 0, 0);stroke-width:3.0;" d="M 520.594, 483.786 L 516.742, 498.907 L 490.982, 511.68 L 499.851, 480.285 z "/>
<path style="fill:rgb(231, 123, 13);fill-opacity:1.0;fill-rule:evenodd;stroke:rgb(0, 0, 0);stroke-width:3.0;" d="M 169.622, 530.817 L 170.863, 533.438 L 151.082, 544.144 L 131.541, 538.67 L 131.685, 535.88 L 163.8, 526.434 z "/>
<path style="fill:rgb(255, 14, 35);fill-opacity:1.0;fill-rule:evenodd;stroke:rgb(0, 0, 0);stroke-width:3.0;" d="M 513.685, 510.91 L 505.353, 543.621 L 489.224, 517.904 L 490.982, 511.68 L 498.194, 508.105 z "/>
<path style="fill:rgb(252, 24, 194);fill-opacity:1.0;fill-rule:evenodd;stroke:rgb(0, 0, 0);stroke-width:3.0;" d="M 107.323, 517.035 L 96.8035, 512.592 L 99.8023, 507.543 L 113.255, 505.989 z "/>
<path style="fill:rgb(252, 24, 194);fill-opacity:1.0;fill-rule:evenodd;stroke:rgb(0, 0, 0);stroke-width:3.0;" d="M 459.068, 469.818 L 469.376, 486.256 L 322.499, 592.16 L 179.738, 552.171 L 135.644, 459.098 L 137.11, 430.68 L 216.301, 426.43 z "/>
<path style="fill:rgb(246, 252, 21);fill-opacity:1.0;fill-rule:evenodd;stroke:rgb(0, 0, 0);stroke-width:3.0;" d="M 133.74, 496.03 L 133.72, 496.405 L 114.873, 501.057 L 111.389, 496.696 L 123.358, 491.821 z "/>
<path style="fill:rgb(255, 103, 36);fill-opacity:1.0;fill-rule:evenodd;stroke:rgb(0, 0, 0);stroke-width:3.0;" d="M 788.133, 408.866 L 752.717, 452.289 L 594.757, 422.855 L 595.075, 421.995 L 636.058, 403.9 L 734.256, 398.629 z "/>
<path style="fill:rgb(255, 66, 148);fill-opacity:1.0;fill-rule:evenodd;stroke:rgb(0, 0, 0);stroke-width:3.0;" d="M 595.075, 421.995 L 601.088, 405.777 L 636.058, 403.9 z "/>
<path style="fill:rgb(255, 3, 255);fill-opacity:1.0;fill-rule:evenodd;stroke:rgb(0, 0, 0);stroke-width:3.0;" d="M 446.897, 450.411 L 424.837, 415.237 L 447.629, 414.014 z "/>
<path style="fill:rgb(255, 3, 255);fill-opacity:1.0;fill-rule:evenodd;stroke:rgb(0, 0, 0);stroke-width:3.0;" d="M 705.936, 22.1349 L 709.716, 26.8477 L 692.05, 37.2949 L 692.468, 30.2297 L 701.093, 22.0055 z "/>
<path style="fill:rgb(249, 22, 184);fill-opacity:1.0;fill-rule:evenodd;stroke:rgb(0, 0, 0);stroke-width:3.0;" d="M 47.8074, 481.282 L 10.1315, 456.947 L 57.695, 440.688 z "/>
<path style="fill:rgb(255, 37, 228);fill-opacity:1.0;fill-rule:evenodd;stroke:rgb(0, 0, 0);stroke-width:3.0;" d="M 782.592, 195.439 L 773.012, 266.214 L 727.682, 283.712 L 697.928, 221.863 L 702.771, 200.644 L 760.808, 166.755 z "/>
<path style="fill:rgb(255, 37, 228);fill-opacity:1.0;fill-rule:evenodd;stroke:rgb(0, 0, 0);stroke-width:3.0;" d="M 762.999, 327.886 L 755.129, 340.769 L 739.706, 308.708 z "/>
<path style="fill:rgb(255, 37, 228);fill-opacity:1.0;fill-rule:evenodd;stroke:rgb(0, 0, 0);stroke-width:3.0;" d="M 785.873, 435.064 L 777.896, 442.182 L 765, 437.228 L 772.019, 428.623 z "/>
<path style="fill:rgb(255, 37, 228);fill-opacity:1.0;fill-rule:evenodd;stroke:rgb(0, 0, 0);stroke-width:3.0;" d="M 698.978, 285.992 L 667.213, 402.228 L 656.63, 402.796 L 689.775, 257.583 z "/>
<path style="fill:rgb(45, 212, 255);fill-opacity:1.0;fill-rule:evenodd;stroke:rgb(0, 0, 0);stroke-width:3.0;" d="M 250.547, 572.005 L 267.872, 582.216 L 263.837, 588.735 L 258.572, 592.489 L 235.48, 567.785 z "/>
<path style="fill:rgb(255, 197, 29);fill-opacity:1.0;fill-rule:evenodd;stroke:rgb(0, 0, 0);stroke-width:3.0;" d="M 752.717, 452.289 L 745.661, 460.939 L 656.718, 452.919 L 666.632, 436.248 z "/>
<path style="fill:rgb(209, 249, 86);fill-opacity:1.0;fill-rule:evenodd;stroke:rgb(0, 0, 0);stroke-width:3.0;" d="M 104.434, 551.688 L 95.241, 560.117 L 81.8732, 554.478 L 89.0003, 537.637 z "/>
<path style="fill:rgb(9, 138, 255);fill-opacity:1.0;fill-rule:evenodd;stroke:rgb(0, 0, 0);stroke-width:3.0;" d="M 95.241, 560.117 L 77.4438, 576.435 L 74.5828, 574.971 L 87.7607, 556.962 z "/>
<path style="fill:rgb(9, 138, 255);fill-opacity:1.0;fill-rule:evenodd;stroke:rgb(0, 0, 0);stroke-width:3.0;" d="M 67.3158, 434.426 L 18.8272, 437.029 L 48.6138, 414.51 L 51.5712, 414.009 z "/>
<path style="fill:rgb(14, 255, 152);fill-opacity:1.0;fill-rule:evenodd;stroke:rgb(0, 0, 0);stroke-width:3.0;" d="M 117.076, 431.756 L 67.3158, 434.426 L 50.7258, 412.913 L 77.1205, 392.958 z "/>
<path style="fill:rgb(14, 255, 152);fill-opacity:1.0;fill-rule:evenodd;stroke:rgb(0, 0, 0);stroke-width:3.0;" d="M 666.099, 436.149 L 664.264, 440.229 L 656.718, 452.919 L 653.388, 452.618 L 635.927, 445.885 L 661.52, 435.296 z "/>
<path style="fill:rgb(14, 255, 152);fill-opacity:1.0;fill-rule:evenodd;stroke:rgb(0, 0, 0);stroke-width:3.0;" d="M 792.629, 279.379 L 771.311, 314.279 L 753.952, 320.437 L 739.706, 308.708 L 727.682, 283.712 L 779.611, 263.667 z "/>
<path style="fill:rgb(14, 255, 152);fill-opacity:1.0;fill-rule:evenodd;stroke:rgb(0, 0, 0);stroke-width:3.0;" d="M 83.2081, 537.643 L 75.3403, 545.78 L 66.0295, 538.696 L 65.4206, 535.419 L 73.2007, 533.605 z "/>
<path style="fill:rgb(255, 255, 18);fill-opacity:1.0;fill-rule:evenodd;stroke:rgb(0, 0, 0);stroke-width:3.0;" d="M 639.085, 431.115 L 628.646, 444.057 L 617.611, 437.853 L 617.05, 427.009 z "/>
<path style="fill:rgb(255, 255, 18);fill-opacity:1.0;fill-rule:evenodd;stroke:rgb(0, 0, 0);stroke-width:3.0;" d="M 200.323, 415.724 L 220.536, 426.203 L 117.076, 431.756 L 77.1205, 392.958 L 83.5321, 388.111 z "/>
<path style="fill:rgb(255, 255, 18);fill-opacity:1.0;fill-rule:evenodd;stroke:rgb(0, 0, 0);stroke-width:3.0;" d="M 200.323, 415.724 L 83.5321, 388.111 L 109.373, 368.575 z "/>
<path style="fill:rgb(255, 74, 8);fill-opacity:1.0;fill-rule:evenodd;stroke:rgb(0, 0, 0);stroke-width:3.0;" d="M 768.562, 438.596 L 727.257, 490.765 L 719.741, 492.718 L 765, 437.228 z "/>
<path style="fill:rgb(37, 8, 243);fill-opacity:1.0;fill-rule:evenodd;stroke:rgb(0, 0, 0);stroke-width:3.0;" d="M 467.707, 456.933 L 453.712, 461.279 L 446.897, 450.411 L 447.629, 414.014 L 464.594, 413.103 z "/>
<path style="fill:rgb(246, 0, 38);fill-opacity:1.0;fill-rule:evenodd;stroke:rgb(0, 0, 0);stroke-width:3.0;" d="M 584.46, 21.5602 L 612.97, 35.8756 L 538.175, 44.3936 L 569.18, 20.9533 z "/>
<path style="fill:rgb(246, 0, 38);fill-opacity:1.0;fill-rule:evenodd;stroke:rgb(0, 0, 0);stroke-width:3.0;" d="M 482.672, 467.015 L 468.284, 465.058 L 466.612, 441.525 L 480.624, 412.243 L 499.752, 411.216 z "/>
<path style="fill:rgb(255, 182, 15);fill-opacity:1.0;fill-rule:evenodd;stroke:rgb(0, 0, 0);stroke-width:3.0;" d="M 217.269, 562.684 L 225.61, 573.347 L 172.961, 551.546 L 174.192, 550.617 z "/>
<path style="fill:rgb(255, 182, 15);fill-opacity:1.0;fill-rule:evenodd;stroke:rgb(0, 0, 0);stroke-width:3.0;" d="M 594.259, 424.197 L 594.174, 424.425 L 494.711, 427.686 L 499.752, 411.216 L 588.164, 406.471 z "/>
<path style="fill:rgb(23, 79, 255);fill-opacity:1.0;fill-rule:evenodd;stroke:rgb(0, 0, 0);stroke-width:3.0;" d="M 612.488, 484.666 L 573.791, 479.404 L 587.622, 442.1 z "/>
<path style="fill:rgb(255, 20, 78);fill-opacity:1.0;fill-rule:evenodd;stroke:rgb(0, 0, 0);stroke-width:3.0;" d="M 163.8, 526.434 L 131.822, 535.84 L 136.721, 506.045 z "/>
<path style="fill:rgb(255, 20, 78);fill-opacity:1.0;fill-rule:evenodd;stroke:rgb(0, 0, 0);stroke-width:3.0;" d="M 175.019, 542.21 L 179.738, 552.171 L 151.082, 544.144 L 164.225, 537.031 z "/>
<path style="fill:rgb(8, 187, 255);fill-opacity:1.0;fill-rule:evenodd;stroke:rgb(0, 0, 0);stroke-width:3.0;" d="M 237.733, 425.28 L 220.536, 426.203 L 143.907, 386.477 L 634.511, 88.2136 z "/>
<path style="fill:rgb(16, 24, 228);fill-opacity:1.0;fill-rule:evenodd;stroke:rgb(0, 0, 0);stroke-width:3.0;" d="M 774.785, 461.067 L 774.746, 461.586 L 746.231, 468.159 L 764.27, 450.429 z "/>
<path style="fill:rgb(16, 24, 228);fill-opacity:1.0;fill-rule:evenodd;stroke:rgb(0, 0, 0);stroke-width:3.0;" d="M 700.257, 281.313 L 698.978, 285.992 L 689.775, 257.583 L 694.344, 237.567 z "/>
<path style="fill:rgb(39, 255, 243);fill-opacity:1.0;fill-rule:evenodd;stroke:rgb(0, 0, 0);stroke-width:3.0;" d="M 617.05, 427.009 L 617.611, 437.853 L 597.616, 426.612 L 600.984, 424.016 z "/>
<path style="fill:rgb(243, 234, 25);fill-opacity:1.0;fill-rule:evenodd;stroke:rgb(0, 0, 0);stroke-width:3.0;" d="M 80.1499, 525.861 L 80.8221, 531.827 L 65.4206, 535.419 L 64.8168, 532.169 L 68.3683, 521.145 z "/>
<path style="fill:rgb(243, 234, 25);fill-opacity:1.0;fill-rule:evenodd;stroke:rgb(0, 0, 0);stroke-width:3.0;" d="M 601.513, 195.596 L 416.163, 273.702 L 576.308, 137.658 z "/>
<path style="fill:rgb(32, 12, 255);fill-opacity:1.0;fill-rule:evenodd;stroke:rgb(0, 0, 0);stroke-width:3.0;" d="M 752.38, 155.658 L 706.755, 183.193 L 715.404, 145.3 L 740.176, 139.588 z "/>
<path style="fill:rgb(48, 52, 243);fill-opacity:1.0;fill-rule:evenodd;stroke:rgb(0, 0, 0);stroke-width:3.0;" d="M 661.52, 435.296 L 633.605, 446.845 L 628.646, 444.057 L 639.085, 431.115 z "/>
<path style="fill:rgb(89, 223, 252);fill-opacity:1.0;fill-rule:evenodd;stroke:rgb(0, 0, 0);stroke-width:3.0;" d="M 624.677, 441.825 L 590.136, 446.403 L 587.622, 442.1 L 594.097, 424.633 z "/>
<path style="fill:rgb(49, 165, 255);fill-opacity:1.0;fill-rule:evenodd;stroke:rgb(0, 0, 0);stroke-width:3.0;" d="M 362.539, 452.566 L 344.211, 449.29 L 284.101, 422.791 L 305.751, 421.629 z "/>
<path style="fill:rgb(49, 165, 255);fill-opacity:1.0;fill-rule:evenodd;stroke:rgb(0, 0, 0);stroke-width:3.0;" d="M 699.752, 225.654 L 704.274, 247.064 L 695.307, 244.694 L 694.344, 237.567 L 697.928, 221.863 z "/>
<path style="fill:rgb(255, 59, 199);fill-opacity:1.0;fill-rule:evenodd;stroke:rgb(0, 0, 0);stroke-width:3.0;" d="M 104.596, 496.537 L 81.341, 524.609 L 40.0702, 513.048 L 50.8373, 468.843 z "/>
<path style="fill:rgb(255, 59, 199);fill-opacity:1.0;fill-rule:evenodd;stroke:rgb(0, 0, 0);stroke-width:3.0;" d="M 792.573, 395.499 L 781.738, 396.081 L 766.277, 363.943 L 783.789, 298.09 z "/>
<path style="fill:rgb(237, 0, 255);fill-opacity:1.0;fill-rule:evenodd;stroke:rgb(0, 0, 0);stroke-width:3.0;" d="M 500.417, 169.736 L 143.907, 386.477 L 109.373, 368.575 L 455.479, 106.913 z "/>
<path style="fill:rgb(255, 128, 18);fill-opacity:1.0;fill-rule:evenodd;stroke:rgb(0, 0, 0);stroke-width:3.0;" d="M 777.039, 323.471 L 768.375, 332.225 L 761.062, 331.056 L 785.785, 290.584 z "/>
<path style="fill:rgb(255, 128, 18);fill-opacity:1.0;fill-rule:evenodd;stroke:rgb(0, 0, 0);stroke-width:3.0;" d="M 573.791, 479.404 L 540.768, 474.914 L 522.427, 426.777 L 594.174, 424.425 z "/>
<path style="fill:rgb(226, 142, 8);fill-opacity:1.0;fill-rule:evenodd;stroke:rgb(0, 0, 0);stroke-width:3.0;" d="M 674.987, 53.7488 L 631.304, 90.1631 L 500.417, 169.736 L 484.931, 148.087 L 498.423, 74.4467 L 538.175, 44.3936 L 657.558, 30.7978 z "/>
<path style="fill:rgb(226, 142, 8);fill-opacity:1.0;fill-rule:evenodd;stroke:rgb(0, 0, 0);stroke-width:3.0;" d="M 648.996, 19.5234 L 633.079, 18.487 L 638.166, 5.26319 z "/>
<path style="fill:rgb(189, 5, 62);fill-opacity:1.0;fill-rule:evenodd;stroke:rgb(0, 0, 0);stroke-width:3.0;" d="M 718.314, 494.469 L 714.946, 498.597 L 615.071, 485.017 L 611.954, 443.512 L 624.677, 441.825 z "/>
<path style="fill:rgb(243, 165, 6);fill-opacity:1.0;fill-rule:evenodd;stroke:rgb(0, 0, 0);stroke-width:3.0;" d="M 47.8074, 481.282 L 40.0702, 513.048 L 38.7808, 512.687 L 37.0829, 474.355 z "/>
<path style="fill:rgb(255, 1, 217);fill-opacity:1.0;fill-rule:evenodd;stroke:rgb(0, 0, 0);stroke-width:3.0;" d="M 423.948, 420.497 L 434.765, 431.067 L 459.068, 469.818 L 362.539, 452.566 L 305.751, 421.629 L 404.289, 416.34 z "/>
<path style="fill:rgb(182, 51, 255);fill-opacity:1.0;fill-rule:evenodd;stroke:rgb(0, 0, 0);stroke-width:3.0;" d="M 717.184, 109.312 L 652.709, 174.023 L 601.513, 195.596 L 576.308, 137.658 L 675.024, 53.7971 z "/>
<path style="fill:rgb(182, 51, 255);fill-opacity:1.0;fill-rule:evenodd;stroke:rgb(0, 0, 0);stroke-width:3.0;" d="M 344.211, 449.29 L 216.301, 426.43 L 284.101, 422.791 z "/>
<path style="fill:rgb(182, 51, 255);fill-opacity:1.0;fill-rule:evenodd;stroke:rgb(0, 0, 0);stroke-width:3.0;" d="M 722.131, 115.826 L 714.822, 147.849 L 652.709, 174.023 L 717.184, 109.312 z "/>
<path style="fill:rgb(237, 0, 202);fill-opacity:1.0;fill-rule:evenodd;stroke:rgb(0, 0, 0);stroke-width:3.0;" d="M 615.071, 485.017 L 612.488, 484.666 L 609.605, 479.731 L 609.97, 443.775 L 611.954, 443.512 z "/>
<path style="fill:rgb(124, 81, 255);fill-opacity:1.0;fill-rule:evenodd;stroke:rgb(0, 0, 0);stroke-width:3.0;" d="M 609.605, 479.731 L 590.136, 446.403 L 609.97, 443.775 z "/>
<path style="fill:rgb(11, 3, 255);fill-opacity:1.0;fill-rule:evenodd;stroke:rgb(0, 0, 0);stroke-width:3.0;" d="M 532.03, 451.981 L 540.768, 474.914 L 482.672, 467.015 L 487.375, 451.65 z "/>
<path style="fill:rgb(220, 234, 8);fill-opacity:1.0;fill-rule:evenodd;stroke:rgb(0, 0, 0);stroke-width:3.0;" d="M 532.03, 451.981 L 487.375, 451.65 L 494.711, 427.686 L 522.427, 426.777 z "/>
<path style="fill:rgb(255, 75, 182);fill-opacity:1.0;fill-rule:evenodd;stroke:rgb(0, 0, 0);stroke-width:3.0;" d="M 493.977, 501.078 L 492.424, 506.576 L 477.004, 498.417 L 474.641, 494.65 L 484.73, 494.488 z "/>
<path style="fill:rgb(220, 24, 57);fill-opacity:1.0;fill-rule:evenodd;stroke:rgb(0, 0, 0);stroke-width:3.0;" d="M 758.472, 163.679 L 758.499, 168.104 L 737.772, 180.207 L 726.206, 171.454 L 752.38, 155.658 z "/>
<path style="fill:rgb(189, 46, 255);fill-opacity:1.0;fill-rule:evenodd;stroke:rgb(0, 0, 0);stroke-width:3.0;" d="M 193.439, 50.172 L 105.614, 28.2451 L 128.574, 12.8975 z "/>
<path style="fill:rgb(18, 36, 234);fill-opacity:1.0;fill-rule:evenodd;stroke:rgb(0, 0, 0);stroke-width:3.0;" d="M 793.501, 473.553 L 727.257, 490.765 L 744.915, 468.463 L 787.403, 458.669 z "/>
<path style="fill:rgb(12, 4, 255);fill-opacity:1.0;fill-rule:evenodd;stroke:rgb(0, 0, 0);stroke-width:3.0;" d="M 484.931, 148.087 L 455.479, 106.913 L 498.423, 74.4467 z "/>
<path style="fill:rgb(189, 4, 237);fill-opacity:1.0;fill-rule:evenodd;stroke:rgb(0, 0, 0);stroke-width:3.0;" d="M 794.634, 457.002 L 774.746, 461.586 L 776.136, 443.004 z "/>
<path style="fill:rgb(228, 91, 8);fill-opacity:1.0;fill-rule:evenodd;stroke:rgb(0, 0, 0);stroke-width:3.0;" d="M 772.115, 439.961 L 776.136, 443.004 L 774.785, 461.067 L 761.451, 447.578 L 768.562, 438.596 z "/>
<path style="fill:rgb(237, 26, 255);fill-opacity:1.0;fill-rule:evenodd;stroke:rgb(0, 0, 0);stroke-width:3.0;" d="M 133.903, 492.874 L 117.494, 489.076 L 127.087, 479.633 L 134.677, 477.852 z "/>
<path style="fill:rgb(85, 220, 255);fill-opacity:1.0;fill-rule:evenodd;stroke:rgb(0, 0, 0);stroke-width:3.0;" d="M 136.317, 446.059 L 110.751, 489.106 L 104.596, 496.537 L 50.8373, 468.843 L 59.1127, 434.867 L 137.11, 430.68 z "/>
<path style="fill:rgb(255, 35, 209);fill-opacity:1.0;fill-rule:evenodd;stroke:rgb(0, 0, 0);stroke-width:3.0;" d="M 116.668, 534.504 L 114.506, 542.453 L 104.434, 551.688 L 89.0003, 537.637 L 93.1177, 527.908 z "/>
<path style="fill:rgb(249, 255, 8);fill-opacity:1.0;fill-rule:evenodd;stroke:rgb(0, 0, 0);stroke-width:3.0;" d="M 727.863, 123.374 L 740.176, 139.588 L 715.404, 145.3 L 721.86, 117.016 z "/>
</svg>