<?xml version="1.0" encoding="iso-8859-1" standalone="no"?>
<!DOCTYPE svg PUBLIC "-//W3C//DTD SVG 1.0//EN" "http://www.w3.org/TR/2001/REC-SVG-20010904/DTD/svg10.dtd">
<svg xmlns="http://www.w3.org/2000/svg" width="800" height="600">
<path style="fill:rgb(0, 0, 0);fill-opacity:0.0;fill-rule:evenodd;stroke:rgb(0, 0, 0);stroke-width:0.0;" d="M 0, 600 L 800, 600 L 800, 0 L 0, 0 z "/>
<path style="fill:rgb(52, 243, 237);fill-opacity:1.0;fill-rule:evenodd;stroke:rgb(0, 0, 0);stroke-width:3.0;" d="M 170.44, 543.685 L 162.372, 547.362 L 147.412, 549.483 L 146.527, 549.191 L 143.199, 542.204 z "/>
<path style="fill:rgb(52, 243, 237);fill-opacity:1.0;fill-rule:evenodd;stroke:rgb(0, 0, 0);stroke-width:3.0;" d="M 784.947, 91.4011 L 770.312, 89.2224 L 764.673, 79.9317 L 788.187, 52.4284 z "/>
<path style="fill:rgb(52, 243, 237);fill-opacity:1.0;fill-rule:evenodd;stroke:rgb(0, 0, 0);stroke-width:3.0;" d="M 288.227, 503.786 L 202.731, 506.326 L 284.3, 475.938 z "/>
<path style="fill:rgb(52, 243, 237);fill-opacity:1.0;fill-rule:evenodd;stroke:rgb(0, 0, 0);stroke-width:3.0;" d="M 791.305, 466.764 L 781.581, 506.508 L 773.827, 502.049 L 770.752, 377.462 z "/>
<path style="fill:rgb(252, 64, 189);fill-opacity:1.0;fill-rule:evenodd;stroke:rgb(0, 0, 0);stroke-width:3.0;" d="M 224.338, 550.73 L 234.569, 571.596 L 203.417, 564.303 L 216.469, 548.811 z "/>
<path style="fill:rgb(252, 64, 189);fill-opacity:1.0;fill-rule:evenodd;stroke:rgb(0, 0, 0);stroke-width:3.0;" d="M 491.476, 505.231 L 484.143, 514.793 L 481.973, 513.784 L 475.315, 501.543 z "/>
<path style="fill:rgb(252, 64, 189);fill-opacity:1.0;fill-rule:evenodd;stroke:rgb(0, 0, 0);stroke-width:3.0;" d="M 407.49, 27.399 L 388.52, 35.4901 L 390.357, 15.0421 L 414.234, 9.02337 z "/>
<path style="fill:rgb(252, 64, 189);fill-opacity:1.0;fill-rule:evenodd;stroke:rgb(0, 0, 0);stroke-width:3.0;" d="M 399.553, 311.213 L 363.551, 215.422 L 363.349, 198.959 L 380.033, 176.347 z "/>
<path style="fill:rgb(252, 64, 189);fill-opacity:1.0;fill-rule:evenodd;stroke:rgb(0, 0, 0);stroke-width:3.0;" d="M 485.396, 473.328 L 687.748, 535.045 L 684.027, 539.989 L 484.658, 491.917 L 400.962, 459.143 z "/>
<path style="fill:rgb(228, 140, 40);fill-opacity:1.0;fill-rule:evenodd;stroke:rgb(0, 0, 0);stroke-width:3.0;" d="M 760.947, 526.844 L 726.376, 535.351 L 707.925, 536.305 L 759.328, 522.997 z "/>
<path style="fill:rgb(209, 2, 237);fill-opacity:1.0;fill-rule:evenodd;stroke:rgb(0, 0, 0);stroke-width:3.0;" d="M 316.453, 444.945 L 326.427, 448.126 L 323.541, 453.068 L 228.741, 430.209 z "/>
<path style="fill:rgb(209, 2, 237);fill-opacity:1.0;fill-rule:evenodd;stroke:rgb(0, 0, 0);stroke-width:3.0;" d="M 395.454, 458.217 L 388.925, 468.057 L 347.312, 454.786 L 345.814, 449.878 z "/>
<path style="fill:rgb(209, 2, 237);fill-opacity:1.0;fill-rule:evenodd;stroke:rgb(0, 0, 0);stroke-width:3.0;" d="M 764.197, 536.995 L 763.279, 546.877 L 754.016, 536.837 L 758.457, 527.456 L 759.314, 527.246 z "/>
<path style="fill:rgb(209, 2, 237);fill-opacity:1.0;fill-rule:evenodd;stroke:rgb(0, 0, 0);stroke-width:3.0;" d="M 254.625, 558.115 L 267.479, 573.91 L 269.18, 579.7 L 253.352, 575.994 L 252.7, 557.646 z "/>
<path style="fill:rgb(209, 2, 237);fill-opacity:1.0;fill-rule:evenodd;stroke:rgb(0, 0, 0);stroke-width:3.0;" d="M 34.9912, 504.557 L 42.0374, 514.623 L 15.154, 505.73 L 16.3461, 500.01 z "/>
<path style="fill:rgb(209, 2, 237);fill-opacity:1.0;fill-rule:evenodd;stroke:rgb(0, 0, 0);stroke-width:3.0;" d="M 549.34, 545.114 L 540.031, 540.784 L 574.204, 532.266 z "/>
<path style="fill:rgb(209, 2, 237);fill-opacity:1.0;fill-rule:evenodd;stroke:rgb(0, 0, 0);stroke-width:3.0;" d="M 765.603, 168.83 L 774.316, 521.867 L 706.295, 510.439 L 403.62, 339.312 L 366.582, 83.4054 L 512.203, 9.17734 z "/>
<path style="fill:rgb(255, 142, 16);fill-opacity:1.0;fill-rule:evenodd;stroke:rgb(0, 0, 0);stroke-width:3.0;" d="M 599.614, 43.9167 L 586.058, 36.4872 L 581.481, 25.1902 L 585.815, 23.0503 z "/>
<path style="fill:rgb(255, 142, 16);fill-opacity:1.0;fill-rule:evenodd;stroke:rgb(0, 0, 0);stroke-width:3.0;" d="M 779.185, 281.346 L 768.482, 285.48 L 767.345, 239.419 z "/>
<path style="fill:rgb(249, 108, 7);fill-opacity:1.0;fill-rule:evenodd;stroke:rgb(0, 0, 0);stroke-width:3.0;" d="M 314.247, 464.782 L 290.438, 473.652 L 265.185, 458.617 L 283.841, 457.842 z "/>
<path style="fill:rgb(249, 108, 7);fill-opacity:1.0;fill-rule:evenodd;stroke:rgb(0, 0, 0);stroke-width:3.0;" d="M 783.782, 207.848 L 776.8, 220.901 L 770.035, 216.358 L 776.799, 202.437 L 781.378, 201.348 z "/>
<path style="fill:rgb(71, 255, 189);fill-opacity:1.0;fill-rule:evenodd;stroke:rgb(0, 0, 0);stroke-width:3.0;" d="M 553.352, 18.5627 L 555.629, 19.8102 L 553.114, 28.8851 L 551.845, 31.6109 L 543.881, 29.136 L 524.546, 16.9541 z "/>
<path style="fill:rgb(194, 246, 62);fill-opacity:1.0;fill-rule:evenodd;stroke:rgb(0, 0, 0);stroke-width:3.0;" d="M 20.9967, 517.64 L 22.8344, 520.092 L 27.5902, 529.134 L 24.8886, 535.158 L 9.21318, 534.235 L 13.369, 514.294 z "/>
<path style="fill:rgb(194, 246, 62);fill-opacity:1.0;fill-rule:evenodd;stroke:rgb(0, 0, 0);stroke-width:3.0;" d="M 569.108, 522.95 L 569.341, 523.127 L 545.482, 527.343 L 545.481, 517.557 z "/>
<path style="fill:rgb(194, 246, 62);fill-opacity:1.0;fill-rule:evenodd;stroke:rgb(0, 0, 0);stroke-width:3.0;" d="M 35.1227, 512.336 L 28.3466, 527.447 L 14.483, 508.95 L 15.154, 505.73 z "/>
<path style="fill:rgb(189, 60, 231);fill-opacity:1.0;fill-rule:evenodd;stroke:rgb(0, 0, 0);stroke-width:3.0;" d="M 649.901, 591.882 L 563.556, 551.725 L 626.509, 539.887 z "/>
<path style="fill:rgb(231, 1, 20);fill-opacity:1.0;fill-rule:evenodd;stroke:rgb(0, 0, 0);stroke-width:3.0;" d="M 251.514, 76.7061 L 279.736, 127.674 L 270.392, 132.437 L 180.89, 79.1732 L 209.064, 54.4473 z "/>
<path style="fill:rgb(231, 1, 20);fill-opacity:1.0;fill-rule:evenodd;stroke:rgb(0, 0, 0);stroke-width:3.0;" d="M 237.123, 29.8219 L 230.231, 35.8705 L 201.474, 51.3314 L 203.68, 39.8631 L 234.66, 28.834 z "/>
<path style="fill:rgb(255, 23, 21);fill-opacity:1.0;fill-rule:evenodd;stroke:rgb(0, 0, 0);stroke-width:3.0;" d="M 556.949, 485.349 L 558.577, 495.648 L 485.396, 473.328 z "/>
<path style="fill:rgb(220, 172, 223);fill-opacity:1.0;fill-rule:evenodd;stroke:rgb(0, 0, 0);stroke-width:3.0;" d="M 466.794, 487.61 L 447.771, 495.256 L 307.213, 463.177 L 259.39, 450.814 L 251.384, 435.669 z "/>
<path style="fill:rgb(255, 1, 115);fill-opacity:1.0;fill-rule:evenodd;stroke:rgb(0, 0, 0);stroke-width:3.0;" d="M 283.865, 125.569 L 279.736, 127.674 L 258.734, 89.7453 z "/>
<path style="fill:rgb(255, 1, 115);fill-opacity:1.0;fill-rule:evenodd;stroke:rgb(0, 0, 0);stroke-width:3.0;" d="M 171.819, 537.923 L 160.523, 543.146 L 139.824, 542.02 L 151.581, 532.988 z "/>
<path style="fill:rgb(255, 1, 115);fill-opacity:1.0;fill-rule:evenodd;stroke:rgb(0, 0, 0);stroke-width:3.0;" d="M 108.694, 113.822 L 95.8951, 101.474 L 152.633, 65.8071 z "/>
<path style="fill:rgb(255, 1, 115);fill-opacity:1.0;fill-rule:evenodd;stroke:rgb(0, 0, 0);stroke-width:3.0;" d="M 380.033, 176.347 L 359.407, 204.302 L 264.32, 202.502 L 282.929, 126.046 L 366.582, 83.4054 z "/>
<path style="fill:rgb(255, 1, 115);fill-opacity:1.0;fill-rule:evenodd;stroke:rgb(0, 0, 0);stroke-width:3.0;" d="M 680.521, 40.5693 L 658.727, 64.9193 L 656.137, 37.4003 z "/>
<path style="fill:rgb(255, 7, 194);fill-opacity:1.0;fill-rule:evenodd;stroke:rgb(0, 0, 0);stroke-width:3.0;" d="M 680.521, 40.5693 L 656.137, 37.4003 L 655.617, 31.8803 L 701.192, 17.4739 z "/>
<path style="fill:rgb(255, 228, 26);fill-opacity:1.0;fill-rule:evenodd;stroke:rgb(0, 0, 0);stroke-width:3.0;" d="M 163.856, 405.069 L 164.343, 410.727 L 154.607, 414.404 L 153.194, 413.056 L 156.14, 399.083 z "/>
<path style="fill:rgb(255, 228, 26);fill-opacity:1.0;fill-rule:evenodd;stroke:rgb(0, 0, 0);stroke-width:3.0;" d="M 684.873, 114.245 L 682.935, 116.746 L 662.387, 103.8 L 660.314, 81.7762 L 664.527, 58.439 L 688.434, 31.7284 z "/>
<path style="fill:rgb(255, 228, 26);fill-opacity:1.0;fill-rule:evenodd;stroke:rgb(0, 0, 0);stroke-width:3.0;" d="M 640.44, 514.954 L 625.813, 516.155 L 623.566, 515.47 L 617.721, 504.891 L 618.446, 504.412 z "/>
<path style="fill:rgb(255, 228, 26);fill-opacity:1.0;fill-rule:evenodd;stroke:rgb(0, 0, 0);stroke-width:3.0;" d="M 513.767, 510.319 L 514.405, 510.464 L 502.121, 523.154 L 488.345, 516.747 L 491.482, 508.171 z "/>
<path style="fill:rgb(91, 88, 255);fill-opacity:1.0;fill-rule:evenodd;stroke:rgb(0, 0, 0);stroke-width:3.0;" d="M 783.268, 316.507 L 782.917, 333.707 L 771.886, 325.341 L 769.24, 316.191 L 769.146, 312.389 L 781.226, 305.461 z "/>
<path style="fill:rgb(40, 66, 184);fill-opacity:1.0;fill-rule:evenodd;stroke:rgb(0, 0, 0);stroke-width:3.0;" d="M 450.216, 478.43 L 438.766, 480.851 L 408.902, 473.65 L 408.741, 462.189 z "/>
<path style="fill:rgb(249, 24, 255);fill-opacity:1.0;fill-rule:evenodd;stroke:rgb(0, 0, 0);stroke-width:3.0;" d="M 454.381, 496.765 L 478.077, 509.904 L 477.147, 511.539 L 436.706, 492.731 z "/>
<path style="fill:rgb(252, 252, 126);fill-opacity:1.0;fill-rule:evenodd;stroke:rgb(0, 0, 0);stroke-width:3.0;" d="M 764.207, 112.252 L 737.111, 118.768 L 762.853, 57.4036 z "/>
<path style="fill:rgb(252, 252, 126);fill-opacity:1.0;fill-rule:evenodd;stroke:rgb(0, 0, 0);stroke-width:3.0;" d="M 253.506, 451.664 L 246.586, 484.707 L 230.451, 489.087 L 252.067, 450.807 z "/>
<path style="fill:rgb(252, 252, 126);fill-opacity:1.0;fill-rule:evenodd;stroke:rgb(0, 0, 0);stroke-width:3.0;" d="M 208.762, 565.554 L 208.346, 570.889 L 198.297, 583.394 L 194.923, 574.384 L 203.417, 564.303 z "/>
<path style="fill:rgb(255, 175, 194);fill-opacity:1.0;fill-rule:evenodd;stroke:rgb(0, 0, 0);stroke-width:3.0;" d="M 532.531, 514.601 L 536.364, 529.949 L 526.5, 534.492 L 502.121, 523.154 L 514.405, 510.464 z "/>
<path style="fill:rgb(81, 81, 234);fill-opacity:1.0;fill-rule:evenodd;stroke:rgb(0, 0, 0);stroke-width:3.0;" d="M 765.603, 168.83 L 747.464, 157.402 L 764.416, 120.712 z "/>
<path style="fill:rgb(81, 81, 234);fill-opacity:1.0;fill-rule:evenodd;stroke:rgb(0, 0, 0);stroke-width:3.0;" d="M 781.875, 22.0437 L 761.902, 18.878 L 761.832, 16.0267 L 769.652, 8.70595 z "/>
<path style="fill:rgb(165, 2, 47);fill-opacity:1.0;fill-rule:evenodd;stroke:rgb(0, 0, 0);stroke-width:3.0;" d="M 366.463, 453.347 L 196.693, 424.825 L 237.726, 369.213 L 365.385, 365.246 z "/>
<path style="fill:rgb(165, 2, 47);fill-opacity:1.0;fill-rule:evenodd;stroke:rgb(0, 0, 0);stroke-width:3.0;" d="M 618.158, 495.632 L 653.963, 514.71 L 663.021, 523.334 L 662.785, 525.664 L 590.397, 490.968 z "/>
<path style="fill:rgb(255, 175, 194);fill-opacity:1.0;fill-rule:evenodd;stroke:rgb(0, 0, 0);stroke-width:3.0;" d="M 200.973, 567.203 L 181.002, 590.906 L 154.734, 560.419 L 166.633, 555.842 z "/>
<path style="fill:rgb(255, 175, 194);fill-opacity:1.0;fill-rule:evenodd;stroke:rgb(0, 0, 0);stroke-width:3.0;" d="M 563.001, 510.807 L 568.75, 522.868 L 524.836, 512.845 L 540.776, 505.448 z "/>
<path style="fill:rgb(255, 175, 194);fill-opacity:1.0;fill-rule:evenodd;stroke:rgb(0, 0, 0);stroke-width:3.0;" d="M 764.416, 120.712 L 747.464, 157.402 L 726.456, 144.166 L 737.111, 118.768 L 764.207, 112.252 z "/>
<path style="fill:rgb(255, 175, 194);fill-opacity:1.0;fill-rule:evenodd;stroke:rgb(0, 0, 0);stroke-width:3.0;" d="M 590.397, 490.968 L 615.039, 502.779 L 595.907, 507.034 L 558.577, 495.648 L 556.949, 485.349 z "/>
<path style="fill:rgb(57, 30, 223);fill-opacity:1.0;fill-rule:evenodd;stroke:rgb(0, 0, 0);stroke-width:3.0;" d="M 185.289, 541.208 L 180.825, 560.537 L 153.384, 551.459 L 179.156, 539.712 z "/>
<path style="fill:rgb(57, 30, 223);fill-opacity:1.0;fill-rule:evenodd;stroke:rgb(0, 0, 0);stroke-width:3.0;" d="M 156.631, 100.463 L 154.321, 102.49 L 132.536, 87.7681 L 137.197, 82.6747 z "/>
<path style="fill:rgb(57, 30, 223);fill-opacity:1.0;fill-rule:evenodd;stroke:rgb(0, 0, 0);stroke-width:3.0;" d="M 650.916, 38.3845 L 639.313, 38.1486 L 643.188, 23.5509 L 651.076, 21.2759 z "/>
<path style="fill:rgb(246, 223, 14);fill-opacity:1.0;fill-rule:evenodd;stroke:rgb(0, 0, 0);stroke-width:3.0;" d="M 762.853, 57.4036 L 747.66, 93.6214 L 720.418, 68.3846 L 761.806, 14.9854 z "/>
<path style="fill:rgb(123, 255, 255);fill-opacity:1.0;fill-rule:evenodd;stroke:rgb(0, 0, 0);stroke-width:3.0;" d="M 359.407, 204.302 L 196.693, 424.825 L 187.28, 423.244 L 103.149, 357.967 L 29.7206, 255.116 L 137.642, 200.104 z "/>
<path style="fill:rgb(11, 246, 134);fill-opacity:1.0;fill-rule:evenodd;stroke:rgb(0, 0, 0);stroke-width:3.0;" d="M 760.612, 553.351 L 771.149, 560.466 L 770.83, 560.668 L 752.642, 557.641 L 746.19, 549.66 L 748.177, 547.25 z "/>
<path style="fill:rgb(11, 246, 134);fill-opacity:1.0;fill-rule:evenodd;stroke:rgb(0, 0, 0);stroke-width:3.0;" d="M 365.385, 365.246 L 237.726, 369.213 L 363.349, 198.959 z "/>
<path style="fill:rgb(8, 249, 255);fill-opacity:1.0;fill-rule:evenodd;stroke:rgb(0, 0, 0);stroke-width:3.0;" d="M 660.932, 88.3409 L 655.306, 99.3384 L 643.674, 92.0093 L 656.096, 81.0766 L 660.066, 79.1429 z "/>
<path style="fill:rgb(8, 249, 255);fill-opacity:1.0;fill-rule:evenodd;stroke:rgb(0, 0, 0);stroke-width:3.0;" d="M 518.681, 500.12 L 525.817, 512.39 L 524.836, 512.845 L 468.07, 499.889 L 513.601, 498.896 z "/>
<path style="fill:rgb(217, 50, 17);fill-opacity:1.0;fill-rule:evenodd;stroke:rgb(0, 0, 0);stroke-width:3.0;" d="M 23.4652, 538.333 L 20.8472, 544.171 L 7.12607, 544.249 L 8.85342, 535.961 z "/>
<path style="fill:rgb(197, 8, 46);fill-opacity:1.0;fill-rule:evenodd;stroke:rgb(0, 0, 0);stroke-width:3.0;" d="M 787.525, 105.715 L 792.269, 112.944 L 787.492, 117.528 L 774.487, 96.1011 z "/>
<path style="fill:rgb(255, 44, 246);fill-opacity:1.0;fill-rule:evenodd;stroke:rgb(0, 0, 0);stroke-width:3.0;" d="M 94.671, 532.036 L 64.1168, 555.703 L 43.6893, 515.17 z "/>
<path style="fill:rgb(255, 44, 246);fill-opacity:1.0;fill-rule:evenodd;stroke:rgb(0, 0, 0);stroke-width:3.0;" d="M 790.491, 35.9195 L 791.758, 48.2514 L 791.016, 49.1189 L 779.574, 46.3914 L 785.92, 33.8729 z "/>
<path style="fill:rgb(234, 215, 37);fill-opacity:1.0;fill-rule:evenodd;stroke:rgb(0, 0, 0);stroke-width:3.0;" d="M 186.714, 541.555 L 189.689, 551.494 L 187.817, 562.851 L 180.825, 560.537 L 185.289, 541.208 z "/>
<path style="fill:rgb(237, 189, 226);fill-opacity:1.0;fill-rule:evenodd;stroke:rgb(0, 0, 0);stroke-width:3.0;" d="M 125.193, 375.071 L 127.115, 388.177 L 99.0984, 361.45 L 99.0848, 354.814 z "/>
<path style="fill:rgb(78, 197, 255);fill-opacity:1.0;fill-rule:evenodd;stroke:rgb(0, 0, 0);stroke-width:3.0;" d="M 143.619, 389.367 L 142.714, 403.058 L 127.115, 388.177 L 125.193, 375.071 z "/>
<path style="fill:rgb(86, 255, 255);fill-opacity:1.0;fill-rule:evenodd;stroke:rgb(0, 0, 0);stroke-width:3.0;" d="M 729.965, 514.416 L 743.336, 527.137 L 742.395, 527.381 L 734.797, 524.781 L 722.439, 519.904 L 720.634, 517.91 L 721.107, 515.823 L 728.42, 514.156 z "/>
<path style="fill:rgb(226, 249, 255);fill-opacity:1.0;fill-rule:evenodd;stroke:rgb(0, 0, 0);stroke-width:3.0;" d="M 220.393, 157.923 L 43.6576, 248.012 L 6.01234, 237.793 L 8.8671, 230.143 L 127.208, 126.285 z "/>
<path style="fill:rgb(252, 21, 184);fill-opacity:1.0;fill-rule:evenodd;stroke:rgb(0, 0, 0);stroke-width:3.0;" d="M 346.193, 454.429 L 362.803, 459.867 L 363.708, 462.753 L 335.026, 455.837 L 335.241, 450.937 z "/>
<path style="fill:rgb(252, 21, 184);fill-opacity:1.0;fill-rule:evenodd;stroke:rgb(0, 0, 0);stroke-width:3.0;" d="M 771.291, 530.854 L 776.427, 542.574 L 772.319, 545.757 L 765.073, 548.822 L 763.279, 546.877 L 765.24, 525.787 L 765.544, 525.712 z "/>
<path style="fill:rgb(88, 252, 255);fill-opacity:1.0;fill-rule:evenodd;stroke:rgb(0, 0, 0);stroke-width:3.0;" d="M 545.481, 517.557 L 545.484, 539.425 L 540.031, 540.784 L 538.944, 540.279 L 532.531, 514.601 z "/>
<path style="fill:rgb(103, 179, 228);fill-opacity:1.0;fill-rule:evenodd;stroke:rgb(0, 0, 0);stroke-width:3.0;" d="M 201.9, 545.258 L 193.362, 562.957 L 188.094, 561.171 L 191.15, 542.637 z "/>
<path style="fill:rgb(252, 192, 10);fill-opacity:1.0;fill-rule:evenodd;stroke:rgb(0, 0, 0);stroke-width:3.0;" d="M 83.9362, 140.876 L 70.564, 155.489 L 77.9833, 113.69 z "/>
<path style="fill:rgb(252, 192, 10);fill-opacity:1.0;fill-rule:evenodd;stroke:rgb(0, 0, 0);stroke-width:3.0;" d="M 706.295, 510.439 L 658.895, 502.476 L 659.273, 483.854 z "/>
<path style="fill:rgb(252, 192, 10);fill-opacity:1.0;fill-rule:evenodd;stroke:rgb(0, 0, 0);stroke-width:3.0;" d="M 269.623, 86.2013 L 233.08, 67.0401 L 320.166, 64.6439 z "/>
<path style="fill:rgb(255, 69, 24);fill-opacity:1.0;fill-rule:evenodd;stroke:rgb(0, 0, 0);stroke-width:3.0;" d="M 69.5533, 161.183 L 66.2522, 179.781 L 43.1354, 200.069 L 45.2392, 155.354 z "/>
<path style="fill:rgb(246, 228, 51);fill-opacity:1.0;fill-rule:evenodd;stroke:rgb(0, 0, 0);stroke-width:3.0;" d="M 219.514, 59.9269 L 209.064, 54.4473 L 245.016, 22.8956 z "/>
<path style="fill:rgb(18, 243, 255);fill-opacity:1.0;fill-rule:evenodd;stroke:rgb(0, 0, 0);stroke-width:3.0;" d="M 488.579, 492.862 L 486.922, 499.478 L 468.07, 499.889 L 457.941, 497.578 L 464.346, 488.594 L 466.794, 487.61 z "/>
<path style="fill:rgb(18, 243, 255);fill-opacity:1.0;fill-rule:evenodd;stroke:rgb(0, 0, 0);stroke-width:3.0;" d="M 786.563, 22.7868 L 785.416, 26.5844 L 775.85, 29.3635 L 762.008, 23.1656 L 761.902, 18.878 z "/>
<path style="fill:rgb(255, 0, 10);fill-opacity:1.0;fill-rule:evenodd;stroke:rgb(0, 0, 0);stroke-width:3.0;" d="M 295.505, 568.084 L 306.705, 574.663 L 294.017, 585.514 L 272.898, 580.57 L 264.923, 570.77 L 267.768, 561.32 z "/>
<path style="fill:rgb(246, 2, 240);fill-opacity:1.0;fill-rule:evenodd;stroke:rgb(0, 0, 0);stroke-width:3.0;" d="M 697.945, 521.495 L 687.287, 528.799 L 662.915, 524.386 L 663.832, 515.326 L 702.618, 515.284 z "/>
<path style="fill:rgb(255, 255, 38);fill-opacity:1.0;fill-rule:evenodd;stroke:rgb(0, 0, 0);stroke-width:3.0;" d="M 630.53, 71.2322 L 627.688, 81.9378 L 611.62, 71.8144 L 628.35, 61.0147 z "/>
<path style="fill:rgb(255, 255, 38);fill-opacity:1.0;fill-rule:evenodd;stroke:rgb(0, 0, 0);stroke-width:3.0;" d="M 214.288, 427.781 L 226.373, 442.28 L 205.185, 436.802 L 192.266, 430.142 L 191.123, 423.889 z "/>
<path style="fill:rgb(217, 8, 79);fill-opacity:1.0;fill-rule:evenodd;stroke:rgb(0, 0, 0);stroke-width:3.0;" d="M 436.706, 492.731 L 450.134, 498.976 L 288.227, 503.786 L 284.3, 475.938 L 314.247, 464.782 z "/>
<path style="fill:rgb(217, 8, 79);fill-opacity:1.0;fill-rule:evenodd;stroke:rgb(0, 0, 0);stroke-width:3.0;" d="M 706.268, 510.434 L 702.618, 515.284 L 675.17, 515.314 L 667.568, 508.51 L 671.503, 504.594 z "/>
<path style="fill:rgb(255, 25, 56);fill-opacity:1.0;fill-rule:evenodd;stroke:rgb(0, 0, 0);stroke-width:3.0;" d="M 242.846, 13.7067 L 239.728, 21.6413 L 228.571, 21.5651 L 226.029, 10.4156 z "/>
<path style="fill:rgb(255, 25, 56);fill-opacity:1.0;fill-rule:evenodd;stroke:rgb(0, 0, 0);stroke-width:3.0;" d="M 80.1414, 101.532 L 46.9898, 118.144 L 49.2195, 70.7527 L 87.2652, 61.3975 z "/>
<path style="fill:rgb(243, 204, 42);fill-opacity:1.0;fill-rule:evenodd;stroke:rgb(0, 0, 0);stroke-width:3.0;" d="M 660.066, 79.1429 L 639.304, 89.2563 L 638.717, 88.8863 L 633.94, 71.0815 L 658.948, 67.267 z "/>
<path style="fill:rgb(240, 6, 89);fill-opacity:1.0;fill-rule:evenodd;stroke:rgb(0, 0, 0);stroke-width:3.0;" d="M 151.581, 532.988 L 135.317, 545.482 L 42.0374, 514.623 L 34.9912, 504.557 z "/>
<path style="fill:rgb(255, 29, 150);fill-opacity:1.0;fill-rule:evenodd;stroke:rgb(0, 0, 0);stroke-width:3.0;" d="M 589.059, 539.856 L 581.644, 548.324 L 563.556, 551.725 L 549.34, 545.114 L 572.705, 533.04 z "/>
<path style="fill:rgb(255, 29, 150);fill-opacity:1.0;fill-rule:evenodd;stroke:rgb(0, 0, 0);stroke-width:3.0;" d="M 388.52, 35.4901 L 355.519, 49.5655 L 373.995, 19.1663 L 390.357, 15.0421 z "/>
<path style="fill:rgb(138, 110, 255);fill-opacity:1.0;fill-rule:evenodd;stroke:rgb(0, 0, 0);stroke-width:3.0;" d="M 154.321, 102.49 L 66.2522, 179.781 L 70.564, 155.489 L 132.536, 87.7681 z "/>
<path style="fill:rgb(202, 33, 22);fill-opacity:1.0;fill-rule:evenodd;stroke:rgb(0, 0, 0);stroke-width:3.0;" d="M 52.4614, 157.086 L 45.2392, 155.354 L 46.9898, 118.144 L 79.0426, 102.082 z "/>
<path style="fill:rgb(202, 33, 22);fill-opacity:1.0;fill-rule:evenodd;stroke:rgb(0, 0, 0);stroke-width:3.0;" d="M 736.185, 120.975 L 726.456, 144.166 L 682.935, 116.746 L 715.777, 74.373 z "/>
<path style="fill:rgb(202, 33, 22);fill-opacity:1.0;fill-rule:evenodd;stroke:rgb(0, 0, 0);stroke-width:3.0;" d="M 580.582, 40.541 L 588.771, 55.2246 L 585.312, 55.239 L 543.881, 29.136 z "/>
<path style="fill:rgb(18, 207, 255);fill-opacity:1.0;fill-rule:evenodd;stroke:rgb(0, 0, 0);stroke-width:3.0;" d="M 610.311, 49.7795 L 620.01, 55.0949 L 588.771, 55.2246 L 580.582, 40.541 z "/>
<path style="fill:rgb(252, 189, 12);fill-opacity:1.0;fill-rule:evenodd;stroke:rgb(0, 0, 0);stroke-width:3.0;" d="M 250.056, 557.001 L 251.265, 573.291 L 242.054, 573.349 L 241.607, 573.244 L 231.224, 552.409 z "/>
<path style="fill:rgb(252, 189, 12);fill-opacity:1.0;fill-rule:evenodd;stroke:rgb(0, 0, 0);stroke-width:3.0;" d="M 230.561, 30.293 L 203.68, 39.8631 L 204.133, 37.5091 L 227.918, 18.6982 z "/>
<path style="fill:rgb(255, 19, 22);fill-opacity:1.0;fill-rule:evenodd;stroke:rgb(0, 0, 0);stroke-width:3.0;" d="M 252.176, 450.615 L 233.464, 483.751 L 227.025, 488.714 L 212.395, 494.716 L 247.29, 449.5 z "/>
<path style="fill:rgb(240, 37, 17);fill-opacity:1.0;fill-rule:evenodd;stroke:rgb(0, 0, 0);stroke-width:3.0;" d="M 216.469, 548.811 L 202.065, 565.907 L 196.491, 564.017 L 194.316, 561.578 L 204.003, 545.771 z "/>
<path style="fill:rgb(140, 24, 255);fill-opacity:1.0;fill-rule:evenodd;stroke:rgb(0, 0, 0);stroke-width:3.0;" d="M 561.372, 428.502 L 569.505, 487.458 L 421.461, 462.586 L 403.62, 339.312 z "/>
<path style="fill:rgb(252, 20, 25);fill-opacity:1.0;fill-rule:evenodd;stroke:rgb(0, 0, 0);stroke-width:3.0;" d="M 136.775, 545.964 L 106.985, 589.604 L 73.1408, 573.608 L 64.1168, 555.703 L 94.671, 532.036 z "/>
<path style="fill:rgb(9, 4, 215);fill-opacity:1.0;fill-rule:evenodd;stroke:rgb(0, 0, 0);stroke-width:3.0;" d="M 293.218, 98.5732 L 290.891, 121.988 L 283.865, 125.569 L 258.734, 89.7453 L 251.514, 76.7061 z "/>
<path style="fill:rgb(9, 4, 215);fill-opacity:1.0;fill-rule:evenodd;stroke:rgb(0, 0, 0);stroke-width:3.0;" d="M 314.714, 109.844 L 290.891, 121.988 L 293.218, 98.5732 z "/>
<path style="fill:rgb(231, 255, 74);fill-opacity:1.0;fill-rule:evenodd;stroke:rgb(0, 0, 0);stroke-width:3.0;" d="M 780.639, 382.464 L 782.846, 387.331 L 778.205, 395.129 L 773.352, 388.759 L 770.752, 377.462 L 770.475, 366.239 z "/>
<path style="fill:rgb(255, 255, 49);fill-opacity:1.0;fill-rule:evenodd;stroke:rgb(0, 0, 0);stroke-width:3.0;" d="M 594.268, 533.039 L 619.294, 541.244 L 598.285, 545.194 L 594.013, 541.938 L 591.535, 532.562 z "/>
<path style="fill:rgb(255, 59, 13);fill-opacity:1.0;fill-rule:evenodd;stroke:rgb(0, 0, 0);stroke-width:3.0;" d="M 629.48, 60.2853 L 611.62, 71.8144 L 586.543, 56.0148 L 594.305, 55.2017 L 620.01, 55.0949 z "/>
<path style="fill:rgb(255, 255, 74);fill-opacity:1.0;fill-rule:evenodd;stroke:rgb(0, 0, 0);stroke-width:3.0;" d="M 270.392, 132.437 L 220.393, 157.923 L 127.208, 126.285 L 180.89, 79.1732 z "/>
<path style="fill:rgb(255, 177, 82);fill-opacity:1.0;fill-rule:evenodd;stroke:rgb(0, 0, 0);stroke-width:3.0;" d="M 290.438, 473.652 L 225.508, 497.841 L 230.451, 489.087 L 289.459, 473.069 z "/>
<path style="fill:rgb(255, 177, 82);fill-opacity:1.0;fill-rule:evenodd;stroke:rgb(0, 0, 0);stroke-width:3.0;" d="M 597.787, 519.195 L 606.65, 522.132 L 605.68, 531.296 L 568.75, 522.868 L 563.001, 510.807 z "/>
<path style="fill:rgb(231, 14, 34);fill-opacity:1.0;fill-rule:evenodd;stroke:rgb(0, 0, 0);stroke-width:3.0;" d="M 747.66, 93.6214 L 736.185, 120.975 L 715.777, 74.373 L 720.418, 68.3846 z "/>
<path style="fill:rgb(74, 228, 212);fill-opacity:1.0;fill-rule:evenodd;stroke:rgb(0, 0, 0);stroke-width:3.0;" d="M 790.068, 423.098 L 794.317, 431.463 L 784.175, 435.545 L 784.09, 435.412 L 779.64, 416.079 z "/>
<path style="fill:rgb(168, 207, 255);fill-opacity:1.0;fill-rule:evenodd;stroke:rgb(0, 0, 0);stroke-width:3.0;" d="M 289.459, 473.069 L 246.586, 484.707 L 253.506, 451.664 z "/>
<path style="fill:rgb(223, 21, 240);fill-opacity:1.0;fill-rule:evenodd;stroke:rgb(0, 0, 0);stroke-width:3.0;" d="M 108.694, 113.822 L 83.9362, 140.876 L 77.9833, 113.69 L 78.1743, 112.614 L 95.8951, 101.474 z "/>
<path style="fill:rgb(255, 19, 21);fill-opacity:1.0;fill-rule:evenodd;stroke:rgb(0, 0, 0);stroke-width:3.0;" d="M 199.211, 63.0947 L 168.072, 90.4222 L 154.946, 63.2798 L 160.258, 57.4749 L 200.648, 55.6235 z "/>
<path style="fill:rgb(117, 209, 255);fill-opacity:1.0;fill-rule:evenodd;stroke:rgb(0, 0, 0);stroke-width:3.0;" d="M 264.32, 202.502 L 137.642, 200.104 L 282.929, 126.046 z "/>
<path style="fill:rgb(175, 249, 255);fill-opacity:1.0;fill-rule:evenodd;stroke:rgb(0, 0, 0);stroke-width:3.0;" d="M 611.109, 532.536 L 611.838, 536.106 L 581.934, 530.885 L 571.095, 523.403 z "/>
<path style="fill:rgb(209, 22, 189);fill-opacity:1.0;fill-rule:evenodd;stroke:rgb(0, 0, 0);stroke-width:3.0;" d="M 166.479, 87.1267 L 168.072, 90.4222 L 156.631, 100.463 L 137.197, 82.6747 L 139.649, 79.9952 z "/>
<path style="fill:rgb(252, 24, 82);fill-opacity:1.0;fill-rule:evenodd;stroke:rgb(0, 0, 0);stroke-width:3.0;" d="M 789.997, 121.656 L 764.684, 131.6 L 763.445, 81.3689 L 764.673, 79.9317 z "/>
<path style="fill:rgb(252, 24, 82);fill-opacity:1.0;fill-rule:evenodd;stroke:rgb(0, 0, 0);stroke-width:3.0;" d="M 166.479, 87.1267 L 139.649, 79.9952 L 154.946, 63.2798 z "/>
<path style="fill:rgb(56, 255, 204);fill-opacity:1.0;fill-rule:evenodd;stroke:rgb(0, 0, 0);stroke-width:3.0;" d="M 104.991, 95.7566 L 78.1743, 112.614 L 90.3656, 43.9305 L 144.352, 40.1398 z "/>
<path style="fill:rgb(123, 255, 65);fill-opacity:1.0;fill-rule:evenodd;stroke:rgb(0, 0, 0);stroke-width:3.0;" d="M 399.553, 311.213 L 421.461, 462.586 L 366.463, 453.347 L 363.551, 215.422 z "/>
<path style="fill:rgb(255, 71, 255);fill-opacity:1.0;fill-rule:evenodd;stroke:rgb(0, 0, 0);stroke-width:3.0;" d="M 103.149, 357.967 L 24.5101, 296.953 L 41.8278, 272.074 z "/>
<path style="fill:rgb(255, 223, 27);fill-opacity:1.0;fill-rule:evenodd;stroke:rgb(0, 0, 0);stroke-width:3.0;" d="M 659.273, 483.854 L 658.895, 502.476 L 569.505, 487.458 L 561.372, 428.502 z "/>
<path style="fill:rgb(49, 170, 246);fill-opacity:1.0;fill-rule:evenodd;stroke:rgb(0, 0, 0);stroke-width:3.0;" d="M 71.8918, 148.008 L 69.5533, 161.183 L 52.4614, 157.086 L 59.1797, 143.184 z "/>
<path style="fill:rgb(10, 64, 255);fill-opacity:1.0;fill-rule:evenodd;stroke:rgb(0, 0, 0);stroke-width:3.0;" d="M 71.8918, 148.008 L 59.1797, 143.184 L 79.0426, 102.082 L 80.1414, 101.532 z "/>
<path style="fill:rgb(187, 98, 255);fill-opacity:1.0;fill-rule:evenodd;stroke:rgb(0, 0, 0);stroke-width:3.0;" d="M 662.785, 525.664 L 662.612, 527.378 L 625.813, 516.155 L 640.44, 514.954 z "/>
<path style="fill:rgb(255, 215, 37);fill-opacity:1.0;fill-rule:evenodd;stroke:rgb(0, 0, 0);stroke-width:3.0;" d="M 128.498, 413.368 L 72.0659, 403.888 L 72.4081, 359.35 z "/>
<path style="fill:rgb(228, 2, 255);fill-opacity:1.0;fill-rule:evenodd;stroke:rgb(0, 0, 0);stroke-width:3.0;" d="M 158.87, 418.471 L 128.498, 413.368 L 72.4081, 359.35 L 72.5863, 336.159 z "/>
<path style="fill:rgb(255, 255, 10);fill-opacity:1.0;fill-rule:evenodd;stroke:rgb(0, 0, 0);stroke-width:3.0;" d="M 573.93, 526.626 L 565.782, 534.365 L 545.484, 539.425 L 545.482, 527.343 L 569.341, 523.127 z "/>
</svg>