<?xml version="1.0" encoding="iso-8859-1" standalone="no"?>
<!DOCTYPE svg PUBLIC "-//W3C//DTD SVG 1.0//EN" "http://www.w3.org/TR/2001/REC-SVG-20010904/DTD/svg10.dtd">
<svg xmlns="http://www.w3.org/2000/svg" width="800" height="600">
<path style="fill:rgb(0, 0, 0);fill-opacity:0.0;fill-rule:evenodd;stroke:rgb(0, 0, 0);stroke-width:0.0;" d="M 0, 600 L 800, 600 L 800, 0 L 0, 0 z "/>
<path style="fill:rgb(217, 215, 35);fill-opacity:1.0;fill-rule:evenodd;stroke:rgb(0, 0, 0);stroke-width:3.0;" d="M 614.653, 444.133 L 609.443, 452.789 L 598.124, 464.53 L 607.821, 431.069 z "/>
<path style="fill:rgb(217, 215, 35);fill-opacity:1.0;fill-rule:evenodd;stroke:rgb(0, 0, 0);stroke-width:3.0;" d="M 581.907, 371.671 L 578.552, 370.944 L 582.702, 340.052 L 600.38, 321.371 z "/>
<path style="fill:rgb(217, 215, 35);fill-opacity:1.0;fill-rule:evenodd;stroke:rgb(0, 0, 0);stroke-width:3.0;" d="M 624.698, 330.924 L 625.75, 342.341 L 616.35, 379.134 L 590.57, 373.548 L 621.262, 328.187 z "/>
<path style="fill:rgb(217, 215, 35);fill-opacity:1.0;fill-rule:evenodd;stroke:rgb(0, 0, 0);stroke-width:3.0;" d="M 181.511, 279.659 L 189.833, 296.403 L 181.828, 306.937 L 174.724, 301.427 L 152.553, 271.91 L 157.674, 266.994 z "/>
<path style="fill:rgb(217, 215, 35);fill-opacity:1.0;fill-rule:evenodd;stroke:rgb(0, 0, 0);stroke-width:3.0;" d="M 134.551, 334.172 L 98.3224, 335.196 L 94.6697, 333.667 L 80.8293, 306.088 L 95.5728, 294.762 z "/>
<path style="fill:rgb(217, 215, 35);fill-opacity:1.0;fill-rule:evenodd;stroke:rgb(0, 0, 0);stroke-width:3.0;" d="M 257.098, 160.163 L 298.237, 297.77 L 291.628, 301.542 L 280.324, 289.509 L 240.736, 153.196 z "/>
<path style="fill:rgb(255, 243, 16);fill-opacity:1.0;fill-rule:evenodd;stroke:rgb(0, 0, 0);stroke-width:3.0;" d="M 115.833, 342.529 L 68.7933, 342.155 L 57.898, 323.704 L 62.4766, 320.186 z "/>
<path style="fill:rgb(255, 243, 16);fill-opacity:1.0;fill-rule:evenodd;stroke:rgb(0, 0, 0);stroke-width:3.0;" d="M 211.47, 216.219 L 202.068, 216.97 L 181.598, 188.112 L 183.444, 186.388 z "/>
<path style="fill:rgb(255, 243, 16);fill-opacity:1.0;fill-rule:evenodd;stroke:rgb(0, 0, 0);stroke-width:3.0;" d="M 270.236, 254.773 L 269.49, 260.274 L 258.424, 256.285 L 261.168, 249.816 L 267.166, 244.203 z "/>
<path style="fill:rgb(255, 243, 16);fill-opacity:1.0;fill-rule:evenodd;stroke:rgb(0, 0, 0);stroke-width:3.0;" d="M 144.036, 144.441 L 157.929, 159.23 L 86.2737, 125.784 L 82.5274, 92.29 z "/>
<path style="fill:rgb(255, 234, 130);fill-opacity:1.0;fill-rule:evenodd;stroke:rgb(0, 0, 0);stroke-width:3.0;" d="M 352.987, 493.279 L 317.367, 544.151 L 292.963, 532.747 L 267.312, 456.326 z "/>
<path style="fill:rgb(28, 246, 168);fill-opacity:1.0;fill-rule:evenodd;stroke:rgb(0, 0, 0);stroke-width:3.0;" d="M 233.423, 541.436 L 239.8, 546.301 L 235.115, 556.078 L 232.132, 556.403 L 229.69, 553.25 L 229.57, 540.64 z "/>
<path style="fill:rgb(28, 246, 168);fill-opacity:1.0;fill-rule:evenodd;stroke:rgb(0, 0, 0);stroke-width:3.0;" d="M 633.55, 426.957 L 624.463, 439.616 L 617.276, 375.51 L 625.75, 342.341 z "/>
<path style="fill:rgb(237, 17, 94);fill-opacity:1.0;fill-rule:evenodd;stroke:rgb(0, 0, 0);stroke-width:3.0;" d="M 410.43, 443.312 L 328.419, 420.623 L 325.227, 418.147 L 375.968, 317.856 z "/>
<path style="fill:rgb(237, 17, 94);fill-opacity:1.0;fill-rule:evenodd;stroke:rgb(0, 0, 0);stroke-width:3.0;" d="M 119.945, 495.267 L 124.776, 503.447 L 117.673, 515.455 L 107.682, 522.25 L 79.7109, 513.805 L 77.5636, 507.147 L 117.398, 493.533 z "/>
<path style="fill:rgb(237, 17, 94);fill-opacity:1.0;fill-rule:evenodd;stroke:rgb(0, 0, 0);stroke-width:3.0;" d="M 150.308, 446.851 L 136.526, 456.864 L 128.728, 443.658 z "/>
<path style="fill:rgb(237, 17, 94);fill-opacity:1.0;fill-rule:evenodd;stroke:rgb(0, 0, 0);stroke-width:3.0;" d="M 579.468, 297.436 L 539.298, 417.42 L 528.173, 400.409 L 521.844, 285.329 L 542.656, 281.761 z "/>
<path style="fill:rgb(243, 228, 24);fill-opacity:1.0;fill-rule:evenodd;stroke:rgb(0, 0, 0);stroke-width:3.0;" d="M 94.9345, 478.244 L 94.7287, 480.293 L 74.564, 475.556 L 69.2747, 460.779 z "/>
<path style="fill:rgb(243, 228, 24);fill-opacity:1.0;fill-rule:evenodd;stroke:rgb(0, 0, 0);stroke-width:3.0;" d="M 565.775, 457.904 L 596.839, 505.402 L 513.109, 497.876 L 462.482, 452.25 z "/>
<path style="fill:rgb(243, 228, 24);fill-opacity:1.0;fill-rule:evenodd;stroke:rgb(0, 0, 0);stroke-width:3.0;" d="M 131.888, 449.009 L 185.581, 539.942 L 120.877, 495.902 L 46.2915, 425.007 z "/>
<path style="fill:rgb(16, 64, 255);fill-opacity:1.0;fill-rule:evenodd;stroke:rgb(0, 0, 0);stroke-width:3.0;" d="M 623.059, 427.092 L 623.272, 428.994 L 610.897, 436.951 L 604.636, 424.98 L 607.361, 414.315 z "/>
<path style="fill:rgb(16, 64, 255);fill-opacity:1.0;fill-rule:evenodd;stroke:rgb(0, 0, 0);stroke-width:3.0;" d="M 419.727, 568.349 L 417.445, 570.515 L 384.704, 571.131 L 386.674, 562.022 z "/>
<path style="fill:rgb(16, 64, 255);fill-opacity:1.0;fill-rule:evenodd;stroke:rgb(0, 0, 0);stroke-width:3.0;" d="M 424.514, 569.266 L 434.048, 586.474 L 431.177, 587.214 L 408.304, 579.191 L 419.727, 568.349 z "/>
<path style="fill:rgb(16, 64, 255);fill-opacity:1.0;fill-rule:evenodd;stroke:rgb(0, 0, 0);stroke-width:3.0;" d="M 41.9877, 498.67 L 48.2835, 507.327 L 50.9056, 516.257 L 42.4554, 519.145 L 38.2657, 498.566 z "/>
<path style="fill:rgb(16, 64, 255);fill-opacity:1.0;fill-rule:evenodd;stroke:rgb(0, 0, 0);stroke-width:3.0;" d="M 309.583, 540.513 L 307.711, 551.423 L 307.445, 551.66 L 299.685, 552.774 L 292.963, 532.747 z "/>
<path style="fill:rgb(16, 64, 255);fill-opacity:1.0;fill-rule:evenodd;stroke:rgb(0, 0, 0);stroke-width:3.0;" d="M 169.273, 171.304 L 190.215, 217.916 L 188.421, 218.059 L 175.338, 193.856 L 163.489, 169.475 L 164.804, 166.548 z "/>
<path style="fill:rgb(16, 64, 255);fill-opacity:1.0;fill-rule:evenodd;stroke:rgb(0, 0, 0);stroke-width:3.0;" d="M 427.87, 232.882 L 429.885, 301.095 L 408.65, 304.736 L 422.425, 238.866 L 426.371, 232.244 z "/>
<path style="fill:rgb(255, 62, 21);fill-opacity:1.0;fill-rule:evenodd;stroke:rgb(0, 0, 0);stroke-width:3.0;" d="M 387.029, 298.272 L 385.069, 301.562 L 377.996, 309.992 L 348.879, 314.984 L 365.319, 287.104 z "/>
<path style="fill:rgb(255, 62, 21);fill-opacity:1.0;fill-rule:evenodd;stroke:rgb(0, 0, 0);stroke-width:3.0;" d="M 105.611, 234.165 L 90.9926, 232.333 L 87.9632, 226.078 L 103.074, 224.872 z "/>
<path style="fill:rgb(255, 62, 21);fill-opacity:1.0;fill-rule:evenodd;stroke:rgb(0, 0, 0);stroke-width:3.0;" d="M 425.193, 524.424 L 403.276, 565.2 L 401.479, 564.856 L 396.114, 537.383 L 414.217, 519.689 z "/>
<path style="fill:rgb(255, 62, 21);fill-opacity:1.0;fill-rule:evenodd;stroke:rgb(0, 0, 0);stroke-width:3.0;" d="M 310.447, 321.573 L 294.746, 324.265 L 267.15, 322.246 L 266.568, 318.056 L 305.744, 316.566 z "/>
<path style="fill:rgb(255, 62, 21);fill-opacity:1.0;fill-rule:evenodd;stroke:rgb(0, 0, 0);stroke-width:3.0;" d="M 203.372, 323.645 L 181.828, 306.937 L 189.833, 296.403 z "/>
<path style="fill:rgb(255, 62, 21);fill-opacity:1.0;fill-rule:evenodd;stroke:rgb(0, 0, 0);stroke-width:3.0;" d="M 259.111, 569.085 L 258.781, 574.918 L 253.638, 577.609 L 231.692, 563.631 z "/>
<path style="fill:rgb(255, 62, 21);fill-opacity:1.0;fill-rule:evenodd;stroke:rgb(0, 0, 0);stroke-width:3.0;" d="M 551.356, 435.858 L 401.418, 410.504 L 373.996, 310.677 L 459.859, 295.956 z "/>
<path style="fill:rgb(215, 7, 25);fill-opacity:1.0;fill-rule:evenodd;stroke:rgb(0, 0, 0);stroke-width:3.0;" d="M 336.323, 396.216 L 325.227, 418.147 L 220.57, 336.982 L 341.325, 316.279 z "/>
<path style="fill:rgb(21, 223, 255);fill-opacity:1.0;fill-rule:evenodd;stroke:rgb(0, 0, 0);stroke-width:3.0;" d="M 36.2195, 496.952 L 40.1446, 507.795 L 42.4554, 519.145 L 40.5128, 519.809 L 26.6628, 494.836 z "/>
<path style="fill:rgb(21, 223, 255);fill-opacity:1.0;fill-rule:evenodd;stroke:rgb(0, 0, 0);stroke-width:3.0;" d="M 638.041, 322.378 L 639.64, 324.677 L 624.823, 332.274 L 623.333, 316.115 z "/>
<path style="fill:rgb(255, 187, 57);fill-opacity:1.0;fill-rule:evenodd;stroke:rgb(0, 0, 0);stroke-width:3.0;" d="M 24.6646, 320.446 L 35.9142, 336.334 L 18.0802, 338.563 L 12.1477, 317.246 z "/>
<path style="fill:rgb(255, 7, 21);fill-opacity:1.0;fill-rule:evenodd;stroke:rgb(0, 0, 0);stroke-width:3.0;" d="M 508.72, 560.451 L 551.406, 593.556 L 488.321, 581.48 L 442.958, 532.086 z "/>
<path style="fill:rgb(255, 47, 255);fill-opacity:1.0;fill-rule:evenodd;stroke:rgb(0, 0, 0);stroke-width:3.0;" d="M 721.285, 358.108 L 708.174, 368.262 L 693.037, 353.936 z "/>
<path style="fill:rgb(255, 47, 255);fill-opacity:1.0;fill-rule:evenodd;stroke:rgb(0, 0, 0);stroke-width:3.0;" d="M 18.2985, 226.685 L 7.75987, 238.792 L 5.04882, 234.2 L 11.745, 221.368 z "/>
<path style="fill:rgb(255, 47, 255);fill-opacity:1.0;fill-rule:evenodd;stroke:rgb(0, 0, 0);stroke-width:3.0;" d="M 623.059, 427.092 L 607.361, 414.315 L 617.276, 375.51 z "/>
<path style="fill:rgb(243, 6, 7);fill-opacity:1.0;fill-rule:evenodd;stroke:rgb(0, 0, 0);stroke-width:3.0;" d="M 237.382, 461.303 L 149.81, 437.198 L 110.439, 412.684 L 101.017, 396.729 z "/>
<path style="fill:rgb(243, 6, 7);fill-opacity:1.0;fill-rule:evenodd;stroke:rgb(0, 0, 0);stroke-width:3.0;" d="M 260.104, 585.272 L 251.901, 585.731 L 247.398, 580.875 L 264.712, 571.814 z "/>
<path style="fill:rgb(243, 6, 7);fill-opacity:1.0;fill-rule:evenodd;stroke:rgb(0, 0, 0);stroke-width:3.0;" d="M 412.73, 574.99 L 411.193, 576.449 L 381.694, 585.051 L 384.339, 572.819 L 406.898, 571.898 z "/>
<path style="fill:rgb(243, 6, 7);fill-opacity:1.0;fill-rule:evenodd;stroke:rgb(0, 0, 0);stroke-width:3.0;" d="M 634.28, 434.868 L 632.157, 453.988 L 625.131, 438.686 L 633.55, 426.957 z "/>
<path style="fill:rgb(249, 39, 168);fill-opacity:1.0;fill-rule:evenodd;stroke:rgb(0, 0, 0);stroke-width:3.0;" d="M 410.43, 443.312 L 413.695, 455.198 L 378.403, 437.537 L 377.517, 434.206 z "/>
<path style="fill:rgb(249, 39, 168);fill-opacity:1.0;fill-rule:evenodd;stroke:rgb(0, 0, 0);stroke-width:3.0;" d="M 543.03, 261.003 L 552.074, 285.771 L 486.682, 257.926 L 491.779, 251.194 z "/>
<path style="fill:rgb(14, 128, 217);fill-opacity:1.0;fill-rule:evenodd;stroke:rgb(0, 0, 0);stroke-width:3.0;" d="M 82.5414, 477.43 L 110.929, 495.744 L 101.772, 498.873 L 67.2821, 473.845 z "/>
<path style="fill:rgb(37, 255, 226);fill-opacity:1.0;fill-rule:evenodd;stroke:rgb(0, 0, 0);stroke-width:3.0;" d="M 97.4804, 495.759 L 100.349, 499.36 L 50.9056, 516.257 L 30.6464, 447.259 z "/>
<path style="fill:rgb(37, 255, 226);fill-opacity:1.0;fill-rule:evenodd;stroke:rgb(0, 0, 0);stroke-width:3.0;" d="M 218.055, 242.173 L 217.455, 251.977 L 184.194, 239.703 L 182.387, 236.061 L 197.101, 221.768 z "/>
<path style="fill:rgb(37, 255, 226);fill-opacity:1.0;fill-rule:evenodd;stroke:rgb(0, 0, 0);stroke-width:3.0;" d="M 365.319, 287.104 L 353.702, 306.805 L 352.04, 302.177 L 356.863, 285.931 L 360.511, 284.631 z "/>
<path style="fill:rgb(37, 255, 226);fill-opacity:1.0;fill-rule:evenodd;stroke:rgb(0, 0, 0);stroke-width:3.0;" d="M 272.605, 563.836 L 270.975, 567.52 L 251.874, 550.249 L 253.282, 543.505 L 261.142, 543.404 z "/>
<path style="fill:rgb(37, 255, 226);fill-opacity:1.0;fill-rule:evenodd;stroke:rgb(0, 0, 0);stroke-width:3.0;" d="M 139.969, 172.394 L 129.021, 222.801 L 120.806, 223.456 L 5.35498, 129.336 z "/>
<path style="fill:rgb(37, 255, 226);fill-opacity:1.0;fill-rule:evenodd;stroke:rgb(0, 0, 0);stroke-width:3.0;" d="M 576.621, 336.208 L 565.189, 383.105 L 564.846, 341.11 L 568.105, 331.375 z "/>
<path style="fill:rgb(37, 255, 226);fill-opacity:1.0;fill-rule:evenodd;stroke:rgb(0, 0, 0);stroke-width:3.0;" d="M 57.2544, 328.778 L 59.6774, 333.364 L 38.5655, 336.003 L 40.4017, 330.161 L 51.8612, 327.399 z "/>
<path style="fill:rgb(37, 255, 226);fill-opacity:1.0;fill-rule:evenodd;stroke:rgb(0, 0, 0);stroke-width:3.0;" d="M 356.14, 357.046 L 336.323, 396.216 L 339.952, 338.22 L 340.405, 336.167 L 353.133, 314.254 L 370.083, 311.348 z "/>
<path style="fill:rgb(37, 255, 226);fill-opacity:1.0;fill-rule:evenodd;stroke:rgb(0, 0, 0);stroke-width:3.0;" d="M 58.6131, 324.915 L 45.968, 322.364 L 43.6577, 312.778 L 49.5264, 309.526 z "/>
<path style="fill:rgb(37, 255, 226);fill-opacity:1.0;fill-rule:evenodd;stroke:rgb(0, 0, 0);stroke-width:3.0;" d="M 156.18, 158.413 L 168.705, 181.585 L 125.271, 167.692 L 127.909, 145.217 z "/>
<path style="fill:rgb(37, 255, 226);fill-opacity:1.0;fill-rule:evenodd;stroke:rgb(0, 0, 0);stroke-width:3.0;" d="M 336.194, 582.117 L 335.12, 582.988 L 321.497, 575.313 L 326.168, 567.052 L 332.48, 566.297 z "/>
<path style="fill:rgb(37, 255, 226);fill-opacity:1.0;fill-rule:evenodd;stroke:rgb(0, 0, 0);stroke-width:3.0;" d="M 84.1057, 283.168 L 20.9897, 238.059 L 15.4521, 232.917 L 22.7224, 221.106 z "/>
<path style="fill:rgb(255, 255, 28);fill-opacity:1.0;fill-rule:evenodd;stroke:rgb(0, 0, 0);stroke-width:3.0;" d="M 250.381, 524.224 L 241.348, 543.072 L 205.475, 535.665 L 196.099, 525.554 L 247.673, 519.397 z "/>
<path style="fill:rgb(226, 209, 33);fill-opacity:1.0;fill-rule:evenodd;stroke:rgb(0, 0, 0);stroke-width:3.0;" d="M 403.143, 525.383 L 403.103, 525.893 L 394.54, 529.117 L 387.699, 524.45 L 393.86, 513.735 z "/>
<path style="fill:rgb(226, 209, 33);fill-opacity:1.0;fill-rule:evenodd;stroke:rgb(0, 0, 0);stroke-width:3.0;" d="M 453.11, 243.63 L 439.311, 299.479 L 430.42, 301.004 L 434.689, 235.786 z "/>
<path style="fill:rgb(237, 192, 8);fill-opacity:1.0;fill-rule:evenodd;stroke:rgb(0, 0, 0);stroke-width:3.0;" d="M 639.516, 491.669 L 647.991, 583.615 L 587.67, 491.383 L 588.744, 487.18 L 598.548, 470.891 L 625.63, 465.121 z "/>
<path style="fill:rgb(237, 192, 8);fill-opacity:1.0;fill-rule:evenodd;stroke:rgb(0, 0, 0);stroke-width:3.0;" d="M 508.72, 560.451 L 246.482, 447.341 L 197.251, 397.566 L 237.405, 350.038 z "/>
<path style="fill:rgb(237, 192, 8);fill-opacity:1.0;fill-rule:evenodd;stroke:rgb(0, 0, 0);stroke-width:3.0;" d="M 305.744, 316.566 L 300.111, 316.78 L 284.667, 314.717 L 273.495, 299.315 L 282.215, 291.522 z "/>
<path style="fill:rgb(237, 192, 8);fill-opacity:1.0;fill-rule:evenodd;stroke:rgb(0, 0, 0);stroke-width:3.0;" d="M 621.262, 328.187 L 603.689, 354.159 L 607.003, 316.827 z "/>
<path style="fill:rgb(237, 192, 8);fill-opacity:1.0;fill-rule:evenodd;stroke:rgb(0, 0, 0);stroke-width:3.0;" d="M 717.513, 377.101 L 695.288, 373.588 L 695.38, 356.154 z "/>
<path style="fill:rgb(69, 255, 240);fill-opacity:1.0;fill-rule:evenodd;stroke:rgb(0, 0, 0);stroke-width:3.0;" d="M 127.714, 236.935 L 127.436, 253.372 L 87.1943, 231.857 z "/>
<path style="fill:rgb(255, 243, 6);fill-opacity:1.0;fill-rule:evenodd;stroke:rgb(0, 0, 0);stroke-width:3.0;" d="M 169.581, 230.576 L 143.127, 249.316 L 155.501, 225.349 z "/>
<path style="fill:rgb(255, 243, 6);fill-opacity:1.0;fill-rule:evenodd;stroke:rgb(0, 0, 0);stroke-width:3.0;" d="M 197.492, 397.809 L 205.89, 406.3 L 199.33, 427.003 L 159.7, 409.91 L 175.062, 396.539 z "/>
<path style="fill:rgb(255, 243, 6);fill-opacity:1.0;fill-rule:evenodd;stroke:rgb(0, 0, 0);stroke-width:3.0;" d="M 30.8193, 447.848 L 11.8179, 451.297 L 18.4405, 435.143 L 18.8884, 434.795 L 26.2246, 432.2 z "/>
<path style="fill:rgb(255, 243, 6);fill-opacity:1.0;fill-rule:evenodd;stroke:rgb(0, 0, 0);stroke-width:3.0;" d="M 528.173, 400.409 L 490.113, 342.215 L 510.508, 287.273 L 521.844, 285.329 z "/>
<path style="fill:rgb(255, 17, 72);fill-opacity:1.0;fill-rule:evenodd;stroke:rgb(0, 0, 0);stroke-width:3.0;" d="M 59.9569, 454.437 L 63.1876, 470.874 L 30.6464, 447.259 L 29.9693, 444.953 L 34.1985, 436.904 z "/>
<path style="fill:rgb(255, 17, 72);fill-opacity:1.0;fill-rule:evenodd;stroke:rgb(0, 0, 0);stroke-width:3.0;" d="M 410.391, 259.062 L 398.409, 279.172 L 366.006, 255.131 L 371.216, 237.58 L 371.656, 237.225 z "/>
<path style="fill:rgb(255, 17, 72);fill-opacity:1.0;fill-rule:evenodd;stroke:rgb(0, 0, 0);stroke-width:3.0;" d="M 722.302, 358.258 L 750.253, 370.161 L 755.191, 383.055 L 717.513, 377.101 L 708.174, 368.262 L 721.285, 358.108 z "/>
<path style="fill:rgb(255, 45, 152);fill-opacity:1.0;fill-rule:evenodd;stroke:rgb(0, 0, 0);stroke-width:3.0;" d="M 207.646, 453.118 L 225.084, 522.093 L 178.338, 527.675 L 140.602, 463.767 L 158.668, 439.636 z "/>
<path style="fill:rgb(255, 45, 152);fill-opacity:1.0;fill-rule:evenodd;stroke:rgb(0, 0, 0);stroke-width:3.0;" d="M 539.738, 219.212 L 564.451, 260.329 L 505.05, 233.67 L 520.495, 213.276 z "/>
<path style="fill:rgb(255, 23, 12);fill-opacity:1.0;fill-rule:evenodd;stroke:rgb(0, 0, 0);stroke-width:3.0;" d="M 231.523, 335.104 L 220.57, 336.982 L 203.372, 323.645 L 178.043, 272.681 L 188.334, 248.048 z "/>
<path style="fill:rgb(202, 44, 52);fill-opacity:1.0;fill-rule:evenodd;stroke:rgb(0, 0, 0);stroke-width:3.0;" d="M 261.142, 543.404 L 244.538, 543.616 L 242.13, 541.439 L 250.381, 524.224 z "/>
<path style="fill:rgb(243, 142, 9);fill-opacity:1.0;fill-rule:evenodd;stroke:rgb(0, 0, 0);stroke-width:3.0;" d="M 178.554, 535.159 L 171.825, 541.617 L 142.002, 532.612 L 119.945, 495.267 z "/>
<path style="fill:rgb(249, 25, 255);fill-opacity:1.0;fill-rule:evenodd;stroke:rgb(0, 0, 0);stroke-width:3.0;" d="M 69.9006, 424.048 L 32.2902, 402.708 L 27.0812, 396.574 L 56.5349, 381.984 z "/>
<path style="fill:rgb(249, 25, 255);fill-opacity:1.0;fill-rule:evenodd;stroke:rgb(0, 0, 0);stroke-width:3.0;" d="M 542.656, 281.761 L 454.71, 296.839 L 457.546, 245.519 z "/>
<path style="fill:rgb(74, 192, 255);fill-opacity:1.0;fill-rule:evenodd;stroke:rgb(0, 0, 0);stroke-width:3.0;" d="M 668.953, 369.426 L 630.41, 363.335 L 632.728, 350.082 L 648.546, 340.62 z "/>
<path style="fill:rgb(74, 192, 255);fill-opacity:1.0;fill-rule:evenodd;stroke:rgb(0, 0, 0);stroke-width:3.0;" d="M 550.854, 404.401 L 587.887, 490.533 L 587.67, 491.383 L 539.298, 417.42 L 544.022, 403.308 z "/>
<path style="fill:rgb(74, 192, 255);fill-opacity:1.0;fill-rule:evenodd;stroke:rgb(0, 0, 0);stroke-width:3.0;" d="M 656.635, 330.296 L 657.224, 352.87 L 638.826, 326.899 L 639.529, 324.734 L 641.364, 323.793 z "/>
<path style="fill:rgb(97, 89, 255);fill-opacity:1.0;fill-rule:evenodd;stroke:rgb(0, 0, 0);stroke-width:3.0;" d="M 484.222, 580.695 L 420.277, 568.455 L 433.848, 541.005 z "/>
<path style="fill:rgb(97, 89, 255);fill-opacity:1.0;fill-rule:evenodd;stroke:rgb(0, 0, 0);stroke-width:3.0;" d="M 431.177, 587.214 L 429.852, 587.556 L 400.571, 586.53 L 408.304, 579.191 z "/>
<path style="fill:rgb(255, 228, 7);fill-opacity:1.0;fill-rule:evenodd;stroke:rgb(0, 0, 0);stroke-width:3.0;" d="M 171.606, 246.534 L 147.938, 269.526 L 131.964, 268.265 L 127.247, 264.607 L 127.316, 260.517 L 187.101, 218.165 L 189.949, 217.937 z "/>
<path style="fill:rgb(255, 228, 7);fill-opacity:1.0;fill-rule:evenodd;stroke:rgb(0, 0, 0);stroke-width:3.0;" d="M 565.382, 406.726 L 544.022, 403.308 L 564.846, 341.11 z "/>
<path style="fill:rgb(189, 110, 255);fill-opacity:1.0;fill-rule:evenodd;stroke:rgb(0, 0, 0);stroke-width:3.0;" d="M 265.058, 236.945 L 262.903, 242.341 L 260.034, 241.156 L 251.029, 227.901 L 261.716, 225.437 z "/>
<path style="fill:rgb(184, 255, 255);fill-opacity:1.0;fill-rule:evenodd;stroke:rgb(0, 0, 0);stroke-width:3.0;" d="M 290.086, 174.21 L 315.848, 185.18 L 309.987, 193.679 L 263.65, 171.453 L 266.915, 170.713 z "/>
<path style="fill:rgb(184, 255, 255);fill-opacity:1.0;fill-rule:evenodd;stroke:rgb(0, 0, 0);stroke-width:3.0;" d="M 514.795, 586.547 L 527.143, 590.965 L 506.461, 590.24 L 487.052, 581.237 z "/>
<path style="fill:rgb(123, 161, 255);fill-opacity:1.0;fill-rule:evenodd;stroke:rgb(0, 0, 0);stroke-width:3.0;" d="M 637.811, 340.154 L 631.392, 345.482 L 625.92, 344.181 L 624.823, 332.274 L 630.779, 329.22 z "/>
<path style="fill:rgb(255, 81, 6);fill-opacity:1.0;fill-rule:evenodd;stroke:rgb(0, 0, 0);stroke-width:3.0;" d="M 631.641, 558.615 L 536.975, 545.242 L 616.273, 535.118 z "/>
<path style="fill:rgb(255, 81, 6);fill-opacity:1.0;fill-rule:evenodd;stroke:rgb(0, 0, 0);stroke-width:3.0;" d="M 319.833, 547.266 L 306.308, 569.427 L 305.315, 569.546 L 304.842, 568.137 L 309.448, 541.304 z "/>
<path style="fill:rgb(255, 22, 9);fill-opacity:1.0;fill-rule:evenodd;stroke:rgb(0, 0, 0);stroke-width:3.0;" d="M 253.494, 591.063 L 250.351, 591.476 L 215.355, 590.366 L 213.875, 587.86 L 226.615, 587.147 L 260.564, 586.822 z "/>
<path style="fill:rgb(28, 1, 226);fill-opacity:1.0;fill-rule:evenodd;stroke:rgb(0, 0, 0);stroke-width:3.0;" d="M 596.839, 505.402 L 616.273, 535.118 L 495.875, 550.49 L 424.711, 495.3 L 423.199, 489.796 z "/>
<path style="fill:rgb(148, 0, 150);fill-opacity:1.0;fill-rule:evenodd;stroke:rgb(0, 0, 0);stroke-width:3.0;" d="M 356.042, 562.223 L 325.566, 547.982 L 336.846, 534.55 z "/>
<path style="fill:rgb(148, 0, 150);fill-opacity:1.0;fill-rule:evenodd;stroke:rgb(0, 0, 0);stroke-width:3.0;" d="M 141.811, 394.657 L 151.581, 406.408 L 121.698, 393.518 z "/>
<path style="fill:rgb(148, 0, 150);fill-opacity:1.0;fill-rule:evenodd;stroke:rgb(0, 0, 0);stroke-width:3.0;" d="M 750.617, 382.332 L 746.283, 391.57 L 635.959, 387.428 L 668.569, 369.366 z "/>
<path style="fill:rgb(148, 0, 150);fill-opacity:1.0;fill-rule:evenodd;stroke:rgb(0, 0, 0);stroke-width:3.0;" d="M 392.714, 217.912 L 386.749, 225.065 L 371.216, 237.58 L 378.812, 211.992 z "/>
<path style="fill:rgb(148, 0, 150);fill-opacity:1.0;fill-rule:evenodd;stroke:rgb(0, 0, 0);stroke-width:3.0;" d="M 616.35, 379.134 L 607.575, 413.478 L 573.57, 408.037 L 578.552, 370.944 z "/>
<path style="fill:rgb(252, 240, 7);fill-opacity:1.0;fill-rule:evenodd;stroke:rgb(0, 0, 0);stroke-width:3.0;" d="M 364.836, 564.204 L 363.871, 565.882 L 356.042, 562.223 L 336.846, 534.55 L 337.376, 533.918 z "/>
<path style="fill:rgb(255, 240, 86);fill-opacity:1.0;fill-rule:evenodd;stroke:rgb(0, 0, 0);stroke-width:3.0;" d="M 170.918, 173.056 L 196.21, 208.712 L 194.192, 217.598 L 190.215, 217.916 L 169.273, 171.304 z "/>
<path style="fill:rgb(255, 240, 86);fill-opacity:1.0;fill-rule:evenodd;stroke:rgb(0, 0, 0);stroke-width:3.0;" d="M 133.373, 246.19 L 127.658, 240.248 L 127.79, 232.392 L 138.112, 227.306 z "/>
<path style="fill:rgb(255, 228, 17);fill-opacity:1.0;fill-rule:evenodd;stroke:rgb(0, 0, 0);stroke-width:3.0;" d="M 746.283, 391.57 L 724.586, 437.812 L 635.434, 447.391 L 629.886, 387.2 z "/>
<path style="fill:rgb(74, 255, 220);fill-opacity:1.0;fill-rule:evenodd;stroke:rgb(0, 0, 0);stroke-width:3.0;" d="M 411.616, 290.553 L 400.375, 306.155 L 392.22, 307.553 L 383.872, 303.57 L 422.425, 238.866 z "/>
<path style="fill:rgb(74, 255, 220);fill-opacity:1.0;fill-rule:evenodd;stroke:rgb(0, 0, 0);stroke-width:3.0;" d="M 309.987, 193.679 L 299.545, 208.819 L 266.13, 190.374 L 260.675, 172.127 L 263.65, 171.453 z "/>
<path style="fill:rgb(74, 255, 220);fill-opacity:1.0;fill-rule:evenodd;stroke:rgb(0, 0, 0);stroke-width:3.0;" d="M 143.03, 342.745 L 115.833, 342.529 L 98.3224, 335.196 L 134.551, 334.172 z "/>
<path style="fill:rgb(74, 255, 220);fill-opacity:1.0;fill-rule:evenodd;stroke:rgb(0, 0, 0);stroke-width:3.0;" d="M 375.968, 317.856 L 356.14, 357.046 L 370.083, 311.348 L 373.996, 310.677 z "/>
<path style="fill:rgb(74, 255, 220);fill-opacity:1.0;fill-rule:evenodd;stroke:rgb(0, 0, 0);stroke-width:3.0;" d="M 115.996, 139.657 L 103.822, 154.482 L 95.8677, 142.709 L 105.064, 134.554 z "/>
<path style="fill:rgb(74, 255, 220);fill-opacity:1.0;fill-rule:evenodd;stroke:rgb(0, 0, 0);stroke-width:3.0;" d="M 39.039, 293.614 L 42.3896, 307.516 L 34.4178, 320.035 L 18.9063, 316.906 L 31.4695, 290.167 z "/>
<path style="fill:rgb(74, 255, 220);fill-opacity:1.0;fill-rule:evenodd;stroke:rgb(0, 0, 0);stroke-width:3.0;" d="M 390.101, 520.273 L 364.836, 564.204 L 354.302, 552.587 L 348.225, 522.593 L 370.155, 505.149 z "/>
<path style="fill:rgb(74, 255, 220);fill-opacity:1.0;fill-rule:evenodd;stroke:rgb(0, 0, 0);stroke-width:3.0;" d="M 231.703, 192.882 L 239.509, 214.181 L 217.119, 183.214 z "/>
<path style="fill:rgb(74, 255, 220);fill-opacity:1.0;fill-rule:evenodd;stroke:rgb(0, 0, 0);stroke-width:3.0;" d="M 550.966, 262.522 L 586.25, 300.324 L 554.859, 286.957 L 546.297, 261.628 z "/>
<path style="fill:rgb(74, 255, 220);fill-opacity:1.0;fill-rule:evenodd;stroke:rgb(0, 0, 0);stroke-width:3.0;" d="M 679.177, 339.895 L 681.493, 346.698 L 656.74, 334.34 L 656.635, 330.296 z "/>
<path style="fill:rgb(146, 237, 55);fill-opacity:1.0;fill-rule:evenodd;stroke:rgb(0, 0, 0);stroke-width:3.0;" d="M 42.3677, 487.179 L 35.8246, 490.196 L 8.03268, 451.984 L 30.8193, 447.848 z "/>
<path style="fill:rgb(255, 226, 26);fill-opacity:1.0;fill-rule:evenodd;stroke:rgb(0, 0, 0);stroke-width:3.0;" d="M 265.198, 288.08 L 206.046, 283.75 L 199.68, 270.917 L 245.751, 269.143 z "/>
<path style="fill:rgb(98, 26, 220);fill-opacity:1.0;fill-rule:evenodd;stroke:rgb(0, 0, 0);stroke-width:3.0;" d="M 586.33, 300.358 L 587.87, 301.585 L 586.335, 313.015 L 570.271, 324.906 L 579.468, 297.436 z "/>
<path style="fill:rgb(98, 26, 220);fill-opacity:1.0;fill-rule:evenodd;stroke:rgb(0, 0, 0);stroke-width:3.0;" d="M 234.633, 258.316 L 245.751, 269.143 L 199.68, 270.917 L 184.194, 239.703 z "/>
<path style="fill:rgb(255, 27, 146);fill-opacity:1.0;fill-rule:evenodd;stroke:rgb(0, 0, 0);stroke-width:3.0;" d="M 128.684, 443.583 L 71.6787, 429.644 L 58.1488, 387.063 L 84.6019, 368.928 z "/>
<path style="fill:rgb(66, 91, 255);fill-opacity:1.0;fill-rule:evenodd;stroke:rgb(0, 0, 0);stroke-width:3.0;" d="M 45.35, 161.942 L 16.3174, 168.496 L 27.0921, 150.367 L 28.9302, 148.556 z "/>
<path style="fill:rgb(66, 91, 255);fill-opacity:1.0;fill-rule:evenodd;stroke:rgb(0, 0, 0);stroke-width:3.0;" d="M 252.363, 449.878 L 250.569, 457.021 L 230.341, 443.604 L 228.142, 439.43 z "/>
<path style="fill:rgb(207, 204, 255);fill-opacity:1.0;fill-rule:evenodd;stroke:rgb(0, 0, 0);stroke-width:3.0;" d="M 204.96, 429.432 L 222.706, 454.353 L 194.951, 441.21 L 177.055, 430.18 L 184.656, 420.674 z "/>
<path style="fill:rgb(249, 56, 9);fill-opacity:1.0;fill-rule:evenodd;stroke:rgb(0, 0, 0);stroke-width:3.0;" d="M 257.163, 209.759 L 261.716, 225.437 L 249.658, 228.217 L 239.509, 214.181 L 231.703, 192.882 z "/>
<path style="fill:rgb(249, 56, 9);fill-opacity:1.0;fill-rule:evenodd;stroke:rgb(0, 0, 0);stroke-width:3.0;" d="M 490.113, 342.215 L 478.463, 324.402 L 498.44, 319.783 z "/>
<path style="fill:rgb(231, 240, 8);fill-opacity:1.0;fill-rule:evenodd;stroke:rgb(0, 0, 0);stroke-width:3.0;" d="M 350.112, 426.624 L 379.83, 460.493 L 340.183, 429.745 L 334.572, 422.325 z "/>
<path style="fill:rgb(231, 240, 8);fill-opacity:1.0;fill-rule:evenodd;stroke:rgb(0, 0, 0);stroke-width:3.0;" d="M 498.44, 319.783 L 478.463, 324.402 L 459.859, 295.956 L 510.508, 287.273 z "/>
<path style="fill:rgb(10, 83, 255);fill-opacity:1.0;fill-rule:evenodd;stroke:rgb(0, 0, 0);stroke-width:3.0;" d="M 240.421, 247.036 L 242.024, 265.514 L 197.101, 221.768 L 202.038, 216.972 L 211.47, 216.219 z "/>
<path style="fill:rgb(243, 148, 7);fill-opacity:1.0;fill-rule:evenodd;stroke:rgb(0, 0, 0);stroke-width:3.0;" d="M 91.1757, 583.741 L 66.2363, 588.751 L 28.3805, 523.955 L 57.7206, 513.928 z "/>
<path style="fill:rgb(255, 144, 12);fill-opacity:1.0;fill-rule:evenodd;stroke:rgb(0, 0, 0);stroke-width:3.0;" d="M 283.09, 556.806 L 271.03, 522.122 L 275.811, 519.15 L 280.431, 518.321 z "/>
<path style="fill:rgb(255, 144, 12);fill-opacity:1.0;fill-rule:evenodd;stroke:rgb(0, 0, 0);stroke-width:3.0;" d="M 161.245, 410.576 L 139.945, 407.308 L 107.945, 387.586 z "/>
<path style="fill:rgb(255, 144, 12);fill-opacity:1.0;fill-rule:evenodd;stroke:rgb(0, 0, 0);stroke-width:3.0;" d="M 189.769, 547.034 L 198.692, 562.146 L 91.1757, 583.741 L 57.7206, 513.928 L 68.2271, 510.337 z "/>
<path style="fill:rgb(255, 119, 46);fill-opacity:1.0;fill-rule:evenodd;stroke:rgb(0, 0, 0);stroke-width:3.0;" d="M 439.084, 530.415 L 420.277, 568.455 L 403.276, 565.2 L 425.193, 524.424 z "/>
<path style="fill:rgb(255, 119, 46);fill-opacity:1.0;fill-rule:evenodd;stroke:rgb(0, 0, 0);stroke-width:3.0;" d="M 554.175, 179.506 L 546.877, 231.089 L 540.382, 220.282 L 551.27, 166.489 z "/>
<path style="fill:rgb(255, 119, 46);fill-opacity:1.0;fill-rule:evenodd;stroke:rgb(0, 0, 0);stroke-width:3.0;" d="M 686.54, 372.206 L 668.953, 369.426 L 668.778, 369.18 L 660.595, 347.968 z "/>
<path style="fill:rgb(255, 119, 46);fill-opacity:1.0;fill-rule:evenodd;stroke:rgb(0, 0, 0);stroke-width:3.0;" d="M 143.03, 342.745 L 197.492, 397.809 L 121.698, 393.518 L 91.4071, 380.453 L 68.7933, 342.155 z "/>
<path style="fill:rgb(105, 255, 47);fill-opacity:1.0;fill-rule:evenodd;stroke:rgb(0, 0, 0);stroke-width:3.0;" d="M 241.779, 442.586 L 242.692, 445.706 L 199.33, 427.003 L 205.89, 406.3 z "/>
<path style="fill:rgb(74, 207, 252);fill-opacity:1.0;fill-rule:evenodd;stroke:rgb(0, 0, 0);stroke-width:3.0;" d="M 79.4368, 456.512 L 72.7614, 463.152 L 63.9536, 457.157 L 61.9727, 448.74 L 70.227, 447.758 z "/>
<path style="fill:rgb(74, 207, 252);fill-opacity:1.0;fill-rule:evenodd;stroke:rgb(0, 0, 0);stroke-width:3.0;" d="M 487.052, 581.237 L 496.753, 585.737 L 496.524, 586.341 L 482.847, 589.413 L 460.122, 588.616 L 450.646, 582.198 L 468.303, 577.648 z "/>
<path style="fill:rgb(74, 207, 252);fill-opacity:1.0;fill-rule:evenodd;stroke:rgb(0, 0, 0);stroke-width:3.0;" d="M 127.909, 145.217 L 125.271, 167.692 L 99.6933, 159.511 L 115.996, 139.657 z "/>
<path style="fill:rgb(74, 207, 252);fill-opacity:1.0;fill-rule:evenodd;stroke:rgb(0, 0, 0);stroke-width:3.0;" d="M 353.868, 296.021 L 348.205, 315.099 L 310.447, 321.573 L 302.975, 313.619 L 291.072, 273.803 z "/>
<path style="fill:rgb(74, 207, 252);fill-opacity:1.0;fill-rule:evenodd;stroke:rgb(0, 0, 0);stroke-width:3.0;" d="M 523.916, 242.137 L 511.367, 254.943 L 491.779, 251.194 L 505.05, 233.67 z "/>
<path style="fill:rgb(110, 103, 255);fill-opacity:1.0;fill-rule:evenodd;stroke:rgb(0, 0, 0);stroke-width:3.0;" d="M 36.1837, 404.917 L 70.884, 431.903 L 52.773, 426.825 L 32.2902, 402.708 z "/>
<path style="fill:rgb(110, 103, 255);fill-opacity:1.0;fill-rule:evenodd;stroke:rgb(0, 0, 0);stroke-width:3.0;" d="M 564.451, 260.329 L 567.693, 265.723 L 541.529, 260.716 L 534.576, 246.921 z "/>
<path style="fill:rgb(234, 0, 24);fill-opacity:1.0;fill-rule:evenodd;stroke:rgb(0, 0, 0);stroke-width:3.0;" d="M 442.958, 532.086 L 471.727, 563.411 L 472.44, 571.292 L 437.471, 533.677 L 439.084, 530.415 z "/>
<path style="fill:rgb(255, 240, 17);fill-opacity:1.0;fill-rule:evenodd;stroke:rgb(0, 0, 0);stroke-width:3.0;" d="M 681.493, 346.698 L 690.381, 372.813 L 686.54, 372.206 L 660.595, 347.968 L 656.842, 338.239 L 656.74, 334.34 z "/>
<path style="fill:rgb(255, 240, 17);fill-opacity:1.0;fill-rule:evenodd;stroke:rgb(0, 0, 0);stroke-width:3.0;" d="M 300.111, 316.78 L 251.9, 318.613 L 259.954, 311.416 z "/>
<path style="fill:rgb(212, 3, 30);fill-opacity:1.0;fill-rule:evenodd;stroke:rgb(0, 0, 0);stroke-width:3.0;" d="M 175.062, 396.539 L 159.7, 409.91 L 151.581, 406.408 L 141.811, 394.657 z "/>
<path style="fill:rgb(212, 3, 30);fill-opacity:1.0;fill-rule:evenodd;stroke:rgb(0, 0, 0);stroke-width:3.0;" d="M 453.594, 551.02 L 449.673, 553.473 L 433.848, 541.005 L 437.471, 533.677 z "/>
<path style="fill:rgb(212, 3, 30);fill-opacity:1.0;fill-rule:evenodd;stroke:rgb(0, 0, 0);stroke-width:3.0;" d="M 603.17, 313.774 L 600.38, 321.371 L 582.702, 340.052 L 587.87, 301.585 z "/>
<path style="fill:rgb(212, 3, 30);fill-opacity:1.0;fill-rule:evenodd;stroke:rgb(0, 0, 0);stroke-width:3.0;" d="M 284.206, 515.035 L 225.084, 522.093 L 222.392, 511.443 L 265.934, 502.544 z "/>
<path style="fill:rgb(212, 3, 30);fill-opacity:1.0;fill-rule:evenodd;stroke:rgb(0, 0, 0);stroke-width:3.0;" d="M 151.882, 437.769 L 152.717, 447.207 L 133.539, 444.37 L 133.167, 432.617 z "/>
<path style="fill:rgb(212, 3, 30);fill-opacity:1.0;fill-rule:evenodd;stroke:rgb(0, 0, 0);stroke-width:3.0;" d="M 174.724, 301.427 L 145.452, 278.726 L 152.553, 271.91 z "/>
<path style="fill:rgb(212, 3, 30);fill-opacity:1.0;fill-rule:evenodd;stroke:rgb(0, 0, 0);stroke-width:3.0;" d="M 195.24, 317.338 L 196.927, 397.238 L 71.0801, 269.998 L 69.2313, 219.615 z "/>
<path style="fill:rgb(212, 3, 30);fill-opacity:1.0;fill-rule:evenodd;stroke:rgb(0, 0, 0);stroke-width:3.0;" d="M 161.245, 410.576 L 176.14, 417.001 L 181.315, 424.853 L 177.055, 430.18 L 139.945, 407.308 z "/>
<path style="fill:rgb(212, 3, 30);fill-opacity:1.0;fill-rule:evenodd;stroke:rgb(0, 0, 0);stroke-width:3.0;" d="M 359.232, 563.714 L 345.86, 583.415 L 336.295, 560.255 L 335.948, 557.712 L 338.999, 554.259 z "/>
<path style="fill:rgb(255, 144, 18);fill-opacity:1.0;fill-rule:evenodd;stroke:rgb(0, 0, 0);stroke-width:3.0;" d="M 168.705, 181.585 L 188.421, 218.059 L 129.021, 222.801 L 139.969, 172.394 z "/>
<path style="fill:rgb(255, 144, 18);fill-opacity:1.0;fill-rule:evenodd;stroke:rgb(0, 0, 0);stroke-width:3.0;" d="M 88.1765, 300.444 L 57.898, 323.704 L 14.6268, 250.421 L 16.785, 234.155 z "/>
<path style="fill:rgb(240, 255, 22);fill-opacity:1.0;fill-rule:evenodd;stroke:rgb(0, 0, 0);stroke-width:3.0;" d="M 389.948, 272.895 L 397.162, 281.266 L 390.899, 291.776 L 385.432, 296.074 L 361.207, 271.298 L 366.006, 255.131 z "/>
<path style="fill:rgb(240, 255, 22);fill-opacity:1.0;fill-rule:evenodd;stroke:rgb(0, 0, 0);stroke-width:3.0;" d="M 622.775, 443.954 L 625.41, 448.056 L 625.472, 448.615 L 619.622, 453.633 L 610.897, 436.951 L 613.156, 435.498 z "/>
<path style="fill:rgb(184, 184, 255);fill-opacity:1.0;fill-rule:evenodd;stroke:rgb(0, 0, 0);stroke-width:3.0;" d="M 378.812, 211.992 L 376.578, 219.517 L 301.116, 210.771 L 344.9, 197.551 z "/>
<path style="fill:rgb(228, 189, 123);fill-opacity:1.0;fill-rule:evenodd;stroke:rgb(0, 0, 0);stroke-width:3.0;" d="M 276.539, 572.551 L 231.512, 563.595 L 241.001, 543.795 L 244.316, 543.415 z "/>
<path style="fill:rgb(255, 226, 24);fill-opacity:1.0;fill-rule:evenodd;stroke:rgb(0, 0, 0);stroke-width:3.0;" d="M 173.114, 124.4 L 187.551, 130.548 L 211.272, 153.582 L 159.463, 144.994 L 120.566, 119.209 z "/>
<path style="fill:rgb(255, 226, 24);fill-opacity:1.0;fill-rule:evenodd;stroke:rgb(0, 0, 0);stroke-width:3.0;" d="M 582.751, 339.687 L 582.379, 342.462 L 565.362, 404.294 L 565.189, 383.105 L 576.621, 336.208 z "/>
<path style="fill:rgb(255, 226, 24);fill-opacity:1.0;fill-rule:evenodd;stroke:rgb(0, 0, 0);stroke-width:3.0;" d="M 426.371, 232.244 L 410.391, 259.062 L 371.656, 237.225 L 394.62, 218.723 z "/>
<path style="fill:rgb(234, 255, 9);fill-opacity:1.0;fill-rule:evenodd;stroke:rgb(0, 0, 0);stroke-width:3.0;" d="M 619.772, 466.369 L 598.548, 470.891 L 608.761, 453.922 z "/>
<path style="fill:rgb(255, 10, 47);fill-opacity:1.0;fill-rule:evenodd;stroke:rgb(0, 0, 0);stroke-width:3.0;" d="M 69.2747, 460.779 L 74.564, 475.556 L 67.2821, 473.845 L 63.1876, 470.874 L 59.9569, 454.437 z "/>
<path style="fill:rgb(255, 10, 47);fill-opacity:1.0;fill-rule:evenodd;stroke:rgb(0, 0, 0);stroke-width:3.0;" d="M 279.999, 289.163 L 265.198, 288.08 L 246.589, 269.959 L 241.121, 255.105 L 240.421, 247.036 z "/>
<path style="fill:rgb(255, 255, 33);fill-opacity:1.0;fill-rule:evenodd;stroke:rgb(0, 0, 0);stroke-width:3.0;" d="M 607.821, 431.069 L 598.124, 464.53 L 593.235, 469.602 L 604.636, 424.98 z "/>
<path style="fill:rgb(252, 24, 194);fill-opacity:1.0;fill-rule:evenodd;stroke:rgb(0, 0, 0);stroke-width:3.0;" d="M 279.999, 289.163 L 282.215, 291.522 L 251.9, 318.613 L 223.87, 319.679 L 215.43, 302.665 L 222.743, 284.972 z "/>
<path style="fill:rgb(255, 69, 32);fill-opacity:1.0;fill-rule:evenodd;stroke:rgb(0, 0, 0);stroke-width:3.0;" d="M 105.064, 134.554 L 82.9562, 154.158 L 7.22805, 129.935 L 66.6255, 116.613 z "/>
<path style="fill:rgb(81, 88, 220);fill-opacity:1.0;fill-rule:evenodd;stroke:rgb(0, 0, 0);stroke-width:3.0;" d="M 462.482, 452.25 L 513.109, 497.876 L 423.199, 489.796 L 412.128, 449.493 z "/>
<path style="fill:rgb(81, 88, 220);fill-opacity:1.0;fill-rule:evenodd;stroke:rgb(0, 0, 0);stroke-width:3.0;" d="M 623.997, 461.998 L 617.607, 463.922 L 608.761, 453.922 L 614.653, 444.133 z "/>
<path style="fill:rgb(215, 30, 49);fill-opacity:1.0;fill-rule:evenodd;stroke:rgb(0, 0, 0);stroke-width:3.0;" d="M 607.575, 413.478 L 587.887, 490.533 L 550.854, 404.401 z "/>
<path style="fill:rgb(152, 246, 59);fill-opacity:1.0;fill-rule:evenodd;stroke:rgb(0, 0, 0);stroke-width:3.0;" d="M 272.199, 470.886 L 281.741, 499.313 L 222.392, 511.443 L 207.646, 453.118 z "/>
<path style="fill:rgb(255, 255, 71);fill-opacity:1.0;fill-rule:evenodd;stroke:rgb(0, 0, 0);stroke-width:3.0;" d="M 266.637, 539.214 L 287.296, 577.369 L 273.381, 565.221 L 258.388, 538.495 z "/>
<path style="fill:rgb(33, 0, 9);fill-opacity:1.0;fill-rule:evenodd;stroke:rgb(0, 0, 0);stroke-width:3.0;" d="M 60.4965, 266.295 L 84.0168, 283.105 L 77.9279, 290.928 L 40.0952, 255.799 L 40.6352, 255.309 z "/>
<path style="fill:rgb(237, 48, 170);fill-opacity:1.0;fill-rule:evenodd;stroke:rgb(0, 0, 0);stroke-width:3.0;" d="M 359.303, 507.808 L 325.566, 547.982 L 317.367, 544.151 L 340.899, 510.543 L 356.983, 501.313 z "/>
<path style="fill:rgb(255, 138, 38);fill-opacity:1.0;fill-rule:evenodd;stroke:rgb(0, 0, 0);stroke-width:3.0;" d="M 194.951, 441.21 L 125.244, 408.201 L 124.046, 397.51 z "/>
<path style="fill:rgb(255, 138, 38);fill-opacity:1.0;fill-rule:evenodd;stroke:rgb(0, 0, 0);stroke-width:3.0;" d="M 232.196, 564.481 L 225.65, 578.177 L 209.481, 580.418 L 178.338, 527.675 L 196.099, 525.554 z "/>
<path style="fill:rgb(66, 59, 226);fill-opacity:1.0;fill-rule:evenodd;stroke:rgb(0, 0, 0);stroke-width:3.0;" d="M 772.715, 379.726 L 777.832, 386.633 L 755.191, 383.055 L 753.665, 379.071 L 756.049, 372.629 z "/>
<path style="fill:rgb(66, 59, 226);fill-opacity:1.0;fill-rule:evenodd;stroke:rgb(0, 0, 0);stroke-width:3.0;" d="M 237.405, 350.038 L 197.251, 397.566 L 196.927, 397.238 L 195.24, 317.338 z "/>
<path style="fill:rgb(66, 59, 226);fill-opacity:1.0;fill-rule:evenodd;stroke:rgb(0, 0, 0);stroke-width:3.0;" d="M 85.9128, 478.222 L 102.317, 483.269 L 116.67, 493.038 L 109.161, 494.604 L 82.5414, 477.43 z "/>
<path style="fill:rgb(255, 81, 243);fill-opacity:1.0;fill-rule:evenodd;stroke:rgb(0, 0, 0);stroke-width:3.0;" d="M 257.163, 209.759 L 219.499, 184.792 L 245.541, 169.744 z "/>
<path style="fill:rgb(255, 81, 243);fill-opacity:1.0;fill-rule:evenodd;stroke:rgb(0, 0, 0);stroke-width:3.0;" d="M 294.746, 324.265 L 231.523, 335.104 L 223.87, 319.679 L 229.252, 319.474 z "/>
<path style="fill:rgb(228, 0, 12);fill-opacity:1.0;fill-rule:evenodd;stroke:rgb(0, 0, 0);stroke-width:3.0;" d="M 142.002, 532.612 L 116.599, 524.942 L 129.145, 510.843 z "/>
<path style="fill:rgb(228, 0, 12);fill-opacity:1.0;fill-rule:evenodd;stroke:rgb(0, 0, 0);stroke-width:3.0;" d="M 273.685, 571.983 L 276.539, 572.551 L 278.477, 574.303 L 283.884, 583.941 L 270.272, 584.703 L 273.385, 571.972 z "/>
<path style="fill:rgb(255, 234, 44);fill-opacity:1.0;fill-rule:evenodd;stroke:rgb(0, 0, 0);stroke-width:3.0;" d="M 570.209, 269.91 L 589.259, 301.605 L 586.25, 300.324 L 563.113, 275.536 L 560.157, 267.375 z "/>
<path style="fill:rgb(234, 65, 10);fill-opacity:1.0;fill-rule:evenodd;stroke:rgb(0, 0, 0);stroke-width:3.0;" d="M 638.58, 481.514 L 633.322, 477.882 L 630.225, 471.383 L 634.28, 434.868 z "/>
<path style="fill:rgb(234, 65, 10);fill-opacity:1.0;fill-rule:evenodd;stroke:rgb(0, 0, 0);stroke-width:3.0;" d="M 238.927, 152.425 L 234.475, 173.566 L 218.999, 184.46 L 218.78, 184.315 L 223.407, 155.971 L 238.861, 152.397 z "/>
<path style="fill:rgb(255, 1, 9);fill-opacity:1.0;fill-rule:evenodd;stroke:rgb(0, 0, 0);stroke-width:3.0;" d="M 211.272, 153.582 L 222.083, 164.08 L 218.78, 184.315 L 159.463, 144.994 z "/>
<path style="fill:rgb(220, 182, 6);fill-opacity:1.0;fill-rule:evenodd;stroke:rgb(0, 0, 0);stroke-width:3.0;" d="M 457.325, 249.534 L 454.71, 296.839 L 439.311, 299.479 L 451.983, 248.195 z "/>
<path style="fill:rgb(228, 6, 74);fill-opacity:1.0;fill-rule:evenodd;stroke:rgb(0, 0, 0);stroke-width:3.0;" d="M 668.569, 369.366 L 635.959, 387.428 L 629.886, 387.2 L 627.645, 362.898 z "/>
<path style="fill:rgb(126, 255, 255);fill-opacity:1.0;fill-rule:evenodd;stroke:rgb(0, 0, 0);stroke-width:3.0;" d="M 376.004, 286.432 L 374.159, 291.516 L 372.951, 291.03 L 357.681, 283.175 L 361.207, 271.298 z "/>
<path style="fill:rgb(88, 177, 217);fill-opacity:1.0;fill-rule:evenodd;stroke:rgb(0, 0, 0);stroke-width:3.0;" d="M 364.614, 430.636 L 413.695, 455.198 L 424.711, 495.3 L 379.83, 460.493 L 350.112, 426.624 z "/>
<path style="fill:rgb(79, 177, 255);fill-opacity:1.0;fill-rule:evenodd;stroke:rgb(0, 0, 0);stroke-width:3.0;" d="M 155.501, 225.349 L 146.986, 241.842 L 134.099, 243.295 L 138.112, 227.306 L 147.85, 222.508 z "/>
<path style="fill:rgb(255, 66, 33);fill-opacity:1.0;fill-rule:evenodd;stroke:rgb(0, 0, 0);stroke-width:3.0;" d="M 237.249, 231.077 L 227.533, 233.317 L 209.114, 213.712 z "/>
<path style="fill:rgb(255, 66, 33);fill-opacity:1.0;fill-rule:evenodd;stroke:rgb(0, 0, 0);stroke-width:3.0;" d="M 21.588, 346.981 L 19.4779, 346.927 L 21.1001, 338.186 L 50.7075, 334.485 z "/>
<path style="fill:rgb(212, 228, 255);fill-opacity:1.0;fill-rule:evenodd;stroke:rgb(0, 0, 0);stroke-width:3.0;" d="M 179.662, 275.94 L 168.734, 272.87 L 157.674, 266.994 L 169.55, 255.593 z "/>
<path style="fill:rgb(212, 228, 255);fill-opacity:1.0;fill-rule:evenodd;stroke:rgb(0, 0, 0);stroke-width:3.0;" d="M 400.448, 533.147 L 377.941, 555.146 L 365.133, 563.688 L 387.699, 524.45 z "/>
<path style="fill:rgb(237, 249, 7);fill-opacity:1.0;fill-rule:evenodd;stroke:rgb(0, 0, 0);stroke-width:3.0;" d="M 286.909, 514.712 L 284.206, 515.035 L 265.934, 502.544 L 281.741, 499.313 z "/>
<path style="fill:rgb(249, 165, 37);fill-opacity:1.0;fill-rule:evenodd;stroke:rgb(0, 0, 0);stroke-width:3.0;" d="M 93.529, 292.696 L 89.7435, 299.24 L 88.1765, 300.444 L 80.9641, 293.747 L 83.9738, 287.105 L 87.3584, 286.457 z "/>
<path style="fill:rgb(246, 22, 182);fill-opacity:1.0;fill-rule:evenodd;stroke:rgb(0, 0, 0);stroke-width:3.0;" d="M 354.302, 552.587 L 337.376, 533.918 L 344.195, 525.798 L 348.225, 522.593 z "/>
<path style="fill:rgb(246, 42, 16);fill-opacity:1.0;fill-rule:evenodd;stroke:rgb(0, 0, 0);stroke-width:3.0;" d="M 332.579, 551.259 L 338.493, 565.578 L 308.547, 569.159 L 308.215, 566.303 L 320.765, 545.739 z "/>
<path style="fill:rgb(246, 42, 16);fill-opacity:1.0;fill-rule:evenodd;stroke:rgb(0, 0, 0);stroke-width:3.0;" d="M 446.411, 418.112 L 409.675, 440.562 L 401.418, 410.504 z "/>
<path style="fill:rgb(246, 42, 16);fill-opacity:1.0;fill-rule:evenodd;stroke:rgb(0, 0, 0);stroke-width:3.0;" d="M 683.478, 344.89 L 695.38, 356.154 L 695.374, 357.363 L 693.492, 370.287 L 690.202, 372.288 L 680.609, 344.103 z "/>
<path style="fill:rgb(240, 65, 27);fill-opacity:1.0;fill-rule:evenodd;stroke:rgb(0, 0, 0);stroke-width:3.0;" d="M 578.532, 371.094 L 573.57, 408.037 L 565.382, 406.726 L 565.362, 404.294 L 575.483, 367.519 z "/>
<path style="fill:rgb(79, 255, 255);fill-opacity:1.0;fill-rule:evenodd;stroke:rgb(0, 0, 0);stroke-width:3.0;" d="M 582.751, 339.687 L 573.742, 334.574 L 577.317, 319.69 L 586.335, 313.015 z "/>
<path style="fill:rgb(79, 255, 255);fill-opacity:1.0;fill-rule:evenodd;stroke:rgb(0, 0, 0);stroke-width:3.0;" d="M 175.755, 226.202 L 169.581, 230.576 L 147.85, 222.508 L 150.782, 221.064 L 173.241, 219.271 z "/>
<path style="fill:rgb(123, 246, 134);fill-opacity:1.0;fill-rule:evenodd;stroke:rgb(0, 0, 0);stroke-width:3.0;" d="M 554.175, 179.506 L 551.27, 166.489 L 567.041, 88.5765 z "/>
<path style="fill:rgb(228, 5, 57);fill-opacity:1.0;fill-rule:evenodd;stroke:rgb(0, 0, 0);stroke-width:3.0;" d="M 373.794, 502.254 L 349.728, 521.398 L 348.647, 520.497 L 366.58, 499.142 z "/>
<path style="fill:rgb(255, 184, 246);fill-opacity:1.0;fill-rule:evenodd;stroke:rgb(0, 0, 0);stroke-width:3.0;" d="M 185.947, 253.763 L 178.043, 272.681 L 169.55, 255.593 L 172.283, 252.969 z "/>
<path style="fill:rgb(255, 234, 8);fill-opacity:1.0;fill-rule:evenodd;stroke:rgb(0, 0, 0);stroke-width:3.0;" d="M 217.119, 183.214 L 249.658, 228.217 L 237.249, 231.077 L 209.114, 213.712 L 152.414, 153.359 L 158.211, 144.164 z "/>
<path style="fill:rgb(246, 3, 91);fill-opacity:1.0;fill-rule:evenodd;stroke:rgb(0, 0, 0);stroke-width:3.0;" d="M 249.313, 585.876 L 221.218, 587.449 L 231.298, 566.361 z "/>
<path style="fill:rgb(255, 255, 74);fill-opacity:1.0;fill-rule:evenodd;stroke:rgb(0, 0, 0);stroke-width:3.0;" d="M 283.09, 556.806 L 284.103, 571.472 L 260.888, 528.595 L 261.017, 528.347 L 271.03, 522.122 z "/>
<path style="fill:rgb(179, 6, 255);fill-opacity:1.0;fill-rule:evenodd;stroke:rgb(0, 0, 0);stroke-width:3.0;" d="M 284.667, 314.717 L 259.954, 311.416 L 273.495, 299.315 z "/>
<path style="fill:rgb(179, 6, 255);fill-opacity:1.0;fill-rule:evenodd;stroke:rgb(0, 0, 0);stroke-width:3.0;" d="M 12.2158, 175.397 L 6.32842, 170.832 L 27.0921, 150.367 z "/>
<path style="fill:rgb(255, 94, 67);fill-opacity:1.0;fill-rule:evenodd;stroke:rgb(0, 0, 0);stroke-width:3.0;" d="M 94.6697, 333.667 L 62.4766, 320.186 L 80.8293, 306.088 z "/>
<path style="fill:rgb(223, 194, 18);fill-opacity:1.0;fill-rule:evenodd;stroke:rgb(0, 0, 0);stroke-width:3.0;" d="M 107.945, 387.586 L 122.194, 396.368 L 96.946, 389.834 L 91.4071, 380.453 z "/>
<path style="fill:rgb(255, 189, 7);fill-opacity:1.0;fill-rule:evenodd;stroke:rgb(0, 0, 0);stroke-width:3.0;" d="M 122.194, 396.368 L 124.046, 397.51 L 125.244, 408.201 L 101.017, 396.729 L 96.946, 389.834 z "/>
<path style="fill:rgb(220, 197, 204);fill-opacity:1.0;fill-rule:evenodd;stroke:rgb(0, 0, 0);stroke-width:3.0;" d="M 28.9302, 148.556 L 27.3998, 150.064 L 19.8919, 149.791 L 9.76747, 142.428 L 14.1187, 136.481 z "/>
<path style="fill:rgb(51, 255, 255);fill-opacity:1.0;fill-rule:evenodd;stroke:rgb(0, 0, 0);stroke-width:3.0;" d="M 133.167, 432.617 L 133.539, 444.37 L 128.728, 443.658 L 122.251, 432.689 L 122.634, 429.718 z "/>
<path style="fill:rgb(64, 212, 223);fill-opacity:1.0;fill-rule:evenodd;stroke:rgb(0, 0, 0);stroke-width:3.0;" d="M 607.003, 316.827 L 603.689, 354.159 L 590.57, 373.548 L 581.907, 371.671 L 603.17, 313.774 z "/>
<path style="fill:rgb(64, 212, 223);fill-opacity:1.0;fill-rule:evenodd;stroke:rgb(0, 0, 0);stroke-width:3.0;" d="M 120.806, 223.456 L 78.5358, 226.83 L 12.2158, 175.397 L 16.3174, 168.496 L 45.35, 161.942 z "/>
<path style="fill:rgb(255, 18, 76);fill-opacity:1.0;fill-rule:evenodd;stroke:rgb(0, 0, 0);stroke-width:3.0;" d="M 551.356, 435.858 L 565.775, 457.904 L 412.128, 449.493 L 409.675, 440.562 L 446.411, 418.112 z "/>
<path style="fill:rgb(255, 128, 9);fill-opacity:1.0;fill-rule:evenodd;stroke:rgb(0, 0, 0);stroke-width:3.0;" d="M 145.452, 278.726 L 141.568, 275.714 L 165.008, 252.944 L 179.824, 245.73 z "/>
<path style="fill:rgb(41, 37, 255);fill-opacity:1.0;fill-rule:evenodd;stroke:rgb(0, 0, 0);stroke-width:3.0;" d="M 533.177, 246.293 L 534.576, 246.921 L 541.529, 260.716 L 514.484, 255.54 L 523.877, 245.092 z "/>
<path style="fill:rgb(255, 226, 10);fill-opacity:1.0;fill-rule:evenodd;stroke:rgb(0, 0, 0);stroke-width:3.0;" d="M 301.439, 558 L 309.069, 580.73 L 299.565, 580.632 L 292.217, 574.846 L 283.123, 557.289 L 281.785, 537.917 z "/>
<path style="fill:rgb(83, 255, 255);fill-opacity:1.0;fill-rule:evenodd;stroke:rgb(0, 0, 0);stroke-width:3.0;" d="M 376.578, 219.517 L 353.868, 296.021 L 291.072, 273.803 L 274.62, 218.772 L 301.116, 210.771 z "/>
</svg>