<?xml version="1.0" encoding="iso-8859-1" standalone="no"?>
<!DOCTYPE svg PUBLIC "-//W3C//DTD SVG 1.0//EN" "http://www.w3.org/TR/2001/REC-SVG-20010904/DTD/svg10.dtd">
<svg xmlns="http://www.w3.org/2000/svg" width="800" height="600">
<path style="fill:rgb(0, 0, 0);fill-opacity:0.0;fill-rule:evenodd;stroke:rgb(0, 0, 0);stroke-width:0.0;" d="M 0, 600 L 800, 600 L 800, 0 L 0, 0 z "/>
<path style="fill:rgb(249, 7, 246);fill-opacity:1.0;fill-rule:evenodd;stroke:rgb(0, 0, 0);stroke-width:3.0;" d="M 235.298, 15.4362 L 233.26, 28.024 L 220.711, 30.8205 L 223.715, 11.2379 z "/>
<path style="fill:rgb(18, 29, 255);fill-opacity:1.0;fill-rule:evenodd;stroke:rgb(0, 0, 0);stroke-width:3.0;" d="M 65.4316, 285.586 L 65.2927, 290.695 L 51.1502, 289.466 L 47.3164, 258.013 z "/>
<path style="fill:rgb(18, 29, 255);fill-opacity:1.0;fill-rule:evenodd;stroke:rgb(0, 0, 0);stroke-width:3.0;" d="M 390.838, 568.318 L 379.14, 568.46 L 373.331, 559.747 L 375.684, 549.347 z "/>
<path style="fill:rgb(255, 10, 192);fill-opacity:1.0;fill-rule:evenodd;stroke:rgb(0, 0, 0);stroke-width:3.0;" d="M 387.732, 543.79 L 393.035, 560.42 L 378.157, 552.442 L 375.684, 549.347 L 377.618, 540.802 z "/>
<path style="fill:rgb(255, 10, 192);fill-opacity:1.0;fill-rule:evenodd;stroke:rgb(0, 0, 0);stroke-width:3.0;" d="M 267.779, 100.013 L 269.285, 104.399 L 269.31, 108.338 L 250.112, 107.229 L 247.276, 104.568 L 253.073, 93.9991 z "/>
<path style="fill:rgb(255, 13, 6);fill-opacity:1.0;fill-rule:evenodd;stroke:rgb(0, 0, 0);stroke-width:3.0;" d="M 309.439, 79.0968 L 306.366, 83.772 L 299.197, 86.1566 L 294.171, 73.346 L 306.364, 68.8416 z "/>
<path style="fill:rgb(255, 13, 6);fill-opacity:1.0;fill-rule:evenodd;stroke:rgb(0, 0, 0);stroke-width:3.0;" d="M 759.325, 353.66 L 732.522, 296.801 L 745.391, 291.81 z "/>
<path style="fill:rgb(56, 52, 255);fill-opacity:1.0;fill-rule:evenodd;stroke:rgb(0, 0, 0);stroke-width:3.0;" d="M 186.088, 126.295 L 185.842, 128.303 L 182.235, 128.396 L 178.009, 107.319 L 176.277, 89.2524 L 178.411, 86.2813 z "/>
<path style="fill:rgb(56, 52, 255);fill-opacity:1.0;fill-rule:evenodd;stroke:rgb(0, 0, 0);stroke-width:3.0;" d="M 172.594, 180.874 L 175.518, 199.772 L 169.752, 204.754 L 165.213, 185.037 L 169.663, 172.86 z "/>
<path style="fill:rgb(255, 138, 255);fill-opacity:1.0;fill-rule:evenodd;stroke:rgb(0, 0, 0);stroke-width:3.0;" d="M 309.082, 421.806 L 302.557, 433.154 L 291.89, 441.803 L 288.842, 419.649 L 301.03, 414.612 z "/>
<path style="fill:rgb(255, 138, 255);fill-opacity:1.0;fill-rule:evenodd;stroke:rgb(0, 0, 0);stroke-width:3.0;" d="M 551.059, 360.464 L 599.295, 455.671 L 542.276, 483.104 L 529.978, 467.661 L 527.113, 336.716 z "/>
<path style="fill:rgb(255, 138, 255);fill-opacity:1.0;fill-rule:evenodd;stroke:rgb(0, 0, 0);stroke-width:3.0;" d="M 373.409, 221.246 L 367.04, 215.095 L 397.15, 191.105 L 399.014, 190.803 z "/>
<path style="fill:rgb(255, 138, 255);fill-opacity:1.0;fill-rule:evenodd;stroke:rgb(0, 0, 0);stroke-width:3.0;" d="M 300.71, 26.446 L 298.355, 45.8138 L 294.364, 49.5201 L 290.979, 35.6817 L 298.927, 20.9198 z "/>
<path style="fill:rgb(255, 138, 255);fill-opacity:1.0;fill-rule:evenodd;stroke:rgb(0, 0, 0);stroke-width:3.0;" d="M 19.7726, 67.5151 L 23.4461, 81.5659 L 11.0707, 81.4948 L 10.361, 65.1798 L 15.8926, 64.7245 z "/>
<path style="fill:rgb(255, 138, 255);fill-opacity:1.0;fill-rule:evenodd;stroke:rgb(0, 0, 0);stroke-width:3.0;" d="M 551.848, 494.542 L 582.604, 530.337 L 518.349, 543.165 L 538.568, 492.827 z "/>
<path style="fill:rgb(255, 152, 13);fill-opacity:1.0;fill-rule:evenodd;stroke:rgb(0, 0, 0);stroke-width:3.0;" d="M 309.772, 158.217 L 283.495, 188.643 L 280.569, 165.731 L 290.779, 143.844 z "/>
<path style="fill:rgb(255, 152, 13);fill-opacity:1.0;fill-rule:evenodd;stroke:rgb(0, 0, 0);stroke-width:3.0;" d="M 509.71, 152.775 L 469.4, 495.135 L 441.418, 462.553 L 439.79, 457.506 L 473.462, 102.291 L 473.864, 101.814 z "/>
<path style="fill:rgb(255, 152, 13);fill-opacity:1.0;fill-rule:evenodd;stroke:rgb(0, 0, 0);stroke-width:3.0;" d="M 296.181, 15.4031 L 290.489, 25.7805 L 283.22, 28.631 L 264.555, 30.0443 L 282.628, 14.8556 z "/>
<path style="fill:rgb(243, 32, 92);fill-opacity:1.0;fill-rule:evenodd;stroke:rgb(0, 0, 0);stroke-width:3.0;" d="M 527.113, 336.716 L 529.978, 467.661 L 480.021, 404.93 L 492.137, 302.028 z "/>
<path style="fill:rgb(115, 255, 134);fill-opacity:1.0;fill-rule:evenodd;stroke:rgb(0, 0, 0);stroke-width:3.0;" d="M 406.475, 545.358 L 379.496, 532.507 L 381.754, 522.528 L 403.889, 520.798 z "/>
<path style="fill:rgb(115, 255, 134);fill-opacity:1.0;fill-rule:evenodd;stroke:rgb(0, 0, 0);stroke-width:3.0;" d="M 513.271, 285.88 L 551.059, 360.464 L 492.137, 302.028 L 494.266, 283.948 z "/>
<path style="fill:rgb(115, 255, 134);fill-opacity:1.0;fill-rule:evenodd;stroke:rgb(0, 0, 0);stroke-width:3.0;" d="M 424.413, 160.607 L 347.949, 172.858 L 343.805, 160.013 L 433.946, 149.273 z "/>
<path style="fill:rgb(16, 14, 199);fill-opacity:1.0;fill-rule:evenodd;stroke:rgb(0, 0, 0);stroke-width:3.0;" d="M 314.978, 70.6705 L 309.439, 79.0968 L 299.218, 45.0124 L 304.975, 39.6653 z "/>
<path style="fill:rgb(255, 8, 110);fill-opacity:1.0;fill-rule:evenodd;stroke:rgb(0, 0, 0);stroke-width:3.0;" d="M 532.991, 472.594 L 541.42, 482.405 L 533.866, 488.087 L 525.094, 479.135 L 531.76, 472.297 z "/>
<path style="fill:rgb(255, 8, 110);fill-opacity:1.0;fill-rule:evenodd;stroke:rgb(0, 0, 0);stroke-width:3.0;" d="M 34.6895, 81.6305 L 14.05, 149.984 L 11.0707, 81.4948 z "/>
<path style="fill:rgb(10, 175, 255);fill-opacity:1.0;fill-rule:evenodd;stroke:rgb(0, 0, 0);stroke-width:3.0;" d="M 165.983, 108.42 L 98.746, 106.957 L 135.113, 62.4697 L 136.811, 61.6322 z "/>
<path style="fill:rgb(10, 175, 255);fill-opacity:1.0;fill-rule:evenodd;stroke:rgb(0, 0, 0);stroke-width:3.0;" d="M 206.536, 55.6194 L 208.42, 98.3298 L 199.23, 90.0702 L 200.113, 56.076 L 202.269, 53.0748 z "/>
<path style="fill:rgb(10, 175, 255);fill-opacity:1.0;fill-rule:evenodd;stroke:rgb(0, 0, 0);stroke-width:3.0;" d="M 65.2927, 290.695 L 64.6457, 314.484 L 54.5803, 317.608 L 51.1502, 289.466 z "/>
<path style="fill:rgb(10, 175, 255);fill-opacity:1.0;fill-rule:evenodd;stroke:rgb(0, 0, 0);stroke-width:3.0;" d="M 273.363, 231.982 L 263.955, 216.785 L 265.003, 211.216 L 292.943, 192.921 z "/>
<path style="fill:rgb(10, 175, 255);fill-opacity:1.0;fill-rule:evenodd;stroke:rgb(0, 0, 0);stroke-width:3.0;" d="M 203.632, 184.141 L 194.397, 185.694 L 190.704, 180.498 L 191.525, 179.74 L 210.169, 172.222 z "/>
<path style="fill:rgb(10, 175, 255);fill-opacity:1.0;fill-rule:evenodd;stroke:rgb(0, 0, 0);stroke-width:3.0;" d="M 367.04, 215.095 L 364.548, 212.688 L 378.805, 194.072 L 397.15, 191.105 z "/>
<path style="fill:rgb(10, 175, 255);fill-opacity:1.0;fill-rule:evenodd;stroke:rgb(0, 0, 0);stroke-width:3.0;" d="M 619.359, 585.649 L 608.872, 587.768 L 598.624, 560.201 z "/>
<path style="fill:rgb(10, 175, 255);fill-opacity:1.0;fill-rule:evenodd;stroke:rgb(0, 0, 0);stroke-width:3.0;" d="M 25.3343, 27.2092 L 40.3032, 42.7013 L 16.6276, 57.5764 L 12.2815, 26.5794 z "/>
<path style="fill:rgb(234, 255, 119);fill-opacity:1.0;fill-rule:evenodd;stroke:rgb(0, 0, 0);stroke-width:3.0;" d="M 479.333, 580.065 L 423.589, 553.511 L 432.802, 435.849 z "/>
<path style="fill:rgb(234, 255, 119);fill-opacity:1.0;fill-rule:evenodd;stroke:rgb(0, 0, 0);stroke-width:3.0;" d="M 262.573, 150.386 L 250.903, 168.138 L 249.731, 158.913 L 260.458, 145.985 z "/>
<path style="fill:rgb(240, 32, 18);fill-opacity:1.0;fill-rule:evenodd;stroke:rgb(0, 0, 0);stroke-width:3.0;" d="M 461.05, 485.412 L 450.624, 491.085 L 441.418, 462.553 z "/>
<path style="fill:rgb(240, 32, 18);fill-opacity:1.0;fill-rule:evenodd;stroke:rgb(0, 0, 0);stroke-width:3.0;" d="M 532.278, 471.765 L 523.819, 480.443 L 520.964, 476.812 L 523.286, 461.3 z "/>
<path style="fill:rgb(7, 1, 255);fill-opacity:1.0;fill-rule:evenodd;stroke:rgb(0, 0, 0);stroke-width:3.0;" d="M 260.428, 15.8173 L 260.587, 15.9483 L 238.767, 51.7181 L 228.495, 60.3511 L 223.408, 53.7893 L 254.258, 15.6249 z "/>
<path style="fill:rgb(7, 1, 255);fill-opacity:1.0;fill-rule:evenodd;stroke:rgb(0, 0, 0);stroke-width:3.0;" d="M 380.718, 274.42 L 404.253, 347.364 L 349.984, 542.09 L 266.118, 287.901 L 262.107, 256.326 L 323.127, 237.821 z "/>
<path style="fill:rgb(7, 1, 255);fill-opacity:1.0;fill-rule:evenodd;stroke:rgb(0, 0, 0);stroke-width:3.0;" d="M 121.144, 31.3879 L 132.501, 43.7371 L 90.0934, 53.8605 L 80.2616, 30.9455 L 104.633, 16.3522 z "/>
<path style="fill:rgb(197, 255, 7);fill-opacity:1.0;fill-rule:evenodd;stroke:rgb(0, 0, 0);stroke-width:3.0;" d="M 391.314, 586.717 L 380.686, 587.989 L 378.944, 587.12 L 376.822, 564.984 z "/>
<path style="fill:rgb(255, 249, 25);fill-opacity:1.0;fill-rule:evenodd;stroke:rgb(0, 0, 0);stroke-width:3.0;" d="M 205.731, 37.3854 L 206.536, 55.6194 L 197.911, 50.4759 L 197.481, 27.4976 L 200.546, 27.0719 z "/>
<path style="fill:rgb(82, 255, 228);fill-opacity:1.0;fill-rule:evenodd;stroke:rgb(0, 0, 0);stroke-width:3.0;" d="M 175.195, 42.702 L 145.168, 57.5108 L 101.039, 9.52642 z "/>
<path style="fill:rgb(255, 23, 194);fill-opacity:1.0;fill-rule:evenodd;stroke:rgb(0, 0, 0);stroke-width:3.0;" d="M 80.9178, 56.0508 L 62.5077, 60.4456 L 74.1677, 45.393 z "/>
<path style="fill:rgb(255, 23, 194);fill-opacity:1.0;fill-rule:evenodd;stroke:rgb(0, 0, 0);stroke-width:3.0;" d="M 380.718, 274.42 L 283.166, 212.425 L 330.346, 118.301 z "/>
<path style="fill:rgb(12, 246, 249);fill-opacity:1.0;fill-rule:evenodd;stroke:rgb(0, 0, 0);stroke-width:3.0;" d="M 517.556, 454.631 L 517.279, 457.324 L 493.93, 438.13 L 484.384, 416.023 z "/>
<path style="fill:rgb(255, 255, 20);fill-opacity:1.0;fill-rule:evenodd;stroke:rgb(0, 0, 0);stroke-width:3.0;" d="M 439.79, 457.506 L 366.292, 229.708 L 473.462, 102.291 z "/>
<path style="fill:rgb(252, 24, 194);fill-opacity:1.0;fill-rule:evenodd;stroke:rgb(0, 0, 0);stroke-width:3.0;" d="M 521.014, 45.7564 L 518.131, 49.1835 L 421.619, 78.3037 L 377.965, 84.6997 L 448.218, 26.5541 z "/>
<path style="fill:rgb(212, 3, 30);fill-opacity:1.0;fill-rule:evenodd;stroke:rgb(0, 0, 0);stroke-width:3.0;" d="M 432.802, 435.849 L 423.589, 553.511 L 406.475, 545.358 L 396.984, 455.235 L 414.329, 378.594 z "/>
<path style="fill:rgb(212, 3, 30);fill-opacity:1.0;fill-rule:evenodd;stroke:rgb(0, 0, 0);stroke-width:3.0;" d="M 509.161, 18.3015 L 522.584, 43.4297 L 522.522, 43.9638 L 521.948, 44.6455 L 501.242, 16.6223 L 502.872, 13.7429 z "/>
<path style="fill:rgb(150, 12, 255);fill-opacity:1.0;fill-rule:evenodd;stroke:rgb(0, 0, 0);stroke-width:3.0;" d="M 261.902, 63.2969 L 253.561, 70.7907 L 250.871, 64.1548 L 255.84, 55.8629 L 262.53, 51.2263 z "/>
<path style="fill:rgb(150, 12, 255);fill-opacity:1.0;fill-rule:evenodd;stroke:rgb(0, 0, 0);stroke-width:3.0;" d="M 274.634, 84.4666 L 264.118, 98.5163 L 263.389, 98.2181 L 259.223, 82.7854 L 259.457, 82.3598 z "/>
<path style="fill:rgb(150, 12, 255);fill-opacity:1.0;fill-rule:evenodd;stroke:rgb(0, 0, 0);stroke-width:3.0;" d="M 624.2, 578.748 L 606.6, 569.99 L 598.624, 560.201 L 591.271, 540.424 z "/>
<path style="fill:rgb(255, 144, 16);fill-opacity:1.0;fill-rule:evenodd;stroke:rgb(0, 0, 0);stroke-width:3.0;" d="M 440.913, 140.989 L 433.946, 149.273 L 343.805, 160.013 L 331.826, 122.888 L 365.083, 95.362 L 370.276, 93.7951 z "/>
<path style="fill:rgb(12, 30, 246);fill-opacity:1.0;fill-rule:evenodd;stroke:rgb(0, 0, 0);stroke-width:3.0;" d="M 492.816, 79.2811 L 440.913, 140.989 L 370.276, 93.7951 L 428.243, 76.3051 z "/>
<path style="fill:rgb(184, 45, 234);fill-opacity:1.0;fill-rule:evenodd;stroke:rgb(0, 0, 0);stroke-width:3.0;" d="M 195.448, 10.26 L 195.122, 25.3127 L 191.308, 26.765 L 188.636, 13.7115 L 191.813, 5.98662 L 194.307, 5.50516 z "/>
<path style="fill:rgb(243, 215, 9);fill-opacity:1.0;fill-rule:evenodd;stroke:rgb(0, 0, 0);stroke-width:3.0;" d="M 400.249, 486.24 L 388.44, 492.985 L 396.984, 455.235 z "/>
<path style="fill:rgb(243, 215, 9);fill-opacity:1.0;fill-rule:evenodd;stroke:rgb(0, 0, 0);stroke-width:3.0;" d="M 171.759, 104.744 L 171.757, 104.762 L 142.988, 58.586 L 152.026, 54.1285 z "/>
<path style="fill:rgb(243, 215, 9);fill-opacity:1.0;fill-rule:evenodd;stroke:rgb(0, 0, 0);stroke-width:3.0;" d="M 772.559, 341.161 L 763.486, 353.375 L 759.945, 286.165 L 763.35, 284.845 L 789.97, 283.362 z "/>
<path style="fill:rgb(25, 6, 255);fill-opacity:1.0;fill-rule:evenodd;stroke:rgb(0, 0, 0);stroke-width:3.0;" d="M 760.58, 322.555 L 754.397, 331.784 L 745.948, 294.284 L 757.951, 292.916 z "/>
<path style="fill:rgb(255, 154, 13);fill-opacity:1.0;fill-rule:evenodd;stroke:rgb(0, 0, 0);stroke-width:3.0;" d="M 320.009, 86.2621 L 330.346, 118.301 L 323.284, 132.39 L 310.505, 140.494 L 281.993, 120.846 L 308.112, 81.116 z "/>
<path style="fill:rgb(255, 154, 13);fill-opacity:1.0;fill-rule:evenodd;stroke:rgb(0, 0, 0);stroke-width:3.0;" d="M 705.288, 239.027 L 694.667, 216.495 L 745.069, 128.139 z "/>
<path style="fill:rgb(255, 154, 13);fill-opacity:1.0;fill-rule:evenodd;stroke:rgb(0, 0, 0);stroke-width:3.0;" d="M 492.369, 555.778 L 473.732, 562.704 L 466.205, 539.377 L 486.784, 515.839 z "/>
<path style="fill:rgb(204, 223, 7);fill-opacity:1.0;fill-rule:evenodd;stroke:rgb(0, 0, 0);stroke-width:3.0;" d="M 401.424, 581.57 L 385.166, 577.497 L 379.559, 569.088 L 386.255, 568.373 L 390.838, 568.318 z "/>
<path style="fill:rgb(204, 223, 7);fill-opacity:1.0;fill-rule:evenodd;stroke:rgb(0, 0, 0);stroke-width:3.0;" d="M 486.784, 515.839 L 466.205, 539.377 L 464.73, 534.804 L 476.023, 438.888 z "/>
<path style="fill:rgb(76, 187, 255);fill-opacity:1.0;fill-rule:evenodd;stroke:rgb(0, 0, 0);stroke-width:3.0;" d="M 217.569, 79.6233 L 231.511, 100.115 L 229.454, 101.794 L 214.824, 92.7636 L 209.481, 84.1843 L 213.73, 78.226 z "/>
<path style="fill:rgb(249, 192, 28);fill-opacity:1.0;fill-rule:evenodd;stroke:rgb(0, 0, 0);stroke-width:3.0;" d="M 197.17, 195.922 L 193.036, 195.676 L 185.984, 190.234 L 185.942, 190.068 L 185.663, 187.163 L 203.632, 184.141 z "/>
<path style="fill:rgb(249, 192, 28);fill-opacity:1.0;fill-rule:evenodd;stroke:rgb(0, 0, 0);stroke-width:3.0;" d="M 261.289, 46.7693 L 253.249, 60.1866 L 249.312, 43.4693 L 252.021, 41.524 z "/>
<path style="fill:rgb(249, 192, 28);fill-opacity:1.0;fill-rule:evenodd;stroke:rgb(0, 0, 0);stroke-width:3.0;" d="M 468.311, 574.814 L 460.997, 587.751 L 409.069, 579.748 L 409.632, 576.52 L 432.741, 557.87 z "/>
<path style="fill:rgb(255, 20, 25);fill-opacity:1.0;fill-rule:evenodd;stroke:rgb(0, 0, 0);stroke-width:3.0;" d="M 591.271, 540.424 L 595.067, 550.635 L 578.908, 592.322 L 563.294, 594.852 L 579.706, 530.915 L 582.604, 530.337 z "/>
<path style="fill:rgb(255, 144, 9);fill-opacity:1.0;fill-rule:evenodd;stroke:rgb(0, 0, 0);stroke-width:3.0;" d="M 588.768, 65.271 L 519.421, 70.2966 L 525.928, 15.0345 z "/>
<path style="fill:rgb(255, 144, 9);fill-opacity:1.0;fill-rule:evenodd;stroke:rgb(0, 0, 0);stroke-width:3.0;" d="M 79.2756, 90.008 L 60.1874, 99.4221 L 49.2465, 93.9184 L 47.8151, 87.1169 L 77.2524, 80.0051 z "/>
<path style="fill:rgb(255, 202, 10);fill-opacity:1.0;fill-rule:evenodd;stroke:rgb(0, 0, 0);stroke-width:3.0;" d="M 618.361, 246.472 L 632.583, 329.898 L 546.101, 237.821 L 547.831, 187.143 z "/>
<path style="fill:rgb(217, 0, 209);fill-opacity:1.0;fill-rule:evenodd;stroke:rgb(0, 0, 0);stroke-width:3.0;" d="M 500.754, 261.173 L 513.271, 285.88 L 494.266, 283.948 L 497.144, 259.504 z "/>
<path style="fill:rgb(252, 45, 255);fill-opacity:1.0;fill-rule:evenodd;stroke:rgb(0, 0, 0);stroke-width:3.0;" d="M 271.934, 45.7759 L 267.5, 59.5614 L 262.318, 55.3016 L 262.887, 44.3651 L 266.312, 38.1848 z "/>
<path style="fill:rgb(252, 45, 255);fill-opacity:1.0;fill-rule:evenodd;stroke:rgb(0, 0, 0);stroke-width:3.0;" d="M 282.488, 75.2137 L 282.925, 76.4318 L 279.666, 85.1554 L 270.858, 81.2177 L 268.05, 73.9603 L 269.198, 72.8935 z "/>
<path style="fill:rgb(7, 48, 255);fill-opacity:1.0;fill-rule:evenodd;stroke:rgb(0, 0, 0);stroke-width:3.0;" d="M 47.3164, 258.013 L 54.5803, 317.608 L 40.6237, 321.939 L 37.8882, 243.662 z "/>
<path style="fill:rgb(255, 223, 49);fill-opacity:1.0;fill-rule:evenodd;stroke:rgb(0, 0, 0);stroke-width:3.0;" d="M 299.197, 86.1566 L 292.395, 88.4192 L 284.051, 79.5742 L 278.926, 65.2749 L 279.396, 63.422 L 287.372, 56.0143 z "/>
<path style="fill:rgb(255, 223, 49);fill-opacity:1.0;fill-rule:evenodd;stroke:rgb(0, 0, 0);stroke-width:3.0;" d="M 434.62, 37.0351 L 427.844, 43.4168 L 418.098, 51.4836 L 414.384, 49.8033 L 416.495, 40.1722 L 434.08, 35.9704 z "/>
<path style="fill:rgb(207, 30, 8);fill-opacity:1.0;fill-rule:evenodd;stroke:rgb(0, 0, 0);stroke-width:3.0;" d="M 702.898, 233.956 L 768.22, 372.529 L 509.463, 154.869 L 518.908, 74.6568 z "/>
<path style="fill:rgb(83, 237, 255);fill-opacity:1.0;fill-rule:evenodd;stroke:rgb(0, 0, 0);stroke-width:3.0;" d="M 512.433, 31.7683 L 521.948, 44.6455 L 521.014, 45.7564 L 499.607, 40.1096 L 506.265, 24.9629 z "/>
<path style="fill:rgb(83, 237, 255);fill-opacity:1.0;fill-rule:evenodd;stroke:rgb(0, 0, 0);stroke-width:3.0;" d="M 507.666, 550.639 L 490.453, 542.08 L 484.638, 500.497 L 515.401, 475.553 z "/>
<path style="fill:rgb(83, 237, 255);fill-opacity:1.0;fill-rule:evenodd;stroke:rgb(0, 0, 0);stroke-width:3.0;" d="M 603.364, 476.924 L 589.992, 477.501 L 579.679, 465.109 L 583.619, 463.213 z "/>
<path style="fill:rgb(83, 237, 255);fill-opacity:1.0;fill-rule:evenodd;stroke:rgb(0, 0, 0);stroke-width:3.0;" d="M 428.407, 555.806 L 377.618, 540.802 L 377.961, 539.286 L 390.91, 537.944 z "/>
<path style="fill:rgb(223, 5, 32);fill-opacity:1.0;fill-rule:evenodd;stroke:rgb(0, 0, 0);stroke-width:3.0;" d="M 263.329, 215.773 L 270.543, 237.609 L 261.915, 254.82 L 257.353, 218.912 L 261.966, 213.572 z "/>
<path style="fill:rgb(119, 100, 249);fill-opacity:1.0;fill-rule:evenodd;stroke:rgb(0, 0, 0);stroke-width:3.0;" d="M 103.05, 73.7727 L 55.1892, 85.3354 L 43.9631, 64.8725 L 98.8778, 51.7635 z "/>
<path style="fill:rgb(7, 246, 255);fill-opacity:1.0;fill-rule:evenodd;stroke:rgb(0, 0, 0);stroke-width:3.0;" d="M 296.76, 131.022 L 280.569, 165.731 L 279.874, 160.286 L 285.039, 122.945 z "/>
<path style="fill:rgb(25, 220, 226);fill-opacity:1.0;fill-rule:evenodd;stroke:rgb(0, 0, 0);stroke-width:3.0;" d="M 210.262, 162.441 L 200.771, 171.203 L 185.436, 169.329 L 193.372, 158.533 L 210.417, 157.997 z "/>
<path style="fill:rgb(168, 204, 25);fill-opacity:1.0;fill-rule:evenodd;stroke:rgb(0, 0, 0);stroke-width:3.0;" d="M 368.384, 536.762 L 351.917, 535.15 L 376.812, 445.826 L 381.282, 444.334 z "/>
<path style="fill:rgb(168, 204, 25);fill-opacity:1.0;fill-rule:evenodd;stroke:rgb(0, 0, 0);stroke-width:3.0;" d="M 316.984, 144.959 L 311.121, 156.655 L 309.772, 158.217 L 290.779, 143.844 L 296.76, 131.022 z "/>
<path style="fill:rgb(212, 175, 8);fill-opacity:1.0;fill-rule:evenodd;stroke:rgb(0, 0, 0);stroke-width:3.0;" d="M 279.481, 157.206 L 283.495, 188.643 L 257.353, 218.912 L 250.903, 168.138 L 266.828, 143.913 z "/>
<path style="fill:rgb(11, 255, 130);fill-opacity:1.0;fill-rule:evenodd;stroke:rgb(0, 0, 0);stroke-width:3.0;" d="M 538.568, 492.827 L 518.349, 543.165 L 517, 543.435 L 512.535, 533.134 L 518.947, 490.294 z "/>
<path style="fill:rgb(11, 255, 130);fill-opacity:1.0;fill-rule:evenodd;stroke:rgb(0, 0, 0);stroke-width:3.0;" d="M 684.069, 301.743 L 654.31, 353.03 L 649.667, 348.087 L 673.401, 292.769 z "/>
<path style="fill:rgb(255, 215, 22);fill-opacity:1.0;fill-rule:evenodd;stroke:rgb(0, 0, 0);stroke-width:3.0;" d="M 198.818, 105.93 L 197.766, 146.46 L 190.077, 147.091 L 182.126, 105.647 z "/>
<path style="fill:rgb(246, 24, 22);fill-opacity:1.0;fill-rule:evenodd;stroke:rgb(0, 0, 0);stroke-width:3.0;" d="M 171.757, 104.762 L 171.323, 108.536 L 165.983, 108.42 L 136.811, 61.6322 L 142.988, 58.586 z "/>
<path style="fill:rgb(16, 2, 97);fill-opacity:1.0;fill-rule:evenodd;stroke:rgb(0, 0, 0);stroke-width:3.0;" d="M 209.168, 115.291 L 211.051, 157.977 L 210.016, 158.009 L 197.747, 147.187 L 198.092, 133.915 L 208.381, 114.673 z "/>
<path style="fill:rgb(15, 177, 252);fill-opacity:1.0;fill-rule:evenodd;stroke:rgb(0, 0, 0);stroke-width:3.0;" d="M 208.381, 114.673 L 198.092, 133.915 L 198.787, 107.135 z "/>
<path style="fill:rgb(255, 7, 85);fill-opacity:1.0;fill-rule:evenodd;stroke:rgb(0, 0, 0);stroke-width:3.0;" d="M 569.865, 569.25 L 509.512, 553.332 L 510.808, 544.671 L 579.706, 530.915 z "/>
<path style="fill:rgb(243, 5, 30);fill-opacity:1.0;fill-rule:evenodd;stroke:rgb(0, 0, 0);stroke-width:3.0;" d="M 162.476, 185.505 L 151.762, 278.712 L 145.988, 289.239 L 124.631, 295.867 L 152.569, 176.255 z "/>
<path style="fill:rgb(43, 255, 255);fill-opacity:1.0;fill-rule:evenodd;stroke:rgb(0, 0, 0);stroke-width:3.0;" d="M 306.364, 68.8416 L 294.171, 73.346 L 287.372, 56.0143 L 299.218, 45.0124 z "/>
<path style="fill:rgb(43, 255, 255);fill-opacity:1.0;fill-rule:evenodd;stroke:rgb(0, 0, 0);stroke-width:3.0;" d="M 517.279, 457.324 L 515.401, 475.553 L 484.638, 500.497 L 476.023, 438.888 L 477.685, 424.776 z "/>
<path style="fill:rgb(52, 136, 255);fill-opacity:1.0;fill-rule:evenodd;stroke:rgb(0, 0, 0);stroke-width:3.0;" d="M 608.766, 587.484 L 578.908, 592.322 L 580.949, 587.056 L 606.133, 580.401 z "/>
<path style="fill:rgb(255, 5, 37);fill-opacity:1.0;fill-rule:evenodd;stroke:rgb(0, 0, 0);stroke-width:3.0;" d="M 198.818, 105.93 L 189.652, 105.775 L 179.524, 92.0804 L 178.788, 88.2432 L 199.433, 82.2496 z "/>
<path style="fill:rgb(255, 240, 74);fill-opacity:1.0;fill-rule:evenodd;stroke:rgb(0, 0, 0);stroke-width:3.0;" d="M 229.454, 101.794 L 221.491, 108.294 L 213.402, 101.273 L 208.168, 92.6227 L 207.988, 88.5443 z "/>
<path style="fill:rgb(255, 240, 74);fill-opacity:1.0;fill-rule:evenodd;stroke:rgb(0, 0, 0);stroke-width:3.0;" d="M 405.562, 417.33 L 392.299, 475.937 L 376.085, 481.576 L 385.348, 415.198 L 388.887, 402.497 z "/>
<path style="fill:rgb(255, 240, 74);fill-opacity:1.0;fill-rule:evenodd;stroke:rgb(0, 0, 0);stroke-width:3.0;" d="M 616.181, 312.435 L 569.829, 397.513 L 497.665, 255.076 L 504.866, 193.918 z "/>
<path style="fill:rgb(255, 240, 74);fill-opacity:1.0;fill-rule:evenodd;stroke:rgb(0, 0, 0);stroke-width:3.0;" d="M 606.133, 580.401 L 602.678, 581.314 L 588.417, 567.792 L 595.067, 550.635 z "/>
<path style="fill:rgb(255, 240, 74);fill-opacity:1.0;fill-rule:evenodd;stroke:rgb(0, 0, 0);stroke-width:3.0;" d="M 366.202, 591.246 L 362.392, 579.699 L 376.085, 481.576 L 392.299, 475.937 z "/>
<path style="fill:rgb(249, 240, 14);fill-opacity:1.0;fill-rule:evenodd;stroke:rgb(0, 0, 0);stroke-width:3.0;" d="M 301.03, 414.612 L 296.521, 416.476 L 288.687, 418.521 L 286.344, 401.491 z "/>
<path style="fill:rgb(255, 2, 24);fill-opacity:1.0;fill-rule:evenodd;stroke:rgb(0, 0, 0);stroke-width:3.0;" d="M 38.146, 58.8416 L 40.4242, 62.6387 L 35.892, 77.6482 L 11.4311, 60.8412 L 24.5798, 52.5801 z "/>
<path style="fill:rgb(255, 2, 24);fill-opacity:1.0;fill-rule:evenodd;stroke:rgb(0, 0, 0);stroke-width:3.0;" d="M 492.816, 79.2811 L 484.219, 78.8849 L 490.289, 57.5843 L 518.131, 49.1835 z "/>
<path style="fill:rgb(255, 2, 24);fill-opacity:1.0;fill-rule:evenodd;stroke:rgb(0, 0, 0);stroke-width:3.0;" d="M 171.323, 108.536 L 167.017, 145.997 L 128.899, 112.972 L 130.568, 107.649 z "/>
<path style="fill:rgb(217, 252, 44);fill-opacity:1.0;fill-rule:evenodd;stroke:rgb(0, 0, 0);stroke-width:3.0;" d="M 287.759, 353.493 L 293.347, 370.43 L 292.607, 378.825 L 283.844, 383.103 L 283.812, 383.09 L 278.689, 345.852 z "/>
<path style="fill:rgb(217, 252, 44);fill-opacity:1.0;fill-rule:evenodd;stroke:rgb(0, 0, 0);stroke-width:3.0;" d="M 509.71, 152.775 L 473.864, 101.814 L 522.522, 43.9638 z "/>
<path style="fill:rgb(255, 134, 16);fill-opacity:1.0;fill-rule:evenodd;stroke:rgb(0, 0, 0);stroke-width:3.0;" d="M 91.9203, 306.019 L 64.6457, 314.484 L 68.3803, 177.155 z "/>
<path style="fill:rgb(255, 134, 16);fill-opacity:1.0;fill-rule:evenodd;stroke:rgb(0, 0, 0);stroke-width:3.0;" d="M 652.097, 274.849 L 673.401, 292.769 L 649.667, 348.087 L 632.583, 329.898 L 619.226, 251.542 z "/>
<path style="fill:rgb(255, 134, 16);fill-opacity:1.0;fill-rule:evenodd;stroke:rgb(0, 0, 0);stroke-width:3.0;" d="M 52.9813, 21.0525 L 50.7519, 28.4355 L 29.3719, 27.404 L 8.44688, 21.1768 L 8.16769, 14.7587 z "/>
<path style="fill:rgb(231, 255, 8);fill-opacity:1.0;fill-rule:evenodd;stroke:rgb(0, 0, 0);stroke-width:3.0;" d="M 122.554, 107.475 L 142.027, 124.346 L 148.805, 150.171 L 127.498, 152.846 L 77.8634, 106.502 z "/>
<path style="fill:rgb(231, 255, 8);fill-opacity:1.0;fill-rule:evenodd;stroke:rgb(0, 0, 0);stroke-width:3.0;" d="M 602.678, 581.314 L 580.949, 587.056 L 588.417, 567.792 z "/>
<path style="fill:rgb(231, 255, 8);fill-opacity:1.0;fill-rule:evenodd;stroke:rgb(0, 0, 0);stroke-width:3.0;" d="M 484.219, 78.8849 L 428.243, 76.3051 L 490.289, 57.5843 z "/>
<path style="fill:rgb(231, 255, 8);fill-opacity:1.0;fill-rule:evenodd;stroke:rgb(0, 0, 0);stroke-width:3.0;" d="M 609.918, 476.641 L 603.364, 476.924 L 583.619, 463.213 L 599.295, 455.671 z "/>
<path style="fill:rgb(231, 255, 8);fill-opacity:1.0;fill-rule:evenodd;stroke:rgb(0, 0, 0);stroke-width:3.0;" d="M 495.901, 581.033 L 496.761, 587.183 L 485.487, 593.758 L 484.61, 578.144 z "/>
<path style="fill:rgb(215, 41, 234);fill-opacity:1.0;fill-rule:evenodd;stroke:rgb(0, 0, 0);stroke-width:3.0;" d="M 299.516, 389.127 L 302.833, 399.18 L 299.123, 404.364 L 290.945, 405.602 L 288.932, 403.804 L 290.083, 394.918 L 293.33, 386.749 z "/>
<path style="fill:rgb(215, 41, 234);fill-opacity:1.0;fill-rule:evenodd;stroke:rgb(0, 0, 0);stroke-width:3.0;" d="M 152.569, 176.255 L 124.631, 295.867 L 91.9203, 306.019 L 68.3803, 177.155 L 70.489, 99.6166 z "/>
<path style="fill:rgb(246, 161, 42);fill-opacity:1.0;fill-rule:evenodd;stroke:rgb(0, 0, 0);stroke-width:3.0;" d="M 413.989, 551.547 L 409.456, 577.529 L 397.547, 574.57 L 387.732, 543.79 z "/>
<path style="fill:rgb(246, 161, 42);fill-opacity:1.0;fill-rule:evenodd;stroke:rgb(0, 0, 0);stroke-width:3.0;" d="M 276.468, 133.617 L 279.481, 157.206 L 266.828, 143.913 L 275.175, 131.217 z "/>
<path style="fill:rgb(255, 209, 243);fill-opacity:1.0;fill-rule:evenodd;stroke:rgb(0, 0, 0);stroke-width:3.0;" d="M 176.528, 63.2553 L 171.759, 104.744 L 152.026, 54.1285 L 162.084, 49.1679 z "/>
<path style="fill:rgb(255, 209, 243);fill-opacity:1.0;fill-rule:evenodd;stroke:rgb(0, 0, 0);stroke-width:3.0;" d="M 114.878, 87.2229 L 98.746, 106.957 L 77.8634, 106.502 L 70.489, 99.6166 L 70.6344, 94.2698 L 106.554, 76.5547 z "/>
<path style="fill:rgb(172, 6, 255);fill-opacity:1.0;fill-rule:evenodd;stroke:rgb(0, 0, 0);stroke-width:3.0;" d="M 114.878, 87.2229 L 106.554, 76.5547 L 135.113, 62.4697 z "/>
<path style="fill:rgb(231, 6, 243);fill-opacity:1.0;fill-rule:evenodd;stroke:rgb(0, 0, 0);stroke-width:3.0;" d="M 493.514, 580.422 L 478.183, 576.5 L 473.732, 562.704 L 491.307, 556.173 z "/>
<path style="fill:rgb(184, 11, 255);fill-opacity:1.0;fill-rule:evenodd;stroke:rgb(0, 0, 0);stroke-width:3.0;" d="M 162.476, 185.505 L 127.498, 152.846 L 166.797, 147.912 z "/>
<path style="fill:rgb(255, 234, 54);fill-opacity:1.0;fill-rule:evenodd;stroke:rgb(0, 0, 0);stroke-width:3.0;" d="M 469.4, 495.135 L 464.73, 534.804 L 450.624, 491.085 L 461.05, 485.412 z "/>
<path style="fill:rgb(220, 1, 8);fill-opacity:1.0;fill-rule:evenodd;stroke:rgb(0, 0, 0);stroke-width:3.0;" d="M 287.636, 410.883 L 292.99, 449.794 L 287.827, 458.772 L 279.07, 389.844 z "/>
<path style="fill:rgb(134, 255, 255);fill-opacity:1.0;fill-rule:evenodd;stroke:rgb(0, 0, 0);stroke-width:3.0;" d="M 274.004, 311.802 L 287.636, 410.883 L 279.07, 389.844 L 266.118, 287.901 z "/>
<path style="fill:rgb(199, 209, 54);fill-opacity:1.0;fill-rule:evenodd;stroke:rgb(0, 0, 0);stroke-width:3.0;" d="M 167.017, 145.997 L 166.797, 147.912 L 148.805, 150.171 L 142.027, 124.346 z "/>
<path style="fill:rgb(255, 27, 124);fill-opacity:1.0;fill-rule:evenodd;stroke:rgb(0, 0, 0);stroke-width:3.0;" d="M 671.894, 371.752 L 632.921, 522.043 L 569.829, 397.513 L 616.181, 312.435 z "/>
<path style="fill:rgb(255, 27, 124);fill-opacity:1.0;fill-rule:evenodd;stroke:rgb(0, 0, 0);stroke-width:3.0;" d="M 642.04, 540.043 L 650.436, 556.613 L 617.831, 571.336 L 545.506, 487.161 L 542.276, 483.104 L 579.679, 465.109 z "/>
<path style="fill:rgb(194, 255, 15);fill-opacity:1.0;fill-rule:evenodd;stroke:rgb(0, 0, 0);stroke-width:3.0;" d="M 362.392, 579.699 L 356.319, 561.291 L 367.217, 545.122 z "/>
<path style="fill:rgb(194, 255, 15);fill-opacity:1.0;fill-rule:evenodd;stroke:rgb(0, 0, 0);stroke-width:3.0;" d="M 694.667, 216.495 L 663.076, 149.48 L 729.143, 99.6193 L 765.624, 92.1059 z "/>
<path style="fill:rgb(78, 223, 255);fill-opacity:1.0;fill-rule:evenodd;stroke:rgb(0, 0, 0);stroke-width:3.0;" d="M 765.624, 92.1059 L 729.143, 99.6193 L 785.676, 56.954 z "/>
<path style="fill:rgb(252, 27, 255);fill-opacity:1.0;fill-rule:evenodd;stroke:rgb(0, 0, 0);stroke-width:3.0;" d="M 368.384, 536.762 L 367.217, 545.122 L 356.319, 561.291 L 349.984, 542.09 L 351.917, 535.15 z "/>
<path style="fill:rgb(105, 255, 209);fill-opacity:1.0;fill-rule:evenodd;stroke:rgb(0, 0, 0);stroke-width:3.0;" d="M 60.3875, 49.051 L 49.6355, 57.9585 L 50.5713, 32.0432 L 61.3197, 22.9307 z "/>
<path style="fill:rgb(105, 255, 209);fill-opacity:1.0;fill-rule:evenodd;stroke:rgb(0, 0, 0);stroke-width:3.0;" d="M 793.188, 313.391 L 779.048, 332.425 L 782.517, 308.104 L 787.913, 290.194 z "/>
<path style="fill:rgb(105, 255, 209);fill-opacity:1.0;fill-rule:evenodd;stroke:rgb(0, 0, 0);stroke-width:3.0;" d="M 70.816, 27.7034 L 64.3125, 45.7995 L 63.3871, 46.5661 L 61.0548, 30.353 L 61.3836, 21.1412 z "/>
<path style="fill:rgb(255, 215, 13);fill-opacity:1.0;fill-rule:evenodd;stroke:rgb(0, 0, 0);stroke-width:3.0;" d="M 284.081, 97.6188 L 277.313, 103.912 L 264.37, 98.6194 L 278.466, 88.4837 z "/>
<path style="fill:rgb(91, 6, 255);fill-opacity:1.0;fill-rule:evenodd;stroke:rgb(0, 0, 0);stroke-width:3.0;" d="M 202.269, 53.0748 L 192.733, 66.3481 L 178.373, 57.2612 L 184.247, 42.3268 z "/>
<path style="fill:rgb(223, 62, 163);fill-opacity:1.0;fill-rule:evenodd;stroke:rgb(0, 0, 0);stroke-width:3.0;" d="M 719.12, 107.184 L 703.514, 118.962 L 707.313, 97.4519 z "/>
<path style="fill:rgb(249, 78, 18);fill-opacity:1.0;fill-rule:evenodd;stroke:rgb(0, 0, 0);stroke-width:3.0;" d="M 256.804, 120.942 L 254.687, 132.493 L 248.55, 129.351 L 249.699, 110.185 z "/>
<path style="fill:rgb(38, 136, 175);fill-opacity:1.0;fill-rule:evenodd;stroke:rgb(0, 0, 0);stroke-width:3.0;" d="M 323.127, 237.821 L 262.107, 256.326 L 261.915, 254.82 L 283.166, 212.425 z "/>
<path style="fill:rgb(255, 44, 13);fill-opacity:1.0;fill-rule:evenodd;stroke:rgb(0, 0, 0);stroke-width:3.0;" d="M 644.312, 109.674 L 658.422, 139.606 L 635.107, 175.263 L 518.908, 74.6568 L 519.421, 70.2966 L 588.768, 65.271 z "/>
<path style="fill:rgb(255, 44, 13);fill-opacity:1.0;fill-rule:evenodd;stroke:rgb(0, 0, 0);stroke-width:3.0;" d="M 247.006, 512.08 L 139.233, 313.319 L 136.538, 306.469 L 212.505, 167.964 z "/>
<path style="fill:rgb(249, 98, 59);fill-opacity:1.0;fill-rule:evenodd;stroke:rgb(0, 0, 0);stroke-width:3.0;" d="M 414.329, 378.594 L 405.562, 417.33 L 388.887, 402.497 L 404.253, 347.364 z "/>
<path style="fill:rgb(33, 152, 255);fill-opacity:1.0;fill-rule:evenodd;stroke:rgb(0, 0, 0);stroke-width:3.0;" d="M 418.836, 167.237 L 399.014, 190.803 L 378.805, 194.072 L 399.99, 166.411 z "/>
<path style="fill:rgb(240, 217, 7);fill-opacity:1.0;fill-rule:evenodd;stroke:rgb(0, 0, 0);stroke-width:3.0;" d="M 279.874, 160.286 L 276.445, 133.434 L 284.585, 126.225 z "/>
<path style="fill:rgb(14, 76, 255);fill-opacity:1.0;fill-rule:evenodd;stroke:rgb(0, 0, 0);stroke-width:3.0;" d="M 122.278, 52.625 L 105.069, 62.2662 L 106.533, 49.9361 L 122.327, 46.1658 z "/>
<path style="fill:rgb(255, 192, 10);fill-opacity:1.0;fill-rule:evenodd;stroke:rgb(0, 0, 0);stroke-width:3.0;" d="M 642.04, 540.043 L 589.992, 477.501 L 609.918, 476.641 z "/>
<path style="fill:rgb(255, 192, 10);fill-opacity:1.0;fill-rule:evenodd;stroke:rgb(0, 0, 0);stroke-width:3.0;" d="M 399.99, 166.411 L 364.548, 212.688 L 359.103, 207.429 L 350.526, 180.847 L 361.462, 170.693 L 390.724, 166.005 z "/>
<path style="fill:rgb(15, 240, 26);fill-opacity:1.0;fill-rule:evenodd;stroke:rgb(0, 0, 0);stroke-width:3.0;" d="M 547.831, 187.143 L 546.101, 237.821 L 508.174, 197.439 L 532.928, 174.607 z "/>
<path style="fill:rgb(159, 249, 255);fill-opacity:1.0;fill-rule:evenodd;stroke:rgb(0, 0, 0);stroke-width:3.0;" d="M 403.202, 514.275 L 403.889, 520.798 L 381.754, 522.528 L 388.44, 492.985 L 390.005, 492.091 z "/>
<path style="fill:rgb(159, 249, 255);fill-opacity:1.0;fill-rule:evenodd;stroke:rgb(0, 0, 0);stroke-width:3.0;" d="M 532.928, 174.607 L 508.174, 197.439 L 504.866, 193.918 L 509.463, 154.869 z "/>
<path style="fill:rgb(249, 255, 10);fill-opacity:1.0;fill-rule:evenodd;stroke:rgb(0, 0, 0);stroke-width:3.0;" d="M 145.168, 57.5108 L 120.976, 69.442 L 104.858, 73.336 L 110.271, 59.3515 L 134.419, 45.8227 z "/>
<path style="fill:rgb(187, 255, 246);fill-opacity:1.0;fill-rule:evenodd;stroke:rgb(0, 0, 0);stroke-width:3.0;" d="M 51.4085, 86.2487 L 31.8697, 90.9691 L 37.3365, 72.8644 z "/>
<path style="fill:rgb(246, 20, 252);fill-opacity:1.0;fill-rule:evenodd;stroke:rgb(0, 0, 0);stroke-width:3.0;" d="M 55.1892, 85.3354 L 51.4085, 86.2487 L 37.3365, 72.8644 L 39.4224, 65.9564 L 43.9631, 64.8725 z "/>
<path style="fill:rgb(71, 249, 223);fill-opacity:1.0;fill-rule:evenodd;stroke:rgb(0, 0, 0);stroke-width:3.0;" d="M 403.202, 514.275 L 390.005, 492.091 L 400.249, 486.24 z "/>
<path style="fill:rgb(100, 255, 249);fill-opacity:1.0;fill-rule:evenodd;stroke:rgb(0, 0, 0);stroke-width:3.0;" d="M 702.898, 233.956 L 635.107, 175.263 L 658.422, 139.606 z "/>
<path style="fill:rgb(215, 119, 9);fill-opacity:1.0;fill-rule:evenodd;stroke:rgb(0, 0, 0);stroke-width:3.0;" d="M 54.8355, 14.9117 L 52.9813, 21.0525 L 22.271, 16.7394 L 27.8759, 12.2492 z "/>
<path style="fill:rgb(192, 255, 234);fill-opacity:1.0;fill-rule:evenodd;stroke:rgb(0, 0, 0);stroke-width:3.0;" d="M 287.506, 196.481 L 266.012, 210.556 L 265.243, 209.777 L 279.307, 193.492 L 286.01, 190.007 z "/>
</svg>