<?xml version="1.0" encoding="iso-8859-1" standalone="no"?>
<!DOCTYPE svg PUBLIC "-//W3C//DTD SVG 1.0//EN" "http://www.w3.org/TR/2001/REC-SVG-20010904/DTD/svg10.dtd">
<svg xmlns="http://www.w3.org/2000/svg" width="800" height="600">
<path style="fill:rgb(0, 0, 0);fill-opacity:0.0;fill-rule:evenodd;stroke:rgb(0, 0, 0);stroke-width:0.0;" d="M 0, 600 L 800, 600 L 800, 0 L 0, 0 z "/>
<path style="fill:rgb(237, 8, 74);fill-opacity:1.0;fill-rule:evenodd;stroke:rgb(0, 0, 0);stroke-width:3.0;" d="M 143.122, 328.953 L 141.61, 329.33 L 108.209, 326.804 L 134.688, 322.507 z "/>
<path style="fill:rgb(237, 8, 74);fill-opacity:1.0;fill-rule:evenodd;stroke:rgb(0, 0, 0);stroke-width:3.0;" d="M 65.1681, 235.944 L 38.7434, 257.889 L 15.9975, 266.749 L 12.3991, 262.378 L 63.5185, 234.202 L 64.3184, 233.9 z "/>
<path style="fill:rgb(237, 8, 74);fill-opacity:1.0;fill-rule:evenodd;stroke:rgb(0, 0, 0);stroke-width:3.0;" d="M 438.199, 540.444 L 425.031, 546.048 L 416.647, 540.354 L 441.14, 536.073 z "/>
<path style="fill:rgb(237, 8, 74);fill-opacity:1.0;fill-rule:evenodd;stroke:rgb(0, 0, 0);stroke-width:3.0;" d="M 604.217, 131.978 L 583.685, 107.925 L 592.622, 106.801 z "/>
<path style="fill:rgb(237, 8, 74);fill-opacity:1.0;fill-rule:evenodd;stroke:rgb(0, 0, 0);stroke-width:3.0;" d="M 267.508, 13.4899 L 257.307, 38.295 L 254.803, 10.717 z "/>
<path style="fill:rgb(255, 66, 199);fill-opacity:1.0;fill-rule:evenodd;stroke:rgb(0, 0, 0);stroke-width:3.0;" d="M 352.794, 338.444 L 324.955, 332.393 L 330.408, 299.717 z "/>
<path style="fill:rgb(255, 66, 199);fill-opacity:1.0;fill-rule:evenodd;stroke:rgb(0, 0, 0);stroke-width:3.0;" d="M 347.234, 198.895 L 340.36, 240.084 L 274.613, 228.902 L 268.374, 160.182 z "/>
<path style="fill:rgb(15, 255, 182);fill-opacity:1.0;fill-rule:evenodd;stroke:rgb(0, 0, 0);stroke-width:3.0;" d="M 780.441, 49.6828 L 776.098, 50.4866 L 757.542, 36.9365 L 763.084, 11.0822 z "/>
<path style="fill:rgb(255, 43, 10);fill-opacity:1.0;fill-rule:evenodd;stroke:rgb(0, 0, 0);stroke-width:3.0;" d="M 12.3991, 262.378 L 6.84085, 255.626 L 63.5185, 234.202 z "/>
<path style="fill:rgb(255, 217, 10);fill-opacity:1.0;fill-rule:evenodd;stroke:rgb(0, 0, 0);stroke-width:3.0;" d="M 715.743, 511.81 L 697.456, 497.774 L 712.165, 489.895 z "/>
<path style="fill:rgb(255, 217, 10);fill-opacity:1.0;fill-rule:evenodd;stroke:rgb(0, 0, 0);stroke-width:3.0;" d="M 324.48, 33.2632 L 310.673, 34.8171 L 300.844, 31.0737 L 325.048, 26.3626 z "/>
<path style="fill:rgb(9, 255, 86);fill-opacity:1.0;fill-rule:evenodd;stroke:rgb(0, 0, 0);stroke-width:3.0;" d="M 374.542, 60.0649 L 365.601, 68.7184 L 355.898, 57.9589 L 371.74, 57.905 z "/>
<path style="fill:rgb(9, 255, 86);fill-opacity:1.0;fill-rule:evenodd;stroke:rgb(0, 0, 0);stroke-width:3.0;" d="M 536.75, 426.997 L 526.854, 433.607 L 518.255, 428.844 L 532.749, 398.586 z "/>
<path style="fill:rgb(9, 255, 86);fill-opacity:1.0;fill-rule:evenodd;stroke:rgb(0, 0, 0);stroke-width:3.0;" d="M 694.613, 233.981 L 712.534, 246.918 L 687.201, 365.104 L 673.443, 353.308 L 662.597, 229.314 z "/>
<path style="fill:rgb(48, 58, 255);fill-opacity:1.0;fill-rule:evenodd;stroke:rgb(0, 0, 0);stroke-width:3.0;" d="M 60.5592, 224.859 L 19.1197, 241.432 L 30.5447, 207.086 L 53.0195, 206.727 z "/>
<path style="fill:rgb(252, 83, 78);fill-opacity:1.0;fill-rule:evenodd;stroke:rgb(0, 0, 0);stroke-width:3.0;" d="M 154.756, 161.541 L 95.6661, 210.615 L 70.1078, 176.531 L 92.7342, 129.497 z "/>
<path style="fill:rgb(231, 98, 34);fill-opacity:1.0;fill-rule:evenodd;stroke:rgb(0, 0, 0);stroke-width:3.0;" d="M 587.574, 67.1947 L 588.397, 70.1069 L 560.658, 78.8082 L 561.388, 75.4703 L 571.051, 66.0161 L 574.031, 64.8635 z "/>
<path style="fill:rgb(231, 98, 34);fill-opacity:1.0;fill-rule:evenodd;stroke:rgb(0, 0, 0);stroke-width:3.0;" d="M 435.119, 449.675 L 431.324, 466.86 L 372.577, 497.745 L 389.859, 444.896 L 390.524, 444.406 z "/>
<path style="fill:rgb(231, 98, 34);fill-opacity:1.0;fill-rule:evenodd;stroke:rgb(0, 0, 0);stroke-width:3.0;" d="M 454.786, 360.614 L 435.119, 449.675 L 357.006, 440.446 L 359.228, 339.843 z "/>
<path style="fill:rgb(252, 237, 9);fill-opacity:1.0;fill-rule:evenodd;stroke:rgb(0, 0, 0);stroke-width:3.0;" d="M 616.653, 103.776 L 552.869, 111.804 L 433.863, 89.2928 L 367.622, 53.1701 z "/>
<path style="fill:rgb(33, 37, 226);fill-opacity:1.0;fill-rule:evenodd;stroke:rgb(0, 0, 0);stroke-width:3.0;" d="M 216.409, 196.056 L 216.824, 206.708 L 187.168, 215.387 L 210.597, 190.75 z "/>
<path style="fill:rgb(255, 217, 58);fill-opacity:1.0;fill-rule:evenodd;stroke:rgb(0, 0, 0);stroke-width:3.0;" d="M 359.366, 544.135 L 306.018, 574.797 L 302.425, 535.223 z "/>
<path style="fill:rgb(255, 217, 58);fill-opacity:1.0;fill-rule:evenodd;stroke:rgb(0, 0, 0);stroke-width:3.0;" d="M 83.4105, 249.163 L 90.5311, 266.191 L 65.2197, 282.84 L 42.3606, 289.674 L 25.7504, 268.68 L 50.8092, 247.869 L 80.904, 245.317 z "/>
<path style="fill:rgb(255, 217, 58);fill-opacity:1.0;fill-rule:evenodd;stroke:rgb(0, 0, 0);stroke-width:3.0;" d="M 210.597, 190.75 L 187.168, 215.387 L 183.79, 216.376 L 177.952, 208.688 L 208.347, 188.696 z "/>
<path style="fill:rgb(255, 114, 22);fill-opacity:1.0;fill-rule:evenodd;stroke:rgb(0, 0, 0);stroke-width:3.0;" d="M 510.081, 213.251 L 502.677, 220.476 L 502.427, 220.442 L 491.596, 208.432 L 499.867, 204.493 z "/>
<path style="fill:rgb(108, 5, 255);fill-opacity:1.0;fill-rule:evenodd;stroke:rgb(0, 0, 0);stroke-width:3.0;" d="M 773.275, 50.2661 L 772.475, 56.7476 L 754.336, 68.2347 L 759.258, 41.8528 z "/>
<path style="fill:rgb(108, 5, 255);fill-opacity:1.0;fill-rule:evenodd;stroke:rgb(0, 0, 0);stroke-width:3.0;" d="M 425.19, 582.5 L 423.85, 584.899 L 407.945, 586.793 L 293.923, 583.903 L 305.52, 579.187 L 353.55, 577.632 z "/>
<path style="fill:rgb(255, 11, 8);fill-opacity:1.0;fill-rule:evenodd;stroke:rgb(0, 0, 0);stroke-width:3.0;" d="M 375.121, 455.762 L 356.363, 469.592 L 356.592, 459.22 L 370.255, 453.236 z "/>
<path style="fill:rgb(255, 11, 8);fill-opacity:1.0;fill-rule:evenodd;stroke:rgb(0, 0, 0);stroke-width:3.0;" d="M 48.3308, 230.739 L 47.2876, 237.376 L 32.2105, 245.349 L 25.1428, 239.023 L 47.5078, 230.079 z "/>
<path style="fill:rgb(255, 11, 8);fill-opacity:1.0;fill-rule:evenodd;stroke:rgb(0, 0, 0);stroke-width:3.0;" d="M 378.449, 576.825 L 305.52, 579.187 L 388.461, 545.457 z "/>
<path style="fill:rgb(246, 255, 54);fill-opacity:1.0;fill-rule:evenodd;stroke:rgb(0, 0, 0);stroke-width:3.0;" d="M 179.356, 207.764 L 147.374, 228.801 L 140.107, 223.211 L 140.189, 212.414 L 150.78, 200.862 z "/>
<path style="fill:rgb(246, 255, 54);fill-opacity:1.0;fill-rule:evenodd;stroke:rgb(0, 0, 0);stroke-width:3.0;" d="M 362.731, 65.5352 L 360.696, 66.6698 L 343.765, 60.672 L 328.265, 33.2273 L 331.775, 31.209 z "/>
<path style="fill:rgb(246, 255, 54);fill-opacity:1.0;fill-rule:evenodd;stroke:rgb(0, 0, 0);stroke-width:3.0;" d="M 711.337, 238.057 L 710.51, 241.078 L 705.808, 242.063 L 691.363, 231.636 L 698.569, 225.054 z "/>
<path style="fill:rgb(246, 255, 54);fill-opacity:1.0;fill-rule:evenodd;stroke:rgb(0, 0, 0);stroke-width:3.0;" d="M 519.188, 429.361 L 521.296, 434.038 L 519.809, 442.328 L 513.889, 451.146 L 481.364, 445.875 L 512.169, 425.472 z "/>
<path style="fill:rgb(246, 255, 54);fill-opacity:1.0;fill-rule:evenodd;stroke:rgb(0, 0, 0);stroke-width:3.0;" d="M 147.374, 228.801 L 93.3137, 264.36 L 71.415, 230.755 L 109.161, 199.407 z "/>
<path style="fill:rgb(240, 249, 29);fill-opacity:1.0;fill-rule:evenodd;stroke:rgb(0, 0, 0);stroke-width:3.0;" d="M 476.729, 445.51 L 549.645, 479.908 L 472.168, 511.416 L 431.475, 466.177 L 437.401, 439.341 z "/>
<path style="fill:rgb(240, 249, 29);fill-opacity:1.0;fill-rule:evenodd;stroke:rgb(0, 0, 0);stroke-width:3.0;" d="M 140.107, 223.211 L 116.702, 205.208 L 140.468, 175.812 z "/>
<path style="fill:rgb(255, 54, 220);fill-opacity:1.0;fill-rule:evenodd;stroke:rgb(0, 0, 0);stroke-width:3.0;" d="M 287.299, 30.376 L 258.264, 39.3618 L 257.419, 39.5263 L 257.307, 38.295 L 261.962, 26.976 L 282.936, 24.7762 z "/>
<path style="fill:rgb(255, 54, 220);fill-opacity:1.0;fill-rule:evenodd;stroke:rgb(0, 0, 0);stroke-width:3.0;" d="M 738.114, 45.8263 L 731.71, 72.1823 L 678.631, 76.9218 L 731.39, 7.70369 z "/>
<path style="fill:rgb(255, 54, 220);fill-opacity:1.0;fill-rule:evenodd;stroke:rgb(0, 0, 0);stroke-width:3.0;" d="M 407.301, 491.559 L 399.8, 487.17 L 398.507, 484.112 L 415.181, 475.347 z "/>
<path style="fill:rgb(255, 54, 220);fill-opacity:1.0;fill-rule:evenodd;stroke:rgb(0, 0, 0);stroke-width:3.0;" d="M 572.887, 298.574 L 671.271, 407.671 L 352.794, 338.444 L 330.408, 299.717 L 361.677, 112.347 z "/>
<path style="fill:rgb(255, 54, 220);fill-opacity:1.0;fill-rule:evenodd;stroke:rgb(0, 0, 0);stroke-width:3.0;" d="M 19.1992, 241.193 L 12.7012, 207.37 L 30.5447, 207.086 z "/>
<path style="fill:rgb(45, 46, 252);fill-opacity:1.0;fill-rule:evenodd;stroke:rgb(0, 0, 0);stroke-width:3.0;" d="M 688.956, 167.667 L 647.614, 186.655 L 657.724, 164.303 L 689.216, 163.848 z "/>
<path style="fill:rgb(45, 46, 252);fill-opacity:1.0;fill-rule:evenodd;stroke:rgb(0, 0, 0);stroke-width:3.0;" d="M 394.658, 489.99 L 397.139, 541.928 L 382.723, 547.791 L 302.425, 535.223 L 302.373, 534.652 L 393.573, 486.706 z "/>
<path style="fill:rgb(237, 246, 22);fill-opacity:1.0;fill-rule:evenodd;stroke:rgb(0, 0, 0);stroke-width:3.0;" d="M 410.075, 536.667 L 397.139, 541.928 L 394.658, 489.99 z "/>
<path style="fill:rgb(25, 132, 234);fill-opacity:1.0;fill-rule:evenodd;stroke:rgb(0, 0, 0);stroke-width:3.0;" d="M 421.717, 510.365 L 420.907, 514.034 L 410.118, 511.563 L 404.283, 497.769 L 415.181, 475.347 L 416.26, 474.78 z "/>
<path style="fill:rgb(25, 132, 234);fill-opacity:1.0;fill-rule:evenodd;stroke:rgb(0, 0, 0);stroke-width:3.0;" d="M 168.683, 152.486 L 175.283, 174.14 L 140.189, 212.414 L 140.487, 173.392 L 167.242, 151.171 z "/>
<path style="fill:rgb(255, 255, 8);fill-opacity:1.0;fill-rule:evenodd;stroke:rgb(0, 0, 0);stroke-width:3.0;" d="M 652.757, 484.905 L 597.311, 488.503 L 606.409, 456.824 L 622.56, 450.256 z "/>
<path style="fill:rgb(105, 69, 255);fill-opacity:1.0;fill-rule:evenodd;stroke:rgb(0, 0, 0);stroke-width:3.0;" d="M 82.6469, 221.427 L 65.1681, 235.944 L 27.9903, 146.534 z "/>
<path style="fill:rgb(105, 69, 255);fill-opacity:1.0;fill-rule:evenodd;stroke:rgb(0, 0, 0);stroke-width:3.0;" d="M 590.387, 463.34 L 549.645, 479.908 L 476.729, 445.51 z "/>
<path style="fill:rgb(105, 69, 255);fill-opacity:1.0;fill-rule:evenodd;stroke:rgb(0, 0, 0);stroke-width:3.0;" d="M 441.339, 535.777 L 437.354, 536.735 L 410.141, 541.491 L 407.101, 537.877 L 438.931, 524.933 L 448.925, 524.5 z "/>
<path style="fill:rgb(105, 69, 255);fill-opacity:1.0;fill-rule:evenodd;stroke:rgb(0, 0, 0);stroke-width:3.0;" d="M 195.568, 243.869 L 182.637, 247.734 L 181.394, 232.306 L 182.016, 228.364 L 209.814, 213.454 z "/>
<path style="fill:rgb(105, 69, 255);fill-opacity:1.0;fill-rule:evenodd;stroke:rgb(0, 0, 0);stroke-width:3.0;" d="M 208.347, 188.696 L 204.211, 191.415 L 188.811, 180.905 L 190.466, 172.372 z "/>
<path style="fill:rgb(105, 69, 255);fill-opacity:1.0;fill-rule:evenodd;stroke:rgb(0, 0, 0);stroke-width:3.0;" d="M 749.239, 165.032 L 729.365, 168.394 L 733.17, 150.643 z "/>
<path style="fill:rgb(204, 2, 23);fill-opacity:1.0;fill-rule:evenodd;stroke:rgb(0, 0, 0);stroke-width:3.0;" d="M 343.765, 60.672 L 319.392, 52.0374 L 323.131, 36.1794 L 328.265, 33.2273 z "/>
<path style="fill:rgb(204, 2, 23);fill-opacity:1.0;fill-rule:evenodd;stroke:rgb(0, 0, 0);stroke-width:3.0;" d="M 116.702, 205.208 L 109.161, 199.407 L 123.179, 187.766 L 132.118, 186.14 z "/>
<path style="fill:rgb(204, 2, 23);fill-opacity:1.0;fill-rule:evenodd;stroke:rgb(0, 0, 0);stroke-width:3.0;" d="M 662.597, 229.314 L 665.088, 257.798 L 604.146, 293.897 L 501.412, 205.819 z "/>
<path style="fill:rgb(204, 2, 23);fill-opacity:1.0;fill-rule:evenodd;stroke:rgb(0, 0, 0);stroke-width:3.0;" d="M 750.93, 146.65 L 739.97, 156.732 L 733.17, 150.643 L 733.961, 146.954 L 747.451, 141.385 z "/>
<path style="fill:rgb(204, 2, 23);fill-opacity:1.0;fill-rule:evenodd;stroke:rgb(0, 0, 0);stroke-width:3.0;" d="M 725.564, 186.128 L 720.35, 205.161 L 691.363, 231.636 L 684.925, 226.989 L 688.903, 168.453 L 733.581, 148.728 z "/>
<path style="fill:rgb(204, 2, 23);fill-opacity:1.0;fill-rule:evenodd;stroke:rgb(0, 0, 0);stroke-width:3.0;" d="M 662.141, 505.624 L 667.42, 510.611 L 546.502, 561.717 L 456.441, 526.561 L 462.765, 515.24 L 515.452, 493.814 L 634.422, 486.095 z "/>
<path style="fill:rgb(42, 246, 255);fill-opacity:1.0;fill-rule:evenodd;stroke:rgb(0, 0, 0);stroke-width:3.0;" d="M 721.553, 561.757 L 708.057, 594.399 L 650.959, 592.951 L 678.68, 521.25 z "/>
<path style="fill:rgb(42, 246, 255);fill-opacity:1.0;fill-rule:evenodd;stroke:rgb(0, 0, 0);stroke-width:3.0;" d="M 737.224, 191.161 L 725.453, 186.645 L 728.334, 173.205 L 746.774, 172.362 z "/>
<path style="fill:rgb(98, 123, 255);fill-opacity:1.0;fill-rule:evenodd;stroke:rgb(0, 0, 0);stroke-width:3.0;" d="M 588.623, 177.317 L 579.142, 176.949 L 573.402, 169.473 L 585.608, 163.66 z "/>
<path style="fill:rgb(9, 27, 204);fill-opacity:1.0;fill-rule:evenodd;stroke:rgb(0, 0, 0);stroke-width:3.0;" d="M 218.856, 258.946 L 204.012, 245.515 L 203.784, 241.412 L 218.008, 237.159 z "/>
<path style="fill:rgb(13, 226, 154);fill-opacity:1.0;fill-rule:evenodd;stroke:rgb(0, 0, 0);stroke-width:3.0;" d="M 701.174, 517.269 L 717.335, 557.771 L 694.308, 536.016 L 692.139, 533.247 L 690.733, 510.102 z "/>
<path style="fill:rgb(13, 226, 154);fill-opacity:1.0;fill-rule:evenodd;stroke:rgb(0, 0, 0);stroke-width:3.0;" d="M 58.5417, 286.541 L 69.2034, 295.565 L 66.2159, 305.309 L 39.1826, 290.624 L 55.9612, 285.608 z "/>
<path style="fill:rgb(13, 226, 154);fill-opacity:1.0;fill-rule:evenodd;stroke:rgb(0, 0, 0);stroke-width:3.0;" d="M 755.046, 91.918 L 764.349, 97.543 L 764.35, 97.5433 L 757.304, 107.061 L 752.557, 106.162 L 748.941, 103.042 L 747.488, 89.1335 z "/>
<path style="fill:rgb(13, 226, 154);fill-opacity:1.0;fill-rule:evenodd;stroke:rgb(0, 0, 0);stroke-width:3.0;" d="M 372.577, 497.745 L 355.543, 506.699 L 356.363, 469.592 L 389.859, 444.896 z "/>
<path style="fill:rgb(13, 226, 154);fill-opacity:1.0;fill-rule:evenodd;stroke:rgb(0, 0, 0);stroke-width:3.0;" d="M 755.407, 516.724 L 755.339, 517.302 L 734.755, 497.724 L 743.966, 495.995 z "/>
<path style="fill:rgb(66, 255, 228);fill-opacity:1.0;fill-rule:evenodd;stroke:rgb(0, 0, 0);stroke-width:3.0;" d="M 526.437, 106.804 L 492.47, 119.406 L 489.72, 119.752 L 433.863, 89.2928 z "/>
<path style="fill:rgb(66, 255, 228);fill-opacity:1.0;fill-rule:evenodd;stroke:rgb(0, 0, 0);stroke-width:3.0;" d="M 523.064, 375.455 L 529.428, 390.112 L 507.914, 393.971 L 500.536, 392.734 L 488.417, 367.924 z "/>
<path style="fill:rgb(255, 252, 34);fill-opacity:1.0;fill-rule:evenodd;stroke:rgb(0, 0, 0);stroke-width:3.0;" d="M 617.675, 178.445 L 694.613, 233.981 L 554.464, 213.552 L 547.491, 181.813 L 559.321, 176.179 z "/>
<path style="fill:rgb(255, 10, 33);fill-opacity:1.0;fill-rule:evenodd;stroke:rgb(0, 0, 0);stroke-width:3.0;" d="M 692.139, 533.247 L 673.017, 508.841 L 676.267, 502.792 L 688.922, 484.476 L 689.165, 484.266 z "/>
<path style="fill:rgb(95, 215, 255);fill-opacity:1.0;fill-rule:evenodd;stroke:rgb(0, 0, 0);stroke-width:3.0;" d="M 641.064, 325.549 L 687.201, 365.104 L 685.626, 372.452 L 624.287, 345.502 L 618.848, 325.026 z "/>
<path style="fill:rgb(255, 246, 9);fill-opacity:1.0;fill-rule:evenodd;stroke:rgb(0, 0, 0);stroke-width:3.0;" d="M 725.693, 96.9453 L 694.736, 111.688 L 671.863, 85.8023 L 678.631, 76.9218 L 731.71, 72.1823 z "/>
<path style="fill:rgb(255, 246, 9);fill-opacity:1.0;fill-rule:evenodd;stroke:rgb(0, 0, 0);stroke-width:3.0;" d="M 753.56, 70.9042 L 764.214, 97.4072 L 748.049, 81.2258 L 750.266, 70.8843 z "/>
<path style="fill:rgb(255, 246, 9);fill-opacity:1.0;fill-rule:evenodd;stroke:rgb(0, 0, 0);stroke-width:3.0;" d="M 738.114, 45.8263 L 733.873, 21.7797 L 744.726, 18.6124 z "/>
<path style="fill:rgb(255, 246, 9);fill-opacity:1.0;fill-rule:evenodd;stroke:rgb(0, 0, 0);stroke-width:3.0;" d="M 688.927, 447.269 L 654.278, 484.807 L 654.23, 484.81 L 679.49, 440.533 z "/>
<path style="fill:rgb(255, 246, 9);fill-opacity:1.0;fill-rule:evenodd;stroke:rgb(0, 0, 0);stroke-width:3.0;" d="M 283.981, 44.0711 L 285.864, 161.522 L 264.904, 121.971 L 257.419, 39.5263 L 270.566, 36.9673 z "/>
<path style="fill:rgb(223, 255, 10);fill-opacity:1.0;fill-rule:evenodd;stroke:rgb(0, 0, 0);stroke-width:3.0;" d="M 503.49, 127.262 L 494.515, 140.736 L 463.776, 132.327 L 394.459, 100.719 L 392.651, 98.7131 L 445.76, 95.7807 z "/>
<path style="fill:rgb(223, 255, 10);fill-opacity:1.0;fill-rule:evenodd;stroke:rgb(0, 0, 0);stroke-width:3.0;" d="M 654.153, 403.95 L 545.188, 420.85 L 531.968, 393.044 L 529.694, 376.896 z "/>
<path style="fill:rgb(223, 255, 10);fill-opacity:1.0;fill-rule:evenodd;stroke:rgb(0, 0, 0);stroke-width:3.0;" d="M 424.901, 582.481 L 353.55, 577.632 L 415.526, 575.625 z "/>
<path style="fill:rgb(255, 114, 240);fill-opacity:1.0;fill-rule:evenodd;stroke:rgb(0, 0, 0);stroke-width:3.0;" d="M 455.901, 523.615 L 438.375, 545.923 L 430.712, 551.575 L 452.287, 519.501 L 454.315, 518.676 z "/>
<path style="fill:rgb(255, 114, 240);fill-opacity:1.0;fill-rule:evenodd;stroke:rgb(0, 0, 0);stroke-width:3.0;" d="M 182.637, 247.734 L 65.2197, 282.84 L 152.217, 225.615 L 180.196, 217.428 z "/>
<path style="fill:rgb(59, 255, 217);fill-opacity:1.0;fill-rule:evenodd;stroke:rgb(0, 0, 0);stroke-width:3.0;" d="M 574.804, 166.15 L 489.72, 119.752 L 538.52, 113.61 z "/>
<path style="fill:rgb(252, 48, 21);fill-opacity:1.0;fill-rule:evenodd;stroke:rgb(0, 0, 0);stroke-width:3.0;" d="M 618.067, 148.202 L 577.403, 167.568 L 574.804, 166.15 L 538.52, 113.61 L 583.685, 107.925 z "/>
<path style="fill:rgb(231, 199, 255);fill-opacity:1.0;fill-rule:evenodd;stroke:rgb(0, 0, 0);stroke-width:3.0;" d="M 680.725, 395.32 L 680.621, 395.804 L 672.559, 403.909 L 669.075, 393.297 L 674.182, 382.809 z "/>
<path style="fill:rgb(240, 255, 18);fill-opacity:1.0;fill-rule:evenodd;stroke:rgb(0, 0, 0);stroke-width:3.0;" d="M 676.783, 495.021 L 670.486, 489.675 L 682.562, 482.972 L 691.307, 482.404 z "/>
<path style="fill:rgb(240, 255, 18);fill-opacity:1.0;fill-rule:evenodd;stroke:rgb(0, 0, 0);stroke-width:3.0;" d="M 216.938, 209.634 L 181.116, 228.846 L 180.196, 217.428 L 216.824, 206.708 z "/>
<path style="fill:rgb(255, 204, 212);fill-opacity:1.0;fill-rule:evenodd;stroke:rgb(0, 0, 0);stroke-width:3.0;" d="M 388.319, 444.146 L 388.665, 445.777 L 375.121, 455.762 L 356.877, 446.291 L 357.006, 440.446 z "/>
<path style="fill:rgb(255, 204, 212);fill-opacity:1.0;fill-rule:evenodd;stroke:rgb(0, 0, 0);stroke-width:3.0;" d="M 673.443, 353.308 L 604.146, 293.897 L 665.088, 257.798 z "/>
<path style="fill:rgb(255, 204, 212);fill-opacity:1.0;fill-rule:evenodd;stroke:rgb(0, 0, 0);stroke-width:3.0;" d="M 283.791, 254.737 L 282.162, 240.617 L 311.992, 239.963 z "/>
<path style="fill:rgb(255, 204, 212);fill-opacity:1.0;fill-rule:evenodd;stroke:rgb(0, 0, 0);stroke-width:3.0;" d="M 698.059, 437.375 L 688.927, 447.269 L 679.49, 440.533 L 687.789, 425.987 z "/>
<path style="fill:rgb(255, 204, 212);fill-opacity:1.0;fill-rule:evenodd;stroke:rgb(0, 0, 0);stroke-width:3.0;" d="M 162.45, 324.129 L 145.567, 328.342 L 77.5558, 279.151 L 90.8698, 275.171 z "/>
<path style="fill:rgb(223, 142, 16);fill-opacity:1.0;fill-rule:evenodd;stroke:rgb(0, 0, 0);stroke-width:3.0;" d="M 572.887, 298.574 L 361.677, 112.347 L 368.434, 71.8597 z "/>
<path style="fill:rgb(255, 132, 41);fill-opacity:1.0;fill-rule:evenodd;stroke:rgb(0, 0, 0);stroke-width:3.0;" d="M 254.418, 375.096 L 224.801, 411.733 L 221.298, 321.697 z "/>
<path style="fill:rgb(255, 40, 13);fill-opacity:1.0;fill-rule:evenodd;stroke:rgb(0, 0, 0);stroke-width:3.0;" d="M 618.848, 325.026 L 622.031, 337.008 L 620.673, 336.527 L 607.677, 328.643 L 604.329, 324.684 z "/>
<path style="fill:rgb(255, 40, 13);fill-opacity:1.0;fill-rule:evenodd;stroke:rgb(0, 0, 0);stroke-width:3.0;" d="M 575.783, 269.58 L 641.064, 325.549 L 629.332, 325.272 L 558.379, 282.486 L 512.625, 231.751 z "/>
<path style="fill:rgb(255, 228, 11);fill-opacity:1.0;fill-rule:evenodd;stroke:rgb(0, 0, 0);stroke-width:3.0;" d="M 646.957, 144.455 L 639.761, 168.325 L 616.206, 177.385 L 604.924, 169.241 L 604.391, 154.715 L 641.392, 137.093 z "/>
<path style="fill:rgb(255, 228, 11);fill-opacity:1.0;fill-rule:evenodd;stroke:rgb(0, 0, 0);stroke-width:3.0;" d="M 219.291, 270.121 L 219.648, 279.286 L 171.906, 272.919 L 153.375, 256.483 L 174.568, 250.147 z "/>
<path style="fill:rgb(255, 6, 12);fill-opacity:1.0;fill-rule:evenodd;stroke:rgb(0, 0, 0);stroke-width:3.0;" d="M 617.675, 178.445 L 588.623, 177.317 L 585.881, 164.895 L 593.914, 161.293 z "/>
<path style="fill:rgb(249, 228, 16);fill-opacity:1.0;fill-rule:evenodd;stroke:rgb(0, 0, 0);stroke-width:3.0;" d="M 40.2536, 290.304 L 19.2039, 296.597 L 16.2862, 283.41 L 21.6913, 279.197 z "/>
<path style="fill:rgb(249, 0, 255);fill-opacity:1.0;fill-rule:evenodd;stroke:rgb(0, 0, 0);stroke-width:3.0;" d="M 650.386, 110.631 L 643.736, 135.977 L 621.797, 146.425 L 621.009, 104.661 z "/>
<path style="fill:rgb(189, 255, 54);fill-opacity:1.0;fill-rule:evenodd;stroke:rgb(0, 0, 0);stroke-width:3.0;" d="M 529.837, 39.3726 L 518.893, 47.9153 L 480.992, 23.3085 L 480.09, 20.748 z "/>
<path style="fill:rgb(189, 255, 54);fill-opacity:1.0;fill-rule:evenodd;stroke:rgb(0, 0, 0);stroke-width:3.0;" d="M 210.663, 48.3536 L 213.179, 113.021 L 154.756, 161.541 L 57.8864, 111.492 L 207.996, 31.5839 z "/>
<path style="fill:rgb(7, 34, 249);fill-opacity:1.0;fill-rule:evenodd;stroke:rgb(0, 0, 0);stroke-width:3.0;" d="M 718.586, 529.222 L 724.325, 564.376 L 717.335, 557.771 L 701.174, 517.269 z "/>
<path style="fill:rgb(7, 34, 249);fill-opacity:1.0;fill-rule:evenodd;stroke:rgb(0, 0, 0);stroke-width:3.0;" d="M 329.341, 333.346 L 325.978, 522.242 L 302.373, 534.652 L 298.437, 491.296 L 324.955, 332.393 z "/>
<path style="fill:rgb(252, 255, 41);fill-opacity:1.0;fill-rule:evenodd;stroke:rgb(0, 0, 0);stroke-width:3.0;" d="M 184.5, 204.381 L 179.356, 207.764 L 162.206, 203.622 L 176.404, 177.817 z "/>
<path style="fill:rgb(252, 255, 41);fill-opacity:1.0;fill-rule:evenodd;stroke:rgb(0, 0, 0);stroke-width:3.0;" d="M 562.108, 159.227 L 577.403, 167.568 L 569.764, 171.205 L 416.612, 119.425 z "/>
<path style="fill:rgb(252, 17, 21);fill-opacity:1.0;fill-rule:evenodd;stroke:rgb(0, 0, 0);stroke-width:3.0;" d="M 793.334, 20.7333 L 786.147, 35.2001 L 784.769, 32.4034 L 786.959, 5.52221 z "/>
<path style="fill:rgb(165, 10, 255);fill-opacity:1.0;fill-rule:evenodd;stroke:rgb(0, 0, 0);stroke-width:3.0;" d="M 421.717, 510.365 L 416.26, 474.78 L 431.324, 466.86 z "/>
<path style="fill:rgb(209, 18, 28);fill-opacity:1.0;fill-rule:evenodd;stroke:rgb(0, 0, 0);stroke-width:3.0;" d="M 472.168, 511.416 L 416.484, 534.061 L 418.77, 523.708 L 452.401, 489.44 z "/>
<path style="fill:rgb(49, 231, 108);fill-opacity:1.0;fill-rule:evenodd;stroke:rgb(0, 0, 0);stroke-width:3.0;" d="M 452.401, 489.44 L 418.77, 523.708 L 431.475, 466.177 z "/>
<path style="fill:rgb(7, 44, 237);fill-opacity:1.0;fill-rule:evenodd;stroke:rgb(0, 0, 0);stroke-width:3.0;" d="M 689.944, 153.133 L 667.904, 164.156 L 640.9, 164.546 L 650.482, 132.764 L 692.694, 112.661 z "/>
<path style="fill:rgb(7, 44, 237);fill-opacity:1.0;fill-rule:evenodd;stroke:rgb(0, 0, 0);stroke-width:3.0;" d="M 352.408, 34.3316 L 353.976, 38.6103 L 351.662, 49.052 L 350.149, 49.4522 L 331.781, 26.1947 L 335.46, 23.1853 z "/>
<path style="fill:rgb(7, 44, 237);fill-opacity:1.0;fill-rule:evenodd;stroke:rgb(0, 0, 0);stroke-width:3.0;" d="M 711.541, 486.069 L 712.165, 489.895 L 690.22, 501.65 L 689.265, 485.914 z "/>
<path style="fill:rgb(7, 44, 237);fill-opacity:1.0;fill-rule:evenodd;stroke:rgb(0, 0, 0);stroke-width:3.0;" d="M 676.522, 374.924 L 681.025, 392.239 L 679.667, 393.296 L 664.945, 365.147 z "/>
<path style="fill:rgb(255, 255, 17);fill-opacity:1.0;fill-rule:evenodd;stroke:rgb(0, 0, 0);stroke-width:3.0;" d="M 534.999, 234.614 L 528.627, 241.335 L 512.625, 231.751 L 506.757, 225.243 L 517.219, 219.37 z "/>
<path style="fill:rgb(255, 255, 17);fill-opacity:1.0;fill-rule:evenodd;stroke:rgb(0, 0, 0);stroke-width:3.0;" d="M 685.721, 103.317 L 685.433, 111.377 L 660.359, 100.895 L 660.382, 100.864 z "/>
<path style="fill:rgb(255, 255, 17);fill-opacity:1.0;fill-rule:evenodd;stroke:rgb(0, 0, 0);stroke-width:3.0;" d="M 606.289, 585.056 L 586.722, 591.323 L 582.258, 591.21 L 578.662, 583.098 L 582.691, 575.844 z "/>
<path style="fill:rgb(255, 255, 17);fill-opacity:1.0;fill-rule:evenodd;stroke:rgb(0, 0, 0);stroke-width:3.0;" d="M 285.864, 161.522 L 285.873, 162.118 L 278.507, 165.157 L 268.374, 160.182 L 264.904, 121.971 z "/>
<path style="fill:rgb(255, 255, 17);fill-opacity:1.0;fill-rule:evenodd;stroke:rgb(0, 0, 0);stroke-width:3.0;" d="M 583.68, 53.4283 L 583.72, 53.57 L 561.783, 73.667 L 562.456, 70.5875 L 572.454, 40.3501 z "/>
<path style="fill:rgb(255, 1, 17);fill-opacity:1.0;fill-rule:evenodd;stroke:rgb(0, 0, 0);stroke-width:3.0;" d="M 556.945, 72.6202 L 528.69, 54.2763 L 560.784, 28.0057 z "/>
<path style="fill:rgb(187, 19, 212);fill-opacity:1.0;fill-rule:evenodd;stroke:rgb(0, 0, 0);stroke-width:3.0;" d="M 219.648, 279.286 L 220.825, 309.561 L 214.887, 311.043 L 214.238, 310.466 L 212.1, 278.28 z "/>
<path style="fill:rgb(187, 19, 212);fill-opacity:1.0;fill-rule:evenodd;stroke:rgb(0, 0, 0);stroke-width:3.0;" d="M 214.473, 146.297 L 202.266, 144.034 L 200.723, 123.365 L 213.179, 113.021 z "/>
<path style="fill:rgb(72, 64, 252);fill-opacity:1.0;fill-rule:evenodd;stroke:rgb(0, 0, 0);stroke-width:3.0;" d="M 539.506, 238.478 L 558.106, 258.992 L 534.102, 244.615 L 531.78, 238.01 L 534.999, 234.614 z "/>
<path style="fill:rgb(72, 64, 252);fill-opacity:1.0;fill-rule:evenodd;stroke:rgb(0, 0, 0);stroke-width:3.0;" d="M 711.337, 238.057 L 698.569, 225.054 L 720.35, 205.161 z "/>
<path style="fill:rgb(72, 64, 252);fill-opacity:1.0;fill-rule:evenodd;stroke:rgb(0, 0, 0);stroke-width:3.0;" d="M 92.7342, 129.497 L 70.1078, 176.531 L 65.7654, 170.74 L 70.3627, 117.938 z "/>
<path style="fill:rgb(72, 64, 252);fill-opacity:1.0;fill-rule:evenodd;stroke:rgb(0, 0, 0);stroke-width:3.0;" d="M 53.3574, 158.159 L 60.4391, 190.997 L 27.9903, 146.534 L 25.6982, 141.021 L 34.3163, 138.462 z "/>
<path style="fill:rgb(72, 64, 252);fill-opacity:1.0;fill-rule:evenodd;stroke:rgb(0, 0, 0);stroke-width:3.0;" d="M 671.271, 407.671 L 686.3, 424.335 L 590.387, 463.34 L 576.629, 461.181 L 559.977, 451.956 L 545.188, 420.85 L 654.153, 403.95 z "/>
<path style="fill:rgb(72, 64, 252);fill-opacity:1.0;fill-rule:evenodd;stroke:rgb(0, 0, 0);stroke-width:3.0;" d="M 436.041, 543.653 L 379.337, 574.043 L 382.494, 564.15 L 438.199, 540.444 z "/>
<path style="fill:rgb(23, 249, 255);fill-opacity:1.0;fill-rule:evenodd;stroke:rgb(0, 0, 0);stroke-width:3.0;" d="M 678.68, 521.25 L 650.959, 592.951 L 624.818, 592.289 L 560.513, 567.187 L 561.542, 555.361 L 667.42, 510.611 z "/>
<path style="fill:rgb(51, 134, 249);fill-opacity:1.0;fill-rule:evenodd;stroke:rgb(0, 0, 0);stroke-width:3.0;" d="M 647.614, 186.655 L 636.268, 191.866 L 635.393, 191.234 L 634.12, 187.033 L 640.9, 164.546 L 657.724, 164.303 z "/>
<path style="fill:rgb(51, 134, 249);fill-opacity:1.0;fill-rule:evenodd;stroke:rgb(0, 0, 0);stroke-width:3.0;" d="M 554.464, 213.552 L 537.36, 211.059 L 548.365, 185.794 z "/>
<path style="fill:rgb(51, 134, 249);fill-opacity:1.0;fill-rule:evenodd;stroke:rgb(0, 0, 0);stroke-width:3.0;" d="M 354.064, 378.56 L 326.761, 478.243 L 329.077, 348.146 z "/>
<path style="fill:rgb(51, 134, 249);fill-opacity:1.0;fill-rule:evenodd;stroke:rgb(0, 0, 0);stroke-width:3.0;" d="M 201.847, 138.411 L 202.266, 144.034 L 184.806, 140.798 L 191.252, 132.763 z "/>
<path style="fill:rgb(51, 134, 249);fill-opacity:1.0;fill-rule:evenodd;stroke:rgb(0, 0, 0);stroke-width:3.0;" d="M 734.819, 92.5992 L 725.693, 96.9453 L 739.21, 41.3153 z "/>
<path style="fill:rgb(51, 134, 249);fill-opacity:1.0;fill-rule:evenodd;stroke:rgb(0, 0, 0);stroke-width:3.0;" d="M 687.789, 425.987 L 654.321, 484.651 L 651.699, 483.691 L 644.09, 474.96 L 661.525, 434.41 L 686.3, 424.335 z "/>
<path style="fill:rgb(228, 0, 223);fill-opacity:1.0;fill-rule:evenodd;stroke:rgb(0, 0, 0);stroke-width:3.0;" d="M 531.632, 142.608 L 519.866, 147.671 L 518.412, 147.274 L 510.825, 139.845 L 521.943, 137.324 z "/>
<path style="fill:rgb(228, 0, 223);fill-opacity:1.0;fill-rule:evenodd;stroke:rgb(0, 0, 0);stroke-width:3.0;" d="M 408.157, 575.863 L 378.449, 576.825 L 379.337, 574.043 L 411.155, 556.99 z "/>
<path style="fill:rgb(228, 0, 223);fill-opacity:1.0;fill-rule:evenodd;stroke:rgb(0, 0, 0);stroke-width:3.0;" d="M 160.358, 262.677 L 122.646, 296.904 L 90.8698, 275.171 L 153.375, 256.483 z "/>
<path style="fill:rgb(228, 0, 223);fill-opacity:1.0;fill-rule:evenodd;stroke:rgb(0, 0, 0);stroke-width:3.0;" d="M 381.318, 40.8675 L 371.823, 51.3561 L 356.163, 44.5771 L 355.974, 44.0631 L 376.493, 38.1042 z "/>
<path style="fill:rgb(59, 105, 223);fill-opacity:1.0;fill-rule:evenodd;stroke:rgb(0, 0, 0);stroke-width:3.0;" d="M 364.857, 31.439 L 376.493, 38.1042 L 355.974, 44.0631 L 351.053, 30.6322 z "/>
<path style="fill:rgb(255, 108, 105);fill-opacity:1.0;fill-rule:evenodd;stroke:rgb(0, 0, 0);stroke-width:3.0;" d="M 89.403, 299.063 L 79.5877, 302.073 L 60.4496, 284.266 L 73.8184, 280.269 z "/>
<path style="fill:rgb(255, 108, 105);fill-opacity:1.0;fill-rule:evenodd;stroke:rgb(0, 0, 0);stroke-width:3.0;" d="M 416.887, 549.514 L 382.494, 564.15 L 388.461, 545.457 L 407.101, 537.877 z "/>
<path style="fill:rgb(231, 14, 16);fill-opacity:1.0;fill-rule:evenodd;stroke:rgb(0, 0, 0);stroke-width:3.0;" d="M 685.433, 111.377 L 685.261, 116.201 L 683.028, 117.264 L 652.596, 111.08 L 660.359, 100.895 z "/>
<path style="fill:rgb(50, 117, 220);fill-opacity:1.0;fill-rule:evenodd;stroke:rgb(0, 0, 0);stroke-width:3.0;" d="M 687.115, 194.76 L 660.213, 209.151 L 659.172, 208.399 L 687.807, 184.583 z "/>
<path style="fill:rgb(255, 42, 199);fill-opacity:1.0;fill-rule:evenodd;stroke:rgb(0, 0, 0);stroke-width:3.0;" d="M 687.807, 184.583 L 659.172, 208.399 L 636.268, 191.866 L 688.956, 167.667 z "/>
<path style="fill:rgb(255, 16, 255);fill-opacity:1.0;fill-rule:evenodd;stroke:rgb(0, 0, 0);stroke-width:3.0;" d="M 557.763, 566.113 L 552.755, 590.463 L 422.585, 587.164 L 456.441, 526.561 z "/>
<path style="fill:rgb(255, 16, 255);fill-opacity:1.0;fill-rule:evenodd;stroke:rgb(0, 0, 0);stroke-width:3.0;" d="M 347.234, 198.895 L 285.981, 168.826 L 285.212, 120.86 L 361.164, 115.424 z "/>
<path style="fill:rgb(175, 197, 71);fill-opacity:1.0;fill-rule:evenodd;stroke:rgb(0, 0, 0);stroke-width:3.0;" d="M 307.326, 260.02 L 308.131, 250.377 L 338.917, 244.849 z "/>
<path style="fill:rgb(175, 197, 71);fill-opacity:1.0;fill-rule:evenodd;stroke:rgb(0, 0, 0);stroke-width:3.0;" d="M 162.206, 203.622 L 150.78, 200.862 L 166.797, 183.395 L 175.838, 178.846 z "/>
<path style="fill:rgb(175, 197, 71);fill-opacity:1.0;fill-rule:evenodd;stroke:rgb(0, 0, 0);stroke-width:3.0;" d="M 416.017, 525.51 L 409.901, 536.142 L 403.387, 516.42 L 408.227, 507.092 z "/>
<path style="fill:rgb(175, 197, 71);fill-opacity:1.0;fill-rule:evenodd;stroke:rgb(0, 0, 0);stroke-width:3.0;" d="M 365.189, 68.2616 L 368.434, 71.8597 L 361.164, 115.424 L 285.212, 120.86 L 283.907, 39.4667 z "/>
<path style="fill:rgb(13, 231, 240);fill-opacity:1.0;fill-rule:evenodd;stroke:rgb(0, 0, 0);stroke-width:3.0;" d="M 298.835, 20.3272 L 312.087, 28.8854 L 292.863, 32.6272 L 297.678, 20.0746 z "/>
<path style="fill:rgb(255, 51, 161);fill-opacity:1.0;fill-rule:evenodd;stroke:rgb(0, 0, 0);stroke-width:3.0;" d="M 787.186, 129.972 L 791.852, 145.599 L 769.761, 126.489 z "/>
<path style="fill:rgb(255, 51, 161);fill-opacity:1.0;fill-rule:evenodd;stroke:rgb(0, 0, 0);stroke-width:3.0;" d="M 445.76, 95.7807 L 392.651, 98.7131 L 386.246, 91.6108 L 401.007, 71.3758 z "/>
<path style="fill:rgb(255, 51, 161);fill-opacity:1.0;fill-rule:evenodd;stroke:rgb(0, 0, 0);stroke-width:3.0;" d="M 780.805, 158.043 L 781.408, 162.903 L 775.817, 165.123 L 761.957, 137.197 L 766.266, 134.045 z "/>
<path style="fill:rgb(255, 51, 161);fill-opacity:1.0;fill-rule:evenodd;stroke:rgb(0, 0, 0);stroke-width:3.0;" d="M 559.977, 451.956 L 538.597, 440.113 L 531.968, 393.044 z "/>
<path style="fill:rgb(217, 2, 249);fill-opacity:1.0;fill-rule:evenodd;stroke:rgb(0, 0, 0);stroke-width:3.0;" d="M 754.648, 523.171 L 747.251, 586.037 L 724.325, 564.376 L 716.737, 517.899 z "/>
<path style="fill:rgb(189, 0, 226);fill-opacity:1.0;fill-rule:evenodd;stroke:rgb(0, 0, 0);stroke-width:3.0;" d="M 488.417, 367.924 L 518.144, 428.782 L 504.693, 421.331 L 449.598, 384.11 L 454.786, 360.614 z "/>
<path style="fill:rgb(189, 0, 226);fill-opacity:1.0;fill-rule:evenodd;stroke:rgb(0, 0, 0);stroke-width:3.0;" d="M 573.932, 572.425 L 582.258, 591.21 L 552.755, 590.463 L 554.145, 583.7 L 569.321, 570.625 z "/>
<path style="fill:rgb(189, 0, 226);fill-opacity:1.0;fill-rule:evenodd;stroke:rgb(0, 0, 0);stroke-width:3.0;" d="M 754.862, 521.358 L 754.648, 523.171 L 716.737, 517.899 L 714.077, 501.607 L 730.356, 498.55 z "/>
<path style="fill:rgb(228, 3, 40);fill-opacity:1.0;fill-rule:evenodd;stroke:rgb(0, 0, 0);stroke-width:3.0;" d="M 598.102, 485.746 L 588.905, 463.943 L 606.409, 456.824 z "/>
<path style="fill:rgb(255, 255, 15);fill-opacity:1.0;fill-rule:evenodd;stroke:rgb(0, 0, 0);stroke-width:3.0;" d="M 752.206, 183.128 L 743.512, 193.574 L 737.224, 191.161 L 745.077, 175.703 z "/>
<path style="fill:rgb(255, 255, 15);fill-opacity:1.0;fill-rule:evenodd;stroke:rgb(0, 0, 0);stroke-width:3.0;" d="M 66.6136, 171.872 L 95.6661, 210.615 L 82.6469, 221.427 L 73.5787, 209.002 L 59.49, 164.503 z "/>
<path style="fill:rgb(255, 255, 15);fill-opacity:1.0;fill-rule:evenodd;stroke:rgb(0, 0, 0);stroke-width:3.0;" d="M 382.723, 547.791 L 319.804, 573.378 L 361.801, 544.516 z "/>
<path style="fill:rgb(240, 21, 246);fill-opacity:1.0;fill-rule:evenodd;stroke:rgb(0, 0, 0);stroke-width:3.0;" d="M 565.866, 50.0762 L 560.768, 75.1026 L 556.945, 72.6202 L 560.784, 28.0057 L 565.248, 24.3515 z "/>
<path style="fill:rgb(255, 255, 56);fill-opacity:1.0;fill-rule:evenodd;stroke:rgb(0, 0, 0);stroke-width:3.0;" d="M 535.35, 194.927 L 529.516, 206.075 L 513.946, 204.07 L 532.049, 190.961 z "/>
<path style="fill:rgb(255, 255, 56);fill-opacity:1.0;fill-rule:evenodd;stroke:rgb(0, 0, 0);stroke-width:3.0;" d="M 101.446, 313.586 L 101.986, 322.914 L 79.5877, 302.073 L 89.403, 299.063 z "/>
<path style="fill:rgb(255, 0, 37);fill-opacity:1.0;fill-rule:evenodd;stroke:rgb(0, 0, 0);stroke-width:3.0;" d="M 512.169, 425.472 L 481.364, 445.875 L 437.527, 438.77 L 448.279, 390.079 z "/>
<path style="fill:rgb(255, 0, 37);fill-opacity:1.0;fill-rule:evenodd;stroke:rgb(0, 0, 0);stroke-width:3.0;" d="M 777.72, 110.928 L 783.112, 116.326 L 787.186, 129.972 L 769.761, 126.489 L 769.71, 126.444 L 758.956, 107.374 z "/>
<path style="fill:rgb(255, 45, 18);fill-opacity:1.0;fill-rule:evenodd;stroke:rgb(0, 0, 0);stroke-width:3.0;" d="M 793.776, 201.309 L 775.147, 205.712 L 773.153, 204.947 L 745.077, 175.703 L 746.774, 172.362 L 778.686, 170.905 z "/>
<path style="fill:rgb(79, 207, 255);fill-opacity:1.0;fill-rule:evenodd;stroke:rgb(0, 0, 0);stroke-width:3.0;" d="M 298.437, 491.296 L 293.005, 431.471 L 307.326, 260.02 L 338.917, 244.849 L 339.585, 244.729 z "/>
<path style="fill:rgb(79, 207, 255);fill-opacity:1.0;fill-rule:evenodd;stroke:rgb(0, 0, 0);stroke-width:3.0;" d="M 532.683, 398.121 L 532.749, 398.586 L 518.255, 428.844 L 518.144, 428.782 L 505.895, 403.707 L 517.115, 395.513 z "/>
<path style="fill:rgb(79, 207, 255);fill-opacity:1.0;fill-rule:evenodd;stroke:rgb(0, 0, 0);stroke-width:3.0;" d="M 644.09, 474.96 L 632.679, 461.867 L 629.191, 447.559 L 661.525, 434.41 z "/>
<path style="fill:rgb(252, 255, 6);fill-opacity:1.0;fill-rule:evenodd;stroke:rgb(0, 0, 0);stroke-width:3.0;" d="M 596.778, 99.7373 L 570.323, 94.3613 L 564.284, 79.6681 L 590.885, 78.9022 z "/>
<path style="fill:rgb(170, 2, 9);fill-opacity:1.0;fill-rule:evenodd;stroke:rgb(0, 0, 0);stroke-width:3.0;" d="M 552.869, 111.804 L 515.835, 116.465 L 510.039, 112.888 L 526.437, 106.804 z "/>
<path style="fill:rgb(246, 202, 7);fill-opacity:1.0;fill-rule:evenodd;stroke:rgb(0, 0, 0);stroke-width:3.0;" d="M 739.079, 496.912 L 714.077, 501.607 L 711.726, 487.205 z "/>
<path style="fill:rgb(192, 9, 249);fill-opacity:1.0;fill-rule:evenodd;stroke:rgb(0, 0, 0);stroke-width:3.0;" d="M 749.915, 494.878 L 739.079, 496.912 L 711.726, 487.205 L 710.736, 481.144 L 736.049, 479.501 z "/>
<path style="fill:rgb(255, 243, 55);fill-opacity:1.0;fill-rule:evenodd;stroke:rgb(0, 0, 0);stroke-width:3.0;" d="M 663.735, 362.834 L 669.894, 374.611 L 667.857, 383.63 L 665.883, 383.575 L 658.288, 360.441 z "/>
<path style="fill:rgb(255, 6, 255);fill-opacity:1.0;fill-rule:evenodd;stroke:rgb(0, 0, 0);stroke-width:3.0;" d="M 557.782, 27.6249 L 552.137, 35.084 L 530.926, 52.4467 L 525.59, 52.2636 L 518.893, 47.9153 L 546.352, 26.4808 z "/>
<path style="fill:rgb(255, 231, 11);fill-opacity:1.0;fill-rule:evenodd;stroke:rgb(0, 0, 0);stroke-width:3.0;" d="M 770.715, 71.0081 L 767.099, 100.296 L 764.214, 97.4072 L 753.56, 70.9042 z "/>
<path style="fill:rgb(255, 231, 11);fill-opacity:1.0;fill-rule:evenodd;stroke:rgb(0, 0, 0);stroke-width:3.0;" d="M 569.764, 171.205 L 491.596, 208.432 L 442.142, 153.593 L 455.68, 132.634 z "/>
<path style="fill:rgb(223, 234, 6);fill-opacity:1.0;fill-rule:evenodd;stroke:rgb(0, 0, 0);stroke-width:3.0;" d="M 416.612, 119.425 L 455.68, 132.634 L 442.142, 153.593 L 409.599, 117.507 z "/>
<path style="fill:rgb(215, 255, 57);fill-opacity:1.0;fill-rule:evenodd;stroke:rgb(0, 0, 0);stroke-width:3.0;" d="M 764.639, 216.798 L 764.691, 217.189 L 727.76, 221.177 L 727.758, 213.373 L 755.736, 209.92 z "/>
<path style="fill:rgb(11, 25, 246);fill-opacity:1.0;fill-rule:evenodd;stroke:rgb(0, 0, 0);stroke-width:3.0;" d="M 685.784, 101.557 L 685.721, 103.317 L 660.382, 100.864 L 671.863, 85.8023 z "/>
<path style="fill:rgb(11, 25, 246);fill-opacity:1.0;fill-rule:evenodd;stroke:rgb(0, 0, 0);stroke-width:3.0;" d="M 588.424, 70.2002 L 586.239, 79.0359 L 560.446, 79.7786 L 560.658, 78.8082 L 588.397, 70.1069 z "/>
<path style="fill:rgb(207, 140, 255);fill-opacity:1.0;fill-rule:evenodd;stroke:rgb(0, 0, 0);stroke-width:3.0;" d="M 190.349, 141.826 L 204.503, 146.148 L 206.626, 154.512 L 182.996, 148.699 L 188.853, 141.548 z "/>
<path style="fill:rgb(240, 37, 255);fill-opacity:1.0;fill-rule:evenodd;stroke:rgb(0, 0, 0);stroke-width:3.0;" d="M 607.508, 312.112 L 620.516, 325.065 L 596.262, 324.494 L 558.379, 282.486 z "/>
<path style="fill:rgb(240, 37, 255);fill-opacity:1.0;fill-rule:evenodd;stroke:rgb(0, 0, 0);stroke-width:3.0;" d="M 773.153, 204.947 L 743.512, 193.574 L 752.206, 183.128 z "/>
<path style="fill:rgb(161, 22, 14);fill-opacity:1.0;fill-rule:evenodd;stroke:rgb(0, 0, 0);stroke-width:3.0;" d="M 736.049, 479.501 L 684.291, 482.86 L 688.535, 467.339 L 703.515, 443.424 z "/>
<path style="fill:rgb(255, 217, 71);fill-opacity:1.0;fill-rule:evenodd;stroke:rgb(0, 0, 0);stroke-width:3.0;" d="M 212.1, 278.28 L 214.238, 310.466 L 171.906, 272.919 z "/>
<path style="fill:rgb(29, 255, 255);fill-opacity:1.0;fill-rule:evenodd;stroke:rgb(0, 0, 0);stroke-width:3.0;" d="M 785.564, 140.16 L 790.122, 162.644 L 769.71, 126.444 z "/>
<path style="fill:rgb(255, 0, 71);fill-opacity:1.0;fill-rule:evenodd;stroke:rgb(0, 0, 0);stroke-width:3.0;" d="M 366.256, 31.5208 L 351.053, 30.6322 L 349.247, 25.7027 L 367.729, 8.07945 z "/>
<path style="fill:rgb(255, 0, 71);fill-opacity:1.0;fill-rule:evenodd;stroke:rgb(0, 0, 0);stroke-width:3.0;" d="M 307.249, 260.942 L 293.005, 431.471 L 277.069, 255.955 L 279.133, 255.584 z "/>
<path style="fill:rgb(255, 9, 11);fill-opacity:1.0;fill-rule:evenodd;stroke:rgb(0, 0, 0);stroke-width:3.0;" d="M 552.214, 457.352 L 530.248, 453.906 L 524.676, 441.539 z "/>
<path style="fill:rgb(231, 252, 7);fill-opacity:1.0;fill-rule:evenodd;stroke:rgb(0, 0, 0);stroke-width:3.0;" d="M 576.629, 461.181 L 552.214, 457.352 L 524.676, 441.539 L 519.188, 429.361 z "/>
<path style="fill:rgb(33, 255, 255);fill-opacity:1.0;fill-rule:evenodd;stroke:rgb(0, 0, 0);stroke-width:3.0;" d="M 656.462, 111.866 L 667.465, 124.676 L 643.736, 135.977 L 650.386, 110.631 z "/>
<path style="fill:rgb(237, 6, 255);fill-opacity:1.0;fill-rule:evenodd;stroke:rgb(0, 0, 0);stroke-width:3.0;" d="M 770.715, 71.0081 L 750.266, 70.8843 L 750.284, 70.801 L 772.475, 56.7476 z "/>
<path style="fill:rgb(252, 179, 7);fill-opacity:1.0;fill-rule:evenodd;stroke:rgb(0, 0, 0);stroke-width:3.0;" d="M 621.009, 104.661 L 621.797, 146.425 L 618.067, 148.202 L 604.217, 131.978 L 592.622, 106.801 L 616.653, 103.776 z "/>
<path style="fill:rgb(209, 234, 220);fill-opacity:1.0;fill-rule:evenodd;stroke:rgb(0, 0, 0);stroke-width:3.0;" d="M 766.18, 133.904 L 760.738, 134.74 L 743.866, 100.744 L 744.447, 98.0304 z "/>
<path style="fill:rgb(184, 21, 223);fill-opacity:1.0;fill-rule:evenodd;stroke:rgb(0, 0, 0);stroke-width:3.0;" d="M 569.321, 570.625 L 554.145, 583.7 L 557.763, 566.113 z "/>
<path style="fill:rgb(172, 50, 246);fill-opacity:1.0;fill-rule:evenodd;stroke:rgb(0, 0, 0);stroke-width:3.0;" d="M 598.102, 485.746 L 597.311, 488.503 L 561.875, 490.802 L 570.043, 471.613 L 588.905, 463.943 z "/>
<path style="fill:rgb(27, 163, 255);fill-opacity:1.0;fill-rule:evenodd;stroke:rgb(0, 0, 0);stroke-width:3.0;" d="M 561.875, 490.802 L 515.452, 493.814 L 570.043, 471.613 z "/>
<path style="fill:rgb(38, 119, 209);fill-opacity:1.0;fill-rule:evenodd;stroke:rgb(0, 0, 0);stroke-width:3.0;" d="M 421.531, 565.223 L 414.512, 575.658 L 410.431, 575.79 L 412.323, 556.365 L 414.121, 555.401 z "/>
<path style="fill:rgb(38, 119, 209);fill-opacity:1.0;fill-rule:evenodd;stroke:rgb(0, 0, 0);stroke-width:3.0;" d="M 59.49, 164.503 L 73.5787, 209.002 L 60.4391, 190.997 L 53.3574, 158.159 z "/>
<path style="fill:rgb(38, 119, 209);fill-opacity:1.0;fill-rule:evenodd;stroke:rgb(0, 0, 0);stroke-width:3.0;" d="M 289.418, 391.962 L 292.457, 425.438 L 271.112, 400.074 L 282.784, 391.568 z "/>
<path style="fill:rgb(255, 36, 220);fill-opacity:1.0;fill-rule:evenodd;stroke:rgb(0, 0, 0);stroke-width:3.0;" d="M 686.543, 203.186 L 684.925, 226.989 L 668.812, 215.357 L 675.622, 200.908 L 684.16, 196.341 z "/>
<path style="fill:rgb(255, 148, 9);fill-opacity:1.0;fill-rule:evenodd;stroke:rgb(0, 0, 0);stroke-width:3.0;" d="M 66.6136, 171.872 L 21.0266, 124.714 L 25.9601, 117.658 z "/>
<path style="fill:rgb(255, 148, 9);fill-opacity:1.0;fill-rule:evenodd;stroke:rgb(0, 0, 0);stroke-width:3.0;" d="M 624.818, 592.289 L 586.722, 591.323 L 606.289, 585.056 z "/>
<path style="fill:rgb(240, 43, 62);fill-opacity:1.0;fill-rule:evenodd;stroke:rgb(0, 0, 0);stroke-width:3.0;" d="M 548.365, 185.794 L 537.36, 211.059 L 527.648, 209.643 L 540.462, 185.16 L 547.491, 181.813 z "/>
<path style="fill:rgb(212, 92, 112);fill-opacity:1.0;fill-rule:evenodd;stroke:rgb(0, 0, 0);stroke-width:3.0;" d="M 323.218, 237.169 L 332.923, 238.819 L 337.333, 245.133 L 322.267, 247.839 L 308.618, 241.95 L 308.41, 241.839 L 317.52, 237.067 z "/>
<path style="fill:rgb(212, 92, 112);fill-opacity:1.0;fill-rule:evenodd;stroke:rgb(0, 0, 0);stroke-width:3.0;" d="M 204.211, 191.415 L 184.5, 204.381 L 174.333, 171.025 z "/>
<path style="fill:rgb(31, 255, 123);fill-opacity:1.0;fill-rule:evenodd;stroke:rgb(0, 0, 0);stroke-width:3.0;" d="M 702.616, 442.428 L 656.833, 484.641 L 654.278, 484.807 L 698.059, 437.375 z "/>
<path style="fill:rgb(31, 255, 123);fill-opacity:1.0;fill-rule:evenodd;stroke:rgb(0, 0, 0);stroke-width:3.0;" d="M 197.812, 152.344 L 204.498, 169.456 L 182.95, 153.664 L 190.469, 150.537 z "/>
<path style="fill:rgb(192, 57, 64);fill-opacity:1.0;fill-rule:evenodd;stroke:rgb(0, 0, 0);stroke-width:3.0;" d="M 207.988, 154.847 L 210.542, 173.885 L 204.498, 169.456 L 197.812, 152.344 z "/>
<path style="fill:rgb(57, 1, 240);fill-opacity:1.0;fill-rule:evenodd;stroke:rgb(0, 0, 0);stroke-width:3.0;" d="M 672.559, 403.909 L 670.105, 406.377 L 651.593, 385.849 L 660.364, 366.765 z "/>
<path style="fill:rgb(45, 95, 202);fill-opacity:1.0;fill-rule:evenodd;stroke:rgb(0, 0, 0);stroke-width:3.0;" d="M 658.288, 360.441 L 660.364, 366.765 L 651.593, 385.849 L 613.815, 343.958 L 615.237, 341.526 z "/>
<path style="fill:rgb(157, 172, 255);fill-opacity:1.0;fill-rule:evenodd;stroke:rgb(0, 0, 0);stroke-width:3.0;" d="M 214.887, 311.043 L 162.45, 324.129 L 122.646, 296.904 L 160.358, 262.677 z "/>
<path style="fill:rgb(228, 119, 172);fill-opacity:1.0;fill-rule:evenodd;stroke:rgb(0, 0, 0);stroke-width:3.0;" d="M 394.424, 75.3904 L 375.747, 79.9684 L 365.601, 68.7184 L 374.542, 60.0649 z "/>
<path style="fill:rgb(39, 177, 255);fill-opacity:1.0;fill-rule:evenodd;stroke:rgb(0, 0, 0);stroke-width:3.0;" d="M 359.228, 339.843 L 358.26, 383.667 L 329.077, 348.146 L 329.341, 333.346 z "/>
<path style="fill:rgb(82, 126, 255);fill-opacity:1.0;fill-rule:evenodd;stroke:rgb(0, 0, 0);stroke-width:3.0;" d="M 421.531, 565.223 L 414.121, 555.401 L 436.041, 543.653 z "/>
<path style="fill:rgb(255, 255, 52);fill-opacity:1.0;fill-rule:evenodd;stroke:rgb(0, 0, 0);stroke-width:3.0;" d="M 358.26, 383.667 L 355.543, 506.699 L 325.978, 522.242 L 326.761, 478.243 L 354.064, 378.56 z "/>
<path style="fill:rgb(177, 255, 209);fill-opacity:1.0;fill-rule:evenodd;stroke:rgb(0, 0, 0);stroke-width:3.0;" d="M 190.466, 172.372 L 188.811, 180.905 L 174.333, 171.025 L 168.683, 152.486 z "/>
<path style="fill:rgb(255, 220, 10);fill-opacity:1.0;fill-rule:evenodd;stroke:rgb(0, 0, 0);stroke-width:3.0;" d="M 465.361, 394.759 L 477.169, 406.083 L 448.279, 390.079 L 449.598, 384.11 z "/>
<path style="fill:rgb(11, 175, 255);fill-opacity:1.0;fill-rule:evenodd;stroke:rgb(0, 0, 0);stroke-width:3.0;" d="M 715.743, 511.81 L 718.586, 529.222 L 690.733, 510.102 L 690.22, 501.65 L 697.456, 497.774 z "/>
<path style="fill:rgb(114, 252, 62);fill-opacity:1.0;fill-rule:evenodd;stroke:rgb(0, 0, 0);stroke-width:3.0;" d="M 755.852, 154.097 L 747.966, 163.891 L 739.97, 156.732 L 750.93, 146.65 z "/>
<path style="fill:rgb(215, 243, 57);fill-opacity:1.0;fill-rule:evenodd;stroke:rgb(0, 0, 0);stroke-width:3.0;" d="M 733.581, 148.728 L 688.903, 168.453 L 692.444, 116.339 L 744.276, 98.8302 z "/>
<path style="fill:rgb(255, 197, 30);fill-opacity:1.0;fill-rule:evenodd;stroke:rgb(0, 0, 0);stroke-width:3.0;" d="M 718.506, 107.535 L 692.444, 116.339 L 692.694, 112.661 L 717.314, 100.936 z "/>
<path style="fill:rgb(252, 70, 32);fill-opacity:1.0;fill-rule:evenodd;stroke:rgb(0, 0, 0);stroke-width:3.0;" d="M 744.276, 98.8302 L 718.506, 107.535 L 717.314, 100.936 L 746.838, 86.8752 z "/>
<path style="fill:rgb(159, 19, 209);fill-opacity:1.0;fill-rule:evenodd;stroke:rgb(0, 0, 0);stroke-width:3.0;" d="M 217.232, 217.192 L 212.691, 229.813 L 202.538, 228.988 L 209.814, 213.454 L 216.938, 209.634 z "/>
</svg>