<?xml version="1.0" encoding="iso-8859-1" standalone="no"?>
<!DOCTYPE svg PUBLIC "-//W3C//DTD SVG 1.0//EN" "http://www.w3.org/TR/2001/REC-SVG-20010904/DTD/svg10.dtd">
<svg xmlns="http://www.w3.org/2000/svg" width="800" height="600">
<path style="fill:rgb(0, 0, 0);fill-opacity:0.0;fill-rule:evenodd;stroke:rgb(0, 0, 0);stroke-width:0.0;" d="M 0, 600 L 800, 600 L 800, 0 L 0, 0 z "/>
<path style="fill:rgb(255, 20, 19);fill-opacity:1.0;fill-rule:evenodd;stroke:rgb(0, 0, 0);stroke-width:3.0;" d="M 784.1, 351.97 L 777.88, 358.004 L 771.963, 328.443 z "/>
<path style="fill:rgb(255, 20, 19);fill-opacity:1.0;fill-rule:evenodd;stroke:rgb(0, 0, 0);stroke-width:3.0;" d="M 127.189, 528.547 L 91.8962, 546.168 L 88.9547, 521.535 L 107.908, 514.589 z "/>
<path style="fill:rgb(240, 58, 75);fill-opacity:1.0;fill-rule:evenodd;stroke:rgb(0, 0, 0);stroke-width:3.0;" d="M 548.395, 21.2133 L 538.344, 30.9273 L 524.141, 29.155 L 543.378, 19.2715 z "/>
<path style="fill:rgb(192, 202, 65);fill-opacity:1.0;fill-rule:evenodd;stroke:rgb(0, 0, 0);stroke-width:3.0;" d="M 531.723, 25.2598 L 524.141, 29.155 L 521.03, 28.7667 L 504.224, 14.6101 L 504.679, 11.4087 L 511.159, 9.65586 z "/>
<path style="fill:rgb(192, 202, 65);fill-opacity:1.0;fill-rule:evenodd;stroke:rgb(0, 0, 0);stroke-width:3.0;" d="M 339.245, 581.328 L 197.831, 579.685 L 191.521, 575.117 L 294, 474.491 z "/>
<path style="fill:rgb(234, 76, 8);fill-opacity:1.0;fill-rule:evenodd;stroke:rgb(0, 0, 0);stroke-width:3.0;" d="M 607.724, 525.105 L 360.258, 469.818 L 389.367, 311.611 z "/>
<path style="fill:rgb(10, 115, 255);fill-opacity:1.0;fill-rule:evenodd;stroke:rgb(0, 0, 0);stroke-width:3.0;" d="M 245.116, 294.618 L 247.349, 297.482 L 241.627, 313.264 L 237.17, 310.849 L 233.609, 304.483 L 240.233, 292.196 L 242.716, 292.118 z "/>
<path style="fill:rgb(32, 136, 255);fill-opacity:1.0;fill-rule:evenodd;stroke:rgb(0, 0, 0);stroke-width:3.0;" d="M 393.381, 477.218 L 365.075, 502.8 L 353.904, 468.398 z "/>
<path style="fill:rgb(255, 148, 7);fill-opacity:1.0;fill-rule:evenodd;stroke:rgb(0, 0, 0);stroke-width:3.0;" d="M 497.094, 500.389 L 496.946, 500.61 L 382.281, 496.175 L 408.268, 480.544 z "/>
<path style="fill:rgb(255, 148, 7);fill-opacity:1.0;fill-rule:evenodd;stroke:rgb(0, 0, 0);stroke-width:3.0;" d="M 106.884, 581.239 L 104.041, 587.172 L 97.3579, 593.547 L 53.3992, 562.31 L 52.5941, 561.645 z "/>
<path style="fill:rgb(234, 35, 12);fill-opacity:1.0;fill-rule:evenodd;stroke:rgb(0, 0, 0);stroke-width:3.0;" d="M 617.139, 26.8021 L 634.66, 41.7833 L 626.666, 40.4787 L 617.337, 37.9187 L 615.826, 35.0263 L 614.809, 26.7992 z "/>
<path style="fill:rgb(234, 35, 12);fill-opacity:1.0;fill-rule:evenodd;stroke:rgb(0, 0, 0);stroke-width:3.0;" d="M 114.145, 52.6634 L 110.541, 60.1506 L 101.108, 67.6582 L 77.5061, 25.4743 L 81.9917, 13.108 z "/>
<path style="fill:rgb(234, 35, 12);fill-opacity:1.0;fill-rule:evenodd;stroke:rgb(0, 0, 0);stroke-width:3.0;" d="M 740.845, 437.007 L 563.091, 481.466 L 524.416, 443.653 L 703.526, 338.588 z "/>
<path style="fill:rgb(255, 246, 28);fill-opacity:1.0;fill-rule:evenodd;stroke:rgb(0, 0, 0);stroke-width:3.0;" d="M 271.678, 465.921 L 281.239, 472.777 L 270.528, 483.011 L 260.918, 486.048 L 257.187, 472.735 L 263.147, 463.947 z "/>
<path style="fill:rgb(255, 246, 28);fill-opacity:1.0;fill-rule:evenodd;stroke:rgb(0, 0, 0);stroke-width:3.0;" d="M 346.881, 506.94 L 346.915, 507.041 L 333.444, 503.201 L 332.444, 501.956 L 330.738, 481.425 L 332.21, 480.718 z "/>
<path style="fill:rgb(255, 246, 28);fill-opacity:1.0;fill-rule:evenodd;stroke:rgb(0, 0, 0);stroke-width:3.0;" d="M 575.898, 185.453 L 578.39, 194.04 L 572.274, 197.92 L 560.601, 193.204 L 575.4, 184.95 z "/>
<path style="fill:rgb(255, 246, 28);fill-opacity:1.0;fill-rule:evenodd;stroke:rgb(0, 0, 0);stroke-width:3.0;" d="M 207.126, 95.9663 L 156.734, 81.302 L 150.31, 28.5009 L 176.969, 7.28414 z "/>
<path style="fill:rgb(255, 246, 28);fill-opacity:1.0;fill-rule:evenodd;stroke:rgb(0, 0, 0);stroke-width:3.0;" d="M 330.418, 458.528 L 327.832, 459.088 L 320.146, 452.71 L 310.916, 421.711 L 312.675, 406.351 z "/>
<path style="fill:rgb(83, 26, 140);fill-opacity:1.0;fill-rule:evenodd;stroke:rgb(0, 0, 0);stroke-width:3.0;" d="M 374.692, 532.418 L 384.414, 562.357 L 362.832, 553.848 L 356.038, 533.869 L 367.914, 525.333 z "/>
<path style="fill:rgb(83, 26, 140);fill-opacity:1.0;fill-rule:evenodd;stroke:rgb(0, 0, 0);stroke-width:3.0;" d="M 110.418, 558.234 L 116.692, 575.105 L 112.523, 579.081 L 103.627, 562.974 L 102.075, 556.486 z "/>
<path style="fill:rgb(83, 26, 140);fill-opacity:1.0;fill-rule:evenodd;stroke:rgb(0, 0, 0);stroke-width:3.0;" d="M 161.467, 539.07 L 162.547, 554.143 L 150.493, 545.416 L 151.052, 530.23 z "/>
<path style="fill:rgb(83, 26, 140);fill-opacity:1.0;fill-rule:evenodd;stroke:rgb(0, 0, 0);stroke-width:3.0;" d="M 123.631, 547.285 L 128.379, 550.679 L 111.774, 561.882 L 107.532, 550.473 L 117.229, 545.631 L 118.049, 545.569 z "/>
<path style="fill:rgb(83, 26, 140);fill-opacity:1.0;fill-rule:evenodd;stroke:rgb(0, 0, 0);stroke-width:3.0;" d="M 261.399, 506.503 L 259.324, 508.54 L 252.202, 509.968 L 250.191, 506.825 L 256.168, 489.632 z "/>
<path style="fill:rgb(83, 26, 140);fill-opacity:1.0;fill-rule:evenodd;stroke:rgb(0, 0, 0);stroke-width:3.0;" d="M 489.538, 383.462 L 493.825, 403.688 L 490.472, 410.464 L 463.257, 383.856 L 482.151, 368.95 z "/>
<path style="fill:rgb(83, 26, 140);fill-opacity:1.0;fill-rule:evenodd;stroke:rgb(0, 0, 0);stroke-width:3.0;" d="M 232.237, 490.603 L 176.305, 551.663 L 44.7989, 440.043 z "/>
<path style="fill:rgb(24, 112, 255);fill-opacity:1.0;fill-rule:evenodd;stroke:rgb(0, 0, 0);stroke-width:3.0;" d="M 364.394, 500.704 L 374.692, 532.418 L 348.24, 504.768 L 353.698, 498.866 z "/>
<path style="fill:rgb(240, 128, 10);fill-opacity:1.0;fill-rule:evenodd;stroke:rgb(0, 0, 0);stroke-width:3.0;" d="M 778.352, 360.359 L 759.354, 365.923 L 757.588, 363.967 L 765.772, 302.075 L 766.589, 301.596 z "/>
<path style="fill:rgb(240, 128, 10);fill-opacity:1.0;fill-rule:evenodd;stroke:rgb(0, 0, 0);stroke-width:3.0;" d="M 512.757, 353.215 L 501.045, 368.1 L 490.007, 362.752 L 506.822, 349.486 z "/>
<path style="fill:rgb(240, 128, 10);fill-opacity:1.0;fill-rule:evenodd;stroke:rgb(0, 0, 0);stroke-width:3.0;" d="M 320.423, 486.376 L 313.257, 489.816 L 284.716, 452.569 L 279.391, 439.996 L 293.26, 419.548 z "/>
<path style="fill:rgb(255, 249, 24);fill-opacity:1.0;fill-rule:evenodd;stroke:rgb(0, 0, 0);stroke-width:3.0;" d="M 313.721, 370.639 L 304.998, 383.777 L 290.232, 340.355 z "/>
<path style="fill:rgb(255, 249, 24);fill-opacity:1.0;fill-rule:evenodd;stroke:rgb(0, 0, 0);stroke-width:3.0;" d="M 408.268, 480.544 L 376.752, 499.5 L 366.399, 501.603 L 376.584, 492.398 L 401.832, 479.106 z "/>
<path style="fill:rgb(255, 0, 255);fill-opacity:1.0;fill-rule:evenodd;stroke:rgb(0, 0, 0);stroke-width:3.0;" d="M 165.882, 576.568 L 149.116, 576.049 L 124.308, 567.84 L 125.739, 566.475 L 149.118, 559.182 z "/>
<path style="fill:rgb(255, 0, 255);fill-opacity:1.0;fill-rule:evenodd;stroke:rgb(0, 0, 0);stroke-width:3.0;" d="M 384.414, 562.357 L 392.305, 586.658 L 375.782, 591.931 L 362.832, 553.848 z "/>
<path style="fill:rgb(105, 237, 128);fill-opacity:1.0;fill-rule:evenodd;stroke:rgb(0, 0, 0);stroke-width:3.0;" d="M 30.0326, 543.01 L 29.2868, 550.515 L 5.13212, 551.805 L 5.09593, 551.544 L 27.1438, 540.624 z "/>
<path style="fill:rgb(105, 237, 128);fill-opacity:1.0;fill-rule:evenodd;stroke:rgb(0, 0, 0);stroke-width:3.0;" d="M 572.274, 197.92 L 390.831, 313.043 L 340.783, 264.11 L 478.655, 160.103 z "/>
<path style="fill:rgb(255, 2, 159);fill-opacity:1.0;fill-rule:evenodd;stroke:rgb(0, 0, 0);stroke-width:3.0;" d="M 95.7032, 196.09 L 133.519, 237.809 L 105.594, 236.504 L 73.6484, 179.143 z "/>
<path style="fill:rgb(228, 5, 33);fill-opacity:1.0;fill-rule:evenodd;stroke:rgb(0, 0, 0);stroke-width:3.0;" d="M 331.44, 532.946 L 335.252, 539.996 L 325.36, 548.541 L 318.438, 532.197 z "/>
<path style="fill:rgb(228, 5, 33);fill-opacity:1.0;fill-rule:evenodd;stroke:rgb(0, 0, 0);stroke-width:3.0;" d="M 73.6484, 179.143 L 105.594, 236.504 L 93.3531, 235.932 L 61.6801, 171.002 L 62.5842, 170.641 z "/>
<path style="fill:rgb(246, 11, 50);fill-opacity:1.0;fill-rule:evenodd;stroke:rgb(0, 0, 0);stroke-width:3.0;" d="M 207.126, 95.9663 L 280.795, 312.604 L 216.443, 273.802 L 137.969, 133.543 L 161.177, 82.5949 z "/>
<path style="fill:rgb(255, 146, 8);fill-opacity:1.0;fill-rule:evenodd;stroke:rgb(0, 0, 0);stroke-width:3.0;" d="M 759.314, 350.913 L 757.588, 363.967 L 723.899, 326.637 L 749.543, 311.595 z "/>
<path style="fill:rgb(255, 146, 8);fill-opacity:1.0;fill-rule:evenodd;stroke:rgb(0, 0, 0);stroke-width:3.0;" d="M 351.478, 419.32 L 321.178, 431.355 L 319.195, 425.524 L 343.369, 408.866 z "/>
<path style="fill:rgb(255, 146, 8);fill-opacity:1.0;fill-rule:evenodd;stroke:rgb(0, 0, 0);stroke-width:3.0;" d="M 286.243, 337.445 L 290.887, 342.28 L 301.326, 372.979 L 301.888, 379.934 L 294.029, 381.913 L 278.378, 333.182 z "/>
<path style="fill:rgb(255, 146, 8);fill-opacity:1.0;fill-rule:evenodd;stroke:rgb(0, 0, 0);stroke-width:3.0;" d="M 594.481, 522.146 L 451.938, 567.63 L 497.094, 500.389 z "/>
<path style="fill:rgb(255, 172, 255);fill-opacity:1.0;fill-rule:evenodd;stroke:rgb(0, 0, 0);stroke-width:3.0;" d="M 425.58, 11.2623 L 435.813, 18.1327 L 401.086, 13.799 L 400.636, 10.556 z "/>
<path style="fill:rgb(119, 144, 255);fill-opacity:1.0;fill-rule:evenodd;stroke:rgb(0, 0, 0);stroke-width:3.0;" d="M 151.052, 530.23 L 150.493, 545.416 L 110.555, 516.506 L 117.535, 501.781 z "/>
<path style="fill:rgb(119, 144, 255);fill-opacity:1.0;fill-rule:evenodd;stroke:rgb(0, 0, 0);stroke-width:3.0;" d="M 88.0113, 555.639 L 86.4156, 569.859 L 63.952, 552.777 L 82.7613, 549.195 z "/>
<path style="fill:rgb(255, 1, 12);fill-opacity:1.0;fill-rule:evenodd;stroke:rgb(0, 0, 0);stroke-width:3.0;" d="M 514.244, 166.562 L 512.021, 173.581 L 478.655, 160.103 L 481.999, 157.581 z "/>
<path style="fill:rgb(110, 255, 102);fill-opacity:1.0;fill-rule:evenodd;stroke:rgb(0, 0, 0);stroke-width:3.0;" d="M 493.23, 347.331 L 446.834, 367.799 L 390.831, 313.043 L 394.821, 310.511 z "/>
<path style="fill:rgb(110, 255, 102);fill-opacity:1.0;fill-rule:evenodd;stroke:rgb(0, 0, 0);stroke-width:3.0;" d="M 431.871, 143.618 L 313.567, 237.5 L 226.212, 152.091 L 201.512, 79.4556 z "/>
<path style="fill:rgb(110, 255, 102);fill-opacity:1.0;fill-rule:evenodd;stroke:rgb(0, 0, 0);stroke-width:3.0;" d="M 59.5392, 555.138 L 58.3157, 563.71 L 52.5941, 561.645 L 40.2772, 551.472 L 54.5689, 550.387 z "/>
<path style="fill:rgb(110, 255, 102);fill-opacity:1.0;fill-rule:evenodd;stroke:rgb(0, 0, 0);stroke-width:3.0;" d="M 161.177, 82.5949 L 145.9, 116.132 L 129.852, 119.035 L 101.108, 67.6582 L 103.448, 65.7954 z "/>
<path style="fill:rgb(226, 74, 46);fill-opacity:1.0;fill-rule:evenodd;stroke:rgb(0, 0, 0);stroke-width:3.0;" d="M 369.803, 417.941 L 367.875, 428.421 L 344.958, 431.229 L 343.39, 422.533 L 357.22, 417.04 z "/>
<path style="fill:rgb(226, 74, 46);fill-opacity:1.0;fill-rule:evenodd;stroke:rgb(0, 0, 0);stroke-width:3.0;" d="M 517.369, 356.112 L 496.787, 397.703 L 493.46, 391.167 L 504.739, 363.405 L 512.757, 353.215 z "/>
<path style="fill:rgb(88, 11, 255);fill-opacity:1.0;fill-rule:evenodd;stroke:rgb(0, 0, 0);stroke-width:3.0;" d="M 759.314, 350.913 L 749.543, 311.595 L 765.772, 302.075 z "/>
<path style="fill:rgb(94, 15, 255);fill-opacity:1.0;fill-rule:evenodd;stroke:rgb(0, 0, 0);stroke-width:3.0;" d="M 314.415, 448.912 L 316.642, 473.173 L 314.994, 473.019 L 293.26, 419.548 L 295.85, 415.73 z "/>
<path style="fill:rgb(10, 172, 240);fill-opacity:1.0;fill-rule:evenodd;stroke:rgb(0, 0, 0);stroke-width:3.0;" d="M 496.946, 500.61 L 451.938, 567.63 L 392.305, 586.658 L 366.086, 505.915 L 382.281, 496.175 z "/>
<path style="fill:rgb(10, 172, 240);fill-opacity:1.0;fill-rule:evenodd;stroke:rgb(0, 0, 0);stroke-width:3.0;" d="M 728.106, 281.356 L 688.543, 347.377 L 649.361, 370.361 L 646.502, 226.179 z "/>
<path style="fill:rgb(10, 172, 240);fill-opacity:1.0;fill-rule:evenodd;stroke:rgb(0, 0, 0);stroke-width:3.0;" d="M 343.369, 408.866 L 319.195, 425.524 L 314.464, 411.612 L 332.579, 394.954 z "/>
<path style="fill:rgb(255, 112, 16);fill-opacity:1.0;fill-rule:evenodd;stroke:rgb(0, 0, 0);stroke-width:3.0;" d="M 271.95, 329.698 L 254.951, 342.63 L 248.585, 331.251 L 267.578, 327.329 z "/>
<path style="fill:rgb(255, 112, 16);fill-opacity:1.0;fill-rule:evenodd;stroke:rgb(0, 0, 0);stroke-width:3.0;" d="M 43.211, 500.284 L 43.064, 500.619 L 39.1391, 506.523 L 21.3883, 506.462 L 17.9409, 497.518 L 36.2025, 492.364 z "/>
<path style="fill:rgb(255, 112, 16);fill-opacity:1.0;fill-rule:evenodd;stroke:rgb(0, 0, 0);stroke-width:3.0;" d="M 282.68, 462.483 L 285.662, 469.158 L 263.147, 463.947 L 265.583, 460.355 z "/>
<path style="fill:rgb(255, 7, 70);fill-opacity:1.0;fill-rule:evenodd;stroke:rgb(0, 0, 0);stroke-width:3.0;" d="M 282.68, 462.483 L 265.583, 460.355 L 275.319, 446.001 z "/>
<path style="fill:rgb(194, 0, 237);fill-opacity:1.0;fill-rule:evenodd;stroke:rgb(0, 0, 0);stroke-width:3.0;" d="M 210.225, 556.751 L 191.521, 575.117 L 188.991, 573.285 L 200.399, 556.464 L 210.439, 552.354 z "/>
<path style="fill:rgb(194, 0, 237);fill-opacity:1.0;fill-rule:evenodd;stroke:rgb(0, 0, 0);stroke-width:3.0;" d="M 380.368, 360.521 L 372.193, 404.95 L 307.611, 362.762 L 290.232, 340.355 L 280.631, 312.12 z "/>
<path style="fill:rgb(76, 168, 255);fill-opacity:1.0;fill-rule:evenodd;stroke:rgb(0, 0, 0);stroke-width:3.0;" d="M 351.045, 448.026 L 347.959, 447.869 L 344.958, 431.229 L 361.135, 429.247 z "/>
<path style="fill:rgb(76, 168, 255);fill-opacity:1.0;fill-rule:evenodd;stroke:rgb(0, 0, 0);stroke-width:3.0;" d="M 99.7784, 556.005 L 112.523, 579.081 L 110.968, 580.564 L 91.6329, 554.298 z "/>
<path style="fill:rgb(255, 255, 19);fill-opacity:1.0;fill-rule:evenodd;stroke:rgb(0, 0, 0);stroke-width:3.0;" d="M 577.019, 184.047 L 560.601, 193.204 L 512.021, 173.581 L 514.244, 166.562 z "/>
<path style="fill:rgb(83, 146, 255);fill-opacity:1.0;fill-rule:evenodd;stroke:rgb(0, 0, 0);stroke-width:3.0;" d="M 332.579, 394.954 L 314.464, 411.612 L 309.362, 396.611 L 326.678, 387.346 z "/>
<path style="fill:rgb(140, 246, 255);fill-opacity:1.0;fill-rule:evenodd;stroke:rgb(0, 0, 0);stroke-width:3.0;" d="M 372.193, 404.95 L 370.974, 411.577 L 351.478, 419.32 L 324.143, 384.077 L 322.454, 372.458 z "/>
<path style="fill:rgb(140, 246, 255);fill-opacity:1.0;fill-rule:evenodd;stroke:rgb(0, 0, 0);stroke-width:3.0;" d="M 188.825, 562.291 L 191.912, 568.978 L 188.991, 573.285 L 162.547, 554.143 L 161.467, 539.07 z "/>
<path style="fill:rgb(140, 246, 255);fill-opacity:1.0;fill-rule:evenodd;stroke:rgb(0, 0, 0);stroke-width:3.0;" d="M 243.084, 493.529 L 222.85, 523.362 L 205.101, 524.873 L 204.46, 520.927 L 232.237, 490.603 z "/>
<path style="fill:rgb(140, 246, 255);fill-opacity:1.0;fill-rule:evenodd;stroke:rgb(0, 0, 0);stroke-width:3.0;" d="M 711.609, 39.0555 L 730.227, 48.2184 L 725.416, 54.2718 L 702.988, 51.473 L 698.528, 37.6811 z "/>
<path style="fill:rgb(136, 26, 255);fill-opacity:1.0;fill-rule:evenodd;stroke:rgb(0, 0, 0);stroke-width:3.0;" d="M 197.99, 240.821 L 151.062, 238.628 L 121.745, 216.101 L 140.534, 138.126 z "/>
<path style="fill:rgb(212, 17, 18);fill-opacity:1.0;fill-rule:evenodd;stroke:rgb(0, 0, 0);stroke-width:3.0;" d="M 224.898, 538.106 L 218.528, 547.955 L 215.125, 534.752 L 220.137, 527.362 z "/>
<path style="fill:rgb(249, 184, 57);fill-opacity:1.0;fill-rule:evenodd;stroke:rgb(0, 0, 0);stroke-width:3.0;" d="M 112.197, 29.8907 L 112.866, 51.0896 L 97.0372, 31.6171 L 104.592, 18.1579 z "/>
<path style="fill:rgb(255, 3, 24);fill-opacity:1.0;fill-rule:evenodd;stroke:rgb(0, 0, 0);stroke-width:3.0;" d="M 362.751, 448.619 L 363.873, 450.169 L 362.962, 455.119 L 344.968, 463.266 L 332.096, 463.462 L 326.422, 446.778 z "/>
<path style="fill:rgb(70, 24, 255);fill-opacity:1.0;fill-rule:evenodd;stroke:rgb(0, 0, 0);stroke-width:3.0;" d="M 173.002, 583.953 L 180.063, 591.275 L 170.728, 594.162 L 122.083, 569.963 L 124.308, 567.84 z "/>
<path style="fill:rgb(240, 29, 165);fill-opacity:1.0;fill-rule:evenodd;stroke:rgb(0, 0, 0);stroke-width:3.0;" d="M 326.678, 387.346 L 309.362, 396.611 L 304.998, 383.777 L 313.721, 370.639 z "/>
<path style="fill:rgb(255, 255, 44);fill-opacity:1.0;fill-rule:evenodd;stroke:rgb(0, 0, 0);stroke-width:3.0;" d="M 347.959, 447.869 L 326.422, 446.778 L 321.178, 431.355 L 343.39, 422.533 z "/>
<path style="fill:rgb(255, 30, 207);fill-opacity:1.0;fill-rule:evenodd;stroke:rgb(0, 0, 0);stroke-width:3.0;" d="M 527.102, 336.444 L 517.369, 356.112 L 506.822, 349.486 L 525.707, 334.586 z "/>
<path style="fill:rgb(255, 30, 207);fill-opacity:1.0;fill-rule:evenodd;stroke:rgb(0, 0, 0);stroke-width:3.0;" d="M 517.661, 340.934 L 504.302, 351.474 L 394.821, 310.511 L 421.6, 293.521 z "/>
<path style="fill:rgb(255, 14, 27);fill-opacity:1.0;fill-rule:evenodd;stroke:rgb(0, 0, 0);stroke-width:3.0;" d="M 135.44, 576.607 L 132.868, 590.993 L 111.605, 579.957 L 122.083, 569.963 z "/>
<path style="fill:rgb(255, 14, 27);fill-opacity:1.0;fill-rule:evenodd;stroke:rgb(0, 0, 0);stroke-width:3.0;" d="M 599.429, 190.289 L 529.504, 331.591 L 517.661, 340.934 L 421.6, 293.521 L 588.916, 187.361 z "/>
<path style="fill:rgb(223, 255, 22);fill-opacity:1.0;fill-rule:evenodd;stroke:rgb(0, 0, 0);stroke-width:3.0;" d="M 105.077, 576.587 L 102.677, 579.721 L 100.218, 578.833 L 89.4219, 567.972 L 91.6988, 562.692 L 93.683, 562.601 z "/>
<path style="fill:rgb(223, 255, 22);fill-opacity:1.0;fill-rule:evenodd;stroke:rgb(0, 0, 0);stroke-width:3.0;" d="M 295.766, 466.99 L 331.44, 532.946 L 318.438, 532.197 L 284.716, 452.569 z "/>
<path style="fill:rgb(95, 81, 220);fill-opacity:1.0;fill-rule:evenodd;stroke:rgb(0, 0, 0);stroke-width:3.0;" d="M 278.378, 333.182 L 294.237, 382.56 L 276.46, 381.073 L 254.951, 342.63 L 271.95, 329.698 z "/>
<path style="fill:rgb(95, 81, 220);fill-opacity:1.0;fill-rule:evenodd;stroke:rgb(0, 0, 0);stroke-width:3.0;" d="M 294.237, 382.56 L 306.538, 420.859 L 287.847, 401.427 L 276.46, 381.073 z "/>
<path style="fill:rgb(95, 81, 220);fill-opacity:1.0;fill-rule:evenodd;stroke:rgb(0, 0, 0);stroke-width:3.0;" d="M 589.773, 21.3527 L 592.029, 26.7706 L 570.325, 26.7433 L 570.99, 23.8302 L 574.731, 20.0866 z "/>
<path style="fill:rgb(140, 243, 11);fill-opacity:1.0;fill-rule:evenodd;stroke:rgb(0, 0, 0);stroke-width:3.0;" d="M 646.048, 203.274 L 649.361, 370.361 L 524.416, 443.653 L 490.472, 410.464 L 599.429, 190.289 z "/>
<path style="fill:rgb(255, 175, 19);fill-opacity:1.0;fill-rule:evenodd;stroke:rgb(0, 0, 0);stroke-width:3.0;" d="M 389.367, 311.611 L 380.368, 360.521 L 280.631, 312.12 L 278.21, 305.001 L 381.806, 304.22 z "/>
<path style="fill:rgb(255, 255, 8);fill-opacity:1.0;fill-rule:evenodd;stroke:rgb(0, 0, 0);stroke-width:3.0;" d="M 266.835, 304.187 L 278.931, 311.48 L 277.702, 317.126 L 273.001, 320.449 L 255.257, 303.258 L 257.581, 302.643 L 261.859, 302.623 z "/>
<path style="fill:rgb(255, 255, 8);fill-opacity:1.0;fill-rule:evenodd;stroke:rgb(0, 0, 0);stroke-width:3.0;" d="M 51.8226, 172.718 L 50.1252, 175.615 L 41.6453, 179 L 26.3389, 157.2 L 28.5309, 153.895 z "/>
<path style="fill:rgb(255, 246, 114);fill-opacity:1.0;fill-rule:evenodd;stroke:rgb(0, 0, 0);stroke-width:3.0;" d="M 381.806, 304.22 L 278.21, 305.001 L 258.972, 248.427 L 290.555, 215.001 z "/>
<path style="fill:rgb(21, 98, 255);fill-opacity:1.0;fill-rule:evenodd;stroke:rgb(0, 0, 0);stroke-width:3.0;" d="M 243.614, 516.498 L 242.962, 524.606 L 242.18, 525.374 L 234.988, 522.879 L 231.918, 509.992 L 239.074, 499.44 z "/>
<path style="fill:rgb(21, 98, 255);fill-opacity:1.0;fill-rule:evenodd;stroke:rgb(0, 0, 0);stroke-width:3.0;" d="M 290.555, 215.001 L 258.972, 248.427 L 226.212, 152.091 z "/>
<path style="fill:rgb(79, 246, 189);fill-opacity:1.0;fill-rule:evenodd;stroke:rgb(0, 0, 0);stroke-width:3.0;" d="M 504.302, 351.474 L 463.257, 383.856 L 446.834, 367.799 L 493.23, 347.331 z "/>
<path style="fill:rgb(252, 252, 37);fill-opacity:1.0;fill-rule:evenodd;stroke:rgb(0, 0, 0);stroke-width:3.0;" d="M 696.931, 32.7449 L 702.793, 50.8719 L 681.598, 44.1301 L 691.747, 32.0195 z "/>
<path style="fill:rgb(252, 252, 37);fill-opacity:1.0;fill-rule:evenodd;stroke:rgb(0, 0, 0);stroke-width:3.0;" d="M 364.145, 448.69 L 351.045, 448.026 L 361.135, 429.247 L 367.875, 428.421 z "/>
<path style="fill:rgb(252, 252, 17);fill-opacity:1.0;fill-rule:evenodd;stroke:rgb(0, 0, 0);stroke-width:3.0;" d="M 501.045, 368.1 L 489.31, 383.014 L 482.151, 368.95 L 490.007, 362.752 z "/>
<path style="fill:rgb(189, 33, 23);fill-opacity:1.0;fill-rule:evenodd;stroke:rgb(0, 0, 0);stroke-width:3.0;" d="M 251.191, 503.405 L 242.874, 513.715 L 239.074, 499.44 L 243.76, 492.532 z "/>
<path style="fill:rgb(255, 115, 9);fill-opacity:1.0;fill-rule:evenodd;stroke:rgb(0, 0, 0);stroke-width:3.0;" d="M 348.318, 535.571 L 357.141, 550.777 L 341.397, 551.357 L 295.766, 466.99 z "/>
<path style="fill:rgb(255, 115, 9);fill-opacity:1.0;fill-rule:evenodd;stroke:rgb(0, 0, 0);stroke-width:3.0;" d="M 481.999, 157.581 L 340.783, 264.11 L 313.567, 237.5 L 431.871, 143.618 z "/>
<path style="fill:rgb(144, 85, 179);fill-opacity:1.0;fill-rule:evenodd;stroke:rgb(0, 0, 0);stroke-width:3.0;" d="M 740.216, 344.717 L 731.912, 355.551 L 707.547, 336.229 L 723.899, 326.637 z "/>
<path style="fill:rgb(255, 255, 48);fill-opacity:1.0;fill-rule:evenodd;stroke:rgb(0, 0, 0);stroke-width:3.0;" d="M 359.732, 486.346 L 358.489, 486.29 L 337.596, 479.637 L 336.498, 476.409 L 356.217, 475.523 z "/>
<path style="fill:rgb(240, 255, 41);fill-opacity:1.0;fill-rule:evenodd;stroke:rgb(0, 0, 0);stroke-width:3.0;" d="M 306.538, 420.859 L 309.837, 431.131 L 308.924, 439.099 L 287.847, 401.427 z "/>
<path style="fill:rgb(48, 255, 182);fill-opacity:1.0;fill-rule:evenodd;stroke:rgb(0, 0, 0);stroke-width:3.0;" d="M 137.969, 133.543 L 132.041, 122.947 L 135.381, 118.035 L 145.9, 116.132 z "/>
<path style="fill:rgb(61, 132, 207);fill-opacity:1.0;fill-rule:evenodd;stroke:rgb(0, 0, 0);stroke-width:3.0;" d="M 353.965, 468.586 L 356.217, 475.523 L 346.179, 475.974 L 335.585, 467.225 z "/>
<path style="fill:rgb(255, 199, 197);fill-opacity:1.0;fill-rule:evenodd;stroke:rgb(0, 0, 0);stroke-width:3.0;" d="M 156.734, 81.302 L 103.448, 65.7954 L 150.31, 28.5009 z "/>
<path style="fill:rgb(54, 189, 255);fill-opacity:1.0;fill-rule:evenodd;stroke:rgb(0, 0, 0);stroke-width:3.0;" d="M 193.662, 566.397 L 176.305, 551.663 L 200.485, 525.266 L 222.85, 523.362 z "/>
<path style="fill:rgb(65, 33, 154);fill-opacity:1.0;fill-rule:evenodd;stroke:rgb(0, 0, 0);stroke-width:3.0;" d="M 794.92, 566.926 L 559.529, 563.113 L 562.097, 532.479 L 594.481, 522.146 z "/>
<path style="fill:rgb(249, 102, 12);fill-opacity:1.0;fill-rule:evenodd;stroke:rgb(0, 0, 0);stroke-width:3.0;" d="M 583.855, 16.9239 L 592.269, 21.5627 L 562.361, 19.0454 L 562.747, 16.9697 L 569.412, 14.9031 z "/>
<path style="fill:rgb(255, 74, 103);fill-opacity:1.0;fill-rule:evenodd;stroke:rgb(0, 0, 0);stroke-width:3.0;" d="M 312.675, 406.351 L 309.837, 431.131 L 302.579, 408.533 L 309.191, 396.105 z "/>
<path style="fill:rgb(255, 6, 20);fill-opacity:1.0;fill-rule:evenodd;stroke:rgb(0, 0, 0);stroke-width:3.0;" d="M 654.871, 45.4686 L 698.402, 169.851 L 389.168, 12.3119 z "/>
<path style="fill:rgb(161, 2, 170);fill-opacity:1.0;fill-rule:evenodd;stroke:rgb(0, 0, 0);stroke-width:3.0;" d="M 697.631, 50.8046 L 704.857, 60.8007 L 666.534, 78.7923 L 654.871, 45.4686 z "/>
<path style="fill:rgb(161, 2, 170);fill-opacity:1.0;fill-rule:evenodd;stroke:rgb(0, 0, 0);stroke-width:3.0;" d="M 316.764, 111.557 L 302.502, 107.585 L 315.362, 65.5627 z "/>
<path style="fill:rgb(119, 22, 252);fill-opacity:1.0;fill-rule:evenodd;stroke:rgb(0, 0, 0);stroke-width:3.0;" d="M 373.716, 127.42 L 316.764, 111.557 L 315.362, 65.5627 L 326.052, 30.634 z "/>
<path style="fill:rgb(252, 16, 50);fill-opacity:1.0;fill-rule:evenodd;stroke:rgb(0, 0, 0);stroke-width:3.0;" d="M 766.69, 524.821 L 743.668, 515.192 L 786.954, 472.122 z "/>
<path style="fill:rgb(255, 97, 255);fill-opacity:1.0;fill-rule:evenodd;stroke:rgb(0, 0, 0);stroke-width:3.0;" d="M 637.769, 24.4673 L 645.209, 34.0181 L 644.675, 36.205 L 630.073, 37.8612 L 623.124, 31.9196 L 620.577, 28.2058 L 625.638, 22.7699 z "/>
<path style="fill:rgb(67, 121, 179);fill-opacity:1.0;fill-rule:evenodd;stroke:rgb(0, 0, 0);stroke-width:3.0;" d="M 124.077, 29.7681 L 129.536, 45.0333 L 116.425, 55.468 L 112.866, 51.0896 L 112.074, 25.9857 z "/>
<path style="fill:rgb(255, 22, 192);fill-opacity:1.0;fill-rule:evenodd;stroke:rgb(0, 0, 0);stroke-width:3.0;" d="M 756.969, 132.894 L 788.034, 215.513 L 698.402, 169.851 L 666.534, 78.7923 L 704.857, 60.8007 z "/>
<path style="fill:rgb(140, 217, 231);fill-opacity:1.0;fill-rule:evenodd;stroke:rgb(0, 0, 0);stroke-width:3.0;" d="M 756.467, 234.029 L 728.106, 281.356 L 646.502, 226.179 L 646.048, 203.274 z "/>
<path style="fill:rgb(249, 24, 255);fill-opacity:1.0;fill-rule:evenodd;stroke:rgb(0, 0, 0);stroke-width:3.0;" d="M 331.728, 493.334 L 323.13, 498.291 L 315.46, 489.452 L 331.245, 487.527 z "/>
<path style="fill:rgb(234, 255, 75);fill-opacity:1.0;fill-rule:evenodd;stroke:rgb(0, 0, 0);stroke-width:3.0;" d="M 346.432, 560.665 L 334.65, 560.578 L 329.383, 558.039 L 325.36, 548.541 L 335.252, 539.996 z "/>
<path style="fill:rgb(47, 246, 12);fill-opacity:1.0;fill-rule:evenodd;stroke:rgb(0, 0, 0);stroke-width:3.0;" d="M 766.69, 524.821 L 754.014, 557.788 L 739.385, 554.519 L 759.248, 521.708 z "/>
<path style="fill:rgb(255, 45, 18);fill-opacity:1.0;fill-rule:evenodd;stroke:rgb(0, 0, 0);stroke-width:3.0;" d="M 759.248, 521.708 L 739.385, 554.519 L 710.605, 548.089 L 743.668, 515.192 z "/>
</svg>