<?xml version="1.0" encoding="iso-8859-1" standalone="no"?>
<!DOCTYPE svg PUBLIC "-//W3C//DTD SVG 1.0//EN" "http://www.w3.org/TR/2001/REC-SVG-20010904/DTD/svg10.dtd">
<svg xmlns="http://www.w3.org/2000/svg" width="800" height="600">
<path style="fill:rgb(0, 0, 0);fill-opacity:0.0;fill-rule:evenodd;stroke:rgb(0, 0, 0);stroke-width:0.0;" d="M 0, 600 L 800, 600 L 800, 0 L 0, 0 z "/>
<path style="fill:rgb(36, 19, 255);fill-opacity:1.0;fill-rule:evenodd;stroke:rgb(0, 0, 0);stroke-width:3.0;" d="M 529.767, 378.41 L 511.189, 377.859 L 513.765, 355.82 L 514.125, 355.049 z "/>
<path style="fill:rgb(36, 19, 255);fill-opacity:1.0;fill-rule:evenodd;stroke:rgb(0, 0, 0);stroke-width:3.0;" d="M 656.72, 276.18 L 672.111, 323.719 L 659.708, 346.999 L 543.661, 262.523 L 613.902, 234.527 z "/>
<path style="fill:rgb(240, 67, 249);fill-opacity:1.0;fill-rule:evenodd;stroke:rgb(0, 0, 0);stroke-width:3.0;" d="M 426.653, 577.651 L 428.549, 587.852 L 389.442, 574.885 L 403.087, 559.348 z "/>
<path style="fill:rgb(240, 67, 249);fill-opacity:1.0;fill-rule:evenodd;stroke:rgb(0, 0, 0);stroke-width:3.0;" d="M 60.0744, 107.54 L 15.0501, 109.915 L 9.80781, 108.625 L 68.0161, 87.4995 L 85.1213, 86.3986 z "/>
<path style="fill:rgb(240, 67, 249);fill-opacity:1.0;fill-rule:evenodd;stroke:rgb(0, 0, 0);stroke-width:3.0;" d="M 499.384, 292.99 L 472.889, 293.464 L 452.467, 262.963 L 478.668, 255.605 z "/>
<path style="fill:rgb(255, 223, 39);fill-opacity:1.0;fill-rule:evenodd;stroke:rgb(0, 0, 0);stroke-width:3.0;" d="M 369.175, 527.769 L 366.528, 533.307 L 361.15, 532.063 L 354.846, 526.979 L 367.922, 520.759 z "/>
<path style="fill:rgb(255, 223, 39);fill-opacity:1.0;fill-rule:evenodd;stroke:rgb(0, 0, 0);stroke-width:3.0;" d="M 529.767, 378.41 L 580.41, 454.046 L 565.643, 473.671 L 440.367, 437.136 L 422.861, 375.239 z "/>
<path style="fill:rgb(255, 223, 39);fill-opacity:1.0;fill-rule:evenodd;stroke:rgb(0, 0, 0);stroke-width:3.0;" d="M 764.631, 220.273 L 763.426, 220.119 L 751.524, 209.944 L 772.123, 204.721 z "/>
<path style="fill:rgb(255, 223, 39);fill-opacity:1.0;fill-rule:evenodd;stroke:rgb(0, 0, 0);stroke-width:3.0;" d="M 422.861, 375.239 L 436.719, 424.239 L 384.076, 417.059 L 381.614, 414.675 L 392.807, 374.348 z "/>
<path style="fill:rgb(252, 228, 14);fill-opacity:1.0;fill-rule:evenodd;stroke:rgb(0, 0, 0);stroke-width:3.0;" d="M 483.45, 365.877 L 469.595, 367.68 L 472.848, 361.487 L 491.899, 352.617 z "/>
<path style="fill:rgb(252, 228, 14);fill-opacity:1.0;fill-rule:evenodd;stroke:rgb(0, 0, 0);stroke-width:3.0;" d="M 320.203, 574.999 L 323.959, 588.013 L 322.426, 591.188 L 304.085, 582.967 L 307.359, 567.452 z "/>
<path style="fill:rgb(252, 138, 21);fill-opacity:1.0;fill-rule:evenodd;stroke:rgb(0, 0, 0);stroke-width:3.0;" d="M 514.125, 355.049 L 503.577, 377.634 L 495.158, 377.384 L 511.858, 351.664 z "/>
<path style="fill:rgb(7, 240, 252);fill-opacity:1.0;fill-rule:evenodd;stroke:rgb(0, 0, 0);stroke-width:3.0;" d="M 758.061, 374.764 L 778.402, 412.098 L 755.252, 416.55 L 706.358, 380.958 L 707.13, 371.797 L 754.038, 370.851 z "/>
<path style="fill:rgb(255, 12, 41);fill-opacity:1.0;fill-rule:evenodd;stroke:rgb(0, 0, 0);stroke-width:3.0;" d="M 38.9508, 356.5 L 39.9667, 370.614 L 18.5478, 357.375 L 14.9669, 347.946 z "/>
<path style="fill:rgb(255, 12, 41);fill-opacity:1.0;fill-rule:evenodd;stroke:rgb(0, 0, 0);stroke-width:3.0;" d="M 628.074, 525.233 L 638.139, 543.396 L 635.304, 546.088 L 623.618, 553.201 L 615.759, 533.582 L 626.877, 523.445 z "/>
<path style="fill:rgb(255, 12, 41);fill-opacity:1.0;fill-rule:evenodd;stroke:rgb(0, 0, 0);stroke-width:3.0;" d="M 64.6338, 371.875 L 40.5444, 378.64 L 39.8311, 368.731 L 49.8492, 364.06 z "/>
<path style="fill:rgb(255, 12, 41);fill-opacity:1.0;fill-rule:evenodd;stroke:rgb(0, 0, 0);stroke-width:3.0;" d="M 591.647, 238.226 L 581.722, 239.876 L 574.332, 228.74 L 588.794, 224.679 z "/>
<path style="fill:rgb(255, 12, 41);fill-opacity:1.0;fill-rule:evenodd;stroke:rgb(0, 0, 0);stroke-width:3.0;" d="M 562.541, 241.914 L 564.837, 248.677 L 559.685, 256.137 L 549.046, 260.377 L 551.951, 235.025 L 553.968, 234.459 z "/>
<path style="fill:rgb(252, 0, 12);fill-opacity:1.0;fill-rule:evenodd;stroke:rgb(0, 0, 0);stroke-width:3.0;" d="M 539.545, 259.527 L 543.626, 264.799 L 500.765, 279.064 L 498.497, 275.804 L 526.226, 249.831 z "/>
<path style="fill:rgb(252, 0, 12);fill-opacity:1.0;fill-rule:evenodd;stroke:rgb(0, 0, 0);stroke-width:3.0;" d="M 612.468, 525.367 L 613.425, 527.756 L 606.49, 539.014 L 582.041, 539.643 L 585.732, 520.855 z "/>
<path style="fill:rgb(252, 0, 12);fill-opacity:1.0;fill-rule:evenodd;stroke:rgb(0, 0, 0);stroke-width:3.0;" d="M 734.644, 371.242 L 707.13, 371.797 L 707.484, 367.589 L 728.806, 362.643 z "/>
<path style="fill:rgb(252, 0, 12);fill-opacity:1.0;fill-rule:evenodd;stroke:rgb(0, 0, 0);stroke-width:3.0;" d="M 392.672, 374.834 L 385.687, 400.002 L 369.573, 390.058 L 355.539, 376.656 L 363.676, 371.573 z "/>
<path style="fill:rgb(15, 48, 255);fill-opacity:1.0;fill-rule:evenodd;stroke:rgb(0, 0, 0);stroke-width:3.0;" d="M 398.786, 556.007 L 398.804, 564.224 L 394.83, 568.75 L 362.97, 542.879 L 374.701, 537.3 z "/>
<path style="fill:rgb(15, 48, 255);fill-opacity:1.0;fill-rule:evenodd;stroke:rgb(0, 0, 0);stroke-width:3.0;" d="M 628.074, 525.233 L 601.81, 486.006 L 599.249, 473.213 z "/>
<path style="fill:rgb(209, 20, 7);fill-opacity:1.0;fill-rule:evenodd;stroke:rgb(0, 0, 0);stroke-width:3.0;" d="M 436.719, 424.239 L 438.97, 432.198 L 403.175, 435.565 L 384.076, 417.059 z "/>
<path style="fill:rgb(255, 22, 17);fill-opacity:1.0;fill-rule:evenodd;stroke:rgb(0, 0, 0);stroke-width:3.0;" d="M 604.03, 238.462 L 592.652, 242.997 L 588.794, 224.679 L 590.006, 224.339 L 598.148, 222.978 z "/>
<path style="fill:rgb(255, 22, 17);fill-opacity:1.0;fill-rule:evenodd;stroke:rgb(0, 0, 0);stroke-width:3.0;" d="M 418.15, 450.074 L 414.747, 514.31 L 365.204, 473.804 L 381.614, 414.675 z "/>
<path style="fill:rgb(220, 15, 50);fill-opacity:1.0;fill-rule:evenodd;stroke:rgb(0, 0, 0);stroke-width:3.0;" d="M 521.763, 282.267 L 513.274, 285.95 L 498.85, 288.374 L 500.73, 281.483 L 524.134, 276.82 z "/>
<path style="fill:rgb(220, 15, 50);fill-opacity:1.0;fill-rule:evenodd;stroke:rgb(0, 0, 0);stroke-width:3.0;" d="M 24.885, 172.591 L 23.8329, 173.568 L 7.85827, 180.06 L 9.59582, 167.688 L 24.0541, 164.718 z "/>
<path style="fill:rgb(220, 15, 50);fill-opacity:1.0;fill-rule:evenodd;stroke:rgb(0, 0, 0);stroke-width:3.0;" d="M 446.46, 291.57 L 449.206, 300.771 L 448.771, 302.075 L 448.414, 301.744 L 432.875, 273.971 L 438.332, 272.636 z "/>
<path style="fill:rgb(220, 15, 50);fill-opacity:1.0;fill-rule:evenodd;stroke:rgb(0, 0, 0);stroke-width:3.0;" d="M 621.771, 548.592 L 622.063, 549.32 L 590.34, 560.992 L 606.027, 544.157 z "/>
<path style="fill:rgb(255, 243, 20);fill-opacity:1.0;fill-rule:evenodd;stroke:rgb(0, 0, 0);stroke-width:3.0;" d="M 682.668, 197.566 L 541.554, 156.438 L 541.62, 156.102 L 712.102, 128.046 z "/>
<path style="fill:rgb(255, 243, 20);fill-opacity:1.0;fill-rule:evenodd;stroke:rgb(0, 0, 0);stroke-width:3.0;" d="M 653.675, 342.608 L 674.272, 360.781 L 674.557, 369.467 L 635.07, 354.677 L 624.721, 321.531 z "/>
<path style="fill:rgb(255, 243, 20);fill-opacity:1.0;fill-rule:evenodd;stroke:rgb(0, 0, 0);stroke-width:3.0;" d="M 621.771, 548.592 L 606.027, 544.157 L 615.795, 533.674 z "/>
<path style="fill:rgb(126, 43, 165);fill-opacity:1.0;fill-rule:evenodd;stroke:rgb(0, 0, 0);stroke-width:3.0;" d="M 437.382, 573.629 L 421.996, 574.034 L 404.323, 560.308 L 431.331, 556.775 z "/>
<path style="fill:rgb(126, 43, 165);fill-opacity:1.0;fill-rule:evenodd;stroke:rgb(0, 0, 0);stroke-width:3.0;" d="M 454.757, 266.382 L 447.028, 281.831 L 444.559, 283.24 L 442.966, 279.864 L 442.222, 277.369 L 449.994, 263.657 L 452.467, 262.963 z "/>
<path style="fill:rgb(255, 1, 179);fill-opacity:1.0;fill-rule:evenodd;stroke:rgb(0, 0, 0);stroke-width:3.0;" d="M 85.7131, 86.3605 L 5.68735, 91.5111 L 39.0738, 19.6428 z "/>
<path style="fill:rgb(255, 1, 179);fill-opacity:1.0;fill-rule:evenodd;stroke:rgb(0, 0, 0);stroke-width:3.0;" d="M 507.236, 572.487 L 512.957, 589.396 L 510.497, 592.332 L 482.875, 587.44 L 481.981, 584.277 L 503.39, 570.053 z "/>
<path style="fill:rgb(255, 1, 179);fill-opacity:1.0;fill-rule:evenodd;stroke:rgb(0, 0, 0);stroke-width:3.0;" d="M 386.993, 357.351 L 376.052, 372.964 L 363.676, 371.573 L 386.751, 357.159 z "/>
<path style="fill:rgb(255, 1, 179);fill-opacity:1.0;fill-rule:evenodd;stroke:rgb(0, 0, 0);stroke-width:3.0;" d="M 438.449, 361.947 L 440.348, 362.679 L 434.858, 375.595 L 420.488, 375.169 L 417.052, 362.899 L 430.606, 359.38 z "/>
<path style="fill:rgb(255, 1, 179);fill-opacity:1.0;fill-rule:evenodd;stroke:rgb(0, 0, 0);stroke-width:3.0;" d="M 620.405, 511.393 L 619.709, 510.136 L 639.985, 480.17 L 655.444, 465.913 z "/>
<path style="fill:rgb(255, 1, 179);fill-opacity:1.0;fill-rule:evenodd;stroke:rgb(0, 0, 0);stroke-width:3.0;" d="M 360.811, 291.381 L 350.315, 308.055 L 340.49, 304.804 L 340.642, 303.824 L 360.748, 291.286 z "/>
<path style="fill:rgb(89, 14, 223);fill-opacity:1.0;fill-rule:evenodd;stroke:rgb(0, 0, 0);stroke-width:3.0;" d="M 459.295, 318.096 L 448.409, 303.162 L 449.77, 299.077 L 470.435, 291.885 z "/>
<path style="fill:rgb(89, 14, 223);fill-opacity:1.0;fill-rule:evenodd;stroke:rgb(0, 0, 0);stroke-width:3.0;" d="M 593.413, 481.77 L 589.133, 503.549 L 529.554, 542.462 L 469.116, 538.789 L 440.367, 437.136 z "/>
<path style="fill:rgb(89, 14, 223);fill-opacity:1.0;fill-rule:evenodd;stroke:rgb(0, 0, 0);stroke-width:3.0;" d="M 657.558, 578.44 L 633.675, 578.307 L 624.774, 556.087 L 638.139, 543.396 z "/>
<path style="fill:rgb(89, 14, 223);fill-opacity:1.0;fill-rule:evenodd;stroke:rgb(0, 0, 0);stroke-width:3.0;" d="M 707.603, 325.679 L 702.933, 349.993 L 697.938, 333.715 L 700.662, 318.927 z "/>
<path style="fill:rgb(89, 14, 223);fill-opacity:1.0;fill-rule:evenodd;stroke:rgb(0, 0, 0);stroke-width:3.0;" d="M 385.687, 400.002 L 368.935, 460.361 L 331.738, 472.474 L 233.834, 377.204 L 272.925, 330.406 z "/>
<path style="fill:rgb(220, 11, 48);fill-opacity:1.0;fill-rule:evenodd;stroke:rgb(0, 0, 0);stroke-width:3.0;" d="M 690.312, 308.859 L 707.667, 365.424 L 706.358, 380.958 L 695.218, 372.848 L 690.517, 360.742 L 674.049, 293.038 z "/>
<path style="fill:rgb(220, 11, 48);fill-opacity:1.0;fill-rule:evenodd;stroke:rgb(0, 0, 0);stroke-width:3.0;" d="M 386.603, 491.299 L 374.144, 517.372 L 366.566, 511.245 L 359.678, 493.712 L 365.204, 473.804 z "/>
<path style="fill:rgb(220, 11, 48);fill-opacity:1.0;fill-rule:evenodd;stroke:rgb(0, 0, 0);stroke-width:3.0;" d="M 516.12, 541.646 L 511.621, 544.575 L 478.283, 544.903 L 469.666, 540.734 L 469.116, 538.789 z "/>
<path style="fill:rgb(220, 11, 48);fill-opacity:1.0;fill-rule:evenodd;stroke:rgb(0, 0, 0);stroke-width:3.0;" d="M 448.824, 565.861 L 449.682, 590.352 L 436.113, 553.649 z "/>
<path style="fill:rgb(220, 11, 48);fill-opacity:1.0;fill-rule:evenodd;stroke:rgb(0, 0, 0);stroke-width:3.0;" d="M 543.725, 218.579 L 528.376, 223.593 L 531.864, 205.816 z "/>
<path style="fill:rgb(220, 11, 48);fill-opacity:1.0;fill-rule:evenodd;stroke:rgb(0, 0, 0);stroke-width:3.0;" d="M 594.674, 475.349 L 593.413, 481.77 L 586.142, 479.649 L 576.221, 459.612 L 580.41, 454.046 z "/>
<path style="fill:rgb(220, 11, 48);fill-opacity:1.0;fill-rule:evenodd;stroke:rgb(0, 0, 0);stroke-width:3.0;" d="M 286.197, 574.949 L 264.488, 565.219 L 240.382, 544.773 L 270.896, 543.336 z "/>
<path style="fill:rgb(25, 255, 246);fill-opacity:1.0;fill-rule:evenodd;stroke:rgb(0, 0, 0);stroke-width:3.0;" d="M 448.578, 302.656 L 445.375, 312.272 L 420.939, 309.12 L 415.192, 293.69 L 415.898, 291.149 z "/>
<path style="fill:rgb(187, 33, 136);fill-opacity:1.0;fill-rule:evenodd;stroke:rgb(0, 0, 0);stroke-width:3.0;" d="M 448.28, 465.115 L 452.218, 479.041 L 451.35, 482.242 L 403.175, 435.565 L 417.967, 434.174 z "/>
<path style="fill:rgb(187, 33, 136);fill-opacity:1.0;fill-rule:evenodd;stroke:rgb(0, 0, 0);stroke-width:3.0;" d="M 784.621, 261.2 L 760.623, 244.64 L 783.961, 243.635 z "/>
<path style="fill:rgb(187, 33, 136);fill-opacity:1.0;fill-rule:evenodd;stroke:rgb(0, 0, 0);stroke-width:3.0;" d="M 436.99, 468.329 L 428.81, 486.306 L 428.191, 459.803 z "/>
<path style="fill:rgb(187, 33, 136);fill-opacity:1.0;fill-rule:evenodd;stroke:rgb(0, 0, 0);stroke-width:3.0;" d="M 289.53, 550.102 L 285.366, 573.232 L 272.272, 546.178 z "/>
<path style="fill:rgb(187, 33, 136);fill-opacity:1.0;fill-rule:evenodd;stroke:rgb(0, 0, 0);stroke-width:3.0;" d="M 735.277, 430.416 L 740.479, 469.431 L 732.232, 470.08 L 709.672, 445.117 L 690.768, 420.202 z "/>
<path style="fill:rgb(187, 33, 136);fill-opacity:1.0;fill-rule:evenodd;stroke:rgb(0, 0, 0);stroke-width:3.0;" d="M 794.601, 410.311 L 787.727, 421.95 L 769.301, 425.796 L 764.579, 421.053 L 771.44, 413.436 L 793.461, 409.201 z "/>
<path style="fill:rgb(255, 165, 10);fill-opacity:1.0;fill-rule:evenodd;stroke:rgb(0, 0, 0);stroke-width:3.0;" d="M 298.826, 331.56 L 299.149, 336.843 L 295.901, 338.643 L 270.484, 328.899 L 269.479, 328.279 L 293.944, 325.237 z "/>
<path style="fill:rgb(243, 10, 255);fill-opacity:1.0;fill-rule:evenodd;stroke:rgb(0, 0, 0);stroke-width:3.0;" d="M 359.613, 493.946 L 334.909, 471.442 L 368.935, 460.361 z "/>
<path style="fill:rgb(243, 10, 255);fill-opacity:1.0;fill-rule:evenodd;stroke:rgb(0, 0, 0);stroke-width:3.0;" d="M 393.12, 567.361 L 378.082, 573.73 L 346.747, 558.7 L 342.651, 555.065 L 343.457, 552.158 L 362.97, 542.879 z "/>
<path style="fill:rgb(243, 10, 255);fill-opacity:1.0;fill-rule:evenodd;stroke:rgb(0, 0, 0);stroke-width:3.0;" d="M 781.53, 508.66 L 781.272, 513.674 L 774.461, 516.809 L 732.232, 470.08 L 741.16, 469.378 z "/>
<path style="fill:rgb(243, 10, 255);fill-opacity:1.0;fill-rule:evenodd;stroke:rgb(0, 0, 0);stroke-width:3.0;" d="M 678.719, 344.127 L 662.345, 348.919 L 659.708, 346.999 L 672.111, 323.719 z "/>
<path style="fill:rgb(255, 71, 19);fill-opacity:1.0;fill-rule:evenodd;stroke:rgb(0, 0, 0);stroke-width:3.0;" d="M 687.602, 353.234 L 680.653, 350.102 L 674.841, 332.15 L 674.869, 331.719 L 677.786, 327.954 z "/>
<path style="fill:rgb(189, 0, 237);fill-opacity:1.0;fill-rule:evenodd;stroke:rgb(0, 0, 0);stroke-width:3.0;" d="M 355.513, 269.099 L 336.275, 273.843 L 361.424, 245.611 z "/>
<path style="fill:rgb(189, 0, 237);fill-opacity:1.0;fill-rule:evenodd;stroke:rgb(0, 0, 0);stroke-width:3.0;" d="M 358.378, 498.397 L 346.899, 539.757 L 310.829, 541.456 L 316.879, 458.014 z "/>
<path style="fill:rgb(255, 28, 223);fill-opacity:1.0;fill-rule:evenodd;stroke:rgb(0, 0, 0);stroke-width:3.0;" d="M 453.793, 484.609 L 463.814, 520.044 L 429.218, 503.716 L 428.81, 486.306 L 436.99, 468.329 z "/>
<path style="fill:rgb(255, 28, 223);fill-opacity:1.0;fill-rule:evenodd;stroke:rgb(0, 0, 0);stroke-width:3.0;" d="M 678.754, 312.382 L 690.517, 360.742 L 668.363, 303.686 L 668.556, 301.567 z "/>
<path style="fill:rgb(255, 0, 13);fill-opacity:1.0;fill-rule:evenodd;stroke:rgb(0, 0, 0);stroke-width:3.0;" d="M 682.668, 197.566 L 682.308, 198.418 L 524.626, 242.699 L 528.376, 223.593 L 643.235, 186.073 z "/>
<path style="fill:rgb(255, 0, 13);fill-opacity:1.0;fill-rule:evenodd;stroke:rgb(0, 0, 0);stroke-width:3.0;" d="M 511.858, 351.664 L 495.158, 377.384 L 494.383, 377.361 L 502.525, 347.67 L 507.602, 345.307 z "/>
<path style="fill:rgb(255, 255, 170);fill-opacity:1.0;fill-rule:evenodd;stroke:rgb(0, 0, 0);stroke-width:3.0;" d="M 98.0587, 104.021 L 93.2696, 105.788 L 60.0744, 107.54 L 85.1213, 86.3986 L 85.7131, 86.3605 z "/>
<path style="fill:rgb(255, 255, 170);fill-opacity:1.0;fill-rule:evenodd;stroke:rgb(0, 0, 0);stroke-width:3.0;" d="M 345.581, 292.978 L 326.017, 298.473 L 324.211, 293.242 L 329.616, 285.375 z "/>
<path style="fill:rgb(46, 168, 234);fill-opacity:1.0;fill-rule:evenodd;stroke:rgb(0, 0, 0);stroke-width:3.0;" d="M 619.709, 510.136 L 615.577, 502.68 L 639.985, 480.17 z "/>
<path style="fill:rgb(46, 168, 234);fill-opacity:1.0;fill-rule:evenodd;stroke:rgb(0, 0, 0);stroke-width:3.0;" d="M 409.836, 312.988 L 404.073, 333.755 L 368.766, 331.817 L 368.417, 328.427 L 398.537, 302.196 z "/>
<path style="fill:rgb(108, 234, 199);fill-opacity:1.0;fill-rule:evenodd;stroke:rgb(0, 0, 0);stroke-width:3.0;" d="M 665.286, 451.449 L 666.592, 455.632 L 615.577, 502.68 L 498.931, 292.172 L 533.586, 277.138 z "/>
<path style="fill:rgb(246, 252, 9);fill-opacity:1.0;fill-rule:evenodd;stroke:rgb(0, 0, 0);stroke-width:3.0;" d="M 417.387, 285.781 L 395.419, 304.913 L 416.442, 273.079 L 421.291, 271.718 z "/>
<path style="fill:rgb(246, 252, 9);fill-opacity:1.0;fill-rule:evenodd;stroke:rgb(0, 0, 0);stroke-width:3.0;" d="M 399.848, 348.978 L 370.715, 367.175 L 356.763, 365.135 L 379.767, 350.852 L 401.125, 344.377 z "/>
<path style="fill:rgb(246, 252, 9);fill-opacity:1.0;fill-rule:evenodd;stroke:rgb(0, 0, 0);stroke-width:3.0;" d="M 385, 332.708 L 367.265, 342.954 L 352.438, 345.602 L 351.142, 330.85 z "/>
<path style="fill:rgb(22, 136, 255);fill-opacity:1.0;fill-rule:evenodd;stroke:rgb(0, 0, 0);stroke-width:3.0;" d="M 369.928, 519.804 L 364.541, 522.367 L 356.818, 504.018 L 359.678, 493.712 z "/>
<path style="fill:rgb(255, 126, 10);fill-opacity:1.0;fill-rule:evenodd;stroke:rgb(0, 0, 0);stroke-width:3.0;" d="M 424.4, 195.069 L 436.109, 267.556 L 349.573, 291.858 L 416.365, 186.282 z "/>
<path style="fill:rgb(255, 126, 10);fill-opacity:1.0;fill-rule:evenodd;stroke:rgb(0, 0, 0);stroke-width:3.0;" d="M 781.53, 508.66 L 741.16, 469.378 L 783.723, 466.031 z "/>
<path style="fill:rgb(255, 126, 10);fill-opacity:1.0;fill-rule:evenodd;stroke:rgb(0, 0, 0);stroke-width:3.0;" d="M 108.438, 95.0078 L 98.3234, 104.399 L 92.8002, 96.4985 L 94.2817, 82.8827 z "/>
<path style="fill:rgb(255, 126, 10);fill-opacity:1.0;fill-rule:evenodd;stroke:rgb(0, 0, 0);stroke-width:3.0;" d="M 783.402, 228.749 L 783.961, 243.635 L 760.623, 244.64 L 735.272, 227.146 z "/>
<path style="fill:rgb(255, 126, 10);fill-opacity:1.0;fill-rule:evenodd;stroke:rgb(0, 0, 0);stroke-width:3.0;" d="M 558.836, 421.826 L 497.441, 330.132 L 504.171, 328.295 z "/>
<path style="fill:rgb(255, 126, 10);fill-opacity:1.0;fill-rule:evenodd;stroke:rgb(0, 0, 0);stroke-width:3.0;" d="M 595.377, 466.225 L 594.636, 475.292 L 558.836, 421.826 L 504.171, 328.295 L 517.006, 324.792 z "/>
<path style="fill:rgb(255, 126, 10);fill-opacity:1.0;fill-rule:evenodd;stroke:rgb(0, 0, 0);stroke-width:3.0;" d="M 350.312, 321.407 L 312.399, 354.77 L 290.829, 341.456 L 291.418, 341.13 L 349.715, 314.62 z "/>
<path style="fill:rgb(255, 126, 10);fill-opacity:1.0;fill-rule:evenodd;stroke:rgb(0, 0, 0);stroke-width:3.0;" d="M 624.721, 321.531 L 627.69, 331.04 L 586.866, 314.548 L 584.625, 292.343 z "/>
<path style="fill:rgb(255, 126, 10);fill-opacity:1.0;fill-rule:evenodd;stroke:rgb(0, 0, 0);stroke-width:3.0;" d="M 586.142, 479.649 L 583.53, 478.887 L 566.957, 471.924 L 576.221, 459.612 z "/>
<path style="fill:rgb(255, 126, 10);fill-opacity:1.0;fill-rule:evenodd;stroke:rgb(0, 0, 0);stroke-width:3.0;" d="M 342.806, 554.504 L 337.396, 555.255 L 323.938, 547.392 L 330.746, 540.518 L 346.899, 539.757 z "/>
<path style="fill:rgb(249, 24, 255);fill-opacity:1.0;fill-rule:evenodd;stroke:rgb(0, 0, 0);stroke-width:3.0;" d="M 349.573, 291.858 L 349.185, 291.967 L 345.251, 289.025 L 352.699, 270.432 L 364.343, 268.512 z "/>
<path style="fill:rgb(67, 157, 255);fill-opacity:1.0;fill-rule:evenodd;stroke:rgb(0, 0, 0);stroke-width:3.0;" d="M 580.874, 545.58 L 529.554, 542.462 L 589.133, 503.549 z "/>
<path style="fill:rgb(243, 33, 175);fill-opacity:1.0;fill-rule:evenodd;stroke:rgb(0, 0, 0);stroke-width:3.0;" d="M 395.423, 553.395 L 380.915, 542.126 L 383.472, 533.13 L 395.904, 532.865 z "/>
<path style="fill:rgb(243, 33, 175);fill-opacity:1.0;fill-rule:evenodd;stroke:rgb(0, 0, 0);stroke-width:3.0;" d="M 401.125, 344.377 L 353.597, 358.786 L 352.802, 349.743 L 401.349, 343.568 z "/>
<path style="fill:rgb(255, 44, 18);fill-opacity:1.0;fill-rule:evenodd;stroke:rgb(0, 0, 0);stroke-width:3.0;" d="M 526.226, 249.831 L 498.497, 275.804 L 484.223, 255.291 L 485.011, 253.824 L 518.71, 244.36 z "/>
<path style="fill:rgb(255, 44, 18);fill-opacity:1.0;fill-rule:evenodd;stroke:rgb(0, 0, 0);stroke-width:3.0;" d="M 428.191, 459.803 L 429.218, 503.716 L 415.648, 497.311 L 418.15, 450.074 z "/>
<path style="fill:rgb(255, 44, 18);fill-opacity:1.0;fill-rule:evenodd;stroke:rgb(0, 0, 0);stroke-width:3.0;" d="M 355.587, 381.425 L 312.399, 354.77 L 350.312, 321.407 z "/>
<path style="fill:rgb(255, 44, 18);fill-opacity:1.0;fill-rule:evenodd;stroke:rgb(0, 0, 0);stroke-width:3.0;" d="M 362.335, 572.531 L 363.971, 587.182 L 346.28, 568.611 L 341.082, 560.715 L 342.651, 555.065 z "/>
<path style="fill:rgb(255, 44, 18);fill-opacity:1.0;fill-rule:evenodd;stroke:rgb(0, 0, 0);stroke-width:3.0;" d="M 718.455, 347.396 L 722.375, 353.17 L 708.103, 360.246 L 709.716, 341.116 z "/>
<path style="fill:rgb(255, 44, 18);fill-opacity:1.0;fill-rule:evenodd;stroke:rgb(0, 0, 0);stroke-width:3.0;" d="M 487.885, 315.859 L 468.702, 334.917 L 465.899, 302.557 L 470.977, 290.608 z "/>
<path style="fill:rgb(70, 108, 243);fill-opacity:1.0;fill-rule:evenodd;stroke:rgb(0, 0, 0);stroke-width:3.0;" d="M 184.355, 10.5107 L 165.437, 42.0807 L 127.139, 77.643 L 134.174, 8.6065 z "/>
<path style="fill:rgb(38, 240, 105);fill-opacity:1.0;fill-rule:evenodd;stroke:rgb(0, 0, 0);stroke-width:3.0;" d="M 78.0775, 111.395 L 59.1585, 114.183 L 59.1375, 107.589 L 93.2696, 105.788 z "/>
<path style="fill:rgb(38, 240, 105);fill-opacity:1.0;fill-rule:evenodd;stroke:rgb(0, 0, 0);stroke-width:3.0;" d="M 732.888, 412.499 L 735.277, 430.416 L 686.211, 419.156 L 682.102, 414.609 L 731.037, 410.866 z "/>
<path style="fill:rgb(38, 240, 105);fill-opacity:1.0;fill-rule:evenodd;stroke:rgb(0, 0, 0);stroke-width:3.0;" d="M 758.689, 208.128 L 751.524, 209.944 L 738.457, 198.775 L 754.418, 197.769 z "/>
<path style="fill:rgb(38, 240, 105);fill-opacity:1.0;fill-rule:evenodd;stroke:rgb(0, 0, 0);stroke-width:3.0;" d="M 558.143, 273.065 L 569.823, 325.099 L 533.586, 277.138 L 552.478, 268.942 z "/>
<path style="fill:rgb(119, 30, 255);fill-opacity:1.0;fill-rule:evenodd;stroke:rgb(0, 0, 0);stroke-width:3.0;" d="M 497.75, 365.081 L 494.383, 377.361 L 476.47, 376.829 L 491.899, 352.617 L 494.423, 351.442 z "/>
<path style="fill:rgb(119, 30, 255);fill-opacity:1.0;fill-rule:evenodd;stroke:rgb(0, 0, 0);stroke-width:3.0;" d="M 507.602, 345.307 L 477.241, 359.442 L 495.233, 326.834 z "/>
<path style="fill:rgb(119, 30, 255);fill-opacity:1.0;fill-rule:evenodd;stroke:rgb(0, 0, 0);stroke-width:3.0;" d="M 497.22, 574.152 L 490.206, 578.812 L 474.703, 558.543 L 474.323, 557.202 z "/>
<path style="fill:rgb(255, 61, 119);fill-opacity:1.0;fill-rule:evenodd;stroke:rgb(0, 0, 0);stroke-width:3.0;" d="M 503.39, 570.053 L 497.22, 574.152 L 474.323, 557.202 L 472.414, 550.452 z "/>
<path style="fill:rgb(43, 11, 231);fill-opacity:1.0;fill-rule:evenodd;stroke:rgb(0, 0, 0);stroke-width:3.0;" d="M 426.522, 523.937 L 442.654, 541.261 L 468.453, 584.718 L 411.698, 530.193 L 415.091, 518.092 L 417.798, 516.805 z "/>
<path style="fill:rgb(177, 172, 255);fill-opacity:1.0;fill-rule:evenodd;stroke:rgb(0, 0, 0);stroke-width:3.0;" d="M 463.814, 520.044 L 476.464, 564.769 L 414.747, 514.31 L 415.648, 497.311 z "/>
<path style="fill:rgb(255, 255, 72);fill-opacity:1.0;fill-rule:evenodd;stroke:rgb(0, 0, 0);stroke-width:3.0;" d="M 340.875, 302.321 L 339.331, 312.271 L 323.976, 303.996 L 321.827, 299.649 L 325.673, 298.569 z "/>
<path style="fill:rgb(255, 255, 72);fill-opacity:1.0;fill-rule:evenodd;stroke:rgb(0, 0, 0);stroke-width:3.0;" d="M 517.911, 579.242 L 472.414, 550.452 L 470.866, 544.975 L 528.95, 544.405 z "/>
<path style="fill:rgb(26, 223, 217);fill-opacity:1.0;fill-rule:evenodd;stroke:rgb(0, 0, 0);stroke-width:3.0;" d="M 261.353, 323.264 L 269.289, 334.76 L 261.817, 343.704 L 242.724, 321.863 L 253.968, 318.706 z "/>
<path style="fill:rgb(26, 223, 217);fill-opacity:1.0;fill-rule:evenodd;stroke:rgb(0, 0, 0);stroke-width:3.0;" d="M 712.102, 128.046 L 694.376, 130.963 L 727.579, 91.4932 z "/>
<path style="fill:rgb(26, 223, 217);fill-opacity:1.0;fill-rule:evenodd;stroke:rgb(0, 0, 0);stroke-width:3.0;" d="M 395.419, 304.913 L 368.417, 328.427 L 365.495, 300.048 L 411.744, 274.398 L 416.442, 273.079 z "/>
<path style="fill:rgb(252, 51, 255);fill-opacity:1.0;fill-rule:evenodd;stroke:rgb(0, 0, 0);stroke-width:3.0;" d="M 363.501, 519.896 L 354.82, 526.991 L 352.189, 528.242 L 350.761, 525.842 L 356.818, 504.018 z "/>
<path style="fill:rgb(66, 5, 252);fill-opacity:1.0;fill-rule:evenodd;stroke:rgb(0, 0, 0);stroke-width:3.0;" d="M 479.533, 255.362 L 436.109, 267.556 L 424.4, 195.069 z "/>
<path style="fill:rgb(140, 138, 177);fill-opacity:1.0;fill-rule:evenodd;stroke:rgb(0, 0, 0);stroke-width:3.0;" d="M 604.601, 505.727 L 588.675, 505.878 L 589.518, 501.59 L 599.288, 492.464 z "/>
<path style="fill:rgb(255, 30, 8);fill-opacity:1.0;fill-rule:evenodd;stroke:rgb(0, 0, 0);stroke-width:3.0;" d="M 679.725, 115.523 L 679.762, 133.368 L 652.128, 137.916 L 673.41, 108.567 z "/>
<path style="fill:rgb(255, 30, 8);fill-opacity:1.0;fill-rule:evenodd;stroke:rgb(0, 0, 0);stroke-width:3.0;" d="M 253.919, 353.159 L 250.613, 357.117 L 223.294, 366.947 L 221.316, 365.022 L 241.49, 330.283 z "/>
<path style="fill:rgb(255, 30, 8);fill-opacity:1.0;fill-rule:evenodd;stroke:rgb(0, 0, 0);stroke-width:3.0;" d="M 631.263, 572.287 L 600.448, 581.215 L 590.915, 560.781 L 622.063, 549.32 z "/>
<path style="fill:rgb(255, 30, 8);fill-opacity:1.0;fill-rule:evenodd;stroke:rgb(0, 0, 0);stroke-width:3.0;" d="M 395.328, 219.535 L 381.943, 222.699 L 381.881, 222.647 L 392.078, 211.2 L 405.157, 203.998 z "/>
<path style="fill:rgb(255, 255, 54);fill-opacity:1.0;fill-rule:evenodd;stroke:rgb(0, 0, 0);stroke-width:3.0;" d="M 613.915, 504.086 L 614.052, 504.589 L 605.013, 506.756 L 600.028, 494.312 L 603.617, 488.706 z "/>
<path style="fill:rgb(255, 49, 255);fill-opacity:1.0;fill-rule:evenodd;stroke:rgb(0, 0, 0);stroke-width:3.0;" d="M 365.692, 301.959 L 366.988, 314.545 L 364.452, 321.841 L 357.001, 331.172 L 356.251, 331.13 L 364.651, 301.002 z "/>
<path style="fill:rgb(255, 49, 255);fill-opacity:1.0;fill-rule:evenodd;stroke:rgb(0, 0, 0);stroke-width:3.0;" d="M 598.048, 552.72 L 596.024, 554.893 L 579.254, 553.823 L 582.041, 539.643 L 606.49, 539.014 z "/>
<path style="fill:rgb(157, 237, 234);fill-opacity:1.0;fill-rule:evenodd;stroke:rgb(0, 0, 0);stroke-width:3.0;" d="M 82.7614, 570.945 L 67.2791, 552.923 L 95.9767, 551.572 z "/>
<path style="fill:rgb(157, 237, 234);fill-opacity:1.0;fill-rule:evenodd;stroke:rgb(0, 0, 0);stroke-width:3.0;" d="M 420.185, 340.285 L 411.324, 344.991 L 401.009, 344.796 L 403.916, 334.318 L 424.635, 328.548 z "/>
<path style="fill:rgb(255, 252, 78);fill-opacity:1.0;fill-rule:evenodd;stroke:rgb(0, 0, 0);stroke-width:3.0;" d="M 448.28, 465.115 L 428.063, 444.478 L 439.194, 432.988 z "/>
<path style="fill:rgb(255, 252, 78);fill-opacity:1.0;fill-rule:evenodd;stroke:rgb(0, 0, 0);stroke-width:3.0;" d="M 792.755, 465.321 L 740.479, 469.431 L 732.888, 412.499 z "/>
<path style="fill:rgb(11, 255, 38);fill-opacity:1.0;fill-rule:evenodd;stroke:rgb(0, 0, 0);stroke-width:3.0;" d="M 476.47, 376.829 L 442.083, 375.809 L 443.8, 375.01 L 479.908, 371.434 z "/>
<path style="fill:rgb(255, 95, 35);fill-opacity:1.0;fill-rule:evenodd;stroke:rgb(0, 0, 0);stroke-width:3.0;" d="M 479.908, 371.434 L 443.8, 375.01 L 454.27, 370.136 L 481.433, 369.041 z "/>
<path style="fill:rgb(255, 249, 72);fill-opacity:1.0;fill-rule:evenodd;stroke:rgb(0, 0, 0);stroke-width:3.0;" d="M 415.306, 185.124 L 350.025, 258.408 L 305.224, 194.461 L 316.976, 77.5918 z "/>
<path style="fill:rgb(255, 231, 7);fill-opacity:1.0;fill-rule:evenodd;stroke:rgb(0, 0, 0);stroke-width:3.0;" d="M 693.823, 131.055 L 679.762, 133.368 L 679.725, 115.523 z "/>
<path style="fill:rgb(42, 197, 255);fill-opacity:1.0;fill-rule:evenodd;stroke:rgb(0, 0, 0);stroke-width:3.0;" d="M 95.2091, 585.435 L 61.9636, 565.074 L 56.4008, 553.436 L 67.2791, 552.923 z "/>
<path style="fill:rgb(42, 197, 255);fill-opacity:1.0;fill-rule:evenodd;stroke:rgb(0, 0, 0);stroke-width:3.0;" d="M 749.326, 366.267 L 727.393, 360.562 L 720.946, 351.065 L 728.481, 345.99 z "/>
<path style="fill:rgb(255, 212, 13);fill-opacity:1.0;fill-rule:evenodd;stroke:rgb(0, 0, 0);stroke-width:3.0;" d="M 462.492, 360.866 L 462.726, 366.199 L 442.083, 375.809 L 434.858, 375.595 L 445.374, 350.851 z "/>
<path style="fill:rgb(255, 27, 204);fill-opacity:1.0;fill-rule:evenodd;stroke:rgb(0, 0, 0);stroke-width:3.0;" d="M 358.335, 323.656 L 350.216, 320.314 L 349.51, 312.28 L 361.835, 311.101 z "/>
<path style="fill:rgb(255, 27, 204);fill-opacity:1.0;fill-rule:evenodd;stroke:rgb(0, 0, 0);stroke-width:3.0;" d="M 612.468, 525.367 L 585.732, 520.855 L 588.675, 505.878 L 604.601, 505.727 z "/>
<path style="fill:rgb(255, 27, 204);fill-opacity:1.0;fill-rule:evenodd;stroke:rgb(0, 0, 0);stroke-width:3.0;" d="M 339.331, 312.271 L 338.943, 314.773 L 308.263, 331.788 L 302.638, 319.343 L 302.422, 305.099 L 317.937, 300.742 z "/>
<path style="fill:rgb(255, 3, 88);fill-opacity:1.0;fill-rule:evenodd;stroke:rgb(0, 0, 0);stroke-width:3.0;" d="M 24.7326, 373.662 L 23.6447, 374.24 L 13.2754, 363.225 L 9.92515, 334.669 z "/>
<path style="fill:rgb(243, 243, 27);fill-opacity:1.0;fill-rule:evenodd;stroke:rgb(0, 0, 0);stroke-width:3.0;" d="M 495.233, 326.834 L 480.181, 354.113 L 470.019, 350.127 L 468.702, 334.917 L 487.885, 315.859 z "/>
<path style="fill:rgb(130, 7, 255);fill-opacity:1.0;fill-rule:evenodd;stroke:rgb(0, 0, 0);stroke-width:3.0;" d="M 626.281, 142.17 L 563.464, 152.507 L 632.369, 106.259 z "/>
<path style="fill:rgb(130, 7, 255);fill-opacity:1.0;fill-rule:evenodd;stroke:rgb(0, 0, 0);stroke-width:3.0;" d="M 728.806, 362.643 L 722.314, 364.149 L 708.084, 360.479 L 708.103, 360.246 L 722.375, 353.17 z "/>
<path style="fill:rgb(130, 7, 255);fill-opacity:1.0;fill-rule:evenodd;stroke:rgb(0, 0, 0);stroke-width:3.0;" d="M 586.942, 315.297 L 590.724, 352.763 L 569.823, 325.099 L 567.488, 314.695 z "/>
<path style="fill:rgb(189, 132, 187);fill-opacity:1.0;fill-rule:evenodd;stroke:rgb(0, 0, 0);stroke-width:3.0;" d="M 731.037, 410.866 L 683.817, 414.478 L 677.989, 364.06 z "/>
<path style="fill:rgb(255, 37, 83);fill-opacity:1.0;fill-rule:evenodd;stroke:rgb(0, 0, 0);stroke-width:3.0;" d="M 740.687, 217.211 L 728.199, 215.615 L 719.602, 199.963 L 734.752, 199.008 z "/>
<path style="fill:rgb(204, 10, 105);fill-opacity:1.0;fill-rule:evenodd;stroke:rgb(0, 0, 0);stroke-width:3.0;" d="M 763.426, 220.119 L 740.687, 217.211 L 734.752, 199.008 L 738.457, 198.775 z "/>
<path style="fill:rgb(255, 249, 35);fill-opacity:1.0;fill-rule:evenodd;stroke:rgb(0, 0, 0);stroke-width:3.0;" d="M 673.41, 108.567 L 652.128, 137.916 L 626.281, 142.17 L 632.369, 106.259 L 656.571, 90.0151 z "/>
<path style="fill:rgb(255, 228, 10);fill-opacity:1.0;fill-rule:evenodd;stroke:rgb(0, 0, 0);stroke-width:3.0;" d="M 717.96, 389.404 L 718.543, 397.474 L 710.446, 392.698 L 677.732, 363.834 L 674.832, 358.008 z "/>
<path style="fill:rgb(255, 228, 10);fill-opacity:1.0;fill-rule:evenodd;stroke:rgb(0, 0, 0);stroke-width:3.0;" d="M 467.596, 288.547 L 469.733, 292.129 L 449.77, 299.077 L 454.714, 284.231 z "/>
<path style="fill:rgb(117, 231, 223);fill-opacity:1.0;fill-rule:evenodd;stroke:rgb(0, 0, 0);stroke-width:3.0;" d="M 439.194, 432.988 L 428.063, 444.478 L 417.967, 434.174 L 438.97, 432.198 z "/>
<path style="fill:rgb(117, 231, 223);fill-opacity:1.0;fill-rule:evenodd;stroke:rgb(0, 0, 0);stroke-width:3.0;" d="M 370.979, 258.022 L 365.534, 266.629 L 355.513, 269.099 L 361.424, 245.611 L 362.134, 244.814 z "/>
<path style="fill:rgb(255, 255, 11);fill-opacity:1.0;fill-rule:evenodd;stroke:rgb(0, 0, 0);stroke-width:3.0;" d="M 293.569, 435.331 L 165.882, 466.005 L 95.1183, 439.328 L 271.364, 413.724 z "/>
<path style="fill:rgb(13, 231, 72);fill-opacity:1.0;fill-rule:evenodd;stroke:rgb(0, 0, 0);stroke-width:3.0;" d="M 764.715, 424.709 L 768.826, 436.546 L 761.782, 437.992 L 710.446, 392.698 z "/>
<path style="fill:rgb(13, 231, 72);fill-opacity:1.0;fill-rule:evenodd;stroke:rgb(0, 0, 0);stroke-width:3.0;" d="M 404.643, 516.039 L 404.213, 523.265 L 388.322, 530.822 L 388.231, 517.646 L 397.827, 515.904 z "/>
<path style="fill:rgb(255, 252, 78);fill-opacity:1.0;fill-rule:evenodd;stroke:rgb(0, 0, 0);stroke-width:3.0;" d="M 678.798, 371.056 L 683.817, 414.478 L 682.102, 414.609 L 638.834, 366.731 L 635.07, 354.677 z "/>
<path style="fill:rgb(67, 255, 175);fill-opacity:1.0;fill-rule:evenodd;stroke:rgb(0, 0, 0);stroke-width:3.0;" d="M 94.2817, 82.8827 L 92.8002, 96.4985 L 66.8674, 59.4016 z "/>
<path style="fill:rgb(255, 252, 78);fill-opacity:1.0;fill-rule:evenodd;stroke:rgb(0, 0, 0);stroke-width:3.0;" d="M 469.429, 343.314 L 470.56, 356.367 L 466.666, 363.308 L 445.374, 350.851 L 454.822, 328.621 z "/>
<path style="fill:rgb(255, 0, 100);fill-opacity:1.0;fill-rule:evenodd;stroke:rgb(0, 0, 0);stroke-width:3.0;" d="M 749.326, 366.267 L 754.038, 370.851 L 745.512, 371.023 L 742.913, 370.089 L 730.052, 364.478 L 727.99, 361.441 L 728.975, 360.973 z "/>
<path style="fill:rgb(255, 237, 17);fill-opacity:1.0;fill-rule:evenodd;stroke:rgb(0, 0, 0);stroke-width:3.0;" d="M 443.533, 590.763 L 421.996, 574.034 L 437.382, 573.629 z "/>
<path style="fill:rgb(27, 255, 255);fill-opacity:1.0;fill-rule:evenodd;stroke:rgb(0, 0, 0);stroke-width:3.0;" d="M 643.235, 186.073 L 543.725, 218.579 L 531.864, 205.816 L 541.554, 156.438 z "/>
<path style="fill:rgb(27, 255, 255);fill-opacity:1.0;fill-rule:evenodd;stroke:rgb(0, 0, 0);stroke-width:3.0;" d="M 419.555, 371.837 L 411.958, 370.703 L 401.863, 364.138 L 414.352, 354.92 L 414.803, 354.868 z "/>
<path style="fill:rgb(223, 115, 27);fill-opacity:1.0;fill-rule:evenodd;stroke:rgb(0, 0, 0);stroke-width:3.0;" d="M 427.1, 544.99 L 431.331, 556.775 L 404.323, 560.308 L 403.446, 559.627 L 411.698, 530.193 z "/>
<path style="fill:rgb(249, 42, 20);fill-opacity:1.0;fill-rule:evenodd;stroke:rgb(0, 0, 0);stroke-width:3.0;" d="M 389.348, 228.987 L 372.337, 255.875 L 367.41, 238.891 L 381.881, 222.647 z "/>
<path style="fill:rgb(249, 194, 6);fill-opacity:1.0;fill-rule:evenodd;stroke:rgb(0, 0, 0);stroke-width:3.0;" d="M 252.503, 333.049 L 253.06, 351.578 L 237.684, 323.278 L 242.724, 321.863 z "/>
<path style="fill:rgb(249, 194, 6);fill-opacity:1.0;fill-rule:evenodd;stroke:rgb(0, 0, 0);stroke-width:3.0;" d="M 36.3097, 15.6887 L 39.0738, 19.6428 L 35.6342, 27.0469 L 26.4042, 22.5645 L 15.492, 13.1101 z "/>
<path style="fill:rgb(255, 217, 6);fill-opacity:1.0;fill-rule:evenodd;stroke:rgb(0, 0, 0);stroke-width:3.0;" d="M 401.349, 343.568 L 352.802, 349.743 L 352.724, 348.852 L 372.345, 342.047 L 403.306, 336.519 z "/>
<path style="fill:rgb(33, 192, 231);fill-opacity:1.0;fill-rule:evenodd;stroke:rgb(0, 0, 0);stroke-width:3.0;" d="M 33.9396, 99.867 L 41.0698, 89.2338 L 68.0161, 87.4995 z "/>
<path style="fill:rgb(226, 255, 243);fill-opacity:1.0;fill-rule:evenodd;stroke:rgb(0, 0, 0);stroke-width:3.0;" d="M 727.579, 91.4932 L 694.376, 130.963 L 693.823, 131.055 L 656.571, 90.0151 L 756.643, 22.8478 z "/>
<path style="fill:rgb(243, 56, 9);fill-opacity:1.0;fill-rule:evenodd;stroke:rgb(0, 0, 0);stroke-width:3.0;" d="M 765.678, 175.006 L 682.308, 198.418 L 716.445, 117.79 z "/>
<path style="fill:rgb(10, 255, 140);fill-opacity:1.0;fill-rule:evenodd;stroke:rgb(0, 0, 0);stroke-width:3.0;" d="M 431.203, 285.772 L 432.745, 297.081 L 415.898, 291.149 L 420.219, 275.58 z "/>
<path style="fill:rgb(252, 0, 64);fill-opacity:1.0;fill-rule:evenodd;stroke:rgb(0, 0, 0);stroke-width:3.0;" d="M 241.49, 330.283 L 221.316, 365.022 L 191.691, 336.194 L 237.684, 323.278 z "/>
<path style="fill:rgb(75, 35, 252);fill-opacity:1.0;fill-rule:evenodd;stroke:rgb(0, 0, 0);stroke-width:3.0;" d="M 296.727, 551.739 L 300.479, 553.75 L 288.196, 575.845 L 286.197, 574.949 L 285.366, 573.232 L 289.53, 550.102 z "/>
<path style="fill:rgb(75, 35, 252);fill-opacity:1.0;fill-rule:evenodd;stroke:rgb(0, 0, 0);stroke-width:3.0;" d="M 409.116, 539.404 L 399.862, 541.539 L 398.108, 529.32 L 414.743, 519.334 z "/>
<path style="fill:rgb(246, 17, 11);fill-opacity:1.0;fill-rule:evenodd;stroke:rgb(0, 0, 0);stroke-width:3.0;" d="M 575.883, 302.095 L 566.355, 309.648 L 563.209, 295.635 L 567.117, 293.451 z "/>
<path style="fill:rgb(25, 7, 175);fill-opacity:1.0;fill-rule:evenodd;stroke:rgb(0, 0, 0);stroke-width:3.0;" d="M 40.7727, 572.372 L 22.6001, 578.332 L 23.3547, 557.85 L 27.6788, 555.012 z "/>
<path style="fill:rgb(187, 15, 9);fill-opacity:1.0;fill-rule:evenodd;stroke:rgb(0, 0, 0);stroke-width:3.0;" d="M 509.59, 311.409 L 497.133, 329.671 L 472.889, 293.464 L 499.384, 292.99 z "/>
<path style="fill:rgb(115, 252, 52);fill-opacity:1.0;fill-rule:evenodd;stroke:rgb(0, 0, 0);stroke-width:3.0;" d="M 764.124, 423.009 L 764.715, 424.709 L 718.543, 397.474 L 717.96, 389.404 z "/>
<path style="fill:rgb(33, 23, 223);fill-opacity:1.0;fill-rule:evenodd;stroke:rgb(0, 0, 0);stroke-width:3.0;" d="M 775.048, 198.65 L 772.123, 204.721 L 758.689, 208.128 L 754.418, 197.769 L 771.297, 196.705 z "/>
<path style="fill:rgb(243, 136, 47);fill-opacity:1.0;fill-rule:evenodd;stroke:rgb(0, 0, 0);stroke-width:3.0;" d="M 379.459, 574.391 L 386.788, 577.906 L 382.01, 583.347 L 367.832, 577.408 L 363.543, 573.602 L 366.344, 570.654 z "/>
<path style="fill:rgb(108, 58, 228);fill-opacity:1.0;fill-rule:evenodd;stroke:rgb(0, 0, 0);stroke-width:3.0;" d="M 627.69, 331.04 L 665.286, 451.449 L 590.724, 352.763 L 586.866, 314.548 z "/>
<path style="fill:rgb(255, 1, 23);fill-opacity:1.0;fill-rule:evenodd;stroke:rgb(0, 0, 0);stroke-width:3.0;" d="M 788.519, 449.953 L 773.024, 444.841 L 764.903, 437.352 L 779.456, 434.364 z "/>
<path style="fill:rgb(255, 159, 6);fill-opacity:1.0;fill-rule:evenodd;stroke:rgb(0, 0, 0);stroke-width:3.0;" d="M 448.414, 301.744 L 421.487, 276.757 L 432.875, 273.971 z "/>
<path style="fill:rgb(24, 228, 255);fill-opacity:1.0;fill-rule:evenodd;stroke:rgb(0, 0, 0);stroke-width:3.0;" d="M 66.8906, 568.091 L 68.0053, 589.021 L 57.0624, 593.969 L 27.6788, 555.012 L 28.0466, 554.771 L 43.9203, 554.023 z "/>
<path style="fill:rgb(255, 5, 45);fill-opacity:1.0;fill-rule:evenodd;stroke:rgb(0, 0, 0);stroke-width:3.0;" d="M 517.006, 324.792 L 505.049, 328.056 L 504.522, 318.838 L 509.59, 311.409 z "/>
<path style="fill:rgb(27, 107, 255);fill-opacity:1.0;fill-rule:evenodd;stroke:rgb(0, 0, 0);stroke-width:3.0;" d="M 574.263, 284.8 L 571.851, 291.735 L 561.888, 289.751 L 560.146, 281.991 L 562.96, 276.572 z "/>
</svg>