<?xml version="1.0" encoding="iso-8859-1" standalone="no"?>
<!DOCTYPE svg PUBLIC "-//W3C//DTD SVG 1.0//EN" "http://www.w3.org/TR/2001/REC-SVG-20010904/DTD/svg10.dtd">
<svg xmlns="http://www.w3.org/2000/svg" width="800" height="600">
<path style="fill:rgb(0, 0, 0);fill-opacity:0.0;fill-rule:evenodd;stroke:rgb(0, 0, 0);stroke-width:0.0;" d="M 0, 600 L 800, 600 L 800, 0 L 0, 0 z "/>
<path style="fill:rgb(255, 79, 126);fill-opacity:1.0;fill-rule:evenodd;stroke:rgb(0, 0, 0);stroke-width:3.0;" d="M 313.14, 111.834 L 177.396, 202.298 L 88.2484, 193.668 L 259.231, 73.0836 z "/>
<path style="fill:rgb(246, 46, 7);fill-opacity:1.0;fill-rule:evenodd;stroke:rgb(0, 0, 0);stroke-width:3.0;" d="M 503.167, 356.421 L 505.73, 361.734 L 500.828, 365.104 L 489.066, 366.032 L 485.584, 357.393 L 499.012, 354.511 z "/>
<path style="fill:rgb(246, 46, 7);fill-opacity:1.0;fill-rule:evenodd;stroke:rgb(0, 0, 0);stroke-width:3.0;" d="M 431.535, 45.1296 L 397.434, 28.3178 L 485.415, 12.9061 z "/>
<path style="fill:rgb(119, 255, 209);fill-opacity:1.0;fill-rule:evenodd;stroke:rgb(0, 0, 0);stroke-width:3.0;" d="M 495.498, 129.722 L 492.576, 144.465 L 405.842, 154.713 L 403.878, 150.641 L 388.785, 96.3633 L 415.355, 87.2943 z "/>
<path style="fill:rgb(119, 255, 209);fill-opacity:1.0;fill-rule:evenodd;stroke:rgb(0, 0, 0);stroke-width:3.0;" d="M 604.039, 22.1538 L 578.226, 31.5913 L 545.598, 30.8722 L 555.942, 24.8066 L 603.596, 18.4623 z "/>
<path style="fill:rgb(119, 255, 209);fill-opacity:1.0;fill-rule:evenodd;stroke:rgb(0, 0, 0);stroke-width:3.0;" d="M 142.002, 380.575 L 105.056, 424.696 L 88.1798, 405.64 L 105.242, 320.453 L 118.795, 315.69 z "/>
<path style="fill:rgb(119, 255, 209);fill-opacity:1.0;fill-rule:evenodd;stroke:rgb(0, 0, 0);stroke-width:3.0;" d="M 660.461, 33.4037 L 649.642, 44.4926 L 619.649, 49.667 L 608.367, 32.2556 z "/>
<path style="fill:rgb(18, 1, 255);fill-opacity:1.0;fill-rule:evenodd;stroke:rgb(0, 0, 0);stroke-width:3.0;" d="M 33.7558, 105.087 L 14.542, 156.522 L 14.1761, 100.936 L 23.6998, 87.0905 z "/>
<path style="fill:rgb(15, 246, 184);fill-opacity:1.0;fill-rule:evenodd;stroke:rgb(0, 0, 0);stroke-width:3.0;" d="M 581.464, 85.3874 L 557.544, 80.1741 L 567.343, 70.545 z "/>
<path style="fill:rgb(15, 246, 184);fill-opacity:1.0;fill-rule:evenodd;stroke:rgb(0, 0, 0);stroke-width:3.0;" d="M 235.701, 40.6244 L 244.682, 44.4712 L 245.374, 63.1229 L 201.206, 31.3737 z "/>
<path style="fill:rgb(243, 179, 6);fill-opacity:1.0;fill-rule:evenodd;stroke:rgb(0, 0, 0);stroke-width:3.0;" d="M 378.382, 90.7141 L 394.09, 115.44 L 394.632, 117.391 L 374.617, 104.74 L 369.077, 86.7205 z "/>
<path style="fill:rgb(243, 179, 6);fill-opacity:1.0;fill-rule:evenodd;stroke:rgb(0, 0, 0);stroke-width:3.0;" d="M 234.698, 26.5966 L 246.382, 45.1995 L 237.858, 41.5484 L 222.948, 32.5126 L 221.261, 30.5817 L 223.11, 25.2596 z "/>
<path style="fill:rgb(249, 89, 107);fill-opacity:1.0;fill-rule:evenodd;stroke:rgb(0, 0, 0);stroke-width:3.0;" d="M 465.728, 326 L 465.026, 335.188 L 455.084, 334.803 L 452.052, 323.897 z "/>
<path style="fill:rgb(249, 89, 107);fill-opacity:1.0;fill-rule:evenodd;stroke:rgb(0, 0, 0);stroke-width:3.0;" d="M 374.227, 161.172 L 371.088, 173.082 L 348.854, 150.112 L 362.611, 148.658 z "/>
<path style="fill:rgb(249, 89, 107);fill-opacity:1.0;fill-rule:evenodd;stroke:rgb(0, 0, 0);stroke-width:3.0;" d="M 560.712, 124.841 L 560.827, 136.401 L 523.427, 140.82 L 547.922, 119.007 z "/>
<path style="fill:rgb(150, 255, 32);fill-opacity:1.0;fill-rule:evenodd;stroke:rgb(0, 0, 0);stroke-width:3.0;" d="M 600.597, 76.5684 L 593.895, 94.5818 L 587.81, 81.8572 L 599.156, 74.3766 z "/>
<path style="fill:rgb(150, 255, 32);fill-opacity:1.0;fill-rule:evenodd;stroke:rgb(0, 0, 0);stroke-width:3.0;" d="M 314.755, 5.2014 L 324.447, 8.72403 L 329.846, 12.3463 L 309.925, 13.2401 L 307.242, 10.4592 L 307.305, 7.35552 L 314.15, 5.01539 z "/>
<path style="fill:rgb(150, 255, 32);fill-opacity:1.0;fill-rule:evenodd;stroke:rgb(0, 0, 0);stroke-width:3.0;" d="M 527.748, 112.782 L 494.487, 144.239 L 492.576, 144.465 L 499.044, 111.831 z "/>
<path style="fill:rgb(150, 255, 32);fill-opacity:1.0;fill-rule:evenodd;stroke:rgb(0, 0, 0);stroke-width:3.0;" d="M 56.9551, 187.379 L 36.756, 97.055 L 59.5017, 36.1655 z "/>
<path style="fill:rgb(246, 223, 14);fill-opacity:1.0;fill-rule:evenodd;stroke:rgb(0, 0, 0);stroke-width:3.0;" d="M 397.973, 129.404 L 398.914, 132.789 L 390.028, 138.148 L 383.006, 125.105 z "/>
<path style="fill:rgb(246, 223, 14);fill-opacity:1.0;fill-rule:evenodd;stroke:rgb(0, 0, 0);stroke-width:3.0;" d="M 443.41, 52.0248 L 437.411, 57.1033 L 408.221, 45.3884 L 408.943, 44.47 z "/>
<path style="fill:rgb(246, 223, 14);fill-opacity:1.0;fill-rule:evenodd;stroke:rgb(0, 0, 0);stroke-width:3.0;" d="M 34.7041, 71.0926 L 26.6761, 71.8454 L 34.2841, 59.5053 L 43.7398, 57.9565 z "/>
<path style="fill:rgb(246, 223, 14);fill-opacity:1.0;fill-rule:evenodd;stroke:rgb(0, 0, 0);stroke-width:3.0;" d="M 422.687, 528.541 L 225.054, 473.651 L 223.642, 472.32 L 266.76, 459.796 z "/>
<path style="fill:rgb(246, 223, 14);fill-opacity:1.0;fill-rule:evenodd;stroke:rgb(0, 0, 0);stroke-width:3.0;" d="M 255.211, 70.1937 L 117.798, 162.046 L 168.69, 8.00093 z "/>
<path style="fill:rgb(228, 255, 30);fill-opacity:1.0;fill-rule:evenodd;stroke:rgb(0, 0, 0);stroke-width:3.0;" d="M 369.211, 26.3954 L 362.415, 27.8942 L 357.639, 11.9244 L 363.431, 11.3156 z "/>
<path style="fill:rgb(228, 255, 30);fill-opacity:1.0;fill-rule:evenodd;stroke:rgb(0, 0, 0);stroke-width:3.0;" d="M 371.943, 74.6945 L 387.882, 93.1145 L 394.09, 115.44 L 364.125, 68.2728 L 364.181, 68.2087 z "/>
<path style="fill:rgb(228, 255, 30);fill-opacity:1.0;fill-rule:evenodd;stroke:rgb(0, 0, 0);stroke-width:3.0;" d="M 511.235, 37.4451 L 476.845, 58.2448 L 473.956, 57.6732 L 514.085, 31.5619 z "/>
<path style="fill:rgb(228, 255, 30);fill-opacity:1.0;fill-rule:evenodd;stroke:rgb(0, 0, 0);stroke-width:3.0;" d="M 71.4782, 573.379 L 54.6996, 583.02 L 47.0557, 575.17 L 43.5273, 562.461 z "/>
<path style="fill:rgb(228, 255, 30);fill-opacity:1.0;fill-rule:evenodd;stroke:rgb(0, 0, 0);stroke-width:3.0;" d="M 612.379, 142.241 L 610.675, 147.635 L 592.812, 139.485 L 585.603, 133.986 L 589.366, 133.793 z "/>
<path style="fill:rgb(255, 172, 57);fill-opacity:1.0;fill-rule:evenodd;stroke:rgb(0, 0, 0);stroke-width:3.0;" d="M 489.066, 366.032 L 467.715, 367.717 L 463.42, 364.781 L 463.373, 364.611 L 484.263, 354.114 z "/>
<path style="fill:rgb(255, 172, 57);fill-opacity:1.0;fill-rule:evenodd;stroke:rgb(0, 0, 0);stroke-width:3.0;" d="M 320.729, 32.2062 L 309.584, 32.65 L 305.112, 32.003 L 303.59, 23.1894 L 311.523, 13.1684 L 316.318, 12.9533 z "/>
<path style="fill:rgb(255, 172, 57);fill-opacity:1.0;fill-rule:evenodd;stroke:rgb(0, 0, 0);stroke-width:3.0;" d="M 413.058, 183.656 L 424.903, 226.257 L 422.318, 226.007 L 380.562, 182.87 L 384.274, 162.966 z "/>
<path style="fill:rgb(157, 255, 255);fill-opacity:1.0;fill-rule:evenodd;stroke:rgb(0, 0, 0);stroke-width:3.0;" d="M 325.949, 93.3249 L 326.68, 103.893 L 312.872, 103.61 L 320.527, 90.1228 z "/>
<path style="fill:rgb(237, 46, 134);fill-opacity:1.0;fill-rule:evenodd;stroke:rgb(0, 0, 0);stroke-width:3.0;" d="M 501.793, 97.9622 L 498.419, 114.983 L 406.591, 71.2655 L 394.59, 49.0559 z "/>
<path style="fill:rgb(237, 46, 134);fill-opacity:1.0;fill-rule:evenodd;stroke:rgb(0, 0, 0);stroke-width:3.0;" d="M 443.178, 232.093 L 437.571, 243.674 L 437.211, 243.877 L 432.137, 209.209 z "/>
<path style="fill:rgb(237, 46, 134);fill-opacity:1.0;fill-rule:evenodd;stroke:rgb(0, 0, 0);stroke-width:3.0;" d="M 320.527, 90.1228 L 312.872, 103.61 L 312.195, 103.596 L 296.955, 85.272 L 300.754, 78.445 z "/>
<path style="fill:rgb(215, 255, 52);fill-opacity:1.0;fill-rule:evenodd;stroke:rgb(0, 0, 0);stroke-width:3.0;" d="M 618.042, 102.024 L 620.765, 112.601 L 613.087, 134.635 L 583.371, 119.985 L 525.446, 84.1805 z "/>
<path style="fill:rgb(255, 43, 40);fill-opacity:1.0;fill-rule:evenodd;stroke:rgb(0, 0, 0);stroke-width:3.0;" d="M 496.29, 59.7853 L 480.291, 69.1665 L 472.719, 65.4331 L 497.01, 50.6475 z "/>
<path style="fill:rgb(255, 43, 40);fill-opacity:1.0;fill-rule:evenodd;stroke:rgb(0, 0, 0);stroke-width:3.0;" d="M 276.612, 49.8888 L 273.039, 56.6169 L 268.722, 54.7677 L 257.263, 40.1426 z "/>
<path style="fill:rgb(255, 43, 40);fill-opacity:1.0;fill-rule:evenodd;stroke:rgb(0, 0, 0);stroke-width:3.0;" d="M 74.5869, 564.242 L 98.9023, 575.525 L 83.7494, 591.442 L 65.2802, 563.606 z "/>
<path style="fill:rgb(21, 220, 115);fill-opacity:1.0;fill-rule:evenodd;stroke:rgb(0, 0, 0);stroke-width:3.0;" d="M 424.903, 226.257 L 473.17, 399.844 L 323.017, 443.456 L 273.361, 389.658 L 271.532, 327.484 L 373.437, 226.183 L 384.384, 222.335 z "/>
<path style="fill:rgb(21, 220, 115);fill-opacity:1.0;fill-rule:evenodd;stroke:rgb(0, 0, 0);stroke-width:3.0;" d="M 105.056, 424.696 L 77.8574, 457.178 L 88.1798, 405.64 z "/>
<path style="fill:rgb(21, 220, 115);fill-opacity:1.0;fill-rule:evenodd;stroke:rgb(0, 0, 0);stroke-width:3.0;" d="M 275.052, 447.17 L 190.485, 459.124 L 179.647, 294.3 L 269.626, 262.672 z "/>
<path style="fill:rgb(252, 255, 25);fill-opacity:1.0;fill-rule:evenodd;stroke:rgb(0, 0, 0);stroke-width:3.0;" d="M 487.377, 323.696 L 464.928, 323.681 L 447.495, 307.508 L 445.444, 300.133 L 439.526, 259.695 L 450.163, 246.569 z "/>
<path style="fill:rgb(252, 255, 25);fill-opacity:1.0;fill-rule:evenodd;stroke:rgb(0, 0, 0);stroke-width:3.0;" d="M 450.163, 246.569 L 439.526, 259.695 L 437.211, 243.877 L 446.37, 238.708 z "/>
<path style="fill:rgb(252, 255, 25);fill-opacity:1.0;fill-rule:evenodd;stroke:rgb(0, 0, 0);stroke-width:3.0;" d="M 358.319, 14.1977 L 362.415, 27.8942 L 356.51, 29.1965 L 334.786, 12.1246 L 351.063, 11.3943 z "/>
<path style="fill:rgb(252, 255, 25);fill-opacity:1.0;fill-rule:evenodd;stroke:rgb(0, 0, 0);stroke-width:3.0;" d="M 691.513, 34.088 L 637.929, 32.9071 L 638.428, 19.1782 z "/>
<path style="fill:rgb(252, 255, 25);fill-opacity:1.0;fill-rule:evenodd;stroke:rgb(0, 0, 0);stroke-width:3.0;" d="M 638.428, 19.1782 L 637.929, 32.9071 L 621.903, 32.5539 L 630.485, 16.9472 z "/>
<path style="fill:rgb(252, 255, 25);fill-opacity:1.0;fill-rule:evenodd;stroke:rgb(0, 0, 0);stroke-width:3.0;" d="M 383.48, 162.396 L 373.9, 175.987 L 371.088, 173.082 L 375.43, 156.609 z "/>
<path style="fill:rgb(252, 255, 25);fill-opacity:1.0;fill-rule:evenodd;stroke:rgb(0, 0, 0);stroke-width:3.0;" d="M 498.391, 346.524 L 449.733, 245.679 L 458.597, 148.48 L 511.541, 142.224 z "/>
<path style="fill:rgb(252, 255, 25);fill-opacity:1.0;fill-rule:evenodd;stroke:rgb(0, 0, 0);stroke-width:3.0;" d="M 469.083, 69.8142 L 462.646, 80.1034 L 450.534, 74.5775 L 453.647, 71.0273 L 461.229, 66.6619 z "/>
<path style="fill:rgb(197, 66, 59);fill-opacity:1.0;fill-rule:evenodd;stroke:rgb(0, 0, 0);stroke-width:3.0;" d="M 32.3488, 266.482 L 25.1883, 319.092 L 8.38555, 313.222 L 32.2895, 266.405 z "/>
<path style="fill:rgb(197, 66, 59);fill-opacity:1.0;fill-rule:evenodd;stroke:rgb(0, 0, 0);stroke-width:3.0;" d="M 415.355, 87.2943 L 388.785, 96.3633 L 381.242, 69.2347 z "/>
<path style="fill:rgb(197, 66, 59);fill-opacity:1.0;fill-rule:evenodd;stroke:rgb(0, 0, 0);stroke-width:3.0;" d="M 614.554, 135.358 L 613.02, 140.215 L 581.66, 129.805 L 524.596, 91.0086 z "/>
<path style="fill:rgb(255, 5, 56);fill-opacity:1.0;fill-rule:evenodd;stroke:rgb(0, 0, 0);stroke-width:3.0;" d="M 58.982, 520.146 L 21.4872, 531.037 L 25.8637, 482.394 L 51.1651, 478.818 z "/>
<path style="fill:rgb(255, 5, 56);fill-opacity:1.0;fill-rule:evenodd;stroke:rgb(0, 0, 0);stroke-width:3.0;" d="M 49.0954, 258.817 L 44.1335, 269.247 L 32.1438, 266.215 L 31.0219, 264.754 L 36.5531, 250.42 z "/>
<path style="fill:rgb(255, 5, 56);fill-opacity:1.0;fill-rule:evenodd;stroke:rgb(0, 0, 0);stroke-width:3.0;" d="M 274.97, 520.683 L 129.675, 499.614 L 223.642, 472.32 z "/>
<path style="fill:rgb(255, 140, 21);fill-opacity:1.0;fill-rule:evenodd;stroke:rgb(0, 0, 0);stroke-width:3.0;" d="M 383.494, 126.012 L 385.155, 129.098 L 375.143, 139.528 L 369.889, 129.361 L 370.336, 121.216 z "/>
<path style="fill:rgb(249, 255, 33);fill-opacity:1.0;fill-rule:evenodd;stroke:rgb(0, 0, 0);stroke-width:3.0;" d="M 378.815, 181.064 L 406.975, 224.521 L 263.226, 210.606 L 261.407, 170.964 L 285.784, 130.065 L 312.327, 112.377 z "/>
<path style="fill:rgb(249, 255, 33);fill-opacity:1.0;fill-rule:evenodd;stroke:rgb(0, 0, 0);stroke-width:3.0;" d="M 52.3093, 166.604 L 56.9551, 187.379 L 56.9002, 190.633 L 14.7396, 186.552 L 14.6008, 165.452 z "/>
<path style="fill:rgb(249, 255, 33);fill-opacity:1.0;fill-rule:evenodd;stroke:rgb(0, 0, 0);stroke-width:3.0;" d="M 455.036, 18.2277 L 397.434, 28.3178 L 372.685, 16.1162 L 390.935, 7.92501 z "/>
<path style="fill:rgb(249, 255, 33);fill-opacity:1.0;fill-rule:evenodd;stroke:rgb(0, 0, 0);stroke-width:3.0;" d="M 523.275, 72.7052 L 517.548, 82.6585 L 501.312, 79.5298 L 487.116, 72.5311 L 506.853, 69.1261 z "/>
<path style="fill:rgb(249, 255, 33);fill-opacity:1.0;fill-rule:evenodd;stroke:rgb(0, 0, 0);stroke-width:3.0;" d="M 16.6063, 316.094 L 25.1883, 319.092 L 21.849, 343.627 L 5.26841, 319.327 L 7.14061, 315.66 z "/>
<path style="fill:rgb(249, 255, 33);fill-opacity:1.0;fill-rule:evenodd;stroke:rgb(0, 0, 0);stroke-width:3.0;" d="M 302.178, 73.5038 L 276.387, 85.4153 L 270.607, 81.261 L 295.392, 52.1199 z "/>
<path style="fill:rgb(255, 62, 255);fill-opacity:1.0;fill-rule:evenodd;stroke:rgb(0, 0, 0);stroke-width:3.0;" d="M 351.05, 110.677 L 340.127, 110.903 L 345.449, 91.5777 z "/>
<path style="fill:rgb(255, 249, 16);fill-opacity:1.0;fill-rule:evenodd;stroke:rgb(0, 0, 0);stroke-width:3.0;" d="M 71.047, 323.313 L 21.5301, 345.97 L 21.7218, 344.561 L 47.0591, 289.476 z "/>
<path style="fill:rgb(60, 112, 255);fill-opacity:1.0;fill-rule:evenodd;stroke:rgb(0, 0, 0);stroke-width:3.0;" d="M 469.01, 335.343 L 465.336, 349.051 L 460.224, 353.285 L 455.084, 334.803 z "/>
<path style="fill:rgb(45, 249, 187);fill-opacity:1.0;fill-rule:evenodd;stroke:rgb(0, 0, 0);stroke-width:3.0;" d="M 323.017, 443.456 L 275.35, 457.301 L 273.361, 389.658 z "/>
<path style="fill:rgb(13, 42, 255);fill-opacity:1.0;fill-rule:evenodd;stroke:rgb(0, 0, 0);stroke-width:3.0;" d="M 351.835, 63.6111 L 340.452, 95.563 L 327.163, 110.882 L 323.884, 63.4785 L 340.213, 55.9371 z "/>
<path style="fill:rgb(255, 192, 6);fill-opacity:1.0;fill-rule:evenodd;stroke:rgb(0, 0, 0);stroke-width:3.0;" d="M 40.6288, 280.406 L 25.0498, 320.109 L 29.5792, 286.831 L 39.6789, 279.066 z "/>
<path style="fill:rgb(255, 37, 7);fill-opacity:1.0;fill-rule:evenodd;stroke:rgb(0, 0, 0);stroke-width:3.0;" d="M 644.838, 107.188 L 696.614, 133.201 L 691.256, 138.81 L 634.163, 131.411 L 627.074, 103.765 z "/>
<path style="fill:rgb(255, 37, 7);fill-opacity:1.0;fill-rule:evenodd;stroke:rgb(0, 0, 0);stroke-width:3.0;" d="M 394.632, 117.391 L 396.386, 123.697 L 381.586, 122.468 L 378.046, 115.894 L 374.617, 104.74 z "/>
<path style="fill:rgb(255, 37, 7);fill-opacity:1.0;fill-rule:evenodd;stroke:rgb(0, 0, 0);stroke-width:3.0;" d="M 87.162, 499.011 L 56.6333, 507.729 L 51.1651, 478.818 L 99.6459, 471.965 z "/>
<path style="fill:rgb(255, 37, 7);fill-opacity:1.0;fill-rule:evenodd;stroke:rgb(0, 0, 0);stroke-width:3.0;" d="M 625.818, 103.08 L 622.593, 102.901 L 595.364, 97.6542 L 593.895, 94.5818 L 594.681, 92.467 L 621.171, 81.2123 z "/>
<path style="fill:rgb(255, 37, 7);fill-opacity:1.0;fill-rule:evenodd;stroke:rgb(0, 0, 0);stroke-width:3.0;" d="M 173.287, 343.214 L 142.002, 380.575 L 118.795, 315.69 L 166.527, 298.912 z "/>
<path style="fill:rgb(255, 37, 7);fill-opacity:1.0;fill-rule:evenodd;stroke:rgb(0, 0, 0);stroke-width:3.0;" d="M 422.318, 226.007 L 406.975, 224.521 L 391.172, 200.134 L 395.019, 197.804 z "/>
<path style="fill:rgb(255, 37, 7);fill-opacity:1.0;fill-rule:evenodd;stroke:rgb(0, 0, 0);stroke-width:3.0;" d="M 263.027, 206.267 L 249.356, 209.263 L 239.168, 208.277 L 261.407, 170.964 z "/>
<path style="fill:rgb(249, 204, 16);fill-opacity:1.0;fill-rule:evenodd;stroke:rgb(0, 0, 0);stroke-width:3.0;" d="M 253.873, 183.604 L 237.338, 176.787 L 269.989, 140.591 L 285.784, 130.065 z "/>
<path style="fill:rgb(249, 204, 16);fill-opacity:1.0;fill-rule:evenodd;stroke:rgb(0, 0, 0);stroke-width:3.0;" d="M 190.485, 459.124 L 74.1745, 475.565 L 77.8574, 457.178 L 182.166, 332.61 z "/>
<path style="fill:rgb(255, 128, 136);fill-opacity:1.0;fill-rule:evenodd;stroke:rgb(0, 0, 0);stroke-width:3.0;" d="M 66.9224, 571.6 L 29.2544, 556.886 L 14.9841, 542.23 z "/>
<path style="fill:rgb(255, 255, 21);fill-opacity:1.0;fill-rule:evenodd;stroke:rgb(0, 0, 0);stroke-width:3.0;" d="M 44.2405, 77.0194 L 36.0694, 98.8932 L 31.5207, 101.087 L 29.9616, 98.2967 L 39.2309, 74.7105 z "/>
<path style="fill:rgb(215, 50, 19);fill-opacity:1.0;fill-rule:evenodd;stroke:rgb(0, 0, 0);stroke-width:3.0;" d="M 533.515, 21.4786 L 524.465, 27.6187 L 520.963, 18.9715 L 523.151, 16.8005 L 531.242, 12.6436 z "/>
<path style="fill:rgb(255, 14, 115);fill-opacity:1.0;fill-rule:evenodd;stroke:rgb(0, 0, 0);stroke-width:3.0;" d="M 487.377, 323.696 L 493.454, 336.291 L 477.868, 335.686 L 468.732, 327.211 L 474.78, 323.688 z "/>
<path style="fill:rgb(255, 14, 115);fill-opacity:1.0;fill-rule:evenodd;stroke:rgb(0, 0, 0);stroke-width:3.0;" d="M 355.894, 34.7718 L 351.329, 54.2645 L 348.742, 53.4406 L 348.131, 38.2509 L 353.076, 32.5791 z "/>
<path style="fill:rgb(255, 14, 115);fill-opacity:1.0;fill-rule:evenodd;stroke:rgb(0, 0, 0);stroke-width:3.0;" d="M 182.166, 332.61 L 173.287, 343.214 L 166.527, 298.912 L 179.647, 294.3 z "/>
<path style="fill:rgb(255, 14, 115);fill-opacity:1.0;fill-rule:evenodd;stroke:rgb(0, 0, 0);stroke-width:3.0;" d="M 497.302, 367.527 L 482.414, 377.762 L 467.715, 367.717 L 494.102, 365.634 z "/>
<path style="fill:rgb(194, 15, 128);fill-opacity:1.0;fill-rule:evenodd;stroke:rgb(0, 0, 0);stroke-width:3.0;" d="M 604.641, 65.7011 L 603.698, 68.2341 L 581.087, 67.7985 L 576.016, 57.1944 L 585.66, 55.5306 z "/>
<path style="fill:rgb(194, 15, 128);fill-opacity:1.0;fill-rule:evenodd;stroke:rgb(0, 0, 0);stroke-width:3.0;" d="M 295.37, 13.3663 L 283.83, 32.2658 L 277.873, 31.5785 L 276.166, 22.8549 L 276.379, 18.1875 L 294.974, 11.7515 z "/>
<path style="fill:rgb(163, 255, 163);fill-opacity:1.0;fill-rule:evenodd;stroke:rgb(0, 0, 0);stroke-width:3.0;" d="M 169.363, 136.462 L 113.154, 176.103 L 117.798, 162.046 L 154.324, 137.63 L 170.619, 127.601 z "/>
<path style="fill:rgb(240, 231, 83);fill-opacity:1.0;fill-rule:evenodd;stroke:rgb(0, 0, 0);stroke-width:3.0;" d="M 259.231, 73.0836 L 170.676, 135.536 L 172.228, 126.61 L 259.211, 73.0693 z "/>
<path style="fill:rgb(240, 231, 83);fill-opacity:1.0;fill-rule:evenodd;stroke:rgb(0, 0, 0);stroke-width:3.0;" d="M 83.4967, 506.952 L 99.6459, 471.965 L 139.038, 466.397 z "/>
<path style="fill:rgb(240, 231, 83);fill-opacity:1.0;fill-rule:evenodd;stroke:rgb(0, 0, 0);stroke-width:3.0;" d="M 515.368, 387.587 L 484.55, 396.539 L 470.393, 389.455 L 514.65, 384.943 z "/>
<path style="fill:rgb(255, 19, 7);fill-opacity:1.0;fill-rule:evenodd;stroke:rgb(0, 0, 0);stroke-width:3.0;" d="M 528.332, 40.9962 L 524.113, 43.4704 L 519.63, 39.9433 L 522.846, 28.717 L 530.949, 23.2195 z "/>
<path style="fill:rgb(255, 19, 7);fill-opacity:1.0;fill-rule:evenodd;stroke:rgb(0, 0, 0);stroke-width:3.0;" d="M 186.079, 203.138 L 102.429, 254.722 L 133.576, 198.056 z "/>
<path style="fill:rgb(255, 19, 7);fill-opacity:1.0;fill-rule:evenodd;stroke:rgb(0, 0, 0);stroke-width:3.0;" d="M 567.124, 54.0335 L 568.951, 58.4133 L 555.052, 60.811 L 554.099, 55.5716 L 556.936, 48.7445 z "/>
<path style="fill:rgb(255, 255, 11);fill-opacity:1.0;fill-rule:evenodd;stroke:rgb(0, 0, 0);stroke-width:3.0;" d="M 746.391, 200.354 L 740.989, 207.084 L 613.121, 148.75 L 625.643, 140.825 z "/>
<path style="fill:rgb(255, 255, 11);fill-opacity:1.0;fill-rule:evenodd;stroke:rgb(0, 0, 0);stroke-width:3.0;" d="M 37.1918, 31.7012 L 40.0231, 32.9106 L 54.5607, 49.3924 L 51.8583, 56.6267 L 39.0295, 58.728 L 34.2428, 31.5633 z "/>
<path style="fill:rgb(255, 255, 11);fill-opacity:1.0;fill-rule:evenodd;stroke:rgb(0, 0, 0);stroke-width:3.0;" d="M 256.364, 29.0966 L 281.258, 41.1378 L 276.612, 49.8888 L 257.263, 40.1426 L 247.837, 28.1127 z "/>
<path style="fill:rgb(255, 255, 11);fill-opacity:1.0;fill-rule:evenodd;stroke:rgb(0, 0, 0);stroke-width:3.0;" d="M 285.845, 32.4983 L 281.258, 41.1378 L 266.357, 33.9302 L 267.157, 30.342 z "/>
<path style="fill:rgb(255, 255, 11);fill-opacity:1.0;fill-rule:evenodd;stroke:rgb(0, 0, 0);stroke-width:3.0;" d="M 630.485, 16.9472 L 621.903, 32.5539 L 605.242, 32.1867 L 603.596, 18.4623 L 625.498, 15.5465 z "/>
<path style="fill:rgb(8, 255, 255);fill-opacity:1.0;fill-rule:evenodd;stroke:rgb(0, 0, 0);stroke-width:3.0;" d="M 619.324, 49.1662 L 591.377, 50.6959 L 599.59, 38.5648 L 611.459, 37.0276 z "/>
<path style="fill:rgb(255, 52, 21);fill-opacity:1.0;fill-rule:evenodd;stroke:rgb(0, 0, 0);stroke-width:3.0;" d="M 42.7833, 124.007 L 52.3093, 166.604 L 14.6008, 165.452 L 14.542, 156.522 L 36.2069, 98.5249 z "/>
<path style="fill:rgb(49, 33, 255);fill-opacity:1.0;fill-rule:evenodd;stroke:rgb(0, 0, 0);stroke-width:3.0;" d="M 36.2635, 82.2614 L 29.9616, 98.2967 L 23.6998, 87.0905 L 30.305, 77.488 z "/>
<path style="fill:rgb(115, 18, 255);fill-opacity:1.0;fill-rule:evenodd;stroke:rgb(0, 0, 0);stroke-width:3.0;" d="M 577.586, 60.4781 L 557.544, 80.1741 L 529.667, 74.0983 L 552.49, 61.2529 L 576.016, 57.1944 z "/>
<path style="fill:rgb(115, 18, 255);fill-opacity:1.0;fill-rule:evenodd;stroke:rgb(0, 0, 0);stroke-width:3.0;" d="M 361.119, 97.2342 L 350.696, 109.47 L 346.544, 95.312 L 355.477, 92.7654 z "/>
<path style="fill:rgb(115, 18, 255);fill-opacity:1.0;fill-rule:evenodd;stroke:rgb(0, 0, 0);stroke-width:3.0;" d="M 239.669, 174.203 L 223.954, 191.624 L 197.679, 195.507 L 204.952, 183.934 L 234.072, 164.527 z "/>
<path style="fill:rgb(115, 18, 255);fill-opacity:1.0;fill-rule:evenodd;stroke:rgb(0, 0, 0);stroke-width:3.0;" d="M 590.771, 67.9851 L 597.05, 72.3871 L 586.656, 79.4446 L 581.087, 67.7985 z "/>
<path style="fill:rgb(115, 18, 255);fill-opacity:1.0;fill-rule:evenodd;stroke:rgb(0, 0, 0);stroke-width:3.0;" d="M 529.667, 74.0983 L 506.853, 69.1261 L 552.49, 61.2529 z "/>
<path style="fill:rgb(252, 243, 38);fill-opacity:1.0;fill-rule:evenodd;stroke:rgb(0, 0, 0);stroke-width:3.0;" d="M 384.384, 222.335 L 308.511, 249.004 L 216.196, 256.9 L 307.919, 214.933 z "/>
<path style="fill:rgb(202, 228, 10);fill-opacity:1.0;fill-rule:evenodd;stroke:rgb(0, 0, 0);stroke-width:3.0;" d="M 496.125, 113.891 L 498.246, 115.858 L 495.498, 129.722 L 381.242, 69.2347 L 378.025, 57.6657 z "/>
<path style="fill:rgb(202, 228, 10);fill-opacity:1.0;fill-rule:evenodd;stroke:rgb(0, 0, 0);stroke-width:3.0;" d="M 649.371, 133.382 L 649.156, 147.518 L 645.805, 150.765 L 638.16, 146.996 L 634.163, 131.411 z "/>
<path style="fill:rgb(202, 228, 10);fill-opacity:1.0;fill-rule:evenodd;stroke:rgb(0, 0, 0);stroke-width:3.0;" d="M 394.59, 49.0559 L 406.591, 71.2655 L 378.025, 57.6657 L 372.877, 39.1503 z "/>
<path style="fill:rgb(255, 226, 13);fill-opacity:1.0;fill-rule:evenodd;stroke:rgb(0, 0, 0);stroke-width:3.0;" d="M 514.882, 31.0432 L 476.302, 56.1465 L 443.778, 37.808 L 485.415, 12.9061 L 526.288, 5.74646 z "/>
<path style="fill:rgb(255, 226, 13);fill-opacity:1.0;fill-rule:evenodd;stroke:rgb(0, 0, 0);stroke-width:3.0;" d="M 794.684, 224.162 L 794.933, 231.694 L 785.891, 227.569 L 755.865, 205.024 z "/>
<path style="fill:rgb(255, 226, 13);fill-opacity:1.0;fill-rule:evenodd;stroke:rgb(0, 0, 0);stroke-width:3.0;" d="M 250.636, 162.045 L 239.669, 174.203 L 234.072, 164.527 L 248.142, 155.151 z "/>
<path style="fill:rgb(255, 226, 13);fill-opacity:1.0;fill-rule:evenodd;stroke:rgb(0, 0, 0);stroke-width:3.0;" d="M 484.263, 354.114 L 463.373, 364.611 L 463.267, 364.229 L 478.814, 340.597 z "/>
<path style="fill:rgb(12, 226, 252);fill-opacity:1.0;fill-rule:evenodd;stroke:rgb(0, 0, 0);stroke-width:3.0;" d="M 506.587, 65.7381 L 503.606, 69.6862 L 498.692, 70.534 L 492.476, 62.0218 L 509.202, 52.2141 z "/>
<path style="fill:rgb(255, 72, 7);fill-opacity:1.0;fill-rule:evenodd;stroke:rgb(0, 0, 0);stroke-width:3.0;" d="M 300.62, 26.9413 L 293.704, 17.6949 L 295.732, 13.877 L 311.523, 13.1684 z "/>
<path style="fill:rgb(76, 243, 255);fill-opacity:1.0;fill-rule:evenodd;stroke:rgb(0, 0, 0);stroke-width:3.0;" d="M 347.974, 136.873 L 364.143, 148.496 L 348.854, 150.112 L 334.79, 135.583 z "/>
<path style="fill:rgb(43, 19, 243);fill-opacity:1.0;fill-rule:evenodd;stroke:rgb(0, 0, 0);stroke-width:3.0;" d="M 17.1498, 96.6129 L 14.0911, 88.0275 L 13.9924, 73.035 L 34.7041, 71.0926 z "/>
<path style="fill:rgb(15, 255, 134);fill-opacity:1.0;fill-rule:evenodd;stroke:rgb(0, 0, 0);stroke-width:3.0;" d="M 405.735, 32.4102 L 414.878, 36.9178 L 413.484, 38.6921 L 399.695, 37.9467 L 384.474, 28.0003 L 384.291, 27.3271 z "/>
<path style="fill:rgb(18, 252, 255);fill-opacity:1.0;fill-rule:evenodd;stroke:rgb(0, 0, 0);stroke-width:3.0;" d="M 356.51, 29.1965 L 347.742, 31.1305 L 347.22, 31.1513 L 332.555, 12.2248 L 334.786, 12.1246 z "/>
<path style="fill:rgb(30, 231, 255);fill-opacity:1.0;fill-rule:evenodd;stroke:rgb(0, 0, 0);stroke-width:3.0;" d="M 275.35, 457.301 L 266.103, 459.987 L 264.811, 448.618 L 275.052, 447.17 z "/>
<path style="fill:rgb(64, 154, 204);fill-opacity:1.0;fill-rule:evenodd;stroke:rgb(0, 0, 0);stroke-width:3.0;" d="M 271.532, 327.484 L 269.626, 262.672 L 373.437, 226.183 z "/>
<path style="fill:rgb(33, 24, 255);fill-opacity:1.0;fill-rule:evenodd;stroke:rgb(0, 0, 0);stroke-width:3.0;" d="M 339.505, 113.164 L 336.591, 115.042 L 331.675, 105.68 L 338.092, 98.2827 L 344.1, 96.4763 z "/>
<path style="fill:rgb(255, 39, 105);fill-opacity:1.0;fill-rule:evenodd;stroke:rgb(0, 0, 0);stroke-width:3.0;" d="M 61.7503, 558.286 L 71.8647, 573.53 L 66.9224, 571.6 L 15.3554, 542.44 L 17.0148, 537.529 z "/>
<path style="fill:rgb(255, 240, 9);fill-opacity:1.0;fill-rule:evenodd;stroke:rgb(0, 0, 0);stroke-width:3.0;" d="M 691.256, 138.81 L 668.941, 162.171 L 645.805, 150.765 L 662.049, 135.025 z "/>
<path style="fill:rgb(255, 240, 9);fill-opacity:1.0;fill-rule:evenodd;stroke:rgb(0, 0, 0);stroke-width:3.0;" d="M 51.0204, 260.106 L 48.2808, 282.019 L 44.2859, 282.025 L 40.438, 277.015 L 49.0954, 258.817 z "/>
<path style="fill:rgb(255, 240, 9);fill-opacity:1.0;fill-rule:evenodd;stroke:rgb(0, 0, 0);stroke-width:3.0;" d="M 522.828, 107.559 L 534.791, 113.016 L 499.044, 111.831 L 500.157, 106.217 z "/>
<path style="fill:rgb(228, 102, 49);fill-opacity:1.0;fill-rule:evenodd;stroke:rgb(0, 0, 0);stroke-width:3.0;" d="M 524.596, 91.0086 L 581.66, 129.805 L 544.698, 117.535 L 475.901, 86.15 L 475.056, 76.3708 L 483.623, 72.4559 L 486.249, 72.1035 z "/>
<path style="fill:rgb(255, 2, 25);fill-opacity:1.0;fill-rule:evenodd;stroke:rgb(0, 0, 0);stroke-width:3.0;" d="M 211.36, 205.585 L 192.493, 203.759 L 197.679, 195.507 L 223.954, 191.624 z "/>
<path style="fill:rgb(255, 21, 69);fill-opacity:1.0;fill-rule:evenodd;stroke:rgb(0, 0, 0);stroke-width:3.0;" d="M 590.433, 87.342 L 581.464, 85.3874 L 567.343, 70.545 L 577.586, 60.4781 z "/>
<path style="fill:rgb(20, 74, 226);fill-opacity:1.0;fill-rule:evenodd;stroke:rgb(0, 0, 0);stroke-width:3.0;" d="M 681.646, 114.281 L 682.297, 120.666 L 676.061, 122.875 L 660.196, 114.904 L 670.072, 112.051 z "/>
<path style="fill:rgb(209, 22, 255);fill-opacity:1.0;fill-rule:evenodd;stroke:rgb(0, 0, 0);stroke-width:3.0;" d="M 513.993, 378.859 L 516.821, 384.721 L 487.139, 387.748 L 491.928, 375.209 L 505.161, 370.002 z "/>
<path style="fill:rgb(252, 240, 42);fill-opacity:1.0;fill-rule:evenodd;stroke:rgb(0, 0, 0);stroke-width:3.0;" d="M 602.733, 18.5772 L 567.209, 23.3066 L 566.006, 23.3326 L 565.771, 19.1773 L 591.993, 6.16781 z "/>
<path style="fill:rgb(252, 240, 42);fill-opacity:1.0;fill-rule:evenodd;stroke:rgb(0, 0, 0);stroke-width:3.0;" d="M 534.791, 113.016 L 545.313, 117.816 L 507.023, 142.758 L 494.487, 144.239 L 527.748, 112.782 z "/>
<path style="fill:rgb(252, 240, 42);fill-opacity:1.0;fill-rule:evenodd;stroke:rgb(0, 0, 0);stroke-width:3.0;" d="M 106.141, 515.921 L 46.0978, 551.024 L 10.131, 534.335 L 97.9853, 508.818 z "/>
<path style="fill:rgb(22, 255, 255);fill-opacity:1.0;fill-rule:evenodd;stroke:rgb(0, 0, 0);stroke-width:3.0;" d="M 707.864, 34.4484 L 672.264, 40.59 L 672.037, 37.0784 L 682.598, 33.8916 z "/>
<path style="fill:rgb(255, 202, 8);fill-opacity:1.0;fill-rule:evenodd;stroke:rgb(0, 0, 0);stroke-width:3.0;" d="M 229.559, 207.347 L 229.355, 207.327 L 219.212, 196.881 L 228.684, 186.381 z "/>
<path style="fill:rgb(255, 202, 8);fill-opacity:1.0;fill-rule:evenodd;stroke:rgb(0, 0, 0);stroke-width:3.0;" d="M 428.937, 57.1044 L 425.866, 63.3243 L 404.066, 53.379 L 412.34, 48.9211 z "/>
<path style="fill:rgb(255, 202, 8);fill-opacity:1.0;fill-rule:evenodd;stroke:rgb(0, 0, 0);stroke-width:3.0;" d="M 699.318, 107.147 L 702.217, 118.246 L 690.244, 115.938 L 689.139, 106.584 z "/>
<path style="fill:rgb(255, 202, 8);fill-opacity:1.0;fill-rule:evenodd;stroke:rgb(0, 0, 0);stroke-width:3.0;" d="M 476.302, 56.1465 L 466.638, 62.4351 L 431.535, 45.1296 L 443.778, 37.808 z "/>
<path style="fill:rgb(231, 7, 255);fill-opacity:1.0;fill-rule:evenodd;stroke:rgb(0, 0, 0);stroke-width:3.0;" d="M 34.2428, 31.5633 L 39.0295, 58.728 L 13.9253, 62.84 L 13.7131, 30.6032 z "/>
<path style="fill:rgb(255, 246, 212);fill-opacity:1.0;fill-rule:evenodd;stroke:rgb(0, 0, 0);stroke-width:3.0;" d="M 83.7091, 506.492 L 80.2591, 513.966 L 58.982, 520.146 L 56.6333, 507.729 L 70.3734, 503.805 z "/>
<path style="fill:rgb(92, 177, 209);fill-opacity:1.0;fill-rule:evenodd;stroke:rgb(0, 0, 0);stroke-width:3.0;" d="M 720.386, 108.313 L 709.549, 119.658 L 702.352, 118.272 L 701.951, 107.293 z "/>
<path style="fill:rgb(255, 255, 8);fill-opacity:1.0;fill-rule:evenodd;stroke:rgb(0, 0, 0);stroke-width:3.0;" d="M 605.242, 32.1867 L 578.226, 31.5913 L 604.039, 22.1538 z "/>
<path style="fill:rgb(255, 255, 8);fill-opacity:1.0;fill-rule:evenodd;stroke:rgb(0, 0, 0);stroke-width:3.0;" d="M 755.865, 205.024 L 780.602, 223.598 L 741.172, 206.857 L 746.391, 200.354 z "/>
<path style="fill:rgb(234, 12, 159);fill-opacity:1.0;fill-rule:evenodd;stroke:rgb(0, 0, 0);stroke-width:3.0;" d="M 325.949, 93.3249 L 321.3, 90.5795 L 312.357, 76.901 L 313.622, 75.5863 L 324.66, 74.6931 z "/>
<path style="fill:rgb(246, 25, 255);fill-opacity:1.0;fill-rule:evenodd;stroke:rgb(0, 0, 0);stroke-width:3.0;" d="M 52.1062, 372.231 L 38.3208, 343.976 L 70.0982, 332.806 z "/>
<path style="fill:rgb(9, 226, 255);fill-opacity:1.0;fill-rule:evenodd;stroke:rgb(0, 0, 0);stroke-width:3.0;" d="M 20.8774, 520.729 L 20.642, 531.282 L 12.8084, 533.558 L 14.0361, 507.025 L 15.2346, 505.706 z "/>
<path style="fill:rgb(220, 33, 7);fill-opacity:1.0;fill-rule:evenodd;stroke:rgb(0, 0, 0);stroke-width:3.0;" d="M 362.792, 40.1396 L 363.049, 57.9962 L 351.329, 54.2645 L 355.894, 34.7718 z "/>
<path style="fill:rgb(249, 184, 18);fill-opacity:1.0;fill-rule:evenodd;stroke:rgb(0, 0, 0);stroke-width:3.0;" d="M 348.388, 44.6366 L 336.781, 49.6322 L 319.885, 44.2525 L 310.719, 32.6048 L 347.844, 31.1264 z "/>
<path style="fill:rgb(249, 2, 138);fill-opacity:1.0;fill-rule:evenodd;stroke:rgb(0, 0, 0);stroke-width:3.0;" d="M 39.429, 567.336 L 17.981, 577.684 L 10.0714, 537.184 z "/>
<path style="fill:rgb(255, 54, 220);fill-opacity:1.0;fill-rule:evenodd;stroke:rgb(0, 0, 0);stroke-width:3.0;" d="M 541.307, 52.0323 L 521.482, 66.6023 L 511.919, 68.2521 L 519.604, 54.3812 L 540.857, 40.4306 z "/>
<path style="fill:rgb(231, 0, 246);fill-opacity:1.0;fill-rule:evenodd;stroke:rgb(0, 0, 0);stroke-width:3.0;" d="M 552.967, 26.1219 L 551.075, 27.6606 L 532.772, 38.3929 L 529.315, 34.3198 L 529.456, 33.3626 L 538.454, 18.1283 L 539.182, 17.634 z "/>
<path style="fill:rgb(255, 22, 192);fill-opacity:1.0;fill-rule:evenodd;stroke:rgb(0, 0, 0);stroke-width:3.0;" d="M 487.139, 387.748 L 479.012, 388.576 L 480.862, 378.828 L 493.993, 369.802 z "/>
<path style="fill:rgb(21, 107, 240);fill-opacity:1.0;fill-rule:evenodd;stroke:rgb(0, 0, 0);stroke-width:3.0;" d="M 621.171, 81.2123 L 594.681, 92.467 L 609.987, 51.3339 L 614.651, 50.5293 z "/>
<path style="fill:rgb(165, 159, 199);fill-opacity:1.0;fill-rule:evenodd;stroke:rgb(0, 0, 0);stroke-width:3.0;" d="M 41.7355, 301.05 L 21.7218, 344.561 L 25.0498, 320.109 L 34.8068, 295.243 z "/>
<path style="fill:rgb(249, 255, 55);fill-opacity:1.0;fill-rule:evenodd;stroke:rgb(0, 0, 0);stroke-width:3.0;" d="M 47.0591, 289.476 L 41.7355, 301.05 L 34.8068, 295.243 L 40.6288, 280.406 z "/>
<path style="fill:rgb(8, 40, 255);fill-opacity:1.0;fill-rule:evenodd;stroke:rgb(0, 0, 0);stroke-width:3.0;" d="M 586.814, 41.1719 L 585.868, 42.696 L 568.693, 57.7965 L 567.773, 55.5892 L 576.692, 41.0181 L 579.901, 38.4248 z "/>
<path style="fill:rgb(8, 40, 255);fill-opacity:1.0;fill-rule:evenodd;stroke:rgb(0, 0, 0);stroke-width:3.0;" d="M 119.644, 502.527 L 80.2591, 513.966 L 83.4967, 506.952 L 139.038, 466.397 L 141.793, 466.007 z "/>
<path style="fill:rgb(146, 65, 123);fill-opacity:1.0;fill-rule:evenodd;stroke:rgb(0, 0, 0);stroke-width:3.0;" d="M 27.0354, 244.048 L 36.5531, 250.42 L 31.0219, 264.754 L 13.5837, 242.047 z "/>
<path style="fill:rgb(255, 6, 36);fill-opacity:1.0;fill-rule:evenodd;stroke:rgb(0, 0, 0);stroke-width:3.0;" d="M 682.722, 31.619 L 664.528, 26.5087 L 678.133, 11.5379 z "/>
<path style="fill:rgb(255, 255, 86);fill-opacity:1.0;fill-rule:evenodd;stroke:rgb(0, 0, 0);stroke-width:3.0;" d="M 579.901, 38.4248 L 565.476, 50.0814 L 560.484, 38.1107 L 574.027, 36.0906 z "/>
<path style="fill:rgb(255, 255, 86);fill-opacity:1.0;fill-rule:evenodd;stroke:rgb(0, 0, 0);stroke-width:3.0;" d="M 186.106, 10.7609 L 192.952, 16.8314 L 183.003, 18.0537 L 182.191, 17.7055 L 169.387, 8.50205 L 169.638, 8.34241 z "/>
<path style="fill:rgb(255, 255, 86);fill-opacity:1.0;fill-rule:evenodd;stroke:rgb(0, 0, 0);stroke-width:3.0;" d="M 364.611, 67.7127 L 344.833, 90.5118 L 346.674, 78.0972 L 347.285, 76.3828 L 359.507, 67.1609 z "/>
<path style="fill:rgb(255, 255, 86);fill-opacity:1.0;fill-rule:evenodd;stroke:rgb(0, 0, 0);stroke-width:3.0;" d="M 525.446, 84.1805 L 556.697, 103.497 L 552.597, 104.813 L 509.145, 83.3914 L 510.917, 81.3808 z "/>
<path style="fill:rgb(71, 7, 255);fill-opacity:1.0;fill-rule:evenodd;stroke:rgb(0, 0, 0);stroke-width:3.0;" d="M 45.4515, 32.0875 L 19.1023, 30.8552 L 25.2062, 24.5458 L 37.0218, 17.0423 z "/>
<path style="fill:rgb(255, 108, 7);fill-opacity:1.0;fill-rule:evenodd;stroke:rgb(0, 0, 0);stroke-width:3.0;" d="M 89.8641, 397.231 L 74.1745, 475.565 L 64.3524, 476.954 L 51.0471, 383.149 z "/>
<path style="fill:rgb(246, 71, 38);fill-opacity:1.0;fill-rule:evenodd;stroke:rgb(0, 0, 0);stroke-width:3.0;" d="M 89.8641, 397.231 L 51.0471, 383.149 L 50.1168, 376.59 L 70.0982, 332.806 L 105.242, 320.453 z "/>
<path style="fill:rgb(28, 31, 249);fill-opacity:1.0;fill-rule:evenodd;stroke:rgb(0, 0, 0);stroke-width:3.0;" d="M 590.433, 87.342 L 591.354, 89.2694 L 570.778, 92.9164 L 517.548, 82.6585 L 523.275, 72.7052 z "/>
<path style="fill:rgb(255, 255, 57);fill-opacity:1.0;fill-rule:evenodd;stroke:rgb(0, 0, 0);stroke-width:3.0;" d="M 633.582, 129.146 L 631.602, 134.366 L 626.955, 136.643 L 622.621, 119.808 L 625.926, 116.163 L 630.064, 115.427 z "/>
<path style="fill:rgb(249, 204, 7);fill-opacity:1.0;fill-rule:evenodd;stroke:rgb(0, 0, 0);stroke-width:3.0;" d="M 604.641, 65.7011 L 585.66, 55.5306 L 609.987, 51.3339 z "/>
<path style="fill:rgb(255, 255, 46);fill-opacity:1.0;fill-rule:evenodd;stroke:rgb(0, 0, 0);stroke-width:3.0;" d="M 149.874, 493.747 L 119.644, 502.527 L 130.184, 485.147 z "/>
<path style="fill:rgb(234, 121, 252);fill-opacity:1.0;fill-rule:evenodd;stroke:rgb(0, 0, 0);stroke-width:3.0;" d="M 260, 461.76 L 149.874, 493.747 L 130.184, 485.147 L 141.793, 466.007 L 264.186, 448.706 z "/>
<path style="fill:rgb(246, 2, 14);fill-opacity:1.0;fill-rule:evenodd;stroke:rgb(0, 0, 0);stroke-width:3.0;" d="M 269.333, 211.197 L 276.856, 229.145 L 74.7076, 321.638 L 48.742, 287.828 L 186.079, 203.138 z "/>
<path style="fill:rgb(255, 255, 44);fill-opacity:1.0;fill-rule:evenodd;stroke:rgb(0, 0, 0);stroke-width:3.0;" d="M 307.919, 214.933 L 276.856, 229.145 L 269.333, 211.197 z "/>
<path style="fill:rgb(40, 94, 255);fill-opacity:1.0;fill-rule:evenodd;stroke:rgb(0, 0, 0);stroke-width:3.0;" d="M 253.873, 183.604 L 239.168, 208.277 L 229.559, 207.347 L 228.684, 186.381 L 237.338, 176.787 z "/>
<path style="fill:rgb(197, 144, 88);fill-opacity:1.0;fill-rule:evenodd;stroke:rgb(0, 0, 0);stroke-width:3.0;" d="M 689.139, 106.584 L 690.244, 115.938 L 678.089, 113.596 L 677.307, 105.929 z "/>
<path style="fill:rgb(255, 38, 39);fill-opacity:1.0;fill-rule:evenodd;stroke:rgb(0, 0, 0);stroke-width:3.0;" d="M 65.2025, 269.601 L 63.1631, 278.935 L 58.189, 282.002 L 48.2808, 282.019 L 51.0204, 260.106 z "/>
<path style="fill:rgb(223, 7, 7);fill-opacity:1.0;fill-rule:evenodd;stroke:rgb(0, 0, 0);stroke-width:3.0;" d="M 449.733, 245.679 L 405.842, 154.713 L 458.597, 148.48 z "/>
</svg>