<?xml version="1.0" encoding="iso-8859-1" standalone="no"?>
<!DOCTYPE svg PUBLIC "-//W3C//DTD SVG 1.0//EN" "http://www.w3.org/TR/2001/REC-SVG-20010904/DTD/svg10.dtd">
<svg xmlns="http://www.w3.org/2000/svg" width="800" height="600">
<path style="fill:rgb(0, 0, 0);fill-opacity:0.0;fill-rule:evenodd;stroke:rgb(0, 0, 0);stroke-width:0.0;" d="M 0, 600 L 800, 600 L 800, 0 L 0, 0 z "/>
<path style="fill:rgb(255, 25, 255);fill-opacity:1.0;fill-rule:evenodd;stroke:rgb(0, 0, 0);stroke-width:3.0;" d="M 88.4694, 192.21 L 84.9639, 200.897 L 66.6681, 204.978 L 60.4788, 196.588 L 64.1011, 191.804 z "/>
<path style="fill:rgb(255, 25, 255);fill-opacity:1.0;fill-rule:evenodd;stroke:rgb(0, 0, 0);stroke-width:3.0;" d="M 736.017, 28.7015 L 768.283, 48.4224 L 757.397, 51.1704 L 712.406, 29.9332 L 720.119, 23.7727 z "/>
<path style="fill:rgb(255, 255, 18);fill-opacity:1.0;fill-rule:evenodd;stroke:rgb(0, 0, 0);stroke-width:3.0;" d="M 321.46, 286.183 L 307.382, 274.801 L 307.938, 268.05 L 315.576, 267.117 z "/>
<path style="fill:rgb(255, 255, 18);fill-opacity:1.0;fill-rule:evenodd;stroke:rgb(0, 0, 0);stroke-width:3.0;" d="M 737.299, 532.031 L 734.254, 556.501 L 731.765, 558.425 L 713.508, 526.349 L 719.162, 523.091 z "/>
<path style="fill:rgb(72, 161, 255);fill-opacity:1.0;fill-rule:evenodd;stroke:rgb(0, 0, 0);stroke-width:3.0;" d="M 95.9101, 254.236 L 98.7356, 265.22 L 82.6107, 262.634 L 70.2051, 249.684 z "/>
<path style="fill:rgb(72, 161, 255);fill-opacity:1.0;fill-rule:evenodd;stroke:rgb(0, 0, 0);stroke-width:3.0;" d="M 742.446, 140.905 L 740.128, 140.412 L 742.132, 134.691 L 743.676, 133.875 L 776.204, 122.252 z "/>
<path style="fill:rgb(72, 161, 255);fill-opacity:1.0;fill-rule:evenodd;stroke:rgb(0, 0, 0);stroke-width:3.0;" d="M 140.727, 226.862 L 146.622, 234.494 L 141.117, 259.787 L 111.242, 235.483 L 117.74, 224.961 L 121.353, 222.933 z "/>
<path style="fill:rgb(72, 161, 255);fill-opacity:1.0;fill-rule:evenodd;stroke:rgb(0, 0, 0);stroke-width:3.0;" d="M 322.9, 162.966 L 305.947, 185.973 L 304.932, 172.842 L 320.038, 153.384 z "/>
<path style="fill:rgb(72, 161, 255);fill-opacity:1.0;fill-rule:evenodd;stroke:rgb(0, 0, 0);stroke-width:3.0;" d="M 737.299, 532.031 L 719.162, 523.091 L 739.899, 511.141 z "/>
<path style="fill:rgb(23, 252, 237);fill-opacity:1.0;fill-rule:evenodd;stroke:rgb(0, 0, 0);stroke-width:3.0;" d="M 65.299, 211.564 L 57.2465, 240.489 L 42.8535, 239.267 L 30.4686, 228.331 L 30.2173, 227.804 L 30.0295, 219.31 L 64.4956, 211.401 z "/>
<path style="fill:rgb(23, 252, 237);fill-opacity:1.0;fill-rule:evenodd;stroke:rgb(0, 0, 0);stroke-width:3.0;" d="M 694.679, 544.116 L 678.342, 562.558 L 669.439, 564.36 L 668.703, 560.729 L 682.789, 523.823 z "/>
<path style="fill:rgb(94, 64, 255);fill-opacity:1.0;fill-rule:evenodd;stroke:rgb(0, 0, 0);stroke-width:3.0;" d="M 750.682, 18.8589 L 760.244, 38.3224 L 756.949, 41.4954 L 755.773, 40.7761 L 746.069, 18.2275 z "/>
<path style="fill:rgb(255, 142, 9);fill-opacity:1.0;fill-rule:evenodd;stroke:rgb(0, 0, 0);stroke-width:3.0;" d="M 336.22, 259.671 L 335.408, 263.164 L 320.674, 242.168 L 307.926, 183.287 L 317.964, 169.665 z "/>
<path style="fill:rgb(249, 16, 11);fill-opacity:1.0;fill-rule:evenodd;stroke:rgb(0, 0, 0);stroke-width:3.0;" d="M 265.754, 56.7575 L 265.335, 60.0107 L 208.628, 30.3402 L 210.499, 29.0309 z "/>
<path style="fill:rgb(28, 246, 168);fill-opacity:1.0;fill-rule:evenodd;stroke:rgb(0, 0, 0);stroke-width:3.0;" d="M 314.939, 215.682 L 317.288, 235.436 L 316.5, 236.221 L 297.592, 209.278 L 311.351, 199.106 z "/>
<path style="fill:rgb(255, 2, 13);fill-opacity:1.0;fill-rule:evenodd;stroke:rgb(0, 0, 0);stroke-width:3.0;" d="M 256.41, 195.421 L 263.988, 208.893 L 210.948, 213.479 L 208.338, 206.768 L 205.812, 189.545 z "/>
<path style="fill:rgb(255, 2, 13);fill-opacity:1.0;fill-rule:evenodd;stroke:rgb(0, 0, 0);stroke-width:3.0;" d="M 748.585, 464.934 L 747.673, 479.549 L 735.52, 460.4 L 734.109, 451.176 L 736.304, 448.499 z "/>
<path style="fill:rgb(255, 22, 16);fill-opacity:1.0;fill-rule:evenodd;stroke:rgb(0, 0, 0);stroke-width:3.0;" d="M 743.007, 509.35 L 735.414, 513.725 L 703.525, 499.166 L 711.134, 486.789 L 736.619, 467.586 z "/>
<path style="fill:rgb(255, 14, 26);fill-opacity:1.0;fill-rule:evenodd;stroke:rgb(0, 0, 0);stroke-width:3.0;" d="M 140.586, 226.834 L 79.4974, 214.444 L 104.283, 153.024 L 129.427, 138.419 z "/>
<path style="fill:rgb(255, 14, 26);fill-opacity:1.0;fill-rule:evenodd;stroke:rgb(0, 0, 0);stroke-width:3.0;" d="M 669.439, 564.36 L 654.854, 567.311 L 654.03, 562.626 L 666.461, 549.681 z "/>
<path style="fill:rgb(172, 0, 41);fill-opacity:1.0;fill-rule:evenodd;stroke:rgb(0, 0, 0);stroke-width:3.0;" d="M 166.127, 124.585 L 192.148, 171.055 L 160.937, 152.101 L 143.549, 120.074 z "/>
<path style="fill:rgb(172, 0, 41);fill-opacity:1.0;fill-rule:evenodd;stroke:rgb(0, 0, 0);stroke-width:3.0;" d="M 312.241, 127.288 L 315.864, 139.415 L 200.471, 63.6233 L 208.924, 43.6647 z "/>
<path style="fill:rgb(255, 226, 20);fill-opacity:1.0;fill-rule:evenodd;stroke:rgb(0, 0, 0);stroke-width:3.0;" d="M 192.718, 100.263 L 196.304, 124.713 L 174.437, 119.621 L 165.508, 96.6679 z "/>
<path style="fill:rgb(231, 5, 249);fill-opacity:1.0;fill-rule:evenodd;stroke:rgb(0, 0, 0);stroke-width:3.0;" d="M 345.301, 305.458 L 341.175, 310.888 L 338.394, 313.117 L 320.661, 309.636 L 303.824, 279.706 L 308.071, 275.358 z "/>
<path style="fill:rgb(231, 5, 249);fill-opacity:1.0;fill-rule:evenodd;stroke:rgb(0, 0, 0);stroke-width:3.0;" d="M 733.384, 100.316 L 718.199, 103.758 L 710.087, 63.1135 L 727.119, 58.8139 z "/>
<path style="fill:rgb(231, 5, 249);fill-opacity:1.0;fill-rule:evenodd;stroke:rgb(0, 0, 0);stroke-width:3.0;" d="M 105.32, 255.902 L 130.998, 267.105 L 118.525, 268.394 L 98.7356, 265.22 L 95.9101, 254.236 z "/>
<path style="fill:rgb(255, 20, 97);fill-opacity:1.0;fill-rule:evenodd;stroke:rgb(0, 0, 0);stroke-width:3.0;" d="M 674.683, 592.408 L 658.895, 590.281 L 654.854, 567.311 L 690.442, 560.11 z "/>
<path style="fill:rgb(255, 20, 97);fill-opacity:1.0;fill-rule:evenodd;stroke:rgb(0, 0, 0);stroke-width:3.0;" d="M 283.69, 189.467 L 284.091, 190.039 L 284.568, 194.797 L 277.975, 206.212 L 273.247, 189.08 z "/>
<path style="fill:rgb(255, 20, 97);fill-opacity:1.0;fill-rule:evenodd;stroke:rgb(0, 0, 0);stroke-width:3.0;" d="M 32.2234, 237.885 L 50.3257, 248.185 L 36.8426, 250.446 L 26.9776, 236.889 z "/>
<path style="fill:rgb(255, 20, 97);fill-opacity:1.0;fill-rule:evenodd;stroke:rgb(0, 0, 0);stroke-width:3.0;" d="M 305.328, 132.494 L 277.303, 168.708 L 275.139, 169.668 L 257.152, 127.319 L 275.745, 113.064 z "/>
<path style="fill:rgb(255, 20, 97);fill-opacity:1.0;fill-rule:evenodd;stroke:rgb(0, 0, 0);stroke-width:3.0;" d="M 111.055, 220.844 L 103.624, 224.312 L 65.1292, 212.174 L 65.299, 211.564 z "/>
<path style="fill:rgb(255, 20, 97);fill-opacity:1.0;fill-rule:evenodd;stroke:rgb(0, 0, 0);stroke-width:3.0;" d="M 291.274, 257.396 L 300.122, 273.126 L 241.168, 261.111 L 238.035, 255.02 L 240.521, 247.102 z "/>
<path style="fill:rgb(255, 20, 97);fill-opacity:1.0;fill-rule:evenodd;stroke:rgb(0, 0, 0);stroke-width:3.0;" d="M 224.342, 138.416 L 226.008, 141.376 L 206.125, 160.287 L 201.196, 158.069 L 195.691, 120.532 z "/>
<path style="fill:rgb(255, 20, 97);fill-opacity:1.0;fill-rule:evenodd;stroke:rgb(0, 0, 0);stroke-width:3.0;" d="M 341.381, 224.819 L 333.922, 244.364 L 333.112, 244.351 L 317.964, 169.665 L 322.9, 162.966 z "/>
<path style="fill:rgb(255, 228, 11);fill-opacity:1.0;fill-rule:evenodd;stroke:rgb(0, 0, 0);stroke-width:3.0;" d="M 381.209, 358.125 L 383.764, 366.677 L 376.444, 374.054 L 350.581, 337.111 z "/>
<path style="fill:rgb(255, 119, 6);fill-opacity:1.0;fill-rule:evenodd;stroke:rgb(0, 0, 0);stroke-width:3.0;" d="M 252.142, 187.834 L 256.41, 195.421 L 205.812, 189.545 L 204.802, 182.662 L 206.726, 181.228 z "/>
<path style="fill:rgb(255, 119, 6);fill-opacity:1.0;fill-rule:evenodd;stroke:rgb(0, 0, 0);stroke-width:3.0;" d="M 772.814, 482.583 L 782.848, 487.676 L 783.116, 501.915 L 766.351, 484.265 L 767.059, 481.903 z "/>
<path style="fill:rgb(255, 119, 6);fill-opacity:1.0;fill-rule:evenodd;stroke:rgb(0, 0, 0);stroke-width:3.0;" d="M 724.581, 510.429 L 731.35, 516.067 L 713.508, 526.349 L 703.03, 507.941 z "/>
<path style="fill:rgb(140, 249, 255);fill-opacity:1.0;fill-rule:evenodd;stroke:rgb(0, 0, 0);stroke-width:3.0;" d="M 783.396, 41.9264 L 781.83, 45.0026 L 768.283, 48.4224 L 767.187, 47.7523 L 763.989, 35.9716 z "/>
<path style="fill:rgb(140, 249, 255);fill-opacity:1.0;fill-rule:evenodd;stroke:rgb(0, 0, 0);stroke-width:3.0;" d="M 70.2051, 249.684 L 72.8806, 252.477 L 71.5653, 260.863 L 58.5867, 258.781 L 59.1657, 247.729 z "/>
<path style="fill:rgb(140, 249, 255);fill-opacity:1.0;fill-rule:evenodd;stroke:rgb(0, 0, 0);stroke-width:3.0;" d="M 393.059, 397.786 L 396.498, 409.297 L 362.808, 375.859 L 358.905, 349.001 z "/>
<path style="fill:rgb(240, 240, 17);fill-opacity:1.0;fill-rule:evenodd;stroke:rgb(0, 0, 0);stroke-width:3.0;" d="M 714.053, 44.0875 L 712.621, 44.0345 L 662.72, 25.7697 L 654.282, 11.4133 z "/>
<path style="fill:rgb(240, 240, 17);fill-opacity:1.0;fill-rule:evenodd;stroke:rgb(0, 0, 0);stroke-width:3.0;" d="M 163.721, 44.5348 L 162.69, 89.4238 L 146.62, 48.1125 L 151.14, 36.9097 z "/>
<path style="fill:rgb(240, 240, 17);fill-opacity:1.0;fill-rule:evenodd;stroke:rgb(0, 0, 0);stroke-width:3.0;" d="M 695.622, 534.882 L 690.285, 536.618 L 684.753, 527.174 L 699.118, 518.187 z "/>
<path style="fill:rgb(240, 240, 17);fill-opacity:1.0;fill-rule:evenodd;stroke:rgb(0, 0, 0);stroke-width:3.0;" d="M 745.901, 558.551 L 734.893, 563.919 L 733.611, 561.667 L 735.759, 544.409 z "/>
<path style="fill:rgb(240, 240, 17);fill-opacity:1.0;fill-rule:evenodd;stroke:rgb(0, 0, 0);stroke-width:3.0;" d="M 750.211, 556.449 L 745.901, 558.551 L 735.759, 544.409 L 739.899, 511.141 L 743.007, 509.35 z "/>
<path style="fill:rgb(240, 240, 17);fill-opacity:1.0;fill-rule:evenodd;stroke:rgb(0, 0, 0);stroke-width:3.0;" d="M 738.565, 570.371 L 705.683, 585.004 L 706.17, 574.598 L 712.718, 565.389 L 727.783, 551.428 z "/>
<path style="fill:rgb(255, 4, 62);fill-opacity:1.0;fill-rule:evenodd;stroke:rgb(0, 0, 0);stroke-width:3.0;" d="M 746.792, 114.058 L 723.974, 129.983 L 722.388, 127.285 L 727.449, 111.031 L 731.717, 107.554 z "/>
<path style="fill:rgb(240, 31, 19);fill-opacity:1.0;fill-rule:evenodd;stroke:rgb(0, 0, 0);stroke-width:3.0;" d="M 52.7866, 248.038 L 51.2924, 248.735 L 36.579, 240.364 L 29.3481, 232.98 L 32.197, 229.858 z "/>
<path style="fill:rgb(240, 31, 19);fill-opacity:1.0;fill-rule:evenodd;stroke:rgb(0, 0, 0);stroke-width:3.0;" d="M 210.228, 211.629 L 212.51, 241.421 L 209.049, 240.719 L 203.528, 230.549 L 199.51, 213.391 L 206.28, 201.478 z "/>
<path style="fill:rgb(240, 31, 19);fill-opacity:1.0;fill-rule:evenodd;stroke:rgb(0, 0, 0);stroke-width:3.0;" d="M 365.758, 306.412 L 371.899, 326.963 L 321.46, 286.183 L 313.017, 258.825 L 323.705, 246.488 z "/>
<path style="fill:rgb(240, 31, 19);fill-opacity:1.0;fill-rule:evenodd;stroke:rgb(0, 0, 0);stroke-width:3.0;" d="M 350.581, 337.111 L 358.905, 349.001 L 359.633, 354.015 L 341.881, 347.357 L 337.008, 338.695 L 336.553, 327.487 z "/>
<path style="fill:rgb(240, 31, 19);fill-opacity:1.0;fill-rule:evenodd;stroke:rgb(0, 0, 0);stroke-width:3.0;" d="M 742.181, 576.723 L 723.446, 585.285 L 714.067, 583.662 L 717.75, 579.634 L 722.389, 577.57 L 741.564, 575.64 z "/>
<path style="fill:rgb(255, 255, 19);fill-opacity:1.0;fill-rule:evenodd;stroke:rgb(0, 0, 0);stroke-width:3.0;" d="M 709.661, 569.688 L 705.491, 575.552 L 696.132, 558.958 L 702.607, 557.648 z "/>
<path style="fill:rgb(255, 255, 19);fill-opacity:1.0;fill-rule:evenodd;stroke:rgb(0, 0, 0);stroke-width:3.0;" d="M 401.193, 425.01 L 407.387, 445.741 L 403.124, 447.857 L 395.835, 422.613 z "/>
<path style="fill:rgb(255, 35, 150);fill-opacity:1.0;fill-rule:evenodd;stroke:rgb(0, 0, 0);stroke-width:3.0;" d="M 782.633, 465.102 L 783.572, 488.044 L 778.052, 485.242 L 770.445, 470.611 L 772.435, 463.975 z "/>
<path style="fill:rgb(255, 35, 150);fill-opacity:1.0;fill-rule:evenodd;stroke:rgb(0, 0, 0);stroke-width:3.0;" d="M 64.1011, 191.804 L 56.1898, 202.252 L 20.3113, 191.074 z "/>
<path style="fill:rgb(255, 35, 150);fill-opacity:1.0;fill-rule:evenodd;stroke:rgb(0, 0, 0);stroke-width:3.0;" d="M 89.2356, 241.365 L 94.0195, 250.972 L 69.4587, 240.257 L 79.6985, 235.478 z "/>
<path style="fill:rgb(220, 2, 255);fill-opacity:1.0;fill-rule:evenodd;stroke:rgb(0, 0, 0);stroke-width:3.0;" d="M 772.72, 507.836 L 776.603, 509.899 L 774.465, 529.553 L 766.498, 507.696 z "/>
<path style="fill:rgb(220, 2, 255);fill-opacity:1.0;fill-rule:evenodd;stroke:rgb(0, 0, 0);stroke-width:3.0;" d="M 694.363, 15.7879 L 719.357, 23.5366 L 718.868, 24.7722 L 712.406, 29.9332 L 676.013, 12.7544 z "/>
<path style="fill:rgb(243, 38, 33);fill-opacity:1.0;fill-rule:evenodd;stroke:rgb(0, 0, 0);stroke-width:3.0;" d="M 720.213, 40.7043 L 673.76, 18.6119 L 668.502, 10.9418 z "/>
<path style="fill:rgb(243, 38, 33);fill-opacity:1.0;fill-rule:evenodd;stroke:rgb(0, 0, 0);stroke-width:3.0;" d="M 182.916, 151.652 L 192.595, 171.327 L 192.148, 171.055 L 149.055, 94.0949 L 152.014, 90.4061 z "/>
<path style="fill:rgb(8, 134, 255);fill-opacity:1.0;fill-rule:evenodd;stroke:rgb(0, 0, 0);stroke-width:3.0;" d="M 300.414, 88.3144 L 299.108, 102.848 L 283.996, 104.427 L 280.118, 101.289 L 294.148, 83.8486 z "/>
<path style="fill:rgb(168, 0, 23);fill-opacity:1.0;fill-rule:evenodd;stroke:rgb(0, 0, 0);stroke-width:3.0;" d="M 751.168, 562.704 L 754.721, 585.936 L 743.824, 579.61 L 734.893, 563.919 L 745.867, 558.568 z "/>
<path style="fill:rgb(215, 255, 7);fill-opacity:1.0;fill-rule:evenodd;stroke:rgb(0, 0, 0);stroke-width:3.0;" d="M 718.199, 103.758 L 709.693, 105.686 L 687.954, 68.7008 L 710.087, 63.1135 z "/>
<path style="fill:rgb(255, 228, 115);fill-opacity:1.0;fill-rule:evenodd;stroke:rgb(0, 0, 0);stroke-width:3.0;" d="M 701.565, 555.869 L 693.949, 542.87 L 697.439, 526.203 L 702.119, 525.034 z "/>
<path style="fill:rgb(255, 228, 115);fill-opacity:1.0;fill-rule:evenodd;stroke:rgb(0, 0, 0);stroke-width:3.0;" d="M 371.15, 384.138 L 373.627, 391.27 L 366.493, 391.108 L 353.668, 368.31 L 353.352, 366.474 z "/>
<path style="fill:rgb(255, 19, 128);fill-opacity:1.0;fill-rule:evenodd;stroke:rgb(0, 0, 0);stroke-width:3.0;" d="M 39.5764, 254.203 L 37.1371, 255.341 L 8.38499, 250.73 L 7.65562, 210.337 z "/>
<path style="fill:rgb(255, 19, 128);fill-opacity:1.0;fill-rule:evenodd;stroke:rgb(0, 0, 0);stroke-width:3.0;" d="M 189.173, 169.248 L 192.443, 183.212 L 186.538, 199.255 L 174.259, 176.639 L 172.157, 158.915 z "/>
<path style="fill:rgb(255, 234, 42);fill-opacity:1.0;fill-rule:evenodd;stroke:rgb(0, 0, 0);stroke-width:3.0;" d="M 300.122, 273.126 L 315.206, 299.938 L 284.96, 295.087 L 275.667, 268.142 z "/>
<path style="fill:rgb(255, 14, 25);fill-opacity:1.0;fill-rule:evenodd;stroke:rgb(0, 0, 0);stroke-width:3.0;" d="M 204.847, 182.965 L 207.412, 200.455 L 206.589, 202.272 L 196.815, 177.148 L 200.071, 173.263 z "/>
<path style="fill:rgb(255, 14, 25);fill-opacity:1.0;fill-rule:evenodd;stroke:rgb(0, 0, 0);stroke-width:3.0;" d="M 160.576, 114.671 L 163.882, 120.575 L 140.893, 115.181 L 140.17, 113.85 L 142.224, 99.7335 z "/>
<path style="fill:rgb(255, 14, 25);fill-opacity:1.0;fill-rule:evenodd;stroke:rgb(0, 0, 0);stroke-width:3.0;" d="M 204.088, 159.37 L 212.463, 176.95 L 204.802, 182.662 L 201.196, 158.069 z "/>
<path style="fill:rgb(161, 140, 255);fill-opacity:1.0;fill-rule:evenodd;stroke:rgb(0, 0, 0);stroke-width:3.0;" d="M 266.655, 165.194 L 292.899, 260.285 L 176.276, 52.972 L 184.073, 47.5179 z "/>
<path style="fill:rgb(255, 255, 8);fill-opacity:1.0;fill-rule:evenodd;stroke:rgb(0, 0, 0);stroke-width:3.0;" d="M 164.027, 31.1971 L 163.721, 44.5348 L 151.14, 36.9097 L 157.866, 20.2443 z "/>
<path style="fill:rgb(255, 255, 8);fill-opacity:1.0;fill-rule:evenodd;stroke:rgb(0, 0, 0);stroke-width:3.0;" d="M 158.771, 257.608 L 160.321, 258.669 L 140.486, 262.684 L 142.992, 251.173 z "/>
<path style="fill:rgb(255, 255, 8);fill-opacity:1.0;fill-rule:evenodd;stroke:rgb(0, 0, 0);stroke-width:3.0;" d="M 772.544, 426.963 L 742.395, 447.441 L 752.2, 431.512 L 770.148, 411.947 z "/>
<path style="fill:rgb(182, 66, 231);fill-opacity:1.0;fill-rule:evenodd;stroke:rgb(0, 0, 0);stroke-width:3.0;" d="M 230.258, 54.7233 L 225.694, 57.2385 L 199.956, 36.4065 L 205.726, 32.3702 z "/>
<path style="fill:rgb(50, 226, 223);fill-opacity:1.0;fill-rule:evenodd;stroke:rgb(0, 0, 0);stroke-width:3.0;" d="M 309.248, 135.069 L 288.178, 163.884 L 277.303, 168.708 L 305.328, 132.494 z "/>
<path style="fill:rgb(255, 6, 255);fill-opacity:1.0;fill-rule:evenodd;stroke:rgb(0, 0, 0);stroke-width:3.0;" d="M 751.91, 31.8008 L 755.773, 40.7761 L 724.218, 21.4897 L 724.633, 21.1499 z "/>
<path style="fill:rgb(246, 237, 9);fill-opacity:1.0;fill-rule:evenodd;stroke:rgb(0, 0, 0);stroke-width:3.0;" d="M 395.835, 422.613 L 399.429, 435.059 L 393.604, 439.302 L 387.637, 428.696 L 394.095, 421.834 z "/>
<path style="fill:rgb(67, 61, 243);fill-opacity:1.0;fill-rule:evenodd;stroke:rgb(0, 0, 0);stroke-width:3.0;" d="M 196.304, 124.713 L 202.189, 164.843 L 194.117, 170.213 L 174.437, 119.621 z "/>
<path style="fill:rgb(255, 34, 22);fill-opacity:1.0;fill-rule:evenodd;stroke:rgb(0, 0, 0);stroke-width:3.0;" d="M 180.484, 278.332 L 159.466, 274.961 L 162.752, 258.177 L 164.624, 257.798 z "/>
<path style="fill:rgb(255, 5, 46);fill-opacity:1.0;fill-rule:evenodd;stroke:rgb(0, 0, 0);stroke-width:3.0;" d="M 234.661, 43.9614 L 224.347, 49.3367 L 205.726, 32.3702 L 208.628, 30.3402 z "/>
<path style="fill:rgb(255, 5, 46);fill-opacity:1.0;fill-rule:evenodd;stroke:rgb(0, 0, 0);stroke-width:3.0;" d="M 80.3584, 179.468 L 86.2194, 192.173 L 73.4892, 191.961 L 60.4887, 185.205 L 54.105, 173.878 z "/>
<path style="fill:rgb(255, 240, 21);fill-opacity:1.0;fill-rule:evenodd;stroke:rgb(0, 0, 0);stroke-width:3.0;" d="M 137.597, 109.111 L 118.227, 118.47 L 128.652, 92.6355 z "/>
<path style="fill:rgb(255, 240, 21);fill-opacity:1.0;fill-rule:evenodd;stroke:rgb(0, 0, 0);stroke-width:3.0;" d="M 161.32, 265.493 L 159.466, 274.961 L 147.806, 273.091 L 143.41, 269.037 L 140.485, 262.689 L 140.486, 262.684 L 147.789, 261.206 z "/>
<path style="fill:rgb(72, 228, 39);fill-opacity:1.0;fill-rule:evenodd;stroke:rgb(0, 0, 0);stroke-width:3.0;" d="M 241.561, 90.6114 L 275.139, 169.668 L 271.064, 171.476 L 198.553, 68.1521 L 200.471, 63.6233 z "/>
<path style="fill:rgb(212, 19, 18);fill-opacity:1.0;fill-rule:evenodd;stroke:rgb(0, 0, 0);stroke-width:3.0;" d="M 768.612, 486.646 L 772.048, 498.848 L 767.522, 505.075 L 762.678, 502.501 L 764.859, 489.241 L 766.351, 484.265 z "/>
<path style="fill:rgb(212, 19, 18);fill-opacity:1.0;fill-rule:evenodd;stroke:rgb(0, 0, 0);stroke-width:3.0;" d="M 742.851, 65.3893 L 741.397, 98.4991 L 733.384, 100.316 L 727.119, 58.8139 L 736.439, 56.4611 z "/>
<path style="fill:rgb(212, 19, 18);fill-opacity:1.0;fill-rule:evenodd;stroke:rgb(0, 0, 0);stroke-width:3.0;" d="M 236.103, 159.323 L 224.016, 168.336 L 206.125, 160.287 L 226.008, 141.376 z "/>
<path style="fill:rgb(212, 19, 18);fill-opacity:1.0;fill-rule:evenodd;stroke:rgb(0, 0, 0);stroke-width:3.0;" d="M 758.636, 127.361 L 752.562, 130.7 L 729.284, 139.017 L 723.974, 129.983 L 753.573, 109.326 z "/>
<path style="fill:rgb(78, 197, 226);fill-opacity:1.0;fill-rule:evenodd;stroke:rgb(0, 0, 0);stroke-width:3.0;" d="M 98.6309, 235.69 L 88.8964, 241.155 L 79.6985, 235.478 L 96.9973, 227.405 L 102.766, 227.378 z "/>
<path style="fill:rgb(246, 72, 14);fill-opacity:1.0;fill-rule:evenodd;stroke:rgb(0, 0, 0);stroke-width:3.0;" d="M 684.725, 33.8239 L 703.272, 43.6886 L 672.585, 42.5529 L 662.72, 25.7697 z "/>
<path style="fill:rgb(246, 72, 14);fill-opacity:1.0;fill-rule:evenodd;stroke:rgb(0, 0, 0);stroke-width:3.0;" d="M 697.602, 66.2652 L 687.954, 68.7008 L 681.235, 57.2703 L 685.046, 51.9921 L 690.087, 50.8804 z "/>
<path style="fill:rgb(243, 246, 10);fill-opacity:1.0;fill-rule:evenodd;stroke:rgb(0, 0, 0);stroke-width:3.0;" d="M 746.288, 70.1749 L 736.439, 56.4611 L 749.626, 53.1321 z "/>
<path style="fill:rgb(112, 146, 246);fill-opacity:1.0;fill-rule:evenodd;stroke:rgb(0, 0, 0);stroke-width:3.0;" d="M 273.712, 79.7945 L 278.257, 86.1617 L 269.863, 88.9547 L 262.641, 80.9363 L 263.237, 76.3083 z "/>
<path style="fill:rgb(112, 146, 246);fill-opacity:1.0;fill-rule:evenodd;stroke:rgb(0, 0, 0);stroke-width:3.0;" d="M 697.973, 43.4925 L 709.429, 63.2796 L 697.602, 66.2652 L 686.266, 43.0592 z "/>
<path style="fill:rgb(220, 1, 21);fill-opacity:1.0;fill-rule:evenodd;stroke:rgb(0, 0, 0);stroke-width:3.0;" d="M 725.774, 44.5213 L 738.18, 46.2521 L 747.283, 53.7237 L 709.429, 63.2796 L 697.973, 43.4925 z "/>
<path style="fill:rgb(132, 243, 146);fill-opacity:1.0;fill-rule:evenodd;stroke:rgb(0, 0, 0);stroke-width:3.0;" d="M 323.705, 246.488 L 302.556, 270.899 L 295.795, 265.433 L 292.899, 260.285 L 277.975, 206.212 L 285.86, 192.56 z "/>
<path style="fill:rgb(246, 3, 89);fill-opacity:1.0;fill-rule:evenodd;stroke:rgb(0, 0, 0);stroke-width:3.0;" d="M 774.608, 456.73 L 761.961, 467.503 L 751.695, 469.096 L 737.873, 450.598 L 776.705, 449.735 z "/>
<path style="fill:rgb(246, 3, 89);fill-opacity:1.0;fill-rule:evenodd;stroke:rgb(0, 0, 0);stroke-width:3.0;" d="M 185.535, 69.4302 L 188.245, 81.4934 L 187.083, 82.1073 L 176.165, 66.4305 L 179.086, 57.967 z "/>
<path style="fill:rgb(246, 3, 89);fill-opacity:1.0;fill-rule:evenodd;stroke:rgb(0, 0, 0);stroke-width:3.0;" d="M 192.488, 16.0799 L 198.687, 23.4914 L 198.539, 37.3983 L 196.276, 38.9812 L 183.732, 13.4966 z "/>
<path style="fill:rgb(187, 18, 40);fill-opacity:1.0;fill-rule:evenodd;stroke:rgb(0, 0, 0);stroke-width:3.0;" d="M 206.623, 41.8022 L 205.636, 43.7315 L 184.418, 48.0095 L 184.073, 47.5179 L 199.956, 36.4065 z "/>
<path style="fill:rgb(187, 18, 40);fill-opacity:1.0;fill-rule:evenodd;stroke:rgb(0, 0, 0);stroke-width:3.0;" d="M 172.721, 233.351 L 176.427, 273.078 L 158.309, 249.623 L 150.341, 228.812 z "/>
<path style="fill:rgb(187, 18, 40);fill-opacity:1.0;fill-rule:evenodd;stroke:rgb(0, 0, 0);stroke-width:3.0;" d="M 315.206, 299.938 L 390.135, 433.136 L 250.628, 464.751 L 74.525, 292.42 L 259.918, 291.071 z "/>
<path style="fill:rgb(11, 255, 189);fill-opacity:1.0;fill-rule:evenodd;stroke:rgb(0, 0, 0);stroke-width:3.0;" d="M 259.918, 291.071 L 74.525, 292.42 L 36.5367, 255.245 z "/>
<path style="fill:rgb(255, 67, 126);fill-opacity:1.0;fill-rule:evenodd;stroke:rgb(0, 0, 0);stroke-width:3.0;" d="M 284.637, 34.8996 L 293.536, 64.682 L 274.222, 61.0066 L 268.225, 57.9974 L 277.455, 33.9066 z "/>
<path style="fill:rgb(255, 14, 11);fill-opacity:1.0;fill-rule:evenodd;stroke:rgb(0, 0, 0);stroke-width:3.0;" d="M 277.455, 33.9066 L 268.225, 57.9974 L 210.499, 29.0309 L 215.729, 25.3727 z "/>
<path style="fill:rgb(249, 249, 28);fill-opacity:1.0;fill-rule:evenodd;stroke:rgb(0, 0, 0);stroke-width:3.0;" d="M 713.15, 564.782 L 712.208, 566.106 L 701.613, 553.155 L 701.642, 551.544 L 702.854, 546.341 L 708.834, 543.873 z "/>
<path style="fill:rgb(249, 249, 28);fill-opacity:1.0;fill-rule:evenodd;stroke:rgb(0, 0, 0);stroke-width:3.0;" d="M 765.067, 503.77 L 774.465, 529.553 L 772.801, 544.859 L 748.73, 546.768 L 748.351, 544.29 L 761.129, 501.678 z "/>
<path style="fill:rgb(255, 177, 24);fill-opacity:1.0;fill-rule:evenodd;stroke:rgb(0, 0, 0);stroke-width:3.0;" d="M 291.274, 257.396 L 273.468, 253.785 L 255.677, 209.611 L 263.988, 208.893 z "/>
<path style="fill:rgb(7, 45, 234);fill-opacity:1.0;fill-rule:evenodd;stroke:rgb(0, 0, 0);stroke-width:3.0;" d="M 147.736, 127.785 L 114.905, 146.854 L 138.885, 111.483 z "/>
<path style="fill:rgb(255, 220, 47);fill-opacity:1.0;fill-rule:evenodd;stroke:rgb(0, 0, 0);stroke-width:3.0;" d="M 175.983, 21.8788 L 173.49, 29.8224 L 168.968, 36.2833 L 157.54, 19.6659 L 153.14, 11.8438 L 153.918, 9.79091 z "/>
<path style="fill:rgb(252, 255, 110);fill-opacity:1.0;fill-rule:evenodd;stroke:rgb(0, 0, 0);stroke-width:3.0;" d="M 716.088, 530.883 L 720.695, 538.977 L 701.728, 546.806 L 702.113, 525.37 z "/>
<path style="fill:rgb(240, 21, 76);fill-opacity:1.0;fill-rule:evenodd;stroke:rgb(0, 0, 0);stroke-width:3.0;" d="M 643.422, 578.559 L 642.555, 585.939 L 638.161, 588.425 L 635.856, 582.234 L 637.136, 569.435 L 638.778, 567.432 z "/>
<path style="fill:rgb(24, 59, 246);fill-opacity:1.0;fill-rule:evenodd;stroke:rgb(0, 0, 0);stroke-width:3.0;" d="M 787.182, 118.557 L 771.887, 141.299 L 735.576, 149.724 L 733.348, 145.932 L 776.204, 122.252 L 787.262, 118.301 z "/>
<path style="fill:rgb(255, 110, 15);fill-opacity:1.0;fill-rule:evenodd;stroke:rgb(0, 0, 0);stroke-width:3.0;" d="M 189.002, 84.8636 L 192.454, 100.228 L 165.508, 96.6679 L 162.69, 89.4238 L 163.631, 48.432 z "/>
<path style="fill:rgb(255, 1, 228);fill-opacity:1.0;fill-rule:evenodd;stroke:rgb(0, 0, 0);stroke-width:3.0;" d="M 209.049, 240.719 L 140.586, 226.834 L 129.427, 138.419 L 147.736, 127.785 z "/>
<path style="fill:rgb(255, 1, 228);fill-opacity:1.0;fill-rule:evenodd;stroke:rgb(0, 0, 0);stroke-width:3.0;" d="M 238.195, 163.041 L 252.142, 187.834 L 206.726, 181.228 L 231.661, 162.635 z "/>
<path style="fill:rgb(184, 255, 226);fill-opacity:1.0;fill-rule:evenodd;stroke:rgb(0, 0, 0);stroke-width:3.0;" d="M 185.839, 148.932 L 183.593, 153.028 L 161.406, 107.929 L 165.974, 97.8652 z "/>
<path style="fill:rgb(255, 2, 142);fill-opacity:1.0;fill-rule:evenodd;stroke:rgb(0, 0, 0);stroke-width:3.0;" d="M 91.5018, 249.874 L 89.2351, 253.054 L 70.9036, 249.807 L 70.7212, 240.808 z "/>
<path style="fill:rgb(255, 2, 142);fill-opacity:1.0;fill-rule:evenodd;stroke:rgb(0, 0, 0);stroke-width:3.0;" d="M 138.885, 111.483 L 126.519, 129.724 L 110.04, 138.757 L 118.227, 118.47 L 137.597, 109.111 z "/>
<path style="fill:rgb(255, 2, 142);fill-opacity:1.0;fill-rule:evenodd;stroke:rgb(0, 0, 0);stroke-width:3.0;" d="M 20.3113, 191.074 L 56.1898, 202.252 L 51.2903, 208.723 L 7.07153, 199.754 L 11.4378, 190.926 z "/>
<path style="fill:rgb(252, 16, 78);fill-opacity:1.0;fill-rule:evenodd;stroke:rgb(0, 0, 0);stroke-width:3.0;" d="M 320.038, 153.384 L 287.647, 195.107 L 277.217, 180.244 L 309.815, 157.313 L 319.736, 152.376 z "/>
<path style="fill:rgb(255, 98, 52);fill-opacity:1.0;fill-rule:evenodd;stroke:rgb(0, 0, 0);stroke-width:3.0;" d="M 107.837, 325.018 L 19.6029, 359.691 L 50.347, 268.759 z "/>
<path style="fill:rgb(199, 0, 14);fill-opacity:1.0;fill-rule:evenodd;stroke:rgb(0, 0, 0);stroke-width:3.0;" d="M 269.393, 252.958 L 222.615, 243.471 L 210.948, 213.479 L 251.727, 209.953 z "/>
<path style="fill:rgb(255, 5, 33);fill-opacity:1.0;fill-rule:evenodd;stroke:rgb(0, 0, 0);stroke-width:3.0;" d="M 273.883, 267.778 L 276.658, 291.58 L 258.491, 277.646 L 246.164, 262.13 z "/>
<path style="fill:rgb(255, 5, 33);fill-opacity:1.0;fill-rule:evenodd;stroke:rgb(0, 0, 0);stroke-width:3.0;" d="M 273.468, 253.785 L 269.393, 252.958 L 251.727, 209.953 L 255.677, 209.611 z "/>
<path style="fill:rgb(13, 231, 98);fill-opacity:1.0;fill-rule:evenodd;stroke:rgb(0, 0, 0);stroke-width:3.0;" d="M 206.86, 48.5385 L 198.553, 68.1521 L 194.479, 62.3465 L 192.642, 58.5123 L 193.07, 47.7722 z "/>
<path style="fill:rgb(13, 231, 98);fill-opacity:1.0;fill-rule:evenodd;stroke:rgb(0, 0, 0);stroke-width:3.0;" d="M 141.117, 259.787 L 138.785, 270.502 L 130.786, 267.012 L 88.8964, 241.155 L 106.243, 231.416 z "/>
<path style="fill:rgb(204, 255, 42);fill-opacity:1.0;fill-rule:evenodd;stroke:rgb(0, 0, 0);stroke-width:3.0;" d="M 233.198, 245.617 L 256.277, 290.487 L 180.484, 278.332 L 176.427, 273.078 L 172.721, 233.351 z "/>
<path style="fill:rgb(204, 255, 42);fill-opacity:1.0;fill-rule:evenodd;stroke:rgb(0, 0, 0);stroke-width:3.0;" d="M 707.461, 101.888 L 461.912, 122.159 L 674.104, 45.1373 z "/>
<path style="fill:rgb(204, 255, 42);fill-opacity:1.0;fill-rule:evenodd;stroke:rgb(0, 0, 0);stroke-width:3.0;" d="M 315.194, 138.975 L 311.651, 153.471 L 302.523, 157.52 L 299.089, 148.963 L 309.248, 135.069 z "/>
<path style="fill:rgb(249, 255, 55);fill-opacity:1.0;fill-rule:evenodd;stroke:rgb(0, 0, 0);stroke-width:3.0;" d="M 360.025, 317.363 L 364.355, 320.863 L 332.864, 324.956 L 327.699, 321.412 L 328.475, 318.767 L 338.376, 315.509 L 345.985, 314.607 z "/>
<path style="fill:rgb(249, 255, 55);fill-opacity:1.0;fill-rule:evenodd;stroke:rgb(0, 0, 0);stroke-width:3.0;" d="M 781.889, 532.065 L 775.756, 544.624 L 772.801, 544.859 L 775.47, 520.316 L 781.469, 517.013 z "/>
<path style="fill:rgb(249, 255, 55);fill-opacity:1.0;fill-rule:evenodd;stroke:rgb(0, 0, 0);stroke-width:3.0;" d="M 256.476, 275.109 L 270.506, 292.769 L 256.277, 290.487 L 246.751, 271.966 z "/>
<path style="fill:rgb(249, 255, 55);fill-opacity:1.0;fill-rule:evenodd;stroke:rgb(0, 0, 0);stroke-width:3.0;" d="M 254.504, 58.1584 L 256.531, 68.0976 L 250.419, 69.7492 L 227.558, 57.7622 z "/>
<path style="fill:rgb(128, 246, 255);fill-opacity:1.0;fill-rule:evenodd;stroke:rgb(0, 0, 0);stroke-width:3.0;" d="M 253.633, 53.8876 L 254.504, 58.1584 L 227.558, 57.7622 L 226.116, 57.0061 L 242.421, 48.0213 z "/>
<path style="fill:rgb(30, 65, 240);fill-opacity:1.0;fill-rule:evenodd;stroke:rgb(0, 0, 0);stroke-width:3.0;" d="M 657.327, 581.369 L 644.887, 573.696 L 649.349, 554.541 L 652.033, 551.268 z "/>
<path style="fill:rgb(18, 255, 231);fill-opacity:1.0;fill-rule:evenodd;stroke:rgb(0, 0, 0);stroke-width:3.0;" d="M 289.17, 68.5073 L 286.371, 70.6464 L 278.681, 68.83 L 265.227, 60.8556 L 265.754, 56.7575 z "/>
<path style="fill:rgb(255, 110, 44);fill-opacity:1.0;fill-rule:evenodd;stroke:rgb(0, 0, 0);stroke-width:3.0;" d="M 775.199, 143.477 L 743.587, 153.794 L 752.677, 145.756 L 779.932, 139.433 z "/>
<path style="fill:rgb(228, 130, 105);fill-opacity:1.0;fill-rule:evenodd;stroke:rgb(0, 0, 0);stroke-width:3.0;" d="M 196.175, 199.151 L 199.991, 215.447 L 191.281, 207.992 L 186.538, 199.255 L 188.595, 193.665 z "/>
<path style="fill:rgb(228, 130, 105);fill-opacity:1.0;fill-rule:evenodd;stroke:rgb(0, 0, 0);stroke-width:3.0;" d="M 752.401, 78.6857 L 750.716, 96.3868 L 741.397, 98.4991 L 742.851, 65.3893 z "/>
<path style="fill:rgb(255, 202, 26);fill-opacity:1.0;fill-rule:evenodd;stroke:rgb(0, 0, 0);stroke-width:3.0;" d="M 319.736, 152.376 L 273.727, 175.272 L 271.912, 172.685 L 277.995, 168.401 L 319.079, 150.176 z "/>
<path style="fill:rgb(132, 130, 255);fill-opacity:1.0;fill-rule:evenodd;stroke:rgb(0, 0, 0);stroke-width:3.0;" d="M 158.625, 250.032 L 158.09, 255.228 L 144.357, 244.9 L 146.622, 234.494 z "/>
<path style="fill:rgb(249, 255, 12);fill-opacity:1.0;fill-rule:evenodd;stroke:rgb(0, 0, 0);stroke-width:3.0;" d="M 160.576, 114.671 L 138.743, 96.9002 L 150.486, 96.6508 z "/>
<path style="fill:rgb(246, 246, 27);fill-opacity:1.0;fill-rule:evenodd;stroke:rgb(0, 0, 0);stroke-width:3.0;" d="M 701.739, 505.674 L 699.118, 518.187 L 684.753, 527.174 L 682.754, 523.764 L 700.506, 503.507 z "/>
<path style="fill:rgb(10, 8, 255);fill-opacity:1.0;fill-rule:evenodd;stroke:rgb(0, 0, 0);stroke-width:3.0;" d="M 50.347, 268.759 L 25.7851, 341.406 L 20.3157, 314.441 L 39.0311, 257.686 z "/>
<path style="fill:rgb(24, 255, 6);fill-opacity:1.0;fill-rule:evenodd;stroke:rgb(0, 0, 0);stroke-width:3.0;" d="M 179.086, 57.967 L 176.165, 66.4305 L 163.631, 48.432 L 164.027, 31.1971 z "/>
<path style="fill:rgb(94, 48, 255);fill-opacity:1.0;fill-rule:evenodd;stroke:rgb(0, 0, 0);stroke-width:3.0;" d="M 224.342, 138.416 L 195.691, 120.532 L 189.135, 75.8304 z "/>
<path style="fill:rgb(215, 170, 27);fill-opacity:1.0;fill-rule:evenodd;stroke:rgb(0, 0, 0);stroke-width:3.0;" d="M 377.995, 347.367 L 381.209, 358.125 L 362.526, 345.307 L 368.049, 340.589 z "/>
<path style="fill:rgb(97, 0, 237);fill-opacity:1.0;fill-rule:evenodd;stroke:rgb(0, 0, 0);stroke-width:3.0;" d="M 275.845, 72.4169 L 294.604, 75.0006 L 273.974, 78.7126 L 265.246, 75.2324 L 263.504, 74.2384 L 263.84, 71.6259 z "/>
<path style="fill:rgb(255, 22, 110);fill-opacity:1.0;fill-rule:evenodd;stroke:rgb(0, 0, 0);stroke-width:3.0;" d="M 70.6976, 191.914 L 32.7098, 191.281 L 42.7032, 180.011 z "/>
<path style="fill:rgb(209, 8, 159);fill-opacity:1.0;fill-rule:evenodd;stroke:rgb(0, 0, 0);stroke-width:3.0;" d="M 275.745, 113.064 L 257.152, 127.319 L 241.561, 90.6114 z "/>
<path style="fill:rgb(255, 246, 55);fill-opacity:1.0;fill-rule:evenodd;stroke:rgb(0, 0, 0);stroke-width:3.0;" d="M 330.502, 188.408 L 325.502, 171.673 L 440.001, 130.112 z "/>
<path style="fill:rgb(240, 142, 6);fill-opacity:1.0;fill-rule:evenodd;stroke:rgb(0, 0, 0);stroke-width:3.0;" d="M 778.65, 443.249 L 776.705, 449.735 L 737.873, 450.598 L 737.83, 450.541 L 775.472, 424.974 z "/>
<path style="fill:rgb(114, 255, 255);fill-opacity:1.0;fill-rule:evenodd;stroke:rgb(0, 0, 0);stroke-width:3.0;" d="M 114.905, 146.854 L 104.283, 153.024 L 110.04, 138.757 L 126.519, 129.724 z "/>
<path style="fill:rgb(255, 255, 8);fill-opacity:1.0;fill-rule:evenodd;stroke:rgb(0, 0, 0);stroke-width:3.0;" d="M 103.624, 224.312 L 55.497, 246.773 L 62.542, 221.467 L 85.8573, 218.71 z "/>
<path style="fill:rgb(45, 11, 255);fill-opacity:1.0;fill-rule:evenodd;stroke:rgb(0, 0, 0);stroke-width:3.0;" d="M 85.8573, 218.71 L 62.542, 221.467 L 65.1292, 212.174 z "/>
<path style="fill:rgb(255, 255, 75);fill-opacity:1.0;fill-rule:evenodd;stroke:rgb(0, 0, 0);stroke-width:3.0;" d="M 772.4, 212.374 L 334.932, 203.235 L 330.502, 188.408 L 440.001, 130.112 L 461.912, 122.159 L 707.461, 101.888 z "/>
<path style="fill:rgb(255, 252, 43);fill-opacity:1.0;fill-rule:evenodd;stroke:rgb(0, 0, 0);stroke-width:3.0;" d="M 305.947, 185.973 L 293.291, 203.149 L 287.647, 195.107 L 304.932, 172.842 z "/>
<path style="fill:rgb(24, 231, 255);fill-opacity:1.0;fill-rule:evenodd;stroke:rgb(0, 0, 0);stroke-width:3.0;" d="M 705.491, 575.552 L 700.594, 582.44 L 694.748, 574.616 L 698.137, 562.514 z "/>
<path style="fill:rgb(252, 150, 24);fill-opacity:1.0;fill-rule:evenodd;stroke:rgb(0, 0, 0);stroke-width:3.0;" d="M 700.594, 582.44 L 697.118, 587.327 L 680.935, 579.596 L 687.861, 565.399 z "/>
</svg>