<?xml version="1.0" encoding="iso-8859-1" standalone="no"?>
<!DOCTYPE svg PUBLIC "-//W3C//DTD SVG 1.0//EN" "http://www.w3.org/TR/2001/REC-SVG-20010904/DTD/svg10.dtd">
<svg xmlns="http://www.w3.org/2000/svg" width="800" height="600">
<path style="fill:rgb(0, 0, 0);fill-opacity:0.0;fill-rule:evenodd;stroke:rgb(0, 0, 0);stroke-width:0.0;" d="M 0, 600 L 800, 600 L 800, 0 L 0, 0 z "/>
<path style="fill:rgb(255, 246, 19);fill-opacity:1.0;fill-rule:evenodd;stroke:rgb(0, 0, 0);stroke-width:3.0;" d="M 748.574, 223.972 L 687.802, 237.74 L 674.83, 167.697 L 694.524, 155.331 L 737.668, 145.804 z "/>
<path style="fill:rgb(255, 246, 19);fill-opacity:1.0;fill-rule:evenodd;stroke:rgb(0, 0, 0);stroke-width:3.0;" d="M 150.188, 17.6371 L 134.342, 31.5007 L 125.944, 16.8881 L 144.833, 11.8261 z "/>
<path style="fill:rgb(255, 246, 19);fill-opacity:1.0;fill-rule:evenodd;stroke:rgb(0, 0, 0);stroke-width:3.0;" d="M 121.035, 113.902 L 120.061, 114.673 L 86.9675, 109.225 L 98.5108, 60.6808 z "/>
<path style="fill:rgb(89, 255, 43);fill-opacity:1.0;fill-rule:evenodd;stroke:rgb(0, 0, 0);stroke-width:3.0;" d="M 171.642, 203.258 L 126.966, 245.283 L 125.133, 230.349 L 147.019, 184.638 z "/>
<path style="fill:rgb(89, 255, 43);fill-opacity:1.0;fill-rule:evenodd;stroke:rgb(0, 0, 0);stroke-width:3.0;" d="M 347.317, 71.4948 L 258.067, 204.28 L 249.645, 129.886 L 351.859, 33.7397 z "/>
<path style="fill:rgb(146, 67, 240);fill-opacity:1.0;fill-rule:evenodd;stroke:rgb(0, 0, 0);stroke-width:3.0;" d="M 753.915, 426.441 L 744.74, 424.138 L 729.537, 397.377 L 732.484, 393.714 z "/>
<path style="fill:rgb(146, 67, 240);fill-opacity:1.0;fill-rule:evenodd;stroke:rgb(0, 0, 0);stroke-width:3.0;" d="M 656.803, 218.497 L 588.314, 74.745 L 633.949, 66.5958 z "/>
<path style="fill:rgb(220, 33, 9);fill-opacity:1.0;fill-rule:evenodd;stroke:rgb(0, 0, 0);stroke-width:3.0;" d="M 29.3568, 394.35 L 28.0876, 408.18 L 24.404, 412.215 L 19.8568, 399.885 L 23.8442, 392.779 z "/>
<path style="fill:rgb(255, 102, 55);fill-opacity:1.0;fill-rule:evenodd;stroke:rgb(0, 0, 0);stroke-width:3.0;" d="M 463.859, 18.6678 L 462.653, 19.8522 L 446.116, 26.9373 L 440.568, 27.2965 L 433.862, 12.2005 z "/>
<path style="fill:rgb(255, 102, 55);fill-opacity:1.0;fill-rule:evenodd;stroke:rgb(0, 0, 0);stroke-width:3.0;" d="M 580.213, 57.7417 L 587.211, 72.4313 L 584.917, 79.836 L 570.581, 54.6545 z "/>
<path style="fill:rgb(255, 102, 55);fill-opacity:1.0;fill-rule:evenodd;stroke:rgb(0, 0, 0);stroke-width:3.0;" d="M 724.78, 429.427 L 761.232, 437.614 L 777.418, 462.332 L 718.97, 428.749 z "/>
<path style="fill:rgb(204, 172, 217);fill-opacity:1.0;fill-rule:evenodd;stroke:rgb(0, 0, 0);stroke-width:3.0;" d="M 661.402, 249.067 L 668.453, 295.934 L 637.989, 249.414 L 638.648, 243.405 z "/>
<path style="fill:rgb(204, 172, 217);fill-opacity:1.0;fill-rule:evenodd;stroke:rgb(0, 0, 0);stroke-width:3.0;" d="M 118.089, 250.143 L 114.798, 256.728 L 107.861, 263.254 L 104.48, 263.515 L 112.311, 245.834 z "/>
<path style="fill:rgb(204, 172, 217);fill-opacity:1.0;fill-rule:evenodd;stroke:rgb(0, 0, 0);stroke-width:3.0;" d="M 126.966, 245.283 L 122.671, 249.322 L 87.7328, 216.887 L 123.417, 216.36 z "/>
<path style="fill:rgb(204, 172, 217);fill-opacity:1.0;fill-rule:evenodd;stroke:rgb(0, 0, 0);stroke-width:3.0;" d="M 171.642, 203.258 L 165.688, 198.755 L 223.874, 152.739 L 226.498, 151.659 z "/>
<path style="fill:rgb(204, 172, 217);fill-opacity:1.0;fill-rule:evenodd;stroke:rgb(0, 0, 0);stroke-width:3.0;" d="M 109.873, 426.037 L 111.659, 435.104 L 105.812, 447.523 L 90.5445, 419.258 z "/>
<path style="fill:rgb(204, 172, 217);fill-opacity:1.0;fill-rule:evenodd;stroke:rgb(0, 0, 0);stroke-width:3.0;" d="M 725.133, 148.572 L 729.737, 141.068 L 766.39, 139.462 z "/>
<path style="fill:rgb(204, 172, 217);fill-opacity:1.0;fill-rule:evenodd;stroke:rgb(0, 0, 0);stroke-width:3.0;" d="M 338.097, 533.606 L 325.885, 521.08 L 335.905, 510.996 z "/>
<path style="fill:rgb(255, 15, 6);fill-opacity:1.0;fill-rule:evenodd;stroke:rgb(0, 0, 0);stroke-width:3.0;" d="M 695.704, 280.406 L 687.802, 237.74 L 767.317, 219.726 z "/>
<path style="fill:rgb(252, 55, 255);fill-opacity:1.0;fill-rule:evenodd;stroke:rgb(0, 0, 0);stroke-width:3.0;" d="M 219.665, 55.3547 L 226.065, 69.0732 L 212.75, 70.0405 L 207.757, 56.8008 L 211.436, 54.6478 z "/>
<path style="fill:rgb(252, 55, 255);fill-opacity:1.0;fill-rule:evenodd;stroke:rgb(0, 0, 0);stroke-width:3.0;" d="M 381.119, 481.008 L 379.843, 498.33 L 197.968, 523.997 L 170.959, 516.925 L 190.357, 480.167 z "/>
<path style="fill:rgb(249, 255, 28);fill-opacity:1.0;fill-rule:evenodd;stroke:rgb(0, 0, 0);stroke-width:3.0;" d="M 26.8241, 372.228 L 23.3586, 384.435 L 18.4207, 384.849 L 20.1602, 369.889 L 25.0286, 364.389 z "/>
<path style="fill:rgb(249, 255, 28);fill-opacity:1.0;fill-rule:evenodd;stroke:rgb(0, 0, 0);stroke-width:3.0;" d="M 204.777, 207.035 L 199.8, 277.971 L 183.373, 294.102 L 168.92, 264.986 L 167.158, 207.477 L 197.25, 179.171 z "/>
<path style="fill:rgb(249, 255, 28);fill-opacity:1.0;fill-rule:evenodd;stroke:rgb(0, 0, 0);stroke-width:3.0;" d="M 419.118, 127.77 L 410.424, 131.611 L 407.108, 128.251 L 408.345, 111.467 z "/>
<path style="fill:rgb(249, 255, 28);fill-opacity:1.0;fill-rule:evenodd;stroke:rgb(0, 0, 0);stroke-width:3.0;" d="M 138.091, 157.775 L 132.814, 159.499 L 115.451, 145.007 L 123.288, 139.583 z "/>
<path style="fill:rgb(249, 255, 28);fill-opacity:1.0;fill-rule:evenodd;stroke:rgb(0, 0, 0);stroke-width:3.0;" d="M 96.9977, 431.205 L 127.413, 487.514 L 123.182, 504.413 L 77.0702, 492.337 L 95.6797, 430.036 z "/>
<path style="fill:rgb(249, 255, 28);fill-opacity:1.0;fill-rule:evenodd;stroke:rgb(0, 0, 0);stroke-width:3.0;" d="M 510.141, 54.1792 L 527.091, 80.0634 L 522.784, 81.9662 L 519.235, 77.9394 L 507.745, 54.1202 z "/>
<path style="fill:rgb(249, 255, 28);fill-opacity:1.0;fill-rule:evenodd;stroke:rgb(0, 0, 0);stroke-width:3.0;" d="M 267.416, 528.518 L 247.854, 532.314 L 238.813, 530.772 L 245.18, 523.949 z "/>
<path style="fill:rgb(249, 255, 28);fill-opacity:1.0;fill-rule:evenodd;stroke:rgb(0, 0, 0);stroke-width:3.0;" d="M 181.359, 75.3202 L 181.725, 86.4322 L 156.746, 100.862 L 152.457, 89.0465 L 177.584, 69.1705 z "/>
<path style="fill:rgb(249, 255, 28);fill-opacity:1.0;fill-rule:evenodd;stroke:rgb(0, 0, 0);stroke-width:3.0;" d="M 39.5454, 308.653 L 45.6349, 283.044 L 56.0953, 278.851 z "/>
<path style="fill:rgb(255, 199, 54);fill-opacity:1.0;fill-rule:evenodd;stroke:rgb(0, 0, 0);stroke-width:3.0;" d="M 571.58, 84.6878 L 526.959, 69.682 L 554.338, 41.445 z "/>
<path style="fill:rgb(255, 199, 54);fill-opacity:1.0;fill-rule:evenodd;stroke:rgb(0, 0, 0);stroke-width:3.0;" d="M 105.903, 260.303 L 104.48, 263.515 L 79.7646, 265.422 L 79.7411, 264.497 L 81.4241, 262.621 L 100.292, 248.798 z "/>
<path style="fill:rgb(255, 199, 54);fill-opacity:1.0;fill-rule:evenodd;stroke:rgb(0, 0, 0);stroke-width:3.0;" d="M 83.0904, 163.349 L 78.8821, 166.603 L 73.4574, 166.04 L 77.2986, 149.886 L 84.8114, 149.042 z "/>
<path style="fill:rgb(255, 199, 54);fill-opacity:1.0;fill-rule:evenodd;stroke:rgb(0, 0, 0);stroke-width:3.0;" d="M 607.054, 123.03 L 611.442, 123.289 L 623.493, 148.583 L 611.45, 152.584 L 582.656, 122.595 z "/>
<path style="fill:rgb(255, 199, 54);fill-opacity:1.0;fill-rule:evenodd;stroke:rgb(0, 0, 0);stroke-width:3.0;" d="M 95.6797, 430.036 L 92.8684, 439.448 L 63.2261, 453.364 L 55.9973, 419.184 L 69.0206, 406.395 z "/>
<path style="fill:rgb(255, 199, 54);fill-opacity:1.0;fill-rule:evenodd;stroke:rgb(0, 0, 0);stroke-width:3.0;" d="M 379.48, 503.244 L 378.889, 511.27 L 374.02, 522.38 L 346.437, 510.501 L 369.714, 501.954 z "/>
<path style="fill:rgb(255, 199, 54);fill-opacity:1.0;fill-rule:evenodd;stroke:rgb(0, 0, 0);stroke-width:3.0;" d="M 419.139, 37.6687 L 397.925, 19.1659 L 422.473, 9.35229 z "/>
<path style="fill:rgb(252, 246, 7);fill-opacity:1.0;fill-rule:evenodd;stroke:rgb(0, 0, 0);stroke-width:3.0;" d="M 332.139, 44.2549 L 310.9, 46.6471 L 326.537, 25.3114 L 342.384, 18.1993 z "/>
<path style="fill:rgb(105, 252, 255);fill-opacity:1.0;fill-rule:evenodd;stroke:rgb(0, 0, 0);stroke-width:3.0;" d="M 794.497, 515.017 L 784.524, 521.379 L 743.318, 471.437 z "/>
<path style="fill:rgb(212, 64, 110);fill-opacity:1.0;fill-rule:evenodd;stroke:rgb(0, 0, 0);stroke-width:3.0;" d="M 68.4391, 300.335 L 69.8825, 266.185 L 107.861, 263.254 z "/>
<path style="fill:rgb(207, 44, 14);fill-opacity:1.0;fill-rule:evenodd;stroke:rgb(0, 0, 0);stroke-width:3.0;" d="M 640.727, 111.647 L 627.726, 25.236 L 643.67, 8.17874 z "/>
<path style="fill:rgb(207, 44, 14);fill-opacity:1.0;fill-rule:evenodd;stroke:rgb(0, 0, 0);stroke-width:3.0;" d="M 162.356, 196.236 L 146.802, 184.473 L 214.552, 156.578 z "/>
<path style="fill:rgb(207, 44, 14);fill-opacity:1.0;fill-rule:evenodd;stroke:rgb(0, 0, 0);stroke-width:3.0;" d="M 349.284, 523.969 L 336.406, 516.165 L 335.287, 504.618 L 339.983, 503.955 z "/>
<path style="fill:rgb(255, 252, 49);fill-opacity:1.0;fill-rule:evenodd;stroke:rgb(0, 0, 0);stroke-width:3.0;" d="M 183.373, 294.102 L 182.899, 294.568 L 147.306, 267.28 L 128.45, 243.886 L 148.899, 224.651 z "/>
<path style="fill:rgb(231, 2, 175);fill-opacity:1.0;fill-rule:evenodd;stroke:rgb(0, 0, 0);stroke-width:3.0;" d="M 392.547, 14.4751 L 367.776, 27.0546 L 366.368, 20.0925 L 376.11, 10.9285 L 385.74, 9.15818 L 386.429, 9.13862 z "/>
<path style="fill:rgb(231, 2, 175);fill-opacity:1.0;fill-rule:evenodd;stroke:rgb(0, 0, 0);stroke-width:3.0;" d="M 317.827, 134.703 L 317.105, 140.383 L 279.556, 182.071 L 274.712, 179.515 L 283.793, 166.005 L 317.226, 133.16 z "/>
<path style="fill:rgb(231, 2, 175);fill-opacity:1.0;fill-rule:evenodd;stroke:rgb(0, 0, 0);stroke-width:3.0;" d="M 228.638, 56.1255 L 186.76, 52.5281 L 199.948, 29.9709 L 243.555, 23.1433 z "/>
<path style="fill:rgb(231, 2, 175);fill-opacity:1.0;fill-rule:evenodd;stroke:rgb(0, 0, 0);stroke-width:3.0;" d="M 196.775, 146.04 L 204.348, 160.779 L 158.151, 179.801 L 184.065, 138.103 z "/>
<path style="fill:rgb(255, 134, 58);fill-opacity:1.0;fill-rule:evenodd;stroke:rgb(0, 0, 0);stroke-width:3.0;" d="M 175.309, 302.022 L 160.087, 316.968 L 132.55, 316.806 L 143.744, 262.86 z "/>
<path style="fill:rgb(255, 134, 58);fill-opacity:1.0;fill-rule:evenodd;stroke:rgb(0, 0, 0);stroke-width:3.0;" d="M 19.6376, 419.709 L 6.69774, 438.071 L 5.09019, 428.703 L 15.823, 416.816 z "/>
<path style="fill:rgb(255, 134, 58);fill-opacity:1.0;fill-rule:evenodd;stroke:rgb(0, 0, 0);stroke-width:3.0;" d="M 170.039, 516.684 L 138.742, 508.487 L 136.963, 505.195 L 172.113, 475.993 z "/>
<path style="fill:rgb(51, 115, 255);fill-opacity:1.0;fill-rule:evenodd;stroke:rgb(0, 0, 0);stroke-width:3.0;" d="M 476.337, 53.3468 L 477.016, 102.188 L 463.788, 108.033 L 453.241, 77.24 L 454.625, 52.8121 z "/>
<path style="fill:rgb(51, 115, 255);fill-opacity:1.0;fill-rule:evenodd;stroke:rgb(0, 0, 0);stroke-width:3.0;" d="M 612.647, 13.9792 L 607.848, 71.2567 L 588.314, 74.745 L 566.481, 28.9209 L 587.973, 6.75572 z "/>
<path style="fill:rgb(51, 115, 255);fill-opacity:1.0;fill-rule:evenodd;stroke:rgb(0, 0, 0);stroke-width:3.0;" d="M 525.226, 60.1015 L 528.069, 68.5372 L 522.98, 73.7859 L 513.243, 58.9159 z "/>
<path style="fill:rgb(51, 115, 255);fill-opacity:1.0;fill-rule:evenodd;stroke:rgb(0, 0, 0);stroke-width:3.0;" d="M 611.442, 123.289 L 582.94, 121.61 L 584.704, 119.254 L 602.58, 104.688 z "/>
<path style="fill:rgb(51, 115, 255);fill-opacity:1.0;fill-rule:evenodd;stroke:rgb(0, 0, 0);stroke-width:3.0;" d="M 374.02, 522.38 L 368.278, 535.479 L 349.284, 523.969 L 342.171, 508.664 z "/>
<path style="fill:rgb(255, 58, 168);fill-opacity:1.0;fill-rule:evenodd;stroke:rgb(0, 0, 0);stroke-width:3.0;" d="M 252.389, 48.9591 L 229.118, 55.0637 L 230.732, 51.4941 L 244.758, 39.6145 z "/>
<path style="fill:rgb(255, 58, 168);fill-opacity:1.0;fill-rule:evenodd;stroke:rgb(0, 0, 0);stroke-width:3.0;" d="M 274.518, 320.686 L 259.08, 349.941 L 252.159, 332.268 L 306.99, 243.021 z "/>
<path style="fill:rgb(255, 58, 168);fill-opacity:1.0;fill-rule:evenodd;stroke:rgb(0, 0, 0);stroke-width:3.0;" d="M 600.1, 99.4837 L 602.58, 104.688 L 581.755, 121.657 L 574.35, 113.945 L 580.549, 93.9354 z "/>
<path style="fill:rgb(255, 58, 168);fill-opacity:1.0;fill-rule:evenodd;stroke:rgb(0, 0, 0);stroke-width:3.0;" d="M 565.052, 52.8824 L 557.997, 50.6209 L 554.338, 41.445 L 563.106, 32.4017 z "/>
<path style="fill:rgb(255, 58, 168);fill-opacity:1.0;fill-rule:evenodd;stroke:rgb(0, 0, 0);stroke-width:3.0;" d="M 350.389, 25.2008 L 335.937, 34.5955 L 344.53, 12.7404 L 352.541, 11.0992 z "/>
<path style="fill:rgb(255, 58, 168);fill-opacity:1.0;fill-rule:evenodd;stroke:rgb(0, 0, 0);stroke-width:3.0;" d="M 251.929, 363.491 L 208.523, 445.744 L 136.963, 505.195 L 105.812, 447.523 L 169.496, 312.264 z "/>
<path style="fill:rgb(23, 24, 255);fill-opacity:1.0;fill-rule:evenodd;stroke:rgb(0, 0, 0);stroke-width:3.0;" d="M 482.472, 11.9264 L 510.141, 54.1792 L 429.713, 52.1987 L 471.262, 11.3977 z "/>
<path style="fill:rgb(23, 24, 255);fill-opacity:1.0;fill-rule:evenodd;stroke:rgb(0, 0, 0);stroke-width:3.0;" d="M 419.139, 37.6687 L 415.822, 65.8399 L 411.944, 69.6478 L 378.841, 61.8765 L 386.732, 39.3498 L 403.495, 24.0241 z "/>
<path style="fill:rgb(23, 24, 255);fill-opacity:1.0;fill-rule:evenodd;stroke:rgb(0, 0, 0);stroke-width:3.0;" d="M 48.205, 339.274 L 47.9267, 374.254 L 28.1311, 359.511 L 29.3629, 337.091 L 36.4788, 330.398 z "/>
<path style="fill:rgb(23, 24, 255);fill-opacity:1.0;fill-rule:evenodd;stroke:rgb(0, 0, 0);stroke-width:3.0;" d="M 92.6852, 133.277 L 90.7042, 142.768 L 79.3844, 141.115 L 81.8531, 130.733 L 89.2369, 129.271 z "/>
<path style="fill:rgb(215, 48, 91);fill-opacity:1.0;fill-rule:evenodd;stroke:rgb(0, 0, 0);stroke-width:3.0;" d="M 557.031, 79.7949 L 535.612, 90.813 L 530.1, 77.4863 L 549.824, 77.3715 z "/>
<path style="fill:rgb(215, 48, 91);fill-opacity:1.0;fill-rule:evenodd;stroke:rgb(0, 0, 0);stroke-width:3.0;" d="M 343.019, 14.7859 L 340.275, 19.1455 L 326.537, 25.3114 L 339.089, 8.18521 L 342.696, 7.62055 z "/>
<path style="fill:rgb(215, 48, 91);fill-opacity:1.0;fill-rule:evenodd;stroke:rgb(0, 0, 0);stroke-width:3.0;" d="M 463.859, 18.6678 L 452.196, 16.1533 L 441.967, 7.56141 L 476.158, 6.59045 z "/>
<path style="fill:rgb(215, 48, 91);fill-opacity:1.0;fill-rule:evenodd;stroke:rgb(0, 0, 0);stroke-width:3.0;" d="M 367.343, 144.788 L 300.92, 252.901 L 253.87, 224.875 L 401.673, 79.7339 z "/>
<path style="fill:rgb(215, 48, 91);fill-opacity:1.0;fill-rule:evenodd;stroke:rgb(0, 0, 0);stroke-width:3.0;" d="M 158.729, 115.054 L 154.584, 117.923 L 121.846, 117.914 L 124.948, 110.807 L 140.924, 98.1697 z "/>
<path style="fill:rgb(255, 11, 9);fill-opacity:1.0;fill-rule:evenodd;stroke:rgb(0, 0, 0);stroke-width:3.0;" d="M 136.84, 316.831 L 154.793, 322.168 L 125.46, 350.972 L 132.55, 316.806 z "/>
<path style="fill:rgb(255, 11, 9);fill-opacity:1.0;fill-rule:evenodd;stroke:rgb(0, 0, 0);stroke-width:3.0;" d="M 240.394, 57.1355 L 257.248, 63.4414 L 255.865, 66.9082 L 226.065, 69.0732 L 219.665, 55.3547 z "/>
<path style="fill:rgb(255, 11, 9);fill-opacity:1.0;fill-rule:evenodd;stroke:rgb(0, 0, 0);stroke-width:3.0;" d="M 277.267, 33.5267 L 266.788, 31.9469 L 264.921, 22.5367 L 268.887, 19.177 L 274.679, 18.2701 z "/>
<path style="fill:rgb(255, 11, 9);fill-opacity:1.0;fill-rule:evenodd;stroke:rgb(0, 0, 0);stroke-width:3.0;" d="M 259.08, 349.941 L 251.929, 363.491 L 169.496, 312.264 L 173.467, 303.83 L 222.259, 255.917 z "/>
<path style="fill:rgb(252, 199, 35);fill-opacity:1.0;fill-rule:evenodd;stroke:rgb(0, 0, 0);stroke-width:3.0;" d="M 252.878, 171.945 L 257.163, 208.208 L 229.525, 185.81 L 240.128, 161.474 z "/>
<path style="fill:rgb(22, 240, 187);fill-opacity:1.0;fill-rule:evenodd;stroke:rgb(0, 0, 0);stroke-width:3.0;" d="M 498.354, 92.7605 L 477.016, 102.188 L 476.583, 71.0949 L 505.21, 64.1089 z "/>
<path style="fill:rgb(22, 240, 187);fill-opacity:1.0;fill-rule:evenodd;stroke:rgb(0, 0, 0);stroke-width:3.0;" d="M 164.705, 68.5231 L 162.6, 71.0301 L 148.361, 78.9066 L 145.471, 79.3079 L 143.643, 64.739 z "/>
<path style="fill:rgb(22, 240, 187);fill-opacity:1.0;fill-rule:evenodd;stroke:rgb(0, 0, 0);stroke-width:3.0;" d="M 240.128, 161.474 L 229.525, 185.81 L 208.396, 168.686 L 227.281, 150.923 z "/>
<path style="fill:rgb(136, 119, 255);fill-opacity:1.0;fill-rule:evenodd;stroke:rgb(0, 0, 0);stroke-width:3.0;" d="M 57.3571, 233.747 L 56.7788, 235.35 L 48.7699, 225.971 L 50.7784, 200.739 L 74.5841, 161.301 z "/>
<path style="fill:rgb(136, 119, 255);fill-opacity:1.0;fill-rule:evenodd;stroke:rgb(0, 0, 0);stroke-width:3.0;" d="M 248.448, 90.2548 L 228.461, 121.398 L 223.626, 101.009 L 224.815, 89.8609 z "/>
<path style="fill:rgb(136, 119, 255);fill-opacity:1.0;fill-rule:evenodd;stroke:rgb(0, 0, 0);stroke-width:3.0;" d="M 137.281, 63.596 L 134.772, 75.2279 L 110.355, 58.7584 z "/>
<path style="fill:rgb(237, 6, 71);fill-opacity:1.0;fill-rule:evenodd;stroke:rgb(0, 0, 0);stroke-width:3.0;" d="M 102.177, 45.2619 L 94.7363, 76.554 L 65.7397, 47.8579 L 66.2096, 46.5652 L 73.9392, 42.8361 z "/>
<path style="fill:rgb(119, 243, 226);fill-opacity:1.0;fill-rule:evenodd;stroke:rgb(0, 0, 0);stroke-width:3.0;" d="M 454.625, 52.8121 L 451.179, 113.604 L 419.118, 127.77 L 408.345, 111.467 L 411.385, 70.1967 L 429.713, 52.1987 z "/>
<path style="fill:rgb(10, 255, 27);fill-opacity:1.0;fill-rule:evenodd;stroke:rgb(0, 0, 0);stroke-width:3.0;" d="M 180.486, 478.142 L 181.11, 492.801 L 170.381, 509.965 L 172.113, 475.993 L 172.968, 475.282 z "/>
<path style="fill:rgb(10, 255, 27);fill-opacity:1.0;fill-rule:evenodd;stroke:rgb(0, 0, 0);stroke-width:3.0;" d="M 549.824, 77.3715 L 525.421, 77.5135 L 522.98, 73.7859 L 526.959, 69.682 z "/>
<path style="fill:rgb(255, 1, 37);fill-opacity:1.0;fill-rule:evenodd;stroke:rgb(0, 0, 0);stroke-width:3.0;" d="M 277.267, 33.5267 L 279.297, 45.4892 L 262.697, 59.0514 L 260.474, 58.8604 L 244.758, 39.6145 L 255.771, 30.286 z "/>
<path style="fill:rgb(255, 1, 37);fill-opacity:1.0;fill-rule:evenodd;stroke:rgb(0, 0, 0);stroke-width:3.0;" d="M 168.92, 264.986 L 151.905, 230.707 L 152.182, 221.563 L 167.158, 207.477 z "/>
<path style="fill:rgb(255, 1, 37);fill-opacity:1.0;fill-rule:evenodd;stroke:rgb(0, 0, 0);stroke-width:3.0;" d="M 210.907, 162.995 L 165.688, 198.755 L 162.356, 196.236 L 208.154, 161.439 z "/>
<path style="fill:rgb(255, 1, 37);fill-opacity:1.0;fill-rule:evenodd;stroke:rgb(0, 0, 0);stroke-width:3.0;" d="M 281.877, 60.6991 L 262.697, 59.0514 L 279.297, 45.4892 z "/>
<path style="fill:rgb(255, 255, 22);fill-opacity:1.0;fill-rule:evenodd;stroke:rgb(0, 0, 0);stroke-width:3.0;" d="M 191.73, 92.2136 L 174.525, 104.121 L 166.484, 95.7342 L 190.566, 90.3186 z "/>
<path style="fill:rgb(124, 152, 223);fill-opacity:1.0;fill-rule:evenodd;stroke:rgb(0, 0, 0);stroke-width:3.0;" d="M 132.094, 391.702 L 91.748, 403.519 L 84.3253, 391.366 L 89.8741, 385.917 L 136.273, 382.826 z "/>
<path style="fill:rgb(124, 152, 223);fill-opacity:1.0;fill-rule:evenodd;stroke:rgb(0, 0, 0);stroke-width:3.0;" d="M 48.205, 339.274 L 36.4788, 330.398 L 48.3645, 319.218 z "/>
<path style="fill:rgb(124, 152, 223);fill-opacity:1.0;fill-rule:evenodd;stroke:rgb(0, 0, 0);stroke-width:3.0;" d="M 695.703, 280.402 L 698.238, 294.088 L 692.117, 304.834 L 677.712, 310.074 L 675.563, 306.792 L 682.948, 279.764 z "/>
<path style="fill:rgb(124, 152, 223);fill-opacity:1.0;fill-rule:evenodd;stroke:rgb(0, 0, 0);stroke-width:3.0;" d="M 355.457, 125.118 L 338.91, 141.367 L 342.324, 112.991 L 348.256, 112.435 z "/>
<path style="fill:rgb(108, 154, 255);fill-opacity:1.0;fill-rule:evenodd;stroke:rgb(0, 0, 0);stroke-width:3.0;" d="M 243.013, 136.124 L 227.992, 122.13 L 234.391, 112.159 L 269.045, 111.638 z "/>
<path style="fill:rgb(255, 255, 30);fill-opacity:1.0;fill-rule:evenodd;stroke:rgb(0, 0, 0);stroke-width:3.0;" d="M 268.77, 90.5936 L 276.763, 104.378 L 269.045, 111.638 L 234.391, 112.159 L 248.448, 90.2548 z "/>
<path style="fill:rgb(220, 37, 110);fill-opacity:1.0;fill-rule:evenodd;stroke:rgb(0, 0, 0);stroke-width:3.0;" d="M 570.556, 126.194 L 566.298, 139.936 L 551.711, 117.66 L 557.466, 112.356 L 559.686, 111.192 z "/>
<path style="fill:rgb(220, 37, 110);fill-opacity:1.0;fill-rule:evenodd;stroke:rgb(0, 0, 0);stroke-width:3.0;" d="M 709.84, 356.733 L 707.653, 355.795 L 691.591, 331.267 L 702.369, 316.394 z "/>
<path style="fill:rgb(246, 175, 11);fill-opacity:1.0;fill-rule:evenodd;stroke:rgb(0, 0, 0);stroke-width:3.0;" d="M 382.247, 465.699 L 375.822, 480.984 L 190.357, 480.167 L 401.673, 79.7339 L 411.385, 70.1967 z "/>
<path style="fill:rgb(220, 31, 7);fill-opacity:1.0;fill-rule:evenodd;stroke:rgb(0, 0, 0);stroke-width:3.0;" d="M 57.2575, 310.853 L 33.7682, 332.948 L 39.5454, 308.653 L 62.8265, 266.73 L 67.9699, 266.333 z "/>
<path style="fill:rgb(220, 31, 7);fill-opacity:1.0;fill-rule:evenodd;stroke:rgb(0, 0, 0);stroke-width:3.0;" d="M 158.151, 179.801 L 144.73, 185.326 L 144.034, 158.761 L 175.598, 151.727 z "/>
<path style="fill:rgb(220, 31, 7);fill-opacity:1.0;fill-rule:evenodd;stroke:rgb(0, 0, 0);stroke-width:3.0;" d="M 114.235, 241.491 L 105.903, 260.303 L 82.2423, 211.789 z "/>
<path style="fill:rgb(255, 246, 31);fill-opacity:1.0;fill-rule:evenodd;stroke:rgb(0, 0, 0);stroke-width:3.0;" d="M 244.536, 70.7413 L 238.865, 83.7172 L 232.115, 82.431 L 230.808, 76.2979 L 243.14, 67.8327 L 244.315, 67.7473 z "/>
<path style="fill:rgb(28, 220, 255);fill-opacity:1.0;fill-rule:evenodd;stroke:rgb(0, 0, 0);stroke-width:3.0;" d="M 230.879, 76.6308 L 229.318, 81.898 L 216.285, 79.4145 L 212.75, 70.0405 L 229.219, 68.844 z "/>
<path style="fill:rgb(255, 249, 26);fill-opacity:1.0;fill-rule:evenodd;stroke:rgb(0, 0, 0);stroke-width:3.0;" d="M 394.767, 16.4117 L 361.566, 111.187 L 354.358, 111.863 L 390.423, 15.5538 L 392.547, 14.4751 z "/>
<path style="fill:rgb(255, 249, 26);fill-opacity:1.0;fill-rule:evenodd;stroke:rgb(0, 0, 0);stroke-width:3.0;" d="M 338.097, 533.606 L 338.258, 535.267 L 330.301, 535.538 L 325.849, 530.773 L 321.747, 516.835 z "/>
<path style="fill:rgb(22, 7, 255);fill-opacity:1.0;fill-rule:evenodd;stroke:rgb(0, 0, 0);stroke-width:3.0;" d="M 77.0702, 492.337 L 14.894, 476.054 L 92.8684, 439.448 z "/>
<path style="fill:rgb(124, 255, 255);fill-opacity:1.0;fill-rule:evenodd;stroke:rgb(0, 0, 0);stroke-width:3.0;" d="M 463.788, 108.033 L 461.428, 109.076 L 452.398, 92.1101 L 453.241, 77.24 z "/>
<path style="fill:rgb(255, 249, 7);fill-opacity:1.0;fill-rule:evenodd;stroke:rgb(0, 0, 0);stroke-width:3.0;" d="M 120.273, 162.01 L 94.8289, 205.873 L 76.8853, 213.261 L 74.8791, 207.112 L 116.229, 159.409 z "/>
<path style="fill:rgb(255, 159, 33);fill-opacity:1.0;fill-rule:evenodd;stroke:rgb(0, 0, 0);stroke-width:3.0;" d="M 116.229, 159.409 L 74.8791, 207.112 L 68.4076, 187.276 L 71.1712, 175.654 L 105.039, 152.213 z "/>
<path style="fill:rgb(237, 163, 130);fill-opacity:1.0;fill-rule:evenodd;stroke:rgb(0, 0, 0);stroke-width:3.0;" d="M 411.944, 69.6478 L 357.331, 123.277 L 378.841, 61.8765 z "/>
<path style="fill:rgb(237, 163, 130);fill-opacity:1.0;fill-rule:evenodd;stroke:rgb(0, 0, 0);stroke-width:3.0;" d="M 732.18, 393.25 L 695.96, 375.294 L 447.938, 217.274 L 419.052, 127.798 L 527.091, 80.0634 z "/>
<path style="fill:rgb(243, 209, 27);fill-opacity:1.0;fill-rule:evenodd;stroke:rgb(0, 0, 0);stroke-width:3.0;" d="M 290.45, 15.8008 L 254.461, 21.4357 L 256.054, 15.5227 L 292.758, 11.3532 z "/>
<path style="fill:rgb(255, 249, 14);fill-opacity:1.0;fill-rule:evenodd;stroke:rgb(0, 0, 0);stroke-width:3.0;" d="M 144.12, 168.936 L 144.322, 169.742 L 144.528, 177.608 L 105.039, 152.213 L 115.451, 145.007 z "/>
<path style="fill:rgb(204, 102, 199);fill-opacity:1.0;fill-rule:evenodd;stroke:rgb(0, 0, 0);stroke-width:3.0;" d="M 202.093, 109.096 L 175.598, 151.727 L 144.034, 158.761 L 143.17, 125.822 L 191.73, 92.2136 z "/>
<path style="fill:rgb(255, 115, 74);fill-opacity:1.0;fill-rule:evenodd;stroke:rgb(0, 0, 0);stroke-width:3.0;" d="M 29.8467, 51.033 L 24.9065, 66.4914 L 19.5924, 69.0552 L 19.4319, 69.0799 L 15.7268, 44.4497 z "/>
<path style="fill:rgb(255, 237, 64);fill-opacity:1.0;fill-rule:evenodd;stroke:rgb(0, 0, 0);stroke-width:3.0;" d="M 82.2423, 211.789 L 98.0135, 244.126 L 79.7411, 264.497 L 78.424, 212.627 L 81.6945, 211.281 z "/>
<path style="fill:rgb(255, 105, 9);fill-opacity:1.0;fill-rule:evenodd;stroke:rgb(0, 0, 0);stroke-width:3.0;" d="M 441.778, 40.3514 L 432.306, 49.6529 L 427.98, 50.1111 L 420.348, 37.9779 L 445.402, 27.2435 z "/>
<path style="fill:rgb(255, 105, 9);fill-opacity:1.0;fill-rule:evenodd;stroke:rgb(0, 0, 0);stroke-width:3.0;" d="M 639.138, 181.421 L 656.803, 218.497 L 661.402, 249.067 L 650.395, 246.328 L 569.313, 130.207 L 574.35, 113.945 z "/>
<path style="fill:rgb(255, 105, 9);fill-opacity:1.0;fill-rule:evenodd;stroke:rgb(0, 0, 0);stroke-width:3.0;" d="M 140.047, 177.787 L 139.031, 187.673 L 94.8289, 205.873 L 112.935, 174.659 z "/>
<path style="fill:rgb(152, 234, 44);fill-opacity:1.0;fill-rule:evenodd;stroke:rgb(0, 0, 0);stroke-width:3.0;" d="M 140.342, 174.917 L 140.047, 177.787 L 112.935, 174.659 L 120.273, 162.01 z "/>
<path style="fill:rgb(21, 12, 217);fill-opacity:1.0;fill-rule:evenodd;stroke:rgb(0, 0, 0);stroke-width:3.0;" d="M 113.209, 72.68 L 115.531, 100.897 L 111.635, 91.6923 L 105.322, 65.4091 z "/>
<path style="fill:rgb(21, 12, 217);fill-opacity:1.0;fill-rule:evenodd;stroke:rgb(0, 0, 0);stroke-width:3.0;" d="M 291.2, 188.217 L 278.618, 200.573 L 274.635, 184.209 L 278.593, 181.563 z "/>
<path style="fill:rgb(21, 12, 217);fill-opacity:1.0;fill-rule:evenodd;stroke:rgb(0, 0, 0);stroke-width:3.0;" d="M 539.828, 41.8061 L 538.667, 57.6074 L 528.069, 68.5372 L 511.569, 19.5843 z "/>
<path style="fill:rgb(10, 172, 255);fill-opacity:1.0;fill-rule:evenodd;stroke:rgb(0, 0, 0);stroke-width:3.0;" d="M 79.082, 238.541 L 79.7646, 265.422 L 74.062, 265.862 L 52.612, 256.026 L 59.0249, 231.16 z "/>
<path style="fill:rgb(249, 255, 21);fill-opacity:1.0;fill-rule:evenodd;stroke:rgb(0, 0, 0);stroke-width:3.0;" d="M 111.659, 435.104 L 104.69, 399.729 L 132.094, 391.702 z "/>
<path style="fill:rgb(249, 255, 21);fill-opacity:1.0;fill-rule:evenodd;stroke:rgb(0, 0, 0);stroke-width:3.0;" d="M 445.119, 208.543 L 447.938, 217.274 L 402.674, 188.435 L 402.951, 184.674 z "/>
<path style="fill:rgb(255, 70, 103);fill-opacity:1.0;fill-rule:evenodd;stroke:rgb(0, 0, 0);stroke-width:3.0;" d="M 602, 315.43 L 606.288, 330.838 L 593.69, 324.593 L 591.068, 308.465 z "/>
<path style="fill:rgb(255, 70, 103);fill-opacity:1.0;fill-rule:evenodd;stroke:rgb(0, 0, 0);stroke-width:3.0;" d="M 156.629, 49.9397 L 134.006, 63.0076 L 110.355, 58.7584 L 106.068, 55.8665 L 120.063, 46.7984 z "/>
<path style="fill:rgb(255, 70, 103);fill-opacity:1.0;fill-rule:evenodd;stroke:rgb(0, 0, 0);stroke-width:3.0;" d="M 445.119, 208.543 L 402.951, 184.674 L 406.741, 133.238 L 419.052, 127.798 z "/>
<path style="fill:rgb(240, 97, 110);fill-opacity:1.0;fill-rule:evenodd;stroke:rgb(0, 0, 0);stroke-width:3.0;" d="M 376.728, 540.6 L 375.355, 559.235 L 340.745, 560.918 L 337.037, 522.673 L 341.136, 519.031 z "/>
<path style="fill:rgb(24, 4, 112);fill-opacity:1.0;fill-rule:evenodd;stroke:rgb(0, 0, 0);stroke-width:3.0;" d="M 94.7363, 76.554 L 74.5841, 161.301 L 50.7784, 200.739 L 62.1643, 57.6939 L 65.7397, 47.8579 z "/>
<path style="fill:rgb(249, 44, 9);fill-opacity:1.0;fill-rule:evenodd;stroke:rgb(0, 0, 0);stroke-width:3.0;" d="M 632.904, 168.336 L 625.222, 166.927 L 621.547, 163.099 L 619.396, 149.944 L 623.493, 148.583 z "/>
<path style="fill:rgb(255, 240, 13);fill-opacity:1.0;fill-rule:evenodd;stroke:rgb(0, 0, 0);stroke-width:3.0;" d="M 129.614, 245.33 L 48.1506, 346.111 L 48.3645, 319.218 L 128.45, 243.886 z "/>
<path style="fill:rgb(255, 240, 13);fill-opacity:1.0;fill-rule:evenodd;stroke:rgb(0, 0, 0);stroke-width:3.0;" d="M 369.714, 501.954 L 346.437, 510.501 L 342.171, 508.664 L 339.983, 503.955 L 361.678, 500.893 z "/>
<path style="fill:rgb(255, 240, 13);fill-opacity:1.0;fill-rule:evenodd;stroke:rgb(0, 0, 0);stroke-width:3.0;" d="M 271.872, 68.9126 L 275.723, 72.1994 L 266.804, 89.0412 L 241.536, 84.2263 L 240.912, 82.972 L 266.944, 67.0688 z "/>
<path style="fill:rgb(255, 252, 25);fill-opacity:1.0;fill-rule:evenodd;stroke:rgb(0, 0, 0);stroke-width:3.0;" d="M 218.878, 259.237 L 199.8, 277.971 L 204.777, 207.035 z "/>
<path style="fill:rgb(110, 237, 255);fill-opacity:1.0;fill-rule:evenodd;stroke:rgb(0, 0, 0);stroke-width:3.0;" d="M 163.714, 324.545 L 154.016, 345.142 L 128.532, 347.956 L 157.225, 319.78 z "/>
<path style="fill:rgb(126, 240, 255);fill-opacity:1.0;fill-rule:evenodd;stroke:rgb(0, 0, 0);stroke-width:3.0;" d="M 313.852, 165.973 L 291.2, 188.217 L 279.556, 182.071 L 317.105, 140.383 z "/>
<path style="fill:rgb(126, 240, 255);fill-opacity:1.0;fill-rule:evenodd;stroke:rgb(0, 0, 0);stroke-width:3.0;" d="M 188.671, 483.362 L 180.35, 474.947 L 180.111, 469.348 L 208.523, 445.744 z "/>
<path style="fill:rgb(194, 246, 30);fill-opacity:1.0;fill-rule:evenodd;stroke:rgb(0, 0, 0);stroke-width:3.0;" d="M 219.901, 19.5224 L 190.806, 31.4024 L 190.606, 31.4336 L 191.128, 27.5615 L 191.402, 27.2216 L 203.397, 16.4311 z "/>
<path style="fill:rgb(194, 246, 30);fill-opacity:1.0;fill-rule:evenodd;stroke:rgb(0, 0, 0);stroke-width:3.0;" d="M 317.226, 133.16 L 283.793, 166.005 L 313.063, 122.458 z "/>
<path style="fill:rgb(223, 55, 37);fill-opacity:1.0;fill-rule:evenodd;stroke:rgb(0, 0, 0);stroke-width:3.0;" d="M 370.085, 12.3978 L 350.389, 25.2008 L 352.541, 11.0992 L 358.79, 9.81926 z "/>
<path style="fill:rgb(223, 55, 37);fill-opacity:1.0;fill-rule:evenodd;stroke:rgb(0, 0, 0);stroke-width:3.0;" d="M 623.176, 568.38 L 623.16, 588.083 L 614.62, 578.518 L 620.001, 567.611 z "/>
<path style="fill:rgb(88, 240, 252);fill-opacity:1.0;fill-rule:evenodd;stroke:rgb(0, 0, 0);stroke-width:3.0;" d="M 582.676, 12.2182 L 550.479, 45.4247 L 551.707, 10.4618 z "/>
<path style="fill:rgb(88, 240, 252);fill-opacity:1.0;fill-rule:evenodd;stroke:rgb(0, 0, 0);stroke-width:3.0;" d="M 632.383, 56.1859 L 633.949, 66.5958 L 607.848, 71.2567 L 609.781, 48.1952 z "/>
<path style="fill:rgb(240, 97, 255);fill-opacity:1.0;fill-rule:evenodd;stroke:rgb(0, 0, 0);stroke-width:3.0;" d="M 138.742, 508.487 L 123.182, 504.413 L 127.413, 487.514 z "/>
<path style="fill:rgb(240, 97, 255);fill-opacity:1.0;fill-rule:evenodd;stroke:rgb(0, 0, 0);stroke-width:3.0;" d="M 140.839, 79.3202 L 145.389, 94.6373 L 140.889, 98.1974 L 105.322, 65.4091 L 102.442, 53.4209 z "/>
<path style="fill:rgb(240, 97, 255);fill-opacity:1.0;fill-rule:evenodd;stroke:rgb(0, 0, 0);stroke-width:3.0;" d="M 631.679, 51.504 L 620.266, 48.337 L 626.751, 18.7546 z "/>
<path style="fill:rgb(231, 215, 184);fill-opacity:1.0;fill-rule:evenodd;stroke:rgb(0, 0, 0);stroke-width:3.0;" d="M 24.2135, 450.395 L 11.0335, 463.338 L 6.69774, 438.071 L 10.738, 432.338 L 26.416, 426.395 z "/>
<path style="fill:rgb(199, 26, 215);fill-opacity:1.0;fill-rule:evenodd;stroke:rgb(0, 0, 0);stroke-width:3.0;" d="M 582.298, 88.2923 L 581.787, 89.9396 L 551.711, 117.66 L 534.504, 91.3832 L 557.031, 79.7949 z "/>
<path style="fill:rgb(255, 209, 28);fill-opacity:1.0;fill-rule:evenodd;stroke:rgb(0, 0, 0);stroke-width:3.0;" d="M 186.76, 52.5281 L 176.115, 51.6136 L 173.912, 42.5596 L 176.556, 33.6335 L 199.948, 29.9709 z "/>
<path style="fill:rgb(255, 209, 28);fill-opacity:1.0;fill-rule:evenodd;stroke:rgb(0, 0, 0);stroke-width:3.0;" d="M 30.6068, 294.093 L 36.7315, 320.486 L 35.9439, 323.798 L 15.7389, 314.753 L 14.5768, 298.974 L 20.5135, 292.45 z "/>
<path style="fill:rgb(243, 204, 202);fill-opacity:1.0;fill-rule:evenodd;stroke:rgb(0, 0, 0);stroke-width:3.0;" d="M 143.635, 143.529 L 137.684, 143.199 L 134.789, 131.623 L 143.17, 125.822 z "/>
<path style="fill:rgb(255, 22, 170);fill-opacity:1.0;fill-rule:evenodd;stroke:rgb(0, 0, 0);stroke-width:3.0;" d="M 550.479, 45.4247 L 538.667, 57.6074 L 539.861, 41.349 L 550.632, 41.0748 z "/>
<path style="fill:rgb(255, 126, 14);fill-opacity:1.0;fill-rule:evenodd;stroke:rgb(0, 0, 0);stroke-width:3.0;" d="M 337.628, 89.4623 L 344.179, 97.5692 L 343.524, 103.02 L 336.547, 105.171 L 326.966, 101.773 L 335.769, 88.6747 z "/>
<path style="fill:rgb(255, 255, 54);fill-opacity:1.0;fill-rule:evenodd;stroke:rgb(0, 0, 0);stroke-width:3.0;" d="M 141.084, 156.797 L 138.091, 157.775 L 129.219, 146.872 L 135.817, 135.733 z "/>
<path style="fill:rgb(23, 255, 159);fill-opacity:1.0;fill-rule:evenodd;stroke:rgb(0, 0, 0);stroke-width:3.0;" d="M 274.518, 320.686 L 306.99, 243.021 L 367.343, 144.788 z "/>
<path style="fill:rgb(255, 202, 102);fill-opacity:1.0;fill-rule:evenodd;stroke:rgb(0, 0, 0);stroke-width:3.0;" d="M 208.84, 126.136 L 211.525, 133.706 L 200.949, 148.646 L 184.065, 138.103 L 199.265, 113.647 z "/>
<path style="fill:rgb(45, 52, 255);fill-opacity:1.0;fill-rule:evenodd;stroke:rgb(0, 0, 0);stroke-width:3.0;" d="M 300.92, 252.901 L 252.159, 332.268 L 222.259, 255.917 L 253.87, 224.875 z "/>
<path style="fill:rgb(252, 1, 56);fill-opacity:1.0;fill-rule:evenodd;stroke:rgb(0, 0, 0);stroke-width:3.0;" d="M 354.358, 111.863 L 342.324, 112.991 L 351.68, 35.2285 L 390.423, 15.5538 z "/>
<path style="fill:rgb(97, 255, 255);fill-opacity:1.0;fill-rule:evenodd;stroke:rgb(0, 0, 0);stroke-width:3.0;" d="M 507.745, 54.1202 L 521.46, 82.5514 L 510.205, 87.5244 L 506.633, 58.1636 L 507.601, 54.1167 z "/>
<path style="fill:rgb(97, 255, 255);fill-opacity:1.0;fill-rule:evenodd;stroke:rgb(0, 0, 0);stroke-width:3.0;" d="M 570.581, 54.6545 L 584.917, 79.836 L 582.298, 88.2923 L 571.58, 84.6878 L 557.997, 50.6209 z "/>
<path style="fill:rgb(97, 255, 255);fill-opacity:1.0;fill-rule:evenodd;stroke:rgb(0, 0, 0);stroke-width:3.0;" d="M 591.068, 308.465 L 593.69, 324.593 L 399.727, 228.435 L 402.674, 188.435 z "/>
<path style="fill:rgb(255, 255, 15);fill-opacity:1.0;fill-rule:evenodd;stroke:rgb(0, 0, 0);stroke-width:3.0;" d="M 682.978, 367.023 L 683.228, 368.982 L 617.614, 336.453 L 627.945, 331.96 z "/>
<path style="fill:rgb(217, 255, 42);fill-opacity:1.0;fill-rule:evenodd;stroke:rgb(0, 0, 0);stroke-width:3.0;" d="M 117.842, 132.059 L 104.712, 142.539 L 92.0891, 121.868 z "/>
<path style="fill:rgb(199, 5, 22);fill-opacity:1.0;fill-rule:evenodd;stroke:rgb(0, 0, 0);stroke-width:3.0;" d="M 627.92, 331.944 L 616.586, 335.944 L 606.288, 330.838 L 602, 315.43 z "/>
<path style="fill:rgb(255, 217, 34);fill-opacity:1.0;fill-rule:evenodd;stroke:rgb(0, 0, 0);stroke-width:3.0;" d="M 280.057, 537.806 L 247.854, 532.314 L 273.736, 527.291 z "/>
<path style="fill:rgb(255, 217, 34);fill-opacity:1.0;fill-rule:evenodd;stroke:rgb(0, 0, 0);stroke-width:3.0;" d="M 338.968, 542.583 L 339.487, 547.941 L 280.057, 537.806 L 265.985, 514.398 L 295.84, 510.185 z "/>
<path style="fill:rgb(228, 255, 17);fill-opacity:1.0;fill-rule:evenodd;stroke:rgb(0, 0, 0);stroke-width:3.0;" d="M 299.493, 62.2123 L 281.877, 60.6991 L 280.923, 55.0776 L 317.201, 11.6123 L 339.089, 8.18521 z "/>
<path style="fill:rgb(249, 0, 17);fill-opacity:1.0;fill-rule:evenodd;stroke:rgb(0, 0, 0);stroke-width:3.0;" d="M 599.888, 99.0386 L 580.821, 93.0601 L 587.211, 72.4313 z "/>
<path style="fill:rgb(255, 3, 9);fill-opacity:1.0;fill-rule:evenodd;stroke:rgb(0, 0, 0);stroke-width:3.0;" d="M 238.813, 530.772 L 198.58, 523.911 L 252.288, 516.331 z "/>
<path style="fill:rgb(249, 249, 28);fill-opacity:1.0;fill-rule:evenodd;stroke:rgb(0, 0, 0);stroke-width:3.0;" d="M 432.381, 8.86703 L 440.568, 27.2965 L 420.205, 28.6145 L 422.585, 8.39446 z "/>
<path style="fill:rgb(124, 199, 82);fill-opacity:1.0;fill-rule:evenodd;stroke:rgb(0, 0, 0);stroke-width:3.0;" d="M 136.273, 382.826 L 89.8741, 385.917 L 128.532, 347.956 L 154.016, 345.142 z "/>
<path style="fill:rgb(44, 255, 237);fill-opacity:1.0;fill-rule:evenodd;stroke:rgb(0, 0, 0);stroke-width:3.0;" d="M 125.133, 230.349 L 121.746, 202.736 L 141.298, 196.586 z "/>
<path style="fill:rgb(44, 255, 237);fill-opacity:1.0;fill-rule:evenodd;stroke:rgb(0, 0, 0);stroke-width:3.0;" d="M 51.975, 185.705 L 18.3091, 178.339 L 62.1643, 57.6939 z "/>
<path style="fill:rgb(44, 255, 237);fill-opacity:1.0;fill-rule:evenodd;stroke:rgb(0, 0, 0);stroke-width:3.0;" d="M 61.2264, 269.611 L 56.0953, 278.851 L 45.6349, 283.044 L 48.5703, 270.699 L 51.4698, 267.606 L 54.6259, 267.363 z "/>
<path style="fill:rgb(220, 255, 49);fill-opacity:1.0;fill-rule:evenodd;stroke:rgb(0, 0, 0);stroke-width:3.0;" d="M 309.952, 20.297 L 280.923, 55.0776 L 274.679, 18.2701 L 311.386, 12.5228 z "/>
<path style="fill:rgb(220, 255, 49);fill-opacity:1.0;fill-rule:evenodd;stroke:rgb(0, 0, 0);stroke-width:3.0;" d="M 252.065, 158.982 L 245.403, 165.806 L 228.072, 151.572 L 238.051, 143.992 z "/>
<path style="fill:rgb(220, 255, 49);fill-opacity:1.0;fill-rule:evenodd;stroke:rgb(0, 0, 0);stroke-width:3.0;" d="M 210.657, 83.2069 L 209.3, 89.6023 L 197.472, 89.4051 L 201.89, 76.4727 z "/>
<path style="fill:rgb(220, 255, 49);fill-opacity:1.0;fill-rule:evenodd;stroke:rgb(0, 0, 0);stroke-width:3.0;" d="M 32.0652, 442.685 L 24.6208, 449.995 L 26.5217, 434.187 L 32.3508, 424.044 z "/>
<path style="fill:rgb(249, 14, 14);fill-opacity:1.0;fill-rule:evenodd;stroke:rgb(0, 0, 0);stroke-width:3.0;" d="M 32.0686, 395.122 L 32.7485, 398.091 L 32.3508, 424.044 L 26.5217, 434.187 L 31.2471, 394.888 z "/>
<path style="fill:rgb(217, 255, 22);fill-opacity:1.0;fill-rule:evenodd;stroke:rgb(0, 0, 0);stroke-width:3.0;" d="M 24.5392, 19.2096 L 25.2749, 26.1425 L 5.89626, 34.0042 L 6.32766, 16.6889 z "/>
<path style="fill:rgb(255, 220, 19);fill-opacity:1.0;fill-rule:evenodd;stroke:rgb(0, 0, 0);stroke-width:3.0;" d="M 108.537, 117.911 L 112.478, 129.937 L 92.0891, 121.868 L 89.6696, 117.906 z "/>
<path style="fill:rgb(7, 16, 255);fill-opacity:1.0;fill-rule:evenodd;stroke:rgb(0, 0, 0);stroke-width:3.0;" d="M 124.066, 117.915 L 128.689, 123.402 L 117.842, 132.059 L 112.478, 129.937 L 108.537, 117.911 z "/>
<path style="fill:rgb(243, 187, 28);fill-opacity:1.0;fill-rule:evenodd;stroke:rgb(0, 0, 0);stroke-width:3.0;" d="M 111.014, 216.543 L 87.7328, 216.887 L 81.6945, 211.281 L 109.938, 199.652 z "/>
<path style="fill:rgb(243, 187, 28);fill-opacity:1.0;fill-rule:evenodd;stroke:rgb(0, 0, 0);stroke-width:3.0;" d="M 273.736, 527.291 L 267.416, 528.518 L 245.18, 523.949 L 252.288, 516.331 L 265.985, 514.398 z "/>
<path style="fill:rgb(243, 187, 28);fill-opacity:1.0;fill-rule:evenodd;stroke:rgb(0, 0, 0);stroke-width:3.0;" d="M 47.8171, 388.035 L 47.6827, 404.932 L 35.8189, 411.495 L 28.7588, 380.673 z "/>
<path style="fill:rgb(243, 187, 28);fill-opacity:1.0;fill-rule:evenodd;stroke:rgb(0, 0, 0);stroke-width:3.0;" d="M 339.487, 547.941 L 340.792, 561.4 L 291.681, 548.539 L 292.475, 539.924 z "/>
<path style="fill:rgb(255, 32, 10);fill-opacity:1.0;fill-rule:evenodd;stroke:rgb(0, 0, 0);stroke-width:3.0;" d="M 292.475, 539.924 L 291.681, 548.539 L 197.968, 523.997 L 198.58, 523.911 z "/>
<path style="fill:rgb(255, 142, 62);fill-opacity:1.0;fill-rule:evenodd;stroke:rgb(0, 0, 0);stroke-width:3.0;" d="M 622.221, 39.422 L 620.266, 48.337 L 610.007, 45.4901 L 610.808, 35.9364 L 620.093, 35.4816 z "/>
<path style="fill:rgb(17, 72, 255);fill-opacity:1.0;fill-rule:evenodd;stroke:rgb(0, 0, 0);stroke-width:3.0;" d="M 691.532, 257.882 L 695.703, 280.402 L 682.948, 279.764 L 689.103, 257.24 z "/>
<path style="fill:rgb(85, 97, 255);fill-opacity:1.0;fill-rule:evenodd;stroke:rgb(0, 0, 0);stroke-width:3.0;" d="M 507.601, 54.1167 L 505.21, 64.1089 L 476.583, 71.0949 L 476.488, 64.2017 L 494.044, 53.7828 z "/>
<path style="fill:rgb(85, 97, 255);fill-opacity:1.0;fill-rule:evenodd;stroke:rgb(0, 0, 0);stroke-width:3.0;" d="M 164.122, 50.5833 L 158.163, 64.5975 L 153.911, 66.5838 L 134.006, 63.0076 L 156.629, 49.9397 z "/>
<path style="fill:rgb(85, 97, 255);fill-opacity:1.0;fill-rule:evenodd;stroke:rgb(0, 0, 0);stroke-width:3.0;" d="M 140.889, 98.1974 L 121.035, 113.902 L 115.531, 100.897 L 113.209, 72.68 z "/>
<path style="fill:rgb(243, 7, 6);fill-opacity:1.0;fill-rule:evenodd;stroke:rgb(0, 0, 0);stroke-width:3.0;" d="M 47.9267, 374.254 L 47.8171, 388.035 L 28.7588, 380.673 L 27.3147, 374.369 L 28.1311, 359.511 z "/>
<path style="fill:rgb(43, 72, 255);fill-opacity:1.0;fill-rule:evenodd;stroke:rgb(0, 0, 0);stroke-width:3.0;" d="M 123.417, 216.36 L 111.014, 216.543 L 109.938, 199.652 L 120.818, 195.172 z "/>
<path style="fill:rgb(61, 199, 255);fill-opacity:1.0;fill-rule:evenodd;stroke:rgb(0, 0, 0);stroke-width:3.0;" d="M 141.21, 48.6151 L 43.3599, 40.2092 L 30.0439, 24.2077 L 58.1171, 12.8187 z "/>
<path style="fill:rgb(252, 9, 8);fill-opacity:1.0;fill-rule:evenodd;stroke:rgb(0, 0, 0);stroke-width:3.0;" d="M 338.91, 141.367 L 334.727, 145.474 L 324.191, 148.732 L 339.375, 120.921 L 341.38, 120.832 z "/>
<path style="fill:rgb(255, 12, 20);fill-opacity:1.0;fill-rule:evenodd;stroke:rgb(0, 0, 0);stroke-width:3.0;" d="M 617.912, 199.808 L 638.4, 243.344 L 633.161, 242.04 L 566.298, 139.936 L 569.313, 130.207 z "/>
<path style="fill:rgb(255, 12, 20);fill-opacity:1.0;fill-rule:evenodd;stroke:rgb(0, 0, 0);stroke-width:3.0;" d="M 158.2, 84.5036 L 149.842, 85.3933 L 145.901, 82.7352 L 145.471, 79.3079 L 168.878, 76.0573 z "/>
<path style="fill:rgb(255, 231, 15);fill-opacity:1.0;fill-rule:evenodd;stroke:rgb(0, 0, 0);stroke-width:3.0;" d="M 335.905, 510.996 L 327.69, 519.263 L 322.116, 511.338 L 329.532, 505.43 L 335.287, 504.618 z "/>
<path style="fill:rgb(255, 231, 15);fill-opacity:1.0;fill-rule:evenodd;stroke:rgb(0, 0, 0);stroke-width:3.0;" d="M 252.848, 158.18 L 252.065, 158.982 L 238.051, 143.992 L 250.197, 134.765 z "/>
<path style="fill:rgb(163, 85, 255);fill-opacity:1.0;fill-rule:evenodd;stroke:rgb(0, 0, 0);stroke-width:3.0;" d="M 143.744, 262.86 L 125.46, 350.972 L 47.503, 427.525 L 48.1506, 346.111 L 129.614, 245.33 z "/>
<path style="fill:rgb(69, 2, 255);fill-opacity:1.0;fill-rule:evenodd;stroke:rgb(0, 0, 0);stroke-width:3.0;" d="M 223.111, 20.1236 L 215.784, 27.4914 L 190.806, 31.4024 L 219.901, 19.5224 z "/>
<path style="fill:rgb(255, 192, 102);fill-opacity:1.0;fill-rule:evenodd;stroke:rgb(0, 0, 0);stroke-width:3.0;" d="M 25.7008, 319.213 L 19.1863, 338.187 L 17.4385, 337.831 L 15.7389, 314.753 z "/>
<path style="fill:rgb(46, 255, 163);fill-opacity:1.0;fill-rule:evenodd;stroke:rgb(0, 0, 0);stroke-width:3.0;" d="M 510.205, 87.5244 L 498.354, 92.7605 L 506.633, 58.1636 z "/>
<path style="fill:rgb(255, 10, 7);fill-opacity:1.0;fill-rule:evenodd;stroke:rgb(0, 0, 0);stroke-width:3.0;" d="M 34.8785, 328.279 L 33.7682, 332.948 L 26.5929, 339.697 L 19.1863, 338.187 L 24.508, 322.687 z "/>
<path style="fill:rgb(255, 128, 79);fill-opacity:1.0;fill-rule:evenodd;stroke:rgb(0, 0, 0);stroke-width:3.0;" d="M 47.503, 427.525 L 40.9623, 433.948 L 35.8189, 411.495 L 47.6827, 404.932 z "/>
<path style="fill:rgb(255, 128, 79);fill-opacity:1.0;fill-rule:evenodd;stroke:rgb(0, 0, 0);stroke-width:3.0;" d="M 702.369, 316.394 L 691.591, 331.267 L 677.712, 310.074 L 699.716, 302.07 z "/>
<path style="fill:rgb(255, 48, 39);fill-opacity:1.0;fill-rule:evenodd;stroke:rgb(0, 0, 0);stroke-width:3.0;" d="M 341.933, 116.236 L 323.662, 149.701 L 317.568, 134.038 L 342.084, 114.982 z "/>
<path style="fill:rgb(255, 255, 57);fill-opacity:1.0;fill-rule:evenodd;stroke:rgb(0, 0, 0);stroke-width:3.0;" d="M 342.99, 107.456 L 342.084, 114.982 L 317.568, 134.038 L 313.063, 122.458 L 326.966, 101.773 z "/>
<path style="fill:rgb(102, 192, 255);fill-opacity:1.0;fill-rule:evenodd;stroke:rgb(0, 0, 0);stroke-width:3.0;" d="M 570.556, 126.194 L 559.686, 111.192 L 578.213, 101.477 z "/>
<path style="fill:rgb(255, 223, 56);fill-opacity:1.0;fill-rule:evenodd;stroke:rgb(0, 0, 0);stroke-width:3.0;" d="M 373.676, 13.2177 L 340.018, 44.8781 L 329.516, 50.926 L 335.937, 34.5955 L 370.085, 12.3978 z "/>
<path style="fill:rgb(255, 223, 56);fill-opacity:1.0;fill-rule:evenodd;stroke:rgb(0, 0, 0);stroke-width:3.0;" d="M 258.648, 209.412 L 259.745, 219.105 L 218.878, 259.237 L 206.158, 212.149 L 219.637, 177.796 z "/>
<path style="fill:rgb(255, 223, 56);fill-opacity:1.0;fill-rule:evenodd;stroke:rgb(0, 0, 0);stroke-width:3.0;" d="M 278.618, 200.573 L 259.745, 219.105 L 258.067, 204.28 L 269.044, 187.948 L 274.635, 184.209 z "/>
<path style="fill:rgb(243, 43, 146);fill-opacity:1.0;fill-rule:evenodd;stroke:rgb(0, 0, 0);stroke-width:3.0;" d="M 109.873, 426.037 L 90.5445, 419.258 L 83.3688, 405.974 L 104.69, 399.729 z "/>
<path style="fill:rgb(82, 19, 220);fill-opacity:1.0;fill-rule:evenodd;stroke:rgb(0, 0, 0);stroke-width:3.0;" d="M 154.824, 22.668 L 154.879, 23.955 L 137.982, 37.8358 L 134.342, 31.5007 L 150.188, 17.6371 z "/>
<path style="fill:rgb(82, 19, 220);fill-opacity:1.0;fill-rule:evenodd;stroke:rgb(0, 0, 0);stroke-width:3.0;" d="M 69.013, 286.757 L 68.4391, 300.335 L 57.2575, 310.853 L 63.7624, 283.819 z "/>
<path style="fill:rgb(128, 223, 255);fill-opacity:1.0;fill-rule:evenodd;stroke:rgb(0, 0, 0);stroke-width:3.0;" d="M 725.133, 148.572 L 694.524, 155.331 L 716.301, 141.657 L 729.737, 141.068 z "/>
<path style="fill:rgb(243, 8, 23);fill-opacity:1.0;fill-rule:evenodd;stroke:rgb(0, 0, 0);stroke-width:3.0;" d="M 580.213, 57.7417 L 565.052, 52.8824 L 564.518, 47.2618 L 567.393, 30.8341 z "/>
<path style="fill:rgb(209, 255, 60);fill-opacity:1.0;fill-rule:evenodd;stroke:rgb(0, 0, 0);stroke-width:3.0;" d="M 650.395, 246.328 L 638.4, 243.344 L 617.912, 199.808 z "/>
<path style="fill:rgb(209, 255, 60);fill-opacity:1.0;fill-rule:evenodd;stroke:rgb(0, 0, 0);stroke-width:3.0;" d="M 169.488, 30.4792 L 153.804, 37.1959 L 140.65, 39.2555 L 150.582, 27.4848 L 167.033, 13.9701 z "/>
<path style="fill:rgb(15, 255, 255);fill-opacity:1.0;fill-rule:evenodd;stroke:rgb(0, 0, 0);stroke-width:3.0;" d="M 551.051, 29.1523 L 548.689, 31.89 L 540.622, 31.5138 L 551.735, 9.64011 z "/>
<path style="fill:rgb(255, 9, 255);fill-opacity:1.0;fill-rule:evenodd;stroke:rgb(0, 0, 0);stroke-width:3.0;" d="M 44.9405, 105.076 L 45.6407, 58.9351 L 51.4012, 53.7093 L 66.2096, 46.5652 z "/>
<path style="fill:rgb(240, 165, 8);fill-opacity:1.0;fill-rule:evenodd;stroke:rgb(0, 0, 0);stroke-width:3.0;" d="M 219.637, 177.796 L 206.158, 212.149 L 197.25, 179.171 L 208.396, 168.686 z "/>
<path style="fill:rgb(255, 228, 8);fill-opacity:1.0;fill-rule:evenodd;stroke:rgb(0, 0, 0);stroke-width:3.0;" d="M 744.74, 424.138 L 728.543, 420.073 L 723.168, 405.296 L 725.418, 402.498 L 731.593, 400.996 z "/>
<path style="fill:rgb(231, 1, 123);fill-opacity:1.0;fill-rule:evenodd;stroke:rgb(0, 0, 0);stroke-width:3.0;" d="M 51.975, 185.705 L 49.7726, 213.374 L 32.8653, 207.346 L 15.2592, 186.729 L 18.3091, 178.339 z "/>
</svg>