<?xml version="1.0" encoding="iso-8859-1" standalone="no"?>
<!DOCTYPE svg PUBLIC "-//W3C//DTD SVG 1.0//EN" "http://www.w3.org/TR/2001/REC-SVG-20010904/DTD/svg10.dtd">
<svg xmlns="http://www.w3.org/2000/svg" width="800" height="600">
<path style="fill:rgb(0, 0, 0);fill-opacity:0.0;fill-rule:evenodd;stroke:rgb(0, 0, 0);stroke-width:0.0;" d="M 0, 600 L 800, 600 L 800, 0 L 0, 0 z "/>
<path style="fill:rgb(52, 66, 255);fill-opacity:1.0;fill-rule:evenodd;stroke:rgb(0, 0, 0);stroke-width:3.0;" d="M 525.869, 224.658 L 378.439, 332.438 L 361.827, 315.981 L 481.105, 224.369 z "/>
<path style="fill:rgb(46, 252, 117);fill-opacity:1.0;fill-rule:evenodd;stroke:rgb(0, 0, 0);stroke-width:3.0;" d="M 159.266, 346.597 L 170.812, 358.145 L 136.242, 361.537 L 156.775, 346.365 z "/>
<path style="fill:rgb(46, 252, 117);fill-opacity:1.0;fill-rule:evenodd;stroke:rgb(0, 0, 0);stroke-width:3.0;" d="M 74.3391, 440.756 L 81.4213, 505.313 L 74.0961, 510.068 L 72.1473, 510.472 L 51.3691, 436.003 z "/>
<path style="fill:rgb(46, 252, 117);fill-opacity:1.0;fill-rule:evenodd;stroke:rgb(0, 0, 0);stroke-width:3.0;" d="M 525.869, 224.658 L 481.105, 224.369 L 564.467, 160.342 L 695.091, 100.947 z "/>
<path style="fill:rgb(243, 30, 9);fill-opacity:1.0;fill-rule:evenodd;stroke:rgb(0, 0, 0);stroke-width:3.0;" d="M 137.033, 552.612 L 83.7408, 526.456 L 78.1825, 475.79 L 124.916, 464.891 z "/>
<path style="fill:rgb(243, 30, 9);fill-opacity:1.0;fill-rule:evenodd;stroke:rgb(0, 0, 0);stroke-width:3.0;" d="M 352.058, 524.517 L 402.53, 563.684 L 292.274, 550.239 L 286.503, 506.258 z "/>
<path style="fill:rgb(255, 38, 228);fill-opacity:1.0;fill-rule:evenodd;stroke:rgb(0, 0, 0);stroke-width:3.0;" d="M 189.131, 493.513 L 164.819, 539.972 L 126.85, 478.892 L 123.628, 455.568 L 158.897, 436.016 z "/>
<path style="fill:rgb(246, 209, 14);fill-opacity:1.0;fill-rule:evenodd;stroke:rgb(0, 0, 0);stroke-width:3.0;" d="M 103.359, 308.83 L 103.374, 308.94 L 74.0921, 348.461 L 87.1186, 306.509 z "/>
<path style="fill:rgb(246, 209, 14);fill-opacity:1.0;fill-rule:evenodd;stroke:rgb(0, 0, 0);stroke-width:3.0;" d="M 28.1963, 378.615 L 24.6507, 387.601 L 22.9789, 390.094 L 14.8972, 390.88 L 15.4468, 388.737 L 26.466, 372.101 z "/>
<path style="fill:rgb(246, 209, 14);fill-opacity:1.0;fill-rule:evenodd;stroke:rgb(0, 0, 0);stroke-width:3.0;" d="M 359.402, 313.58 L 387.49, 396.576 L 365.362, 390.995 L 295.751, 250.527 z "/>
<path style="fill:rgb(246, 209, 14);fill-opacity:1.0;fill-rule:evenodd;stroke:rgb(0, 0, 0);stroke-width:3.0;" d="M 108.266, 236.576 L 91.2397, 221.098 L 91.2165, 220.93 L 98.3121, 213.971 z "/>
<path style="fill:rgb(246, 209, 14);fill-opacity:1.0;fill-rule:evenodd;stroke:rgb(0, 0, 0);stroke-width:3.0;" d="M 652.357, 568.778 L 644.772, 575.551 L 615.266, 549.647 z "/>
<path style="fill:rgb(252, 197, 37);fill-opacity:1.0;fill-rule:evenodd;stroke:rgb(0, 0, 0);stroke-width:3.0;" d="M 40.4474, 25.5261 L 35.3217, 29.1883 L 18.2151, 27.0863 L 27.5827, 18.6414 L 37.3014, 16.5786 z "/>
<path style="fill:rgb(252, 197, 37);fill-opacity:1.0;fill-rule:evenodd;stroke:rgb(0, 0, 0);stroke-width:3.0;" d="M 169.145, 309.588 L 169.625, 310.339 L 160.115, 325.128 L 158.693, 319.118 L 158.656, 308.196 L 165.281, 307.786 z "/>
<path style="fill:rgb(252, 197, 37);fill-opacity:1.0;fill-rule:evenodd;stroke:rgb(0, 0, 0);stroke-width:3.0;" d="M 130.99, 345.118 L 107.027, 323.8 L 115.098, 319.096 z "/>
<path style="fill:rgb(252, 197, 37);fill-opacity:1.0;fill-rule:evenodd;stroke:rgb(0, 0, 0);stroke-width:3.0;" d="M 135.037, 91.3231 L 158.582, 197.39 L 70.8513, 73.5013 L 63.5281, 20.4865 z "/>
<path style="fill:rgb(252, 197, 37);fill-opacity:1.0;fill-rule:evenodd;stroke:rgb(0, 0, 0);stroke-width:3.0;" d="M 208.644, 371.24 L 219.422, 388.062 L 215.203, 386.356 L 191.206, 366.874 L 196.508, 366.787 z "/>
<path style="fill:rgb(252, 197, 37);fill-opacity:1.0;fill-rule:evenodd;stroke:rgb(0, 0, 0);stroke-width:3.0;" d="M 112.039, 545.876 L 92.2908, 551.377 L 81.1069, 542.583 L 79.6647, 537.414 z "/>
<path style="fill:rgb(252, 197, 37);fill-opacity:1.0;fill-rule:evenodd;stroke:rgb(0, 0, 0);stroke-width:3.0;" d="M 241.992, 315.178 L 218.854, 327.346 L 212.759, 312.82 L 228.369, 295.941 z "/>
<path style="fill:rgb(252, 197, 37);fill-opacity:1.0;fill-rule:evenodd;stroke:rgb(0, 0, 0);stroke-width:3.0;" d="M 266.155, 386.483 L 260.266, 437.767 L 256.369, 433.818 L 235.81, 371.461 L 244.537, 346.871 z "/>
<path style="fill:rgb(140, 217, 231);fill-opacity:1.0;fill-rule:evenodd;stroke:rgb(0, 0, 0);stroke-width:3.0;" d="M 711.1, 429.781 L 702.403, 437.571 L 691.759, 440.232 L 681.233, 429.04 L 689.758, 427.861 z "/>
<path style="fill:rgb(140, 217, 231);fill-opacity:1.0;fill-rule:evenodd;stroke:rgb(0, 0, 0);stroke-width:3.0;" d="M 23.1249, 569.41 L 17.9423, 570.707 L 5.95333, 544.022 L 18.799, 542.319 z "/>
<path style="fill:rgb(255, 217, 9);fill-opacity:1.0;fill-rule:evenodd;stroke:rgb(0, 0, 0);stroke-width:3.0;" d="M 176.36, 426.335 L 145.264, 443.573 L 120.439, 432.48 L 110.982, 364.015 L 187.103, 356.547 z "/>
<path style="fill:rgb(234, 0, 152);fill-opacity:1.0;fill-rule:evenodd;stroke:rgb(0, 0, 0);stroke-width:3.0;" d="M 92.3604, 279.385 L 94.8489, 281.614 L 79.5608, 330.849 L 39.6014, 393.827 L 9.85961, 287.232 L 20.6306, 272.608 z "/>
<path style="fill:rgb(255, 14, 37);fill-opacity:1.0;fill-rule:evenodd;stroke:rgb(0, 0, 0);stroke-width:3.0;" d="M 131.558, 250.923 L 129.843, 285.578 L 97.5293, 212.193 L 104.663, 208.945 z "/>
<path style="fill:rgb(255, 14, 37);fill-opacity:1.0;fill-rule:evenodd;stroke:rgb(0, 0, 0);stroke-width:3.0;" d="M 65.8062, 36.978 L 48.1774, 66.2177 L 34.5256, 62.7498 L 48.8922, 35.1822 L 64.6131, 28.341 z "/>
<path style="fill:rgb(52, 255, 231);fill-opacity:1.0;fill-rule:evenodd;stroke:rgb(0, 0, 0);stroke-width:3.0;" d="M 326.027, 511.465 L 335.512, 519.908 L 317.531, 514.9 L 311.382, 502.786 z "/>
<path style="fill:rgb(52, 255, 231);fill-opacity:1.0;fill-rule:evenodd;stroke:rgb(0, 0, 0);stroke-width:3.0;" d="M 108.266, 236.576 L 111.979, 245.009 L 100.492, 245.169 L 92.2035, 228.076 L 91.2397, 221.098 z "/>
<path style="fill:rgb(52, 255, 231);fill-opacity:1.0;fill-rule:evenodd;stroke:rgb(0, 0, 0);stroke-width:3.0;" d="M 739.608, 446.751 L 738.303, 459.041 L 676.668, 444.005 L 678.006, 443.671 z "/>
<path style="fill:rgb(52, 255, 231);fill-opacity:1.0;fill-rule:evenodd;stroke:rgb(0, 0, 0);stroke-width:3.0;" d="M 122.437, 433.373 L 131.82, 448.795 L 125.895, 454.311 L 123.628, 455.568 L 120.848, 435.439 L 121.854, 433.113 z "/>
<path style="fill:rgb(33, 237, 140);fill-opacity:1.0;fill-rule:evenodd;stroke:rgb(0, 0, 0);stroke-width:3.0;" d="M 144.307, 322.457 L 158.319, 333.492 L 158.281, 336.487 L 125.947, 316.704 L 125.852, 315.931 z "/>
<path style="fill:rgb(33, 237, 140);fill-opacity:1.0;fill-rule:evenodd;stroke:rgb(0, 0, 0);stroke-width:3.0;" d="M 150.929, 350.685 L 143.455, 356.207 L 130.99, 345.118 L 126.338, 337.501 z "/>
<path style="fill:rgb(249, 252, 14);fill-opacity:1.0;fill-rule:evenodd;stroke:rgb(0, 0, 0);stroke-width:3.0;" d="M 56.4886, 68.3291 L 71.3791, 82.7186 L 21.9302, 66.3178 L 31.0053, 61.8555 z "/>
<path style="fill:rgb(249, 252, 14);fill-opacity:1.0;fill-rule:evenodd;stroke:rgb(0, 0, 0);stroke-width:3.0;" d="M 656.914, 118.306 L 648.946, 121.929 L 655.612, 90.337 L 660.579, 86.5216 z "/>
<path style="fill:rgb(249, 252, 14);fill-opacity:1.0;fill-rule:evenodd;stroke:rgb(0, 0, 0);stroke-width:3.0;" d="M 62.6788, 252.801 L 53.7711, 275.739 L 20.6306, 272.608 L 46.1325, 237.982 z "/>
<path style="fill:rgb(20, 187, 228);fill-opacity:1.0;fill-rule:evenodd;stroke:rgb(0, 0, 0);stroke-width:3.0;" d="M 200.742, 400.078 L 178.313, 413.652 L 182.168, 388.604 z "/>
<path style="fill:rgb(20, 187, 228);fill-opacity:1.0;fill-rule:evenodd;stroke:rgb(0, 0, 0);stroke-width:3.0;" d="M 255.096, 266.93 L 259.905, 303.572 L 258.805, 306.671 L 196.544, 188.784 z "/>
<path style="fill:rgb(204, 82, 150);fill-opacity:1.0;fill-rule:evenodd;stroke:rgb(0, 0, 0);stroke-width:3.0;" d="M 711.718, 69.0184 L 657.123, 116.493 L 660.579, 86.5216 L 738.361, 26.781 z "/>
<path style="fill:rgb(204, 82, 150);fill-opacity:1.0;fill-rule:evenodd;stroke:rgb(0, 0, 0);stroke-width:3.0;" d="M 172.674, 217.291 L 236.522, 369.453 L 226.176, 398.604 L 85.4098, 178.894 L 70.8513, 73.5013 z "/>
<path style="fill:rgb(255, 119, 9);fill-opacity:1.0;fill-rule:evenodd;stroke:rgb(0, 0, 0);stroke-width:3.0;" d="M 122.972, 450.819 L 124.916, 464.891 L 97.6057, 471.26 L 77.6402, 470.846 L 74.3391, 440.756 z "/>
<path style="fill:rgb(237, 194, 21);fill-opacity:1.0;fill-rule:evenodd;stroke:rgb(0, 0, 0);stroke-width:3.0;" d="M 40.4511, 441.564 L 40.4118, 446.067 L 26.6808, 417.323 L 20.9171, 403.089 L 24.0724, 397.721 z "/>
<path style="fill:rgb(237, 194, 21);fill-opacity:1.0;fill-rule:evenodd;stroke:rgb(0, 0, 0);stroke-width:3.0;" d="M 151.163, 566.069 L 145.571, 576.754 L 144.031, 571.549 L 135.996, 533.304 z "/>
<path style="fill:rgb(237, 194, 21);fill-opacity:1.0;fill-rule:evenodd;stroke:rgb(0, 0, 0);stroke-width:3.0;" d="M 267.511, 445.111 L 281.696, 469.627 L 284.275, 489.286 L 270.023, 467.04 L 261.286, 438.802 z "/>
<path style="fill:rgb(18, 231, 234);fill-opacity:1.0;fill-rule:evenodd;stroke:rgb(0, 0, 0);stroke-width:3.0;" d="M 158.281, 336.487 L 158.256, 338.379 L 134.522, 328.373 L 131.237, 319.94 z "/>
<path style="fill:rgb(18, 231, 234);fill-opacity:1.0;fill-rule:evenodd;stroke:rgb(0, 0, 0);stroke-width:3.0;" d="M 194.112, 452.296 L 201.545, 469.791 L 195.781, 480.805 L 192.263, 451.667 z "/>
<path style="fill:rgb(18, 231, 234);fill-opacity:1.0;fill-rule:evenodd;stroke:rgb(0, 0, 0);stroke-width:3.0;" d="M 104.152, 314.573 L 92.0596, 335.683 L 89.925, 327.092 L 103.374, 308.94 z "/>
<path style="fill:rgb(18, 231, 234);fill-opacity:1.0;fill-rule:evenodd;stroke:rgb(0, 0, 0);stroke-width:3.0;" d="M 100.662, 289.307 L 103.359, 308.83 L 90.0847, 306.933 L 87.7279, 304.547 L 93.0607, 287.373 z "/>
<path style="fill:rgb(255, 12, 30);fill-opacity:1.0;fill-rule:evenodd;stroke:rgb(0, 0, 0);stroke-width:3.0;" d="M 105.735, 390.723 L 63.8043, 381.594 L 74.0921, 348.461 L 89.925, 327.092 z "/>
<path style="fill:rgb(255, 12, 30);fill-opacity:1.0;fill-rule:evenodd;stroke:rgb(0, 0, 0);stroke-width:3.0;" d="M 197.298, 577.613 L 152.159, 571.517 L 151.258, 565.887 L 170.848, 528.451 z "/>
<path style="fill:rgb(255, 12, 30);fill-opacity:1.0;fill-rule:evenodd;stroke:rgb(0, 0, 0);stroke-width:3.0;" d="M 92.3604, 279.385 L 53.7711, 275.739 L 56.7861, 267.975 L 76.5636, 265.237 z "/>
<path style="fill:rgb(255, 12, 30);fill-opacity:1.0;fill-rule:evenodd;stroke:rgb(0, 0, 0);stroke-width:3.0;" d="M 256.09, 445.293 L 247.915, 442.244 L 232.603, 410.439 L 233.123, 409.446 z "/>
<path style="fill:rgb(255, 12, 30);fill-opacity:1.0;fill-rule:evenodd;stroke:rgb(0, 0, 0);stroke-width:3.0;" d="M 640.655, 579.227 L 633.773, 585.372 L 587.065, 539.104 L 594.039, 538.538 z "/>
<path style="fill:rgb(7, 2, 170);fill-opacity:1.0;fill-rule:evenodd;stroke:rgb(0, 0, 0);stroke-width:3.0;" d="M 453.551, 235.729 L 438.292, 243.034 L 438.227, 233.428 L 444.351, 218.729 z "/>
<path style="fill:rgb(7, 2, 170);fill-opacity:1.0;fill-rule:evenodd;stroke:rgb(0, 0, 0);stroke-width:3.0;" d="M 628.954, 561.665 L 627.066, 567.366 L 594.039, 538.538 L 601.887, 537.901 z "/>
<path style="fill:rgb(255, 25, 197);fill-opacity:1.0;fill-rule:evenodd;stroke:rgb(0, 0, 0);stroke-width:3.0;" d="M 508.381, 79.8639 L 494.119, 133.951 L 488.229, 113.42 L 504.345, 74.739 z "/>
<path style="fill:rgb(255, 25, 197);fill-opacity:1.0;fill-rule:evenodd;stroke:rgb(0, 0, 0);stroke-width:3.0;" d="M 69.7286, 517.508 L 61.2424, 539.05 L 52.4612, 537.576 L 51.6268, 532.327 L 56.6204, 514.06 z "/>
<path style="fill:rgb(17, 27, 255);fill-opacity:1.0;fill-rule:evenodd;stroke:rgb(0, 0, 0);stroke-width:3.0;" d="M 352.058, 524.517 L 335.512, 519.908 L 307.391, 494.878 L 309.915, 491.813 z "/>
<path style="fill:rgb(255, 252, 16);fill-opacity:1.0;fill-rule:evenodd;stroke:rgb(0, 0, 0);stroke-width:3.0;" d="M 143.455, 356.207 L 136.242, 361.537 L 112.894, 363.828 L 116.974, 332.649 z "/>
<path style="fill:rgb(240, 252, 36);fill-opacity:1.0;fill-rule:evenodd;stroke:rgb(0, 0, 0);stroke-width:3.0;" d="M 462.604, 415.812 L 378.439, 332.438 L 682.741, 109.976 z "/>
<path style="fill:rgb(240, 252, 36);fill-opacity:1.0;fill-rule:evenodd;stroke:rgb(0, 0, 0);stroke-width:3.0;" d="M 58.9862, 581.232 L 55.1963, 589.465 L 52.5139, 590.943 L 41.3126, 589.642 L 56.6496, 550.709 z "/>
<path style="fill:rgb(240, 252, 36);fill-opacity:1.0;fill-rule:evenodd;stroke:rgb(0, 0, 0);stroke-width:3.0;" d="M 648.946, 121.929 L 648.061, 122.332 L 638.486, 104.238 L 638.695, 103.33 L 655.612, 90.337 z "/>
<path style="fill:rgb(240, 252, 36);fill-opacity:1.0;fill-rule:evenodd;stroke:rgb(0, 0, 0);stroke-width:3.0;" d="M 442.678, 559.648 L 445.831, 568.964 L 402.53, 563.684 L 316.839, 497.186 L 360.85, 495.725 z "/>
<path style="fill:rgb(240, 252, 36);fill-opacity:1.0;fill-rule:evenodd;stroke:rgb(0, 0, 0);stroke-width:3.0;" d="M 661.982, 475.374 L 604.535, 512.762 L 600.451, 509.407 L 646.31, 459.929 z "/>
<path style="fill:rgb(168, 0, 11);fill-opacity:1.0;fill-rule:evenodd;stroke:rgb(0, 0, 0);stroke-width:3.0;" d="M 98.3121, 213.971 L 92.6425, 219.531 L 90.79, 217.843 L 86.5722, 187.309 z "/>
<path style="fill:rgb(168, 0, 11);fill-opacity:1.0;fill-rule:evenodd;stroke:rgb(0, 0, 0);stroke-width:3.0;" d="M 113.799, 277.335 L 115.094, 291.099 L 102.204, 300.476 L 96.0999, 256.282 L 102.478, 251.833 z "/>
<path style="fill:rgb(168, 0, 11);fill-opacity:1.0;fill-rule:evenodd;stroke:rgb(0, 0, 0);stroke-width:3.0;" d="M 74.8742, 546.717 L 58.9862, 581.232 L 56.6496, 550.709 L 59.0549, 544.603 z "/>
<path style="fill:rgb(252, 0, 252);fill-opacity:1.0;fill-rule:evenodd;stroke:rgb(0, 0, 0);stroke-width:3.0;" d="M 82.0373, 154.48 L 52.6834, 172.548 L 44.8195, 166.89 L 80.3236, 142.074 z "/>
<path style="fill:rgb(252, 249, 102);fill-opacity:1.0;fill-rule:evenodd;stroke:rgb(0, 0, 0);stroke-width:3.0;" d="M 513.025, 199.852 L 457.299, 242.653 L 444.351, 218.729 L 488.229, 113.42 z "/>
<path style="fill:rgb(140, 52, 70);fill-opacity:1.0;fill-rule:evenodd;stroke:rgb(0, 0, 0);stroke-width:3.0;" d="M 726.068, 36.2223 L 600.852, 132.396 L 643.555, 44.8551 L 748.392, 7.78966 z "/>
<path style="fill:rgb(10, 252, 234);fill-opacity:1.0;fill-rule:evenodd;stroke:rgb(0, 0, 0);stroke-width:3.0;" d="M 81.37, 543.526 L 71.7893, 541.47 L 68.7455, 535.488 L 77.1413, 528.37 z "/>
<path style="fill:rgb(255, 85, 35);fill-opacity:1.0;fill-rule:evenodd;stroke:rgb(0, 0, 0);stroke-width:3.0;" d="M 141.242, 589.868 L 138.101, 590.719 L 118.238, 588.043 L 121.881, 574.644 z "/>
<path style="fill:rgb(255, 85, 35);fill-opacity:1.0;fill-rule:evenodd;stroke:rgb(0, 0, 0);stroke-width:3.0;" d="M 82.5464, 547.742 L 86.4948, 561.893 L 58.0597, 587.888 L 55.1963, 589.465 L 74.8742, 546.717 z "/>
<path style="fill:rgb(255, 85, 35);fill-opacity:1.0;fill-rule:evenodd;stroke:rgb(0, 0, 0);stroke-width:3.0;" d="M 253.872, 352.355 L 265.803, 374.678 L 263.836, 377.659 L 260.161, 375.499 L 249.271, 355.545 L 250.915, 352.034 z "/>
<path style="fill:rgb(12, 163, 255);fill-opacity:1.0;fill-rule:evenodd;stroke:rgb(0, 0, 0);stroke-width:3.0;" d="M 29.5364, 357.754 L 32.9792, 370.093 L 30.241, 386.312 L 19.4431, 345.663 z "/>
<path style="fill:rgb(12, 163, 255);fill-opacity:1.0;fill-rule:evenodd;stroke:rgb(0, 0, 0);stroke-width:3.0;" d="M 139.881, 573.226 L 142.294, 590.696 L 116.213, 570.187 z "/>
<path style="fill:rgb(12, 163, 255);fill-opacity:1.0;fill-rule:evenodd;stroke:rgb(0, 0, 0);stroke-width:3.0;" d="M 105.735, 390.723 L 120.543, 450.317 L 51.3691, 436.003 L 49.2586, 428.438 L 63.8043, 381.594 z "/>
<path style="fill:rgb(12, 163, 255);fill-opacity:1.0;fill-rule:evenodd;stroke:rgb(0, 0, 0);stroke-width:3.0;" d="M 192.263, 451.667 L 195.781, 480.805 L 189.131, 493.513 L 161.657, 441.265 z "/>
<path style="fill:rgb(12, 163, 255);fill-opacity:1.0;fill-rule:evenodd;stroke:rgb(0, 0, 0);stroke-width:3.0;" d="M 429.189, 519.792 L 442.678, 559.648 L 360.85, 495.725 L 416.35, 493.882 z "/>
<path style="fill:rgb(12, 163, 255);fill-opacity:1.0;fill-rule:evenodd;stroke:rgb(0, 0, 0);stroke-width:3.0;" d="M 127.448, 547.908 L 116.366, 555.036 L 102.187, 548.621 L 119.228, 543.873 z "/>
<path style="fill:rgb(98, 234, 255);fill-opacity:1.0;fill-rule:evenodd;stroke:rgb(0, 0, 0);stroke-width:3.0;" d="M 64.5555, 216.042 L 61.7784, 251.995 L 46.1325, 237.982 L 62.7545, 215.413 z "/>
<path style="fill:rgb(98, 234, 255);fill-opacity:1.0;fill-rule:evenodd;stroke:rgb(0, 0, 0);stroke-width:3.0;" d="M 88.993, 570.847 L 58.0597, 587.888 L 86.4948, 561.893 z "/>
<path style="fill:rgb(98, 234, 255);fill-opacity:1.0;fill-rule:evenodd;stroke:rgb(0, 0, 0);stroke-width:3.0;" d="M 758.748, 570.738 L 755.839, 573.944 L 744.384, 572.551 L 747.704, 562.024 L 749.129, 561.258 z "/>
<path style="fill:rgb(98, 234, 255);fill-opacity:1.0;fill-rule:evenodd;stroke:rgb(0, 0, 0);stroke-width:3.0;" d="M 648.061, 122.332 L 632.699, 129.317 L 638.486, 104.238 z "/>
<path style="fill:rgb(246, 249, 14);fill-opacity:1.0;fill-rule:evenodd;stroke:rgb(0, 0, 0);stroke-width:3.0;" d="M 467.125, 164.07 L 450.821, 132.416 L 499.329, 86.7777 z "/>
<path style="fill:rgb(246, 249, 14);fill-opacity:1.0;fill-rule:evenodd;stroke:rgb(0, 0, 0);stroke-width:3.0;" d="M 91.8591, 225.582 L 98.1365, 271.026 L 94.8489, 281.614 L 61.7784, 251.995 L 64.5555, 216.042 z "/>
<path style="fill:rgb(231, 228, 7);fill-opacity:1.0;fill-rule:evenodd;stroke:rgb(0, 0, 0);stroke-width:3.0;" d="M 659.192, 463.43 L 735.665, 483.903 L 729.507, 541.921 L 648.41, 461.999 z "/>
<path style="fill:rgb(231, 228, 7);fill-opacity:1.0;fill-rule:evenodd;stroke:rgb(0, 0, 0);stroke-width:3.0;" d="M 272.225, 397.604 L 266.893, 431.557 L 266.42, 431.503 L 262.519, 418.145 L 265.816, 389.44 L 267.35, 388.671 z "/>
<path style="fill:rgb(199, 234, 8);fill-opacity:1.0;fill-rule:evenodd;stroke:rgb(0, 0, 0);stroke-width:3.0;" d="M 121.881, 574.644 L 118.238, 588.043 L 107.871, 586.647 L 108.13, 575.785 L 118.644, 572.099 z "/>
<path style="fill:rgb(199, 234, 8);fill-opacity:1.0;fill-rule:evenodd;stroke:rgb(0, 0, 0);stroke-width:3.0;" d="M 40.5933, 425.284 L 40.4511, 441.564 L 24.0724, 397.721 L 30.4086, 386.943 z "/>
<path style="fill:rgb(255, 121, 255);fill-opacity:1.0;fill-rule:evenodd;stroke:rgb(0, 0, 0);stroke-width:3.0;" d="M 695.091, 100.947 L 682.177, 106.819 L 734.623, 59.2582 L 772.206, 44.5714 z "/>
<path style="fill:rgb(249, 255, 69);fill-opacity:1.0;fill-rule:evenodd;stroke:rgb(0, 0, 0);stroke-width:3.0;" d="M 219.422, 388.062 L 220.44, 389.651 L 203.45, 401.752 L 182.168, 388.604 L 184.43, 373.912 z "/>
<path style="fill:rgb(249, 255, 69);fill-opacity:1.0;fill-rule:evenodd;stroke:rgb(0, 0, 0);stroke-width:3.0;" d="M 54.3882, 549.699 L 40.4255, 573.302 L 51.6268, 532.327 z "/>
<path style="fill:rgb(249, 255, 69);fill-opacity:1.0;fill-rule:evenodd;stroke:rgb(0, 0, 0);stroke-width:3.0;" d="M 45.2182, 413.958 L 36.0362, 408.129 L 33.3799, 398.129 L 40.4243, 396.776 z "/>
<path style="fill:rgb(249, 255, 69);fill-opacity:1.0;fill-rule:evenodd;stroke:rgb(0, 0, 0);stroke-width:3.0;" d="M 472.084, 539.621 L 469.174, 548.044 L 435.912, 539.656 L 425.168, 507.908 z "/>
<path style="fill:rgb(249, 255, 69);fill-opacity:1.0;fill-rule:evenodd;stroke:rgb(0, 0, 0);stroke-width:3.0;" d="M 86.0796, 183.743 L 53.8886, 227.451 L 28.5949, 229.574 L 9.9833, 198.831 L 82.0373, 154.48 z "/>
<path style="fill:rgb(255, 231, 45);fill-opacity:1.0;fill-rule:evenodd;stroke:rgb(0, 0, 0);stroke-width:3.0;" d="M 52.7805, 441.061 L 45.2549, 442.833 L 44.1477, 438.665 L 45.7818, 415.978 z "/>
<path style="fill:rgb(255, 50, 37);fill-opacity:1.0;fill-rule:evenodd;stroke:rgb(0, 0, 0);stroke-width:3.0;" d="M 131.237, 319.94 L 141.176, 345.456 L 126.338, 337.501 L 115.098, 319.096 L 122.657, 314.691 z "/>
<path style="fill:rgb(255, 179, 36);fill-opacity:1.0;fill-rule:evenodd;stroke:rgb(0, 0, 0);stroke-width:3.0;" d="M 158.192, 343.384 L 158.167, 345.336 L 150.929, 350.685 L 141.176, 345.456 L 138.051, 337.433 z "/>
<path style="fill:rgb(255, 209, 14);fill-opacity:1.0;fill-rule:evenodd;stroke:rgb(0, 0, 0);stroke-width:3.0;" d="M 119.228, 543.873 L 112.039, 545.876 L 79.6647, 537.414 L 78.2348, 532.289 L 91.0554, 530.046 z "/>
<path style="fill:rgb(255, 209, 14);fill-opacity:1.0;fill-rule:evenodd;stroke:rgb(0, 0, 0);stroke-width:3.0;" d="M 387.49, 396.576 L 429.189, 519.792 L 365.362, 390.995 z "/>
<path style="fill:rgb(255, 209, 14);fill-opacity:1.0;fill-rule:evenodd;stroke:rgb(0, 0, 0);stroke-width:3.0;" d="M 247.915, 442.244 L 221.179, 432.271 L 232.603, 410.439 z "/>
<path style="fill:rgb(255, 209, 14);fill-opacity:1.0;fill-rule:evenodd;stroke:rgb(0, 0, 0);stroke-width:3.0;" d="M 154.809, 295.953 L 138.577, 305.413 L 135.195, 297.733 L 154.233, 291.752 z "/>
<path style="fill:rgb(249, 71, 9);fill-opacity:1.0;fill-rule:evenodd;stroke:rgb(0, 0, 0);stroke-width:3.0;" d="M 283.631, 453.107 L 415.024, 491.207 L 416.35, 493.882 L 316.839, 497.186 L 281.738, 469.947 L 279.424, 452.318 z "/>
<path style="fill:rgb(249, 71, 9);fill-opacity:1.0;fill-rule:evenodd;stroke:rgb(0, 0, 0);stroke-width:3.0;" d="M 629.737, 557.111 L 615.266, 549.647 L 610.343, 545.324 L 625.306, 543.653 z "/>
<path style="fill:rgb(249, 71, 9);fill-opacity:1.0;fill-rule:evenodd;stroke:rgb(0, 0, 0);stroke-width:3.0;" d="M 742.003, 589.193 L 741.365, 589.896 L 736.605, 592.09 L 726.029, 574.112 L 731.589, 572.849 z "/>
<path style="fill:rgb(17, 223, 199);fill-opacity:1.0;fill-rule:evenodd;stroke:rgb(0, 0, 0);stroke-width:3.0;" d="M 156.082, 112.171 L 254.93, 299.334 L 245.184, 319.686 L 158.582, 197.39 L 135.037, 91.3231 z "/>
<path style="fill:rgb(17, 223, 199);fill-opacity:1.0;fill-rule:evenodd;stroke:rgb(0, 0, 0);stroke-width:3.0;" d="M 98.5107, 556.269 L 105.126, 576.838 L 91.9532, 581.456 L 88.6534, 569.63 L 97.212, 555.431 z "/>
<path style="fill:rgb(217, 100, 95);fill-opacity:1.0;fill-rule:evenodd;stroke:rgb(0, 0, 0);stroke-width:3.0;" d="M 158.725, 301.823 L 158.513, 318.362 L 147.367, 324.867 L 129.432, 310.742 L 146.129, 301.011 z "/>
<path style="fill:rgb(217, 100, 95);fill-opacity:1.0;fill-rule:evenodd;stroke:rgb(0, 0, 0);stroke-width:3.0;" d="M 98.5204, 556.276 L 118.644, 572.099 L 105.126, 576.838 L 98.5107, 556.269 z "/>
<path style="fill:rgb(252, 56, 246);fill-opacity:1.0;fill-rule:evenodd;stroke:rgb(0, 0, 0);stroke-width:3.0;" d="M 741.122, 432.483 L 739.608, 446.751 L 678.006, 443.671 L 727.614, 431.267 z "/>
<path style="fill:rgb(252, 56, 246);fill-opacity:1.0;fill-rule:evenodd;stroke:rgb(0, 0, 0);stroke-width:3.0;" d="M 123.909, 313.961 L 105.546, 324.663 L 103.289, 308.325 L 115.792, 303.861 z "/>
<path style="fill:rgb(31, 13, 207);fill-opacity:1.0;fill-rule:evenodd;stroke:rgb(0, 0, 0);stroke-width:3.0;" d="M 116.662, 332.371 L 116.974, 332.649 L 112.894, 363.828 L 110.982, 364.015 L 105.737, 326.05 z "/>
<path style="fill:rgb(31, 13, 207);fill-opacity:1.0;fill-rule:evenodd;stroke:rgb(0, 0, 0);stroke-width:3.0;" d="M 736.745, 473.722 L 735.665, 483.903 L 659.192, 463.43 z "/>
<path style="fill:rgb(255, 192, 18);fill-opacity:1.0;fill-rule:evenodd;stroke:rgb(0, 0, 0);stroke-width:3.0;" d="M 238.972, 381.317 L 239.305, 404.602 L 237.83, 404.194 L 231.209, 384.425 L 232.694, 380.239 z "/>
<path style="fill:rgb(255, 152, 255);fill-opacity:1.0;fill-rule:evenodd;stroke:rgb(0, 0, 0);stroke-width:3.0;" d="M 105.849, 550.277 L 107.808, 560.54 L 105.683, 561.907 L 92.2908, 551.377 L 102.187, 548.621 z "/>
<path style="fill:rgb(255, 152, 255);fill-opacity:1.0;fill-rule:evenodd;stroke:rgb(0, 0, 0);stroke-width:3.0;" d="M 40.3484, 453.317 L 13.8571, 481.548 L 6.65425, 478.648 L 5.34276, 472.692 L 40.4002, 447.393 z "/>
<path style="fill:rgb(255, 152, 255);fill-opacity:1.0;fill-rule:evenodd;stroke:rgb(0, 0, 0);stroke-width:3.0;" d="M 236.301, 215.945 L 249.801, 226.575 L 255.096, 266.93 L 215.987, 214.733 z "/>
<path style="fill:rgb(255, 152, 255);fill-opacity:1.0;fill-rule:evenodd;stroke:rgb(0, 0, 0);stroke-width:3.0;" d="M 682.177, 106.819 L 670.658, 112.057 L 683.531, 98.6297 L 705.63, 85.5506 z "/>
<path style="fill:rgb(255, 152, 255);fill-opacity:1.0;fill-rule:evenodd;stroke:rgb(0, 0, 0);stroke-width:3.0;" d="M 77.6049, 16.5892 L 70.8999, 25.3052 L 54.5578, 9.86755 z "/>
<path style="fill:rgb(255, 152, 255);fill-opacity:1.0;fill-rule:evenodd;stroke:rgb(0, 0, 0);stroke-width:3.0;" d="M 83.7408, 526.456 L 75.4754, 522.4 L 72.1473, 510.472 L 81.7684, 508.478 z "/>
<path style="fill:rgb(252, 0, 9);fill-opacity:1.0;fill-rule:evenodd;stroke:rgb(0, 0, 0);stroke-width:3.0;" d="M 632.699, 129.317 L 614.988, 137.37 L 599.372, 133.533 L 638.695, 103.33 z "/>
<path style="fill:rgb(255, 12, 7);fill-opacity:1.0;fill-rule:evenodd;stroke:rgb(0, 0, 0);stroke-width:3.0;" d="M 194.678, 150.404 L 177.135, 152.034 L 156.082, 112.171 z "/>
<path style="fill:rgb(255, 12, 7);fill-opacity:1.0;fill-rule:evenodd;stroke:rgb(0, 0, 0);stroke-width:3.0;" d="M 122.972, 450.819 L 120.543, 450.317 L 92.0596, 335.683 L 104.152, 314.573 z "/>
<path style="fill:rgb(255, 12, 7);fill-opacity:1.0;fill-rule:evenodd;stroke:rgb(0, 0, 0);stroke-width:3.0;" d="M 138.577, 305.413 L 130.793, 309.949 L 115.462, 303.45 L 109.062, 295.486 L 128.106, 281.633 z "/>
<path style="fill:rgb(255, 52, 199);fill-opacity:1.0;fill-rule:evenodd;stroke:rgb(0, 0, 0);stroke-width:3.0;" d="M 89.7984, 210.664 L 91.8591, 225.582 L 62.7545, 215.413 L 75.9754, 197.462 z "/>
<path style="fill:rgb(212, 52, 79);fill-opacity:1.0;fill-rule:evenodd;stroke:rgb(0, 0, 0);stroke-width:3.0;" d="M 55.0301, 553.738 L 35.5028, 591.309 L 40.4255, 573.302 L 54.3882, 549.699 z "/>
<path style="fill:rgb(35, 255, 255);fill-opacity:1.0;fill-rule:evenodd;stroke:rgb(0, 0, 0);stroke-width:3.0;" d="M 52.9426, 502.656 L 39.8773, 507.245 L 40.0245, 490.395 L 48.696, 489.954 z "/>
<path style="fill:rgb(43, 33, 179);fill-opacity:1.0;fill-rule:evenodd;stroke:rgb(0, 0, 0);stroke-width:3.0;" d="M 48.696, 489.954 L 40.0245, 490.395 L 40.2491, 464.688 z "/>
<path style="fill:rgb(255, 189, 15);fill-opacity:1.0;fill-rule:evenodd;stroke:rgb(0, 0, 0);stroke-width:3.0;" d="M 305.099, 488.075 L 307.512, 494.731 L 301.122, 502.489 L 285.534, 498.88 L 281.738, 469.947 z "/>
<path style="fill:rgb(255, 189, 15);fill-opacity:1.0;fill-rule:evenodd;stroke:rgb(0, 0, 0);stroke-width:3.0;" d="M 789.916, 442.62 L 792.095, 493.503 L 777.877, 437.55 z "/>
<path style="fill:rgb(165, 255, 255);fill-opacity:1.0;fill-rule:evenodd;stroke:rgb(0, 0, 0);stroke-width:3.0;" d="M 49.5906, 233.287 L 7.48935, 246.881 L 18.2169, 230.446 L 53.8886, 227.451 z "/>
<path style="fill:rgb(255, 0, 38);fill-opacity:1.0;fill-rule:evenodd;stroke:rgb(0, 0, 0);stroke-width:3.0;" d="M 665.077, 564.8 L 665.39, 566.705 L 662.095, 572.888 L 651.768, 587.422 L 658.27, 564.004 z "/>
<path style="fill:rgb(44, 246, 189);fill-opacity:1.0;fill-rule:evenodd;stroke:rgb(0, 0, 0);stroke-width:3.0;" d="M 614.988, 137.37 L 593.041, 147.349 L 586.423, 144.447 L 586.009, 143.796 L 599.372, 133.533 z "/>
<path style="fill:rgb(255, 255, 30);fill-opacity:1.0;fill-rule:evenodd;stroke:rgb(0, 0, 0);stroke-width:3.0;" d="M 246.548, 201.786 L 249.801, 226.575 L 192.798, 181.69 L 181.02, 159.39 L 195.27, 150.99 z "/>
<path style="fill:rgb(255, 255, 30);fill-opacity:1.0;fill-rule:evenodd;stroke:rgb(0, 0, 0);stroke-width:3.0;" d="M 765.522, 16.9912 L 748.17, 37.3194 L 711.718, 69.0184 L 738.361, 26.781 L 755.093, 13.9294 z "/>
<path style="fill:rgb(255, 255, 30);fill-opacity:1.0;fill-rule:evenodd;stroke:rgb(0, 0, 0);stroke-width:3.0;" d="M 225.413, 424.179 L 223.172, 428.461 L 197.036, 414.873 L 219.243, 402.562 z "/>
<path style="fill:rgb(220, 0, 46);fill-opacity:1.0;fill-rule:evenodd;stroke:rgb(0, 0, 0);stroke-width:3.0;" d="M 233.123, 409.446 L 225.413, 424.179 L 219.243, 402.562 L 226.231, 398.689 z "/>
<path style="fill:rgb(67, 165, 240);fill-opacity:1.0;fill-rule:evenodd;stroke:rgb(0, 0, 0);stroke-width:3.0;" d="M 258.805, 306.671 L 254.663, 318.341 L 246.072, 320.94 L 245.184, 319.686 L 254.93, 299.334 z "/>
<path style="fill:rgb(12, 2, 255);fill-opacity:1.0;fill-rule:evenodd;stroke:rgb(0, 0, 0);stroke-width:3.0;" d="M 157.847, 553.296 L 151.163, 566.069 L 142.678, 547.739 L 148.779, 544.383 z "/>
<path style="fill:rgb(12, 2, 255);fill-opacity:1.0;fill-rule:evenodd;stroke:rgb(0, 0, 0);stroke-width:3.0;" d="M 223.172, 428.461 L 208.195, 457.082 L 162.581, 441.579 L 203.639, 418.306 z "/>
<path style="fill:rgb(202, 30, 243);fill-opacity:1.0;fill-rule:evenodd;stroke:rgb(0, 0, 0);stroke-width:3.0;" d="M 203.639, 418.306 L 162.581, 441.579 L 161.657, 441.265 L 158.897, 436.016 L 197.036, 414.873 z "/>
<path style="fill:rgb(255, 150, 17);fill-opacity:1.0;fill-rule:evenodd;stroke:rgb(0, 0, 0);stroke-width:3.0;" d="M 76.5636, 265.237 L 56.7861, 267.975 L 62.6788, 252.801 z "/>
<path style="fill:rgb(255, 150, 17);fill-opacity:1.0;fill-rule:evenodd;stroke:rgb(0, 0, 0);stroke-width:3.0;" d="M 64.3742, 482.613 L 62.3593, 493.067 L 61.8398, 494.967 L 59.6012, 496.841 L 51.039, 464.608 L 53.2558, 442.765 z "/>
<path style="fill:rgb(246, 94, 10);fill-opacity:1.0;fill-rule:evenodd;stroke:rgb(0, 0, 0);stroke-width:3.0;" d="M 314.035, 508.013 L 317.531, 514.9 L 295.869, 508.867 L 301.421, 502.126 z "/>
<path style="fill:rgb(187, 252, 255);fill-opacity:1.0;fill-rule:evenodd;stroke:rgb(0, 0, 0);stroke-width:3.0;" d="M 153.285, 284.834 L 154.233, 291.752 L 142.095, 295.565 L 133.593, 288.131 L 144.248, 270.729 z "/>
<path style="fill:rgb(187, 252, 255);fill-opacity:1.0;fill-rule:evenodd;stroke:rgb(0, 0, 0);stroke-width:3.0;" d="M 569.007, 156.855 L 513.025, 199.852 L 494.119, 133.951 L 508.381, 79.8639 z "/>
<path style="fill:rgb(249, 22, 121);fill-opacity:1.0;fill-rule:evenodd;stroke:rgb(0, 0, 0);stroke-width:3.0;" d="M 138.745, 565.003 L 106.194, 562.309 L 105.683, 561.907 L 107.689, 560.617 L 137.692, 557.381 z "/>
<path style="fill:rgb(163, 228, 255);fill-opacity:1.0;fill-rule:evenodd;stroke:rgb(0, 0, 0);stroke-width:3.0;" d="M 232.083, 212.624 L 214.413, 212.632 L 196.544, 188.784 L 192.798, 181.69 z "/>
<path style="fill:rgb(165, 249, 234);fill-opacity:1.0;fill-rule:evenodd;stroke:rgb(0, 0, 0);stroke-width:3.0;" d="M 738.303, 459.041 L 736.745, 473.722 L 648.41, 461.999 L 646.31, 459.929 L 656.363, 449.082 L 676.668, 444.005 z "/>
<path style="fill:rgb(165, 249, 234);fill-opacity:1.0;fill-rule:evenodd;stroke:rgb(0, 0, 0);stroke-width:3.0;" d="M 295.751, 250.527 L 394.696, 450.188 L 374.592, 470.156 L 279.424, 452.318 L 246.548, 201.786 z "/>
<path style="fill:rgb(255, 252, 30);fill-opacity:1.0;fill-rule:evenodd;stroke:rgb(0, 0, 0);stroke-width:3.0;" d="M 670.658, 112.057 L 656.914, 118.306 L 657.123, 116.493 L 712.95, 67.9464 z "/>
<path style="fill:rgb(212, 255, 7);fill-opacity:1.0;fill-rule:evenodd;stroke:rgb(0, 0, 0);stroke-width:3.0;" d="M 467.125, 164.07 L 432.915, 246.176 L 388.737, 190.826 L 450.821, 132.416 z "/>
<path style="fill:rgb(172, 126, 255);fill-opacity:1.0;fill-rule:evenodd;stroke:rgb(0, 0, 0);stroke-width:3.0;" d="M 246.623, 340.994 L 236.522, 369.453 L 218.854, 327.346 L 241.323, 315.53 z "/>
<path style="fill:rgb(7, 25, 255);fill-opacity:1.0;fill-rule:evenodd;stroke:rgb(0, 0, 0);stroke-width:3.0;" d="M 128.106, 281.633 L 120.764, 286.973 L 114.353, 273.752 L 112.212, 250.557 L 113.151, 247.671 z "/>
<path style="fill:rgb(7, 25, 255);fill-opacity:1.0;fill-rule:evenodd;stroke:rgb(0, 0, 0);stroke-width:3.0;" d="M 403.734, 468.425 L 407.663, 476.354 L 374.592, 470.156 L 378.167, 466.605 z "/>
<path style="fill:rgb(37, 144, 255);fill-opacity:1.0;fill-rule:evenodd;stroke:rgb(0, 0, 0);stroke-width:3.0;" d="M 401.933, 464.79 L 403.734, 468.425 L 378.167, 466.605 L 387.53, 457.306 z "/>
<path style="fill:rgb(10, 212, 255);fill-opacity:1.0;fill-rule:evenodd;stroke:rgb(0, 0, 0);stroke-width:3.0;" d="M 40.119, 479.581 L 28.1416, 487.298 L 13.8571, 481.548 L 40.3484, 453.317 z "/>
<path style="fill:rgb(35, 23, 255);fill-opacity:1.0;fill-rule:evenodd;stroke:rgb(0, 0, 0);stroke-width:3.0;" d="M 228.369, 295.941 L 212.759, 312.82 L 172.674, 217.291 z "/>
<path style="fill:rgb(234, 255, 37);fill-opacity:1.0;fill-rule:evenodd;stroke:rgb(0, 0, 0);stroke-width:3.0;" d="M 685.772, 436.847 L 683.636, 442.263 L 668.964, 445.931 L 662.564, 442.391 L 671.216, 433.056 z "/>
<path style="fill:rgb(44, 56, 202);fill-opacity:1.0;fill-rule:evenodd;stroke:rgb(0, 0, 0);stroke-width:3.0;" d="M 407.663, 476.354 L 415.024, 491.207 L 309.667, 460.656 L 309.913, 458.033 z "/>
<path style="fill:rgb(249, 255, 13);fill-opacity:1.0;fill-rule:evenodd;stroke:rgb(0, 0, 0);stroke-width:3.0;" d="M 70.757, 508.206 L 58.2583, 514.491 L 56.6204, 514.06 L 62.5836, 492.246 z "/>
<path style="fill:rgb(255, 150, 215);fill-opacity:1.0;fill-rule:evenodd;stroke:rgb(0, 0, 0);stroke-width:3.0;" d="M 17.138, 431.859 L 11.5101, 457.231 L 6.80083, 427.718 z "/>
<path style="fill:rgb(144, 110, 220);fill-opacity:1.0;fill-rule:evenodd;stroke:rgb(0, 0, 0);stroke-width:3.0;" d="M 66.5655, 42.4748 L 59.608, 64.5781 L 56.633, 52.1929 L 65.8062, 36.978 z "/>
<path style="fill:rgb(9, 243, 194);fill-opacity:1.0;fill-rule:evenodd;stroke:rgb(0, 0, 0);stroke-width:3.0;" d="M 40.4243, 396.776 L 33.3799, 398.129 L 30.241, 386.312 L 31.312, 379.969 L 35.4444, 378.928 z "/>
<path style="fill:rgb(234, 255, 114);fill-opacity:1.0;fill-rule:evenodd;stroke:rgb(0, 0, 0);stroke-width:3.0;" d="M 640.258, 542.113 L 645.644, 565.315 L 629.737, 557.111 L 625.306, 543.653 L 640.118, 541.998 z "/>
<path style="fill:rgb(194, 177, 89);fill-opacity:1.0;fill-rule:evenodd;stroke:rgb(0, 0, 0);stroke-width:3.0;" d="M 469.174, 548.044 L 453.804, 592.525 L 446.537, 571.051 L 448.985, 542.953 z "/>
<path style="fill:rgb(98, 255, 255);fill-opacity:1.0;fill-rule:evenodd;stroke:rgb(0, 0, 0);stroke-width:3.0;" d="M 448.985, 542.953 L 446.537, 571.051 L 435.912, 539.656 z "/>
<path style="fill:rgb(226, 62, 28);fill-opacity:1.0;fill-rule:evenodd;stroke:rgb(0, 0, 0);stroke-width:3.0;" d="M 128.51, 564.156 L 132.848, 565.337 L 126.581, 571.518 L 116.213, 570.187 L 110.277, 565.52 L 113.016, 562.874 z "/>
<path style="fill:rgb(17, 223, 255);fill-opacity:1.0;fill-rule:evenodd;stroke:rgb(0, 0, 0);stroke-width:3.0;" d="M 36.2751, 445.116 L 27.3928, 447.888 L 18.3717, 433.398 L 13.9097, 415.008 L 19.8498, 404.904 z "/>
<path style="fill:rgb(255, 128, 7);fill-opacity:1.0;fill-rule:evenodd;stroke:rgb(0, 0, 0);stroke-width:3.0;" d="M 456.901, 241.918 L 438.327, 248.358 L 438.292, 243.034 L 453.551, 235.729 z "/>
<path style="fill:rgb(255, 179, 117);fill-opacity:1.0;fill-rule:evenodd;stroke:rgb(0, 0, 0);stroke-width:3.0;" d="M 162.797, 346.926 L 179.772, 351.927 L 186.265, 356.629 L 170.812, 358.145 L 159.266, 346.597 z "/>
<path style="fill:rgb(207, 3, 13);fill-opacity:1.0;fill-rule:evenodd;stroke:rgb(0, 0, 0);stroke-width:3.0;" d="M 776.913, 422.4 L 768.843, 434.978 L 696.977, 428.51 L 685.384, 417.77 L 752.323, 345.545 z "/>
<path style="fill:rgb(255, 172, 8);fill-opacity:1.0;fill-rule:evenodd;stroke:rgb(0, 0, 0);stroke-width:3.0;" d="M 621.402, 536.317 L 587.065, 539.104 L 579.695, 531.802 L 595.221, 515.051 z "/>
<path style="fill:rgb(252, 255, 65);fill-opacity:1.0;fill-rule:evenodd;stroke:rgb(0, 0, 0);stroke-width:3.0;" d="M 135.824, 493.328 L 139.044, 506.609 L 140.886, 514.998 L 132.737, 521.51 L 126.85, 478.892 z "/>
<path style="fill:rgb(255, 33, 231);fill-opacity:1.0;fill-rule:evenodd;stroke:rgb(0, 0, 0);stroke-width:3.0;" d="M 213.731, 561.239 L 210.752, 580.351 L 200.716, 551.705 z "/>
<path style="fill:rgb(34, 3, 255);fill-opacity:1.0;fill-rule:evenodd;stroke:rgb(0, 0, 0);stroke-width:3.0;" d="M 620.065, 525.523 L 632.142, 535.445 L 621.402, 536.317 L 607.871, 525.326 z "/>
<path style="fill:rgb(255, 234, 15);fill-opacity:1.0;fill-rule:evenodd;stroke:rgb(0, 0, 0);stroke-width:3.0;" d="M 620.065, 525.523 L 607.871, 525.326 L 595.221, 515.051 L 600.451, 509.407 z "/>
<path style="fill:rgb(255, 15, 14);fill-opacity:1.0;fill-rule:evenodd;stroke:rgb(0, 0, 0);stroke-width:3.0;" d="M 161.766, 535.061 L 150.859, 539.697 L 145.509, 536.061 L 136.296, 494.087 z "/>
</svg>