<?xml version="1.0" encoding="iso-8859-1" standalone="no"?>
<!DOCTYPE svg PUBLIC "-//W3C//DTD SVG 1.0//EN" "http://www.w3.org/TR/2001/REC-SVG-20010904/DTD/svg10.dtd">
<svg xmlns="http://www.w3.org/2000/svg" width="800" height="600">
<path style="fill:rgb(0, 0, 0);fill-opacity:0.0;fill-rule:evenodd;stroke:rgb(0, 0, 0);stroke-width:0.0;" d="M 0, 600 L 800, 600 L 800, 0 L 0, 0 z "/>
<path style="fill:rgb(9, 138, 255);fill-opacity:1.0;fill-rule:evenodd;stroke:rgb(0, 0, 0);stroke-width:3.0;" d="M 404.59, 293.408 L 379.176, 408.411 L 175.802, 322.532 L 175.049, 319.966 L 223.245, 290.802 z "/>
<path style="fill:rgb(9, 138, 255);fill-opacity:1.0;fill-rule:evenodd;stroke:rgb(0, 0, 0);stroke-width:3.0;" d="M 249.402, 499.672 L 245.962, 504.416 L 136.864, 503.461 L 116.221, 496.865 L 118.339, 486.533 L 158.432, 465.14 z "/>
<path style="fill:rgb(9, 138, 255);fill-opacity:1.0;fill-rule:evenodd;stroke:rgb(0, 0, 0);stroke-width:3.0;" d="M 705.787, 540.565 L 711.525, 568.047 L 710.971, 568.88 L 706.3, 566.628 L 698.57, 540.816 L 702.292, 539.725 z "/>
<path style="fill:rgb(237, 2, 49);fill-opacity:1.0;fill-rule:evenodd;stroke:rgb(0, 0, 0);stroke-width:3.0;" d="M 442.96, 38.9161 L 436.369, 147.113 L 314.535, 184.59 L 275.065, 146.601 L 372.342, 6.89206 z "/>
<path style="fill:rgb(237, 2, 49);fill-opacity:1.0;fill-rule:evenodd;stroke:rgb(0, 0, 0);stroke-width:3.0;" d="M 292.94, 248.629 L 278.171, 257.565 L 274.885, 255.251 L 285.616, 230.223 L 291.198, 228.854 z "/>
<path style="fill:rgb(237, 2, 49);fill-opacity:1.0;fill-rule:evenodd;stroke:rgb(0, 0, 0);stroke-width:3.0;" d="M 267.471, 504.604 L 262.276, 504.559 L 158.432, 465.14 L 186.671, 450.073 z "/>
<path style="fill:rgb(237, 2, 49);fill-opacity:1.0;fill-rule:evenodd;stroke:rgb(0, 0, 0);stroke-width:3.0;" d="M 709.712, 238.388 L 695.39, 241.798 L 694.965, 224.963 L 718.479, 222.602 z "/>
<path style="fill:rgb(237, 2, 49);fill-opacity:1.0;fill-rule:evenodd;stroke:rgb(0, 0, 0);stroke-width:3.0;" d="M 759.52, 207.397 L 751.881, 213.569 L 744.936, 213.965 L 755.861, 197.315 z "/>
<path style="fill:rgb(237, 2, 49);fill-opacity:1.0;fill-rule:evenodd;stroke:rgb(0, 0, 0);stroke-width:3.0;" d="M 369.618, 10.8048 L 363.813, 19.1421 L 346.277, 5.48951 z "/>
<path style="fill:rgb(237, 2, 49);fill-opacity:1.0;fill-rule:evenodd;stroke:rgb(0, 0, 0);stroke-width:3.0;" d="M 88.1364, 204.384 L 76.5275, 257.804 L 23.4921, 274.119 L 7.19658, 256.905 L 67.5989, 143.616 z "/>
<path style="fill:rgb(255, 255, 11);fill-opacity:1.0;fill-rule:evenodd;stroke:rgb(0, 0, 0);stroke-width:3.0;" d="M 638.418, 194.502 L 612.017, 207.121 L 571.343, 199.157 L 599.196, 186.079 z "/>
<path style="fill:rgb(255, 255, 11);fill-opacity:1.0;fill-rule:evenodd;stroke:rgb(0, 0, 0);stroke-width:3.0;" d="M 781.69, 185.108 L 780.852, 186.263 L 759.23, 166.716 L 766.092, 161.024 z "/>
<path style="fill:rgb(255, 228, 172);fill-opacity:1.0;fill-rule:evenodd;stroke:rgb(0, 0, 0);stroke-width:3.0;" d="M 721.589, 509.757 L 720.692, 511.58 L 709.715, 505.437 L 709.479, 502.426 L 726.592, 489.315 z "/>
<path style="fill:rgb(255, 126, 255);fill-opacity:1.0;fill-rule:evenodd;stroke:rgb(0, 0, 0);stroke-width:3.0;" d="M 450.647, 45.7139 L 466.184, 84.0232 L 442.315, 49.5109 L 442.629, 44.3524 z "/>
<path style="fill:rgb(255, 126, 255);fill-opacity:1.0;fill-rule:evenodd;stroke:rgb(0, 0, 0);stroke-width:3.0;" d="M 771.223, 539.857 L 763.357, 544.313 L 735.501, 544.782 L 733.848, 544.012 L 743.111, 532.541 L 753.876, 530.15 z "/>
<path style="fill:rgb(27, 252, 76);fill-opacity:1.0;fill-rule:evenodd;stroke:rgb(0, 0, 0);stroke-width:3.0;" d="M 574.805, 319.699 L 545.217, 344.243 L 541.702, 342.977 L 538.482, 330.857 L 539.167, 329.505 L 572.111, 315.011 z "/>
<path style="fill:rgb(27, 252, 76);fill-opacity:1.0;fill-rule:evenodd;stroke:rgb(0, 0, 0);stroke-width:3.0;" d="M 600.753, 245.354 L 591.902, 241.252 L 589.038, 239.693 L 605.687, 234.115 L 612.165, 232.937 z "/>
<path style="fill:rgb(27, 252, 76);fill-opacity:1.0;fill-rule:evenodd;stroke:rgb(0, 0, 0);stroke-width:3.0;" d="M 505.91, 448.84 L 478.145, 474.751 L 502.357, 440.996 L 511.646, 440.539 z "/>
<path style="fill:rgb(27, 252, 76);fill-opacity:1.0;fill-rule:evenodd;stroke:rgb(0, 0, 0);stroke-width:3.0;" d="M 538.187, 82.0997 L 590.416, 306.75 L 589.882, 307.192 L 457.889, 365.264 L 424.523, 341.56 L 437.891, 122.134 L 488.75, 59.6807 z "/>
<path style="fill:rgb(255, 51, 11);fill-opacity:1.0;fill-rule:evenodd;stroke:rgb(0, 0, 0);stroke-width:3.0;" d="M 452.677, 90.1239 L 439.539, 95.0724 L 440.956, 71.8144 z "/>
<path style="fill:rgb(255, 51, 11);fill-opacity:1.0;fill-rule:evenodd;stroke:rgb(0, 0, 0);stroke-width:3.0;" d="M 563.902, 576.817 L 554.129, 588.677 L 551.916, 576.197 L 559.322, 571.446 z "/>
<path style="fill:rgb(255, 1, 30);fill-opacity:1.0;fill-rule:evenodd;stroke:rgb(0, 0, 0);stroke-width:3.0;" d="M 731.94, 592.163 L 720.647, 587.067 L 729.477, 571.165 L 739.387, 571.002 z "/>
<path style="fill:rgb(255, 1, 30);fill-opacity:1.0;fill-rule:evenodd;stroke:rgb(0, 0, 0);stroke-width:3.0;" d="M 256.44, 583.786 L 252.952, 586.68 L 238.108, 573.334 L 240.71, 571.351 L 250.747, 569.799 z "/>
<path style="fill:rgb(255, 1, 30);fill-opacity:1.0;fill-rule:evenodd;stroke:rgb(0, 0, 0);stroke-width:3.0;" d="M 431.746, 222.994 L 421.179, 218.339 L 427.115, 191.48 L 434.137, 183.74 z "/>
<path style="fill:rgb(255, 1, 30);fill-opacity:1.0;fill-rule:evenodd;stroke:rgb(0, 0, 0);stroke-width:3.0;" d="M 639.579, 567.148 L 639.552, 570.016 L 608.802, 579.576 L 608.905, 579.298 L 623.246, 562.359 z "/>
<path style="fill:rgb(255, 204, 8);fill-opacity:1.0;fill-rule:evenodd;stroke:rgb(0, 0, 0);stroke-width:3.0;" d="M 426.613, 31.503 L 407.307, 22.7482 L 402.128, 12.4007 L 412.419, 6.00535 z "/>
<path style="fill:rgb(255, 204, 8);fill-opacity:1.0;fill-rule:evenodd;stroke:rgb(0, 0, 0);stroke-width:3.0;" d="M 488.75, 59.6807 L 483.53, 66.0896 L 463.472, 76.6875 L 482.167, 56.6955 z "/>
<path style="fill:rgb(255, 204, 8);fill-opacity:1.0;fill-rule:evenodd;stroke:rgb(0, 0, 0);stroke-width:3.0;" d="M 600.051, 110.154 L 567.232, 138.732 L 550.466, 134.916 L 548.476, 126.355 L 583.916, 102.837 z "/>
<path style="fill:rgb(255, 204, 8);fill-opacity:1.0;fill-rule:evenodd;stroke:rgb(0, 0, 0);stroke-width:3.0;" d="M 205.088, 137.563 L 218.992, 213.98 L 103.397, 249.539 L 34.9199, 46.9238 z "/>
<path style="fill:rgb(255, 204, 8);fill-opacity:1.0;fill-rule:evenodd;stroke:rgb(0, 0, 0);stroke-width:3.0;" d="M 730.159, 214.808 L 710.813, 215.911 L 710.702, 214.755 L 732.508, 196.593 z "/>
<path style="fill:rgb(255, 204, 8);fill-opacity:1.0;fill-rule:evenodd;stroke:rgb(0, 0, 0);stroke-width:3.0;" d="M 642.841, 192.388 L 638.418, 194.502 L 560.426, 177.754 L 558.633, 170.044 z "/>
<path style="fill:rgb(32, 144, 255);fill-opacity:1.0;fill-rule:evenodd;stroke:rgb(0, 0, 0);stroke-width:3.0;" d="M 214.568, 580.632 L 211.712, 584.051 L 195.499, 592.735 L 179.474, 580.822 L 211.669, 575.843 z "/>
<path style="fill:rgb(255, 184, 33);fill-opacity:1.0;fill-rule:evenodd;stroke:rgb(0, 0, 0);stroke-width:3.0;" d="M 258.872, 581.769 L 256.44, 583.786 L 250.747, 569.799 L 266.631, 567.342 z "/>
<path style="fill:rgb(255, 33, 29);fill-opacity:1.0;fill-rule:evenodd;stroke:rgb(0, 0, 0);stroke-width:3.0;" d="M 235.97, 535.129 L 210.597, 552.667 L 99.9767, 576.125 L 116.221, 496.865 z "/>
<path style="fill:rgb(255, 33, 29);fill-opacity:1.0;fill-rule:evenodd;stroke:rgb(0, 0, 0);stroke-width:3.0;" d="M 501.13, 504.685 L 487.543, 507.453 L 482.366, 490.164 L 495.967, 487.92 z "/>
<path style="fill:rgb(255, 33, 29);fill-opacity:1.0;fill-rule:evenodd;stroke:rgb(0, 0, 0);stroke-width:3.0;" d="M 427.361, 273.261 L 427.137, 273.863 L 408.494, 275.739 L 414.258, 249.66 L 428.935, 241.467 z "/>
<path style="fill:rgb(255, 33, 29);fill-opacity:1.0;fill-rule:evenodd;stroke:rgb(0, 0, 0);stroke-width:3.0;" d="M 572.217, 437.563 L 524.625, 439.902 L 551.129, 397.771 z "/>
<path style="fill:rgb(255, 33, 29);fill-opacity:1.0;fill-rule:evenodd;stroke:rgb(0, 0, 0);stroke-width:3.0;" d="M 284.672, 560.368 L 278.472, 565.511 L 258.523, 568.596 L 264.747, 561.824 L 284.435, 560.172 z "/>
<path style="fill:rgb(255, 33, 29);fill-opacity:1.0;fill-rule:evenodd;stroke:rgb(0, 0, 0);stroke-width:3.0;" d="M 114.37, 341.103 L 107.189, 357.214 L 83.5086, 358.009 L 83.9438, 344.77 L 113.515, 340.518 z "/>
<path style="fill:rgb(255, 33, 29);fill-opacity:1.0;fill-rule:evenodd;stroke:rgb(0, 0, 0);stroke-width:3.0;" d="M 301.124, 188.716 L 221.897, 213.087 L 205.575, 137.822 z "/>
<path style="fill:rgb(255, 33, 29);fill-opacity:1.0;fill-rule:evenodd;stroke:rgb(0, 0, 0);stroke-width:3.0;" d="M 417.927, 449.831 L 405.215, 460.375 L 404.112, 460.786 L 387.361, 401.184 L 422.011, 382.788 z "/>
<path style="fill:rgb(255, 33, 29);fill-opacity:1.0;fill-rule:evenodd;stroke:rgb(0, 0, 0);stroke-width:3.0;" d="M 441.123, 397.391 L 424.52, 418.446 L 427.086, 378.816 L 430.086, 377.496 z "/>
<path style="fill:rgb(255, 33, 29);fill-opacity:1.0;fill-rule:evenodd;stroke:rgb(0, 0, 0);stroke-width:3.0;" d="M 274.885, 255.251 L 265.11, 248.367 L 264.868, 235.312 L 285.616, 230.223 z "/>
<path style="fill:rgb(255, 33, 29);fill-opacity:1.0;fill-rule:evenodd;stroke:rgb(0, 0, 0);stroke-width:3.0;" d="M 247.455, 18.1369 L 256.244, 29.9908 L 256.997, 33.2099 L 249.08, 37.5609 L 232.569, 20.7606 L 232.842, 19.6976 L 240.609, 15.1367 z "/>
<path style="fill:rgb(255, 255, 7);fill-opacity:1.0;fill-rule:evenodd;stroke:rgb(0, 0, 0);stroke-width:3.0;" d="M 653.728, 158.422 L 620.872, 150.943 L 638.965, 144.897 z "/>
<path style="fill:rgb(249, 24, 255);fill-opacity:1.0;fill-rule:evenodd;stroke:rgb(0, 0, 0);stroke-width:3.0;" d="M 793.197, 512.558 L 794.388, 515.956 L 784.935, 520.777 L 771.438, 518.818 L 766.044, 507.332 z "/>
<path style="fill:rgb(249, 24, 255);fill-opacity:1.0;fill-rule:evenodd;stroke:rgb(0, 0, 0);stroke-width:3.0;" d="M 432.843, 347.471 L 457.889, 365.264 L 428.966, 377.989 L 431.491, 347.199 z "/>
<path style="fill:rgb(75, 35, 215);fill-opacity:1.0;fill-rule:evenodd;stroke:rgb(0, 0, 0);stroke-width:3.0;" d="M 174.114, 33.4648 L 221.127, 70.4033 L 208.211, 82.2533 L 152.773, 28.8943 z "/>
<path style="fill:rgb(165, 252, 226);fill-opacity:1.0;fill-rule:evenodd;stroke:rgb(0, 0, 0);stroke-width:3.0;" d="M 588.657, 472.628 L 476.707, 491.098 L 511.646, 440.539 L 573.097, 437.519 z "/>
<path style="fill:rgb(255, 1, 38);fill-opacity:1.0;fill-rule:evenodd;stroke:rgb(0, 0, 0);stroke-width:3.0;" d="M 620.104, 210.066 L 581.773, 235.738 L 572.766, 230.834 L 571.73, 226.378 L 620.843, 202.902 z "/>
<path style="fill:rgb(91, 1, 240);fill-opacity:1.0;fill-rule:evenodd;stroke:rgb(0, 0, 0);stroke-width:3.0;" d="M 737.952, 594.876 L 731.94, 592.163 L 739.387, 571.002 L 751.251, 570.807 z "/>
<path style="fill:rgb(7, 234, 6);fill-opacity:1.0;fill-rule:evenodd;stroke:rgb(0, 0, 0);stroke-width:3.0;" d="M 278.377, 555.166 L 276.497, 558.328 L 240.978, 566.37 L 240.691, 566.284 L 270.953, 549.03 z "/>
<path style="fill:rgb(7, 234, 6);fill-opacity:1.0;fill-rule:evenodd;stroke:rgb(0, 0, 0);stroke-width:3.0;" d="M 675.778, 144.495 L 686.801, 149.494 L 683.458, 155.365 L 675.991, 163.49 L 659.546, 159.746 L 642.814, 143.611 L 648.924, 141.57 z "/>
<path style="fill:rgb(7, 234, 6);fill-opacity:1.0;fill-rule:evenodd;stroke:rgb(0, 0, 0);stroke-width:3.0;" d="M 676.202, 577.609 L 666.126, 570.47 L 660.092, 563.847 L 654.253, 546.923 L 679.773, 541.721 z "/>
<path style="fill:rgb(255, 1, 10);fill-opacity:1.0;fill-rule:evenodd;stroke:rgb(0, 0, 0);stroke-width:3.0;" d="M 587.297, 202.281 L 578.783, 223.007 L 577.655, 223.546 L 579.37, 200.729 z "/>
<path style="fill:rgb(255, 1, 10);fill-opacity:1.0;fill-rule:evenodd;stroke:rgb(0, 0, 0);stroke-width:3.0;" d="M 304.54, 241.61 L 292.94, 248.629 L 291.346, 230.532 z "/>
<path style="fill:rgb(23, 246, 226);fill-opacity:1.0;fill-rule:evenodd;stroke:rgb(0, 0, 0);stroke-width:3.0;" d="M 430.392, 240.654 L 414.258, 249.66 L 417.319, 235.806 L 427.559, 231.314 z "/>
<path style="fill:rgb(7, 243, 215);fill-opacity:1.0;fill-rule:evenodd;stroke:rgb(0, 0, 0);stroke-width:3.0;" d="M 207.939, 576.42 L 167.093, 582.737 L 184.266, 570.867 L 199.497, 569.689 z "/>
<path style="fill:rgb(17, 255, 255);fill-opacity:1.0;fill-rule:evenodd;stroke:rgb(0, 0, 0);stroke-width:3.0;" d="M 476.707, 491.098 L 465.039, 493.023 L 478.145, 474.751 L 505.91, 448.84 z "/>
<path style="fill:rgb(17, 255, 255);fill-opacity:1.0;fill-rule:evenodd;stroke:rgb(0, 0, 0);stroke-width:3.0;" d="M 379.176, 408.411 L 371.942, 441.145 L 273.877, 508.928 L 219.738, 472.389 L 185.81, 356.669 L 240.772, 349.967 z "/>
<path style="fill:rgb(17, 255, 255);fill-opacity:1.0;fill-rule:evenodd;stroke:rgb(0, 0, 0);stroke-width:3.0;" d="M 725.092, 562.37 L 722.126, 567.67 L 717.86, 570.087 L 714.579, 567.401 L 713.864, 558.296 L 723.756, 542.213 z "/>
<path style="fill:rgb(17, 255, 255);fill-opacity:1.0;fill-rule:evenodd;stroke:rgb(0, 0, 0);stroke-width:3.0;" d="M 675.991, 163.49 L 652.375, 189.185 L 556.683, 161.655 L 550.466, 134.916 z "/>
<path style="fill:rgb(255, 12, 19);fill-opacity:1.0;fill-rule:evenodd;stroke:rgb(0, 0, 0);stroke-width:3.0;" d="M 434.137, 183.74 L 427.115, 191.48 L 436.159, 150.551 z "/>
<path style="fill:rgb(255, 12, 19);fill-opacity:1.0;fill-rule:evenodd;stroke:rgb(0, 0, 0);stroke-width:3.0;" d="M 641.27, 201.268 L 619.768, 224.664 L 629.11, 198.951 L 638.504, 194.461 z "/>
<path style="fill:rgb(255, 255, 61);fill-opacity:1.0;fill-rule:evenodd;stroke:rgb(0, 0, 0);stroke-width:3.0;" d="M 672.788, 524.337 L 679.289, 530.067 L 670.349, 540.968 L 663.017, 519.979 z "/>
<path style="fill:rgb(102, 246, 243);fill-opacity:1.0;fill-rule:evenodd;stroke:rgb(0, 0, 0);stroke-width:3.0;" d="M 553.78, 586.711 L 552.852, 587.836 L 531.951, 591.25 L 530.157, 590.154 L 551.916, 576.197 z "/>
<path style="fill:rgb(102, 246, 243);fill-opacity:1.0;fill-rule:evenodd;stroke:rgb(0, 0, 0);stroke-width:3.0;" d="M 533.927, 339.843 L 500.069, 356.477 L 504.866, 344.596 L 539.167, 329.505 z "/>
<path style="fill:rgb(102, 246, 243);fill-opacity:1.0;fill-rule:evenodd;stroke:rgb(0, 0, 0);stroke-width:3.0;" d="M 326.88, 516.757 L 318.879, 531.993 L 305.459, 543.124 L 307.911, 504.089 z "/>
<path style="fill:rgb(102, 246, 243);fill-opacity:1.0;fill-rule:evenodd;stroke:rgb(0, 0, 0);stroke-width:3.0;" d="M 739.084, 511.927 L 760.807, 532.962 L 760.806, 534.028 L 741.78, 523.381 L 737.499, 510.836 z "/>
<path style="fill:rgb(12, 115, 255);fill-opacity:1.0;fill-rule:evenodd;stroke:rgb(0, 0, 0);stroke-width:3.0;" d="M 604.849, 260.435 L 593.676, 304.045 L 590.416, 306.75 L 581.111, 266.726 L 594.13, 252.56 z "/>
<path style="fill:rgb(240, 142, 6);fill-opacity:1.0;fill-rule:evenodd;stroke:rgb(0, 0, 0);stroke-width:3.0;" d="M 436.159, 150.551 L 432.305, 167.994 L 344.71, 215.729 L 58.1457, 286.014 L 59.2215, 263.128 L 436.369, 147.113 z "/>
<path style="fill:rgb(240, 142, 6);fill-opacity:1.0;fill-rule:evenodd;stroke:rgb(0, 0, 0);stroke-width:3.0;" d="M 599.196, 186.079 L 571.343, 199.157 L 565.118, 197.938 L 560.426, 177.754 z "/>
<path style="fill:rgb(240, 142, 6);fill-opacity:1.0;fill-rule:evenodd;stroke:rgb(0, 0, 0);stroke-width:3.0;" d="M 660.672, 137.645 L 620.872, 150.943 L 590.939, 144.129 L 601.815, 110.954 z "/>
<path style="fill:rgb(240, 142, 6);fill-opacity:1.0;fill-rule:evenodd;stroke:rgb(0, 0, 0);stroke-width:3.0;" d="M 40.7879, 554.344 L 27.5674, 577.187 L 25.0763, 576.4 L 35.837, 550.74 z "/>
<path style="fill:rgb(240, 142, 6);fill-opacity:1.0;fill-rule:evenodd;stroke:rgb(0, 0, 0);stroke-width:3.0;" d="M 604.849, 260.435 L 594.13, 252.56 L 611.789, 233.346 z "/>
<path style="fill:rgb(226, 7, 128);fill-opacity:1.0;fill-rule:evenodd;stroke:rgb(0, 0, 0);stroke-width:3.0;" d="M 484.759, 394.393 L 471.12, 405.707 L 450.181, 368.655 L 504.866, 344.596 z "/>
<path style="fill:rgb(226, 7, 128);fill-opacity:1.0;fill-rule:evenodd;stroke:rgb(0, 0, 0);stroke-width:3.0;" d="M 529.965, 402.506 L 400.177, 583.449 L 321.759, 546.1 L 414.547, 452.635 L 414.66, 452.541 L 514.04, 382.373 z "/>
<path style="fill:rgb(226, 7, 128);fill-opacity:1.0;fill-rule:evenodd;stroke:rgb(0, 0, 0);stroke-width:3.0;" d="M 480.11, 505.398 L 479.087, 509.175 L 456.848, 513.705 L 457.761, 504.237 L 468.727, 500.291 z "/>
<path style="fill:rgb(226, 7, 128);fill-opacity:1.0;fill-rule:evenodd;stroke:rgb(0, 0, 0);stroke-width:3.0;" d="M 267.771, 546.4 L 236.908, 565.15 L 229.327, 562.877 L 248.113, 530.154 z "/>
<path style="fill:rgb(255, 1, 6);fill-opacity:1.0;fill-rule:evenodd;stroke:rgb(0, 0, 0);stroke-width:3.0;" d="M 462.323, 47.6965 L 482.167, 56.6955 L 463.289, 76.8834 L 450.647, 45.7139 z "/>
<path style="fill:rgb(252, 255, 9);fill-opacity:1.0;fill-rule:evenodd;stroke:rgb(0, 0, 0);stroke-width:3.0;" d="M 219.738, 472.389 L 79.5318, 377.764 L 175.049, 319.966 z "/>
<path style="fill:rgb(255, 66, 27);fill-opacity:1.0;fill-rule:evenodd;stroke:rgb(0, 0, 0);stroke-width:3.0;" d="M 273.877, 508.928 L 235.97, 535.129 L 205.991, 525.55 L 250.82, 505.769 L 268.275, 505.147 z "/>
<path style="fill:rgb(215, 255, 182);fill-opacity:1.0;fill-rule:evenodd;stroke:rgb(0, 0, 0);stroke-width:3.0;" d="M 205.991, 525.55 L 154.79, 509.189 L 250.82, 505.769 z "/>
<path style="fill:rgb(252, 5, 26);fill-opacity:1.0;fill-rule:evenodd;stroke:rgb(0, 0, 0);stroke-width:3.0;" d="M 82.9267, 375.71 L 79.5318, 377.764 L 49.044, 357.188 L 46.9834, 350.085 L 83.9438, 344.77 z "/>
<path style="fill:rgb(246, 24, 255);fill-opacity:1.0;fill-rule:evenodd;stroke:rgb(0, 0, 0);stroke-width:3.0;" d="M 560.943, 570.406 L 527.511, 591.851 L 525.994, 590.523 L 527.921, 583.749 L 556.21, 569.629 z "/>
<path style="fill:rgb(255, 44, 255);fill-opacity:1.0;fill-rule:evenodd;stroke:rgb(0, 0, 0);stroke-width:3.0;" d="M 187.845, 15.2711 L 181.327, 35.0096 L 180.527, 34.8383 L 172.9, 12.9106 L 171.48, 7.90036 L 178.136, 5.57729 z "/>
<path style="fill:rgb(255, 163, 23);fill-opacity:1.0;fill-rule:evenodd;stroke:rgb(0, 0, 0);stroke-width:3.0;" d="M 747.053, 176.817 L 738.74, 183.713 L 654.763, 186.587 L 688.251, 150.151 z "/>
<path style="fill:rgb(255, 163, 23);fill-opacity:1.0;fill-rule:evenodd;stroke:rgb(0, 0, 0);stroke-width:3.0;" d="M 615.741, 229.046 L 613.481, 231.505 L 589.038, 239.693 L 581.773, 235.738 L 614.088, 214.095 z "/>
<path style="fill:rgb(255, 163, 23);fill-opacity:1.0;fill-rule:evenodd;stroke:rgb(0, 0, 0);stroke-width:3.0;" d="M 263.085, 504.566 L 262.306, 505.36 L 155.363, 509.169 L 156.904, 506.329 L 259.133, 504.531 z "/>
<path style="fill:rgb(255, 163, 23);fill-opacity:1.0;fill-rule:evenodd;stroke:rgb(0, 0, 0);stroke-width:3.0;" d="M 529.965, 402.506 L 514.04, 382.373 L 575.563, 338.935 z "/>
<path style="fill:rgb(255, 163, 23);fill-opacity:1.0;fill-rule:evenodd;stroke:rgb(0, 0, 0);stroke-width:3.0;" d="M 251.846, 569.629 L 218.401, 574.802 L 202.611, 572.171 L 193.216, 564.681 L 205.961, 555.871 z "/>
<path style="fill:rgb(255, 252, 20);fill-opacity:1.0;fill-rule:evenodd;stroke:rgb(0, 0, 0);stroke-width:3.0;" d="M 96.5399, 229.249 L 98.6309, 235.436 L 86.9972, 244.288 L 84.4257, 225.917 z "/>
<path style="fill:rgb(255, 252, 20);fill-opacity:1.0;fill-rule:evenodd;stroke:rgb(0, 0, 0);stroke-width:3.0;" d="M 200.347, 39.0832 L 181.327, 35.0096 L 189.907, 9.0281 z "/>
<path style="fill:rgb(255, 252, 20);fill-opacity:1.0;fill-rule:evenodd;stroke:rgb(0, 0, 0);stroke-width:3.0;" d="M 267.723, 33.4926 L 257.118, 42.7253 L 254.69, 40.9296 L 265.788, 22.3531 z "/>
<path style="fill:rgb(255, 252, 20);fill-opacity:1.0;fill-rule:evenodd;stroke:rgb(0, 0, 0);stroke-width:3.0;" d="M 517.878, 366.921 L 484.759, 394.393 L 498.384, 360.65 L 506.674, 359.346 z "/>
<path style="fill:rgb(255, 255, 25);fill-opacity:1.0;fill-rule:evenodd;stroke:rgb(0, 0, 0);stroke-width:3.0;" d="M 122.285, 351.894 L 104.861, 362.438 L 112.098, 346.2 z "/>
<path style="fill:rgb(255, 255, 25);fill-opacity:1.0;fill-rule:evenodd;stroke:rgb(0, 0, 0);stroke-width:3.0;" d="M 652.375, 189.185 L 649.798, 191.989 L 639.75, 191.568 L 558.633, 170.044 L 556.683, 161.655 z "/>
<path style="fill:rgb(61, 182, 255);fill-opacity:1.0;fill-rule:evenodd;stroke:rgb(0, 0, 0);stroke-width:3.0;" d="M 591.985, 241.297 L 579.236, 258.663 L 574.579, 238.63 L 583.472, 236.663 z "/>
<path style="fill:rgb(61, 182, 255);fill-opacity:1.0;fill-rule:evenodd;stroke:rgb(0, 0, 0);stroke-width:3.0;" d="M 355.58, 562.208 L 355.591, 567.319 L 344.964, 572.209 L 338.514, 559.745 L 345.612, 557.46 z "/>
<path style="fill:rgb(33, 255, 255);fill-opacity:1.0;fill-rule:evenodd;stroke:rgb(0, 0, 0);stroke-width:3.0;" d="M 717.075, 509.556 L 723.019, 531.08 L 723.756, 542.213 L 713.864, 558.296 L 709.715, 505.437 z "/>
<path style="fill:rgb(72, 255, 252);fill-opacity:1.0;fill-rule:evenodd;stroke:rgb(0, 0, 0);stroke-width:3.0;" d="M 551.129, 397.771 L 524.625, 439.902 L 502.357, 440.996 L 543.579, 383.525 z "/>
<path style="fill:rgb(72, 255, 252);fill-opacity:1.0;fill-rule:evenodd;stroke:rgb(0, 0, 0);stroke-width:3.0;" d="M 52.9593, 287.286 L 25.1225, 294.113 L 36.1475, 272.182 z "/>
<path style="fill:rgb(72, 255, 252);fill-opacity:1.0;fill-rule:evenodd;stroke:rgb(0, 0, 0);stroke-width:3.0;" d="M 600.314, 245.831 L 581.111, 266.726 L 579.236, 258.663 L 591.985, 241.297 z "/>
<path style="fill:rgb(10, 237, 197);fill-opacity:1.0;fill-rule:evenodd;stroke:rgb(0, 0, 0);stroke-width:3.0;" d="M 88.3788, 254.159 L 80.7945, 256.492 L 77.8383, 251.773 L 84.0462, 223.206 z "/>
<path style="fill:rgb(10, 237, 197);fill-opacity:1.0;fill-rule:evenodd;stroke:rgb(0, 0, 0);stroke-width:3.0;" d="M 45.9034, 526.735 L 36.6181, 548.877 L 24.496, 539.294 L 25.1464, 536.256 L 46.0175, 525.12 z "/>
<path style="fill:rgb(10, 237, 197);fill-opacity:1.0;fill-rule:evenodd;stroke:rgb(0, 0, 0);stroke-width:3.0;" d="M 790.702, 505.439 L 760.847, 498.554 L 760.883, 467.474 L 774.938, 460.459 z "/>
<path style="fill:rgb(10, 237, 197);fill-opacity:1.0;fill-rule:evenodd;stroke:rgb(0, 0, 0);stroke-width:3.0;" d="M 619.946, 282.254 L 604.563, 295.014 L 596.87, 291.581 L 609.169, 243.573 z "/>
<path style="fill:rgb(10, 237, 197);fill-opacity:1.0;fill-rule:evenodd;stroke:rgb(0, 0, 0);stroke-width:3.0;" d="M 359.27, 498.488 L 332.623, 520.592 L 307.911, 504.089 L 309.138, 484.556 L 371.942, 441.145 z "/>
<path style="fill:rgb(24, 192, 184);fill-opacity:1.0;fill-rule:evenodd;stroke:rgb(0, 0, 0);stroke-width:3.0;" d="M 298.677, 557.275 L 277.193, 577.632 L 273.295, 569.805 L 295.708, 551.213 z "/>
<path style="fill:rgb(24, 192, 184);fill-opacity:1.0;fill-rule:evenodd;stroke:rgb(0, 0, 0);stroke-width:3.0;" d="M 58.1457, 286.014 L 52.9593, 287.286 L 34.5254, 270.725 L 59.2215, 263.128 z "/>
<path style="fill:rgb(249, 142, 34);fill-opacity:1.0;fill-rule:evenodd;stroke:rgb(0, 0, 0);stroke-width:3.0;" d="M 422.636, 372.525 L 402.007, 341.444 L 428.943, 269.006 z "/>
<path style="fill:rgb(255, 82, 7);fill-opacity:1.0;fill-rule:evenodd;stroke:rgb(0, 0, 0);stroke-width:3.0;" d="M 637.438, 227.846 L 624.72, 278.294 L 619.946, 282.254 L 609.169, 243.573 L 611.789, 233.346 L 634.475, 208.662 z "/>
<path style="fill:rgb(255, 82, 7);fill-opacity:1.0;fill-rule:evenodd;stroke:rgb(0, 0, 0);stroke-width:3.0;" d="M 505.533, 503.788 L 507.245, 497.395 L 564.792, 491.716 z "/>
<path style="fill:rgb(31, 255, 209);fill-opacity:1.0;fill-rule:evenodd;stroke:rgb(0, 0, 0);stroke-width:3.0;" d="M 468.949, 83.9948 L 466.541, 84.902 L 463.289, 76.8834 L 463.472, 76.6875 L 483.53, 66.0896 z "/>
<path style="fill:rgb(255, 18, 74);fill-opacity:1.0;fill-rule:evenodd;stroke:rgb(0, 0, 0);stroke-width:3.0;" d="M 183.879, 503.873 L 185.149, 505.832 L 146.414, 506.513 L 142.008, 505.105 L 143.51, 503.52 z "/>
<path style="fill:rgb(184, 5, 255);fill-opacity:1.0;fill-rule:evenodd;stroke:rgb(0, 0, 0);stroke-width:3.0;" d="M 382.208, 394.688 L 398.321, 321.774 L 410.523, 318.543 z "/>
<path style="fill:rgb(184, 5, 255);fill-opacity:1.0;fill-rule:evenodd;stroke:rgb(0, 0, 0);stroke-width:3.0;" d="M 86.0504, 367.683 L 83.4216, 360.655 L 83.5086, 358.009 L 104.163, 357.316 z "/>
<path style="fill:rgb(184, 5, 255);fill-opacity:1.0;fill-rule:evenodd;stroke:rgb(0, 0, 0);stroke-width:3.0;" d="M 230.312, 561.162 L 229.327, 562.877 L 205.961, 555.871 L 243.57, 529.876 z "/>
<path style="fill:rgb(212, 182, 47);fill-opacity:1.0;fill-rule:evenodd;stroke:rgb(0, 0, 0);stroke-width:3.0;" d="M 241.685, 73.5347 L 226.877, 91.8532 L 223.017, 76.1454 L 224.372, 67.4264 L 231.772, 60.6374 L 235.796, 60.6183 z "/>
<path style="fill:rgb(212, 182, 47);fill-opacity:1.0;fill-rule:evenodd;stroke:rgb(0, 0, 0);stroke-width:3.0;" d="M 642.901, 263.212 L 634.475, 208.662 L 654.763, 186.587 L 738.74, 183.713 z "/>
<path style="fill:rgb(255, 204, 8);fill-opacity:1.0;fill-rule:evenodd;stroke:rgb(0, 0, 0);stroke-width:3.0;" d="M 323.68, 76.7816 L 264.364, 136.301 L 223.074, 96.5588 L 274.381, 33.0878 L 359.193, 25.7774 z "/>
<path style="fill:rgb(255, 204, 8);fill-opacity:1.0;fill-rule:evenodd;stroke:rgb(0, 0, 0);stroke-width:3.0;" d="M 426.171, 195.749 L 344.71, 215.729 L 407.423, 181.554 L 431.25, 172.768 z "/>
<path style="fill:rgb(255, 204, 8);fill-opacity:1.0;fill-rule:evenodd;stroke:rgb(0, 0, 0);stroke-width:3.0;" d="M 275.065, 146.601 L 264.364, 136.301 L 323.68, 76.7816 z "/>
<path style="fill:rgb(24, 7, 243);fill-opacity:1.0;fill-rule:evenodd;stroke:rgb(0, 0, 0);stroke-width:3.0;" d="M 345.612, 557.46 L 334.325, 561.093 L 316.729, 552.705 L 316.402, 551.496 L 321.759, 546.1 z "/>
<path style="fill:rgb(70, 249, 27);fill-opacity:1.0;fill-rule:evenodd;stroke:rgb(0, 0, 0);stroke-width:3.0;" d="M 783.639, 559.871 L 774.158, 561.334 L 762.85, 557.956 L 760.172, 555.933 L 780.085, 553.882 z "/>
<path style="fill:rgb(70, 249, 27);fill-opacity:1.0;fill-rule:evenodd;stroke:rgb(0, 0, 0);stroke-width:3.0;" d="M 790.702, 505.439 L 793.197, 512.558 L 760.838, 506.33 L 760.847, 498.554 z "/>
<path style="fill:rgb(70, 249, 27);fill-opacity:1.0;fill-rule:evenodd;stroke:rgb(0, 0, 0);stroke-width:3.0;" d="M 339.648, 528.08 L 332.181, 535.602 L 302.163, 548.33 L 296.976, 550.161 L 331.533, 521.496 z "/>
<path style="fill:rgb(70, 249, 27);fill-opacity:1.0;fill-rule:evenodd;stroke:rgb(0, 0, 0);stroke-width:3.0;" d="M 793.952, 499.087 L 789.119, 500.923 L 786.133, 492.402 L 783.638, 482.444 L 786.209, 477.477 z "/>
<path style="fill:rgb(255, 249, 46);fill-opacity:1.0;fill-rule:evenodd;stroke:rgb(0, 0, 0);stroke-width:3.0;" d="M 43.798, 556.536 L 35.837, 550.74 L 45.9034, 526.735 z "/>
<path style="fill:rgb(243, 255, 12);fill-opacity:1.0;fill-rule:evenodd;stroke:rgb(0, 0, 0);stroke-width:3.0;" d="M 292.997, 553.462 L 290.068, 555.892 L 266.981, 545.748 L 245.861, 528.293 L 263.335, 516.214 z "/>
<path style="fill:rgb(9, 255, 255);fill-opacity:1.0;fill-rule:evenodd;stroke:rgb(0, 0, 0);stroke-width:3.0;" d="M 755.232, 569.625 L 755.092, 570.743 L 715.551, 571.394 L 718.019, 569.997 L 750.366, 565.005 z "/>
<path style="fill:rgb(9, 255, 255);fill-opacity:1.0;fill-rule:evenodd;stroke:rgb(0, 0, 0);stroke-width:3.0;" d="M 707.928, 496.997 L 697.279, 512.666 L 695.328, 509.518 L 697.179, 499.27 L 708.27, 493.734 z "/>
<path style="fill:rgb(9, 255, 255);fill-opacity:1.0;fill-rule:evenodd;stroke:rgb(0, 0, 0);stroke-width:3.0;" d="M 305.459, 543.124 L 292.997, 553.462 L 263.335, 516.214 L 309.138, 484.556 z "/>
<path style="fill:rgb(189, 4, 237);fill-opacity:1.0;fill-rule:evenodd;stroke:rgb(0, 0, 0);stroke-width:3.0;" d="M 466.184, 84.0232 L 466.541, 84.902 L 460.884, 87.0326 L 441.883, 56.5962 L 442.315, 49.5109 z "/>
<path style="fill:rgb(243, 3, 202);fill-opacity:1.0;fill-rule:evenodd;stroke:rgb(0, 0, 0);stroke-width:3.0;" d="M 579.37, 200.729 L 578.448, 212.995 L 567.524, 208.286 L 565.118, 197.938 z "/>
<path style="fill:rgb(243, 3, 202);fill-opacity:1.0;fill-rule:evenodd;stroke:rgb(0, 0, 0);stroke-width:3.0;" d="M 583.916, 102.837 L 548.476, 126.355 L 545.48, 113.468 L 558.27, 91.207 z "/>
<path style="fill:rgb(246, 23, 252);fill-opacity:1.0;fill-rule:evenodd;stroke:rgb(0, 0, 0);stroke-width:3.0;" d="M 302.638, 565.36 L 273.653, 594.557 L 271.646, 590.77 L 274.357, 580.319 L 298.677, 557.275 z "/>
<path style="fill:rgb(246, 23, 252);fill-opacity:1.0;fill-rule:evenodd;stroke:rgb(0, 0, 0);stroke-width:3.0;" d="M 691.303, 588.309 L 686.667, 593.018 L 666.126, 570.47 z "/>
<path style="fill:rgb(255, 184, 25);fill-opacity:1.0;fill-rule:evenodd;stroke:rgb(0, 0, 0);stroke-width:3.0;" d="M 410.523, 318.543 L 398.321, 321.774 L 408.494, 275.739 L 427.137, 273.863 z "/>
<path style="fill:rgb(231, 21, 148);fill-opacity:1.0;fill-rule:evenodd;stroke:rgb(0, 0, 0);stroke-width:3.0;" d="M 736.947, 214.272 L 731.035, 208.016 L 732.508, 196.593 L 744.213, 186.844 z "/>
<path style="fill:rgb(20, 9, 255);fill-opacity:1.0;fill-rule:evenodd;stroke:rgb(0, 0, 0);stroke-width:3.0;" d="M 617.982, 538.798 L 514.25, 590.572 L 494.301, 582.138 L 450.648, 514.968 L 594.44, 485.677 z "/>
<path style="fill:rgb(75, 163, 249);fill-opacity:1.0;fill-rule:evenodd;stroke:rgb(0, 0, 0);stroke-width:3.0;" d="M 426.076, 394.411 L 423.489, 434.374 L 418.834, 434.943 L 421.525, 390.768 z "/>
<path style="fill:rgb(75, 163, 249);fill-opacity:1.0;fill-rule:evenodd;stroke:rgb(0, 0, 0);stroke-width:3.0;" d="M 259.153, 47.8114 L 260.978, 49.6682 L 252.19, 60.5401 L 231.772, 60.6374 L 250.55, 43.4099 z "/>
<path style="fill:rgb(75, 163, 249);fill-opacity:1.0;fill-rule:evenodd;stroke:rgb(0, 0, 0);stroke-width:3.0;" d="M 601.815, 110.954 L 590.939, 144.129 L 567.232, 138.732 L 600.051, 110.154 z "/>
<path style="fill:rgb(75, 163, 249);fill-opacity:1.0;fill-rule:evenodd;stroke:rgb(0, 0, 0);stroke-width:3.0;" d="M 575.563, 338.935 L 414.66, 452.541 L 610.744, 289.887 z "/>
<path style="fill:rgb(255, 24, 115);fill-opacity:1.0;fill-rule:evenodd;stroke:rgb(0, 0, 0);stroke-width:3.0;" d="M 404.112, 460.786 L 364.326, 475.608 L 382.208, 394.688 L 384.103, 389.592 z "/>
<path style="fill:rgb(255, 24, 115);fill-opacity:1.0;fill-rule:evenodd;stroke:rgb(0, 0, 0);stroke-width:3.0;" d="M 706.409, 592.63 L 700.362, 594.728 L 691.096, 588.162 L 699.545, 555.503 z "/>
<path style="fill:rgb(255, 24, 115);fill-opacity:1.0;fill-rule:evenodd;stroke:rgb(0, 0, 0);stroke-width:3.0;" d="M 314.915, 561.946 L 314.529, 562.57 L 304.104, 570.818 L 293.988, 574.074 L 312.128, 555.801 z "/>
<path style="fill:rgb(255, 24, 115);fill-opacity:1.0;fill-rule:evenodd;stroke:rgb(0, 0, 0);stroke-width:3.0;" d="M 525.547, 356.378 L 498.384, 360.65 L 500.069, 356.477 L 533.927, 339.843 z "/>
<path style="fill:rgb(255, 117, 52);fill-opacity:1.0;fill-rule:evenodd;stroke:rgb(0, 0, 0);stroke-width:3.0;" d="M 569.237, 428.811 L 567.517, 428.694 L 545.153, 386.494 L 549.796, 384.943 z "/>
<path style="fill:rgb(16, 237, 255);fill-opacity:1.0;fill-rule:evenodd;stroke:rgb(0, 0, 0);stroke-width:3.0;" d="M 471.12, 405.707 L 453.737, 420.126 L 430.086, 377.496 L 450.181, 368.655 z "/>
<path style="fill:rgb(255, 89, 8);fill-opacity:1.0;fill-rule:evenodd;stroke:rgb(0, 0, 0);stroke-width:3.0;" d="M 791.892, 529.341 L 787.769, 537.194 L 775.647, 525.514 L 787.318, 519.562 z "/>
<path style="fill:rgb(249, 231, 14);fill-opacity:1.0;fill-rule:evenodd;stroke:rgb(0, 0, 0);stroke-width:3.0;" d="M 252.952, 586.68 L 248.151, 590.662 L 230.414, 580.129 L 230.428, 579.186 L 238.108, 573.334 z "/>
<path style="fill:rgb(255, 115, 19);fill-opacity:1.0;fill-rule:evenodd;stroke:rgb(0, 0, 0);stroke-width:3.0;" d="M 743.106, 524.123 L 739.443, 533.356 L 724.56, 536.662 L 717.075, 509.556 z "/>
<path style="fill:rgb(42, 0, 255);fill-opacity:1.0;fill-rule:evenodd;stroke:rgb(0, 0, 0);stroke-width:3.0;" d="M 404.59, 293.408 L 223.245, 290.802 L 349.081, 214.657 L 426.171, 195.749 z "/>
<path style="fill:rgb(16, 209, 71);fill-opacity:1.0;fill-rule:evenodd;stroke:rgb(0, 0, 0);stroke-width:3.0;" d="M 379.138, 482.007 L 374.092, 471.97 L 405.215, 460.375 z "/>
<path style="fill:rgb(16, 209, 71);fill-opacity:1.0;fill-rule:evenodd;stroke:rgb(0, 0, 0);stroke-width:3.0;" d="M 597.42, 204.263 L 595.92, 214.816 L 589.399, 217.932 L 583.706, 211.024 L 587.297, 202.281 z "/>
<path style="fill:rgb(255, 123, 15);fill-opacity:1.0;fill-rule:evenodd;stroke:rgb(0, 0, 0);stroke-width:3.0;" d="M 453.737, 420.126 L 422.747, 445.833 L 424.52, 418.446 L 441.123, 397.391 z "/>
<path style="fill:rgb(255, 123, 15);fill-opacity:1.0;fill-rule:evenodd;stroke:rgb(0, 0, 0);stroke-width:3.0;" d="M 225.442, 86.0135 L 226.877, 91.8532 L 223.074, 96.5588 L 208.211, 82.2533 L 209.073, 81.4619 z "/>
<path style="fill:rgb(249, 57, 47);fill-opacity:1.0;fill-rule:evenodd;stroke:rgb(0, 0, 0);stroke-width:3.0;" d="M 200.964, 39.2153 L 201.26, 54.7933 L 190.279, 46.1654 L 193.258, 37.5649 z "/>
<path style="fill:rgb(255, 4, 31);fill-opacity:1.0;fill-rule:evenodd;stroke:rgb(0, 0, 0);stroke-width:3.0;" d="M 244.872, 48.6189 L 221.127, 70.4033 L 201.26, 54.7933 L 200.964, 39.2153 z "/>
<path style="fill:rgb(60, 159, 246);fill-opacity:1.0;fill-rule:evenodd;stroke:rgb(0, 0, 0);stroke-width:3.0;" d="M 93.8545, 29.6619 L 193.068, 131.16 L 34.9199, 46.9238 L 25.2482, 18.3066 z "/>
<path style="fill:rgb(60, 159, 246);fill-opacity:1.0;fill-rule:evenodd;stroke:rgb(0, 0, 0);stroke-width:3.0;" d="M 695.39, 241.798 L 657.979, 250.705 L 688.191, 225.644 L 694.965, 224.963 z "/>
<path style="fill:rgb(255, 11, 47);fill-opacity:1.0;fill-rule:evenodd;stroke:rgb(0, 0, 0);stroke-width:3.0;" d="M 642.901, 263.212 L 637.575, 267.631 L 628.178, 264.579 L 637.438, 227.846 z "/>
<path style="fill:rgb(110, 215, 255);fill-opacity:1.0;fill-rule:evenodd;stroke:rgb(0, 0, 0);stroke-width:3.0;" d="M 241.685, 73.5347 L 235.796, 60.6183 L 252.19, 60.5401 z "/>
<path style="fill:rgb(24, 187, 212);fill-opacity:1.0;fill-rule:evenodd;stroke:rgb(0, 0, 0);stroke-width:3.0;" d="M 302.638, 565.36 L 296.192, 552.202 L 320.955, 546.91 z "/>
<path style="fill:rgb(217, 231, 45);fill-opacity:1.0;fill-rule:evenodd;stroke:rgb(0, 0, 0);stroke-width:3.0;" d="M 751.533, 185.393 L 755.861, 197.315 L 744.936, 213.965 L 736.969, 214.42 L 749.905, 183.458 z "/>
<path style="fill:rgb(69, 128, 172);fill-opacity:1.0;fill-rule:evenodd;stroke:rgb(0, 0, 0);stroke-width:3.0;" d="M 316.955, 228.687 L 318.24, 233.319 L 315.134, 235.199 L 309.021, 237.684 L 306.113, 232.906 L 305.969, 225.231 L 307.883, 224.762 z "/>
<path style="fill:rgb(69, 128, 172);fill-opacity:1.0;fill-rule:evenodd;stroke:rgb(0, 0, 0);stroke-width:3.0;" d="M 422.636, 372.525 L 422.011, 382.788 L 387.361, 401.184 L 384.103, 389.592 L 402.007, 341.444 z "/>
<path style="fill:rgb(165, 54, 48);fill-opacity:1.0;fill-rule:evenodd;stroke:rgb(0, 0, 0);stroke-width:3.0;" d="M 748.441, 482.295 L 729.701, 514.012 L 723.233, 513.002 L 720.692, 511.58 L 734.682, 483.118 L 739.327, 479.56 z "/>
<path style="fill:rgb(212, 45, 215);fill-opacity:1.0;fill-rule:evenodd;stroke:rgb(0, 0, 0);stroke-width:3.0;" d="M 594.44, 485.677 L 564.792, 491.716 L 515.209, 496.609 L 591.414, 478.851 z "/>
<path style="fill:rgb(199, 16, 18);fill-opacity:1.0;fill-rule:evenodd;stroke:rgb(0, 0, 0);stroke-width:3.0;" d="M 591.414, 478.851 L 515.209, 496.609 L 499.131, 498.196 L 495.967, 487.92 L 588.657, 472.628 z "/>
<path style="fill:rgb(252, 179, 81);fill-opacity:1.0;fill-rule:evenodd;stroke:rgb(0, 0, 0);stroke-width:3.0;" d="M 578.448, 212.995 L 577.655, 223.546 L 571.73, 226.378 L 567.524, 208.286 z "/>
<path style="fill:rgb(255, 170, 6);fill-opacity:1.0;fill-rule:evenodd;stroke:rgb(0, 0, 0);stroke-width:3.0;" d="M 240.772, 349.967 L 185.81, 356.669 L 175.802, 322.532 z "/>
<path style="fill:rgb(255, 7, 56);fill-opacity:1.0;fill-rule:evenodd;stroke:rgb(0, 0, 0);stroke-width:3.0;" d="M 165.972, 41.5984 L 314.535, 184.59 L 301.124, 188.716 L 193.068, 131.16 L 93.8545, 29.6619 z "/>
<path style="fill:rgb(240, 17, 45);fill-opacity:1.0;fill-rule:evenodd;stroke:rgb(0, 0, 0);stroke-width:3.0;" d="M 104.861, 362.438 L 87.9222, 372.687 L 86.0504, 367.683 L 104.163, 357.316 L 107.189, 357.214 z "/>
<path style="fill:rgb(255, 17, 152);fill-opacity:1.0;fill-rule:evenodd;stroke:rgb(0, 0, 0);stroke-width:3.0;" d="M 694.756, 574.015 L 691.096, 588.162 L 676.202, 577.609 L 678.469, 554.825 z "/>
<path style="fill:rgb(23, 255, 115);fill-opacity:1.0;fill-rule:evenodd;stroke:rgb(0, 0, 0);stroke-width:3.0;" d="M 699.545, 555.503 L 694.756, 574.015 L 678.469, 554.825 L 679.773, 541.721 L 696.371, 538.338 z "/>
<path style="fill:rgb(255, 255, 44);fill-opacity:1.0;fill-rule:evenodd;stroke:rgb(0, 0, 0);stroke-width:3.0;" d="M 205.575, 137.822 L 218.452, 197.202 L 219.838, 213.72 L 218.992, 213.98 L 205.088, 137.563 z "/>
<path style="fill:rgb(136, 30, 255);fill-opacity:1.0;fill-rule:evenodd;stroke:rgb(0, 0, 0);stroke-width:3.0;" d="M 43.798, 556.536 L 42.7361, 571.565 L 33.5153, 571.518 L 36.7914, 561.249 L 40.7879, 554.344 z "/>
</svg>