<?xml version="1.0" encoding="iso-8859-1" standalone="no"?>
<!DOCTYPE svg PUBLIC "-//W3C//DTD SVG 1.0//EN" "http://www.w3.org/TR/2001/REC-SVG-20010904/DTD/svg10.dtd">
<svg xmlns="http://www.w3.org/2000/svg" width="800" height="600">
<path style="fill:rgb(0, 0, 0);fill-opacity:0.0;fill-rule:evenodd;stroke:rgb(0, 0, 0);stroke-width:0.0;" d="M 0, 600 L 800, 600 L 800, 0 L 0, 0 z "/>
<path style="fill:rgb(255, 9, 207);fill-opacity:1.0;fill-rule:evenodd;stroke:rgb(0, 0, 0);stroke-width:3.0;" d="M 77.6394, 351.048 L 76.7292, 352.729 L 57.396, 354.606 L 53.7514, 354 L 69.7976, 342.643 z "/>
<path style="fill:rgb(255, 9, 207);fill-opacity:1.0;fill-rule:evenodd;stroke:rgb(0, 0, 0);stroke-width:3.0;" d="M 351.987, 347.379 L 334.807, 328.247 L 340.847, 323.583 L 356.162, 322.466 z "/>
<path style="fill:rgb(255, 9, 207);fill-opacity:1.0;fill-rule:evenodd;stroke:rgb(0, 0, 0);stroke-width:3.0;" d="M 642.453, 395.884 L 642.737, 409.751 L 612.464, 412.689 L 626.828, 388.869 z "/>
<path style="fill:rgb(255, 9, 207);fill-opacity:1.0;fill-rule:evenodd;stroke:rgb(0, 0, 0);stroke-width:3.0;" d="M 542.362, 370.636 L 519.965, 347.013 L 532.948, 331.426 z "/>
<path style="fill:rgb(255, 9, 207);fill-opacity:1.0;fill-rule:evenodd;stroke:rgb(0, 0, 0);stroke-width:3.0;" d="M 610.324, 416.237 L 600.711, 432.177 L 542.362, 370.636 L 539.5, 358.713 L 574.877, 315.355 z "/>
<path style="fill:rgb(255, 9, 207);fill-opacity:1.0;fill-rule:evenodd;stroke:rgb(0, 0, 0);stroke-width:3.0;" d="M 709.47, 68.6846 L 159.192, 347.865 L 145.315, 328.626 L 715.645, 47.3649 z "/>
<path style="fill:rgb(50, 255, 243);fill-opacity:1.0;fill-rule:evenodd;stroke:rgb(0, 0, 0);stroke-width:3.0;" d="M 753.943, 139.518 L 734.267, 133.596 L 744.012, 125.141 z "/>
<path style="fill:rgb(50, 255, 243);fill-opacity:1.0;fill-rule:evenodd;stroke:rgb(0, 0, 0);stroke-width:3.0;" d="M 538.937, 280.427 L 525.867, 290.982 L 519.627, 292.867 L 520.659, 283.749 L 535.026, 278.2 z "/>
<path style="fill:rgb(50, 255, 243);fill-opacity:1.0;fill-rule:evenodd;stroke:rgb(0, 0, 0);stroke-width:3.0;" d="M 74.7325, 522.784 L 71.1644, 528.498 L 40.775, 528.191 L 32.9084, 522.509 L 48.6498, 518.434 z "/>
<path style="fill:rgb(50, 255, 243);fill-opacity:1.0;fill-rule:evenodd;stroke:rgb(0, 0, 0);stroke-width:3.0;" d="M 645.569, 548.099 L 645.586, 548.934 L 514.134, 575.738 L 521.91, 562.844 L 596.393, 526.72 z "/>
<path style="fill:rgb(50, 255, 243);fill-opacity:1.0;fill-rule:evenodd;stroke:rgb(0, 0, 0);stroke-width:3.0;" d="M 234.715, 218.427 L 224.22, 222.378 L 214.144, 216.914 L 218.422, 212.86 L 238.113, 211.682 z "/>
<path style="fill:rgb(50, 255, 243);fill-opacity:1.0;fill-rule:evenodd;stroke:rgb(0, 0, 0);stroke-width:3.0;" d="M 628.218, 255.358 L 614.728, 233.239 L 617.792, 229.56 L 633.449, 218.269 z "/>
<path style="fill:rgb(50, 255, 243);fill-opacity:1.0;fill-rule:evenodd;stroke:rgb(0, 0, 0);stroke-width:3.0;" d="M 200.878, 504.428 L 219.392, 539.459 L 216.951, 544.553 L 102.122, 490.917 L 135.661, 487.935 z "/>
<path style="fill:rgb(50, 255, 243);fill-opacity:1.0;fill-rule:evenodd;stroke:rgb(0, 0, 0);stroke-width:3.0;" d="M 775.945, 39.6799 L 775.891, 39.7435 L 760.628, 35.7434 L 776.551, 19.2261 z "/>
<path style="fill:rgb(255, 8, 10);fill-opacity:1.0;fill-rule:evenodd;stroke:rgb(0, 0, 0);stroke-width:3.0;" d="M 629.956, 383.684 L 610.324, 416.237 L 566.408, 291.253 L 568.096, 289.226 z "/>
<path style="fill:rgb(255, 255, 36);fill-opacity:1.0;fill-rule:evenodd;stroke:rgb(0, 0, 0);stroke-width:3.0;" d="M 50.352, 271.136 L 28.0033, 283.3 L 17.3521, 269.967 L 32.3181, 263.169 z "/>
<path style="fill:rgb(255, 255, 36);fill-opacity:1.0;fill-rule:evenodd;stroke:rgb(0, 0, 0);stroke-width:3.0;" d="M 200.878, 504.428 L 158.922, 493.818 L 164.865, 485.339 L 189.625, 483.138 z "/>
<path style="fill:rgb(255, 255, 36);fill-opacity:1.0;fill-rule:evenodd;stroke:rgb(0, 0, 0);stroke-width:3.0;" d="M 668.559, 70.5857 L 597.269, 105.743 L 657.729, 59.015 z "/>
<path style="fill:rgb(255, 255, 36);fill-opacity:1.0;fill-rule:evenodd;stroke:rgb(0, 0, 0);stroke-width:3.0;" d="M 723.565, 183.161 L 738.988, 202.888 L 738.85, 203.117 L 685.144, 169.674 L 702.691, 165.136 z "/>
<path style="fill:rgb(255, 255, 36);fill-opacity:1.0;fill-rule:evenodd;stroke:rgb(0, 0, 0);stroke-width:3.0;" d="M 159.568, 348.386 L 127.737, 366.041 L 5.54974, 134.853 z "/>
<path style="fill:rgb(30, 157, 255);fill-opacity:1.0;fill-rule:evenodd;stroke:rgb(0, 0, 0);stroke-width:3.0;" d="M 511.118, 580.738 L 503.012, 548.053 L 552.256, 512.524 z "/>
<path style="fill:rgb(30, 157, 255);fill-opacity:1.0;fill-rule:evenodd;stroke:rgb(0, 0, 0);stroke-width:3.0;" d="M 676.837, 132.876 L 669.836, 135.737 L 668.218, 125.181 L 670.691, 110.944 L 673.163, 108.053 z "/>
<path style="fill:rgb(30, 157, 255);fill-opacity:1.0;fill-rule:evenodd;stroke:rgb(0, 0, 0);stroke-width:3.0;" d="M 710.929, 249.415 L 629.956, 383.684 L 613.635, 358.762 L 634.723, 209.232 L 635.59, 208.192 z "/>
<path style="fill:rgb(255, 55, 14);fill-opacity:1.0;fill-rule:evenodd;stroke:rgb(0, 0, 0);stroke-width:3.0;" d="M 48.2127, 215.574 L 55.8028, 229.935 L 41.2818, 243.699 L 18.8593, 247.449 L 18.1367, 241.817 L 31.3743, 201.536 z "/>
<path style="fill:rgb(252, 226, 75);fill-opacity:1.0;fill-rule:evenodd;stroke:rgb(0, 0, 0);stroke-width:3.0;" d="M 360.642, 574.326 L 360.027, 575.691 L 338.907, 564.395 L 349.958, 551.127 z "/>
<path style="fill:rgb(187, 97, 255);fill-opacity:1.0;fill-rule:evenodd;stroke:rgb(0, 0, 0);stroke-width:3.0;" d="M 600.711, 432.177 L 575.699, 473.652 L 492.484, 380.008 L 519.965, 347.013 z "/>
<path style="fill:rgb(255, 119, 30);fill-opacity:1.0;fill-rule:evenodd;stroke:rgb(0, 0, 0);stroke-width:3.0;" d="M 618.853, 321.761 L 613.635, 358.762 L 568.096, 289.226 L 593.838, 258.32 z "/>
<path style="fill:rgb(255, 134, 11);fill-opacity:1.0;fill-rule:evenodd;stroke:rgb(0, 0, 0);stroke-width:3.0;" d="M 723.565, 183.161 L 684.521, 149.445 L 691.062, 141.591 z "/>
<path style="fill:rgb(209, 36, 114);fill-opacity:1.0;fill-rule:evenodd;stroke:rgb(0, 0, 0);stroke-width:3.0;" d="M 510.374, 469.975 L 506.582, 475.899 L 488.237, 474.985 L 505.401, 458.29 z "/>
<path style="fill:rgb(209, 36, 114);fill-opacity:1.0;fill-rule:evenodd;stroke:rgb(0, 0, 0);stroke-width:3.0;" d="M 215.955, 396.716 L 200.707, 405.422 L 194.403, 396.683 L 196.601, 391.058 L 213.905, 388.816 z "/>
<path style="fill:rgb(209, 36, 114);fill-opacity:1.0;fill-rule:evenodd;stroke:rgb(0, 0, 0);stroke-width:3.0;" d="M 487.835, 440.668 L 451.662, 451.734 L 450.122, 430.868 L 460.736, 418.125 z "/>
<path style="fill:rgb(249, 240, 36);fill-opacity:1.0;fill-rule:evenodd;stroke:rgb(0, 0, 0);stroke-width:3.0;" d="M 247.512, 445.925 L 237.225, 454.231 L 231.417, 444.197 L 241.733, 441.105 z "/>
<path style="fill:rgb(249, 240, 36);fill-opacity:1.0;fill-rule:evenodd;stroke:rgb(0, 0, 0);stroke-width:3.0;" d="M 496.412, 467.034 L 464.679, 497.9 L 447.852, 452.899 L 491.824, 439.447 z "/>
<path style="fill:rgb(249, 240, 36);fill-opacity:1.0;fill-rule:evenodd;stroke:rgb(0, 0, 0);stroke-width:3.0;" d="M 23.4355, 536.894 L 19.3143, 545.734 L 18.0927, 546.702 L 7.68701, 547.086 L 6.00773, 543.639 L 24.2468, 531.716 z "/>
<path style="fill:rgb(249, 240, 36);fill-opacity:1.0;fill-rule:evenodd;stroke:rgb(0, 0, 0);stroke-width:3.0;" d="M 212.444, 383.184 L 213.905, 388.816 L 196.599, 391.059 L 189.872, 388.023 L 194.436, 382.166 z "/>
<path style="fill:rgb(249, 240, 36);fill-opacity:1.0;fill-rule:evenodd;stroke:rgb(0, 0, 0);stroke-width:3.0;" d="M 731.953, 53.6367 L 708.164, 73.1929 L 715.645, 47.3649 L 735.346, 37.6494 z "/>
<path style="fill:rgb(26, 8, 255);fill-opacity:1.0;fill-rule:evenodd;stroke:rgb(0, 0, 0);stroke-width:3.0;" d="M 58.3826, 515.915 L 31.9747, 522.751 L 35.7055, 510.899 z "/>
<path style="fill:rgb(37, 11, 231);fill-opacity:1.0;fill-rule:evenodd;stroke:rgb(0, 0, 0);stroke-width:3.0;" d="M 644.421, 492.034 L 644.652, 503.315 L 521.91, 562.844 L 608.159, 419.826 z "/>
<path style="fill:rgb(37, 11, 231);fill-opacity:1.0;fill-rule:evenodd;stroke:rgb(0, 0, 0);stroke-width:3.0;" d="M 770.481, 125.62 L 756.741, 143.569 L 747.866, 130.721 L 757.137, 85.1658 z "/>
<path style="fill:rgb(23, 142, 255);fill-opacity:1.0;fill-rule:evenodd;stroke:rgb(0, 0, 0);stroke-width:3.0;" d="M 731.144, 111.853 L 723.01, 118.321 L 714.591, 113.341 L 718.121, 109.104 L 731.527, 102.9 z "/>
<path style="fill:rgb(7, 255, 114);fill-opacity:1.0;fill-rule:evenodd;stroke:rgb(0, 0, 0);stroke-width:3.0;" d="M 412.031, 529.591 L 399.654, 573.783 L 397.911, 569.896 L 394.352, 541.596 L 411.84, 526.293 z "/>
<path style="fill:rgb(7, 255, 114);fill-opacity:1.0;fill-rule:evenodd;stroke:rgb(0, 0, 0);stroke-width:3.0;" d="M 530.399, 333.881 L 529.237, 335.881 L 512.478, 356.002 L 515.953, 325.312 L 521.781, 323.091 z "/>
<path style="fill:rgb(7, 255, 114);fill-opacity:1.0;fill-rule:evenodd;stroke:rgb(0, 0, 0);stroke-width:3.0;" d="M 543.209, 311.826 L 540.896, 315.809 L 522.391, 322.859 L 522.065, 299.708 z "/>
<path style="fill:rgb(7, 255, 114);fill-opacity:1.0;fill-rule:evenodd;stroke:rgb(0, 0, 0);stroke-width:3.0;" d="M 510.536, 453.295 L 496.412, 467.034 L 493.035, 446.733 L 501.274, 436.556 L 505.757, 435.185 z "/>
<path style="fill:rgb(7, 255, 114);fill-opacity:1.0;fill-rule:evenodd;stroke:rgb(0, 0, 0);stroke-width:3.0;" d="M 370.015, 553.529 L 369.317, 555.078 L 353.223, 555.879 L 361.156, 539.636 z "/>
<path style="fill:rgb(252, 50, 66);fill-opacity:1.0;fill-rule:evenodd;stroke:rgb(0, 0, 0);stroke-width:3.0;" d="M 757.526, 590.615 L 761.558, 555.466 L 784.15, 549.445 z "/>
<path style="fill:rgb(252, 50, 66);fill-opacity:1.0;fill-rule:evenodd;stroke:rgb(0, 0, 0);stroke-width:3.0;" d="M 475.731, 303.491 L 296.145, 537.74 L 236.395, 454.901 L 459.901, 274.455 z "/>
<path style="fill:rgb(255, 47, 69);fill-opacity:1.0;fill-rule:evenodd;stroke:rgb(0, 0, 0);stroke-width:3.0;" d="M 127.889, 366.328 L 89.1927, 359.894 L 28.0033, 283.3 L 71.496, 259.628 z "/>
<path style="fill:rgb(88, 52, 252);fill-opacity:1.0;fill-rule:evenodd;stroke:rgb(0, 0, 0);stroke-width:3.0;" d="M 486.592, 283.415 L 487.773, 293.051 L 475.939, 303.872 L 459.901, 274.455 L 472.288, 264.454 z "/>
<path style="fill:rgb(255, 75, 12);fill-opacity:1.0;fill-rule:evenodd;stroke:rgb(0, 0, 0);stroke-width:3.0;" d="M 265.975, 411.019 L 272.332, 421.568 L 223.295, 425.006 L 218.277, 405.665 L 231.708, 402.547 z "/>
<path style="fill:rgb(255, 75, 12);fill-opacity:1.0;fill-rule:evenodd;stroke:rgb(0, 0, 0);stroke-width:3.0;" d="M 127.889, 366.328 L 168.815, 443.763 L 44.3199, 474.915 L 17.1451, 459.724 L 11.9517, 347.049 z "/>
<path style="fill:rgb(255, 74, 115);fill-opacity:1.0;fill-rule:evenodd;stroke:rgb(0, 0, 0);stroke-width:3.0;" d="M 69.7976, 342.643 L 60.5095, 349.217 L 54.5066, 333.737 L 58.4145, 330.442 z "/>
<path style="fill:rgb(255, 74, 115);fill-opacity:1.0;fill-rule:evenodd;stroke:rgb(0, 0, 0);stroke-width:3.0;" d="M 60.4808, 542.425 L 61.2099, 545.11 L 26.0345, 546.408 L 32.427, 535.353 L 41.1401, 528.455 z "/>
<path style="fill:rgb(255, 74, 115);fill-opacity:1.0;fill-rule:evenodd;stroke:rgb(0, 0, 0);stroke-width:3.0;" d="M 757.137, 85.1658 L 751.622, 112.263 L 736.733, 90.5671 L 743.953, 78.1057 L 753.099, 72.9229 z "/>
<path style="fill:rgb(255, 74, 115);fill-opacity:1.0;fill-rule:evenodd;stroke:rgb(0, 0, 0);stroke-width:3.0;" d="M 65.4205, 248.133 L 23.6894, 267.088 L 16.6057, 247.825 L 61.3075, 240.351 z "/>
<path style="fill:rgb(255, 2, 13);fill-opacity:1.0;fill-rule:evenodd;stroke:rgb(0, 0, 0);stroke-width:3.0;" d="M 625.085, 268.709 L 618.136, 288.337 L 611.671, 280.324 L 613.79, 267.32 z "/>
<path style="fill:rgb(255, 2, 13);fill-opacity:1.0;fill-rule:evenodd;stroke:rgb(0, 0, 0);stroke-width:3.0;" d="M 95.4629, 505.94 L 95.2325, 506.376 L 58.3826, 515.915 L 31.2293, 509.909 L 34.0206, 504.745 z "/>
<path style="fill:rgb(255, 57, 25);fill-opacity:1.0;fill-rule:evenodd;stroke:rgb(0, 0, 0);stroke-width:3.0;" d="M 626.314, 268.861 L 618.853, 321.761 L 612.24, 304.989 L 625.085, 268.709 z "/>
<path style="fill:rgb(243, 21, 11);fill-opacity:1.0;fill-rule:evenodd;stroke:rgb(0, 0, 0);stroke-width:3.0;" d="M 27.0633, 319.994 L 23.6412, 330.664 L 16.5504, 334.782 L 18.0087, 316.065 z "/>
<path style="fill:rgb(243, 21, 11);fill-opacity:1.0;fill-rule:evenodd;stroke:rgb(0, 0, 0);stroke-width:3.0;" d="M 502.109, 475.676 L 475.513, 523.206 L 473.224, 489.589 L 488.237, 474.985 z "/>
<path style="fill:rgb(243, 21, 11);fill-opacity:1.0;fill-rule:evenodd;stroke:rgb(0, 0, 0);stroke-width:3.0;" d="M 23.4417, 192.409 L 22.1992, 196.784 L 13.2215, 203.507 L 11.0147, 186.308 z "/>
<path style="fill:rgb(226, 19, 255);fill-opacity:1.0;fill-rule:evenodd;stroke:rgb(0, 0, 0);stroke-width:3.0;" d="M 644.421, 492.034 L 608.159, 419.826 L 612.464, 412.689 L 642.737, 409.751 z "/>
<path style="fill:rgb(249, 25, 81);fill-opacity:1.0;fill-rule:evenodd;stroke:rgb(0, 0, 0);stroke-width:3.0;" d="M 513.012, 432.966 L 489.632, 440.118 L 486.324, 439.41 L 466.105, 422.592 L 486.139, 396.935 z "/>
<path style="fill:rgb(103, 240, 255);fill-opacity:1.0;fill-rule:evenodd;stroke:rgb(0, 0, 0);stroke-width:3.0;" d="M 359.378, 355.611 L 316.755, 390.023 L 291.728, 387.327 L 279.846, 370.689 L 334.807, 328.247 z "/>
<path style="fill:rgb(44, 146, 255);fill-opacity:1.0;fill-rule:evenodd;stroke:rgb(0, 0, 0);stroke-width:3.0;" d="M 743.243, 136.297 L 729.284, 155.351 L 730.266, 132.392 z "/>
<path style="fill:rgb(44, 146, 255);fill-opacity:1.0;fill-rule:evenodd;stroke:rgb(0, 0, 0);stroke-width:3.0;" d="M 56.9113, 267.566 L 50.352, 271.136 L 41.6717, 267.301 L 41.8505, 266.498 L 56.761, 257.352 z "/>
<path style="fill:rgb(212, 123, 255);fill-opacity:1.0;fill-rule:evenodd;stroke:rgb(0, 0, 0);stroke-width:3.0;" d="M 397.195, 280.071 L 333.607, 329.174 L 296.653, 278.125 L 356.972, 247.522 z "/>
<path style="fill:rgb(212, 123, 255);fill-opacity:1.0;fill-rule:evenodd;stroke:rgb(0, 0, 0);stroke-width:3.0;" d="M 567.144, 487.837 L 561.239, 497.629 L 542.1, 471.967 L 538.475, 448.007 z "/>
<path style="fill:rgb(212, 123, 255);fill-opacity:1.0;fill-rule:evenodd;stroke:rgb(0, 0, 0);stroke-width:3.0;" d="M 531.387, 457.603 L 520.079, 498.305 L 483.431, 548.047 L 474.936, 525.33 L 524.342, 448.157 z "/>
<path style="fill:rgb(212, 123, 255);fill-opacity:1.0;fill-rule:evenodd;stroke:rgb(0, 0, 0);stroke-width:3.0;" d="M 420.009, 488.573 L 426.422, 502.692 L 406.433, 486.3 L 406.167, 483.641 L 406.706, 482.994 z "/>
<path style="fill:rgb(234, 37, 20);fill-opacity:1.0;fill-rule:evenodd;stroke:rgb(0, 0, 0);stroke-width:3.0;" d="M 410.471, 502.641 L 411.84, 526.293 L 411.807, 526.321 L 397.922, 500.138 L 406.938, 493.324 z "/>
<path style="fill:rgb(234, 37, 20);fill-opacity:1.0;fill-rule:evenodd;stroke:rgb(0, 0, 0);stroke-width:3.0;" d="M 210.359, 418.804 L 250.524, 474.489 L 248.965, 477.743 L 224.848, 473.214 L 164.454, 435.511 L 152.055, 412.053 z "/>
<path style="fill:rgb(234, 37, 20);fill-opacity:1.0;fill-rule:evenodd;stroke:rgb(0, 0, 0);stroke-width:3.0;" d="M 36.3653, 293.767 L 35.0772, 301.192 L 18.7335, 306.762 L 21.2228, 274.812 z "/>
<path style="fill:rgb(255, 189, 30);fill-opacity:1.0;fill-rule:evenodd;stroke:rgb(0, 0, 0);stroke-width:3.0;" d="M 141.212, 469.775 L 126.076, 471.265 L 140.594, 450.825 L 149.413, 448.618 z "/>
<path style="fill:rgb(255, 45, 69);fill-opacity:1.0;fill-rule:evenodd;stroke:rgb(0, 0, 0);stroke-width:3.0;" d="M 158.379, 480.249 L 159.943, 485.777 L 129.242, 488.506 L 128.663, 487.344 L 134.795, 484.064 L 157.58, 478.558 z "/>
<path style="fill:rgb(255, 45, 69);fill-opacity:1.0;fill-rule:evenodd;stroke:rgb(0, 0, 0);stroke-width:3.0;" d="M 169.353, 361.952 L 173.145, 367.21 L 159.241, 412.885 L 152.055, 412.053 L 127.737, 366.041 L 149.631, 353.897 z "/>
<path style="fill:rgb(65, 12, 255);fill-opacity:1.0;fill-rule:evenodd;stroke:rgb(0, 0, 0);stroke-width:3.0;" d="M 738.85, 203.117 L 710.929, 249.415 L 635.59, 208.192 L 673.639, 162.51 z "/>
<path style="fill:rgb(65, 12, 255);fill-opacity:1.0;fill-rule:evenodd;stroke:rgb(0, 0, 0);stroke-width:3.0;" d="M 411.807, 526.321 L 398.648, 537.837 L 398.187, 537.594 L 389.854, 509.509 L 391.481, 505.901 L 400.205, 504.443 z "/>
<path style="fill:rgb(65, 12, 255);fill-opacity:1.0;fill-rule:evenodd;stroke:rgb(0, 0, 0);stroke-width:3.0;" d="M 544.48, 109.242 L 538.693, 126.853 L 531.882, 132.587 L 539.869, 104.136 z "/>
<path style="fill:rgb(65, 12, 255);fill-opacity:1.0;fill-rule:evenodd;stroke:rgb(0, 0, 0);stroke-width:3.0;" d="M 122.523, 476.267 L 125.468, 454.61 L 140.594, 450.825 z "/>
<path style="fill:rgb(17, 4, 240);fill-opacity:1.0;fill-rule:evenodd;stroke:rgb(0, 0, 0);stroke-width:3.0;" d="M 122.523, 476.267 L 119.681, 480.269 L 106.92, 461.031 L 120.35, 455.891 L 125.468, 454.61 z "/>
<path style="fill:rgb(255, 42, 115);fill-opacity:1.0;fill-rule:evenodd;stroke:rgb(0, 0, 0);stroke-width:3.0;" d="M 425.038, 302.602 L 358.042, 248.388 L 534.908, 213.899 z "/>
<path style="fill:rgb(255, 42, 115);fill-opacity:1.0;fill-rule:evenodd;stroke:rgb(0, 0, 0);stroke-width:3.0;" d="M 509.935, 534.819 L 485.168, 552.694 L 483.431, 548.047 L 520.079, 498.305 z "/>
<path style="fill:rgb(255, 42, 115);fill-opacity:1.0;fill-rule:evenodd;stroke:rgb(0, 0, 0);stroke-width:3.0;" d="M 697.929, 133.346 L 687.191, 146.239 L 653.989, 151.589 L 670.222, 135.579 L 695.927, 125.076 z "/>
<path style="fill:rgb(255, 42, 115);fill-opacity:1.0;fill-rule:evenodd;stroke:rgb(0, 0, 0);stroke-width:3.0;" d="M 99.9762, 506.028 L 134.774, 525.481 L 111.223, 543.263 L 75.0184, 544.6 L 95.4629, 505.94 z "/>
<path style="fill:rgb(255, 2, 12);fill-opacity:1.0;fill-rule:evenodd;stroke:rgb(0, 0, 0);stroke-width:3.0;" d="M 250.092, 329.022 L 189.053, 332.715 L 207.955, 323.125 L 239.008, 313.499 z "/>
<path style="fill:rgb(255, 2, 12);fill-opacity:1.0;fill-rule:evenodd;stroke:rgb(0, 0, 0);stroke-width:3.0;" d="M 163.908, 453.904 L 154.172, 465.381 L 149.428, 448.614 L 164.51, 444.841 z "/>
<path style="fill:rgb(146, 255, 189);fill-opacity:1.0;fill-rule:evenodd;stroke:rgb(0, 0, 0);stroke-width:3.0;" d="M 265.14, 431.694 L 260.423, 435.502 L 233.375, 443.61 L 240.072, 431.912 L 258.276, 425.479 z "/>
<path style="fill:rgb(72, 64, 252);fill-opacity:1.0;fill-rule:evenodd;stroke:rgb(0, 0, 0);stroke-width:3.0;" d="M 24.9565, 187.076 L 23.4417, 192.409 L 12.733, 187.151 L 11.9422, 183.065 L 17.9717, 176.609 z "/>
<path style="fill:rgb(40, 255, 255);fill-opacity:1.0;fill-rule:evenodd;stroke:rgb(0, 0, 0);stroke-width:3.0;" d="M 181.427, 467.626 L 165.206, 457.516 L 166.675, 450.643 L 170.234, 446.448 z "/>
<path style="fill:rgb(255, 255, 19);fill-opacity:1.0;fill-rule:evenodd;stroke:rgb(0, 0, 0);stroke-width:3.0;" d="M 287.968, 364.416 L 279.846, 370.689 L 246.51, 324.005 L 243.493, 307.092 z "/>
<path style="fill:rgb(255, 255, 19);fill-opacity:1.0;fill-rule:evenodd;stroke:rgb(0, 0, 0);stroke-width:3.0;" d="M 216.44, 512.285 L 226.545, 524.531 L 222.667, 532.625 L 221.735, 533.479 L 212.442, 511.955 z "/>
<path style="fill:rgb(255, 255, 19);fill-opacity:1.0;fill-rule:evenodd;stroke:rgb(0, 0, 0);stroke-width:3.0;" d="M 476.895, 591.695 L 462.339, 590.671 L 457.812, 564 z "/>
<path style="fill:rgb(255, 255, 19);fill-opacity:1.0;fill-rule:evenodd;stroke:rgb(0, 0, 0);stroke-width:3.0;" d="M 376.404, 539.352 L 370.015, 553.529 L 364.054, 544.182 L 364.929, 533.152 L 366.711, 531.013 z "/>
<path style="fill:rgb(243, 255, 29);fill-opacity:1.0;fill-rule:evenodd;stroke:rgb(0, 0, 0);stroke-width:3.0;" d="M 707.851, 74.2749 L 534.908, 213.899 L 358.042, 248.388 L 356.972, 247.522 L 709.47, 68.6846 z "/>
<path style="fill:rgb(243, 255, 29);fill-opacity:1.0;fill-rule:evenodd;stroke:rgb(0, 0, 0);stroke-width:3.0;" d="M 407.773, 288.631 L 425.038, 302.602 L 409.102, 315.467 L 388.15, 287.056 L 394.808, 281.914 z "/>
<path style="fill:rgb(243, 255, 29);fill-opacity:1.0;fill-rule:evenodd;stroke:rgb(0, 0, 0);stroke-width:3.0;" d="M 475.513, 523.206 L 474.691, 524.675 L 464.679, 497.9 L 473.224, 489.589 z "/>
<path style="fill:rgb(243, 255, 29);fill-opacity:1.0;fill-rule:evenodd;stroke:rgb(0, 0, 0);stroke-width:3.0;" d="M 733.137, 91.0756 L 709.405, 119.569 L 699.738, 123.518 L 703.471, 81.0737 L 742.144, 64.362 z "/>
<path style="fill:rgb(228, 34, 119);fill-opacity:1.0;fill-rule:evenodd;stroke:rgb(0, 0, 0);stroke-width:3.0;" d="M 749.969, 41.156 L 742.144, 64.362 L 703.471, 81.0737 L 703.78, 77.5609 L 749.254, 40.8484 z "/>
<path style="fill:rgb(240, 255, 51);fill-opacity:1.0;fill-rule:evenodd;stroke:rgb(0, 0, 0);stroke-width:3.0;" d="M 618.136, 288.337 L 612.24, 304.989 L 608.994, 296.756 L 611.671, 280.324 z "/>
<path style="fill:rgb(240, 255, 51);fill-opacity:1.0;fill-rule:evenodd;stroke:rgb(0, 0, 0);stroke-width:3.0;" d="M 230.685, 380.751 L 226.382, 401.23 L 216.492, 398.785 L 211.27, 378.66 z "/>
<path style="fill:rgb(170, 192, 209);fill-opacity:1.0;fill-rule:evenodd;stroke:rgb(0, 0, 0);stroke-width:3.0;" d="M 498.055, 399.505 L 493.02, 406.161 L 482.476, 392.023 L 490.143, 382.818 z "/>
<path style="fill:rgb(170, 192, 209);fill-opacity:1.0;fill-rule:evenodd;stroke:rgb(0, 0, 0);stroke-width:3.0;" d="M 424.81, 501.37 L 415.376, 515.576 L 409.939, 501.239 L 410.185, 496.957 L 416.968, 494.939 z "/>
<path style="fill:rgb(170, 192, 209);fill-opacity:1.0;fill-rule:evenodd;stroke:rgb(0, 0, 0);stroke-width:3.0;" d="M 268.521, 403.531 L 273.199, 421.507 L 272.332, 421.568 L 259.634, 400.499 L 263.011, 397.413 z "/>
<path style="fill:rgb(170, 192, 209);fill-opacity:1.0;fill-rule:evenodd;stroke:rgb(0, 0, 0);stroke-width:3.0;" d="M 248.917, 382.715 L 265.975, 411.019 L 232.464, 402.734 L 229.708, 385.399 L 230.685, 380.751 z "/>
<path style="fill:rgb(255, 17, 103);fill-opacity:1.0;fill-rule:evenodd;stroke:rgb(0, 0, 0);stroke-width:3.0;" d="M 401.588, 319.15 L 348.308, 323.039 L 344.282, 320.93 L 379.198, 293.968 z "/>
<path style="fill:rgb(255, 234, 9);fill-opacity:1.0;fill-rule:evenodd;stroke:rgb(0, 0, 0);stroke-width:3.0;" d="M 230.9, 226 L 190.404, 306.39 L 184.218, 309.44 L 169.678, 259.059 L 214.144, 216.914 z "/>
<path style="fill:rgb(255, 234, 45);fill-opacity:1.0;fill-rule:evenodd;stroke:rgb(0, 0, 0);stroke-width:3.0;" d="M 413.6, 560.066 L 403.037, 561.704 L 407.124, 547.111 L 410.273, 545.16 z "/>
<path style="fill:rgb(255, 234, 45);fill-opacity:1.0;fill-rule:evenodd;stroke:rgb(0, 0, 0);stroke-width:3.0;" d="M 35.7055, 510.899 L 33.6794, 517.335 L 9.97512, 517.23 L 14.0795, 506.116 z "/>
<path style="fill:rgb(255, 3, 57);fill-opacity:1.0;fill-rule:evenodd;stroke:rgb(0, 0, 0);stroke-width:3.0;" d="M 363.384, 568.241 L 357.014, 566.449 L 352.669, 557.014 L 353.223, 555.879 L 369.317, 555.078 z "/>
<path style="fill:rgb(255, 3, 57);fill-opacity:1.0;fill-rule:evenodd;stroke:rgb(0, 0, 0);stroke-width:3.0;" d="M 22.8416, 517.287 L 30.7265, 523.074 L 25.3195, 524.473 L 8.18538, 522.077 L 9.97512, 517.23 z "/>
<path style="fill:rgb(255, 3, 57);fill-opacity:1.0;fill-rule:evenodd;stroke:rgb(0, 0, 0);stroke-width:3.0;" d="M 261.953, 345.632 L 170.657, 342.048 L 189.053, 332.715 L 250.092, 329.022 z "/>
<path style="fill:rgb(255, 3, 57);fill-opacity:1.0;fill-rule:evenodd;stroke:rgb(0, 0, 0);stroke-width:3.0;" d="M 466.928, 170.021 L 425.58, 190.412 L 433.909, 138.361 L 522.633, 88.9528 z "/>
<path style="fill:rgb(255, 3, 57);fill-opacity:1.0;fill-rule:evenodd;stroke:rgb(0, 0, 0);stroke-width:3.0;" d="M 390.796, 290.644 L 394.609, 311.301 L 379.198, 293.968 L 388.15, 287.056 z "/>
<path style="fill:rgb(255, 3, 57);fill-opacity:1.0;fill-rule:evenodd;stroke:rgb(0, 0, 0);stroke-width:3.0;" d="M 518.754, 268.932 L 488.257, 251.562 L 505.843, 237.364 z "/>
<path style="fill:rgb(199, 19, 255);fill-opacity:1.0;fill-rule:evenodd;stroke:rgb(0, 0, 0);stroke-width:3.0;" d="M 400.36, 490.614 L 384.889, 441.859 L 453.952, 426.27 z "/>
<path style="fill:rgb(199, 19, 255);fill-opacity:1.0;fill-rule:evenodd;stroke:rgb(0, 0, 0);stroke-width:3.0;" d="M 520.759, 282.874 L 512.478, 356.002 L 507.572, 361.892 L 493.536, 336.148 L 500.756, 264.637 z "/>
<path style="fill:rgb(199, 19, 255);fill-opacity:1.0;fill-rule:evenodd;stroke:rgb(0, 0, 0);stroke-width:3.0;" d="M 314.726, 303.092 L 333.607, 329.174 L 291.677, 361.552 L 255.155, 309.204 L 255.046, 299.234 L 275.458, 288.878 z "/>
<path style="fill:rgb(199, 19, 255);fill-opacity:1.0;fill-rule:evenodd;stroke:rgb(0, 0, 0);stroke-width:3.0;" d="M 529.061, 274.802 L 518.754, 268.932 L 505.843, 237.364 L 576.611, 180.23 L 624.981, 180.199 z "/>
<path style="fill:rgb(255, 30, 11);fill-opacity:1.0;fill-rule:evenodd;stroke:rgb(0, 0, 0);stroke-width:3.0;" d="M 181.427, 467.626 L 189.625, 483.138 L 159.943, 485.777 L 158.218, 479.68 L 173.702, 462.812 z "/>
<path style="fill:rgb(246, 12, 8);fill-opacity:1.0;fill-rule:evenodd;stroke:rgb(0, 0, 0);stroke-width:3.0;" d="M 224.848, 473.214 L 179.922, 464.778 L 164.454, 435.511 z "/>
<path style="fill:rgb(246, 12, 8);fill-opacity:1.0;fill-rule:evenodd;stroke:rgb(0, 0, 0);stroke-width:3.0;" d="M 507.572, 361.892 L 453.952, 426.27 L 366.463, 446.018 L 475.731, 303.491 z "/>
<path style="fill:rgb(38, 0, 159);fill-opacity:1.0;fill-rule:evenodd;stroke:rgb(0, 0, 0);stroke-width:3.0;" d="M 215.239, 548.127 L 206.797, 565.743 L 108.973, 511.058 z "/>
<path style="fill:rgb(38, 0, 159);fill-opacity:1.0;fill-rule:evenodd;stroke:rgb(0, 0, 0);stroke-width:3.0;" d="M 737.528, 34.8863 L 732.018, 39.2908 L 712.158, 49.0848 L 728.828, 27.568 z "/>
<path style="fill:rgb(157, 45, 40);fill-opacity:1.0;fill-rule:evenodd;stroke:rgb(0, 0, 0);stroke-width:3.0;" d="M 729.642, 146.989 L 728.644, 170.342 L 718.763, 170.576 L 721.976, 141.433 z "/>
<path style="fill:rgb(97, 44, 255);fill-opacity:1.0;fill-rule:evenodd;stroke:rgb(0, 0, 0);stroke-width:3.0;" d="M 156.217, 472.607 L 125.942, 488.799 L 125.374, 488.85 L 121.979, 483.732 L 137.719, 470.119 L 155.031, 468.415 z "/>
<path style="fill:rgb(97, 44, 255);fill-opacity:1.0;fill-rule:evenodd;stroke:rgb(0, 0, 0);stroke-width:3.0;" d="M 391.046, 553.006 L 372.976, 559.425 L 368.857, 556.098 L 370.588, 552.259 L 388.916, 542.377 z "/>
<path style="fill:rgb(97, 44, 255);fill-opacity:1.0;fill-rule:evenodd;stroke:rgb(0, 0, 0);stroke-width:3.0;" d="M 396.07, 578.083 L 396.617, 580.811 L 361.165, 584.266 L 361.155, 580.045 L 375.18, 561.206 z "/>
<path style="fill:rgb(97, 44, 255);fill-opacity:1.0;fill-rule:evenodd;stroke:rgb(0, 0, 0);stroke-width:3.0;" d="M 464.294, 496.87 L 460.193, 515.934 L 434.664, 520.837 L 413.675, 474.627 L 442.87, 439.575 z "/>
<path style="fill:rgb(255, 255, 7);fill-opacity:1.0;fill-rule:evenodd;stroke:rgb(0, 0, 0);stroke-width:3.0;" d="M 60.5095, 349.217 L 53.7514, 354 L 49.2095, 353.245 L 50.8081, 336.856 L 54.5066, 333.737 z "/>
<path style="fill:rgb(10, 192, 255);fill-opacity:1.0;fill-rule:evenodd;stroke:rgb(0, 0, 0);stroke-width:3.0;" d="M 641.92, 369.827 L 638.543, 394.129 L 626.828, 388.869 L 641.801, 364.041 z "/>
<path style="fill:rgb(10, 192, 255);fill-opacity:1.0;fill-rule:evenodd;stroke:rgb(0, 0, 0);stroke-width:3.0;" d="M 535.449, 91.7718 L 522.013, 121.942 L 502.648, 118.038 L 525.467, 84.8288 z "/>
<path style="fill:rgb(243, 49, 22);fill-opacity:1.0;fill-rule:evenodd;stroke:rgb(0, 0, 0);stroke-width:3.0;" d="M 684.497, 106.094 L 683.898, 129.991 L 676.837, 132.876 L 673.163, 108.053 L 677.683, 102.767 z "/>
<path style="fill:rgb(74, 255, 255);fill-opacity:1.0;fill-rule:evenodd;stroke:rgb(0, 0, 0);stroke-width:3.0;" d="M 132.82, 542.466 L 111.223, 543.263 L 129.158, 529.721 z "/>
<path style="fill:rgb(74, 255, 255);fill-opacity:1.0;fill-rule:evenodd;stroke:rgb(0, 0, 0);stroke-width:3.0;" d="M 598.702, 265.463 L 613.566, 268.697 L 609.861, 291.431 L 604.622, 285.67 L 596.55, 265.199 z "/>
<path style="fill:rgb(255, 157, 7);fill-opacity:1.0;fill-rule:evenodd;stroke:rgb(0, 0, 0);stroke-width:3.0;" d="M 210.359, 418.804 L 175.621, 414.782 L 164.717, 394.897 L 173.145, 367.21 z "/>
<path style="fill:rgb(255, 5, 33);fill-opacity:1.0;fill-rule:evenodd;stroke:rgb(0, 0, 0);stroke-width:3.0;" d="M 790.517, 539.598 L 784.15, 549.445 L 761.558, 555.466 L 769.419, 486.932 L 770.848, 485.028 z "/>
<path style="fill:rgb(255, 5, 33);fill-opacity:1.0;fill-rule:evenodd;stroke:rgb(0, 0, 0);stroke-width:3.0;" d="M 291.454, 387.298 L 305.862, 398.817 L 283.166, 417.14 L 285.122, 386.615 z "/>
<path style="fill:rgb(255, 8, 70);fill-opacity:1.0;fill-rule:evenodd;stroke:rgb(0, 0, 0);stroke-width:3.0;" d="M 285.122, 386.615 L 283.166, 417.14 L 278.191, 421.157 L 273.199, 421.507 L 263.514, 384.288 z "/>
<path style="fill:rgb(255, 249, 71);fill-opacity:1.0;fill-rule:evenodd;stroke:rgb(0, 0, 0);stroke-width:3.0;" d="M 86.1104, 523.625 L 85.6366, 524.521 L 73.1655, 535.354 L 72.4345, 526.464 L 79.3559, 515.381 z "/>
<path style="fill:rgb(255, 249, 71);fill-opacity:1.0;fill-rule:evenodd;stroke:rgb(0, 0, 0);stroke-width:3.0;" d="M 456.968, 559.026 L 429.268, 552.215 L 418.544, 523.933 L 449.986, 517.895 z "/>
<path style="fill:rgb(255, 0, 33);fill-opacity:1.0;fill-rule:evenodd;stroke:rgb(0, 0, 0);stroke-width:3.0;" d="M 175.621, 414.782 L 159.65, 412.932 L 165.242, 395.854 z "/>
<path style="fill:rgb(255, 0, 33);fill-opacity:1.0;fill-rule:evenodd;stroke:rgb(0, 0, 0);stroke-width:3.0;" d="M 314.726, 303.092 L 310.832, 301.682 L 285.582, 283.742 L 296.653, 278.125 z "/>
<path style="fill:rgb(255, 0, 33);fill-opacity:1.0;fill-rule:evenodd;stroke:rgb(0, 0, 0);stroke-width:3.0;" d="M 359.378, 355.611 L 351.987, 347.379 L 356.162, 322.466 L 404.834, 318.913 z "/>
<path style="fill:rgb(228, 86, 69);fill-opacity:1.0;fill-rule:evenodd;stroke:rgb(0, 0, 0);stroke-width:3.0;" d="M 42.2179, 307.004 L 41.2731, 320.422 L 33.5869, 324.887 L 24.1045, 311.228 L 27.2372, 305.086 z "/>
<path style="fill:rgb(228, 86, 69);fill-opacity:1.0;fill-rule:evenodd;stroke:rgb(0, 0, 0);stroke-width:3.0;" d="M 400.36, 490.614 L 326.294, 579.538 L 296.145, 537.74 L 366.463, 446.018 L 384.889, 441.859 z "/>
<path style="fill:rgb(6, 42, 234);fill-opacity:1.0;fill-rule:evenodd;stroke:rgb(0, 0, 0);stroke-width:3.0;" d="M 230.319, 443.099 L 219.984, 425.238 L 243.935, 423.559 z "/>
<path style="fill:rgb(45, 249, 115);fill-opacity:1.0;fill-rule:evenodd;stroke:rgb(0, 0, 0);stroke-width:3.0;" d="M 618.759, 266.659 L 617.758, 267.808 L 596.55, 265.199 L 593.838, 258.32 L 596.614, 254.987 z "/>
<path style="fill:rgb(255, 154, 9);fill-opacity:1.0;fill-rule:evenodd;stroke:rgb(0, 0, 0);stroke-width:3.0;" d="M 238.277, 211.356 L 238.113, 211.682 L 218.422, 212.86 L 230.608, 201.309 z "/>
<path style="fill:rgb(103, 255, 11);fill-opacity:1.0;fill-rule:evenodd;stroke:rgb(0, 0, 0);stroke-width:3.0;" d="M 71.1644, 528.498 L 61.8495, 543.413 L 46.1505, 532.074 L 60.2383, 528.387 z "/>
<path style="fill:rgb(220, 0, 8);fill-opacity:1.0;fill-rule:evenodd;stroke:rgb(0, 0, 0);stroke-width:3.0;" d="M 98.232, 480.942 L 95.7011, 491.488 L 76.9474, 493.155 L 73.7595, 491.373 L 74.4105, 480.343 z "/>
<path style="fill:rgb(220, 0, 8);fill-opacity:1.0;fill-rule:evenodd;stroke:rgb(0, 0, 0);stroke-width:3.0;" d="M 757.749, 171.779 L 752.982, 179.683 L 746.665, 176.168 L 752.167, 149.545 L 760.772, 138.304 z "/>
<path style="fill:rgb(220, 0, 8);fill-opacity:1.0;fill-rule:evenodd;stroke:rgb(0, 0, 0);stroke-width:3.0;" d="M 753.943, 139.518 L 756.741, 143.569 L 734.689, 172.377 L 736.59, 163.712 L 747.37, 137.54 z "/>
<path style="fill:rgb(255, 57, 66);fill-opacity:1.0;fill-rule:evenodd;stroke:rgb(0, 0, 0);stroke-width:3.0;" d="M 360.027, 575.691 L 358.974, 578.027 L 355.615, 579.995 L 340.402, 584.891 L 339.233, 583.383 L 341.887, 575.92 L 352.977, 571.92 z "/>
<path style="fill:rgb(255, 57, 66);fill-opacity:1.0;fill-rule:evenodd;stroke:rgb(0, 0, 0);stroke-width:3.0;" d="M 25.3737, 464.324 L 18.2372, 471.9 L 16.2083, 470.682 L 10.6485, 457.552 L 11.2971, 456.455 z "/>
<path style="fill:rgb(255, 1, 78);fill-opacity:1.0;fill-rule:evenodd;stroke:rgb(0, 0, 0);stroke-width:3.0;" d="M 426.422, 502.692 L 434.271, 519.972 L 417.622, 521.499 L 417.5, 521.18 L 417.158, 512.893 L 424.81, 501.37 z "/>
<path style="fill:rgb(108, 172, 255);fill-opacity:1.0;fill-rule:evenodd;stroke:rgb(0, 0, 0);stroke-width:3.0;" d="M 261.953, 345.632 L 263.896, 348.353 L 179.354, 347.034 L 177.256, 346.48 L 182.193, 342.501 z "/>
<path style="fill:rgb(252, 252, 19);fill-opacity:1.0;fill-rule:evenodd;stroke:rgb(0, 0, 0);stroke-width:3.0;" d="M 691.884, 59.0832 L 668.559, 70.5857 L 657.729, 59.015 L 691.785, 32.6943 L 721.203, 14.1603 z "/>
<path style="fill:rgb(108, 243, 46);fill-opacity:1.0;fill-rule:evenodd;stroke:rgb(0, 0, 0);stroke-width:3.0;" d="M 24.5035, 214.375 L 17.9029, 239.995 L 15.4209, 220.649 L 18.1729, 210.96 z "/>
<path style="fill:rgb(108, 243, 46);fill-opacity:1.0;fill-rule:evenodd;stroke:rgb(0, 0, 0);stroke-width:3.0;" d="M 559.678, 455.623 L 547.574, 460.648 L 490.898, 381.911 L 492.484, 380.008 z "/>
<path style="fill:rgb(255, 228, 27);fill-opacity:1.0;fill-rule:evenodd;stroke:rgb(0, 0, 0);stroke-width:3.0;" d="M 119.501, 479.996 L 106.386, 480.313 L 81.2187, 472.923 L 109.62, 465.101 z "/>
<path style="fill:rgb(255, 228, 27);fill-opacity:1.0;fill-rule:evenodd;stroke:rgb(0, 0, 0);stroke-width:3.0;" d="M 559.251, 291.997 L 560.003, 298.943 L 529.237, 335.881 L 539.892, 317.537 L 559.012, 291.861 z "/>
<path style="fill:rgb(130, 47, 255);fill-opacity:1.0;fill-rule:evenodd;stroke:rgb(0, 0, 0);stroke-width:3.0;" d="M 575.699, 473.652 L 567.144, 487.837 L 556.327, 472.808 L 551.222, 459.133 L 559.678, 455.623 z "/>
<path style="fill:rgb(212, 51, 30);fill-opacity:1.0;fill-rule:evenodd;stroke:rgb(0, 0, 0);stroke-width:3.0;" d="M 721.976, 141.433 L 718.763, 170.576 L 713.816, 170.693 L 691.062, 141.591 L 694.971, 136.898 L 709.043, 132.058 z "/>
<path style="fill:rgb(37, 17, 217);fill-opacity:1.0;fill-rule:evenodd;stroke:rgb(0, 0, 0);stroke-width:3.0;" d="M 507.59, 405.1 L 509.82, 428.687 L 493.02, 406.161 L 500.877, 395.774 z "/>
<path style="fill:rgb(37, 17, 217);fill-opacity:1.0;fill-rule:evenodd;stroke:rgb(0, 0, 0);stroke-width:3.0;" d="M 751.191, 37.822 L 733.205, 52.6074 L 732.291, 52.0452 L 735.346, 37.6494 L 747.698, 31.558 z "/>
<path style="fill:rgb(255, 20, 78);fill-opacity:1.0;fill-rule:evenodd;stroke:rgb(0, 0, 0);stroke-width:3.0;" d="M 387.857, 537.093 L 388.916, 542.377 L 370.588, 552.259 L 379.317, 532.889 z "/>
<path style="fill:rgb(209, 42, 60);fill-opacity:1.0;fill-rule:evenodd;stroke:rgb(0, 0, 0);stroke-width:3.0;" d="M 112.731, 481.306 L 115.613, 489.717 L 95.7011, 491.488 L 98.232, 480.942 z "/>
<path style="fill:rgb(136, 55, 182);fill-opacity:1.0;fill-rule:evenodd;stroke:rgb(0, 0, 0);stroke-width:3.0;" d="M 542.051, 96.364 L 536.184, 117.264 L 532.267, 117.496 L 530.875, 102.042 L 535.449, 91.7718 z "/>
<path style="fill:rgb(136, 55, 182);fill-opacity:1.0;fill-rule:evenodd;stroke:rgb(0, 0, 0);stroke-width:3.0;" d="M 74.7325, 522.784 L 74.7253, 522.783 L 68.1801, 518.155 L 64.0976, 514.435 L 83.0024, 509.542 z "/>
<path style="fill:rgb(136, 55, 182);fill-opacity:1.0;fill-rule:evenodd;stroke:rgb(0, 0, 0);stroke-width:3.0;" d="M 520.121, 454.75 L 510.374, 469.975 L 505.401, 458.29 L 512.224, 451.653 z "/>
<path style="fill:rgb(255, 67, 18);fill-opacity:1.0;fill-rule:evenodd;stroke:rgb(0, 0, 0);stroke-width:3.0;" d="M 628.218, 255.358 L 628.143, 255.892 L 618.759, 266.659 L 616.659, 265.552 L 603.063, 247.245 L 614.728, 233.239 z "/>
<path style="fill:rgb(255, 100, 57);fill-opacity:1.0;fill-rule:evenodd;stroke:rgb(0, 0, 0);stroke-width:3.0;" d="M 51.8051, 479.1 L 49.8996, 482.095 L 34.3488, 488.743 L 42.7473, 474.036 z "/>
<path style="fill:rgb(85, 240, 187);fill-opacity:1.0;fill-rule:evenodd;stroke:rgb(0, 0, 0);stroke-width:3.0;" d="M 515.019, 266.804 L 520.524, 282.66 L 506.244, 269.641 L 507.078, 262.282 z "/>
<path style="fill:rgb(85, 240, 187);fill-opacity:1.0;fill-rule:evenodd;stroke:rgb(0, 0, 0);stroke-width:3.0;" d="M 42.7473, 474.036 L 34.3488, 488.743 L 31.9477, 489.769 L 22.0007, 484.917 L 24.2009, 467.048 L 26.6419, 465.033 z "/>
<path style="fill:rgb(255, 7, 226);fill-opacity:1.0;fill-rule:evenodd;stroke:rgb(0, 0, 0);stroke-width:3.0;" d="M 506.582, 475.899 L 474.936, 525.33 L 474.691, 524.675 L 502.109, 475.676 z "/>
<path style="fill:rgb(255, 12, 12);fill-opacity:1.0;fill-rule:evenodd;stroke:rgb(0, 0, 0);stroke-width:3.0;" d="M 525.467, 84.8288 L 522.633, 88.9528 L 433.909, 138.361 L 435.252, 129.968 L 448.981, 56.8808 L 459.257, 38.7761 z "/>
<path style="fill:rgb(255, 199, 7);fill-opacity:1.0;fill-rule:evenodd;stroke:rgb(0, 0, 0);stroke-width:3.0;" d="M 108.823, 463.9 L 109.62, 465.101 L 54.1105, 480.389 L 44.3199, 474.915 L 99.6099, 461.08 z "/>
<path style="fill:rgb(75, 4, 246);fill-opacity:1.0;fill-rule:evenodd;stroke:rgb(0, 0, 0);stroke-width:3.0;" d="M 590.065, 180.221 L 576.611, 180.23 L 592.661, 167.272 L 643.573, 146.468 z "/>
<path style="fill:rgb(75, 4, 246);fill-opacity:1.0;fill-rule:evenodd;stroke:rgb(0, 0, 0);stroke-width:3.0;" d="M 751.622, 112.263 L 747.866, 130.721 L 731.359, 106.824 L 731.973, 92.4733 L 735.3, 88.4787 z "/>
<path style="fill:rgb(255, 22, 192);fill-opacity:1.0;fill-rule:evenodd;stroke:rgb(0, 0, 0);stroke-width:3.0;" d="M 702.691, 165.136 L 685.144, 169.674 L 673.639, 162.51 L 684.521, 149.445 z "/>
<path style="fill:rgb(255, 25, 255);fill-opacity:1.0;fill-rule:evenodd;stroke:rgb(0, 0, 0);stroke-width:3.0;" d="M 501.325, 259.005 L 498.131, 290.635 L 490.947, 318.963 L 483.191, 255.652 L 488.257, 251.562 z "/>
<path style="fill:rgb(255, 25, 255);fill-opacity:1.0;fill-rule:evenodd;stroke:rgb(0, 0, 0);stroke-width:3.0;" d="M 738.068, 153.587 L 729.633, 178.983 L 728.194, 180.863 L 729.284, 155.351 L 732.833, 150.506 z "/>
<path style="fill:rgb(255, 11, 115);fill-opacity:1.0;fill-rule:evenodd;stroke:rgb(0, 0, 0);stroke-width:3.0;" d="M 310.832, 301.682 L 275.458, 288.878 L 285.582, 283.742 z "/>
<path style="fill:rgb(255, 11, 115);fill-opacity:1.0;fill-rule:evenodd;stroke:rgb(0, 0, 0);stroke-width:3.0;" d="M 561.239, 497.629 L 561.066, 497.915 L 509.935, 534.819 L 531.387, 457.603 z "/>
<path style="fill:rgb(19, 255, 78);fill-opacity:1.0;fill-rule:evenodd;stroke:rgb(0, 0, 0);stroke-width:3.0;" d="M 375.18, 561.206 L 357.765, 584.597 L 355.932, 584.776 L 368.857, 556.098 z "/>
<path style="fill:rgb(76, 255, 182);fill-opacity:1.0;fill-rule:evenodd;stroke:rgb(0, 0, 0);stroke-width:3.0;" d="M 396.07, 578.083 L 372.976, 559.425 L 391.046, 553.006 z "/>
<path style="fill:rgb(207, 4, 15);fill-opacity:1.0;fill-rule:evenodd;stroke:rgb(0, 0, 0);stroke-width:3.0;" d="M 209.545, 347.505 L 212.96, 365.654 L 202.749, 377.742 L 178.888, 375.172 L 159.192, 347.865 L 161.383, 346.753 z "/>
<path style="fill:rgb(207, 4, 15);fill-opacity:1.0;fill-rule:evenodd;stroke:rgb(0, 0, 0);stroke-width:3.0;" d="M 439.187, 578.374 L 439.696, 579.718 L 434.403, 585.103 L 424.849, 589.137 L 417.506, 589.437 L 418.016, 575.835 L 421.068, 573.927 z "/>
<path style="fill:rgb(207, 4, 15);fill-opacity:1.0;fill-rule:evenodd;stroke:rgb(0, 0, 0);stroke-width:3.0;" d="M 563.685, 294.523 L 529.061, 274.802 L 653.989, 151.589 L 687.191, 146.239 z "/>
<path style="fill:rgb(207, 4, 15);fill-opacity:1.0;fill-rule:evenodd;stroke:rgb(0, 0, 0);stroke-width:3.0;" d="M 248.965, 477.743 L 240.56, 495.282 L 202.57, 507.63 L 179.922, 464.778 z "/>
<path style="fill:rgb(255, 0, 10);fill-opacity:1.0;fill-rule:evenodd;stroke:rgb(0, 0, 0);stroke-width:3.0;" d="M 550.406, 102.176 L 559.071, 124.58 L 535.643, 136.134 L 547.472, 100.135 z "/>
<path style="fill:rgb(85, 5, 255);fill-opacity:1.0;fill-rule:evenodd;stroke:rgb(0, 0, 0);stroke-width:3.0;" d="M 572.849, 117.786 L 559.071, 124.58 L 550.406, 102.176 z "/>
<path style="fill:rgb(226, 35, 95);fill-opacity:1.0;fill-rule:evenodd;stroke:rgb(0, 0, 0);stroke-width:3.0;" d="M 263.896, 348.353 L 287.757, 381.767 L 285.11, 383.245 L 245.105, 382.305 L 202.749, 377.742 L 228.044, 347.794 z "/>
<path style="fill:rgb(34, 255, 14);fill-opacity:1.0;fill-rule:evenodd;stroke:rgb(0, 0, 0);stroke-width:3.0;" d="M 555.851, 290.061 L 543.209, 311.826 L 519.048, 297.979 L 519.627, 292.867 L 546.519, 284.746 z "/>
<path style="fill:rgb(223, 42, 249);fill-opacity:1.0;fill-rule:evenodd;stroke:rgb(0, 0, 0);stroke-width:3.0;" d="M 316.755, 390.023 L 313.994, 392.252 L 304.097, 396.856 L 293.493, 387.517 z "/>
<path style="fill:rgb(255, 255, 33);fill-opacity:1.0;fill-rule:evenodd;stroke:rgb(0, 0, 0);stroke-width:3.0;" d="M 530.399, 333.881 L 521.781, 323.091 L 540.896, 315.809 z "/>
<path style="fill:rgb(231, 194, 240);fill-opacity:1.0;fill-rule:evenodd;stroke:rgb(0, 0, 0);stroke-width:3.0;" d="M 49.1997, 500.038 L 17.0185, 497.742 L 30.6816, 493.882 L 49.3738, 493.843 z "/>
<path style="fill:rgb(231, 194, 240);fill-opacity:1.0;fill-rule:evenodd;stroke:rgb(0, 0, 0);stroke-width:3.0;" d="M 538.475, 448.007 L 542.1, 471.967 L 509.82, 428.687 L 507.59, 405.1 z "/>
<path style="fill:rgb(74, 38, 237);fill-opacity:1.0;fill-rule:evenodd;stroke:rgb(0, 0, 0);stroke-width:3.0;" d="M 109.49, 481.224 L 60.4105, 479.991 L 81.2971, 472.946 z "/>
<path style="fill:rgb(246, 94, 32);fill-opacity:1.0;fill-rule:evenodd;stroke:rgb(0, 0, 0);stroke-width:3.0;" d="M 536.365, 523.989 L 503.012, 548.053 L 501.279, 541.066 L 533.791, 517.601 z "/>
<path style="fill:rgb(15, 75, 255);fill-opacity:1.0;fill-rule:evenodd;stroke:rgb(0, 0, 0);stroke-width:3.0;" d="M 645.305, 535.192 L 645.569, 548.099 L 607.858, 531.705 z "/>
<path style="fill:rgb(15, 75, 255);fill-opacity:1.0;fill-rule:evenodd;stroke:rgb(0, 0, 0);stroke-width:3.0;" d="M 774.132, 120.85 L 770.481, 125.62 L 767.858, 117.67 L 769.954, 100.228 L 776.8, 88.8049 z "/>
<path style="fill:rgb(255, 24, 194);fill-opacity:1.0;fill-rule:evenodd;stroke:rgb(0, 0, 0);stroke-width:3.0;" d="M 776.8, 88.8049 L 769.954, 100.228 L 774.704, 60.6799 L 779.362, 58.0407 z "/>
<path style="fill:rgb(223, 40, 62);fill-opacity:1.0;fill-rule:evenodd;stroke:rgb(0, 0, 0);stroke-width:3.0;" d="M 522.065, 299.708 L 522.391, 322.859 L 515.953, 325.312 L 519.048, 297.979 z "/>
<path style="fill:rgb(240, 76, 17);fill-opacity:1.0;fill-rule:evenodd;stroke:rgb(0, 0, 0);stroke-width:3.0;" d="M 228.044, 347.794 L 212.96, 365.654 L 209.545, 347.505 z "/>
<path style="fill:rgb(255, 59, 55);fill-opacity:1.0;fill-rule:evenodd;stroke:rgb(0, 0, 0);stroke-width:3.0;" d="M 624.981, 180.199 L 590.065, 180.221 L 643.573, 146.468 L 670.222, 135.579 z "/>
<path style="fill:rgb(6, 54, 182);fill-opacity:1.0;fill-rule:evenodd;stroke:rgb(0, 0, 0);stroke-width:3.0;" d="M 223.295, 425.006 L 215.24, 425.571 L 208.828, 416.681 L 218.836, 407.82 z "/>
<path style="fill:rgb(231, 75, 8);fill-opacity:1.0;fill-rule:evenodd;stroke:rgb(0, 0, 0);stroke-width:3.0;" d="M 218.836, 407.82 L 208.828, 416.681 L 200.707, 405.422 L 215.955, 396.716 z "/>
<path style="fill:rgb(217, 255, 36);fill-opacity:1.0;fill-rule:evenodd;stroke:rgb(0, 0, 0);stroke-width:3.0;" d="M 645.305, 535.192 L 607.858, 531.705 L 596.393, 526.72 L 644.652, 503.315 z "/>
<path style="fill:rgb(152, 249, 192);fill-opacity:1.0;fill-rule:evenodd;stroke:rgb(0, 0, 0);stroke-width:3.0;" d="M 534.182, 124.396 L 530.122, 138.856 L 519.185, 144.25 L 516.42, 140.793 L 531.286, 123.812 z "/>
<path style="fill:rgb(199, 48, 189);fill-opacity:1.0;fill-rule:evenodd;stroke:rgb(0, 0, 0);stroke-width:3.0;" d="M 531.286, 123.812 L 516.42, 140.793 L 500.606, 121.009 L 502.648, 118.038 z "/>
<path style="fill:rgb(217, 255, 7);fill-opacity:1.0;fill-rule:evenodd;stroke:rgb(0, 0, 0);stroke-width:3.0;" d="M 216.951, 544.553 L 215.239, 548.127 L 108.973, 511.058 L 76.9474, 493.155 L 102.122, 490.917 z "/>
<path style="fill:rgb(9, 249, 220);fill-opacity:1.0;fill-rule:evenodd;stroke:rgb(0, 0, 0);stroke-width:3.0;" d="M 771.975, 83.3999 L 770.618, 94.701 L 764.264, 106.774 L 757.152, 85.2126 L 759.891, 81.6458 z "/>
<path style="fill:rgb(246, 243, 15);fill-opacity:1.0;fill-rule:evenodd;stroke:rgb(0, 0, 0);stroke-width:3.0;" d="M 771.975, 83.3999 L 759.891, 81.6458 L 774.466, 62.6647 z "/>
<path style="fill:rgb(249, 249, 33);fill-opacity:1.0;fill-rule:evenodd;stroke:rgb(0, 0, 0);stroke-width:3.0;" d="M 520.758, 443.352 L 510.536, 453.295 L 506.396, 437.607 L 512.588, 433.095 L 513.012, 432.966 z "/>
<path style="fill:rgb(252, 8, 29);fill-opacity:1.0;fill-rule:evenodd;stroke:rgb(0, 0, 0);stroke-width:3.0;" d="M 255.616, 309.864 L 291.677, 361.552 L 287.968, 364.416 L 243.493, 307.092 L 243.166, 305.261 L 245.758, 303.946 z "/>
<path style="fill:rgb(187, 255, 83);fill-opacity:1.0;fill-rule:evenodd;stroke:rgb(0, 0, 0);stroke-width:3.0;" d="M 238.277, 211.356 L 231.142, 202.008 L 254.313, 179.523 z "/>
<path style="fill:rgb(146, 23, 187);fill-opacity:1.0;fill-rule:evenodd;stroke:rgb(0, 0, 0);stroke-width:3.0;" d="M 574.877, 315.355 L 539.5, 358.713 L 532.948, 331.426 L 566.408, 291.253 z "/>
<path style="fill:rgb(7, 102, 204);fill-opacity:1.0;fill-rule:evenodd;stroke:rgb(0, 0, 0);stroke-width:3.0;" d="M 511.312, 148.133 L 466.928, 170.021 L 488.783, 138.215 L 506.006, 131.924 z "/>
<path style="fill:rgb(255, 202, 7);fill-opacity:1.0;fill-rule:evenodd;stroke:rgb(0, 0, 0);stroke-width:3.0;" d="M 409.102, 315.467 L 404.834, 318.913 L 401.588, 319.15 L 394.609, 311.301 L 390.796, 290.644 z "/>
<path style="fill:rgb(240, 1, 255);fill-opacity:1.0;fill-rule:evenodd;stroke:rgb(0, 0, 0);stroke-width:3.0;" d="M 552.256, 512.524 L 537.927, 522.862 L 535.84, 522.687 L 533.791, 517.601 L 561.066, 497.915 z "/>
</svg>