<?xml version="1.0" encoding="iso-8859-1" standalone="no"?>
<!DOCTYPE svg PUBLIC "-//W3C//DTD SVG 1.0//EN" "http://www.w3.org/TR/2001/REC-SVG-20010904/DTD/svg10.dtd">
<svg xmlns="http://www.w3.org/2000/svg" width="800" height="600">
<path style="fill:rgb(0, 0, 0);fill-opacity:0.0;fill-rule:evenodd;stroke:rgb(0, 0, 0);stroke-width:0.0;" d="M 0, 600 L 800, 600 L 800, 0 L 0, 0 z "/>
<path style="fill:rgb(255, 1, 252);fill-opacity:1.0;fill-rule:evenodd;stroke:rgb(0, 0, 0);stroke-width:3.0;" d="M 765.03, 485.444 L 737.486, 541.689 L 662.083, 581.789 L 525.938, 585.586 L 578.839, 473.161 z "/>
<path style="fill:rgb(234, 255, 7);fill-opacity:1.0;fill-rule:evenodd;stroke:rgb(0, 0, 0);stroke-width:3.0;" d="M 394.248, 94.7102 L 393.629, 95.3802 L 376, 97.5168 L 378.969, 82.4094 L 391.076, 77.2849 z "/>
<path style="fill:rgb(255, 228, 28);fill-opacity:1.0;fill-rule:evenodd;stroke:rgb(0, 0, 0);stroke-width:3.0;" d="M 744.885, 22.4247 L 741.122, 23.9509 L 719.564, 20.4174 L 741.615, 6.8391 z "/>
<path style="fill:rgb(255, 228, 28);fill-opacity:1.0;fill-rule:evenodd;stroke:rgb(0, 0, 0);stroke-width:3.0;" d="M 748.467, 388.677 L 752.407, 400.603 L 734.43, 406.861 L 726.924, 402.997 L 729.274, 387.509 z "/>
<path style="fill:rgb(255, 215, 112);fill-opacity:1.0;fill-rule:evenodd;stroke:rgb(0, 0, 0);stroke-width:3.0;" d="M 67.9945, 156.403 L 52.8314, 156.825 L 40.5141, 148.772 L 50.0117, 145.507 z "/>
<path style="fill:rgb(255, 215, 112);fill-opacity:1.0;fill-rule:evenodd;stroke:rgb(0, 0, 0);stroke-width:3.0;" d="M 276.585, 68.3815 L 275.849, 83.5237 L 252.591, 98.5961 L 134.055, 55.5633 L 109.09, 6.84588 z "/>
<path style="fill:rgb(234, 39, 150);fill-opacity:1.0;fill-rule:evenodd;stroke:rgb(0, 0, 0);stroke-width:3.0;" d="M 143.385, 587.655 L 63.2618, 594.883 L 92.3954, 581.071 z "/>
<path style="fill:rgb(234, 39, 150);fill-opacity:1.0;fill-rule:evenodd;stroke:rgb(0, 0, 0);stroke-width:3.0;" d="M 344.661, 306.605 L 329.745, 308.856 L 327.325, 300.609 L 333.529, 296.807 z "/>
<path style="fill:rgb(234, 39, 150);fill-opacity:1.0;fill-rule:evenodd;stroke:rgb(0, 0, 0);stroke-width:3.0;" d="M 166.706, 566.482 L 167.207, 567.701 L 154.882, 581.57 L 143.371, 559.108 z "/>
<path style="fill:rgb(234, 39, 150);fill-opacity:1.0;fill-rule:evenodd;stroke:rgb(0, 0, 0);stroke-width:3.0;" d="M 302.587, 239.719 L 252.625, 247.972 L 257.224, 242.994 L 306.883, 237.549 z "/>
<path style="fill:rgb(234, 39, 150);fill-opacity:1.0;fill-rule:evenodd;stroke:rgb(0, 0, 0);stroke-width:3.0;" d="M 178.192, 594.431 L 157.755, 593.476 L 153.337, 583.308 L 156.017, 580.292 L 168.416, 570.642 z "/>
<path style="fill:rgb(234, 39, 150);fill-opacity:1.0;fill-rule:evenodd;stroke:rgb(0, 0, 0);stroke-width:3.0;" d="M 623.961, 362.379 L 630.489, 381.495 L 403.963, 367.707 L 384.294, 265.698 L 446.374, 227.654 z "/>
<path style="fill:rgb(234, 39, 150);fill-opacity:1.0;fill-rule:evenodd;stroke:rgb(0, 0, 0);stroke-width:3.0;" d="M 228.404, 357.021 L 41.5882, 523.233 L 24.4811, 494.862 L 155.932, 352.609 z "/>
<path style="fill:rgb(226, 146, 25);fill-opacity:1.0;fill-rule:evenodd;stroke:rgb(0, 0, 0);stroke-width:3.0;" d="M 401.893, 356.973 L 361.617, 321.527 L 362.378, 303.266 L 365.734, 299.273 L 390.271, 296.699 z "/>
<path style="fill:rgb(226, 146, 25);fill-opacity:1.0;fill-rule:evenodd;stroke:rgb(0, 0, 0);stroke-width:3.0;" d="M 94.9652, 128.893 L 102.535, 155.442 L 67.9945, 156.403 L 61.6558, 152.562 L 70.227, 126.514 z "/>
<path style="fill:rgb(226, 146, 25);fill-opacity:1.0;fill-rule:evenodd;stroke:rgb(0, 0, 0);stroke-width:3.0;" d="M 389.724, 27.6671 L 362.731, 62.0675 L 332.506, 46.8071 L 393.763, 7.10926 z "/>
<path style="fill:rgb(255, 255, 163);fill-opacity:1.0;fill-rule:evenodd;stroke:rgb(0, 0, 0);stroke-width:3.0;" d="M 784.493, 481.877 L 770.764, 485.741 L 770.551, 482.618 L 775.353, 469.32 z "/>
<path style="fill:rgb(255, 255, 163);fill-opacity:1.0;fill-rule:evenodd;stroke:rgb(0, 0, 0);stroke-width:3.0;" d="M 24.0367, 27.1504 L 14.9741, 31.0798 L 11.5582, 28.0771 L 9.84432, 12.9485 z "/>
<path style="fill:rgb(255, 255, 163);fill-opacity:1.0;fill-rule:evenodd;stroke:rgb(0, 0, 0);stroke-width:3.0;" d="M 286.666, 95.3224 L 246.703, 107.366 L 259.458, 97.5017 L 285.324, 93.8589 z "/>
<path style="fill:rgb(255, 255, 163);fill-opacity:1.0;fill-rule:evenodd;stroke:rgb(0, 0, 0);stroke-width:3.0;" d="M 266.368, 316.747 L 195.44, 355.014 L 155.932, 352.609 L 232.114, 270.167 z "/>
<path style="fill:rgb(49, 32, 220);fill-opacity:1.0;fill-rule:evenodd;stroke:rgb(0, 0, 0);stroke-width:3.0;" d="M 198.092, 306.511 L 11.4087, 486.702 L 12.5515, 446.952 L 186.653, 292.796 z "/>
<path style="fill:rgb(49, 32, 220);fill-opacity:1.0;fill-rule:evenodd;stroke:rgb(0, 0, 0);stroke-width:3.0;" d="M 172.7, 136.367 L 178.732, 146.46 L 167.67, 153.629 L 164.769, 153.709 L 172.215, 136.32 z "/>
<path style="fill:rgb(49, 32, 220);fill-opacity:1.0;fill-rule:evenodd;stroke:rgb(0, 0, 0);stroke-width:3.0;" d="M 273.339, 495.289 L 221.509, 519.861 L 214.978, 498.135 L 281.036, 486.242 z "/>
<path style="fill:rgb(49, 32, 220);fill-opacity:1.0;fill-rule:evenodd;stroke:rgb(0, 0, 0);stroke-width:3.0;" d="M 554.031, 525.883 L 530.858, 511.687 L 522.892, 442.699 L 599.678, 428.874 z "/>
<path style="fill:rgb(199, 255, 69);fill-opacity:1.0;fill-rule:evenodd;stroke:rgb(0, 0, 0);stroke-width:3.0;" d="M 249.439, 25.1191 L 259.429, 61.6575 L 242.527, 24.7457 z "/>
<path style="fill:rgb(199, 255, 69);fill-opacity:1.0;fill-rule:evenodd;stroke:rgb(0, 0, 0);stroke-width:3.0;" d="M 345.737, 38.2329 L 325.889, 51.0952 L 321.46, 41.1787 L 332.134, 37.5997 L 332.49, 37.5073 z "/>
<path style="fill:rgb(199, 255, 69);fill-opacity:1.0;fill-rule:evenodd;stroke:rgb(0, 0, 0);stroke-width:3.0;" d="M 550.37, 523.641 L 552.456, 529.231 L 551.454, 531.361 L 525.315, 534.446 L 516.088, 531.925 L 536.258, 514.995 z "/>
<path style="fill:rgb(199, 255, 69);fill-opacity:1.0;fill-rule:evenodd;stroke:rgb(0, 0, 0);stroke-width:3.0;" d="M 202.151, 302.592 L 198.092, 306.511 L 193.48, 300.982 L 200.077, 294.994 L 231.72, 268.82 L 233.686, 268.466 z "/>
<path style="fill:rgb(199, 255, 69);fill-opacity:1.0;fill-rule:evenodd;stroke:rgb(0, 0, 0);stroke-width:3.0;" d="M 90.7568, 203.119 L 46.3948, 202.006 L 27.7625, 198.196 L 90.6767, 175.305 z "/>
<path style="fill:rgb(199, 255, 69);fill-opacity:1.0;fill-rule:evenodd;stroke:rgb(0, 0, 0);stroke-width:3.0;" d="M 41.4389, 157.592 L 37.8605, 159.454 L 27.1215, 161.708 L 10.9933, 162.093 L 12.4017, 157.951 L 32.536, 157.39 z "/>
<path style="fill:rgb(246, 20, 252);fill-opacity:1.0;fill-rule:evenodd;stroke:rgb(0, 0, 0);stroke-width:3.0;" d="M 52.8314, 156.825 L 42.0653, 157.125 L 27.5573, 153.227 L 40.5141, 148.772 z "/>
<path style="fill:rgb(246, 20, 252);fill-opacity:1.0;fill-rule:evenodd;stroke:rgb(0, 0, 0);stroke-width:3.0;" d="M 634.622, 283.635 L 630.397, 300.531 L 622.836, 288.235 L 618.804, 264.449 L 618.923, 263.863 z "/>
<path style="fill:rgb(246, 20, 252);fill-opacity:1.0;fill-rule:evenodd;stroke:rgb(0, 0, 0);stroke-width:3.0;" d="M 407.89, 68.5082 L 406.009, 70.9648 L 386.865, 79.0674 L 386.383, 44.6724 L 388.324, 34.7929 L 412.768, 20.2313 z "/>
<path style="fill:rgb(246, 20, 252);fill-opacity:1.0;fill-rule:evenodd;stroke:rgb(0, 0, 0);stroke-width:3.0;" d="M 622.209, 380.991 L 599.678, 428.874 L 94.7943, 519.773 L 395.27, 367.178 z "/>
<path style="fill:rgb(255, 234, 28);fill-opacity:1.0;fill-rule:evenodd;stroke:rgb(0, 0, 0);stroke-width:3.0;" d="M 364.368, 98.9267 L 330.596, 103.02 L 342.148, 88.2976 L 354.019, 83.4437 z "/>
<path style="fill:rgb(255, 234, 28);fill-opacity:1.0;fill-rule:evenodd;stroke:rgb(0, 0, 0);stroke-width:3.0;" d="M 395.27, 367.178 L 94.7943, 519.773 L 32.9652, 530.905 L 228.404, 357.021 z "/>
<path style="fill:rgb(255, 2, 10);fill-opacity:1.0;fill-rule:evenodd;stroke:rgb(0, 0, 0);stroke-width:3.0;" d="M 563.224, 122.528 L 580.614, 148.004 L 544.969, 211.442 L 455.09, 221.298 L 537.531, 111.652 z "/>
<path style="fill:rgb(255, 2, 10);fill-opacity:1.0;fill-rule:evenodd;stroke:rgb(0, 0, 0);stroke-width:3.0;" d="M 157.851, 159.992 L 141.804, 170.391 L 128.818, 171.431 L 123.358, 159.41 L 155.605, 158.64 z "/>
<path style="fill:rgb(255, 43, 255);fill-opacity:1.0;fill-rule:evenodd;stroke:rgb(0, 0, 0);stroke-width:3.0;" d="M 589.228, 226.465 L 596.388, 235.482 L 595.666, 243.566 L 583.375, 243.529 L 577.484, 226.279 z "/>
<path style="fill:rgb(255, 43, 255);fill-opacity:1.0;fill-rule:evenodd;stroke:rgb(0, 0, 0);stroke-width:3.0;" d="M 83.5789, 567.075 L 80.3942, 566.209 L 97.8522, 551.097 L 140.791, 535.95 z "/>
<path style="fill:rgb(255, 43, 255);fill-opacity:1.0;fill-rule:evenodd;stroke:rgb(0, 0, 0);stroke-width:3.0;" d="M 485.78, 66.3052 L 471.543, 112.694 L 454.036, 112.779 L 470.057, 65.1867 L 484.078, 43.6116 z "/>
<path style="fill:rgb(255, 43, 255);fill-opacity:1.0;fill-rule:evenodd;stroke:rgb(0, 0, 0);stroke-width:3.0;" d="M 783.891, 185.244 L 777.213, 185.976 L 765.002, 177.285 L 766.968, 171.797 L 787.889, 166.952 z "/>
<path style="fill:rgb(255, 43, 255);fill-opacity:1.0;fill-rule:evenodd;stroke:rgb(0, 0, 0);stroke-width:3.0;" d="M 749.108, 478.96 L 739.323, 452.775 L 782.653, 437.992 z "/>
<path style="fill:rgb(255, 66, 255);fill-opacity:1.0;fill-rule:evenodd;stroke:rgb(0, 0, 0);stroke-width:3.0;" d="M 252.591, 98.5961 L 243.388, 104.56 L 193.897, 103.611 L 186.885, 88.932 L 200.973, 79.8569 z "/>
<path style="fill:rgb(255, 66, 255);fill-opacity:1.0;fill-rule:evenodd;stroke:rgb(0, 0, 0);stroke-width:3.0;" d="M 302.428, 66.2992 L 291.027, 73.6874 L 285.579, 71.6859 L 264.032, 37.3446 z "/>
<path style="fill:rgb(10, 34, 220);fill-opacity:1.0;fill-rule:evenodd;stroke:rgb(0, 0, 0);stroke-width:3.0;" d="M 691.614, 480.601 L 663.251, 478.73 L 691.159, 469.208 z "/>
<path style="fill:rgb(10, 34, 220);fill-opacity:1.0;fill-rule:evenodd;stroke:rgb(0, 0, 0);stroke-width:3.0;" d="M 362.731, 62.0675 L 348.93, 79.6549 L 351.174, 56.2327 z "/>
<path style="fill:rgb(10, 34, 220);fill-opacity:1.0;fill-rule:evenodd;stroke:rgb(0, 0, 0);stroke-width:3.0;" d="M 297.41, 107.042 L 237.778, 114.27 L 246.703, 107.366 L 286.666, 95.3224 z "/>
<path style="fill:rgb(10, 34, 220);fill-opacity:1.0;fill-rule:evenodd;stroke:rgb(0, 0, 0);stroke-width:3.0;" d="M 310.402, 61.1316 L 302.428, 66.2992 L 264.032, 37.3446 L 250.643, 16.0043 z "/>
<path style="fill:rgb(228, 132, 10);fill-opacity:1.0;fill-rule:evenodd;stroke:rgb(0, 0, 0);stroke-width:3.0;" d="M 732.08, 455.247 L 663.251, 478.73 L 578.839, 473.161 L 597.488, 433.529 z "/>
<path style="fill:rgb(119, 172, 237);fill-opacity:1.0;fill-rule:evenodd;stroke:rgb(0, 0, 0);stroke-width:3.0;" d="M 401.803, 243.677 L 381.918, 237.985 L 381.009, 229.421 L 440.271, 222.922 z "/>
<path style="fill:rgb(255, 255, 69);fill-opacity:1.0;fill-rule:evenodd;stroke:rgb(0, 0, 0);stroke-width:3.0;" d="M 436.985, 233.408 L 234.652, 357.401 L 195.44, 355.014 L 433.961, 226.327 z "/>
<path style="fill:rgb(255, 5, 30);fill-opacity:1.0;fill-rule:evenodd;stroke:rgb(0, 0, 0);stroke-width:3.0;" d="M 106.779, 56.2025 L 89.0142, 128.32 L 79.77, 127.431 L 78.897, 99.23 L 90.9067, 53.5806 z "/>
<path style="fill:rgb(255, 5, 30);fill-opacity:1.0;fill-rule:evenodd;stroke:rgb(0, 0, 0);stroke-width:3.0;" d="M 77.059, 39.8551 L 78.3098, 80.2597 L 70.4531, 92.9486 L 69.0301, 93.1541 L 59.2762, 36.2113 z "/>
<path style="fill:rgb(255, 5, 30);fill-opacity:1.0;fill-rule:evenodd;stroke:rgb(0, 0, 0);stroke-width:3.0;" d="M 288.752, 11.4732 L 292.724, 18.0465 L 277.156, 16.6042 L 273.933, 12.6784 L 283.792, 7.04322 z "/>
<path style="fill:rgb(252, 29, 150);fill-opacity:1.0;fill-rule:evenodd;stroke:rgb(0, 0, 0);stroke-width:3.0;" d="M 325.298, 49.7721 L 320.829, 52.116 L 311.441, 46.9037 L 311.121, 40.4639 L 318.73, 35.0652 z "/>
<path style="fill:rgb(255, 25, 197);fill-opacity:1.0;fill-rule:evenodd;stroke:rgb(0, 0, 0);stroke-width:3.0;" d="M 610.499, 305.415 L 604.844, 306.399 L 593.288, 272.56 L 594.486, 271.879 z "/>
<path style="fill:rgb(76, 255, 182);fill-opacity:1.0;fill-rule:evenodd;stroke:rgb(0, 0, 0);stroke-width:3.0;" d="M 194.849, 520.12 L 199.963, 525.495 L 187.669, 525.79 L 170.526, 520.034 z "/>
<path style="fill:rgb(76, 255, 182);fill-opacity:1.0;fill-rule:evenodd;stroke:rgb(0, 0, 0);stroke-width:3.0;" d="M 380.927, 72.4412 L 380.572, 72.5863 L 372.553, 49.5503 L 389.724, 27.6671 z "/>
<path style="fill:rgb(255, 212, 25);fill-opacity:1.0;fill-rule:evenodd;stroke:rgb(0, 0, 0);stroke-width:3.0;" d="M 766.598, 506.771 L 757.933, 528.489 L 745.733, 524.848 L 751.244, 513.595 L 766.364, 506.532 z "/>
<path style="fill:rgb(255, 212, 25);fill-opacity:1.0;fill-rule:evenodd;stroke:rgb(0, 0, 0);stroke-width:3.0;" d="M 536.258, 514.995 L 516.088, 531.925 L 422.251, 506.278 L 405.653, 463.806 L 442.012, 457.26 z "/>
<path style="fill:rgb(255, 212, 25);fill-opacity:1.0;fill-rule:evenodd;stroke:rgb(0, 0, 0);stroke-width:3.0;" d="M 471.785, 464.715 L 465.688, 469.964 L 455.27, 464.134 L 452.252, 455.417 L 463.618, 453.37 z "/>
<path style="fill:rgb(255, 212, 25);fill-opacity:1.0;fill-rule:evenodd;stroke:rgb(0, 0, 0);stroke-width:3.0;" d="M 107.95, 573.697 L 107.1, 573.465 L 123.689, 545.254 L 140.791, 535.95 L 168.273, 526.255 L 210.139, 525.251 z "/>
<path style="fill:rgb(255, 212, 25);fill-opacity:1.0;fill-rule:evenodd;stroke:rgb(0, 0, 0);stroke-width:3.0;" d="M 719.752, 482.267 L 702.074, 477.515 L 692.255, 468.834 L 697.495, 467.046 z "/>
<path style="fill:rgb(255, 212, 25);fill-opacity:1.0;fill-rule:evenodd;stroke:rgb(0, 0, 0);stroke-width:3.0;" d="M 676.939, 336.93 L 661.554, 342.365 L 657.61, 312.587 z "/>
<path style="fill:rgb(255, 212, 25);fill-opacity:1.0;fill-rule:evenodd;stroke:rgb(0, 0, 0);stroke-width:3.0;" d="M 605.805, 247.342 L 608.406, 262.948 L 602.527, 262.93 L 596.3, 236.467 L 596.388, 235.482 z "/>
<path style="fill:rgb(249, 255, 61);fill-opacity:1.0;fill-rule:evenodd;stroke:rgb(0, 0, 0);stroke-width:3.0;" d="M 339.031, 50.1017 L 324.55, 65.0243 L 306.069, 63.9393 L 332.506, 46.8071 z "/>
<path style="fill:rgb(249, 255, 61);fill-opacity:1.0;fill-rule:evenodd;stroke:rgb(0, 0, 0);stroke-width:3.0;" d="M 595.118, 277.916 L 590.622, 275.838 L 550.202, 217.409 L 553.42, 210.516 L 571.427, 208.541 z "/>
<path style="fill:rgb(249, 255, 61);fill-opacity:1.0;fill-rule:evenodd;stroke:rgb(0, 0, 0);stroke-width:3.0;" d="M 437.624, 223.213 L 427.364, 224.338 L 423.172, 204.462 L 454.036, 112.779 L 471.543, 112.694 z "/>
<path style="fill:rgb(249, 255, 61);fill-opacity:1.0;fill-rule:evenodd;stroke:rgb(0, 0, 0);stroke-width:3.0;" d="M 559.137, 37.4083 L 544.415, 71.2534 L 532.118, 76.9597 L 519.483, 58.4491 L 522.232, 23.5797 z "/>
<path style="fill:rgb(249, 255, 61);fill-opacity:1.0;fill-rule:evenodd;stroke:rgb(0, 0, 0);stroke-width:3.0;" d="M 503.414, 475.266 L 529.138, 496.798 L 529.389, 498.971 L 525.056, 508.133 L 485.671, 484.006 L 473.693, 467.366 z "/>
<path style="fill:rgb(21, 154, 243);fill-opacity:1.0;fill-rule:evenodd;stroke:rgb(0, 0, 0);stroke-width:3.0;" d="M 194.661, 103.625 L 210.707, 125.738 L 180.159, 145.535 L 158.326, 102.929 z "/>
<path style="fill:rgb(255, 4, 20);fill-opacity:1.0;fill-rule:evenodd;stroke:rgb(0, 0, 0);stroke-width:3.0;" d="M 12.5515, 446.952 L 16.5578, 307.6 L 209.132, 272.891 z "/>
<path style="fill:rgb(255, 4, 20);fill-opacity:1.0;fill-rule:evenodd;stroke:rgb(0, 0, 0);stroke-width:3.0;" d="M 143.602, 74.1941 L 140.444, 133.265 L 115.082, 130.827 L 141.86, 70.7945 z "/>
<path style="fill:rgb(255, 4, 20);fill-opacity:1.0;fill-rule:evenodd;stroke:rgb(0, 0, 0);stroke-width:3.0;" d="M 273.063, 23.7847 L 273.986, 26.1078 L 262.029, 19.4693 L 255.98, 13.7419 L 260.561, 7.51748 z "/>
<path style="fill:rgb(255, 4, 20);fill-opacity:1.0;fill-rule:evenodd;stroke:rgb(0, 0, 0);stroke-width:3.0;" d="M 129.921, 519.878 L 120.613, 527.398 L 118.235, 527.455 L 110.323, 520.483 L 109.138, 517.191 L 118.345, 515.533 z "/>
<path style="fill:rgb(255, 4, 20);fill-opacity:1.0;fill-rule:evenodd;stroke:rgb(0, 0, 0);stroke-width:3.0;" d="M 625.311, 302.836 L 610.499, 305.415 L 603.382, 290.51 L 618.714, 263.915 z "/>
<path style="fill:rgb(61, 89, 255);fill-opacity:1.0;fill-rule:evenodd;stroke:rgb(0, 0, 0);stroke-width:3.0;" d="M 380.572, 72.5863 L 347.027, 86.3026 L 345.878, 83.544 L 372.553, 49.5503 z "/>
<path style="fill:rgb(61, 89, 255);fill-opacity:1.0;fill-rule:evenodd;stroke:rgb(0, 0, 0);stroke-width:3.0;" d="M 110.543, 401.728 L 99.1179, 402.043 L 202.151, 302.592 z "/>
<path style="fill:rgb(61, 89, 255);fill-opacity:1.0;fill-rule:evenodd;stroke:rgb(0, 0, 0);stroke-width:3.0;" d="M 728.928, 474.628 L 699.581, 466.335 L 727.6, 456.775 z "/>
<path style="fill:rgb(75, 138, 249);fill-opacity:1.0;fill-rule:evenodd;stroke:rgb(0, 0, 0);stroke-width:3.0;" d="M 304.091, 19.0997 L 305.99, 26.2053 L 279.39, 19.3257 L 278.896, 18.7244 L 281.142, 16.9735 z "/>
<path style="fill:rgb(75, 138, 249);fill-opacity:1.0;fill-rule:evenodd;stroke:rgb(0, 0, 0);stroke-width:3.0;" d="M 692.489, 385.269 L 750.522, 415.145 L 688.561, 421.25 L 668.73, 383.823 z "/>
<path style="fill:rgb(47, 51, 165);fill-opacity:1.0;fill-rule:evenodd;stroke:rgb(0, 0, 0);stroke-width:3.0;" d="M 324.55, 65.0243 L 303.457, 86.7609 L 295.576, 70.7393 L 306.069, 63.9393 z "/>
<path style="fill:rgb(47, 51, 165);fill-opacity:1.0;fill-rule:evenodd;stroke:rgb(0, 0, 0);stroke-width:3.0;" d="M 716.481, 386.73 L 679.198, 384.46 L 665.331, 370.884 L 661.554, 342.365 L 676.939, 336.93 z "/>
<path style="fill:rgb(47, 51, 165);fill-opacity:1.0;fill-rule:evenodd;stroke:rgb(0, 0, 0);stroke-width:3.0;" d="M 422.73, 63.8877 L 406.009, 70.9648 L 417.801, 55.5642 L 431.708, 54.1724 z "/>
<path style="fill:rgb(47, 51, 165);fill-opacity:1.0;fill-rule:evenodd;stroke:rgb(0, 0, 0);stroke-width:3.0;" d="M 679.198, 384.46 L 630.489, 381.495 L 607.547, 314.312 z "/>
<path style="fill:rgb(62, 255, 121);fill-opacity:1.0;fill-rule:evenodd;stroke:rgb(0, 0, 0);stroke-width:3.0;" d="M 79.0344, 103.667 L 71.724, 108.881 L 71.3111, 106.47 L 71.6227, 92.7797 L 78.6659, 91.7628 z "/>
<path style="fill:rgb(252, 209, 21);fill-opacity:1.0;fill-rule:evenodd;stroke:rgb(0, 0, 0);stroke-width:3.0;" d="M 760.28, 485.131 L 751.189, 484.531 L 749.108, 478.96 L 759.508, 466.258 z "/>
<path style="fill:rgb(70, 95, 255);fill-opacity:1.0;fill-rule:evenodd;stroke:rgb(0, 0, 0);stroke-width:3.0;" d="M 189.868, 594.976 L 178.192, 594.431 L 174.84, 586.275 L 184.508, 583.999 z "/>
<path style="fill:rgb(70, 95, 255);fill-opacity:1.0;fill-rule:evenodd;stroke:rgb(0, 0, 0);stroke-width:3.0;" d="M 765.03, 485.444 L 760.28, 485.131 L 759.508, 466.258 L 782.653, 437.992 L 789.396, 435.692 z "/>
<path style="fill:rgb(177, 255, 228);fill-opacity:1.0;fill-rule:evenodd;stroke:rgb(0, 0, 0);stroke-width:3.0;" d="M 637.11, 381.898 L 627.552, 403.366 L 614.793, 407.384 L 615.869, 394.465 L 622.209, 380.991 z "/>
<path style="fill:rgb(177, 255, 228);fill-opacity:1.0;fill-rule:evenodd;stroke:rgb(0, 0, 0);stroke-width:3.0;" d="M 170.961, 127.585 L 142.037, 103.464 L 143.602, 74.1941 z "/>
<path style="fill:rgb(177, 255, 228);fill-opacity:1.0;fill-rule:evenodd;stroke:rgb(0, 0, 0);stroke-width:3.0;" d="M 516.679, 448.416 L 513.486, 461.731 L 493.241, 448.037 L 510.989, 444.842 z "/>
<path style="fill:rgb(177, 255, 228);fill-opacity:1.0;fill-rule:evenodd;stroke:rgb(0, 0, 0);stroke-width:3.0;" d="M 55.2498, 31.9281 L 27.4793, 45.6915 L 22.2331, 27.9324 L 62.5521, 10.4507 z "/>
<path style="fill:rgb(177, 255, 228);fill-opacity:1.0;fill-rule:evenodd;stroke:rgb(0, 0, 0);stroke-width:3.0;" d="M 170.526, 520.034 L 187.669, 525.79 L 143.053, 526.86 L 140.546, 522.835 L 143.575, 519.938 z "/>
<path style="fill:rgb(177, 255, 228);fill-opacity:1.0;fill-rule:evenodd;stroke:rgb(0, 0, 0);stroke-width:3.0;" d="M 41.0888, 73.5776 L 33.5408, 66.2104 L 31.3314, 58.7312 L 48.7611, 51.0123 z "/>
<path style="fill:rgb(177, 255, 228);fill-opacity:1.0;fill-rule:evenodd;stroke:rgb(0, 0, 0);stroke-width:3.0;" d="M 746.73, 479.659 L 738.624, 483.702 L 733.721, 483.379 L 721.003, 472.389 z "/>
<path style="fill:rgb(34, 252, 170);fill-opacity:1.0;fill-rule:evenodd;stroke:rgb(0, 0, 0);stroke-width:3.0;" d="M 762.604, 402.146 L 748.898, 414.309 L 746.16, 412.9 L 753.658, 400.168 L 761.163, 397.555 z "/>
<path style="fill:rgb(34, 252, 170);fill-opacity:1.0;fill-rule:evenodd;stroke:rgb(0, 0, 0);stroke-width:3.0;" d="M 386.097, 275.049 L 376.648, 286.29 L 373.547, 272.283 L 384.294, 265.698 z "/>
<path style="fill:rgb(34, 252, 170);fill-opacity:1.0;fill-rule:evenodd;stroke:rgb(0, 0, 0);stroke-width:3.0;" d="M 271.94, 255.198 L 248.18, 252.781 L 252.625, 247.972 L 302.587, 239.719 z "/>
<path style="fill:rgb(34, 252, 170);fill-opacity:1.0;fill-rule:evenodd;stroke:rgb(0, 0, 0);stroke-width:3.0;" d="M 534.943, 250.101 L 469.267, 219.743 L 553.42, 210.516 z "/>
<path style="fill:rgb(255, 22, 189);fill-opacity:1.0;fill-rule:evenodd;stroke:rgb(0, 0, 0);stroke-width:3.0;" d="M 129.44, 152.516 L 127.322, 154.752 L 102.818, 155.434 L 112.086, 150.327 L 128.507, 149.166 z "/>
<path style="fill:rgb(255, 22, 189);fill-opacity:1.0;fill-rule:evenodd;stroke:rgb(0, 0, 0);stroke-width:3.0;" d="M 366.359, 24.8685 L 345.737, 38.2329 L 338.061, 37.8124 L 347.187, 23.7351 L 349.551, 23.3113 z "/>
<path style="fill:rgb(10, 2, 255);fill-opacity:1.0;fill-rule:evenodd;stroke:rgb(0, 0, 0);stroke-width:3.0;" d="M 32.6213, 508.362 L 41.5882, 523.233 L 32.9652, 530.905 L 25.9807, 532.162 L 14.3915, 530.172 L 9.82903, 514.418 L 24.5165, 506.623 z "/>
<path style="fill:rgb(255, 5, 43);fill-opacity:1.0;fill-rule:evenodd;stroke:rgb(0, 0, 0);stroke-width:3.0;" d="M 785.908, 515.937 L 781.937, 518.048 L 764.845, 511.164 L 766.296, 507.528 L 771.957, 503.136 z "/>
<path style="fill:rgb(255, 5, 43);fill-opacity:1.0;fill-rule:evenodd;stroke:rgb(0, 0, 0);stroke-width:3.0;" d="M 87.2996, 67.2916 L 78.897, 99.23 L 77.5805, 56.7015 z "/>
<path style="fill:rgb(212, 47, 11);fill-opacity:1.0;fill-rule:evenodd;stroke:rgb(0, 0, 0);stroke-width:3.0;" d="M 53.59, 186.578 L 52.0555, 189.357 L 27.7625, 198.196 L 23.357, 197.295 L 23.5998, 188.23 L 43.697, 178.249 L 57.1642, 177.17 z "/>
<path style="fill:rgb(212, 47, 11);fill-opacity:1.0;fill-rule:evenodd;stroke:rgb(0, 0, 0);stroke-width:3.0;" d="M 351.174, 56.2327 L 348.93, 79.6549 L 330.596, 103.02 L 307.426, 105.828 L 302.952, 87.2812 L 339.031, 50.1017 z "/>
<path style="fill:rgb(212, 47, 11);fill-opacity:1.0;fill-rule:evenodd;stroke:rgb(0, 0, 0);stroke-width:3.0;" d="M 92.6646, 46.8988 L 87.2996, 67.2916 L 77.5805, 56.7015 L 76.8894, 34.3757 z "/>
<path style="fill:rgb(228, 255, 34);fill-opacity:1.0;fill-rule:evenodd;stroke:rgb(0, 0, 0);stroke-width:3.0;" d="M 616.425, 428.358 L 613.018, 428.693 L 614.722, 408.237 L 616.54, 406.834 L 627.552, 403.366 z "/>
<path style="fill:rgb(228, 255, 34);fill-opacity:1.0;fill-rule:evenodd;stroke:rgb(0, 0, 0);stroke-width:3.0;" d="M 525.315, 534.446 L 437.319, 544.834 L 422.251, 506.278 z "/>
<path style="fill:rgb(249, 246, 14);fill-opacity:1.0;fill-rule:evenodd;stroke:rgb(0, 0, 0);stroke-width:3.0;" d="M 178.684, 71.7652 L 193.897, 103.611 L 158.326, 102.929 L 142.95, 72.9226 L 155.135, 63.2164 z "/>
<path style="fill:rgb(249, 246, 14);fill-opacity:1.0;fill-rule:evenodd;stroke:rgb(0, 0, 0);stroke-width:3.0;" d="M 31.2634, 63.9876 L 33.5909, 66.2594 L 24.693, 88.9965 L 14.7836, 97.3332 L 11.8105, 64.711 L 27.1197, 63.2884 z "/>
<path style="fill:rgb(223, 255, 30);fill-opacity:1.0;fill-rule:evenodd;stroke:rgb(0, 0, 0);stroke-width:3.0;" d="M 366.897, 326.174 L 401.302, 367.545 L 234.652, 357.401 L 308.68, 312.035 L 344.661, 306.605 z "/>
<path style="fill:rgb(223, 255, 30);fill-opacity:1.0;fill-rule:evenodd;stroke:rgb(0, 0, 0);stroke-width:3.0;" d="M 247.215, 13.4154 L 250.643, 16.0043 L 256.605, 25.5062 L 242.527, 24.7457 L 234.003, 6.1296 z "/>
<path style="fill:rgb(70, 255, 255);fill-opacity:1.0;fill-rule:evenodd;stroke:rgb(0, 0, 0);stroke-width:3.0;" d="M 233.686, 268.466 L 16.5578, 307.6 L 18.1996, 250.493 L 226.248, 115.667 L 393.629, 95.3802 z "/>
<path style="fill:rgb(49, 228, 255);fill-opacity:1.0;fill-rule:evenodd;stroke:rgb(0, 0, 0);stroke-width:3.0;" d="M 379.059, 81.95 L 376, 97.5168 L 364.368, 98.9267 L 354.019, 83.4437 L 361.471, 80.3967 z "/>
<path style="fill:rgb(49, 228, 255);fill-opacity:1.0;fill-rule:evenodd;stroke:rgb(0, 0, 0);stroke-width:3.0;" d="M 115.741, 19.8239 L 111.296, 37.8672 L 107.676, 18.5666 L 111.948, 12.4224 z "/>
<path style="fill:rgb(49, 228, 255);fill-opacity:1.0;fill-rule:evenodd;stroke:rgb(0, 0, 0);stroke-width:3.0;" d="M 271.94, 255.198 L 234.873, 273.92 L 232.114, 270.167 L 248.18, 252.781 z "/>
<path style="fill:rgb(255, 249, 46);fill-opacity:1.0;fill-rule:evenodd;stroke:rgb(0, 0, 0);stroke-width:3.0;" d="M 381.558, 234.598 L 383.056, 248.718 L 268.288, 305.537 L 254.355, 300.412 L 234.873, 273.92 L 306.883, 237.549 L 337.682, 234.172 z "/>
<path style="fill:rgb(255, 249, 46);fill-opacity:1.0;fill-rule:evenodd;stroke:rgb(0, 0, 0);stroke-width:3.0;" d="M 243.388, 104.56 L 219.636, 119.952 L 221.207, 104.134 z "/>
<path style="fill:rgb(255, 252, 78);fill-opacity:1.0;fill-rule:evenodd;stroke:rgb(0, 0, 0);stroke-width:3.0;" d="M 179.502, 520.065 L 143.575, 519.938 L 155.094, 508.917 L 184.35, 503.65 z "/>
<path style="fill:rgb(255, 252, 78);fill-opacity:1.0;fill-rule:evenodd;stroke:rgb(0, 0, 0);stroke-width:3.0;" d="M 221.207, 104.134 L 219.636, 119.952 L 210.707, 125.738 L 194.661, 103.625 z "/>
<path style="fill:rgb(136, 124, 237);fill-opacity:1.0;fill-rule:evenodd;stroke:rgb(0, 0, 0);stroke-width:3.0;" d="M 376.648, 286.29 L 353.231, 314.147 L 333.529, 296.807 L 373.547, 272.283 z "/>
<path style="fill:rgb(136, 124, 237);fill-opacity:1.0;fill-rule:evenodd;stroke:rgb(0, 0, 0);stroke-width:3.0;" d="M 512.055, 460.764 L 492.991, 472.495 L 476.428, 468.093 L 482.305, 451.624 L 483.531, 449.785 L 493.241, 448.037 z "/>
<path style="fill:rgb(136, 124, 237);fill-opacity:1.0;fill-rule:evenodd;stroke:rgb(0, 0, 0);stroke-width:3.0;" d="M 618.42, 203.388 L 544.969, 211.442 L 580.614, 148.004 z "/>
<path style="fill:rgb(136, 124, 237);fill-opacity:1.0;fill-rule:evenodd;stroke:rgb(0, 0, 0);stroke-width:3.0;" d="M 25.3012, 58.1683 L 24.2918, 63.5512 L 11.8105, 64.711 L 10.5366, 50.7325 L 13.1234, 46.2822 z "/>
<path style="fill:rgb(142, 0, 215);fill-opacity:1.0;fill-rule:evenodd;stroke:rgb(0, 0, 0);stroke-width:3.0;" d="M 377.725, 256.668 L 279.501, 309.661 L 268.288, 305.537 L 377.984, 251.229 z "/>
<path style="fill:rgb(142, 0, 215);fill-opacity:1.0;fill-rule:evenodd;stroke:rgb(0, 0, 0);stroke-width:3.0;" d="M 171.294, 136.232 L 158.101, 153.474 L 152.701, 154.045 L 133.866, 154.57 L 121.66, 131.459 z "/>
<path style="fill:rgb(25, 215, 255);fill-opacity:1.0;fill-rule:evenodd;stroke:rgb(0, 0, 0);stroke-width:3.0;" d="M 657.61, 312.587 L 665.331, 370.884 L 607.547, 314.312 L 604.844, 306.399 L 646.885, 299.079 z "/>
<path style="fill:rgb(255, 0, 13);fill-opacity:1.0;fill-rule:evenodd;stroke:rgb(0, 0, 0);stroke-width:3.0;" d="M 595.666, 243.566 L 594.393, 257.815 L 588.31, 257.982 L 583.375, 243.529 z "/>
<path style="fill:rgb(255, 0, 13);fill-opacity:1.0;fill-rule:evenodd;stroke:rgb(0, 0, 0);stroke-width:3.0;" d="M 590.622, 275.838 L 534.943, 250.101 L 550.202, 217.409 z "/>
<path style="fill:rgb(255, 0, 13);fill-opacity:1.0;fill-rule:evenodd;stroke:rgb(0, 0, 0);stroke-width:3.0;" d="M 107.1, 573.465 L 83.5789, 567.075 L 123.689, 545.254 z "/>
<path style="fill:rgb(255, 0, 13);fill-opacity:1.0;fill-rule:evenodd;stroke:rgb(0, 0, 0);stroke-width:3.0;" d="M 781.937, 518.048 L 756.756, 531.44 L 764.845, 511.164 z "/>
<path style="fill:rgb(223, 212, 44);fill-opacity:1.0;fill-rule:evenodd;stroke:rgb(0, 0, 0);stroke-width:3.0;" d="M 170.961, 127.585 L 175.604, 136.646 L 140.444, 133.265 L 142.037, 103.464 z "/>
<path style="fill:rgb(175, 209, 212);fill-opacity:1.0;fill-rule:evenodd;stroke:rgb(0, 0, 0);stroke-width:3.0;" d="M 96.8593, 163.033 L 100.638, 168.318 L 100.684, 170.431 L 82.4721, 163.745 L 77.664, 160.501 L 91.5627, 160.169 z "/>
<path style="fill:rgb(51, 255, 220);fill-opacity:1.0;fill-rule:evenodd;stroke:rgb(0, 0, 0);stroke-width:3.0;" d="M 141.86, 70.7945 L 140.952, 72.8287 L 114.456, 25.039 L 114.872, 23.348 L 117.006, 22.2925 z "/>
<path style="fill:rgb(228, 163, 46);fill-opacity:1.0;fill-rule:evenodd;stroke:rgb(0, 0, 0);stroke-width:3.0;" d="M 256.605, 25.5062 L 267.232, 42.4437 L 260.099, 62.3248 L 259.661, 62.1639 L 259.429, 61.6575 L 249.439, 25.1191 z "/>
<path style="fill:rgb(255, 255, 10);fill-opacity:1.0;fill-rule:evenodd;stroke:rgb(0, 0, 0);stroke-width:3.0;" d="M 749.681, 480.493 L 738.093, 477.218 L 727.846, 460.083 L 727.6, 456.775 L 739.323, 452.775 z "/>
<path style="fill:rgb(255, 255, 50);fill-opacity:1.0;fill-rule:evenodd;stroke:rgb(0, 0, 0);stroke-width:3.0;" d="M 139.772, 523.576 L 118.345, 515.533 L 155.094, 508.917 z "/>
<path style="fill:rgb(228, 10, 17);fill-opacity:1.0;fill-rule:evenodd;stroke:rgb(0, 0, 0);stroke-width:3.0;" d="M 236.093, 10.6949 L 259.661, 62.1639 L 118.074, 10.1464 z "/>
<path style="fill:rgb(255, 62, 24);fill-opacity:1.0;fill-rule:evenodd;stroke:rgb(0, 0, 0);stroke-width:3.0;" d="M 422.299, 200.323 L 417.767, 225.39 L 361.97, 231.508 L 412.483, 153.78 z "/>
<path style="fill:rgb(255, 62, 24);fill-opacity:1.0;fill-rule:evenodd;stroke:rgb(0, 0, 0);stroke-width:3.0;" d="M 109.306, 581.673 L 94.0654, 580.279 L 130.275, 563.113 z "/>
<path style="fill:rgb(255, 62, 24);fill-opacity:1.0;fill-rule:evenodd;stroke:rgb(0, 0, 0);stroke-width:3.0;" d="M 105.899, 159.053 L 55.8958, 157.92 L 55.5344, 157.419 L 57.0367, 156.708 L 102.395, 155.446 z "/>
<path style="fill:rgb(255, 62, 24);fill-opacity:1.0;fill-rule:evenodd;stroke:rgb(0, 0, 0);stroke-width:3.0;" d="M 306.649, 102.607 L 303.707, 106.279 L 297.41, 107.042 L 290.787, 99.8173 L 302.952, 87.2812 z "/>
<path style="fill:rgb(6, 209, 159);fill-opacity:1.0;fill-rule:evenodd;stroke:rgb(0, 0, 0);stroke-width:3.0;" d="M 772.989, 441.289 L 732.08, 455.247 L 674.4, 445.94 L 702.116, 419.915 L 748.507, 415.344 z "/>
<path style="fill:rgb(6, 209, 159);fill-opacity:1.0;fill-rule:evenodd;stroke:rgb(0, 0, 0);stroke-width:3.0;" d="M 515.332, 462.98 L 514.521, 478.218 L 492.991, 472.495 L 512.055, 460.764 z "/>
<path style="fill:rgb(6, 209, 159);fill-opacity:1.0;fill-rule:evenodd;stroke:rgb(0, 0, 0);stroke-width:3.0;" d="M 154.418, 585.797 L 154.779, 586.628 L 143.385, 587.655 L 92.3954, 581.071 L 94.0654, 580.279 z "/>
<path style="fill:rgb(240, 255, 7);fill-opacity:1.0;fill-rule:evenodd;stroke:rgb(0, 0, 0);stroke-width:3.0;" d="M 427.364, 224.338 L 417.767, 225.39 L 422.299, 200.323 z "/>
<path style="fill:rgb(7, 100, 255);fill-opacity:1.0;fill-rule:evenodd;stroke:rgb(0, 0, 0);stroke-width:3.0;" d="M 119.085, 121.853 L 115.082, 130.827 L 97.9804, 129.182 L 90.3271, 122.99 L 95.6626, 101.331 z "/>
<path style="fill:rgb(7, 100, 255);fill-opacity:1.0;fill-rule:evenodd;stroke:rgb(0, 0, 0);stroke-width:3.0;" d="M 65.2309, 70.9744 L 74.1091, 122.805 L 37.0923, 85.3317 L 44.4517, 63.6867 z "/>
<path style="fill:rgb(7, 100, 255);fill-opacity:1.0;fill-rule:evenodd;stroke:rgb(0, 0, 0);stroke-width:3.0;" d="M 221.509, 519.861 L 220.768, 520.212 L 179.502, 520.065 L 184.35, 503.65 L 214.978, 498.135 z "/>
<path style="fill:rgb(255, 255, 6);fill-opacity:1.0;fill-rule:evenodd;stroke:rgb(0, 0, 0);stroke-width:3.0;" d="M 595.118, 277.916 L 623.961, 362.379 L 446.374, 227.654 L 457.107, 221.076 L 469.267, 219.743 z "/>
<path style="fill:rgb(255, 255, 6);fill-opacity:1.0;fill-rule:evenodd;stroke:rgb(0, 0, 0);stroke-width:3.0;" d="M 28.9603, 122.546 L 37.3892, 125.663 L 61.4006, 148.937 L 60.5749, 151.907 L 22.3346, 128.736 L 24.5825, 122.125 z "/>
<path style="fill:rgb(61, 255, 255);fill-opacity:1.0;fill-rule:evenodd;stroke:rgb(0, 0, 0);stroke-width:3.0;" d="M 668.73, 383.823 L 676.874, 399.194 L 618.505, 423.685 L 637.11, 381.898 z "/>
<path style="fill:rgb(61, 255, 255);fill-opacity:1.0;fill-rule:evenodd;stroke:rgb(0, 0, 0);stroke-width:3.0;" d="M 76.6813, 27.6556 L 77.059, 39.8551 L 59.2762, 36.2113 L 57.4394, 25.488 L 59.5586, 19.255 z "/>
<path style="fill:rgb(23, 2, 243);fill-opacity:1.0;fill-rule:evenodd;stroke:rgb(0, 0, 0);stroke-width:3.0;" d="M 140.952, 72.8287 L 119.085, 121.853 L 95.6626, 101.331 L 114.456, 25.039 z "/>
<path style="fill:rgb(126, 231, 67);fill-opacity:1.0;fill-rule:evenodd;stroke:rgb(0, 0, 0);stroke-width:3.0;" d="M 618.22, 262.978 L 618.646, 263.514 L 618.714, 263.915 L 603.382, 290.51 L 596.422, 275.932 L 618.1, 262.978 z "/>
<path style="fill:rgb(207, 243, 255);fill-opacity:1.0;fill-rule:evenodd;stroke:rgb(0, 0, 0);stroke-width:3.0;" d="M 764.235, 432.012 L 748.507, 415.344 L 773.492, 412.882 z "/>
<path style="fill:rgb(255, 136, 231);fill-opacity:1.0;fill-rule:evenodd;stroke:rgb(0, 0, 0);stroke-width:3.0;" d="M 612.813, 78.9849 L 611.273, 92.3459 L 555.307, 46.2143 L 560.54, 34.184 z "/>
<path style="fill:rgb(255, 136, 231);fill-opacity:1.0;fill-rule:evenodd;stroke:rgb(0, 0, 0);stroke-width:3.0;" d="M 508.063, 586.078 L 463.351, 541.761 L 526.64, 534.29 z "/>
<path style="fill:rgb(170, 246, 72);fill-opacity:1.0;fill-rule:evenodd;stroke:rgb(0, 0, 0);stroke-width:3.0;" d="M 91.282, 203.132 L 90.7568, 203.119 L 90.6767, 175.305 L 93.5636, 174.255 L 141.804, 170.391 z "/>
<path style="fill:rgb(170, 246, 72);fill-opacity:1.0;fill-rule:evenodd;stroke:rgb(0, 0, 0);stroke-width:3.0;" d="M 589.228, 226.465 L 577.484, 226.279 L 571.427, 208.541 L 574.711, 208.181 z "/>
<path style="fill:rgb(255, 255, 7);fill-opacity:1.0;fill-rule:evenodd;stroke:rgb(0, 0, 0);stroke-width:3.0;" d="M 720.669, 182.517 L 655.81, 197.536 L 603.335, 181.289 L 538.113, 85.7413 L 555.307, 46.2143 z "/>
<path style="fill:rgb(255, 255, 7);fill-opacity:1.0;fill-rule:evenodd;stroke:rgb(0, 0, 0);stroke-width:3.0;" d="M 526.073, 470.245 L 527.388, 481.638 L 514.521, 478.218 L 515.332, 462.98 z "/>
<path style="fill:rgb(255, 255, 7);fill-opacity:1.0;fill-rule:evenodd;stroke:rgb(0, 0, 0);stroke-width:3.0;" d="M 274.733, 54.3994 L 270.653, 66.2021 L 260.099, 62.3248 L 263.475, 52.9137 L 272.573, 50.9568 z "/>
<path style="fill:rgb(223, 11, 11);fill-opacity:1.0;fill-rule:evenodd;stroke:rgb(0, 0, 0);stroke-width:3.0;" d="M 547.106, 98.9161 L 463.28, 210.405 L 457.992, 156.848 L 497.897, 26.8263 z "/>
<path style="fill:rgb(255, 19, 70);fill-opacity:1.0;fill-rule:evenodd;stroke:rgb(0, 0, 0);stroke-width:3.0;" d="M 104.914, 407.819 L 10.7468, 509.725 L 11.4087, 486.702 L 98.6609, 402.484 z "/>
<path style="fill:rgb(243, 98, 11);fill-opacity:1.0;fill-rule:evenodd;stroke:rgb(0, 0, 0);stroke-width:3.0;" d="M 386.865, 79.0674 L 378.969, 82.4094 L 386.383, 44.6724 z "/>
<path style="fill:rgb(243, 98, 11);fill-opacity:1.0;fill-rule:evenodd;stroke:rgb(0, 0, 0);stroke-width:3.0;" d="M 48.7611, 51.0123 L 31.3314, 58.7312 L 27.4793, 45.6915 L 55.2498, 31.9281 z "/>
<path style="fill:rgb(119, 255, 252);fill-opacity:1.0;fill-rule:evenodd;stroke:rgb(0, 0, 0);stroke-width:3.0;" d="M 721.003, 472.389 L 733.721, 483.379 L 720.692, 482.519 L 719.752, 482.267 L 697.495, 467.046 L 699.581, 466.335 z "/>
<path style="fill:rgb(8, 177, 255);fill-opacity:1.0;fill-rule:evenodd;stroke:rgb(0, 0, 0);stroke-width:3.0;" d="M 111.296, 37.8672 L 106.779, 56.2025 L 92.0058, 53.7621 L 105.489, 6.90471 z "/>
<path style="fill:rgb(231, 234, 25);fill-opacity:1.0;fill-rule:evenodd;stroke:rgb(0, 0, 0);stroke-width:3.0;" d="M 674.4, 445.94 L 597.488, 433.529 L 599.119, 430.063 L 702.116, 419.915 z "/>
<path style="fill:rgb(192, 202, 65);fill-opacity:1.0;fill-rule:evenodd;stroke:rgb(0, 0, 0);stroke-width:3.0;" d="M 381.558, 234.598 L 337.682, 234.172 L 381.009, 229.421 z "/>
<path style="fill:rgb(192, 202, 65);fill-opacity:1.0;fill-rule:evenodd;stroke:rgb(0, 0, 0);stroke-width:3.0;" d="M 81.7602, 178.549 L 59.1647, 186.771 L 60.6663, 176.89 L 75.9432, 175.666 z "/>
<path style="fill:rgb(170, 7, 255);fill-opacity:1.0;fill-rule:evenodd;stroke:rgb(0, 0, 0);stroke-width:3.0;" d="M 82.4848, 556.519 L 29.5459, 531.521 L 41.9622, 529.285 L 168.273, 526.255 z "/>
<path style="fill:rgb(72, 243, 37);fill-opacity:1.0;fill-rule:evenodd;stroke:rgb(0, 0, 0);stroke-width:3.0;" d="M 193.48, 300.982 L 186.653, 292.796 L 209.132, 272.891 L 228.219, 269.451 z "/>
<path style="fill:rgb(140, 24, 255);fill-opacity:1.0;fill-rule:evenodd;stroke:rgb(0, 0, 0);stroke-width:3.0;" d="M 142.735, 558.907 L 154.418, 585.797 L 109.306, 581.673 L 130.275, 563.113 L 140.581, 558.227 z "/>
<path style="fill:rgb(19, 255, 255);fill-opacity:1.0;fill-rule:evenodd;stroke:rgb(0, 0, 0);stroke-width:3.0;" d="M 110.901, 130.425 L 128.231, 143.9 L 130.921, 148.995 L 108.89, 150.552 L 99.4656, 136.077 L 101.577, 129.528 z "/>
<path style="fill:rgb(243, 246, 49);fill-opacity:1.0;fill-rule:evenodd;stroke:rgb(0, 0, 0);stroke-width:3.0;" d="M 388.574, 287.899 L 383.996, 297.358 L 368.903, 298.941 L 366.984, 297.787 L 386.097, 275.049 z "/>
<path style="fill:rgb(249, 255, 16);fill-opacity:1.0;fill-rule:evenodd;stroke:rgb(0, 0, 0);stroke-width:3.0;" d="M 64.1275, 64.5327 L 65.2309, 70.9744 L 44.4517, 63.6867 L 46.1666, 58.6431 z "/>
<path style="fill:rgb(197, 18, 255);fill-opacity:1.0;fill-rule:evenodd;stroke:rgb(0, 0, 0);stroke-width:3.0;" d="M 64.1275, 64.5327 L 46.1666, 58.6431 L 57.4394, 25.488 z "/>
<path style="fill:rgb(187, 0, 54);fill-opacity:1.0;fill-rule:evenodd;stroke:rgb(0, 0, 0);stroke-width:3.0;" d="M 35.9971, 88.5529 L 22.8864, 127.114 L 11.7661, 122.029 L 24.2671, 90.0846 L 27.5099, 87.467 z "/>
<path style="fill:rgb(25, 23, 243);fill-opacity:1.0;fill-rule:evenodd;stroke:rgb(0, 0, 0);stroke-width:3.0;" d="M 423.172, 204.462 L 412.483, 153.78 L 470.057, 65.1867 z "/>
<path style="fill:rgb(50, 29, 252);fill-opacity:1.0;fill-rule:evenodd;stroke:rgb(0, 0, 0);stroke-width:3.0;" d="M 688.561, 421.25 L 616.425, 428.358 L 618.505, 423.685 L 676.874, 399.194 z "/>
<path style="fill:rgb(252, 172, 7);fill-opacity:1.0;fill-rule:evenodd;stroke:rgb(0, 0, 0);stroke-width:3.0;" d="M 303.457, 86.7609 L 290.787, 99.8173 L 275.85, 83.5232 L 295.576, 70.7393 z "/>
<path style="fill:rgb(255, 255, 57);fill-opacity:1.0;fill-rule:evenodd;stroke:rgb(0, 0, 0);stroke-width:3.0;" d="M 457.171, 218.53 L 455.09, 221.298 L 437.624, 223.213 L 442.935, 205.91 z "/>
<path style="fill:rgb(228, 123, 10);fill-opacity:1.0;fill-rule:evenodd;stroke:rgb(0, 0, 0);stroke-width:3.0;" d="M 463.28, 210.405 L 457.171, 218.53 L 442.935, 205.91 L 457.992, 156.848 z "/>
<path style="fill:rgb(16, 74, 240);fill-opacity:1.0;fill-rule:evenodd;stroke:rgb(0, 0, 0);stroke-width:3.0;" d="M 756.472, 182.151 L 749.083, 189.061 L 712.103, 193.116 L 719.336, 182.826 L 733.694, 179.501 z "/>
<path style="fill:rgb(231, 61, 204);fill-opacity:1.0;fill-rule:evenodd;stroke:rgb(0, 0, 0);stroke-width:3.0;" d="M 766.677, 172.609 L 756.472, 182.151 L 733.694, 179.501 L 766.968, 171.797 z "/>
<path style="fill:rgb(30, 78, 255);fill-opacity:1.0;fill-rule:evenodd;stroke:rgb(0, 0, 0);stroke-width:3.0;" d="M 80.3942, 566.209 L 66.0573, 562.314 L 97.8522, 551.097 z "/>
<path style="fill:rgb(117, 60, 209);fill-opacity:1.0;fill-rule:evenodd;stroke:rgb(0, 0, 0);stroke-width:3.0;" d="M 50.1143, 130.368 L 61.8903, 134.722 L 58.0284, 145.669 L 40.7483, 128.919 z "/>
<path style="fill:rgb(255, 29, 189);fill-opacity:1.0;fill-rule:evenodd;stroke:rgb(0, 0, 0);stroke-width:3.0;" d="M 64.5489, 171.48 L 57.6763, 172.38 L 32.5637, 161.578 L 56.7823, 161 z "/>
<path style="fill:rgb(246, 66, 107);fill-opacity:1.0;fill-rule:evenodd;stroke:rgb(0, 0, 0);stroke-width:3.0;" d="M 765.141, 27.8876 L 749.199, 25.2746 L 756.974, 17.5209 L 774.935, 10.2357 z "/>
<path style="fill:rgb(252, 249, 45);fill-opacity:1.0;fill-rule:evenodd;stroke:rgb(0, 0, 0);stroke-width:3.0;" d="M 730.86, 180.158 L 720.669, 182.517 L 611.273, 92.3459 L 612.813, 78.9849 z "/>
<path style="fill:rgb(234, 44, 27);fill-opacity:1.0;fill-rule:evenodd;stroke:rgb(0, 0, 0);stroke-width:3.0;" d="M 452.568, 31.5982 L 431.708, 54.1724 L 417.801, 55.5642 L 436.805, 30.7448 z "/>
<path style="fill:rgb(204, 255, 16);fill-opacity:1.0;fill-rule:evenodd;stroke:rgb(0, 0, 0);stroke-width:3.0;" d="M 177.642, 569.938 L 184.508, 583.999 L 174.84, 586.275 L 166.706, 566.482 z "/>
<path style="fill:rgb(142, 223, 34);fill-opacity:1.0;fill-rule:evenodd;stroke:rgb(0, 0, 0);stroke-width:3.0;" d="M 74.1091, 122.805 L 74.8201, 126.955 L 58.3739, 125.374 L 65.4313, 114.02 z "/>
<path style="fill:rgb(212, 138, 226);fill-opacity:1.0;fill-rule:evenodd;stroke:rgb(0, 0, 0);stroke-width:3.0;" d="M 65.4313, 114.02 L 58.3739, 125.374 L 44.1269, 124.004 L 28.5941, 110.326 L 37.0923, 85.3317 z "/>
<path style="fill:rgb(234, 30, 175);fill-opacity:1.0;fill-rule:evenodd;stroke:rgb(0, 0, 0);stroke-width:3.0;" d="M 655.81, 197.536 L 641.434, 200.865 L 622.86, 202.901 L 607.288, 187.08 L 603.335, 181.289 z "/>
</svg>