<?xml version="1.0" encoding="iso-8859-1" standalone="no"?>
<!DOCTYPE svg PUBLIC "-//W3C//DTD SVG 1.0//EN" "http://www.w3.org/TR/2001/REC-SVG-20010904/DTD/svg10.dtd">
<svg xmlns="http://www.w3.org/2000/svg" width="800" height="600">
<path style="fill:rgb(0, 0, 0);fill-opacity:0.0;fill-rule:evenodd;stroke:rgb(0, 0, 0);stroke-width:0.0;" d="M 0, 600 L 800, 600 L 800, 0 L 0, 0 z "/>
<path style="fill:rgb(249, 46, 18);fill-opacity:1.0;fill-rule:evenodd;stroke:rgb(0, 0, 0);stroke-width:3.0;" d="M 347.757, 13.6549 L 356.759, 34.607 L 335.241, 10.6394 z "/>
<path style="fill:rgb(14, 202, 255);fill-opacity:1.0;fill-rule:evenodd;stroke:rgb(0, 0, 0);stroke-width:3.0;" d="M 756.665, 482.92 L 753.335, 472.327 L 762.824, 445.974 L 764.867, 445.865 z "/>
<path style="fill:rgb(14, 202, 255);fill-opacity:1.0;fill-rule:evenodd;stroke:rgb(0, 0, 0);stroke-width:3.0;" d="M 42.266, 19.3815 L 40.4783, 36.5939 L 19.1816, 25.1886 L 17.8467, 13.9878 z "/>
<path style="fill:rgb(172, 246, 255);fill-opacity:1.0;fill-rule:evenodd;stroke:rgb(0, 0, 0);stroke-width:3.0;" d="M 764.634, 549.977 L 748.889, 555.143 L 747.007, 553.142 L 750.964, 529.664 z "/>
<path style="fill:rgb(255, 228, 107);fill-opacity:1.0;fill-rule:evenodd;stroke:rgb(0, 0, 0);stroke-width:3.0;" d="M 82.213, 49.108 L 82.7425, 58.4549 L 64.8386, 41.5938 L 65.7275, 32.2669 z "/>
<path style="fill:rgb(255, 228, 107);fill-opacity:1.0;fill-rule:evenodd;stroke:rgb(0, 0, 0);stroke-width:3.0;" d="M 384.88, 65.9293 L 388.845, 70.3464 L 379.95, 83.2794 L 375.178, 85.5179 L 372.125, 58.6631 L 372.261, 58.3533 z "/>
<path style="fill:rgb(255, 228, 107);fill-opacity:1.0;fill-rule:evenodd;stroke:rgb(0, 0, 0);stroke-width:3.0;" d="M 669.229, 497.601 L 666.527, 510.097 L 655.862, 504.746 L 659.776, 496.263 L 667.475, 494.82 z "/>
<path style="fill:rgb(89, 223, 252);fill-opacity:1.0;fill-rule:evenodd;stroke:rgb(0, 0, 0);stroke-width:3.0;" d="M 640.987, 583.954 L 619.319, 538.212 L 645.349, 508.237 z "/>
<path style="fill:rgb(89, 223, 252);fill-opacity:1.0;fill-rule:evenodd;stroke:rgb(0, 0, 0);stroke-width:3.0;" d="M 591.622, 545.792 L 584.551, 550.645 L 582.091, 550.133 L 580.296, 543.407 L 584.973, 531.93 L 590.92, 526.094 z "/>
<path style="fill:rgb(89, 223, 252);fill-opacity:1.0;fill-rule:evenodd;stroke:rgb(0, 0, 0);stroke-width:3.0;" d="M 541.171, 183.815 L 450.67, 179.284 L 433.347, 113.285 L 436.773, 112.51 z "/>
<path style="fill:rgb(237, 202, 8);fill-opacity:1.0;fill-rule:evenodd;stroke:rgb(0, 0, 0);stroke-width:3.0;" d="M 761.766, 182.377 L 746.298, 213.823 L 726.771, 208.78 L 721.457, 177.222 z "/>
<path style="fill:rgb(237, 202, 8);fill-opacity:1.0;fill-rule:evenodd;stroke:rgb(0, 0, 0);stroke-width:3.0;" d="M 712.985, 205.219 L 710.733, 272.082 L 657.552, 296.38 L 660.158, 251.134 L 710.47, 204.57 z "/>
<path style="fill:rgb(237, 202, 8);fill-opacity:1.0;fill-rule:evenodd;stroke:rgb(0, 0, 0);stroke-width:3.0;" d="M 767.817, 526.184 L 772.045, 560.988 L 750.964, 529.664 L 752.496, 520.568 z "/>
<path style="fill:rgb(249, 255, 61);fill-opacity:1.0;fill-rule:evenodd;stroke:rgb(0, 0, 0);stroke-width:3.0;" d="M 71.8437, 126.48 L 49.3572, 135.503 L 66.4846, 116.546 z "/>
<path style="fill:rgb(249, 255, 61);fill-opacity:1.0;fill-rule:evenodd;stroke:rgb(0, 0, 0);stroke-width:3.0;" d="M 71.7858, 90.4459 L 34.2331, 124.706 L 19.7426, 108.194 L 59.0259, 50.2036 z "/>
<path style="fill:rgb(255, 255, 20);fill-opacity:1.0;fill-rule:evenodd;stroke:rgb(0, 0, 0);stroke-width:3.0;" d="M 785.618, 102.83 L 780.468, 118.061 L 769.619, 109.271 L 770.699, 98.9538 L 777.76, 96.7914 z "/>
<path style="fill:rgb(255, 255, 20);fill-opacity:1.0;fill-rule:evenodd;stroke:rgb(0, 0, 0);stroke-width:3.0;" d="M 679.849, 472.944 L 690.35, 504.767 L 654.245, 462.141 z "/>
<path style="fill:rgb(255, 255, 20);fill-opacity:1.0;fill-rule:evenodd;stroke:rgb(0, 0, 0);stroke-width:3.0;" d="M 287.373, 257.173 L 380.086, 390.28 L 345.056, 382.667 L 272.03, 251.196 z "/>
<path style="fill:rgb(255, 255, 20);fill-opacity:1.0;fill-rule:evenodd;stroke:rgb(0, 0, 0);stroke-width:3.0;" d="M 100.844, 503.313 L 118.405, 527.354 L 98.297, 580.254 L 69.3833, 541.838 L 75.8491, 487.304 z "/>
<path style="fill:rgb(255, 255, 20);fill-opacity:1.0;fill-rule:evenodd;stroke:rgb(0, 0, 0);stroke-width:3.0;" d="M 722.311, 170.36 L 716.885, 206.227 L 666.458, 193.203 L 699.815, 159.028 z "/>
<path style="fill:rgb(255, 255, 20);fill-opacity:1.0;fill-rule:evenodd;stroke:rgb(0, 0, 0);stroke-width:3.0;" d="M 83.4211, 59.094 L 82.7425, 58.4549 L 80.552, 19.784 L 89.619, 19.5033 z "/>
<path style="fill:rgb(234, 215, 76);fill-opacity:1.0;fill-rule:evenodd;stroke:rgb(0, 0, 0);stroke-width:3.0;" d="M 493.378, 278.993 L 562.595, 330.878 L 641.635, 476.32 L 551.777, 564.51 L 475.053, 272.185 z "/>
<path style="fill:rgb(255, 172, 14);fill-opacity:1.0;fill-rule:evenodd;stroke:rgb(0, 0, 0);stroke-width:3.0;" d="M 492.037, 336.898 L 513.668, 419.311 L 443.124, 403.98 L 371.306, 377.675 L 346.151, 341.56 L 460.816, 324.736 z "/>
<path style="fill:rgb(255, 172, 14);fill-opacity:1.0;fill-rule:evenodd;stroke:rgb(0, 0, 0);stroke-width:3.0;" d="M 469.296, 250.251 L 344.614, 276.536 L 325.075, 137.78 L 433.347, 113.285 z "/>
<path style="fill:rgb(7, 255, 44);fill-opacity:1.0;fill-rule:evenodd;stroke:rgb(0, 0, 0);stroke-width:3.0;" d="M 145.266, 111.263 L 102.287, 167.301 L 106.404, 71.6414 z "/>
<path style="fill:rgb(7, 255, 44);fill-opacity:1.0;fill-rule:evenodd;stroke:rgb(0, 0, 0);stroke-width:3.0;" d="M 645.999, 487.753 L 640.267, 492.659 L 629.154, 488.57 L 639.018, 478.889 z "/>
<path style="fill:rgb(7, 255, 44);fill-opacity:1.0;fill-rule:evenodd;stroke:rgb(0, 0, 0);stroke-width:3.0;" d="M 443.793, 281.67 L 442.693, 303.898 L 410.378, 288.225 L 439.365, 274.703 z "/>
<path style="fill:rgb(7, 255, 44);fill-opacity:1.0;fill-rule:evenodd;stroke:rgb(0, 0, 0);stroke-width:3.0;" d="M 772.249, 84.1522 L 738.126, 67.7656 L 714.212, 18.4988 L 780.024, 9.88624 z "/>
<path style="fill:rgb(243, 255, 76);fill-opacity:1.0;fill-rule:evenodd;stroke:rgb(0, 0, 0);stroke-width:3.0;" d="M 394.122, 122.159 L 343.997, 133.5 L 330.693, 129.532 L 393.972, 94.06 z "/>
<path style="fill:rgb(16, 43, 228);fill-opacity:1.0;fill-rule:evenodd;stroke:rgb(0, 0, 0);stroke-width:3.0;" d="M 674.278, 491.563 L 672.241, 500.635 L 659.01, 480.392 L 663.114, 476.976 z "/>
<path style="fill:rgb(16, 43, 228);fill-opacity:1.0;fill-rule:evenodd;stroke:rgb(0, 0, 0);stroke-width:3.0;" d="M 24.9387, 576.461 L 27.722, 585.655 L 25.854, 586.639 L 21.6735, 585.315 L 18.0969, 577.525 L 18.9817, 565.038 z "/>
<path style="fill:rgb(228, 228, 21);fill-opacity:1.0;fill-rule:evenodd;stroke:rgb(0, 0, 0);stroke-width:3.0;" d="M 701.972, 532.282 L 701.23, 537.737 L 652.207, 389.175 L 657.552, 296.38 L 710.733, 272.082 z "/>
<path style="fill:rgb(228, 228, 21);fill-opacity:1.0;fill-rule:evenodd;stroke:rgb(0, 0, 0);stroke-width:3.0;" d="M 631.604, 344.107 L 604.823, 316.094 L 619.509, 279.879 z "/>
<path style="fill:rgb(228, 228, 21);fill-opacity:1.0;fill-rule:evenodd;stroke:rgb(0, 0, 0);stroke-width:3.0;" d="M 106.71, 575.857 L 97.0547, 583.522 L 105.052, 562.483 L 110.239, 557.548 z "/>
<path style="fill:rgb(228, 228, 21);fill-opacity:1.0;fill-rule:evenodd;stroke:rgb(0, 0, 0);stroke-width:3.0;" d="M 724.314, 157.117 L 722.311, 170.36 L 699.815, 159.028 L 700.789, 158.031 L 716.904, 156.765 z "/>
<path style="fill:rgb(228, 228, 21);fill-opacity:1.0;fill-rule:evenodd;stroke:rgb(0, 0, 0);stroke-width:3.0;" d="M 744.18, 549.225 L 730.068, 589.105 L 717.957, 570.576 L 727.437, 544.249 L 735.237, 535.158 z "/>
<path style="fill:rgb(52, 231, 220);fill-opacity:1.0;fill-rule:evenodd;stroke:rgb(0, 0, 0);stroke-width:3.0;" d="M 710.47, 204.57 L 660.158, 251.134 L 663.539, 192.449 z "/>
<path style="fill:rgb(52, 231, 220);fill-opacity:1.0;fill-rule:evenodd;stroke:rgb(0, 0, 0);stroke-width:3.0;" d="M 626.271, 312.847 L 625.766, 313.108 L 622.535, 295.952 L 640.591, 293.585 z "/>
<path style="fill:rgb(52, 231, 220);fill-opacity:1.0;fill-rule:evenodd;stroke:rgb(0, 0, 0);stroke-width:3.0;" d="M 757.362, 89.4399 L 769.541, 109.207 L 749.745, 93.168 L 752.22, 87.8786 z "/>
<path style="fill:rgb(37, 255, 50);fill-opacity:1.0;fill-rule:evenodd;stroke:rgb(0, 0, 0);stroke-width:3.0;" d="M 722.006, 76.7279 L 726.11, 96.2549 L 700.475, 93.4887 L 709.882, 70.6147 z "/>
<path style="fill:rgb(37, 255, 50);fill-opacity:1.0;fill-rule:evenodd;stroke:rgb(0, 0, 0);stroke-width:3.0;" d="M 633.427, 65.1001 L 620.162, 49.8583 L 641.824, 48.907 z "/>
<path style="fill:rgb(37, 255, 50);fill-opacity:1.0;fill-rule:evenodd;stroke:rgb(0, 0, 0);stroke-width:3.0;" d="M 707.31, 554.288 L 706.798, 553.505 L 753.102, 448.309 L 761.812, 447.036 z "/>
<path style="fill:rgb(37, 255, 50);fill-opacity:1.0;fill-rule:evenodd;stroke:rgb(0, 0, 0);stroke-width:3.0;" d="M 234.139, 69.9852 L 195.82, 113.949 L 175.442, 71.9184 L 208.575, 28.718 z "/>
<path style="fill:rgb(207, 123, 31);fill-opacity:1.0;fill-rule:evenodd;stroke:rgb(0, 0, 0);stroke-width:3.0;" d="M 766.274, 513.483 L 761.478, 516.591 L 753.379, 515.333 L 761.002, 470.094 z "/>
<path style="fill:rgb(212, 0, 22);fill-opacity:1.0;fill-rule:evenodd;stroke:rgb(0, 0, 0);stroke-width:3.0;" d="M 393.876, 75.95 L 393.963, 92.3497 L 392.157, 95.0776 L 359.086, 113.616 L 375.583, 89.629 L 393.386, 75.4041 z "/>
<path style="fill:rgb(42, 121, 255);fill-opacity:1.0;fill-rule:evenodd;stroke:rgb(0, 0, 0);stroke-width:3.0;" d="M 785.132, 123.288 L 768.551, 123.658 L 755.927, 102.544 z "/>
<path style="fill:rgb(42, 121, 255);fill-opacity:1.0;fill-rule:evenodd;stroke:rgb(0, 0, 0);stroke-width:3.0;" d="M 658.044, 287.83 L 657.01, 305.783 L 655.443, 306.992 L 639.142, 280.194 z "/>
<path style="fill:rgb(49, 49, 255);fill-opacity:1.0;fill-rule:evenodd;stroke:rgb(0, 0, 0);stroke-width:3.0;" d="M 596.826, 307.729 L 621.405, 333.439 L 651.929, 380.436 L 571.832, 303.871 L 576.894, 297.878 z "/>
<path style="fill:rgb(49, 49, 255);fill-opacity:1.0;fill-rule:evenodd;stroke:rgb(0, 0, 0);stroke-width:3.0;" d="M 93.3915, 158.586 L 80.3416, 193.149 L 72.6422, 194.891 L 92.5881, 156.053 z "/>
<path style="fill:rgb(220, 29, 25);fill-opacity:1.0;fill-rule:evenodd;stroke:rgb(0, 0, 0);stroke-width:3.0;" d="M 775.51, 145.356 L 729.731, 140.876 L 729.306, 124.534 L 765.64, 123.723 z "/>
<path style="fill:rgb(220, 29, 25);fill-opacity:1.0;fill-rule:evenodd;stroke:rgb(0, 0, 0);stroke-width:3.0;" d="M 628.475, 557.541 L 603.172, 564.633 L 599.913, 550.75 L 616.518, 532.301 z "/>
<path style="fill:rgb(240, 252, 14);fill-opacity:1.0;fill-rule:evenodd;stroke:rgb(0, 0, 0);stroke-width:3.0;" d="M 635.061, 66.9777 L 584.424, 63.116 L 583.039, 51.4886 L 620.162, 49.8583 z "/>
<path style="fill:rgb(240, 252, 14);fill-opacity:1.0;fill-rule:evenodd;stroke:rgb(0, 0, 0);stroke-width:3.0;" d="M 492.037, 336.898 L 478.226, 331.518 L 468.309, 317.938 L 471.058, 264.481 L 472.413, 262.129 z "/>
<path style="fill:rgb(240, 252, 14);fill-opacity:1.0;fill-rule:evenodd;stroke:rgb(0, 0, 0);stroke-width:3.0;" d="M 39.2044, 35.9116 L 35.6389, 46.9088 L 27.2858, 48.1134 L 24.2254, 43.7367 L 34.2638, 33.2657 z "/>
<path style="fill:rgb(255, 237, 27);fill-opacity:1.0;fill-rule:evenodd;stroke:rgb(0, 0, 0);stroke-width:3.0;" d="M 527.723, 91.9337 L 491.169, 100.204 L 501.829, 30.649 z "/>
<path style="fill:rgb(246, 243, 6);fill-opacity:1.0;fill-rule:evenodd;stroke:rgb(0, 0, 0);stroke-width:3.0;" d="M 756.382, 482.018 L 756.665, 482.92 L 752.208, 503.062 L 746.922, 496.627 L 746.654, 490.88 L 751.1, 478.532 z "/>
<path style="fill:rgb(246, 243, 6);fill-opacity:1.0;fill-rule:evenodd;stroke:rgb(0, 0, 0);stroke-width:3.0;" d="M 600.675, 553.997 L 603.776, 567.204 L 568.787, 568.755 L 571.888, 561.625 L 588.264, 551.417 z "/>
<path style="fill:rgb(246, 243, 6);fill-opacity:1.0;fill-rule:evenodd;stroke:rgb(0, 0, 0);stroke-width:3.0;" d="M 69.2824, 165.084 L 68.0947, 147.515 L 78.6326, 139.747 L 80.5877, 138.91 z "/>
<path style="fill:rgb(231, 249, 15);fill-opacity:1.0;fill-rule:evenodd;stroke:rgb(0, 0, 0);stroke-width:3.0;" d="M 658.783, 43.5137 L 662.419, 49.8358 L 657.897, 57.1208 L 651.993, 52.6976 L 650.06, 37.2422 z "/>
<path style="fill:rgb(255, 18, 107);fill-opacity:1.0;fill-rule:evenodd;stroke:rgb(0, 0, 0);stroke-width:3.0;" d="M 748.083, 538.198 L 744.18, 549.225 L 735.237, 535.158 L 739.793, 529.848 z "/>
<path style="fill:rgb(255, 18, 107);fill-opacity:1.0;fill-rule:evenodd;stroke:rgb(0, 0, 0);stroke-width:3.0;" d="M 359.086, 113.616 L 344.328, 121.889 L 356.457, 94.3 L 379.95, 83.2794 z "/>
<path style="fill:rgb(25, 255, 249);fill-opacity:1.0;fill-rule:evenodd;stroke:rgb(0, 0, 0);stroke-width:3.0;" d="M 69.3317, 165.813 L 57.0043, 161.032 L 67.9966, 146.063 z "/>
<path style="fill:rgb(25, 255, 249);fill-opacity:1.0;fill-rule:evenodd;stroke:rgb(0, 0, 0);stroke-width:3.0;" d="M 648.907, 22.6 L 649.023, 48.5908 L 607.59, 50.4104 L 582.215, 44.565 L 579.447, 21.3344 z "/>
<path style="fill:rgb(11, 184, 197);fill-opacity:1.0;fill-rule:evenodd;stroke:rgb(0, 0, 0);stroke-width:3.0;" d="M 616.932, 65.5951 L 613.171, 72.1816 L 586.034, 76.6277 L 584.424, 63.116 z "/>
<path style="fill:rgb(207, 255, 23);fill-opacity:1.0;fill-rule:evenodd;stroke:rgb(0, 0, 0);stroke-width:3.0;" d="M 577.316, 549.14 L 564.415, 578.81 L 555.109, 577.205 L 551.777, 564.51 L 569.164, 547.445 z "/>
<path style="fill:rgb(207, 255, 23);fill-opacity:1.0;fill-rule:evenodd;stroke:rgb(0, 0, 0);stroke-width:3.0;" d="M 54.9285, 440.455 L 20.4594, 431.15 L 20.1384, 414.614 L 34.2469, 412.141 z "/>
<path style="fill:rgb(34, 136, 255);fill-opacity:1.0;fill-rule:evenodd;stroke:rgb(0, 0, 0);stroke-width:3.0;" d="M 238.829, 238.263 L 244.732, 360.864 L 170.152, 344.657 L 139.324, 199.501 z "/>
<path style="fill:rgb(34, 136, 255);fill-opacity:1.0;fill-rule:evenodd;stroke:rgb(0, 0, 0);stroke-width:3.0;" d="M 514.784, 242.901 L 528.687, 268.484 L 472.53, 262.575 L 465.742, 236.71 z "/>
<path style="fill:rgb(249, 148, 25);fill-opacity:1.0;fill-rule:evenodd;stroke:rgb(0, 0, 0);stroke-width:3.0;" d="M 478.655, 227.003 L 480.526, 238.577 L 465.742, 236.71 L 461.899, 222.069 z "/>
<path style="fill:rgb(249, 148, 25);fill-opacity:1.0;fill-rule:evenodd;stroke:rgb(0, 0, 0);stroke-width:3.0;" d="M 643.265, 493.762 L 643.987, 509.805 L 619.319, 538.212 L 606.387, 510.914 L 629.154, 488.57 z "/>
<path style="fill:rgb(249, 148, 25);fill-opacity:1.0;fill-rule:evenodd;stroke:rgb(0, 0, 0);stroke-width:3.0;" d="M 496.382, 66.1881 L 489.078, 100.677 L 446.345, 110.345 L 451.603, 96.7701 L 498.218, 54.2109 z "/>
<path style="fill:rgb(249, 148, 25);fill-opacity:1.0;fill-rule:evenodd;stroke:rgb(0, 0, 0);stroke-width:3.0;" d="M 23.8438, 64.3072 L 12.7178, 84.3889 L 9.37258, 56.818 L 22.4667, 52.7528 z "/>
<path style="fill:rgb(255, 105, 42);fill-opacity:1.0;fill-rule:evenodd;stroke:rgb(0, 0, 0);stroke-width:3.0;" d="M 486.982, 181.102 L 453.288, 189.26 L 450.67, 179.284 z "/>
<path style="fill:rgb(255, 105, 42);fill-opacity:1.0;fill-rule:evenodd;stroke:rgb(0, 0, 0);stroke-width:3.0;" d="M 374.173, 54.0041 L 367.247, 69.7574 L 306.508, 72.6603 L 342.12, 18.3013 z "/>
<path style="fill:rgb(246, 255, 25);fill-opacity:1.0;fill-rule:evenodd;stroke:rgb(0, 0, 0);stroke-width:3.0;" d="M 575.707, 185.544 L 554.313, 249.285 L 461.899, 222.069 L 453.288, 189.26 L 486.982, 181.102 z "/>
<path style="fill:rgb(40, 255, 58);fill-opacity:1.0;fill-rule:evenodd;stroke:rgb(0, 0, 0);stroke-width:3.0;" d="M 739.931, 85.2159 L 726.616, 98.6642 L 720.477, 69.4537 z "/>
<path style="fill:rgb(243, 165, 6);fill-opacity:1.0;fill-rule:evenodd;stroke:rgb(0, 0, 0);stroke-width:3.0;" d="M 555.631, 318.064 L 562.595, 330.878 L 543.484, 316.553 L 544.449, 310.305 z "/>
<path style="fill:rgb(255, 255, 30);fill-opacity:1.0;fill-rule:evenodd;stroke:rgb(0, 0, 0);stroke-width:3.0;" d="M 91.7576, 153.433 L 75.389, 178.293 L 70.1135, 177.378 L 69.2824, 165.084 L 80.5877, 138.91 L 86.368, 136.436 z "/>
<path style="fill:rgb(255, 249, 22);fill-opacity:1.0;fill-rule:evenodd;stroke:rgb(0, 0, 0);stroke-width:3.0;" d="M 102.247, 186.514 L 82.7434, 186.788 L 93.3915, 158.586 z "/>
<path style="fill:rgb(252, 21, 197);fill-opacity:1.0;fill-rule:evenodd;stroke:rgb(0, 0, 0);stroke-width:3.0;" d="M 760.543, 472.819 L 753.286, 515.882 L 750.731, 509.734 L 758.951, 472.594 z "/>
<path style="fill:rgb(152, 42, 255);fill-opacity:1.0;fill-rule:evenodd;stroke:rgb(0, 0, 0);stroke-width:3.0;" d="M 742.311, 581.01 L 731.656, 589.191 L 734.111, 577.678 L 750.837, 530.413 z "/>
<path style="fill:rgb(194, 1, 51);fill-opacity:1.0;fill-rule:evenodd;stroke:rgb(0, 0, 0);stroke-width:3.0;" d="M 688.882, 87.7056 L 690.327, 92.3935 L 669.432, 90.1387 L 669.818, 83.4408 z "/>
<path style="fill:rgb(55, 36, 228);fill-opacity:1.0;fill-rule:evenodd;stroke:rgb(0, 0, 0);stroke-width:3.0;" d="M 666.458, 193.203 L 663.539, 192.449 L 665.361, 160.815 L 700.789, 158.031 z "/>
<path style="fill:rgb(255, 15, 42);fill-opacity:1.0;fill-rule:evenodd;stroke:rgb(0, 0, 0);stroke-width:3.0;" d="M 545.991, 300.325 L 545.008, 306.688 L 527.869, 304.847 L 521.203, 299.851 L 537.082, 283.932 z "/>
<path style="fill:rgb(255, 252, 161);fill-opacity:1.0;fill-rule:evenodd;stroke:rgb(0, 0, 0);stroke-width:3.0;" d="M 170.152, 344.657 L 106.259, 330.771 L 143.849, 220.807 z "/>
<path style="fill:rgb(255, 0, 255);fill-opacity:1.0;fill-rule:evenodd;stroke:rgb(0, 0, 0);stroke-width:3.0;" d="M 750.863, 94.0737 L 758.156, 106.271 L 732.592, 105.933 L 741.366, 86.3788 z "/>
<path style="fill:rgb(255, 0, 255);fill-opacity:1.0;fill-rule:evenodd;stroke:rgb(0, 0, 0);stroke-width:3.0;" d="M 690.35, 504.767 L 701.736, 539.273 L 701.529, 545.443 L 675.7, 505.927 L 688.083, 502.09 z "/>
<path style="fill:rgb(255, 7, 11);fill-opacity:1.0;fill-rule:evenodd;stroke:rgb(0, 0, 0);stroke-width:3.0;" d="M 789.13, 84.0577 L 794.373, 102.915 L 791.071, 107.995 L 785.084, 87.6922 L 785.829, 82.1982 z "/>
<path style="fill:rgb(255, 7, 11);fill-opacity:1.0;fill-rule:evenodd;stroke:rgb(0, 0, 0);stroke-width:3.0;" d="M 649.094, 64.4748 L 637.282, 67.1471 L 635.061, 66.9777 L 633.427, 65.1001 L 641.824, 48.907 L 649.023, 48.5908 z "/>
<path style="fill:rgb(255, 7, 11);fill-opacity:1.0;fill-rule:evenodd;stroke:rgb(0, 0, 0);stroke-width:3.0;" d="M 663.683, 189.948 L 658.497, 279.967 L 554.313, 249.285 L 567.752, 209.243 L 609.444, 187.233 z "/>
<path style="fill:rgb(249, 10, 36);fill-opacity:1.0;fill-rule:evenodd;stroke:rgb(0, 0, 0);stroke-width:3.0;" d="M 722.315, 60.1727 L 733.089, 75.4508 L 725.825, 73.7872 L 708.533, 59.7763 L 708.388, 57.5261 L 711.952, 55.1962 z "/>
<path style="fill:rgb(249, 10, 36);fill-opacity:1.0;fill-rule:evenodd;stroke:rgb(0, 0, 0);stroke-width:3.0;" d="M 717.957, 570.576 L 707.31, 554.288 L 761.812, 447.036 L 762.477, 446.939 z "/>
<path style="fill:rgb(249, 10, 36);fill-opacity:1.0;fill-rule:evenodd;stroke:rgb(0, 0, 0);stroke-width:3.0;" d="M 702.56, 20.0238 L 683.328, 22.5406 L 677.171, 17.023 L 688.472, 14.4169 z "/>
<path style="fill:rgb(249, 10, 36);fill-opacity:1.0;fill-rule:evenodd;stroke:rgb(0, 0, 0);stroke-width:3.0;" d="M 460.816, 324.736 L 346.151, 341.56 L 287.373, 257.173 z "/>
<path style="fill:rgb(249, 10, 36);fill-opacity:1.0;fill-rule:evenodd;stroke:rgb(0, 0, 0);stroke-width:3.0;" d="M 406.188, 286.193 L 407.624, 293.337 L 387.817, 285.564 L 392.075, 279.348 z "/>
<path style="fill:rgb(249, 10, 36);fill-opacity:1.0;fill-rule:evenodd;stroke:rgb(0, 0, 0);stroke-width:3.0;" d="M 709.764, 29.3908 L 711.642, 36.2347 L 697.768, 38.4175 L 687.275, 31.4561 L 683.623, 26.139 z "/>
<path style="fill:rgb(249, 10, 36);fill-opacity:1.0;fill-rule:evenodd;stroke:rgb(0, 0, 0);stroke-width:3.0;" d="M 671.489, 145.888 L 665.978, 150.098 L 667.371, 125.915 L 678.281, 125.672 z "/>
<path style="fill:rgb(36, 255, 7);fill-opacity:1.0;fill-rule:evenodd;stroke:rgb(0, 0, 0);stroke-width:3.0;" d="M 20.1208, 33.0694 L 21.0558, 40.9145 L 9.12406, 54.7697 L 5.89479, 28.1545 z "/>
<path style="fill:rgb(255, 66, 64);fill-opacity:1.0;fill-rule:evenodd;stroke:rgb(0, 0, 0);stroke-width:3.0;" d="M 644.527, 325.563 L 634.275, 336.375 L 629.162, 331.142 L 628.525, 327.758 L 642.938, 316.639 z "/>
<path style="fill:rgb(255, 179, 11);fill-opacity:1.0;fill-rule:evenodd;stroke:rgb(0, 0, 0);stroke-width:3.0;" d="M 392.075, 279.348 L 387.817, 285.564 L 357.754, 273.765 L 373.654, 270.413 z "/>
<path style="fill:rgb(255, 179, 11);fill-opacity:1.0;fill-rule:evenodd;stroke:rgb(0, 0, 0);stroke-width:3.0;" d="M 736.284, 63.9701 L 697.768, 38.4175 L 722.028, 34.6008 z "/>
<path style="fill:rgb(255, 10, 18);fill-opacity:1.0;fill-rule:evenodd;stroke:rgb(0, 0, 0);stroke-width:3.0;" d="M 615.395, 529.929 L 598.968, 546.723 L 597.892, 542.141 L 597.512, 522.923 L 610.929, 520.502 z "/>
<path style="fill:rgb(255, 26, 175);fill-opacity:1.0;fill-rule:evenodd;stroke:rgb(0, 0, 0);stroke-width:3.0;" d="M 664.52, 175.404 L 663.683, 189.948 L 611.221, 187.322 L 591.333, 143.679 L 592.535, 135.227 L 635.846, 132.106 z "/>
<path style="fill:rgb(255, 100, 110);fill-opacity:1.0;fill-rule:evenodd;stroke:rgb(0, 0, 0);stroke-width:3.0;" d="M 551.92, 260.757 L 542.232, 275.577 L 526.831, 260.854 L 540.145, 248.441 z "/>
<path style="fill:rgb(15, 170, 255);fill-opacity:1.0;fill-rule:evenodd;stroke:rgb(0, 0, 0);stroke-width:3.0;" d="M 656.498, 402.178 L 652.777, 429.779 L 649.929, 428.718 L 652.207, 389.175 z "/>
<path style="fill:rgb(15, 170, 255);fill-opacity:1.0;fill-rule:evenodd;stroke:rgb(0, 0, 0);stroke-width:3.0;" d="M 22.5077, 396.07 L 12.9742, 403.384 L 11.0456, 403.001 L 10.5492, 393.851 L 15.8948, 387.017 z "/>
<path style="fill:rgb(15, 170, 255);fill-opacity:1.0;fill-rule:evenodd;stroke:rgb(0, 0, 0);stroke-width:3.0;" d="M 289.534, 343.937 L 298.076, 372.457 L 244.732, 360.864 L 243.161, 328.243 z "/>
<path style="fill:rgb(15, 170, 255);fill-opacity:1.0;fill-rule:evenodd;stroke:rgb(0, 0, 0);stroke-width:3.0;" d="M 260.401, 246.666 L 289.534, 343.937 L 243.161, 328.243 L 238.829, 238.263 z "/>
<path style="fill:rgb(15, 170, 255);fill-opacity:1.0;fill-rule:evenodd;stroke:rgb(0, 0, 0);stroke-width:3.0;" d="M 535.716, 243.808 L 540.145, 248.441 L 526.831, 260.854 L 522.064, 256.298 L 511.382, 236.642 z "/>
<path style="fill:rgb(255, 1, 8);fill-opacity:1.0;fill-rule:evenodd;stroke:rgb(0, 0, 0);stroke-width:3.0;" d="M 76.5343, 105.422 L 38.183, 147.872 L 32.7664, 126.044 L 71.7858, 90.4459 z "/>
<path style="fill:rgb(209, 246, 40);fill-opacity:1.0;fill-rule:evenodd;stroke:rgb(0, 0, 0);stroke-width:3.0;" d="M 396.644, 109.73 L 409.123, 118.766 L 395.316, 121.889 L 394.082, 114.589 L 394.051, 108.908 z "/>
<path style="fill:rgb(209, 246, 40);fill-opacity:1.0;fill-rule:evenodd;stroke:rgb(0, 0, 0);stroke-width:3.0;" d="M 82.96, 125.687 L 45.3774, 176.864 L 38.183, 147.872 L 49.3572, 135.503 L 81.928, 122.433 z "/>
<path style="fill:rgb(209, 40, 72);fill-opacity:1.0;fill-rule:evenodd;stroke:rgb(0, 0, 0);stroke-width:3.0;" d="M 600.223, 331.01 L 611.936, 421.672 L 522.064, 256.298 z "/>
<path style="fill:rgb(255, 223, 9);fill-opacity:1.0;fill-rule:evenodd;stroke:rgb(0, 0, 0);stroke-width:3.0;" d="M 29.6006, 51.2814 L 32.4841, 67.7577 L 24.3058, 68.1836 L 22.4835, 52.894 L 29.0109, 50.9881 z "/>
<path style="fill:rgb(255, 223, 9);fill-opacity:1.0;fill-rule:evenodd;stroke:rgb(0, 0, 0);stroke-width:3.0;" d="M 609.444, 187.233 L 584.125, 200.599 L 582.512, 185.885 z "/>
<path style="fill:rgb(255, 223, 9);fill-opacity:1.0;fill-rule:evenodd;stroke:rgb(0, 0, 0);stroke-width:3.0;" d="M 652.669, 381.143 L 647.52, 470.545 L 641.635, 476.32 L 611.936, 421.672 L 600.223, 331.01 z "/>
<path style="fill:rgb(255, 220, 28);fill-opacity:1.0;fill-rule:evenodd;stroke:rgb(0, 0, 0);stroke-width:3.0;" d="M 712.888, 63.3053 L 703.748, 85.5303 L 669.851, 82.8583 L 670.655, 68.9136 L 706.598, 58.2085 z "/>
<path style="fill:rgb(255, 220, 28);fill-opacity:1.0;fill-rule:evenodd;stroke:rgb(0, 0, 0);stroke-width:3.0;" d="M 595.058, 117.484 L 555.188, 104.325 L 564.723, 83.563 L 601.049, 75.3445 z "/>
<path style="fill:rgb(255, 220, 28);fill-opacity:1.0;fill-rule:evenodd;stroke:rgb(0, 0, 0);stroke-width:3.0;" d="M 373.157, 67.7378 L 375.178, 85.5179 L 356.457, 94.3 L 371.824, 59.3484 z "/>
<path style="fill:rgb(255, 220, 28);fill-opacity:1.0;fill-rule:evenodd;stroke:rgb(0, 0, 0);stroke-width:3.0;" d="M 184.34, 127.12 L 162.007, 152.741 L 126.521, 170.282 L 101.729, 168.029 L 142.861, 114.399 z "/>
<path style="fill:rgb(255, 220, 28);fill-opacity:1.0;fill-rule:evenodd;stroke:rgb(0, 0, 0);stroke-width:3.0;" d="M 145.237, 171.982 L 138.196, 180.06 L 102.743, 188.08 L 97.9483, 172.958 L 101.729, 168.029 z "/>
<path style="fill:rgb(249, 157, 255);fill-opacity:1.0;fill-rule:evenodd;stroke:rgb(0, 0, 0);stroke-width:3.0;" d="M 688.083, 502.09 L 687.076, 502.402 L 648.34, 460.341 L 650.366, 457.561 z "/>
<path style="fill:rgb(48, 50, 240);fill-opacity:1.0;fill-rule:evenodd;stroke:rgb(0, 0, 0);stroke-width:3.0;" d="M 582.512, 185.885 L 584.125, 200.599 L 567.752, 209.243 L 575.707, 185.544 z "/>
<path style="fill:rgb(48, 50, 240);fill-opacity:1.0;fill-rule:evenodd;stroke:rgb(0, 0, 0);stroke-width:3.0;" d="M 679.849, 472.944 L 654.245, 462.141 L 650.366, 457.561 L 667.167, 434.511 z "/>
<path style="fill:rgb(48, 50, 240);fill-opacity:1.0;fill-rule:evenodd;stroke:rgb(0, 0, 0);stroke-width:3.0;" d="M 439.365, 274.703 L 410.378, 288.225 L 373.654, 270.413 L 429.195, 258.705 z "/>
<path style="fill:rgb(48, 50, 240);fill-opacity:1.0;fill-rule:evenodd;stroke:rgb(0, 0, 0);stroke-width:3.0;" d="M 82.213, 49.108 L 65.7275, 32.2669 L 66.8769, 20.2073 L 80.552, 19.784 z "/>
<path style="fill:rgb(89, 175, 228);fill-opacity:1.0;fill-rule:evenodd;stroke:rgb(0, 0, 0);stroke-width:3.0;" d="M 687.076, 502.402 L 675.7, 505.927 L 672.241, 500.635 L 674.83, 489.105 z "/>
<path style="fill:rgb(255, 255, 13);fill-opacity:1.0;fill-rule:evenodd;stroke:rgb(0, 0, 0);stroke-width:3.0;" d="M 83.4211, 59.094 L 81.395, 72.0361 L 64.9919, 69.0191 L 61.8902, 59.2371 L 80.6726, 56.5056 z "/>
<path style="fill:rgb(255, 255, 13);fill-opacity:1.0;fill-rule:evenodd;stroke:rgb(0, 0, 0);stroke-width:3.0;" d="M 428.372, 296.953 L 426.003, 300.55 L 407.624, 293.337 L 406.188, 286.193 z "/>
<path style="fill:rgb(255, 255, 13);fill-opacity:1.0;fill-rule:evenodd;stroke:rgb(0, 0, 0);stroke-width:3.0;" d="M 308.602, 69.464 L 306.508, 72.6603 L 294.01, 73.2577 L 301.691, 60.1412 z "/>
<path style="fill:rgb(249, 1, 33);fill-opacity:1.0;fill-rule:evenodd;stroke:rgb(0, 0, 0);stroke-width:3.0;" d="M 342.12, 18.3013 L 308.602, 69.464 L 301.691, 60.1412 L 332.481, 7.56495 z "/>
<path style="fill:rgb(255, 255, 18);fill-opacity:1.0;fill-rule:evenodd;stroke:rgb(0, 0, 0);stroke-width:3.0;" d="M 782.462, 510.279 L 774.642, 519.314 L 771.74, 519.687 L 774.755, 499.489 z "/>
<path style="fill:rgb(255, 255, 18);fill-opacity:1.0;fill-rule:evenodd;stroke:rgb(0, 0, 0);stroke-width:3.0;" d="M 630.949, 132.459 L 592.535, 135.227 L 594.691, 120.063 z "/>
<path style="fill:rgb(255, 163, 240);fill-opacity:1.0;fill-rule:evenodd;stroke:rgb(0, 0, 0);stroke-width:3.0;" d="M 773.052, 159.432 L 761.766, 182.377 L 738.891, 179.452 L 769.843, 159.28 z "/>
<path style="fill:rgb(132, 0, 243);fill-opacity:1.0;fill-rule:evenodd;stroke:rgb(0, 0, 0);stroke-width:3.0;" d="M 769.843, 159.28 L 738.891, 179.452 L 721.457, 177.222 L 721.36, 176.646 L 724.314, 157.117 z "/>
<path style="fill:rgb(220, 16, 255);fill-opacity:1.0;fill-rule:evenodd;stroke:rgb(0, 0, 0);stroke-width:3.0;" d="M 555.188, 104.325 L 521.742, 93.2868 L 564.723, 83.563 z "/>
<path style="fill:rgb(220, 16, 255);fill-opacity:1.0;fill-rule:evenodd;stroke:rgb(0, 0, 0);stroke-width:3.0;" d="M 179.155, 172.82 L 150.079, 203.691 L 146.584, 202.329 L 145.676, 178.367 L 179.165, 170.791 z "/>
<path style="fill:rgb(220, 16, 255);fill-opacity:1.0;fill-rule:evenodd;stroke:rgb(0, 0, 0);stroke-width:3.0;" d="M 100.844, 503.313 L 75.2666, 486.931 L 88.27, 486.099 z "/>
<path style="fill:rgb(47, 212, 240);fill-opacity:1.0;fill-rule:evenodd;stroke:rgb(0, 0, 0);stroke-width:3.0;" d="M 80.0321, 474.822 L 88.27, 486.099 L 75.2666, 486.931 L 40.5242, 464.679 L 41.1056, 462.114 z "/>
<path style="fill:rgb(91, 150, 189);fill-opacity:1.0;fill-rule:evenodd;stroke:rgb(0, 0, 0);stroke-width:3.0;" d="M 635.846, 132.106 L 630.949, 132.459 L 606.072, 123.954 L 618.463, 105.857 z "/>
<path style="fill:rgb(124, 14, 255);fill-opacity:1.0;fill-rule:evenodd;stroke:rgb(0, 0, 0);stroke-width:3.0;" d="M 634.749, 272.974 L 646.792, 292.771 L 622.535, 295.952 L 618.344, 273.692 L 632.001, 272.164 z "/>
<path style="fill:rgb(124, 14, 255);fill-opacity:1.0;fill-rule:evenodd;stroke:rgb(0, 0, 0);stroke-width:3.0;" d="M 618.463, 105.857 L 606.072, 123.954 L 594.691, 120.063 L 600.556, 78.8161 z "/>
<path style="fill:rgb(255, 255, 11);fill-opacity:1.0;fill-rule:evenodd;stroke:rgb(0, 0, 0);stroke-width:3.0;" d="M 765.05, 123.736 L 742.287, 124.244 L 743.501, 110.008 z "/>
<path style="fill:rgb(6, 252, 255);fill-opacity:1.0;fill-rule:evenodd;stroke:rgb(0, 0, 0);stroke-width:3.0;" d="M 80.6726, 56.5056 L 61.8902, 59.2371 L 60.046, 53.4207 L 62.159, 39.0703 z "/>
<path style="fill:rgb(246, 255, 24);fill-opacity:1.0;fill-rule:evenodd;stroke:rgb(0, 0, 0);stroke-width:3.0;" d="M 741.366, 86.3788 L 732.592, 105.933 L 728.131, 105.874 L 726.616, 98.6642 L 739.931, 85.2159 z "/>
<path style="fill:rgb(255, 112, 199);fill-opacity:1.0;fill-rule:evenodd;stroke:rgb(0, 0, 0);stroke-width:3.0;" d="M 174.755, 171.789 L 138.196, 180.06 L 145.538, 171.637 z "/>
<path style="fill:rgb(255, 112, 199);fill-opacity:1.0;fill-rule:evenodd;stroke:rgb(0, 0, 0);stroke-width:3.0;" d="M 106.404, 71.6414 L 102.287, 167.301 L 97.9483, 172.958 L 76.2893, 104.649 L 84.8905, 49.7075 z "/>
<path style="fill:rgb(255, 44, 8);fill-opacity:1.0;fill-rule:evenodd;stroke:rgb(0, 0, 0);stroke-width:3.0;" d="M 774.755, 499.489 L 771.74, 519.687 L 767.1, 520.283 L 762.487, 482.312 z "/>
<path style="fill:rgb(237, 255, 10);fill-opacity:1.0;fill-rule:evenodd;stroke:rgb(0, 0, 0);stroke-width:3.0;" d="M 34.2331, 124.706 L 22.536, 135.377 L 19.378, 137.073 L 19.2696, 120.043 L 28.6361, 118.328 z "/>
<path style="fill:rgb(202, 194, 217);fill-opacity:1.0;fill-rule:evenodd;stroke:rgb(0, 0, 0);stroke-width:3.0;" d="M 525.016, 94.3671 L 479.748, 141.863 L 436.773, 112.51 L 521.742, 93.2868 z "/>
<path style="fill:rgb(202, 194, 217);fill-opacity:1.0;fill-rule:evenodd;stroke:rgb(0, 0, 0);stroke-width:3.0;" d="M 136.125, 554.982 L 139.221, 561.602 L 118.525, 589.321 L 110.537, 587.904 L 127.801, 559.113 L 134.569, 553.74 z "/>
<path style="fill:rgb(255, 217, 12);fill-opacity:1.0;fill-rule:evenodd;stroke:rgb(0, 0, 0);stroke-width:3.0;" d="M 110.537, 587.904 L 96.3456, 585.387 L 97.0547, 583.522 L 127.801, 559.113 z "/>
<path style="fill:rgb(226, 18, 9);fill-opacity:1.0;fill-rule:evenodd;stroke:rgb(0, 0, 0);stroke-width:3.0;" d="M 608.276, 586.374 L 564.415, 578.81 L 568.787, 568.755 L 603.776, 567.204 z "/>
<path style="fill:rgb(226, 18, 9);fill-opacity:1.0;fill-rule:evenodd;stroke:rgb(0, 0, 0);stroke-width:3.0;" d="M 440.264, 276.117 L 429.195, 258.705 L 450.636, 254.184 z "/>
<path style="fill:rgb(255, 148, 83);fill-opacity:1.0;fill-rule:evenodd;stroke:rgb(0, 0, 0);stroke-width:3.0;" d="M 648.546, 585.602 L 645.25, 594.443 L 640.605, 590.586 L 641.873, 568.57 L 658.58, 553.611 z "/>
<path style="fill:rgb(252, 78, 228);fill-opacity:1.0;fill-rule:evenodd;stroke:rgb(0, 0, 0);stroke-width:3.0;" d="M 581.826, 292.039 L 571.832, 303.871 L 567.228, 299.47 L 560.615, 269.853 z "/>
<path style="fill:rgb(252, 78, 228);fill-opacity:1.0;fill-rule:evenodd;stroke:rgb(0, 0, 0);stroke-width:3.0;" d="M 720.125, 30.6797 L 683.623, 26.139 L 681.331, 22.8019 L 708.188, 19.2872 L 714.542, 19.1777 z "/>
<path style="fill:rgb(252, 78, 228);fill-opacity:1.0;fill-rule:evenodd;stroke:rgb(0, 0, 0);stroke-width:3.0;" d="M 705.042, 7.47082 L 703.386, 13.9782 L 697.156, 17.0222 L 691.312, 15.5472 L 682.629, 12.0913 L 696.652, 6.34558 L 698.677, 5.83007 z "/>
<path style="fill:rgb(204, 82, 150);fill-opacity:1.0;fill-rule:evenodd;stroke:rgb(0, 0, 0);stroke-width:3.0;" d="M 69.7328, 171.746 L 70.5267, 183.491 L 55.4443, 184.051 L 50.4525, 169.954 L 55.0613, 163.678 z "/>
<path style="fill:rgb(79, 237, 123);fill-opacity:1.0;fill-rule:evenodd;stroke:rgb(0, 0, 0);stroke-width:3.0;" d="M 37.5001, 548.576 L 30.6414, 547.627 L 18.813, 539.156 L 14.7955, 520.67 z "/>
<path style="fill:rgb(255, 26, 177);fill-opacity:1.0;fill-rule:evenodd;stroke:rgb(0, 0, 0);stroke-width:3.0;" d="M 472.413, 262.129 L 452.902, 295.999 L 447.391, 287.33 L 471.56, 258.879 z "/>
<path style="fill:rgb(89, 223, 252);fill-opacity:1.0;fill-rule:evenodd;stroke:rgb(0, 0, 0);stroke-width:3.0;" d="M 471.56, 258.879 L 447.391, 287.33 L 440.264, 276.117 L 450.636, 254.184 L 469.296, 250.251 z "/>
<path style="fill:rgb(246, 243, 44);fill-opacity:1.0;fill-rule:evenodd;stroke:rgb(0, 0, 0);stroke-width:3.0;" d="M 651.173, 299.973 L 626.271, 312.847 L 640.591, 293.585 L 646.792, 292.771 z "/>
<path style="fill:rgb(246, 243, 44);fill-opacity:1.0;fill-rule:evenodd;stroke:rgb(0, 0, 0);stroke-width:3.0;" d="M 134.569, 553.74 L 106.71, 575.857 L 110.239, 557.548 L 123.514, 544.917 z "/>
<path style="fill:rgb(246, 243, 44);fill-opacity:1.0;fill-rule:evenodd;stroke:rgb(0, 0, 0);stroke-width:3.0;" d="M 345.052, 279.641 L 150.079, 203.691 L 168.278, 184.369 L 330.532, 176.529 z "/>
<path style="fill:rgb(11, 255, 255);fill-opacity:1.0;fill-rule:evenodd;stroke:rgb(0, 0, 0);stroke-width:3.0;" d="M 330.532, 176.529 L 168.278, 184.369 L 181.581, 170.244 L 325.075, 137.78 z "/>
<path style="fill:rgb(209, 48, 255);fill-opacity:1.0;fill-rule:evenodd;stroke:rgb(0, 0, 0);stroke-width:3.0;" d="M 693.547, 134.785 L 668.875, 153.668 L 676.452, 131.116 z "/>
<path style="fill:rgb(243, 14, 165);fill-opacity:1.0;fill-rule:evenodd;stroke:rgb(0, 0, 0);stroke-width:3.0;" d="M 81.928, 122.433 L 71.8437, 126.48 L 66.4846, 116.546 L 76.5343, 105.422 z "/>
<path style="fill:rgb(212, 119, 255);fill-opacity:1.0;fill-rule:evenodd;stroke:rgb(0, 0, 0);stroke-width:3.0;" d="M 443.124, 403.98 L 380.086, 390.28 L 371.306, 377.675 z "/>
<path style="fill:rgb(255, 231, 37);fill-opacity:1.0;fill-rule:evenodd;stroke:rgb(0, 0, 0);stroke-width:3.0;" d="M 663.631, 423.795 L 664.292, 425.8 L 659.541, 435.239 L 653.481, 438.704 L 651.678, 437.927 L 654.006, 420.663 z "/>
<path style="fill:rgb(243, 1, 24);fill-opacity:1.0;fill-rule:evenodd;stroke:rgb(0, 0, 0);stroke-width:3.0;" d="M 572.613, 110.076 L 594.166, 123.756 L 585.312, 186.025 L 541.171, 183.815 L 479.748, 141.863 L 525.016, 94.3671 z "/>
<path style="fill:rgb(17, 255, 255);fill-opacity:1.0;fill-rule:evenodd;stroke:rgb(0, 0, 0);stroke-width:3.0;" d="M 692.776, 134.619 L 676.452, 131.116 L 678.281, 125.672 L 695.779, 125.282 z "/>
<path style="fill:rgb(95, 255, 255);fill-opacity:1.0;fill-rule:evenodd;stroke:rgb(0, 0, 0);stroke-width:3.0;" d="M 508.006, 237.328 L 510.604, 242.373 L 480.526, 238.577 L 480.144, 236.216 L 489.963, 231.654 z "/>
<path style="fill:rgb(255, 223, 56);fill-opacity:1.0;fill-rule:evenodd;stroke:rgb(0, 0, 0);stroke-width:3.0;" d="M 442.537, 307.039 L 442.023, 317.415 L 389.284, 296.871 L 401.718, 291.019 z "/>
<path style="fill:rgb(82, 88, 255);fill-opacity:1.0;fill-rule:evenodd;stroke:rgb(0, 0, 0);stroke-width:3.0;" d="M 401.718, 291.019 L 389.284, 296.871 L 345.052, 279.641 L 344.614, 276.536 L 357.754, 273.765 z "/>
<path style="fill:rgb(197, 17, 8);fill-opacity:1.0;fill-rule:evenodd;stroke:rgb(0, 0, 0);stroke-width:3.0;" d="M 528.687, 268.484 L 530.866, 272.494 L 522.458, 275.406 L 499.698, 275.343 L 486.09, 273.53 L 472.789, 263.559 L 472.53, 262.575 z "/>
<path style="fill:rgb(255, 240, 11);fill-opacity:1.0;fill-rule:evenodd;stroke:rgb(0, 0, 0);stroke-width:3.0;" d="M 562.725, 279.302 L 567.228, 299.47 L 542.232, 275.577 L 544.373, 272.302 z "/>
<path style="fill:rgb(249, 9, 12);fill-opacity:1.0;fill-rule:evenodd;stroke:rgb(0, 0, 0);stroke-width:3.0;" d="M 560.615, 269.853 L 562.725, 279.302 L 544.373, 272.302 L 551.92, 260.757 z "/>
<path style="fill:rgb(255, 231, 11);fill-opacity:1.0;fill-rule:evenodd;stroke:rgb(0, 0, 0);stroke-width:3.0;" d="M 664.52, 175.404 L 610.639, 94.0423 L 670.913, 64.4234 z "/>
<path style="fill:rgb(237, 94, 28);fill-opacity:1.0;fill-rule:evenodd;stroke:rgb(0, 0, 0);stroke-width:3.0;" d="M 464.063, 313.556 L 474.577, 330.096 L 442.023, 317.415 L 442.257, 312.694 z "/>
<path style="fill:rgb(237, 94, 28);fill-opacity:1.0;fill-rule:evenodd;stroke:rgb(0, 0, 0);stroke-width:3.0;" d="M 670.913, 64.4234 L 610.639, 94.0423 L 600.556, 78.8161 L 601.049, 75.3445 L 671.198, 59.474 z "/>
<path style="fill:rgb(45, 246, 255);fill-opacity:1.0;fill-rule:evenodd;stroke:rgb(0, 0, 0);stroke-width:3.0;" d="M 272.03, 251.196 L 345.056, 382.667 L 298.076, 372.457 L 260.401, 246.666 z "/>
<path style="fill:rgb(226, 5, 7);fill-opacity:1.0;fill-rule:evenodd;stroke:rgb(0, 0, 0);stroke-width:3.0;" d="M 726.11, 96.2549 L 732.04, 124.473 L 667.371, 125.915 L 667.996, 115.065 L 689.026, 92.2531 z "/>
<path style="fill:rgb(237, 240, 14);fill-opacity:1.0;fill-rule:evenodd;stroke:rgb(0, 0, 0);stroke-width:3.0;" d="M 689.026, 92.2531 L 667.996, 115.065 L 669.432, 90.1387 z "/>
<path style="fill:rgb(255, 55, 134);fill-opacity:1.0;fill-rule:evenodd;stroke:rgb(0, 0, 0);stroke-width:3.0;" d="M 468.309, 317.938 L 457.028, 302.489 L 452.902, 295.999 L 471.058, 264.481 z "/>
<path style="fill:rgb(234, 138, 255);fill-opacity:1.0;fill-rule:evenodd;stroke:rgb(0, 0, 0);stroke-width:3.0;" d="M 534.969, 280.043 L 537.082, 283.932 L 521.203, 299.851 L 517.21, 296.858 L 492.939, 274.442 z "/>
<path style="fill:rgb(92, 237, 255);fill-opacity:1.0;fill-rule:evenodd;stroke:rgb(0, 0, 0);stroke-width:3.0;" d="M 758.156, 106.271 L 763.412, 115.063 L 765.08, 123.736 L 765.05, 123.736 L 743.501, 110.008 L 743.836, 106.082 z "/>
<path style="fill:rgb(92, 237, 255);fill-opacity:1.0;fill-rule:evenodd;stroke:rgb(0, 0, 0);stroke-width:3.0;" d="M 146.584, 202.329 L 107.338, 187.041 L 145.676, 178.367 z "/>
<path style="fill:rgb(252, 56, 25);fill-opacity:1.0;fill-rule:evenodd;stroke:rgb(0, 0, 0);stroke-width:3.0;" d="M 700.944, 53.6277 L 706.598, 58.2085 L 686.354, 64.2379 L 672.137, 43.1778 L 672.368, 39.1623 z "/>
<path style="fill:rgb(252, 56, 25);fill-opacity:1.0;fill-rule:evenodd;stroke:rgb(0, 0, 0);stroke-width:3.0;" d="M 686.354, 64.2379 L 670.655, 68.9136 L 672.137, 43.1778 z "/>
<path style="fill:rgb(252, 255, 59);fill-opacity:1.0;fill-rule:evenodd;stroke:rgb(0, 0, 0);stroke-width:3.0;" d="M 139.324, 199.501 L 143.849, 220.807 L 110.964, 317.01 L 52.8446, 199.37 L 107.338, 187.041 z "/>
<path style="fill:rgb(252, 255, 59);fill-opacity:1.0;fill-rule:evenodd;stroke:rgb(0, 0, 0);stroke-width:3.0;" d="M 195.82, 113.949 L 184.34, 127.12 L 142.861, 114.399 L 175.442, 71.9184 z "/>
<path style="fill:rgb(255, 226, 60);fill-opacity:1.0;fill-rule:evenodd;stroke:rgb(0, 0, 0);stroke-width:3.0;" d="M 611.221, 187.322 L 606.031, 187.062 L 595.838, 176.96 L 603.164, 169.64 z "/>
<path style="fill:rgb(43, 56, 240);fill-opacity:1.0;fill-rule:evenodd;stroke:rgb(0, 0, 0);stroke-width:3.0;" d="M 769.436, 159.261 L 667.872, 154.435 L 678.492, 146.307 z "/>
<path style="fill:rgb(255, 212, 24);fill-opacity:1.0;fill-rule:evenodd;stroke:rgb(0, 0, 0);stroke-width:3.0;" d="M 129.117, 542.019 L 121.812, 543.559 L 114.472, 537.701 L 118.405, 527.354 z "/>
<path style="fill:rgb(255, 18, 91);fill-opacity:1.0;fill-rule:evenodd;stroke:rgb(0, 0, 0);stroke-width:3.0;" d="M 344.328, 121.889 L 309.823, 141.231 L 174.755, 171.789 L 145.538, 171.637 L 228.561, 76.3856 L 367.247, 69.7574 z "/>
<path style="fill:rgb(85, 112, 240);fill-opacity:1.0;fill-rule:evenodd;stroke:rgb(0, 0, 0);stroke-width:3.0;" d="M 617.237, 267.816 L 619.509, 279.879 L 604.823, 316.094 L 535.716, 243.808 z "/>
<path style="fill:rgb(255, 255, 25);fill-opacity:1.0;fill-rule:evenodd;stroke:rgb(0, 0, 0);stroke-width:3.0;" d="M 145.237, 171.982 L 126.521, 170.282 L 162.007, 152.741 z "/>
<path style="fill:rgb(246, 246, 7);fill-opacity:1.0;fill-rule:evenodd;stroke:rgb(0, 0, 0);stroke-width:3.0;" d="M 464.063, 313.556 L 442.257, 312.694 L 443.793, 281.67 z "/>
<path style="fill:rgb(110, 81, 249);fill-opacity:1.0;fill-rule:evenodd;stroke:rgb(0, 0, 0);stroke-width:3.0;" d="M 706.798, 553.505 L 701.529, 545.443 L 704.56, 455.402 L 753.102, 448.309 z "/>
<path style="fill:rgb(228, 163, 161);fill-opacity:1.0;fill-rule:evenodd;stroke:rgb(0, 0, 0);stroke-width:3.0;" d="M 729.731, 140.876 L 690.594, 137.045 L 706.27, 125.048 L 729.306, 124.534 z "/>
</svg>