<?xml version="1.0" encoding="iso-8859-1" standalone="no"?>
<!DOCTYPE svg PUBLIC "-//W3C//DTD SVG 1.0//EN" "http://www.w3.org/TR/2001/REC-SVG-20010904/DTD/svg10.dtd">
<svg xmlns="http://www.w3.org/2000/svg" width="800" height="600">
<path style="fill:rgb(0, 0, 0);fill-opacity:0.0;fill-rule:evenodd;stroke:rgb(0, 0, 0);stroke-width:0.0;" d="M 0, 600 L 800, 600 L 800, 0 L 0, 0 z "/>
<path style="fill:rgb(54, 0, 255);fill-opacity:1.0;fill-rule:evenodd;stroke:rgb(0, 0, 0);stroke-width:3.0;" d="M 598.376, 473.997 L 593.889, 504.298 L 438.785, 425.34 L 480.193, 416.093 z "/>
<path style="fill:rgb(54, 0, 255);fill-opacity:1.0;fill-rule:evenodd;stroke:rgb(0, 0, 0);stroke-width:3.0;" d="M 171.902, 260.52 L 170.917, 262.501 L 168.785, 261.582 L 159.629, 240.537 L 161.904, 232.081 z "/>
<path style="fill:rgb(54, 0, 255);fill-opacity:1.0;fill-rule:evenodd;stroke:rgb(0, 0, 0);stroke-width:3.0;" d="M 576.416, 325.159 L 561.765, 318.526 L 561.809, 300.415 z "/>
<path style="fill:rgb(54, 0, 255);fill-opacity:1.0;fill-rule:evenodd;stroke:rgb(0, 0, 0);stroke-width:3.0;" d="M 82.5774, 21.3367 L 151.672, 203.509 L 100.841, 287.492 L 71.2556, 272.868 L 9.92869, 101.666 L 19.7614, 19.6863 z "/>
<path style="fill:rgb(44, 103, 255);fill-opacity:1.0;fill-rule:evenodd;stroke:rgb(0, 0, 0);stroke-width:3.0;" d="M 145.905, 487.956 L 61.8642, 518.226 L 9.85994, 477.118 L 7.60854, 399.15 L 157.023, 398.126 z "/>
<path style="fill:rgb(252, 65, 7);fill-opacity:1.0;fill-rule:evenodd;stroke:rgb(0, 0, 0);stroke-width:3.0;" d="M 216.414, 500.331 L 171.685, 513.074 L 142.924, 512.043 L 146.131, 486.128 L 188.278, 478.43 z "/>
<path style="fill:rgb(252, 65, 7);fill-opacity:1.0;fill-rule:evenodd;stroke:rgb(0, 0, 0);stroke-width:3.0;" d="M 711.543, 507.123 L 729.176, 532.708 L 708.203, 531.632 L 709.106, 507.019 z "/>
<path style="fill:rgb(252, 65, 7);fill-opacity:1.0;fill-rule:evenodd;stroke:rgb(0, 0, 0);stroke-width:3.0;" d="M 445.066, 457.65 L 455.308, 489.705 L 404.128, 577.649 L 346.846, 546.489 L 390.418, 430.637 z "/>
<path style="fill:rgb(252, 65, 7);fill-opacity:1.0;fill-rule:evenodd;stroke:rgb(0, 0, 0);stroke-width:3.0;" d="M 273.882, 517.075 L 281.45, 551.322 L 256.448, 504.851 z "/>
<path style="fill:rgb(240, 255, 45);fill-opacity:1.0;fill-rule:evenodd;stroke:rgb(0, 0, 0);stroke-width:3.0;" d="M 608.705, 404.242 L 606.415, 419.706 L 564.976, 404.952 L 574.249, 392.347 z "/>
<path style="fill:rgb(94, 72, 199);fill-opacity:1.0;fill-rule:evenodd;stroke:rgb(0, 0, 0);stroke-width:3.0;" d="M 48.5551, 377.015 L 40.6401, 396.748 L 22.155, 399.012 L 21.4786, 371.913 z "/>
<path style="fill:rgb(94, 72, 199);fill-opacity:1.0;fill-rule:evenodd;stroke:rgb(0, 0, 0);stroke-width:3.0;" d="M 155.308, 312.13 L 154.332, 313.934 L 115.821, 294.897 L 125.021, 280.474 L 146.617, 279.629 z "/>
<path style="fill:rgb(6, 0, 255);fill-opacity:1.0;fill-rule:evenodd;stroke:rgb(0, 0, 0);stroke-width:3.0;" d="M 416.842, 266.636 L 403.484, 281.899 L 397.181, 279.43 L 409.744, 262.41 L 412.633, 261.156 z "/>
<path style="fill:rgb(6, 0, 255);fill-opacity:1.0;fill-rule:evenodd;stroke:rgb(0, 0, 0);stroke-width:3.0;" d="M 299.273, 310.352 L 291.043, 323.418 L 175.722, 266.916 L 175.479, 266.277 z "/>
<path style="fill:rgb(6, 0, 255);fill-opacity:1.0;fill-rule:evenodd;stroke:rgb(0, 0, 0);stroke-width:3.0;" d="M 668.12, 334.532 L 667.81, 335.242 L 651.682, 364.858 L 650.91, 364.323 L 658.503, 332.397 L 659.622, 330.071 z "/>
<path style="fill:rgb(6, 0, 255);fill-opacity:1.0;fill-rule:evenodd;stroke:rgb(0, 0, 0);stroke-width:3.0;" d="M 537.571, 395.195 L 540.977, 398.587 L 509.202, 396.826 L 511.997, 386.09 z "/>
<path style="fill:rgb(6, 0, 255);fill-opacity:1.0;fill-rule:evenodd;stroke:rgb(0, 0, 0);stroke-width:3.0;" d="M 692.927, 374.561 L 687.778, 396.743 L 678.623, 393.154 L 667.496, 335.96 L 673.431, 322.387 L 681.564, 319.878 z "/>
<path style="fill:rgb(35, 0, 209);fill-opacity:1.0;fill-rule:evenodd;stroke:rgb(0, 0, 0);stroke-width:3.0;" d="M 157.105, 397.467 L 157.023, 398.126 L 109.852, 398.449 L 117.847, 390.07 z "/>
<path style="fill:rgb(35, 0, 209);fill-opacity:1.0;fill-rule:evenodd;stroke:rgb(0, 0, 0);stroke-width:3.0;" d="M 400.614, 428.228 L 401.485, 433.67 L 398.088, 434.428 L 372.865, 421.96 z "/>
<path style="fill:rgb(35, 0, 209);fill-opacity:1.0;fill-rule:evenodd;stroke:rgb(0, 0, 0);stroke-width:3.0;" d="M 451.032, 526.064 L 408.146, 584.299 L 399.937, 584.852 L 434.456, 525.536 L 449.914, 521.61 z "/>
<path style="fill:rgb(35, 0, 209);fill-opacity:1.0;fill-rule:evenodd;stroke:rgb(0, 0, 0);stroke-width:3.0;" d="M 702.693, 516.736 L 698.38, 531.127 L 687.334, 530.56 L 684.342, 513.202 z "/>
<path style="fill:rgb(35, 0, 209);fill-opacity:1.0;fill-rule:evenodd;stroke:rgb(0, 0, 0);stroke-width:3.0;" d="M 662.763, 297.376 L 689.24, 317.509 L 612.093, 341.312 L 592.428, 332.409 L 561.845, 285.805 L 561.847, 284.758 z "/>
<path style="fill:rgb(35, 0, 209);fill-opacity:1.0;fill-rule:evenodd;stroke:rgb(0, 0, 0);stroke-width:3.0;" d="M 189.979, 458.841 L 181.259, 467.168 L 153.359, 475.595 L 201.252, 436.075 z "/>
<path style="fill:rgb(35, 0, 209);fill-opacity:1.0;fill-rule:evenodd;stroke:rgb(0, 0, 0);stroke-width:3.0;" d="M 262.627, 516.335 L 222.865, 514.909 L 248.837, 490.702 z "/>
<path style="fill:rgb(255, 243, 22);fill-opacity:1.0;fill-rule:evenodd;stroke:rgb(0, 0, 0);stroke-width:3.0;" d="M 404.128, 577.649 L 396.599, 590.587 L 334.359, 579.691 L 346.846, 546.489 z "/>
<path style="fill:rgb(255, 243, 22);fill-opacity:1.0;fill-rule:evenodd;stroke:rgb(0, 0, 0);stroke-width:3.0;" d="M 168.352, 288.03 L 155.308, 312.13 L 146.617, 279.629 L 160.226, 279.097 z "/>
<path style="fill:rgb(57, 184, 255);fill-opacity:1.0;fill-rule:evenodd;stroke:rgb(0, 0, 0);stroke-width:3.0;" d="M 779.475, 361.504 L 776.225, 362.856 L 762.927, 322.753 L 756.191, 296.853 L 774.083, 291.333 z "/>
<path style="fill:rgb(57, 184, 255);fill-opacity:1.0;fill-rule:evenodd;stroke:rgb(0, 0, 0);stroke-width:3.0;" d="M 782.105, 530.126 L 785.33, 566.344 L 740.17, 528.111 z "/>
<path style="fill:rgb(57, 184, 255);fill-opacity:1.0;fill-rule:evenodd;stroke:rgb(0, 0, 0);stroke-width:3.0;" d="M 499.121, 393.825 L 485.035, 412.412 L 473.102, 402.316 L 484.021, 385.854 z "/>
<path style="fill:rgb(57, 184, 255);fill-opacity:1.0;fill-rule:evenodd;stroke:rgb(0, 0, 0);stroke-width:3.0;" d="M 255.136, 248.259 L 256.502, 251.079 L 221.721, 270.548 L 233.161, 247.625 L 233.381, 247.5 L 240.01, 244.396 z "/>
<path style="fill:rgb(57, 184, 255);fill-opacity:1.0;fill-rule:evenodd;stroke:rgb(0, 0, 0);stroke-width:3.0;" d="M 57.6039, 378.72 L 33.0664, 374.097 L 14.576, 329.019 z "/>
<path style="fill:rgb(57, 184, 255);fill-opacity:1.0;fill-rule:evenodd;stroke:rgb(0, 0, 0);stroke-width:3.0;" d="M 652.079, 420.837 L 656.107, 426.682 L 660.943, 529.205 L 590.735, 525.6 L 606.33, 420.281 z "/>
<path style="fill:rgb(240, 18, 14);fill-opacity:1.0;fill-rule:evenodd;stroke:rgb(0, 0, 0);stroke-width:3.0;" d="M 172.54, 274.59 L 162.245, 273.812 L 160.022, 270.528 L 165.789, 257.999 z "/>
<path style="fill:rgb(240, 18, 14);fill-opacity:1.0;fill-rule:evenodd;stroke:rgb(0, 0, 0);stroke-width:3.0;" d="M 35.9905, 255.436 L 46.279, 270.532 L 31.6297, 275.227 L 30.3166, 255.447 L 33.7546, 254.33 z "/>
<path style="fill:rgb(204, 46, 112);fill-opacity:1.0;fill-rule:evenodd;stroke:rgb(0, 0, 0);stroke-width:3.0;" d="M 158.256, 10.7653 L 171.725, 19.1885 L 177.806, 29.0298 L 168.077, 29.8683 L 147.594, 9.55281 z "/>
<path style="fill:rgb(255, 37, 83);fill-opacity:1.0;fill-rule:evenodd;stroke:rgb(0, 0, 0);stroke-width:3.0;" d="M 178.854, 316.292 L 167.799, 320.591 L 164.29, 318.857 L 174.407, 306.09 L 179.907, 305.493 z "/>
<path style="fill:rgb(249, 54, 187);fill-opacity:1.0;fill-rule:evenodd;stroke:rgb(0, 0, 0);stroke-width:3.0;" d="M 205.513, 427.47 L 201.71, 435.15 L 147.178, 477.674 L 147.903, 471.812 L 203.025, 411.462 z "/>
<path style="fill:rgb(255, 19, 76);fill-opacity:1.0;fill-rule:evenodd;stroke:rgb(0, 0, 0);stroke-width:3.0;" d="M 577.698, 435.16 L 558.701, 416.24 L 570.873, 415.571 z "/>
<path style="fill:rgb(255, 19, 76);fill-opacity:1.0;fill-rule:evenodd;stroke:rgb(0, 0, 0);stroke-width:3.0;" d="M 561.853, 282.605 L 561.765, 318.526 L 478.082, 280.639 z "/>
<path style="fill:rgb(255, 19, 76);fill-opacity:1.0;fill-rule:evenodd;stroke:rgb(0, 0, 0);stroke-width:3.0;" d="M 196.025, 33.8136 L 202.633, 45.4598 L 190.771, 52.3766 L 186.062, 47.7055 L 193.141, 32.7922 z "/>
<path style="fill:rgb(255, 19, 76);fill-opacity:1.0;fill-rule:evenodd;stroke:rgb(0, 0, 0);stroke-width:3.0;" d="M 158.246, 239.462 L 157.911, 240.463 L 151.505, 245.472 L 144.409, 243.986 L 141.312, 220.626 L 146.855, 211.468 z "/>
<path style="fill:rgb(103, 237, 255);fill-opacity:1.0;fill-rule:evenodd;stroke:rgb(0, 0, 0);stroke-width:3.0;" d="M 768.279, 428.295 L 765.974, 448.433 L 608.519, 405.497 L 611.107, 388.023 L 659.091, 385.499 z "/>
<path style="fill:rgb(103, 237, 255);fill-opacity:1.0;fill-rule:evenodd;stroke:rgb(0, 0, 0);stroke-width:3.0;" d="M 427.413, 355.975 L 438.776, 361.973 L 439.355, 381.62 L 419.818, 386.512 L 291.043, 323.418 L 299.273, 310.352 z "/>
<path style="fill:rgb(103, 237, 255);fill-opacity:1.0;fill-rule:evenodd;stroke:rgb(0, 0, 0);stroke-width:3.0;" d="M 515.32, 64.3648 L 495.447, 95.0204 L 456.68, 35.2977 z "/>
<path style="fill:rgb(103, 237, 255);fill-opacity:1.0;fill-rule:evenodd;stroke:rgb(0, 0, 0);stroke-width:3.0;" d="M 649.141, 416.574 L 651.501, 419.999 L 606.408, 419.758 L 608.519, 405.497 z "/>
<path style="fill:rgb(10, 179, 255);fill-opacity:1.0;fill-rule:evenodd;stroke:rgb(0, 0, 0);stroke-width:3.0;" d="M 103.86, 387.435 L 57.6039, 378.72 L 41.4922, 360.109 L 32.8641, 326.233 L 32.8679, 276.94 L 48.6755, 275.635 z "/>
<path style="fill:rgb(10, 179, 255);fill-opacity:1.0;fill-rule:evenodd;stroke:rgb(0, 0, 0);stroke-width:3.0;" d="M 340.97, 167.838 L 331.043, 191.501 L 296.033, 156.777 L 318.55, 138.643 z "/>
<path style="fill:rgb(255, 215, 21);fill-opacity:1.0;fill-rule:evenodd;stroke:rgb(0, 0, 0);stroke-width:3.0;" d="M 478.834, 383.117 L 468.737, 410.48 L 444.784, 398.744 L 438.968, 368.489 L 438.776, 361.973 z "/>
<path style="fill:rgb(255, 255, 8);fill-opacity:1.0;fill-rule:evenodd;stroke:rgb(0, 0, 0);stroke-width:3.0;" d="M 271.11, 371.66 L 265.466, 392.558 L 260.341, 366.337 z "/>
<path style="fill:rgb(255, 255, 8);fill-opacity:1.0;fill-rule:evenodd;stroke:rgb(0, 0, 0);stroke-width:3.0;" d="M 247.124, 395.983 L 241.504, 413.369 L 233.221, 411.808 L 241.288, 369.57 z "/>
<path style="fill:rgb(255, 255, 8);fill-opacity:1.0;fill-rule:evenodd;stroke:rgb(0, 0, 0);stroke-width:3.0;" d="M 725.113, 411.376 L 698.401, 400.906 L 692.148, 370.816 L 700.669, 342.984 z "/>
<path style="fill:rgb(17, 27, 246);fill-opacity:1.0;fill-rule:evenodd;stroke:rgb(0, 0, 0);stroke-width:3.0;" d="M 731.577, 532.832 L 698.732, 565.828 L 619.857, 544.053 L 590.175, 529.381 L 590.735, 525.6 z "/>
<path style="fill:rgb(255, 95, 8);fill-opacity:1.0;fill-rule:evenodd;stroke:rgb(0, 0, 0);stroke-width:3.0;" d="M 637.109, 376.883 L 630.044, 374.114 L 651.352, 329.199 L 661.555, 326.051 z "/>
<path style="fill:rgb(255, 95, 8);fill-opacity:1.0;fill-rule:evenodd;stroke:rgb(0, 0, 0);stroke-width:3.0;" d="M 682.358, 530.304 L 660.943, 529.205 L 659.45, 497.571 z "/>
<path style="fill:rgb(7, 45, 234);fill-opacity:1.0;fill-rule:evenodd;stroke:rgb(0, 0, 0);stroke-width:3.0;" d="M 771.507, 355.746 L 778.353, 382.069 L 770.125, 417.722 L 737.586, 351.313 z "/>
<path style="fill:rgb(7, 45, 234);fill-opacity:1.0;fill-rule:evenodd;stroke:rgb(0, 0, 0);stroke-width:3.0;" d="M 117.847, 390.07 L 109.852, 398.449 L 87.8487, 398.6 L 90.393, 390.654 L 108.91, 388.386 z "/>
<path style="fill:rgb(121, 223, 209);fill-opacity:1.0;fill-rule:evenodd;stroke:rgb(0, 0, 0);stroke-width:3.0;" d="M 144.981, 248.298 L 134.204, 232.37 L 138.887, 224.633 L 141.795, 224.268 z "/>
<path style="fill:rgb(12, 10, 255);fill-opacity:1.0;fill-rule:evenodd;stroke:rgb(0, 0, 0);stroke-width:3.0;" d="M 709.225, 503.76 L 708.203, 531.632 L 698.38, 531.127 L 707.382, 501.085 z "/>
<path style="fill:rgb(12, 10, 255);fill-opacity:1.0;fill-rule:evenodd;stroke:rgb(0, 0, 0);stroke-width:3.0;" d="M 274.634, 288.492 L 254.491, 294.408 L 208.406, 278.001 L 256.502, 251.079 z "/>
<path style="fill:rgb(187, 192, 9);fill-opacity:1.0;fill-rule:evenodd;stroke:rgb(0, 0, 0);stroke-width:3.0;" d="M 354.672, 227.921 L 339.083, 232.902 L 343.425, 206.96 z "/>
<path style="fill:rgb(255, 0, 37);fill-opacity:1.0;fill-rule:evenodd;stroke:rgb(0, 0, 0);stroke-width:3.0;" d="M 480.193, 416.093 L 457.611, 421.136 L 460.056, 406.227 z "/>
<path style="fill:rgb(240, 1, 12);fill-opacity:1.0;fill-rule:evenodd;stroke:rgb(0, 0, 0);stroke-width:3.0;" d="M 448.069, 400.354 L 460.056, 406.227 L 457.611, 421.136 L 413.162, 431.062 L 372.865, 421.96 L 279.475, 375.795 z "/>
<path style="fill:rgb(204, 18, 128);fill-opacity:1.0;fill-rule:evenodd;stroke:rgb(0, 0, 0);stroke-width:3.0;" d="M 453.512, 304.923 L 590.369, 370.433 L 564.976, 404.952 L 336.167, 323.488 L 397.692, 283.044 z "/>
<path style="fill:rgb(255, 20, 136);fill-opacity:1.0;fill-rule:evenodd;stroke:rgb(0, 0, 0);stroke-width:3.0;" d="M 230.453, 91.7333 L 320.116, 217.546 L 307.473, 247.683 L 303.797, 246.242 L 160.195, 34.9091 L 161.895, 23.7363 z "/>
<path style="fill:rgb(192, 194, 255);fill-opacity:1.0;fill-rule:evenodd;stroke:rgb(0, 0, 0);stroke-width:3.0;" d="M 674.716, 373.07 L 661.211, 386.33 L 655.464, 384.077 L 663.573, 344.932 L 667.496, 335.96 z "/>
<path style="fill:rgb(192, 194, 255);fill-opacity:1.0;fill-rule:evenodd;stroke:rgb(0, 0, 0);stroke-width:3.0;" d="M 633.365, 353.942 L 623.235, 371.445 L 622.364, 371.104 L 620.451, 350.027 z "/>
<path style="fill:rgb(192, 194, 255);fill-opacity:1.0;fill-rule:evenodd;stroke:rgb(0, 0, 0);stroke-width:3.0;" d="M 606.328, 420.298 L 602.653, 445.118 L 591.179, 442.416 L 588.391, 440.945 L 593.512, 416.819 z "/>
<path style="fill:rgb(228, 0, 47);fill-opacity:1.0;fill-rule:evenodd;stroke:rgb(0, 0, 0);stroke-width:3.0;" d="M 389.89, 279.986 L 366.579, 293.136 L 349.644, 264.212 z "/>
<path style="fill:rgb(228, 0, 47);fill-opacity:1.0;fill-rule:evenodd;stroke:rgb(0, 0, 0);stroke-width:3.0;" d="M 242.519, 222.224 L 250.135, 237.94 L 206.262, 262.975 L 179.706, 231.106 L 201.234, 206.043 z "/>
<path style="fill:rgb(228, 0, 47);fill-opacity:1.0;fill-rule:evenodd;stroke:rgb(0, 0, 0);stroke-width:3.0;" d="M 692.421, 479.375 L 687.575, 492.693 L 681.393, 496.095 L 679.12, 482.905 L 691.407, 477.904 z "/>
<path style="fill:rgb(228, 0, 47);fill-opacity:1.0;fill-rule:evenodd;stroke:rgb(0, 0, 0);stroke-width:3.0;" d="M 757.247, 300.914 L 730.922, 337.712 L 716.849, 308.991 L 756.191, 296.853 z "/>
<path style="fill:rgb(228, 0, 47);fill-opacity:1.0;fill-rule:evenodd;stroke:rgb(0, 0, 0);stroke-width:3.0;" d="M 540.977, 398.587 L 551.007, 408.576 L 551.213, 409.093 L 553.907, 422.743 L 504.291, 396.554 z "/>
<path style="fill:rgb(255, 59, 46);fill-opacity:1.0;fill-rule:evenodd;stroke:rgb(0, 0, 0);stroke-width:3.0;" d="M 347.534, 263.385 L 334.815, 258.4 L 339.083, 232.902 L 367.97, 223.672 z "/>
<path style="fill:rgb(249, 13, 9);fill-opacity:1.0;fill-rule:evenodd;stroke:rgb(0, 0, 0);stroke-width:3.0;" d="M 784.207, 434.538 L 766.012, 448.098 L 767.161, 438.063 L 774.346, 430.673 z "/>
<path style="fill:rgb(255, 144, 11);fill-opacity:1.0;fill-rule:evenodd;stroke:rgb(0, 0, 0);stroke-width:3.0;" d="M 355.603, 355.049 L 195.996, 320.371 L 175.722, 266.916 z "/>
<path style="fill:rgb(255, 255, 69);fill-opacity:1.0;fill-rule:evenodd;stroke:rgb(0, 0, 0);stroke-width:3.0;" d="M 176.416, 480.597 L 148.045, 485.779 L 150.237, 480.332 L 174.068, 477.177 z "/>
<path style="fill:rgb(255, 255, 69);fill-opacity:1.0;fill-rule:evenodd;stroke:rgb(0, 0, 0);stroke-width:3.0;" d="M 261.534, 496.618 L 247.346, 487.931 L 225.533, 447.385 z "/>
<path style="fill:rgb(255, 255, 69);fill-opacity:1.0;fill-rule:evenodd;stroke:rgb(0, 0, 0);stroke-width:3.0;" d="M 200.643, 476.172 L 179.483, 480.036 L 191.229, 456.316 L 222.225, 452.614 z "/>
<path style="fill:rgb(255, 255, 69);fill-opacity:1.0;fill-rule:evenodd;stroke:rgb(0, 0, 0);stroke-width:3.0;" d="M 274.175, 202.649 L 140.607, 163.681 L 160.195, 34.9091 z "/>
<path style="fill:rgb(184, 45, 184);fill-opacity:1.0;fill-rule:evenodd;stroke:rgb(0, 0, 0);stroke-width:3.0;" d="M 664.49, 438.846 L 660.681, 457.273 L 657.462, 455.419 L 656.107, 426.682 z "/>
<path style="fill:rgb(184, 45, 184);fill-opacity:1.0;fill-rule:evenodd;stroke:rgb(0, 0, 0);stroke-width:3.0;" d="M 207.028, 68.5001 L 194.285, 55.8613 L 224.929, 38.5592 z "/>
<path style="fill:rgb(184, 45, 184);fill-opacity:1.0;fill-rule:evenodd;stroke:rgb(0, 0, 0);stroke-width:3.0;" d="M 510.084, 399.611 L 523.431, 432.974 L 520.1, 435.646 L 486.429, 419.148 L 488.954, 407.24 L 499.121, 393.825 z "/>
<path style="fill:rgb(184, 45, 184);fill-opacity:1.0;fill-rule:evenodd;stroke:rgb(0, 0, 0);stroke-width:3.0;" d="M 455.283, 433.739 L 478.918, 445.77 L 486.957, 450.805 L 495.873, 475.132 L 446.224, 458.223 L 444.443, 457.342 L 440.241, 431.639 z "/>
<path style="fill:rgb(184, 45, 184);fill-opacity:1.0;fill-rule:evenodd;stroke:rgb(0, 0, 0);stroke-width:3.0;" d="M 559.902, 425.907 L 528.769, 428.691 L 543.215, 417.099 z "/>
<path style="fill:rgb(134, 255, 223);fill-opacity:1.0;fill-rule:evenodd;stroke:rgb(0, 0, 0);stroke-width:3.0;" d="M 676.111, 493.705 L 682.354, 501.671 L 687.334, 530.56 L 682.358, 530.304 L 659.45, 497.571 L 659.052, 489.12 z "/>
<path style="fill:rgb(255, 108, 49);fill-opacity:1.0;fill-rule:evenodd;stroke:rgb(0, 0, 0);stroke-width:3.0;" d="M 718.115, 592.624 L 703.097, 585.201 L 701.091, 576.228 L 701.374, 574.955 L 704.547, 574.632 z "/>
<path style="fill:rgb(255, 108, 49);fill-opacity:1.0;fill-rule:evenodd;stroke:rgb(0, 0, 0);stroke-width:3.0;" d="M 162.855, 398.551 L 159.563, 459.046 L 154.11, 465.017 L 154.888, 415.376 L 157.105, 397.467 z "/>
<path style="fill:rgb(255, 108, 49);fill-opacity:1.0;fill-rule:evenodd;stroke:rgb(0, 0, 0);stroke-width:3.0;" d="M 791.128, 473.009 L 785.908, 478.252 L 752.645, 483.355 L 767.343, 462.411 z "/>
<path style="fill:rgb(23, 3, 255);fill-opacity:1.0;fill-rule:evenodd;stroke:rgb(0, 0, 0);stroke-width:3.0;" d="M 440.241, 431.639 L 444.443, 457.342 L 408.542, 439.596 L 433.702, 430.726 z "/>
<path style="fill:rgb(23, 3, 255);fill-opacity:1.0;fill-rule:evenodd;stroke:rgb(0, 0, 0);stroke-width:3.0;" d="M 327.792, 188.276 L 326.341, 202.709 L 323.937, 208.44 L 310.026, 201.76 L 311.657, 197.143 L 327.304, 187.792 z "/>
<path style="fill:rgb(255, 255, 57);fill-opacity:1.0;fill-rule:evenodd;stroke:rgb(0, 0, 0);stroke-width:3.0;" d="M 161.758, 190.57 L 167.072, 215.945 L 147.465, 192.417 L 144.147, 183.668 z "/>
<path style="fill:rgb(255, 255, 57);fill-opacity:1.0;fill-rule:evenodd;stroke:rgb(0, 0, 0);stroke-width:3.0;" d="M 233.625, 462.427 L 229.221, 470.952 L 200.643, 476.172 L 222.225, 452.614 L 227.976, 451.927 z "/>
<path style="fill:rgb(255, 255, 57);fill-opacity:1.0;fill-rule:evenodd;stroke:rgb(0, 0, 0);stroke-width:3.0;" d="M 695.669, 359.316 L 687.386, 347.896 L 681.564, 319.878 L 710.473, 310.958 z "/>
<path style="fill:rgb(255, 44, 6);fill-opacity:1.0;fill-rule:evenodd;stroke:rgb(0, 0, 0);stroke-width:3.0;" d="M 495.873, 475.132 L 499.29, 484.455 L 446.224, 458.223 z "/>
<path style="fill:rgb(255, 44, 6);fill-opacity:1.0;fill-rule:evenodd;stroke:rgb(0, 0, 0);stroke-width:3.0;" d="M 230.746, 507.563 L 230.338, 496.364 L 248.231, 491.267 z "/>
<path style="fill:rgb(212, 243, 14);fill-opacity:1.0;fill-rule:evenodd;stroke:rgb(0, 0, 0);stroke-width:3.0;" d="M 180.111, 278.489 L 190.963, 307.101 L 187.604, 304.838 L 173.103, 271.508 z "/>
<path style="fill:rgb(243, 105, 6);fill-opacity:1.0;fill-rule:evenodd;stroke:rgb(0, 0, 0);stroke-width:3.0;" d="M 108.91, 388.386 L 40.6401, 396.748 L 48.5551, 377.015 z "/>
<path style="fill:rgb(243, 105, 6);fill-opacity:1.0;fill-rule:evenodd;stroke:rgb(0, 0, 0);stroke-width:3.0;" d="M 262.627, 516.335 L 275.144, 539.601 L 199.552, 530.098 L 211.925, 514.517 z "/>
<path style="fill:rgb(255, 252, 7);fill-opacity:1.0;fill-rule:evenodd;stroke:rgb(0, 0, 0);stroke-width:3.0;" d="M 349.644, 264.212 L 370.959, 300.617 L 336.167, 323.488 L 282.299, 304.309 L 242.519, 222.224 z "/>
<path style="fill:rgb(249, 255, 105);fill-opacity:1.0;fill-rule:evenodd;stroke:rgb(0, 0, 0);stroke-width:3.0;" d="M 103.761, 582.531 L 95.8634, 594.843 L 78.7111, 582.83 L 101.305, 565.097 z "/>
<path style="fill:rgb(249, 255, 105);fill-opacity:1.0;fill-rule:evenodd;stroke:rgb(0, 0, 0);stroke-width:3.0;" d="M 592.35, 514.695 L 578.986, 523.85 L 578.164, 523.444 L 588.8, 505.153 L 593.815, 504.799 z "/>
<path style="fill:rgb(249, 255, 105);fill-opacity:1.0;fill-rule:evenodd;stroke:rgb(0, 0, 0);stroke-width:3.0;" d="M 743.795, 363.986 L 718.274, 392.242 L 700.669, 342.984 L 710.473, 310.958 L 716.849, 308.991 z "/>
<path style="fill:rgb(249, 255, 105);fill-opacity:1.0;fill-rule:evenodd;stroke:rgb(0, 0, 0);stroke-width:3.0;" d="M 765.188, 465.482 L 760.388, 472.321 L 688.622, 443.118 L 687.184, 441.115 L 688.92, 440.04 z "/>
<path style="fill:rgb(249, 255, 105);fill-opacity:1.0;fill-rule:evenodd;stroke:rgb(0, 0, 0);stroke-width:3.0;" d="M 448.069, 400.354 L 327.482, 382.788 L 404.847, 379.177 z "/>
<path style="fill:rgb(255, 3, 55);fill-opacity:1.0;fill-rule:evenodd;stroke:rgb(0, 0, 0);stroke-width:3.0;" d="M 505.064, 385.775 L 502.183, 395.441 L 431.666, 358.22 z "/>
<path style="fill:rgb(255, 3, 55);fill-opacity:1.0;fill-rule:evenodd;stroke:rgb(0, 0, 0);stroke-width:3.0;" d="M 247.203, 487.665 L 231.348, 478.943 L 227.812, 471.209 L 237.407, 469.457 z "/>
<path style="fill:rgb(255, 3, 55);fill-opacity:1.0;fill-rule:evenodd;stroke:rgb(0, 0, 0);stroke-width:3.0;" d="M 226.315, 452.125 L 201.55, 455.083 L 205.899, 428.491 z "/>
<path style="fill:rgb(255, 3, 55);fill-opacity:1.0;fill-rule:evenodd;stroke:rgb(0, 0, 0);stroke-width:3.0;" d="M 355.603, 355.049 L 404.847, 379.177 L 327.482, 382.788 L 279.475, 375.795 L 202.606, 337.797 L 195.996, 320.371 z "/>
<path style="fill:rgb(228, 0, 62);fill-opacity:1.0;fill-rule:evenodd;stroke:rgb(0, 0, 0);stroke-width:3.0;" d="M 584.875, 511.902 L 578.164, 523.444 L 563.754, 516.32 L 564.365, 506.875 L 575.772, 506.071 z "/>
<path style="fill:rgb(228, 0, 62);fill-opacity:1.0;fill-rule:evenodd;stroke:rgb(0, 0, 0);stroke-width:3.0;" d="M 55.5676, 229.073 L 71.2556, 272.868 L 28.0476, 251.509 L 20.9798, 191.452 z "/>
<path style="fill:rgb(243, 36, 14);fill-opacity:1.0;fill-rule:evenodd;stroke:rgb(0, 0, 0);stroke-width:3.0;" d="M 46.0686, 523.915 L 38.302, 526.712 L 19.7448, 505.439 L 30.1355, 501.996 z "/>
<path style="fill:rgb(243, 36, 14);fill-opacity:1.0;fill-rule:evenodd;stroke:rgb(0, 0, 0);stroke-width:3.0;" d="M 247.203, 487.665 L 248.837, 490.702 L 248.231, 491.267 L 216.414, 500.331 L 188.278, 478.43 L 219.911, 472.652 z "/>
<path style="fill:rgb(243, 36, 14);fill-opacity:1.0;fill-rule:evenodd;stroke:rgb(0, 0, 0);stroke-width:3.0;" d="M 645.931, 284.577 L 662.763, 297.376 L 561.847, 284.758 L 561.853, 282.605 z "/>
<path style="fill:rgb(243, 36, 14);fill-opacity:1.0;fill-rule:evenodd;stroke:rgb(0, 0, 0);stroke-width:3.0;" d="M 206.262, 262.975 L 190.871, 271.757 L 175.479, 266.277 L 147.465, 192.417 z "/>
<path style="fill:rgb(13, 11, 212);fill-opacity:1.0;fill-rule:evenodd;stroke:rgb(0, 0, 0);stroke-width:3.0;" d="M 780.635, 505.784 L 748.701, 515.629 L 780.428, 483.757 z "/>
<path style="fill:rgb(13, 11, 212);fill-opacity:1.0;fill-rule:evenodd;stroke:rgb(0, 0, 0);stroke-width:3.0;" d="M 784.757, 327.96 L 777.386, 334.314 L 774.083, 291.333 L 776.017, 290.736 z "/>
<path style="fill:rgb(13, 11, 212);fill-opacity:1.0;fill-rule:evenodd;stroke:rgb(0, 0, 0);stroke-width:3.0;" d="M 592.428, 332.409 L 576.416, 325.159 L 561.809, 300.415 L 561.845, 285.805 z "/>
<path style="fill:rgb(13, 11, 212);fill-opacity:1.0;fill-rule:evenodd;stroke:rgb(0, 0, 0);stroke-width:3.0;" d="M 201.234, 206.043 L 179.706, 231.106 L 167.072, 215.945 L 161.758, 190.57 z "/>
<path style="fill:rgb(13, 11, 212);fill-opacity:1.0;fill-rule:evenodd;stroke:rgb(0, 0, 0);stroke-width:3.0;" d="M 790.55, 524.636 L 771.362, 529.61 L 769.444, 529.518 L 743.454, 520.9 L 744.153, 520.198 z "/>
<path style="fill:rgb(13, 11, 212);fill-opacity:1.0;fill-rule:evenodd;stroke:rgb(0, 0, 0);stroke-width:3.0;" d="M 759.72, 424.94 L 751.627, 421.768 L 754.312, 411.515 L 763.254, 409.769 z "/>
<path style="fill:rgb(13, 11, 212);fill-opacity:1.0;fill-rule:evenodd;stroke:rgb(0, 0, 0);stroke-width:3.0;" d="M 385.587, 236.908 L 388.043, 237.721 L 392.274, 247.878 L 380.951, 248.868 L 377.218, 237.483 L 382.505, 236.798 z "/>
<path style="fill:rgb(237, 237, 14);fill-opacity:1.0;fill-rule:evenodd;stroke:rgb(0, 0, 0);stroke-width:3.0;" d="M 478.082, 280.639 L 569.26, 321.92 L 485.967, 316.227 L 440.969, 279.769 z "/>
<path style="fill:rgb(237, 237, 14);fill-opacity:1.0;fill-rule:evenodd;stroke:rgb(0, 0, 0);stroke-width:3.0;" d="M 297.981, 558.905 L 265.466, 392.558 L 268.556, 381.117 z "/>
<path style="fill:rgb(237, 237, 14);fill-opacity:1.0;fill-rule:evenodd;stroke:rgb(0, 0, 0);stroke-width:3.0;" d="M 341.937, 174.993 L 335.233, 205.573 L 328.753, 205.671 L 339.982, 171.418 z "/>
<path style="fill:rgb(255, 152, 255);fill-opacity:1.0;fill-rule:evenodd;stroke:rgb(0, 0, 0);stroke-width:3.0;" d="M 314.087, 174.684 L 311.053, 182.155 L 303.326, 180.542 L 297.674, 171.593 L 290.685, 151.473 z "/>
<path style="fill:rgb(8, 255, 21);fill-opacity:1.0;fill-rule:evenodd;stroke:rgb(0, 0, 0);stroke-width:3.0;" d="M 700.797, 584.064 L 694.497, 589.3 L 687.601, 588.109 L 681.187, 574.37 z "/>
<path style="fill:rgb(94, 27, 237);fill-opacity:1.0;fill-rule:evenodd;stroke:rgb(0, 0, 0);stroke-width:3.0;" d="M 569.26, 321.92 L 612.093, 341.312 L 575.309, 352.661 L 481.591, 315.928 z "/>
<path style="fill:rgb(255, 255, 8);fill-opacity:1.0;fill-rule:evenodd;stroke:rgb(0, 0, 0);stroke-width:3.0;" d="M 32.8641, 326.233 L 20.5683, 277.955 L 32.8679, 276.94 z "/>
<path style="fill:rgb(255, 255, 8);fill-opacity:1.0;fill-rule:evenodd;stroke:rgb(0, 0, 0);stroke-width:3.0;" d="M 137.816, 553.311 L 104.136, 585.189 L 101.305, 565.097 L 140.129, 534.625 z "/>
<path style="fill:rgb(226, 79, 36);fill-opacity:1.0;fill-rule:evenodd;stroke:rgb(0, 0, 0);stroke-width:3.0;" d="M 505.644, 383.828 L 505.064, 385.775 L 431.666, 358.22 L 427.413, 355.975 z "/>
<path style="fill:rgb(255, 92, 146);fill-opacity:1.0;fill-rule:evenodd;stroke:rgb(0, 0, 0);stroke-width:3.0;" d="M 541.759, 477.761 L 535.698, 502.452 L 499.29, 484.455 L 486.533, 449.647 z "/>
<path style="fill:rgb(255, 92, 146);fill-opacity:1.0;fill-rule:evenodd;stroke:rgb(0, 0, 0);stroke-width:3.0;" d="M 361.076, 194.019 L 349.334, 188.514 L 343.355, 177.585 L 344.977, 173.055 z "/>
<path style="fill:rgb(255, 92, 146);fill-opacity:1.0;fill-rule:evenodd;stroke:rgb(0, 0, 0);stroke-width:3.0;" d="M 390.418, 430.637 L 374.448, 473.097 L 307.268, 389.534 z "/>
<path style="fill:rgb(255, 92, 146);fill-opacity:1.0;fill-rule:evenodd;stroke:rgb(0, 0, 0);stroke-width:3.0;" d="M 439.594, 389.722 L 439.787, 396.296 L 419.818, 386.512 L 429.561, 384.073 z "/>
<path style="fill:rgb(255, 92, 146);fill-opacity:1.0;fill-rule:evenodd;stroke:rgb(0, 0, 0);stroke-width:3.0;" d="M 561.556, 426.78 L 549.506, 436.351 L 536.305, 443.585 L 524.549, 437.825 L 541.188, 427.58 L 559.902, 425.907 z "/>
<path style="fill:rgb(29, 108, 215);fill-opacity:1.0;fill-rule:evenodd;stroke:rgb(0, 0, 0);stroke-width:3.0;" d="M 607.629, 358.087 L 599.067, 357.285 L 584.124, 353.704 L 583.651, 351.841 L 586.021, 349.356 L 596.478, 346.13 z "/>
<path style="fill:rgb(255, 0, 13);fill-opacity:1.0;fill-rule:evenodd;stroke:rgb(0, 0, 0);stroke-width:3.0;" d="M 569.853, 427.347 L 568.462, 430.426 L 557.385, 424.579 L 551.007, 408.576 z "/>
<path style="fill:rgb(255, 0, 13);fill-opacity:1.0;fill-rule:evenodd;stroke:rgb(0, 0, 0);stroke-width:3.0;" d="M 180.326, 293.723 L 165.775, 292.791 L 173.467, 278.579 L 174.152, 278.552 z "/>
<path style="fill:rgb(255, 0, 13);fill-opacity:1.0;fill-rule:evenodd;stroke:rgb(0, 0, 0);stroke-width:3.0;" d="M 691.407, 477.904 L 679.12, 482.905 L 677.192, 471.722 L 684.585, 468.005 z "/>
<path style="fill:rgb(40, 21, 138);fill-opacity:1.0;fill-rule:evenodd;stroke:rgb(0, 0, 0);stroke-width:3.0;" d="M 674.544, 423.501 L 676.581, 426.34 L 669.352, 435.277 L 659.177, 431.137 L 649.141, 416.574 z "/>
<path style="fill:rgb(243, 255, 42);fill-opacity:1.0;fill-rule:evenodd;stroke:rgb(0, 0, 0);stroke-width:3.0;" d="M 563.348, 488.75 L 561.773, 507.058 L 547.108, 508.092 L 535.698, 502.452 L 536.653, 498.564 L 548.535, 481.21 z "/>
<path style="fill:rgb(240, 199, 44);fill-opacity:1.0;fill-rule:evenodd;stroke:rgb(0, 0, 0);stroke-width:3.0;" d="M 274.175, 202.649 L 303.797, 246.242 L 243.458, 222.593 L 186.492, 177.068 z "/>
<path style="fill:rgb(240, 199, 44);fill-opacity:1.0;fill-rule:evenodd;stroke:rgb(0, 0, 0);stroke-width:3.0;" d="M 248.268, 47.1228 L 249.91, 111.032 L 207.028, 68.5001 L 232.267, 26.2872 z "/>
<path style="fill:rgb(240, 199, 44);fill-opacity:1.0;fill-rule:evenodd;stroke:rgb(0, 0, 0);stroke-width:3.0;" d="M 659.091, 385.499 L 611.107, 388.023 L 614.093, 367.862 z "/>
<path style="fill:rgb(246, 255, 10);fill-opacity:1.0;fill-rule:evenodd;stroke:rgb(0, 0, 0);stroke-width:3.0;" d="M 440.969, 279.769 L 485.967, 316.227 L 481.591, 315.928 L 443.114, 300.847 L 426.669, 279.433 z "/>
<path style="fill:rgb(150, 172, 255);fill-opacity:1.0;fill-rule:evenodd;stroke:rgb(0, 0, 0);stroke-width:3.0;" d="M 272.469, 78.6376 L 250.538, 111.654 L 249.91, 111.032 L 248.268, 47.1228 z "/>
<path style="fill:rgb(150, 172, 255);fill-opacity:1.0;fill-rule:evenodd;stroke:rgb(0, 0, 0);stroke-width:3.0;" d="M 689.868, 563.381 L 688.551, 570.802 L 660.699, 564.242 L 651.447, 559.669 L 650.179, 552.908 L 650.5, 552.513 z "/>
<path style="fill:rgb(255, 255, 11);fill-opacity:1.0;fill-rule:evenodd;stroke:rgb(0, 0, 0);stroke-width:3.0;" d="M 527.905, 498.6 L 530.522, 537.126 L 455.54, 490.43 L 452.56, 481.104 L 471.837, 470.884 z "/>
<path style="fill:rgb(255, 255, 11);fill-opacity:1.0;fill-rule:evenodd;stroke:rgb(0, 0, 0);stroke-width:3.0;" d="M 349.778, 189.327 L 354.354, 219.88 L 352.729, 224.301 L 343.425, 206.96 L 347.173, 184.565 z "/>
<path style="fill:rgb(255, 130, 8);fill-opacity:1.0;fill-rule:evenodd;stroke:rgb(0, 0, 0);stroke-width:3.0;" d="M 766.514, 497.735 L 761.806, 499.453 L 744.944, 494.328 L 752.645, 483.355 L 785.908, 478.252 z "/>
<path style="fill:rgb(255, 130, 8);fill-opacity:1.0;fill-rule:evenodd;stroke:rgb(0, 0, 0);stroke-width:3.0;" d="M 235.493, 354.054 L 232.586, 411.689 L 103.86, 387.435 L 48.6755, 275.635 L 72.8199, 273.641 z "/>
<path style="fill:rgb(255, 130, 8);fill-opacity:1.0;fill-rule:evenodd;stroke:rgb(0, 0, 0);stroke-width:3.0;" d="M 204.258, 44.5126 L 202.633, 45.4598 L 194.191, 30.5814 L 198.231, 22.0721 L 202.249, 20.7387 z "/>
<path style="fill:rgb(23, 255, 237);fill-opacity:1.0;fill-rule:evenodd;stroke:rgb(0, 0, 0);stroke-width:3.0;" d="M 203.366, 406.183 L 205.027, 409.27 L 175.058, 442.082 L 167.242, 399.377 z "/>
<path style="fill:rgb(23, 255, 237);fill-opacity:1.0;fill-rule:evenodd;stroke:rgb(0, 0, 0);stroke-width:3.0;" d="M 238.149, 355.367 L 241.288, 369.57 L 233.221, 411.808 L 232.586, 411.689 L 235.493, 354.054 z "/>
<path style="fill:rgb(23, 255, 237);fill-opacity:1.0;fill-rule:evenodd;stroke:rgb(0, 0, 0);stroke-width:3.0;" d="M 121.526, 504.147 L 59.0175, 546.928 L 55.6991, 542.694 L 98.4516, 505.048 L 140.8, 489.795 z "/>
<path style="fill:rgb(23, 255, 237);fill-opacity:1.0;fill-rule:evenodd;stroke:rgb(0, 0, 0);stroke-width:3.0;" d="M 221.721, 270.548 L 208.406, 278.001 L 190.871, 271.757 L 233.161, 247.625 z "/>
<path style="fill:rgb(255, 11, 199);fill-opacity:1.0;fill-rule:evenodd;stroke:rgb(0, 0, 0);stroke-width:3.0;" d="M 731.577, 532.832 L 729.176, 532.708 L 723.643, 524.681 L 734.305, 509.489 L 766.514, 497.735 z "/>
<path style="fill:rgb(246, 255, 17);fill-opacity:1.0;fill-rule:evenodd;stroke:rgb(0, 0, 0);stroke-width:3.0;" d="M 462.631, 466.333 L 457.782, 472.767 L 447.802, 466.213 L 445.066, 457.65 z "/>
<path style="fill:rgb(246, 255, 17);fill-opacity:1.0;fill-rule:evenodd;stroke:rgb(0, 0, 0);stroke-width:3.0;" d="M 794.113, 313.78 L 787.825, 341.025 L 779.984, 307.633 z "/>
<path style="fill:rgb(18, 0, 215);fill-opacity:1.0;fill-rule:evenodd;stroke:rgb(0, 0, 0);stroke-width:3.0;" d="M 433.702, 430.726 L 408.542, 439.596 L 398.088, 434.428 L 421.99, 429.091 z "/>
<path style="fill:rgb(255, 48, 7);fill-opacity:1.0;fill-rule:evenodd;stroke:rgb(0, 0, 0);stroke-width:3.0;" d="M 340.965, 221.657 L 338.856, 234.26 L 313.826, 232.539 L 325.075, 205.727 L 341.453, 205.478 z "/>
<path style="fill:rgb(255, 48, 7);fill-opacity:1.0;fill-rule:evenodd;stroke:rgb(0, 0, 0);stroke-width:3.0;" d="M 60.8796, 549.304 L 39.7349, 565.048 L 32.6643, 564.362 L 58.0615, 545.708 z "/>
<path style="fill:rgb(234, 70, 25);fill-opacity:1.0;fill-rule:evenodd;stroke:rgb(0, 0, 0);stroke-width:3.0;" d="M 612.871, 367.383 L 612.989, 375.314 L 608.705, 404.242 L 576.123, 392.994 L 601.362, 362.872 z "/>
<path style="fill:rgb(165, 10, 255);fill-opacity:1.0;fill-rule:evenodd;stroke:rgb(0, 0, 0);stroke-width:3.0;" d="M 211.925, 514.517 L 205.172, 523.02 L 174.492, 526.948 L 172.269, 526.668 L 185.866, 513.582 z "/>
<path style="fill:rgb(165, 10, 255);fill-opacity:1.0;fill-rule:evenodd;stroke:rgb(0, 0, 0);stroke-width:3.0;" d="M 86.3901, 576.803 L 78.7111, 582.83 L 46.3197, 560.145 L 65.1256, 546.142 z "/>
<path style="fill:rgb(255, 223, 13);fill-opacity:1.0;fill-rule:evenodd;stroke:rgb(0, 0, 0);stroke-width:3.0;" d="M 391.023, 237.104 L 383.294, 236.826 L 370.706, 227.441 L 372.354, 220.865 L 373.329, 219.184 z "/>
<path style="fill:rgb(86, 204, 255);fill-opacity:1.0;fill-rule:evenodd;stroke:rgb(0, 0, 0);stroke-width:3.0;" d="M 761.806, 499.453 L 734.305, 509.489 L 744.944, 494.328 z "/>
<path style="fill:rgb(255, 48, 142);fill-opacity:1.0;fill-rule:evenodd;stroke:rgb(0, 0, 0);stroke-width:3.0;" d="M 775.357, 450.991 L 765.188, 465.482 L 688.92, 440.04 L 703.067, 431.279 z "/>
<path style="fill:rgb(255, 48, 142);fill-opacity:1.0;fill-rule:evenodd;stroke:rgb(0, 0, 0);stroke-width:3.0;" d="M 464.694, 580.487 L 408.146, 584.299 L 451.032, 526.064 z "/>
<path style="fill:rgb(94, 10, 255);fill-opacity:1.0;fill-rule:evenodd;stroke:rgb(0, 0, 0);stroke-width:3.0;" d="M 167.242, 399.377 L 175.058, 442.082 L 159.563, 459.046 L 162.855, 398.551 z "/>
<path style="fill:rgb(255, 12, 60);fill-opacity:1.0;fill-rule:evenodd;stroke:rgb(0, 0, 0);stroke-width:3.0;" d="M 787.825, 341.025 L 783.54, 359.595 L 779.857, 366.479 L 777.386, 334.314 L 784.757, 327.96 z "/>
<path style="fill:rgb(31, 76, 192);fill-opacity:1.0;fill-rule:evenodd;stroke:rgb(0, 0, 0);stroke-width:3.0;" d="M 761.499, 526.883 L 759.611, 529.045 L 740.17, 528.111 L 738.057, 526.322 L 743.454, 520.9 z "/>
<path style="fill:rgb(255, 79, 12);fill-opacity:1.0;fill-rule:evenodd;stroke:rgb(0, 0, 0);stroke-width:3.0;" d="M 361.076, 194.019 L 366.246, 200.752 L 368.881, 208.667 L 357.095, 202.703 L 349.334, 188.514 z "/>
<path style="fill:rgb(255, 9, 9);fill-opacity:1.0;fill-rule:evenodd;stroke:rgb(0, 0, 0);stroke-width:3.0;" d="M 140.129, 534.625 L 93.3542, 571.337 L 143.916, 504.029 z "/>
<path style="fill:rgb(255, 177, 11);fill-opacity:1.0;fill-rule:evenodd;stroke:rgb(0, 0, 0);stroke-width:3.0;" d="M 143.916, 504.029 L 93.3542, 571.337 L 86.3901, 576.803 L 65.1256, 546.142 L 140.8, 489.795 L 145.905, 487.956 z "/>
<path style="fill:rgb(249, 76, 194);fill-opacity:1.0;fill-rule:evenodd;stroke:rgb(0, 0, 0);stroke-width:3.0;" d="M 227.976, 451.927 L 226.315, 452.125 L 205.332, 427.835 L 209.973, 418.464 z "/>
<path style="fill:rgb(252, 61, 6);fill-opacity:1.0;fill-rule:evenodd;stroke:rgb(0, 0, 0);stroke-width:3.0;" d="M 397.692, 283.044 L 381.694, 293.56 L 373.769, 289.08 L 389.89, 279.986 z "/>
<path style="fill:rgb(252, 61, 6);fill-opacity:1.0;fill-rule:evenodd;stroke:rgb(0, 0, 0);stroke-width:3.0;" d="M 640.506, 339.071 L 641.433, 340.003 L 633.365, 353.942 L 621.548, 350.36 L 603.919, 343.834 L 622.241, 338.181 z "/>
<path style="fill:rgb(255, 252, 40);fill-opacity:1.0;fill-rule:evenodd;stroke:rgb(0, 0, 0);stroke-width:3.0;" d="M 152.015, 273.547 L 117.508, 259.955 L 119.775, 256.21 L 134.564, 252.185 z "/>
<path style="fill:rgb(204, 138, 255);fill-opacity:1.0;fill-rule:evenodd;stroke:rgb(0, 0, 0);stroke-width:3.0;" d="M 593.889, 504.298 L 593.815, 504.799 L 561.773, 507.058 L 562.406, 499.701 L 574.808, 494.585 z "/>
<path style="fill:rgb(255, 255, 25);fill-opacity:1.0;fill-rule:evenodd;stroke:rgb(0, 0, 0);stroke-width:3.0;" d="M 338.856, 234.26 L 337.689, 241.228 L 324.639, 254.411 L 307.473, 247.683 L 313.826, 232.539 z "/>
<path style="fill:rgb(249, 19, 7);fill-opacity:1.0;fill-rule:evenodd;stroke:rgb(0, 0, 0);stroke-width:3.0;" d="M 186.492, 177.068 L 243.458, 222.593 L 146.525, 184.6 L 142.371, 164.196 z "/>
<path style="fill:rgb(255, 4, 51);fill-opacity:1.0;fill-rule:evenodd;stroke:rgb(0, 0, 0);stroke-width:3.0;" d="M 251.377, 415.229 L 270.587, 502.161 L 261.534, 496.618 L 225.533, 447.385 L 203.366, 406.183 z "/>
<path style="fill:rgb(24, 246, 228);fill-opacity:1.0;fill-rule:evenodd;stroke:rgb(0, 0, 0);stroke-width:3.0;" d="M 230.425, 498.763 L 230.746, 507.563 L 222.865, 514.909 L 205.662, 514.292 L 206.844, 504.621 L 212.07, 501.569 L 227.284, 497.234 z "/>
<path style="fill:rgb(255, 49, 7);fill-opacity:1.0;fill-rule:evenodd;stroke:rgb(0, 0, 0);stroke-width:3.0;" d="M 61.8642, 518.226 L 51.3704, 522.005 L 39.7981, 515.289 L 15.0103, 481.189 z "/>
<path style="fill:rgb(249, 243, 67);fill-opacity:1.0;fill-rule:evenodd;stroke:rgb(0, 0, 0);stroke-width:3.0;" d="M 318.55, 138.643 L 305.82, 148.895 L 279.427, 140.307 L 250.538, 111.654 L 272.469, 78.6376 z "/>
<path style="fill:rgb(255, 83, 8);fill-opacity:1.0;fill-rule:evenodd;stroke:rgb(0, 0, 0);stroke-width:3.0;" d="M 705.095, 508.718 L 702.693, 516.736 L 684.342, 513.202 L 681.393, 496.095 L 695.708, 488.216 z "/>
<path style="fill:rgb(255, 83, 8);fill-opacity:1.0;fill-rule:evenodd;stroke:rgb(0, 0, 0);stroke-width:3.0;" d="M 517.44, 403.494 L 526.048, 416.583 L 528.686, 428.757 L 523.431, 432.974 L 510.084, 399.611 z "/>
<path style="fill:rgb(255, 194, 7);fill-opacity:1.0;fill-rule:evenodd;stroke:rgb(0, 0, 0);stroke-width:3.0;" d="M 674.724, 457.408 L 677.06, 470.955 L 672.448, 477.995 L 664.579, 469.962 L 662.231, 449.775 L 663.755, 442.402 z "/>
<path style="fill:rgb(126, 246, 249);fill-opacity:1.0;fill-rule:evenodd;stroke:rgb(0, 0, 0);stroke-width:3.0;" d="M 180.164, 296.504 L 180.934, 297.852 L 164.29, 318.857 L 155.408, 314.466 L 158.652, 305.951 L 164.917, 294.377 z "/>
<path style="fill:rgb(228, 25, 114);fill-opacity:1.0;fill-rule:evenodd;stroke:rgb(0, 0, 0);stroke-width:3.0;" d="M 758.76, 394.528 L 751.627, 421.768 L 725.113, 411.376 L 718.274, 392.242 L 743.795, 363.986 z "/>
<path style="fill:rgb(16, 134, 226);fill-opacity:1.0;fill-rule:evenodd;stroke:rgb(0, 0, 0);stroke-width:3.0;" d="M 161.191, 259.294 L 162.592, 264.945 L 160.022, 270.528 L 145.988, 249.786 L 149.109, 247.346 z "/>
<path style="fill:rgb(207, 0, 65);fill-opacity:1.0;fill-rule:evenodd;stroke:rgb(0, 0, 0);stroke-width:3.0;" d="M 185.866, 513.582 L 172.269, 526.668 L 141.591, 522.812 L 142.924, 512.043 z "/>
<path style="fill:rgb(29, 255, 217);fill-opacity:1.0;fill-rule:evenodd;stroke:rgb(0, 0, 0);stroke-width:3.0;" d="M 566.758, 429.526 L 567.819, 447.802 L 560.731, 455.553 L 551.363, 450.963 L 549.444, 436.4 L 561.556, 426.78 z "/>
<path style="fill:rgb(255, 2, 71);fill-opacity:1.0;fill-rule:evenodd;stroke:rgb(0, 0, 0);stroke-width:3.0;" d="M 703.067, 431.279 L 687.184, 441.115 L 674.544, 423.501 z "/>
<path style="fill:rgb(255, 255, 9);fill-opacity:1.0;fill-rule:evenodd;stroke:rgb(0, 0, 0);stroke-width:3.0;" d="M 60.8796, 549.304 L 59.0175, 546.928 L 121.526, 504.147 z "/>
<path style="fill:rgb(234, 255, 9);fill-opacity:1.0;fill-rule:evenodd;stroke:rgb(0, 0, 0);stroke-width:3.0;" d="M 771.507, 355.746 L 737.586, 351.313 L 730.922, 337.712 L 757.247, 300.914 z "/>
<path style="fill:rgb(231, 4, 165);fill-opacity:1.0;fill-rule:evenodd;stroke:rgb(0, 0, 0);stroke-width:3.0;" d="M 602.192, 448.229 L 598.376, 473.997 L 577.527, 463.783 L 568.131, 454.363 L 568.516, 430.454 z "/>
<path style="fill:rgb(228, 255, 41);fill-opacity:1.0;fill-rule:evenodd;stroke:rgb(0, 0, 0);stroke-width:3.0;" d="M 347.173, 184.565 L 346.795, 186.827 L 336.776, 205.549 L 335.233, 205.573 L 340.899, 179.728 L 344.515, 179.706 z "/>
<path style="fill:rgb(255, 2, 34);fill-opacity:1.0;fill-rule:evenodd;stroke:rgb(0, 0, 0);stroke-width:3.0;" d="M 205.899, 428.491 L 201.55, 455.083 L 191.229, 456.316 L 205.332, 427.835 z "/>
<path style="fill:rgb(9, 234, 255);fill-opacity:1.0;fill-rule:evenodd;stroke:rgb(0, 0, 0);stroke-width:3.0;" d="M 385.201, 259.512 L 387.36, 264.492 L 375.764, 268.221 L 364.052, 253.993 L 365.056, 249.986 L 367.126, 249.251 z "/>
<path style="fill:rgb(255, 184, 45);fill-opacity:1.0;fill-rule:evenodd;stroke:rgb(0, 0, 0);stroke-width:3.0;" d="M 118.83, 98.773 L 108.766, 90.3831 L 107.229, 86.3315 L 120.281, 75.1043 z "/>
<path style="fill:rgb(255, 29, 11);fill-opacity:1.0;fill-rule:evenodd;stroke:rgb(0, 0, 0);stroke-width:3.0;" d="M 278.192, 295.835 L 264.971, 298.14 L 254.491, 294.408 L 274.634, 288.492 z "/>
<path style="fill:rgb(9, 1, 255);fill-opacity:1.0;fill-rule:evenodd;stroke:rgb(0, 0, 0);stroke-width:3.0;" d="M 224.929, 38.5592 L 212.837, 45.3865 L 200.527, 51.1932 L 201.71, 45.9982 L 230.529, 29.1937 z "/>
<path style="fill:rgb(243, 246, 21);fill-opacity:1.0;fill-rule:evenodd;stroke:rgb(0, 0, 0);stroke-width:3.0;" d="M 760.388, 472.321 L 723.643, 524.681 L 720.778, 520.523 L 740.372, 464.176 z "/>
<path style="fill:rgb(12, 134, 255);fill-opacity:1.0;fill-rule:evenodd;stroke:rgb(0, 0, 0);stroke-width:3.0;" d="M 740.372, 464.176 L 720.778, 520.523 L 679.453, 460.558 L 689.242, 443.37 z "/>
</svg>