<?xml version="1.0" encoding="iso-8859-1" standalone="no"?>
<!DOCTYPE svg PUBLIC "-//W3C//DTD SVG 1.0//EN" "http://www.w3.org/TR/2001/REC-SVG-20010904/DTD/svg10.dtd">
<svg xmlns="http://www.w3.org/2000/svg" width="800" height="600">
<path style="fill:rgb(0, 0, 0);fill-opacity:0.0;fill-rule:evenodd;stroke:rgb(0, 0, 0);stroke-width:0.0;" d="M 0, 600 L 800, 600 L 800, 0 L 0, 0 z "/>
<path style="fill:rgb(255, 231, 69);fill-opacity:1.0;fill-rule:evenodd;stroke:rgb(0, 0, 0);stroke-width:3.0;" d="M 198.12, 413.023 L 165.355, 460.424 L 168.391, 397.624 L 184.043, 392.364 z "/>
<path style="fill:rgb(27, 255, 255);fill-opacity:1.0;fill-rule:evenodd;stroke:rgb(0, 0, 0);stroke-width:3.0;" d="M 167.039, 425.595 L 152.713, 432.582 L 150.603, 431.677 L 146.535, 408.52 L 167.923, 407.314 z "/>
<path style="fill:rgb(27, 255, 255);fill-opacity:1.0;fill-rule:evenodd;stroke:rgb(0, 0, 0);stroke-width:3.0;" d="M 141.116, 128.85 L 135.959, 141.604 L 127.509, 152.553 L 111.067, 156.822 L 103.32, 134.57 L 139.737, 128.52 z "/>
<path style="fill:rgb(15, 207, 243);fill-opacity:1.0;fill-rule:evenodd;stroke:rgb(0, 0, 0);stroke-width:3.0;" d="M 769.305, 203.538 L 768.601, 203.481 L 769.863, 188.397 L 771.354, 187.378 L 790.828, 183.57 z "/>
<path style="fill:rgb(15, 207, 243);fill-opacity:1.0;fill-rule:evenodd;stroke:rgb(0, 0, 0);stroke-width:3.0;" d="M 443.177, 556.874 L 412.096, 569.159 L 421.086, 534.674 z "/>
<path style="fill:rgb(15, 207, 243);fill-opacity:1.0;fill-rule:evenodd;stroke:rgb(0, 0, 0);stroke-width:3.0;" d="M 87.569, 274.615 L 76.9895, 291.231 L 66.3286, 289.405 L 66.9061, 287.637 L 79.3522, 268.499 z "/>
<path style="fill:rgb(15, 207, 243);fill-opacity:1.0;fill-rule:evenodd;stroke:rgb(0, 0, 0);stroke-width:3.0;" d="M 92.5215, 131.885 L 77.5283, 109.264 L 88.9071, 105.644 z "/>
<path style="fill:rgb(55, 24, 220);fill-opacity:1.0;fill-rule:evenodd;stroke:rgb(0, 0, 0);stroke-width:3.0;" d="M 77.2742, 403.412 L 99.5366, 514.205 L 58.8566, 390.247 z "/>
<path style="fill:rgb(226, 212, 6);fill-opacity:1.0;fill-rule:evenodd;stroke:rgb(0, 0, 0);stroke-width:3.0;" d="M 751.957, 216.554 L 753.611, 218.097 L 743.709, 227.283 L 735.704, 229.299 L 725.631, 221.092 L 734.478, 212.072 z "/>
<path style="fill:rgb(255, 134, 234);fill-opacity:1.0;fill-rule:evenodd;stroke:rgb(0, 0, 0);stroke-width:3.0;" d="M 753.777, 399.663 L 745.662, 437.324 L 732.165, 442.658 L 709.536, 387.503 z "/>
<path style="fill:rgb(255, 134, 234);fill-opacity:1.0;fill-rule:evenodd;stroke:rgb(0, 0, 0);stroke-width:3.0;" d="M 722.815, 535.553 L 723.677, 536.811 L 713.068, 547.874 L 681.533, 530.188 z "/>
<path style="fill:rgb(231, 249, 12);fill-opacity:1.0;fill-rule:evenodd;stroke:rgb(0, 0, 0);stroke-width:3.0;" d="M 657.717, 467.94 L 517.811, 436.856 L 560.903, 396.878 z "/>
<path style="fill:rgb(226, 32, 226);fill-opacity:1.0;fill-rule:evenodd;stroke:rgb(0, 0, 0);stroke-width:3.0;" d="M 92.5215, 131.885 L 92.8538, 134.298 L 70.9763, 142.336 L 29.7205, 124.475 L 77.5283, 109.264 z "/>
<path style="fill:rgb(226, 32, 226);fill-opacity:1.0;fill-rule:evenodd;stroke:rgb(0, 0, 0);stroke-width:3.0;" d="M 779.912, 387.873 L 784.814, 393.668 L 787.486, 420.794 L 756.163, 433.173 L 776.702, 387.288 z "/>
<path style="fill:rgb(226, 32, 226);fill-opacity:1.0;fill-rule:evenodd;stroke:rgb(0, 0, 0);stroke-width:3.0;" d="M 328.448, 567.509 L 343.758, 593.663 L 318.456, 589.613 L 289.175, 546.644 z "/>
<path style="fill:rgb(226, 32, 226);fill-opacity:1.0;fill-rule:evenodd;stroke:rgb(0, 0, 0);stroke-width:3.0;" d="M 656.735, 133.578 L 648.035, 143.066 L 647.567, 142.849 L 634.313, 90.6266 z "/>
<path style="fill:rgb(226, 32, 226);fill-opacity:1.0;fill-rule:evenodd;stroke:rgb(0, 0, 0);stroke-width:3.0;" d="M 342.358, 483.282 L 346.643, 485.956 L 332.86, 502.073 L 312.796, 477.664 z "/>
<path style="fill:rgb(226, 32, 226);fill-opacity:1.0;fill-rule:evenodd;stroke:rgb(0, 0, 0);stroke-width:3.0;" d="M 294.75, 558.862 L 183.03, 479.005 L 191.745, 462.348 z "/>
<path style="fill:rgb(243, 23, 37);fill-opacity:1.0;fill-rule:evenodd;stroke:rgb(0, 0, 0);stroke-width:3.0;" d="M 74.7641, 220.893 L 42.9722, 262.085 L 38.7204, 263.152 L 42.7678, 163.105 z "/>
<path style="fill:rgb(220, 146, 255);fill-opacity:1.0;fill-rule:evenodd;stroke:rgb(0, 0, 0);stroke-width:3.0;" d="M 49.799, 100.02 L 48.0925, 118.63 L 44.4621, 119.785 L 34.0022, 116.578 L 39.3747, 99.6882 z "/>
<path style="fill:rgb(51, 246, 255);fill-opacity:1.0;fill-rule:evenodd;stroke:rgb(0, 0, 0);stroke-width:3.0;" d="M 293.472, 454.156 L 350.522, 523.558 L 327.189, 533.87 L 276.257, 527.688 L 216.457, 439.931 z "/>
<path style="fill:rgb(51, 246, 255);fill-opacity:1.0;fill-rule:evenodd;stroke:rgb(0, 0, 0);stroke-width:3.0;" d="M 560.813, 514.499 L 559.399, 522.583 L 547.605, 532.847 L 547.42, 515.675 L 552.973, 513.48 z "/>
<path style="fill:rgb(51, 246, 255);fill-opacity:1.0;fill-rule:evenodd;stroke:rgb(0, 0, 0);stroke-width:3.0;" d="M 175.291, 42.8334 L 174.999, 43.6393 L 108.845, 42.507 L 107.47, 41.1056 L 108.261, 37.612 L 121.34, 37.1973 z "/>
<path style="fill:rgb(51, 246, 255);fill-opacity:1.0;fill-rule:evenodd;stroke:rgb(0, 0, 0);stroke-width:3.0;" d="M 710.482, 305.792 L 693.268, 301.146 L 681.21, 285.266 L 687.883, 279.075 z "/>
<path style="fill:rgb(255, 5, 207);fill-opacity:1.0;fill-rule:evenodd;stroke:rgb(0, 0, 0);stroke-width:3.0;" d="M 789.89, 556.849 L 783.704, 559.382 L 774.77, 552.893 L 777.182, 550.876 L 785.39, 546.536 z "/>
<path style="fill:rgb(255, 5, 207);fill-opacity:1.0;fill-rule:evenodd;stroke:rgb(0, 0, 0);stroke-width:3.0;" d="M 100.226, 129.898 L 102.563, 132.394 L 111.344, 157.619 L 101.563, 147.78 L 99.1232, 131.61 L 100.173, 129.886 z "/>
<path style="fill:rgb(255, 45, 13);fill-opacity:1.0;fill-rule:evenodd;stroke:rgb(0, 0, 0);stroke-width:3.0;" d="M 72.7712, 325.854 L 70.5842, 331.891 L 52.1013, 332.948 L 60.8435, 306.192 L 64.945, 299.278 z "/>
<path style="fill:rgb(255, 45, 13);fill-opacity:1.0;fill-rule:evenodd;stroke:rgb(0, 0, 0);stroke-width:3.0;" d="M 750.875, 324.807 L 743.427, 334.06 L 735.731, 335.641 L 728.84, 327.494 L 750.196, 324.685 z "/>
<path style="fill:rgb(255, 45, 13);fill-opacity:1.0;fill-rule:evenodd;stroke:rgb(0, 0, 0);stroke-width:3.0;" d="M 147.441, 84.7361 L 156.605, 94.4172 L 156.492, 94.7285 L 119.013, 76.7408 L 121.073, 76.2481 z "/>
<path style="fill:rgb(217, 0, 8);fill-opacity:1.0;fill-rule:evenodd;stroke:rgb(0, 0, 0);stroke-width:3.0;" d="M 698.403, 335.259 L 701.163, 342.336 L 694.956, 351.965 L 685.271, 328.36 z "/>
<path style="fill:rgb(246, 29, 255);fill-opacity:1.0;fill-rule:evenodd;stroke:rgb(0, 0, 0);stroke-width:3.0;" d="M 93.6019, 139.729 L 48.5154, 160.914 L 46.8144, 151.214 L 92.8538, 134.298 z "/>
<path style="fill:rgb(246, 29, 255);fill-opacity:1.0;fill-rule:evenodd;stroke:rgb(0, 0, 0);stroke-width:3.0;" d="M 757.677, 92.6253 L 717.902, 86.9962 L 749.635, 80.8273 z "/>
<path style="fill:rgb(246, 29, 255);fill-opacity:1.0;fill-rule:evenodd;stroke:rgb(0, 0, 0);stroke-width:3.0;" d="M 38.4089, 85.9082 L 37.5577, 90.1903 L 36.571, 90.2593 L 12.3872, 70.5285 L 9.61984, 60.049 L 15.044, 56.514 z "/>
<path style="fill:rgb(255, 255, 32);fill-opacity:1.0;fill-rule:evenodd;stroke:rgb(0, 0, 0);stroke-width:3.0;" d="M 233.483, 443.076 L 216.457, 439.931 L 129.54, 312.383 L 253.602, 291.605 z "/>
<path style="fill:rgb(255, 255, 32);fill-opacity:1.0;fill-rule:evenodd;stroke:rgb(0, 0, 0);stroke-width:3.0;" d="M 745.115, 359.802 L 736.179, 379.904 L 711.723, 375.447 L 712.563, 342.699 z "/>
<path style="fill:rgb(255, 255, 32);fill-opacity:1.0;fill-rule:evenodd;stroke:rgb(0, 0, 0);stroke-width:3.0;" d="M 405.406, 474.831 L 412.041, 478.296 L 412.82, 483.651 L 405.267, 484.064 L 388.394, 482.244 L 391.746, 472.308 z "/>
<path style="fill:rgb(255, 255, 32);fill-opacity:1.0;fill-rule:evenodd;stroke:rgb(0, 0, 0);stroke-width:3.0;" d="M 605.419, 355.579 L 615.571, 333.302 L 620.399, 328.38 L 637.326, 317.683 L 652.438, 311.959 z "/>
<path style="fill:rgb(255, 255, 32);fill-opacity:1.0;fill-rule:evenodd;stroke:rgb(0, 0, 0);stroke-width:3.0;" d="M 789.219, 331.65 L 787.594, 341.729 L 767.551, 327.783 z "/>
<path style="fill:rgb(255, 255, 32);fill-opacity:1.0;fill-rule:evenodd;stroke:rgb(0, 0, 0);stroke-width:3.0;" d="M 468.578, 543.161 L 467.774, 547.153 L 454.01, 552.593 L 452.393, 542.291 L 455.949, 538.507 z "/>
<path style="fill:rgb(255, 255, 32);fill-opacity:1.0;fill-rule:evenodd;stroke:rgb(0, 0, 0);stroke-width:3.0;" d="M 769.305, 203.538 L 753.611, 218.097 L 740.536, 205.896 L 744.783, 201.566 z "/>
<path style="fill:rgb(255, 252, 39);fill-opacity:1.0;fill-rule:evenodd;stroke:rgb(0, 0, 0);stroke-width:3.0;" d="M 714.869, 247.178 L 714.646, 252.966 L 710.752, 257.858 L 700.269, 267.584 L 701.014, 246.932 L 705.487, 243.938 z "/>
<path style="fill:rgb(255, 192, 29);fill-opacity:1.0;fill-rule:evenodd;stroke:rgb(0, 0, 0);stroke-width:3.0;" d="M 741.68, 236.395 L 730.342, 250.222 L 721.645, 259.098 L 716.651, 252.386 L 739.4, 231.281 z "/>
<path style="fill:rgb(255, 192, 29);fill-opacity:1.0;fill-rule:evenodd;stroke:rgb(0, 0, 0);stroke-width:3.0;" d="M 37.3144, 423.738 L 19.9711, 471.616 L 8.4112, 466.663 L 24.3029, 418.026 z "/>
<path style="fill:rgb(255, 192, 29);fill-opacity:1.0;fill-rule:evenodd;stroke:rgb(0, 0, 0);stroke-width:3.0;" d="M 770.87, 460.141 L 788.693, 487.458 L 781.916, 491.138 L 763.908, 474.997 L 762.271, 457.586 z "/>
<path style="fill:rgb(14, 217, 234);fill-opacity:1.0;fill-rule:evenodd;stroke:rgb(0, 0, 0);stroke-width:3.0;" d="M 40.7268, 315.11 L 51.3696, 335.187 L 46.8187, 349.116 L 17.4452, 333.031 L 35.7924, 311.089 z "/>
<path style="fill:rgb(14, 217, 234);fill-opacity:1.0;fill-rule:evenodd;stroke:rgb(0, 0, 0);stroke-width:3.0;" d="M 104.049, 37.6202 L 112.804, 46.5403 L 111.071, 54.8348 L 100.646, 47.3794 L 101.064, 37.5868 z "/>
<path style="fill:rgb(14, 217, 234);fill-opacity:1.0;fill-rule:evenodd;stroke:rgb(0, 0, 0);stroke-width:3.0;" d="M 296.618, 454.737 L 342.358, 483.282 L 312.796, 477.664 L 293.472, 454.156 z "/>
<path style="fill:rgb(14, 217, 234);fill-opacity:1.0;fill-rule:evenodd;stroke:rgb(0, 0, 0);stroke-width:3.0;" d="M 103.699, 375.203 L 103.431, 419.035 L 80.7694, 405.604 L 103.485, 368.298 z "/>
<path style="fill:rgb(38, 7, 243);fill-opacity:1.0;fill-rule:evenodd;stroke:rgb(0, 0, 0);stroke-width:3.0;" d="M 82.9339, 62.2772 L 62.7846, 59.8264 L 66.5556, 56.1117 L 81.8709, 54.5592 z "/>
<path style="fill:rgb(38, 7, 243);fill-opacity:1.0;fill-rule:evenodd;stroke:rgb(0, 0, 0);stroke-width:3.0;" d="M 357.225, 480.396 L 349.548, 487.77 L 334.941, 478.653 L 341.376, 463.571 z "/>
<path style="fill:rgb(38, 7, 243);fill-opacity:1.0;fill-rule:evenodd;stroke:rgb(0, 0, 0);stroke-width:3.0;" d="M 281.62, 528.339 L 337.937, 572.55 L 289.175, 546.644 L 276.257, 527.688 z "/>
<path style="fill:rgb(86, 249, 95);fill-opacity:1.0;fill-rule:evenodd;stroke:rgb(0, 0, 0);stroke-width:3.0;" d="M 58.8566, 390.247 L 62.255, 400.603 L 62.4774, 431.633 L 48.487, 392.894 L 51.3813, 384.904 z "/>
<path style="fill:rgb(25, 7, 175);fill-opacity:1.0;fill-rule:evenodd;stroke:rgb(0, 0, 0);stroke-width:3.0;" d="M 228.377, 461.481 L 208.589, 478.13 L 206.136, 475.832 L 220.372, 457.989 z "/>
<path style="fill:rgb(25, 7, 175);fill-opacity:1.0;fill-rule:evenodd;stroke:rgb(0, 0, 0);stroke-width:3.0;" d="M 577.77, 545.34 L 562.228, 541.442 L 572.532, 521.16 z "/>
<path style="fill:rgb(25, 7, 175);fill-opacity:1.0;fill-rule:evenodd;stroke:rgb(0, 0, 0);stroke-width:3.0;" d="M 761.176, 446.658 L 757.599, 456.197 L 735.659, 449.677 L 729.155, 443.848 L 750.806, 435.291 z "/>
<path style="fill:rgb(25, 7, 175);fill-opacity:1.0;fill-rule:evenodd;stroke:rgb(0, 0, 0);stroke-width:3.0;" d="M 113.644, 557.194 L 109.441, 561.676 L 62.4774, 431.633 L 62.255, 400.603 z "/>
<path style="fill:rgb(24, 3, 252);fill-opacity:1.0;fill-rule:evenodd;stroke:rgb(0, 0, 0);stroke-width:3.0;" d="M 76.8456, 400.255 L 76.4591, 402.829 L 51.3813, 384.904 L 55.018, 374.864 z "/>
<path style="fill:rgb(24, 3, 252);fill-opacity:1.0;fill-rule:evenodd;stroke:rgb(0, 0, 0);stroke-width:3.0;" d="M 183.03, 479.005 L 171.632, 470.858 L 175.426, 454.343 L 196.083, 454.057 z "/>
<path style="fill:rgb(24, 3, 252);fill-opacity:1.0;fill-rule:evenodd;stroke:rgb(0, 0, 0);stroke-width:3.0;" d="M 180.51, 387.18 L 143.533, 373.056 L 91.0733, 275.328 L 95.6604, 262.665 z "/>
<path style="fill:rgb(24, 3, 252);fill-opacity:1.0;fill-rule:evenodd;stroke:rgb(0, 0, 0);stroke-width:3.0;" d="M 122.607, 175.303 L 88.7518, 241.517 L 82.4854, 239.956 L 98.9558, 189.548 L 116.297, 167.08 z "/>
<path style="fill:rgb(24, 3, 252);fill-opacity:1.0;fill-rule:evenodd;stroke:rgb(0, 0, 0);stroke-width:3.0;" d="M 94.311, 144.877 L 73.3224, 156.979 L 48.5862, 161.317 L 48.5154, 160.914 L 93.6019, 139.729 z "/>
<path style="fill:rgb(24, 3, 252);fill-opacity:1.0;fill-rule:evenodd;stroke:rgb(0, 0, 0);stroke-width:3.0;" d="M 421.086, 534.674 L 412.096, 569.159 L 366.595, 587.142 L 419.56, 533.142 z "/>
<path style="fill:rgb(24, 3, 252);fill-opacity:1.0;fill-rule:evenodd;stroke:rgb(0, 0, 0);stroke-width:3.0;" d="M 209.112, 429.153 L 199.761, 447.027 L 180.617, 454.271 L 175.426, 454.343 L 178.347, 441.628 L 198.12, 413.023 z "/>
<path style="fill:rgb(24, 3, 252);fill-opacity:1.0;fill-rule:evenodd;stroke:rgb(0, 0, 0);stroke-width:3.0;" d="M 224.897, 452.318 L 212.203, 468.227 L 199.165, 452.666 L 218.428, 442.824 z "/>
<path style="fill:rgb(24, 3, 252);fill-opacity:1.0;fill-rule:evenodd;stroke:rgb(0, 0, 0);stroke-width:3.0;" d="M 100.235, 187.89 L 74.7641, 220.893 L 51.742, 179.313 L 50.1667, 170.33 L 94.311, 144.877 z "/>
<path style="fill:rgb(192, 1, 41);fill-opacity:1.0;fill-rule:evenodd;stroke:rgb(0, 0, 0);stroke-width:3.0;" d="M 774.723, 542.299 L 767.017, 552.541 L 746.384, 566.559 L 742.613, 564.444 L 722.815, 535.553 z "/>
<path style="fill:rgb(150, 0, 25);fill-opacity:1.0;fill-rule:evenodd;stroke:rgb(0, 0, 0);stroke-width:3.0;" d="M 75.3967, 29.322 L 70.2788, 44.3059 L 61.3116, 37.7521 L 69.5224, 25.1209 z "/>
<path style="fill:rgb(150, 0, 25);fill-opacity:1.0;fill-rule:evenodd;stroke:rgb(0, 0, 0);stroke-width:3.0;" d="M 505.143, 57.0692 L 469.156, 45.2723 L 457.215, 13.1268 z "/>
<path style="fill:rgb(252, 134, 35);fill-opacity:1.0;fill-rule:evenodd;stroke:rgb(0, 0, 0);stroke-width:3.0;" d="M 114.611, 210.349 L 102.115, 244.846 L 88.7518, 241.517 L 115.032, 190.119 z "/>
<path style="fill:rgb(252, 134, 35);fill-opacity:1.0;fill-rule:evenodd;stroke:rgb(0, 0, 0);stroke-width:3.0;" d="M 32.8123, 308.661 L 32.5672, 314.946 L 30.7014, 317.178 L 10.9238, 303.61 L 16.9806, 295.762 z "/>
<path style="fill:rgb(252, 134, 35);fill-opacity:1.0;fill-rule:evenodd;stroke:rgb(0, 0, 0);stroke-width:3.0;" d="M 70.488, 44.4588 L 53.6775, 58.7186 L 18.2697, 54.4118 L 53.0725, 31.7305 z "/>
<path style="fill:rgb(28, 255, 204);fill-opacity:1.0;fill-rule:evenodd;stroke:rgb(0, 0, 0);stroke-width:3.0;" d="M 83.71, 236.208 L 71.5385, 225.072 L 98.9558, 189.548 z "/>
<path style="fill:rgb(16, 255, 255);fill-opacity:1.0;fill-rule:evenodd;stroke:rgb(0, 0, 0);stroke-width:3.0;" d="M 758.37, 62.1549 L 758.766, 76.0189 L 738.703, 44.1948 L 738.888, 43.992 z "/>
<path style="fill:rgb(16, 255, 255);fill-opacity:1.0;fill-rule:evenodd;stroke:rgb(0, 0, 0);stroke-width:3.0;" d="M 84.7052, 93.1613 L 56.9099, 107.411 L 50.285, 96.1602 L 50.2785, 94.7917 L 50.5478, 91.8549 L 67.4334, 91.0396 z "/>
<path style="fill:rgb(10, 2, 255);fill-opacity:1.0;fill-rule:evenodd;stroke:rgb(0, 0, 0);stroke-width:3.0;" d="M 71.4606, 273.698 L 54.3129, 326.179 L 37.6695, 312.619 L 38.6159, 267.73 L 60.7993, 238.987 z "/>
<path style="fill:rgb(10, 2, 255);fill-opacity:1.0;fill-rule:evenodd;stroke:rgb(0, 0, 0);stroke-width:3.0;" d="M 242.984, 478.859 L 233.278, 501.264 L 208.589, 478.13 L 230.134, 460.002 z "/>
<path style="fill:rgb(10, 2, 255);fill-opacity:1.0;fill-rule:evenodd;stroke:rgb(0, 0, 0);stroke-width:3.0;" d="M 732.165, 442.658 L 698.723, 455.875 L 709.157, 448.706 L 730.507, 438.618 z "/>
<path style="fill:rgb(10, 2, 255);fill-opacity:1.0;fill-rule:evenodd;stroke:rgb(0, 0, 0);stroke-width:3.0;" d="M 87.2305, 93.4715 L 87.4511, 95.0729 L 67.3044, 112.517 L 65.62, 113.053 L 61.9674, 110.804 L 58.1833, 106.758 L 84.7052, 93.1613 z "/>
<path style="fill:rgb(246, 237, 11);fill-opacity:1.0;fill-rule:evenodd;stroke:rgb(0, 0, 0);stroke-width:3.0;" d="M 42.2986, 174.702 L 38.7204, 263.152 L 26.3622, 266.251 L 24.2512, 263.351 L 24.3549, 159.466 L 25.7861, 158.94 z "/>
<path style="fill:rgb(234, 27, 234);fill-opacity:1.0;fill-rule:evenodd;stroke:rgb(0, 0, 0);stroke-width:3.0;" d="M 709.106, 85.7514 L 706.366, 103.068 L 691.45, 95.7227 L 701.571, 84.6852 z "/>
<path style="fill:rgb(234, 27, 234);fill-opacity:1.0;fill-rule:evenodd;stroke:rgb(0, 0, 0);stroke-width:3.0;" d="M 115.448, 416.603 L 152.713, 432.582 L 138.816, 439.359 L 109.413, 417.444 L 112.692, 416.342 z "/>
<path style="fill:rgb(255, 220, 13);fill-opacity:1.0;fill-rule:evenodd;stroke:rgb(0, 0, 0);stroke-width:3.0;" d="M 696.189, 354.972 L 634.304, 450.755 L 560.903, 396.878 L 569.005, 389.361 L 695.615, 353.571 z "/>
<path style="fill:rgb(255, 220, 13);fill-opacity:1.0;fill-rule:evenodd;stroke:rgb(0, 0, 0);stroke-width:3.0;" d="M 85.3958, 80.1507 L 86.767, 90.1062 L 62.2914, 91.2879 L 43.7612, 84.7624 L 73.4044, 73.1205 z "/>
<path style="fill:rgb(255, 220, 13);fill-opacity:1.0;fill-rule:evenodd;stroke:rgb(0, 0, 0);stroke-width:3.0;" d="M 413.106, 539.722 L 388.457, 564.853 L 361.959, 504.83 L 366.422, 490.16 z "/>
<path style="fill:rgb(255, 220, 13);fill-opacity:1.0;fill-rule:evenodd;stroke:rgb(0, 0, 0);stroke-width:3.0;" d="M 102.115, 244.846 L 91.5842, 273.918 L 88.9334, 275.63 L 74.3708, 264.791 L 82.4854, 239.956 z "/>
<path style="fill:rgb(234, 184, 168);fill-opacity:1.0;fill-rule:evenodd;stroke:rgb(0, 0, 0);stroke-width:3.0;" d="M 761.943, 81.0574 L 759.792, 86.47 L 725.681, 58.3944 L 738.703, 44.1948 z "/>
<path style="fill:rgb(243, 209, 11);fill-opacity:1.0;fill-rule:evenodd;stroke:rgb(0, 0, 0);stroke-width:3.0;" d="M 180.666, 27.9951 L 175.291, 42.8334 L 101.611, 35.1362 L 79.1814, 12.2844 L 95.6342, 5.72925 z "/>
<path style="fill:rgb(243, 209, 11);fill-opacity:1.0;fill-rule:evenodd;stroke:rgb(0, 0, 0);stroke-width:3.0;" d="M 776.702, 387.288 L 769.258, 403.918 L 709.536, 387.503 L 704.013, 374.042 z "/>
<path style="fill:rgb(140, 140, 255);fill-opacity:1.0;fill-rule:evenodd;stroke:rgb(0, 0, 0);stroke-width:3.0;" d="M 110.96, 42.5432 L 115.872, 44.1606 L 160.286, 63.9223 L 160.375, 64.6129 L 118.476, 52.3191 L 108.845, 42.507 z "/>
<path style="fill:rgb(255, 4, 117);fill-opacity:1.0;fill-rule:evenodd;stroke:rgb(0, 0, 0);stroke-width:3.0;" d="M 776.647, 202.96 L 761.893, 218.02 L 755.38, 219.688 L 766.462, 206.175 L 790.704, 183.685 z "/>
<path style="fill:rgb(255, 4, 117);fill-opacity:1.0;fill-rule:evenodd;stroke:rgb(0, 0, 0);stroke-width:3.0;" d="M 451.544, 536.883 L 454.01, 552.593 L 443.177, 556.874 L 419.56, 533.142 L 425.358, 527.231 z "/>
<path style="fill:rgb(81, 0, 255);fill-opacity:1.0;fill-rule:evenodd;stroke:rgb(0, 0, 0);stroke-width:3.0;" d="M 340.73, 462.885 L 341.376, 463.571 L 334.941, 478.653 L 322.8, 471.077 L 337.18, 462.229 z "/>
<path style="fill:rgb(81, 0, 255);fill-opacity:1.0;fill-rule:evenodd;stroke:rgb(0, 0, 0);stroke-width:3.0;" d="M 92.3568, 41.4513 L 74.366, 47.293 L 70.2788, 44.3059 L 75.3967, 29.322 z "/>
<path style="fill:rgb(249, 24, 255);fill-opacity:1.0;fill-rule:evenodd;stroke:rgb(0, 0, 0);stroke-width:3.0;" d="M 150.603, 431.677 L 113.896, 415.937 L 133.834, 409.237 L 146.535, 408.52 z "/>
<path style="fill:rgb(249, 24, 255);fill-opacity:1.0;fill-rule:evenodd;stroke:rgb(0, 0, 0);stroke-width:3.0;" d="M 107.596, 153.848 L 96.3098, 159.389 L 94.5447, 146.574 L 99.4832, 145.687 z "/>
<path style="fill:rgb(194, 11, 79);fill-opacity:1.0;fill-rule:evenodd;stroke:rgb(0, 0, 0);stroke-width:3.0;" d="M 712.563, 342.699 L 711.814, 371.895 L 695.544, 353.399 L 694.956, 351.965 L 703.873, 338.133 z "/>
<path style="fill:rgb(194, 11, 79);fill-opacity:1.0;fill-rule:evenodd;stroke:rgb(0, 0, 0);stroke-width:3.0;" d="M 130.985, 394.998 L 104.463, 399.859 L 103.485, 368.298 L 107.049, 362.444 z "/>
<path style="fill:rgb(163, 170, 252);fill-opacity:1.0;fill-rule:evenodd;stroke:rgb(0, 0, 0);stroke-width:3.0;" d="M 772.557, 135.664 L 758.89, 187.183 L 753.979, 192.19 L 648.035, 143.066 L 691.45, 95.7227 z "/>
<path style="fill:rgb(18, 231, 255);fill-opacity:1.0;fill-rule:evenodd;stroke:rgb(0, 0, 0);stroke-width:3.0;" d="M 461.724, 490.155 L 430.174, 522.321 L 356.447, 478.798 z "/>
<path style="fill:rgb(25, 243, 255);fill-opacity:1.0;fill-rule:evenodd;stroke:rgb(0, 0, 0);stroke-width:3.0;" d="M 380.106, 559.549 L 365.445, 559.469 L 360.387, 548.758 L 369.442, 546.575 z "/>
<path style="fill:rgb(255, 255, 19);fill-opacity:1.0;fill-rule:evenodd;stroke:rgb(0, 0, 0);stroke-width:3.0;" d="M 505.143, 57.0692 L 548.707, 97.009 L 429.306, 41.6451 L 430.908, 32.7348 z "/>
<path style="fill:rgb(252, 255, 38);fill-opacity:1.0;fill-rule:evenodd;stroke:rgb(0, 0, 0);stroke-width:3.0;" d="M 695.615, 353.571 L 569.005, 389.361 L 628.534, 334.134 L 686.741, 331.941 z "/>
<path style="fill:rgb(24, 56, 255);fill-opacity:1.0;fill-rule:evenodd;stroke:rgb(0, 0, 0);stroke-width:3.0;" d="M 686.741, 331.941 L 628.534, 334.134 L 671.345, 294.417 z "/>
<path style="fill:rgb(255, 105, 58);fill-opacity:1.0;fill-rule:evenodd;stroke:rgb(0, 0, 0);stroke-width:3.0;" d="M 769.258, 403.918 L 756.163, 433.173 L 745.662, 437.324 L 753.777, 399.663 z "/>
<path style="fill:rgb(255, 105, 58);fill-opacity:1.0;fill-rule:evenodd;stroke:rgb(0, 0, 0);stroke-width:3.0;" d="M 571.386, 515.873 L 572.532, 521.16 L 562.228, 541.442 L 547.659, 537.788 L 547.605, 532.847 L 567.664, 515.389 z "/>
<path style="fill:rgb(255, 105, 58);fill-opacity:1.0;fill-rule:evenodd;stroke:rgb(0, 0, 0);stroke-width:3.0;" d="M 778.562, 240.393 L 696.7, 289.499 L 694.458, 286.848 L 763.35, 216.532 z "/>
<path style="fill:rgb(255, 58, 189);fill-opacity:1.0;fill-rule:evenodd;stroke:rgb(0, 0, 0);stroke-width:3.0;" d="M 76.9895, 291.231 L 67.1337, 306.71 L 64.0716, 296.312 L 66.3286, 289.405 z "/>
<path style="fill:rgb(255, 58, 189);fill-opacity:1.0;fill-rule:evenodd;stroke:rgb(0, 0, 0);stroke-width:3.0;" d="M 37.6695, 312.619 L 16.9806, 295.762 L 38.6159, 267.73 z "/>
<path style="fill:rgb(21, 252, 234);fill-opacity:1.0;fill-rule:evenodd;stroke:rgb(0, 0, 0);stroke-width:3.0;" d="M 744.323, 38.0659 L 721.557, 62.892 L 716.242, 26.7996 z "/>
<path style="fill:rgb(243, 255, 7);fill-opacity:1.0;fill-rule:evenodd;stroke:rgb(0, 0, 0);stroke-width:3.0;" d="M 212.203, 468.227 L 207.928, 473.585 L 196.398, 456.603 L 196.237, 453.762 L 197.715, 450.937 z "/>
<path style="fill:rgb(255, 43, 17);fill-opacity:1.0;fill-rule:evenodd;stroke:rgb(0, 0, 0);stroke-width:3.0;" d="M 218.428, 442.824 L 199.165, 452.666 L 197.715, 450.937 L 209.112, 429.153 z "/>
<path style="fill:rgb(255, 43, 17);fill-opacity:1.0;fill-rule:evenodd;stroke:rgb(0, 0, 0);stroke-width:3.0;" d="M 106.815, 424.528 L 117.778, 485.553 L 94.4615, 488.948 L 77.2742, 403.412 z "/>
<path style="fill:rgb(255, 255, 57);fill-opacity:1.0;fill-rule:evenodd;stroke:rgb(0, 0, 0);stroke-width:3.0;" d="M 624.683, 324.012 L 465.811, 485.987 L 233.483, 443.076 L 250.459, 315.271 z "/>
<path style="fill:rgb(31, 226, 255);fill-opacity:1.0;fill-rule:evenodd;stroke:rgb(0, 0, 0);stroke-width:3.0;" d="M 374.639, 578.94 L 362.214, 591.608 L 355.583, 586.403 L 353.135, 579.249 L 371.504, 572.301 z "/>
<path style="fill:rgb(192, 3, 255);fill-opacity:1.0;fill-rule:evenodd;stroke:rgb(0, 0, 0);stroke-width:3.0;" d="M 337.937, 572.55 L 362.214, 591.608 L 360.51, 593.345 L 342.293, 591.16 L 328.448, 567.509 z "/>
<path style="fill:rgb(192, 3, 255);fill-opacity:1.0;fill-rule:evenodd;stroke:rgb(0, 0, 0);stroke-width:3.0;" d="M 339.398, 535.352 L 357.728, 549.399 L 344.051, 552.697 L 338.061, 535.19 z "/>
<path style="fill:rgb(192, 3, 255);fill-opacity:1.0;fill-rule:evenodd;stroke:rgb(0, 0, 0);stroke-width:3.0;" d="M 122.11, 82.187 L 111.018, 95.6394 L 107.666, 89.845 L 107.049, 74.1766 L 108.483, 72.2281 z "/>
<path style="fill:rgb(255, 246, 19);fill-opacity:1.0;fill-rule:evenodd;stroke:rgb(0, 0, 0);stroke-width:3.0;" d="M 37.3144, 423.738 L 29.334, 420.234 L 45.686, 352.582 L 52.1013, 332.948 L 70.5842, 331.891 z "/>
<path style="fill:rgb(255, 246, 19);fill-opacity:1.0;fill-rule:evenodd;stroke:rgb(0, 0, 0);stroke-width:3.0;" d="M 664.426, 469.43 L 549.755, 514.752 L 552.021, 444.457 z "/>
<path style="fill:rgb(146, 234, 255);fill-opacity:1.0;fill-rule:evenodd;stroke:rgb(0, 0, 0);stroke-width:3.0;" d="M 547.595, 531.885 L 532.244, 533.196 L 537.899, 519.438 L 547.42, 515.675 z "/>
<path style="fill:rgb(255, 36, 15);fill-opacity:1.0;fill-rule:evenodd;stroke:rgb(0, 0, 0);stroke-width:3.0;" d="M 96.2699, 355.004 L 104.251, 367.04 L 99.9393, 374.121 L 67.5623, 359.675 L 78.2644, 348.127 z "/>
<path style="fill:rgb(255, 246, 32);fill-opacity:1.0;fill-rule:evenodd;stroke:rgb(0, 0, 0);stroke-width:3.0;" d="M 262.974, 315.563 L 250.459, 315.271 L 253.602, 291.605 L 668.392, 222.138 z "/>
<path style="fill:rgb(255, 246, 32);fill-opacity:1.0;fill-rule:evenodd;stroke:rgb(0, 0, 0);stroke-width:3.0;" d="M 124.299, 461.26 L 125.713, 484.397 L 117.778, 485.553 L 111.086, 448.302 z "/>
<path style="fill:rgb(249, 8, 150);fill-opacity:1.0;fill-rule:evenodd;stroke:rgb(0, 0, 0);stroke-width:3.0;" d="M 180.51, 387.18 L 184.043, 392.364 L 156.024, 401.78 L 119.474, 379.342 L 103.653, 357.824 z "/>
<path style="fill:rgb(249, 8, 150);fill-opacity:1.0;fill-rule:evenodd;stroke:rgb(0, 0, 0);stroke-width:3.0;" d="M 787.594, 341.729 L 784.127, 363.231 L 768.459, 369.977 L 760.67, 365.124 L 758.932, 363.07 L 786.293, 340.824 z "/>
<path style="fill:rgb(249, 8, 150);fill-opacity:1.0;fill-rule:evenodd;stroke:rgb(0, 0, 0);stroke-width:3.0;" d="M 388.457, 564.853 L 386.286, 567.066 L 372.981, 550.88 L 381.227, 548.476 z "/>
<path style="fill:rgb(249, 8, 150);fill-opacity:1.0;fill-rule:evenodd;stroke:rgb(0, 0, 0);stroke-width:3.0;" d="M 143.533, 373.056 L 138.875, 371.277 L 104.334, 323.784 L 108.33, 307.477 z "/>
<path style="fill:rgb(249, 8, 150);fill-opacity:1.0;fill-rule:evenodd;stroke:rgb(0, 0, 0);stroke-width:3.0;" d="M 122.75, 435.917 L 124.299, 461.26 L 111.086, 448.302 L 106.815, 424.528 z "/>
<path style="fill:rgb(21, 30, 255);fill-opacity:1.0;fill-rule:evenodd;stroke:rgb(0, 0, 0);stroke-width:3.0;" d="M 66.6931, 143.91 L 46.2593, 151.418 L 46.5081, 140.726 L 49.5039, 138.675 z "/>
<path style="fill:rgb(243, 22, 249);fill-opacity:1.0;fill-rule:evenodd;stroke:rgb(0, 0, 0);stroke-width:3.0;" d="M 281.725, 535.712 L 268.273, 534.054 L 233.278, 501.264 L 242.984, 478.859 z "/>
<path style="fill:rgb(112, 43, 255);fill-opacity:1.0;fill-rule:evenodd;stroke:rgb(0, 0, 0);stroke-width:3.0;" d="M 337.18, 462.229 L 322.8, 471.077 L 311.616, 464.097 L 327.136, 460.374 z "/>
<path style="fill:rgb(8, 207, 115);fill-opacity:1.0;fill-rule:evenodd;stroke:rgb(0, 0, 0);stroke-width:3.0;" d="M 166.493, 436.886 L 156.74, 446.761 L 151.512, 445.512 L 149.394, 438.068 L 166.975, 426.916 z "/>
<path style="fill:rgb(252, 49, 19);fill-opacity:1.0;fill-rule:evenodd;stroke:rgb(0, 0, 0);stroke-width:3.0;" d="M 81.0492, 405.145 L 73.9721, 396.912 L 94.0018, 383.872 z "/>
<path style="fill:rgb(255, 13, 255);fill-opacity:1.0;fill-rule:evenodd;stroke:rgb(0, 0, 0);stroke-width:3.0;" d="M 80.8305, 233.574 L 83.5338, 236.748 L 71.4606, 273.698 L 60.7993, 238.987 L 71.5385, 225.072 z "/>
<path style="fill:rgb(255, 13, 255);fill-opacity:1.0;fill-rule:evenodd;stroke:rgb(0, 0, 0);stroke-width:3.0;" d="M 720.041, 64.5442 L 710.952, 74.4554 L 714.143, 32.4229 z "/>
<path style="fill:rgb(252, 243, 10);fill-opacity:1.0;fill-rule:evenodd;stroke:rgb(0, 0, 0);stroke-width:3.0;" d="M 29.334, 420.234 L 24.3029, 418.026 L 45.686, 352.582 z "/>
<path style="fill:rgb(252, 243, 10);fill-opacity:1.0;fill-rule:evenodd;stroke:rgb(0, 0, 0);stroke-width:3.0;" d="M 721.645, 259.098 L 710.548, 270.425 L 698.881, 274.962 L 706.256, 262.03 L 716.651, 252.386 z "/>
<path style="fill:rgb(159, 0, 204);fill-opacity:1.0;fill-rule:evenodd;stroke:rgb(0, 0, 0);stroke-width:3.0;" d="M 73.6139, 396.496 L 55.018, 374.864 L 59.6296, 362.133 z "/>
<path style="fill:rgb(255, 54, 10);fill-opacity:1.0;fill-rule:evenodd;stroke:rgb(0, 0, 0);stroke-width:3.0;" d="M 99.9393, 374.121 L 94.0018, 383.872 L 73.9721, 396.912 L 73.6139, 396.496 L 59.6296, 362.133 L 61.5, 356.97 z "/>
<path style="fill:rgb(255, 161, 54);fill-opacity:1.0;fill-rule:evenodd;stroke:rgb(0, 0, 0);stroke-width:3.0;" d="M 775.237, 563.69 L 777.245, 583.868 L 753.6, 570.606 L 769.221, 557.537 z "/>
<path style="fill:rgb(234, 228, 30);fill-opacity:1.0;fill-rule:evenodd;stroke:rgb(0, 0, 0);stroke-width:3.0;" d="M 156.024, 401.78 L 139.944, 407.184 L 119.474, 379.342 z "/>
<path style="fill:rgb(255, 144, 255);fill-opacity:1.0;fill-rule:evenodd;stroke:rgb(0, 0, 0);stroke-width:3.0;" d="M 767.551, 327.783 L 786.293, 340.824 L 758.932, 363.07 L 739.023, 339.533 L 750.875, 324.807 z "/>
<path style="fill:rgb(255, 144, 255);fill-opacity:1.0;fill-rule:evenodd;stroke:rgb(0, 0, 0);stroke-width:3.0;" d="M 430.908, 32.7348 L 429.306, 41.6451 L 389.468, 23.1726 L 389.463, 19.149 z "/>
<path style="fill:rgb(255, 144, 255);fill-opacity:1.0;fill-rule:evenodd;stroke:rgb(0, 0, 0);stroke-width:3.0;" d="M 35.0148, 134.262 L 39.977, 149.485 L 7.90936, 131.415 L 16.5945, 128.651 z "/>
<path style="fill:rgb(243, 165, 6);fill-opacity:1.0;fill-rule:evenodd;stroke:rgb(0, 0, 0);stroke-width:3.0;" d="M 37.7565, 149.466 L 38.5314, 154.257 L 32.6001, 156.437 L 16.3568, 140.74 z "/>
<path style="fill:rgb(243, 9, 33);fill-opacity:1.0;fill-rule:evenodd;stroke:rgb(0, 0, 0);stroke-width:3.0;" d="M 769.128, 197.18 L 762.013, 202.951 L 749.979, 201.984 L 769.863, 188.397 z "/>
<path style="fill:rgb(243, 9, 33);fill-opacity:1.0;fill-rule:evenodd;stroke:rgb(0, 0, 0);stroke-width:3.0;" d="M 148.619, 444.821 L 156.529, 456.077 L 152.815, 457.408 L 147.386, 453.527 L 130.262, 440.436 z "/>
<path style="fill:rgb(255, 58, 52);fill-opacity:1.0;fill-rule:evenodd;stroke:rgb(0, 0, 0);stroke-width:3.0;" d="M 765.009, 370.254 L 746.412, 360.483 L 720.209, 317.292 z "/>
<path style="fill:rgb(255, 58, 52);fill-opacity:1.0;fill-rule:evenodd;stroke:rgb(0, 0, 0);stroke-width:3.0;" d="M 466.388, 542.354 L 425.358, 527.231 L 457.812, 494.143 z "/>
<path style="fill:rgb(215, 83, 45);fill-opacity:1.0;fill-rule:evenodd;stroke:rgb(0, 0, 0);stroke-width:3.0;" d="M 381.227, 548.476 L 372.981, 550.88 L 333.654, 503.038 L 352.975, 484.478 z "/>
<path style="fill:rgb(189, 9, 255);fill-opacity:1.0;fill-rule:evenodd;stroke:rgb(0, 0, 0);stroke-width:3.0;" d="M 129.321, 67.8872 L 103.349, 68.4752 L 92.5853, 60.6088 L 107.468, 52.2583 z "/>
<path style="fill:rgb(24, 126, 255);fill-opacity:1.0;fill-rule:evenodd;stroke:rgb(0, 0, 0);stroke-width:3.0;" d="M 366.422, 490.16 L 361.959, 504.83 L 352.975, 484.478 L 357.225, 480.396 z "/>
<path style="fill:rgb(255, 30, 212);fill-opacity:1.0;fill-rule:evenodd;stroke:rgb(0, 0, 0);stroke-width:3.0;" d="M 519.737, 526.616 L 473.388, 544.934 L 466.388, 542.354 L 457.812, 494.143 L 475.507, 476.102 L 489.059, 463.53 z "/>
<path style="fill:rgb(255, 138, 7);fill-opacity:1.0;fill-rule:evenodd;stroke:rgb(0, 0, 0);stroke-width:3.0;" d="M 552.021, 444.457 L 549.755, 514.752 L 519.737, 526.616 L 489.059, 463.53 L 517.811, 436.856 z "/>
<path style="fill:rgb(246, 38, 14);fill-opacity:1.0;fill-rule:evenodd;stroke:rgb(0, 0, 0);stroke-width:3.0;" d="M 730.507, 438.618 L 669.768, 467.319 L 664.426, 469.43 L 657.717, 467.94 L 634.304, 450.755 L 696.189, 354.972 z "/>
<path style="fill:rgb(237, 52, 21);fill-opacity:1.0;fill-rule:evenodd;stroke:rgb(0, 0, 0);stroke-width:3.0;" d="M 753.688, 92.0608 L 746.329, 113.477 L 723.646, 111.578 L 706.366, 103.068 L 709.106, 85.7514 z "/>
<path style="fill:rgb(237, 52, 21);fill-opacity:1.0;fill-rule:evenodd;stroke:rgb(0, 0, 0);stroke-width:3.0;" d="M 131.282, 410.095 L 110.94, 416.931 L 104.622, 404.976 L 104.463, 399.859 L 126.933, 395.741 z "/>
<path style="fill:rgb(246, 246, 12);fill-opacity:1.0;fill-rule:evenodd;stroke:rgb(0, 0, 0);stroke-width:3.0;" d="M 102.48, 105.994 L 99.2928, 109.859 L 98.4847, 110.228 L 94.5109, 109.263 L 90.2448, 97.0081 L 95.2644, 90.1882 z "/>
<path style="fill:rgb(255, 62, 255);fill-opacity:1.0;fill-rule:evenodd;stroke:rgb(0, 0, 0);stroke-width:3.0;" d="M 108.036, 99.2556 L 102.48, 105.994 L 95.2644, 90.1882 L 107.049, 74.1766 z "/>
<path style="fill:rgb(255, 255, 11);fill-opacity:1.0;fill-rule:evenodd;stroke:rgb(0, 0, 0);stroke-width:3.0;" d="M 765.009, 370.254 L 779.912, 387.873 L 739.611, 380.529 L 741.868, 367.106 L 745.115, 359.802 z "/>
<path style="fill:rgb(255, 228, 48);fill-opacity:1.0;fill-rule:evenodd;stroke:rgb(0, 0, 0);stroke-width:3.0;" d="M 430.174, 522.321 L 413.106, 539.722 L 397.649, 523.312 L 403.171, 506.38 z "/>
<path style="fill:rgb(54, 228, 226);fill-opacity:1.0;fill-rule:evenodd;stroke:rgb(0, 0, 0);stroke-width:3.0;" d="M 356.447, 478.798 L 403.171, 506.38 L 397.649, 523.312 L 355.637, 478.711 z "/>
<path style="fill:rgb(246, 11, 12);fill-opacity:1.0;fill-rule:evenodd;stroke:rgb(0, 0, 0);stroke-width:3.0;" d="M 355.7, 529.858 L 350.991, 536.76 L 327.189, 533.87 L 350.522, 523.558 z "/>
<path style="fill:rgb(240, 1, 187);fill-opacity:1.0;fill-rule:evenodd;stroke:rgb(0, 0, 0);stroke-width:3.0;" d="M 47.5729, 57.9761 L 73.4044, 73.1205 L 38.9882, 86.6369 L 23.0206, 66.5489 L 26.5634, 55.4206 z "/>
<path style="fill:rgb(204, 37, 231);fill-opacity:1.0;fill-rule:evenodd;stroke:rgb(0, 0, 0);stroke-width:3.0;" d="M 464.449, 32.6025 L 469.156, 45.2723 L 443.532, 36.873 L 439.914, 34.3073 L 443.947, 29.2957 L 459.012, 23.2143 z "/>
<path style="fill:rgb(228, 56, 255);fill-opacity:1.0;fill-rule:evenodd;stroke:rgb(0, 0, 0);stroke-width:3.0;" d="M 100.688, 318.771 L 138.875, 371.277 L 67.1673, 343.888 L 66.9291, 341.982 L 83.1995, 297.065 z "/>
<path style="fill:rgb(187, 192, 9);fill-opacity:1.0;fill-rule:evenodd;stroke:rgb(0, 0, 0);stroke-width:3.0;" d="M 727.867, 329.915 L 746.412, 360.483 L 685.271, 328.36 L 673.633, 299.993 L 680.513, 298.322 z "/>
<path style="fill:rgb(187, 192, 9);fill-opacity:1.0;fill-rule:evenodd;stroke:rgb(0, 0, 0);stroke-width:3.0;" d="M 362.524, 538.16 L 369.442, 546.575 L 357.728, 549.399 L 339.398, 535.352 z "/>
<path style="fill:rgb(44, 38, 234);fill-opacity:1.0;fill-rule:evenodd;stroke:rgb(0, 0, 0);stroke-width:3.0;" d="M 624.683, 324.012 L 262.974, 315.563 L 668.392, 222.138 L 735.654, 210.873 z "/>
<path style="fill:rgb(112, 8, 243);fill-opacity:1.0;fill-rule:evenodd;stroke:rgb(0, 0, 0);stroke-width:3.0;" d="M 140.183, 79.8134 L 140.195, 82.4036 L 111.698, 73.2301 L 110.346, 72.5813 L 108.182, 68.3658 L 127.93, 67.9187 z "/>
<path style="fill:rgb(243, 130, 9);fill-opacity:1.0;fill-rule:evenodd;stroke:rgb(0, 0, 0);stroke-width:3.0;" d="M 464.839, 485.808 L 457.935, 488.816 L 440.14, 487.826 L 435.916, 487.371 L 433.32, 482.529 L 443.942, 481.948 z "/>
<path style="fill:rgb(11, 40, 255);fill-opacity:1.0;fill-rule:evenodd;stroke:rgb(0, 0, 0);stroke-width:3.0;" d="M 753.979, 192.19 L 735.654, 210.873 L 666.34, 222.481 L 610.652, 125.732 z "/>
<path style="fill:rgb(234, 138, 48);fill-opacity:1.0;fill-rule:evenodd;stroke:rgb(0, 0, 0);stroke-width:3.0;" d="M 108.33, 307.477 L 104.334, 323.784 L 83.7655, 295.502 L 91.0733, 275.328 z "/>
<path style="fill:rgb(255, 220, 9);fill-opacity:1.0;fill-rule:evenodd;stroke:rgb(0, 0, 0);stroke-width:3.0;" d="M 728.569, 60.7711 L 729.741, 75.529 L 715.327, 86.6318 L 701.571, 84.6852 L 725.681, 58.3944 z "/>
<path style="fill:rgb(249, 187, 6);fill-opacity:1.0;fill-rule:evenodd;stroke:rgb(0, 0, 0);stroke-width:3.0;" d="M 357.389, 577.64 L 353.135, 579.249 L 344.62, 554.36 L 360.029, 551.774 z "/>
<path style="fill:rgb(231, 14, 24);fill-opacity:1.0;fill-rule:evenodd;stroke:rgb(0, 0, 0);stroke-width:3.0;" d="M 82.9339, 62.2772 L 85.3958, 80.1507 L 76.7232, 75.0662 L 72.0128, 69.6279 L 73.9844, 61.1886 z "/>
<path style="fill:rgb(237, 2, 10);fill-opacity:1.0;fill-rule:evenodd;stroke:rgb(0, 0, 0);stroke-width:3.0;" d="M 761.176, 446.658 L 750.806, 435.291 L 767.984, 428.501 z "/>
<path style="fill:rgb(243, 55, 22);fill-opacity:1.0;fill-rule:evenodd;stroke:rgb(0, 0, 0);stroke-width:3.0;" d="M 710.482, 305.792 L 720.209, 317.292 L 727.867, 329.915 L 680.513, 298.322 L 681.72, 298.029 z "/>
<path style="fill:rgb(255, 243, 9);fill-opacity:1.0;fill-rule:evenodd;stroke:rgb(0, 0, 0);stroke-width:3.0;" d="M 376.433, 469.479 L 383.803, 478.436 L 383.738, 481.742 L 355.637, 478.711 L 346.979, 469.519 L 353.357, 465.217 z "/>
<path style="fill:rgb(119, 240, 24);fill-opacity:1.0;fill-rule:evenodd;stroke:rgb(0, 0, 0);stroke-width:3.0;" d="M 36.076, 19.3085 L 33.0561, 44.7754 L 17.6418, 54.821 L 11.681, 40.4534 L 11.0357, 14.267 L 25.9513, 11.9088 z "/>
<path style="fill:rgb(252, 246, 8);fill-opacity:1.0;fill-rule:evenodd;stroke:rgb(0, 0, 0);stroke-width:3.0;" d="M 338.061, 535.19 L 355.583, 586.403 L 296.643, 540.132 L 299.467, 530.505 z "/>
<path style="fill:rgb(255, 170, 70);fill-opacity:1.0;fill-rule:evenodd;stroke:rgb(0, 0, 0);stroke-width:3.0;" d="M 739.638, 69.8823 L 741.746, 82.3607 L 717.902, 86.9962 L 715.327, 86.6318 L 738.397, 68.8609 z "/>
</svg>