<?xml version="1.0" encoding="iso-8859-1" standalone="no"?>
<!DOCTYPE svg PUBLIC "-//W3C//DTD SVG 1.0//EN" "http://www.w3.org/TR/2001/REC-SVG-20010904/DTD/svg10.dtd">
<svg xmlns="http://www.w3.org/2000/svg" width="800" height="600">
<path style="fill:rgb(0, 0, 0);fill-opacity:0.0;fill-rule:evenodd;stroke:rgb(0, 0, 0);stroke-width:0.0;" d="M 0, 600 L 800, 600 L 800, 0 L 0, 0 z "/>
<path style="fill:rgb(163, 184, 177);fill-opacity:1.0;fill-rule:evenodd;stroke:rgb(0, 0, 0);stroke-width:3.0;" d="M 429.602, 16.0906 L 428.663, 26.3915 L 417.612, 26.0817 L 417.562, 10.6535 z "/>
<path style="fill:rgb(231, 1, 94);fill-opacity:1.0;fill-rule:evenodd;stroke:rgb(0, 0, 0);stroke-width:3.0;" d="M 788.162, 354.967 L 787.686, 356.686 L 785.537, 356.544 L 776.097, 350.62 L 791.281, 321.537 z "/>
<path style="fill:rgb(71, 255, 231);fill-opacity:1.0;fill-rule:evenodd;stroke:rgb(0, 0, 0);stroke-width:3.0;" d="M 517.986, 81.8698 L 500.608, 127.122 L 461.879, 82.1742 L 500.451, 54.5958 z "/>
<path style="fill:rgb(71, 255, 231);fill-opacity:1.0;fill-rule:evenodd;stroke:rgb(0, 0, 0);stroke-width:3.0;" d="M 590.766, 558.038 L 581.64, 559.061 L 597.437, 531.564 z "/>
<path style="fill:rgb(71, 255, 231);fill-opacity:1.0;fill-rule:evenodd;stroke:rgb(0, 0, 0);stroke-width:3.0;" d="M 108.202, 541.342 L 177.05, 573.768 L 165.514, 583.039 L 139.757, 578.234 L 88.0643, 540.507 z "/>
<path style="fill:rgb(255, 161, 38);fill-opacity:1.0;fill-rule:evenodd;stroke:rgb(0, 0, 0);stroke-width:3.0;" d="M 527.809, 66.5986 L 537.425, 112.103 L 525.911, 94.1955 L 511.885, 60.0937 z "/>
<path style="fill:rgb(255, 161, 38);fill-opacity:1.0;fill-rule:evenodd;stroke:rgb(0, 0, 0);stroke-width:3.0;" d="M 697.58, 199.117 L 691.826, 214.724 L 682.346, 210.718 L 675.003, 197.846 L 696.704, 196.388 z "/>
<path style="fill:rgb(237, 37, 7);fill-opacity:1.0;fill-rule:evenodd;stroke:rgb(0, 0, 0);stroke-width:3.0;" d="M 782.7, 232.947 L 792.196, 319.785 L 779.352, 344.385 L 738.668, 300.893 L 711.616, 242.822 L 702.038, 212.998 L 728.691, 194.238 L 737.172, 193.668 z "/>
<path style="fill:rgb(252, 134, 19);fill-opacity:1.0;fill-rule:evenodd;stroke:rgb(0, 0, 0);stroke-width:3.0;" d="M 549.683, 428.07 L 564.321, 443.356 L 544.66, 445.656 L 547.333, 427.85 z "/>
<path style="fill:rgb(252, 134, 19);fill-opacity:1.0;fill-rule:evenodd;stroke:rgb(0, 0, 0);stroke-width:3.0;" d="M 622.783, 425.588 L 622.172, 434.849 L 572.38, 430.193 L 565.181, 427.506 L 563.623, 422.667 z "/>
<path style="fill:rgb(252, 134, 19);fill-opacity:1.0;fill-rule:evenodd;stroke:rgb(0, 0, 0);stroke-width:3.0;" d="M 675.327, 402.512 L 665.814, 501.402 L 588.99, 565.084 L 597.437, 531.564 L 671.966, 401.844 z "/>
<path style="fill:rgb(255, 11, 46);fill-opacity:1.0;fill-rule:evenodd;stroke:rgb(0, 0, 0);stroke-width:3.0;" d="M 447.067, 86.0718 L 445.326, 95.5983 L 436.073, 100.348 L 437.011, 72.8063 L 437.154, 72.3869 z "/>
<path style="fill:rgb(231, 44, 217);fill-opacity:1.0;fill-rule:evenodd;stroke:rgb(0, 0, 0);stroke-width:3.0;" d="M 290.985, 326.145 L 261.079, 320.203 L 270.009, 306.237 z "/>
<path style="fill:rgb(231, 44, 217);fill-opacity:1.0;fill-rule:evenodd;stroke:rgb(0, 0, 0);stroke-width:3.0;" d="M 319.926, 159.973 L 303.395, 168.459 L 269.916, 178.11 L 304.224, 149.662 L 307.514, 148.877 z "/>
<path style="fill:rgb(246, 7, 12);fill-opacity:1.0;fill-rule:evenodd;stroke:rgb(0, 0, 0);stroke-width:3.0;" d="M 738.65, 506.704 L 736.896, 516.269 L 704.223, 502.518 L 716.061, 474.041 z "/>
<path style="fill:rgb(246, 7, 12);fill-opacity:1.0;fill-rule:evenodd;stroke:rgb(0, 0, 0);stroke-width:3.0;" d="M 531.493, 533.358 L 522.313, 594.501 L 389.931, 532.114 L 477.861, 431.962 z "/>
<path style="fill:rgb(163, 175, 255);fill-opacity:1.0;fill-rule:evenodd;stroke:rgb(0, 0, 0);stroke-width:3.0;" d="M 284.812, 177.999 L 265.211, 188.061 L 260.108, 186.243 L 269.916, 178.11 L 270.662, 177.895 L 282.347, 175.441 z "/>
<path style="fill:rgb(163, 175, 255);fill-opacity:1.0;fill-rule:evenodd;stroke:rgb(0, 0, 0);stroke-width:3.0;" d="M 458.535, 292.522 L 371.439, 302.867 L 429.538, 243.072 z "/>
<path style="fill:rgb(163, 175, 255);fill-opacity:1.0;fill-rule:evenodd;stroke:rgb(0, 0, 0);stroke-width:3.0;" d="M 567.933, 143.808 L 558.946, 141.868 L 606.337, 113.12 z "/>
<path style="fill:rgb(163, 175, 255);fill-opacity:1.0;fill-rule:evenodd;stroke:rgb(0, 0, 0);stroke-width:3.0;" d="M 108.349, 555.311 L 85.2687, 568.069 L 77.2199, 566.567 L 80.7677, 535.182 z "/>
<path style="fill:rgb(10, 25, 255);fill-opacity:1.0;fill-rule:evenodd;stroke:rgb(0, 0, 0);stroke-width:3.0;" d="M 790.507, 385.066 L 788.084, 386.895 L 773.483, 391.87 L 777.343, 381.144 L 786.064, 377.121 z "/>
<path style="fill:rgb(10, 25, 255);fill-opacity:1.0;fill-rule:evenodd;stroke:rgb(0, 0, 0);stroke-width:3.0;" d="M 680.51, 559.557 L 675.518, 556.335 L 666.32, 531.567 L 707.296, 495.126 z "/>
<path style="fill:rgb(10, 25, 255);fill-opacity:1.0;fill-rule:evenodd;stroke:rgb(0, 0, 0);stroke-width:3.0;" d="M 600.382, 93.4258 L 612.5, 109.382 L 590.995, 122.427 L 558.943, 77.1873 z "/>
<path style="fill:rgb(217, 44, 255);fill-opacity:1.0;fill-rule:evenodd;stroke:rgb(0, 0, 0);stroke-width:3.0;" d="M 597.254, 188.417 L 585.828, 189.451 L 578.372, 186.591 L 578.693, 183.866 L 599.922, 183.085 z "/>
<path style="fill:rgb(65, 249, 252);fill-opacity:1.0;fill-rule:evenodd;stroke:rgb(0, 0, 0);stroke-width:3.0;" d="M 590.995, 122.427 L 558.946, 141.868 L 556.177, 141.271 L 552.413, 135.416 L 565.47, 123.461 L 586.58, 116.196 z "/>
<path style="fill:rgb(65, 249, 252);fill-opacity:1.0;fill-rule:evenodd;stroke:rgb(0, 0, 0);stroke-width:3.0;" d="M 248.182, 196.132 L 211.201, 226.796 L 203.567, 211.498 L 203.779, 210.976 L 220.788, 191.694 z "/>
<path style="fill:rgb(255, 199, 11);fill-opacity:1.0;fill-rule:evenodd;stroke:rgb(0, 0, 0);stroke-width:3.0;" d="M 734.641, 296.588 L 604.112, 202.61 L 644.209, 199.915 z "/>
<path style="fill:rgb(255, 199, 11);fill-opacity:1.0;fill-rule:evenodd;stroke:rgb(0, 0, 0);stroke-width:3.0;" d="M 597.684, 387.085 L 577.481, 423.351 L 576.951, 423.325 L 568.513, 381.289 z "/>
<path style="fill:rgb(255, 199, 11);fill-opacity:1.0;fill-rule:evenodd;stroke:rgb(0, 0, 0);stroke-width:3.0;" d="M 568.275, 106.884 L 550.113, 117.837 L 549.013, 111.573 L 555.386, 103.952 z "/>
<path style="fill:rgb(255, 199, 11);fill-opacity:1.0;fill-rule:evenodd;stroke:rgb(0, 0, 0);stroke-width:3.0;" d="M 667.692, 400.995 L 651.617, 425.751 L 628.919, 416.447 L 650.438, 397.567 z "/>
<path style="fill:rgb(255, 47, 159);fill-opacity:1.0;fill-rule:evenodd;stroke:rgb(0, 0, 0);stroke-width:3.0;" d="M 650.438, 397.567 L 628.919, 416.447 L 623.533, 414.239 L 624.968, 392.506 z "/>
<path style="fill:rgb(255, 39, 136);fill-opacity:1.0;fill-rule:evenodd;stroke:rgb(0, 0, 0);stroke-width:3.0;" d="M 649.694, 118.198 L 582.089, 59.8724 L 641.578, 22.9747 z "/>
<path style="fill:rgb(138, 11, 246);fill-opacity:1.0;fill-rule:evenodd;stroke:rgb(0, 0, 0);stroke-width:3.0;" d="M 465.144, 113.411 L 457.988, 119.95 L 449.668, 111.616 L 460.673, 105.176 z "/>
<path style="fill:rgb(150, 3, 234);fill-opacity:1.0;fill-rule:evenodd;stroke:rgb(0, 0, 0);stroke-width:3.0;" d="M 84.2206, 203.387 L 70.0296, 201.19 L 123.491, 189.992 z "/>
<path style="fill:rgb(150, 3, 234);fill-opacity:1.0;fill-rule:evenodd;stroke:rgb(0, 0, 0);stroke-width:3.0;" d="M 669.902, 183.71 L 624.501, 201.24 L 619.263, 201.592 L 619.954, 197.564 L 624.84, 195.261 L 666.323, 181.314 z "/>
<path style="fill:rgb(150, 3, 234);fill-opacity:1.0;fill-rule:evenodd;stroke:rgb(0, 0, 0);stroke-width:3.0;" d="M 409.71, 71.3967 L 403.844, 83.9564 L 381.7, 98.9603 L 381.686, 98.8638 L 409.106, 70.5405 z "/>
<path style="fill:rgb(255, 124, 6);fill-opacity:1.0;fill-rule:evenodd;stroke:rgb(0, 0, 0);stroke-width:3.0;" d="M 428.085, 85.2018 L 425.283, 85.819 L 398.572, 87.5285 L 412.051, 78.3957 L 424.517, 78.2442 z "/>
<path style="fill:rgb(255, 124, 6);fill-opacity:1.0;fill-rule:evenodd;stroke:rgb(0, 0, 0);stroke-width:3.0;" d="M 709.158, 207.987 L 702.038, 212.998 L 696.704, 196.388 L 705.938, 195.767 z "/>
<path style="fill:rgb(255, 124, 6);fill-opacity:1.0;fill-rule:evenodd;stroke:rgb(0, 0, 0);stroke-width:3.0;" d="M 620.521, 459.846 L 600.204, 452.51 L 621.786, 440.681 z "/>
<path style="fill:rgb(255, 124, 6);fill-opacity:1.0;fill-rule:evenodd;stroke:rgb(0, 0, 0);stroke-width:3.0;" d="M 364.332, 310.182 L 347.143, 327.873 L 319.143, 294.82 L 347.431, 273.761 z "/>
<path style="fill:rgb(255, 124, 6);fill-opacity:1.0;fill-rule:evenodd;stroke:rgb(0, 0, 0);stroke-width:3.0;" d="M 68.6263, 575.848 L 47.8068, 583.977 L 9.57798, 579.873 L 25.0682, 568.706 z "/>
<path style="fill:rgb(240, 13, 11);fill-opacity:1.0;fill-rule:evenodd;stroke:rgb(0, 0, 0);stroke-width:3.0;" d="M 347.143, 327.873 L 339.462, 335.777 L 314.512, 330.82 L 273.807, 302.863 L 307.129, 280.638 z "/>
<path style="fill:rgb(240, 13, 11);fill-opacity:1.0;fill-rule:evenodd;stroke:rgb(0, 0, 0);stroke-width:3.0;" d="M 685.448, 194.113 L 677.675, 197.667 L 668.578, 198.278 L 671.977, 185.098 z "/>
<path style="fill:rgb(240, 13, 11);fill-opacity:1.0;fill-rule:evenodd;stroke:rgb(0, 0, 0);stroke-width:3.0;" d="M 525.261, 60.4859 L 520.205, 55.6449 L 512.321, 29.1634 L 516.477, 29.0534 z "/>
<path style="fill:rgb(9, 3, 199);fill-opacity:1.0;fill-rule:evenodd;stroke:rgb(0, 0, 0);stroke-width:3.0;" d="M 350.596, 125.195 L 343.772, 129.326 L 339.485, 127.562 L 334.088, 124.9 L 348.17, 113.224 z "/>
<path style="fill:rgb(9, 3, 199);fill-opacity:1.0;fill-rule:evenodd;stroke:rgb(0, 0, 0);stroke-width:3.0;" d="M 537.024, 111.48 L 544.074, 122.445 L 531.795, 127.663 L 529.399, 125.186 L 528.813, 109.707 z "/>
<path style="fill:rgb(9, 3, 199);fill-opacity:1.0;fill-rule:evenodd;stroke:rgb(0, 0, 0);stroke-width:3.0;" d="M 583.853, 166.693 L 570.686, 184.16 L 556.899, 184.667 L 581.362, 152.793 z "/>
<path style="fill:rgb(9, 3, 199);fill-opacity:1.0;fill-rule:evenodd;stroke:rgb(0, 0, 0);stroke-width:3.0;" d="M 698.153, 219.628 L 675.033, 232.867 L 669.404, 226.849 L 676.51, 212.851 z "/>
<path style="fill:rgb(255, 78, 7);fill-opacity:1.0;fill-rule:evenodd;stroke:rgb(0, 0, 0);stroke-width:3.0;" d="M 512.324, 29.1706 L 504.919, 41.0085 L 493.08, 29.6727 L 512.321, 29.1634 z "/>
<path style="fill:rgb(240, 71, 10);fill-opacity:1.0;fill-rule:evenodd;stroke:rgb(0, 0, 0);stroke-width:3.0;" d="M 598.091, 92.5281 L 570.981, 81.9044 L 570.818, 81.5623 L 588.072, 80.2407 z "/>
<path style="fill:rgb(240, 71, 10);fill-opacity:1.0;fill-rule:evenodd;stroke:rgb(0, 0, 0);stroke-width:3.0;" d="M 576.478, 101.937 L 568.275, 106.884 L 555.386, 103.952 L 567.577, 89.374 z "/>
<path style="fill:rgb(12, 60, 246);fill-opacity:1.0;fill-rule:evenodd;stroke:rgb(0, 0, 0);stroke-width:3.0;" d="M 393.701, 279.955 L 387.543, 286.294 L 378.613, 278.049 L 389.259, 269.31 z "/>
<path style="fill:rgb(12, 60, 246);fill-opacity:1.0;fill-rule:evenodd;stroke:rgb(0, 0, 0);stroke-width:3.0;" d="M 249.016, 214.34 L 251.991, 221.928 L 251.499, 224.534 L 229.357, 228.159 L 228.478, 224.393 L 235.729, 212.816 z "/>
<path style="fill:rgb(12, 60, 246);fill-opacity:1.0;fill-rule:evenodd;stroke:rgb(0, 0, 0);stroke-width:3.0;" d="M 770.658, 30.8806 L 760.705, 40.2526 L 750.387, 35.1351 L 750.364, 35.0276 L 766.594, 20.7853 z "/>
<path style="fill:rgb(234, 234, 10);fill-opacity:1.0;fill-rule:evenodd;stroke:rgb(0, 0, 0);stroke-width:3.0;" d="M 634.167, 181.826 L 594.725, 183.276 L 599.523, 156.976 z "/>
<path style="fill:rgb(231, 55, 24);fill-opacity:1.0;fill-rule:evenodd;stroke:rgb(0, 0, 0);stroke-width:3.0;" d="M 708.328, 177.344 L 710.647, 179.014 L 679.97, 180.142 L 652.161, 170.598 L 629.971, 159.476 z "/>
<path style="fill:rgb(231, 55, 24);fill-opacity:1.0;fill-rule:evenodd;stroke:rgb(0, 0, 0);stroke-width:3.0;" d="M 599.98, 198.2 L 594.549, 202.707 L 582.467, 200.294 L 582.662, 189.738 L 595.285, 188.595 z "/>
<path style="fill:rgb(231, 55, 24);fill-opacity:1.0;fill-rule:evenodd;stroke:rgb(0, 0, 0);stroke-width:3.0;" d="M 440.321, 355.817 L 339.462, 335.777 L 371.439, 302.867 L 448.694, 293.691 z "/>
<path style="fill:rgb(231, 55, 24);fill-opacity:1.0;fill-rule:evenodd;stroke:rgb(0, 0, 0);stroke-width:3.0;" d="M 736.263, 516.002 L 697.811, 517.941 L 704.223, 502.518 z "/>
<path style="fill:rgb(255, 8, 8);fill-opacity:1.0;fill-rule:evenodd;stroke:rgb(0, 0, 0);stroke-width:3.0;" d="M 322.397, 270.454 L 287.284, 223.067 L 422.903, 203.418 z "/>
<path style="fill:rgb(255, 8, 8);fill-opacity:1.0;fill-rule:evenodd;stroke:rgb(0, 0, 0);stroke-width:3.0;" d="M 622.172, 434.849 L 622.056, 436.601 L 585.501, 440.878 L 585.219, 431.393 z "/>
<path style="fill:rgb(255, 8, 8);fill-opacity:1.0;fill-rule:evenodd;stroke:rgb(0, 0, 0);stroke-width:3.0;" d="M 709.088, 278.191 L 672.378, 294.337 L 573.166, 211.333 L 567.756, 205.053 L 604.112, 202.61 z "/>
<path style="fill:rgb(255, 8, 8);fill-opacity:1.0;fill-rule:evenodd;stroke:rgb(0, 0, 0);stroke-width:3.0;" d="M 80.4883, 537.654 L 76.519, 572.767 L 70.7451, 575.021 L 58.3915, 544.681 L 79.2425, 529.648 z "/>
<path style="fill:rgb(255, 8, 8);fill-opacity:1.0;fill-rule:evenodd;stroke:rgb(0, 0, 0);stroke-width:3.0;" d="M 413.19, 99.6399 L 410.614, 113.418 L 394.748, 121.563 L 394.293, 119.21 L 400.6, 97.6454 L 408.67, 94.5143 z "/>
<path style="fill:rgb(255, 8, 8);fill-opacity:1.0;fill-rule:evenodd;stroke:rgb(0, 0, 0);stroke-width:3.0;" d="M 502.946, 368.261 L 440.321, 355.817 L 448.694, 293.691 L 458.535, 292.522 z "/>
<path style="fill:rgb(255, 8, 8);fill-opacity:1.0;fill-rule:evenodd;stroke:rgb(0, 0, 0);stroke-width:3.0;" d="M 585.37, 147.572 L 571.213, 166.016 L 560.096, 168.577 L 573.879, 145.092 z "/>
<path style="fill:rgb(67, 44, 243);fill-opacity:1.0;fill-rule:evenodd;stroke:rgb(0, 0, 0);stroke-width:3.0;" d="M 707.099, 179.386 L 707.011, 185.947 L 706.837, 186.097 L 690.739, 190.04 L 688.699, 187.261 L 700.911, 179.372 L 706.819, 179.154 z "/>
<path style="fill:rgb(71, 184, 246);fill-opacity:1.0;fill-rule:evenodd;stroke:rgb(0, 0, 0);stroke-width:3.0;" d="M 322.397, 270.454 L 250.856, 318.172 L 129.969, 294.152 L 200.543, 235.634 L 287.284, 223.067 z "/>
<path style="fill:rgb(71, 184, 246);fill-opacity:1.0;fill-rule:evenodd;stroke:rgb(0, 0, 0);stroke-width:3.0;" d="M 671.977, 185.098 L 668.578, 198.278 L 648.286, 199.642 L 649.49, 191.591 L 669.902, 183.71 z "/>
<path style="fill:rgb(71, 184, 246);fill-opacity:1.0;fill-rule:evenodd;stroke:rgb(0, 0, 0);stroke-width:3.0;" d="M 481.022, 17.073 L 472.306, 24.3514 L 453.054, 17.2991 L 452.158, 10.9089 z "/>
<path style="fill:rgb(65, 12, 255);fill-opacity:1.0;fill-rule:evenodd;stroke:rgb(0, 0, 0);stroke-width:3.0;" d="M 510.284, 493.261 L 477.861, 431.962 L 523.722, 379.725 z "/>
<path style="fill:rgb(255, 252, 59);fill-opacity:1.0;fill-rule:evenodd;stroke:rgb(0, 0, 0);stroke-width:3.0;" d="M 676.026, 140.915 L 692.327, 160.899 L 661.451, 163.994 L 652.509, 162.064 L 592.659, 83.2566 L 604.682, 79.3644 z "/>
<path style="fill:rgb(209, 2, 11);fill-opacity:1.0;fill-rule:evenodd;stroke:rgb(0, 0, 0);stroke-width:3.0;" d="M 676.442, 402.734 L 502.946, 368.261 L 468.864, 310.138 L 477.734, 195.474 L 521.699, 189.105 z "/>
<path style="fill:rgb(255, 255, 57);fill-opacity:1.0;fill-rule:evenodd;stroke:rgb(0, 0, 0);stroke-width:3.0;" d="M 468.864, 310.138 L 429.538, 243.072 L 475.468, 195.803 L 477.734, 195.474 z "/>
<path style="fill:rgb(255, 255, 36);fill-opacity:1.0;fill-rule:evenodd;stroke:rgb(0, 0, 0);stroke-width:3.0;" d="M 764.364, 399.617 L 750.626, 399.406 L 763.472, 374.802 z "/>
<path style="fill:rgb(255, 255, 36);fill-opacity:1.0;fill-rule:evenodd;stroke:rgb(0, 0, 0);stroke-width:3.0;" d="M 394.748, 121.563 L 394.322, 121.781 L 392.21, 121.02 L 383.913, 114.191 L 382.528, 104.657 L 390.853, 101.427 z "/>
<path style="fill:rgb(255, 252, 9);fill-opacity:1.0;fill-rule:evenodd;stroke:rgb(0, 0, 0);stroke-width:3.0;" d="M 324.555, 157.596 L 319.926, 159.973 L 307.514, 148.877 L 320.102, 145.873 z "/>
<path style="fill:rgb(255, 252, 9);fill-opacity:1.0;fill-rule:evenodd;stroke:rgb(0, 0, 0);stroke-width:3.0;" d="M 642.724, 281.941 L 636.047, 284.312 L 600.3, 242.824 z "/>
<path style="fill:rgb(255, 252, 9);fill-opacity:1.0;fill-rule:evenodd;stroke:rgb(0, 0, 0);stroke-width:3.0;" d="M 734.641, 296.588 L 745.764, 308.479 L 686.461, 306.12 L 672.378, 294.337 L 709.088, 278.191 z "/>
<path style="fill:rgb(255, 252, 9);fill-opacity:1.0;fill-rule:evenodd;stroke:rgb(0, 0, 0);stroke-width:3.0;" d="M 568.513, 381.289 L 576.951, 423.325 L 548.226, 421.907 L 554.735, 378.551 z "/>
<path style="fill:rgb(255, 252, 9);fill-opacity:1.0;fill-rule:evenodd;stroke:rgb(0, 0, 0);stroke-width:3.0;" d="M 779.079, 51.7945 L 779.942, 53.9397 L 771.258, 61.2304 L 761.73, 58.6438 L 759.602, 51.0045 z "/>
<path style="fill:rgb(255, 252, 9);fill-opacity:1.0;fill-rule:evenodd;stroke:rgb(0, 0, 0);stroke-width:3.0;" d="M 609.609, 152.804 L 636.729, 176.898 L 637.676, 181.697 L 634.167, 181.826 L 599.523, 156.976 L 600.637, 150.867 z "/>
<path style="fill:rgb(255, 252, 9);fill-opacity:1.0;fill-rule:evenodd;stroke:rgb(0, 0, 0);stroke-width:3.0;" d="M 621.786, 440.681 L 600.204, 452.51 L 578.375, 444.628 L 577.908, 441.766 L 622.056, 436.601 z "/>
<path style="fill:rgb(255, 252, 9);fill-opacity:1.0;fill-rule:evenodd;stroke:rgb(0, 0, 0);stroke-width:3.0;" d="M 439.198, 224.551 L 418.504, 220.676 L 426.399, 208.449 L 434.171, 206.379 z "/>
<path style="fill:rgb(177, 3, 255);fill-opacity:1.0;fill-rule:evenodd;stroke:rgb(0, 0, 0);stroke-width:3.0;" d="M 733.451, 397.358 L 710.148, 393.409 L 719.207, 380.826 z "/>
<path style="fill:rgb(177, 3, 255);fill-opacity:1.0;fill-rule:evenodd;stroke:rgb(0, 0, 0);stroke-width:3.0;" d="M 462.923, 208.713 L 446.251, 225.872 L 445.654, 225.76 L 435.393, 206.054 L 448.852, 202.469 z "/>
<path style="fill:rgb(177, 3, 255);fill-opacity:1.0;fill-rule:evenodd;stroke:rgb(0, 0, 0);stroke-width:3.0;" d="M 418.504, 220.676 L 401.736, 217.536 L 408.022, 213.344 L 426.399, 208.449 z "/>
<path style="fill:rgb(255, 252, 51);fill-opacity:1.0;fill-rule:evenodd;stroke:rgb(0, 0, 0);stroke-width:3.0;" d="M 493.221, 149.789 L 481.925, 147.459 L 475.285, 143.006 L 483.619, 136.533 z "/>
<path style="fill:rgb(255, 252, 51);fill-opacity:1.0;fill-rule:evenodd;stroke:rgb(0, 0, 0);stroke-width:3.0;" d="M 561.066, 80.1835 L 567.577, 89.374 L 542.269, 119.638 L 537.425, 112.103 L 527.809, 66.5986 z "/>
<path style="fill:rgb(86, 138, 255);fill-opacity:1.0;fill-rule:evenodd;stroke:rgb(0, 0, 0);stroke-width:3.0;" d="M 675.141, 555.32 L 653.3, 511.775 L 657.635, 508.182 z "/>
<path style="fill:rgb(255, 72, 252);fill-opacity:1.0;fill-rule:evenodd;stroke:rgb(0, 0, 0);stroke-width:3.0;" d="M 559.284, 178.422 L 557.158, 184.33 L 556.899, 184.667 L 550.396, 184.906 L 547.591, 181.65 L 548.974, 171.139 L 550.829, 170.712 z "/>
<path style="fill:rgb(14, 44, 255);fill-opacity:1.0;fill-rule:evenodd;stroke:rgb(0, 0, 0);stroke-width:3.0;" d="M 554.735, 378.551 L 531.493, 533.358 L 510.284, 493.261 L 523.101, 384.974 L 546.562, 376.927 z "/>
<path style="fill:rgb(92, 132, 255);fill-opacity:1.0;fill-rule:evenodd;stroke:rgb(0, 0, 0);stroke-width:3.0;" d="M 581.396, 108.879 L 552.413, 135.416 L 543.626, 121.749 L 576.478, 101.937 z "/>
<path style="fill:rgb(92, 132, 255);fill-opacity:1.0;fill-rule:evenodd;stroke:rgb(0, 0, 0);stroke-width:3.0;" d="M 511.225, 58.488 L 518.064, 75.1164 L 516.609, 79.7273 L 500.167, 54.1551 z "/>
<path style="fill:rgb(92, 132, 255);fill-opacity:1.0;fill-rule:evenodd;stroke:rgb(0, 0, 0);stroke-width:3.0;" d="M 786.808, 65.452 L 727.703, 86.3616 L 702.991, 42.6973 z "/>
<path style="fill:rgb(92, 132, 255);fill-opacity:1.0;fill-rule:evenodd;stroke:rgb(0, 0, 0);stroke-width:3.0;" d="M 446.251, 225.872 L 393.701, 279.955 L 375.077, 235.317 L 401.736, 217.536 z "/>
<path style="fill:rgb(13, 255, 97);fill-opacity:1.0;fill-rule:evenodd;stroke:rgb(0, 0, 0);stroke-width:3.0;" d="M 134.934, 289.018 L 131.593, 292.805 L 129.969, 294.152 L 52.9119, 278.841 L 103.868, 224.72 z "/>
<path style="fill:rgb(13, 255, 97);fill-opacity:1.0;fill-rule:evenodd;stroke:rgb(0, 0, 0);stroke-width:3.0;" d="M 600.637, 150.867 L 594.725, 183.276 L 570.686, 184.16 L 596.462, 149.966 z "/>
<path style="fill:rgb(249, 249, 57);fill-opacity:1.0;fill-rule:evenodd;stroke:rgb(0, 0, 0);stroke-width:3.0;" d="M 491.098, 153.611 L 482.879, 168.245 L 468.933, 147.939 L 475.285, 143.006 z "/>
<path style="fill:rgb(249, 249, 57);fill-opacity:1.0;fill-rule:evenodd;stroke:rgb(0, 0, 0);stroke-width:3.0;" d="M 555.605, 560.159 L 539.776, 572.377 L 525.627, 572.428 L 526.873, 564.132 L 558.823, 550.128 z "/>
<path style="fill:rgb(249, 249, 57);fill-opacity:1.0;fill-rule:evenodd;stroke:rgb(0, 0, 0);stroke-width:3.0;" d="M 656.97, 427.945 L 623.226, 486.678 L 638.652, 420.437 z "/>
<path style="fill:rgb(255, 16, 45);fill-opacity:1.0;fill-rule:evenodd;stroke:rgb(0, 0, 0);stroke-width:3.0;" d="M 701.989, 172.744 L 670.528, 165.953 L 679.008, 162.234 L 692.327, 160.899 z "/>
<path style="fill:rgb(255, 16, 45);fill-opacity:1.0;fill-rule:evenodd;stroke:rgb(0, 0, 0);stroke-width:3.0;" d="M 638.652, 420.437 L 623.226, 486.678 L 618.167, 495.483 L 623.533, 414.239 z "/>
<path style="fill:rgb(240, 0, 62);fill-opacity:1.0;fill-rule:evenodd;stroke:rgb(0, 0, 0);stroke-width:3.0;" d="M 745.764, 308.479 L 779.352, 344.385 L 744.812, 410.543 L 666.008, 319.084 L 665.668, 317.106 L 727.05, 307.735 z "/>
<path style="fill:rgb(255, 82, 255);fill-opacity:1.0;fill-rule:evenodd;stroke:rgb(0, 0, 0);stroke-width:3.0;" d="M 750.816, 417.512 L 757.566, 425.345 L 683.709, 486.569 L 719.904, 411.369 z "/>
<path style="fill:rgb(255, 226, 117);fill-opacity:1.0;fill-rule:evenodd;stroke:rgb(0, 0, 0);stroke-width:3.0;" d="M 678.432, 209.064 L 669.404, 226.849 L 661.066, 217.935 L 665.713, 203.688 z "/>
<path style="fill:rgb(22, 130, 252);fill-opacity:1.0;fill-rule:evenodd;stroke:rgb(0, 0, 0);stroke-width:3.0;" d="M 659.404, 297.32 L 652.364, 303.249 L 636.047, 284.312 L 642.724, 281.941 z "/>
<path style="fill:rgb(255, 7, 60);fill-opacity:1.0;fill-rule:evenodd;stroke:rgb(0, 0, 0);stroke-width:3.0;" d="M 519.118, 109.716 L 511.876, 122.457 L 504.118, 117.982 L 509.208, 104.728 z "/>
<path style="fill:rgb(69, 234, 252);fill-opacity:1.0;fill-rule:evenodd;stroke:rgb(0, 0, 0);stroke-width:3.0;" d="M 720.83, 271.511 L 721.449, 273.44 L 712.877, 273.322 L 694.025, 253.169 L 696.584, 241.184 z "/>
<path style="fill:rgb(69, 234, 252);fill-opacity:1.0;fill-rule:evenodd;stroke:rgb(0, 0, 0);stroke-width:3.0;" d="M 382.528, 104.657 L 381.7, 98.9603 L 388.365, 94.4445 L 427.439, 87.2315 z "/>
<path style="fill:rgb(246, 0, 6);fill-opacity:1.0;fill-rule:evenodd;stroke:rgb(0, 0, 0);stroke-width:3.0;" d="M 719.207, 380.826 L 700.057, 407.426 L 676.442, 402.734 L 542.332, 217.588 L 565.203, 202.091 z "/>
<path style="fill:rgb(255, 119, 146);fill-opacity:1.0;fill-rule:evenodd;stroke:rgb(0, 0, 0);stroke-width:3.0;" d="M 389.259, 269.31 L 378.613, 278.049 L 350.26, 251.87 L 375.077, 235.317 z "/>
<path style="fill:rgb(255, 119, 146);fill-opacity:1.0;fill-rule:evenodd;stroke:rgb(0, 0, 0);stroke-width:3.0;" d="M 556.177, 141.271 L 541.999, 138.21 L 531.795, 127.663 L 544.074, 122.445 z "/>
<path style="fill:rgb(255, 119, 146);fill-opacity:1.0;fill-rule:evenodd;stroke:rgb(0, 0, 0);stroke-width:3.0;" d="M 435.899, 100.438 L 410.614, 113.418 L 414.577, 92.2224 L 428.846, 86.6858 z "/>
<path style="fill:rgb(255, 119, 146);fill-opacity:1.0;fill-rule:evenodd;stroke:rgb(0, 0, 0);stroke-width:3.0;" d="M 545.546, 28.3456 L 554.884, 48.0094 L 521.167, 45.8348 L 516.477, 29.0534 L 545.477, 28.2858 z "/>
<path style="fill:rgb(255, 119, 146);fill-opacity:1.0;fill-rule:evenodd;stroke:rgb(0, 0, 0);stroke-width:3.0;" d="M 338.248, 280.597 L 319.143, 294.82 L 307.129, 280.638 L 336.211, 261.241 z "/>
<path style="fill:rgb(255, 119, 146);fill-opacity:1.0;fill-rule:evenodd;stroke:rgb(0, 0, 0);stroke-width:3.0;" d="M 733.451, 397.358 L 750.816, 417.512 L 700.057, 407.426 L 710.148, 393.409 z "/>
<path style="fill:rgb(234, 26, 255);fill-opacity:1.0;fill-rule:evenodd;stroke:rgb(0, 0, 0);stroke-width:3.0;" d="M 712.161, 244.519 L 720.83, 271.511 L 693.22, 236.975 L 695.177, 234.485 z "/>
<path style="fill:rgb(255, 177, 15);fill-opacity:1.0;fill-rule:evenodd;stroke:rgb(0, 0, 0);stroke-width:3.0;" d="M 70.7451, 575.021 L 68.6263, 575.848 L 25.0682, 568.706 L 58.3915, 544.681 z "/>
<path style="fill:rgb(255, 255, 33);fill-opacity:1.0;fill-rule:evenodd;stroke:rgb(0, 0, 0);stroke-width:3.0;" d="M 504.313, 131.422 L 482.576, 135.093 L 464.112, 109.603 L 480.815, 104.15 z "/>
<path style="fill:rgb(255, 255, 33);fill-opacity:1.0;fill-rule:evenodd;stroke:rgb(0, 0, 0);stroke-width:3.0;" d="M 500.611, 159.991 L 504.47, 165.319 L 513.761, 186.2 L 488.901, 177.011 L 482.879, 168.245 L 491.098, 153.611 z "/>
<path style="fill:rgb(255, 57, 255);fill-opacity:1.0;fill-rule:evenodd;stroke:rgb(0, 0, 0);stroke-width:3.0;" d="M 725.757, 577.01 L 723.829, 587.521 L 680.51, 559.557 L 694.188, 526.656 z "/>
<path style="fill:rgb(150, 44, 64);fill-opacity:1.0;fill-rule:evenodd;stroke:rgb(0, 0, 0);stroke-width:3.0;" d="M 736.896, 516.269 L 725.757, 577.01 L 694.188, 526.656 L 697.811, 517.941 L 736.263, 516.002 z "/>
<path style="fill:rgb(45, 142, 255);fill-opacity:1.0;fill-rule:evenodd;stroke:rgb(0, 0, 0);stroke-width:3.0;" d="M 387.543, 286.294 L 364.332, 310.182 L 340.343, 258.485 L 350.26, 251.87 z "/>
<path style="fill:rgb(45, 142, 255);fill-opacity:1.0;fill-rule:evenodd;stroke:rgb(0, 0, 0);stroke-width:3.0;" d="M 314.512, 330.82 L 290.985, 326.145 L 269.489, 305.744 L 273.807, 302.863 z "/>
<path style="fill:rgb(246, 5, 226);fill-opacity:1.0;fill-rule:evenodd;stroke:rgb(0, 0, 0);stroke-width:3.0;" d="M 542.082, 141.35 L 540.749, 167.089 L 538.629, 170.119 L 519.238, 143.108 L 541.892, 138.583 z "/>
<path style="fill:rgb(234, 12, 30);fill-opacity:1.0;fill-rule:evenodd;stroke:rgb(0, 0, 0);stroke-width:3.0;" d="M 113.155, 561.138 L 115.645, 573.542 L 100.121, 569.963 L 107.284, 560.109 z "/>
<path style="fill:rgb(243, 215, 8);fill-opacity:1.0;fill-rule:evenodd;stroke:rgb(0, 0, 0);stroke-width:3.0;" d="M 188.705, 245.449 L 164.396, 265.606 L 158.943, 261.801 L 181.549, 236.176 z "/>
<path style="fill:rgb(255, 209, 39);fill-opacity:1.0;fill-rule:evenodd;stroke:rgb(0, 0, 0);stroke-width:3.0;" d="M 624.968, 392.506 L 622.783, 425.588 L 577.481, 423.351 L 597.684, 387.085 z "/>
<path style="fill:rgb(209, 2, 10);fill-opacity:1.0;fill-rule:evenodd;stroke:rgb(0, 0, 0);stroke-width:3.0;" d="M 647.082, 168.855 L 660.69, 180.851 L 641.953, 181.539 L 625.738, 167.134 L 625.65, 161.501 z "/>
<path style="fill:rgb(255, 0, 89);fill-opacity:1.0;fill-rule:evenodd;stroke:rgb(0, 0, 0);stroke-width:3.0;" d="M 780.147, 373.353 L 770.661, 399.714 L 764.364, 399.617 L 763.726, 381.864 L 778.141, 372.942 z "/>
<path style="fill:rgb(207, 17, 255);fill-opacity:1.0;fill-rule:evenodd;stroke:rgb(0, 0, 0);stroke-width:3.0;" d="M 462.923, 208.713 L 448.852, 202.469 L 471.997, 196.305 L 475.468, 195.803 z "/>
<path style="fill:rgb(255, 184, 255);fill-opacity:1.0;fill-rule:evenodd;stroke:rgb(0, 0, 0);stroke-width:3.0;" d="M 591.75, 68.2071 L 604.682, 79.3644 L 595.242, 82.4206 L 583.691, 67.1731 z "/>
<path style="fill:rgb(255, 184, 255);fill-opacity:1.0;fill-rule:evenodd;stroke:rgb(0, 0, 0);stroke-width:3.0;" d="M 446.372, 467.827 L 436.469, 479.107 L 364.471, 477.834 L 359.624, 428.922 z "/>
<path style="fill:rgb(255, 184, 255);fill-opacity:1.0;fill-rule:evenodd;stroke:rgb(0, 0, 0);stroke-width:3.0;" d="M 636.351, 547.002 L 632.126, 555.593 L 611.087, 546.767 L 620.707, 538.793 z "/>
<path style="fill:rgb(255, 184, 255);fill-opacity:1.0;fill-rule:evenodd;stroke:rgb(0, 0, 0);stroke-width:3.0;" d="M 585.219, 431.393 L 585.501, 440.878 L 564.321, 443.356 L 549.683, 428.07 z "/>
<path style="fill:rgb(197, 5, 32);fill-opacity:1.0;fill-rule:evenodd;stroke:rgb(0, 0, 0);stroke-width:3.0;" d="M 546.255, 28.957 L 588.072, 80.2407 L 570.818, 81.5623 L 545.546, 28.3456 z "/>
<path style="fill:rgb(197, 5, 32);fill-opacity:1.0;fill-rule:evenodd;stroke:rgb(0, 0, 0);stroke-width:3.0;" d="M 506.269, 42.3013 L 521.332, 56.7244 L 512.407, 58.9512 L 500.167, 54.1551 L 494.107, 44.7294 L 492.761, 41.6305 z "/>
<path style="fill:rgb(252, 246, 82);fill-opacity:1.0;fill-rule:evenodd;stroke:rgb(0, 0, 0);stroke-width:3.0;" d="M 668.541, 407.805 L 658.695, 424.943 L 651.922, 425.281 L 664.489, 405.928 z "/>
<path style="fill:rgb(34, 21, 249);fill-opacity:1.0;fill-rule:evenodd;stroke:rgb(0, 0, 0);stroke-width:3.0;" d="M 640.099, 159.385 L 589.905, 148.551 L 615.658, 123.469 z "/>
<path style="fill:rgb(202, 128, 240);fill-opacity:1.0;fill-rule:evenodd;stroke:rgb(0, 0, 0);stroke-width:3.0;" d="M 652.509, 162.064 L 640.099, 159.385 L 615.658, 123.469 L 619.992, 119.247 z "/>
<path style="fill:rgb(246, 24, 255);fill-opacity:1.0;fill-rule:evenodd;stroke:rgb(0, 0, 0);stroke-width:3.0;" d="M 528.37, 98.0201 L 528.618, 104.559 L 527.509, 107.118 L 509.205, 131.132 L 508.856, 131.057 L 509.682, 126.318 L 526.988, 95.8707 z "/>
<path style="fill:rgb(255, 54, 134);fill-opacity:1.0;fill-rule:evenodd;stroke:rgb(0, 0, 0);stroke-width:3.0;" d="M 483.79, 66.5085 L 461.879, 82.1742 L 418.347, 31.6508 L 463.11, 30.466 z "/>
<path style="fill:rgb(255, 54, 134);fill-opacity:1.0;fill-rule:evenodd;stroke:rgb(0, 0, 0);stroke-width:3.0;" d="M 552.995, 140.584 L 549.435, 167.641 L 544.058, 170.13 L 541.892, 138.583 L 542.844, 138.393 z "/>
<path style="fill:rgb(255, 54, 134);fill-opacity:1.0;fill-rule:evenodd;stroke:rgb(0, 0, 0);stroke-width:3.0;" d="M 464.424, 126.397 L 465.398, 128.995 L 464.854, 130.811 L 448.717, 118.505 L 445.615, 113.988 L 449.668, 111.616 z "/>
<path style="fill:rgb(255, 54, 134);fill-opacity:1.0;fill-rule:evenodd;stroke:rgb(0, 0, 0);stroke-width:3.0;" d="M 499.548, 16.1483 L 499.865, 16.9742 L 497.938, 20.6857 L 466.326, 13.9346 L 467.635, 9.63903 z "/>
<path style="fill:rgb(146, 126, 246);fill-opacity:1.0;fill-rule:evenodd;stroke:rgb(0, 0, 0);stroke-width:3.0;" d="M 480.815, 104.15 L 464.112, 109.603 L 452.167, 93.1127 L 466.619, 87.6752 z "/>
<path style="fill:rgb(231, 83, 10);fill-opacity:1.0;fill-rule:evenodd;stroke:rgb(0, 0, 0);stroke-width:3.0;" d="M 573.876, 572.573 L 562.278, 555.008 L 580.405, 541.016 L 594.926, 535.934 z "/>
<path style="fill:rgb(107, 197, 249);fill-opacity:1.0;fill-rule:evenodd;stroke:rgb(0, 0, 0);stroke-width:3.0;" d="M 593.341, 536.489 L 576.164, 542.5 L 544.095, 449.418 L 544.66, 445.656 L 577.908, 441.766 z "/>
<path style="fill:rgb(107, 197, 249);fill-opacity:1.0;fill-rule:evenodd;stroke:rgb(0, 0, 0);stroke-width:3.0;" d="M 755.736, 531.411 L 733.919, 594.034 L 723.829, 587.521 L 738.65, 506.704 z "/>
<path style="fill:rgb(255, 30, 255);fill-opacity:1.0;fill-rule:evenodd;stroke:rgb(0, 0, 0);stroke-width:3.0;" d="M 753.888, 55.8344 L 740.453, 47.0143 L 750.349, 36.9881 z "/>
<path style="fill:rgb(240, 0, 42);fill-opacity:1.0;fill-rule:evenodd;stroke:rgb(0, 0, 0);stroke-width:3.0;" d="M 500.451, 54.5958 L 483.79, 66.5085 L 463.11, 30.466 L 484.572, 29.8979 z "/>
<path style="fill:rgb(33, 217, 252);fill-opacity:1.0;fill-rule:evenodd;stroke:rgb(0, 0, 0);stroke-width:3.0;" d="M 436.469, 479.107 L 389.931, 532.114 L 349.657, 513.135 L 385.129, 478.199 z "/>
<path style="fill:rgb(226, 0, 38);fill-opacity:1.0;fill-rule:evenodd;stroke:rgb(0, 0, 0);stroke-width:3.0;" d="M 385.129, 478.199 L 349.657, 513.135 L 271.251, 476.185 z "/>
<path style="fill:rgb(209, 26, 240);fill-opacity:1.0;fill-rule:evenodd;stroke:rgb(0, 0, 0);stroke-width:3.0;" d="M 566.114, 513.33 L 553.198, 505.907 L 539.824, 477.868 L 544.095, 449.418 z "/>
<path style="fill:rgb(209, 26, 240);fill-opacity:1.0;fill-rule:evenodd;stroke:rgb(0, 0, 0);stroke-width:3.0;" d="M 790.486, 184.474 L 790.393, 184.759 L 775.662, 168.566 L 775.657, 161.642 L 780.938, 161.268 z "/>
<path style="fill:rgb(255, 4, 8);fill-opacity:1.0;fill-rule:evenodd;stroke:rgb(0, 0, 0);stroke-width:3.0;" d="M 566.114, 513.33 L 576.164, 542.5 L 527.567, 559.508 L 537.011, 496.604 z "/>
<path style="fill:rgb(255, 4, 8);fill-opacity:1.0;fill-rule:evenodd;stroke:rgb(0, 0, 0);stroke-width:3.0;" d="M 629.59, 193.022 L 612.372, 201.138 L 607.924, 194.024 L 621.084, 186.259 L 637.365, 184.784 z "/>
<path style="fill:rgb(249, 27, 202);fill-opacity:1.0;fill-rule:evenodd;stroke:rgb(0, 0, 0);stroke-width:3.0;" d="M 686.461, 306.12 L 668.159, 305.392 L 628.065, 268.424 L 633.058, 261.441 z "/>
<path style="fill:rgb(33, 255, 252);fill-opacity:1.0;fill-rule:evenodd;stroke:rgb(0, 0, 0);stroke-width:3.0;" d="M 633.058, 261.441 L 628.065, 268.424 L 600.3, 242.824 L 573.166, 211.333 z "/>
<path style="fill:rgb(255, 212, 24);fill-opacity:1.0;fill-rule:evenodd;stroke:rgb(0, 0, 0);stroke-width:3.0;" d="M 716.061, 474.041 L 707.296, 495.126 L 666.32, 531.567 L 657.635, 508.182 L 709.779, 464.958 z "/>
<path style="fill:rgb(24, 102, 187);fill-opacity:1.0;fill-rule:evenodd;stroke:rgb(0, 0, 0);stroke-width:3.0;" d="M 669.9, 305.461 L 679.727, 314.959 L 665.668, 317.106 L 663.624, 305.212 z "/>
<path style="fill:rgb(255, 1, 17);fill-opacity:1.0;fill-rule:evenodd;stroke:rgb(0, 0, 0);stroke-width:3.0;" d="M 777.857, 48.7594 L 778.311, 49.8894 L 752.576, 45.3089 L 750.387, 35.1351 z "/>
<path style="fill:rgb(255, 1, 17);fill-opacity:1.0;fill-rule:evenodd;stroke:rgb(0, 0, 0);stroke-width:3.0;" d="M 339.617, 127.627 L 326.515, 144.343 L 320.722, 145.725 L 319.745, 136.793 L 334.088, 124.9 z "/>
<path style="fill:rgb(255, 1, 17);fill-opacity:1.0;fill-rule:evenodd;stroke:rgb(0, 0, 0);stroke-width:3.0;" d="M 565.203, 202.091 L 542.332, 217.588 L 482.576, 135.093 L 504.313, 131.422 z "/>
<path style="fill:rgb(255, 36, 255);fill-opacity:1.0;fill-rule:evenodd;stroke:rgb(0, 0, 0);stroke-width:3.0;" d="M 701.996, 407.811 L 715.348, 420.836 L 683.709, 486.569 L 665.814, 501.402 L 675.327, 402.512 z "/>
<path style="fill:rgb(252, 237, 27);fill-opacity:1.0;fill-rule:evenodd;stroke:rgb(0, 0, 0);stroke-width:3.0;" d="M 719.804, 200.493 L 709.158, 207.987 L 705.938, 195.767 L 714.473, 195.194 z "/>
<path style="fill:rgb(197, 20, 47);fill-opacity:1.0;fill-rule:evenodd;stroke:rgb(0, 0, 0);stroke-width:3.0;" d="M 545.208, 489.157 L 544.171, 500.719 L 537.011, 496.604 L 539.824, 477.868 z "/>
<path style="fill:rgb(255, 48, 100);fill-opacity:1.0;fill-rule:evenodd;stroke:rgb(0, 0, 0);stroke-width:3.0;" d="M 554.884, 48.0094 L 570.981, 81.9044 L 531.453, 66.4147 L 525.261, 60.4859 L 521.167, 45.8348 z "/>
<path style="fill:rgb(255, 243, 170);fill-opacity:1.0;fill-rule:evenodd;stroke:rgb(0, 0, 0);stroke-width:3.0;" d="M 161.81, 267.75 L 136.189, 288.994 L 137.199, 286.45 L 154.44, 266.906 z "/>
<path style="fill:rgb(16, 19, 252);fill-opacity:1.0;fill-rule:evenodd;stroke:rgb(0, 0, 0);stroke-width:3.0;" d="M 620.521, 459.846 L 618.167, 495.483 L 594.926, 535.934 L 593.341, 536.489 L 578.375, 444.628 z "/>
<path style="fill:rgb(255, 75, 12);fill-opacity:1.0;fill-rule:evenodd;stroke:rgb(0, 0, 0);stroke-width:3.0;" d="M 220.788, 191.694 L 134.934, 289.018 L 92.2389, 200.652 L 151.44, 180.46 z "/>
<path style="fill:rgb(255, 112, 182);fill-opacity:1.0;fill-rule:evenodd;stroke:rgb(0, 0, 0);stroke-width:3.0;" d="M 499.423, 192.332 L 401.779, 206.479 L 377.407, 130.465 L 436.201, 100.282 z "/>
<path style="fill:rgb(255, 112, 182);fill-opacity:1.0;fill-rule:evenodd;stroke:rgb(0, 0, 0);stroke-width:3.0;" d="M 359.624, 428.922 L 364.471, 477.834 L 362.572, 477.8 L 290.349, 397.853 z "/>
<path style="fill:rgb(215, 24, 49);fill-opacity:1.0;fill-rule:evenodd;stroke:rgb(0, 0, 0);stroke-width:3.0;" d="M 573.879, 145.092 L 560.096, 168.577 L 549.455, 171.028 L 550.701, 158.015 L 551.394, 152.754 L 567.452, 143.704 z "/>
<path style="fill:rgb(252, 146, 12);fill-opacity:1.0;fill-rule:evenodd;stroke:rgb(0, 0, 0);stroke-width:3.0;" d="M 350.015, 132.757 L 350.889, 138.526 L 326.515, 144.343 L 339.617, 127.627 z "/>
<path style="fill:rgb(255, 15, 15);fill-opacity:1.0;fill-rule:evenodd;stroke:rgb(0, 0, 0);stroke-width:3.0;" d="M 664.83, 534.762 L 664.972, 549.527 L 648.798, 539.086 L 639.84, 522.933 L 653.3, 511.775 z "/>
<path style="fill:rgb(255, 15, 15);fill-opacity:1.0;fill-rule:evenodd;stroke:rgb(0, 0, 0);stroke-width:3.0;" d="M 707.272, 306.948 L 684.43, 314.241 L 679.727, 314.959 L 669.9, 305.461 z "/>
<path style="fill:rgb(40, 15, 209);fill-opacity:1.0;fill-rule:evenodd;stroke:rgb(0, 0, 0);stroke-width:3.0;" d="M 545.477, 28.2858 L 519.049, 28.9853 L 535.695, 19.8471 z "/>
<path style="fill:rgb(255, 37, 165);fill-opacity:1.0;fill-rule:evenodd;stroke:rgb(0, 0, 0);stroke-width:3.0;" d="M 535.695, 19.8471 L 519.049, 28.9853 L 511.924, 29.1739 L 522.241, 8.239 z "/>
<path style="fill:rgb(19, 81, 255);fill-opacity:1.0;fill-rule:evenodd;stroke:rgb(0, 0, 0);stroke-width:3.0;" d="M 619.992, 119.247 L 589.905, 148.551 L 567.933, 143.808 L 606.337, 113.12 L 612.5, 109.382 z "/>
<path style="fill:rgb(59, 228, 177);fill-opacity:1.0;fill-rule:evenodd;stroke:rgb(0, 0, 0);stroke-width:3.0;" d="M 347.431, 273.761 L 338.248, 280.597 L 336.211, 261.241 L 340.343, 258.485 z "/>
<path style="fill:rgb(22, 115, 212);fill-opacity:1.0;fill-rule:evenodd;stroke:rgb(0, 0, 0);stroke-width:3.0;" d="M 401.779, 206.479 L 250.778, 228.356 L 257.651, 191.942 L 377.407, 130.465 z "/>
<path style="fill:rgb(44, 25, 255);fill-opacity:1.0;fill-rule:evenodd;stroke:rgb(0, 0, 0);stroke-width:3.0;" d="M 764.196, 22.8893 L 732.495, 50.7071 L 702.991, 42.6973 L 692.015, 23.3027 L 751.556, 9.00774 z "/>
<path style="fill:rgb(255, 6, 35);fill-opacity:1.0;fill-rule:evenodd;stroke:rgb(0, 0, 0);stroke-width:3.0;" d="M 364.742, 103.417 L 372.723, 119.356 L 352.015, 132.199 L 350.96, 126.992 L 360.464, 103.029 L 360.649, 102.876 z "/>
</svg>