<?xml version="1.0" encoding="iso-8859-1" standalone="no"?>
<!DOCTYPE svg PUBLIC "-//W3C//DTD SVG 1.0//EN" "http://www.w3.org/TR/2001/REC-SVG-20010904/DTD/svg10.dtd">
<svg xmlns="http://www.w3.org/2000/svg" width="800" height="600">
<path style="fill:rgb(0, 0, 0);fill-opacity:0.0;fill-rule:evenodd;stroke:rgb(0, 0, 0);stroke-width:0.0;" d="M 0, 600 L 800, 600 L 800, 0 L 0, 0 z "/>
<path style="fill:rgb(22, 10, 255);fill-opacity:1.0;fill-rule:evenodd;stroke:rgb(0, 0, 0);stroke-width:3.0;" d="M 755.842, 263.105 L 738.889, 283.644 L 735.378, 273.468 L 754.592, 262.887 z "/>
<path style="fill:rgb(22, 10, 255);fill-opacity:1.0;fill-rule:evenodd;stroke:rgb(0, 0, 0);stroke-width:3.0;" d="M 692.634, 190.59 L 692.086, 223.044 L 451.203, 227.872 L 465.747, 95.9034 L 539.768, 65.843 z "/>
<path style="fill:rgb(255, 255, 165);fill-opacity:1.0;fill-rule:evenodd;stroke:rgb(0, 0, 0);stroke-width:3.0;" d="M 571.184, 31.558 L 551.1, 38.2641 L 548.293, 36.481 L 566.061, 14.9667 z "/>
<path style="fill:rgb(255, 255, 165);fill-opacity:1.0;fill-rule:evenodd;stroke:rgb(0, 0, 0);stroke-width:3.0;" d="M 416.902, 73.1386 L 416.576, 73.1897 L 402.734, 61.8713 L 402.762, 61.2347 L 415.513, 56.4787 z "/>
<path style="fill:rgb(255, 255, 165);fill-opacity:1.0;fill-rule:evenodd;stroke:rgb(0, 0, 0);stroke-width:3.0;" d="M 252.087, 494.136 L 272.52, 525.283 L 240.816, 515.189 L 228.049, 503.027 L 240.189, 492.36 z "/>
<path style="fill:rgb(255, 255, 165);fill-opacity:1.0;fill-rule:evenodd;stroke:rgb(0, 0, 0);stroke-width:3.0;" d="M 406.919, 292.833 L 256.209, 318.604 L 411.141, 262.439 z "/>
<path style="fill:rgb(255, 255, 165);fill-opacity:1.0;fill-rule:evenodd;stroke:rgb(0, 0, 0);stroke-width:3.0;" d="M 136.505, 117.094 L 115.633, 120.366 L 36.0946, 105.12 L 43.2662, 69.6939 z "/>
<path style="fill:rgb(255, 255, 9);fill-opacity:1.0;fill-rule:evenodd;stroke:rgb(0, 0, 0);stroke-width:3.0;" d="M 271.96, 124.166 L 264.269, 137.169 L 237.34, 139.455 L 267.591, 123.513 z "/>
<path style="fill:rgb(255, 255, 9);fill-opacity:1.0;fill-rule:evenodd;stroke:rgb(0, 0, 0);stroke-width:3.0;" d="M 704.799, 238.609 L 695.152, 205.019 L 706.68, 189.335 L 707.185, 189.035 z "/>
<path style="fill:rgb(255, 255, 9);fill-opacity:1.0;fill-rule:evenodd;stroke:rgb(0, 0, 0);stroke-width:3.0;" d="M 303.834, 568.814 L 300.306, 567.638 L 255.877, 499.913 L 262.641, 497.355 z "/>
<path style="fill:rgb(255, 255, 9);fill-opacity:1.0;fill-rule:evenodd;stroke:rgb(0, 0, 0);stroke-width:3.0;" d="M 781.213, 187.12 L 767.824, 203.458 L 770.522, 184.119 L 776.265, 180.785 z "/>
<path style="fill:rgb(255, 255, 9);fill-opacity:1.0;fill-rule:evenodd;stroke:rgb(0, 0, 0);stroke-width:3.0;" d="M 38.2766, 474.883 L 26.8842, 485.315 L 9.43561, 480.526 L 40.5435, 464.799 z "/>
<path style="fill:rgb(255, 255, 9);fill-opacity:1.0;fill-rule:evenodd;stroke:rgb(0, 0, 0);stroke-width:3.0;" d="M 329.383, 55.3071 L 320.157, 67.6295 L 311.59, 46.7513 z "/>
<path style="fill:rgb(11, 223, 255);fill-opacity:1.0;fill-rule:evenodd;stroke:rgb(0, 0, 0);stroke-width:3.0;" d="M 566.948, 54.8051 L 465.747, 95.9034 L 471.631, 42.5188 L 513.853, 18.3739 z "/>
<path style="fill:rgb(11, 223, 255);fill-opacity:1.0;fill-rule:evenodd;stroke:rgb(0, 0, 0);stroke-width:3.0;" d="M 173.407, 501.29 L 169.228, 508.247 L 153.597, 514.952 L 152.916, 513.103 L 154.335, 500.407 z "/>
<path style="fill:rgb(11, 223, 255);fill-opacity:1.0;fill-rule:evenodd;stroke:rgb(0, 0, 0);stroke-width:3.0;" d="M 422.864, 114.136 L 410.991, 124.716 L 402.51, 125.436 L 429.142, 104.607 z "/>
<path style="fill:rgb(11, 223, 255);fill-opacity:1.0;fill-rule:evenodd;stroke:rgb(0, 0, 0);stroke-width:3.0;" d="M 330.325, 31.8567 L 321.538, 37.8834 L 311.721, 22.3098 L 313.485, 18.0531 z "/>
<path style="fill:rgb(11, 223, 255);fill-opacity:1.0;fill-rule:evenodd;stroke:rgb(0, 0, 0);stroke-width:3.0;" d="M 125.967, 406.51 L 119.954, 424.653 L 114.244, 427.54 L 108.057, 424.587 L 125.463, 405.938 z "/>
<path style="fill:rgb(11, 223, 255);fill-opacity:1.0;fill-rule:evenodd;stroke:rgb(0, 0, 0);stroke-width:3.0;" d="M 468.15, 74.0995 L 440.278, 95.8974 L 445.983, 68.5798 L 469.159, 64.9467 z "/>
<path style="fill:rgb(34, 243, 134);fill-opacity:1.0;fill-rule:evenodd;stroke:rgb(0, 0, 0);stroke-width:3.0;" d="M 250.501, 415.948 L 257.202, 431.916 L 229.838, 438.36 L 221.624, 423.967 L 241.395, 410.471 z "/>
<path style="fill:rgb(34, 243, 134);fill-opacity:1.0;fill-rule:evenodd;stroke:rgb(0, 0, 0);stroke-width:3.0;" d="M 227.597, 365.504 L 196.534, 380.002 L 195.327, 377.888 L 186.652, 349.921 z "/>
<path style="fill:rgb(34, 243, 134);fill-opacity:1.0;fill-rule:evenodd;stroke:rgb(0, 0, 0);stroke-width:3.0;" d="M 726.78, 94.9257 L 743.064, 112.211 L 732.171, 117.389 L 712.502, 89.5513 z "/>
<path style="fill:rgb(34, 243, 134);fill-opacity:1.0;fill-rule:evenodd;stroke:rgb(0, 0, 0);stroke-width:3.0;" d="M 71.9943, 138.191 L 72.0657, 153.483 L 59.4538, 154.553 L 50.2157, 133.445 L 57.5445, 130.144 z "/>
<path style="fill:rgb(255, 85, 56);fill-opacity:1.0;fill-rule:evenodd;stroke:rgb(0, 0, 0);stroke-width:3.0;" d="M 793.786, 486.168 L 718.987, 508.214 L 667.322, 480.287 z "/>
<path style="fill:rgb(12, 255, 249);fill-opacity:1.0;fill-rule:evenodd;stroke:rgb(0, 0, 0);stroke-width:3.0;" d="M 118.306, 383.019 L 106.586, 384.544 L 95.2203, 371.662 L 104.878, 353.973 z "/>
<path style="fill:rgb(12, 255, 249);fill-opacity:1.0;fill-rule:evenodd;stroke:rgb(0, 0, 0);stroke-width:3.0;" d="M 125.65, 334.119 L 74.8872, 348.618 L 52.9582, 323.765 z "/>
<path style="fill:rgb(54, 60, 192);fill-opacity:1.0;fill-rule:evenodd;stroke:rgb(0, 0, 0);stroke-width:3.0;" d="M 524.52, 340.884 L 516.325, 368.807 L 506.914, 331.6 L 517.369, 326.271 z "/>
<path style="fill:rgb(54, 60, 192);fill-opacity:1.0;fill-rule:evenodd;stroke:rgb(0, 0, 0);stroke-width:3.0;" d="M 331.086, 53.0317 L 321.538, 37.8834 L 334.198, 29.2009 L 350.416, 27.2143 z "/>
<path style="fill:rgb(246, 18, 18);fill-opacity:1.0;fill-rule:evenodd;stroke:rgb(0, 0, 0);stroke-width:3.0;" d="M 496.387, 289.982 L 478.176, 342.91 L 439.413, 334.851 L 451.203, 227.872 L 480.528, 227.284 z "/>
<path style="fill:rgb(246, 18, 18);fill-opacity:1.0;fill-rule:evenodd;stroke:rgb(0, 0, 0);stroke-width:3.0;" d="M 266.958, 504.843 L 246.393, 469.168 L 270.276, 452.13 z "/>
<path style="fill:rgb(67, 165, 255);fill-opacity:1.0;fill-rule:evenodd;stroke:rgb(0, 0, 0);stroke-width:3.0;" d="M 610.154, 26.5354 L 606.014, 38.94 L 601.914, 40.605 L 601.385, 24.7871 L 601.685, 24.4586 L 608.358, 23.3422 z "/>
<path style="fill:rgb(67, 165, 255);fill-opacity:1.0;fill-rule:evenodd;stroke:rgb(0, 0, 0);stroke-width:3.0;" d="M 193.481, 114.354 L 187.895, 125.613 L 185.17, 125.008 L 165.743, 112.511 L 185.894, 109.352 z "/>
<path style="fill:rgb(67, 165, 255);fill-opacity:1.0;fill-rule:evenodd;stroke:rgb(0, 0, 0);stroke-width:3.0;" d="M 421.205, 13.1262 L 422.673, 43.6311 L 399.321, 28.4001 L 407.873, 14.0849 L 419.047, 11.8763 z "/>
<path style="fill:rgb(67, 165, 255);fill-opacity:1.0;fill-rule:evenodd;stroke:rgb(0, 0, 0);stroke-width:3.0;" d="M 440.278, 95.8974 L 402.51, 125.436 L 368.351, 128.335 L 328.865, 91.222 L 340.431, 85.1263 L 445.983, 68.5798 z "/>
<path style="fill:rgb(255, 10, 20);fill-opacity:1.0;fill-rule:evenodd;stroke:rgb(0, 0, 0);stroke-width:3.0;" d="M 215.633, 413.469 L 180.93, 393.827 L 199.163, 384.609 z "/>
<path style="fill:rgb(255, 10, 20);fill-opacity:1.0;fill-rule:evenodd;stroke:rgb(0, 0, 0);stroke-width:3.0;" d="M 789.23, 270.26 L 780.446, 276.399 L 772.893, 242.446 L 782.423, 230.901 z "/>
<path style="fill:rgb(255, 10, 20);fill-opacity:1.0;fill-rule:evenodd;stroke:rgb(0, 0, 0);stroke-width:3.0;" d="M 498.015, 314.994 L 487.587, 330.584 L 483.168, 328.402 L 486.673, 318.215 L 497.789, 313.545 z "/>
<path style="fill:rgb(255, 10, 20);fill-opacity:1.0;fill-rule:evenodd;stroke:rgb(0, 0, 0);stroke-width:3.0;" d="M 125.085, 463.032 L 113.194, 465.832 L 107.443, 448.96 z "/>
<path style="fill:rgb(255, 10, 20);fill-opacity:1.0;fill-rule:evenodd;stroke:rgb(0, 0, 0);stroke-width:3.0;" d="M 751.537, 234.472 L 704.997, 260.15 L 709.441, 242.31 L 730.337, 224.686 z "/>
<path style="fill:rgb(255, 10, 20);fill-opacity:1.0;fill-rule:evenodd;stroke:rgb(0, 0, 0);stroke-width:3.0;" d="M 92.9018, 369.035 L 56.2008, 395.232 L 24.477, 384.134 L 73.9593, 347.566 z "/>
<path style="fill:rgb(255, 10, 20);fill-opacity:1.0;fill-rule:evenodd;stroke:rgb(0, 0, 0);stroke-width:3.0;" d="M 460.994, 25.8346 L 466.207, 43.8294 L 432.44, 10.4744 z "/>
<path style="fill:rgb(255, 10, 20);fill-opacity:1.0;fill-rule:evenodd;stroke:rgb(0, 0, 0);stroke-width:3.0;" d="M 309.804, 536.717 L 312.178, 583.289 L 266.958, 504.843 L 270.276, 452.13 L 294.667, 434.729 z "/>
<path style="fill:rgb(255, 30, 115);fill-opacity:1.0;fill-rule:evenodd;stroke:rgb(0, 0, 0);stroke-width:3.0;" d="M 229.838, 438.36 L 219.583, 440.776 L 219.949, 421.031 z "/>
<path style="fill:rgb(252, 179, 9);fill-opacity:1.0;fill-rule:evenodd;stroke:rgb(0, 0, 0);stroke-width:3.0;" d="M 767.754, 192.473 L 764.61, 201.814 L 754.695, 212.842 L 747.442, 212.179 L 739.903, 201.893 L 756.382, 192.327 L 764.475, 189.34 z "/>
<path style="fill:rgb(252, 179, 9);fill-opacity:1.0;fill-rule:evenodd;stroke:rgb(0, 0, 0);stroke-width:3.0;" d="M 465.364, 99.3786 L 431.504, 118.258 L 467.426, 80.6703 z "/>
<path style="fill:rgb(252, 179, 9);fill-opacity:1.0;fill-rule:evenodd;stroke:rgb(0, 0, 0);stroke-width:3.0;" d="M 511.529, 349.844 L 516.822, 370.77 L 445.193, 387.64 L 441.427, 335.269 z "/>
<path style="fill:rgb(61, 40, 255);fill-opacity:1.0;fill-rule:evenodd;stroke:rgb(0, 0, 0);stroke-width:3.0;" d="M 706.224, 80.6661 L 760.4, 157.341 L 750.37, 163.314 L 693.439, 142.984 L 694.593, 74.7211 z "/>
<path style="fill:rgb(255, 72, 14);fill-opacity:1.0;fill-rule:evenodd;stroke:rgb(0, 0, 0);stroke-width:3.0;" d="M 716.541, 213.802 L 716.749, 183.338 L 725.415, 178.177 z "/>
<path style="fill:rgb(92, 255, 234);fill-opacity:1.0;fill-rule:evenodd;stroke:rgb(0, 0, 0);stroke-width:3.0;" d="M 665.768, 410.23 L 660.585, 477.571 L 633.14, 410.205 z "/>
<path style="fill:rgb(202, 70, 17);fill-opacity:1.0;fill-rule:evenodd;stroke:rgb(0, 0, 0);stroke-width:3.0;" d="M 786.943, 506.485 L 774.138, 507.759 L 723.184, 510.483 L 718.987, 508.214 L 775.627, 491.52 z "/>
<path style="fill:rgb(202, 70, 17);fill-opacity:1.0;fill-rule:evenodd;stroke:rgb(0, 0, 0);stroke-width:3.0;" d="M 323.078, 121.698 L 301.124, 128.524 L 286.334, 126.313 L 280.551, 116.683 L 310.989, 100.642 z "/>
<path style="fill:rgb(202, 70, 17);fill-opacity:1.0;fill-rule:evenodd;stroke:rgb(0, 0, 0);stroke-width:3.0;" d="M 745.714, 219.571 L 758.116, 229.215 L 746.551, 232.171 L 730.337, 224.686 L 737.37, 218.754 z "/>
<path style="fill:rgb(202, 70, 17);fill-opacity:1.0;fill-rule:evenodd;stroke:rgb(0, 0, 0);stroke-width:3.0;" d="M 716.971, 297.036 L 715.381, 312.126 L 703.209, 326.873 L 690.279, 329.918 L 690.473, 318.466 L 703.485, 266.221 z "/>
<path style="fill:rgb(255, 19, 187);fill-opacity:1.0;fill-rule:evenodd;stroke:rgb(0, 0, 0);stroke-width:3.0;" d="M 736.41, 259.722 L 747.398, 266.849 L 739.742, 271.065 L 720.31, 265.356 L 721.183, 257.071 z "/>
<path style="fill:rgb(255, 11, 237);fill-opacity:1.0;fill-rule:evenodd;stroke:rgb(0, 0, 0);stroke-width:3.0;" d="M 275.845, 108.602 L 283.953, 114.89 L 266.782, 123.939 L 254.194, 102.702 z "/>
<path style="fill:rgb(255, 11, 237);fill-opacity:1.0;fill-rule:evenodd;stroke:rgb(0, 0, 0);stroke-width:3.0;" d="M 440.639, 514.882 L 398.932, 532.316 L 435.372, 481.348 z "/>
<path style="fill:rgb(255, 11, 237);fill-opacity:1.0;fill-rule:evenodd;stroke:rgb(0, 0, 0);stroke-width:3.0;" d="M 139.929, 140.876 L 123.107, 141.681 L 100.483, 127.98 L 105.903, 121.892 L 117.208, 120.119 z "/>
<path style="fill:rgb(255, 228, 37);fill-opacity:1.0;fill-rule:evenodd;stroke:rgb(0, 0, 0);stroke-width:3.0;" d="M 704.782, 238.97 L 704.111, 252.899 L 691.8, 239.954 L 691.857, 236.578 L 695.554, 234.398 z "/>
<path style="fill:rgb(255, 228, 37);fill-opacity:1.0;fill-rule:evenodd;stroke:rgb(0, 0, 0);stroke-width:3.0;" d="M 706.245, 255.142 L 701.94, 272.427 L 691.201, 275.402 L 691.8, 239.954 z "/>
<path style="fill:rgb(255, 226, 7);fill-opacity:1.0;fill-rule:evenodd;stroke:rgb(0, 0, 0);stroke-width:3.0;" d="M 172.874, 131.847 L 173.654, 132.552 L 168.602, 145.289 L 165.144, 145.583 L 160.304, 127.368 z "/>
<path style="fill:rgb(255, 226, 7);fill-opacity:1.0;fill-rule:evenodd;stroke:rgb(0, 0, 0);stroke-width:3.0;" d="M 160.512, 128.149 L 165.144, 145.583 L 159.778, 146.038 L 132.115, 133.738 L 118.17, 120.999 z "/>
<path style="fill:rgb(255, 226, 7);fill-opacity:1.0;fill-rule:evenodd;stroke:rgb(0, 0, 0);stroke-width:3.0;" d="M 303.083, 428.724 L 293.109, 435.84 L 283.018, 432.054 L 286.346, 425.052 L 296.871, 422.573 z "/>
<path style="fill:rgb(255, 226, 7);fill-opacity:1.0;fill-rule:evenodd;stroke:rgb(0, 0, 0);stroke-width:3.0;" d="M 132.535, 442.992 L 108.606, 449.888 L 93.6442, 437.954 L 134.965, 417.064 z "/>
<path style="fill:rgb(255, 226, 7);fill-opacity:1.0;fill-rule:evenodd;stroke:rgb(0, 0, 0);stroke-width:3.0;" d="M 555.288, 302.003 L 533.954, 308.734 L 554.028, 240.327 z "/>
<path style="fill:rgb(255, 226, 7);fill-opacity:1.0;fill-rule:evenodd;stroke:rgb(0, 0, 0);stroke-width:3.0;" d="M 275.36, 438.997 L 275.885, 447.061 L 275.118, 448.675 L 268.936, 453.086 L 240.37, 445.966 L 260.468, 437.231 z "/>
<path style="fill:rgb(255, 226, 7);fill-opacity:1.0;fill-rule:evenodd;stroke:rgb(0, 0, 0);stroke-width:3.0;" d="M 279.806, 420.489 L 235.457, 392.15 L 257.558, 369.49 z "/>
<path style="fill:rgb(255, 226, 7);fill-opacity:1.0;fill-rule:evenodd;stroke:rgb(0, 0, 0);stroke-width:3.0;" d="M 428.079, 140.508 L 426.081, 154.893 L 403.098, 125.386 L 412.741, 124.567 z "/>
<path style="fill:rgb(197, 246, 22);fill-opacity:1.0;fill-rule:evenodd;stroke:rgb(0, 0, 0);stroke-width:3.0;" d="M 700.334, 406.487 L 678.017, 394.595 L 692.718, 366.494 z "/>
<path style="fill:rgb(197, 246, 22);fill-opacity:1.0;fill-rule:evenodd;stroke:rgb(0, 0, 0);stroke-width:3.0;" d="M 258.943, 110.714 L 234.993, 128.342 L 245.01, 100.085 L 251.994, 98.9901 z "/>
<path style="fill:rgb(69, 252, 246);fill-opacity:1.0;fill-rule:evenodd;stroke:rgb(0, 0, 0);stroke-width:3.0;" d="M 163.572, 354.342 L 148.414, 377.442 L 140.109, 368.099 L 160.562, 351.389 z "/>
<path style="fill:rgb(69, 252, 246);fill-opacity:1.0;fill-rule:evenodd;stroke:rgb(0, 0, 0);stroke-width:3.0;" d="M 290.676, 111.347 L 283.953, 114.89 L 261.527, 97.4956 L 292.954, 92.569 z "/>
<path style="fill:rgb(249, 24, 192);fill-opacity:1.0;fill-rule:evenodd;stroke:rgb(0, 0, 0);stroke-width:3.0;" d="M 556.503, 361.425 L 516.822, 370.77 L 516.325, 368.807 L 532.367, 314.143 L 555.464, 310.592 z "/>
<path style="fill:rgb(249, 24, 192);fill-opacity:1.0;fill-rule:evenodd;stroke:rgb(0, 0, 0);stroke-width:3.0;" d="M 385.195, 52.0446 L 324.851, 61.3605 L 351.975, 25.133 L 407.873, 14.0849 z "/>
<path style="fill:rgb(255, 255, 27);fill-opacity:1.0;fill-rule:evenodd;stroke:rgb(0, 0, 0);stroke-width:3.0;" d="M 750.37, 163.314 L 714.553, 184.646 L 692.698, 186.856 L 693.439, 142.984 z "/>
<path style="fill:rgb(70, 33, 207);fill-opacity:1.0;fill-rule:evenodd;stroke:rgb(0, 0, 0);stroke-width:3.0;" d="M 343.609, 130.435 L 324.673, 132.042 L 322.993, 131.791 L 329.972, 116.016 L 335.161, 115.489 z "/>
<path style="fill:rgb(70, 33, 207);fill-opacity:1.0;fill-rule:evenodd;stroke:rgb(0, 0, 0);stroke-width:3.0;" d="M 237.34, 139.455 L 232.217, 139.89 L 231.149, 139.186 L 233.489, 132.587 L 264.658, 125.059 z "/>
<path style="fill:rgb(255, 119, 7);fill-opacity:1.0;fill-rule:evenodd;stroke:rgb(0, 0, 0);stroke-width:3.0;" d="M 266.782, 123.939 L 264.658, 125.059 L 233.489, 132.587 L 234.993, 128.342 L 258.943, 110.714 z "/>
<path style="fill:rgb(255, 16, 82);fill-opacity:1.0;fill-rule:evenodd;stroke:rgb(0, 0, 0);stroke-width:3.0;" d="M 440.527, 174.043 L 440.115, 233.569 L 420.284, 196.624 L 428.959, 134.172 z "/>
<path style="fill:rgb(119, 197, 187);fill-opacity:1.0;fill-rule:evenodd;stroke:rgb(0, 0, 0);stroke-width:3.0;" d="M 237.863, 120.246 L 234.652, 129.305 L 219.48, 119.834 L 214.669, 114.982 L 214.424, 114.382 z "/>
<path style="fill:rgb(255, 121, 19);fill-opacity:1.0;fill-rule:evenodd;stroke:rgb(0, 0, 0);stroke-width:3.0;" d="M 705.358, 342.333 L 646.59, 386.672 L 657.297, 337.686 L 714.885, 324.123 z "/>
<path style="fill:rgb(194, 2, 14);fill-opacity:1.0;fill-rule:evenodd;stroke:rgb(0, 0, 0);stroke-width:3.0;" d="M 241.395, 410.471 L 231.415, 417.283 L 221.186, 406.782 L 226.391, 401.445 z "/>
<path style="fill:rgb(255, 255, 86);fill-opacity:1.0;fill-rule:evenodd;stroke:rgb(0, 0, 0);stroke-width:3.0;" d="M 263.139, 363.768 L 252.283, 374.899 L 197.174, 353.925 z "/>
<path style="fill:rgb(243, 249, 11);fill-opacity:1.0;fill-rule:evenodd;stroke:rgb(0, 0, 0);stroke-width:3.0;" d="M 196.036, 386.19 L 168.543, 400.089 L 148.414, 377.442 L 163.572, 354.342 z "/>
<path style="fill:rgb(243, 249, 11);fill-opacity:1.0;fill-rule:evenodd;stroke:rgb(0, 0, 0);stroke-width:3.0;" d="M 747.442, 212.179 L 725.62, 210.185 L 739.903, 201.893 z "/>
<path style="fill:rgb(66, 202, 91);fill-opacity:1.0;fill-rule:evenodd;stroke:rgb(0, 0, 0);stroke-width:3.0;" d="M 326.761, 123.274 L 322.993, 131.791 L 315.667, 130.697 L 304.793, 127.383 L 326.502, 120.633 z "/>
<path style="fill:rgb(66, 202, 91);fill-opacity:1.0;fill-rule:evenodd;stroke:rgb(0, 0, 0);stroke-width:3.0;" d="M 691.094, 365.191 L 646.136, 395.811 L 645.469, 391.803 L 646.59, 386.672 L 694.931, 350.2 z "/>
<path style="fill:rgb(66, 202, 91);fill-opacity:1.0;fill-rule:evenodd;stroke:rgb(0, 0, 0);stroke-width:3.0;" d="M 42.3039, 106.31 L 34.2756, 129.724 L 31.5266, 127.685 L 36.0946, 105.12 z "/>
<path style="fill:rgb(243, 107, 255);fill-opacity:1.0;fill-rule:evenodd;stroke:rgb(0, 0, 0);stroke-width:3.0;" d="M 743.826, 344.512 L 725.5, 321.623 L 746.737, 316.621 z "/>
<path style="fill:rgb(255, 189, 47);fill-opacity:1.0;fill-rule:evenodd;stroke:rgb(0, 0, 0);stroke-width:3.0;" d="M 451.83, 549.011 L 445.717, 547.217 L 431.685, 457.872 L 433.93, 453.955 z "/>
<path style="fill:rgb(255, 189, 47);fill-opacity:1.0;fill-rule:evenodd;stroke:rgb(0, 0, 0);stroke-width:3.0;" d="M 626.967, 395.054 L 610.462, 354.539 L 628.793, 344.399 L 630.556, 343.984 z "/>
<path style="fill:rgb(255, 11, 8);fill-opacity:1.0;fill-rule:evenodd;stroke:rgb(0, 0, 0);stroke-width:3.0;" d="M 513.152, 232.493 L 506.077, 226.772 L 542.635, 226.039 z "/>
<path style="fill:rgb(255, 11, 8);fill-opacity:1.0;fill-rule:evenodd;stroke:rgb(0, 0, 0);stroke-width:3.0;" d="M 133.926, 148.232 L 133.099, 148.302 L 121.92, 144.406 L 84.6451, 125.224 L 93.612, 123.818 z "/>
<path style="fill:rgb(17, 175, 240);fill-opacity:1.0;fill-rule:evenodd;stroke:rgb(0, 0, 0);stroke-width:3.0;" d="M 691.191, 275.996 L 556.281, 350.594 L 553.731, 225.817 L 692.086, 223.044 z "/>
<path style="fill:rgb(17, 175, 240);fill-opacity:1.0;fill-rule:evenodd;stroke:rgb(0, 0, 0);stroke-width:3.0;" d="M 484.476, 14.8548 L 494.497, 25.9805 L 494.911, 29.2059 L 479.437, 38.0549 L 482.618, 14.0304 z "/>
<path style="fill:rgb(17, 175, 240);fill-opacity:1.0;fill-rule:evenodd;stroke:rgb(0, 0, 0);stroke-width:3.0;" d="M 359.965, 82.0642 L 302.619, 91.054 L 320.586, 67.0562 L 351.163, 57.2984 L 351.525, 57.2425 z "/>
<path style="fill:rgb(17, 175, 240);fill-opacity:1.0;fill-rule:evenodd;stroke:rgb(0, 0, 0);stroke-width:3.0;" d="M 503.487, 338.431 L 487.347, 344.816 L 479.672, 343.221 L 482.85, 329.326 L 483.168, 328.402 z "/>
<path style="fill:rgb(7, 138, 234);fill-opacity:1.0;fill-rule:evenodd;stroke:rgb(0, 0, 0);stroke-width:3.0;" d="M 329.3, 50.1972 L 325.427, 53.4051 L 311.59, 46.7513 L 306.732, 34.9102 L 313.469, 25.0826 z "/>
<path style="fill:rgb(7, 138, 234);fill-opacity:1.0;fill-rule:evenodd;stroke:rgb(0, 0, 0);stroke-width:3.0;" d="M 186.342, 362.142 L 199.163, 384.609 L 196.036, 386.19 L 160.562, 351.389 L 164.243, 348.382 z "/>
<path style="fill:rgb(7, 138, 234);fill-opacity:1.0;fill-rule:evenodd;stroke:rgb(0, 0, 0);stroke-width:3.0;" d="M 91.8114, 133.911 L 106.411, 150.568 L 95.8296, 151.466 L 56.6039, 129.62 L 72.3973, 127.144 z "/>
<path style="fill:rgb(60, 226, 255);fill-opacity:1.0;fill-rule:evenodd;stroke:rgb(0, 0, 0);stroke-width:3.0;" d="M 271.759, 354.93 L 265.125, 361.731 L 236.968, 349.975 z "/>
<path style="fill:rgb(255, 117, 14);fill-opacity:1.0;fill-rule:evenodd;stroke:rgb(0, 0, 0);stroke-width:3.0;" d="M 415.513, 56.4787 L 402.762, 61.2347 L 403.282, 49.2524 L 414.763, 47.4799 z "/>
<path style="fill:rgb(255, 240, 8);fill-opacity:1.0;fill-rule:evenodd;stroke:rgb(0, 0, 0);stroke-width:3.0;" d="M 80.244, 113.583 L 86.2007, 124.98 L 63.6308, 128.518 L 41.7449, 107.941 L 42.3039, 106.31 z "/>
<path style="fill:rgb(179, 0, 255);fill-opacity:1.0;fill-rule:evenodd;stroke:rgb(0, 0, 0);stroke-width:3.0;" d="M 313.087, 24.4767 L 305.069, 25.7326 L 300.809, 20.4748 L 296.86, 10.8494 L 302.144, 7.11622 z "/>
<path style="fill:rgb(179, 0, 255);fill-opacity:1.0;fill-rule:evenodd;stroke:rgb(0, 0, 0);stroke-width:3.0;" d="M 334.794, 105.116 L 328.157, 120.119 L 323.078, 121.698 L 310.989, 100.642 L 325.844, 92.8138 z "/>
<path style="fill:rgb(255, 3, 231);fill-opacity:1.0;fill-rule:evenodd;stroke:rgb(0, 0, 0);stroke-width:3.0;" d="M 743.826, 344.512 L 736.96, 410.283 L 701.052, 410.256 L 692.718, 366.494 L 714.885, 324.123 L 725.5, 321.623 z "/>
<path style="fill:rgb(246, 240, 11);fill-opacity:1.0;fill-rule:evenodd;stroke:rgb(0, 0, 0);stroke-width:3.0;" d="M 506.461, 13.3024 L 513.853, 18.3739 L 504.485, 23.7311 L 475.136, 10.7111 L 475.59, 6.59516 z "/>
<path style="fill:rgb(246, 240, 11);fill-opacity:1.0;fill-rule:evenodd;stroke:rgb(0, 0, 0);stroke-width:3.0;" d="M 745.899, 293.706 L 705.474, 326.339 L 703.209, 326.873 L 713.546, 314.349 L 745.816, 292.088 z "/>
<path style="fill:rgb(246, 240, 11);fill-opacity:1.0;fill-rule:evenodd;stroke:rgb(0, 0, 0);stroke-width:3.0;" d="M 766.495, 96.7312 L 762.341, 109.351 L 694.593, 74.7211 L 694.99, 51.254 L 713.725, 44.0441 z "/>
<path style="fill:rgb(255, 37, 16);fill-opacity:1.0;fill-rule:evenodd;stroke:rgb(0, 0, 0);stroke-width:3.0;" d="M 440.768, 139.087 L 440.527, 174.043 L 430.928, 140.959 L 438.694, 135.411 z "/>
<path style="fill:rgb(255, 37, 16);fill-opacity:1.0;fill-rule:evenodd;stroke:rgb(0, 0, 0);stroke-width:3.0;" d="M 620.708, 131.894 L 586.197, 103.732 L 595.538, 43.1943 L 625.34, 31.0917 z "/>
<path style="fill:rgb(255, 37, 16);fill-opacity:1.0;fill-rule:evenodd;stroke:rgb(0, 0, 0);stroke-width:3.0;" d="M 203.474, 120.942 L 215.336, 131.183 L 215.372, 131.715 L 187.895, 125.613 L 193.481, 114.354 z "/>
<path style="fill:rgb(255, 37, 16);fill-opacity:1.0;fill-rule:evenodd;stroke:rgb(0, 0, 0);stroke-width:3.0;" d="M 252.283, 374.899 L 218.849, 409.178 L 211.122, 400.847 L 228.323, 365.78 z "/>
<path style="fill:rgb(204, 23, 33);fill-opacity:1.0;fill-rule:evenodd;stroke:rgb(0, 0, 0);stroke-width:3.0;" d="M 509.377, 341.338 L 511.529, 349.844 L 497.193, 346.864 L 500.491, 339.616 L 503.487, 338.431 z "/>
<path style="fill:rgb(204, 23, 33);fill-opacity:1.0;fill-rule:evenodd;stroke:rgb(0, 0, 0);stroke-width:3.0;" d="M 771.136, 352.334 L 737.588, 404.266 L 744.506, 338 L 781.124, 308.522 L 787.977, 306.908 z "/>
<path style="fill:rgb(255, 138, 50);fill-opacity:1.0;fill-rule:evenodd;stroke:rgb(0, 0, 0);stroke-width:3.0;" d="M 654.796, 19.1294 L 615.062, 35.2658 L 606.207, 19.5151 L 611.443, 13.7904 z "/>
<path style="fill:rgb(234, 255, 10);fill-opacity:1.0;fill-rule:evenodd;stroke:rgb(0, 0, 0);stroke-width:3.0;" d="M 749.221, 129.947 L 743.707, 133.716 L 732.171, 117.389 L 739.15, 114.071 z "/>
<path style="fill:rgb(234, 255, 10);fill-opacity:1.0;fill-rule:evenodd;stroke:rgb(0, 0, 0);stroke-width:3.0;" d="M 463.059, 120.297 L 426.599, 123.391 L 431.504, 118.258 L 465.364, 99.3786 z "/>
<path style="fill:rgb(234, 255, 10);fill-opacity:1.0;fill-rule:evenodd;stroke:rgb(0, 0, 0);stroke-width:3.0;" d="M 786.75, 116.954 L 782.232, 119.518 L 762.341, 109.351 L 762.98, 107.413 L 771.201, 101.43 z "/>
<path style="fill:rgb(234, 255, 10);fill-opacity:1.0;fill-rule:evenodd;stroke:rgb(0, 0, 0);stroke-width:3.0;" d="M 37.8543, 152.635 L 11.5172, 146.716 L 9.86722, 144.966 L 9.52773, 137 L 20.9041, 135.216 z "/>
<path style="fill:rgb(234, 255, 10);fill-opacity:1.0;fill-rule:evenodd;stroke:rgb(0, 0, 0);stroke-width:3.0;" d="M 700.334, 406.487 L 701.052, 410.256 L 669.836, 410.233 L 678.017, 394.595 z "/>
<path style="fill:rgb(255, 45, 237);fill-opacity:1.0;fill-rule:evenodd;stroke:rgb(0, 0, 0);stroke-width:3.0;" d="M 234.055, 495.062 L 218.806, 510.036 L 193.951, 506.582 L 225.4, 484.145 z "/>
<path style="fill:rgb(16, 207, 240);fill-opacity:1.0;fill-rule:evenodd;stroke:rgb(0, 0, 0);stroke-width:3.0;" d="M 779.199, 410.314 L 736.96, 410.283 L 737.588, 404.266 L 746.8, 390.006 z "/>
<path style="fill:rgb(33, 38, 249);fill-opacity:1.0;fill-rule:evenodd;stroke:rgb(0, 0, 0);stroke-width:3.0;" d="M 463.014, 120.7 L 455.905, 185.213 L 440.607, 162.443 L 440.87, 124.444 L 460.466, 120.517 L 462.399, 120.353 z "/>
<path style="fill:rgb(33, 38, 249);fill-opacity:1.0;fill-rule:evenodd;stroke:rgb(0, 0, 0);stroke-width:3.0;" d="M 767.179, 153.303 L 760.4, 157.341 L 754.915, 149.579 L 767.994, 135.638 z "/>
<path style="fill:rgb(255, 5, 33);fill-opacity:1.0;fill-rule:evenodd;stroke:rgb(0, 0, 0);stroke-width:3.0;" d="M 186.092, 501.877 L 191.609, 508.253 L 159.551, 531.123 L 158.006, 526.927 L 173.407, 501.29 z "/>
<path style="fill:rgb(255, 5, 33);fill-opacity:1.0;fill-rule:evenodd;stroke:rgb(0, 0, 0);stroke-width:3.0;" d="M 215.633, 413.469 L 219.949, 421.031 L 219.583, 440.776 L 130.783, 461.69 L 134.965, 417.064 L 180.93, 393.827 z "/>
<path style="fill:rgb(168, 179, 255);fill-opacity:1.0;fill-rule:evenodd;stroke:rgb(0, 0, 0);stroke-width:3.0;" d="M 402.978, 56.254 L 353.498, 63.0447 L 351.525, 57.2425 L 403.282, 49.2524 z "/>
<path style="fill:rgb(121, 234, 217);fill-opacity:1.0;fill-rule:evenodd;stroke:rgb(0, 0, 0);stroke-width:3.0;" d="M 445.193, 387.64 L 433.286, 390.445 L 435.265, 372.495 L 443.777, 367.949 z "/>
<path style="fill:rgb(121, 234, 217);fill-opacity:1.0;fill-rule:evenodd;stroke:rgb(0, 0, 0);stroke-width:3.0;" d="M 139.331, 488.275 L 134.171, 494.747 L 127.383, 492.35 L 123.212, 483.808 L 133.454, 467.931 z "/>
<path style="fill:rgb(121, 234, 217);fill-opacity:1.0;fill-rule:evenodd;stroke:rgb(0, 0, 0);stroke-width:3.0;" d="M 37.8543, 152.635 L 41.2262, 156.1 L 16.422, 158.206 L 10.3009, 155.142 L 9.9266, 146.359 z "/>
<path style="fill:rgb(121, 234, 217);fill-opacity:1.0;fill-rule:evenodd;stroke:rgb(0, 0, 0);stroke-width:3.0;" d="M 478.361, 423.143 L 426.279, 413.33 L 422.45, 392.997 L 506.716, 373.151 z "/>
<path style="fill:rgb(121, 234, 217);fill-opacity:1.0;fill-rule:evenodd;stroke:rgb(0, 0, 0);stroke-width:3.0;" d="M 472.771, 32.1703 L 470.968, 48.5326 L 466.207, 43.8294 L 460.994, 25.8346 z "/>
<path style="fill:rgb(121, 234, 217);fill-opacity:1.0;fill-rule:evenodd;stroke:rgb(0, 0, 0);stroke-width:3.0;" d="M 435.372, 481.348 L 398.241, 533.282 L 389.882, 530.829 L 431.685, 457.872 z "/>
<path style="fill:rgb(121, 234, 217);fill-opacity:1.0;fill-rule:evenodd;stroke:rgb(0, 0, 0);stroke-width:3.0;" d="M 233.781, 119.225 L 219.161, 115.567 L 213.284, 111.187 L 215.744, 104.673 L 230.362, 102.381 z "/>
<path style="fill:rgb(246, 152, 15);fill-opacity:1.0;fill-rule:evenodd;stroke:rgb(0, 0, 0);stroke-width:3.0;" d="M 245.391, 483.93 L 234.055, 495.062 L 228.795, 488.428 L 241.615, 478.174 z "/>
<path style="fill:rgb(246, 152, 15);fill-opacity:1.0;fill-rule:evenodd;stroke:rgb(0, 0, 0);stroke-width:3.0;" d="M 238.277, 119.077 L 233.642, 118.54 L 233.637, 118.516 L 235.937, 101.507 L 245.01, 100.085 z "/>
<path style="fill:rgb(246, 152, 15);fill-opacity:1.0;fill-rule:evenodd;stroke:rgb(0, 0, 0);stroke-width:3.0;" d="M 671.521, 36.4627 L 680.014, 44.2791 L 671.303, 77.9883 L 664.785, 33.6441 z "/>
<path style="fill:rgb(246, 152, 15);fill-opacity:1.0;fill-rule:evenodd;stroke:rgb(0, 0, 0);stroke-width:3.0;" d="M 745.816, 292.088 L 713.546, 314.349 L 745.003, 276.237 z "/>
<path style="fill:rgb(246, 152, 15);fill-opacity:1.0;fill-rule:evenodd;stroke:rgb(0, 0, 0);stroke-width:3.0;" d="M 700.507, 223.665 L 704.799, 238.609 L 704.782, 238.97 L 691.924, 232.6 L 692.326, 208.865 L 693.261, 207.593 z "/>
<path style="fill:rgb(255, 57, 57);fill-opacity:1.0;fill-rule:evenodd;stroke:rgb(0, 0, 0);stroke-width:3.0;" d="M 439.415, 334.836 L 434.643, 378.131 L 395.838, 372.604 L 400.396, 339.791 L 439.653, 300.426 z "/>
<path style="fill:rgb(255, 57, 57);fill-opacity:1.0;fill-rule:evenodd;stroke:rgb(0, 0, 0);stroke-width:3.0;" d="M 335.499, 405.37 L 282.721, 407.306 L 285.885, 371.903 z "/>
<path style="fill:rgb(255, 57, 57);fill-opacity:1.0;fill-rule:evenodd;stroke:rgb(0, 0, 0);stroke-width:3.0;" d="M 669.836, 410.233 L 661.158, 410.226 L 648.199, 401.094 L 680.292, 390.245 z "/>
<path style="fill:rgb(255, 57, 57);fill-opacity:1.0;fill-rule:evenodd;stroke:rgb(0, 0, 0);stroke-width:3.0;" d="M 760.447, 325.168 L 745.619, 327.333 L 746.737, 316.621 L 781.124, 308.522 z "/>
<path style="fill:rgb(255, 252, 36);fill-opacity:1.0;fill-rule:evenodd;stroke:rgb(0, 0, 0);stroke-width:3.0;" d="M 424.038, 72.0199 L 416.902, 73.1386 L 415.77, 59.5538 L 423.267, 55.9874 z "/>
<path style="fill:rgb(199, 5, 22);fill-opacity:1.0;fill-rule:evenodd;stroke:rgb(0, 0, 0);stroke-width:3.0;" d="M 145.1, 391.245 L 143.897, 398.574 L 122.725, 402.835 L 112.197, 390.902 L 129.625, 376.664 z "/>
<path style="fill:rgb(217, 2, 249);fill-opacity:1.0;fill-rule:evenodd;stroke:rgb(0, 0, 0);stroke-width:3.0;" d="M 430.149, 125.602 L 428.881, 134.73 L 417.44, 129.451 L 414.893, 126.805 L 420.688, 123.893 L 426.945, 123.362 z "/>
<path style="fill:rgb(217, 2, 249);fill-opacity:1.0;fill-rule:evenodd;stroke:rgb(0, 0, 0);stroke-width:3.0;" d="M 547.278, 35.836 L 550.323, 43.3978 L 514.125, 18.5608 L 516.942, 16.5662 z "/>
<path style="fill:rgb(246, 65, 64);fill-opacity:1.0;fill-rule:evenodd;stroke:rgb(0, 0, 0);stroke-width:3.0;" d="M 764.878, 137.404 L 764.832, 139.008 L 754.915, 149.579 L 743.707, 133.716 L 754.521, 126.324 z "/>
<path style="fill:rgb(246, 65, 64);fill-opacity:1.0;fill-rule:evenodd;stroke:rgb(0, 0, 0);stroke-width:3.0;" d="M 147.53, 376.448 L 145.1, 391.245 L 133.592, 380.401 L 133.253, 374.919 L 141.416, 369.569 z "/>
<path style="fill:rgb(246, 65, 64);fill-opacity:1.0;fill-rule:evenodd;stroke:rgb(0, 0, 0);stroke-width:3.0;" d="M 224.223, 124.618 L 233.129, 133.601 L 231.149, 139.186 L 205.569, 122.322 z "/>
<path style="fill:rgb(252, 255, 168);fill-opacity:1.0;fill-rule:evenodd;stroke:rgb(0, 0, 0);stroke-width:3.0;" d="M 702.291, 36.1689 L 704.447, 47.6145 L 694.99, 51.254 L 695.331, 31.0873 L 695.384, 31.0743 z "/>
<path style="fill:rgb(252, 255, 168);fill-opacity:1.0;fill-rule:evenodd;stroke:rgb(0, 0, 0);stroke-width:3.0;" d="M 324.673, 132.042 L 281.876, 135.675 L 283.599, 125.905 z "/>
<path style="fill:rgb(252, 255, 168);fill-opacity:1.0;fill-rule:evenodd;stroke:rgb(0, 0, 0);stroke-width:3.0;" d="M 451.83, 549.011 L 456.477, 573.686 L 386.066, 537.488 L 389.882, 530.829 z "/>
<path style="fill:rgb(255, 252, 88);fill-opacity:1.0;fill-rule:evenodd;stroke:rgb(0, 0, 0);stroke-width:3.0;" d="M 333.826, 87.4012 L 324.262, 93.6473 L 312.412, 99.8925 L 291.616, 103.596 L 292.954, 92.569 L 330.707, 86.6507 z "/>
<path style="fill:rgb(255, 252, 88);fill-opacity:1.0;fill-rule:evenodd;stroke:rgb(0, 0, 0);stroke-width:3.0;" d="M 763.113, 254.296 L 746.859, 261.541 L 722.998, 257.387 L 780.293, 233.482 z "/>
<path style="fill:rgb(119, 240, 24);fill-opacity:1.0;fill-rule:evenodd;stroke:rgb(0, 0, 0);stroke-width:3.0;" d="M 440.115, 233.569 L 439.653, 300.426 L 400.396, 339.791 L 415.19, 233.294 L 437.147, 228.039 z "/>
<path style="fill:rgb(119, 240, 24);fill-opacity:1.0;fill-rule:evenodd;stroke:rgb(0, 0, 0);stroke-width:3.0;" d="M 554.028, 240.327 L 530.819, 319.417 L 506.914, 331.6 L 483.488, 238.985 L 542.635, 226.039 L 553.731, 225.817 z "/>
<path style="fill:rgb(119, 240, 24);fill-opacity:1.0;fill-rule:evenodd;stroke:rgb(0, 0, 0);stroke-width:3.0;" d="M 457.814, 16.1489 L 451.781, 20.8787 L 442.546, 15.911 L 446.87, 7.42324 L 447.86, 7.21123 z "/>
<path style="fill:rgb(119, 240, 24);fill-opacity:1.0;fill-rule:evenodd;stroke:rgb(0, 0, 0);stroke-width:3.0;" d="M 223.796, 441.835 L 214.319, 492.051 L 199.664, 502.506 L 148.135, 500.12 L 134.904, 464.187 L 139.634, 459.605 L 219.563, 440.78 z "/>
<path style="fill:rgb(119, 240, 24);fill-opacity:1.0;fill-rule:evenodd;stroke:rgb(0, 0, 0);stroke-width:3.0;" d="M 257.723, 438.424 L 244.64, 444.11 L 225.011, 439.497 L 235.337, 437.065 z "/>
<path style="fill:rgb(119, 240, 24);fill-opacity:1.0;fill-rule:evenodd;stroke:rgb(0, 0, 0);stroke-width:3.0;" d="M 26.1426, 103.663 L 15.7444, 132.972 L 14.2831, 131.98 L 12.7647, 115.949 L 25.5796, 101.656 z "/>
<path style="fill:rgb(114, 0, 146);fill-opacity:1.0;fill-rule:evenodd;stroke:rgb(0, 0, 0);stroke-width:3.0;" d="M 262.641, 497.355 L 255.877, 499.913 L 239.114, 474.361 L 246.393, 469.168 z "/>
<path style="fill:rgb(228, 246, 24);fill-opacity:1.0;fill-rule:evenodd;stroke:rgb(0, 0, 0);stroke-width:3.0;" d="M 43.0941, 70.5442 L 42.2965, 74.484 L 39.8274, 74.3627 L 17.9108, 69.7117 L 16.4279, 68.1695 L 36.9957, 67.9626 z "/>
<path style="fill:rgb(228, 246, 24);fill-opacity:1.0;fill-rule:evenodd;stroke:rgb(0, 0, 0);stroke-width:3.0;" d="M 718.692, 280.708 L 716.971, 297.036 L 711.824, 285.276 L 710.657, 272.424 L 711.151, 272.33 z "/>
<path style="fill:rgb(228, 246, 24);fill-opacity:1.0;fill-rule:evenodd;stroke:rgb(0, 0, 0);stroke-width:3.0;" d="M 173.38, 340.917 L 145.268, 363.884 L 111.824, 369 L 99.1925, 341.676 L 125.65, 334.119 z "/>
<path style="fill:rgb(228, 246, 24);fill-opacity:1.0;fill-rule:evenodd;stroke:rgb(0, 0, 0);stroke-width:3.0;" d="M 158.828, 121.81 L 160.512, 128.149 L 118.17, 120.999 L 117.208, 120.119 L 143.422, 116.01 z "/>
<path style="fill:rgb(255, 1, 202);fill-opacity:1.0;fill-rule:evenodd;stroke:rgb(0, 0, 0);stroke-width:3.0;" d="M 152.734, 382.303 L 158.349, 395.665 L 143.897, 398.574 L 147.53, 376.448 z "/>
<path style="fill:rgb(255, 35, 85);fill-opacity:1.0;fill-rule:evenodd;stroke:rgb(0, 0, 0);stroke-width:3.0;" d="M 268.936, 453.086 L 214.319, 492.051 L 223.796, 441.835 z "/>
<path style="fill:rgb(255, 35, 85);fill-opacity:1.0;fill-rule:evenodd;stroke:rgb(0, 0, 0);stroke-width:3.0;" d="M 99.9047, 351.943 L 97.9226, 356.095 L 88.0251, 363.508 L 74.8872, 348.618 L 95.2641, 342.798 z "/>
<path style="fill:rgb(240, 136, 7);fill-opacity:1.0;fill-rule:evenodd;stroke:rgb(0, 0, 0);stroke-width:3.0;" d="M 592.633, 62.023 L 568.271, 89.103 L 539.768, 65.843 L 595.538, 43.1943 z "/>
<path style="fill:rgb(240, 136, 7);fill-opacity:1.0;fill-rule:evenodd;stroke:rgb(0, 0, 0);stroke-width:3.0;" d="M 687.2, 186.155 L 620.708, 131.894 L 625.34, 31.0917 L 662.21, 16.1185 z "/>
<path style="fill:rgb(240, 136, 7);fill-opacity:1.0;fill-rule:evenodd;stroke:rgb(0, 0, 0);stroke-width:3.0;" d="M 601.914, 40.605 L 587.534, 46.4449 L 589.054, 38.2694 L 601.385, 24.7871 z "/>
<path style="fill:rgb(255, 255, 69);fill-opacity:1.0;fill-rule:evenodd;stroke:rgb(0, 0, 0);stroke-width:3.0;" d="M 130.783, 461.69 L 125.085, 463.032 L 108.606, 449.888 L 132.535, 442.992 z "/>
<path style="fill:rgb(255, 27, 204);fill-opacity:1.0;fill-rule:evenodd;stroke:rgb(0, 0, 0);stroke-width:3.0;" d="M 571.691, 418.196 L 584.933, 478.444 L 563.038, 493.659 L 538.923, 407.752 z "/>
<path style="fill:rgb(255, 27, 204);fill-opacity:1.0;fill-rule:evenodd;stroke:rgb(0, 0, 0);stroke-width:3.0;" d="M 387.842, 15.0719 L 387.988, 18.0151 L 363.438, 22.8673 L 358.546, 16.3557 L 359.563, 14.9977 L 382.757, 14.8378 z "/>
<path style="fill:rgb(23, 1, 197);fill-opacity:1.0;fill-rule:evenodd;stroke:rgb(0, 0, 0);stroke-width:3.0;" d="M 716.541, 213.802 L 707.241, 251.141 L 704.179, 251.501 L 707.185, 189.035 L 716.749, 183.338 z "/>
<path style="fill:rgb(23, 1, 197);fill-opacity:1.0;fill-rule:evenodd;stroke:rgb(0, 0, 0);stroke-width:3.0;" d="M 236.968, 349.975 L 265.125, 361.731 L 263.139, 363.768 L 219.911, 357.318 L 230.18, 349.008 z "/>
<path style="fill:rgb(252, 37, 199);fill-opacity:1.0;fill-rule:evenodd;stroke:rgb(0, 0, 0);stroke-width:3.0;" d="M 433.93, 453.955 L 377.153, 553.043 L 409.112, 396.138 L 422.45, 392.997 z "/>
<path style="fill:rgb(252, 37, 199);fill-opacity:1.0;fill-rule:evenodd;stroke:rgb(0, 0, 0);stroke-width:3.0;" d="M 230.18, 349.008 L 219.911, 357.318 L 197.174, 353.925 L 177.346, 346.379 L 174.304, 341.049 z "/>
<path style="fill:rgb(184, 255, 199);fill-opacity:1.0;fill-rule:evenodd;stroke:rgb(0, 0, 0);stroke-width:3.0;" d="M 426.081, 154.893 L 418.71, 207.952 L 400.955, 185.774 L 403.697, 126.155 z "/>
<path style="fill:rgb(255, 98, 215);fill-opacity:1.0;fill-rule:evenodd;stroke:rgb(0, 0, 0);stroke-width:3.0;" d="M 579.446, 98.222 L 568.271, 89.103 L 577.834, 78.4733 z "/>
<path style="fill:rgb(255, 98, 215);fill-opacity:1.0;fill-rule:evenodd;stroke:rgb(0, 0, 0);stroke-width:3.0;" d="M 760.737, 90.9821 L 699.667, 30.0078 L 788.58, 7.87005 z "/>
<path style="fill:rgb(255, 98, 215);fill-opacity:1.0;fill-rule:evenodd;stroke:rgb(0, 0, 0);stroke-width:3.0;" d="M 694.784, 63.4649 L 692.634, 190.59 L 687.2, 186.155 L 671.303, 77.9883 L 679.709, 45.459 z "/>
<path style="fill:rgb(255, 98, 215);fill-opacity:1.0;fill-rule:evenodd;stroke:rgb(0, 0, 0);stroke-width:3.0;" d="M 403.697, 126.155 L 400.955, 185.774 L 355.819, 129.399 L 403.098, 125.386 z "/>
<path style="fill:rgb(150, 177, 255);fill-opacity:1.0;fill-rule:evenodd;stroke:rgb(0, 0, 0);stroke-width:3.0;" d="M 338.8, 16.4381 L 338.452, 26.2831 L 330.325, 31.8567 L 313.485, 18.0531 L 315.121, 14.1039 L 315.328, 14.0111 z "/>
<path style="fill:rgb(150, 177, 255);fill-opacity:1.0;fill-rule:evenodd;stroke:rgb(0, 0, 0);stroke-width:3.0;" d="M 738.889, 283.644 L 723.872, 301.838 L 721.005, 283.38 L 735.571, 274.029 z "/>
<path style="fill:rgb(237, 117, 255);fill-opacity:1.0;fill-rule:evenodd;stroke:rgb(0, 0, 0);stroke-width:3.0;" d="M 586.197, 103.732 L 579.446, 98.222 L 577.834, 78.4733 L 592.633, 62.023 z "/>
<path style="fill:rgb(226, 184, 134);fill-opacity:1.0;fill-rule:evenodd;stroke:rgb(0, 0, 0);stroke-width:3.0;" d="M 445.717, 547.217 L 398.241, 533.282 L 398.932, 532.316 L 440.639, 514.882 z "/>
<path style="fill:rgb(226, 184, 134);fill-opacity:1.0;fill-rule:evenodd;stroke:rgb(0, 0, 0);stroke-width:3.0;" d="M 766.395, 118.209 L 749.221, 129.947 L 739.15, 114.071 L 744.904, 111.336 z "/>
<path style="fill:rgb(204, 165, 44);fill-opacity:1.0;fill-rule:evenodd;stroke:rgb(0, 0, 0);stroke-width:3.0;" d="M 31.8594, 97.8849 L 16.1949, 106.069 L 15.9664, 102.366 L 22.2828, 90.4684 z "/>
<path style="fill:rgb(27, 243, 237);fill-opacity:1.0;fill-rule:evenodd;stroke:rgb(0, 0, 0);stroke-width:3.0;" d="M 506.987, 331.889 L 503.365, 338.37 L 501.526, 337.463 L 494.819, 294.54 L 496.387, 289.982 z "/>
<path style="fill:rgb(27, 243, 237);fill-opacity:1.0;fill-rule:evenodd;stroke:rgb(0, 0, 0);stroke-width:3.0;" d="M 690.486, 317.676 L 690.279, 329.918 L 556.503, 361.425 L 556.281, 350.594 L 664.233, 290.903 z "/>
<path style="fill:rgb(27, 243, 237);fill-opacity:1.0;fill-rule:evenodd;stroke:rgb(0, 0, 0);stroke-width:3.0;" d="M 147.948, 499.611 L 159.551, 531.123 L 158.559, 531.832 L 129.022, 505.246 L 134.698, 494.933 z "/>
<path style="fill:rgb(27, 243, 237);fill-opacity:1.0;fill-rule:evenodd;stroke:rgb(0, 0, 0);stroke-width:3.0;" d="M 393.742, 76.7692 L 359.965, 82.0642 L 353.498, 63.0447 L 376.984, 59.8215 z "/>
<path style="fill:rgb(255, 246, 30);fill-opacity:1.0;fill-rule:evenodd;stroke:rgb(0, 0, 0);stroke-width:3.0;" d="M 587.557, 581.009 L 586.079, 575.741 L 623.322, 570.581 z "/>
<path style="fill:rgb(255, 202, 11);fill-opacity:1.0;fill-rule:evenodd;stroke:rgb(0, 0, 0);stroke-width:3.0;" d="M 480.93, 26.7788 L 479.437, 38.0549 L 471.631, 42.5188 L 473.937, 21.5885 z "/>
<path style="fill:rgb(11, 117, 237);fill-opacity:1.0;fill-rule:evenodd;stroke:rgb(0, 0, 0);stroke-width:3.0;" d="M 101.048, 468.693 L 25.6422, 486.453 L 60.0698, 454.928 L 86.2684, 441.683 z "/>
<path style="fill:rgb(204, 7, 231);fill-opacity:1.0;fill-rule:evenodd;stroke:rgb(0, 0, 0);stroke-width:3.0;" d="M 470.968, 48.5326 L 469.159, 64.9467 L 429.763, 71.1224 L 437.823, 15.792 z "/>
<path style="fill:rgb(27, 35, 234);fill-opacity:1.0;fill-rule:evenodd;stroke:rgb(0, 0, 0);stroke-width:3.0;" d="M 107.443, 448.96 L 113.194, 465.832 L 101.048, 468.693 L 86.2684, 441.683 L 93.6442, 437.954 z "/>
<path style="fill:rgb(249, 54, 112);fill-opacity:1.0;fill-rule:evenodd;stroke:rgb(0, 0, 0);stroke-width:3.0;" d="M 156.585, 406.135 L 135.183, 416.954 L 122.725, 402.835 L 152.223, 396.898 z "/>
<path style="fill:rgb(22, 12, 255);fill-opacity:1.0;fill-rule:evenodd;stroke:rgb(0, 0, 0);stroke-width:3.0;" d="M 731.177, 320.285 L 710.784, 325.088 L 727.61, 313.328 L 751.213, 303.758 z "/>
<path style="fill:rgb(67, 2, 255);fill-opacity:1.0;fill-rule:evenodd;stroke:rgb(0, 0, 0);stroke-width:3.0;" d="M 754.623, 105.406 L 755.952, 106.085 L 743.064, 112.211 L 726.78, 94.9257 z "/>
<path style="fill:rgb(67, 2, 255);fill-opacity:1.0;fill-rule:evenodd;stroke:rgb(0, 0, 0);stroke-width:3.0;" d="M 14.8785, 84.7343 L 16.1949, 106.069 L 12.7301, 107.88 L 9.80994, 98.9557 L 8.33989, 79.6706 z "/>
<path style="fill:rgb(212, 42, 146);fill-opacity:1.0;fill-rule:evenodd;stroke:rgb(0, 0, 0);stroke-width:3.0;" d="M 125.463, 405.938 L 115.948, 416.132 L 56.2008, 395.232 L 92.9018, 369.035 z "/>
<path style="fill:rgb(212, 42, 146);fill-opacity:1.0;fill-rule:evenodd;stroke:rgb(0, 0, 0);stroke-width:3.0;" d="M 399.754, 75.8268 L 393.742, 76.7692 L 376.984, 59.8215 L 399.789, 56.6917 z "/>
<path style="fill:rgb(252, 45, 255);fill-opacity:1.0;fill-rule:evenodd;stroke:rgb(0, 0, 0);stroke-width:3.0;" d="M 228.323, 365.78 L 209.878, 403.384 L 196.534, 380.002 L 227.597, 365.504 z "/>
<path style="fill:rgb(159, 52, 255);fill-opacity:1.0;fill-rule:evenodd;stroke:rgb(0, 0, 0);stroke-width:3.0;" d="M 649.744, 372.245 L 628.979, 366.431 L 630.556, 343.984 L 657.297, 337.686 z "/>
<path style="fill:rgb(159, 52, 255);fill-opacity:1.0;fill-rule:evenodd;stroke:rgb(0, 0, 0);stroke-width:3.0;" d="M 281.449, 421.539 L 281.024, 426.305 L 271.462, 428.557 L 231.067, 404.258 L 233.398, 394.261 L 235.457, 392.15 z "/>
<path style="fill:rgb(255, 192, 255);fill-opacity:1.0;fill-rule:evenodd;stroke:rgb(0, 0, 0);stroke-width:3.0;" d="M 765.308, 221.491 L 764.494, 227.323 L 759.341, 230.167 L 745.714, 219.571 z "/>
<path style="fill:rgb(22, 0, 255);fill-opacity:1.0;fill-rule:evenodd;stroke:rgb(0, 0, 0);stroke-width:3.0;" d="M 767.47, 238.832 L 722.998, 257.387 L 713.123, 255.667 L 763.816, 227.697 z "/>
<path style="fill:rgb(86, 255, 249);fill-opacity:1.0;fill-rule:evenodd;stroke:rgb(0, 0, 0);stroke-width:3.0;" d="M 646.051, 441.897 L 538.923, 407.752 L 527.816, 368.181 L 608.298, 349.226 z "/>
<path style="fill:rgb(255, 243, 23);fill-opacity:1.0;fill-rule:evenodd;stroke:rgb(0, 0, 0);stroke-width:3.0;" d="M 501.526, 337.463 L 490.945, 332.241 L 493.031, 322.445 L 498.015, 314.994 z "/>
<path style="fill:rgb(255, 3, 110);fill-opacity:1.0;fill-rule:evenodd;stroke:rgb(0, 0, 0);stroke-width:3.0;" d="M 38.8535, 91.4916 L 38.5359, 93.0603 L 6.4272, 62.4435 L 6.1936, 57.5261 z "/>
<path style="fill:rgb(255, 3, 110);fill-opacity:1.0;fill-rule:evenodd;stroke:rgb(0, 0, 0);stroke-width:3.0;" d="M 115.948, 416.132 L 97.3101, 436.101 L 70.4003, 449.705 L 22.8569, 385.331 L 24.477, 384.134 z "/>
<path style="fill:rgb(217, 60, 14);fill-opacity:1.0;fill-rule:evenodd;stroke:rgb(0, 0, 0);stroke-width:3.0;" d="M 344.406, 411.378 L 301.085, 421.581 L 281.558, 420.327 L 282.721, 407.306 L 335.499, 405.37 z "/>
<path style="fill:rgb(255, 1, 12);fill-opacity:1.0;fill-rule:evenodd;stroke:rgb(0, 0, 0);stroke-width:3.0;" d="M 646.051, 441.897 L 694.461, 560.725 L 586.079, 575.741 L 563.038, 493.659 L 640.207, 440.034 z "/>
<path style="fill:rgb(12, 243, 33);fill-opacity:1.0;fill-rule:evenodd;stroke:rgb(0, 0, 0);stroke-width:3.0;" d="M 363.675, 123.94 L 341.916, 127.439 L 332.381, 110.57 L 337.394, 99.2388 z "/>
<path style="fill:rgb(255, 20, 107);fill-opacity:1.0;fill-rule:evenodd;stroke:rgb(0, 0, 0);stroke-width:3.0;" d="M 422.673, 43.6311 L 422.798, 46.2395 L 385.195, 52.0446 L 399.321, 28.4001 z "/>
<path style="fill:rgb(255, 66, 9);fill-opacity:1.0;fill-rule:evenodd;stroke:rgb(0, 0, 0);stroke-width:3.0;" d="M 429.281, 382.97 L 425.768, 387.056 L 417.371, 388.489 L 408.327, 386.937 L 416.605, 378.618 z "/>
<path style="fill:rgb(187, 43, 165);fill-opacity:1.0;fill-rule:evenodd;stroke:rgb(0, 0, 0);stroke-width:3.0;" d="M 38.5359, 93.0603 L 38.3095, 94.1789 L 28.0779, 94.7749 L 27.7939, 94.7364 L 24.2712, 92.0083 L 9.62941, 67.7406 L 10.4575, 66.2866 z "/>
<path style="fill:rgb(240, 92, 27);fill-opacity:1.0;fill-rule:evenodd;stroke:rgb(0, 0, 0);stroke-width:3.0;" d="M 316.093, 57.7242 L 308.836, 82.7494 L 302.619, 91.054 L 178.128, 110.569 L 200.259, 79.0908 L 296.86, 10.8494 z "/>
<path style="fill:rgb(31, 83, 255);fill-opacity:1.0;fill-rule:evenodd;stroke:rgb(0, 0, 0);stroke-width:3.0;" d="M 694.784, 63.4649 L 682.004, 48.2007 L 690.493, 29.572 L 695.393, 27.4462 z "/>
<path style="fill:rgb(6, 70, 223);fill-opacity:1.0;fill-rule:evenodd;stroke:rgb(0, 0, 0);stroke-width:3.0;" d="M 690.486, 317.676 L 664.233, 290.903 L 691.191, 275.996 z "/>
<path style="fill:rgb(249, 187, 11);fill-opacity:1.0;fill-rule:evenodd;stroke:rgb(0, 0, 0);stroke-width:3.0;" d="M 429.913, 214.562 L 425.724, 230.773 L 415.19, 233.294 L 418.555, 209.072 L 422.893, 201.485 z "/>
<path style="fill:rgb(249, 187, 11);fill-opacity:1.0;fill-rule:evenodd;stroke:rgb(0, 0, 0);stroke-width:3.0;" d="M 640.207, 440.034 L 584.933, 478.444 L 571.691, 418.196 z "/>
<path style="fill:rgb(78, 18, 255);fill-opacity:1.0;fill-rule:evenodd;stroke:rgb(0, 0, 0);stroke-width:3.0;" d="M 721.183, 257.071 L 719.95, 268.773 L 718.826, 269.188 L 709.525, 269.317 L 707.322, 268.077 L 703.955, 264.336 L 704.997, 260.15 L 713.123, 255.667 z "/>
<path style="fill:rgb(161, 112, 67);fill-opacity:1.0;fill-rule:evenodd;stroke:rgb(0, 0, 0);stroke-width:3.0;" d="M 497.68, 235.879 L 483.488, 238.985 L 480.528, 227.284 L 491.685, 227.06 z "/>
<path style="fill:rgb(255, 51, 98);fill-opacity:1.0;fill-rule:evenodd;stroke:rgb(0, 0, 0);stroke-width:3.0;" d="M 513.152, 232.493 L 497.68, 235.879 L 491.685, 227.06 L 506.077, 226.772 z "/>
<path style="fill:rgb(202, 255, 6);fill-opacity:1.0;fill-rule:evenodd;stroke:rgb(0, 0, 0);stroke-width:3.0;" d="M 583.255, 9.21456 L 582.203, 27.8785 L 571.184, 31.558 L 566.061, 14.9667 L 574.237, 5.06632 z "/>
<path style="fill:rgb(255, 94, 255);fill-opacity:1.0;fill-rule:evenodd;stroke:rgb(0, 0, 0);stroke-width:3.0;" d="M 778.451, 267.429 L 745.899, 293.706 L 745.003, 276.237 L 772.893, 242.446 z "/>
<path style="fill:rgb(255, 234, 15);fill-opacity:1.0;fill-rule:evenodd;stroke:rgb(0, 0, 0);stroke-width:3.0;" d="M 158.559, 531.832 L 85.8253, 583.721 L 129.022, 505.246 z "/>
<path style="fill:rgb(159, 19, 209);fill-opacity:1.0;fill-rule:evenodd;stroke:rgb(0, 0, 0);stroke-width:3.0;" d="M 680.292, 390.245 L 648.199, 401.094 L 646.858, 400.148 L 646.136, 395.811 L 694.677, 362.75 z "/>
<path style="fill:rgb(83, 228, 255);fill-opacity:1.0;fill-rule:evenodd;stroke:rgb(0, 0, 0);stroke-width:3.0;" d="M 595.638, 31.0709 L 583.891, 43.9142 L 572.289, 46.7003 L 563.021, 45.836 L 551.1, 38.2641 L 592.012, 24.603 z "/>
<path style="fill:rgb(6, 40, 243);fill-opacity:1.0;fill-rule:evenodd;stroke:rgb(0, 0, 0);stroke-width:3.0;" d="M 478.361, 423.143 L 440.649, 489.635 L 426.279, 413.33 z "/>
<path style="fill:rgb(91, 13, 255);fill-opacity:1.0;fill-rule:evenodd;stroke:rgb(0, 0, 0);stroke-width:3.0;" d="M 649.744, 372.245 L 641.446, 410.212 L 633.14, 410.205 L 626.967, 395.054 L 628.979, 366.431 z "/>
<path style="fill:rgb(255, 21, 75);fill-opacity:1.0;fill-rule:evenodd;stroke:rgb(0, 0, 0);stroke-width:3.0;" d="M 365.248, 368.247 L 382.831, 402.328 L 344.406, 411.378 L 285.885, 371.903 L 287.206, 357.13 z "/>
<path style="fill:rgb(255, 30, 112);fill-opacity:1.0;fill-rule:evenodd;stroke:rgb(0, 0, 0);stroke-width:3.0;" d="M 419.269, 375.941 L 396.129, 399.196 L 382.831, 402.328 L 365.248, 368.247 z "/>
<path style="fill:rgb(112, 97, 255);fill-opacity:1.0;fill-rule:evenodd;stroke:rgb(0, 0, 0);stroke-width:3.0;" d="M 667.322, 480.287 L 715.466, 506.311 L 671.787, 505.069 L 661.582, 480.02 z "/>
<path style="fill:rgb(243, 168, 8);fill-opacity:1.0;fill-rule:evenodd;stroke:rgb(0, 0, 0);stroke-width:3.0;" d="M 743.113, 302.492 L 710.784, 325.088 L 705.474, 326.339 L 738.289, 299.849 z "/>
<path style="fill:rgb(220, 255, 74);fill-opacity:1.0;fill-rule:evenodd;stroke:rgb(0, 0, 0);stroke-width:3.0;" d="M 455.905, 185.213 L 439.415, 334.836 L 440.607, 162.443 z "/>
<path style="fill:rgb(220, 255, 74);fill-opacity:1.0;fill-rule:evenodd;stroke:rgb(0, 0, 0);stroke-width:3.0;" d="M 780.446, 276.399 L 743.113, 302.492 L 738.289, 299.849 L 778.451, 267.429 z "/>
<path style="fill:rgb(255, 255, 35);fill-opacity:1.0;fill-rule:evenodd;stroke:rgb(0, 0, 0);stroke-width:3.0;" d="M 395.838, 372.604 L 188.655, 343.093 L 256.209, 318.604 L 406.919, 292.833 z "/>
<path style="fill:rgb(48, 197, 220);fill-opacity:1.0;fill-rule:evenodd;stroke:rgb(0, 0, 0);stroke-width:3.0;" d="M 283.599, 125.905 L 281.876, 135.675 L 264.269, 137.169 L 271.96, 124.166 z "/>
<path style="fill:rgb(255, 252, 16);fill-opacity:1.0;fill-rule:evenodd;stroke:rgb(0, 0, 0);stroke-width:3.0;" d="M 177.057, 345.873 L 186.342, 362.142 L 164.243, 348.382 L 167.319, 345.869 z "/>
<path style="fill:rgb(255, 249, 49);fill-opacity:1.0;fill-rule:evenodd;stroke:rgb(0, 0, 0);stroke-width:3.0;" d="M 766.366, 213.908 L 765.308, 221.491 L 735.16, 218.537 L 721.845, 212.376 L 725.62, 210.185 z "/>
<path style="fill:rgb(172, 255, 43);fill-opacity:1.0;fill-rule:evenodd;stroke:rgb(0, 0, 0);stroke-width:3.0;" d="M 119.276, 385.119 L 111.824, 369 L 145.268, 363.884 z "/>
<path style="fill:rgb(79, 246, 189);fill-opacity:1.0;fill-rule:evenodd;stroke:rgb(0, 0, 0);stroke-width:3.0;" d="M 287.206, 357.13 L 281.449, 421.539 L 279.806, 420.489 L 257.558, 369.49 L 271.759, 354.93 z "/>
</svg>