<?xml version="1.0" encoding="iso-8859-1" standalone="no"?>
<!DOCTYPE svg PUBLIC "-//W3C//DTD SVG 1.0//EN" "http://www.w3.org/TR/2001/REC-SVG-20010904/DTD/svg10.dtd">
<svg xmlns="http://www.w3.org/2000/svg" width="800" height="600">
<path style="fill:rgb(0, 0, 0);fill-opacity:0.0;fill-rule:evenodd;stroke:rgb(0, 0, 0);stroke-width:0.0;" d="M 0, 600 L 800, 600 L 800, 0 L 0, 0 z "/>
<path style="fill:rgb(255, 226, 98);fill-opacity:1.0;fill-rule:evenodd;stroke:rgb(0, 0, 0);stroke-width:3.0;" d="M 760.887, 134.03 L 768.145, 135.681 L 756.013, 171.62 L 734.641, 132.326 z "/>
<path style="fill:rgb(255, 226, 98);fill-opacity:1.0;fill-rule:evenodd;stroke:rgb(0, 0, 0);stroke-width:3.0;" d="M 742.223, 254.68 L 747.972, 261.452 L 687.153, 260.554 L 701.099, 253.996 z "/>
<path style="fill:rgb(255, 226, 98);fill-opacity:1.0;fill-rule:evenodd;stroke:rgb(0, 0, 0);stroke-width:3.0;" d="M 299.692, 561.688 L 299.14, 584.613 L 245.979, 510.571 z "/>
<path style="fill:rgb(255, 65, 184);fill-opacity:1.0;fill-rule:evenodd;stroke:rgb(0, 0, 0);stroke-width:3.0;" d="M 728.327, 238.31 L 728.568, 238.594 L 687.489, 244.718 L 626.854, 234.174 L 644.505, 215.429 z "/>
<path style="fill:rgb(255, 65, 184);fill-opacity:1.0;fill-rule:evenodd;stroke:rgb(0, 0, 0);stroke-width:3.0;" d="M 249.194, 58.5294 L 245.295, 86.8544 L 227.214, 70.4536 L 242.863, 43.786 z "/>
<path style="fill:rgb(255, 65, 184);fill-opacity:1.0;fill-rule:evenodd;stroke:rgb(0, 0, 0);stroke-width:3.0;" d="M 747.511, 549.879 L 748.637, 552.28 L 747.696, 554.337 L 719.23, 553.898 L 718.194, 537.075 z "/>
<path style="fill:rgb(255, 65, 184);fill-opacity:1.0;fill-rule:evenodd;stroke:rgb(0, 0, 0);stroke-width:3.0;" d="M 683.013, 512.716 L 634.808, 554.456 L 612.651, 560.667 L 652.755, 498.305 z "/>
<path style="fill:rgb(255, 65, 184);fill-opacity:1.0;fill-rule:evenodd;stroke:rgb(0, 0, 0);stroke-width:3.0;" d="M 241.345, 253.975 L 246.741, 258.483 L 242.628, 295.816 L 229.38, 308.164 L 207.137, 285.264 L 234.338, 253.871 z "/>
<path style="fill:rgb(255, 217, 71);fill-opacity:1.0;fill-rule:evenodd;stroke:rgb(0, 0, 0);stroke-width:3.0;" d="M 364.59, 255.794 L 365.099, 264.26 L 359.551, 266.877 L 297.313, 256.286 L 294.522, 254.759 z "/>
<path style="fill:rgb(255, 217, 71);fill-opacity:1.0;fill-rule:evenodd;stroke:rgb(0, 0, 0);stroke-width:3.0;" d="M 431.217, 565.311 L 433.951, 566.167 L 439.819, 576.854 L 412.01, 563.613 L 411.215, 559.322 z "/>
<path style="fill:rgb(255, 228, 31);fill-opacity:1.0;fill-rule:evenodd;stroke:rgb(0, 0, 0);stroke-width:3.0;" d="M 440.002, 568.062 L 458.08, 582.15 L 451.825, 582.571 L 439.819, 576.854 L 436.01, 569.918 L 439.14, 567.792 z "/>
<path style="fill:rgb(255, 228, 31);fill-opacity:1.0;fill-rule:evenodd;stroke:rgb(0, 0, 0);stroke-width:3.0;" d="M 693.79, 228.882 L 644.505, 215.429 L 675.48, 182.534 z "/>
<path style="fill:rgb(255, 228, 31);fill-opacity:1.0;fill-rule:evenodd;stroke:rgb(0, 0, 0);stroke-width:3.0;" d="M 142.885, 124.295 L 167.145, 144.317 L 73.3069, 130.645 L 91.5288, 99.053 z "/>
<path style="fill:rgb(255, 228, 31);fill-opacity:1.0;fill-rule:evenodd;stroke:rgb(0, 0, 0);stroke-width:3.0;" d="M 674.403, 463.695 L 675.288, 473.081 L 637.997, 491.276 L 622.707, 483.994 L 625.097, 452.268 L 656.752, 439.957 z "/>
<path style="fill:rgb(255, 228, 31);fill-opacity:1.0;fill-rule:evenodd;stroke:rgb(0, 0, 0);stroke-width:3.0;" d="M 127.611, 252.296 L 66.3855, 251.392 L 27.9336, 221.058 L 29.6901, 210.425 L 109.721, 199.082 z "/>
<path style="fill:rgb(255, 105, 30);fill-opacity:1.0;fill-rule:evenodd;stroke:rgb(0, 0, 0);stroke-width:3.0;" d="M 332.392, 414.22 L 353.844, 436.306 L 351.189, 441.573 L 346.684, 440.701 L 326.093, 412.892 z "/>
<path style="fill:rgb(16, 146, 204);fill-opacity:1.0;fill-rule:evenodd;stroke:rgb(0, 0, 0);stroke-width:3.0;" d="M 129.895, 348.889 L 139.076, 361.676 L 134.518, 364.416 L 56.0435, 372.486 L 83.5605, 352.333 L 117.28, 346.246 z "/>
<path style="fill:rgb(16, 146, 204);fill-opacity:1.0;fill-rule:evenodd;stroke:rgb(0, 0, 0);stroke-width:3.0;" d="M 261.173, 319.246 L 257.956, 327.746 L 245.041, 324.288 L 240.071, 319.171 L 239.935, 311.55 z "/>
<path style="fill:rgb(14, 81, 192);fill-opacity:1.0;fill-rule:evenodd;stroke:rgb(0, 0, 0);stroke-width:3.0;" d="M 391.501, 256.191 L 478.981, 372.142 L 480.617, 386.237 L 366.36, 285.236 L 364.59, 255.794 z "/>
<path style="fill:rgb(255, 7, 28);fill-opacity:1.0;fill-rule:evenodd;stroke:rgb(0, 0, 0);stroke-width:3.0;" d="M 677.095, 492.234 L 645.863, 495.023 L 637.997, 491.276 L 675.288, 473.081 z "/>
<path style="fill:rgb(255, 7, 28);fill-opacity:1.0;fill-rule:evenodd;stroke:rgb(0, 0, 0);stroke-width:3.0;" d="M 678.839, 510.729 L 660.057, 501.783 L 663.227, 493.472 L 677.095, 492.234 z "/>
<path style="fill:rgb(255, 7, 28);fill-opacity:1.0;fill-rule:evenodd;stroke:rgb(0, 0, 0);stroke-width:3.0;" d="M 58.5765, 245.232 L 60.2605, 251.302 L 23.0282, 250.752 L 27.9336, 221.058 z "/>
<path style="fill:rgb(46, 249, 179);fill-opacity:1.0;fill-rule:evenodd;stroke:rgb(0, 0, 0);stroke-width:3.0;" d="M 468.728, 308.124 L 472.603, 317.19 L 473.571, 325.536 L 459.029, 308.328 L 461.651, 306.164 z "/>
<path style="fill:rgb(46, 249, 179);fill-opacity:1.0;fill-rule:evenodd;stroke:rgb(0, 0, 0);stroke-width:3.0;" d="M 466.728, 552.526 L 469.126, 559.91 L 442.175, 560.428 L 436.217, 558.823 L 452.922, 538.312 z "/>
<path style="fill:rgb(46, 249, 179);fill-opacity:1.0;fill-rule:evenodd;stroke:rgb(0, 0, 0);stroke-width:3.0;" d="M 358.056, 266.623 L 366.758, 291.862 L 366.907, 294.337 L 348.549, 284.299 L 325.471, 261.077 z "/>
<path style="fill:rgb(33, 255, 255);fill-opacity:1.0;fill-rule:evenodd;stroke:rgb(0, 0, 0);stroke-width:3.0;" d="M 415.287, 509.698 L 401.966, 531.226 L 388.282, 514.026 L 400.955, 504.64 z "/>
<path style="fill:rgb(11, 18, 255);fill-opacity:1.0;fill-rule:evenodd;stroke:rgb(0, 0, 0);stroke-width:3.0;" d="M 371.93, 474.798 L 360.84, 480.473 L 358.894, 481.067 L 354.817, 474.651 L 361.283, 460.418 z "/>
<path style="fill:rgb(11, 18, 255);fill-opacity:1.0;fill-rule:evenodd;stroke:rgb(0, 0, 0);stroke-width:3.0;" d="M 352.588, 522.404 L 344.636, 531.532 L 318.894, 519.274 L 317.606, 516.481 L 313.34, 488.497 z "/>
<path style="fill:rgb(11, 18, 255);fill-opacity:1.0;fill-rule:evenodd;stroke:rgb(0, 0, 0);stroke-width:3.0;" d="M 473.571, 325.536 L 478.981, 372.142 L 446.508, 329.1 L 447.429, 317.327 L 462.748, 312.729 z "/>
<path style="fill:rgb(11, 18, 255);fill-opacity:1.0;fill-rule:evenodd;stroke:rgb(0, 0, 0);stroke-width:3.0;" d="M 691.175, 550.512 L 682.993, 550.681 L 671.712, 546.638 L 652.518, 539.122 L 653.809, 538.004 L 662.954, 532.354 z "/>
<path style="fill:rgb(25, 33, 207);fill-opacity:1.0;fill-rule:evenodd;stroke:rgb(0, 0, 0);stroke-width:3.0;" d="M 757.514, 261.593 L 747.972, 261.452 L 732.456, 243.174 L 724.381, 212.527 L 726.942, 211.853 z "/>
<path style="fill:rgb(25, 33, 207);fill-opacity:1.0;fill-rule:evenodd;stroke:rgb(0, 0, 0);stroke-width:3.0;" d="M 219.66, 298.157 L 178.805, 399.695 L 166.733, 400.198 L 156.747, 386.289 L 219.394, 297.883 z "/>
<path style="fill:rgb(228, 197, 54);fill-opacity:1.0;fill-rule:evenodd;stroke:rgb(0, 0, 0);stroke-width:3.0;" d="M 600.242, 584.387 L 593.726, 590.03 L 580.71, 578.89 L 581.518, 572.417 z "/>
<path style="fill:rgb(228, 197, 54);fill-opacity:1.0;fill-rule:evenodd;stroke:rgb(0, 0, 0);stroke-width:3.0;" d="M 567.888, 487.897 L 564.72, 485.625 L 568.366, 463.875 L 574.517, 461.323 z "/>
<path style="fill:rgb(228, 197, 54);fill-opacity:1.0;fill-rule:evenodd;stroke:rgb(0, 0, 0);stroke-width:3.0;" d="M 713.31, 189.675 L 679.012, 180.215 L 678.373, 179.461 L 695.713, 161.046 z "/>
<path style="fill:rgb(255, 204, 8);fill-opacity:1.0;fill-rule:evenodd;stroke:rgb(0, 0, 0);stroke-width:3.0;" d="M 558.981, 519.297 L 564.447, 532.086 L 558.833, 544.826 L 518.505, 489.919 z "/>
<path style="fill:rgb(255, 204, 8);fill-opacity:1.0;fill-rule:evenodd;stroke:rgb(0, 0, 0);stroke-width:3.0;" d="M 310.029, 391.196 L 361.283, 460.418 L 354.817, 474.651 L 303.728, 394.24 L 303.952, 384.94 z "/>
<path style="fill:rgb(243, 202, 21);fill-opacity:1.0;fill-rule:evenodd;stroke:rgb(0, 0, 0);stroke-width:3.0;" d="M 491.419, 395.786 L 482.901, 410.789 L 472.935, 398.324 L 480.447, 386.087 z "/>
<path style="fill:rgb(175, 255, 52);fill-opacity:1.0;fill-rule:evenodd;stroke:rgb(0, 0, 0);stroke-width:3.0;" d="M 378.162, 461.343 L 353.019, 449.079 L 355.582, 438.096 z "/>
<path style="fill:rgb(175, 255, 52);fill-opacity:1.0;fill-rule:evenodd;stroke:rgb(0, 0, 0);stroke-width:3.0;" d="M 343.428, 578.509 L 330.863, 546.569 L 341.904, 541.119 z "/>
<path style="fill:rgb(175, 255, 52);fill-opacity:1.0;fill-rule:evenodd;stroke:rgb(0, 0, 0);stroke-width:3.0;" d="M 115.036, 376.126 L 95.3862, 387.937 L 76.2964, 370.403 L 122.103, 365.693 z "/>
<path style="fill:rgb(175, 255, 52);fill-opacity:1.0;fill-rule:evenodd;stroke:rgb(0, 0, 0);stroke-width:3.0;" d="M 611.095, 563.087 L 598.226, 583.098 L 563.476, 560.883 L 570.468, 529.623 z "/>
<path style="fill:rgb(175, 255, 52);fill-opacity:1.0;fill-rule:evenodd;stroke:rgb(0, 0, 0);stroke-width:3.0;" d="M 348.375, 535.565 L 375.908, 551.212 L 378.825, 563.808 L 382.068, 590.676 L 345.753, 535.321 z "/>
<path style="fill:rgb(255, 138, 30);fill-opacity:1.0;fill-rule:evenodd;stroke:rgb(0, 0, 0);stroke-width:3.0;" d="M 460.724, 289.396 L 461.296, 290.735 L 437.88, 283.303 L 422.931, 265.614 z "/>
<path style="fill:rgb(255, 138, 30);fill-opacity:1.0;fill-rule:evenodd;stroke:rgb(0, 0, 0);stroke-width:3.0;" d="M 752.366, 261.517 L 716.188, 287.094 L 699.531, 260.737 z "/>
<path style="fill:rgb(255, 138, 30);fill-opacity:1.0;fill-rule:evenodd;stroke:rgb(0, 0, 0);stroke-width:3.0;" d="M 175.682, 140.416 L 207.702, 177.787 L 157.659, 136.488 L 167.374, 136.332 z "/>
<path style="fill:rgb(255, 138, 30);fill-opacity:1.0;fill-rule:evenodd;stroke:rgb(0, 0, 0);stroke-width:3.0;" d="M 562.018, 483.687 L 547.789, 473.482 L 565.048, 465.679 z "/>
<path style="fill:rgb(255, 138, 30);fill-opacity:1.0;fill-rule:evenodd;stroke:rgb(0, 0, 0);stroke-width:3.0;" d="M 378.162, 461.343 L 379.171, 462.381 L 369.279, 471.216 L 362.325, 461.825 L 366.584, 455.696 z "/>
<path style="fill:rgb(255, 138, 30);fill-opacity:1.0;fill-rule:evenodd;stroke:rgb(0, 0, 0);stroke-width:3.0;" d="M 578.153, 495.26 L 569.277, 534.948 L 563.686, 530.305 L 562.112, 526.622 L 563.141, 484.493 z "/>
<path style="fill:rgb(75, 2, 255);fill-opacity:1.0;fill-rule:evenodd;stroke:rgb(0, 0, 0);stroke-width:3.0;" d="M 515.166, 416.778 L 533.434, 459.523 L 526.897, 465.815 L 510.726, 445.59 L 496.723, 400.475 z "/>
<path style="fill:rgb(75, 2, 255);fill-opacity:1.0;fill-rule:evenodd;stroke:rgb(0, 0, 0);stroke-width:3.0;" d="M 732.456, 243.174 L 709.717, 216.386 L 724.381, 212.527 z "/>
<path style="fill:rgb(75, 2, 255);fill-opacity:1.0;fill-rule:evenodd;stroke:rgb(0, 0, 0);stroke-width:3.0;" d="M 190.031, 253.217 L 203.796, 259.396 L 197.55, 275.393 L 196.751, 274.571 L 189.302, 253.206 z "/>
<path style="fill:rgb(19, 255, 62);fill-opacity:1.0;fill-rule:evenodd;stroke:rgb(0, 0, 0);stroke-width:3.0;" d="M 568.038, 540.487 L 564.701, 555.405 L 556.11, 551.005 L 564.447, 532.086 z "/>
<path style="fill:rgb(19, 255, 62);fill-opacity:1.0;fill-rule:evenodd;stroke:rgb(0, 0, 0);stroke-width:3.0;" d="M 294.522, 254.759 L 305.383, 260.698 L 376.061, 459.18 L 283.28, 363.656 L 257.651, 254.215 z "/>
<path style="fill:rgb(19, 255, 62);fill-opacity:1.0;fill-rule:evenodd;stroke:rgb(0, 0, 0);stroke-width:3.0;" d="M 387.286, 525.755 L 379.513, 524.999 L 303.334, 410.572 L 303.728, 394.24 z "/>
<path style="fill:rgb(19, 255, 62);fill-opacity:1.0;fill-rule:evenodd;stroke:rgb(0, 0, 0);stroke-width:3.0;" d="M 408.351, 256.439 L 422.931, 265.614 L 449.056, 296.527 L 446.508, 329.1 L 391.501, 256.191 z "/>
<path style="fill:rgb(19, 255, 62);fill-opacity:1.0;fill-rule:evenodd;stroke:rgb(0, 0, 0);stroke-width:3.0;" d="M 367.873, 310.414 L 368.252, 316.706 L 325.363, 316.806 L 318.255, 296.846 z "/>
<path style="fill:rgb(19, 255, 62);fill-opacity:1.0;fill-rule:evenodd;stroke:rgb(0, 0, 0);stroke-width:3.0;" d="M 219.394, 297.883 L 198.63, 327.186 L 174.227, 312.913 L 205.133, 283.201 z "/>
<path style="fill:rgb(19, 255, 62);fill-opacity:1.0;fill-rule:evenodd;stroke:rgb(0, 0, 0);stroke-width:3.0;" d="M 671.166, 253.035 L 603.918, 258.532 L 605.403, 256.956 L 673.4, 246.818 z "/>
<path style="fill:rgb(255, 27, 204);fill-opacity:1.0;fill-rule:evenodd;stroke:rgb(0, 0, 0);stroke-width:3.0;" d="M 669.808, 414.975 L 671.619, 434.175 L 587.112, 467.041 L 584.719, 465.901 L 597.441, 409.016 z "/>
<path style="fill:rgb(255, 45, 207);fill-opacity:1.0;fill-rule:evenodd;stroke:rgb(0, 0, 0);stroke-width:3.0;" d="M 774.544, 31.8745 L 741.336, 22.2055 L 752.677, 17.3126 L 786.721, 11.1248 z "/>
<path style="fill:rgb(255, 45, 207);fill-opacity:1.0;fill-rule:evenodd;stroke:rgb(0, 0, 0);stroke-width:3.0;" d="M 14.4797, 147.303 L 9.72467, 125.272 L 21.8719, 124.228 z "/>
<path style="fill:rgb(255, 45, 207);fill-opacity:1.0;fill-rule:evenodd;stroke:rgb(0, 0, 0);stroke-width:3.0;" d="M 577.841, 570.066 L 569.788, 580.112 L 560.512, 574.136 L 563.476, 560.883 z "/>
<path style="fill:rgb(255, 255, 57);fill-opacity:1.0;fill-rule:evenodd;stroke:rgb(0, 0, 0);stroke-width:3.0;" d="M 209.942, 184.877 L 28.8192, 210.548 L 26.8192, 176.919 z "/>
<path style="fill:rgb(240, 255, 37);fill-opacity:1.0;fill-rule:evenodd;stroke:rgb(0, 0, 0);stroke-width:3.0;" d="M 246.181, 308.765 L 243.377, 312.797 L 229.719, 307.848 L 244.619, 293.961 z "/>
<path style="fill:rgb(240, 255, 37);fill-opacity:1.0;fill-rule:evenodd;stroke:rgb(0, 0, 0);stroke-width:3.0;" d="M 462.748, 312.729 L 447.429, 317.327 L 449.056, 296.527 z "/>
<path style="fill:rgb(240, 255, 37);fill-opacity:1.0;fill-rule:evenodd;stroke:rgb(0, 0, 0);stroke-width:3.0;" d="M 652.877, 260.048 L 655.889, 267.408 L 657.114, 280.388 L 629.742, 264.586 L 630.83, 259.723 z "/>
<path style="fill:rgb(240, 255, 37);fill-opacity:1.0;fill-rule:evenodd;stroke:rgb(0, 0, 0);stroke-width:3.0;" d="M 117.28, 346.246 L 83.5605, 352.333 L 97.5241, 342.107 z "/>
<path style="fill:rgb(202, 11, 237);fill-opacity:1.0;fill-rule:evenodd;stroke:rgb(0, 0, 0);stroke-width:3.0;" d="M 25.3141, 512.196 L 54.3791, 566.537 L 46.688, 577.142 L 19.8769, 506.396 z "/>
<path style="fill:rgb(202, 11, 237);fill-opacity:1.0;fill-rule:evenodd;stroke:rgb(0, 0, 0);stroke-width:3.0;" d="M 234.338, 253.871 L 220.175, 270.217 L 202.543, 262.605 L 206.115, 253.455 z "/>
<path style="fill:rgb(255, 16, 17);fill-opacity:1.0;fill-rule:evenodd;stroke:rgb(0, 0, 0);stroke-width:3.0;" d="M 562.114, 483.756 L 545.996, 487.297 L 543.558, 483.211 L 540.277, 475.532 L 546.846, 472.806 z "/>
<path style="fill:rgb(10, 1, 237);fill-opacity:1.0;fill-rule:evenodd;stroke:rgb(0, 0, 0);stroke-width:3.0;" d="M 302.056, 463.617 L 299.692, 561.688 L 245.979, 510.571 L 174.34, 410.793 L 177.865, 402.033 L 269.672, 388.594 z "/>
<path style="fill:rgb(255, 21, 25);fill-opacity:1.0;fill-rule:evenodd;stroke:rgb(0, 0, 0);stroke-width:3.0;" d="M 765.682, 189.397 L 707.293, 179.886 L 695.713, 161.046 L 730.29, 124.326 z "/>
<path style="fill:rgb(8, 95, 255);fill-opacity:1.0;fill-rule:evenodd;stroke:rgb(0, 0, 0);stroke-width:3.0;" d="M 623.533, 292.349 L 586.891, 456.188 L 540.277, 475.532 L 451.363, 267.494 z "/>
<path style="fill:rgb(56, 255, 255);fill-opacity:1.0;fill-rule:evenodd;stroke:rgb(0, 0, 0);stroke-width:3.0;" d="M 445.079, 126.912 L 456.824, 149.886 L 384.722, 160.105 L 331.894, 55.8145 z "/>
<path style="fill:rgb(56, 255, 255);fill-opacity:1.0;fill-rule:evenodd;stroke:rgb(0, 0, 0);stroke-width:3.0;" d="M 630.83, 259.723 L 623.533, 292.349 L 451.363, 267.494 L 446.882, 257.008 z "/>
<path style="fill:rgb(255, 220, 13);fill-opacity:1.0;fill-rule:evenodd;stroke:rgb(0, 0, 0);stroke-width:3.0;" d="M 671.019, 253.446 L 668.563, 260.28 L 643.65, 259.912 L 650.775, 254.702 L 669.607, 253.162 z "/>
<path style="fill:rgb(255, 220, 13);fill-opacity:1.0;fill-rule:evenodd;stroke:rgb(0, 0, 0);stroke-width:3.0;" d="M 713.897, 533.707 L 713.343, 534.489 L 706.744, 535.823 L 696.746, 535.799 L 689.448, 530.366 L 710.519, 529.58 z "/>
<path style="fill:rgb(255, 220, 13);fill-opacity:1.0;fill-rule:evenodd;stroke:rgb(0, 0, 0);stroke-width:3.0;" d="M 25.7571, 234.233 L 23.3341, 248.901 L 5.11984, 226.744 L 9.54849, 226.333 z "/>
<path style="fill:rgb(255, 220, 13);fill-opacity:1.0;fill-rule:evenodd;stroke:rgb(0, 0, 0);stroke-width:3.0;" d="M 342.172, 587.332 L 319.542, 594.237 L 299.322, 577.049 L 299.795, 557.432 L 324.979, 540.495 z "/>
<path style="fill:rgb(240, 22, 57);fill-opacity:1.0;fill-rule:evenodd;stroke:rgb(0, 0, 0);stroke-width:3.0;" d="M 774.06, 31.7337 L 780.223, 40.3368 L 765.792, 88.9215 L 729.858, 32.8603 L 729.54, 32.2434 L 767.311, 29.7684 z "/>
<path style="fill:rgb(240, 22, 57);fill-opacity:1.0;fill-rule:evenodd;stroke:rgb(0, 0, 0);stroke-width:3.0;" d="M 346.392, 586.044 L 342.172, 587.332 L 324.979, 540.495 L 327.742, 538.637 z "/>
<path style="fill:rgb(19, 29, 255);fill-opacity:1.0;fill-rule:evenodd;stroke:rgb(0, 0, 0);stroke-width:3.0;" d="M 699.531, 260.737 L 728.669, 306.844 L 667.817, 299.577 L 673.62, 260.355 z "/>
<path style="fill:rgb(249, 255, 21);fill-opacity:1.0;fill-rule:evenodd;stroke:rgb(0, 0, 0);stroke-width:3.0;" d="M 672.515, 267.827 L 667.817, 299.577 L 659.222, 298.551 L 668.379, 261.432 z "/>
<path style="fill:rgb(255, 112, 18);fill-opacity:1.0;fill-rule:evenodd;stroke:rgb(0, 0, 0);stroke-width:3.0;" d="M 28.4954, 205.104 L 11.2508, 212.598 L 27.2016, 183.35 z "/>
<path style="fill:rgb(255, 75, 207);fill-opacity:1.0;fill-rule:evenodd;stroke:rgb(0, 0, 0);stroke-width:3.0;" d="M 745.393, 126.308 L 738.865, 124.829 L 739.285, 114.773 L 744.633, 109.094 L 752.504, 107.978 z "/>
<path style="fill:rgb(255, 75, 207);fill-opacity:1.0;fill-rule:evenodd;stroke:rgb(0, 0, 0);stroke-width:3.0;" d="M 398.281, 324.546 L 378.988, 324.441 L 367.81, 309.357 L 367.167, 298.665 z "/>
<path style="fill:rgb(255, 75, 207);fill-opacity:1.0;fill-rule:evenodd;stroke:rgb(0, 0, 0);stroke-width:3.0;" d="M 105.034, 251.963 L 152.514, 301.834 L 130.696, 317.813 L 98.4341, 251.865 z "/>
<path style="fill:rgb(202, 4, 18);fill-opacity:1.0;fill-rule:evenodd;stroke:rgb(0, 0, 0);stroke-width:3.0;" d="M 404.013, 487.957 L 376.866, 460.008 L 374.143, 414.715 L 482.406, 413.47 z "/>
<path style="fill:rgb(255, 189, 179);fill-opacity:1.0;fill-rule:evenodd;stroke:rgb(0, 0, 0);stroke-width:3.0;" d="M 410.907, 324.614 L 421.46, 333.944 L 483.906, 412.045 L 482.406, 413.47 L 374.143, 414.715 L 368.713, 324.385 z "/>
<path style="fill:rgb(249, 142, 7);fill-opacity:1.0;fill-rule:evenodd;stroke:rgb(0, 0, 0);stroke-width:3.0;" d="M 253.561, 178.695 L 215.363, 184.109 L 207.702, 177.787 L 175.682, 140.416 z "/>
<path style="fill:rgb(252, 192, 21);fill-opacity:1.0;fill-rule:evenodd;stroke:rgb(0, 0, 0);stroke-width:3.0;" d="M 622.707, 483.994 L 587.112, 467.041 L 625.097, 452.268 z "/>
<path style="fill:rgb(252, 192, 21);fill-opacity:1.0;fill-rule:evenodd;stroke:rgb(0, 0, 0);stroke-width:3.0;" d="M 312.155, 504.67 L 303.563, 486.051 L 304.745, 477.574 L 308.892, 476.265 z "/>
<path style="fill:rgb(252, 192, 21);fill-opacity:1.0;fill-rule:evenodd;stroke:rgb(0, 0, 0);stroke-width:3.0;" d="M 175.319, 241.961 L 177.028, 253.025 L 127.611, 252.296 L 109.721, 199.082 L 128.558, 196.412 z "/>
<path style="fill:rgb(144, 42, 115);fill-opacity:1.0;fill-rule:evenodd;stroke:rgb(0, 0, 0);stroke-width:3.0;" d="M 491.424, 395.79 L 494.731, 417.751 L 493.9, 424.545 L 482.901, 410.789 L 491.419, 395.786 z "/>
<path style="fill:rgb(144, 42, 115);fill-opacity:1.0;fill-rule:evenodd;stroke:rgb(0, 0, 0);stroke-width:3.0;" d="M 603.181, 259.315 L 469.247, 257.338 L 475.173, 147.285 L 744.633, 109.094 z "/>
<path style="fill:rgb(144, 42, 115);fill-opacity:1.0;fill-rule:evenodd;stroke:rgb(0, 0, 0);stroke-width:3.0;" d="M 400.955, 504.64 L 392.105, 511.195 L 385.232, 510.193 L 381.682, 505.731 L 392.337, 501.598 z "/>
<path style="fill:rgb(144, 42, 115);fill-opacity:1.0;fill-rule:evenodd;stroke:rgb(0, 0, 0);stroke-width:3.0;" d="M 730.642, 241.037 L 742.223, 254.68 L 719.655, 254.305 L 721.06, 244.61 L 729.005, 240.874 z "/>
<path style="fill:rgb(144, 42, 115);fill-opacity:1.0;fill-rule:evenodd;stroke:rgb(0, 0, 0);stroke-width:3.0;" d="M 327.742, 538.637 L 300.835, 556.733 L 303.727, 542.574 L 320.584, 520.44 z "/>
<path style="fill:rgb(204, 1, 20);fill-opacity:1.0;fill-rule:evenodd;stroke:rgb(0, 0, 0);stroke-width:3.0;" d="M 463.935, 536.262 L 474.471, 556.661 L 474.321, 560.344 L 452.268, 537.638 L 454.98, 535.028 z "/>
<path style="fill:rgb(31, 204, 255);fill-opacity:1.0;fill-rule:evenodd;stroke:rgb(0, 0, 0);stroke-width:3.0;" d="M 376.866, 460.008 L 376.061, 459.18 L 325.363, 316.806 L 368.252, 316.706 z "/>
<path style="fill:rgb(8, 8, 182);fill-opacity:1.0;fill-rule:evenodd;stroke:rgb(0, 0, 0);stroke-width:3.0;" d="M 341.488, 530.905 L 341.904, 541.119 L 330.863, 546.569 L 323.689, 528.333 z "/>
<path style="fill:rgb(252, 150, 11);fill-opacity:1.0;fill-rule:evenodd;stroke:rgb(0, 0, 0);stroke-width:3.0;" d="M 728.327, 238.31 L 693.79, 228.882 L 685.934, 208.996 L 702.132, 207.451 z "/>
<path style="fill:rgb(252, 150, 11);fill-opacity:1.0;fill-rule:evenodd;stroke:rgb(0, 0, 0);stroke-width:3.0;" d="M 91.5288, 99.053 L 46.1324, 177.759 L 26.8192, 176.919 L 21.9241, 94.613 L 47.2497, 77.2891 z "/>
<path style="fill:rgb(249, 197, 22);fill-opacity:1.0;fill-rule:evenodd;stroke:rgb(0, 0, 0);stroke-width:3.0;" d="M 242.863, 43.786 L 227.214, 70.4536 L 173.579, 21.8016 L 230.589, 15.2028 z "/>
<path style="fill:rgb(255, 165, 21);fill-opacity:1.0;fill-rule:evenodd;stroke:rgb(0, 0, 0);stroke-width:3.0;" d="M 667.224, 387.576 L 669.808, 414.975 L 597.441, 409.016 L 611.257, 347.241 z "/>
<path style="fill:rgb(212, 255, 8);fill-opacity:1.0;fill-rule:evenodd;stroke:rgb(0, 0, 0);stroke-width:3.0;" d="M 702.132, 207.451 L 685.934, 208.996 L 675.48, 182.534 L 678.373, 179.461 z "/>
<path style="fill:rgb(144, 5, 228);fill-opacity:1.0;fill-rule:evenodd;stroke:rgb(0, 0, 0);stroke-width:3.0;" d="M 688.224, 530.515 L 684.127, 540.064 L 671.749, 522.47 L 674.78, 519.845 z "/>
<path style="fill:rgb(255, 255, 21);fill-opacity:1.0;fill-rule:evenodd;stroke:rgb(0, 0, 0);stroke-width:3.0;" d="M 205.133, 283.201 L 174.227, 312.913 L 153.745, 300.933 L 193.837, 271.57 z "/>
<path style="fill:rgb(255, 255, 21);fill-opacity:1.0;fill-rule:evenodd;stroke:rgb(0, 0, 0);stroke-width:3.0;" d="M 366.907, 294.337 L 367.873, 310.414 L 318.255, 296.846 L 305.383, 260.698 z "/>
<path style="fill:rgb(255, 48, 21);fill-opacity:1.0;fill-rule:evenodd;stroke:rgb(0, 0, 0);stroke-width:3.0;" d="M 169.555, 204.656 L 168.653, 235.469 L 128.558, 196.412 L 167.43, 190.903 z "/>
<path style="fill:rgb(255, 2, 10);fill-opacity:1.0;fill-rule:evenodd;stroke:rgb(0, 0, 0);stroke-width:3.0;" d="M 189.955, 250.304 L 188.142, 253.189 L 177.028, 253.025 L 167.43, 190.903 L 167.594, 190.879 z "/>
<path style="fill:rgb(255, 228, 62);fill-opacity:1.0;fill-rule:evenodd;stroke:rgb(0, 0, 0);stroke-width:3.0;" d="M 337.665, 509.512 L 313.34, 488.497 L 309.558, 463.684 L 311.183, 458.81 z "/>
<path style="fill:rgb(255, 228, 62);fill-opacity:1.0;fill-rule:evenodd;stroke:rgb(0, 0, 0);stroke-width:3.0;" d="M 562.584, 564.875 L 561.925, 567.817 L 543.308, 580.584 L 542.889, 580.018 L 498.829, 503.805 z "/>
<path style="fill:rgb(255, 228, 62);fill-opacity:1.0;fill-rule:evenodd;stroke:rgb(0, 0, 0);stroke-width:3.0;" d="M 657.114, 280.388 L 667.224, 387.576 L 611.257, 347.241 L 629.742, 264.586 z "/>
<path style="fill:rgb(255, 228, 62);fill-opacity:1.0;fill-rule:evenodd;stroke:rgb(0, 0, 0);stroke-width:3.0;" d="M 95.3862, 387.937 L 84.0905, 394.727 L 63.9312, 371.674 L 76.2964, 370.403 z "/>
<path style="fill:rgb(255, 228, 62);fill-opacity:1.0;fill-rule:evenodd;stroke:rgb(0, 0, 0);stroke-width:3.0;" d="M 130.696, 317.813 L 107.333, 334.923 L 124.8, 305.762 z "/>
<path style="fill:rgb(255, 22, 189);fill-opacity:1.0;fill-rule:evenodd;stroke:rgb(0, 0, 0);stroke-width:3.0;" d="M 239.413, 318.493 L 269.672, 388.594 L 248.323, 391.719 L 204.28, 336.382 L 219.66, 298.157 z "/>
<path style="fill:rgb(24, 255, 48);fill-opacity:1.0;fill-rule:evenodd;stroke:rgb(0, 0, 0);stroke-width:3.0;" d="M 356.002, 489.683 L 352.879, 522.656 L 337.665, 509.512 L 311.183, 458.81 L 319.279, 434.521 z "/>
<path style="fill:rgb(192, 21, 54);fill-opacity:1.0;fill-rule:evenodd;stroke:rgb(0, 0, 0);stroke-width:3.0;" d="M 41.0532, 74.2433 L 21.7883, 92.3283 L 20.1002, 63.9446 z "/>
<path style="fill:rgb(192, 21, 54);fill-opacity:1.0;fill-rule:evenodd;stroke:rgb(0, 0, 0);stroke-width:3.0;" d="M 745.909, 554.309 L 735.098, 578.775 L 729.313, 575.052 L 719.905, 564.863 L 719.23, 553.898 z "/>
<path style="fill:rgb(192, 21, 54);fill-opacity:1.0;fill-rule:evenodd;stroke:rgb(0, 0, 0);stroke-width:3.0;" d="M 713.31, 189.675 L 722.062, 203.914 L 720.385, 213.579 L 714.236, 215.197 L 712.959, 189.578 z "/>
<path style="fill:rgb(252, 179, 9);fill-opacity:1.0;fill-rule:evenodd;stroke:rgb(0, 0, 0);stroke-width:3.0;" d="M 325.471, 261.077 L 336.691, 272.368 L 332.209, 275.365 L 316.014, 266.51 L 325.031, 261.003 z "/>
<path style="fill:rgb(252, 179, 9);fill-opacity:1.0;fill-rule:evenodd;stroke:rgb(0, 0, 0);stroke-width:3.0;" d="M 679.673, 536.255 L 677.547, 541.744 L 666.279, 534.494 L 667.216, 526.394 L 671.501, 522.684 z "/>
<path style="fill:rgb(252, 179, 9);fill-opacity:1.0;fill-rule:evenodd;stroke:rgb(0, 0, 0);stroke-width:3.0;" d="M 496.723, 400.475 L 510.726, 445.59 L 496.184, 427.402 L 491.424, 395.79 z "/>
<path style="fill:rgb(39, 228, 249);fill-opacity:1.0;fill-rule:evenodd;stroke:rgb(0, 0, 0);stroke-width:3.0;" d="M 752.073, 67.5176 L 775.883, 104.665 L 767.558, 105.845 L 748.215, 68.3964 L 750.474, 65.5742 z "/>
<path style="fill:rgb(39, 228, 249);fill-opacity:1.0;fill-rule:evenodd;stroke:rgb(0, 0, 0);stroke-width:3.0;" d="M 768.556, 131.554 L 789.354, 136.264 L 791.837, 141.072 L 738.691, 128.979 L 738.721, 128.256 z "/>
<path style="fill:rgb(255, 14, 39);fill-opacity:1.0;fill-rule:evenodd;stroke:rgb(0, 0, 0);stroke-width:3.0;" d="M 484.603, 582.032 L 484.751, 582.565 L 472.601, 587.274 L 453.344, 572.241 z "/>
<path style="fill:rgb(255, 40, 27);fill-opacity:1.0;fill-rule:evenodd;stroke:rgb(0, 0, 0);stroke-width:3.0;" d="M 498.829, 503.805 L 542.889, 580.018 L 486.875, 504.332 L 493.112, 498.329 z "/>
<path style="fill:rgb(8, 82, 255);fill-opacity:1.0;fill-rule:evenodd;stroke:rgb(0, 0, 0);stroke-width:3.0;" d="M 331.894, 55.8145 L 384.722, 160.105 L 333.977, 167.297 L 271.606, 110.721 L 251.887, 64.7999 L 280.938, 23.8068 z "/>
<path style="fill:rgb(8, 82, 255);fill-opacity:1.0;fill-rule:evenodd;stroke:rgb(0, 0, 0);stroke-width:3.0;" d="M 730.076, 240.37 L 698.179, 255.37 L 695.481, 249.32 L 708.048, 241.653 L 728.568, 238.594 z "/>
<path style="fill:rgb(246, 249, 30);fill-opacity:1.0;fill-rule:evenodd;stroke:rgb(0, 0, 0);stroke-width:3.0;" d="M 584.297, 589.461 L 569.788, 580.112 L 577.583, 570.389 z "/>
<path style="fill:rgb(255, 27, 252);fill-opacity:1.0;fill-rule:evenodd;stroke:rgb(0, 0, 0);stroke-width:3.0;" d="M 562.401, 514.802 L 547.254, 489.407 L 563.035, 488.849 z "/>
<path style="fill:rgb(48, 215, 255);fill-opacity:1.0;fill-rule:evenodd;stroke:rgb(0, 0, 0);stroke-width:3.0;" d="M 645.483, 250.98 L 605.403, 256.956 L 619.862, 241.6 z "/>
<path style="fill:rgb(48, 215, 255);fill-opacity:1.0;fill-rule:evenodd;stroke:rgb(0, 0, 0);stroke-width:3.0;" d="M 167.145, 144.317 L 215.363, 184.109 L 209.942, 184.877 L 46.1324, 177.759 L 73.3069, 130.645 z "/>
<path style="fill:rgb(255, 136, 50);fill-opacity:1.0;fill-rule:evenodd;stroke:rgb(0, 0, 0);stroke-width:3.0;" d="M 583.184, 588.744 L 564.628, 594.617 L 569.68, 580.043 z "/>
<path style="fill:rgb(255, 40, 15);fill-opacity:1.0;fill-rule:evenodd;stroke:rgb(0, 0, 0);stroke-width:3.0;" d="M 378.378, 295.86 L 410.907, 324.614 L 398.281, 324.546 L 367.167, 298.665 L 366.399, 285.883 z "/>
<path style="fill:rgb(255, 255, 132);fill-opacity:1.0;fill-rule:evenodd;stroke:rgb(0, 0, 0);stroke-width:3.0;" d="M 469.247, 257.338 L 191.058, 253.232 L 167.594, 190.879 L 475.173, 147.285 z "/>
<path style="fill:rgb(255, 243, 11);fill-opacity:1.0;fill-rule:evenodd;stroke:rgb(0, 0, 0);stroke-width:3.0;" d="M 518.436, 489.825 L 558.833, 544.826 L 556.11, 551.005 L 538.908, 542.196 L 493.112, 498.329 L 502.201, 489.583 z "/>
<path style="fill:rgb(255, 246, 91);fill-opacity:1.0;fill-rule:evenodd;stroke:rgb(0, 0, 0);stroke-width:3.0;" d="M 538.256, 480.559 L 531.205, 490.015 L 502.201, 489.583 L 528.194, 464.567 z "/>
<path style="fill:rgb(255, 246, 91);fill-opacity:1.0;fill-rule:evenodd;stroke:rgb(0, 0, 0);stroke-width:3.0;" d="M 748.956, 544.124 L 751.824, 551.763 L 729.947, 542.208 L 739.112, 539.435 z "/>
<path style="fill:rgb(255, 226, 24);fill-opacity:1.0;fill-rule:evenodd;stroke:rgb(0, 0, 0);stroke-width:3.0;" d="M 175.807, 253.007 L 193.837, 271.57 L 152.514, 301.834 L 121.425, 269.179 L 159.809, 252.771 z "/>
<path style="fill:rgb(177, 157, 207);fill-opacity:1.0;fill-rule:evenodd;stroke:rgb(0, 0, 0);stroke-width:3.0;" d="M 159.809, 252.771 L 121.425, 269.179 L 105.034, 251.963 z "/>
<path style="fill:rgb(18, 255, 255);fill-opacity:1.0;fill-rule:evenodd;stroke:rgb(0, 0, 0);stroke-width:3.0;" d="M 712.959, 189.578 L 714.139, 213.249 L 695.912, 196.481 L 707.044, 187.946 z "/>
<path style="fill:rgb(255, 107, 6);fill-opacity:1.0;fill-rule:evenodd;stroke:rgb(0, 0, 0);stroke-width:3.0;" d="M 357.903, 492.539 L 362.213, 539.901 L 351.719, 534.904 L 356.002, 489.683 z "/>
<path style="fill:rgb(255, 49, 13);fill-opacity:1.0;fill-rule:evenodd;stroke:rgb(0, 0, 0);stroke-width:3.0;" d="M 271.089, 109.517 L 260.015, 100.207 L 253.258, 94.0776 L 254.358, 70.5558 z "/>
<path style="fill:rgb(82, 60, 255);fill-opacity:1.0;fill-rule:evenodd;stroke:rgb(0, 0, 0);stroke-width:3.0;" d="M 31.3882, 575.478 L 32.3986, 582.621 L 29.2312, 584.897 L 21.1643, 579.06 L 19.8695, 576.058 L 20.7881, 571.563 L 22.0427, 569.808 z "/>
<path style="fill:rgb(255, 255, 11);fill-opacity:1.0;fill-rule:evenodd;stroke:rgb(0, 0, 0);stroke-width:3.0;" d="M 706.103, 544.706 L 700.426, 552.718 L 690.885, 548.56 L 698.872, 538.967 z "/>
<path style="fill:rgb(44, 175, 255);fill-opacity:1.0;fill-rule:evenodd;stroke:rgb(0, 0, 0);stroke-width:3.0;" d="M 256.216, 524.829 L 55.2466, 544.832 L 165.295, 398.195 z "/>
<path style="fill:rgb(44, 91, 255);fill-opacity:1.0;fill-rule:evenodd;stroke:rgb(0, 0, 0);stroke-width:3.0;" d="M 526.897, 465.815 L 513.75, 478.467 L 412.979, 479.438 L 483.906, 412.045 z "/>
<path style="fill:rgb(44, 91, 255);fill-opacity:1.0;fill-rule:evenodd;stroke:rgb(0, 0, 0);stroke-width:3.0;" d="M 306.036, 451.404 L 307.101, 460.673 L 303.563, 486.051 L 301.617, 481.833 L 301.998, 466.036 L 304.36, 449.903 z "/>
<path style="fill:rgb(255, 1, 18);fill-opacity:1.0;fill-rule:evenodd;stroke:rgb(0, 0, 0);stroke-width:3.0;" d="M 123.146, 302.38 L 124.8, 305.762 L 107.51, 334.626 L 106.196, 332.656 L 113.696, 296.681 z "/>
<path style="fill:rgb(12, 54, 255);fill-opacity:1.0;fill-rule:evenodd;stroke:rgb(0, 0, 0);stroke-width:3.0;" d="M 47.2497, 77.2891 L 21.9241, 94.613 L 21.7883, 92.3283 L 41.0532, 74.2433 z "/>
<path style="fill:rgb(255, 9, 97);fill-opacity:1.0;fill-rule:evenodd;stroke:rgb(0, 0, 0);stroke-width:3.0;" d="M 696.615, 519.556 L 700.895, 529.457 L 687.979, 530.321 L 684.748, 527.757 L 687.106, 522.197 L 695.32, 518.821 z "/>
<path style="fill:rgb(255, 15, 79);fill-opacity:1.0;fill-rule:evenodd;stroke:rgb(0, 0, 0);stroke-width:3.0;" d="M 319.279, 434.521 L 309.558, 463.684 L 304.454, 430.192 L 313.031, 425.137 z "/>
<path style="fill:rgb(255, 15, 79);fill-opacity:1.0;fill-rule:evenodd;stroke:rgb(0, 0, 0);stroke-width:3.0;" d="M 452.268, 537.638 L 404.013, 487.957 L 412.979, 479.438 L 513.75, 478.467 z "/>
<path style="fill:rgb(215, 148, 83);fill-opacity:1.0;fill-rule:evenodd;stroke:rgb(0, 0, 0);stroke-width:3.0;" d="M 263.335, 297.772 L 265.175, 320.696 L 246.735, 314.014 L 244.619, 293.961 L 251.243, 287.786 z "/>
<path style="fill:rgb(228, 7, 28);fill-opacity:1.0;fill-rule:evenodd;stroke:rgb(0, 0, 0);stroke-width:3.0;" d="M 387.999, 537.746 L 375.13, 543.729 L 361.222, 529.008 L 357.903, 492.539 z "/>
<path style="fill:rgb(243, 4, 49);fill-opacity:1.0;fill-rule:evenodd;stroke:rgb(0, 0, 0);stroke-width:3.0;" d="M 530.264, 490.001 L 548.747, 495.351 L 556.924, 514.483 L 554.348, 515.934 L 518.505, 489.919 L 518.436, 489.825 z "/>
<path style="fill:rgb(255, 44, 27);fill-opacity:1.0;fill-rule:evenodd;stroke:rgb(0, 0, 0);stroke-width:3.0;" d="M 687.489, 244.718 L 645.483, 250.98 L 625.548, 243.681 L 636.914, 235.923 z "/>
<path style="fill:rgb(255, 44, 27);fill-opacity:1.0;fill-rule:evenodd;stroke:rgb(0, 0, 0);stroke-width:3.0;" d="M 776.015, 110.44 L 789.354, 136.264 L 745.393, 126.308 L 752.504, 107.978 L 757.399, 107.284 z "/>
<path style="fill:rgb(249, 39, 15);fill-opacity:1.0;fill-rule:evenodd;stroke:rgb(0, 0, 0);stroke-width:3.0;" d="M 46.688, 577.142 L 42.8506, 582.433 L 14.7212, 565.365 L 21.7, 511.206 z "/>
<path style="fill:rgb(255, 71, 10);fill-opacity:1.0;fill-rule:evenodd;stroke:rgb(0, 0, 0);stroke-width:3.0;" d="M 49.8949, 376.989 L 49.289, 377.432 L 76.8951, 299.729 L 93.3523, 297.056 z "/>
<path style="fill:rgb(255, 71, 10);fill-opacity:1.0;fill-rule:evenodd;stroke:rgb(0, 0, 0);stroke-width:3.0;" d="M 600.242, 584.387 L 598.226, 583.098 L 612.651, 560.667 L 634.808, 554.456 z "/>
<path style="fill:rgb(64, 255, 255);fill-opacity:1.0;fill-rule:evenodd;stroke:rgb(0, 0, 0);stroke-width:3.0;" d="M 585.698, 461.52 L 578.153, 495.26 L 567.888, 487.897 L 574.517, 461.323 L 584.789, 457.06 z "/>
<path style="fill:rgb(64, 255, 255);fill-opacity:1.0;fill-rule:evenodd;stroke:rgb(0, 0, 0);stroke-width:3.0;" d="M 115.687, 287.132 L 105.434, 336.314 L 49.8949, 376.989 L 107.664, 270.732 z "/>
<path style="fill:rgb(255, 217, 9);fill-opacity:1.0;fill-rule:evenodd;stroke:rgb(0, 0, 0);stroke-width:3.0;" d="M 652.755, 498.305 L 611.095, 563.087 L 570.468, 529.623 L 584.719, 465.901 z "/>
<path style="fill:rgb(243, 71, 94);fill-opacity:1.0;fill-rule:evenodd;stroke:rgb(0, 0, 0);stroke-width:3.0;" d="M 452.922, 538.312 L 436.217, 558.823 L 413.34, 552.659 L 414.838, 523.741 L 428.948, 513.629 z "/>
<path style="fill:rgb(255, 255, 18);fill-opacity:1.0;fill-rule:evenodd;stroke:rgb(0, 0, 0);stroke-width:3.0;" d="M 674.403, 463.695 L 656.752, 439.957 L 671.619, 434.175 z "/>
<path style="fill:rgb(243, 36, 14);fill-opacity:1.0;fill-rule:evenodd;stroke:rgb(0, 0, 0);stroke-width:3.0;" d="M 198.63, 327.186 L 156.747, 386.289 L 115.548, 328.907 L 153.745, 300.933 z "/>
<path style="fill:rgb(226, 255, 187);fill-opacity:1.0;fill-rule:evenodd;stroke:rgb(0, 0, 0);stroke-width:3.0;" d="M 98.4341, 251.865 L 107.664, 270.732 L 93.3523, 297.056 L 76.8951, 299.729 L 93.9236, 251.799 z "/>
<path style="fill:rgb(255, 228, 9);fill-opacity:1.0;fill-rule:evenodd;stroke:rgb(0, 0, 0);stroke-width:3.0;" d="M 17.6921, 23.4543 L 18.341, 34.3655 L 9.89891, 35.0749 L 6.67108, 23.3936 z "/>
<path style="fill:rgb(21, 30, 255);fill-opacity:1.0;fill-rule:evenodd;stroke:rgb(0, 0, 0);stroke-width:3.0;" d="M 446.882, 257.008 L 456.346, 279.153 L 437.883, 275.023 L 412.771, 259.221 L 430.523, 256.767 z "/>
<path style="fill:rgb(175, 39, 24);fill-opacity:1.0;fill-rule:evenodd;stroke:rgb(0, 0, 0);stroke-width:3.0;" d="M 254.358, 70.5558 L 253.497, 88.9597 L 246.462, 78.3739 L 249.194, 58.5294 z "/>
<path style="fill:rgb(220, 246, 255);fill-opacity:1.0;fill-rule:evenodd;stroke:rgb(0, 0, 0);stroke-width:3.0;" d="M 248.323, 391.719 L 180.994, 401.575 L 233.488, 373.08 z "/>
<path style="fill:rgb(255, 6, 159);fill-opacity:1.0;fill-rule:evenodd;stroke:rgb(0, 0, 0);stroke-width:3.0;" d="M 233.488, 373.08 L 180.994, 401.575 L 177.865, 402.033 L 204.28, 336.382 z "/>
</svg>