<?xml version="1.0" encoding="iso-8859-1" standalone="no"?>
<!DOCTYPE svg PUBLIC "-//W3C//DTD SVG 1.0//EN" "http://www.w3.org/TR/2001/REC-SVG-20010904/DTD/svg10.dtd">
<svg xmlns="http://www.w3.org/2000/svg" width="800" height="600">
<path style="fill:rgb(0, 0, 0);fill-opacity:0.0;fill-rule:evenodd;stroke:rgb(0, 0, 0);stroke-width:0.0;" d="M 0, 600 L 800, 600 L 800, 0 L 0, 0 z "/>
<path style="fill:rgb(30, 64, 204);fill-opacity:1.0;fill-rule:evenodd;stroke:rgb(0, 0, 0);stroke-width:3.0;" d="M 724.222, 253.98 L 724.205, 260.029 L 562.634, 282.554 L 552.992, 265.461 L 600.485, 250.956 z "/>
<path style="fill:rgb(212, 8, 11);fill-opacity:1.0;fill-rule:evenodd;stroke:rgb(0, 0, 0);stroke-width:3.0;" d="M 523.14, 274.578 L 197.384, 374.067 L 194.523, 302.98 L 293.085, 258.613 L 548.452, 248.104 z "/>
<path style="fill:rgb(228, 112, 255);fill-opacity:1.0;fill-rule:evenodd;stroke:rgb(0, 0, 0);stroke-width:3.0;" d="M 769.558, 49.985 L 692.473, 146.881 L 669.162, 144.249 L 634.477, 78.6277 L 634.192, 63.644 L 767.984, 47.9272 z "/>
<path style="fill:rgb(228, 112, 255);fill-opacity:1.0;fill-rule:evenodd;stroke:rgb(0, 0, 0);stroke-width:3.0;" d="M 580.546, 257.045 L 565.505, 261.639 L 554.401, 257.494 L 548.881, 253.402 L 548.963, 253.392 z "/>
<path style="fill:rgb(255, 0, 36);fill-opacity:1.0;fill-rule:evenodd;stroke:rgb(0, 0, 0);stroke-width:3.0;" d="M 465.762, 486.514 L 463.038, 483.145 L 456.434, 442.653 L 470.874, 438.08 z "/>
<path style="fill:rgb(54, 255, 202);fill-opacity:1.0;fill-rule:evenodd;stroke:rgb(0, 0, 0);stroke-width:3.0;" d="M 479.844, 542.352 L 457.509, 564.697 L 461.008, 531.549 z "/>
<path style="fill:rgb(255, 37, 65);fill-opacity:1.0;fill-rule:evenodd;stroke:rgb(0, 0, 0);stroke-width:3.0;" d="M 428.898, 514.071 L 401.45, 504.374 L 413.261, 487.872 z "/>
<path style="fill:rgb(255, 37, 65);fill-opacity:1.0;fill-rule:evenodd;stroke:rgb(0, 0, 0);stroke-width:3.0;" d="M 361.405, 422.113 L 253.344, 482.427 L 237.13, 446.229 L 295.274, 344.17 L 370.758, 321.117 z "/>
<path style="fill:rgb(105, 243, 252);fill-opacity:1.0;fill-rule:evenodd;stroke:rgb(0, 0, 0);stroke-width:3.0;" d="M 68.3155, 512.842 L 68.3568, 514.179 L 46.7645, 517.061 L 43.5574, 515.991 L 46.8151, 508.908 z "/>
<path style="fill:rgb(237, 21, 223);fill-opacity:1.0;fill-rule:evenodd;stroke:rgb(0, 0, 0);stroke-width:3.0;" d="M 478.512, 250.982 L 234.899, 261.007 L 208.469, 189.631 z "/>
<path style="fill:rgb(9, 11, 175);fill-opacity:1.0;fill-rule:evenodd;stroke:rgb(0, 0, 0);stroke-width:3.0;" d="M 208.469, 189.631 L 234.899, 261.007 L 210.733, 262.002 L 204.942, 255.371 L 192.098, 206.117 L 202.301, 188.229 z "/>
<path style="fill:rgb(59, 237, 182);fill-opacity:1.0;fill-rule:evenodd;stroke:rgb(0, 0, 0);stroke-width:3.0;" d="M 103.792, 480.556 L 98.4436, 523.218 L 93.4993, 515.779 L 86.3024, 489.088 L 97.2533, 478.02 z "/>
<path style="fill:rgb(7, 194, 249);fill-opacity:1.0;fill-rule:evenodd;stroke:rgb(0, 0, 0);stroke-width:3.0;" d="M 403.934, 336.332 L 379.154, 344.351 L 368.918, 340.982 L 370.345, 325.57 L 374.708, 319.91 L 385.594, 316.586 z "/>
<path style="fill:rgb(255, 27, 252);fill-opacity:1.0;fill-rule:evenodd;stroke:rgb(0, 0, 0);stroke-width:3.0;" d="M 255.822, 487.961 L 226.975, 512.376 L 204.539, 434.207 L 223.077, 414.856 z "/>
<path style="fill:rgb(249, 231, 11);fill-opacity:1.0;fill-rule:evenodd;stroke:rgb(0, 0, 0);stroke-width:3.0;" d="M 791.72, 529.697 L 787.268, 533.92 L 776.088, 539.431 L 774.536, 539.627 L 776.644, 526.521 z "/>
<path style="fill:rgb(243, 43, 146);fill-opacity:1.0;fill-rule:evenodd;stroke:rgb(0, 0, 0);stroke-width:3.0;" d="M 221.719, 385.307 L 218.346, 385.789 L 205.904, 376.515 L 203.913, 372.072 L 220.266, 367.078 z "/>
<path style="fill:rgb(243, 43, 146);fill-opacity:1.0;fill-rule:evenodd;stroke:rgb(0, 0, 0);stroke-width:3.0;" d="M 761.47, 565.862 L 739.33, 577.133 L 737.476, 572.487 L 759.535, 561.302 z "/>
<path style="fill:rgb(243, 43, 146);fill-opacity:1.0;fill-rule:evenodd;stroke:rgb(0, 0, 0);stroke-width:3.0;" d="M 98.1093, 308.374 L 31.3589, 287.42 L 35.6756, 269.206 L 107.673, 266.243 z "/>
<path style="fill:rgb(11, 5, 237);fill-opacity:1.0;fill-rule:evenodd;stroke:rgb(0, 0, 0);stroke-width:3.0;" d="M 59.9954, 233.581 L 58.5934, 65.2394 L 90.0561, 55.441 z "/>
<path style="fill:rgb(11, 5, 237);fill-opacity:1.0;fill-rule:evenodd;stroke:rgb(0, 0, 0);stroke-width:3.0;" d="M 30.6575, 511.687 L 69.0076, 535.282 L 69.4247, 548.807 L 44.4139, 534.454 L 12.4116, 505.599 z "/>
<path style="fill:rgb(252, 24, 194);fill-opacity:1.0;fill-rule:evenodd;stroke:rgb(0, 0, 0);stroke-width:3.0;" d="M 697.923, 239.181 L 691.695, 239.165 L 680.147, 235.347 L 701.161, 229.188 z "/>
<path style="fill:rgb(252, 24, 194);fill-opacity:1.0;fill-rule:evenodd;stroke:rgb(0, 0, 0);stroke-width:3.0;" d="M 385.143, 569.957 L 382.181, 575.652 L 349.949, 575.099 L 347.452, 572.796 L 349.984, 545.453 L 379.185, 527.305 z "/>
<path style="fill:rgb(240, 255, 15);fill-opacity:1.0;fill-rule:evenodd;stroke:rgb(0, 0, 0);stroke-width:3.0;" d="M 766.823, 210.9 L 757.223, 220.903 L 753.377, 222.138 L 754.326, 203.972 L 763.112, 201.288 z "/>
<path style="fill:rgb(240, 255, 15);fill-opacity:1.0;fill-rule:evenodd;stroke:rgb(0, 0, 0);stroke-width:3.0;" d="M 416.493, 509.689 L 385.143, 569.957 L 379.185, 527.305 L 410.78, 507.67 z "/>
<path style="fill:rgb(252, 252, 35);fill-opacity:1.0;fill-rule:evenodd;stroke:rgb(0, 0, 0);stroke-width:3.0;" d="M 780.225, 297.041 L 773.056, 593.164 L 723.617, 476.665 L 724.108, 295.976 z "/>
<path style="fill:rgb(252, 252, 35);fill-opacity:1.0;fill-rule:evenodd;stroke:rgb(0, 0, 0);stroke-width:3.0;" d="M 255.702, 413.63 L 233.059, 396.754 L 257.559, 358.69 L 291.592, 350.633 z "/>
<path style="fill:rgb(252, 252, 35);fill-opacity:1.0;fill-rule:evenodd;stroke:rgb(0, 0, 0);stroke-width:3.0;" d="M 79.7178, 505.62 L 68.6048, 521.196 L 68.5729, 521.188 L 66.6563, 459.038 z "/>
<path style="fill:rgb(255, 16, 172);fill-opacity:1.0;fill-rule:evenodd;stroke:rgb(0, 0, 0);stroke-width:3.0;" d="M 362.946, 458.778 L 356.236, 477.939 L 360.368, 433.313 L 364.999, 421.057 z "/>
<path style="fill:rgb(115, 187, 255);fill-opacity:1.0;fill-rule:evenodd;stroke:rgb(0, 0, 0);stroke-width:3.0;" d="M 61.9438, 569.786 L 9.71331, 590.754 L 12.9731, 586.563 L 47.389, 562.7 z "/>
<path style="fill:rgb(240, 3, 130);fill-opacity:1.0;fill-rule:evenodd;stroke:rgb(0, 0, 0);stroke-width:3.0;" d="M 787.541, 246.98 L 788.622, 247.714 L 790.266, 265.446 L 780.994, 265.26 L 781.153, 258.697 L 782.092, 246.044 z "/>
<path style="fill:rgb(240, 3, 130);fill-opacity:1.0;fill-rule:evenodd;stroke:rgb(0, 0, 0);stroke-width:3.0;" d="M 187.281, 539.562 L 150.786, 518.512 L 147.037, 495.768 L 157.812, 475.297 z "/>
<path style="fill:rgb(240, 3, 130);fill-opacity:1.0;fill-rule:evenodd;stroke:rgb(0, 0, 0);stroke-width:3.0;" d="M 330.388, 506.317 L 296.515, 522.448 L 316.573, 482.992 z "/>
<path style="fill:rgb(240, 3, 130);fill-opacity:1.0;fill-rule:evenodd;stroke:rgb(0, 0, 0);stroke-width:3.0;" d="M 95.4864, 467.448 L 83.8294, 479.917 L 80.3313, 466.944 L 88.9485, 455.948 z "/>
<path style="fill:rgb(240, 3, 130);fill-opacity:1.0;fill-rule:evenodd;stroke:rgb(0, 0, 0);stroke-width:3.0;" d="M 137.522, 551.539 L 99.638, 513.691 L 105.104, 470.084 L 135.671, 439.189 z "/>
<path style="fill:rgb(240, 3, 130);fill-opacity:1.0;fill-rule:evenodd;stroke:rgb(0, 0, 0);stroke-width:3.0;" d="M 562.606, 466.253 L 561.055, 476.751 L 559.743, 477.676 L 548.955, 473.205 L 561.134, 461.02 z "/>
<path style="fill:rgb(240, 3, 130);fill-opacity:1.0;fill-rule:evenodd;stroke:rgb(0, 0, 0);stroke-width:3.0;" d="M 584.867, 488.193 L 567.086, 549.923 L 545.016, 551.666 L 525.137, 532.998 L 558.011, 493.239 L 579.46, 480.793 z "/>
<path style="fill:rgb(240, 3, 130);fill-opacity:1.0;fill-rule:evenodd;stroke:rgb(0, 0, 0);stroke-width:3.0;" d="M 138.767, 305.628 L 95.1497, 321.411 L 107.673, 266.243 L 119.701, 265.748 z "/>
<path style="fill:rgb(255, 252, 16);fill-opacity:1.0;fill-rule:evenodd;stroke:rgb(0, 0, 0);stroke-width:3.0;" d="M 780.225, 297.041 L 724.108, 295.976 L 724.283, 231.48 L 782.263, 212.864 z "/>
<path style="fill:rgb(255, 252, 16);fill-opacity:1.0;fill-rule:evenodd;stroke:rgb(0, 0, 0);stroke-width:3.0;" d="M 42.0903, 560.121 L 41.7174, 566.633 L 12.9731, 586.563 L 35.8892, 557.102 z "/>
<path style="fill:rgb(255, 252, 16);fill-opacity:1.0;fill-rule:evenodd;stroke:rgb(0, 0, 0);stroke-width:3.0;" d="M 525.137, 532.998 L 511.522, 520.212 L 558.011, 493.239 z "/>
<path style="fill:rgb(255, 252, 16);fill-opacity:1.0;fill-rule:evenodd;stroke:rgb(0, 0, 0);stroke-width:3.0;" d="M 465.762, 486.514 L 461.632, 525.636 L 428.898, 514.071 L 410.139, 482.642 L 453.23, 471.012 z "/>
<path style="fill:rgb(255, 252, 16);fill-opacity:1.0;fill-rule:evenodd;stroke:rgb(0, 0, 0);stroke-width:3.0;" d="M 631.588, 18.423 L 622.405, 24.191 L 608.478, 22.7052 L 609.941, 19.9985 L 632.043, 13.8612 z "/>
<path style="fill:rgb(207, 98, 140);fill-opacity:1.0;fill-rule:evenodd;stroke:rgb(0, 0, 0);stroke-width:3.0;" d="M 20.4659, 448.661 L 12.871, 452.236 L 7.99363, 451.529 L 9.32288, 442.666 L 23.0188, 439.375 z "/>
<path style="fill:rgb(207, 98, 140);fill-opacity:1.0;fill-rule:evenodd;stroke:rgb(0, 0, 0);stroke-width:3.0;" d="M 767.894, 27.8073 L 770.675, 51.4442 L 763.972, 42.6837 L 759.519, 24.3177 z "/>
<path style="fill:rgb(226, 10, 11);fill-opacity:1.0;fill-rule:evenodd;stroke:rgb(0, 0, 0);stroke-width:3.0;" d="M 217.543, 479.512 L 233.34, 534.55 L 198.52, 537.789 L 179.939, 523.549 L 160.197, 480.497 L 164.398, 476.111 z "/>
<path style="fill:rgb(255, 249, 43);fill-opacity:1.0;fill-rule:evenodd;stroke:rgb(0, 0, 0);stroke-width:3.0;" d="M 709.512, 306.885 L 647.959, 328.416 L 644.546, 324.985 L 720.191, 300.705 z "/>
<path style="fill:rgb(255, 249, 43);fill-opacity:1.0;fill-rule:evenodd;stroke:rgb(0, 0, 0);stroke-width:3.0;" d="M 471.226, 418.573 L 446.635, 421.194 L 428.361, 416.777 L 438.618, 379.507 L 459.055, 378.948 z "/>
<path style="fill:rgb(255, 255, 19);fill-opacity:1.0;fill-rule:evenodd;stroke:rgb(0, 0, 0);stroke-width:3.0;" d="M 244.088, 269.641 L 244.062, 269.938 L 200.732, 264.462 L 204.681, 262.251 L 221.92, 261.541 z "/>
<path style="fill:rgb(255, 255, 110);fill-opacity:1.0;fill-rule:evenodd;stroke:rgb(0, 0, 0);stroke-width:3.0;" d="M 271.77, 268.207 L 254.689, 275.896 L 252.69, 264.367 L 264.394, 259.793 L 274.584, 259.374 z "/>
<path style="fill:rgb(255, 255, 110);fill-opacity:1.0;fill-rule:evenodd;stroke:rgb(0, 0, 0);stroke-width:3.0;" d="M 93.6669, 440.149 L 72.1086, 436.448 L 69.789, 427.846 L 95.9784, 427.319 z "/>
<path style="fill:rgb(128, 217, 237);fill-opacity:1.0;fill-rule:evenodd;stroke:rgb(0, 0, 0);stroke-width:3.0;" d="M 196.074, 341.519 L 79.4674, 390.492 L 93.2165, 329.926 L 194.254, 296.287 z "/>
<path style="fill:rgb(255, 175, 27);fill-opacity:1.0;fill-rule:evenodd;stroke:rgb(0, 0, 0);stroke-width:3.0;" d="M 392.89, 396.367 L 378.315, 479.481 L 362.616, 465.645 L 387.282, 389.429 z "/>
<path style="fill:rgb(255, 175, 27);fill-opacity:1.0;fill-rule:evenodd;stroke:rgb(0, 0, 0);stroke-width:3.0;" d="M 431.122, 406.742 L 423.542, 434.285 L 415.39, 424.201 L 421.055, 404.836 z "/>
<path style="fill:rgb(255, 175, 27);fill-opacity:1.0;fill-rule:evenodd;stroke:rgb(0, 0, 0);stroke-width:3.0;" d="M 710.718, 239.213 L 697.426, 253.325 L 627.04, 251.605 L 641.208, 239.037 z "/>
<path style="fill:rgb(243, 255, 30);fill-opacity:1.0;fill-rule:evenodd;stroke:rgb(0, 0, 0);stroke-width:3.0;" d="M 601.362, 351.209 L 527.941, 403.462 L 482.251, 330.297 L 486.966, 285.626 L 552.992, 265.461 z "/>
<path style="fill:rgb(243, 255, 30);fill-opacity:1.0;fill-rule:evenodd;stroke:rgb(0, 0, 0);stroke-width:3.0;" d="M 70.1006, 549.195 L 44.616, 559.008 L 45.886, 550.514 L 63.1894, 545.229 z "/>
<path style="fill:rgb(255, 228, 56);fill-opacity:1.0;fill-rule:evenodd;stroke:rgb(0, 0, 0);stroke-width:3.0;" d="M 720.601, 300.574 L 644.546, 324.985 L 641.92, 322.345 L 704.143, 278.062 z "/>
<path style="fill:rgb(255, 228, 56);fill-opacity:1.0;fill-rule:evenodd;stroke:rgb(0, 0, 0);stroke-width:3.0;" d="M 724.194, 264.058 L 710.945, 287.367 L 704.143, 278.062 L 724.195, 263.792 z "/>
<path style="fill:rgb(255, 228, 56);fill-opacity:1.0;fill-rule:evenodd;stroke:rgb(0, 0, 0);stroke-width:3.0;" d="M 44.4236, 291.521 L 24.2722, 361.42 L 14.1104, 360.201 L 31.3589, 287.42 z "/>
<path style="fill:rgb(255, 228, 56);fill-opacity:1.0;fill-rule:evenodd;stroke:rgb(0, 0, 0);stroke-width:3.0;" d="M 387.913, 380.895 L 380.546, 381.097 L 366.78, 364.067 L 368.28, 347.869 L 379.06, 344.381 z "/>
<path style="fill:rgb(21, 59, 197);fill-opacity:1.0;fill-rule:evenodd;stroke:rgb(0, 0, 0);stroke-width:3.0;" d="M 443.899, 379.362 L 387.913, 380.895 L 379.06, 344.381 L 403.934, 336.332 z "/>
<path style="fill:rgb(215, 5, 30);fill-opacity:1.0;fill-rule:evenodd;stroke:rgb(0, 0, 0);stroke-width:3.0;" d="M 441.412, 522.02 L 441.345, 524.885 L 432.743, 547.335 L 430.303, 546.126 L 431.556, 527.264 L 436.364, 521.587 z "/>
<path style="fill:rgb(246, 78, 10);fill-opacity:1.0;fill-rule:evenodd;stroke:rgb(0, 0, 0);stroke-width:3.0;" d="M 546.799, 486.8 L 514.924, 509.269 L 515.607, 506.57 L 542.14, 480.024 z "/>
<path style="fill:rgb(246, 78, 10);fill-opacity:1.0;fill-rule:evenodd;stroke:rgb(0, 0, 0);stroke-width:3.0;" d="M 387.246, 389.385 L 367.54, 445.66 L 363.593, 446.886 L 364.999, 421.057 L 380.242, 380.721 z "/>
<path style="fill:rgb(152, 35, 240);fill-opacity:1.0;fill-rule:evenodd;stroke:rgb(0, 0, 0);stroke-width:3.0;" d="M 453.23, 471.012 L 388.521, 488.477 L 378.315, 479.481 L 392.89, 396.367 z "/>
<path style="fill:rgb(152, 35, 240);fill-opacity:1.0;fill-rule:evenodd;stroke:rgb(0, 0, 0);stroke-width:3.0;" d="M 157.812, 475.297 L 156.346, 478.084 L 136.742, 495.792 L 136.603, 495.805 L 136.098, 465.113 L 148.999, 456.077 z "/>
<path style="fill:rgb(152, 35, 240);fill-opacity:1.0;fill-rule:evenodd;stroke:rgb(0, 0, 0);stroke-width:3.0;" d="M 80.8444, 468.847 L 94.1737, 518.28 L 82.1862, 514.423 L 67.0928, 460.594 z "/>
<path style="fill:rgb(255, 19, 207);fill-opacity:1.0;fill-rule:evenodd;stroke:rgb(0, 0, 0);stroke-width:3.0;" d="M 723.419, 549.774 L 639.484, 562.941 L 563.374, 458.779 L 724.102, 297.97 z "/>
<path style="fill:rgb(234, 71, 6);fill-opacity:1.0;fill-rule:evenodd;stroke:rgb(0, 0, 0);stroke-width:3.0;" d="M 401.677, 317.513 L 397.083, 328.956 L 389.952, 321.279 L 392.492, 314.479 L 400.47, 312.042 z "/>
<path style="fill:rgb(234, 71, 6);fill-opacity:1.0;fill-rule:evenodd;stroke:rgb(0, 0, 0);stroke-width:3.0;" d="M 408.346, 506.81 L 360.836, 538.709 L 360.772, 538.748 L 369.085, 513.443 L 400.681, 504.102 z "/>
<path style="fill:rgb(234, 71, 6);fill-opacity:1.0;fill-rule:evenodd;stroke:rgb(0, 0, 0);stroke-width:3.0;" d="M 68.3155, 512.842 L 67.864, 512.759 L 43.0641, 421.197 L 65.2801, 414.412 z "/>
<path style="fill:rgb(252, 252, 37);fill-opacity:1.0;fill-rule:evenodd;stroke:rgb(0, 0, 0);stroke-width:3.0;" d="M 524.687, 497.486 L 492.097, 530.092 L 513.915, 486.488 z "/>
<path style="fill:rgb(252, 252, 37);fill-opacity:1.0;fill-rule:evenodd;stroke:rgb(0, 0, 0);stroke-width:3.0;" d="M 246.501, 375.871 L 228.312, 382.546 L 232.666, 373.279 L 257.751, 358.391 z "/>
<path style="fill:rgb(252, 252, 37);fill-opacity:1.0;fill-rule:evenodd;stroke:rgb(0, 0, 0);stroke-width:3.0;" d="M 194.254, 296.287 L 103.029, 326.659 L 93.8108, 327.309 L 95.1497, 321.411 L 193.828, 285.705 z "/>
<path style="fill:rgb(255, 163, 9);fill-opacity:1.0;fill-rule:evenodd;stroke:rgb(0, 0, 0);stroke-width:3.0;" d="M 793.582, 417.872 L 783.932, 431.117 L 787.946, 406.226 L 793.86, 406.15 z "/>
<path style="fill:rgb(102, 255, 234);fill-opacity:1.0;fill-rule:evenodd;stroke:rgb(0, 0, 0);stroke-width:3.0;" d="M 656.847, 311.722 L 601.362, 351.209 L 562.634, 282.554 L 595.313, 277.998 z "/>
<path style="fill:rgb(150, 255, 255);fill-opacity:1.0;fill-rule:evenodd;stroke:rgb(0, 0, 0);stroke-width:3.0;" d="M 696.037, 316.468 L 695.757, 323.308 L 679.118, 325.792 L 684.731, 315.553 L 692.726, 312.756 z "/>
<path style="fill:rgb(54, 255, 249);fill-opacity:1.0;fill-rule:evenodd;stroke:rgb(0, 0, 0);stroke-width:3.0;" d="M 476.524, 384.558 L 475.378, 395.411 L 470.979, 409.467 L 467.738, 407.218 L 459.055, 378.948 L 464.261, 378.805 z "/>
<path style="fill:rgb(255, 255, 117);fill-opacity:1.0;fill-rule:evenodd;stroke:rgb(0, 0, 0);stroke-width:3.0;" d="M 670.761, 351.339 L 584.222, 437.921 L 588.861, 360.106 L 641.92, 322.345 z "/>
<path style="fill:rgb(255, 255, 117);fill-opacity:1.0;fill-rule:evenodd;stroke:rgb(0, 0, 0);stroke-width:3.0;" d="M 724.262, 239.247 L 705.965, 239.201 L 704.085, 235.102 L 724.3, 225.218 z "/>
<path style="fill:rgb(255, 255, 117);fill-opacity:1.0;fill-rule:evenodd;stroke:rgb(0, 0, 0);stroke-width:3.0;" d="M 439.807, 591.22 L 422.337, 588.457 L 425.062, 561.975 L 431.862, 553.409 L 440.761, 550.092 z "/>
<path style="fill:rgb(255, 220, 13);fill-opacity:1.0;fill-rule:evenodd;stroke:rgb(0, 0, 0);stroke-width:3.0;" d="M 422.337, 588.457 L 416.808, 587.583 L 419.148, 569.426 L 425.062, 561.975 z "/>
<path style="fill:rgb(252, 255, 51);fill-opacity:1.0;fill-rule:evenodd;stroke:rgb(0, 0, 0);stroke-width:3.0;" d="M 232.666, 373.279 L 238.144, 361.618 L 267.334, 352.703 z "/>
<path style="fill:rgb(252, 255, 51);fill-opacity:1.0;fill-rule:evenodd;stroke:rgb(0, 0, 0);stroke-width:3.0;" d="M 711.692, 239.215 L 722.476, 253.916 L 722.477, 253.938 L 714.486, 253.742 L 706.506, 243.685 L 710.718, 239.213 z "/>
<path style="fill:rgb(252, 255, 51);fill-opacity:1.0;fill-rule:evenodd;stroke:rgb(0, 0, 0);stroke-width:3.0;" d="M 349.057, 555.455 L 347.004, 569.35 L 301.069, 588.976 L 280.894, 543.935 L 353.07, 512.122 z "/>
<path style="fill:rgb(255, 184, 67);fill-opacity:1.0;fill-rule:evenodd;stroke:rgb(0, 0, 0);stroke-width:3.0;" d="M 129.652, 570.176 L 138.037, 582.792 L 138.093, 586.184 L 134.385, 586.201 L 113.715, 571.724 L 114.505, 565.051 z "/>
<path style="fill:rgb(255, 184, 67);fill-opacity:1.0;fill-rule:evenodd;stroke:rgb(0, 0, 0);stroke-width:3.0;" d="M 215.656, 422.602 L 188.976, 450.454 L 184.707, 424.27 L 192.694, 419.58 z "/>
<path style="fill:rgb(255, 184, 67);fill-opacity:1.0;fill-rule:evenodd;stroke:rgb(0, 0, 0);stroke-width:3.0;" d="M 246.182, 430.339 L 237.13, 446.229 L 215.772, 398.548 z "/>
<path style="fill:rgb(255, 182, 12);fill-opacity:1.0;fill-rule:evenodd;stroke:rgb(0, 0, 0);stroke-width:3.0;" d="M 200.894, 403.914 L 168.881, 406.157 L 183.793, 383.946 z "/>
<path style="fill:rgb(255, 182, 12);fill-opacity:1.0;fill-rule:evenodd;stroke:rgb(0, 0, 0);stroke-width:3.0;" d="M 255.515, 413.957 L 246.182, 430.339 L 215.772, 398.548 L 213.064, 392.502 z "/>
<path style="fill:rgb(17, 32, 255);fill-opacity:1.0;fill-rule:evenodd;stroke:rgb(0, 0, 0);stroke-width:3.0;" d="M 679.118, 325.792 L 662.158, 328.323 L 660.527, 328 L 659.706, 324.307 L 684.731, 315.553 z "/>
<path style="fill:rgb(31, 7, 255);fill-opacity:1.0;fill-rule:evenodd;stroke:rgb(0, 0, 0);stroke-width:3.0;" d="M 559.743, 477.676 L 546.799, 486.8 L 542.14, 480.024 L 548.955, 473.205 z "/>
<path style="fill:rgb(31, 7, 255);fill-opacity:1.0;fill-rule:evenodd;stroke:rgb(0, 0, 0);stroke-width:3.0;" d="M 209.798, 265.608 L 204.273, 287.584 L 194.049, 291.198 L 193.144, 268.712 L 200.732, 264.462 z "/>
<path style="fill:rgb(31, 7, 255);fill-opacity:1.0;fill-rule:evenodd;stroke:rgb(0, 0, 0);stroke-width:3.0;" d="M 197.868, 228.242 L 163.036, 257.071 L 192.098, 206.117 z "/>
<path style="fill:rgb(31, 7, 255);fill-opacity:1.0;fill-rule:evenodd;stroke:rgb(0, 0, 0);stroke-width:3.0;" d="M 485.894, 295.786 L 480.983, 342.306 L 479.596, 344.604 L 457.979, 294.478 L 460.694, 293.649 z "/>
<path style="fill:rgb(31, 7, 255);fill-opacity:1.0;fill-rule:evenodd;stroke:rgb(0, 0, 0);stroke-width:3.0;" d="M 223.077, 414.856 L 215.656, 422.602 L 183.751, 418.403 L 181.61, 405.265 L 217.65, 402.74 z "/>
<path style="fill:rgb(31, 7, 255);fill-opacity:1.0;fill-rule:evenodd;stroke:rgb(0, 0, 0);stroke-width:3.0;" d="M 73.5744, 441.885 L 73.2358, 448.826 L 66.5289, 454.906 L 65.2801, 414.412 L 66.0993, 414.162 z "/>
<path style="fill:rgb(31, 7, 255);fill-opacity:1.0;fill-rule:evenodd;stroke:rgb(0, 0, 0);stroke-width:3.0;" d="M 115.565, 556.092 L 114.302, 566.761 L 106.875, 565.383 L 104.514, 556.63 L 110.866, 552.622 z "/>
<path style="fill:rgb(255, 7, 26);fill-opacity:1.0;fill-rule:evenodd;stroke:rgb(0, 0, 0);stroke-width:3.0;" d="M 428.471, 349.305 L 416.696, 350.073 L 406.42, 339.009 L 400.47, 312.042 L 429.26, 303.25 z "/>
<path style="fill:rgb(207, 1, 223);fill-opacity:1.0;fill-rule:evenodd;stroke:rgb(0, 0, 0);stroke-width:3.0;" d="M 466.394, 426.466 L 443.73, 438.953 L 432.078, 422.745 L 453.28, 420.486 z "/>
<path style="fill:rgb(207, 1, 223);fill-opacity:1.0;fill-rule:evenodd;stroke:rgb(0, 0, 0);stroke-width:3.0;" d="M 724.134, 286.268 L 724.102, 297.97 L 721.925, 300.149 L 720.601, 300.574 L 713.092, 290.302 L 716.573, 282.934 z "/>
<path style="fill:rgb(207, 1, 223);fill-opacity:1.0;fill-rule:evenodd;stroke:rgb(0, 0, 0);stroke-width:3.0;" d="M 228.452, 287.707 L 194.523, 302.98 L 194.438, 300.862 L 229.761, 280.58 z "/>
<path style="fill:rgb(255, 231, 36);fill-opacity:1.0;fill-rule:evenodd;stroke:rgb(0, 0, 0);stroke-width:3.0;" d="M 217.65, 402.74 L 200.894, 403.914 L 183.793, 383.946 L 188.631, 376.74 L 203.913, 372.072 z "/>
<path style="fill:rgb(255, 231, 36);fill-opacity:1.0;fill-rule:evenodd;stroke:rgb(0, 0, 0);stroke-width:3.0;" d="M 380.242, 380.721 L 360.368, 433.313 L 364.491, 388.79 L 372.575, 371.236 z "/>
<path style="fill:rgb(255, 4, 62);fill-opacity:1.0;fill-rule:evenodd;stroke:rgb(0, 0, 0);stroke-width:3.0;" d="M 786.632, 32.3792 L 786.609, 33.3382 L 771.242, 23.3947 L 768.259, 20.7133 L 766.093, 7.6519 z "/>
<path style="fill:rgb(255, 4, 62);fill-opacity:1.0;fill-rule:evenodd;stroke:rgb(0, 0, 0);stroke-width:3.0;" d="M 66.6064, 508.116 L 9.32696, 484.406 L 18.5826, 461.059 L 42.7689, 421.287 L 43.0641, 421.197 z "/>
<path style="fill:rgb(255, 4, 62);fill-opacity:1.0;fill-rule:evenodd;stroke:rgb(0, 0, 0);stroke-width:3.0;" d="M 98.1093, 308.374 L 84.4283, 368.639 L 24.2722, 361.42 L 44.4236, 291.521 z "/>
<path style="fill:rgb(255, 4, 62);fill-opacity:1.0;fill-rule:evenodd;stroke:rgb(0, 0, 0);stroke-width:3.0;" d="M 193.314, 272.919 L 157.823, 298.733 L 138.767, 305.628 L 119.701, 265.748 L 192.904, 262.735 z "/>
<path style="fill:rgb(128, 255, 255);fill-opacity:1.0;fill-rule:evenodd;stroke:rgb(0, 0, 0);stroke-width:3.0;" d="M 626.541, 545.227 L 567.086, 549.923 L 584.867, 488.193 z "/>
<path style="fill:rgb(255, 79, 6);fill-opacity:1.0;fill-rule:evenodd;stroke:rgb(0, 0, 0);stroke-width:3.0;" d="M 781.176, 213.213 L 762.709, 219.142 L 774.775, 197.726 L 780.917, 195.85 z "/>
<path style="fill:rgb(255, 25, 197);fill-opacity:1.0;fill-rule:evenodd;stroke:rgb(0, 0, 0);stroke-width:3.0;" d="M 584.222, 437.921 L 524.687, 497.486 L 471.76, 443.445 L 588.861, 360.106 z "/>
<path style="fill:rgb(255, 25, 197);fill-opacity:1.0;fill-rule:evenodd;stroke:rgb(0, 0, 0);stroke-width:3.0;" d="M 724.3, 225.218 L 704.085, 235.102 L 701.348, 229.133 L 724.307, 222.403 z "/>
<path style="fill:rgb(255, 25, 197);fill-opacity:1.0;fill-rule:evenodd;stroke:rgb(0, 0, 0);stroke-width:3.0;" d="M 286.949, 541.266 L 280.894, 543.935 L 253.344, 482.427 L 342.022, 432.932 z "/>
<path style="fill:rgb(246, 2, 6);fill-opacity:1.0;fill-rule:evenodd;stroke:rgb(0, 0, 0);stroke-width:3.0;" d="M 227.397, 384.496 L 221.719, 385.307 L 220.266, 367.078 L 238.144, 361.618 z "/>
<path style="fill:rgb(246, 2, 6);fill-opacity:1.0;fill-rule:evenodd;stroke:rgb(0, 0, 0);stroke-width:3.0;" d="M 353.07, 512.122 L 337.81, 518.848 L 316.573, 482.992 L 342.022, 432.932 L 361.405, 422.113 z "/>
<path style="fill:rgb(255, 16, 71);fill-opacity:1.0;fill-rule:evenodd;stroke:rgb(0, 0, 0);stroke-width:3.0;" d="M 429.083, 399.448 L 402.013, 402.103 L 399.76, 382.929 z "/>
<path style="fill:rgb(194, 246, 62);fill-opacity:1.0;fill-rule:evenodd;stroke:rgb(0, 0, 0);stroke-width:3.0;" d="M 168.881, 406.157 L 135.165, 408.519 L 134.912, 393.146 L 188.631, 376.74 z "/>
<path style="fill:rgb(212, 255, 34);fill-opacity:1.0;fill-rule:evenodd;stroke:rgb(0, 0, 0);stroke-width:3.0;" d="M 491.584, 345.242 L 485.434, 433.713 L 470.19, 444.562 L 482.251, 330.297 z "/>
<path style="fill:rgb(78, 47, 194);fill-opacity:1.0;fill-rule:evenodd;stroke:rgb(0, 0, 0);stroke-width:3.0;" d="M 471.838, 428.948 L 470.874, 438.08 L 448.253, 445.244 L 443.73, 438.953 L 466.394, 426.466 z "/>
<path style="fill:rgb(255, 25, 16);fill-opacity:1.0;fill-rule:evenodd;stroke:rgb(0, 0, 0);stroke-width:3.0;" d="M 113.478, 448.204 L 106.878, 455.264 L 95.9166, 455.523 L 97.3702, 445.857 z "/>
<path style="fill:rgb(212, 249, 64);fill-opacity:1.0;fill-rule:evenodd;stroke:rgb(0, 0, 0);stroke-width:3.0;" d="M 97.3702, 445.857 L 95.9166, 455.523 L 90.3406, 455.655 L 80.9461, 443.463 z "/>
<path style="fill:rgb(255, 199, 22);fill-opacity:1.0;fill-rule:evenodd;stroke:rgb(0, 0, 0);stroke-width:3.0;" d="M 400.681, 504.102 L 369.085, 513.443 L 375.12, 495.072 z "/>
<path style="fill:rgb(226, 249, 255);fill-opacity:1.0;fill-rule:evenodd;stroke:rgb(0, 0, 0);stroke-width:3.0;" d="M 337.81, 518.848 L 286.949, 541.266 L 296.515, 522.448 L 330.388, 506.317 z "/>
<path style="fill:rgb(197, 12, 255);fill-opacity:1.0;fill-rule:evenodd;stroke:rgb(0, 0, 0);stroke-width:3.0;" d="M 244.062, 269.938 L 243.736, 273.634 L 204.273, 287.584 L 209.798, 265.608 z "/>
<path style="fill:rgb(197, 12, 255);fill-opacity:1.0;fill-rule:evenodd;stroke:rgb(0, 0, 0);stroke-width:3.0;" d="M 705.961, 274.925 L 702.731, 279.067 L 656.847, 311.722 L 595.313, 277.998 L 703.095, 262.972 z "/>
<path style="fill:rgb(197, 12, 255);fill-opacity:1.0;fill-rule:evenodd;stroke:rgb(0, 0, 0);stroke-width:3.0;" d="M 632.374, 10.5433 L 627.087, 15.2375 L 611.273, 19.6288 L 612.678, 14.935 L 616.254, 8.3199 L 632.597, 8.30607 z "/>
<path style="fill:rgb(66, 36, 226);fill-opacity:1.0;fill-rule:evenodd;stroke:rgb(0, 0, 0);stroke-width:3.0;" d="M 477.168, 378.452 L 458.858, 378.953 L 480.983, 342.306 z "/>
<path style="fill:rgb(255, 249, 7);fill-opacity:1.0;fill-rule:evenodd;stroke:rgb(0, 0, 0);stroke-width:3.0;" d="M 741.781, 225.861 L 736.248, 227.638 L 724.321, 217.457 L 724.333, 213.132 L 743.792, 207.189 z "/>
<path style="fill:rgb(114, 255, 255);fill-opacity:1.0;fill-rule:evenodd;stroke:rgb(0, 0, 0);stroke-width:3.0;" d="M 60.5664, 521.666 L 62.947, 523.923 L 58.9195, 526.129 L 53.871, 525.969 L 30.6575, 511.687 z "/>
<path style="fill:rgb(27, 194, 249);fill-opacity:1.0;fill-rule:evenodd;stroke:rgb(0, 0, 0);stroke-width:3.0;" d="M 545.016, 551.666 L 522.617, 553.435 L 528.261, 535.932 z "/>
<path style="fill:rgb(27, 194, 249);fill-opacity:1.0;fill-rule:evenodd;stroke:rgb(0, 0, 0);stroke-width:3.0;" d="M 260.231, 497.803 L 274.956, 530.679 L 233.34, 534.55 L 226.975, 512.376 L 247.25, 495.217 z "/>
<path style="fill:rgb(7, 55, 237);fill-opacity:1.0;fill-rule:evenodd;stroke:rgb(0, 0, 0);stroke-width:3.0;" d="M 528.261, 535.932 L 522.617, 553.435 L 464.151, 558.052 L 506.596, 515.586 z "/>
<path style="fill:rgb(246, 23, 252);fill-opacity:1.0;fill-rule:evenodd;stroke:rgb(0, 0, 0);stroke-width:3.0;" d="M 513.915, 486.488 L 492.097, 530.092 L 483.989, 538.204 L 464.216, 501.163 L 470.19, 444.562 L 471.76, 443.445 z "/>
<path style="fill:rgb(246, 23, 252);fill-opacity:1.0;fill-rule:evenodd;stroke:rgb(0, 0, 0);stroke-width:3.0;" d="M 137.522, 551.539 L 138.037, 582.792 L 98.4436, 523.218 L 99.638, 513.691 z "/>
<path style="fill:rgb(24, 184, 212);fill-opacity:1.0;fill-rule:evenodd;stroke:rgb(0, 0, 0);stroke-width:3.0;" d="M 483.989, 538.204 L 479.844, 542.352 L 461.008, 531.549 L 464.216, 501.163 z "/>
<path style="fill:rgb(243, 85, 54);fill-opacity:1.0;fill-rule:evenodd;stroke:rgb(0, 0, 0);stroke-width:3.0;" d="M 206.714, 262.167 L 159.009, 264.13 L 163.036, 257.071 L 197.868, 228.242 z "/>
<path style="fill:rgb(217, 234, 30);fill-opacity:1.0;fill-rule:evenodd;stroke:rgb(0, 0, 0);stroke-width:3.0;" d="M 527.941, 403.462 L 511.486, 415.172 L 487.276, 407.217 L 491.584, 345.242 z "/>
<path style="fill:rgb(217, 234, 30);fill-opacity:1.0;fill-rule:evenodd;stroke:rgb(0, 0, 0);stroke-width:3.0;" d="M 360.772, 538.748 L 349.984, 545.453 L 351.625, 527.724 L 366.504, 521.299 z "/>
<path style="fill:rgb(27, 30, 243);fill-opacity:1.0;fill-rule:evenodd;stroke:rgb(0, 0, 0);stroke-width:3.0;" d="M 375.12, 495.072 L 366.504, 521.299 L 351.625, 527.724 L 355.298, 488.069 z "/>
<path style="fill:rgb(26, 26, 240);fill-opacity:1.0;fill-rule:evenodd;stroke:rgb(0, 0, 0);stroke-width:3.0;" d="M 736.054, 568.922 L 728.094, 582.853 L 727.059, 583.379 L 723.363, 570.423 L 723.453, 537.337 z "/>
<path style="fill:rgb(255, 246, 55);fill-opacity:1.0;fill-rule:evenodd;stroke:rgb(0, 0, 0);stroke-width:3.0;" d="M 579.46, 480.793 L 511.522, 520.212 L 506.596, 515.586 L 508.105, 514.076 L 571.253, 469.562 z "/>
<path style="fill:rgb(255, 255, 17);fill-opacity:1.0;fill-rule:evenodd;stroke:rgb(0, 0, 0);stroke-width:3.0;" d="M 688.539, 333.552 L 678.875, 343.221 L 665.651, 336.901 L 687.038, 333.254 z "/>
<path style="fill:rgb(255, 255, 17);fill-opacity:1.0;fill-rule:evenodd;stroke:rgb(0, 0, 0);stroke-width:3.0;" d="M 413.261, 487.872 L 401.45, 504.374 L 370.341, 493.383 L 410.139, 482.642 z "/>
<path style="fill:rgb(255, 255, 17);fill-opacity:1.0;fill-rule:evenodd;stroke:rgb(0, 0, 0);stroke-width:3.0;" d="M 213.808, 466.501 L 214.141, 479.294 L 164.398, 476.111 L 204.539, 434.207 z "/>
<path style="fill:rgb(255, 44, 231);fill-opacity:1.0;fill-rule:evenodd;stroke:rgb(0, 0, 0);stroke-width:3.0;" d="M 255.702, 413.63 L 255.515, 413.957 L 213.064, 392.502 L 211.749, 389.567 L 216.929, 384.733 z "/>
<path style="fill:rgb(255, 44, 231);fill-opacity:1.0;fill-rule:evenodd;stroke:rgb(0, 0, 0);stroke-width:3.0;" d="M 102.578, 554.312 L 96.2897, 564.225 L 96.1235, 564.129 L 91.3114, 546.967 L 99.2853, 537.497 z "/>
<path style="fill:rgb(255, 202, 24);fill-opacity:1.0;fill-rule:evenodd;stroke:rgb(0, 0, 0);stroke-width:3.0;" d="M 511.486, 415.172 L 485.434, 433.713 L 487.276, 407.217 z "/>
<path style="fill:rgb(234, 189, 15);fill-opacity:1.0;fill-rule:evenodd;stroke:rgb(0, 0, 0);stroke-width:3.0;" d="M 750.997, 204.988 L 708.177, 218.066 L 673.36, 152.193 z "/>
<path style="fill:rgb(243, 255, 25);fill-opacity:1.0;fill-rule:evenodd;stroke:rgb(0, 0, 0);stroke-width:3.0;" d="M 783.611, 157.171 L 782.688, 195.31 L 750.997, 204.988 L 673.36, 152.193 L 669.162, 144.249 z "/>
<path style="fill:rgb(22, 20, 255);fill-opacity:1.0;fill-rule:evenodd;stroke:rgb(0, 0, 0);stroke-width:3.0;" d="M 89.7616, 516.861 L 95.6873, 523.894 L 97.3173, 529.939 L 87.9956, 535.142 L 82.1862, 514.423 z "/>
<path style="fill:rgb(255, 34, 82);fill-opacity:1.0;fill-rule:evenodd;stroke:rgb(0, 0, 0);stroke-width:3.0;" d="M 459.556, 461.794 L 459.7, 462.675 L 458.216, 465.177 L 441.621, 454.942 L 455.2, 448.399 z "/>
<path style="fill:rgb(243, 192, 243);fill-opacity:1.0;fill-rule:evenodd;stroke:rgb(0, 0, 0);stroke-width:3.0;" d="M 233.059, 396.754 L 224.6, 390.449 L 228.312, 382.546 L 246.501, 375.871 z "/>
<path style="fill:rgb(255, 252, 148);fill-opacity:1.0;fill-rule:evenodd;stroke:rgb(0, 0, 0);stroke-width:3.0;" d="M 479.596, 344.604 L 458.858, 378.953 L 443.899, 379.362 L 428.245, 362.508 L 429.26, 303.25 L 457.979, 294.478 z "/>
<path style="fill:rgb(255, 140, 6);fill-opacity:1.0;fill-rule:evenodd;stroke:rgb(0, 0, 0);stroke-width:3.0;" d="M 678.875, 343.221 L 670.761, 351.339 L 665.575, 346.126 L 666.336, 337.229 z "/>
<path style="fill:rgb(255, 187, 194);fill-opacity:1.0;fill-rule:evenodd;stroke:rgb(0, 0, 0);stroke-width:3.0;" d="M 82.034, 556.044 L 86.6942, 558.718 L 75.5819, 562.659 L 52.8147, 565.204 L 55.5511, 554.797 L 57.3447, 554.107 z "/>
<path style="fill:rgb(243, 19, 249);fill-opacity:1.0;fill-rule:evenodd;stroke:rgb(0, 0, 0);stroke-width:3.0;" d="M 197.384, 374.067 L 123.91, 396.506 L 160.418, 356.494 L 196.074, 341.519 z "/>
<path style="fill:rgb(243, 19, 249);fill-opacity:1.0;fill-rule:evenodd;stroke:rgb(0, 0, 0);stroke-width:3.0;" d="M 421.055, 404.836 L 415.39, 424.201 L 402.777, 408.597 L 402.013, 402.103 L 405.048, 401.805 z "/>
<path style="fill:rgb(249, 249, 41);fill-opacity:1.0;fill-rule:evenodd;stroke:rgb(0, 0, 0);stroke-width:3.0;" d="M 135.593, 434.49 L 135.671, 439.189 L 98.1156, 477.148 L 93.9825, 473.399 L 95.6606, 467.262 L 130.619, 429.87 z "/>
<path style="fill:rgb(255, 22, 92);fill-opacity:1.0;fill-rule:evenodd;stroke:rgb(0, 0, 0);stroke-width:3.0;" d="M 632.866, 246.438 L 627.04, 251.605 L 600.485, 250.956 L 627.61, 242.671 z "/>
<path style="fill:rgb(255, 22, 92);fill-opacity:1.0;fill-rule:evenodd;stroke:rgb(0, 0, 0);stroke-width:3.0;" d="M 181.902, 407.058 L 185.915, 431.68 L 147.564, 407.65 L 177.802, 405.532 z "/>
<path style="fill:rgb(255, 22, 92);fill-opacity:1.0;fill-rule:evenodd;stroke:rgb(0, 0, 0);stroke-width:3.0;" d="M 135.059, 402.093 L 135.145, 407.277 L 115.054, 404.551 L 118.447, 399.753 L 126.829, 397.605 z "/>
<path style="fill:rgb(255, 65, 119);fill-opacity:1.0;fill-rule:evenodd;stroke:rgb(0, 0, 0);stroke-width:3.0;" d="M 113.478, 448.204 L 92.7597, 445.185 L 94.4501, 435.802 L 122.04, 426.794 L 133.713, 426.559 z "/>
<path style="fill:rgb(255, 79, 18);fill-opacity:1.0;fill-rule:evenodd;stroke:rgb(0, 0, 0);stroke-width:3.0;" d="M 94.4501, 435.802 L 95.9784, 427.319 L 122.04, 426.794 z "/>
<path style="fill:rgb(255, 89, 6);fill-opacity:1.0;fill-rule:evenodd;stroke:rgb(0, 0, 0);stroke-width:3.0;" d="M 759.535, 561.302 L 737.476, 572.487 L 723.453, 537.337 L 723.617, 476.665 z "/>
<path style="fill:rgb(114, 246, 220);fill-opacity:1.0;fill-rule:evenodd;stroke:rgb(0, 0, 0);stroke-width:3.0;" d="M 185.915, 431.68 L 188.976, 450.454 L 160.197, 480.497 L 135.462, 426.557 L 135.165, 408.519 L 147.564, 407.65 z "/>
<path style="fill:rgb(95, 237, 249);fill-opacity:1.0;fill-rule:evenodd;stroke:rgb(0, 0, 0);stroke-width:3.0;" d="M 213.018, 290.193 L 194.438, 300.862 L 194.049, 291.198 L 219.753, 282.112 z "/>
<path style="fill:rgb(31, 83, 255);fill-opacity:1.0;fill-rule:evenodd;stroke:rgb(0, 0, 0);stroke-width:3.0;" d="M 133.531, 407.058 L 129.017, 426.654 L 69.789, 427.846 L 66.0993, 414.162 L 86.3334, 407.982 L 105.033, 403.191 z "/>
<path style="fill:rgb(7, 255, 220);fill-opacity:1.0;fill-rule:evenodd;stroke:rgb(0, 0, 0);stroke-width:3.0;" d="M 291.592, 350.633 L 257.559, 358.69 L 257.751, 358.391 L 267.334, 352.703 L 295.274, 344.17 z "/>
<path style="fill:rgb(26, 197, 255);fill-opacity:1.0;fill-rule:evenodd;stroke:rgb(0, 0, 0);stroke-width:3.0;" d="M 134.385, 586.201 L 120.247, 586.265 L 113.333, 574.952 L 113.715, 571.724 z "/>
<path style="fill:rgb(215, 134, 7);fill-opacity:1.0;fill-rule:evenodd;stroke:rgb(0, 0, 0);stroke-width:3.0;" d="M 94.208, 557.298 L 94.5365, 558.469 L 76.049, 552.609 L 71.5835, 550.046 L 73.1594, 540.053 z "/>
<path style="fill:rgb(252, 24, 194);fill-opacity:1.0;fill-rule:evenodd;stroke:rgb(0, 0, 0);stroke-width:3.0;" d="M 94.208, 557.298 L 73.1594, 540.053 L 73.5826, 537.369 L 86.9697, 531.483 z "/>
<path style="fill:rgb(75, 175, 228);fill-opacity:1.0;fill-rule:evenodd;stroke:rgb(0, 0, 0);stroke-width:3.0;" d="M 753.377, 222.138 L 741.781, 225.861 L 743.482, 210.063 L 754.041, 209.429 z "/>
<path style="fill:rgb(255, 148, 39);fill-opacity:1.0;fill-rule:evenodd;stroke:rgb(0, 0, 0);stroke-width:3.0;" d="M 193.828, 285.705 L 172.779, 293.321 L 171.479, 288.801 L 193.314, 272.919 z "/>
<path style="fill:rgb(246, 2, 42);fill-opacity:1.0;fill-rule:evenodd;stroke:rgb(0, 0, 0);stroke-width:3.0;" d="M 785.695, 71.0748 L 783.611, 157.171 L 692.473, 146.881 L 769.558, 49.985 z "/>
<path style="fill:rgb(100, 70, 194);fill-opacity:1.0;fill-rule:evenodd;stroke:rgb(0, 0, 0);stroke-width:3.0;" d="M 146.167, 449.901 L 148.999, 456.077 L 136.098, 465.113 L 135.748, 443.896 z "/>
</svg>