<?xml version="1.0" encoding="iso-8859-1" standalone="no"?>
<!DOCTYPE svg PUBLIC "-//W3C//DTD SVG 1.0//EN" "http://www.w3.org/TR/2001/REC-SVG-20010904/DTD/svg10.dtd">
<svg xmlns="http://www.w3.org/2000/svg" width="800" height="600">
<path style="fill:rgb(0, 0, 0);fill-opacity:0.0;fill-rule:evenodd;stroke:rgb(0, 0, 0);stroke-width:0.0;" d="M 0, 600 L 800, 600 L 800, 0 L 0, 0 z "/>
<path style="fill:rgb(243, 1, 255);fill-opacity:1.0;fill-rule:evenodd;stroke:rgb(0, 0, 0);stroke-width:3.0;" d="M 208.821, 257.543 L 189.028, 261.133 L 152.09, 249.061 L 132.451, 219.739 z "/>
<path style="fill:rgb(243, 1, 255);fill-opacity:1.0;fill-rule:evenodd;stroke:rgb(0, 0, 0);stroke-width:3.0;" d="M 453.145, 557.287 L 381.616, 537.387 L 419.926, 522.429 z "/>
<path style="fill:rgb(243, 1, 255);fill-opacity:1.0;fill-rule:evenodd;stroke:rgb(0, 0, 0);stroke-width:3.0;" d="M 688.126, 487.04 L 684.462, 492.99 L 387.049, 345.768 L 103.107, 95.5701 L 147.602, 73.8122 z "/>
<path style="fill:rgb(252, 132, 32);fill-opacity:1.0;fill-rule:evenodd;stroke:rgb(0, 0, 0);stroke-width:3.0;" d="M 721.394, 379.316 L 730.533, 317.807 L 788.74, 304.807 z "/>
<path style="fill:rgb(255, 243, 20);fill-opacity:1.0;fill-rule:evenodd;stroke:rgb(0, 0, 0);stroke-width:3.0;" d="M 483.644, 240.282 L 491.004, 254.307 L 488.938, 271.116 L 482.454, 265.538 L 480.641, 237.254 z "/>
<path style="fill:rgb(255, 243, 20);fill-opacity:1.0;fill-rule:evenodd;stroke:rgb(0, 0, 0);stroke-width:3.0;" d="M 727.353, 339.211 L 708.398, 343.021 L 703.077, 333.521 L 702.455, 329.406 L 729.55, 324.423 z "/>
<path style="fill:rgb(255, 243, 20);fill-opacity:1.0;fill-rule:evenodd;stroke:rgb(0, 0, 0);stroke-width:3.0;" d="M 450.658, 477.399 L 461.695, 483.509 L 433.824, 481.827 L 419.007, 467.741 z "/>
<path style="fill:rgb(255, 243, 20);fill-opacity:1.0;fill-rule:evenodd;stroke:rgb(0, 0, 0);stroke-width:3.0;" d="M 650.563, 384.295 L 647.183, 382.764 L 606.259, 345.563 L 631.716, 339.877 z "/>
<path style="fill:rgb(228, 13, 18);fill-opacity:1.0;fill-rule:evenodd;stroke:rgb(0, 0, 0);stroke-width:3.0;" d="M 453.818, 483.033 L 419.669, 522.16 L 411.207, 513.28 L 414.04, 480.633 z "/>
<path style="fill:rgb(228, 13, 18);fill-opacity:1.0;fill-rule:evenodd;stroke:rgb(0, 0, 0);stroke-width:3.0;" d="M 723.564, 319.364 L 723.024, 319.484 L 697.651, 306.381 L 723.257, 288.008 z "/>
<path style="fill:rgb(228, 13, 18);fill-opacity:1.0;fill-rule:evenodd;stroke:rgb(0, 0, 0);stroke-width:3.0;" d="M 526.363, 165.208 L 474.715, 113.536 L 525.471, 100.194 z "/>
<path style="fill:rgb(228, 13, 18);fill-opacity:1.0;fill-rule:evenodd;stroke:rgb(0, 0, 0);stroke-width:3.0;" d="M 513.442, 196.459 L 495.978, 211.15 L 477.273, 184.698 L 473.737, 129.527 z "/>
<path style="fill:rgb(161, 209, 187);fill-opacity:1.0;fill-rule:evenodd;stroke:rgb(0, 0, 0);stroke-width:3.0;" d="M 593.562, 282.195 L 584.294, 315.893 L 567.227, 287.124 L 578.304, 282.163 z "/>
<path style="fill:rgb(161, 209, 187);fill-opacity:1.0;fill-rule:evenodd;stroke:rgb(0, 0, 0);stroke-width:3.0;" d="M 606.345, 199.782 L 605.052, 195.556 L 605.567, 161.958 L 614.527, 146.505 z "/>
<path style="fill:rgb(161, 209, 187);fill-opacity:1.0;fill-rule:evenodd;stroke:rgb(0, 0, 0);stroke-width:3.0;" d="M 685.855, 400.277 L 650.563, 384.295 L 633.6, 344.317 L 639.212, 338.203 L 642.143, 337.549 z "/>
<path style="fill:rgb(255, 21, 57);fill-opacity:1.0;fill-rule:evenodd;stroke:rgb(0, 0, 0);stroke-width:3.0;" d="M 129.455, 173.752 L 136.912, 221.948 L 94.4456, 200.926 L 86.5884, 171.835 L 99.3733, 167.259 z "/>
<path style="fill:rgb(255, 21, 57);fill-opacity:1.0;fill-rule:evenodd;stroke:rgb(0, 0, 0);stroke-width:3.0;" d="M 715.186, 413.559 L 685.855, 400.277 L 685.574, 399.874 L 690.913, 380.216 L 706.192, 354.109 z "/>
<path style="fill:rgb(255, 74, 7);fill-opacity:1.0;fill-rule:evenodd;stroke:rgb(0, 0, 0);stroke-width:3.0;" d="M 714.728, 432.04 L 689.935, 432.624 L 688.1, 423.761 L 702.222, 422.434 z "/>
<path style="fill:rgb(255, 74, 7);fill-opacity:1.0;fill-rule:evenodd;stroke:rgb(0, 0, 0);stroke-width:3.0;" d="M 758.182, 419.222 L 761.122, 421.202 L 753.542, 430.929 L 748.283, 428.547 L 742.167, 413.135 z "/>
<path style="fill:rgb(255, 74, 7);fill-opacity:1.0;fill-rule:evenodd;stroke:rgb(0, 0, 0);stroke-width:3.0;" d="M 607.738, 230.651 L 604.294, 243.174 L 526.363, 165.208 L 526.318, 161.899 z "/>
<path style="fill:rgb(179, 243, 199);fill-opacity:1.0;fill-rule:evenodd;stroke:rgb(0, 0, 0);stroke-width:3.0;" d="M 541, 242.914 L 533.787, 264.621 L 495.978, 211.15 L 513.442, 196.459 z "/>
<path style="fill:rgb(252, 35, 8);fill-opacity:1.0;fill-rule:evenodd;stroke:rgb(0, 0, 0);stroke-width:3.0;" d="M 345.621, 309.263 L 342.692, 319.282 L 318.248, 311.711 L 317.864, 311.52 L 315.508, 302.266 L 322.537, 288.922 z "/>
<path style="fill:rgb(252, 35, 8);fill-opacity:1.0;fill-rule:evenodd;stroke:rgb(0, 0, 0);stroke-width:3.0;" d="M 427.681, 51.891 L 435.486, 65.0471 L 424.547, 87.4102 L 419.036, 79.8741 L 410.799, 44.4469 z "/>
<path style="fill:rgb(249, 243, 24);fill-opacity:1.0;fill-rule:evenodd;stroke:rgb(0, 0, 0);stroke-width:3.0;" d="M 450.031, 89.5666 L 450.976, 107.679 L 432.373, 98.1129 L 424.547, 87.4102 L 435.486, 65.0471 z "/>
<path style="fill:rgb(249, 243, 24);fill-opacity:1.0;fill-rule:evenodd;stroke:rgb(0, 0, 0);stroke-width:3.0;" d="M 676.764, 432.675 L 650.515, 446.985 L 419.42, 211.319 z "/>
<path style="fill:rgb(249, 243, 24);fill-opacity:1.0;fill-rule:evenodd;stroke:rgb(0, 0, 0);stroke-width:3.0;" d="M 593.101, 348.502 L 581.832, 351.019 L 511.434, 290.465 L 537.314, 269.609 z "/>
<path style="fill:rgb(98, 94, 255);fill-opacity:1.0;fill-rule:evenodd;stroke:rgb(0, 0, 0);stroke-width:3.0;" d="M 76.498, 72.1239 L 62.7245, 59.9873 L 112.102, 55.1058 z "/>
<path style="fill:rgb(98, 94, 255);fill-opacity:1.0;fill-rule:evenodd;stroke:rgb(0, 0, 0);stroke-width:3.0;" d="M 556.978, 540.505 L 510.338, 557.906 L 527.396, 542.034 L 559.81, 530.532 z "/>
<path style="fill:rgb(98, 94, 255);fill-opacity:1.0;fill-rule:evenodd;stroke:rgb(0, 0, 0);stroke-width:3.0;" d="M 743.074, 477.086 L 753.917, 484.035 L 754.179, 493.127 L 752.225, 497.583 L 725.168, 474.31 z "/>
<path style="fill:rgb(98, 94, 255);fill-opacity:1.0;fill-rule:evenodd;stroke:rgb(0, 0, 0);stroke-width:3.0;" d="M 710.825, 296.928 L 698.972, 305.433 L 668.176, 312.653 L 657.845, 296.493 L 664.641, 290.502 L 701.203, 267.792 z "/>
<path style="fill:rgb(98, 94, 255);fill-opacity:1.0;fill-rule:evenodd;stroke:rgb(0, 0, 0);stroke-width:3.0;" d="M 662.13, 146.013 L 621.972, 186.014 L 606.459, 199.04 L 616.18, 135.736 z "/>
<path style="fill:rgb(98, 94, 255);fill-opacity:1.0;fill-rule:evenodd;stroke:rgb(0, 0, 0);stroke-width:3.0;" d="M 578.065, 252.805 L 564.948, 260.939 L 547.456, 253.796 L 543.182, 246.591 L 551.506, 245.063 z "/>
<path style="fill:rgb(98, 94, 255);fill-opacity:1.0;fill-rule:evenodd;stroke:rgb(0, 0, 0);stroke-width:3.0;" d="M 511.765, 527.947 L 523.51, 543.412 L 523.26, 543.501 L 488.658, 541.439 L 487.026, 524.429 z "/>
<path style="fill:rgb(98, 94, 255);fill-opacity:1.0;fill-rule:evenodd;stroke:rgb(0, 0, 0);stroke-width:3.0;" d="M 607.408, 301.443 L 625.714, 341.218 L 602.405, 346.424 L 584.294, 315.893 L 593.374, 282.877 z "/>
<path style="fill:rgb(255, 24, 197);fill-opacity:1.0;fill-rule:evenodd;stroke:rgb(0, 0, 0);stroke-width:3.0;" d="M 721.994, 159.402 L 722.055, 165.706 L 707.851, 172.895 L 646.253, 165.626 L 668.039, 147.334 z "/>
<path style="fill:rgb(255, 24, 197);fill-opacity:1.0;fill-rule:evenodd;stroke:rgb(0, 0, 0);stroke-width:3.0;" d="M 558.663, 272.687 L 585.471, 337.711 L 533.787, 264.621 L 541, 242.914 z "/>
<path style="fill:rgb(246, 2, 240);fill-opacity:1.0;fill-rule:evenodd;stroke:rgb(0, 0, 0);stroke-width:3.0;" d="M 419.007, 467.741 L 433.824, 481.827 L 395.082, 479.488 L 401.108, 462.279 z "/>
<path style="fill:rgb(246, 2, 240);fill-opacity:1.0;fill-rule:evenodd;stroke:rgb(0, 0, 0);stroke-width:3.0;" d="M 403.42, 182.947 L 403.425, 184.07 L 394.229, 189.298 L 383.546, 174.661 z "/>
<path style="fill:rgb(255, 66, 36);fill-opacity:1.0;fill-rule:evenodd;stroke:rgb(0, 0, 0);stroke-width:3.0;" d="M 715.088, 434.507 L 701.311, 439.109 L 689.98, 432.842 L 689.935, 432.624 L 713.386, 432.072 z "/>
<path style="fill:rgb(255, 66, 36);fill-opacity:1.0;fill-rule:evenodd;stroke:rgb(0, 0, 0);stroke-width:3.0;" d="M 552.81, 528.121 L 553.015, 532.943 L 551.266, 533.564 L 487.026, 524.429 L 486.251, 516.351 L 535.967, 514.541 z "/>
<path style="fill:rgb(255, 66, 36);fill-opacity:1.0;fill-rule:evenodd;stroke:rgb(0, 0, 0);stroke-width:3.0;" d="M 482.454, 265.538 L 457.139, 243.763 L 446.774, 199.179 L 476.991, 180.297 z "/>
<path style="fill:rgb(228, 0, 70);fill-opacity:1.0;fill-rule:evenodd;stroke:rgb(0, 0, 0);stroke-width:3.0;" d="M 193.799, 233.452 L 190.44, 241.241 L 174.56, 221.194 L 180.262, 219.228 z "/>
<path style="fill:rgb(255, 19, 136);fill-opacity:1.0;fill-rule:evenodd;stroke:rgb(0, 0, 0);stroke-width:3.0;" d="M 736.297, 371.275 L 721.027, 381.788 L 721.394, 379.316 L 767.323, 328.502 z "/>
<path style="fill:rgb(9, 202, 161);fill-opacity:1.0;fill-rule:evenodd;stroke:rgb(0, 0, 0);stroke-width:3.0;" d="M 162.917, 180.975 L 125.428, 172.883 L 145.883, 165.33 z "/>
<path style="fill:rgb(9, 202, 161);fill-opacity:1.0;fill-rule:evenodd;stroke:rgb(0, 0, 0);stroke-width:3.0;" d="M 224.01, 233.21 L 219.305, 240.35 L 218.746, 240.639 L 202.618, 242.719 L 180.262, 219.228 L 185.366, 217.468 z "/>
<path style="fill:rgb(9, 202, 161);fill-opacity:1.0;fill-rule:evenodd;stroke:rgb(0, 0, 0);stroke-width:3.0;" d="M 499.438, 495.279 L 513.954, 506.764 L 497.294, 512.899 L 490.821, 494.897 z "/>
<path style="fill:rgb(9, 202, 161);fill-opacity:1.0;fill-rule:evenodd;stroke:rgb(0, 0, 0);stroke-width:3.0;" d="M 664.085, 306.254 L 654.165, 324.809 L 639.737, 322.645 L 644.612, 275.795 z "/>
<path style="fill:rgb(9, 202, 161);fill-opacity:1.0;fill-rule:evenodd;stroke:rgb(0, 0, 0);stroke-width:3.0;" d="M 606.345, 199.782 L 604.344, 212.809 L 583.917, 180.857 L 592.709, 155.219 z "/>
<path style="fill:rgb(231, 246, 10);fill-opacity:1.0;fill-rule:evenodd;stroke:rgb(0, 0, 0);stroke-width:3.0;" d="M 576.288, 178.695 L 526.278, 159.004 L 525.419, 96.3763 z "/>
<path style="fill:rgb(231, 246, 10);fill-opacity:1.0;fill-rule:evenodd;stroke:rgb(0, 0, 0);stroke-width:3.0;" d="M 686.621, 170.39 L 607.529, 217.79 L 604.344, 212.809 L 606.459, 199.04 L 646.253, 165.626 z "/>
<path style="fill:rgb(231, 246, 10);fill-opacity:1.0;fill-rule:evenodd;stroke:rgb(0, 0, 0);stroke-width:3.0;" d="M 241.028, 226.181 L 239.131, 228.094 L 226.515, 235.687 L 224.544, 232.398 L 231.383, 222.02 L 231.797, 221.619 z "/>
<path style="fill:rgb(231, 246, 10);fill-opacity:1.0;fill-rule:evenodd;stroke:rgb(0, 0, 0);stroke-width:3.0;" d="M 470.437, 150.167 L 429.431, 124.584 L 419.036, 79.8741 z "/>
<path style="fill:rgb(94, 108, 231);fill-opacity:1.0;fill-rule:evenodd;stroke:rgb(0, 0, 0);stroke-width:3.0;" d="M 749.239, 514.451 L 741.55, 521.249 L 716.932, 509.063 L 641.885, 451.69 L 655.536, 444.248 z "/>
<path style="fill:rgb(94, 108, 231);fill-opacity:1.0;fill-rule:evenodd;stroke:rgb(0, 0, 0);stroke-width:3.0;" d="M 526.337, 543.019 L 510.338, 557.906 L 501.453, 561.221 L 469.917, 562.429 L 526.706, 542.279 z "/>
<path style="fill:rgb(94, 108, 231);fill-opacity:1.0;fill-rule:evenodd;stroke:rgb(0, 0, 0);stroke-width:3.0;" d="M 413.819, 187.283 L 409.767, 203.016 L 403.485, 197.613 L 403.456, 191.015 L 409.05, 185.294 z "/>
<path style="fill:rgb(94, 108, 231);fill-opacity:1.0;fill-rule:evenodd;stroke:rgb(0, 0, 0);stroke-width:3.0;" d="M 586.709, 266.55 L 578.492, 281.523 L 571.862, 277.396 L 557.099, 264.421 z "/>
<path style="fill:rgb(94, 108, 231);fill-opacity:1.0;fill-rule:evenodd;stroke:rgb(0, 0, 0);stroke-width:3.0;" d="M 466.249, 142.527 L 465.467, 143.37 L 451.867, 124.771 L 451.14, 110.832 z "/>
<path style="fill:rgb(94, 108, 231);fill-opacity:1.0;fill-rule:evenodd;stroke:rgb(0, 0, 0);stroke-width:3.0;" d="M 707.851, 172.895 L 610.366, 222.228 L 607.529, 217.79 L 686.621, 170.39 z "/>
<path style="fill:rgb(94, 108, 231);fill-opacity:1.0;fill-rule:evenodd;stroke:rgb(0, 0, 0);stroke-width:3.0;" d="M 190.353, 172.447 L 184.418, 177.182 L 159.384, 159.545 L 173.867, 157.921 z "/>
<path style="fill:rgb(94, 108, 231);fill-opacity:1.0;fill-rule:evenodd;stroke:rgb(0, 0, 0);stroke-width:3.0;" d="M 596.417, 211.268 L 584.977, 211.432 L 577.419, 205.05 L 585.85, 194.168 z "/>
<path style="fill:rgb(94, 108, 231);fill-opacity:1.0;fill-rule:evenodd;stroke:rgb(0, 0, 0);stroke-width:3.0;" d="M 209.971, 250.445 L 205.424, 255.861 L 199.827, 253.091 L 190.44, 241.241 L 193.799, 233.452 z "/>
<path style="fill:rgb(35, 9, 255);fill-opacity:1.0;fill-rule:evenodd;stroke:rgb(0, 0, 0);stroke-width:3.0;" d="M 250.011, 25.1646 L 233.283, 37.2004 L 231.977, 15.0622 L 232.527, 9.01312 z "/>
<path style="fill:rgb(255, 9, 255);fill-opacity:1.0;fill-rule:evenodd;stroke:rgb(0, 0, 0);stroke-width:3.0;" d="M 476.991, 180.297 L 446.774, 199.179 L 441.906, 178.244 L 476.134, 166.935 z "/>
<path style="fill:rgb(231, 17, 88);fill-opacity:1.0;fill-rule:evenodd;stroke:rgb(0, 0, 0);stroke-width:3.0;" d="M 450.976, 107.679 L 451.03, 108.718 L 449.655, 121.747 L 432.373, 98.1129 z "/>
<path style="fill:rgb(231, 17, 88);fill-opacity:1.0;fill-rule:evenodd;stroke:rgb(0, 0, 0);stroke-width:3.0;" d="M 685.554, 388.64 L 679.613, 391.319 L 675.207, 384.997 L 694.355, 355.498 z "/>
<path style="fill:rgb(231, 17, 88);fill-opacity:1.0;fill-rule:evenodd;stroke:rgb(0, 0, 0);stroke-width:3.0;" d="M 743.158, 181.342 L 737.442, 174.289 L 748.454, 135.743 L 754.858, 128.586 z "/>
<path style="fill:rgb(231, 17, 88);fill-opacity:1.0;fill-rule:evenodd;stroke:rgb(0, 0, 0);stroke-width:3.0;" d="M 212.073, 191.587 L 199.043, 188.774 L 189.694, 172.973 L 190.353, 172.447 z "/>
<path style="fill:rgb(231, 17, 88);fill-opacity:1.0;fill-rule:evenodd;stroke:rgb(0, 0, 0);stroke-width:3.0;" d="M 725.305, 466.761 L 706.578, 458.32 L 706.576, 458.318 L 721.431, 453.03 z "/>
<path style="fill:rgb(243, 4, 255);fill-opacity:1.0;fill-rule:evenodd;stroke:rgb(0, 0, 0);stroke-width:3.0;" d="M 487.729, 475.646 L 535.967, 514.541 L 524.319, 514.965 L 482.98, 482.258 L 482.011, 472.151 z "/>
<path style="fill:rgb(194, 46, 237);fill-opacity:1.0;fill-rule:evenodd;stroke:rgb(0, 0, 0);stroke-width:3.0;" d="M 598.135, 257.705 L 567.081, 265.139 L 559.102, 264.565 L 579.426, 251.961 z "/>
<path style="fill:rgb(255, 7, 255);fill-opacity:1.0;fill-rule:evenodd;stroke:rgb(0, 0, 0);stroke-width:3.0;" d="M 620.301, 556.668 L 610.143, 557.057 L 584.923, 539.16 L 588.554, 537.265 z "/>
<path style="fill:rgb(19, 255, 226);fill-opacity:1.0;fill-rule:evenodd;stroke:rgb(0, 0, 0);stroke-width:3.0;" d="M 178.381, 229.168 L 176.731, 241.658 L 153.706, 230.261 L 156.737, 227.34 L 171.647, 222.199 z "/>
<path style="fill:rgb(223, 71, 7);fill-opacity:1.0;fill-rule:evenodd;stroke:rgb(0, 0, 0);stroke-width:3.0;" d="M 720.561, 449.947 L 721.431, 453.03 L 706.576, 458.318 L 700.597, 453.175 L 703.38, 443.38 z "/>
<path style="fill:rgb(223, 71, 7);fill-opacity:1.0;fill-rule:evenodd;stroke:rgb(0, 0, 0);stroke-width:3.0;" d="M 715.072, 357.929 L 722.331, 373.013 L 721.027, 381.788 L 717.32, 384.34 L 709.331, 374.855 L 706.588, 356.725 z "/>
<path style="fill:rgb(223, 71, 7);fill-opacity:1.0;fill-rule:evenodd;stroke:rgb(0, 0, 0);stroke-width:3.0;" d="M 301.562, 41.5684 L 344.93, 147.246 L 262.927, 76.7104 L 251.126, 17.5055 z "/>
<path style="fill:rgb(91, 255, 42);fill-opacity:1.0;fill-rule:evenodd;stroke:rgb(0, 0, 0);stroke-width:3.0;" d="M 459.292, 143.214 L 437.421, 158.953 L 429.431, 124.584 z "/>
<path style="fill:rgb(91, 255, 42);fill-opacity:1.0;fill-rule:evenodd;stroke:rgb(0, 0, 0);stroke-width:3.0;" d="M 605.052, 195.556 L 592.709, 155.219 L 606.277, 115.658 z "/>
<path style="fill:rgb(91, 255, 42);fill-opacity:1.0;fill-rule:evenodd;stroke:rgb(0, 0, 0);stroke-width:3.0;" d="M 147.602, 73.8122 L 129.152, 82.8343 L 116.006, 72.1651 L 116.49, 57.554 L 123.451, 55.3487 z "/>
<path style="fill:rgb(199, 252, 6);fill-opacity:1.0;fill-rule:evenodd;stroke:rgb(0, 0, 0);stroke-width:3.0;" d="M 782.111, 483.8 L 729.024, 454.437 L 713.386, 432.072 L 714.728, 432.04 z "/>
<path style="fill:rgb(255, 226, 11);fill-opacity:1.0;fill-rule:evenodd;stroke:rgb(0, 0, 0);stroke-width:3.0;" d="M 762.241, 475.592 L 745.906, 477.525 L 742.297, 476.965 L 738.485, 469.965 L 740.36, 461.581 z "/>
<path style="fill:rgb(255, 226, 11);fill-opacity:1.0;fill-rule:evenodd;stroke:rgb(0, 0, 0);stroke-width:3.0;" d="M 524.319, 514.965 L 488.103, 516.284 L 513.954, 506.764 z "/>
<path style="fill:rgb(231, 22, 6);fill-opacity:1.0;fill-rule:evenodd;stroke:rgb(0, 0, 0);stroke-width:3.0;" d="M 509.86, 230.783 L 478.475, 203.457 L 477.273, 184.698 z "/>
<path style="fill:rgb(231, 22, 6);fill-opacity:1.0;fill-rule:evenodd;stroke:rgb(0, 0, 0);stroke-width:3.0;" d="M 302.145, 41.8466 L 352.805, 103.281 L 389.046, 175.346 L 389.568, 177.172 L 370.458, 169.204 L 344.93, 147.246 L 301.562, 41.5684 z "/>
<path style="fill:rgb(231, 22, 6);fill-opacity:1.0;fill-rule:evenodd;stroke:rgb(0, 0, 0);stroke-width:3.0;" d="M 465.974, 17.4938 L 487.186, 29.5533 L 491.195, 35.8237 L 470.312, 29.1057 L 447.488, 10.8466 z "/>
<path style="fill:rgb(231, 22, 6);fill-opacity:1.0;fill-rule:evenodd;stroke:rgb(0, 0, 0);stroke-width:3.0;" d="M 515.91, 543.063 L 519.171, 544.952 L 497.962, 552.477 L 501.199, 542.187 z "/>
<path style="fill:rgb(24, 237, 255);fill-opacity:1.0;fill-rule:evenodd;stroke:rgb(0, 0, 0);stroke-width:3.0;" d="M 422.283, 190.812 L 422.426, 213.905 L 411.514, 204.519 L 419.144, 189.503 z "/>
<path style="fill:rgb(13, 2, 255);fill-opacity:1.0;fill-rule:evenodd;stroke:rgb(0, 0, 0);stroke-width:3.0;" d="M 610.143, 557.057 L 568.54, 558.651 L 576.841, 533.426 z "/>
<path style="fill:rgb(255, 177, 94);fill-opacity:1.0;fill-rule:evenodd;stroke:rgb(0, 0, 0);stroke-width:3.0;" d="M 734.588, 219.984 L 723.097, 271.797 L 722.648, 226.071 L 726.4, 212.937 z "/>
<path style="fill:rgb(255, 177, 94);fill-opacity:1.0;fill-rule:evenodd;stroke:rgb(0, 0, 0);stroke-width:3.0;" d="M 255.175, 37.8202 L 255.816, 41.0364 L 231.381, 42.1959 L 231.477, 40.5627 L 245.601, 35.449 z "/>
<path style="fill:rgb(255, 177, 94);fill-opacity:1.0;fill-rule:evenodd;stroke:rgb(0, 0, 0);stroke-width:3.0;" d="M 535.543, 504.868 L 531.509, 508.352 L 519.963, 501.636 L 487.729, 475.646 z "/>
<path style="fill:rgb(243, 26, 240);fill-opacity:1.0;fill-rule:evenodd;stroke:rgb(0, 0, 0);stroke-width:3.0;" d="M 453.145, 557.287 L 461.045, 565.577 L 394.428, 589.214 L 380.127, 536.973 z "/>
<path style="fill:rgb(243, 26, 240);fill-opacity:1.0;fill-rule:evenodd;stroke:rgb(0, 0, 0);stroke-width:3.0;" d="M 414.04, 480.633 L 413.691, 484.654 L 382.937, 483.616 L 378.023, 478.459 z "/>
<path style="fill:rgb(243, 26, 240);fill-opacity:1.0;fill-rule:evenodd;stroke:rgb(0, 0, 0);stroke-width:3.0;" d="M 555.104, 193.963 L 529.223, 223.06 L 448.973, 87.7826 z "/>
<path style="fill:rgb(255, 252, 21);fill-opacity:1.0;fill-rule:evenodd;stroke:rgb(0, 0, 0);stroke-width:3.0;" d="M 739.284, 167.84 L 729.262, 202.921 L 722.419, 202.77 L 722.018, 161.856 z "/>
<path style="fill:rgb(237, 128, 25);fill-opacity:1.0;fill-rule:evenodd;stroke:rgb(0, 0, 0);stroke-width:3.0;" d="M 576.288, 178.695 L 584.629, 192.193 L 574.495, 202.581 L 526.318, 161.899 L 526.278, 159.004 z "/>
<path style="fill:rgb(231, 243, 34);fill-opacity:1.0;fill-rule:evenodd;stroke:rgb(0, 0, 0);stroke-width:3.0;" d="M 760.382, 504.6 L 749.239, 514.451 L 655.536, 444.248 L 676.764, 432.675 z "/>
<path style="fill:rgb(61, 192, 231);fill-opacity:1.0;fill-rule:evenodd;stroke:rgb(0, 0, 0);stroke-width:3.0;" d="M 423.675, 99.8289 L 447.249, 201.221 L 426.401, 192.529 L 302.145, 41.8466 z "/>
<path style="fill:rgb(157, 0, 142);fill-opacity:1.0;fill-rule:evenodd;stroke:rgb(0, 0, 0);stroke-width:3.0;" d="M 135.214, 169.269 L 125.428, 172.883 L 121.201, 171.97 L 121.471, 163.798 L 138.965, 161.836 z "/>
<path style="fill:rgb(255, 48, 27);fill-opacity:1.0;fill-rule:evenodd;stroke:rgb(0, 0, 0);stroke-width:3.0;" d="M 662.451, 291.862 L 657.035, 295.226 L 610.366, 222.228 L 694.099, 179.854 z "/>
<path style="fill:rgb(255, 48, 27);fill-opacity:1.0;fill-rule:evenodd;stroke:rgb(0, 0, 0);stroke-width:3.0;" d="M 602.405, 346.424 L 593.101, 348.502 L 589.89, 343.961 L 587.555, 321.39 z "/>
<path style="fill:rgb(192, 110, 207);fill-opacity:1.0;fill-rule:evenodd;stroke:rgb(0, 0, 0);stroke-width:3.0;" d="M 604.294, 243.174 L 600.129, 258.317 L 598.198, 257.724 L 583.942, 246.335 L 584.821, 223.693 z "/>
<path style="fill:rgb(252, 152, 10);fill-opacity:1.0;fill-rule:evenodd;stroke:rgb(0, 0, 0);stroke-width:3.0;" d="M 702.222, 422.434 L 668.537, 425.599 L 654.004, 413.098 L 656.697, 387.464 z "/>
<path style="fill:rgb(252, 152, 10);fill-opacity:1.0;fill-rule:evenodd;stroke:rgb(0, 0, 0);stroke-width:3.0;" d="M 409.921, 454.85 L 392.215, 467.197 L 365.097, 455.205 L 389.405, 443.494 z "/>
<path style="fill:rgb(6, 44, 255);fill-opacity:1.0;fill-rule:evenodd;stroke:rgb(0, 0, 0);stroke-width:3.0;" d="M 576.841, 533.426 L 569.665, 555.231 L 566.315, 558.736 L 536.865, 559.864 L 554.875, 541.289 L 576.535, 533.208 z "/>
<path style="fill:rgb(6, 44, 255);fill-opacity:1.0;fill-rule:evenodd;stroke:rgb(0, 0, 0);stroke-width:3.0;" d="M 485.179, 486.423 L 492.28, 498.953 L 497.294, 512.899 L 488.103, 516.284 L 486.251, 516.351 L 483.236, 484.926 z "/>
<path style="fill:rgb(170, 3, 255);fill-opacity:1.0;fill-rule:evenodd;stroke:rgb(0, 0, 0);stroke-width:3.0;" d="M 121.87, 54.1401 L 107.85, 55.5261 L 94.8104, 40.465 L 99.035, 36.6828 z "/>
<path style="fill:rgb(228, 32, 234);fill-opacity:1.0;fill-rule:evenodd;stroke:rgb(0, 0, 0);stroke-width:3.0;" d="M 522.266, 248.327 L 537.314, 269.609 L 523.644, 280.625 L 502.088, 258.885 L 508.376, 243.86 z "/>
<path style="fill:rgb(255, 249, 7);fill-opacity:1.0;fill-rule:evenodd;stroke:rgb(0, 0, 0);stroke-width:3.0;" d="M 687.271, 393.627 L 684.931, 390.986 L 694.355, 355.498 L 699.98, 346.832 z "/>
<path style="fill:rgb(255, 252, 78);fill-opacity:1.0;fill-rule:evenodd;stroke:rgb(0, 0, 0);stroke-width:3.0;" d="M 588.005, 325.744 L 589.89, 343.961 L 585.471, 337.711 L 575.144, 312.663 z "/>
<path style="fill:rgb(207, 1, 255);fill-opacity:1.0;fill-rule:evenodd;stroke:rgb(0, 0, 0);stroke-width:3.0;" d="M 426.401, 192.529 L 389.568, 177.172 L 376.724, 132.287 z "/>
<path style="fill:rgb(187, 4, 223);fill-opacity:1.0;fill-rule:evenodd;stroke:rgb(0, 0, 0);stroke-width:3.0;" d="M 763.695, 366.964 L 762.805, 378.45 L 755.929, 390.041 L 751.325, 383.596 L 763.301, 366.444 z "/>
<path style="fill:rgb(187, 4, 223);fill-opacity:1.0;fill-rule:evenodd;stroke:rgb(0, 0, 0);stroke-width:3.0;" d="M 192.231, 243.502 L 199.827, 253.091 L 180.941, 243.742 L 180.125, 230.973 z "/>
<path style="fill:rgb(187, 4, 223);fill-opacity:1.0;fill-rule:evenodd;stroke:rgb(0, 0, 0);stroke-width:3.0;" d="M 419.42, 211.319 L 650.515, 446.985 L 641.885, 451.69 L 244.869, 148.172 L 269.065, 81.9905 z "/>
<path style="fill:rgb(187, 4, 223);fill-opacity:1.0;fill-rule:evenodd;stroke:rgb(0, 0, 0);stroke-width:3.0;" d="M 173.547, 256.074 L 171.179, 264.371 L 163.301, 265.8 L 152.09, 249.061 z "/>
<path style="fill:rgb(187, 4, 223);fill-opacity:1.0;fill-rule:evenodd;stroke:rgb(0, 0, 0);stroke-width:3.0;" d="M 322.537, 288.922 L 316.209, 300.935 L 303.332, 304.327 L 250.397, 278.123 L 269.266, 241.982 z "/>
<path style="fill:rgb(187, 4, 223);fill-opacity:1.0;fill-rule:evenodd;stroke:rgb(0, 0, 0);stroke-width:3.0;" d="M 413.691, 484.654 L 412.448, 498.981 L 404.556, 506.301 L 382.937, 483.616 z "/>
<path style="fill:rgb(187, 4, 223);fill-opacity:1.0;fill-rule:evenodd;stroke:rgb(0, 0, 0);stroke-width:3.0;" d="M 482.011, 472.151 L 483.225, 484.808 L 461.695, 483.509 L 348.31, 420.747 L 346.635, 414.631 L 346.293, 389.208 z "/>
<path style="fill:rgb(187, 4, 223);fill-opacity:1.0;fill-rule:evenodd;stroke:rgb(0, 0, 0);stroke-width:3.0;" d="M 654.165, 324.809 L 648.06, 336.227 L 638.091, 338.453 L 639.737, 322.645 z "/>
<path style="fill:rgb(187, 4, 223);fill-opacity:1.0;fill-rule:evenodd;stroke:rgb(0, 0, 0);stroke-width:3.0;" d="M 523.644, 280.625 L 511.434, 290.465 L 488.938, 271.116 L 491.725, 248.433 z "/>
<path style="fill:rgb(30, 168, 255);fill-opacity:1.0;fill-rule:evenodd;stroke:rgb(0, 0, 0);stroke-width:3.0;" d="M 560.737, 144.6 L 538.831, 110.334 L 607.856, 39.7794 z "/>
<path style="fill:rgb(255, 21, 51);fill-opacity:1.0;fill-rule:evenodd;stroke:rgb(0, 0, 0);stroke-width:3.0;" d="M 771.151, 495.081 L 760.382, 504.6 L 759.182, 503.568 L 757.313, 486.212 z "/>
<path style="fill:rgb(246, 255, 37);fill-opacity:1.0;fill-rule:evenodd;stroke:rgb(0, 0, 0);stroke-width:3.0;" d="M 509.86, 230.783 L 512.366, 234.327 L 502.088, 258.885 L 480.641, 237.254 L 478.475, 203.457 z "/>
<path style="fill:rgb(240, 231, 8);fill-opacity:1.0;fill-rule:evenodd;stroke:rgb(0, 0, 0);stroke-width:3.0;" d="M 110.065, 65.2358 L 112.149, 91.1485 L 109.702, 92.3449 L 85.2584, 79.8431 L 76.498, 72.1239 L 100.559, 60.623 z "/>
<path style="fill:rgb(240, 231, 8);fill-opacity:1.0;fill-rule:evenodd;stroke:rgb(0, 0, 0);stroke-width:3.0;" d="M 741.55, 521.249 L 668.301, 586.002 L 148.7, 268.448 L 208.821, 257.543 z "/>
<path style="fill:rgb(255, 31, 12);fill-opacity:1.0;fill-rule:evenodd;stroke:rgb(0, 0, 0);stroke-width:3.0;" d="M 743.158, 181.342 L 738.165, 203.854 L 728.958, 203.986 L 737.442, 174.289 z "/>
<path style="fill:rgb(55, 231, 170);fill-opacity:1.0;fill-rule:evenodd;stroke:rgb(0, 0, 0);stroke-width:3.0;" d="M 544.331, 552.164 L 536.865, 559.864 L 528.911, 560.169 L 534.078, 549.048 L 547.41, 544.074 z "/>
<path style="fill:rgb(255, 31, 134);fill-opacity:1.0;fill-rule:evenodd;stroke:rgb(0, 0, 0);stroke-width:3.0;" d="M 528.911, 560.169 L 501.453, 561.221 L 534.078, 549.048 z "/>
<path style="fill:rgb(255, 40, 18);fill-opacity:1.0;fill-rule:evenodd;stroke:rgb(0, 0, 0);stroke-width:3.0;" d="M 722.925, 254.299 L 662.451, 291.862 L 694.099, 179.854 L 722.055, 165.706 z "/>
<path style="fill:rgb(255, 40, 18);fill-opacity:1.0;fill-rule:evenodd;stroke:rgb(0, 0, 0);stroke-width:3.0;" d="M 568.552, 156.823 L 608.78, 219.747 L 604.652, 224.594 L 571.897, 171.589 L 565.601, 156.785 z "/>
<path style="fill:rgb(255, 40, 18);fill-opacity:1.0;fill-rule:evenodd;stroke:rgb(0, 0, 0);stroke-width:3.0;" d="M 491.195, 35.8237 L 505.736, 58.5683 L 497.367, 107.582 L 474.715, 113.536 L 448.973, 87.7826 L 402.765, 9.88921 L 402.133, 7.17321 z "/>
<path style="fill:rgb(255, 40, 18);fill-opacity:1.0;fill-rule:evenodd;stroke:rgb(0, 0, 0);stroke-width:3.0;" d="M 629.045, 251.445 L 639.917, 320.911 L 638.091, 338.453 L 635.775, 338.971 L 593.374, 282.877 L 610.148, 221.887 z "/>
<path style="fill:rgb(209, 255, 26);fill-opacity:1.0;fill-rule:evenodd;stroke:rgb(0, 0, 0);stroke-width:3.0;" d="M 236.977, 213.531 L 229.871, 224.316 L 215.443, 229.72 L 199.853, 223.369 L 192.838, 214.891 L 225.673, 203.57 z "/>
<path style="fill:rgb(209, 255, 26);fill-opacity:1.0;fill-rule:evenodd;stroke:rgb(0, 0, 0);stroke-width:3.0;" d="M 376.724, 132.287 L 389.046, 175.346 L 352.805, 103.281 z "/>
<path style="fill:rgb(117, 44, 179);fill-opacity:1.0;fill-rule:evenodd;stroke:rgb(0, 0, 0);stroke-width:3.0;" d="M 691.158, 433.493 L 702.705, 445.756 L 700.597, 453.175 L 679.229, 434.795 L 675.307, 424.963 L 675.673, 424.928 z "/>
<path style="fill:rgb(246, 78, 16);fill-opacity:1.0;fill-rule:evenodd;stroke:rgb(0, 0, 0);stroke-width:3.0;" d="M 678.851, 329.35 L 667.631, 331.856 L 651.412, 329.958 L 664.085, 306.254 z "/>
<path style="fill:rgb(246, 78, 16);fill-opacity:1.0;fill-rule:evenodd;stroke:rgb(0, 0, 0);stroke-width:3.0;" d="M 447.249, 201.221 L 448.547, 206.804 L 450.428, 221.237 L 446.014, 228.503 L 440.269, 198.311 z "/>
<path style="fill:rgb(69, 89, 204);fill-opacity:1.0;fill-rule:evenodd;stroke:rgb(0, 0, 0);stroke-width:3.0;" d="M 723.024, 319.484 L 678.851, 329.35 L 674.696, 322.852 L 697.651, 306.381 z "/>
<path style="fill:rgb(249, 163, 255);fill-opacity:1.0;fill-rule:evenodd;stroke:rgb(0, 0, 0);stroke-width:3.0;" d="M 717.289, 586.857 L 712.371, 587.639 L 696.886, 577.894 L 697.247, 577.441 L 721.634, 574.143 z "/>
<path style="fill:rgb(249, 163, 255);fill-opacity:1.0;fill-rule:evenodd;stroke:rgb(0, 0, 0);stroke-width:3.0;" d="M 780.228, 342.2 L 736.41, 404.957 L 721.026, 416.204 L 719.163, 415.36 L 758.159, 356.224 L 779.761, 341.352 z "/>
<path style="fill:rgb(249, 163, 255);fill-opacity:1.0;fill-rule:evenodd;stroke:rgb(0, 0, 0);stroke-width:3.0;" d="M 642.462, 380.626 L 635.727, 389.753 L 624.572, 372.525 z "/>
<path style="fill:rgb(249, 163, 255);fill-opacity:1.0;fill-rule:evenodd;stroke:rgb(0, 0, 0);stroke-width:3.0;" d="M 107.85, 55.5261 L 70.999, 59.1692 L 69.781, 57.3035 L 79.5374, 22.8237 z "/>
<path style="fill:rgb(187, 24, 14);fill-opacity:1.0;fill-rule:evenodd;stroke:rgb(0, 0, 0);stroke-width:3.0;" d="M 617.111, 314.279 L 626.982, 327.338 L 620.575, 330.053 L 609.343, 305.647 z "/>
<path style="fill:rgb(255, 30, 10);fill-opacity:1.0;fill-rule:evenodd;stroke:rgb(0, 0, 0);stroke-width:3.0;" d="M 483.225, 484.808 L 488.923, 544.205 L 484.576, 557.227 L 461.045, 565.577 L 419.669, 522.16 L 453.818, 483.033 z "/>
<path style="fill:rgb(255, 30, 10);fill-opacity:1.0;fill-rule:evenodd;stroke:rgb(0, 0, 0);stroke-width:3.0;" d="M 614.527, 146.505 L 605.567, 161.958 L 606.277, 115.658 L 629.794, 47.0865 z "/>
<path style="fill:rgb(255, 18, 21);fill-opacity:1.0;fill-rule:evenodd;stroke:rgb(0, 0, 0);stroke-width:3.0;" d="M 751.877, 123.76 L 739.284, 167.84 L 722.018, 161.856 L 721.328, 91.5991 L 727.399, 86.5985 z "/>
<path style="fill:rgb(255, 246, 12);fill-opacity:1.0;fill-rule:evenodd;stroke:rgb(0, 0, 0);stroke-width:3.0;" d="M 372.93, 434.375 L 354.431, 443.109 L 353.279, 438.9 L 353.597, 436.345 L 361.949, 428.296 z "/>
<path style="fill:rgb(82, 61, 231);fill-opacity:1.0;fill-rule:evenodd;stroke:rgb(0, 0, 0);stroke-width:3.0;" d="M 703.162, 334.081 L 703.262, 334.745 L 699.98, 346.832 L 682.224, 374.187 L 662.648, 356.895 L 655.878, 334.481 L 674.321, 330.362 z "/>
<path style="fill:rgb(154, 43, 255);fill-opacity:1.0;fill-rule:evenodd;stroke:rgb(0, 0, 0);stroke-width:3.0;" d="M 703.162, 334.081 L 674.321, 330.362 L 701.675, 324.252 z "/>
<path style="fill:rgb(240, 7, 234);fill-opacity:1.0;fill-rule:evenodd;stroke:rgb(0, 0, 0);stroke-width:3.0;" d="M 199.043, 188.774 L 176.098, 183.821 L 189.694, 172.973 z "/>
<path style="fill:rgb(249, 175, 8);fill-opacity:1.0;fill-rule:evenodd;stroke:rgb(0, 0, 0);stroke-width:3.0;" d="M 473.737, 129.527 L 474.033, 134.14 L 466.249, 142.527 L 451.14, 110.832 L 450.471, 97.992 L 453.976, 96.2154 z "/>
<path style="fill:rgb(255, 243, 27);fill-opacity:1.0;fill-rule:evenodd;stroke:rgb(0, 0, 0);stroke-width:3.0;" d="M 171.266, 182.778 L 169.193, 223.045 L 151.472, 229.155 L 136.912, 221.948 L 129.455, 173.752 z "/>
<path style="fill:rgb(246, 220, 11);fill-opacity:1.0;fill-rule:evenodd;stroke:rgb(0, 0, 0);stroke-width:3.0;" d="M 707.829, 584.781 L 695.562, 590.313 L 685.753, 591.873 L 696.886, 577.894 z "/>
<path style="fill:rgb(246, 220, 11);fill-opacity:1.0;fill-rule:evenodd;stroke:rgb(0, 0, 0);stroke-width:3.0;" d="M 681.799, 150.412 L 616.18, 135.736 L 621.538, 100.849 L 627.563, 64.762 z "/>
<path style="fill:rgb(255, 255, 15);fill-opacity:1.0;fill-rule:evenodd;stroke:rgb(0, 0, 0);stroke-width:3.0;" d="M 730.607, 398.006 L 719.163, 415.36 L 715.186, 413.559 L 713.892, 405.006 L 726.863, 397.887 z "/>
<path style="fill:rgb(121, 255, 16);fill-opacity:1.0;fill-rule:evenodd;stroke:rgb(0, 0, 0);stroke-width:3.0;" d="M 383.08, 442.579 L 358.483, 457.91 L 357.232, 453.339 L 368.05, 436.897 z "/>
<path style="fill:rgb(121, 255, 16);fill-opacity:1.0;fill-rule:evenodd;stroke:rgb(0, 0, 0);stroke-width:3.0;" d="M 388.231, 468.488 L 363.184, 475.082 L 362.239, 471.629 L 383.416, 464.843 z "/>
<path style="fill:rgb(255, 128, 24);fill-opacity:1.0;fill-rule:evenodd;stroke:rgb(0, 0, 0);stroke-width:3.0;" d="M 378.537, 461.149 L 383.416, 464.843 L 362.239, 471.629 L 358.6, 458.336 L 365.097, 455.205 z "/>
<path style="fill:rgb(237, 124, 16);fill-opacity:1.0;fill-rule:evenodd;stroke:rgb(0, 0, 0);stroke-width:3.0;" d="M 547.987, 124.656 L 544.161, 126.705 L 530.356, 104.365 L 531.243, 98.4656 z "/>
<path style="fill:rgb(237, 35, 64);fill-opacity:1.0;fill-rule:evenodd;stroke:rgb(0, 0, 0);stroke-width:3.0;" d="M 470.437, 150.167 L 475.504, 157.096 L 475.715, 160.392 L 470.995, 168.633 L 441.906, 178.244 L 437.421, 158.953 L 459.292, 143.214 z "/>
<path style="fill:rgb(140, 36, 255);fill-opacity:1.0;fill-rule:evenodd;stroke:rgb(0, 0, 0);stroke-width:3.0;" d="M 584.821, 223.693 L 583.674, 253.265 L 539.005, 239.551 L 529.223, 223.06 L 531.358, 220.661 L 571.683, 210.548 z "/>
<path style="fill:rgb(246, 237, 11);fill-opacity:1.0;fill-rule:evenodd;stroke:rgb(0, 0, 0);stroke-width:3.0;" d="M 729.55, 324.423 L 702.455, 329.406 L 701.675, 324.252 L 730.533, 317.807 z "/>
<path style="fill:rgb(243, 66, 44);fill-opacity:1.0;fill-rule:evenodd;stroke:rgb(0, 0, 0);stroke-width:3.0;" d="M 784.635, 462.671 L 768.508, 473.352 L 731.262, 444.741 L 731.414, 444.114 z "/>
<path style="fill:rgb(255, 255, 6);fill-opacity:1.0;fill-rule:evenodd;stroke:rgb(0, 0, 0);stroke-width:3.0;" d="M 440.309, 198.523 L 447.309, 235.308 L 422.426, 213.905 L 422.327, 197.881 z "/>
<path style="fill:rgb(37, 209, 255);fill-opacity:1.0;fill-rule:evenodd;stroke:rgb(0, 0, 0);stroke-width:3.0;" d="M 269.023, 242.446 L 250.397, 278.123 L 209.582, 257.92 L 229.234, 238.084 z "/>
<path style="fill:rgb(17, 103, 255);fill-opacity:1.0;fill-rule:evenodd;stroke:rgb(0, 0, 0);stroke-width:3.0;" d="M 269.266, 241.982 L 269.023, 242.446 L 229.234, 238.084 L 245.831, 221.332 z "/>
<path style="fill:rgb(8, 255, 255);fill-opacity:1.0;fill-rule:evenodd;stroke:rgb(0, 0, 0);stroke-width:3.0;" d="M 63.38, 47.4986 L 64.8759, 55.829 L 57.7444, 55.599 L 56.5727, 54.5666 L 54.9441, 34.5766 z "/>
<path style="fill:rgb(237, 9, 25);fill-opacity:1.0;fill-rule:evenodd;stroke:rgb(0, 0, 0);stroke-width:3.0;" d="M 682.224, 374.187 L 675.207, 384.997 L 658.775, 361.417 L 659.916, 354.482 z "/>
<path style="fill:rgb(255, 255, 69);fill-opacity:1.0;fill-rule:evenodd;stroke:rgb(0, 0, 0);stroke-width:3.0;" d="M 212.073, 191.587 L 225.673, 203.57 L 169.193, 223.045 L 170.521, 197.246 L 192.264, 187.31 z "/>
<path style="fill:rgb(255, 0, 42);fill-opacity:1.0;fill-rule:evenodd;stroke:rgb(0, 0, 0);stroke-width:3.0;" d="M 192.264, 187.31 L 170.521, 197.246 L 171.266, 182.778 z "/>
<path style="fill:rgb(204, 42, 161);fill-opacity:1.0;fill-rule:evenodd;stroke:rgb(0, 0, 0);stroke-width:3.0;" d="M 269.065, 81.9905 L 244.869, 148.172 L 211.43, 122.608 L 260.87, 74.9412 z "/>
<path style="fill:rgb(204, 42, 161);fill-opacity:1.0;fill-rule:evenodd;stroke:rgb(0, 0, 0);stroke-width:3.0;" d="M 260.87, 74.9412 L 211.43, 122.608 L 201.25, 114.826 L 245.61, 61.8148 z "/>
<path style="fill:rgb(204, 42, 161);fill-opacity:1.0;fill-rule:evenodd;stroke:rgb(0, 0, 0);stroke-width:3.0;" d="M 644.612, 275.795 L 641.373, 306.919 L 637.138, 303.157 L 629.045, 251.445 z "/>
<path style="fill:rgb(108, 13, 255);fill-opacity:1.0;fill-rule:evenodd;stroke:rgb(0, 0, 0);stroke-width:3.0;" d="M 734.648, 382.271 L 728.934, 388.087 L 726.413, 387.862 L 723.374, 380.172 L 737.458, 370.476 z "/>
<path style="fill:rgb(71, 0, 212);fill-opacity:1.0;fill-rule:evenodd;stroke:rgb(0, 0, 0);stroke-width:3.0;" d="M 184.418, 177.182 L 176.098, 183.821 L 162.917, 180.975 L 141.74, 161.525 L 159.384, 159.545 z "/>
<path style="fill:rgb(23, 150, 255);fill-opacity:1.0;fill-rule:evenodd;stroke:rgb(0, 0, 0);stroke-width:3.0;" d="M 766.028, 414.905 L 761.122, 421.202 L 739.621, 406.72 L 738.011, 402.664 L 739.921, 399.929 z "/>
<path style="fill:rgb(255, 243, 20);fill-opacity:1.0;fill-rule:evenodd;stroke:rgb(0, 0, 0);stroke-width:3.0;" d="M 770.025, 409.775 L 766.028, 414.905 L 739.921, 399.929 L 750.473, 384.816 L 751.998, 384.538 z "/>
<path style="fill:rgb(64, 75, 209);fill-opacity:1.0;fill-rule:evenodd;stroke:rgb(0, 0, 0);stroke-width:3.0;" d="M 571.683, 210.548 L 531.604, 220.599 L 555.476, 194.334 z "/>
<path style="fill:rgb(6, 88, 226);fill-opacity:1.0;fill-rule:evenodd;stroke:rgb(0, 0, 0);stroke-width:3.0;" d="M 378.023, 478.459 L 419.926, 522.429 L 381.616, 537.387 L 380.127, 536.973 L 363.875, 477.605 z "/>
<path style="fill:rgb(255, 52, 15);fill-opacity:1.0;fill-rule:evenodd;stroke:rgb(0, 0, 0);stroke-width:3.0;" d="M 551.266, 533.564 L 523.51, 543.412 L 511.765, 527.947 z "/>
<path style="fill:rgb(72, 177, 255);fill-opacity:1.0;fill-rule:evenodd;stroke:rgb(0, 0, 0);stroke-width:3.0;" d="M 723.213, 283.528 L 723.257, 288.008 L 710.825, 296.928 L 704.944, 279.121 z "/>
<path style="fill:rgb(184, 255, 199);fill-opacity:1.0;fill-rule:evenodd;stroke:rgb(0, 0, 0);stroke-width:3.0;" d="M 723.213, 283.528 L 704.944, 279.121 L 701.203, 267.792 L 722.925, 254.299 z "/>
<path style="fill:rgb(97, 9, 226);fill-opacity:1.0;fill-rule:evenodd;stroke:rgb(0, 0, 0);stroke-width:3.0;" d="M 631.585, 383.356 L 635.727, 389.753 L 632.285, 394.416 L 617.497, 381.696 L 616.818, 378.297 z "/>
<path style="fill:rgb(249, 187, 51);fill-opacity:1.0;fill-rule:evenodd;stroke:rgb(0, 0, 0);stroke-width:3.0;" d="M 525.321, 89.2025 L 525.471, 100.194 L 497.367, 107.582 L 505.736, 58.5683 z "/>
<path style="fill:rgb(255, 22, 194);fill-opacity:1.0;fill-rule:evenodd;stroke:rgb(0, 0, 0);stroke-width:3.0;" d="M 430.557, 466.273 L 426.108, 469.908 L 401.108, 462.279 L 401.702, 460.582 L 409.921, 454.85 z "/>
<path style="fill:rgb(255, 142, 13);fill-opacity:1.0;fill-rule:evenodd;stroke:rgb(0, 0, 0);stroke-width:3.0;" d="M 607.94, 229.916 L 607.738, 230.651 L 584.977, 211.432 L 596.417, 211.268 z "/>
</svg>