<?xml version="1.0" encoding="iso-8859-1" standalone="no"?>
<!DOCTYPE svg PUBLIC "-//W3C//DTD SVG 1.0//EN" "http://www.w3.org/TR/2001/REC-SVG-20010904/DTD/svg10.dtd">
<svg xmlns="http://www.w3.org/2000/svg" width="800" height="600">
<path style="fill:rgb(0, 0, 0);fill-opacity:0.0;fill-rule:evenodd;stroke:rgb(0, 0, 0);stroke-width:0.0;" d="M 0, 600 L 800, 600 L 800, 0 L 0, 0 z "/>
<path style="fill:rgb(220, 62, 207);fill-opacity:1.0;fill-rule:evenodd;stroke:rgb(0, 0, 0);stroke-width:3.0;" d="M 777.358, 377.857 L 766.773, 420.314 L 765.491, 411.598 L 765.936, 395.418 L 775.064, 376.918 z "/>
<path style="fill:rgb(60, 11, 192);fill-opacity:1.0;fill-rule:evenodd;stroke:rgb(0, 0, 0);stroke-width:3.0;" d="M 587.331, 182.686 L 578.716, 187.48 L 538.609, 162.345 L 544.773, 126.417 L 560.238, 96.4857 z "/>
<path style="fill:rgb(60, 11, 192);fill-opacity:1.0;fill-rule:evenodd;stroke:rgb(0, 0, 0);stroke-width:3.0;" d="M 146.45, 44.6824 L 115.345, 63.5198 L 120.161, 39.1534 L 130.267, 33.0962 z "/>
<path style="fill:rgb(60, 11, 192);fill-opacity:1.0;fill-rule:evenodd;stroke:rgb(0, 0, 0);stroke-width:3.0;" d="M 258.499, 154.03 L 245.819, 145.39 L 252.615, 133.95 z "/>
<path style="fill:rgb(60, 11, 192);fill-opacity:1.0;fill-rule:evenodd;stroke:rgb(0, 0, 0);stroke-width:3.0;" d="M 104.761, 35.8835 L 95.5647, 44.9488 L 43.1458, 35.198 L 73.626, 16.5795 z "/>
<path style="fill:rgb(60, 11, 192);fill-opacity:1.0;fill-rule:evenodd;stroke:rgb(0, 0, 0);stroke-width:3.0;" d="M 791.333, 210.04 L 788.723, 208.985 L 779.624, 166.48 L 783.25, 158.151 z "/>
<path style="fill:rgb(249, 255, 33);fill-opacity:1.0;fill-rule:evenodd;stroke:rgb(0, 0, 0);stroke-width:3.0;" d="M 414.24, 70.3356 L 374.73, 76.851 L 361.471, 66.0633 L 414.984, 60.3579 z "/>
<path style="fill:rgb(249, 255, 33);fill-opacity:1.0;fill-rule:evenodd;stroke:rgb(0, 0, 0);stroke-width:3.0;" d="M 548.378, 179.289 L 544.515, 187.535 L 534.458, 186.541 L 534.967, 183.573 L 546.562, 172.041 z "/>
<path style="fill:rgb(69, 231, 226);fill-opacity:1.0;fill-rule:evenodd;stroke:rgb(0, 0, 0);stroke-width:3.0;" d="M 281.525, 151.618 L 260.547, 155.373 L 260.224, 151.212 L 279.737, 146.21 z "/>
<path style="fill:rgb(69, 231, 226);fill-opacity:1.0;fill-rule:evenodd;stroke:rgb(0, 0, 0);stroke-width:3.0;" d="M 302.483, 127.355 L 285.458, 129.257 L 285.424, 129.135 L 295.602, 110.465 z "/>
<path style="fill:rgb(249, 223, 41);fill-opacity:1.0;fill-rule:evenodd;stroke:rgb(0, 0, 0);stroke-width:3.0;" d="M 550.42, 93.4956 L 418.748, 175.094 L 415.52, 174.774 L 550.755, 91.5476 z "/>
<path style="fill:rgb(28, 226, 240);fill-opacity:1.0;fill-rule:evenodd;stroke:rgb(0, 0, 0);stroke-width:3.0;" d="M 772.43, 328.87 L 769.979, 327.657 L 767.994, 320.719 L 768.3, 309.625 L 774.797, 297.971 z "/>
<path style="fill:rgb(28, 226, 240);fill-opacity:1.0;fill-rule:evenodd;stroke:rgb(0, 0, 0);stroke-width:3.0;" d="M 739.01, 45.1779 L 717.774, 69.6569 L 714.772, 66.8962 L 713.462, 57.9895 L 733.657, 39.5192 z "/>
<path style="fill:rgb(177, 165, 255);fill-opacity:1.0;fill-rule:evenodd;stroke:rgb(0, 0, 0);stroke-width:3.0;" d="M 728.939, 114.736 L 725.9, 142.521 L 721.285, 111.161 z "/>
<path style="fill:rgb(255, 18, 34);fill-opacity:1.0;fill-rule:evenodd;stroke:rgb(0, 0, 0);stroke-width:3.0;" d="M 367.578, 573.594 L 342.382, 561.497 L 340.767, 541.815 L 354.348, 538.264 z "/>
<path style="fill:rgb(255, 18, 34);fill-opacity:1.0;fill-rule:evenodd;stroke:rgb(0, 0, 0);stroke-width:3.0;" d="M 64.0355, 128.99 L 77.1529, 141.301 L 32.8026, 136.913 L 32.2025, 136.085 L 52.4083, 127.14 z "/>
<path style="fill:rgb(255, 0, 150);fill-opacity:1.0;fill-rule:evenodd;stroke:rgb(0, 0, 0);stroke-width:3.0;" d="M 220.093, 155.441 L 156.874, 149.187 L 152.624, 142.284 z "/>
<path style="fill:rgb(59, 246, 255);fill-opacity:1.0;fill-rule:evenodd;stroke:rgb(0, 0, 0);stroke-width:3.0;" d="M 412.905, 88.2419 L 412.097, 99.0839 L 392.349, 89.0592 L 390.17, 78.6692 z "/>
<path style="fill:rgb(59, 246, 255);fill-opacity:1.0;fill-rule:evenodd;stroke:rgb(0, 0, 0);stroke-width:3.0;" d="M 99.4574, 69.7814 L 108.431, 74.5413 L 110.165, 96.3933 L 62.2287, 84.1536 L 67.766, 70.5561 L 79.8685, 63.3025 z "/>
<path style="fill:rgb(59, 246, 255);fill-opacity:1.0;fill-rule:evenodd;stroke:rgb(0, 0, 0);stroke-width:3.0;" d="M 431.017, 52.4776 L 422.67, 63.325 L 414.36, 68.7233 L 416.737, 36.8429 L 434.181, 27.1695 L 435.095, 26.9991 z "/>
<path style="fill:rgb(59, 246, 255);fill-opacity:1.0;fill-rule:evenodd;stroke:rgb(0, 0, 0);stroke-width:3.0;" d="M 122.935, 138.361 L 121.069, 145.645 L 85.9552, 142.171 L 72.1286, 130.277 z "/>
<path style="fill:rgb(255, 199, 9);fill-opacity:1.0;fill-rule:evenodd;stroke:rgb(0, 0, 0);stroke-width:3.0;" d="M 412.905, 88.2419 L 383.589, 75.8986 L 414.233, 70.4267 z "/>
<path style="fill:rgb(255, 35, 255);fill-opacity:1.0;fill-rule:evenodd;stroke:rgb(0, 0, 0);stroke-width:3.0;" d="M 352.522, 533.388 L 354.348, 538.264 L 340.767, 541.815 L 339.737, 529.256 z "/>
<path style="fill:rgb(255, 35, 255);fill-opacity:1.0;fill-rule:evenodd;stroke:rgb(0, 0, 0);stroke-width:3.0;" d="M 787.021, 372.107 L 787.121, 391.921 L 775.858, 383.872 L 780.175, 366.558 L 781.855, 363.152 z "/>
<path style="fill:rgb(223, 154, 18);fill-opacity:1.0;fill-rule:evenodd;stroke:rgb(0, 0, 0);stroke-width:3.0;" d="M 198.429, 17.2663 L 187.04, 39.6873 L 172.706, 26.1164 L 198.714, 9.78947 z "/>
<path style="fill:rgb(223, 154, 18);fill-opacity:1.0;fill-rule:evenodd;stroke:rgb(0, 0, 0);stroke-width:3.0;" d="M 98.6136, 429.303 L 63.5511, 447.634 L 33.3124, 405.256 z "/>
<path style="fill:rgb(237, 136, 18);fill-opacity:1.0;fill-rule:evenodd;stroke:rgb(0, 0, 0);stroke-width:3.0;" d="M 191.001, 43.4377 L 153.328, 98.3546 L 141.889, 92.2872 L 151.883, 20.1412 L 160.77, 14.8148 z "/>
<path style="fill:rgb(237, 136, 18);fill-opacity:1.0;fill-rule:evenodd;stroke:rgb(0, 0, 0);stroke-width:3.0;" d="M 108.084, 133.598 L 107.735, 133.53 L 106.201, 120.148 L 133.661, 117.808 z "/>
<path style="fill:rgb(255, 255, 117);fill-opacity:1.0;fill-rule:evenodd;stroke:rgb(0, 0, 0);stroke-width:3.0;" d="M 257.107, 513.629 L 251.581, 519.685 L 206.192, 513.606 L 205.495, 513.351 L 213.848, 504.128 z "/>
<path style="fill:rgb(255, 255, 117);fill-opacity:1.0;fill-rule:evenodd;stroke:rgb(0, 0, 0);stroke-width:3.0;" d="M 36.2597, 424.991 L 59.7494, 449.508 L 46.6829, 455.245 L 11.2328, 436.682 L 29.4021, 423.799 z "/>
<path style="fill:rgb(255, 255, 117);fill-opacity:1.0;fill-rule:evenodd;stroke:rgb(0, 0, 0);stroke-width:3.0;" d="M 295.119, 44.0877 L 296.542, 54.4899 L 280.927, 61.1848 L 288.829, 43.194 L 294.203, 40.2458 z "/>
<path style="fill:rgb(246, 240, 23);fill-opacity:1.0;fill-rule:evenodd;stroke:rgb(0, 0, 0);stroke-width:3.0;" d="M 406.525, 173.822 L 406.52, 173.884 L 363.755, 169.653 L 376.614, 159.984 z "/>
<path style="fill:rgb(246, 240, 23);fill-opacity:1.0;fill-rule:evenodd;stroke:rgb(0, 0, 0);stroke-width:3.0;" d="M 311.504, 112.848 L 305.049, 133.651 L 295.602, 110.465 L 303.227, 96.4793 L 307.564, 96.3125 z "/>
<path style="fill:rgb(255, 2, 43);fill-opacity:1.0;fill-rule:evenodd;stroke:rgb(0, 0, 0);stroke-width:3.0;" d="M 736, 103.9 L 736.196, 106.838 L 720.07, 102.9 L 719.777, 100.909 L 727.37, 86.6837 z "/>
<path style="fill:rgb(255, 2, 43);fill-opacity:1.0;fill-rule:evenodd;stroke:rgb(0, 0, 0);stroke-width:3.0;" d="M 52.4083, 127.14 L 32.2025, 136.085 L 25.6174, 126.992 L 42.0714, 125.495 z "/>
<path style="fill:rgb(255, 2, 43);fill-opacity:1.0;fill-rule:evenodd;stroke:rgb(0, 0, 0);stroke-width:3.0;" d="M 787.483, 277.004 L 790.203, 288.053 L 793.571, 333.058 L 767.675, 390.932 L 776.422, 276.764 z "/>
<path style="fill:rgb(255, 22, 19);fill-opacity:1.0;fill-rule:evenodd;stroke:rgb(0, 0, 0);stroke-width:3.0;" d="M 278.503, 66.7029 L 275.752, 64.2227 L 274.056, 51.2995 L 288.829, 43.194 z "/>
<path style="fill:rgb(6, 255, 246);fill-opacity:1.0;fill-rule:evenodd;stroke:rgb(0, 0, 0);stroke-width:3.0;" d="M 210.022, 104.407 L 192.346, 102.33 L 192.199, 98.8643 L 211.423, 94.4889 z "/>
<path style="fill:rgb(6, 255, 246);fill-opacity:1.0;fill-rule:evenodd;stroke:rgb(0, 0, 0);stroke-width:3.0;" d="M 23.6571, 128.126 L 19.8166, 135.629 L 5.2336, 134.186 L 23.1364, 122.435 z "/>
<path style="fill:rgb(187, 220, 202);fill-opacity:1.0;fill-rule:evenodd;stroke:rgb(0, 0, 0);stroke-width:3.0;" d="M 471.545, 39.7215 L 413.745, 76.9851 L 414.36, 68.7233 L 467.705, 34.0676 z "/>
<path style="fill:rgb(11, 177, 246);fill-opacity:1.0;fill-rule:evenodd;stroke:rgb(0, 0, 0);stroke-width:3.0;" d="M 536.204, 138.1 L 482.253, 144.833 L 533.443, 110.119 z "/>
<path style="fill:rgb(11, 177, 246);fill-opacity:1.0;fill-rule:evenodd;stroke:rgb(0, 0, 0);stroke-width:3.0;" d="M 728.662, 43.1539 L 725.729, 46.7701 L 714.434, 57.1007 L 720.936, 38.0241 L 725.024, 34.0712 z "/>
<path style="fill:rgb(11, 177, 246);fill-opacity:1.0;fill-rule:evenodd;stroke:rgb(0, 0, 0);stroke-width:3.0;" d="M 781.129, 479.078 L 776.84, 488.734 L 769.843, 441.176 L 770.495, 441.097 z "/>
<path style="fill:rgb(255, 0, 150);fill-opacity:1.0;fill-rule:evenodd;stroke:rgb(0, 0, 0);stroke-width:3.0;" d="M 762.221, 121.102 L 764.612, 127.261 L 760.858, 142.338 L 753.125, 138.064 L 750.463, 132.754 L 756.636, 118.966 z "/>
<path style="fill:rgb(255, 107, 8);fill-opacity:1.0;fill-rule:evenodd;stroke:rgb(0, 0, 0);stroke-width:3.0;" d="M 146.876, 141.163 L 152.624, 142.284 L 156.256, 148.184 L 155.965, 149.097 L 138.041, 147.324 L 128.365, 144.002 L 127.32, 140.565 z "/>
<path style="fill:rgb(255, 107, 8);fill-opacity:1.0;fill-rule:evenodd;stroke:rgb(0, 0, 0);stroke-width:3.0;" d="M 792.574, 377.472 L 794.028, 396.858 L 787.121, 391.921 L 787.029, 373.847 z "/>
<path style="fill:rgb(255, 107, 8);fill-opacity:1.0;fill-rule:evenodd;stroke:rgb(0, 0, 0);stroke-width:3.0;" d="M 444.736, 48.9894 L 433.907, 56.0248 L 431.597, 51.7237 L 443.069, 36.8159 z "/>
<path style="fill:rgb(212, 255, 7);fill-opacity:1.0;fill-rule:evenodd;stroke:rgb(0, 0, 0);stroke-width:3.0;" d="M 310.605, 142.799 L 309.973, 147.142 L 295.545, 151.753 L 295.312, 141.172 z "/>
<path style="fill:rgb(212, 255, 7);fill-opacity:1.0;fill-rule:evenodd;stroke:rgb(0, 0, 0);stroke-width:3.0;" d="M 102.572, 132.523 L 59.5168, 124.127 L 103.19, 120.405 z "/>
<path style="fill:rgb(43, 57, 252);fill-opacity:1.0;fill-rule:evenodd;stroke:rgb(0, 0, 0);stroke-width:3.0;" d="M 225.737, 77.8095 L 224.736, 65.9668 L 291.482, 41.7386 z "/>
<path style="fill:rgb(43, 57, 252);fill-opacity:1.0;fill-rule:evenodd;stroke:rgb(0, 0, 0);stroke-width:3.0;" d="M 334.453, 527.548 L 321.779, 563.719 L 308.556, 559.441 L 308.049, 530.413 L 315.56, 521.442 z "/>
<path style="fill:rgb(82, 35, 231);fill-opacity:1.0;fill-rule:evenodd;stroke:rgb(0, 0, 0);stroke-width:3.0;" d="M 324.303, 579.844 L 324.072, 585.921 L 309.067, 588.783 L 308.788, 572.755 z "/>
<path style="fill:rgb(82, 35, 231);fill-opacity:1.0;fill-rule:evenodd;stroke:rgb(0, 0, 0);stroke-width:3.0;" d="M 420.783, 171.536 L 415.52, 174.774 L 406.52, 173.884 L 413.745, 76.9851 L 445.324, 56.6258 z "/>
<path style="fill:rgb(209, 39, 231);fill-opacity:1.0;fill-rule:evenodd;stroke:rgb(0, 0, 0);stroke-width:3.0;" d="M 774.797, 297.971 L 772.253, 302.535 L 768.463, 303.679 L 769.356, 271.266 L 777.388, 264.157 z "/>
<path style="fill:rgb(209, 39, 231);fill-opacity:1.0;fill-rule:evenodd;stroke:rgb(0, 0, 0);stroke-width:3.0;" d="M 33.3124, 405.256 L 41.0366, 416.081 L 18.2146, 406.157 L 8.64955, 396.174 z "/>
<path style="fill:rgb(209, 39, 231);fill-opacity:1.0;fill-rule:evenodd;stroke:rgb(0, 0, 0);stroke-width:3.0;" d="M 768.178, 314.056 L 767.802, 327.692 L 759.111, 326.251 L 759.432, 306.816 z "/>
<path style="fill:rgb(209, 39, 231);fill-opacity:1.0;fill-rule:evenodd;stroke:rgb(0, 0, 0);stroke-width:3.0;" d="M 602.652, 50.8931 L 568.325, 80.834 L 583.149, 52.1458 L 615.277, 24.4549 z "/>
<path style="fill:rgb(209, 39, 231);fill-opacity:1.0;fill-rule:evenodd;stroke:rgb(0, 0, 0);stroke-width:3.0;" d="M 195.493, 94.4026 L 171.104, 107.783 L 153.328, 98.3546 L 157.868, 91.7356 L 195.832, 85.5052 z "/>
<path style="fill:rgb(255, 24, 194);fill-opacity:1.0;fill-rule:evenodd;stroke:rgb(0, 0, 0);stroke-width:3.0;" d="M 165.918, 110.629 L 156.36, 115.873 L 59.5168, 124.127 L 55.2188, 123.288 L 50.8505, 122.114 L 45.698, 83.7824 L 50.2022, 81.0828 z "/>
<path style="fill:rgb(255, 24, 194);fill-opacity:1.0;fill-rule:evenodd;stroke:rgb(0, 0, 0);stroke-width:3.0;" d="M 195.832, 85.5052 L 157.868, 91.7356 L 197.811, 33.5101 z "/>
<path style="fill:rgb(212, 103, 8);fill-opacity:1.0;fill-rule:evenodd;stroke:rgb(0, 0, 0);stroke-width:3.0;" d="M 213.848, 504.128 L 205.495, 513.351 L 133.051, 486.846 L 133.328, 486.442 z "/>
<path style="fill:rgb(152, 255, 255);fill-opacity:1.0;fill-rule:evenodd;stroke:rgb(0, 0, 0);stroke-width:3.0;" d="M 749.754, 65.3204 L 751.662, 68.3898 L 747.005, 75.9235 L 733.246, 73.916 L 739.184, 61.5193 z "/>
<path style="fill:rgb(217, 199, 13);fill-opacity:1.0;fill-rule:evenodd;stroke:rgb(0, 0, 0);stroke-width:3.0;" d="M 299.899, 162.601 L 284.33, 160.107 L 282.905, 155.793 L 309.545, 147.279 z "/>
<path style="fill:rgb(217, 199, 13);fill-opacity:1.0;fill-rule:evenodd;stroke:rgb(0, 0, 0);stroke-width:3.0;" d="M 238.751, 157.287 L 220.093, 155.441 L 216.594, 154.759 L 240.566, 137.849 L 252.807, 133.627 z "/>
<path style="fill:rgb(140, 14, 255);fill-opacity:1.0;fill-rule:evenodd;stroke:rgb(0, 0, 0);stroke-width:3.0;" d="M 390.17, 78.6692 L 392.888, 91.6246 L 375.364, 77.3672 L 383.589, 75.8986 z "/>
<path style="fill:rgb(255, 234, 17);fill-opacity:1.0;fill-rule:evenodd;stroke:rgb(0, 0, 0);stroke-width:3.0;" d="M 558.792, 93.544 L 558.593, 99.6694 L 553.006, 110.483 L 547.758, 109.015 L 550.622, 92.3221 L 551.311, 91.7148 z "/>
<path style="fill:rgb(255, 255, 40);fill-opacity:1.0;fill-rule:evenodd;stroke:rgb(0, 0, 0);stroke-width:3.0;" d="M 304.709, 84.3331 L 277.258, 110.795 L 240.546, 118.258 L 240.299, 117.697 L 256.643, 88.311 L 302.799, 76.3165 z "/>
<path style="fill:rgb(255, 255, 7);fill-opacity:1.0;fill-rule:evenodd;stroke:rgb(0, 0, 0);stroke-width:3.0;" d="M 151.712, 21.374 L 139.438, 39.6625 L 130.267, 33.0962 L 151.883, 20.1412 z "/>
<path style="fill:rgb(255, 255, 7);fill-opacity:1.0;fill-rule:evenodd;stroke:rgb(0, 0, 0);stroke-width:3.0;" d="M 627.488, 40.6988 L 618.723, 87.8944 L 580.359, 97.5781 L 609.8, 35.9242 z "/>
<path style="fill:rgb(255, 255, 7);fill-opacity:1.0;fill-rule:evenodd;stroke:rgb(0, 0, 0);stroke-width:3.0;" d="M 760.938, 109.356 L 750.463, 132.754 L 747.747, 127.335 L 755.57, 104.419 z "/>
<path style="fill:rgb(255, 255, 7);fill-opacity:1.0;fill-rule:evenodd;stroke:rgb(0, 0, 0);stroke-width:3.0;" d="M 240.299, 117.697 L 230.365, 95.1398 L 256.643, 88.311 z "/>
<path style="fill:rgb(255, 17, 189);fill-opacity:1.0;fill-rule:evenodd;stroke:rgb(0, 0, 0);stroke-width:3.0;" d="M 352.522, 533.388 L 323.683, 524.067 L 342.485, 506.583 z "/>
<path style="fill:rgb(32, 37, 215);fill-opacity:1.0;fill-rule:evenodd;stroke:rgb(0, 0, 0);stroke-width:3.0;" d="M 601.684, 179.651 L 591.216, 192.155 L 590.277, 192.063 L 568.432, 122.556 L 580.359, 97.5781 L 618.723, 87.8944 z "/>
<path style="fill:rgb(32, 37, 215);fill-opacity:1.0;fill-rule:evenodd;stroke:rgb(0, 0, 0);stroke-width:3.0;" d="M 411.523, 106.787 L 409.384, 135.467 L 401.911, 131.998 L 376.244, 100.532 L 377.426, 79.0447 z "/>
<path style="fill:rgb(255, 249, 24);fill-opacity:1.0;fill-rule:evenodd;stroke:rgb(0, 0, 0);stroke-width:3.0;" d="M 377.426, 79.0447 L 376.244, 100.532 L 321.8, 33.7863 z "/>
<path style="fill:rgb(255, 172, 8);fill-opacity:1.0;fill-rule:evenodd;stroke:rgb(0, 0, 0);stroke-width:3.0;" d="M 302.025, 73.0705 L 287.4, 80.3181 L 284.815, 80.9898 L 296.234, 59.9142 L 298.466, 58.1366 z "/>
<path style="fill:rgb(255, 172, 8);fill-opacity:1.0;fill-rule:evenodd;stroke:rgb(0, 0, 0);stroke-width:3.0;" d="M 271.677, 66.0753 L 235.316, 89.2253 L 230.031, 75.4535 L 272.392, 52.2122 z "/>
<path style="fill:rgb(8, 159, 255);fill-opacity:1.0;fill-rule:evenodd;stroke:rgb(0, 0, 0);stroke-width:3.0;" d="M 308.203, 539.21 L 304.355, 548.99 L 294.607, 558.817 L 293.939, 547.269 L 308.049, 530.413 z "/>
<path style="fill:rgb(8, 159, 255);fill-opacity:1.0;fill-rule:evenodd;stroke:rgb(0, 0, 0);stroke-width:3.0;" d="M 294.938, 546.075 L 260.968, 586.655 L 231.941, 557.447 L 257.617, 532.421 z "/>
<path style="fill:rgb(8, 159, 255);fill-opacity:1.0;fill-rule:evenodd;stroke:rgb(0, 0, 0);stroke-width:3.0;" d="M 545.67, 121.188 L 544.115, 130.25 L 535.852, 134.533 L 534.012, 115.885 L 536.694, 109.018 z "/>
<path style="fill:rgb(8, 159, 255);fill-opacity:1.0;fill-rule:evenodd;stroke:rgb(0, 0, 0);stroke-width:3.0;" d="M 144.875, 70.7269 L 121.806, 80.5191 L 145.523, 46.9933 L 148.602, 43.823 z "/>
<path style="fill:rgb(8, 159, 255);fill-opacity:1.0;fill-rule:evenodd;stroke:rgb(0, 0, 0);stroke-width:3.0;" d="M 171.104, 107.783 L 165.918, 110.629 L 110.165, 96.3933 L 108.431, 74.5413 z "/>
<path style="fill:rgb(223, 94, 6);fill-opacity:1.0;fill-rule:evenodd;stroke:rgb(0, 0, 0);stroke-width:3.0;" d="M 763.666, 46.3294 L 753.98, 53.6285 L 748.098, 54.3293 L 744.288, 46.7358 L 746.656, 44.9632 z "/>
<path style="fill:rgb(223, 94, 6);fill-opacity:1.0;fill-rule:evenodd;stroke:rgb(0, 0, 0);stroke-width:3.0;" d="M 469.235, 153.662 L 435.227, 176.724 L 418.748, 175.094 L 465.072, 146.386 z "/>
<path style="fill:rgb(22, 130, 252);fill-opacity:1.0;fill-rule:evenodd;stroke:rgb(0, 0, 0);stroke-width:3.0;" d="M 549.428, 99.2788 L 469.235, 153.662 L 465.072, 146.386 L 550.42, 93.4956 z "/>
<path style="fill:rgb(252, 152, 163);fill-opacity:1.0;fill-rule:evenodd;stroke:rgb(0, 0, 0);stroke-width:3.0;" d="M 365.799, 577.959 L 333.616, 584.1 L 320.145, 577.944 L 325.181, 564.819 z "/>
<path style="fill:rgb(252, 152, 163);fill-opacity:1.0;fill-rule:evenodd;stroke:rgb(0, 0, 0);stroke-width:3.0;" d="M 276.681, 136.962 L 279.737, 146.21 L 257.852, 151.821 L 257.632, 151.069 L 265.407, 133.802 z "/>
<path style="fill:rgb(252, 152, 163);fill-opacity:1.0;fill-rule:evenodd;stroke:rgb(0, 0, 0);stroke-width:3.0;" d="M 172.622, 456.555 L 143.425, 476.597 L 139.62, 477.27 L 157.619, 451.031 z "/>
<path style="fill:rgb(252, 152, 163);fill-opacity:1.0;fill-rule:evenodd;stroke:rgb(0, 0, 0);stroke-width:3.0;" d="M 240.476, 137.912 L 216.594, 154.759 L 180.787, 147.776 L 211.998, 134.396 z "/>
<path style="fill:rgb(255, 252, 78);fill-opacity:1.0;fill-rule:evenodd;stroke:rgb(0, 0, 0);stroke-width:3.0;" d="M 49.7878, 492.238 L 15.9074, 543.258 L 20.0227, 492.107 z "/>
<path style="fill:rgb(255, 252, 78);fill-opacity:1.0;fill-rule:evenodd;stroke:rgb(0, 0, 0);stroke-width:3.0;" d="M 476.805, 19.9764 L 458.722, 36.3273 L 449.765, 42.0264 L 448.416, 11.2334 z "/>
<path style="fill:rgb(243, 255, 32);fill-opacity:1.0;fill-rule:evenodd;stroke:rgb(0, 0, 0);stroke-width:3.0;" d="M 41.0366, 416.081 L 63.5511, 447.634 L 59.8225, 449.584 L 18.2146, 406.157 z "/>
<path style="fill:rgb(240, 226, 24);fill-opacity:1.0;fill-rule:evenodd;stroke:rgb(0, 0, 0);stroke-width:3.0;" d="M 764.77, 39.5167 L 765.725, 45.6419 L 765.222, 46.4544 L 743.261, 44.6905 L 741.858, 41.8949 L 748.554, 34.176 z "/>
<path style="fill:rgb(255, 43, 10);fill-opacity:1.0;fill-rule:evenodd;stroke:rgb(0, 0, 0);stroke-width:3.0;" d="M 177.088, 130.086 L 180.986, 147.69 L 180.787, 147.776 L 133.199, 138.496 L 140.989, 125.63 z "/>
<path style="fill:rgb(249, 255, 16);fill-opacity:1.0;fill-rule:evenodd;stroke:rgb(0, 0, 0);stroke-width:3.0;" d="M 143.756, 78.8078 L 142.742, 86.1283 L 130.016, 85.9899 L 124.24, 82.9262 L 124.191, 81.6749 L 134.05, 77.3754 z "/>
<path style="fill:rgb(249, 255, 16);fill-opacity:1.0;fill-rule:evenodd;stroke:rgb(0, 0, 0);stroke-width:3.0;" d="M 157.619, 451.031 L 118.079, 508.672 L 64.0258, 470.797 L 87.8404, 434.935 L 98.6136, 429.303 z "/>
<path style="fill:rgb(249, 70, 10);fill-opacity:1.0;fill-rule:evenodd;stroke:rgb(0, 0, 0);stroke-width:3.0;" d="M 770.987, 79.4226 L 753.886, 76.9275 L 747.434, 75.2295 L 754.673, 63.5195 L 767.566, 57.4661 z "/>
<path style="fill:rgb(255, 27, 252);fill-opacity:1.0;fill-rule:evenodd;stroke:rgb(0, 0, 0);stroke-width:3.0;" d="M 51.8369, 29.8892 L 38.165, 38.2405 L 34.8249, 20.0494 L 41.3173, 15.6671 z "/>
<path style="fill:rgb(255, 27, 252);fill-opacity:1.0;fill-rule:evenodd;stroke:rgb(0, 0, 0);stroke-width:3.0;" d="M 121.806, 80.5191 L 120.637, 81.0153 L 115.249, 78.1574 L 145.523, 46.9933 z "/>
<path style="fill:rgb(255, 27, 252);fill-opacity:1.0;fill-rule:evenodd;stroke:rgb(0, 0, 0);stroke-width:3.0;" d="M 193.803, 132.15 L 198.168, 140.325 L 180.986, 147.69 L 177.088, 130.086 z "/>
<path style="fill:rgb(255, 19, 33);fill-opacity:1.0;fill-rule:evenodd;stroke:rgb(0, 0, 0);stroke-width:3.0;" d="M 325.181, 564.819 L 320.145, 577.944 L 308.788, 572.755 L 308.766, 571.525 L 317.221, 562.244 z "/>
<path style="fill:rgb(255, 19, 33);fill-opacity:1.0;fill-rule:evenodd;stroke:rgb(0, 0, 0);stroke-width:3.0;" d="M 596.998, 25.3435 L 573.955, 69.9383 L 555.79, 62.1949 L 557.205, 53.9482 L 592.79, 16.3234 z "/>
<path style="fill:rgb(255, 150, 255);fill-opacity:1.0;fill-rule:evenodd;stroke:rgb(0, 0, 0);stroke-width:3.0;" d="M 784.085, 139.558 L 789.767, 165.123 L 783.737, 161.273 L 779.326, 132.958 z "/>
<path style="fill:rgb(255, 202, 24);fill-opacity:1.0;fill-rule:evenodd;stroke:rgb(0, 0, 0);stroke-width:3.0;" d="M 81.1012, 128.336 L 81.273, 131.732 L 42.6608, 125.589 L 49.515, 122.176 z "/>
<path style="fill:rgb(255, 170, 41);fill-opacity:1.0;fill-rule:evenodd;stroke:rgb(0, 0, 0);stroke-width:3.0;" d="M 305.273, 505.403 L 268.514, 516.135 L 133.328, 486.442 L 139.62, 477.27 L 199.906, 466.602 z "/>
<path style="fill:rgb(255, 170, 41);fill-opacity:1.0;fill-rule:evenodd;stroke:rgb(0, 0, 0);stroke-width:3.0;" d="M 32.1949, 464.029 L 16.5516, 472.208 L 11.3521, 466.744 L 21.3138, 448.779 z "/>
<path style="fill:rgb(177, 255, 228);fill-opacity:1.0;fill-rule:evenodd;stroke:rgb(0, 0, 0);stroke-width:3.0;" d="M 113.099, 74.8819 L 112.717, 76.8144 L 83.3305, 61.2276 L 104.962, 48.2627 z "/>
<path style="fill:rgb(138, 255, 255);fill-opacity:1.0;fill-rule:evenodd;stroke:rgb(0, 0, 0);stroke-width:3.0;" d="M 767.802, 327.692 L 767.157, 351.105 L 759.518, 348.288 L 758.812, 344.268 L 759.111, 326.251 z "/>
<path style="fill:rgb(255, 2, 71);fill-opacity:1.0;fill-rule:evenodd;stroke:rgb(0, 0, 0);stroke-width:3.0;" d="M 408.996, 140.683 L 406.525, 173.822 L 376.614, 159.984 L 406.443, 137.554 z "/>
<path style="fill:rgb(255, 2, 71);fill-opacity:1.0;fill-rule:evenodd;stroke:rgb(0, 0, 0);stroke-width:3.0;" d="M 431.289, 18.1272 L 428.311, 28.2633 L 421.71, 29.4931 L 417.538, 26.1052 L 419.104, 5.09187 z "/>
<path style="fill:rgb(41, 255, 237);fill-opacity:1.0;fill-rule:evenodd;stroke:rgb(0, 0, 0);stroke-width:3.0;" d="M 538.601, 162.395 L 534.458, 186.541 L 435.227, 176.724 L 482.253, 144.833 L 536.204, 138.1 z "/>
<path style="fill:rgb(255, 161, 7);fill-opacity:1.0;fill-rule:evenodd;stroke:rgb(0, 0, 0);stroke-width:3.0;" d="M 270.72, 84.6529 L 247.708, 90.633 L 241.006, 85.6028 L 271.677, 66.0753 z "/>
<path style="fill:rgb(255, 161, 7);fill-opacity:1.0;fill-rule:evenodd;stroke:rgb(0, 0, 0);stroke-width:3.0;" d="M 312.005, 525.688 L 294.938, 546.075 L 280.48, 540.786 L 285.997, 519.975 z "/>
<path style="fill:rgb(255, 105, 146);fill-opacity:1.0;fill-rule:evenodd;stroke:rgb(0, 0, 0);stroke-width:3.0;" d="M 729.82, 62.999 L 731.511, 73.6628 L 720.36, 72.0358 L 717.774, 69.6569 L 727.457, 58.4947 z "/>
<path style="fill:rgb(252, 16, 42);fill-opacity:1.0;fill-rule:evenodd;stroke:rgb(0, 0, 0);stroke-width:3.0;" d="M 356.508, 62.0254 L 326.567, 37.6644 L 357.747, 12.6348 z "/>
<path style="fill:rgb(240, 182, 19);fill-opacity:1.0;fill-rule:evenodd;stroke:rgb(0, 0, 0);stroke-width:3.0;" d="M 234.142, 14.5915 L 215.027, 83.6853 L 195.493, 94.4026 L 198.83, 6.73646 z "/>
<path style="fill:rgb(255, 124, 255);fill-opacity:1.0;fill-rule:evenodd;stroke:rgb(0, 0, 0);stroke-width:3.0;" d="M 785.397, 439.959 L 782.984, 474.903 L 781.129, 479.078 L 777.869, 467.433 L 775.432, 440.497 L 783.979, 439.46 z "/>
<path style="fill:rgb(7, 168, 255);fill-opacity:1.0;fill-rule:evenodd;stroke:rgb(0, 0, 0);stroke-width:3.0;" d="M 568.432, 122.556 L 560.238, 96.4857 L 568.325, 80.834 L 602.652, 50.8931 z "/>
<path style="fill:rgb(7, 168, 255);fill-opacity:1.0;fill-rule:evenodd;stroke:rgb(0, 0, 0);stroke-width:3.0;" d="M 750.448, 22.0691 L 750.426, 22.7985 L 737.001, 34.5799 L 735.653, 34.5759 L 731.807, 26.6602 L 742.022, 21.4391 z "/>
<path style="fill:rgb(255, 7, 8);fill-opacity:1.0;fill-rule:evenodd;stroke:rgb(0, 0, 0);stroke-width:3.0;" d="M 205.894, 133.643 L 193.608, 132.126 L 192.616, 108.701 L 210.02, 104.419 z "/>
<path style="fill:rgb(234, 69, 14);fill-opacity:1.0;fill-rule:evenodd;stroke:rgb(0, 0, 0);stroke-width:3.0;" d="M 754.635, 337.816 L 434.367, 379.52 L 711.977, 47.8999 z "/>
<path style="fill:rgb(255, 39, 119);fill-opacity:1.0;fill-rule:evenodd;stroke:rgb(0, 0, 0);stroke-width:3.0;" d="M 18.1813, 78.4955 L 19.1116, 88.7476 L 7.01568, 66.2923 L 5.09138, 59.6882 L 10.2959, 58.5606 z "/>
<path style="fill:rgb(255, 39, 119);fill-opacity:1.0;fill-rule:evenodd;stroke:rgb(0, 0, 0);stroke-width:3.0;" d="M 367.578, 573.594 L 368.985, 577.352 L 365.799, 577.959 L 343.131, 570.626 L 342.382, 561.497 z "/>
<path style="fill:rgb(19, 237, 255);fill-opacity:1.0;fill-rule:evenodd;stroke:rgb(0, 0, 0);stroke-width:3.0;" d="M 73.626, 16.5795 L 51.8369, 29.8892 L 41.3173, 15.6671 L 56.0812, 5.70166 z "/>
<path style="fill:rgb(7, 255, 215);fill-opacity:1.0;fill-rule:evenodd;stroke:rgb(0, 0, 0);stroke-width:3.0;" d="M 180.121, 21.4619 L 172.706, 26.1164 L 160.77, 14.8148 L 164.139, 12.7957 L 170.81, 9.47533 z "/>
<path style="fill:rgb(7, 255, 215);fill-opacity:1.0;fill-rule:evenodd;stroke:rgb(0, 0, 0);stroke-width:3.0;" d="M 193.608, 132.126 L 153.964, 127.232 L 192.082, 98.8911 L 192.199, 98.8643 z "/>
<path style="fill:rgb(231, 199, 255);fill-opacity:1.0;fill-rule:evenodd;stroke:rgb(0, 0, 0);stroke-width:3.0;" d="M 343.131, 570.626 L 321.779, 563.719 L 330.203, 539.679 L 340.354, 536.785 z "/>
<path style="fill:rgb(231, 199, 255);fill-opacity:1.0;fill-rule:evenodd;stroke:rgb(0, 0, 0);stroke-width:3.0;" d="M 153.964, 127.232 L 139.02, 125.387 L 183.931, 100.746 L 192.082, 98.8911 z "/>
<path style="fill:rgb(255, 255, 47);fill-opacity:1.0;fill-rule:evenodd;stroke:rgb(0, 0, 0);stroke-width:3.0;" d="M 334.57, 504.723 L 334.119, 514.362 L 323.683, 524.067 L 315.56, 521.442 L 329.65, 504.61 z "/>
<path style="fill:rgb(228, 255, 10);fill-opacity:1.0;fill-rule:evenodd;stroke:rgb(0, 0, 0);stroke-width:3.0;" d="M 197.811, 33.5101 L 191.001, 43.4377 L 187.04, 39.6873 L 198.429, 17.2663 z "/>
<path style="fill:rgb(215, 3, 17);fill-opacity:1.0;fill-rule:evenodd;stroke:rgb(0, 0, 0);stroke-width:3.0;" d="M 768.652, 296.82 L 768.566, 299.973 L 768.385, 300.215 L 761.037, 302.656 L 759.51, 302.131 L 759.836, 282.473 z "/>
<path style="fill:rgb(220, 47, 220);fill-opacity:1.0;fill-rule:evenodd;stroke:rgb(0, 0, 0);stroke-width:3.0;" d="M 270.162, 117.239 L 264.518, 135.778 L 257.632, 151.069 L 252.615, 133.95 L 257.32, 126.03 L 270.09, 117.022 z "/>
<path style="fill:rgb(255, 21, 58);fill-opacity:1.0;fill-rule:evenodd;stroke:rgb(0, 0, 0);stroke-width:3.0;" d="M 95.5647, 44.9488 L 72.4111, 67.772 L 46.4448, 83.3348 L 38.165, 38.2405 L 43.1458, 35.198 z "/>
<path style="fill:rgb(240, 6, 117);fill-opacity:1.0;fill-rule:evenodd;stroke:rgb(0, 0, 0);stroke-width:3.0;" d="M 283.696, 161.733 L 245.902, 157.995 L 270.791, 153.539 z "/>
<path style="fill:rgb(255, 15, 124);fill-opacity:1.0;fill-rule:evenodd;stroke:rgb(0, 0, 0);stroke-width:3.0;" d="M 538.601, 162.395 L 535.852, 134.533 L 544.115, 130.25 z "/>
<path style="fill:rgb(228, 130, 105);fill-opacity:1.0;fill-rule:evenodd;stroke:rgb(0, 0, 0);stroke-width:3.0;" d="M 323.399, 512.078 L 312.005, 525.688 L 268.514, 516.135 L 305.273, 505.403 z "/>
<path style="fill:rgb(228, 130, 105);fill-opacity:1.0;fill-rule:evenodd;stroke:rgb(0, 0, 0);stroke-width:3.0;" d="M 245.033, 128.445 L 247.134, 133.216 L 245.345, 134.478 L 230.24, 136.648 L 205.894, 133.643 L 211.423, 94.4889 L 224.937, 91.4129 z "/>
<path style="fill:rgb(228, 130, 105);fill-opacity:1.0;fill-rule:evenodd;stroke:rgb(0, 0, 0);stroke-width:3.0;" d="M 443.069, 36.8159 L 431.017, 52.4776 L 435.095, 26.9991 L 441.56, 25.7946 z "/>
<path style="fill:rgb(228, 130, 105);fill-opacity:1.0;fill-rule:evenodd;stroke:rgb(0, 0, 0);stroke-width:3.0;" d="M 42.865, 453.246 L 27.9339, 458.057 L 21.3138, 448.779 L 24.2437, 443.495 z "/>
<path style="fill:rgb(255, 0, 10);fill-opacity:1.0;fill-rule:evenodd;stroke:rgb(0, 0, 0);stroke-width:3.0;" d="M 116.144, 59.475 L 106.285, 52.5885 L 104.962, 48.2627 L 120.161, 39.1534 z "/>
<path style="fill:rgb(255, 0, 10);fill-opacity:1.0;fill-rule:evenodd;stroke:rgb(0, 0, 0);stroke-width:3.0;" d="M 321.644, 165.487 L 311.906, 164.524 L 299.899, 162.601 L 309.545, 147.279 L 313.243, 146.096 z "/>
<path style="fill:rgb(194, 15, 128);fill-opacity:1.0;fill-rule:evenodd;stroke:rgb(0, 0, 0);stroke-width:3.0;" d="M 755.57, 104.419 L 747.747, 127.335 L 739.77, 111.422 L 744.187, 93.9502 z "/>
<path style="fill:rgb(220, 1, 255);fill-opacity:1.0;fill-rule:evenodd;stroke:rgb(0, 0, 0);stroke-width:3.0;" d="M 232.871, 82.8535 L 236.931, 93.4334 L 230.365, 95.1398 L 223.317, 79.1369 L 225.649, 77.8577 z "/>
<path style="fill:rgb(255, 252, 25);fill-opacity:1.0;fill-rule:evenodd;stroke:rgb(0, 0, 0);stroke-width:3.0;" d="M 577.247, 32.7576 L 557.205, 53.9482 L 561.223, 30.526 L 568.087, 15.233 z "/>
<path style="fill:rgb(246, 18, 197);fill-opacity:1.0;fill-rule:evenodd;stroke:rgb(0, 0, 0);stroke-width:3.0;" d="M 251.581, 519.685 L 244.38, 527.578 L 238.052, 525.262 L 233.042, 517.202 z "/>
<path style="fill:rgb(255, 74, 26);fill-opacity:1.0;fill-rule:evenodd;stroke:rgb(0, 0, 0);stroke-width:3.0;" d="M 285.997, 519.975 L 280.48, 540.786 L 251.852, 530.311 L 255.087, 515.843 L 257.107, 513.629 z "/>
<path style="fill:rgb(59, 86, 199);fill-opacity:1.0;fill-rule:evenodd;stroke:rgb(0, 0, 0);stroke-width:3.0;" d="M 776.196, 150.462 L 779.295, 164.941 L 771.773, 168.811 L 768.021, 163.252 L 775.622, 150.076 z "/>
<path style="fill:rgb(7, 252, 79);fill-opacity:1.0;fill-rule:evenodd;stroke:rgb(0, 0, 0);stroke-width:3.0;" d="M 199.906, 466.602 L 152.76, 474.945 L 152.603, 470.297 L 172.622, 456.555 z "/>
</svg>