<?xml version="1.0" encoding="iso-8859-1" standalone="no"?>
<!DOCTYPE svg PUBLIC "-//W3C//DTD SVG 1.0//EN" "http://www.w3.org/TR/2001/REC-SVG-20010904/DTD/svg10.dtd">
<svg xmlns="http://www.w3.org/2000/svg" width="800" height="600">
<path style="fill:rgb(0, 0, 0);fill-opacity:0.0;fill-rule:evenodd;stroke:rgb(0, 0, 0);stroke-width:0.0;" d="M 0, 600 L 800, 600 L 800, 0 L 0, 0 z "/>
<path style="fill:rgb(179, 255, 81);fill-opacity:1.0;fill-rule:evenodd;stroke:rgb(0, 0, 0);stroke-width:3.0;" d="M 260.192, 480.623 L 239.939, 474.174 L 246.328, 467.383 L 253.621, 464.204 z "/>
<path style="fill:rgb(179, 255, 81);fill-opacity:1.0;fill-rule:evenodd;stroke:rgb(0, 0, 0);stroke-width:3.0;" d="M 114.123, 143.303 L 117.284, 173.591 L 114.262, 173.818 L 97.3674, 145.989 L 112.661, 138.782 z "/>
<path style="fill:rgb(179, 255, 81);fill-opacity:1.0;fill-rule:evenodd;stroke:rgb(0, 0, 0);stroke-width:3.0;" d="M 344.195, 541.757 L 291.068, 518.393 L 292.193, 516.494 L 345.202, 501.562 z "/>
<path style="fill:rgb(179, 255, 81);fill-opacity:1.0;fill-rule:evenodd;stroke:rgb(0, 0, 0);stroke-width:3.0;" d="M 512.907, 534.71 L 506.15, 549.912 L 486.052, 528.543 L 510.774, 528.038 z "/>
<path style="fill:rgb(182, 105, 255);fill-opacity:1.0;fill-rule:evenodd;stroke:rgb(0, 0, 0);stroke-width:3.0;" d="M 504.746, 528.161 L 474.809, 528.772 L 474.521, 528.54 L 495.543, 517.833 z "/>
<path style="fill:rgb(237, 115, 11);fill-opacity:1.0;fill-rule:evenodd;stroke:rgb(0, 0, 0);stroke-width:3.0;" d="M 276.076, 307.316 L 169.528, 337.277 L 273.569, 257.213 z "/>
<path style="fill:rgb(79, 197, 179);fill-opacity:1.0;fill-rule:evenodd;stroke:rgb(0, 0, 0);stroke-width:3.0;" d="M 91.9073, 366.849 L 32.396, 316.324 L 26.8879, 292.456 L 43.8006, 288.439 z "/>
<path style="fill:rgb(79, 197, 179);fill-opacity:1.0;fill-rule:evenodd;stroke:rgb(0, 0, 0);stroke-width:3.0;" d="M 131.94, 51.9535 L 129.761, 77.0775 L 124.81, 72.1155 L 126.919, 51.7627 z "/>
<path style="fill:rgb(79, 197, 179);fill-opacity:1.0;fill-rule:evenodd;stroke:rgb(0, 0, 0);stroke-width:3.0;" d="M 378.442, 114.241 L 386.888, 140.65 L 373.816, 137.211 L 372.461, 114.794 L 375.054, 110.15 z "/>
<path style="fill:rgb(79, 197, 179);fill-opacity:1.0;fill-rule:evenodd;stroke:rgb(0, 0, 0);stroke-width:3.0;" d="M 395.43, 561.404 L 389.358, 571.916 L 370.049, 581.75 L 356.879, 564.877 L 379.466, 551.454 z "/>
<path style="fill:rgb(172, 0, 37);fill-opacity:1.0;fill-rule:evenodd;stroke:rgb(0, 0, 0);stroke-width:3.0;" d="M 120.684, 266.864 L 53.7462, 276.738 L 50.9587, 274.072 L 50.7938, 262.593 L 119.185, 261.571 z "/>
<path style="fill:rgb(172, 0, 37);fill-opacity:1.0;fill-rule:evenodd;stroke:rgb(0, 0, 0);stroke-width:3.0;" d="M 48.692, 173.039 L 49.3124, 201.807 L 18.943, 245.687 L 30.0648, 166.919 z "/>
<path style="fill:rgb(255, 152, 11);fill-opacity:1.0;fill-rule:evenodd;stroke:rgb(0, 0, 0);stroke-width:3.0;" d="M 249.269, 354.919 L 178.069, 338.377 L 178.018, 334.89 L 237.814, 318.075 z "/>
<path style="fill:rgb(255, 152, 11);fill-opacity:1.0;fill-rule:evenodd;stroke:rgb(0, 0, 0);stroke-width:3.0;" d="M 95.4764, 122.679 L 83.1129, 134.145 L 77.8317, 115.49 z "/>
<path style="fill:rgb(255, 152, 11);fill-opacity:1.0;fill-rule:evenodd;stroke:rgb(0, 0, 0);stroke-width:3.0;" d="M 467.072, 312.577 L 440.315, 307.715 L 429.446, 273.73 z "/>
<path style="fill:rgb(255, 152, 11);fill-opacity:1.0;fill-rule:evenodd;stroke:rgb(0, 0, 0);stroke-width:3.0;" d="M 489.324, 460.964 L 422.705, 479.73 L 441.2, 310.484 z "/>
<path style="fill:rgb(207, 12, 255);fill-opacity:1.0;fill-rule:evenodd;stroke:rgb(0, 0, 0);stroke-width:3.0;" d="M 154.399, 153.266 L 149.804, 156.007 L 103.303, 128.273 L 121.37, 103.289 z "/>
<path style="fill:rgb(207, 12, 255);fill-opacity:1.0;fill-rule:evenodd;stroke:rgb(0, 0, 0);stroke-width:3.0;" d="M 22.1901, 175.986 L 7.52827, 208.566 L 6.93211, 205.982 L 6.57869, 166.853 L 10.2308, 166.766 z "/>
<path style="fill:rgb(207, 12, 255);fill-opacity:1.0;fill-rule:evenodd;stroke:rgb(0, 0, 0);stroke-width:3.0;" d="M 295.744, 240.147 L 169.528, 337.277 L 142.749, 344.807 L 109.535, 227.48 L 163.279, 214.698 z "/>
<path style="fill:rgb(255, 43, 255);fill-opacity:1.0;fill-rule:evenodd;stroke:rgb(0, 0, 0);stroke-width:3.0;" d="M 431.729, 280.868 L 388.379, 354.07 L 276.54, 377.591 L 358.787, 284.058 L 426.647, 264.975 z "/>
<path style="fill:rgb(237, 255, 69);fill-opacity:1.0;fill-rule:evenodd;stroke:rgb(0, 0, 0);stroke-width:3.0;" d="M 140.326, 46.7188 L 140.393, 47.157 L 116.529, 29.3214 L 124.728, 21.8727 z "/>
<path style="fill:rgb(217, 2, 255);fill-opacity:1.0;fill-rule:evenodd;stroke:rgb(0, 0, 0);stroke-width:3.0;" d="M 490.937, 517.51 L 486.545, 522.416 L 484.219, 523.6 L 478.461, 523.947 L 478.363, 523.917 L 474.109, 515.927 L 489.744, 511.634 z "/>
<path style="fill:rgb(217, 2, 255);fill-opacity:1.0;fill-rule:evenodd;stroke:rgb(0, 0, 0);stroke-width:3.0;" d="M 164.747, 375.49 L 162.553, 381.213 L 157.29, 376.542 L 165.385, 338.442 L 170.799, 336.92 z "/>
<path style="fill:rgb(217, 2, 255);fill-opacity:1.0;fill-rule:evenodd;stroke:rgb(0, 0, 0);stroke-width:3.0;" d="M 39.6282, 549.722 L 31.5288, 556.184 L 17.1148, 556.258 L 25.6827, 538.554 z "/>
<path style="fill:rgb(217, 2, 255);fill-opacity:1.0;fill-rule:evenodd;stroke:rgb(0, 0, 0);stroke-width:3.0;" d="M 473.515, 576.175 L 416.141, 588.897 L 409.163, 563.647 L 409.846, 561.48 L 426.401, 553.049 z "/>
<path style="fill:rgb(252, 24, 194);fill-opacity:1.0;fill-rule:evenodd;stroke:rgb(0, 0, 0);stroke-width:3.0;" d="M 760.715, 96.1438 L 715.426, 95.1459 L 769.888, 36.2368 L 778.614, 33.465 z "/>
<path style="fill:rgb(252, 24, 194);fill-opacity:1.0;fill-rule:evenodd;stroke:rgb(0, 0, 0);stroke-width:3.0;" d="M 49.3124, 201.807 L 48.9269, 183.932 L 57.3528, 165.65 L 74.62, 165.241 z "/>
<path style="fill:rgb(59, 3, 144);fill-opacity:1.0;fill-rule:evenodd;stroke:rgb(0, 0, 0);stroke-width:3.0;" d="M 334.785, 563.892 L 338.091, 566.313 L 297.949, 564.292 L 311.217, 560.649 z "/>
<path style="fill:rgb(59, 3, 144);fill-opacity:1.0;fill-rule:evenodd;stroke:rgb(0, 0, 0);stroke-width:3.0;" d="M 64.8477, 456.945 L 28.7088, 456.107 L 39.0076, 344.973 z "/>
<path style="fill:rgb(59, 3, 144);fill-opacity:1.0;fill-rule:evenodd;stroke:rgb(0, 0, 0);stroke-width:3.0;" d="M 245.962, 219.941 L 230.389, 227.591 L 193.297, 220.465 L 187.237, 212.554 z "/>
<path style="fill:rgb(59, 3, 144);fill-opacity:1.0;fill-rule:evenodd;stroke:rgb(0, 0, 0);stroke-width:3.0;" d="M 392.082, 166.011 L 379.534, 175.667 L 373.448, 173.543 L 363.343, 167.116 L 385.742, 161.789 z "/>
<path style="fill:rgb(59, 3, 144);fill-opacity:1.0;fill-rule:evenodd;stroke:rgb(0, 0, 0);stroke-width:3.0;" d="M 262.114, 567.286 L 251.263, 585.611 L 258.215, 550.367 z "/>
<path style="fill:rgb(249, 215, 59);fill-opacity:1.0;fill-rule:evenodd;stroke:rgb(0, 0, 0);stroke-width:3.0;" d="M 331.915, 73.0336 L 328.283, 82.7544 L 302.806, 75.5462 L 325.361, 58.7808 z "/>
<path style="fill:rgb(22, 11, 255);fill-opacity:1.0;fill-rule:evenodd;stroke:rgb(0, 0, 0);stroke-width:3.0;" d="M 386.888, 140.65 L 393.089, 160.041 L 174.712, 211.979 L 202.676, 92.1927 z "/>
<path style="fill:rgb(255, 4, 27);fill-opacity:1.0;fill-rule:evenodd;stroke:rgb(0, 0, 0);stroke-width:3.0;" d="M 115.154, 541.631 L 99.9222, 559.825 L 98.7625, 559.474 L 94.3921, 548.583 L 107.387, 538.202 z "/>
<path style="fill:rgb(10, 226, 255);fill-opacity:1.0;fill-rule:evenodd;stroke:rgb(0, 0, 0);stroke-width:3.0;" d="M 399.996, 553.501 L 391.9, 544.065 L 409.313, 533.716 L 411.823, 533.027 z "/>
<path style="fill:rgb(88, 38, 255);fill-opacity:1.0;fill-rule:evenodd;stroke:rgb(0, 0, 0);stroke-width:3.0;" d="M 329.363, 283.086 L 323.743, 287.369 L 275.103, 287.87 L 274.645, 278.727 L 326.096, 267.286 z "/>
<path style="fill:rgb(88, 38, 255);fill-opacity:1.0;fill-rule:evenodd;stroke:rgb(0, 0, 0);stroke-width:3.0;" d="M 186.405, 161.889 L 174.712, 211.979 L 166.12, 214.022 L 159.6, 171.734 L 185.496, 159.01 z "/>
<path style="fill:rgb(88, 38, 255);fill-opacity:1.0;fill-rule:evenodd;stroke:rgb(0, 0, 0);stroke-width:3.0;" d="M 179.344, 425.497 L 167.291, 417.245 L 166.396, 411.355 L 170.865, 408.745 L 179.067, 406.58 z "/>
<path style="fill:rgb(88, 38, 255);fill-opacity:1.0;fill-rule:evenodd;stroke:rgb(0, 0, 0);stroke-width:3.0;" d="M 442.823, 538.424 L 421.662, 530.326 L 446.042, 523.632 z "/>
<path style="fill:rgb(88, 38, 255);fill-opacity:1.0;fill-rule:evenodd;stroke:rgb(0, 0, 0);stroke-width:3.0;" d="M 465.798, 518.208 L 357.967, 547.814 L 344.195, 541.757 L 345.202, 501.562 L 385.224, 490.288 z "/>
<path style="fill:rgb(88, 38, 255);fill-opacity:1.0;fill-rule:evenodd;stroke:rgb(0, 0, 0);stroke-width:3.0;" d="M 136.642, 323.234 L 69.0341, 291.361 L 53.7462, 276.738 L 120.684, 266.864 z "/>
<path style="fill:rgb(88, 38, 255);fill-opacity:1.0;fill-rule:evenodd;stroke:rgb(0, 0, 0);stroke-width:3.0;" d="M 123.175, 70.5735 L 117.733, 74.8768 L 112.727, 71.445 L 103.244, 55.2451 z "/>
<path style="fill:rgb(88, 38, 255);fill-opacity:1.0;fill-rule:evenodd;stroke:rgb(0, 0, 0);stroke-width:3.0;" d="M 338.385, 539.202 L 332.425, 554.827 L 289.188, 566.697 L 268.27, 556.891 L 280.608, 536.057 L 304.769, 524.418 z "/>
<path style="fill:rgb(46, 18, 228);fill-opacity:1.0;fill-rule:evenodd;stroke:rgb(0, 0, 0);stroke-width:3.0;" d="M 166.12, 214.022 L 109.535, 227.48 L 108.438, 223.605 L 164.85, 205.782 z "/>
<path style="fill:rgb(46, 18, 228);fill-opacity:1.0;fill-rule:evenodd;stroke:rgb(0, 0, 0);stroke-width:3.0;" d="M 359.342, 403.103 L 307.363, 490.877 L 283.499, 473.27 L 227.199, 401.431 L 278.305, 377.22 L 304.39, 371.734 z "/>
<path style="fill:rgb(46, 18, 228);fill-opacity:1.0;fill-rule:evenodd;stroke:rgb(0, 0, 0);stroke-width:3.0;" d="M 366.143, 556.362 L 363.851, 546.198 L 405.811, 534.678 z "/>
<path style="fill:rgb(46, 18, 228);fill-opacity:1.0;fill-rule:evenodd;stroke:rgb(0, 0, 0);stroke-width:3.0;" d="M 17.789, 216.377 L 22.8765, 217.829 L 18.943, 245.687 L 16.8071, 248.773 L 9.08153, 215.296 z "/>
<path style="fill:rgb(46, 18, 228);fill-opacity:1.0;fill-rule:evenodd;stroke:rgb(0, 0, 0);stroke-width:3.0;" d="M 288.435, 476.911 L 275.826, 496.75 L 261.062, 474.797 L 261.739, 473.134 L 263.784, 470.465 L 275.039, 467.028 z "/>
<path style="fill:rgb(46, 18, 228);fill-opacity:1.0;fill-rule:evenodd;stroke:rgb(0, 0, 0);stroke-width:3.0;" d="M 472.915, 313.638 L 467.072, 312.577 L 429.446, 273.73 L 412.239, 219.923 z "/>
<path style="fill:rgb(46, 18, 228);fill-opacity:1.0;fill-rule:evenodd;stroke:rgb(0, 0, 0);stroke-width:3.0;" d="M 296.354, 492.982 L 288.497, 501.531 L 276.526, 501.662 L 291.409, 486.829 z "/>
<path style="fill:rgb(255, 252, 52);fill-opacity:1.0;fill-rule:evenodd;stroke:rgb(0, 0, 0);stroke-width:3.0;" d="M 221.028, 389.266 L 194.496, 394.846 L 218.569, 373.837 z "/>
<path style="fill:rgb(255, 252, 16);fill-opacity:1.0;fill-rule:evenodd;stroke:rgb(0, 0, 0);stroke-width:3.0;" d="M 60.6268, 566.54 L 35.2262, 572.266 L 29.6581, 566.349 L 44.2174, 553.398 z "/>
<path style="fill:rgb(243, 13, 13);fill-opacity:1.0;fill-rule:evenodd;stroke:rgb(0, 0, 0);stroke-width:3.0;" d="M 104.235, 34.3334 L 77.8113, 28.4301 L 78.1283, 22.5945 L 104.41, 19.1857 z "/>
<path style="fill:rgb(243, 13, 13);fill-opacity:1.0;fill-rule:evenodd;stroke:rgb(0, 0, 0);stroke-width:3.0;" d="M 123.007, 43.699 L 126.88, 52.1396 L 124.81, 72.1155 L 107.89, 55.1574 L 112.358, 35.5227 z "/>
<path style="fill:rgb(243, 13, 13);fill-opacity:1.0;fill-rule:evenodd;stroke:rgb(0, 0, 0);stroke-width:3.0;" d="M 154.061, 135.805 L 154.793, 140.554 L 140.666, 128.371 L 132.12, 114.398 L 122.31, 97.7943 L 126.294, 94.0999 z "/>
<path style="fill:rgb(243, 13, 13);fill-opacity:1.0;fill-rule:evenodd;stroke:rgb(0, 0, 0);stroke-width:3.0;" d="M 201.497, 343.82 L 191.424, 395.492 L 181.041, 397.676 L 178.914, 396.106 L 178.069, 338.377 z "/>
<path style="fill:rgb(243, 13, 13);fill-opacity:1.0;fill-rule:evenodd;stroke:rgb(0, 0, 0);stroke-width:3.0;" d="M 513.971, 570.761 L 515.79, 586.09 L 507.781, 581.548 L 507.561, 581.288 L 503.68, 573.362 L 513.698, 570.623 z "/>
<path style="fill:rgb(243, 13, 13);fill-opacity:1.0;fill-rule:evenodd;stroke:rgb(0, 0, 0);stroke-width:3.0;" d="M 400.725, 184.072 L 394.107, 184.956 L 389.531, 178.012 L 386.524, 170.288 L 390.615, 167.139 z "/>
<path style="fill:rgb(243, 13, 13);fill-opacity:1.0;fill-rule:evenodd;stroke:rgb(0, 0, 0);stroke-width:3.0;" d="M 674.655, 105.455 L 397.94, 145.451 L 388.381, 145.319 L 378.371, 114.017 L 528.594, 7.58369 z "/>
<path style="fill:rgb(243, 13, 13);fill-opacity:1.0;fill-rule:evenodd;stroke:rgb(0, 0, 0);stroke-width:3.0;" d="M 86.0828, 586.928 L 45.1842, 570.021 L 60.6268, 566.54 z "/>
<path style="fill:rgb(237, 9, 24);fill-opacity:1.0;fill-rule:evenodd;stroke:rgb(0, 0, 0);stroke-width:3.0;" d="M 246.252, 445.789 L 253.621, 464.204 L 209.505, 483.431 L 179.927, 465.381 L 179.712, 450.651 L 224.269, 429.57 z "/>
<path style="fill:rgb(255, 0, 103);fill-opacity:1.0;fill-rule:evenodd;stroke:rgb(0, 0, 0);stroke-width:3.0;" d="M 343.027, 81.0216 L 332.611, 71.1709 L 333.984, 67.4957 L 345.083, 62.8546 z "/>
<path style="fill:rgb(255, 0, 103);fill-opacity:1.0;fill-rule:evenodd;stroke:rgb(0, 0, 0);stroke-width:3.0;" d="M 202.676, 92.1927 L 196.891, 116.973 L 169.893, 93.4456 L 188.689, 88.5134 z "/>
<path style="fill:rgb(255, 0, 103);fill-opacity:1.0;fill-rule:evenodd;stroke:rgb(0, 0, 0);stroke-width:3.0;" d="M 178.613, 375.535 L 169.162, 393.734 L 162.39, 390.513 L 167.271, 359.401 L 178.342, 357.016 z "/>
<path style="fill:rgb(27, 255, 243);fill-opacity:1.0;fill-rule:evenodd;stroke:rgb(0, 0, 0);stroke-width:3.0;" d="M 346.537, 50.0057 L 345.407, 59.9954 L 335.34, 63.8662 L 341.808, 46.5552 L 344.639, 44.451 z "/>
<path style="fill:rgb(27, 255, 243);fill-opacity:1.0;fill-rule:evenodd;stroke:rgb(0, 0, 0);stroke-width:3.0;" d="M 407.309, 223.677 L 359.978, 259.752 L 338.697, 264.484 L 386.558, 170.376 z "/>
<path style="fill:rgb(12, 2, 255);fill-opacity:1.0;fill-rule:evenodd;stroke:rgb(0, 0, 0);stroke-width:3.0;" d="M 487.294, 557.318 L 515.316, 590.459 L 449.504, 541.282 L 452.472, 539.77 z "/>
<path style="fill:rgb(12, 2, 255);fill-opacity:1.0;fill-rule:evenodd;stroke:rgb(0, 0, 0);stroke-width:3.0;" d="M 366.066, 75.5415 L 353.068, 89.7669 L 342.379, 86.7427 L 347.398, 42.3998 L 350.751, 39.908 L 353.97, 37.7171 z "/>
<path style="fill:rgb(163, 105, 217);fill-opacity:1.0;fill-rule:evenodd;stroke:rgb(0, 0, 0);stroke-width:3.0;" d="M 290.339, 519.624 L 267.422, 512.591 L 269.059, 501.744 L 301.136, 501.392 z "/>
<path style="fill:rgb(163, 105, 217);fill-opacity:1.0;fill-rule:evenodd;stroke:rgb(0, 0, 0);stroke-width:3.0;" d="M 302.575, 75.4809 L 286.967, 114.366 L 265.85, 108.811 L 297.678, 74.0953 z "/>
<path style="fill:rgb(51, 30, 255);fill-opacity:1.0;fill-rule:evenodd;stroke:rgb(0, 0, 0);stroke-width:3.0;" d="M 486.286, 475.345 L 498.809, 490.626 L 503.955, 506.717 L 455.596, 470.465 L 466.985, 467.257 z "/>
<path style="fill:rgb(8, 9, 207);fill-opacity:1.0;fill-rule:evenodd;stroke:rgb(0, 0, 0);stroke-width:3.0;" d="M 108.785, 51.2272 L 100.217, 47.4668 L 98.4767, 45.7228 L 113.05, 32.4824 z "/>
<path style="fill:rgb(23, 26, 255);fill-opacity:1.0;fill-rule:evenodd;stroke:rgb(0, 0, 0);stroke-width:3.0;" d="M 14.6985, 536.062 L 20.3194, 549.636 L 19.9904, 550.316 L 8.85271, 548.671 L 5.82703, 533.505 z "/>
<path style="fill:rgb(9, 212, 41);fill-opacity:1.0;fill-rule:evenodd;stroke:rgb(0, 0, 0);stroke-width:3.0;" d="M 437.849, 341.146 L 422.705, 479.73 L 393.858, 487.856 L 408.364, 320.323 L 414.791, 309.47 z "/>
<path style="fill:rgb(255, 27, 83);fill-opacity:1.0;fill-rule:evenodd;stroke:rgb(0, 0, 0);stroke-width:3.0;" d="M 370.049, 581.75 L 354.731, 589.552 L 348.02, 583.662 L 357.061, 565.11 z "/>
<path style="fill:rgb(10, 255, 255);fill-opacity:1.0;fill-rule:evenodd;stroke:rgb(0, 0, 0);stroke-width:3.0;" d="M 86.0828, 586.928 L 86.2055, 587.026 L 33.2219, 584.983 L 28.3986, 584.309 L 66.6068, 578.877 z "/>
<path style="fill:rgb(10, 255, 255);fill-opacity:1.0;fill-rule:evenodd;stroke:rgb(0, 0, 0);stroke-width:3.0;" d="M 121.37, 103.289 L 103.303, 128.273 L 94.8693, 123.243 L 119.476, 100.423 z "/>
<path style="fill:rgb(10, 255, 255);fill-opacity:1.0;fill-rule:evenodd;stroke:rgb(0, 0, 0);stroke-width:3.0;" d="M 259.56, 532.585 L 254.569, 534.554 L 247.062, 501.986 L 250.732, 501.945 z "/>
<path style="fill:rgb(114, 41, 212);fill-opacity:1.0;fill-rule:evenodd;stroke:rgb(0, 0, 0);stroke-width:3.0;" d="M 276.004, 377.704 L 252.053, 382.741 L 265.361, 356.901 z "/>
<path style="fill:rgb(252, 255, 25);fill-opacity:1.0;fill-rule:evenodd;stroke:rgb(0, 0, 0);stroke-width:3.0;" d="M 102.21, 116.435 L 95.4764, 122.679 L 77.8317, 115.49 L 76.9198, 112.268 L 89.7943, 99.935 z "/>
<path style="fill:rgb(252, 255, 25);fill-opacity:1.0;fill-rule:evenodd;stroke:rgb(0, 0, 0);stroke-width:3.0;" d="M 349.269, 588.632 L 304.592, 582.308 L 304.798, 578.023 L 313.08, 577.709 z "/>
<path style="fill:rgb(252, 255, 25);fill-opacity:1.0;fill-rule:evenodd;stroke:rgb(0, 0, 0);stroke-width:3.0;" d="M 282.998, 352.367 L 283.22, 356.755 L 278.179, 370.72 L 272.583, 348.308 z "/>
<path style="fill:rgb(252, 255, 25);fill-opacity:1.0;fill-rule:evenodd;stroke:rgb(0, 0, 0);stroke-width:3.0;" d="M 349.047, 244.133 L 338.697, 264.484 L 274.645, 278.727 L 273.569, 257.213 L 334.244, 210.52 z "/>
<path style="fill:rgb(255, 255, 39);fill-opacity:1.0;fill-rule:evenodd;stroke:rgb(0, 0, 0);stroke-width:3.0;" d="M 91.9073, 366.849 L 122.337, 416.447 L 44.9816, 370.86 L 32.396, 316.324 z "/>
<path style="fill:rgb(255, 255, 39);fill-opacity:1.0;fill-rule:evenodd;stroke:rgb(0, 0, 0);stroke-width:3.0;" d="M 378.291, 176.623 L 350.189, 198.249 L 297.897, 182.681 L 363.343, 167.116 z "/>
<path style="fill:rgb(246, 78, 215);fill-opacity:1.0;fill-rule:evenodd;stroke:rgb(0, 0, 0);stroke-width:3.0;" d="M 273.524, 341.053 L 259.946, 357.399 L 249.269, 354.919 L 237.814, 318.075 L 293.409, 302.442 z "/>
<path style="fill:rgb(14, 255, 255);fill-opacity:1.0;fill-rule:evenodd;stroke:rgb(0, 0, 0);stroke-width:3.0;" d="M 86.2055, 587.026 L 94.3023, 593.51 L 33.2219, 584.983 z "/>
<path style="fill:rgb(14, 255, 255);fill-opacity:1.0;fill-rule:evenodd;stroke:rgb(0, 0, 0);stroke-width:3.0;" d="M 516.405, 591.274 L 516.411, 591.322 L 474.235, 576.529 L 451.604, 565.42 L 441.209, 545.507 L 449.504, 541.282 z "/>
<path style="fill:rgb(14, 255, 255);fill-opacity:1.0;fill-rule:evenodd;stroke:rgb(0, 0, 0);stroke-width:3.0;" d="M 66.2161, 568.449 L 53.2296, 553.813 L 82.5949, 545.8 z "/>
<path style="fill:rgb(14, 255, 255);fill-opacity:1.0;fill-rule:evenodd;stroke:rgb(0, 0, 0);stroke-width:3.0;" d="M 447.202, 556.986 L 449.279, 564.279 L 426.401, 553.049 L 441.209, 545.507 z "/>
<path style="fill:rgb(14, 255, 255);fill-opacity:1.0;fill-rule:evenodd;stroke:rgb(0, 0, 0);stroke-width:3.0;" d="M 283.499, 473.27 L 204.736, 415.158 L 223.396, 396.578 z "/>
<path style="fill:rgb(255, 100, 30);fill-opacity:1.0;fill-rule:evenodd;stroke:rgb(0, 0, 0);stroke-width:3.0;" d="M 266.462, 65.2635 L 288.829, 83.7465 L 277.642, 95.9491 L 198.974, 46.169 z "/>
<path style="fill:rgb(255, 56, 59);fill-opacity:1.0;fill-rule:evenodd;stroke:rgb(0, 0, 0);stroke-width:3.0;" d="M 336.551, 60.624 L 333.232, 69.5094 L 330.33, 69.5865 L 326.481, 61.217 L 338.55, 49.2129 z "/>
<path style="fill:rgb(255, 252, 78);fill-opacity:1.0;fill-rule:evenodd;stroke:rgb(0, 0, 0);stroke-width:3.0;" d="M 252.053, 382.741 L 221.028, 389.266 L 219.434, 379.263 L 239.683, 368.066 L 259.925, 367.457 z "/>
<path style="fill:rgb(255, 252, 78);fill-opacity:1.0;fill-rule:evenodd;stroke:rgb(0, 0, 0);stroke-width:3.0;" d="M 310.141, 297.737 L 289.186, 303.629 L 307.382, 287.538 L 323.743, 287.369 z "/>
<path style="fill:rgb(150, 252, 252);fill-opacity:1.0;fill-rule:evenodd;stroke:rgb(0, 0, 0);stroke-width:3.0;" d="M 289.186, 303.629 L 276.076, 307.316 L 275.821, 302.223 L 299.63, 287.617 L 307.382, 287.538 z "/>
<path style="fill:rgb(255, 159, 7);fill-opacity:1.0;fill-rule:evenodd;stroke:rgb(0, 0, 0);stroke-width:3.0;" d="M 22.8765, 217.829 L 8.73444, 213.792 L 7.52827, 208.566 L 26.5128, 166.381 L 30.1531, 166.294 z "/>
<path style="fill:rgb(255, 159, 7);fill-opacity:1.0;fill-rule:evenodd;stroke:rgb(0, 0, 0);stroke-width:3.0;" d="M 310.49, 186.43 L 324.602, 217.94 L 318.074, 222.964 L 218.174, 201.642 L 297.897, 182.681 z "/>
<path style="fill:rgb(255, 159, 7);fill-opacity:1.0;fill-rule:evenodd;stroke:rgb(0, 0, 0);stroke-width:3.0;" d="M 32.7232, 533.758 L 19.7042, 533.455 L 29.0891, 512.323 z "/>
<path style="fill:rgb(255, 159, 7);fill-opacity:1.0;fill-rule:evenodd;stroke:rgb(0, 0, 0);stroke-width:3.0;" d="M 192.067, 472.789 L 194.641, 489.909 L 185.013, 494.105 L 183.348, 488.225 L 186.087, 472.639 L 188.868, 470.837 z "/>
<path style="fill:rgb(255, 159, 7);fill-opacity:1.0;fill-rule:evenodd;stroke:rgb(0, 0, 0);stroke-width:3.0;" d="M 495.104, 479.04 L 482.633, 473.814 L 487.829, 461.385 L 489.324, 460.964 z "/>
<path style="fill:rgb(255, 252, 8);fill-opacity:1.0;fill-rule:evenodd;stroke:rgb(0, 0, 0);stroke-width:3.0;" d="M 379.206, 184.832 L 367.725, 207.407 L 335.139, 212.552 L 334.244, 210.52 L 373.492, 180.317 z "/>
<path style="fill:rgb(255, 60, 33);fill-opacity:1.0;fill-rule:evenodd;stroke:rgb(0, 0, 0);stroke-width:3.0;" d="M 376.386, 251.26 L 376.424, 259.696 L 372.537, 263.793 L 364.78, 268.504 L 367.634, 253.917 L 372.681, 250.07 z "/>
<path style="fill:rgb(255, 60, 33);fill-opacity:1.0;fill-rule:evenodd;stroke:rgb(0, 0, 0);stroke-width:3.0;" d="M 355.698, 263.014 L 337.328, 277.015 L 326.571, 267.181 L 355.46, 260.756 z "/>
<path style="fill:rgb(255, 60, 33);fill-opacity:1.0;fill-rule:evenodd;stroke:rgb(0, 0, 0);stroke-width:3.0;" d="M 159.212, 349.854 L 157.729, 361.559 L 146.956, 357.487 L 155.491, 346.405 z "/>
<path style="fill:rgb(255, 60, 33);fill-opacity:1.0;fill-rule:evenodd;stroke:rgb(0, 0, 0);stroke-width:3.0;" d="M 232.874, 508.014 L 218.521, 525.542 L 215.704, 502.33 L 221.257, 502.269 z "/>
<path style="fill:rgb(255, 60, 33);fill-opacity:1.0;fill-rule:evenodd;stroke:rgb(0, 0, 0);stroke-width:3.0;" d="M 264.628, 383.7 L 227.199, 401.431 L 218.141, 389.873 L 260.053, 381.059 z "/>
<path style="fill:rgb(144, 65, 252);fill-opacity:1.0;fill-rule:evenodd;stroke:rgb(0, 0, 0);stroke-width:3.0;" d="M 513.698, 570.623 L 501.929, 573.841 L 492.435, 563.397 L 487.294, 557.318 z "/>
<path style="fill:rgb(14, 138, 255);fill-opacity:1.0;fill-rule:evenodd;stroke:rgb(0, 0, 0);stroke-width:3.0;" d="M 103.244, 55.2451 L 112.727, 71.445 L 95.9839, 59.9676 L 92.7297, 55.1627 L 93.1554, 50.5574 L 94.9859, 48.8943 z "/>
<path style="fill:rgb(14, 138, 255);fill-opacity:1.0;fill-rule:evenodd;stroke:rgb(0, 0, 0);stroke-width:3.0;" d="M 276.811, 542.468 L 270.409, 553.279 L 259.9, 557.68 L 258.291, 550.698 L 275.894, 540.548 z "/>
<path style="fill:rgb(255, 255, 12);fill-opacity:1.0;fill-rule:evenodd;stroke:rgb(0, 0, 0);stroke-width:3.0;" d="M 52.9687, 456.669 L 72.6604, 490.799 L 85.1898, 545.092 L 53.2296, 553.813 L 47.6763, 547.555 L 22.8915, 455.972 z "/>
<path style="fill:rgb(255, 4, 7);fill-opacity:1.0;fill-rule:evenodd;stroke:rgb(0, 0, 0);stroke-width:3.0;" d="M 359.342, 403.103 L 304.39, 371.734 L 388.379, 354.07 z "/>
<path style="fill:rgb(255, 4, 7);fill-opacity:1.0;fill-rule:evenodd;stroke:rgb(0, 0, 0);stroke-width:3.0;" d="M 290.869, 72.169 L 297.678, 74.0953 L 288.829, 83.7465 L 274.709, 72.078 z "/>
<path style="fill:rgb(255, 3, 33);fill-opacity:1.0;fill-rule:evenodd;stroke:rgb(0, 0, 0);stroke-width:3.0;" d="M 136.642, 323.234 L 149.37, 368.199 L 69.0341, 291.361 z "/>
<path style="fill:rgb(16, 39, 184);fill-opacity:1.0;fill-rule:evenodd;stroke:rgb(0, 0, 0);stroke-width:3.0;" d="M 356.171, 230.125 L 344.691, 230.943 L 338.248, 212.061 L 367.725, 207.407 z "/>
<path style="fill:rgb(16, 39, 184);fill-opacity:1.0;fill-rule:evenodd;stroke:rgb(0, 0, 0);stroke-width:3.0;" d="M 192.502, 406.132 L 190.741, 409.531 L 187.715, 413.409 L 179.021, 403.414 L 178.914, 396.106 z "/>
<path style="fill:rgb(16, 39, 184);fill-opacity:1.0;fill-rule:evenodd;stroke:rgb(0, 0, 0);stroke-width:3.0;" d="M 441.164, 310.816 L 440.855, 313.644 L 429.004, 304.282 L 422.429, 296.572 L 427.819, 287.471 z "/>
<path style="fill:rgb(16, 39, 184);fill-opacity:1.0;fill-rule:evenodd;stroke:rgb(0, 0, 0);stroke-width:3.0;" d="M 164.85, 205.782 L 150.697, 210.254 L 162.066, 190.267 L 162.438, 190.142 z "/>
<path style="fill:rgb(16, 39, 184);fill-opacity:1.0;fill-rule:evenodd;stroke:rgb(0, 0, 0);stroke-width:3.0;" d="M 114.262, 173.818 L 105.841, 174.451 L 94.108, 162.476 L 104.664, 158.008 z "/>
<path style="fill:rgb(16, 39, 184);fill-opacity:1.0;fill-rule:evenodd;stroke:rgb(0, 0, 0);stroke-width:3.0;" d="M 394.024, 485.935 L 393.858, 487.856 L 378.47, 492.191 L 372.294, 468.292 z "/>
<path style="fill:rgb(16, 39, 184);fill-opacity:1.0;fill-rule:evenodd;stroke:rgb(0, 0, 0);stroke-width:3.0;" d="M 398.592, 433.182 L 353.605, 453.117 L 337.479, 440.023 L 408.364, 320.323 z "/>
<path style="fill:rgb(16, 39, 184);fill-opacity:1.0;fill-rule:evenodd;stroke:rgb(0, 0, 0);stroke-width:3.0;" d="M 122.337, 416.447 L 165.622, 486.999 L 67.2631, 467.411 L 44.9816, 370.86 z "/>
<path style="fill:rgb(16, 39, 184);fill-opacity:1.0;fill-rule:evenodd;stroke:rgb(0, 0, 0);stroke-width:3.0;" d="M 203.015, 430.998 L 208.331, 437.11 L 206.223, 438.107 L 183.236, 430.562 L 182.778, 427.686 z "/>
<path style="fill:rgb(249, 255, 24);fill-opacity:1.0;fill-rule:evenodd;stroke:rgb(0, 0, 0);stroke-width:3.0;" d="M 67.6594, 469.128 L 72.6604, 490.799 L 56.4038, 462.623 z "/>
<path style="fill:rgb(55, 234, 172);fill-opacity:1.0;fill-rule:evenodd;stroke:rgb(0, 0, 0);stroke-width:3.0;" d="M 140.393, 47.157 L 143.195, 65.3319 L 139.587, 71.5472 L 130.489, 68.687 L 132.845, 41.5158 z "/>
<path style="fill:rgb(22, 161, 220);fill-opacity:1.0;fill-rule:evenodd;stroke:rgb(0, 0, 0);stroke-width:3.0;" d="M 785.049, 96.6799 L 760.715, 96.1438 L 778.903, 32.4543 z "/>
<path style="fill:rgb(22, 161, 220);fill-opacity:1.0;fill-rule:evenodd;stroke:rgb(0, 0, 0);stroke-width:3.0;" d="M 350.189, 198.249 L 335.27, 209.73 L 317.25, 201.524 L 310.49, 186.43 z "/>
<path style="fill:rgb(22, 161, 220);fill-opacity:1.0;fill-rule:evenodd;stroke:rgb(0, 0, 0);stroke-width:3.0;" d="M 321.782, 80.9151 L 332.871, 93.4859 L 293.073, 99.1552 L 302.575, 75.4809 z "/>
<path style="fill:rgb(223, 246, 18);fill-opacity:1.0;fill-rule:evenodd;stroke:rgb(0, 0, 0);stroke-width:3.0;" d="M 260.192, 480.623 L 268.646, 501.749 L 199.35, 502.51 L 190.608, 491.667 L 234.627, 472.482 z "/>
<path style="fill:rgb(255, 212, 19);fill-opacity:1.0;fill-rule:evenodd;stroke:rgb(0, 0, 0);stroke-width:3.0;" d="M 89.2447, 99.2046 L 75.3796, 106.828 L 63.5582, 65.0685 z "/>
<path style="fill:rgb(255, 212, 19);fill-opacity:1.0;fill-rule:evenodd;stroke:rgb(0, 0, 0);stroke-width:3.0;" d="M 72.6555, 28.0781 L 78.2476, 43.7889 L 74.1099, 42.6965 L 64.6119, 36.5253 L 71.6071, 27.7269 z "/>
<path style="fill:rgb(255, 212, 19);fill-opacity:1.0;fill-rule:evenodd;stroke:rgb(0, 0, 0);stroke-width:3.0;" d="M 148.746, 367.601 L 138.154, 442.228 L 96.2027, 373.851 L 91.8166, 313.151 z "/>
<path style="fill:rgb(255, 212, 19);fill-opacity:1.0;fill-rule:evenodd;stroke:rgb(0, 0, 0);stroke-width:3.0;" d="M 362.006, 269.984 L 362.03, 270.175 L 354.75, 274.596 L 338.366, 276.224 L 356.259, 262.586 z "/>
<path style="fill:rgb(255, 212, 19);fill-opacity:1.0;fill-rule:evenodd;stroke:rgb(0, 0, 0);stroke-width:3.0;" d="M 355.268, 118.877 L 293.492, 113.11 L 288.093, 111.561 L 293.073, 99.1552 L 332.871, 93.4859 z "/>
<path style="fill:rgb(255, 175, 11);fill-opacity:1.0;fill-rule:evenodd;stroke:rgb(0, 0, 0);stroke-width:3.0;" d="M 123.11, 23.3426 L 112.628, 32.866 L 105.405, 15.301 L 104.51, 10.5988 L 104.528, 9.06187 z "/>
<path style="fill:rgb(255, 117, 255);fill-opacity:1.0;fill-rule:evenodd;stroke:rgb(0, 0, 0);stroke-width:3.0;" d="M 440.855, 313.644 L 439.114, 329.578 L 431.737, 332.749 L 423.613, 321.589 L 436.002, 309.81 z "/>
<path style="fill:rgb(255, 117, 255);fill-opacity:1.0;fill-rule:evenodd;stroke:rgb(0, 0, 0);stroke-width:3.0;" d="M 209.752, 418.859 L 207.808, 436.509 L 192.633, 419.063 L 197.153, 409.563 z "/>
<path style="fill:rgb(255, 117, 255);fill-opacity:1.0;fill-rule:evenodd;stroke:rgb(0, 0, 0);stroke-width:3.0;" d="M 110.606, 132.628 L 105.063, 135.495 L 89.4446, 132.938 L 87.6328, 129.954 L 94.8693, 123.243 z "/>
<path style="fill:rgb(255, 117, 255);fill-opacity:1.0;fill-rule:evenodd;stroke:rgb(0, 0, 0);stroke-width:3.0;" d="M 196.891, 116.973 L 186.405, 161.889 L 162.857, 87.3139 z "/>
<path style="fill:rgb(57, 1, 243);fill-opacity:1.0;fill-rule:evenodd;stroke:rgb(0, 0, 0);stroke-width:3.0;" d="M 274.512, 356.035 L 270.456, 366.86 L 265.361, 356.901 L 271.67, 344.652 z "/>
<path style="fill:rgb(54, 252, 212);fill-opacity:1.0;fill-rule:evenodd;stroke:rgb(0, 0, 0);stroke-width:3.0;" d="M 266.117, 521.246 L 256.65, 501.88 L 269.059, 501.744 z "/>
<path style="fill:rgb(54, 252, 212);fill-opacity:1.0;fill-rule:evenodd;stroke:rgb(0, 0, 0);stroke-width:3.0;" d="M 66.6068, 578.877 L 53.3215, 580.766 L 27.5537, 584.191 L 26.5722, 584.054 L 18.5307, 576.03 L 45.1842, 570.021 z "/>
<path style="fill:rgb(54, 252, 212);fill-opacity:1.0;fill-rule:evenodd;stroke:rgb(0, 0, 0);stroke-width:3.0;" d="M 208.496, 577.058 L 210.366, 583.665 L 80.9015, 526.509 L 69.9169, 478.911 z "/>
<path style="fill:rgb(54, 252, 212);fill-opacity:1.0;fill-rule:evenodd;stroke:rgb(0, 0, 0);stroke-width:3.0;" d="M 369.184, 85.2911 L 359.546, 91.5996 L 353.068, 89.7669 L 366.066, 75.5415 z "/>
<path style="fill:rgb(54, 252, 212);fill-opacity:1.0;fill-rule:evenodd;stroke:rgb(0, 0, 0);stroke-width:3.0;" d="M 134.014, 146.589 L 132.588, 156.038 L 122.298, 168.583 L 112.661, 138.782 L 117.278, 136.607 z "/>
<path style="fill:rgb(39, 255, 194);fill-opacity:1.0;fill-rule:evenodd;stroke:rgb(0, 0, 0);stroke-width:3.0;" d="M 398.22, 248.987 L 404.581, 261.27 L 403.943, 262.225 L 387.821, 252.734 L 389.745, 247.345 z "/>
<path style="fill:rgb(163, 252, 44);fill-opacity:1.0;fill-rule:evenodd;stroke:rgb(0, 0, 0);stroke-width:3.0;" d="M 266.117, 521.246 L 265.634, 524.445 L 257.877, 526.745 L 250.732, 501.945 L 256.65, 501.88 z "/>
<path style="fill:rgb(194, 4, 51);fill-opacity:1.0;fill-rule:evenodd;stroke:rgb(0, 0, 0);stroke-width:3.0;" d="M 472.438, 483.09 L 403.568, 496.645 L 385.224, 490.288 L 455.596, 470.465 z "/>
<path style="fill:rgb(194, 4, 51);fill-opacity:1.0;fill-rule:evenodd;stroke:rgb(0, 0, 0);stroke-width:3.0;" d="M 477.73, 487.057 L 496.289, 509.837 L 465.798, 518.208 L 403.568, 496.645 L 472.438, 483.09 z "/>
<path style="fill:rgb(223, 83, 103);fill-opacity:1.0;fill-rule:evenodd;stroke:rgb(0, 0, 0);stroke-width:3.0;" d="M 117.278, 136.607 L 97.3674, 145.989 L 94.3571, 141.03 L 110.606, 132.628 z "/>
<path style="fill:rgb(223, 83, 103);fill-opacity:1.0;fill-rule:evenodd;stroke:rgb(0, 0, 0);stroke-width:3.0;" d="M 184.04, 490.667 L 208.496, 577.058 L 69.9169, 478.911 L 67.2631, 467.411 z "/>
<path style="fill:rgb(223, 83, 103);fill-opacity:1.0;fill-rule:evenodd;stroke:rgb(0, 0, 0);stroke-width:3.0;" d="M 290.339, 519.624 L 289.708, 520.69 L 264.713, 530.552 L 267.422, 512.591 z "/>
<path style="fill:rgb(220, 13, 70);fill-opacity:1.0;fill-rule:evenodd;stroke:rgb(0, 0, 0);stroke-width:3.0;" d="M 188.689, 88.5134 L 169.893, 93.4456 L 153.66, 79.299 z "/>
<path style="fill:rgb(255, 194, 43);fill-opacity:1.0;fill-rule:evenodd;stroke:rgb(0, 0, 0);stroke-width:3.0;" d="M 442.823, 538.424 L 441.29, 545.465 L 389.358, 571.916 L 411.823, 533.027 L 421.662, 530.326 z "/>
<path style="fill:rgb(255, 194, 43);fill-opacity:1.0;fill-rule:evenodd;stroke:rgb(0, 0, 0);stroke-width:3.0;" d="M 109.675, 35.5488 L 97.8246, 46.3153 L 82.0724, 39.4271 L 74.0564, 27.5912 z "/>
<path style="fill:rgb(255, 194, 43);fill-opacity:1.0;fill-rule:evenodd;stroke:rgb(0, 0, 0);stroke-width:3.0;" d="M 105.939, 66.7918 L 121.826, 98.2438 L 102.21, 116.435 L 63.5582, 65.0685 L 53.9588, 31.159 z "/>
<path style="fill:rgb(255, 7, 7);fill-opacity:1.0;fill-rule:evenodd;stroke:rgb(0, 0, 0);stroke-width:3.0;" d="M 61.1696, 197.19 L 44.3515, 233.5 L 30.9845, 236.751 L 50.4158, 200.213 L 54.8958, 193.74 z "/>
<path style="fill:rgb(86, 11, 255);fill-opacity:1.0;fill-rule:evenodd;stroke:rgb(0, 0, 0);stroke-width:3.0;" d="M 150.697, 210.254 L 108.438, 223.605 L 104.452, 209.527 L 162.066, 190.267 z "/>
<path style="fill:rgb(86, 11, 255);fill-opacity:1.0;fill-rule:evenodd;stroke:rgb(0, 0, 0);stroke-width:3.0;" d="M 74.8937, 28.8276 L 92.2843, 54.5051 L 81.7028, 47.6299 L 77.3218, 41.1879 L 72.6555, 28.0781 z "/>
<path style="fill:rgb(255, 67, 8);fill-opacity:1.0;fill-rule:evenodd;stroke:rgb(0, 0, 0);stroke-width:3.0;" d="M 218.521, 525.542 L 214.9, 529.964 L 194.362, 527.129 L 187.429, 502.641 L 215.704, 502.33 z "/>
<path style="fill:rgb(255, 67, 8);fill-opacity:1.0;fill-rule:evenodd;stroke:rgb(0, 0, 0);stroke-width:3.0;" d="M 194.405, 434.228 L 194.735, 443.543 L 190.626, 445.487 L 179.505, 436.506 L 179.482, 434.99 L 192.742, 433.682 z "/>
<path style="fill:rgb(212, 6, 69);fill-opacity:1.0;fill-rule:evenodd;stroke:rgb(0, 0, 0);stroke-width:3.0;" d="M 308.931, 340.755 L 341.404, 288.946 L 358.787, 284.058 z "/>
<path style="fill:rgb(255, 215, 16);fill-opacity:1.0;fill-rule:evenodd;stroke:rgb(0, 0, 0);stroke-width:3.0;" d="M 71.6592, 262.281 L 39.1385, 262.767 L 33.3568, 257.237 L 57.6199, 204.854 z "/>
<path style="fill:rgb(255, 215, 16);fill-opacity:1.0;fill-rule:evenodd;stroke:rgb(0, 0, 0);stroke-width:3.0;" d="M 402.906, 205.309 L 400.787, 206.623 L 400.501, 206.189 L 392.327, 185.193 L 399.257, 184.268 z "/>
<path style="fill:rgb(255, 215, 16);fill-opacity:1.0;fill-rule:evenodd;stroke:rgb(0, 0, 0);stroke-width:3.0;" d="M 308.931, 340.755 L 294.708, 356.93 L 272.583, 348.308 L 271.67, 344.652 L 293.409, 302.442 L 341.404, 288.946 z "/>
<path style="fill:rgb(249, 255, 17);fill-opacity:1.0;fill-rule:evenodd;stroke:rgb(0, 0, 0);stroke-width:3.0;" d="M 29.1943, 266.224 L 19.3436, 259.587 L 36.5489, 235.397 L 44.3515, 233.5 z "/>
<path style="fill:rgb(202, 75, 76);fill-opacity:1.0;fill-rule:evenodd;stroke:rgb(0, 0, 0);stroke-width:3.0;" d="M 363.424, 461.089 L 361.4, 496.999 L 292.193, 516.494 L 337.479, 440.023 z "/>
<path style="fill:rgb(202, 75, 76);fill-opacity:1.0;fill-rule:evenodd;stroke:rgb(0, 0, 0);stroke-width:3.0;" d="M 198.974, 46.169 L 214.031, 55.6965 L 176.613, 85.3367 L 144.997, 77.0203 L 137.562, 28.7936 z "/>
<path style="fill:rgb(202, 75, 76);fill-opacity:1.0;fill-rule:evenodd;stroke:rgb(0, 0, 0);stroke-width:3.0;" d="M 276.356, 214.06 L 270.089, 222.311 L 186.358, 209.209 L 218.174, 201.642 z "/>
<path style="fill:rgb(231, 228, 17);fill-opacity:1.0;fill-rule:evenodd;stroke:rgb(0, 0, 0);stroke-width:3.0;" d="M 44.0137, 534.021 L 32.7232, 533.758 L 13.9065, 422.772 z "/>
<path style="fill:rgb(55, 231, 163);fill-opacity:1.0;fill-rule:evenodd;stroke:rgb(0, 0, 0);stroke-width:3.0;" d="M 209.505, 483.431 L 194.641, 489.909 L 192.067, 472.789 z "/>
<path style="fill:rgb(55, 231, 163);fill-opacity:1.0;fill-rule:evenodd;stroke:rgb(0, 0, 0);stroke-width:3.0;" d="M 119.185, 261.571 L 71.6592, 262.281 L 57.6199, 204.854 L 85.8663, 143.871 z "/>
<path style="fill:rgb(255, 10, 33);fill-opacity:1.0;fill-rule:evenodd;stroke:rgb(0, 0, 0);stroke-width:3.0;" d="M 160.269, 362.52 L 154.907, 387.756 L 146.504, 358.073 L 146.956, 357.487 z "/>
<path style="fill:rgb(14, 26, 197);fill-opacity:1.0;fill-rule:evenodd;stroke:rgb(0, 0, 0);stroke-width:3.0;" d="M 221.11, 393.662 L 203.093, 413.946 L 181.041, 397.676 L 218.141, 389.873 z "/>
<path style="fill:rgb(255, 217, 31);fill-opacity:1.0;fill-rule:evenodd;stroke:rgb(0, 0, 0);stroke-width:3.0;" d="M 372.361, 95.2255 L 376.376, 107.781 L 364.401, 129.23 L 351.493, 114.596 L 342.268, 86.7112 z "/>
<path style="fill:rgb(37, 40, 255);fill-opacity:1.0;fill-rule:evenodd;stroke:rgb(0, 0, 0);stroke-width:3.0;" d="M 436.002, 309.81 L 423.613, 321.589 L 414.791, 309.47 L 421.414, 298.286 z "/>
<path style="fill:rgb(255, 209, 11);fill-opacity:1.0;fill-rule:evenodd;stroke:rgb(0, 0, 0);stroke-width:3.0;" d="M 35.2262, 572.266 L 18.5307, 576.03 L 16.5751, 574.078 L 25.086, 561.491 z "/>
<path style="fill:rgb(234, 1, 24);fill-opacity:1.0;fill-rule:evenodd;stroke:rgb(0, 0, 0);stroke-width:3.0;" d="M 129.252, 109.545 L 157.343, 157.093 L 157.469, 157.911 L 119.476, 100.423 L 119.866, 100.062 z "/>
<path style="fill:rgb(187, 13, 59);fill-opacity:1.0;fill-rule:evenodd;stroke:rgb(0, 0, 0);stroke-width:3.0;" d="M 43.8006, 288.439 L 26.8879, 292.456 L 23.6143, 278.27 L 29.6143, 265.317 z "/>
<path style="fill:rgb(11, 223, 255);fill-opacity:1.0;fill-rule:evenodd;stroke:rgb(0, 0, 0);stroke-width:3.0;" d="M 195.199, 422.013 L 198.313, 430.229 L 182.778, 427.686 L 179.031, 404.139 L 179.021, 403.414 z "/>
<path style="fill:rgb(255, 255, 24);fill-opacity:1.0;fill-rule:evenodd;stroke:rgb(0, 0, 0);stroke-width:3.0;" d="M 355.268, 118.877 L 364.401, 129.23 L 362.368, 132.869 L 323.758, 121.793 L 337.726, 117.239 z "/>
<path style="fill:rgb(56, 243, 26);fill-opacity:1.0;fill-rule:evenodd;stroke:rgb(0, 0, 0);stroke-width:3.0;" d="M 146.481, 94.5838 L 148.583, 114.22 L 141.505, 116.947 L 129.649, 99.1385 L 139.635, 89.891 z "/>
<path style="fill:rgb(237, 255, 9);fill-opacity:1.0;fill-rule:evenodd;stroke:rgb(0, 0, 0);stroke-width:3.0;" d="M 187.237, 212.554 L 193.297, 220.465 L 163.279, 214.698 L 177.461, 211.325 z "/>
<path style="fill:rgb(237, 255, 9);fill-opacity:1.0;fill-rule:evenodd;stroke:rgb(0, 0, 0);stroke-width:3.0;" d="M 280.748, 535.82 L 260.218, 548.565 L 254.631, 534.82 L 254.569, 534.554 L 289.708, 520.69 z "/>
<path style="fill:rgb(240, 255, 18);fill-opacity:1.0;fill-rule:evenodd;stroke:rgb(0, 0, 0);stroke-width:3.0;" d="M 254.78, 535.468 L 214.9, 529.964 L 237.727, 502.088 L 247.062, 501.986 z "/>
<path style="fill:rgb(249, 184, 16);fill-opacity:1.0;fill-rule:evenodd;stroke:rgb(0, 0, 0);stroke-width:3.0;" d="M 44.0137, 534.021 L 46.6791, 543.87 L 29.6159, 541.704 L 28.6308, 540.915 L 29.5498, 533.684 z "/>
<path style="fill:rgb(36, 249, 252);fill-opacity:1.0;fill-rule:evenodd;stroke:rgb(0, 0, 0);stroke-width:3.0;" d="M 104.664, 158.008 L 94.108, 162.476 L 89.9241, 158.206 L 83.1129, 134.145 L 87.6328, 129.954 z "/>
<path style="fill:rgb(7, 37, 255);fill-opacity:1.0;fill-rule:evenodd;stroke:rgb(0, 0, 0);stroke-width:3.0;" d="M 387.294, 273.311 L 361.278, 283.357 L 351.949, 285.98 L 351.099, 279.51 L 385.146, 272.142 z "/>
<path style="fill:rgb(7, 37, 255);fill-opacity:1.0;fill-rule:evenodd;stroke:rgb(0, 0, 0);stroke-width:3.0;" d="M 149.37, 368.199 L 184.04, 490.667 L 165.622, 486.999 L 138.154, 442.228 L 148.746, 367.601 z "/>
<path style="fill:rgb(255, 246, 39);fill-opacity:1.0;fill-rule:evenodd;stroke:rgb(0, 0, 0);stroke-width:3.0;" d="M 128.618, 201.448 L 104.452, 209.527 L 94.7584, 175.283 L 111.434, 174.031 z "/>
<path style="fill:rgb(46, 255, 150);fill-opacity:1.0;fill-rule:evenodd;stroke:rgb(0, 0, 0);stroke-width:3.0;" d="M 741.398, 150.178 L 397.94, 145.451 L 674.655, 105.455 z "/>
<path style="fill:rgb(255, 62, 37);fill-opacity:1.0;fill-rule:evenodd;stroke:rgb(0, 0, 0);stroke-width:3.0;" d="M 129.945, 90.7136 L 121.826, 98.2438 L 107.24, 69.368 z "/>
<path style="fill:rgb(255, 49, 9);fill-opacity:1.0;fill-rule:evenodd;stroke:rgb(0, 0, 0);stroke-width:3.0;" d="M 134.574, 86.4214 L 129.945, 90.7136 L 107.24, 69.368 L 105.939, 66.7918 z "/>
<path style="fill:rgb(255, 36, 20);fill-opacity:1.0;fill-rule:evenodd;stroke:rgb(0, 0, 0);stroke-width:3.0;" d="M 224.269, 429.57 L 208.331, 437.11 L 207.808, 436.509 L 209.752, 418.859 z "/>
<path style="fill:rgb(252, 252, 27);fill-opacity:1.0;fill-rule:evenodd;stroke:rgb(0, 0, 0);stroke-width:3.0;" d="M 91.8166, 313.151 L 96.2027, 373.851 L 29.6143, 265.317 L 33.3568, 257.237 z "/>
<path style="fill:rgb(43, 114, 255);fill-opacity:1.0;fill-rule:evenodd;stroke:rgb(0, 0, 0);stroke-width:3.0;" d="M 277.642, 95.9491 L 265.85, 108.811 L 176.613, 85.3367 L 214.031, 55.6965 z "/>
<path style="fill:rgb(243, 29, 11);fill-opacity:1.0;fill-rule:evenodd;stroke:rgb(0, 0, 0);stroke-width:3.0;" d="M 264.554, 358.47 L 259.925, 367.457 L 224.665, 368.517 L 242.143, 353.263 z "/>
<path style="fill:rgb(212, 1, 255);fill-opacity:1.0;fill-rule:evenodd;stroke:rgb(0, 0, 0);stroke-width:3.0;" d="M 285.518, 574.436 L 276.895, 583.458 L 267.654, 581.47 L 277.309, 571.647 L 285.752, 570.913 z "/>
<path style="fill:rgb(255, 19, 128);fill-opacity:1.0;fill-rule:evenodd;stroke:rgb(0, 0, 0);stroke-width:3.0;" d="M 342.268, 86.7112 L 349.848, 109.624 L 347.323, 109.869 L 321.782, 80.9151 z "/>
<path style="fill:rgb(7, 85, 187);fill-opacity:1.0;fill-rule:evenodd;stroke:rgb(0, 0, 0);stroke-width:3.0;" d="M 372.294, 468.292 L 378.47, 492.191 L 361.4, 496.999 L 363.424, 461.089 z "/>
<path style="fill:rgb(76, 255, 255);fill-opacity:1.0;fill-rule:evenodd;stroke:rgb(0, 0, 0);stroke-width:3.0;" d="M 242.143, 353.263 L 194.496, 394.846 L 191.424, 395.492 L 201.497, 343.82 z "/>
<path style="fill:rgb(249, 226, 37);fill-opacity:1.0;fill-rule:evenodd;stroke:rgb(0, 0, 0);stroke-width:3.0;" d="M 158.285, 191.531 L 128.618, 201.448 L 111.434, 174.031 L 146.064, 171.43 z "/>
<path style="fill:rgb(249, 170, 31);fill-opacity:1.0;fill-rule:evenodd;stroke:rgb(0, 0, 0);stroke-width:3.0;" d="M 373.816, 137.211 L 361.721, 134.029 L 372.461, 114.794 z "/>
<path style="fill:rgb(249, 170, 31);fill-opacity:1.0;fill-rule:evenodd;stroke:rgb(0, 0, 0);stroke-width:3.0;" d="M 162.857, 87.3139 L 185.496, 159.01 L 159.6, 171.734 L 152.371, 124.844 L 158.33, 83.3689 z "/>
<path style="fill:rgb(249, 170, 31);fill-opacity:1.0;fill-rule:evenodd;stroke:rgb(0, 0, 0);stroke-width:3.0;" d="M 162.438, 190.142 L 158.285, 191.531 L 146.064, 171.43 L 159.399, 170.429 z "/>
<path style="fill:rgb(18, 255, 209);fill-opacity:1.0;fill-rule:evenodd;stroke:rgb(0, 0, 0);stroke-width:3.0;" d="M 270.596, 488.973 L 269.155, 500.568 L 268.289, 500.855 L 259.448, 478.764 L 261.062, 474.797 z "/>
<path style="fill:rgb(237, 30, 23);fill-opacity:1.0;fill-rule:evenodd;stroke:rgb(0, 0, 0);stroke-width:3.0;" d="M 311.371, 228.122 L 295.744, 240.147 L 261.533, 233.574 L 272.096, 219.669 z "/>
<path style="fill:rgb(27, 11, 228);fill-opacity:1.0;fill-rule:evenodd;stroke:rgb(0, 0, 0);stroke-width:3.0;" d="M 318.074, 222.964 L 311.371, 228.122 L 272.096, 219.669 L 272.554, 219.066 L 285.138, 215.934 z "/>
<path style="fill:rgb(240, 220, 12);fill-opacity:1.0;fill-rule:evenodd;stroke:rgb(0, 0, 0);stroke-width:3.0;" d="M 394.024, 485.935 L 353.605, 453.117 L 398.592, 433.182 z "/>
<path style="fill:rgb(58, 66, 252);fill-opacity:1.0;fill-rule:evenodd;stroke:rgb(0, 0, 0);stroke-width:3.0;" d="M 153.66, 79.299 L 158.33, 83.3689 L 152.371, 124.844 L 144.997, 77.0203 z "/>
<path style="fill:rgb(59, 157, 243);fill-opacity:1.0;fill-rule:evenodd;stroke:rgb(0, 0, 0);stroke-width:3.0;" d="M 715.545, 121.655 L 713.471, 131.464 L 707.615, 127.541 L 700.142, 111.678 L 707.319, 103.915 z "/>
<path style="fill:rgb(255, 46, 8);fill-opacity:1.0;fill-rule:evenodd;stroke:rgb(0, 0, 0);stroke-width:3.0;" d="M 253.086, 220.837 L 267.04, 226.324 L 261.533, 233.574 L 230.389, 227.591 L 245.962, 219.941 z "/>
<path style="fill:rgb(255, 226, 33);fill-opacity:1.0;fill-rule:evenodd;stroke:rgb(0, 0, 0);stroke-width:3.0;" d="M 335.27, 209.73 L 324.602, 217.94 L 317.25, 201.524 z "/>
<path style="fill:rgb(255, 39, 9);fill-opacity:1.0;fill-rule:evenodd;stroke:rgb(0, 0, 0);stroke-width:3.0;" d="M 360.392, 22.9549 L 357.568, 38.83 L 354.941, 40.7518 L 345.378, 10.851 z "/>
</svg>