<?xml version="1.0" encoding="iso-8859-1" standalone="no"?>
<!DOCTYPE svg PUBLIC "-//W3C//DTD SVG 1.0//EN" "http://www.w3.org/TR/2001/REC-SVG-20010904/DTD/svg10.dtd">
<svg xmlns="http://www.w3.org/2000/svg" width="800" height="600">
<path style="fill:rgb(0, 0, 0);fill-opacity:0.0;fill-rule:evenodd;stroke:rgb(0, 0, 0);stroke-width:0.0;" d="M 0, 600 L 800, 600 L 800, 0 L 0, 0 z "/>
<path style="fill:rgb(255, 0, 234);fill-opacity:1.0;fill-rule:evenodd;stroke:rgb(0, 0, 0);stroke-width:3.0;" d="M 410.668, 302.398 L 411.042, 304.594 L 381.52, 321.756 L 368.118, 325.118 L 365.634, 286.855 z "/>
<path style="fill:rgb(255, 0, 234);fill-opacity:1.0;fill-rule:evenodd;stroke:rgb(0, 0, 0);stroke-width:3.0;" d="M 677.99, 268.287 L 640.267, 384.473 L 520.884, 357.129 L 641.599, 257.429 z "/>
<path style="fill:rgb(255, 91, 255);fill-opacity:1.0;fill-rule:evenodd;stroke:rgb(0, 0, 0);stroke-width:3.0;" d="M 618.891, 490.754 L 454.81, 409.03 L 457.308, 406.042 z "/>
<path style="fill:rgb(255, 91, 255);fill-opacity:1.0;fill-rule:evenodd;stroke:rgb(0, 0, 0);stroke-width:3.0;" d="M 467.611, 104.026 L 450.806, 109.51 L 444.785, 107.747 L 444.188, 101.463 z "/>
<path style="fill:rgb(255, 91, 255);fill-opacity:1.0;fill-rule:evenodd;stroke:rgb(0, 0, 0);stroke-width:3.0;" d="M 553.962, 449.166 L 546.18, 452.635 L 531.867, 445.131 L 551.04, 442.503 L 552.409, 442.448 z "/>
<path style="fill:rgb(255, 91, 255);fill-opacity:1.0;fill-rule:evenodd;stroke:rgb(0, 0, 0);stroke-width:3.0;" d="M 759.496, 353.763 L 760.625, 357.983 L 752.541, 410.188 L 666.976, 390.59 L 680.491, 332.395 L 738.584, 325.765 z "/>
<path style="fill:rgb(255, 31, 10);fill-opacity:1.0;fill-rule:evenodd;stroke:rgb(0, 0, 0);stroke-width:3.0;" d="M 38.0229, 535.315 L 34.9297, 537.499 L 22.4208, 524.6 L 34.001, 521.727 z "/>
<path style="fill:rgb(255, 31, 10);fill-opacity:1.0;fill-rule:evenodd;stroke:rgb(0, 0, 0);stroke-width:3.0;" d="M 370.879, 351.03 L 347.25, 343.302 L 387.081, 332.648 z "/>
<path style="fill:rgb(255, 31, 10);fill-opacity:1.0;fill-rule:evenodd;stroke:rgb(0, 0, 0);stroke-width:3.0;" d="M 635.21, 255.523 L 625.734, 252.695 L 628.363, 232.502 L 642.5, 231.159 z "/>
<path style="fill:rgb(217, 11, 39);fill-opacity:1.0;fill-rule:evenodd;stroke:rgb(0, 0, 0);stroke-width:3.0;" d="M 635.032, 198.622 L 635.057, 203.978 L 624.405, 205.997 L 614.965, 196.014 L 625.939, 194.188 z "/>
<path style="fill:rgb(217, 11, 39);fill-opacity:1.0;fill-rule:evenodd;stroke:rgb(0, 0, 0);stroke-width:3.0;" d="M 733.661, 254.088 L 715.078, 247.652 L 691.457, 212.572 z "/>
<path style="fill:rgb(255, 24, 192);fill-opacity:1.0;fill-rule:evenodd;stroke:rgb(0, 0, 0);stroke-width:3.0;" d="M 85.8556, 470.375 L 11.8353, 480.299 L 13.5546, 470.174 L 64.5863, 433.528 z "/>
<path style="fill:rgb(255, 24, 192);fill-opacity:1.0;fill-rule:evenodd;stroke:rgb(0, 0, 0);stroke-width:3.0;" d="M 381.503, 432.828 L 368.445, 424.194 L 367.379, 393.813 L 372.36, 393.453 z "/>
<path style="fill:rgb(255, 24, 192);fill-opacity:1.0;fill-rule:evenodd;stroke:rgb(0, 0, 0);stroke-width:3.0;" d="M 647.533, 167.11 L 545.752, 226.281 L 536.022, 217.399 L 558.242, 37.5357 z "/>
<path style="fill:rgb(49, 58, 255);fill-opacity:1.0;fill-rule:evenodd;stroke:rgb(0, 0, 0);stroke-width:3.0;" d="M 673.611, 226.685 L 669.338, 231.811 L 655.124, 226.888 L 654.324, 218.157 z "/>
<path style="fill:rgb(252, 228, 27);fill-opacity:1.0;fill-rule:evenodd;stroke:rgb(0, 0, 0);stroke-width:3.0;" d="M 466.507, 355.435 L 464.534, 357.776 L 439.871, 349.024 L 439.822, 348.723 L 451.612, 327.364 z "/>
<path style="fill:rgb(252, 228, 27);fill-opacity:1.0;fill-rule:evenodd;stroke:rgb(0, 0, 0);stroke-width:3.0;" d="M 453.309, 130.501 L 451.158, 110.212 L 461.77, 107.569 z "/>
<path style="fill:rgb(252, 228, 27);fill-opacity:1.0;fill-rule:evenodd;stroke:rgb(0, 0, 0);stroke-width:3.0;" d="M 341.635, 503.575 L 341.465, 503.777 L 336.936, 504.33 L 336.518, 502.804 L 336.29, 489.76 L 345.398, 485.242 z "/>
<path style="fill:rgb(252, 228, 27);fill-opacity:1.0;fill-rule:evenodd;stroke:rgb(0, 0, 0);stroke-width:3.0;" d="M 410.106, 422.345 L 398.382, 436.254 L 394.066, 439.075 L 381.655, 433.483 L 379.856, 425.735 L 404.512, 421.328 z "/>
<path style="fill:rgb(252, 228, 27);fill-opacity:1.0;fill-rule:evenodd;stroke:rgb(0, 0, 0);stroke-width:3.0;" d="M 63.8238, 514.328 L 50.2661, 517.691 L 6.8807, 480.964 L 8.81906, 480.704 z "/>
<path style="fill:rgb(234, 9, 100);fill-opacity:1.0;fill-rule:evenodd;stroke:rgb(0, 0, 0);stroke-width:3.0;" d="M 452.243, 402.589 L 428.74, 426.379 L 418.445, 427.27 L 430.454, 398.206 L 442.932, 383.403 L 462.282, 383.388 z "/>
<path style="fill:rgb(215, 13, 161);fill-opacity:1.0;fill-rule:evenodd;stroke:rgb(0, 0, 0);stroke-width:3.0;" d="M 489.856, 339.052 L 486.732, 362.168 L 475.804, 357.523 L 488.612, 333.026 z "/>
<path style="fill:rgb(215, 13, 161);fill-opacity:1.0;fill-rule:evenodd;stroke:rgb(0, 0, 0);stroke-width:3.0;" d="M 290.698, 564.003 L 280.285, 576.357 L 244.581, 569.326 L 279.288, 562.754 z "/>
<path style="fill:rgb(215, 13, 161);fill-opacity:1.0;fill-rule:evenodd;stroke:rgb(0, 0, 0);stroke-width:3.0;" d="M 72.8109, 512.192 L 68.1964, 517 L 8.81906, 480.704 L 32.1213, 477.579 z "/>
<path style="fill:rgb(255, 119, 21);fill-opacity:1.0;fill-rule:evenodd;stroke:rgb(0, 0, 0);stroke-width:3.0;" d="M 457.154, 317.989 L 471.959, 348.967 L 468.617, 352.931 L 465.224, 353.016 L 451.612, 327.364 L 456.855, 317.867 z "/>
<path style="fill:rgb(255, 119, 21);fill-opacity:1.0;fill-rule:evenodd;stroke:rgb(0, 0, 0);stroke-width:3.0;" d="M 611.475, 528.389 L 573.375, 528.88 L 545.224, 523.005 z "/>
<path style="fill:rgb(249, 108, 15);fill-opacity:1.0;fill-rule:evenodd;stroke:rgb(0, 0, 0);stroke-width:3.0;" d="M 129.38, 495.301 L 104.329, 523.794 L 99.9369, 488.172 z "/>
<path style="fill:rgb(249, 108, 15);fill-opacity:1.0;fill-rule:evenodd;stroke:rgb(0, 0, 0);stroke-width:3.0;" d="M 203.905, 375.581 L 195.086, 384.771 L 184.894, 376.584 L 191.756, 369.361 L 197.768, 367.852 z "/>
<path style="fill:rgb(249, 108, 15);fill-opacity:1.0;fill-rule:evenodd;stroke:rgb(0, 0, 0);stroke-width:3.0;" d="M 532.363, 339.009 L 504.515, 353.38 L 501.534, 352.697 L 535.275, 318.545 z "/>
<path style="fill:rgb(231, 142, 107);fill-opacity:1.0;fill-rule:evenodd;stroke:rgb(0, 0, 0);stroke-width:3.0;" d="M 683.994, 214.228 L 673.611, 226.685 L 640.495, 212.042 L 661.659, 190.62 z "/>
<path style="fill:rgb(231, 142, 107);fill-opacity:1.0;fill-rule:evenodd;stroke:rgb(0, 0, 0);stroke-width:3.0;" d="M 335.755, 490.025 L 297.1, 509.198 L 262.985, 513.368 L 333.548, 487.729 z "/>
<path style="fill:rgb(231, 142, 107);fill-opacity:1.0;fill-rule:evenodd;stroke:rgb(0, 0, 0);stroke-width:3.0;" d="M 634.582, 383.171 L 633.935, 386.232 L 588.27, 431.889 L 553.631, 371.769 L 556.983, 365.398 z "/>
<path style="fill:rgb(231, 142, 107);fill-opacity:1.0;fill-rule:evenodd;stroke:rgb(0, 0, 0);stroke-width:3.0;" d="M 86.8288, 480.75 L 77.1293, 486.235 L 74.3048, 483.499 L 75.172, 482.067 L 86.8705, 470.238 L 93.4361, 469.358 z "/>
<path style="fill:rgb(231, 142, 107);fill-opacity:1.0;fill-rule:evenodd;stroke:rgb(0, 0, 0);stroke-width:3.0;" d="M 530.659, 349.056 L 520.884, 357.129 L 504.515, 353.38 L 518.207, 346.315 z "/>
<path style="fill:rgb(231, 142, 107);fill-opacity:1.0;fill-rule:evenodd;stroke:rgb(0, 0, 0);stroke-width:3.0;" d="M 359.355, 405.782 L 324.776, 403.338 L 352.433, 371.959 z "/>
<path style="fill:rgb(231, 142, 107);fill-opacity:1.0;fill-rule:evenodd;stroke:rgb(0, 0, 0);stroke-width:3.0;" d="M 439.871, 349.024 L 395.608, 333.317 L 416.306, 313.03 L 433.315, 308.763 z "/>
<path style="fill:rgb(255, 194, 27);fill-opacity:1.0;fill-rule:evenodd;stroke:rgb(0, 0, 0);stroke-width:3.0;" d="M 700.616, 242.643 L 694.887, 240.659 L 679.325, 225.51 L 686.699, 214.728 z "/>
<path style="fill:rgb(249, 255, 17);fill-opacity:1.0;fill-rule:evenodd;stroke:rgb(0, 0, 0);stroke-width:3.0;" d="M 487.591, 330.422 L 471.959, 348.967 L 457.154, 317.989 z "/>
<path style="fill:rgb(237, 0, 42);fill-opacity:1.0;fill-rule:evenodd;stroke:rgb(0, 0, 0);stroke-width:3.0;" d="M 739.896, 256.247 L 733.661, 254.088 L 730.323, 250.804 L 729.84, 223.979 z "/>
<path style="fill:rgb(34, 1, 197);fill-opacity:1.0;fill-rule:evenodd;stroke:rgb(0, 0, 0);stroke-width:3.0;" d="M 621.403, 258.144 L 635.647, 262.345 L 595.547, 295.464 L 580.938, 295.369 L 601.288, 257.962 z "/>
<path style="fill:rgb(34, 1, 197);fill-opacity:1.0;fill-rule:evenodd;stroke:rgb(0, 0, 0);stroke-width:3.0;" d="M 349.752, 476.038 L 357.527, 484.722 L 348.819, 495.052 L 346.183, 490.316 L 349.034, 475.845 z "/>
<path style="fill:rgb(34, 1, 197);fill-opacity:1.0;fill-rule:evenodd;stroke:rgb(0, 0, 0);stroke-width:3.0;" d="M 307.002, 526.189 L 294.396, 518.228 L 294.349, 518.174 L 293.499, 509.638 L 300.617, 508.769 z "/>
<path style="fill:rgb(34, 1, 197);fill-opacity:1.0;fill-rule:evenodd;stroke:rgb(0, 0, 0);stroke-width:3.0;" d="M 90.3349, 538.389 L 89.5643, 539.116 L 81.8625, 537.854 L 81.2271, 510.812 L 90.1574, 505.247 z "/>
<path style="fill:rgb(34, 1, 197);fill-opacity:1.0;fill-rule:evenodd;stroke:rgb(0, 0, 0);stroke-width:3.0;" d="M 131.999, 524.676 L 100.55, 528.504 L 100.449, 528.207 L 106.727, 521.066 L 139.543, 513.448 z "/>
<path style="fill:rgb(34, 1, 197);fill-opacity:1.0;fill-rule:evenodd;stroke:rgb(0, 0, 0);stroke-width:3.0;" d="M 434.396, 393.53 L 432.449, 395.839 L 388.395, 372.811 L 438.327, 367.145 z "/>
<path style="fill:rgb(255, 12, 16);fill-opacity:1.0;fill-rule:evenodd;stroke:rgb(0, 0, 0);stroke-width:3.0;" d="M 457.917, 515.909 L 446.499, 514.981 L 453.024, 484.73 z "/>
<path style="fill:rgb(255, 12, 16);fill-opacity:1.0;fill-rule:evenodd;stroke:rgb(0, 0, 0);stroke-width:3.0;" d="M 440.969, 349.414 L 438.327, 367.145 L 388.395, 372.811 L 373.743, 365.153 L 371.023, 350.866 L 388.663, 330.852 z "/>
<path style="fill:rgb(252, 199, 18);fill-opacity:1.0;fill-rule:evenodd;stroke:rgb(0, 0, 0);stroke-width:3.0;" d="M 279.399, 536.217 L 276.921, 537.08 L 233.357, 516.988 L 257.012, 514.098 z "/>
<path style="fill:rgb(126, 92, 243);fill-opacity:1.0;fill-rule:evenodd;stroke:rgb(0, 0, 0);stroke-width:3.0;" d="M 478.703, 122.952 L 456.577, 132.286 L 453.1, 131.068 L 461.77, 107.569 L 473.867, 104.556 z "/>
<path style="fill:rgb(255, 72, 246);fill-opacity:1.0;fill-rule:evenodd;stroke:rgb(0, 0, 0);stroke-width:3.0;" d="M 739.951, 554.222 L 736.719, 562.968 L 720.115, 559.503 L 724.956, 546.36 z "/>
<path style="fill:rgb(255, 72, 246);fill-opacity:1.0;fill-rule:evenodd;stroke:rgb(0, 0, 0);stroke-width:3.0;" d="M 478.646, 288.637 L 478.799, 297.353 L 381.52, 321.756 L 471.878, 269.227 z "/>
<path style="fill:rgb(231, 3, 6);fill-opacity:1.0;fill-rule:evenodd;stroke:rgb(0, 0, 0);stroke-width:3.0;" d="M 414.449, 432.814 L 411.824, 436.787 L 402.822, 430.986 L 416.108, 415.225 z "/>
<path style="fill:rgb(231, 3, 6);fill-opacity:1.0;fill-rule:evenodd;stroke:rgb(0, 0, 0);stroke-width:3.0;" d="M 529.282, 313.516 L 527.769, 314.953 L 504.196, 310.723 L 520.538, 291.336 z "/>
<path style="fill:rgb(231, 3, 6);fill-opacity:1.0;fill-rule:evenodd;stroke:rgb(0, 0, 0);stroke-width:3.0;" d="M 790.882, 59.822 L 770.884, 80.064 L 765.709, 73.7576 L 778.726, 51.0971 z "/>
<path style="fill:rgb(9, 226, 124);fill-opacity:1.0;fill-rule:evenodd;stroke:rgb(0, 0, 0);stroke-width:3.0;" d="M 651.438, 225.612 L 643.97, 231.02 L 628.363, 232.502 L 628.843, 228.822 L 634.769, 219.838 z "/>
<path style="fill:rgb(9, 226, 124);fill-opacity:1.0;fill-rule:evenodd;stroke:rgb(0, 0, 0);stroke-width:3.0;" d="M 266.293, 364.957 L 264.595, 365.411 L 239.279, 364.995 L 245.384, 355.907 L 277.178, 347.932 z "/>
<path style="fill:rgb(9, 226, 124);fill-opacity:1.0;fill-rule:evenodd;stroke:rgb(0, 0, 0);stroke-width:3.0;" d="M 694.045, 140.071 L 647.533, 167.11 L 620.414, 127.756 z "/>
<path style="fill:rgb(9, 226, 124);fill-opacity:1.0;fill-rule:evenodd;stroke:rgb(0, 0, 0);stroke-width:3.0;" d="M 433.428, 193.866 L 481.45, 263.663 L 411.042, 304.594 L 385.676, 155.755 z "/>
<path style="fill:rgb(9, 226, 124);fill-opacity:1.0;fill-rule:evenodd;stroke:rgb(0, 0, 0);stroke-width:3.0;" d="M 279.288, 562.754 L 244.581, 569.326 L 227.903, 566.042 L 228.32, 557.176 z "/>
<path style="fill:rgb(9, 226, 124);fill-opacity:1.0;fill-rule:evenodd;stroke:rgb(0, 0, 0);stroke-width:3.0;" d="M 453.544, 481.269 L 442.93, 514.691 L 388.016, 510.229 L 383.414, 494.434 L 422.289, 447.932 z "/>
<path style="fill:rgb(9, 226, 124);fill-opacity:1.0;fill-rule:evenodd;stroke:rgb(0, 0, 0);stroke-width:3.0;" d="M 698.477, 254.955 L 698.462, 255.019 L 662.942, 314.634 L 670.723, 290.67 L 682.071, 272.821 L 698.461, 254.905 z "/>
<path style="fill:rgb(82, 35, 231);fill-opacity:1.0;fill-rule:evenodd;stroke:rgb(0, 0, 0);stroke-width:3.0;" d="M 553.006, 328.357 L 532.363, 339.009 L 535.275, 318.545 L 558.07, 295.472 z "/>
<path style="fill:rgb(82, 35, 231);fill-opacity:1.0;fill-rule:evenodd;stroke:rgb(0, 0, 0);stroke-width:3.0;" d="M 387.081, 332.648 L 288.705, 358.962 L 305.2, 340.902 L 400.984, 316.874 z "/>
<path style="fill:rgb(82, 35, 231);fill-opacity:1.0;fill-rule:evenodd;stroke:rgb(0, 0, 0);stroke-width:3.0;" d="M 252.687, 365.215 L 258.704, 366.987 L 233.391, 373.758 L 239.279, 364.995 z "/>
<path style="fill:rgb(82, 35, 231);fill-opacity:1.0;fill-rule:evenodd;stroke:rgb(0, 0, 0);stroke-width:3.0;" d="M 103.412, 545.696 L 103.029, 551.861 L 90.4444, 558.85 L 90.4056, 551.587 L 98.4751, 543.272 z "/>
<path style="fill:rgb(82, 35, 231);fill-opacity:1.0;fill-rule:evenodd;stroke:rgb(0, 0, 0);stroke-width:3.0;" d="M 730.798, 476.762 L 739.672, 528.813 L 698.685, 532.588 L 695.857, 531.105 L 713.813, 460.811 z "/>
<path style="fill:rgb(82, 35, 231);fill-opacity:1.0;fill-rule:evenodd;stroke:rgb(0, 0, 0);stroke-width:3.0;" d="M 682.534, 236.381 L 682.032, 248.708 L 679.35, 249.522 L 677.097, 247.82 L 669.815, 236.898 L 679.767, 235.423 z "/>
<path style="fill:rgb(82, 35, 231);fill-opacity:1.0;fill-rule:evenodd;stroke:rgb(0, 0, 0);stroke-width:3.0;" d="M 110.275, 557.013 L 106.154, 563.146 L 99.6771, 565.063 L 90.4703, 563.676 L 90.4444, 558.85 L 107.643, 549.298 z "/>
<path style="fill:rgb(82, 35, 231);fill-opacity:1.0;fill-rule:evenodd;stroke:rgb(0, 0, 0);stroke-width:3.0;" d="M 178.767, 575.06 L 175.478, 588.988 L 163.393, 586.44 L 174.698, 573.614 z "/>
<path style="fill:rgb(82, 35, 231);fill-opacity:1.0;fill-rule:evenodd;stroke:rgb(0, 0, 0);stroke-width:3.0;" d="M 148.607, 499.957 L 139.543, 513.448 L 106.727, 521.066 L 129.38, 495.301 z "/>
<path style="fill:rgb(82, 35, 231);fill-opacity:1.0;fill-rule:evenodd;stroke:rgb(0, 0, 0);stroke-width:3.0;" d="M 729.84, 223.979 L 729.874, 225.878 L 718.145, 227.652 L 716.017, 179.625 z "/>
<path style="fill:rgb(255, 94, 66);fill-opacity:1.0;fill-rule:evenodd;stroke:rgb(0, 0, 0);stroke-width:3.0;" d="M 42.6084, 486.5 L 32.1213, 477.579 L 53.2044, 474.752 z "/>
<path style="fill:rgb(255, 61, 38);fill-opacity:1.0;fill-rule:evenodd;stroke:rgb(0, 0, 0);stroke-width:3.0;" d="M 670.612, 374.931 L 661.467, 389.329 L 658.815, 388.721 L 661.511, 367.103 L 673.374, 363.041 z "/>
<path style="fill:rgb(255, 204, 7);fill-opacity:1.0;fill-rule:evenodd;stroke:rgb(0, 0, 0);stroke-width:3.0;" d="M 291.034, 503.176 L 262.985, 513.368 L 233.357, 516.988 L 227.135, 514.119 L 295.021, 437.097 z "/>
<path style="fill:rgb(255, 204, 7);fill-opacity:1.0;fill-rule:evenodd;stroke:rgb(0, 0, 0);stroke-width:3.0;" d="M 469.805, 89.1057 L 473.176, 101.931 L 436.513, 98.5207 L 447.872, 81.2462 z "/>
<path style="fill:rgb(255, 204, 7);fill-opacity:1.0;fill-rule:evenodd;stroke:rgb(0, 0, 0);stroke-width:3.0;" d="M 469.805, 89.1057 L 447.872, 81.2462 L 450.466, 77.3022 L 464.881, 70.3785 z "/>
<path style="fill:rgb(255, 204, 7);fill-opacity:1.0;fill-rule:evenodd;stroke:rgb(0, 0, 0);stroke-width:3.0;" d="M 684.749, 508.267 L 682.277, 523.985 L 681.973, 523.826 L 661.896, 497.369 L 677.876, 451.969 z "/>
<path style="fill:rgb(255, 204, 7);fill-opacity:1.0;fill-rule:evenodd;stroke:rgb(0, 0, 0);stroke-width:3.0;" d="M 492.851, 290.431 L 481.219, 263.797 L 526.348, 237.561 z "/>
<path style="fill:rgb(255, 204, 7);fill-opacity:1.0;fill-rule:evenodd;stroke:rgb(0, 0, 0);stroke-width:3.0;" d="M 683.946, 249.944 L 677.99, 268.287 L 676.136, 267.734 L 674.377, 266.712 L 669.811, 252.419 L 683.671, 248.21 z "/>
<path style="fill:rgb(197, 228, 65);fill-opacity:1.0;fill-rule:evenodd;stroke:rgb(0, 0, 0);stroke-width:3.0;" d="M 716.652, 213.162 L 717.978, 238.661 L 705.718, 226.6 L 710.893, 212.192 z "/>
<path style="fill:rgb(197, 228, 65);fill-opacity:1.0;fill-rule:evenodd;stroke:rgb(0, 0, 0);stroke-width:3.0;" d="M 338.865, 384.856 L 180.027, 453.188 L 233.391, 373.758 L 281.648, 360.85 z "/>
<path style="fill:rgb(197, 228, 65);fill-opacity:1.0;fill-rule:evenodd;stroke:rgb(0, 0, 0);stroke-width:3.0;" d="M 65.9238, 515.611 L 38.0229, 535.315 L 37.3949, 533.193 L 40.4802, 520.12 L 63.8238, 514.328 z "/>
<path style="fill:rgb(197, 228, 65);fill-opacity:1.0;fill-rule:evenodd;stroke:rgb(0, 0, 0);stroke-width:3.0;" d="M 329.685, 517.752 L 328.556, 519.091 L 307.136, 526.554 L 300.617, 508.769 L 318.922, 506.532 z "/>
<path style="fill:rgb(161, 1, 45);fill-opacity:1.0;fill-rule:evenodd;stroke:rgb(0, 0, 0);stroke-width:3.0;" d="M 456.855, 317.867 L 446.291, 337.004 L 440.076, 323.524 L 452.291, 316.002 z "/>
<path style="fill:rgb(161, 1, 45);fill-opacity:1.0;fill-rule:evenodd;stroke:rgb(0, 0, 0);stroke-width:3.0;" d="M 43.5068, 542.729 L 40.2695, 546.103 L 19.2059, 545.88 L 18.8399, 544.353 L 41.1064, 537.851 z "/>
<path style="fill:rgb(255, 255, 48);fill-opacity:1.0;fill-rule:evenodd;stroke:rgb(0, 0, 0);stroke-width:3.0;" d="M 688.042, 263.43 L 670.723, 290.67 L 680.193, 261.504 z "/>
<path style="fill:rgb(255, 255, 48);fill-opacity:1.0;fill-rule:evenodd;stroke:rgb(0, 0, 0);stroke-width:3.0;" d="M 576.549, 295.34 L 561.497, 323.586 L 560.242, 324.623 L 557.926, 325.818 L 554.226, 320.433 L 558.07, 295.472 L 558.317, 295.222 z "/>
<path style="fill:rgb(255, 255, 48);fill-opacity:1.0;fill-rule:evenodd;stroke:rgb(0, 0, 0);stroke-width:3.0;" d="M 622.38, 230.379 L 615.178, 229.955 L 616.358, 222.728 L 634.609, 218 z "/>
<path style="fill:rgb(255, 255, 48);fill-opacity:1.0;fill-rule:evenodd;stroke:rgb(0, 0, 0);stroke-width:3.0;" d="M 623.858, 205.419 L 627.672, 219.797 L 616.358, 222.728 L 619.872, 201.203 z "/>
<path style="fill:rgb(255, 255, 48);fill-opacity:1.0;fill-rule:evenodd;stroke:rgb(0, 0, 0);stroke-width:3.0;" d="M 303.183, 549.192 L 287.169, 541.807 L 286.882, 533.61 L 298.38, 529.604 L 321.751, 527.164 z "/>
<path style="fill:rgb(255, 10, 89);fill-opacity:1.0;fill-rule:evenodd;stroke:rgb(0, 0, 0);stroke-width:3.0;" d="M 712.968, 138.686 L 670.175, 182.001 L 674.442, 154.498 L 707.979, 133.51 z "/>
<path style="fill:rgb(255, 10, 89);fill-opacity:1.0;fill-rule:evenodd;stroke:rgb(0, 0, 0);stroke-width:3.0;" d="M 321.909, 568.008 L 306.645, 586.267 L 299.98, 583.441 L 298.798, 564.624 L 311.982, 563.422 z "/>
<path style="fill:rgb(255, 10, 89);fill-opacity:1.0;fill-rule:evenodd;stroke:rgb(0, 0, 0);stroke-width:3.0;" d="M 370.629, 38.023 L 364.345, 59.0834 L 360.872, 35.1195 L 368.126, 28.1372 z "/>
<path style="fill:rgb(255, 10, 89);fill-opacity:1.0;fill-rule:evenodd;stroke:rgb(0, 0, 0);stroke-width:3.0;" d="M 464.182, 494.729 L 474.92, 517.291 L 457.917, 515.909 L 454.683, 495.3 L 458.666, 488.527 z "/>
<path style="fill:rgb(255, 10, 89);fill-opacity:1.0;fill-rule:evenodd;stroke:rgb(0, 0, 0);stroke-width:3.0;" d="M 656.122, 355.902 L 654.682, 374.868 L 653.407, 375.137 L 646.141, 366.38 L 650.104, 354.174 z "/>
<path style="fill:rgb(184, 228, 255);fill-opacity:1.0;fill-rule:evenodd;stroke:rgb(0, 0, 0);stroke-width:3.0;" d="M 227.622, 554.797 L 220.838, 564.651 L 188.252, 558.235 L 199.55, 545.417 z "/>
<path style="fill:rgb(184, 228, 255);fill-opacity:1.0;fill-rule:evenodd;stroke:rgb(0, 0, 0);stroke-width:3.0;" d="M 768.373, 82.6051 L 736.15, 115.221 L 723.813, 89.1801 L 735.915, 58.4208 z "/>
<path style="fill:rgb(95, 255, 172);fill-opacity:1.0;fill-rule:evenodd;stroke:rgb(0, 0, 0);stroke-width:3.0;" d="M 729.117, 29.1634 L 725.108, 51.4575 L 710.218, 48.4168 L 711.248, 43.5493 L 722.065, 20.5695 z "/>
<path style="fill:rgb(95, 255, 172);fill-opacity:1.0;fill-rule:evenodd;stroke:rgb(0, 0, 0);stroke-width:3.0;" d="M 693.956, 240.337 L 696.825, 249.614 L 688.042, 263.43 L 680.193, 261.504 L 687.762, 238.192 z "/>
<path style="fill:rgb(255, 21, 11);fill-opacity:1.0;fill-rule:evenodd;stroke:rgb(0, 0, 0);stroke-width:3.0;" d="M 760.092, 122.927 L 751.561, 99.6219 L 758.804, 92.2914 L 789.738, 87.3582 z "/>
<path style="fill:rgb(255, 21, 11);fill-opacity:1.0;fill-rule:evenodd;stroke:rgb(0, 0, 0);stroke-width:3.0;" d="M 176.218, 560.971 L 143.51, 507.543 L 180.027, 453.188 L 183.522, 451.685 z "/>
<path style="fill:rgb(255, 21, 11);fill-opacity:1.0;fill-rule:evenodd;stroke:rgb(0, 0, 0);stroke-width:3.0;" d="M 614.632, 477.644 L 588.27, 431.889 L 633.935, 386.232 z "/>
<path style="fill:rgb(255, 21, 11);fill-opacity:1.0;fill-rule:evenodd;stroke:rgb(0, 0, 0);stroke-width:3.0;" d="M 760.261, 360.334 L 761.413, 352.895 L 794.575, 328.376 z "/>
<path style="fill:rgb(255, 21, 11);fill-opacity:1.0;fill-rule:evenodd;stroke:rgb(0, 0, 0);stroke-width:3.0;" d="M 694.088, 396.8 L 648.811, 506.441 L 620.676, 491.69 L 634.452, 383.783 L 634.582, 383.171 z "/>
<path style="fill:rgb(255, 4, 59);fill-opacity:1.0;fill-rule:evenodd;stroke:rgb(0, 0, 0);stroke-width:3.0;" d="M 620.676, 491.69 L 612.564, 487.437 L 634.452, 383.783 z "/>
<path style="fill:rgb(255, 134, 42);fill-opacity:1.0;fill-rule:evenodd;stroke:rgb(0, 0, 0);stroke-width:3.0;" d="M 110.275, 557.013 L 100.55, 528.504 L 131.999, 524.676 z "/>
<path style="fill:rgb(255, 134, 42);fill-opacity:1.0;fill-rule:evenodd;stroke:rgb(0, 0, 0);stroke-width:3.0;" d="M 580.574, 418.531 L 614.632, 477.644 L 612.564, 487.437 L 607.871, 484.977 L 541.324, 364.823 z "/>
<path style="fill:rgb(255, 255, 22);fill-opacity:1.0;fill-rule:evenodd;stroke:rgb(0, 0, 0);stroke-width:3.0;" d="M 619.872, 201.203 L 613.67, 239.195 L 581.719, 271.534 L 490.293, 294.47 L 526.348, 237.561 L 608.882, 189.581 z "/>
<path style="fill:rgb(19, 255, 255);fill-opacity:1.0;fill-rule:evenodd;stroke:rgb(0, 0, 0);stroke-width:3.0;" d="M 467.329, 136.051 L 467.098, 152.626 L 464.912, 152.491 L 438.03, 127.953 L 438.432, 125.932 z "/>
<path style="fill:rgb(19, 255, 255);fill-opacity:1.0;fill-rule:evenodd;stroke:rgb(0, 0, 0);stroke-width:3.0;" d="M 634.536, 192.757 L 625.9, 194.194 L 620.021, 193.512 L 621.306, 185.371 L 624.809, 182.083 z "/>
<path style="fill:rgb(19, 255, 255);fill-opacity:1.0;fill-rule:evenodd;stroke:rgb(0, 0, 0);stroke-width:3.0;" d="M 758.407, 124.948 L 746.877, 138.781 L 725.05, 126.456 L 748.073, 103.153 z "/>
<path style="fill:rgb(19, 255, 255);fill-opacity:1.0;fill-rule:evenodd;stroke:rgb(0, 0, 0);stroke-width:3.0;" d="M 770.884, 80.064 L 768.373, 82.6051 L 744.903, 65.118 L 738.467, 51.9337 L 741.492, 44.2445 z "/>
<path style="fill:rgb(30, 78, 189);fill-opacity:1.0;fill-rule:evenodd;stroke:rgb(0, 0, 0);stroke-width:3.0;" d="M 33.8857, 503.825 L 33.2938, 507.717 L 21.5749, 504.412 L 19.5035, 495.087 L 20.8253, 492.768 z "/>
<path style="fill:rgb(231, 3, 25);fill-opacity:1.0;fill-rule:evenodd;stroke:rgb(0, 0, 0);stroke-width:3.0;" d="M 394.248, 375.871 L 369.757, 382.242 L 369.748, 382.203 L 366.548, 361.392 z "/>
<path style="fill:rgb(255, 255, 7);fill-opacity:1.0;fill-rule:evenodd;stroke:rgb(0, 0, 0);stroke-width:3.0;" d="M 103.738, 537.848 L 95.8975, 545.928 L 90.3671, 544.406 L 90.3107, 533.874 L 98.4131, 522.239 z "/>
<path style="fill:rgb(255, 255, 7);fill-opacity:1.0;fill-rule:evenodd;stroke:rgb(0, 0, 0);stroke-width:3.0;" d="M 774.063, 271.199 L 766.1, 322.624 L 680.491, 332.395 L 699.893, 248.858 z "/>
<path style="fill:rgb(246, 194, 69);fill-opacity:1.0;fill-rule:evenodd;stroke:rgb(0, 0, 0);stroke-width:3.0;" d="M 586.781, 446.897 L 607.871, 484.977 L 546.18, 452.635 L 567.414, 443.169 z "/>
<path style="fill:rgb(246, 194, 69);fill-opacity:1.0;fill-rule:evenodd;stroke:rgb(0, 0, 0);stroke-width:3.0;" d="M 649.343, 189.187 L 628.726, 183.175 L 630.807, 176.834 L 647.023, 167.407 z "/>
<path style="fill:rgb(246, 194, 69);fill-opacity:1.0;fill-rule:evenodd;stroke:rgb(0, 0, 0);stroke-width:3.0;" d="M 90.4472, 559.358 L 83.1241, 559.548 L 79.3509, 548.752 L 90.3349, 538.389 z "/>
<path style="fill:rgb(246, 194, 69);fill-opacity:1.0;fill-rule:evenodd;stroke:rgb(0, 0, 0);stroke-width:3.0;" d="M 683.994, 214.228 L 678.11, 208.009 L 705.841, 159.34 L 741.392, 142.914 L 744.235, 141.951 z "/>
<path style="fill:rgb(255, 17, 182);fill-opacity:1.0;fill-rule:evenodd;stroke:rgb(0, 0, 0);stroke-width:3.0;" d="M 379.982, 74.9668 L 364.615, 60.94 L 364.345, 59.0834 L 370.629, 38.023 z "/>
<path style="fill:rgb(255, 1, 123);fill-opacity:1.0;fill-rule:evenodd;stroke:rgb(0, 0, 0);stroke-width:3.0;" d="M 368.118, 325.118 L 358.34, 327.571 L 355.697, 133.772 z "/>
<path style="fill:rgb(69, 157, 252);fill-opacity:1.0;fill-rule:evenodd;stroke:rgb(0, 0, 0);stroke-width:3.0;" d="M 345.1, 540.267 L 330.496, 557.736 L 330.405, 557.659 L 318.556, 537.906 L 335.75, 520.503 z "/>
<path style="fill:rgb(69, 157, 252);fill-opacity:1.0;fill-rule:evenodd;stroke:rgb(0, 0, 0);stroke-width:3.0;" d="M 395.608, 333.317 L 390.656, 331.56 L 403.252, 316.305 L 416.306, 313.03 z "/>
<path style="fill:rgb(249, 43, 17);fill-opacity:1.0;fill-rule:evenodd;stroke:rgb(0, 0, 0);stroke-width:3.0;" d="M 336.545, 504.378 L 297.1, 509.198 L 336.29, 489.76 z "/>
<path style="fill:rgb(252, 255, 55);fill-opacity:1.0;fill-rule:evenodd;stroke:rgb(0, 0, 0);stroke-width:3.0;" d="M 504.264, 250.4 L 481.45, 263.663 L 433.428, 193.866 z "/>
<path style="fill:rgb(252, 255, 55);fill-opacity:1.0;fill-rule:evenodd;stroke:rgb(0, 0, 0);stroke-width:3.0;" d="M 758.388, 411.527 L 744.849, 424.063 L 739.504, 425.598 L 726.249, 418.773 L 740.314, 407.388 z "/>
<path style="fill:rgb(252, 255, 55);fill-opacity:1.0;fill-rule:evenodd;stroke:rgb(0, 0, 0);stroke-width:3.0;" d="M 294.416, 559.593 L 290.698, 564.003 L 228.538, 557.2 L 259.962, 537.649 z "/>
<path style="fill:rgb(255, 123, 103);fill-opacity:1.0;fill-rule:evenodd;stroke:rgb(0, 0, 0);stroke-width:3.0;" d="M 471.441, 357.451 L 469.015, 370.509 L 464.828, 378.517 L 462.143, 360.612 L 467.673, 354.052 z "/>
<path style="fill:rgb(255, 123, 103);fill-opacity:1.0;fill-rule:evenodd;stroke:rgb(0, 0, 0);stroke-width:3.0;" d="M 561.735, 442.075 L 528.568, 443.401 L 505.325, 431.216 z "/>
<path style="fill:rgb(255, 22, 115);fill-opacity:1.0;fill-rule:evenodd;stroke:rgb(0, 0, 0);stroke-width:3.0;" d="M 460.469, 319.343 L 434.092, 308.568 L 457.59, 302.674 z "/>
<path style="fill:rgb(255, 22, 115);fill-opacity:1.0;fill-rule:evenodd;stroke:rgb(0, 0, 0);stroke-width:3.0;" d="M 183.225, 448.428 L 148.607, 499.957 L 135.392, 496.757 L 128.674, 474.05 L 178.384, 444.872 z "/>
<path style="fill:rgb(255, 22, 115);fill-opacity:1.0;fill-rule:evenodd;stroke:rgb(0, 0, 0);stroke-width:3.0;" d="M 312.095, 495.524 L 291.034, 503.176 L 295.021, 437.097 L 306.536, 424.032 z "/>
<path style="fill:rgb(37, 128, 255);fill-opacity:1.0;fill-rule:evenodd;stroke:rgb(0, 0, 0);stroke-width:3.0;" d="M 690.733, 208.795 L 706.144, 213.461 L 707.442, 218.011 L 698.633, 219.631 L 688.114, 209.284 L 688.794, 208.468 z "/>
<path style="fill:rgb(37, 128, 255);fill-opacity:1.0;fill-rule:evenodd;stroke:rgb(0, 0, 0);stroke-width:3.0;" d="M 389.84, 32.6348 L 390.256, 42.1764 L 379.834, 40.1182 L 371.039, 26.8749 z "/>
<path style="fill:rgb(37, 128, 255);fill-opacity:1.0;fill-rule:evenodd;stroke:rgb(0, 0, 0);stroke-width:3.0;" d="M 730.245, 246.471 L 727.376, 247.906 L 718.663, 239.334 L 718.145, 227.652 L 729.874, 225.878 z "/>
<path style="fill:rgb(22, 32, 255);fill-opacity:1.0;fill-rule:evenodd;stroke:rgb(0, 0, 0);stroke-width:3.0;" d="M 601.288, 257.962 L 589.466, 279.692 L 587.29, 265.896 L 595.183, 257.907 z "/>
<path style="fill:rgb(22, 32, 255);fill-opacity:1.0;fill-rule:evenodd;stroke:rgb(0, 0, 0);stroke-width:3.0;" d="M 234.316, 517.431 L 238.339, 539.228 L 233.52, 546.229 L 219.944, 543.364 L 231.046, 515.923 z "/>
<path style="fill:rgb(223, 240, 7);fill-opacity:1.0;fill-rule:evenodd;stroke:rgb(0, 0, 0);stroke-width:3.0;" d="M 385.676, 155.755 L 410.668, 302.398 L 365.634, 286.855 L 355.697, 133.772 L 355.671, 131.809 z "/>
<path style="fill:rgb(105, 126, 255);fill-opacity:1.0;fill-rule:evenodd;stroke:rgb(0, 0, 0);stroke-width:3.0;" d="M 231.046, 515.923 L 219.944, 543.364 L 209.044, 541.064 L 229.9, 515.394 z "/>
<path style="fill:rgb(226, 62, 33);fill-opacity:1.0;fill-rule:evenodd;stroke:rgb(0, 0, 0);stroke-width:3.0;" d="M 734.444, 116.948 L 674.442, 154.498 L 674.959, 151.167 L 735.286, 116.096 z "/>
<path style="fill:rgb(226, 62, 33);fill-opacity:1.0;fill-rule:evenodd;stroke:rgb(0, 0, 0);stroke-width:3.0;" d="M 268.402, 533.151 L 269.849, 536.608 L 259.062, 537.076 L 248.718, 530.488 L 246.927, 527.743 L 247.223, 526.323 L 248.759, 524.092 z "/>
<path style="fill:rgb(226, 62, 33);fill-opacity:1.0;fill-rule:evenodd;stroke:rgb(0, 0, 0);stroke-width:3.0;" d="M 663.276, 237.655 L 664.978, 253.887 L 647.509, 259.192 L 639.65, 256.848 L 641.471, 234.6 L 642.5, 231.159 L 657.425, 229.741 z "/>
<path style="fill:rgb(255, 7, 86);fill-opacity:1.0;fill-rule:evenodd;stroke:rgb(0, 0, 0);stroke-width:3.0;" d="M 765.551, 265.132 L 748.063, 259.076 L 742.194, 224.98 L 746.234, 221.799 z "/>
<path style="fill:rgb(255, 7, 86);fill-opacity:1.0;fill-rule:evenodd;stroke:rgb(0, 0, 0);stroke-width:3.0;" d="M 81.8625, 537.854 L 68.7462, 535.705 L 71.5077, 516.869 L 81.2271, 510.812 z "/>
<path style="fill:rgb(255, 7, 86);fill-opacity:1.0;fill-rule:evenodd;stroke:rgb(0, 0, 0);stroke-width:3.0;" d="M 82.9348, 414.283 L 84.5906, 419.164 L 13.5546, 470.174 L 23.5053, 411.568 L 29.3785, 410.094 z "/>
<path style="fill:rgb(240, 9, 9);fill-opacity:1.0;fill-rule:evenodd;stroke:rgb(0, 0, 0);stroke-width:3.0;" d="M 618.891, 490.754 L 705.205, 536.006 L 488.34, 518.382 L 422.289, 447.932 L 454.81, 409.03 z "/>
<path style="fill:rgb(240, 7, 44);fill-opacity:1.0;fill-rule:evenodd;stroke:rgb(0, 0, 0);stroke-width:3.0;" d="M 160.914, 420.381 L 124.213, 458.627 L 99.1337, 462.035 L 82.9348, 414.283 z "/>
<path style="fill:rgb(240, 7, 44);fill-opacity:1.0;fill-rule:evenodd;stroke:rgb(0, 0, 0);stroke-width:3.0;" d="M 368.048, 374.883 L 362.783, 400.535 L 359.4, 406.003 L 352.433, 371.959 L 364.255, 358.546 z "/>
<path style="fill:rgb(255, 252, 78);fill-opacity:1.0;fill-rule:evenodd;stroke:rgb(0, 0, 0);stroke-width:3.0;" d="M 390.891, 56.7698 L 392.168, 86.0906 L 379.982, 74.9668 L 371.798, 42.6422 L 374.748, 32.4594 z "/>
<path style="fill:rgb(65, 255, 223);fill-opacity:1.0;fill-rule:evenodd;stroke:rgb(0, 0, 0);stroke-width:3.0;" d="M 370.879, 351.03 L 360.876, 362.379 L 288.449, 359.031 L 347.25, 343.302 z "/>
<path style="fill:rgb(65, 255, 223);fill-opacity:1.0;fill-rule:evenodd;stroke:rgb(0, 0, 0);stroke-width:3.0;" d="M 404.512, 421.328 L 379.856, 425.735 L 377.701, 416.453 z "/>
<path style="fill:rgb(65, 255, 223);fill-opacity:1.0;fill-rule:evenodd;stroke:rgb(0, 0, 0);stroke-width:3.0;" d="M 487.591, 330.422 L 479.035, 326.927 L 522.664, 288.813 z "/>
<path style="fill:rgb(50, 255, 197);fill-opacity:1.0;fill-rule:evenodd;stroke:rgb(0, 0, 0);stroke-width:3.0;" d="M 229.9, 515.394 L 209.869, 540.048 L 207.855, 540.813 L 204.274, 540.057 L 227.135, 514.119 z "/>
<path style="fill:rgb(50, 255, 197);fill-opacity:1.0;fill-rule:evenodd;stroke:rgb(0, 0, 0);stroke-width:3.0;" d="M 486.825, 153.846 L 489.79, 165.125 L 470.428, 157.509 L 466.183, 152.569 z "/>
<path style="fill:rgb(50, 255, 197);fill-opacity:1.0;fill-rule:evenodd;stroke:rgb(0, 0, 0);stroke-width:3.0;" d="M 101.262, 468.309 L 85.8556, 470.375 L 64.5863, 433.528 L 84.5906, 419.164 z "/>
<path style="fill:rgb(52, 121, 168);fill-opacity:1.0;fill-rule:evenodd;stroke:rgb(0, 0, 0);stroke-width:3.0;" d="M 213.894, 402.779 L 207.894, 371.424 L 215.619, 363.374 L 245.384, 355.907 z "/>
<path style="fill:rgb(52, 121, 168);fill-opacity:1.0;fill-rule:evenodd;stroke:rgb(0, 0, 0);stroke-width:3.0;" d="M 288.705, 358.962 L 266.293, 364.957 L 277.178, 347.932 L 305.2, 340.902 z "/>
<path style="fill:rgb(217, 6, 51);fill-opacity:1.0;fill-rule:evenodd;stroke:rgb(0, 0, 0);stroke-width:3.0;" d="M 93.6756, 490.449 L 90.5433, 493.713 L 78.3023, 491.981 L 78.0332, 485.724 L 91.2448, 478.253 z "/>
<path style="fill:rgb(217, 6, 51);fill-opacity:1.0;fill-rule:evenodd;stroke:rgb(0, 0, 0);stroke-width:3.0;" d="M 418.414, 412.489 L 410.106, 422.345 L 391.634, 418.986 L 404.185, 401.651 z "/>
<path style="fill:rgb(226, 255, 12);fill-opacity:1.0;fill-rule:evenodd;stroke:rgb(0, 0, 0);stroke-width:3.0;" d="M 78.8987, 505.848 L 74.5539, 510.375 L 67.6748, 495.498 L 67.9712, 491.415 L 78.0332, 485.724 z "/>
<path style="fill:rgb(226, 255, 12);fill-opacity:1.0;fill-rule:evenodd;stroke:rgb(0, 0, 0);stroke-width:3.0;" d="M 362.566, 46.8101 L 364.615, 60.94 L 351.238, 48.7301 L 355.622, 41.2416 z "/>
<path style="fill:rgb(32, 220, 255);fill-opacity:1.0;fill-rule:evenodd;stroke:rgb(0, 0, 0);stroke-width:3.0;" d="M 589.466, 279.692 L 580.938, 295.369 L 558.317, 295.222 L 587.29, 265.896 z "/>
<path style="fill:rgb(249, 237, 30);fill-opacity:1.0;fill-rule:evenodd;stroke:rgb(0, 0, 0);stroke-width:3.0;" d="M 259.962, 537.649 L 248.574, 544.734 L 232.482, 547.737 L 245.686, 528.557 z "/>
<path style="fill:rgb(249, 237, 30);fill-opacity:1.0;fill-rule:evenodd;stroke:rgb(0, 0, 0);stroke-width:3.0;" d="M 681.412, 170.626 L 688.095, 163.862 L 715.21, 151.789 L 741.392, 142.914 z "/>
<path style="fill:rgb(249, 237, 30);fill-opacity:1.0;fill-rule:evenodd;stroke:rgb(0, 0, 0);stroke-width:3.0;" d="M 178.384, 444.872 L 103.248, 488.973 L 96.6297, 487.371 L 154.351, 427.221 z "/>
<path style="fill:rgb(249, 237, 30);fill-opacity:1.0;fill-rule:evenodd;stroke:rgb(0, 0, 0);stroke-width:3.0;" d="M 787.551, 459.097 L 769.121, 481.758 L 770.523, 452.392 z "/>
<path style="fill:rgb(249, 237, 30);fill-opacity:1.0;fill-rule:evenodd;stroke:rgb(0, 0, 0);stroke-width:3.0;" d="M 360.876, 362.379 L 340.471, 385.53 L 336.74, 383.965 L 326.013, 360.767 z "/>
<path style="fill:rgb(249, 237, 30);fill-opacity:1.0;fill-rule:evenodd;stroke:rgb(0, 0, 0);stroke-width:3.0;" d="M 748.063, 259.076 L 739.896, 256.247 L 732.524, 232.592 L 742.194, 224.98 z "/>
<path style="fill:rgb(249, 237, 30);fill-opacity:1.0;fill-rule:evenodd;stroke:rgb(0, 0, 0);stroke-width:3.0;" d="M 737.668, 133.581 L 722.138, 149.441 L 692.377, 159.528 L 725.05, 126.456 z "/>
<path style="fill:rgb(249, 237, 30);fill-opacity:1.0;fill-rule:evenodd;stroke:rgb(0, 0, 0);stroke-width:3.0;" d="M 432.449, 395.839 L 425.801, 403.726 L 406.305, 403.265 L 383.145, 385.623 L 385.331, 378.191 L 394.248, 375.871 z "/>
<path style="fill:rgb(13, 88, 255);fill-opacity:1.0;fill-rule:evenodd;stroke:rgb(0, 0, 0);stroke-width:3.0;" d="M 487.733, 366.666 L 462.757, 391.948 L 458.508, 390.606 L 471.386, 365.973 z "/>
<path style="fill:rgb(26, 6, 243);fill-opacity:1.0;fill-rule:evenodd;stroke:rgb(0, 0, 0);stroke-width:3.0;" d="M 490.567, 363.798 L 487.733, 366.666 L 471.386, 365.973 L 475.804, 357.523 z "/>
<path style="fill:rgb(255, 24, 132);fill-opacity:1.0;fill-rule:evenodd;stroke:rgb(0, 0, 0);stroke-width:3.0;" d="M 380.092, 475.62 L 376.68, 479.074 L 363.508, 482.338 L 362.72, 478.561 L 374.021, 465.154 z "/>
<path style="fill:rgb(255, 255, 7);fill-opacity:1.0;fill-rule:evenodd;stroke:rgb(0, 0, 0);stroke-width:3.0;" d="M 340.471, 385.53 L 180.162, 567.414 L 176.218, 560.971 L 183.522, 451.685 L 338.865, 384.856 z "/>
<path style="fill:rgb(255, 86, 69);fill-opacity:1.0;fill-rule:evenodd;stroke:rgb(0, 0, 0);stroke-width:3.0;" d="M 774.521, 268.239 L 774.063, 271.199 L 710.245, 251.976 L 703.943, 243.796 z "/>
<path style="fill:rgb(255, 86, 69);fill-opacity:1.0;fill-rule:evenodd;stroke:rgb(0, 0, 0);stroke-width:3.0;" d="M 556.516, 51.5021 L 550.663, 98.8829 L 548.223, 53.5784 L 553.516, 41.8528 z "/>
<path style="fill:rgb(252, 40, 15);fill-opacity:1.0;fill-rule:evenodd;stroke:rgb(0, 0, 0);stroke-width:3.0;" d="M 770.523, 452.392 L 768.107, 502.999 L 726.691, 452.678 L 723.485, 433.871 z "/>
<path style="fill:rgb(252, 40, 15);fill-opacity:1.0;fill-rule:evenodd;stroke:rgb(0, 0, 0);stroke-width:3.0;" d="M 483.649, 141.766 L 486.825, 153.846 L 467.098, 152.626 L 467.329, 136.051 z "/>
<path style="fill:rgb(246, 5, 10);fill-opacity:1.0;fill-rule:evenodd;stroke:rgb(0, 0, 0);stroke-width:3.0;" d="M 678.463, 184.918 L 668.297, 183.901 L 681.412, 170.626 L 699.474, 162.281 z "/>
<path style="fill:rgb(246, 5, 10);fill-opacity:1.0;fill-rule:evenodd;stroke:rgb(0, 0, 0);stroke-width:3.0;" d="M 663.266, 188.993 L 650.679, 201.734 L 648.521, 181.474 z "/>
<path style="fill:rgb(246, 5, 10);fill-opacity:1.0;fill-rule:evenodd;stroke:rgb(0, 0, 0);stroke-width:3.0;" d="M 665.548, 230.498 L 678.42, 249.805 L 664.978, 253.887 L 662.412, 229.412 z "/>
<path style="fill:rgb(215, 234, 11);fill-opacity:1.0;fill-rule:evenodd;stroke:rgb(0, 0, 0);stroke-width:3.0;" d="M 445.619, 112.146 L 447.271, 117.616 L 443.898, 120.255 L 433.695, 123.996 L 425.576, 116.585 L 445.087, 111.725 z "/>
<path style="fill:rgb(215, 234, 11);fill-opacity:1.0;fill-rule:evenodd;stroke:rgb(0, 0, 0);stroke-width:3.0;" d="M 99.9369, 488.172 L 104.329, 523.794 L 100.449, 528.207 L 89.1707, 495.144 L 96.6297, 487.371 z "/>
<path style="fill:rgb(215, 234, 11);fill-opacity:1.0;fill-rule:evenodd;stroke:rgb(0, 0, 0);stroke-width:3.0;" d="M 464.534, 357.776 L 454.235, 369.994 L 443.01, 367.331 L 439.203, 361.266 L 440.969, 349.414 z "/>
<path style="fill:rgb(215, 234, 11);fill-opacity:1.0;fill-rule:evenodd;stroke:rgb(0, 0, 0);stroke-width:3.0;" d="M 711.663, 469.228 L 695.857, 531.105 L 686.968, 526.445 L 678.356, 455.906 L 708.541, 448.116 z "/>
<path style="fill:rgb(23, 170, 255);fill-opacity:1.0;fill-rule:evenodd;stroke:rgb(0, 0, 0);stroke-width:3.0;" d="M 531.913, 311.018 L 527.945, 310.125 L 520.538, 291.336 L 525.299, 285.688 L 570.534, 274.34 z "/>
<path style="fill:rgb(249, 226, 26);fill-opacity:1.0;fill-rule:evenodd;stroke:rgb(0, 0, 0);stroke-width:3.0;" d="M 213.894, 402.779 L 183.225, 448.428 L 154.351, 427.221 L 207.894, 371.424 z "/>
<path style="fill:rgb(249, 226, 26);fill-opacity:1.0;fill-rule:evenodd;stroke:rgb(0, 0, 0);stroke-width:3.0;" d="M 89.5643, 539.116 L 83.4463, 544.888 L 71.5409, 548.619 L 75.3782, 536.792 z "/>
<path style="fill:rgb(240, 150, 67);fill-opacity:1.0;fill-rule:evenodd;stroke:rgb(0, 0, 0);stroke-width:3.0;" d="M 34.9297, 537.499 L 33.3459, 538.618 L 33.2643, 538.63 L 12.3246, 536.6 L 25.7235, 528.006 z "/>
<path style="fill:rgb(240, 150, 67);fill-opacity:1.0;fill-rule:evenodd;stroke:rgb(0, 0, 0);stroke-width:3.0;" d="M 586.781, 446.897 L 528.268, 435.633 L 568.679, 414.213 z "/>
<path style="fill:rgb(240, 150, 67);fill-opacity:1.0;fill-rule:evenodd;stroke:rgb(0, 0, 0);stroke-width:3.0;" d="M 681.973, 523.826 L 657.163, 510.819 L 661.896, 497.369 z "/>
<path style="fill:rgb(255, 25, 22);fill-opacity:1.0;fill-rule:evenodd;stroke:rgb(0, 0, 0);stroke-width:3.0;" d="M 65.3244, 492.911 L 56.8865, 497.683 L 59.213, 473.947 L 61.7953, 473.601 z "/>
<path style="fill:rgb(44, 187, 255);fill-opacity:1.0;fill-rule:evenodd;stroke:rgb(0, 0, 0);stroke-width:3.0;" d="M 56.8865, 497.683 L 56.207, 498.068 L 42.6084, 486.5 L 53.2044, 474.752 L 59.213, 473.947 z "/>
<path style="fill:rgb(255, 74, 220);fill-opacity:1.0;fill-rule:evenodd;stroke:rgb(0, 0, 0);stroke-width:3.0;" d="M 548.893, 363.544 L 566.364, 393.868 L 563.835, 395.626 L 541.324, 364.823 L 540.824, 363.919 L 544.157, 362.46 z "/>
<path style="fill:rgb(237, 21, 21);fill-opacity:1.0;fill-rule:evenodd;stroke:rgb(0, 0, 0);stroke-width:3.0;" d="M 730.683, 71.7174 L 723.813, 89.1801 L 719.835, 80.7829 L 725.971, 46.6608 z "/>
<path style="fill:rgb(255, 91, 10);fill-opacity:1.0;fill-rule:evenodd;stroke:rgb(0, 0, 0);stroke-width:3.0;" d="M 741.492, 44.2445 L 730.683, 71.7174 L 725.971, 46.6608 L 729.117, 29.1634 z "/>
<path style="fill:rgb(255, 255, 50);fill-opacity:1.0;fill-rule:evenodd;stroke:rgb(0, 0, 0);stroke-width:3.0;" d="M 724.801, 403.835 L 718.595, 422.157 L 709.004, 410.958 L 722.551, 403.319 z "/>
<path style="fill:rgb(255, 255, 50);fill-opacity:1.0;fill-rule:evenodd;stroke:rgb(0, 0, 0);stroke-width:3.0;" d="M 388.016, 510.229 L 371.344, 508.874 L 383.414, 494.434 z "/>
<path style="fill:rgb(255, 255, 50);fill-opacity:1.0;fill-rule:evenodd;stroke:rgb(0, 0, 0);stroke-width:3.0;" d="M 338.772, 506.972 L 329.685, 517.752 L 318.922, 506.532 L 336.656, 504.364 z "/>
<path style="fill:rgb(255, 115, 231);fill-opacity:1.0;fill-rule:evenodd;stroke:rgb(0, 0, 0);stroke-width:3.0;" d="M 716.893, 199.384 L 717.51, 213.307 L 709.297, 211.923 L 703.118, 191.282 L 710.742, 182.135 z "/>
<path style="fill:rgb(255, 115, 231);fill-opacity:1.0;fill-rule:evenodd;stroke:rgb(0, 0, 0);stroke-width:3.0;" d="M 404.595, 454.124 L 405.627, 462.912 L 399.289, 468.72 L 388.266, 467.346 L 401.509, 453.942 z "/>
<path style="fill:rgb(243, 237, 21);fill-opacity:1.0;fill-rule:evenodd;stroke:rgb(0, 0, 0);stroke-width:3.0;" d="M 139.728, 397.922 L 98.3711, 392.787 L 143.041, 381.581 z "/>
<path style="fill:rgb(243, 237, 21);fill-opacity:1.0;fill-rule:evenodd;stroke:rgb(0, 0, 0);stroke-width:3.0;" d="M 386.2, 387.95 L 396.662, 395.92 L 387.626, 399.966 L 374.264, 401.654 L 370.621, 385.963 z "/>
<path style="fill:rgb(243, 237, 21);fill-opacity:1.0;fill-rule:evenodd;stroke:rgb(0, 0, 0);stroke-width:3.0;" d="M 768.107, 502.999 L 765.035, 567.372 L 744.402, 556.556 L 726.691, 452.678 z "/>
<path style="fill:rgb(11, 75, 255);fill-opacity:1.0;fill-rule:evenodd;stroke:rgb(0, 0, 0);stroke-width:3.0;" d="M 674, 157.343 L 670.175, 182.001 L 663.266, 188.993 L 648.521, 181.474 L 647.023, 167.407 L 674.41, 151.486 z "/>
<path style="fill:rgb(11, 75, 255);fill-opacity:1.0;fill-rule:evenodd;stroke:rgb(0, 0, 0);stroke-width:3.0;" d="M 172.113, 408.711 L 160.914, 420.381 L 146.702, 419.27 L 138.88, 402.106 L 143.041, 381.581 L 176.218, 373.258 z "/>
<path style="fill:rgb(159, 255, 124);fill-opacity:1.0;fill-rule:evenodd;stroke:rgb(0, 0, 0);stroke-width:3.0;" d="M 195.086, 384.771 L 172.113, 408.711 L 174.575, 387.448 L 184.894, 376.584 z "/>
<path style="fill:rgb(159, 255, 124);fill-opacity:1.0;fill-rule:evenodd;stroke:rgb(0, 0, 0);stroke-width:3.0;" d="M 299.98, 583.441 L 292.278, 580.175 L 292.226, 580.005 L 293.142, 566.121 L 293.575, 565.101 L 298.798, 564.624 z "/>
<path style="fill:rgb(159, 255, 124);fill-opacity:1.0;fill-rule:evenodd;stroke:rgb(0, 0, 0);stroke-width:3.0;" d="M 707.013, 399.76 L 712.691, 444.618 L 678.353, 455.88 L 676.376, 439.69 L 694.088, 396.8 z "/>
<path style="fill:rgb(197, 6, 8);fill-opacity:1.0;fill-rule:evenodd;stroke:rgb(0, 0, 0);stroke-width:3.0;" d="M 649.343, 189.187 L 649.729, 192.813 L 646.889, 205.529 L 646.136, 205.486 L 627.953, 185.533 L 628.726, 183.175 z "/>
<path style="fill:rgb(197, 6, 8);fill-opacity:1.0;fill-rule:evenodd;stroke:rgb(0, 0, 0);stroke-width:3.0;" d="M 728.169, 404.606 L 718.43, 442.736 L 712.691, 444.618 L 712.228, 440.956 L 724.801, 403.835 z "/>
<path style="fill:rgb(49, 35, 255);fill-opacity:1.0;fill-rule:evenodd;stroke:rgb(0, 0, 0);stroke-width:3.0;" d="M 139.728, 397.922 L 135.577, 418.4 L 29.3785, 410.094 L 98.3711, 392.787 z "/>
<path style="fill:rgb(172, 62, 85);fill-opacity:1.0;fill-rule:evenodd;stroke:rgb(0, 0, 0);stroke-width:3.0;" d="M 723.485, 433.871 L 730.798, 476.762 L 713.813, 460.811 L 720.949, 432.873 z "/>
<path style="fill:rgb(255, 237, 9);fill-opacity:1.0;fill-rule:evenodd;stroke:rgb(0, 0, 0);stroke-width:3.0;" d="M 93.6756, 490.449 L 91.2448, 478.253 L 111.179, 466.979 L 116.939, 466.207 z "/>
<path style="fill:rgb(49, 226, 255);fill-opacity:1.0;fill-rule:evenodd;stroke:rgb(0, 0, 0);stroke-width:3.0;" d="M 685.102, 195.739 L 668.058, 197.384 L 667.47, 196.762 L 699.474, 162.281 L 705.841, 159.34 z "/>
<path style="fill:rgb(86, 56, 234);fill-opacity:1.0;fill-rule:evenodd;stroke:rgb(0, 0, 0);stroke-width:3.0;" d="M 537.159, 316.638 L 514.452, 339.622 L 505.055, 334.179 L 508.486, 314.644 L 515.5, 312.752 z "/>
<path style="fill:rgb(255, 124, 255);fill-opacity:1.0;fill-rule:evenodd;stroke:rgb(0, 0, 0);stroke-width:3.0;" d="M 505.055, 334.179 L 499.2, 330.786 L 497.215, 319.005 L 498.655, 317.297 L 508.486, 314.644 z "/>
<path style="fill:rgb(209, 161, 9);fill-opacity:1.0;fill-rule:evenodd;stroke:rgb(0, 0, 0);stroke-width:3.0;" d="M 233.52, 546.229 L 227.622, 554.797 L 199.55, 545.417 L 204.274, 540.057 z "/>
<path style="fill:rgb(212, 1, 243);fill-opacity:1.0;fill-rule:evenodd;stroke:rgb(0, 0, 0);stroke-width:3.0;" d="M 381.503, 432.828 L 385.772, 451.213 L 383.969, 453.353 L 369.649, 458.516 L 368.445, 424.194 z "/>
<path style="fill:rgb(212, 1, 243);fill-opacity:1.0;fill-rule:evenodd;stroke:rgb(0, 0, 0);stroke-width:3.0;" d="M 404.185, 401.651 L 391.634, 418.986 L 377.701, 416.453 L 374.264, 401.654 L 399.933, 398.411 z "/>
<path style="fill:rgb(252, 7, 8);fill-opacity:1.0;fill-rule:evenodd;stroke:rgb(0, 0, 0);stroke-width:3.0;" d="M 307.002, 526.189 L 307.136, 526.554 L 279.399, 536.217 L 257.012, 514.098 L 282.855, 510.939 z "/>
<path style="fill:rgb(215, 22, 202);fill-opacity:1.0;fill-rule:evenodd;stroke:rgb(0, 0, 0);stroke-width:3.0;" d="M 488.552, 280.588 L 489.938, 294.559 L 478.799, 297.353 L 478.241, 265.528 L 481.219, 263.797 z "/>
<path style="fill:rgb(215, 22, 202);fill-opacity:1.0;fill-rule:evenodd;stroke:rgb(0, 0, 0);stroke-width:3.0;" d="M 632.487, 530.096 L 652.852, 545.466 L 573.375, 528.88 L 611.475, 528.389 z "/>
<path style="fill:rgb(165, 252, 226);fill-opacity:1.0;fill-rule:evenodd;stroke:rgb(0, 0, 0);stroke-width:3.0;" d="M 709.297, 211.923 L 688.794, 208.468 L 703.118, 191.282 z "/>
<path style="fill:rgb(168, 255, 11);fill-opacity:1.0;fill-rule:evenodd;stroke:rgb(0, 0, 0);stroke-width:3.0;" d="M 669.377, 476.117 L 662.059, 474.361 L 666.755, 462.988 L 675.462, 458.828 z "/>
<path style="fill:rgb(255, 48, 110);fill-opacity:1.0;fill-rule:evenodd;stroke:rgb(0, 0, 0);stroke-width:3.0;" d="M 663.882, 491.728 L 657.163, 510.819 L 655.114, 509.745 L 654.127, 499.292 L 654.4, 498.261 L 659.388, 490.76 z "/>
<path style="fill:rgb(79, 5, 231);fill-opacity:1.0;fill-rule:evenodd;stroke:rgb(0, 0, 0);stroke-width:3.0;" d="M 348.486, 536.217 L 347.597, 537.279 L 341.684, 533.046 L 335.75, 520.503 L 336.054, 520.195 L 343.087, 518.176 z "/>
<path style="fill:rgb(246, 255, 70);fill-opacity:1.0;fill-rule:evenodd;stroke:rgb(0, 0, 0);stroke-width:3.0;" d="M 530.659, 349.056 L 518.207, 346.315 L 560.242, 324.623 z "/>
<path style="fill:rgb(228, 246, 9);fill-opacity:1.0;fill-rule:evenodd;stroke:rgb(0, 0, 0);stroke-width:3.0;" d="M 359.355, 405.782 L 360.529, 411.52 L 345.801, 483.277 L 312.095, 495.524 L 306.536, 424.032 L 324.776, 403.338 z "/>
<path style="fill:rgb(19, 255, 157);fill-opacity:1.0;fill-rule:evenodd;stroke:rgb(0, 0, 0);stroke-width:3.0;" d="M 326.013, 360.767 L 336.74, 383.965 L 281.648, 360.85 L 288.449, 359.031 z "/>
<path style="fill:rgb(41, 154, 255);fill-opacity:1.0;fill-rule:evenodd;stroke:rgb(0, 0, 0);stroke-width:3.0;" d="M 717.773, 49.9596 L 724.275, 56.09 L 719.835, 80.7829 L 708.453, 56.7601 L 710.218, 48.4168 z "/>
<path style="fill:rgb(110, 189, 217);fill-opacity:1.0;fill-rule:evenodd;stroke:rgb(0, 0, 0);stroke-width:3.0;" d="M 744.402, 556.556 L 698.685, 532.588 L 739.672, 528.813 z "/>
<path style="fill:rgb(202, 9, 17);fill-opacity:1.0;fill-rule:evenodd;stroke:rgb(0, 0, 0);stroke-width:3.0;" d="M 511.409, 298.646 L 479.035, 326.927 L 460.469, 319.343 L 457.59, 302.674 L 500.671, 291.866 z "/>
<path style="fill:rgb(21, 11, 255);fill-opacity:1.0;fill-rule:evenodd;stroke:rgb(0, 0, 0);stroke-width:3.0;" d="M 303.183, 549.192 L 299.174, 553.948 L 273.884, 546.244 L 268.402, 533.151 z "/>
<path style="fill:rgb(207, 7, 88);fill-opacity:1.0;fill-rule:evenodd;stroke:rgb(0, 0, 0);stroke-width:3.0;" d="M 746.877, 138.781 L 744.235, 141.951 L 722.138, 149.441 L 737.668, 133.581 z "/>
<path style="fill:rgb(255, 19, 115);fill-opacity:1.0;fill-rule:evenodd;stroke:rgb(0, 0, 0);stroke-width:3.0;" d="M 784.644, 298.344 L 768.967, 304.109 L 770.101, 296.789 L 783.535, 291.081 L 788.252, 290.819 z "/>
<path style="fill:rgb(107, 243, 246);fill-opacity:1.0;fill-rule:evenodd;stroke:rgb(0, 0, 0);stroke-width:3.0;" d="M 484.979, 518.109 L 474.92, 517.291 L 464.182, 494.729 z "/>
<path style="fill:rgb(252, 142, 21);fill-opacity:1.0;fill-rule:evenodd;stroke:rgb(0, 0, 0);stroke-width:3.0;" d="M 705.205, 536.006 L 724.956, 546.36 L 720.115, 559.503 L 652.852, 545.466 L 632.487, 530.096 z "/>
<path style="fill:rgb(255, 27, 204);fill-opacity:1.0;fill-rule:evenodd;stroke:rgb(0, 0, 0);stroke-width:3.0;" d="M 135.392, 496.757 L 103.248, 488.973 L 128.674, 474.05 z "/>
<path style="fill:rgb(255, 88, 252);fill-opacity:1.0;fill-rule:evenodd;stroke:rgb(0, 0, 0);stroke-width:3.0;" d="M 539.414, 361.373 L 568.679, 414.213 L 528.268, 435.633 L 505.325, 431.216 L 451.724, 403.115 L 501.534, 352.697 z "/>
</svg>