<?xml version="1.0" encoding="iso-8859-1" standalone="no"?>
<!DOCTYPE svg PUBLIC "-//W3C//DTD SVG 1.0//EN" "http://www.w3.org/TR/2001/REC-SVG-20010904/DTD/svg10.dtd">
<svg xmlns="http://www.w3.org/2000/svg" width="800" height="600">
<path style="fill:rgb(0, 0, 0);fill-opacity:0.0;fill-rule:evenodd;stroke:rgb(0, 0, 0);stroke-width:0.0;" d="M 0, 600 L 800, 600 L 800, 0 L 0, 0 z "/>
<path style="fill:rgb(255, 11, 88);fill-opacity:1.0;fill-rule:evenodd;stroke:rgb(0, 0, 0);stroke-width:3.0;" d="M 112.738, 376.275 L 109.167, 389.39 L 104.7, 392.415 L 81.9465, 382.091 L 67.8961, 346.345 z "/>
<path style="fill:rgb(255, 11, 88);fill-opacity:1.0;fill-rule:evenodd;stroke:rgb(0, 0, 0);stroke-width:3.0;" d="M 84.3904, 403.649 L 83.2327, 404.846 L 57.8383, 388.022 L 58.2854, 386.981 L 77.4827, 382.184 z "/>
<path style="fill:rgb(255, 11, 88);fill-opacity:1.0;fill-rule:evenodd;stroke:rgb(0, 0, 0);stroke-width:3.0;" d="M 790.029, 513.021 L 785.616, 517.49 L 778.111, 506.935 L 789.421, 501.946 z "/>
<path style="fill:rgb(255, 11, 88);fill-opacity:1.0;fill-rule:evenodd;stroke:rgb(0, 0, 0);stroke-width:3.0;" d="M 311.138, 98.9277 L 310.602, 103.058 L 299.941, 110.237 L 267.599, 98.5444 L 267.243, 90.8064 L 279.253, 87.1855 z "/>
<path style="fill:rgb(255, 11, 88);fill-opacity:1.0;fill-rule:evenodd;stroke:rgb(0, 0, 0);stroke-width:3.0;" d="M 517.566, 361.061 L 528.452, 366.895 L 517.729, 372.596 L 510.129, 374.574 L 507.907, 358.224 z "/>
<path style="fill:rgb(255, 11, 88);fill-opacity:1.0;fill-rule:evenodd;stroke:rgb(0, 0, 0);stroke-width:3.0;" d="M 753.32, 528.63 L 751.402, 531.9 L 703.748, 539.737 L 737.211, 524.976 z "/>
<path style="fill:rgb(255, 11, 88);fill-opacity:1.0;fill-rule:evenodd;stroke:rgb(0, 0, 0);stroke-width:3.0;" d="M 222.145, 195.862 L 186.606, 210.424 L 168.266, 199.665 L 227.973, 187.553 z "/>
<path style="fill:rgb(255, 11, 88);fill-opacity:1.0;fill-rule:evenodd;stroke:rgb(0, 0, 0);stroke-width:3.0;" d="M 145.823, 366.049 L 110.596, 418.307 L 110.271, 418.287 L 102.117, 415.283 L 115.968, 364.411 z "/>
<path style="fill:rgb(255, 11, 88);fill-opacity:1.0;fill-rule:evenodd;stroke:rgb(0, 0, 0);stroke-width:3.0;" d="M 530.129, 464.325 L 520.828, 446.129 L 612.281, 349.855 z "/>
<path style="fill:rgb(255, 202, 47);fill-opacity:1.0;fill-rule:evenodd;stroke:rgb(0, 0, 0);stroke-width:3.0;" d="M 607.062, 221.433 L 602.179, 223.451 L 594.08, 216.553 L 605.908, 169.24 L 613.686, 167.372 z "/>
<path style="fill:rgb(255, 202, 47);fill-opacity:1.0;fill-rule:evenodd;stroke:rgb(0, 0, 0);stroke-width:3.0;" d="M 311.138, 98.9277 L 301.131, 95.2423 L 304.474, 86.7806 L 312.915, 85.2391 z "/>
<path style="fill:rgb(255, 202, 47);fill-opacity:1.0;fill-rule:evenodd;stroke:rgb(0, 0, 0);stroke-width:3.0;" d="M 236.022, 239.415 L 204.549, 220.951 L 227.973, 187.553 L 265.517, 179.936 z "/>
<path style="fill:rgb(255, 202, 47);fill-opacity:1.0;fill-rule:evenodd;stroke:rgb(0, 0, 0);stroke-width:3.0;" d="M 772.657, 527.522 L 777.825, 534.188 L 737.211, 524.976 L 743.882, 522.034 z "/>
<path style="fill:rgb(231, 66, 6);fill-opacity:1.0;fill-rule:evenodd;stroke:rgb(0, 0, 0);stroke-width:3.0;" d="M 150.887, 567.122 L 141.91, 572.693 L 110.329, 576.114 L 112.447, 557.105 L 124.466, 547.232 z "/>
<path style="fill:rgb(255, 13, 170);fill-opacity:1.0;fill-rule:evenodd;stroke:rgb(0, 0, 0);stroke-width:3.0;" d="M 422.092, 336.372 L 412.112, 314.665 L 414.232, 308.083 L 443.215, 286.881 z "/>
<path style="fill:rgb(255, 13, 170);fill-opacity:1.0;fill-rule:evenodd;stroke:rgb(0, 0, 0);stroke-width:3.0;" d="M 298.14, 265.008 L 263.43, 134.821 L 394.462, 46.5934 z "/>
<path style="fill:rgb(255, 0, 34);fill-opacity:1.0;fill-rule:evenodd;stroke:rgb(0, 0, 0);stroke-width:3.0;" d="M 74.0471, 304.594 L 59.4038, 322.273 L 57.0615, 318.781 L 45.9505, 290.514 L 45.3119, 281.684 L 48.9803, 279.214 z "/>
<path style="fill:rgb(255, 0, 34);fill-opacity:1.0;fill-rule:evenodd;stroke:rgb(0, 0, 0);stroke-width:3.0;" d="M 92.3388, 451.197 L 75.3568, 513.568 L 58.6067, 421.527 z "/>
<path style="fill:rgb(255, 204, 37);fill-opacity:1.0;fill-rule:evenodd;stroke:rgb(0, 0, 0);stroke-width:3.0;" d="M 132.048, 223.283 L 101.393, 243.924 L 67.0838, 209.332 z "/>
<path style="fill:rgb(48, 144, 255);fill-opacity:1.0;fill-rule:evenodd;stroke:rgb(0, 0, 0);stroke-width:3.0;" d="M 688.77, 517.582 L 535.077, 591.76 L 559.359, 465.639 L 637.733, 420.57 z "/>
<path style="fill:rgb(212, 0, 9);fill-opacity:1.0;fill-rule:evenodd;stroke:rgb(0, 0, 0);stroke-width:3.0;" d="M 642.852, 140.847 L 639.582, 139.817 L 625.564, 127.703 L 674.407, 117.765 z "/>
<path style="fill:rgb(212, 0, 9);fill-opacity:1.0;fill-rule:evenodd;stroke:rgb(0, 0, 0);stroke-width:3.0;" d="M 712.625, 535.821 L 700.362, 541.23 L 681.099, 537.841 L 693.411, 527.223 z "/>
<path style="fill:rgb(212, 0, 9);fill-opacity:1.0;fill-rule:evenodd;stroke:rgb(0, 0, 0);stroke-width:3.0;" d="M 202.235, 369.144 L 115.968, 364.411 L 126.836, 324.496 z "/>
<path style="fill:rgb(212, 0, 9);fill-opacity:1.0;fill-rule:evenodd;stroke:rgb(0, 0, 0);stroke-width:3.0;" d="M 611.304, 370.335 L 567.801, 460.785 L 559.359, 465.639 L 570.421, 408.183 L 605.5, 359.303 z "/>
<path style="fill:rgb(240, 24, 92);fill-opacity:1.0;fill-rule:evenodd;stroke:rgb(0, 0, 0);stroke-width:3.0;" d="M 688.65, 25.4224 L 659.494, 106.522 L 620.038, 117.684 L 629.143, 89.7099 L 688.399, 22.4282 z "/>
<path style="fill:rgb(240, 24, 92);fill-opacity:1.0;fill-rule:evenodd;stroke:rgb(0, 0, 0);stroke-width:3.0;" d="M 96.3066, 357.07 L 95.8878, 363.132 L 93.1095, 363.174 L 67.8961, 346.345 L 67.2416, 344.68 z "/>
<path style="fill:rgb(240, 24, 92);fill-opacity:1.0;fill-rule:evenodd;stroke:rgb(0, 0, 0);stroke-width:3.0;" d="M 125.018, 331.173 L 119.676, 350.793 L 106.176, 337.125 L 118.101, 328.081 z "/>
<path style="fill:rgb(255, 24, 7);fill-opacity:1.0;fill-rule:evenodd;stroke:rgb(0, 0, 0);stroke-width:3.0;" d="M 108.945, 588.528 L 100.593, 590.338 L 99.5712, 583.155 L 102.71, 567.979 L 111.251, 567.837 z "/>
<path style="fill:rgb(255, 5, 119);fill-opacity:1.0;fill-rule:evenodd;stroke:rgb(0, 0, 0);stroke-width:3.0;" d="M 564.213, 440.424 L 551.391, 507.023 L 526.239, 469.746 L 549.817, 436.892 z "/>
<path style="fill:rgb(6, 13, 255);fill-opacity:1.0;fill-rule:evenodd;stroke:rgb(0, 0, 0);stroke-width:3.0;" d="M 93.9258, 284.947 L 68.9846, 280.569 L 69.8072, 279.372 L 92.2792, 276.045 z "/>
<path style="fill:rgb(243, 64, 30);fill-opacity:1.0;fill-rule:evenodd;stroke:rgb(0, 0, 0);stroke-width:3.0;" d="M 537.516, 579.091 L 532.146, 571.84 L 526.153, 540.068 L 547.71, 526.142 z "/>
<path style="fill:rgb(243, 64, 30);fill-opacity:1.0;fill-rule:evenodd;stroke:rgb(0, 0, 0);stroke-width:3.0;" d="M 525.218, 256.395 L 524.258, 259.056 L 492.499, 250.83 L 503.209, 242.996 z "/>
<path style="fill:rgb(134, 252, 255);fill-opacity:1.0;fill-rule:evenodd;stroke:rgb(0, 0, 0);stroke-width:3.0;" d="M 564.213, 440.424 L 549.817, 436.892 L 556.883, 427.046 L 566.893, 426.509 z "/>
<path style="fill:rgb(134, 252, 255);fill-opacity:1.0;fill-rule:evenodd;stroke:rgb(0, 0, 0);stroke-width:3.0;" d="M 513.85, 547.134 L 491.936, 517.544 L 521.077, 476.939 z "/>
<path style="fill:rgb(134, 252, 255);fill-opacity:1.0;fill-rule:evenodd;stroke:rgb(0, 0, 0);stroke-width:3.0;" d="M 694.619, 96.5843 L 659.494, 106.522 L 688.65, 25.4224 z "/>
<path style="fill:rgb(134, 252, 255);fill-opacity:1.0;fill-rule:evenodd;stroke:rgb(0, 0, 0);stroke-width:3.0;" d="M 412.469, 313.557 L 408.399, 326.195 L 390.775, 325.241 L 411.92, 309.774 z "/>
<path style="fill:rgb(134, 252, 255);fill-opacity:1.0;fill-rule:evenodd;stroke:rgb(0, 0, 0);stroke-width:3.0;" d="M 101.847, 391.12 L 89.1682, 400.464 L 81.9465, 382.091 z "/>
<path style="fill:rgb(134, 252, 255);fill-opacity:1.0;fill-rule:evenodd;stroke:rgb(0, 0, 0);stroke-width:3.0;" d="M 637.188, 285.15 L 635.076, 292.959 L 592.717, 307.536 L 612.11, 281.84 z "/>
<path style="fill:rgb(134, 252, 255);fill-opacity:1.0;fill-rule:evenodd;stroke:rgb(0, 0, 0);stroke-width:3.0;" d="M 217.77, 202.1 L 204.549, 220.951 L 186.606, 210.424 L 215.473, 198.595 z "/>
<path style="fill:rgb(134, 252, 255);fill-opacity:1.0;fill-rule:evenodd;stroke:rgb(0, 0, 0);stroke-width:3.0;" d="M 73.9555, 559.809 L 51.9786, 586.68 L 45.3834, 582.972 L 45.119, 578.089 L 71.0977, 559.085 z "/>
<path style="fill:rgb(209, 76, 168);fill-opacity:1.0;fill-rule:evenodd;stroke:rgb(0, 0, 0);stroke-width:3.0;" d="M 130.42, 311.333 L 124.737, 323.048 L 106.176, 337.125 L 105.296, 336.234 L 101.29, 294.32 L 138.639, 281.149 z "/>
<path style="fill:rgb(209, 76, 168);fill-opacity:1.0;fill-rule:evenodd;stroke:rgb(0, 0, 0);stroke-width:3.0;" d="M 228.773, 370.6 L 202.235, 369.144 L 126.836, 324.496 L 146.069, 253.859 z "/>
<path style="fill:rgb(209, 76, 168);fill-opacity:1.0;fill-rule:evenodd;stroke:rgb(0, 0, 0);stroke-width:3.0;" d="M 13.4166, 114.89 L 50.3097, 187.444 L 36.0475, 198.466 L 8.95057, 111.721 z "/>
<path style="fill:rgb(202, 4, 91);fill-opacity:1.0;fill-rule:evenodd;stroke:rgb(0, 0, 0);stroke-width:3.0;" d="M 296.542, 109.008 L 296.949, 109.155 L 261.758, 125.822 L 260.735, 125.305 L 259.688, 105.527 z "/>
<path style="fill:rgb(202, 4, 91);fill-opacity:1.0;fill-rule:evenodd;stroke:rgb(0, 0, 0);stroke-width:3.0;" d="M 509.716, 255.29 L 486.453, 265.252 L 474.874, 263.723 L 492.499, 250.83 z "/>
<path style="fill:rgb(202, 4, 91);fill-opacity:1.0;fill-rule:evenodd;stroke:rgb(0, 0, 0);stroke-width:3.0;" d="M 480.937, 568.972 L 462.179, 565.865 L 459.015, 563.416 L 485.774, 526.13 z "/>
<path style="fill:rgb(202, 4, 91);fill-opacity:1.0;fill-rule:evenodd;stroke:rgb(0, 0, 0);stroke-width:3.0;" d="M 607.616, 562.754 L 600.438, 577.534 L 591.288, 564.63 L 599.272, 560.776 z "/>
<path style="fill:rgb(202, 4, 91);fill-opacity:1.0;fill-rule:evenodd;stroke:rgb(0, 0, 0);stroke-width:3.0;" d="M 312.915, 85.2391 L 304.474, 86.7806 L 316.746, 55.7175 z "/>
<path style="fill:rgb(202, 4, 91);fill-opacity:1.0;fill-rule:evenodd;stroke:rgb(0, 0, 0);stroke-width:3.0;" d="M 567.754, 246.493 L 568.618, 248.008 L 561.517, 272.372 L 542.994, 248.219 L 546.153, 237.519 z "/>
<path style="fill:rgb(202, 4, 91);fill-opacity:1.0;fill-rule:evenodd;stroke:rgb(0, 0, 0);stroke-width:3.0;" d="M 241.418, 467.818 L 213.531, 494.149 L 221.126, 449.34 L 227.959, 444.341 z "/>
<path style="fill:rgb(202, 4, 91);fill-opacity:1.0;fill-rule:evenodd;stroke:rgb(0, 0, 0);stroke-width:3.0;" d="M 606.3, 231.536 L 614.685, 248.039 L 610.855, 247.884 L 583.83, 230.412 L 583.27, 229.297 z "/>
<path style="fill:rgb(91, 0, 255);fill-opacity:1.0;fill-rule:evenodd;stroke:rgb(0, 0, 0);stroke-width:3.0;" d="M 685.544, 523.703 L 661.663, 548.162 L 626.07, 553.194 L 627.768, 547.023 L 680.636, 521.507 z "/>
<path style="fill:rgb(194, 124, 175);fill-opacity:1.0;fill-rule:evenodd;stroke:rgb(0, 0, 0);stroke-width:3.0;" d="M 638.582, 261.614 L 632.665, 284.553 L 630.673, 284.29 L 621.84, 276.677 L 634.442, 260.007 z "/>
<path style="fill:rgb(255, 240, 17);fill-opacity:1.0;fill-rule:evenodd;stroke:rgb(0, 0, 0);stroke-width:3.0;" d="M 590.351, 266.295 L 591.749, 278.525 L 590.735, 279.018 L 585.941, 278.385 L 578.959, 266.142 L 586.667, 262.178 z "/>
<path style="fill:rgb(246, 52, 110);fill-opacity:1.0;fill-rule:evenodd;stroke:rgb(0, 0, 0);stroke-width:3.0;" d="M 39.7673, 130.83 L 34.1255, 129.589 L 26.7893, 124.382 L 24.6927, 92.0016 L 38.843, 64.1235 z "/>
<path style="fill:rgb(246, 52, 110);fill-opacity:1.0;fill-rule:evenodd;stroke:rgb(0, 0, 0);stroke-width:3.0;" d="M 114.533, 289.558 L 114.279, 289.739 L 101.29, 294.32 L 100.645, 287.563 L 125.162, 252.187 z "/>
<path style="fill:rgb(246, 52, 110);fill-opacity:1.0;fill-rule:evenodd;stroke:rgb(0, 0, 0);stroke-width:3.0;" d="M 516.154, 256.957 L 508.085, 268.107 L 486.453, 265.252 L 509.716, 255.29 z "/>
<path style="fill:rgb(246, 52, 110);fill-opacity:1.0;fill-rule:evenodd;stroke:rgb(0, 0, 0);stroke-width:3.0;" d="M 41.6032, 217.661 L 25.8654, 246.593 L 22.8148, 245.333 L 21.8913, 226.827 L 22.196, 222.689 L 27.9921, 219.673 L 41.6779, 216.137 z "/>
<path style="fill:rgb(246, 52, 110);fill-opacity:1.0;fill-rule:evenodd;stroke:rgb(0, 0, 0);stroke-width:3.0;" d="M 670.868, 39.5357 L 658.72, 39.3131 L 658.827, 37.768 L 666.191, 27.9823 L 679.145, 27.0677 z "/>
<path style="fill:rgb(246, 52, 110);fill-opacity:1.0;fill-rule:evenodd;stroke:rgb(0, 0, 0);stroke-width:3.0;" d="M 89.2439, 276.494 L 71.7607, 279.083 L 70.031, 273.818 L 74.3981, 266.829 z "/>
<path style="fill:rgb(223, 33, 102);fill-opacity:1.0;fill-rule:evenodd;stroke:rgb(0, 0, 0);stroke-width:3.0;" d="M 658.91, 553.573 L 622.633, 565.682 L 626.07, 553.194 L 631.818, 552.381 L 663.508, 550.513 z "/>
<path style="fill:rgb(163, 255, 52);fill-opacity:1.0;fill-rule:evenodd;stroke:rgb(0, 0, 0);stroke-width:3.0;" d="M 674.628, 13.5115 L 674.022, 17.5787 L 658.827, 37.768 L 659.574, 26.9569 L 674.235, 13.4179 z "/>
<path style="fill:rgb(163, 255, 52);fill-opacity:1.0;fill-rule:evenodd;stroke:rgb(0, 0, 0);stroke-width:3.0;" d="M 248.767, 452.865 L 246.964, 462.582 L 241.418, 467.818 L 227.959, 444.341 L 228.498, 443.947 L 230.005, 443.529 z "/>
<path style="fill:rgb(163, 255, 52);fill-opacity:1.0;fill-rule:evenodd;stroke:rgb(0, 0, 0);stroke-width:3.0;" d="M 88.6183, 231.044 L 101.393, 243.924 L 99.9612, 244.887 L 81.7769, 237.055 L 68.9693, 227.179 L 68.9659, 227.174 z "/>
<path style="fill:rgb(249, 255, 44);fill-opacity:1.0;fill-rule:evenodd;stroke:rgb(0, 0, 0);stroke-width:3.0;" d="M 637.733, 420.57 L 567.801, 460.785 L 584.484, 426.098 L 627.517, 401.153 z "/>
<path style="fill:rgb(255, 255, 7);fill-opacity:1.0;fill-rule:evenodd;stroke:rgb(0, 0, 0);stroke-width:3.0;" d="M 20.5847, 244.57 L 8.14928, 238.757 L 14.9249, 228.59 L 21.8339, 227.606 z "/>
<path style="fill:rgb(255, 255, 7);fill-opacity:1.0;fill-rule:evenodd;stroke:rgb(0, 0, 0);stroke-width:3.0;" d="M 477.719, 261.642 L 262.905, 418.778 L 242.826, 390.435 L 331.49, 189.385 z "/>
<path style="fill:rgb(231, 50, 6);fill-opacity:1.0;fill-rule:evenodd;stroke:rgb(0, 0, 0);stroke-width:3.0;" d="M 755.144, 517.066 L 712.625, 535.821 L 685.373, 523.627 L 760.105, 490.665 z "/>
<path style="fill:rgb(252, 194, 255);fill-opacity:1.0;fill-rule:evenodd;stroke:rgb(0, 0, 0);stroke-width:3.0;" d="M 49.5199, 140.515 L 39.0998, 155.683 L 35.5165, 158.352 L 13.4166, 114.89 z "/>
<path style="fill:rgb(91, 237, 6);fill-opacity:1.0;fill-rule:evenodd;stroke:rgb(0, 0, 0);stroke-width:3.0;" d="M 104.342, 336.839 L 106.512, 339.986 L 76.7512, 348.734 L 69.2929, 345.555 L 72.3788, 336.674 z "/>
<path style="fill:rgb(91, 237, 6);fill-opacity:1.0;fill-rule:evenodd;stroke:rgb(0, 0, 0);stroke-width:3.0;" d="M 691.864, 122.638 L 689.635, 125.552 L 648.588, 136.651 L 665.64, 124.178 L 684.743, 118.255 z "/>
<path style="fill:rgb(91, 237, 6);fill-opacity:1.0;fill-rule:evenodd;stroke:rgb(0, 0, 0);stroke-width:3.0;" d="M 642.852, 140.847 L 611.065, 164.099 L 608.301, 153.748 L 613.241, 138.571 L 623.706, 134.817 z "/>
<path style="fill:rgb(91, 237, 6);fill-opacity:1.0;fill-rule:evenodd;stroke:rgb(0, 0, 0);stroke-width:3.0;" d="M 541.688, 530.032 L 514.291, 547.73 L 513.85, 547.134 L 521.077, 476.939 L 525.222, 471.164 z "/>
<path style="fill:rgb(91, 237, 6);fill-opacity:1.0;fill-rule:evenodd;stroke:rgb(0, 0, 0);stroke-width:3.0;" d="M 68.9437, 237.447 L 64.2996, 255.259 L 46.239, 228.092 L 60.5138, 223.015 z "/>
<path style="fill:rgb(91, 237, 6);fill-opacity:1.0;fill-rule:evenodd;stroke:rgb(0, 0, 0);stroke-width:3.0;" d="M 674.407, 117.765 L 639.588, 124.85 L 707.572, 92.9198 L 708.875, 92.5512 z "/>
<path style="fill:rgb(91, 237, 6);fill-opacity:1.0;fill-rule:evenodd;stroke:rgb(0, 0, 0);stroke-width:3.0;" d="M 622.06, 215.235 L 607.062, 221.433 L 613.686, 167.372 L 614.542, 167.167 z "/>
<path style="fill:rgb(246, 215, 10);fill-opacity:1.0;fill-rule:evenodd;stroke:rgb(0, 0, 0);stroke-width:3.0;" d="M 400.327, 20.2581 L 377.774, 14.6073 L 395.024, 8.3659 z "/>
<path style="fill:rgb(246, 215, 10);fill-opacity:1.0;fill-rule:evenodd;stroke:rgb(0, 0, 0);stroke-width:3.0;" d="M 212.229, 455.848 L 60.9408, 566.515 L 79.8426, 497.093 L 202.257, 452.174 z "/>
<path style="fill:rgb(209, 112, 57);fill-opacity:1.0;fill-rule:evenodd;stroke:rgb(0, 0, 0);stroke-width:3.0;" d="M 578.598, 242.14 L 565.293, 237.147 L 571.547, 220.245 z "/>
<path style="fill:rgb(209, 112, 57);fill-opacity:1.0;fill-rule:evenodd;stroke:rgb(0, 0, 0);stroke-width:3.0;" d="M 593.514, 269.83 L 570.217, 243.794 L 578.424, 242.8 z "/>
<path style="fill:rgb(255, 22, 255);fill-opacity:1.0;fill-rule:evenodd;stroke:rgb(0, 0, 0);stroke-width:3.0;" d="M 296.542, 109.008 L 259.688, 105.527 L 259.157, 95.4927 z "/>
<path style="fill:rgb(255, 22, 255);fill-opacity:1.0;fill-rule:evenodd;stroke:rgb(0, 0, 0);stroke-width:3.0;" d="M 87.1523, 253.512 L 59.9856, 271.804 L 66.4766, 246.909 L 76.6136, 238.25 z "/>
<path style="fill:rgb(255, 22, 255);fill-opacity:1.0;fill-rule:evenodd;stroke:rgb(0, 0, 0);stroke-width:3.0;" d="M 551.751, 273.872 L 530.464, 271.062 L 528.349, 250.989 L 529.852, 243.545 L 533.599, 233.156 z "/>
<path style="fill:rgb(255, 22, 255);fill-opacity:1.0;fill-rule:evenodd;stroke:rgb(0, 0, 0);stroke-width:3.0;" d="M 75.3568, 513.568 L 62.2356, 561.76 L 9.42675, 563.721 L 70.4383, 486.541 z "/>
<path style="fill:rgb(255, 22, 255);fill-opacity:1.0;fill-rule:evenodd;stroke:rgb(0, 0, 0);stroke-width:3.0;" d="M 28.5118, 174.342 L 17.3251, 157.105 L 16.3495, 135.407 z "/>
<path style="fill:rgb(202, 2, 107);fill-opacity:1.0;fill-rule:evenodd;stroke:rgb(0, 0, 0);stroke-width:3.0;" d="M 577.556, 263.681 L 585.941, 278.385 L 560.734, 275.058 L 562.883, 267.683 L 568.821, 262.795 z "/>
<path style="fill:rgb(202, 2, 107);fill-opacity:1.0;fill-rule:evenodd;stroke:rgb(0, 0, 0);stroke-width:3.0;" d="M 259.157, 95.4927 L 261.314, 136.245 L 230.933, 156.701 L 98.9907, 207.863 L 79.7433, 164.698 L 187.902, 81.1132 L 207.217, 76.7159 z "/>
<path style="fill:rgb(202, 2, 107);fill-opacity:1.0;fill-rule:evenodd;stroke:rgb(0, 0, 0);stroke-width:3.0;" d="M 93.8386, 242.25 L 87.6046, 253.207 L 87.1523, 253.512 L 73.2546, 233.385 z "/>
<path style="fill:rgb(79, 246, 189);fill-opacity:1.0;fill-rule:evenodd;stroke:rgb(0, 0, 0);stroke-width:3.0;" d="M 753.532, 93.815 L 701.031, 110.65 L 722.482, 82.5975 L 754.239, 59.3672 z "/>
<path style="fill:rgb(79, 246, 189);fill-opacity:1.0;fill-rule:evenodd;stroke:rgb(0, 0, 0);stroke-width:3.0;" d="M 202.257, 452.174 L 136.937, 476.143 L 109.401, 464.108 L 101, 419.385 L 102.117, 415.283 z "/>
<path style="fill:rgb(79, 246, 189);fill-opacity:1.0;fill-rule:evenodd;stroke:rgb(0, 0, 0);stroke-width:3.0;" d="M 161.422, 575.053 L 153.491, 585.658 L 148.16, 568.814 L 150.887, 567.122 z "/>
<path style="fill:rgb(255, 121, 54);fill-opacity:1.0;fill-rule:evenodd;stroke:rgb(0, 0, 0);stroke-width:3.0;" d="M 753.978, 59.5584 L 734.936, 73.4872 L 729.574, 56.2637 z "/>
<path style="fill:rgb(255, 121, 54);fill-opacity:1.0;fill-rule:evenodd;stroke:rgb(0, 0, 0);stroke-width:3.0;" d="M 668.247, 148.565 L 670.428, 150.67 L 667.546, 154.439 L 639.585, 161.153 L 616.237, 160.316 L 637.122, 145.038 z "/>
<path style="fill:rgb(223, 3, 12);fill-opacity:1.0;fill-rule:evenodd;stroke:rgb(0, 0, 0);stroke-width:3.0;" d="M 88.6183, 231.044 L 68.9659, 227.174 L 65.4953, 222.148 L 73.6616, 215.964 z "/>
<path style="fill:rgb(199, 4, 252);fill-opacity:1.0;fill-rule:evenodd;stroke:rgb(0, 0, 0);stroke-width:3.0;" d="M 40.1501, 247.321 L 30.7637, 237.588 L 41.6032, 217.661 z "/>
<path style="fill:rgb(199, 4, 252);fill-opacity:1.0;fill-rule:evenodd;stroke:rgb(0, 0, 0);stroke-width:3.0;" d="M 64.2996, 255.259 L 59.9856, 271.804 L 38.2329, 286.45 L 39.7824, 254.825 L 46.587, 228.615 z "/>
<path style="fill:rgb(199, 4, 252);fill-opacity:1.0;fill-rule:evenodd;stroke:rgb(0, 0, 0);stroke-width:3.0;" d="M 83.2327, 404.846 L 83.0098, 405.076 L 52.802, 399.755 L 57.8383, 388.022 z "/>
<path style="fill:rgb(234, 39, 89);fill-opacity:1.0;fill-rule:evenodd;stroke:rgb(0, 0, 0);stroke-width:3.0;" d="M 293.632, 81.2013 L 250.708, 76.6736 L 234.164, 70.5812 L 293.778, 57.0096 z "/>
<path style="fill:rgb(234, 39, 89);fill-opacity:1.0;fill-rule:evenodd;stroke:rgb(0, 0, 0);stroke-width:3.0;" d="M 655.775, 575.535 L 630.463, 576.574 L 661.229, 560.46 z "/>
<path style="fill:rgb(234, 39, 89);fill-opacity:1.0;fill-rule:evenodd;stroke:rgb(0, 0, 0);stroke-width:3.0;" d="M 752.873, 125.933 L 733.854, 100.125 L 753.532, 93.815 z "/>
<path style="fill:rgb(234, 39, 89);fill-opacity:1.0;fill-rule:evenodd;stroke:rgb(0, 0, 0);stroke-width:3.0;" d="M 310.602, 103.058 L 317.273, 51.6608 L 335.338, 47.5482 L 396.184, 45.4342 z "/>
<path style="fill:rgb(255, 246, 192);fill-opacity:1.0;fill-rule:evenodd;stroke:rgb(0, 0, 0);stroke-width:3.0;" d="M 59.3438, 400.907 L 85.2132, 415.906 L 63.8443, 423.283 L 58.6273, 400.781 z "/>
<path style="fill:rgb(255, 246, 192);fill-opacity:1.0;fill-rule:evenodd;stroke:rgb(0, 0, 0);stroke-width:3.0;" d="M 64.994, 221.422 L 41.0009, 229.955 L 42.7993, 193.248 L 44.5863, 191.867 z "/>
<path style="fill:rgb(246, 228, 49);fill-opacity:1.0;fill-rule:evenodd;stroke:rgb(0, 0, 0);stroke-width:3.0;" d="M 299.941, 110.237 L 270.349, 130.161 L 261.758, 125.822 L 296.949, 109.155 z "/>
<path style="fill:rgb(255, 4, 72);fill-opacity:1.0;fill-rule:evenodd;stroke:rgb(0, 0, 0);stroke-width:3.0;" d="M 752.873, 125.933 L 752.707, 133.988 L 667.546, 154.439 L 701.031, 110.65 L 733.854, 100.125 z "/>
<path style="fill:rgb(255, 4, 72);fill-opacity:1.0;fill-rule:evenodd;stroke:rgb(0, 0, 0);stroke-width:3.0;" d="M 38.5032, 39.6036 L 28.2914, 25.3172 L 28.1149, 24.6771 L 38.2003, 17.7435 z "/>
<path style="fill:rgb(215, 170, 7);fill-opacity:1.0;fill-rule:evenodd;stroke:rgb(0, 0, 0);stroke-width:3.0;" d="M 624.342, 395.117 L 594.593, 412.491 L 614.197, 375.834 z "/>
<path style="fill:rgb(29, 37, 255);fill-opacity:1.0;fill-rule:evenodd;stroke:rgb(0, 0, 0);stroke-width:3.0;" d="M 563.114, 275.372 L 573.431, 333.09 L 545.265, 370.411 L 504.969, 336.593 L 495.439, 266.438 z "/>
<path style="fill:rgb(29, 37, 255);fill-opacity:1.0;fill-rule:evenodd;stroke:rgb(0, 0, 0);stroke-width:3.0;" d="M 86.9531, 550.251 L 70.8713, 580.642 L 62.6851, 575.123 L 64.1786, 571.763 L 79.6844, 552.804 L 84.8072, 549.057 z "/>
<path style="fill:rgb(29, 37, 255);fill-opacity:1.0;fill-rule:evenodd;stroke:rgb(0, 0, 0);stroke-width:3.0;" d="M 116.634, 354.667 L 118.059, 356.734 L 116.725, 361.631 L 116.063, 361.877 L 109.644, 362.756 L 100.667, 358.929 L 100.106, 355.361 L 104.785, 352.765 z "/>
<path style="fill:rgb(29, 37, 255);fill-opacity:1.0;fill-rule:evenodd;stroke:rgb(0, 0, 0);stroke-width:3.0;" d="M 600.888, 264.36 L 594.128, 270.517 L 593.514, 269.83 L 578.424, 242.8 L 589.388, 241.472 z "/>
<path style="fill:rgb(29, 37, 255);fill-opacity:1.0;fill-rule:evenodd;stroke:rgb(0, 0, 0);stroke-width:3.0;" d="M 504.852, 572.932 L 488.674, 586.375 L 462.179, 565.865 z "/>
<path style="fill:rgb(255, 207, 13);fill-opacity:1.0;fill-rule:evenodd;stroke:rgb(0, 0, 0);stroke-width:3.0;" d="M 715.1, 74.44 L 701.868, 94.5336 L 701.712, 94.5777 L 706.309, 46.4959 z "/>
<path style="fill:rgb(255, 207, 13);fill-opacity:1.0;fill-rule:evenodd;stroke:rgb(0, 0, 0);stroke-width:3.0;" d="M 484.637, 256.581 L 477.719, 261.642 L 331.49, 189.385 L 357.971, 129.339 z "/>
<path style="fill:rgb(255, 0, 6);fill-opacity:1.0;fill-rule:evenodd;stroke:rgb(0, 0, 0);stroke-width:3.0;" d="M 79.639, 282.439 L 95.2915, 292.329 L 98.3183, 308.692 L 64.1262, 287.64 L 68.9846, 280.569 z "/>
<path style="fill:rgb(237, 34, 34);fill-opacity:1.0;fill-rule:evenodd;stroke:rgb(0, 0, 0);stroke-width:3.0;" d="M 511.429, 384.144 L 523.564, 473.474 L 497.926, 509.197 L 387.688, 416.977 L 420.818, 339.356 z "/>
<path style="fill:rgb(237, 34, 34);fill-opacity:1.0;fill-rule:evenodd;stroke:rgb(0, 0, 0);stroke-width:3.0;" d="M 98.3183, 308.692 L 100.556, 320.789 L 98.1738, 329.022 L 68.4224, 298.899 L 74.3236, 293.918 z "/>
<path style="fill:rgb(255, 240, 8);fill-opacity:1.0;fill-rule:evenodd;stroke:rgb(0, 0, 0);stroke-width:3.0;" d="M 653.372, 281.6 L 637.512, 285.193 L 632.665, 284.553 L 633.343, 281.923 L 650.002, 268.4 z "/>
<path style="fill:rgb(255, 240, 8);fill-opacity:1.0;fill-rule:evenodd;stroke:rgb(0, 0, 0);stroke-width:3.0;" d="M 718.891, 503.044 L 688.77, 517.582 L 605.5, 359.303 L 627.585, 328.531 z "/>
<path style="fill:rgb(252, 23, 255);fill-opacity:1.0;fill-rule:evenodd;stroke:rgb(0, 0, 0);stroke-width:3.0;" d="M 574.589, 212.022 L 564.164, 240.197 L 557.789, 229.019 L 560.493, 218.068 L 574.197, 211.241 z "/>
<path style="fill:rgb(22, 255, 252);fill-opacity:1.0;fill-rule:evenodd;stroke:rgb(0, 0, 0);stroke-width:3.0;" d="M 243.676, 12.2505 L 247.944, 18.0399 L 229.895, 16.1852 L 219.09, 6.30491 z "/>
<path style="fill:rgb(255, 33, 17);fill-opacity:1.0;fill-rule:evenodd;stroke:rgb(0, 0, 0);stroke-width:3.0;" d="M 251.925, 426.81 L 212.229, 455.848 L 110.271, 418.287 z "/>
<path style="fill:rgb(255, 48, 19);fill-opacity:1.0;fill-rule:evenodd;stroke:rgb(0, 0, 0);stroke-width:3.0;" d="M 106.92, 363.867 L 110.886, 375.039 L 95.7626, 364.945 L 96.2376, 358.069 z "/>
<path style="fill:rgb(255, 159, 246);fill-opacity:1.0;fill-rule:evenodd;stroke:rgb(0, 0, 0);stroke-width:3.0;" d="M 777.402, 372.7 L 732.971, 359.257 L 722.084, 346.984 L 743.34, 343.687 z "/>
<path style="fill:rgb(255, 215, 9);fill-opacity:1.0;fill-rule:evenodd;stroke:rgb(0, 0, 0);stroke-width:3.0;" d="M 485.629, 255.856 L 484.637, 256.581 L 412.102, 183.716 L 467.331, 174.681 z "/>
<path style="fill:rgb(255, 215, 9);fill-opacity:1.0;fill-rule:evenodd;stroke:rgb(0, 0, 0);stroke-width:3.0;" d="M 99.6663, 424.285 L 93.0086, 448.737 L 84.851, 444.611 L 64.6746, 426.864 L 63.8443, 423.283 L 85.2132, 415.906 z "/>
<path style="fill:rgb(255, 215, 9);fill-opacity:1.0;fill-rule:evenodd;stroke:rgb(0, 0, 0);stroke-width:3.0;" d="M 568.208, 346.212 L 519.925, 446.689 L 515.009, 410.502 L 565.628, 343.429 z "/>
<path style="fill:rgb(144, 85, 179);fill-opacity:1.0;fill-rule:evenodd;stroke:rgb(0, 0, 0);stroke-width:3.0;" d="M 93.5032, 406.925 L 83.6493, 414.999 L 59.3438, 400.907 z "/>
<path style="fill:rgb(34, 255, 11);fill-opacity:1.0;fill-rule:evenodd;stroke:rgb(0, 0, 0);stroke-width:3.0;" d="M 673.679, 13.2857 L 659.642, 25.9656 L 660.731, 10.2072 z "/>
<path style="fill:rgb(7, 55, 237);fill-opacity:1.0;fill-rule:evenodd;stroke:rgb(0, 0, 0);stroke-width:3.0;" d="M 631.389, 248.332 L 613.266, 245.246 L 609.297, 237.434 L 614.169, 233.663 z "/>
<path style="fill:rgb(7, 55, 237);fill-opacity:1.0;fill-rule:evenodd;stroke:rgb(0, 0, 0);stroke-width:3.0;" d="M 30.0854, 203.073 L 13.6479, 215.776 L 13.0663, 215.324 L 9.81695, 203.034 z "/>
<path style="fill:rgb(74, 255, 240);fill-opacity:1.0;fill-rule:evenodd;stroke:rgb(0, 0, 0);stroke-width:3.0;" d="M 612.11, 281.84 L 573.431, 333.09 L 563.114, 275.372 z "/>
<path style="fill:rgb(255, 3, 34);fill-opacity:1.0;fill-rule:evenodd;stroke:rgb(0, 0, 0);stroke-width:3.0;" d="M 551.391, 507.023 L 547.71, 526.142 L 541.688, 530.032 L 525.222, 471.164 L 526.239, 469.746 z "/>
<path style="fill:rgb(42, 95, 255);fill-opacity:1.0;fill-rule:evenodd;stroke:rgb(0, 0, 0);stroke-width:3.0;" d="M 38.8351, 63.553 L 38.843, 64.1235 L 24.6927, 92.0016 L 23.9963, 81.2473 L 32.9633, 54.9741 L 36.4572, 54.9297 z "/>
<path style="fill:rgb(255, 255, 105);fill-opacity:1.0;fill-rule:evenodd;stroke:rgb(0, 0, 0);stroke-width:3.0;" d="M 497.926, 509.197 L 440.645, 589.012 L 236.176, 520.738 L 253.863, 425.392 L 330.625, 369.241 z "/>
<path style="fill:rgb(255, 255, 105);fill-opacity:1.0;fill-rule:evenodd;stroke:rgb(0, 0, 0);stroke-width:3.0;" d="M 23.9963, 81.2473 L 22.3039, 55.1097 L 32.9633, 54.9741 z "/>
<path style="fill:rgb(252, 204, 17);fill-opacity:1.0;fill-rule:evenodd;stroke:rgb(0, 0, 0);stroke-width:3.0;" d="M 274.948, 178.023 L 223.102, 188.541 L 268.3, 153.087 z "/>
<path style="fill:rgb(252, 204, 17);fill-opacity:1.0;fill-rule:evenodd;stroke:rgb(0, 0, 0);stroke-width:3.0;" d="M 135.242, 259.26 L 122.081, 284.155 L 114.533, 289.558 L 126.055, 249.047 L 128.772, 248.183 z "/>
<path style="fill:rgb(252, 204, 17);fill-opacity:1.0;fill-rule:evenodd;stroke:rgb(0, 0, 0);stroke-width:3.0;" d="M 98.9907, 207.863 L 85.1811, 213.218 L 54.8282, 206.7 L 44.5863, 191.867 L 79.7433, 164.698 z "/>
<path style="fill:rgb(252, 204, 17);fill-opacity:1.0;fill-rule:evenodd;stroke:rgb(0, 0, 0);stroke-width:3.0;" d="M 729.574, 56.2637 L 732.529, 65.7544 L 711.824, 64.0262 L 709.856, 57.7719 L 710.963, 53.751 z "/>
<path style="fill:rgb(252, 204, 17);fill-opacity:1.0;fill-rule:evenodd;stroke:rgb(0, 0, 0);stroke-width:3.0;" d="M 81.5855, 163.274 L 50.3097, 187.444 L 45.1042, 177.207 L 61.1991, 148.805 z "/>
<path style="fill:rgb(42, 223, 249);fill-opacity:1.0;fill-rule:evenodd;stroke:rgb(0, 0, 0);stroke-width:3.0;" d="M 316.746, 55.7175 L 301.131, 95.2423 L 293.564, 92.4557 L 293.778, 57.0096 L 317.273, 51.6608 z "/>
<path style="fill:rgb(255, 32, 54);fill-opacity:1.0;fill-rule:evenodd;stroke:rgb(0, 0, 0);stroke-width:3.0;" d="M 693.165, 79.2497 L 690.281, 44.8677 L 699.027, 44.052 z "/>
<path style="fill:rgb(255, 32, 54);fill-opacity:1.0;fill-rule:evenodd;stroke:rgb(0, 0, 0);stroke-width:3.0;" d="M 94.2242, 325.023 L 73.4461, 333.602 L 81.0589, 311.693 z "/>
<path style="fill:rgb(240, 182, 19);fill-opacity:1.0;fill-rule:evenodd;stroke:rgb(0, 0, 0);stroke-width:3.0;" d="M 422.092, 336.372 L 400.599, 386.727 L 387.741, 390.349 L 412.112, 314.665 z "/>
<path style="fill:rgb(243, 119, 67);fill-opacity:1.0;fill-rule:evenodd;stroke:rgb(0, 0, 0);stroke-width:3.0;" d="M 408.399, 326.195 L 401.896, 346.392 L 390.835, 346.83 L 389.437, 346.659 L 384.999, 329.466 L 390.775, 325.241 z "/>
<path style="fill:rgb(255, 100, 6);fill-opacity:1.0;fill-rule:evenodd;stroke:rgb(0, 0, 0);stroke-width:3.0;" d="M 467.331, 174.681 L 412.102, 183.716 L 357.971, 129.339 L 394.462, 46.5934 L 432.661, 20.8734 z "/>
<path style="fill:rgb(255, 100, 6);fill-opacity:1.0;fill-rule:evenodd;stroke:rgb(0, 0, 0);stroke-width:3.0;" d="M 536.181, 362.787 L 531.647, 365.197 L 507.907, 358.224 L 506.538, 348.144 L 511.374, 341.968 z "/>
<path style="fill:rgb(255, 100, 6);fill-opacity:1.0;fill-rule:evenodd;stroke:rgb(0, 0, 0);stroke-width:3.0;" d="M 162.231, 542.586 L 161.754, 543.036 L 120.358, 544.14 L 106.15, 533.444 L 110.013, 530.619 z "/>
<path style="fill:rgb(255, 33, 16);fill-opacity:1.0;fill-rule:evenodd;stroke:rgb(0, 0, 0);stroke-width:3.0;" d="M 777.402, 372.7 L 792.998, 385.984 L 751.769, 371.203 L 746.995, 363.5 z "/>
<path style="fill:rgb(255, 33, 16);fill-opacity:1.0;fill-rule:evenodd;stroke:rgb(0, 0, 0);stroke-width:3.0;" d="M 77.4827, 382.184 L 58.2854, 386.981 L 70.1395, 359.365 z "/>
<path style="fill:rgb(255, 33, 16);fill-opacity:1.0;fill-rule:evenodd;stroke:rgb(0, 0, 0);stroke-width:3.0;" d="M 81.0589, 311.693 L 78.3732, 319.423 L 65.6259, 331.547 L 63.5702, 328.483 L 65.6148, 319.107 L 79.9297, 310.55 z "/>
<path style="fill:rgb(255, 33, 16);fill-opacity:1.0;fill-rule:evenodd;stroke:rgb(0, 0, 0);stroke-width:3.0;" d="M 612.45, 251.468 L 603.936, 261.243 L 595.797, 254.228 L 592.492, 247.65 L 591.871, 243.477 z "/>
<path style="fill:rgb(255, 33, 16);fill-opacity:1.0;fill-rule:evenodd;stroke:rgb(0, 0, 0);stroke-width:3.0;" d="M 113.291, 484.819 L 79.8426, 497.093 L 101, 419.385 z "/>
<path style="fill:rgb(50, 255, 199);fill-opacity:1.0;fill-rule:evenodd;stroke:rgb(0, 0, 0);stroke-width:3.0;" d="M 618.16, 570.2 L 610.705, 580.088 L 603.299, 580.088 L 602.768, 572.736 L 604.181, 569.826 z "/>
<path style="fill:rgb(234, 94, 255);fill-opacity:1.0;fill-rule:evenodd;stroke:rgb(0, 0, 0);stroke-width:3.0;" d="M 213.531, 494.149 L 162.665, 542.176 L 111.842, 529.281 L 221.126, 449.34 z "/>
<path style="fill:rgb(234, 94, 255);fill-opacity:1.0;fill-rule:evenodd;stroke:rgb(0, 0, 0);stroke-width:3.0;" d="M 615.944, 344.75 L 576.954, 328.422 L 584.55, 318.357 L 637.116, 315.249 z "/>
<path style="fill:rgb(234, 94, 255);fill-opacity:1.0;fill-rule:evenodd;stroke:rgb(0, 0, 0);stroke-width:3.0;" d="M 268.3, 153.087 L 223.102, 188.541 L 182.084, 196.862 L 174.144, 194.938 L 263.43, 134.821 z "/>
<path style="fill:rgb(255, 7, 30);fill-opacity:1.0;fill-rule:evenodd;stroke:rgb(0, 0, 0);stroke-width:3.0;" d="M 582.41, 361.527 L 580.084, 383.749 L 519.971, 447.031 L 519.925, 446.689 L 568.208, 346.212 z "/>
<path style="fill:rgb(255, 7, 30);fill-opacity:1.0;fill-rule:evenodd;stroke:rgb(0, 0, 0);stroke-width:3.0;" d="M 119.841, 220.661 L 85.1811, 213.218 L 122.536, 198.733 z "/>
<path style="fill:rgb(255, 7, 30);fill-opacity:1.0;fill-rule:evenodd;stroke:rgb(0, 0, 0);stroke-width:3.0;" d="M 614.197, 375.834 L 601.699, 399.203 L 597.761, 398.494 L 611.304, 370.335 z "/>
<path style="fill:rgb(228, 32, 172);fill-opacity:1.0;fill-rule:evenodd;stroke:rgb(0, 0, 0);stroke-width:3.0;" d="M 141.617, 270.172 L 122.081, 284.155 L 135.242, 259.26 z "/>
<path style="fill:rgb(228, 32, 172);fill-opacity:1.0;fill-rule:evenodd;stroke:rgb(0, 0, 0);stroke-width:3.0;" d="M 740.989, 270.654 L 714.581, 319.191 L 630.251, 247.362 z "/>
<path style="fill:rgb(228, 32, 172);fill-opacity:1.0;fill-rule:evenodd;stroke:rgb(0, 0, 0);stroke-width:3.0;" d="M 681.481, 290.998 L 728.609, 331.139 L 715.107, 339.118 L 671.222, 289.643 z "/>
<path style="fill:rgb(228, 32, 172);fill-opacity:1.0;fill-rule:evenodd;stroke:rgb(0, 0, 0);stroke-width:3.0;" d="M 293.632, 81.2013 L 293.564, 92.4557 L 250.708, 76.6736 z "/>
<path style="fill:rgb(255, 44, 11);fill-opacity:1.0;fill-rule:evenodd;stroke:rgb(0, 0, 0);stroke-width:3.0;" d="M 278.05, 86.7425 L 279.253, 87.1855 L 255.766, 94.2666 L 210.332, 77.8419 L 226.522, 72.3791 z "/>
<path style="fill:rgb(18, 249, 220);fill-opacity:1.0;fill-rule:evenodd;stroke:rgb(0, 0, 0);stroke-width:3.0;" d="M 278.05, 86.7425 L 226.522, 72.3791 L 227.051, 72.2005 L 234.164, 70.5812 z "/>
<path style="fill:rgb(243, 249, 74);fill-opacity:1.0;fill-rule:evenodd;stroke:rgb(0, 0, 0);stroke-width:3.0;" d="M 628.918, 315.734 L 600.555, 317.411 L 631.907, 304.679 z "/>
<path style="fill:rgb(255, 172, 75);fill-opacity:1.0;fill-rule:evenodd;stroke:rgb(0, 0, 0);stroke-width:3.0;" d="M 560.944, 212.595 L 549.54, 214.553 L 547.348, 210.708 L 564.316, 198.296 z "/>
<path style="fill:rgb(207, 91, 255);fill-opacity:1.0;fill-rule:evenodd;stroke:rgb(0, 0, 0);stroke-width:3.0;" d="M 594.08, 216.553 L 588.955, 212.188 L 596.751, 174.57 L 603.122, 169.909 L 605.908, 169.24 z "/>
<path style="fill:rgb(105, 88, 234);fill-opacity:1.0;fill-rule:evenodd;stroke:rgb(0, 0, 0);stroke-width:3.0;" d="M 580.931, 576.653 L 571.461, 584.573 L 569.693, 584.398 L 567.296, 581.715 L 568.706, 575.529 L 581.219, 569.49 z "/>
<path style="fill:rgb(255, 217, 10);fill-opacity:1.0;fill-rule:evenodd;stroke:rgb(0, 0, 0);stroke-width:3.0;" d="M 567.754, 246.493 L 533.866, 232.415 L 536.275, 225.735 L 554.876, 223.91 z "/>
<path style="fill:rgb(21, 132, 237);fill-opacity:1.0;fill-rule:evenodd;stroke:rgb(0, 0, 0);stroke-width:3.0;" d="M 522.249, 558.476 L 504.852, 572.932 L 480.937, 568.972 L 485.774, 526.13 L 491.936, 517.544 z "/>
<path style="fill:rgb(255, 24, 128);fill-opacity:1.0;fill-rule:evenodd;stroke:rgb(0, 0, 0);stroke-width:3.0;" d="M 294.339, 273.626 L 242.826, 390.435 L 142.895, 249.379 L 219.479, 229.71 z "/>
<path style="fill:rgb(157, 255, 29);fill-opacity:1.0;fill-rule:evenodd;stroke:rgb(0, 0, 0);stroke-width:3.0;" d="M 219.479, 229.71 L 142.895, 249.379 L 126.874, 226.766 L 167.656, 199.307 z "/>
<path style="fill:rgb(124, 14, 255);fill-opacity:1.0;fill-rule:evenodd;stroke:rgb(0, 0, 0);stroke-width:3.0;" d="M 39.042, 246.172 L 36.0802, 257.869 L 23.4964, 258.994 L 23.1287, 251.625 L 30.7637, 237.588 z "/>
<path style="fill:rgb(15, 231, 255);fill-opacity:1.0;fill-rule:evenodd;stroke:rgb(0, 0, 0);stroke-width:3.0;" d="M 82.5958, 383.743 L 91.5743, 406.585 L 84.9602, 405.42 L 77.6928, 382.837 z "/>
<path style="fill:rgb(255, 255, 11);fill-opacity:1.0;fill-rule:evenodd;stroke:rgb(0, 0, 0);stroke-width:3.0;" d="M 638.636, 285.342 L 645.774, 303.186 L 637.116, 315.249 L 628.918, 315.734 L 637.188, 285.15 z "/>
<path style="fill:rgb(48, 255, 255);fill-opacity:1.0;fill-rule:evenodd;stroke:rgb(0, 0, 0);stroke-width:3.0;" d="M 61.1991, 148.805 L 45.9204, 175.767 L 42.7134, 172.505 L 35.5165, 158.352 L 54.612, 144.129 z "/>
<path style="fill:rgb(85, 5, 255);fill-opacity:1.0;fill-rule:evenodd;stroke:rgb(0, 0, 0);stroke-width:3.0;" d="M 544.598, 369.851 L 519.025, 396.545 L 516.116, 395.564 L 523.726, 371.035 L 540.733, 366.607 z "/>
<path style="fill:rgb(85, 5, 255);fill-opacity:1.0;fill-rule:evenodd;stroke:rgb(0, 0, 0);stroke-width:3.0;" d="M 142.74, 560.989 L 136.737, 556.47 L 142.842, 543.541 L 161.754, 543.036 z "/>
<path style="fill:rgb(255, 51, 231);fill-opacity:1.0;fill-rule:evenodd;stroke:rgb(0, 0, 0);stroke-width:3.0;" d="M 54.7055, 400.09 L 70.4383, 486.541 L 6.09271, 567.938 L 9.60444, 392.145 z "/>
<path style="fill:rgb(255, 51, 231);fill-opacity:1.0;fill-rule:evenodd;stroke:rgb(0, 0, 0);stroke-width:3.0;" d="M 136.737, 556.47 L 127.101, 549.216 L 135.242, 543.743 L 142.842, 543.541 z "/>
<path style="fill:rgb(255, 184, 255);fill-opacity:1.0;fill-rule:evenodd;stroke:rgb(0, 0, 0);stroke-width:3.0;" d="M 776.736, 42.9105 L 753.978, 59.5584 L 708.486, 53.4166 L 706.309, 46.4959 L 708.477, 23.8179 z "/>
<path style="fill:rgb(255, 228, 67);fill-opacity:1.0;fill-rule:evenodd;stroke:rgb(0, 0, 0);stroke-width:3.0;" d="M 111.176, 272.368 L 100.645, 287.563 L 98.1787, 261.76 z "/>
<path style="fill:rgb(249, 34, 130);fill-opacity:1.0;fill-rule:evenodd;stroke:rgb(0, 0, 0);stroke-width:3.0;" d="M 130.811, 232.323 L 125.162, 252.187 L 111.176, 272.368 L 98.1787, 261.76 L 96.7715, 247.035 L 126.874, 226.766 z "/>
<path style="fill:rgb(10, 246, 199);fill-opacity:1.0;fill-rule:evenodd;stroke:rgb(0, 0, 0);stroke-width:3.0;" d="M 700.362, 541.23 L 695.491, 543.379 L 670.595, 546.899 L 681.099, 537.841 z "/>
<path style="fill:rgb(255, 56, 8);fill-opacity:1.0;fill-rule:evenodd;stroke:rgb(0, 0, 0);stroke-width:3.0;" d="M 609.499, 281.495 L 603.209, 280.665 L 594.128, 270.517 L 600.888, 264.36 z "/>
<path style="fill:rgb(255, 56, 8);fill-opacity:1.0;fill-rule:evenodd;stroke:rgb(0, 0, 0);stroke-width:3.0;" d="M 546.153, 237.519 L 541.927, 251.835 L 533.599, 233.156 L 533.866, 232.415 z "/>
<path style="fill:rgb(134, 70, 255);fill-opacity:1.0;fill-rule:evenodd;stroke:rgb(0, 0, 0);stroke-width:3.0;" d="M 627.517, 401.153 L 590.602, 422.552 L 600.207, 409.212 L 624.342, 395.117 z "/>
<path style="fill:rgb(134, 70, 255);fill-opacity:1.0;fill-rule:evenodd;stroke:rgb(0, 0, 0);stroke-width:3.0;" d="M 103.895, 408.755 L 101.777, 416.534 L 95.1302, 421.655 L 83.6493, 414.999 L 93.5032, 406.925 z "/>
<path style="fill:rgb(134, 70, 255);fill-opacity:1.0;fill-rule:evenodd;stroke:rgb(0, 0, 0);stroke-width:3.0;" d="M 561.517, 272.372 L 560.734, 275.058 L 551.751, 273.872 L 541.927, 251.835 L 542.994, 248.219 z "/>
<path style="fill:rgb(255, 30, 33);fill-opacity:1.0;fill-rule:evenodd;stroke:rgb(0, 0, 0);stroke-width:3.0;" d="M 682.191, 135.287 L 673.434, 146.739 L 667.491, 148.479 L 650.231, 146.524 L 645.584, 138.848 L 648.588, 136.651 L 657.492, 134.243 z "/>
<path style="fill:rgb(255, 177, 51);fill-opacity:1.0;fill-rule:evenodd;stroke:rgb(0, 0, 0);stroke-width:3.0;" d="M 39.0257, 270.269 L 38.7665, 275.559 L 35.4726, 285.832 L 30.9462, 291.357 L 25.3011, 295.158 L 24.0277, 269.64 z "/>
<path style="fill:rgb(11, 255, 255);fill-opacity:1.0;fill-rule:evenodd;stroke:rgb(0, 0, 0);stroke-width:3.0;" d="M 395.906, 358.452 L 390.119, 382.963 L 380.975, 411.361 L 330.625, 369.241 L 359.57, 348.068 L 375.009, 347.456 z "/>
<path style="fill:rgb(202, 57, 20);fill-opacity:1.0;fill-rule:evenodd;stroke:rgb(0, 0, 0);stroke-width:3.0;" d="M 395.906, 358.452 L 375.009, 347.456 L 398.724, 346.517 z "/>
<path style="fill:rgb(41, 194, 226);fill-opacity:1.0;fill-rule:evenodd;stroke:rgb(0, 0, 0);stroke-width:3.0;" d="M 631.907, 304.679 L 600.555, 317.411 L 595.508, 317.709 L 590.526, 310.439 L 592.717, 307.536 L 635.076, 292.959 z "/>
<path style="fill:rgb(41, 194, 226);fill-opacity:1.0;fill-rule:evenodd;stroke:rgb(0, 0, 0);stroke-width:3.0;" d="M 94.4274, 356.269 L 76.7512, 348.734 L 96.293, 342.99 z "/>
<path style="fill:rgb(163, 243, 255);fill-opacity:1.0;fill-rule:evenodd;stroke:rgb(0, 0, 0);stroke-width:3.0;" d="M 785.616, 517.49 L 776.364, 526.857 L 771.605, 526.164 L 770.33, 524.519 L 771.987, 509.644 L 771.993, 509.633 L 778.111, 506.935 z "/>
<path style="fill:rgb(246, 152, 6);fill-opacity:1.0;fill-rule:evenodd;stroke:rgb(0, 0, 0);stroke-width:3.0;" d="M 516.116, 395.564 L 512.829, 394.455 L 510.129, 374.574 L 523.726, 371.035 z "/>
<path style="fill:rgb(255, 228, 27);fill-opacity:1.0;fill-rule:evenodd;stroke:rgb(0, 0, 0);stroke-width:3.0;" d="M 689.964, 101.19 L 639.588, 124.85 L 626.323, 127.549 L 618.975, 120.952 L 620.038, 117.684 L 687.248, 98.6699 z "/>
<path style="fill:rgb(212, 16, 36);fill-opacity:1.0;fill-rule:evenodd;stroke:rgb(0, 0, 0);stroke-width:3.0;" d="M 298.14, 265.008 L 294.339, 273.626 L 236.022, 239.415 L 265.517, 179.936 L 274.948, 178.023 z "/>
<path style="fill:rgb(94, 255, 255);fill-opacity:1.0;fill-rule:evenodd;stroke:rgb(0, 0, 0);stroke-width:3.0;" d="M 703.566, 107.334 L 698.85, 113.502 L 680.125, 113.582 L 696.564, 101.557 z "/>
<path style="fill:rgb(240, 215, 6);fill-opacity:1.0;fill-rule:evenodd;stroke:rgb(0, 0, 0);stroke-width:3.0;" d="M 697.177, 44.2246 L 690.281, 44.8677 L 688.399, 22.4282 L 702.066, 6.91072 z "/>
<path style="fill:rgb(249, 7, 7);fill-opacity:1.0;fill-rule:evenodd;stroke:rgb(0, 0, 0);stroke-width:3.0;" d="M 97.8755, 328.72 L 81.4978, 336.721 L 72.3788, 336.674 L 73.4461, 333.602 L 94.2242, 325.023 z "/>
<path style="fill:rgb(249, 7, 7);fill-opacity:1.0;fill-rule:evenodd;stroke:rgb(0, 0, 0);stroke-width:3.0;" d="M 384.056, 346.003 L 365.49, 343.737 L 380.319, 332.89 z "/>
<path style="fill:rgb(249, 7, 7);fill-opacity:1.0;fill-rule:evenodd;stroke:rgb(0, 0, 0);stroke-width:3.0;" d="M 136.937, 476.143 L 113.291, 484.819 L 109.401, 464.108 z "/>
<path style="fill:rgb(226, 5, 243);fill-opacity:1.0;fill-rule:evenodd;stroke:rgb(0, 0, 0);stroke-width:3.0;" d="M 743.34, 343.687 L 722.084, 346.984 L 715.107, 339.118 L 728.609, 331.139 z "/>
<path style="fill:rgb(255, 231, 30);fill-opacity:1.0;fill-rule:evenodd;stroke:rgb(0, 0, 0);stroke-width:3.0;" d="M 266.986, 19.9968 L 88.1936, 158.168 L 196.244, 12.727 z "/>
<path style="fill:rgb(255, 4, 112);fill-opacity:1.0;fill-rule:evenodd;stroke:rgb(0, 0, 0);stroke-width:3.0;" d="M 649.335, 265.789 L 650.002, 268.4 L 639.387, 277.017 L 636.579, 269.379 L 638.582, 261.614 z "/>
<path style="fill:rgb(197, 66, 255);fill-opacity:1.0;fill-rule:evenodd;stroke:rgb(0, 0, 0);stroke-width:3.0;" d="M 591.688, 371.533 L 580.084, 383.749 L 582.41, 361.527 z "/>
<path style="fill:rgb(255, 92, 46);fill-opacity:1.0;fill-rule:evenodd;stroke:rgb(0, 0, 0);stroke-width:3.0;" d="M 405.619, 39.0812 L 397.577, 40.0364 L 392.777, 39.3742 L 393.783, 34.2426 L 422.523, 27.6998 z "/>
<path style="fill:rgb(252, 177, 83);fill-opacity:1.0;fill-rule:evenodd;stroke:rgb(0, 0, 0);stroke-width:3.0;" d="M 228.773, 370.6 L 262.905, 418.778 L 251.925, 426.81 L 110.596, 418.307 L 145.823, 366.049 z "/>
<path style="fill:rgb(146, 223, 220);fill-opacity:1.0;fill-rule:evenodd;stroke:rgb(0, 0, 0);stroke-width:3.0;" d="M 732.529, 65.7544 L 734.936, 73.4872 L 718.568, 85.4609 L 714.382, 72.1575 L 724.627, 65.0949 z "/>
<path style="fill:rgb(146, 223, 220);fill-opacity:1.0;fill-rule:evenodd;stroke:rgb(0, 0, 0);stroke-width:3.0;" d="M 589.453, 209.785 L 588.955, 212.188 L 568.797, 195.018 L 579.438, 187.234 z "/>
<path style="fill:rgb(255, 31, 165);fill-opacity:1.0;fill-rule:evenodd;stroke:rgb(0, 0, 0);stroke-width:3.0;" d="M 589.453, 209.785 L 579.438, 187.234 L 596.751, 174.57 z "/>
<path style="fill:rgb(255, 2, 231);fill-opacity:1.0;fill-rule:evenodd;stroke:rgb(0, 0, 0);stroke-width:3.0;" d="M 537.017, 223.679 L 525.898, 240.181 L 520.193, 242.696 L 512.04, 236.536 L 539.669, 216.325 z "/>
<path style="fill:rgb(124, 255, 255);fill-opacity:1.0;fill-rule:evenodd;stroke:rgb(0, 0, 0);stroke-width:3.0;" d="M 615.944, 344.75 L 612.281, 349.855 L 591.688, 371.533 L 565.628, 343.429 L 576.954, 328.422 z "/>
<path style="fill:rgb(255, 0, 7);fill-opacity:1.0;fill-rule:evenodd;stroke:rgb(0, 0, 0);stroke-width:3.0;" d="M 722.653, 266.797 L 630.251, 247.362 L 602.179, 223.451 L 685.843, 188.874 L 731.207, 179.087 z "/>
<path style="fill:rgb(255, 226, 17);fill-opacity:1.0;fill-rule:evenodd;stroke:rgb(0, 0, 0);stroke-width:3.0;" d="M 517.832, 578.256 L 509.483, 575.912 L 506.242, 571.777 L 518.549, 561.551 z "/>
<path style="fill:rgb(255, 28, 7);fill-opacity:1.0;fill-rule:evenodd;stroke:rgb(0, 0, 0);stroke-width:3.0;" d="M 39.0257, 270.269 L 32.4658, 269.994 L 23.6994, 263.062 L 23.4964, 258.994 L 39.6489, 257.55 z "/>
<path style="fill:rgb(252, 252, 27);fill-opacity:1.0;fill-rule:evenodd;stroke:rgb(0, 0, 0);stroke-width:3.0;" d="M 132.048, 223.283 L 119.841, 220.661 L 122.536, 198.733 L 230.933, 156.701 z "/>
<path style="fill:rgb(255, 58, 6);fill-opacity:1.0;fill-rule:evenodd;stroke:rgb(0, 0, 0);stroke-width:3.0;" d="M 495.439, 266.438 L 511.429, 384.144 L 420.818, 339.356 L 443.215, 286.881 L 474.874, 263.723 z "/>
</svg>