<?xml version="1.0" encoding="iso-8859-1" standalone="no"?>
<!DOCTYPE svg PUBLIC "-//W3C//DTD SVG 1.0//EN" "http://www.w3.org/TR/2001/REC-SVG-20010904/DTD/svg10.dtd">
<svg xmlns="http://www.w3.org/2000/svg" width="800" height="600">
<path style="fill:rgb(0, 0, 0);fill-opacity:0.0;fill-rule:evenodd;stroke:rgb(0, 0, 0);stroke-width:0.0;" d="M 0, 600 L 800, 600 L 800, 0 L 0, 0 z "/>
<path style="fill:rgb(255, 112, 22);fill-opacity:1.0;fill-rule:evenodd;stroke:rgb(0, 0, 0);stroke-width:3.0;" d="M 570.679, 174.382 L 591.258, 151.565 L 633.267, 145.856 z "/>
<path style="fill:rgb(252, 249, 10);fill-opacity:1.0;fill-rule:evenodd;stroke:rgb(0, 0, 0);stroke-width:3.0;" d="M 774.581, 56.0369 L 703.644, 75.6711 L 629.132, 42.215 z "/>
<path style="fill:rgb(255, 14, 59);fill-opacity:1.0;fill-rule:evenodd;stroke:rgb(0, 0, 0);stroke-width:3.0;" d="M 545.644, 81.9745 L 534.826, 95.5761 L 530.526, 78.9731 z "/>
<path style="fill:rgb(255, 14, 59);fill-opacity:1.0;fill-rule:evenodd;stroke:rgb(0, 0, 0);stroke-width:3.0;" d="M 647.015, 143.988 L 523.604, 160.758 L 481.088, 137.271 L 493.309, 133.888 L 675.196, 108.135 z "/>
<path style="fill:rgb(170, 146, 177);fill-opacity:1.0;fill-rule:evenodd;stroke:rgb(0, 0, 0);stroke-width:3.0;" d="M 311.808, 49.3766 L 307.004, 57.064 L 297.244, 57.4738 L 287.55, 52.2006 L 288.964, 47.4544 L 293.549, 42.5469 L 307.307, 42.0927 z "/>
<path style="fill:rgb(192, 32, 215);fill-opacity:1.0;fill-rule:evenodd;stroke:rgb(0, 0, 0);stroke-width:3.0;" d="M 750.9, 265.047 L 754.555, 277.636 L 737.713, 288.03 L 736.153, 286.724 L 747.545, 264.56 z "/>
<path style="fill:rgb(192, 32, 215);fill-opacity:1.0;fill-rule:evenodd;stroke:rgb(0, 0, 0);stroke-width:3.0;" d="M 394.059, 90.1523 L 389.628, 92.5916 L 387.478, 85.9266 L 405.324, 61.4207 z "/>
<path style="fill:rgb(192, 32, 215);fill-opacity:1.0;fill-rule:evenodd;stroke:rgb(0, 0, 0);stroke-width:3.0;" d="M 142.466, 550.726 L 134.95, 554.304 L 102.887, 496.694 L 160.588, 487.293 z "/>
<path style="fill:rgb(249, 94, 220);fill-opacity:1.0;fill-rule:evenodd;stroke:rgb(0, 0, 0);stroke-width:3.0;" d="M 478.319, 96.5879 L 471.618, 131.417 L 448.368, 134.201 L 461.338, 86.6999 z "/>
<path style="fill:rgb(249, 94, 220);fill-opacity:1.0;fill-rule:evenodd;stroke:rgb(0, 0, 0);stroke-width:3.0;" d="M 303.161, 29.0726 L 297.013, 35.7341 L 282.742, 37.0718 L 283.915, 29.9547 L 295.577, 25.9562 z "/>
<path style="fill:rgb(249, 94, 220);fill-opacity:1.0;fill-rule:evenodd;stroke:rgb(0, 0, 0);stroke-width:3.0;" d="M 56.021, 372.974 L 49.2944, 371.265 L 44.89, 367.328 L 51.9703, 357.108 L 115.371, 356.381 z "/>
<path style="fill:rgb(249, 94, 220);fill-opacity:1.0;fill-rule:evenodd;stroke:rgb(0, 0, 0);stroke-width:3.0;" d="M 166.226, 537.262 L 165.776, 539.631 L 142.466, 550.726 L 146.636, 536.13 z "/>
<path style="fill:rgb(255, 43, 86);fill-opacity:1.0;fill-rule:evenodd;stroke:rgb(0, 0, 0);stroke-width:3.0;" d="M 191.698, 432.906 L 186.048, 490.739 L 174.409, 494.137 L 186.074, 432.655 z "/>
<path style="fill:rgb(255, 43, 86);fill-opacity:1.0;fill-rule:evenodd;stroke:rgb(0, 0, 0);stroke-width:3.0;" d="M 695.579, 224.731 L 685.23, 292.383 L 589.707, 337.849 L 639.528, 204.237 z "/>
<path style="fill:rgb(255, 43, 86);fill-opacity:1.0;fill-rule:evenodd;stroke:rgb(0, 0, 0);stroke-width:3.0;" d="M 787.524, 539.453 L 769.409, 551.422 L 767.077, 545.796 L 785.652, 535.283 z "/>
<path style="fill:rgb(255, 43, 86);fill-opacity:1.0;fill-rule:evenodd;stroke:rgb(0, 0, 0);stroke-width:3.0;" d="M 398.309, 71.0544 L 382.926, 92.1761 L 375.893, 89.8193 L 374.151, 84.0604 L 394.798, 67.9014 z "/>
<path style="fill:rgb(255, 21, 78);fill-opacity:1.0;fill-rule:evenodd;stroke:rgb(0, 0, 0);stroke-width:3.0;" d="M 193.461, 526.454 L 165.776, 539.631 L 174.409, 494.137 L 238.898, 475.312 z "/>
<path style="fill:rgb(255, 21, 78);fill-opacity:1.0;fill-rule:evenodd;stroke:rgb(0, 0, 0);stroke-width:3.0;" d="M 285.491, 361.344 L 285.07, 365.155 L 265.1, 370.92 L 257.547, 358.333 z "/>
<path style="fill:rgb(255, 21, 78);fill-opacity:1.0;fill-rule:evenodd;stroke:rgb(0, 0, 0);stroke-width:3.0;" d="M 792.87, 86.3581 L 794.868, 88.4723 L 781.421, 95.4208 L 780.293, 94.5884 L 777.967, 78.9872 z "/>
<path style="fill:rgb(184, 81, 215);fill-opacity:1.0;fill-rule:evenodd;stroke:rgb(0, 0, 0);stroke-width:3.0;" d="M 751, 101.236 L 736.258, 106.866 L 724.659, 90.1024 L 765.532, 62.7899 z "/>
<path style="fill:rgb(184, 81, 215);fill-opacity:1.0;fill-rule:evenodd;stroke:rgb(0, 0, 0);stroke-width:3.0;" d="M 279.122, 555.474 L 265.875, 566.917 L 234.312, 584.038 L 227.4, 581.007 L 218.55, 569.286 L 233.99, 558.959 L 270.34, 546.231 z "/>
<path style="fill:rgb(184, 81, 215);fill-opacity:1.0;fill-rule:evenodd;stroke:rgb(0, 0, 0);stroke-width:3.0;" d="M 689.946, 316.119 L 680.545, 340.235 L 646.588, 310.775 L 666.296, 301.395 z "/>
<path style="fill:rgb(184, 81, 215);fill-opacity:1.0;fill-rule:evenodd;stroke:rgb(0, 0, 0);stroke-width:3.0;" d="M 703.907, 305.004 L 698.883, 311.175 L 682.271, 293.791 L 697.703, 286.445 z "/>
<path style="fill:rgb(184, 81, 215);fill-opacity:1.0;fill-rule:evenodd;stroke:rgb(0, 0, 0);stroke-width:3.0;" d="M 104.036, 328.288 L 69.135, 311.334 L 88.0779, 302.793 z "/>
<path style="fill:rgb(207, 59, 255);fill-opacity:1.0;fill-rule:evenodd;stroke:rgb(0, 0, 0);stroke-width:3.0;" d="M 231.009, 20.927 L 215.145, 49.0702 L 214.225, 48.734 L 229.267, 11.7558 z "/>
<path style="fill:rgb(240, 13, 10);fill-opacity:1.0;fill-rule:evenodd;stroke:rgb(0, 0, 0);stroke-width:3.0;" d="M 432.126, 45.8968 L 429.277, 45.6584 L 419.39, 40.2472 L 427.835, 31.2857 L 430.165, 30.4163 z "/>
<path style="fill:rgb(255, 57, 144);fill-opacity:1.0;fill-rule:evenodd;stroke:rgb(0, 0, 0);stroke-width:3.0;" d="M 272.275, 31.9592 L 242.975, 59.2456 L 238.871, 57.7453 L 265.756, 14.322 z "/>
<path style="fill:rgb(83, 138, 228);fill-opacity:1.0;fill-rule:evenodd;stroke:rgb(0, 0, 0);stroke-width:3.0;" d="M 736.258, 106.866 L 684.122, 126.777 L 672.524, 111.536 L 699.899, 76.7076 L 712.901, 73.1087 z "/>
<path style="fill:rgb(255, 255, 52);fill-opacity:1.0;fill-rule:evenodd;stroke:rgb(0, 0, 0);stroke-width:3.0;" d="M 737.112, 562.972 L 603.589, 505.756 L 596.354, 432.081 L 773.913, 369.911 z "/>
<path style="fill:rgb(217, 40, 121);fill-opacity:1.0;fill-rule:evenodd;stroke:rgb(0, 0, 0);stroke-width:3.0;" d="M 64.4155, 375.106 L 61.5031, 383.03 L 60.4097, 383.083 L 46.2217, 373.08 L 47.2755, 370.752 z "/>
<path style="fill:rgb(215, 0, 124);fill-opacity:1.0;fill-rule:evenodd;stroke:rgb(0, 0, 0);stroke-width:3.0;" d="M 344.449, 529.201 L 258.637, 589.541 L 259.056, 570.616 L 347.074, 522.874 z "/>
<path style="fill:rgb(255, 45, 10);fill-opacity:1.0;fill-rule:evenodd;stroke:rgb(0, 0, 0);stroke-width:3.0;" d="M 189.348, 415.402 L 67.6355, 433.354 L 40.199, 384.057 L 196.727, 376.513 z "/>
<path style="fill:rgb(243, 10, 36);fill-opacity:1.0;fill-rule:evenodd;stroke:rgb(0, 0, 0);stroke-width:3.0;" d="M 324.736, 68.258 L 311.075, 72.6124 L 286.52, 59.8469 L 286.206, 57.9373 L 320.623, 56.4922 z "/>
<path style="fill:rgb(243, 10, 36);fill-opacity:1.0;fill-rule:evenodd;stroke:rgb(0, 0, 0);stroke-width:3.0;" d="M 533.39, 165.43 L 547.721, 351.421 L 529.442, 351.631 L 496.997, 152.124 z "/>
<path style="fill:rgb(243, 10, 36);fill-opacity:1.0;fill-rule:evenodd;stroke:rgb(0, 0, 0);stroke-width:3.0;" d="M 416.07, 100.564 L 412.935, 114.843 L 411.802, 116.672 L 397.712, 107.538 L 415.315, 100.036 z "/>
<path style="fill:rgb(243, 10, 36);fill-opacity:1.0;fill-rule:evenodd;stroke:rgb(0, 0, 0);stroke-width:3.0;" d="M 589.884, 120.215 L 572.168, 122.723 L 574.804, 120.067 L 660.511, 94.5028 z "/>
<path style="fill:rgb(243, 10, 36);fill-opacity:1.0;fill-rule:evenodd;stroke:rgb(0, 0, 0);stroke-width:3.0;" d="M 712.663, 330.263 L 714.983, 370.112 L 680.545, 340.235 L 689.946, 316.119 z "/>
<path style="fill:rgb(243, 10, 36);fill-opacity:1.0;fill-rule:evenodd;stroke:rgb(0, 0, 0);stroke-width:3.0;" d="M 416.075, 365.943 L 333.955, 369.9 L 310.539, 354.142 L 412.738, 352.97 z "/>
<path style="fill:rgb(33, 184, 255);fill-opacity:1.0;fill-rule:evenodd;stroke:rgb(0, 0, 0);stroke-width:3.0;" d="M 692.657, 19.1009 L 675.161, 24.5695 L 672.175, 20.8717 L 674.589, 16.0215 L 698.138, 10.4993 z "/>
<path style="fill:rgb(69, 18, 255);fill-opacity:1.0;fill-rule:evenodd;stroke:rgb(0, 0, 0);stroke-width:3.0;" d="M 347.629, 21.9744 L 337.568, 41.0937 L 329.018, 41.376 L 344.459, 17.395 z "/>
<path style="fill:rgb(255, 138, 13);fill-opacity:1.0;fill-rule:evenodd;stroke:rgb(0, 0, 0);stroke-width:3.0;" d="M 376.9, 93.1479 L 369.074, 90.3634 L 367.44, 69.2599 L 369.026, 67.1179 z "/>
<path style="fill:rgb(31, 142, 255);fill-opacity:1.0;fill-rule:evenodd;stroke:rgb(0, 0, 0);stroke-width:3.0;" d="M 576.309, 438.811 L 469.134, 459.049 L 512.661, 415.937 z "/>
<path style="fill:rgb(31, 142, 255);fill-opacity:1.0;fill-rule:evenodd;stroke:rgb(0, 0, 0);stroke-width:3.0;" d="M 694.456, 140.357 L 681.081, 147.268 L 675.232, 131.984 L 673.296, 121.927 L 677.327, 117.848 z "/>
<path style="fill:rgb(31, 142, 255);fill-opacity:1.0;fill-rule:evenodd;stroke:rgb(0, 0, 0);stroke-width:3.0;" d="M 465.13, 72.8125 L 448.332, 134.331 L 443.085, 132.412 L 434.037, 60.9829 z "/>
<path style="fill:rgb(255, 20, 45);fill-opacity:1.0;fill-rule:evenodd;stroke:rgb(0, 0, 0);stroke-width:3.0;" d="M 465.13, 72.8125 L 434.037, 60.9829 L 430.165, 30.4163 L 481.985, 11.0837 z "/>
<path style="fill:rgb(187, 37, 165);fill-opacity:1.0;fill-rule:evenodd;stroke:rgb(0, 0, 0);stroke-width:3.0;" d="M 30.8542, 466.008 L 17.4724, 464.723 L 21.8138, 445.326 z "/>
<path style="fill:rgb(187, 37, 165);fill-opacity:1.0;fill-rule:evenodd;stroke:rgb(0, 0, 0);stroke-width:3.0;" d="M 765.532, 62.7899 L 724.659, 90.1024 L 712.901, 73.1087 L 767.326, 58.0449 z "/>
<path style="fill:rgb(243, 136, 60);fill-opacity:1.0;fill-rule:evenodd;stroke:rgb(0, 0, 0);stroke-width:3.0;" d="M 483.401, 99.5468 L 508.536, 126.996 L 471.618, 131.417 L 478.319, 96.5879 z "/>
<path style="fill:rgb(243, 136, 60);fill-opacity:1.0;fill-rule:evenodd;stroke:rgb(0, 0, 0);stroke-width:3.0;" d="M 677.376, 98.7117 L 679.069, 103.209 L 675.196, 108.135 L 649.192, 111.817 L 670.383, 98.5011 z "/>
<path style="fill:rgb(74, 255, 255);fill-opacity:1.0;fill-rule:evenodd;stroke:rgb(0, 0, 0);stroke-width:3.0;" d="M 786.444, 257.954 L 770.372, 267.873 L 744.586, 264.13 L 770.109, 251.982 z "/>
<path style="fill:rgb(74, 255, 255);fill-opacity:1.0;fill-rule:evenodd;stroke:rgb(0, 0, 0);stroke-width:3.0;" d="M 369.243, 92.5485 L 370.268, 105.788 L 361.271, 102.498 L 330.491, 83.2874 z "/>
<path style="fill:rgb(74, 255, 255);fill-opacity:1.0;fill-rule:evenodd;stroke:rgb(0, 0, 0);stroke-width:3.0;" d="M 772.853, 434.976 L 752.911, 480.085 L 766.659, 407.965 L 767.867, 407.805 z "/>
<path style="fill:rgb(74, 255, 255);fill-opacity:1.0;fill-rule:evenodd;stroke:rgb(0, 0, 0);stroke-width:3.0;" d="M 623.535, 82.4035 L 600.252, 104.288 L 587, 107.956 L 583.317, 103.42 L 623.336, 81.3871 z "/>
<path style="fill:rgb(74, 255, 255);fill-opacity:1.0;fill-rule:evenodd;stroke:rgb(0, 0, 0);stroke-width:3.0;" d="M 681.485, 168.917 L 675.697, 217.462 L 572.821, 179.847 L 644.367, 159.082 z "/>
<path style="fill:rgb(220, 217, 14);fill-opacity:1.0;fill-rule:evenodd;stroke:rgb(0, 0, 0);stroke-width:3.0;" d="M 196.384, 376.53 L 127.241, 379.862 L 130.317, 356.209 L 167.916, 355.778 z "/>
<path style="fill:rgb(220, 217, 14);fill-opacity:1.0;fill-rule:evenodd;stroke:rgb(0, 0, 0);stroke-width:3.0;" d="M 180.253, 443.079 L 175.271, 425.956 L 183.623, 416.246 L 186.525, 415.818 z "/>
<path style="fill:rgb(255, 217, 6);fill-opacity:1.0;fill-rule:evenodd;stroke:rgb(0, 0, 0);stroke-width:3.0;" d="M 368.401, 440.799 L 338.336, 439.456 L 193.542, 393.301 L 196.727, 376.513 L 205.378, 376.097 z "/>
<path style="fill:rgb(255, 217, 6);fill-opacity:1.0;fill-rule:evenodd;stroke:rgb(0, 0, 0);stroke-width:3.0;" d="M 770.521, 173.854 L 757.705, 189.113 L 725.914, 180.69 L 735.305, 132.689 L 756.128, 126.645 z "/>
<path style="fill:rgb(255, 217, 6);fill-opacity:1.0;fill-rule:evenodd;stroke:rgb(0, 0, 0);stroke-width:3.0;" d="M 338.336, 439.456 L 265.018, 436.181 L 258.973, 414.158 z "/>
<path style="fill:rgb(255, 217, 6);fill-opacity:1.0;fill-rule:evenodd;stroke:rgb(0, 0, 0);stroke-width:3.0;" d="M 693.691, 84.606 L 560.238, 124.412 L 558.595, 124.645 L 558.459, 115.856 L 699.899, 76.7076 z "/>
<path style="fill:rgb(255, 134, 83);fill-opacity:1.0;fill-rule:evenodd;stroke:rgb(0, 0, 0);stroke-width:3.0;" d="M 304.896, 545.752 L 265.875, 566.917 L 292.387, 544.015 z "/>
<path style="fill:rgb(255, 134, 83);fill-opacity:1.0;fill-rule:evenodd;stroke:rgb(0, 0, 0);stroke-width:3.0;" d="M 579.219, 72.2352 L 562.8, 78.151 L 560.498, 75.3152 L 566.2, 62.3876 z "/>
<path style="fill:rgb(255, 134, 83);fill-opacity:1.0;fill-rule:evenodd;stroke:rgb(0, 0, 0);stroke-width:3.0;" d="M 394.922, 67.804 L 390.054, 71.6142 L 379.669, 58.3491 L 381.451, 52.474 L 390.828, 50.9729 z "/>
<path style="fill:rgb(255, 134, 83);fill-opacity:1.0;fill-rule:evenodd;stroke:rgb(0, 0, 0);stroke-width:3.0;" d="M 349.377, 9.7559 L 329.873, 40.0486 L 288.191, 22.9213 L 303.376, 5.62224 z "/>
<path style="fill:rgb(255, 61, 150);fill-opacity:1.0;fill-rule:evenodd;stroke:rgb(0, 0, 0);stroke-width:3.0;" d="M 60.4097, 383.083 L 14.3339, 385.303 L 23.7804, 376.959 L 46.238, 373.092 z "/>
<path style="fill:rgb(255, 61, 150);fill-opacity:1.0;fill-rule:evenodd;stroke:rgb(0, 0, 0);stroke-width:3.0;" d="M 748.196, 234.532 L 745.293, 242.908 L 719.713, 233.555 L 734.076, 230.088 z "/>
<path style="fill:rgb(255, 61, 150);fill-opacity:1.0;fill-rule:evenodd;stroke:rgb(0, 0, 0);stroke-width:3.0;" d="M 763.409, 190.625 L 759.437, 202.089 L 747.054, 186.762 L 747.827, 186.496 z "/>
<path style="fill:rgb(255, 61, 150);fill-opacity:1.0;fill-rule:evenodd;stroke:rgb(0, 0, 0);stroke-width:3.0;" d="M 731.762, 384.669 L 582.633, 436.885 L 548.703, 357.366 L 646.588, 310.775 z "/>
<path style="fill:rgb(192, 45, 62);fill-opacity:1.0;fill-rule:evenodd;stroke:rgb(0, 0, 0);stroke-width:3.0;" d="M 266.44, 373.154 L 196.384, 376.53 L 167.916, 355.778 L 255.412, 354.774 z "/>
<path style="fill:rgb(220, 49, 150);fill-opacity:1.0;fill-rule:evenodd;stroke:rgb(0, 0, 0);stroke-width:3.0;" d="M 401.449, 62.6954 L 394.922, 67.804 L 389.516, 45.5817 L 394.251, 43.8154 L 395.428, 43.7587 z "/>
<path style="fill:rgb(255, 192, 249);fill-opacity:1.0;fill-rule:evenodd;stroke:rgb(0, 0, 0);stroke-width:3.0;" d="M 558.492, 118 L 558.595, 124.645 L 493.309, 133.888 L 557.76, 116.049 z "/>
<path style="fill:rgb(255, 192, 249);fill-opacity:1.0;fill-rule:evenodd;stroke:rgb(0, 0, 0);stroke-width:3.0;" d="M 648.685, 32.8451 L 569.407, 57.6252 L 647.035, 30.582 z "/>
<path style="fill:rgb(252, 255, 76);fill-opacity:1.0;fill-rule:evenodd;stroke:rgb(0, 0, 0);stroke-width:3.0;" d="M 581.962, 94.4908 L 581.08, 94.3049 L 585.229, 81.2488 L 602.19, 76.4917 z "/>
<path style="fill:rgb(255, 10, 7);fill-opacity:1.0;fill-rule:evenodd;stroke:rgb(0, 0, 0);stroke-width:3.0;" d="M 669.943, 134.371 L 658.482, 129.4 L 669.716, 115.107 z "/>
<path style="fill:rgb(255, 10, 7);fill-opacity:1.0;fill-rule:evenodd;stroke:rgb(0, 0, 0);stroke-width:3.0;" d="M 743.457, 272.513 L 736.153, 286.724 L 724.027, 276.571 L 725.844, 273.051 L 736.451, 268.002 z "/>
<path style="fill:rgb(255, 10, 7);fill-opacity:1.0;fill-rule:evenodd;stroke:rgb(0, 0, 0);stroke-width:3.0;" d="M 662.751, 28.4486 L 659.894, 29.3417 L 650.483, 13.2364 L 660.346, 9.4542 z "/>
<path style="fill:rgb(255, 119, 30);fill-opacity:1.0;fill-rule:evenodd;stroke:rgb(0, 0, 0);stroke-width:3.0;" d="M 586.374, 77.6471 L 578.708, 71.8488 L 578.336, 63.8002 L 591.594, 61.2224 z "/>
<path style="fill:rgb(255, 119, 30);fill-opacity:1.0;fill-rule:evenodd;stroke:rgb(0, 0, 0);stroke-width:3.0;" d="M 582.633, 436.885 L 578.095, 438.474 L 576.309, 438.811 L 512.661, 415.937 L 555.563, 373.444 z "/>
<path style="fill:rgb(243, 71, 16);fill-opacity:1.0;fill-rule:evenodd;stroke:rgb(0, 0, 0);stroke-width:3.0;" d="M 772.853, 434.976 L 767.867, 407.805 L 785.921, 405.415 z "/>
<path style="fill:rgb(243, 71, 16);fill-opacity:1.0;fill-rule:evenodd;stroke:rgb(0, 0, 0);stroke-width:3.0;" d="M 372.986, 441.004 L 368.401, 440.799 L 205.378, 376.097 L 543.595, 359.798 z "/>
<path style="fill:rgb(243, 255, 36);fill-opacity:1.0;fill-rule:evenodd;stroke:rgb(0, 0, 0);stroke-width:3.0;" d="M 432.235, 61.8459 L 417.312, 81.4011 L 417.77, 59.33 z "/>
<path style="fill:rgb(249, 255, 47);fill-opacity:1.0;fill-rule:evenodd;stroke:rgb(0, 0, 0);stroke-width:3.0;" d="M 108.4, 380.369 L 108.208, 380.779 L 95.7756, 381.378 L 101.531, 369.274 L 110.074, 364.899 z "/>
<path style="fill:rgb(212, 1, 13);fill-opacity:1.0;fill-rule:evenodd;stroke:rgb(0, 0, 0);stroke-width:3.0;" d="M 560.868, 168.107 L 557.817, 174.361 L 529.26, 163.92 L 534.322, 159.301 L 561.362, 155.627 z "/>
<path style="fill:rgb(182, 197, 255);fill-opacity:1.0;fill-rule:evenodd;stroke:rgb(0, 0, 0);stroke-width:3.0;" d="M 329.873, 40.0486 L 329.018, 41.376 L 259.706, 43.6641 L 264.999, 38.7348 L 315.22, 34.0277 z "/>
<path style="fill:rgb(182, 197, 255);fill-opacity:1.0;fill-rule:evenodd;stroke:rgb(0, 0, 0);stroke-width:3.0;" d="M 708.272, 32.8755 L 719.034, 50.7583 L 621.139, 41.4553 L 676.829, 24.0481 z "/>
<path style="fill:rgb(182, 197, 255);fill-opacity:1.0;fill-rule:evenodd;stroke:rgb(0, 0, 0);stroke-width:3.0;" d="M 127.241, 379.862 L 121.21, 380.153 L 123.677, 356.286 L 130.317, 356.209 z "/>
<path style="fill:rgb(182, 197, 255);fill-opacity:1.0;fill-rule:evenodd;stroke:rgb(0, 0, 0);stroke-width:3.0;" d="M 725.914, 180.69 L 644.367, 159.082 L 735.305, 132.689 z "/>
<path style="fill:rgb(187, 237, 165);fill-opacity:1.0;fill-rule:evenodd;stroke:rgb(0, 0, 0);stroke-width:3.0;" d="M 221.128, 26.8394 L 212.793, 48.2104 L 199.028, 43.1773 L 199.852, 39.0751 L 205.974, 25.2752 z "/>
<path style="fill:rgb(255, 243, 128);fill-opacity:1.0;fill-rule:evenodd;stroke:rgb(0, 0, 0);stroke-width:3.0;" d="M 496.997, 152.124 L 525.445, 327.054 L 516.173, 351.783 L 475.269, 352.252 L 476.333, 144.568 z "/>
<path style="fill:rgb(255, 243, 128);fill-opacity:1.0;fill-rule:evenodd;stroke:rgb(0, 0, 0);stroke-width:3.0;" d="M 261.912, 55.6041 L 250.281, 52.4415 L 259.706, 43.6641 L 285.45, 42.8143 z "/>
<path style="fill:rgb(255, 243, 128);fill-opacity:1.0;fill-rule:evenodd;stroke:rgb(0, 0, 0);stroke-width:3.0;" d="M 178.263, 560.785 L 171.526, 562.457 L 145.179, 556.204 L 151.788, 550.048 z "/>
<path style="fill:rgb(94, 146, 246);fill-opacity:1.0;fill-rule:evenodd;stroke:rgb(0, 0, 0);stroke-width:3.0;" d="M 166.757, 478.576 L 102.667, 496.299 L 67.6355, 433.354 L 120.057, 425.622 z "/>
<path style="fill:rgb(94, 146, 246);fill-opacity:1.0;fill-rule:evenodd;stroke:rgb(0, 0, 0);stroke-width:3.0;" d="M 165.166, 507.434 L 156.509, 518.99 L 156.647, 501.087 L 157.99, 496.387 z "/>
<path style="fill:rgb(204, 255, 52);fill-opacity:1.0;fill-rule:evenodd;stroke:rgb(0, 0, 0);stroke-width:3.0;" d="M 510.492, 129.132 L 467.022, 141.164 L 448.332, 134.331 L 448.368, 134.201 L 508.536, 126.996 z "/>
<path style="fill:rgb(255, 72, 255);fill-opacity:1.0;fill-rule:evenodd;stroke:rgb(0, 0, 0);stroke-width:3.0;" d="M 594.247, 52.8734 L 591.594, 61.2224 L 578.336, 63.8002 L 578.041, 57.4381 L 591.468, 51.4484 z "/>
<path style="fill:rgb(246, 237, 6);fill-opacity:1.0;fill-rule:evenodd;stroke:rgb(0, 0, 0);stroke-width:3.0;" d="M 378.546, 18.2777 L 345.888, 32.3848 L 342.293, 32.1147 L 343.711, 29.4194 L 345.237, 27.4746 L 378.418, 17.1919 z "/>
<path style="fill:rgb(7, 220, 255);fill-opacity:1.0;fill-rule:evenodd;stroke:rgb(0, 0, 0);stroke-width:3.0;" d="M 698.282, 311.913 L 694.751, 316.25 L 678.612, 309.062 L 666.296, 301.395 L 680.24, 294.757 z "/>
<path style="fill:rgb(255, 55, 17);fill-opacity:1.0;fill-rule:evenodd;stroke:rgb(0, 0, 0);stroke-width:3.0;" d="M 555.563, 373.444 L 475.15, 453.09 L 434.645, 411.655 L 548.703, 357.366 z "/>
<path style="fill:rgb(163, 217, 43);fill-opacity:1.0;fill-rule:evenodd;stroke:rgb(0, 0, 0);stroke-width:3.0;" d="M 329.565, 565.074 L 304.953, 576.102 L 279.899, 574.59 L 314.119, 550.528 L 336.69, 547.902 z "/>
<path style="fill:rgb(163, 217, 43);fill-opacity:1.0;fill-rule:evenodd;stroke:rgb(0, 0, 0);stroke-width:3.0;" d="M 226.478, 510.739 L 193.461, 526.454 L 213.501, 503.898 z "/>
<path style="fill:rgb(17, 163, 255);fill-opacity:1.0;fill-rule:evenodd;stroke:rgb(0, 0, 0);stroke-width:3.0;" d="M 475.15, 453.09 L 469.134, 459.049 L 399.608, 472.177 L 403.245, 426.601 L 434.645, 411.655 z "/>
<path style="fill:rgb(199, 23, 30);fill-opacity:1.0;fill-rule:evenodd;stroke:rgb(0, 0, 0);stroke-width:3.0;" d="M 399.608, 472.177 L 246.918, 501.01 L 403.245, 426.601 z "/>
<path style="fill:rgb(223, 14, 121);fill-opacity:1.0;fill-rule:evenodd;stroke:rgb(0, 0, 0);stroke-width:3.0;" d="M 650.587, 32.2506 L 648.685, 32.8451 L 637.906, 18.0594 L 648.085, 14.1563 z "/>
<path style="fill:rgb(204, 1, 249);fill-opacity:1.0;fill-rule:evenodd;stroke:rgb(0, 0, 0);stroke-width:3.0;" d="M 659.894, 29.3417 L 650.587, 32.2506 L 648.085, 14.1563 L 650.483, 13.2364 z "/>
<path style="fill:rgb(192, 3, 35);fill-opacity:1.0;fill-rule:evenodd;stroke:rgb(0, 0, 0);stroke-width:3.0;" d="M 383.826, 63.658 L 390.054, 71.6142 L 388.858, 72.5498 L 368.179, 64.3186 L 367.342, 61.5512 L 369.094, 61.0628 z "/>
<path style="fill:rgb(228, 15, 207);fill-opacity:1.0;fill-rule:evenodd;stroke:rgb(0, 0, 0);stroke-width:3.0;" d="M 172.016, 506.744 L 167.032, 510.307 L 166.062, 508.814 L 173.15, 485.246 L 176.189, 484.751 z "/>
<path style="fill:rgb(228, 15, 207);fill-opacity:1.0;fill-rule:evenodd;stroke:rgb(0, 0, 0);stroke-width:3.0;" d="M 22.6162, 198.212 L 16.4344, 203.018 L 6.12159, 197.547 L 5.19949, 170.387 z "/>
<path style="fill:rgb(255, 202, 7);fill-opacity:1.0;fill-rule:evenodd;stroke:rgb(0, 0, 0);stroke-width:3.0;" d="M 182.579, 451.074 L 177.948, 475.481 L 166.757, 478.576 L 120.057, 425.622 L 172.906, 417.827 z "/>
<path style="fill:rgb(255, 202, 7);fill-opacity:1.0;fill-rule:evenodd;stroke:rgb(0, 0, 0);stroke-width:3.0;" d="M 316.37, 539.528 L 304.896, 545.752 L 292.387, 544.015 L 303.1, 534.76 L 316.192, 530.177 z "/>
<path style="fill:rgb(115, 91, 255);fill-opacity:1.0;fill-rule:evenodd;stroke:rgb(0, 0, 0);stroke-width:3.0;" d="M 521.738, 458.207 L 318.546, 487.484 L 578.095, 438.474 z "/>
<path style="fill:rgb(115, 91, 255);fill-opacity:1.0;fill-rule:evenodd;stroke:rgb(0, 0, 0);stroke-width:3.0;" d="M 347.074, 522.874 L 316.37, 539.528 L 316.192, 530.177 L 348.778, 518.767 z "/>
<path style="fill:rgb(134, 54, 179);fill-opacity:1.0;fill-rule:evenodd;stroke:rgb(0, 0, 0);stroke-width:3.0;" d="M 603.589, 505.756 L 539.434, 478.265 L 535.51, 453.385 L 596.354, 432.081 z "/>
<path style="fill:rgb(134, 54, 179);fill-opacity:1.0;fill-rule:evenodd;stroke:rgb(0, 0, 0);stroke-width:3.0;" d="M 123.541, 357.602 L 123.497, 358.026 L 81.6111, 379.475 L 56.021, 372.974 L 115.371, 356.381 L 119.336, 356.335 z "/>
<path style="fill:rgb(97, 246, 255);fill-opacity:1.0;fill-rule:evenodd;stroke:rgb(0, 0, 0);stroke-width:3.0;" d="M 57.8283, 254.467 L 25.9555, 242.153 L 46.027, 235.613 z "/>
<path style="fill:rgb(20, 14, 255);fill-opacity:1.0;fill-rule:evenodd;stroke:rgb(0, 0, 0);stroke-width:3.0;" d="M 333.955, 369.9 L 284.282, 372.294 L 286.256, 354.421 L 310.539, 354.142 z "/>
<path style="fill:rgb(197, 31, 114);fill-opacity:1.0;fill-rule:evenodd;stroke:rgb(0, 0, 0);stroke-width:3.0;" d="M 560.33, 97.1525 L 558.929, 101.815 L 548.711, 103.583 L 555.661, 85.6663 z "/>
<path style="fill:rgb(197, 31, 114);fill-opacity:1.0;fill-rule:evenodd;stroke:rgb(0, 0, 0);stroke-width:3.0;" d="M 88.9113, 471.583 L 30.8542, 466.008 L 21.8138, 445.326 L 35.4763, 384.284 L 40.199, 384.057 z "/>
<path style="fill:rgb(197, 31, 114);fill-opacity:1.0;fill-rule:evenodd;stroke:rgb(0, 0, 0);stroke-width:3.0;" d="M 449.086, 364.26 L 428.875, 352.785 L 495.922, 352.015 z "/>
<path style="fill:rgb(255, 148, 6);fill-opacity:1.0;fill-rule:evenodd;stroke:rgb(0, 0, 0);stroke-width:3.0;" d="M 539.434, 478.265 L 505.717, 463.816 L 535.51, 453.385 z "/>
<path style="fill:rgb(255, 148, 6);fill-opacity:1.0;fill-rule:evenodd;stroke:rgb(0, 0, 0);stroke-width:3.0;" d="M 369.106, 90.7723 L 369.243, 92.5485 L 330.491, 83.2874 L 330.246, 83.1347 L 326.03, 69.267 L 352.359, 59.4442 z "/>
<path style="fill:rgb(255, 148, 6);fill-opacity:1.0;fill-rule:evenodd;stroke:rgb(0, 0, 0);stroke-width:3.0;" d="M 134.95, 554.304 L 94.1459, 573.726 L 87.3092, 569.977 L 112.512, 513.989 z "/>
<path style="fill:rgb(255, 83, 27);fill-opacity:1.0;fill-rule:evenodd;stroke:rgb(0, 0, 0);stroke-width:3.0;" d="M 669.943, 134.371 L 670.055, 143.931 L 666.346, 147.085 L 655.266, 133.491 L 658.482, 129.4 z "/>
<path style="fill:rgb(255, 83, 27);fill-opacity:1.0;fill-rule:evenodd;stroke:rgb(0, 0, 0);stroke-width:3.0;" d="M 629.132, 42.215 L 641.91, 47.9523 L 657.868, 88.341 L 626.408, 97.0486 L 615.828, 43.1154 L 621.139, 41.4553 z "/>
<path style="fill:rgb(199, 14, 10);fill-opacity:1.0;fill-rule:evenodd;stroke:rgb(0, 0, 0);stroke-width:3.0;" d="M 671.921, 114.783 L 678.437, 148.634 L 675.967, 149.911 L 671.573, 151.186 L 670.134, 150.594 L 669.716, 115.107 L 670.287, 114.381 z "/>
<path style="fill:rgb(231, 228, 32);fill-opacity:1.0;fill-rule:evenodd;stroke:rgb(0, 0, 0);stroke-width:3.0;" d="M 283.824, 14.356 L 277.661, 26.2947 L 267.291, 11.8438 L 268.179, 10.4095 z "/>
<path style="fill:rgb(64, 37, 223);fill-opacity:1.0;fill-rule:evenodd;stroke:rgb(0, 0, 0);stroke-width:3.0;" d="M 164.184, 505.922 L 157.99, 496.387 L 160.588, 487.293 L 173.079, 485.258 z "/>
<path style="fill:rgb(255, 21, 187);fill-opacity:1.0;fill-rule:evenodd;stroke:rgb(0, 0, 0);stroke-width:3.0;" d="M 352.187, 59.5082 L 339.406, 63.5821 L 331.694, 61.8554 L 322.185, 51.9684 L 395.701, 43.2742 z "/>
<path style="fill:rgb(255, 11, 136);fill-opacity:1.0;fill-rule:evenodd;stroke:rgb(0, 0, 0);stroke-width:3.0;" d="M 639.528, 204.237 L 589.707, 337.849 L 586.989, 339.143 L 596.268, 188.42 z "/>
<path style="fill:rgb(255, 11, 136);fill-opacity:1.0;fill-rule:evenodd;stroke:rgb(0, 0, 0);stroke-width:3.0;" d="M 616.555, 46.8213 L 593.115, 56.4355 L 595.311, 49.5285 L 615.828, 43.1154 z "/>
<path style="fill:rgb(217, 7, 121);fill-opacity:1.0;fill-rule:evenodd;stroke:rgb(0, 0, 0);stroke-width:3.0;" d="M 774.739, 193.627 L 753.935, 227.73 L 767.666, 191.753 z "/>
<path style="fill:rgb(217, 7, 121);fill-opacity:1.0;fill-rule:evenodd;stroke:rgb(0, 0, 0);stroke-width:3.0;" d="M 336.69, 547.902 L 314.119, 550.528 L 344.449, 529.201 z "/>
<path style="fill:rgb(255, 204, 25);fill-opacity:1.0;fill-rule:evenodd;stroke:rgb(0, 0, 0);stroke-width:3.0;" d="M 626.408, 97.0486 L 600.252, 104.288 L 623.535, 82.4035 z "/>
<path style="fill:rgb(255, 204, 25);fill-opacity:1.0;fill-rule:evenodd;stroke:rgb(0, 0, 0);stroke-width:3.0;" d="M 411.802, 116.672 L 409.63, 120.18 L 387.251, 111.997 L 397.712, 107.538 z "/>
<path style="fill:rgb(7, 0, 240);fill-opacity:1.0;fill-rule:evenodd;stroke:rgb(0, 0, 0);stroke-width:3.0;" d="M 775.468, 369.366 L 731.762, 384.669 L 718.168, 372.875 L 769.197, 365.462 z "/>
<path style="fill:rgb(7, 0, 240);fill-opacity:1.0;fill-rule:evenodd;stroke:rgb(0, 0, 0);stroke-width:3.0;" d="M 246.065, 46.1262 L 225.971, 47.4646 L 222.682, 45.986 L 265.039, 15.4804 z "/>
<path style="fill:rgb(255, 255, 22);fill-opacity:1.0;fill-rule:evenodd;stroke:rgb(0, 0, 0);stroke-width:3.0;" d="M 649.192, 111.817 L 589.884, 120.215 L 660.511, 94.5028 L 691.413, 85.2854 z "/>
<path style="fill:rgb(255, 14, 27);fill-opacity:1.0;fill-rule:evenodd;stroke:rgb(0, 0, 0);stroke-width:3.0;" d="M 746.57, 186.163 L 759.437, 202.089 L 748.196, 234.532 L 693.412, 217.29 L 679.756, 183.416 L 681.485, 168.917 z "/>
<path style="fill:rgb(255, 14, 27);fill-opacity:1.0;fill-rule:evenodd;stroke:rgb(0, 0, 0);stroke-width:3.0;" d="M 519.035, 569.429 L 461.807, 537.314 L 441.589, 508.064 L 496.298, 475.838 z "/>
<path style="fill:rgb(46, 255, 43);fill-opacity:1.0;fill-rule:evenodd;stroke:rgb(0, 0, 0);stroke-width:3.0;" d="M 496.298, 475.838 L 441.589, 508.064 L 431.989, 494.175 L 434.884, 488.618 L 494.344, 467.798 z "/>
<path style="fill:rgb(18, 10, 255);fill-opacity:1.0;fill-rule:evenodd;stroke:rgb(0, 0, 0);stroke-width:3.0;" d="M 345.884, 49.1658 L 319.167, 52.3254 L 316.735, 45.3684 L 345.687, 40.8257 L 365.74, 40.1637 z "/>
<path style="fill:rgb(18, 10, 255);fill-opacity:1.0;fill-rule:evenodd;stroke:rgb(0, 0, 0);stroke-width:3.0;" d="M 548.938, 171.115 L 592.587, 248.216 L 586.989, 339.143 L 561.526, 351.263 L 547.721, 351.421 L 533.39, 165.43 z "/>
<path style="fill:rgb(255, 45, 58);fill-opacity:1.0;fill-rule:evenodd;stroke:rgb(0, 0, 0);stroke-width:3.0;" d="M 285.609, 437.101 L 245.343, 501.759 L 226.478, 510.739 L 213.501, 503.898 L 273.334, 436.552 z "/>
<path style="fill:rgb(255, 45, 58);fill-opacity:1.0;fill-rule:evenodd;stroke:rgb(0, 0, 0);stroke-width:3.0;" d="M 596.268, 188.42 L 592.587, 248.216 L 548.938, 171.115 z "/>
<path style="fill:rgb(16, 58, 255);fill-opacity:1.0;fill-rule:evenodd;stroke:rgb(0, 0, 0);stroke-width:3.0;" d="M 782.734, 53.7803 L 774.581, 56.0369 L 719.034, 50.7583 L 708.272, 32.8755 z "/>
<path style="fill:rgb(33, 255, 255);fill-opacity:1.0;fill-rule:evenodd;stroke:rgb(0, 0, 0);stroke-width:3.0;" d="M 82.0001, 305.534 L 69.135, 311.334 L 53.5165, 303.747 L 77.018, 303.072 z "/>
<path style="fill:rgb(255, 8, 8);fill-opacity:1.0;fill-rule:evenodd;stroke:rgb(0, 0, 0);stroke-width:3.0;" d="M 23.5481, 376.854 L 10.6554, 359.565 L 14.4946, 357.538 L 25.1367, 357.416 z "/>
<path style="fill:rgb(255, 26, 199);fill-opacity:1.0;fill-rule:evenodd;stroke:rgb(0, 0, 0);stroke-width:3.0;" d="M 728.982, 122.517 L 694.456, 140.357 L 684.122, 126.777 L 724.475, 111.366 z "/>
<path style="fill:rgb(255, 26, 199);fill-opacity:1.0;fill-rule:evenodd;stroke:rgb(0, 0, 0);stroke-width:3.0;" d="M 372.986, 441.004 L 296.691, 477.319 L 308.576, 438.127 z "/>
<path style="fill:rgb(255, 255, 57);fill-opacity:1.0;fill-rule:evenodd;stroke:rgb(0, 0, 0);stroke-width:3.0;" d="M 379.082, 22.8272 L 380.514, 34.9866 L 345.888, 32.3848 L 373.817, 20.3203 z "/>
<path style="fill:rgb(255, 4, 70);fill-opacity:1.0;fill-rule:evenodd;stroke:rgb(0, 0, 0);stroke-width:3.0;" d="M 412.552, 22.6552 L 413.847, 34.8715 L 413.718, 35.198 L 394.457, 32.5069 L 381.2, 13.3861 z "/>
<path style="fill:rgb(194, 255, 177);fill-opacity:1.0;fill-rule:evenodd;stroke:rgb(0, 0, 0);stroke-width:3.0;" d="M 256.45, 435.798 L 188.969, 432.784 L 202.472, 419.078 z "/>
<path style="fill:rgb(243, 246, 24);fill-opacity:1.0;fill-rule:evenodd;stroke:rgb(0, 0, 0);stroke-width:3.0;" d="M 273.334, 436.552 L 270.123, 440.166 L 190.092, 449.347 L 191.698, 432.906 z "/>
<path style="fill:rgb(243, 246, 24);fill-opacity:1.0;fill-rule:evenodd;stroke:rgb(0, 0, 0);stroke-width:3.0;" d="M 88.036, 320.516 L 74.0211, 356.855 L 26.8062, 357.397 L 38.9458, 316.679 L 59.392, 306.602 z "/>
<path style="fill:rgb(243, 246, 24);fill-opacity:1.0;fill-rule:evenodd;stroke:rgb(0, 0, 0);stroke-width:3.0;" d="M 202.368, 570.031 L 150.08, 547.102 L 246.918, 501.01 L 318.546, 487.484 L 521.738, 458.207 z "/>
<path style="fill:rgb(243, 246, 24);fill-opacity:1.0;fill-rule:evenodd;stroke:rgb(0, 0, 0);stroke-width:3.0;" d="M 202.472, 419.078 L 188.969, 432.784 L 186.074, 432.655 L 189.418, 415.034 z "/>
<path style="fill:rgb(255, 159, 13);fill-opacity:1.0;fill-rule:evenodd;stroke:rgb(0, 0, 0);stroke-width:3.0;" d="M 279.774, 360.728 L 257.547, 358.333 L 255.412, 354.774 L 278.533, 354.509 z "/>
<path style="fill:rgb(255, 159, 13);fill-opacity:1.0;fill-rule:evenodd;stroke:rgb(0, 0, 0);stroke-width:3.0;" d="M 676.412, 63.444 L 686.943, 80.2935 L 657.868, 88.341 L 653.225, 76.589 L 670.585, 60.8273 z "/>
<path style="fill:rgb(13, 255, 132);fill-opacity:1.0;fill-rule:evenodd;stroke:rgb(0, 0, 0);stroke-width:3.0;" d="M 755.047, 554.338 L 755.242, 570.741 L 737.112, 562.972 L 739.55, 550.182 z "/>
<path style="fill:rgb(13, 255, 132);fill-opacity:1.0;fill-rule:evenodd;stroke:rgb(0, 0, 0);stroke-width:3.0;" d="M 670.585, 60.8273 L 653.225, 76.589 L 641.91, 47.9523 z "/>
<path style="fill:rgb(21, 121, 255);fill-opacity:1.0;fill-rule:evenodd;stroke:rgb(0, 0, 0);stroke-width:3.0;" d="M 494.478, 355.031 L 486.118, 362.568 L 464.361, 363.616 L 462.576, 360.733 L 493.634, 352.614 z "/>
<path style="fill:rgb(226, 255, 100);fill-opacity:1.0;fill-rule:evenodd;stroke:rgb(0, 0, 0);stroke-width:3.0;" d="M 418.074, 44.7211 L 417.238, 84.9604 L 414.87, 87.7401 L 405.514, 78.5077 L 417.575, 44.6794 z "/>
<path style="fill:rgb(255, 255, 18);fill-opacity:1.0;fill-rule:evenodd;stroke:rgb(0, 0, 0);stroke-width:3.0;" d="M 417.575, 44.6794 L 405.514, 78.5077 L 400.547, 73.6059 L 412.069, 44.2188 z "/>
<path style="fill:rgb(34, 220, 255);fill-opacity:1.0;fill-rule:evenodd;stroke:rgb(0, 0, 0);stroke-width:3.0;" d="M 284.692, 61.7981 L 281.282, 73.2518 L 249.442, 61.6101 L 248.876, 53.7501 L 250.281, 52.4415 z "/>
<path style="fill:rgb(40, 26, 187);fill-opacity:1.0;fill-rule:evenodd;stroke:rgb(0, 0, 0);stroke-width:3.0;" d="M 693.412, 217.29 L 676.357, 211.922 L 678.943, 190.238 L 681.804, 188.496 z "/>
<path style="fill:rgb(40, 26, 187);fill-opacity:1.0;fill-rule:evenodd;stroke:rgb(0, 0, 0);stroke-width:3.0;" d="M 734.076, 230.088 L 719.713, 233.555 L 675.697, 217.462 L 676.357, 211.922 z "/>
<path style="fill:rgb(246, 220, 10);fill-opacity:1.0;fill-rule:evenodd;stroke:rgb(0, 0, 0);stroke-width:3.0;" d="M 770.109, 251.982 L 685.23, 292.383 L 695.579, 224.731 z "/>
<path style="fill:rgb(10, 76, 249);fill-opacity:1.0;fill-rule:evenodd;stroke:rgb(0, 0, 0);stroke-width:3.0;" d="M 357.96, 23.5319 L 344.637, 27.6606 L 354.807, 8.33521 z "/>
<path style="fill:rgb(199, 255, 27);fill-opacity:1.0;fill-rule:evenodd;stroke:rgb(0, 0, 0);stroke-width:3.0;" d="M 308.576, 438.127 L 296.691, 477.319 L 245.343, 501.759 L 285.609, 437.101 z "/>
<path style="fill:rgb(255, 140, 255);fill-opacity:1.0;fill-rule:evenodd;stroke:rgb(0, 0, 0);stroke-width:3.0;" d="M 238.898, 475.312 L 186.048, 490.739 L 190.092, 449.347 L 270.123, 440.166 z "/>
<path style="fill:rgb(79, 237, 209);fill-opacity:1.0;fill-rule:evenodd;stroke:rgb(0, 0, 0);stroke-width:3.0;" d="M 618.713, 78.9211 L 610.194, 88.6221 L 583.317, 103.42 L 580.071, 99.4224 L 611.646, 74.3467 z "/>
<path style="fill:rgb(8, 246, 246);fill-opacity:1.0;fill-rule:evenodd;stroke:rgb(0, 0, 0);stroke-width:3.0;" d="M 216.313, 401.638 L 206.509, 420.328 L 189.418, 415.034 L 192.875, 396.812 z "/>
<path style="fill:rgb(8, 246, 246);fill-opacity:1.0;fill-rule:evenodd;stroke:rgb(0, 0, 0);stroke-width:3.0;" d="M 529.442, 351.631 L 516.173, 351.783 L 525.445, 327.054 z "/>
<path style="fill:rgb(255, 226, 14);fill-opacity:1.0;fill-rule:evenodd;stroke:rgb(0, 0, 0);stroke-width:3.0;" d="M 735.212, 124.708 L 712.28, 137.653 L 710.772, 137.405 L 719.75, 127.429 L 720.091, 127.111 L 729.169, 122.42 z "/>
<path style="fill:rgb(255, 56, 47);fill-opacity:1.0;fill-rule:evenodd;stroke:rgb(0, 0, 0);stroke-width:3.0;" d="M 284.692, 61.7981 L 261.912, 55.6041 L 285.45, 42.8143 L 290.394, 42.651 z "/>
<path style="fill:rgb(255, 56, 47);fill-opacity:1.0;fill-rule:evenodd;stroke:rgb(0, 0, 0);stroke-width:3.0;" d="M 176.448, 483.386 L 176.189, 484.751 L 102.887, 496.694 L 102.667, 496.299 L 164.437, 479.218 z "/>
<path style="fill:rgb(16, 240, 240);fill-opacity:1.0;fill-rule:evenodd;stroke:rgb(0, 0, 0);stroke-width:3.0;" d="M 757.01, 551.493 L 752.969, 553.781 L 739.55, 550.182 L 742.155, 536.512 z "/>
<path style="fill:rgb(246, 38, 14);fill-opacity:1.0;fill-rule:evenodd;stroke:rgb(0, 0, 0);stroke-width:3.0;" d="M 792.93, 531.164 L 757.01, 551.493 L 742.155, 536.512 L 744.486, 524.287 z "/>
<path style="fill:rgb(252, 3, 82);fill-opacity:1.0;fill-rule:evenodd;stroke:rgb(0, 0, 0);stroke-width:3.0;" d="M 544.973, 359.142 L 543.595, 359.798 L 486.118, 362.568 L 489.314, 359.687 L 503.166, 351.932 L 543.118, 351.474 z "/>
<path style="fill:rgb(228, 10, 9);fill-opacity:1.0;fill-rule:evenodd;stroke:rgb(0, 0, 0);stroke-width:3.0;" d="M 104.036, 328.288 L 121.576, 356.31 L 74.0211, 356.855 L 88.036, 320.516 z "/>
<path style="fill:rgb(228, 10, 9);fill-opacity:1.0;fill-rule:evenodd;stroke:rgb(0, 0, 0);stroke-width:3.0;" d="M 225.873, 403.607 L 258.973, 414.158 L 265.018, 436.181 L 256.45, 435.798 L 206.509, 420.328 L 216.313, 401.638 z "/>
<path style="fill:rgb(152, 85, 182);fill-opacity:1.0;fill-rule:evenodd;stroke:rgb(0, 0, 0);stroke-width:3.0;" d="M 279.122, 555.474 L 277.076, 553.32 L 280.248, 542.762 L 303.1, 534.76 z "/>
<path style="fill:rgb(255, 223, 159);fill-opacity:1.0;fill-rule:evenodd;stroke:rgb(0, 0, 0);stroke-width:3.0;" d="M 429.231, 109.768 L 429.129, 110.298 L 422.248, 124.793 L 409.63, 120.18 L 420.053, 103.349 z "/>
<path style="fill:rgb(255, 223, 159);fill-opacity:1.0;fill-rule:evenodd;stroke:rgb(0, 0, 0);stroke-width:3.0;" d="M 639.386, 20.089 L 647.035, 30.582 L 569.407, 57.6252 L 550.845, 63.4271 L 515.1, 19.4021 L 512.495, 9.34574 z "/>
<path style="fill:rgb(83, 255, 255);fill-opacity:1.0;fill-rule:evenodd;stroke:rgb(0, 0, 0);stroke-width:3.0;" d="M 746.348, 113.544 L 728.982, 122.517 L 724.475, 111.366 L 751, 101.236 z "/>
<path style="fill:rgb(123, 237, 187);fill-opacity:1.0;fill-rule:evenodd;stroke:rgb(0, 0, 0);stroke-width:3.0;" d="M 266.952, 10.1001 L 263.278, 16.7484 L 222.682, 45.986 L 218.652, 44.1745 L 263.193, 9.15185 z "/>
<path style="fill:rgb(51, 255, 47);fill-opacity:1.0;fill-rule:evenodd;stroke:rgb(0, 0, 0);stroke-width:3.0;" d="M 620.565, 67.2632 L 612.633, 73.5625 L 598.705, 77.4692 L 590.157, 65.7448 L 593.115, 56.4355 L 616.555, 46.8213 z "/>
<path style="fill:rgb(249, 255, 21);fill-opacity:1.0;fill-rule:evenodd;stroke:rgb(0, 0, 0);stroke-width:3.0;" d="M 395.701, 43.2742 L 369.872, 46.3288 L 374.94, 39.86 L 407.756, 38.7767 z "/>
<path style="fill:rgb(255, 161, 13);fill-opacity:1.0;fill-rule:evenodd;stroke:rgb(0, 0, 0);stroke-width:3.0;" d="M 369.872, 46.3288 L 345.884, 49.1658 L 365.74, 40.1637 L 374.94, 39.86 z "/>
<path style="fill:rgb(228, 78, 237);fill-opacity:1.0;fill-rule:evenodd;stroke:rgb(0, 0, 0);stroke-width:3.0;" d="M 406.319, 58.8842 L 403.653, 60.9709 L 398.162, 49.4732 L 399.877, 46.1558 L 404.032, 43.3446 L 412.573, 42.9336 z "/>
<path style="fill:rgb(255, 249, 6);fill-opacity:1.0;fill-rule:evenodd;stroke:rgb(0, 0, 0);stroke-width:3.0;" d="M 769.197, 365.462 L 718.168, 372.875 L 714.983, 370.112 L 712.663, 330.263 z "/>
<path style="fill:rgb(249, 1, 19);fill-opacity:1.0;fill-rule:evenodd;stroke:rgb(0, 0, 0);stroke-width:3.0;" d="M 464.262, 540.867 L 425.163, 507.278 L 431.989, 494.175 z "/>
<path style="fill:rgb(37, 16, 202);fill-opacity:1.0;fill-rule:evenodd;stroke:rgb(0, 0, 0);stroke-width:3.0;" d="M 257.259, 579.503 L 238.695, 585.959 L 234.312, 584.038 L 251.568, 574.678 z "/>
<path style="fill:rgb(255, 34, 255);fill-opacity:1.0;fill-rule:evenodd;stroke:rgb(0, 0, 0);stroke-width:3.0;" d="M 16.0219, 366.761 L 20.9896, 373.423 L 13.9622, 385.321 L 11.9891, 385.416 L 10.9001, 364.732 z "/>
<path style="fill:rgb(255, 255, 37);fill-opacity:1.0;fill-rule:evenodd;stroke:rgb(0, 0, 0);stroke-width:3.0;" d="M 435.325, 71.1497 L 420.638, 93.4325 L 417.661, 90.495 L 420.994, 80.5525 L 434.507, 64.6935 z "/>
<path style="fill:rgb(98, 255, 18);fill-opacity:1.0;fill-rule:evenodd;stroke:rgb(0, 0, 0);stroke-width:3.0;" d="M 586.374, 77.6471 L 581.225, 93.8489 L 575.081, 93.2762 L 573.154, 90.903 L 569.213, 75.8405 L 579.219, 72.2352 z "/>
</svg>