<?xml version="1.0" encoding="iso-8859-1" standalone="no"?>
<!DOCTYPE svg PUBLIC "-//W3C//DTD SVG 1.0//EN" "http://www.w3.org/TR/2001/REC-SVG-20010904/DTD/svg10.dtd">
<svg xmlns="http://www.w3.org/2000/svg" width="800" height="600">
<path style="fill:rgb(0, 0, 0);fill-opacity:0.0;fill-rule:evenodd;stroke:rgb(0, 0, 0);stroke-width:0.0;" d="M 0, 600 L 800, 600 L 800, 0 L 0, 0 z "/>
<path style="fill:rgb(255, 163, 20);fill-opacity:1.0;fill-rule:evenodd;stroke:rgb(0, 0, 0);stroke-width:3.0;" d="M 83.2372, 180.784 L 75.1381, 200.366 L 52.9027, 157.964 L 56.475, 156.861 z "/>
<path style="fill:rgb(240, 237, 14);fill-opacity:1.0;fill-rule:evenodd;stroke:rgb(0, 0, 0);stroke-width:3.0;" d="M 56.1548, 202.666 L 37.5962, 257.847 L 37.509, 170.835 z "/>
<path style="fill:rgb(240, 237, 14);fill-opacity:1.0;fill-rule:evenodd;stroke:rgb(0, 0, 0);stroke-width:3.0;" d="M 193.338, 8.15119 L 185.753, 25.1332 L 142.02, 22.6666 L 164.837, 7.12359 z "/>
<path style="fill:rgb(240, 237, 14);fill-opacity:1.0;fill-rule:evenodd;stroke:rgb(0, 0, 0);stroke-width:3.0;" d="M 119.95, 515.109 L 120.189, 521.201 L 108.047, 514.355 L 101.307, 490.494 L 111.218, 488.216 z "/>
<path style="fill:rgb(240, 237, 14);fill-opacity:1.0;fill-rule:evenodd;stroke:rgb(0, 0, 0);stroke-width:3.0;" d="M 246.689, 122.531 L 235.033, 134.298 L 233.649, 135.463 L 228.16, 132.382 L 238.493, 108.822 L 250.066, 100.742 z "/>
<path style="fill:rgb(240, 237, 14);fill-opacity:1.0;fill-rule:evenodd;stroke:rgb(0, 0, 0);stroke-width:3.0;" d="M 106.498, 382.941 L 72.2171, 387.51 L 58.6741, 339.565 L 76.1158, 308.301 z "/>
<path style="fill:rgb(240, 237, 14);fill-opacity:1.0;fill-rule:evenodd;stroke:rgb(0, 0, 0);stroke-width:3.0;" d="M 784.923, 272.833 L 746.662, 260.462 L 784.425, 259.963 z "/>
<path style="fill:rgb(240, 237, 14);fill-opacity:1.0;fill-rule:evenodd;stroke:rgb(0, 0, 0);stroke-width:3.0;" d="M 506.275, 231.038 L 522.241, 285.592 L 355.012, 381.15 L 319.974, 106.65 z "/>
<path style="fill:rgb(240, 237, 14);fill-opacity:1.0;fill-rule:evenodd;stroke:rgb(0, 0, 0);stroke-width:3.0;" d="M 364.056, 72.8933 L 348.354, 89.3134 L 319.468, 102.684 L 316.937, 82.8571 L 340.33, 66.774 z "/>
<path style="fill:rgb(240, 237, 14);fill-opacity:1.0;fill-rule:evenodd;stroke:rgb(0, 0, 0);stroke-width:3.0;" d="M 354.202, 374.806 L 163.881, 194.155 L 314.924, 67.0897 z "/>
<path style="fill:rgb(83, 255, 255);fill-opacity:1.0;fill-rule:evenodd;stroke:rgb(0, 0, 0);stroke-width:3.0;" d="M 51.6764, 195.021 L 37.509, 170.835 L 37.5008, 162.722 L 41.3085, 161.545 z "/>
<path style="fill:rgb(83, 255, 255);fill-opacity:1.0;fill-rule:evenodd;stroke:rgb(0, 0, 0);stroke-width:3.0;" d="M 340.27, 361.581 L 331.154, 399.607 L 184.851, 575.434 L 159.287, 512.629 L 267.423, 292.437 z "/>
<path style="fill:rgb(83, 255, 255);fill-opacity:1.0;fill-rule:evenodd;stroke:rgb(0, 0, 0);stroke-width:3.0;" d="M 704.14, 175.94 L 682.619, 197.159 L 679.873, 185.817 L 719.645, 135.195 z "/>
<path style="fill:rgb(59, 252, 231);fill-opacity:1.0;fill-rule:evenodd;stroke:rgb(0, 0, 0);stroke-width:3.0;" d="M 749.145, 29.6354 L 757.443, 40.8199 L 758.623, 48.6018 L 754.644, 57.9798 L 734.312, 33.9387 L 733.017, 28.1712 z "/>
<path style="fill:rgb(223, 0, 17);fill-opacity:1.0;fill-rule:evenodd;stroke:rgb(0, 0, 0);stroke-width:3.0;" d="M 404.745, 129.818 L 388.877, 152.655 L 354.239, 129.528 L 361.455, 118.817 z "/>
<path style="fill:rgb(223, 0, 17);fill-opacity:1.0;fill-rule:evenodd;stroke:rgb(0, 0, 0);stroke-width:3.0;" d="M 204.108, 160.314 L 160.807, 196.741 L 142.775, 172.473 L 156.431, 143.578 z "/>
<path style="fill:rgb(255, 114, 22);fill-opacity:1.0;fill-rule:evenodd;stroke:rgb(0, 0, 0);stroke-width:3.0;" d="M 768.457, 54.7933 L 763.347, 63.4097 L 761.482, 64.1325 L 761.984, 53.6291 L 769.412, 29.6418 z "/>
<path style="fill:rgb(66, 252, 61);fill-opacity:1.0;fill-rule:evenodd;stroke:rgb(0, 0, 0);stroke-width:3.0;" d="M 135.256, 544.418 L 139.246, 555.51 L 129.469, 555.951 L 121.093, 544.294 L 121.02, 542.436 z "/>
<path style="fill:rgb(66, 252, 61);fill-opacity:1.0;fill-rule:evenodd;stroke:rgb(0, 0, 0);stroke-width:3.0;" d="M 37.611, 272.677 L 37.4805, 277.152 L 29.6922, 277.212 L 27.2727, 276.989 L 16.8745, 273.391 L 36.4799, 257.714 L 37.5959, 257.558 z "/>
<path style="fill:rgb(66, 252, 61);fill-opacity:1.0;fill-rule:evenodd;stroke:rgb(0, 0, 0);stroke-width:3.0;" d="M 779.49, 536.478 L 774.742, 548.001 L 767.506, 547.851 L 766.728, 544.637 L 773.086, 530.777 z "/>
<path style="fill:rgb(255, 4, 72);fill-opacity:1.0;fill-rule:evenodd;stroke:rgb(0, 0, 0);stroke-width:3.0;" d="M 131.909, 115.497 L 118.876, 128.53 L 104.429, 122.029 L 92.5774, 104.859 z "/>
<path style="fill:rgb(255, 4, 72);fill-opacity:1.0;fill-rule:evenodd;stroke:rgb(0, 0, 0);stroke-width:3.0;" d="M 316.661, 24.0958 L 296.963, 27.9373 L 299.43, 16.9827 z "/>
<path style="fill:rgb(8, 8, 204);fill-opacity:1.0;fill-rule:evenodd;stroke:rgb(0, 0, 0);stroke-width:3.0;" d="M 749.713, 325.6 L 723.445, 356.752 L 717.432, 340.98 L 715.569, 333.284 L 737.454, 270.398 z "/>
<path style="fill:rgb(8, 8, 204);fill-opacity:1.0;fill-rule:evenodd;stroke:rgb(0, 0, 0);stroke-width:3.0;" d="M 160.807, 196.741 L 142.678, 211.992 L 141.705, 201.229 L 158.153, 193.169 z "/>
<path style="fill:rgb(8, 8, 204);fill-opacity:1.0;fill-rule:evenodd;stroke:rgb(0, 0, 0);stroke-width:3.0;" d="M 772.591, 568.86 L 774.215, 575.565 L 726.066, 585.179 L 709.804, 552.154 L 728.233, 540.428 z "/>
<path style="fill:rgb(8, 8, 204);fill-opacity:1.0;fill-rule:evenodd;stroke:rgb(0, 0, 0);stroke-width:3.0;" d="M 76.1158, 308.301 L 58.6741, 339.565 L 45.6865, 293.586 L 63.8921, 278.27 z "/>
<path style="fill:rgb(240, 172, 179);fill-opacity:1.0;fill-rule:evenodd;stroke:rgb(0, 0, 0);stroke-width:3.0;" d="M 755.326, 123.068 L 754.753, 126.04 L 753.293, 127.479 L 741.414, 93.6627 L 744.984, 88.8342 z "/>
<path style="fill:rgb(240, 172, 179);fill-opacity:1.0;fill-rule:evenodd;stroke:rgb(0, 0, 0);stroke-width:3.0;" d="M 558.62, 205.757 L 545.247, 199.83 L 552.531, 191.034 L 562.715, 189.633 z "/>
<path style="fill:rgb(255, 117, 255);fill-opacity:1.0;fill-rule:evenodd;stroke:rgb(0, 0, 0);stroke-width:3.0;" d="M 522.842, 167.609 L 505.174, 230.303 L 388.877, 152.655 L 441.28, 77.2363 z "/>
<path style="fill:rgb(252, 78, 81);fill-opacity:1.0;fill-rule:evenodd;stroke:rgb(0, 0, 0);stroke-width:3.0;" d="M 66.8709, 54.1056 L 66.4083, 54.6225 L 44.8257, 62.7506 L 37.39, 52.0939 L 37.3797, 41.8229 z "/>
<path style="fill:rgb(252, 78, 81);fill-opacity:1.0;fill-rule:evenodd;stroke:rgb(0, 0, 0);stroke-width:3.0;" d="M 754.644, 57.9798 L 750.114, 68.6547 L 741.836, 50.7476 L 748.46, 50.6676 z "/>
<path style="fill:rgb(252, 78, 81);fill-opacity:1.0;fill-rule:evenodd;stroke:rgb(0, 0, 0);stroke-width:3.0;" d="M 36.2158, 280.083 L 11.7764, 286.828 L 7.96703, 285.994 L 23.9147, 275.827 z "/>
<path style="fill:rgb(252, 78, 81);fill-opacity:1.0;fill-rule:evenodd;stroke:rgb(0, 0, 0);stroke-width:3.0;" d="M 752.325, 485.133 L 624.049, 399.461 L 720.244, 352.598 z "/>
<path style="fill:rgb(252, 78, 81);fill-opacity:1.0;fill-rule:evenodd;stroke:rgb(0, 0, 0);stroke-width:3.0;" d="M 345.709, 114.816 L 349.574, 121.094 L 346.919, 124.64 L 323.907, 109.276 z "/>
<path style="fill:rgb(252, 78, 81);fill-opacity:1.0;fill-rule:evenodd;stroke:rgb(0, 0, 0);stroke-width:3.0;" d="M 222.809, 144.581 L 214.933, 151.208 L 234.924, 101.161 L 243.413, 97.6041 z "/>
<path style="fill:rgb(107, 243, 246);fill-opacity:1.0;fill-rule:evenodd;stroke:rgb(0, 0, 0);stroke-width:3.0;" d="M 156.129, 91.2804 L 153.062, 94.3471 L 79.5659, 97.6284 L 51.725, 88.9556 L 64.2288, 57.0579 L 66.8709, 54.1056 z "/>
<path style="fill:rgb(107, 243, 246);fill-opacity:1.0;fill-rule:evenodd;stroke:rgb(0, 0, 0);stroke-width:3.0;" d="M 784.055, 250.403 L 784.247, 255.365 L 745.103, 248.419 L 749.541, 235.666 z "/>
<path style="fill:rgb(9, 237, 192);fill-opacity:1.0;fill-rule:evenodd;stroke:rgb(0, 0, 0);stroke-width:3.0;" d="M 98.6367, 63.1205 L 98.5729, 67.3091 L 37.3797, 41.8229 L 37.3747, 36.8612 L 73.3748, 17.5648 z "/>
<path style="fill:rgb(9, 237, 192);fill-opacity:1.0;fill-rule:evenodd;stroke:rgb(0, 0, 0);stroke-width:3.0;" d="M 267.423, 292.437 L 159.287, 512.629 L 63.8921, 278.27 L 163.881, 194.155 z "/>
<path style="fill:rgb(9, 237, 192);fill-opacity:1.0;fill-rule:evenodd;stroke:rgb(0, 0, 0);stroke-width:3.0;" d="M 109.489, 427.263 L 101.728, 446.141 L 86.0048, 436.321 L 80.9466, 418.414 L 88.4947, 415.171 z "/>
<path style="fill:rgb(9, 237, 192);fill-opacity:1.0;fill-rule:evenodd;stroke:rgb(0, 0, 0);stroke-width:3.0;" d="M 778.249, 100.327 L 779.86, 141.966 L 770.732, 151.83 L 751.726, 111.151 L 746.092, 92.5041 L 756.182, 75.4917 z "/>
<path style="fill:rgb(9, 237, 192);fill-opacity:1.0;fill-rule:evenodd;stroke:rgb(0, 0, 0);stroke-width:3.0;" d="M 742.804, 97.6201 L 743.073, 106.567 L 731.169, 113.08 L 734.423, 103.118 L 741.414, 93.6627 z "/>
<path style="fill:rgb(9, 237, 192);fill-opacity:1.0;fill-rule:evenodd;stroke:rgb(0, 0, 0);stroke-width:3.0;" d="M 104.77, 170.655 L 100.833, 215.266 L 100.748, 215.455 L 76.3586, 197.415 L 94.8024, 152.822 z "/>
<path style="fill:rgb(9, 237, 192);fill-opacity:1.0;fill-rule:evenodd;stroke:rgb(0, 0, 0);stroke-width:3.0;" d="M 773.889, 511.333 L 761.596, 523.433 L 757.645, 507.113 L 772.504, 505.856 z "/>
<path style="fill:rgb(9, 237, 192);fill-opacity:1.0;fill-rule:evenodd;stroke:rgb(0, 0, 0);stroke-width:3.0;" d="M 113.239, 234.969 L 111.836, 237.938 L 96.5726, 250.778 L 86.023, 248.425 L 125.601, 159.811 z "/>
<path style="fill:rgb(9, 237, 192);fill-opacity:1.0;fill-rule:evenodd;stroke:rgb(0, 0, 0);stroke-width:3.0;" d="M 776.732, 193.925 L 762.826, 197.493 L 766.609, 186.622 L 771.873, 177.841 z "/>
<path style="fill:rgb(9, 237, 192);fill-opacity:1.0;fill-rule:evenodd;stroke:rgb(0, 0, 0);stroke-width:3.0;" d="M 153.136, 69.9788 L 154.599, 75.6844 L 103.954, 55.0676 L 108.569, 51.4546 z "/>
<path style="fill:rgb(9, 237, 192);fill-opacity:1.0;fill-rule:evenodd;stroke:rgb(0, 0, 0);stroke-width:3.0;" d="M 748.468, 264.944 L 759.188, 314.364 L 749.713, 325.6 L 737.454, 270.398 L 740.242, 262.388 z "/>
<path style="fill:rgb(9, 234, 255);fill-opacity:1.0;fill-rule:evenodd;stroke:rgb(0, 0, 0);stroke-width:3.0;" d="M 161.407, 133.05 L 130.415, 159.103 L 127.303, 158.167 L 140.256, 140.83 L 162.045, 131.7 z "/>
<path style="fill:rgb(255, 128, 209);fill-opacity:1.0;fill-rule:evenodd;stroke:rgb(0, 0, 0);stroke-width:3.0;" d="M 677.12, 174.44 L 668.288, 202.138 L 653.237, 210.738 L 577.733, 181.676 L 669.353, 142.354 z "/>
<path style="fill:rgb(255, 128, 209);fill-opacity:1.0;fill-rule:evenodd;stroke:rgb(0, 0, 0);stroke-width:3.0;" d="M 165.882, 528.832 L 124.539, 503.912 L 127.098, 469.59 L 140.913, 467.489 z "/>
<path style="fill:rgb(255, 128, 209);fill-opacity:1.0;fill-rule:evenodd;stroke:rgb(0, 0, 0);stroke-width:3.0;" d="M 105.783, 406.562 L 104.08, 408.474 L 82.1865, 417.881 L 93.8009, 402.517 z "/>
<path style="fill:rgb(240, 255, 150);fill-opacity:1.0;fill-rule:evenodd;stroke:rgb(0, 0, 0);stroke-width:3.0;" d="M 542.684, 198.694 L 549.015, 207.194 L 542.783, 222.385 L 531.59, 229.578 L 517.652, 221.697 L 538.488, 196.834 z "/>
<path style="fill:rgb(240, 255, 150);fill-opacity:1.0;fill-rule:evenodd;stroke:rgb(0, 0, 0);stroke-width:3.0;" d="M 616.813, 231.551 L 603.134, 239.368 L 596.236, 231.459 L 609.138, 228.149 z "/>
<path style="fill:rgb(54, 62, 215);fill-opacity:1.0;fill-rule:evenodd;stroke:rgb(0, 0, 0);stroke-width:3.0;" d="M 93.8009, 402.517 L 84.3825, 414.976 L 81.1497, 402.594 L 83.3196, 398.979 z "/>
<path style="fill:rgb(54, 62, 215);fill-opacity:1.0;fill-rule:evenodd;stroke:rgb(0, 0, 0);stroke-width:3.0;" d="M 792.678, 33.9128 L 790.278, 44.1406 L 777.406, 34.0935 L 777.434, 33.9363 L 777.882, 33.1942 L 792.581, 26.227 z "/>
<path style="fill:rgb(54, 62, 215);fill-opacity:1.0;fill-rule:evenodd;stroke:rgb(0, 0, 0);stroke-width:3.0;" d="M 89.1682, 166.444 L 86.0084, 174.084 L 78.4463, 176.502 L 73.945, 172.478 L 71.4077, 163.724 L 71.4426, 163.597 L 75.5667, 161.677 z "/>
<path style="fill:rgb(246, 79, 88);fill-opacity:1.0;fill-rule:evenodd;stroke:rgb(0, 0, 0);stroke-width:3.0;" d="M 669.353, 142.354 L 577.733, 181.676 L 557.664, 173.952 L 570.703, 158.393 L 663.101, 116.526 z "/>
<path style="fill:rgb(246, 79, 88);fill-opacity:1.0;fill-rule:evenodd;stroke:rgb(0, 0, 0);stroke-width:3.0;" d="M 192.193, 119.067 L 177.373, 112.116 L 226.418, 104.725 z "/>
<path style="fill:rgb(246, 79, 88);fill-opacity:1.0;fill-rule:evenodd;stroke:rgb(0, 0, 0);stroke-width:3.0;" d="M 37.6323, 293.895 L 37.6099, 271.526 L 62.8726, 269.817 z "/>
<path style="fill:rgb(177, 165, 249);fill-opacity:1.0;fill-rule:evenodd;stroke:rgb(0, 0, 0);stroke-width:3.0;" d="M 782.625, 213.432 L 784.055, 250.403 L 750.12, 235.913 L 776.74, 193.953 z "/>
<path style="fill:rgb(252, 217, 7);fill-opacity:1.0;fill-rule:evenodd;stroke:rgb(0, 0, 0);stroke-width:3.0;" d="M 770.732, 151.83 L 765.668, 157.303 L 751.726, 111.151 z "/>
<path style="fill:rgb(252, 217, 7);fill-opacity:1.0;fill-rule:evenodd;stroke:rgb(0, 0, 0);stroke-width:3.0;" d="M 122.078, 62.4458 L 109.397, 71.8174 L 100.806, 68.2393 L 98.5935, 65.9542 L 98.7915, 52.9661 z "/>
<path style="fill:rgb(6, 119, 255);fill-opacity:1.0;fill-rule:evenodd;stroke:rgb(0, 0, 0);stroke-width:3.0;" d="M 567.09, 209.512 L 568.971, 233.986 L 555.017, 215.252 L 557.308, 205.176 z "/>
<path style="fill:rgb(255, 223, 7);fill-opacity:1.0;fill-rule:evenodd;stroke:rgb(0, 0, 0);stroke-width:3.0;" d="M 113.239, 234.969 L 117.455, 209.333 L 124.013, 196.24 L 137.302, 184.054 z "/>
<path style="fill:rgb(255, 223, 7);fill-opacity:1.0;fill-rule:evenodd;stroke:rgb(0, 0, 0);stroke-width:3.0;" d="M 173.176, 53.2922 L 157.727, 87.8826 L 147.293, 47.1913 L 153.754, 37.8693 z "/>
<path style="fill:rgb(59, 252, 199);fill-opacity:1.0;fill-rule:evenodd;stroke:rgb(0, 0, 0);stroke-width:3.0;" d="M 743.958, 136.017 L 722.161, 140.659 L 729.628, 117.799 L 743.139, 108.77 z "/>
<path style="fill:rgb(64, 252, 194);fill-opacity:1.0;fill-rule:evenodd;stroke:rgb(0, 0, 0);stroke-width:3.0;" d="M 653.237, 210.738 L 633.544, 221.991 L 582.689, 186.885 L 589.007, 186.016 z "/>
<path style="fill:rgb(255, 14, 10);fill-opacity:1.0;fill-rule:evenodd;stroke:rgb(0, 0, 0);stroke-width:3.0;" d="M 113.603, 487.668 L 101.307, 490.494 L 94.0519, 464.81 L 99.5186, 451.514 z "/>
<path style="fill:rgb(105, 119, 255);fill-opacity:1.0;fill-rule:evenodd;stroke:rgb(0, 0, 0);stroke-width:3.0;" d="M 298.385, 38.9031 L 265.549, 68.9205 L 286.925, 29.895 L 298.622, 27.6138 z "/>
<path style="fill:rgb(105, 119, 255);fill-opacity:1.0;fill-rule:evenodd;stroke:rgb(0, 0, 0);stroke-width:3.0;" d="M 250.224, 9.43813 L 182.7, 31.969 L 184.548, 27.8318 L 184.652, 27.7754 L 250.08, 9.15085 z "/>
<path style="fill:rgb(105, 119, 255);fill-opacity:1.0;fill-rule:evenodd;stroke:rgb(0, 0, 0);stroke-width:3.0;" d="M 87.5257, 441.705 L 46.0094, 505.957 L 34.9073, 423.112 L 81.6861, 421.032 z "/>
<path style="fill:rgb(255, 217, 20);fill-opacity:1.0;fill-rule:evenodd;stroke:rgb(0, 0, 0);stroke-width:3.0;" d="M 77.9143, 407.679 L 81.6861, 421.032 L 34.9073, 423.112 L 25.9431, 356.219 z "/>
<path style="fill:rgb(255, 1, 92);fill-opacity:1.0;fill-rule:evenodd;stroke:rgb(0, 0, 0);stroke-width:3.0;" d="M 793.004, 154.685 L 780.058, 147.082 L 779.736, 138.775 L 791.549, 134.464 z "/>
<path style="fill:rgb(255, 1, 92);fill-opacity:1.0;fill-rule:evenodd;stroke:rgb(0, 0, 0);stroke-width:3.0;" d="M 91.0802, 230.768 L 92.6079, 233.681 L 84.6974, 251.393 L 62.2398, 213.054 L 53.6503, 172.317 z "/>
<path style="fill:rgb(108, 170, 255);fill-opacity:1.0;fill-rule:evenodd;stroke:rgb(0, 0, 0);stroke-width:3.0;" d="M 590.974, 225.426 L 603.134, 239.368 L 602.026, 240.001 L 577.451, 226.442 L 576.836, 225.243 L 576.295, 220.487 z "/>
<path style="fill:rgb(108, 170, 255);fill-opacity:1.0;fill-rule:evenodd;stroke:rgb(0, 0, 0);stroke-width:3.0;" d="M 128.116, 216.866 L 121.197, 230.063 L 111.836, 237.938 L 123.028, 214.255 L 129.327, 212.235 z "/>
<path style="fill:rgb(108, 170, 255);fill-opacity:1.0;fill-rule:evenodd;stroke:rgb(0, 0, 0);stroke-width:3.0;" d="M 328.768, 55.4434 L 308.954, 72.112 L 312.447, 47.4477 L 322.991, 40.4744 z "/>
<path style="fill:rgb(108, 170, 255);fill-opacity:1.0;fill-rule:evenodd;stroke:rgb(0, 0, 0);stroke-width:3.0;" d="M 794.101, 510.029 L 794.466, 519.481 L 769.63, 527.702 L 768.325, 526.541 L 790.945, 508.54 z "/>
<path style="fill:rgb(108, 170, 255);fill-opacity:1.0;fill-rule:evenodd;stroke:rgb(0, 0, 0);stroke-width:3.0;" d="M 564.152, 138.459 L 552.297, 180.357 L 508.551, 232.558 L 505.174, 230.303 L 554.186, 56.3862 z "/>
<path style="fill:rgb(243, 58, 89);fill-opacity:1.0;fill-rule:evenodd;stroke:rgb(0, 0, 0);stroke-width:3.0;" d="M 276.053, 95.8259 L 247.702, 115.996 L 251.468, 91.696 L 279.24, 89.789 z "/>
<path style="fill:rgb(38, 72, 255);fill-opacity:1.0;fill-rule:evenodd;stroke:rgb(0, 0, 0);stroke-width:3.0;" d="M 271.088, 58.8086 L 263.916, 50.8578 L 271.818, 32.8412 L 286.925, 29.895 z "/>
<path style="fill:rgb(91, 255, 255);fill-opacity:1.0;fill-rule:evenodd;stroke:rgb(0, 0, 0);stroke-width:3.0;" d="M 192.193, 119.067 L 167.224, 129.53 L 158.085, 115.023 L 177.373, 112.116 z "/>
<path style="fill:rgb(91, 255, 255);fill-opacity:1.0;fill-rule:evenodd;stroke:rgb(0, 0, 0);stroke-width:3.0;" d="M 662.244, 112.985 L 655.368, 120.03 L 570.703, 158.393 L 650.257, 63.4633 z "/>
<path style="fill:rgb(234, 64, 255);fill-opacity:1.0;fill-rule:evenodd;stroke:rgb(0, 0, 0);stroke-width:3.0;" d="M 49.175, 305.936 L 34.6121, 320.235 L 33.3299, 319.724 L 28.115, 308.368 L 45.6865, 293.586 z "/>
<path style="fill:rgb(234, 64, 255);fill-opacity:1.0;fill-rule:evenodd;stroke:rgb(0, 0, 0);stroke-width:3.0;" d="M 769.085, 179.509 L 764.797, 191.831 L 762.633, 191.24 L 761.885, 175.035 L 769.157, 169.459 z "/>
<path style="fill:rgb(255, 234, 43);fill-opacity:1.0;fill-rule:evenodd;stroke:rgb(0, 0, 0);stroke-width:3.0;" d="M 605.142, 202.385 L 579.373, 214.956 L 568.858, 210.296 L 576.414, 187.748 L 582.689, 186.885 z "/>
<path style="fill:rgb(255, 234, 43);fill-opacity:1.0;fill-rule:evenodd;stroke:rgb(0, 0, 0);stroke-width:3.0;" d="M 66.4389, 269.576 L 39.6482, 271.388 L 63.7934, 247.575 z "/>
<path style="fill:rgb(209, 2, 237);fill-opacity:1.0;fill-rule:evenodd;stroke:rgb(0, 0, 0);stroke-width:3.0;" d="M 522.842, 167.609 L 441.28, 77.2363 L 465.252, 42.7361 L 560.879, 32.6381 z "/>
<path style="fill:rgb(126, 100, 255);fill-opacity:1.0;fill-rule:evenodd;stroke:rgb(0, 0, 0);stroke-width:3.0;" d="M 114.984, 403.789 L 107.321, 407.081 L 74.628, 396.045 L 72.2171, 387.51 L 106.498, 382.941 z "/>
<path style="fill:rgb(126, 100, 255);fill-opacity:1.0;fill-rule:evenodd;stroke:rgb(0, 0, 0);stroke-width:3.0;" d="M 577.906, 226.694 L 582.128, 229.494 L 583.755, 250.441 L 581.983, 251.454 L 568.971, 233.986 L 567.99, 221.223 z "/>
<path style="fill:rgb(255, 10, 237);fill-opacity:1.0;fill-rule:evenodd;stroke:rgb(0, 0, 0);stroke-width:3.0;" d="M 146.018, 72.1912 L 145.122, 79.9523 L 144.681, 80.3764 L 135.908, 75.4567 L 128.021, 64.8648 z "/>
<path style="fill:rgb(48, 231, 204);fill-opacity:1.0;fill-rule:evenodd;stroke:rgb(0, 0, 0);stroke-width:3.0;" d="M 91.0802, 230.768 L 54.2335, 173.228 L 53.6487, 159.387 z "/>
<path style="fill:rgb(57, 217, 243);fill-opacity:1.0;fill-rule:evenodd;stroke:rgb(0, 0, 0);stroke-width:3.0;" d="M 791.995, 494.458 L 768.793, 491.182 L 767.626, 486.57 L 778.195, 483.294 z "/>
<path style="fill:rgb(57, 217, 243);fill-opacity:1.0;fill-rule:evenodd;stroke:rgb(0, 0, 0);stroke-width:3.0;" d="M 569.794, 235.09 L 564.218, 261.605 L 557.665, 265.35 L 532.147, 248.312 L 549.015, 207.194 z "/>
<path style="fill:rgb(57, 217, 243);fill-opacity:1.0;fill-rule:evenodd;stroke:rgb(0, 0, 0);stroke-width:3.0;" d="M 405.756, 83.6484 L 410.894, 120.968 L 404.745, 129.818 L 323.907, 109.276 L 319.974, 106.65 L 319.468, 102.684 L 376.752, 76.168 z "/>
<path style="fill:rgb(9, 8, 255);fill-opacity:1.0;fill-rule:evenodd;stroke:rgb(0, 0, 0);stroke-width:3.0;" d="M 794.987, 250.458 L 791.315, 274.151 L 786.632, 273.317 L 788.435, 236.88 z "/>
<path style="fill:rgb(255, 226, 21);fill-opacity:1.0;fill-rule:evenodd;stroke:rgb(0, 0, 0);stroke-width:3.0;" d="M 322.991, 40.4744 L 312.447, 47.4477 L 315.728, 24.2777 L 316.67, 24.0941 z "/>
<path style="fill:rgb(255, 226, 21);fill-opacity:1.0;fill-rule:evenodd;stroke:rgb(0, 0, 0);stroke-width:3.0;" d="M 250.066, 100.742 L 238.493, 108.822 L 249.598, 83.5024 L 253.257, 80.1575 z "/>
<path style="fill:rgb(255, 226, 21);fill-opacity:1.0;fill-rule:evenodd;stroke:rgb(0, 0, 0);stroke-width:3.0;" d="M 598.039, 242.279 L 590.729, 246.456 L 583.272, 244.217 L 582.758, 237.602 L 588.818, 234.157 z "/>
<path style="fill:rgb(255, 226, 21);fill-opacity:1.0;fill-rule:evenodd;stroke:rgb(0, 0, 0);stroke-width:3.0;" d="M 777.709, 86.3733 L 774.403, 95.9982 L 763.091, 83.2683 L 759.53, 75.7945 L 776.819, 63.3758 z "/>
<path style="fill:rgb(255, 226, 21);fill-opacity:1.0;fill-rule:evenodd;stroke:rgb(0, 0, 0);stroke-width:3.0;" d="M 589.007, 186.016 L 563.453, 189.531 L 566.999, 177.545 z "/>
<path style="fill:rgb(92, 184, 255);fill-opacity:1.0;fill-rule:evenodd;stroke:rgb(0, 0, 0);stroke-width:3.0;" d="M 566.999, 177.545 L 563.453, 189.531 L 547.029, 191.791 L 548.644, 184.715 L 557.664, 173.952 z "/>
<path style="fill:rgb(252, 255, 64);fill-opacity:1.0;fill-rule:evenodd;stroke:rgb(0, 0, 0);stroke-width:3.0;" d="M 108.529, 472.413 L 107.709, 472.537 L 99.5186, 451.514 L 106.631, 434.215 z "/>
<path style="fill:rgb(252, 255, 64);fill-opacity:1.0;fill-rule:evenodd;stroke:rgb(0, 0, 0);stroke-width:3.0;" d="M 72.3122, 160.435 L 69.9763, 168.93 L 59.7089, 159.752 L 60.3126, 155.675 L 73.1038, 151.724 z "/>
<path style="fill:rgb(252, 255, 64);fill-opacity:1.0;fill-rule:evenodd;stroke:rgb(0, 0, 0);stroke-width:3.0;" d="M 537.488, 235.292 L 532.147, 248.312 L 517.577, 238.584 L 531.256, 229.793 z "/>
<path style="fill:rgb(252, 255, 64);fill-opacity:1.0;fill-rule:evenodd;stroke:rgb(0, 0, 0);stroke-width:3.0;" d="M 63.5525, 245.571 L 63.7934, 247.575 L 39.6482, 271.388 L 37.6099, 271.526 L 37.5962, 257.847 L 49.0836, 223.691 z "/>
<path style="fill:rgb(252, 255, 64);fill-opacity:1.0;fill-rule:evenodd;stroke:rgb(0, 0, 0);stroke-width:3.0;" d="M 792.89, 478.738 L 753.717, 490.883 L 739.285, 431.261 L 788.98, 377.683 z "/>
<path style="fill:rgb(255, 246, 11);fill-opacity:1.0;fill-rule:evenodd;stroke:rgb(0, 0, 0);stroke-width:3.0;" d="M 150.945, 61.4328 L 137.695, 55.4387 L 134.754, 30.9542 L 141.73, 25.4928 z "/>
<path style="fill:rgb(255, 246, 11);fill-opacity:1.0;fill-rule:evenodd;stroke:rgb(0, 0, 0);stroke-width:3.0;" d="M 142.678, 211.992 L 128.447, 223.964 L 126.723, 222.195 L 130.808, 206.569 L 141.705, 201.229 z "/>
<path style="fill:rgb(246, 25, 30);fill-opacity:1.0;fill-rule:evenodd;stroke:rgb(0, 0, 0);stroke-width:3.0;" d="M 161.108, 9.66341 L 141.156, 23.2553 L 137.435, 8.74473 L 157.05, 7.10057 z "/>
<path style="fill:rgb(255, 15, 100);fill-opacity:1.0;fill-rule:evenodd;stroke:rgb(0, 0, 0);stroke-width:3.0;" d="M 117.455, 209.333 L 124.361, 167.346 L 139.033, 166.251 z "/>
<path style="fill:rgb(223, 9, 11);fill-opacity:1.0;fill-rule:evenodd;stroke:rgb(0, 0, 0);stroke-width:3.0;" d="M 758.843, 17.8799 L 761.627, 21.9784 L 760.653, 22.254 L 741.825, 27.0182 L 735.094, 16.4076 z "/>
<path style="fill:rgb(231, 159, 170);fill-opacity:1.0;fill-rule:evenodd;stroke:rgb(0, 0, 0);stroke-width:3.0;" d="M 101.728, 446.141 L 94.0519, 464.81 L 90.1018, 450.826 L 100.081, 445.112 z "/>
<path style="fill:rgb(220, 255, 199);fill-opacity:1.0;fill-rule:evenodd;stroke:rgb(0, 0, 0);stroke-width:3.0;" d="M 133.101, 114.305 L 79.5659, 97.6284 L 153.062, 94.3471 z "/>
<path style="fill:rgb(255, 13, 10);fill-opacity:1.0;fill-rule:evenodd;stroke:rgb(0, 0, 0);stroke-width:3.0;" d="M 113.657, 186.554 L 111.874, 190.546 L 102.656, 194.607 L 104.77, 170.655 z "/>
<path style="fill:rgb(243, 243, 31);fill-opacity:1.0;fill-rule:evenodd;stroke:rgb(0, 0, 0);stroke-width:3.0;" d="M 782.167, 275.413 L 767.315, 304.726 L 759.188, 314.364 L 754.583, 293.133 L 770.259, 271.713 z "/>
<path style="fill:rgb(243, 243, 31);fill-opacity:1.0;fill-rule:evenodd;stroke:rgb(0, 0, 0);stroke-width:3.0;" d="M 62.3572, 279.562 L 49.3618, 290.494 L 42.7309, 289.032 L 56.5195, 275.878 z "/>
<path style="fill:rgb(243, 243, 31);fill-opacity:1.0;fill-rule:evenodd;stroke:rgb(0, 0, 0);stroke-width:3.0;" d="M 735.226, 16.6148 L 742.126, 27.4922 L 738.094, 28.6321 L 737.04, 28.5364 L 731.169, 26.0211 L 728.457, 18.199 L 728.844, 11.1865 z "/>
<path style="fill:rgb(249, 32, 45);fill-opacity:1.0;fill-rule:evenodd;stroke:rgb(0, 0, 0);stroke-width:3.0;" d="M 784.247, 255.365 L 784.425, 259.963 L 763.418, 260.241 L 755.663, 256.88 L 752.896, 249.801 z "/>
<path style="fill:rgb(249, 32, 45);fill-opacity:1.0;fill-rule:evenodd;stroke:rgb(0, 0, 0);stroke-width:3.0;" d="M 37.6189, 280.569 L 37.6309, 292.488 L 27.4285, 290.255 L 23.2549, 283.66 L 36.2158, 280.083 z "/>
<path style="fill:rgb(228, 255, 7);fill-opacity:1.0;fill-rule:evenodd;stroke:rgb(0, 0, 0);stroke-width:3.0;" d="M 743.307, 253.581 L 715.569, 333.284 L 682.619, 197.159 L 704.007, 176.072 z "/>
<path style="fill:rgb(228, 255, 7);fill-opacity:1.0;fill-rule:evenodd;stroke:rgb(0, 0, 0);stroke-width:3.0;" d="M 298.129, 22.0938 L 296.669, 27.9947 L 288.081, 29.6695 L 285.459, 25.5369 L 285.677, 14.3057 L 288.062, 11.4275 z "/>
<path style="fill:rgb(228, 255, 7);fill-opacity:1.0;fill-rule:evenodd;stroke:rgb(0, 0, 0);stroke-width:3.0;" d="M 52.1096, 107.125 L 41.4788, 108.97 L 37.4448, 106.804 L 37.4306, 92.6353 z "/>
<path style="fill:rgb(9, 2, 255);fill-opacity:1.0;fill-rule:evenodd;stroke:rgb(0, 0, 0);stroke-width:3.0;" d="M 58.1838, 63.8123 L 41.6407, 82.2971 L 39.9478, 64.5876 L 42.6064, 63.5863 z "/>
<path style="fill:rgb(9, 2, 255);fill-opacity:1.0;fill-rule:evenodd;stroke:rgb(0, 0, 0);stroke-width:3.0;" d="M 55.5757, 328.596 L 63.3747, 356.206 L 44.3422, 324.116 z "/>
<path style="fill:rgb(9, 2, 255);fill-opacity:1.0;fill-rule:evenodd;stroke:rgb(0, 0, 0);stroke-width:3.0;" d="M 557.665, 265.35 L 522.241, 285.592 L 506.275, 231.038 z "/>
<path style="fill:rgb(9, 2, 255);fill-opacity:1.0;fill-rule:evenodd;stroke:rgb(0, 0, 0);stroke-width:3.0;" d="M 793.507, 494.671 L 791.995, 494.458 L 778.195, 483.294 L 792.89, 478.738 z "/>
<path style="fill:rgb(34, 255, 255);fill-opacity:1.0;fill-rule:evenodd;stroke:rgb(0, 0, 0);stroke-width:3.0;" d="M 116.185, 471.249 L 108.529, 472.413 L 106.631, 434.215 L 115.838, 411.823 z "/>
<path style="fill:rgb(34, 255, 255);fill-opacity:1.0;fill-rule:evenodd;stroke:rgb(0, 0, 0);stroke-width:3.0;" d="M 531.59, 229.578 L 517.577, 238.584 L 508.551, 232.558 L 517.652, 221.697 z "/>
<path style="fill:rgb(255, 22, 6);fill-opacity:1.0;fill-rule:evenodd;stroke:rgb(0, 0, 0);stroke-width:3.0;" d="M 120.567, 417.506 L 123.801, 470.091 L 116.185, 471.249 L 115.838, 411.823 L 117.052, 408.87 z "/>
<path style="fill:rgb(255, 22, 6);fill-opacity:1.0;fill-rule:evenodd;stroke:rgb(0, 0, 0);stroke-width:3.0;" d="M 633.544, 221.991 L 616.813, 231.551 L 579.373, 214.956 L 605.142, 202.385 z "/>
<path style="fill:rgb(255, 22, 6);fill-opacity:1.0;fill-rule:evenodd;stroke:rgb(0, 0, 0);stroke-width:3.0;" d="M 109.23, 427.113 L 102.926, 423.483 L 95.9494, 411.968 L 104.414, 408.33 z "/>
<path style="fill:rgb(103, 102, 252);fill-opacity:1.0;fill-rule:evenodd;stroke:rgb(0, 0, 0);stroke-width:3.0;" d="M 115.914, 406.075 L 117.052, 408.87 L 109.489, 427.263 L 109.23, 427.113 L 104.414, 408.33 L 114.442, 404.021 z "/>
<path style="fill:rgb(255, 252, 78);fill-opacity:1.0;fill-rule:evenodd;stroke:rgb(0, 0, 0);stroke-width:3.0;" d="M 121.563, 556.307 L 119.918, 556.381 L 112.789, 531.141 L 120.479, 528.616 z "/>
<path style="fill:rgb(255, 252, 78);fill-opacity:1.0;fill-rule:evenodd;stroke:rgb(0, 0, 0);stroke-width:3.0;" d="M 73.2456, 231.842 L 73.6356, 235.356 L 61.5214, 228.68 L 58.9718, 207.475 z "/>
<path style="fill:rgb(255, 252, 78);fill-opacity:1.0;fill-rule:evenodd;stroke:rgb(0, 0, 0);stroke-width:3.0;" d="M 770.259, 271.713 L 754.583, 293.133 L 748.468, 264.944 z "/>
<path style="fill:rgb(255, 0, 10);fill-opacity:1.0;fill-rule:evenodd;stroke:rgb(0, 0, 0);stroke-width:3.0;" d="M 313.023, 43.3836 L 310.999, 57.6713 L 295.156, 78.642 L 281.184, 95.4741 L 272.289, 102.957 L 306.99, 37.2238 z "/>
<path style="fill:rgb(255, 234, 7);fill-opacity:1.0;fill-rule:evenodd;stroke:rgb(0, 0, 0);stroke-width:3.0;" d="M 121.022, 502.291 L 119.155, 501.919 L 116.843, 495.984 L 108.663, 472.392 L 115.745, 471.316 z "/>
<path style="fill:rgb(255, 234, 7);fill-opacity:1.0;fill-rule:evenodd;stroke:rgb(0, 0, 0);stroke-width:3.0;" d="M 54.8256, 177.891 L 62.2398, 213.054 L 51.6764, 195.021 L 41.3085, 161.545 L 43.4059, 160.898 z "/>
<path style="fill:rgb(15, 7, 255);fill-opacity:1.0;fill-rule:evenodd;stroke:rgb(0, 0, 0);stroke-width:3.0;" d="M 782.463, 384.709 L 739.285, 431.261 L 721.739, 358.775 L 760.441, 312.879 z "/>
<path style="fill:rgb(234, 124, 161);fill-opacity:1.0;fill-rule:evenodd;stroke:rgb(0, 0, 0);stroke-width:3.0;" d="M 786.491, 313.343 L 788.98, 377.683 L 782.463, 384.709 L 760.441, 312.879 L 768.229, 303.643 z "/>
<path style="fill:rgb(7, 255, 187);fill-opacity:1.0;fill-rule:evenodd;stroke:rgb(0, 0, 0);stroke-width:3.0;" d="M 786.491, 313.343 L 768.229, 303.643 L 785.331, 283.362 z "/>
<path style="fill:rgb(177, 220, 243);fill-opacity:1.0;fill-rule:evenodd;stroke:rgb(0, 0, 0);stroke-width:3.0;" d="M 584.334, 67.1322 L 566.606, 129.788 L 581.264, 62.8366 z "/>
<path style="fill:rgb(177, 220, 243);fill-opacity:1.0;fill-rule:evenodd;stroke:rgb(0, 0, 0);stroke-width:3.0;" d="M 354.202, 374.806 L 365.733, 465.147 L 317.398, 456.99 L 340.27, 361.581 z "/>
<path style="fill:rgb(249, 24, 255);fill-opacity:1.0;fill-rule:evenodd;stroke:rgb(0, 0, 0);stroke-width:3.0;" d="M 58.9718, 207.475 L 62.4477, 236.383 L 56.9277, 235.553 L 49.0836, 223.691 L 56.1548, 202.666 z "/>
<path style="fill:rgb(249, 24, 255);fill-opacity:1.0;fill-rule:evenodd;stroke:rgb(0, 0, 0);stroke-width:3.0;" d="M 712.445, 144.359 L 697.117, 163.869 L 691.359, 166.184 L 694.535, 157.069 L 707.433, 139.623 z "/>
<path style="fill:rgb(246, 255, 10);fill-opacity:1.0;fill-rule:evenodd;stroke:rgb(0, 0, 0);stroke-width:3.0;" d="M 760.833, 141.296 L 757.239, 213.546 L 743.307, 253.581 L 704.007, 176.072 L 755.886, 124.923 z "/>
<path style="fill:rgb(21, 142, 237);fill-opacity:1.0;fill-rule:evenodd;stroke:rgb(0, 0, 0);stroke-width:3.0;" d="M 99.9894, 217.154 L 92.6079, 233.681 L 91.2052, 231.006 L 85.0488, 210.663 z "/>
<path style="fill:rgb(21, 142, 237);fill-opacity:1.0;fill-rule:evenodd;stroke:rgb(0, 0, 0);stroke-width:3.0;" d="M 335.659, 49.647 L 328.768, 55.4434 L 316.67, 24.0941 L 320.24, 23.3978 z "/>
<path style="fill:rgb(255, 0, 123);fill-opacity:1.0;fill-rule:evenodd;stroke:rgb(0, 0, 0);stroke-width:3.0;" d="M 352.387, 35.5745 L 335.659, 49.647 L 320.24, 23.3978 L 342.858, 18.9869 z "/>
<path style="fill:rgb(23, 255, 228);fill-opacity:1.0;fill-rule:evenodd;stroke:rgb(0, 0, 0);stroke-width:3.0;" d="M 118.876, 128.53 L 105.771, 141.633 L 102.515, 142.639 L 44.05, 115.638 L 79.9084, 110.995 z "/>
<path style="fill:rgb(23, 255, 228);fill-opacity:1.0;fill-rule:evenodd;stroke:rgb(0, 0, 0);stroke-width:3.0;" d="M 25.9431, 356.219 L 52.6445, 555.469 L 12.3637, 342.773 z "/>
<path style="fill:rgb(23, 255, 228);fill-opacity:1.0;fill-rule:evenodd;stroke:rgb(0, 0, 0);stroke-width:3.0;" d="M 102.515, 142.639 L 37.5008, 162.722 L 37.4545, 116.492 L 44.05, 115.638 z "/>
<path style="fill:rgb(42, 246, 187);fill-opacity:1.0;fill-rule:evenodd;stroke:rgb(0, 0, 0);stroke-width:3.0;" d="M 98.6367, 63.1205 L 77.7301, 25.419 L 99.3147, 18.6368 z "/>
<path style="fill:rgb(108, 168, 255);fill-opacity:1.0;fill-rule:evenodd;stroke:rgb(0, 0, 0);stroke-width:3.0;" d="M 752.325, 485.133 L 752.864, 487.362 L 612.038, 405.313 L 624.049, 399.461 z "/>
<path style="fill:rgb(197, 255, 7);fill-opacity:1.0;fill-rule:evenodd;stroke:rgb(0, 0, 0);stroke-width:3.0;" d="M 581.983, 251.454 L 564.218, 261.605 L 569.794, 235.09 z "/>
<path style="fill:rgb(52, 184, 255);fill-opacity:1.0;fill-rule:evenodd;stroke:rgb(0, 0, 0);stroke-width:3.0;" d="M 280.928, 59.5008 L 288.859, 71.568 L 279.24, 89.789 L 251.468, 91.696 L 253.257, 80.1575 L 278.114, 57.4337 z "/>
<path style="fill:rgb(52, 184, 255);fill-opacity:1.0;fill-rule:evenodd;stroke:rgb(0, 0, 0);stroke-width:3.0;" d="M 214.933, 151.208 L 204.108, 160.314 L 157.722, 144.031 L 195.068, 117.862 L 234.924, 101.161 z "/>
<path style="fill:rgb(124, 182, 255);fill-opacity:1.0;fill-rule:evenodd;stroke:rgb(0, 0, 0);stroke-width:3.0;" d="M 167.224, 129.53 L 148.142, 137.526 L 145.695, 116.89 L 158.085, 115.023 z "/>
<path style="fill:rgb(124, 182, 255);fill-opacity:1.0;fill-rule:evenodd;stroke:rgb(0, 0, 0);stroke-width:3.0;" d="M 99.3147, 18.6368 L 77.7301, 25.419 L 73.3748, 17.5648 L 77.9407, 15.1175 L 99.3951, 13.3627 z "/>
<path style="fill:rgb(246, 194, 81);fill-opacity:1.0;fill-rule:evenodd;stroke:rgb(0, 0, 0);stroke-width:3.0;" d="M 687.511, 153.292 L 689.852, 162.038 L 674.532, 163.751 L 672.768, 156.463 L 678.079, 148.074 z "/>
<path style="fill:rgb(246, 194, 81);fill-opacity:1.0;fill-rule:evenodd;stroke:rgb(0, 0, 0);stroke-width:3.0;" d="M 659.728, 382.079 L 612.038, 405.313 L 463.836, 318.966 L 655.659, 209.354 z "/>
<path style="fill:rgb(255, 148, 45);fill-opacity:1.0;fill-rule:evenodd;stroke:rgb(0, 0, 0);stroke-width:3.0;" d="M 720.244, 352.598 L 659.728, 382.079 L 655.659, 209.354 L 681.936, 194.339 z "/>
<path style="fill:rgb(255, 246, 16);fill-opacity:1.0;fill-rule:evenodd;stroke:rgb(0, 0, 0);stroke-width:3.0;" d="M 100.748, 215.455 L 99.9894, 217.154 L 79.2067, 208.125 L 78.3336, 206.46 L 79.3818, 199.651 z "/>
<path style="fill:rgb(255, 246, 16);fill-opacity:1.0;fill-rule:evenodd;stroke:rgb(0, 0, 0);stroke-width:3.0;" d="M 120.189, 521.201 L 120.479, 528.616 L 112.789, 531.141 L 108.047, 514.355 z "/>
<path style="fill:rgb(255, 246, 16);fill-opacity:1.0;fill-rule:evenodd;stroke:rgb(0, 0, 0);stroke-width:3.0;" d="M 739.255, 69.8708 L 744.984, 88.8342 L 694.478, 157.146 L 669.602, 143.385 L 653.002, 74.8054 L 661.241, 11.3998 L 667.163, 10.182 z "/>
<path style="fill:rgb(255, 246, 16);fill-opacity:1.0;fill-rule:evenodd;stroke:rgb(0, 0, 0);stroke-width:3.0;" d="M 305.43, 40.1785 L 294.902, 60.1218 L 288.591, 60.6118 L 287.332, 49.0069 L 298.37, 38.9161 z "/>
<path style="fill:rgb(76, 243, 255);fill-opacity:1.0;fill-rule:evenodd;stroke:rgb(0, 0, 0);stroke-width:3.0;" d="M 432.103, 90.444 L 419.522, 108.551 L 418.576, 97.556 L 423.584, 88.2468 z "/>
<path style="fill:rgb(207, 255, 231);fill-opacity:1.0;fill-rule:evenodd;stroke:rgb(0, 0, 0);stroke-width:3.0;" d="M 135.256, 544.418 L 121.02, 542.436 L 120.7, 534.26 L 130.578, 531.41 z "/>
<path style="fill:rgb(255, 82, 10);fill-opacity:1.0;fill-rule:evenodd;stroke:rgb(0, 0, 0);stroke-width:3.0;" d="M 183.952, 29.1661 L 173.176, 53.2922 L 147.688, 33.0521 L 141.976, 22.7249 z "/>
<path style="fill:rgb(255, 3, 13);fill-opacity:1.0;fill-rule:evenodd;stroke:rgb(0, 0, 0);stroke-width:3.0;" d="M 366.917, 23.3513 L 356.704, 26.4987 L 346.13, 21.9946 L 347.433, 18.0945 L 380.931, 11.5618 z "/>
<path style="fill:rgb(237, 115, 17);fill-opacity:1.0;fill-rule:evenodd;stroke:rgb(0, 0, 0);stroke-width:3.0;" d="M 655.264, 430.498 L 676.432, 507.227 L 420.946, 343.474 L 463.836, 318.966 z "/>
<path style="fill:rgb(255, 223, 13);fill-opacity:1.0;fill-rule:evenodd;stroke:rgb(0, 0, 0);stroke-width:3.0;" d="M 752.864, 487.362 L 772.591, 568.86 L 676.432, 507.227 L 655.264, 430.498 z "/>
<path style="fill:rgb(38, 119, 209);fill-opacity:1.0;fill-rule:evenodd;stroke:rgb(0, 0, 0);stroke-width:3.0;" d="M 150.272, 156.61 L 146.77, 164.02 L 130.415, 159.103 L 147.328, 144.886 z "/>
<path style="fill:rgb(38, 119, 209);fill-opacity:1.0;fill-rule:evenodd;stroke:rgb(0, 0, 0);stroke-width:3.0;" d="M 146.77, 164.02 L 137.302, 184.054 L 124.013, 196.24 L 141.017, 162.29 z "/>
<path style="fill:rgb(27, 3, 165);fill-opacity:1.0;fill-rule:evenodd;stroke:rgb(0, 0, 0);stroke-width:3.0;" d="M 113.664, 147.01 L 126.998, 156.683 L 124.313, 162.695 L 107.945, 160.231 L 102.881, 142.526 L 103.692, 142.275 z "/>
<path style="fill:rgb(255, 252, 25);fill-opacity:1.0;fill-rule:evenodd;stroke:rgb(0, 0, 0);stroke-width:3.0;" d="M 124.313, 162.695 L 114.765, 184.073 L 111.325, 172.048 L 121.581, 162.284 z "/>
<path style="fill:rgb(255, 252, 25);fill-opacity:1.0;fill-rule:evenodd;stroke:rgb(0, 0, 0);stroke-width:3.0;" d="M 166.109, 529.389 L 173.053, 546.449 L 171.098, 554.073 L 140.019, 555.475 L 125.4, 517.948 z "/>
<path style="fill:rgb(255, 252, 25);fill-opacity:1.0;fill-rule:evenodd;stroke:rgb(0, 0, 0);stroke-width:3.0;" d="M 37.461, 122.943 L 37.5128, 174.675 L 18.9538, 203.962 L 7.77387, 118.055 z "/>
<path style="fill:rgb(255, 252, 25);fill-opacity:1.0;fill-rule:evenodd;stroke:rgb(0, 0, 0);stroke-width:3.0;" d="M 776.819, 63.3758 L 759.53, 75.7945 L 757.958, 72.4957 L 775.995, 42.0816 z "/>
<path style="fill:rgb(255, 98, 43);fill-opacity:1.0;fill-rule:evenodd;stroke:rgb(0, 0, 0);stroke-width:3.0;" d="M 568.858, 210.296 L 558.62, 205.757 L 562.715, 189.633 L 576.414, 187.748 z "/>
<path style="fill:rgb(237, 240, 27);fill-opacity:1.0;fill-rule:evenodd;stroke:rgb(0, 0, 0);stroke-width:3.0;" d="M 784.923, 272.833 L 785.058, 276.311 L 740.242, 262.388 L 740.886, 260.538 L 746.662, 260.462 z "/>
<path style="fill:rgb(24, 197, 255);fill-opacity:1.0;fill-rule:evenodd;stroke:rgb(0, 0, 0);stroke-width:3.0;" d="M 656.164, 29.4273 L 656.836, 38.644 L 646.918, 49.6711 L 644.826, 41.0278 L 651.864, 26.0113 z "/>
<path style="fill:rgb(74, 102, 255);fill-opacity:1.0;fill-rule:evenodd;stroke:rgb(0, 0, 0);stroke-width:3.0;" d="M 137.695, 55.4387 L 116.01, 45.6284 L 134.754, 30.9542 z "/>
<path style="fill:rgb(74, 11, 255);fill-opacity:1.0;fill-rule:evenodd;stroke:rgb(0, 0, 0);stroke-width:3.0;" d="M 165.882, 528.832 L 166.109, 529.389 L 125.4, 517.948 L 123.799, 513.838 L 124.539, 503.912 z "/>
<path style="fill:rgb(55, 202, 212);fill-opacity:1.0;fill-rule:evenodd;stroke:rgb(0, 0, 0);stroke-width:3.0;" d="M 73.6356, 235.356 L 77.1605, 267.108 L 74.9075, 269.004 L 66.4389, 269.576 L 61.5214, 228.68 z "/>
<path style="fill:rgb(249, 24, 192);fill-opacity:1.0;fill-rule:evenodd;stroke:rgb(0, 0, 0);stroke-width:3.0;" d="M 767.156, 209.06 L 760.276, 219.904 L 758.175, 210.857 L 762.826, 197.493 L 770.599, 195.499 z "/>
<path style="fill:rgb(61, 207, 217);fill-opacity:1.0;fill-rule:evenodd;stroke:rgb(0, 0, 0);stroke-width:3.0;" d="M 181.585, 127.31 L 163.327, 140.103 L 160.565, 134.832 L 162.045, 131.7 L 173.793, 126.777 z "/>
<path style="fill:rgb(243, 36, 112);fill-opacity:1.0;fill-rule:evenodd;stroke:rgb(0, 0, 0);stroke-width:3.0;" d="M 150.945, 61.4328 L 153.136, 69.9788 L 108.569, 51.4546 L 116.01, 45.6284 z "/>
<path style="fill:rgb(66, 255, 237);fill-opacity:1.0;fill-rule:evenodd;stroke:rgb(0, 0, 0);stroke-width:3.0;" d="M 148.142, 137.526 L 132.656, 144.014 L 144.705, 117.039 L 145.695, 116.89 z "/>
<path style="fill:rgb(255, 69, 192);fill-opacity:1.0;fill-rule:evenodd;stroke:rgb(0, 0, 0);stroke-width:3.0;" d="M 595.012, 29.398 L 587.143, 57.2051 L 586.965, 36.7995 L 590.309, 21.5256 z "/>
<path style="fill:rgb(255, 220, 57);fill-opacity:1.0;fill-rule:evenodd;stroke:rgb(0, 0, 0);stroke-width:3.0;" d="M 791.219, 129.884 L 791.549, 134.464 L 779.736, 138.775 L 778.867, 116.304 z "/>
<path style="fill:rgb(15, 212, 184);fill-opacity:1.0;fill-rule:evenodd;stroke:rgb(0, 0, 0);stroke-width:3.0;" d="M 794.473, 175.104 L 794.969, 214.148 L 794.003, 214.603 L 790.561, 161.092 L 793.415, 160.401 z "/>
<path style="fill:rgb(255, 252, 44);fill-opacity:1.0;fill-rule:evenodd;stroke:rgb(0, 0, 0);stroke-width:3.0;" d="M 140.913, 467.489 L 136.96, 468.09 L 123.221, 460.665 L 120.567, 417.506 z "/>
<path style="fill:rgb(165, 91, 243);fill-opacity:1.0;fill-rule:evenodd;stroke:rgb(0, 0, 0);stroke-width:3.0;" d="M 124.607, 503.003 L 121.022, 502.291 L 118.084, 485.044 L 126.599, 476.29 z "/>
<path style="fill:rgb(207, 130, 165);fill-opacity:1.0;fill-rule:evenodd;stroke:rgb(0, 0, 0);stroke-width:3.0;" d="M 126.599, 476.29 L 118.084, 485.044 L 115.745, 471.316 L 127.098, 469.59 z "/>
<path style="fill:rgb(240, 17, 70);fill-opacity:1.0;fill-rule:evenodd;stroke:rgb(0, 0, 0);stroke-width:3.0;" d="M 376.752, 76.168 L 348.354, 89.3134 L 364.056, 72.8933 z "/>
<path style="fill:rgb(252, 255, 9);fill-opacity:1.0;fill-rule:evenodd;stroke:rgb(0, 0, 0);stroke-width:3.0;" d="M 53.7315, 322.067 L 55.5757, 328.596 L 34.6121, 320.235 L 39.8135, 315.128 z "/>
<path style="fill:rgb(255, 140, 24);fill-opacity:1.0;fill-rule:evenodd;stroke:rgb(0, 0, 0);stroke-width:3.0;" d="M 785.714, 512.704 L 776.159, 520.307 L 771.412, 501.537 z "/>
<path style="fill:rgb(255, 81, 255);fill-opacity:1.0;fill-rule:evenodd;stroke:rgb(0, 0, 0);stroke-width:3.0;" d="M 55.5145, 90.1361 L 55.0225, 97.7856 L 52.8655, 98.8259 L 37.4299, 91.88 L 37.4279, 89.9077 L 52.9955, 89.3514 z "/>
<path style="fill:rgb(255, 81, 255);fill-opacity:1.0;fill-rule:evenodd;stroke:rgb(0, 0, 0);stroke-width:3.0;" d="M 793.507, 494.671 L 793.951, 506.149 L 785.714, 512.704 L 771.412, 501.537 L 768.793, 491.182 z "/>
<path style="fill:rgb(234, 177, 8);fill-opacity:1.0;fill-rule:evenodd;stroke:rgb(0, 0, 0);stroke-width:3.0;" d="M 467.17, 39.9768 L 433.265, 88.7719 L 322.943, 60.3437 L 327.62, 56.4093 L 454.717, 34.7946 z "/>
<path style="fill:rgb(255, 17, 255);fill-opacity:1.0;fill-rule:evenodd;stroke:rgb(0, 0, 0);stroke-width:3.0;" d="M 454.717, 34.7946 L 327.62, 56.4093 L 386.875, 6.56126 z "/>
<path style="fill:rgb(10, 255, 255);fill-opacity:1.0;fill-rule:evenodd;stroke:rgb(0, 0, 0);stroke-width:3.0;" d="M 133.101, 114.305 L 131.909, 115.497 L 60.5016, 96.1839 L 59.9825, 91.5279 z "/>
<path style="fill:rgb(249, 240, 255);fill-opacity:1.0;fill-rule:evenodd;stroke:rgb(0, 0, 0);stroke-width:3.0;" d="M 92.5774, 104.859 L 104.429, 122.029 L 61.215, 102.583 L 60.5016, 96.1839 z "/>
</svg>