<?xml version="1.0" encoding="iso-8859-1" standalone="no"?>
<!DOCTYPE svg PUBLIC "-//W3C//DTD SVG 1.0//EN" "http://www.w3.org/TR/2001/REC-SVG-20010904/DTD/svg10.dtd">
<svg xmlns="http://www.w3.org/2000/svg" width="800" height="600">
<path style="fill:rgb(0, 0, 0);fill-opacity:0.0;fill-rule:evenodd;stroke:rgb(0, 0, 0);stroke-width:0.0;" d="M 0, 600 L 800, 600 L 800, 0 L 0, 0 z "/>
<path style="fill:rgb(26, 0, 197);fill-opacity:1.0;fill-rule:evenodd;stroke:rgb(0, 0, 0);stroke-width:3.0;" d="M 133.14, 552.75 L 132.986, 558.194 L 109.914, 560.712 L 115.479, 549.113 z "/>
<path style="fill:rgb(26, 0, 197);fill-opacity:1.0;fill-rule:evenodd;stroke:rgb(0, 0, 0);stroke-width:3.0;" d="M 140.906, 241.785 L 140.073, 244.31 L 118.552, 248.027 L 116.244, 245.542 L 126.899, 228.889 z "/>
<path style="fill:rgb(26, 0, 197);fill-opacity:1.0;fill-rule:evenodd;stroke:rgb(0, 0, 0);stroke-width:3.0;" d="M 185.127, 456.863 L 205.616, 501.791 L 204.282, 506.528 L 181.847, 453.597 L 181.972, 453.147 z "/>
<path style="fill:rgb(26, 0, 197);fill-opacity:1.0;fill-rule:evenodd;stroke:rgb(0, 0, 0);stroke-width:3.0;" d="M 84.5753, 16.4696 L 53.4872, 12.5967 L 53.0609, 12.2399 L 81.911, 7.38898 z "/>
<path style="fill:rgb(234, 18, 240);fill-opacity:1.0;fill-rule:evenodd;stroke:rgb(0, 0, 0);stroke-width:3.0;" d="M 669.804, 525.28 L 655.209, 547.737 L 600.635, 504.189 L 210.362, 102.57 L 331.756, 101.123 z "/>
<path style="fill:rgb(234, 18, 240);fill-opacity:1.0;fill-rule:evenodd;stroke:rgb(0, 0, 0);stroke-width:3.0;" d="M 394.276, 383.728 L 382.433, 387.577 L 359.449, 382.957 L 379.422, 375.711 z "/>
<path style="fill:rgb(234, 18, 240);fill-opacity:1.0;fill-rule:evenodd;stroke:rgb(0, 0, 0);stroke-width:3.0;" d="M 84.9374, 54.6367 L 80.9164, 64.9986 L 63.7446, 59.461 L 60.1752, 46.2489 L 62.1997, 44.1014 L 71.1021, 42.275 z "/>
<path style="fill:rgb(102, 255, 252);fill-opacity:1.0;fill-rule:evenodd;stroke:rgb(0, 0, 0);stroke-width:3.0;" d="M 424.027, 322.448 L 399.978, 341.07 L 396.188, 341.051 L 384.169, 331.461 L 399.842, 297.559 z "/>
<path style="fill:rgb(102, 255, 252);fill-opacity:1.0;fill-rule:evenodd;stroke:rgb(0, 0, 0);stroke-width:3.0;" d="M 763.204, 574.246 L 748.925, 581.898 L 761.271, 557.064 z "/>
<path style="fill:rgb(102, 255, 252);fill-opacity:1.0;fill-rule:evenodd;stroke:rgb(0, 0, 0);stroke-width:3.0;" d="M 161.479, 417.865 L 125.22, 491.037 L 66.562, 560.664 L 33.8835, 383.353 z "/>
<path style="fill:rgb(255, 58, 17);fill-opacity:1.0;fill-rule:evenodd;stroke:rgb(0, 0, 0);stroke-width:3.0;" d="M 103.32, 369.964 L 102.101, 383.112 L 88.5563, 375.283 L 90.1757, 369.226 z "/>
<path style="fill:rgb(255, 58, 17);fill-opacity:1.0;fill-rule:evenodd;stroke:rgb(0, 0, 0);stroke-width:3.0;" d="M 718.152, 96.5191 L 548.901, 98.5358 L 585.167, 62.391 z "/>
<path style="fill:rgb(255, 58, 17);fill-opacity:1.0;fill-rule:evenodd;stroke:rgb(0, 0, 0);stroke-width:3.0;" d="M 506.134, 42.1087 L 430.955, 89.4483 L 439.268, 76.1856 L 483.218, 36.2275 z "/>
<path style="fill:rgb(255, 58, 17);fill-opacity:1.0;fill-rule:evenodd;stroke:rgb(0, 0, 0);stroke-width:3.0;" d="M 710.38, 462.85 L 669.804, 525.28 L 331.756, 101.123 L 790.321, 95.6592 z "/>
<path style="fill:rgb(255, 16, 15);fill-opacity:1.0;fill-rule:evenodd;stroke:rgb(0, 0, 0);stroke-width:3.0;" d="M 170.107, 422.421 L 170.279, 437.552 L 151.681, 459.628 L 148.289, 448.284 L 165.528, 419.775 z "/>
<path style="fill:rgb(215, 119, 9);fill-opacity:1.0;fill-rule:evenodd;stroke:rgb(0, 0, 0);stroke-width:3.0;" d="M 162.893, 53.721 L 157.823, 61.486 L 134.551, 77.4139 L 130.677, 74.2013 L 131.203, 69.5902 L 161.483, 52.2698 z "/>
<path style="fill:rgb(215, 119, 9);fill-opacity:1.0;fill-rule:evenodd;stroke:rgb(0, 0, 0);stroke-width:3.0;" d="M 285.115, 82.3599 L 279.1, 93.3532 L 260.582, 101.971 L 258.595, 101.995 L 282.327, 82.0677 z "/>
<path style="fill:rgb(215, 119, 9);fill-opacity:1.0;fill-rule:evenodd;stroke:rgb(0, 0, 0);stroke-width:3.0;" d="M 418.686, 359.004 L 388.714, 357.133 L 394.07, 339.361 z "/>
<path style="fill:rgb(228, 255, 39);fill-opacity:1.0;fill-rule:evenodd;stroke:rgb(0, 0, 0);stroke-width:3.0;" d="M 144.551, 488.507 L 96.3112, 589.069 L 75.5567, 572.169 L 77.7571, 547.376 L 132.88, 481.945 z "/>
<path style="fill:rgb(55, 234, 172);fill-opacity:1.0;fill-rule:evenodd;stroke:rgb(0, 0, 0);stroke-width:3.0;" d="M 211.016, 522.415 L 204.526, 524.296 L 184.081, 497.04 L 175.056, 471.757 L 188.908, 470.255 z "/>
<path style="fill:rgb(55, 234, 172);fill-opacity:1.0;fill-rule:evenodd;stroke:rgb(0, 0, 0);stroke-width:3.0;" d="M 185.702, 462.691 L 188.908, 470.255 L 175.056, 471.757 L 165.47, 444.9 L 166.978, 441.756 z "/>
<path style="fill:rgb(55, 234, 172);fill-opacity:1.0;fill-rule:evenodd;stroke:rgb(0, 0, 0);stroke-width:3.0;" d="M 117.123, 83.3945 L 118.027, 84.2023 L 116.526, 94.8361 L 110.886, 96.9437 L 104.34, 93.0699 L 109.994, 81.915 z "/>
<path style="fill:rgb(231, 70, 20);fill-opacity:1.0;fill-rule:evenodd;stroke:rgb(0, 0, 0);stroke-width:3.0;" d="M 329.179, 326.468 L 326.526, 327.279 L 290.087, 313.486 L 315.266, 292.371 L 316.77, 291.635 z "/>
<path style="fill:rgb(231, 70, 20);fill-opacity:1.0;fill-rule:evenodd;stroke:rgb(0, 0, 0);stroke-width:3.0;" d="M 88.543, 241.592 L 89.6961, 244.592 L 70.841, 251.799 L 80.7969, 233.128 z "/>
<path style="fill:rgb(231, 70, 20);fill-opacity:1.0;fill-rule:evenodd;stroke:rgb(0, 0, 0);stroke-width:3.0;" d="M 89.3393, 217.108 L 81.115, 232.531 L 72.8681, 230.838 L 48.8766, 190.338 L 70.5731, 166.252 z "/>
<path style="fill:rgb(255, 108, 10);fill-opacity:1.0;fill-rule:evenodd;stroke:rgb(0, 0, 0);stroke-width:3.0;" d="M 436.214, 334.989 L 440.029, 341.272 L 399.978, 341.07 L 424.027, 322.448 z "/>
<path style="fill:rgb(255, 119, 6);fill-opacity:1.0;fill-rule:evenodd;stroke:rgb(0, 0, 0);stroke-width:3.0;" d="M 460.271, 392.186 L 478.758, 406.938 L 436.21, 398.386 L 426.814, 384.889 z "/>
<path style="fill:rgb(255, 119, 6);fill-opacity:1.0;fill-rule:evenodd;stroke:rgb(0, 0, 0);stroke-width:3.0;" d="M 56.2372, 291.107 L 55.4564, 306 L 46.9962, 303.88 L 52.5245, 286.149 L 52.7752, 285.679 z "/>
<path style="fill:rgb(255, 119, 6);fill-opacity:1.0;fill-rule:evenodd;stroke:rgb(0, 0, 0);stroke-width:3.0;" d="M 182.963, 417.149 L 164.739, 416.272 L 157.359, 413.26 L 160.588, 400.903 z "/>
<path style="fill:rgb(194, 255, 13);fill-opacity:1.0;fill-rule:evenodd;stroke:rgb(0, 0, 0);stroke-width:3.0;" d="M 126.899, 228.889 L 116.244, 245.542 L 98.5221, 226.462 L 107.491, 211.681 L 107.911, 211.406 z "/>
<path style="fill:rgb(194, 255, 13);fill-opacity:1.0;fill-rule:evenodd;stroke:rgb(0, 0, 0);stroke-width:3.0;" d="M 177.472, 273.667 L 122.016, 305.66 L 120.873, 302.562 L 151.065, 210.965 z "/>
<path style="fill:rgb(255, 25, 197);fill-opacity:1.0;fill-rule:evenodd;stroke:rgb(0, 0, 0);stroke-width:3.0;" d="M 187.912, 369.732 L 196.204, 418.826 L 181.98, 416.435 L 147.929, 391.712 L 135.822, 368.169 L 146.978, 358.161 z "/>
<path style="fill:rgb(228, 5, 194);fill-opacity:1.0;fill-rule:evenodd;stroke:rgb(0, 0, 0);stroke-width:3.0;" d="M 212.631, 12.1677 L 237.264, 47.6302 L 206.209, 28.8431 L 189.435, 14.2767 L 188.529, 5.154 z "/>
<path style="fill:rgb(228, 5, 194);fill-opacity:1.0;fill-rule:evenodd;stroke:rgb(0, 0, 0);stroke-width:3.0;" d="M 203.645, 374.179 L 209.582, 421.076 L 196.204, 418.826 L 187.912, 369.732 z "/>
<path style="fill:rgb(249, 252, 15);fill-opacity:1.0;fill-rule:evenodd;stroke:rgb(0, 0, 0);stroke-width:3.0;" d="M 28.4934, 352.446 L 5.47511, 348.632 L 5.53555, 336.418 z "/>
<path style="fill:rgb(249, 252, 15);fill-opacity:1.0;fill-rule:evenodd;stroke:rgb(0, 0, 0);stroke-width:3.0;" d="M 275.389, 342.905 L 264.019, 346.379 L 240.73, 337.385 L 258.713, 320.09 L 267.043, 316.007 z "/>
<path style="fill:rgb(249, 252, 15);fill-opacity:1.0;fill-rule:evenodd;stroke:rgb(0, 0, 0);stroke-width:3.0;" d="M 124.756, 128.484 L 139.786, 152.127 L 120.938, 139.435 L 114.114, 123.232 z "/>
<path style="fill:rgb(249, 252, 15);fill-opacity:1.0;fill-rule:evenodd;stroke:rgb(0, 0, 0);stroke-width:3.0;" d="M 343.661, 299.137 L 334.971, 319.575 L 328.643, 318.574 L 341.468, 297.387 z "/>
<path style="fill:rgb(24, 255, 212);fill-opacity:1.0;fill-rule:evenodd;stroke:rgb(0, 0, 0);stroke-width:3.0;" d="M 761.271, 557.064 L 759.746, 560.13 L 712.149, 584.597 L 700.036, 568.121 L 757.829, 526.466 z "/>
<path style="fill:rgb(255, 70, 103);fill-opacity:1.0;fill-rule:evenodd;stroke:rgb(0, 0, 0);stroke-width:3.0;" d="M 249.116, 172.429 L 220.829, 201.123 L 180.495, 168.939 L 239.1, 164.122 z "/>
<path style="fill:rgb(255, 70, 103);fill-opacity:1.0;fill-rule:evenodd;stroke:rgb(0, 0, 0);stroke-width:3.0;" d="M 251.675, 187.103 L 246.099, 215.226 L 236.109, 204.499 L 246.771, 184.941 z "/>
<path style="fill:rgb(255, 70, 103);fill-opacity:1.0;fill-rule:evenodd;stroke:rgb(0, 0, 0);stroke-width:3.0;" d="M 460.271, 392.186 L 395.934, 378.154 L 430.717, 368.603 z "/>
<path style="fill:rgb(255, 70, 103);fill-opacity:1.0;fill-rule:evenodd;stroke:rgb(0, 0, 0);stroke-width:3.0;" d="M 585.167, 62.391 L 548.901, 98.5358 L 424.328, 100.02 L 430.955, 89.4483 L 506.134, 42.1087 z "/>
<path style="fill:rgb(255, 70, 103);fill-opacity:1.0;fill-rule:evenodd;stroke:rgb(0, 0, 0);stroke-width:3.0;" d="M 185.934, 293.759 L 173.598, 297.787 L 146.325, 295.378 L 178.861, 276.964 z "/>
<path style="fill:rgb(255, 70, 103);fill-opacity:1.0;fill-rule:evenodd;stroke:rgb(0, 0, 0);stroke-width:3.0;" d="M 459.395, 358.844 L 457.552, 359.307 L 435.17, 350.815 L 442.558, 341.517 z "/>
<path style="fill:rgb(255, 70, 103);fill-opacity:1.0;fill-rule:evenodd;stroke:rgb(0, 0, 0);stroke-width:3.0;" d="M 377.94, 284.013 L 382.076, 294.178 L 361.009, 298.868 L 360.143, 284.009 z "/>
<path style="fill:rgb(30, 249, 255);fill-opacity:1.0;fill-rule:evenodd;stroke:rgb(0, 0, 0);stroke-width:3.0;" d="M 155.159, 466.395 L 144.551, 488.507 L 132.88, 481.945 L 149.519, 462.194 z "/>
<path style="fill:rgb(252, 1, 7);fill-opacity:1.0;fill-rule:evenodd;stroke:rgb(0, 0, 0);stroke-width:3.0;" d="M 553.192, 455.367 L 558.476, 460.805 L 546.165, 460.725 L 540.81, 456.452 L 537.064, 447.478 z "/>
<path style="fill:rgb(252, 1, 7);fill-opacity:1.0;fill-rule:evenodd;stroke:rgb(0, 0, 0);stroke-width:3.0;" d="M 216.01, 365.168 L 209.607, 375.864 L 140.739, 356.398 L 130.686, 329.157 L 190.327, 304.188 z "/>
<path style="fill:rgb(252, 1, 7);fill-opacity:1.0;fill-rule:evenodd;stroke:rgb(0, 0, 0);stroke-width:3.0;" d="M 70.5633, 66.4637 L 91.0023, 81.0766 L 86.6805, 82.6179 L 66.8261, 70.8672 L 65.9124, 67.4851 L 68.088, 65.89 z "/>
<path style="fill:rgb(255, 255, 62);fill-opacity:1.0;fill-rule:evenodd;stroke:rgb(0, 0, 0);stroke-width:3.0;" d="M 165.394, 570.702 L 106.615, 575.764 L 104.378, 574.953 L 105.424, 571.451 L 129.855, 567.323 L 163.342, 565.962 z "/>
<path style="fill:rgb(255, 255, 62);fill-opacity:1.0;fill-rule:evenodd;stroke:rgb(0, 0, 0);stroke-width:3.0;" d="M 478.564, 378.57 L 472.238, 401.735 L 428.285, 366.662 L 459.395, 358.844 z "/>
<path style="fill:rgb(255, 255, 62);fill-opacity:1.0;fill-rule:evenodd;stroke:rgb(0, 0, 0);stroke-width:3.0;" d="M 307.409, 333.12 L 275.389, 342.905 L 267.923, 318.845 z "/>
<path style="fill:rgb(255, 255, 62);fill-opacity:1.0;fill-rule:evenodd;stroke:rgb(0, 0, 0);stroke-width:3.0;" d="M 120.873, 302.562 L 117.352, 293.022 L 114.51, 282.137 L 132.832, 266.278 z "/>
<path style="fill:rgb(255, 255, 62);fill-opacity:1.0;fill-rule:evenodd;stroke:rgb(0, 0, 0);stroke-width:3.0;" d="M 426.814, 384.889 L 436.21, 398.386 L 430.031, 397.144 L 414.489, 382.201 z "/>
<path style="fill:rgb(255, 255, 62);fill-opacity:1.0;fill-rule:evenodd;stroke:rgb(0, 0, 0);stroke-width:3.0;" d="M 358.45, 254.963 L 361.009, 298.868 L 347.182, 301.947 L 298.704, 263.263 L 266.359, 199.697 L 288.968, 183.462 z "/>
<path style="fill:rgb(192, 66, 112);fill-opacity:1.0;fill-rule:evenodd;stroke:rgb(0, 0, 0);stroke-width:3.0;" d="M 309.823, 272.136 L 316.77, 291.635 L 207.579, 345.152 L 148.317, 204.443 L 179.016, 167.759 z "/>
<path style="fill:rgb(38, 150, 255);fill-opacity:1.0;fill-rule:evenodd;stroke:rgb(0, 0, 0);stroke-width:3.0;" d="M 483.218, 36.2275 L 439.268, 76.1856 L 466.934, 32.0486 z "/>
<path style="fill:rgb(38, 150, 255);fill-opacity:1.0;fill-rule:evenodd;stroke:rgb(0, 0, 0);stroke-width:3.0;" d="M 286.042, 238.379 L 277.516, 246.357 L 245.061, 220.459 L 253.996, 175.4 z "/>
<path style="fill:rgb(255, 148, 11);fill-opacity:1.0;fill-rule:evenodd;stroke:rgb(0, 0, 0);stroke-width:3.0;" d="M 161.607, 561.958 L 104.704, 571.573 L 109.914, 560.712 L 158.759, 555.38 z "/>
<path style="fill:rgb(255, 33, 7);fill-opacity:1.0;fill-rule:evenodd;stroke:rgb(0, 0, 0);stroke-width:3.0;" d="M 100.827, 248.238 L 100.269, 249.623 L 89.6267, 236.565 L 84.7742, 225.981 L 92.4057, 225.417 z "/>
<path style="fill:rgb(187, 249, 69);fill-opacity:1.0;fill-rule:evenodd;stroke:rgb(0, 0, 0);stroke-width:3.0;" d="M 228.646, 424.281 L 209.832, 421.118 L 208.232, 408.807 L 257.731, 400.648 z "/>
<path style="fill:rgb(37, 128, 255);fill-opacity:1.0;fill-rule:evenodd;stroke:rgb(0, 0, 0);stroke-width:3.0;" d="M 113.048, 69.4908 L 88.1606, 47.2977 L 88.133, 47.052 L 98.3624, 46.9585 z "/>
<path style="fill:rgb(37, 128, 255);fill-opacity:1.0;fill-rule:evenodd;stroke:rgb(0, 0, 0);stroke-width:3.0;" d="M 69.4255, 364.225 L 43.1492, 349.037 L 59.8434, 334.787 L 63.4352, 334.402 z "/>
<path style="fill:rgb(37, 128, 255);fill-opacity:1.0;fill-rule:evenodd;stroke:rgb(0, 0, 0);stroke-width:3.0;" d="M 63.0564, 56.9138 L 61.1424, 63.5757 L 58.0893, 64.087 L 48.0774, 59.0819 L 60.1752, 46.2489 z "/>
<path style="fill:rgb(37, 128, 255);fill-opacity:1.0;fill-rule:evenodd;stroke:rgb(0, 0, 0);stroke-width:3.0;" d="M 91.6589, 363.679 L 88.5563, 375.283 L 69.4255, 364.225 L 68.9903, 362.058 z "/>
<path style="fill:rgb(37, 128, 255);fill-opacity:1.0;fill-rule:evenodd;stroke:rgb(0, 0, 0);stroke-width:3.0;" d="M 381.416, 374.988 L 359.449, 382.957 L 357.696, 382.605 L 353.077, 368.807 z "/>
<path style="fill:rgb(255, 234, 142);fill-opacity:1.0;fill-rule:evenodd;stroke:rgb(0, 0, 0);stroke-width:3.0;" d="M 135.351, 341.796 L 138.952, 351.556 L 130.443, 353.488 L 128.606, 352.968 L 123.255, 337.647 z "/>
<path style="fill:rgb(255, 234, 142);fill-opacity:1.0;fill-rule:evenodd;stroke:rgb(0, 0, 0);stroke-width:3.0;" d="M 527.669, 429.102 L 518.541, 438.418 L 517.684, 437.999 L 472.238, 401.735 L 478.564, 378.57 z "/>
<path style="fill:rgb(255, 234, 142);fill-opacity:1.0;fill-rule:evenodd;stroke:rgb(0, 0, 0);stroke-width:3.0;" d="M 218.441, 146.988 L 236.758, 162.18 L 155.384, 141.588 z "/>
<path style="fill:rgb(255, 234, 142);fill-opacity:1.0;fill-rule:evenodd;stroke:rgb(0, 0, 0);stroke-width:3.0;" d="M 108.222, 15.8671 L 77.4071, 35.2731 L 69.8213, 28.3066 L 76.3483, 20.0824 L 109.132, 10.3485 z "/>
<path style="fill:rgb(255, 1, 170);fill-opacity:1.0;fill-rule:evenodd;stroke:rgb(0, 0, 0);stroke-width:3.0;" d="M 133.14, 552.75 L 115.479, 549.113 L 134.357, 509.759 z "/>
<path style="fill:rgb(255, 1, 170);fill-opacity:1.0;fill-rule:evenodd;stroke:rgb(0, 0, 0);stroke-width:3.0;" d="M 186.948, 586.617 L 182.365, 591.324 L 174.994, 587.405 L 163.158, 557.981 z "/>
<path style="fill:rgb(255, 1, 170);fill-opacity:1.0;fill-rule:evenodd;stroke:rgb(0, 0, 0);stroke-width:3.0;" d="M 104.576, 283.308 L 81.4456, 326.968 L 77.2173, 314.2 L 76.7743, 249.531 L 89.6961, 244.592 z "/>
<path style="fill:rgb(255, 1, 170);fill-opacity:1.0;fill-rule:evenodd;stroke:rgb(0, 0, 0);stroke-width:3.0;" d="M 387.987, 357.088 L 390.11, 376.884 L 263.81, 349.338 z "/>
<path style="fill:rgb(159, 27, 168);fill-opacity:1.0;fill-rule:evenodd;stroke:rgb(0, 0, 0);stroke-width:3.0;" d="M 209.522, 445.204 L 212.217, 478.335 L 210.01, 486.176 L 181.342, 452.404 L 173.451, 433.787 L 178.795, 427.443 z "/>
<path style="fill:rgb(215, 103, 10);fill-opacity:1.0;fill-rule:evenodd;stroke:rgb(0, 0, 0);stroke-width:3.0;" d="M 378.414, 284.014 L 360.143, 284.009 L 358.583, 257.246 z "/>
<path style="fill:rgb(255, 10, 20);fill-opacity:1.0;fill-rule:evenodd;stroke:rgb(0, 0, 0);stroke-width:3.0;" d="M 203.174, 550.532 L 132.986, 558.194 L 134.357, 509.759 L 165.47, 444.9 z "/>
<path style="fill:rgb(12, 12, 255);fill-opacity:1.0;fill-rule:evenodd;stroke:rgb(0, 0, 0);stroke-width:3.0;" d="M 247.306, 360.417 L 264.293, 391.322 L 221.988, 379.364 L 214.473, 361.519 L 216.31, 360.958 L 239.326, 358.813 z "/>
<path style="fill:rgb(255, 91, 8);fill-opacity:1.0;fill-rule:evenodd;stroke:rgb(0, 0, 0);stroke-width:3.0;" d="M 123.255, 337.647 L 128.606, 352.968 L 108.738, 347.353 L 93.117, 337.112 L 105.938, 331.706 z "/>
<path style="fill:rgb(255, 91, 8);fill-opacity:1.0;fill-rule:evenodd;stroke:rgb(0, 0, 0);stroke-width:3.0;" d="M 140.865, 241.748 L 114.386, 217.367 L 140.758, 192.812 z "/>
<path style="fill:rgb(255, 91, 8);fill-opacity:1.0;fill-rule:evenodd;stroke:rgb(0, 0, 0);stroke-width:3.0;" d="M 190.327, 304.188 L 130.686, 329.157 L 124.969, 313.663 L 185.934, 293.759 z "/>
<path style="fill:rgb(255, 91, 8);fill-opacity:1.0;fill-rule:evenodd;stroke:rgb(0, 0, 0);stroke-width:3.0;" d="M 60.8059, 18.724 L 62.3929, 20.5448 L 63.9477, 22.4183 L 64.3266, 23.6517 L 50.0317, 27.896 L 49.3298, 27.4698 L 48.36, 22.1466 L 50.4373, 19.9144 L 56.7462, 15.3252 z "/>
<path style="fill:rgb(255, 91, 8);fill-opacity:1.0;fill-rule:evenodd;stroke:rgb(0, 0, 0);stroke-width:3.0;" d="M 263.81, 349.338 L 353.077, 368.807 L 355.206, 375.166 L 329.408, 376.919 L 229.675, 356.874 L 255.943, 348.847 z "/>
<path style="fill:rgb(255, 91, 8);fill-opacity:1.0;fill-rule:evenodd;stroke:rgb(0, 0, 0);stroke-width:3.0;" d="M 131.87, 585.607 L 98.8168, 590.518 L 107.107, 582.842 z "/>
<path style="fill:rgb(255, 91, 8);fill-opacity:1.0;fill-rule:evenodd;stroke:rgb(0, 0, 0);stroke-width:3.0;" d="M 248.444, 181.872 L 236.109, 204.499 L 227.07, 194.793 L 243.394, 178.233 z "/>
<path style="fill:rgb(255, 246, 39);fill-opacity:1.0;fill-rule:evenodd;stroke:rgb(0, 0, 0);stroke-width:3.0;" d="M 272.309, 393.587 L 272.083, 398.283 L 214.282, 407.81 L 236.587, 383.49 z "/>
<path style="fill:rgb(217, 28, 157);fill-opacity:1.0;fill-rule:evenodd;stroke:rgb(0, 0, 0);stroke-width:3.0;" d="M 482.227, 565.809 L 468.019, 588.575 L 465.558, 563.026 z "/>
<path style="fill:rgb(217, 28, 157);fill-opacity:1.0;fill-rule:evenodd;stroke:rgb(0, 0, 0);stroke-width:3.0;" d="M 140.744, 186.461 L 140.758, 192.812 L 114.386, 217.367 L 101.088, 205.123 L 99.1856, 202.239 L 99.7607, 133.849 L 112.588, 119.609 z "/>
<path style="fill:rgb(217, 28, 157);fill-opacity:1.0;fill-rule:evenodd;stroke:rgb(0, 0, 0);stroke-width:3.0;" d="M 440.771, 441.205 L 303.804, 434.156 L 287.515, 423.222 L 346.38, 414.525 z "/>
<path style="fill:rgb(217, 28, 157);fill-opacity:1.0;fill-rule:evenodd;stroke:rgb(0, 0, 0);stroke-width:3.0;" d="M 30.9996, 406.272 L 16.5962, 427.093 L 6.66777, 417.601 L 25.4204, 400.177 z "/>
<path style="fill:rgb(223, 65, 255);fill-opacity:1.0;fill-rule:evenodd;stroke:rgb(0, 0, 0);stroke-width:3.0;" d="M 554.74, 577.916 L 554.018, 579.955 L 479.272, 570.545 L 482.227, 565.809 z "/>
<path style="fill:rgb(255, 243, 21);fill-opacity:1.0;fill-rule:evenodd;stroke:rgb(0, 0, 0);stroke-width:3.0;" d="M 69.5908, 312.044 L 83.9688, 334.588 L 85.8232, 340.188 L 84.8475, 340.6 L 72.8643, 337.212 L 69.2369, 334.579 L 54.0984, 311.05 z "/>
<path style="fill:rgb(255, 243, 21);fill-opacity:1.0;fill-rule:evenodd;stroke:rgb(0, 0, 0);stroke-width:3.0;" d="M 99.3487, 182.84 L 89.6964, 187.852 L 73.3887, 163.126 L 99.7607, 133.849 z "/>
<path style="fill:rgb(255, 88, 24);fill-opacity:1.0;fill-rule:evenodd;stroke:rgb(0, 0, 0);stroke-width:3.0;" d="M 394.07, 339.361 L 388.714, 357.133 L 342.69, 354.261 L 335.153, 324.642 L 364.418, 315.7 z "/>
<path style="fill:rgb(10, 9, 237);fill-opacity:1.0;fill-rule:evenodd;stroke:rgb(0, 0, 0);stroke-width:3.0;" d="M 166.716, 589.499 L 157.812, 588.505 L 157.51, 571.381 L 162.881, 570.918 z "/>
<path style="fill:rgb(10, 9, 237);fill-opacity:1.0;fill-rule:evenodd;stroke:rgb(0, 0, 0);stroke-width:3.0;" d="M 173.244, 174.656 L 148.317, 204.443 L 120.938, 139.435 z "/>
<path style="fill:rgb(246, 23, 252);fill-opacity:1.0;fill-rule:evenodd;stroke:rgb(0, 0, 0);stroke-width:3.0;" d="M 107.911, 211.406 L 91.2519, 222.291 L 76.5951, 182.572 z "/>
<path style="fill:rgb(29, 255, 255);fill-opacity:1.0;fill-rule:evenodd;stroke:rgb(0, 0, 0);stroke-width:3.0;" d="M 500.838, 458.183 L 566.097, 476.63 L 573.064, 482.189 L 340.128, 443.025 z "/>
<path style="fill:rgb(27, 35, 234);fill-opacity:1.0;fill-rule:evenodd;stroke:rgb(0, 0, 0);stroke-width:3.0;" d="M 440.771, 441.205 L 500.838, 458.183 L 340.128, 443.025 L 280.134, 432.938 z "/>
<path style="fill:rgb(91, 18, 228);fill-opacity:1.0;fill-rule:evenodd;stroke:rgb(0, 0, 0);stroke-width:3.0;" d="M 398.439, 300.593 L 384.169, 331.461 L 376.034, 324.969 L 378.794, 308.635 L 389.718, 297.43 z "/>
<path style="fill:rgb(255, 15, 19);fill-opacity:1.0;fill-rule:evenodd;stroke:rgb(0, 0, 0);stroke-width:3.0;" d="M 93.9991, 398.179 L 92.4521, 399.195 L 62.6197, 391.126 L 52.6025, 384.904 L 56.7971, 380.936 L 67.9217, 379.973 z "/>
<path style="fill:rgb(255, 92, 207);fill-opacity:1.0;fill-rule:evenodd;stroke:rgb(0, 0, 0);stroke-width:3.0;" d="M 117.33, 32.7911 L 97.6824, 36.8219 L 99.2166, 32.0833 L 113.034, 22.4128 z "/>
<path style="fill:rgb(55, 255, 255);fill-opacity:1.0;fill-rule:evenodd;stroke:rgb(0, 0, 0);stroke-width:3.0;" d="M 120.773, 325.45 L 85.8232, 340.188 L 81.4456, 326.968 L 98.2422, 295.264 L 107.328, 290.467 z "/>
<path style="fill:rgb(140, 12, 255);fill-opacity:1.0;fill-rule:evenodd;stroke:rgb(0, 0, 0);stroke-width:3.0;" d="M 110.001, 387.678 L 103.077, 392.222 L 87.2077, 393.438 L 76.4694, 385.941 L 79.49, 384.045 L 102.088, 383.105 z "/>
<path style="fill:rgb(35, 255, 252);fill-opacity:1.0;fill-rule:evenodd;stroke:rgb(0, 0, 0);stroke-width:3.0;" d="M 465.558, 563.026 L 468.019, 588.575 L 465.246, 593.018 L 392.156, 550.771 z "/>
<path style="fill:rgb(35, 255, 252);fill-opacity:1.0;fill-rule:evenodd;stroke:rgb(0, 0, 0);stroke-width:3.0;" d="M 330.855, 288.919 L 333.43, 290.974 L 332.967, 294.99 L 329.755, 295.433 L 317.467, 292.752 L 315.459, 287.154 L 320.941, 286.925 z "/>
<path style="fill:rgb(35, 255, 252);fill-opacity:1.0;fill-rule:evenodd;stroke:rgb(0, 0, 0);stroke-width:3.0;" d="M 185.702, 462.691 L 166.978, 441.756 L 167.297, 441.091 L 173.451, 433.787 z "/>
<path style="fill:rgb(35, 255, 252);fill-opacity:1.0;fill-rule:evenodd;stroke:rgb(0, 0, 0);stroke-width:3.0;" d="M 236.587, 383.49 L 221.734, 399.685 L 214.824, 390.129 L 224.601, 380.102 z "/>
<path style="fill:rgb(35, 255, 252);fill-opacity:1.0;fill-rule:evenodd;stroke:rgb(0, 0, 0);stroke-width:3.0;" d="M 28.4934, 352.446 L 46.2713, 364.858 L 47.5881, 368.148 L 30.0528, 362.765 L 16.0563, 350.385 z "/>
<path style="fill:rgb(35, 255, 252);fill-opacity:1.0;fill-rule:evenodd;stroke:rgb(0, 0, 0);stroke-width:3.0;" d="M 788.703, 529.428 L 785.532, 532.338 L 780.588, 533.843 L 763.68, 528.299 L 761.742, 523.646 L 771.179, 516.844 L 783.262, 515.634 z "/>
<path style="fill:rgb(249, 228, 13);fill-opacity:1.0;fill-rule:evenodd;stroke:rgb(0, 0, 0);stroke-width:3.0;" d="M 46.9012, 25.9953 L 69.2312, 39.5531 L 68.0002, 39.9311 L 27.0321, 24.2159 L 26.5419, 23.7003 z "/>
<path style="fill:rgb(255, 112, 197);fill-opacity:1.0;fill-rule:evenodd;stroke:rgb(0, 0, 0);stroke-width:3.0;" d="M 142.056, 380.291 L 139.384, 385.508 L 130.095, 378.764 L 131.287, 372.237 L 133.435, 370.31 L 136.815, 370.101 z "/>
<path style="fill:rgb(255, 112, 197);fill-opacity:1.0;fill-rule:evenodd;stroke:rgb(0, 0, 0);stroke-width:3.0;" d="M 409.611, 341.119 L 432.055, 349.634 L 413.884, 355.172 L 396.188, 341.051 z "/>
<path style="fill:rgb(255, 112, 197);fill-opacity:1.0;fill-rule:evenodd;stroke:rgb(0, 0, 0);stroke-width:3.0;" d="M 200.934, 44.0665 L 209.418, 101.598 L 146.027, 36.3644 z "/>
<path style="fill:rgb(246, 217, 13);fill-opacity:1.0;fill-rule:evenodd;stroke:rgb(0, 0, 0);stroke-width:3.0;" d="M 157.812, 588.505 L 136.112, 586.081 L 137.089, 576.091 L 145.266, 572.435 L 157.51, 571.381 z "/>
<path style="fill:rgb(246, 217, 13);fill-opacity:1.0;fill-rule:evenodd;stroke:rgb(0, 0, 0);stroke-width:3.0;" d="M 213.882, 45.8827 L 259.28, 101.419 L 258.595, 101.995 L 210.362, 102.57 L 209.418, 101.598 L 200.934, 44.0665 z "/>
<path style="fill:rgb(246, 217, 13);fill-opacity:1.0;fill-rule:evenodd;stroke:rgb(0, 0, 0);stroke-width:3.0;" d="M 209.432, 101.613 L 223.989, 148.652 L 143.593, 83.2834 L 162.893, 53.721 z "/>
<path style="fill:rgb(19, 10, 255);fill-opacity:1.0;fill-rule:evenodd;stroke:rgb(0, 0, 0);stroke-width:3.0;" d="M 248.959, 142.289 L 256.171, 165.271 L 250.947, 170.571 L 223.989, 148.652 L 209.432, 101.613 z "/>
<path style="fill:rgb(255, 228, 18);fill-opacity:1.0;fill-rule:evenodd;stroke:rgb(0, 0, 0);stroke-width:3.0;" d="M 206.491, 137.078 L 212.436, 146.474 L 145.117, 140.709 L 113.601, 115.561 L 120.617, 65.8579 z "/>
<path style="fill:rgb(255, 228, 18);fill-opacity:1.0;fill-rule:evenodd;stroke:rgb(0, 0, 0);stroke-width:3.0;" d="M 211.95, 524.618 L 212.221, 534.02 L 209.736, 539.839 L 205.124, 537.021 L 204.876, 524.195 L 211.016, 522.415 z "/>
<path style="fill:rgb(255, 228, 18);fill-opacity:1.0;fill-rule:evenodd;stroke:rgb(0, 0, 0);stroke-width:3.0;" d="M 105.944, 370.112 L 129.373, 393.207 L 125.568, 396.677 L 102.101, 383.112 L 103.32, 369.964 z "/>
<path style="fill:rgb(243, 130, 9);fill-opacity:1.0;fill-rule:evenodd;stroke:rgb(0, 0, 0);stroke-width:3.0;" d="M 303.804, 434.156 L 280.134, 432.938 L 228.646, 424.281 L 255.99, 402.063 z "/>
<path style="fill:rgb(255, 71, 33);fill-opacity:1.0;fill-rule:evenodd;stroke:rgb(0, 0, 0);stroke-width:3.0;" d="M 304.21, 301.643 L 290.087, 313.486 L 279.987, 309.663 L 303.864, 297.96 z "/>
<path style="fill:rgb(255, 71, 33);fill-opacity:1.0;fill-rule:evenodd;stroke:rgb(0, 0, 0);stroke-width:3.0;" d="M 302.09, 318.029 L 290.653, 327.063 L 267.923, 318.845 L 267.043, 316.007 L 279.987, 309.663 z "/>
<path style="fill:rgb(255, 71, 33);fill-opacity:1.0;fill-rule:evenodd;stroke:rgb(0, 0, 0);stroke-width:3.0;" d="M 418.686, 359.004 L 430.717, 368.603 L 395.934, 378.154 L 390.11, 376.884 L 387.987, 357.088 z "/>
<path style="fill:rgb(246, 64, 212);fill-opacity:1.0;fill-rule:evenodd;stroke:rgb(0, 0, 0);stroke-width:3.0;" d="M 224.601, 380.102 L 214.885, 390.066 L 206.446, 395.079 L 204.141, 377.348 L 213.385, 376.932 z "/>
<path style="fill:rgb(255, 44, 12);fill-opacity:1.0;fill-rule:evenodd;stroke:rgb(0, 0, 0);stroke-width:3.0;" d="M 193.96, 28.6922 L 190.381, 42.5862 L 171.609, 39.953 L 171.432, 26.9416 z "/>
<path style="fill:rgb(189, 207, 223);fill-opacity:1.0;fill-rule:evenodd;stroke:rgb(0, 0, 0);stroke-width:3.0;" d="M 83.9688, 334.588 L 52.7752, 285.679 L 62.0272, 268.328 z "/>
<path style="fill:rgb(255, 220, 115);fill-opacity:1.0;fill-rule:evenodd;stroke:rgb(0, 0, 0);stroke-width:3.0;" d="M 23.3162, 231.745 L 17.3292, 242.548 L 9.66158, 242.983 L 16.9399, 225.793 L 26.5453, 215.13 z "/>
<path style="fill:rgb(255, 86, 108);fill-opacity:1.0;fill-rule:evenodd;stroke:rgb(0, 0, 0);stroke-width:3.0;" d="M 206.826, 29.2167 L 219.362, 36.8005 L 219.681, 46.6962 L 208.66, 45.1502 L 202.118, 28.9043 z "/>
<path style="fill:rgb(255, 86, 108);fill-opacity:1.0;fill-rule:evenodd;stroke:rgb(0, 0, 0);stroke-width:3.0;" d="M 68.0002, 39.9311 L 47.8557, 46.1171 L 31.0813, 28.4746 L 31.1406, 25.7919 z "/>
<path style="fill:rgb(255, 86, 108);fill-opacity:1.0;fill-rule:evenodd;stroke:rgb(0, 0, 0);stroke-width:3.0;" d="M 297.578, 261.052 L 297.194, 262.059 L 284.399, 251.849 L 285.7, 238.698 L 286.042, 238.379 z "/>
<path style="fill:rgb(255, 86, 108);fill-opacity:1.0;fill-rule:evenodd;stroke:rgb(0, 0, 0);stroke-width:3.0;" d="M 136.643, 403.078 L 130.889, 409.591 L 116.557, 405.714 L 124.892, 396.286 z "/>
<path style="fill:rgb(70, 7, 246);fill-opacity:1.0;fill-rule:evenodd;stroke:rgb(0, 0, 0);stroke-width:3.0;" d="M 131.782, 332.126 L 125.912, 338.558 L 116.475, 335.321 L 120.93, 328.895 L 130.019, 327.349 z "/>
<path style="fill:rgb(28, 240, 14);fill-opacity:1.0;fill-rule:evenodd;stroke:rgb(0, 0, 0);stroke-width:3.0;" d="M 169.002, 589.755 L 94.7475, 592.329 L 95.3703, 591.03 L 131.87, 585.607 z "/>
<path style="fill:rgb(212, 255, 43);fill-opacity:1.0;fill-rule:evenodd;stroke:rgb(0, 0, 0);stroke-width:3.0;" d="M 279.606, 173.827 L 271.639, 195.906 L 267.957, 198.549 L 256.946, 164.485 L 263.786, 157.547 z "/>
<path style="fill:rgb(12, 30, 255);fill-opacity:1.0;fill-rule:evenodd;stroke:rgb(0, 0, 0);stroke-width:3.0;" d="M 203.597, 432.129 L 268.791, 479.463 L 174.906, 425.195 L 174.267, 424.456 L 183.167, 423.792 z "/>
<path style="fill:rgb(255, 8, 103);fill-opacity:1.0;fill-rule:evenodd;stroke:rgb(0, 0, 0);stroke-width:3.0;" d="M 353.705, 307.151 L 352.722, 310.781 L 340.744, 322.453 L 334.783, 323.805 L 333.87, 322.163 L 340.438, 306.717 L 347.455, 302.165 z "/>
<path style="fill:rgb(243, 124, 44);fill-opacity:1.0;fill-rule:evenodd;stroke:rgb(0, 0, 0);stroke-width:3.0;" d="M 133.078, 46.6373 L 133.229, 68.4313 L 127.601, 71.6506 L 120.617, 65.8579 L 124.611, 37.566 z "/>
<path style="fill:rgb(255, 184, 33);fill-opacity:1.0;fill-rule:evenodd;stroke:rgb(0, 0, 0);stroke-width:3.0;" d="M 143.263, 57.5497 L 143.137, 62.7642 L 133.229, 68.4313 L 133.078, 46.6373 z "/>
<path style="fill:rgb(255, 255, 74);fill-opacity:1.0;fill-rule:evenodd;stroke:rgb(0, 0, 0);stroke-width:3.0;" d="M 204.526, 524.296 L 194.814, 527.112 L 184.081, 497.04 z "/>
<path style="fill:rgb(255, 22, 23);fill-opacity:1.0;fill-rule:evenodd;stroke:rgb(0, 0, 0);stroke-width:3.0;" d="M 243.739, 352.576 L 234.537, 355.388 L 207.639, 345.122 L 224.308, 336.952 z "/>
<path style="fill:rgb(255, 115, 19);fill-opacity:1.0;fill-rule:evenodd;stroke:rgb(0, 0, 0);stroke-width:3.0;" d="M 134.541, 261.096 L 133.802, 263.337 L 108.619, 269.356 L 107.884, 267.363 L 116.899, 260.041 z "/>
<path style="fill:rgb(255, 115, 19);fill-opacity:1.0;fill-rule:evenodd;stroke:rgb(0, 0, 0);stroke-width:3.0;" d="M 216.429, 449.197 L 215.018, 468.384 L 212.217, 478.335 L 209.522, 445.204 z "/>
<path style="fill:rgb(38, 70, 209);fill-opacity:1.0;fill-rule:evenodd;stroke:rgb(0, 0, 0);stroke-width:3.0;" d="M 346.38, 414.525 L 287.515, 423.222 L 255.99, 402.063 L 257.731, 400.648 L 282.718, 396.53 z "/>
<path style="fill:rgb(249, 255, 7);fill-opacity:1.0;fill-rule:evenodd;stroke:rgb(0, 0, 0);stroke-width:3.0;" d="M 241.332, 337.617 L 244.694, 352.284 L 243.739, 352.576 L 224.308, 336.952 L 231.052, 333.647 z "/>
<path style="fill:rgb(255, 163, 9);fill-opacity:1.0;fill-rule:evenodd;stroke:rgb(0, 0, 0);stroke-width:3.0;" d="M 264.019, 346.379 L 244.694, 352.284 L 241.332, 337.617 z "/>
<path style="fill:rgb(255, 7, 59);fill-opacity:1.0;fill-rule:evenodd;stroke:rgb(0, 0, 0);stroke-width:3.0;" d="M 142.887, 33.1334 L 141.771, 44.9741 L 131.778, 45.2452 L 128.798, 42.0519 L 128.922, 35.89 L 141.773, 31.9867 z "/>
<path style="fill:rgb(89, 25, 255);fill-opacity:1.0;fill-rule:evenodd;stroke:rgb(0, 0, 0);stroke-width:3.0;" d="M 179.016, 167.759 L 173.244, 174.656 L 139.786, 152.127 L 119.567, 120.322 z "/>
<path style="fill:rgb(35, 44, 249);fill-opacity:1.0;fill-rule:evenodd;stroke:rgb(0, 0, 0);stroke-width:3.0;" d="M 478.758, 406.938 L 515.489, 436.247 L 504.173, 459.126 L 264.293, 391.322 L 247.306, 360.417 z "/>
<path style="fill:rgb(35, 44, 249);fill-opacity:1.0;fill-rule:evenodd;stroke:rgb(0, 0, 0);stroke-width:3.0;" d="M 116.805, 246.147 L 118.551, 257.129 L 102.917, 253.902 L 95.3548, 233.41 L 104.234, 232.612 z "/>
<path style="fill:rgb(35, 44, 249);fill-opacity:1.0;fill-rule:evenodd;stroke:rgb(0, 0, 0);stroke-width:3.0;" d="M 77.2173, 314.2 L 62.0272, 268.328 L 70.841, 251.799 L 76.7743, 249.531 z "/>
<path style="fill:rgb(35, 44, 249);fill-opacity:1.0;fill-rule:evenodd;stroke:rgb(0, 0, 0);stroke-width:3.0;" d="M 210.01, 486.176 L 205.616, 501.791 L 185.127, 456.863 z "/>
<path style="fill:rgb(29, 32, 252);fill-opacity:1.0;fill-rule:evenodd;stroke:rgb(0, 0, 0);stroke-width:3.0;" d="M 430.031, 397.144 L 382.433, 387.577 L 382.847, 387.442 L 418.657, 386.208 z "/>
<path style="fill:rgb(252, 24, 194);fill-opacity:1.0;fill-rule:evenodd;stroke:rgb(0, 0, 0);stroke-width:3.0;" d="M 174.678, 9.76822 L 196.11, 22.7338 L 172.608, 19.0381 L 173.723, 9.6899 z "/>
<path style="fill:rgb(255, 246, 56);fill-opacity:1.0;fill-rule:evenodd;stroke:rgb(0, 0, 0);stroke-width:3.0;" d="M 126.815, 21.5141 L 121.808, 27.6556 L 115.263, 27.7961 L 113.034, 22.4128 L 125.103, 13.9663 z "/>
<path style="fill:rgb(240, 255, 7);fill-opacity:1.0;fill-rule:evenodd;stroke:rgb(0, 0, 0);stroke-width:3.0;" d="M 99.1152, 257.26 L 124.944, 313.596 L 128.168, 322.332 L 120.773, 325.45 L 92.6031, 252.155 z "/>
<path style="fill:rgb(246, 16, 16);fill-opacity:1.0;fill-rule:evenodd;stroke:rgb(0, 0, 0);stroke-width:3.0;" d="M 227.114, 560.395 L 181.265, 579.777 L 160.812, 555.156 L 222.06, 548.47 z "/>
<path style="fill:rgb(255, 1, 215);fill-opacity:1.0;fill-rule:evenodd;stroke:rgb(0, 0, 0);stroke-width:3.0;" d="M 552.83, 466.044 L 550.69, 472.275 L 504.173, 459.126 L 515.489, 436.247 z "/>
<path style="fill:rgb(67, 0, 134);fill-opacity:1.0;fill-rule:evenodd;stroke:rgb(0, 0, 0);stroke-width:3.0;" d="M 77.3495, 551.968 L 54.3298, 587.151 L 53.0655, 585.351 L 53, 576.762 L 77.7571, 547.376 z "/>
<path style="fill:rgb(105, 12, 255);fill-opacity:1.0;fill-rule:evenodd;stroke:rgb(0, 0, 0);stroke-width:3.0;" d="M 30.7528, 28.1291 L 27.9455, 37.1574 L 21.5898, 33.8328 L 15.9482, 22.6114 L 17.0325, 13.6989 z "/>
<path style="fill:rgb(255, 140, 7);fill-opacity:1.0;fill-rule:evenodd;stroke:rgb(0, 0, 0);stroke-width:3.0;" d="M 132.832, 266.278 L 114.51, 282.137 L 111.508, 270.645 L 133.304, 264.846 z "/>
<path style="fill:rgb(255, 23, 83);fill-opacity:1.0;fill-rule:evenodd;stroke:rgb(0, 0, 0);stroke-width:3.0;" d="M 164.937, 26.437 L 171.432, 26.9416 L 171.477, 30.2256 L 169.151, 39.6082 L 146.339, 36.4083 L 148.532, 25.3483 z "/>
<path style="fill:rgb(255, 20, 189);fill-opacity:1.0;fill-rule:evenodd;stroke:rgb(0, 0, 0);stroke-width:3.0;" d="M 47.109, 296.305 L 38.572, 312.315 L 27.0223, 303.929 L 36.7258, 289.428 z "/>
<path style="fill:rgb(255, 20, 189);fill-opacity:1.0;fill-rule:evenodd;stroke:rgb(0, 0, 0);stroke-width:3.0;" d="M 132.936, 585.727 L 111.829, 583.369 L 108.55, 575.598 L 114.909, 575.05 z "/>
<path style="fill:rgb(81, 165, 255);fill-opacity:1.0;fill-rule:evenodd;stroke:rgb(0, 0, 0);stroke-width:3.0;" d="M 240.561, 49.6251 L 287.294, 77.8968 L 259.28, 101.419 L 213.882, 45.8827 z "/>
<path style="fill:rgb(255, 3, 60);fill-opacity:1.0;fill-rule:evenodd;stroke:rgb(0, 0, 0);stroke-width:3.0;" d="M 155.494, 46.1325 L 152.92, 57.1677 L 143.137, 62.7642 L 143.518, 47.0021 L 148.829, 44.2822 z "/>
<path style="fill:rgb(123, 252, 58);fill-opacity:1.0;fill-rule:evenodd;stroke:rgb(0, 0, 0);stroke-width:3.0;" d="M 69.2369, 334.579 L 38.572, 312.315 L 40.4084, 308.871 L 52.0654, 307.891 z "/>
<path style="fill:rgb(255, 220, 14);fill-opacity:1.0;fill-rule:evenodd;stroke:rgb(0, 0, 0);stroke-width:3.0;" d="M 71.743, 336.398 L 93.2772, 357.626 L 91.6589, 363.679 L 74.7609, 362.471 L 70.0466, 335.167 z "/>
<path style="fill:rgb(255, 220, 14);fill-opacity:1.0;fill-rule:evenodd;stroke:rgb(0, 0, 0);stroke-width:3.0;" d="M 326.526, 327.279 L 307.409, 333.12 L 290.653, 327.063 L 302.09, 318.029 z "/>
<path style="fill:rgb(231, 1, 8);fill-opacity:1.0;fill-rule:evenodd;stroke:rgb(0, 0, 0);stroke-width:3.0;" d="M 53.9293, 325.862 L 59.0262, 334.874 L 51.8985, 335.637 L 40.6914, 318.125 z "/>
<path style="fill:rgb(249, 22, 184);fill-opacity:1.0;fill-rule:evenodd;stroke:rgb(0, 0, 0);stroke-width:3.0;" d="M 786.867, 544.885 L 792.383, 547.587 L 790.406, 551.541 L 775.345, 548.951 L 773.158, 547.789 L 771.151, 540.608 z "/>
<path style="fill:rgb(255, 119, 16);fill-opacity:1.0;fill-rule:evenodd;stroke:rgb(0, 0, 0);stroke-width:3.0;" d="M 221.734, 399.685 L 214.282, 407.81 L 208.232, 408.807 L 206.864, 398.291 L 214.824, 390.129 z "/>
<path style="fill:rgb(255, 79, 249);fill-opacity:1.0;fill-rule:evenodd;stroke:rgb(0, 0, 0);stroke-width:3.0;" d="M 136.416, 255.406 L 124.273, 254.187 L 118.552, 248.027 L 140.073, 244.31 z "/>
<path style="fill:rgb(66, 37, 255);fill-opacity:1.0;fill-rule:evenodd;stroke:rgb(0, 0, 0);stroke-width:3.0;" d="M 97.6824, 36.8219 L 75.8333, 41.3044 L 95.092, 27.486 L 101.859, 23.9224 z "/>
<path style="fill:rgb(43, 255, 134);fill-opacity:1.0;fill-rule:evenodd;stroke:rgb(0, 0, 0);stroke-width:3.0;" d="M 794.748, 544.753 L 794.616, 546.993 L 771.799, 540.785 L 790.199, 533.222 z "/>
<path style="fill:rgb(43, 255, 134);fill-opacity:1.0;fill-rule:evenodd;stroke:rgb(0, 0, 0);stroke-width:3.0;" d="M 51.2616, 368.342 L 62.1068, 375.913 L 54.2585, 383.337 L 38.3279, 384.555 L 29.1451, 382.071 L 37.1833, 367.756 z "/>
<path style="fill:rgb(255, 9, 43);fill-opacity:1.0;fill-rule:evenodd;stroke:rgb(0, 0, 0);stroke-width:3.0;" d="M 33.8835, 383.353 L 35.2934, 391.003 L 23.9804, 401.515 L 13.8349, 395.344 L 32.3718, 382.944 z "/>
<path style="fill:rgb(255, 25, 199);fill-opacity:1.0;fill-rule:evenodd;stroke:rgb(0, 0, 0);stroke-width:3.0;" d="M 455.902, 358.681 L 456.543, 359.56 L 428.285, 366.662 L 413.884, 355.172 L 432.055, 349.634 z "/>
<path style="fill:rgb(12, 159, 182);fill-opacity:1.0;fill-rule:evenodd;stroke:rgb(0, 0, 0);stroke-width:3.0;" d="M 173.598, 297.787 L 124.969, 313.663 L 123.077, 308.536 L 146.325, 295.378 z "/>
<path style="fill:rgb(14, 255, 246);fill-opacity:1.0;fill-rule:evenodd;stroke:rgb(0, 0, 0);stroke-width:3.0;" d="M 341.774, 350.659 L 342.69, 354.261 L 273.241, 349.926 L 280.744, 341.268 L 290.772, 338.204 z "/>
<path style="fill:rgb(172, 5, 237);fill-opacity:1.0;fill-rule:evenodd;stroke:rgb(0, 0, 0);stroke-width:3.0;" d="M 341.774, 350.659 L 290.772, 338.204 L 335.153, 324.642 z "/>
<path style="fill:rgb(35, 91, 255);fill-opacity:1.0;fill-rule:evenodd;stroke:rgb(0, 0, 0);stroke-width:3.0;" d="M 288.968, 183.462 L 285.971, 185.614 L 274.415, 188.213 L 279.606, 173.827 z "/>
<path style="fill:rgb(140, 243, 11);fill-opacity:1.0;fill-rule:evenodd;stroke:rgb(0, 0, 0);stroke-width:3.0;" d="M 70.0466, 335.167 L 74.7609, 362.471 L 68.9903, 362.058 L 63.4352, 334.402 L 68.2802, 333.884 z "/>
<path style="fill:rgb(255, 25, 255);fill-opacity:1.0;fill-rule:evenodd;stroke:rgb(0, 0, 0);stroke-width:3.0;" d="M 234.537, 355.388 L 214.473, 361.519 L 209.754, 350.315 L 211.218, 346.489 z "/>
<path style="fill:rgb(234, 1, 48);fill-opacity:1.0;fill-rule:evenodd;stroke:rgb(0, 0, 0);stroke-width:3.0;" d="M 442.331, 341.283 L 442.558, 341.517 L 435.17, 350.815 L 409.611, 341.119 z "/>
<path style="fill:rgb(255, 121, 18);fill-opacity:1.0;fill-rule:evenodd;stroke:rgb(0, 0, 0);stroke-width:3.0;" d="M 155.384, 141.588 L 236.758, 162.18 L 239.1, 164.122 L 180.495, 168.939 L 145.117, 140.709 z "/>
</svg>