<?xml version="1.0" encoding="iso-8859-1" standalone="no"?>
<!DOCTYPE svg PUBLIC "-//W3C//DTD SVG 1.0//EN" "http://www.w3.org/TR/2001/REC-SVG-20010904/DTD/svg10.dtd">
<svg xmlns="http://www.w3.org/2000/svg" width="800" height="600">
<path style="fill:rgb(0, 0, 0);fill-opacity:0.0;fill-rule:evenodd;stroke:rgb(0, 0, 0);stroke-width:0.0;" d="M 0, 600 L 800, 600 L 800, 0 L 0, 0 z "/>
<path style="fill:rgb(255, 255, 57);fill-opacity:1.0;fill-rule:evenodd;stroke:rgb(0, 0, 0);stroke-width:3.0;" d="M 275.057, 575.651 L 246.189, 589.405 L 236.943, 547.966 L 290.351, 534.004 z "/>
<path style="fill:rgb(255, 255, 57);fill-opacity:1.0;fill-rule:evenodd;stroke:rgb(0, 0, 0);stroke-width:3.0;" d="M 592.77, 300.226 L 533.434, 562.177 L 497.563, 234.925 L 603.268, 216.454 z "/>
<path style="fill:rgb(215, 148, 83);fill-opacity:1.0;fill-rule:evenodd;stroke:rgb(0, 0, 0);stroke-width:3.0;" d="M 131.705, 225.627 L 50.3212, 413.812 L 87.6681, 211.988 z "/>
<path style="fill:rgb(61, 132, 207);fill-opacity:1.0;fill-rule:evenodd;stroke:rgb(0, 0, 0);stroke-width:3.0;" d="M 522.015, 65.3568 L 503.636, 65.1852 L 505.192, 58.8166 L 526.467, 58.584 z "/>
<path style="fill:rgb(61, 132, 207);fill-opacity:1.0;fill-rule:evenodd;stroke:rgb(0, 0, 0);stroke-width:3.0;" d="M 208.13, 544.045 L 210.362, 486.767 L 306.848, 480.819 z "/>
<path style="fill:rgb(97, 98, 255);fill-opacity:1.0;fill-rule:evenodd;stroke:rgb(0, 0, 0);stroke-width:3.0;" d="M 236.948, 177.428 L 178.53, 130.754 L 260.745, 83.8884 L 281.301, 74.5918 z "/>
<path style="fill:rgb(97, 98, 255);fill-opacity:1.0;fill-rule:evenodd;stroke:rgb(0, 0, 0);stroke-width:3.0;" d="M 529.858, 529.554 L 510.529, 521.093 L 527.525, 508.273 z "/>
<path style="fill:rgb(121, 21, 217);fill-opacity:1.0;fill-rule:evenodd;stroke:rgb(0, 0, 0);stroke-width:3.0;" d="M 129.451, 137.025 L 130.655, 141.485 L 112.763, 139.688 L 115.354, 131.515 L 116.879, 130.312 z "/>
<path style="fill:rgb(243, 192, 177);fill-opacity:1.0;fill-rule:evenodd;stroke:rgb(0, 0, 0);stroke-width:3.0;" d="M 353.32, 258.452 L 345.758, 263.68 L 335.53, 253.801 L 349.693, 252.376 z "/>
<path style="fill:rgb(243, 192, 177);fill-opacity:1.0;fill-rule:evenodd;stroke:rgb(0, 0, 0);stroke-width:3.0;" d="M 767.039, 167.382 L 785.243, 196.34 L 767.115, 210.977 L 751.655, 206.114 L 760.389, 165.898 z "/>
<path style="fill:rgb(243, 192, 177);fill-opacity:1.0;fill-rule:evenodd;stroke:rgb(0, 0, 0);stroke-width:3.0;" d="M 562.216, 43.1298 L 548.706, 58.3409 L 505.192, 58.8166 L 506.85, 52.0348 L 508.967, 50.0859 L 561.815, 42.5874 z "/>
<path style="fill:rgb(243, 192, 177);fill-opacity:1.0;fill-rule:evenodd;stroke:rgb(0, 0, 0);stroke-width:3.0;" d="M 169.218, 575.886 L 163.732, 579.938 L 126.04, 536.493 L 128.376, 531.576 L 168.887, 485.966 z "/>
<path style="fill:rgb(243, 192, 177);fill-opacity:1.0;fill-rule:evenodd;stroke:rgb(0, 0, 0);stroke-width:3.0;" d="M 339.559, 257.693 L 346.822, 272.785 L 329.677, 268.802 L 334.051, 252.372 z "/>
<path style="fill:rgb(95, 255, 255);fill-opacity:1.0;fill-rule:evenodd;stroke:rgb(0, 0, 0);stroke-width:3.0;" d="M 594.952, 138.382 L 512.014, 232.4 L 497.563, 234.925 L 492.454, 188.315 L 598.814, 100.971 z "/>
<path style="fill:rgb(252, 252, 18);fill-opacity:1.0;fill-rule:evenodd;stroke:rgb(0, 0, 0);stroke-width:3.0;" d="M 182.581, 36.4241 L 197.987, 43.3563 L 103.84, 67.1825 L 76.9348, 30.7139 L 131.949, 30.4133 z "/>
<path style="fill:rgb(252, 252, 18);fill-opacity:1.0;fill-rule:evenodd;stroke:rgb(0, 0, 0);stroke-width:3.0;" d="M 484.676, 118.599 L 483.368, 119.773 L 467.773, 107.127 L 475.3, 98.1453 z "/>
<path style="fill:rgb(252, 252, 18);fill-opacity:1.0;fill-rule:evenodd;stroke:rgb(0, 0, 0);stroke-width:3.0;" d="M 321.602, 18.9231 L 299.276, 56.1278 L 290.925, 52.2788 L 310.151, 7.70096 z "/>
<path style="fill:rgb(252, 252, 18);fill-opacity:1.0;fill-rule:evenodd;stroke:rgb(0, 0, 0);stroke-width:3.0;" d="M 566.46, 510.166 L 560.015, 561.597 L 533.82, 560.475 L 557.953, 453.932 z "/>
<path style="fill:rgb(255, 7, 226);fill-opacity:1.0;fill-rule:evenodd;stroke:rgb(0, 0, 0);stroke-width:3.0;" d="M 527.525, 508.273 L 498.661, 530.044 L 335.251, 462.627 L 510.237, 350.554 z "/>
<path style="fill:rgb(255, 7, 226);fill-opacity:1.0;fill-rule:evenodd;stroke:rgb(0, 0, 0);stroke-width:3.0;" d="M 207.32, 153.756 L 145.88, 124.166 L 132.533, 106.075 L 140.93, 100.713 z "/>
<path style="fill:rgb(255, 7, 226);fill-opacity:1.0;fill-rule:evenodd;stroke:rgb(0, 0, 0);stroke-width:3.0;" d="M 751.896, 466.259 L 745.384, 486.085 L 736.472, 488.298 L 739.683, 475.147 L 751.156, 460.455 z "/>
<path style="fill:rgb(255, 7, 226);fill-opacity:1.0;fill-rule:evenodd;stroke:rgb(0, 0, 0);stroke-width:3.0;" d="M 702.382, 190.617 L 712.842, 205.104 L 696.593, 203.048 L 691.944, 200.592 L 691.702, 189.71 L 698.002, 189.24 z "/>
<path style="fill:rgb(255, 7, 226);fill-opacity:1.0;fill-rule:evenodd;stroke:rgb(0, 0, 0);stroke-width:3.0;" d="M 210.236, 490.011 L 175.637, 478.366 L 212.298, 437.091 z "/>
<path style="fill:rgb(202, 0, 33);fill-opacity:1.0;fill-rule:evenodd;stroke:rgb(0, 0, 0);stroke-width:3.0;" d="M 50.3467, 442.545 L 47.4886, 429.12 L 50.3212, 413.812 L 59.1093, 393.492 z "/>
<path style="fill:rgb(202, 0, 33);fill-opacity:1.0;fill-rule:evenodd;stroke:rgb(0, 0, 0);stroke-width:3.0;" d="M 152.461, 143.675 L 165.775, 155.961 L 162.141, 181.397 L 129.762, 225.025 L 87.6681, 211.988 L 100.339, 143.516 L 106.437, 139.052 z "/>
<path style="fill:rgb(255, 237, 7);fill-opacity:1.0;fill-rule:evenodd;stroke:rgb(0, 0, 0);stroke-width:3.0;" d="M 333.738, 269.745 L 330.124, 304.434 L 329.679, 304.936 L 304.645, 285.593 L 314.78, 265.342 z "/>
<path style="fill:rgb(16, 152, 199);fill-opacity:1.0;fill-rule:evenodd;stroke:rgb(0, 0, 0);stroke-width:3.0;" d="M 580.592, 397.403 L 567.93, 409.885 L 575.459, 376.65 L 583.919, 370.852 z "/>
<path style="fill:rgb(16, 152, 199);fill-opacity:1.0;fill-rule:evenodd;stroke:rgb(0, 0, 0);stroke-width:3.0;" d="M 575.296, 439.663 L 571.891, 466.828 L 559.275, 462.671 L 557.953, 453.932 L 564.62, 424.499 z "/>
<path style="fill:rgb(157, 202, 255);fill-opacity:1.0;fill-rule:evenodd;stroke:rgb(0, 0, 0);stroke-width:3.0;" d="M 527.173, 47.5027 L 508.967, 50.0859 L 520.521, 39.4525 L 525.313, 37.6531 z "/>
<path style="fill:rgb(157, 202, 255);fill-opacity:1.0;fill-rule:evenodd;stroke:rgb(0, 0, 0);stroke-width:3.0;" d="M 137.278, 114.228 L 128.644, 121.035 L 100.757, 119.972 L 94.9313, 96.3077 L 115.539, 84.6836 z "/>
<path style="fill:rgb(157, 202, 255);fill-opacity:1.0;fill-rule:evenodd;stroke:rgb(0, 0, 0);stroke-width:3.0;" d="M 581.374, 486.623 L 575.195, 508.892 L 567.757, 499.817 L 570.289, 479.61 L 581.684, 470.474 z "/>
<path style="fill:rgb(157, 202, 255);fill-opacity:1.0;fill-rule:evenodd;stroke:rgb(0, 0, 0);stroke-width:3.0;" d="M 338.849, 35.8242 L 332.426, 65.1989 L 329.626, 68.1423 L 319.586, 75.0202 L 330.868, 28.0028 z "/>
<path style="fill:rgb(157, 202, 255);fill-opacity:1.0;fill-rule:evenodd;stroke:rgb(0, 0, 0);stroke-width:3.0;" d="M 223.412, 229.258 L 123.905, 449.037 L 166.353, 151.917 z "/>
<path style="fill:rgb(209, 246, 7);fill-opacity:1.0;fill-rule:evenodd;stroke:rgb(0, 0, 0);stroke-width:3.0;" d="M 192.054, 483.892 L 169.511, 575.67 L 169.218, 575.886 L 168.887, 485.966 L 175.637, 478.366 z "/>
<path style="fill:rgb(209, 246, 7);fill-opacity:1.0;fill-rule:evenodd;stroke:rgb(0, 0, 0);stroke-width:3.0;" d="M 510.237, 350.554 L 306.848, 480.819 L 267.077, 483.271 L 267.993, 480.109 L 496.883, 228.722 z "/>
<path style="fill:rgb(209, 246, 7);fill-opacity:1.0;fill-rule:evenodd;stroke:rgb(0, 0, 0);stroke-width:3.0;" d="M 734.545, 13.703 L 746.605, 34.1907 L 739.046, 41.9458 L 707.669, 30.9828 L 717.96, 12.5004 z "/>
<path style="fill:rgb(78, 240, 255);fill-opacity:1.0;fill-rule:evenodd;stroke:rgb(0, 0, 0);stroke-width:3.0;" d="M 360.771, 250.13 L 358.409, 253.775 L 353.417, 258.615 L 343.849, 242.585 z "/>
<path style="fill:rgb(78, 240, 255);fill-opacity:1.0;fill-rule:evenodd;stroke:rgb(0, 0, 0);stroke-width:3.0;" d="M 283.495, 129.779 L 299.741, 214.69 L 279.835, 305.737 L 217.847, 221.716 L 264.802, 112.846 z "/>
<path style="fill:rgb(255, 124, 134);fill-opacity:1.0;fill-rule:evenodd;stroke:rgb(0, 0, 0);stroke-width:3.0;" d="M 424.016, 96.846 L 411.445, 95.9107 L 403.446, 91.7248 L 403.92, 79.509 z "/>
<path style="fill:rgb(255, 124, 134);fill-opacity:1.0;fill-rule:evenodd;stroke:rgb(0, 0, 0);stroke-width:3.0;" d="M 233.643, 533.174 L 232.575, 528.388 L 270.631, 504.015 z "/>
<path style="fill:rgb(255, 124, 134);fill-opacity:1.0;fill-rule:evenodd;stroke:rgb(0, 0, 0);stroke-width:3.0;" d="M 475.3, 98.1453 L 454.412, 123.07 L 436.944, 108 L 469.629, 85.7724 z "/>
<path style="fill:rgb(234, 17, 110);fill-opacity:1.0;fill-rule:evenodd;stroke:rgb(0, 0, 0);stroke-width:3.0;" d="M 483.368, 119.773 L 467.303, 134.191 L 454.412, 123.07 L 467.773, 107.127 z "/>
<path style="fill:rgb(234, 17, 110);fill-opacity:1.0;fill-rule:evenodd;stroke:rgb(0, 0, 0);stroke-width:3.0;" d="M 101.597, 92.548 L 54.8717, 118.904 L 69.0137, 89.2751 z "/>
<path style="fill:rgb(246, 45, 255);fill-opacity:1.0;fill-rule:evenodd;stroke:rgb(0, 0, 0);stroke-width:3.0;" d="M 282.686, 71.381 L 178.53, 130.754 L 131.378, 93.0815 L 287.178, 60.9658 z "/>
<path style="fill:rgb(246, 45, 255);fill-opacity:1.0;fill-rule:evenodd;stroke:rgb(0, 0, 0);stroke-width:3.0;" d="M 708.633, 154.346 L 697.741, 162.987 L 690.434, 150.284 z "/>
<path style="fill:rgb(246, 45, 255);fill-opacity:1.0;fill-rule:evenodd;stroke:rgb(0, 0, 0);stroke-width:3.0;" d="M 496.883, 228.722 L 267.993, 480.109 L 313.454, 323.203 L 485.951, 128.994 z "/>
<path style="fill:rgb(246, 45, 255);fill-opacity:1.0;fill-rule:evenodd;stroke:rgb(0, 0, 0);stroke-width:3.0;" d="M 327.335, 88.4852 L 314.406, 147.616 L 314.284, 85.6573 z "/>
<path style="fill:rgb(255, 140, 8);fill-opacity:1.0;fill-rule:evenodd;stroke:rgb(0, 0, 0);stroke-width:3.0;" d="M 629.564, 580.114 L 634.417, 587.026 L 633.201, 591.56 L 612.28, 584.97 L 620.166, 580.004 z "/>
<path style="fill:rgb(255, 140, 8);fill-opacity:1.0;fill-rule:evenodd;stroke:rgb(0, 0, 0);stroke-width:3.0;" d="M 627.834, 166.724 L 593.302, 295.979 L 609.201, 169.115 L 617.156, 161.083 z "/>
<path style="fill:rgb(255, 140, 8);fill-opacity:1.0;fill-rule:evenodd;stroke:rgb(0, 0, 0);stroke-width:3.0;" d="M 138.577, 128.712 L 147.076, 142.069 L 147.037, 143.13 L 139.459, 142.369 L 116.879, 130.312 L 127.166, 122.201 z "/>
<path style="fill:rgb(255, 3, 60);fill-opacity:1.0;fill-rule:evenodd;stroke:rgb(0, 0, 0);stroke-width:3.0;" d="M 389.065, 66.6926 L 384.767, 81.9502 L 354.15, 65.9284 L 367.243, 47.8661 z "/>
<path style="fill:rgb(255, 3, 60);fill-opacity:1.0;fill-rule:evenodd;stroke:rgb(0, 0, 0);stroke-width:3.0;" d="M 210.236, 490.011 L 209.353, 512.657 L 195.863, 540.679 L 183.047, 520.561 L 192.054, 483.892 z "/>
<path style="fill:rgb(255, 3, 60);fill-opacity:1.0;fill-rule:evenodd;stroke:rgb(0, 0, 0);stroke-width:3.0;" d="M 651.596, 435.124 L 600.239, 460.75 L 580.201, 400.517 L 593.302, 295.979 L 625.726, 174.616 z "/>
<path style="fill:rgb(255, 7, 60);fill-opacity:1.0;fill-rule:evenodd;stroke:rgb(0, 0, 0);stroke-width:3.0;" d="M 561.815, 42.5874 L 527.173, 47.5027 L 525.313, 37.6531 L 551.029, 27.9972 z "/>
<path style="fill:rgb(255, 7, 60);fill-opacity:1.0;fill-rule:evenodd;stroke:rgb(0, 0, 0);stroke-width:3.0;" d="M 118.01, 522.759 L 122.14, 535.205 L 110.782, 547.622 L 114.515, 525.501 L 117.298, 522.563 z "/>
<path style="fill:rgb(246, 226, 21);fill-opacity:1.0;fill-rule:evenodd;stroke:rgb(0, 0, 0);stroke-width:3.0;" d="M 106.669, 71.0181 L 107.213, 89.3798 L 101.597, 92.548 L 69.0137, 89.2751 L 89.0967, 47.1991 z "/>
<path style="fill:rgb(246, 13, 7);fill-opacity:1.0;fill-rule:evenodd;stroke:rgb(0, 0, 0);stroke-width:3.0;" d="M 781.653, 33.0182 L 780.321, 56.3668 L 754.308, 47.2782 L 745.521, 32.3493 L 745.687, 32.3051 z "/>
<path style="fill:rgb(194, 255, 228);fill-opacity:1.0;fill-rule:evenodd;stroke:rgb(0, 0, 0);stroke-width:3.0;" d="M 314.389, 138.617 L 314.406, 147.616 L 312.552, 156.099 L 289.689, 135.39 z "/>
<path style="fill:rgb(246, 51, 237);fill-opacity:1.0;fill-rule:evenodd;stroke:rgb(0, 0, 0);stroke-width:3.0;" d="M 311.446, 301.689 L 304.584, 303.055 L 280.044, 304.781 L 280.219, 303.98 L 296.875, 298.547 L 303.894, 298.464 z "/>
<path style="fill:rgb(246, 51, 237);fill-opacity:1.0;fill-rule:evenodd;stroke:rgb(0, 0, 0);stroke-width:3.0;" d="M 314.284, 85.6573 L 314.389, 138.617 L 289.689, 135.39 L 264.802, 112.846 L 279.756, 78.1757 z "/>
<path style="fill:rgb(132, 4, 249);fill-opacity:1.0;fill-rule:evenodd;stroke:rgb(0, 0, 0);stroke-width:3.0;" d="M 586.591, 219.368 L 566.489, 222.881 L 589.615, 190.079 z "/>
<path style="fill:rgb(114, 243, 255);fill-opacity:1.0;fill-rule:evenodd;stroke:rgb(0, 0, 0);stroke-width:3.0;" d="M 29.7611, 15.4625 L 22.8994, 21.7383 L 16.4303, 10.1683 L 24.1776, 6.23131 z "/>
<path style="fill:rgb(114, 243, 255);fill-opacity:1.0;fill-rule:evenodd;stroke:rgb(0, 0, 0);stroke-width:3.0;" d="M 89.0967, 47.1991 L 58.6966, 110.89 L 58.1363, 68.7757 L 67.6159, 18.0825 z "/>
<path style="fill:rgb(134, 215, 255);fill-opacity:1.0;fill-rule:evenodd;stroke:rgb(0, 0, 0);stroke-width:3.0;" d="M 509.797, 102.147 L 500.216, 112.934 L 500.46, 103.751 L 513.616, 74.6468 L 517.51, 74.1735 z "/>
<path style="fill:rgb(121, 7, 255);fill-opacity:1.0;fill-rule:evenodd;stroke:rgb(0, 0, 0);stroke-width:3.0;" d="M 87.8778, 119.482 L 113.115, 133.279 L 106.153, 138.769 L 87.2545, 132.024 L 78.8849, 119.139 z "/>
<path style="fill:rgb(255, 60, 14);fill-opacity:1.0;fill-rule:evenodd;stroke:rgb(0, 0, 0);stroke-width:3.0;" d="M 275.749, 300.2 L 258.698, 334.819 L 187.272, 309.08 L 223.412, 229.258 z "/>
<path style="fill:rgb(237, 55, 172);fill-opacity:1.0;fill-rule:evenodd;stroke:rgb(0, 0, 0);stroke-width:3.0;" d="M 529.776, 529.518 L 472.98, 566.313 L 444.339, 571.016 L 510.529, 521.093 z "/>
<path style="fill:rgb(144, 255, 255);fill-opacity:1.0;fill-rule:evenodd;stroke:rgb(0, 0, 0);stroke-width:3.0;" d="M 586.808, 347.801 L 582.965, 343.514 L 592.77, 300.226 z "/>
<path style="fill:rgb(144, 255, 255);fill-opacity:1.0;fill-rule:evenodd;stroke:rgb(0, 0, 0);stroke-width:3.0;" d="M 376.794, 251.891 L 373.369, 255.747 L 343.849, 242.585 L 341.134, 238.035 z "/>
<path style="fill:rgb(12, 189, 209);fill-opacity:1.0;fill-rule:evenodd;stroke:rgb(0, 0, 0);stroke-width:3.0;" d="M 601.427, 75.6572 L 550.789, 69.7903 L 602.41, 66.135 z "/>
<path style="fill:rgb(12, 189, 209);fill-opacity:1.0;fill-rule:evenodd;stroke:rgb(0, 0, 0);stroke-width:3.0;" d="M 712.223, 155.147 L 709.946, 165.735 L 698.415, 172.542 L 694.623, 165.461 L 708.633, 154.346 z "/>
<path style="fill:rgb(12, 189, 209);fill-opacity:1.0;fill-rule:evenodd;stroke:rgb(0, 0, 0);stroke-width:3.0;" d="M 58.6966, 110.89 L 54.8717, 118.904 L 48.0421, 122.756 L 53.0855, 95.7856 L 58.4899, 95.3482 z "/>
<path style="fill:rgb(9, 29, 231);fill-opacity:1.0;fill-rule:evenodd;stroke:rgb(0, 0, 0);stroke-width:3.0;" d="M 330.868, 28.0028 L 316.898, 86.2238 L 285.322, 79.3818 L 321.602, 18.9231 z "/>
<path style="fill:rgb(255, 24, 83);fill-opacity:1.0;fill-rule:evenodd;stroke:rgb(0, 0, 0);stroke-width:3.0;" d="M 157.526, 203.219 L 148.44, 230.81 L 136.433, 227.091 L 137.849, 214.129 L 158.146, 186.78 z "/>
<path style="fill:rgb(255, 24, 83);fill-opacity:1.0;fill-rule:evenodd;stroke:rgb(0, 0, 0);stroke-width:3.0;" d="M 577.549, 421.684 L 575.296, 439.663 L 564.62, 424.499 L 567.556, 411.54 z "/>
<path style="fill:rgb(255, 24, 83);fill-opacity:1.0;fill-rule:evenodd;stroke:rgb(0, 0, 0);stroke-width:3.0;" d="M 108.996, 553.395 L 80.7222, 585.228 L 63.2881, 503.335 L 118.846, 484.451 z "/>
<path style="fill:rgb(255, 24, 83);fill-opacity:1.0;fill-rule:evenodd;stroke:rgb(0, 0, 0);stroke-width:3.0;" d="M 247.444, 397.522 L 241.589, 404.113 L 219.033, 420.426 L 219.385, 414.636 L 228.794, 395.534 z "/>
<path style="fill:rgb(255, 24, 83);fill-opacity:1.0;fill-rule:evenodd;stroke:rgb(0, 0, 0);stroke-width:3.0;" d="M 622.179, 65.5546 L 603.879, 211.579 L 586.639, 218.91 L 608.179, 10.2556 z "/>
<path style="fill:rgb(223, 148, 223);fill-opacity:1.0;fill-rule:evenodd;stroke:rgb(0, 0, 0);stroke-width:3.0;" d="M 289, 350.735 L 263.698, 379.221 L 254.52, 372.4 L 286.352, 350.171 z "/>
<path style="fill:rgb(223, 148, 223);fill-opacity:1.0;fill-rule:evenodd;stroke:rgb(0, 0, 0);stroke-width:3.0;" d="M 267.077, 483.271 L 210.362, 486.767 L 212.298, 437.091 L 313.454, 323.203 z "/>
<path style="fill:rgb(240, 240, 33);fill-opacity:1.0;fill-rule:evenodd;stroke:rgb(0, 0, 0);stroke-width:3.0;" d="M 529.858, 529.554 L 530.979, 539.779 L 509.821, 542.446 L 529.776, 529.518 z "/>
<path style="fill:rgb(255, 13, 27);fill-opacity:1.0;fill-rule:evenodd;stroke:rgb(0, 0, 0);stroke-width:3.0;" d="M 629.676, 549.238 L 626.056, 550.533 L 620.556, 548.769 L 616.891, 510.808 z "/>
<path style="fill:rgb(10, 159, 150);fill-opacity:1.0;fill-rule:evenodd;stroke:rgb(0, 0, 0);stroke-width:3.0;" d="M 474.56, 140.453 L 475.247, 141.046 L 387.842, 239.453 L 339.555, 237.813 L 305.944, 214.615 L 340.133, 77.4908 z "/>
<path style="fill:rgb(10, 159, 150);fill-opacity:1.0;fill-rule:evenodd;stroke:rgb(0, 0, 0);stroke-width:3.0;" d="M 58.5194, 123.964 L 48.552, 133.238 L 32.3452, 131.61 L 52.0541, 120.493 z "/>
<path style="fill:rgb(10, 159, 150);fill-opacity:1.0;fill-rule:evenodd;stroke:rgb(0, 0, 0);stroke-width:3.0;" d="M 502.797, 179.821 L 491.048, 175.488 L 489.511, 161.473 L 532.163, 155.705 z "/>
<path style="fill:rgb(10, 159, 150);fill-opacity:1.0;fill-rule:evenodd;stroke:rgb(0, 0, 0);stroke-width:3.0;" d="M 589.615, 190.079 L 566.489, 222.881 L 556.679, 224.595 L 564.637, 172.746 L 594.952, 138.382 z "/>
<path style="fill:rgb(10, 159, 150);fill-opacity:1.0;fill-rule:evenodd;stroke:rgb(0, 0, 0);stroke-width:3.0;" d="M 556.679, 224.595 L 512.014, 232.4 L 564.637, 172.746 z "/>
<path style="fill:rgb(10, 159, 150);fill-opacity:1.0;fill-rule:evenodd;stroke:rgb(0, 0, 0);stroke-width:3.0;" d="M 148.104, 500.714 L 130.511, 525.493 L 114.074, 517.853 L 120.136, 475.421 z "/>
<path style="fill:rgb(10, 159, 150);fill-opacity:1.0;fill-rule:evenodd;stroke:rgb(0, 0, 0);stroke-width:3.0;" d="M 683.959, 184.823 L 675.886, 190.093 L 672.05, 190.082 L 657.199, 182.237 L 655.566, 178.734 L 661.604, 177.792 z "/>
<path style="fill:rgb(10, 159, 150);fill-opacity:1.0;fill-rule:evenodd;stroke:rgb(0, 0, 0);stroke-width:3.0;" d="M 560.015, 561.597 L 557.836, 578.979 L 552.126, 579.57 L 537.127, 560.617 z "/>
<path style="fill:rgb(10, 159, 150);fill-opacity:1.0;fill-rule:evenodd;stroke:rgb(0, 0, 0);stroke-width:3.0;" d="M 84.01, 119.334 L 68.9339, 118.76 L 66.4457, 112.375 L 85.9765, 101.359 z "/>
<path style="fill:rgb(65, 112, 249);fill-opacity:1.0;fill-rule:evenodd;stroke:rgb(0, 0, 0);stroke-width:3.0;" d="M 325.984, 134.238 L 315.936, 140.621 L 318.923, 126.959 L 330.665, 115.464 z "/>
<path style="fill:rgb(65, 112, 249);fill-opacity:1.0;fill-rule:evenodd;stroke:rgb(0, 0, 0);stroke-width:3.0;" d="M 525.002, 568.46 L 525.683, 571.138 L 520.755, 592.166 L 502.446, 585.086 L 499.873, 567.8 z "/>
<path style="fill:rgb(66, 217, 255);fill-opacity:1.0;fill-rule:evenodd;stroke:rgb(0, 0, 0);stroke-width:3.0;" d="M 312.552, 156.099 L 311.079, 162.836 L 289.844, 162.961 L 283.495, 129.779 z "/>
<path style="fill:rgb(16, 157, 228);fill-opacity:1.0;fill-rule:evenodd;stroke:rgb(0, 0, 0);stroke-width:3.0;" d="M 314.025, 259.055 L 311.155, 264.5 L 309.664, 264.153 L 296.911, 248.882 L 294.676, 243.608 z "/>
<path style="fill:rgb(255, 37, 11);fill-opacity:1.0;fill-rule:evenodd;stroke:rgb(0, 0, 0);stroke-width:3.0;" d="M 327.021, 245.583 L 334.051, 252.372 L 329.677, 268.802 L 324.82, 267.674 L 306.195, 252.805 L 314.216, 244.994 z "/>
<path style="fill:rgb(255, 37, 11);fill-opacity:1.0;fill-rule:evenodd;stroke:rgb(0, 0, 0);stroke-width:3.0;" d="M 781.504, 215.502 L 767.115, 210.977 L 785.856, 195.846 z "/>
<path style="fill:rgb(255, 37, 11);fill-opacity:1.0;fill-rule:evenodd;stroke:rgb(0, 0, 0);stroke-width:3.0;" d="M 263.698, 379.221 L 259.956, 383.435 L 244.267, 379.56 L 254.52, 372.4 z "/>
<path style="fill:rgb(255, 37, 11);fill-opacity:1.0;fill-rule:evenodd;stroke:rgb(0, 0, 0);stroke-width:3.0;" d="M 258.698, 334.819 L 241.605, 369.523 L 233.158, 325.616 z "/>
<path style="fill:rgb(255, 37, 11);fill-opacity:1.0;fill-rule:evenodd;stroke:rgb(0, 0, 0);stroke-width:3.0;" d="M 299.741, 214.69 L 294.776, 188.738 L 305.713, 187.377 z "/>
<path style="fill:rgb(146, 249, 226);fill-opacity:1.0;fill-rule:evenodd;stroke:rgb(0, 0, 0);stroke-width:3.0;" d="M 305.713, 187.377 L 294.776, 188.738 L 289.844, 162.961 L 311.079, 162.836 z "/>
<path style="fill:rgb(226, 7, 31);fill-opacity:1.0;fill-rule:evenodd;stroke:rgb(0, 0, 0);stroke-width:3.0;" d="M 208.205, 542.107 L 208.005, 547.243 L 184.263, 564.777 L 195.865, 540.675 z "/>
<path style="fill:rgb(226, 7, 31);fill-opacity:1.0;fill-rule:evenodd;stroke:rgb(0, 0, 0);stroke-width:3.0;" d="M 532.803, 556.417 L 507.119, 559.15 L 506.051, 551.409 L 526.571, 540.334 L 530.979, 539.779 z "/>
<path style="fill:rgb(226, 7, 31);fill-opacity:1.0;fill-rule:evenodd;stroke:rgb(0, 0, 0);stroke-width:3.0;" d="M 373.369, 255.747 L 360.412, 270.335 L 359.292, 268.458 L 358.488, 266.213 L 361.628, 250.512 z "/>
<path style="fill:rgb(234, 255, 39);fill-opacity:1.0;fill-rule:evenodd;stroke:rgb(0, 0, 0);stroke-width:3.0;" d="M 339.555, 237.813 L 300.491, 236.486 L 305.944, 214.615 z "/>
<path style="fill:rgb(249, 161, 9);fill-opacity:1.0;fill-rule:evenodd;stroke:rgb(0, 0, 0);stroke-width:3.0;" d="M 576.856, 119.003 L 547.846, 142.826 L 542.351, 137.75 L 549.221, 112.645 z "/>
<path style="fill:rgb(92, 85, 255);fill-opacity:1.0;fill-rule:evenodd;stroke:rgb(0, 0, 0);stroke-width:3.0;" d="M 760.389, 165.898 L 751.655, 206.114 L 709.252, 192.778 L 698.415, 172.542 L 723.585, 157.683 z "/>
<path style="fill:rgb(255, 249, 72);fill-opacity:1.0;fill-rule:evenodd;stroke:rgb(0, 0, 0);stroke-width:3.0;" d="M 440.639, 111.188 L 474.56, 140.453 L 417.343, 113.654 L 439.827, 110.763 z "/>
<path style="fill:rgb(255, 249, 72);fill-opacity:1.0;fill-rule:evenodd;stroke:rgb(0, 0, 0);stroke-width:3.0;" d="M 575.195, 508.892 L 559.555, 565.263 L 567.757, 499.817 z "/>
<path style="fill:rgb(217, 103, 140);fill-opacity:1.0;fill-rule:evenodd;stroke:rgb(0, 0, 0);stroke-width:3.0;" d="M 140.815, 494.122 L 120.136, 475.421 L 123.905, 449.037 L 162.708, 363.335 L 214.198, 355.374 z "/>
<path style="fill:rgb(217, 103, 140);fill-opacity:1.0;fill-rule:evenodd;stroke:rgb(0, 0, 0);stroke-width:3.0;" d="M 300.491, 236.486 L 295.325, 236.311 L 320.083, 137.987 L 325.984, 134.238 z "/>
<path style="fill:rgb(255, 37, 8);fill-opacity:1.0;fill-rule:evenodd;stroke:rgb(0, 0, 0);stroke-width:3.0;" d="M 291.616, 321.707 L 293.925, 324.836 L 294.828, 344.174 L 289, 350.735 L 254.48, 343.383 L 264.398, 323.247 L 281, 320.344 z "/>
<path style="fill:rgb(255, 37, 8);fill-opacity:1.0;fill-rule:evenodd;stroke:rgb(0, 0, 0);stroke-width:3.0;" d="M 222.419, 339.829 L 214.198, 355.374 L 162.708, 363.335 L 186.055, 311.767 z "/>
<path style="fill:rgb(255, 37, 8);fill-opacity:1.0;fill-rule:evenodd;stroke:rgb(0, 0, 0);stroke-width:3.0;" d="M 286.352, 350.171 L 274.369, 358.539 L 267.852, 354.687 L 254.159, 344.035 L 254.48, 343.383 z "/>
<path style="fill:rgb(255, 97, 189);fill-opacity:1.0;fill-rule:evenodd;stroke:rgb(0, 0, 0);stroke-width:3.0;" d="M 259.956, 383.435 L 249.055, 395.708 L 242.687, 394.889 L 236.753, 384.807 L 244.267, 379.56 z "/>
<path style="fill:rgb(243, 33, 86);fill-opacity:1.0;fill-rule:evenodd;stroke:rgb(0, 0, 0);stroke-width:3.0;" d="M 231.578, 182.583 L 230.089, 189.045 L 218.964, 197.729 L 207.149, 181.825 L 206.757, 161.454 z "/>
<path style="fill:rgb(10, 79, 255);fill-opacity:1.0;fill-rule:evenodd;stroke:rgb(0, 0, 0);stroke-width:3.0;" d="M 439.827, 110.763 L 417.343, 113.654 L 344.34, 79.461 L 354.15, 65.9284 z "/>
<path style="fill:rgb(10, 79, 255);fill-opacity:1.0;fill-rule:evenodd;stroke:rgb(0, 0, 0);stroke-width:3.0;" d="M 215.978, 160.673 L 233.415, 174.605 L 231.578, 182.583 L 206.757, 161.454 L 206.66, 156.427 z "/>
<path style="fill:rgb(91, 255, 255);fill-opacity:1.0;fill-rule:evenodd;stroke:rgb(0, 0, 0);stroke-width:3.0;" d="M 761.349, 497.835 L 747.278, 507.058 L 722.442, 497.222 L 727.714, 490.472 L 765.711, 481.038 z "/>
<path style="fill:rgb(255, 252, 59);fill-opacity:1.0;fill-rule:evenodd;stroke:rgb(0, 0, 0);stroke-width:3.0;" d="M 367.243, 47.8661 L 360.174, 57.6184 L 350.281, 33.2319 z "/>
<path style="fill:rgb(255, 252, 59);fill-opacity:1.0;fill-rule:evenodd;stroke:rgb(0, 0, 0);stroke-width:3.0;" d="M 318.8, 304.83 L 313.295, 311.129 L 297.353, 314.156 L 299.7, 304.026 L 311.446, 301.689 z "/>
<path style="fill:rgb(46, 54, 212);fill-opacity:1.0;fill-rule:evenodd;stroke:rgb(0, 0, 0);stroke-width:3.0;" d="M 507.145, 559.338 L 484.828, 558.637 L 505.225, 545.423 z "/>
<path style="fill:rgb(140, 117, 255);fill-opacity:1.0;fill-rule:evenodd;stroke:rgb(0, 0, 0);stroke-width:3.0;" d="M 580.162, 549.771 L 575.273, 554.957 L 568.072, 534.566 L 581.374, 486.623 z "/>
<path style="fill:rgb(140, 117, 255);fill-opacity:1.0;fill-rule:evenodd;stroke:rgb(0, 0, 0);stroke-width:3.0;" d="M 314.78, 265.342 L 309.605, 275.682 L 295.103, 263.202 L 295.019, 260.751 z "/>
<path style="fill:rgb(255, 51, 11);fill-opacity:1.0;fill-rule:evenodd;stroke:rgb(0, 0, 0);stroke-width:3.0;" d="M 601.427, 75.6572 L 598.814, 100.971 L 576.856, 119.003 L 508.744, 103.333 L 539.68, 68.5032 z "/>
<path style="fill:rgb(207, 51, 20);fill-opacity:1.0;fill-rule:evenodd;stroke:rgb(0, 0, 0);stroke-width:3.0;" d="M 549.221, 112.645 L 545.634, 125.752 L 535.152, 131.098 L 507.102, 105.182 L 508.744, 103.333 z "/>
<path style="fill:rgb(22, 255, 177);fill-opacity:1.0;fill-rule:evenodd;stroke:rgb(0, 0, 0);stroke-width:3.0;" d="M 154.801, 232.78 L 118.846, 484.451 L 63.2881, 503.335 L 55.6484, 467.449 L 93.86, 313.137 L 131.705, 225.627 z "/>
<path style="fill:rgb(22, 255, 177);fill-opacity:1.0;fill-rule:evenodd;stroke:rgb(0, 0, 0);stroke-width:3.0;" d="M 216.309, 219.631 L 207.65, 207.894 L 207.625, 206.58 L 226.742, 191.658 z "/>
<path style="fill:rgb(22, 255, 177);fill-opacity:1.0;fill-rule:evenodd;stroke:rgb(0, 0, 0);stroke-width:3.0;" d="M 211.713, 39.8825 L 131.949, 30.4133 L 251.716, 29.7589 z "/>
<path style="fill:rgb(76, 74, 255);fill-opacity:1.0;fill-rule:evenodd;stroke:rgb(0, 0, 0);stroke-width:3.0;" d="M 313.948, 292.781 L 323.421, 305.315 L 315.912, 303.597 L 299.205, 296.461 L 304.645, 285.593 z "/>
<path style="fill:rgb(255, 110, 27);fill-opacity:1.0;fill-rule:evenodd;stroke:rgb(0, 0, 0);stroke-width:3.0;" d="M 350.281, 33.2319 L 360.174, 57.6184 L 344.34, 79.461 L 330.704, 73.0744 L 341.14, 25.3455 z "/>
<path style="fill:rgb(255, 110, 27);fill-opacity:1.0;fill-rule:evenodd;stroke:rgb(0, 0, 0);stroke-width:3.0;" d="M 295.019, 260.751 L 295.797, 283.415 L 288.118, 288.365 L 287.352, 288.499 L 291.395, 259.909 z "/>
<path style="fill:rgb(255, 110, 27);fill-opacity:1.0;fill-rule:evenodd;stroke:rgb(0, 0, 0);stroke-width:3.0;" d="M 631.389, 168.289 L 629.929, 167.83 L 610.639, 157.64 L 612.206, 145.136 z "/>
<path style="fill:rgb(207, 8, 102);fill-opacity:1.0;fill-rule:evenodd;stroke:rgb(0, 0, 0);stroke-width:3.0;" d="M 82.9577, 357.164 L 55.6484, 467.449 L 50.3467, 442.545 L 59.1093, 393.492 L 77.008, 352.104 z "/>
<path style="fill:rgb(14, 161, 25);fill-opacity:1.0;fill-rule:evenodd;stroke:rgb(0, 0, 0);stroke-width:3.0;" d="M 287.178, 60.9658 L 131.378, 93.0815 L 110.842, 76.6737 L 103.84, 67.1825 L 306.632, 15.8611 z "/>
<path style="fill:rgb(17, 240, 132);fill-opacity:1.0;fill-rule:evenodd;stroke:rgb(0, 0, 0);stroke-width:3.0;" d="M 152.365, 504.567 L 132.824, 526.568 L 130.511, 525.493 L 148.104, 500.714 z "/>
<path style="fill:rgb(246, 192, 14);fill-opacity:1.0;fill-rule:evenodd;stroke:rgb(0, 0, 0);stroke-width:3.0;" d="M 547.846, 142.826 L 532.163, 155.705 L 499.451, 160.129 L 522.244, 119.172 z "/>
<path style="fill:rgb(85, 7, 255);fill-opacity:1.0;fill-rule:evenodd;stroke:rgb(0, 0, 0);stroke-width:3.0;" d="M 648.084, 140.831 L 694.913, 188.268 L 631.389, 168.289 L 612.206, 145.136 L 613.707, 133.158 z "/>
<path style="fill:rgb(85, 7, 255);fill-opacity:1.0;fill-rule:evenodd;stroke:rgb(0, 0, 0);stroke-width:3.0;" d="M 522.244, 119.172 L 499.451, 160.129 L 489.511, 161.473 L 485.951, 128.994 L 507.102, 105.182 z "/>
<path style="fill:rgb(25, 255, 54);fill-opacity:1.0;fill-rule:evenodd;stroke:rgb(0, 0, 0);stroke-width:3.0;" d="M 685.96, 149.285 L 709.252, 192.778 L 694.913, 188.268 L 648.084, 140.831 z "/>
<path style="fill:rgb(25, 255, 54);fill-opacity:1.0;fill-rule:evenodd;stroke:rgb(0, 0, 0);stroke-width:3.0;" d="M 140.93, 100.713 L 132.533, 106.075 L 123.77, 94.1968 L 125.392, 88.2984 z "/>
<path style="fill:rgb(215, 8, 44);fill-opacity:1.0;fill-rule:evenodd;stroke:rgb(0, 0, 0);stroke-width:3.0;" d="M 304.836, 271.578 L 307.721, 279.446 L 299.205, 296.461 L 296.201, 295.178 L 295.318, 269.456 L 298.927, 266.493 z "/>
<path style="fill:rgb(255, 255, 57);fill-opacity:1.0;fill-rule:evenodd;stroke:rgb(0, 0, 0);stroke-width:3.0;" d="M 496.833, 566.43 L 464.255, 570.316 L 459.589, 568.512 L 494.223, 562.824 z "/>
<path style="fill:rgb(130, 255, 255);fill-opacity:1.0;fill-rule:evenodd;stroke:rgb(0, 0, 0);stroke-width:3.0;" d="M 28.591, 41.9 L 30.1112, 43.0342 L 28.2209, 53.908 L 27.7897, 55.1546 L 23.3185, 55.3253 L 16.7349, 46.1188 L 17.5224, 41.2627 z "/>
<path style="fill:rgb(130, 255, 255);fill-opacity:1.0;fill-rule:evenodd;stroke:rgb(0, 0, 0);stroke-width:3.0;" d="M 537.127, 560.617 L 554.466, 582.527 L 534.554, 572.391 L 533.434, 562.177 L 533.82, 560.475 z "/>
<path style="fill:rgb(255, 72, 142);fill-opacity:1.0;fill-rule:evenodd;stroke:rgb(0, 0, 0);stroke-width:3.0;" d="M 791.574, 172.859 L 782.45, 191.897 L 767.039, 167.382 z "/>
<path style="fill:rgb(189, 255, 14);fill-opacity:1.0;fill-rule:evenodd;stroke:rgb(0, 0, 0);stroke-width:3.0;" d="M 614.876, 538.525 L 616.199, 547.371 L 580.429, 535.895 L 581.19, 496.236 z "/>
<path style="fill:rgb(255, 246, 9);fill-opacity:1.0;fill-rule:evenodd;stroke:rgb(0, 0, 0);stroke-width:3.0;" d="M 195.863, 540.679 L 184.263, 564.777 L 169.511, 575.67 L 183.047, 520.561 z "/>
<path style="fill:rgb(255, 246, 9);fill-opacity:1.0;fill-rule:evenodd;stroke:rgb(0, 0, 0);stroke-width:3.0;" d="M 606.897, 485.185 L 614.876, 538.525 L 581.19, 496.236 L 581.423, 484.045 L 594.487, 461.882 z "/>
<path style="fill:rgb(54, 1, 234);fill-opacity:1.0;fill-rule:evenodd;stroke:rgb(0, 0, 0);stroke-width:3.0;" d="M 207.168, 182.838 L 194.426, 189.927 L 199.507, 178.308 L 205.199, 172.585 L 206.96, 172.015 z "/>
<path style="fill:rgb(182, 105, 255);fill-opacity:1.0;fill-rule:evenodd;stroke:rgb(0, 0, 0);stroke-width:3.0;" d="M 330.442, 74.274 L 327.335, 88.4852 L 316.898, 86.2238 L 318.407, 79.9363 L 326.422, 71.511 z "/>
<path style="fill:rgb(255, 182, 19);fill-opacity:1.0;fill-rule:evenodd;stroke:rgb(0, 0, 0);stroke-width:3.0;" d="M 499.579, 570.226 L 487.923, 579.469 L 464.255, 570.316 L 496.833, 566.43 z "/>
<path style="fill:rgb(243, 212, 14);fill-opacity:1.0;fill-rule:evenodd;stroke:rgb(0, 0, 0);stroke-width:3.0;" d="M 575.273, 554.957 L 567.603, 563.094 L 563.731, 550.211 L 568.072, 534.566 z "/>
<path style="fill:rgb(12, 189, 209);fill-opacity:1.0;fill-rule:evenodd;stroke:rgb(0, 0, 0);stroke-width:3.0;" d="M 306.905, 326.379 L 289.488, 317.424 L 287.747, 315.98 L 318.665, 310.109 z "/>
<path style="fill:rgb(255, 54, 126);fill-opacity:1.0;fill-rule:evenodd;stroke:rgb(0, 0, 0);stroke-width:3.0;" d="M 616.891, 510.808 L 620.556, 548.769 L 618.436, 548.089 L 611.314, 514.716 L 610.689, 510.532 L 615.081, 505.365 z "/>
<path style="fill:rgb(255, 66, 21);fill-opacity:1.0;fill-rule:evenodd;stroke:rgb(0, 0, 0);stroke-width:3.0;" d="M 403.92, 79.509 L 403.446, 91.7248 L 384.767, 81.9502 L 389.065, 66.6926 z "/>
<path style="fill:rgb(255, 66, 21);fill-opacity:1.0;fill-rule:evenodd;stroke:rgb(0, 0, 0);stroke-width:3.0;" d="M 332.989, 106.144 L 330.665, 115.464 L 318.923, 126.959 L 327.119, 89.4734 z "/>
<path style="fill:rgb(255, 199, 27);fill-opacity:1.0;fill-rule:evenodd;stroke:rgb(0, 0, 0);stroke-width:3.0;" d="M 250.436, 372.703 L 236.842, 379.194 L 252.433, 347.54 z "/>
<path style="fill:rgb(209, 2, 237);fill-opacity:1.0;fill-rule:evenodd;stroke:rgb(0, 0, 0);stroke-width:3.0;" d="M 307.905, 186.352 L 305.382, 188.89 L 315.936, 140.621 L 320.083, 137.987 z "/>
<path style="fill:rgb(24, 12, 255);fill-opacity:1.0;fill-rule:evenodd;stroke:rgb(0, 0, 0);stroke-width:3.0;" d="M 201.91, 164.265 L 203.157, 169.961 L 202.416, 171.656 L 187.794, 180.979 L 187.192, 180.163 L 196.549, 157.12 z "/>
<path style="fill:rgb(72, 0, 209);fill-opacity:1.0;fill-rule:evenodd;stroke:rgb(0, 0, 0);stroke-width:3.0;" d="M 190.506, 149.064 L 196.549, 157.12 L 187.192, 180.163 L 150.947, 131.035 z "/>
<path style="fill:rgb(255, 207, 65);fill-opacity:1.0;fill-rule:evenodd;stroke:rgb(0, 0, 0);stroke-width:3.0;" d="M 265.353, 364.835 L 261.975, 367.194 L 250.436, 372.703 L 252.433, 347.54 L 253.468, 345.438 z "/>
<path style="fill:rgb(226, 252, 117);fill-opacity:1.0;fill-rule:evenodd;stroke:rgb(0, 0, 0);stroke-width:3.0;" d="M 273.544, 359.115 L 265.353, 364.835 L 253.468, 345.438 L 254.159, 344.035 z "/>
<path style="fill:rgb(231, 4, 246);fill-opacity:1.0;fill-rule:evenodd;stroke:rgb(0, 0, 0);stroke-width:3.0;" d="M 98.0029, 108.785 L 98.8686, 112.302 L 93.4896, 118.366 L 84.5305, 114.576 L 85.7216, 103.688 L 90.527, 100.08 z "/>
<path style="fill:rgb(255, 6, 130);fill-opacity:1.0;fill-rule:evenodd;stroke:rgb(0, 0, 0);stroke-width:3.0;" d="M 208.205, 542.107 L 195.865, 540.675 L 209.353, 512.657 z "/>
<path style="fill:rgb(194, 81, 159);fill-opacity:1.0;fill-rule:evenodd;stroke:rgb(0, 0, 0);stroke-width:3.0;" d="M 233.158, 325.616 L 241.605, 369.523 L 203.38, 447.131 L 152.365, 504.567 L 140.815, 494.122 L 230.452, 324.641 z "/>
<path style="fill:rgb(26, 85, 255);fill-opacity:1.0;fill-rule:evenodd;stroke:rgb(0, 0, 0);stroke-width:3.0;" d="M 290.351, 534.004 L 236.943, 547.966 L 233.643, 533.174 L 270.631, 504.015 L 310.815, 478.278 z "/>
<path style="fill:rgb(255, 103, 16);fill-opacity:1.0;fill-rule:evenodd;stroke:rgb(0, 0, 0);stroke-width:3.0;" d="M 230.452, 324.641 L 222.419, 339.829 L 186.055, 311.767 L 187.272, 309.08 z "/>
<path style="fill:rgb(194, 46, 237);fill-opacity:1.0;fill-rule:evenodd;stroke:rgb(0, 0, 0);stroke-width:3.0;" d="M 54.105, 567.483 L 26.1615, 544.372 L 34.8604, 497.363 z "/>
<path style="fill:rgb(255, 255, 33);fill-opacity:1.0;fill-rule:evenodd;stroke:rgb(0, 0, 0);stroke-width:3.0;" d="M 80.7222, 585.228 L 78.536, 587.689 L 54.105, 567.483 L 34.8604, 497.363 L 47.4886, 429.12 z "/>
<path style="fill:rgb(255, 44, 23);fill-opacity:1.0;fill-rule:evenodd;stroke:rgb(0, 0, 0);stroke-width:3.0;" d="M 233.239, 531.363 L 206.172, 594.282 L 208.13, 544.045 L 232.575, 528.388 z "/>
<path style="fill:rgb(252, 14, 170);fill-opacity:1.0;fill-rule:evenodd;stroke:rgb(0, 0, 0);stroke-width:3.0;" d="M 298.62, 57.2217 L 285.322, 79.3818 L 279.756, 78.1757 L 289.595, 55.3623 z "/>
<path style="fill:rgb(255, 3, 22);fill-opacity:1.0;fill-rule:evenodd;stroke:rgb(0, 0, 0);stroke-width:3.0;" d="M 577.549, 421.684 L 567.556, 411.54 L 567.93, 409.885 L 580.592, 397.403 z "/>
</svg>