<?xml version="1.0" encoding="iso-8859-1" standalone="no"?>
<!DOCTYPE svg PUBLIC "-//W3C//DTD SVG 1.0//EN" "http://www.w3.org/TR/2001/REC-SVG-20010904/DTD/svg10.dtd">
<svg xmlns="http://www.w3.org/2000/svg" width="800" height="600">
<path style="fill:rgb(0, 0, 0);fill-opacity:0.0;fill-rule:evenodd;stroke:rgb(0, 0, 0);stroke-width:0.0;" d="M 0, 600 L 800, 600 L 800, 0 L 0, 0 z "/>
<path style="fill:rgb(228, 255, 8);fill-opacity:1.0;fill-rule:evenodd;stroke:rgb(0, 0, 0);stroke-width:3.0;" d="M 473.125, 130.279 L 476.188, 145.702 L 439.864, 151.255 L 439.78, 144.412 L 450.544, 131.59 L 473.079, 130.188 z "/>
<path style="fill:rgb(61, 56, 255);fill-opacity:1.0;fill-rule:evenodd;stroke:rgb(0, 0, 0);stroke-width:3.0;" d="M 230.309, 183.492 L 224.97, 186.756 L 222.38, 185.664 L 234.369, 171.309 L 244.967, 168.499 z "/>
<path style="fill:rgb(61, 56, 255);fill-opacity:1.0;fill-rule:evenodd;stroke:rgb(0, 0, 0);stroke-width:3.0;" d="M 740.153, 335.893 L 774.932, 416.741 L 741.794, 422.006 L 666.601, 324.776 z "/>
<path style="fill:rgb(61, 56, 255);fill-opacity:1.0;fill-rule:evenodd;stroke:rgb(0, 0, 0);stroke-width:3.0;" d="M 30.5758, 328.802 L 28.5212, 329.992 L 6.20076, 308.64 L 13.1572, 297.383 z "/>
<path style="fill:rgb(61, 56, 255);fill-opacity:1.0;fill-rule:evenodd;stroke:rgb(0, 0, 0);stroke-width:3.0;" d="M 496.519, 173.148 L 511.283, 194.726 L 510.723, 194.822 L 501.895, 191.201 L 477.041, 167.08 z "/>
<path style="fill:rgb(144, 172, 187);fill-opacity:1.0;fill-rule:evenodd;stroke:rgb(0, 0, 0);stroke-width:3.0;" d="M 219.705, 30.1836 L 201.558, 47.5064 L 174.483, 22.3391 L 195.14, 11.6358 z "/>
<path style="fill:rgb(144, 172, 187);fill-opacity:1.0;fill-rule:evenodd;stroke:rgb(0, 0, 0);stroke-width:3.0;" d="M 215.612, 545.476 L 196.949, 572.75 L 150.04, 530.884 L 204.843, 521.104 z "/>
<path style="fill:rgb(144, 172, 187);fill-opacity:1.0;fill-rule:evenodd;stroke:rgb(0, 0, 0);stroke-width:3.0;" d="M 257.124, 323.367 L 149.857, 426.08 L 8.88876, 341.369 L 137.108, 267.07 z "/>
<path style="fill:rgb(252, 12, 123);fill-opacity:1.0;fill-rule:evenodd;stroke:rgb(0, 0, 0);stroke-width:3.0;" d="M 687.658, 213.861 L 688.61, 258.368 L 667.226, 239.911 L 686.134, 210.32 z "/>
<path style="fill:rgb(252, 12, 123);fill-opacity:1.0;fill-rule:evenodd;stroke:rgb(0, 0, 0);stroke-width:3.0;" d="M 548.156, 125.519 L 509.055, 127.951 L 509.615, 121.634 z "/>
<path style="fill:rgb(252, 12, 123);fill-opacity:1.0;fill-rule:evenodd;stroke:rgb(0, 0, 0);stroke-width:3.0;" d="M 314.114, 164.388 L 312.907, 165.009 L 303.594, 145.365 L 326.078, 139.156 z "/>
<path style="fill:rgb(252, 12, 123);fill-opacity:1.0;fill-rule:evenodd;stroke:rgb(0, 0, 0);stroke-width:3.0;" d="M 524.276, 508.33 L 515.928, 494.617 L 520.06, 488.162 L 536.61, 474.513 L 555.517, 464.952 z "/>
<path style="fill:rgb(252, 12, 123);fill-opacity:1.0;fill-rule:evenodd;stroke:rgb(0, 0, 0);stroke-width:3.0;" d="M 284.917, 233.526 L 272.497, 235.654 L 262.312, 191.051 L 269.249, 187.48 z "/>
<path style="fill:rgb(237, 2, 35);fill-opacity:1.0;fill-rule:evenodd;stroke:rgb(0, 0, 0);stroke-width:3.0;" d="M 104.076, 281.491 L 89.1513, 280.471 L 88.0163, 267.275 L 92.9944, 266.421 z "/>
<path style="fill:rgb(237, 243, 43);fill-opacity:1.0;fill-rule:evenodd;stroke:rgb(0, 0, 0);stroke-width:3.0;" d="M 291.134, 541.996 L 250.322, 583.339 L 244.072, 577.447 L 286.441, 541.031 z "/>
<path style="fill:rgb(237, 243, 43);fill-opacity:1.0;fill-rule:evenodd;stroke:rgb(0, 0, 0);stroke-width:3.0;" d="M 189.518, 69.4254 L 86.7706, 76.1237 L 76.0357, 73.2026 L 78.0533, 11.6345 L 105.703, 5.0989 z "/>
<path style="fill:rgb(237, 243, 43);fill-opacity:1.0;fill-rule:evenodd;stroke:rgb(0, 0, 0);stroke-width:3.0;" d="M 33.2152, 103.022 L 21.4693, 80.3808 L 142.313, 72.5028 z "/>
<path style="fill:rgb(27, 0, 255);fill-opacity:1.0;fill-rule:evenodd;stroke:rgb(0, 0, 0);stroke-width:3.0;" d="M 89.1513, 280.471 L 85.2181, 280.202 L 75.1448, 269.481 L 88.0163, 267.275 z "/>
<path style="fill:rgb(27, 0, 255);fill-opacity:1.0;fill-rule:evenodd;stroke:rgb(0, 0, 0);stroke-width:3.0;" d="M 115.942, 262.488 L 80.373, 268.585 L 78.926, 267.342 L 108.425, 247.998 z "/>
<path style="fill:rgb(132, 23, 231);fill-opacity:1.0;fill-rule:evenodd;stroke:rgb(0, 0, 0);stroke-width:3.0;" d="M 571.895, 152.01 L 574.319, 155.925 L 538.48, 177.279 L 541.216, 168.499 L 566.022, 151.777 z "/>
<path style="fill:rgb(132, 23, 231);fill-opacity:1.0;fill-rule:evenodd;stroke:rgb(0, 0, 0);stroke-width:3.0;" d="M 431.567, 60.4652 L 441.761, 75.6498 L 431.517, 78.1394 L 418.514, 61.7748 L 426.28, 56.9964 z "/>
<path style="fill:rgb(132, 23, 231);fill-opacity:1.0;fill-rule:evenodd;stroke:rgb(0, 0, 0);stroke-width:3.0;" d="M 600.654, 141.637 L 593.449, 150.99 L 592.764, 144.261 L 594.106, 112.386 L 594.281, 112.279 z "/>
<path style="fill:rgb(31, 67, 246);fill-opacity:1.0;fill-rule:evenodd;stroke:rgb(0, 0, 0);stroke-width:3.0;" d="M 159.141, 255.084 L 115.942, 262.488 L 71.7955, 177.391 L 106.546, 171.735 z "/>
<path style="fill:rgb(255, 119, 24);fill-opacity:1.0;fill-rule:evenodd;stroke:rgb(0, 0, 0);stroke-width:3.0;" d="M 338.891, 125.146 L 324.878, 139.488 L 296.007, 147.46 L 321.31, 112.886 L 325.289, 112.221 z "/>
<path style="fill:rgb(255, 119, 24);fill-opacity:1.0;fill-rule:evenodd;stroke:rgb(0, 0, 0);stroke-width:3.0;" d="M 776.907, 50.9101 L 766.633, 34.7426 L 765.733, 24.5649 L 786.912, 19.2929 z "/>
<path style="fill:rgb(249, 67, 9);fill-opacity:1.0;fill-rule:evenodd;stroke:rgb(0, 0, 0);stroke-width:3.0;" d="M 520.892, 138.868 L 480.946, 144.975 L 517.21, 130.436 z "/>
<path style="fill:rgb(249, 67, 9);fill-opacity:1.0;fill-rule:evenodd;stroke:rgb(0, 0, 0);stroke-width:3.0;" d="M 580.39, 21.2328 L 583.295, 40.9317 L 567.254, 53.2283 L 566.149, 44.41 L 567.01, 33.5582 L 576.387, 16.5259 z "/>
<path style="fill:rgb(249, 67, 9);fill-opacity:1.0;fill-rule:evenodd;stroke:rgb(0, 0, 0);stroke-width:3.0;" d="M 524.912, 108.274 L 517.915, 122.471 L 509.615, 121.634 L 510.024, 117.025 L 517.549, 105.842 z "/>
<path style="fill:rgb(249, 67, 9);fill-opacity:1.0;fill-rule:evenodd;stroke:rgb(0, 0, 0);stroke-width:3.0;" d="M 469.908, 479.901 L 448.859, 468.549 L 488.34, 462.276 z "/>
<path style="fill:rgb(249, 25, 197);fill-opacity:1.0;fill-rule:evenodd;stroke:rgb(0, 0, 0);stroke-width:3.0;" d="M 170.225, 107.814 L 38.0201, 112.285 L 33.2152, 103.022 L 142.313, 72.5028 L 155.924, 71.6154 z "/>
<path style="fill:rgb(249, 25, 197);fill-opacity:1.0;fill-rule:evenodd;stroke:rgb(0, 0, 0);stroke-width:3.0;" d="M 149.034, 468.456 L 125.623, 470.327 L 123.533, 458.97 L 135.909, 456.081 z "/>
<path style="fill:rgb(249, 25, 197);fill-opacity:1.0;fill-rule:evenodd;stroke:rgb(0, 0, 0);stroke-width:3.0;" d="M 445.143, 187.855 L 450.052, 204.111 L 434.585, 192.432 L 442.095, 182.944 z "/>
<path style="fill:rgb(231, 204, 24);fill-opacity:1.0;fill-rule:evenodd;stroke:rgb(0, 0, 0);stroke-width:3.0;" d="M 228.917, 208.24 L 232.512, 200.274 L 235.711, 198.176 L 263.547, 190.415 z "/>
<path style="fill:rgb(231, 204, 24);fill-opacity:1.0;fill-rule:evenodd;stroke:rgb(0, 0, 0);stroke-width:3.0;" d="M 593.176, 134.477 L 562.933, 133.077 L 561.867, 132.187 L 594.106, 112.386 z "/>
<path style="fill:rgb(255, 243, 13);fill-opacity:1.0;fill-rule:evenodd;stroke:rgb(0, 0, 0);stroke-width:3.0;" d="M 557.8, 151.371 L 556.818, 157.981 L 549.723, 162.764 L 542.169, 159.349 L 545.996, 149.982 z "/>
<path style="fill:rgb(255, 237, 9);fill-opacity:1.0;fill-rule:evenodd;stroke:rgb(0, 0, 0);stroke-width:3.0;" d="M 419.768, 199.465 L 416.51, 210.97 L 396.37, 214.422 L 412.79, 192.881 z "/>
<path style="fill:rgb(69, 2, 252);fill-opacity:1.0;fill-rule:evenodd;stroke:rgb(0, 0, 0);stroke-width:3.0;" d="M 607.002, 104.466 L 588.14, 116.05 L 575.189, 81.9206 L 654.185, 31.8798 z "/>
<path style="fill:rgb(255, 65, 15);fill-opacity:1.0;fill-rule:evenodd;stroke:rgb(0, 0, 0);stroke-width:3.0;" d="M 585.326, 134.114 L 589.968, 155.508 L 589.913, 155.579 L 562.933, 133.077 z "/>
<path style="fill:rgb(255, 24, 197);fill-opacity:1.0;fill-rule:evenodd;stroke:rgb(0, 0, 0);stroke-width:3.0;" d="M 417.372, 179.435 L 393.731, 214.875 L 388.489, 215.773 L 386.235, 163.683 L 396.169, 163.426 z "/>
<path style="fill:rgb(255, 24, 197);fill-opacity:1.0;fill-rule:evenodd;stroke:rgb(0, 0, 0);stroke-width:3.0;" d="M 253.6, 230.039 L 249.245, 239.64 L 211.85, 246.049 L 225.183, 216.51 z "/>
<path style="fill:rgb(255, 252, 21);fill-opacity:1.0;fill-rule:evenodd;stroke:rgb(0, 0, 0);stroke-width:3.0;" d="M 190.104, 158.135 L 71.7955, 177.391 L 38.0201, 112.285 L 170.225, 107.814 z "/>
<path style="fill:rgb(12, 119, 187);fill-opacity:1.0;fill-rule:evenodd;stroke:rgb(0, 0, 0);stroke-width:3.0;" d="M 119.268, 455.371 L 89.2416, 462.974 L 139.146, 436.337 z "/>
<path style="fill:rgb(12, 119, 187);fill-opacity:1.0;fill-rule:evenodd;stroke:rgb(0, 0, 0);stroke-width:3.0;" d="M 65.5035, 506.854 L 47.3647, 524.223 L 42.2998, 514.331 L 62.4756, 497.841 z "/>
<path style="fill:rgb(12, 119, 187);fill-opacity:1.0;fill-rule:evenodd;stroke:rgb(0, 0, 0);stroke-width:3.0;" d="M 610.394, 59.6196 L 533.364, 108.415 L 515.116, 93.1955 L 560.221, 58.6199 L 611.125, 32.8674 z "/>
<path style="fill:rgb(117, 44, 179);fill-opacity:1.0;fill-rule:evenodd;stroke:rgb(0, 0, 0);stroke-width:3.0;" d="M 201.808, 521.646 L 114.697, 537.192 L 106.954, 514.84 L 179.766, 471.869 z "/>
<path style="fill:rgb(255, 165, 26);fill-opacity:1.0;fill-rule:evenodd;stroke:rgb(0, 0, 0);stroke-width:3.0;" d="M 267.317, 212.97 L 272.497, 235.654 L 267.274, 236.55 L 258.44, 232.344 L 243.526, 200.72 L 251.55, 196.59 z "/>
<path style="fill:rgb(12, 85, 255);fill-opacity:1.0;fill-rule:evenodd;stroke:rgb(0, 0, 0);stroke-width:3.0;" d="M 537.225, 159.26 L 539.055, 166.969 L 537.572, 170.599 L 450.604, 158.846 L 445.51, 157.259 z "/>
<path style="fill:rgb(12, 85, 255);fill-opacity:1.0;fill-rule:evenodd;stroke:rgb(0, 0, 0);stroke-width:3.0;" d="M 182.401, 470.314 L 109.801, 513.16 L 111.579, 471.45 L 180.469, 465.944 z "/>
<path style="fill:rgb(255, 85, 9);fill-opacity:1.0;fill-rule:evenodd;stroke:rgb(0, 0, 0);stroke-width:3.0;" d="M 243.965, 174.901 L 234.904, 194.975 L 232.049, 197.339 L 229.628, 184.189 L 239.976, 173.604 z "/>
<path style="fill:rgb(119, 255, 252);fill-opacity:1.0;fill-rule:evenodd;stroke:rgb(0, 0, 0);stroke-width:3.0;" d="M 740.153, 335.893 L 666.601, 324.776 L 643.088, 294.372 L 707.925, 260.975 z "/>
<path style="fill:rgb(119, 255, 252);fill-opacity:1.0;fill-rule:evenodd;stroke:rgb(0, 0, 0);stroke-width:3.0;" d="M 129.086, 269.96 L 113.615, 277.031 L 113.784, 270.974 L 122.998, 261.399 z "/>
<path style="fill:rgb(249, 243, 7);fill-opacity:1.0;fill-rule:evenodd;stroke:rgb(0, 0, 0);stroke-width:3.0;" d="M 132.766, 268.278 L 129.086, 269.96 L 122.998, 261.399 L 123.137, 261.255 L 147.052, 257.156 z "/>
<path style="fill:rgb(255, 20, 97);fill-opacity:1.0;fill-rule:evenodd;stroke:rgb(0, 0, 0);stroke-width:3.0;" d="M 561.517, 327.158 L 643.388, 437.642 L 489.414, 462.106 L 298.461, 283.784 L 365.343, 219.74 L 371.403, 218.702 z "/>
<path style="fill:rgb(255, 20, 97);fill-opacity:1.0;fill-rule:evenodd;stroke:rgb(0, 0, 0);stroke-width:3.0;" d="M 163.744, 428.092 L 151.694, 457.391 L 144.2, 448.066 L 158.605, 417.704 L 158.99, 417.335 z "/>
<path style="fill:rgb(255, 20, 97);fill-opacity:1.0;fill-rule:evenodd;stroke:rgb(0, 0, 0);stroke-width:3.0;" d="M 628.943, 365.623 L 670.477, 433.338 L 643.388, 437.642 L 561.517, 327.158 z "/>
<path style="fill:rgb(255, 20, 97);fill-opacity:1.0;fill-rule:evenodd;stroke:rgb(0, 0, 0);stroke-width:3.0;" d="M 413.906, 40.0154 L 421.293, 43.8263 L 415.227, 60.4162 L 401.537, 47.4903 L 401.113, 43.3768 L 402.774, 39.931 z "/>
<path style="fill:rgb(255, 20, 97);fill-opacity:1.0;fill-rule:evenodd;stroke:rgb(0, 0, 0);stroke-width:3.0;" d="M 53.5282, 281.431 L 61.266, 311.018 L 58.044, 312.885 L 43.2651, 277.474 z "/>
<path style="fill:rgb(249, 42, 13);fill-opacity:1.0;fill-rule:evenodd;stroke:rgb(0, 0, 0);stroke-width:3.0;" d="M 501.99, 497.203 L 502.149, 498.955 L 499.182, 501.983 L 438.008, 470.273 L 448.859, 468.549 z "/>
<path style="fill:rgb(249, 42, 13);fill-opacity:1.0;fill-rule:evenodd;stroke:rgb(0, 0, 0);stroke-width:3.0;" d="M 442.095, 182.944 L 442.022, 183.037 L 428.675, 185.041 L 423.182, 174.875 L 423.476, 171.792 L 431.972, 166.63 z "/>
<path style="fill:rgb(249, 42, 13);fill-opacity:1.0;fill-rule:evenodd;stroke:rgb(0, 0, 0);stroke-width:3.0;" d="M 26.1669, 271.208 L 23.6104, 278.314 L 8.20686, 280.954 L 14.4514, 270.685 z "/>
<path style="fill:rgb(25, 33, 255);fill-opacity:1.0;fill-rule:evenodd;stroke:rgb(0, 0, 0);stroke-width:3.0;" d="M 741.794, 422.006 L 730.831, 423.748 L 598.129, 348.044 L 637.249, 286.822 z "/>
<path style="fill:rgb(25, 33, 255);fill-opacity:1.0;fill-rule:evenodd;stroke:rgb(0, 0, 0);stroke-width:3.0;" d="M 363.665, 138.883 L 356.973, 142.327 L 344.35, 130.333 L 347.725, 126.848 z "/>
<path style="fill:rgb(25, 33, 255);fill-opacity:1.0;fill-rule:evenodd;stroke:rgb(0, 0, 0);stroke-width:3.0;" d="M 66.985, 257.085 L 24.3102, 263.561 L 20.0106, 256.551 L 54.3024, 246.192 z "/>
<path style="fill:rgb(6, 40, 243);fill-opacity:1.0;fill-rule:evenodd;stroke:rgb(0, 0, 0);stroke-width:3.0;" d="M 520.749, 168.326 L 518.834, 171.736 L 490.926, 171.406 L 490.589, 171.301 L 497.66, 165.205 z "/>
<path style="fill:rgb(6, 40, 243);fill-opacity:1.0;fill-rule:evenodd;stroke:rgb(0, 0, 0);stroke-width:3.0;" d="M 512.445, 488.896 L 512.53, 502.888 L 504.739, 498.686 L 507.945, 481.505 z "/>
<path style="fill:rgb(6, 40, 243);fill-opacity:1.0;fill-rule:evenodd;stroke:rgb(0, 0, 0);stroke-width:3.0;" d="M 744.465, 25.5785 L 745.313, 27.1511 L 743.841, 35.229 L 735.514, 48.2194 L 724.574, 42.0493 L 740.135, 24.7236 z "/>
<path style="fill:rgb(6, 40, 243);fill-opacity:1.0;fill-rule:evenodd;stroke:rgb(0, 0, 0);stroke-width:3.0;" d="M 498.546, 477.639 L 503.44, 497.985 L 492.356, 492.007 L 491.773, 474.857 z "/>
<path style="fill:rgb(6, 40, 243);fill-opacity:1.0;fill-rule:evenodd;stroke:rgb(0, 0, 0);stroke-width:3.0;" d="M 221.539, 53.8498 L 216.428, 61.3287 L 201.558, 47.5064 L 209.052, 40.353 z "/>
<path style="fill:rgb(6, 40, 243);fill-opacity:1.0;fill-rule:evenodd;stroke:rgb(0, 0, 0);stroke-width:3.0;" d="M 76.0034, 290.095 L 82.3648, 298.792 L 77.9533, 301.348 L 53.8232, 282.559 L 53.5282, 281.431 z "/>
<path style="fill:rgb(6, 40, 243);fill-opacity:1.0;fill-rule:evenodd;stroke:rgb(0, 0, 0);stroke-width:3.0;" d="M 388.466, 215.241 L 333.965, 218.878 L 337.289, 194.409 L 370.952, 164.078 L 386.235, 163.683 z "/>
<path style="fill:rgb(6, 40, 243);fill-opacity:1.0;fill-rule:evenodd;stroke:rgb(0, 0, 0);stroke-width:3.0;" d="M 311.199, 267.815 L 309.937, 268.193 L 328.328, 226.085 L 332.751, 225.327 z "/>
<path style="fill:rgb(187, 1, 11);fill-opacity:1.0;fill-rule:evenodd;stroke:rgb(0, 0, 0);stroke-width:3.0;" d="M 306.483, 276.102 L 257.124, 323.367 L 204.222, 298.551 L 207.147, 246.856 L 328.328, 226.085 z "/>
<path style="fill:rgb(255, 223, 24);fill-opacity:1.0;fill-rule:evenodd;stroke:rgb(0, 0, 0);stroke-width:3.0;" d="M 204.222, 298.551 L 137.108, 267.07 L 157.227, 255.412 L 207.147, 246.856 z "/>
<path style="fill:rgb(252, 0, 48);fill-opacity:1.0;fill-rule:evenodd;stroke:rgb(0, 0, 0);stroke-width:3.0;" d="M 680.28, 38.2796 L 654.967, 71.137 L 651.276, 45.9524 L 680.056, 38.202 z "/>
<path style="fill:rgb(252, 0, 48);fill-opacity:1.0;fill-rule:evenodd;stroke:rgb(0, 0, 0);stroke-width:3.0;" d="M 198.277, 159.962 L 129.775, 181.489 L 153.314, 164.123 L 196.95, 157.021 z "/>
<path style="fill:rgb(255, 119, 9);fill-opacity:1.0;fill-rule:evenodd;stroke:rgb(0, 0, 0);stroke-width:3.0;" d="M 129.775, 181.489 L 125.501, 182.832 L 120.851, 178.873 L 134.173, 167.238 L 153.314, 164.123 z "/>
<path style="fill:rgb(237, 255, 48);fill-opacity:1.0;fill-rule:evenodd;stroke:rgb(0, 0, 0);stroke-width:3.0;" d="M 776.907, 50.9101 L 772.068, 66.2029 L 769.353, 65.5123 L 766.633, 34.7426 z "/>
<path style="fill:rgb(255, 35, 9);fill-opacity:1.0;fill-rule:evenodd;stroke:rgb(0, 0, 0);stroke-width:3.0;" d="M 169.35, 86.728 L 166.83, 99.2204 L 155.924, 71.6154 L 156.482, 71.5791 z "/>
<path style="fill:rgb(240, 249, 10);fill-opacity:1.0;fill-rule:evenodd;stroke:rgb(0, 0, 0);stroke-width:3.0;" d="M 85.8752, 204.531 L 108.425, 247.998 L 78.926, 267.342 L 71.3222, 260.811 L 58.9353, 198.247 L 61.0287, 196.589 z "/>
<path style="fill:rgb(240, 249, 10);fill-opacity:1.0;fill-rule:evenodd;stroke:rgb(0, 0, 0);stroke-width:3.0;" d="M 611.333, 25.2467 L 611.125, 32.8674 L 597.029, 39.9983 L 575.736, 46.7263 L 606.186, 23.3847 z "/>
<path style="fill:rgb(240, 249, 10);fill-opacity:1.0;fill-rule:evenodd;stroke:rgb(0, 0, 0);stroke-width:3.0;" d="M 274.867, 106.442 L 273.1, 110.355 L 254.958, 118.873 L 253.117, 118.935 L 268.065, 103.193 z "/>
<path style="fill:rgb(10, 71, 255);fill-opacity:1.0;fill-rule:evenodd;stroke:rgb(0, 0, 0);stroke-width:3.0;" d="M 54.3024, 246.192 L 20.0106, 256.551 L 13.3317, 245.662 L 31.3872, 226.509 z "/>
<path style="fill:rgb(72, 255, 252);fill-opacity:1.0;fill-rule:evenodd;stroke:rgb(0, 0, 0);stroke-width:3.0;" d="M 57.9625, 431.681 L 23.1094, 476.85 L 19.27, 469.351 L 32.6602, 437.428 L 54.934, 413.324 z "/>
<path style="fill:rgb(44, 0, 179);fill-opacity:1.0;fill-rule:evenodd;stroke:rgb(0, 0, 0);stroke-width:3.0;" d="M 65.1038, 495.693 L 62.5184, 497.806 L 46.3378, 504.622 L 54.4635, 490.781 z "/>
<path style="fill:rgb(44, 0, 179);fill-opacity:1.0;fill-rule:evenodd;stroke:rgb(0, 0, 0);stroke-width:3.0;" d="M 394.816, 447.884 L 256.113, 567.097 L 320.322, 409.269 z "/>
<path style="fill:rgb(255, 3, 19);fill-opacity:1.0;fill-rule:evenodd;stroke:rgb(0, 0, 0);stroke-width:3.0;" d="M 320.322, 409.269 L 256.113, 567.097 L 244.072, 577.447 L 219.504, 554.284 L 158.99, 417.335 L 221.117, 357.845 z "/>
<path style="fill:rgb(255, 249, 50);fill-opacity:1.0;fill-rule:evenodd;stroke:rgb(0, 0, 0);stroke-width:3.0;" d="M 54.4635, 490.781 L 41.5257, 512.819 L 23.1094, 476.85 L 23.4182, 476.449 z "/>
<path style="fill:rgb(91, 150, 189);fill-opacity:1.0;fill-rule:evenodd;stroke:rgb(0, 0, 0);stroke-width:3.0;" d="M 514.907, 178.875 L 515.451, 194.012 L 511.283, 194.726 L 505.611, 186.436 L 508.2, 176.786 z "/>
<path style="fill:rgb(168, 56, 17);fill-opacity:1.0;fill-rule:evenodd;stroke:rgb(0, 0, 0);stroke-width:3.0;" d="M 292.618, 137.519 L 295.187, 144.216 L 259.853, 163.888 L 284.744, 139.123 L 291.619, 136.757 z "/>
<path style="fill:rgb(168, 56, 17);fill-opacity:1.0;fill-rule:evenodd;stroke:rgb(0, 0, 0);stroke-width:3.0;" d="M 96.2361, 443.823 L 93.6572, 460.617 L 65.2387, 475.786 L 58.0401, 432.151 z "/>
<path style="fill:rgb(168, 56, 17);fill-opacity:1.0;fill-rule:evenodd;stroke:rgb(0, 0, 0);stroke-width:3.0;" d="M 65.9612, 271.055 L 32.4319, 276.802 L 31.7515, 275.692 L 42.0414, 260.87 L 65.1854, 257.358 z "/>
<path style="fill:rgb(240, 26, 49);fill-opacity:1.0;fill-rule:evenodd;stroke:rgb(0, 0, 0);stroke-width:3.0;" d="M 31.7515, 275.692 L 24.3102, 263.561 L 42.0414, 260.87 z "/>
<path style="fill:rgb(252, 234, 16);fill-opacity:1.0;fill-rule:evenodd;stroke:rgb(0, 0, 0);stroke-width:3.0;" d="M 535.975, 153.997 L 537.225, 159.26 L 445.51, 157.259 L 432.417, 153.181 L 433.176, 152.277 L 515.739, 139.656 z "/>
<path style="fill:rgb(12, 5, 255);fill-opacity:1.0;fill-rule:evenodd;stroke:rgb(0, 0, 0);stroke-width:3.0;" d="M 250.052, 122.162 L 220.607, 153.17 L 190.104, 158.135 L 166.83, 99.2204 L 172.618, 70.5271 L 241.101, 66.0626 z "/>
<path style="fill:rgb(12, 5, 255);fill-opacity:1.0;fill-rule:evenodd;stroke:rgb(0, 0, 0);stroke-width:3.0;" d="M 368.486, 164.424 L 367.571, 167.124 L 326.46, 204.166 L 332.302, 189.091 L 361.256, 144.682 z "/>
<path style="fill:rgb(12, 5, 255);fill-opacity:1.0;fill-rule:evenodd;stroke:rgb(0, 0, 0);stroke-width:3.0;" d="M 51.795, 297.912 L 58.044, 312.885 L 30.5758, 328.802 L 13.1572, 297.383 L 24.4723, 279.072 z "/>
<path style="fill:rgb(12, 5, 255);fill-opacity:1.0;fill-rule:evenodd;stroke:rgb(0, 0, 0);stroke-width:3.0;" d="M 183.22, 250.957 L 159.141, 255.084 L 115.527, 185.967 L 191.964, 161.946 z "/>
<path style="fill:rgb(255, 0, 212);fill-opacity:1.0;fill-rule:evenodd;stroke:rgb(0, 0, 0);stroke-width:3.0;" d="M 313.427, 100.951 L 313.935, 101.433 L 292.638, 103.526 L 286.517, 80.6319 L 286.517, 80.6315 z "/>
<path style="fill:rgb(255, 0, 212);fill-opacity:1.0;fill-rule:evenodd;stroke:rgb(0, 0, 0);stroke-width:3.0;" d="M 149.857, 426.08 L 139.146, 436.337 L 93.6572, 460.617 L 103.261, 398.079 z "/>
<path style="fill:rgb(255, 0, 212);fill-opacity:1.0;fill-rule:evenodd;stroke:rgb(0, 0, 0);stroke-width:3.0;" d="M 439.114, 415.133 L 362.16, 430.956 L 221.117, 357.845 L 298.461, 283.784 z "/>
<path style="fill:rgb(255, 0, 212);fill-opacity:1.0;fill-rule:evenodd;stroke:rgb(0, 0, 0);stroke-width:3.0;" d="M 555.517, 464.952 L 524.715, 480.528 L 538.152, 454.362 L 566.373, 449.878 z "/>
<path style="fill:rgb(255, 0, 212);fill-opacity:1.0;fill-rule:evenodd;stroke:rgb(0, 0, 0);stroke-width:3.0;" d="M 159.457, 467.049 L 139.981, 456.958 L 144.2, 448.066 z "/>
<path style="fill:rgb(30, 95, 255);fill-opacity:1.0;fill-rule:evenodd;stroke:rgb(0, 0, 0);stroke-width:3.0;" d="M 489.414, 462.106 L 438.008, 470.273 L 362.16, 430.956 L 439.114, 415.133 z "/>
<path style="fill:rgb(30, 95, 255);fill-opacity:1.0;fill-rule:evenodd;stroke:rgb(0, 0, 0);stroke-width:3.0;" d="M 113.79, 270.754 L 112.572, 272.704 L 107.955, 274.929 L 93.7982, 267.514 L 92.9944, 266.421 L 114.012, 262.819 z "/>
<path style="fill:rgb(223, 0, 38);fill-opacity:1.0;fill-rule:evenodd;stroke:rgb(0, 0, 0);stroke-width:3.0;" d="M 68.8049, 497.402 L 29.3907, 479.207 L 59.2006, 439.186 z "/>
<path style="fill:rgb(223, 0, 38);fill-opacity:1.0;fill-rule:evenodd;stroke:rgb(0, 0, 0);stroke-width:3.0;" d="M 707.925, 260.975 L 688.876, 270.787 L 687.658, 213.861 z "/>
<path style="fill:rgb(223, 0, 38);fill-opacity:1.0;fill-rule:evenodd;stroke:rgb(0, 0, 0);stroke-width:3.0;" d="M 578.522, 90.7038 L 552.916, 124.722 L 544.362, 117.587 L 556.625, 93.6797 L 575.189, 81.9206 z "/>
<path style="fill:rgb(223, 0, 38);fill-opacity:1.0;fill-rule:evenodd;stroke:rgb(0, 0, 0);stroke-width:3.0;" d="M 607.259, 333.757 L 598.129, 348.044 L 371.403, 218.702 L 675.959, 166.501 z "/>
<path style="fill:rgb(223, 0, 38);fill-opacity:1.0;fill-rule:evenodd;stroke:rgb(0, 0, 0);stroke-width:3.0;" d="M 588.14, 116.05 L 561.867, 132.187 L 552.916, 124.722 L 578.522, 90.7038 z "/>
<path style="fill:rgb(18, 62, 255);fill-opacity:1.0;fill-rule:evenodd;stroke:rgb(0, 0, 0);stroke-width:3.0;" d="M 688.61, 258.368 L 688.781, 266.349 L 676.227, 267.44 L 664.005, 244.951 L 667.226, 239.911 z "/>
<path style="fill:rgb(18, 62, 255);fill-opacity:1.0;fill-rule:evenodd;stroke:rgb(0, 0, 0);stroke-width:3.0;" d="M 782.237, 10.738 L 782.473, 16.9228 L 765.238, 18.9691 L 764.333, 8.73927 z "/>
<path style="fill:rgb(18, 62, 255);fill-opacity:1.0;fill-rule:evenodd;stroke:rgb(0, 0, 0);stroke-width:3.0;" d="M 326.46, 204.166 L 295.978, 231.63 L 284.917, 233.526 L 283.968, 230.737 L 346.842, 147.542 L 348.796, 146.536 z "/>
<path style="fill:rgb(255, 64, 231);fill-opacity:1.0;fill-rule:evenodd;stroke:rgb(0, 0, 0);stroke-width:3.0;" d="M 437.709, 49.3559 L 423.265, 48.7998 L 431.226, 34.7032 z "/>
<path style="fill:rgb(255, 74, 8);fill-opacity:1.0;fill-rule:evenodd;stroke:rgb(0, 0, 0);stroke-width:3.0;" d="M 255.034, 192.789 L 233.135, 198.895 L 240.037, 183.603 L 259.853, 163.888 L 268.814, 158.899 z "/>
<path style="fill:rgb(14, 223, 255);fill-opacity:1.0;fill-rule:evenodd;stroke:rgb(0, 0, 0);stroke-width:3.0;" d="M 530.602, 183.764 L 532.436, 191.1 L 522.272, 192.843 L 518.161, 184.385 L 519.39, 180.272 z "/>
<path style="fill:rgb(37, 40, 255);fill-opacity:1.0;fill-rule:evenodd;stroke:rgb(0, 0, 0);stroke-width:3.0;" d="M 307.956, 131.133 L 284.744, 139.123 L 305.196, 118.775 L 318.379, 116.891 z "/>
<path style="fill:rgb(59, 154, 255);fill-opacity:1.0;fill-rule:evenodd;stroke:rgb(0, 0, 0);stroke-width:3.0;" d="M 248.085, 51.6129 L 237.677, 66.2859 L 236.335, 66.3733 L 224.971, 60.6723 L 233.273, 40.4282 z "/>
<path style="fill:rgb(59, 154, 255);fill-opacity:1.0;fill-rule:evenodd;stroke:rgb(0, 0, 0);stroke-width:3.0;" d="M 548.207, 67.7124 L 548.095, 67.9148 L 518.983, 90.2312 L 517.645, 51.6661 L 523.602, 44.5699 L 562.317, 10.7701 z "/>
<path style="fill:rgb(207, 142, 240);fill-opacity:1.0;fill-rule:evenodd;stroke:rgb(0, 0, 0);stroke-width:3.0;" d="M 293.395, 171.021 L 277.831, 183.063 L 265.188, 189.57 L 284.459, 163.239 z "/>
<path style="fill:rgb(255, 12, 44);fill-opacity:1.0;fill-rule:evenodd;stroke:rgb(0, 0, 0);stroke-width:3.0;" d="M 632.475, 100.332 L 616.256, 121.384 L 600.466, 130.414 L 596.758, 113.769 L 601.112, 108.083 L 615.609, 99.1793 z "/>
<path style="fill:rgb(255, 12, 44);fill-opacity:1.0;fill-rule:evenodd;stroke:rgb(0, 0, 0);stroke-width:3.0;" d="M 533.803, 111.21 L 528.782, 123.566 L 517.915, 122.471 L 524.912, 108.274 z "/>
<path style="fill:rgb(255, 12, 44);fill-opacity:1.0;fill-rule:evenodd;stroke:rgb(0, 0, 0);stroke-width:3.0;" d="M 86.7706, 76.1237 L 21.4693, 80.3808 L 8.1645, 54.7341 z "/>
<path style="fill:rgb(255, 249, 14);fill-opacity:1.0;fill-rule:evenodd;stroke:rgb(0, 0, 0);stroke-width:3.0;" d="M 44.3556, 459.116 L 29.3907, 479.207 L 23.4182, 476.449 L 55.933, 434.311 z "/>
<path style="fill:rgb(255, 22, 14);fill-opacity:1.0;fill-rule:evenodd;stroke:rgb(0, 0, 0);stroke-width:3.0;" d="M 211.678, 189.66 L 209.564, 184.973 L 220.497, 153.188 L 227.353, 152.072 z "/>
<path style="fill:rgb(255, 94, 19);fill-opacity:1.0;fill-rule:evenodd;stroke:rgb(0, 0, 0);stroke-width:3.0;" d="M 726.714, 39.6667 L 724.574, 42.0493 L 694.906, 25.3163 L 698.801, 24.0727 z "/>
<path style="fill:rgb(255, 148, 159);fill-opacity:1.0;fill-rule:evenodd;stroke:rgb(0, 0, 0);stroke-width:3.0;" d="M 193.215, 69.1844 L 189.518, 69.4254 L 146.833, 36.6653 L 149.7, 35.1794 z "/>
<path style="fill:rgb(255, 108, 16);fill-opacity:1.0;fill-rule:evenodd;stroke:rgb(0, 0, 0);stroke-width:3.0;" d="M 488.629, 473.861 L 480.233, 479.008 L 479.558, 470.674 L 488.34, 462.276 L 492.084, 461.681 z "/>
<path style="fill:rgb(255, 108, 16);fill-opacity:1.0;fill-rule:evenodd;stroke:rgb(0, 0, 0);stroke-width:3.0;" d="M 311.185, 165.895 L 299.029, 172.152 L 300.767, 151.609 z "/>
<path style="fill:rgb(255, 108, 16);fill-opacity:1.0;fill-rule:evenodd;stroke:rgb(0, 0, 0);stroke-width:3.0;" d="M 292.638, 103.526 L 282.6, 104.512 L 279.788, 95.5387 L 286.517, 80.6319 z "/>
<path style="fill:rgb(255, 5, 37);fill-opacity:1.0;fill-rule:evenodd;stroke:rgb(0, 0, 0);stroke-width:3.0;" d="M 211.099, 188.376 L 222.135, 223.263 L 211.85, 246.049 L 199.712, 248.13 L 187.553, 206.852 L 191.964, 161.946 L 198.277, 159.962 z "/>
<path style="fill:rgb(255, 5, 37);fill-opacity:1.0;fill-rule:evenodd;stroke:rgb(0, 0, 0);stroke-width:3.0;" d="M 518.983, 90.2312 L 518.387, 90.6882 L 513.619, 91.9465 L 496.096, 77.3322 L 517.645, 51.6661 z "/>
<path style="fill:rgb(255, 5, 37);fill-opacity:1.0;fill-rule:evenodd;stroke:rgb(0, 0, 0);stroke-width:3.0;" d="M 589.994, 181.235 L 546.446, 188.699 L 535.94, 185.427 L 538.48, 177.279 L 574.319, 155.925 z "/>
<path style="fill:rgb(252, 226, 75);fill-opacity:1.0;fill-rule:evenodd;stroke:rgb(0, 0, 0);stroke-width:3.0;" d="M 356.973, 142.327 L 314.114, 164.388 L 326.078, 139.156 L 347.431, 133.26 z "/>
<path style="fill:rgb(252, 226, 75);fill-opacity:1.0;fill-rule:evenodd;stroke:rgb(0, 0, 0);stroke-width:3.0;" d="M 326.87, 173.968 L 285.502, 228.707 L 281.967, 224.857 L 269.249, 187.48 L 315.184, 163.837 z "/>
<path style="fill:rgb(252, 226, 75);fill-opacity:1.0;fill-rule:evenodd;stroke:rgb(0, 0, 0);stroke-width:3.0;" d="M 511.553, 99.7785 L 510.559, 110.983 L 491.362, 129.051 L 467.307, 130.547 L 458.844, 126.073 L 506.939, 99.1809 z "/>
<path style="fill:rgb(252, 226, 75);fill-opacity:1.0;fill-rule:evenodd;stroke:rgb(0, 0, 0);stroke-width:3.0;" d="M 163.916, 13.4012 L 137.262, 23.5797 L 139.671, 17.1841 L 142.512, 15.1552 L 158.797, 8.18553 z "/>
<path style="fill:rgb(237, 5, 136);fill-opacity:1.0;fill-rule:evenodd;stroke:rgb(0, 0, 0);stroke-width:3.0;" d="M 730.831, 423.748 L 670.477, 433.338 L 628.943, 365.623 z "/>
<path style="fill:rgb(255, 172, 14);fill-opacity:1.0;fill-rule:evenodd;stroke:rgb(0, 0, 0);stroke-width:3.0;" d="M 158.459, 575.03 L 135.22, 572.462 L 133.653, 555.812 z "/>
<path style="fill:rgb(255, 172, 14);fill-opacity:1.0;fill-rule:evenodd;stroke:rgb(0, 0, 0);stroke-width:3.0;" d="M 180.469, 465.944 L 169.649, 466.809 L 153.568, 452.833 L 163.744, 428.092 z "/>
<path style="fill:rgb(152, 132, 217);fill-opacity:1.0;fill-rule:evenodd;stroke:rgb(0, 0, 0);stroke-width:3.0;" d="M 326.87, 173.968 L 315.184, 163.837 L 346.842, 147.542 z "/>
<path style="fill:rgb(152, 132, 217);fill-opacity:1.0;fill-rule:evenodd;stroke:rgb(0, 0, 0);stroke-width:3.0;" d="M 477.041, 167.08 L 484.09, 173.922 L 484.886, 176.011 L 459.566, 168.498 L 437.983, 158.993 L 434.11, 153.708 z "/>
<path style="fill:rgb(255, 20, 255);fill-opacity:1.0;fill-rule:evenodd;stroke:rgb(0, 0, 0);stroke-width:3.0;" d="M 544.362, 117.587 L 533.364, 108.415 L 556.625, 93.6797 z "/>
<path style="fill:rgb(157, 146, 255);fill-opacity:1.0;fill-rule:evenodd;stroke:rgb(0, 0, 0);stroke-width:3.0;" d="M 654.967, 71.137 L 649.31, 78.4802 L 607.002, 104.466 L 650.128, 38.1204 z "/>
<path style="fill:rgb(157, 146, 255);fill-opacity:1.0;fill-rule:evenodd;stroke:rgb(0, 0, 0);stroke-width:3.0;" d="M 680.414, 275.145 L 643.088, 294.372 L 637.249, 286.822 L 664.005, 244.951 z "/>
<path style="fill:rgb(26, 184, 246);fill-opacity:1.0;fill-rule:evenodd;stroke:rgb(0, 0, 0);stroke-width:3.0;" d="M 265.188, 189.57 L 263.842, 190.263 L 257.259, 187.316 L 268.814, 158.899 L 300.577, 141.215 z "/>
<path style="fill:rgb(220, 187, 10);fill-opacity:1.0;fill-rule:evenodd;stroke:rgb(0, 0, 0);stroke-width:3.0;" d="M 199.712, 248.13 L 183.22, 250.957 L 187.553, 206.852 z "/>
<path style="fill:rgb(6, 5, 204);fill-opacity:1.0;fill-rule:evenodd;stroke:rgb(0, 0, 0);stroke-width:3.0;" d="M 242.531, 161.536 L 226.071, 181.244 L 229.856, 162.207 L 237.621, 150.401 L 239.445, 150.104 z "/>
<path style="fill:rgb(6, 5, 204);fill-opacity:1.0;fill-rule:evenodd;stroke:rgb(0, 0, 0);stroke-width:3.0;" d="M 680.056, 38.202 L 651.276, 45.9524 L 650.128, 38.1204 L 655.581, 29.7311 z "/>
<path style="fill:rgb(6, 5, 204);fill-opacity:1.0;fill-rule:evenodd;stroke:rgb(0, 0, 0);stroke-width:3.0;" d="M 71.3222, 260.811 L 37.0608, 231.382 L 60.3791, 205.54 z "/>
<path style="fill:rgb(50, 105, 246);fill-opacity:1.0;fill-rule:evenodd;stroke:rgb(0, 0, 0);stroke-width:3.0;" d="M 60.3791, 205.54 L 37.0608, 231.382 L 27.4901, 223.162 L 58.9353, 198.247 z "/>
<path style="fill:rgb(83, 30, 152);fill-opacity:1.0;fill-rule:evenodd;stroke:rgb(0, 0, 0);stroke-width:3.0;" d="M 286.517, 80.6315 L 283.825, 86.596 L 250.052, 122.162 L 241.101, 66.0626 L 265.146, 64.4951 z "/>
<path style="fill:rgb(255, 255, 61);fill-opacity:1.0;fill-rule:evenodd;stroke:rgb(0, 0, 0);stroke-width:3.0;" d="M 82.1008, 276.884 L 85.2181, 280.202 L 57.5319, 278.309 L 57.8605, 272.443 L 60.2698, 272.03 z "/>
<path style="fill:rgb(240, 249, 16);fill-opacity:1.0;fill-rule:evenodd;stroke:rgb(0, 0, 0);stroke-width:3.0;" d="M 239.979, 211.646 L 252.549, 224.744 L 247.169, 226.977 L 225.183, 216.51 L 228.917, 208.24 L 230.627, 207.359 z "/>
<path style="fill:rgb(255, 114, 29);fill-opacity:1.0;fill-rule:evenodd;stroke:rgb(0, 0, 0);stroke-width:3.0;" d="M 426.189, 23.3206 L 427.613, 26.5398 L 421.293, 43.8263 L 398.847, 32.2459 L 405.8, 10.7284 L 411.277, 10.5474 z "/>
<path style="fill:rgb(255, 85, 255);fill-opacity:1.0;fill-rule:evenodd;stroke:rgb(0, 0, 0);stroke-width:3.0;" d="M 538.625, 112.803 L 553.475, 125.188 L 548.156, 125.519 L 528.782, 123.566 L 533.803, 111.21 z "/>
<path style="fill:rgb(243, 48, 20);fill-opacity:1.0;fill-rule:evenodd;stroke:rgb(0, 0, 0);stroke-width:3.0;" d="M 312.552, 539.451 L 293.755, 539.341 L 310.992, 521.88 z "/>
<path style="fill:rgb(237, 255, 18);fill-opacity:1.0;fill-rule:evenodd;stroke:rgb(0, 0, 0);stroke-width:3.0;" d="M 459.101, 97.6975 L 450.058, 101.475 L 446.093, 99.5082 L 438.862, 91.2364 L 442.507, 88.0239 L 454.636, 87.6069 z "/>
<path style="fill:rgb(10, 144, 255);fill-opacity:1.0;fill-rule:evenodd;stroke:rgb(0, 0, 0);stroke-width:3.0;" d="M 104.076, 281.491 L 106.292, 284.506 L 83.7133, 289.508 L 83.3874, 289.25 L 89.7985, 280.515 z "/>
<path style="fill:rgb(46, 2, 217);fill-opacity:1.0;fill-rule:evenodd;stroke:rgb(0, 0, 0);stroke-width:3.0;" d="M 92.9739, 480.549 L 68.5419, 474.022 L 87.807, 463.739 L 114.122, 460.299 z "/>
<path style="fill:rgb(46, 2, 217);fill-opacity:1.0;fill-rule:evenodd;stroke:rgb(0, 0, 0);stroke-width:3.0;" d="M 461.562, 190.566 L 467.997, 202.145 L 463.122, 202.981 L 458.898, 201.499 L 451.958, 190.969 L 459.171, 189.632 z "/>
<path style="fill:rgb(74, 255, 255);fill-opacity:1.0;fill-rule:evenodd;stroke:rgb(0, 0, 0);stroke-width:3.0;" d="M 299.928, 161.531 L 299.029, 172.152 L 296.304, 173.555 L 284.459, 163.239 L 291.051, 154.232 z "/>
<path style="fill:rgb(255, 27, 6);fill-opacity:1.0;fill-rule:evenodd;stroke:rgb(0, 0, 0);stroke-width:3.0;" d="M 192.63, 39.2081 L 216.428, 61.3287 L 211.891, 67.9669 L 193.215, 69.1844 L 149.7, 35.1794 L 167.205, 26.1097 z "/>
<path style="fill:rgb(255, 255, 57);fill-opacity:1.0;fill-rule:evenodd;stroke:rgb(0, 0, 0);stroke-width:3.0;" d="M 226.071, 181.244 L 216.154, 193.119 L 225.455, 156.624 L 227.353, 152.072 L 232.022, 151.313 z "/>
<path style="fill:rgb(255, 231, 7);fill-opacity:1.0;fill-rule:evenodd;stroke:rgb(0, 0, 0);stroke-width:3.0;" d="M 77.9533, 301.348 L 61.266, 311.018 L 53.8232, 282.559 z "/>
<path style="fill:rgb(249, 255, 7);fill-opacity:1.0;fill-rule:evenodd;stroke:rgb(0, 0, 0);stroke-width:3.0;" d="M 265.086, 203.198 L 267.317, 212.97 L 251.55, 196.59 L 258.093, 193.222 z "/>
<path style="fill:rgb(249, 255, 7);fill-opacity:1.0;fill-rule:evenodd;stroke:rgb(0, 0, 0);stroke-width:3.0;" d="M 110.577, 494.975 L 109.801, 513.16 L 106.954, 514.84 L 95.1024, 480.631 L 110.075, 471.627 z "/>
<path style="fill:rgb(172, 0, 37);fill-opacity:1.0;fill-rule:evenodd;stroke:rgb(0, 0, 0);stroke-width:3.0;" d="M 364.585, 139.578 L 332.302, 189.091 L 348.796, 146.536 L 363.665, 138.883 z "/>
<path style="fill:rgb(228, 25, 114);fill-opacity:1.0;fill-rule:evenodd;stroke:rgb(0, 0, 0);stroke-width:3.0;" d="M 524.715, 480.528 L 511.438, 487.242 L 495.542, 461.132 L 538.152, 454.362 z "/>
<path style="fill:rgb(228, 25, 114);fill-opacity:1.0;fill-rule:evenodd;stroke:rgb(0, 0, 0);stroke-width:3.0;" d="M 678.373, 222.465 L 607.259, 333.757 L 674.395, 170.309 z "/>
<path style="fill:rgb(184, 255, 6);fill-opacity:1.0;fill-rule:evenodd;stroke:rgb(0, 0, 0);stroke-width:3.0;" d="M 263.639, 130.391 L 253.685, 135.164 L 249.644, 122.592 L 250.325, 121.875 L 265.419, 119.411 z "/>
<path style="fill:rgb(20, 192, 161);fill-opacity:1.0;fill-rule:evenodd;stroke:rgb(0, 0, 0);stroke-width:3.0;" d="M 374.397, 146.986 L 368.486, 164.424 L 361.256, 144.682 L 364.585, 139.578 z "/>
<path style="fill:rgb(134, 142, 255);fill-opacity:1.0;fill-rule:evenodd;stroke:rgb(0, 0, 0);stroke-width:3.0;" d="M 398.847, 32.2459 L 377.803, 21.3886 L 377.435, 20.9681 L 386.484, 11.3668 L 405.8, 10.7284 z "/>
<path style="fill:rgb(255, 231, 15);fill-opacity:1.0;fill-rule:evenodd;stroke:rgb(0, 0, 0);stroke-width:3.0;" d="M 492.553, 81.5528 L 465.969, 113.218 L 446.218, 68.5847 L 450.709, 14.9877 z "/>
<path style="fill:rgb(243, 2, 9);fill-opacity:1.0;fill-rule:evenodd;stroke:rgb(0, 0, 0);stroke-width:3.0;" d="M 231.583, 39.1525 L 221.539, 53.8498 L 209.052, 40.353 L 219.705, 30.1836 z "/>
<path style="fill:rgb(102, 61, 255);fill-opacity:1.0;fill-rule:evenodd;stroke:rgb(0, 0, 0);stroke-width:3.0;" d="M 333.755, 242.679 L 322.04, 251.4 L 325.358, 239.901 L 332.751, 225.327 L 334.002, 225.112 z "/>
<path style="fill:rgb(255, 146, 45);fill-opacity:1.0;fill-rule:evenodd;stroke:rgb(0, 0, 0);stroke-width:3.0;" d="M 103.261, 398.079 L 96.2361, 443.823 L 58.0401, 432.151 L 46.824, 364.165 z "/>
<path style="fill:rgb(212, 2, 243);fill-opacity:1.0;fill-rule:evenodd;stroke:rgb(0, 0, 0);stroke-width:3.0;" d="M 713.407, 167.638 L 678.373, 222.465 L 674.395, 170.309 L 675.959, 166.501 L 704.81, 161.555 z "/>
<path style="fill:rgb(240, 255, 85);fill-opacity:1.0;fill-rule:evenodd;stroke:rgb(0, 0, 0);stroke-width:3.0;" d="M 500.369, 80.8956 L 501.932, 94.5419 L 494.932, 97.6254 L 490.033, 96.9907 L 487.553, 88.9501 L 498.171, 79.0627 z "/>
<path style="fill:rgb(249, 220, 19);fill-opacity:1.0;fill-rule:evenodd;stroke:rgb(0, 0, 0);stroke-width:3.0;" d="M 691.672, 23.4924 L 680.28, 38.2796 L 655.581, 29.7311 L 668.231, 10.2713 z "/>
<path style="fill:rgb(237, 62, 7);fill-opacity:1.0;fill-rule:evenodd;stroke:rgb(0, 0, 0);stroke-width:3.0;" d="M 92.9739, 480.549 L 69.7011, 502.834 L 65.2387, 475.786 L 68.5419, 474.022 z "/>
<path style="fill:rgb(249, 25, 255);fill-opacity:1.0;fill-rule:evenodd;stroke:rgb(0, 0, 0);stroke-width:3.0;" d="M 498.922, 137.768 L 480.946, 144.975 L 480.721, 145.009 L 473.079, 130.188 L 502.805, 128.339 z "/>
<path style="fill:rgb(255, 252, 39);fill-opacity:1.0;fill-rule:evenodd;stroke:rgb(0, 0, 0);stroke-width:3.0;" d="M 173.292, 22.9558 L 146.833, 36.6653 L 141.965, 32.9296 L 165.177, 14.6862 z "/>
<path style="fill:rgb(249, 13, 9);fill-opacity:1.0;fill-rule:evenodd;stroke:rgb(0, 0, 0);stroke-width:3.0;" d="M 165.177, 14.6862 L 141.965, 32.9296 L 132.268, 25.4868 L 163.916, 13.4012 z "/>
<path style="fill:rgb(255, 17, 107);fill-opacity:1.0;fill-rule:evenodd;stroke:rgb(0, 0, 0);stroke-width:3.0;" d="M 347.431, 133.26 L 324.878, 139.488 L 338.891, 125.146 z "/>
<path style="fill:rgb(255, 70, 7);fill-opacity:1.0;fill-rule:evenodd;stroke:rgb(0, 0, 0);stroke-width:3.0;" d="M 502.144, 101.862 L 458.844, 126.073 L 456.304, 124.729 L 478.46, 98.3388 z "/>
<path style="fill:rgb(255, 187, 57);fill-opacity:1.0;fill-rule:evenodd;stroke:rgb(0, 0, 0);stroke-width:3.0;" d="M 347.792, 236.547 L 333.65, 250.088 L 334.002, 225.112 L 361.097, 220.468 z "/>
<path style="fill:rgb(54, 51, 255);fill-opacity:1.0;fill-rule:evenodd;stroke:rgb(0, 0, 0);stroke-width:3.0;" d="M 315.837, 103.24 L 311.594, 112.41 L 251.614, 172.085 L 250.076, 161.362 L 275.419, 105.218 L 313.935, 101.433 z "/>
<path style="fill:rgb(14, 20, 240);fill-opacity:1.0;fill-rule:evenodd;stroke:rgb(0, 0, 0);stroke-width:3.0;" d="M 509.055, 127.951 L 505.272, 128.186 L 495.424, 125.229 L 504.646, 116.549 L 510.145, 115.659 z "/>
<path style="fill:rgb(255, 255, 49);fill-opacity:1.0;fill-rule:evenodd;stroke:rgb(0, 0, 0);stroke-width:3.0;" d="M 196.949, 572.75 L 192.791, 578.826 L 161.797, 575.4 L 173.227, 551.579 z "/>
<path style="fill:rgb(88, 38, 255);fill-opacity:1.0;fill-rule:evenodd;stroke:rgb(0, 0, 0);stroke-width:3.0;" d="M 173.227, 551.579 L 161.797, 575.4 L 158.459, 575.03 L 133.653, 555.812 L 132.908, 547.893 L 144.963, 531.79 L 150.04, 530.884 z "/>
<path style="fill:rgb(255, 136, 79);fill-opacity:1.0;fill-rule:evenodd;stroke:rgb(0, 0, 0);stroke-width:3.0;" d="M 388.489, 215.773 L 338.617, 224.321 L 333.92, 219.208 L 333.965, 218.878 L 388.466, 215.241 z "/>
</svg>