<?xml version="1.0" encoding="iso-8859-1" standalone="no"?>
<!DOCTYPE svg PUBLIC "-//W3C//DTD SVG 1.0//EN" "http://www.w3.org/TR/2001/REC-SVG-20010904/DTD/svg10.dtd">
<svg xmlns="http://www.w3.org/2000/svg" width="800" height="600">
<path style="fill:rgb(0, 0, 0);fill-opacity:0.0;fill-rule:evenodd;stroke:rgb(0, 0, 0);stroke-width:0.0;" d="M 0, 600 L 800, 600 L 800, 0 L 0, 0 z "/>
<path style="fill:rgb(10, 197, 255);fill-opacity:1.0;fill-rule:evenodd;stroke:rgb(0, 0, 0);stroke-width:3.0;" d="M 315.814, 574.973 L 312.49, 582.067 L 277.681, 590.308 L 270.696, 570.203 L 285.487, 561.908 z "/>
<path style="fill:rgb(10, 197, 255);fill-opacity:1.0;fill-rule:evenodd;stroke:rgb(0, 0, 0);stroke-width:3.0;" d="M 281.393, 550.721 L 232.036, 561.688 L 476.314, 283.07 z "/>
<path style="fill:rgb(207, 255, 65);fill-opacity:1.0;fill-rule:evenodd;stroke:rgb(0, 0, 0);stroke-width:3.0;" d="M 569.863, 486.553 L 568.13, 485.559 L 566.611, 461.795 L 596.281, 440.136 z "/>
<path style="fill:rgb(207, 255, 65);fill-opacity:1.0;fill-rule:evenodd;stroke:rgb(0, 0, 0);stroke-width:3.0;" d="M 382.236, 17.4335 L 375.603, 28.8995 L 352.123, 20.513 L 380.941, 17.2598 z "/>
<path style="fill:rgb(207, 255, 65);fill-opacity:1.0;fill-rule:evenodd;stroke:rgb(0, 0, 0);stroke-width:3.0;" d="M 643.038, 403.455 L 522.07, 478.983 L 433.767, 453.354 L 570.287, 216.881 z "/>
<path style="fill:rgb(255, 170, 182);fill-opacity:1.0;fill-rule:evenodd;stroke:rgb(0, 0, 0);stroke-width:3.0;" d="M 727.048, 140.069 L 706.596, 152.958 L 635.828, 127.82 z "/>
<path style="fill:rgb(220, 123, 220);fill-opacity:1.0;fill-rule:evenodd;stroke:rgb(0, 0, 0);stroke-width:3.0;" d="M 516.286, 482.595 L 476.676, 507.326 L 441.46, 515.151 L 471.16, 485.709 L 493.882, 475.255 z "/>
<path style="fill:rgb(220, 123, 220);fill-opacity:1.0;fill-rule:evenodd;stroke:rgb(0, 0, 0);stroke-width:3.0;" d="M 769.632, 55.3409 L 755.471, 55.7523 L 751.178, 51.6001 L 751.629, 50.793 L 756.195, 47.6773 L 765.343, 46.0043 z "/>
<path style="fill:rgb(220, 123, 220);fill-opacity:1.0;fill-rule:evenodd;stroke:rgb(0, 0, 0);stroke-width:3.0;" d="M 663.541, 109.224 L 663.788, 115.517 L 655.651, 110.664 L 639.826, 79.8561 L 643.386, 72.1166 z "/>
<path style="fill:rgb(220, 123, 220);fill-opacity:1.0;fill-rule:evenodd;stroke:rgb(0, 0, 0);stroke-width:3.0;" d="M 579.311, 452.524 L 577.03, 454.189 L 545.794, 465.617 L 546.86, 463.505 L 578.432, 443.792 z "/>
<path style="fill:rgb(243, 252, 41);fill-opacity:1.0;fill-rule:evenodd;stroke:rgb(0, 0, 0);stroke-width:3.0;" d="M 647.651, 41.4315 L 632.105, 43.1797 L 626.993, 34.1333 L 636.409, 27.9301 z "/>
<path style="fill:rgb(243, 252, 41);fill-opacity:1.0;fill-rule:evenodd;stroke:rgb(0, 0, 0);stroke-width:3.0;" d="M 416.65, 43.5605 L 392.504, 95.147 L 380.157, 93.489 L 414.719, 42.8709 z "/>
<path style="fill:rgb(243, 252, 41);fill-opacity:1.0;fill-rule:evenodd;stroke:rgb(0, 0, 0);stroke-width:3.0;" d="M 325.732, 86.1809 L 130.904, 178.589 L 126.608, 59.4431 z "/>
<path style="fill:rgb(243, 252, 41);fill-opacity:1.0;fill-rule:evenodd;stroke:rgb(0, 0, 0);stroke-width:3.0;" d="M 739.636, 456.543 L 676.094, 472.819 L 653.41, 466.8 L 698.486, 414.163 z "/>
<path style="fill:rgb(243, 252, 41);fill-opacity:1.0;fill-rule:evenodd;stroke:rgb(0, 0, 0);stroke-width:3.0;" d="M 484.122, 366.132 L 482.75, 365.428 L 503.161, 322.64 L 509.903, 321.476 z "/>
<path style="fill:rgb(243, 252, 41);fill-opacity:1.0;fill-rule:evenodd;stroke:rgb(0, 0, 0);stroke-width:3.0;" d="M 242.994, 530.055 L 243.278, 532.04 L 224.877, 544.16 L 221.869, 542.601 L 216.579, 536.032 L 218.836, 526.819 z "/>
<path style="fill:rgb(30, 237, 159);fill-opacity:1.0;fill-rule:evenodd;stroke:rgb(0, 0, 0);stroke-width:3.0;" d="M 444.298, 578.579 L 437.719, 588.033 L 430.291, 583.975 L 436.198, 573.632 z "/>
<path style="fill:rgb(30, 237, 159);fill-opacity:1.0;fill-rule:evenodd;stroke:rgb(0, 0, 0);stroke-width:3.0;" d="M 512.062, 501.616 L 475.9, 528.016 L 466.336, 513.782 L 506.118, 488.943 z "/>
<path style="fill:rgb(30, 237, 159);fill-opacity:1.0;fill-rule:evenodd;stroke:rgb(0, 0, 0);stroke-width:3.0;" d="M 383.074, 466.195 L 385.997, 482.324 L 362.493, 499.413 L 337.865, 473.176 L 356.025, 448.241 z "/>
<path style="fill:rgb(30, 237, 159);fill-opacity:1.0;fill-rule:evenodd;stroke:rgb(0, 0, 0);stroke-width:3.0;" d="M 664.853, 504.958 L 720.336, 572.793 L 657.606, 536.841 L 652.98, 503.707 z "/>
<path style="fill:rgb(55, 249, 243);fill-opacity:1.0;fill-rule:evenodd;stroke:rgb(0, 0, 0);stroke-width:3.0;" d="M 464.846, 536.085 L 450.405, 546.627 L 424.133, 556.032 L 426.775, 538.483 L 447.457, 525.569 z "/>
<path style="fill:rgb(55, 249, 243);fill-opacity:1.0;fill-rule:evenodd;stroke:rgb(0, 0, 0);stroke-width:3.0;" d="M 457.958, 352.703 L 460.988, 358.277 L 436.778, 351.603 L 443.59, 345.328 z "/>
<path style="fill:rgb(55, 249, 243);fill-opacity:1.0;fill-rule:evenodd;stroke:rgb(0, 0, 0);stroke-width:3.0;" d="M 750.712, 492.62 L 747.334, 506.768 L 724.859, 498.509 L 717.97, 483.931 z "/>
<path style="fill:rgb(43, 130, 255);fill-opacity:1.0;fill-rule:evenodd;stroke:rgb(0, 0, 0);stroke-width:3.0;" d="M 564.535, 226.846 L 553.604, 245.779 L 535.274, 216.919 z "/>
<path style="fill:rgb(28, 209, 209);fill-opacity:1.0;fill-rule:evenodd;stroke:rgb(0, 0, 0);stroke-width:3.0;" d="M 642.759, 425.398 L 639.143, 428.687 L 627.135, 417.612 L 643.789, 405.455 z "/>
<path style="fill:rgb(28, 209, 209);fill-opacity:1.0;fill-rule:evenodd;stroke:rgb(0, 0, 0);stroke-width:3.0;" d="M 357.836, 502.798 L 313.304, 535.177 L 306.07, 516.835 L 324.441, 491.61 z "/>
<path style="fill:rgb(64, 69, 255);fill-opacity:1.0;fill-rule:evenodd;stroke:rgb(0, 0, 0);stroke-width:3.0;" d="M 788.468, 334.458 L 775.108, 390.423 L 759.146, 343.331 L 778.77, 320.415 z "/>
<path style="fill:rgb(64, 69, 255);fill-opacity:1.0;fill-rule:evenodd;stroke:rgb(0, 0, 0);stroke-width:3.0;" d="M 481.449, 467.193 L 419.164, 520.106 L 400.664, 524.217 L 441.157, 455.499 z "/>
<path style="fill:rgb(105, 243, 107);fill-opacity:1.0;fill-rule:evenodd;stroke:rgb(0, 0, 0);stroke-width:3.0;" d="M 306.511, 83.6 L 131.049, 60.0394 L 122.8, 36.4033 z "/>
<path style="fill:rgb(105, 243, 107);fill-opacity:1.0;fill-rule:evenodd;stroke:rgb(0, 0, 0);stroke-width:3.0;" d="M 483.652, 533.071 L 458.708, 549.437 L 444.347, 551.049 L 472.524, 530.48 z "/>
<path style="fill:rgb(105, 243, 107);fill-opacity:1.0;fill-rule:evenodd;stroke:rgb(0, 0, 0);stroke-width:3.0;" d="M 509.98, 110.921 L 392.504, 95.147 L 410.468, 56.7694 z "/>
<path style="fill:rgb(105, 243, 107);fill-opacity:1.0;fill-rule:evenodd;stroke:rgb(0, 0, 0);stroke-width:3.0;" d="M 532.873, 541.112 L 522.958, 542.225 L 472.524, 530.48 L 473.364, 529.866 L 532.289, 522.016 z "/>
<path style="fill:rgb(27, 35, 234);fill-opacity:1.0;fill-rule:evenodd;stroke:rgb(0, 0, 0);stroke-width:3.0;" d="M 714.236, 395.772 L 671.799, 445.326 L 639.386, 436.058 L 641.411, 426.624 L 683.917, 387.958 z "/>
<path style="fill:rgb(27, 35, 234);fill-opacity:1.0;fill-rule:evenodd;stroke:rgb(0, 0, 0);stroke-width:3.0;" d="M 752.147, 135.346 L 712.456, 129.859 L 707.519, 107.149 L 746.453, 101.315 z "/>
<path style="fill:rgb(27, 35, 234);fill-opacity:1.0;fill-rule:evenodd;stroke:rgb(0, 0, 0);stroke-width:3.0;" d="M 744.305, 38.1185 L 751.499, 50.8815 L 750.875, 51.3075 L 712.539, 14.2372 L 714.828, 13.3267 z "/>
<path style="fill:rgb(27, 35, 234);fill-opacity:1.0;fill-rule:evenodd;stroke:rgb(0, 0, 0);stroke-width:3.0;" d="M 555.831, 537.538 L 532.84, 540.053 L 532.62, 532.841 L 539.774, 521.019 L 558.917, 518.469 z "/>
<path style="fill:rgb(89, 237, 60);fill-opacity:1.0;fill-rule:evenodd;stroke:rgb(0, 0, 0);stroke-width:3.0;" d="M 647.287, 12.6636 L 647.661, 13.0998 L 620.641, 21.3485 L 616.167, 18.3807 L 620.162, 13.2127 L 645.496, 11.0089 z "/>
<path style="fill:rgb(89, 237, 60);fill-opacity:1.0;fill-rule:evenodd;stroke:rgb(0, 0, 0);stroke-width:3.0;" d="M 537.729, 250.174 L 482.75, 365.428 L 434.406, 340.614 L 476.314, 283.07 L 512.389, 241.923 z "/>
<path style="fill:rgb(89, 237, 60);fill-opacity:1.0;fill-rule:evenodd;stroke:rgb(0, 0, 0);stroke-width:3.0;" d="M 445.386, 48.0902 L 397.525, 22.5575 L 394.289, 18.1158 L 443.136, 11.2987 z "/>
<path style="fill:rgb(240, 22, 98);fill-opacity:1.0;fill-rule:evenodd;stroke:rgb(0, 0, 0);stroke-width:3.0;" d="M 624.109, 437.171 L 625.891, 439.649 L 623.813, 442.632 L 618.116, 447.815 L 606.02, 433.026 L 606.33, 432.8 z "/>
<path style="fill:rgb(240, 22, 98);fill-opacity:1.0;fill-rule:evenodd;stroke:rgb(0, 0, 0);stroke-width:3.0;" d="M 550.656, 502.429 L 548.572, 514.869 L 539.239, 521.09 L 529.615, 522.373 L 538.858, 500.506 z "/>
<path style="fill:rgb(240, 22, 98);fill-opacity:1.0;fill-rule:evenodd;stroke:rgb(0, 0, 0);stroke-width:3.0;" d="M 429.111, 526.133 L 389.698, 526.654 L 444.807, 514.408 z "/>
<path style="fill:rgb(240, 22, 98);fill-opacity:1.0;fill-rule:evenodd;stroke:rgb(0, 0, 0);stroke-width:3.0;" d="M 658.608, 452.924 L 659.898, 459.223 L 653.41, 466.8 L 633.899, 461.622 L 636.002, 451.825 L 636.499, 451.699 z "/>
<path style="fill:rgb(240, 22, 98);fill-opacity:1.0;fill-rule:evenodd;stroke:rgb(0, 0, 0);stroke-width:3.0;" d="M 507.169, 544.85 L 471.71, 559.849 L 459.553, 555.07 L 451.911, 550.2 L 507.089, 544.006 z "/>
<path style="fill:rgb(255, 215, 9);fill-opacity:1.0;fill-rule:evenodd;stroke:rgb(0, 0, 0);stroke-width:3.0;" d="M 389.83, 18.4521 L 356.291, 13.9532 L 365.942, 5.70852 z "/>
<path style="fill:rgb(255, 215, 9);fill-opacity:1.0;fill-rule:evenodd;stroke:rgb(0, 0, 0);stroke-width:3.0;" d="M 536.294, 506.571 L 528.798, 504.029 L 536.717, 486.843 L 545.516, 484.753 z "/>
<path style="fill:rgb(255, 215, 9);fill-opacity:1.0;fill-rule:evenodd;stroke:rgb(0, 0, 0);stroke-width:3.0;" d="M 775.108, 390.423 L 760.606, 451.172 L 739.636, 456.543 L 698.486, 414.163 L 759.146, 343.331 z "/>
<path style="fill:rgb(255, 215, 9);fill-opacity:1.0;fill-rule:evenodd;stroke:rgb(0, 0, 0);stroke-width:3.0;" d="M 250.293, 537.687 L 241.77, 544.089 L 233.674, 541.889 L 231.603, 539.73 L 244.907, 530.967 z "/>
<path style="fill:rgb(255, 114, 22);fill-opacity:1.0;fill-rule:evenodd;stroke:rgb(0, 0, 0);stroke-width:3.0;" d="M 671.799, 445.326 L 659.898, 459.223 L 656.135, 440.847 z "/>
<path style="fill:rgb(255, 114, 22);fill-opacity:1.0;fill-rule:evenodd;stroke:rgb(0, 0, 0);stroke-width:3.0;" d="M 631.734, 42.5216 L 632.214, 62.6631 L 612.382, 69.1427 L 604.879, 26.1604 L 619.897, 21.5757 z "/>
<path style="fill:rgb(255, 249, 18);fill-opacity:1.0;fill-rule:evenodd;stroke:rgb(0, 0, 0);stroke-width:3.0;" d="M 642.759, 425.398 L 643.789, 405.455 L 667.164, 388.391 L 719.065, 355.985 z "/>
<path style="fill:rgb(74, 40, 255);fill-opacity:1.0;fill-rule:evenodd;stroke:rgb(0, 0, 0);stroke-width:3.0;" d="M 552.456, 572.72 L 538.107, 576.733 L 519.6, 553.822 z "/>
<path style="fill:rgb(74, 40, 255);fill-opacity:1.0;fill-rule:evenodd;stroke:rgb(0, 0, 0);stroke-width:3.0;" d="M 227.589, 545.566 L 225.412, 551.503 L 215.386, 559.902 L 215.389, 539.242 z "/>
<path style="fill:rgb(74, 40, 255);fill-opacity:1.0;fill-rule:evenodd;stroke:rgb(0, 0, 0);stroke-width:3.0;" d="M 761.401, 172.425 L 697.292, 356.83 L 646.117, 401.532 L 643.038, 403.455 L 590.167, 267.865 L 678.444, 142.958 z "/>
<path style="fill:rgb(74, 40, 255);fill-opacity:1.0;fill-rule:evenodd;stroke:rgb(0, 0, 0);stroke-width:3.0;" d="M 474.293, 361.944 L 462.23, 392.778 L 459.808, 357.951 z "/>
<path style="fill:rgb(74, 40, 255);fill-opacity:1.0;fill-rule:evenodd;stroke:rgb(0, 0, 0);stroke-width:3.0;" d="M 403.194, 519.925 L 383.715, 521.243 L 410.959, 506.746 z "/>
<path style="fill:rgb(74, 40, 255);fill-opacity:1.0;fill-rule:evenodd;stroke:rgb(0, 0, 0);stroke-width:3.0;" d="M 633.899, 461.622 L 628.164, 460.101 L 618.116, 447.815 L 641.411, 426.624 z "/>
<path style="fill:rgb(249, 255, 13);fill-opacity:1.0;fill-rule:evenodd;stroke:rgb(0, 0, 0);stroke-width:3.0;" d="M 605.807, 111.123 L 599.536, 122.878 L 559.191, 102.278 L 564.226, 96.2714 z "/>
<path style="fill:rgb(249, 255, 13);fill-opacity:1.0;fill-rule:evenodd;stroke:rgb(0, 0, 0);stroke-width:3.0;" d="M 564.574, 483.522 L 560.822, 506.703 L 557.605, 508.847 L 542.309, 492.34 L 545.516, 484.753 L 560.508, 481.191 z "/>
<path style="fill:rgb(255, 5, 45);fill-opacity:1.0;fill-rule:evenodd;stroke:rgb(0, 0, 0);stroke-width:3.0;" d="M 660.996, 38.9594 L 644.87, 28.9523 L 647.293, 13.2121 L 650.426, 12.2557 z "/>
<path style="fill:rgb(255, 255, 30);fill-opacity:1.0;fill-rule:evenodd;stroke:rgb(0, 0, 0);stroke-width:3.0;" d="M 665.418, 30.2169 L 666.98, 42.6729 L 660.996, 38.9594 L 650.426, 12.2557 L 656.411, 10.4284 z "/>
<path style="fill:rgb(255, 74, 82);fill-opacity:1.0;fill-rule:evenodd;stroke:rgb(0, 0, 0);stroke-width:3.0;" d="M 215.389, 539.242 L 215.387, 550.461 L 211.545, 560.967 L 209.811, 553.407 L 208.988, 539.999 L 213.36, 538.19 z "/>
<path style="fill:rgb(255, 74, 82);fill-opacity:1.0;fill-rule:evenodd;stroke:rgb(0, 0, 0);stroke-width:3.0;" d="M 571.702, 214.431 L 564.535, 226.846 L 550.27, 222.006 L 553.29, 211.521 L 565.155, 200.514 z "/>
<path style="fill:rgb(86, 240, 29);fill-opacity:1.0;fill-rule:evenodd;stroke:rgb(0, 0, 0);stroke-width:3.0;" d="M 778.77, 320.415 L 714.236, 395.772 L 690.658, 389.695 L 694.147, 378.653 L 719.065, 355.985 L 777.946, 319.222 z "/>
<path style="fill:rgb(240, 159, 217);fill-opacity:1.0;fill-rule:evenodd;stroke:rgb(0, 0, 0);stroke-width:3.0;" d="M 702.61, 100.309 L 695.762, 107.923 L 692.934, 108.324 L 681.453, 69.4256 z "/>
<path style="fill:rgb(240, 159, 217);fill-opacity:1.0;fill-rule:evenodd;stroke:rgb(0, 0, 0);stroke-width:3.0;" d="M 690.979, 101.699 L 701.283, 136.609 L 683.558, 134.229 L 681.733, 131 L 678.735, 95.785 z "/>
<path style="fill:rgb(240, 159, 217);fill-opacity:1.0;fill-rule:evenodd;stroke:rgb(0, 0, 0);stroke-width:3.0;" d="M 491.923, 573.663 L 477.104, 576.04 L 471.623, 572.207 L 492.826, 566.925 z "/>
<path style="fill:rgb(240, 159, 217);fill-opacity:1.0;fill-rule:evenodd;stroke:rgb(0, 0, 0);stroke-width:3.0;" d="M 536.744, 219.234 L 534.195, 231.891 L 519.254, 239.108 L 515.691, 238.156 L 534.87, 216.282 z "/>
<path style="fill:rgb(231, 6, 243);fill-opacity:1.0;fill-rule:evenodd;stroke:rgb(0, 0, 0);stroke-width:3.0;" d="M 384.136, 565.105 L 369.532, 568.563 L 363.702, 559.188 L 394.283, 558.77 z "/>
<path style="fill:rgb(231, 6, 243);fill-opacity:1.0;fill-rule:evenodd;stroke:rgb(0, 0, 0);stroke-width:3.0;" d="M 621.286, 120.152 L 614.873, 83.4142 L 638.191, 83.4088 z "/>
<path style="fill:rgb(255, 14, 52);fill-opacity:1.0;fill-rule:evenodd;stroke:rgb(0, 0, 0);stroke-width:3.0;" d="M 541.69, 543.548 L 526.838, 549.473 L 521.682, 550.848 L 521.796, 549.185 L 531.31, 541.287 L 547.089, 539.516 z "/>
<path style="fill:rgb(255, 14, 52);fill-opacity:1.0;fill-rule:evenodd;stroke:rgb(0, 0, 0);stroke-width:3.0;" d="M 680.892, 67.5258 L 676.988, 68.2875 L 668.662, 56.0819 L 662.695, 8.50995 L 663.409, 8.29209 z "/>
<path style="fill:rgb(159, 249, 255);fill-opacity:1.0;fill-rule:evenodd;stroke:rgb(0, 0, 0);stroke-width:3.0;" d="M 614.391, 140.486 L 610.601, 147.052 L 595.153, 152.536 L 592.688, 150.335 L 608.527, 132.269 z "/>
<path style="fill:rgb(159, 249, 255);fill-opacity:1.0;fill-rule:evenodd;stroke:rgb(0, 0, 0);stroke-width:3.0;" d="M 708.874, 113.384 L 712.177, 128.575 L 699.594, 130.89 L 693.1, 108.886 z "/>
<path style="fill:rgb(159, 249, 255);fill-opacity:1.0;fill-rule:evenodd;stroke:rgb(0, 0, 0);stroke-width:3.0;" d="M 308.891, 537.339 L 292.787, 535.075 L 305.708, 517.333 z "/>
<path style="fill:rgb(223, 255, 57);fill-opacity:1.0;fill-rule:evenodd;stroke:rgb(0, 0, 0);stroke-width:3.0;" d="M 782.77, 430.896 L 784.78, 440.695 L 778.817, 441.758 L 768.149, 419.573 L 768.573, 417.8 z "/>
<path style="fill:rgb(41, 157, 255);fill-opacity:1.0;fill-rule:evenodd;stroke:rgb(0, 0, 0);stroke-width:3.0;" d="M 611.218, 439.381 L 572.427, 488.023 L 569.863, 486.553 L 596.281, 440.136 L 606.02, 433.026 z "/>
<path style="fill:rgb(41, 157, 255);fill-opacity:1.0;fill-rule:evenodd;stroke:rgb(0, 0, 0);stroke-width:3.0;" d="M 455.29, 573.155 L 455.895, 580.191 L 438.447, 560.217 L 442.137, 556.49 z "/>
<path style="fill:rgb(255, 11, 6);fill-opacity:1.0;fill-rule:evenodd;stroke:rgb(0, 0, 0);stroke-width:3.0;" d="M 580.533, 568.245 L 568.802, 582.122 L 552.893, 572.971 L 560.666, 551.837 z "/>
<path style="fill:rgb(252, 220, 6);fill-opacity:1.0;fill-rule:evenodd;stroke:rgb(0, 0, 0);stroke-width:3.0;" d="M 678.735, 95.785 L 681.733, 131 L 677.011, 122.644 L 674.262, 100.728 L 677.382, 95.1315 z "/>
<path style="fill:rgb(252, 220, 6);fill-opacity:1.0;fill-rule:evenodd;stroke:rgb(0, 0, 0);stroke-width:3.0;" d="M 362.493, 499.413 L 357.836, 502.798 L 324.441, 491.61 L 337.865, 473.176 z "/>
<path style="fill:rgb(255, 10, 243);fill-opacity:1.0;fill-rule:evenodd;stroke:rgb(0, 0, 0);stroke-width:3.0;" d="M 594.561, 223.709 L 590.29, 242.887 L 572.29, 222.019 L 572.079, 221.478 z "/>
<path style="fill:rgb(255, 10, 243);fill-opacity:1.0;fill-rule:evenodd;stroke:rgb(0, 0, 0);stroke-width:3.0;" d="M 437.819, 49.4262 L 433.15, 49.4538 L 404.391, 39.1817 L 425.813, 37.7125 z "/>
<path style="fill:rgb(249, 189, 12);fill-opacity:1.0;fill-rule:evenodd;stroke:rgb(0, 0, 0);stroke-width:3.0;" d="M 294.299, 490.672 L 278.548, 508.638 L 279.96, 490.214 L 295.837, 484.43 z "/>
<path style="fill:rgb(44, 249, 255);fill-opacity:1.0;fill-rule:evenodd;stroke:rgb(0, 0, 0);stroke-width:3.0;" d="M 641.207, 76.8529 L 638.191, 83.4088 L 636.896, 83.4091 L 613.998, 78.4024 L 612.382, 69.1427 L 638.067, 60.7504 z "/>
<path style="fill:rgb(44, 249, 255);fill-opacity:1.0;fill-rule:evenodd;stroke:rgb(0, 0, 0);stroke-width:3.0;" d="M 276.168, 511.353 L 271.15, 517.075 L 261.482, 508.37 L 274.577, 503.094 z "/>
<path style="fill:rgb(234, 252, 16);fill-opacity:1.0;fill-rule:evenodd;stroke:rgb(0, 0, 0);stroke-width:3.0;" d="M 494.423, 540.254 L 493.221, 542.518 L 460.509, 548.256 L 479.763, 535.623 z "/>
<path style="fill:rgb(234, 252, 16);fill-opacity:1.0;fill-rule:evenodd;stroke:rgb(0, 0, 0);stroke-width:3.0;" d="M 738.753, 87.1679 L 734.109, 103.165 L 718.45, 105.511 L 727.214, 81.642 z "/>
<path style="fill:rgb(255, 48, 21);fill-opacity:1.0;fill-rule:evenodd;stroke:rgb(0, 0, 0);stroke-width:3.0;" d="M 624.9, 126.353 L 661.875, 166.401 L 590.167, 267.865 L 586.705, 258.987 L 612.275, 144.152 L 617.88, 134.443 L 624.525, 126.302 z "/>
<path style="fill:rgb(255, 48, 21);fill-opacity:1.0;fill-rule:evenodd;stroke:rgb(0, 0, 0);stroke-width:3.0;" d="M 560.666, 551.837 L 552.893, 572.971 L 523.402, 556.009 L 530.139, 549.679 L 554.714, 546.922 z "/>
<path style="fill:rgb(165, 46, 76);fill-opacity:1.0;fill-rule:evenodd;stroke:rgb(0, 0, 0);stroke-width:3.0;" d="M 783.327, 159.559 L 784.774, 164.757 L 771.552, 165.895 L 771.106, 155.124 z "/>
<path style="fill:rgb(165, 46, 76);fill-opacity:1.0;fill-rule:evenodd;stroke:rgb(0, 0, 0);stroke-width:3.0;" d="M 424.133, 556.032 L 423.021, 556.43 L 413.223, 549.364 L 425.142, 539.502 L 426.775, 538.483 z "/>
<path style="fill:rgb(165, 46, 76);fill-opacity:1.0;fill-rule:evenodd;stroke:rgb(0, 0, 0);stroke-width:3.0;" d="M 620.634, 116.419 L 622.307, 126.004 L 599.719, 122.971 L 599.536, 122.878 L 605.807, 111.123 z "/>
<path style="fill:rgb(165, 46, 76);fill-opacity:1.0;fill-rule:evenodd;stroke:rgb(0, 0, 0);stroke-width:3.0;" d="M 536.294, 506.571 L 533.734, 512.628 L 515.269, 524.284 L 511.288, 524.814 L 488.252, 518.998 L 515.114, 499.388 z "/>
<path style="fill:rgb(165, 46, 76);fill-opacity:1.0;fill-rule:evenodd;stroke:rgb(0, 0, 0);stroke-width:3.0;" d="M 748.301, 336.618 L 748.167, 337.815 L 676.799, 382.375 L 743.386, 317.181 z "/>
<path style="fill:rgb(165, 46, 76);fill-opacity:1.0;fill-rule:evenodd;stroke:rgb(0, 0, 0);stroke-width:3.0;" d="M 267.837, 560.498 L 242.171, 560.849 L 244.555, 558.906 L 280.031, 551.023 z "/>
<path style="fill:rgb(255, 21, 71);fill-opacity:1.0;fill-rule:evenodd;stroke:rgb(0, 0, 0);stroke-width:3.0;" d="M 357.166, 14.0707 L 356.595, 20.0083 L 352.123, 20.513 L 320.206, 9.11282 z "/>
<path style="fill:rgb(255, 21, 71);fill-opacity:1.0;fill-rule:evenodd;stroke:rgb(0, 0, 0);stroke-width:3.0;" d="M 595.639, 152.97 L 565.257, 200.42 L 559.98, 205.315 L 566.81, 180.69 L 594.263, 151.741 z "/>
<path style="fill:rgb(255, 21, 71);fill-opacity:1.0;fill-rule:evenodd;stroke:rgb(0, 0, 0);stroke-width:3.0;" d="M 459.808, 357.951 L 462.929, 402.841 L 436.393, 448.806 L 430.532, 354.775 L 445.52, 354.013 z "/>
<path style="fill:rgb(255, 21, 71);fill-opacity:1.0;fill-rule:evenodd;stroke:rgb(0, 0, 0);stroke-width:3.0;" d="M 397.587, 372.864 L 315.269, 466.754 L 121.327, 576.981 L 58.5939, 529.033 L 258.552, 392.879 L 394.34, 366.105 z "/>
<path style="fill:rgb(240, 79, 9);fill-opacity:1.0;fill-rule:evenodd;stroke:rgb(0, 0, 0);stroke-width:3.0;" d="M 605.484, 174.651 L 583.13, 222.574 L 572.079, 221.478 L 570.287, 216.881 L 612.275, 144.152 z "/>
<path style="fill:rgb(240, 79, 9);fill-opacity:1.0;fill-rule:evenodd;stroke:rgb(0, 0, 0);stroke-width:3.0;" d="M 122.8, 36.4033 L 131.049, 60.0394 L 85.9811, 53.9877 L 46.0495, 16.6856 z "/>
<path style="fill:rgb(249, 246, 65);fill-opacity:1.0;fill-rule:evenodd;stroke:rgb(0, 0, 0);stroke-width:3.0;" d="M 379.846, 448.377 L 383.074, 466.195 L 356.025, 448.241 L 359.554, 443.396 z "/>
<path style="fill:rgb(249, 246, 65);fill-opacity:1.0;fill-rule:evenodd;stroke:rgb(0, 0, 0);stroke-width:3.0;" d="M 489.107, 567.851 L 471.623, 572.207 L 460.647, 564.528 L 491.673, 551.404 z "/>
<path style="fill:rgb(12, 85, 255);fill-opacity:1.0;fill-rule:evenodd;stroke:rgb(0, 0, 0);stroke-width:3.0;" d="M 614.893, 125.009 L 405.429, 363.919 L 340.724, 376.677 L 240.575, 328.558 L 558.782, 117.474 z "/>
<path style="fill:rgb(12, 85, 255);fill-opacity:1.0;fill-rule:evenodd;stroke:rgb(0, 0, 0);stroke-width:3.0;" d="M 599.719, 122.971 L 547.699, 115.986 L 559.191, 102.278 z "/>
<path style="fill:rgb(231, 249, 8);fill-opacity:1.0;fill-rule:evenodd;stroke:rgb(0, 0, 0);stroke-width:3.0;" d="M 570.453, 511.787 L 570.2, 524.548 L 558.652, 520.11 L 560.455, 508.968 z "/>
<path style="fill:rgb(246, 249, 37);fill-opacity:1.0;fill-rule:evenodd;stroke:rgb(0, 0, 0);stroke-width:3.0;" d="M 482.073, 467.374 L 480.036, 476.91 L 461.962, 494.827 L 443.891, 499.1 L 481.449, 467.193 z "/>
<path style="fill:rgb(237, 0, 28);fill-opacity:1.0;fill-rule:evenodd;stroke:rgb(0, 0, 0);stroke-width:3.0;" d="M 441.157, 455.499 L 410.959, 506.746 L 361.968, 532.816 L 296.561, 547.35 L 428.103, 451.71 z "/>
<path style="fill:rgb(252, 20, 76);fill-opacity:1.0;fill-rule:evenodd;stroke:rgb(0, 0, 0);stroke-width:3.0;" d="M 434.674, 558.11 L 414.607, 572.76 L 413.538, 572.406 L 418.423, 558.278 L 418.731, 557.966 L 427.373, 554.872 z "/>
<path style="fill:rgb(66, 18, 226);fill-opacity:1.0;fill-rule:evenodd;stroke:rgb(0, 0, 0);stroke-width:3.0;" d="M 635.828, 127.82 L 663.966, 137.815 L 669.085, 156.2 L 661.875, 166.401 L 624.9, 126.353 z "/>
<path style="fill:rgb(66, 18, 226);fill-opacity:1.0;fill-rule:evenodd;stroke:rgb(0, 0, 0);stroke-width:3.0;" d="M 508.07, 554.32 L 498.228, 565.579 L 489.107, 567.851 L 491.673, 551.404 L 507.169, 544.85 z "/>
<path style="fill:rgb(255, 0, 8);fill-opacity:1.0;fill-rule:evenodd;stroke:rgb(0, 0, 0);stroke-width:3.0;" d="M 394.283, 558.77 L 385.591, 558.888 L 311.567, 544.016 L 389.698, 526.654 L 446.933, 525.897 z "/>
<path style="fill:rgb(255, 43, 255);fill-opacity:1.0;fill-rule:evenodd;stroke:rgb(0, 0, 0);stroke-width:3.0;" d="M 385.591, 558.888 L 276.192, 560.384 L 271.333, 557.782 L 280.031, 551.023 L 311.567, 544.016 z "/>
<path style="fill:rgb(6, 255, 64);fill-opacity:1.0;fill-rule:evenodd;stroke:rgb(0, 0, 0);stroke-width:3.0;" d="M 628.023, 425.198 L 628.697, 438.189 L 626.366, 440.309 L 615.927, 425.794 L 626.204, 418.292 z "/>
<path style="fill:rgb(255, 237, 26);fill-opacity:1.0;fill-rule:evenodd;stroke:rgb(0, 0, 0);stroke-width:3.0;" d="M 435.773, 438.86 L 436.393, 448.806 L 433.767, 453.354 L 403.244, 444.495 L 424.284, 412.858 z "/>
<path style="fill:rgb(255, 237, 26);fill-opacity:1.0;fill-rule:evenodd;stroke:rgb(0, 0, 0);stroke-width:3.0;" d="M 486.628, 582.703 L 483.119, 593.145 L 474.74, 587.494 L 477.873, 576.578 z "/>
<path style="fill:rgb(226, 6, 46);fill-opacity:1.0;fill-rule:evenodd;stroke:rgb(0, 0, 0);stroke-width:3.0;" d="M 340.724, 376.677 L 295.176, 385.657 L 136.414, 397.654 L 240.575, 328.558 z "/>
<path style="fill:rgb(14, 152, 215);fill-opacity:1.0;fill-rule:evenodd;stroke:rgb(0, 0, 0);stroke-width:3.0;" d="M 665.835, 63.2709 L 662.529, 74.1101 L 648.892, 62.8198 L 643.947, 45.362 L 650.74, 45.1415 z "/>
<path style="fill:rgb(255, 246, 45);fill-opacity:1.0;fill-rule:evenodd;stroke:rgb(0, 0, 0);stroke-width:3.0;" d="M 433.307, 399.291 L 403.244, 444.495 L 366.516, 433.835 L 430.025, 346.63 z "/>
<path style="fill:rgb(57, 159, 249);fill-opacity:1.0;fill-rule:evenodd;stroke:rgb(0, 0, 0);stroke-width:3.0;" d="M 255.278, 393.524 L 95.0004, 425.126 L 136.414, 397.654 L 252.788, 388.861 z "/>
<path style="fill:rgb(246, 255, 54);fill-opacity:1.0;fill-rule:evenodd;stroke:rgb(0, 0, 0);stroke-width:3.0;" d="M 255.278, 393.524 L 252.788, 388.861 L 295.176, 385.657 z "/>
<path style="fill:rgb(252, 44, 199);fill-opacity:1.0;fill-rule:evenodd;stroke:rgb(0, 0, 0);stroke-width:3.0;" d="M 564.226, 96.2714 L 550.162, 113.048 L 513.352, 78.1004 z "/>
<path style="fill:rgb(9, 1, 255);fill-opacity:1.0;fill-rule:evenodd;stroke:rgb(0, 0, 0);stroke-width:3.0;" d="M 750.712, 492.62 L 722.062, 485.017 L 754.757, 452.67 L 760.606, 451.172 z "/>
<path style="fill:rgb(9, 1, 255);fill-opacity:1.0;fill-rule:evenodd;stroke:rgb(0, 0, 0);stroke-width:3.0;" d="M 605.706, 536.508 L 595.637, 545.179 L 590.063, 538.516 L 588.498, 534.868 L 606.854, 532.807 z "/>
<path style="fill:rgb(255, 170, 182);fill-opacity:1.0;fill-rule:evenodd;stroke:rgb(0, 0, 0);stroke-width:3.0;" d="M 568.13, 485.559 L 549.043, 474.62 L 566.611, 461.795 z "/>
<path style="fill:rgb(146, 108, 255);fill-opacity:1.0;fill-rule:evenodd;stroke:rgb(0, 0, 0);stroke-width:3.0;" d="M 575.146, 504.664 L 565.971, 504.248 L 562.437, 496.724 L 564.19, 485.895 z "/>
<path style="fill:rgb(146, 108, 255);fill-opacity:1.0;fill-rule:evenodd;stroke:rgb(0, 0, 0);stroke-width:3.0;" d="M 378.23, 568.792 L 362.257, 578.766 L 357.307, 574.283 L 356.252, 571.707 L 374.898, 567.292 z "/>
<path style="fill:rgb(146, 108, 255);fill-opacity:1.0;fill-rule:evenodd;stroke:rgb(0, 0, 0);stroke-width:3.0;" d="M 538.891, 222.613 L 544.526, 237.092 L 537.622, 243.021 L 532.787, 238.879 L 536.744, 219.234 z "/>
<path style="fill:rgb(152, 4, 255);fill-opacity:1.0;fill-rule:evenodd;stroke:rgb(0, 0, 0);stroke-width:3.0;" d="M 603.257, 159.773 L 600.94, 163.785 L 584.298, 170.682 L 595.639, 152.97 z "/>
<path style="fill:rgb(152, 4, 255);fill-opacity:1.0;fill-rule:evenodd;stroke:rgb(0, 0, 0);stroke-width:3.0;" d="M 436.916, 572.376 L 421.125, 590.359 L 422.991, 576.723 L 437.945, 570.573 z "/>
<path style="fill:rgb(152, 4, 255);fill-opacity:1.0;fill-rule:evenodd;stroke:rgb(0, 0, 0);stroke-width:3.0;" d="M 638.679, 472.956 L 622.831, 502.878 L 587.235, 469.455 L 611.218, 439.381 z "/>
<path style="fill:rgb(124, 192, 246);fill-opacity:1.0;fill-rule:evenodd;stroke:rgb(0, 0, 0);stroke-width:3.0;" d="M 737.969, 32.7896 L 718.401, 16.3318 L 734.152, 14.2626 z "/>
<path style="fill:rgb(246, 0, 24);fill-opacity:1.0;fill-rule:evenodd;stroke:rgb(0, 0, 0);stroke-width:3.0;" d="M 510.886, 583.916 L 493.126, 583.255 L 485.627, 582.002 L 484.203, 581.006 L 508.983, 563.912 z "/>
<path style="fill:rgb(246, 0, 24);fill-opacity:1.0;fill-rule:evenodd;stroke:rgb(0, 0, 0);stroke-width:3.0;" d="M 759.817, 33.9749 L 752.757, 18.6051 L 767.343, 15.2515 z "/>
<path style="fill:rgb(246, 0, 24);fill-opacity:1.0;fill-rule:evenodd;stroke:rgb(0, 0, 0);stroke-width:3.0;" d="M 400.664, 524.217 L 361.968, 532.816 L 383.715, 521.243 L 403.194, 519.925 z "/>
<path style="fill:rgb(13, 146, 243);fill-opacity:1.0;fill-rule:evenodd;stroke:rgb(0, 0, 0);stroke-width:3.0;" d="M 723.737, 483.361 L 698.305, 467.13 L 754.757, 452.67 z "/>
<path style="fill:rgb(13, 146, 243);fill-opacity:1.0;fill-rule:evenodd;stroke:rgb(0, 0, 0);stroke-width:3.0;" d="M 748.841, 91.9986 L 746.486, 101.31 L 734.109, 103.165 L 738.753, 87.1679 z "/>
<path style="fill:rgb(243, 255, 11);fill-opacity:1.0;fill-rule:evenodd;stroke:rgb(0, 0, 0);stroke-width:3.0;" d="M 441.46, 515.151 L 435.342, 516.511 L 437.516, 504.515 L 443.891, 499.1 L 461.962, 494.827 z "/>
<path style="fill:rgb(237, 117, 7);fill-opacity:1.0;fill-rule:evenodd;stroke:rgb(0, 0, 0);stroke-width:3.0;" d="M 389.83, 18.4521 L 392.183, 19.7073 L 388.571, 33.5312 L 375.603, 28.8995 L 382.236, 17.4335 z "/>
<path style="fill:rgb(237, 117, 7);fill-opacity:1.0;fill-rule:evenodd;stroke:rgb(0, 0, 0);stroke-width:3.0;" d="M 601.716, 517.226 L 601.006, 520.402 L 588.015, 516.739 L 591.453, 504.507 z "/>
<path style="fill:rgb(243, 255, 76);fill-opacity:1.0;fill-rule:evenodd;stroke:rgb(0, 0, 0);stroke-width:3.0;" d="M 656.135, 440.847 L 657.283, 446.45 L 636.002, 451.825 L 639.386, 436.058 z "/>
<path style="fill:rgb(255, 105, 8);fill-opacity:1.0;fill-rule:evenodd;stroke:rgb(0, 0, 0);stroke-width:3.0;" d="M 741.101, 532.879 L 730.221, 578.458 L 720.336, 572.793 L 677.397, 520.294 L 728.513, 506.242 z "/>
<path style="fill:rgb(215, 255, 17);fill-opacity:1.0;fill-rule:evenodd;stroke:rgb(0, 0, 0);stroke-width:3.0;" d="M 477.873, 576.578 L 474.067, 589.838 L 470.629, 586.017 L 459.015, 563.387 z "/>
<path style="fill:rgb(78, 55, 255);fill-opacity:1.0;fill-rule:evenodd;stroke:rgb(0, 0, 0);stroke-width:3.0;" d="M 656.893, 69.4442 L 665.873, 92.3744 L 659.459, 91.5838 L 647.595, 70.59 L 649.51, 63.3319 z "/>
<path style="fill:rgb(212, 6, 44);fill-opacity:1.0;fill-rule:evenodd;stroke:rgb(0, 0, 0);stroke-width:3.0;" d="M 753.543, 307.693 L 709.505, 346.161 L 740.235, 302.64 z "/>
<path style="fill:rgb(212, 6, 44);fill-opacity:1.0;fill-rule:evenodd;stroke:rgb(0, 0, 0);stroke-width:3.0;" d="M 120.313, 577.557 L 94.8944, 592.004 L 87.8068, 573.663 z "/>
<path style="fill:rgb(255, 234, 14);fill-opacity:1.0;fill-rule:evenodd;stroke:rgb(0, 0, 0);stroke-width:3.0;" d="M 655.651, 110.664 L 632.11, 96.625 L 639.826, 79.8561 z "/>
<path style="fill:rgb(255, 234, 14);fill-opacity:1.0;fill-rule:evenodd;stroke:rgb(0, 0, 0);stroke-width:3.0;" d="M 400.521, 24.1557 L 403.719, 25.8615 L 398.228, 36.0234 L 397.252, 36.6321 L 388.571, 33.5312 L 391.46, 22.4742 z "/>
<path style="fill:rgb(255, 15, 228);fill-opacity:1.0;fill-rule:evenodd;stroke:rgb(0, 0, 0);stroke-width:3.0;" d="M 600.016, 520.123 L 599.245, 524.612 L 593.381, 533.457 L 572.915, 525.592 L 575.719, 513.272 z "/>
<path style="fill:rgb(255, 15, 228);fill-opacity:1.0;fill-rule:evenodd;stroke:rgb(0, 0, 0);stroke-width:3.0;" d="M 513.352, 78.1004 L 550.162, 113.048 L 547.699, 115.986 L 509.98, 110.921 L 410.468, 56.7694 L 416.65, 43.5605 z "/>
<path style="fill:rgb(202, 64, 255);fill-opacity:1.0;fill-rule:evenodd;stroke:rgb(0, 0, 0);stroke-width:3.0;" d="M 435.773, 438.86 L 424.284, 412.858 L 433.307, 399.291 z "/>
<path style="fill:rgb(54, 41, 255);fill-opacity:1.0;fill-rule:evenodd;stroke:rgb(0, 0, 0);stroke-width:3.0;" d="M 475.9, 528.016 L 464.846, 536.085 L 447.457, 525.569 L 466.336, 513.782 z "/>
<path style="fill:rgb(215, 161, 192);fill-opacity:1.0;fill-rule:evenodd;stroke:rgb(0, 0, 0);stroke-width:3.0;" d="M 652.98, 503.707 L 653.006, 503.889 L 639.62, 524.441 L 625.247, 510.08 L 631.429, 501.436 z "/>
<path style="fill:rgb(252, 50, 252);fill-opacity:1.0;fill-rule:evenodd;stroke:rgb(0, 0, 0);stroke-width:3.0;" d="M 590.29, 242.887 L 586.705, 258.987 L 572.29, 222.019 z "/>
<path style="fill:rgb(252, 50, 252);fill-opacity:1.0;fill-rule:evenodd;stroke:rgb(0, 0, 0);stroke-width:3.0;" d="M 652.542, 533.939 L 651.682, 533.446 L 639.873, 524.053 L 649.095, 509.894 z "/>
<path style="fill:rgb(17, 103, 228);fill-opacity:1.0;fill-rule:evenodd;stroke:rgb(0, 0, 0);stroke-width:3.0;" d="M 591.453, 504.507 L 588.015, 516.739 L 581.048, 514.775 L 578.588, 510.559 L 579.25, 503.619 L 583.579, 494.75 z "/>
<path style="fill:rgb(21, 121, 255);fill-opacity:1.0;fill-rule:evenodd;stroke:rgb(0, 0, 0);stroke-width:3.0;" d="M 595.313, 477.04 L 603.366, 505.754 L 572.427, 488.023 L 587.235, 469.455 z "/>
<path style="fill:rgb(255, 255, 8);fill-opacity:1.0;fill-rule:evenodd;stroke:rgb(0, 0, 0);stroke-width:3.0;" d="M 121.327, 576.981 L 120.313, 577.557 L 89.5905, 573.877 L 90.2211, 553.206 z "/>
<path style="fill:rgb(255, 255, 8);fill-opacity:1.0;fill-rule:evenodd;stroke:rgb(0, 0, 0);stroke-width:3.0;" d="M 622.831, 502.878 L 617.13, 513.643 L 603.366, 505.754 L 595.313, 477.04 z "/>
<path style="fill:rgb(207, 3, 13);fill-opacity:1.0;fill-rule:evenodd;stroke:rgb(0, 0, 0);stroke-width:3.0;" d="M 717.97, 483.931 L 720.849, 490.023 L 720.43, 508.464 L 677.397, 520.294 L 628.164, 460.101 z "/>
<path style="fill:rgb(255, 18, 197);fill-opacity:1.0;fill-rule:evenodd;stroke:rgb(0, 0, 0);stroke-width:3.0;" d="M 676.799, 382.375 L 646.117, 401.532 L 749.218, 311.471 z "/>
<path style="fill:rgb(255, 16, 70);fill-opacity:1.0;fill-rule:evenodd;stroke:rgb(0, 0, 0);stroke-width:3.0;" d="M 127.622, 21.9571 L 111.042, 33.3827 L 83.451, 26.2943 L 86.7565, 12.7508 L 120.552, 9.32381 z "/>
<path style="fill:rgb(34, 33, 255);fill-opacity:1.0;fill-rule:evenodd;stroke:rgb(0, 0, 0);stroke-width:3.0;" d="M 127.622, 21.9571 L 120.552, 9.32381 L 150.336, 6.30362 z "/>
<path style="fill:rgb(252, 4, 83);fill-opacity:1.0;fill-rule:evenodd;stroke:rgb(0, 0, 0);stroke-width:3.0;" d="M 85.9811, 53.9877 L 6.59962, 43.3286 L 7.64835, 41.7568 L 54.4049, 24.4908 z "/>
<path style="fill:rgb(199, 228, 217);fill-opacity:1.0;fill-rule:evenodd;stroke:rgb(0, 0, 0);stroke-width:3.0;" d="M 46.0495, 16.6856 L 54.4049, 24.4908 L 7.64835, 41.7568 L 27.5486, 11.9326 z "/>
<path style="fill:rgb(255, 220, 7);fill-opacity:1.0;fill-rule:evenodd;stroke:rgb(0, 0, 0);stroke-width:3.0;" d="M 317.235, 571.94 L 315.814, 574.973 L 285.487, 561.908 L 288.506, 560.215 L 300.874, 560.046 z "/>
<path style="fill:rgb(215, 4, 119);fill-opacity:1.0;fill-rule:evenodd;stroke:rgb(0, 0, 0);stroke-width:3.0;" d="M 477.9, 362.939 L 484.122, 366.132 L 475.081, 381.793 L 462.774, 400.608 L 462.23, 392.778 L 474.293, 361.944 z "/>
<path style="fill:rgb(22, 255, 204);fill-opacity:1.0;fill-rule:evenodd;stroke:rgb(0, 0, 0);stroke-width:3.0;" d="M 446.933, 525.897 L 429.111, 526.133 L 444.807, 514.408 L 476.676, 507.326 z "/>
<path style="fill:rgb(72, 108, 255);fill-opacity:1.0;fill-rule:evenodd;stroke:rgb(0, 0, 0);stroke-width:3.0;" d="M 589.185, 537.467 L 597.822, 547.792 L 588.933, 558.308 L 573.123, 562.126 L 547.717, 541.144 L 553.64, 538.781 L 583.67, 535.41 z "/>
<path style="fill:rgb(252, 204, 10);fill-opacity:1.0;fill-rule:evenodd;stroke:rgb(0, 0, 0);stroke-width:3.0;" d="M 595.368, 220.083 L 592.435, 223.498 L 583.13, 222.574 L 605.484, 174.651 z "/>
<path style="fill:rgb(255, 30, 70);fill-opacity:1.0;fill-rule:evenodd;stroke:rgb(0, 0, 0);stroke-width:3.0;" d="M 596.549, 171.393 L 580.831, 185.973 L 575.231, 184.842 L 584.298, 170.682 L 600.94, 163.785 z "/>
<path style="fill:rgb(18, 255, 209);fill-opacity:1.0;fill-rule:evenodd;stroke:rgb(0, 0, 0);stroke-width:3.0;" d="M 415.693, 457.177 L 416.179, 460.379 L 385.997, 482.324 L 379.846, 448.377 z "/>
<path style="fill:rgb(154, 10, 209);fill-opacity:1.0;fill-rule:evenodd;stroke:rgb(0, 0, 0);stroke-width:3.0;" d="M 548.956, 253.83 L 509.903, 321.476 L 503.161, 322.64 L 537.729, 250.174 z "/>
<path style="fill:rgb(154, 10, 209);fill-opacity:1.0;fill-rule:evenodd;stroke:rgb(0, 0, 0);stroke-width:3.0;" d="M 211.374, 578.858 L 210.18, 579.508 L 123.726, 589.393 L 110.845, 582.939 L 208.226, 527.592 z "/>
<path style="fill:rgb(154, 10, 209);fill-opacity:1.0;fill-rule:evenodd;stroke:rgb(0, 0, 0);stroke-width:3.0;" d="M 441.72, 563.964 L 437.945, 570.573 L 422.991, 576.723 L 424.028, 569.15 L 436.45, 557.932 z "/>
<path style="fill:rgb(30, 28, 255);fill-opacity:1.0;fill-rule:evenodd;stroke:rgb(0, 0, 0);stroke-width:3.0;" d="M 369.532, 568.563 L 326.577, 578.732 L 323.142, 576.235 L 352.528, 559.34 L 363.702, 559.188 z "/>
<path style="fill:rgb(97, 255, 234);fill-opacity:1.0;fill-rule:evenodd;stroke:rgb(0, 0, 0);stroke-width:3.0;" d="M 323.142, 576.235 L 300.874, 560.046 L 352.528, 559.34 z "/>
<path style="fill:rgb(14, 255, 112);fill-opacity:1.0;fill-rule:evenodd;stroke:rgb(0, 0, 0);stroke-width:3.0;" d="M 686.018, 84.8918 L 690.979, 101.699 L 677.382, 95.1315 L 683.184, 84.7216 z "/>
<path style="fill:rgb(170, 249, 255);fill-opacity:1.0;fill-rule:evenodd;stroke:rgb(0, 0, 0);stroke-width:3.0;" d="M 410.526, 560.904 L 392.588, 567.325 L 387.015, 568.408 L 390.725, 560.991 L 406.087, 551.4 z "/>
<path style="fill:rgb(67, 107, 228);fill-opacity:1.0;fill-rule:evenodd;stroke:rgb(0, 0, 0);stroke-width:3.0;" d="M 723.737, 483.361 L 722.062, 485.017 L 676.094, 472.819 L 698.305, 467.13 z "/>
</svg>