<?xml version="1.0" encoding="iso-8859-1" standalone="no"?>
<!DOCTYPE svg PUBLIC "-//W3C//DTD SVG 1.0//EN" "http://www.w3.org/TR/2001/REC-SVG-20010904/DTD/svg10.dtd">
<svg xmlns="http://www.w3.org/2000/svg" width="800" height="600">
<path style="fill:rgb(0, 0, 0);fill-opacity:0.0;fill-rule:evenodd;stroke:rgb(0, 0, 0);stroke-width:0.0;" d="M 0, 600 L 800, 600 L 800, 0 L 0, 0 z "/>
<path style="fill:rgb(240, 15, 58);fill-opacity:1.0;fill-rule:evenodd;stroke:rgb(0, 0, 0);stroke-width:3.0;" d="M 786.753, 237.508 L 781.116, 244.439 L 763.253, 194.191 z "/>
<path style="fill:rgb(240, 15, 58);fill-opacity:1.0;fill-rule:evenodd;stroke:rgb(0, 0, 0);stroke-width:3.0;" d="M 88.6829, 162.701 L 69.7483, 165.422 L 73.9872, 148.18 z "/>
<path style="fill:rgb(240, 15, 58);fill-opacity:1.0;fill-rule:evenodd;stroke:rgb(0, 0, 0);stroke-width:3.0;" d="M 587.381, 208.222 L 592.543, 220.011 L 544.812, 228.914 L 540.215, 217.018 L 547.75, 197.051 z "/>
<path style="fill:rgb(240, 15, 58);fill-opacity:1.0;fill-rule:evenodd;stroke:rgb(0, 0, 0);stroke-width:3.0;" d="M 464.001, 352.735 L 452.138, 365.202 L 435.35, 353.01 L 470.13, 332.711 z "/>
<path style="fill:rgb(240, 15, 58);fill-opacity:1.0;fill-rule:evenodd;stroke:rgb(0, 0, 0);stroke-width:3.0;" d="M 779.176, 238.981 L 781.116, 244.439 L 775.364, 251.512 L 749.208, 212.057 L 743.463, 192.824 z "/>
<path style="fill:rgb(240, 15, 58);fill-opacity:1.0;fill-rule:evenodd;stroke:rgb(0, 0, 0);stroke-width:3.0;" d="M 324.827, 215.748 L 321.702, 225.776 L 306.306, 219.653 L 305.894, 214.31 z "/>
<path style="fill:rgb(240, 15, 58);fill-opacity:1.0;fill-rule:evenodd;stroke:rgb(0, 0, 0);stroke-width:3.0;" d="M 212.387, 207.208 L 228.04, 210.895 L 190.368, 369.849 L 113.868, 234.116 L 164.4, 203.563 z "/>
<path style="fill:rgb(255, 1, 59);fill-opacity:1.0;fill-rule:evenodd;stroke:rgb(0, 0, 0);stroke-width:3.0;" d="M 427.444, 221.719 L 367.375, 198.109 L 407.073, 112.965 z "/>
<path style="fill:rgb(255, 1, 59);fill-opacity:1.0;fill-rule:evenodd;stroke:rgb(0, 0, 0);stroke-width:3.0;" d="M 265.959, 434.053 L 264.204, 438.271 L 247.171, 470.635 L 224.265, 429.992 L 232.627, 423.1 z "/>
<path style="fill:rgb(255, 1, 59);fill-opacity:1.0;fill-rule:evenodd;stroke:rgb(0, 0, 0);stroke-width:3.0;" d="M 125.758, 476.087 L 113.826, 482.474 L 106.584, 475.066 L 113.045, 465.243 z "/>
<path style="fill:rgb(255, 1, 59);fill-opacity:1.0;fill-rule:evenodd;stroke:rgb(0, 0, 0);stroke-width:3.0;" d="M 434.757, 151.739 L 421.855, 191.882 L 413.343, 146.436 L 429.418, 141.86 z "/>
<path style="fill:rgb(175, 255, 7);fill-opacity:1.0;fill-rule:evenodd;stroke:rgb(0, 0, 0);stroke-width:3.0;" d="M 298.975, 532.653 L 299.668, 541.135 L 284.308, 536.526 L 277.265, 524.03 z "/>
<path style="fill:rgb(175, 255, 7);fill-opacity:1.0;fill-rule:evenodd;stroke:rgb(0, 0, 0);stroke-width:3.0;" d="M 71.7286, 61.7936 L 51.293, 36.4913 L 111.614, 27.7127 z "/>
<path style="fill:rgb(64, 226, 255);fill-opacity:1.0;fill-rule:evenodd;stroke:rgb(0, 0, 0);stroke-width:3.0;" d="M 707.043, 70.9 L 684.141, 106.771 L 671.233, 98.6108 L 679.697, 62.8332 L 698.492, 42.2731 z "/>
<path style="fill:rgb(220, 1, 255);fill-opacity:1.0;fill-rule:evenodd;stroke:rgb(0, 0, 0);stroke-width:3.0;" d="M 503.557, 314.167 L 433.947, 498.644 L 405.882, 542.601 L 478.414, 305.648 z "/>
<path style="fill:rgb(220, 1, 255);fill-opacity:1.0;fill-rule:evenodd;stroke:rgb(0, 0, 0);stroke-width:3.0;" d="M 415.05, 418.807 L 410.012, 436.32 L 399.307, 438.885 L 396.037, 432.82 L 407.151, 415.658 z "/>
<path style="fill:rgb(220, 1, 255);fill-opacity:1.0;fill-rule:evenodd;stroke:rgb(0, 0, 0);stroke-width:3.0;" d="M 56.9498, 301.054 L 71.5106, 323.123 L 58.5644, 322.055 L 32.3625, 291.768 z "/>
<path style="fill:rgb(220, 1, 255);fill-opacity:1.0;fill-rule:evenodd;stroke:rgb(0, 0, 0);stroke-width:3.0;" d="M 110.968, 110.378 L 76.8045, 68.0782 L 143.314, 25.4163 z "/>
<path style="fill:rgb(231, 52, 207);fill-opacity:1.0;fill-rule:evenodd;stroke:rgb(0, 0, 0);stroke-width:3.0;" d="M 192.854, 197.156 L 196.299, 185.876 L 233.894, 173.446 z "/>
<path style="fill:rgb(231, 52, 207);fill-opacity:1.0;fill-rule:evenodd;stroke:rgb(0, 0, 0);stroke-width:3.0;" d="M 486.406, 228.02 L 494.444, 253.28 L 492.846, 258.503 L 483.834, 258.252 L 469.094, 245.862 L 483.381, 227.79 z "/>
<path style="fill:rgb(231, 52, 207);fill-opacity:1.0;fill-rule:evenodd;stroke:rgb(0, 0, 0);stroke-width:3.0;" d="M 114.899, 233.493 L 73.971, 258.24 L 73.8684, 257.115 L 105.737, 226.566 z "/>
<path style="fill:rgb(231, 52, 207);fill-opacity:1.0;fill-rule:evenodd;stroke:rgb(0, 0, 0);stroke-width:3.0;" d="M 132.869, 24.6194 L 96.1603, 29.9617 L 102.123, 21.3321 L 116.662, 16.0289 z "/>
<path style="fill:rgb(231, 52, 207);fill-opacity:1.0;fill-rule:evenodd;stroke:rgb(0, 0, 0);stroke-width:3.0;" d="M 470.13, 332.711 L 435.35, 353.01 L 422.439, 343.633 L 476.868, 310.699 z "/>
<path style="fill:rgb(231, 52, 207);fill-opacity:1.0;fill-rule:evenodd;stroke:rgb(0, 0, 0);stroke-width:3.0;" d="M 364.899, 218.791 L 301.074, 213.944 L 240.178, 183.526 L 247.158, 180.371 z "/>
<path style="fill:rgb(243, 249, 18);fill-opacity:1.0;fill-rule:evenodd;stroke:rgb(0, 0, 0);stroke-width:3.0;" d="M 333.52, 124.587 L 306.808, 153.411 L 242.169, 182.626 L 212.459, 185.83 L 322.045, 122.517 z "/>
<path style="fill:rgb(243, 249, 18);fill-opacity:1.0;fill-rule:evenodd;stroke:rgb(0, 0, 0);stroke-width:3.0;" d="M 567.943, 288.768 L 561.335, 299.118 L 527.3, 251.246 L 540.215, 217.018 z "/>
<path style="fill:rgb(243, 249, 18);fill-opacity:1.0;fill-rule:evenodd;stroke:rgb(0, 0, 0);stroke-width:3.0;" d="M 182.637, 556.184 L 158.59, 541.825 L 161.751, 520.686 z "/>
<path style="fill:rgb(94, 7, 240);fill-opacity:1.0;fill-rule:evenodd;stroke:rgb(0, 0, 0);stroke-width:3.0;" d="M 229.787, 211.306 L 244.589, 427.031 L 217.597, 418.162 L 190.368, 369.849 L 228.04, 210.895 z "/>
<path style="fill:rgb(249, 25, 27);fill-opacity:1.0;fill-rule:evenodd;stroke:rgb(0, 0, 0);stroke-width:3.0;" d="M 786.634, 268.513 L 778.655, 289.986 L 766.57, 270.181 L 749.208, 212.057 z "/>
<path style="fill:rgb(249, 25, 27);fill-opacity:1.0;fill-rule:evenodd;stroke:rgb(0, 0, 0);stroke-width:3.0;" d="M 384.995, 238.42 L 356.576, 245.86 L 350.56, 233.34 L 379.026, 229.971 z "/>
<path style="fill:rgb(249, 25, 27);fill-opacity:1.0;fill-rule:evenodd;stroke:rgb(0, 0, 0);stroke-width:3.0;" d="M 212.023, 585.094 L 203.815, 592.177 L 170.12, 534.91 z "/>
<path style="fill:rgb(249, 25, 27);fill-opacity:1.0;fill-rule:evenodd;stroke:rgb(0, 0, 0);stroke-width:3.0;" d="M 43.1011, 51.4912 L 47.5543, 65.7905 L 26.8466, 82.7487 L 11.0749, 82.4558 L 17.1791, 51.5474 L 20.3691, 48.8319 z "/>
<path style="fill:rgb(249, 25, 27);fill-opacity:1.0;fill-rule:evenodd;stroke:rgb(0, 0, 0);stroke-width:3.0;" d="M 324.825, 233.69 L 309.115, 273.79 L 284.69, 237.022 L 287.988, 225.014 z "/>
<path style="fill:rgb(249, 25, 27);fill-opacity:1.0;fill-rule:evenodd;stroke:rgb(0, 0, 0);stroke-width:3.0;" d="M 585.728, 504.528 L 390.808, 591.845 L 405.882, 542.601 L 509.059, 380.998 z "/>
<path style="fill:rgb(249, 25, 27);fill-opacity:1.0;fill-rule:evenodd;stroke:rgb(0, 0, 0);stroke-width:3.0;" d="M 706.284, 26.5198 L 695.144, 31.066 L 693.355, 25.0765 L 692.033, 14.4274 L 704.559, 11.6273 z "/>
<path style="fill:rgb(249, 25, 27);fill-opacity:1.0;fill-rule:evenodd;stroke:rgb(0, 0, 0);stroke-width:3.0;" d="M 244.969, 214.882 L 273.058, 416.981 L 265.959, 434.053 L 244.589, 427.031 L 229.787, 211.306 z "/>
<path style="fill:rgb(8, 157, 220);fill-opacity:1.0;fill-rule:evenodd;stroke:rgb(0, 0, 0);stroke-width:3.0;" d="M 669.676, 16.6726 L 683.732, 45.7791 L 672.336, 93.9449 L 623.882, 11.7588 z "/>
<path style="fill:rgb(112, 255, 98);fill-opacity:1.0;fill-rule:evenodd;stroke:rgb(0, 0, 0);stroke-width:3.0;" d="M 172.69, 115.983 L 132.705, 135.326 L 117.803, 92.4252 L 143.314, 25.4163 L 143.891, 25.0465 z "/>
<path style="fill:rgb(234, 209, 25);fill-opacity:1.0;fill-rule:evenodd;stroke:rgb(0, 0, 0);stroke-width:3.0;" d="M 483.381, 227.79 L 466.451, 249.206 L 443.586, 248.85 L 409.703, 225.244 L 411.627, 222.34 z "/>
<path style="fill:rgb(252, 9, 9);fill-opacity:1.0;fill-rule:evenodd;stroke:rgb(0, 0, 0);stroke-width:3.0;" d="M 411.627, 222.34 L 408.915, 226.433 L 375.786, 230.354 L 370.856, 229.897 L 376.005, 219.635 z "/>
<path style="fill:rgb(52, 179, 243);fill-opacity:1.0;fill-rule:evenodd;stroke:rgb(0, 0, 0);stroke-width:3.0;" d="M 27.0947, 286.583 L 21.3074, 290.082 L 6.53292, 290.791 L 14.6107, 281.705 z "/>
<path style="fill:rgb(165, 10, 255);fill-opacity:1.0;fill-rule:evenodd;stroke:rgb(0, 0, 0);stroke-width:3.0;" d="M 120.523, 558.575 L 96.009, 557.285 L 101.905, 475.29 z "/>
<path style="fill:rgb(199, 237, 237);fill-opacity:1.0;fill-rule:evenodd;stroke:rgb(0, 0, 0);stroke-width:3.0;" d="M 440.651, 429.014 L 423.751, 484.223 L 422.329, 481.585 L 435.908, 427.123 z "/>
<path style="fill:rgb(255, 243, 121);fill-opacity:1.0;fill-rule:evenodd;stroke:rgb(0, 0, 0);stroke-width:3.0;" d="M 72.2685, 255.239 L 73.9192, 257.672 L 73.971, 258.24 L 66.1087, 262.993 L 50.0064, 266.316 L 53.325, 244.154 z "/>
<path style="fill:rgb(255, 243, 121);fill-opacity:1.0;fill-rule:evenodd;stroke:rgb(0, 0, 0);stroke-width:3.0;" d="M 228.978, 37.9391 L 225.091, 41.7979 L 192.071, 65.0561 L 172.136, 44.622 L 179.188, 24.8814 z "/>
<path style="fill:rgb(255, 243, 121);fill-opacity:1.0;fill-rule:evenodd;stroke:rgb(0, 0, 0);stroke-width:3.0;" d="M 367.396, 122.24 L 350.683, 133.581 L 350.605, 133.616 L 361.634, 98.8964 z "/>
<path style="fill:rgb(255, 243, 121);fill-opacity:1.0;fill-rule:evenodd;stroke:rgb(0, 0, 0);stroke-width:3.0;" d="M 521.767, 164.02 L 517.728, 156.262 L 492.631, 69.4252 L 560.051, 38.9535 z "/>
<path style="fill:rgb(255, 243, 121);fill-opacity:1.0;fill-rule:evenodd;stroke:rgb(0, 0, 0);stroke-width:3.0;" d="M 247.396, 31.5031 L 263.673, 38.3179 L 267.758, 48.1092 L 192.646, 28.4107 z "/>
<path style="fill:rgb(255, 243, 121);fill-opacity:1.0;fill-rule:evenodd;stroke:rgb(0, 0, 0);stroke-width:3.0;" d="M 479.82, 105.444 L 478.071, 154.673 L 425.969, 99.5545 L 451.278, 88.1155 z "/>
<path style="fill:rgb(255, 243, 121);fill-opacity:1.0;fill-rule:evenodd;stroke:rgb(0, 0, 0);stroke-width:3.0;" d="M 752.59, 38.3254 L 727.002, 43.46 L 720.814, 29.8938 L 769.67, 5.84722 z "/>
<path style="fill:rgb(220, 24, 57);fill-opacity:1.0;fill-rule:evenodd;stroke:rgb(0, 0, 0);stroke-width:3.0;" d="M 353.019, 268.363 L 340.097, 279.601 L 328.724, 283.122 L 335.674, 266.409 L 347.785, 263.158 z "/>
<path style="fill:rgb(220, 24, 57);fill-opacity:1.0;fill-rule:evenodd;stroke:rgb(0, 0, 0);stroke-width:3.0;" d="M 49.4838, 52.2378 L 19.9749, 48.7858 L 19.1082, 41.1753 L 40.0057, 38.134 z "/>
<path style="fill:rgb(220, 24, 57);fill-opacity:1.0;fill-rule:evenodd;stroke:rgb(0, 0, 0);stroke-width:3.0;" d="M 631.873, 334.864 L 520.539, 363.016 L 586.711, 259.373 z "/>
<path style="fill:rgb(220, 24, 57);fill-opacity:1.0;fill-rule:evenodd;stroke:rgb(0, 0, 0);stroke-width:3.0;" d="M 600.394, 237.942 L 567.943, 288.768 L 544.812, 228.914 L 592.543, 220.011 z "/>
<path style="fill:rgb(220, 24, 57);fill-opacity:1.0;fill-rule:evenodd;stroke:rgb(0, 0, 0);stroke-width:3.0;" d="M 19.107, 23.4579 L 13.9195, 41.9304 L 11.9502, 42.217 L 7.17976, 35.2491 L 13.8149, 13.2653 z "/>
<path style="fill:rgb(255, 255, 51);fill-opacity:1.0;fill-rule:evenodd;stroke:rgb(0, 0, 0);stroke-width:3.0;" d="M 296.246, 322.492 L 294.61, 344.141 L 272.83, 366.408 L 290.568, 321.132 z "/>
<path style="fill:rgb(255, 255, 51);fill-opacity:1.0;fill-rule:evenodd;stroke:rgb(0, 0, 0);stroke-width:3.0;" d="M 379.434, 270.921 L 374.725, 268.346 L 385.876, 244.299 L 396.79, 235.331 L 404.326, 233.358 z "/>
<path style="fill:rgb(255, 255, 51);fill-opacity:1.0;fill-rule:evenodd;stroke:rgb(0, 0, 0);stroke-width:3.0;" d="M 791.705, 121.861 L 788.102, 132.939 L 766.971, 136.718 L 760.376, 131.301 L 782.285, 111.507 z "/>
<path style="fill:rgb(255, 255, 51);fill-opacity:1.0;fill-rule:evenodd;stroke:rgb(0, 0, 0);stroke-width:3.0;" d="M 690.718, 16.2505 L 683.732, 45.7791 L 672.612, 22.7529 L 689.845, 13.3265 z "/>
<path style="fill:rgb(246, 146, 231);fill-opacity:1.0;fill-rule:evenodd;stroke:rgb(0, 0, 0);stroke-width:3.0;" d="M 155.227, 307.5 L 104.648, 319.069 L 91.3469, 314.046 L 150.598, 299.286 z "/>
<path style="fill:rgb(246, 146, 231);fill-opacity:1.0;fill-rule:evenodd;stroke:rgb(0, 0, 0);stroke-width:3.0;" d="M 229.919, 174.76 L 206.562, 182.483 L 212.261, 174.625 L 225.824, 166.424 z "/>
<path style="fill:rgb(246, 146, 231);fill-opacity:1.0;fill-rule:evenodd;stroke:rgb(0, 0, 0);stroke-width:3.0;" d="M 164.196, 36.4832 L 183.964, 56.7464 L 151.458, 48.9417 L 144.696, 27.5887 z "/>
<path style="fill:rgb(246, 146, 231);fill-opacity:1.0;fill-rule:evenodd;stroke:rgb(0, 0, 0);stroke-width:3.0;" d="M 103.88, 101.602 L 102.877, 106.038 L 66.1429, 124.611 L 15.1819, 96.7263 L 68.4266, 57.7052 z "/>
<path style="fill:rgb(246, 146, 231);fill-opacity:1.0;fill-rule:evenodd;stroke:rgb(0, 0, 0);stroke-width:3.0;" d="M 91.5405, 216.039 L 63.2205, 227.098 L 49.8011, 224.14 L 77.9212, 212.045 z "/>
<path style="fill:rgb(223, 19, 29);fill-opacity:1.0;fill-rule:evenodd;stroke:rgb(0, 0, 0);stroke-width:3.0;" d="M 407.073, 112.965 L 367.375, 198.109 L 282.084, 164.585 L 406.232, 108.475 z "/>
<path style="fill:rgb(223, 19, 29);fill-opacity:1.0;fill-rule:evenodd;stroke:rgb(0, 0, 0);stroke-width:3.0;" d="M 126.9, 226.237 L 114.899, 233.493 L 105.531, 226.41 L 117.515, 218.889 z "/>
<path style="fill:rgb(223, 19, 29);fill-opacity:1.0;fill-rule:evenodd;stroke:rgb(0, 0, 0);stroke-width:3.0;" d="M 535.864, 315.138 L 545.377, 321.538 L 535.519, 330.244 L 526.016, 316.376 L 526.275, 311.544 z "/>
<path style="fill:rgb(223, 19, 29);fill-opacity:1.0;fill-rule:evenodd;stroke:rgb(0, 0, 0);stroke-width:3.0;" d="M 125.962, 157.343 L 88.6829, 162.701 L 30.2628, 104.978 z "/>
<path style="fill:rgb(33, 184, 255);fill-opacity:1.0;fill-rule:evenodd;stroke:rgb(0, 0, 0);stroke-width:3.0;" d="M 526.423, 308.787 L 524.387, 346.733 L 497.286, 330.786 L 509.805, 297.608 z "/>
<path style="fill:rgb(255, 65, 189);fill-opacity:1.0;fill-rule:evenodd;stroke:rgb(0, 0, 0);stroke-width:3.0;" d="M 219.601, 578.556 L 212.023, 585.094 L 170.12, 534.91 L 161.374, 520.045 L 167.56, 517.155 z "/>
<path style="fill:rgb(255, 65, 189);fill-opacity:1.0;fill-rule:evenodd;stroke:rgb(0, 0, 0);stroke-width:3.0;" d="M 167.869, 194.103 L 158.721, 196.722 L 132.307, 200.142 L 129.834, 196.834 L 135.39, 193.513 L 155.86, 191.088 z "/>
<path style="fill:rgb(255, 65, 189);fill-opacity:1.0;fill-rule:evenodd;stroke:rgb(0, 0, 0);stroke-width:3.0;" d="M 271.342, 211.686 L 274.532, 221.845 L 225.731, 210.351 L 226.145, 208.253 z "/>
<path style="fill:rgb(255, 65, 189);fill-opacity:1.0;fill-rule:evenodd;stroke:rgb(0, 0, 0);stroke-width:3.0;" d="M 309.115, 273.79 L 293.755, 312.997 L 274.13, 275.467 L 284.69, 237.022 z "/>
<path style="fill:rgb(255, 65, 189);fill-opacity:1.0;fill-rule:evenodd;stroke:rgb(0, 0, 0);stroke-width:3.0;" d="M 83.8245, 57.9706 L 81.4733, 53.4669 L 111.614, 27.7127 L 115.706, 27.1172 z "/>
<path style="fill:rgb(255, 65, 189);fill-opacity:1.0;fill-rule:evenodd;stroke:rgb(0, 0, 0);stroke-width:3.0;" d="M 766.143, 186.075 L 761.121, 190.26 L 730.638, 134.071 L 730.658, 133.355 z "/>
<path style="fill:rgb(252, 252, 42);fill-opacity:1.0;fill-rule:evenodd;stroke:rgb(0, 0, 0);stroke-width:3.0;" d="M 528.019, 348.87 L 507.578, 376.144 L 502.115, 359.851 L 511.319, 339.044 z "/>
<path style="fill:rgb(252, 252, 42);fill-opacity:1.0;fill-rule:evenodd;stroke:rgb(0, 0, 0);stroke-width:3.0;" d="M 151.281, 211.496 L 130.51, 210.735 L 146.179, 200.901 L 177.743, 195.496 z "/>
<path style="fill:rgb(255, 255, 11);fill-opacity:1.0;fill-rule:evenodd;stroke:rgb(0, 0, 0);stroke-width:3.0;" d="M 447.556, 175.416 L 458.578, 221.832 L 444.432, 224.832 L 433.193, 223.978 L 427.444, 221.719 L 421.855, 191.882 L 430.86, 163.865 L 439.19, 159.94 z "/>
<path style="fill:rgb(255, 255, 11);fill-opacity:1.0;fill-rule:evenodd;stroke:rgb(0, 0, 0);stroke-width:3.0;" d="M 287.988, 225.014 L 274.13, 275.467 L 245.881, 221.443 L 244.969, 214.882 z "/>
<path style="fill:rgb(255, 255, 11);fill-opacity:1.0;fill-rule:evenodd;stroke:rgb(0, 0, 0);stroke-width:3.0;" d="M 113.045, 465.243 L 106.584, 475.066 L 102.24, 470.623 L 103.229, 456.87 z "/>
<path style="fill:rgb(255, 255, 11);fill-opacity:1.0;fill-rule:evenodd;stroke:rgb(0, 0, 0);stroke-width:3.0;" d="M 423.751, 484.223 L 413.774, 516.817 L 340.46, 518.402 L 296.669, 395.819 L 340.459, 329.737 z "/>
<path style="fill:rgb(255, 255, 11);fill-opacity:1.0;fill-rule:evenodd;stroke:rgb(0, 0, 0);stroke-width:3.0;" d="M 378.468, 272.38 L 374.778, 277.947 L 338.884, 321.584 L 349.841, 278.758 L 362.533, 265.447 z "/>
<path style="fill:rgb(255, 255, 11);fill-opacity:1.0;fill-rule:evenodd;stroke:rgb(0, 0, 0);stroke-width:3.0;" d="M 241.398, 460.392 L 242.829, 462.931 L 198.815, 443.766 L 195.377, 437.206 L 197.35, 434.98 z "/>
<path style="fill:rgb(255, 255, 13);fill-opacity:1.0;fill-rule:evenodd;stroke:rgb(0, 0, 0);stroke-width:3.0;" d="M 256.651, 210.57 L 241.26, 209.401 L 242.151, 192.424 L 246.395, 190.765 z "/>
<path style="fill:rgb(255, 255, 13);fill-opacity:1.0;fill-rule:evenodd;stroke:rgb(0, 0, 0);stroke-width:3.0;" d="M 462.603, 453.76 L 454.41, 444.413 L 460.154, 429.19 L 499.28, 396.314 z "/>
<path style="fill:rgb(255, 255, 29);fill-opacity:1.0;fill-rule:evenodd;stroke:rgb(0, 0, 0);stroke-width:3.0;" d="M 139.876, 146.17 L 115.732, 151.745 L 101.345, 143.873 L 128.029, 131.501 z "/>
<path style="fill:rgb(13, 2, 255);fill-opacity:1.0;fill-rule:evenodd;stroke:rgb(0, 0, 0);stroke-width:3.0;" d="M 423.147, 130.259 L 418.542, 144.956 L 413.343, 146.436 L 406.232, 108.475 L 410.363, 106.608 z "/>
<path style="fill:rgb(255, 5, 33);fill-opacity:1.0;fill-rule:evenodd;stroke:rgb(0, 0, 0);stroke-width:3.0;" d="M 319.73, 122.1 L 303.864, 119.239 L 323.055, 107.635 z "/>
<path style="fill:rgb(252, 237, 27);fill-opacity:1.0;fill-rule:evenodd;stroke:rgb(0, 0, 0);stroke-width:3.0;" d="M 291.341, 403.859 L 285.379, 387.353 L 285.987, 385.891 L 374.778, 277.947 z "/>
<path style="fill:rgb(255, 0, 123);fill-opacity:1.0;fill-rule:evenodd;stroke:rgb(0, 0, 0);stroke-width:3.0;" d="M 451.002, 466.397 L 450.613, 472.54 L 436.609, 494.473 L 435.987, 493.236 L 448.211, 460.84 z "/>
<path style="fill:rgb(255, 0, 123);fill-opacity:1.0;fill-rule:evenodd;stroke:rgb(0, 0, 0);stroke-width:3.0;" d="M 94.1854, 227.346 L 93.2872, 223.071 L 98.7222, 215.431 L 113.734, 206.457 L 116.664, 205.956 z "/>
<path style="fill:rgb(223, 50, 136);fill-opacity:1.0;fill-rule:evenodd;stroke:rgb(0, 0, 0);stroke-width:3.0;" d="M 297.09, 55.8016 L 236.337, 85.1921 L 203.918, 77.1993 L 196.787, 69.8901 L 228.978, 37.9391 z "/>
<path style="fill:rgb(223, 50, 136);fill-opacity:1.0;fill-rule:evenodd;stroke:rgb(0, 0, 0);stroke-width:3.0;" d="M 560.058, 301.118 L 546.527, 322.312 L 509.805, 297.608 L 520.766, 268.56 z "/>
<path style="fill:rgb(223, 50, 136);fill-opacity:1.0;fill-rule:evenodd;stroke:rgb(0, 0, 0);stroke-width:3.0;" d="M 166.408, 327.338 L 145.949, 342.888 L 132.639, 317.489 L 141.598, 311.434 L 156.234, 309.285 z "/>
<path style="fill:rgb(223, 50, 136);fill-opacity:1.0;fill-rule:evenodd;stroke:rgb(0, 0, 0);stroke-width:3.0;" d="M 95.0945, 140.453 L 66.1429, 124.611 L 102.877, 106.038 z "/>
<path style="fill:rgb(223, 50, 136);fill-opacity:1.0;fill-rule:evenodd;stroke:rgb(0, 0, 0);stroke-width:3.0;" d="M 174.383, 188.895 L 126.046, 194.619 L 49.4095, 168.345 L 146.515, 154.389 z "/>
<path style="fill:rgb(103, 199, 240);fill-opacity:1.0;fill-rule:evenodd;stroke:rgb(0, 0, 0);stroke-width:3.0;" d="M 424.896, 62.4309 L 406.654, 57.0888 L 446.199, 33.1781 z "/>
<path style="fill:rgb(103, 199, 240);fill-opacity:1.0;fill-rule:evenodd;stroke:rgb(0, 0, 0);stroke-width:3.0;" d="M 721.028, 117.717 L 775.076, 298.655 L 640.674, 332.639 L 590.747, 253.051 L 678.642, 115.383 z "/>
<path style="fill:rgb(71, 255, 209);fill-opacity:1.0;fill-rule:evenodd;stroke:rgb(0, 0, 0);stroke-width:3.0;" d="M 25.6637, 270.141 L 13.8858, 266.142 L 46.8555, 246.434 z "/>
<path style="fill:rgb(71, 255, 209);fill-opacity:1.0;fill-rule:evenodd;stroke:rgb(0, 0, 0);stroke-width:3.0;" d="M 293.755, 312.997 L 268.854, 376.556 L 262.002, 252.273 z "/>
<path style="fill:rgb(71, 255, 209);fill-opacity:1.0;fill-rule:evenodd;stroke:rgb(0, 0, 0);stroke-width:3.0;" d="M 132.766, 32.1823 L 100.376, 52.9586 L 118.321, 26.7366 L 119.255, 26.6007 z "/>
<path style="fill:rgb(123, 255, 228);fill-opacity:1.0;fill-rule:evenodd;stroke:rgb(0, 0, 0);stroke-width:3.0;" d="M 289.802, 213.088 L 348.19, 236.313 L 347.099, 238.936 L 304.455, 228.892 L 285.423, 212.755 z "/>
<path style="fill:rgb(123, 255, 228);fill-opacity:1.0;fill-rule:evenodd;stroke:rgb(0, 0, 0);stroke-width:3.0;" d="M 63.8365, 52.022 L 62.0728, 51.7586 L 40.0457, 38.1282 L 51.293, 36.4913 z "/>
<path style="fill:rgb(255, 179, 38);fill-opacity:1.0;fill-rule:evenodd;stroke:rgb(0, 0, 0);stroke-width:3.0;" d="M 343.957, 113.326 L 333.52, 124.587 L 319.73, 122.1 L 323.055, 107.635 L 351.562, 90.3989 z "/>
<path style="fill:rgb(255, 179, 38);fill-opacity:1.0;fill-rule:evenodd;stroke:rgb(0, 0, 0);stroke-width:3.0;" d="M 298.975, 532.653 L 277.265, 524.03 L 274.892, 519.819 L 297.885, 519.322 z "/>
<path style="fill:rgb(97, 70, 255);fill-opacity:1.0;fill-rule:evenodd;stroke:rgb(0, 0, 0);stroke-width:3.0;" d="M 165.931, 340.617 L 168.04, 358.503 L 163.24, 375.882 L 145.949, 342.888 L 158.958, 333.001 z "/>
<path style="fill:rgb(148, 10, 234);fill-opacity:1.0;fill-rule:evenodd;stroke:rgb(0, 0, 0);stroke-width:3.0;" d="M 90.2409, 198.86 L 78.3088, 200.273 L 56.7445, 200.494 L 52.1922, 195.136 z "/>
<path style="fill:rgb(148, 10, 234);fill-opacity:1.0;fill-rule:evenodd;stroke:rgb(0, 0, 0);stroke-width:3.0;" d="M 145.525, 493.109 L 106.112, 494.109 L 104.613, 487.406 L 133.174, 472.117 z "/>
<path style="fill:rgb(148, 10, 234);fill-opacity:1.0;fill-rule:evenodd;stroke:rgb(0, 0, 0);stroke-width:3.0;" d="M 291.36, 372.969 L 292.992, 345.795 L 309.813, 328.597 z "/>
<path style="fill:rgb(148, 10, 234);fill-opacity:1.0;fill-rule:evenodd;stroke:rgb(0, 0, 0);stroke-width:3.0;" d="M 214.358, 87.9007 L 204.77, 99.1424 L 204.556, 99.2102 L 199.79, 72.9687 z "/>
<path style="fill:rgb(255, 231, 78);fill-opacity:1.0;fill-rule:evenodd;stroke:rgb(0, 0, 0);stroke-width:3.0;" d="M 561.335, 299.118 L 560.058, 301.118 L 520.766, 268.56 L 527.3, 251.246 z "/>
<path style="fill:rgb(255, 231, 78);fill-opacity:1.0;fill-rule:evenodd;stroke:rgb(0, 0, 0);stroke-width:3.0;" d="M 307.318, 577.353 L 273.904, 587.05 L 273.483, 586.246 L 303.668, 570.877 z "/>
<path style="fill:rgb(14, 26, 197);fill-opacity:1.0;fill-rule:evenodd;stroke:rgb(0, 0, 0);stroke-width:3.0;" d="M 407.221, 228.99 L 384.869, 238.243 L 379.026, 229.971 L 408.915, 226.433 z "/>
<path style="fill:rgb(14, 26, 197);fill-opacity:1.0;fill-rule:evenodd;stroke:rgb(0, 0, 0);stroke-width:3.0;" d="M 389.077, 537.09 L 386.11, 540.968 L 380.06, 534.927 L 373.151, 523.254 L 382.7, 523.196 z "/>
<path style="fill:rgb(14, 26, 197);fill-opacity:1.0;fill-rule:evenodd;stroke:rgb(0, 0, 0);stroke-width:3.0;" d="M 325.031, 338.425 L 285.987, 385.891 L 315.607, 314.664 L 322.224, 307.724 z "/>
<path style="fill:rgb(14, 26, 197);fill-opacity:1.0;fill-rule:evenodd;stroke:rgb(0, 0, 0);stroke-width:3.0;" d="M 470.566, 217.986 L 467.511, 226.585 L 459.563, 225.981 L 457.302, 216.458 L 467.37, 212.073 z "/>
<path style="fill:rgb(220, 89, 102);fill-opacity:1.0;fill-rule:evenodd;stroke:rgb(0, 0, 0);stroke-width:3.0;" d="M 509.155, 380.846 L 499.28, 396.314 L 460.154, 429.19 L 494.682, 337.687 z "/>
<path style="fill:rgb(202, 44, 255);fill-opacity:1.0;fill-rule:evenodd;stroke:rgb(0, 0, 0);stroke-width:3.0;" d="M 362.533, 265.447 L 315.607, 314.664 L 324.574, 293.103 L 358.426, 263.66 z "/>
<path style="fill:rgb(202, 44, 255);fill-opacity:1.0;fill-rule:evenodd;stroke:rgb(0, 0, 0);stroke-width:3.0;" d="M 513.24, 191.878 L 501.819, 229.19 L 475.543, 227.195 L 410.363, 106.608 L 425.969, 99.5545 z "/>
<path style="fill:rgb(255, 72, 234);fill-opacity:1.0;fill-rule:evenodd;stroke:rgb(0, 0, 0);stroke-width:3.0;" d="M 330.807, 141.707 L 330.341, 142.775 L 306.808, 153.411 L 325.012, 133.768 z "/>
<path style="fill:rgb(255, 72, 234);fill-opacity:1.0;fill-rule:evenodd;stroke:rgb(0, 0, 0);stroke-width:3.0;" d="M 400.487, 413.001 L 388.479, 418.801 L 381.207, 405.314 z "/>
<path style="fill:rgb(255, 255, 24);fill-opacity:1.0;fill-rule:evenodd;stroke:rgb(0, 0, 0);stroke-width:3.0;" d="M 50.7809, 203.533 L 20.2355, 207.15 L 14.4532, 203.812 L 24.4443, 200.825 L 30.0005, 200.768 z "/>
<path style="fill:rgb(255, 255, 24);fill-opacity:1.0;fill-rule:evenodd;stroke:rgb(0, 0, 0);stroke-width:3.0;" d="M 59.3882, 206.611 L 77.9212, 212.045 L 52.5576, 222.954 L 42.1102, 205.053 z "/>
<path style="fill:rgb(255, 215, 7);fill-opacity:1.0;fill-rule:evenodd;stroke:rgb(0, 0, 0);stroke-width:3.0;" d="M 122.233, 215.928 L 119.114, 205.536 L 146.179, 200.901 z "/>
<path style="fill:rgb(255, 215, 7);fill-opacity:1.0;fill-rule:evenodd;stroke:rgb(0, 0, 0);stroke-width:3.0;" d="M 417.799, 454.834 L 415.713, 469.315 L 399.307, 438.885 L 409.216, 436.511 z "/>
<path style="fill:rgb(255, 215, 7);fill-opacity:1.0;fill-rule:evenodd;stroke:rgb(0, 0, 0);stroke-width:3.0;" d="M 285.94, 539.423 L 285.866, 541.899 L 261.986, 521.901 L 272.824, 516.151 z "/>
<path style="fill:rgb(255, 215, 7);fill-opacity:1.0;fill-rule:evenodd;stroke:rgb(0, 0, 0);stroke-width:3.0;" d="M 782.677, 149.62 L 774.769, 173.932 L 750.04, 140.639 L 760.376, 131.301 z "/>
<path style="fill:rgb(255, 215, 7);fill-opacity:1.0;fill-rule:evenodd;stroke:rgb(0, 0, 0);stroke-width:3.0;" d="M 327.771, 264.089 L 310.565, 325.924 L 290.568, 321.132 L 313.655, 262.202 z "/>
<path style="fill:rgb(255, 215, 7);fill-opacity:1.0;fill-rule:evenodd;stroke:rgb(0, 0, 0);stroke-width:3.0;" d="M 335.529, 236.211 L 327.771, 264.089 L 313.655, 262.202 L 324.825, 233.69 z "/>
<path style="fill:rgb(255, 215, 7);fill-opacity:1.0;fill-rule:evenodd;stroke:rgb(0, 0, 0);stroke-width:3.0;" d="M 210.388, 405.37 L 190.568, 428.029 L 170.404, 389.552 L 184.82, 360.005 z "/>
<path style="fill:rgb(255, 8, 6);fill-opacity:1.0;fill-rule:evenodd;stroke:rgb(0, 0, 0);stroke-width:3.0;" d="M 184.82, 360.005 L 170.404, 389.552 L 163.24, 375.882 L 173.28, 339.53 z "/>
<path style="fill:rgb(234, 217, 223);fill-opacity:1.0;fill-rule:evenodd;stroke:rgb(0, 0, 0);stroke-width:3.0;" d="M 41.2649, 222.258 L 11.0183, 215.592 L 7.76566, 208.627 L 38.7436, 204.958 z "/>
<path style="fill:rgb(255, 26, 207);fill-opacity:1.0;fill-rule:evenodd;stroke:rgb(0, 0, 0);stroke-width:3.0;" d="M 246.573, 190.696 L 234.119, 195.565 L 225.55, 190.137 L 239.777, 183.707 z "/>
<path style="fill:rgb(255, 26, 207);fill-opacity:1.0;fill-rule:evenodd;stroke:rgb(0, 0, 0);stroke-width:3.0;" d="M 481.415, 295.844 L 476.868, 310.699 L 422.439, 343.633 L 360.879, 298.923 L 377.22, 274.262 z "/>
<path style="fill:rgb(30, 255, 58);fill-opacity:1.0;fill-rule:evenodd;stroke:rgb(0, 0, 0);stroke-width:3.0;" d="M 306.198, 174.063 L 274.371, 179.597 L 256.41, 176.19 L 282.084, 164.585 z "/>
<path style="fill:rgb(30, 255, 58);fill-opacity:1.0;fill-rule:evenodd;stroke:rgb(0, 0, 0);stroke-width:3.0;" d="M 563.469, 27.7885 L 560.051, 38.9535 L 396.999, 112.648 L 400.893, 95.39 L 427.788, 58.4597 L 545.088, 19.5726 z "/>
<path style="fill:rgb(30, 255, 58);fill-opacity:1.0;fill-rule:evenodd;stroke:rgb(0, 0, 0);stroke-width:3.0;" d="M 486.623, 278.833 L 481.415, 295.844 L 377.22, 274.262 L 409.703, 225.244 z "/>
<path style="fill:rgb(255, 142, 110);fill-opacity:1.0;fill-rule:evenodd;stroke:rgb(0, 0, 0);stroke-width:3.0;" d="M 713.113, 117.281 L 678.642, 115.383 L 702.52, 77.9838 z "/>
<path style="fill:rgb(255, 78, 10);fill-opacity:1.0;fill-rule:evenodd;stroke:rgb(0, 0, 0);stroke-width:3.0;" d="M 396.999, 112.648 L 384.068, 118.492 L 400.893, 95.39 z "/>
<path style="fill:rgb(255, 78, 10);fill-opacity:1.0;fill-rule:evenodd;stroke:rgb(0, 0, 0);stroke-width:3.0;" d="M 73.9872, 148.18 L 69.7483, 165.422 L 38.2847, 169.943 L 20.0039, 166.003 L 73.8311, 148.026 z "/>
<path style="fill:rgb(255, 26, 124);fill-opacity:1.0;fill-rule:evenodd;stroke:rgb(0, 0, 0);stroke-width:3.0;" d="M 217.535, 418.052 L 218.896, 427.632 L 207.927, 430.133 L 203.335, 428.227 L 215.521, 414.478 z "/>
<path style="fill:rgb(255, 26, 124);fill-opacity:1.0;fill-rule:evenodd;stroke:rgb(0, 0, 0);stroke-width:3.0;" d="M 121.438, 452.171 L 104.314, 441.772 L 105.513, 425.105 z "/>
<path style="fill:rgb(215, 88, 26);fill-opacity:1.0;fill-rule:evenodd;stroke:rgb(0, 0, 0);stroke-width:3.0;" d="M 634.02, 334.322 L 631.873, 334.864 L 586.711, 259.373 L 587.924, 257.472 z "/>
<path style="fill:rgb(215, 88, 26);fill-opacity:1.0;fill-rule:evenodd;stroke:rgb(0, 0, 0);stroke-width:3.0;" d="M 374.725, 268.346 L 356.778, 258.533 L 361.809, 248.013 L 385.899, 244.248 z "/>
<path style="fill:rgb(215, 88, 26);fill-opacity:1.0;fill-rule:evenodd;stroke:rgb(0, 0, 0);stroke-width:3.0;" d="M 544.086, 109.348 L 563.829, 154.437 L 503.557, 314.167 L 478.414, 305.648 L 538.513, 109.316 z "/>
<path style="fill:rgb(255, 8, 20);fill-opacity:1.0;fill-rule:evenodd;stroke:rgb(0, 0, 0);stroke-width:3.0;" d="M 224.957, 455.149 L 229.822, 470.504 L 212.257, 469.415 L 198.815, 443.766 z "/>
<path style="fill:rgb(255, 249, 42);fill-opacity:1.0;fill-rule:evenodd;stroke:rgb(0, 0, 0);stroke-width:3.0;" d="M 310.892, 326.002 L 309.813, 328.597 L 294.61, 344.141 L 296.246, 322.492 z "/>
<path style="fill:rgb(255, 249, 42);fill-opacity:1.0;fill-rule:evenodd;stroke:rgb(0, 0, 0);stroke-width:3.0;" d="M 407.652, 536.819 L 402.019, 555.219 L 394.537, 546.901 L 388.741, 528.902 L 402.69, 525.582 z "/>
<path style="fill:rgb(237, 83, 110);fill-opacity:1.0;fill-rule:evenodd;stroke:rgb(0, 0, 0);stroke-width:3.0;" d="M 424.896, 62.4309 L 384.068, 118.492 L 368.237, 125.647 L 360.728, 95.2277 L 382.588, 71.6394 L 406.654, 57.0888 z "/>
<path style="fill:rgb(209, 86, 23);fill-opacity:1.0;fill-rule:evenodd;stroke:rgb(0, 0, 0);stroke-width:3.0;" d="M 353.963, 589.451 L 353.834, 590.244 L 330.49, 578.79 L 321.225, 559.695 L 322.226, 558.534 z "/>
<path style="fill:rgb(209, 86, 23);fill-opacity:1.0;fill-rule:evenodd;stroke:rgb(0, 0, 0);stroke-width:3.0;" d="M 121.438, 452.171 L 122.791, 454.471 L 120.515, 457.829 L 105.925, 459.17 L 103.229, 456.87 L 104.314, 441.772 z "/>
<path style="fill:rgb(209, 86, 23);fill-opacity:1.0;fill-rule:evenodd;stroke:rgb(0, 0, 0);stroke-width:3.0;" d="M 385.899, 244.248 L 361.809, 248.013 L 363.735, 243.986 L 389.1, 237.345 z "/>
<path style="fill:rgb(209, 86, 23);fill-opacity:1.0;fill-rule:evenodd;stroke:rgb(0, 0, 0);stroke-width:3.0;" d="M 113.369, 196.121 L 113.051, 196.158 L 11.0176, 173.862 L 24.5352, 171.919 z "/>
<path style="fill:rgb(23, 43, 255);fill-opacity:1.0;fill-rule:evenodd;stroke:rgb(0, 0, 0);stroke-width:3.0;" d="M 62.7307, 53.7875 L 63.2994, 57.2076 L 12.0899, 94.8335 L 62.2761, 53.7343 z "/>
<path style="fill:rgb(255, 255, 42);fill-opacity:1.0;fill-rule:evenodd;stroke:rgb(0, 0, 0);stroke-width:3.0;" d="M 94.7125, 575.316 L 58.2265, 584.585 L 37.4836, 573.939 L 96.033, 556.951 z "/>
<path style="fill:rgb(255, 255, 42);fill-opacity:1.0;fill-rule:evenodd;stroke:rgb(0, 0, 0);stroke-width:3.0;" d="M 281.291, 419.024 L 256.904, 455.827 L 270.326, 423.551 L 277.965, 409.898 z "/>
<path style="fill:rgb(228, 243, 142);fill-opacity:1.0;fill-rule:evenodd;stroke:rgb(0, 0, 0);stroke-width:3.0;" d="M 716.569, 102.791 L 712.068, 113.402 L 702.52, 77.9838 L 707.043, 70.9 z "/>
<path style="fill:rgb(255, 33, 38);fill-opacity:1.0;fill-rule:evenodd;stroke:rgb(0, 0, 0);stroke-width:3.0;" d="M 32.3625, 291.768 L 58.5644, 322.055 L 52.7597, 321.577 L 29.2309, 290.585 z "/>
<path style="fill:rgb(228, 50, 7);fill-opacity:1.0;fill-rule:evenodd;stroke:rgb(0, 0, 0);stroke-width:3.0;" d="M 229.355, 439.023 L 241.398, 460.392 L 197.35, 434.98 L 203.335, 428.227 z "/>
<path style="fill:rgb(19, 105, 255);fill-opacity:1.0;fill-rule:evenodd;stroke:rgb(0, 0, 0);stroke-width:3.0;" d="M 371.461, 219.29 L 368.882, 224.461 L 357.824, 231.433 L 358.699, 218.32 z "/>
<path style="fill:rgb(19, 105, 255);fill-opacity:1.0;fill-rule:evenodd;stroke:rgb(0, 0, 0);stroke-width:3.0;" d="M 288.65, 544.231 L 303.668, 570.877 L 273.483, 586.246 L 244.597, 531.126 L 261.986, 521.901 z "/>
<path style="fill:rgb(8, 0, 194);fill-opacity:1.0;fill-rule:evenodd;stroke:rgb(0, 0, 0);stroke-width:3.0;" d="M 402.537, 211.929 L 397.727, 221.285 L 364.899, 218.791 L 255.069, 182.953 L 306.198, 174.063 z "/>
<path style="fill:rgb(8, 0, 194);fill-opacity:1.0;fill-rule:evenodd;stroke:rgb(0, 0, 0);stroke-width:3.0;" d="M 583.527, 199.421 L 569.06, 203.058 L 547.75, 197.051 L 563.829, 154.437 z "/>
<path style="fill:rgb(8, 0, 194);fill-opacity:1.0;fill-rule:evenodd;stroke:rgb(0, 0, 0);stroke-width:3.0;" d="M 336.87, 36.5568 L 297.09, 55.8016 L 267.758, 48.1092 L 261.155, 32.2802 z "/>
<path style="fill:rgb(255, 228, 6);fill-opacity:1.0;fill-rule:evenodd;stroke:rgb(0, 0, 0);stroke-width:3.0;" d="M 361.634, 98.8964 L 350.605, 133.616 L 345.762, 135.805 L 327.628, 130.945 L 360.728, 95.2277 z "/>
<path style="fill:rgb(237, 255, 134);fill-opacity:1.0;fill-rule:evenodd;stroke:rgb(0, 0, 0);stroke-width:3.0;" d="M 101.237, 186.114 L 126.046, 194.619 L 113.369, 196.121 L 24.5352, 171.919 L 29.8365, 171.158 z "/>
<path style="fill:rgb(237, 255, 134);fill-opacity:1.0;fill-rule:evenodd;stroke:rgb(0, 0, 0);stroke-width:3.0;" d="M 105.737, 226.566 L 73.8684, 257.115 L 72.9337, 246.866 L 105.531, 226.41 z "/>
<path style="fill:rgb(47, 243, 231);fill-opacity:1.0;fill-rule:evenodd;stroke:rgb(0, 0, 0);stroke-width:3.0;" d="M 343.138, 534.274 L 340.951, 536.811 L 319.383, 558.958 L 302.936, 519.213 L 319.205, 518.861 z "/>
<path style="fill:rgb(47, 243, 231);fill-opacity:1.0;fill-rule:evenodd;stroke:rgb(0, 0, 0);stroke-width:3.0;" d="M 444.914, 415.087 L 440.651, 429.014 L 384.284, 406.541 L 429.081, 379.38 L 431.33, 379.375 z "/>
<path style="fill:rgb(255, 255, 18);fill-opacity:1.0;fill-rule:evenodd;stroke:rgb(0, 0, 0);stroke-width:3.0;" d="M 458.721, 369.984 L 455.864, 379.317 L 367.302, 379.523 L 358.979, 364.086 L 422.096, 343.383 z "/>
<path style="fill:rgb(255, 255, 18);fill-opacity:1.0;fill-rule:evenodd;stroke:rgb(0, 0, 0);stroke-width:3.0;" d="M 384.284, 406.541 L 381.207, 405.314 L 367.302, 379.523 L 429.081, 379.38 z "/>
<path style="fill:rgb(249, 223, 11);fill-opacity:1.0;fill-rule:evenodd;stroke:rgb(0, 0, 0);stroke-width:3.0;" d="M 425.108, 470.436 L 411.887, 442.213 L 434.731, 431.843 z "/>
<path style="fill:rgb(44, 146, 255);fill-opacity:1.0;fill-rule:evenodd;stroke:rgb(0, 0, 0);stroke-width:3.0;" d="M 275.195, 149.585 L 233.894, 173.446 L 229.919, 174.76 L 225.824, 166.424 L 295.989, 124 z "/>
<path style="fill:rgb(243, 6, 21);fill-opacity:1.0;fill-rule:evenodd;stroke:rgb(0, 0, 0);stroke-width:3.0;" d="M 94.1854, 227.346 L 75.1037, 245.504 L 72.9337, 246.866 L 72.1243, 237.991 L 93.6729, 224.907 z "/>
<path style="fill:rgb(243, 231, 51);fill-opacity:1.0;fill-rule:evenodd;stroke:rgb(0, 0, 0);stroke-width:3.0;" d="M 93.6729, 224.907 L 72.1243, 237.991 L 71.5483, 231.674 L 92.4676, 219.17 z "/>
<path style="fill:rgb(187, 88, 234);fill-opacity:1.0;fill-rule:evenodd;stroke:rgb(0, 0, 0);stroke-width:3.0;" d="M 285.423, 212.755 L 304.455, 228.892 L 274.532, 221.845 L 271.342, 211.686 z "/>
<path style="fill:rgb(69, 255, 207);fill-opacity:1.0;fill-rule:evenodd;stroke:rgb(0, 0, 0);stroke-width:3.0;" d="M 534.649, 340.916 L 529.147, 349.534 L 524.387, 346.733 L 524.762, 339.745 L 532.726, 332.711 z "/>
<path style="fill:rgb(69, 255, 207);fill-opacity:1.0;fill-rule:evenodd;stroke:rgb(0, 0, 0);stroke-width:3.0;" d="M 399.13, 526.429 L 388.741, 528.902 L 385.331, 518.311 L 385.946, 517.419 L 395.149, 517.22 z "/>
<path style="fill:rgb(45, 21, 152);fill-opacity:1.0;fill-rule:evenodd;stroke:rgb(0, 0, 0);stroke-width:3.0;" d="M 120.348, 121.991 L 100.609, 116.065 L 103.88, 101.602 z "/>
<path style="fill:rgb(14, 150, 192);fill-opacity:1.0;fill-rule:evenodd;stroke:rgb(0, 0, 0);stroke-width:3.0;" d="M 285.761, 74.1835 L 182.064, 144.881 L 135.797, 141.119 L 131.564, 135.878 L 313.494, 47.8658 z "/>
<path style="fill:rgb(14, 150, 192);fill-opacity:1.0;fill-rule:evenodd;stroke:rgb(0, 0, 0);stroke-width:3.0;" d="M 422.096, 343.383 L 358.979, 364.086 L 340.459, 329.737 L 360.879, 298.923 z "/>
<path style="fill:rgb(14, 150, 192);fill-opacity:1.0;fill-rule:evenodd;stroke:rgb(0, 0, 0);stroke-width:3.0;" d="M 301.074, 213.944 L 256.651, 210.57 L 246.395, 190.765 L 251.038, 188.95 z "/>
<path style="fill:rgb(14, 150, 192);fill-opacity:1.0;fill-rule:evenodd;stroke:rgb(0, 0, 0);stroke-width:3.0;" d="M 407.151, 415.658 L 404.328, 420.018 L 391.551, 424.5 L 388.479, 418.801 L 400.487, 413.001 z "/>
<path style="fill:rgb(255, 56, 46);fill-opacity:1.0;fill-rule:evenodd;stroke:rgb(0, 0, 0);stroke-width:3.0;" d="M 139.379, 279.381 L 150.598, 299.286 L 91.3469, 314.046 L 25.5455, 289.193 L 24.819, 287.959 L 44.7019, 275.937 z "/>
<path style="fill:rgb(124, 26, 170);fill-opacity:1.0;fill-rule:evenodd;stroke:rgb(0, 0, 0);stroke-width:3.0;" d="M 139.379, 279.381 L 44.7019, 275.937 L 113.868, 234.116 z "/>
<path style="fill:rgb(255, 22, 189);fill-opacity:1.0;fill-rule:evenodd;stroke:rgb(0, 0, 0);stroke-width:3.0;" d="M 333.816, 270.877 L 323.082, 296.689 L 319.174, 294.986 L 335.245, 237.232 L 335.962, 237.17 z "/>
<path style="fill:rgb(252, 252, 37);fill-opacity:1.0;fill-rule:evenodd;stroke:rgb(0, 0, 0);stroke-width:3.0;" d="M 49.224, 182.211 L 86.6281, 198.506 L 52.9721, 195.213 L 44.882, 181.262 z "/>
<path style="fill:rgb(209, 4, 17);fill-opacity:1.0;fill-rule:evenodd;stroke:rgb(0, 0, 0);stroke-width:3.0;" d="M 113.051, 196.158 L 90.2409, 198.86 L 86.6281, 198.506 L 49.224, 182.211 z "/>
<path style="fill:rgb(6, 204, 226);fill-opacity:1.0;fill-rule:evenodd;stroke:rgb(0, 0, 0);stroke-width:3.0;" d="M 784.659, 180.976 L 771.076, 185.287 L 772.674, 180.374 L 789.037, 159.318 z "/>
<path style="fill:rgb(177, 33, 134);fill-opacity:1.0;fill-rule:evenodd;stroke:rgb(0, 0, 0);stroke-width:3.0;" d="M 89.7899, 20.9786 L 83.0958, 31.863 L 63.0244, 34.784 L 56.0641, 18.7082 L 64.7979, 8.33865 z "/>
<path style="fill:rgb(255, 168, 11);fill-opacity:1.0;fill-rule:evenodd;stroke:rgb(0, 0, 0);stroke-width:3.0;" d="M 229.355, 439.023 L 207.927, 430.133 L 222.474, 426.816 z "/>
<path style="fill:rgb(255, 168, 11);fill-opacity:1.0;fill-rule:evenodd;stroke:rgb(0, 0, 0);stroke-width:3.0;" d="M 316.259, 121.474 L 311.468, 128.628 L 275.195, 149.585 L 295.989, 124 L 303.864, 119.239 z "/>
<path style="fill:rgb(255, 168, 11);fill-opacity:1.0;fill-rule:evenodd;stroke:rgb(0, 0, 0);stroke-width:3.0;" d="M 177.001, 552.819 L 174.663, 561.424 L 169.025, 561.128 L 156.369, 556.684 L 158.59, 541.825 z "/>
<path style="fill:rgb(9, 136, 255);fill-opacity:1.0;fill-rule:evenodd;stroke:rgb(0, 0, 0);stroke-width:3.0;" d="M 53.325, 244.154 L 50.0064, 266.316 L 46.7956, 266.978 L 32.677, 262.296 L 46.8555, 246.434 L 51.9839, 243.369 z "/>
<path style="fill:rgb(255, 240, 67);fill-opacity:1.0;fill-rule:evenodd;stroke:rgb(0, 0, 0);stroke-width:3.0;" d="M 340.46, 518.402 L 274.892, 519.819 L 249.228, 474.284 L 256.904, 455.827 L 296.669, 395.819 z "/>
<path style="fill:rgb(234, 56, 25);fill-opacity:1.0;fill-rule:evenodd;stroke:rgb(0, 0, 0);stroke-width:3.0;" d="M 153.664, 142.572 L 166.194, 155.701 L 154.186, 163.888 L 135.797, 141.119 z "/>
<path style="fill:rgb(255, 52, 249);fill-opacity:1.0;fill-rule:evenodd;stroke:rgb(0, 0, 0);stroke-width:3.0;" d="M 182.064, 144.881 L 166.194, 155.701 L 153.664, 142.572 z "/>
<path style="fill:rgb(252, 23, 192);fill-opacity:1.0;fill-rule:evenodd;stroke:rgb(0, 0, 0);stroke-width:3.0;" d="M 260.009, 499.605 L 265.904, 513.421 L 253.571, 518.997 L 257.492, 501.577 L 259.382, 499.391 z "/>
<path style="fill:rgb(255, 19, 255);fill-opacity:1.0;fill-rule:evenodd;stroke:rgb(0, 0, 0);stroke-width:3.0;" d="M 262.002, 252.273 L 268.854, 376.556 L 267.81, 379.222 L 245.881, 221.443 z "/>
<path style="fill:rgb(255, 0, 91);fill-opacity:1.0;fill-rule:evenodd;stroke:rgb(0, 0, 0);stroke-width:3.0;" d="M 503.176, 105.91 L 507.983, 122.542 L 467.319, 97.8546 z "/>
<path style="fill:rgb(255, 0, 91);fill-opacity:1.0;fill-rule:evenodd;stroke:rgb(0, 0, 0);stroke-width:3.0;" d="M 42.1489, 232.052 L 45.8467, 247.037 L 40.148, 250.444 L 28.0858, 231.727 L 39.7317, 227.572 z "/>
<path style="fill:rgb(18, 0, 255);fill-opacity:1.0;fill-rule:evenodd;stroke:rgb(0, 0, 0);stroke-width:3.0;" d="M 251.377, 496.659 L 246.721, 514.035 L 241.628, 519.926 L 237.236, 517.08 L 235.746, 514.236 L 239.015, 492.439 z "/>
<path style="fill:rgb(18, 0, 255);fill-opacity:1.0;fill-rule:evenodd;stroke:rgb(0, 0, 0);stroke-width:3.0;" d="M 308.447, 532.532 L 316.608, 552.253 L 311.169, 558.998 L 303.666, 528.044 z "/>
<path style="fill:rgb(18, 0, 255);fill-opacity:1.0;fill-rule:evenodd;stroke:rgb(0, 0, 0);stroke-width:3.0;" d="M 789.037, 159.318 L 785.487, 163.886 L 779.645, 158.941 L 785.006, 142.459 L 792.649, 141.449 z "/>
<path style="fill:rgb(255, 0, 51);fill-opacity:1.0;fill-rule:evenodd;stroke:rgb(0, 0, 0);stroke-width:3.0;" d="M 640.674, 332.639 L 634.02, 334.322 L 587.924, 257.472 L 590.747, 253.051 z "/>
<path style="fill:rgb(255, 0, 51);fill-opacity:1.0;fill-rule:evenodd;stroke:rgb(0, 0, 0);stroke-width:3.0;" d="M 106.517, 117.839 L 110.678, 139.218 L 98.0512, 142.071 L 95.0945, 140.453 L 100.609, 116.065 z "/>
<path style="fill:rgb(40, 11, 255);fill-opacity:1.0;fill-rule:evenodd;stroke:rgb(0, 0, 0);stroke-width:3.0;" d="M 239.015, 492.439 L 235.746, 514.236 L 221.123, 486.332 z "/>
<path style="fill:rgb(40, 11, 255);fill-opacity:1.0;fill-rule:evenodd;stroke:rgb(0, 0, 0);stroke-width:3.0;" d="M 120.348, 121.991 L 128.029, 131.501 L 112.057, 138.906 L 110.678, 139.218 L 106.517, 117.839 z "/>
<path style="fill:rgb(94, 255, 204);fill-opacity:1.0;fill-rule:evenodd;stroke:rgb(0, 0, 0);stroke-width:3.0;" d="M 258.251, 490.294 L 255.402, 496.045 L 229.372, 487.286 L 246.695, 469.789 z "/>
<path style="fill:rgb(94, 255, 204);fill-opacity:1.0;fill-rule:evenodd;stroke:rgb(0, 0, 0);stroke-width:3.0;" d="M 355.765, 218.098 L 348.19, 236.313 L 337.073, 231.891 L 335.014, 230.395 L 333.925, 218.971 L 341.46, 217.011 z "/>
<path style="fill:rgb(255, 10, 179);fill-opacity:1.0;fill-rule:evenodd;stroke:rgb(0, 0, 0);stroke-width:3.0;" d="M 236.337, 85.1921 L 224.052, 91.1352 L 215.436, 85.2129 L 217.322, 80.5039 z "/>
<path style="fill:rgb(255, 207, 8);fill-opacity:1.0;fill-rule:evenodd;stroke:rgb(0, 0, 0);stroke-width:3.0;" d="M 215.521, 414.478 L 195.377, 437.206 L 191.494, 429.795 L 194.927, 423.046 L 196.982, 420.696 L 215.519, 414.474 z "/>
<path style="fill:rgb(204, 3, 14);fill-opacity:1.0;fill-rule:evenodd;stroke:rgb(0, 0, 0);stroke-width:3.0;" d="M 793.683, 250.282 L 790.738, 258.392 L 785.068, 250.872 L 783.111, 242.511 L 786.891, 237.761 z "/>
<path style="fill:rgb(184, 234, 128);fill-opacity:1.0;fill-rule:evenodd;stroke:rgb(0, 0, 0);stroke-width:3.0;" d="M 161.751, 520.686 L 155.808, 560.432 L 120.523, 558.575 L 106.112, 494.109 L 145.525, 493.109 z "/>
<path style="fill:rgb(255, 128, 17);fill-opacity:1.0;fill-rule:evenodd;stroke:rgb(0, 0, 0);stroke-width:3.0;" d="M 109.036, 40.3041 L 85.378, 60.9464 L 83.8245, 57.9706 L 115.706, 27.1172 L 118.321, 26.7366 z "/>
<path style="fill:rgb(17, 27, 182);fill-opacity:1.0;fill-rule:evenodd;stroke:rgb(0, 0, 0);stroke-width:3.0;" d="M 101.237, 186.114 L 29.8365, 171.158 L 49.4095, 168.345 z "/>
<path style="fill:rgb(255, 74, 54);fill-opacity:1.0;fill-rule:evenodd;stroke:rgb(0, 0, 0);stroke-width:3.0;" d="M 291.36, 372.969 L 273.058, 416.981 L 267.81, 379.222 L 272.83, 366.408 L 292.992, 345.795 z "/>
<path style="fill:rgb(252, 159, 44);fill-opacity:1.0;fill-rule:evenodd;stroke:rgb(0, 0, 0);stroke-width:3.0;" d="M 104.734, 435.942 L 104.317, 441.739 L 29.9167, 435.068 z "/>
<path style="fill:rgb(243, 42, 226);fill-opacity:1.0;fill-rule:evenodd;stroke:rgb(0, 0, 0);stroke-width:3.0;" d="M 502.695, 104.247 L 503.176, 105.91 L 481.127, 100.956 L 487.841, 78.8327 z "/>
<path style="fill:rgb(246, 20, 75);fill-opacity:1.0;fill-rule:evenodd;stroke:rgb(0, 0, 0);stroke-width:3.0;" d="M 487.841, 78.8327 L 481.127, 100.956 L 467.319, 97.8546 L 451.278, 88.1155 L 484.492, 73.1038 z "/>
<path style="fill:rgb(255, 3, 165);fill-opacity:1.0;fill-rule:evenodd;stroke:rgb(0, 0, 0);stroke-width:3.0;" d="M 774.769, 173.932 L 771.076, 185.287 L 766.575, 186.716 L 741.036, 148.773 L 750.04, 140.639 z "/>
<path style="fill:rgb(57, 152, 255);fill-opacity:1.0;fill-rule:evenodd;stroke:rgb(0, 0, 0);stroke-width:3.0;" d="M 758.367, 185.185 L 748.258, 199.021 L 743.463, 192.824 L 730.112, 148.129 L 737.46, 146.646 z "/>
<path style="fill:rgb(57, 152, 255);fill-opacity:1.0;fill-rule:evenodd;stroke:rgb(0, 0, 0);stroke-width:3.0;" d="M 424.975, 220.748 L 414.868, 222.586 L 397.727, 221.285 L 402.537, 211.929 z "/>
<path style="fill:rgb(121, 0, 29);fill-opacity:1.0;fill-rule:evenodd;stroke:rgb(0, 0, 0);stroke-width:3.0;" d="M 67.898, 228.129 L 55.2516, 232.457 L 41.5998, 231.035 L 39.7317, 227.572 L 49.5234, 224.079 z "/>
<path style="fill:rgb(212, 252, 44);fill-opacity:1.0;fill-rule:evenodd;stroke:rgb(0, 0, 0);stroke-width:3.0;" d="M 183.964, 56.7464 L 199.79, 72.9687 L 204.782, 100.457 L 172.69, 115.983 L 151.458, 48.9417 z "/>
<path style="fill:rgb(255, 8, 48);fill-opacity:1.0;fill-rule:evenodd;stroke:rgb(0, 0, 0);stroke-width:3.0;" d="M 92.1016, 314.331 L 93.363, 321.65 L 82.8424, 324.057 L 71.5106, 323.123 L 56.9498, 301.054 z "/>
<path style="fill:rgb(255, 207, 19);fill-opacity:1.0;fill-rule:evenodd;stroke:rgb(0, 0, 0);stroke-width:3.0;" d="M 338.884, 321.584 L 325.031, 338.425 L 322.224, 307.724 L 349.841, 278.758 z "/>
<path style="fill:rgb(255, 246, 6);fill-opacity:1.0;fill-rule:evenodd;stroke:rgb(0, 0, 0);stroke-width:3.0;" d="M 356.778, 258.533 L 344.584, 251.866 L 362.476, 244.315 L 363.735, 243.986 z "/>
<path style="fill:rgb(16, 43, 228);fill-opacity:1.0;fill-rule:evenodd;stroke:rgb(0, 0, 0);stroke-width:3.0;" d="M 449.258, 400.899 L 444.914, 415.087 L 432.364, 382.092 L 436.82, 379.362 L 443.743, 379.346 z "/>
<path style="fill:rgb(255, 46, 146);fill-opacity:1.0;fill-rule:evenodd;stroke:rgb(0, 0, 0);stroke-width:3.0;" d="M 133.174, 472.117 L 125.758, 476.087 L 116.336, 468.051 L 114.286, 458.401 L 124.549, 457.458 z "/>
<path style="fill:rgb(249, 172, 9);fill-opacity:1.0;fill-rule:evenodd;stroke:rgb(0, 0, 0);stroke-width:3.0;" d="M 507.983, 122.542 L 520.843, 167.04 L 513.24, 191.878 L 478.071, 154.673 L 479.82, 105.444 z "/>
<path style="fill:rgb(246, 243, 44);fill-opacity:1.0;fill-rule:evenodd;stroke:rgb(0, 0, 0);stroke-width:3.0;" d="M 233.867, 206.649 L 226.263, 208.262 L 219.326, 207.735 L 218.633, 201.619 L 241.323, 192.748 z "/>
<path style="fill:rgb(140, 255, 249);fill-opacity:1.0;fill-rule:evenodd;stroke:rgb(0, 0, 0);stroke-width:3.0;" d="M 535.519, 330.244 L 524.762, 339.745 L 526.016, 316.376 z "/>
<path style="fill:rgb(237, 2, 11);fill-opacity:1.0;fill-rule:evenodd;stroke:rgb(0, 0, 0);stroke-width:3.0;" d="M 345.812, 528.92 L 339.942, 532.216 L 319.205, 518.861 L 334.696, 518.527 z "/>
<path style="fill:rgb(255, 243, 32);fill-opacity:1.0;fill-rule:evenodd;stroke:rgb(0, 0, 0);stroke-width:3.0;" d="M 511.319, 339.044 L 502.115, 359.851 L 494.682, 337.687 L 497.286, 330.786 z "/>
<path style="fill:rgb(76, 212, 255);fill-opacity:1.0;fill-rule:evenodd;stroke:rgb(0, 0, 0);stroke-width:3.0;" d="M 782.677, 149.62 L 766.971, 136.718 L 788.102, 132.939 z "/>
<path style="fill:rgb(255, 30, 197);fill-opacity:1.0;fill-rule:evenodd;stroke:rgb(0, 0, 0);stroke-width:3.0;" d="M 50.6499, 580.697 L 36.5799, 593.22 L 24.8815, 581.956 L 26.7992, 580.806 L 42.9905, 576.766 z "/>
<path style="fill:rgb(240, 22, 98);fill-opacity:1.0;fill-rule:evenodd;stroke:rgb(0, 0, 0);stroke-width:3.0;" d="M 779.176, 238.981 L 761.032, 215.53 L 769.268, 211.111 z "/>
<path style="fill:rgb(78, 3, 255);fill-opacity:1.0;fill-rule:evenodd;stroke:rgb(0, 0, 0);stroke-width:3.0;" d="M 763.253, 194.191 L 769.268, 211.111 L 761.032, 215.53 L 748.258, 199.021 L 758.367, 185.185 z "/>
<path style="fill:rgb(20, 108, 212);fill-opacity:1.0;fill-rule:evenodd;stroke:rgb(0, 0, 0);stroke-width:3.0;" d="M 356.896, 24.6017 L 357.537, 26.5589 L 336.87, 36.5568 L 192.646, 28.4107 L 179.188, 24.8814 L 181.827, 17.4944 L 220.513, 11.8643 z "/>
<path style="fill:rgb(252, 246, 8);fill-opacity:1.0;fill-rule:evenodd;stroke:rgb(0, 0, 0);stroke-width:3.0;" d="M 363.944, 91.7573 L 343.957, 113.326 L 351.562, 90.3989 L 367.944, 80.4941 z "/>
</svg>