<?xml version="1.0" encoding="iso-8859-1" standalone="no"?>
<!DOCTYPE svg PUBLIC "-//W3C//DTD SVG 1.0//EN" "http://www.w3.org/TR/2001/REC-SVG-20010904/DTD/svg10.dtd">
<svg xmlns="http://www.w3.org/2000/svg" width="800" height="600">
<path style="fill:rgb(0, 0, 0);fill-opacity:0.0;fill-rule:evenodd;stroke:rgb(0, 0, 0);stroke-width:0.0;" d="M 0, 600 L 800, 600 L 800, 0 L 0, 0 z "/>
<path style="fill:rgb(175, 255, 255);fill-opacity:1.0;fill-rule:evenodd;stroke:rgb(0, 0, 0);stroke-width:3.0;" d="M 726.83, 212.356 L 706.28, 233.103 L 696.836, 234.024 L 706.625, 194.32 L 722.476, 187.88 z "/>
<path style="fill:rgb(234, 255, 34);fill-opacity:1.0;fill-rule:evenodd;stroke:rgb(0, 0, 0);stroke-width:3.0;" d="M 761.637, 574.081 L 743.181, 578.481 L 720.371, 565.733 L 729.737, 559.852 z "/>
<path style="fill:rgb(234, 255, 34);fill-opacity:1.0;fill-rule:evenodd;stroke:rgb(0, 0, 0);stroke-width:3.0;" d="M 681.157, 137.468 L 637.848, 196.755 L 497.476, 137.079 L 508.078, 118.992 z "/>
<path style="fill:rgb(234, 255, 34);fill-opacity:1.0;fill-rule:evenodd;stroke:rgb(0, 0, 0);stroke-width:3.0;" d="M 373.82, 101.895 L 400.404, 126.344 L 381.975, 118.068 L 366.492, 101.268 L 366.965, 100.299 z "/>
<path style="fill:rgb(234, 255, 34);fill-opacity:1.0;fill-rule:evenodd;stroke:rgb(0, 0, 0);stroke-width:3.0;" d="M 414.508, 101.807 L 425.061, 111.005 L 427.95, 121.193 L 380.083, 94.7202 L 392.534, 92.465 z "/>
<path style="fill:rgb(234, 255, 34);fill-opacity:1.0;fill-rule:evenodd;stroke:rgb(0, 0, 0);stroke-width:3.0;" d="M 360.975, 109.23 L 355.385, 119.628 L 343.688, 107.219 L 348.636, 100.18 z "/>
<path style="fill:rgb(234, 255, 34);fill-opacity:1.0;fill-rule:evenodd;stroke:rgb(0, 0, 0);stroke-width:3.0;" d="M 683.573, 216.195 L 681.939, 219.959 L 641.127, 246.883 L 640.862, 209.228 L 651.633, 202.616 z "/>
<path style="fill:rgb(64, 243, 24);fill-opacity:1.0;fill-rule:evenodd;stroke:rgb(0, 0, 0);stroke-width:3.0;" d="M 455.559, 177.07 L 410.122, 155.262 L 429.296, 152.916 z "/>
<path style="fill:rgb(97, 82, 255);fill-opacity:1.0;fill-rule:evenodd;stroke:rgb(0, 0, 0);stroke-width:3.0;" d="M 704.875, 479.937 L 685.606, 505.355 L 685.118, 505.156 L 667.95, 481.076 L 676.33, 470.446 L 682.285, 469.399 z "/>
<path style="fill:rgb(170, 0, 14);fill-opacity:1.0;fill-rule:evenodd;stroke:rgb(0, 0, 0);stroke-width:3.0;" d="M 606.459, 420.441 L 598.227, 422.618 L 602.267, 395.478 z "/>
<path style="fill:rgb(170, 0, 14);fill-opacity:1.0;fill-rule:evenodd;stroke:rgb(0, 0, 0);stroke-width:3.0;" d="M 714.098, 517.003 L 690.632, 507.41 L 721.567, 487.998 L 727.01, 485.166 z "/>
<path style="fill:rgb(170, 0, 14);fill-opacity:1.0;fill-rule:evenodd;stroke:rgb(0, 0, 0);stroke-width:3.0;" d="M 344.875, 75.2743 L 343.15, 92.0506 L 340.393, 90.0146 L 336.569, 72.3198 L 340.005, 70.7957 z "/>
<path style="fill:rgb(170, 0, 14);fill-opacity:1.0;fill-rule:evenodd;stroke:rgb(0, 0, 0);stroke-width:3.0;" d="M 707.942, 514.487 L 706.652, 525.653 L 697.775, 528.745 L 683.09, 523.385 L 694.989, 509.191 z "/>
<path style="fill:rgb(170, 0, 14);fill-opacity:1.0;fill-rule:evenodd;stroke:rgb(0, 0, 0);stroke-width:3.0;" d="M 552.369, 277.642 L 552.37, 328.612 L 525.018, 299.594 L 538.173, 277.439 z "/>
<path style="fill:rgb(255, 209, 243);fill-opacity:1.0;fill-rule:evenodd;stroke:rgb(0, 0, 0);stroke-width:3.0;" d="M 647.275, 317.94 L 638.806, 329.341 L 633.857, 330.708 L 645.088, 304.839 z "/>
<path style="fill:rgb(255, 209, 243);fill-opacity:1.0;fill-rule:evenodd;stroke:rgb(0, 0, 0);stroke-width:3.0;" d="M 493.727, 234.999 L 476.867, 248.509 L 470.689, 241.956 L 472.659, 234.889 L 489.678, 234.564 z "/>
<path style="fill:rgb(204, 179, 21);fill-opacity:1.0;fill-rule:evenodd;stroke:rgb(0, 0, 0);stroke-width:3.0;" d="M 781.154, 480.729 L 765.966, 492.802 L 755.252, 479.686 L 770.414, 471.479 z "/>
<path style="fill:rgb(204, 179, 21);fill-opacity:1.0;fill-rule:evenodd;stroke:rgb(0, 0, 0);stroke-width:3.0;" d="M 416.057, 140.964 L 420.287, 154.018 L 415.817, 154.565 L 389.712, 145.466 L 371.5, 136.725 L 357.521, 121.894 z "/>
<path style="fill:rgb(204, 179, 21);fill-opacity:1.0;fill-rule:evenodd;stroke:rgb(0, 0, 0);stroke-width:3.0;" d="M 600.057, 180.689 L 576.292, 204.73 L 592.676, 177.551 z "/>
<path style="fill:rgb(204, 179, 21);fill-opacity:1.0;fill-rule:evenodd;stroke:rgb(0, 0, 0);stroke-width:3.0;" d="M 704.705, 542.497 L 703.597, 552.092 L 665.443, 535.036 L 638.667, 520.072 z "/>
<path style="fill:rgb(246, 22, 108);fill-opacity:1.0;fill-rule:evenodd;stroke:rgb(0, 0, 0);stroke-width:3.0;" d="M 750.624, 124.077 L 747.93, 144.503 L 744.226, 142.426 L 743.125, 123.096 z "/>
<path style="fill:rgb(246, 22, 108);fill-opacity:1.0;fill-rule:evenodd;stroke:rgb(0, 0, 0);stroke-width:3.0;" d="M 498.544, 175.055 L 504.692, 180.414 L 506.645, 185.866 L 490.43, 184.378 L 480.52, 181.095 L 488.806, 173.469 L 491.996, 172.489 z "/>
<path style="fill:rgb(246, 22, 108);fill-opacity:1.0;fill-rule:evenodd;stroke:rgb(0, 0, 0);stroke-width:3.0;" d="M 357.792, 87.1544 L 343.688, 107.219 L 341.797, 105.213 L 344.875, 75.2743 z "/>
<path style="fill:rgb(255, 10, 34);fill-opacity:1.0;fill-rule:evenodd;stroke:rgb(0, 0, 0);stroke-width:3.0;" d="M 534.477, 263.952 L 534.201, 264.28 L 516.04, 255.802 L 529.75, 249.498 z "/>
<path style="fill:rgb(255, 10, 34);fill-opacity:1.0;fill-rule:evenodd;stroke:rgb(0, 0, 0);stroke-width:3.0;" d="M 622.671, 403.195 L 610.196, 403.312 L 602.789, 398.587 L 602.267, 395.478 L 604.059, 383.448 z "/>
<path style="fill:rgb(255, 10, 34);fill-opacity:1.0;fill-rule:evenodd;stroke:rgb(0, 0, 0);stroke-width:3.0;" d="M 740.922, 468.084 L 741.005, 477.884 L 687.062, 505.95 L 685.606, 505.355 L 717.566, 463.197 L 721.373, 462.528 z "/>
<path style="fill:rgb(252, 1, 55);fill-opacity:1.0;fill-rule:evenodd;stroke:rgb(0, 0, 0);stroke-width:3.0;" d="M 463.792, 144.764 L 469.579, 164.114 L 462.81, 170.808 L 435.098, 146.398 L 425.061, 111.005 z "/>
<path style="fill:rgb(252, 255, 64);fill-opacity:1.0;fill-rule:evenodd;stroke:rgb(0, 0, 0);stroke-width:3.0;" d="M 719.629, 141.575 L 708.254, 187.714 L 703.334, 182.17 L 705.738, 140.092 z "/>
<path style="fill:rgb(252, 255, 64);fill-opacity:1.0;fill-rule:evenodd;stroke:rgb(0, 0, 0);stroke-width:3.0;" d="M 527.788, 243.498 L 529.75, 249.498 L 516.04, 255.802 L 515.957, 255.764 L 522.278, 238.431 z "/>
<path style="fill:rgb(161, 103, 107);fill-opacity:1.0;fill-rule:evenodd;stroke:rgb(0, 0, 0);stroke-width:3.0;" d="M 566.286, 323.683 L 560.764, 337.517 L 552.37, 328.612 L 552.37, 317.227 z "/>
<path style="fill:rgb(161, 103, 107);fill-opacity:1.0;fill-rule:evenodd;stroke:rgb(0, 0, 0);stroke-width:3.0;" d="M 503.632, 237.318 L 504.173, 238.45 L 502.879, 245.022 L 494.585, 249.58 L 491.726, 249.064 L 497.262, 234.825 z "/>
<path style="fill:rgb(161, 103, 107);fill-opacity:1.0;fill-rule:evenodd;stroke:rgb(0, 0, 0);stroke-width:3.0;" d="M 657.706, 493.949 L 658.784, 497.714 L 638.13, 506.68 L 635.461, 505.64 L 648.724, 490.277 z "/>
<path style="fill:rgb(161, 103, 107);fill-opacity:1.0;fill-rule:evenodd;stroke:rgb(0, 0, 0);stroke-width:3.0;" d="M 757.579, 95.3258 L 728.043, 107.45 L 738.204, 66.2374 L 754.111, 53.4635 L 787.417, 48.3925 z "/>
<path style="fill:rgb(126, 255, 255);fill-opacity:1.0;fill-rule:evenodd;stroke:rgb(0, 0, 0);stroke-width:3.0;" d="M 539.051, 154.754 L 493.408, 170.578 L 414.508, 101.807 z "/>
<path style="fill:rgb(126, 255, 255);fill-opacity:1.0;fill-rule:evenodd;stroke:rgb(0, 0, 0);stroke-width:3.0;" d="M 492.434, 210.984 L 516.152, 232.796 L 515.884, 234.063 L 509.484, 234.185 L 489.508, 210.973 z "/>
<path style="fill:rgb(126, 255, 255);fill-opacity:1.0;fill-rule:evenodd;stroke:rgb(0, 0, 0);stroke-width:3.0;" d="M 542.753, 233.093 L 527.234, 242.381 L 526.736, 241.972 L 522.445, 229.99 L 530.751, 221.432 z "/>
<path style="fill:rgb(126, 255, 255);fill-opacity:1.0;fill-rule:evenodd;stroke:rgb(0, 0, 0);stroke-width:3.0;" d="M 622.162, 478.377 L 590.303, 507.572 L 585.102, 510.766 L 586.695, 500.068 L 609.213, 475.694 z "/>
<path style="fill:rgb(126, 255, 255);fill-opacity:1.0;fill-rule:evenodd;stroke:rgb(0, 0, 0);stroke-width:3.0;" d="M 493.498, 244.506 L 486.556, 248.13 L 482.724, 247.438 L 481.145, 245.081 L 494.383, 234.474 L 497.421, 234.416 z "/>
<path style="fill:rgb(126, 255, 255);fill-opacity:1.0;fill-rule:evenodd;stroke:rgb(0, 0, 0);stroke-width:3.0;" d="M 538.768, 210.115 L 523.16, 213.639 L 524.295, 197.499 z "/>
<path style="fill:rgb(7, 234, 23);fill-opacity:1.0;fill-rule:evenodd;stroke:rgb(0, 0, 0);stroke-width:3.0;" d="M 438.609, 149.49 L 440.213, 162.668 L 439.949, 162.713 L 427.451, 151.219 L 428.148, 140.276 z "/>
<path style="fill:rgb(255, 126, 37);fill-opacity:1.0;fill-rule:evenodd;stroke:rgb(0, 0, 0);stroke-width:3.0;" d="M 601.591, 329.156 L 593.725, 336.412 L 552.37, 317.227 L 552.37, 288.308 z "/>
<path style="fill:rgb(105, 252, 8);fill-opacity:1.0;fill-rule:evenodd;stroke:rgb(0, 0, 0);stroke-width:3.0;" d="M 644.001, 448.32 L 593.672, 453.209 L 593.832, 452.133 L 625.711, 441.621 L 646.452, 438.379 z "/>
<path style="fill:rgb(255, 39, 94);fill-opacity:1.0;fill-rule:evenodd;stroke:rgb(0, 0, 0);stroke-width:3.0;" d="M 632.472, 344.643 L 637.205, 354.349 L 627.398, 359.895 L 626.287, 348.143 L 629.022, 341.845 z "/>
<path style="fill:rgb(243, 255, 62);fill-opacity:1.0;fill-rule:evenodd;stroke:rgb(0, 0, 0);stroke-width:3.0;" d="M 227.396, 565.886 L 124.593, 572.353 L 122.835, 567.655 L 230.716, 519.489 z "/>
<path style="fill:rgb(159, 22, 23);fill-opacity:1.0;fill-rule:evenodd;stroke:rgb(0, 0, 0);stroke-width:3.0;" d="M 508.222, 190.271 L 509.146, 192.85 L 504.649, 211.291 L 492.219, 210.271 L 496.304, 186.323 z "/>
<path style="fill:rgb(159, 22, 23);fill-opacity:1.0;fill-rule:evenodd;stroke:rgb(0, 0, 0);stroke-width:3.0;" d="M 427.95, 121.193 L 431.395, 133.338 L 425.646, 138.071 L 402.68, 117.841 L 409.214, 110.831 z "/>
<path style="fill:rgb(159, 22, 23);fill-opacity:1.0;fill-rule:evenodd;stroke:rgb(0, 0, 0);stroke-width:3.0;" d="M 400.448, 150.618 L 476.261, 203.858 L 436.638, 205.83 L 371.5, 136.725 z "/>
<path style="fill:rgb(223, 215, 202);fill-opacity:1.0;fill-rule:evenodd;stroke:rgb(0, 0, 0);stroke-width:3.0;" d="M 763.496, 537.199 L 741.432, 528.178 L 741.404, 524.903 L 761.543, 524.731 z "/>
<path style="fill:rgb(223, 215, 202);fill-opacity:1.0;fill-rule:evenodd;stroke:rgb(0, 0, 0);stroke-width:3.0;" d="M 621.232, 462.686 L 612.052, 469.167 L 591.06, 470.755 L 593.081, 457.177 L 632.4, 450.597 z "/>
<path style="fill:rgb(223, 215, 202);fill-opacity:1.0;fill-rule:evenodd;stroke:rgb(0, 0, 0);stroke-width:3.0;" d="M 650.213, 324.528 L 641.705, 341.311 L 630.717, 343.219 L 629.52, 342.249 L 647.589, 323.603 z "/>
<path style="fill:rgb(223, 215, 202);fill-opacity:1.0;fill-rule:evenodd;stroke:rgb(0, 0, 0);stroke-width:3.0;" d="M 627.27, 414.207 L 605.425, 414.281 L 602.789, 398.587 z "/>
<path style="fill:rgb(223, 215, 202);fill-opacity:1.0;fill-rule:evenodd;stroke:rgb(0, 0, 0);stroke-width:3.0;" d="M 628.891, 306.335 L 626.825, 319.349 L 614.515, 330.78 L 611.738, 325.732 L 628.884, 306.321 z "/>
<path style="fill:rgb(223, 215, 202);fill-opacity:1.0;fill-rule:evenodd;stroke:rgb(0, 0, 0);stroke-width:3.0;" d="M 757.213, 210.697 L 747.283, 229.105 L 730.108, 230.78 L 722.476, 187.88 L 747.877, 177.561 z "/>
<path style="fill:rgb(223, 215, 202);fill-opacity:1.0;fill-rule:evenodd;stroke:rgb(0, 0, 0);stroke-width:3.0;" d="M 629.853, 385.883 L 631.127, 399.361 L 617.394, 397.596 L 613.627, 393.6 L 626.406, 379.876 z "/>
<path style="fill:rgb(223, 215, 202);fill-opacity:1.0;fill-rule:evenodd;stroke:rgb(0, 0, 0);stroke-width:3.0;" d="M 773.153, 211.628 L 748.633, 228.974 L 747.283, 229.105 L 764.613, 196.979 z "/>
<path style="fill:rgb(75, 3, 249);fill-opacity:1.0;fill-rule:evenodd;stroke:rgb(0, 0, 0);stroke-width:3.0;" d="M 794.937, 511.006 L 791.034, 523.491 L 765.966, 492.802 L 768.102, 491.104 z "/>
<path style="fill:rgb(75, 3, 249);fill-opacity:1.0;fill-rule:evenodd;stroke:rgb(0, 0, 0);stroke-width:3.0;" d="M 720.209, 537.405 L 716.262, 553.83 L 711.982, 555.84 L 705.858, 553.103 L 710.676, 536.928 z "/>
<path style="fill:rgb(8, 114, 255);fill-opacity:1.0;fill-rule:evenodd;stroke:rgb(0, 0, 0);stroke-width:3.0;" d="M 286.316, 26.5727 L 299.136, 41.849 L 269.632, 40.2157 L 265.147, 38.3088 L 266.047, 25.7259 z "/>
<path style="fill:rgb(24, 243, 255);fill-opacity:1.0;fill-rule:evenodd;stroke:rgb(0, 0, 0);stroke-width:3.0;" d="M 728.791, 223.376 L 730.108, 230.78 L 706.28, 233.103 L 716.256, 223.031 z "/>
<path style="fill:rgb(20, 255, 255);fill-opacity:1.0;fill-rule:evenodd;stroke:rgb(0, 0, 0);stroke-width:3.0;" d="M 774.304, 127.175 L 781.459, 145.272 L 776.003, 151.742 L 763.718, 125.79 z "/>
<path style="fill:rgb(246, 255, 61);fill-opacity:1.0;fill-rule:evenodd;stroke:rgb(0, 0, 0);stroke-width:3.0;" d="M 552.369, 242.436 L 552.369, 256.485 L 549.813, 260.954 L 544.625, 256.687 L 540.726, 240.241 L 544.026, 234.33 z "/>
<path style="fill:rgb(24, 1, 240);fill-opacity:1.0;fill-rule:evenodd;stroke:rgb(0, 0, 0);stroke-width:3.0;" d="M 480.18, 180.983 L 472.548, 192.694 L 463.7, 184.557 L 462.4, 181.578 L 472.559, 178.458 z "/>
<path style="fill:rgb(24, 1, 240);fill-opacity:1.0;fill-rule:evenodd;stroke:rgb(0, 0, 0);stroke-width:3.0;" d="M 552.368, 212.576 L 543.794, 214.496 L 529.555, 202.084 L 537.551, 194.694 L 552.368, 191.24 z "/>
<path style="fill:rgb(24, 1, 240);fill-opacity:1.0;fill-rule:evenodd;stroke:rgb(0, 0, 0);stroke-width:3.0;" d="M 588.858, 485.542 L 591.06, 470.755 L 612.052, 469.167 z "/>
<path style="fill:rgb(24, 1, 240);fill-opacity:1.0;fill-rule:evenodd;stroke:rgb(0, 0, 0);stroke-width:3.0;" d="M 770.414, 471.479 L 755.252, 479.686 L 755.098, 479.498 L 755.096, 479.459 L 758.564, 461.273 z "/>
<path style="fill:rgb(24, 1, 240);fill-opacity:1.0;fill-rule:evenodd;stroke:rgb(0, 0, 0);stroke-width:3.0;" d="M 663.787, 368.069 L 662.831, 369.265 L 638.587, 349.603 L 669.409, 345.266 z "/>
<path style="fill:rgb(197, 66, 25);fill-opacity:1.0;fill-rule:evenodd;stroke:rgb(0, 0, 0);stroke-width:3.0;" d="M 619.189, 548.956 L 614.15, 551.939 L 585.846, 510.309 L 636.366, 479.287 z "/>
<path style="fill:rgb(255, 7, 7);fill-opacity:1.0;fill-rule:evenodd;stroke:rgb(0, 0, 0);stroke-width:3.0;" d="M 199.961, 22.0285 L 180.716, 26.091 L 175.9, 25.3467 L 188.659, 11.9899 z "/>
<path style="fill:rgb(255, 7, 7);fill-opacity:1.0;fill-rule:evenodd;stroke:rgb(0, 0, 0);stroke-width:3.0;" d="M 176.106, 586.846 L 137.162, 572.483 L 137.582, 571.536 L 191.668, 568.133 z "/>
<path style="fill:rgb(255, 7, 7);fill-opacity:1.0;fill-rule:evenodd;stroke:rgb(0, 0, 0);stroke-width:3.0;" d="M 749.938, 473.181 L 752.2, 491.851 L 741.079, 486.537 L 740.871, 462.082 z "/>
<path style="fill:rgb(255, 7, 7);fill-opacity:1.0;fill-rule:evenodd;stroke:rgb(0, 0, 0);stroke-width:3.0;" d="M 745.577, 155.249 L 739.437, 160.406 L 727.81, 153.68 L 735.13, 143.992 z "/>
<path style="fill:rgb(255, 7, 7);fill-opacity:1.0;fill-rule:evenodd;stroke:rgb(0, 0, 0);stroke-width:3.0;" d="M 397.508, 134.921 L 364.243, 124.084 L 365.203, 99.8695 z "/>
<path style="fill:rgb(234, 132, 152);fill-opacity:1.0;fill-rule:evenodd;stroke:rgb(0, 0, 0);stroke-width:3.0;" d="M 734.339, 538.111 L 735.852, 544.626 L 721.887, 551.187 L 716.811, 551.543 L 716.889, 551.218 L 724.725, 541.508 L 734.165, 538.103 z "/>
<path style="fill:rgb(234, 132, 152);fill-opacity:1.0;fill-rule:evenodd;stroke:rgb(0, 0, 0);stroke-width:3.0;" d="M 504.616, 268.544 L 501.659, 270.949 L 484.37, 255.194 L 493.879, 249.968 z "/>
<path style="fill:rgb(234, 132, 152);fill-opacity:1.0;fill-rule:evenodd;stroke:rgb(0, 0, 0);stroke-width:3.0;" d="M 400.404, 126.344 L 416.434, 141.087 L 397.508, 134.921 L 381.975, 118.068 z "/>
<path style="fill:rgb(255, 15, 76);fill-opacity:1.0;fill-rule:evenodd;stroke:rgb(0, 0, 0);stroke-width:3.0;" d="M 761.543, 524.731 L 741.404, 524.903 L 741.356, 519.234 L 760.311, 516.862 z "/>
<path style="fill:rgb(255, 15, 76);fill-opacity:1.0;fill-rule:evenodd;stroke:rgb(0, 0, 0);stroke-width:3.0;" d="M 697.253, 231.74 L 685.568, 254.789 L 679.361, 252.475 L 686.745, 232.739 L 697.63, 224.108 z "/>
<path style="fill:rgb(255, 15, 76);fill-opacity:1.0;fill-rule:evenodd;stroke:rgb(0, 0, 0);stroke-width:3.0;" d="M 789.823, 44.6071 L 787.417, 48.3925 L 754.111, 53.4635 L 756.654, 51.4215 L 783.872, 43.7974 z "/>
<path style="fill:rgb(255, 15, 76);fill-opacity:1.0;fill-rule:evenodd;stroke:rgb(0, 0, 0);stroke-width:3.0;" d="M 656.425, 484.341 L 660.952, 487.572 L 661.856, 490.431 L 645.398, 488.917 L 635.492, 484.867 L 637.054, 477.351 L 643.098, 476.288 z "/>
<path style="fill:rgb(10, 0, 255);fill-opacity:1.0;fill-rule:evenodd;stroke:rgb(0, 0, 0);stroke-width:3.0;" d="M 365.203, 99.8695 L 365.139, 101.483 L 360.975, 109.23 L 348.636, 100.18 L 355.928, 89.8061 z "/>
<path style="fill:rgb(10, 0, 255);fill-opacity:1.0;fill-rule:evenodd;stroke:rgb(0, 0, 0);stroke-width:3.0;" d="M 763.718, 125.79 L 775.546, 150.778 L 771.461, 154.884 L 764.152, 147.803 L 758.036, 125.047 z "/>
<path style="fill:rgb(255, 43, 16);fill-opacity:1.0;fill-rule:evenodd;stroke:rgb(0, 0, 0);stroke-width:3.0;" d="M 730.419, 555.619 L 714.285, 562.332 L 706.923, 558.217 L 721.129, 551.543 z "/>
<path style="fill:rgb(255, 43, 16);fill-opacity:1.0;fill-rule:evenodd;stroke:rgb(0, 0, 0);stroke-width:3.0;" d="M 724.905, 521.422 L 731.284, 537.958 L 720.28, 537.408 L 713.891, 529.027 L 718.065, 518.625 z "/>
<path style="fill:rgb(255, 43, 16);fill-opacity:1.0;fill-rule:evenodd;stroke:rgb(0, 0, 0);stroke-width:3.0;" d="M 619.506, 188.958 L 628.866, 255.979 L 552.369, 261.355 L 552.369, 220.385 L 612.158, 185.834 z "/>
<path style="fill:rgb(114, 237, 170);fill-opacity:1.0;fill-rule:evenodd;stroke:rgb(0, 0, 0);stroke-width:3.0;" d="M 130.378, 587.808 L 124.593, 572.353 L 137.582, 571.536 z "/>
<path style="fill:rgb(243, 27, 255);fill-opacity:1.0;fill-rule:evenodd;stroke:rgb(0, 0, 0);stroke-width:3.0;" d="M 592.676, 177.551 L 580.839, 197.187 L 560.001, 163.66 z "/>
<path style="fill:rgb(243, 27, 255);fill-opacity:1.0;fill-rule:evenodd;stroke:rgb(0, 0, 0);stroke-width:3.0;" d="M 413.095, 17.791 L 411.55, 31.8048 L 382.459, 30.5894 L 397.273, 12.8649 z "/>
<path style="fill:rgb(231, 228, 17);fill-opacity:1.0;fill-rule:evenodd;stroke:rgb(0, 0, 0);stroke-width:3.0;" d="M 614.15, 551.939 L 575.571, 574.78 L 580.663, 540.582 L 595.465, 524.457 z "/>
<path style="fill:rgb(13, 231, 35);fill-opacity:1.0;fill-rule:evenodd;stroke:rgb(0, 0, 0);stroke-width:3.0;" d="M 701.394, 590.555 L 682.755, 594.099 L 665.026, 577.228 L 655.361, 549.248 z "/>
<path style="fill:rgb(13, 231, 35);fill-opacity:1.0;fill-rule:evenodd;stroke:rgb(0, 0, 0);stroke-width:3.0;" d="M 535.076, 280.453 L 535.615, 281.746 L 534.984, 282.809 L 518.603, 287.052 L 518.477, 283.005 L 524.396, 275.956 z "/>
<path style="fill:rgb(74, 209, 215);fill-opacity:1.0;fill-rule:evenodd;stroke:rgb(0, 0, 0);stroke-width:3.0;" d="M 772.736, 501.663 L 771.478, 515.464 L 741.356, 519.234 L 741.079, 486.537 z "/>
<path style="fill:rgb(237, 11, 81);fill-opacity:1.0;fill-rule:evenodd;stroke:rgb(0, 0, 0);stroke-width:3.0;" d="M 623.777, 338.55 L 593.695, 351.197 L 595.395, 348.536 L 597.897, 346.213 L 624.464, 334.221 z "/>
<path style="fill:rgb(237, 11, 81);fill-opacity:1.0;fill-rule:evenodd;stroke:rgb(0, 0, 0);stroke-width:3.0;" d="M 789.014, 114.896 L 788.987, 129.096 L 764.832, 125.936 L 781.775, 103.844 z "/>
<path style="fill:rgb(255, 70, 37);fill-opacity:1.0;fill-rule:evenodd;stroke:rgb(0, 0, 0);stroke-width:3.0;" d="M 518.573, 219.177 L 511.059, 228.112 L 507.696, 225.019 L 509.122, 205.661 L 513.164, 204.07 z "/>
<path style="fill:rgb(255, 189, 45);fill-opacity:1.0;fill-rule:evenodd;stroke:rgb(0, 0, 0);stroke-width:3.0;" d="M 648.57, 387.115 L 631.937, 407.934 L 630.152, 389.042 L 644.474, 386.66 z "/>
<path style="fill:rgb(255, 37, 11);fill-opacity:1.0;fill-rule:evenodd;stroke:rgb(0, 0, 0);stroke-width:3.0;" d="M 469.23, 189.643 L 470.313, 195.27 L 459.104, 191.809 L 445.698, 182.395 L 456.886, 178.29 z "/>
<path style="fill:rgb(255, 37, 11);fill-opacity:1.0;fill-rule:evenodd;stroke:rgb(0, 0, 0);stroke-width:3.0;" d="M 467.027, 234.997 L 464.181, 235.051 L 436.638, 205.83 L 441.954, 205.566 z "/>
<path style="fill:rgb(255, 34, 67);fill-opacity:1.0;fill-rule:evenodd;stroke:rgb(0, 0, 0);stroke-width:3.0;" d="M 492.434, 210.984 L 446.425, 210.814 L 441.954, 205.566 L 484.253, 203.46 z "/>
<path style="fill:rgb(55, 234, 172);fill-opacity:1.0;fill-rule:evenodd;stroke:rgb(0, 0, 0);stroke-width:3.0;" d="M 749.147, 106.388 L 749.402, 108.188 L 742.845, 118.501 L 726.905, 120.254 L 737.488, 108.48 L 748.518, 106.053 z "/>
<path style="fill:rgb(76, 3, 255);fill-opacity:1.0;fill-rule:evenodd;stroke:rgb(0, 0, 0);stroke-width:3.0;" d="M 670.923, 339.127 L 662.122, 337.587 L 651.369, 322.249 L 697.537, 231.18 z "/>
<path style="fill:rgb(246, 62, 82);fill-opacity:1.0;fill-rule:evenodd;stroke:rgb(0, 0, 0);stroke-width:3.0;" d="M 637.858, 565.141 L 635.742, 572.547 L 615.938, 573.276 L 614.678, 567.252 L 616.064, 561.63 L 623.543, 552.104 L 629.178, 549.502 z "/>
<path style="fill:rgb(246, 62, 82);fill-opacity:1.0;fill-rule:evenodd;stroke:rgb(0, 0, 0);stroke-width:3.0;" d="M 552.368, 160.415 L 552.368, 181.001 L 529.555, 202.084 L 496.638, 173.394 L 499.448, 168.484 L 539.051, 154.754 z "/>
<path style="fill:rgb(64, 212, 223);fill-opacity:1.0;fill-rule:evenodd;stroke:rgb(0, 0, 0);stroke-width:3.0;" d="M 395.517, 14.8158 L 381.657, 30.5559 L 381.138, 30.5342 L 380.455, 24.9242 L 386.579, 10.9085 z "/>
<path style="fill:rgb(14, 102, 255);fill-opacity:1.0;fill-rule:evenodd;stroke:rgb(0, 0, 0);stroke-width:3.0;" d="M 599.81, 339.235 L 581.703, 359.732 L 560.764, 337.517 L 566.286, 323.683 z "/>
<path style="fill:rgb(204, 10, 197);fill-opacity:1.0;fill-rule:evenodd;stroke:rgb(0, 0, 0);stroke-width:3.0;" d="M 677.222, 521.243 L 673.629, 531.944 L 666.056, 529.373 L 655.905, 513.462 z "/>
<path style="fill:rgb(204, 10, 197);fill-opacity:1.0;fill-rule:evenodd;stroke:rgb(0, 0, 0);stroke-width:3.0;" d="M 411.55, 31.8048 L 406.951, 73.5024 L 352.896, 47.6354 L 361.063, 29.6955 z "/>
<path style="fill:rgb(25, 130, 255);fill-opacity:1.0;fill-rule:evenodd;stroke:rgb(0, 0, 0);stroke-width:3.0;" d="M 633.017, 582.08 L 619.605, 580.015 L 617.543, 573.217 L 635.742, 572.547 z "/>
<path style="fill:rgb(25, 130, 255);fill-opacity:1.0;fill-rule:evenodd;stroke:rgb(0, 0, 0);stroke-width:3.0;" d="M 361.063, 29.6955 L 352.896, 47.6354 L 311.038, 27.6056 z "/>
<path style="fill:rgb(45, 1, 207);fill-opacity:1.0;fill-rule:evenodd;stroke:rgb(0, 0, 0);stroke-width:3.0;" d="M 616.893, 558.269 L 612.189, 566.357 L 605.772, 561.739 L 606.365, 556.548 L 619.189, 548.956 z "/>
<path style="fill:rgb(255, 161, 69);fill-opacity:1.0;fill-rule:evenodd;stroke:rgb(0, 0, 0);stroke-width:3.0;" d="M 769.283, 539.565 L 763.496, 537.199 L 760.82, 520.115 L 771.136, 519.216 z "/>
<path style="fill:rgb(108, 67, 237);fill-opacity:1.0;fill-rule:evenodd;stroke:rgb(0, 0, 0);stroke-width:3.0;" d="M 632.08, 428.16 L 602.779, 438.952 L 596.639, 433.283 L 598.114, 423.376 L 627.813, 419.972 z "/>
<path style="fill:rgb(108, 67, 237);fill-opacity:1.0;fill-rule:evenodd;stroke:rgb(0, 0, 0);stroke-width:3.0;" d="M 640.934, 490.816 L 641.621, 498.504 L 640.567, 499.725 L 634.903, 504.543 L 630.529, 502.959 L 634.559, 486.616 z "/>
<path style="fill:rgb(59, 4, 255);fill-opacity:1.0;fill-rule:evenodd;stroke:rgb(0, 0, 0);stroke-width:3.0;" d="M 773.252, 467.474 L 762.02, 464.25 L 753.469, 456.886 L 774.692, 453.155 z "/>
<path style="fill:rgb(255, 48, 255);fill-opacity:1.0;fill-rule:evenodd;stroke:rgb(0, 0, 0);stroke-width:3.0;" d="M 176.106, 586.846 L 173.75, 589.679 L 133.11, 581.637 L 137.162, 572.483 z "/>
<path style="fill:rgb(215, 2, 231);fill-opacity:1.0;fill-rule:evenodd;stroke:rgb(0, 0, 0);stroke-width:3.0;" d="M 327.189, 64.6847 L 330.469, 70.6139 L 323.729, 77.7131 L 297.908, 58.6502 L 287.819, 47.9476 z "/>
<path style="fill:rgb(187, 220, 202);fill-opacity:1.0;fill-rule:evenodd;stroke:rgb(0, 0, 0);stroke-width:3.0;" d="M 730.42, 243.962 L 688.342, 268.473 L 692.424, 251.919 L 706.354, 236.486 z "/>
<path style="fill:rgb(249, 255, 49);fill-opacity:1.0;fill-rule:evenodd;stroke:rgb(0, 0, 0);stroke-width:3.0;" d="M 700.523, 179.003 L 680.212, 214.766 L 637.848, 196.755 L 673.258, 148.282 z "/>
<path style="fill:rgb(240, 184, 138);fill-opacity:1.0;fill-rule:evenodd;stroke:rgb(0, 0, 0);stroke-width:3.0;" d="M 311.038, 27.6056 L 344.055, 43.4051 L 311.005, 55.9925 L 286.316, 26.5727 z "/>
<path style="fill:rgb(231, 136, 255);fill-opacity:1.0;fill-rule:evenodd;stroke:rgb(0, 0, 0);stroke-width:3.0;" d="M 648.184, 387.072 L 629.772, 385.026 L 628.331, 369.771 L 647.91, 363.541 z "/>
<path style="fill:rgb(255, 0, 11);fill-opacity:1.0;fill-rule:evenodd;stroke:rgb(0, 0, 0);stroke-width:3.0;" d="M 578.441, 309.945 L 552.37, 288.308 L 552.369, 261.756 L 614.066, 260.494 z "/>
<path style="fill:rgb(255, 0, 11);fill-opacity:1.0;fill-rule:evenodd;stroke:rgb(0, 0, 0);stroke-width:3.0;" d="M 272.601, 13.0388 L 273.928, 26.0552 L 266.047, 25.7259 L 267.368, 7.2649 z "/>
<path style="fill:rgb(43, 255, 10);fill-opacity:1.0;fill-rule:evenodd;stroke:rgb(0, 0, 0);stroke-width:3.0;" d="M 781.775, 103.844 L 764.832, 125.936 L 762.245, 125.598 L 771.73, 104.172 L 781.133, 102.865 z "/>
<path style="fill:rgb(30, 252, 255);fill-opacity:1.0;fill-rule:evenodd;stroke:rgb(0, 0, 0);stroke-width:3.0;" d="M 705.95, 531.729 L 704.705, 542.497 L 681.066, 534.47 L 692.35, 526.765 z "/>
<path style="fill:rgb(52, 126, 255);fill-opacity:1.0;fill-rule:evenodd;stroke:rgb(0, 0, 0);stroke-width:3.0;" d="M 692.35, 526.765 L 681.066, 534.47 L 673.629, 531.944 L 677.222, 521.243 z "/>
<path style="fill:rgb(148, 115, 243);fill-opacity:1.0;fill-rule:evenodd;stroke:rgb(0, 0, 0);stroke-width:3.0;" d="M 637.977, 321.219 L 635.328, 302.251 L 667.313, 253.647 z "/>
<path style="fill:rgb(237, 70, 255);fill-opacity:1.0;fill-rule:evenodd;stroke:rgb(0, 0, 0);stroke-width:3.0;" d="M 667.313, 253.647 L 635.328, 302.251 L 628.737, 255.056 L 681.939, 219.959 z "/>
<path style="fill:rgb(66, 5, 252);fill-opacity:1.0;fill-rule:evenodd;stroke:rgb(0, 0, 0);stroke-width:3.0;" d="M 676.851, 501.776 L 672.7, 519.592 L 648.353, 510.705 L 672.368, 499.943 z "/>
<path style="fill:rgb(255, 246, 14);fill-opacity:1.0;fill-rule:evenodd;stroke:rgb(0, 0, 0);stroke-width:3.0;" d="M 667.392, 284.467 L 655.008, 281.989 L 670.954, 245.26 L 686.745, 232.739 z "/>
<path style="fill:rgb(255, 246, 14);fill-opacity:1.0;fill-rule:evenodd;stroke:rgb(0, 0, 0);stroke-width:3.0;" d="M 763.315, 489.557 L 756.503, 493.907 L 752.2, 491.851 L 749.938, 473.181 z "/>
<path style="fill:rgb(86, 42, 243);fill-opacity:1.0;fill-rule:evenodd;stroke:rgb(0, 0, 0);stroke-width:3.0;" d="M 529.044, 270.421 L 514.974, 287.176 L 515.54, 263.425 L 521.725, 263.385 z "/>
<path style="fill:rgb(48, 255, 249);fill-opacity:1.0;fill-rule:evenodd;stroke:rgb(0, 0, 0);stroke-width:3.0;" d="M 509.484, 234.185 L 467.027, 234.997 L 460.475, 227.306 L 495.044, 217.405 z "/>
<path style="fill:rgb(249, 25, 252);fill-opacity:1.0;fill-rule:evenodd;stroke:rgb(0, 0, 0);stroke-width:3.0;" d="M 489.508, 210.973 L 495.044, 217.405 L 460.475, 227.306 L 446.425, 210.814 z "/>
<path style="fill:rgb(240, 7, 7);fill-opacity:1.0;fill-rule:evenodd;stroke:rgb(0, 0, 0);stroke-width:3.0;" d="M 469.724, 149.934 L 482.267, 160.867 L 477.241, 173.401 L 468.222, 159.576 L 464.898, 148.463 z "/>
<path style="fill:rgb(45, 204, 184);fill-opacity:1.0;fill-rule:evenodd;stroke:rgb(0, 0, 0);stroke-width:3.0;" d="M 735.449, 241.033 L 730.42, 243.962 L 708.786, 237.242 L 726.364, 231.145 L 732.279, 230.568 z "/>
<path style="fill:rgb(255, 243, 12);fill-opacity:1.0;fill-rule:evenodd;stroke:rgb(0, 0, 0);stroke-width:3.0;" d="M 701.565, 214.844 L 699.556, 222.989 L 680.212, 214.766 L 691.737, 194.472 z "/>
<path style="fill:rgb(202, 243, 9);fill-opacity:1.0;fill-rule:evenodd;stroke:rgb(0, 0, 0);stroke-width:3.0;" d="M 655.905, 513.462 L 666.056, 529.373 L 638.667, 520.072 L 633.676, 517.283 L 648.353, 510.705 z "/>
<path style="fill:rgb(255, 192, 21);fill-opacity:1.0;fill-rule:evenodd;stroke:rgb(0, 0, 0);stroke-width:3.0;" d="M 552.369, 228.504 L 552.369, 235.074 L 538.619, 229.076 L 524.873, 215.721 L 536.232, 214.785 z "/>
<path style="fill:rgb(22, 105, 255);fill-opacity:1.0;fill-rule:evenodd;stroke:rgb(0, 0, 0);stroke-width:3.0;" d="M 408.618, 99.3025 L 404.308, 97.4704 L 412.172, 26.1599 L 441.355, 17.3161 z "/>
<path style="fill:rgb(249, 32, 37);fill-opacity:1.0;fill-rule:evenodd;stroke:rgb(0, 0, 0);stroke-width:3.0;" d="M 521.633, 237.838 L 522.278, 238.431 L 516.958, 253.019 L 510.538, 250.046 L 513.991, 238.915 L 517.899, 236.767 z "/>
<path style="fill:rgb(249, 32, 37);fill-opacity:1.0;fill-rule:evenodd;stroke:rgb(0, 0, 0);stroke-width:3.0;" d="M 794.107, 109.812 L 794.166, 114.678 L 790.377, 116.977 L 776.736, 96.1511 L 776.697, 94.6447 L 782.033, 85.6252 L 790.318, 82.7009 z "/>
<path style="fill:rgb(249, 32, 37);fill-opacity:1.0;fill-rule:evenodd;stroke:rgb(0, 0, 0);stroke-width:3.0;" d="M 669.122, 338.812 L 638.439, 347.754 L 645.103, 334.609 z "/>
<path style="fill:rgb(255, 234, 134);fill-opacity:1.0;fill-rule:evenodd;stroke:rgb(0, 0, 0);stroke-width:3.0;" d="M 620.534, 440.396 L 594.645, 446.673 L 595.389, 441.674 L 614.175, 434.755 z "/>
<path style="fill:rgb(237, 255, 38);fill-opacity:1.0;fill-rule:evenodd;stroke:rgb(0, 0, 0);stroke-width:3.0;" d="M 685.568, 254.789 L 663.942, 297.449 L 662.526, 297.475 L 679.361, 252.475 z "/>
<path style="fill:rgb(255, 246, 13);fill-opacity:1.0;fill-rule:evenodd;stroke:rgb(0, 0, 0);stroke-width:3.0;" d="M 387.929, 104.848 L 400.48, 115.904 L 393.66, 117.027 L 374.268, 99.4748 z "/>
<path style="fill:rgb(255, 255, 8);fill-opacity:1.0;fill-rule:evenodd;stroke:rgb(0, 0, 0);stroke-width:3.0;" d="M 141.007, 11.6479 L 140.705, 19.9073 L 125.155, 17.5038 L 107.78, 7.65987 z "/>
<path style="fill:rgb(237, 255, 62);fill-opacity:1.0;fill-rule:evenodd;stroke:rgb(0, 0, 0);stroke-width:3.0;" d="M 491.191, 193.089 L 490.029, 208.771 L 473.551, 193.617 L 474.787, 191.799 z "/>
<path style="fill:rgb(175, 132, 255);fill-opacity:1.0;fill-rule:evenodd;stroke:rgb(0, 0, 0);stroke-width:3.0;" d="M 768.45, 108.585 L 752.464, 124.318 L 743.772, 123.181 L 774.751, 79.0563 L 786.006, 78.9109 z "/>
<path style="fill:rgb(61, 255, 13);fill-opacity:1.0;fill-rule:evenodd;stroke:rgb(0, 0, 0);stroke-width:3.0;" d="M 778.995, 215.94 L 751.025, 228.741 L 748.633, 228.974 L 780.281, 206.586 z "/>
<path style="fill:rgb(240, 17, 47);fill-opacity:1.0;fill-rule:evenodd;stroke:rgb(0, 0, 0);stroke-width:3.0;" d="M 706.849, 186.131 L 693.163, 197.428 L 691.737, 194.472 L 697.916, 183.592 L 701.525, 180.133 z "/>
<path style="fill:rgb(215, 88, 26);fill-opacity:1.0;fill-rule:evenodd;stroke:rgb(0, 0, 0);stroke-width:3.0;" d="M 560.001, 163.66 L 580.839, 197.187 L 576.292, 204.73 L 572.071, 209 L 552.369, 220.385 L 552.368, 160.415 z "/>
<path style="fill:rgb(215, 88, 26);fill-opacity:1.0;fill-rule:evenodd;stroke:rgb(0, 0, 0);stroke-width:3.0;" d="M 409.214, 110.831 L 402.68, 117.841 L 397.637, 113.399 L 391.106, 100.817 z "/>
<path style="fill:rgb(105, 98, 204);fill-opacity:1.0;fill-rule:evenodd;stroke:rgb(0, 0, 0);stroke-width:3.0;" d="M 634.807, 298.521 L 601.591, 329.156 L 578.441, 309.945 L 614.066, 260.494 L 629.452, 260.18 z "/>
<path style="fill:rgb(252, 19, 75);fill-opacity:1.0;fill-rule:evenodd;stroke:rgb(0, 0, 0);stroke-width:3.0;" d="M 612.277, 94.0795 L 640.515, 133.13 L 508.078, 118.992 L 535.677, 71.9134 z "/>
<path style="fill:rgb(255, 240, 8);fill-opacity:1.0;fill-rule:evenodd;stroke:rgb(0, 0, 0);stroke-width:3.0;" d="M 633.952, 517.437 L 634.529, 536.874 L 631.585, 537.724 L 624.928, 529.84 L 633.058, 516.937 z "/>
<path style="fill:rgb(255, 240, 8);fill-opacity:1.0;fill-rule:evenodd;stroke:rgb(0, 0, 0);stroke-width:3.0;" d="M 723.41, 126.239 L 719.629, 141.575 L 640.515, 133.13 L 612.277, 94.0795 z "/>
<path style="fill:rgb(255, 47, 10);fill-opacity:1.0;fill-rule:evenodd;stroke:rgb(0, 0, 0);stroke-width:3.0;" d="M 403.345, 152.009 L 455.559, 177.07 L 456.886, 178.29 L 445.698, 182.395 L 402.24, 151.877 z "/>
<path style="fill:rgb(252, 78, 223);fill-opacity:1.0;fill-rule:evenodd;stroke:rgb(0, 0, 0);stroke-width:3.0;" d="M 633.891, 480.807 L 590.303, 507.572 L 622.162, 478.377 z "/>
<path style="fill:rgb(252, 78, 223);fill-opacity:1.0;fill-rule:evenodd;stroke:rgb(0, 0, 0);stroke-width:3.0;" d="M 595.465, 524.457 L 580.663, 540.582 L 583.377, 522.358 L 592.311, 519.818 z "/>
<path style="fill:rgb(150, 19, 8);fill-opacity:1.0;fill-rule:evenodd;stroke:rgb(0, 0, 0);stroke-width:3.0;" d="M 726.328, 501.782 L 726.271, 521.98 L 714.098, 517.003 L 721.126, 499.675 z "/>
<path style="fill:rgb(107, 13, 255);fill-opacity:1.0;fill-rule:evenodd;stroke:rgb(0, 0, 0);stroke-width:3.0;" d="M 483.932, 162.319 L 490.27, 173.02 L 475.587, 177.529 L 482.267, 160.867 z "/>
<path style="fill:rgb(255, 136, 246);fill-opacity:1.0;fill-rule:evenodd;stroke:rgb(0, 0, 0);stroke-width:3.0;" d="M 705.738, 140.092 L 703.334, 182.17 L 673.258, 148.282 L 681.157, 137.468 z "/>
<path style="fill:rgb(170, 255, 237);fill-opacity:1.0;fill-rule:evenodd;stroke:rgb(0, 0, 0);stroke-width:3.0;" d="M 741.229, 504.264 L 741.432, 528.178 L 726.271, 521.98 L 726.274, 520.975 L 737.656, 490.475 z "/>
<path style="fill:rgb(255, 240, 33);fill-opacity:1.0;fill-rule:evenodd;stroke:rgb(0, 0, 0);stroke-width:3.0;" d="M 694.989, 509.191 L 683.09, 523.385 L 672.7, 519.592 L 676.851, 501.776 z "/>
<path style="fill:rgb(255, 240, 33);fill-opacity:1.0;fill-rule:evenodd;stroke:rgb(0, 0, 0);stroke-width:3.0;" d="M 737.656, 490.475 L 726.274, 520.975 L 726.37, 486.743 L 727.01, 485.166 L 735.179, 480.916 z "/>
<path style="fill:rgb(25, 243, 249);fill-opacity:1.0;fill-rule:evenodd;stroke:rgb(0, 0, 0);stroke-width:3.0;" d="M 516.958, 253.019 L 514.113, 260.819 L 505.06, 268.183 L 496.732, 248.4 L 501.419, 245.824 z "/>
<path style="fill:rgb(189, 74, 255);fill-opacity:1.0;fill-rule:evenodd;stroke:rgb(0, 0, 0);stroke-width:3.0;" d="M 624.638, 333.122 L 624.464, 334.221 L 597.897, 346.213 L 620.464, 325.256 z "/>
<path style="fill:rgb(220, 37, 82);fill-opacity:1.0;fill-rule:evenodd;stroke:rgb(0, 0, 0);stroke-width:3.0;" d="M 613.992, 376.464 L 613.308, 378.037 L 602.457, 381.749 L 581.703, 359.732 L 586.611, 354.176 L 594.232, 350.972 z "/>
<path style="fill:rgb(215, 255, 182);fill-opacity:1.0;fill-rule:evenodd;stroke:rgb(0, 0, 0);stroke-width:3.0;" d="M 625.551, 349.838 L 613.992, 376.464 L 594.232, 350.972 L 602.445, 347.519 z "/>
<path style="fill:rgb(255, 21, 43);fill-opacity:1.0;fill-rule:evenodd;stroke:rgb(0, 0, 0);stroke-width:3.0;" d="M 647.143, 317.154 L 645.088, 304.839 L 648.168, 297.744 L 660.417, 297.515 z "/>
<path style="fill:rgb(255, 21, 43);fill-opacity:1.0;fill-rule:evenodd;stroke:rgb(0, 0, 0);stroke-width:3.0;" d="M 667.392, 284.467 L 662.526, 297.475 L 648.168, 297.744 L 655.008, 281.989 z "/>
<path style="fill:rgb(255, 168, 79);fill-opacity:1.0;fill-rule:evenodd;stroke:rgb(0, 0, 0);stroke-width:3.0;" d="M 647.835, 357.103 L 647.91, 363.541 L 636.844, 367.063 L 637.437, 354.218 L 641.467, 351.938 z "/>
<path style="fill:rgb(255, 13, 89);fill-opacity:1.0;fill-rule:evenodd;stroke:rgb(0, 0, 0);stroke-width:3.0;" d="M 636.475, 478.846 L 629.814, 478.577 L 613.041, 471.552 L 633.567, 449.334 L 644.001, 448.32 z "/>
<path style="fill:rgb(7, 255, 237);fill-opacity:1.0;fill-rule:evenodd;stroke:rgb(0, 0, 0);stroke-width:3.0;" d="M 406.951, 73.5024 L 404.308, 97.4704 L 318.58, 61.0247 L 311.683, 55.7345 L 344.055, 43.4051 z "/>
<path style="fill:rgb(255, 199, 61);fill-opacity:1.0;fill-rule:evenodd;stroke:rgb(0, 0, 0);stroke-width:3.0;" d="M 753.965, 457.313 L 754.518, 468.145 L 747.872, 470.652 L 740.871, 462.082 L 740.846, 459.105 L 753.469, 456.886 z "/>
<path style="fill:rgb(249, 18, 19);fill-opacity:1.0;fill-rule:evenodd;stroke:rgb(0, 0, 0);stroke-width:3.0;" d="M 775.304, 178.687 L 778.952, 182.51 L 781.635, 199.733 L 781.617, 199.846 L 770.29, 186.455 L 774.593, 178.479 z "/>
<path style="fill:rgb(243, 11, 14);fill-opacity:1.0;fill-rule:evenodd;stroke:rgb(0, 0, 0);stroke-width:3.0;" d="M 708.254, 187.714 L 701.618, 214.628 L 696.443, 194.721 L 706.849, 186.131 z "/>
<path style="fill:rgb(255, 19, 75);fill-opacity:1.0;fill-rule:evenodd;stroke:rgb(0, 0, 0);stroke-width:3.0;" d="M 501.421, 130.348 L 497.476, 137.079 L 434.034, 110.108 L 484.265, 38.8862 z "/>
<path style="fill:rgb(234, 252, 67);fill-opacity:1.0;fill-rule:evenodd;stroke:rgb(0, 0, 0);stroke-width:3.0;" d="M 762.053, 139.994 L 765.986, 154.627 L 747.93, 144.503 L 749.121, 135.469 L 754.367, 133.416 z "/>
<path style="fill:rgb(70, 3, 255);fill-opacity:1.0;fill-rule:evenodd;stroke:rgb(0, 0, 0);stroke-width:3.0;" d="M 774.593, 178.479 L 757.213, 210.697 L 747.877, 177.561 L 757.725, 173.561 z "/>
<path style="fill:rgb(231, 8, 49);fill-opacity:1.0;fill-rule:evenodd;stroke:rgb(0, 0, 0);stroke-width:3.0;" d="M 311.08, 11.5915 L 310.905, 12.0556 L 297.708, 27.0487 L 273.928, 26.0552 L 273.199, 18.9031 L 277.875, 7.35947 z "/>
<path style="fill:rgb(255, 16, 71);fill-opacity:1.0;fill-rule:evenodd;stroke:rgb(0, 0, 0);stroke-width:3.0;" d="M 257.47, 31.5017 L 253.713, 37.3731 L 232.984, 34.1693 L 230.939, 30.7207 L 244.986, 17.5668 z "/>
<path style="fill:rgb(255, 103, 8);fill-opacity:1.0;fill-rule:evenodd;stroke:rgb(0, 0, 0);stroke-width:3.0;" d="M 648.397, 430.488 L 647.571, 433.841 L 620.534, 440.396 L 614.175, 434.755 L 624.512, 430.947 L 647.099, 429.11 z "/>
<path style="fill:rgb(252, 14, 170);fill-opacity:1.0;fill-rule:evenodd;stroke:rgb(0, 0, 0);stroke-width:3.0;" d="M 612.158, 185.834 L 572.071, 209 L 584.877, 196.045 L 608.5, 184.279 z "/>
</svg>