<?xml version="1.0" encoding="iso-8859-1" standalone="no"?>
<!DOCTYPE svg PUBLIC "-//W3C//DTD SVG 1.0//EN" "http://www.w3.org/TR/2001/REC-SVG-20010904/DTD/svg10.dtd">
<svg xmlns="http://www.w3.org/2000/svg" width="800" height="600">
<path style="fill:rgb(0, 0, 0);fill-opacity:0.0;fill-rule:evenodd;stroke:rgb(0, 0, 0);stroke-width:0.0;" d="M 0, 600 L 800, 600 L 800, 0 L 0, 0 z "/>
<path style="fill:rgb(168, 246, 86);fill-opacity:1.0;fill-rule:evenodd;stroke:rgb(0, 0, 0);stroke-width:3.0;" d="M 73.0047, 190.121 L 79.6256, 194.802 L 69.6603, 199.32 L 52.551, 201.46 L 57.18, 193.02 L 63.9989, 189.199 L 68.4697, 187.995 z "/>
<path style="fill:rgb(168, 246, 86);fill-opacity:1.0;fill-rule:evenodd;stroke:rgb(0, 0, 0);stroke-width:3.0;" d="M 475.184, 243.487 L 419.965, 308.09 L 368.196, 238.3 z "/>
<path style="fill:rgb(197, 138, 94);fill-opacity:1.0;fill-rule:evenodd;stroke:rgb(0, 0, 0);stroke-width:3.0;" d="M 195.697, 72.7313 L 185.091, 79.4796 L 182.084, 76.1954 L 178.854, 69.8153 L 190.404, 64.9049 z "/>
<path style="fill:rgb(249, 13, 13);fill-opacity:1.0;fill-rule:evenodd;stroke:rgb(0, 0, 0);stroke-width:3.0;" d="M 489.998, 485.107 L 501.44, 499.735 L 503.353, 519.332 L 498.425, 516.706 L 480.053, 479.411 z "/>
<path style="fill:rgb(249, 13, 13);fill-opacity:1.0;fill-rule:evenodd;stroke:rgb(0, 0, 0);stroke-width:3.0;" d="M 776.644, 563.372 L 766.642, 580.025 L 748.856, 574.769 L 728.854, 548.837 z "/>
<path style="fill:rgb(240, 30, 74);fill-opacity:1.0;fill-rule:evenodd;stroke:rgb(0, 0, 0);stroke-width:3.0;" d="M 244.691, 122.606 L 309.378, 205.914 L 257.328, 154.666 L 240.564, 122.576 z "/>
<path style="fill:rgb(217, 4, 39);fill-opacity:1.0;fill-rule:evenodd;stroke:rgb(0, 0, 0);stroke-width:3.0;" d="M 730.18, 576.42 L 719.051, 583.399 L 707.811, 582.132 L 715.487, 575.154 z "/>
<path style="fill:rgb(217, 4, 39);fill-opacity:1.0;fill-rule:evenodd;stroke:rgb(0, 0, 0);stroke-width:3.0;" d="M 362.152, 230.152 L 360.137, 232.587 L 319.582, 219.057 L 191.881, 54.593 L 206.261, 19.9933 z "/>
<path style="fill:rgb(217, 4, 39);fill-opacity:1.0;fill-rule:evenodd;stroke:rgb(0, 0, 0);stroke-width:3.0;" d="M 484.918, 384.107 L 481.821, 391.479 L 461.651, 364.288 L 471.92, 358.627 z "/>
<path style="fill:rgb(217, 4, 39);fill-opacity:1.0;fill-rule:evenodd;stroke:rgb(0, 0, 0);stroke-width:3.0;" d="M 159.585, 95.7075 L 151.644, 100.76 L 144.619, 95.0397 L 183.298, 58.9126 z "/>
<path style="fill:rgb(27, 209, 237);fill-opacity:1.0;fill-rule:evenodd;stroke:rgb(0, 0, 0);stroke-width:3.0;" d="M 114.141, 295.728 L 113.354, 297.207 L 94.4879, 315.645 L 92.0912, 315.998 L 89.7599, 302.856 L 95.566, 298.303 L 114.141, 295.367 z "/>
<path style="fill:rgb(27, 209, 237);fill-opacity:1.0;fill-rule:evenodd;stroke:rgb(0, 0, 0);stroke-width:3.0;" d="M 32.7482, 87.4093 L 22.2915, 111.032 L 21.7684, 111.549 L 17.1142, 102.352 L 29.1351, 73.5197 z "/>
<path style="fill:rgb(27, 209, 237);fill-opacity:1.0;fill-rule:evenodd;stroke:rgb(0, 0, 0);stroke-width:3.0;" d="M 360.137, 232.587 L 344.633, 251.318 L 319.582, 219.057 z "/>
<path style="fill:rgb(212, 44, 228);fill-opacity:1.0;fill-rule:evenodd;stroke:rgb(0, 0, 0);stroke-width:3.0;" d="M 180.976, 116.39 L 180.653, 116.824 L 162.627, 111.692 L 158.4, 106.073 L 162.541, 96.8278 L 177.335, 87.2813 z "/>
<path style="fill:rgb(212, 44, 228);fill-opacity:1.0;fill-rule:evenodd;stroke:rgb(0, 0, 0);stroke-width:3.0;" d="M 744.97, 414.051 L 744.582, 465.088 L 551.31, 485.159 L 528.926, 454.982 L 719.639, 180.74 z "/>
<path style="fill:rgb(255, 119, 60);fill-opacity:1.0;fill-rule:evenodd;stroke:rgb(0, 0, 0);stroke-width:3.0;" d="M 214.954, 96.5175 L 215.561, 100.33 L 215.124, 101.456 L 164.156, 26.0945 z "/>
<path style="fill:rgb(255, 119, 60);fill-opacity:1.0;fill-rule:evenodd;stroke:rgb(0, 0, 0);stroke-width:3.0;" d="M 526.665, 528.654 L 526.292, 531.504 L 502.51, 501.103 L 502.939, 495.761 z "/>
<path style="fill:rgb(255, 119, 60);fill-opacity:1.0;fill-rule:evenodd;stroke:rgb(0, 0, 0);stroke-width:3.0;" d="M 42.6308, 65.0835 L 36.819, 78.2129 L 29.8688, 76.3401 L 27.8852, 68.715 L 39.0174, 54.5459 z "/>
<path style="fill:rgb(255, 119, 60);fill-opacity:1.0;fill-rule:evenodd;stroke:rgb(0, 0, 0);stroke-width:3.0;" d="M 468.847, 352.604 L 471.92, 358.627 L 461.651, 364.288 L 447.533, 345.256 L 453.637, 340.068 z "/>
<path style="fill:rgb(255, 119, 60);fill-opacity:1.0;fill-rule:evenodd;stroke:rgb(0, 0, 0);stroke-width:3.0;" d="M 744.97, 414.051 L 719.639, 180.74 L 747.046, 141.328 z "/>
<path style="fill:rgb(255, 255, 7);fill-opacity:1.0;fill-rule:evenodd;stroke:rgb(0, 0, 0);stroke-width:3.0;" d="M 414.128, 355.808 L 414.353, 356.729 L 405.893, 361.223 L 394.387, 345.272 L 395.095, 344.424 z "/>
<path style="fill:rgb(60, 168, 255);fill-opacity:1.0;fill-rule:evenodd;stroke:rgb(0, 0, 0);stroke-width:3.0;" d="M 293.8, 281.672 L 260.29, 291.271 L 183.698, 302.531 L 194.93, 281.548 L 295.105, 269.248 z "/>
<path style="fill:rgb(60, 168, 255);fill-opacity:1.0;fill-rule:evenodd;stroke:rgb(0, 0, 0);stroke-width:3.0;" d="M 101.55, 118.377 L 90.7823, 90.2561 L 94.2104, 68.2765 L 115.243, 68.0835 z "/>
<path style="fill:rgb(12, 69, 255);fill-opacity:1.0;fill-rule:evenodd;stroke:rgb(0, 0, 0);stroke-width:3.0;" d="M 197.199, 61.4412 L 210.275, 78.2815 L 210.162, 89.8732 L 171.193, 35.8493 z "/>
<path style="fill:rgb(209, 26, 24);fill-opacity:1.0;fill-rule:evenodd;stroke:rgb(0, 0, 0);stroke-width:3.0;" d="M 185.627, 298.928 L 183.698, 302.531 L 163.205, 305.543 L 166.144, 293.268 z "/>
<path style="fill:rgb(255, 130, 10);fill-opacity:1.0;fill-rule:evenodd;stroke:rgb(0, 0, 0);stroke-width:3.0;" d="M 66.8687, 131.984 L 12.3627, 137.35 L 17.3797, 123.341 L 27.8258, 115.173 z "/>
<path style="fill:rgb(255, 130, 10);fill-opacity:1.0;fill-rule:evenodd;stroke:rgb(0, 0, 0);stroke-width:3.0;" d="M 580.281, 560.32 L 577.403, 584.581 L 557.641, 560.541 L 566.175, 552.804 z "/>
<path style="fill:rgb(255, 130, 10);fill-opacity:1.0;fill-rule:evenodd;stroke:rgb(0, 0, 0);stroke-width:3.0;" d="M 577.403, 584.581 L 576.783, 589.806 L 563.043, 589.889 L 547.65, 569.599 L 557.641, 560.541 z "/>
<path style="fill:rgb(255, 130, 10);fill-opacity:1.0;fill-rule:evenodd;stroke:rgb(0, 0, 0);stroke-width:3.0;" d="M 223.57, 163.599 L 193.474, 168.593 L 194.158, 166.252 L 220.755, 158.862 z "/>
<path style="fill:rgb(255, 255, 74);fill-opacity:1.0;fill-rule:evenodd;stroke:rgb(0, 0, 0);stroke-width:3.0;" d="M 492.03, 263.804 L 485.876, 230.979 L 494.544, 220.838 z "/>
<path style="fill:rgb(255, 255, 74);fill-opacity:1.0;fill-rule:evenodd;stroke:rgb(0, 0, 0);stroke-width:3.0;" d="M 404.441, 333.237 L 394.387, 345.272 L 388.149, 336.623 L 383.109, 320.706 L 397.11, 319.132 z "/>
<path style="fill:rgb(197, 255, 56);fill-opacity:1.0;fill-rule:evenodd;stroke:rgb(0, 0, 0);stroke-width:3.0;" d="M 423.48, 393.486 L 429.166, 412.756 L 427.454, 415.41 L 424.155, 410.53 L 413.846, 384.201 L 413.781, 383.969 z "/>
<path style="fill:rgb(255, 255, 57);fill-opacity:1.0;fill-rule:evenodd;stroke:rgb(0, 0, 0);stroke-width:3.0;" d="M 92.4212, 176.145 L 90.7157, 180.995 L 79.6505, 185.386 L 78.7883, 184.365 L 74.2577, 172.084 L 75.3046, 170.69 L 77.5448, 168.807 z "/>
<path style="fill:rgb(255, 255, 57);fill-opacity:1.0;fill-rule:evenodd;stroke:rgb(0, 0, 0);stroke-width:3.0;" d="M 577.082, 519.902 L 575.631, 520.192 L 519.501, 501.352 L 513.702, 459.423 L 527.372, 452.888 z "/>
<path style="fill:rgb(255, 255, 57);fill-opacity:1.0;fill-rule:evenodd;stroke:rgb(0, 0, 0);stroke-width:3.0;" d="M 741.25, 75.8115 L 723.233, 91.202 L 722.039, 86.4273 L 728.393, 73.6444 z "/>
<path style="fill:rgb(255, 255, 57);fill-opacity:1.0;fill-rule:evenodd;stroke:rgb(0, 0, 0);stroke-width:3.0;" d="M 438.341, 521.326 L 403.67, 529.279 L 433.65, 501.716 z "/>
<path style="fill:rgb(255, 255, 57);fill-opacity:1.0;fill-rule:evenodd;stroke:rgb(0, 0, 0);stroke-width:3.0;" d="M 741.099, 48.0796 L 737.934, 54.4477 L 725.175, 56.9332 L 690.37, 29.7624 L 745.419, 17.9123 z "/>
<path style="fill:rgb(255, 255, 57);fill-opacity:1.0;fill-rule:evenodd;stroke:rgb(0, 0, 0);stroke-width:3.0;" d="M 158.405, 146.715 L 151.015, 156.644 L 137.42, 150.12 L 134.826, 146.011 L 152.345, 141.094 z "/>
<path style="fill:rgb(255, 255, 57);fill-opacity:1.0;fill-rule:evenodd;stroke:rgb(0, 0, 0);stroke-width:3.0;" d="M 204.159, 85.2422 L 180.976, 116.39 L 177.335, 87.2813 L 196.969, 74.6115 z "/>
<path style="fill:rgb(255, 220, 13);fill-opacity:1.0;fill-rule:evenodd;stroke:rgb(0, 0, 0);stroke-width:3.0;" d="M 76.4915, 52.9352 L 77.751, 56.2244 L 22.2915, 111.032 L 48.1237, 52.6743 z "/>
<path style="fill:rgb(255, 36, 14);fill-opacity:1.0;fill-rule:evenodd;stroke:rgb(0, 0, 0);stroke-width:3.0;" d="M 560.689, 198.077 L 579.739, 146.745 L 676.259, 17.1568 z "/>
<path style="fill:rgb(255, 36, 14);fill-opacity:1.0;fill-rule:evenodd;stroke:rgb(0, 0, 0);stroke-width:3.0;" d="M 496.058, 486.223 L 487.448, 477.071 L 433.73, 405.68 L 435.728, 402.584 z "/>
<path style="fill:rgb(168, 152, 255);fill-opacity:1.0;fill-rule:evenodd;stroke:rgb(0, 0, 0);stroke-width:3.0;" d="M 453.637, 340.068 L 447.533, 345.256 L 428.032, 318.966 z "/>
<path style="fill:rgb(168, 152, 255);fill-opacity:1.0;fill-rule:evenodd;stroke:rgb(0, 0, 0);stroke-width:3.0;" d="M 335.974, 280.145 L 330.149, 281.001 L 313.257, 267.019 L 326.035, 265.45 z "/>
<path style="fill:rgb(255, 52, 57);fill-opacity:1.0;fill-rule:evenodd;stroke:rgb(0, 0, 0);stroke-width:3.0;" d="M 465.529, 395.844 L 443.322, 413.112 L 429.83, 394.408 L 458.59, 381.356 z "/>
<path style="fill:rgb(255, 52, 57);fill-opacity:1.0;fill-rule:evenodd;stroke:rgb(0, 0, 0);stroke-width:3.0;" d="M 491.826, 267.286 L 486.007, 366.746 L 460.428, 345.665 L 466.217, 253.978 L 477.464, 240.82 z "/>
<path style="fill:rgb(255, 52, 57);fill-opacity:1.0;fill-rule:evenodd;stroke:rgb(0, 0, 0);stroke-width:3.0;" d="M 391.296, 305.078 L 390.54, 306.489 L 356.522, 241.035 L 358.81, 237.274 z "/>
<path style="fill:rgb(13, 43, 246);fill-opacity:1.0;fill-rule:evenodd;stroke:rgb(0, 0, 0);stroke-width:3.0;" d="M 467.839, 456.78 L 459.854, 463.316 L 438.544, 431.807 L 443.754, 425.991 z "/>
<path style="fill:rgb(255, 115, 179);fill-opacity:1.0;fill-rule:evenodd;stroke:rgb(0, 0, 0);stroke-width:3.0;" d="M 165.222, 297.121 L 163.205, 305.543 L 148.616, 307.688 L 145.15, 287.785 z "/>
<path style="fill:rgb(255, 115, 179);fill-opacity:1.0;fill-rule:evenodd;stroke:rgb(0, 0, 0);stroke-width:3.0;" d="M 98.5879, 139.499 L 94.43, 151.296 L 89.7284, 158.566 L 78.0766, 168.36 L 75.3502, 169.435 L 67.9913, 166.612 L 98.0732, 138.515 z "/>
<path style="fill:rgb(255, 115, 179);fill-opacity:1.0;fill-rule:evenodd;stroke:rgb(0, 0, 0);stroke-width:3.0;" d="M 117.026, 111.237 L 103.92, 124.567 L 101.55, 118.377 L 114.826, 69.6122 z "/>
<path style="fill:rgb(13, 255, 252);fill-opacity:1.0;fill-rule:evenodd;stroke:rgb(0, 0, 0);stroke-width:3.0;" d="M 68.5975, 319.451 L 51.0341, 322.033 L 46.2701, 299.802 L 102.451, 292.904 z "/>
<path style="fill:rgb(226, 55, 182);fill-opacity:1.0;fill-rule:evenodd;stroke:rgb(0, 0, 0);stroke-width:3.0;" d="M 659.579, 528.421 L 605.703, 547.231 L 610.135, 544.168 L 657.636, 524.826 z "/>
<path style="fill:rgb(226, 55, 182);fill-opacity:1.0;fill-rule:evenodd;stroke:rgb(0, 0, 0);stroke-width:3.0;" d="M 530.73, 253.293 L 522.117, 265.16 L 514.893, 263.807 L 510.817, 251.93 L 515.516, 249.003 z "/>
<path style="fill:rgb(226, 55, 182);fill-opacity:1.0;fill-rule:evenodd;stroke:rgb(0, 0, 0);stroke-width:3.0;" d="M 315.938, 128.265 L 296.43, 132.457 L 279.509, 118.739 L 210.838, 26.1627 z "/>
<path style="fill:rgb(226, 55, 182);fill-opacity:1.0;fill-rule:evenodd;stroke:rgb(0, 0, 0);stroke-width:3.0;" d="M 428.228, 237.352 L 432.409, 241.413 L 368.196, 238.3 L 365.865, 235.157 z "/>
<path style="fill:rgb(226, 55, 182);fill-opacity:1.0;fill-rule:evenodd;stroke:rgb(0, 0, 0);stroke-width:3.0;" d="M 487.448, 477.071 L 465.29, 453.521 L 435.403, 415.315 L 438.63, 412.191 z "/>
<path style="fill:rgb(226, 55, 182);fill-opacity:1.0;fill-rule:evenodd;stroke:rgb(0, 0, 0);stroke-width:3.0;" d="M 97.9464, 44.3224 L 90.7823, 90.2561 L 74.6877, 48.2246 L 80.3884, 32.4574 z "/>
<path style="fill:rgb(226, 55, 182);fill-opacity:1.0;fill-rule:evenodd;stroke:rgb(0, 0, 0);stroke-width:3.0;" d="M 369.991, 330.444 L 344.259, 292.396 L 349.296, 289.274 z "/>
<path style="fill:rgb(255, 130, 8);fill-opacity:1.0;fill-rule:evenodd;stroke:rgb(0, 0, 0);stroke-width:3.0;" d="M 520.615, 280.476 L 524.145, 290.758 L 515.722, 310.803 L 490.314, 319.155 L 488.875, 317.724 L 493.168, 244.364 z "/>
<path style="fill:rgb(33, 199, 209);fill-opacity:1.0;fill-rule:evenodd;stroke:rgb(0, 0, 0);stroke-width:3.0;" d="M 410.775, 295.701 L 420.14, 325.233 L 406.71, 325.419 L 393.903, 272.955 z "/>
<path style="fill:rgb(170, 7, 255);fill-opacity:1.0;fill-rule:evenodd;stroke:rgb(0, 0, 0);stroke-width:3.0;" d="M 127.432, 134.296 L 122.98, 149.967 L 112.942, 158.218 L 109.705, 149.953 L 120.366, 131.252 L 125.481, 131.205 z "/>
<path style="fill:rgb(170, 7, 255);fill-opacity:1.0;fill-rule:evenodd;stroke:rgb(0, 0, 0);stroke-width:3.0;" d="M 248.698, 151.099 L 221.499, 158.656 L 199.475, 91.5345 L 204.159, 85.2422 z "/>
<path style="fill:rgb(252, 23, 192);fill-opacity:1.0;fill-rule:evenodd;stroke:rgb(0, 0, 0);stroke-width:3.0;" d="M 732.967, 543.296 L 695.963, 544.586 L 695.764, 544.36 L 701.175, 526.91 z "/>
<path style="fill:rgb(18, 0, 215);fill-opacity:1.0;fill-rule:evenodd;stroke:rgb(0, 0, 0);stroke-width:3.0;" d="M 189.996, 290.766 L 182.408, 293.524 L 176.936, 283.758 L 194.93, 281.548 z "/>
<path style="fill:rgb(18, 0, 215);fill-opacity:1.0;fill-rule:evenodd;stroke:rgb(0, 0, 0);stroke-width:3.0;" d="M 744.492, 476.91 L 743.989, 542.912 L 732.967, 543.296 L 701.175, 526.91 L 717.151, 475.394 z "/>
<path style="fill:rgb(237, 255, 70);fill-opacity:1.0;fill-rule:evenodd;stroke:rgb(0, 0, 0);stroke-width:3.0;" d="M 671.473, 528.738 L 624.875, 547.063 L 612.333, 547.501 L 674.231, 526.427 z "/>
<path style="fill:rgb(237, 255, 70);fill-opacity:1.0;fill-rule:evenodd;stroke:rgb(0, 0, 0);stroke-width:3.0;" d="M 604.939, 547.758 L 597.926, 548.003 L 591.577, 539.443 L 654.943, 474.397 L 721.018, 467.535 z "/>
<path style="fill:rgb(46, 252, 255);fill-opacity:1.0;fill-rule:evenodd;stroke:rgb(0, 0, 0);stroke-width:3.0;" d="M 747.537, 76.8711 L 747.199, 121.346 L 710.026, 110.595 L 717.033, 96.4973 L 741.25, 75.8115 z "/>
<path style="fill:rgb(46, 252, 255);fill-opacity:1.0;fill-rule:evenodd;stroke:rgb(0, 0, 0);stroke-width:3.0;" d="M 591.577, 539.443 L 551.31, 485.159 L 654.943, 474.397 z "/>
<path style="fill:rgb(246, 10, 170);fill-opacity:1.0;fill-rule:evenodd;stroke:rgb(0, 0, 0);stroke-width:3.0;" d="M 499.861, 415.799 L 500.526, 433.551 L 482.141, 416.532 L 496.865, 411.76 z "/>
<path style="fill:rgb(255, 6, 9);fill-opacity:1.0;fill-rule:evenodd;stroke:rgb(0, 0, 0);stroke-width:3.0;" d="M 671.597, 517.035 L 663.174, 507.511 L 677.019, 497.944 z "/>
<path style="fill:rgb(240, 26, 252);fill-opacity:1.0;fill-rule:evenodd;stroke:rgb(0, 0, 0);stroke-width:3.0;" d="M 121.685, 131.24 L 109.03, 131.358 L 135.104, 114.533 z "/>
<path style="fill:rgb(240, 26, 252);fill-opacity:1.0;fill-rule:evenodd;stroke:rgb(0, 0, 0);stroke-width:3.0;" d="M 165.293, 137.46 L 134.826, 146.011 L 126.028, 132.071 L 127.127, 131.189 L 170.26, 130.788 z "/>
<path style="fill:rgb(255, 252, 81);fill-opacity:1.0;fill-rule:evenodd;stroke:rgb(0, 0, 0);stroke-width:3.0;" d="M 747.537, 76.8711 L 728.393, 73.6444 L 747.86, 34.4787 z "/>
<path style="fill:rgb(226, 255, 9);fill-opacity:1.0;fill-rule:evenodd;stroke:rgb(0, 0, 0);stroke-width:3.0;" d="M 188.072, 167.943 L 130.753, 183.867 L 161.752, 142.218 z "/>
<path style="fill:rgb(226, 255, 9);fill-opacity:1.0;fill-rule:evenodd;stroke:rgb(0, 0, 0);stroke-width:3.0;" d="M 393.647, 312.468 L 389.842, 319.949 L 377.15, 321.376 L 351.872, 286.331 L 352.619, 241.669 L 355.219, 238.528 z "/>
<path style="fill:rgb(226, 255, 9);fill-opacity:1.0;fill-rule:evenodd;stroke:rgb(0, 0, 0);stroke-width:3.0;" d="M 717.151, 475.394 L 706.219, 510.647 L 692.528, 487.225 L 710.205, 475.008 z "/>
<path style="fill:rgb(237, 3, 81);fill-opacity:1.0;fill-rule:evenodd;stroke:rgb(0, 0, 0);stroke-width:3.0;" d="M 130.48, 310.354 L 114.139, 312.756 L 114.139, 307.738 L 132.913, 303.337 z "/>
<path style="fill:rgb(202, 94, 209);fill-opacity:1.0;fill-rule:evenodd;stroke:rgb(0, 0, 0);stroke-width:3.0;" d="M 546.31, 542.22 L 542.975, 557.119 L 516.736, 547.422 L 504.08, 528.71 L 520.845, 528.652 z "/>
<path style="fill:rgb(255, 51, 44);fill-opacity:1.0;fill-rule:evenodd;stroke:rgb(0, 0, 0);stroke-width:3.0;" d="M 516.173, 477.287 L 510.866, 471.605 L 507.543, 454.178 L 512.007, 447.163 z "/>
<path style="fill:rgb(255, 51, 44);fill-opacity:1.0;fill-rule:evenodd;stroke:rgb(0, 0, 0);stroke-width:3.0;" d="M 221.499, 158.656 L 188.072, 167.943 L 161.752, 142.218 L 199.475, 91.5345 z "/>
<path style="fill:rgb(249, 24, 255);fill-opacity:1.0;fill-rule:evenodd;stroke:rgb(0, 0, 0);stroke-width:3.0;" d="M 525.931, 531.043 L 518.821, 527.574 L 503.353, 519.332 L 501.44, 499.735 z "/>
<path style="fill:rgb(204, 22, 140);fill-opacity:1.0;fill-rule:evenodd;stroke:rgb(0, 0, 0);stroke-width:3.0;" d="M 64.6412, 21.9879 L 76.4915, 52.9352 L 12.5055, 52.3468 L 14.7204, 16.7219 z "/>
<path style="fill:rgb(204, 22, 140);fill-opacity:1.0;fill-rule:evenodd;stroke:rgb(0, 0, 0);stroke-width:3.0;" d="M 470.716, 460.458 L 474.756, 468.658 L 466.219, 472.727 L 459.854, 463.316 L 467.839, 456.78 z "/>
<path style="fill:rgb(175, 123, 115);fill-opacity:1.0;fill-rule:evenodd;stroke:rgb(0, 0, 0);stroke-width:3.0;" d="M 20.5969, 109.234 L 11.7104, 108.235 L 9.10052, 107.111 L 10.2408, 88.7705 z "/>
<path style="fill:rgb(175, 123, 115);fill-opacity:1.0;fill-rule:evenodd;stroke:rgb(0, 0, 0);stroke-width:3.0;" d="M 309.378, 205.914 L 309.432, 205.984 L 301.381, 216.334 L 279.876, 186.52 L 282.786, 179.733 z "/>
<path style="fill:rgb(175, 123, 115);fill-opacity:1.0;fill-rule:evenodd;stroke:rgb(0, 0, 0);stroke-width:3.0;" d="M 421.582, 555.669 L 412.261, 574.995 L 400.93, 577.466 L 398.17, 545.528 z "/>
<path style="fill:rgb(175, 123, 115);fill-opacity:1.0;fill-rule:evenodd;stroke:rgb(0, 0, 0);stroke-width:3.0;" d="M 498.425, 516.706 L 494.576, 514.656 L 481.425, 495.211 L 485.769, 491.016 z "/>
<path style="fill:rgb(146, 37, 252);fill-opacity:1.0;fill-rule:evenodd;stroke:rgb(0, 0, 0);stroke-width:3.0;" d="M 508.971, 256.318 L 515.663, 266.049 L 518.855, 275.349 L 513.26, 270.798 L 493.168, 244.364 L 493.526, 238.235 z "/>
<path style="fill:rgb(146, 37, 252);fill-opacity:1.0;fill-rule:evenodd;stroke:rgb(0, 0, 0);stroke-width:3.0;" d="M 600.87, 571.289 L 597.497, 586.532 L 576.75, 590.083 L 580.281, 560.32 z "/>
<path style="fill:rgb(146, 37, 252);fill-opacity:1.0;fill-rule:evenodd;stroke:rgb(0, 0, 0);stroke-width:3.0;" d="M 606.05, 558.955 L 573.203, 556.548 L 546.188, 542.155 L 545.602, 535.147 L 583.084, 527.993 z "/>
<path style="fill:rgb(146, 37, 252);fill-opacity:1.0;fill-rule:evenodd;stroke:rgb(0, 0, 0);stroke-width:3.0;" d="M 529.982, 252.176 L 506.639, 239.76 L 498.539, 216.164 L 518.353, 192.983 z "/>
<path style="fill:rgb(146, 37, 252);fill-opacity:1.0;fill-rule:evenodd;stroke:rgb(0, 0, 0);stroke-width:3.0;" d="M 145.15, 287.785 L 148.616, 307.688 L 130.48, 310.354 L 138.047, 288.533 L 144.938, 287.687 z "/>
<path style="fill:rgb(255, 0, 7);fill-opacity:1.0;fill-rule:evenodd;stroke:rgb(0, 0, 0);stroke-width:3.0;" d="M 109.705, 149.953 L 105.451, 139.094 L 107.919, 132.075 L 109.03, 131.358 L 120.366, 131.252 z "/>
<path style="fill:rgb(255, 0, 7);fill-opacity:1.0;fill-rule:evenodd;stroke:rgb(0, 0, 0);stroke-width:3.0;" d="M 538.918, 255.601 L 533.969, 267.379 L 522.117, 265.16 L 530.73, 253.293 z "/>
<path style="fill:rgb(255, 0, 7);fill-opacity:1.0;fill-rule:evenodd;stroke:rgb(0, 0, 0);stroke-width:3.0;" d="M 468.542, 416.437 L 447.26, 410.05 L 465.093, 396.184 z "/>
<path style="fill:rgb(255, 0, 7);fill-opacity:1.0;fill-rule:evenodd;stroke:rgb(0, 0, 0);stroke-width:3.0;" d="M 505.758, 334.513 L 503.917, 338.894 L 490.818, 337.651 L 489.266, 335.031 L 489.152, 317.998 z "/>
<path style="fill:rgb(255, 179, 38);fill-opacity:1.0;fill-rule:evenodd;stroke:rgb(0, 0, 0);stroke-width:3.0;" d="M 575.631, 520.192 L 533.274, 528.657 L 537.258, 507.312 z "/>
<path style="fill:rgb(246, 5, 75);fill-opacity:1.0;fill-rule:evenodd;stroke:rgb(0, 0, 0);stroke-width:3.0;" d="M 519.978, 519.383 L 491.327, 479.663 L 491.659, 479.14 L 511.888, 476.965 z "/>
<path style="fill:rgb(255, 243, 22);fill-opacity:1.0;fill-rule:evenodd;stroke:rgb(0, 0, 0);stroke-width:3.0;" d="M 173.61, 126.286 L 170.26, 130.788 L 147.233, 131.002 L 158.4, 106.073 z "/>
<path style="fill:rgb(255, 243, 22);fill-opacity:1.0;fill-rule:evenodd;stroke:rgb(0, 0, 0);stroke-width:3.0;" d="M 501.94, 356.387 L 487.358, 395.681 L 486.815, 379.594 L 508.201, 328.699 z "/>
<path style="fill:rgb(255, 243, 22);fill-opacity:1.0;fill-rule:evenodd;stroke:rgb(0, 0, 0);stroke-width:3.0;" d="M 514.62, 544.293 L 472.241, 577.611 L 449.442, 567.736 L 430.734, 489.526 L 472.11, 481.438 z "/>
<path style="fill:rgb(255, 243, 22);fill-opacity:1.0;fill-rule:evenodd;stroke:rgb(0, 0, 0);stroke-width:3.0;" d="M 90.331, 89.0776 L 93.9179, 98.445 L 90.6938, 102.336 L 79.5599, 112.905 L 86.3754, 82.5899 z "/>
<path style="fill:rgb(255, 243, 22);fill-opacity:1.0;fill-rule:evenodd;stroke:rgb(0, 0, 0);stroke-width:3.0;" d="M 643.845, 592.137 L 642.893, 592.233 L 632.588, 586.556 L 631.31, 582.296 L 641.88, 580.191 L 645.221, 580.087 z "/>
<path style="fill:rgb(11, 252, 255);fill-opacity:1.0;fill-rule:evenodd;stroke:rgb(0, 0, 0);stroke-width:3.0;" d="M 557.218, 207.43 L 519.168, 192.03 L 596.515, 101.54 z "/>
<path style="fill:rgb(11, 252, 255);fill-opacity:1.0;fill-rule:evenodd;stroke:rgb(0, 0, 0);stroke-width:3.0;" d="M 111.607, 189.187 L 85.2608, 196.506 L 97.0315, 163.035 z "/>
<path style="fill:rgb(11, 252, 255);fill-opacity:1.0;fill-rule:evenodd;stroke:rgb(0, 0, 0);stroke-width:3.0;" d="M 460.428, 345.665 L 428.032, 318.966 L 419.965, 308.09 L 466.217, 253.978 z "/>
<path style="fill:rgb(11, 252, 255);fill-opacity:1.0;fill-rule:evenodd;stroke:rgb(0, 0, 0);stroke-width:3.0;" d="M 493.85, 454.978 L 475.019, 454.465 L 465.093, 396.184 L 465.529, 395.844 z "/>
<path style="fill:rgb(11, 252, 255);fill-opacity:1.0;fill-rule:evenodd;stroke:rgb(0, 0, 0);stroke-width:3.0;" d="M 606.05, 558.955 L 622.53, 581.171 L 619.249, 581.081 L 611.129, 576.755 L 606.339, 562.993 L 605.487, 558.913 z "/>
<path style="fill:rgb(255, 187, 18);fill-opacity:1.0;fill-rule:evenodd;stroke:rgb(0, 0, 0);stroke-width:3.0;" d="M 516.509, 479.722 L 521.703, 517.277 L 517.58, 506.808 L 512.01, 477.602 z "/>
<path style="fill:rgb(255, 187, 18);fill-opacity:1.0;fill-rule:evenodd;stroke:rgb(0, 0, 0);stroke-width:3.0;" d="M 98.6251, 39.9711 L 98.1426, 43.0649 L 81.5237, 29.3174 L 87.0126, 14.1359 z "/>
<path style="fill:rgb(246, 215, 255);fill-opacity:1.0;fill-rule:evenodd;stroke:rgb(0, 0, 0);stroke-width:3.0;" d="M 315.369, 235.727 L 315.308, 242.749 L 281.025, 198.898 L 215.929, 102.646 L 214.954, 96.5175 z "/>
<path style="fill:rgb(252, 175, 9);fill-opacity:1.0;fill-rule:evenodd;stroke:rgb(0, 0, 0);stroke-width:3.0;" d="M 704.893, 120.922 L 626.591, 94.9097 L 640.286, 73.4705 L 737.934, 54.4477 z "/>
<path style="fill:rgb(237, 255, 60);fill-opacity:1.0;fill-rule:evenodd;stroke:rgb(0, 0, 0);stroke-width:3.0;" d="M 145.887, 163.534 L 139.481, 172.14 L 127.376, 134.491 L 127.432, 134.296 z "/>
<path style="fill:rgb(36, 132, 184);fill-opacity:1.0;fill-rule:evenodd;stroke:rgb(0, 0, 0);stroke-width:3.0;" d="M 563.043, 589.889 L 545.528, 589.995 L 540.113, 581.987 L 547.266, 569.947 L 547.65, 569.599 z "/>
<path style="fill:rgb(36, 132, 184);fill-opacity:1.0;fill-rule:evenodd;stroke:rgb(0, 0, 0);stroke-width:3.0;" d="M 747.199, 121.346 L 747.121, 131.563 L 705.727, 119.244 L 710.026, 110.595 z "/>
<path style="fill:rgb(246, 27, 194);fill-opacity:1.0;fill-rule:evenodd;stroke:rgb(0, 0, 0);stroke-width:3.0;" d="M 382.55, 257.651 L 393.903, 272.955 L 395.214, 278.326 L 391.595, 288.842 L 381.268, 284.148 L 367.082, 254.539 z "/>
<path style="fill:rgb(177, 52, 26);fill-opacity:1.0;fill-rule:evenodd;stroke:rgb(0, 0, 0);stroke-width:3.0;" d="M 86.9197, 80.1689 L 74.529, 135.282 L 21.052, 112.257 L 77.751, 56.2244 z "/>
<path style="fill:rgb(255, 255, 54);fill-opacity:1.0;fill-rule:evenodd;stroke:rgb(0, 0, 0);stroke-width:3.0;" d="M 159.856, 67.674 L 143.842, 67.821 L 147.25, 56.249 L 174.663, 52.613 z "/>
<path style="fill:rgb(59, 140, 255);fill-opacity:1.0;fill-rule:evenodd;stroke:rgb(0, 0, 0);stroke-width:3.0;" d="M 486.007, 366.746 L 485.003, 383.905 L 484.918, 384.107 L 468.847, 352.604 z "/>
<path style="fill:rgb(59, 140, 255);fill-opacity:1.0;fill-rule:evenodd;stroke:rgb(0, 0, 0);stroke-width:3.0;" d="M 240.453, 122.362 L 244.199, 137.061 L 229.621, 116.851 L 231.386, 108.115 L 232.416, 106.977 z "/>
<path style="fill:rgb(255, 252, 46);fill-opacity:1.0;fill-rule:evenodd;stroke:rgb(0, 0, 0);stroke-width:3.0;" d="M 51.0341, 322.033 L 30.2208, 325.093 L 41.1111, 300.436 L 46.2701, 299.802 z "/>
<path style="fill:rgb(255, 19, 76);fill-opacity:1.0;fill-rule:evenodd;stroke:rgb(0, 0, 0);stroke-width:3.0;" d="M 678.591, 524.943 L 660.945, 530.95 L 658.067, 525.623 L 672.43, 517.976 z "/>
<path style="fill:rgb(255, 157, 31);fill-opacity:1.0;fill-rule:evenodd;stroke:rgb(0, 0, 0);stroke-width:3.0;" d="M 123.751, 185.813 L 111.607, 189.187 L 97.0315, 163.035 L 105.451, 139.094 z "/>
<path style="fill:rgb(255, 255, 23);fill-opacity:1.0;fill-rule:evenodd;stroke:rgb(0, 0, 0);stroke-width:3.0;" d="M 309.438, 284.046 L 293.302, 286.418 L 294.807, 272.081 L 306.965, 267.791 L 308.797, 267.566 z "/>
<path style="fill:rgb(255, 255, 23);fill-opacity:1.0;fill-rule:evenodd;stroke:rgb(0, 0, 0);stroke-width:3.0;" d="M 468.542, 416.437 L 475.597, 457.856 L 443.322, 413.112 L 447.26, 410.05 z "/>
<path style="fill:rgb(255, 255, 23);fill-opacity:1.0;fill-rule:evenodd;stroke:rgb(0, 0, 0);stroke-width:3.0;" d="M 367.402, 307.862 L 372.349, 314.719 L 366.27, 321.346 L 358.032, 303.299 z "/>
<path style="fill:rgb(255, 255, 23);fill-opacity:1.0;fill-rule:evenodd;stroke:rgb(0, 0, 0);stroke-width:3.0;" d="M 351.872, 286.331 L 335.006, 262.949 L 352.619, 241.669 z "/>
<path style="fill:rgb(228, 30, 168);fill-opacity:1.0;fill-rule:evenodd;stroke:rgb(0, 0, 0);stroke-width:3.0;" d="M 533.555, 268.364 L 528.514, 280.361 L 519.484, 277.18 L 518.844, 275.317 L 525.63, 267.122 z "/>
<path style="fill:rgb(108, 255, 255);fill-opacity:1.0;fill-rule:evenodd;stroke:rgb(0, 0, 0);stroke-width:3.0;" d="M 117.026, 111.237 L 115.603, 84.3082 L 145.255, 82.5248 z "/>
<path style="fill:rgb(108, 255, 255);fill-opacity:1.0;fill-rule:evenodd;stroke:rgb(0, 0, 0);stroke-width:3.0;" d="M 528.238, 195.701 L 536.712, 254.979 L 530.17, 253.135 L 518.353, 192.983 L 519.168, 192.03 z "/>
<path style="fill:rgb(108, 255, 255);fill-opacity:1.0;fill-rule:evenodd;stroke:rgb(0, 0, 0);stroke-width:3.0;" d="M 505.855, 334.284 L 505.758, 334.513 L 502.27, 331.044 L 501.065, 329.347 L 497.749, 316.711 L 507.408, 313.535 z "/>
<path style="fill:rgb(95, 124, 255);fill-opacity:1.0;fill-rule:evenodd;stroke:rgb(0, 0, 0);stroke-width:3.0;" d="M 30.2208, 325.093 L 24.2364, 325.973 L 8.85066, 304.397 L 41.1111, 300.436 z "/>
<path style="fill:rgb(255, 44, 38);fill-opacity:1.0;fill-rule:evenodd;stroke:rgb(0, 0, 0);stroke-width:3.0;" d="M 330.149, 281.001 L 309.438, 284.046 L 308.797, 267.566 L 313.257, 267.019 z "/>
<path style="fill:rgb(54, 51, 255);fill-opacity:1.0;fill-rule:evenodd;stroke:rgb(0, 0, 0);stroke-width:3.0;" d="M 695.963, 544.586 L 661.652, 545.782 L 657.623, 540.343 L 674.231, 526.427 L 678.591, 524.943 z "/>
<path style="fill:rgb(255, 44, 18);fill-opacity:1.0;fill-rule:evenodd;stroke:rgb(0, 0, 0);stroke-width:3.0;" d="M 179.064, 48.1369 L 176.114, 51.137 L 148.123, 53.2869 L 148.282, 52.747 L 175.979, 43.5748 z "/>
<path style="fill:rgb(41, 255, 246);fill-opacity:1.0;fill-rule:evenodd;stroke:rgb(0, 0, 0);stroke-width:3.0;" d="M 537.258, 507.312 L 535.461, 516.94 L 521.584, 516.417 L 519.501, 501.352 z "/>
<path style="fill:rgb(41, 255, 246);fill-opacity:1.0;fill-rule:evenodd;stroke:rgb(0, 0, 0);stroke-width:3.0;" d="M 401.268, 307.015 L 403.676, 321.707 L 388.676, 297.326 L 390.863, 290.97 z "/>
<path style="fill:rgb(255, 255, 24);fill-opacity:1.0;fill-rule:evenodd;stroke:rgb(0, 0, 0);stroke-width:3.0;" d="M 132.913, 303.337 L 118.148, 306.798 L 114.281, 291.451 L 138.047, 288.533 z "/>
<path style="fill:rgb(240, 19, 72);fill-opacity:1.0;fill-rule:evenodd;stroke:rgb(0, 0, 0);stroke-width:3.0;" d="M 672.43, 517.976 L 659.24, 524.998 L 652.568, 514.841 L 663.174, 507.511 z "/>
<path style="fill:rgb(255, 59, 15);fill-opacity:1.0;fill-rule:evenodd;stroke:rgb(0, 0, 0);stroke-width:3.0;" d="M 546.188, 542.155 L 530.296, 533.688 L 527.5, 529.811 L 544.867, 526.34 z "/>
<path style="fill:rgb(255, 4, 72);fill-opacity:1.0;fill-rule:evenodd;stroke:rgb(0, 0, 0);stroke-width:3.0;" d="M 492.03, 263.804 L 491.826, 267.286 L 477.479, 240.847 L 487.089, 237.447 z "/>
<path style="fill:rgb(82, 207, 255);fill-opacity:1.0;fill-rule:evenodd;stroke:rgb(0, 0, 0);stroke-width:3.0;" d="M 338.493, 267.783 L 344.998, 280.724 L 329.259, 260.592 L 315.362, 236.583 L 315.369, 235.727 z "/>
<path style="fill:rgb(9, 91, 237);fill-opacity:1.0;fill-rule:evenodd;stroke:rgb(0, 0, 0);stroke-width:3.0;" d="M 432.047, 327.217 L 429.232, 334.714 L 425.066, 336.051 L 418.329, 319.096 z "/>
<path style="fill:rgb(9, 91, 237);fill-opacity:1.0;fill-rule:evenodd;stroke:rgb(0, 0, 0);stroke-width:3.0;" d="M 706.219, 510.647 L 697.805, 537.779 L 679.831, 526.345 L 671.597, 517.035 L 677.019, 497.944 L 692.528, 487.225 z "/>
<path style="fill:rgb(249, 255, 43);fill-opacity:1.0;fill-rule:evenodd;stroke:rgb(0, 0, 0);stroke-width:3.0;" d="M 583.084, 527.993 L 545.602, 535.147 L 544.867, 526.34 L 577.082, 519.902 z "/>
<path style="fill:rgb(249, 255, 43);fill-opacity:1.0;fill-rule:evenodd;stroke:rgb(0, 0, 0);stroke-width:3.0;" d="M 542.975, 557.119 L 539.672, 571.873 L 535.527, 575.207 L 527.758, 563.72 L 531.824, 552.998 z "/>
<path style="fill:rgb(246, 24, 108);fill-opacity:1.0;fill-rule:evenodd;stroke:rgb(0, 0, 0);stroke-width:3.0;" d="M 428.228, 237.352 L 365.865, 235.157 L 290.612, 133.708 L 315.938, 128.265 z "/>
<path style="fill:rgb(228, 61, 252);fill-opacity:1.0;fill-rule:evenodd;stroke:rgb(0, 0, 0);stroke-width:3.0;" d="M 777.768, 388.018 L 744.893, 424.24 L 745.38, 360.178 z "/>
<path style="fill:rgb(18, 7, 255);fill-opacity:1.0;fill-rule:evenodd;stroke:rgb(0, 0, 0);stroke-width:3.0;" d="M 449.442, 567.736 L 398.17, 545.528 L 396.899, 530.832 L 438.341, 521.326 z "/>
<path style="fill:rgb(246, 23, 252);fill-opacity:1.0;fill-rule:evenodd;stroke:rgb(0, 0, 0);stroke-width:3.0;" d="M 175.434, 66.2576 L 167.509, 73.6595 L 156.289, 72.8033 L 166.447, 63.7228 L 174.669, 62.8267 z "/>
<path style="fill:rgb(246, 23, 252);fill-opacity:1.0;fill-rule:evenodd;stroke:rgb(0, 0, 0);stroke-width:3.0;" d="M 557.218, 207.43 L 542.544, 246.972 L 538.918, 255.601 L 536.712, 254.979 L 528.238, 195.701 z "/>
<path style="fill:rgb(246, 23, 252);fill-opacity:1.0;fill-rule:evenodd;stroke:rgb(0, 0, 0);stroke-width:3.0;" d="M 100.581, 115.847 L 103.92, 124.567 L 87.7773, 140.986 L 74.529, 135.282 L 79.5599, 112.905 L 85.6365, 107.136 z "/>
<path style="fill:rgb(237, 8, 108);fill-opacity:1.0;fill-rule:evenodd;stroke:rgb(0, 0, 0);stroke-width:3.0;" d="M 788.653, 159.115 L 747.593, 100.197 L 766.211, 74.3531 z "/>
<path style="fill:rgb(255, 24, 255);fill-opacity:1.0;fill-rule:evenodd;stroke:rgb(0, 0, 0);stroke-width:3.0;" d="M 453.271, 370.249 L 456.295, 376.563 L 439.585, 384.991 L 444.395, 368.092 z "/>
<path style="fill:rgb(255, 24, 255);fill-opacity:1.0;fill-rule:evenodd;stroke:rgb(0, 0, 0);stroke-width:3.0;" d="M 664.711, 563.043 L 645.29, 569.102 L 638.586, 568.524 L 637.391, 562.422 L 666.66, 557.377 z "/>
<path style="fill:rgb(75, 144, 215);fill-opacity:1.0;fill-rule:evenodd;stroke:rgb(0, 0, 0);stroke-width:3.0;" d="M 624.691, 25.6149 L 601.701, 10.8637 L 603.814, 6.16948 L 632.261, 5.21592 z "/>
<path style="fill:rgb(75, 144, 215);fill-opacity:1.0;fill-rule:evenodd;stroke:rgb(0, 0, 0);stroke-width:3.0;" d="M 725.175, 56.9332 L 640.286, 73.4705 L 664.673, 35.2939 L 690.37, 29.7624 z "/>
<path style="fill:rgb(150, 1, 49);fill-opacity:1.0;fill-rule:evenodd;stroke:rgb(0, 0, 0);stroke-width:3.0;" d="M 167.385, 30.8683 L 158.866, 49.2417 L 148.282, 52.747 L 158.566, 17.8286 z "/>
<path style="fill:rgb(150, 1, 49);fill-opacity:1.0;fill-rule:evenodd;stroke:rgb(0, 0, 0);stroke-width:3.0;" d="M 747.095, 134.942 L 747.046, 141.328 L 723.783, 174.78 L 674.665, 110.88 z "/>
<path style="fill:rgb(150, 1, 49);fill-opacity:1.0;fill-rule:evenodd;stroke:rgb(0, 0, 0);stroke-width:3.0;" d="M 390.649, 300.534 L 407.203, 327.438 L 408.379, 332.256 L 404.692, 333.036 L 388.594, 299.438 z "/>
<path style="fill:rgb(30, 192, 255);fill-opacity:1.0;fill-rule:evenodd;stroke:rgb(0, 0, 0);stroke-width:3.0;" d="M 745.152, 130.977 L 744.367, 134.035 L 704.893, 120.922 L 705.727, 119.244 z "/>
<path style="fill:rgb(249, 79, 126);fill-opacity:1.0;fill-rule:evenodd;stroke:rgb(0, 0, 0);stroke-width:3.0;" d="M 28.6214, 71.545 L 29.1351, 73.5197 L 17.1142, 102.352 L 10.2408, 88.7705 L 12.244, 56.5522 z "/>
<path style="fill:rgb(246, 39, 212);fill-opacity:1.0;fill-rule:evenodd;stroke:rgb(0, 0, 0);stroke-width:3.0;" d="M 145.255, 82.5248 L 115.603, 84.3082 L 114.826, 69.6122 L 115.243, 68.0835 L 159.856, 67.674 z "/>
<path style="fill:rgb(255, 255, 71);fill-opacity:1.0;fill-rule:evenodd;stroke:rgb(0, 0, 0);stroke-width:3.0;" d="M 674.665, 110.88 L 723.783, 174.78 L 528.926, 454.982 L 486.551, 397.855 L 560.689, 198.077 L 626.591, 94.9097 z "/>
<path style="fill:rgb(255, 255, 71);fill-opacity:1.0;fill-rule:evenodd;stroke:rgb(0, 0, 0);stroke-width:3.0;" d="M 433.65, 501.716 L 403.67, 529.279 L 396.899, 530.832 L 393.951, 496.716 L 430.734, 489.526 z "/>
<path style="fill:rgb(255, 175, 42);fill-opacity:1.0;fill-rule:evenodd;stroke:rgb(0, 0, 0);stroke-width:3.0;" d="M 737.09, 476.016 L 714.014, 472.376 L 721.018, 467.535 L 739.464, 465.619 z "/>
<path style="fill:rgb(217, 1, 252);fill-opacity:1.0;fill-rule:evenodd;stroke:rgb(0, 0, 0);stroke-width:3.0;" d="M 506.419, 239.118 L 515.663, 266.049 L 498.903, 241.677 L 498.798, 236.161 z "/>
<path style="fill:rgb(255, 255, 33);fill-opacity:1.0;fill-rule:evenodd;stroke:rgb(0, 0, 0);stroke-width:3.0;" d="M 556.931, 550.645 L 551.863, 562.068 L 548.48, 564.789 L 544.732, 549.268 L 545.39, 546.329 z "/>
<path style="fill:rgb(255, 65, 22);fill-opacity:1.0;fill-rule:evenodd;stroke:rgb(0, 0, 0);stroke-width:3.0;" d="M 509.559, 469.025 L 506.175, 477.579 L 491.659, 479.14 L 502.198, 462.579 z "/>
<path style="fill:rgb(42, 110, 226);fill-opacity:1.0;fill-rule:evenodd;stroke:rgb(0, 0, 0);stroke-width:3.0;" d="M 136.571, 163.089 L 118.572, 165.482 L 127.376, 134.491 z "/>
<path style="fill:rgb(237, 36, 6);fill-opacity:1.0;fill-rule:evenodd;stroke:rgb(0, 0, 0);stroke-width:3.0;" d="M 499.736, 589.521 L 472.241, 577.611 L 491.276, 562.646 z "/>
<path style="fill:rgb(255, 172, 255);fill-opacity:1.0;fill-rule:evenodd;stroke:rgb(0, 0, 0);stroke-width:3.0;" d="M 329.346, 231.631 L 335.288, 239.284 L 325.837, 250.239 L 301.381, 216.334 L 307.064, 209.028 z "/>
<path style="fill:rgb(243, 38, 33);fill-opacity:1.0;fill-rule:evenodd;stroke:rgb(0, 0, 0);stroke-width:3.0;" d="M 779.68, 55.6551 L 747.593, 100.197 L 747.362, 99.8652 L 748.018, 13.7528 z "/>
<path style="fill:rgb(237, 82, 15);fill-opacity:1.0;fill-rule:evenodd;stroke:rgb(0, 0, 0);stroke-width:3.0;" d="M 493.85, 454.978 L 496.71, 460.95 L 491.415, 470.508 L 483.369, 468.63 L 475.597, 457.856 L 475.019, 454.465 z "/>
<path style="fill:rgb(255, 66, 223);fill-opacity:1.0;fill-rule:evenodd;stroke:rgb(0, 0, 0);stroke-width:3.0;" d="M 444.395, 368.092 L 437.954, 390.721 L 432.888, 393.02 L 434.817, 365.765 z "/>
<path style="fill:rgb(16, 170, 255);fill-opacity:1.0;fill-rule:evenodd;stroke:rgb(0, 0, 0);stroke-width:3.0;" d="M 38.3448, 52.5844 L 39.0174, 54.5459 L 27.8852, 68.715 L 23.654, 52.4493 z "/>
<path style="fill:rgb(243, 255, 19);fill-opacity:1.0;fill-rule:evenodd;stroke:rgb(0, 0, 0);stroke-width:3.0;" d="M 147.233, 131.002 L 121.685, 131.24 L 135.104, 114.533 L 162.541, 96.8278 z "/>
<path style="fill:rgb(255, 237, 25);fill-opacity:1.0;fill-rule:evenodd;stroke:rgb(0, 0, 0);stroke-width:3.0;" d="M 657.217, 524.052 L 635.306, 533.603 L 648.109, 517.924 L 652.33, 515.006 z "/>
<path style="fill:rgb(243, 255, 19);fill-opacity:1.0;fill-rule:evenodd;stroke:rgb(0, 0, 0);stroke-width:3.0;" d="M 138.251, 173.792 L 130.753, 183.867 L 123.751, 185.813 L 117.401, 169.602 L 118.572, 165.482 L 128.985, 164.097 z "/>
<path style="fill:rgb(255, 41, 7);fill-opacity:1.0;fill-rule:evenodd;stroke:rgb(0, 0, 0);stroke-width:3.0;" d="M 458.59, 381.356 L 437.954, 390.721 L 439.585, 384.991 L 456.295, 376.563 z "/>
<path style="fill:rgb(82, 255, 243);fill-opacity:1.0;fill-rule:evenodd;stroke:rgb(0, 0, 0);stroke-width:3.0;" d="M 535.461, 516.94 L 533.274, 528.657 L 527.5, 529.811 L 522.472, 522.841 L 521.584, 516.417 z "/>
<path style="fill:rgb(237, 255, 18);fill-opacity:1.0;fill-rule:evenodd;stroke:rgb(0, 0, 0);stroke-width:3.0;" d="M 432.888, 393.02 L 429.83, 394.408 L 421.333, 382.628 L 434.116, 375.672 z "/>
<path style="fill:rgb(255, 130, 10);fill-opacity:1.0;fill-rule:evenodd;stroke:rgb(0, 0, 0);stroke-width:3.0;" d="M 434.817, 365.765 L 434.116, 375.672 L 421.333, 382.628 L 420.339, 381.249 L 415.407, 361.049 z "/>
</svg>