<?xml version="1.0" encoding="iso-8859-1" standalone="no"?>
<!DOCTYPE svg PUBLIC "-//W3C//DTD SVG 1.0//EN" "http://www.w3.org/TR/2001/REC-SVG-20010904/DTD/svg10.dtd">
<svg xmlns="http://www.w3.org/2000/svg" width="800" height="600">
<path style="fill:rgb(0, 0, 0);fill-opacity:0.0;fill-rule:evenodd;stroke:rgb(0, 0, 0);stroke-width:0.0;" d="M 0, 600 L 800, 600 L 800, 0 L 0, 0 z "/>
<path style="fill:rgb(51, 123, 249);fill-opacity:1.0;fill-rule:evenodd;stroke:rgb(0, 0, 0);stroke-width:3.0;" d="M 377.681, 514.728 L 356.253, 589.668 L 356.392, 505.533 z "/>
<path style="fill:rgb(249, 255, 17);fill-opacity:1.0;fill-rule:evenodd;stroke:rgb(0, 0, 0);stroke-width:3.0;" d="M 275.897, 509.641 L 265.919, 505.103 L 272.524, 479.047 z "/>
<path style="fill:rgb(249, 255, 17);fill-opacity:1.0;fill-rule:evenodd;stroke:rgb(0, 0, 0);stroke-width:3.0;" d="M 115.916, 122.813 L 82.4477, 101.198 L 81.1098, 95.6669 L 107.805, 88.911 L 119.894, 87.6471 z "/>
<path style="fill:rgb(249, 255, 17);fill-opacity:1.0;fill-rule:evenodd;stroke:rgb(0, 0, 0);stroke-width:3.0;" d="M 623.266, 496.073 L 615.621, 511.698 L 602.918, 498.807 L 605.099, 491.674 L 613.326, 491.61 z "/>
<path style="fill:rgb(249, 255, 17);fill-opacity:1.0;fill-rule:evenodd;stroke:rgb(0, 0, 0);stroke-width:3.0;" d="M 426.147, 112.258 L 403.278, 84.9138 L 462.663, 61.3704 z "/>
<path style="fill:rgb(237, 32, 8);fill-opacity:1.0;fill-rule:evenodd;stroke:rgb(0, 0, 0);stroke-width:3.0;" d="M 689.517, 306.597 L 698.668, 317.083 L 659.012, 351.333 L 646.715, 355.592 L 662.543, 303.832 z "/>
<path style="fill:rgb(237, 32, 8);fill-opacity:1.0;fill-rule:evenodd;stroke:rgb(0, 0, 0);stroke-width:3.0;" d="M 417.289, 101.666 L 419.283, 112.911 L 382.959, 92.9692 L 403.278, 84.9138 z "/>
<path style="fill:rgb(237, 32, 8);fill-opacity:1.0;fill-rule:evenodd;stroke:rgb(0, 0, 0);stroke-width:3.0;" d="M 172.712, 99.9781 L 130.531, 86.8706 L 174.181, 71.0142 z "/>
<path style="fill:rgb(249, 9, 9);fill-opacity:1.0;fill-rule:evenodd;stroke:rgb(0, 0, 0);stroke-width:3.0;" d="M 126.439, 217.085 L 126.427, 217.125 L 121.672, 226.39 L 108.661, 186.971 L 108.87, 185.122 z "/>
<path style="fill:rgb(249, 9, 9);fill-opacity:1.0;fill-rule:evenodd;stroke:rgb(0, 0, 0);stroke-width:3.0;" d="M 620.542, 547.271 L 619.974, 553.976 L 618.127, 556.658 L 604.056, 548.656 L 603.057, 547.5 L 617.027, 535.674 z "/>
<path style="fill:rgb(249, 9, 9);fill-opacity:1.0;fill-rule:evenodd;stroke:rgb(0, 0, 0);stroke-width:3.0;" d="M 171.195, 129.888 L 160.658, 150.421 L 153.678, 145.736 L 152.585, 144.524 L 171.249, 128.827 z "/>
<path style="fill:rgb(249, 9, 9);fill-opacity:1.0;fill-rule:evenodd;stroke:rgb(0, 0, 0);stroke-width:3.0;" d="M 121.672, 226.39 L 116.751, 235.98 L 107.373, 204.239 L 106.92, 202.366 L 107.553, 196.769 L 109.986, 190.987 z "/>
<path style="fill:rgb(249, 9, 9);fill-opacity:1.0;fill-rule:evenodd;stroke:rgb(0, 0, 0);stroke-width:3.0;" d="M 168.258, 222.523 L 152.838, 227.328 L 166.208, 182.092 z "/>
<path style="fill:rgb(252, 54, 9);fill-opacity:1.0;fill-rule:evenodd;stroke:rgb(0, 0, 0);stroke-width:3.0;" d="M 630.41, 442.864 L 617.517, 451.068 L 622.445, 434.952 L 628.961, 434.684 z "/>
<path style="fill:rgb(252, 54, 9);fill-opacity:1.0;fill-rule:evenodd;stroke:rgb(0, 0, 0);stroke-width:3.0;" d="M 184.733, 19.9377 L 177.297, 40.0429 L 175.959, 35.9612 L 176.933, 16.742 L 183.798, 14.9977 z "/>
<path style="fill:rgb(252, 54, 9);fill-opacity:1.0;fill-rule:evenodd;stroke:rgb(0, 0, 0);stroke-width:3.0;" d="M 761.951, 79.8011 L 751.763, 72.5761 L 757.89, 34.086 L 781.425, 26.0174 z "/>
<path style="fill:rgb(252, 54, 9);fill-opacity:1.0;fill-rule:evenodd;stroke:rgb(0, 0, 0);stroke-width:3.0;" d="M 596.985, 49.7769 L 588.509, 59.5031 L 574.41, 21.9828 z "/>
<path style="fill:rgb(255, 26, 207);fill-opacity:1.0;fill-rule:evenodd;stroke:rgb(0, 0, 0);stroke-width:3.0;" d="M 66.7269, 115.184 L 88.3482, 166.47 L 17.262, 109.966 L 12.6063, 97.3243 L 27.396, 87.3448 z "/>
<path style="fill:rgb(255, 26, 207);fill-opacity:1.0;fill-rule:evenodd;stroke:rgb(0, 0, 0);stroke-width:3.0;" d="M 114.918, 122.168 L 114.139, 126.219 L 102.184, 142.654 L 106.356, 116.638 z "/>
<path style="fill:rgb(255, 26, 207);fill-opacity:1.0;fill-rule:evenodd;stroke:rgb(0, 0, 0);stroke-width:3.0;" d="M 546.006, 544.898 L 545.652, 545.484 L 522.685, 556.762 L 546.001, 536.598 z "/>
<path style="fill:rgb(255, 26, 207);fill-opacity:1.0;fill-rule:evenodd;stroke:rgb(0, 0, 0);stroke-width:3.0;" d="M 419.283, 112.911 L 424.561, 142.666 L 396.744, 151.333 L 362.481, 101.088 L 382.959, 92.9692 z "/>
<path style="fill:rgb(255, 26, 207);fill-opacity:1.0;fill-rule:evenodd;stroke:rgb(0, 0, 0);stroke-width:3.0;" d="M 753.977, 58.668 L 753.028, 64.6309 L 735.394, 65.6128 L 740.836, 47.8156 z "/>
<path style="fill:rgb(255, 26, 207);fill-opacity:1.0;fill-rule:evenodd;stroke:rgb(0, 0, 0);stroke-width:3.0;" d="M 448.523, 266.97 L 428.869, 335.707 L 412.248, 310.982 L 441.602, 242.61 z "/>
<path style="fill:rgb(246, 8, 30);fill-opacity:1.0;fill-rule:evenodd;stroke:rgb(0, 0, 0);stroke-width:3.0;" d="M 68.052, 247.872 L 69.9924, 253.14 L 52.8046, 258.495 L 49.5928, 239.974 z "/>
<path style="fill:rgb(249, 0, 41);fill-opacity:1.0;fill-rule:evenodd;stroke:rgb(0, 0, 0);stroke-width:3.0;" d="M 119.894, 87.6471 L 118.667, 87.7753 L 88.0547, 78.3257 L 122.914, 60.9392 z "/>
<path style="fill:rgb(249, 0, 41);fill-opacity:1.0;fill-rule:evenodd;stroke:rgb(0, 0, 0);stroke-width:3.0;" d="M 68.052, 247.872 L 49.5928, 239.974 L 49.3823, 238.76 L 53.7798, 231.839 L 61.1911, 229.243 z "/>
<path style="fill:rgb(6, 2, 246);fill-opacity:1.0;fill-rule:evenodd;stroke:rgb(0, 0, 0);stroke-width:3.0;" d="M 73.0186, 572.539 L 52.2486, 591.877 L 63.6494, 550.321 L 80.0361, 549.362 z "/>
<path style="fill:rgb(6, 2, 246);fill-opacity:1.0;fill-rule:evenodd;stroke:rgb(0, 0, 0);stroke-width:3.0;" d="M 171.998, 114.068 L 171.249, 128.827 L 170.031, 129.852 L 143.748, 120.207 L 150.108, 110.112 z "/>
<path style="fill:rgb(6, 2, 246);fill-opacity:1.0;fill-rule:evenodd;stroke:rgb(0, 0, 0);stroke-width:3.0;" d="M 312.437, 177.601 L 303.227, 180.471 L 261.922, 140.955 L 281.52, 133.185 z "/>
<path style="fill:rgb(249, 252, 31);fill-opacity:1.0;fill-rule:evenodd;stroke:rgb(0, 0, 0);stroke-width:3.0;" d="M 381.251, 502.241 L 379.99, 499.657 L 373.797, 482.049 L 387.266, 481.204 z "/>
<path style="fill:rgb(249, 252, 31);fill-opacity:1.0;fill-rule:evenodd;stroke:rgb(0, 0, 0);stroke-width:3.0;" d="M 333.824, 146.617 L 315.085, 142.313 L 308.554, 122.467 L 354.501, 104.251 z "/>
<path style="fill:rgb(249, 252, 31);fill-opacity:1.0;fill-rule:evenodd;stroke:rgb(0, 0, 0);stroke-width:3.0;" d="M 89.7773, 131.499 L 98.988, 169.576 L 93.0392, 170.199 L 88.3482, 166.47 L 66.7269, 115.184 z "/>
<path style="fill:rgb(255, 1, 62);fill-opacity:1.0;fill-rule:evenodd;stroke:rgb(0, 0, 0);stroke-width:3.0;" d="M 316.462, 548.952 L 311.244, 563.914 L 304.114, 562.853 L 312.557, 543.187 z "/>
<path style="fill:rgb(37, 107, 240);fill-opacity:1.0;fill-rule:evenodd;stroke:rgb(0, 0, 0);stroke-width:3.0;" d="M 697.735, 343.885 L 690.374, 353.853 L 684.108, 356.172 L 678.991, 356.334 L 684.762, 342.417 L 701.247, 336.708 z "/>
<path style="fill:rgb(37, 107, 240);fill-opacity:1.0;fill-rule:evenodd;stroke:rgb(0, 0, 0);stroke-width:3.0;" d="M 153.099, 39.1636 L 150.953, 42.825 L 140.446, 55.4493 L 125.415, 38.8243 L 125.615, 37.058 L 128.836, 35.8308 z "/>
<path style="fill:rgb(37, 107, 240);fill-opacity:1.0;fill-rule:evenodd;stroke:rgb(0, 0, 0);stroke-width:3.0;" d="M 159.379, 76.3912 L 153.095, 78.6739 L 123.389, 56.7434 L 125.415, 38.8243 z "/>
<path style="fill:rgb(37, 107, 240);fill-opacity:1.0;fill-rule:evenodd;stroke:rgb(0, 0, 0);stroke-width:3.0;" d="M 738.718, 106.227 L 739.107, 152.094 L 736.959, 165.591 L 736.652, 103.726 z "/>
<path style="fill:rgb(37, 107, 240);fill-opacity:1.0;fill-rule:evenodd;stroke:rgb(0, 0, 0);stroke-width:3.0;" d="M 746.972, 102.678 L 746.954, 102.791 L 732.789, 103.107 L 732.538, 78.0822 z "/>
<path style="fill:rgb(89, 159, 204);fill-opacity:1.0;fill-rule:evenodd;stroke:rgb(0, 0, 0);stroke-width:3.0;" d="M 785.028, 165.489 L 754.679, 227.513 L 748.598, 214.913 L 779.125, 153.839 z "/>
<path style="fill:rgb(89, 159, 204);fill-opacity:1.0;fill-rule:evenodd;stroke:rgb(0, 0, 0);stroke-width:3.0;" d="M 69.5534, 151.53 L 96.3368, 244.932 L 95.6204, 245.155 L 54.8058, 198.26 L 21.6075, 121.764 L 17.262, 109.966 z "/>
<path style="fill:rgb(255, 234, 11);fill-opacity:1.0;fill-rule:evenodd;stroke:rgb(0, 0, 0);stroke-width:3.0;" d="M 279.204, 187.956 L 239.683, 200.269 L 244.286, 180.954 z "/>
<path style="fill:rgb(255, 234, 11);fill-opacity:1.0;fill-rule:evenodd;stroke:rgb(0, 0, 0);stroke-width:3.0;" d="M 195.361, 167.344 L 167.277, 178.477 L 210.401, 32.5796 L 343.873, 27.1558 z "/>
<path style="fill:rgb(215, 8, 255);fill-opacity:1.0;fill-rule:evenodd;stroke:rgb(0, 0, 0);stroke-width:3.0;" d="M 147.913, 157.662 L 144.098, 180.446 L 128.508, 210.437 L 145.589, 155.549 z "/>
<path style="fill:rgb(215, 8, 255);fill-opacity:1.0;fill-rule:evenodd;stroke:rgb(0, 0, 0);stroke-width:3.0;" d="M 120.873, 50.921 L 119.882, 62.4517 L 94.8836, 74.9197 L 92.482, 48.7194 z "/>
<path style="fill:rgb(215, 8, 255);fill-opacity:1.0;fill-rule:evenodd;stroke:rgb(0, 0, 0);stroke-width:3.0;" d="M 396.414, 433.637 L 364.628, 451.259 L 355.456, 449.375 L 355.384, 449.226 L 367.39, 417.684 L 391.88, 407.091 z "/>
<path style="fill:rgb(215, 8, 255);fill-opacity:1.0;fill-rule:evenodd;stroke:rgb(0, 0, 0);stroke-width:3.0;" d="M 390.966, 142.861 L 396.744, 151.333 L 372.664, 158.836 L 329.982, 154.488 L 342.925, 127.969 z "/>
<path style="fill:rgb(9, 255, 255);fill-opacity:1.0;fill-rule:evenodd;stroke:rgb(0, 0, 0);stroke-width:3.0;" d="M 328.235, 581.359 L 318.678, 592.783 L 305.033, 581.727 L 310.978, 564.677 z "/>
<path style="fill:rgb(255, 255, 52);fill-opacity:1.0;fill-rule:evenodd;stroke:rgb(0, 0, 0);stroke-width:3.0;" d="M 390.966, 142.861 L 353.737, 131.32 L 373.651, 117.468 z "/>
<path style="fill:rgb(255, 255, 52);fill-opacity:1.0;fill-rule:evenodd;stroke:rgb(0, 0, 0);stroke-width:3.0;" d="M 244.286, 180.954 L 239.683, 200.269 L 168.258, 222.523 L 166.208, 182.092 L 167.277, 178.477 L 169.863, 177.452 L 191.604, 170.39 z "/>
<path style="fill:rgb(255, 255, 52);fill-opacity:1.0;fill-rule:evenodd;stroke:rgb(0, 0, 0);stroke-width:3.0;" d="M 629.406, 573.989 L 630.122, 579.257 L 603.981, 577.195 L 613.275, 563.703 z "/>
<path style="fill:rgb(255, 255, 52);fill-opacity:1.0;fill-rule:evenodd;stroke:rgb(0, 0, 0);stroke-width:3.0;" d="M 665.219, 473.102 L 662.523, 481.221 L 653.933, 495.122 L 653.833, 495.213 L 657.345, 460.987 z "/>
<path style="fill:rgb(255, 255, 52);fill-opacity:1.0;fill-rule:evenodd;stroke:rgb(0, 0, 0);stroke-width:3.0;" d="M 184.095, 57.2738 L 174.944, 61.2836 L 174.672, 61.3373 L 175.668, 41.6933 L 181.598, 39.8783 z "/>
<path style="fill:rgb(255, 255, 52);fill-opacity:1.0;fill-rule:evenodd;stroke:rgb(0, 0, 0);stroke-width:3.0;" d="M 726.655, 278.313 L 667.624, 304.353 L 662.543, 303.832 L 686.018, 227.07 z "/>
<path style="fill:rgb(255, 255, 52);fill-opacity:1.0;fill-rule:evenodd;stroke:rgb(0, 0, 0);stroke-width:3.0;" d="M 261.333, 510.451 L 259.065, 510.317 L 246.175, 505.747 L 253.093, 488.777 L 259.965, 485.242 z "/>
<path style="fill:rgb(255, 255, 52);fill-opacity:1.0;fill-rule:evenodd;stroke:rgb(0, 0, 0);stroke-width:3.0;" d="M 493.768, 121.103 L 460.284, 131.536 L 443.343, 88.2938 L 462.663, 61.3704 L 531.054, 34.2565 z "/>
<path style="fill:rgb(255, 94, 7);fill-opacity:1.0;fill-rule:evenodd;stroke:rgb(0, 0, 0);stroke-width:3.0;" d="M 101.55, 113.535 L 85.7077, 114.675 L 82.4477, 101.198 z "/>
<path style="fill:rgb(255, 94, 7);fill-opacity:1.0;fill-rule:evenodd;stroke:rgb(0, 0, 0);stroke-width:3.0;" d="M 428.869, 335.707 L 410.797, 398.908 L 366.221, 418.19 L 412.248, 310.982 z "/>
<path style="fill:rgb(243, 255, 15);fill-opacity:1.0;fill-rule:evenodd;stroke:rgb(0, 0, 0);stroke-width:3.0;" d="M 40.5738, 182.762 L 39.1914, 196.818 L 33.6584, 200.388 L 30.7424, 175.334 z "/>
<path style="fill:rgb(243, 255, 15);fill-opacity:1.0;fill-rule:evenodd;stroke:rgb(0, 0, 0);stroke-width:3.0;" d="M 259.065, 510.317 L 235.359, 508.918 L 228.868, 501.237 L 230.739, 500.275 z "/>
<path style="fill:rgb(243, 255, 15);fill-opacity:1.0;fill-rule:evenodd;stroke:rgb(0, 0, 0);stroke-width:3.0;" d="M 641.76, 23.8969 L 616.683, 43.2821 L 617.802, 35.9098 L 640.744, 20.8767 z "/>
<path style="fill:rgb(243, 255, 15);fill-opacity:1.0;fill-rule:evenodd;stroke:rgb(0, 0, 0);stroke-width:3.0;" d="M 677.944, 384.332 L 666.533, 407.652 L 654.916, 393.883 L 659.017, 382.67 L 662.163, 377.185 z "/>
<path style="fill:rgb(243, 255, 15);fill-opacity:1.0;fill-rule:evenodd;stroke:rgb(0, 0, 0);stroke-width:3.0;" d="M 499.613, 460.248 L 468.424, 486.308 L 515.527, 336.844 z "/>
<path style="fill:rgb(243, 255, 15);fill-opacity:1.0;fill-rule:evenodd;stroke:rgb(0, 0, 0);stroke-width:3.0;" d="M 22.3731, 247.218 L 25.5779, 256.343 L 24.704, 257.134 L 5.03875, 253.356 L 7.16205, 248.172 L 18.589, 244.169 z "/>
<path style="fill:rgb(130, 76, 255);fill-opacity:1.0;fill-rule:evenodd;stroke:rgb(0, 0, 0);stroke-width:3.0;" d="M 107.601, 205.183 L 92.7814, 211.032 L 90.8106, 200.245 L 104.623, 192.871 z "/>
<path style="fill:rgb(130, 76, 255);fill-opacity:1.0;fill-rule:evenodd;stroke:rgb(0, 0, 0);stroke-width:3.0;" d="M 362.688, 117.042 L 355.545, 130.063 L 353.737, 131.32 L 351.69, 130.686 L 354.389, 108.51 z "/>
<path style="fill:rgb(130, 76, 255);fill-opacity:1.0;fill-rule:evenodd;stroke:rgb(0, 0, 0);stroke-width:3.0;" d="M 423.28, 530.975 L 397.991, 589.517 L 356.582, 588.516 L 402.725, 427.14 z "/>
<path style="fill:rgb(15, 255, 170);fill-opacity:1.0;fill-rule:evenodd;stroke:rgb(0, 0, 0);stroke-width:3.0;" d="M 496.474, 546.96 L 479.784, 557.553 L 400.695, 583.258 L 421.629, 534.799 L 463.396, 516.535 z "/>
<path style="fill:rgb(15, 255, 170);fill-opacity:1.0;fill-rule:evenodd;stroke:rgb(0, 0, 0);stroke-width:3.0;" d="M 638.968, 526.4 L 641.116, 506.781 L 671.549, 479.098 z "/>
<path style="fill:rgb(255, 249, 9);fill-opacity:1.0;fill-rule:evenodd;stroke:rgb(0, 0, 0);stroke-width:3.0;" d="M 303.227, 180.471 L 279.204, 187.956 L 191.604, 170.39 L 267.068, 145.877 z "/>
<path style="fill:rgb(255, 249, 9);fill-opacity:1.0;fill-rule:evenodd;stroke:rgb(0, 0, 0);stroke-width:3.0;" d="M 540.354, 42.9364 L 498.255, 110.653 L 532.042, 31.9537 z "/>
<path style="fill:rgb(119, 217, 45);fill-opacity:1.0;fill-rule:evenodd;stroke:rgb(0, 0, 0);stroke-width:3.0;" d="M 720.595, 297.169 L 714.717, 309.179 L 699.87, 307.658 L 717.11, 293.828 z "/>
<path style="fill:rgb(119, 217, 45);fill-opacity:1.0;fill-rule:evenodd;stroke:rgb(0, 0, 0);stroke-width:3.0;" d="M 701.512, 341.738 L 681.716, 430.527 L 661.626, 417.679 L 699.847, 339.569 z "/>
<path style="fill:rgb(255, 30, 17);fill-opacity:1.0;fill-rule:evenodd;stroke:rgb(0, 0, 0);stroke-width:3.0;" d="M 454.496, 246.079 L 452.736, 252.234 L 445.335, 255.749 L 442.619, 246.187 L 453.802, 238.005 z "/>
<path style="fill:rgb(255, 187, 6);fill-opacity:1.0;fill-rule:evenodd;stroke:rgb(0, 0, 0);stroke-width:3.0;" d="M 59.065, 81.9817 L 85.814, 125.83 L 85.9185, 128.768 L 85.8961, 128.752 L 52.8543, 79.5725 z "/>
<path style="fill:rgb(249, 7, 21);fill-opacity:1.0;fill-rule:evenodd;stroke:rgb(0, 0, 0);stroke-width:3.0;" d="M 759.702, 115.51 L 744.705, 116.922 L 747.114, 101.785 L 752.546, 101.389 z "/>
<path style="fill:rgb(249, 7, 21);fill-opacity:1.0;fill-rule:evenodd;stroke:rgb(0, 0, 0);stroke-width:3.0;" d="M 84.0101, 163.022 L 97.293, 235.727 L 94.0456, 236.942 L 69.5534, 151.53 z "/>
<path style="fill:rgb(9, 215, 255);fill-opacity:1.0;fill-rule:evenodd;stroke:rgb(0, 0, 0);stroke-width:3.0;" d="M 111.417, 220.96 L 95.2692, 224.649 L 92.7814, 211.032 L 107.601, 205.183 z "/>
<path style="fill:rgb(9, 215, 255);fill-opacity:1.0;fill-rule:evenodd;stroke:rgb(0, 0, 0);stroke-width:3.0;" d="M 674.806, 473.042 L 672.464, 455.866 L 685.262, 451.143 z "/>
<path style="fill:rgb(255, 42, 22);fill-opacity:1.0;fill-rule:evenodd;stroke:rgb(0, 0, 0);stroke-width:3.0;" d="M 126.439, 217.085 L 108.87, 185.122 L 109.349, 180.886 L 147.756, 148.585 z "/>
<path style="fill:rgb(255, 42, 22);fill-opacity:1.0;fill-rule:evenodd;stroke:rgb(0, 0, 0);stroke-width:3.0;" d="M 614.366, 58.561 L 607.336, 104.902 L 606.391, 107.089 L 595.052, 76.9142 L 608.531, 56.7425 z "/>
<path style="fill:rgb(105, 243, 107);fill-opacity:1.0;fill-rule:evenodd;stroke:rgb(0, 0, 0);stroke-width:3.0;" d="M 401.706, 430.702 L 396.414, 433.637 L 391.88, 407.091 L 410.797, 398.908 z "/>
<path style="fill:rgb(105, 243, 107);fill-opacity:1.0;fill-rule:evenodd;stroke:rgb(0, 0, 0);stroke-width:3.0;" d="M 608.531, 56.7425 L 595.052, 76.9142 L 588.509, 59.5031 L 594.678, 52.4247 z "/>
<path style="fill:rgb(18, 26, 243);fill-opacity:1.0;fill-rule:evenodd;stroke:rgb(0, 0, 0);stroke-width:3.0;" d="M 689.689, 462.597 L 689.307, 462.944 L 683.458, 460.237 L 685.847, 450.927 L 701.137, 445.285 z "/>
<path style="fill:rgb(30, 177, 255);fill-opacity:1.0;fill-rule:evenodd;stroke:rgb(0, 0, 0);stroke-width:3.0;" d="M 174.181, 71.0142 L 159.379, 76.3912 L 149.622, 65.5986 L 174.961, 55.6268 z "/>
<path style="fill:rgb(30, 177, 255);fill-opacity:1.0;fill-rule:evenodd;stroke:rgb(0, 0, 0);stroke-width:3.0;" d="M 372.664, 158.836 L 319.824, 175.299 L 327.182, 160.225 L 335.969, 155.098 z "/>
<path style="fill:rgb(30, 177, 255);fill-opacity:1.0;fill-rule:evenodd;stroke:rgb(0, 0, 0);stroke-width:3.0;" d="M 113.439, 229.319 L 98.7286, 243.585 L 96.6431, 232.169 L 113.071, 227.797 z "/>
<path style="fill:rgb(30, 177, 255);fill-opacity:1.0;fill-rule:evenodd;stroke:rgb(0, 0, 0);stroke-width:3.0;" d="M 638.05, 447.886 L 627.35, 477.228 L 627.535, 454.07 L 628.305, 444.203 L 629.478, 443.457 z "/>
<path style="fill:rgb(30, 177, 255);fill-opacity:1.0;fill-rule:evenodd;stroke:rgb(0, 0, 0);stroke-width:3.0;" d="M 342.135, 545.341 L 322.812, 530.741 L 332.522, 502.895 z "/>
<path style="fill:rgb(30, 177, 255);fill-opacity:1.0;fill-rule:evenodd;stroke:rgb(0, 0, 0);stroke-width:3.0;" d="M 101.548, 37.3097 L 55.2519, 68.5486 L 13.3492, 81.4653 L 12.1703, 57.4447 L 94.2746, 33.8426 z "/>
<path style="fill:rgb(255, 8, 212);fill-opacity:1.0;fill-rule:evenodd;stroke:rgb(0, 0, 0);stroke-width:3.0;" d="M 281.625, 561.585 L 272.496, 478.797 L 313.342, 457.787 z "/>
<path style="fill:rgb(255, 21, 255);fill-opacity:1.0;fill-rule:evenodd;stroke:rgb(0, 0, 0);stroke-width:3.0;" d="M 775.44, 138.825 L 788.678, 158.031 L 785.028, 165.489 L 770.859, 137.528 z "/>
<path style="fill:rgb(255, 21, 255);fill-opacity:1.0;fill-rule:evenodd;stroke:rgb(0, 0, 0);stroke-width:3.0;" d="M 680.175, 453.02 L 657.585, 461.356 L 649.542, 448.981 L 652.069, 447.205 L 686.909, 443.198 z "/>
<path style="fill:rgb(255, 199, 61);fill-opacity:1.0;fill-rule:evenodd;stroke:rgb(0, 0, 0);stroke-width:3.0;" d="M 267.068, 145.877 L 169.863, 177.452 L 261.922, 140.955 z "/>
<path style="fill:rgb(49, 72, 255);fill-opacity:1.0;fill-rule:evenodd;stroke:rgb(0, 0, 0);stroke-width:3.0;" d="M 658.516, 383.544 L 650.742, 354.197 L 681.439, 343.568 z "/>
<path style="fill:rgb(49, 72, 255);fill-opacity:1.0;fill-rule:evenodd;stroke:rgb(0, 0, 0);stroke-width:3.0;" d="M 553.756, 168.949 L 550.132, 229.571 L 504.676, 263.033 L 506.734, 149.759 z "/>
<path style="fill:rgb(49, 72, 255);fill-opacity:1.0;fill-rule:evenodd;stroke:rgb(0, 0, 0);stroke-width:3.0;" d="M 666.533, 407.652 L 656.729, 427.688 L 649.977, 407.389 L 654.916, 393.883 z "/>
<path style="fill:rgb(49, 72, 255);fill-opacity:1.0;fill-rule:evenodd;stroke:rgb(0, 0, 0);stroke-width:3.0;" d="M 128.074, 165.138 L 109.349, 180.886 L 111.84, 158.86 L 120.528, 155.915 z "/>
<path style="fill:rgb(49, 72, 255);fill-opacity:1.0;fill-rule:evenodd;stroke:rgb(0, 0, 0);stroke-width:3.0;" d="M 599.504, 123.031 L 595.655, 131.943 L 589.132, 134.937 L 589.059, 134.797 L 598.42, 109.287 z "/>
<path style="fill:rgb(249, 240, 36);fill-opacity:1.0;fill-rule:evenodd;stroke:rgb(0, 0, 0);stroke-width:3.0;" d="M 763.528, 123.06 L 738.969, 152.96 L 744.705, 116.922 L 759.702, 115.51 z "/>
<path style="fill:rgb(249, 240, 36);fill-opacity:1.0;fill-rule:evenodd;stroke:rgb(0, 0, 0);stroke-width:3.0;" d="M 753.103, 224.249 L 754.679, 227.513 L 734.452, 268.848 L 733.647, 188.545 z "/>
<path style="fill:rgb(249, 240, 36);fill-opacity:1.0;fill-rule:evenodd;stroke:rgb(0, 0, 0);stroke-width:3.0;" d="M 91.003, 76.8552 L 78.1144, 83.2836 L 71.8422, 57.3541 L 75.4735, 54.9039 z "/>
<path style="fill:rgb(249, 240, 36);fill-opacity:1.0;fill-rule:evenodd;stroke:rgb(0, 0, 0);stroke-width:3.0;" d="M 169.532, 162.68 L 168.181, 163.918 L 163.431, 158.89 L 164.463, 143.006 L 171.195, 129.888 z "/>
<path style="fill:rgb(249, 240, 36);fill-opacity:1.0;fill-rule:evenodd;stroke:rgb(0, 0, 0);stroke-width:3.0;" d="M 777.472, 440.717 L 747.751, 439.108 L 741.237, 402.687 L 744.856, 398.218 z "/>
<path style="fill:rgb(249, 240, 36);fill-opacity:1.0;fill-rule:evenodd;stroke:rgb(0, 0, 0);stroke-width:3.0;" d="M 197.537, 517.353 L 149.481, 542.071 L 190.32, 497.722 z "/>
<path style="fill:rgb(243, 152, 249);fill-opacity:1.0;fill-rule:evenodd;stroke:rgb(0, 0, 0);stroke-width:3.0;" d="M 251.294, 489.702 L 197.537, 517.353 L 190.32, 497.722 L 212.844, 473.264 z "/>
<path style="fill:rgb(19, 17, 252);fill-opacity:1.0;fill-rule:evenodd;stroke:rgb(0, 0, 0);stroke-width:3.0;" d="M 35.0382, 234.644 L 35.7487, 238.157 L 22.1588, 242.918 L 26.6352, 225.726 z "/>
<path style="fill:rgb(19, 17, 252);fill-opacity:1.0;fill-rule:evenodd;stroke:rgb(0, 0, 0);stroke-width:3.0;" d="M 372.111, 483.509 L 360.42, 493.975 L 343.827, 497.925 L 354.287, 446.979 z "/>
<path style="fill:rgb(19, 17, 252);fill-opacity:1.0;fill-rule:evenodd;stroke:rgb(0, 0, 0);stroke-width:3.0;" d="M 272.524, 479.047 L 269.403, 491.359 L 263.971, 493.341 L 260.215, 489.863 L 259.965, 485.242 L 272.496, 478.797 z "/>
<path style="fill:rgb(13, 192, 255);fill-opacity:1.0;fill-rule:evenodd;stroke:rgb(0, 0, 0);stroke-width:3.0;" d="M 641.619, 430.241 L 631.181, 431.217 L 659.017, 382.67 z "/>
<path style="fill:rgb(11, 157, 255);fill-opacity:1.0;fill-rule:evenodd;stroke:rgb(0, 0, 0);stroke-width:3.0;" d="M 34.9854, 158.088 L 20.195, 157.193 L 17.1137, 155.321 L 24.1975, 128.797 z "/>
<path style="fill:rgb(44, 255, 189);fill-opacity:1.0;fill-rule:evenodd;stroke:rgb(0, 0, 0);stroke-width:3.0;" d="M 53.0264, 207.074 L 37.8436, 210.522 L 39.0786, 197.965 L 47.508, 192.09 z "/>
<path style="fill:rgb(226, 161, 8);fill-opacity:1.0;fill-rule:evenodd;stroke:rgb(0, 0, 0);stroke-width:3.0;" d="M 585.527, 144.42 L 584.659, 126.911 L 598.662, 108.627 z "/>
<path style="fill:rgb(255, 0, 11);fill-opacity:1.0;fill-rule:evenodd;stroke:rgb(0, 0, 0);stroke-width:3.0;" d="M 515.527, 336.844 L 463.468, 502.037 L 451.689, 465.212 L 519.096, 309.17 z "/>
<path style="fill:rgb(255, 0, 11);fill-opacity:1.0;fill-rule:evenodd;stroke:rgb(0, 0, 0);stroke-width:3.0;" d="M 454.094, 115.736 L 456.176, 121.051 L 448.529, 135.199 L 445.994, 135.988 L 426.147, 112.258 L 438.914, 94.4669 z "/>
<path style="fill:rgb(255, 0, 11);fill-opacity:1.0;fill-rule:evenodd;stroke:rgb(0, 0, 0);stroke-width:3.0;" d="M 425.383, 280.387 L 420.694, 274.071 L 421.986, 246.153 L 455.885, 209.342 z "/>
<path style="fill:rgb(255, 0, 11);fill-opacity:1.0;fill-rule:evenodd;stroke:rgb(0, 0, 0);stroke-width:3.0;" d="M 602.766, 97.4424 L 598.662, 108.627 L 584.659, 126.911 L 583.257, 98.6352 L 598.994, 87.4051 z "/>
<path style="fill:rgb(249, 21, 184);fill-opacity:1.0;fill-rule:evenodd;stroke:rgb(0, 0, 0);stroke-width:3.0;" d="M 725.538, 287.067 L 699.87, 307.658 L 675.344, 305.144 L 729.255, 279.47 z "/>
<path style="fill:rgb(249, 21, 184);fill-opacity:1.0;fill-rule:evenodd;stroke:rgb(0, 0, 0);stroke-width:3.0;" d="M 649.865, 498.822 L 599.505, 544.632 L 631.104, 480.056 z "/>
<path style="fill:rgb(226, 1, 17);fill-opacity:1.0;fill-rule:evenodd;stroke:rgb(0, 0, 0);stroke-width:3.0;" d="M 522.685, 556.762 L 495.475, 570.124 L 505.263, 549.272 L 547.05, 535.691 z "/>
<path style="fill:rgb(226, 1, 17);fill-opacity:1.0;fill-rule:evenodd;stroke:rgb(0, 0, 0);stroke-width:3.0;" d="M 746.972, 102.678 L 732.538, 78.0822 L 732.508, 75.0496 L 735.394, 65.6128 L 753.028, 64.6309 z "/>
<path style="fill:rgb(226, 1, 17);fill-opacity:1.0;fill-rule:evenodd;stroke:rgb(0, 0, 0);stroke-width:3.0;" d="M 741.209, 558.49 L 719.968, 578.414 L 647.859, 513.492 L 671.549, 479.098 L 696.481, 456.418 z "/>
<path style="fill:rgb(226, 1, 17);fill-opacity:1.0;fill-rule:evenodd;stroke:rgb(0, 0, 0);stroke-width:3.0;" d="M 489.283, 540.346 L 470.068, 522.673 L 463.468, 502.037 L 468.424, 486.308 L 499.613, 460.248 z "/>
<path style="fill:rgb(226, 1, 17);fill-opacity:1.0;fill-rule:evenodd;stroke:rgb(0, 0, 0);stroke-width:3.0;" d="M 389.554, 473.204 L 380.016, 474.512 L 367.581, 470.095 L 391.563, 466.178 z "/>
<path style="fill:rgb(59, 252, 61);fill-opacity:1.0;fill-rule:evenodd;stroke:rgb(0, 0, 0);stroke-width:3.0;" d="M 106.356, 116.638 L 104.606, 127.55 L 98.5999, 141.081 L 88.9615, 128.126 L 85.7077, 114.675 L 101.55, 113.535 z "/>
<path style="fill:rgb(59, 252, 61);fill-opacity:1.0;fill-rule:evenodd;stroke:rgb(0, 0, 0);stroke-width:3.0;" d="M 542.636, 82.4555 L 490.62, 128.437 L 498.255, 110.653 L 535.461, 50.807 z "/>
<path style="fill:rgb(59, 252, 61);fill-opacity:1.0;fill-rule:evenodd;stroke:rgb(0, 0, 0);stroke-width:3.0;" d="M 67.233, 104.076 L 58.2411, 109.177 L 41.8339, 97.5641 L 55.778, 84.7092 z "/>
<path style="fill:rgb(207, 1, 255);fill-opacity:1.0;fill-rule:evenodd;stroke:rgb(0, 0, 0);stroke-width:3.0;" d="M 658.516, 383.544 L 630.736, 431.992 L 625.352, 425.447 L 646.715, 355.592 L 650.742, 354.197 z "/>
<path style="fill:rgb(112, 112, 187);fill-opacity:1.0;fill-rule:evenodd;stroke:rgb(0, 0, 0);stroke-width:3.0;" d="M 595.14, 77.1481 L 598.033, 84.8478 L 586.012, 84.4644 L 582.186, 77.0161 L 581.699, 67.2069 z "/>
<path style="fill:rgb(112, 112, 187);fill-opacity:1.0;fill-rule:evenodd;stroke:rgb(0, 0, 0);stroke-width:3.0;" d="M 97.8833, 174.049 L 95.4232, 197.782 L 93.6766, 198.715 L 89.1355, 191.076 L 84.0101, 163.022 z "/>
<path style="fill:rgb(112, 112, 187);fill-opacity:1.0;fill-rule:evenodd;stroke:rgb(0, 0, 0);stroke-width:3.0;" d="M 367.446, 108.369 L 362.688, 117.042 L 354.389, 108.51 L 354.927, 104.083 L 362.481, 101.088 z "/>
<path style="fill:rgb(112, 112, 187);fill-opacity:1.0;fill-rule:evenodd;stroke:rgb(0, 0, 0);stroke-width:3.0;" d="M 721.439, 283.192 L 675.344, 305.144 L 671.217, 304.721 L 670.008, 303.301 L 721.086, 280.769 z "/>
<path style="fill:rgb(255, 33, 132);fill-opacity:1.0;fill-rule:evenodd;stroke:rgb(0, 0, 0);stroke-width:3.0;" d="M 41.4179, 251.294 L 31.0078, 258.345 L 24.704, 257.134 L 51.9435, 232.483 L 53.7798, 231.839 z "/>
<path style="fill:rgb(255, 35, 44);fill-opacity:1.0;fill-rule:evenodd;stroke:rgb(0, 0, 0);stroke-width:3.0;" d="M 762.739, 186.62 L 748.598, 214.913 L 733.943, 184.543 L 737.403, 162.8 z "/>
<path style="fill:rgb(255, 255, 74);fill-opacity:1.0;fill-rule:evenodd;stroke:rgb(0, 0, 0);stroke-width:3.0;" d="M 476.527, 283.754 L 434.978, 314.339 L 446.665, 273.466 z "/>
<path style="fill:rgb(255, 255, 74);fill-opacity:1.0;fill-rule:evenodd;stroke:rgb(0, 0, 0);stroke-width:3.0;" d="M 686.561, 366.722 L 677.944, 384.332 L 662.163, 377.185 L 666.687, 369.294 L 683.967, 363.536 z "/>
<path style="fill:rgb(255, 255, 74);fill-opacity:1.0;fill-rule:evenodd;stroke:rgb(0, 0, 0);stroke-width:3.0;" d="M 172.712, 99.9781 L 172.632, 101.564 L 168.391, 102.925 L 137.998, 91.208 L 129.542, 86.5633 z "/>
<path style="fill:rgb(255, 255, 74);fill-opacity:1.0;fill-rule:evenodd;stroke:rgb(0, 0, 0);stroke-width:3.0;" d="M 113.091, 558.955 L 82.4636, 561.512 L 82.4178, 549.223 L 111.048, 547.549 z "/>
<path style="fill:rgb(42, 144, 220);fill-opacity:1.0;fill-rule:evenodd;stroke:rgb(0, 0, 0);stroke-width:3.0;" d="M 579.913, 168.383 L 577.011, 175.101 L 571.174, 176.057 L 564.4, 173.292 L 557.394, 159.981 z "/>
<path style="fill:rgb(42, 144, 220);fill-opacity:1.0;fill-rule:evenodd;stroke:rgb(0, 0, 0);stroke-width:3.0;" d="M 117.344, 558.6 L 113.091, 558.955 L 111.048, 547.549 L 142.393, 545.716 z "/>
<path style="fill:rgb(249, 0, 207);fill-opacity:1.0;fill-rule:evenodd;stroke:rgb(0, 0, 0);stroke-width:3.0;" d="M 670.835, 433.945 L 666.444, 434.705 L 653.634, 434.012 L 655.923, 429.334 L 676.914, 427.988 z "/>
<path style="fill:rgb(255, 56, 102);fill-opacity:1.0;fill-rule:evenodd;stroke:rgb(0, 0, 0);stroke-width:3.0;" d="M 125.816, 35.2758 L 100.014, 38.6873 L 99.9463, 38.3905 L 127.572, 19.7495 z "/>
<path style="fill:rgb(255, 255, 35);fill-opacity:1.0;fill-rule:evenodd;stroke:rgb(0, 0, 0);stroke-width:3.0;" d="M 162.018, 180.636 L 146.008, 189.421 L 141.501, 187.751 L 148.949, 173.238 L 163.308, 160.786 z "/>
<path style="fill:rgb(28, 255, 234);fill-opacity:1.0;fill-rule:evenodd;stroke:rgb(0, 0, 0);stroke-width:3.0;" d="M 121.78, 121.297 L 120.814, 139.909 L 119.404, 140.074 L 114.091, 138.952 L 115.708, 124.654 L 118.294, 119.857 z "/>
<path style="fill:rgb(202, 223, 231);fill-opacity:1.0;fill-rule:evenodd;stroke:rgb(0, 0, 0);stroke-width:3.0;" d="M 440.997, 130.013 L 431.926, 140.082 L 418.358, 107.694 L 417.289, 101.666 z "/>
<path style="fill:rgb(202, 223, 231);fill-opacity:1.0;fill-rule:evenodd;stroke:rgb(0, 0, 0);stroke-width:3.0;" d="M 135.154, 210.695 L 134.159, 202.058 L 138.542, 193.518 L 155.775, 184.061 z "/>
<path style="fill:rgb(202, 223, 231);fill-opacity:1.0;fill-rule:evenodd;stroke:rgb(0, 0, 0);stroke-width:3.0;" d="M 653.434, 495.576 L 649.865, 498.822 L 631.104, 480.056 L 646.354, 448.889 z "/>
<path style="fill:rgb(255, 252, 78);fill-opacity:1.0;fill-rule:evenodd;stroke:rgb(0, 0, 0);stroke-width:3.0;" d="M 333.824, 146.617 L 319.824, 175.299 L 312.437, 177.601 L 282.696, 134.873 z "/>
<path style="fill:rgb(255, 252, 78);fill-opacity:1.0;fill-rule:evenodd;stroke:rgb(0, 0, 0);stroke-width:3.0;" d="M 90.3931, 75.9931 L 75.4735, 54.9039 L 84.9523, 48.5079 z "/>
<path style="fill:rgb(255, 252, 78);fill-opacity:1.0;fill-rule:evenodd;stroke:rgb(0, 0, 0);stroke-width:3.0;" d="M 156.668, 135.707 L 137.588, 137.943 L 121.319, 130.177 L 121.686, 123.114 L 124.321, 122.346 z "/>
<path style="fill:rgb(255, 252, 78);fill-opacity:1.0;fill-rule:evenodd;stroke:rgb(0, 0, 0);stroke-width:3.0;" d="M 654.344, 456.369 L 656.275, 471.414 L 653.833, 495.213 L 653.434, 495.576 L 646.354, 448.889 L 647.698, 446.143 z "/>
<path style="fill:rgb(243, 255, 11);fill-opacity:1.0;fill-rule:evenodd;stroke:rgb(0, 0, 0);stroke-width:3.0;" d="M 638.863, 31.9186 L 637.39, 35.328 L 623.78, 47.2174 L 620.641, 40.2229 L 636.511, 27.9544 z "/>
<path style="fill:rgb(255, 255, 9);fill-opacity:1.0;fill-rule:evenodd;stroke:rgb(0, 0, 0);stroke-width:3.0;" d="M 196.215, 80.5741 L 186.62, 113.037 L 173.677, 80.959 L 174.672, 61.3373 L 191.927, 57.9277 z "/>
<path style="fill:rgb(255, 255, 9);fill-opacity:1.0;fill-rule:evenodd;stroke:rgb(0, 0, 0);stroke-width:3.0;" d="M 128.074, 165.138 L 120.528, 155.915 L 151.536, 145.406 z "/>
<path style="fill:rgb(255, 255, 9);fill-opacity:1.0;fill-rule:evenodd;stroke:rgb(0, 0, 0);stroke-width:3.0;" d="M 714.717, 309.179 L 706.473, 326.028 L 689.517, 306.597 z "/>
<path style="fill:rgb(89, 128, 255);fill-opacity:1.0;fill-rule:evenodd;stroke:rgb(0, 0, 0);stroke-width:3.0;" d="M 625.254, 483.268 L 620.065, 490.268 L 609.289, 477.972 L 617.517, 451.068 L 628.305, 444.203 z "/>
<path style="fill:rgb(89, 128, 255);fill-opacity:1.0;fill-rule:evenodd;stroke:rgb(0, 0, 0);stroke-width:3.0;" d="M 470.068, 522.673 L 439.151, 494.236 L 451.689, 465.212 z "/>
<path style="fill:rgb(252, 249, 31);fill-opacity:1.0;fill-rule:evenodd;stroke:rgb(0, 0, 0);stroke-width:3.0;" d="M 38.8251, 168.514 L 41.3112, 175.264 L 40.5738, 182.762 L 6.65565, 157.134 L 5.30656, 153.246 L 8.19478, 149.901 z "/>
<path style="fill:rgb(252, 249, 31);fill-opacity:1.0;fill-rule:evenodd;stroke:rgb(0, 0, 0);stroke-width:3.0;" d="M 388.335, 477.467 L 387.266, 481.204 L 375.293, 481.955 L 370.88, 471.266 z "/>
<path style="fill:rgb(14, 91, 252);fill-opacity:1.0;fill-rule:evenodd;stroke:rgb(0, 0, 0);stroke-width:3.0;" d="M 540.249, 153.584 L 536.984, 162.104 L 485.232, 140.985 L 488.166, 134.152 z "/>
<path style="fill:rgb(14, 91, 252);fill-opacity:1.0;fill-rule:evenodd;stroke:rgb(0, 0, 0);stroke-width:3.0;" d="M 341.492, 443.308 L 251.294, 489.702 L 212.844, 473.264 L 278.745, 401.701 z "/>
<path style="fill:rgb(255, 148, 83);fill-opacity:1.0;fill-rule:evenodd;stroke:rgb(0, 0, 0);stroke-width:3.0;" d="M 643.05, 576.725 L 638.56, 579.827 L 625.426, 571.451 L 623.112, 565.515 L 622.039, 560.352 z "/>
<path style="fill:rgb(255, 148, 83);fill-opacity:1.0;fill-rule:evenodd;stroke:rgb(0, 0, 0);stroke-width:3.0;" d="M 95.6204, 245.155 L 84.8294, 248.517 L 76.0563, 247.225 L 54.8058, 198.26 z "/>
<path style="fill:rgb(231, 44, 217);fill-opacity:1.0;fill-rule:evenodd;stroke:rgb(0, 0, 0);stroke-width:3.0;" d="M 153.099, 39.1636 L 128.836, 35.8308 L 162.586, 22.9736 z "/>
<path style="fill:rgb(231, 44, 217);fill-opacity:1.0;fill-rule:evenodd;stroke:rgb(0, 0, 0);stroke-width:3.0;" d="M 614.952, 561.268 L 601.543, 580.735 L 599.527, 570.379 L 613.948, 560.106 z "/>
<path style="fill:rgb(231, 44, 217);fill-opacity:1.0;fill-rule:evenodd;stroke:rgb(0, 0, 0);stroke-width:3.0;" d="M 386.557, 455.762 L 389.419, 464.67 L 359.662, 457.995 L 355.456, 449.375 z "/>
<path style="fill:rgb(255, 255, 44);fill-opacity:1.0;fill-rule:evenodd;stroke:rgb(0, 0, 0);stroke-width:3.0;" d="M 113.071, 227.797 L 96.6431, 232.169 L 95.2692, 224.649 L 111.417, 220.96 z "/>
<path style="fill:rgb(255, 255, 44);fill-opacity:1.0;fill-rule:evenodd;stroke:rgb(0, 0, 0);stroke-width:3.0;" d="M 621.386, 18.4198 L 579.759, 22.8834 L 576.137, 19.7377 L 622.009, 16.9563 z "/>
<path style="fill:rgb(105, 9, 252);fill-opacity:1.0;fill-rule:evenodd;stroke:rgb(0, 0, 0);stroke-width:3.0;" d="M 76.1631, 95.0365 L 82.9659, 103.34 L 85.3674, 113.268 L 85.814, 125.83 L 62.7427, 88.0103 z "/>
<path style="fill:rgb(105, 9, 252);fill-opacity:1.0;fill-rule:evenodd;stroke:rgb(0, 0, 0);stroke-width:3.0;" d="M 379.968, 499.612 L 374.91, 500.465 L 364.323, 490.481 L 372.111, 483.509 z "/>
<path style="fill:rgb(255, 212, 81);fill-opacity:1.0;fill-rule:evenodd;stroke:rgb(0, 0, 0);stroke-width:3.0;" d="M 55.778, 84.7092 L 41.8339, 97.5641 L 38.6416, 95.3045 L 38.0892, 93.2401 L 42.3201, 87.3384 L 54.4446, 82.4549 z "/>
<path style="fill:rgb(148, 115, 234);fill-opacity:1.0;fill-rule:evenodd;stroke:rgb(0, 0, 0);stroke-width:3.0;" d="M 125.133, 85.1931 L 135.573, 99.4183 L 118.859, 96.7956 L 119.622, 90.0484 L 124.948, 85.1356 z "/>
<path style="fill:rgb(94, 255, 255);fill-opacity:1.0;fill-rule:evenodd;stroke:rgb(0, 0, 0);stroke-width:3.0;" d="M 246.175, 505.747 L 230.739, 500.275 L 253.093, 488.777 z "/>
<path style="fill:rgb(94, 255, 255);fill-opacity:1.0;fill-rule:evenodd;stroke:rgb(0, 0, 0);stroke-width:3.0;" d="M 30.7424, 175.334 L 33.6584, 200.388 L 23.8564, 206.713 L 10.8193, 169.135 L 15.1198, 163.53 z "/>
<path style="fill:rgb(255, 226, 7);fill-opacity:1.0;fill-rule:evenodd;stroke:rgb(0, 0, 0);stroke-width:3.0;" d="M 617.587, 37.3242 L 616.425, 44.9828 L 594.782, 52.4572 L 594.678, 52.4247 L 610.61, 34.1426 z "/>
<path style="fill:rgb(255, 98, 22);fill-opacity:1.0;fill-rule:evenodd;stroke:rgb(0, 0, 0);stroke-width:3.0;" d="M 730.491, 379.499 L 710.11, 417.463 L 709.649, 352.342 z "/>
<path style="fill:rgb(255, 98, 22);fill-opacity:1.0;fill-rule:evenodd;stroke:rgb(0, 0, 0);stroke-width:3.0;" d="M 141.638, 119.432 L 140.918, 124.268 L 123.445, 121.985 L 116.342, 119.051 L 116.601, 116.758 L 120.23, 111.577 z "/>
<path style="fill:rgb(19, 255, 237);fill-opacity:1.0;fill-rule:evenodd;stroke:rgb(0, 0, 0);stroke-width:3.0;" d="M 586.11, 28.3998 L 602.904, 42.9852 L 596.985, 49.7769 L 578.641, 27.1923 z "/>
<path style="fill:rgb(255, 65, 255);fill-opacity:1.0;fill-rule:evenodd;stroke:rgb(0, 0, 0);stroke-width:3.0;" d="M 173.723, 156.669 L 170.113, 151.228 L 170.606, 141.505 L 176.828, 126.064 L 184.735, 117.38 L 185.502, 116.819 z "/>
<path style="fill:rgb(255, 86, 9);fill-opacity:1.0;fill-rule:evenodd;stroke:rgb(0, 0, 0);stroke-width:3.0;" d="M 555.042, 225.957 L 550.132, 229.571 L 551.262, 210.676 L 562.59, 208.484 z "/>
<path style="fill:rgb(159, 246, 255);fill-opacity:1.0;fill-rule:evenodd;stroke:rgb(0, 0, 0);stroke-width:3.0;" d="M 618.595, 24.9794 L 605.687, 39.7916 L 608.518, 19.7996 L 621.386, 18.4198 z "/>
<path style="fill:rgb(52, 252, 255);fill-opacity:1.0;fill-rule:evenodd;stroke:rgb(0, 0, 0);stroke-width:3.0;" d="M 638.093, 463.963 L 637.371, 449.749 L 642.744, 435.015 L 644.251, 434.056 L 652.984, 433.698 z "/>
<path style="fill:rgb(117, 88, 204);fill-opacity:1.0;fill-rule:evenodd;stroke:rgb(0, 0, 0);stroke-width:3.0;" d="M 26.5678, 225.655 L 26.6352, 225.726 L 22.1588, 242.918 L 21.9872, 242.978 L 10.496, 224.861 z "/>
<path style="fill:rgb(231, 150, 136);fill-opacity:1.0;fill-rule:evenodd;stroke:rgb(0, 0, 0);stroke-width:3.0;" d="M 779.125, 153.839 L 762.739, 186.62 L 737.403, 162.8 L 738.969, 152.96 L 755.873, 132.379 L 767.323, 130.549 z "/>
<path style="fill:rgb(231, 150, 136);fill-opacity:1.0;fill-rule:evenodd;stroke:rgb(0, 0, 0);stroke-width:3.0;" d="M 191.213, 54.155 L 184.095, 57.2738 L 181.598, 39.8783 L 188.131, 37.879 z "/>
<path style="fill:rgb(231, 150, 136);fill-opacity:1.0;fill-rule:evenodd;stroke:rgb(0, 0, 0);stroke-width:3.0;" d="M 506.734, 149.759 L 504.676, 263.033 L 476.527, 283.754 L 446.665, 273.466 L 483.177, 145.773 L 485.232, 140.985 z "/>
<path style="fill:rgb(255, 110, 33);fill-opacity:1.0;fill-rule:evenodd;stroke:rgb(0, 0, 0);stroke-width:3.0;" d="M 106.787, 30.2458 L 74.1148, 39.6378 L 71.433, 39.1771 L 108.276, 22.992 z "/>
<path style="fill:rgb(255, 110, 33);fill-opacity:1.0;fill-rule:evenodd;stroke:rgb(0, 0, 0);stroke-width:3.0;" d="M 159.661, 152.364 L 155.651, 160.177 L 145.855, 154.694 L 147.756, 148.585 L 152.585, 144.524 z "/>
<path style="fill:rgb(255, 252, 25);fill-opacity:1.0;fill-rule:evenodd;stroke:rgb(0, 0, 0);stroke-width:3.0;" d="M 151.82, 145.168 L 151.536, 145.406 L 111.84, 158.86 L 113.572, 143.542 z "/>
<path style="fill:rgb(255, 11, 14);fill-opacity:1.0;fill-rule:evenodd;stroke:rgb(0, 0, 0);stroke-width:3.0;" d="M 463.396, 516.535 L 421.629, 534.799 L 439.151, 494.236 z "/>
<path style="fill:rgb(246, 234, 7);fill-opacity:1.0;fill-rule:evenodd;stroke:rgb(0, 0, 0);stroke-width:3.0;" d="M 736.652, 103.726 L 736.959, 165.591 L 733.626, 186.53 L 732.789, 103.107 L 736.08, 103.034 z "/>
<path style="fill:rgb(246, 234, 7);fill-opacity:1.0;fill-rule:evenodd;stroke:rgb(0, 0, 0);stroke-width:3.0;" d="M 174.961, 55.6268 L 149.622, 65.5986 L 142.332, 57.5359 L 162.586, 22.9736 L 176.894, 17.5231 z "/>
<path style="fill:rgb(255, 168, 56);fill-opacity:1.0;fill-rule:evenodd;stroke:rgb(0, 0, 0);stroke-width:3.0;" d="M 159.891, 103.234 L 172.204, 109.998 L 171.998, 114.068 L 118.009, 104.311 L 118.859, 96.7956 z "/>
<path style="fill:rgb(21, 100, 255);fill-opacity:1.0;fill-rule:evenodd;stroke:rgb(0, 0, 0);stroke-width:3.0;" d="M 467.495, 200.619 L 452.926, 216.233 L 464.714, 188.777 L 471.243, 187.511 z "/>
<path style="fill:rgb(21, 100, 255);fill-opacity:1.0;fill-rule:evenodd;stroke:rgb(0, 0, 0);stroke-width:3.0;" d="M 575.785, 177.938 L 562.59, 208.484 L 551.262, 210.676 L 552.389, 191.816 L 568.432, 174.938 z "/>
<path style="fill:rgb(255, 243, 11);fill-opacity:1.0;fill-rule:evenodd;stroke:rgb(0, 0, 0);stroke-width:3.0;" d="M 419.8, 293.392 L 359.39, 434.102 L 341.492, 443.308 L 278.745, 401.701 L 421.986, 246.153 z "/>
<path style="fill:rgb(246, 217, 9);fill-opacity:1.0;fill-rule:evenodd;stroke:rgb(0, 0, 0);stroke-width:3.0;" d="M 392.632, 30.3484 L 398.565, 52.5831 L 310.94, 58.2428 L 343.873, 27.1558 L 375.492, 25.871 z "/>
<path style="fill:rgb(246, 217, 9);fill-opacity:1.0;fill-rule:evenodd;stroke:rgb(0, 0, 0);stroke-width:3.0;" d="M 717.322, 437.46 L 713.896, 440.577 L 702.865, 444.647 L 691.467, 436.551 L 691.791, 436.078 z "/>
<path style="fill:rgb(202, 55, 170);fill-opacity:1.0;fill-rule:evenodd;stroke:rgb(0, 0, 0);stroke-width:3.0;" d="M 593.02, 71.5072 L 585.712, 70.1748 L 581.699, 67.2069 L 580.224, 37.4551 z "/>
<path style="fill:rgb(197, 2, 175);fill-opacity:1.0;fill-rule:evenodd;stroke:rgb(0, 0, 0);stroke-width:3.0;" d="M 676.385, 435.244 L 684.812, 436.692 L 679.632, 444.035 L 652.069, 447.205 L 669.607, 434.877 z "/>
<path style="fill:rgb(255, 23, 21);fill-opacity:1.0;fill-rule:evenodd;stroke:rgb(0, 0, 0);stroke-width:3.0;" d="M 356.392, 505.533 L 356.367, 520.544 L 340.228, 499.937 L 340.48, 498.66 z "/>
<path style="fill:rgb(255, 220, 10);fill-opacity:1.0;fill-rule:evenodd;stroke:rgb(0, 0, 0);stroke-width:3.0;" d="M 596.24, 520.642 L 565.476, 535.749 L 563.378, 533.848 L 569, 528.557 L 596.559, 519.6 z "/>
<path style="fill:rgb(255, 220, 10);fill-opacity:1.0;fill-rule:evenodd;stroke:rgb(0, 0, 0);stroke-width:3.0;" d="M 64.4246, 220.424 L 65.8522, 240.488 L 65.389, 240.641 L 46.3573, 188.966 L 49.2333, 185.42 z "/>
<path style="fill:rgb(255, 220, 10);fill-opacity:1.0;fill-rule:evenodd;stroke:rgb(0, 0, 0);stroke-width:3.0;" d="M 315.085, 142.313 L 282.696, 134.873 L 281.52, 133.185 L 308.554, 122.467 z "/>
<path style="fill:rgb(209, 40, 72);fill-opacity:1.0;fill-rule:evenodd;stroke:rgb(0, 0, 0);stroke-width:3.0;" d="M 134.293, 226.359 L 126.373, 235.573 L 115.753, 238.883 L 115.595, 238.232 L 127.153, 215.71 z "/>
<path style="fill:rgb(228, 0, 148);fill-opacity:1.0;fill-rule:evenodd;stroke:rgb(0, 0, 0);stroke-width:3.0;" d="M 153.095, 78.6739 L 130.531, 86.8706 L 120.34, 83.7036 L 123.389, 56.7434 z "/>
<path style="fill:rgb(252, 2, 228);fill-opacity:1.0;fill-rule:evenodd;stroke:rgb(0, 0, 0);stroke-width:3.0;" d="M 118.667, 87.7753 L 80.1744, 91.7999 L 78.1144, 83.2836 L 88.0547, 78.3257 z "/>
<path style="fill:rgb(246, 182, 16);fill-opacity:1.0;fill-rule:evenodd;stroke:rgb(0, 0, 0);stroke-width:3.0;" d="M 683.967, 363.536 L 666.687, 369.294 L 674.029, 356.49 L 678.123, 356.361 z "/>
<path style="fill:rgb(223, 1, 7);fill-opacity:1.0;fill-rule:evenodd;stroke:rgb(0, 0, 0);stroke-width:3.0;" d="M 613.948, 560.106 L 599.527, 570.379 L 595.935, 551.928 L 599.505, 544.632 L 600.107, 544.085 z "/>
<path style="fill:rgb(255, 2, 56);fill-opacity:1.0;fill-rule:evenodd;stroke:rgb(0, 0, 0);stroke-width:3.0;" d="M 761.951, 79.8011 L 758.65, 88.9199 L 748.803, 93.3942 L 750.977, 77.5173 L 751.763, 72.5761 z "/>
<path style="fill:rgb(92, 134, 223);fill-opacity:1.0;fill-rule:evenodd;stroke:rgb(0, 0, 0);stroke-width:3.0;" d="M 592.482, 25.5072 L 603.975, 41.7556 L 602.904, 42.9852 L 579.759, 22.8834 L 588.26, 21.9719 z "/>
<path style="fill:rgb(255, 23, 194);fill-opacity:1.0;fill-rule:evenodd;stroke:rgb(0, 0, 0);stroke-width:3.0;" d="M 507.345, 336.373 L 423.28, 530.975 L 402.725, 427.14 L 430.939, 328.466 z "/>
<path style="fill:rgb(59, 157, 243);fill-opacity:1.0;fill-rule:evenodd;stroke:rgb(0, 0, 0);stroke-width:3.0;" d="M 507.345, 336.373 L 430.939, 328.466 L 434.978, 314.339 L 555.042, 225.957 z "/>
<path style="fill:rgb(15, 252, 130);fill-opacity:1.0;fill-rule:evenodd;stroke:rgb(0, 0, 0);stroke-width:3.0;" d="M 148.403, 121.915 L 152.236, 125.85 L 152.699, 134.067 L 141.245, 129.337 L 143.037, 119.946 z "/>
<path style="fill:rgb(255, 255, 57);fill-opacity:1.0;fill-rule:evenodd;stroke:rgb(0, 0, 0);stroke-width:3.0;" d="M 709.649, 352.342 L 710.11, 417.463 L 699.882, 436.516 L 680.613, 435.473 L 701.512, 341.738 z "/>
<path style="fill:rgb(249, 150, 255);fill-opacity:1.0;fill-rule:evenodd;stroke:rgb(0, 0, 0);stroke-width:3.0;" d="M 698.68, 441.674 L 687.899, 450.17 L 680.175, 453.02 L 691.467, 436.551 z "/>
<path style="fill:rgb(144, 136, 255);fill-opacity:1.0;fill-rule:evenodd;stroke:rgb(0, 0, 0);stroke-width:3.0;" d="M 398.218, 442.901 L 396.793, 447.884 L 389.425, 456.351 L 388.285, 456.117 L 385.059, 444.429 L 390.132, 441.325 z "/>
<path style="fill:rgb(226, 112, 34);fill-opacity:1.0;fill-rule:evenodd;stroke:rgb(0, 0, 0);stroke-width:3.0;" d="M 745.165, 114.032 L 739.107, 152.094 L 738.718, 106.227 z "/>
<path style="fill:rgb(249, 15, 24);fill-opacity:1.0;fill-rule:evenodd;stroke:rgb(0, 0, 0);stroke-width:3.0;" d="M 457.767, 234.638 L 453.909, 235.731 L 450.981, 224.545 L 462.804, 217.024 z "/>
<path style="fill:rgb(121, 255, 215);fill-opacity:1.0;fill-rule:evenodd;stroke:rgb(0, 0, 0);stroke-width:3.0;" d="M 523.368, 147.286 L 488.166, 134.152 L 490.62, 128.437 L 510.646, 110.734 z "/>
<path style="fill:rgb(121, 255, 215);fill-opacity:1.0;fill-rule:evenodd;stroke:rgb(0, 0, 0);stroke-width:3.0;" d="M 462.804, 217.024 L 450.981, 224.545 L 450.366, 222.197 L 452.926, 216.233 L 467.495, 200.619 z "/>
<path style="fill:rgb(255, 103, 16);fill-opacity:1.0;fill-rule:evenodd;stroke:rgb(0, 0, 0);stroke-width:3.0;" d="M 152.838, 227.328 L 137.615, 232.071 L 135.154, 210.695 L 155.775, 184.061 L 167.534, 177.609 z "/>
<path style="fill:rgb(98, 252, 255);fill-opacity:1.0;fill-rule:evenodd;stroke:rgb(0, 0, 0);stroke-width:3.0;" d="M 406.817, 83.5107 L 195.361, 167.344 L 310.94, 58.2428 L 398.565, 52.5831 z "/>
<path style="fill:rgb(255, 255, 44);fill-opacity:1.0;fill-rule:evenodd;stroke:rgb(0, 0, 0);stroke-width:3.0;" d="M 706.473, 326.028 L 701.247, 336.708 L 659.012, 351.333 L 698.668, 317.083 z "/>
<path style="fill:rgb(228, 249, 13);fill-opacity:1.0;fill-rule:evenodd;stroke:rgb(0, 0, 0);stroke-width:3.0;" d="M 151.82, 145.168 L 117.337, 143.702 L 116.765, 140.384 L 164.106, 134.835 z "/>
<path style="fill:rgb(255, 228, 17);fill-opacity:1.0;fill-rule:evenodd;stroke:rgb(0, 0, 0);stroke-width:3.0;" d="M 557.394, 159.981 L 564.4, 173.292 L 536.984, 162.104 L 540.249, 153.584 z "/>
<path style="fill:rgb(234, 161, 8);fill-opacity:1.0;fill-rule:evenodd;stroke:rgb(0, 0, 0);stroke-width:3.0;" d="M 586.015, 154.257 L 579.913, 168.383 L 560.472, 161.129 L 551.754, 122.676 L 584.356, 120.793 z "/>
<path style="fill:rgb(23, 161, 255);fill-opacity:1.0;fill-rule:evenodd;stroke:rgb(0, 0, 0);stroke-width:3.0;" d="M 584.356, 120.793 L 551.754, 122.676 L 545.603, 95.5428 L 581.297, 59.0948 z "/>
<path style="fill:rgb(255, 1, 22);fill-opacity:1.0;fill-rule:evenodd;stroke:rgb(0, 0, 0);stroke-width:3.0;" d="M 560.472, 161.129 L 523.368, 147.286 L 510.646, 110.734 L 542.636, 82.4555 z "/>
<path style="fill:rgb(243, 37, 7);fill-opacity:1.0;fill-rule:evenodd;stroke:rgb(0, 0, 0);stroke-width:3.0;" d="M 734.452, 268.848 L 730.693, 276.532 L 726.655, 278.313 L 686.018, 227.07 L 732.508, 75.0496 z "/>
<path style="fill:rgb(240, 15, 14);fill-opacity:1.0;fill-rule:evenodd;stroke:rgb(0, 0, 0);stroke-width:3.0;" d="M 744.856, 398.218 L 713.253, 437.24 L 699.882, 436.516 L 730.491, 379.499 z "/>
<path style="fill:rgb(234, 128, 27);fill-opacity:1.0;fill-rule:evenodd;stroke:rgb(0, 0, 0);stroke-width:3.0;" d="M 130.271, 106.527 L 146.466, 115.894 L 143.748, 120.207 L 117.309, 110.505 L 118.009, 104.311 z "/>
<path style="fill:rgb(21, 255, 255);fill-opacity:1.0;fill-rule:evenodd;stroke:rgb(0, 0, 0);stroke-width:3.0;" d="M 53.2325, 588.29 L 44.0969, 579.528 L 44.1096, 576.854 L 60.381, 550.512 L 63.6494, 550.321 z "/>
<path style="fill:rgb(255, 103, 48);fill-opacity:1.0;fill-rule:evenodd;stroke:rgb(0, 0, 0);stroke-width:3.0;" d="M 338.589, 497.843 L 356.367, 520.544 L 356.308, 556.049 L 342.135, 545.341 L 332.522, 502.895 L 334.847, 496.227 z "/>
<path style="fill:rgb(49, 119, 255);fill-opacity:1.0;fill-rule:evenodd;stroke:rgb(0, 0, 0);stroke-width:3.0;" d="M 747.751, 439.108 L 713.253, 437.24 L 741.237, 402.687 z "/>
</svg>