<?xml version="1.0" encoding="iso-8859-1" standalone="no"?>
<!DOCTYPE svg PUBLIC "-//W3C//DTD SVG 1.0//EN" "http://www.w3.org/TR/2001/REC-SVG-20010904/DTD/svg10.dtd">
<svg xmlns="http://www.w3.org/2000/svg" width="800" height="600">
<path style="fill:rgb(0, 0, 0);fill-opacity:0.0;fill-rule:evenodd;stroke:rgb(0, 0, 0);stroke-width:0.0;" d="M 0, 600 L 800, 600 L 800, 0 L 0, 0 z "/>
<path style="fill:rgb(255, 2, 26);fill-opacity:1.0;fill-rule:evenodd;stroke:rgb(0, 0, 0);stroke-width:3.0;" d="M 773.659, 20.7252 L 780.829, 43.737 L 772.768, 45.2953 L 763.594, 25.9652 L 766.264, 15.2255 z "/>
<path style="fill:rgb(255, 2, 26);fill-opacity:1.0;fill-rule:evenodd;stroke:rgb(0, 0, 0);stroke-width:3.0;" d="M 697.958, 190.701 L 459.813, 300.379 L 519.331, 152.773 z "/>
<path style="fill:rgb(255, 255, 20);fill-opacity:1.0;fill-rule:evenodd;stroke:rgb(0, 0, 0);stroke-width:3.0;" d="M 318.96, 124.089 L 316.299, 143.41 L 309.066, 143.58 L 285.808, 139.626 L 317.726, 123.858 z "/>
<path style="fill:rgb(255, 255, 20);fill-opacity:1.0;fill-rule:evenodd;stroke:rgb(0, 0, 0);stroke-width:3.0;" d="M 593.445, 168.51 L 564.343, 162.331 L 574.3, 33.3633 z "/>
<path style="fill:rgb(252, 0, 35);fill-opacity:1.0;fill-rule:evenodd;stroke:rgb(0, 0, 0);stroke-width:3.0;" d="M 130.847, 568.186 L 108.193, 565.69 L 106.535, 562.104 L 131.974, 561.724 z "/>
<path style="fill:rgb(237, 1, 15);fill-opacity:1.0;fill-rule:evenodd;stroke:rgb(0, 0, 0);stroke-width:3.0;" d="M 329.726, 264.5 L 303.595, 276.302 L 315.927, 263.314 L 329.631, 262.17 z "/>
<path style="fill:rgb(237, 1, 15);fill-opacity:1.0;fill-rule:evenodd;stroke:rgb(0, 0, 0);stroke-width:3.0;" d="M 139.822, 61.68 L 108.117, 84.6611 L 76.7949, 78.8038 L 75.4782, 58.7958 z "/>
<path style="fill:rgb(234, 0, 255);fill-opacity:1.0;fill-rule:evenodd;stroke:rgb(0, 0, 0);stroke-width:3.0;" d="M 139.822, 61.68 L 120.955, 60.8343 L 117.317, 54.9391 L 152.677, 52.3617 z "/>
<path style="fill:rgb(31, 154, 240);fill-opacity:1.0;fill-rule:evenodd;stroke:rgb(0, 0, 0);stroke-width:3.0;" d="M 84.1491, 57.3567 L 29.8045, 61.3178 L 48.9494, 37.0929 L 83.8459, 34.5238 z "/>
<path style="fill:rgb(237, 105, 202);fill-opacity:1.0;fill-rule:evenodd;stroke:rgb(0, 0, 0);stroke-width:3.0;" d="M 287.121, 355.298 L 283.502, 381.578 L 176.874, 430.686 L 175.202, 305.124 z "/>
<path style="fill:rgb(243, 62, 18);fill-opacity:1.0;fill-rule:evenodd;stroke:rgb(0, 0, 0);stroke-width:3.0;" d="M 756.219, 49.6379 L 720.593, 61.514 L 714.498, 58.0348 L 728.434, 33.3951 z "/>
<path style="fill:rgb(243, 62, 18);fill-opacity:1.0;fill-rule:evenodd;stroke:rgb(0, 0, 0);stroke-width:3.0;" d="M 728.434, 33.3951 L 714.498, 58.0348 L 713.212, 57.3006 L 714.635, 25.3284 z "/>
<path style="fill:rgb(243, 62, 18);fill-opacity:1.0;fill-rule:evenodd;stroke:rgb(0, 0, 0);stroke-width:3.0;" d="M 762.916, 90.3194 L 767.318, 119.461 L 722.553, 69.2506 L 722.401, 66.3593 z "/>
<path style="fill:rgb(255, 240, 8);fill-opacity:1.0;fill-rule:evenodd;stroke:rgb(0, 0, 0);stroke-width:3.0;" d="M 318.96, 124.089 L 290.567, 118.779 L 320.759, 111.02 z "/>
<path style="fill:rgb(78, 255, 252);fill-opacity:1.0;fill-rule:evenodd;stroke:rgb(0, 0, 0);stroke-width:3.0;" d="M 323.815, 88.8308 L 320.759, 111.02 L 290.567, 118.779 L 224.023, 106.335 L 226.187, 73.1982 z "/>
<path style="fill:rgb(168, 252, 76);fill-opacity:1.0;fill-rule:evenodd;stroke:rgb(0, 0, 0);stroke-width:3.0;" d="M 510.09, 175.692 L 509.532, 177.074 L 501.262, 123.618 L 503.031, 109.729 z "/>
<path style="fill:rgb(255, 119, 24);fill-opacity:1.0;fill-rule:evenodd;stroke:rgb(0, 0, 0);stroke-width:3.0;" d="M 198.171, 28.0745 L 186.051, 37.4579 L 185.249, 21.9104 L 192.374, 17.3266 z "/>
<path style="fill:rgb(255, 119, 24);fill-opacity:1.0;fill-rule:evenodd;stroke:rgb(0, 0, 0);stroke-width:3.0;" d="M 215.986, 312.004 L 213.335, 319.91 L 207.457, 319.584 L 194.336, 313.702 L 206.11, 307.743 z "/>
<path style="fill:rgb(255, 119, 24);fill-opacity:1.0;fill-rule:evenodd;stroke:rgb(0, 0, 0);stroke-width:3.0;" d="M 457.714, 280.037 L 441.886, 269.622 L 443.378, 264.059 L 454.616, 262.351 z "/>
<path style="fill:rgb(255, 119, 24);fill-opacity:1.0;fill-rule:evenodd;stroke:rgb(0, 0, 0);stroke-width:3.0;" d="M 324.748, 362.582 L 299.599, 374.165 L 306.225, 359.225 L 312.282, 357.271 z "/>
<path style="fill:rgb(255, 119, 24);fill-opacity:1.0;fill-rule:evenodd;stroke:rgb(0, 0, 0);stroke-width:3.0;" d="M 370.163, 222.426 L 382.147, 230.312 L 363.779, 233.493 L 355.079, 223.436 L 358.59, 219.731 z "/>
<path style="fill:rgb(255, 119, 24);fill-opacity:1.0;fill-rule:evenodd;stroke:rgb(0, 0, 0);stroke-width:3.0;" d="M 332.821, 340.28 L 306.244, 315.942 L 310.061, 307.662 L 331.107, 298.314 z "/>
<path style="fill:rgb(234, 204, 34);fill-opacity:1.0;fill-rule:evenodd;stroke:rgb(0, 0, 0);stroke-width:3.0;" d="M 759.238, 177.211 L 756.526, 180.183 L 739.53, 183.865 L 732.045, 175.002 L 749.508, 166.96 z "/>
<path style="fill:rgb(234, 204, 34);fill-opacity:1.0;fill-rule:evenodd;stroke:rgb(0, 0, 0);stroke-width:3.0;" d="M 228.193, 305.694 L 217.175, 312.516 L 206.11, 307.743 L 232.818, 294.227 z "/>
<path style="fill:rgb(234, 204, 34);fill-opacity:1.0;fill-rule:evenodd;stroke:rgb(0, 0, 0);stroke-width:3.0;" d="M 262.565, 279.174 L 194.336, 313.702 L 191.68, 312.511 L 185.038, 270.445 z "/>
<path style="fill:rgb(234, 255, 23);fill-opacity:1.0;fill-rule:evenodd;stroke:rgb(0, 0, 0);stroke-width:3.0;" d="M 92.201, 239.083 L 23.4092, 232.822 L 45.3829, 207.487 L 106.077, 192.245 z "/>
<path style="fill:rgb(234, 255, 23);fill-opacity:1.0;fill-rule:evenodd;stroke:rgb(0, 0, 0);stroke-width:3.0;" d="M 504.966, 188.399 L 503.174, 192.843 L 493.035, 188.2 L 493.135, 187.417 L 503.039, 170.397 z "/>
<path style="fill:rgb(234, 255, 23);fill-opacity:1.0;fill-rule:evenodd;stroke:rgb(0, 0, 0);stroke-width:3.0;" d="M 313.81, 299.53 L 302.581, 310.827 L 293.388, 309.789 L 295.681, 293.134 L 320.386, 285.264 z "/>
<path style="fill:rgb(212, 255, 14);fill-opacity:1.0;fill-rule:evenodd;stroke:rgb(0, 0, 0);stroke-width:3.0;" d="M 463.149, 210.939 L 469.609, 226.684 L 438.765, 219.387 L 432.41, 216.247 L 438.211, 198.034 z "/>
<path style="fill:rgb(212, 255, 14);fill-opacity:1.0;fill-rule:evenodd;stroke:rgb(0, 0, 0);stroke-width:3.0;" d="M 370.426, 308.697 L 369.526, 313.839 L 367.739, 317.339 L 351.036, 305.933 L 353.293, 302.339 L 359.964, 299.692 z "/>
<path style="fill:rgb(249, 255, 25);fill-opacity:1.0;fill-rule:evenodd;stroke:rgb(0, 0, 0);stroke-width:3.0;" d="M 88.4182, 176.288 L 84.5046, 184.054 L 68.9682, 180.294 L 81.1863, 166.206 z "/>
<path style="fill:rgb(249, 255, 25);fill-opacity:1.0;fill-rule:evenodd;stroke:rgb(0, 0, 0);stroke-width:3.0;" d="M 455.874, 302.193 L 422.465, 317.579 L 390.318, 310.199 L 440.312, 294.201 z "/>
<path style="fill:rgb(8, 1, 184);fill-opacity:1.0;fill-rule:evenodd;stroke:rgb(0, 0, 0);stroke-width:3.0;" d="M 440.312, 294.201 L 421.666, 300.168 L 378.733, 274.442 L 382.877, 264.707 z "/>
<path style="fill:rgb(8, 1, 184);fill-opacity:1.0;fill-rule:evenodd;stroke:rgb(0, 0, 0);stroke-width:3.0;" d="M 714.635, 25.3284 L 713.212, 57.3006 L 710.537, 55.7732 L 704.647, 49.1668 L 697.059, 15.0534 z "/>
<path style="fill:rgb(8, 1, 184);fill-opacity:1.0;fill-rule:evenodd;stroke:rgb(0, 0, 0);stroke-width:3.0;" d="M 385.072, 164.515 L 411.09, 207.105 L 407.378, 210.922 L 367.529, 220.693 L 353.571, 211.508 L 381.246, 160.076 z "/>
<path style="fill:rgb(8, 1, 184);fill-opacity:1.0;fill-rule:evenodd;stroke:rgb(0, 0, 0);stroke-width:3.0;" d="M 298.163, 374.827 L 291.523, 377.884 L 292.71, 345.3 L 305.495, 317.565 z "/>
<path style="fill:rgb(255, 163, 18);fill-opacity:1.0;fill-rule:evenodd;stroke:rgb(0, 0, 0);stroke-width:3.0;" d="M 770.171, 163.194 L 772.612, 179.664 L 756.875, 168.203 L 765.723, 161.163 z "/>
<path style="fill:rgb(255, 163, 18);fill-opacity:1.0;fill-rule:evenodd;stroke:rgb(0, 0, 0);stroke-width:3.0;" d="M 419.092, 254.623 L 465.855, 285.394 L 459.813, 300.379 L 455.874, 302.193 L 382.877, 264.707 L 387.441, 253.986 z "/>
<path style="fill:rgb(81, 215, 237);fill-opacity:1.0;fill-rule:evenodd;stroke:rgb(0, 0, 0);stroke-width:3.0;" d="M 394.155, 238.214 L 388.541, 251.402 L 381.988, 254.54 L 365.192, 235.126 L 382.451, 230.512 z "/>
<path style="fill:rgb(81, 215, 237);fill-opacity:1.0;fill-rule:evenodd;stroke:rgb(0, 0, 0);stroke-width:3.0;" d="M 762.345, 197.474 L 744.901, 190.224 L 739.53, 183.865 L 763.132, 178.751 z "/>
<path style="fill:rgb(81, 215, 237);fill-opacity:1.0;fill-rule:evenodd;stroke:rgb(0, 0, 0);stroke-width:3.0;" d="M 294.649, 300.633 L 293.32, 310.284 L 283.111, 314.619 L 284.597, 300.559 z "/>
<path style="fill:rgb(81, 215, 237);fill-opacity:1.0;fill-rule:evenodd;stroke:rgb(0, 0, 0);stroke-width:3.0;" d="M 789.875, 268.804 L 697.358, 266.257 L 699.079, 259.878 L 723.012, 253.498 L 785.612, 240.584 z "/>
<path style="fill:rgb(43, 255, 255);fill-opacity:1.0;fill-rule:evenodd;stroke:rgb(0, 0, 0);stroke-width:3.0;" d="M 493.936, 62.3174 L 488.441, 68.979 L 481.167, 73.1892 L 468.151, 71.4315 L 473.158, 67.1251 L 490.948, 57.7575 z "/>
<path style="fill:rgb(43, 255, 255);fill-opacity:1.0;fill-rule:evenodd;stroke:rgb(0, 0, 0);stroke-width:3.0;" d="M 421.666, 300.168 L 390.318, 310.199 L 365.899, 304.593 L 378.733, 274.442 z "/>
<path style="fill:rgb(255, 2, 243);fill-opacity:1.0;fill-rule:evenodd;stroke:rgb(0, 0, 0);stroke-width:3.0;" d="M 776.881, 182.773 L 780.972, 209.861 L 767.473, 214.562 L 766.176, 178.092 L 769.472, 177.378 z "/>
<path style="fill:rgb(220, 31, 7);fill-opacity:1.0;fill-rule:evenodd;stroke:rgb(0, 0, 0);stroke-width:3.0;" d="M 767.562, 217.057 L 761.808, 210.244 L 763.132, 178.751 L 766.176, 178.092 z "/>
<path style="fill:rgb(220, 31, 7);fill-opacity:1.0;fill-rule:evenodd;stroke:rgb(0, 0, 0);stroke-width:3.0;" d="M 334.561, 294.683 L 360.149, 312.156 L 358.652, 313.347 L 352.894, 310.718 L 334.483, 299.46 L 330.984, 295.287 L 330.938, 294.173 z "/>
<path style="fill:rgb(220, 31, 7);fill-opacity:1.0;fill-rule:evenodd;stroke:rgb(0, 0, 0);stroke-width:3.0;" d="M 782.985, 223.187 L 773.478, 224.062 L 767.562, 217.057 L 767.48, 214.762 L 781.441, 212.969 z "/>
<path style="fill:rgb(220, 31, 7);fill-opacity:1.0;fill-rule:evenodd;stroke:rgb(0, 0, 0);stroke-width:3.0;" d="M 321.463, 227.238 L 326.743, 243.368 L 307.638, 228.987 L 309.949, 226.681 z "/>
<path style="fill:rgb(234, 255, 9);fill-opacity:1.0;fill-rule:evenodd;stroke:rgb(0, 0, 0);stroke-width:3.0;" d="M 245.447, 321.688 L 290.523, 330.595 L 287.121, 355.298 L 207.457, 319.584 z "/>
<path style="fill:rgb(234, 255, 9);fill-opacity:1.0;fill-rule:evenodd;stroke:rgb(0, 0, 0);stroke-width:3.0;" d="M 176.418, 97.4333 L 192.988, 105.397 L 168.999, 112.297 L 132.932, 101.596 L 136.383, 89.9469 z "/>
<path style="fill:rgb(234, 255, 9);fill-opacity:1.0;fill-rule:evenodd;stroke:rgb(0, 0, 0);stroke-width:3.0;" d="M 75.4782, 58.7958 L 75.8424, 64.3297 L 73.5473, 69.4071 L 54.1618, 74.5715 L 46.9269, 73.2185 L 67.8986, 58.5411 L 68.622, 58.4884 z "/>
<path style="fill:rgb(234, 255, 9);fill-opacity:1.0;fill-rule:evenodd;stroke:rgb(0, 0, 0);stroke-width:3.0;" d="M 357.968, 297.974 L 330.938, 294.173 L 330.719, 288.804 L 345.293, 287.064 z "/>
<path style="fill:rgb(255, 18, 39);fill-opacity:1.0;fill-rule:evenodd;stroke:rgb(0, 0, 0);stroke-width:3.0;" d="M 47.2682, 530.145 L 47.7023, 538.907 L 22.3124, 539.044 L 12.1395, 519.219 z "/>
<path style="fill:rgb(255, 18, 39);fill-opacity:1.0;fill-rule:evenodd;stroke:rgb(0, 0, 0);stroke-width:3.0;" d="M 765.807, 62.4181 L 761.44, 61.1958 L 760.026, 51.7241 L 771.6, 45.2809 z "/>
<path style="fill:rgb(202, 75, 76);fill-opacity:1.0;fill-rule:evenodd;stroke:rgb(0, 0, 0);stroke-width:3.0;" d="M 332.963, 343.758 L 333.239, 350.508 L 306.225, 359.225 L 317.005, 334.921 z "/>
<path style="fill:rgb(255, 197, 7);fill-opacity:1.0;fill-rule:evenodd;stroke:rgb(0, 0, 0);stroke-width:3.0;" d="M 784.496, 237.108 L 755.143, 244.933 L 718.133, 197.998 L 722.177, 179.547 L 732.045, 175.002 z "/>
<path style="fill:rgb(255, 197, 7);fill-opacity:1.0;fill-rule:evenodd;stroke:rgb(0, 0, 0);stroke-width:3.0;" d="M 776.418, 114.666 L 767.887, 123.231 L 761.734, 82.4915 L 777.422, 64.3849 z "/>
<path style="fill:rgb(18, 182, 243);fill-opacity:1.0;fill-rule:evenodd;stroke:rgb(0, 0, 0);stroke-width:3.0;" d="M 186.443, 279.344 L 187.183, 284.029 L 184.447, 297.873 L 182.03, 296.18 L 174.869, 280.139 L 174.849, 278.645 z "/>
<path style="fill:rgb(18, 182, 243);fill-opacity:1.0;fill-rule:evenodd;stroke:rgb(0, 0, 0);stroke-width:3.0;" d="M 487.397, 231.969 L 483.189, 242.405 L 471.461, 230.559 L 483.32, 229.564 z "/>
<path style="fill:rgb(18, 182, 243);fill-opacity:1.0;fill-rule:evenodd;stroke:rgb(0, 0, 0);stroke-width:3.0;" d="M 454.413, 244.977 L 425.928, 235.297 L 426.568, 234.098 L 442.35, 230.98 z "/>
<path style="fill:rgb(255, 243, 27);fill-opacity:1.0;fill-rule:evenodd;stroke:rgb(0, 0, 0);stroke-width:3.0;" d="M 777.511, 59.9448 L 777.422, 64.3849 L 761.734, 82.4915 L 761.472, 80.7569 L 775.241, 52.6274 z "/>
<path style="fill:rgb(249, 255, 9);fill-opacity:1.0;fill-rule:evenodd;stroke:rgb(0, 0, 0);stroke-width:3.0;" d="M 464.501, 232.988 L 450.341, 240.252 L 442.504, 231.158 L 442.324, 230.211 z "/>
<path style="fill:rgb(255, 0, 249);fill-opacity:1.0;fill-rule:evenodd;stroke:rgb(0, 0, 0);stroke-width:3.0;" d="M 394.34, 330.532 L 387.191, 333.825 L 372.784, 324.772 L 371.006, 316.731 z "/>
<path style="fill:rgb(255, 0, 249);fill-opacity:1.0;fill-rule:evenodd;stroke:rgb(0, 0, 0);stroke-width:3.0;" d="M 745.535, 32.2768 L 741.368, 31.4144 L 742.367, 14.5323 L 749.274, 8.48095 z "/>
<path style="fill:rgb(255, 0, 249);fill-opacity:1.0;fill-rule:evenodd;stroke:rgb(0, 0, 0);stroke-width:3.0;" d="M 281.075, 63.3279 L 271.549, 72.1761 L 227.891, 47.1142 L 228.696, 34.779 z "/>
<path style="fill:rgb(255, 0, 249);fill-opacity:1.0;fill-rule:evenodd;stroke:rgb(0, 0, 0);stroke-width:3.0;" d="M 92.201, 239.083 L 86.2064, 259.317 L 41.4156, 254.274 L 41.7276, 234.489 z "/>
<path style="fill:rgb(255, 0, 249);fill-opacity:1.0;fill-rule:evenodd;stroke:rgb(0, 0, 0);stroke-width:3.0;" d="M 465.378, 232.538 L 464.501, 232.988 L 442.324, 230.211 L 440.427, 220.209 z "/>
<path style="fill:rgb(255, 179, 36);fill-opacity:1.0;fill-rule:evenodd;stroke:rgb(0, 0, 0);stroke-width:3.0;" d="M 484.587, 73.6509 L 454.59, 110.017 L 453.237, 106.32 L 482.384, 73.3534 z "/>
<path style="fill:rgb(142, 112, 255);fill-opacity:1.0;fill-rule:evenodd;stroke:rgb(0, 0, 0);stroke-width:3.0;" d="M 704.91, 258.323 L 699.079, 259.878 L 720.536, 180.303 L 722.177, 179.547 z "/>
<path style="fill:rgb(142, 112, 255);fill-opacity:1.0;fill-rule:evenodd;stroke:rgb(0, 0, 0);stroke-width:3.0;" d="M 482.384, 73.3534 L 453.237, 106.32 L 451.036, 100.302 L 470.038, 81.6784 L 482.345, 73.3482 z "/>
<path style="fill:rgb(255, 22, 82);fill-opacity:1.0;fill-rule:evenodd;stroke:rgb(0, 0, 0);stroke-width:3.0;" d="M 221.92, 38.6736 L 219.333, 41.1177 L 203.445, 37.8535 L 192.374, 17.3266 L 209.824, 6.10045 z "/>
<path style="fill:rgb(255, 228, 11);fill-opacity:1.0;fill-rule:evenodd;stroke:rgb(0, 0, 0);stroke-width:3.0;" d="M 410.857, 227.553 L 393.247, 237.616 L 386.029, 232.867 L 407.178, 211.128 z "/>
<path style="fill:rgb(255, 228, 11);fill-opacity:1.0;fill-rule:evenodd;stroke:rgb(0, 0, 0);stroke-width:3.0;" d="M 373.775, 286.09 L 367.03, 266.071 L 369.66, 260.444 L 388.541, 251.402 z "/>
<path style="fill:rgb(255, 228, 11);fill-opacity:1.0;fill-rule:evenodd;stroke:rgb(0, 0, 0);stroke-width:3.0;" d="M 325.91, 188.235 L 326.691, 190.204 L 327.402, 207.608 L 325.965, 207.465 L 315.35, 200.26 L 320.206, 184.765 z "/>
<path style="fill:rgb(255, 142, 209);fill-opacity:1.0;fill-rule:evenodd;stroke:rgb(0, 0, 0);stroke-width:3.0;" d="M 282.805, 288.827 L 276.965, 306.434 L 248.729, 321.87 L 237.403, 321.243 L 217.175, 312.516 L 259.246, 286.467 z "/>
<path style="fill:rgb(255, 142, 209);fill-opacity:1.0;fill-rule:evenodd;stroke:rgb(0, 0, 0);stroke-width:3.0;" d="M 319.883, 328.432 L 317.275, 334.312 L 304.061, 328.769 L 305.495, 317.565 L 306.244, 315.942 z "/>
<path style="fill:rgb(255, 148, 142);fill-opacity:1.0;fill-rule:evenodd;stroke:rgb(0, 0, 0);stroke-width:3.0;" d="M 561.24, 48.8388 L 528.365, 130.368 L 508.47, 160.56 L 503.031, 109.729 L 507.434, 75.1656 L 541.541, 25.675 z "/>
<path style="fill:rgb(45, 255, 255);fill-opacity:1.0;fill-rule:evenodd;stroke:rgb(0, 0, 0);stroke-width:3.0;" d="M 359.142, 346.743 L 333.566, 358.521 L 333.552, 358.165 L 352.072, 339.184 z "/>
<path style="fill:rgb(237, 0, 102);fill-opacity:1.0;fill-rule:evenodd;stroke:rgb(0, 0, 0);stroke-width:3.0;" d="M 772.867, 156.202 L 732.583, 174.754 L 731.462, 169.714 L 734.893, 154.207 L 767.776, 122.496 z "/>
<path style="fill:rgb(237, 0, 102);fill-opacity:1.0;fill-rule:evenodd;stroke:rgb(0, 0, 0);stroke-width:3.0;" d="M 782.13, 20.5117 L 780.852, 43.8107 L 773.81, 21.2088 L 780.212, 18.6763 z "/>
<path style="fill:rgb(249, 26, 71);fill-opacity:1.0;fill-rule:evenodd;stroke:rgb(0, 0, 0);stroke-width:3.0;" d="M 74.662, 35.1999 L 48.9494, 37.0929 L 70.8922, 9.32769 z "/>
<path style="fill:rgb(170, 255, 255);fill-opacity:1.0;fill-rule:evenodd;stroke:rgb(0, 0, 0);stroke-width:3.0;" d="M 446.741, 251.519 L 441.886, 269.622 L 431.617, 262.865 L 430.077, 244.298 z "/>
<path style="fill:rgb(202, 202, 255);fill-opacity:1.0;fill-rule:evenodd;stroke:rgb(0, 0, 0);stroke-width:3.0;" d="M 128.511, 116.52 L 106.651, 147.309 L 105.997, 137.6 L 130.706, 109.112 z "/>
<path style="fill:rgb(202, 202, 255);fill-opacity:1.0;fill-rule:evenodd;stroke:rgb(0, 0, 0);stroke-width:3.0;" d="M 357.73, 214.245 L 361.462, 216.701 L 355.079, 223.436 L 338.288, 204.029 z "/>
<path style="fill:rgb(36, 255, 255);fill-opacity:1.0;fill-rule:evenodd;stroke:rgb(0, 0, 0);stroke-width:3.0;" d="M 749.919, 33.1841 L 755.38, 40.4244 L 756.825, 49.992 L 740.822, 40.6372 L 741.368, 31.4144 z "/>
<path style="fill:rgb(255, 255, 66);fill-opacity:1.0;fill-rule:evenodd;stroke:rgb(0, 0, 0);stroke-width:3.0;" d="M 567.779, 32.6209 L 560.368, 39.013 L 554.212, 40.575 L 548.853, 34.2737 L 574.768, 15.2894 z "/>
<path style="fill:rgb(255, 255, 66);fill-opacity:1.0;fill-rule:evenodd;stroke:rgb(0, 0, 0);stroke-width:3.0;" d="M 726.02, 145.252 L 726.982, 177.334 L 709.303, 185.476 L 591.762, 156.634 L 580.185, 74.9071 L 705.684, 53.8277 z "/>
<path style="fill:rgb(255, 255, 66);fill-opacity:1.0;fill-rule:evenodd;stroke:rgb(0, 0, 0);stroke-width:3.0;" d="M 327.318, 270.228 L 324.265, 276.85 L 317.426, 277.091 L 306.297, 275.082 L 322.367, 267.824 z "/>
<path style="fill:rgb(255, 255, 66);fill-opacity:1.0;fill-rule:evenodd;stroke:rgb(0, 0, 0);stroke-width:3.0;" d="M 476.035, 181.91 L 486.579, 197.467 L 486.903, 198.353 L 471.022, 198.326 L 467.19, 190.365 L 472.141, 180.618 z "/>
<path style="fill:rgb(255, 255, 66);fill-opacity:1.0;fill-rule:evenodd;stroke:rgb(0, 0, 0);stroke-width:3.0;" d="M 755.143, 244.933 L 704.91, 258.323 L 718.133, 197.998 z "/>
<path style="fill:rgb(255, 255, 66);fill-opacity:1.0;fill-rule:evenodd;stroke:rgb(0, 0, 0);stroke-width:3.0;" d="M 507.848, 166.188 L 502.954, 169.607 L 500.698, 148.533 L 502.94, 134.464 z "/>
<path style="fill:rgb(58, 255, 255);fill-opacity:1.0;fill-rule:evenodd;stroke:rgb(0, 0, 0);stroke-width:3.0;" d="M 309.097, 288.86 L 295.681, 293.134 L 297.628, 278.997 L 300.525, 277.689 L 312.601, 277.262 z "/>
<path style="fill:rgb(58, 255, 255);fill-opacity:1.0;fill-rule:evenodd;stroke:rgb(0, 0, 0);stroke-width:3.0;" d="M 571.929, 64.0819 L 566.804, 130.457 L 530.264, 125.658 L 552.303, 71.001 L 559.241, 63.0212 z "/>
<path style="fill:rgb(237, 1, 24);fill-opacity:1.0;fill-rule:evenodd;stroke:rgb(0, 0, 0);stroke-width:3.0;" d="M 475.975, 168.479 L 458.23, 119.968 L 457.857, 106.057 L 486.382, 71.475 z "/>
<path style="fill:rgb(237, 1, 24);fill-opacity:1.0;fill-rule:evenodd;stroke:rgb(0, 0, 0);stroke-width:3.0;" d="M 106.898, 189.474 L 106.077, 192.245 L 60.1336, 203.782 L 54.9257, 196.484 L 68.9682, 180.294 z "/>
<path style="fill:rgb(237, 1, 24);fill-opacity:1.0;fill-rule:evenodd;stroke:rgb(0, 0, 0);stroke-width:3.0;" d="M 466.523, 85.1227 L 456.014, 95.4227 L 451.312, 85.9134 L 467.944, 71.6095 z "/>
<path style="fill:rgb(237, 1, 24);fill-opacity:1.0;fill-rule:evenodd;stroke:rgb(0, 0, 0);stroke-width:3.0;" d="M 356.89, 287.762 L 344.359, 272.561 L 369.66, 260.444 z "/>
<path style="fill:rgb(243, 85, 18);fill-opacity:1.0;fill-rule:evenodd;stroke:rgb(0, 0, 0);stroke-width:3.0;" d="M 308.994, 153.835 L 283.355, 174.112 L 126.978, 121.694 L 132.932, 101.596 z "/>
<path style="fill:rgb(243, 85, 18);fill-opacity:1.0;fill-rule:evenodd;stroke:rgb(0, 0, 0);stroke-width:3.0;" d="M 310.804, 183.313 L 297.069, 283.058 L 86.2064, 259.317 L 126.978, 121.694 z "/>
<path style="fill:rgb(255, 47, 98);fill-opacity:1.0;fill-rule:evenodd;stroke:rgb(0, 0, 0);stroke-width:3.0;" d="M 336.646, 193.842 L 328.156, 194.785 L 326.843, 193.921 L 325.679, 165.421 L 344.181, 163.915 z "/>
<path style="fill:rgb(72, 175, 217);fill-opacity:1.0;fill-rule:evenodd;stroke:rgb(0, 0, 0);stroke-width:3.0;" d="M 187.588, 67.2447 L 136.337, 89.9382 L 111.094, 85.2178 L 185.829, 33.1537 z "/>
<path style="fill:rgb(83, 255, 165);fill-opacity:1.0;fill-rule:evenodd;stroke:rgb(0, 0, 0);stroke-width:3.0;" d="M 503.039, 170.397 L 493.135, 187.417 L 499.506, 137.4 z "/>
<path style="fill:rgb(255, 19, 128);fill-opacity:1.0;fill-rule:evenodd;stroke:rgb(0, 0, 0);stroke-width:3.0;" d="M 47.5534, 38.8593 L 40.5143, 47.7662 L 14.5823, 45.0293 L 31.6337, 30.3555 z "/>
<path style="fill:rgb(8, 237, 117);fill-opacity:1.0;fill-rule:evenodd;stroke:rgb(0, 0, 0);stroke-width:3.0;" d="M 296.091, 290.158 L 294.649, 300.633 L 284.597, 300.559 L 285.806, 289.128 z "/>
<path style="fill:rgb(8, 237, 117);fill-opacity:1.0;fill-rule:evenodd;stroke:rgb(0, 0, 0);stroke-width:3.0;" d="M 754.403, 104.976 L 740.213, 130.161 L 747.499, 97.2314 z "/>
<path style="fill:rgb(255, 56, 7);fill-opacity:1.0;fill-rule:evenodd;stroke:rgb(0, 0, 0);stroke-width:3.0;" d="M 355.721, 207.511 L 338.959, 201.894 L 328.156, 194.785 L 364.756, 190.722 z "/>
<path style="fill:rgb(255, 56, 7);fill-opacity:1.0;fill-rule:evenodd;stroke:rgb(0, 0, 0);stroke-width:3.0;" d="M 490.492, 208.165 L 475.975, 168.479 L 486.382, 71.475 L 511.835, 40.6176 z "/>
<path style="fill:rgb(255, 255, 8);fill-opacity:1.0;fill-rule:evenodd;stroke:rgb(0, 0, 0);stroke-width:3.0;" d="M 412.867, 236.529 L 404.747, 245.184 L 393.247, 237.616 L 410.857, 227.553 z "/>
<path style="fill:rgb(67, 189, 234);fill-opacity:1.0;fill-rule:evenodd;stroke:rgb(0, 0, 0);stroke-width:3.0;" d="M 365.952, 343.606 L 359.142, 346.743 L 340.101, 326.385 L 335.657, 312.025 z "/>
<path style="fill:rgb(67, 189, 234);fill-opacity:1.0;fill-rule:evenodd;stroke:rgb(0, 0, 0);stroke-width:3.0;" d="M 366.543, 187.401 L 364.756, 190.722 L 336.646, 193.842 L 344.181, 163.915 L 345.584, 163.801 z "/>
<path style="fill:rgb(255, 62, 27);fill-opacity:1.0;fill-rule:evenodd;stroke:rgb(0, 0, 0);stroke-width:3.0;" d="M 516.687, 159.33 L 510.249, 161.387 L 509.98, 158.269 L 528.365, 130.368 z "/>
<path style="fill:rgb(252, 249, 15);fill-opacity:1.0;fill-rule:evenodd;stroke:rgb(0, 0, 0);stroke-width:3.0;" d="M 784.602, 120.676 L 787.151, 124.831 L 782.08, 131.417 L 771.717, 132.876 L 778.963, 115.863 z "/>
<path style="fill:rgb(252, 108, 128);fill-opacity:1.0;fill-rule:evenodd;stroke:rgb(0, 0, 0);stroke-width:3.0;" d="M 483.189, 242.405 L 473.31, 266.905 L 453.056, 243.402 L 473.39, 232.508 z "/>
<path style="fill:rgb(24, 95, 252);fill-opacity:1.0;fill-rule:evenodd;stroke:rgb(0, 0, 0);stroke-width:3.0;" d="M 455.817, 193.069 L 439.146, 198.518 L 438.211, 198.034 L 446.796, 171.081 z "/>
<path style="fill:rgb(8, 82, 255);fill-opacity:1.0;fill-rule:evenodd;stroke:rgb(0, 0, 0);stroke-width:3.0;" d="M 320.206, 184.765 L 315.35, 200.26 L 309.059, 195.989 L 310.521, 185.371 L 315.098, 181.656 z "/>
<path style="fill:rgb(8, 82, 255);fill-opacity:1.0;fill-rule:evenodd;stroke:rgb(0, 0, 0);stroke-width:3.0;" d="M 699.578, 26.3812 L 705.684, 53.8277 L 580.185, 74.9071 L 572.527, 20.8464 L 577.949, 7.40066 z "/>
<path style="fill:rgb(54, 255, 26);fill-opacity:1.0;fill-rule:evenodd;stroke:rgb(0, 0, 0);stroke-width:3.0;" d="M 453.913, 222.971 L 469.609, 226.684 L 470.858, 229.727 L 465.378, 232.538 L 445.658, 222.793 z "/>
<path style="fill:rgb(246, 16, 175);fill-opacity:1.0;fill-rule:evenodd;stroke:rgb(0, 0, 0);stroke-width:3.0;" d="M 703.064, 183.945 L 700.505, 189.528 L 697.958, 190.701 L 679.166, 186.711 L 679.71, 183.6 L 684.766, 179.455 z "/>
<path style="fill:rgb(12, 30, 255);fill-opacity:1.0;fill-rule:evenodd;stroke:rgb(0, 0, 0);stroke-width:3.0;" d="M 680.612, 178.436 L 679.166, 186.711 L 656.006, 181.793 L 665.08, 174.625 z "/>
<path style="fill:rgb(255, 31, 64);fill-opacity:1.0;fill-rule:evenodd;stroke:rgb(0, 0, 0);stroke-width:3.0;" d="M 760.181, 84.1149 L 720.593, 61.514 L 751.689, 51.1481 z "/>
<path style="fill:rgb(255, 31, 64);fill-opacity:1.0;fill-rule:evenodd;stroke:rgb(0, 0, 0);stroke-width:3.0;" d="M 371.034, 241.878 L 362.152, 264.04 L 334.134, 277.458 L 330.114, 273.998 L 328.852, 243.102 L 331.396, 219.235 L 344.957, 211.737 z "/>
<path style="fill:rgb(255, 31, 64);fill-opacity:1.0;fill-rule:evenodd;stroke:rgb(0, 0, 0);stroke-width:3.0;" d="M 41.7276, 234.489 L 41.4156, 254.274 L 8.06014, 250.519 L 23.4092, 232.822 z "/>
<path style="fill:rgb(255, 31, 64);fill-opacity:1.0;fill-rule:evenodd;stroke:rgb(0, 0, 0);stroke-width:3.0;" d="M 203.729, 102.54 L 201.773, 109.619 L 176.418, 97.4333 z "/>
<path style="fill:rgb(44, 82, 223);fill-opacity:1.0;fill-rule:evenodd;stroke:rgb(0, 0, 0);stroke-width:3.0;" d="M 226.202, 72.9707 L 224.023, 106.335 L 194.953, 100.899 L 220.449, 59.3648 z "/>
<path style="fill:rgb(215, 0, 46);fill-opacity:1.0;fill-rule:evenodd;stroke:rgb(0, 0, 0);stroke-width:3.0;" d="M 220.449, 59.3648 L 194.953, 100.899 L 189.269, 99.8365 L 187.778, 70.933 L 214.617, 45.5734 z "/>
<path style="fill:rgb(255, 54, 97);fill-opacity:1.0;fill-rule:evenodd;stroke:rgb(0, 0, 0);stroke-width:3.0;" d="M 181.893, 35.8957 L 153.516, 55.665 L 151.341, 53.3302 L 178.815, 33.4161 z "/>
<path style="fill:rgb(255, 54, 97);fill-opacity:1.0;fill-rule:evenodd;stroke:rgb(0, 0, 0);stroke-width:3.0;" d="M 722.298, 305.676 L 697.02, 301.318 L 715.468, 289.61 z "/>
<path style="fill:rgb(255, 54, 97);fill-opacity:1.0;fill-rule:evenodd;stroke:rgb(0, 0, 0);stroke-width:3.0;" d="M 422.465, 317.579 L 395.287, 330.096 L 388.024, 323.844 L 388.594, 314.884 L 394.765, 311.22 z "/>
<path style="fill:rgb(255, 54, 97);fill-opacity:1.0;fill-rule:evenodd;stroke:rgb(0, 0, 0);stroke-width:3.0;" d="M 479.639, 216.232 L 468.618, 224.268 L 466.699, 219.589 L 466.646, 217.886 L 474.866, 206.314 z "/>
<path style="fill:rgb(255, 54, 97);fill-opacity:1.0;fill-rule:evenodd;stroke:rgb(0, 0, 0);stroke-width:3.0;" d="M 153.366, 570.666 L 154.554, 574.577 L 95.1652, 570.416 L 90.9529, 563.791 z "/>
<path style="fill:rgb(255, 54, 97);fill-opacity:1.0;fill-rule:evenodd;stroke:rgb(0, 0, 0);stroke-width:3.0;" d="M 224.537, 120.559 L 222.556, 128.188 L 169.97, 112.585 L 201.059, 109.276 z "/>
<path style="fill:rgb(255, 54, 97);fill-opacity:1.0;fill-rule:evenodd;stroke:rgb(0, 0, 0);stroke-width:3.0;" d="M 106.223, 140.955 L 88.4182, 176.288 L 81.1863, 166.206 L 105.997, 137.6 z "/>
<path style="fill:rgb(255, 54, 97);fill-opacity:1.0;fill-rule:evenodd;stroke:rgb(0, 0, 0);stroke-width:3.0;" d="M 789.804, 90.4098 L 786.657, 97.7988 L 777.01, 85.019 L 777.175, 76.7411 z "/>
<path style="fill:rgb(128, 17, 240);fill-opacity:1.0;fill-rule:evenodd;stroke:rgb(0, 0, 0);stroke-width:3.0;" d="M 331.107, 298.314 L 325.964, 300.598 L 324.265, 299.996 L 323.091, 279.395 L 329.745, 264.962 z "/>
<path style="fill:rgb(255, 202, 30);fill-opacity:1.0;fill-rule:evenodd;stroke:rgb(0, 0, 0);stroke-width:3.0;" d="M 109.01, 182.344 L 106.651, 147.309 L 128.511, 116.52 z "/>
<path style="fill:rgb(240, 204, 110);fill-opacity:1.0;fill-rule:evenodd;stroke:rgb(0, 0, 0);stroke-width:3.0;" d="M 304.347, 363.461 L 299.689, 362.91 L 302.524, 340.772 L 316.974, 334.991 z "/>
<path style="fill:rgb(92, 240, 255);fill-opacity:1.0;fill-rule:evenodd;stroke:rgb(0, 0, 0);stroke-width:3.0;" d="M 317.726, 123.858 L 276.539, 144.205 L 269.218, 142.033 L 201.773, 109.619 L 203.729, 102.54 z "/>
<path style="fill:rgb(255, 226, 35);fill-opacity:1.0;fill-rule:evenodd;stroke:rgb(0, 0, 0);stroke-width:3.0;" d="M 767.318, 119.461 L 767.776, 122.496 L 734.893, 154.207 L 740.213, 130.161 L 754.403, 104.976 z "/>
<path style="fill:rgb(6, 255, 64);fill-opacity:1.0;fill-rule:evenodd;stroke:rgb(0, 0, 0);stroke-width:3.0;" d="M 499.676, 191.241 L 501.681, 196.544 L 493.752, 216.21 L 489.357, 217.072 L 493.035, 188.2 z "/>
<path style="fill:rgb(112, 255, 202);fill-opacity:1.0;fill-rule:evenodd;stroke:rgb(0, 0, 0);stroke-width:3.0;" d="M 178.198, 570.87 L 45.7631, 529.677 L 86.4058, 472.351 L 157.277, 439.711 z "/>
<path style="fill:rgb(31, 255, 255);fill-opacity:1.0;fill-rule:evenodd;stroke:rgb(0, 0, 0);stroke-width:3.0;" d="M 381.988, 254.54 L 362.152, 264.04 L 371.034, 241.878 z "/>
<path style="fill:rgb(31, 255, 255);fill-opacity:1.0;fill-rule:evenodd;stroke:rgb(0, 0, 0);stroke-width:3.0;" d="M 240.241, 54.2037 L 230.327, 73.8611 L 226.187, 73.1982 L 227.891, 47.1142 z "/>
<path style="fill:rgb(31, 255, 255);fill-opacity:1.0;fill-rule:evenodd;stroke:rgb(0, 0, 0);stroke-width:3.0;" d="M 376.455, 154.517 L 368.904, 160.242 L 348.759, 162.877 L 373.302, 150.858 z "/>
<path style="fill:rgb(31, 255, 255);fill-opacity:1.0;fill-rule:evenodd;stroke:rgb(0, 0, 0);stroke-width:3.0;" d="M 368.783, 153.071 L 348.759, 162.877 L 335.308, 164.637 L 325.679, 165.421 L 325.434, 159.421 L 353.433, 127.935 z "/>
<path style="fill:rgb(31, 255, 255);fill-opacity:1.0;fill-rule:evenodd;stroke:rgb(0, 0, 0);stroke-width:3.0;" d="M 724.092, 70.9772 L 711.858, 81.5846 L 704.647, 49.1668 z "/>
<path style="fill:rgb(252, 252, 72);fill-opacity:1.0;fill-rule:evenodd;stroke:rgb(0, 0, 0);stroke-width:3.0;" d="M 705.637, 266.485 L 715.468, 289.61 L 697.02, 301.318 L 696.943, 301.305 L 705.633, 266.484 z "/>
<path style="fill:rgb(252, 252, 72);fill-opacity:1.0;fill-rule:evenodd;stroke:rgb(0, 0, 0);stroke-width:3.0;" d="M 463.16, 192.673 L 463.818, 212.57 L 446.796, 171.081 L 447.77, 168.025 z "/>
<path style="fill:rgb(47, 165, 212);fill-opacity:1.0;fill-rule:evenodd;stroke:rgb(0, 0, 0);stroke-width:3.0;" d="M 314.633, 155.508 L 310.804, 183.313 L 283.355, 174.112 L 308.994, 153.835 z "/>
<path style="fill:rgb(255, 67, 8);fill-opacity:1.0;fill-rule:evenodd;stroke:rgb(0, 0, 0);stroke-width:3.0;" d="M 297.069, 283.058 L 296.091, 290.158 L 270.337, 287.578 L 263.509, 280.961 L 277.688, 280.876 z "/>
<path style="fill:rgb(21, 16, 231);fill-opacity:1.0;fill-rule:evenodd;stroke:rgb(0, 0, 0);stroke-width:3.0;" d="M 404.679, 245.139 L 397.354, 250.6 L 388.611, 251.238 L 394.155, 238.214 z "/>
<path style="fill:rgb(37, 240, 209);fill-opacity:1.0;fill-rule:evenodd;stroke:rgb(0, 0, 0);stroke-width:3.0;" d="M 354.152, 284.442 L 352.217, 293.024 L 334.134, 277.458 L 344.359, 272.561 z "/>
<path style="fill:rgb(246, 255, 11);fill-opacity:1.0;fill-rule:evenodd;stroke:rgb(0, 0, 0);stroke-width:3.0;" d="M 369.955, 341.763 L 365.952, 343.606 L 335.657, 312.025 L 331.061, 297.172 L 330.984, 295.287 z "/>
<path style="fill:rgb(255, 237, 30);fill-opacity:1.0;fill-rule:evenodd;stroke:rgb(0, 0, 0);stroke-width:3.0;" d="M 157.636, 48.7676 L 152.677, 52.3617 L 84.1491, 57.3567 L 83.649, 19.6944 z "/>
<path style="fill:rgb(13, 194, 255);fill-opacity:1.0;fill-rule:evenodd;stroke:rgb(0, 0, 0);stroke-width:3.0;" d="M 209.974, 49.9607 L 200.46, 58.9504 L 186.988, 41.1076 L 200.561, 32.5066 z "/>
<path style="fill:rgb(13, 194, 255);fill-opacity:1.0;fill-rule:evenodd;stroke:rgb(0, 0, 0);stroke-width:3.0;" d="M 660.383, 173.472 L 652.423, 181.033 L 640.893, 178.585 L 648.608, 170.583 z "/>
<path style="fill:rgb(237, 255, 9);fill-opacity:1.0;fill-rule:evenodd;stroke:rgb(0, 0, 0);stroke-width:3.0;" d="M 481.558, 183.743 L 460.667, 176.811 L 459.823, 175.059 L 472.436, 158.806 z "/>
<path style="fill:rgb(255, 108, 194);fill-opacity:1.0;fill-rule:evenodd;stroke:rgb(0, 0, 0);stroke-width:3.0;" d="M 472.436, 158.806 L 459.823, 175.059 L 456.661, 168.488 L 468.743, 148.71 z "/>
<path style="fill:rgb(11, 237, 249);fill-opacity:1.0;fill-rule:evenodd;stroke:rgb(0, 0, 0);stroke-width:3.0;" d="M 511.835, 40.6176 L 502.879, 51.4745 L 473.158, 67.1251 L 512.801, 33.0316 z "/>
<path style="fill:rgb(140, 24, 255);fill-opacity:1.0;fill-rule:evenodd;stroke:rgb(0, 0, 0);stroke-width:3.0;" d="M 454.413, 244.977 L 467.983, 260.723 L 437.298, 247.427 L 427.015, 235.666 z "/>
<path style="fill:rgb(255, 1, 7);fill-opacity:1.0;fill-rule:evenodd;stroke:rgb(0, 0, 0);stroke-width:3.0;" d="M 324.097, 86.7773 L 323.815, 88.8308 L 275.065, 81.0247 L 275.813, 68.216 L 281.075, 63.3279 z "/>
<path style="fill:rgb(184, 255, 252);fill-opacity:1.0;fill-rule:evenodd;stroke:rgb(0, 0, 0);stroke-width:3.0;" d="M 109.01, 182.344 L 106.898, 189.474 L 84.5046, 184.054 L 106.223, 140.955 z "/>
<path style="fill:rgb(252, 255, 100);fill-opacity:1.0;fill-rule:evenodd;stroke:rgb(0, 0, 0);stroke-width:3.0;" d="M 743.795, 267.535 L 733.516, 307.61 L 722.298, 305.676 L 717.375, 294.097 L 742.98, 267.513 z "/>
<path style="fill:rgb(69, 255, 240);fill-opacity:1.0;fill-rule:evenodd;stroke:rgb(0, 0, 0);stroke-width:3.0;" d="M 742.98, 267.513 L 717.375, 294.097 L 705.637, 266.485 z "/>
<path style="fill:rgb(11, 70, 215);fill-opacity:1.0;fill-rule:evenodd;stroke:rgb(0, 0, 0);stroke-width:3.0;" d="M 386.029, 232.867 L 367.529, 220.693 L 407.378, 210.922 z "/>
<path style="fill:rgb(45, 14, 255);fill-opacity:1.0;fill-rule:evenodd;stroke:rgb(0, 0, 0);stroke-width:3.0;" d="M 32.1055, 65.0048 L 26.141, 69.3316 L 12.197, 66.7241 L 9.43063, 62.8028 L 32.7303, 61.1045 z "/>
<path style="fill:rgb(255, 2, 13);fill-opacity:1.0;fill-rule:evenodd;stroke:rgb(0, 0, 0);stroke-width:3.0;" d="M 259.246, 286.467 L 228.193, 305.694 L 232.818, 294.227 L 249.987, 285.539 z "/>
<path style="fill:rgb(255, 240, 13);fill-opacity:1.0;fill-rule:evenodd;stroke:rgb(0, 0, 0);stroke-width:3.0;" d="M 780.167, 60.8827 L 791.244, 84.2223 L 777.199, 75.5573 L 777.531, 58.9034 z "/>
<path style="fill:rgb(69, 136, 226);fill-opacity:1.0;fill-rule:evenodd;stroke:rgb(0, 0, 0);stroke-width:3.0;" d="M 379.263, 163.762 L 371.905, 177.436 L 361.028, 176.692 L 357.411, 162.838 L 375.081, 161.399 z "/>
<path style="fill:rgb(69, 136, 226);fill-opacity:1.0;fill-rule:evenodd;stroke:rgb(0, 0, 0);stroke-width:3.0;" d="M 468.743, 148.71 L 464.681, 155.359 L 457.76, 155.223 L 456.363, 141.045 L 460.82, 127.051 z "/>
<path style="fill:rgb(69, 136, 226);fill-opacity:1.0;fill-rule:evenodd;stroke:rgb(0, 0, 0);stroke-width:3.0;" d="M 728.216, 87.8769 L 726.436, 99.3132 L 715.683, 98.7777 L 712.785, 85.7514 L 717.767, 83.6274 z "/>
<path style="fill:rgb(223, 234, 12);fill-opacity:1.0;fill-rule:evenodd;stroke:rgb(0, 0, 0);stroke-width:3.0;" d="M 189.269, 99.8365 L 140.428, 90.7033 L 162.059, 78.5485 L 187.588, 67.2447 z "/>
<path style="fill:rgb(223, 234, 12);fill-opacity:1.0;fill-rule:evenodd;stroke:rgb(0, 0, 0);stroke-width:3.0;" d="M 373.775, 286.09 L 365.834, 304.745 L 353.795, 294.382 L 367.03, 266.071 z "/>
<path style="fill:rgb(223, 234, 12);fill-opacity:1.0;fill-rule:evenodd;stroke:rgb(0, 0, 0);stroke-width:3.0;" d="M 474.866, 206.314 L 466.646, 217.886 L 465.698, 187.265 z "/>
<path style="fill:rgb(255, 228, 37);fill-opacity:1.0;fill-rule:evenodd;stroke:rgb(0, 0, 0);stroke-width:3.0;" d="M 271.549, 72.1761 L 263.941, 79.2436 L 230.327, 73.8611 L 240.241, 54.2037 z "/>
<path style="fill:rgb(255, 148, 15);fill-opacity:1.0;fill-rule:evenodd;stroke:rgb(0, 0, 0);stroke-width:3.0;" d="M 90.9529, 563.791 L 95.1652, 570.416 L 45.8353, 566.959 L 44.7051, 558.698 z "/>
<path style="fill:rgb(204, 11, 159);fill-opacity:1.0;fill-rule:evenodd;stroke:rgb(0, 0, 0);stroke-width:3.0;" d="M 544.903, 20.7962 L 507.434, 75.1656 L 515.124, 14.7998 L 531.137, 8.93014 z "/>
<path style="fill:rgb(255, 9, 9);fill-opacity:1.0;fill-rule:evenodd;stroke:rgb(0, 0, 0);stroke-width:3.0;" d="M 200.46, 58.9504 L 191.729, 67.1998 L 186.831, 52.5796 L 186.263, 41.567 L 186.988, 41.1076 z "/>
<path style="fill:rgb(157, 255, 255);fill-opacity:1.0;fill-rule:evenodd;stroke:rgb(0, 0, 0);stroke-width:3.0;" d="M 353.491, 127.869 L 341.223, 141.665 L 345.867, 119.023 z "/>
<path style="fill:rgb(157, 255, 255);fill-opacity:1.0;fill-rule:evenodd;stroke:rgb(0, 0, 0);stroke-width:3.0;" d="M 333.566, 358.521 L 324.748, 362.582 L 312.282, 357.271 L 333.239, 350.508 z "/>
<path style="fill:rgb(255, 237, 21);fill-opacity:1.0;fill-rule:evenodd;stroke:rgb(0, 0, 0);stroke-width:3.0;" d="M 345.024, 331.648 L 333.555, 348.577 L 333.126, 347.738 L 332.749, 338.505 L 335.181, 321.124 z "/>
<path style="fill:rgb(115, 255, 255);fill-opacity:1.0;fill-rule:evenodd;stroke:rgb(0, 0, 0);stroke-width:3.0;" d="M 285.806, 289.128 L 283.028, 315.409 L 273.17, 317.88 L 282.805, 288.827 z "/>
<path style="fill:rgb(16, 1, 255);fill-opacity:1.0;fill-rule:evenodd;stroke:rgb(0, 0, 0);stroke-width:3.0;" d="M 564.525, 158.547 L 551.625, 153.02 L 551.61, 153.004 L 538.806, 137.097 L 551.82, 133.72 z "/>
<path style="fill:rgb(252, 40, 15);fill-opacity:1.0;fill-rule:evenodd;stroke:rgb(0, 0, 0);stroke-width:3.0;" d="M 774.441, 268.379 L 776.554, 272.41 L 741.338, 302.911 L 735.066, 301.568 L 743.795, 267.535 z "/>
<path style="fill:rgb(237, 50, 255);fill-opacity:1.0;fill-rule:evenodd;stroke:rgb(0, 0, 0);stroke-width:3.0;" d="M 314.633, 155.508 L 297.291, 150.362 L 294.068, 143.932 L 316.299, 143.41 z "/>
<path style="fill:rgb(56, 107, 255);fill-opacity:1.0;fill-rule:evenodd;stroke:rgb(0, 0, 0);stroke-width:3.0;" d="M 345.867, 119.023 L 341.223, 141.665 L 325.434, 159.421 L 322.84, 95.9094 L 323.268, 92.7997 z "/>
<path style="fill:rgb(255, 102, 72);fill-opacity:1.0;fill-rule:evenodd;stroke:rgb(0, 0, 0);stroke-width:3.0;" d="M 467.983, 260.723 L 473.31, 266.905 L 471.961, 270.251 L 460.305, 279.766 L 458.417, 261.773 L 467.293, 260.424 z "/>
<path style="fill:rgb(255, 240, 91);fill-opacity:1.0;fill-rule:evenodd;stroke:rgb(0, 0, 0);stroke-width:3.0;" d="M 744.252, 111.904 L 731.462, 169.714 L 722.057, 127.432 L 724.78, 109.944 z "/>
<path style="fill:rgb(246, 16, 69);fill-opacity:1.0;fill-rule:evenodd;stroke:rgb(0, 0, 0);stroke-width:3.0;" d="M 747.499, 97.2314 L 744.252, 111.904 L 724.78, 109.944 L 729.843, 77.4285 z "/>
<path style="fill:rgb(252, 226, 11);fill-opacity:1.0;fill-rule:evenodd;stroke:rgb(0, 0, 0);stroke-width:3.0;" d="M 459.486, 174.359 L 455.889, 181.028 L 447.77, 168.025 L 451.222, 157.187 z "/>
</svg>