<?xml version="1.0" encoding="iso-8859-1" standalone="no"?>
<!DOCTYPE svg PUBLIC "-//W3C//DTD SVG 1.0//EN" "http://www.w3.org/TR/2001/REC-SVG-20010904/DTD/svg10.dtd">
<svg xmlns="http://www.w3.org/2000/svg" width="800" height="600">
<path style="fill:rgb(0, 0, 0);fill-opacity:0.0;fill-rule:evenodd;stroke:rgb(0, 0, 0);stroke-width:0.0;" d="M 0, 600 L 800, 600 L 800, 0 L 0, 0 z "/>
<path style="fill:rgb(23, 74, 255);fill-opacity:1.0;fill-rule:evenodd;stroke:rgb(0, 0, 0);stroke-width:3.0;" d="M 211.165, 439.876 L 205.457, 448.029 L 196.845, 436.045 L 197.931, 424.684 z "/>
<path style="fill:rgb(23, 74, 255);fill-opacity:1.0;fill-rule:evenodd;stroke:rgb(0, 0, 0);stroke-width:3.0;" d="M 110.598, 547.91 L 56.7918, 528.094 L 51.5776, 517.451 L 89.7238, 517.225 z "/>
<path style="fill:rgb(255, 55, 26);fill-opacity:1.0;fill-rule:evenodd;stroke:rgb(0, 0, 0);stroke-width:3.0;" d="M 76.7619, 556.074 L 97.0522, 572.066 L 96.9578, 572.248 L 96.4208, 572.507 L 77.0803, 567.55 L 74.9324, 555.777 z "/>
<path style="fill:rgb(255, 55, 26);fill-opacity:1.0;fill-rule:evenodd;stroke:rgb(0, 0, 0);stroke-width:3.0;" d="M 113.885, 130.651 L 98.7915, 136.821 L 89.3501, 122.866 L 89.8829, 117.032 z "/>
<path style="fill:rgb(255, 55, 26);fill-opacity:1.0;fill-rule:evenodd;stroke:rgb(0, 0, 0);stroke-width:3.0;" d="M 93.2021, 212.583 L 80.0226, 216.416 L 75.5801, 212.975 L 80.7251, 203.015 L 86.9443, 199.579 z "/>
<path style="fill:rgb(255, 14, 237);fill-opacity:1.0;fill-rule:evenodd;stroke:rgb(0, 0, 0);stroke-width:3.0;" d="M 246.072, 475.536 L 225.436, 467.397 L 237.705, 450.28 z "/>
<path style="fill:rgb(194, 234, 215);fill-opacity:1.0;fill-rule:evenodd;stroke:rgb(0, 0, 0);stroke-width:3.0;" d="M 532.739, 468.817 L 503.776, 523.396 L 500.54, 521.531 L 504.982, 429.727 z "/>
<path style="fill:rgb(194, 234, 215);fill-opacity:1.0;fill-rule:evenodd;stroke:rgb(0, 0, 0);stroke-width:3.0;" d="M 467.504, 139.106 L 460.596, 145.422 L 464.512, 69.4723 z "/>
<path style="fill:rgb(194, 234, 215);fill-opacity:1.0;fill-rule:evenodd;stroke:rgb(0, 0, 0);stroke-width:3.0;" d="M 238.093, 498.711 L 240.292, 507.288 L 231.602, 510.682 L 228.991, 494.116 z "/>
<path style="fill:rgb(194, 234, 215);fill-opacity:1.0;fill-rule:evenodd;stroke:rgb(0, 0, 0);stroke-width:3.0;" d="M 146.613, 530.07 L 146.517, 534.047 L 125.37, 537.785 L 123.257, 535.925 L 125.148, 530.629 L 140.75, 529.111 z "/>
<path style="fill:rgb(194, 234, 215);fill-opacity:1.0;fill-rule:evenodd;stroke:rgb(0, 0, 0);stroke-width:3.0;" d="M 209.566, 522.859 L 205.516, 545.496 L 161.773, 557.745 L 159.992, 516.809 L 199.187, 516.577 z "/>
<path style="fill:rgb(255, 3, 16);fill-opacity:1.0;fill-rule:evenodd;stroke:rgb(0, 0, 0);stroke-width:3.0;" d="M 246.3, 563.49 L 233.114, 573.038 L 202.231, 563.855 L 206.567, 539.622 L 219.473, 534.494 z "/>
<path style="fill:rgb(255, 3, 16);fill-opacity:1.0;fill-rule:evenodd;stroke:rgb(0, 0, 0);stroke-width:3.0;" d="M 122.499, 138.976 L 116.137, 156.865 L 86.5442, 153.593 L 87.6603, 141.371 L 122.695, 127.05 z "/>
<path style="fill:rgb(255, 150, 97);fill-opacity:1.0;fill-rule:evenodd;stroke:rgb(0, 0, 0);stroke-width:3.0;" d="M 580.413, 356.098 L 582.666, 364.67 L 583.069, 373.356 L 566.509, 341.103 z "/>
<path style="fill:rgb(255, 150, 97);fill-opacity:1.0;fill-rule:evenodd;stroke:rgb(0, 0, 0);stroke-width:3.0;" d="M 311.675, 482.343 L 259.811, 517.007 L 257.496, 510.02 L 320.522, 470.039 z "/>
<path style="fill:rgb(255, 150, 97);fill-opacity:1.0;fill-rule:evenodd;stroke:rgb(0, 0, 0);stroke-width:3.0;" d="M 469.822, 193.04 L 465.236, 237.242 L 456.447, 225.881 L 460.596, 145.422 L 467.504, 139.106 z "/>
<path style="fill:rgb(255, 150, 97);fill-opacity:1.0;fill-rule:evenodd;stroke:rgb(0, 0, 0);stroke-width:3.0;" d="M 504.982, 429.727 L 502.59, 479.173 L 489.747, 471.898 L 480.202, 394.83 z "/>
<path style="fill:rgb(255, 150, 97);fill-opacity:1.0;fill-rule:evenodd;stroke:rgb(0, 0, 0);stroke-width:3.0;" d="M 56.7096, 530.98 L 63.6456, 542.084 L 66.8479, 548.62 L 56.331, 553.055 L 55.0722, 552.917 L 56.5562, 530.946 z "/>
<path style="fill:rgb(40, 130, 255);fill-opacity:1.0;fill-rule:evenodd;stroke:rgb(0, 0, 0);stroke-width:3.0;" d="M 692.407, 476.886 L 677.646, 486.759 L 657.853, 490.207 L 664.768, 447.077 z "/>
<path style="fill:rgb(255, 107, 19);fill-opacity:1.0;fill-rule:evenodd;stroke:rgb(0, 0, 0);stroke-width:3.0;" d="M 32.1919, 16.6221 L 26.751, 33.1039 L 14.8517, 33.0432 L 6.49078, 9.7633 z "/>
<path style="fill:rgb(255, 226, 33);fill-opacity:1.0;fill-rule:evenodd;stroke:rgb(0, 0, 0);stroke-width:3.0;" d="M 483.116, 285.439 L 474.088, 292.318 L 473.144, 270.335 z "/>
<path style="fill:rgb(255, 226, 33);fill-opacity:1.0;fill-rule:evenodd;stroke:rgb(0, 0, 0);stroke-width:3.0;" d="M 97.4616, 34.0404 L 97.353, 35.2294 L 76.7681, 52.9046 L 76.9116, 28.5563 z "/>
<path style="fill:rgb(240, 95, 228);fill-opacity:1.0;fill-rule:evenodd;stroke:rgb(0, 0, 0);stroke-width:3.0;" d="M 147.759, 467.818 L 163.276, 484.793 L 151.073, 487.219 L 140.917, 478.184 L 144.65, 466.686 z "/>
<path style="fill:rgb(240, 95, 228);fill-opacity:1.0;fill-rule:evenodd;stroke:rgb(0, 0, 0);stroke-width:3.0;" d="M 134.203, 528.039 L 109.747, 524.038 L 101.922, 517.153 L 141.042, 516.921 z "/>
<path style="fill:rgb(179, 9, 197);fill-opacity:1.0;fill-rule:evenodd;stroke:rgb(0, 0, 0);stroke-width:3.0;" d="M 68.7737, 26.3845 L 73.4996, 55.7111 L 60.1276, 67.193 L 63.4569, 24.9657 z "/>
<path style="fill:rgb(179, 9, 197);fill-opacity:1.0;fill-rule:evenodd;stroke:rgb(0, 0, 0);stroke-width:3.0;" d="M 550.168, 309.276 L 483.411, 336.751 L 476.224, 320.783 L 544.699, 298.624 z "/>
<path style="fill:rgb(179, 9, 197);fill-opacity:1.0;fill-rule:evenodd;stroke:rgb(0, 0, 0);stroke-width:3.0;" d="M 156.938, 516.827 L 104.559, 517.137 L 108.388, 513.72 L 156.295, 506.228 z "/>
<path style="fill:rgb(255, 234, 49);fill-opacity:1.0;fill-rule:evenodd;stroke:rgb(0, 0, 0);stroke-width:3.0;" d="M 620.386, 446.035 L 619.162, 443.652 L 615.137, 434.175 L 619.094, 400.018 z "/>
<path style="fill:rgb(255, 234, 49);fill-opacity:1.0;fill-rule:evenodd;stroke:rgb(0, 0, 0);stroke-width:3.0;" d="M 149.699, 486.619 L 155.654, 495.686 L 156.295, 506.228 L 108.388, 513.72 L 142.789, 483.019 L 143.684, 482.977 z "/>
<path style="fill:rgb(252, 177, 83);fill-opacity:1.0;fill-rule:evenodd;stroke:rgb(0, 0, 0);stroke-width:3.0;" d="M 558.093, 206.883 L 484.67, 246.249 L 527.594, 196.648 z "/>
<path style="fill:rgb(252, 177, 83);fill-opacity:1.0;fill-rule:evenodd;stroke:rgb(0, 0, 0);stroke-width:3.0;" d="M 50.9614, 307.198 L 15.1325, 319.875 L 22.7577, 300.916 z "/>
<path style="fill:rgb(252, 177, 83);fill-opacity:1.0;fill-rule:evenodd;stroke:rgb(0, 0, 0);stroke-width:3.0;" d="M 589.193, 548.321 L 497.627, 535.525 L 497.572, 535.086 L 532.739, 468.817 z "/>
<path style="fill:rgb(252, 177, 83);fill-opacity:1.0;fill-rule:evenodd;stroke:rgb(0, 0, 0);stroke-width:3.0;" d="M 269.403, 432.41 L 246.738, 477.548 L 228.6, 422.798 z "/>
<path style="fill:rgb(252, 177, 83);fill-opacity:1.0;fill-rule:evenodd;stroke:rgb(0, 0, 0);stroke-width:3.0;" d="M 190.112, 418.313 L 185.651, 438.44 L 178.456, 430.622 L 184.004, 416.958 z "/>
<path style="fill:rgb(255, 252, 83);fill-opacity:1.0;fill-rule:evenodd;stroke:rgb(0, 0, 0);stroke-width:3.0;" d="M 247.174, 478.862 L 279.627, 576.819 L 252.99, 540.399 L 244.897, 478.443 z "/>
<path style="fill:rgb(255, 252, 83);fill-opacity:1.0;fill-rule:evenodd;stroke:rgb(0, 0, 0);stroke-width:3.0;" d="M 145.952, 557.39 L 145.605, 571.712 L 145.523, 571.855 L 138.341, 569.861 L 116.485, 556.565 L 112.194, 550.257 L 121.342, 550.016 z "/>
<path style="fill:rgb(255, 252, 83);fill-opacity:1.0;fill-rule:evenodd;stroke:rgb(0, 0, 0);stroke-width:3.0;" d="M 542.06, 293.485 L 530.596, 289.618 L 530.744, 271.445 z "/>
<path style="fill:rgb(255, 252, 83);fill-opacity:1.0;fill-rule:evenodd;stroke:rgb(0, 0, 0);stroke-width:3.0;" d="M 243.964, 543.598 L 211.422, 512.485 L 214.699, 494.171 z "/>
<path style="fill:rgb(58, 163, 72);fill-opacity:1.0;fill-rule:evenodd;stroke:rgb(0, 0, 0);stroke-width:3.0;" d="M 94.7602, 63.6221 L 80.3766, 49.8062 L 97.353, 35.2294 z "/>
<path style="fill:rgb(58, 163, 72);fill-opacity:1.0;fill-rule:evenodd;stroke:rgb(0, 0, 0);stroke-width:3.0;" d="M 247.895, 547.357 L 243.964, 543.598 L 214.699, 494.171 L 215.494, 489.728 z "/>
<path style="fill:rgb(255, 228, 75);fill-opacity:1.0;fill-rule:evenodd;stroke:rgb(0, 0, 0);stroke-width:3.0;" d="M 314.829, 334.788 L 249.575, 299.262 L 250.902, 291.844 L 284.618, 267.144 z "/>
<path style="fill:rgb(255, 228, 75);fill-opacity:1.0;fill-rule:evenodd;stroke:rgb(0, 0, 0);stroke-width:3.0;" d="M 94.4661, 179.46 L 91.116, 194.381 L 82.6934, 195.761 L 84.6051, 174.827 L 91.9008, 174.593 z "/>
<path style="fill:rgb(255, 228, 75);fill-opacity:1.0;fill-rule:evenodd;stroke:rgb(0, 0, 0);stroke-width:3.0;" d="M 294.156, 486.764 L 257.496, 510.02 L 256.167, 506.008 L 307.183, 449.765 z "/>
<path style="fill:rgb(255, 228, 75);fill-opacity:1.0;fill-rule:evenodd;stroke:rgb(0, 0, 0);stroke-width:3.0;" d="M 137.512, 61.6282 L 141.209, 86.3685 L 138.262, 94.6539 L 113.544, 86.9841 L 117.711, 65.558 L 133.496, 58.8449 z "/>
<path style="fill:rgb(255, 228, 75);fill-opacity:1.0;fill-rule:evenodd;stroke:rgb(0, 0, 0);stroke-width:3.0;" d="M 575.845, 212.84 L 539.936, 224.219 L 535.098, 219.212 L 558.093, 206.883 z "/>
<path style="fill:rgb(255, 228, 75);fill-opacity:1.0;fill-rule:evenodd;stroke:rgb(0, 0, 0);stroke-width:3.0;" d="M 154.321, 572.925 L 151.186, 579.566 L 145.737, 566.267 L 146.149, 549.217 z "/>
<path style="fill:rgb(65, 217, 220);fill-opacity:1.0;fill-rule:evenodd;stroke:rgb(0, 0, 0);stroke-width:3.0;" d="M 298.61, 583.8 L 278.833, 548.593 L 284.744, 537.414 L 317.531, 519.57 z "/>
<path style="fill:rgb(65, 217, 220);fill-opacity:1.0;fill-rule:evenodd;stroke:rgb(0, 0, 0);stroke-width:3.0;" d="M 72.2118, 273.576 L 71.3944, 275.378 L 61.1093, 279.35 L 57.5623, 258.808 z "/>
<path style="fill:rgb(65, 217, 220);fill-opacity:1.0;fill-rule:evenodd;stroke:rgb(0, 0, 0);stroke-width:3.0;" d="M 152.577, 54.4034 L 143.623, 79.5808 L 139.553, 61.0219 L 150.051, 51.5162 z "/>
<path style="fill:rgb(255, 112, 9);fill-opacity:1.0;fill-rule:evenodd;stroke:rgb(0, 0, 0);stroke-width:3.0;" d="M 138.619, 536.354 L 142.099, 551.059 L 125.824, 537.705 L 136.358, 535.843 z "/>
<path style="fill:rgb(255, 112, 9);fill-opacity:1.0;fill-rule:evenodd;stroke:rgb(0, 0, 0);stroke-width:3.0;" d="M 428.371, 589.017 L 295.366, 594.814 L 317.531, 519.57 L 381.747, 484.623 z "/>
<path style="fill:rgb(255, 112, 9);fill-opacity:1.0;fill-rule:evenodd;stroke:rgb(0, 0, 0);stroke-width:3.0;" d="M 225.348, 474.85 L 225.336, 492.271 L 215.892, 487.504 L 217.456, 478.766 L 222.454, 474.319 z "/>
<path style="fill:rgb(255, 112, 9);fill-opacity:1.0;fill-rule:evenodd;stroke:rgb(0, 0, 0);stroke-width:3.0;" d="M 31.9683, 362.292 L 23.0568, 381.937 L 15.1655, 364.425 L 23.9325, 359.643 z "/>
<path style="fill:rgb(255, 112, 9);fill-opacity:1.0;fill-rule:evenodd;stroke:rgb(0, 0, 0);stroke-width:3.0;" d="M 737.623, 71.6974 L 723.986, 96.4343 L 709.859, 80.4701 L 736.128, 67.3959 z "/>
<path style="fill:rgb(29, 204, 255);fill-opacity:1.0;fill-rule:evenodd;stroke:rgb(0, 0, 0);stroke-width:3.0;" d="M 550.933, 310.766 L 502.052, 378.168 L 483.411, 336.751 L 550.168, 309.276 z "/>
<path style="fill:rgb(29, 204, 255);fill-opacity:1.0;fill-rule:evenodd;stroke:rgb(0, 0, 0);stroke-width:3.0;" d="M 288.86, 436.994 L 250.291, 488.27 L 246.738, 477.548 L 269.403, 432.41 z "/>
<path style="fill:rgb(29, 204, 255);fill-opacity:1.0;fill-rule:evenodd;stroke:rgb(0, 0, 0);stroke-width:3.0;" d="M 85.6018, 493.398 L 47.0605, 508.231 L 37.1368, 487.975 L 69.6078, 486.452 z "/>
<path style="fill:rgb(38, 255, 255);fill-opacity:1.0;fill-rule:evenodd;stroke:rgb(0, 0, 0);stroke-width:3.0;" d="M 114.059, 508.66 L 104.559, 517.137 L 78.8832, 517.289 L 47.1778, 508.47 L 47.0605, 508.231 L 108.374, 484.634 L 121.276, 484.028 z "/>
<path style="fill:rgb(255, 27, 252);fill-opacity:1.0;fill-rule:evenodd;stroke:rgb(0, 0, 0);stroke-width:3.0;" d="M 314.829, 334.788 L 333.795, 377.255 L 288.86, 436.994 L 228.6, 422.798 L 227.866, 420.584 L 249.575, 299.262 z "/>
<path style="fill:rgb(202, 249, 220);fill-opacity:1.0;fill-rule:evenodd;stroke:rgb(0, 0, 0);stroke-width:3.0;" d="M 41.2624, 583.062 L 27.238, 576.144 L 26.2865, 575.31 L 21.1844, 568.557 L 44.8941, 561.677 z "/>
<path style="fill:rgb(202, 249, 220);fill-opacity:1.0;fill-rule:evenodd;stroke:rgb(0, 0, 0);stroke-width:3.0;" d="M 103.141, 560.354 L 97.0522, 572.066 L 78.5235, 557.462 L 84.0286, 557.253 z "/>
<path style="fill:rgb(246, 30, 86);fill-opacity:1.0;fill-rule:evenodd;stroke:rgb(0, 0, 0);stroke-width:3.0;" d="M 160.806, 535.525 L 161.68, 555.605 L 154.798, 558.064 L 151.412, 536.936 L 151.546, 534.488 z "/>
<path style="fill:rgb(163, 255, 17);fill-opacity:1.0;fill-rule:evenodd;stroke:rgb(0, 0, 0);stroke-width:3.0;" d="M 140.304, 555.698 L 109.646, 546.511 L 89.7238, 517.225 L 95.0266, 517.194 z "/>
<path style="fill:rgb(163, 255, 17);fill-opacity:1.0;fill-rule:evenodd;stroke:rgb(0, 0, 0);stroke-width:3.0;" d="M 77.7806, 261.299 L 72.6731, 272.559 L 66.4653, 253.821 L 77.4173, 251.464 z "/>
<path style="fill:rgb(255, 7, 30);fill-opacity:1.0;fill-rule:evenodd;stroke:rgb(0, 0, 0);stroke-width:3.0;" d="M 346.715, 406.183 L 256.167, 506.008 L 250.291, 488.27 L 333.795, 377.255 z "/>
<path style="fill:rgb(255, 7, 30);fill-opacity:1.0;fill-rule:evenodd;stroke:rgb(0, 0, 0);stroke-width:3.0;" d="M 96.6393, 219.726 L 88.6396, 237.361 L 77.818, 218.073 L 81.9074, 215.868 L 93.2021, 212.583 z "/>
<path style="fill:rgb(255, 7, 30);fill-opacity:1.0;fill-rule:evenodd;stroke:rgb(0, 0, 0);stroke-width:3.0;" d="M 112.923, 86.7916 L 93.2032, 80.6727 L 94.3516, 68.0962 L 106.746, 56.4508 z "/>
<path style="fill:rgb(255, 7, 30);fill-opacity:1.0;fill-rule:evenodd;stroke:rgb(0, 0, 0);stroke-width:3.0;" d="M 381.747, 484.623 L 280.161, 539.908 L 360.519, 437.092 z "/>
<path style="fill:rgb(243, 33, 51);fill-opacity:1.0;fill-rule:evenodd;stroke:rgb(0, 0, 0);stroke-width:3.0;" d="M 360.519, 437.092 L 280.161, 539.908 L 269.348, 545.792 L 268.309, 542.657 L 354.27, 423.101 z "/>
<path style="fill:rgb(252, 23, 192);fill-opacity:1.0;fill-rule:evenodd;stroke:rgb(0, 0, 0);stroke-width:3.0;" d="M 232.305, 476.129 L 238.093, 498.711 L 225.336, 492.271 L 225.348, 474.85 z "/>
<path style="fill:rgb(209, 26, 24);fill-opacity:1.0;fill-rule:evenodd;stroke:rgb(0, 0, 0);stroke-width:3.0;" d="M 527.594, 196.648 L 484.67, 246.249 L 472.392, 252.832 L 470.003, 197.246 L 497.481, 186.542 z "/>
<path style="fill:rgb(209, 26, 24);fill-opacity:1.0;fill-rule:evenodd;stroke:rgb(0, 0, 0);stroke-width:3.0;" d="M 116.613, 582.311 L 121.331, 591.296 L 82.7405, 581.059 L 82.3838, 580.331 z "/>
<path style="fill:rgb(255, 231, 9);fill-opacity:1.0;fill-rule:evenodd;stroke:rgb(0, 0, 0);stroke-width:3.0;" d="M 157.178, 78.8066 L 148.538, 84.5293 L 145.357, 74.7058 L 161.315, 29.8337 z "/>
<path style="fill:rgb(212, 237, 27);fill-opacity:1.0;fill-rule:evenodd;stroke:rgb(0, 0, 0);stroke-width:3.0;" d="M 122.944, 111.879 L 90.0178, 115.555 L 91.4858, 99.4792 L 123.15, 99.3414 z "/>
<path style="fill:rgb(255, 255, 14);fill-opacity:1.0;fill-rule:evenodd;stroke:rgb(0, 0, 0);stroke-width:3.0;" d="M 108.156, 179.305 L 95.9683, 179.045 L 93.5412, 177.705 L 85.7008, 162.829 L 85.766, 162.115 L 114.378, 161.811 z "/>
<path style="fill:rgb(94, 94, 226);fill-opacity:1.0;fill-rule:evenodd;stroke:rgb(0, 0, 0);stroke-width:3.0;" d="M 176.497, 435.447 L 169.686, 431.378 L 174.649, 418.179 L 186.521, 410.76 z "/>
<path style="fill:rgb(94, 94, 226);fill-opacity:1.0;fill-rule:evenodd;stroke:rgb(0, 0, 0);stroke-width:3.0;" d="M 63.4569, 24.9657 L 63.1382, 29.0077 L 52.9593, 33.2374 L 33.4415, 33.1379 L 38.8948, 23.9734 L 43.7444, 19.705 z "/>
<path style="fill:rgb(255, 97, 30);fill-opacity:1.0;fill-rule:evenodd;stroke:rgb(0, 0, 0);stroke-width:3.0;" d="M 284.618, 267.144 L 274.332, 274.679 L 257.052, 257.474 L 263.701, 220.311 z "/>
<path style="fill:rgb(255, 97, 30);fill-opacity:1.0;fill-rule:evenodd;stroke:rgb(0, 0, 0);stroke-width:3.0;" d="M 122.695, 127.05 L 113.885, 130.651 L 89.8829, 117.032 L 90.0178, 115.555 L 122.944, 111.879 z "/>
<path style="fill:rgb(255, 97, 30);fill-opacity:1.0;fill-rule:evenodd;stroke:rgb(0, 0, 0);stroke-width:3.0;" d="M 85.9554, 539.329 L 112.213, 561.827 L 103.219, 560.367 L 76.5766, 549.133 L 67.8865, 538.834 z "/>
<path style="fill:rgb(240, 157, 228);fill-opacity:1.0;fill-rule:evenodd;stroke:rgb(0, 0, 0);stroke-width:3.0;" d="M 30.1817, 66.7139 L 38.2185, 86.0053 L 26.9329, 95.6956 L 13.7708, 61.4336 z "/>
<path style="fill:rgb(255, 1, 54);fill-opacity:1.0;fill-rule:evenodd;stroke:rgb(0, 0, 0);stroke-width:3.0;" d="M 52.3708, 73.8534 L 38.2185, 86.0053 L 30.1817, 66.7139 z "/>
<path style="fill:rgb(18, 33, 243);fill-opacity:1.0;fill-rule:evenodd;stroke:rgb(0, 0, 0);stroke-width:3.0;" d="M 132.53, 492.175 L 116.176, 501.432 L 117.24, 497.801 L 128.928, 483.67 L 142.789, 483.019 z "/>
<path style="fill:rgb(140, 249, 255);fill-opacity:1.0;fill-rule:evenodd;stroke:rgb(0, 0, 0);stroke-width:3.0;" d="M 152.465, 96.6587 L 149.291, 103.656 L 126.315, 128.248 L 145.357, 74.7058 z "/>
<path style="fill:rgb(255, 209, 9);fill-opacity:1.0;fill-rule:evenodd;stroke:rgb(0, 0, 0);stroke-width:3.0;" d="M 247.895, 547.357 L 252.798, 556.077 L 256.215, 569.407 L 209.509, 523.176 L 211.422, 512.485 z "/>
<path style="fill:rgb(252, 144, 8);fill-opacity:1.0;fill-rule:evenodd;stroke:rgb(0, 0, 0);stroke-width:3.0;" d="M 480.202, 394.83 L 497.627, 535.525 L 490.198, 534.487 L 484.337, 530.819 L 478.383, 392.268 z "/>
<path style="fill:rgb(7, 71, 157);fill-opacity:1.0;fill-rule:evenodd;stroke:rgb(0, 0, 0);stroke-width:3.0;" d="M 502.052, 378.168 L 485.034, 401.635 L 478.383, 392.268 L 478.057, 384.66 L 498.64, 370.587 z "/>
<path style="fill:rgb(255, 163, 217);fill-opacity:1.0;fill-rule:evenodd;stroke:rgb(0, 0, 0);stroke-width:3.0;" d="M 498.64, 370.587 L 478.057, 384.66 L 475.215, 318.542 z "/>
<path style="fill:rgb(51, 249, 81);fill-opacity:1.0;fill-rule:evenodd;stroke:rgb(0, 0, 0);stroke-width:3.0;" d="M 42.9305, 236.884 L 29.0636, 244.361 L 27.2918, 238.826 L 49.0498, 226.911 z "/>
<path style="fill:rgb(255, 0, 54);fill-opacity:1.0;fill-rule:evenodd;stroke:rgb(0, 0, 0);stroke-width:3.0;" d="M 31.9683, 362.292 L 19.8956, 358.313 L 18.7322, 353.517 L 36.5704, 352.146 z "/>
<path style="fill:rgb(223, 255, 56);fill-opacity:1.0;fill-rule:evenodd;stroke:rgb(0, 0, 0);stroke-width:3.0;" d="M 61.3622, 280.815 L 63.4482, 292.895 L 58.1069, 304.67 L 50.9614, 307.198 L 22.7577, 300.916 L 36.0299, 267.916 z "/>
<path style="fill:rgb(255, 142, 10);fill-opacity:1.0;fill-rule:evenodd;stroke:rgb(0, 0, 0);stroke-width:3.0;" d="M 30.9425, 66.9588 L 29.2209, 66.4048 L 33.1816, 45.6863 L 43.81, 41.0982 z "/>
<path style="fill:rgb(51, 119, 202);fill-opacity:1.0;fill-rule:evenodd;stroke:rgb(0, 0, 0);stroke-width:3.0;" d="M 62.8008, 33.2875 L 60.1276, 67.193 L 52.4335, 73.7996 L 38.0974, 69.2609 L 30.9425, 66.9588 L 47.7346, 33.2108 z "/>
<path style="fill:rgb(16, 10, 255);fill-opacity:1.0;fill-rule:evenodd;stroke:rgb(0, 0, 0);stroke-width:3.0;" d="M 134.946, 44.4558 L 121.366, 46.7646 L 129.241, 6.27257 z "/>
<path style="fill:rgb(194, 1, 13);fill-opacity:1.0;fill-rule:evenodd;stroke:rgb(0, 0, 0);stroke-width:3.0;" d="M 274.745, 533.705 L 267.573, 540.436 L 259.811, 517.007 L 311.675, 482.343 z "/>
<path style="fill:rgb(243, 24, 252);fill-opacity:1.0;fill-rule:evenodd;stroke:rgb(0, 0, 0);stroke-width:3.0;" d="M 113.805, 576.963 L 116.613, 582.311 L 82.3838, 580.331 L 77.679, 570.728 L 79.5024, 568.171 z "/>
<path style="fill:rgb(243, 24, 252);fill-opacity:1.0;fill-rule:evenodd;stroke:rgb(0, 0, 0);stroke-width:3.0;" d="M 178.017, 503.761 L 178.879, 512.551 L 161.6, 504.739 L 161.163, 504.075 L 162.913, 494.618 z "/>
<path style="fill:rgb(199, 24, 107);fill-opacity:1.0;fill-rule:evenodd;stroke:rgb(0, 0, 0);stroke-width:3.0;" d="M 530.744, 271.445 L 530.596, 289.618 L 493.885, 277.235 L 522.516, 255.42 z "/>
<path style="fill:rgb(199, 24, 107);fill-opacity:1.0;fill-rule:evenodd;stroke:rgb(0, 0, 0);stroke-width:3.0;" d="M 162.743, 580.042 L 160.33, 589.638 L 159.768, 589.073 L 154.798, 558.064 L 161.68, 555.605 z "/>
<path style="fill:rgb(142, 97, 240);fill-opacity:1.0;fill-rule:evenodd;stroke:rgb(0, 0, 0);stroke-width:3.0;" d="M 26.9329, 95.6956 L 14.2484, 106.587 L 20.7137, 79.5064 z "/>
<path style="fill:rgb(255, 255, 51);fill-opacity:1.0;fill-rule:evenodd;stroke:rgb(0, 0, 0);stroke-width:3.0;" d="M 455.224, 521.498 L 441.322, 519.23 L 441.792, 510.109 L 461.338, 452.717 L 471.543, 443.355 z "/>
<path style="fill:rgb(255, 95, 92);fill-opacity:1.0;fill-rule:evenodd;stroke:rgb(0, 0, 0);stroke-width:3.0;" d="M 274.332, 274.679 L 250.902, 291.844 L 257.052, 257.474 z "/>
<path style="fill:rgb(165, 255, 255);fill-opacity:1.0;fill-rule:evenodd;stroke:rgb(0, 0, 0);stroke-width:3.0;" d="M 497.481, 186.542 L 470.003, 197.246 L 469.681, 189.747 L 493.682, 185.267 z "/>
<path style="fill:rgb(165, 255, 255);fill-opacity:1.0;fill-rule:evenodd;stroke:rgb(0, 0, 0);stroke-width:3.0;" d="M 204.339, 552.073 L 161.905, 560.785 L 161.773, 557.745 L 205.516, 545.496 z "/>
<path style="fill:rgb(150, 237, 255);fill-opacity:1.0;fill-rule:evenodd;stroke:rgb(0, 0, 0);stroke-width:3.0;" d="M 88.6302, 237.382 L 82.7644, 250.313 L 69.1022, 253.253 L 57.5922, 254.141 L 72.2542, 226.348 z "/>
<path style="fill:rgb(231, 234, 19);fill-opacity:1.0;fill-rule:evenodd;stroke:rgb(0, 0, 0);stroke-width:3.0;" d="M 88.6396, 237.361 L 88.6302, 237.382 L 72.2542, 226.348 L 76.1433, 218.976 L 77.818, 218.073 z "/>
<path style="fill:rgb(255, 255, 89);fill-opacity:1.0;fill-rule:evenodd;stroke:rgb(0, 0, 0);stroke-width:3.0;" d="M 99.192, 15.0915 L 93.2462, 32.9154 L 79.8214, 29.3328 L 99.1939, 15.0703 z "/>
<path style="fill:rgb(138, 65, 204);fill-opacity:1.0;fill-rule:evenodd;stroke:rgb(0, 0, 0);stroke-width:3.0;" d="M 145.987, 555.926 L 145.952, 557.39 L 140.304, 555.698 L 111.698, 531.371 L 117.773, 531.1 z "/>
<path style="fill:rgb(150, 237, 255);fill-opacity:1.0;fill-rule:evenodd;stroke:rgb(0, 0, 0);stroke-width:3.0;" d="M 123.224, 94.8337 L 123.15, 99.3414 L 91.4858, 99.4792 L 92.8427, 84.6199 z "/>
<path style="fill:rgb(255, 2, 10);fill-opacity:1.0;fill-rule:evenodd;stroke:rgb(0, 0, 0);stroke-width:3.0;" d="M 123.303, 90.0122 L 123.224, 94.8337 L 92.8427, 84.6199 L 93.2032, 80.6727 z "/>
<path style="fill:rgb(255, 255, 11);fill-opacity:1.0;fill-rule:evenodd;stroke:rgb(0, 0, 0);stroke-width:3.0;" d="M 244.897, 478.443 L 252.99, 540.399 L 246.508, 531.536 L 240.713, 508.93 L 241.306, 477.783 z "/>
<path style="fill:rgb(255, 39, 150);fill-opacity:1.0;fill-rule:evenodd;stroke:rgb(0, 0, 0);stroke-width:3.0;" d="M 46.0493, 258.216 L 9.64293, 266.052 L 10.9494, 257.738 L 41.9454, 255.348 z "/>
<path style="fill:rgb(234, 255, 37);fill-opacity:1.0;fill-rule:evenodd;stroke:rgb(0, 0, 0);stroke-width:3.0;" d="M 228.991, 494.116 L 231.532, 510.237 L 226.304, 508.954 L 215.494, 489.728 L 215.892, 487.504 z "/>
<path style="fill:rgb(234, 9, 9);fill-opacity:1.0;fill-rule:evenodd;stroke:rgb(0, 0, 0);stroke-width:3.0;" d="M 484.001, 522.987 L 484.14, 526.217 L 455.224, 521.498 L 457.147, 512.289 z "/>
<path style="fill:rgb(237, 37, 79);fill-opacity:1.0;fill-rule:evenodd;stroke:rgb(0, 0, 0);stroke-width:3.0;" d="M 165.979, 38.288 L 160.88, 34.9815 L 161.315, 29.8337 L 162.188, 27.3788 L 175.04, 21.9309 z "/>
<path style="fill:rgb(237, 37, 79);fill-opacity:1.0;fill-rule:evenodd;stroke:rgb(0, 0, 0);stroke-width:3.0;" d="M 484.001, 522.987 L 457.147, 512.289 L 471.543, 443.355 L 480.236, 435.38 z "/>
<path style="fill:rgb(255, 61, 114);fill-opacity:1.0;fill-rule:evenodd;stroke:rgb(0, 0, 0);stroke-width:3.0;" d="M 472.103, 246.119 L 480.236, 435.38 L 443.927, 468.69 L 456.447, 225.881 z "/>
<path style="fill:rgb(61, 89, 255);fill-opacity:1.0;fill-rule:evenodd;stroke:rgb(0, 0, 0);stroke-width:3.0;" d="M 472.103, 246.119 L 465.236, 237.242 L 469.822, 193.04 z "/>
<path style="fill:rgb(255, 112, 28);fill-opacity:1.0;fill-rule:evenodd;stroke:rgb(0, 0, 0);stroke-width:3.0;" d="M 59.8222, 242.6 L 25.6843, 250.123 L 41.8311, 241.238 L 57.6263, 238.669 z "/>
<path style="fill:rgb(255, 112, 28);fill-opacity:1.0;fill-rule:evenodd;stroke:rgb(0, 0, 0);stroke-width:3.0;" d="M 628.408, 173.727 L 598.823, 125.446 L 611.856, 123.804 z "/>
<path style="fill:rgb(255, 112, 28);fill-opacity:1.0;fill-rule:evenodd;stroke:rgb(0, 0, 0);stroke-width:3.0;" d="M 133.137, 109.064 L 129.863, 118.271 L 122.752, 123.551 L 123.151, 99.2736 L 123.866, 97.8335 z "/>
<path style="fill:rgb(252, 89, 8);fill-opacity:1.0;fill-rule:evenodd;stroke:rgb(0, 0, 0);stroke-width:3.0;" d="M 36.5704, 352.146 L 6.93901, 354.423 L 47.7343, 327.536 z "/>
<path style="fill:rgb(255, 58, 170);fill-opacity:1.0;fill-rule:evenodd;stroke:rgb(0, 0, 0);stroke-width:3.0;" d="M 493.682, 185.267 L 469.681, 189.747 L 469.134, 177.029 z "/>
<path style="fill:rgb(255, 7, 41);fill-opacity:1.0;fill-rule:evenodd;stroke:rgb(0, 0, 0);stroke-width:3.0;" d="M 354.27, 423.101 L 320.522, 470.039 L 294.156, 486.764 L 307.183, 449.765 L 346.715, 406.183 z "/>
<path style="fill:rgb(255, 8, 255);fill-opacity:1.0;fill-rule:evenodd;stroke:rgb(0, 0, 0);stroke-width:3.0;" d="M 602.613, 380.041 L 602.691, 380.125 L 600.085, 406.497 L 583.069, 373.356 L 582.949, 370.773 z "/>
<path style="fill:rgb(23, 27, 255);fill-opacity:1.0;fill-rule:evenodd;stroke:rgb(0, 0, 0);stroke-width:3.0;" d="M 602.613, 380.041 L 582.949, 370.773 L 582.365, 358.204 z "/>
<path style="fill:rgb(194, 202, 13);fill-opacity:1.0;fill-rule:evenodd;stroke:rgb(0, 0, 0);stroke-width:3.0;" d="M 35.5783, 33.1488 L 29.2209, 66.4048 L 29.0481, 66.3492 L 18.7562, 50.5926 L 20.2684, 46.0359 L 26.4912, 33.1025 z "/>
<path style="fill:rgb(54, 60, 217);fill-opacity:1.0;fill-rule:evenodd;stroke:rgb(0, 0, 0);stroke-width:3.0;" d="M 230.348, 428.075 L 237.705, 450.28 L 237.078, 451.155 L 224.678, 438.402 L 226.995, 425.454 z "/>
<path style="fill:rgb(46, 39, 255);fill-opacity:1.0;fill-rule:evenodd;stroke:rgb(0, 0, 0);stroke-width:3.0;" d="M 139.236, 570.109 L 144.193, 574.186 L 137.021, 586.753 L 132.272, 579.772 L 129.795, 567.488 z "/>
<path style="fill:rgb(177, 86, 86);fill-opacity:1.0;fill-rule:evenodd;stroke:rgb(0, 0, 0);stroke-width:3.0;" d="M 133.496, 58.8449 L 117.711, 65.558 L 120.736, 50.0011 z "/>
<path style="fill:rgb(177, 86, 86);fill-opacity:1.0;fill-rule:evenodd;stroke:rgb(0, 0, 0);stroke-width:3.0;" d="M 202.614, 561.714 L 190.389, 583.205 L 162.854, 582.587 L 161.905, 560.785 L 204.339, 552.073 z "/>
<path style="fill:rgb(58, 255, 97);fill-opacity:1.0;fill-rule:evenodd;stroke:rgb(0, 0, 0);stroke-width:3.0;" d="M 664.768, 447.077 L 657.853, 490.207 L 644.279, 492.571 L 620.386, 446.035 L 620.206, 439.643 L 648.541, 429.576 z "/>
<path style="fill:rgb(60, 189, 207);fill-opacity:1.0;fill-rule:evenodd;stroke:rgb(0, 0, 0);stroke-width:3.0;" d="M 48.3802, 254.851 L 11.9928, 257.657 L 25.6843, 250.123 L 39.7424, 247.025 z "/>
<path style="fill:rgb(9, 255, 24);fill-opacity:1.0;fill-rule:evenodd;stroke:rgb(0, 0, 0);stroke-width:3.0;" d="M 60.5923, 243.978 L 50.9139, 254.656 L 48.3802, 254.851 L 39.7424, 247.025 L 59.8222, 242.6 z "/>
<path style="fill:rgb(255, 255, 102);fill-opacity:1.0;fill-rule:evenodd;stroke:rgb(0, 0, 0);stroke-width:3.0;" d="M 624.376, 122.226 L 598.823, 125.446 L 593.669, 117.035 z "/>
<path style="fill:rgb(10, 255, 255);fill-opacity:1.0;fill-rule:evenodd;stroke:rgb(0, 0, 0);stroke-width:3.0;" d="M 23.4795, 291.194 L 12.7919, 296.823 L 10.9483, 296.802 L 15.5624, 272.268 z "/>
<path style="fill:rgb(255, 48, 255);fill-opacity:1.0;fill-rule:evenodd;stroke:rgb(0, 0, 0);stroke-width:3.0;" d="M 502.59, 479.173 L 500.54, 521.531 L 495.536, 518.645 L 489.747, 471.898 z "/>
<path style="fill:rgb(249, 64, 29);fill-opacity:1.0;fill-rule:evenodd;stroke:rgb(0, 0, 0);stroke-width:3.0;" d="M 244.063, 521.998 L 252.798, 556.077 L 233.287, 521.375 L 231.602, 510.682 L 233.035, 510.122 z "/>
<path style="fill:rgb(255, 223, 51);fill-opacity:1.0;fill-rule:evenodd;stroke:rgb(0, 0, 0);stroke-width:3.0;" d="M 619.03, 397.748 L 619.094, 400.018 L 615.137, 434.175 L 600.708, 400.197 L 602.691, 380.125 z "/>
<path style="fill:rgb(255, 223, 51);fill-opacity:1.0;fill-rule:evenodd;stroke:rgb(0, 0, 0);stroke-width:3.0;" d="M 120.169, 52.9213 L 113.544, 86.9841 L 112.923, 86.7916 L 106.746, 56.4508 L 113.893, 49.7346 z "/>
<path style="fill:rgb(255, 255, 12);fill-opacity:1.0;fill-rule:evenodd;stroke:rgb(0, 0, 0);stroke-width:3.0;" d="M 743.074, 87.3768 L 726.886, 99.7108 L 723.986, 96.4343 L 730.093, 85.3572 L 740.733, 80.644 z "/>
<path style="fill:rgb(240, 255, 17);fill-opacity:1.0;fill-rule:evenodd;stroke:rgb(0, 0, 0);stroke-width:3.0;" d="M 117.814, 173.045 L 109.108, 176.631 L 126.315, 128.248 L 149.291, 103.656 z "/>
<path style="fill:rgb(255, 123, 102);fill-opacity:1.0;fill-rule:evenodd;stroke:rgb(0, 0, 0);stroke-width:3.0;" d="M 483.116, 285.439 L 473.144, 270.335 L 472.392, 252.832 L 492.889, 241.843 L 568.497, 216.38 L 577.146, 213.798 z "/>
<path style="fill:rgb(255, 123, 102);fill-opacity:1.0;fill-rule:evenodd;stroke:rgb(0, 0, 0);stroke-width:3.0;" d="M 52.192, 518.705 L 44.8941, 561.677 L 29.9139, 566.024 L 16.9742, 511.99 L 42.9223, 499.784 z "/>
<path style="fill:rgb(255, 231, 26);fill-opacity:1.0;fill-rule:evenodd;stroke:rgb(0, 0, 0);stroke-width:3.0;" d="M 42.9223, 499.784 L 16.9742, 511.99 L 12.7923, 494.528 L 24.7045, 488.558 L 37.1368, 487.975 z "/>
<path style="fill:rgb(255, 44, 21);fill-opacity:1.0;fill-rule:evenodd;stroke:rgb(0, 0, 0);stroke-width:3.0;" d="M 51.8818, 555.746 L 61.244, 573.593 L 51.6581, 572.369 L 45.7019, 556.921 L 45.9595, 555.404 z "/>
<path style="fill:rgb(249, 21, 189);fill-opacity:1.0;fill-rule:evenodd;stroke:rgb(0, 0, 0);stroke-width:3.0;" d="M 542.06, 293.485 L 544.699, 298.624 L 476.224, 320.783 L 475.215, 318.542 L 474.088, 292.318 L 493.885, 277.235 z "/>
<path style="fill:rgb(22, 177, 255);fill-opacity:1.0;fill-rule:evenodd;stroke:rgb(0, 0, 0);stroke-width:3.0;" d="M 684.086, 132.32 L 628.832, 174.419 L 628.408, 173.727 L 611.856, 123.804 L 624.376, 122.226 z "/>
<path style="fill:rgb(10, 1, 237);fill-opacity:1.0;fill-rule:evenodd;stroke:rgb(0, 0, 0);stroke-width:3.0;" d="M 640.203, 420.584 L 648.541, 429.576 L 620.206, 439.643 L 619.843, 426.705 L 622.92, 408.834 z "/>
<path style="fill:rgb(123, 134, 255);fill-opacity:1.0;fill-rule:evenodd;stroke:rgb(0, 0, 0);stroke-width:3.0;" d="M 290.904, 570.081 L 289.134, 570.021 L 275.288, 563.723 L 269.348, 545.792 L 275.408, 542.495 z "/>
<path style="fill:rgb(255, 194, 10);fill-opacity:1.0;fill-rule:evenodd;stroke:rgb(0, 0, 0);stroke-width:3.0;" d="M 539.936, 224.219 L 505.273, 235.203 L 535.098, 219.212 z "/>
</svg>