<?xml version="1.0" encoding="iso-8859-1" standalone="no"?>
<!DOCTYPE svg PUBLIC "-//W3C//DTD SVG 1.0//EN" "http://www.w3.org/TR/2001/REC-SVG-20010904/DTD/svg10.dtd">
<svg xmlns="http://www.w3.org/2000/svg" width="800" height="600">
<path style="fill:rgb(0, 0, 0);fill-opacity:0.0;fill-rule:evenodd;stroke:rgb(0, 0, 0);stroke-width:0.0;" d="M 0, 600 L 800, 600 L 800, 0 L 0, 0 z "/>
<path style="fill:rgb(255, 74, 115);fill-opacity:1.0;fill-rule:evenodd;stroke:rgb(0, 0, 0);stroke-width:3.0;" d="M 790.831, 460.758 L 763.377, 466.282 L 762.525, 465.425 L 763.955, 459.177 L 793.399, 438.202 z "/>
<path style="fill:rgb(255, 74, 115);fill-opacity:1.0;fill-rule:evenodd;stroke:rgb(0, 0, 0);stroke-width:3.0;" d="M 555.316, 408.044 L 555.987, 374.082 L 563.177, 370.547 z "/>
<path style="fill:rgb(255, 74, 115);fill-opacity:1.0;fill-rule:evenodd;stroke:rgb(0, 0, 0);stroke-width:3.0;" d="M 198.375, 161.497 L 307.605, 286.157 L 229.238, 529.702 L 102.66, 566.434 L 192.731, 160.507 z "/>
<path style="fill:rgb(255, 102, 132);fill-opacity:1.0;fill-rule:evenodd;stroke:rgb(0, 0, 0);stroke-width:3.0;" d="M 154.931, 324.612 L 136.301, 339.87 L 130.398, 339.896 L 124.897, 320.771 L 135.972, 314.116 z "/>
<path style="fill:rgb(255, 102, 132);fill-opacity:1.0;fill-rule:evenodd;stroke:rgb(0, 0, 0);stroke-width:3.0;" d="M 74.4242, 266.054 L 38.4031, 285.004 L 51.6693, 259.689 L 80.3233, 248.182 z "/>
<path style="fill:rgb(255, 102, 132);fill-opacity:1.0;fill-rule:evenodd;stroke:rgb(0, 0, 0);stroke-width:3.0;" d="M 331.111, 184.777 L 148.266, 152.709 L 332.943, 143.358 z "/>
<path style="fill:rgb(14, 194, 223);fill-opacity:1.0;fill-rule:evenodd;stroke:rgb(0, 0, 0);stroke-width:3.0;" d="M 309.994, 438.804 L 238.899, 499.678 L 265.414, 417.275 L 293.476, 386.292 z "/>
<path style="fill:rgb(14, 194, 223);fill-opacity:1.0;fill-rule:evenodd;stroke:rgb(0, 0, 0);stroke-width:3.0;" d="M 640.815, 32.3519 L 616.509, 94.1417 L 553.773, 25.3053 z "/>
<path style="fill:rgb(231, 16, 102);fill-opacity:1.0;fill-rule:evenodd;stroke:rgb(0, 0, 0);stroke-width:3.0;" d="M 217.49, 95.648 L 222.262, 104.33 L 203.837, 123 L 212.106, 95.3566 z "/>
<path style="fill:rgb(231, 16, 102);fill-opacity:1.0;fill-rule:evenodd;stroke:rgb(0, 0, 0);stroke-width:3.0;" d="M 704.348, 157.694 L 679.518, 187.383 L 638.2, 203.7 L 625.518, 152.196 z "/>
<path style="fill:rgb(255, 13, 42);fill-opacity:1.0;fill-rule:evenodd;stroke:rgb(0, 0, 0);stroke-width:3.0;" d="M 703.033, 217.563 L 707.904, 250.861 L 671.667, 244.505 L 680.583, 215.399 L 699.315, 210.258 z "/>
<path style="fill:rgb(255, 13, 42);fill-opacity:1.0;fill-rule:evenodd;stroke:rgb(0, 0, 0);stroke-width:3.0;" d="M 21.6655, 272.083 L 27.138, 291.401 L 18.4679, 293.145 L 9.05856, 271.987 z "/>
<path style="fill:rgb(255, 13, 42);fill-opacity:1.0;fill-rule:evenodd;stroke:rgb(0, 0, 0);stroke-width:3.0;" d="M 587.871, 62.7189 L 585.049, 63.1477 L 559.098, 54.8436 L 574.088, 47.5959 z "/>
<path style="fill:rgb(255, 13, 42);fill-opacity:1.0;fill-rule:evenodd;stroke:rgb(0, 0, 0);stroke-width:3.0;" d="M 539.051, 197.323 L 537.34, 205.063 L 514.609, 214.286 L 524.123, 198.329 L 537.38, 196.247 z "/>
<path style="fill:rgb(57, 70, 228);fill-opacity:1.0;fill-rule:evenodd;stroke:rgb(0, 0, 0);stroke-width:3.0;" d="M 503.192, 57.97 L 505.993, 80.5207 L 471.085, 97.399 L 499.013, 56.1596 z "/>
<path style="fill:rgb(57, 70, 228);fill-opacity:1.0;fill-rule:evenodd;stroke:rgb(0, 0, 0);stroke-width:3.0;" d="M 75.9483, 146.726 L 76.5758, 154.025 L 56.5371, 160.091 L 37.123, 153.63 L 43.1385, 142.703 z "/>
<path style="fill:rgb(57, 70, 228);fill-opacity:1.0;fill-rule:evenodd;stroke:rgb(0, 0, 0);stroke-width:3.0;" d="M 74.1087, 195.733 L 30.3079, 205.558 L 28.6855, 200.176 L 43.2085, 161.241 z "/>
<path style="fill:rgb(57, 70, 228);fill-opacity:1.0;fill-rule:evenodd;stroke:rgb(0, 0, 0);stroke-width:3.0;" d="M 81.0935, 310.586 L 28.9598, 312.558 L 23.1901, 296.272 L 110.82, 273.932 z "/>
<path style="fill:rgb(57, 70, 228);fill-opacity:1.0;fill-rule:evenodd;stroke:rgb(0, 0, 0);stroke-width:3.0;" d="M 786.834, 247.852 L 774.576, 250.517 L 771.442, 247.661 L 783.784, 233.187 z "/>
<path style="fill:rgb(57, 70, 228);fill-opacity:1.0;fill-rule:evenodd;stroke:rgb(0, 0, 0);stroke-width:3.0;" d="M 577.391, 166.929 L 578.413, 179.321 L 568.297, 178.031 L 570.408, 160.314 z "/>
<path style="fill:rgb(57, 70, 228);fill-opacity:1.0;fill-rule:evenodd;stroke:rgb(0, 0, 0);stroke-width:3.0;" d="M 611.605, 199.342 L 604.138, 228.353 L 594.572, 226.658 L 608.973, 196.848 z "/>
<path style="fill:rgb(8, 91, 255);fill-opacity:1.0;fill-rule:evenodd;stroke:rgb(0, 0, 0);stroke-width:3.0;" d="M 788.588, 183.264 L 777.258, 201.809 L 772.421, 178.551 z "/>
<path style="fill:rgb(8, 91, 255);fill-opacity:1.0;fill-rule:evenodd;stroke:rgb(0, 0, 0);stroke-width:3.0;" d="M 593.867, 228.117 L 592.645, 230.646 L 510.008, 216.153 L 578.656, 188.299 z "/>
<path style="fill:rgb(8, 91, 255);fill-opacity:1.0;fill-rule:evenodd;stroke:rgb(0, 0, 0);stroke-width:3.0;" d="M 35.9893, 168.663 L 20.8187, 174.075 L 15.2216, 155.504 L 24.2719, 154.798 z "/>
<path style="fill:rgb(8, 91, 255);fill-opacity:1.0;fill-rule:evenodd;stroke:rgb(0, 0, 0);stroke-width:3.0;" d="M 689.878, 195.419 L 641.934, 218.863 L 638.2, 203.7 L 691.049, 182.828 z "/>
<path style="fill:rgb(8, 91, 255);fill-opacity:1.0;fill-rule:evenodd;stroke:rgb(0, 0, 0);stroke-width:3.0;" d="M 350.687, 188.21 L 294.084, 270.726 L 198.375, 161.497 z "/>
<path style="fill:rgb(8, 91, 255);fill-opacity:1.0;fill-rule:evenodd;stroke:rgb(0, 0, 0);stroke-width:3.0;" d="M 681.5, 422.335 L 641.508, 428.731 L 535.223, 312.563 L 539.406, 286.017 z "/>
<path style="fill:rgb(237, 220, 61);fill-opacity:1.0;fill-rule:evenodd;stroke:rgb(0, 0, 0);stroke-width:3.0;" d="M 525.303, 534.608 L 487.62, 579.542 L 412.005, 550.616 L 486.465, 490.283 z "/>
<path style="fill:rgb(255, 66, 21);fill-opacity:1.0;fill-rule:evenodd;stroke:rgb(0, 0, 0);stroke-width:3.0;" d="M 568.315, 583.696 L 560.233, 586.051 L 536.938, 563.078 L 545.213, 557.33 z "/>
<path style="fill:rgb(220, 163, 234);fill-opacity:1.0;fill-rule:evenodd;stroke:rgb(0, 0, 0);stroke-width:3.0;" d="M 750.739, 501.623 L 743.006, 539.667 L 702.252, 495.124 L 731.083, 465.091 z "/>
<path style="fill:rgb(55, 61, 249);fill-opacity:1.0;fill-rule:evenodd;stroke:rgb(0, 0, 0);stroke-width:3.0;" d="M 481.523, 586.811 L 478.417, 590.515 L 436.107, 570.639 L 433.018, 565.968 z "/>
<path style="fill:rgb(55, 61, 249);fill-opacity:1.0;fill-rule:evenodd;stroke:rgb(0, 0, 0);stroke-width:3.0;" d="M 674.784, 465.102 L 641.508, 428.731 L 652.713, 426.939 z "/>
<path style="fill:rgb(55, 61, 249);fill-opacity:1.0;fill-rule:evenodd;stroke:rgb(0, 0, 0);stroke-width:3.0;" d="M 80.3233, 248.182 L 55.1416, 258.295 L 59.052, 245.602 L 61.566, 240.804 L 79.7804, 233.774 L 85.281, 233.163 z "/>
<path style="fill:rgb(55, 61, 249);fill-opacity:1.0;fill-rule:evenodd;stroke:rgb(0, 0, 0);stroke-width:3.0;" d="M 787.448, 490.47 L 763.377, 466.282 L 790.831, 460.758 z "/>
<path style="fill:rgb(55, 61, 249);fill-opacity:1.0;fill-rule:evenodd;stroke:rgb(0, 0, 0);stroke-width:3.0;" d="M 736.868, 192.736 L 722.629, 190.493 L 746.476, 167.744 L 751.094, 165.486 z "/>
<path style="fill:rgb(255, 252, 25);fill-opacity:1.0;fill-rule:evenodd;stroke:rgb(0, 0, 0);stroke-width:3.0;" d="M 514.609, 214.286 L 510.008, 216.153 L 502.601, 214.854 L 500.228, 196.22 L 514.301, 177.919 L 540.363, 171.092 z "/>
<path style="fill:rgb(255, 252, 25);fill-opacity:1.0;fill-rule:evenodd;stroke:rgb(0, 0, 0);stroke-width:3.0;" d="M 597.953, 156.434 L 586.247, 160.09 L 583.887, 158.15 L 585.729, 151.16 L 610.814, 137.719 z "/>
<path style="fill:rgb(255, 252, 25);fill-opacity:1.0;fill-rule:evenodd;stroke:rgb(0, 0, 0);stroke-width:3.0;" d="M 592.358, 336.817 L 522.53, 269.828 L 522.178, 266.973 L 601.737, 248.116 z "/>
<path style="fill:rgb(226, 88, 94);fill-opacity:1.0;fill-rule:evenodd;stroke:rgb(0, 0, 0);stroke-width:3.0;" d="M 492.183, 401.059 L 476.49, 394.819 L 468.496, 387.141 L 547.549, 373.879 z "/>
<path style="fill:rgb(226, 88, 94);fill-opacity:1.0;fill-rule:evenodd;stroke:rgb(0, 0, 0);stroke-width:3.0;" d="M 617.482, 434.467 L 566.477, 511.98 L 503.934, 510.221 L 436.244, 432.968 L 446.145, 428.099 z "/>
<path style="fill:rgb(226, 88, 94);fill-opacity:1.0;fill-rule:evenodd;stroke:rgb(0, 0, 0);stroke-width:3.0;" d="M 333.212, 105.566 L 387.554, 138.167 L 310.778, 103.166 L 315.449, 102.128 z "/>
<path style="fill:rgb(226, 88, 94);fill-opacity:1.0;fill-rule:evenodd;stroke:rgb(0, 0, 0);stroke-width:3.0;" d="M 794.699, 185.045 L 772.421, 178.551 L 768.98, 162.007 L 770.112, 156.187 L 775.152, 153.722 z "/>
<path style="fill:rgb(226, 88, 94);fill-opacity:1.0;fill-rule:evenodd;stroke:rgb(0, 0, 0);stroke-width:3.0;" d="M 746.074, 212.764 L 744.281, 226.744 L 733.154, 237.65 L 713.407, 237.675 L 737.386, 191.744 z "/>
<path style="fill:rgb(107, 255, 255);fill-opacity:1.0;fill-rule:evenodd;stroke:rgb(0, 0, 0);stroke-width:3.0;" d="M 607.337, 139.582 L 569.771, 159.711 L 564.457, 154.676 L 563.863, 150.392 L 573.366, 140.205 L 607.613, 135.956 z "/>
<path style="fill:rgb(107, 255, 255);fill-opacity:1.0;fill-rule:evenodd;stroke:rgb(0, 0, 0);stroke-width:3.0;" d="M 606.22, 233.027 L 654.541, 322.833 L 596.556, 297.113 L 603.385, 232.53 z "/>
<path style="fill:rgb(107, 255, 255);fill-opacity:1.0;fill-rule:evenodd;stroke:rgb(0, 0, 0);stroke-width:3.0;" d="M 133.201, 53.5049 L 134.124, 58.5544 L 108.954, 23.7806 L 112.131, 20.9364 z "/>
<path style="fill:rgb(107, 255, 255);fill-opacity:1.0;fill-rule:evenodd;stroke:rgb(0, 0, 0);stroke-width:3.0;" d="M 486.465, 490.283 L 455.098, 515.699 L 446.107, 509.53 L 456.011, 488.177 L 479.785, 482.66 z "/>
<path style="fill:rgb(107, 255, 255);fill-opacity:1.0;fill-rule:evenodd;stroke:rgb(0, 0, 0);stroke-width:3.0;" d="M 166.937, 276.757 L 160.093, 307.599 L 111.037, 309.454 L 164.593, 273.215 z "/>
<path style="fill:rgb(10, 255, 255);fill-opacity:1.0;fill-rule:evenodd;stroke:rgb(0, 0, 0);stroke-width:3.0;" d="M 156.166, 325.296 L 133.345, 312.662 L 133.91, 308.589 L 160.093, 307.599 z "/>
<path style="fill:rgb(199, 41, 43);fill-opacity:1.0;fill-rule:evenodd;stroke:rgb(0, 0, 0);stroke-width:3.0;" d="M 791.703, 577.757 L 766.23, 565.051 L 760.336, 558.609 L 762.133, 522.799 z "/>
<path style="fill:rgb(199, 41, 43);fill-opacity:1.0;fill-rule:evenodd;stroke:rgb(0, 0, 0);stroke-width:3.0;" d="M 718.721, 158.697 L 718.865, 171.843 L 690.993, 182.851 L 687.246, 178.143 L 704.348, 157.694 z "/>
<path style="fill:rgb(255, 26, 15);fill-opacity:1.0;fill-rule:evenodd;stroke:rgb(0, 0, 0);stroke-width:3.0;" d="M 603.385, 232.53 L 601.737, 248.116 L 522.178, 266.973 L 520.468, 253.134 L 574.483, 227.461 z "/>
<path style="fill:rgb(65, 7, 255);fill-opacity:1.0;fill-rule:evenodd;stroke:rgb(0, 0, 0);stroke-width:3.0;" d="M 762.062, 524.211 L 760.336, 558.609 L 747.913, 545.031 L 751.828, 514.027 z "/>
<path style="fill:rgb(65, 7, 255);fill-opacity:1.0;fill-rule:evenodd;stroke:rgb(0, 0, 0);stroke-width:3.0;" d="M 570.408, 160.314 L 568.297, 178.031 L 562.994, 177.355 L 549.374, 155.977 L 555.314, 146.015 z "/>
<path style="fill:rgb(65, 7, 255);fill-opacity:1.0;fill-rule:evenodd;stroke:rgb(0, 0, 0);stroke-width:3.0;" d="M 278.718, 534.519 L 265.687, 552.751 L 260.599, 555.195 L 259.206, 554.452 L 260.373, 547.888 L 276.368, 532.215 z "/>
<path style="fill:rgb(255, 246, 57);fill-opacity:1.0;fill-rule:evenodd;stroke:rgb(0, 0, 0);stroke-width:3.0;" d="M 580.871, 371.868 L 556.238, 432.191 L 554.84, 432.139 L 555.316, 408.044 L 563.177, 370.547 L 571.78, 366.316 z "/>
<path style="fill:rgb(255, 246, 57);fill-opacity:1.0;fill-rule:evenodd;stroke:rgb(0, 0, 0);stroke-width:3.0;" d="M 419.953, 398.132 L 411.111, 404.285 L 354.221, 339.359 L 359.613, 337.24 z "/>
<path style="fill:rgb(255, 138, 13);fill-opacity:1.0;fill-rule:evenodd;stroke:rgb(0, 0, 0);stroke-width:3.0;" d="M 705.972, 418.421 L 681.5, 422.335 L 657.671, 399.475 L 686.953, 383.073 z "/>
<path style="fill:rgb(255, 10, 44);fill-opacity:1.0;fill-rule:evenodd;stroke:rgb(0, 0, 0);stroke-width:3.0;" d="M 456.134, 418.755 L 426.289, 417.292 L 426.017, 414.627 L 482.621, 405.753 z "/>
<path style="fill:rgb(255, 10, 44);fill-opacity:1.0;fill-rule:evenodd;stroke:rgb(0, 0, 0);stroke-width:3.0;" d="M 686.953, 383.073 L 657.671, 399.475 L 652.321, 394.342 L 661.112, 335.045 z "/>
<path style="fill:rgb(226, 50, 170);fill-opacity:1.0;fill-rule:evenodd;stroke:rgb(0, 0, 0);stroke-width:3.0;" d="M 565.274, 591.023 L 490.185, 576.482 L 498.037, 567.12 L 519.789, 546.165 z "/>
<path style="fill:rgb(226, 50, 170);fill-opacity:1.0;fill-rule:evenodd;stroke:rgb(0, 0, 0);stroke-width:3.0;" d="M 538.214, 315.832 L 419.953, 398.132 L 399.126, 377.115 L 432.653, 308.537 L 505.388, 279.953 z "/>
<path style="fill:rgb(226, 50, 170);fill-opacity:1.0;fill-rule:evenodd;stroke:rgb(0, 0, 0);stroke-width:3.0;" d="M 141.378, 391.942 L 138.517, 404.835 L 31.5208, 379.723 L 19.7712, 340.394 L 116.227, 339.96 z "/>
<path style="fill:rgb(226, 50, 170);fill-opacity:1.0;fill-rule:evenodd;stroke:rgb(0, 0, 0);stroke-width:3.0;" d="M 654.541, 322.833 L 661.112, 335.045 L 652.321, 394.342 L 592.358, 336.817 L 596.556, 297.113 z "/>
<path style="fill:rgb(226, 50, 170);fill-opacity:1.0;fill-rule:evenodd;stroke:rgb(0, 0, 0);stroke-width:3.0;" d="M 711.905, 142.147 L 692.617, 156.876 L 671.16, 155.379 L 707.746, 127.992 z "/>
<path style="fill:rgb(226, 50, 170);fill-opacity:1.0;fill-rule:evenodd;stroke:rgb(0, 0, 0);stroke-width:3.0;" d="M 499.358, 189.391 L 494.932, 192.761 L 484.487, 192.244 L 492.89, 173.238 L 496.68, 168.371 z "/>
<path style="fill:rgb(226, 50, 170);fill-opacity:1.0;fill-rule:evenodd;stroke:rgb(0, 0, 0);stroke-width:3.0;" d="M 231.321, 120.815 L 202.581, 127.199 L 203.837, 123 L 222.262, 104.33 z "/>
<path style="fill:rgb(226, 50, 170);fill-opacity:1.0;fill-rule:evenodd;stroke:rgb(0, 0, 0);stroke-width:3.0;" d="M 553.773, 25.3053 L 566.742, 39.5354 L 537.885, 40.3653 L 519.956, 25.2354 L 521.668, 22.7063 z "/>
<path style="fill:rgb(37, 89, 255);fill-opacity:1.0;fill-rule:evenodd;stroke:rgb(0, 0, 0);stroke-width:3.0;" d="M 462.219, 207.771 L 331.111, 184.777 L 332.134, 161.648 L 391.903, 148.032 z "/>
<path style="fill:rgb(182, 5, 18);fill-opacity:1.0;fill-rule:evenodd;stroke:rgb(0, 0, 0);stroke-width:3.0;" d="M 584.905, 22.9539 L 574.081, 20.2082 L 563.234, 11.7573 L 582.249, 7.14573 z "/>
<path style="fill:rgb(182, 5, 18);fill-opacity:1.0;fill-rule:evenodd;stroke:rgb(0, 0, 0);stroke-width:3.0;" d="M 709.389, 424.771 L 691.99, 426.563 L 689.988, 420.978 L 705.972, 418.421 z "/>
<path style="fill:rgb(182, 5, 18);fill-opacity:1.0;fill-rule:evenodd;stroke:rgb(0, 0, 0);stroke-width:3.0;" d="M 574.972, 178.882 L 578.504, 180.421 L 578.6, 181.584 L 565.026, 182.838 L 540.752, 179.629 L 539.591, 174.371 z "/>
<path style="fill:rgb(182, 5, 18);fill-opacity:1.0;fill-rule:evenodd;stroke:rgb(0, 0, 0);stroke-width:3.0;" d="M 639.968, 226.21 L 638.795, 234.493 L 619.827, 231.133 L 611.444, 199.966 L 611.605, 199.342 z "/>
<path style="fill:rgb(182, 5, 18);fill-opacity:1.0;fill-rule:evenodd;stroke:rgb(0, 0, 0);stroke-width:3.0;" d="M 391.903, 148.032 L 332.134, 161.648 L 332.943, 143.358 L 383.393, 140.803 z "/>
<path style="fill:rgb(74, 66, 237);fill-opacity:1.0;fill-rule:evenodd;stroke:rgb(0, 0, 0);stroke-width:3.0;" d="M 309.271, 526.148 L 313.882, 539.693 L 282.209, 561.718 L 272.938, 564.539 L 274.829, 539.961 L 288.631, 520.65 z "/>
<path style="fill:rgb(255, 15, 19);fill-opacity:1.0;fill-rule:evenodd;stroke:rgb(0, 0, 0);stroke-width:3.0;" d="M 214.971, 547.864 L 209.556, 567.6 L 151.194, 579.165 L 131.183, 558.157 L 205.32, 536.643 z "/>
<path style="fill:rgb(255, 15, 19);fill-opacity:1.0;fill-rule:evenodd;stroke:rgb(0, 0, 0);stroke-width:3.0;" d="M 153.742, 594.931 L 149.03, 584.294 L 161.766, 577.07 L 189.449, 571.585 z "/>
<path style="fill:rgb(255, 15, 19);fill-opacity:1.0;fill-rule:evenodd;stroke:rgb(0, 0, 0);stroke-width:3.0;" d="M 451.262, 450.108 L 329.231, 499.96 L 306.464, 427.583 L 353.795, 338.873 z "/>
<path style="fill:rgb(240, 78, 20);fill-opacity:1.0;fill-rule:evenodd;stroke:rgb(0, 0, 0);stroke-width:3.0;" d="M 693.884, 199.587 L 677.733, 209.214 L 666.653, 206.775 L 691.387, 194.681 z "/>
<path style="fill:rgb(255, 71, 255);fill-opacity:1.0;fill-rule:evenodd;stroke:rgb(0, 0, 0);stroke-width:3.0;" d="M 181.76, 124.365 L 150.675, 81.4204 L 161.629, 78.271 z "/>
<path style="fill:rgb(255, 71, 255);fill-opacity:1.0;fill-rule:evenodd;stroke:rgb(0, 0, 0);stroke-width:3.0;" d="M 574.483, 227.461 L 528.695, 249.224 L 520.348, 252.166 L 516.029, 217.209 z "/>
<path style="fill:rgb(255, 61, 59);fill-opacity:1.0;fill-rule:evenodd;stroke:rgb(0, 0, 0);stroke-width:3.0;" d="M 455.26, 143.301 L 425.63, 156.407 L 428.499, 143.298 z "/>
<path style="fill:rgb(146, 255, 255);fill-opacity:1.0;fill-rule:evenodd;stroke:rgb(0, 0, 0);stroke-width:3.0;" d="M 544.216, 164.628 L 540.363, 171.092 L 498.426, 182.078 L 495.606, 159.939 L 506.33, 157.38 z "/>
<path style="fill:rgb(146, 255, 255);fill-opacity:1.0;fill-rule:evenodd;stroke:rgb(0, 0, 0);stroke-width:3.0;" d="M 233.575, 563.285 L 232.043, 563.433 L 219.997, 557.516 L 216.687, 541.609 L 219.151, 532.629 L 223.374, 531.404 z "/>
<path style="fill:rgb(146, 255, 255);fill-opacity:1.0;fill-rule:evenodd;stroke:rgb(0, 0, 0);stroke-width:3.0;" d="M 677.822, 136.134 L 653.547, 154.151 L 625.518, 152.196 L 619.766, 128.834 L 671.897, 126.194 z "/>
<path style="fill:rgb(146, 255, 255);fill-opacity:1.0;fill-rule:evenodd;stroke:rgb(0, 0, 0);stroke-width:3.0;" d="M 455.26, 143.301 L 428.499, 143.298 L 429.557, 138.465 L 470.928, 136.371 z "/>
<path style="fill:rgb(44, 240, 255);fill-opacity:1.0;fill-rule:evenodd;stroke:rgb(0, 0, 0);stroke-width:3.0;" d="M 527.165, 49.6909 L 533.801, 67.0752 L 529.267, 69.2672 L 499.013, 56.1596 L 505.527, 46.5416 z "/>
<path style="fill:rgb(179, 7, 255);fill-opacity:1.0;fill-rule:evenodd;stroke:rgb(0, 0, 0);stroke-width:3.0;" d="M 247.155, 563.937 L 254.533, 568.356 L 241.177, 587.041 L 234.144, 565.061 L 246.069, 563.739 z "/>
<path style="fill:rgb(237, 9, 255);fill-opacity:1.0;fill-rule:evenodd;stroke:rgb(0, 0, 0);stroke-width:3.0;" d="M 745.887, 542.816 L 742.329, 549.558 L 710.171, 568.556 L 737.161, 533.279 z "/>
<path style="fill:rgb(243, 6, 110);fill-opacity:1.0;fill-rule:evenodd;stroke:rgb(0, 0, 0);stroke-width:3.0;" d="M 271.947, 527.88 L 263.98, 528.75 L 248.477, 524.119 L 263.626, 519.723 z "/>
<path style="fill:rgb(243, 6, 110);fill-opacity:1.0;fill-rule:evenodd;stroke:rgb(0, 0, 0);stroke-width:3.0;" d="M 446.587, 466.629 L 329.44, 500.624 L 329.231, 499.96 L 423.248, 461.552 z "/>
<path style="fill:rgb(243, 6, 110);fill-opacity:1.0;fill-rule:evenodd;stroke:rgb(0, 0, 0);stroke-width:3.0;" d="M 570.985, 131.304 L 548.074, 132.464 L 548.923, 127.898 L 574.776, 123.876 z "/>
<path style="fill:rgb(243, 6, 110);fill-opacity:1.0;fill-rule:evenodd;stroke:rgb(0, 0, 0);stroke-width:3.0;" d="M 752.889, 505.619 L 747.913, 545.031 L 743.006, 539.667 L 750.739, 501.623 z "/>
<path style="fill:rgb(243, 6, 110);fill-opacity:1.0;fill-rule:evenodd;stroke:rgb(0, 0, 0);stroke-width:3.0;" d="M 521.668, 22.7063 L 493.55, 64.2271 L 397.728, 64.7249 L 446.394, 16.6125 z "/>
<path style="fill:rgb(243, 6, 110);fill-opacity:1.0;fill-rule:evenodd;stroke:rgb(0, 0, 0);stroke-width:3.0;" d="M 759.204, 161.521 L 689.878, 195.419 L 691.049, 182.828 L 747.134, 160.679 z "/>
<path style="fill:rgb(243, 6, 110);fill-opacity:1.0;fill-rule:evenodd;stroke:rgb(0, 0, 0);stroke-width:3.0;" d="M 770.943, 454.199 L 766.131, 449.669 L 767.054, 445.635 L 786.574, 443.063 z "/>
<path style="fill:rgb(237, 18, 243);fill-opacity:1.0;fill-rule:evenodd;stroke:rgb(0, 0, 0);stroke-width:3.0;" d="M 399.126, 377.115 L 359.613, 337.24 L 432.653, 308.537 z "/>
<path style="fill:rgb(237, 18, 243);fill-opacity:1.0;fill-rule:evenodd;stroke:rgb(0, 0, 0);stroke-width:3.0;" d="M 117.67, 35.8219 L 108.049, 49.8898 L 80.772, 45.5207 L 113.615, 30.2204 z "/>
<path style="fill:rgb(237, 18, 243);fill-opacity:1.0;fill-rule:evenodd;stroke:rgb(0, 0, 0);stroke-width:3.0;" d="M 499.818, 193.003 L 502.601, 214.854 L 490.983, 212.816 L 498.777, 192.951 z "/>
<path style="fill:rgb(237, 18, 243);fill-opacity:1.0;fill-rule:evenodd;stroke:rgb(0, 0, 0);stroke-width:3.0;" d="M 498.777, 192.951 L 490.983, 212.816 L 476.513, 210.278 L 484.487, 192.244 z "/>
<path style="fill:rgb(237, 18, 243);fill-opacity:1.0;fill-rule:evenodd;stroke:rgb(0, 0, 0);stroke-width:3.0;" d="M 677.822, 136.134 L 671.897, 126.194 L 692.628, 125.145 z "/>
<path style="fill:rgb(237, 18, 243);fill-opacity:1.0;fill-rule:evenodd;stroke:rgb(0, 0, 0);stroke-width:3.0;" d="M 435.619, 473.592 L 407.618, 483.121 L 402.309, 479.478 L 435.695, 469.79 z "/>
<path style="fill:rgb(237, 18, 243);fill-opacity:1.0;fill-rule:evenodd;stroke:rgb(0, 0, 0);stroke-width:3.0;" d="M 113.831, 146.67 L 91.2987, 214.932 L 75.9343, 213.387 L 111.145, 146.198 z "/>
<path style="fill:rgb(237, 18, 243);fill-opacity:1.0;fill-rule:evenodd;stroke:rgb(0, 0, 0);stroke-width:3.0;" d="M 507.712, 215.75 L 512.466, 237.864 L 493.414, 241.894 L 456.866, 206.833 z "/>
<path style="fill:rgb(237, 18, 243);fill-opacity:1.0;fill-rule:evenodd;stroke:rgb(0, 0, 0);stroke-width:3.0;" d="M 496.68, 168.371 L 465.546, 208.355 L 462.219, 207.771 L 409.933, 163.35 L 470.928, 136.371 L 492.465, 135.28 z "/>
<path style="fill:rgb(74, 255, 136);fill-opacity:1.0;fill-rule:evenodd;stroke:rgb(0, 0, 0);stroke-width:3.0;" d="M 607.619, 135.877 L 607.613, 135.956 L 582.902, 139.022 L 581.407, 131.586 L 582.2, 130.736 L 594.727, 130.102 z "/>
<path style="fill:rgb(74, 255, 136);fill-opacity:1.0;fill-rule:evenodd;stroke:rgb(0, 0, 0);stroke-width:3.0;" d="M 646.876, 127.461 L 644.64, 127.574 L 586.019, 101.85 L 599.487, 75.4648 z "/>
<path style="fill:rgb(126, 91, 255);fill-opacity:1.0;fill-rule:evenodd;stroke:rgb(0, 0, 0);stroke-width:3.0;" d="M 487.62, 579.542 L 481.523, 586.811 L 409.62, 555.914 L 423.949, 555.185 z "/>
<path style="fill:rgb(237, 72, 30);fill-opacity:1.0;fill-rule:evenodd;stroke:rgb(0, 0, 0);stroke-width:3.0;" d="M 455.098, 515.699 L 416.404, 547.052 L 403.355, 530.326 L 400.899, 479.887 L 402.309, 479.478 z "/>
<path style="fill:rgb(237, 72, 30);fill-opacity:1.0;fill-rule:evenodd;stroke:rgb(0, 0, 0);stroke-width:3.0;" d="M 730.313, 572.325 L 728.708, 575.365 L 714.84, 567.071 L 726.828, 560.331 z "/>
<path style="fill:rgb(237, 72, 30);fill-opacity:1.0;fill-rule:evenodd;stroke:rgb(0, 0, 0);stroke-width:3.0;" d="M 141.378, 391.942 L 116.227, 339.96 L 152.949, 339.795 z "/>
<path style="fill:rgb(189, 110, 212);fill-opacity:1.0;fill-rule:evenodd;stroke:rgb(0, 0, 0);stroke-width:3.0;" d="M 476.513, 210.278 L 465.546, 208.355 L 492.89, 173.238 z "/>
<path style="fill:rgb(255, 0, 150);fill-opacity:1.0;fill-rule:evenodd;stroke:rgb(0, 0, 0);stroke-width:3.0;" d="M 505.388, 279.953 L 354.221, 339.359 L 352.521, 337.418 L 456.248, 226.244 z "/>
<path style="fill:rgb(255, 0, 150);fill-opacity:1.0;fill-rule:evenodd;stroke:rgb(0, 0, 0);stroke-width:3.0;" d="M 585.049, 63.1477 L 533.037, 71.0502 L 530.423, 68.7082 L 559.098, 54.8436 z "/>
<path style="fill:rgb(255, 0, 150);fill-opacity:1.0;fill-rule:evenodd;stroke:rgb(0, 0, 0);stroke-width:3.0;" d="M 272.762, 69.3003 L 296.066, 106.434 L 231.321, 120.815 L 211.247, 84.2858 L 232.088, 44.899 z "/>
<path style="fill:rgb(255, 243, 10);fill-opacity:1.0;fill-rule:evenodd;stroke:rgb(0, 0, 0);stroke-width:3.0;" d="M 133.351, 560.432 L 92.667, 575.705 L 91.8142, 569.582 L 131.183, 558.157 z "/>
<path style="fill:rgb(255, 243, 10);fill-opacity:1.0;fill-rule:evenodd;stroke:rgb(0, 0, 0);stroke-width:3.0;" d="M 450.252, 500.594 L 437.206, 503.423 L 425.354, 495.29 L 456.011, 488.177 z "/>
<path style="fill:rgb(255, 243, 10);fill-opacity:1.0;fill-rule:evenodd;stroke:rgb(0, 0, 0);stroke-width:3.0;" d="M 273.101, 511.808 L 259.41, 509.564 L 265.86, 499.298 L 269.768, 496.91 z "/>
<path style="fill:rgb(255, 243, 10);fill-opacity:1.0;fill-rule:evenodd;stroke:rgb(0, 0, 0);stroke-width:3.0;" d="M 554.84, 432.139 L 468.441, 428.928 L 473.334, 414.728 L 555.987, 374.082 z "/>
<path style="fill:rgb(255, 249, 20);fill-opacity:1.0;fill-rule:evenodd;stroke:rgb(0, 0, 0);stroke-width:3.0;" d="M 713.404, 237.679 L 713.337, 237.808 L 698.033, 207.738 L 707.823, 186.645 L 711.464, 184.864 z "/>
<path style="fill:rgb(255, 249, 20);fill-opacity:1.0;fill-rule:evenodd;stroke:rgb(0, 0, 0);stroke-width:3.0;" d="M 321.558, 500.185 L 319.714, 503.447 L 284.477, 513.672 L 273.101, 511.808 L 269.768, 496.91 L 300.365, 478.211 z "/>
<path style="fill:rgb(255, 249, 20);fill-opacity:1.0;fill-rule:evenodd;stroke:rgb(0, 0, 0);stroke-width:3.0;" d="M 782.65, 234.517 L 766.437, 253.531 L 751.083, 254.069 L 754.483, 236.581 L 760.646, 232.354 z "/>
<path style="fill:rgb(255, 249, 20);fill-opacity:1.0;fill-rule:evenodd;stroke:rgb(0, 0, 0);stroke-width:3.0;" d="M 370.52, 141.455 L 200.366, 150.071 L 186.542, 130.972 L 186.669, 130.733 L 296.074, 106.432 z "/>
<path style="fill:rgb(18, 19, 255);fill-opacity:1.0;fill-rule:evenodd;stroke:rgb(0, 0, 0);stroke-width:3.0;" d="M 321.932, 476.757 L 312.351, 490.639 L 302.285, 480.202 L 320.569, 472.424 z "/>
<path style="fill:rgb(18, 19, 255);fill-opacity:1.0;fill-rule:evenodd;stroke:rgb(0, 0, 0);stroke-width:3.0;" d="M 571.718, 183.723 L 572.136, 188.794 L 541.556, 183.274 L 541.248, 181.877 L 541.517, 179.731 z "/>
<path style="fill:rgb(18, 19, 255);fill-opacity:1.0;fill-rule:evenodd;stroke:rgb(0, 0, 0);stroke-width:3.0;" d="M 566.046, 18.1699 L 564.583, 19.0259 L 528.551, 17.6985 L 520.655, 6.65511 z "/>
<path style="fill:rgb(10, 60, 194);fill-opacity:1.0;fill-rule:evenodd;stroke:rgb(0, 0, 0);stroke-width:3.0;" d="M 608.973, 196.848 L 593.867, 228.117 L 578.656, 188.299 L 593.564, 182.25 z "/>
<path style="fill:rgb(255, 234, 24);fill-opacity:1.0;fill-rule:evenodd;stroke:rgb(0, 0, 0);stroke-width:3.0;" d="M 548.372, 326.935 L 526.342, 324.094 L 538.214, 315.832 z "/>
<path style="fill:rgb(255, 234, 24);fill-opacity:1.0;fill-rule:evenodd;stroke:rgb(0, 0, 0);stroke-width:3.0;" d="M 353.795, 338.873 L 350.567, 344.924 L 298.488, 314.49 L 307.605, 286.157 z "/>
<path style="fill:rgb(189, 207, 255);fill-opacity:1.0;fill-rule:evenodd;stroke:rgb(0, 0, 0);stroke-width:3.0;" d="M 583.518, 172.734 L 574.157, 163.866 L 594.408, 157.541 z "/>
<path style="fill:rgb(189, 207, 255);fill-opacity:1.0;fill-rule:evenodd;stroke:rgb(0, 0, 0);stroke-width:3.0;" d="M 625.821, 153.424 L 603.567, 176.956 L 596.183, 178.678 L 586.106, 173.672 L 602.735, 149.475 L 622.787, 141.105 z "/>
<path style="fill:rgb(246, 13, 88);fill-opacity:1.0;fill-rule:evenodd;stroke:rgb(0, 0, 0);stroke-width:3.0;" d="M 767.667, 227.539 L 754.483, 236.581 L 758.264, 217.131 z "/>
<path style="fill:rgb(55, 159, 255);fill-opacity:1.0;fill-rule:evenodd;stroke:rgb(0, 0, 0);stroke-width:3.0;" d="M 272.938, 564.539 L 259.202, 568.719 L 258.169, 563.269 L 274.829, 539.961 z "/>
<path style="fill:rgb(48, 255, 44);fill-opacity:1.0;fill-rule:evenodd;stroke:rgb(0, 0, 0);stroke-width:3.0;" d="M 764.171, 167.01 L 767.357, 170.358 L 765.157, 181.673 L 760.153, 182.448 L 751.605, 169.613 L 752.137, 165.469 z "/>
<path style="fill:rgb(19, 102, 255);fill-opacity:1.0;fill-rule:evenodd;stroke:rgb(0, 0, 0);stroke-width:3.0;" d="M 774.337, 187.763 L 773.257, 188.372 L 766.133, 181.58 L 766.898, 172.721 L 768.98, 162.007 z "/>
<path style="fill:rgb(19, 102, 255);fill-opacity:1.0;fill-rule:evenodd;stroke:rgb(0, 0, 0);stroke-width:3.0;" d="M 69.5367, 280.861 L 68.2408, 284.787 L 33.9331, 293.533 L 38.4031, 285.004 L 57.8166, 274.791 z "/>
<path style="fill:rgb(255, 24, 117);fill-opacity:1.0;fill-rule:evenodd;stroke:rgb(0, 0, 0);stroke-width:3.0;" d="M 102.91, 161.913 L 96.8353, 173.504 L 87.1174, 170.27 L 94.6038, 152.473 z "/>
<path style="fill:rgb(41, 228, 255);fill-opacity:1.0;fill-rule:evenodd;stroke:rgb(0, 0, 0);stroke-width:3.0;" d="M 793.399, 438.202 L 786.574, 443.063 L 767.054, 445.635 L 769.372, 435.508 L 793.971, 433.178 z "/>
<path style="fill:rgb(41, 228, 255);fill-opacity:1.0;fill-rule:evenodd;stroke:rgb(0, 0, 0);stroke-width:3.0;" d="M 23.749, 202.905 L 29.5414, 203.015 L 37.6951, 230.068 L 37.5107, 232.085 L 19.7486, 202.849 z "/>
<path style="fill:rgb(52, 255, 18);fill-opacity:1.0;fill-rule:evenodd;stroke:rgb(0, 0, 0);stroke-width:3.0;" d="M 671.667, 244.505 L 656.465, 241.839 L 644.892, 230.875 L 643.581, 225.553 L 680.583, 215.399 z "/>
<path style="fill:rgb(255, 108, 49);fill-opacity:1.0;fill-rule:evenodd;stroke:rgb(0, 0, 0);stroke-width:3.0;" d="M 164.593, 273.215 L 111.037, 309.454 L 81.0935, 310.586 L 92.217, 296.871 L 162.911, 270.673 z "/>
<path style="fill:rgb(255, 108, 49);fill-opacity:1.0;fill-rule:evenodd;stroke:rgb(0, 0, 0);stroke-width:3.0;" d="M 196.062, 128.647 L 186.669, 130.733 L 197.095, 111.03 L 211.312, 96.0861 z "/>
<path style="fill:rgb(255, 108, 49);fill-opacity:1.0;fill-rule:evenodd;stroke:rgb(0, 0, 0);stroke-width:3.0;" d="M 720.712, 199.646 L 721.025, 202.616 L 719.73, 215.788 L 712.769, 220.399 L 711.962, 198.429 L 712.382, 198.12 z "/>
<path style="fill:rgb(255, 108, 49);fill-opacity:1.0;fill-rule:evenodd;stroke:rgb(0, 0, 0);stroke-width:3.0;" d="M 272.575, 511.722 L 276.09, 516.106 L 249.807, 523.733 L 245.734, 511.598 L 251.25, 508.227 z "/>
<path style="fill:rgb(54, 234, 255);fill-opacity:1.0;fill-rule:evenodd;stroke:rgb(0, 0, 0);stroke-width:3.0;" d="M 276.368, 532.215 L 272.723, 535.787 L 240.134, 545.629 L 232.443, 532.19 L 271.947, 527.88 z "/>
<path style="fill:rgb(11, 163, 223);fill-opacity:1.0;fill-rule:evenodd;stroke:rgb(0, 0, 0);stroke-width:3.0;" d="M 555.386, 126.893 L 505.815, 134.604 L 503.997, 134.696 L 560.647, 114.484 z "/>
<path style="fill:rgb(11, 163, 223);fill-opacity:1.0;fill-rule:evenodd;stroke:rgb(0, 0, 0);stroke-width:3.0;" d="M 564.08, 52.4347 L 561.688, 53.5914 L 541.225, 47.387 L 555.179, 42.6944 z "/>
<path style="fill:rgb(11, 163, 223);fill-opacity:1.0;fill-rule:evenodd;stroke:rgb(0, 0, 0);stroke-width:3.0;" d="M 162.911, 270.673 L 97.3723, 294.96 L 159.928, 266.164 z "/>
<path style="fill:rgb(11, 163, 223);fill-opacity:1.0;fill-rule:evenodd;stroke:rgb(0, 0, 0);stroke-width:3.0;" d="M 741.832, 243.711 L 732.81, 255.229 L 721.164, 253.186 L 719.879, 250.661 L 736.091, 234.772 z "/>
<path style="fill:rgb(255, 22, 255);fill-opacity:1.0;fill-rule:evenodd;stroke:rgb(0, 0, 0);stroke-width:3.0;" d="M 555.039, 145.755 L 495.606, 159.939 L 492.465, 135.28 L 541.368, 132.804 z "/>
<path style="fill:rgb(255, 249, 35);fill-opacity:1.0;fill-rule:evenodd;stroke:rgb(0, 0, 0);stroke-width:3.0;" d="M 555.314, 146.015 L 544.216, 164.628 L 506.33, 157.38 L 555.039, 145.755 z "/>
<path style="fill:rgb(255, 249, 35);fill-opacity:1.0;fill-rule:evenodd;stroke:rgb(0, 0, 0);stroke-width:3.0;" d="M 461.856, 462.198 L 446.587, 466.629 L 437.515, 464.656 L 433.687, 457.288 L 451.262, 450.108 z "/>
<path style="fill:rgb(255, 249, 35);fill-opacity:1.0;fill-rule:evenodd;stroke:rgb(0, 0, 0);stroke-width:3.0;" d="M 249.807, 523.733 L 231.841, 528.947 L 242.537, 513.552 L 245.734, 511.598 z "/>
<path style="fill:rgb(255, 107, 64);fill-opacity:1.0;fill-rule:evenodd;stroke:rgb(0, 0, 0);stroke-width:3.0;" d="M 322.795, 565.876 L 290.912, 589.301 L 275.749, 566.209 L 313.882, 539.693 z "/>
<path style="fill:rgb(255, 107, 64);fill-opacity:1.0;fill-rule:evenodd;stroke:rgb(0, 0, 0);stroke-width:3.0;" d="M 727.644, 574.728 L 703.574, 577.179 L 708.639, 570.558 L 714.84, 567.071 z "/>
<path style="fill:rgb(255, 107, 64);fill-opacity:1.0;fill-rule:evenodd;stroke:rgb(0, 0, 0);stroke-width:3.0;" d="M 581.292, 372.125 L 584.974, 380.215 L 592.019, 433.521 L 556.238, 432.191 L 580.871, 371.868 z "/>
<path style="fill:rgb(255, 107, 64);fill-opacity:1.0;fill-rule:evenodd;stroke:rgb(0, 0, 0);stroke-width:3.0;" d="M 111.145, 146.198 L 108.76, 150.749 L 53.4487, 143.967 L 25.3497, 131.151 z "/>
<path style="fill:rgb(209, 112, 152);fill-opacity:1.0;fill-rule:evenodd;stroke:rgb(0, 0, 0);stroke-width:3.0;" d="M 632.765, 513.846 L 625.146, 554.857 L 508.005, 514.866 L 503.934, 510.221 z "/>
<path style="fill:rgb(209, 112, 152);fill-opacity:1.0;fill-rule:evenodd;stroke:rgb(0, 0, 0);stroke-width:3.0;" d="M 416.404, 547.052 L 404.633, 556.589 L 403.355, 530.326 z "/>
<path style="fill:rgb(12, 223, 148);fill-opacity:1.0;fill-rule:evenodd;stroke:rgb(0, 0, 0);stroke-width:3.0;" d="M 401.348, 489.12 L 401.955, 501.569 L 389.317, 504.175 L 388.709, 493.817 L 397.397, 488.132 z "/>
<path style="fill:rgb(234, 27, 45);fill-opacity:1.0;fill-rule:evenodd;stroke:rgb(0, 0, 0);stroke-width:3.0;" d="M 232.043, 563.433 L 210.121, 565.544 L 213.234, 554.195 z "/>
<path style="fill:rgb(38, 47, 255);fill-opacity:1.0;fill-rule:evenodd;stroke:rgb(0, 0, 0);stroke-width:3.0;" d="M 378.011, 310.097 L 352.521, 337.418 L 316.729, 296.57 z "/>
<path style="fill:rgb(217, 1, 97);fill-opacity:1.0;fill-rule:evenodd;stroke:rgb(0, 0, 0);stroke-width:3.0;" d="M 161.629, 78.271 L 150.675, 81.4204 L 134.124, 58.5544 L 125.122, 9.30423 L 129.715, 5.19264 z "/>
<path style="fill:rgb(217, 1, 97);fill-opacity:1.0;fill-rule:evenodd;stroke:rgb(0, 0, 0);stroke-width:3.0;" d="M 387.554, 138.167 L 391.282, 140.403 L 370.52, 141.455 L 370.168, 141.289 L 373.462, 131.743 z "/>
<path style="fill:rgb(217, 1, 97);fill-opacity:1.0;fill-rule:evenodd;stroke:rgb(0, 0, 0);stroke-width:3.0;" d="M 91.2987, 214.932 L 85.281, 233.163 L 64.3518, 235.489 L 75.9343, 213.387 z "/>
<path style="fill:rgb(217, 1, 97);fill-opacity:1.0;fill-rule:evenodd;stroke:rgb(0, 0, 0);stroke-width:3.0;" d="M 200.366, 150.071 L 148.266, 152.709 L 57.5797, 136.804 L 134.736, 59.3991 z "/>
<path style="fill:rgb(12, 231, 255);fill-opacity:1.0;fill-rule:evenodd;stroke:rgb(0, 0, 0);stroke-width:3.0;" d="M 511.484, 395.968 L 436.244, 432.968 L 433.519, 429.858 L 507.891, 393.348 z "/>
<path style="fill:rgb(255, 71, 255);fill-opacity:1.0;fill-rule:evenodd;stroke:rgb(0, 0, 0);stroke-width:3.0;" d="M 536.767, 383.534 L 511.484, 395.968 L 507.891, 393.348 L 547.549, 373.879 L 550.193, 373.436 z "/>
<path style="fill:rgb(199, 124, 6);fill-opacity:1.0;fill-rule:evenodd;stroke:rgb(0, 0, 0);stroke-width:3.0;" d="M 271.242, 585.922 L 271.487, 588.217 L 238.036, 592.434 L 261.476, 576.134 L 264.306, 575.174 z "/>
<path style="fill:rgb(255, 249, 18);fill-opacity:1.0;fill-rule:evenodd;stroke:rgb(0, 0, 0);stroke-width:3.0;" d="M 600.387, 383.786 L 647.787, 435.594 L 618.072, 434.489 L 587.023, 375.625 z "/>
<path style="fill:rgb(255, 249, 18);fill-opacity:1.0;fill-rule:evenodd;stroke:rgb(0, 0, 0);stroke-width:3.0;" d="M 318.838, 466.921 L 232.452, 519.715 L 238.899, 499.678 L 309.994, 438.804 z "/>
<path style="fill:rgb(246, 17, 11);fill-opacity:1.0;fill-rule:evenodd;stroke:rgb(0, 0, 0);stroke-width:3.0;" d="M 404.827, 560.557 L 393.258, 571.32 L 392.549, 559.245 L 404.487, 553.58 z "/>
<path style="fill:rgb(246, 17, 11);fill-opacity:1.0;fill-rule:evenodd;stroke:rgb(0, 0, 0);stroke-width:3.0;" d="M 97.3723, 294.96 L 92.217, 296.871 L 109.484, 275.579 L 152.057, 269.787 z "/>
<path style="fill:rgb(246, 17, 11);fill-opacity:1.0;fill-rule:evenodd;stroke:rgb(0, 0, 0);stroke-width:3.0;" d="M 261.405, 576.184 L 245.594, 587.178 L 242.991, 584.505 L 251.587, 572.478 z "/>
<path style="fill:rgb(172, 240, 30);fill-opacity:1.0;fill-rule:evenodd;stroke:rgb(0, 0, 0);stroke-width:3.0;" d="M 572.136, 188.794 L 572.213, 189.737 L 551.375, 197.731 L 543.223, 190.824 L 541.556, 183.274 z "/>
<path style="fill:rgb(255, 252, 30);fill-opacity:1.0;fill-rule:evenodd;stroke:rgb(0, 0, 0);stroke-width:3.0;" d="M 373.462, 131.743 L 370.168, 141.289 L 296.074, 106.432 L 310.778, 103.166 z "/>
<path style="fill:rgb(255, 252, 30);fill-opacity:1.0;fill-rule:evenodd;stroke:rgb(0, 0, 0);stroke-width:3.0;" d="M 444.065, 204.587 L 489.481, 238.122 L 539.406, 286.017 L 535.223, 312.563 L 434.975, 202.993 z "/>
<path style="fill:rgb(255, 252, 30);fill-opacity:1.0;fill-rule:evenodd;stroke:rgb(0, 0, 0);stroke-width:3.0;" d="M 783.784, 233.187 L 782.65, 234.517 L 760.646, 232.354 L 780.744, 218.571 z "/>
<path style="fill:rgb(255, 252, 30);fill-opacity:1.0;fill-rule:evenodd;stroke:rgb(0, 0, 0);stroke-width:3.0;" d="M 297.643, 84.2269 L 324.231, 100.178 L 309.517, 103.446 L 282.581, 80.6778 z "/>
<path style="fill:rgb(255, 252, 30);fill-opacity:1.0;fill-rule:evenodd;stroke:rgb(0, 0, 0);stroke-width:3.0;" d="M 647.787, 435.594 L 721.67, 516.347 L 566.477, 511.98 L 617.482, 434.467 z "/>
<path style="fill:rgb(255, 95, 92);fill-opacity:1.0;fill-rule:evenodd;stroke:rgb(0, 0, 0);stroke-width:3.0;" d="M 235.039, 567.858 L 238.906, 579.943 L 238.254, 580.936 L 208.264, 572.309 L 210.121, 565.544 L 213.44, 565.224 z "/>
<path style="fill:rgb(240, 42, 7);fill-opacity:1.0;fill-rule:evenodd;stroke:rgb(0, 0, 0);stroke-width:3.0;" d="M 443.761, 137.746 L 391.282, 140.403 L 266.274, 65.4077 L 493.55, 64.2271 z "/>
<path style="fill:rgb(249, 209, 7);fill-opacity:1.0;fill-rule:evenodd;stroke:rgb(0, 0, 0);stroke-width:3.0;" d="M 752.382, 564.736 L 737.906, 557.937 L 745.012, 544.473 z "/>
<path style="fill:rgb(249, 209, 7);fill-opacity:1.0;fill-rule:evenodd;stroke:rgb(0, 0, 0);stroke-width:3.0;" d="M 403.972, 543.008 L 404.487, 553.58 L 398.154, 556.585 L 393.095, 540.148 L 400.225, 536.682 z "/>
<path style="fill:rgb(22, 252, 255);fill-opacity:1.0;fill-rule:evenodd;stroke:rgb(0, 0, 0);stroke-width:3.0;" d="M 712.671, 484.271 L 702.252, 495.124 L 693.013, 485.026 L 704.75, 462.168 z "/>
<path style="fill:rgb(22, 252, 255);fill-opacity:1.0;fill-rule:evenodd;stroke:rgb(0, 0, 0);stroke-width:3.0;" d="M 527.837, 43.3276 L 556.907, 55.903 L 554.319, 57.1543 L 548.637, 57.7717 L 525.337, 44.9017 L 524.33, 42.2643 z "/>
<path style="fill:rgb(22, 252, 255);fill-opacity:1.0;fill-rule:evenodd;stroke:rgb(0, 0, 0);stroke-width:3.0;" d="M 587.023, 375.625 L 618.072, 434.489 L 609.529, 434.172 L 581.292, 372.125 z "/>
<path style="fill:rgb(37, 66, 255);fill-opacity:1.0;fill-rule:evenodd;stroke:rgb(0, 0, 0);stroke-width:3.0;" d="M 192.731, 160.507 L 170.966, 258.599 L 91.7783, 278.787 L 95.3888, 202.541 L 113.831, 146.67 z "/>
<path style="fill:rgb(255, 252, 7);fill-opacity:1.0;fill-rule:evenodd;stroke:rgb(0, 0, 0);stroke-width:3.0;" d="M 52.8789, 257.381 L 39.0833, 234.674 L 30.3079, 205.558 L 86.6619, 192.917 z "/>
<path style="fill:rgb(255, 255, 57);fill-opacity:1.0;fill-rule:evenodd;stroke:rgb(0, 0, 0);stroke-width:3.0;" d="M 425.63, 156.407 L 409.933, 163.35 L 392.005, 148.119 L 429.17, 140.231 z "/>
<path style="fill:rgb(255, 255, 57);fill-opacity:1.0;fill-rule:evenodd;stroke:rgb(0, 0, 0);stroke-width:3.0;" d="M 749.121, 188.989 L 747.569, 201.097 L 746.729, 204.735 L 741.86, 202.568 L 737.386, 191.744 L 739.386, 187.913 z "/>
<path style="fill:rgb(117, 44, 179);fill-opacity:1.0;fill-rule:evenodd;stroke:rgb(0, 0, 0);stroke-width:3.0;" d="M 749.121, 188.989 L 739.386, 187.913 L 751.094, 165.486 L 752.204, 164.943 z "/>
<path style="fill:rgb(255, 11, 58);fill-opacity:1.0;fill-rule:evenodd;stroke:rgb(0, 0, 0);stroke-width:3.0;" d="M 548.372, 326.935 L 574.316, 355.291 L 550.193, 373.436 L 439.743, 391.965 L 470.834, 362.723 L 526.342, 324.094 z "/>
<path style="fill:rgb(255, 255, 10);fill-opacity:1.0;fill-rule:evenodd;stroke:rgb(0, 0, 0);stroke-width:3.0;" d="M 719.965, 36.2245 L 711.544, 38.0777 L 675.587, 35.1669 L 744.98, 6.72265 z "/>
<path style="fill:rgb(249, 255, 30);fill-opacity:1.0;fill-rule:evenodd;stroke:rgb(0, 0, 0);stroke-width:3.0;" d="M 486.097, 404.046 L 482.621, 405.753 L 426.017, 414.627 L 425.111, 405.727 L 439.743, 391.965 L 468.496, 387.141 z "/>
<path style="fill:rgb(255, 18, 220);fill-opacity:1.0;fill-rule:evenodd;stroke:rgb(0, 0, 0);stroke-width:3.0;" d="M 536.512, 51.0745 L 541.746, 53.9653 L 544.299, 61.9993 L 540.033, 64.062 L 528.553, 53.3276 L 526.895, 48.9852 z "/>
<path style="fill:rgb(255, 7, 7);fill-opacity:1.0;fill-rule:evenodd;stroke:rgb(0, 0, 0);stroke-width:3.0;" d="M 283.811, 381.109 L 287.232, 393.186 L 268.054, 414.36 L 268.06, 414.102 L 283.186, 380.788 z "/>
<path style="fill:rgb(255, 7, 7);fill-opacity:1.0;fill-rule:evenodd;stroke:rgb(0, 0, 0);stroke-width:3.0;" d="M 563.863, 150.392 L 562.516, 140.676 L 562.859, 139.467 L 580.413, 132.652 z "/>
<path style="fill:rgb(255, 7, 7);fill-opacity:1.0;fill-rule:evenodd;stroke:rgb(0, 0, 0);stroke-width:3.0;" d="M 577.997, 117.568 L 557.711, 121.408 L 560.647, 114.484 L 583.784, 106.228 z "/>
<path style="fill:rgb(255, 40, 11);fill-opacity:1.0;fill-rule:evenodd;stroke:rgb(0, 0, 0);stroke-width:3.0;" d="M 34.346, 185.001 L 23.5718, 183.209 L 20.8187, 174.075 L 41.1231, 166.832 z "/>
<path style="fill:rgb(255, 40, 11);fill-opacity:1.0;fill-rule:evenodd;stroke:rgb(0, 0, 0);stroke-width:3.0;" d="M 248.234, 559.783 L 243.958, 563.973 L 234.144, 565.061 L 228.726, 548.131 L 233.547, 534.118 z "/>
<path style="fill:rgb(255, 40, 11);fill-opacity:1.0;fill-rule:evenodd;stroke:rgb(0, 0, 0);stroke-width:3.0;" d="M 707.746, 127.992 L 671.16, 155.379 L 653.547, 154.151 L 692.628, 125.145 L 706.7, 124.432 z "/>
<path style="fill:rgb(14, 102, 255);fill-opacity:1.0;fill-rule:evenodd;stroke:rgb(0, 0, 0);stroke-width:3.0;" d="M 45.0621, 156.272 L 41.1231, 166.832 L 35.9893, 168.663 L 24.2719, 154.798 L 37.5282, 153.765 z "/>
<path style="fill:rgb(255, 152, 255);fill-opacity:1.0;fill-rule:evenodd;stroke:rgb(0, 0, 0);stroke-width:3.0;" d="M 429.17, 140.231 L 392.005, 148.119 L 383.393, 140.803 L 429.557, 138.465 z "/>
<path style="fill:rgb(252, 45, 255);fill-opacity:1.0;fill-rule:evenodd;stroke:rgb(0, 0, 0);stroke-width:3.0;" d="M 283.186, 380.788 L 268.06, 414.102 L 268.181, 408.677 L 278.01, 378.13 z "/>
<path style="fill:rgb(255, 252, 52);fill-opacity:1.0;fill-rule:evenodd;stroke:rgb(0, 0, 0);stroke-width:3.0;" d="M 403.585, 535.049 L 398.884, 537.334 L 390.768, 528.896 L 389.317, 504.175 L 401.955, 501.569 z "/>
<path style="fill:rgb(187, 134, 255);fill-opacity:1.0;fill-rule:evenodd;stroke:rgb(0, 0, 0);stroke-width:3.0;" d="M 595.759, 71.3739 L 482.882, 135.765 L 467.094, 136.565 L 448.296, 131.05 L 471.085, 97.399 L 522.162, 72.7025 L 587.871, 62.7189 z "/>
<path style="fill:rgb(29, 246, 255);fill-opacity:1.0;fill-rule:evenodd;stroke:rgb(0, 0, 0);stroke-width:3.0;" d="M 599.487, 75.4648 L 583.784, 106.228 L 580.215, 107.502 L 584.931, 77.5506 L 595.759, 71.3739 z "/>
<path style="fill:rgb(21, 255, 255);fill-opacity:1.0;fill-rule:evenodd;stroke:rgb(0, 0, 0);stroke-width:3.0;" d="M 580.215, 107.502 L 503.997, 134.696 L 482.882, 135.765 L 584.931, 77.5506 z "/>
<path style="fill:rgb(255, 32, 7);fill-opacity:1.0;fill-rule:evenodd;stroke:rgb(0, 0, 0);stroke-width:3.0;" d="M 794.002, 44.7532 L 756.942, 41.753 L 788.557, 28.2646 z "/>
<path style="fill:rgb(255, 1, 34);fill-opacity:1.0;fill-rule:evenodd;stroke:rgb(0, 0, 0);stroke-width:3.0;" d="M 756.869, 577.071 L 754.931, 581.837 L 731.246, 585.329 L 754.477, 570.495 z "/>
<path style="fill:rgb(255, 1, 34);fill-opacity:1.0;fill-rule:evenodd;stroke:rgb(0, 0, 0);stroke-width:3.0;" d="M 731.083, 465.091 L 712.671, 484.271 L 691.99, 426.563 L 709.389, 424.771 z "/>
<path style="fill:rgb(23, 249, 255);fill-opacity:1.0;fill-rule:evenodd;stroke:rgb(0, 0, 0);stroke-width:3.0;" d="M 96.8353, 173.504 L 86.6619, 192.917 L 74.1087, 195.733 L 43.2085, 161.241 L 45.0621, 156.272 z "/>
<path style="fill:rgb(255, 202, 20);fill-opacity:1.0;fill-rule:evenodd;stroke:rgb(0, 0, 0);stroke-width:3.0;" d="M 728.708, 575.365 L 721.057, 589.863 L 699.214, 583.242 L 699.263, 582.813 L 703.574, 577.179 L 727.644, 574.728 z "/>
<path style="fill:rgb(255, 15, 15);fill-opacity:1.0;fill-rule:evenodd;stroke:rgb(0, 0, 0);stroke-width:3.0;" d="M 557.561, 168.828 L 553.675, 176.167 L 552.392, 176.003 L 540.895, 170.198 L 549.374, 155.977 z "/>
<path style="fill:rgb(255, 15, 15);fill-opacity:1.0;fill-rule:evenodd;stroke:rgb(0, 0, 0);stroke-width:3.0;" d="M 479.785, 482.66 L 425.354, 495.29 L 414.077, 487.552 L 423.377, 478.345 L 463.44, 464.006 z "/>
<path style="fill:rgb(228, 0, 13);fill-opacity:1.0;fill-rule:evenodd;stroke:rgb(0, 0, 0);stroke-width:3.0;" d="M 619.238, 128.861 L 583.749, 130.658 L 577.384, 118.767 L 578.09, 117.385 z "/>
<path style="fill:rgb(112, 8, 243);fill-opacity:1.0;fill-rule:evenodd;stroke:rgb(0, 0, 0);stroke-width:3.0;" d="M 644.64, 127.574 L 619.238, 128.861 L 578.09, 117.385 L 586.019, 101.85 z "/>
<path style="fill:rgb(12, 2, 231);fill-opacity:1.0;fill-rule:evenodd;stroke:rgb(0, 0, 0);stroke-width:3.0;" d="M 736.868, 192.736 L 730.053, 205.79 L 722.048, 202.341 L 721.179, 201.054 L 722.224, 190.429 z "/>
<path style="fill:rgb(12, 2, 231);fill-opacity:1.0;fill-rule:evenodd;stroke:rgb(0, 0, 0);stroke-width:3.0;" d="M 28.9598, 312.558 L 15.6289, 313.062 L 9.79049, 299.688 L 23.1901, 296.272 z "/>
<path style="fill:rgb(140, 217, 231);fill-opacity:1.0;fill-rule:evenodd;stroke:rgb(0, 0, 0);stroke-width:3.0;" d="M 690.726, 423.036 L 683.972, 475.144 L 674.784, 465.102 L 652.713, 426.939 L 689.988, 420.978 z "/>
<path style="fill:rgb(140, 217, 231);fill-opacity:1.0;fill-rule:evenodd;stroke:rgb(0, 0, 0);stroke-width:3.0;" d="M 93.0084, 252.81 L 91.7783, 278.787 L 68.2408, 284.787 L 80.8495, 246.588 z "/>
<path style="fill:rgb(20, 217, 255);fill-opacity:1.0;fill-rule:evenodd;stroke:rgb(0, 0, 0);stroke-width:3.0;" d="M 93.0084, 252.81 L 80.8495, 246.588 L 95.3888, 202.541 z "/>
<path style="fill:rgb(255, 237, 16);fill-opacity:1.0;fill-rule:evenodd;stroke:rgb(0, 0, 0);stroke-width:3.0;" d="M 784.742, 434.052 L 769.372, 435.508 L 786.37, 361.24 z "/>
<path style="fill:rgb(55, 255, 223);fill-opacity:1.0;fill-rule:evenodd;stroke:rgb(0, 0, 0);stroke-width:3.0;" d="M 434.975, 202.993 L 456.248, 226.244 L 378.011, 310.097 L 316.729, 296.57 L 294.084, 270.726 L 350.687, 188.21 z "/>
<path style="fill:rgb(79, 246, 255);fill-opacity:1.0;fill-rule:evenodd;stroke:rgb(0, 0, 0);stroke-width:3.0;" d="M 752.382, 564.736 L 754.477, 570.495 L 731.246, 585.329 L 722.792, 586.576 L 737.906, 557.937 z "/>
<path style="fill:rgb(255, 1, 66);fill-opacity:1.0;fill-rule:evenodd;stroke:rgb(0, 0, 0);stroke-width:3.0;" d="M 158.455, 263.937 L 159.158, 266.518 L 152.057, 269.787 L 109.484, 275.579 L 110.82, 273.932 L 157.238, 262.098 z "/>
<path style="fill:rgb(83, 59, 228);fill-opacity:1.0;fill-rule:evenodd;stroke:rgb(0, 0, 0);stroke-width:3.0;" d="M 788.05, 491.075 L 778.754, 499.884 L 767.084, 470.007 z "/>
<path style="fill:rgb(83, 59, 228);fill-opacity:1.0;fill-rule:evenodd;stroke:rgb(0, 0, 0);stroke-width:3.0;" d="M 761.31, 201.463 L 759.666, 209.92 L 757.385, 215.793 L 754.5, 215.912 L 751.209, 213.716 L 747.367, 207.659 L 749.396, 199.237 z "/>
<path style="fill:rgb(249, 252, 29);fill-opacity:1.0;fill-rule:evenodd;stroke:rgb(0, 0, 0);stroke-width:3.0;" d="M 127.197, 48.9843 L 122.972, 52.2801 L 108.049, 49.8898 L 117.67, 35.8219 z "/>
<path style="fill:rgb(255, 2, 59);fill-opacity:1.0;fill-rule:evenodd;stroke:rgb(0, 0, 0);stroke-width:3.0;" d="M 282.581, 80.6778 L 309.517, 103.446 L 296.066, 106.434 L 279.438, 79.937 z "/>
<path style="fill:rgb(255, 33, 43);fill-opacity:1.0;fill-rule:evenodd;stroke:rgb(0, 0, 0);stroke-width:3.0;" d="M 392.944, 565.964 L 314.087, 505.08 L 388.109, 483.599 z "/>
<path style="fill:rgb(255, 217, 33);fill-opacity:1.0;fill-rule:evenodd;stroke:rgb(0, 0, 0);stroke-width:3.0;" d="M 95.0726, 151.359 L 87.1174, 170.27 L 71.2749, 164.997 L 71.8, 161.663 L 75.9977, 154.2 L 92.1114, 149.321 z "/>
<path style="fill:rgb(255, 67, 209);fill-opacity:1.0;fill-rule:evenodd;stroke:rgb(0, 0, 0);stroke-width:3.0;" d="M 704.75, 462.168 L 693.013, 485.026 L 683.972, 475.144 L 690.726, 423.036 z "/>
<path style="fill:rgb(255, 212, 33);fill-opacity:1.0;fill-rule:evenodd;stroke:rgb(0, 0, 0);stroke-width:3.0;" d="M 489.481, 238.122 L 453.478, 211.538 L 461.587, 211.361 z "/>
<path style="fill:rgb(255, 19, 223);fill-opacity:1.0;fill-rule:evenodd;stroke:rgb(0, 0, 0);stroke-width:3.0;" d="M 768.083, 441.14 L 753.195, 506.188 L 722.002, 448.213 L 743.704, 424.619 z "/>
<path style="fill:rgb(199, 234, 8);fill-opacity:1.0;fill-rule:evenodd;stroke:rgb(0, 0, 0);stroke-width:3.0;" d="M 768.083, 441.14 L 743.704, 424.619 L 781.192, 383.864 z "/>
<path style="fill:rgb(24, 20, 119);fill-opacity:1.0;fill-rule:evenodd;stroke:rgb(0, 0, 0);stroke-width:3.0;" d="M 456.134, 418.755 L 443.676, 424.871 L 426.545, 419.806 L 426.289, 417.292 z "/>
<path style="fill:rgb(255, 252, 103);fill-opacity:1.0;fill-rule:evenodd;stroke:rgb(0, 0, 0);stroke-width:3.0;" d="M 350.567, 344.924 L 306.464, 427.583 L 297.435, 398.878 L 336.414, 336.653 z "/>
<path style="fill:rgb(255, 19, 78);fill-opacity:1.0;fill-rule:evenodd;stroke:rgb(0, 0, 0);stroke-width:3.0;" d="M 336.414, 336.653 L 297.435, 398.878 L 284.532, 357.861 L 298.488, 314.49 z "/>
<path style="fill:rgb(255, 65, 15);fill-opacity:1.0;fill-rule:evenodd;stroke:rgb(0, 0, 0);stroke-width:3.0;" d="M 249.427, 558.615 L 250.029, 542.641 L 272.723, 535.787 z "/>
<path style="fill:rgb(255, 0, 51);fill-opacity:1.0;fill-rule:evenodd;stroke:rgb(0, 0, 0);stroke-width:3.0;" d="M 609.529, 434.172 L 592.019, 433.521 L 584.974, 380.215 z "/>
<path style="fill:rgb(83, 177, 255);fill-opacity:1.0;fill-rule:evenodd;stroke:rgb(0, 0, 0);stroke-width:3.0;" d="M 126.582, 21.3055 L 126.682, 43.4288 L 112.131, 20.9364 L 119.24, 14.5709 z "/>
<path style="fill:rgb(107, 91, 103);fill-opacity:1.0;fill-rule:evenodd;stroke:rgb(0, 0, 0);stroke-width:3.0;" d="M 518.507, 265.967 L 493.414, 241.894 L 512.466, 237.864 z "/>
<path style="fill:rgb(255, 107, 8);fill-opacity:1.0;fill-rule:evenodd;stroke:rgb(0, 0, 0);stroke-width:3.0;" d="M 459.985, 17.7127 L 434.733, 15.6684 L 446.376, 6.54738 z "/>
</svg>