<?xml version="1.0" encoding="iso-8859-1" standalone="no"?>
<!DOCTYPE svg PUBLIC "-//W3C//DTD SVG 1.0//EN" "http://www.w3.org/TR/2001/REC-SVG-20010904/DTD/svg10.dtd">
<svg xmlns="http://www.w3.org/2000/svg" width="800" height="600">
<path style="fill:rgb(0, 0, 0);fill-opacity:0.0;fill-rule:evenodd;stroke:rgb(0, 0, 0);stroke-width:0.0;" d="M 0, 600 L 800, 600 L 800, 0 L 0, 0 z "/>
<path style="fill:rgb(255, 140, 255);fill-opacity:1.0;fill-rule:evenodd;stroke:rgb(0, 0, 0);stroke-width:3.0;" d="M 176.142, 175.464 L 166.526, 175.666 L 159.482, 170.787 L 165.8, 163.343 z "/>
<path style="fill:rgb(255, 140, 255);fill-opacity:1.0;fill-rule:evenodd;stroke:rgb(0, 0, 0);stroke-width:3.0;" d="M 436.725, 388.718 L 408.984, 401.264 L 408.46, 399.145 L 439.512, 375.157 z "/>
<path style="fill:rgb(115, 255, 70);fill-opacity:1.0;fill-rule:evenodd;stroke:rgb(0, 0, 0);stroke-width:3.0;" d="M 517.932, 215.081 L 488.423, 236.171 L 505.458, 202.61 z "/>
<path style="fill:rgb(115, 255, 70);fill-opacity:1.0;fill-rule:evenodd;stroke:rgb(0, 0, 0);stroke-width:3.0;" d="M 439.948, 373.035 L 439.512, 375.157 L 408.46, 399.145 L 404.968, 385.011 L 413.78, 371.846 z "/>
<path style="fill:rgb(226, 72, 13);fill-opacity:1.0;fill-rule:evenodd;stroke:rgb(0, 0, 0);stroke-width:3.0;" d="M 261.013, 252.565 L 267.562, 269.411 L 209, 323.461 L 165.331, 303.198 L 196.215, 245.38 z "/>
<path style="fill:rgb(226, 72, 13);fill-opacity:1.0;fill-rule:evenodd;stroke:rgb(0, 0, 0);stroke-width:3.0;" d="M 518.399, 215.548 L 492.067, 254.888 L 475.128, 262.364 L 488.423, 236.171 L 517.932, 215.081 z "/>
<path style="fill:rgb(226, 72, 13);fill-opacity:1.0;fill-rule:evenodd;stroke:rgb(0, 0, 0);stroke-width:3.0;" d="M 523.178, 167.699 L 508.96, 195.712 L 471.088, 135.616 L 470.885, 134.685 L 483.592, 112.229 z "/>
<path style="fill:rgb(226, 72, 13);fill-opacity:1.0;fill-rule:evenodd;stroke:rgb(0, 0, 0);stroke-width:3.0;" d="M 475.208, 379.193 L 464.766, 392.986 L 450.141, 398.86 L 462.982, 372.695 z "/>
<path style="fill:rgb(226, 72, 13);fill-opacity:1.0;fill-rule:evenodd;stroke:rgb(0, 0, 0);stroke-width:3.0;" d="M 771.878, 218.772 L 739.973, 276.019 L 533.053, 416.985 L 478.309, 341.464 L 551.024, 193.298 z "/>
<path style="fill:rgb(215, 130, 234);fill-opacity:1.0;fill-rule:evenodd;stroke:rgb(0, 0, 0);stroke-width:3.0;" d="M 424.962, 355.14 L 399.447, 352.94 L 399.477, 351.317 L 429.691, 348.076 z "/>
<path style="fill:rgb(246, 59, 11);fill-opacity:1.0;fill-rule:evenodd;stroke:rgb(0, 0, 0);stroke-width:3.0;" d="M 343.434, 359.921 L 327.135, 344.33 L 363.237, 316.641 L 368.157, 316.23 z "/>
<path style="fill:rgb(246, 59, 11);fill-opacity:1.0;fill-rule:evenodd;stroke:rgb(0, 0, 0);stroke-width:3.0;" d="M 488.972, 419.119 L 473.027, 415.941 L 477.518, 406.527 L 480.088, 403.89 z "/>
<path style="fill:rgb(246, 59, 11);fill-opacity:1.0;fill-rule:evenodd;stroke:rgb(0, 0, 0);stroke-width:3.0;" d="M 547.181, 480.381 L 515.518, 465.689 L 524.248, 422.984 L 536.168, 414.863 z "/>
<path style="fill:rgb(246, 59, 11);fill-opacity:1.0;fill-rule:evenodd;stroke:rgb(0, 0, 0);stroke-width:3.0;" d="M 519.294, 398.005 L 506.073, 426.78 L 494.332, 428.305 L 493.756, 427.318 L 516.845, 394.626 z "/>
<path style="fill:rgb(246, 59, 11);fill-opacity:1.0;fill-rule:evenodd;stroke:rgb(0, 0, 0);stroke-width:3.0;" d="M 485.814, 322.586 L 485.482, 326.849 L 475.376, 347.441 L 470.21, 327.869 L 470.597, 312.065 z "/>
<path style="fill:rgb(255, 255, 45);fill-opacity:1.0;fill-rule:evenodd;stroke:rgb(0, 0, 0);stroke-width:3.0;" d="M 133.591, 362.62 L 121.255, 262.536 L 195.084, 200.336 L 229.054, 183.9 z "/>
<path style="fill:rgb(237, 0, 255);fill-opacity:1.0;fill-rule:evenodd;stroke:rgb(0, 0, 0);stroke-width:3.0;" d="M 509.134, 278.458 L 471.518, 286.976 L 512.852, 262.956 z "/>
<path style="fill:rgb(237, 0, 255);fill-opacity:1.0;fill-rule:evenodd;stroke:rgb(0, 0, 0);stroke-width:3.0;" d="M 511.932, 272.953 L 515.237, 253.016 L 516.924, 245.981 L 537.459, 220.938 z "/>
<path style="fill:rgb(237, 0, 255);fill-opacity:1.0;fill-rule:evenodd;stroke:rgb(0, 0, 0);stroke-width:3.0;" d="M 481.644, 187.842 L 428.602, 289.463 L 426.559, 291.019 L 400.387, 259.273 L 447.986, 175.152 z "/>
<path style="fill:rgb(237, 0, 255);fill-opacity:1.0;fill-rule:evenodd;stroke:rgb(0, 0, 0);stroke-width:3.0;" d="M 326.104, 20.9596 L 319.383, 28.8393 L 308.046, 36.0175 L 317.774, 17.8059 z "/>
<path style="fill:rgb(237, 0, 255);fill-opacity:1.0;fill-rule:evenodd;stroke:rgb(0, 0, 0);stroke-width:3.0;" d="M 217.366, 345.641 L 178.727, 396.963 L 108.948, 426.411 L 194.928, 328.36 z "/>
<path style="fill:rgb(223, 234, 55);fill-opacity:1.0;fill-rule:evenodd;stroke:rgb(0, 0, 0);stroke-width:3.0;" d="M 308.281, 275.941 L 297.123, 294.864 L 285.51, 295.191 L 304.138, 270.804 z "/>
<path style="fill:rgb(223, 234, 55);fill-opacity:1.0;fill-rule:evenodd;stroke:rgb(0, 0, 0);stroke-width:3.0;" d="M 13.4651, 62.9638 L 16.4559, 81.9465 L 13.5421, 83.2479 L 7.50445, 54.0941 L 8.37556, 51.006 z "/>
<path style="fill:rgb(223, 234, 55);fill-opacity:1.0;fill-rule:evenodd;stroke:rgb(0, 0, 0);stroke-width:3.0;" d="M 194.928, 328.36 L 180.365, 344.968 L 170.081, 309.223 z "/>
<path style="fill:rgb(187, 255, 255);fill-opacity:1.0;fill-rule:evenodd;stroke:rgb(0, 0, 0);stroke-width:3.0;" d="M 252.932, 231.776 L 242.226, 234.033 L 216.696, 207.036 L 232.102, 178.194 z "/>
<path style="fill:rgb(187, 255, 255);fill-opacity:1.0;fill-rule:evenodd;stroke:rgb(0, 0, 0);stroke-width:3.0;" d="M 524.073, 165.936 L 523.178, 167.699 L 483.592, 112.229 L 491.187, 98.8077 z "/>
<path style="fill:rgb(187, 255, 255);fill-opacity:1.0;fill-rule:evenodd;stroke:rgb(0, 0, 0);stroke-width:3.0;" d="M 621.915, 56.5037 L 622.857, 59.4896 L 605.604, 85.266 L 591.429, 44.414 z "/>
<path style="fill:rgb(187, 255, 255);fill-opacity:1.0;fill-rule:evenodd;stroke:rgb(0, 0, 0);stroke-width:3.0;" d="M 140.667, 158.288 L 146.54, 121.175 L 159.909, 104.446 L 198.74, 90.6516 z "/>
<path style="fill:rgb(132, 175, 240);fill-opacity:1.0;fill-rule:evenodd;stroke:rgb(0, 0, 0);stroke-width:3.0;" d="M 222.847, 96.1217 L 195.911, 127.861 L 171.259, 122.658 L 198.74, 90.6516 L 206.721, 87.8166 z "/>
<path style="fill:rgb(132, 175, 240);fill-opacity:1.0;fill-rule:evenodd;stroke:rgb(0, 0, 0);stroke-width:3.0;" d="M 248.753, 240.936 L 249.744, 244.936 L 247.456, 251.062 L 239.455, 250.174 L 223.748, 228.885 L 236.237, 227.7 z "/>
<path style="fill:rgb(132, 175, 240);fill-opacity:1.0;fill-rule:evenodd;stroke:rgb(0, 0, 0);stroke-width:3.0;" d="M 555.815, 183.536 L 553.103, 163.701 L 599.75, 94.0109 z "/>
<path style="fill:rgb(231, 246, 10);fill-opacity:1.0;fill-rule:evenodd;stroke:rgb(0, 0, 0);stroke-width:3.0;" d="M 269.652, 315.953 L 265.152, 321.845 L 234.329, 316.871 L 237.242, 313.044 L 266.163, 307.641 z "/>
<path style="fill:rgb(255, 0, 212);fill-opacity:1.0;fill-rule:evenodd;stroke:rgb(0, 0, 0);stroke-width:3.0;" d="M 516.845, 394.626 L 493.756, 427.318 L 480.088, 403.89 L 505.019, 378.311 z "/>
<path style="fill:rgb(249, 252, 29);fill-opacity:1.0;fill-rule:evenodd;stroke:rgb(0, 0, 0);stroke-width:3.0;" d="M 152.119, 361.235 L 158.428, 369.984 L 153.689, 375.388 L 132.01, 365.58 L 135.879, 358.336 z "/>
<path style="fill:rgb(249, 252, 29);fill-opacity:1.0;fill-rule:evenodd;stroke:rgb(0, 0, 0);stroke-width:3.0;" d="M 444.859, 366.255 L 442.843, 387.246 L 435.764, 402.653 L 434.513, 399.483 L 442.052, 362.799 z "/>
<path style="fill:rgb(249, 252, 29);fill-opacity:1.0;fill-rule:evenodd;stroke:rgb(0, 0, 0);stroke-width:3.0;" d="M 120.795, 258.804 L 118.175, 237.548 L 147.75, 223.238 z "/>
<path style="fill:rgb(234, 2, 18);fill-opacity:1.0;fill-rule:evenodd;stroke:rgb(0, 0, 0);stroke-width:3.0;" d="M 121.255, 262.536 L 120.846, 259.217 L 150.09, 222.106 L 195.084, 200.336 z "/>
<path style="fill:rgb(255, 117, 9);fill-opacity:1.0;fill-rule:evenodd;stroke:rgb(0, 0, 0);stroke-width:3.0;" d="M 416.31, 298.823 L 352.188, 347.649 L 350.114, 348.116 L 393.853, 270.819 z "/>
<path style="fill:rgb(255, 237, 39);fill-opacity:1.0;fill-rule:evenodd;stroke:rgb(0, 0, 0);stroke-width:3.0;" d="M 582.915, 102.573 L 570.142, 138.245 L 520.466, 212.459 L 543.317, 156.766 L 574.004, 92.0015 z "/>
<path style="fill:rgb(249, 117, 255);fill-opacity:1.0;fill-rule:evenodd;stroke:rgb(0, 0, 0);stroke-width:3.0;" d="M 113.949, 189.407 L 54.6681, 258.449 L 83.9046, 199.552 L 100.169, 179.2 z "/>
<path style="fill:rgb(249, 117, 255);fill-opacity:1.0;fill-rule:evenodd;stroke:rgb(0, 0, 0);stroke-width:3.0;" d="M 342.493, 318.374 L 337.489, 318.792 L 307.898, 276.59 L 308.281, 275.941 z "/>
<path style="fill:rgb(249, 117, 255);fill-opacity:1.0;fill-rule:evenodd;stroke:rgb(0, 0, 0);stroke-width:3.0;" d="M 122.324, 471.88 L 106.603, 492.761 L 93.9334, 495.163 L 122.079, 435.187 z "/>
<path style="fill:rgb(255, 128, 21);fill-opacity:1.0;fill-rule:evenodd;stroke:rgb(0, 0, 0);stroke-width:3.0;" d="M 385.133, 351.706 L 375.842, 394.353 L 362.849, 380.193 L 377.16, 351.019 z "/>
<path style="fill:rgb(255, 128, 21);fill-opacity:1.0;fill-rule:evenodd;stroke:rgb(0, 0, 0);stroke-width:3.0;" d="M 555.815, 183.536 L 538.151, 219.527 L 536.133, 220.932 L 553.898, 169.516 z "/>
<path style="fill:rgb(255, 128, 21);fill-opacity:1.0;fill-rule:evenodd;stroke:rgb(0, 0, 0);stroke-width:3.0;" d="M 355.063, 317.324 L 342.726, 318.355 L 355.066, 299.744 L 368.317, 296.313 z "/>
<path style="fill:rgb(255, 128, 21);fill-opacity:1.0;fill-rule:evenodd;stroke:rgb(0, 0, 0);stroke-width:3.0;" d="M 776.927, 246.043 L 776.434, 248.571 L 741.667, 272.98 L 756.869, 245.704 z "/>
<path style="fill:rgb(255, 128, 21);fill-opacity:1.0;fill-rule:evenodd;stroke:rgb(0, 0, 0);stroke-width:3.0;" d="M 332.852, 334.001 L 315.771, 320.607 L 333.691, 319.11 z "/>
<path style="fill:rgb(255, 128, 21);fill-opacity:1.0;fill-rule:evenodd;stroke:rgb(0, 0, 0);stroke-width:3.0;" d="M 73.0765, 155.382 L 49.3981, 149.124 L 47.5068, 144.376 L 80.8386, 132.535 z "/>
<path style="fill:rgb(187, 252, 255);fill-opacity:1.0;fill-rule:evenodd;stroke:rgb(0, 0, 0);stroke-width:3.0;" d="M 136.354, 451.711 L 129.014, 458.392 L 126.291, 426.212 L 130.458, 417.333 L 135.945, 415.018 z "/>
<path style="fill:rgb(187, 252, 255);fill-opacity:1.0;fill-rule:evenodd;stroke:rgb(0, 0, 0);stroke-width:3.0;" d="M 464.657, 295.837 L 472.034, 271.169 L 485.305, 264.99 z "/>
<path style="fill:rgb(187, 252, 255);fill-opacity:1.0;fill-rule:evenodd;stroke:rgb(0, 0, 0);stroke-width:3.0;" d="M 133.591, 362.62 L 118.415, 391.031 L 113.755, 380.335 L 120.456, 367.838 L 133.5, 361.879 z "/>
<path style="fill:rgb(187, 252, 255);fill-opacity:1.0;fill-rule:evenodd;stroke:rgb(0, 0, 0);stroke-width:3.0;" d="M 524.073, 165.936 L 491.187, 98.8077 L 505.617, 73.3062 L 572.424, 70.6783 z "/>
<path style="fill:rgb(255, 228, 146);fill-opacity:1.0;fill-rule:evenodd;stroke:rgb(0, 0, 0);stroke-width:3.0;" d="M 239.455, 250.174 L 201.211, 245.934 L 214.322, 216.11 z "/>
<path style="fill:rgb(209, 31, 249);fill-opacity:1.0;fill-rule:evenodd;stroke:rgb(0, 0, 0);stroke-width:3.0;" d="M 442.099, 327.437 L 413.906, 333.775 L 481.678, 249.461 z "/>
<path style="fill:rgb(255, 16, 37);fill-opacity:1.0;fill-rule:evenodd;stroke:rgb(0, 0, 0);stroke-width:3.0;" d="M 512.852, 262.956 L 471.518, 286.976 L 470.422, 287.224 L 515.686, 219.601 L 524.157, 215.829 z "/>
<path style="fill:rgb(255, 16, 37);fill-opacity:1.0;fill-rule:evenodd;stroke:rgb(0, 0, 0);stroke-width:3.0;" d="M 131.321, 140.219 L 113.956, 161.949 L 109.191, 148.612 L 124.118, 118.543 z "/>
<path style="fill:rgb(255, 16, 37);fill-opacity:1.0;fill-rule:evenodd;stroke:rgb(0, 0, 0);stroke-width:3.0;" d="M 482.489, 188.161 L 491.564, 229.983 L 482.02, 248.787 L 428.602, 289.463 L 481.644, 187.842 z "/>
<path style="fill:rgb(255, 16, 37);fill-opacity:1.0;fill-rule:evenodd;stroke:rgb(0, 0, 0);stroke-width:3.0;" d="M 481.678, 249.461 L 413.906, 333.775 L 401.214, 336.628 L 467.161, 260.102 L 482.02, 248.787 z "/>
<path style="fill:rgb(163, 18, 255);fill-opacity:1.0;fill-rule:evenodd;stroke:rgb(0, 0, 0);stroke-width:3.0;" d="M 170.081, 309.223 L 176.152, 330.326 L 151.441, 329.203 L 164.436, 304.875 z "/>
<path style="fill:rgb(252, 246, 23);fill-opacity:1.0;fill-rule:evenodd;stroke:rgb(0, 0, 0);stroke-width:3.0;" d="M 180.365, 344.968 L 165.16, 362.306 L 152.914, 353.628 L 179.144, 340.725 z "/>
<path style="fill:rgb(194, 59, 110);fill-opacity:1.0;fill-rule:evenodd;stroke:rgb(0, 0, 0);stroke-width:3.0;" d="M 411.587, 272.858 L 406.361, 286.416 L 393.853, 270.819 L 400.387, 259.273 z "/>
<path style="fill:rgb(194, 59, 110);fill-opacity:1.0;fill-rule:evenodd;stroke:rgb(0, 0, 0);stroke-width:3.0;" d="M 316.534, 373.358 L 337.127, 382.913 L 324.322, 417.043 L 284.631, 397.447 L 228.948, 354.561 z "/>
<path style="fill:rgb(194, 59, 110);fill-opacity:1.0;fill-rule:evenodd;stroke:rgb(0, 0, 0);stroke-width:3.0;" d="M 94.2747, 486.942 L 69.3004, 482.981 L 96.7727, 431.549 L 102.388, 429.179 z "/>
<path style="fill:rgb(194, 59, 110);fill-opacity:1.0;fill-rule:evenodd;stroke:rgb(0, 0, 0);stroke-width:3.0;" d="M 487.505, 418.826 L 475.472, 443.608 L 469.515, 442.603 L 464.215, 434.416 L 473.027, 415.941 z "/>
<path style="fill:rgb(194, 59, 110);fill-opacity:1.0;fill-rule:evenodd;stroke:rgb(0, 0, 0);stroke-width:3.0;" d="M 362.849, 380.193 L 350.536, 366.775 L 372.835, 359.835 z "/>
<path style="fill:rgb(194, 59, 110);fill-opacity:1.0;fill-rule:evenodd;stroke:rgb(0, 0, 0);stroke-width:3.0;" d="M 268.54, 271.928 L 224.011, 330.426 L 221.866, 329.431 L 222.778, 310.744 L 267.562, 269.411 z "/>
<path style="fill:rgb(255, 234, 26);fill-opacity:1.0;fill-rule:evenodd;stroke:rgb(0, 0, 0);stroke-width:3.0;" d="M 133.013, 357.928 L 96.1891, 326.77 L 120.237, 254.277 z "/>
<path style="fill:rgb(255, 234, 26);fill-opacity:1.0;fill-rule:evenodd;stroke:rgb(0, 0, 0);stroke-width:3.0;" d="M 515.518, 465.689 L 492.899, 455.193 L 505.903, 435.481 L 524.248, 422.984 z "/>
<path style="fill:rgb(255, 234, 26);fill-opacity:1.0;fill-rule:evenodd;stroke:rgb(0, 0, 0);stroke-width:3.0;" d="M 610.869, 33.1421 L 601.408, 48.3715 L 592.996, 45.0356 L 586.676, 37.9928 L 601.882, 27.2041 z "/>
<path style="fill:rgb(255, 234, 26);fill-opacity:1.0;fill-rule:evenodd;stroke:rgb(0, 0, 0);stroke-width:3.0;" d="M 375.913, 268.304 L 372.807, 272.987 L 325.118, 243.337 L 375.793, 176.992 z "/>
<path style="fill:rgb(255, 234, 26);fill-opacity:1.0;fill-rule:evenodd;stroke:rgb(0, 0, 0);stroke-width:3.0;" d="M 20.0771, 10.4926 L 41.8768, 28.2081 L 25.5166, 28.989 L 15.3398, 8.9924 z "/>
<path style="fill:rgb(255, 234, 26);fill-opacity:1.0;fill-rule:evenodd;stroke:rgb(0, 0, 0);stroke-width:3.0;" d="M 11.3613, 177.242 L 34.3693, 181.233 L 31.6291, 196.608 L 18.888, 190.387 L 5.12727, 176.393 z "/>
<path style="fill:rgb(255, 86, 9);fill-opacity:1.0;fill-rule:evenodd;stroke:rgb(0, 0, 0);stroke-width:3.0;" d="M 401.146, 593.796 L 383.277, 591.411 L 380.048, 573.746 z "/>
<path style="fill:rgb(11, 28, 255);fill-opacity:1.0;fill-rule:evenodd;stroke:rgb(0, 0, 0);stroke-width:3.0;" d="M 470.597, 312.065 L 469.699, 348.781 L 454.213, 356.589 L 465.57, 308.589 z "/>
<path style="fill:rgb(11, 28, 255);fill-opacity:1.0;fill-rule:evenodd;stroke:rgb(0, 0, 0);stroke-width:3.0;" d="M 594.636, 70.0649 L 574.758, 80.1365 L 585.955, 52.8461 z "/>
<path style="fill:rgb(11, 28, 255);fill-opacity:1.0;fill-rule:evenodd;stroke:rgb(0, 0, 0);stroke-width:3.0;" d="M 308.299, 359.329 L 311.691, 371.11 L 249.547, 342.275 L 262.702, 325.051 z "/>
<path style="fill:rgb(252, 199, 18);fill-opacity:1.0;fill-rule:evenodd;stroke:rgb(0, 0, 0);stroke-width:3.0;" d="M 446.912, 283.599 L 436.682, 291.81 L 436.353, 283.561 L 467.161, 260.102 z "/>
<path style="fill:rgb(252, 199, 18);fill-opacity:1.0;fill-rule:evenodd;stroke:rgb(0, 0, 0);stroke-width:3.0;" d="M 58.6708, 151.574 L 55.4497, 163.188 L 44.473, 166.513 L 23.0058, 163.662 L 34.8562, 148.87 L 40.6506, 146.812 z "/>
<path style="fill:rgb(226, 255, 11);fill-opacity:1.0;fill-rule:evenodd;stroke:rgb(0, 0, 0);stroke-width:3.0;" d="M 465.57, 308.589 L 454.213, 356.589 L 445.358, 361.054 L 447.945, 334.121 L 451.895, 314.904 L 459.111, 304.123 z "/>
<path style="fill:rgb(252, 255, 25);fill-opacity:1.0;fill-rule:evenodd;stroke:rgb(0, 0, 0);stroke-width:3.0;" d="M 498.589, 300.141 L 491.376, 314.838 L 483.09, 305.702 L 490.871, 299.577 z "/>
<path style="fill:rgb(252, 255, 25);fill-opacity:1.0;fill-rule:evenodd;stroke:rgb(0, 0, 0);stroke-width:3.0;" d="M 48.1253, 33.2859 L 53.6103, 84.1909 L 25.5166, 28.989 L 41.8768, 28.2081 z "/>
<path style="fill:rgb(252, 255, 25);fill-opacity:1.0;fill-rule:evenodd;stroke:rgb(0, 0, 0);stroke-width:3.0;" d="M 196.613, 196.507 L 116.713, 221.183 L 159.482, 170.787 z "/>
<path style="fill:rgb(252, 255, 25);fill-opacity:1.0;fill-rule:evenodd;stroke:rgb(0, 0, 0);stroke-width:3.0;" d="M 119.956, 413.857 L 108.948, 426.411 L 96.7727, 431.549 L 114.164, 398.99 L 118.33, 395.205 z "/>
<path style="fill:rgb(255, 21, 19);fill-opacity:1.0;fill-rule:evenodd;stroke:rgb(0, 0, 0);stroke-width:3.0;" d="M 375.759, 150.784 L 268.262, 307.249 L 264.936, 307.87 L 247.095, 300.101 L 375.733, 131.108 z "/>
<path style="fill:rgb(255, 21, 19);fill-opacity:1.0;fill-rule:evenodd;stroke:rgb(0, 0, 0);stroke-width:3.0;" d="M 182.703, 143.426 L 61.1967, 286.601 L 42.0101, 283.949 L 54.6681, 258.449 L 157.701, 138.449 z "/>
<path style="fill:rgb(10, 255, 255);fill-opacity:1.0;fill-rule:evenodd;stroke:rgb(0, 0, 0);stroke-width:3.0;" d="M 372.807, 272.987 L 349.01, 308.878 L 319.315, 250.934 L 325.118, 243.337 z "/>
<path style="fill:rgb(10, 255, 255);fill-opacity:1.0;fill-rule:evenodd;stroke:rgb(0, 0, 0);stroke-width:3.0;" d="M 613.1, 589.365 L 513.819, 573.963 L 494.168, 558.828 L 508.155, 526.215 L 518.317, 525.736 z "/>
<path style="fill:rgb(10, 255, 255);fill-opacity:1.0;fill-rule:evenodd;stroke:rgb(0, 0, 0);stroke-width:3.0;" d="M 466.744, 365.03 L 456.909, 385.069 L 446.104, 360.678 L 448.168, 359.637 z "/>
<path style="fill:rgb(212, 81, 255);fill-opacity:1.0;fill-rule:evenodd;stroke:rgb(0, 0, 0);stroke-width:3.0;" d="M 289.298, 308.134 L 281.397, 300.576 L 285.51, 295.191 L 297.123, 294.864 z "/>
<path style="fill:rgb(212, 81, 255);fill-opacity:1.0;fill-rule:evenodd;stroke:rgb(0, 0, 0);stroke-width:3.0;" d="M 408.383, 353.711 L 388.786, 390.437 L 380.479, 373.068 L 382.005, 366.063 L 403.018, 353.248 z "/>
<path style="fill:rgb(212, 81, 255);fill-opacity:1.0;fill-rule:evenodd;stroke:rgb(0, 0, 0);stroke-width:3.0;" d="M 472.487, 298.233 L 476.769, 298.546 L 488.415, 320.872 L 487.128, 323.494 L 459.111, 304.123 L 463.354, 297.784 z "/>
<path style="fill:rgb(255, 246, 37);fill-opacity:1.0;fill-rule:evenodd;stroke:rgb(0, 0, 0);stroke-width:3.0;" d="M 616.269, 456.608 L 564.033, 395.88 L 680.759, 316.359 z "/>
<path style="fill:rgb(110, 27, 163);fill-opacity:1.0;fill-rule:evenodd;stroke:rgb(0, 0, 0);stroke-width:3.0;" d="M 378.38, 469.651 L 382.192, 478.345 L 365.173, 482.804 L 372.747, 465.312 z "/>
<path style="fill:rgb(110, 27, 163);fill-opacity:1.0;fill-rule:evenodd;stroke:rgb(0, 0, 0);stroke-width:3.0;" d="M 335.136, 351.983 L 343.434, 359.921 L 337.788, 369.899 L 306.364, 352.608 L 305.364, 349.135 L 303.201, 328.795 z "/>
<path style="fill:rgb(255, 126, 12);fill-opacity:1.0;fill-rule:evenodd;stroke:rgb(0, 0, 0);stroke-width:3.0;" d="M 595.111, 502.621 L 585.927, 498.359 L 605.377, 480.295 z "/>
<path style="fill:rgb(47, 212, 240);fill-opacity:1.0;fill-rule:evenodd;stroke:rgb(0, 0, 0);stroke-width:3.0;" d="M 175.222, 127.785 L 187.318, 137.987 L 182.703, 143.426 L 157.701, 138.449 L 168.537, 125.829 z "/>
<path style="fill:rgb(255, 108, 6);fill-opacity:1.0;fill-rule:evenodd;stroke:rgb(0, 0, 0);stroke-width:3.0;" d="M 22.7891, 79.1179 L 20.2983, 80.2304 L 14.978, 72.5664 L 10.809, 46.1052 z "/>
<path style="fill:rgb(33, 37, 255);fill-opacity:1.0;fill-rule:evenodd;stroke:rgb(0, 0, 0);stroke-width:3.0;" d="M 735.383, 391.938 L 704.654, 452.16 L 642.301, 524.518 L 595.111, 502.621 L 660.934, 359.474 z "/>
<path style="fill:rgb(255, 243, 20);fill-opacity:1.0;fill-rule:evenodd;stroke:rgb(0, 0, 0);stroke-width:3.0;" d="M 561.553, 34.1395 L 565.134, 38.3996 L 564.401, 39.3068 L 533.325, 46.3244 L 538.611, 33.2204 z "/>
<path style="fill:rgb(255, 243, 20);fill-opacity:1.0;fill-rule:evenodd;stroke:rgb(0, 0, 0);stroke-width:3.0;" d="M 520.163, 513.736 L 499.635, 522.165 L 502.929, 514.556 L 508.895, 508.173 z "/>
<path style="fill:rgb(255, 187, 79);fill-opacity:1.0;fill-rule:evenodd;stroke:rgb(0, 0, 0);stroke-width:3.0;" d="M 259.281, 320.897 L 257.015, 324.945 L 235.668, 335.835 L 234.617, 335.347 L 242.612, 318.208 z "/>
<path style="fill:rgb(226, 11, 6);fill-opacity:1.0;fill-rule:evenodd;stroke:rgb(0, 0, 0);stroke-width:3.0;" d="M 375.793, 176.992 L 277.638, 305.497 L 268.262, 307.249 L 375.759, 150.784 z "/>
<path style="fill:rgb(226, 11, 6);fill-opacity:1.0;fill-rule:evenodd;stroke:rgb(0, 0, 0);stroke-width:3.0;" d="M 611.398, 11.2132 L 610.075, 18.9898 L 591.381, 20.2651 L 591.147, 20.1104 L 607.697, 9.42513 z "/>
<path style="fill:rgb(226, 11, 6);fill-opacity:1.0;fill-rule:evenodd;stroke:rgb(0, 0, 0);stroke-width:3.0;" d="M 147.49, 372.584 L 138.053, 393.22 L 133.536, 398.371 L 139.078, 368.778 z "/>
<path style="fill:rgb(204, 14, 91);fill-opacity:1.0;fill-rule:evenodd;stroke:rgb(0, 0, 0);stroke-width:3.0;" d="M 92.7724, 497.637 L 102.388, 429.179 L 130.458, 417.333 z "/>
<path style="fill:rgb(204, 14, 91);fill-opacity:1.0;fill-rule:evenodd;stroke:rgb(0, 0, 0);stroke-width:3.0;" d="M 139.078, 368.778 L 133.536, 398.371 L 119.956, 413.857 L 118.029, 391.755 L 132.01, 365.58 z "/>
<path style="fill:rgb(252, 220, 40);fill-opacity:1.0;fill-rule:evenodd;stroke:rgb(0, 0, 0);stroke-width:3.0;" d="M 34.8817, 180.445 L 41.4347, 186.593 L 40.788, 193.378 L 36.3355, 198.906 L 31.6291, 196.608 L 34.5185, 180.395 z "/>
<path style="fill:rgb(52, 255, 7);fill-opacity:1.0;fill-rule:evenodd;stroke:rgb(0, 0, 0);stroke-width:3.0;" d="M 164.775, 362.746 L 158.428, 369.984 L 148.814, 356.652 L 148.597, 352.319 z "/>
<path style="fill:rgb(52, 255, 7);fill-opacity:1.0;fill-rule:evenodd;stroke:rgb(0, 0, 0);stroke-width:3.0;" d="M 131.321, 140.219 L 124.118, 118.543 L 124.951, 116.865 L 159.909, 104.446 z "/>
<path style="fill:rgb(252, 255, 38);fill-opacity:1.0;fill-rule:evenodd;stroke:rgb(0, 0, 0);stroke-width:3.0;" d="M 542.19, 524.612 L 520.812, 525.619 L 520.245, 520.238 L 522.167, 514.726 z "/>
<path style="fill:rgb(252, 255, 38);fill-opacity:1.0;fill-rule:evenodd;stroke:rgb(0, 0, 0);stroke-width:3.0;" d="M 603.719, 88.0824 L 589.104, 109.916 L 571.237, 88.7186 L 574.758, 80.1365 L 594.636, 70.0649 z "/>
<path style="fill:rgb(255, 255, 44);fill-opacity:1.0;fill-rule:evenodd;stroke:rgb(0, 0, 0);stroke-width:3.0;" d="M 368.576, 386.434 L 368.492, 388.519 L 353.083, 390.317 L 331.818, 380.45 L 336.01, 373.042 L 350.994, 367.273 z "/>
<path style="fill:rgb(16, 220, 40);fill-opacity:1.0;fill-rule:evenodd;stroke:rgb(0, 0, 0);stroke-width:3.0;" d="M 583.893, 545.202 L 587.998, 555.613 L 536.49, 524.88 L 542.19, 524.612 z "/>
<path style="fill:rgb(16, 220, 40);fill-opacity:1.0;fill-rule:evenodd;stroke:rgb(0, 0, 0);stroke-width:3.0;" d="M 781.257, 557.035 L 781.359, 557.521 L 777.753, 563.184 L 769.407, 564.891 L 767.988, 553.793 L 768.63, 551.261 L 775.065, 550.738 z "/>
<path style="fill:rgb(14, 255, 112);fill-opacity:1.0;fill-rule:evenodd;stroke:rgb(0, 0, 0);stroke-width:3.0;" d="M 128.03, 353.712 L 113.755, 380.335 L 87.0451, 319.032 z "/>
<path style="fill:rgb(14, 255, 112);fill-opacity:1.0;fill-rule:evenodd;stroke:rgb(0, 0, 0);stroke-width:3.0;" d="M 547.758, 54.3727 L 538.796, 57.0009 L 528.232, 58.4394 L 524.665, 50.1408 L 544.908, 45.5426 z "/>
<path style="fill:rgb(207, 25, 22);fill-opacity:1.0;fill-rule:evenodd;stroke:rgb(0, 0, 0);stroke-width:3.0;" d="M 580.991, 64.9449 L 522.954, 206.396 L 515.507, 182.813 L 577.333, 61.0059 z "/>
<path style="fill:rgb(207, 25, 22);fill-opacity:1.0;fill-rule:evenodd;stroke:rgb(0, 0, 0);stroke-width:3.0;" d="M 96.1891, 326.77 L 73.7256, 307.762 L 118.643, 259.082 z "/>
<path style="fill:rgb(207, 25, 22);fill-opacity:1.0;fill-rule:evenodd;stroke:rgb(0, 0, 0);stroke-width:3.0;" d="M 553.614, 52.6553 L 547.758, 54.3727 L 544.908, 45.5426 L 562.611, 41.5216 z "/>
<path style="fill:rgb(255, 209, 6);fill-opacity:1.0;fill-rule:evenodd;stroke:rgb(0, 0, 0);stroke-width:3.0;" d="M 372.367, 308.79 L 368.157, 316.23 L 355.063, 317.324 L 362.268, 305.903 z "/>
<path style="fill:rgb(223, 2, 30);fill-opacity:1.0;fill-rule:evenodd;stroke:rgb(0, 0, 0);stroke-width:3.0;" d="M 436.821, 295.308 L 403.977, 333.422 L 384.538, 323.016 L 436.353, 283.561 z "/>
<path style="fill:rgb(217, 5, 37);fill-opacity:1.0;fill-rule:evenodd;stroke:rgb(0, 0, 0);stroke-width:3.0;" d="M 52.5821, 262.652 L 35.3029, 266.562 L 75.1304, 149.336 L 92.0584, 128.549 L 124.951, 116.865 z "/>
<path style="fill:rgb(255, 255, 16);fill-opacity:1.0;fill-rule:evenodd;stroke:rgb(0, 0, 0);stroke-width:3.0;" d="M 268.54, 271.928 L 232.102, 178.194 L 236.793, 169.412 L 366.346, 143.44 z "/>
<path style="fill:rgb(255, 255, 16);fill-opacity:1.0;fill-rule:evenodd;stroke:rgb(0, 0, 0);stroke-width:3.0;" d="M 375.733, 131.108 L 366.346, 143.44 L 236.793, 169.412 L 249.913, 144.85 L 375.709, 112.53 z "/>
<path style="fill:rgb(255, 255, 16);fill-opacity:1.0;fill-rule:evenodd;stroke:rgb(0, 0, 0);stroke-width:3.0;" d="M 35.4129, 297.239 L 11.8006, 344.806 L 6.66245, 350.861 L 26.1761, 293.425 z "/>
<path style="fill:rgb(126, 197, 255);fill-opacity:1.0;fill-rule:evenodd;stroke:rgb(0, 0, 0);stroke-width:3.0;" d="M 349.01, 308.878 L 342.726, 318.355 L 342.493, 318.374 L 304.138, 270.804 L 319.315, 250.934 z "/>
<path style="fill:rgb(255, 134, 54);fill-opacity:1.0;fill-rule:evenodd;stroke:rgb(0, 0, 0);stroke-width:3.0;" d="M 476.556, 396.71 L 459.913, 410.515 L 454.559, 406.469 L 470.77, 385.055 L 474.865, 385.011 z "/>
<path style="fill:rgb(43, 255, 255);fill-opacity:1.0;fill-rule:evenodd;stroke:rgb(0, 0, 0);stroke-width:3.0;" d="M 469.158, 360.11 L 466.744, 365.03 L 448.168, 359.637 L 458.049, 354.655 z "/>
<path style="fill:rgb(255, 255, 71);fill-opacity:1.0;fill-rule:evenodd;stroke:rgb(0, 0, 0);stroke-width:3.0;" d="M 246.908, 150.475 L 229.054, 183.9 L 199.239, 198.326 L 190.46, 192.245 L 165.8, 163.343 L 221.849, 97.2979 z "/>
<path style="fill:rgb(255, 255, 71);fill-opacity:1.0;fill-rule:evenodd;stroke:rgb(0, 0, 0);stroke-width:3.0;" d="M 494.168, 558.828 L 455.071, 528.716 L 508.155, 526.215 z "/>
<path style="fill:rgb(255, 255, 71);fill-opacity:1.0;fill-rule:evenodd;stroke:rgb(0, 0, 0);stroke-width:3.0;" d="M 578.948, 56.1586 L 570.349, 70.7599 L 564.035, 71.0083 L 563.011, 62.5831 L 577.762, 55.6765 z "/>
<path style="fill:rgb(255, 255, 44);fill-opacity:1.0;fill-rule:evenodd;stroke:rgb(0, 0, 0);stroke-width:3.0;" d="M 537.648, 16.6987 L 375.958, 302.444 L 375.701, 106.591 L 455.879, 8.52011 z "/>
<path style="fill:rgb(255, 255, 44);fill-opacity:1.0;fill-rule:evenodd;stroke:rgb(0, 0, 0);stroke-width:3.0;" d="M 375.946, 293.453 L 375.947, 294.338 L 355.066, 299.744 L 362.466, 288.584 L 368.114, 287.874 z "/>
<path style="fill:rgb(255, 255, 44);fill-opacity:1.0;fill-rule:evenodd;stroke:rgb(0, 0, 0);stroke-width:3.0;" d="M 199.239, 198.326 L 170.367, 212.295 L 165.877, 205.999 L 196.613, 196.507 z "/>
<path style="fill:rgb(255, 255, 44);fill-opacity:1.0;fill-rule:evenodd;stroke:rgb(0, 0, 0);stroke-width:3.0;" d="M 358.176, 454.09 L 363.534, 483.4 L 314.138, 514.561 L 173.797, 403.511 L 217.366, 345.641 z "/>
<path style="fill:rgb(21, 0, 220);fill-opacity:1.0;fill-rule:evenodd;stroke:rgb(0, 0, 0);stroke-width:3.0;" d="M 25.719, 240.954 L 20.0018, 248.702 L 6.79964, 235.58 L 17.2017, 222.664 z "/>
<path style="fill:rgb(240, 197, 10);fill-opacity:1.0;fill-rule:evenodd;stroke:rgb(0, 0, 0);stroke-width:3.0;" d="M 242.612, 318.208 L 234.617, 335.347 L 224.011, 330.426 L 226.839, 326.711 L 242.047, 318.117 z "/>
<path style="fill:rgb(240, 197, 10);fill-opacity:1.0;fill-rule:evenodd;stroke:rgb(0, 0, 0);stroke-width:3.0;" d="M 334.721, 368.212 L 326.824, 378.132 L 318.794, 374.406 L 318.521, 359.298 z "/>
<path style="fill:rgb(7, 102, 204);fill-opacity:1.0;fill-rule:evenodd;stroke:rgb(0, 0, 0);stroke-width:3.0;" d="M 492.899, 455.193 L 483.423, 450.796 L 505.903, 435.481 z "/>
<path style="fill:rgb(70, 172, 255);fill-opacity:1.0;fill-rule:evenodd;stroke:rgb(0, 0, 0);stroke-width:3.0;" d="M 543.317, 156.766 L 566.025, 101.421 L 570.858, 98.6412 z "/>
<path style="fill:rgb(123, 0, 60);fill-opacity:1.0;fill-rule:evenodd;stroke:rgb(0, 0, 0);stroke-width:3.0;" d="M 37.9679, 165.649 L 41.2712, 169.398 L 40.8929, 185.575 L 39.0029, 184.311 L 16.0029, 162.732 z "/>
<path style="fill:rgb(123, 0, 60);fill-opacity:1.0;fill-rule:evenodd;stroke:rgb(0, 0, 0);stroke-width:3.0;" d="M 584.256, 419.391 L 539.633, 435.478 L 536.168, 414.863 L 564.033, 395.88 z "/>
<path style="fill:rgb(123, 0, 60);fill-opacity:1.0;fill-rule:evenodd;stroke:rgb(0, 0, 0);stroke-width:3.0;" d="M 127.889, 173.17 L 113.949, 189.407 L 100.169, 179.2 L 118.057, 156.817 z "/>
<path style="fill:rgb(60, 243, 255);fill-opacity:1.0;fill-rule:evenodd;stroke:rgb(0, 0, 0);stroke-width:3.0;" d="M 464.215, 434.416 L 458.675, 425.86 L 464.084, 420.309 L 474.893, 412.029 z "/>
<path style="fill:rgb(255, 47, 19);fill-opacity:1.0;fill-rule:evenodd;stroke:rgb(0, 0, 0);stroke-width:3.0;" d="M 385.292, 323.419 L 386.521, 324.763 L 385.354, 340.009 L 379.927, 338.218 L 376.152, 329.401 L 384.538, 323.016 z "/>
<path style="fill:rgb(62, 144, 255);fill-opacity:1.0;fill-rule:evenodd;stroke:rgb(0, 0, 0);stroke-width:3.0;" d="M 776.927, 246.043 L 767.393, 245.882 L 770.241, 231.804 L 781.957, 220.269 z "/>
<path style="fill:rgb(38, 255, 234);fill-opacity:1.0;fill-rule:evenodd;stroke:rgb(0, 0, 0);stroke-width:3.0;" d="M 61.1967, 286.601 L 18.7169, 336.656 L 15.8499, 336.649 L 42.0101, 283.949 z "/>
<path style="fill:rgb(255, 3, 19);fill-opacity:1.0;fill-rule:evenodd;stroke:rgb(0, 0, 0);stroke-width:3.0;" d="M 454.292, 379.16 L 448.148, 387.713 L 443.406, 381.381 L 444.399, 371.045 L 449.721, 368.841 z "/>
<path style="fill:rgb(255, 25, 46);fill-opacity:1.0;fill-rule:evenodd;stroke:rgb(0, 0, 0);stroke-width:3.0;" d="M 46.5893, 144.702 L 20.4284, 153.995 L 19.3865, 80.6376 L 22.7891, 79.1179 z "/>
<path style="fill:rgb(255, 25, 46);fill-opacity:1.0;fill-rule:evenodd;stroke:rgb(0, 0, 0);stroke-width:3.0;" d="M 24.7971, 297.484 L 23.5221, 301.237 L 9.1189, 311.117 L 10.4648, 289.04 z "/>
<path style="fill:rgb(255, 58, 7);fill-opacity:1.0;fill-rule:evenodd;stroke:rgb(0, 0, 0);stroke-width:3.0;" d="M 475.655, 156.663 L 476.663, 161.312 L 461.205, 180.136 L 447.986, 175.152 L 464.507, 145.958 z "/>
<path style="fill:rgb(243, 22, 249);fill-opacity:1.0;fill-rule:evenodd;stroke:rgb(0, 0, 0);stroke-width:3.0;" d="M 679.884, 500.706 L 662.865, 534.06 L 648.679, 527.477 L 654.678, 510.155 L 666.419, 496.53 z "/>
<path style="fill:rgb(243, 22, 249);fill-opacity:1.0;fill-rule:evenodd;stroke:rgb(0, 0, 0);stroke-width:3.0;" d="M 337.489, 318.792 L 303.415, 321.639 L 289.298, 308.134 L 307.898, 276.59 z "/>
<path style="fill:rgb(177, 0, 30);fill-opacity:1.0;fill-rule:evenodd;stroke:rgb(0, 0, 0);stroke-width:3.0;" d="M 252.34, 333.295 L 247.772, 341.452 L 235.668, 335.835 L 251.069, 327.978 z "/>
<path style="fill:rgb(255, 4, 32);fill-opacity:1.0;fill-rule:evenodd;stroke:rgb(0, 0, 0);stroke-width:3.0;" d="M 11.1925, 337.527 L 7.9769, 329.85 L 8.63317, 319.085 L 22.7956, 303.375 z "/>
<path style="fill:rgb(60, 249, 255);fill-opacity:1.0;fill-rule:evenodd;stroke:rgb(0, 0, 0);stroke-width:3.0;" d="M 424.962, 355.14 L 395.789, 398.725 L 388.323, 391.305 L 408.383, 353.711 z "/>
<path style="fill:rgb(255, 179, 25);fill-opacity:1.0;fill-rule:evenodd;stroke:rgb(0, 0, 0);stroke-width:3.0;" d="M 591.429, 44.414 L 605.604, 85.266 L 603.719, 88.0824 L 585.955, 52.8461 L 589.697, 43.7273 z "/>
<path style="fill:rgb(255, 179, 25);fill-opacity:1.0;fill-rule:evenodd;stroke:rgb(0, 0, 0);stroke-width:3.0;" d="M 537.459, 220.938 L 516.924, 245.981 L 519.51, 235.2 L 524.43, 229.077 L 538.151, 219.527 z "/>
<path style="fill:rgb(255, 179, 25);fill-opacity:1.0;fill-rule:evenodd;stroke:rgb(0, 0, 0);stroke-width:3.0;" d="M 679.884, 500.706 L 669.62, 497.522 L 704.347, 452.517 L 704.654, 452.16 z "/>
<path style="fill:rgb(255, 179, 25);fill-opacity:1.0;fill-rule:evenodd;stroke:rgb(0, 0, 0);stroke-width:3.0;" d="M 336.685, 337.006 L 332.852, 334.001 L 333.691, 319.11 L 363.237, 316.641 z "/>
<path style="fill:rgb(202, 8, 231);fill-opacity:1.0;fill-rule:evenodd;stroke:rgb(0, 0, 0);stroke-width:3.0;" d="M 297.772, 322.766 L 301.282, 334.959 L 273.576, 326.187 L 275.711, 311.467 L 276.199, 308.762 z "/>
<path style="fill:rgb(202, 8, 231);fill-opacity:1.0;fill-rule:evenodd;stroke:rgb(0, 0, 0);stroke-width:3.0;" d="M 395.789, 398.725 L 395.274, 399.494 L 383.025, 402.181 L 375.842, 394.353 L 378.609, 381.652 z "/>
<path style="fill:rgb(115, 255, 255);fill-opacity:1.0;fill-rule:evenodd;stroke:rgb(0, 0, 0);stroke-width:3.0;" d="M 176.152, 330.326 L 179.144, 340.725 L 159.894, 350.194 L 143.623, 343.838 L 151.441, 329.203 z "/>
<path style="fill:rgb(115, 255, 255);fill-opacity:1.0;fill-rule:evenodd;stroke:rgb(0, 0, 0);stroke-width:3.0;" d="M 195.911, 127.861 L 187.318, 137.987 L 170.37, 123.694 L 171.259, 122.658 z "/>
<path style="fill:rgb(179, 255, 255);fill-opacity:1.0;fill-rule:evenodd;stroke:rgb(0, 0, 0);stroke-width:3.0;" d="M 627.438, 30.6385 L 624.066, 41.8621 L 607.991, 31.2407 L 609.852, 20.3035 z "/>
<path style="fill:rgb(179, 255, 255);fill-opacity:1.0;fill-rule:evenodd;stroke:rgb(0, 0, 0);stroke-width:3.0;" d="M 140.814, 157.36 L 126.564, 170.966 L 118.057, 156.817 L 146.54, 121.175 z "/>
<path style="fill:rgb(79, 228, 161);fill-opacity:1.0;fill-rule:evenodd;stroke:rgb(0, 0, 0);stroke-width:3.0;" d="M 540.784, 578.146 L 550.447, 588.895 L 537.322, 592.064 L 513.819, 573.963 z "/>
<path style="fill:rgb(79, 228, 161);fill-opacity:1.0;fill-rule:evenodd;stroke:rgb(0, 0, 0);stroke-width:3.0;" d="M 616.269, 456.608 L 605.377, 480.295 L 585.927, 498.359 L 547.181, 480.381 L 539.633, 435.478 L 584.256, 419.391 z "/>
<path style="fill:rgb(79, 228, 161);fill-opacity:1.0;fill-rule:evenodd;stroke:rgb(0, 0, 0);stroke-width:3.0;" d="M 47.4191, 273.053 L 35.4129, 297.239 L 26.1761, 293.425 L 34.2743, 269.59 z "/>
<path style="fill:rgb(215, 12, 88);fill-opacity:1.0;fill-rule:evenodd;stroke:rgb(0, 0, 0);stroke-width:3.0;" d="M 47.4191, 273.053 L 34.2743, 269.59 L 35.3029, 266.562 L 52.5821, 262.652 z "/>
<path style="fill:rgb(217, 234, 11);fill-opacity:1.0;fill-rule:evenodd;stroke:rgb(0, 0, 0);stroke-width:3.0;" d="M 140.102, 448.266 L 139.638, 413.459 L 178.727, 396.963 z "/>
<path style="fill:rgb(217, 234, 11);fill-opacity:1.0;fill-rule:evenodd;stroke:rgb(0, 0, 0);stroke-width:3.0;" d="M 20.4284, 153.995 L 7.10331, 158.729 L 12.2348, 83.8318 L 19.3865, 80.6376 z "/>
<path style="fill:rgb(255, 194, 42);fill-opacity:1.0;fill-rule:evenodd;stroke:rgb(0, 0, 0);stroke-width:3.0;" d="M 413.656, 550.102 L 380.595, 573.693 L 379.976, 573.348 L 363.505, 483.241 L 382.192, 478.345 z "/>
<path style="fill:rgb(56, 4, 255);fill-opacity:1.0;fill-rule:evenodd;stroke:rgb(0, 0, 0);stroke-width:3.0;" d="M 553.898, 169.516 L 536.133, 220.932 L 529.449, 225.584 L 523.41, 218.943 L 527.478, 201.983 L 553.103, 163.701 z "/>
<path style="fill:rgb(56, 4, 255);fill-opacity:1.0;fill-rule:evenodd;stroke:rgb(0, 0, 0);stroke-width:3.0;" d="M 66.9192, 173.505 L 54.6095, 184.535 L 47.4587, 176.42 L 52.8092, 171.823 L 67.4947, 171.811 z "/>
<path style="fill:rgb(215, 3, 54);fill-opacity:1.0;fill-rule:evenodd;stroke:rgb(0, 0, 0);stroke-width:3.0;" d="M 301.282, 334.959 L 302.17, 338.043 L 299.477, 352.697 L 262.702, 325.051 L 264.121, 323.194 z "/>
<path style="fill:rgb(237, 220, 61);fill-opacity:1.0;fill-rule:evenodd;stroke:rgb(0, 0, 0);stroke-width:3.0;" d="M 237.25, 21.0452 L 229.484, 79.7303 L 59.6312, 140.069 L 53.8062, 86.0087 L 149.536, 11.8606 z "/>
<path style="fill:rgb(255, 246, 50);fill-opacity:1.0;fill-rule:evenodd;stroke:rgb(0, 0, 0);stroke-width:3.0;" d="M 485.687, 365.351 L 475.208, 379.193 L 462.982, 372.695 L 464.056, 370.506 L 482.987, 362.586 z "/>
<path style="fill:rgb(197, 3, 255);fill-opacity:1.0;fill-rule:evenodd;stroke:rgb(0, 0, 0);stroke-width:3.0;" d="M 120.237, 254.277 L 118.643, 259.082 L 73.7256, 307.762 L 55.9807, 292.747 L 116.229, 221.755 z "/>
<path style="fill:rgb(41, 234, 28);fill-opacity:1.0;fill-rule:evenodd;stroke:rgb(0, 0, 0);stroke-width:3.0;" d="M 140.102, 448.266 L 140.023, 448.371 L 136.354, 451.711 L 135.945, 415.018 L 139.638, 413.459 z "/>
<path style="fill:rgb(157, 228, 255);fill-opacity:1.0;fill-rule:evenodd;stroke:rgb(0, 0, 0);stroke-width:3.0;" d="M 332.054, 340.558 L 330.537, 341.721 L 319.112, 336.654 L 303.415, 321.639 L 315.099, 320.663 z "/>
<path style="fill:rgb(46, 159, 255);fill-opacity:1.0;fill-rule:evenodd;stroke:rgb(0, 0, 0);stroke-width:3.0;" d="M 488.972, 419.119 L 500.619, 439.081 L 490.302, 446.11 L 475.472, 443.608 L 487.505, 418.826 z "/>
<path style="fill:rgb(46, 159, 255);fill-opacity:1.0;fill-rule:evenodd;stroke:rgb(0, 0, 0);stroke-width:3.0;" d="M 431.816, 344.901 L 399.6, 344.621 L 399.732, 337.473 L 441.99, 329.7 z "/>
<path style="fill:rgb(32, 255, 255);fill-opacity:1.0;fill-rule:evenodd;stroke:rgb(0, 0, 0);stroke-width:3.0;" d="M 533.053, 416.985 L 521.647, 424.756 L 506.073, 426.78 L 519.294, 398.005 z "/>
<path style="fill:rgb(215, 252, 17);fill-opacity:1.0;fill-rule:evenodd;stroke:rgb(0, 0, 0);stroke-width:3.0;" d="M 55.8524, 200.121 L 29.9218, 235.259 L 32.9522, 203.107 L 44.1787, 189.168 z "/>
<path style="fill:rgb(102, 215, 237);fill-opacity:1.0;fill-rule:evenodd;stroke:rgb(0, 0, 0);stroke-width:3.0;" d="M 29.9218, 235.259 L 25.719, 240.954 L 17.2017, 222.664 L 32.9522, 203.107 z "/>
<path style="fill:rgb(255, 3, 14);fill-opacity:1.0;fill-rule:evenodd;stroke:rgb(0, 0, 0);stroke-width:3.0;" d="M 258.769, 128.271 L 231.94, 118.711 L 221.849, 97.2979 L 239.898, 76.0308 L 297.627, 55.523 z "/>
<path style="fill:rgb(255, 3, 14);fill-opacity:1.0;fill-rule:evenodd;stroke:rgb(0, 0, 0);stroke-width:3.0;" d="M 316.534, 373.358 L 228.948, 354.561 L 164.436, 304.875 L 165.331, 303.198 z "/>
<path style="fill:rgb(255, 255, 121);fill-opacity:1.0;fill-rule:evenodd;stroke:rgb(0, 0, 0);stroke-width:3.0;" d="M 552.247, 482.731 L 503.617, 505.567 L 324.322, 417.043 L 337.127, 382.913 z "/>
<path style="fill:rgb(255, 44, 21);fill-opacity:1.0;fill-rule:evenodd;stroke:rgb(0, 0, 0);stroke-width:3.0;" d="M 635.1, 22.6641 L 639.309, 34.0565 L 636.406, 35.9088 L 609.852, 20.3035 L 611.398, 11.2132 z "/>
<path style="fill:rgb(223, 11, 7);fill-opacity:1.0;fill-rule:evenodd;stroke:rgb(0, 0, 0);stroke-width:3.0;" d="M 573.773, 583.264 L 550.447, 588.895 L 540.784, 578.146 z "/>
<path style="fill:rgb(165, 46, 13);fill-opacity:1.0;fill-rule:evenodd;stroke:rgb(0, 0, 0);stroke-width:3.0;" d="M 94.2747, 486.942 L 92.7724, 497.637 L 82.1934, 520.18 L 65.8, 489.534 L 69.3004, 482.981 z "/>
<path style="fill:rgb(220, 255, 11);fill-opacity:1.0;fill-rule:evenodd;stroke:rgb(0, 0, 0);stroke-width:3.0;" d="M 372.747, 465.312 L 365.173, 482.804 L 363.505, 483.241 L 358.176, 454.09 z "/>
<path style="fill:rgb(220, 255, 11);fill-opacity:1.0;fill-rule:evenodd;stroke:rgb(0, 0, 0);stroke-width:3.0;" d="M 491.654, 168.251 L 476.74, 161.666 L 471.088, 135.616 z "/>
<path style="fill:rgb(30, 124, 212);fill-opacity:1.0;fill-rule:evenodd;stroke:rgb(0, 0, 0);stroke-width:3.0;" d="M 222.847, 96.1217 L 206.721, 87.8166 L 239.898, 76.0308 z "/>
<path style="fill:rgb(255, 16, 255);fill-opacity:1.0;fill-rule:evenodd;stroke:rgb(0, 0, 0);stroke-width:3.0;" d="M 236.237, 227.7 L 223.748, 228.885 L 212.888, 214.166 L 216.696, 207.036 z "/>
<path style="fill:rgb(194, 255, 255);fill-opacity:1.0;fill-rule:evenodd;stroke:rgb(0, 0, 0);stroke-width:3.0;" d="M 491.654, 168.251 L 501.689, 184.175 L 504.841, 203.825 L 491.564, 229.983 L 476.74, 161.666 z "/>
<path style="fill:rgb(119, 226, 255);fill-opacity:1.0;fill-rule:evenodd;stroke:rgb(0, 0, 0);stroke-width:3.0;" d="M 482.489, 188.161 L 468.899, 183.037 L 471.248, 169.863 L 477.674, 165.971 z "/>
<path style="fill:rgb(59, 100, 255);fill-opacity:1.0;fill-rule:evenodd;stroke:rgb(0, 0, 0);stroke-width:3.0;" d="M 258.769, 128.271 L 246.908, 150.475 L 231.94, 118.711 z "/>
<path style="fill:rgb(226, 172, 132);fill-opacity:1.0;fill-rule:evenodd;stroke:rgb(0, 0, 0);stroke-width:3.0;" d="M 374.763, 355.905 L 372.835, 359.835 L 350.536, 366.775 L 343.744, 359.373 L 349.432, 349.321 z "/>
<path style="fill:rgb(249, 202, 26);fill-opacity:1.0;fill-rule:evenodd;stroke:rgb(0, 0, 0);stroke-width:3.0;" d="M 170.367, 212.295 L 118.175, 237.548 L 116.229, 221.755 L 116.713, 221.183 L 165.877, 205.999 z "/>
<path style="fill:rgb(88, 22, 255);fill-opacity:1.0;fill-rule:evenodd;stroke:rgb(0, 0, 0);stroke-width:3.0;" d="M 455.475, 481.798 L 483.378, 527.383 L 455.071, 528.716 L 284.631, 397.447 z "/>
<path style="fill:rgb(255, 5, 94);fill-opacity:1.0;fill-rule:evenodd;stroke:rgb(0, 0, 0);stroke-width:3.0;" d="M 506.257, 506.87 L 497.667, 526.709 L 483.378, 527.383 L 455.475, 481.798 z "/>
</svg>