<?xml version="1.0" encoding="iso-8859-1" standalone="no"?>
<!DOCTYPE svg PUBLIC "-//W3C//DTD SVG 1.0//EN" "http://www.w3.org/TR/2001/REC-SVG-20010904/DTD/svg10.dtd">
<svg xmlns="http://www.w3.org/2000/svg" width="800" height="600">
<path style="fill:rgb(0, 0, 0);fill-opacity:0.0;fill-rule:evenodd;stroke:rgb(0, 0, 0);stroke-width:0.0;" d="M 0, 600 L 800, 600 L 800, 0 L 0, 0 z "/>
<path style="fill:rgb(252, 237, 9);fill-opacity:1.0;fill-rule:evenodd;stroke:rgb(0, 0, 0);stroke-width:3.0;" d="M 599.54, 297.599 L 582.449, 302.279 L 591.639, 218.646 L 617.096, 212.169 z "/>
<path style="fill:rgb(252, 237, 9);fill-opacity:1.0;fill-rule:evenodd;stroke:rgb(0, 0, 0);stroke-width:3.0;" d="M 84.9338, 480.031 L 83.1669, 490.496 L 71.8814, 488.34 L 71.5727, 481.209 L 80.2763, 476.301 z "/>
<path style="fill:rgb(252, 237, 9);fill-opacity:1.0;fill-rule:evenodd;stroke:rgb(0, 0, 0);stroke-width:3.0;" d="M 688.211, 291.39 L 665.158, 332.262 L 658.609, 333.479 L 670.09, 295.866 L 686.633, 289.738 z "/>
<path style="fill:rgb(252, 237, 9);fill-opacity:1.0;fill-rule:evenodd;stroke:rgb(0, 0, 0);stroke-width:3.0;" d="M 564.089, 192.334 L 578.951, 239.728 L 573.056, 254.002 L 561.263, 191.407 z "/>
<path style="fill:rgb(168, 25, 26);fill-opacity:1.0;fill-rule:evenodd;stroke:rgb(0, 0, 0);stroke-width:3.0;" d="M 217.234, 333.366 L 215.71, 375.742 L 173.69, 362.651 L 166.248, 337.617 L 216.275, 324.124 z "/>
<path style="fill:rgb(168, 25, 26);fill-opacity:1.0;fill-rule:evenodd;stroke:rgb(0, 0, 0);stroke-width:3.0;" d="M 561.263, 191.407 L 563.592, 203.77 L 557.973, 217.942 L 555.204, 216.947 L 553.682, 188.919 z "/>
<path style="fill:rgb(168, 25, 26);fill-opacity:1.0;fill-rule:evenodd;stroke:rgb(0, 0, 0);stroke-width:3.0;" d="M 188.029, 288.467 L 188.413, 294.749 L 185.751, 308.793 L 172.186, 275.779 z "/>
<path style="fill:rgb(168, 25, 26);fill-opacity:1.0;fill-rule:evenodd;stroke:rgb(0, 0, 0);stroke-width:3.0;" d="M 550.201, 350.169 L 492.206, 300.792 L 505.073, 270.277 z "/>
<path style="fill:rgb(255, 168, 140);fill-opacity:1.0;fill-rule:evenodd;stroke:rgb(0, 0, 0);stroke-width:3.0;" d="M 589.541, 237.733 L 583.15, 295.892 L 566.419, 282.578 L 569.238, 263.248 L 581.375, 233.857 z "/>
<path style="fill:rgb(255, 168, 140);fill-opacity:1.0;fill-rule:evenodd;stroke:rgb(0, 0, 0);stroke-width:3.0;" d="M 128.097, 435.929 L 126.639, 438.217 L 104.84, 440.639 L 97.3034, 437.821 L 123.826, 432.891 z "/>
<path style="fill:rgb(255, 168, 140);fill-opacity:1.0;fill-rule:evenodd;stroke:rgb(0, 0, 0);stroke-width:3.0;" d="M 342.279, 496.598 L 339.012, 550.837 L 336.057, 550.713 L 306.478, 494.417 L 326.858, 485.939 z "/>
<path style="fill:rgb(255, 168, 140);fill-opacity:1.0;fill-rule:evenodd;stroke:rgb(0, 0, 0);stroke-width:3.0;" d="M 478.275, 222.833 L 488.109, 240.243 L 491.463, 274.035 L 493.321, 364.205 L 405.281, 380.571 L 401.374, 205.502 z "/>
<path style="fill:rgb(255, 168, 140);fill-opacity:1.0;fill-rule:evenodd;stroke:rgb(0, 0, 0);stroke-width:3.0;" d="M 126.846, 594.602 L 110.715, 583.3 L 111.561, 578.975 L 136.376, 570.98 z "/>
<path style="fill:rgb(161, 255, 15);fill-opacity:1.0;fill-rule:evenodd;stroke:rgb(0, 0, 0);stroke-width:3.0;" d="M 236.693, 347.226 L 219.028, 350.636 L 216.275, 324.124 L 219.59, 323.23 z "/>
<path style="fill:rgb(255, 20, 20);fill-opacity:1.0;fill-rule:evenodd;stroke:rgb(0, 0, 0);stroke-width:3.0;" d="M 583.15, 295.892 L 582.449, 302.279 L 549.379, 311.336 L 562.532, 279.485 z "/>
<path style="fill:rgb(255, 20, 20);fill-opacity:1.0;fill-rule:evenodd;stroke:rgb(0, 0, 0);stroke-width:3.0;" d="M 748.992, 349.006 L 351.914, 494.971 L 301.789, 399.809 L 786.335, 309.736 z "/>
<path style="fill:rgb(255, 202, 30);fill-opacity:1.0;fill-rule:evenodd;stroke:rgb(0, 0, 0);stroke-width:3.0;" d="M 84.7088, 537.421 L 74.2187, 547.151 L 74.0227, 546.845 L 73.2007, 524.815 L 73.4687, 523.259 z "/>
<path style="fill:rgb(161, 50, 255);fill-opacity:1.0;fill-rule:evenodd;stroke:rgb(0, 0, 0);stroke-width:3.0;" d="M 69.917, 540.428 L 51.5311, 539.961 L 51.3805, 538.763 L 59.9742, 524.888 z "/>
<path style="fill:rgb(255, 37, 39);fill-opacity:1.0;fill-rule:evenodd;stroke:rgb(0, 0, 0);stroke-width:3.0;" d="M 78.4321, 318.834 L 80.7319, 325.562 L 61.7401, 326.515 L 61.1876, 326.118 L 70.8334, 317.431 z "/>
<path style="fill:rgb(255, 37, 39);fill-opacity:1.0;fill-rule:evenodd;stroke:rgb(0, 0, 0);stroke-width:3.0;" d="M 73.9303, 118.878 L 36.9012, 129.845 L 36.5754, 66.4709 z "/>
<path style="fill:rgb(255, 177, 11);fill-opacity:1.0;fill-rule:evenodd;stroke:rgb(0, 0, 0);stroke-width:3.0;" d="M 768.521, 259.402 L 557.909, 337.423 L 554.268, 325.41 L 675.414, 276.82 L 755.096, 254.998 z "/>
<path style="fill:rgb(177, 59, 240);fill-opacity:1.0;fill-rule:evenodd;stroke:rgb(0, 0, 0);stroke-width:3.0;" d="M 160.653, 247.832 L 160.741, 247.928 L 166.751, 262.554 L 158.165, 258.562 L 145.347, 235.811 z "/>
<path style="fill:rgb(177, 59, 240);fill-opacity:1.0;fill-rule:evenodd;stroke:rgb(0, 0, 0);stroke-width:3.0;" d="M 70.0378, 355.684 L 70.4458, 356.185 L 70.2321, 363.482 L 50.0164, 372.213 L 45.8532, 354.648 z "/>
<path style="fill:rgb(177, 59, 240);fill-opacity:1.0;fill-rule:evenodd;stroke:rgb(0, 0, 0);stroke-width:3.0;" d="M 365.121, 524.968 L 350.317, 538.215 L 349.275, 523.105 L 355.517, 516.915 z "/>
<path style="fill:rgb(177, 59, 240);fill-opacity:1.0;fill-rule:evenodd;stroke:rgb(0, 0, 0);stroke-width:3.0;" d="M 454.322, 156.322 L 537.835, 217.403 L 533.424, 320.469 L 437.608, 150.839 z "/>
<path style="fill:rgb(138, 168, 255);fill-opacity:1.0;fill-rule:evenodd;stroke:rgb(0, 0, 0);stroke-width:3.0;" d="M 82.0404, 559.375 L 60.3849, 565.176 L 76.9426, 551.408 z "/>
<path style="fill:rgb(138, 168, 255);fill-opacity:1.0;fill-rule:evenodd;stroke:rgb(0, 0, 0);stroke-width:3.0;" d="M 114.621, 515.723 L 110.488, 528.757 L 106.527, 530.424 L 99.1871, 525.732 L 108.484, 514.373 z "/>
<path style="fill:rgb(138, 168, 255);fill-opacity:1.0;fill-rule:evenodd;stroke:rgb(0, 0, 0);stroke-width:3.0;" d="M 755.096, 254.998 L 638.303, 286.983 L 608.594, 253.541 L 617.567, 209.878 z "/>
<path style="fill:rgb(64, 52, 163);fill-opacity:1.0;fill-rule:evenodd;stroke:rgb(0, 0, 0);stroke-width:3.0;" d="M 99.0854, 334.239 L 91.4767, 319.791 L 101.018, 304.671 z "/>
<path style="fill:rgb(64, 52, 163);fill-opacity:1.0;fill-rule:evenodd;stroke:rgb(0, 0, 0);stroke-width:3.0;" d="M 40.1859, 476.574 L 34.8687, 479.996 L 31.8364, 472.884 L 36.7114, 467.149 L 56.4503, 459.46 z "/>
<path style="fill:rgb(243, 46, 161);fill-opacity:1.0;fill-rule:evenodd;stroke:rgb(0, 0, 0);stroke-width:3.0;" d="M 499.277, 260.016 L 494.41, 282.965 L 491.614, 281.353 L 491.154, 259.005 L 496.283, 254.715 z "/>
<path style="fill:rgb(45, 249, 187);fill-opacity:1.0;fill-rule:evenodd;stroke:rgb(0, 0, 0);stroke-width:3.0;" d="M 305.192, 428.038 L 305.868, 471.669 L 280.576, 412.047 z "/>
<path style="fill:rgb(45, 249, 187);fill-opacity:1.0;fill-rule:evenodd;stroke:rgb(0, 0, 0);stroke-width:3.0;" d="M 145.071, 235.321 L 158.165, 258.562 L 140.274, 250.244 L 132.528, 224.187 z "/>
<path style="fill:rgb(255, 252, 56);fill-opacity:1.0;fill-rule:evenodd;stroke:rgb(0, 0, 0);stroke-width:3.0;" d="M 557.28, 337.657 L 545.581, 341.99 L 540.462, 332.928 L 549.019, 312.208 z "/>
<path style="fill:rgb(88, 223, 202);fill-opacity:1.0;fill-rule:evenodd;stroke:rgb(0, 0, 0);stroke-width:3.0;" d="M 152.589, 291.67 L 160.108, 316.963 L 113.858, 272.084 z "/>
<path style="fill:rgb(255, 154, 146);fill-opacity:1.0;fill-rule:evenodd;stroke:rgb(0, 0, 0);stroke-width:3.0;" d="M 618.635, 292.369 L 599.54, 297.599 L 602.09, 285.191 L 614.027, 281.703 z "/>
<path style="fill:rgb(255, 154, 146);fill-opacity:1.0;fill-rule:evenodd;stroke:rgb(0, 0, 0);stroke-width:3.0;" d="M 82.1806, 286.099 L 81.7346, 286.769 L 58.158, 272.769 L 61.4775, 249.24 z "/>
<path style="fill:rgb(255, 154, 146);fill-opacity:1.0;fill-rule:evenodd;stroke:rgb(0, 0, 0);stroke-width:3.0;" d="M 247.488, 369.254 L 239.18, 383.054 L 235.532, 381.917 L 241.685, 359.424 z "/>
<path style="fill:rgb(34, 255, 226);fill-opacity:1.0;fill-rule:evenodd;stroke:rgb(0, 0, 0);stroke-width:3.0;" d="M 495.877, 503.63 L 375.963, 540.631 L 351.914, 494.971 L 428.888, 466.676 z "/>
<path style="fill:rgb(34, 255, 226);fill-opacity:1.0;fill-rule:evenodd;stroke:rgb(0, 0, 0);stroke-width:3.0;" d="M 553.682, 188.919 L 555.14, 215.769 L 534.196, 190.627 L 536.045, 183.133 z "/>
<path style="fill:rgb(34, 255, 226);fill-opacity:1.0;fill-rule:evenodd;stroke:rgb(0, 0, 0);stroke-width:3.0;" d="M 331.287, 482.983 L 320.266, 481.383 L 305.864, 471.427 L 305.601, 454.418 z "/>
<path style="fill:rgb(34, 255, 226);fill-opacity:1.0;fill-rule:evenodd;stroke:rgb(0, 0, 0);stroke-width:3.0;" d="M 72.1589, 494.749 L 53.0975, 495.442 L 45.7458, 491.733 L 57.0131, 484.427 L 71.3715, 476.561 z "/>
<path style="fill:rgb(18, 26, 255);fill-opacity:1.0;fill-rule:evenodd;stroke:rgb(0, 0, 0);stroke-width:3.0;" d="M 75.5434, 549.221 L 66.9083, 558.167 L 57.8239, 565.862 L 54.8853, 566.649 L 54.0736, 560.19 L 75.3378, 548.9 z "/>
<path style="fill:rgb(18, 26, 255);fill-opacity:1.0;fill-rule:evenodd;stroke:rgb(0, 0, 0);stroke-width:3.0;" d="M 567.382, 536.372 L 564.492, 541.481 L 516.789, 515.166 L 521.256, 498.742 z "/>
<path style="fill:rgb(9, 78, 255);fill-opacity:1.0;fill-rule:evenodd;stroke:rgb(0, 0, 0);stroke-width:3.0;" d="M 87.6444, 506.37 L 85.9852, 514.096 L 43.9613, 512.29 L 39.3677, 500.61 z "/>
<path style="fill:rgb(146, 1, 255);fill-opacity:1.0;fill-rule:evenodd;stroke:rgb(0, 0, 0);stroke-width:3.0;" d="M 510.779, 345.829 L 504.687, 348.953 L 496.541, 339.84 L 500.835, 333.306 L 510.153, 333.24 z "/>
<path style="fill:rgb(146, 1, 255);fill-opacity:1.0;fill-rule:evenodd;stroke:rgb(0, 0, 0);stroke-width:3.0;" d="M 56.3819, 309.42 L 46.2297, 325.55 L 41.0579, 316.299 L 45.5123, 306.672 L 46.8585, 306.384 z "/>
<path style="fill:rgb(24, 26, 255);fill-opacity:1.0;fill-rule:evenodd;stroke:rgb(0, 0, 0);stroke-width:3.0;" d="M 347.707, 500.351 L 351.222, 551.347 L 339.012, 550.837 L 342.279, 496.598 z "/>
<path style="fill:rgb(24, 26, 255);fill-opacity:1.0;fill-rule:evenodd;stroke:rgb(0, 0, 0);stroke-width:3.0;" d="M 109.069, 408.464 L 110.822, 413.595 L 92.8289, 412.05 L 96.173, 403.893 z "/>
<path style="fill:rgb(24, 26, 255);fill-opacity:1.0;fill-rule:evenodd;stroke:rgb(0, 0, 0);stroke-width:3.0;" d="M 257.748, 388.839 L 254.686, 408.565 L 124.551, 432.756 L 142.974, 353.082 z "/>
<path style="fill:rgb(255, 24, 197);fill-opacity:1.0;fill-rule:evenodd;stroke:rgb(0, 0, 0);stroke-width:3.0;" d="M 93.9977, 315.795 L 87.0784, 326.761 L 81.8504, 328.834 L 72.308, 300.917 L 81.5183, 287.093 z "/>
<path style="fill:rgb(255, 24, 197);fill-opacity:1.0;fill-rule:evenodd;stroke:rgb(0, 0, 0);stroke-width:3.0;" d="M 453.416, 124.035 L 409.85, 33.3874 L 545.828, 32.7323 z "/>
<path style="fill:rgb(54, 175, 255);fill-opacity:1.0;fill-rule:evenodd;stroke:rgb(0, 0, 0);stroke-width:3.0;" d="M 135.781, 205.651 L 82.1806, 286.099 L 37.2936, 206.183 L 36.9012, 129.845 L 73.9303, 118.878 z "/>
<path style="fill:rgb(234, 43, 34);fill-opacity:1.0;fill-rule:evenodd;stroke:rgb(0, 0, 0);stroke-width:3.0;" d="M 134.118, 316.754 L 164.603, 332.086 L 173.69, 362.651 L 138.712, 351.754 L 133.932, 316.723 z "/>
<path style="fill:rgb(255, 252, 48);fill-opacity:1.0;fill-rule:evenodd;stroke:rgb(0, 0, 0);stroke-width:3.0;" d="M 40.2155, 211.386 L 61.4775, 249.24 L 58.158, 272.769 L 37.5731, 260.546 L 37.3124, 209.827 z "/>
<path style="fill:rgb(255, 252, 48);fill-opacity:1.0;fill-rule:evenodd;stroke:rgb(0, 0, 0);stroke-width:3.0;" d="M 219.59, 323.23 L 174.941, 335.273 L 171.435, 328.928 L 184.792, 312.095 L 208.396, 307.526 z "/>
<path style="fill:rgb(255, 130, 21);fill-opacity:1.0;fill-rule:evenodd;stroke:rgb(0, 0, 0);stroke-width:3.0;" d="M 555.949, 230.651 L 559.059, 287.896 L 540.462, 332.928 L 533.424, 320.469 L 536.256, 254.309 L 547.231, 224.275 z "/>
<path style="fill:rgb(255, 39, 150);fill-opacity:1.0;fill-rule:evenodd;stroke:rgb(0, 0, 0);stroke-width:3.0;" d="M 547.231, 224.275 L 536.256, 254.309 L 537.835, 217.403 z "/>
<path style="fill:rgb(255, 249, 70);fill-opacity:1.0;fill-rule:evenodd;stroke:rgb(0, 0, 0);stroke-width:3.0;" d="M 781.65, 322.36 L 781.168, 323.072 L 767.179, 337.873 L 761.036, 336.341 L 772.529, 324.254 L 778.526, 320.796 z "/>
<path style="fill:rgb(255, 249, 70);fill-opacity:1.0;fill-rule:evenodd;stroke:rgb(0, 0, 0);stroke-width:3.0;" d="M 556.323, 324.586 L 555.075, 309.776 L 675.414, 276.82 z "/>
<path style="fill:rgb(61, 194, 228);fill-opacity:1.0;fill-rule:evenodd;stroke:rgb(0, 0, 0);stroke-width:3.0;" d="M 596.169, 345.086 L 551.971, 353.302 L 545.581, 341.99 L 591.176, 325.099 z "/>
<path style="fill:rgb(61, 194, 228);fill-opacity:1.0;fill-rule:evenodd;stroke:rgb(0, 0, 0);stroke-width:3.0;" d="M 700.295, 574.466 L 622.63, 573.552 L 592.758, 557.074 L 491.002, 474.06 z "/>
<path style="fill:rgb(136, 154, 255);fill-opacity:1.0;fill-rule:evenodd;stroke:rgb(0, 0, 0);stroke-width:3.0;" d="M 259.035, 378.57 L 252.208, 387.113 L 240.129, 383.35 L 251.425, 367.894 z "/>
<path style="fill:rgb(136, 154, 255);fill-opacity:1.0;fill-rule:evenodd;stroke:rgb(0, 0, 0);stroke-width:3.0;" d="M 764.239, 42.2209 L 760.696, 41.1244 L 760.141, 36.4027 L 767.41, 28.9647 L 792.26, 28.7666 z "/>
<path style="fill:rgb(136, 154, 255);fill-opacity:1.0;fill-rule:evenodd;stroke:rgb(0, 0, 0);stroke-width:3.0;" d="M 166.751, 262.554 L 184.344, 305.369 L 162.698, 313.119 L 154.619, 298.498 L 140.274, 250.244 z "/>
<path style="fill:rgb(48, 61, 255);fill-opacity:1.0;fill-rule:evenodd;stroke:rgb(0, 0, 0);stroke-width:3.0;" d="M 524.91, 179.48 L 555.14, 215.769 L 555.949, 230.651 L 454.322, 156.322 z "/>
<path style="fill:rgb(255, 42, 22);fill-opacity:1.0;fill-rule:evenodd;stroke:rgb(0, 0, 0);stroke-width:3.0;" d="M 631.019, 338.608 L 596.169, 345.086 L 591.176, 325.099 L 619.59, 314.574 z "/>
<path style="fill:rgb(255, 42, 22);fill-opacity:1.0;fill-rule:evenodd;stroke:rgb(0, 0, 0);stroke-width:3.0;" d="M 42.618, 331.127 L 43.9431, 331.927 L 39.1766, 347.399 L 29.0553, 342.243 L 35.4201, 328.485 z "/>
<path style="fill:rgb(246, 44, 44);fill-opacity:1.0;fill-rule:evenodd;stroke:rgb(0, 0, 0);stroke-width:3.0;" d="M 82.6571, 513.953 L 79.1055, 524.504 L 57.9011, 518.631 L 53.0317, 512.68 z "/>
<path style="fill:rgb(255, 255, 204);fill-opacity:1.0;fill-rule:evenodd;stroke:rgb(0, 0, 0);stroke-width:3.0;" d="M 113.858, 272.084 L 158.007, 314.924 L 100.842, 307.361 L 103.49, 266.841 z "/>
<path style="fill:rgb(255, 175, 6);fill-opacity:1.0;fill-rule:evenodd;stroke:rgb(0, 0, 0);stroke-width:3.0;" d="M 133.932, 316.723 L 138.712, 351.754 L 99.3177, 339.481 L 114.197, 313.478 z "/>
<path style="fill:rgb(255, 255, 45);fill-opacity:1.0;fill-rule:evenodd;stroke:rgb(0, 0, 0);stroke-width:3.0;" d="M 114.197, 313.478 L 99.3177, 339.481 L 98.7543, 339.305 L 100.588, 311.241 z "/>
<path style="fill:rgb(7, 121, 255);fill-opacity:1.0;fill-rule:evenodd;stroke:rgb(0, 0, 0);stroke-width:3.0;" d="M 330.222, 453.788 L 348.509, 488.507 L 339.599, 492.228 L 313.263, 462.939 L 325.143, 452.435 z "/>
<path style="fill:rgb(7, 121, 255);fill-opacity:1.0;fill-rule:evenodd;stroke:rgb(0, 0, 0);stroke-width:3.0;" d="M 82.1404, 329.683 L 87.3499, 344.924 L 61.7401, 326.515 L 77.2572, 325.736 z "/>
<path style="fill:rgb(7, 121, 255);fill-opacity:1.0;fill-rule:evenodd;stroke:rgb(0, 0, 0);stroke-width:3.0;" d="M 358.778, 508.003 L 345.583, 498.882 L 339.599, 492.228 L 348.509, 488.507 z "/>
<path style="fill:rgb(240, 187, 45);fill-opacity:1.0;fill-rule:evenodd;stroke:rgb(0, 0, 0);stroke-width:3.0;" d="M 353.916, 504.643 L 358.778, 508.003 L 360.742, 511.733 L 349.275, 523.105 L 347.978, 504.28 z "/>
<path style="fill:rgb(255, 4, 91);fill-opacity:1.0;fill-rule:evenodd;stroke:rgb(0, 0, 0);stroke-width:3.0;" d="M 326.858, 485.939 L 322.629, 487.698 L 306.071, 484.749 L 305.864, 471.427 z "/>
<path style="fill:rgb(19, 81, 255);fill-opacity:1.0;fill-rule:evenodd;stroke:rgb(0, 0, 0);stroke-width:3.0;" d="M 658.609, 333.479 L 631.019, 338.608 L 629.936, 336.329 L 639.991, 307.016 L 670.09, 295.866 z "/>
<path style="fill:rgb(223, 255, 71);fill-opacity:1.0;fill-rule:evenodd;stroke:rgb(0, 0, 0);stroke-width:3.0;" d="M 142.974, 353.082 L 124.551, 432.756 L 117.801, 434.011 L 103.568, 392.372 L 111.303, 343.215 z "/>
<path style="fill:rgb(231, 44, 217);fill-opacity:1.0;fill-rule:evenodd;stroke:rgb(0, 0, 0);stroke-width:3.0;" d="M 39.3677, 500.61 L 43.9613, 512.29 L 37.952, 512.032 L 23.5791, 500.903 L 22.6554, 498.616 z "/>
<path style="fill:rgb(199, 61, 194);fill-opacity:1.0;fill-rule:evenodd;stroke:rgb(0, 0, 0);stroke-width:3.0;" d="M 516.968, 495.243 L 521.104, 498.618 L 515.673, 514.55 L 475.144, 492.193 z "/>
<path style="fill:rgb(199, 61, 194);fill-opacity:1.0;fill-rule:evenodd;stroke:rgb(0, 0, 0);stroke-width:3.0;" d="M 304.844, 405.608 L 305.192, 428.038 L 280.576, 412.047 L 277.315, 404.358 L 301.789, 399.809 z "/>
<path style="fill:rgb(199, 61, 194);fill-opacity:1.0;fill-rule:evenodd;stroke:rgb(0, 0, 0);stroke-width:3.0;" d="M 632.805, 280.794 L 638.303, 286.983 L 618.635, 292.369 L 614.027, 281.703 L 620.921, 279.688 z "/>
<path style="fill:rgb(255, 3, 18);fill-opacity:1.0;fill-rule:evenodd;stroke:rgb(0, 0, 0);stroke-width:3.0;" d="M 152.589, 291.67 L 136.473, 283.52 L 140.458, 274.576 L 146.857, 272.387 z "/>
<path style="fill:rgb(255, 189, 45);fill-opacity:1.0;fill-rule:evenodd;stroke:rgb(0, 0, 0);stroke-width:3.0;" d="M 80.9605, 343.921 L 89.4451, 351.053 L 90.6756, 354.653 L 82.2497, 358.292 L 59.351, 330.288 z "/>
<path style="fill:rgb(228, 21, 175);fill-opacity:1.0;fill-rule:evenodd;stroke:rgb(0, 0, 0);stroke-width:3.0;" d="M 272.217, 418.127 L 217.252, 428.133 L 264.891, 406.668 L 267.415, 406.199 z "/>
<path style="fill:rgb(228, 21, 175);fill-opacity:1.0;fill-rule:evenodd;stroke:rgb(0, 0, 0);stroke-width:3.0;" d="M 452.778, 124.665 L 433.553, 143.659 L 422.954, 124.895 L 430.179, 123.23 z "/>
<path style="fill:rgb(246, 142, 11);fill-opacity:1.0;fill-rule:evenodd;stroke:rgb(0, 0, 0);stroke-width:3.0;" d="M 39.2278, 355.143 L 23.1488, 385.615 L 13.9143, 388.56 L 33.6096, 359 L 38.0082, 354.581 z "/>
<path style="fill:rgb(249, 255, 9);fill-opacity:1.0;fill-rule:evenodd;stroke:rgb(0, 0, 0);stroke-width:3.0;" d="M 186.318, 310.172 L 173.728, 326.038 L 167.429, 311.425 L 184.344, 305.369 z "/>
<path style="fill:rgb(40, 243, 39);fill-opacity:1.0;fill-rule:evenodd;stroke:rgb(0, 0, 0);stroke-width:3.0;" d="M 336.057, 550.713 L 325.421, 550.269 L 306.352, 502.907 L 306.222, 494.523 L 306.478, 494.417 z "/>
<path style="fill:rgb(40, 243, 39);fill-opacity:1.0;fill-rule:evenodd;stroke:rgb(0, 0, 0);stroke-width:3.0;" d="M 80.5111, 426.775 L 78.0547, 433.569 L 54.8486, 445.713 L 44.4807, 447.64 L 39.3561, 443.537 L 58.3213, 418.113 L 75.336, 407.415 z "/>
<path style="fill:rgb(54, 177, 243);fill-opacity:1.0;fill-rule:evenodd;stroke:rgb(0, 0, 0);stroke-width:3.0;" d="M 315.597, 426.023 L 309.007, 458.206 L 305.601, 454.418 L 304.844, 405.608 z "/>
<path style="fill:rgb(255, 76, 170);fill-opacity:1.0;fill-rule:evenodd;stroke:rgb(0, 0, 0);stroke-width:3.0;" d="M 41.1077, 550.894 L 6.72568, 545.628 L 7.33442, 544.848 L 46.5941, 526.037 z "/>
<path style="fill:rgb(255, 76, 170);fill-opacity:1.0;fill-rule:evenodd;stroke:rgb(0, 0, 0);stroke-width:3.0;" d="M 109.192, 356.633 L 103.568, 392.372 L 85.581, 339.749 z "/>
<path style="fill:rgb(255, 192, 255);fill-opacity:1.0;fill-rule:evenodd;stroke:rgb(0, 0, 0);stroke-width:3.0;" d="M 187.391, 278.058 L 188.029, 288.467 L 172.186, 275.779 L 163.012, 253.454 L 169.673, 253.2 z "/>
<path style="fill:rgb(255, 192, 255);fill-opacity:1.0;fill-rule:evenodd;stroke:rgb(0, 0, 0);stroke-width:3.0;" d="M 97.911, 375.821 L 23.0217, 385.855 L 24.3781, 383.285 L 90.6756, 354.653 z "/>
<path style="fill:rgb(255, 192, 255);fill-opacity:1.0;fill-rule:evenodd;stroke:rgb(0, 0, 0);stroke-width:3.0;" d="M 111.303, 343.215 L 109.192, 356.633 L 85.581, 339.749 L 83.8414, 334.659 z "/>
<path style="fill:rgb(252, 249, 8);fill-opacity:1.0;fill-rule:evenodd;stroke:rgb(0, 0, 0);stroke-width:3.0;" d="M 508.546, 488.373 L 470.503, 489.633 L 468.958, 488.781 L 480.344, 465.366 z "/>
<path style="fill:rgb(66, 197, 255);fill-opacity:1.0;fill-rule:evenodd;stroke:rgb(0, 0, 0);stroke-width:3.0;" d="M 103.777, 392.982 L 22.0819, 429.706 L 6.4763, 417.211 L 23.0217, 385.855 L 97.911, 375.821 z "/>
<path style="fill:rgb(66, 197, 255);fill-opacity:1.0;fill-rule:evenodd;stroke:rgb(0, 0, 0);stroke-width:3.0;" d="M 636.972, 315.816 L 631.544, 331.642 L 627.698, 331.624 L 619.59, 314.574 L 625.919, 312.229 z "/>
<path style="fill:rgb(255, 255, 36);fill-opacity:1.0;fill-rule:evenodd;stroke:rgb(0, 0, 0);stroke-width:3.0;" d="M 328.121, 449.801 L 313.819, 462.448 L 309.162, 457.445 L 315.597, 426.023 z "/>
<path style="fill:rgb(255, 255, 179);fill-opacity:1.0;fill-rule:evenodd;stroke:rgb(0, 0, 0);stroke-width:3.0;" d="M 69.917, 540.428 L 75.3378, 548.9 L 62.2303, 555.859 L 55.6497, 542.162 L 56.5179, 540.088 z "/>
<path style="fill:rgb(255, 44, 91);fill-opacity:1.0;fill-rule:evenodd;stroke:rgb(0, 0, 0);stroke-width:3.0;" d="M 44.2931, 348.066 L 50.0164, 372.213 L 24.3781, 383.285 L 43.1292, 347.75 z "/>
<path style="fill:rgb(255, 25, 19);fill-opacity:1.0;fill-rule:evenodd;stroke:rgb(0, 0, 0);stroke-width:3.0;" d="M 305.868, 471.669 L 305.954, 477.232 L 295.674, 476.385 L 267.415, 406.199 L 277.315, 404.358 z "/>
<path style="fill:rgb(255, 12, 255);fill-opacity:1.0;fill-rule:evenodd;stroke:rgb(0, 0, 0);stroke-width:3.0;" d="M 398.613, 81.8036 L 405.281, 380.571 L 277.404, 404.342 L 182.973, 271.859 L 360.967, 15.1559 z "/>
<path style="fill:rgb(89, 112, 255);fill-opacity:1.0;fill-rule:evenodd;stroke:rgb(0, 0, 0);stroke-width:3.0;" d="M 761.265, 35.2524 L 750.804, 38.0624 L 722.567, 29.3222 L 767.41, 28.9647 z "/>
<path style="fill:rgb(202, 0, 220);fill-opacity:1.0;fill-rule:evenodd;stroke:rgb(0, 0, 0);stroke-width:3.0;" d="M 99.6321, 100.781 L 77.5827, 124.002 L 20.6685, 44.1543 z "/>
<path style="fill:rgb(202, 0, 220);fill-opacity:1.0;fill-rule:evenodd;stroke:rgb(0, 0, 0);stroke-width:3.0;" d="M 431.291, 139.654 L 415.642, 208.717 L 401.374, 205.502 L 398.613, 81.8036 z "/>
<path style="fill:rgb(202, 0, 220);fill-opacity:1.0;fill-rule:evenodd;stroke:rgb(0, 0, 0);stroke-width:3.0;" d="M 44.1695, 437.084 L 41.6176, 425.945 L 41.7422, 425.223 L 61.1635, 412.138 L 63.5932, 411.046 z "/>
<path style="fill:rgb(234, 252, 47);fill-opacity:1.0;fill-rule:evenodd;stroke:rgb(0, 0, 0);stroke-width:3.0;" d="M 157.164, 456.613 L 159.794, 461.189 L 104.84, 440.639 L 130.68, 437.768 z "/>
<path style="fill:rgb(255, 31, 228);fill-opacity:1.0;fill-rule:evenodd;stroke:rgb(0, 0, 0);stroke-width:3.0;" d="M 46.1238, 516.981 L 41.1789, 528.632 L 12.3581, 542.441 L 29.6526, 516.235 L 31.5529, 513.799 z "/>
<path style="fill:rgb(94, 89, 255);fill-opacity:1.0;fill-rule:evenodd;stroke:rgb(0, 0, 0);stroke-width:3.0;" d="M 241.603, 357.751 L 236.69, 367.89 L 220.59, 362.885 L 238.035, 356.419 z "/>
<path style="fill:rgb(94, 89, 255);fill-opacity:1.0;fill-rule:evenodd;stroke:rgb(0, 0, 0);stroke-width:3.0;" d="M 382.292, 552.645 L 351.222, 551.347 L 351.204, 551.083 L 369.281, 527.945 z "/>
<path style="fill:rgb(255, 108, 18);fill-opacity:1.0;fill-rule:evenodd;stroke:rgb(0, 0, 0);stroke-width:3.0;" d="M 711.73, 316.026 L 711.737, 323.603 L 699.2, 325.933 L 672.46, 327.808 L 680.219, 305.56 L 688.211, 291.39 z "/>
<path style="fill:rgb(220, 163, 234);fill-opacity:1.0;fill-rule:evenodd;stroke:rgb(0, 0, 0);stroke-width:3.0;" d="M 793.768, 28.0426 L 792.26, 28.7666 L 729.863, 29.264 L 736.881, 21.0704 z "/>
<path style="fill:rgb(255, 249, 27);fill-opacity:1.0;fill-rule:evenodd;stroke:rgb(0, 0, 0);stroke-width:3.0;" d="M 736.881, 21.0704 L 729.863, 29.264 L 722.567, 29.3222 L 714.45, 26.8096 L 710.895, 17.8855 z "/>
<path style="fill:rgb(33, 220, 255);fill-opacity:1.0;fill-rule:evenodd;stroke:rgb(0, 0, 0);stroke-width:3.0;" d="M 182.973, 271.859 L 112.217, 172.593 L 284.495, 125.444 z "/>
<path style="fill:rgb(144, 95, 184);fill-opacity:1.0;fill-rule:evenodd;stroke:rgb(0, 0, 0);stroke-width:3.0;" d="M 716.017, 320.517 L 686.633, 289.738 L 696.616, 286.039 L 732.446, 285.048 z "/>
<path style="fill:rgb(223, 255, 255);fill-opacity:1.0;fill-rule:evenodd;stroke:rgb(0, 0, 0);stroke-width:3.0;" d="M 760.188, 284.28 L 696.616, 286.039 L 753.228, 265.067 z "/>
<path style="fill:rgb(255, 252, 22);fill-opacity:1.0;fill-rule:evenodd;stroke:rgb(0, 0, 0);stroke-width:3.0;" d="M 511.44, 317.168 L 500.722, 333.478 L 497.538, 305.332 z "/>
<path style="fill:rgb(255, 64, 15);fill-opacity:1.0;fill-rule:evenodd;stroke:rgb(0, 0, 0);stroke-width:3.0;" d="M 102.652, 279.667 L 85.5923, 280.979 L 104.412, 252.732 z "/>
<path style="fill:rgb(207, 0, 255);fill-opacity:1.0;fill-rule:evenodd;stroke:rgb(0, 0, 0);stroke-width:3.0;" d="M 99.0854, 334.239 L 98.7543, 339.305 L 83.8414, 334.659 L 83.2275, 332.863 L 91.4767, 319.791 z "/>
<path style="fill:rgb(255, 2, 31);fill-opacity:1.0;fill-rule:evenodd;stroke:rgb(0, 0, 0);stroke-width:3.0;" d="M 478.275, 222.833 L 415.642, 208.717 L 431.291, 139.654 z "/>
<path style="fill:rgb(255, 2, 31);fill-opacity:1.0;fill-rule:evenodd;stroke:rgb(0, 0, 0);stroke-width:3.0;" d="M 182.447, 583.588 L 182.58, 588.137 L 181.982, 594.724 L 173.177, 593.735 L 173.011, 593.248 L 172.692, 581.429 L 174.518, 577.53 z "/>
<path style="fill:rgb(21, 255, 255);fill-opacity:1.0;fill-rule:evenodd;stroke:rgb(0, 0, 0);stroke-width:3.0;" d="M 480.344, 465.366 L 468.958, 488.781 L 449.341, 477.959 L 471.432, 458.094 z "/>
<path style="fill:rgb(21, 255, 255);fill-opacity:1.0;fill-rule:evenodd;stroke:rgb(0, 0, 0);stroke-width:3.0;" d="M 37.2947, 206.396 L 27.4589, 214.297 L 24.9077, 206.41 L 37.2291, 193.637 z "/>
<path style="fill:rgb(15, 252, 246);fill-opacity:1.0;fill-rule:evenodd;stroke:rgb(0, 0, 0);stroke-width:3.0;" d="M 101.018, 304.671 L 93.9977, 315.795 L 81.5183, 287.093 L 85.5923, 280.979 L 102.652, 279.667 z "/>
<path style="fill:rgb(255, 161, 189);fill-opacity:1.0;fill-rule:evenodd;stroke:rgb(0, 0, 0);stroke-width:3.0;" d="M 471.432, 458.094 L 449.341, 477.959 L 436.868, 471.078 L 436.644, 463.825 L 465.468, 453.229 z "/>
<path style="fill:rgb(255, 161, 189);fill-opacity:1.0;fill-rule:evenodd;stroke:rgb(0, 0, 0);stroke-width:3.0;" d="M 70.9576, 344.482 L 82.2497, 358.292 L 74.7861, 361.516 L 51.2189, 332.57 L 51.4718, 332.19 z "/>
<path style="fill:rgb(255, 255, 54);fill-opacity:1.0;fill-rule:evenodd;stroke:rgb(0, 0, 0);stroke-width:3.0;" d="M 382.292, 552.645 L 389.895, 567.081 L 340.258, 553.704 L 336.786, 550.744 z "/>
<path style="fill:rgb(255, 220, 33);fill-opacity:1.0;fill-rule:evenodd;stroke:rgb(0, 0, 0);stroke-width:3.0;" d="M 369.281, 527.945 L 351.204, 551.083 L 350.317, 538.215 L 366.883, 523.391 z "/>
<path style="fill:rgb(255, 75, 7);fill-opacity:1.0;fill-rule:evenodd;stroke:rgb(0, 0, 0);stroke-width:3.0;" d="M 140.236, 275.075 L 136.473, 283.52 L 103.49, 266.841 L 104.412, 252.732 L 104.999, 251.851 z "/>
<path style="fill:rgb(249, 150, 82);fill-opacity:1.0;fill-rule:evenodd;stroke:rgb(0, 0, 0);stroke-width:3.0;" d="M 159.346, 574.325 L 142.56, 580.621 L 145.096, 568.517 L 145.632, 567.997 L 148.95, 566.928 z "/>
<path style="fill:rgb(249, 150, 82);fill-opacity:1.0;fill-rule:evenodd;stroke:rgb(0, 0, 0);stroke-width:3.0;" d="M 136.71, 165.889 L 112.217, 172.593 L 77.5827, 124.002 L 99.312, 101.119 z "/>
<path style="fill:rgb(252, 28, 184);fill-opacity:1.0;fill-rule:evenodd;stroke:rgb(0, 0, 0);stroke-width:3.0;" d="M 238.035, 356.419 L 220.59, 362.885 L 220.29, 362.791 L 219.028, 350.636 L 221.352, 350.187 z "/>
<path style="fill:rgb(252, 28, 184);fill-opacity:1.0;fill-rule:evenodd;stroke:rgb(0, 0, 0);stroke-width:3.0;" d="M 516.968, 495.243 L 486.992, 493.057 L 499.923, 488.658 L 508.546, 488.373 z "/>
<path style="fill:rgb(255, 2, 70);fill-opacity:1.0;fill-rule:evenodd;stroke:rgb(0, 0, 0);stroke-width:3.0;" d="M 171.649, 549.462 L 133.543, 558.326 L 134.35, 556.913 L 164.762, 544.169 L 164.981, 544.123 z "/>
<path style="fill:rgb(220, 6, 121);fill-opacity:1.0;fill-rule:evenodd;stroke:rgb(0, 0, 0);stroke-width:3.0;" d="M 312.554, 518.311 L 330.121, 561.942 L 275.809, 566.248 L 258.629, 498.146 z "/>
<path style="fill:rgb(231, 124, 18);fill-opacity:1.0;fill-rule:evenodd;stroke:rgb(0, 0, 0);stroke-width:3.0;" d="M 231.299, 366.214 L 231.86, 377.856 L 230.632, 380.391 L 221.832, 377.65 L 220.29, 362.791 z "/>
<path style="fill:rgb(243, 36, 10);fill-opacity:1.0;fill-rule:evenodd;stroke:rgb(0, 0, 0);stroke-width:3.0;" d="M 217.252, 428.133 L 137.533, 442.644 L 123.826, 432.891 L 264.891, 406.668 z "/>
<path style="fill:rgb(255, 52, 255);fill-opacity:1.0;fill-rule:evenodd;stroke:rgb(0, 0, 0);stroke-width:3.0;" d="M 532.991, 335.517 L 548.038, 348.328 L 543.933, 354.796 L 522.55, 358.771 L 512.747, 356.297 L 510.418, 328.89 z "/>
<path style="fill:rgb(237, 204, 16);fill-opacity:1.0;fill-rule:evenodd;stroke:rgb(0, 0, 0);stroke-width:3.0;" d="M 527.472, 330.817 L 532.991, 335.517 L 510.418, 328.89 L 509.653, 319.888 L 510.388, 318.77 z "/>
<path style="fill:rgb(249, 243, 7);fill-opacity:1.0;fill-rule:evenodd;stroke:rgb(0, 0, 0);stroke-width:3.0;" d="M 144.686, 265.085 L 143.492, 267.766 L 133.64, 270.728 L 104.999, 251.851 L 129.721, 214.745 z "/>
<path style="fill:rgb(243, 8, 8);fill-opacity:1.0;fill-rule:evenodd;stroke:rgb(0, 0, 0);stroke-width:3.0;" d="M 312.554, 518.311 L 211.638, 480.575 L 200.152, 431.246 L 272.217, 418.127 z "/>
<path style="fill:rgb(243, 8, 8);fill-opacity:1.0;fill-rule:evenodd;stroke:rgb(0, 0, 0);stroke-width:3.0;" d="M 497.538, 305.332 L 500.722, 333.478 L 499.791, 334.896 L 492.424, 320.676 L 492.011, 300.626 z "/>
<path style="fill:rgb(255, 37, 132);fill-opacity:1.0;fill-rule:evenodd;stroke:rgb(0, 0, 0);stroke-width:3.0;" d="M 453.416, 124.035 L 452.778, 124.665 L 421.709, 122.692 L 405.75, 94.4374 L 420.928, 56.4372 z "/>
<path style="fill:rgb(255, 37, 132);fill-opacity:1.0;fill-rule:evenodd;stroke:rgb(0, 0, 0);stroke-width:3.0;" d="M 64.8451, 312.118 L 52.3813, 330.825 L 46.4258, 325.238 L 52.3342, 315.851 L 62.5699, 311.393 z "/>
<path style="fill:rgb(18, 249, 255);fill-opacity:1.0;fill-rule:evenodd;stroke:rgb(0, 0, 0);stroke-width:3.0;" d="M 158.007, 314.924 L 160.108, 316.963 L 161.378, 321.236 L 100.588, 311.241 L 100.824, 307.64 L 102.071, 307.523 z "/>
<path style="fill:rgb(67, 8, 243);fill-opacity:1.0;fill-rule:evenodd;stroke:rgb(0, 0, 0);stroke-width:3.0;" d="M 694.882, 574.402 L 673.817, 588.285 L 625.792, 573.59 z "/>
<path style="fill:rgb(255, 56, 243);fill-opacity:1.0;fill-rule:evenodd;stroke:rgb(0, 0, 0);stroke-width:3.0;" d="M 629.576, 277.159 L 613.047, 281.989 L 608.18, 276.106 L 623.207, 269.99 z "/>
<path style="fill:rgb(243, 144, 14);fill-opacity:1.0;fill-rule:evenodd;stroke:rgb(0, 0, 0);stroke-width:3.0;" d="M 211.638, 480.575 L 167.802, 464.183 L 137.533, 442.644 L 200.152, 431.246 z "/>
<path style="fill:rgb(18, 26, 255);fill-opacity:1.0;fill-rule:evenodd;stroke:rgb(0, 0, 0);stroke-width:3.0;" d="M 420.928, 56.4372 L 405.75, 94.4374 L 371.37, 33.5728 L 409.85, 33.3874 z "/>
</svg>