<?xml version="1.0" encoding="iso-8859-1" standalone="no"?>
<!DOCTYPE svg PUBLIC "-//W3C//DTD SVG 1.0//EN" "http://www.w3.org/TR/2001/REC-SVG-20010904/DTD/svg10.dtd">
<svg xmlns="http://www.w3.org/2000/svg" width="800" height="600">
<path style="fill:rgb(0, 0, 0);fill-opacity:0.0;fill-rule:evenodd;stroke:rgb(0, 0, 0);stroke-width:0.0;" d="M 0, 600 L 800, 600 L 800, 0 L 0, 0 z "/>
<path style="fill:rgb(117, 255, 43);fill-opacity:1.0;fill-rule:evenodd;stroke:rgb(0, 0, 0);stroke-width:3.0;" d="M 495.644, 99.6067 L 494.657, 107.444 L 465.08, 104.701 L 466.472, 101.761 L 492.357, 99.1023 z "/>
<path style="fill:rgb(117, 255, 43);fill-opacity:1.0;fill-rule:evenodd;stroke:rgb(0, 0, 0);stroke-width:3.0;" d="M 766.839, 88.0141 L 739.856, 68.0617 L 740.179, 67.9208 L 771.408, 61.1796 z "/>
<path style="fill:rgb(117, 255, 43);fill-opacity:1.0;fill-rule:evenodd;stroke:rgb(0, 0, 0);stroke-width:3.0;" d="M 732.125, 62.3447 L 709.545, 66.5917 L 673.656, 35.5919 L 671.024, 17.1641 z "/>
<path style="fill:rgb(117, 255, 43);fill-opacity:1.0;fill-rule:evenodd;stroke:rgb(0, 0, 0);stroke-width:3.0;" d="M 117.176, 39.3799 L 128.842, 61.9481 L 120.364, 63.8209 L 110.594, 52.3409 L 113.149, 37.6935 z "/>
<path style="fill:rgb(117, 255, 43);fill-opacity:1.0;fill-rule:evenodd;stroke:rgb(0, 0, 0);stroke-width:3.0;" d="M 456.99, 62.4123 L 461.021, 78.7658 L 439.117, 64.0766 L 433.713, 50.3623 z "/>
<path style="fill:rgb(249, 168, 41);fill-opacity:1.0;fill-rule:evenodd;stroke:rgb(0, 0, 0);stroke-width:3.0;" d="M 664.437, 100.823 L 702.593, 126.73 L 597.665, 116.998 L 593.316, 69.2916 z "/>
<path style="fill:rgb(249, 168, 41);fill-opacity:1.0;fill-rule:evenodd;stroke:rgb(0, 0, 0);stroke-width:3.0;" d="M 590.633, 116.346 L 592.786, 140.579 L 571.119, 146.074 L 549.027, 116.553 L 553.648, 112.915 z "/>
<path style="fill:rgb(249, 168, 41);fill-opacity:1.0;fill-rule:evenodd;stroke:rgb(0, 0, 0);stroke-width:3.0;" d="M 320.496, 35.8848 L 313.714, 34.7075 L 333.577, 6.86869 L 349.475, 5.60356 z "/>
<path style="fill:rgb(249, 168, 41);fill-opacity:1.0;fill-rule:evenodd;stroke:rgb(0, 0, 0);stroke-width:3.0;" d="M 430.137, 72.6574 L 429.176, 73.6963 L 412.476, 69.9022 L 411.33, 60.8732 L 415.629, 55.0949 L 416.817, 54.6908 z "/>
<path style="fill:rgb(255, 42, 16);fill-opacity:1.0;fill-rule:evenodd;stroke:rgb(0, 0, 0);stroke-width:3.0;" d="M 79.6773, 325.03 L 72.3929, 335.217 L 71.3185, 335.6 L 49.9224, 321.757 z "/>
<path style="fill:rgb(255, 42, 16);fill-opacity:1.0;fill-rule:evenodd;stroke:rgb(0, 0, 0);stroke-width:3.0;" d="M 157.511, 335.363 L 143.277, 361.787 L 150.039, 314.219 L 153.846, 306.181 L 167.693, 301.245 z "/>
<path style="fill:rgb(255, 42, 16);fill-opacity:1.0;fill-rule:evenodd;stroke:rgb(0, 0, 0);stroke-width:3.0;" d="M 436.467, 152.875 L 427.966, 159.166 L 385.552, 158.49 L 385.434, 125.334 L 414.07, 116.329 z "/>
<path style="fill:rgb(102, 16, 255);fill-opacity:1.0;fill-rule:evenodd;stroke:rgb(0, 0, 0);stroke-width:3.0;" d="M 382.571, 159.739 L 319.623, 146.424 L 319.483, 146.074 L 381.223, 126.658 z "/>
<path style="fill:rgb(102, 16, 255);fill-opacity:1.0;fill-rule:evenodd;stroke:rgb(0, 0, 0);stroke-width:3.0;" d="M 552.242, 72.5413 L 534.702, 105.06 L 481.055, 70.965 L 502.574, 25.5197 L 525.232, 17.8122 z "/>
<path style="fill:rgb(243, 240, 18);fill-opacity:1.0;fill-rule:evenodd;stroke:rgb(0, 0, 0);stroke-width:3.0;" d="M 169.889, 304.816 L 160.102, 352.203 L 157.512, 359.18 L 151.523, 355.425 L 167.32, 302.493 z "/>
<path style="fill:rgb(243, 240, 18);fill-opacity:1.0;fill-rule:evenodd;stroke:rgb(0, 0, 0);stroke-width:3.0;" d="M 315.434, 51.3074 L 290.198, 67.6287 L 284.054, 64.3138 L 310.988, 50.2457 z "/>
<path style="fill:rgb(255, 13, 11);fill-opacity:1.0;fill-rule:evenodd;stroke:rgb(0, 0, 0);stroke-width:3.0;" d="M 225.256, 81.8551 L 140.16, 60.671 L 215.697, 33.2638 z "/>
<path style="fill:rgb(255, 13, 11);fill-opacity:1.0;fill-rule:evenodd;stroke:rgb(0, 0, 0);stroke-width:3.0;" d="M 617.511, 68.9632 L 614.185, 78.5442 L 593.316, 69.2916 L 591.687, 51.4303 z "/>
<path style="fill:rgb(255, 13, 11);fill-opacity:1.0;fill-rule:evenodd;stroke:rgb(0, 0, 0);stroke-width:3.0;" d="M 373.956, 46.8842 L 362.427, 68.5008 L 361.266, 69.049 L 361.362, 63.0848 L 370.358, 38.5888 z "/>
<path style="fill:rgb(255, 13, 11);fill-opacity:1.0;fill-rule:evenodd;stroke:rgb(0, 0, 0);stroke-width:3.0;" d="M 304.771, 89.833 L 351.55, 135.99 L 212.207, 179.81 L 201.869, 171.725 L 279.629, 87.5011 z "/>
<path style="fill:rgb(255, 13, 11);fill-opacity:1.0;fill-rule:evenodd;stroke:rgb(0, 0, 0);stroke-width:3.0;" d="M 497.863, 18.2703 L 498.243, 19.5489 L 493.598, 22.9243 L 478.646, 13.6425 L 492.355, 7.1714 z "/>
<path style="fill:rgb(255, 13, 11);fill-opacity:1.0;fill-rule:evenodd;stroke:rgb(0, 0, 0);stroke-width:3.0;" d="M 115.074, 57.6047 L 95.6047, 56.3581 L 99.6485, 39.4793 z "/>
<path style="fill:rgb(255, 243, 31);fill-opacity:1.0;fill-rule:evenodd;stroke:rgb(0, 0, 0);stroke-width:3.0;" d="M 447.684, 144.574 L 442.729, 133.387 L 442.842, 131.367 L 473.311, 125.609 z "/>
<path style="fill:rgb(255, 243, 31);fill-opacity:1.0;fill-rule:evenodd;stroke:rgb(0, 0, 0);stroke-width:3.0;" d="M 195.721, 74.5025 L 218.56, 80.1881 L 218.02, 81.7871 L 180.673, 78.3233 L 195.705, 74.5013 z "/>
<path style="fill:rgb(255, 243, 31);fill-opacity:1.0;fill-rule:evenodd;stroke:rgb(0, 0, 0);stroke-width:3.0;" d="M 99.6485, 39.4793 L 95.6047, 56.3581 L 88.4156, 55.8978 L 92.3409, 30.8924 z "/>
<path style="fill:rgb(207, 234, 255);fill-opacity:1.0;fill-rule:evenodd;stroke:rgb(0, 0, 0);stroke-width:3.0;" d="M 159.814, 304.053 L 72.3929, 335.217 L 127.115, 258.684 L 166.377, 248.726 z "/>
<path style="fill:rgb(152, 243, 85);fill-opacity:1.0;fill-rule:evenodd;stroke:rgb(0, 0, 0);stroke-width:3.0;" d="M 591.687, 51.4303 L 593.412, 70.3487 L 585.583, 79.3703 L 569.792, 40.0047 L 571.151, 37.487 z "/>
<path style="fill:rgb(152, 243, 85);fill-opacity:1.0;fill-rule:evenodd;stroke:rgb(0, 0, 0);stroke-width:3.0;" d="M 402.053, 80.3026 L 395.1, 98.2106 L 390.169, 97.7533 L 392.688, 78.9312 z "/>
<path style="fill:rgb(152, 243, 85);fill-opacity:1.0;fill-rule:evenodd;stroke:rgb(0, 0, 0);stroke-width:3.0;" d="M 244.724, 22.732 L 196.203, 40.3368 L 202.665, 15.4314 z "/>
<path style="fill:rgb(255, 27, 252);fill-opacity:1.0;fill-rule:evenodd;stroke:rgb(0, 0, 0);stroke-width:3.0;" d="M 385.495, 142.557 L 385.608, 174.14 L 384.432, 173.747 L 382.588, 160.14 L 381.546, 134.59 z "/>
<path style="fill:rgb(255, 255, 7);fill-opacity:1.0;fill-rule:evenodd;stroke:rgb(0, 0, 0);stroke-width:3.0;" d="M 115.074, 57.6047 L 120.169, 63.5926 L 89.4204, 69.8599 L 86.2697, 69.5677 L 88.4156, 55.8978 z "/>
<path style="fill:rgb(255, 255, 7);fill-opacity:1.0;fill-rule:evenodd;stroke:rgb(0, 0, 0);stroke-width:3.0;" d="M 131.56, 490.394 L 131.038, 492.925 L 110.89, 491.575 L 121.274, 456.782 L 128.432, 456.736 z "/>
<path style="fill:rgb(255, 255, 7);fill-opacity:1.0;fill-rule:evenodd;stroke:rgb(0, 0, 0);stroke-width:3.0;" d="M 470.705, 85.2602 L 473.423, 87.0826 L 465.08, 104.701 L 463.968, 104.598 L 458.312, 82.2781 z "/>
<path style="fill:rgb(170, 207, 55);fill-opacity:1.0;fill-rule:evenodd;stroke:rgb(0, 0, 0);stroke-width:3.0;" d="M 433.713, 50.3623 L 434.457, 52.2526 L 438.24, 78.4765 L 436.032, 80.7485 L 428.801, 64.9208 L 426.844, 51.2799 L 432.059, 49.5062 z "/>
<path style="fill:rgb(170, 207, 55);fill-opacity:1.0;fill-rule:evenodd;stroke:rgb(0, 0, 0);stroke-width:3.0;" d="M 571.151, 37.487 L 565.763, 47.4743 L 541.837, 41.0576 L 541.878, 37.1453 L 547.277, 21.2783 z "/>
<path style="fill:rgb(170, 207, 55);fill-opacity:1.0;fill-rule:evenodd;stroke:rgb(0, 0, 0);stroke-width:3.0;" d="M 333.996, 38.2281 L 245.688, 84.3532 L 229.118, 82.8163 L 225.256, 81.8551 L 215.697, 33.2638 L 244.724, 22.732 z "/>
<path style="fill:rgb(45, 228, 199);fill-opacity:1.0;fill-rule:evenodd;stroke:rgb(0, 0, 0);stroke-width:3.0;" d="M 245.419, 273.536 L 225.977, 280.467 L 235.36, 262.063 z "/>
<path style="fill:rgb(45, 228, 199);fill-opacity:1.0;fill-rule:evenodd;stroke:rgb(0, 0, 0);stroke-width:3.0;" d="M 730.806, 7.05756 L 773.131, 51.0564 L 773.065, 51.442 L 727.766, 55.3429 L 701.569, 5.85634 z "/>
<path style="fill:rgb(45, 228, 199);fill-opacity:1.0;fill-rule:evenodd;stroke:rgb(0, 0, 0);stroke-width:3.0;" d="M 576.191, 55.9563 L 562.517, 113.738 L 553.917, 112.94 L 553.383, 70.426 L 569.792, 40.0047 z "/>
<path style="fill:rgb(45, 228, 199);fill-opacity:1.0;fill-rule:evenodd;stroke:rgb(0, 0, 0);stroke-width:3.0;" d="M 416.742, 212.463 L 245.419, 273.536 L 213.245, 236.839 L 462.665, 173.581 z "/>
<path style="fill:rgb(11, 2, 192);fill-opacity:1.0;fill-rule:evenodd;stroke:rgb(0, 0, 0);stroke-width:3.0;" d="M 152.92, 63.8475 L 137.577, 70.0934 L 118.234, 68.6265 L 140.16, 60.671 z "/>
<path style="fill:rgb(199, 209, 54);fill-opacity:1.0;fill-rule:evenodd;stroke:rgb(0, 0, 0);stroke-width:3.0;" d="M 387.94, 64.5137 L 361.192, 73.6123 L 361.266, 69.049 L 378.177, 61.0665 z "/>
<path style="fill:rgb(199, 209, 54);fill-opacity:1.0;fill-rule:evenodd;stroke:rgb(0, 0, 0);stroke-width:3.0;" d="M 42.0741, 29.9831 L 32.1767, 47.4971 L 21.8802, 37.2831 L 40.0866, 8.5769 z "/>
<path style="fill:rgb(199, 209, 54);fill-opacity:1.0;fill-rule:evenodd;stroke:rgb(0, 0, 0);stroke-width:3.0;" d="M 142.946, 544.044 L 140.646, 593.812 L 129.976, 575.194 L 137.652, 542.418 z "/>
<path style="fill:rgb(199, 209, 54);fill-opacity:1.0;fill-rule:evenodd;stroke:rgb(0, 0, 0);stroke-width:3.0;" d="M 276.307, 87.193 L 262, 85.8661 L 311.874, 53.6099 z "/>
<path style="fill:rgb(83, 54, 187);fill-opacity:1.0;fill-rule:evenodd;stroke:rgb(0, 0, 0);stroke-width:3.0;" d="M 594.571, 210.015 L 155.204, 375.919 L 170.86, 300.116 L 432.43, 206.87 z "/>
<path style="fill:rgb(83, 54, 187);fill-opacity:1.0;fill-rule:evenodd;stroke:rgb(0, 0, 0);stroke-width:3.0;" d="M 566.711, 18.9559 L 568.438, 29.753 L 568.909, 35.9653 L 548.069, 21.8155 L 566.303, 18.4713 z "/>
<path style="fill:rgb(255, 17, 17);fill-opacity:1.0;fill-rule:evenodd;stroke:rgb(0, 0, 0);stroke-width:3.0;" d="M 553.917, 112.94 L 545.936, 112.2 L 541.239, 109.215 L 541.339, 92.755 L 553.383, 70.426 z "/>
<path style="fill:rgb(255, 17, 17);fill-opacity:1.0;fill-rule:evenodd;stroke:rgb(0, 0, 0);stroke-width:3.0;" d="M 595.679, 53.3903 L 589.177, 49.7258 L 572.397, 38.3333 L 579.356, 33.9872 z "/>
<path style="fill:rgb(33, 207, 220);fill-opacity:1.0;fill-rule:evenodd;stroke:rgb(0, 0, 0);stroke-width:3.0;" d="M 36.3194, 221.303 L 27.2589, 237.972 L 22.6801, 239.412 L 21.5504, 219.291 L 31.2743, 212.668 z "/>
<path style="fill:rgb(33, 207, 220);fill-opacity:1.0;fill-rule:evenodd;stroke:rgb(0, 0, 0);stroke-width:3.0;" d="M 154.916, 35.1253 L 186.199, 43.9666 L 130.074, 64.3307 L 115.308, 35.7662 L 119.953, 30.2146 z "/>
<path style="fill:rgb(33, 207, 220);fill-opacity:1.0;fill-rule:evenodd;stroke:rgb(0, 0, 0);stroke-width:3.0;" d="M 382.571, 159.739 L 383.124, 173.309 L 322.238, 152.949 L 319.623, 146.424 z "/>
<path style="fill:rgb(19, 255, 255);fill-opacity:1.0;fill-rule:evenodd;stroke:rgb(0, 0, 0);stroke-width:3.0;" d="M 416.742, 212.463 L 443.829, 189.529 L 548.563, 151.839 L 591.907, 150.019 z "/>
<path style="fill:rgb(249, 140, 21);fill-opacity:1.0;fill-rule:evenodd;stroke:rgb(0, 0, 0);stroke-width:3.0;" d="M 473.147, 24.0859 L 473.156, 35.5266 L 458.597, 40.479 L 469.528, 19.4915 z "/>
<path style="fill:rgb(246, 124, 123);fill-opacity:1.0;fill-rule:evenodd;stroke:rgb(0, 0, 0);stroke-width:3.0;" d="M 594.678, 102.044 L 563.296, 113.81 L 562.517, 113.738 L 576.191, 55.9563 z "/>
<path style="fill:rgb(246, 124, 123);fill-opacity:1.0;fill-rule:evenodd;stroke:rgb(0, 0, 0);stroke-width:3.0;" d="M 414.019, 82.0551 L 414.916, 89.113 L 405.6, 99.1845 L 395.1, 98.2106 L 402.053, 80.3026 z "/>
<path style="fill:rgb(37, 10, 255);fill-opacity:1.0;fill-rule:evenodd;stroke:rgb(0, 0, 0);stroke-width:3.0;" d="M 553.648, 112.915 L 483.22, 168.368 L 458.797, 174.562 L 452.235, 175.086 L 441.31, 165.378 L 506.759, 108.567 z "/>
<path style="fill:rgb(37, 10, 255);fill-opacity:1.0;fill-rule:evenodd;stroke:rgb(0, 0, 0);stroke-width:3.0;" d="M 772.673, 53.7482 L 739.856, 68.0617 L 731.054, 61.553 L 727.766, 55.3429 L 773.065, 51.442 z "/>
<path style="fill:rgb(37, 10, 255);fill-opacity:1.0;fill-rule:evenodd;stroke:rgb(0, 0, 0);stroke-width:3.0;" d="M 690.245, 62.7164 L 692.668, 65.1978 L 678.347, 68.4391 L 676.305, 54.1403 z "/>
<path style="fill:rgb(37, 10, 255);fill-opacity:1.0;fill-rule:evenodd;stroke:rgb(0, 0, 0);stroke-width:3.0;" d="M 476.786, 51.0231 L 479.867, 56.4455 L 459.607, 63.7668 L 458.675, 63.2841 L 461.699, 46.9279 z "/>
<path style="fill:rgb(37, 10, 255);fill-opacity:1.0;fill-rule:evenodd;stroke:rgb(0, 0, 0);stroke-width:3.0;" d="M 490.431, 51.1642 L 492.341, 29.0003 L 502.574, 25.5197 z "/>
<path style="fill:rgb(10, 76, 249);fill-opacity:1.0;fill-rule:evenodd;stroke:rgb(0, 0, 0);stroke-width:3.0;" d="M 766.839, 88.0141 L 759.351, 131.994 L 702.593, 126.73 L 634.742, 80.6619 L 732.125, 62.3447 z "/>
<path style="fill:rgb(10, 76, 249);fill-opacity:1.0;fill-rule:evenodd;stroke:rgb(0, 0, 0);stroke-width:3.0;" d="M 491.742, 35.9576 L 490.852, 46.2718 L 478.068, 42.7248 L 475.625, 34.6865 L 485.462, 31.3404 z "/>
<path style="fill:rgb(10, 76, 249);fill-opacity:1.0;fill-rule:evenodd;stroke:rgb(0, 0, 0);stroke-width:3.0;" d="M 257.178, 10.2086 L 257.101, 18.1515 L 237.596, 11.9862 L 245.295, 8.84694 z "/>
<path style="fill:rgb(10, 76, 249);fill-opacity:1.0;fill-rule:evenodd;stroke:rgb(0, 0, 0);stroke-width:3.0;" d="M 361.077, 167.513 L 379.978, 172.979 L 385.653, 186.774 L 385.661, 188.898 L 364.46, 198.488 L 364.286, 198.532 L 339.151, 182.533 L 349.388, 167.032 z "/>
<path style="fill:rgb(10, 76, 249);fill-opacity:1.0;fill-rule:evenodd;stroke:rgb(0, 0, 0);stroke-width:3.0;" d="M 368.6, 31.2741 L 368.823, 42.7705 L 366.535, 48.9979 L 361.554, 51.1738 L 361.728, 40.3946 L 364.641, 28.531 z "/>
<path style="fill:rgb(10, 76, 249);fill-opacity:1.0;fill-rule:evenodd;stroke:rgb(0, 0, 0);stroke-width:3.0;" d="M 197.149, 184.545 L 132.125, 204.994 L 40.9453, 193.612 L 48.5391, 126.105 L 69.2186, 72.3334 z "/>
<path style="fill:rgb(243, 27, 255);fill-opacity:1.0;fill-rule:evenodd;stroke:rgb(0, 0, 0);stroke-width:3.0;" d="M 40.9453, 193.612 L 23.4191, 191.424 L 48.5391, 126.105 z "/>
<path style="fill:rgb(255, 37, 35);fill-opacity:1.0;fill-rule:evenodd;stroke:rgb(0, 0, 0);stroke-width:3.0;" d="M 63.8408, 210.98 L 46.1846, 225.875 L 59.7569, 202.4 z "/>
<path style="fill:rgb(255, 255, 12);fill-opacity:1.0;fill-rule:evenodd;stroke:rgb(0, 0, 0);stroke-width:3.0;" d="M 279.629, 87.5011 L 201.869, 171.725 L 90.2911, 84.4555 L 106.256, 71.4213 z "/>
<path style="fill:rgb(255, 255, 12);fill-opacity:1.0;fill-rule:evenodd;stroke:rgb(0, 0, 0);stroke-width:3.0;" d="M 394.551, 190.856 L 380.241, 194.485 L 439.874, 150.354 L 449.394, 149.626 z "/>
<path style="fill:rgb(252, 255, 27);fill-opacity:1.0;fill-rule:evenodd;stroke:rgb(0, 0, 0);stroke-width:3.0;" d="M 488.809, 119.994 L 449.394, 149.626 L 439.874, 150.354 L 488.693, 114.225 z "/>
<path style="fill:rgb(255, 33, 13);fill-opacity:1.0;fill-rule:evenodd;stroke:rgb(0, 0, 0);stroke-width:3.0;" d="M 378.442, 13.1389 L 384.593, 18.0116 L 362.082, 18.4456 L 362.221, 9.827 z "/>
<path style="fill:rgb(255, 33, 13);fill-opacity:1.0;fill-rule:evenodd;stroke:rgb(0, 0, 0);stroke-width:3.0;" d="M 475.938, 135.32 L 461.008, 148.279 L 463.975, 138.664 L 481.285, 125.651 z "/>
<path style="fill:rgb(255, 33, 13);fill-opacity:1.0;fill-rule:evenodd;stroke:rgb(0, 0, 0);stroke-width:3.0;" d="M 131.56, 490.394 L 128.432, 456.736 L 138.526, 456.671 z "/>
<path style="fill:rgb(255, 33, 13);fill-opacity:1.0;fill-rule:evenodd;stroke:rgb(0, 0, 0);stroke-width:3.0;" d="M 461.517, 22.5517 L 434.103, 47.2148 L 404.606, 48.5911 L 461.615, 21.6817 z "/>
<path style="fill:rgb(220, 226, 9);fill-opacity:1.0;fill-rule:evenodd;stroke:rgb(0, 0, 0);stroke-width:3.0;" d="M 593.151, 149.576 L 591.907, 150.019 L 548.563, 151.839 L 548.972, 151.691 L 588.203, 141.741 z "/>
<path style="fill:rgb(220, 226, 9);fill-opacity:1.0;fill-rule:evenodd;stroke:rgb(0, 0, 0);stroke-width:3.0;" d="M 463.968, 104.598 L 454.75, 103.743 L 450.887, 93.9422 L 460.316, 90.1833 z "/>
<path style="fill:rgb(220, 226, 9);fill-opacity:1.0;fill-rule:evenodd;stroke:rgb(0, 0, 0);stroke-width:3.0;" d="M 792.945, 135.109 L 594.571, 210.015 L 432.43, 206.87 L 666.603, 123.392 z "/>
<path style="fill:rgb(114, 255, 255);fill-opacity:1.0;fill-rule:evenodd;stroke:rgb(0, 0, 0);stroke-width:3.0;" d="M 459.507, 38.7312 L 458.597, 40.479 L 439.541, 46.9611 L 434.103, 47.2148 L 454.707, 28.6778 z "/>
<path style="fill:rgb(255, 107, 255);fill-opacity:1.0;fill-rule:evenodd;stroke:rgb(0, 0, 0);stroke-width:3.0;" d="M 392.688, 78.9312 L 390.57, 94.758 L 360.891, 92.2816 L 361.015, 84.5957 L 369.037, 75.4676 z "/>
<path style="fill:rgb(255, 107, 255);fill-opacity:1.0;fill-rule:evenodd;stroke:rgb(0, 0, 0);stroke-width:3.0;" d="M 271.993, 22.8582 L 267.876, 26.7508 L 254.992, 24.5144 L 234.63, 13.1953 L 237.596, 11.9862 z "/>
<path style="fill:rgb(226, 148, 240);fill-opacity:1.0;fill-rule:evenodd;stroke:rgb(0, 0, 0);stroke-width:3.0;" d="M 411.411, 11.4939 L 397.91, 34.2986 L 391.417, 36.6753 L 390.503, 35.3629 L 404.837, 11.4651 z "/>
<path style="fill:rgb(255, 1, 7);fill-opacity:1.0;fill-rule:evenodd;stroke:rgb(0, 0, 0);stroke-width:3.0;" d="M 595.544, 93.7366 L 591.106, 93.1397 L 585.583, 79.3703 L 593.412, 70.3487 z "/>
<path style="fill:rgb(255, 146, 8);fill-opacity:1.0;fill-rule:evenodd;stroke:rgb(0, 0, 0);stroke-width:3.0;" d="M 58.1359, 93.8821 L 48.7124, 107.617 L 45.5488, 107.081 L 46.3811, 96.479 L 54.1889, 91.4586 z "/>
<path style="fill:rgb(57, 10, 255);fill-opacity:1.0;fill-rule:evenodd;stroke:rgb(0, 0, 0);stroke-width:3.0;" d="M 497.598, 91.3025 L 476.584, 91.4149 L 476.787, 81.6871 z "/>
<path style="fill:rgb(159, 6, 255);fill-opacity:1.0;fill-rule:evenodd;stroke:rgb(0, 0, 0);stroke-width:3.0;" d="M 60.897, 87.1452 L 45.6375, 96.9571 L 41.1269, 94.2743 L 49.0143, 81.8939 L 58.2311, 79.8965 z "/>
<path style="fill:rgb(159, 6, 255);fill-opacity:1.0;fill-rule:evenodd;stroke:rgb(0, 0, 0);stroke-width:3.0;" d="M 512.926, 91.2205 L 497.598, 91.3025 L 476.787, 81.6871 L 476.813, 80.4352 L 491.673, 77.7134 z "/>
<path style="fill:rgb(21, 255, 255);fill-opacity:1.0;fill-rule:evenodd;stroke:rgb(0, 0, 0);stroke-width:3.0;" d="M 330.621, 166.259 L 333.391, 173.933 L 331.916, 177.054 L 331.014, 177.354 L 312.405, 165.509 z "/>
<path style="fill:rgb(252, 42, 16);fill-opacity:1.0;fill-rule:evenodd;stroke:rgb(0, 0, 0);stroke-width:3.0;" d="M 436.122, 86.285 L 438.958, 102.278 L 430.452, 101.489 L 428.541, 86.9325 L 432.506, 85.4062 z "/>
<path style="fill:rgb(255, 255, 20);fill-opacity:1.0;fill-rule:evenodd;stroke:rgb(0, 0, 0);stroke-width:3.0;" d="M 474.636, 124.628 L 473.311, 125.609 L 441.912, 131.543 L 432.594, 110.503 L 436.135, 109.39 z "/>
<path style="fill:rgb(231, 246, 10);fill-opacity:1.0;fill-rule:evenodd;stroke:rgb(0, 0, 0);stroke-width:3.0;" d="M 497.5, 107.708 L 474.636, 124.628 L 436.135, 109.39 L 454.241, 103.696 z "/>
<path style="fill:rgb(94, 72, 199);fill-opacity:1.0;fill-rule:evenodd;stroke:rgb(0, 0, 0);stroke-width:3.0;" d="M 361.616, 47.312 L 361.611, 47.6512 L 326.849, 91.8806 L 276.307, 87.193 L 311.874, 53.6099 L 331.458, 40.9435 z "/>
<path style="fill:rgb(255, 1, 7);fill-opacity:1.0;fill-rule:evenodd;stroke:rgb(0, 0, 0);stroke-width:3.0;" d="M 412.255, 68.1557 L 380.575, 73.8593 L 386.672, 64.945 L 410.805, 56.7359 z "/>
<path style="fill:rgb(255, 1, 7);fill-opacity:1.0;fill-rule:evenodd;stroke:rgb(0, 0, 0);stroke-width:3.0;" d="M 69.9016, 252.235 L 97.3572, 215.928 L 189.67, 186.897 z "/>
<path style="fill:rgb(255, 1, 7);fill-opacity:1.0;fill-rule:evenodd;stroke:rgb(0, 0, 0);stroke-width:3.0;" d="M 70.455, 197.296 L 69.6638, 206.067 L 63.8408, 210.98 L 56.4981, 195.553 z "/>
<path style="fill:rgb(255, 255, 18);fill-opacity:1.0;fill-rule:evenodd;stroke:rgb(0, 0, 0);stroke-width:3.0;" d="M 414.019, 82.0551 L 370.474, 75.6781 L 412.255, 68.1557 z "/>
<path style="fill:rgb(6, 13, 255);fill-opacity:1.0;fill-rule:evenodd;stroke:rgb(0, 0, 0);stroke-width:3.0;" d="M 654.242, 93.9013 L 654.067, 96.2258 L 614.185, 78.5442 L 617.511, 68.9632 z "/>
<path style="fill:rgb(21, 59, 197);fill-opacity:1.0;fill-rule:evenodd;stroke:rgb(0, 0, 0);stroke-width:3.0;" d="M 47.0109, 65.9266 L 31.713, 88.6752 L 30.1506, 87.7459 L 37.3367, 65.0293 z "/>
<path style="fill:rgb(255, 14, 60);fill-opacity:1.0;fill-rule:evenodd;stroke:rgb(0, 0, 0);stroke-width:3.0;" d="M 410.116, 158.882 L 417.667, 166.788 L 407.811, 174.082 L 405.498, 174.364 L 400.116, 169.912 L 389.687, 158.556 z "/>
<path style="fill:rgb(252, 255, 36);fill-opacity:1.0;fill-rule:evenodd;stroke:rgb(0, 0, 0);stroke-width:3.0;" d="M 101.855, 201.215 L 101.455, 214.639 L 95.6391, 216.468 L 91.2071, 211.953 L 95.9739, 200.481 z "/>
<path style="fill:rgb(252, 255, 36);fill-opacity:1.0;fill-rule:evenodd;stroke:rgb(0, 0, 0);stroke-width:3.0;" d="M 138.526, 456.671 L 134.252, 456.699 L 132.784, 425.781 L 160.102, 352.203 z "/>
<path style="fill:rgb(252, 255, 36);fill-opacity:1.0;fill-rule:evenodd;stroke:rgb(0, 0, 0);stroke-width:3.0;" d="M 619.891, 140.044 L 595.938, 148.582 L 597.646, 139.347 L 614.778, 135.002 z "/>
<path style="fill:rgb(23, 4, 255);fill-opacity:1.0;fill-rule:evenodd;stroke:rgb(0, 0, 0);stroke-width:3.0;" d="M 452.235, 175.086 L 427.884, 177.033 L 441.31, 165.378 z "/>
<path style="fill:rgb(255, 19, 7);fill-opacity:1.0;fill-rule:evenodd;stroke:rgb(0, 0, 0);stroke-width:3.0;" d="M 656.035, 122.412 L 653.531, 125.173 L 592.786, 140.579 L 590.633, 116.346 z "/>
<path style="fill:rgb(255, 7, 30);fill-opacity:1.0;fill-rule:evenodd;stroke:rgb(0, 0, 0);stroke-width:3.0;" d="M 566.303, 18.4713 L 548.069, 21.8155 L 540.364, 16.5843 L 544.093, 11.3964 L 556.734, 7.09638 z "/>
<path style="fill:rgb(243, 175, 17);fill-opacity:1.0;fill-rule:evenodd;stroke:rgb(0, 0, 0);stroke-width:3.0;" d="M 34.033, 163.825 L 28.5264, 178.144 L 18.3712, 174.739 L 22.3731, 166.949 L 32.5092, 163.403 z "/>
<path style="fill:rgb(252, 94, 16);fill-opacity:1.0;fill-rule:evenodd;stroke:rgb(0, 0, 0);stroke-width:3.0;" d="M 157.512, 359.18 L 121.274, 456.782 L 121.274, 456.782 L 151.523, 355.425 z "/>
<path style="fill:rgb(252, 255, 8);fill-opacity:1.0;fill-rule:evenodd;stroke:rgb(0, 0, 0);stroke-width:3.0;" d="M 131.038, 492.925 L 124.546, 524.356 L 98.2223, 534.02 L 110.454, 493.036 L 114.793, 491.836 z "/>
<path style="fill:rgb(252, 255, 8);fill-opacity:1.0;fill-rule:evenodd;stroke:rgb(0, 0, 0);stroke-width:3.0;" d="M 84.5896, 318.159 L 78.4865, 317.875 L 121.997, 259.982 L 127.115, 258.684 z "/>
<path style="fill:rgb(255, 1, 220);fill-opacity:1.0;fill-rule:evenodd;stroke:rgb(0, 0, 0);stroke-width:3.0;" d="M 538.962, 154.23 L 490.355, 166.558 L 490.931, 162.297 L 503.722, 152.225 z "/>
<path style="fill:rgb(255, 48, 31);fill-opacity:1.0;fill-rule:evenodd;stroke:rgb(0, 0, 0);stroke-width:3.0;" d="M 191.555, 292.738 L 162.554, 303.077 L 195.612, 241.311 L 211.695, 237.233 z "/>
<path style="fill:rgb(35, 249, 255);fill-opacity:1.0;fill-rule:evenodd;stroke:rgb(0, 0, 0);stroke-width:3.0;" d="M 162.554, 303.077 L 159.814, 304.053 L 166.377, 248.726 L 195.612, 241.311 z "/>
<path style="fill:rgb(255, 255, 56);fill-opacity:1.0;fill-rule:evenodd;stroke:rgb(0, 0, 0);stroke-width:3.0;" d="M 212.207, 179.81 L 204.96, 182.089 L 184.451, 173.407 L 156.914, 149.254 L 171.766, 148.18 z "/>
<path style="fill:rgb(255, 86, 36);fill-opacity:1.0;fill-rule:evenodd;stroke:rgb(0, 0, 0);stroke-width:3.0;" d="M 171.766, 148.18 L 156.914, 149.254 L 143.488, 137.477 L 142.665, 125.419 z "/>
<path style="fill:rgb(255, 8, 30);fill-opacity:1.0;fill-rule:evenodd;stroke:rgb(0, 0, 0);stroke-width:3.0;" d="M 452.634, 25.9207 L 408.368, 46.8153 L 409.117, 40.348 L 452.332, 25.6155 z "/>
<path style="fill:rgb(249, 119, 14);fill-opacity:1.0;fill-rule:evenodd;stroke:rgb(0, 0, 0);stroke-width:3.0;" d="M 235.36, 262.063 L 225.977, 280.467 L 191.555, 292.738 L 211.695, 237.233 L 213.245, 236.839 z "/>
<path style="fill:rgb(255, 175, 7);fill-opacity:1.0;fill-rule:evenodd;stroke:rgb(0, 0, 0);stroke-width:3.0;" d="M 278.479, 12.6496 L 278.724, 12.891 L 265.178, 20.7044 L 257.101, 18.1515 L 257.178, 10.2086 z "/>
<path style="fill:rgb(246, 215, 36);fill-opacity:1.0;fill-rule:evenodd;stroke:rgb(0, 0, 0);stroke-width:3.0;" d="M 542.078, 17.748 L 541.837, 41.0576 L 537.215, 39.8179 L 532.114, 25.7299 L 537.001, 14.3015 z "/>
<path style="fill:rgb(237, 0, 202);fill-opacity:1.0;fill-rule:evenodd;stroke:rgb(0, 0, 0);stroke-width:3.0;" d="M 142.665, 125.419 L 143.488, 137.477 L 95.2476, 95.1642 L 97.5524, 90.1349 z "/>
<path style="fill:rgb(255, 159, 33);fill-opacity:1.0;fill-rule:evenodd;stroke:rgb(0, 0, 0);stroke-width:3.0;" d="M 29.9409, 192.238 L 46.8662, 197.398 L 47.7918, 200.196 L 46.7391, 202.133 L 28.7717, 214.372 L 21.3516, 196.8 L 23.4191, 191.424 z "/>
<path style="fill:rgb(46, 3, 237);fill-opacity:1.0;fill-rule:evenodd;stroke:rgb(0, 0, 0);stroke-width:3.0;" d="M 93.898, 548.509 L 32.3151, 567.774 L 157.511, 335.363 z "/>
<path style="fill:rgb(255, 33, 114);fill-opacity:1.0;fill-rule:evenodd;stroke:rgb(0, 0, 0);stroke-width:3.0;" d="M 288.44, 67.2332 L 288.247, 68.8909 L 268.82, 81.4552 L 262.127, 75.7668 L 278.793, 67.0615 z "/>
<path style="fill:rgb(140, 215, 86);fill-opacity:1.0;fill-rule:evenodd;stroke:rgb(0, 0, 0);stroke-width:3.0;" d="M 447.301, 69.5649 L 452.57, 93.2712 L 450.887, 93.9422 L 439.117, 64.0766 z "/>
<path style="fill:rgb(184, 1, 34);fill-opacity:1.0;fill-rule:evenodd;stroke:rgb(0, 0, 0);stroke-width:3.0;" d="M 456.686, 75.8585 L 460.316, 90.1833 L 452.57, 93.2712 L 447.301, 69.5649 z "/>
<path style="fill:rgb(26, 243, 157);fill-opacity:1.0;fill-rule:evenodd;stroke:rgb(0, 0, 0);stroke-width:3.0;" d="M 433.702, 23.2567 L 440.224, 29.7432 L 423.431, 35.4682 L 417.729, 25.1027 L 422.017, 19.9746 z "/>
<path style="fill:rgb(13, 50, 255);fill-opacity:1.0;fill-rule:evenodd;stroke:rgb(0, 0, 0);stroke-width:3.0;" d="M 41.47, 326.23 L 61.7923, 336.206 L 62.2301, 338.84 L 51.3647, 342.714 L 31.5697, 325.913 z "/>
<path style="fill:rgb(12, 209, 246);fill-opacity:1.0;fill-rule:evenodd;stroke:rgb(0, 0, 0);stroke-width:3.0;" d="M 106.256, 71.4213 L 90.2911, 84.4555 L 70.5075, 68.982 L 70.8328, 68.136 z "/>
<path style="fill:rgb(255, 215, 25);fill-opacity:1.0;fill-rule:evenodd;stroke:rgb(0, 0, 0);stroke-width:3.0;" d="M 28.4358, 213.577 L 12.6314, 219.475 L 21.3516, 196.8 z "/>
<path style="fill:rgb(252, 11, 14);fill-opacity:1.0;fill-rule:evenodd;stroke:rgb(0, 0, 0);stroke-width:3.0;" d="M 87.4301, 82.2178 L 89.718, 87.3231 L 88.1947, 88.9779 L 69.2186, 72.3334 L 70.5075, 68.982 z "/>
<path style="fill:rgb(16, 252, 209);fill-opacity:1.0;fill-rule:evenodd;stroke:rgb(0, 0, 0);stroke-width:3.0;" d="M 571.119, 146.074 L 560.575, 148.749 L 512.463, 145.343 L 549.027, 116.553 z "/>
<path style="fill:rgb(175, 246, 255);fill-opacity:1.0;fill-rule:evenodd;stroke:rgb(0, 0, 0);stroke-width:3.0;" d="M 134.252, 456.699 L 121.274, 456.782 L 132.784, 425.781 z "/>
<path style="fill:rgb(255, 223, 170);fill-opacity:1.0;fill-rule:evenodd;stroke:rgb(0, 0, 0);stroke-width:3.0;" d="M 769.312, 33.4752 L 771.903, 38.0295 L 773.258, 42.5197 L 770.364, 46.2358 L 769.094, 46.8596 L 766.728, 44.4007 L 757.403, 28.5518 z "/>
<path style="fill:rgb(243, 246, 14);fill-opacity:1.0;fill-rule:evenodd;stroke:rgb(0, 0, 0);stroke-width:3.0;" d="M 146.017, 477.585 L 142.946, 544.044 L 121.82, 537.557 L 135.941, 469.183 z "/>
<path style="fill:rgb(243, 246, 14);fill-opacity:1.0;fill-rule:evenodd;stroke:rgb(0, 0, 0);stroke-width:3.0;" d="M 454.241, 103.696 L 351.55, 135.99 L 304.771, 89.833 z "/>
<path style="fill:rgb(255, 11, 252);fill-opacity:1.0;fill-rule:evenodd;stroke:rgb(0, 0, 0);stroke-width:3.0;" d="M 195.705, 74.5013 L 180.673, 78.3233 L 162.866, 76.6717 L 150.972, 74.0543 L 147.391, 70.8376 z "/>
<path style="fill:rgb(255, 105, 19);fill-opacity:1.0;fill-rule:evenodd;stroke:rgb(0, 0, 0);stroke-width:3.0;" d="M 372.143, 33.729 L 364.641, 28.531 L 367.141, 18.348 L 377.868, 18.1412 z "/>
<path style="fill:rgb(121, 61, 255);fill-opacity:1.0;fill-rule:evenodd;stroke:rgb(0, 0, 0);stroke-width:3.0;" d="M 409.817, 57.0718 L 414.731, 48.1187 L 439.541, 46.9611 z "/>
<path style="fill:rgb(91, 8, 255);fill-opacity:1.0;fill-rule:evenodd;stroke:rgb(0, 0, 0);stroke-width:3.0;" d="M 20.8125, 63.4968 L 34.8426, 72.9138 L 30.9168, 85.3241 L 25.1449, 80.5898 L 18.315, 63.2651 z "/>
<path style="fill:rgb(255, 44, 19);fill-opacity:1.0;fill-rule:evenodd;stroke:rgb(0, 0, 0);stroke-width:3.0;" d="M 57.8868, 62.0424 L 52.3925, 66.4257 L 45.3975, 65.7769 L 43.2085, 42.2008 L 43.9757, 37.4635 L 57.2996, 31.7997 z "/>
<path style="fill:rgb(255, 2, 26);fill-opacity:1.0;fill-rule:evenodd;stroke:rgb(0, 0, 0);stroke-width:3.0;" d="M 540.309, 108.624 L 541.336, 111.774 L 524.534, 110.215 L 518.439, 98.8213 L 519.019, 96.3639 L 520.74, 96.1872 z "/>
<path style="fill:rgb(255, 172, 8);fill-opacity:1.0;fill-rule:evenodd;stroke:rgb(0, 0, 0);stroke-width:3.0;" d="M 538.953, 147.218 L 539.648, 154.056 L 538.962, 154.23 L 503.722, 152.225 L 512.463, 145.343 z "/>
<path style="fill:rgb(255, 82, 22);fill-opacity:1.0;fill-rule:evenodd;stroke:rgb(0, 0, 0);stroke-width:3.0;" d="M 409.817, 57.0718 L 391.473, 63.3119 L 397.036, 52.1644 L 404.606, 48.5911 L 414.731, 48.1187 z "/>
<path style="fill:rgb(255, 25, 62);fill-opacity:1.0;fill-rule:evenodd;stroke:rgb(0, 0, 0);stroke-width:3.0;" d="M 565.763, 47.4743 L 558.005, 61.8578 L 548.206, 48.0272 L 560.45, 46.0494 z "/>
<path style="fill:rgb(255, 25, 62);fill-opacity:1.0;fill-rule:evenodd;stroke:rgb(0, 0, 0);stroke-width:3.0;" d="M 709.545, 66.5917 L 696.436, 69.0574 L 675.351, 47.4634 L 673.656, 35.5919 z "/>
<path style="fill:rgb(255, 4, 16);fill-opacity:1.0;fill-rule:evenodd;stroke:rgb(0, 0, 0);stroke-width:3.0;" d="M 398.452, 22.1105 L 390.098, 36.0377 L 384.988, 35.891 L 380.638, 34.3557 L 390.768, 15.3629 z "/>
<path style="fill:rgb(255, 150, 204);fill-opacity:1.0;fill-rule:evenodd;stroke:rgb(0, 0, 0);stroke-width:3.0;" d="M 143.277, 361.787 L 86.6016, 466.998 L 80.3114, 461.443 L 150.039, 314.219 z "/>
<path style="fill:rgb(255, 26, 7);fill-opacity:1.0;fill-rule:evenodd;stroke:rgb(0, 0, 0);stroke-width:3.0;" d="M 168.728, 67.7827 L 167.689, 72.3768 L 152.232, 71.2046 L 151.174, 64.5582 L 152.92, 63.8475 z "/>
<path style="fill:rgb(25, 75, 252);fill-opacity:1.0;fill-rule:evenodd;stroke:rgb(0, 0, 0);stroke-width:3.0;" d="M 146.165, 474.386 L 137.949, 459.463 L 149.423, 403.911 z "/>
</svg>