<?xml version="1.0" encoding="iso-8859-1" standalone="no"?>
<!DOCTYPE svg PUBLIC "-//W3C//DTD SVG 1.0//EN" "http://www.w3.org/TR/2001/REC-SVG-20010904/DTD/svg10.dtd">
<svg xmlns="http://www.w3.org/2000/svg" width="800" height="600">
<path style="fill:rgb(0, 0, 0);fill-opacity:0.0;fill-rule:evenodd;stroke:rgb(0, 0, 0);stroke-width:0.0;" d="M 0, 600 L 800, 600 L 800, 0 L 0, 0 z "/>
<path style="fill:rgb(246, 20, 182);fill-opacity:1.0;fill-rule:evenodd;stroke:rgb(0, 0, 0);stroke-width:3.0;" d="M 669.591, 204.273 L 648.48, 242.021 L 642.953, 240.322 L 644.809, 208.874 L 667.79, 203.809 z "/>
<path style="fill:rgb(215, 3, 54);fill-opacity:1.0;fill-rule:evenodd;stroke:rgb(0, 0, 0);stroke-width:3.0;" d="M 769.633, 271.199 L 775.319, 280.999 L 706.993, 260.002 L 710.651, 258.329 z "/>
<path style="fill:rgb(215, 3, 54);fill-opacity:1.0;fill-rule:evenodd;stroke:rgb(0, 0, 0);stroke-width:3.0;" d="M 318.834, 112.117 L 310.952, 100.484 L 310.414, 98.6622 L 325.671, 93.11 z "/>
<path style="fill:rgb(215, 3, 54);fill-opacity:1.0;fill-rule:evenodd;stroke:rgb(0, 0, 0);stroke-width:3.0;" d="M 160.424, 323.714 L 152.994, 360.021 L 136.229, 401.632 L 72.0159, 311.4 L 72.6905, 311.012 z "/>
<path style="fill:rgb(255, 255, 35);fill-opacity:1.0;fill-rule:evenodd;stroke:rgb(0, 0, 0);stroke-width:3.0;" d="M 794.26, 153.757 L 780.337, 144.794 L 794.434, 135.514 z "/>
<path style="fill:rgb(255, 255, 35);fill-opacity:1.0;fill-rule:evenodd;stroke:rgb(0, 0, 0);stroke-width:3.0;" d="M 611.025, 445.664 L 616.4, 456.07 L 614.098, 469.791 L 606.081, 481 L 595.702, 444.508 z "/>
<path style="fill:rgb(36, 189, 255);fill-opacity:1.0;fill-rule:evenodd;stroke:rgb(0, 0, 0);stroke-width:3.0;" d="M 708.137, 257.455 L 691.389, 255.207 L 687.245, 253.933 L 713.444, 245.19 z "/>
<path style="fill:rgb(36, 189, 255);fill-opacity:1.0;fill-rule:evenodd;stroke:rgb(0, 0, 0);stroke-width:3.0;" d="M 592.14, 524.208 L 600.664, 549.857 L 599.386, 557.471 L 586.997, 542.266 L 588.956, 521.107 z "/>
<path style="fill:rgb(36, 189, 255);fill-opacity:1.0;fill-rule:evenodd;stroke:rgb(0, 0, 0);stroke-width:3.0;" d="M 634.444, 237.707 L 639.3, 282.818 L 633.563, 276.287 L 629.92, 236.377 L 629.955, 236.328 z "/>
<path style="fill:rgb(36, 189, 255);fill-opacity:1.0;fill-rule:evenodd;stroke:rgb(0, 0, 0);stroke-width:3.0;" d="M 95.0896, 343.823 L 53.1044, 353.982 L 52.7862, 322.436 L 72.0159, 311.4 z "/>
<path style="fill:rgb(234, 252, 18);fill-opacity:1.0;fill-rule:evenodd;stroke:rgb(0, 0, 0);stroke-width:3.0;" d="M 124.946, 516.855 L 121.741, 514.884 L 108.208, 495.619 L 113.446, 485.65 L 118.732, 484.874 z "/>
<path style="fill:rgb(234, 252, 18);fill-opacity:1.0;fill-rule:evenodd;stroke:rgb(0, 0, 0);stroke-width:3.0;" d="M 588.701, 103.731 L 688.58, 170.318 L 673.005, 198.168 L 604.767, 183.662 L 545.458, 100.208 z "/>
<path style="fill:rgb(234, 252, 18);fill-opacity:1.0;fill-rule:evenodd;stroke:rgb(0, 0, 0);stroke-width:3.0;" d="M 784.71, 59.4738 L 784.511, 64.0127 L 752.013, 87.2019 L 752.444, 56.1256 L 752.557, 55.9231 L 778.949, 51.8149 z "/>
<path style="fill:rgb(234, 252, 18);fill-opacity:1.0;fill-rule:evenodd;stroke:rgb(0, 0, 0);stroke-width:3.0;" d="M 572.003, 442.72 L 575.229, 445.116 L 589.386, 471.848 L 561.187, 476.648 L 534.264, 464.969 L 549.292, 441.007 z "/>
<path style="fill:rgb(228, 243, 30);fill-opacity:1.0;fill-rule:evenodd;stroke:rgb(0, 0, 0);stroke-width:3.0;" d="M 431.002, 556.97 L 413.626, 594.872 L 400.918, 544.396 z "/>
<path style="fill:rgb(228, 243, 30);fill-opacity:1.0;fill-rule:evenodd;stroke:rgb(0, 0, 0);stroke-width:3.0;" d="M 439.006, 399.993 L 433.163, 405.675 L 427.711, 402.421 L 445.19, 385.234 z "/>
<path style="fill:rgb(228, 243, 30);fill-opacity:1.0;fill-rule:evenodd;stroke:rgb(0, 0, 0);stroke-width:3.0;" d="M 567.887, 544.31 L 580.64, 554.791 L 545.93, 577.387 L 548.215, 543.268 z "/>
<path style="fill:rgb(228, 243, 30);fill-opacity:1.0;fill-rule:evenodd;stroke:rgb(0, 0, 0);stroke-width:3.0;" d="M 758.567, 216.573 L 684.65, 213.994 L 668.281, 206.615 L 669.299, 204.795 L 736.236, 192.38 z "/>
<path style="fill:rgb(228, 243, 30);fill-opacity:1.0;fill-rule:evenodd;stroke:rgb(0, 0, 0);stroke-width:3.0;" d="M 54.5497, 497.308 L 35.9272, 525.521 L 13.3685, 504.982 L 25.9358, 402.82 L 53.1922, 362.693 z "/>
<path style="fill:rgb(228, 243, 30);fill-opacity:1.0;fill-rule:evenodd;stroke:rgb(0, 0, 0);stroke-width:3.0;" d="M 532.211, 441.947 L 530.513, 452.805 L 504.454, 440.959 L 497.958, 432.987 z "/>
<path style="fill:rgb(228, 243, 30);fill-opacity:1.0;fill-rule:evenodd;stroke:rgb(0, 0, 0);stroke-width:3.0;" d="M 43.9577, 532.832 L 35.9272, 525.521 L 50.97, 502.731 z "/>
<path style="fill:rgb(228, 243, 30);fill-opacity:1.0;fill-rule:evenodd;stroke:rgb(0, 0, 0);stroke-width:3.0;" d="M 538.667, 400.671 L 535.815, 418.905 L 486.787, 398.411 L 491.252, 386.508 z "/>
<path style="fill:rgb(228, 243, 30);fill-opacity:1.0;fill-rule:evenodd;stroke:rgb(0, 0, 0);stroke-width:3.0;" d="M 700.127, 556.665 L 698.255, 557.741 L 670.181, 527.47 L 673.281, 523.68 z "/>
<path style="fill:rgb(228, 243, 30);fill-opacity:1.0;fill-rule:evenodd;stroke:rgb(0, 0, 0);stroke-width:3.0;" d="M 633.633, 7.91943 L 651.664, 68.5122 L 643.432, 79.6359 L 636.945, 69.1214 L 629.691, 5.63944 z "/>
<path style="fill:rgb(228, 243, 30);fill-opacity:1.0;fill-rule:evenodd;stroke:rgb(0, 0, 0);stroke-width:3.0;" d="M 713.52, 236.414 L 722.64, 242.667 L 719.916, 242.903 L 699.671, 236.992 L 699.148, 230.082 z "/>
<path style="fill:rgb(228, 243, 30);fill-opacity:1.0;fill-rule:evenodd;stroke:rgb(0, 0, 0);stroke-width:3.0;" d="M 352.098, 326.49 L 335.268, 353.119 L 325.678, 345.237 L 339.48, 320.157 z "/>
<path style="fill:rgb(228, 243, 30);fill-opacity:1.0;fill-rule:evenodd;stroke:rgb(0, 0, 0);stroke-width:3.0;" d="M 611.027, 22.6974 L 616.484, 115.882 L 616.432, 115.909 L 613.565, 113.584 L 608.329, 16.6824 z "/>
<path style="fill:rgb(228, 243, 30);fill-opacity:1.0;fill-rule:evenodd;stroke:rgb(0, 0, 0);stroke-width:3.0;" d="M 130.207, 536.808 L 123.949, 507.098 L 146.106, 497.443 z "/>
<path style="fill:rgb(255, 20, 78);fill-opacity:1.0;fill-rule:evenodd;stroke:rgb(0, 0, 0);stroke-width:3.0;" d="M 134.88, 486.71 L 127.72, 505.116 L 125.516, 506.416 L 123.949, 507.098 L 116.595, 472.184 z "/>
<path style="fill:rgb(255, 20, 78);fill-opacity:1.0;fill-rule:evenodd;stroke:rgb(0, 0, 0);stroke-width:3.0;" d="M 604.476, 102.301 L 584.456, 100.901 L 536.387, 68.8551 L 589.113, 49.9649 z "/>
<path style="fill:rgb(255, 20, 78);fill-opacity:1.0;fill-rule:evenodd;stroke:rgb(0, 0, 0);stroke-width:3.0;" d="M 376.819, 324.769 L 349.027, 318.928 L 351.22, 312.199 L 353.868, 305.702 L 355.046, 304.436 z "/>
<path style="fill:rgb(255, 20, 78);fill-opacity:1.0;fill-rule:evenodd;stroke:rgb(0, 0, 0);stroke-width:3.0;" d="M 645.556, 497.988 L 649.943, 505.055 L 656.713, 534.112 L 636.621, 495.216 z "/>
<path style="fill:rgb(255, 20, 78);fill-opacity:1.0;fill-rule:evenodd;stroke:rgb(0, 0, 0);stroke-width:3.0;" d="M 201.602, 570.519 L 188.914, 557.591 L 181.418, 542.686 L 193.124, 537.47 z "/>
<path style="fill:rgb(255, 231, 17);fill-opacity:1.0;fill-rule:evenodd;stroke:rgb(0, 0, 0);stroke-width:3.0;" d="M 549.175, 528.93 L 545.262, 587.362 L 539.106, 520.654 z "/>
<path style="fill:rgb(255, 231, 17);fill-opacity:1.0;fill-rule:evenodd;stroke:rgb(0, 0, 0);stroke-width:3.0;" d="M 394.519, 384.544 L 394.19, 401.547 L 369.302, 381.092 L 384.376, 380.095 z "/>
<path style="fill:rgb(255, 231, 17);fill-opacity:1.0;fill-rule:evenodd;stroke:rgb(0, 0, 0);stroke-width:3.0;" d="M 456.335, 284.108 L 454.451, 289.264 L 428.311, 249.44 z "/>
<path style="fill:rgb(255, 231, 17);fill-opacity:1.0;fill-rule:evenodd;stroke:rgb(0, 0, 0);stroke-width:3.0;" d="M 124.946, 516.855 L 133.674, 561.782 L 54.7397, 516.147 L 54.5193, 494.297 L 81.775, 490.298 z "/>
<path style="fill:rgb(66, 59, 255);fill-opacity:1.0;fill-rule:evenodd;stroke:rgb(0, 0, 0);stroke-width:3.0;" d="M 564.447, 355.492 L 548.022, 340.863 L 550.084, 327.685 z "/>
<path style="fill:rgb(194, 30, 168);fill-opacity:1.0;fill-rule:evenodd;stroke:rgb(0, 0, 0);stroke-width:3.0;" d="M 611.025, 445.664 L 567.732, 442.398 L 606.299, 436.514 z "/>
<path style="fill:rgb(30, 226, 255);fill-opacity:1.0;fill-rule:evenodd;stroke:rgb(0, 0, 0);stroke-width:3.0;" d="M 184.231, 141.721 L 75.0862, 309.637 L 52.7862, 322.436 L 51.9874, 243.219 L 117.283, 139.905 z "/>
<path style="fill:rgb(30, 226, 255);fill-opacity:1.0;fill-rule:evenodd;stroke:rgb(0, 0, 0);stroke-width:3.0;" d="M 110.334, 365.244 L 121.456, 380.873 L 93.818, 363.528 L 93.5954, 363.206 L 94.1208, 357.366 z "/>
<path style="fill:rgb(30, 226, 255);fill-opacity:1.0;fill-rule:evenodd;stroke:rgb(0, 0, 0);stroke-width:3.0;" d="M 673.005, 198.168 L 669.591, 204.273 L 619.063, 191.255 L 625.714, 188.115 z "/>
<path style="fill:rgb(255, 226, 10);fill-opacity:1.0;fill-rule:evenodd;stroke:rgb(0, 0, 0);stroke-width:3.0;" d="M 569.309, 383.406 L 547.316, 421.872 L 538.246, 433.251 L 535.426, 421.393 L 544.275, 364.819 z "/>
<path style="fill:rgb(255, 226, 10);fill-opacity:1.0;fill-rule:evenodd;stroke:rgb(0, 0, 0);stroke-width:3.0;" d="M 541.032, 444.969 L 540.325, 446.629 L 530.142, 455.177 L 535.426, 421.393 z "/>
<path style="fill:rgb(255, 228, 11);fill-opacity:1.0;fill-rule:evenodd;stroke:rgb(0, 0, 0);stroke-width:3.0;" d="M 511.871, 179.935 L 517.751, 185.496 L 518.297, 202.015 L 481.677, 190.761 L 479.417, 176.049 z "/>
<path style="fill:rgb(255, 228, 11);fill-opacity:1.0;fill-rule:evenodd;stroke:rgb(0, 0, 0);stroke-width:3.0;" d="M 643.555, 230.117 L 642.953, 240.322 L 634.985, 237.874 L 628.251, 232.384 L 633.322, 224.907 z "/>
<path style="fill:rgb(255, 5, 228);fill-opacity:1.0;fill-rule:evenodd;stroke:rgb(0, 0, 0);stroke-width:3.0;" d="M 267.371, 40.837 L 262.689, 45.0453 L 255.443, 16.1206 L 264.706, 11.5828 z "/>
<path style="fill:rgb(255, 5, 228);fill-opacity:1.0;fill-rule:evenodd;stroke:rgb(0, 0, 0);stroke-width:3.0;" d="M 403.455, 409.163 L 395.736, 432.01 L 379.084, 424.127 L 380.438, 390.244 z "/>
<path style="fill:rgb(255, 5, 228);fill-opacity:1.0;fill-rule:evenodd;stroke:rgb(0, 0, 0);stroke-width:3.0;" d="M 601.531, 186.739 L 526.328, 167.364 L 535.229, 126.47 z "/>
<path style="fill:rgb(255, 5, 228);fill-opacity:1.0;fill-rule:evenodd;stroke:rgb(0, 0, 0);stroke-width:3.0;" d="M 782, 167.02 L 782.541, 181.155 L 754.218, 167.551 L 750.786, 164.284 L 753.482, 158.805 z "/>
<path style="fill:rgb(255, 39, 98);fill-opacity:1.0;fill-rule:evenodd;stroke:rgb(0, 0, 0);stroke-width:3.0;" d="M 712.414, 166.572 L 722.372, 182.653 L 723.416, 194.758 L 696.201, 199.805 L 676.371, 192.149 L 698.877, 151.907 z "/>
<path style="fill:rgb(255, 39, 98);fill-opacity:1.0;fill-rule:evenodd;stroke:rgb(0, 0, 0);stroke-width:3.0;" d="M 431.668, 351.627 L 406.802, 321.109 L 443.612, 318.934 z "/>
<path style="fill:rgb(255, 56, 25);fill-opacity:1.0;fill-rule:evenodd;stroke:rgb(0, 0, 0);stroke-width:3.0;" d="M 438.079, 362.534 L 435.488, 368.346 L 410.917, 356.013 L 416.491, 350.787 z "/>
<path style="fill:rgb(243, 246, 13);fill-opacity:1.0;fill-rule:evenodd;stroke:rgb(0, 0, 0);stroke-width:3.0;" d="M 535.229, 126.47 L 526.328, 167.364 L 431.961, 143.053 L 408.494, 25.6172 L 416.631, 18.6651 z "/>
<path style="fill:rgb(243, 246, 13);fill-opacity:1.0;fill-rule:evenodd;stroke:rgb(0, 0, 0);stroke-width:3.0;" d="M 175.85, 37.6574 L 151.29, 54.4614 L 133.758, 56.7926 L 165.801, 25.3236 z "/>
<path style="fill:rgb(243, 246, 13);fill-opacity:1.0;fill-rule:evenodd;stroke:rgb(0, 0, 0);stroke-width:3.0;" d="M 743.777, 71.6212 L 723.311, 108.217 L 693.581, 42.5902 z "/>
<path style="fill:rgb(243, 246, 13);fill-opacity:1.0;fill-rule:evenodd;stroke:rgb(0, 0, 0);stroke-width:3.0;" d="M 374.648, 337.808 L 356.674, 355.164 L 349.342, 346.983 L 356.447, 328.673 z "/>
<path style="fill:rgb(255, 252, 78);fill-opacity:1.0;fill-rule:evenodd;stroke:rgb(0, 0, 0);stroke-width:3.0;" d="M 676.169, 215.928 L 680.613, 235.841 L 669.54, 247.274 L 666.447, 247.542 L 648.48, 242.021 L 668.217, 206.729 z "/>
<path style="fill:rgb(255, 252, 78);fill-opacity:1.0;fill-rule:evenodd;stroke:rgb(0, 0, 0);stroke-width:3.0;" d="M 182.853, 568.474 L 179.783, 574.432 L 155.651, 563.191 L 175.501, 546.448 z "/>
<path style="fill:rgb(255, 252, 78);fill-opacity:1.0;fill-rule:evenodd;stroke:rgb(0, 0, 0);stroke-width:3.0;" d="M 588.956, 521.107 L 586.997, 542.266 L 581.308, 535.283 L 583.737, 516.023 z "/>
<path style="fill:rgb(255, 252, 78);fill-opacity:1.0;fill-rule:evenodd;stroke:rgb(0, 0, 0);stroke-width:3.0;" d="M 477.647, 220.73 L 471.201, 227.903 L 465.251, 230.23 L 438.439, 229.9 L 462.766, 210.962 z "/>
<path style="fill:rgb(255, 252, 78);fill-opacity:1.0;fill-rule:evenodd;stroke:rgb(0, 0, 0);stroke-width:3.0;" d="M 64.6955, 554.231 L 61.9955, 566.708 L 55.1848, 560.292 L 55.0795, 549.845 z "/>
<path style="fill:rgb(255, 252, 78);fill-opacity:1.0;fill-rule:evenodd;stroke:rgb(0, 0, 0);stroke-width:3.0;" d="M 601.404, 464.554 L 606.081, 481 L 605.114, 482.351 L 587.446, 468.185 L 575.229, 445.116 z "/>
<path style="fill:rgb(255, 172, 9);fill-opacity:1.0;fill-rule:evenodd;stroke:rgb(0, 0, 0);stroke-width:3.0;" d="M 450.2, 181.088 L 438.896, 199.01 L 298.882, 188.656 L 240.112, 116.527 z "/>
<path style="fill:rgb(255, 48, 21);fill-opacity:1.0;fill-rule:evenodd;stroke:rgb(0, 0, 0);stroke-width:3.0;" d="M 473.091, 188.123 L 469.542, 215.41 L 440.554, 196.381 L 450.2, 181.088 z "/>
<path style="fill:rgb(252, 252, 67);fill-opacity:1.0;fill-rule:evenodd;stroke:rgb(0, 0, 0);stroke-width:3.0;" d="M 188.269, 535.647 L 163.728, 552.854 L 145.631, 546.201 L 159.269, 517.813 z "/>
<path style="fill:rgb(75, 7, 249);fill-opacity:1.0;fill-rule:evenodd;stroke:rgb(0, 0, 0);stroke-width:3.0;" d="M 200.925, 125.804 L 176.026, 100.527 L 208.866, 87.001 z "/>
<path style="fill:rgb(7, 55, 240);fill-opacity:1.0;fill-rule:evenodd;stroke:rgb(0, 0, 0);stroke-width:3.0;" d="M 210.309, 79.9491 L 208.866, 87.001 L 176.026, 100.527 L 156.349, 80.5511 L 193.604, 59.4472 z "/>
<path style="fill:rgb(86, 207, 255);fill-opacity:1.0;fill-rule:evenodd;stroke:rgb(0, 0, 0);stroke-width:3.0;" d="M 192.631, 532.589 L 188.269, 535.647 L 164.828, 521.232 L 161.147, 513.902 L 163.347, 509.324 z "/>
<path style="fill:rgb(255, 187, 114);fill-opacity:1.0;fill-rule:evenodd;stroke:rgb(0, 0, 0);stroke-width:3.0;" d="M 558.597, 60.898 L 536.387, 68.8551 L 511.281, 52.1174 L 508.089, 47.6255 z "/>
<path style="fill:rgb(212, 0, 62);fill-opacity:1.0;fill-rule:evenodd;stroke:rgb(0, 0, 0);stroke-width:3.0;" d="M 107.679, 496.625 L 98.4271, 500.542 L 81.775, 490.298 L 113.446, 485.65 z "/>
<path style="fill:rgb(212, 0, 62);fill-opacity:1.0;fill-rule:evenodd;stroke:rgb(0, 0, 0);stroke-width:3.0;" d="M 148.882, 89.9065 L 110.368, 150.845 L 51.5903, 203.845 L 50.2194, 67.9002 L 128.622, 57.4755 z "/>
<path style="fill:rgb(212, 0, 62);fill-opacity:1.0;fill-rule:evenodd;stroke:rgb(0, 0, 0);stroke-width:3.0;" d="M 478.499, 189.785 L 478.488, 208.088 L 473.594, 218.07 L 469.542, 215.41 L 473.091, 188.123 z "/>
<path style="fill:rgb(212, 0, 62);fill-opacity:1.0;fill-rule:evenodd;stroke:rgb(0, 0, 0);stroke-width:3.0;" d="M 588.701, 103.731 L 562.394, 101.588 L 529.034, 77.0982 L 511.281, 52.1174 z "/>
<path style="fill:rgb(212, 0, 62);fill-opacity:1.0;fill-rule:evenodd;stroke:rgb(0, 0, 0);stroke-width:3.0;" d="M 206.913, 39.8933 L 186.014, 50.131 L 165.381, 24.8082 L 217.724, 13.8203 z "/>
<path style="fill:rgb(88, 56, 199);fill-opacity:1.0;fill-rule:evenodd;stroke:rgb(0, 0, 0);stroke-width:3.0;" d="M 425.858, 173.608 L 404.502, 167.045 L 396.34, 144.314 L 396.111, 138.326 z "/>
<path style="fill:rgb(88, 56, 199);fill-opacity:1.0;fill-rule:evenodd;stroke:rgb(0, 0, 0);stroke-width:3.0;" d="M 375.399, 282.567 L 353.868, 305.702 L 359.741, 291.292 L 371.071, 277.255 z "/>
<path style="fill:rgb(88, 56, 199);fill-opacity:1.0;fill-rule:evenodd;stroke:rgb(0, 0, 0);stroke-width:3.0;" d="M 125.669, 386.793 L 142.636, 410.635 L 128.16, 481.371 L 53.7932, 422.292 L 53.1044, 353.982 L 58.1005, 352.773 z "/>
<path style="fill:rgb(226, 49, 152);fill-opacity:1.0;fill-rule:evenodd;stroke:rgb(0, 0, 0);stroke-width:3.0;" d="M 697.282, 581.313 L 685.282, 589.42 L 681.02, 581.171 L 694.344, 576.581 z "/>
<path style="fill:rgb(226, 49, 152);fill-opacity:1.0;fill-rule:evenodd;stroke:rgb(0, 0, 0);stroke-width:3.0;" d="M 131.836, 575.214 L 111.83, 589.24 L 107.06, 570.181 L 111.868, 562.677 z "/>
<path style="fill:rgb(226, 49, 152);fill-opacity:1.0;fill-rule:evenodd;stroke:rgb(0, 0, 0);stroke-width:3.0;" d="M 118.18, 552.824 L 115.363, 557.221 L 82.2286, 532.04 z "/>
<path style="fill:rgb(237, 187, 16);fill-opacity:1.0;fill-rule:evenodd;stroke:rgb(0, 0, 0);stroke-width:3.0;" d="M 713.444, 245.19 L 687.245, 253.933 L 666.447, 247.542 L 714.219, 243.398 z "/>
<path style="fill:rgb(237, 187, 16);fill-opacity:1.0;fill-rule:evenodd;stroke:rgb(0, 0, 0);stroke-width:3.0;" d="M 761.142, 106.785 L 756.671, 107.029 L 756.397, 106.901 L 749.533, 92.5292 L 755.9, 84.428 L 762.785, 79.515 z "/>
<path style="fill:rgb(237, 187, 16);fill-opacity:1.0;fill-rule:evenodd;stroke:rgb(0, 0, 0);stroke-width:3.0;" d="M 752.109, 80.2939 L 748.51, 86.8509 L 732.605, 91.5979 L 752.444, 56.1256 z "/>
<path style="fill:rgb(255, 255, 7);fill-opacity:1.0;fill-rule:evenodd;stroke:rgb(0, 0, 0);stroke-width:3.0;" d="M 160.424, 323.714 L 96.7056, 314.489 L 168.369, 284.892 z "/>
<path style="fill:rgb(44, 150, 255);fill-opacity:1.0;fill-rule:evenodd;stroke:rgb(0, 0, 0);stroke-width:3.0;" d="M 55.0094, 542.895 L 43.9577, 532.832 L 50.97, 502.731 L 54.5497, 497.308 z "/>
<path style="fill:rgb(44, 150, 255);fill-opacity:1.0;fill-rule:evenodd;stroke:rgb(0, 0, 0);stroke-width:3.0;" d="M 491.476, 158.385 L 535.227, 181.005 L 520.689, 188.274 L 488.19, 157.539 z "/>
<path style="fill:rgb(44, 150, 255);fill-opacity:1.0;fill-rule:evenodd;stroke:rgb(0, 0, 0);stroke-width:3.0;" d="M 775.997, 266.564 L 720.151, 259.068 L 740.452, 244.51 z "/>
<path style="fill:rgb(154, 255, 255);fill-opacity:1.0;fill-rule:evenodd;stroke:rgb(0, 0, 0);stroke-width:3.0;" d="M 436.909, 376.095 L 409.213, 413.895 L 394.19, 401.547 L 394.443, 388.488 L 433.479, 373.331 z "/>
<path style="fill:rgb(255, 43, 12);fill-opacity:1.0;fill-rule:evenodd;stroke:rgb(0, 0, 0);stroke-width:3.0;" d="M 197.594, 142.083 L 188.212, 187.925 L 111.064, 288.989 L 75.0862, 309.637 L 184.231, 141.721 z "/>
<path style="fill:rgb(255, 43, 12);fill-opacity:1.0;fill-rule:evenodd;stroke:rgb(0, 0, 0);stroke-width:3.0;" d="M 475.97, 230.362 L 471.855, 241.625 L 419.507, 229.752 L 419.56, 229.668 z "/>
<path style="fill:rgb(255, 32, 150);fill-opacity:1.0;fill-rule:evenodd;stroke:rgb(0, 0, 0);stroke-width:3.0;" d="M 650.008, 144.603 L 620.983, 125.253 L 621.797, 113.254 z "/>
<path style="fill:rgb(255, 32, 150);fill-opacity:1.0;fill-rule:evenodd;stroke:rgb(0, 0, 0);stroke-width:3.0;" d="M 559.781, 193.7 L 530.3, 197.363 L 520.689, 188.274 L 535.227, 181.005 z "/>
<path style="fill:rgb(255, 32, 150);fill-opacity:1.0;fill-rule:evenodd;stroke:rgb(0, 0, 0);stroke-width:3.0;" d="M 358.441, 320.906 L 369.381, 331.545 L 352.499, 326.691 L 347.862, 324.364 L 342.205, 317.494 z "/>
<path style="fill:rgb(255, 32, 150);fill-opacity:1.0;fill-rule:evenodd;stroke:rgb(0, 0, 0);stroke-width:3.0;" d="M 643.432, 79.6359 L 639.158, 85.4111 L 624.382, 52.4695 L 625.953, 51.3043 z "/>
<path style="fill:rgb(255, 103, 8);fill-opacity:1.0;fill-rule:evenodd;stroke:rgb(0, 0, 0);stroke-width:3.0;" d="M 605.773, 217.479 L 584.139, 222.248 L 561.643, 215.335 L 561.756, 214.274 L 586.152, 207.335 z "/>
<path style="fill:rgb(255, 103, 8);fill-opacity:1.0;fill-rule:evenodd;stroke:rgb(0, 0, 0);stroke-width:3.0;" d="M 523.424, 166.616 L 522.205, 174.273 L 491.476, 158.385 z "/>
<path style="fill:rgb(255, 103, 8);fill-opacity:1.0;fill-rule:evenodd;stroke:rgb(0, 0, 0);stroke-width:3.0;" d="M 384.465, 130.816 L 345.322, 120.732 L 334.02, 89.2461 L 377.216, 52.3403 z "/>
<path style="fill:rgb(255, 103, 8);fill-opacity:1.0;fill-rule:evenodd;stroke:rgb(0, 0, 0);stroke-width:3.0;" d="M 488.19, 157.539 L 511.871, 179.935 L 424.671, 169.494 L 418.139, 162.236 L 454.99, 148.986 z "/>
<path style="fill:rgb(255, 103, 8);fill-opacity:1.0;fill-rule:evenodd;stroke:rgb(0, 0, 0);stroke-width:3.0;" d="M 538.667, 400.671 L 491.252, 386.508 L 499.71, 363.958 L 548.708, 336.48 z "/>
<path style="fill:rgb(255, 103, 8);fill-opacity:1.0;fill-rule:evenodd;stroke:rgb(0, 0, 0);stroke-width:3.0;" d="M 382.709, 341.854 L 387.511, 347.271 L 390.224, 357.104 L 372.44, 346.57 L 379.418, 340.203 z "/>
<path style="fill:rgb(255, 103, 8);fill-opacity:1.0;fill-rule:evenodd;stroke:rgb(0, 0, 0);stroke-width:3.0;" d="M 627.026, 193.307 L 612.265, 216.048 L 605.773, 217.479 L 599.032, 213.994 L 591.523, 184.16 z "/>
<path style="fill:rgb(255, 103, 8);fill-opacity:1.0;fill-rule:evenodd;stroke:rgb(0, 0, 0);stroke-width:3.0;" d="M 179.259, 41.841 L 173.117, 51.5591 L 151.29, 54.4614 L 175.85, 37.6574 z "/>
<path style="fill:rgb(255, 103, 8);fill-opacity:1.0;fill-rule:evenodd;stroke:rgb(0, 0, 0);stroke-width:3.0;" d="M 574.406, 561.216 L 570.906, 569.317 L 545.889, 577.991 L 545.93, 577.387 L 571.596, 560.678 z "/>
<path style="fill:rgb(255, 103, 8);fill-opacity:1.0;fill-rule:evenodd;stroke:rgb(0, 0, 0);stroke-width:3.0;" d="M 462.766, 210.962 L 438.439, 229.9 L 419.56, 229.668 L 428.596, 215.342 L 457.061, 207.217 z "/>
<path style="fill:rgb(255, 103, 8);fill-opacity:1.0;fill-rule:evenodd;stroke:rgb(0, 0, 0);stroke-width:3.0;" d="M 794.057, 175.209 L 793.912, 190.521 L 786.897, 189.6 L 782.794, 187.75 L 782.634, 183.576 L 786.026, 177.557 L 790.778, 174.67 z "/>
<path style="fill:rgb(223, 71, 52);fill-opacity:1.0;fill-rule:evenodd;stroke:rgb(0, 0, 0);stroke-width:3.0;" d="M 357.085, 132.457 L 372.645, 144.417 L 363.967, 154.588 L 245.982, 118.331 L 236.799, 108.681 z "/>
<path style="fill:rgb(223, 71, 52);fill-opacity:1.0;fill-rule:evenodd;stroke:rgb(0, 0, 0);stroke-width:3.0;" d="M 105.388, 572.791 L 92.3349, 566.837 L 115.037, 557.73 z "/>
<path style="fill:rgb(9, 234, 255);fill-opacity:1.0;fill-rule:evenodd;stroke:rgb(0, 0, 0);stroke-width:3.0;" d="M 586.536, 223.809 L 499.45, 229.66 L 498.225, 227.289 L 533.192, 210.451 z "/>
<path style="fill:rgb(9, 234, 255);fill-opacity:1.0;fill-rule:evenodd;stroke:rgb(0, 0, 0);stroke-width:3.0;" d="M 49.7395, 20.3025 L 50.6217, 107.793 L 20.5589, 124.509 L 47.7527, 19.0114 z "/>
<path style="fill:rgb(9, 234, 255);fill-opacity:1.0;fill-rule:evenodd;stroke:rgb(0, 0, 0);stroke-width:3.0;" d="M 82.2286, 532.04 L 115.363, 557.221 L 115.037, 557.73 L 92.3349, 566.837 L 55.0795, 549.845 L 54.7397, 516.147 z "/>
<path style="fill:rgb(255, 39, 255);fill-opacity:1.0;fill-rule:evenodd;stroke:rgb(0, 0, 0);stroke-width:3.0;" d="M 698.255, 557.741 L 686.755, 564.355 L 666.587, 531.866 L 670.181, 527.47 z "/>
<path style="fill:rgb(255, 39, 255);fill-opacity:1.0;fill-rule:evenodd;stroke:rgb(0, 0, 0);stroke-width:3.0;" d="M 151.088, 534.843 L 137.027, 550.157 L 133.532, 552.591 L 131.403, 542.485 L 136.249, 529.667 L 163.088, 509.862 z "/>
<path style="fill:rgb(237, 249, 12);fill-opacity:1.0;fill-rule:evenodd;stroke:rgb(0, 0, 0);stroke-width:3.0;" d="M 182.006, 62.4486 L 177.492, 68.5745 L 161.98, 77.3613 L 170.657, 60.9958 z "/>
<path style="fill:rgb(237, 249, 12);fill-opacity:1.0;fill-rule:evenodd;stroke:rgb(0, 0, 0);stroke-width:3.0;" d="M 302.936, 94.4691 L 304.768, 110.284 L 272.949, 102.087 L 269.632, 65.6695 z "/>
<path style="fill:rgb(237, 249, 12);fill-opacity:1.0;fill-rule:evenodd;stroke:rgb(0, 0, 0);stroke-width:3.0;" d="M 744.126, 240.803 L 726.878, 242.299 L 681.795, 222.437 L 672.039, 211.151 L 677.222, 210.646 z "/>
<path style="fill:rgb(179, 255, 67);fill-opacity:1.0;fill-rule:evenodd;stroke:rgb(0, 0, 0);stroke-width:3.0;" d="M 26.6338, 574.07 L 15.0249, 575.121 L 11.184, 571.23 L 28.7629, 560.086 z "/>
<path style="fill:rgb(179, 255, 67);fill-opacity:1.0;fill-rule:evenodd;stroke:rgb(0, 0, 0);stroke-width:3.0;" d="M 110.334, 365.244 L 75.8353, 348.482 L 95.0896, 343.823 z "/>
<path style="fill:rgb(165, 95, 255);fill-opacity:1.0;fill-rule:evenodd;stroke:rgb(0, 0, 0);stroke-width:3.0;" d="M 627.528, 59.4819 L 657.816, 149.808 L 650.008, 144.603 L 621.797, 113.254 L 625.718, 55.4469 z "/>
<path style="fill:rgb(165, 95, 255);fill-opacity:1.0;fill-rule:evenodd;stroke:rgb(0, 0, 0);stroke-width:3.0;" d="M 431.961, 143.053 L 384.465, 130.816 L 377.216, 52.3403 L 408.494, 25.6172 z "/>
<path style="fill:rgb(165, 95, 255);fill-opacity:1.0;fill-rule:evenodd;stroke:rgb(0, 0, 0);stroke-width:3.0;" d="M 578.482, 394.465 L 542.62, 451.645 L 538.999, 436.418 L 549.355, 418.306 L 573.63, 388.12 z "/>
<path style="fill:rgb(165, 95, 255);fill-opacity:1.0;fill-rule:evenodd;stroke:rgb(0, 0, 0);stroke-width:3.0;" d="M 349.894, 345.563 L 344.134, 360.407 L 335.268, 353.119 L 341.73, 342.895 z "/>
<path style="fill:rgb(165, 95, 255);fill-opacity:1.0;fill-rule:evenodd;stroke:rgb(0, 0, 0);stroke-width:3.0;" d="M 37.831, 306.123 L 36.7026, 315.295 L 19.134, 311.397 L 14.6637, 302.934 z "/>
<path style="fill:rgb(165, 95, 255);fill-opacity:1.0;fill-rule:evenodd;stroke:rgb(0, 0, 0);stroke-width:3.0;" d="M 574.849, 375.63 L 581.825, 389.135 L 580.655, 391 L 575.48, 390.539 L 567.247, 379.776 L 573.742, 375.175 z "/>
<path style="fill:rgb(255, 197, 7);fill-opacity:1.0;fill-rule:evenodd;stroke:rgb(0, 0, 0);stroke-width:3.0;" d="M 577.383, 509.834 L 580.699, 534.536 L 533.226, 476.272 L 534.073, 467.649 z "/>
<path style="fill:rgb(202, 34, 255);fill-opacity:1.0;fill-rule:evenodd;stroke:rgb(0, 0, 0);stroke-width:3.0;" d="M 153.467, 82.6517 L 136.176, 56.471 L 173.117, 51.5591 z "/>
<path style="fill:rgb(41, 255, 255);fill-opacity:1.0;fill-rule:evenodd;stroke:rgb(0, 0, 0);stroke-width:3.0;" d="M 725.316, 150.691 L 793.315, 253.394 L 793.307, 254.209 L 703.153, 156.539 L 714.255, 147.504 z "/>
<path style="fill:rgb(255, 246, 22);fill-opacity:1.0;fill-rule:evenodd;stroke:rgb(0, 0, 0);stroke-width:3.0;" d="M 625.718, 55.4469 L 624.015, 80.5537 L 614.198, 76.8368 L 613.578, 66.2514 L 622.166, 47.5289 z "/>
<path style="fill:rgb(255, 246, 22);fill-opacity:1.0;fill-rule:evenodd;stroke:rgb(0, 0, 0);stroke-width:3.0;" d="M 163.703, 261.992 L 165.794, 285.955 L 96.7056, 314.489 L 72.6905, 311.012 L 161.525, 260.028 z "/>
<path style="fill:rgb(98, 92, 255);fill-opacity:1.0;fill-rule:evenodd;stroke:rgb(0, 0, 0);stroke-width:3.0;" d="M 588.737, 223.661 L 586.536, 223.809 L 483.04, 197.893 L 478.919, 189.913 z "/>
<path style="fill:rgb(52, 88, 255);fill-opacity:1.0;fill-rule:evenodd;stroke:rgb(0, 0, 0);stroke-width:3.0;" d="M 613.853, 118.911 L 599.312, 52.8234 L 610.249, 52.2008 z "/>
<path style="fill:rgb(52, 88, 255);fill-opacity:1.0;fill-rule:evenodd;stroke:rgb(0, 0, 0);stroke-width:3.0;" d="M 454.99, 148.986 L 418.139, 162.236 L 396.088, 137.737 L 395.936, 133.772 z "/>
<path style="fill:rgb(52, 88, 255);fill-opacity:1.0;fill-rule:evenodd;stroke:rgb(0, 0, 0);stroke-width:3.0;" d="M 793.753, 207.255 L 793.315, 253.394 L 762.65, 207.078 L 767.541, 187.184 z "/>
<path style="fill:rgb(52, 88, 255);fill-opacity:1.0;fill-rule:evenodd;stroke:rgb(0, 0, 0);stroke-width:3.0;" d="M 599.273, 490.517 L 597.825, 492.541 L 584.308, 486.678 L 584.125, 486.406 L 587.847, 472.11 L 589.386, 471.848 z "/>
<path style="fill:rgb(220, 161, 192);fill-opacity:1.0;fill-rule:evenodd;stroke:rgb(0, 0, 0);stroke-width:3.0;" d="M 200.925, 125.804 L 197.594, 142.083 L 117.283, 139.905 L 155.402, 79.5895 z "/>
<path style="fill:rgb(117, 246, 228);fill-opacity:1.0;fill-rule:evenodd;stroke:rgb(0, 0, 0);stroke-width:3.0;" d="M 758.567, 216.573 L 793.307, 254.209 L 793.225, 262.935 L 684.65, 213.994 z "/>
<path style="fill:rgb(209, 78, 136);fill-opacity:1.0;fill-rule:evenodd;stroke:rgb(0, 0, 0);stroke-width:3.0;" d="M 207.102, 71.2851 L 205.29, 73.7893 L 195.908, 62.2743 L 212.352, 58.6764 z "/>
<path style="fill:rgb(209, 78, 136);fill-opacity:1.0;fill-rule:evenodd;stroke:rgb(0, 0, 0);stroke-width:3.0;" d="M 672.408, 159.536 L 657.816, 149.808 L 627.528, 59.4819 z "/>
<path style="fill:rgb(255, 27, 8);fill-opacity:1.0;fill-rule:evenodd;stroke:rgb(0, 0, 0);stroke-width:3.0;" d="M 725.668, 141.276 L 723.838, 144.949 L 703.548, 143.555 L 707.97, 135.648 z "/>
<path style="fill:rgb(255, 27, 8);fill-opacity:1.0;fill-rule:evenodd;stroke:rgb(0, 0, 0);stroke-width:3.0;" d="M 511.39, 48.4931 L 508.089, 47.6255 L 505.852, 44.4786 L 535.685, 27.136 z "/>
<path style="fill:rgb(55, 119, 255);fill-opacity:1.0;fill-rule:evenodd;stroke:rgb(0, 0, 0);stroke-width:3.0;" d="M 179.783, 574.432 L 179.338, 575.295 L 177.353, 575.304 L 150.171, 567.813 L 155.651, 563.191 z "/>
<path style="fill:rgb(55, 119, 255);fill-opacity:1.0;fill-rule:evenodd;stroke:rgb(0, 0, 0);stroke-width:3.0;" d="M 52.1732, 261.647 L 52.9349, 337.177 L 48.5176, 346.425 L 33.4097, 342.064 L 43.4989, 260.048 z "/>
<path style="fill:rgb(255, 175, 7);fill-opacity:1.0;fill-rule:evenodd;stroke:rgb(0, 0, 0);stroke-width:3.0;" d="M 623.137, 93.4926 L 620.983, 125.253 L 616.872, 122.512 L 614.887, 88.6158 z "/>
<path style="fill:rgb(255, 175, 7);fill-opacity:1.0;fill-rule:evenodd;stroke:rgb(0, 0, 0);stroke-width:3.0;" d="M 569.615, 382.871 L 569.309, 383.406 L 544.275, 364.819 L 546.233, 352.301 z "/>
<path style="fill:rgb(249, 172, 26);fill-opacity:1.0;fill-rule:evenodd;stroke:rgb(0, 0, 0);stroke-width:3.0;" d="M 533.192, 210.451 L 498.225, 227.289 L 483.04, 197.893 z "/>
<path style="fill:rgb(69, 67, 223);fill-opacity:1.0;fill-rule:evenodd;stroke:rgb(0, 0, 0);stroke-width:3.0;" d="M 495.836, 374.286 L 486.293, 399.729 L 466.466, 394.336 L 431.668, 351.627 L 436.451, 338.533 z "/>
<path style="fill:rgb(69, 67, 223);fill-opacity:1.0;fill-rule:evenodd;stroke:rgb(0, 0, 0);stroke-width:3.0;" d="M 568.372, 479.765 L 589.288, 488.838 L 551.566, 484.687 L 543.146, 476.486 z "/>
<path style="fill:rgb(255, 231, 34);fill-opacity:1.0;fill-rule:evenodd;stroke:rgb(0, 0, 0);stroke-width:3.0;" d="M 162.211, 510.51 L 131.751, 532.985 L 137.931, 517.684 L 158.057, 505.598 z "/>
<path style="fill:rgb(255, 16, 103);fill-opacity:1.0;fill-rule:evenodd;stroke:rgb(0, 0, 0);stroke-width:3.0;" d="M 535.815, 418.905 L 532.211, 441.947 L 497.958, 432.987 L 492.89, 426.766 L 496.389, 402.425 z "/>
<path style="fill:rgb(159, 114, 255);fill-opacity:1.0;fill-rule:evenodd;stroke:rgb(0, 0, 0);stroke-width:3.0;" d="M 284.749, 11.789 L 314.595, 112.816 L 313.061, 112.421 L 279.48, 11.1183 z "/>
<path style="fill:rgb(159, 114, 255);fill-opacity:1.0;fill-rule:evenodd;stroke:rgb(0, 0, 0);stroke-width:3.0;" d="M 623.103, 264.378 L 506.659, 237.748 L 501.907, 234.418 L 499.45, 229.66 L 587.419, 223.75 z "/>
<path style="fill:rgb(159, 114, 255);fill-opacity:1.0;fill-rule:evenodd;stroke:rgb(0, 0, 0);stroke-width:3.0;" d="M 586.152, 207.335 L 559.904, 214.801 L 543.364, 209.718 L 530.3, 197.363 L 559.781, 193.7 z "/>
<path style="fill:rgb(255, 249, 19);fill-opacity:1.0;fill-rule:evenodd;stroke:rgb(0, 0, 0);stroke-width:3.0;" d="M 142.072, 568.037 L 131.836, 575.214 L 111.868, 562.677 L 117.961, 553.165 z "/>
<path style="fill:rgb(255, 249, 19);fill-opacity:1.0;fill-rule:evenodd;stroke:rgb(0, 0, 0);stroke-width:3.0;" d="M 593.006, 525.052 L 583.192, 515.493 L 603.655, 508.444 z "/>
<path style="fill:rgb(255, 249, 19);fill-opacity:1.0;fill-rule:evenodd;stroke:rgb(0, 0, 0);stroke-width:3.0;" d="M 271.561, 86.8504 L 272.949, 102.087 L 225.552, 89.8759 L 214.147, 74.9367 z "/>
<path style="fill:rgb(255, 249, 19);fill-opacity:1.0;fill-rule:evenodd;stroke:rgb(0, 0, 0);stroke-width:3.0;" d="M 785.251, 47.1664 L 780.195, 53.4712 L 767.627, 36.7616 L 785.979, 30.5991 z "/>
<path style="fill:rgb(243, 0, 255);fill-opacity:1.0;fill-rule:evenodd;stroke:rgb(0, 0, 0);stroke-width:3.0;" d="M 631.991, 259.057 L 633.563, 276.287 L 615.982, 256.269 L 616.065, 256.15 z "/>
<path style="fill:rgb(243, 0, 255);fill-opacity:1.0;fill-rule:evenodd;stroke:rgb(0, 0, 0);stroke-width:3.0;" d="M 414.635, 440.956 L 410.717, 548.491 L 379.198, 535.318 L 374.975, 526.928 L 379.084, 424.127 z "/>
<path style="fill:rgb(128, 0, 37);fill-opacity:1.0;fill-rule:evenodd;stroke:rgb(0, 0, 0);stroke-width:3.0;" d="M 241.676, 20.4041 L 240.358, 23.5102 L 206.913, 39.8933 L 216.215, 17.4607 L 224.012, 15.1472 z "/>
<path style="fill:rgb(128, 0, 37);fill-opacity:1.0;fill-rule:evenodd;stroke:rgb(0, 0, 0);stroke-width:3.0;" d="M 484.528, 416.504 L 490.207, 435.755 L 432.762, 433.25 L 417.611, 420.797 L 456.899, 382.593 z "/>
<path style="fill:rgb(255, 64, 20);fill-opacity:1.0;fill-rule:evenodd;stroke:rgb(0, 0, 0);stroke-width:3.0;" d="M 469.813, 247.215 L 457.725, 280.303 L 421.219, 233.964 z "/>
<path style="fill:rgb(117, 69, 207);fill-opacity:1.0;fill-rule:evenodd;stroke:rgb(0, 0, 0);stroke-width:3.0;" d="M 471.855, 241.625 L 469.813, 247.215 L 421.219, 233.964 L 418.793, 230.884 L 419.507, 229.752 z "/>
<path style="fill:rgb(243, 209, 27);fill-opacity:1.0;fill-rule:evenodd;stroke:rgb(0, 0, 0);stroke-width:3.0;" d="M 428.311, 249.44 L 454.451, 289.264 L 443.612, 318.934 L 406.802, 321.109 L 381.485, 290.036 L 416.391, 234.693 z "/>
<path style="fill:rgb(243, 209, 27);fill-opacity:1.0;fill-rule:evenodd;stroke:rgb(0, 0, 0);stroke-width:3.0;" d="M 413.759, 357.44 L 433.479, 373.331 L 412.653, 381.417 L 394.933, 363.117 L 395.223, 348.136 z "/>
<path style="fill:rgb(255, 25, 197);fill-opacity:1.0;fill-rule:evenodd;stroke:rgb(0, 0, 0);stroke-width:3.0;" d="M 727.554, 253.759 L 720.151, 259.068 L 711.716, 257.935 L 712.195, 250.039 L 722.812, 242.714 z "/>
<path style="fill:rgb(165, 202, 255);fill-opacity:1.0;fill-rule:evenodd;stroke:rgb(0, 0, 0);stroke-width:3.0;" d="M 389.936, 539.806 L 397.693, 554.119 L 397.84, 566.127 L 396.69, 570.07 L 379.198, 535.318 z "/>
<path style="fill:rgb(255, 249, 49);fill-opacity:1.0;fill-rule:evenodd;stroke:rgb(0, 0, 0);stroke-width:3.0;" d="M 105.388, 572.791 L 91.4867, 594.49 L 61.9955, 566.708 L 64.6955, 554.231 z "/>
<path style="fill:rgb(255, 249, 49);fill-opacity:1.0;fill-rule:evenodd;stroke:rgb(0, 0, 0);stroke-width:3.0;" d="M 338.49, 215.058 L 326.573, 222.643 L 298.89, 188.667 z "/>
<path style="fill:rgb(255, 249, 49);fill-opacity:1.0;fill-rule:evenodd;stroke:rgb(0, 0, 0);stroke-width:3.0;" d="M 48.1865, 555.357 L 26.2666, 576.482 L 32.95, 532.584 z "/>
<path style="fill:rgb(255, 231, 9);fill-opacity:1.0;fill-rule:evenodd;stroke:rgb(0, 0, 0);stroke-width:3.0;" d="M 394.995, 359.93 L 394.519, 384.544 L 351.503, 365.676 L 372.44, 346.57 z "/>
<path style="fill:rgb(89, 255, 255);fill-opacity:1.0;fill-rule:evenodd;stroke:rgb(0, 0, 0);stroke-width:3.0;" d="M 687.083, 564.884 L 676.046, 571.54 L 672.109, 563.919 L 670.197, 549.889 L 672.969, 542.147 z "/>
<path style="fill:rgb(234, 255, 9);fill-opacity:1.0;fill-rule:evenodd;stroke:rgb(0, 0, 0);stroke-width:3.0;" d="M 409.004, 331.533 L 417.948, 344.304 L 415.153, 344.416 L 388.981, 337.87 L 387.703, 336.456 L 400.944, 331.029 L 404.912, 330.673 z "/>
<path style="fill:rgb(234, 255, 9);fill-opacity:1.0;fill-rule:evenodd;stroke:rgb(0, 0, 0);stroke-width:3.0;" d="M 578.089, 180.699 L 595.896, 201.534 L 599.032, 213.994 L 544.87, 185.991 L 556.054, 175.023 z "/>
<path style="fill:rgb(255, 44, 172);fill-opacity:1.0;fill-rule:evenodd;stroke:rgb(0, 0, 0);stroke-width:3.0;" d="M 747.49, 171.831 L 767.541, 187.184 L 762.65, 207.078 L 735.833, 166.575 z "/>
<path style="fill:rgb(255, 44, 172);fill-opacity:1.0;fill-rule:evenodd;stroke:rgb(0, 0, 0);stroke-width:3.0;" d="M 627.251, 322.254 L 575.996, 377.849 L 507.433, 245.116 L 509.137, 239.484 z "/>
<path style="fill:rgb(255, 44, 172);fill-opacity:1.0;fill-rule:evenodd;stroke:rgb(0, 0, 0);stroke-width:3.0;" d="M 371.53, 194.029 L 338.49, 215.058 L 298.89, 188.667 L 298.882, 188.656 z "/>
<path style="fill:rgb(255, 44, 172);fill-opacity:1.0;fill-rule:evenodd;stroke:rgb(0, 0, 0);stroke-width:3.0;" d="M 578.802, 53.6589 L 558.597, 60.898 L 511.39, 48.4931 L 518.963, 41.836 z "/>
<path style="fill:rgb(194, 94, 255);fill-opacity:1.0;fill-rule:evenodd;stroke:rgb(0, 0, 0);stroke-width:3.0;" d="M 609.171, 97.6295 L 614.263, 120.772 L 608.836, 117.155 L 602.984, 97.2181 z "/>
<path style="fill:rgb(59, 43, 255);fill-opacity:1.0;fill-rule:evenodd;stroke:rgb(0, 0, 0);stroke-width:3.0;" d="M 622.166, 47.5289 L 613.578, 66.2514 L 612.445, 46.9118 L 618.766, 39.9492 z "/>
<path style="fill:rgb(59, 43, 255);fill-opacity:1.0;fill-rule:evenodd;stroke:rgb(0, 0, 0);stroke-width:3.0;" d="M 694.344, 576.581 L 681.02, 581.171 L 676.046, 571.54 L 687.083, 564.884 z "/>
<path style="fill:rgb(59, 43, 255);fill-opacity:1.0;fill-rule:evenodd;stroke:rgb(0, 0, 0);stroke-width:3.0;" d="M 604.476, 102.301 L 608.836, 117.155 L 591.471, 105.578 L 592.704, 101.478 z "/>
<path style="fill:rgb(59, 43, 255);fill-opacity:1.0;fill-rule:evenodd;stroke:rgb(0, 0, 0);stroke-width:3.0;" d="M 55.3507, 237.898 L 51.9255, 237.084 L 51.5903, 203.845 L 110.368, 150.845 z "/>
<path style="fill:rgb(59, 43, 255);fill-opacity:1.0;fill-rule:evenodd;stroke:rgb(0, 0, 0);stroke-width:3.0;" d="M 384.376, 380.095 L 369.302, 381.092 L 351.049, 366.09 L 351.503, 365.676 z "/>
<path style="fill:rgb(59, 43, 255);fill-opacity:1.0;fill-rule:evenodd;stroke:rgb(0, 0, 0);stroke-width:3.0;" d="M 197.301, 536.299 L 128.16, 481.371 L 161.299, 319.436 z "/>
<path style="fill:rgb(59, 43, 255);fill-opacity:1.0;fill-rule:evenodd;stroke:rgb(0, 0, 0);stroke-width:3.0;" d="M 689.578, 254.65 L 651.16, 296.321 L 639.3, 282.818 L 634.444, 237.707 z "/>
<path style="fill:rgb(255, 83, 27);fill-opacity:1.0;fill-rule:evenodd;stroke:rgb(0, 0, 0);stroke-width:3.0;" d="M 629.955, 236.328 L 615.982, 256.269 L 587.419, 223.75 L 588.737, 223.661 z "/>
<path style="fill:rgb(255, 154, 46);fill-opacity:1.0;fill-rule:evenodd;stroke:rgb(0, 0, 0);stroke-width:3.0;" d="M 50.8677, 132.182 L 50.9442, 139.772 L 20.087, 124.771 L 22.8408, 123.24 z "/>
<path style="fill:rgb(123, 255, 228);fill-opacity:1.0;fill-rule:evenodd;stroke:rgb(0, 0, 0);stroke-width:3.0;" d="M 426.686, 345.513 L 431.926, 359.186 L 405.499, 344.806 L 425.454, 344.001 z "/>
<path style="fill:rgb(123, 255, 228);fill-opacity:1.0;fill-rule:evenodd;stroke:rgb(0, 0, 0);stroke-width:3.0;" d="M 53.101, 353.647 L 53.1922, 362.693 L 36.5904, 387.134 L 28.0688, 385.481 L 32.3049, 351.045 z "/>
<path style="fill:rgb(123, 255, 228);fill-opacity:1.0;fill-rule:evenodd;stroke:rgb(0, 0, 0);stroke-width:3.0;" d="M 415.435, 419.008 L 414.635, 440.956 L 395.736, 432.01 L 403.455, 409.163 z "/>
<path style="fill:rgb(126, 100, 255);fill-opacity:1.0;fill-rule:evenodd;stroke:rgb(0, 0, 0);stroke-width:3.0;" d="M 668.066, 534.249 L 672.109, 563.919 L 656.713, 534.112 L 649.943, 505.055 z "/>
<path style="fill:rgb(255, 33, 231);fill-opacity:1.0;fill-rule:evenodd;stroke:rgb(0, 0, 0);stroke-width:3.0;" d="M 116.207, 471.875 L 118.732, 484.874 L 54.5193, 494.297 L 54.4178, 484.233 L 98.6261, 457.909 z "/>
<path style="fill:rgb(255, 33, 231);fill-opacity:1.0;fill-rule:evenodd;stroke:rgb(0, 0, 0);stroke-width:3.0;" d="M 399.676, 368.016 L 405.004, 384.388 L 394.443, 388.488 L 394.933, 363.117 z "/>
<path style="fill:rgb(217, 4, 7);fill-opacity:1.0;fill-rule:evenodd;stroke:rgb(0, 0, 0);stroke-width:3.0;" d="M 624.015, 80.5537 L 623.137, 93.4926 L 614.887, 88.6158 L 614.198, 76.8368 z "/>
<path style="fill:rgb(217, 4, 7);fill-opacity:1.0;fill-rule:evenodd;stroke:rgb(0, 0, 0);stroke-width:3.0;" d="M 457.725, 280.303 L 456.335, 284.108 L 420.596, 239.895 L 420.009, 232.427 z "/>
<path style="fill:rgb(92, 92, 223);fill-opacity:1.0;fill-rule:evenodd;stroke:rgb(0, 0, 0);stroke-width:3.0;" d="M 340.071, 119.379 L 357.085, 132.457 L 236.799, 108.681 L 216.741, 87.6061 z "/>
<path style="fill:rgb(255, 3, 56);fill-opacity:1.0;fill-rule:evenodd;stroke:rgb(0, 0, 0);stroke-width:3.0;" d="M 794.26, 153.757 L 794.13, 167.47 L 711.849, 128.712 L 723.364, 108.123 z "/>
<path style="fill:rgb(255, 157, 13);fill-opacity:1.0;fill-rule:evenodd;stroke:rgb(0, 0, 0);stroke-width:3.0;" d="M 55.0094, 542.895 L 55.0655, 548.459 L 44.2627, 549.492 L 32.95, 532.584 L 34.2569, 524 z "/>
<path style="fill:rgb(204, 1, 13);fill-opacity:1.0;fill-rule:evenodd;stroke:rgb(0, 0, 0);stroke-width:3.0;" d="M 153.467, 82.6517 L 151.552, 85.6807 L 149.765, 85.9207 L 145.592, 84.6409 L 128.622, 57.4755 L 136.176, 56.471 z "/>
<path style="fill:rgb(226, 194, 249);fill-opacity:1.0;fill-rule:evenodd;stroke:rgb(0, 0, 0);stroke-width:3.0;" d="M 438.896, 199.01 L 381.485, 290.036 L 374.443, 281.395 L 428.363, 198.231 z "/>
<path style="fill:rgb(16, 234, 255);fill-opacity:1.0;fill-rule:evenodd;stroke:rgb(0, 0, 0);stroke-width:3.0;" d="M 428.363, 198.231 L 374.443, 281.395 L 326.573, 222.643 L 371.53, 194.029 z "/>
<path style="fill:rgb(237, 243, 24);fill-opacity:1.0;fill-rule:evenodd;stroke:rgb(0, 0, 0);stroke-width:3.0;" d="M 345.322, 120.732 L 320.304, 114.287 L 318.834, 112.117 L 325.671, 93.11 L 334.282, 89.9762 z "/>
<path style="fill:rgb(255, 255, 61);fill-opacity:1.0;fill-rule:evenodd;stroke:rgb(0, 0, 0);stroke-width:3.0;" d="M 453.187, 566.242 L 438.245, 585.733 L 435.22, 558.732 z "/>
<path style="fill:rgb(255, 255, 61);fill-opacity:1.0;fill-rule:evenodd;stroke:rgb(0, 0, 0);stroke-width:3.0;" d="M 606.299, 436.514 L 587.68, 439.355 L 572.012, 404.781 L 581.825, 389.135 z "/>
<path style="fill:rgb(255, 255, 61);fill-opacity:1.0;fill-rule:evenodd;stroke:rgb(0, 0, 0);stroke-width:3.0;" d="M 263.31, 47.5266 L 247.83, 50.9137 L 244.003, 39.2785 L 255.938, 18.0957 z "/>
<path style="fill:rgb(255, 207, 60);fill-opacity:1.0;fill-rule:evenodd;stroke:rgb(0, 0, 0);stroke-width:3.0;" d="M 188.675, 53.398 L 182.006, 62.4486 L 170.657, 60.9958 L 180.2, 42.996 z "/>
<path style="fill:rgb(255, 204, 38);fill-opacity:1.0;fill-rule:evenodd;stroke:rgb(0, 0, 0);stroke-width:3.0;" d="M 793.168, 268.869 L 793.138, 272.083 L 787.982, 275.203 L 754.732, 267.948 L 759.498, 264.349 z "/>
<path style="fill:rgb(240, 3, 255);fill-opacity:1.0;fill-rule:evenodd;stroke:rgb(0, 0, 0);stroke-width:3.0;" d="M 759.498, 264.349 L 754.732, 267.948 L 710.651, 258.329 L 711.559, 257.914 z "/>
<path style="fill:rgb(243, 21, 255);fill-opacity:1.0;fill-rule:evenodd;stroke:rgb(0, 0, 0);stroke-width:3.0;" d="M 255.938, 18.0957 L 235.988, 53.5047 L 219.748, 57.0581 L 221.245, 32.8727 L 255.443, 16.1206 z "/>
<path style="fill:rgb(252, 37, 119);fill-opacity:1.0;fill-rule:evenodd;stroke:rgb(0, 0, 0);stroke-width:3.0;" d="M 495.886, 405.921 L 495.277, 410.158 L 488.654, 421.568 L 481.428, 412.699 L 485.544, 401.726 z "/>
<path style="fill:rgb(252, 37, 119);fill-opacity:1.0;fill-rule:evenodd;stroke:rgb(0, 0, 0);stroke-width:3.0;" d="M 219.748, 57.0581 L 195.908, 62.2743 L 186.014, 50.131 L 221.245, 32.8727 z "/>
<path style="fill:rgb(246, 112, 246);fill-opacity:1.0;fill-rule:evenodd;stroke:rgb(0, 0, 0);stroke-width:3.0;" d="M 405.083, 318.999 L 358.214, 307.395 L 355.046, 304.436 L 375.399, 282.567 z "/>
<path style="fill:rgb(246, 112, 246);fill-opacity:1.0;fill-rule:evenodd;stroke:rgb(0, 0, 0);stroke-width:3.0;" d="M 175.045, 252.268 L 111.064, 288.989 L 129.204, 265.225 L 185.091, 203.177 z "/>
<path style="fill:rgb(246, 112, 246);fill-opacity:1.0;fill-rule:evenodd;stroke:rgb(0, 0, 0);stroke-width:3.0;" d="M 550.084, 327.685 L 548.708, 336.48 L 499.71, 363.958 L 528.783, 286.448 z "/>
<path style="fill:rgb(38, 152, 252);fill-opacity:1.0;fill-rule:evenodd;stroke:rgb(0, 0, 0);stroke-width:3.0;" d="M 271.561, 86.8504 L 214.147, 74.9367 L 209.173, 68.4221 L 216.952, 57.6699 L 267.889, 46.5248 z "/>
<path style="fill:rgb(38, 152, 252);fill-opacity:1.0;fill-rule:evenodd;stroke:rgb(0, 0, 0);stroke-width:3.0;" d="M 794.537, 124.63 L 794.434, 135.514 L 780.337, 144.794 L 723.364, 108.123 L 723.808, 107.327 L 737.025, 97.8965 z "/>
<path style="fill:rgb(255, 2, 41);fill-opacity:1.0;fill-rule:evenodd;stroke:rgb(0, 0, 0);stroke-width:3.0;" d="M 98.6261, 457.909 L 54.4178, 484.233 L 53.7932, 422.292 z "/>
<path style="fill:rgb(255, 69, 175);fill-opacity:1.0;fill-rule:evenodd;stroke:rgb(0, 0, 0);stroke-width:3.0;" d="M 485.847, 203.327 L 479.133, 221.705 L 473.594, 218.07 L 483.27, 198.337 z "/>
<path style="fill:rgb(255, 128, 18);fill-opacity:1.0;fill-rule:evenodd;stroke:rgb(0, 0, 0);stroke-width:3.0;" d="M 778.949, 51.8149 L 752.557, 55.9231 L 762.266, 38.5619 L 767.627, 36.7616 z "/>
<path style="fill:rgb(7, 65, 246);fill-opacity:1.0;fill-rule:evenodd;stroke:rgb(0, 0, 0);stroke-width:3.0;" d="M 479.417, 176.049 L 481.677, 190.761 L 429.337, 174.677 L 424.671, 169.494 z "/>
<path style="fill:rgb(255, 255, 41);fill-opacity:1.0;fill-rule:evenodd;stroke:rgb(0, 0, 0);stroke-width:3.0;" d="M 667.79, 203.809 L 612.265, 216.048 L 627.026, 193.307 z "/>
<path style="fill:rgb(255, 3, 13);fill-opacity:1.0;fill-rule:evenodd;stroke:rgb(0, 0, 0);stroke-width:3.0;" d="M 651.16, 296.321 L 627.251, 322.254 L 599.42, 302.751 L 638.722, 282.16 z "/>
<path style="fill:rgb(255, 8, 60);fill-opacity:1.0;fill-rule:evenodd;stroke:rgb(0, 0, 0);stroke-width:3.0;" d="M 623.103, 264.378 L 638.722, 282.16 L 599.42, 302.751 L 506.659, 237.748 z "/>
<path style="fill:rgb(100, 138, 255);fill-opacity:1.0;fill-rule:evenodd;stroke:rgb(0, 0, 0);stroke-width:3.0;" d="M 366.307, 271.409 L 213.466, 549.141 L 197.301, 536.299 L 161.299, 319.436 L 210.309, 79.9491 z "/>
<path style="fill:rgb(19, 255, 237);fill-opacity:1.0;fill-rule:evenodd;stroke:rgb(0, 0, 0);stroke-width:3.0;" d="M 152.105, 558.536 L 152.554, 560.688 L 143.166, 567.27 L 140.692, 565.839 L 138.849, 560.319 L 142.879, 551.931 z "/>
<path style="fill:rgb(255, 89, 46);fill-opacity:1.0;fill-rule:evenodd;stroke:rgb(0, 0, 0);stroke-width:3.0;" d="M 677.661, 33.3831 L 651.664, 68.5122 L 648.636, 58.3373 L 666.572, 26.9695 z "/>
<path style="fill:rgb(74, 217, 255);fill-opacity:1.0;fill-rule:evenodd;stroke:rgb(0, 0, 0);stroke-width:3.0;" d="M 446.569, 383.879 L 422.887, 407.164 L 422.61, 407.301 L 419.532, 399.812 L 436.909, 376.095 z "/>
<path style="fill:rgb(74, 217, 255);fill-opacity:1.0;fill-rule:evenodd;stroke:rgb(0, 0, 0);stroke-width:3.0;" d="M 666.572, 26.9695 L 648.636, 58.3373 L 633.633, 7.91943 z "/>
<path style="fill:rgb(255, 220, 10);fill-opacity:1.0;fill-rule:evenodd;stroke:rgb(0, 0, 0);stroke-width:3.0;" d="M 587.68, 439.355 L 567.732, 442.398 L 549.292, 441.007 L 572.012, 404.781 z "/>
<path style="fill:rgb(255, 138, 9);fill-opacity:1.0;fill-rule:evenodd;stroke:rgb(0, 0, 0);stroke-width:3.0;" d="M 787.616, 19.8805 L 789.26, 23.2509 L 779.521, 32.7676 L 770.071, 35.9409 L 767.803, 28.6621 L 774.124, 17.3585 z "/>
<path style="fill:rgb(226, 50, 170);fill-opacity:1.0;fill-rule:evenodd;stroke:rgb(0, 0, 0);stroke-width:3.0;" d="M 164.496, 571.76 L 159.819, 575.38 L 131.421, 575.505 L 144.587, 566.274 z "/>
<path style="fill:rgb(144, 105, 255);fill-opacity:1.0;fill-rule:evenodd;stroke:rgb(0, 0, 0);stroke-width:3.0;" d="M 526.451, 450.958 L 524.303, 465.32 L 505.495, 442.237 L 506.119, 441.716 z "/>
<path style="fill:rgb(144, 105, 255);fill-opacity:1.0;fill-rule:evenodd;stroke:rgb(0, 0, 0);stroke-width:3.0;" d="M 368.411, 126.68 L 363.302, 137.236 L 351.56, 128.211 L 352.686, 122.629 z "/>
<path style="fill:rgb(33, 246, 197);fill-opacity:1.0;fill-rule:evenodd;stroke:rgb(0, 0, 0);stroke-width:3.0;" d="M 405.083, 318.999 L 416.596, 333.129 L 376.819, 324.769 L 358.214, 307.395 z "/>
<path style="fill:rgb(102, 220, 22);fill-opacity:1.0;fill-rule:evenodd;stroke:rgb(0, 0, 0);stroke-width:3.0;" d="M 751.293, 158.381 L 745.608, 170.982 L 735.833, 166.575 L 735.755, 166.457 L 733.036, 160.036 L 739.861, 157.023 z "/>
<path style="fill:rgb(161, 255, 27);fill-opacity:1.0;fill-rule:evenodd;stroke:rgb(0, 0, 0);stroke-width:3.0;" d="M 45.9564, 119.151 L 50.7649, 129.468 L 38.671, 125.482 L 35.6851, 116.098 L 36.5552, 115.614 z "/>
<path style="fill:rgb(197, 15, 64);fill-opacity:1.0;fill-rule:evenodd;stroke:rgb(0, 0, 0);stroke-width:3.0;" d="M 185.091, 203.177 L 129.204, 265.225 L 188.212, 187.925 z "/>
<path style="fill:rgb(43, 252, 255);fill-opacity:1.0;fill-rule:evenodd;stroke:rgb(0, 0, 0);stroke-width:3.0;" d="M 156.717, 506.403 L 155.353, 507.222 L 138.934, 515.201 L 146.658, 496.075 z "/>
<path style="fill:rgb(19, 71, 226);fill-opacity:1.0;fill-rule:evenodd;stroke:rgb(0, 0, 0);stroke-width:3.0;" d="M 693.581, 42.5902 L 723.311, 108.217 L 688.58, 170.318 L 672.408, 159.536 L 639.158, 85.4111 L 677.661, 33.3831 z "/>
<path style="fill:rgb(212, 13, 240);fill-opacity:1.0;fill-rule:evenodd;stroke:rgb(0, 0, 0);stroke-width:3.0;" d="M 528.783, 286.448 L 495.836, 374.286 L 436.451, 338.533 L 485.847, 203.327 z "/>
<path style="fill:rgb(246, 255, 91);fill-opacity:1.0;fill-rule:evenodd;stroke:rgb(0, 0, 0);stroke-width:3.0;" d="M 589.288, 488.838 L 609.436, 497.578 L 609.03, 499.997 L 600.765, 507.952 L 579.599, 511.993 L 551.566, 484.687 z "/>
<path style="fill:rgb(252, 168, 48);fill-opacity:1.0;fill-rule:evenodd;stroke:rgb(0, 0, 0);stroke-width:3.0;" d="M 457.061, 207.217 L 428.596, 215.342 L 431.167, 211.264 L 441.732, 197.155 z "/>
<path style="fill:rgb(220, 10, 108);fill-opacity:1.0;fill-rule:evenodd;stroke:rgb(0, 0, 0);stroke-width:3.0;" d="M 562.394, 101.588 L 545.458, 100.208 L 529.034, 77.0982 z "/>
<path style="fill:rgb(249, 192, 215);fill-opacity:1.0;fill-rule:evenodd;stroke:rgb(0, 0, 0);stroke-width:3.0;" d="M 118.181, 378.818 L 112.811, 380.319 L 58.1005, 352.773 L 71.5113, 349.528 z "/>
<path style="fill:rgb(12, 4, 255);fill-opacity:1.0;fill-rule:evenodd;stroke:rgb(0, 0, 0);stroke-width:3.0;" d="M 36.7026, 315.295 L 34.0271, 337.045 L 32.2491, 336.228 L 19.134, 311.397 z "/>
</svg>