<?xml version="1.0" encoding="iso-8859-1" standalone="no"?>
<!DOCTYPE svg PUBLIC "-//W3C//DTD SVG 1.0//EN" "http://www.w3.org/TR/2001/REC-SVG-20010904/DTD/svg10.dtd">
<svg xmlns="http://www.w3.org/2000/svg" width="800" height="600">
<path style="fill:rgb(0, 0, 0);fill-opacity:0.0;fill-rule:evenodd;stroke:rgb(0, 0, 0);stroke-width:0.0;" d="M 0, 600 L 800, 600 L 800, 0 L 0, 0 z "/>
<path style="fill:rgb(75, 3, 255);fill-opacity:1.0;fill-rule:evenodd;stroke:rgb(0, 0, 0);stroke-width:3.0;" d="M 97.2728, 361.141 L 91.7742, 356.901 L 90.7475, 354.429 L 91.3875, 337.591 L 97.0666, 337.177 z "/>
<path style="fill:rgb(255, 95, 124);fill-opacity:1.0;fill-rule:evenodd;stroke:rgb(0, 0, 0);stroke-width:3.0;" d="M 142.86, 435.279 L 48.0242, 547.895 L 33.8795, 540.782 L 105.116, 433.294 z "/>
<path style="fill:rgb(255, 95, 124);fill-opacity:1.0;fill-rule:evenodd;stroke:rgb(0, 0, 0);stroke-width:3.0;" d="M 451.8, 239.133 L 361.511, 355.247 L 351.364, 359.504 L 90.4989, 379.041 L 102.781, 351.605 L 432.289, 210.834 z "/>
<path style="fill:rgb(255, 95, 124);fill-opacity:1.0;fill-rule:evenodd;stroke:rgb(0, 0, 0);stroke-width:3.0;" d="M 173.114, 434.286 L 167.639, 436.582 L 67.1075, 431.295 L 90.4989, 379.041 L 234.376, 368.265 z "/>
<path style="fill:rgb(255, 95, 124);fill-opacity:1.0;fill-rule:evenodd;stroke:rgb(0, 0, 0);stroke-width:3.0;" d="M 340.168, 485.183 L 343.317, 523.098 L 324.637, 489.693 L 323.753, 461.069 z "/>
<path style="fill:rgb(255, 95, 124);fill-opacity:1.0;fill-rule:evenodd;stroke:rgb(0, 0, 0);stroke-width:3.0;" d="M 602.423, 70.8937 L 581.576, 96.9125 L 596.749, 63.3795 L 605.987, 61.0659 z "/>
<path style="fill:rgb(255, 95, 124);fill-opacity:1.0;fill-rule:evenodd;stroke:rgb(0, 0, 0);stroke-width:3.0;" d="M 645.374, 76.8922 L 652.703, 92.4251 L 615.563, 110.409 L 632.551, 74.6931 z "/>
<path style="fill:rgb(255, 10, 34);fill-opacity:1.0;fill-rule:evenodd;stroke:rgb(0, 0, 0);stroke-width:3.0;" d="M 362.107, 109.038 L 343.243, 115.041 L 334.117, 68.4393 z "/>
<path style="fill:rgb(255, 255, 9);fill-opacity:1.0;fill-rule:evenodd;stroke:rgb(0, 0, 0);stroke-width:3.0;" d="M 582.241, 126.544 L 564.22, 135.27 L 581.576, 96.9125 L 602.423, 70.8937 z "/>
<path style="fill:rgb(255, 255, 9);fill-opacity:1.0;fill-rule:evenodd;stroke:rgb(0, 0, 0);stroke-width:3.0;" d="M 663.467, 51.7883 L 662.809, 55.9141 L 655.551, 53.341 L 645.888, 45.0147 L 657.101, 43.1987 z "/>
<path style="fill:rgb(27, 33, 194);fill-opacity:1.0;fill-rule:evenodd;stroke:rgb(0, 0, 0);stroke-width:3.0;" d="M 293.133, 443.182 L 167.639, 436.582 L 361.511, 355.247 z "/>
<path style="fill:rgb(252, 179, 6);fill-opacity:1.0;fill-rule:evenodd;stroke:rgb(0, 0, 0);stroke-width:3.0;" d="M 408.151, 59.4434 L 408.147, 59.6543 L 392.775, 76.7683 L 382.483, 80.4733 L 399.8, 53.9339 z "/>
<path style="fill:rgb(252, 179, 6);fill-opacity:1.0;fill-rule:evenodd;stroke:rgb(0, 0, 0);stroke-width:3.0;" d="M 348.015, 246.838 L 268.687, 280.727 L 118.11, 317.361 L 145.348, 256.514 L 262.898, 193.81 z "/>
<path style="fill:rgb(255, 207, 60);fill-opacity:1.0;fill-rule:evenodd;stroke:rgb(0, 0, 0);stroke-width:3.0;" d="M 332.006, 40.8056 L 331.782, 44.4696 L 322.294, 51.2911 L 312.788, 37.5029 L 319.146, 35.535 z "/>
<path style="fill:rgb(255, 207, 60);fill-opacity:1.0;fill-rule:evenodd;stroke:rgb(0, 0, 0);stroke-width:3.0;" d="M 249.504, 122.611 L 227.726, 151.806 L 206.445, 158.578 L 248.284, 119.843 z "/>
<path style="fill:rgb(246, 24, 10);fill-opacity:1.0;fill-rule:evenodd;stroke:rgb(0, 0, 0);stroke-width:3.0;" d="M 44.3093, 376.685 L 43.0553, 378.39 L 34.3409, 368.467 L 37.255, 360.19 L 42.6698, 358.5 z "/>
<path style="fill:rgb(246, 24, 10);fill-opacity:1.0;fill-rule:evenodd;stroke:rgb(0, 0, 0);stroke-width:3.0;" d="M 78.8857, 431.915 L 62.6476, 442.974 L 55.9543, 447.267 L 37.7747, 429.753 z "/>
<path style="fill:rgb(246, 24, 10);fill-opacity:1.0;fill-rule:evenodd;stroke:rgb(0, 0, 0);stroke-width:3.0;" d="M 261.867, 441.538 L 299.475, 550.103 L 210.19, 537.976 L 237.76, 440.27 z "/>
<path style="fill:rgb(44, 27, 255);fill-opacity:1.0;fill-rule:evenodd;stroke:rgb(0, 0, 0);stroke-width:3.0;" d="M 549.75, 87.5117 L 549.792, 96.1416 L 543.032, 100.566 L 530.966, 92.4919 L 540.364, 78.5899 z "/>
<path style="fill:rgb(44, 27, 255);fill-opacity:1.0;fill-rule:evenodd;stroke:rgb(0, 0, 0);stroke-width:3.0;" d="M 289.803, 112.652 L 273.565, 134.871 L 257.151, 112.36 L 267.433, 98.5767 z "/>
<path style="fill:rgb(95, 114, 255);fill-opacity:1.0;fill-rule:evenodd;stroke:rgb(0, 0, 0);stroke-width:3.0;" d="M 268.276, 166.877 L 233.7, 149.904 L 300.797, 128.55 z "/>
<path style="fill:rgb(95, 114, 255);fill-opacity:1.0;fill-rule:evenodd;stroke:rgb(0, 0, 0);stroke-width:3.0;" d="M 340.046, 445.649 L 347.775, 498.034 L 341.254, 498.249 L 336.871, 445.482 z "/>
<path style="fill:rgb(192, 37, 144);fill-opacity:1.0;fill-rule:evenodd;stroke:rgb(0, 0, 0);stroke-width:3.0;" d="M 504.731, 123.887 L 496.093, 129.69 L 490.616, 124.342 L 487.957, 81.9963 z "/>
<path style="fill:rgb(192, 37, 144);fill-opacity:1.0;fill-rule:evenodd;stroke:rgb(0, 0, 0);stroke-width:3.0;" d="M 449.523, 221.339 L 452.922, 225.309 L 457.551, 231.737 L 452.805, 237.841 L 444.703, 226.56 L 446.482, 218.839 z "/>
<path style="fill:rgb(192, 37, 144);fill-opacity:1.0;fill-rule:evenodd;stroke:rgb(0, 0, 0);stroke-width:3.0;" d="M 85.1006, 348.982 L 80.957, 360.508 L 76.8604, 363.508 L 73.4859, 357.606 L 81.7528, 341.307 z "/>
<path style="fill:rgb(249, 255, 17);fill-opacity:1.0;fill-rule:evenodd;stroke:rgb(0, 0, 0);stroke-width:3.0;" d="M 541.724, 314.26 L 531.24, 415.683 L 334.405, 390.107 L 428.979, 268.482 z "/>
<path style="fill:rgb(246, 255, 17);fill-opacity:1.0;fill-rule:evenodd;stroke:rgb(0, 0, 0);stroke-width:3.0;" d="M 432.289, 210.834 L 348.015, 246.838 L 277.456, 202.88 L 298.297, 174.927 L 378.162, 132.325 z "/>
<path style="fill:rgb(134, 255, 255);fill-opacity:1.0;fill-rule:evenodd;stroke:rgb(0, 0, 0);stroke-width:3.0;" d="M 357.227, 143.492 L 279.114, 185.16 L 256.259, 181.039 L 300.797, 128.55 L 355.644, 111.095 z "/>
<path style="fill:rgb(255, 6, 255);fill-opacity:1.0;fill-rule:evenodd;stroke:rgb(0, 0, 0);stroke-width:3.0;" d="M 429.012, 450.328 L 391.824, 491.234 L 381.411, 496.922 L 372.207, 497.226 L 345.747, 484.291 L 340.046, 445.649 z "/>
<path style="fill:rgb(246, 150, 24);fill-opacity:1.0;fill-rule:evenodd;stroke:rgb(0, 0, 0);stroke-width:3.0;" d="M 541.724, 314.26 L 478.393, 288.546 L 544.787, 284.627 z "/>
<path style="fill:rgb(246, 150, 24);fill-opacity:1.0;fill-rule:evenodd;stroke:rgb(0, 0, 0);stroke-width:3.0;" d="M 472.606, 32.9229 L 462.687, 39.0604 L 460.475, 39.1398 L 453.757, 17.4027 L 464.348, 11.7777 z "/>
<path style="fill:rgb(246, 150, 24);fill-opacity:1.0;fill-rule:evenodd;stroke:rgb(0, 0, 0);stroke-width:3.0;" d="M 406.19, 41.9125 L 381.765, 49.9327 L 378.195, 33.4206 L 387.611, 23.7727 z "/>
<path style="fill:rgb(255, 0, 119);fill-opacity:1.0;fill-rule:evenodd;stroke:rgb(0, 0, 0);stroke-width:3.0;" d="M 317.443, 105.09 L 298.895, 129.156 L 271.331, 137.928 L 316.295, 76.4026 z "/>
<path style="fill:rgb(67, 95, 255);fill-opacity:1.0;fill-rule:evenodd;stroke:rgb(0, 0, 0);stroke-width:3.0;" d="M 56.7867, 304.715 L 51.7979, 318.885 L 16.8417, 351.015 L 17.9705, 344.1 L 50.8019, 301.539 L 53.3098, 301.171 z "/>
<path style="fill:rgb(67, 95, 255);fill-opacity:1.0;fill-rule:evenodd;stroke:rgb(0, 0, 0);stroke-width:3.0;" d="M 293.99, 180.705 L 274.54, 196.019 L 273.706, 188.045 L 298.297, 174.927 z "/>
<path style="fill:rgb(67, 95, 255);fill-opacity:1.0;fill-rule:evenodd;stroke:rgb(0, 0, 0);stroke-width:3.0;" d="M 325.712, 56.248 L 287.977, 71.0373 L 293.138, 64.1188 L 316.995, 43.605 z "/>
<path style="fill:rgb(226, 100, 17);fill-opacity:1.0;fill-rule:evenodd;stroke:rgb(0, 0, 0);stroke-width:3.0;" d="M 376.231, 129.523 L 362.099, 136.304 L 365.92, 114.568 z "/>
<path style="fill:rgb(226, 100, 17);fill-opacity:1.0;fill-rule:evenodd;stroke:rgb(0, 0, 0);stroke-width:3.0;" d="M 257.856, 196.5 L 224.338, 214.379 L 223.214, 210.716 L 242.7, 191.724 z "/>
<path style="fill:rgb(226, 100, 17);fill-opacity:1.0;fill-rule:evenodd;stroke:rgb(0, 0, 0);stroke-width:3.0;" d="M 118.029, 289.973 L 97.2957, 363.8 L 96.7173, 296.583 L 117.494, 281.181 z "/>
<path style="fill:rgb(226, 100, 17);fill-opacity:1.0;fill-rule:evenodd;stroke:rgb(0, 0, 0);stroke-width:3.0;" d="M 30.4619, 566.489 L 32.4441, 570.436 L 29.2669, 573.213 L 20.8103, 572.347 L 7.72081, 567.972 L 8.01017, 565.61 z "/>
<path style="fill:rgb(255, 3, 62);fill-opacity:1.0;fill-rule:evenodd;stroke:rgb(0, 0, 0);stroke-width:3.0;" d="M 728.308, 55.8164 L 708.218, 65.5443 L 661.33, 65.1834 L 662.484, 57.9522 L 707.975, 44.9361 z "/>
<path style="fill:rgb(255, 3, 62);fill-opacity:1.0;fill-rule:evenodd;stroke:rgb(0, 0, 0);stroke-width:3.0;" d="M 84.9727, 566.478 L 68.7623, 558.325 L 95.5847, 537.413 z "/>
<path style="fill:rgb(255, 3, 62);fill-opacity:1.0;fill-rule:evenodd;stroke:rgb(0, 0, 0);stroke-width:3.0;" d="M 375.003, 91.9364 L 362.999, 110.332 L 357.515, 102.378 L 367.591, 64.6017 z "/>
<path style="fill:rgb(45, 51, 223);fill-opacity:1.0;fill-rule:evenodd;stroke:rgb(0, 0, 0);stroke-width:3.0;" d="M 407.078, 42.7798 L 375.003, 91.9364 L 367.591, 64.6017 L 370.519, 53.6255 L 406.19, 41.9125 z "/>
<path style="fill:rgb(255, 92, 67);fill-opacity:1.0;fill-rule:evenodd;stroke:rgb(0, 0, 0);stroke-width:3.0;" d="M 211.643, 172.993 L 224.338, 214.379 L 160.431, 248.469 L 152.6, 240.312 L 174.184, 192.097 L 193.295, 169.685 z "/>
<path style="fill:rgb(249, 255, 44);fill-opacity:1.0;fill-rule:evenodd;stroke:rgb(0, 0, 0);stroke-width:3.0;" d="M 278.032, 442.388 L 318.311, 496.103 L 313.509, 500.292 L 262.368, 441.564 z "/>
<path style="fill:rgb(249, 255, 44);fill-opacity:1.0;fill-rule:evenodd;stroke:rgb(0, 0, 0);stroke-width:3.0;" d="M 662.896, 33.5042 L 655.727, 41.045 L 651.802, 36.0485 L 649.974, 33.5814 L 656.123, 22.2186 z "/>
<path style="fill:rgb(249, 255, 44);fill-opacity:1.0;fill-rule:evenodd;stroke:rgb(0, 0, 0);stroke-width:3.0;" d="M 378.133, 395.789 L 351.604, 446.257 L 293.133, 443.182 L 334.405, 390.107 z "/>
<path style="fill:rgb(16, 252, 237);fill-opacity:1.0;fill-rule:evenodd;stroke:rgb(0, 0, 0);stroke-width:3.0;" d="M 575.146, 111.122 L 564.22, 135.27 L 541.191, 146.421 L 563.483, 107.968 L 569.29, 104.6 z "/>
<path style="fill:rgb(16, 252, 237);fill-opacity:1.0;fill-rule:evenodd;stroke:rgb(0, 0, 0);stroke-width:3.0;" d="M 329.415, 107.336 L 308.198, 117.084 L 325.015, 95.2649 z "/>
<path style="fill:rgb(16, 252, 237);fill-opacity:1.0;fill-rule:evenodd;stroke:rgb(0, 0, 0);stroke-width:3.0;" d="M 677.546, 65.3082 L 679.744, 79.3318 L 666.817, 85.5912 L 662.334, 65.1911 z "/>
<path style="fill:rgb(255, 64, 58);fill-opacity:1.0;fill-rule:evenodd;stroke:rgb(0, 0, 0);stroke-width:3.0;" d="M 692.743, 65.4252 L 692.241, 73.2803 L 679.744, 79.3318 L 677.546, 65.3082 z "/>
<path style="fill:rgb(112, 231, 255);fill-opacity:1.0;fill-rule:evenodd;stroke:rgb(0, 0, 0);stroke-width:3.0;" d="M 94.6368, 432.743 L 89.6108, 451.914 L 78.4273, 448.899 L 91.6591, 432.587 z "/>
<path style="fill:rgb(112, 231, 255);fill-opacity:1.0;fill-rule:evenodd;stroke:rgb(0, 0, 0);stroke-width:3.0;" d="M 643.339, 43.2454 L 633.967, 43.8458 L 628.474, 34.6597 L 632.68, 10.8988 z "/>
<path style="fill:rgb(112, 231, 255);fill-opacity:1.0;fill-rule:evenodd;stroke:rgb(0, 0, 0);stroke-width:3.0;" d="M 406.171, 152.793 L 405.757, 172.349 L 362.999, 110.332 L 363.982, 108.825 L 364.985, 107.709 z "/>
<path style="fill:rgb(237, 21, 62);fill-opacity:1.0;fill-rule:evenodd;stroke:rgb(0, 0, 0);stroke-width:3.0;" d="M 375.325, 509.381 L 371.641, 513.434 L 359.551, 516.602 L 356.266, 510.657 L 370.609, 502.822 z "/>
<path style="fill:rgb(237, 21, 62);fill-opacity:1.0;fill-rule:evenodd;stroke:rgb(0, 0, 0);stroke-width:3.0;" d="M 305.886, 27.4917 L 309.756, 33.1043 L 265.542, 84.9562 L 248.197, 73.046 L 251.292, 19.8447 L 254.902, 11.7801 z "/>
<path style="fill:rgb(252, 255, 16);fill-opacity:1.0;fill-rule:evenodd;stroke:rgb(0, 0, 0);stroke-width:3.0;" d="M 521.899, 131.429 L 520.136, 151.252 L 519.291, 152.339 L 519.21, 152.26 L 499.007, 100.526 z "/>
<path style="fill:rgb(252, 255, 16);fill-opacity:1.0;fill-rule:evenodd;stroke:rgb(0, 0, 0);stroke-width:3.0;" d="M 173.114, 434.286 L 234.376, 368.265 L 351.364, 359.504 z "/>
<path style="fill:rgb(252, 255, 16);fill-opacity:1.0;fill-rule:evenodd;stroke:rgb(0, 0, 0);stroke-width:3.0;" d="M 242.7, 191.724 L 223.214, 210.716 L 214.68, 182.894 z "/>
<path style="fill:rgb(252, 255, 16);fill-opacity:1.0;fill-rule:evenodd;stroke:rgb(0, 0, 0);stroke-width:3.0;" d="M 495.433, 411.031 L 495.96, 428.676 L 461.202, 406.583 z "/>
<path style="fill:rgb(252, 255, 16);fill-opacity:1.0;fill-rule:evenodd;stroke:rgb(0, 0, 0);stroke-width:3.0;" d="M 604.208, 41.9091 L 587.505, 28.9867 L 585.429, 14.5993 L 590.021, 7.25652 z "/>
<path style="fill:rgb(252, 255, 16);fill-opacity:1.0;fill-rule:evenodd;stroke:rgb(0, 0, 0);stroke-width:3.0;" d="M 462.917, 47.0403 L 452.981, 47.8216 L 442.227, 23.5266 L 453.757, 17.4027 z "/>
<path style="fill:rgb(252, 255, 16);fill-opacity:1.0;fill-rule:evenodd;stroke:rgb(0, 0, 0);stroke-width:3.0;" d="M 51.9586, 351.931 L 41.561, 347.96 L 48.4036, 328.525 z "/>
<path style="fill:rgb(255, 234, 14);fill-opacity:1.0;fill-rule:evenodd;stroke:rgb(0, 0, 0);stroke-width:3.0;" d="M 519.291, 152.339 L 459.353, 229.421 L 426.459, 202.377 L 405.757, 172.349 L 407.07, 110.406 L 464.093, 98.4463 z "/>
<path style="fill:rgb(243, 38, 33);fill-opacity:1.0;fill-rule:evenodd;stroke:rgb(0, 0, 0);stroke-width:3.0;" d="M 365.477, 493.936 L 354.147, 497.823 L 347.775, 498.034 L 345.747, 484.291 z "/>
<path style="fill:rgb(249, 255, 18);fill-opacity:1.0;fill-rule:evenodd;stroke:rgb(0, 0, 0);stroke-width:3.0;" d="M 333.123, 84.7451 L 317.443, 105.09 L 316.295, 76.4026 L 327.219, 61.4545 z "/>
<path style="fill:rgb(249, 255, 18);fill-opacity:1.0;fill-rule:evenodd;stroke:rgb(0, 0, 0);stroke-width:3.0;" d="M 24.2922, 397.008 L 11.6974, 401.372 L 40.1133, 329.625 L 51.7979, 318.885 z "/>
<path style="fill:rgb(249, 255, 18);fill-opacity:1.0;fill-rule:evenodd;stroke:rgb(0, 0, 0);stroke-width:3.0;" d="M 95.5847, 537.413 L 68.7623, 558.325 L 62.3988, 555.125 L 103.582, 515.509 z "/>
<path style="fill:rgb(249, 255, 18);fill-opacity:1.0;fill-rule:evenodd;stroke:rgb(0, 0, 0);stroke-width:3.0;" d="M 59.7492, 365.995 L 59.9393, 370.648 L 38.9105, 416.837 L 34.3199, 424.422 L 17.6528, 415.865 L 19.6363, 410.232 L 54.1561, 363.297 z "/>
<path style="fill:rgb(240, 97, 88);fill-opacity:1.0;fill-rule:evenodd;stroke:rgb(0, 0, 0);stroke-width:3.0;" d="M 339.633, 28.9577 L 332.122, 33.9887 L 332.744, 16.9507 L 338.331, 15.2928 z "/>
<path style="fill:rgb(255, 187, 8);fill-opacity:1.0;fill-rule:evenodd;stroke:rgb(0, 0, 0);stroke-width:3.0;" d="M 47.837, 586.862 L 48.198, 588.538 L 44.9785, 591.724 L 42.096, 589.66 L 31.8994, 569.352 L 34.5101, 567.425 z "/>
<path style="fill:rgb(255, 67, 58);fill-opacity:1.0;fill-rule:evenodd;stroke:rgb(0, 0, 0);stroke-width:3.0;" d="M 312.109, 551.819 L 299.475, 550.103 L 296.015, 540.117 L 302.915, 529.771 z "/>
<path style="fill:rgb(255, 204, 29);fill-opacity:1.0;fill-rule:evenodd;stroke:rgb(0, 0, 0);stroke-width:3.0;" d="M 27.3287, 550.835 L 43.6039, 565.353 L 30.8914, 563.919 L 20.6564, 557.351 L 21.5098, 549.851 z "/>
<path style="fill:rgb(172, 217, 255);fill-opacity:1.0;fill-rule:evenodd;stroke:rgb(0, 0, 0);stroke-width:3.0;" d="M 373.875, 41.0437 L 370.326, 54.3501 L 351.958, 30.6014 L 369.346, 27.5615 z "/>
<path style="fill:rgb(172, 217, 255);fill-opacity:1.0;fill-rule:evenodd;stroke:rgb(0, 0, 0);stroke-width:3.0;" d="M 330.092, 554.261 L 312.109, 551.819 L 302.915, 529.771 L 308.139, 521.938 z "/>
<path style="fill:rgb(157, 0, 246);fill-opacity:1.0;fill-rule:evenodd;stroke:rgb(0, 0, 0);stroke-width:3.0;" d="M 26.212, 330.299 L 6.96725, 307.971 L 24.3363, 305.423 z "/>
<path style="fill:rgb(157, 0, 246);fill-opacity:1.0;fill-rule:evenodd;stroke:rgb(0, 0, 0);stroke-width:3.0;" d="M 214.793, 129.896 L 212.676, 127.253 L 209.963, 112.169 L 235.466, 55.1982 z "/>
<path style="fill:rgb(157, 0, 246);fill-opacity:1.0;fill-rule:evenodd;stroke:rgb(0, 0, 0);stroke-width:3.0;" d="M 521.847, 99.8218 L 524.347, 103.905 L 521.899, 131.429 L 499.007, 100.526 L 495.558, 91.6941 z "/>
<path style="fill:rgb(157, 0, 246);fill-opacity:1.0;fill-rule:evenodd;stroke:rgb(0, 0, 0);stroke-width:3.0;" d="M 743.534, 48.4437 L 728.308, 55.8164 L 707.975, 44.9361 L 741.911, 35.2266 z "/>
<path style="fill:rgb(255, 207, 124);fill-opacity:1.0;fill-rule:evenodd;stroke:rgb(0, 0, 0);stroke-width:3.0;" d="M 544.787, 284.627 L 478.393, 288.546 L 439.436, 272.728 L 483.314, 198.606 L 513.447, 159.855 L 560.015, 137.306 z "/>
<path style="fill:rgb(255, 207, 124);fill-opacity:1.0;fill-rule:evenodd;stroke:rgb(0, 0, 0);stroke-width:3.0;" d="M 262.368, 441.564 L 290.637, 474.027 L 274.756, 478.747 L 261.867, 441.538 z "/>
<path style="fill:rgb(255, 0, 150);fill-opacity:1.0;fill-rule:evenodd;stroke:rgb(0, 0, 0);stroke-width:3.0;" d="M 622.069, 85.1405 L 605.847, 115.113 L 582.241, 126.544 L 605.987, 61.0659 L 607.082, 60.7917 z "/>
<path style="fill:rgb(246, 255, 78);fill-opacity:1.0;fill-rule:evenodd;stroke:rgb(0, 0, 0);stroke-width:3.0;" d="M 357.515, 102.378 L 352.624, 95.2829 L 352.216, 57.7895 L 370.241, 54.6684 z "/>
<path style="fill:rgb(246, 255, 78);fill-opacity:1.0;fill-rule:evenodd;stroke:rgb(0, 0, 0);stroke-width:3.0;" d="M 250.559, 32.4477 L 247.615, 83.0526 L 232.434, 66.1522 L 235.466, 55.1982 L 245.728, 32.2748 z "/>
<path style="fill:rgb(255, 246, 192);fill-opacity:1.0;fill-rule:evenodd;stroke:rgb(0, 0, 0);stroke-width:3.0;" d="M 203.58, 157.622 L 186.254, 177.941 L 186.637, 164.277 L 191.112, 154.282 L 196.779, 150.014 z "/>
<path style="fill:rgb(255, 246, 192);fill-opacity:1.0;fill-rule:evenodd;stroke:rgb(0, 0, 0);stroke-width:3.0;" d="M 240.05, 74.631 L 247.615, 83.0526 L 246.184, 107.658 L 208.82, 151.477 L 232.102, 67.3523 z "/>
<path style="fill:rgb(100, 5, 217);fill-opacity:1.0;fill-rule:evenodd;stroke:rgb(0, 0, 0);stroke-width:3.0;" d="M 450.346, 254.298 L 439.436, 272.728 L 428.979, 268.482 L 443.624, 249.648 z "/>
<path style="fill:rgb(255, 228, 23);fill-opacity:1.0;fill-rule:evenodd;stroke:rgb(0, 0, 0);stroke-width:3.0;" d="M 450.846, 253.454 L 450.346, 254.298 L 443.624, 249.648 L 470.111, 215.585 z "/>
<path style="fill:rgb(237, 255, 18);fill-opacity:1.0;fill-rule:evenodd;stroke:rgb(0, 0, 0);stroke-width:3.0;" d="M 62.1116, 423.795 L 62.408, 431.048 L 45.4945, 430.159 L 34.3199, 424.422 L 46.4356, 404.403 z "/>
<path style="fill:rgb(161, 255, 22);fill-opacity:1.0;fill-rule:evenodd;stroke:rgb(0, 0, 0);stroke-width:3.0;" d="M 310.308, 518.685 L 308.682, 521.123 L 292.73, 527.706 L 289.23, 520.53 L 288.524, 518.491 L 307.235, 517.09 z "/>
<path style="fill:rgb(161, 255, 22);fill-opacity:1.0;fill-rule:evenodd;stroke:rgb(0, 0, 0);stroke-width:3.0;" d="M 143.057, 313.993 L 144.749, 310.88 L 213.45, 294.166 L 231.533, 294.097 z "/>
<path style="fill:rgb(161, 255, 22);fill-opacity:1.0;fill-rule:evenodd;stroke:rgb(0, 0, 0);stroke-width:3.0;" d="M 62.1116, 423.795 L 46.4356, 404.403 L 60.3774, 381.367 z "/>
<path style="fill:rgb(255, 0, 9);fill-opacity:1.0;fill-rule:evenodd;stroke:rgb(0, 0, 0);stroke-width:3.0;" d="M 555.814, 86.1369 L 552.134, 110.101 L 549.874, 113.008 L 549.723, 81.9378 z "/>
<path style="fill:rgb(255, 0, 9);fill-opacity:1.0;fill-rule:evenodd;stroke:rgb(0, 0, 0);stroke-width:3.0;" d="M 380.598, 112.814 L 406.504, 137.102 L 406.171, 152.793 L 364.985, 107.709 L 366.555, 105.961 z "/>
<path style="fill:rgb(202, 72, 9);fill-opacity:1.0;fill-rule:evenodd;stroke:rgb(0, 0, 0);stroke-width:3.0;" d="M 527.804, 448.917 L 527.125, 455.488 L 462.767, 452.103 L 457.652, 426.103 L 473.858, 414.627 z "/>
<path style="fill:rgb(202, 72, 9);fill-opacity:1.0;fill-rule:evenodd;stroke:rgb(0, 0, 0);stroke-width:3.0;" d="M 442.129, 77.0013 L 445.68, 80.4688 L 446.384, 102.161 L 424.156, 106.822 L 426.825, 75.6458 z "/>
<path style="fill:rgb(202, 72, 9);fill-opacity:1.0;fill-rule:evenodd;stroke:rgb(0, 0, 0);stroke-width:3.0;" d="M 91.6591, 432.587 L 70.3081, 458.909 L 28.1041, 466.499 L 78.8857, 431.915 z "/>
<path style="fill:rgb(255, 255, 25);fill-opacity:1.0;fill-rule:evenodd;stroke:rgb(0, 0, 0);stroke-width:3.0;" d="M 487.227, 70.3626 L 490.616, 124.342 L 418.554, 53.9838 L 420.684, 50.3611 L 477.666, 45.8806 z "/>
<path style="fill:rgb(252, 246, 7);fill-opacity:1.0;fill-rule:evenodd;stroke:rgb(0, 0, 0);stroke-width:3.0;" d="M 462.767, 452.103 L 423.828, 450.055 L 457.652, 426.103 z "/>
<path style="fill:rgb(187, 42, 207);fill-opacity:1.0;fill-rule:evenodd;stroke:rgb(0, 0, 0);stroke-width:3.0;" d="M 159.662, 327.305 L 148.515, 312.766 L 243.904, 291.315 z "/>
<path style="fill:rgb(98, 209, 220);fill-opacity:1.0;fill-rule:evenodd;stroke:rgb(0, 0, 0);stroke-width:3.0;" d="M 582.134, 35.5244 L 581.283, 38.6607 L 575.329, 38.1223 L 563.777, 34.2789 L 563.982, 32.9475 L 571.79, 23.6543 z "/>
<path style="fill:rgb(255, 223, 15);fill-opacity:1.0;fill-rule:evenodd;stroke:rgb(0, 0, 0);stroke-width:3.0;" d="M 322.758, 444.74 L 323.05, 450.284 L 315.227, 472.866 L 298.793, 443.48 z "/>
<path style="fill:rgb(255, 223, 15);fill-opacity:1.0;fill-rule:evenodd;stroke:rgb(0, 0, 0);stroke-width:3.0;" d="M 423.828, 450.055 L 351.604, 446.257 L 356.078, 437.745 L 456.525, 426.902 z "/>
<path style="fill:rgb(144, 0, 16);fill-opacity:1.0;fill-rule:evenodd;stroke:rgb(0, 0, 0);stroke-width:3.0;" d="M 461.202, 406.583 L 473.858, 414.627 L 456.525, 426.902 L 356.078, 437.745 L 378.133, 395.789 z "/>
<path style="fill:rgb(255, 209, 30);fill-opacity:1.0;fill-rule:evenodd;stroke:rgb(0, 0, 0);stroke-width:3.0;" d="M 558.949, 101.338 L 552.339, 109.838 L 560.793, 65.1843 L 566.945, 58.8288 z "/>
<path style="fill:rgb(52, 103, 246);fill-opacity:1.0;fill-rule:evenodd;stroke:rgb(0, 0, 0);stroke-width:3.0;" d="M 345.93, 36.6357 L 339.277, 75.9236 L 339.15, 75.7399 L 331.289, 34.5469 L 338.033, 30.0295 z "/>
<path style="fill:rgb(255, 92, 39);fill-opacity:1.0;fill-rule:evenodd;stroke:rgb(0, 0, 0);stroke-width:3.0;" d="M 214.793, 129.896 L 208.82, 151.477 L 204.087, 157.027 L 203.303, 157.021 L 201.623, 130.801 L 206.604, 119.672 z "/>
<path style="fill:rgb(50, 146, 231);fill-opacity:1.0;fill-rule:evenodd;stroke:rgb(0, 0, 0);stroke-width:3.0;" d="M 269.033, 128.655 L 273.565, 134.871 L 271.331, 137.928 L 227.726, 151.806 L 250.544, 121.217 z "/>
<path style="fill:rgb(117, 255, 255);fill-opacity:1.0;fill-rule:evenodd;stroke:rgb(0, 0, 0);stroke-width:3.0;" d="M 89.0143, 343.305 L 88.9162, 362.135 L 82.4147, 364.926 L 79.3838, 364.884 L 87.5803, 342.084 z "/>
<path style="fill:rgb(117, 255, 255);fill-opacity:1.0;fill-rule:evenodd;stroke:rgb(0, 0, 0);stroke-width:3.0;" d="M 410.812, 74.2275 L 417.367, 108.246 L 407.07, 110.406 L 407.843, 73.9645 z "/>
<path style="fill:rgb(255, 212, 27);fill-opacity:1.0;fill-rule:evenodd;stroke:rgb(0, 0, 0);stroke-width:3.0;" d="M 426.825, 75.6458 L 424.156, 106.822 L 417.367, 108.246 L 410.812, 74.2275 z "/>
<path style="fill:rgb(119, 2, 24);fill-opacity:1.0;fill-rule:evenodd;stroke:rgb(0, 0, 0);stroke-width:3.0;" d="M 244.234, 178.87 L 250.792, 186.557 L 227.732, 187.007 L 214.68, 182.894 L 211.643, 172.993 z "/>
<path style="fill:rgb(119, 2, 24);fill-opacity:1.0;fill-rule:evenodd;stroke:rgb(0, 0, 0);stroke-width:3.0;" d="M 268.276, 166.877 L 256.259, 181.039 L 193.295, 169.685 L 201.394, 160.186 L 233.7, 149.904 z "/>
<path style="fill:rgb(119, 2, 24);fill-opacity:1.0;fill-rule:evenodd;stroke:rgb(0, 0, 0);stroke-width:3.0;" d="M 30.4695, 293.036 L 35.7469, 299.738 L 27.687, 304.931 L 19.2845, 306.164 L 17.2102, 297.81 L 22.1529, 294.997 L 28.2328, 292.984 z "/>
<path style="fill:rgb(52, 255, 255);fill-opacity:1.0;fill-rule:evenodd;stroke:rgb(0, 0, 0);stroke-width:3.0;" d="M 334.513, 554.274 L 334.037, 554.797 L 330.092, 554.261 L 308.139, 521.938 L 314.392, 512.563 z "/>
<path style="fill:rgb(52, 255, 255);fill-opacity:1.0;fill-rule:evenodd;stroke:rgb(0, 0, 0);stroke-width:3.0;" d="M 541.191, 146.421 L 524.778, 154.368 L 514.985, 157.876 L 545.831, 118.208 L 563.483, 107.968 z "/>
<path style="fill:rgb(255, 2, 70);fill-opacity:1.0;fill-rule:evenodd;stroke:rgb(0, 0, 0);stroke-width:3.0;" d="M 237.76, 440.27 L 211.291, 534.076 L 189.45, 484.846 L 183.935, 438.214 L 184.699, 437.48 z "/>
<path style="fill:rgb(255, 2, 70);fill-opacity:1.0;fill-rule:evenodd;stroke:rgb(0, 0, 0);stroke-width:3.0;" d="M 464.093, 98.4463 L 446.384, 102.161 L 445.68, 80.4688 z "/>
<path style="fill:rgb(209, 41, 50);fill-opacity:1.0;fill-rule:evenodd;stroke:rgb(0, 0, 0);stroke-width:3.0;" d="M 159.662, 327.305 L 143.214, 334.331 L 134.74, 334.441 L 146.013, 313.329 L 148.515, 312.766 z "/>
<path style="fill:rgb(209, 41, 50);fill-opacity:1.0;fill-rule:evenodd;stroke:rgb(0, 0, 0);stroke-width:3.0;" d="M 581.232, 97.6718 L 571.502, 103.316 L 570.086, 87.0152 L 586.462, 65.9555 L 596.749, 63.3795 z "/>
<path style="fill:rgb(209, 41, 50);fill-opacity:1.0;fill-rule:evenodd;stroke:rgb(0, 0, 0);stroke-width:3.0;" d="M 407.121, 108.035 L 393.203, 118.965 L 385.801, 115.353 L 384.857, 85.584 L 399.419, 69.3714 L 407.952, 68.829 z "/>
<path style="fill:rgb(16, 42, 255);fill-opacity:1.0;fill-rule:evenodd;stroke:rgb(0, 0, 0);stroke-width:3.0;" d="M 519.21, 152.26 L 514.091, 147.262 L 487.957, 81.9963 L 487.227, 70.3626 z "/>
<path style="fill:rgb(255, 215, 7);fill-opacity:1.0;fill-rule:evenodd;stroke:rgb(0, 0, 0);stroke-width:3.0;" d="M 511.837, 413.162 L 527.462, 448.699 L 495.96, 428.676 L 495.433, 411.031 z "/>
<path style="fill:rgb(209, 130, 177);fill-opacity:1.0;fill-rule:evenodd;stroke:rgb(0, 0, 0);stroke-width:3.0;" d="M 27.4809, 331.771 L 23.5299, 336.893 L 18.8312, 340.557 L 14.7057, 324.909 L 19.0689, 322.011 z "/>
<path style="fill:rgb(209, 130, 177);fill-opacity:1.0;fill-rule:evenodd;stroke:rgb(0, 0, 0);stroke-width:3.0;" d="M 365.92, 114.568 L 362.099, 136.304 L 360.305, 137.165 L 356.62, 131.061 L 356.038, 119.149 L 363.212, 110.641 z "/>
<path style="fill:rgb(255, 252, 21);fill-opacity:1.0;fill-rule:evenodd;stroke:rgb(0, 0, 0);stroke-width:3.0;" d="M 328.291, 59.9884 L 303.717, 93.6136 L 279.341, 95.204 L 278.138, 94.0376 L 305.236, 64.2728 L 325.712, 56.248 z "/>
<path style="fill:rgb(94, 209, 202);fill-opacity:1.0;fill-rule:evenodd;stroke:rgb(0, 0, 0);stroke-width:3.0;" d="M 278.138, 94.0376 L 273.89, 89.921 L 287.977, 71.0373 L 305.236, 64.2728 z "/>
<path style="fill:rgb(7, 255, 255);fill-opacity:1.0;fill-rule:evenodd;stroke:rgb(0, 0, 0);stroke-width:3.0;" d="M 527.804, 448.917 L 527.462, 448.699 L 520.575, 433.036 L 530.19, 425.842 z "/>
<path style="fill:rgb(234, 243, 27);fill-opacity:1.0;fill-rule:evenodd;stroke:rgb(0, 0, 0);stroke-width:3.0;" d="M 531.24, 415.683 L 530.19, 425.842 L 520.575, 433.036 L 511.837, 413.162 z "/>
<path style="fill:rgb(212, 70, 17);fill-opacity:1.0;fill-rule:evenodd;stroke:rgb(0, 0, 0);stroke-width:3.0;" d="M 20.5268, 534.066 L 33.9874, 551.961 L 33.6956, 551.912 L 18.4728, 545.733 L 17.654, 533.315 L 18.3817, 532.987 z "/>
<path style="fill:rgb(44, 255, 179);fill-opacity:1.0;fill-rule:evenodd;stroke:rgb(0, 0, 0);stroke-width:3.0;" d="M 514.091, 147.262 L 496.093, 129.69 L 504.731, 123.887 z "/>
<path style="fill:rgb(255, 255, 37);fill-opacity:1.0;fill-rule:evenodd;stroke:rgb(0, 0, 0);stroke-width:3.0;" d="M 318.643, 506.188 L 311.59, 516.764 L 288.524, 518.491 L 284.09, 505.691 L 284.576, 504.646 L 302.027, 487.107 z "/>
<path style="fill:rgb(110, 170, 255);fill-opacity:1.0;fill-rule:evenodd;stroke:rgb(0, 0, 0);stroke-width:3.0;" d="M 104.608, 514.522 L 62.3988, 555.125 L 48.0242, 547.895 L 82.3458, 507.139 z "/>
<path style="fill:rgb(110, 170, 255);fill-opacity:1.0;fill-rule:evenodd;stroke:rgb(0, 0, 0);stroke-width:3.0;" d="M 571.502, 103.316 L 545.831, 118.208 L 570.086, 87.0152 z "/>
<path style="fill:rgb(246, 45, 255);fill-opacity:1.0;fill-rule:evenodd;stroke:rgb(0, 0, 0);stroke-width:3.0;" d="M 336.788, 511.423 L 322.916, 511.094 L 313.607, 500.404 L 327.478, 494.774 z "/>
<path style="fill:rgb(255, 52, 64);fill-opacity:1.0;fill-rule:evenodd;stroke:rgb(0, 0, 0);stroke-width:3.0;" d="M 189.45, 484.846 L 173.301, 448.444 L 183.935, 438.214 z "/>
<path style="fill:rgb(255, 19, 76);fill-opacity:1.0;fill-rule:evenodd;stroke:rgb(0, 0, 0);stroke-width:3.0;" d="M 34.1081, 323.18 L 28.6013, 304.797 L 50.8019, 301.539 z "/>
<path style="fill:rgb(255, 172, 252);fill-opacity:1.0;fill-rule:evenodd;stroke:rgb(0, 0, 0);stroke-width:3.0;" d="M 184.699, 437.48 L 104.608, 514.522 L 82.3458, 507.139 L 142.86, 435.279 z "/>
<path style="fill:rgb(255, 1, 123);fill-opacity:1.0;fill-rule:evenodd;stroke:rgb(0, 0, 0);stroke-width:3.0;" d="M 784.55, 28.5835 L 743.534, 48.4437 L 741.911, 35.2266 L 768.32, 27.6704 z "/>
<path style="fill:rgb(246, 1, 255);fill-opacity:1.0;fill-rule:evenodd;stroke:rgb(0, 0, 0);stroke-width:3.0;" d="M 452.981, 47.8216 L 420.684, 50.3611 L 433.847, 27.9773 L 442.227, 23.5266 z "/>
<path style="fill:rgb(255, 243, 91);fill-opacity:1.0;fill-rule:evenodd;stroke:rgb(0, 0, 0);stroke-width:3.0;" d="M 370.326, 54.3501 L 370.241, 54.6684 L 352.216, 57.7895 L 351.92, 30.5515 z "/>
<path style="fill:rgb(255, 243, 91);fill-opacity:1.0;fill-rule:evenodd;stroke:rgb(0, 0, 0);stroke-width:3.0;" d="M 42.8758, 378.634 L 19.6363, 410.232 L 31.5757, 376.321 z "/>
<path style="fill:rgb(255, 255, 66);fill-opacity:1.0;fill-rule:evenodd;stroke:rgb(0, 0, 0);stroke-width:3.0;" d="M 324.154, 474.04 L 318.006, 477.836 L 315.227, 472.866 L 319.879, 459.435 L 323.521, 453.565 z "/>
<path style="fill:rgb(98, 14, 255);fill-opacity:1.0;fill-rule:evenodd;stroke:rgb(0, 0, 0);stroke-width:3.0;" d="M 296.621, 480.899 L 281.344, 497.765 L 274.756, 478.747 L 290.637, 474.027 z "/>
<path style="fill:rgb(255, 215, 7);fill-opacity:1.0;fill-rule:evenodd;stroke:rgb(0, 0, 0);stroke-width:3.0;" d="M 119.506, 314.242 L 97.2962, 363.857 L 97.2957, 363.8 L 118.029, 289.973 z "/>
<path style="fill:rgb(102, 255, 252);fill-opacity:1.0;fill-rule:evenodd;stroke:rgb(0, 0, 0);stroke-width:3.0;" d="M 298.793, 443.48 L 324.972, 490.293 L 318.311, 496.103 L 285.702, 452.616 L 286.747, 442.846 z "/>
<path style="fill:rgb(252, 202, 20);fill-opacity:1.0;fill-rule:evenodd;stroke:rgb(0, 0, 0);stroke-width:3.0;" d="M 37.7747, 429.753 L 55.9543, 447.267 L 36.7558, 459.58 L 28.3486, 456.078 L 30.6641, 429.379 z "/>
<path style="fill:rgb(175, 249, 24);fill-opacity:1.0;fill-rule:evenodd;stroke:rgb(0, 0, 0);stroke-width:3.0;" d="M 336.871, 445.482 L 340.168, 485.183 L 323.753, 461.069 L 323.25, 444.766 z "/>
<path style="fill:rgb(255, 97, 75);fill-opacity:1.0;fill-rule:evenodd;stroke:rgb(0, 0, 0);stroke-width:3.0;" d="M 243.904, 291.315 L 231.533, 294.097 L 213.45, 294.166 L 268.687, 280.727 z "/>
<path style="fill:rgb(75, 154, 255);fill-opacity:1.0;fill-rule:evenodd;stroke:rgb(0, 0, 0);stroke-width:3.0;" d="M 639.279, 52.7289 L 600.862, 62.3492 L 595.55, 57.3828 L 596.435, 53.13 L 605.645, 41.286 L 626.721, 31.7278 z "/>
<path style="fill:rgb(255, 249, 10);fill-opacity:1.0;fill-rule:evenodd;stroke:rgb(0, 0, 0);stroke-width:3.0;" d="M 626.721, 31.7278 L 605.645, 41.286 L 620.79, 21.8085 z "/>
<path style="fill:rgb(255, 148, 56);fill-opacity:1.0;fill-rule:evenodd;stroke:rgb(0, 0, 0);stroke-width:3.0;" d="M 534.989, 121.292 L 534.349, 132.974 L 525.584, 144.246 L 520.814, 143.624 L 522.892, 120.258 L 531.288, 115.244 z "/>
<path style="fill:rgb(209, 9, 18);fill-opacity:1.0;fill-rule:evenodd;stroke:rgb(0, 0, 0);stroke-width:3.0;" d="M 279.114, 185.16 L 260.584, 195.044 L 259.058, 181.544 z "/>
<path style="fill:rgb(78, 197, 226);fill-opacity:1.0;fill-rule:evenodd;stroke:rgb(0, 0, 0);stroke-width:3.0;" d="M 352.194, 55.7416 L 339.979, 76.9424 L 339.277, 75.9236 L 347.546, 27.0943 L 351.852, 24.3451 z "/>
<path style="fill:rgb(255, 51, 19);fill-opacity:1.0;fill-rule:evenodd;stroke:rgb(0, 0, 0);stroke-width:3.0;" d="M 338.544, 91.0448 L 333.254, 102.637 L 325.527, 96.6672 L 325.015, 95.2649 L 336.462, 80.4134 z "/>
<path style="fill:rgb(14, 255, 255);fill-opacity:1.0;fill-rule:evenodd;stroke:rgb(0, 0, 0);stroke-width:3.0;" d="M 549.855, 109.096 L 549.874, 113.008 L 540.861, 124.599 L 539.645, 115.45 L 544.173, 105.022 z "/>
<path style="fill:rgb(252, 215, 33);fill-opacity:1.0;fill-rule:evenodd;stroke:rgb(0, 0, 0);stroke-width:3.0;" d="M 324.936, 120.868 L 303.449, 127.706 L 320.177, 112.749 L 330.868, 107.866 z "/>
<path style="fill:rgb(117, 15, 138);fill-opacity:1.0;fill-rule:evenodd;stroke:rgb(0, 0, 0);stroke-width:3.0;" d="M 58.3301, 331.276 L 59.2887, 354.73 L 51.9586, 351.931 L 49.5569, 336.118 L 54.548, 330.287 L 55.3537, 330.108 z "/>
<path style="fill:rgb(69, 243, 240);fill-opacity:1.0;fill-rule:evenodd;stroke:rgb(0, 0, 0);stroke-width:3.0;" d="M 35.7332, 576.987 L 27.7335, 586.25 L 13.1296, 587.314 L 32.4441, 570.436 z "/>
<path style="fill:rgb(85, 255, 255);fill-opacity:1.0;fill-rule:evenodd;stroke:rgb(0, 0, 0);stroke-width:3.0;" d="M 59.35, 356.229 L 59.7492, 365.995 L 40.6741, 356.794 L 44.7535, 352.455 z "/>
<path style="fill:rgb(255, 30, 255);fill-opacity:1.0;fill-rule:evenodd;stroke:rgb(0, 0, 0);stroke-width:3.0;" d="M 333.977, 523.796 L 347.795, 539.664 L 334.513, 554.274 L 314.392, 512.563 L 315.622, 510.719 z "/>
<path style="fill:rgb(220, 255, 34);fill-opacity:1.0;fill-rule:evenodd;stroke:rgb(0, 0, 0);stroke-width:3.0;" d="M 558.579, 457.142 L 536.498, 455.981 L 539.328, 432.46 z "/>
<path style="fill:rgb(212, 32, 95);fill-opacity:1.0;fill-rule:evenodd;stroke:rgb(0, 0, 0);stroke-width:3.0;" d="M 539.328, 432.46 L 536.498, 455.981 L 527.125, 455.488 L 530.655, 421.341 z "/>
<path style="fill:rgb(249, 220, 19);fill-opacity:1.0;fill-rule:evenodd;stroke:rgb(0, 0, 0);stroke-width:3.0;" d="M 265.542, 84.9562 L 252.175, 100.632 L 246.841, 96.357 L 248.197, 73.046 z "/>
<path style="fill:rgb(71, 49, 204);fill-opacity:1.0;fill-rule:evenodd;stroke:rgb(0, 0, 0);stroke-width:3.0;" d="M 385.801, 115.353 L 382.371, 113.679 L 368.313, 104.004 L 384.857, 85.584 z "/>
</svg>