<?xml version="1.0" encoding="iso-8859-1" standalone="no"?>
<!DOCTYPE svg PUBLIC "-//W3C//DTD SVG 1.0//EN" "http://www.w3.org/TR/2001/REC-SVG-20010904/DTD/svg10.dtd">
<svg xmlns="http://www.w3.org/2000/svg" width="800" height="600">
<path style="fill:rgb(0, 0, 0);fill-opacity:0.0;fill-rule:evenodd;stroke:rgb(0, 0, 0);stroke-width:0.0;" d="M 0, 600 L 800, 600 L 800, 0 L 0, 0 z "/>
<path style="fill:rgb(246, 7, 22);fill-opacity:1.0;fill-rule:evenodd;stroke:rgb(0, 0, 0);stroke-width:3.0;" d="M 307.661, 499.013 L 170.087, 315.963 L 187.239, 304.479 z "/>
<path style="fill:rgb(255, 9, 31);fill-opacity:1.0;fill-rule:evenodd;stroke:rgb(0, 0, 0);stroke-width:3.0;" d="M 385.529, 589.12 L 379.79, 594.984 L 378.263, 592.953 L 394.086, 558.978 z "/>
<path style="fill:rgb(255, 9, 31);fill-opacity:1.0;fill-rule:evenodd;stroke:rgb(0, 0, 0);stroke-width:3.0;" d="M 156.357, 42.1094 L 135.648, 31.9404 L 152.504, 15.9318 z "/>
<path style="fill:rgb(255, 9, 31);fill-opacity:1.0;fill-rule:evenodd;stroke:rgb(0, 0, 0);stroke-width:3.0;" d="M 428.464, 461.521 L 426.52, 471.008 L 419.073, 466.752 L 415.136, 453.66 L 416.872, 450.836 z "/>
<path style="fill:rgb(255, 9, 31);fill-opacity:1.0;fill-rule:evenodd;stroke:rgb(0, 0, 0);stroke-width:3.0;" d="M 75.3234, 189.875 L 22.7044, 221.758 L 67.1825, 179.043 z "/>
<path style="fill:rgb(255, 115, 144);fill-opacity:1.0;fill-rule:evenodd;stroke:rgb(0, 0, 0);stroke-width:3.0;" d="M 641.688, 366.953 L 616.742, 488.034 L 548.006, 533.548 L 530.023, 521.667 L 618.174, 190.479 z "/>
<path style="fill:rgb(255, 115, 144);fill-opacity:1.0;fill-rule:evenodd;stroke:rgb(0, 0, 0);stroke-width:3.0;" d="M 466.579, 280.38 L 461.356, 284.318 L 364.558, 281.416 L 362.883, 279.824 z "/>
<path style="fill:rgb(255, 115, 144);fill-opacity:1.0;fill-rule:evenodd;stroke:rgb(0, 0, 0);stroke-width:3.0;" d="M 108.37, 57.1771 L 94.3611, 58.9917 L 93.6972, 50.677 L 114.105, 44.253 z "/>
<path style="fill:rgb(255, 115, 144);fill-opacity:1.0;fill-rule:evenodd;stroke:rgb(0, 0, 0);stroke-width:3.0;" d="M 288.194, 473.11 L 259.511, 473.354 L 243.896, 452.063 L 262.761, 439.271 z "/>
<path style="fill:rgb(255, 115, 144);fill-opacity:1.0;fill-rule:evenodd;stroke:rgb(0, 0, 0);stroke-width:3.0;" d="M 632.012, 26.6891 L 632.047, 27.2877 L 603.924, 23.4963 L 604.622, 18.6327 L 610.95, 17.3221 z "/>
<path style="fill:rgb(150, 249, 255);fill-opacity:1.0;fill-rule:evenodd;stroke:rgb(0, 0, 0);stroke-width:3.0;" d="M 46.1536, 40.2382 L 12.789, 70.7581 L 11.6002, 70.3771 L 20.2331, 57.0256 L 47.2472, 38.5942 z "/>
<path style="fill:rgb(150, 249, 255);fill-opacity:1.0;fill-rule:evenodd;stroke:rgb(0, 0, 0);stroke-width:3.0;" d="M 270.553, 23.5481 L 252.737, 46.5013 L 248.189, 42.8472 L 268.74, 20.5012 z "/>
<path style="fill:rgb(150, 249, 255);fill-opacity:1.0;fill-rule:evenodd;stroke:rgb(0, 0, 0);stroke-width:3.0;" d="M 48.3831, 191.861 L 32.1745, 191.758 L 28.2862, 183.831 L 30.4235, 177.585 z "/>
<path style="fill:rgb(150, 249, 255);fill-opacity:1.0;fill-rule:evenodd;stroke:rgb(0, 0, 0);stroke-width:3.0;" d="M 473.101, 232.617 L 469.48, 264.382 L 436.142, 225.251 z "/>
<path style="fill:rgb(150, 249, 255);fill-opacity:1.0;fill-rule:evenodd;stroke:rgb(0, 0, 0);stroke-width:3.0;" d="M 612.643, 148.962 L 503.137, 213.999 L 569.167, 36.0244 L 594.425, 12.2342 z "/>
<path style="fill:rgb(255, 27, 252);fill-opacity:1.0;fill-rule:evenodd;stroke:rgb(0, 0, 0);stroke-width:3.0;" d="M 167.442, 272.498 L 160.575, 277.031 L 145.222, 273.563 L 139.235, 266.321 L 139.819, 265.836 L 161.129, 262.3 z "/>
<path style="fill:rgb(255, 27, 252);fill-opacity:1.0;fill-rule:evenodd;stroke:rgb(0, 0, 0);stroke-width:3.0;" d="M 161.743, 78.6965 L 172.044, 148.67 L 168.79, 148.128 L 155.041, 109.006 L 145.89, 73.8011 z "/>
<path style="fill:rgb(255, 27, 252);fill-opacity:1.0;fill-rule:evenodd;stroke:rgb(0, 0, 0);stroke-width:3.0;" d="M 232.776, 36.1848 L 209.143, 50.6894 L 185.09, 48.3197 L 184.129, 26.6114 L 226.909, 10.0192 z "/>
<path style="fill:rgb(243, 6, 8);fill-opacity:1.0;fill-rule:evenodd;stroke:rgb(0, 0, 0);stroke-width:3.0;" d="M 328.188, 572.405 L 316.861, 587.599 L 307.266, 582.225 L 323.849, 570.352 z "/>
<path style="fill:rgb(243, 6, 8);fill-opacity:1.0;fill-rule:evenodd;stroke:rgb(0, 0, 0);stroke-width:3.0;" d="M 328.464, 553.607 L 304.356, 542.695 L 297.857, 537.599 L 310.881, 530.856 z "/>
<path style="fill:rgb(243, 6, 8);fill-opacity:1.0;fill-rule:evenodd;stroke:rgb(0, 0, 0);stroke-width:3.0;" d="M 161.743, 78.6965 L 145.89, 73.8011 L 142.167, 59.4788 L 157.697, 51.2141 z "/>
<path style="fill:rgb(243, 6, 8);fill-opacity:1.0;fill-rule:evenodd;stroke:rgb(0, 0, 0);stroke-width:3.0;" d="M 188.665, 129.051 L 172.266, 150.18 L 170.578, 138.715 L 188.355, 122.048 z "/>
<path style="fill:rgb(255, 1, 7);fill-opacity:1.0;fill-rule:evenodd;stroke:rgb(0, 0, 0);stroke-width:3.0;" d="M 343.47, 535.525 L 338.493, 540.037 L 307.661, 499.013 L 241.868, 392.728 L 246.036, 385.629 L 305.179, 384.153 z "/>
<path style="fill:rgb(255, 1, 7);fill-opacity:1.0;fill-rule:evenodd;stroke:rgb(0, 0, 0);stroke-width:3.0;" d="M 279.765, 500.359 L 262.072, 519.202 L 252.797, 508.071 L 288.155, 481.344 z "/>
<path style="fill:rgb(255, 1, 7);fill-opacity:1.0;fill-rule:evenodd;stroke:rgb(0, 0, 0);stroke-width:3.0;" d="M 257.772, 442.654 L 239.731, 454.888 L 225.517, 431.564 L 228.459, 424.604 L 241.08, 413.369 z "/>
<path style="fill:rgb(255, 13, 11);fill-opacity:1.0;fill-rule:evenodd;stroke:rgb(0, 0, 0);stroke-width:3.0;" d="M 476.875, 284.783 L 459.828, 330.731 L 385.1, 318.413 L 456.169, 284.162 z "/>
<path style="fill:rgb(255, 13, 11);fill-opacity:1.0;fill-rule:evenodd;stroke:rgb(0, 0, 0);stroke-width:3.0;" d="M 578.063, 341.177 L 568.372, 377.586 L 441.268, 380.758 L 503.137, 213.999 L 511.975, 208.75 z "/>
<path style="fill:rgb(255, 13, 11);fill-opacity:1.0;fill-rule:evenodd;stroke:rgb(0, 0, 0);stroke-width:3.0;" d="M 258.704, 31.4141 L 248.189, 42.8472 L 238.641, 35.1763 L 240.305, 31.5641 L 241.217, 31.0041 z "/>
<path style="fill:rgb(255, 13, 11);fill-opacity:1.0;fill-rule:evenodd;stroke:rgb(0, 0, 0);stroke-width:3.0;" d="M 485.642, 87.2233 L 460.197, 138.662 L 445.369, 152.628 L 405.699, 170.435 L 375.172, 165.655 L 414.381, 98.8658 L 485.54, 85.1952 z "/>
<path style="fill:rgb(255, 13, 11);fill-opacity:1.0;fill-rule:evenodd;stroke:rgb(0, 0, 0);stroke-width:3.0;" d="M 643.101, 377.561 L 635.186, 413.079 L 632.378, 412.141 L 641.688, 366.953 z "/>
<path style="fill:rgb(255, 13, 11);fill-opacity:1.0;fill-rule:evenodd;stroke:rgb(0, 0, 0);stroke-width:3.0;" d="M 39.14, 89.0417 L 30.964, 102.074 L 29.2989, 102.746 L 8.32353, 94.1794 L 12.9309, 79.6892 z "/>
<path style="fill:rgb(255, 228, 26);fill-opacity:1.0;fill-rule:evenodd;stroke:rgb(0, 0, 0);stroke-width:3.0;" d="M 426.382, 247.495 L 429.46, 262.125 L 417.822, 257.671 L 412.119, 221.156 z "/>
<path style="fill:rgb(255, 228, 26);fill-opacity:1.0;fill-rule:evenodd;stroke:rgb(0, 0, 0);stroke-width:3.0;" d="M 725.924, 177.559 L 728.801, 186.48 L 724.269, 189.643 L 700.535, 194.91 L 719.429, 176.153 z "/>
<path style="fill:rgb(138, 60, 255);fill-opacity:1.0;fill-rule:evenodd;stroke:rgb(0, 0, 0);stroke-width:3.0;" d="M 72.6311, 35.6559 L 69.6994, 40.3291 L 31.4051, 27.0383 L 40.3588, 23.7973 z "/>
<path style="fill:rgb(24, 246, 246);fill-opacity:1.0;fill-rule:evenodd;stroke:rgb(0, 0, 0);stroke-width:3.0;" d="M 603.629, 25.5556 L 599.778, 52.4133 L 595.622, 21.221 L 599.24, 18.024 z "/>
<path style="fill:rgb(255, 18, 9);fill-opacity:1.0;fill-rule:evenodd;stroke:rgb(0, 0, 0);stroke-width:3.0;" d="M 21.8993, 170.809 L 39.1447, 205.969 L 36.3303, 208.672 L 15.9149, 211.633 L 10.7284, 194.957 L 20.253, 169.5 z "/>
<path style="fill:rgb(28, 66, 240);fill-opacity:1.0;fill-rule:evenodd;stroke:rgb(0, 0, 0);stroke-width:3.0;" d="M 629.866, 465.901 L 633.015, 471.07 L 634.08, 476.227 L 616.434, 489.528 L 621.678, 464.076 z "/>
<path style="fill:rgb(28, 66, 240);fill-opacity:1.0;fill-rule:evenodd;stroke:rgb(0, 0, 0);stroke-width:3.0;" d="M 69.6994, 40.3291 L 62.8737, 51.2094 L 48.854, 38.9304 L 56.7612, 35.8386 z "/>
<path style="fill:rgb(255, 168, 27);fill-opacity:1.0;fill-rule:evenodd;stroke:rgb(0, 0, 0);stroke-width:3.0;" d="M 105.939, 204.518 L 84.1235, 201.584 L 81.5408, 198.147 L 85.4002, 185.403 z "/>
<path style="fill:rgb(255, 168, 27);fill-opacity:1.0;fill-rule:evenodd;stroke:rgb(0, 0, 0);stroke-width:3.0;" d="M 636.149, 127.488 L 624.137, 145.317 L 617.897, 142.918 L 615.009, 128.284 L 625.48, 123.358 z "/>
<path style="fill:rgb(255, 36, 20);fill-opacity:1.0;fill-rule:evenodd;stroke:rgb(0, 0, 0);stroke-width:3.0;" d="M 383.751, 281.991 L 374.082, 316.597 L 294.283, 303.443 L 305.457, 284.409 L 310.361, 279.791 z "/>
<path style="fill:rgb(255, 36, 20);fill-opacity:1.0;fill-rule:evenodd;stroke:rgb(0, 0, 0);stroke-width:3.0;" d="M 544.522, 102.451 L 511.709, 190.894 L 502.896, 173.854 L 505.159, 96.3122 L 531.333, 71.6598 z "/>
<path style="fill:rgb(255, 36, 20);fill-opacity:1.0;fill-rule:evenodd;stroke:rgb(0, 0, 0);stroke-width:3.0;" d="M 696.002, 581.674 L 670.526, 583.389 L 668.79, 570.36 z "/>
<path style="fill:rgb(255, 36, 20);fill-opacity:1.0;fill-rule:evenodd;stroke:rgb(0, 0, 0);stroke-width:3.0;" d="M 618.528, 511.577 L 604.264, 548.597 L 616.179, 490.766 z "/>
<path style="fill:rgb(55, 249, 255);fill-opacity:1.0;fill-rule:evenodd;stroke:rgb(0, 0, 0);stroke-width:3.0;" d="M 244.812, 40.1338 L 186.138, 71.9747 L 185.829, 64.9986 L 236.813, 33.7073 z "/>
<path style="fill:rgb(55, 249, 255);fill-opacity:1.0;fill-rule:evenodd;stroke:rgb(0, 0, 0);stroke-width:3.0;" d="M 330.061, 573.291 L 333.388, 591.745 L 324.554, 591.908 L 316.861, 587.599 L 328.188, 572.405 z "/>
<path style="fill:rgb(55, 249, 255);fill-opacity:1.0;fill-rule:evenodd;stroke:rgb(0, 0, 0);stroke-width:3.0;" d="M 494.637, 236.909 L 493.291, 240.535 L 471.351, 247.966 L 473.101, 232.617 z "/>
<path style="fill:rgb(255, 234, 27);fill-opacity:1.0;fill-rule:evenodd;stroke:rgb(0, 0, 0);stroke-width:3.0;" d="M 273.889, 492.127 L 243.062, 515.43 L 227.797, 462.981 L 230.787, 460.953 z "/>
<path style="fill:rgb(255, 234, 27);fill-opacity:1.0;fill-rule:evenodd;stroke:rgb(0, 0, 0);stroke-width:3.0;" d="M 211.885, 94.6397 L 210.331, 101.138 L 188.665, 129.051 L 186.138, 71.9747 L 189.187, 70.3202 z "/>
<path style="fill:rgb(255, 234, 27);fill-opacity:1.0;fill-rule:evenodd;stroke:rgb(0, 0, 0);stroke-width:3.0;" d="M 54.2622, 177.694 L 52.7803, 178.754 L 40.4285, 169.023 L 26.6881, 152.3 L 28.397, 147.733 z "/>
<path style="fill:rgb(255, 234, 27);fill-opacity:1.0;fill-rule:evenodd;stroke:rgb(0, 0, 0);stroke-width:3.0;" d="M 535.811, 81.653 L 533.787, 69.3484 L 550.46, 53.6443 z "/>
<path style="fill:rgb(255, 234, 27);fill-opacity:1.0;fill-rule:evenodd;stroke:rgb(0, 0, 0);stroke-width:3.0;" d="M 353.005, 559.345 L 354.262, 561.017 L 353.121, 575.931 L 344.055, 573.78 L 337.743, 565.612 L 349.348, 558.367 z "/>
<path style="fill:rgb(231, 152, 255);fill-opacity:1.0;fill-rule:evenodd;stroke:rgb(0, 0, 0);stroke-width:3.0;" d="M 618.174, 190.479 L 595.945, 273.996 L 542.852, 190.412 L 612.643, 148.962 z "/>
<path style="fill:rgb(231, 152, 255);fill-opacity:1.0;fill-rule:evenodd;stroke:rgb(0, 0, 0);stroke-width:3.0;" d="M 648.423, 417.502 L 635.186, 413.079 L 643.101, 377.561 z "/>
<path style="fill:rgb(231, 152, 255);fill-opacity:1.0;fill-rule:evenodd;stroke:rgb(0, 0, 0);stroke-width:3.0;" d="M 423.503, 173.223 L 381.328, 212.947 L 353.208, 203.07 L 375.172, 165.655 z "/>
<path style="fill:rgb(215, 179, 255);fill-opacity:1.0;fill-rule:evenodd;stroke:rgb(0, 0, 0);stroke-width:3.0;" d="M 775.898, 120.094 L 700.535, 194.91 L 642.832, 207.717 L 636.693, 105.02 L 770.473, 49.2543 z "/>
<path style="fill:rgb(70, 255, 243);fill-opacity:1.0;fill-rule:evenodd;stroke:rgb(0, 0, 0);stroke-width:3.0;" d="M 119.284, 10.2713 L 118.715, 17.1932 L 116.857, 20.927 L 110.052, 16.6315 L 109.451, 11.8766 L 112.395, 5.34489 z "/>
<path style="fill:rgb(70, 255, 243);fill-opacity:1.0;fill-rule:evenodd;stroke:rgb(0, 0, 0);stroke-width:3.0;" d="M 126.428, 257.872 L 61.8315, 383.595 L 55.8357, 378.143 L 88.3342, 244.649 L 106.68, 231.596 z "/>
<path style="fill:rgb(70, 255, 243);fill-opacity:1.0;fill-rule:evenodd;stroke:rgb(0, 0, 0);stroke-width:3.0;" d="M 676.545, 260.063 L 626.183, 250.588 L 625.254, 243.616 L 669.905, 240.51 z "/>
<path style="fill:rgb(70, 255, 243);fill-opacity:1.0;fill-rule:evenodd;stroke:rgb(0, 0, 0);stroke-width:3.0;" d="M 616.399, 61.033 L 609.378, 124.465 L 599.778, 52.4133 L 603.255, 28.1636 z "/>
<path style="fill:rgb(243, 249, 25);fill-opacity:1.0;fill-rule:evenodd;stroke:rgb(0, 0, 0);stroke-width:3.0;" d="M 322.494, 255.388 L 178.357, 290.13 L 154.93, 252.286 L 382.525, 153.13 z "/>
<path style="fill:rgb(243, 249, 25);fill-opacity:1.0;fill-rule:evenodd;stroke:rgb(0, 0, 0);stroke-width:3.0;" d="M 152.504, 15.9318 L 135.076, 32.4832 L 131.825, 26.237 L 150.962, 5.46158 z "/>
<path style="fill:rgb(243, 249, 25);fill-opacity:1.0;fill-rule:evenodd;stroke:rgb(0, 0, 0);stroke-width:3.0;" d="M 344.14, 573.89 L 345.772, 576.001 L 327.99, 572.311 L 254.032, 537.328 L 250.176, 531.87 L 267.297, 513.636 z "/>
<path style="fill:rgb(231, 0, 192);fill-opacity:1.0;fill-rule:evenodd;stroke:rgb(0, 0, 0);stroke-width:3.0;" d="M 137.487, 37.1125 L 120.401, 30.0627 L 126.574, 16.1514 z "/>
<path style="fill:rgb(231, 0, 192);fill-opacity:1.0;fill-rule:evenodd;stroke:rgb(0, 0, 0);stroke-width:3.0;" d="M 172.709, 176.975 L 98.7164, 82.6012 L 142.167, 59.4788 z "/>
<path style="fill:rgb(54, 255, 255);fill-opacity:1.0;fill-rule:evenodd;stroke:rgb(0, 0, 0);stroke-width:3.0;" d="M 187.779, 109.044 L 180.52, 106.832 L 171.859, 96.9262 L 187.144, 94.6993 z "/>
<path style="fill:rgb(54, 255, 255);fill-opacity:1.0;fill-rule:evenodd;stroke:rgb(0, 0, 0);stroke-width:3.0;" d="M 742.713, 165.996 L 750.137, 171.592 L 736.154, 181.35 L 729.543, 171.514 L 731.315, 165.313 z "/>
<path style="fill:rgb(54, 255, 255);fill-opacity:1.0;fill-rule:evenodd;stroke:rgb(0, 0, 0);stroke-width:3.0;" d="M 437.538, 417.213 L 415.136, 453.66 L 393.57, 381.948 L 445.023, 380.664 z "/>
<path style="fill:rgb(255, 112, 9);fill-opacity:1.0;fill-rule:evenodd;stroke:rgb(0, 0, 0);stroke-width:3.0;" d="M 634.665, 103.283 L 621.234, 121.715 L 610.157, 117.428 L 613.188, 90.0464 z "/>
<path style="fill:rgb(255, 112, 9);fill-opacity:1.0;fill-rule:evenodd;stroke:rgb(0, 0, 0);stroke-width:3.0;" d="M 770.367, 155.122 L 766.929, 168.051 L 756.083, 153.309 L 755.715, 151.233 z "/>
<path style="fill:rgb(255, 112, 9);fill-opacity:1.0;fill-rule:evenodd;stroke:rgb(0, 0, 0);stroke-width:3.0;" d="M 116.094, 39.7708 L 114.105, 44.253 L 55.7051, 62.6364 L 73.512, 34.2517 z "/>
<path style="fill:rgb(228, 29, 21);fill-opacity:1.0;fill-rule:evenodd;stroke:rgb(0, 0, 0);stroke-width:3.0;" d="M 124.546, 203.201 L 129.846, 211.763 L 120.174, 217.767 L 111.704, 209.884 L 116.223, 201.994 z "/>
<path style="fill:rgb(228, 29, 21);fill-opacity:1.0;fill-rule:evenodd;stroke:rgb(0, 0, 0);stroke-width:3.0;" d="M 328.464, 553.607 L 344.14, 573.89 L 304.356, 542.695 z "/>
<path style="fill:rgb(228, 29, 21);fill-opacity:1.0;fill-rule:evenodd;stroke:rgb(0, 0, 0);stroke-width:3.0;" d="M 412.007, 220.441 L 417.822, 257.671 L 412.233, 255.532 L 403.662, 247.919 L 406.588, 219.361 z "/>
<path style="fill:rgb(115, 255, 30);fill-opacity:1.0;fill-rule:evenodd;stroke:rgb(0, 0, 0);stroke-width:3.0;" d="M 502.896, 173.854 L 476.67, 123.146 L 505.159, 96.3122 z "/>
<path style="fill:rgb(115, 255, 30);fill-opacity:1.0;fill-rule:evenodd;stroke:rgb(0, 0, 0);stroke-width:3.0;" d="M 406.588, 219.361 L 403.662, 247.919 L 373.059, 220.736 L 380.12, 214.086 z "/>
<path style="fill:rgb(255, 8, 55);fill-opacity:1.0;fill-rule:evenodd;stroke:rgb(0, 0, 0);stroke-width:3.0;" d="M 157.697, 51.2141 L 119.422, 71.5828 L 134.687, 50.8885 L 157.406, 49.2334 z "/>
<path style="fill:rgb(255, 8, 55);fill-opacity:1.0;fill-rule:evenodd;stroke:rgb(0, 0, 0);stroke-width:3.0;" d="M 294.734, 509.962 L 296.879, 520.974 L 270.623, 510.095 L 283.905, 495.95 z "/>
<path style="fill:rgb(255, 8, 55);fill-opacity:1.0;fill-rule:evenodd;stroke:rgb(0, 0, 0);stroke-width:3.0;" d="M 172.709, 176.975 L 180.781, 208.029 L 185.346, 239.035 L 158.894, 250.559 L 90.5037, 97.4431 L 96.5863, 83.7347 L 98.7164, 82.6012 z "/>
<path style="fill:rgb(161, 207, 217);fill-opacity:1.0;fill-rule:evenodd;stroke:rgb(0, 0, 0);stroke-width:3.0;" d="M 636.343, 159.454 L 636.759, 165.242 L 615.026, 166.852 L 613.131, 152.627 z "/>
<path style="fill:rgb(255, 234, 12);fill-opacity:1.0;fill-rule:evenodd;stroke:rgb(0, 0, 0);stroke-width:3.0;" d="M 79.8597, 24.1333 L 53.2572, 28.5369 L 47.6677, 26.483 L 84.3557, 16.9664 z "/>
<path style="fill:rgb(255, 234, 12);fill-opacity:1.0;fill-rule:evenodd;stroke:rgb(0, 0, 0);stroke-width:3.0;" d="M 102.074, 11.5957 L 77.7673, 34.8032 L 73.512, 34.2517 L 91.7954, 5.10733 z "/>
<path style="fill:rgb(255, 234, 12);fill-opacity:1.0;fill-rule:evenodd;stroke:rgb(0, 0, 0);stroke-width:3.0;" d="M 428.464, 461.521 L 416.872, 450.836 L 437.538, 417.213 z "/>
<path style="fill:rgb(255, 234, 12);fill-opacity:1.0;fill-rule:evenodd;stroke:rgb(0, 0, 0);stroke-width:3.0;" d="M 105.939, 204.518 L 151.76, 247.164 L 159.448, 259.584 L 147.419, 259.075 L 102.367, 204.038 z "/>
<path style="fill:rgb(215, 83, 9);fill-opacity:1.0;fill-rule:evenodd;stroke:rgb(0, 0, 0);stroke-width:3.0;" d="M 41.4772, 144.841 L 59.7869, 169.203 L 63.1858, 182.881 L 60.7552, 185.215 L 28.397, 147.733 L 30.024, 143.384 z "/>
<path style="fill:rgb(215, 83, 9);fill-opacity:1.0;fill-rule:evenodd;stroke:rgb(0, 0, 0);stroke-width:3.0;" d="M 56.83, 188.985 L 51.366, 194.232 L 20.253, 169.5 L 26.6881, 152.3 z "/>
<path style="fill:rgb(215, 83, 9);fill-opacity:1.0;fill-rule:evenodd;stroke:rgb(0, 0, 0);stroke-width:3.0;" d="M 541.472, 62.1096 L 526.401, 76.3048 L 519.979, 70.9735 L 540.028, 60.7737 z "/>
<path style="fill:rgb(215, 83, 9);fill-opacity:1.0;fill-rule:evenodd;stroke:rgb(0, 0, 0);stroke-width:3.0;" d="M 233.993, 411.519 L 229.53, 422.072 L 216.921, 425.612 L 216.336, 423.601 L 220.921, 414.732 L 230.242, 409.13 z "/>
<path style="fill:rgb(215, 83, 9);fill-opacity:1.0;fill-rule:evenodd;stroke:rgb(0, 0, 0);stroke-width:3.0;" d="M 86.0959, 154.476 L 87.3489, 163.101 L 70.2065, 159.398 L 69.3197, 154.606 L 70.5468, 153.5 z "/>
<path style="fill:rgb(215, 83, 9);fill-opacity:1.0;fill-rule:evenodd;stroke:rgb(0, 0, 0);stroke-width:3.0;" d="M 633.67, 54.4405 L 636.663, 104.514 L 613.188, 90.0464 L 619.152, 36.1635 z "/>
<path style="fill:rgb(47, 7, 234);fill-opacity:1.0;fill-rule:evenodd;stroke:rgb(0, 0, 0);stroke-width:3.0;" d="M 325.296, 522.477 L 309.35, 528.875 L 304.509, 522.611 L 308.995, 513.014 L 316.2, 510.374 z "/>
<path style="fill:rgb(102, 177, 255);fill-opacity:1.0;fill-rule:evenodd;stroke:rgb(0, 0, 0);stroke-width:3.0;" d="M 654.642, 210.634 L 632.068, 235.582 L 624.286, 236.349 L 621.113, 212.538 L 641.596, 207.992 z "/>
<path style="fill:rgb(23, 255, 255);fill-opacity:1.0;fill-rule:evenodd;stroke:rgb(0, 0, 0);stroke-width:3.0;" d="M 187.893, 111.603 L 188.347, 121.858 L 182.8, 126.213 L 165.776, 106.095 L 165.409, 103.598 z "/>
<path style="fill:rgb(50, 255, 192);fill-opacity:1.0;fill-rule:evenodd;stroke:rgb(0, 0, 0);stroke-width:3.0;" d="M 764.859, 237.002 L 729.414, 223.633 L 732.543, 187.806 L 751.944, 183.5 z "/>
<path style="fill:rgb(119, 30, 255);fill-opacity:1.0;fill-rule:evenodd;stroke:rgb(0, 0, 0);stroke-width:3.0;" d="M 423.503, 173.223 L 405.699, 170.435 L 445.369, 152.628 z "/>
<path style="fill:rgb(11, 2, 255);fill-opacity:1.0;fill-rule:evenodd;stroke:rgb(0, 0, 0);stroke-width:3.0;" d="M 182.8, 126.213 L 178.978, 129.214 L 168.276, 123.074 L 167.292, 116.392 L 170.787, 112.017 z "/>
<path style="fill:rgb(11, 2, 255);fill-opacity:1.0;fill-rule:evenodd;stroke:rgb(0, 0, 0);stroke-width:3.0;" d="M 634.979, 480.579 L 627.729, 506.326 L 620.154, 504.136 L 617.424, 501.792 L 616.179, 490.766 L 616.434, 489.528 L 634.08, 476.227 z "/>
<path style="fill:rgb(27, 240, 19);fill-opacity:1.0;fill-rule:evenodd;stroke:rgb(0, 0, 0);stroke-width:3.0;" d="M 48.3831, 191.861 L 51.366, 194.232 L 39.1447, 205.969 L 32.1745, 191.758 z "/>
<path style="fill:rgb(132, 23, 231);fill-opacity:1.0;fill-rule:evenodd;stroke:rgb(0, 0, 0);stroke-width:3.0;" d="M 445.848, 368.412 L 441.268, 380.758 L 246.036, 385.629 L 264.109, 354.842 z "/>
<path style="fill:rgb(132, 23, 231);fill-opacity:1.0;fill-rule:evenodd;stroke:rgb(0, 0, 0);stroke-width:3.0;" d="M 312.519, 505.476 L 311.164, 508.375 L 295.833, 511.384 L 283.905, 495.95 L 295.821, 483.259 z "/>
<path style="fill:rgb(246, 119, 21);fill-opacity:1.0;fill-rule:evenodd;stroke:rgb(0, 0, 0);stroke-width:3.0;" d="M 630.561, 147.788 L 628.311, 157.092 L 613.131, 152.627 L 611.51, 140.462 z "/>
<path style="fill:rgb(220, 126, 9);fill-opacity:1.0;fill-rule:evenodd;stroke:rgb(0, 0, 0);stroke-width:3.0;" d="M 112.32, 183.452 L 117.18, 191.302 L 116.531, 191.52 L 110.085, 189.874 L 95.949, 177.413 L 95.5512, 172.721 z "/>
<path style="fill:rgb(220, 126, 9);fill-opacity:1.0;fill-rule:evenodd;stroke:rgb(0, 0, 0);stroke-width:3.0;" d="M 252.737, 46.5013 L 213.79, 96.6804 L 189.187, 70.3202 L 244.812, 40.1338 z "/>
<path style="fill:rgb(220, 126, 9);fill-opacity:1.0;fill-rule:evenodd;stroke:rgb(0, 0, 0);stroke-width:3.0;" d="M 384.434, 241.965 L 370.031, 239.381 L 358.108, 234.818 L 369.353, 224.226 z "/>
<path style="fill:rgb(220, 126, 9);fill-opacity:1.0;fill-rule:evenodd;stroke:rgb(0, 0, 0);stroke-width:3.0;" d="M 306.828, 525.611 L 310.881, 530.856 L 297.857, 537.599 L 289.756, 531.246 L 297.05, 521.934 z "/>
<path style="fill:rgb(220, 126, 9);fill-opacity:1.0;fill-rule:evenodd;stroke:rgb(0, 0, 0);stroke-width:3.0;" d="M 22.7044, 221.758 L 21.9497, 222.215 L 18.5405, 215.024 L 18.3174, 211.285 L 36.3303, 208.672 z "/>
<path style="fill:rgb(37, 60, 255);fill-opacity:1.0;fill-rule:evenodd;stroke:rgb(0, 0, 0);stroke-width:3.0;" d="M 45.3484, 21.9913 L 31.4051, 27.0383 L 19.4153, 22.877 L 11.6386, 17.9783 L 12.7839, 15.8337 z "/>
<path style="fill:rgb(37, 60, 255);fill-opacity:1.0;fill-rule:evenodd;stroke:rgb(0, 0, 0);stroke-width:3.0;" d="M 90.6184, 97.1847 L 59.0804, 168.262 L 21.1241, 117.76 L 54.8528, 63.995 z "/>
<path style="fill:rgb(22, 0, 252);fill-opacity:1.0;fill-rule:evenodd;stroke:rgb(0, 0, 0);stroke-width:3.0;" d="M 408.962, 219.834 L 393.951, 216.842 L 396.279, 198.866 L 399.453, 195.876 z "/>
<path style="fill:rgb(187, 134, 255);fill-opacity:1.0;fill-rule:evenodd;stroke:rgb(0, 0, 0);stroke-width:3.0;" d="M 85.4002, 185.403 L 81.5408, 198.147 L 66.7489, 178.466 L 70.9893, 171.99 z "/>
<path style="fill:rgb(187, 134, 255);fill-opacity:1.0;fill-rule:evenodd;stroke:rgb(0, 0, 0);stroke-width:3.0;" d="M 702.929, 208.872 L 703.291, 217.429 L 699.197, 219.253 L 695.353, 217.3 L 691.175, 201.5 L 691.256, 200.438 z "/>
<path style="fill:rgb(255, 255, 44);fill-opacity:1.0;fill-rule:evenodd;stroke:rgb(0, 0, 0);stroke-width:3.0;" d="M 419.13, 466.942 L 343.47, 535.525 L 305.179, 384.153 L 393.57, 381.948 z "/>
<path style="fill:rgb(255, 255, 44);fill-opacity:1.0;fill-rule:evenodd;stroke:rgb(0, 0, 0);stroke-width:3.0;" d="M 281.451, 486.411 L 273.889, 492.127 L 248.068, 473.451 L 270.139, 473.264 z "/>
<path style="fill:rgb(255, 255, 44);fill-opacity:1.0;fill-rule:evenodd;stroke:rgb(0, 0, 0);stroke-width:3.0;" d="M 82.9522, 266.757 L 33.3866, 296.155 L 86.4057, 252.571 z "/>
<path style="fill:rgb(255, 255, 44);fill-opacity:1.0;fill-rule:evenodd;stroke:rgb(0, 0, 0);stroke-width:3.0;" d="M 112.32, 183.452 L 95.5512, 172.721 L 93.9442, 153.767 z "/>
<path style="fill:rgb(119, 252, 184);fill-opacity:1.0;fill-rule:evenodd;stroke:rgb(0, 0, 0);stroke-width:3.0;" d="M 563.047, 397.594 L 481.984, 379.742 L 568.372, 377.586 z "/>
<path style="fill:rgb(61, 246, 47);fill-opacity:1.0;fill-rule:evenodd;stroke:rgb(0, 0, 0);stroke-width:3.0;" d="M 624.104, 560.964 L 622.891, 568.613 L 602.172, 559.271 L 621.293, 536.065 z "/>
<path style="fill:rgb(61, 246, 47);fill-opacity:1.0;fill-rule:evenodd;stroke:rgb(0, 0, 0);stroke-width:3.0;" d="M 718.074, 71.0967 L 636.693, 105.02 L 631.419, 16.7815 z "/>
<path style="fill:rgb(61, 246, 47);fill-opacity:1.0;fill-rule:evenodd;stroke:rgb(0, 0, 0);stroke-width:3.0;" d="M 108.926, 138.687 L 91.8815, 150.435 L 86.6626, 142.004 L 95.2906, 108.16 z "/>
<path style="fill:rgb(61, 246, 47);fill-opacity:1.0;fill-rule:evenodd;stroke:rgb(0, 0, 0);stroke-width:3.0;" d="M 230.455, 396.286 L 216.336, 423.601 L 209.467, 399.999 L 228.014, 393.038 z "/>
<path style="fill:rgb(255, 46, 21);fill-opacity:1.0;fill-rule:evenodd;stroke:rgb(0, 0, 0);stroke-width:3.0;" d="M 259.511, 473.354 L 248.068, 473.451 L 230.787, 460.953 L 243.896, 452.063 z "/>
<path style="fill:rgb(255, 46, 21);fill-opacity:1.0;fill-rule:evenodd;stroke:rgb(0, 0, 0);stroke-width:3.0;" d="M 95.2906, 108.16 L 86.6626, 142.004 L 79.6744, 130.715 L 94.6734, 106.778 z "/>
<path style="fill:rgb(255, 46, 21);fill-opacity:1.0;fill-rule:evenodd;stroke:rgb(0, 0, 0);stroke-width:3.0;" d="M 695.99, 238.696 L 625.254, 243.616 L 624.286, 236.349 L 700.156, 228.875 z "/>
<path style="fill:rgb(177, 22, 177);fill-opacity:1.0;fill-rule:evenodd;stroke:rgb(0, 0, 0);stroke-width:3.0;" d="M 39.6039, 88.3023 L 39.14, 89.0417 L 23.5726, 83.4866 L 22.7306, 61.6642 L 22.8726, 61.5343 z "/>
<path style="fill:rgb(177, 22, 177);fill-opacity:1.0;fill-rule:evenodd;stroke:rgb(0, 0, 0);stroke-width:3.0;" d="M 262.072, 519.202 L 260.282, 521.108 L 244.361, 519.892 L 243.062, 515.43 L 252.797, 508.071 z "/>
<path style="fill:rgb(128, 170, 10);fill-opacity:1.0;fill-rule:evenodd;stroke:rgb(0, 0, 0);stroke-width:3.0;" d="M 526.401, 76.3048 L 486.967, 113.447 L 485.702, 88.411 L 519.979, 70.9735 z "/>
<path style="fill:rgb(255, 51, 223);fill-opacity:1.0;fill-rule:evenodd;stroke:rgb(0, 0, 0);stroke-width:3.0;" d="M 346.726, 245.539 L 326.285, 264.792 L 319.433, 260.602 L 346.192, 215.02 z "/>
<path style="fill:rgb(255, 51, 223);fill-opacity:1.0;fill-rule:evenodd;stroke:rgb(0, 0, 0);stroke-width:3.0;" d="M 555.535, 72.7659 L 547.211, 59.8567 L 550.46, 53.6443 L 569.167, 36.0244 z "/>
<path style="fill:rgb(9, 123, 255);fill-opacity:1.0;fill-rule:evenodd;stroke:rgb(0, 0, 0);stroke-width:3.0;" d="M 239.731, 454.888 L 228.776, 462.317 L 225.081, 452.04 L 232.278, 444.32 L 233.067, 443.952 z "/>
<path style="fill:rgb(255, 11, 9);fill-opacity:1.0;fill-rule:evenodd;stroke:rgb(0, 0, 0);stroke-width:3.0;" d="M 262.025, 27.8028 L 242.431, 30.2588 L 282.231, 5.83214 z "/>
<path style="fill:rgb(255, 220, 71);fill-opacity:1.0;fill-rule:evenodd;stroke:rgb(0, 0, 0);stroke-width:3.0;" d="M 456.169, 284.162 L 385.1, 318.413 L 374.082, 316.597 L 383.751, 281.991 z "/>
<path style="fill:rgb(255, 13, 11);fill-opacity:1.0;fill-rule:evenodd;stroke:rgb(0, 0, 0);stroke-width:3.0;" d="M 770.433, 155.14 L 776.326, 163.425 L 774.927, 178.4 L 774.596, 178.473 L 766.929, 168.051 L 770.367, 155.122 z "/>
<path style="fill:rgb(255, 13, 11);fill-opacity:1.0;fill-rule:evenodd;stroke:rgb(0, 0, 0);stroke-width:3.0;" d="M 103.777, 79.9082 L 96.5863, 83.7347 L 106.328, 61.7791 L 122.783, 50.2538 z "/>
<path style="fill:rgb(255, 252, 7);fill-opacity:1.0;fill-rule:evenodd;stroke:rgb(0, 0, 0);stroke-width:3.0;" d="M 126.862, 43.8891 L 122.783, 50.2538 L 106.328, 61.7791 L 120.006, 30.9525 z "/>
<path style="fill:rgb(212, 2, 16);fill-opacity:1.0;fill-rule:evenodd;stroke:rgb(0, 0, 0);stroke-width:3.0;" d="M 392.642, 248.035 L 312.06, 278.19 L 358.108, 234.818 z "/>
<path style="fill:rgb(212, 2, 16);fill-opacity:1.0;fill-rule:evenodd;stroke:rgb(0, 0, 0);stroke-width:3.0;" d="M 87.3489, 163.101 L 87.5027, 164.16 L 72.8652, 173.736 L 72.8587, 173.73 L 70.2065, 159.398 z "/>
<path style="fill:rgb(212, 2, 16);fill-opacity:1.0;fill-rule:evenodd;stroke:rgb(0, 0, 0);stroke-width:3.0;" d="M 563.047, 397.594 L 516.532, 572.353 L 467.613, 423.357 L 468.402, 380.081 L 481.984, 379.742 z "/>
<path style="fill:rgb(10, 159, 255);fill-opacity:1.0;fill-rule:evenodd;stroke:rgb(0, 0, 0);stroke-width:3.0;" d="M 648.423, 417.502 L 649.81, 427.913 L 639.733, 463.697 L 635.548, 462.283 L 626.706, 439.668 L 632.378, 412.141 z "/>
<path style="fill:rgb(234, 168, 165);fill-opacity:1.0;fill-rule:evenodd;stroke:rgb(0, 0, 0);stroke-width:3.0;" d="M 87.2995, 12.2739 L 84.3557, 16.9664 L 47.6677, 26.483 L 40.8719, 23.9859 L 40.6337, 23.6979 L 77.0267, 10.5247 z "/>
<path style="fill:rgb(41, 220, 163);fill-opacity:1.0;fill-rule:evenodd;stroke:rgb(0, 0, 0);stroke-width:3.0;" d="M 662.933, 212.313 L 657.652, 228.041 L 643.401, 231.253 L 642.211, 224.372 L 654.642, 210.634 z "/>
<path style="fill:rgb(41, 220, 163);fill-opacity:1.0;fill-rule:evenodd;stroke:rgb(0, 0, 0);stroke-width:3.0;" d="M 347.663, 581.617 L 346.799, 591.498 L 333.388, 591.745 L 330.061, 573.291 z "/>
<path style="fill:rgb(194, 144, 255);fill-opacity:1.0;fill-rule:evenodd;stroke:rgb(0, 0, 0);stroke-width:3.0;" d="M 480.242, 110.504 L 461.984, 136.387 L 462.514, 133.978 L 479.78, 99.0738 z "/>
<path style="fill:rgb(255, 255, 56);fill-opacity:1.0;fill-rule:evenodd;stroke:rgb(0, 0, 0);stroke-width:3.0;" d="M 35.1475, 282.493 L 18.883, 294.066 L 8.66502, 287.39 L 26.3635, 277.565 z "/>
<path style="fill:rgb(255, 255, 56);fill-opacity:1.0;fill-rule:evenodd;stroke:rgb(0, 0, 0);stroke-width:3.0;" d="M 635.753, 103.953 L 635.081, 116.568 L 626.197, 122.223 L 622.903, 119.425 L 634.665, 103.283 z "/>
<path style="fill:rgb(255, 5, 11);fill-opacity:1.0;fill-rule:evenodd;stroke:rgb(0, 0, 0);stroke-width:3.0;" d="M 89.8567, 243.153 L 89.4006, 243.891 L 65.0027, 261.25 L 11.6263, 237.595 L 65.6656, 218.908 z "/>
<path style="fill:rgb(255, 5, 11);fill-opacity:1.0;fill-rule:evenodd;stroke:rgb(0, 0, 0);stroke-width:3.0;" d="M 62.8737, 51.2094 L 61.1055, 54.028 L 22.878, 61.543 L 22.8726, 61.5343 L 46.6346, 39.7982 L 48.854, 38.9304 z "/>
<path style="fill:rgb(255, 5, 11);fill-opacity:1.0;fill-rule:evenodd;stroke:rgb(0, 0, 0);stroke-width:3.0;" d="M 90.6184, 97.1847 L 54.9608, 64.0952 L 108.37, 57.1771 z "/>
<path style="fill:rgb(228, 255, 11);fill-opacity:1.0;fill-rule:evenodd;stroke:rgb(0, 0, 0);stroke-width:3.0;" d="M 258.454, 364.475 L 221.531, 359.875 L 178.357, 290.13 L 322.494, 255.388 z "/>
<path style="fill:rgb(39, 255, 240);fill-opacity:1.0;fill-rule:evenodd;stroke:rgb(0, 0, 0);stroke-width:3.0;" d="M 459.828, 330.731 L 445.848, 368.412 L 264.109, 354.842 L 294.283, 303.443 z "/>
<path style="fill:rgb(39, 255, 240);fill-opacity:1.0;fill-rule:evenodd;stroke:rgb(0, 0, 0);stroke-width:3.0;" d="M 511.709, 190.894 L 494.637, 236.909 L 418.365, 221.708 L 407.515, 216.187 L 399.453, 195.876 L 476.67, 123.146 z "/>
<path style="fill:rgb(39, 255, 240);fill-opacity:1.0;fill-rule:evenodd;stroke:rgb(0, 0, 0);stroke-width:3.0;" d="M 374.581, 588.053 L 345.95, 549.959 L 400.736, 538.81 z "/>
<path style="fill:rgb(6, 243, 255);fill-opacity:1.0;fill-rule:evenodd;stroke:rgb(0, 0, 0);stroke-width:3.0;" d="M 689.032, 255.094 L 678.831, 260.493 L 676.545, 260.063 L 669.905, 240.51 L 695.99, 238.696 z "/>
<path style="fill:rgb(6, 243, 255);fill-opacity:1.0;fill-rule:evenodd;stroke:rgb(0, 0, 0);stroke-width:3.0;" d="M 422.55, 478.314 L 415.617, 510.795 L 400.736, 538.81 L 345.95, 549.959 L 338.493, 540.037 L 419.13, 466.942 z "/>
<path style="fill:rgb(15, 255, 17);fill-opacity:1.0;fill-rule:evenodd;stroke:rgb(0, 0, 0);stroke-width:3.0;" d="M 403.426, 247.709 L 400.718, 251.125 L 388.125, 246.306 L 369.353, 224.226 L 373.059, 220.736 z "/>
<path style="fill:rgb(15, 255, 17);fill-opacity:1.0;fill-rule:evenodd;stroke:rgb(0, 0, 0);stroke-width:3.0;" d="M 766.302, 213.943 L 760.655, 219.588 L 751.944, 183.5 L 762.468, 181.165 z "/>
<path style="fill:rgb(255, 255, 16);fill-opacity:1.0;fill-rule:evenodd;stroke:rgb(0, 0, 0);stroke-width:3.0;" d="M 186.695, 84.5465 L 161.665, 78.1692 L 159.941, 66.4572 L 185.63, 60.5098 z "/>
<path style="fill:rgb(255, 1, 17);fill-opacity:1.0;fill-rule:evenodd;stroke:rgb(0, 0, 0);stroke-width:3.0;" d="M 467.68, 419.698 L 435.149, 428.878 L 445.023, 380.664 L 468.402, 380.081 z "/>
<path style="fill:rgb(215, 34, 33);fill-opacity:1.0;fill-rule:evenodd;stroke:rgb(0, 0, 0);stroke-width:3.0;" d="M 616.399, 61.033 L 607.28, 38.2283 L 619.139, 36.2798 z "/>
<path style="fill:rgb(255, 252, 78);fill-opacity:1.0;fill-rule:evenodd;stroke:rgb(0, 0, 0);stroke-width:3.0;" d="M 548.006, 533.548 L 522.337, 550.545 L 524.419, 542.72 L 537.434, 526.563 z "/>
<path style="fill:rgb(255, 6, 98);fill-opacity:1.0;fill-rule:evenodd;stroke:rgb(0, 0, 0);stroke-width:3.0;" d="M 65.0027, 261.25 L 48.186, 273.216 L 28.0434, 276.632 L 59.8573, 258.97 z "/>
<path style="fill:rgb(62, 255, 240);fill-opacity:1.0;fill-rule:evenodd;stroke:rgb(0, 0, 0);stroke-width:3.0;" d="M 641.66, 366.746 L 637.959, 338.966 L 660.559, 322.203 z "/>
<path style="fill:rgb(62, 255, 240);fill-opacity:1.0;fill-rule:evenodd;stroke:rgb(0, 0, 0);stroke-width:3.0;" d="M 729.434, 223.404 L 716.495, 191.368 L 732.543, 187.806 z "/>
<path style="fill:rgb(62, 255, 240);fill-opacity:1.0;fill-rule:evenodd;stroke:rgb(0, 0, 0);stroke-width:3.0;" d="M 595.945, 273.996 L 578.063, 341.177 L 511.975, 208.75 L 542.852, 190.412 z "/>
<path style="fill:rgb(255, 237, 7);fill-opacity:1.0;fill-rule:evenodd;stroke:rgb(0, 0, 0);stroke-width:3.0;" d="M 642.832, 207.717 L 621.555, 212.439 L 620.519, 206.168 L 640.892, 175.265 z "/>
<path style="fill:rgb(255, 237, 7);fill-opacity:1.0;fill-rule:evenodd;stroke:rgb(0, 0, 0);stroke-width:3.0;" d="M 481.289, 272.887 L 468.747, 270.815 L 469.215, 266.715 L 472.807, 262.37 L 489.408, 251.002 z "/>
<path style="fill:rgb(255, 255, 39);fill-opacity:1.0;fill-rule:evenodd;stroke:rgb(0, 0, 0);stroke-width:3.0;" d="M 333.8, 533.793 L 325.51, 543.82 L 324.83, 542.944 L 324.571, 526.846 L 326.266, 523.768 z "/>
<path style="fill:rgb(246, 150, 52);fill-opacity:1.0;fill-rule:evenodd;stroke:rgb(0, 0, 0);stroke-width:3.0;" d="M 122.792, 24.6737 L 116.094, 39.7708 L 77.7673, 34.8032 L 102.074, 11.5957 z "/>
<path style="fill:rgb(255, 48, 78);fill-opacity:1.0;fill-rule:evenodd;stroke:rgb(0, 0, 0);stroke-width:3.0;" d="M 258.118, 20.6314 L 248.633, 26.4528 L 246.299, 13.7129 L 248.659, 9.22609 z "/>
<path style="fill:rgb(255, 48, 78);fill-opacity:1.0;fill-rule:evenodd;stroke:rgb(0, 0, 0);stroke-width:3.0;" d="M 158.894, 250.559 L 154.93, 252.286 L 91.8815, 150.435 L 108.926, 138.687 z "/>
<path style="fill:rgb(234, 184, 19);fill-opacity:1.0;fill-rule:evenodd;stroke:rgb(0, 0, 0);stroke-width:3.0;" d="M 775.422, 204.824 L 766.302, 213.943 L 762.468, 181.165 L 782.983, 176.612 z "/>
<path style="fill:rgb(255, 1, 25);fill-opacity:1.0;fill-rule:evenodd;stroke:rgb(0, 0, 0);stroke-width:3.0;" d="M 24.6448, 243.365 L 23.9438, 251.369 L 20.164, 253.092 L 6.48216, 235.316 z "/>
<path style="fill:rgb(9, 207, 228);fill-opacity:1.0;fill-rule:evenodd;stroke:rgb(0, 0, 0);stroke-width:3.0;" d="M 640.687, 171.828 L 640.892, 175.265 L 620.519, 206.168 L 619.202, 198.194 L 615.026, 166.852 L 634.128, 165.437 z "/>
<path style="fill:rgb(255, 121, 255);fill-opacity:1.0;fill-rule:evenodd;stroke:rgb(0, 0, 0);stroke-width:3.0;" d="M 142.819, 253.456 L 147.419, 259.075 L 126.672, 258.197 L 107.319, 232.447 L 107.513, 230.892 z "/>
<path style="fill:rgb(255, 22, 255);fill-opacity:1.0;fill-rule:evenodd;stroke:rgb(0, 0, 0);stroke-width:3.0;" d="M 381.328, 212.947 L 346.726, 245.539 L 346.192, 215.02 L 353.208, 203.07 z "/>
<path style="fill:rgb(255, 22, 255);fill-opacity:1.0;fill-rule:evenodd;stroke:rgb(0, 0, 0);stroke-width:3.0;" d="M 142.819, 253.456 L 107.513, 230.892 L 109.739, 213.044 z "/>
<path style="fill:rgb(255, 67, 13);fill-opacity:1.0;fill-rule:evenodd;stroke:rgb(0, 0, 0);stroke-width:3.0;" d="M 136.226, 48.8032 L 129.187, 58.3443 L 120.288, 54.1461 L 127.154, 43.4335 z "/>
<path style="fill:rgb(255, 231, 15);fill-opacity:1.0;fill-rule:evenodd;stroke:rgb(0, 0, 0);stroke-width:3.0;" d="M 101.368, 224.528 L 89.8567, 243.153 L 65.6656, 218.908 L 90.6504, 210.268 z "/>
<path style="fill:rgb(255, 231, 15);fill-opacity:1.0;fill-rule:evenodd;stroke:rgb(0, 0, 0);stroke-width:3.0;" d="M 621.293, 536.065 L 615.316, 543.318 L 607.14, 546.928 L 619.418, 519.463 z "/>
<path style="fill:rgb(88, 38, 255);fill-opacity:1.0;fill-rule:evenodd;stroke:rgb(0, 0, 0);stroke-width:3.0;" d="M 680.015, 276.347 L 660.559, 322.203 L 637.959, 338.966 L 630.884, 285.868 L 677.066, 261.427 z "/>
<path style="fill:rgb(252, 231, 17);fill-opacity:1.0;fill-rule:evenodd;stroke:rgb(0, 0, 0);stroke-width:3.0;" d="M 402.266, 573.351 L 390.701, 570.902 L 398.748, 542.553 L 400.309, 539.614 L 409.678, 538.623 z "/>
<path style="fill:rgb(197, 249, 255);fill-opacity:1.0;fill-rule:evenodd;stroke:rgb(0, 0, 0);stroke-width:3.0;" d="M 394.086, 558.978 L 378.263, 592.953 L 374.581, 588.053 L 398.748, 542.553 z "/>
<path style="fill:rgb(212, 33, 6);fill-opacity:1.0;fill-rule:evenodd;stroke:rgb(0, 0, 0);stroke-width:3.0;" d="M 633.639, 53.9081 L 633.67, 54.4405 L 619.62, 36.7526 L 629.137, 27.6885 z "/>
<path style="fill:rgb(212, 11, 255);fill-opacity:1.0;fill-rule:evenodd;stroke:rgb(0, 0, 0);stroke-width:3.0;" d="M 678.831, 260.493 L 636.886, 282.692 L 630.578, 283.571 L 626.183, 250.588 z "/>
<path style="fill:rgb(255, 1, 91);fill-opacity:1.0;fill-rule:evenodd;stroke:rgb(0, 0, 0);stroke-width:3.0;" d="M 548.562, 61.953 L 550.149, 87.2839 L 548.732, 91.1029 L 539.414, 84.5555 L 547.263, 59.9383 z "/>
<path style="fill:rgb(246, 23, 252);fill-opacity:1.0;fill-rule:evenodd;stroke:rgb(0, 0, 0);stroke-width:3.0;" d="M 81.5879, 133.806 L 81.4013, 154.182 L 65.7641, 153.199 L 66.5181, 151.5 L 80.4871, 132.028 z "/>
<path style="fill:rgb(94, 249, 220);fill-opacity:1.0;fill-rule:evenodd;stroke:rgb(0, 0, 0);stroke-width:3.0;" d="M 421.071, 222.247 L 426.382, 247.495 L 412.119, 221.156 L 412.007, 220.441 z "/>
<path style="fill:rgb(249, 255, 35);fill-opacity:1.0;fill-rule:evenodd;stroke:rgb(0, 0, 0);stroke-width:3.0;" d="M 402.797, 586.846 L 399.917, 584.355 L 408.752, 542.96 L 411.795, 542.912 z "/>
<path style="fill:rgb(255, 255, 24);fill-opacity:1.0;fill-rule:evenodd;stroke:rgb(0, 0, 0);stroke-width:3.0;" d="M 292.126, 478.342 L 281.451, 486.411 L 270.139, 473.264 L 288.194, 473.11 z "/>
<path style="fill:rgb(255, 1, 17);fill-opacity:1.0;fill-rule:evenodd;stroke:rgb(0, 0, 0);stroke-width:3.0;" d="M 258.454, 364.475 L 241.868, 392.728 L 232.755, 378.006 L 234.714, 361.518 z "/>
<path style="fill:rgb(255, 19, 78);fill-opacity:1.0;fill-rule:evenodd;stroke:rgb(0, 0, 0);stroke-width:3.0;" d="M 234.714, 361.518 L 232.755, 378.006 L 221.531, 359.875 z "/>
<path style="fill:rgb(252, 19, 75);fill-opacity:1.0;fill-rule:evenodd;stroke:rgb(0, 0, 0);stroke-width:3.0;" d="M 77.0267, 10.5247 L 45.3484, 21.9913 L 41.7642, 21.3136 L 53.2452, 7.17552 L 54.6316, 6.71161 z "/>
<path style="fill:rgb(177, 142, 255);fill-opacity:1.0;fill-rule:evenodd;stroke:rgb(0, 0, 0);stroke-width:3.0;" d="M 400.31, 250.969 L 348.833, 279.749 L 310.622, 279.544 L 312.06, 278.19 L 392.642, 248.035 z "/>
<path style="fill:rgb(234, 243, 27);fill-opacity:1.0;fill-rule:evenodd;stroke:rgb(0, 0, 0);stroke-width:3.0;" d="M 221.097, 383.834 L 217.875, 392.634 L 207.133, 391.98 L 194.439, 348.365 z "/>
<path style="fill:rgb(255, 18, 13);fill-opacity:1.0;fill-rule:evenodd;stroke:rgb(0, 0, 0);stroke-width:3.0;" d="M 436.724, 264.906 L 459.896, 280.345 L 348.833, 279.749 L 400.31, 250.969 z "/>
<path style="fill:rgb(65, 243, 43);fill-opacity:1.0;fill-rule:evenodd;stroke:rgb(0, 0, 0);stroke-width:3.0;" d="M 470.142, 277.695 L 466.579, 280.38 L 459.896, 280.345 L 436.724, 264.906 z "/>
<path style="fill:rgb(66, 2, 255);fill-opacity:1.0;fill-rule:evenodd;stroke:rgb(0, 0, 0);stroke-width:3.0;" d="M 39.6039, 88.3023 L 22.878, 61.543 L 61.1055, 54.028 z "/>
<path style="fill:rgb(75, 255, 255);fill-opacity:1.0;fill-rule:evenodd;stroke:rgb(0, 0, 0);stroke-width:3.0;" d="M 436.142, 225.251 L 469.48, 264.382 L 468.054, 276.896 L 429.46, 262.125 L 421.071, 222.247 z "/>
<path style="fill:rgb(255, 255, 7);fill-opacity:1.0;fill-rule:evenodd;stroke:rgb(0, 0, 0);stroke-width:3.0;" d="M 106.55, 215.725 L 109.123, 217.983 L 107.319, 232.447 L 92.6709, 212.957 z "/>
<path style="fill:rgb(220, 199, 255);fill-opacity:1.0;fill-rule:evenodd;stroke:rgb(0, 0, 0);stroke-width:3.0;" d="M 712.301, 580.577 L 696.002, 581.674 L 668.79, 570.36 L 667.795, 562.894 L 729.725, 531.227 z "/>
</svg>