<?xml version="1.0" encoding="iso-8859-1" standalone="no"?>
<!DOCTYPE svg PUBLIC "-//W3C//DTD SVG 1.0//EN" "http://www.w3.org/TR/2001/REC-SVG-20010904/DTD/svg10.dtd">
<svg xmlns="http://www.w3.org/2000/svg" width="800" height="600">
<path style="fill:rgb(0, 0, 0);fill-opacity:0.0;fill-rule:evenodd;stroke:rgb(0, 0, 0);stroke-width:0.0;" d="M 0, 600 L 800, 600 L 800, 0 L 0, 0 z "/>
<path style="fill:rgb(81, 255, 240);fill-opacity:1.0;fill-rule:evenodd;stroke:rgb(0, 0, 0);stroke-width:3.0;" d="M 422.302, 108.763 L 386.843, 142.054 L 402.706, 63.6744 z "/>
<path style="fill:rgb(81, 255, 240);fill-opacity:1.0;fill-rule:evenodd;stroke:rgb(0, 0, 0);stroke-width:3.0;" d="M 72.4214, 90.2684 L 62.4492, 85.4821 L 86.2214, 74.8146 L 88.3598, 74.4749 z "/>
<path style="fill:rgb(81, 255, 240);fill-opacity:1.0;fill-rule:evenodd;stroke:rgb(0, 0, 0);stroke-width:3.0;" d="M 36.5035, 573.745 L 36.6305, 584.976 L 35.2818, 588.493 L 28.4223, 585.222 L 28.2063, 578.196 L 30.2456, 572.282 L 35.1291, 569.35 z "/>
<path style="fill:rgb(81, 255, 240);fill-opacity:1.0;fill-rule:evenodd;stroke:rgb(0, 0, 0);stroke-width:3.0;" d="M 166.585, 263.014 L 162.626, 292.488 L 31.4044, 268.823 L 154.838, 210.143 z "/>
<path style="fill:rgb(255, 17, 9);fill-opacity:1.0;fill-rule:evenodd;stroke:rgb(0, 0, 0);stroke-width:3.0;" d="M 126.662, 332.781 L 132.6, 343.906 L 111.438, 382.601 L 109.74, 353.175 L 122.528, 332.277 z "/>
<path style="fill:rgb(255, 17, 9);fill-opacity:1.0;fill-rule:evenodd;stroke:rgb(0, 0, 0);stroke-width:3.0;" d="M 48.6991, 241.066 L 37.1408, 241.873 L 35.2299, 223.649 z "/>
<path style="fill:rgb(255, 17, 9);fill-opacity:1.0;fill-rule:evenodd;stroke:rgb(0, 0, 0);stroke-width:3.0;" d="M 173.572, 294.462 L 174.597, 299.077 L 146.753, 375.591 L 131.929, 398.934 L 127.333, 387.56 L 139.964, 330.441 L 160.892, 292.175 z "/>
<path style="fill:rgb(231, 252, 7);fill-opacity:1.0;fill-rule:evenodd;stroke:rgb(0, 0, 0);stroke-width:3.0;" d="M 591.976, 352.073 L 448.386, 432.398 L 451.542, 389.401 L 520.745, 329.129 L 554.315, 321.752 z "/>
<path style="fill:rgb(255, 255, 40);fill-opacity:1.0;fill-rule:evenodd;stroke:rgb(0, 0, 0);stroke-width:3.0;" d="M 451.542, 389.401 L 454.903, 343.6 L 520.745, 329.129 z "/>
<path style="fill:rgb(252, 237, 16);fill-opacity:1.0;fill-rule:evenodd;stroke:rgb(0, 0, 0);stroke-width:3.0;" d="M 77.66, 434.789 L 77.8398, 435.131 L 41.4367, 439.621 L 35.5334, 435.764 L 68.2042, 428.584 z "/>
<path style="fill:rgb(252, 237, 16);fill-opacity:1.0;fill-rule:evenodd;stroke:rgb(0, 0, 0);stroke-width:3.0;" d="M 219.786, 139.457 L 218.078, 145.491 L 203.774, 156.673 L 202.123, 156.905 L 200.879, 143.516 L 200.414, 134.061 z "/>
<path style="fill:rgb(252, 237, 16);fill-opacity:1.0;fill-rule:evenodd;stroke:rgb(0, 0, 0);stroke-width:3.0;" d="M 484.196, 567.178 L 490.301, 585.244 L 471.012, 587.579 L 454.582, 574.178 L 454.778, 567.747 L 471.69, 563.941 z "/>
<path style="fill:rgb(252, 237, 16);fill-opacity:1.0;fill-rule:evenodd;stroke:rgb(0, 0, 0);stroke-width:3.0;" d="M 391.912, 367.986 L 396.884, 397.287 L 389.113, 400.578 L 380.136, 363.724 z "/>
<path style="fill:rgb(252, 237, 16);fill-opacity:1.0;fill-rule:evenodd;stroke:rgb(0, 0, 0);stroke-width:3.0;" d="M 371.124, 391.627 L 357.34, 389.244 L 348.978, 366.879 L 365.581, 363.23 z "/>
<path style="fill:rgb(255, 14, 14);fill-opacity:1.0;fill-rule:evenodd;stroke:rgb(0, 0, 0);stroke-width:3.0;" d="M 132.871, 552.434 L 127.771, 563.264 L 76.7292, 571.425 L 36.4681, 570.619 L 35.9574, 525.47 L 108.999, 522.9 z "/>
<path style="fill:rgb(255, 165, 10);fill-opacity:1.0;fill-rule:evenodd;stroke:rgb(0, 0, 0);stroke-width:3.0;" d="M 379.887, 280.635 L 377.363, 264.62 L 381.44, 259.739 L 425.099, 244.232 z "/>
<path style="fill:rgb(255, 165, 10);fill-opacity:1.0;fill-rule:evenodd;stroke:rgb(0, 0, 0);stroke-width:3.0;" d="M 106.37, 519.648 L 108.999, 522.9 L 35.9574, 525.47 L 35.6582, 499.021 z "/>
<path style="fill:rgb(13, 212, 234);fill-opacity:1.0;fill-rule:evenodd;stroke:rgb(0, 0, 0);stroke-width:3.0;" d="M 356.022, 422.735 L 157.196, 435.651 L 144.412, 411.836 L 345.418, 367.661 z "/>
<path style="fill:rgb(243, 13, 13);fill-opacity:1.0;fill-rule:evenodd;stroke:rgb(0, 0, 0);stroke-width:3.0;" d="M 132.01, 200.009 L 131.289, 200.098 L 129.469, 152.048 L 134.432, 147.961 z "/>
<path style="fill:rgb(243, 13, 13);fill-opacity:1.0;fill-rule:evenodd;stroke:rgb(0, 0, 0);stroke-width:3.0;" d="M 142.255, 288.814 L 107.536, 314.981 L 105.646, 282.212 z "/>
<path style="fill:rgb(243, 13, 13);fill-opacity:1.0;fill-rule:evenodd;stroke:rgb(0, 0, 0);stroke-width:3.0;" d="M 177.627, 560.48 L 156.681, 585.116 L 127.239, 529.106 L 139.747, 513.36 z "/>
<path style="fill:rgb(243, 13, 13);fill-opacity:1.0;fill-rule:evenodd;stroke:rgb(0, 0, 0);stroke-width:3.0;" d="M 651.801, 318.606 L 626.518, 332.749 L 624.18, 332.916 L 610.516, 327.421 L 611.918, 309.092 L 619.394, 307.449 z "/>
<path style="fill:rgb(243, 13, 13);fill-opacity:1.0;fill-rule:evenodd;stroke:rgb(0, 0, 0);stroke-width:3.0;" d="M 26.9821, 481.092 L 35.5283, 487.539 L 35.5638, 490.674 L 26.8699, 497.626 L 21.617, 490.455 L 26.2347, 480.687 z "/>
<path style="fill:rgb(255, 9, 255);fill-opacity:1.0;fill-rule:evenodd;stroke:rgb(0, 0, 0);stroke-width:3.0;" d="M 157.787, 208.741 L 132.08, 220.963 L 131.611, 208.587 L 134.432, 147.961 L 138.235, 144.829 z "/>
<path style="fill:rgb(255, 9, 255);fill-opacity:1.0;fill-rule:evenodd;stroke:rgb(0, 0, 0);stroke-width:3.0;" d="M 158.456, 164.558 L 146.618, 172.233 L 142.228, 157.881 z "/>
<path style="fill:rgb(255, 9, 255);fill-opacity:1.0;fill-rule:evenodd;stroke:rgb(0, 0, 0);stroke-width:3.0;" d="M 150.463, 161.269 L 142.228, 157.881 L 140.568, 152.458 L 154.818, 146.446 z "/>
<path style="fill:rgb(255, 9, 255);fill-opacity:1.0;fill-rule:evenodd;stroke:rgb(0, 0, 0);stroke-width:3.0;" d="M 195.331, 83.7938 L 145.371, 124.121 L 191.579, 43.3929 z "/>
<path style="fill:rgb(255, 228, 11);fill-opacity:1.0;fill-rule:evenodd;stroke:rgb(0, 0, 0);stroke-width:3.0;" d="M 762.222, 285.102 L 710.347, 295.014 L 713.988, 290.659 L 732.377, 284.008 z "/>
<path style="fill:rgb(92, 119, 237);fill-opacity:1.0;fill-rule:evenodd;stroke:rgb(0, 0, 0);stroke-width:3.0;" d="M 25.6817, 202.888 L 25.2253, 208.883 L 22.8901, 220.763 L 12.1711, 219.827 L 12.2391, 218.44 L 17.9474, 201.371 z "/>
<path style="fill:rgb(79, 252, 255);fill-opacity:1.0;fill-rule:evenodd;stroke:rgb(0, 0, 0);stroke-width:3.0;" d="M 90.3116, 458.857 L 76.2787, 462.381 L 41.4367, 439.621 L 77.8398, 435.131 z "/>
<path style="fill:rgb(255, 152, 10);fill-opacity:1.0;fill-rule:evenodd;stroke:rgb(0, 0, 0);stroke-width:3.0;" d="M 91.6027, 485.442 L 79.928, 486.934 L 72.6141, 477.886 L 77.1451, 470.315 z "/>
<path style="fill:rgb(255, 152, 10);fill-opacity:1.0;fill-rule:evenodd;stroke:rgb(0, 0, 0);stroke-width:3.0;" d="M 379.887, 280.635 L 360.571, 296.187 L 360.04, 285.362 L 377.363, 264.62 z "/>
<path style="fill:rgb(255, 152, 10);fill-opacity:1.0;fill-rule:evenodd;stroke:rgb(0, 0, 0);stroke-width:3.0;" d="M 21.3307, 543.332 L 17.8351, 543.173 L 5.20116, 536.303 L 8.78257, 529.762 L 12.6569, 527.401 z "/>
<path style="fill:rgb(255, 152, 10);fill-opacity:1.0;fill-rule:evenodd;stroke:rgb(0, 0, 0);stroke-width:3.0;" d="M 174.604, 299.108 L 158.965, 354.369 L 155.936, 350.357 L 174.597, 299.077 z "/>
<path style="fill:rgb(83, 255, 179);fill-opacity:1.0;fill-rule:evenodd;stroke:rgb(0, 0, 0);stroke-width:3.0;" d="M 596.224, 347.318 L 590.552, 350.926 L 580.481, 342.818 L 572.382, 327.571 z "/>
<path style="fill:rgb(83, 255, 179);fill-opacity:1.0;fill-rule:evenodd;stroke:rgb(0, 0, 0);stroke-width:3.0;" d="M 220.003, 138.689 L 219.849, 138.604 L 228.981, 58.131 L 251.997, 25.639 z "/>
<path style="fill:rgb(255, 170, 18);fill-opacity:1.0;fill-rule:evenodd;stroke:rgb(0, 0, 0);stroke-width:3.0;" d="M 30.4065, 177.649 L 32.945, 201.858 L 25.641, 203.422 L 27.6563, 176.945 z "/>
<path style="fill:rgb(255, 170, 18);fill-opacity:1.0;fill-rule:evenodd;stroke:rgb(0, 0, 0);stroke-width:3.0;" d="M 387.333, 526.34 L 385.279, 526.162 L 382.86, 504.197 L 392.438, 503.261 z "/>
<path style="fill:rgb(255, 170, 18);fill-opacity:1.0;fill-rule:evenodd;stroke:rgb(0, 0, 0);stroke-width:3.0;" d="M 131.439, 368.993 L 125.278, 357.294 L 139.964, 330.441 z "/>
<path style="fill:rgb(42, 172, 255);fill-opacity:1.0;fill-rule:evenodd;stroke:rgb(0, 0, 0);stroke-width:3.0;" d="M 311.445, 312.763 L 256.624, 363.824 L 228.399, 314.096 L 291.246, 291.774 z "/>
<path style="fill:rgb(42, 172, 255);fill-opacity:1.0;fill-rule:evenodd;stroke:rgb(0, 0, 0);stroke-width:3.0;" d="M 325.793, 453.208 L 311.459, 473.53 L 298.471, 426.474 L 308.212, 425.841 z "/>
<path style="fill:rgb(42, 172, 255);fill-opacity:1.0;fill-rule:evenodd;stroke:rgb(0, 0, 0);stroke-width:3.0;" d="M 432.673, 384.471 L 411.93, 389.656 L 409.773, 389.604 L 419.579, 380.612 L 445.863, 365.249 z "/>
<path style="fill:rgb(42, 172, 255);fill-opacity:1.0;fill-rule:evenodd;stroke:rgb(0, 0, 0);stroke-width:3.0;" d="M 156.494, 391.992 L 179.534, 404.117 L 144.271, 411.867 L 144.394, 405.855 L 148.601, 390.991 z "/>
<path style="fill:rgb(42, 172, 255);fill-opacity:1.0;fill-rule:evenodd;stroke:rgb(0, 0, 0);stroke-width:3.0;" d="M 175.737, 115.411 L 176.272, 130.393 L 147.272, 134.656 L 170.868, 109.636 z "/>
<path style="fill:rgb(42, 172, 255);fill-opacity:1.0;fill-rule:evenodd;stroke:rgb(0, 0, 0);stroke-width:3.0;" d="M 90.0964, 184.471 L 105.963, 161.093 L 130.817, 150.938 z "/>
<path style="fill:rgb(42, 172, 255);fill-opacity:1.0;fill-rule:evenodd;stroke:rgb(0, 0, 0);stroke-width:3.0;" d="M 380.136, 363.724 L 389.113, 400.578 L 374.111, 406.931 L 365.581, 363.23 L 373.787, 361.426 z "/>
<path style="fill:rgb(42, 172, 255);fill-opacity:1.0;fill-rule:evenodd;stroke:rgb(0, 0, 0);stroke-width:3.0;" d="M 35.1728, 456.11 L 35.2809, 465.67 L 21.0656, 469.654 L 11.1938, 466.1 L 13.3518, 457.127 L 28.4832, 453.545 z "/>
<path style="fill:rgb(255, 48, 100);fill-opacity:1.0;fill-rule:evenodd;stroke:rgb(0, 0, 0);stroke-width:3.0;" d="M 352.675, 388.438 L 389.014, 483.293 L 390.533, 491.076 L 368.688, 488.51 L 349.306, 387.855 z "/>
<path style="fill:rgb(212, 2, 249);fill-opacity:1.0;fill-rule:evenodd;stroke:rgb(0, 0, 0);stroke-width:3.0;" d="M 687.855, 552.294 L 438.811, 564.055 L 430.311, 530.051 z "/>
<path style="fill:rgb(212, 2, 249);fill-opacity:1.0;fill-rule:evenodd;stroke:rgb(0, 0, 0);stroke-width:3.0;" d="M 661.011, 313.454 L 663.234, 297.815 L 705.618, 288.5 z "/>
<path style="fill:rgb(212, 2, 249);fill-opacity:1.0;fill-rule:evenodd;stroke:rgb(0, 0, 0);stroke-width:3.0;" d="M 88.5702, 122.637 L 51.6165, 117.096 L 46.5732, 115.882 L 58.0531, 104.506 z "/>
<path style="fill:rgb(212, 2, 249);fill-opacity:1.0;fill-rule:evenodd;stroke:rgb(0, 0, 0);stroke-width:3.0;" d="M 445.482, 471.978 L 448.386, 432.398 L 477.564, 416.076 z "/>
<path style="fill:rgb(212, 2, 249);fill-opacity:1.0;fill-rule:evenodd;stroke:rgb(0, 0, 0);stroke-width:3.0;" d="M 45.9714, 104.614 L 39.449, 110.127 L 23.9869, 119.048 L 14.0607, 107.196 L 26.235, 101.733 z "/>
<path style="fill:rgb(212, 2, 249);fill-opacity:1.0;fill-rule:evenodd;stroke:rgb(0, 0, 0);stroke-width:3.0;" d="M 364.892, 390.55 L 372.694, 399.674 L 389.014, 483.293 L 352.675, 388.438 z "/>
<path style="fill:rgb(13, 234, 179);fill-opacity:1.0;fill-rule:evenodd;stroke:rgb(0, 0, 0);stroke-width:3.0;" d="M 84.708, 75.0549 L 33.5458, 83.1813 L 13.528, 82.04 L 25.2563, 68.1621 L 50.1508, 43.7644 z "/>
<path style="fill:rgb(255, 243, 21);fill-opacity:1.0;fill-rule:evenodd;stroke:rgb(0, 0, 0);stroke-width:3.0;" d="M 72.5938, 459.974 L 72.5821, 460.049 L 58.0173, 459.827 L 52.4027, 452.881 L 50.2025, 445.347 z "/>
<path style="fill:rgb(255, 255, 49);fill-opacity:1.0;fill-rule:evenodd;stroke:rgb(0, 0, 0);stroke-width:3.0;" d="M 265.692, 372.579 L 244.162, 389.914 L 225.552, 394.004 L 225.362, 392.942 L 259.103, 361.515 z "/>
<path style="fill:rgb(255, 204, 30);fill-opacity:1.0;fill-rule:evenodd;stroke:rgb(0, 0, 0);stroke-width:3.0;" d="M 31.2887, 484.341 L 20.164, 475.948 L 16.946, 472.681 L 33.4141, 469.25 z "/>
<path style="fill:rgb(83, 228, 163);fill-opacity:1.0;fill-rule:evenodd;stroke:rgb(0, 0, 0);stroke-width:3.0;" d="M 177.279, 252.69 L 177.676, 286.218 L 170.615, 281.152 L 170.477, 280.532 L 176.753, 252.411 z "/>
<path style="fill:rgb(136, 9, 179);fill-opacity:1.0;fill-rule:evenodd;stroke:rgb(0, 0, 0);stroke-width:3.0;" d="M 406.205, 452.219 L 393.785, 443.59 L 395.979, 397.67 L 396.884, 397.287 z "/>
<path style="fill:rgb(136, 9, 179);fill-opacity:1.0;fill-rule:evenodd;stroke:rgb(0, 0, 0);stroke-width:3.0;" d="M 299.68, 345.214 L 276.091, 364.207 L 262.543, 358.311 L 272.859, 348.702 L 292.099, 337.385 z "/>
<path style="fill:rgb(136, 9, 179);fill-opacity:1.0;fill-rule:evenodd;stroke:rgb(0, 0, 0);stroke-width:3.0;" d="M 66.3754, 87.3665 L 48.4597, 102.511 L 29.9045, 100.086 L 62.4492, 85.4821 z "/>
<path style="fill:rgb(136, 9, 179);fill-opacity:1.0;fill-rule:evenodd;stroke:rgb(0, 0, 0);stroke-width:3.0;" d="M 423.494, 466.507 L 423.888, 478.694 L 411.928, 485.95 L 406.169, 452.008 L 414.782, 433.128 z "/>
<path style="fill:rgb(255, 9, 94);fill-opacity:1.0;fill-rule:evenodd;stroke:rgb(0, 0, 0);stroke-width:3.0;" d="M 157.196, 435.651 L 132.021, 437.287 L 128.641, 415.302 L 144.412, 411.836 z "/>
<path style="fill:rgb(172, 255, 18);fill-opacity:1.0;fill-rule:evenodd;stroke:rgb(0, 0, 0);stroke-width:3.0;" d="M 393.264, 454.499 L 381.584, 445.221 L 374.111, 406.931 L 395.979, 397.67 z "/>
<path style="fill:rgb(23, 26, 255);fill-opacity:1.0;fill-rule:evenodd;stroke:rgb(0, 0, 0);stroke-width:3.0;" d="M 361.535, 451.364 L 341.257, 431.285 L 342.218, 429.922 L 357.204, 428.872 z "/>
<path style="fill:rgb(23, 26, 255);fill-opacity:1.0;fill-rule:evenodd;stroke:rgb(0, 0, 0);stroke-width:3.0;" d="M 105.646, 282.212 L 111.438, 382.601 L 100.986, 401.711 L 33.3787, 269.179 z "/>
<path style="fill:rgb(255, 223, 11);fill-opacity:1.0;fill-rule:evenodd;stroke:rgb(0, 0, 0);stroke-width:3.0;" d="M 256.624, 363.824 L 223.812, 394.386 L 194.668, 400.791 L 187.128, 329.552 L 188.494, 328.269 L 228.399, 314.096 z "/>
<path style="fill:rgb(255, 8, 11);fill-opacity:1.0;fill-rule:evenodd;stroke:rgb(0, 0, 0);stroke-width:3.0;" d="M 178.887, 366.786 L 194.021, 394.677 L 194.668, 400.791 L 193.434, 401.063 L 164.955, 366.153 L 160.174, 354.858 L 161.302, 353.798 z "/>
<path style="fill:rgb(255, 8, 11);fill-opacity:1.0;fill-rule:evenodd;stroke:rgb(0, 0, 0);stroke-width:3.0;" d="M 350.306, 523.142 L 368.886, 527.22 L 330.027, 526.412 L 335.033, 521.823 z "/>
<path style="fill:rgb(255, 8, 11);fill-opacity:1.0;fill-rule:evenodd;stroke:rgb(0, 0, 0);stroke-width:3.0;" d="M 202.365, 159.512 L 161.412, 143.664 L 199.404, 127.636 z "/>
<path style="fill:rgb(231, 17, 237);fill-opacity:1.0;fill-rule:evenodd;stroke:rgb(0, 0, 0);stroke-width:3.0;" d="M 742.2, 405.12 L 734.277, 445.509 L 718.77, 416.947 L 728.746, 398.322 z "/>
<path style="fill:rgb(231, 17, 237);fill-opacity:1.0;fill-rule:evenodd;stroke:rgb(0, 0, 0);stroke-width:3.0;" d="M 726.169, 542.499 L 704.744, 545.331 L 650.277, 478.055 L 727.426, 470.513 z "/>
<path style="fill:rgb(231, 17, 237);fill-opacity:1.0;fill-rule:evenodd;stroke:rgb(0, 0, 0);stroke-width:3.0;" d="M 772.171, 466.139 L 729.41, 470.319 L 731.338, 460.494 z "/>
<path style="fill:rgb(231, 17, 237);fill-opacity:1.0;fill-rule:evenodd;stroke:rgb(0, 0, 0);stroke-width:3.0;" d="M 726.141, 470.639 L 642.396, 478.826 L 630.831, 465.94 L 618.694, 443.836 z "/>
<path style="fill:rgb(255, 228, 14);fill-opacity:1.0;fill-rule:evenodd;stroke:rgb(0, 0, 0);stroke-width:3.0;" d="M 56.9488, 251.734 L 38.8835, 258.492 L 38.5127, 254.956 L 49.5053, 242.108 z "/>
<path style="fill:rgb(249, 19, 7);fill-opacity:1.0;fill-rule:evenodd;stroke:rgb(0, 0, 0);stroke-width:3.0;" d="M 141.461, 489.066 L 102.731, 439.19 L 171.73, 434.707 z "/>
<path style="fill:rgb(249, 19, 7);fill-opacity:1.0;fill-rule:evenodd;stroke:rgb(0, 0, 0);stroke-width:3.0;" d="M 84.939, 188.188 L 68.6151, 183.856 L 60.401, 158.951 z "/>
<path style="fill:rgb(249, 19, 7);fill-opacity:1.0;fill-rule:evenodd;stroke:rgb(0, 0, 0);stroke-width:3.0;" d="M 125.893, 408.44 L 120.382, 417.117 L 88.7599, 424.067 L 97.7744, 407.584 L 118.736, 399.108 z "/>
<path style="fill:rgb(249, 255, 78);fill-opacity:1.0;fill-rule:evenodd;stroke:rgb(0, 0, 0);stroke-width:3.0;" d="M 409.866, 398.575 L 411.505, 415.318 L 402.235, 428.826 L 396.163, 393.04 z "/>
<path style="fill:rgb(255, 187, 17);fill-opacity:1.0;fill-rule:evenodd;stroke:rgb(0, 0, 0);stroke-width:3.0;" d="M 187.555, 129.431 L 170.868, 109.636 L 184.615, 95.06 z "/>
<path style="fill:rgb(255, 187, 17);fill-opacity:1.0;fill-rule:evenodd;stroke:rgb(0, 0, 0);stroke-width:3.0;" d="M 303.665, 594.235 L 291.866, 570.994 L 327.807, 569.297 z "/>
<path style="fill:rgb(255, 187, 17);fill-opacity:1.0;fill-rule:evenodd;stroke:rgb(0, 0, 0);stroke-width:3.0;" d="M 528.736, 568.533 L 524.457, 584.211 L 513.051, 584.059 L 484.27, 561.908 L 511.467, 560.624 z "/>
<path style="fill:rgb(255, 187, 17);fill-opacity:1.0;fill-rule:evenodd;stroke:rgb(0, 0, 0);stroke-width:3.0;" d="M 407.902, 466.128 L 398.422, 472.871 L 386.592, 470.883 L 381.584, 445.221 z "/>
<path style="fill:rgb(255, 187, 17);fill-opacity:1.0;fill-rule:evenodd;stroke:rgb(0, 0, 0);stroke-width:3.0;" d="M 449.963, 359.275 L 445.863, 365.249 L 403.19, 390.191 L 398.946, 386.989 L 430.245, 351.511 z "/>
<path style="fill:rgb(249, 255, 11);fill-opacity:1.0;fill-rule:evenodd;stroke:rgb(0, 0, 0);stroke-width:3.0;" d="M 296.686, 226.696 L 158.339, 356.58 L 244.699, 51.4277 z "/>
<path style="fill:rgb(240, 121, 18);fill-opacity:1.0;fill-rule:evenodd;stroke:rgb(0, 0, 0);stroke-width:3.0;" d="M 257.566, 516.446 L 232.117, 518.934 L 248.93, 506.765 L 252.391, 506.732 z "/>
<path style="fill:rgb(207, 3, 255);fill-opacity:1.0;fill-rule:evenodd;stroke:rgb(0, 0, 0);stroke-width:3.0;" d="M 299.161, 585.363 L 274.817, 584.502 L 270.475, 572.004 L 291.866, 570.994 z "/>
<path style="fill:rgb(59, 252, 231);fill-opacity:1.0;fill-rule:evenodd;stroke:rgb(0, 0, 0);stroke-width:3.0;" d="M 251.441, 504.948 L 232.117, 518.934 L 169.414, 525.063 L 141.461, 489.066 L 171.73, 434.707 L 212.61, 432.051 z "/>
<path style="fill:rgb(59, 252, 231);fill-opacity:1.0;fill-rule:evenodd;stroke:rgb(0, 0, 0);stroke-width:3.0;" d="M 84.939, 188.188 L 97.4522, 203.097 L 99.6163, 224.996 L 79.1322, 215.743 L 68.6151, 183.856 z "/>
<path style="fill:rgb(59, 252, 231);fill-opacity:1.0;fill-rule:evenodd;stroke:rgb(0, 0, 0);stroke-width:3.0;" d="M 413.157, 493.191 L 413.251, 493.744 L 390.533, 491.076 L 387.744, 476.784 z "/>
<path style="fill:rgb(59, 252, 231);fill-opacity:1.0;fill-rule:evenodd;stroke:rgb(0, 0, 0);stroke-width:3.0;" d="M 782.983, 281.135 L 764.773, 284.614 L 745.767, 279.677 L 765.564, 275.326 z "/>
<path style="fill:rgb(255, 4, 57);fill-opacity:1.0;fill-rule:evenodd;stroke:rgb(0, 0, 0);stroke-width:3.0;" d="M 72.4214, 90.2684 L 70.4007, 92.2707 L 39.449, 110.127 L 66.3754, 87.3665 z "/>
<path style="fill:rgb(255, 4, 57);fill-opacity:1.0;fill-rule:evenodd;stroke:rgb(0, 0, 0);stroke-width:3.0;" d="M 37.6148, 265.871 L 36.4869, 266.407 L 9.16273, 252.358 L 26.4724, 229.386 z "/>
<path style="fill:rgb(255, 4, 57);fill-opacity:1.0;fill-rule:evenodd;stroke:rgb(0, 0, 0);stroke-width:3.0;" d="M 122.173, 92.3264 L 95.2358, 67.6614 L 110.117, 52.9159 z "/>
<path style="fill:rgb(255, 4, 57);fill-opacity:1.0;fill-rule:evenodd;stroke:rgb(0, 0, 0);stroke-width:3.0;" d="M 189.444, 396.172 L 193.434, 401.063 L 179.534, 404.117 L 173.53, 400.957 L 174.871, 394.324 z "/>
<path style="fill:rgb(255, 4, 57);fill-opacity:1.0;fill-rule:evenodd;stroke:rgb(0, 0, 0);stroke-width:3.0;" d="M 443.798, 494.93 L 438.666, 494.876 L 427.262, 492.05 L 443.038, 481.509 L 444.789, 481.426 z "/>
<path style="fill:rgb(252, 7, 7);fill-opacity:1.0;fill-rule:evenodd;stroke:rgb(0, 0, 0);stroke-width:3.0;" d="M 57.0979, 30.485 L 38.1336, 52.9248 L 30.1232, 13.5281 L 48.9743, 7.65377 z "/>
<path style="fill:rgb(252, 7, 7);fill-opacity:1.0;fill-rule:evenodd;stroke:rgb(0, 0, 0);stroke-width:3.0;" d="M 178.017, 536.142 L 182.203, 566.171 L 79.6983, 438.666 L 73.7571, 427.364 L 90.6625, 423.649 z "/>
<path style="fill:rgb(175, 24, 189);fill-opacity:1.0;fill-rule:evenodd;stroke:rgb(0, 0, 0);stroke-width:3.0;" d="M 189.444, 396.172 L 148.601, 390.991 L 158.031, 357.667 z "/>
<path style="fill:rgb(175, 24, 189);fill-opacity:1.0;fill-rule:evenodd;stroke:rgb(0, 0, 0);stroke-width:3.0;" d="M 128.645, 395.102 L 110.807, 402.314 L 99.4228, 404.57 L 104.212, 395.813 L 119.805, 388.371 z "/>
<path style="fill:rgb(175, 24, 189);fill-opacity:1.0;fill-rule:evenodd;stroke:rgb(0, 0, 0);stroke-width:3.0;" d="M 337.027, 310.958 L 319.986, 320.982 L 330.76, 298.243 z "/>
<path style="fill:rgb(175, 24, 189);fill-opacity:1.0;fill-rule:evenodd;stroke:rgb(0, 0, 0);stroke-width:3.0;" d="M 192.102, 376.546 L 161.302, 353.798 L 187.128, 329.552 z "/>
<path style="fill:rgb(255, 4, 81);fill-opacity:1.0;fill-rule:evenodd;stroke:rgb(0, 0, 0);stroke-width:3.0;" d="M 132.08, 220.963 L 118.046, 227.634 L 104.871, 211.937 L 92.3811, 188.674 L 130.842, 188.307 z "/>
<path style="fill:rgb(252, 182, 45);fill-opacity:1.0;fill-rule:evenodd;stroke:rgb(0, 0, 0);stroke-width:3.0;" d="M 311.459, 473.53 L 282.938, 513.965 L 257.566, 516.446 L 212.61, 432.051 L 298.471, 426.474 z "/>
<path style="fill:rgb(252, 182, 45);fill-opacity:1.0;fill-rule:evenodd;stroke:rgb(0, 0, 0);stroke-width:3.0;" d="M 169.278, 169.01 L 179.174, 191.807 L 151.889, 189.461 L 146.618, 172.233 L 158.456, 164.558 z "/>
<path style="fill:rgb(252, 182, 45);fill-opacity:1.0;fill-rule:evenodd;stroke:rgb(0, 0, 0);stroke-width:3.0;" d="M 353.796, 287.271 L 358.24, 298.064 L 356.317, 299.612 L 337.027, 310.958 L 329.587, 295.864 L 345.097, 281.418 z "/>
<path style="fill:rgb(255, 6, 12);fill-opacity:1.0;fill-rule:evenodd;stroke:rgb(0, 0, 0);stroke-width:3.0;" d="M 196.565, 97.0733 L 184.929, 98.7303 L 184.615, 95.06 L 194.948, 84.1034 L 195.331, 83.7938 z "/>
<path style="fill:rgb(255, 6, 12);fill-opacity:1.0;fill-rule:evenodd;stroke:rgb(0, 0, 0);stroke-width:3.0;" d="M 734.277, 445.509 L 729.41, 470.319 L 726.141, 470.639 L 607.561, 441.058 L 709.109, 399.153 z "/>
<path style="fill:rgb(255, 6, 12);fill-opacity:1.0;fill-rule:evenodd;stroke:rgb(0, 0, 0);stroke-width:3.0;" d="M 335.033, 521.823 L 330.027, 526.412 L 250.59, 524.76 L 236.286, 518.526 L 264.7, 515.748 z "/>
<path style="fill:rgb(255, 6, 12);fill-opacity:1.0;fill-rule:evenodd;stroke:rgb(0, 0, 0);stroke-width:3.0;" d="M 182.377, 227.215 L 161.663, 240.859 L 157.674, 222.905 L 187.171, 205.735 z "/>
<path style="fill:rgb(255, 192, 27);fill-opacity:1.0;fill-rule:evenodd;stroke:rgb(0, 0, 0);stroke-width:3.0;" d="M 21.0831, 54.0504 L 5.61262, 54.4003 L 14.0828, 18.5266 L 20.4819, 16.5325 z "/>
<path style="fill:rgb(255, 192, 27);fill-opacity:1.0;fill-rule:evenodd;stroke:rgb(0, 0, 0);stroke-width:3.0;" d="M 611.061, 337.881 L 610.81, 338.041 L 585.639, 338.551 L 581.603, 335.208 L 594.222, 332.404 z "/>
<path style="fill:rgb(27, 69, 255);fill-opacity:1.0;fill-rule:evenodd;stroke:rgb(0, 0, 0);stroke-width:3.0;" d="M 650.201, 308.92 L 654.399, 317.153 L 651.801, 318.606 L 619.394, 307.449 L 641.047, 302.691 z "/>
<path style="fill:rgb(255, 2, 33);fill-opacity:1.0;fill-rule:evenodd;stroke:rgb(0, 0, 0);stroke-width:3.0;" d="M 62.517, 247.527 L 65.7654, 252.488 L 59.7454, 255.35 L 46.3954, 238.087 L 44.7154, 235.553 L 49.2737, 234.24 z "/>
<path style="fill:rgb(240, 13, 18);fill-opacity:1.0;fill-rule:evenodd;stroke:rgb(0, 0, 0);stroke-width:3.0;" d="M 424.494, 497.416 L 412.942, 491.922 L 411.928, 485.95 L 414.385, 484.46 L 417.542, 483.753 L 424.039, 483.351 z "/>
<path style="fill:rgb(240, 13, 18);fill-opacity:1.0;fill-rule:evenodd;stroke:rgb(0, 0, 0);stroke-width:3.0;" d="M 172.904, 214.04 L 157.674, 222.905 L 154.838, 210.143 L 160.164, 207.611 z "/>
<path style="fill:rgb(26, 6, 199);fill-opacity:1.0;fill-rule:evenodd;stroke:rgb(0, 0, 0);stroke-width:3.0;" d="M 406.205, 452.219 L 408.668, 466.737 L 393.264, 454.499 L 393.785, 443.59 z "/>
<path style="fill:rgb(237, 255, 20);fill-opacity:1.0;fill-rule:evenodd;stroke:rgb(0, 0, 0);stroke-width:3.0;" d="M 106.37, 519.648 L 45.698, 501.949 L 82.5906, 490.228 z "/>
<path style="fill:rgb(237, 255, 20);fill-opacity:1.0;fill-rule:evenodd;stroke:rgb(0, 0, 0);stroke-width:3.0;" d="M 351.092, 523.21 L 346.033, 522.773 L 309.195, 511.399 L 357.028, 506.723 z "/>
<path style="fill:rgb(255, 234, 25);fill-opacity:1.0;fill-rule:evenodd;stroke:rgb(0, 0, 0);stroke-width:3.0;" d="M 38.4769, 254.614 L 27.3271, 228.251 L 34.6881, 218.482 z "/>
<path style="fill:rgb(175, 33, 172);fill-opacity:1.0;fill-rule:evenodd;stroke:rgb(0, 0, 0);stroke-width:3.0;" d="M 528.465, 584.265 L 526.579, 584.24 L 532.438, 559.634 L 551.496, 558.734 z "/>
<path style="fill:rgb(175, 33, 172);fill-opacity:1.0;fill-rule:evenodd;stroke:rgb(0, 0, 0);stroke-width:3.0;" d="M 443.374, 522.534 L 418.974, 529.072 L 392.644, 526.798 L 399.13, 502.607 L 435.244, 499.076 z "/>
<path style="fill:rgb(175, 33, 172);fill-opacity:1.0;fill-rule:evenodd;stroke:rgb(0, 0, 0);stroke-width:3.0;" d="M 423.494, 466.507 L 417.65, 444.116 L 421.924, 418.031 z "/>
<path style="fill:rgb(249, 255, 102);fill-opacity:1.0;fill-rule:evenodd;stroke:rgb(0, 0, 0);stroke-width:3.0;" d="M 168.281, 146.322 L 166.596, 167.907 L 150.463, 161.269 L 154.818, 146.446 L 161.412, 143.664 z "/>
<path style="fill:rgb(249, 255, 102);fill-opacity:1.0;fill-rule:evenodd;stroke:rgb(0, 0, 0);stroke-width:3.0;" d="M 35.8219, 513.491 L 28.9395, 550.647 L 17.0455, 524.726 L 35.8195, 513.283 z "/>
<path style="fill:rgb(255, 11, 22);fill-opacity:1.0;fill-rule:evenodd;stroke:rgb(0, 0, 0);stroke-width:3.0;" d="M 82.5906, 490.228 L 45.698, 501.949 L 35.6582, 499.021 L 35.132, 452.504 L 47.9742, 447.402 z "/>
<path style="fill:rgb(255, 11, 22);fill-opacity:1.0;fill-rule:evenodd;stroke:rgb(0, 0, 0);stroke-width:3.0;" d="M 312.488, 334.901 L 305.192, 329.684 L 356.317, 299.612 z "/>
<path style="fill:rgb(255, 252, 9);fill-opacity:1.0;fill-rule:evenodd;stroke:rgb(0, 0, 0);stroke-width:3.0;" d="M 513.051, 584.059 L 489.796, 583.749 L 482.444, 561.995 L 484.27, 561.908 z "/>
<path style="fill:rgb(246, 207, 7);fill-opacity:1.0;fill-rule:evenodd;stroke:rgb(0, 0, 0);stroke-width:3.0;" d="M 38.1336, 52.9248 L 37.4961, 53.6792 L 21.0831, 54.0504 L 20.4819, 16.5325 L 30.1232, 13.5281 z "/>
<path style="fill:rgb(246, 207, 7);fill-opacity:1.0;fill-rule:evenodd;stroke:rgb(0, 0, 0);stroke-width:3.0;" d="M 610.516, 327.421 L 605.877, 325.556 L 594.961, 312.819 L 611.918, 309.092 z "/>
<path style="fill:rgb(246, 207, 7);fill-opacity:1.0;fill-rule:evenodd;stroke:rgb(0, 0, 0);stroke-width:3.0;" d="M 32.891, 59.1283 L 5.17684, 56.246 L 5.61262, 54.4003 L 37.4961, 53.6792 z "/>
<path style="fill:rgb(255, 0, 215);fill-opacity:1.0;fill-rule:evenodd;stroke:rgb(0, 0, 0);stroke-width:3.0;" d="M 192.102, 376.546 L 194.021, 394.677 L 178.887, 366.786 z "/>
<path style="fill:rgb(55, 252, 98);fill-opacity:1.0;fill-rule:evenodd;stroke:rgb(0, 0, 0);stroke-width:3.0;" d="M 718.77, 416.947 L 708.937, 398.836 L 733.049, 390.289 z "/>
<path style="fill:rgb(226, 78, 255);fill-opacity:1.0;fill-rule:evenodd;stroke:rgb(0, 0, 0);stroke-width:3.0;" d="M 325.793, 453.208 L 308.212, 425.841 L 346.868, 423.33 z "/>
<path style="fill:rgb(217, 146, 212);fill-opacity:1.0;fill-rule:evenodd;stroke:rgb(0, 0, 0);stroke-width:3.0;" d="M 199.404, 127.636 L 187.82, 132.523 L 184.929, 98.7303 L 196.565, 97.0733 z "/>
<path style="fill:rgb(240, 18, 14);fill-opacity:1.0;fill-rule:evenodd;stroke:rgb(0, 0, 0);stroke-width:3.0;" d="M 134.243, 333.706 L 108.435, 330.557 L 107.536, 314.981 L 130.137, 297.948 z "/>
<path style="fill:rgb(197, 255, 6);fill-opacity:1.0;fill-rule:evenodd;stroke:rgb(0, 0, 0);stroke-width:3.0;" d="M 446.934, 452.186 L 445.351, 473.762 L 431.739, 476.728 L 423.785, 475.504 L 423.522, 467.395 L 438.986, 451.528 z "/>
<path style="fill:rgb(234, 37, 15);fill-opacity:1.0;fill-rule:evenodd;stroke:rgb(0, 0, 0);stroke-width:3.0;" d="M 438.986, 451.528 L 423.522, 467.395 L 422.966, 450.202 z "/>
<path style="fill:rgb(202, 44, 52);fill-opacity:1.0;fill-rule:evenodd;stroke:rgb(0, 0, 0);stroke-width:3.0;" d="M 34.9034, 446.815 L 26.8765, 452.501 L 21.5586, 450.89 L 18.6401, 449.771 L 15.7405, 445.524 L 22.1954, 442.457 z "/>
<path style="fill:rgb(202, 44, 52);fill-opacity:1.0;fill-rule:evenodd;stroke:rgb(0, 0, 0);stroke-width:3.0;" d="M 186.234, 175.986 L 182.849, 192.123 L 179.174, 191.807 L 169.278, 169.01 z "/>
<path style="fill:rgb(194, 255, 60);fill-opacity:1.0;fill-rule:evenodd;stroke:rgb(0, 0, 0);stroke-width:3.0;" d="M 52.791, 135.878 L 41.0647, 136.671 L 46.3639, 116.391 z "/>
<path style="fill:rgb(30, 246, 107);fill-opacity:1.0;fill-rule:evenodd;stroke:rgb(0, 0, 0);stroke-width:3.0;" d="M 130.017, 166.523 L 130.164, 170.404 L 110.653, 167.543 L 120.153, 159.719 z "/>
<path style="fill:rgb(30, 246, 107);fill-opacity:1.0;fill-rule:evenodd;stroke:rgb(0, 0, 0);stroke-width:3.0;" d="M 202.365, 159.512 L 204.597, 183.541 L 166.596, 167.907 L 168.281, 146.322 z "/>
<path style="fill:rgb(12, 197, 252);fill-opacity:1.0;fill-rule:evenodd;stroke:rgb(0, 0, 0);stroke-width:3.0;" d="M 612.876, 333.722 L 600.898, 334.575 L 578.885, 327.416 L 601.925, 320.944 z "/>
<path style="fill:rgb(14, 152, 255);fill-opacity:1.0;fill-rule:evenodd;stroke:rgb(0, 0, 0);stroke-width:3.0;" d="M 385.279, 526.162 L 351.092, 523.21 L 357.028, 506.723 L 382.86, 504.197 z "/>
<path style="fill:rgb(107, 88, 255);fill-opacity:1.0;fill-rule:evenodd;stroke:rgb(0, 0, 0);stroke-width:3.0;" d="M 53.3739, 89.5545 L 17.7629, 105.535 L 9.86461, 102.886 L 43.194, 81.6488 L 49.1789, 80.6982 z "/>
<path style="fill:rgb(107, 88, 255);fill-opacity:1.0;fill-rule:evenodd;stroke:rgb(0, 0, 0);stroke-width:3.0;" d="M 87.7969, 242.014 L 65.7654, 252.488 L 54.9879, 236.029 L 78.2021, 212.923 z "/>
<path style="fill:rgb(246, 42, 105);fill-opacity:1.0;fill-rule:evenodd;stroke:rgb(0, 0, 0);stroke-width:3.0;" d="M 158.309, 291.709 L 156.799, 297.269 L 131.557, 310.317 L 130.137, 297.948 L 142.255, 288.814 z "/>
<path style="fill:rgb(146, 2, 255);fill-opacity:1.0;fill-rule:evenodd;stroke:rgb(0, 0, 0);stroke-width:3.0;" d="M 677.39, 334.429 L 591.567, 437.069 L 486.77, 410.926 L 647.271, 321.14 z "/>
<path style="fill:rgb(146, 2, 255);fill-opacity:1.0;fill-rule:evenodd;stroke:rgb(0, 0, 0);stroke-width:3.0;" d="M 130.164, 170.404 L 130.842, 188.307 L 113.578, 188.472 L 99.4435, 176.774 L 110.653, 167.543 z "/>
<path style="fill:rgb(146, 2, 255);fill-opacity:1.0;fill-rule:evenodd;stroke:rgb(0, 0, 0);stroke-width:3.0;" d="M 600.497, 321.345 L 578.885, 327.416 L 558.586, 320.813 L 589.373, 314.047 z "/>
<path style="fill:rgb(165, 46, 76);fill-opacity:1.0;fill-rule:evenodd;stroke:rgb(0, 0, 0);stroke-width:3.0;" d="M 104.264, 227.095 L 105.659, 233.523 L 98.7528, 236.806 L 82.4582, 225.828 L 79.1322, 215.743 z "/>
<path style="fill:rgb(243, 5, 41);fill-opacity:1.0;fill-rule:evenodd;stroke:rgb(0, 0, 0);stroke-width:3.0;" d="M 346.033, 522.773 L 295.889, 518.442 L 290.19, 515.398 L 293.207, 512.962 L 309.195, 511.399 z "/>
<path style="fill:rgb(243, 5, 41);fill-opacity:1.0;fill-rule:evenodd;stroke:rgb(0, 0, 0);stroke-width:3.0;" d="M 199.526, 183.789 L 199.288, 189.012 L 191.229, 192.843 L 182.849, 192.123 L 185.048, 181.637 z "/>
<path style="fill:rgb(255, 7, 51);fill-opacity:1.0;fill-rule:evenodd;stroke:rgb(0, 0, 0);stroke-width:3.0;" d="M 276.091, 364.207 L 265.692, 372.579 L 259.103, 361.515 L 262.543, 358.311 z "/>
<path style="fill:rgb(243, 36, 112);fill-opacity:1.0;fill-rule:evenodd;stroke:rgb(0, 0, 0);stroke-width:3.0;" d="M 129.198, 532.832 L 136.8, 547.295 L 133.287, 552.948 L 116.501, 532.182 z "/>
<path style="fill:rgb(255, 246, 7);fill-opacity:1.0;fill-rule:evenodd;stroke:rgb(0, 0, 0);stroke-width:3.0;" d="M 129.198, 532.832 L 116.501, 532.182 L 82.7006, 490.365 L 105.368, 487.498 z "/>
<path style="fill:rgb(220, 172, 223);fill-opacity:1.0;fill-rule:evenodd;stroke:rgb(0, 0, 0);stroke-width:3.0;" d="M 36.4869, 266.407 L 34.4393, 267.38 L 5.55013, 257.153 L 9.16273, 252.358 z "/>
<path style="fill:rgb(130, 81, 67);fill-opacity:1.0;fill-rule:evenodd;stroke:rgb(0, 0, 0);stroke-width:3.0;" d="M 78.2021, 212.923 L 74.6755, 216.434 L 46.0446, 214.941 L 44.92, 212.287 L 76.1051, 206.565 z "/>
<path style="fill:rgb(130, 81, 67);fill-opacity:1.0;fill-rule:evenodd;stroke:rgb(0, 0, 0);stroke-width:3.0;" d="M 128.055, 13.5651 L 132.104, 20.9241 L 129.352, 27.9861 L 126.636, 31.2704 L 122.149, 27.6847 L 122.628, 12.4272 z "/>
<path style="fill:rgb(8, 11, 243);fill-opacity:1.0;fill-rule:evenodd;stroke:rgb(0, 0, 0);stroke-width:3.0;" d="M 408.886, 77.8937 L 402.706, 63.6744 L 403.486, 59.8209 L 440.464, 28.9845 z "/>
<path style="fill:rgb(8, 11, 243);fill-opacity:1.0;fill-rule:evenodd;stroke:rgb(0, 0, 0);stroke-width:3.0;" d="M 330.466, 295.045 L 311.445, 312.763 L 291.583, 292.125 z "/>
<path style="fill:rgb(255, 117, 52);fill-opacity:1.0;fill-rule:evenodd;stroke:rgb(0, 0, 0);stroke-width:3.0;" d="M 129.398, 115.944 L 135.964, 137.407 L 90.1234, 126.368 L 81.8694, 80.9063 L 82.7385, 80.0451 z "/>
<path style="fill:rgb(255, 117, 52);fill-opacity:1.0;fill-rule:evenodd;stroke:rgb(0, 0, 0);stroke-width:3.0;" d="M 418.021, 363.056 L 400.931, 355.461 L 431.246, 348.799 z "/>
<path style="fill:rgb(223, 255, 61);fill-opacity:1.0;fill-rule:evenodd;stroke:rgb(0, 0, 0);stroke-width:3.0;" d="M 330.466, 295.045 L 292.281, 292.177 L 292.904, 291.185 L 360.318, 267.241 z "/>
<path style="fill:rgb(255, 22, 189);fill-opacity:1.0;fill-rule:evenodd;stroke:rgb(0, 0, 0);stroke-width:3.0;" d="M 516.142, 503.037 L 443.374, 522.534 L 435.244, 499.076 L 508.327, 491.932 z "/>
<path style="fill:rgb(231, 255, 19);fill-opacity:1.0;fill-rule:evenodd;stroke:rgb(0, 0, 0);stroke-width:3.0;" d="M 122.173, 92.3264 L 123.203, 95.6921 L 118.113, 107.261 L 82.7385, 80.0451 L 95.2358, 67.6614 z "/>
<path style="fill:rgb(231, 255, 19);fill-opacity:1.0;fill-rule:evenodd;stroke:rgb(0, 0, 0);stroke-width:3.0;" d="M 421.816, 414.704 L 421.907, 417.51 L 406.169, 452.008 L 402.235, 428.826 L 412.261, 414.216 z "/>
<path style="fill:rgb(255, 255, 50);fill-opacity:1.0;fill-rule:evenodd;stroke:rgb(0, 0, 0);stroke-width:3.0;" d="M 155.507, 302.022 L 140.449, 329.555 L 133.017, 309.562 L 156.799, 297.269 z "/>
<path style="fill:rgb(65, 75, 249);fill-opacity:1.0;fill-rule:evenodd;stroke:rgb(0, 0, 0);stroke-width:3.0;" d="M 117.181, 132.884 L 88.0269, 168.421 L 73.3739, 174.408 L 60.401, 158.951 L 46.2888, 116.164 L 46.5732, 115.882 z "/>
<path style="fill:rgb(255, 243, 11);fill-opacity:1.0;fill-rule:evenodd;stroke:rgb(0, 0, 0);stroke-width:3.0;" d="M 709.109, 399.153 L 607.561, 441.058 L 597.145, 438.46 L 708.937, 398.836 z "/>
<path style="fill:rgb(255, 243, 11);fill-opacity:1.0;fill-rule:evenodd;stroke:rgb(0, 0, 0);stroke-width:3.0;" d="M 128.874, 416.817 L 113.275, 438.505 L 102.731, 439.19 L 95.4506, 429.815 L 128.809, 416.394 z "/>
<path style="fill:rgb(35, 255, 168);fill-opacity:1.0;fill-rule:evenodd;stroke:rgb(0, 0, 0);stroke-width:3.0;" d="M 412.079, 360.416 L 418.021, 363.056 L 397.109, 385.603 L 394.577, 383.693 L 390.187, 357.822 L 396.619, 356.409 z "/>
<path style="fill:rgb(255, 255, 24);fill-opacity:1.0;fill-rule:evenodd;stroke:rgb(0, 0, 0);stroke-width:3.0;" d="M 74.6755, 216.434 L 54.9879, 236.029 L 54.9693, 236.001 L 46.0446, 214.941 z "/>
<path style="fill:rgb(152, 132, 217);fill-opacity:1.0;fill-rule:evenodd;stroke:rgb(0, 0, 0);stroke-width:3.0;" d="M 451.174, 394.41 L 446.934, 452.186 L 422.966, 450.202 L 421.371, 400.94 L 436.265, 379.235 z "/>
<path style="fill:rgb(212, 177, 31);fill-opacity:1.0;fill-rule:evenodd;stroke:rgb(0, 0, 0);stroke-width:3.0;" d="M 451.174, 394.41 L 436.265, 379.235 L 454.206, 353.091 z "/>
<path style="fill:rgb(255, 10, 179);fill-opacity:1.0;fill-rule:evenodd;stroke:rgb(0, 0, 0);stroke-width:3.0;" d="M 524.787, 500.72 L 516.142, 503.037 L 508.327, 491.932 L 542.347, 488.606 z "/>
<path style="fill:rgb(255, 10, 179);fill-opacity:1.0;fill-rule:evenodd;stroke:rgb(0, 0, 0);stroke-width:3.0;" d="M 406.61, 528.004 L 430.311, 530.051 L 438.811, 564.055 L 272.403, 571.913 L 333.534, 526.485 z "/>
<path style="fill:rgb(23, 52, 255);fill-opacity:1.0;fill-rule:evenodd;stroke:rgb(0, 0, 0);stroke-width:3.0;" d="M 28.6339, 167.991 L 25.4532, 168.774 L 20.8544, 152.23 L 25.2372, 148.511 L 36.8253, 142.898 z "/>
<path style="fill:rgb(240, 3, 45);fill-opacity:1.0;fill-rule:evenodd;stroke:rgb(0, 0, 0);stroke-width:3.0;" d="M 89.5518, 123.22 L 58.0531, 104.506 L 81.8694, 80.9063 z "/>
<path style="fill:rgb(192, 144, 187);fill-opacity:1.0;fill-rule:evenodd;stroke:rgb(0, 0, 0);stroke-width:3.0;" d="M 56.5457, 147.262 L 31.2873, 186.049 L 29.209, 166.229 L 38.8083, 136.823 L 52.791, 135.878 z "/>
<path style="fill:rgb(192, 144, 187);fill-opacity:1.0;fill-rule:evenodd;stroke:rgb(0, 0, 0);stroke-width:3.0;" d="M 128.809, 416.394 L 101.082, 427.549 L 97.8412, 422.071 L 128.641, 415.302 z "/>
<path style="fill:rgb(209, 92, 66);fill-opacity:1.0;fill-rule:evenodd;stroke:rgb(0, 0, 0);stroke-width:3.0;" d="M 76.1051, 206.565 L 34.2439, 214.246 L 31.2873, 186.049 L 56.5457, 147.262 z "/>
<path style="fill:rgb(31, 9, 217);fill-opacity:1.0;fill-rule:evenodd;stroke:rgb(0, 0, 0);stroke-width:3.0;" d="M 448.862, 36.5844 L 417.694, 98.1606 L 408.886, 77.8937 L 440.464, 28.9845 L 453.77, 17.8882 z "/>
<path style="fill:rgb(31, 9, 217);fill-opacity:1.0;fill-rule:evenodd;stroke:rgb(0, 0, 0);stroke-width:3.0;" d="M 187.555, 129.431 L 187.82, 132.523 L 140.568, 152.458 L 138.098, 144.383 L 147.272, 134.656 L 187.033, 128.812 z "/>
<path style="fill:rgb(252, 130, 10);fill-opacity:1.0;fill-rule:evenodd;stroke:rgb(0, 0, 0);stroke-width:3.0;" d="M 250.59, 524.76 L 196.88, 523.643 L 196.744, 522.392 L 236.286, 518.526 z "/>
<path style="fill:rgb(29, 97, 217);fill-opacity:1.0;fill-rule:evenodd;stroke:rgb(0, 0, 0);stroke-width:3.0;" d="M 743.029, 391.391 L 737.798, 402.896 L 728.746, 398.322 L 733.049, 390.289 L 740.754, 387.558 z "/>
<path style="fill:rgb(223, 255, 16);fill-opacity:1.0;fill-rule:evenodd;stroke:rgb(0, 0, 0);stroke-width:3.0;" d="M 584.24, 543.346 L 418.974, 529.072 L 561.438, 490.9 z "/>
<path style="fill:rgb(252, 255, 55);fill-opacity:1.0;fill-rule:evenodd;stroke:rgb(0, 0, 0);stroke-width:3.0;" d="M 712.076, 554.386 L 584.24, 543.346 L 561.438, 490.9 L 585.882, 484.35 L 650.277, 478.055 z "/>
<path style="fill:rgb(255, 16, 255);fill-opacity:1.0;fill-rule:evenodd;stroke:rgb(0, 0, 0);stroke-width:3.0;" d="M 149.397, 572.879 L 83.9763, 571.57 L 83.6598, 570.317 L 140.039, 561.302 z "/>
<path style="fill:rgb(61, 228, 207);fill-opacity:1.0;fill-rule:evenodd;stroke:rgb(0, 0, 0);stroke-width:3.0;" d="M 182.203, 566.171 L 185.438, 589.384 L 159.301, 590.1 L 156.681, 585.116 L 177.627, 560.48 z "/>
<path style="fill:rgb(255, 243, 105);fill-opacity:1.0;fill-rule:evenodd;stroke:rgb(0, 0, 0);stroke-width:3.0;" d="M 677.39, 334.429 L 647.271, 321.14 L 705.618, 288.5 L 718.085, 285.76 z "/>
<path style="fill:rgb(28, 212, 255);fill-opacity:1.0;fill-rule:evenodd;stroke:rgb(0, 0, 0);stroke-width:3.0;" d="M 608.77, 441.36 L 642.396, 478.826 L 484.685, 494.243 L 501.508, 414.603 z "/>
<path style="fill:rgb(28, 212, 255);fill-opacity:1.0;fill-rule:evenodd;stroke:rgb(0, 0, 0);stroke-width:3.0;" d="M 370.982, 500.424 L 371.915, 505.267 L 282.938, 513.965 L 312.903, 471.483 z "/>
<path style="fill:rgb(255, 234, 24);fill-opacity:1.0;fill-rule:evenodd;stroke:rgb(0, 0, 0);stroke-width:3.0;" d="M 361.535, 451.364 L 370.982, 500.424 L 312.903, 471.483 L 341.257, 431.285 z "/>
<path style="fill:rgb(255, 65, 184);fill-opacity:1.0;fill-rule:evenodd;stroke:rgb(0, 0, 0);stroke-width:3.0;" d="M 330.76, 298.243 L 319.986, 320.982 L 272.859, 348.702 L 329.587, 295.864 z "/>
<path style="fill:rgb(243, 15, 8);fill-opacity:1.0;fill-rule:evenodd;stroke:rgb(0, 0, 0);stroke-width:3.0;" d="M 139.747, 513.36 L 127.239, 529.106 L 126.354, 527.423 L 129.083, 500.096 z "/>
<path style="fill:rgb(75, 35, 215);fill-opacity:1.0;fill-rule:evenodd;stroke:rgb(0, 0, 0);stroke-width:3.0;" d="M 129.083, 500.096 L 126.354, 527.423 L 79.6983, 438.666 z "/>
<path style="fill:rgb(237, 81, 72);fill-opacity:1.0;fill-rule:evenodd;stroke:rgb(0, 0, 0);stroke-width:3.0;" d="M 501.508, 414.603 L 484.685, 494.243 L 443.553, 498.264 L 445.482, 471.978 L 477.564, 416.076 L 486.77, 410.926 z "/>
<path style="fill:rgb(12, 11, 255);fill-opacity:1.0;fill-rule:evenodd;stroke:rgb(0, 0, 0);stroke-width:3.0;" d="M 90.0964, 184.471 L 85.2021, 188.501 L 73.3739, 174.408 L 105.963, 161.093 z "/>
<path style="fill:rgb(237, 231, 16);fill-opacity:1.0;fill-rule:evenodd;stroke:rgb(0, 0, 0);stroke-width:3.0;" d="M 333.534, 526.485 L 272.403, 571.913 L 208.15, 574.948 L 173.902, 530.843 L 174.249, 524.591 L 186.21, 523.421 z "/>
<path style="fill:rgb(132, 0, 7);fill-opacity:1.0;fill-rule:evenodd;stroke:rgb(0, 0, 0);stroke-width:3.0;" d="M 219.849, 138.604 L 200.1, 127.68 L 197.548, 75.8027 L 227.122, 74.5062 z "/>
<path style="fill:rgb(255, 67, 44);fill-opacity:1.0;fill-rule:evenodd;stroke:rgb(0, 0, 0);stroke-width:3.0;" d="M 135.964, 137.407 L 138.235, 144.829 L 130.817, 150.938 L 109.924, 159.475 L 93.5973, 161.631 L 117.181, 132.884 z "/>
<path style="fill:rgb(204, 243, 255);fill-opacity:1.0;fill-rule:evenodd;stroke:rgb(0, 0, 0);stroke-width:3.0;" d="M 793.318, 464.072 L 772.171, 466.139 L 731.338, 460.494 L 742.626, 402.947 z "/>
<path style="fill:rgb(255, 252, 78);fill-opacity:1.0;fill-rule:evenodd;stroke:rgb(0, 0, 0);stroke-width:3.0;" d="M 725.941, 555.584 L 719.735, 555.048 L 710.685, 544.546 L 726.169, 542.499 z "/>
<path style="fill:rgb(95, 98, 255);fill-opacity:1.0;fill-rule:evenodd;stroke:rgb(0, 0, 0);stroke-width:3.0;" d="M 113.578, 188.472 L 85.4024, 188.74 L 85.2021, 188.501 L 99.4435, 176.774 z "/>
<path style="fill:rgb(187, 9, 255);fill-opacity:1.0;fill-rule:evenodd;stroke:rgb(0, 0, 0);stroke-width:3.0;" d="M 410.04, 474.823 L 413.157, 493.191 L 387.744, 476.784 L 386.592, 470.883 z "/>
</svg>