<?xml version="1.0" encoding="iso-8859-1" standalone="no"?>
<!DOCTYPE svg PUBLIC "-//W3C//DTD SVG 1.0//EN" "http://www.w3.org/TR/2001/REC-SVG-20010904/DTD/svg10.dtd">
<svg xmlns="http://www.w3.org/2000/svg" width="800" height="600">
<path style="fill:rgb(0, 0, 0);fill-opacity:0.0;fill-rule:evenodd;stroke:rgb(0, 0, 0);stroke-width:0.0;" d="M 0, 600 L 800, 600 L 800, 0 L 0, 0 z "/>
<path style="fill:rgb(16, 52, 199);fill-opacity:1.0;fill-rule:evenodd;stroke:rgb(0, 0, 0);stroke-width:3.0;" d="M 614.705, 558.581 L 474.587, 572.26 L 396.121, 542.127 L 564.329, 479.396 z "/>
<path style="fill:rgb(255, 240, 64);fill-opacity:1.0;fill-rule:evenodd;stroke:rgb(0, 0, 0);stroke-width:3.0;" d="M 233.763, 536.752 L 184.762, 564.092 L 179.815, 551.617 L 235.331, 521.531 z "/>
<path style="fill:rgb(246, 252, 27);fill-opacity:1.0;fill-rule:evenodd;stroke:rgb(0, 0, 0);stroke-width:3.0;" d="M 767.176, 556.794 L 767.005, 557.526 L 762.962, 563.899 L 756.969, 548.75 L 760.631, 545.078 L 767.673, 539.068 z "/>
<path style="fill:rgb(246, 252, 27);fill-opacity:1.0;fill-rule:evenodd;stroke:rgb(0, 0, 0);stroke-width:3.0;" d="M 250.928, 525.124 L 232.438, 549.604 L 235.331, 521.531 L 238.631, 519.742 z "/>
<path style="fill:rgb(255, 10, 46);fill-opacity:1.0;fill-rule:evenodd;stroke:rgb(0, 0, 0);stroke-width:3.0;" d="M 161.773, 253.673 L 157.448, 303.116 L 141.511, 319.533 L 124.331, 246.391 L 142.828, 236.401 z "/>
<path style="fill:rgb(255, 10, 46);fill-opacity:1.0;fill-rule:evenodd;stroke:rgb(0, 0, 0);stroke-width:3.0;" d="M 763.925, 570.666 L 759.283, 590.474 L 741.731, 579.026 L 742.126, 560.997 z "/>
<path style="fill:rgb(252, 255, 59);fill-opacity:1.0;fill-rule:evenodd;stroke:rgb(0, 0, 0);stroke-width:3.0;" d="M 733.525, 573.673 L 700.554, 552.168 L 713.81, 549.444 z "/>
<path style="fill:rgb(255, 130, 9);fill-opacity:1.0;fill-rule:evenodd;stroke:rgb(0, 0, 0);stroke-width:3.0;" d="M 410.165, 426.78 L 373.462, 446.671 L 342.371, 418.325 L 359.063, 401.882 L 370.003, 398.985 z "/>
<path style="fill:rgb(255, 130, 9);fill-opacity:1.0;fill-rule:evenodd;stroke:rgb(0, 0, 0);stroke-width:3.0;" d="M 368.192, 492.296 L 363.555, 476.719 L 378.788, 472.779 z "/>
<path style="fill:rgb(255, 130, 9);fill-opacity:1.0;fill-rule:evenodd;stroke:rgb(0, 0, 0);stroke-width:3.0;" d="M 489.902, 466.273 L 452.077, 471.54 L 449.622, 465.763 L 450.903, 461.449 z "/>
<path style="fill:rgb(255, 130, 9);fill-opacity:1.0;fill-rule:evenodd;stroke:rgb(0, 0, 0);stroke-width:3.0;" d="M 100.465, 420.589 L 102.027, 525.615 L 9.65306, 374.131 L 67.6416, 345.534 z "/>
<path style="fill:rgb(220, 1, 255);fill-opacity:1.0;fill-rule:evenodd;stroke:rgb(0, 0, 0);stroke-width:3.0;" d="M 603.859, 321.807 L 548.86, 351.614 L 359.063, 401.882 L 669.302, 96.2598 z "/>
<path style="fill:rgb(255, 209, 9);fill-opacity:1.0;fill-rule:evenodd;stroke:rgb(0, 0, 0);stroke-width:3.0;" d="M 685.594, 213.93 L 694.455, 249.463 L 671.757, 277.202 L 661.773, 284.927 L 625.479, 247.296 L 628.669, 236.301 L 647.782, 199.958 z "/>
<path style="fill:rgb(255, 187, 65);fill-opacity:1.0;fill-rule:evenodd;stroke:rgb(0, 0, 0);stroke-width:3.0;" d="M 626.281, 430.829 L 528.34, 471.027 L 481.203, 465.197 L 587.621, 399.962 z "/>
<path style="fill:rgb(255, 187, 65);fill-opacity:1.0;fill-rule:evenodd;stroke:rgb(0, 0, 0);stroke-width:3.0;" d="M 585.587, 478.108 L 598.532, 514.393 L 584.407, 510.956 L 561.624, 475.144 z "/>
<path style="fill:rgb(10, 159, 150);fill-opacity:1.0;fill-rule:evenodd;stroke:rgb(0, 0, 0);stroke-width:3.0;" d="M 600.239, 479.92 L 600.663, 505.17 L 595.759, 506.619 L 589.162, 488.129 L 595.569, 479.343 z "/>
<path style="fill:rgb(10, 159, 150);fill-opacity:1.0;fill-rule:evenodd;stroke:rgb(0, 0, 0);stroke-width:3.0;" d="M 506.605, 584.557 L 474.587, 572.26 L 503.885, 569.4 z "/>
<path style="fill:rgb(252, 3, 82);fill-opacity:1.0;fill-rule:evenodd;stroke:rgb(0, 0, 0);stroke-width:3.0;" d="M 605.924, 544.778 L 594.907, 527.46 L 606.608, 522.258 z "/>
<path style="fill:rgb(30, 255, 108);fill-opacity:1.0;fill-rule:evenodd;stroke:rgb(0, 0, 0);stroke-width:3.0;" d="M 153.375, 371.264 L 151.488, 371.265 L 153.442, 348.921 L 188.333, 345.294 z "/>
<path style="fill:rgb(30, 255, 108);fill-opacity:1.0;fill-rule:evenodd;stroke:rgb(0, 0, 0);stroke-width:3.0;" d="M 609.041, 516.949 L 609.077, 519.179 L 593.738, 525.622 L 584.407, 510.956 z "/>
<path style="fill:rgb(255, 237, 8);fill-opacity:1.0;fill-rule:evenodd;stroke:rgb(0, 0, 0);stroke-width:3.0;" d="M 144.62, 433.368 L 101.669, 469.16 L 104.844, 357.305 L 109.394, 352.617 z "/>
<path style="fill:rgb(255, 237, 8);fill-opacity:1.0;fill-rule:evenodd;stroke:rgb(0, 0, 0);stroke-width:3.0;" d="M 36.5589, 274.459 L 27.1877, 294.84 L 16.731, 288.201 L 34.4687, 269.68 z "/>
<path style="fill:rgb(255, 237, 8);fill-opacity:1.0;fill-rule:evenodd;stroke:rgb(0, 0, 0);stroke-width:3.0;" d="M 19.7319, 192.162 L 40.9484, 210.953 L 7.10702, 199.02 L 15.6, 190.634 z "/>
<path style="fill:rgb(249, 255, 20);fill-opacity:1.0;fill-rule:evenodd;stroke:rgb(0, 0, 0);stroke-width:3.0;" d="M 67.6416, 345.534 L 42.0581, 358.15 L 32.834, 340.758 L 41.4437, 285.629 z "/>
<path style="fill:rgb(249, 255, 20);fill-opacity:1.0;fill-rule:evenodd;stroke:rgb(0, 0, 0);stroke-width:3.0;" d="M 503.102, 502.229 L 481.974, 510.109 L 471.1, 500.512 L 494.598, 494.318 z "/>
<path style="fill:rgb(8, 243, 252);fill-opacity:1.0;fill-rule:evenodd;stroke:rgb(0, 0, 0);stroke-width:3.0;" d="M 116.305, 212.219 L 123.796, 244.112 L 119.776, 292.812 L 108.32, 234.779 L 109.146, 205.693 z "/>
<path style="fill:rgb(8, 243, 252);fill-opacity:1.0;fill-rule:evenodd;stroke:rgb(0, 0, 0);stroke-width:3.0;" d="M 422.917, 457.987 L 461.355, 491.911 L 380.093, 497.232 L 393.385, 454.335 z "/>
<path style="fill:rgb(8, 243, 252);fill-opacity:1.0;fill-rule:evenodd;stroke:rgb(0, 0, 0);stroke-width:3.0;" d="M 590.033, 579.209 L 565.79, 586.267 L 568.565, 577.122 L 590.315, 570.97 z "/>
<path style="fill:rgb(255, 240, 9);fill-opacity:1.0;fill-rule:evenodd;stroke:rgb(0, 0, 0);stroke-width:3.0;" d="M 135.99, 548.45 L 102.011, 524.53 L 101.461, 487.516 L 141.696, 483.216 z "/>
<path style="fill:rgb(255, 240, 9);fill-opacity:1.0;fill-rule:evenodd;stroke:rgb(0, 0, 0);stroke-width:3.0;" d="M 690.723, 215.825 L 701.428, 231.642 L 693.297, 242.83 L 692.82, 242.906 L 685.594, 213.93 z "/>
<path style="fill:rgb(255, 240, 9);fill-opacity:1.0;fill-rule:evenodd;stroke:rgb(0, 0, 0);stroke-width:3.0;" d="M 69.3065, 91.8196 L 53.627, 90.8574 L 42.2103, 76.1855 L 53.0065, 75.8633 z "/>
<path style="fill:rgb(234, 255, 7);fill-opacity:1.0;fill-rule:evenodd;stroke:rgb(0, 0, 0);stroke-width:3.0;" d="M 270.621, 505.122 L 258.683, 528.012 L 244.79, 533.25 L 266.333, 504.73 L 268.213, 503.711 z "/>
<path style="fill:rgb(234, 255, 7);fill-opacity:1.0;fill-rule:evenodd;stroke:rgb(0, 0, 0);stroke-width:3.0;" d="M 446.877, 442.214 L 440.468, 460.158 L 438.582, 459.925 L 427.705, 456.301 L 425.33, 449.435 L 436.676, 435.293 z "/>
<path style="fill:rgb(79, 136, 249);fill-opacity:1.0;fill-rule:evenodd;stroke:rgb(0, 0, 0);stroke-width:3.0;" d="M 608.738, 498.548 L 600.624, 502.865 L 600.453, 492.675 L 608.503, 484.236 z "/>
<path style="fill:rgb(255, 220, 46);fill-opacity:1.0;fill-rule:evenodd;stroke:rgb(0, 0, 0);stroke-width:3.0;" d="M 783.723, 502.616 L 721.072, 533.984 L 661.862, 550.732 L 652.77, 504.493 L 739.944, 497.201 z "/>
<path style="fill:rgb(243, 140, 21);fill-opacity:1.0;fill-rule:evenodd;stroke:rgb(0, 0, 0);stroke-width:3.0;" d="M 548.518, 473.523 L 528.34, 471.027 L 603.441, 440.203 z "/>
<path style="fill:rgb(243, 140, 21);fill-opacity:1.0;fill-rule:evenodd;stroke:rgb(0, 0, 0);stroke-width:3.0;" d="M 56.5898, 222.067 L 55.9079, 222.163 L 54.1024, 213.634 L 76.3242, 201.105 z "/>
<path style="fill:rgb(231, 57, 115);fill-opacity:1.0;fill-rule:evenodd;stroke:rgb(0, 0, 0);stroke-width:3.0;" d="M 459.238, 566.366 L 434.593, 593.326 L 403.515, 588.344 L 355.503, 526.528 z "/>
<path style="fill:rgb(231, 57, 115);fill-opacity:1.0;fill-rule:evenodd;stroke:rgb(0, 0, 0);stroke-width:3.0;" d="M 289.958, 402.752 L 179.914, 551.564 L 133.519, 576.708 L 142.91, 469.332 L 191.298, 371.262 L 273.829, 371.257 z "/>
<path style="fill:rgb(108, 150, 255);fill-opacity:1.0;fill-rule:evenodd;stroke:rgb(0, 0, 0);stroke-width:3.0;" d="M 37.662, 112.826 L 33.077, 136.34 L 18.6307, 123.17 L 30.0026, 102.803 z "/>
<path style="fill:rgb(108, 150, 255);fill-opacity:1.0;fill-rule:evenodd;stroke:rgb(0, 0, 0);stroke-width:3.0;" d="M 756.418, 547.358 L 751.478, 558.555 L 742.313, 552.474 L 742.509, 543.546 L 753.977, 541.189 z "/>
<path style="fill:rgb(255, 5, 11);fill-opacity:1.0;fill-rule:evenodd;stroke:rgb(0, 0, 0);stroke-width:3.0;" d="M 648.744, 439.161 L 628.088, 430.087 L 642.941, 423.991 z "/>
<path style="fill:rgb(255, 5, 11);fill-opacity:1.0;fill-rule:evenodd;stroke:rgb(0, 0, 0);stroke-width:3.0;" d="M 550.064, 581.334 L 547.976, 582.945 L 530.823, 587.797 L 530.167, 575.385 z "/>
<path style="fill:rgb(255, 5, 11);fill-opacity:1.0;fill-rule:evenodd;stroke:rgb(0, 0, 0);stroke-width:3.0;" d="M 53.0065, 75.8633 L 41.3928, 76.2099 L 32.9884, 65.11 L 39.0721, 62.2228 z "/>
<path style="fill:rgb(255, 5, 11);fill-opacity:1.0;fill-rule:evenodd;stroke:rgb(0, 0, 0);stroke-width:3.0;" d="M 146.55, 461.956 L 143.473, 462.898 L 148.834, 401.609 L 178.46, 397.282 z "/>
<path style="fill:rgb(170, 255, 240);fill-opacity:1.0;fill-rule:evenodd;stroke:rgb(0, 0, 0);stroke-width:3.0;" d="M 748.506, 237.176 L 676.908, 273.217 L 731.573, 230.92 z "/>
<path style="fill:rgb(9, 11, 175);fill-opacity:1.0;fill-rule:evenodd;stroke:rgb(0, 0, 0);stroke-width:3.0;" d="M 754.63, 524.491 L 721.072, 533.984 L 753.237, 517.879 z "/>
<path style="fill:rgb(9, 11, 175);fill-opacity:1.0;fill-rule:evenodd;stroke:rgb(0, 0, 0);stroke-width:3.0;" d="M 59.2419, 162.448 L 53.1327, 169.761 L 29.027, 138.453 z "/>
<path style="fill:rgb(246, 19, 74);fill-opacity:1.0;fill-rule:evenodd;stroke:rgb(0, 0, 0);stroke-width:3.0;" d="M 93.5416, 511.699 L 92.2041, 521.649 L 60.0851, 533.294 L 38.4952, 535.795 L 17.7675, 495.958 L 45.7443, 433.317 z "/>
<path style="fill:rgb(240, 204, 14);fill-opacity:1.0;fill-rule:evenodd;stroke:rgb(0, 0, 0);stroke-width:3.0;" d="M 432.823, 432.679 L 436.676, 435.293 L 418.87, 457.487 L 403.086, 455.535 L 432.813, 432.678 z "/>
<path style="fill:rgb(252, 252, 19);fill-opacity:1.0;fill-rule:evenodd;stroke:rgb(0, 0, 0);stroke-width:3.0;" d="M 110.907, 132.542 L 84.1607, 159.814 L 100.955, 122.8 z "/>
<path style="fill:rgb(252, 252, 19);fill-opacity:1.0;fill-rule:evenodd;stroke:rgb(0, 0, 0);stroke-width:3.0;" d="M 432.813, 432.678 L 403.086, 455.535 L 389.212, 453.818 L 382.675, 447.968 L 413.902, 430.776 z "/>
<path style="fill:rgb(240, 0, 47);fill-opacity:1.0;fill-rule:evenodd;stroke:rgb(0, 0, 0);stroke-width:3.0;" d="M 481.338, 465.114 L 481.203, 465.197 L 440.468, 460.158 L 458.741, 409.002 z "/>
<path style="fill:rgb(240, 0, 47);fill-opacity:1.0;fill-rule:evenodd;stroke:rgb(0, 0, 0);stroke-width:3.0;" d="M 759.283, 590.474 L 758.825, 592.43 L 717.166, 569.881 L 718.473, 563.856 z "/>
<path style="fill:rgb(33, 100, 255);fill-opacity:1.0;fill-rule:evenodd;stroke:rgb(0, 0, 0);stroke-width:3.0;" d="M 743.614, 235.369 L 700.325, 219.373 L 669.817, 192.236 z "/>
<path style="fill:rgb(33, 100, 255);fill-opacity:1.0;fill-rule:evenodd;stroke:rgb(0, 0, 0);stroke-width:3.0;" d="M 146.929, 423.382 L 146.169, 432.077 L 144.62, 433.368 L 109.394, 352.617 L 134.192, 327.073 z "/>
<path style="fill:rgb(33, 100, 255);fill-opacity:1.0;fill-rule:evenodd;stroke:rgb(0, 0, 0);stroke-width:3.0;" d="M 493.953, 486.836 L 465.116, 495.23 L 440.154, 473.2 L 485.648, 466.865 z "/>
<path style="fill:rgb(33, 100, 255);fill-opacity:1.0;fill-rule:evenodd;stroke:rgb(0, 0, 0);stroke-width:3.0;" d="M 742.416, 547.768 L 741.915, 548.955 L 721.879, 557.622 L 714.739, 549.253 L 742.509, 543.546 z "/>
<path style="fill:rgb(33, 100, 255);fill-opacity:1.0;fill-rule:evenodd;stroke:rgb(0, 0, 0);stroke-width:3.0;" d="M 504.415, 450.968 L 481.338, 465.114 L 473.073, 444.591 z "/>
<path style="fill:rgb(33, 100, 255);fill-opacity:1.0;fill-rule:evenodd;stroke:rgb(0, 0, 0);stroke-width:3.0;" d="M 381.2, 452.827 L 369.457, 473.358 L 366.282, 470.574 L 373.454, 451.869 z "/>
<path style="fill:rgb(33, 100, 255);fill-opacity:1.0;fill-rule:evenodd;stroke:rgb(0, 0, 0);stroke-width:3.0;" d="M 64.9818, 202.96 L 59.8512, 207.301 L 46.8024, 214.641 L 41.5547, 198.454 L 49.7859, 196.127 z "/>
<path style="fill:rgb(255, 168, 59);fill-opacity:1.0;fill-rule:evenodd;stroke:rgb(0, 0, 0);stroke-width:3.0;" d="M 609.35, 589.864 L 589.987, 580.534 L 590.315, 570.97 L 600.766, 568.013 z "/>
<path style="fill:rgb(255, 168, 59);fill-opacity:1.0;fill-rule:evenodd;stroke:rgb(0, 0, 0);stroke-width:3.0;" d="M 132.216, 226.726 L 142.828, 236.401 L 124.331, 246.391 L 118.688, 222.366 z "/>
<path style="fill:rgb(255, 168, 59);fill-opacity:1.0;fill-rule:evenodd;stroke:rgb(0, 0, 0);stroke-width:3.0;" d="M 98.7709, 306.63 L 36.3409, 267.725 L 76.3086, 225.992 L 97.4516, 217.908 z "/>
<path style="fill:rgb(194, 255, 199);fill-opacity:1.0;fill-rule:evenodd;stroke:rgb(0, 0, 0);stroke-width:3.0;" d="M 711.467, 246.476 L 696.583, 257.993 L 692.82, 242.906 L 707.481, 240.586 z "/>
<path style="fill:rgb(194, 255, 199);fill-opacity:1.0;fill-rule:evenodd;stroke:rgb(0, 0, 0);stroke-width:3.0;" d="M 481.974, 510.109 L 396.121, 542.127 L 369.365, 531.852 L 380.093, 497.232 L 461.355, 491.911 z "/>
<path style="fill:rgb(255, 226, 61);fill-opacity:1.0;fill-rule:evenodd;stroke:rgb(0, 0, 0);stroke-width:3.0;" d="M 35.3958, 208.995 L 19.8493, 229.801 L 18.4013, 230.616 L 8.54154, 217.323 L 21.5892, 204.127 z "/>
<path style="fill:rgb(249, 22, 27);fill-opacity:1.0;fill-rule:evenodd;stroke:rgb(0, 0, 0);stroke-width:3.0;" d="M 419.847, 421.533 L 372.731, 398.262 L 548.86, 351.614 z "/>
<path style="fill:rgb(207, 249, 146);fill-opacity:1.0;fill-rule:evenodd;stroke:rgb(0, 0, 0);stroke-width:3.0;" d="M 127.832, 333.624 L 107.803, 354.256 L 123.433, 311.337 z "/>
<path style="fill:rgb(40, 189, 255);fill-opacity:1.0;fill-rule:evenodd;stroke:rgb(0, 0, 0);stroke-width:3.0;" d="M 32.7786, 412.054 L 45.7443, 433.317 L 44.714, 435.624 L 22.5549, 446.968 L 26.3041, 414.957 L 28.8571, 410.451 z "/>
<path style="fill:rgb(40, 189, 255);fill-opacity:1.0;fill-rule:evenodd;stroke:rgb(0, 0, 0);stroke-width:3.0;" d="M 123.433, 311.337 L 107.803, 354.256 L 104.844, 357.305 L 108.32, 234.779 z "/>
<path style="fill:rgb(223, 15, 161);fill-opacity:1.0;fill-rule:evenodd;stroke:rgb(0, 0, 0);stroke-width:3.0;" d="M 125.643, 580.976 L 103.033, 593.23 L 102.622, 565.582 z "/>
<path style="fill:rgb(223, 15, 161);fill-opacity:1.0;fill-rule:evenodd;stroke:rgb(0, 0, 0);stroke-width:3.0;" d="M 347.199, 515.837 L 324.635, 486.785 L 356.627, 478.511 z "/>
<path style="fill:rgb(217, 12, 47);fill-opacity:1.0;fill-rule:evenodd;stroke:rgb(0, 0, 0);stroke-width:3.0;" d="M 718.473, 563.856 L 717.166, 569.881 L 703.128, 562.282 L 700.897, 552.392 z "/>
<path style="fill:rgb(255, 199, 14);fill-opacity:1.0;fill-rule:evenodd;stroke:rgb(0, 0, 0);stroke-width:3.0;" d="M 318.699, 479.143 L 288.973, 515.875 L 268.213, 503.711 L 317.172, 477.177 z "/>
<path style="fill:rgb(255, 199, 14);fill-opacity:1.0;fill-rule:evenodd;stroke:rgb(0, 0, 0);stroke-width:3.0;" d="M 220.983, 564.769 L 210.768, 578.293 L 204.503, 571.893 L 215.278, 560.385 z "/>
<path style="fill:rgb(255, 199, 14);fill-opacity:1.0;fill-rule:evenodd;stroke:rgb(0, 0, 0);stroke-width:3.0;" d="M 59.5031, 547.599 L 25.9696, 558.186 L 25.6792, 545.768 L 79.1613, 526.377 z "/>
<path style="fill:rgb(255, 199, 14);fill-opacity:1.0;fill-rule:evenodd;stroke:rgb(0, 0, 0);stroke-width:3.0;" d="M 419.847, 421.533 L 410.165, 426.78 L 400.615, 420.171 L 372.592, 398.299 L 372.731, 398.262 z "/>
<path style="fill:rgb(51, 0, 255);fill-opacity:1.0;fill-rule:evenodd;stroke:rgb(0, 0, 0);stroke-width:3.0;" d="M 76.7893, 164.026 L 72.3041, 172.104 L 50.095, 151.856 L 57.5423, 138.84 z "/>
<path style="fill:rgb(51, 0, 255);fill-opacity:1.0;fill-rule:evenodd;stroke:rgb(0, 0, 0);stroke-width:3.0;" d="M 26.07, 278.449 L 34.7595, 228.533 L 76.6247, 225.661 z "/>
<path style="fill:rgb(51, 0, 255);fill-opacity:1.0;fill-rule:evenodd;stroke:rgb(0, 0, 0);stroke-width:3.0;" d="M 133.661, 305.796 L 134.815, 326.431 L 127.832, 333.624 L 119.776, 292.812 L 120.393, 285.337 z "/>
<path style="fill:rgb(51, 0, 255);fill-opacity:1.0;fill-rule:evenodd;stroke:rgb(0, 0, 0);stroke-width:3.0;" d="M 527.429, 493.157 L 503.536, 502.068 L 497.253, 493.618 L 540.53, 482.21 z "/>
<path style="fill:rgb(51, 0, 255);fill-opacity:1.0;fill-rule:evenodd;stroke:rgb(0, 0, 0);stroke-width:3.0;" d="M 259.015, 342.329 L 268.004, 359.882 L 208.272, 361.132 L 157.185, 306.124 L 161.773, 253.673 z "/>
<path style="fill:rgb(33, 255, 255);fill-opacity:1.0;fill-rule:evenodd;stroke:rgb(0, 0, 0);stroke-width:3.0;" d="M 100.955, 122.8 L 84.1607, 159.814 L 72.5612, 171.641 L 100.128, 121.991 z "/>
<path style="fill:rgb(33, 255, 255);fill-opacity:1.0;fill-rule:evenodd;stroke:rgb(0, 0, 0);stroke-width:3.0;" d="M 368.192, 492.296 L 360.587, 506.304 L 354.58, 486.614 L 356.627, 478.511 L 363.555, 476.719 z "/>
<path style="fill:rgb(189, 49, 177);fill-opacity:1.0;fill-rule:evenodd;stroke:rgb(0, 0, 0);stroke-width:3.0;" d="M 180.2, 393.755 L 175.004, 371.263 L 191.298, 371.262 z "/>
<path style="fill:rgb(189, 49, 177);fill-opacity:1.0;fill-rule:evenodd;stroke:rgb(0, 0, 0);stroke-width:3.0;" d="M 730.67, 475.151 L 712.507, 477.865 L 671.534, 472.153 L 678.284, 452.138 z "/>
<path style="fill:rgb(255, 237, 16);fill-opacity:1.0;fill-rule:evenodd;stroke:rgb(0, 0, 0);stroke-width:3.0;" d="M 447.617, 461.043 L 452.077, 471.54 L 440.154, 473.2 L 431.186, 465.285 L 430.972, 458.984 z "/>
<path style="fill:rgb(255, 237, 16);fill-opacity:1.0;fill-rule:evenodd;stroke:rgb(0, 0, 0);stroke-width:3.0;" d="M 169.645, 381.413 L 178.72, 396.753 L 178.46, 397.282 L 159.371, 400.07 L 160.289, 380.679 z "/>
<path style="fill:rgb(255, 237, 16);fill-opacity:1.0;fill-rule:evenodd;stroke:rgb(0, 0, 0);stroke-width:3.0;" d="M 662.146, 285.314 L 665.253, 288.535 L 647.802, 297.993 L 624.566, 273.432 L 636.9, 268.33 z "/>
<path style="fill:rgb(255, 255, 8);fill-opacity:1.0;fill-rule:evenodd;stroke:rgb(0, 0, 0);stroke-width:3.0;" d="M 793.848, 264.932 L 791.694, 273.308 L 772.837, 274.382 L 772.745, 274.323 L 789.956, 262.335 z "/>
<path style="fill:rgb(255, 29, 65);fill-opacity:1.0;fill-rule:evenodd;stroke:rgb(0, 0, 0);stroke-width:3.0;" d="M 28.2873, 581.299 L 22.9101, 578.321 L 21.3467, 559.645 L 59.5031, 547.599 z "/>
<path style="fill:rgb(255, 255, 27);fill-opacity:1.0;fill-rule:evenodd;stroke:rgb(0, 0, 0);stroke-width:3.0;" d="M 712.507, 477.865 L 681.447, 482.507 L 675.827, 472.752 z "/>
<path style="fill:rgb(18, 255, 255);fill-opacity:1.0;fill-rule:evenodd;stroke:rgb(0, 0, 0);stroke-width:3.0;" d="M 420.36, 427.22 L 400.261, 438.286 L 396.869, 433.986 L 415.715, 423.772 z "/>
<path style="fill:rgb(18, 255, 255);fill-opacity:1.0;fill-rule:evenodd;stroke:rgb(0, 0, 0);stroke-width:3.0;" d="M 180.2, 393.755 L 178.72, 396.753 L 163.64, 371.264 L 175.004, 371.263 z "/>
<path style="fill:rgb(18, 255, 255);fill-opacity:1.0;fill-rule:evenodd;stroke:rgb(0, 0, 0);stroke-width:3.0;" d="M 623.521, 546.235 L 624.184, 549.9 L 620.624, 562.396 L 617.665, 563.233 L 617.232, 562.552 L 617.707, 535.561 L 618.333, 532.006 z "/>
<path style="fill:rgb(115, 128, 226);fill-opacity:1.0;fill-rule:evenodd;stroke:rgb(0, 0, 0);stroke-width:3.0;" d="M 348.298, 474.333 L 345.16, 481.476 L 341.348, 482.462 L 320.431, 475.411 L 327.677, 471.484 z "/>
<path style="fill:rgb(7, 0, 223);fill-opacity:1.0;fill-rule:evenodd;stroke:rgb(0, 0, 0);stroke-width:3.0;" d="M 352.377, 465.045 L 348.298, 474.333 L 327.677, 471.484 L 351.771, 458.426 z "/>
<path style="fill:rgb(98, 237, 255);fill-opacity:1.0;fill-rule:evenodd;stroke:rgb(0, 0, 0);stroke-width:3.0;" d="M 55.5688, 220.561 L 55.9079, 222.163 L 25.9716, 226.358 L 48.7339, 213.555 z "/>
<path style="fill:rgb(249, 255, 28);fill-opacity:1.0;fill-rule:evenodd;stroke:rgb(0, 0, 0);stroke-width:3.0;" d="M 755.352, 239.706 L 734.141, 251.201 L 726.095, 248.458 L 748.506, 237.176 z "/>
<path style="fill:rgb(50, 237, 255);fill-opacity:1.0;fill-rule:evenodd;stroke:rgb(0, 0, 0);stroke-width:3.0;" d="M 58.8217, 91.1762 L 70.2524, 112.546 L 74.446, 160.959 L 41.6971, 118.106 L 55.7774, 90.9893 z "/>
<path style="fill:rgb(50, 237, 255);fill-opacity:1.0;fill-rule:evenodd;stroke:rgb(0, 0, 0);stroke-width:3.0;" d="M 113.461, 135.043 L 102.741, 199.854 L 72.3041, 172.104 L 72.5612, 171.641 L 110.907, 132.542 z "/>
<path style="fill:rgb(33, 255, 255);fill-opacity:1.0;fill-rule:evenodd;stroke:rgb(0, 0, 0);stroke-width:3.0;" d="M 146.929, 423.382 L 134.192, 327.073 L 157.448, 303.116 z "/>
<path style="fill:rgb(150, 159, 226);fill-opacity:1.0;fill-rule:evenodd;stroke:rgb(0, 0, 0);stroke-width:3.0;" d="M 102.027, 525.615 L 102.11, 531.182 L 96.0964, 544.092 L 82.947, 543.191 L 100.51, 523.127 z "/>
<path style="fill:rgb(150, 159, 226);fill-opacity:1.0;fill-rule:evenodd;stroke:rgb(0, 0, 0);stroke-width:3.0;" d="M 775.791, 518.506 L 754.63, 524.491 L 753.237, 517.879 L 768.263, 510.356 z "/>
<path style="fill:rgb(16, 179, 184);fill-opacity:1.0;fill-rule:evenodd;stroke:rgb(0, 0, 0);stroke-width:3.0;" d="M 207.533, 582.576 L 200.407, 592.009 L 192.563, 583.762 L 189.603, 576.299 L 193.109, 561.695 z "/>
<path style="fill:rgb(255, 130, 16);fill-opacity:1.0;fill-rule:evenodd;stroke:rgb(0, 0, 0);stroke-width:3.0;" d="M 659.258, 551.468 L 626.163, 560.83 L 625.11, 555.013 L 646.754, 548.105 z "/>
<path style="fill:rgb(255, 130, 16);fill-opacity:1.0;fill-rule:evenodd;stroke:rgb(0, 0, 0);stroke-width:3.0;" d="M 135.99, 548.45 L 133.519, 576.708 L 125.643, 580.976 L 112.985, 572.512 L 102.145, 533.558 L 102.011, 524.53 z "/>
<path style="fill:rgb(255, 130, 16);fill-opacity:1.0;fill-rule:evenodd;stroke:rgb(0, 0, 0);stroke-width:3.0;" d="M 24.4408, 508.784 L 26.1454, 521.587 L 12.7088, 495.618 L 11.5674, 492.628 L 14.0087, 488.734 z "/>
<path style="fill:rgb(45, 132, 202);fill-opacity:1.0;fill-rule:evenodd;stroke:rgb(0, 0, 0);stroke-width:3.0;" d="M 672.235, 194.386 L 655.504, 195.259 L 653.469, 182.552 L 657.762, 181.513 z "/>
<path style="fill:rgb(246, 23, 252);fill-opacity:1.0;fill-rule:evenodd;stroke:rgb(0, 0, 0);stroke-width:3.0;" d="M 37.9549, 450.758 L 22.2897, 449.232 L 22.5549, 446.968 L 44.714, 435.624 z "/>
<path style="fill:rgb(246, 23, 252);fill-opacity:1.0;fill-rule:evenodd;stroke:rgb(0, 0, 0);stroke-width:3.0;" d="M 357.152, 431.801 L 365.879, 439.758 L 362.676, 452.516 L 362.224, 452.761 L 357.808, 449.857 L 353.469, 430.128 z "/>
<path style="fill:rgb(83, 34, 240);fill-opacity:1.0;fill-rule:evenodd;stroke:rgb(0, 0, 0);stroke-width:3.0;" d="M 734.141, 251.201 L 665.253, 288.535 L 661.773, 284.927 L 676.908, 273.217 L 711.858, 255.624 L 731.496, 250.299 z "/>
<path style="fill:rgb(255, 255, 19);fill-opacity:1.0;fill-rule:evenodd;stroke:rgb(0, 0, 0);stroke-width:3.0;" d="M 390.303, 571.333 L 389.765, 574.934 L 374.176, 565.8 L 365.43, 544.815 L 363.583, 536.931 z "/>
<path style="fill:rgb(255, 255, 19);fill-opacity:1.0;fill-rule:evenodd;stroke:rgb(0, 0, 0);stroke-width:3.0;" d="M 362.224, 452.761 L 342.18, 463.624 L 341.047, 463.378 L 324.199, 451.062 L 324.892, 448.824 L 335.831, 435.408 z "/>
<path style="fill:rgb(255, 255, 19);fill-opacity:1.0;fill-rule:evenodd;stroke:rgb(0, 0, 0);stroke-width:3.0;" d="M 312.683, 447.127 L 272.058, 501.627 L 256.965, 509.806 L 243.908, 465.024 L 289.958, 402.752 z "/>
<path style="fill:rgb(255, 255, 9);fill-opacity:1.0;fill-rule:evenodd;stroke:rgb(0, 0, 0);stroke-width:3.0;" d="M 649.127, 485.967 L 661.663, 549.718 L 617.995, 515.711 L 611.774, 481.347 z "/>
<path style="fill:rgb(255, 255, 9);fill-opacity:1.0;fill-rule:evenodd;stroke:rgb(0, 0, 0);stroke-width:3.0;" d="M 761.309, 524.848 L 736.303, 544.821 L 688.414, 554.663 L 688.097, 543.311 L 760.886, 522.722 z "/>
<path style="fill:rgb(255, 255, 9);fill-opacity:1.0;fill-rule:evenodd;stroke:rgb(0, 0, 0);stroke-width:3.0;" d="M 98.6615, 308.786 L 98.8049, 308.916 L 98.9856, 321.068 L 79.2209, 298.83 z "/>
<path style="fill:rgb(255, 255, 9);fill-opacity:1.0;fill-rule:evenodd;stroke:rgb(0, 0, 0);stroke-width:3.0;" d="M 373.454, 451.869 L 366.282, 470.574 L 354.652, 460.374 L 357.18, 455.495 L 365.651, 450.904 z "/>
<path style="fill:rgb(255, 255, 9);fill-opacity:1.0;fill-rule:evenodd;stroke:rgb(0, 0, 0);stroke-width:3.0;" d="M 338.278, 544.765 L 255.421, 534.268 L 270.621, 505.122 z "/>
<path style="fill:rgb(74, 3, 255);fill-opacity:1.0;fill-rule:evenodd;stroke:rgb(0, 0, 0);stroke-width:3.0;" d="M 484.018, 497.107 L 471.1, 500.512 L 465.116, 495.23 L 484.362, 489.628 z "/>
<path style="fill:rgb(255, 255, 75);fill-opacity:1.0;fill-rule:evenodd;stroke:rgb(0, 0, 0);stroke-width:3.0;" d="M 614.766, 497.873 L 623.521, 546.235 L 608.861, 506.026 L 608.721, 497.507 z "/>
<path style="fill:rgb(255, 255, 7);fill-opacity:1.0;fill-rule:evenodd;stroke:rgb(0, 0, 0);stroke-width:3.0;" d="M 732.031, 165.192 L 732.232, 181.801 L 710.814, 176.639 L 730.619, 161.321 L 731.002, 161.211 z "/>
<path style="fill:rgb(255, 44, 19);fill-opacity:1.0;fill-rule:evenodd;stroke:rgb(0, 0, 0);stroke-width:3.0;" d="M 390.351, 453.959 L 370.919, 474.64 L 369.457, 473.358 L 381.2, 452.827 z "/>
<path style="fill:rgb(255, 44, 19);fill-opacity:1.0;fill-rule:evenodd;stroke:rgb(0, 0, 0);stroke-width:3.0;" d="M 369.887, 475.081 L 353.679, 479.273 L 352.37, 464.971 L 352.904, 461.8 z "/>
<path style="fill:rgb(60, 61, 10);fill-opacity:1.0;fill-rule:evenodd;stroke:rgb(0, 0, 0);stroke-width:3.0;" d="M 557.869, 575.307 L 515.042, 573.162 L 510.99, 572.648 L 508.926, 568.908 L 574.439, 562.512 z "/>
<path style="fill:rgb(60, 61, 10);fill-opacity:1.0;fill-rule:evenodd;stroke:rgb(0, 0, 0);stroke-width:3.0;" d="M 24.6007, 449.457 L 24.5009, 480.882 L 20.9424, 488.85 L 17.9286, 486.467 L 22.2897, 449.232 z "/>
<path style="fill:rgb(255, 34, 142);fill-opacity:1.0;fill-rule:evenodd;stroke:rgb(0, 0, 0);stroke-width:3.0;" d="M 85.7307, 184.345 L 83.275, 187.561 L 67.9161, 188.961 L 53.1327, 169.761 L 60.3105, 161.169 z "/>
<path style="fill:rgb(40, 41, 231);fill-opacity:1.0;fill-rule:evenodd;stroke:rgb(0, 0, 0);stroke-width:3.0;" d="M 109.146, 205.693 L 108.755, 219.454 L 101.224, 217.184 L 97.3374, 210.232 L 97.1067, 194.717 z "/>
<path style="fill:rgb(40, 41, 231);fill-opacity:1.0;fill-rule:evenodd;stroke:rgb(0, 0, 0);stroke-width:3.0;" d="M 369.365, 531.852 L 355.503, 526.528 L 352.033, 522.061 L 364.665, 498.793 L 379.846, 498.028 z "/>
<path style="fill:rgb(243, 82, 43);fill-opacity:1.0;fill-rule:evenodd;stroke:rgb(0, 0, 0);stroke-width:3.0;" d="M 379.846, 498.028 L 364.665, 498.793 L 378.788, 472.779 L 388.444, 470.282 z "/>
<path style="fill:rgb(255, 189, 7);fill-opacity:1.0;fill-rule:evenodd;stroke:rgb(0, 0, 0);stroke-width:3.0;" d="M 655.86, 545.199 L 625.11, 555.013 L 617.995, 515.711 z "/>
<path style="fill:rgb(240, 102, 23);fill-opacity:1.0;fill-rule:evenodd;stroke:rgb(0, 0, 0);stroke-width:3.0;" d="M 356.329, 527.592 L 364.03, 559.855 L 288.973, 515.875 L 318.699, 479.143 z "/>
<path style="fill:rgb(34, 40, 255);fill-opacity:1.0;fill-rule:evenodd;stroke:rgb(0, 0, 0);stroke-width:3.0;" d="M 297.819, 386.564 L 286.449, 395.899 L 273.324, 370.27 L 285.896, 368.609 z "/>
<path style="fill:rgb(161, 117, 255);fill-opacity:1.0;fill-rule:evenodd;stroke:rgb(0, 0, 0);stroke-width:3.0;" d="M 70.4875, 289.004 L 98.9856, 321.068 L 100.465, 420.589 L 34.4687, 269.68 L 36.3409, 267.725 z "/>
<path style="fill:rgb(255, 14, 79);fill-opacity:1.0;fill-rule:evenodd;stroke:rgb(0, 0, 0);stroke-width:3.0;" d="M 159.371, 400.07 L 159.296, 400.081 L 150.09, 387.242 L 151.488, 371.265 L 160.735, 371.264 z "/>
<path style="fill:rgb(24, 163, 255);fill-opacity:1.0;fill-rule:evenodd;stroke:rgb(0, 0, 0);stroke-width:3.0;" d="M 561.624, 475.144 L 562.444, 476.433 L 498.293, 493.344 L 488.633, 492.321 L 491.879, 487.44 L 542.319, 472.756 z "/>
<path style="fill:rgb(24, 163, 255);fill-opacity:1.0;fill-rule:evenodd;stroke:rgb(0, 0, 0);stroke-width:3.0;" d="M 530.167, 575.385 L 530.706, 585.573 L 519.946, 588.879 L 513.398, 577.011 L 529.507, 575.188 z "/>
<path style="fill:rgb(36, 108, 234);fill-opacity:1.0;fill-rule:evenodd;stroke:rgb(0, 0, 0);stroke-width:3.0;" d="M 393.385, 454.335 L 388.444, 470.282 L 380.886, 472.236 L 384.685, 459.989 L 390.351, 453.959 z "/>
<path style="fill:rgb(255, 79, 7);fill-opacity:1.0;fill-rule:evenodd;stroke:rgb(0, 0, 0);stroke-width:3.0;" d="M 272.436, 368.536 L 253.902, 371.258 L 217.679, 371.261 L 216.683, 370.188 L 214.85, 360.994 L 268.004, 359.882 z "/>
<path style="fill:rgb(255, 48, 138);fill-opacity:1.0;fill-rule:evenodd;stroke:rgb(0, 0, 0);stroke-width:3.0;" d="M 33.3029, 535.421 L 33.2705, 535.439 L 20.3287, 526.191 L 17.4092, 518.433 L 23.7718, 517 z "/>
<path style="fill:rgb(255, 48, 138);fill-opacity:1.0;fill-rule:evenodd;stroke:rgb(0, 0, 0);stroke-width:3.0;" d="M 227.042, 526.023 L 179.914, 551.564 L 217.678, 500.496 z "/>
<path style="fill:rgb(255, 48, 138);fill-opacity:1.0;fill-rule:evenodd;stroke:rgb(0, 0, 0);stroke-width:3.0;" d="M 162.912, 312.289 L 167.963, 332.619 L 164.703, 336.038 L 155.893, 320.903 L 157.185, 306.124 z "/>
<path style="fill:rgb(255, 48, 138);fill-opacity:1.0;fill-rule:evenodd;stroke:rgb(0, 0, 0);stroke-width:3.0;" d="M 69.3065, 91.8196 L 100.128, 121.991 L 76.7893, 164.026 L 74.446, 160.959 L 68.4525, 91.7672 z "/>
<path style="fill:rgb(7, 255, 249);fill-opacity:1.0;fill-rule:evenodd;stroke:rgb(0, 0, 0);stroke-width:3.0;" d="M 358.305, 501.772 L 359.843, 507.676 L 353.944, 518.542 L 350.763, 501.728 L 352.503, 494.838 z "/>
<path style="fill:rgb(7, 255, 249);fill-opacity:1.0;fill-rule:evenodd;stroke:rgb(0, 0, 0);stroke-width:3.0;" d="M 762.429, 292.804 L 701.712, 330.023 L 719.156, 315.964 L 759.332, 289.967 z "/>
<path style="fill:rgb(202, 5, 7);fill-opacity:1.0;fill-rule:evenodd;stroke:rgb(0, 0, 0);stroke-width:3.0;" d="M 542.319, 472.756 L 493.953, 486.836 L 485.648, 466.865 L 489.902, 466.273 z "/>
<path style="fill:rgb(255, 19, 51);fill-opacity:1.0;fill-rule:evenodd;stroke:rgb(0, 0, 0);stroke-width:3.0;" d="M 141.961, 480.18 L 132.171, 480.211 L 117.541, 455.933 L 146.169, 432.077 z "/>
<path style="fill:rgb(255, 19, 51);fill-opacity:1.0;fill-rule:evenodd;stroke:rgb(0, 0, 0);stroke-width:3.0;" d="M 328.794, 417.132 L 328.883, 425.395 L 312.683, 447.127 L 289.473, 401.805 z "/>
<path style="fill:rgb(249, 7, 30);fill-opacity:1.0;fill-rule:evenodd;stroke:rgb(0, 0, 0);stroke-width:3.0;" d="M 328.672, 405.835 L 328.794, 417.132 L 289.473, 401.805 L 286.449, 395.899 L 302.931, 382.367 z "/>
<path style="fill:rgb(246, 22, 252);fill-opacity:1.0;fill-rule:evenodd;stroke:rgb(0, 0, 0);stroke-width:3.0;" d="M 731.573, 230.92 L 711.467, 246.476 L 706.649, 239.357 L 719.646, 226.513 z "/>
<path style="fill:rgb(255, 0, 10);fill-opacity:1.0;fill-rule:evenodd;stroke:rgb(0, 0, 0);stroke-width:3.0;" d="M 739.944, 497.201 L 660.11, 503.879 L 672.691, 488.882 z "/>
<path style="fill:rgb(255, 35, 165);fill-opacity:1.0;fill-rule:evenodd;stroke:rgb(0, 0, 0);stroke-width:3.0;" d="M 672.691, 488.882 L 660.11, 503.879 L 652.77, 504.493 L 649.127, 485.967 z "/>
<path style="fill:rgb(220, 18, 252);fill-opacity:1.0;fill-rule:evenodd;stroke:rgb(0, 0, 0);stroke-width:3.0;" d="M 732.836, 570.464 L 721.879, 557.622 L 741.915, 548.955 z "/>
<path style="fill:rgb(255, 249, 59);fill-opacity:1.0;fill-rule:evenodd;stroke:rgb(0, 0, 0);stroke-width:3.0;" d="M 729.106, 181.048 L 781.811, 225.367 L 755.352, 239.706 L 743.614, 235.369 L 669.817, 192.236 L 658.458, 182.132 L 692.672, 172.265 z "/>
<path style="fill:rgb(255, 175, 170);fill-opacity:1.0;fill-rule:evenodd;stroke:rgb(0, 0, 0);stroke-width:3.0;" d="M 129.519, 268.479 L 140.91, 316.974 L 120.393, 285.337 L 121.866, 267.487 z "/>
<path style="fill:rgb(255, 231, 71);fill-opacity:1.0;fill-rule:evenodd;stroke:rgb(0, 0, 0);stroke-width:3.0;" d="M 545.641, 425.696 L 504.415, 450.968 L 473.073, 444.591 L 458.741, 409.002 L 462.527, 398.402 L 537.671, 357.678 z "/>
<path style="fill:rgb(255, 231, 71);fill-opacity:1.0;fill-rule:evenodd;stroke:rgb(0, 0, 0);stroke-width:3.0;" d="M 41.3928, 76.2099 L 28.6158, 76.5912 L 23.1256, 69.7907 L 32.9884, 65.11 z "/>
<path style="fill:rgb(255, 231, 71);fill-opacity:1.0;fill-rule:evenodd;stroke:rgb(0, 0, 0);stroke-width:3.0;" d="M 282.454, 363.698 L 277.651, 369.698 L 273.324, 370.27 L 259.015, 342.329 z "/>
<path style="fill:rgb(255, 231, 71);fill-opacity:1.0;fill-rule:evenodd;stroke:rgb(0, 0, 0);stroke-width:3.0;" d="M 134.449, 483.99 L 101.461, 487.516 L 101.353, 480.3 L 101.669, 469.16 L 117.541, 455.933 z "/>
<path style="fill:rgb(187, 246, 100);fill-opacity:1.0;fill-rule:evenodd;stroke:rgb(0, 0, 0);stroke-width:3.0;" d="M 39.228, 280.562 L 39.4197, 288.876 L 29.2452, 307.465 L 23.9986, 301.776 L 36.5589, 274.459 z "/>
<path style="fill:rgb(197, 31, 114);fill-opacity:1.0;fill-rule:evenodd;stroke:rgb(0, 0, 0);stroke-width:3.0;" d="M 29.2452, 307.465 L 19.6986, 324.907 L 19.0897, 312.452 L 23.9986, 301.776 z "/>
<path style="fill:rgb(226, 231, 39);fill-opacity:1.0;fill-rule:evenodd;stroke:rgb(0, 0, 0);stroke-width:3.0;" d="M 635.336, 268.977 L 616.986, 276.568 L 621.538, 260.879 L 633.024, 258.666 z "/>
<path style="fill:rgb(175, 66, 228);fill-opacity:1.0;fill-rule:evenodd;stroke:rgb(0, 0, 0);stroke-width:3.0;" d="M 678.463, 199.927 L 693.227, 213.059 L 686.753, 214.358 L 671.919, 208.877 L 667.722, 205.396 L 665.981, 198.878 L 671.108, 196.307 z "/>
<path style="fill:rgb(82, 5, 252);fill-opacity:1.0;fill-rule:evenodd;stroke:rgb(0, 0, 0);stroke-width:3.0;" d="M 161.759, 330.98 L 156.132, 345.025 L 153.545, 347.738 L 155.893, 320.903 z "/>
<path style="fill:rgb(82, 5, 252);fill-opacity:1.0;fill-rule:evenodd;stroke:rgb(0, 0, 0);stroke-width:3.0;" d="M 256.965, 509.806 L 227.042, 526.023 L 217.678, 500.496 L 243.908, 465.024 z "/>
<path style="fill:rgb(110, 255, 255);fill-opacity:1.0;fill-rule:evenodd;stroke:rgb(0, 0, 0);stroke-width:3.0;" d="M 57.5423, 138.84 L 50.095, 151.856 L 33.077, 136.34 L 37.662, 112.826 z "/>
<path style="fill:rgb(50, 1, 209);fill-opacity:1.0;fill-rule:evenodd;stroke:rgb(0, 0, 0);stroke-width:3.0;" d="M 90.516, 212.047 L 87.5437, 213.191 L 85.1233, 213.018 L 82.1639, 203.775 L 91.5814, 193.537 z "/>
<path style="fill:rgb(36, 152, 255);fill-opacity:1.0;fill-rule:evenodd;stroke:rgb(0, 0, 0);stroke-width:3.0;" d="M 678.284, 452.138 L 666.166, 488.075 L 548.518, 473.523 L 603.441, 440.203 L 628.088, 430.087 z "/>
<path style="fill:rgb(255, 179, 10);fill-opacity:1.0;fill-rule:evenodd;stroke:rgb(0, 0, 0);stroke-width:3.0;" d="M 112.985, 572.512 L 102.622, 565.582 L 102.145, 533.558 z "/>
<path style="fill:rgb(255, 1, 67);fill-opacity:1.0;fill-rule:evenodd;stroke:rgb(0, 0, 0);stroke-width:3.0;" d="M 764.143, 539.1 L 745.241, 542.984 L 744.576, 538.213 L 761.309, 524.848 z "/>
<path style="fill:rgb(43, 26, 255);fill-opacity:1.0;fill-rule:evenodd;stroke:rgb(0, 0, 0);stroke-width:3.0;" d="M 694.904, 66.8316 L 673.576, 81.5285 L 686.751, 36.1206 z "/>
<path style="fill:rgb(255, 103, 11);fill-opacity:1.0;fill-rule:evenodd;stroke:rgb(0, 0, 0);stroke-width:3.0;" d="M 714.72, 224.693 L 706.917, 230.527 L 700.53, 230.316 L 698.005, 226.585 L 696.713, 218.039 z "/>
<path style="fill:rgb(255, 231, 78);fill-opacity:1.0;fill-rule:evenodd;stroke:rgb(0, 0, 0);stroke-width:3.0;" d="M 55.7774, 90.9893 L 41.6971, 118.106 L 25.4317, 96.8222 L 28.578, 89.3202 z "/>
<path style="fill:rgb(255, 24, 197);fill-opacity:1.0;fill-rule:evenodd;stroke:rgb(0, 0, 0);stroke-width:3.0;" d="M 183.776, 334.755 L 193.103, 344.798 L 153.442, 348.921 L 153.545, 347.738 L 166.961, 333.67 z "/>
<path style="fill:rgb(240, 40, 15);fill-opacity:1.0;fill-rule:evenodd;stroke:rgb(0, 0, 0);stroke-width:3.0;" d="M 593.664, 570.022 L 547.976, 582.945 L 574.439, 562.512 L 591.708, 560.826 z "/>
<path style="fill:rgb(255, 50, 61);fill-opacity:1.0;fill-rule:evenodd;stroke:rgb(0, 0, 0);stroke-width:3.0;" d="M 217.679, 371.261 L 153.375, 371.264 L 188.333, 345.294 L 193.103, 344.798 z "/>
<path style="fill:rgb(231, 220, 24);fill-opacity:1.0;fill-rule:evenodd;stroke:rgb(0, 0, 0);stroke-width:3.0;" d="M 36.7911, 453.363 L 24.5009, 480.882 L 24.5898, 452.882 z "/>
</svg>