<?xml version="1.0" encoding="iso-8859-1" standalone="no"?>
<!DOCTYPE svg PUBLIC "-//W3C//DTD SVG 1.0//EN" "http://www.w3.org/TR/2001/REC-SVG-20010904/DTD/svg10.dtd">
<svg xmlns="http://www.w3.org/2000/svg" width="800" height="600">
<path style="fill:rgb(0, 0, 0);fill-opacity:0.0;fill-rule:evenodd;stroke:rgb(0, 0, 0);stroke-width:0.0;" d="M 0, 600 L 800, 600 L 800, 0 L 0, 0 z "/>
<path style="fill:rgb(240, 255, 33);fill-opacity:1.0;fill-rule:evenodd;stroke:rgb(0, 0, 0);stroke-width:3.0;" d="M 34.1124, 140.701 L 33.603, 157.534 L 31.0266, 157.846 L 25.4518, 137.169 z "/>
<path style="fill:rgb(234, 1, 112);fill-opacity:1.0;fill-rule:evenodd;stroke:rgb(0, 0, 0);stroke-width:3.0;" d="M 56.5057, 361.014 L 66.1282, 382.468 L 65.7902, 388.552 L 45.6728, 371.125 L 52.3922, 358.105 z "/>
<path style="fill:rgb(234, 1, 112);fill-opacity:1.0;fill-rule:evenodd;stroke:rgb(0, 0, 0);stroke-width:3.0;" d="M 285.331, 261.076 L 292.426, 271.487 L 259.656, 280.383 L 275.483, 259.637 z "/>
<path style="fill:rgb(255, 255, 54);fill-opacity:1.0;fill-rule:evenodd;stroke:rgb(0, 0, 0);stroke-width:3.0;" d="M 139.602, 101.618 L 139.973, 112.987 L 96.1568, 63.6784 L 87.0951, 49.4402 L 89.4379, 27.8228 L 104.154, 27.1378 z "/>
<path style="fill:rgb(255, 237, 21);fill-opacity:1.0;fill-rule:evenodd;stroke:rgb(0, 0, 0);stroke-width:3.0;" d="M 118.393, 487.897 L 111.47, 513.562 L 109.796, 507.963 L 103.646, 481.619 z "/>
<path style="fill:rgb(255, 237, 21);fill-opacity:1.0;fill-rule:evenodd;stroke:rgb(0, 0, 0);stroke-width:3.0;" d="M 76.6705, 142.299 L 59.5057, 148.57 L 64.2094, 127.948 L 76.8697, 127.255 z "/>
<path style="fill:rgb(255, 237, 21);fill-opacity:1.0;fill-rule:evenodd;stroke:rgb(0, 0, 0);stroke-width:3.0;" d="M 458.426, 226.424 L 342.787, 257.816 L 397.061, 201.474 z "/>
<path style="fill:rgb(91, 209, 212);fill-opacity:1.0;fill-rule:evenodd;stroke:rgb(0, 0, 0);stroke-width:3.0;" d="M 218.165, 46.2893 L 279.75, 254.044 L 265.703, 272.456 L 140.366, 125.035 L 136.52, 7.07131 z "/>
<path style="fill:rgb(14, 189, 187);fill-opacity:1.0;fill-rule:evenodd;stroke:rgb(0, 0, 0);stroke-width:3.0;" d="M 104.282, 534.997 L 101.873, 550.546 L 96.5975, 555.907 L 93.6322, 558.239 L 100.4, 532.868 z "/>
<path style="fill:rgb(14, 189, 187);fill-opacity:1.0;fill-rule:evenodd;stroke:rgb(0, 0, 0);stroke-width:3.0;" d="M 146.714, 311.043 L 146.432, 311.12 L 146.233, 305.015 L 156.512, 268.167 L 163.955, 265.617 z "/>
<path style="fill:rgb(14, 189, 187);fill-opacity:1.0;fill-rule:evenodd;stroke:rgb(0, 0, 0);stroke-width:3.0;" d="M 379.222, 123.654 L 279.75, 254.044 L 218.165, 46.2893 z "/>
<path style="fill:rgb(243, 62, 18);fill-opacity:1.0;fill-rule:evenodd;stroke:rgb(0, 0, 0);stroke-width:3.0;" d="M 97.7528, 66.1861 L 140.644, 133.579 L 145.274, 275.602 L 75.3246, 216.964 L 83.8425, 63.6698 z "/>
<path style="fill:rgb(255, 217, 23);fill-opacity:1.0;fill-rule:evenodd;stroke:rgb(0, 0, 0);stroke-width:3.0;" d="M 34.9987, 111.411 L 9.48285, 116.573 L 21.7951, 99.1311 L 35.5824, 92.1221 z "/>
<path style="fill:rgb(161, 1, 71);fill-opacity:1.0;fill-rule:evenodd;stroke:rgb(0, 0, 0);stroke-width:3.0;" d="M 323.919, 252.763 L 309.203, 266.933 L 292.426, 271.487 L 280.166, 253.498 L 294.418, 234.817 z "/>
<path style="fill:rgb(246, 159, 19);fill-opacity:1.0;fill-rule:evenodd;stroke:rgb(0, 0, 0);stroke-width:3.0;" d="M 221.414, 353.053 L 192.898, 374.631 L 191.428, 374.768 L 147.798, 353.027 L 147.552, 345.477 L 227.523, 330.379 z "/>
<path style="fill:rgb(255, 44, 19);fill-opacity:1.0;fill-rule:evenodd;stroke:rgb(0, 0, 0);stroke-width:3.0;" d="M 151.076, 557.781 L 126.714, 563.873 L 132.744, 545.7 z "/>
<path style="fill:rgb(255, 44, 19);fill-opacity:1.0;fill-rule:evenodd;stroke:rgb(0, 0, 0);stroke-width:3.0;" d="M 131.759, 372.969 L 135.482, 387.954 L 119.62, 369.581 L 119.824, 365.725 z "/>
<path style="fill:rgb(255, 44, 19);fill-opacity:1.0;fill-rule:evenodd;stroke:rgb(0, 0, 0);stroke-width:3.0;" d="M 402.635, 134.9 L 376.362, 175.603 L 357.651, 173.915 L 383.711, 125.81 z "/>
<path style="fill:rgb(215, 56, 75);fill-opacity:1.0;fill-rule:evenodd;stroke:rgb(0, 0, 0);stroke-width:3.0;" d="M 126.811, 340.393 L 63.9177, 536.802 L 75.9501, 323.962 z "/>
<path style="fill:rgb(215, 56, 75);fill-opacity:1.0;fill-rule:evenodd;stroke:rgb(0, 0, 0);stroke-width:3.0;" d="M 431.067, 164.772 L 413.536, 178.957 L 410.143, 178.651 L 415.789, 156.141 L 426.049, 147.475 z "/>
<path style="fill:rgb(215, 56, 75);fill-opacity:1.0;fill-rule:evenodd;stroke:rgb(0, 0, 0);stroke-width:3.0;" d="M 464.876, 183.588 L 462.445, 211.262 L 431.443, 209.286 L 431.149, 208.616 L 456.61, 182.843 z "/>
<path style="fill:rgb(215, 56, 75);fill-opacity:1.0;fill-rule:evenodd;stroke:rgb(0, 0, 0);stroke-width:3.0;" d="M 49.6385, 448.464 L 30.2147, 552.57 L 22.1612, 535.65 L 25.1413, 437.166 z "/>
<path style="fill:rgb(252, 52, 24);fill-opacity:1.0;fill-rule:evenodd;stroke:rgb(0, 0, 0);stroke-width:3.0;" d="M 65.6863, 390.421 L 62.1407, 454.23 L 25.1413, 437.166 L 25.9854, 409.274 L 36.733, 388.448 z "/>
<path style="fill:rgb(255, 12, 17);fill-opacity:1.0;fill-rule:evenodd;stroke:rgb(0, 0, 0);stroke-width:3.0;" d="M 410.349, 138.606 L 389.743, 176.81 L 376.362, 175.603 L 402.635, 134.9 z "/>
<path style="fill:rgb(255, 12, 17);fill-opacity:1.0;fill-rule:evenodd;stroke:rgb(0, 0, 0);stroke-width:3.0;" d="M 137.671, 530.852 L 126.714, 563.873 L 125.282, 564.231 L 119.79, 538.63 L 126.193, 512.943 z "/>
<path style="fill:rgb(255, 159, 18);fill-opacity:1.0;fill-rule:evenodd;stroke:rgb(0, 0, 0);stroke-width:3.0;" d="M 220.134, 291.112 L 177.617, 302.654 L 182.3, 261.302 z "/>
<path style="fill:rgb(249, 252, 29);fill-opacity:1.0;fill-rule:evenodd;stroke:rgb(0, 0, 0);stroke-width:3.0;" d="M 139.262, 91.1737 L 133.958, 81.8776 L 136.448, 33.5899 L 137.299, 30.9623 z "/>
<path style="fill:rgb(252, 132, 32);fill-opacity:1.0;fill-rule:evenodd;stroke:rgb(0, 0, 0);stroke-width:3.0;" d="M 146.858, 324.215 L 148.785, 383.303 L 118.883, 365.154 L 129.148, 333.094 L 144.052, 322.151 z "/>
<path style="fill:rgb(92, 184, 255);fill-opacity:1.0;fill-rule:evenodd;stroke:rgb(0, 0, 0);stroke-width:3.0;" d="M 10.348, 448.85 L 18.2123, 481.806 L 10.3189, 472.168 L 8.91686, 464.931 L 5.85043, 446.509 z "/>
<path style="fill:rgb(92, 184, 255);fill-opacity:1.0;fill-rule:evenodd;stroke:rgb(0, 0, 0);stroke-width:3.0;" d="M 120.419, 480.389 L 118.393, 487.897 L 103.646, 481.619 L 102.953, 478.651 L 108.953, 472.329 z "/>
<path style="fill:rgb(92, 184, 255);fill-opacity:1.0;fill-rule:evenodd;stroke:rgb(0, 0, 0);stroke-width:3.0;" d="M 276.445, 342.108 L 230.273, 371.159 L 218.202, 372.28 L 204.827, 365.605 L 241.058, 338.188 z "/>
<path style="fill:rgb(92, 184, 255);fill-opacity:1.0;fill-rule:evenodd;stroke:rgb(0, 0, 0);stroke-width:3.0;" d="M 76.3641, 198.255 L 73.3043, 253.322 L 51.8037, 256.35 L 31.1035, 240.136 L 32.5232, 193.22 L 40.0208, 189.368 z "/>
<path style="fill:rgb(255, 5, 10);fill-opacity:1.0;fill-rule:evenodd;stroke:rgb(0, 0, 0);stroke-width:3.0;" d="M 133.67, 510.1 L 129.251, 504.477 L 131.742, 499.06 L 145.351, 485.596 z "/>
<path style="fill:rgb(47, 6, 255);fill-opacity:1.0;fill-rule:evenodd;stroke:rgb(0, 0, 0);stroke-width:3.0;" d="M 413.765, 178.978 L 413.069, 192.049 L 370.426, 190.645 L 338.132, 177.515 L 341.958, 172.5 z "/>
<path style="fill:rgb(47, 6, 255);fill-opacity:1.0;fill-rule:evenodd;stroke:rgb(0, 0, 0);stroke-width:3.0;" d="M 228.441, 228.628 L 222.802, 234.435 L 141.497, 159.731 L 140.366, 125.035 z "/>
<path style="fill:rgb(249, 48, 231);fill-opacity:1.0;fill-rule:evenodd;stroke:rgb(0, 0, 0);stroke-width:3.0;" d="M 496.889, 180.175 L 449.248, 157.291 L 482.601, 119.077 z "/>
<path style="fill:rgb(252, 17, 21);fill-opacity:1.0;fill-rule:evenodd;stroke:rgb(0, 0, 0);stroke-width:3.0;" d="M 482.601, 119.077 L 449.943, 156.495 L 289.143, 80.2454 L 469.671, 63.7872 z "/>
<path style="fill:rgb(255, 1, 9);fill-opacity:1.0;fill-rule:evenodd;stroke:rgb(0, 0, 0);stroke-width:3.0;" d="M 22.8197, 513.89 L 15.9842, 507.389 L 15.5329, 504.677 L 19.3012, 487.295 L 23.6718, 485.731 z "/>
<path style="fill:rgb(255, 157, 255);fill-opacity:1.0;fill-rule:evenodd;stroke:rgb(0, 0, 0);stroke-width:3.0;" d="M 196.493, 336.237 L 188.695, 337.709 L 146.918, 326.038 L 146.432, 311.12 L 199.449, 296.727 z "/>
<path style="fill:rgb(255, 157, 255);fill-opacity:1.0;fill-rule:evenodd;stroke:rgb(0, 0, 0);stroke-width:3.0;" d="M 117.439, 252.268 L 85.7984, 272.147 L 97.1555, 244.622 L 104.362, 241.306 z "/>
<path style="fill:rgb(255, 157, 255);fill-opacity:1.0;fill-rule:evenodd;stroke:rgb(0, 0, 0);stroke-width:3.0;" d="M 44.9001, 372.623 L 42.9352, 376.43 L 39.3957, 374.385 L 46.854, 339.973 L 58.1586, 323.275 z "/>
<path style="fill:rgb(172, 85, 237);fill-opacity:1.0;fill-rule:evenodd;stroke:rgb(0, 0, 0);stroke-width:3.0;" d="M 63.0659, 265.172 L 58.9943, 283.958 L 29.6722, 287.434 L 31.1035, 240.136 z "/>
<path style="fill:rgb(231, 194, 240);fill-opacity:1.0;fill-rule:evenodd;stroke:rgb(0, 0, 0);stroke-width:3.0;" d="M 222.802, 234.435 L 212.503, 245.04 L 154.458, 264.464 L 144.484, 251.372 L 141.497, 159.731 z "/>
<path style="fill:rgb(255, 255, 85);fill-opacity:1.0;fill-rule:evenodd;stroke:rgb(0, 0, 0);stroke-width:3.0;" d="M 251.153, 298.582 L 251.385, 330.374 L 221.414, 353.053 L 239.519, 285.85 L 240.234, 285.656 z "/>
<path style="fill:rgb(255, 255, 85);fill-opacity:1.0;fill-rule:evenodd;stroke:rgb(0, 0, 0);stroke-width:3.0;" d="M 145.274, 275.602 L 145.485, 282.078 L 141.754, 293.729 L 103.669, 332.917 L 95.8082, 330.377 L 114.924, 282.501 L 144.66, 275.087 z "/>
<path style="fill:rgb(255, 255, 85);fill-opacity:1.0;fill-rule:evenodd;stroke:rgb(0, 0, 0);stroke-width:3.0;" d="M 28.398, 229.384 L 25.4635, 238.163 L 11.0633, 223.733 L 9.74548, 218.929 L 14.2328, 214.509 z "/>
<path style="fill:rgb(204, 2, 23);fill-opacity:1.0;fill-rule:evenodd;stroke:rgb(0, 0, 0);stroke-width:3.0;" d="M 54.8804, 565.025 L 53.9659, 567.881 L 35.9343, 558.941 L 36.8475, 556.61 L 47.4644, 555.677 z "/>
<path style="fill:rgb(204, 2, 23);fill-opacity:1.0;fill-rule:evenodd;stroke:rgb(0, 0, 0);stroke-width:3.0;" d="M 465.075, 183.606 L 452.773, 182.496 L 451.125, 172.278 L 460.402, 170.93 z "/>
<path style="fill:rgb(204, 2, 23);fill-opacity:1.0;fill-rule:evenodd;stroke:rgb(0, 0, 0);stroke-width:3.0;" d="M 75.9501, 323.962 L 74.8554, 343.326 L 68.225, 344.734 L 69.495, 321.877 z "/>
<path style="fill:rgb(255, 5, 161);fill-opacity:1.0;fill-rule:evenodd;stroke:rgb(0, 0, 0);stroke-width:3.0;" d="M 322.293, 273.37 L 250.807, 298.173 L 240.234, 285.656 L 315.795, 265.144 z "/>
<path style="fill:rgb(234, 159, 47);fill-opacity:1.0;fill-rule:evenodd;stroke:rgb(0, 0, 0);stroke-width:3.0;" d="M 69.7577, 557.242 L 54.8183, 565.219 L 72.0648, 511.36 z "/>
<path style="fill:rgb(234, 159, 47);fill-opacity:1.0;fill-rule:evenodd;stroke:rgb(0, 0, 0);stroke-width:3.0;" d="M 136.023, 108.542 L 123.11, 106.028 L 119.4, 100.2 L 117.472, 87.6657 z "/>
<path style="fill:rgb(255, 157, 50);fill-opacity:1.0;fill-rule:evenodd;stroke:rgb(0, 0, 0);stroke-width:3.0;" d="M 109.148, 435.02 L 110.932, 439.05 L 110.22, 449.355 L 99.152, 444.157 L 100.22, 434.578 z "/>
<path style="fill:rgb(81, 19, 175);fill-opacity:1.0;fill-rule:evenodd;stroke:rgb(0, 0, 0);stroke-width:3.0;" d="M 56.3681, 451.568 L 45.7753, 494.49 L 42.166, 488.514 L 49.6385, 448.464 z "/>
<path style="fill:rgb(81, 19, 175);fill-opacity:1.0;fill-rule:evenodd;stroke:rgb(0, 0, 0);stroke-width:3.0;" d="M 513.039, 187.933 L 465.075, 183.606 L 456.692, 160.866 z "/>
<path style="fill:rgb(255, 215, 25);fill-opacity:1.0;fill-rule:evenodd;stroke:rgb(0, 0, 0);stroke-width:3.0;" d="M 123.174, 280.444 L 71.0755, 293.434 L 71.4182, 287.265 L 92.5908, 271.232 z "/>
<path style="fill:rgb(255, 30, 108);fill-opacity:1.0;fill-rule:evenodd;stroke:rgb(0, 0, 0);stroke-width:3.0;" d="M 111.464, 513.542 L 119.213, 539.473 L 109.881, 536.817 L 101.155, 502.354 z "/>
<path style="fill:rgb(255, 30, 108);fill-opacity:1.0;fill-rule:evenodd;stroke:rgb(0, 0, 0);stroke-width:3.0;" d="M 144.66, 275.087 L 123.174, 280.444 L 92.5908, 271.232 L 117.532, 252.346 z "/>
<path style="fill:rgb(177, 33, 94);fill-opacity:1.0;fill-rule:evenodd;stroke:rgb(0, 0, 0);stroke-width:3.0;" d="M 83.0777, 77.4327 L 79.4345, 142.998 L 76.6507, 143.797 L 77.4774, 81.3618 L 78.1053, 77.15 z "/>
<path style="fill:rgb(249, 231, 19);fill-opacity:1.0;fill-rule:evenodd;stroke:rgb(0, 0, 0);stroke-width:3.0;" d="M 117.131, 390.085 L 112.956, 408.933 L 106.502, 406.638 L 107.787, 399.802 L 107.876, 399.524 L 115.199, 389.386 z "/>
<path style="fill:rgb(209, 3, 148);fill-opacity:1.0;fill-rule:evenodd;stroke:rgb(0, 0, 0);stroke-width:3.0;" d="M 32.7176, 380.846 L 35.8459, 390.167 L 25.9854, 409.274 L 27.0624, 373.68 z "/>
<path style="fill:rgb(234, 8, 30);fill-opacity:1.0;fill-rule:evenodd;stroke:rgb(0, 0, 0);stroke-width:3.0;" d="M 77.9403, 169.89 L 35.5715, 191.654 L 32.6208, 189.992 L 33.645, 156.146 L 79.4345, 142.998 z "/>
<path style="fill:rgb(234, 8, 30);fill-opacity:1.0;fill-rule:evenodd;stroke:rgb(0, 0, 0);stroke-width:3.0;" d="M 74.4925, 349.745 L 72.2872, 388.755 L 65.7662, 388.984 L 68.0114, 348.577 z "/>
<path style="fill:rgb(234, 8, 30);fill-opacity:1.0;fill-rule:evenodd;stroke:rgb(0, 0, 0);stroke-width:3.0;" d="M 600.216, 336.789 L 230.273, 371.159 L 461.734, 225.526 L 616.915, 183.4 z "/>
<path style="fill:rgb(255, 62, 7);fill-opacity:1.0;fill-rule:evenodd;stroke:rgb(0, 0, 0);stroke-width:3.0;" d="M 443.641, 154.598 L 431.067, 164.772 L 425.601, 145.932 z "/>
<path style="fill:rgb(240, 14, 86);fill-opacity:1.0;fill-rule:evenodd;stroke:rgb(0, 0, 0);stroke-width:3.0;" d="M 44.8953, 349.01 L 41.0739, 366.642 L 32.1736, 361.156 L 31.7311, 346.378 z "/>
<path style="fill:rgb(240, 14, 86);fill-opacity:1.0;fill-rule:evenodd;stroke:rgb(0, 0, 0);stroke-width:3.0;" d="M 424.023, 192.409 L 434.745, 216.796 L 381.6, 195.188 L 378.014, 190.895 z "/>
<path style="fill:rgb(240, 14, 86);fill-opacity:1.0;fill-rule:evenodd;stroke:rgb(0, 0, 0);stroke-width:3.0;" d="M 44.8953, 349.01 L 27.9117, 345.614 L 28.809, 315.96 L 48.8498, 288.443 L 58.6015, 285.771 z "/>
<path style="fill:rgb(240, 14, 86);fill-opacity:1.0;fill-rule:evenodd;stroke:rgb(0, 0, 0);stroke-width:3.0;" d="M 410.503, 138.68 L 415.885, 155.762 L 410.143, 178.651 L 389.743, 176.81 L 410.349, 138.606 z "/>
<path style="fill:rgb(240, 14, 86);fill-opacity:1.0;fill-rule:evenodd;stroke:rgb(0, 0, 0);stroke-width:3.0;" d="M 33.1493, 37.2301 L 18.0161, 32.7144 L 7.09942, 22.87 L 17.18, 20.4418 z "/>
<path style="fill:rgb(240, 14, 86);fill-opacity:1.0;fill-rule:evenodd;stroke:rgb(0, 0, 0);stroke-width:3.0;" d="M 85.7984, 272.147 L 71.7685, 280.961 L 73.1744, 255.659 L 97.1555, 244.622 z "/>
<path style="fill:rgb(240, 14, 86);fill-opacity:1.0;fill-rule:evenodd;stroke:rgb(0, 0, 0);stroke-width:3.0;" d="M 38.984, 301.989 L 29.5007, 293.104 L 29.6722, 287.434 L 51.4658, 284.851 z "/>
<path style="fill:rgb(240, 14, 86);fill-opacity:1.0;fill-rule:evenodd;stroke:rgb(0, 0, 0);stroke-width:3.0;" d="M 101.842, 507.939 L 102.819, 508.924 L 103.344, 510.999 L 82.0422, 527.087 L 81.5441, 504.509 L 81.678, 504.271 z "/>
<path style="fill:rgb(240, 14, 86);fill-opacity:1.0;fill-rule:evenodd;stroke:rgb(0, 0, 0);stroke-width:3.0;" d="M 133.764, 482.571 L 130.91, 494.019 L 121.245, 498.573 L 118.582, 495.303 L 127.738, 482.265 z "/>
<path style="fill:rgb(240, 14, 86);fill-opacity:1.0;fill-rule:evenodd;stroke:rgb(0, 0, 0);stroke-width:3.0;" d="M 128.899, 56.9106 L 121.845, 56.7247 L 111.726, 42.8389 L 135.825, 35.5162 z "/>
<path style="fill:rgb(59, 252, 199);fill-opacity:1.0;fill-rule:evenodd;stroke:rgb(0, 0, 0);stroke-width:3.0;" d="M 462.445, 211.262 L 461.179, 225.677 L 458.426, 226.424 L 434.745, 216.796 L 431.443, 209.286 z "/>
<path style="fill:rgb(59, 252, 199);fill-opacity:1.0;fill-rule:evenodd;stroke:rgb(0, 0, 0);stroke-width:3.0;" d="M 67.971, 313.282 L 57.6443, 311.678 L 61.4601, 297.146 L 65.8154, 294.218 z "/>
<path style="fill:rgb(255, 21, 126);fill-opacity:1.0;fill-rule:evenodd;stroke:rgb(0, 0, 0);stroke-width:3.0;" d="M 146.814, 564.157 L 142.988, 566.694 L 127.167, 570.577 L 114.537, 566.918 L 148.738, 558.366 z "/>
<path style="fill:rgb(105, 204, 255);fill-opacity:1.0;fill-rule:evenodd;stroke:rgb(0, 0, 0);stroke-width:3.0;" d="M 788.973, 16.0563 L 789.554, 16.8742 L 764.132, 16.862 L 760.672, 16.3206 L 764.294, 12.8174 L 771.752, 10.2789 z "/>
<path style="fill:rgb(246, 1, 36);fill-opacity:1.0;fill-rule:evenodd;stroke:rgb(0, 0, 0);stroke-width:3.0;" d="M 58.144, 311.756 L 59.3467, 318.853 L 58.1586, 323.275 L 46.854, 339.973 L 53.1382, 310.978 z "/>
<path style="fill:rgb(255, 13, 31);fill-opacity:1.0;fill-rule:evenodd;stroke:rgb(0, 0, 0);stroke-width:3.0;" d="M 95.8082, 330.377 L 69.495, 321.877 L 71.0755, 293.434 L 114.924, 282.501 z "/>
<path style="fill:rgb(255, 13, 31);fill-opacity:1.0;fill-rule:evenodd;stroke:rgb(0, 0, 0);stroke-width:3.0;" d="M 69.9555, 313.59 L 69.3027, 325.338 L 66.0091, 331.72 L 56.9056, 327.939 L 61.1291, 312.219 z "/>
<path style="fill:rgb(255, 4, 56);fill-opacity:1.0;fill-rule:evenodd;stroke:rgb(0, 0, 0);stroke-width:3.0;" d="M 76.3641, 198.255 L 58.7112, 193.939 L 76.875, 171.086 L 77.8926, 170.748 z "/>
<path style="fill:rgb(255, 255, 33);fill-opacity:1.0;fill-rule:evenodd;stroke:rgb(0, 0, 0);stroke-width:3.0;" d="M 58.7112, 193.939 L 40.0208, 189.368 L 73.2945, 172.276 L 76.875, 171.086 z "/>
<path style="fill:rgb(24, 126, 255);fill-opacity:1.0;fill-rule:evenodd;stroke:rgb(0, 0, 0);stroke-width:3.0;" d="M 24.5638, 456.252 L 23.7062, 484.594 L 19.697, 483.619 L 18.2123, 481.806 L 10.348, 448.85 z "/>
<path style="fill:rgb(24, 126, 255);fill-opacity:1.0;fill-rule:evenodd;stroke:rgb(0, 0, 0);stroke-width:3.0;" d="M 182.3, 261.302 L 179.958, 281.986 L 176.905, 281.462 L 174.096, 257.893 L 176.817, 256.982 z "/>
<path style="fill:rgb(94, 108, 255);fill-opacity:1.0;fill-rule:evenodd;stroke:rgb(0, 0, 0);stroke-width:3.0;" d="M 55.1207, 509.962 L 43.9845, 538.39 L 34.399, 530.143 L 37.0473, 515.949 L 54.3581, 508.699 z "/>
<path style="fill:rgb(94, 108, 255);fill-opacity:1.0;fill-rule:evenodd;stroke:rgb(0, 0, 0);stroke-width:3.0;" d="M 54.3581, 508.699 L 37.0473, 515.949 L 42.166, 488.514 z "/>
<path style="fill:rgb(94, 108, 255);fill-opacity:1.0;fill-rule:evenodd;stroke:rgb(0, 0, 0);stroke-width:3.0;" d="M 242.845, 263.853 L 253.94, 281.935 L 220.134, 291.112 L 198.383, 273.974 L 237.674, 262.152 z "/>
<path style="fill:rgb(94, 108, 255);fill-opacity:1.0;fill-rule:evenodd;stroke:rgb(0, 0, 0);stroke-width:3.0;" d="M 104.362, 241.306 L 82.8101, 251.225 L 74.864, 225.254 L 75.3246, 216.964 z "/>
<path style="fill:rgb(94, 108, 255);fill-opacity:1.0;fill-rule:evenodd;stroke:rgb(0, 0, 0);stroke-width:3.0;" d="M 314.288, 282.774 L 300.508, 293.201 L 291.219, 284.152 L 298.225, 281.721 z "/>
<path style="fill:rgb(94, 108, 255);fill-opacity:1.0;fill-rule:evenodd;stroke:rgb(0, 0, 0);stroke-width:3.0;" d="M 290.681, 300.637 L 267.627, 318.083 L 250.807, 298.173 L 289.94, 284.595 z "/>
<path style="fill:rgb(243, 2, 71);fill-opacity:1.0;fill-rule:evenodd;stroke:rgb(0, 0, 0);stroke-width:3.0;" d="M 452.773, 182.496 L 448.278, 182.091 L 442.811, 165.713 L 449.847, 164.357 z "/>
<path style="fill:rgb(243, 2, 71);fill-opacity:1.0;fill-rule:evenodd;stroke:rgb(0, 0, 0);stroke-width:3.0;" d="M 175.425, 269.042 L 178.464, 294.54 L 150.124, 302.058 L 161.004, 273.394 L 169.914, 262.719 z "/>
<path style="fill:rgb(98, 217, 255);fill-opacity:1.0;fill-rule:evenodd;stroke:rgb(0, 0, 0);stroke-width:3.0;" d="M 237.674, 262.152 L 198.383, 273.974 L 176.817, 256.982 L 199.194, 249.493 z "/>
<path style="fill:rgb(243, 255, 69);fill-opacity:1.0;fill-rule:evenodd;stroke:rgb(0, 0, 0);stroke-width:3.0;" d="M 132.645, 317.204 L 104.539, 332.022 L 125.897, 310.045 z "/>
<path style="fill:rgb(105, 209, 223);fill-opacity:1.0;fill-rule:evenodd;stroke:rgb(0, 0, 0);stroke-width:3.0;" d="M 418.297, 179.386 L 424.023, 192.409 L 413.069, 192.049 L 413.765, 178.978 z "/>
<path style="fill:rgb(105, 209, 223);fill-opacity:1.0;fill-rule:evenodd;stroke:rgb(0, 0, 0);stroke-width:3.0;" d="M 513.039, 187.933 L 532.354, 197.211 L 524.42, 208.509 L 461.179, 225.677 L 464.876, 183.588 z "/>
<path style="fill:rgb(255, 255, 16);fill-opacity:1.0;fill-rule:evenodd;stroke:rgb(0, 0, 0);stroke-width:3.0;" d="M 155.313, 583.584 L 126.004, 593.488 L 126.647, 582.975 L 126.741, 582.907 L 155.046, 575.383 z "/>
<path style="fill:rgb(255, 255, 16);fill-opacity:1.0;fill-rule:evenodd;stroke:rgb(0, 0, 0);stroke-width:3.0;" d="M 264.425, 270.953 L 239.06, 262.608 L 250.975, 255.132 z "/>
<path style="fill:rgb(255, 255, 16);fill-opacity:1.0;fill-rule:evenodd;stroke:rgb(0, 0, 0);stroke-width:3.0;" d="M 76.8697, 127.255 L 49.5516, 128.75 L 77.5395, 76.675 z "/>
<path style="fill:rgb(249, 6, 50);fill-opacity:1.0;fill-rule:evenodd;stroke:rgb(0, 0, 0);stroke-width:3.0;" d="M 38.9695, 365.345 L 32.0966, 378.996 L 27.3312, 364.798 L 27.3995, 362.54 L 30.9334, 360.392 z "/>
<path style="fill:rgb(249, 6, 50);fill-opacity:1.0;fill-rule:evenodd;stroke:rgb(0, 0, 0);stroke-width:3.0;" d="M 77.5395, 76.675 L 49.5516, 128.75 L 43.691, 129.071 L 77.6077, 71.5244 z "/>
<path style="fill:rgb(255, 126, 16);fill-opacity:1.0;fill-rule:evenodd;stroke:rgb(0, 0, 0);stroke-width:3.0;" d="M 30.2123, 269.586 L 15.5745, 264.66 L 18.1047, 260.162 L 30.5367, 258.866 z "/>
<path style="fill:rgb(255, 126, 16);fill-opacity:1.0;fill-rule:evenodd;stroke:rgb(0, 0, 0);stroke-width:3.0;" d="M 26.863, 380.271 L 25.5624, 423.25 L 18.4784, 420.618 L 24.4411, 379.836 z "/>
<path style="fill:rgb(231, 19, 255);fill-opacity:1.0;fill-rule:evenodd;stroke:rgb(0, 0, 0);stroke-width:3.0;" d="M 36.2321, 17.8049 L 37.5175, 28.1743 L 37.2068, 38.4408 L 33.1493, 37.2301 L 17.18, 20.4418 L 29.215, 17.5428 z "/>
<path style="fill:rgb(231, 19, 255);fill-opacity:1.0;fill-rule:evenodd;stroke:rgb(0, 0, 0);stroke-width:3.0;" d="M 117.472, 87.6657 L 118.495, 94.3163 L 115.886, 94.678 L 96.1568, 63.6784 z "/>
<path style="fill:rgb(255, 255, 9);fill-opacity:1.0;fill-rule:evenodd;stroke:rgb(0, 0, 0);stroke-width:3.0;" d="M 59.5057, 148.57 L 57.5829, 149.272 L 42.6494, 153.561 L 47.9188, 128.84 L 64.2094, 127.948 z "/>
<path style="fill:rgb(255, 36, 91);fill-opacity:1.0;fill-rule:evenodd;stroke:rgb(0, 0, 0);stroke-width:3.0;" d="M 95.7838, 464.709 L 101.533, 469.103 L 97.7464, 475.81 L 93.763, 478.421 L 90.9005, 477.098 L 85.5533, 469.795 L 92.8118, 463.81 z "/>
<path style="fill:rgb(255, 36, 91);fill-opacity:1.0;fill-rule:evenodd;stroke:rgb(0, 0, 0);stroke-width:3.0;" d="M 183.908, 371.02 L 153.521, 378.29 L 148.636, 378.744 L 147.798, 353.027 z "/>
<path style="fill:rgb(255, 1, 88);fill-opacity:1.0;fill-rule:evenodd;stroke:rgb(0, 0, 0);stroke-width:3.0;" d="M 137.184, 27.4176 L 118.922, 38.5636 L 110.599, 32.9205 L 111.538, 31.6486 L 137.151, 26.4191 z "/>
<path style="fill:rgb(255, 1, 88);fill-opacity:1.0;fill-rule:evenodd;stroke:rgb(0, 0, 0);stroke-width:3.0;" d="M 448.278, 182.091 L 431.14, 180.545 L 438.1, 167.714 L 442.738, 165.495 z "/>
<path style="fill:rgb(255, 1, 88);fill-opacity:1.0;fill-rule:evenodd;stroke:rgb(0, 0, 0);stroke-width:3.0;" d="M 114.688, 462.666 L 110.962, 470.211 L 109.647, 471.598 L 105.348, 468.058 L 104.347, 464.117 L 110.269, 453.628 z "/>
<path style="fill:rgb(255, 10, 42);fill-opacity:1.0;fill-rule:evenodd;stroke:rgb(0, 0, 0);stroke-width:3.0;" d="M 133.801, 473.63 L 121.262, 491.487 L 126.593, 457.504 L 127.822, 452.949 z "/>
<path style="fill:rgb(7, 255, 114);fill-opacity:1.0;fill-rule:evenodd;stroke:rgb(0, 0, 0);stroke-width:3.0;" d="M 140.574, 455.249 L 137.198, 468.794 L 133.801, 473.63 L 127.822, 452.949 L 128.744, 449.531 L 129.342, 448.677 z "/>
<path style="fill:rgb(217, 255, 126);fill-opacity:1.0;fill-rule:evenodd;stroke:rgb(0, 0, 0);stroke-width:3.0;" d="M 81.5713, 576.887 L 79.2353, 588.708 L 68.1331, 589.553 L 68.7501, 577.281 L 71.9084, 572.423 z "/>
<path style="fill:rgb(71, 240, 255);fill-opacity:1.0;fill-rule:evenodd;stroke:rgb(0, 0, 0);stroke-width:3.0;" d="M 117.532, 252.346 L 77.5381, 282.631 L 74.0713, 280.399 L 116.23, 253.027 L 117.439, 252.268 z "/>
<path style="fill:rgb(12, 255, 82);fill-opacity:1.0;fill-rule:evenodd;stroke:rgb(0, 0, 0);stroke-width:3.0;" d="M 198.615, 335.836 L 196.493, 336.237 L 199.449, 296.727 L 219.749, 291.217 z "/>
<path style="fill:rgb(12, 255, 82);fill-opacity:1.0;fill-rule:evenodd;stroke:rgb(0, 0, 0);stroke-width:3.0;" d="M 250.975, 255.132 L 239.06, 262.608 L 199.194, 249.493 L 235.773, 237.252 z "/>
<path style="fill:rgb(12, 255, 82);fill-opacity:1.0;fill-rule:evenodd;stroke:rgb(0, 0, 0);stroke-width:3.0;" d="M 180.987, 404.052 L 163.309, 407.775 L 150.002, 378.617 L 178.924, 375.93 z "/>
<path style="fill:rgb(12, 255, 82);fill-opacity:1.0;fill-rule:evenodd;stroke:rgb(0, 0, 0);stroke-width:3.0;" d="M 66.9115, 368.373 L 52.3922, 358.105 L 69.3027, 325.338 z "/>
<path style="fill:rgb(255, 223, 39);fill-opacity:1.0;fill-rule:evenodd;stroke:rgb(0, 0, 0);stroke-width:3.0;" d="M 143.33, 539.683 L 138.537, 549.518 L 132.744, 545.7 L 137.671, 530.852 z "/>
<path style="fill:rgb(255, 0, 44);fill-opacity:1.0;fill-rule:evenodd;stroke:rgb(0, 0, 0);stroke-width:3.0;" d="M 106.58, 450.171 L 110.191, 453.766 L 106.042, 461.116 L 92.1131, 458.863 L 99.4591, 449.274 L 102.238, 449.184 z "/>
<path style="fill:rgb(189, 72, 209);fill-opacity:1.0;fill-rule:evenodd;stroke:rgb(0, 0, 0);stroke-width:3.0;" d="M 63.9177, 536.802 L 56.2161, 560.853 L 65.7662, 388.984 L 72.2872, 388.755 z "/>
<path style="fill:rgb(255, 22, 192);fill-opacity:1.0;fill-rule:evenodd;stroke:rgb(0, 0, 0);stroke-width:3.0;" d="M 155.046, 575.383 L 126.741, 582.907 L 154.632, 562.69 z "/>
<path style="fill:rgb(25, 0, 199);fill-opacity:1.0;fill-rule:evenodd;stroke:rgb(0, 0, 0);stroke-width:3.0;" d="M 716.545, 156.354 L 544.517, 203.054 L 496.889, 180.175 L 480.941, 111.98 z "/>
<path style="fill:rgb(255, 45, 182);fill-opacity:1.0;fill-rule:evenodd;stroke:rgb(0, 0, 0);stroke-width:3.0;" d="M 314.288, 282.774 L 298.225, 281.721 L 330.458, 270.538 z "/>
<path style="fill:rgb(255, 45, 182);fill-opacity:1.0;fill-rule:evenodd;stroke:rgb(0, 0, 0);stroke-width:3.0;" d="M 62.1407, 454.23 L 59.6925, 498.29 L 55.1207, 509.962 L 45.7753, 494.49 L 56.3681, 451.568 z "/>
<path style="fill:rgb(255, 42, 255);fill-opacity:1.0;fill-rule:evenodd;stroke:rgb(0, 0, 0);stroke-width:3.0;" d="M 87.1838, 582.411 L 90.4483, 538.064 L 103.335, 521.869 z "/>
<path style="fill:rgb(255, 42, 255);fill-opacity:1.0;fill-rule:evenodd;stroke:rgb(0, 0, 0);stroke-width:3.0;" d="M 131.163, 395.158 L 111.546, 388.065 L 115.998, 374.163 z "/>
<path style="fill:rgb(249, 43, 17);fill-opacity:1.0;fill-rule:evenodd;stroke:rgb(0, 0, 0);stroke-width:3.0;" d="M 30.2123, 269.586 L 30.0426, 275.196 L 15.8194, 284.013 L 11.5187, 282.785 L 10.8007, 273.147 L 15.5745, 264.66 z "/>
<path style="fill:rgb(255, 38, 209);fill-opacity:1.0;fill-rule:evenodd;stroke:rgb(0, 0, 0);stroke-width:3.0;" d="M 456.61, 182.843 L 431.149, 208.616 L 421.969, 187.736 L 425.304, 180.018 z "/>
<path style="fill:rgb(255, 182, 15);fill-opacity:1.0;fill-rule:evenodd;stroke:rgb(0, 0, 0);stroke-width:3.0;" d="M 218.202, 372.28 L 192.898, 374.631 L 204.827, 365.605 z "/>
<path style="fill:rgb(10, 88, 255);fill-opacity:1.0;fill-rule:evenodd;stroke:rgb(0, 0, 0);stroke-width:3.0;" d="M 139.436, 392.535 L 132.562, 395.664 L 131.163, 395.158 L 115.998, 374.163 L 118.048, 367.759 z "/>
<path style="fill:rgb(246, 217, 9);fill-opacity:1.0;fill-rule:evenodd;stroke:rgb(0, 0, 0);stroke-width:3.0;" d="M 437.599, 168.637 L 424.96, 179.987 L 413.536, 178.957 L 425.836, 169.004 L 437.839, 168.194 z "/>
<path style="fill:rgb(246, 217, 9);fill-opacity:1.0;fill-rule:evenodd;stroke:rgb(0, 0, 0);stroke-width:3.0;" d="M 227.523, 330.379 L 198.615, 335.836 L 219.749, 291.217 L 239.519, 285.85 z "/>
<path style="fill:rgb(72, 3, 249);fill-opacity:1.0;fill-rule:evenodd;stroke:rgb(0, 0, 0);stroke-width:3.0;" d="M 380.803, 124.413 L 357.4, 173.893 L 341.958, 172.5 L 379.222, 123.654 z "/>
<path style="fill:rgb(255, 91, 44);fill-opacity:1.0;fill-rule:evenodd;stroke:rgb(0, 0, 0);stroke-width:3.0;" d="M 232.494, 393.205 L 184.378, 375.423 L 421.554, 353.388 z "/>
<path style="fill:rgb(58, 202, 194);fill-opacity:1.0;fill-rule:evenodd;stroke:rgb(0, 0, 0);stroke-width:3.0;" d="M 87.1838, 582.411 L 84.8089, 591.314 L 83.4697, 591.793 L 82.5046, 548.048 L 90.4483, 538.064 z "/>
<path style="fill:rgb(255, 2, 44);fill-opacity:1.0;fill-rule:evenodd;stroke:rgb(0, 0, 0);stroke-width:3.0;" d="M 342.787, 257.816 L 309.203, 266.933 L 340.027, 237.253 L 375.727, 223.621 z "/>
<path style="fill:rgb(134, 72, 255);fill-opacity:1.0;fill-rule:evenodd;stroke:rgb(0, 0, 0);stroke-width:3.0;" d="M 397.061, 201.474 L 375.727, 223.621 L 340.027, 237.253 L 383.085, 195.792 z "/>
<path style="fill:rgb(13, 2, 249);fill-opacity:1.0;fill-rule:evenodd;stroke:rgb(0, 0, 0);stroke-width:3.0;" d="M 185.059, 11.9919 L 187.36, 17.6242 L 186.334, 24.4799 L 168.564, 19.0204 L 171.901, 6.65088 L 178.712, 6.35627 z "/>
<path style="fill:rgb(255, 249, 8);fill-opacity:1.0;fill-rule:evenodd;stroke:rgb(0, 0, 0);stroke-width:3.0;" d="M 264.425, 270.953 L 264.887, 271.496 L 251.493, 277.947 L 242.845, 263.853 z "/>
<path style="fill:rgb(255, 48, 31);fill-opacity:1.0;fill-rule:evenodd;stroke:rgb(0, 0, 0);stroke-width:3.0;" d="M 341.303, 262.331 L 330.458, 270.538 L 322.293, 273.37 L 315.795, 265.144 L 338.74, 258.915 z "/>
<path style="fill:rgb(234, 144, 7);fill-opacity:1.0;fill-rule:evenodd;stroke:rgb(0, 0, 0);stroke-width:3.0;" d="M 188.695, 337.709 L 147.552, 345.477 L 146.918, 326.038 z "/>
<path style="fill:rgb(255, 14, 14);fill-opacity:1.0;fill-rule:evenodd;stroke:rgb(0, 0, 0);stroke-width:3.0;" d="M 57.6, 535.948 L 56.5481, 554.878 L 36.8475, 556.61 L 47.007, 530.675 z "/>
<path style="fill:rgb(255, 14, 14);fill-opacity:1.0;fill-rule:evenodd;stroke:rgb(0, 0, 0);stroke-width:3.0;" d="M 101.842, 507.939 L 81.678, 504.271 L 87.6734, 493.652 z "/>
<path style="fill:rgb(255, 14, 14);fill-opacity:1.0;fill-rule:evenodd;stroke:rgb(0, 0, 0);stroke-width:3.0;" d="M 82.8101, 251.225 L 73.1744, 255.659 L 74.864, 225.254 z "/>
<path style="fill:rgb(142, 10, 194);fill-opacity:1.0;fill-rule:evenodd;stroke:rgb(0, 0, 0);stroke-width:3.0;" d="M 21.603, 579.176 L 23.192, 581.286 L 24.9288, 587.462 L 19.6085, 589.602 L 7.23742, 587.697 L 7.22767, 586.47 L 8.03021, 583.643 L 14.3502, 576.097 z "/>
<path style="fill:rgb(142, 10, 194);fill-opacity:1.0;fill-rule:evenodd;stroke:rgb(0, 0, 0);stroke-width:3.0;" d="M 104.193, 518.652 L 103.593, 520.901 L 82.0725, 528.459 L 82.0422, 527.087 L 102.805, 511.406 z "/>
<path style="fill:rgb(212, 150, 255);fill-opacity:1.0;fill-rule:evenodd;stroke:rgb(0, 0, 0);stroke-width:3.0;" d="M 232.494, 393.205 L 180.987, 404.052 L 178.924, 375.93 L 184.378, 375.423 z "/>
<path style="fill:rgb(228, 8, 255);fill-opacity:1.0;fill-rule:evenodd;stroke:rgb(0, 0, 0);stroke-width:3.0;" d="M 276.445, 342.108 L 241.058, 338.188 L 349.777, 255.919 L 461.734, 225.526 z "/>
<path style="fill:rgb(255, 17, 9);fill-opacity:1.0;fill-rule:evenodd;stroke:rgb(0, 0, 0);stroke-width:3.0;" d="M 62.9996, 330.47 L 60.7245, 341.96 L 53.5209, 355.918 L 55.0449, 334.864 L 56.9056, 327.939 z "/>
<path style="fill:rgb(255, 17, 9);fill-opacity:1.0;fill-rule:evenodd;stroke:rgb(0, 0, 0);stroke-width:3.0;" d="M 87.8703, 42.2866 L 80.2078, 38.6186 L 73.8003, 28.5508 L 89.4379, 27.8228 z "/>
<path style="fill:rgb(237, 82, 21);fill-opacity:1.0;fill-rule:evenodd;stroke:rgb(0, 0, 0);stroke-width:3.0;" d="M 146.73, 503.306 L 140.496, 511.442 L 135.97, 513.028 L 133.67, 510.1 L 142.437, 491.709 z "/>
<path style="fill:rgb(255, 204, 7);fill-opacity:1.0;fill-rule:evenodd;stroke:rgb(0, 0, 0);stroke-width:3.0;" d="M 38.984, 301.989 L 28.809, 315.96 L 29.5007, 293.104 z "/>
<path style="fill:rgb(255, 66, 35);fill-opacity:1.0;fill-rule:evenodd;stroke:rgb(0, 0, 0);stroke-width:3.0;" d="M 372.369, 191.435 L 370.414, 207.993 L 323.919, 252.763 L 302.76, 239.891 L 310.978, 213.109 L 338.132, 177.515 z "/>
</svg>