<?xml version="1.0" encoding="iso-8859-1" standalone="no"?>
<!DOCTYPE svg PUBLIC "-//W3C//DTD SVG 1.0//EN" "http://www.w3.org/TR/2001/REC-SVG-20010904/DTD/svg10.dtd">
<svg xmlns="http://www.w3.org/2000/svg" width="800" height="600">
<path style="fill:rgb(0, 0, 0);fill-opacity:0.0;fill-rule:evenodd;stroke:rgb(0, 0, 0);stroke-width:0.0;" d="M 0, 600 L 800, 600 L 800, 0 L 0, 0 z "/>
<path style="fill:rgb(35, 168, 255);fill-opacity:1.0;fill-rule:evenodd;stroke:rgb(0, 0, 0);stroke-width:3.0;" d="M 134.61, 178.956 L 174.991, 220.618 L 174.637, 221.4 L 128.578, 177.359 z "/>
<path style="fill:rgb(234, 57, 223);fill-opacity:1.0;fill-rule:evenodd;stroke:rgb(0, 0, 0);stroke-width:3.0;" d="M 110.365, 298.729 L 108.28, 303.448 L 99.1246, 305.251 L 101.59, 275.502 L 102.954, 273.907 z "/>
<path style="fill:rgb(234, 57, 223);fill-opacity:1.0;fill-rule:evenodd;stroke:rgb(0, 0, 0);stroke-width:3.0;" d="M 683.076, 310.723 L 671.095, 328.875 L 624.142, 335.279 L 624.276, 333.705 L 659.272, 299.736 z "/>
<path style="fill:rgb(234, 57, 223);fill-opacity:1.0;fill-rule:evenodd;stroke:rgb(0, 0, 0);stroke-width:3.0;" d="M 159.943, 231.813 L 127.657, 235.042 L 128.227, 231.536 L 132.711, 229.689 L 154.717, 223.968 z "/>
<path style="fill:rgb(234, 57, 223);fill-opacity:1.0;fill-rule:evenodd;stroke:rgb(0, 0, 0);stroke-width:3.0;" d="M 572.089, 28.0107 L 572.781, 30.9113 L 560.018, 34.9173 L 559.883, 12.3347 z "/>
<path style="fill:rgb(234, 57, 223);fill-opacity:1.0;fill-rule:evenodd;stroke:rgb(0, 0, 0);stroke-width:3.0;" d="M 445.737, 209.055 L 433.518, 212.056 L 433.753, 200.455 L 439.059, 199.303 z "/>
<path style="fill:rgb(234, 57, 223);fill-opacity:1.0;fill-rule:evenodd;stroke:rgb(0, 0, 0);stroke-width:3.0;" d="M 622.038, 73.3772 L 618.968, 67.3926 L 658.914, 18.5396 z "/>
<path style="fill:rgb(234, 57, 223);fill-opacity:1.0;fill-rule:evenodd;stroke:rgb(0, 0, 0);stroke-width:3.0;" d="M 542.4, 20.7369 L 536.076, 23.2633 L 525.22, 19.0731 L 540.781, 11.8327 L 541.322, 11.8267 z "/>
<path style="fill:rgb(234, 57, 223);fill-opacity:1.0;fill-rule:evenodd;stroke:rgb(0, 0, 0);stroke-width:3.0;" d="M 439.285, 37.3633 L 441.569, 48.8533 L 404.732, 90.3979 L 395.492, 81.594 L 396.326, 14.3701 L 397.2, 5.97216 z "/>
<path style="fill:rgb(234, 57, 223);fill-opacity:1.0;fill-rule:evenodd;stroke:rgb(0, 0, 0);stroke-width:3.0;" d="M 680.339, 115.83 L 709.316, 141.152 L 706.3, 144.127 L 676.893, 121.533 L 675.015, 114.685 z "/>
<path style="fill:rgb(71, 78, 207);fill-opacity:1.0;fill-rule:evenodd;stroke:rgb(0, 0, 0);stroke-width:3.0;" d="M 165.89, 240.741 L 162.307, 248.665 L 123.275, 281.918 L 119.951, 235.813 L 159.943, 231.813 z "/>
<path style="fill:rgb(255, 48, 14);fill-opacity:1.0;fill-rule:evenodd;stroke:rgb(0, 0, 0);stroke-width:3.0;" d="M 59.2435, 180.808 L 58.9932, 181.482 L 38.772, 193.457 L 39.2599, 175.122 z "/>
<path style="fill:rgb(255, 48, 14);fill-opacity:1.0;fill-rule:evenodd;stroke:rgb(0, 0, 0);stroke-width:3.0;" d="M 91.205, 306.811 L 87.1835, 307.603 L 68.2524, 305.867 L 76.9542, 298.391 z "/>
<path style="fill:rgb(255, 7, 62);fill-opacity:1.0;fill-rule:evenodd;stroke:rgb(0, 0, 0);stroke-width:3.0;" d="M 57.468, 579.389 L 60.7596, 584.746 L 57.6132, 589.158 L 56.1676, 588.837 L 42.8878, 578.475 L 48.295, 575.487 z "/>
<path style="fill:rgb(7, 48, 255);fill-opacity:1.0;fill-rule:evenodd;stroke:rgb(0, 0, 0);stroke-width:3.0;" d="M 757.152, 133.171 L 757.111, 133.888 L 683.804, 55.7233 L 680.705, 49.5223 L 690.981, 44.4794 z "/>
<path style="fill:rgb(25, 94, 237);fill-opacity:1.0;fill-rule:evenodd;stroke:rgb(0, 0, 0);stroke-width:3.0;" d="M 487.354, 129.83 L 617.135, 203.222 L 478.002, 230.626 L 416.381, 128.859 L 429.59, 111.94 z "/>
<path style="fill:rgb(25, 94, 237);fill-opacity:1.0;fill-rule:evenodd;stroke:rgb(0, 0, 0);stroke-width:3.0;" d="M 133.791, 64.7552 L 69.6935, 94.9025 L 62.6675, 81.2168 L 74.5279, 58.3119 L 106.649, 33.1655 z "/>
<path style="fill:rgb(25, 94, 237);fill-opacity:1.0;fill-rule:evenodd;stroke:rgb(0, 0, 0);stroke-width:3.0;" d="M 410.558, 217.694 L 147.045, 282.413 L 242.534, 71.2651 z "/>
<path style="fill:rgb(25, 94, 237);fill-opacity:1.0;fill-rule:evenodd;stroke:rgb(0, 0, 0);stroke-width:3.0;" d="M 49.0695, 308.723 L 38.2159, 317.248 L 29.4913, 318.967 L 41.2382, 288.229 z "/>
<path style="fill:rgb(25, 94, 237);fill-opacity:1.0;fill-rule:evenodd;stroke:rgb(0, 0, 0);stroke-width:3.0;" d="M 43.3098, 163.942 L 57.6873, 180.366 L 24.5153, 170.927 L 20.3043, 162.029 z "/>
<path style="fill:rgb(25, 94, 237);fill-opacity:1.0;fill-rule:evenodd;stroke:rgb(0, 0, 0);stroke-width:3.0;" d="M 373.916, 61.036 L 353.9, 55.2061 L 353.07, 41.1725 z "/>
<path style="fill:rgb(25, 94, 237);fill-opacity:1.0;fill-rule:evenodd;stroke:rgb(0, 0, 0);stroke-width:3.0;" d="M 310.165, 263.684 L 297.818, 266.116 L 279.26, 252.894 L 286.652, 248.125 L 297.619, 245.432 z "/>
<path style="fill:rgb(25, 94, 237);fill-opacity:1.0;fill-rule:evenodd;stroke:rgb(0, 0, 0);stroke-width:3.0;" d="M 266.383, 36.1293 L 268.337, 38.1877 L 262.94, 53.4577 L 259.944, 54.0704 L 253.771, 50.3737 L 241.748, 25.1165 L 246.698, 22.5685 z "/>
<path style="fill:rgb(255, 3, 22);fill-opacity:1.0;fill-rule:evenodd;stroke:rgb(0, 0, 0);stroke-width:3.0;" d="M 624.276, 333.705 L 626.814, 303.809 L 655.396, 303.499 z "/>
<path style="fill:rgb(255, 243, 37);fill-opacity:1.0;fill-rule:evenodd;stroke:rgb(0, 0, 0);stroke-width:3.0;" d="M 99.8927, 169.767 L 101.738, 176.964 L 98.2873, 181.262 L 85.4731, 168.496 L 86.3556, 162.006 z "/>
<path style="fill:rgb(255, 243, 37);fill-opacity:1.0;fill-rule:evenodd;stroke:rgb(0, 0, 0);stroke-width:3.0;" d="M 706.3, 144.127 L 689.783, 160.416 L 687.524, 157.337 L 689.55, 139.835 L 694.218, 134.844 z "/>
<path style="fill:rgb(255, 243, 37);fill-opacity:1.0;fill-rule:evenodd;stroke:rgb(0, 0, 0);stroke-width:3.0;" d="M 497.514, 132.977 L 475.869, 126.273 L 498.137, 115.838 z "/>
<path style="fill:rgb(255, 243, 37);fill-opacity:1.0;fill-rule:evenodd;stroke:rgb(0, 0, 0);stroke-width:3.0;" d="M 70.6682, 61.3335 L 47.3125, 79.6177 L 61.0644, 47.2298 z "/>
<path style="fill:rgb(255, 243, 37);fill-opacity:1.0;fill-rule:evenodd;stroke:rgb(0, 0, 0);stroke-width:3.0;" d="M 293.378, 64.5649 L 292.413, 66.1917 L 286.135, 65.6279 L 277.192, 59.7447 L 276.625, 50.6584 L 279.599, 50.0503 z "/>
<path style="fill:rgb(255, 243, 37);fill-opacity:1.0;fill-rule:evenodd;stroke:rgb(0, 0, 0);stroke-width:3.0;" d="M 676.003, 134.79 L 668.564, 142.35 L 654.74, 127.841 z "/>
<path style="fill:rgb(255, 243, 37);fill-opacity:1.0;fill-rule:evenodd;stroke:rgb(0, 0, 0);stroke-width:3.0;" d="M 416.854, 107.996 L 420.52, 123.558 L 416.381, 128.859 L 409.952, 118.241 L 410.255, 105.952 z "/>
<path style="fill:rgb(255, 243, 37);fill-opacity:1.0;fill-rule:evenodd;stroke:rgb(0, 0, 0);stroke-width:3.0;" d="M 674.845, 161.437 L 637.575, 175.545 L 637.212, 174.216 L 667.753, 143.174 z "/>
<path style="fill:rgb(255, 243, 37);fill-opacity:1.0;fill-rule:evenodd;stroke:rgb(0, 0, 0);stroke-width:3.0;" d="M 739.315, 79.3262 L 732.74, 100.451 L 715.397, 77.2059 L 730.176, 71.1858 z "/>
<path style="fill:rgb(255, 243, 37);fill-opacity:1.0;fill-rule:evenodd;stroke:rgb(0, 0, 0);stroke-width:3.0;" d="M 553.857, 25.8144 L 551.098, 35.5825 L 545.415, 35.9293 L 544.144, 35.1375 L 542.85, 24.4476 L 548.652, 11.4024 z "/>
<path style="fill:rgb(255, 243, 37);fill-opacity:1.0;fill-rule:evenodd;stroke:rgb(0, 0, 0);stroke-width:3.0;" d="M 637.816, 176.429 L 628.698, 173.605 L 622.894, 163.318 L 634.184, 163.112 z "/>
<path style="fill:rgb(255, 243, 37);fill-opacity:1.0;fill-rule:evenodd;stroke:rgb(0, 0, 0);stroke-width:3.0;" d="M 31.2081, 162.936 L 20.3043, 162.029 L 10.293, 140.874 z "/>
<path style="fill:rgb(255, 243, 37);fill-opacity:1.0;fill-rule:evenodd;stroke:rgb(0, 0, 0);stroke-width:3.0;" d="M 571.859, 132.195 L 569.979, 134.577 L 532.655, 143.86 L 506.552, 135.776 L 548.216, 93.4815 z "/>
<path style="fill:rgb(255, 243, 37);fill-opacity:1.0;fill-rule:evenodd;stroke:rgb(0, 0, 0);stroke-width:3.0;" d="M 683.793, 72.0258 L 685.483, 75.5236 L 679.446, 81.636 L 653.787, 73.3512 L 656.348, 67.0348 z "/>
<path style="fill:rgb(255, 142, 13);fill-opacity:1.0;fill-rule:evenodd;stroke:rgb(0, 0, 0);stroke-width:3.0;" d="M 64.8603, 288.77 L 56.5991, 292.313 L 42.2364, 285.618 L 58.1227, 244.049 L 60.6949, 240.294 z "/>
<path style="fill:rgb(255, 142, 13);fill-opacity:1.0;fill-rule:evenodd;stroke:rgb(0, 0, 0);stroke-width:3.0;" d="M 51.7769, 570.126 L 16.7813, 573.178 L 22.4059, 554.425 L 37.5957, 547.046 z "/>
<path style="fill:rgb(255, 4, 32);fill-opacity:1.0;fill-rule:evenodd;stroke:rgb(0, 0, 0);stroke-width:3.0;" d="M 774.395, 45.4473 L 766.973, 72.9055 L 761.23, 60.5765 L 761.971, 47.3912 L 779.465, 23.0549 z "/>
<path style="fill:rgb(255, 179, 246);fill-opacity:1.0;fill-rule:evenodd;stroke:rgb(0, 0, 0);stroke-width:3.0;" d="M 297.818, 266.116 L 292.715, 267.121 L 262.625, 263.624 L 279.26, 252.894 z "/>
<path style="fill:rgb(255, 179, 246);fill-opacity:1.0;fill-rule:evenodd;stroke:rgb(0, 0, 0);stroke-width:3.0;" d="M 110.874, 164.563 L 122.531, 182.746 L 50.8789, 141.665 L 50.2658, 140.077 L 84.0662, 139.35 z "/>
<path style="fill:rgb(255, 240, 17);fill-opacity:1.0;fill-rule:evenodd;stroke:rgb(0, 0, 0);stroke-width:3.0;" d="M 181.29, 206.689 L 163.716, 208.986 L 144.854, 189.526 L 197.321, 171.241 z "/>
<path style="fill:rgb(255, 240, 17);fill-opacity:1.0;fill-rule:evenodd;stroke:rgb(0, 0, 0);stroke-width:3.0;" d="M 591.133, 107.777 L 578.677, 123.558 L 572.662, 109.419 L 587.723, 93.4947 z "/>
<path style="fill:rgb(255, 240, 17);fill-opacity:1.0;fill-rule:evenodd;stroke:rgb(0, 0, 0);stroke-width:3.0;" d="M 709.586, 270.558 L 701.73, 282.46 L 688.332, 271.531 L 692.883, 267.113 z "/>
<path style="fill:rgb(255, 240, 17);fill-opacity:1.0;fill-rule:evenodd;stroke:rgb(0, 0, 0);stroke-width:3.0;" d="M 51.9903, 418.526 L 54.5502, 425.239 L 29.8379, 424.76 L 48.3265, 416.292 z "/>
<path style="fill:rgb(255, 240, 17);fill-opacity:1.0;fill-rule:evenodd;stroke:rgb(0, 0, 0);stroke-width:3.0;" d="M 761.128, 62.3899 L 759.809, 85.88 L 699.702, 40.1996 L 732.753, 23.9795 z "/>
<path style="fill:rgb(209, 204, 66);fill-opacity:1.0;fill-rule:evenodd;stroke:rgb(0, 0, 0);stroke-width:3.0;" d="M 71.0287, 425.558 L 63.2772, 425.408 L 51.0685, 417.964 L 70.6707, 416.983 z "/>
<path style="fill:rgb(209, 204, 66);fill-opacity:1.0;fill-rule:evenodd;stroke:rgb(0, 0, 0);stroke-width:3.0;" d="M 617.833, 409.574 L 624.142, 335.279 L 671.095, 328.875 z "/>
<path style="fill:rgb(209, 204, 66);fill-opacity:1.0;fill-rule:evenodd;stroke:rgb(0, 0, 0);stroke-width:3.0;" d="M 556.758, 151.325 L 532.655, 143.86 L 569.979, 134.577 z "/>
<path style="fill:rgb(209, 204, 66);fill-opacity:1.0;fill-rule:evenodd;stroke:rgb(0, 0, 0);stroke-width:3.0;" d="M 761.128, 62.3899 L 732.753, 23.9795 L 764.152, 8.5706 z "/>
<path style="fill:rgb(223, 255, 9);fill-opacity:1.0;fill-rule:evenodd;stroke:rgb(0, 0, 0);stroke-width:3.0;" d="M 123.603, 300.43 L 119.585, 301.221 L 117.753, 286.623 L 132.444, 274.107 z "/>
<path style="fill:rgb(61, 220, 249);fill-opacity:1.0;fill-rule:evenodd;stroke:rgb(0, 0, 0);stroke-width:3.0;" d="M 111.064, 264.689 L 114.408, 268.33 L 111.487, 296.19 L 110.365, 298.729 L 101.99, 270.677 L 102.5, 264.524 z "/>
<path style="fill:rgb(61, 220, 249);fill-opacity:1.0;fill-rule:evenodd;stroke:rgb(0, 0, 0);stroke-width:3.0;" d="M 691.28, 179.154 L 687.398, 188.356 L 680.382, 169.687 L 683.529, 166.583 z "/>
<path style="fill:rgb(255, 5, 255);fill-opacity:1.0;fill-rule:evenodd;stroke:rgb(0, 0, 0);stroke-width:3.0;" d="M 140.277, 297.146 L 137.177, 297.756 L 128.612, 285.514 L 132.133, 275.03 z "/>
<path style="fill:rgb(255, 5, 255);fill-opacity:1.0;fill-rule:evenodd;stroke:rgb(0, 0, 0);stroke-width:3.0;" d="M 648.169, 87.2091 L 632.288, 87.0853 L 655.81, 68.3626 z "/>
<path style="fill:rgb(255, 202, 7);fill-opacity:1.0;fill-rule:evenodd;stroke:rgb(0, 0, 0);stroke-width:3.0;" d="M 46.3873, 215.422 L 37.3306, 194.311 L 58.9932, 181.482 z "/>
<path style="fill:rgb(255, 170, 27);fill-opacity:1.0;fill-rule:evenodd;stroke:rgb(0, 0, 0);stroke-width:3.0;" d="M 728.151, 144.473 L 728.278, 144.726 L 714.395, 149.359 L 695.574, 154.705 L 716.244, 134.32 z "/>
<path style="fill:rgb(234, 12, 217);fill-opacity:1.0;fill-rule:evenodd;stroke:rgb(0, 0, 0);stroke-width:3.0;" d="M 214.966, 132.224 L 187.953, 109.389 L 231.444, 95.7877 z "/>
<path style="fill:rgb(255, 37, 78);fill-opacity:1.0;fill-rule:evenodd;stroke:rgb(0, 0, 0);stroke-width:3.0;" d="M 580.253, 526.432 L 577.52, 533.3 L 550.945, 556.778 L 557.167, 501.491 L 566.904, 486.738 z "/>
<path style="fill:rgb(255, 37, 78);fill-opacity:1.0;fill-rule:evenodd;stroke:rgb(0, 0, 0);stroke-width:3.0;" d="M 603.18, 594.606 L 598.312, 593.442 L 588.113, 569.756 L 594.171, 567.818 z "/>
<path style="fill:rgb(255, 37, 78);fill-opacity:1.0;fill-rule:evenodd;stroke:rgb(0, 0, 0);stroke-width:3.0;" d="M 497.547, 132.065 L 498.137, 115.838 L 521.532, 104.875 z "/>
<path style="fill:rgb(255, 37, 78);fill-opacity:1.0;fill-rule:evenodd;stroke:rgb(0, 0, 0);stroke-width:3.0;" d="M 655.81, 68.3626 L 593.554, 117.916 L 592.729, 114.461 L 598.041, 102.593 L 661.648, 53.9638 z "/>
<path style="fill:rgb(255, 37, 78);fill-opacity:1.0;fill-rule:evenodd;stroke:rgb(0, 0, 0);stroke-width:3.0;" d="M 188.511, 109.861 L 195.717, 115.952 L 140.965, 109.076 L 139.104, 100.066 z "/>
<path style="fill:rgb(255, 37, 78);fill-opacity:1.0;fill-rule:evenodd;stroke:rgb(0, 0, 0);stroke-width:3.0;" d="M 219.62, 19.9659 L 222, 26.9046 L 215.912, 27.7034 L 201.447, 19.0417 L 199.842, 15.6037 z "/>
<path style="fill:rgb(69, 255, 226);fill-opacity:1.0;fill-rule:evenodd;stroke:rgb(0, 0, 0);stroke-width:3.0;" d="M 197.321, 171.241 L 151.479, 187.217 L 144.036, 156.198 L 208.556, 146.399 z "/>
<path style="fill:rgb(69, 255, 226);fill-opacity:1.0;fill-rule:evenodd;stroke:rgb(0, 0, 0);stroke-width:3.0;" d="M 147.764, 45.8497 L 139.383, 62.1249 L 133.791, 64.7552 L 106.649, 33.1655 L 120.516, 22.3099 z "/>
<path style="fill:rgb(69, 255, 226);fill-opacity:1.0;fill-rule:evenodd;stroke:rgb(0, 0, 0);stroke-width:3.0;" d="M 75.7541, 193.492 L 78.9296, 205.375 L 65.8383, 221.682 L 50.7751, 203.608 L 60.8998, 176.349 z "/>
<path style="fill:rgb(69, 255, 226);fill-opacity:1.0;fill-rule:evenodd;stroke:rgb(0, 0, 0);stroke-width:3.0;" d="M 676.314, 283.195 L 655.396, 303.499 L 626.814, 303.809 L 629.96, 266.769 z "/>
<path style="fill:rgb(103, 194, 255);fill-opacity:1.0;fill-rule:evenodd;stroke:rgb(0, 0, 0);stroke-width:3.0;" d="M 587.723, 93.4947 L 572.662, 109.419 L 562.551, 85.6519 L 583.506, 75.8318 z "/>
<path style="fill:rgb(223, 243, 49);fill-opacity:1.0;fill-rule:evenodd;stroke:rgb(0, 0, 0);stroke-width:3.0;" d="M 682.657, 190.317 L 617.135, 203.222 L 487.354, 129.83 z "/>
<path style="fill:rgb(223, 243, 49);fill-opacity:1.0;fill-rule:evenodd;stroke:rgb(0, 0, 0);stroke-width:3.0;" d="M 195.717, 115.952 L 214.966, 132.224 L 208.556, 146.399 L 111.599, 161.125 L 51.3594, 103.526 L 60.9283, 99.025 z "/>
<path style="fill:rgb(223, 243, 49);fill-opacity:1.0;fill-rule:evenodd;stroke:rgb(0, 0, 0);stroke-width:3.0;" d="M 694.218, 134.844 L 681.218, 148.744 L 673.124, 137.715 L 683.814, 126.85 z "/>
<path style="fill:rgb(30, 35, 255);fill-opacity:1.0;fill-rule:evenodd;stroke:rgb(0, 0, 0);stroke-width:3.0;" d="M 147.191, 188.712 L 144.854, 189.526 L 116.591, 160.366 L 120.946, 159.705 z "/>
<path style="fill:rgb(30, 35, 255);fill-opacity:1.0;fill-rule:evenodd;stroke:rgb(0, 0, 0);stroke-width:3.0;" d="M 39.2599, 175.122 L 39.084, 181.732 L 34.3563, 191.722 L 24.5153, 170.927 z "/>
<path style="fill:rgb(30, 35, 255);fill-opacity:1.0;fill-rule:evenodd;stroke:rgb(0, 0, 0);stroke-width:3.0;" d="M 146.904, 194.882 L 146.394, 196.428 L 142.194, 194.02 L 84.0662, 139.35 L 88.7212, 139.25 z "/>
<path style="fill:rgb(30, 35, 255);fill-opacity:1.0;fill-rule:evenodd;stroke:rgb(0, 0, 0);stroke-width:3.0;" d="M 235.895, 85.9466 L 231.444, 95.7877 L 187.953, 109.389 L 186.378, 108.057 L 217.239, 84.3811 z "/>
<path style="fill:rgb(30, 35, 255);fill-opacity:1.0;fill-rule:evenodd;stroke:rgb(0, 0, 0);stroke-width:3.0;" d="M 757.111, 133.888 L 754.967, 172.054 L 745.454, 172.448 L 752.855, 129.35 z "/>
<path style="fill:rgb(255, 0, 92);fill-opacity:1.0;fill-rule:evenodd;stroke:rgb(0, 0, 0);stroke-width:3.0;" d="M 395.492, 81.594 L 389.883, 76.2494 L 391.988, 56.0331 L 395.821, 55.0883 z "/>
<path style="fill:rgb(255, 0, 92);fill-opacity:1.0;fill-rule:evenodd;stroke:rgb(0, 0, 0);stroke-width:3.0;" d="M 318.362, 262.07 L 310.165, 263.684 L 297.619, 245.432 L 309.119, 242.608 z "/>
<path style="fill:rgb(255, 0, 92);fill-opacity:1.0;fill-rule:evenodd;stroke:rgb(0, 0, 0);stroke-width:3.0;" d="M 752.855, 129.35 L 745.454, 172.448 L 742.198, 172.583 L 713.077, 114.306 L 725.663, 100.356 z "/>
<path style="fill:rgb(234, 0, 67);fill-opacity:1.0;fill-rule:evenodd;stroke:rgb(0, 0, 0);stroke-width:3.0;" d="M 373.916, 61.036 L 384.381, 71.0065 L 380.795, 74.2134 L 373.115, 68.8778 L 364.442, 58.2765 z "/>
<path style="fill:rgb(255, 228, 14);fill-opacity:1.0;fill-rule:evenodd;stroke:rgb(0, 0, 0);stroke-width:3.0;" d="M 146.375, 196.417 L 66.1685, 303.994 L 60.6949, 240.294 L 106.438, 173.519 z "/>
<path style="fill:rgb(252, 252, 29);fill-opacity:1.0;fill-rule:evenodd;stroke:rgb(0, 0, 0);stroke-width:3.0;" d="M 701.73, 282.46 L 688.043, 303.197 L 676.175, 298.449 L 691.626, 274.218 z "/>
<path style="fill:rgb(252, 252, 29);fill-opacity:1.0;fill-rule:evenodd;stroke:rgb(0, 0, 0);stroke-width:3.0;" d="M 687.184, 187.785 L 681.09, 189.831 L 665.006, 184.85 L 680.382, 169.687 z "/>
<path style="fill:rgb(58, 246, 255);fill-opacity:1.0;fill-rule:evenodd;stroke:rgb(0, 0, 0);stroke-width:3.0;" d="M 66.1685, 303.994 L 59.3968, 313.076 L 38.2159, 317.248 L 65.4681, 295.843 z "/>
<path style="fill:rgb(255, 217, 14);fill-opacity:1.0;fill-rule:evenodd;stroke:rgb(0, 0, 0);stroke-width:3.0;" d="M 126.092, 17.945 L 113.009, 28.187 L 103.16, 10.8429 z "/>
<path style="fill:rgb(255, 217, 14);fill-opacity:1.0;fill-rule:evenodd;stroke:rgb(0, 0, 0);stroke-width:3.0;" d="M 554.778, 522.719 L 518.156, 560.597 L 545.912, 518.543 L 555.627, 515.172 z "/>
<path style="fill:rgb(255, 217, 14);fill-opacity:1.0;fill-rule:evenodd;stroke:rgb(0, 0, 0);stroke-width:3.0;" d="M 661.648, 53.9638 L 598.041, 102.593 L 601.814, 94.1638 L 663.022, 50.5753 z "/>
<path style="fill:rgb(255, 217, 14);fill-opacity:1.0;fill-rule:evenodd;stroke:rgb(0, 0, 0);stroke-width:3.0;" d="M 698.853, 71.7698 L 702.871, 83.4344 L 698.745, 85.6238 L 683.804, 55.7233 z "/>
<path style="fill:rgb(102, 13, 215);fill-opacity:1.0;fill-rule:evenodd;stroke:rgb(0, 0, 0);stroke-width:3.0;" d="M 400.723, 103 L 470.792, 218.719 L 461.53, 232.116 L 365.676, 92.146 z "/>
<path style="fill:rgb(55, 249, 255);fill-opacity:1.0;fill-rule:evenodd;stroke:rgb(0, 0, 0);stroke-width:3.0;" d="M 725.663, 100.356 L 713.077, 114.306 L 704.406, 96.9542 L 717.599, 91.7579 z "/>
<path style="fill:rgb(223, 255, 10);fill-opacity:1.0;fill-rule:evenodd;stroke:rgb(0, 0, 0);stroke-width:3.0;" d="M 666.69, 30.9118 L 644.103, 54.7977 L 632.746, 64.375 L 661.682, 30.4261 z "/>
<path style="fill:rgb(43, 234, 11);fill-opacity:1.0;fill-rule:evenodd;stroke:rgb(0, 0, 0);stroke-width:3.0;" d="M 701.968, 258.295 L 693.055, 266.946 L 688.817, 265.351 L 651.938, 213.844 L 658.444, 204.515 z "/>
<path style="fill:rgb(237, 217, 154);fill-opacity:1.0;fill-rule:evenodd;stroke:rgb(0, 0, 0);stroke-width:3.0;" d="M 241.593, 277.19 L 140.392, 297.123 L 147.045, 282.413 L 286.652, 248.125 z "/>
<path style="fill:rgb(255, 1, 209);fill-opacity:1.0;fill-rule:evenodd;stroke:rgb(0, 0, 0);stroke-width:3.0;" d="M 648.169, 87.2091 L 637.864, 112.627 L 630.668, 108.27 L 635.333, 87.109 z "/>
<path style="fill:rgb(255, 1, 209);fill-opacity:1.0;fill-rule:evenodd;stroke:rgb(0, 0, 0);stroke-width:3.0;" d="M 67.4902, 340.795 L 67.7806, 347.75 L 54.2953, 345.59 L 34.2086, 337.512 L 37.4889, 335.521 z "/>
<path style="fill:rgb(255, 1, 209);fill-opacity:1.0;fill-rule:evenodd;stroke:rgb(0, 0, 0);stroke-width:3.0;" d="M 663.022, 50.5753 L 601.814, 94.1638 L 604.479, 88.2112 L 670.249, 32.7508 z "/>
<path style="fill:rgb(255, 1, 209);fill-opacity:1.0;fill-rule:evenodd;stroke:rgb(0, 0, 0);stroke-width:3.0;" d="M 578.149, 78.3424 L 475.869, 126.273 L 455.713, 120.031 L 447.911, 80.7677 L 491.489, 6.20359 z "/>
<path style="fill:rgb(255, 1, 209);fill-opacity:1.0;fill-rule:evenodd;stroke:rgb(0, 0, 0);stroke-width:3.0;" d="M 687.2, 109.638 L 683.124, 107.916 L 681.017, 102.639 L 682.471, 94.1346 L 689.062, 85.8302 z "/>
<path style="fill:rgb(255, 1, 209);fill-opacity:1.0;fill-rule:evenodd;stroke:rgb(0, 0, 0);stroke-width:3.0;" d="M 151.479, 187.217 L 147.191, 188.712 L 120.946, 159.705 L 144.036, 156.198 z "/>
<path style="fill:rgb(255, 255, 66);fill-opacity:1.0;fill-rule:evenodd;stroke:rgb(0, 0, 0);stroke-width:3.0;" d="M 53.9215, 236.526 L 25.3128, 272.163 L 38.9801, 235.365 z "/>
<path style="fill:rgb(255, 255, 66);fill-opacity:1.0;fill-rule:evenodd;stroke:rgb(0, 0, 0);stroke-width:3.0;" d="M 548.168, 581.45 L 510.36, 572.408 L 518.156, 560.597 L 554.778, 522.719 z "/>
<path style="fill:rgb(255, 255, 66);fill-opacity:1.0;fill-rule:evenodd;stroke:rgb(0, 0, 0);stroke-width:3.0;" d="M 687.873, 25.2644 L 671.502, 31.1051 L 671.178, 30.4573 L 677.236, 15.5164 L 688.677, 14.9455 z "/>
<path style="fill:rgb(246, 255, 9);fill-opacity:1.0;fill-rule:evenodd;stroke:rgb(0, 0, 0);stroke-width:3.0;" d="M 678.918, 93.1188 L 681.592, 99.2746 L 679.544, 111.248 L 663.73, 97.5473 L 668.289, 92.9318 L 676.691, 91.0906 z "/>
<path style="fill:rgb(249, 234, 9);fill-opacity:1.0;fill-rule:evenodd;stroke:rgb(0, 0, 0);stroke-width:3.0;" d="M 568.258, 143.203 L 575.883, 157.248 L 559.81, 152.27 L 563.808, 142.394 L 564.726, 141.232 z "/>
<path style="fill:rgb(255, 89, 148);fill-opacity:1.0;fill-rule:evenodd;stroke:rgb(0, 0, 0);stroke-width:3.0;" d="M 759.809, 85.88 L 758.601, 107.377 L 733.217, 98.9179 L 741.586, 72.0312 z "/>
<path style="fill:rgb(255, 89, 148);fill-opacity:1.0;fill-rule:evenodd;stroke:rgb(0, 0, 0);stroke-width:3.0;" d="M 691.626, 274.218 L 676.175, 298.449 L 671.68, 296.651 L 672.936, 286.474 L 688.332, 271.531 z "/>
<path style="fill:rgb(255, 89, 148);fill-opacity:1.0;fill-rule:evenodd;stroke:rgb(0, 0, 0);stroke-width:3.0;" d="M 164.708, 50.2135 L 148.019, 58.0631 L 143.288, 54.5415 L 149.844, 41.809 z "/>
<path style="fill:rgb(255, 89, 148);fill-opacity:1.0;fill-rule:evenodd;stroke:rgb(0, 0, 0);stroke-width:3.0;" d="M 439.53, 115.019 L 300.356, 71.9159 L 288.655, 59.5901 L 307.006, 22.9492 z "/>
<path style="fill:rgb(255, 88, 21);fill-opacity:1.0;fill-rule:evenodd;stroke:rgb(0, 0, 0);stroke-width:3.0;" d="M 736.881, 68.455 L 715.397, 77.2059 L 690.981, 44.4794 L 699.702, 40.1996 z "/>
<path style="fill:rgb(255, 240, 30);fill-opacity:1.0;fill-rule:evenodd;stroke:rgb(0, 0, 0);stroke-width:3.0;" d="M 682.353, 300.921 L 686.461, 305.595 L 683.076, 310.723 L 669.734, 304.565 L 663.207, 295.917 L 665.145, 294.036 z "/>
<path style="fill:rgb(255, 240, 30);fill-opacity:1.0;fill-rule:evenodd;stroke:rgb(0, 0, 0);stroke-width:3.0;" d="M 693.055, 266.946 L 676.314, 283.195 L 635.46, 268.718 L 640.283, 247.085 z "/>
<path style="fill:rgb(255, 240, 30);fill-opacity:1.0;fill-rule:evenodd;stroke:rgb(0, 0, 0);stroke-width:3.0;" d="M 348.814, 37.1173 L 347.358, 50.9834 L 332.343, 40.5516 L 333.285, 35.6755 L 342.412, 31.0173 z "/>
<path style="fill:rgb(255, 240, 30);fill-opacity:1.0;fill-rule:evenodd;stroke:rgb(0, 0, 0);stroke-width:3.0;" d="M 684.137, 36.6681 L 695.219, 42.3994 L 680.705, 49.5223 L 672.472, 33.0461 z "/>
<path style="fill:rgb(16, 209, 255);fill-opacity:1.0;fill-rule:evenodd;stroke:rgb(0, 0, 0);stroke-width:3.0;" d="M 49.721, 266.033 L 34.9793, 260.122 L 37.8012, 256.606 L 54.6519, 253.131 z "/>
<path style="fill:rgb(16, 209, 255);fill-opacity:1.0;fill-rule:evenodd;stroke:rgb(0, 0, 0);stroke-width:3.0;" d="M 635.333, 87.109 L 630.668, 108.27 L 622.694, 103.442 L 631.203, 87.9488 L 632.288, 87.0853 z "/>
<path style="fill:rgb(10, 255, 140);fill-opacity:1.0;fill-rule:evenodd;stroke:rgb(0, 0, 0);stroke-width:3.0;" d="M 29.3732, 318.99 L 8.81264, 323.04 L 12.3811, 309.279 L 24.9289, 308.581 z "/>
<path style="fill:rgb(10, 255, 140);fill-opacity:1.0;fill-rule:evenodd;stroke:rgb(0, 0, 0);stroke-width:3.0;" d="M 249.38, 56.1282 L 235.895, 85.9466 L 218.307, 84.4707 L 213.32, 76.6125 L 249.025, 56.0182 z "/>
<path style="fill:rgb(10, 255, 140);fill-opacity:1.0;fill-rule:evenodd;stroke:rgb(0, 0, 0);stroke-width:3.0;" d="M 57.2661, 232.36 L 53.9215, 236.526 L 38.9801, 235.365 L 46.3906, 215.413 z "/>
<path style="fill:rgb(25, 252, 150);fill-opacity:1.0;fill-rule:evenodd;stroke:rgb(0, 0, 0);stroke-width:3.0;" d="M 97.2777, 276.266 L 97.7239, 277.743 L 68.606, 304.262 L 90.0719, 271.933 L 91.658, 269.806 z "/>
<path style="fill:rgb(255, 76, 14);fill-opacity:1.0;fill-rule:evenodd;stroke:rgb(0, 0, 0);stroke-width:3.0;" d="M 591.711, 156.291 L 604.407, 163.376 L 605.105, 166.299 L 575.883, 157.248 L 574.14, 154.038 z "/>
<path style="fill:rgb(76, 168, 255);fill-opacity:1.0;fill-rule:evenodd;stroke:rgb(0, 0, 0);stroke-width:3.0;" d="M 154.234, 223.243 L 153.912, 223.383 L 135.231, 211.364 L 141.088, 203.509 z "/>
<path style="fill:rgb(255, 79, 6);fill-opacity:1.0;fill-rule:evenodd;stroke:rgb(0, 0, 0);stroke-width:3.0;" d="M 459.458, 229.091 L 462.589, 233.662 L 442.539, 237.611 L 444.43, 227.008 L 455.116, 226.187 z "/>
<path style="fill:rgb(255, 9, 21);fill-opacity:1.0;fill-rule:evenodd;stroke:rgb(0, 0, 0);stroke-width:3.0;" d="M 601.362, 150.622 L 604.407, 163.376 L 568.405, 143.285 L 572.612, 141.168 L 584.507, 136.812 z "/>
<path style="fill:rgb(255, 9, 21);fill-opacity:1.0;fill-rule:evenodd;stroke:rgb(0, 0, 0);stroke-width:3.0;" d="M 666.3, 79.9555 L 665.25, 96.0081 L 663.813, 97.463 L 641.172, 105.012 L 640.966, 104.973 L 643.24, 99.3649 L 663.262, 78.7269 z "/>
<path style="fill:rgb(220, 255, 44);fill-opacity:1.0;fill-rule:evenodd;stroke:rgb(0, 0, 0);stroke-width:3.0;" d="M 653.536, 36.6609 L 647.008, 47.6423 L 640.027, 55.8319 L 638.508, 54.3958 L 644.485, 39.9974 L 648.996, 33.2888 z "/>
<path style="fill:rgb(255, 212, 184);fill-opacity:1.0;fill-rule:evenodd;stroke:rgb(0, 0, 0);stroke-width:3.0;" d="M 24.2136, 525.265 L 9.89252, 533.813 L 9.916, 533.297 L 17.4458, 514.25 z "/>
<path style="fill:rgb(170, 144, 255);fill-opacity:1.0;fill-rule:evenodd;stroke:rgb(0, 0, 0);stroke-width:3.0;" d="M 59.7886, 239.69 L 50.9554, 253.893 L 37.8012, 256.606 L 67.4268, 219.703 z "/>
<path style="fill:rgb(255, 7, 17);fill-opacity:1.0;fill-rule:evenodd;stroke:rgb(0, 0, 0);stroke-width:3.0;" d="M 683.709, 152.994 L 689.312, 160.88 L 685.042, 165.092 L 674.177, 159.717 L 669.552, 147.805 z "/>
<path style="fill:rgb(255, 7, 17);fill-opacity:1.0;fill-rule:evenodd;stroke:rgb(0, 0, 0);stroke-width:3.0;" d="M 62.9547, 365.663 L 18.7859, 385.543 L 11.5127, 375.223 L 23.3606, 351.398 z "/>
<path style="fill:rgb(255, 7, 255);fill-opacity:1.0;fill-rule:evenodd;stroke:rgb(0, 0, 0);stroke-width:3.0;" d="M 66.1405, 74.5098 L 51.9046, 102.002 L 44.8639, 81.5346 L 58.8893, 70.5547 z "/>
<path style="fill:rgb(255, 7, 255);fill-opacity:1.0;fill-rule:evenodd;stroke:rgb(0, 0, 0);stroke-width:3.0;" d="M 82.8269, 187.957 L 81.217, 199.797 L 74.821, 192.415 L 67.4834, 158.623 L 67.9728, 157.306 L 73.1305, 155.49 z "/>
<path style="fill:rgb(255, 82, 255);fill-opacity:1.0;fill-rule:evenodd;stroke:rgb(0, 0, 0);stroke-width:3.0;" d="M 80.3822, 131.276 L 59.2923, 128.141 L 66.5739, 118.073 z "/>
<path style="fill:rgb(255, 82, 255);fill-opacity:1.0;fill-rule:evenodd;stroke:rgb(0, 0, 0);stroke-width:3.0;" d="M 780.522, 18.3905 L 779.465, 23.0549 L 761.971, 47.3912 L 763.787, 15.0683 L 775.705, 10.8245 z "/>
<path style="fill:rgb(212, 172, 199);fill-opacity:1.0;fill-rule:evenodd;stroke:rgb(0, 0, 0);stroke-width:3.0;" d="M 715.968, 90.0192 L 717.599, 91.7579 L 704.406, 96.9542 L 698.745, 85.6238 L 706.253, 81.64 z "/>
<path style="fill:rgb(212, 172, 199);fill-opacity:1.0;fill-rule:evenodd;stroke:rgb(0, 0, 0);stroke-width:3.0;" d="M 224.585, 16.7182 L 224.484, 21.0387 L 205.489, 16.8491 L 206.077, 14.5314 L 220.549, 11.4185 z "/>
<path style="fill:rgb(212, 172, 199);fill-opacity:1.0;fill-rule:evenodd;stroke:rgb(0, 0, 0);stroke-width:3.0;" d="M 580.504, 63.2555 L 581.419, 67.091 L 568.621, 70.4111 L 544.352, 50.2091 z "/>
<path style="fill:rgb(212, 172, 199);fill-opacity:1.0;fill-rule:evenodd;stroke:rgb(0, 0, 0);stroke-width:3.0;" d="M 678.695, 171.351 L 673.858, 176.121 L 658.696, 182.896 L 637.816, 176.429 L 637.575, 175.545 L 674.845, 161.437 z "/>
<path style="fill:rgb(212, 172, 199);fill-opacity:1.0;fill-rule:evenodd;stroke:rgb(0, 0, 0);stroke-width:3.0;" d="M 32.3378, 338.648 L 8.97868, 352.827 L 8.69037, 343.908 L 10.4954, 337.462 z "/>
<path style="fill:rgb(212, 172, 199);fill-opacity:1.0;fill-rule:evenodd;stroke:rgb(0, 0, 0);stroke-width:3.0;" d="M 341.53, 84.6675 L 331.72, 148.989 L 252.703, 80.1265 L 284.884, 67.124 z "/>
<path style="fill:rgb(212, 172, 199);fill-opacity:1.0;fill-rule:evenodd;stroke:rgb(0, 0, 0);stroke-width:3.0;" d="M 178.017, 100.99 L 96.1854, 82.4424 L 98.7126, 81.2537 L 138.866, 67.8941 z "/>
<path style="fill:rgb(226, 15, 194);fill-opacity:1.0;fill-rule:evenodd;stroke:rgb(0, 0, 0);stroke-width:3.0;" d="M 455.713, 120.031 L 439.53, 115.019 L 406.457, 92.0413 L 404.732, 90.3979 L 441.569, 48.8533 z "/>
<path style="fill:rgb(226, 15, 194);fill-opacity:1.0;fill-rule:evenodd;stroke:rgb(0, 0, 0);stroke-width:3.0;" d="M 578.677, 123.558 L 571.859, 132.195 L 561.614, 115.419 L 553.157, 90.0543 L 562.551, 85.6519 z "/>
<path style="fill:rgb(56, 252, 130);fill-opacity:1.0;fill-rule:evenodd;stroke:rgb(0, 0, 0);stroke-width:3.0;" d="M 100.299, 291.078 L 100.072, 293.815 L 83.171, 302.065 L 76.9542, 298.391 L 87.8525, 289.029 z "/>
<path style="fill:rgb(199, 175, 240);fill-opacity:1.0;fill-rule:evenodd;stroke:rgb(0, 0, 0);stroke-width:3.0;" d="M 741.811, 175.092 L 724.563, 170.19 L 730.928, 159.417 z "/>
<path style="fill:rgb(199, 175, 240);fill-opacity:1.0;fill-rule:evenodd;stroke:rgb(0, 0, 0);stroke-width:3.0;" d="M 123.275, 281.918 L 117.753, 286.623 L 112.185, 242.274 L 113.18, 240.94 L 120.042, 237.065 z "/>
<path style="fill:rgb(234, 17, 110);fill-opacity:1.0;fill-rule:evenodd;stroke:rgb(0, 0, 0);stroke-width:3.0;" d="M 81.6917, 209.643 L 58.1227, 244.049 L 67.4268, 219.703 L 75.5324, 209.607 z "/>
<path style="fill:rgb(234, 17, 110);fill-opacity:1.0;fill-rule:evenodd;stroke:rgb(0, 0, 0);stroke-width:3.0;" d="M 598.761, 139.726 L 594.703, 143.577 L 574.187, 129.246 L 581.065, 120.532 L 593.216, 116.503 z "/>
<path style="fill:rgb(112, 255, 58);fill-opacity:1.0;fill-rule:evenodd;stroke:rgb(0, 0, 0);stroke-width:3.0;" d="M 69.6935, 94.9025 L 51.3594, 103.526 L 51.1965, 103.37 L 56.1708, 93.7633 L 65.0419, 85.8419 z "/>
<path style="fill:rgb(112, 255, 58);fill-opacity:1.0;fill-rule:evenodd;stroke:rgb(0, 0, 0);stroke-width:3.0;" d="M 640.283, 247.085 L 635.46, 268.718 L 629.96, 266.769 L 631.899, 243.93 z "/>
<path style="fill:rgb(60, 207, 255);fill-opacity:1.0;fill-rule:evenodd;stroke:rgb(0, 0, 0);stroke-width:3.0;" d="M 112.647, 28.47 L 70.6682, 61.3335 L 61.0644, 47.2298 L 72.4456, 20.4255 z "/>
<path style="fill:rgb(255, 252, 21);fill-opacity:1.0;fill-rule:evenodd;stroke:rgb(0, 0, 0);stroke-width:3.0;" d="M 710.839, 186.514 L 694.006, 156.251 L 694.142, 156.117 L 719.778, 147.562 z "/>
<path style="fill:rgb(75, 61, 255);fill-opacity:1.0;fill-rule:evenodd;stroke:rgb(0, 0, 0);stroke-width:3.0;" d="M 765.063, 185.359 L 765.578, 185.889 L 765.798, 190.081 L 764.068, 191.731 L 750.846, 189.891 L 748.458, 185.111 L 753.586, 182.182 z "/>
<path style="fill:rgb(75, 61, 255);fill-opacity:1.0;fill-rule:evenodd;stroke:rgb(0, 0, 0);stroke-width:3.0;" d="M 218.307, 84.4707 L 167.066, 80.1707 L 146.499, 74.3461 L 134.666, 64.3436 L 189.242, 38.6747 z "/>
<path style="fill:rgb(223, 98, 67);fill-opacity:1.0;fill-rule:evenodd;stroke:rgb(0, 0, 0);stroke-width:3.0;" d="M 685.4, 260.579 L 685.447, 264.083 L 641.657, 247.602 L 654.164, 216.953 z "/>
<path style="fill:rgb(223, 98, 67);fill-opacity:1.0;fill-rule:evenodd;stroke:rgb(0, 0, 0);stroke-width:3.0;" d="M 65.4681, 295.843 L 49.0695, 308.723 L 44.7422, 297.399 L 64.8603, 288.77 z "/>
<path style="fill:rgb(212, 75, 75);fill-opacity:1.0;fill-rule:evenodd;stroke:rgb(0, 0, 0);stroke-width:3.0;" d="M 153.912, 223.383 L 149.372, 225.358 L 119.753, 233.057 L 119.691, 232.207 L 119.894, 231.935 L 144.078, 217.056 z "/>
<path style="fill:rgb(51, 70, 175);fill-opacity:1.0;fill-rule:evenodd;stroke:rgb(0, 0, 0);stroke-width:3.0;" d="M 144.078, 217.056 L 119.894, 231.935 L 135.231, 211.364 z "/>
<path style="fill:rgb(255, 115, 15);fill-opacity:1.0;fill-rule:evenodd;stroke:rgb(0, 0, 0);stroke-width:3.0;" d="M 447.241, 211.25 L 442.539, 237.611 L 318.362, 262.07 L 309.119, 242.608 L 445.737, 209.055 z "/>
<path style="fill:rgb(255, 115, 15);fill-opacity:1.0;fill-rule:evenodd;stroke:rgb(0, 0, 0);stroke-width:3.0;" d="M 654.164, 216.953 L 641.657, 247.602 L 631.899, 243.93 L 635.666, 199.572 L 640.972, 198.527 z "/>
<path style="fill:rgb(255, 22, 9);fill-opacity:1.0;fill-rule:evenodd;stroke:rgb(0, 0, 0);stroke-width:3.0;" d="M 594.171, 567.818 L 550.11, 581.914 L 548.168, 581.45 L 550.945, 556.778 L 581.408, 529.866 z "/>
<path style="fill:rgb(249, 2, 102);fill-opacity:1.0;fill-rule:evenodd;stroke:rgb(0, 0, 0);stroke-width:3.0;" d="M 733.469, 155.116 L 716.522, 183.801 L 713.171, 176.353 L 716.969, 159.804 L 730.638, 149.449 z "/>
<path style="fill:rgb(249, 2, 102);fill-opacity:1.0;fill-rule:evenodd;stroke:rgb(0, 0, 0);stroke-width:3.0;" d="M 111.032, 85.8074 L 99.3202, 103.846 L 60.9283, 99.025 L 96.1854, 82.4424 z "/>
<path style="fill:rgb(249, 168, 60);fill-opacity:1.0;fill-rule:evenodd;stroke:rgb(0, 0, 0);stroke-width:3.0;" d="M 238.658, 22.2597 L 251.054, 48.7472 L 247.236, 46.4605 L 228.096, 21.3278 z "/>
<path style="fill:rgb(249, 168, 60);fill-opacity:1.0;fill-rule:evenodd;stroke:rgb(0, 0, 0);stroke-width:3.0;" d="M 292.715, 267.121 L 241.593, 277.19 L 262.625, 263.624 z "/>
<path style="fill:rgb(255, 28, 52);fill-opacity:1.0;fill-rule:evenodd;stroke:rgb(0, 0, 0);stroke-width:3.0;" d="M 34.4628, 297.173 L 33.053, 309.647 L 29.4913, 318.967 L 29.3732, 318.99 L 24.0329, 306.483 L 29.1539, 289.149 z "/>
<path style="fill:rgb(252, 249, 8);fill-opacity:1.0;fill-rule:evenodd;stroke:rgb(0, 0, 0);stroke-width:3.0;" d="M 660.006, 108.558 L 661.877, 109.996 L 658.543, 119.774 L 644.485, 117.776 L 649.733, 112.775 L 657.96, 108.173 z "/>
<path style="fill:rgb(199, 23, 30);fill-opacity:1.0;fill-rule:evenodd;stroke:rgb(0, 0, 0);stroke-width:3.0;" d="M 729.676, 204.879 L 696.696, 251.78 L 651.862, 196.382 L 682.657, 190.317 z "/>
<path style="fill:rgb(199, 23, 30);fill-opacity:1.0;fill-rule:evenodd;stroke:rgb(0, 0, 0);stroke-width:3.0;" d="M 67.7806, 347.75 L 68.4256, 363.201 L 62.9547, 365.663 L 47.5361, 360.108 L 39.7429, 343.26 z "/>
<path style="fill:rgb(199, 23, 30);fill-opacity:1.0;fill-rule:evenodd;stroke:rgb(0, 0, 0);stroke-width:3.0;" d="M 217.239, 84.3811 L 186.378, 108.057 L 151.882, 78.8966 z "/>
<path style="fill:rgb(58, 61, 255);fill-opacity:1.0;fill-rule:evenodd;stroke:rgb(0, 0, 0);stroke-width:3.0;" d="M 678.251, 122.576 L 683.814, 126.85 L 676.003, 134.79 L 654.74, 127.841 L 645.253, 117.885 z "/>
<path style="fill:rgb(60, 121, 249);fill-opacity:1.0;fill-rule:evenodd;stroke:rgb(0, 0, 0);stroke-width:3.0;" d="M 66.5739, 118.073 L 50.6651, 140.068 L 48.1863, 140.122 L 42.0059, 136.578 L 56.1539, 108.11 z "/>
<path style="fill:rgb(194, 75, 170);fill-opacity:1.0;fill-rule:evenodd;stroke:rgb(0, 0, 0);stroke-width:3.0;" d="M 130.971, 90.3266 L 139.917, 108.944 L 99.3202, 103.846 L 111.032, 85.8074 z "/>
<path style="fill:rgb(194, 75, 170);fill-opacity:1.0;fill-rule:evenodd;stroke:rgb(0, 0, 0);stroke-width:3.0;" d="M 768.347, 187.651 L 773.366, 171.29 L 786.06, 170.764 z "/>
<path style="fill:rgb(212, 2, 243);fill-opacity:1.0;fill-rule:evenodd;stroke:rgb(0, 0, 0);stroke-width:3.0;" d="M 758.44, 110.235 L 757.807, 121.507 L 754.287, 129.331 L 748.532, 121.618 L 753.913, 108.226 z "/>
<path style="fill:rgb(212, 2, 243);fill-opacity:1.0;fill-rule:evenodd;stroke:rgb(0, 0, 0);stroke-width:3.0;" d="M 768.347, 187.651 L 767.797, 188.176 L 752.263, 172.166 L 773.366, 171.29 z "/>
<path style="fill:rgb(255, 20, 170);fill-opacity:1.0;fill-rule:evenodd;stroke:rgb(0, 0, 0);stroke-width:3.0;" d="M 80.3822, 131.276 L 88.7212, 139.25 L 50.6651, 140.068 L 59.2923, 128.141 z "/>
<path style="fill:rgb(252, 252, 56);fill-opacity:1.0;fill-rule:evenodd;stroke:rgb(0, 0, 0);stroke-width:3.0;" d="M 151.705, 199.473 L 164.404, 211.615 L 151.542, 210.116 L 143.653, 200.068 L 146.375, 196.417 z "/>
<path style="fill:rgb(192, 255, 49);fill-opacity:1.0;fill-rule:evenodd;stroke:rgb(0, 0, 0);stroke-width:3.0;" d="M 525.905, 116.131 L 506.552, 135.776 L 497.514, 132.977 L 497.547, 132.065 L 521.532, 104.875 L 522.614, 104.368 z "/>
<path style="fill:rgb(192, 255, 49);fill-opacity:1.0;fill-rule:evenodd;stroke:rgb(0, 0, 0);stroke-width:3.0;" d="M 24.9289, 308.581 L 12.3811, 309.279 L 17.2351, 290.562 z "/>
<path style="fill:rgb(85, 41, 255);fill-opacity:1.0;fill-rule:evenodd;stroke:rgb(0, 0, 0);stroke-width:3.0;" d="M 49.721, 266.033 L 44.6306, 279.353 L 10.6668, 290.406 L 34.9793, 260.122 z "/>
<path style="fill:rgb(246, 23, 252);fill-opacity:1.0;fill-rule:evenodd;stroke:rgb(0, 0, 0);stroke-width:3.0;" d="M 389.883, 76.2494 L 351.314, 39.5 L 394.764, 29.3651 z "/>
<path style="fill:rgb(231, 3, 140);fill-opacity:1.0;fill-rule:evenodd;stroke:rgb(0, 0, 0);stroke-width:3.0;" d="M 748.987, 210.86 L 710.622, 268.988 L 696.696, 251.78 L 729.676, 204.879 z "/>
<path style="fill:rgb(231, 3, 140);fill-opacity:1.0;fill-rule:evenodd;stroke:rgb(0, 0, 0);stroke-width:3.0;" d="M 637.864, 112.627 L 629.112, 134.212 L 610.145, 146.22 L 600.215, 145.816 L 593.554, 117.916 L 616.471, 99.6748 z "/>
<path style="fill:rgb(255, 163, 6);fill-opacity:1.0;fill-rule:evenodd;stroke:rgb(0, 0, 0);stroke-width:3.0;" d="M 710.622, 268.988 L 709.586, 270.558 L 693.123, 267.163 L 701.987, 258.318 z "/>
<path style="fill:rgb(102, 89, 204);fill-opacity:1.0;fill-rule:evenodd;stroke:rgb(0, 0, 0);stroke-width:3.0;" d="M 65.8383, 221.682 L 57.8511, 231.631 L 46.9527, 213.9 L 50.7751, 203.608 z "/>
<path style="fill:rgb(102, 89, 204);fill-opacity:1.0;fill-rule:evenodd;stroke:rgb(0, 0, 0);stroke-width:3.0;" d="M 365.676, 92.146 L 433.928, 191.81 L 433.518, 212.056 L 410.558, 217.694 L 331.72, 148.989 L 341.53, 84.6675 z "/>
<path style="fill:rgb(121, 255, 215);fill-opacity:1.0;fill-rule:evenodd;stroke:rgb(0, 0, 0);stroke-width:3.0;" d="M 45.3094, 26.1476 L 42.2392, 43.7797 L 18.4336, 42.7703 L 36.6762, 21.5262 z "/>
<path style="fill:rgb(121, 255, 215);fill-opacity:1.0;fill-rule:evenodd;stroke:rgb(0, 0, 0);stroke-width:3.0;" d="M 623.988, 146.85 L 623.53, 147.98 L 602.272, 154.431 L 601.603, 151.628 L 619.278, 140.438 z "/>
<path style="fill:rgb(255, 11, 94);fill-opacity:1.0;fill-rule:evenodd;stroke:rgb(0, 0, 0);stroke-width:3.0;" d="M 668.564, 142.35 L 637.212, 174.216 L 636.924, 173.158 L 651.217, 124.144 z "/>
<path style="fill:rgb(85, 207, 220);fill-opacity:1.0;fill-rule:evenodd;stroke:rgb(0, 0, 0);stroke-width:3.0;" d="M 178.017, 100.99 L 188.511, 109.861 L 139.104, 100.066 L 137.393, 91.7821 z "/>
<path style="fill:rgb(85, 207, 220);fill-opacity:1.0;fill-rule:evenodd;stroke:rgb(0, 0, 0);stroke-width:3.0;" d="M 645.253, 117.885 L 651.217, 124.144 L 636.924, 173.158 L 627.432, 138.356 L 630.294, 131.297 L 644.485, 117.776 z "/>
<path style="fill:rgb(207, 22, 255);fill-opacity:1.0;fill-rule:evenodd;stroke:rgb(0, 0, 0);stroke-width:3.0;" d="M 67.2049, 333.96 L 67.2896, 335.989 L 55.1013, 338.617 L 37.4889, 335.521 L 44.3215, 331.373 z "/>
<path style="fill:rgb(255, 249, 14);fill-opacity:1.0;fill-rule:evenodd;stroke:rgb(0, 0, 0);stroke-width:3.0;" d="M 782.547, 127.172 L 772.142, 129.53 L 763.083, 128.472 L 766.617, 119.249 z "/>
<path style="fill:rgb(255, 255, 9);fill-opacity:1.0;fill-rule:evenodd;stroke:rgb(0, 0, 0);stroke-width:3.0;" d="M 157.175, 27.5718 L 147.764, 45.8497 L 120.516, 22.3099 L 126.092, 17.945 z "/>
<path style="fill:rgb(10, 163, 226);fill-opacity:1.0;fill-rule:evenodd;stroke:rgb(0, 0, 0);stroke-width:3.0;" d="M 160.709, 37.5153 L 167.257, 49.0149 L 164.708, 50.2135 L 149.844, 41.809 L 152.995, 35.69 z "/>
<path style="fill:rgb(243, 2, 8);fill-opacity:1.0;fill-rule:evenodd;stroke:rgb(0, 0, 0);stroke-width:3.0;" d="M 614.876, 169.325 L 605.105, 166.299 L 603.304, 158.755 L 623.468, 148.132 z "/>
<path style="fill:rgb(255, 23, 15);fill-opacity:1.0;fill-rule:evenodd;stroke:rgb(0, 0, 0);stroke-width:3.0;" d="M 598.312, 593.442 L 580.382, 589.154 L 561.226, 578.358 L 588.113, 569.756 z "/>
<path style="fill:rgb(255, 23, 15);fill-opacity:1.0;fill-rule:evenodd;stroke:rgb(0, 0, 0);stroke-width:3.0;" d="M 540.93, 100.878 L 525.905, 116.131 L 522.614, 104.368 L 539.624, 96.3962 z "/>
<path style="fill:rgb(255, 24, 33);fill-opacity:1.0;fill-rule:evenodd;stroke:rgb(0, 0, 0);stroke-width:3.0;" d="M 27.6715, 290.23 L 27.4336, 294.972 L 24.0329, 306.483 L 16.7419, 289.407 L 26.5894, 286.35 z "/>
<path style="fill:rgb(255, 255, 11);fill-opacity:1.0;fill-rule:evenodd;stroke:rgb(0, 0, 0);stroke-width:3.0;" d="M 741.811, 175.092 L 747.663, 183.521 L 752.845, 193.89 L 714.028, 192.248 L 712.817, 190.071 L 724.563, 170.19 z "/>
<path style="fill:rgb(154, 146, 255);fill-opacity:1.0;fill-rule:evenodd;stroke:rgb(0, 0, 0);stroke-width:3.0;" d="M 249.025, 56.0182 L 213.32, 76.6125 L 189.242, 38.6747 L 190.744, 37.9682 z "/>
<path style="fill:rgb(255, 234, 17);fill-opacity:1.0;fill-rule:evenodd;stroke:rgb(0, 0, 0);stroke-width:3.0;" d="M 39.7429, 343.26 L 47.5361, 360.108 L 26.0415, 352.364 L 30.0494, 341.708 z "/>
<path style="fill:rgb(255, 234, 17);fill-opacity:1.0;fill-rule:evenodd;stroke:rgb(0, 0, 0);stroke-width:3.0;" d="M 284.884, 67.124 L 252.703, 80.1265 L 242.534, 71.2651 L 249.38, 56.1282 z "/>
<path style="fill:rgb(255, 107, 15);fill-opacity:1.0;fill-rule:evenodd;stroke:rgb(0, 0, 0);stroke-width:3.0;" d="M 44.3215, 331.373 L 32.3378, 338.648 L 14.3954, 337.673 L 19.5986, 328.578 z "/>
</svg>