<?xml version="1.0" encoding="iso-8859-1" standalone="no"?>
<!DOCTYPE svg PUBLIC "-//W3C//DTD SVG 1.0//EN" "http://www.w3.org/TR/2001/REC-SVG-20010904/DTD/svg10.dtd">
<svg xmlns="http://www.w3.org/2000/svg" width="800" height="600">
<path style="fill:rgb(0, 0, 0);fill-opacity:0.0;fill-rule:evenodd;stroke:rgb(0, 0, 0);stroke-width:0.0;" d="M 0, 600 L 800, 600 L 800, 0 L 0, 0 z "/>
<path style="fill:rgb(59, 215, 25);fill-opacity:1.0;fill-rule:evenodd;stroke:rgb(0, 0, 0);stroke-width:3.0;" d="M 612.934, 275.384 L 604.718, 302.334 L 600.417, 300.229 L 596.173, 291.53 L 609.472, 271.941 z "/>
<path style="fill:rgb(59, 215, 25);fill-opacity:1.0;fill-rule:evenodd;stroke:rgb(0, 0, 0);stroke-width:3.0;" d="M 476.006, 321.13 L 474.481, 323.789 L 461.712, 316.56 L 469.107, 309.889 L 473.767, 309.649 z "/>
<path style="fill:rgb(64, 105, 255);fill-opacity:1.0;fill-rule:evenodd;stroke:rgb(0, 0, 0);stroke-width:3.0;" d="M 585.362, 292.864 L 570.86, 372.052 L 471.465, 329.051 L 512.613, 257.273 z "/>
<path style="fill:rgb(64, 105, 255);fill-opacity:1.0;fill-rule:evenodd;stroke:rgb(0, 0, 0);stroke-width:3.0;" d="M 568.949, 584.045 L 559.139, 589.856 L 552.929, 579.441 L 567.162, 573.61 z "/>
<path style="fill:rgb(64, 105, 255);fill-opacity:1.0;fill-rule:evenodd;stroke:rgb(0, 0, 0);stroke-width:3.0;" d="M 340.231, 65.886 L 348.563, 79.8459 L 334.073, 142.716 L 322.774, 70.0195 L 335.202, 63.6121 z "/>
<path style="fill:rgb(64, 105, 255);fill-opacity:1.0;fill-rule:evenodd;stroke:rgb(0, 0, 0);stroke-width:3.0;" d="M 424.198, 411.502 L 367.441, 510.507 L 275.909, 334.383 z "/>
<path style="fill:rgb(13, 15, 255);fill-opacity:1.0;fill-rule:evenodd;stroke:rgb(0, 0, 0);stroke-width:3.0;" d="M 291.354, 41.6428 L 291.199, 43.7177 L 279.548, 38.4498 L 280.764, 30.5396 L 285.813, 28.5233 L 287.425, 28.265 z "/>
<path style="fill:rgb(81, 92, 255);fill-opacity:1.0;fill-rule:evenodd;stroke:rgb(0, 0, 0);stroke-width:3.0;" d="M 249.092, 52.504 L 248.58, 58.3035 L 237.103, 47.5724 L 226.92, 34.8873 L 229.407, 34.1894 z "/>
<path style="fill:rgb(81, 92, 255);fill-opacity:1.0;fill-rule:evenodd;stroke:rgb(0, 0, 0);stroke-width:3.0;" d="M 477.595, 258.769 L 498.648, 281.633 L 493.128, 291.261 L 443.796, 248.82 L 445.681, 246.081 z "/>
<path style="fill:rgb(246, 255, 40);fill-opacity:1.0;fill-rule:evenodd;stroke:rgb(0, 0, 0);stroke-width:3.0;" d="M 631.459, 462.08 L 474.179, 461.75 L 530.571, 421.729 L 603.947, 400.037 z "/>
<path style="fill:rgb(255, 11, 192);fill-opacity:1.0;fill-rule:evenodd;stroke:rgb(0, 0, 0);stroke-width:3.0;" d="M 695.645, 462.215 L 631.459, 462.08 L 606.652, 406.136 L 639.164, 402.161 z "/>
<path style="fill:rgb(255, 11, 192);fill-opacity:1.0;fill-rule:evenodd;stroke:rgb(0, 0, 0);stroke-width:3.0;" d="M 376.878, 160.445 L 375.255, 167.678 L 363.904, 165.645 L 361.778, 162.637 L 367.346, 156.763 z "/>
<path style="fill:rgb(255, 11, 192);fill-opacity:1.0;fill-rule:evenodd;stroke:rgb(0, 0, 0);stroke-width:3.0;" d="M 472.012, 332.745 L 466.381, 356.228 L 457.373, 353.631 L 470.08, 331.467 z "/>
<path style="fill:rgb(255, 11, 192);fill-opacity:1.0;fill-rule:evenodd;stroke:rgb(0, 0, 0);stroke-width:3.0;" d="M 598.67, 177.738 L 573.329, 207.874 L 571.73, 206.694 L 570.165, 201.365 L 574.382, 171.505 z "/>
<path style="fill:rgb(255, 11, 192);fill-opacity:1.0;fill-rule:evenodd;stroke:rgb(0, 0, 0);stroke-width:3.0;" d="M 794.128, 332.164 L 792.928, 366.523 L 789.492, 372.356 L 755.414, 357.517 L 772.78, 323.788 z "/>
<path style="fill:rgb(252, 255, 54);fill-opacity:1.0;fill-rule:evenodd;stroke:rgb(0, 0, 0);stroke-width:3.0;" d="M 589.133, 461.991 L 569.894, 483.237 L 528.369, 461.864 z "/>
<path style="fill:rgb(252, 255, 54);fill-opacity:1.0;fill-rule:evenodd;stroke:rgb(0, 0, 0);stroke-width:3.0;" d="M 473.11, 185.761 L 428.676, 235.813 L 397.973, 209.399 L 449.486, 162.275 z "/>
<path style="fill:rgb(252, 255, 54);fill-opacity:1.0;fill-rule:evenodd;stroke:rgb(0, 0, 0);stroke-width:3.0;" d="M 363.287, 65.8248 L 358.022, 47.2203 L 372.746, 45.742 z "/>
<path style="fill:rgb(252, 255, 54);fill-opacity:1.0;fill-rule:evenodd;stroke:rgb(0, 0, 0);stroke-width:3.0;" d="M 28.7557, 283.26 L 17.9298, 280.011 L 30.1068, 244.562 z "/>
<path style="fill:rgb(255, 223, 170);fill-opacity:1.0;fill-rule:evenodd;stroke:rgb(0, 0, 0);stroke-width:3.0;" d="M 733.978, 444.547 L 744.627, 456.974 L 741.957, 462.312 L 741.677, 462.312 L 729.46, 450.313 L 727.312, 442.908 z "/>
<path style="fill:rgb(255, 223, 170);fill-opacity:1.0;fill-rule:evenodd;stroke:rgb(0, 0, 0);stroke-width:3.0;" d="M 429.244, 547.183 L 326.94, 581.155 L 341.352, 556.016 L 423.771, 497.524 z "/>
<path style="fill:rgb(255, 223, 170);fill-opacity:1.0;fill-rule:evenodd;stroke:rgb(0, 0, 0);stroke-width:3.0;" d="M 269.538, 331.07 L 264.805, 336.553 L 242.499, 321.548 L 250.443, 321.139 z "/>
<path style="fill:rgb(255, 4, 86);fill-opacity:1.0;fill-rule:evenodd;stroke:rgb(0, 0, 0);stroke-width:3.0;" d="M 328.116, 60.4085 L 276.749, 105.109 L 258.926, 89.776 L 281.28, 39.2327 z "/>
<path style="fill:rgb(246, 249, 23);fill-opacity:1.0;fill-rule:evenodd;stroke:rgb(0, 0, 0);stroke-width:3.0;" d="M 463.038, 334.085 L 440.569, 336.951 L 439.939, 336.202 L 456.487, 321.274 z "/>
<path style="fill:rgb(246, 249, 23);fill-opacity:1.0;fill-rule:evenodd;stroke:rgb(0, 0, 0);stroke-width:3.0;" d="M 499.412, 211.91 L 494.812, 265.615 L 482.843, 260.856 L 477.399, 243.985 L 495.527, 208.047 z "/>
<path style="fill:rgb(246, 249, 23);fill-opacity:1.0;fill-rule:evenodd;stroke:rgb(0, 0, 0);stroke-width:3.0;" d="M 616.358, 89.3057 L 617.318, 106.639 L 581.047, 145.116 L 581.074, 143.912 L 616.132, 87.8978 z "/>
<path style="fill:rgb(246, 249, 23);fill-opacity:1.0;fill-rule:evenodd;stroke:rgb(0, 0, 0);stroke-width:3.0;" d="M 485.894, 437.263 L 474.055, 461.838 L 440.456, 485.683 L 454.01, 437.672 L 489.095, 403.886 z "/>
<path style="fill:rgb(21, 231, 212);fill-opacity:1.0;fill-rule:evenodd;stroke:rgb(0, 0, 0);stroke-width:3.0;" d="M 523.806, 404.136 L 523.296, 407.947 L 500.774, 406.371 L 511.117, 384.901 z "/>
<path style="fill:rgb(21, 231, 212);fill-opacity:1.0;fill-rule:evenodd;stroke:rgb(0, 0, 0);stroke-width:3.0;" d="M 143.176, 326.658 L 90.0544, 329.391 L 91.3273, 308.305 L 160.234, 302.295 z "/>
<path style="fill:rgb(21, 231, 212);fill-opacity:1.0;fill-rule:evenodd;stroke:rgb(0, 0, 0);stroke-width:3.0;" d="M 397.849, 122.413 L 370.091, 135.7 L 369.442, 132.522 L 387.032, 113.102 z "/>
<path style="fill:rgb(21, 231, 212);fill-opacity:1.0;fill-rule:evenodd;stroke:rgb(0, 0, 0);stroke-width:3.0;" d="M 74.8731, 330.172 L 27.5163, 332.608 L 52.4157, 285.501 z "/>
<path style="fill:rgb(21, 231, 212);fill-opacity:1.0;fill-rule:evenodd;stroke:rgb(0, 0, 0);stroke-width:3.0;" d="M 446.192, 465.365 L 440.456, 485.683 L 438.139, 487.328 L 423.055, 494.505 L 413.258, 474.422 L 439.089, 461.843 z "/>
<path style="fill:rgb(21, 231, 212);fill-opacity:1.0;fill-rule:evenodd;stroke:rgb(0, 0, 0);stroke-width:3.0;" d="M 585.431, 278.202 L 565.352, 283.074 L 547.367, 274.275 L 566.813, 267.642 z "/>
<path style="fill:rgb(21, 231, 212);fill-opacity:1.0;fill-rule:evenodd;stroke:rgb(0, 0, 0);stroke-width:3.0;" d="M 157.848, 277.6 L 93.3922, 274.101 L 94.543, 255.038 L 149.811, 249.357 z "/>
<path style="fill:rgb(21, 231, 212);fill-opacity:1.0;fill-rule:evenodd;stroke:rgb(0, 0, 0);stroke-width:3.0;" d="M 542.539, 381.06 L 544.033, 405.388 L 541.625, 409.23 L 523.296, 407.947 L 527.525, 376.34 z "/>
<path style="fill:rgb(255, 209, 9);fill-opacity:1.0;fill-rule:evenodd;stroke:rgb(0, 0, 0);stroke-width:3.0;" d="M 365.411, 75.5374 L 360.129, 73.4404 L 348.894, 62.2709 L 341.105, 18.2736 L 349.375, 17.0197 z "/>
<path style="fill:rgb(255, 209, 9);fill-opacity:1.0;fill-rule:evenodd;stroke:rgb(0, 0, 0);stroke-width:3.0;" d="M 157.848, 277.6 L 161.796, 291.469 L 123.647, 301.456 L 134.346, 276.324 z "/>
<path style="fill:rgb(255, 209, 9);fill-opacity:1.0;fill-rule:evenodd;stroke:rgb(0, 0, 0);stroke-width:3.0;" d="M 52.4157, 285.501 L 27.5163, 332.608 L 27.0319, 332.633 L 29.6026, 259.002 L 33.6877, 248.248 z "/>
<path style="fill:rgb(255, 209, 9);fill-opacity:1.0;fill-rule:evenodd;stroke:rgb(0, 0, 0);stroke-width:3.0;" d="M 411.961, 471.763 L 400.591, 477.719 L 393.076, 475.483 L 389.934, 471.272 L 401.704, 450.739 z "/>
<path style="fill:rgb(255, 209, 9);fill-opacity:1.0;fill-rule:evenodd;stroke:rgb(0, 0, 0);stroke-width:3.0;" d="M 481.469, 194.071 L 443.796, 248.82 L 428.676, 235.813 L 473.11, 185.761 z "/>
<path style="fill:rgb(255, 209, 9);fill-opacity:1.0;fill-rule:evenodd;stroke:rgb(0, 0, 0);stroke-width:3.0;" d="M 548.53, 215.359 L 535.633, 231.616 L 532.592, 222.421 L 547.87, 195.771 z "/>
<path style="fill:rgb(255, 209, 9);fill-opacity:1.0;fill-rule:evenodd;stroke:rgb(0, 0, 0);stroke-width:3.0;" d="M 439.089, 461.843 L 413.258, 474.422 L 404.535, 456.542 L 417.264, 451.022 z "/>
<path style="fill:rgb(255, 209, 9);fill-opacity:1.0;fill-rule:evenodd;stroke:rgb(0, 0, 0);stroke-width:3.0;" d="M 778.591, 312.502 L 755.414, 357.517 L 727.859, 345.518 L 753.002, 276.518 z "/>
<path style="fill:rgb(255, 255, 40);fill-opacity:1.0;fill-rule:evenodd;stroke:rgb(0, 0, 0);stroke-width:3.0;" d="M 616.132, 87.8978 L 581.074, 143.912 L 581.217, 137.602 L 614.726, 79.1498 z "/>
<path style="fill:rgb(255, 255, 40);fill-opacity:1.0;fill-rule:evenodd;stroke:rgb(0, 0, 0);stroke-width:3.0;" d="M 273.626, 56.5391 L 269.214, 66.5147 L 262.824, 56.047 L 264.94, 50.9185 L 272.484, 50.8245 z "/>
<path style="fill:rgb(255, 255, 40);fill-opacity:1.0;fill-rule:evenodd;stroke:rgb(0, 0, 0);stroke-width:3.0;" d="M 757.097, 360.584 L 763.127, 377.478 L 761.646, 379.109 L 747.127, 372.006 L 745.168, 365.627 L 754.127, 358.946 z "/>
<path style="fill:rgb(255, 255, 40);fill-opacity:1.0;fill-rule:evenodd;stroke:rgb(0, 0, 0);stroke-width:3.0;" d="M 578.942, 261.345 L 567.129, 264.66 L 565.236, 240.611 L 566.681, 237.898 z "/>
<path style="fill:rgb(209, 5, 255);fill-opacity:1.0;fill-rule:evenodd;stroke:rgb(0, 0, 0);stroke-width:3.0;" d="M 327.74, 163.809 L 307.318, 198.567 L 298.284, 187.725 L 326.83, 158.567 z "/>
<path style="fill:rgb(209, 5, 255);fill-opacity:1.0;fill-rule:evenodd;stroke:rgb(0, 0, 0);stroke-width:3.0;" d="M 687.52, 342.843 L 676.804, 362.18 L 668.972, 366.32 L 672.342, 335.418 z "/>
<path style="fill:rgb(209, 5, 255);fill-opacity:1.0;fill-rule:evenodd;stroke:rgb(0, 0, 0);stroke-width:3.0;" d="M 695.176, 331.75 L 676.063, 337.238 L 674.25, 336.351 L 647.548, 309.802 L 664.18, 304.524 z "/>
<path style="fill:rgb(209, 5, 255);fill-opacity:1.0;fill-rule:evenodd;stroke:rgb(0, 0, 0);stroke-width:3.0;" d="M 574.458, 149.392 L 550.055, 191.96 L 559.458, 136.306 L 574.679, 127.919 z "/>
<path style="fill:rgb(32, 1, 197);fill-opacity:1.0;fill-rule:evenodd;stroke:rgb(0, 0, 0);stroke-width:3.0;" d="M 505.414, 269.83 L 500.813, 277.856 L 489.14, 271.307 L 487.101, 269.093 L 490.439, 263.876 z "/>
<path style="fill:rgb(32, 1, 197);fill-opacity:1.0;fill-rule:evenodd;stroke:rgb(0, 0, 0);stroke-width:3.0;" d="M 369.794, 134.246 L 365.489, 158.721 L 356.78, 167.911 L 352.262, 151.491 L 369.442, 132.522 z "/>
<path style="fill:rgb(32, 1, 197);fill-opacity:1.0;fill-rule:evenodd;stroke:rgb(0, 0, 0);stroke-width:3.0;" d="M 344.208, 35.8015 L 331.064, 31.9711 L 328.112, 21.9643 L 333.182, 19.4748 L 341.105, 18.2736 z "/>
<path style="fill:rgb(228, 163, 237);fill-opacity:1.0;fill-rule:evenodd;stroke:rgb(0, 0, 0);stroke-width:3.0;" d="M 172.022, 36.2115 L 185.996, 52.9803 L 181.382, 54.6896 L 137.34, 17.6344 z "/>
<path style="fill:rgb(228, 163, 237);fill-opacity:1.0;fill-rule:evenodd;stroke:rgb(0, 0, 0);stroke-width:3.0;" d="M 599.982, 58.8806 L 587.885, 59.1487 L 580.673, 50.8908 L 582.244, 45.1543 L 594.389, 44.768 z "/>
<path style="fill:rgb(228, 163, 237);fill-opacity:1.0;fill-rule:evenodd;stroke:rgb(0, 0, 0);stroke-width:3.0;" d="M 43.9104, 198.57 L 29.9622, 258.055 L 29.6026, 259.002 L 30.9017, 221.794 L 40.4138, 198.46 z "/>
<path style="fill:rgb(228, 163, 237);fill-opacity:1.0;fill-rule:evenodd;stroke:rgb(0, 0, 0);stroke-width:3.0;" d="M 379.56, 92.7577 L 350.262, 120.946 L 360.306, 73.6161 z "/>
<path style="fill:rgb(249, 255, 55);fill-opacity:1.0;fill-rule:evenodd;stroke:rgb(0, 0, 0);stroke-width:3.0;" d="M 275.395, 36.5722 L 246.974, 38.999 L 242.792, 30.4329 L 254.53, 27.1386 z "/>
<path style="fill:rgb(249, 255, 55);fill-opacity:1.0;fill-rule:evenodd;stroke:rgb(0, 0, 0);stroke-width:3.0;" d="M 370.899, 118.665 L 356.319, 143.172 L 348.697, 128.322 L 350.262, 120.946 L 369.596, 102.345 z "/>
<path style="fill:rgb(249, 255, 55);fill-opacity:1.0;fill-rule:evenodd;stroke:rgb(0, 0, 0);stroke-width:3.0;" d="M 201.585, 71.6875 L 218.954, 92.5299 L 219.327, 322.74 L 171.397, 325.206 L 168.921, 316.505 L 129.638, 11.1549 z "/>
<path style="fill:rgb(249, 255, 55);fill-opacity:1.0;fill-rule:evenodd;stroke:rgb(0, 0, 0);stroke-width:3.0;" d="M 107.36, 355.468 L 95.3296, 413.81 L 93.2316, 401.06 L 91.8255, 350.271 z "/>
<path style="fill:rgb(249, 255, 55);fill-opacity:1.0;fill-rule:evenodd;stroke:rgb(0, 0, 0);stroke-width:3.0;" d="M 376.513, 190.936 L 377.274, 191.591 L 345.578, 201.192 L 352.236, 190.814 z "/>
<path style="fill:rgb(249, 255, 55);fill-opacity:1.0;fill-rule:evenodd;stroke:rgb(0, 0, 0);stroke-width:3.0;" d="M 574.326, 215.534 L 555.307, 207.226 L 562.415, 174.976 z "/>
<path style="fill:rgb(249, 255, 55);fill-opacity:1.0;fill-rule:evenodd;stroke:rgb(0, 0, 0);stroke-width:3.0;" d="M 151.292, 299.265 L 138.029, 304.231 L 100.562, 307.499 L 150.945, 294.31 z "/>
<path style="fill:rgb(249, 255, 55);fill-opacity:1.0;fill-rule:evenodd;stroke:rgb(0, 0, 0);stroke-width:3.0;" d="M 528.369, 461.864 L 569.894, 483.237 L 547.568, 507.891 L 440.631, 543.402 L 456.673, 474.174 L 474.179, 461.75 z "/>
<path style="fill:rgb(249, 255, 55);fill-opacity:1.0;fill-rule:evenodd;stroke:rgb(0, 0, 0);stroke-width:3.0;" d="M 595.492, 394.257 L 548.768, 414.959 L 543.379, 412.64 L 560.092, 400.779 L 586.806, 392.096 z "/>
<path style="fill:rgb(249, 255, 55);fill-opacity:1.0;fill-rule:evenodd;stroke:rgb(0, 0, 0);stroke-width:3.0;" d="M 510.947, 411.407 L 526.174, 424.85 L 474.055, 461.838 L 491.004, 426.654 L 502.499, 408.687 z "/>
<path style="fill:rgb(246, 163, 7);fill-opacity:1.0;fill-rule:evenodd;stroke:rgb(0, 0, 0);stroke-width:3.0;" d="M 556.523, 385.457 L 549.26, 397.047 L 542.735, 384.242 L 542.539, 381.06 z "/>
<path style="fill:rgb(7, 255, 255);fill-opacity:1.0;fill-rule:evenodd;stroke:rgb(0, 0, 0);stroke-width:3.0;" d="M 664.18, 304.524 L 647.548, 309.802 L 569.642, 232.338 L 573.581, 224.942 z "/>
<path style="fill:rgb(7, 255, 255);fill-opacity:1.0;fill-rule:evenodd;stroke:rgb(0, 0, 0);stroke-width:3.0;" d="M 518.166, 357.212 L 513.77, 375.801 L 492.336, 354.582 z "/>
<path style="fill:rgb(223, 1, 6);fill-opacity:1.0;fill-rule:evenodd;stroke:rgb(0, 0, 0);stroke-width:3.0;" d="M 335.624, 49.0787 L 341.431, 54.8513 L 343.465, 67.3483 L 293.414, 44.7192 z "/>
<path style="fill:rgb(12, 26, 255);fill-opacity:1.0;fill-rule:evenodd;stroke:rgb(0, 0, 0);stroke-width:3.0;" d="M 457.424, 425.582 L 451.362, 426.233 L 432.794, 415.686 L 463.123, 405.392 z "/>
<path style="fill:rgb(252, 34, 10);fill-opacity:1.0;fill-rule:evenodd;stroke:rgb(0, 0, 0);stroke-width:3.0;" d="M 495.527, 208.047 L 471.22, 256.235 L 445.681, 246.081 L 481.469, 194.071 z "/>
<path style="fill:rgb(252, 34, 10);fill-opacity:1.0;fill-rule:evenodd;stroke:rgb(0, 0, 0);stroke-width:3.0;" d="M 525.736, 375.778 L 524.238, 382.288 L 511.154, 384.824 L 516.856, 372.986 z "/>
<path style="fill:rgb(252, 34, 10);fill-opacity:1.0;fill-rule:evenodd;stroke:rgb(0, 0, 0);stroke-width:3.0;" d="M 534.233, 408.712 L 534.851, 418.692 L 534.452, 418.975 L 500.04, 407.895 L 500.774, 406.371 z "/>
<path style="fill:rgb(255, 71, 7);fill-opacity:1.0;fill-rule:evenodd;stroke:rgb(0, 0, 0);stroke-width:3.0;" d="M 649.768, 81.8911 L 637.666, 97.177 L 655.205, 51.5894 L 674.815, 34.863 z "/>
<path style="fill:rgb(255, 71, 7);fill-opacity:1.0;fill-rule:evenodd;stroke:rgb(0, 0, 0);stroke-width:3.0;" d="M 365.828, 507.404 L 367.441, 510.507 L 356.142, 530.217 L 325.631, 491.203 z "/>
<path style="fill:rgb(255, 71, 7);fill-opacity:1.0;fill-rule:evenodd;stroke:rgb(0, 0, 0);stroke-width:3.0;" d="M 402.925, 313.294 L 219.327, 322.74 L 218.954, 92.5299 z "/>
<path style="fill:rgb(228, 8, 36);fill-opacity:1.0;fill-rule:evenodd;stroke:rgb(0, 0, 0);stroke-width:3.0;" d="M 458.084, 407.103 L 440.342, 413.124 L 430.946, 399.731 L 433.375, 395.493 z "/>
<path style="fill:rgb(228, 8, 36);fill-opacity:1.0;fill-rule:evenodd;stroke:rgb(0, 0, 0);stroke-width:3.0;" d="M 171.397, 325.206 L 168.423, 325.359 L 148.27, 319.382 L 160.234, 302.295 L 164.764, 301.899 z "/>
<path style="fill:rgb(228, 8, 36);fill-opacity:1.0;fill-rule:evenodd;stroke:rgb(0, 0, 0);stroke-width:3.0;" d="M 54.6424, 193.088 L 52.4578, 198.838 L 31.7259, 198.187 L 32.4927, 176.223 L 32.8399, 176.099 z "/>
<path style="fill:rgb(255, 3, 34);fill-opacity:1.0;fill-rule:evenodd;stroke:rgb(0, 0, 0);stroke-width:3.0;" d="M 485.832, 407.028 L 454.01, 437.672 L 460.171, 415.851 L 485.27, 405.351 z "/>
<path style="fill:rgb(255, 3, 34);fill-opacity:1.0;fill-rule:evenodd;stroke:rgb(0, 0, 0);stroke-width:3.0;" d="M 331.318, 44.7977 L 335.624, 49.0787 L 293.414, 44.7192 L 291.199, 43.7177 L 292.261, 29.4711 z "/>
<path style="fill:rgb(255, 3, 34);fill-opacity:1.0;fill-rule:evenodd;stroke:rgb(0, 0, 0);stroke-width:3.0;" d="M 715.097, 436.208 L 699.403, 462.223 L 695.645, 462.215 L 687.459, 453.512 L 714.488, 435.61 z "/>
<path style="fill:rgb(255, 3, 34);fill-opacity:1.0;fill-rule:evenodd;stroke:rgb(0, 0, 0);stroke-width:3.0;" d="M 413.408, 195.279 L 397.973, 209.399 L 374.297, 189.03 L 382.905, 169.231 z "/>
<path style="fill:rgb(44, 0, 177);fill-opacity:1.0;fill-rule:evenodd;stroke:rgb(0, 0, 0);stroke-width:3.0;" d="M 281.28, 39.2327 L 276.173, 50.7786 L 252.868, 51.0688 L 246.974, 38.999 L 275.395, 36.5722 z "/>
<path style="fill:rgb(243, 6, 7);fill-opacity:1.0;fill-rule:evenodd;stroke:rgb(0, 0, 0);stroke-width:3.0;" d="M 371.136, 383.907 L 282.662, 337.895 L 296.314, 318.779 L 408.189, 313.023 z "/>
<path style="fill:rgb(255, 14, 152);fill-opacity:1.0;fill-rule:evenodd;stroke:rgb(0, 0, 0);stroke-width:3.0;" d="M 497.784, 374.294 L 496.856, 414.505 L 487.923, 433.05 L 491.709, 373.888 L 492.653, 372.455 z "/>
<path style="fill:rgb(255, 14, 152);fill-opacity:1.0;fill-rule:evenodd;stroke:rgb(0, 0, 0);stroke-width:3.0;" d="M 736.884, 185.128 L 646.208, 229.442 L 581.701, 209.695 L 622.069, 133.9 z "/>
<path style="fill:rgb(255, 14, 152);fill-opacity:1.0;fill-rule:evenodd;stroke:rgb(0, 0, 0);stroke-width:3.0;" d="M 406.333, 36.8891 L 363.644, 29.9782 L 356.966, 15.869 L 409.373, 7.92394 z "/>
<path style="fill:rgb(255, 14, 152);fill-opacity:1.0;fill-rule:evenodd;stroke:rgb(0, 0, 0);stroke-width:3.0;" d="M 514.942, 376.961 L 513.511, 379.93 L 491.82, 372.156 L 492.908, 355.148 z "/>
<path style="fill:rgb(30, 79, 179);fill-opacity:1.0;fill-rule:evenodd;stroke:rgb(0, 0, 0);stroke-width:3.0;" d="M 497.988, 350.118 L 490.804, 353.065 L 480.716, 343.078 L 482.461, 336.896 z "/>
<path style="fill:rgb(255, 76, 204);fill-opacity:1.0;fill-rule:evenodd;stroke:rgb(0, 0, 0);stroke-width:3.0;" d="M 32.2839, 182.206 L 31.9526, 191.695 L 26.066, 200.661 L 21.2605, 199.962 L 29.793, 180.267 z "/>
<path style="fill:rgb(255, 76, 204);fill-opacity:1.0;fill-rule:evenodd;stroke:rgb(0, 0, 0);stroke-width:3.0;" d="M 90.0544, 329.391 L 74.8731, 330.172 L 33.6877, 248.248 L 53.8111, 195.276 L 100.688, 153.253 z "/>
<path style="fill:rgb(179, 1, 142);fill-opacity:1.0;fill-rule:evenodd;stroke:rgb(0, 0, 0);stroke-width:3.0;" d="M 792.665, 304.237 L 790.134, 330.597 L 772.78, 323.788 L 788.959, 292.366 z "/>
<path style="fill:rgb(179, 1, 142);fill-opacity:1.0;fill-rule:evenodd;stroke:rgb(0, 0, 0);stroke-width:3.0;" d="M 100.688, 153.253 L 53.8111, 195.276 L 65.547, 164.383 L 100.778, 151.763 z "/>
<path style="fill:rgb(252, 44, 17);fill-opacity:1.0;fill-rule:evenodd;stroke:rgb(0, 0, 0);stroke-width:3.0;" d="M 549.729, 251.003 L 548.957, 251.333 L 519.316, 252.184 L 548.53, 215.359 z "/>
<path style="fill:rgb(252, 44, 17);fill-opacity:1.0;fill-rule:evenodd;stroke:rgb(0, 0, 0);stroke-width:3.0;" d="M 321.426, 164.087 L 314.495, 171.166 L 303.167, 157.253 L 312.743, 156.721 z "/>
<path style="fill:rgb(252, 44, 17);fill-opacity:1.0;fill-rule:evenodd;stroke:rgb(0, 0, 0);stroke-width:3.0;" d="M 711.903, 433.072 L 714.488, 435.61 L 689.141, 452.398 L 683.977, 449.809 L 671.584, 436.632 L 683.864, 420.941 z "/>
<path style="fill:rgb(255, 255, 21);fill-opacity:1.0;fill-rule:evenodd;stroke:rgb(0, 0, 0);stroke-width:3.0;" d="M 404.954, 52.5315 L 364.239, 69.1893 L 363.287, 65.8248 L 369.971, 51.6348 z "/>
<path style="fill:rgb(255, 255, 21);fill-opacity:1.0;fill-rule:evenodd;stroke:rgb(0, 0, 0);stroke-width:3.0;" d="M 732.23, 333.524 L 726.016, 350.576 L 723.06, 348.408 L 713.569, 328.253 L 714.036, 327.863 z "/>
<path style="fill:rgb(255, 255, 21);fill-opacity:1.0;fill-rule:evenodd;stroke:rgb(0, 0, 0);stroke-width:3.0;" d="M 681.492, 423.972 L 678.122, 428.278 L 659.342, 422.839 L 659.049, 419.235 L 661.463, 417.821 z "/>
<path style="fill:rgb(255, 255, 21);fill-opacity:1.0;fill-rule:evenodd;stroke:rgb(0, 0, 0);stroke-width:3.0;" d="M 707.76, 314.495 L 709.937, 329.657 L 700.609, 319.351 L 700.852, 302.609 z "/>
<path style="fill:rgb(255, 255, 21);fill-opacity:1.0;fill-rule:evenodd;stroke:rgb(0, 0, 0);stroke-width:3.0;" d="M 698.492, 334.663 L 700.741, 343.998 L 689.821, 343.864 L 681.448, 335.692 L 695.176, 331.75 z "/>
<path style="fill:rgb(27, 255, 255);fill-opacity:1.0;fill-rule:evenodd;stroke:rgb(0, 0, 0);stroke-width:3.0;" d="M 600.3, 462.015 L 606.471, 488.331 L 547.568, 507.891 L 589.133, 461.991 z "/>
<path style="fill:rgb(255, 30, 197);fill-opacity:1.0;fill-rule:evenodd;stroke:rgb(0, 0, 0);stroke-width:3.0;" d="M 365.828, 507.404 L 325.631, 491.203 L 302.072, 461.079 L 325.395, 429.604 z "/>
<path style="fill:rgb(255, 30, 197);fill-opacity:1.0;fill-rule:evenodd;stroke:rgb(0, 0, 0);stroke-width:3.0;" d="M 449.54, 146.65 L 458.817, 162.139 L 462.004, 174.72 L 461.633, 174.351 L 440.581, 146.231 z "/>
<path style="fill:rgb(255, 30, 197);fill-opacity:1.0;fill-rule:evenodd;stroke:rgb(0, 0, 0);stroke-width:3.0;" d="M 594.389, 44.768 L 579.85, 45.2304 L 588.95, 31.0451 z "/>
<path style="fill:rgb(255, 30, 197);fill-opacity:1.0;fill-rule:evenodd;stroke:rgb(0, 0, 0);stroke-width:3.0;" d="M 637.666, 97.177 L 627.319, 110.245 L 620.305, 81.3569 L 655.205, 51.5894 z "/>
<path style="fill:rgb(243, 64, 66);fill-opacity:1.0;fill-rule:evenodd;stroke:rgb(0, 0, 0);stroke-width:3.0;" d="M 334.802, 204.456 L 316.776, 209.916 L 307.318, 198.567 L 327.74, 163.809 z "/>
<path style="fill:rgb(243, 64, 66);fill-opacity:1.0;fill-rule:evenodd;stroke:rgb(0, 0, 0);stroke-width:3.0;" d="M 452.185, 444.138 L 447.625, 443.419 L 446.358, 442.469 L 442.013, 427.992 L 456.865, 427.561 z "/>
<path style="fill:rgb(243, 64, 66);fill-opacity:1.0;fill-rule:evenodd;stroke:rgb(0, 0, 0);stroke-width:3.0;" d="M 609.077, 89.0036 L 594.971, 113.61 L 587.682, 108.245 L 577.82, 83.503 L 590.569, 74.7891 z "/>
<path style="fill:rgb(243, 64, 66);fill-opacity:1.0;fill-rule:evenodd;stroke:rgb(0, 0, 0);stroke-width:3.0;" d="M 535.633, 231.616 L 519.316, 252.184 L 515.467, 252.295 L 532.592, 222.421 z "/>
<path style="fill:rgb(243, 64, 66);fill-opacity:1.0;fill-rule:evenodd;stroke:rgb(0, 0, 0);stroke-width:3.0;" d="M 618.575, 129.346 L 619.133, 139.414 L 605.468, 165.071 L 580.673, 161.642 L 581.047, 145.116 L 601.239, 123.696 z "/>
<path style="fill:rgb(13, 217, 217);fill-opacity:1.0;fill-rule:evenodd;stroke:rgb(0, 0, 0);stroke-width:3.0;" d="M 618.575, 129.346 L 601.239, 123.696 L 617.318, 106.639 z "/>
<path style="fill:rgb(7, 255, 237);fill-opacity:1.0;fill-rule:evenodd;stroke:rgb(0, 0, 0);stroke-width:3.0;" d="M 685.181, 462.193 L 632.757, 479.602 L 639.901, 462.098 z "/>
<path style="fill:rgb(255, 255, 61);fill-opacity:1.0;fill-rule:evenodd;stroke:rgb(0, 0, 0);stroke-width:3.0;" d="M 639.901, 462.098 L 632.757, 479.602 L 606.471, 488.331 L 600.3, 462.015 z "/>
<path style="fill:rgb(223, 75, 255);fill-opacity:1.0;fill-rule:evenodd;stroke:rgb(0, 0, 0);stroke-width:3.0;" d="M 462.617, 265.013 L 339.919, 230.976 L 389.247, 201.892 z "/>
<path style="fill:rgb(223, 75, 255);fill-opacity:1.0;fill-rule:evenodd;stroke:rgb(0, 0, 0);stroke-width:3.0;" d="M 52.4578, 198.838 L 29.9622, 258.055 L 43.9104, 198.57 z "/>
<path style="fill:rgb(223, 75, 255);fill-opacity:1.0;fill-rule:evenodd;stroke:rgb(0, 0, 0);stroke-width:3.0;" d="M 635.864, 298.183 L 635.908, 310.6 L 610.867, 298.984 L 621.361, 283.763 z "/>
<path style="fill:rgb(223, 75, 255);fill-opacity:1.0;fill-rule:evenodd;stroke:rgb(0, 0, 0);stroke-width:3.0;" d="M 592.075, 254.643 L 592.735, 283.501 L 592.681, 283.791 L 590.877, 282.66 L 587.748, 274.777 L 584.282, 260.965 L 590.398, 252.975 z "/>
<path style="fill:rgb(223, 75, 255);fill-opacity:1.0;fill-rule:evenodd;stroke:rgb(0, 0, 0);stroke-width:3.0;" d="M 359.192, 524.896 L 368.128, 509.308 L 400.494, 505.241 z "/>
<path style="fill:rgb(159, 179, 255);fill-opacity:1.0;fill-rule:evenodd;stroke:rgb(0, 0, 0);stroke-width:3.0;" d="M 330.273, 29.2892 L 332.567, 37.0662 L 325.327, 38.842 L 313.64, 27.2226 L 312.978, 23.8263 z "/>
<path style="fill:rgb(159, 179, 255);fill-opacity:1.0;fill-rule:evenodd;stroke:rgb(0, 0, 0);stroke-width:3.0;" d="M 411.407, 500.048 L 400.494, 505.241 L 368.128, 509.308 L 389.934, 471.272 z "/>
<path style="fill:rgb(21, 148, 249);fill-opacity:1.0;fill-rule:evenodd;stroke:rgb(0, 0, 0);stroke-width:3.0;" d="M 438.743, 380.682 L 429.449, 402.341 L 424.198, 411.502 L 371.136, 383.907 L 408.189, 313.023 L 429.255, 311.939 z "/>
<path style="fill:rgb(6, 44, 212);fill-opacity:1.0;fill-rule:evenodd;stroke:rgb(0, 0, 0);stroke-width:3.0;" d="M 650.295, 312.532 L 646.57, 322.809 L 636.989, 318.122 L 637.559, 311.231 L 647.518, 309.771 z "/>
<path style="fill:rgb(6, 44, 212);fill-opacity:1.0;fill-rule:evenodd;stroke:rgb(0, 0, 0);stroke-width:3.0;" d="M 622.718, 394.487 L 595.844, 402.432 L 610.109, 389.032 z "/>
<path style="fill:rgb(37, 144, 220);fill-opacity:1.0;fill-rule:evenodd;stroke:rgb(0, 0, 0);stroke-width:3.0;" d="M 610.109, 389.032 L 595.844, 402.432 L 539.332, 419.139 L 608.68, 388.414 z "/>
<path style="fill:rgb(215, 11, 36);fill-opacity:1.0;fill-rule:evenodd;stroke:rgb(0, 0, 0);stroke-width:3.0;" d="M 454.043, 485.521 L 440.631, 543.402 L 429.244, 547.183 L 423.771, 497.524 L 452.758, 476.952 z "/>
<path style="fill:rgb(246, 255, 11);fill-opacity:1.0;fill-rule:evenodd;stroke:rgb(0, 0, 0);stroke-width:3.0;" d="M 424.344, 39.8051 L 420.932, 45.9944 L 419.716, 46.4918 L 375.118, 40.7065 L 379, 32.4642 z "/>
<path style="fill:rgb(243, 4, 11);fill-opacity:1.0;fill-rule:evenodd;stroke:rgb(0, 0, 0);stroke-width:3.0;" d="M 360.045, 74.8444 L 342.17, 159.084 L 332.783, 148.315 L 350.691, 70.6152 z "/>
<path style="fill:rgb(243, 4, 11);fill-opacity:1.0;fill-rule:evenodd;stroke:rgb(0, 0, 0);stroke-width:3.0;" d="M 628.162, 113.713 L 626.105, 119.513 L 621.651, 122.241 L 614.726, 79.1498 L 618.268, 72.9705 z "/>
<path style="fill:rgb(56, 72, 255);fill-opacity:1.0;fill-rule:evenodd;stroke:rgb(0, 0, 0);stroke-width:3.0;" d="M 608.674, 388.411 L 608.68, 388.414 L 595.492, 394.257 L 576.084, 389.429 L 582.522, 384.861 z "/>
<path style="fill:rgb(252, 152, 163);fill-opacity:1.0;fill-rule:evenodd;stroke:rgb(0, 0, 0);stroke-width:3.0;" d="M 168.921, 316.505 L 122.427, 153.141 L 142.68, 112.53 z "/>
<path style="fill:rgb(255, 14, 92);fill-opacity:1.0;fill-rule:evenodd;stroke:rgb(0, 0, 0);stroke-width:3.0;" d="M 448.107, 352.947 L 454.517, 358.614 L 439.349, 385.072 L 434.745, 351.716 z "/>
<path style="fill:rgb(240, 37, 105);fill-opacity:1.0;fill-rule:evenodd;stroke:rgb(0, 0, 0);stroke-width:3.0;" d="M 492.908, 355.148 L 491.181, 382.137 L 489.095, 403.886 L 485.832, 407.028 L 473.26, 369.487 L 480.716, 343.078 z "/>
<path style="fill:rgb(249, 246, 15);fill-opacity:1.0;fill-rule:evenodd;stroke:rgb(0, 0, 0);stroke-width:3.0;" d="M 314.495, 171.166 L 305.213, 180.647 L 300.858, 157.381 L 303.167, 157.253 z "/>
<path style="fill:rgb(249, 246, 15);fill-opacity:1.0;fill-rule:evenodd;stroke:rgb(0, 0, 0);stroke-width:3.0;" d="M 393.188, 106.306 L 367.716, 134.429 L 360.356, 136.387 L 383.802, 96.9752 z "/>
<path style="fill:rgb(237, 52, 7);fill-opacity:1.0;fill-rule:evenodd;stroke:rgb(0, 0, 0);stroke-width:3.0;" d="M 736.97, 349.485 L 739.383, 350.816 L 734.624, 361.833 L 725.476, 352.058 L 727.859, 345.518 z "/>
<path style="fill:rgb(237, 52, 7);fill-opacity:1.0;fill-rule:evenodd;stroke:rgb(0, 0, 0);stroke-width:3.0;" d="M 451.124, 443.971 L 452.185, 444.138 L 446.475, 464.364 L 421.015, 449.396 L 434.269, 443.649 z "/>
<path style="fill:rgb(237, 52, 7);fill-opacity:1.0;fill-rule:evenodd;stroke:rgb(0, 0, 0);stroke-width:3.0;" d="M 134.346, 276.324 L 123.647, 301.456 L 112.717, 304.317 L 110.181, 280.38 L 113.618, 275.199 z "/>
<path style="fill:rgb(237, 52, 7);fill-opacity:1.0;fill-rule:evenodd;stroke:rgb(0, 0, 0);stroke-width:3.0;" d="M 556.863, 151.668 L 550.055, 191.96 L 524.386, 236.737 L 462.004, 174.72 L 454.958, 146.903 z "/>
<path style="fill:rgb(255, 255, 13);fill-opacity:1.0;fill-rule:evenodd;stroke:rgb(0, 0, 0);stroke-width:3.0;" d="M 466.008, 318.992 L 469.435, 332.592 L 469.016, 333.323 L 463.038, 334.085 L 456.487, 321.274 L 461.712, 316.56 z "/>
<path style="fill:rgb(255, 255, 13);fill-opacity:1.0;fill-rule:evenodd;stroke:rgb(0, 0, 0);stroke-width:3.0;" d="M 635.908, 310.6 L 635.933, 317.605 L 628.663, 314.048 L 606.277, 297.219 L 606.374, 296.9 z "/>
<path style="fill:rgb(48, 255, 249);fill-opacity:1.0;fill-rule:evenodd;stroke:rgb(0, 0, 0);stroke-width:3.0;" d="M 331.318, 44.7977 L 292.261, 29.4711 L 293.892, 7.59051 z "/>
<path style="fill:rgb(237, 1, 58);fill-opacity:1.0;fill-rule:evenodd;stroke:rgb(0, 0, 0);stroke-width:3.0;" d="M 449.486, 162.275 L 414.624, 194.167 L 383.471, 167.93 L 405.112, 118.16 z "/>
<path style="fill:rgb(6, 255, 246);fill-opacity:1.0;fill-rule:evenodd;stroke:rgb(0, 0, 0);stroke-width:3.0;" d="M 510.257, 345.833 L 515.496, 353.465 L 502.217, 353.719 L 482.461, 336.896 L 483.238, 334.144 z "/>
<path style="fill:rgb(255, 184, 21);fill-opacity:1.0;fill-rule:evenodd;stroke:rgb(0, 0, 0);stroke-width:3.0;" d="M 376.513, 190.936 L 352.236, 190.814 L 360.819, 177.435 z "/>
<path style="fill:rgb(255, 17, 75);fill-opacity:1.0;fill-rule:evenodd;stroke:rgb(0, 0, 0);stroke-width:3.0;" d="M 672.342, 335.418 L 663.953, 412.327 L 570.86, 372.052 L 585.362, 292.864 z "/>
<path style="fill:rgb(255, 17, 75);fill-opacity:1.0;fill-rule:evenodd;stroke:rgb(0, 0, 0);stroke-width:3.0;" d="M 462.617, 265.013 L 472.019, 273.101 L 490.549, 295.761 L 482.855, 309.182 L 402.925, 313.294 L 378.182, 283.603 L 437.086, 257.93 z "/>
<path style="fill:rgb(255, 17, 75);fill-opacity:1.0;fill-rule:evenodd;stroke:rgb(0, 0, 0);stroke-width:3.0;" d="M 450.5, 326.675 L 443.298, 333.172 L 430.092, 318.009 L 429.755, 315.563 L 430.338, 314.396 z "/>
<path style="fill:rgb(255, 17, 255);fill-opacity:1.0;fill-rule:evenodd;stroke:rgb(0, 0, 0);stroke-width:3.0;" d="M 782.298, 191.055 L 754.676, 271.923 L 742.324, 305.822 L 609.318, 256.334 L 602.835, 250.639 L 766.653, 170.58 z "/>
<path style="fill:rgb(255, 17, 255);fill-opacity:1.0;fill-rule:evenodd;stroke:rgb(0, 0, 0);stroke-width:3.0;" d="M 283.611, 349.204 L 325.395, 429.604 L 302.072, 461.079 L 210.323, 343.762 L 207.361, 323.356 L 242.499, 321.548 z "/>
<path style="fill:rgb(255, 43, 16);fill-opacity:1.0;fill-rule:evenodd;stroke:rgb(0, 0, 0);stroke-width:3.0;" d="M 419.716, 46.4918 L 404.954, 52.5315 L 369.971, 51.6348 L 375.118, 40.7065 z "/>
<path style="fill:rgb(202, 220, 255);fill-opacity:1.0;fill-rule:evenodd;stroke:rgb(0, 0, 0);stroke-width:3.0;" d="M 513.511, 379.93 L 496.856, 414.505 L 497.784, 374.294 z "/>
<path style="fill:rgb(199, 117, 21);fill-opacity:1.0;fill-rule:evenodd;stroke:rgb(0, 0, 0);stroke-width:3.0;" d="M 557.642, 254.869 L 534.603, 259.79 L 529.439, 251.894 L 559.689, 251.025 z "/>
<path style="fill:rgb(255, 22, 35);fill-opacity:1.0;fill-rule:evenodd;stroke:rgb(0, 0, 0);stroke-width:3.0;" d="M 389.247, 201.892 L 339.919, 230.976 L 332.644, 228.958 L 316.776, 209.916 L 377.274, 191.591 z "/>
<path style="fill:rgb(255, 19, 9);fill-opacity:1.0;fill-rule:evenodd;stroke:rgb(0, 0, 0);stroke-width:3.0;" d="M 443.588, 421.817 L 435.887, 427.895 L 428.039, 428.738 L 424.127, 425.806 L 423.229, 418.932 L 432.794, 415.686 z "/>
<path style="fill:rgb(7, 226, 255);fill-opacity:1.0;fill-rule:evenodd;stroke:rgb(0, 0, 0);stroke-width:3.0;" d="M 548.381, 272.258 L 540.436, 268.71 L 534.603, 259.79 L 557.642, 254.869 z "/>
<path style="fill:rgb(255, 249, 20);fill-opacity:1.0;fill-rule:evenodd;stroke:rgb(0, 0, 0);stroke-width:3.0;" d="M 399.099, 477.275 L 418.279, 491.857 L 409.867, 497.984 L 393.076, 475.483 z "/>
<path style="fill:rgb(255, 249, 20);fill-opacity:1.0;fill-rule:evenodd;stroke:rgb(0, 0, 0);stroke-width:3.0;" d="M 254.53, 27.1386 L 208.8, 39.9726 L 214.851, 9.19872 z "/>
<path style="fill:rgb(255, 22, 71);fill-opacity:1.0;fill-rule:evenodd;stroke:rgb(0, 0, 0);stroke-width:3.0;" d="M 638.279, 401.22 L 639.164, 402.161 L 627.379, 403.602 L 606.896, 399.165 L 622.718, 394.487 z "/>
<path style="fill:rgb(255, 85, 30);fill-opacity:1.0;fill-rule:evenodd;stroke:rgb(0, 0, 0);stroke-width:3.0;" d="M 588.466, 73.1742 L 588.504, 76.2002 L 577.82, 83.503 L 571.19, 66.8701 L 572.231, 60.7057 z "/>
<path style="fill:rgb(255, 85, 30);fill-opacity:1.0;fill-rule:evenodd;stroke:rgb(0, 0, 0);stroke-width:3.0;" d="M 113.618, 275.199 L 91.6773, 308.274 L 91.3273, 308.305 L 93.3922, 274.101 z "/>
<path style="fill:rgb(255, 85, 30);fill-opacity:1.0;fill-rule:evenodd;stroke:rgb(0, 0, 0);stroke-width:3.0;" d="M 110.359, 340.925 L 107.36, 355.468 L 84.4693, 347.809 L 82.453, 335.556 L 94.4491, 329.165 L 102.911, 328.729 z "/>
<path style="fill:rgb(126, 255, 98);fill-opacity:1.0;fill-rule:evenodd;stroke:rgb(0, 0, 0);stroke-width:3.0;" d="M 477.085, 380.908 L 485.27, 405.351 L 460.171, 415.851 L 467.809, 388.795 L 475.104, 378.566 z "/>
<path style="fill:rgb(249, 240, 25);fill-opacity:1.0;fill-rule:evenodd;stroke:rgb(0, 0, 0);stroke-width:3.0;" d="M 646.208, 229.442 L 602.835, 250.639 L 573.581, 224.942 L 581.701, 209.695 z "/>
<path style="fill:rgb(249, 240, 25);fill-opacity:1.0;fill-rule:evenodd;stroke:rgb(0, 0, 0);stroke-width:3.0;" d="M 673.964, 289.91 L 709.937, 329.657 L 711.401, 339.859 L 669.067, 308.817 L 657.08, 298.287 L 645.626, 283.056 z "/>
<path style="fill:rgb(255, 5, 94);fill-opacity:1.0;fill-rule:evenodd;stroke:rgb(0, 0, 0);stroke-width:3.0;" d="M 574.326, 215.534 L 575.842, 220.697 L 562.637, 245.491 L 549.729, 251.003 L 549.396, 241.117 L 556.786, 207.872 z "/>
<path style="fill:rgb(75, 35, 215);fill-opacity:1.0;fill-rule:evenodd;stroke:rgb(0, 0, 0);stroke-width:3.0;" d="M 112.717, 304.317 L 100.562, 307.499 L 91.6773, 308.274 L 110.181, 280.38 z "/>
<path style="fill:rgb(75, 35, 215);fill-opacity:1.0;fill-rule:evenodd;stroke:rgb(0, 0, 0);stroke-width:3.0;" d="M 587.495, 277.702 L 585.431, 278.202 L 566.813, 267.642 L 579.901, 263.178 z "/>
<path style="fill:rgb(75, 35, 215);fill-opacity:1.0;fill-rule:evenodd;stroke:rgb(0, 0, 0);stroke-width:3.0;" d="M 356.739, 183.795 L 345.578, 201.192 L 334.802, 204.456 L 326.83, 158.567 L 331.525, 153.772 z "/>
<path style="fill:rgb(255, 179, 69);fill-opacity:1.0;fill-rule:evenodd;stroke:rgb(0, 0, 0);stroke-width:3.0;" d="M 574.907, 373.803 L 576.088, 374.518 L 558.775, 376.861 L 555.346, 369.695 L 554.474, 364.963 z "/>
<path style="fill:rgb(44, 175, 184);fill-opacity:1.0;fill-rule:evenodd;stroke:rgb(0, 0, 0);stroke-width:3.0;" d="M 556.863, 151.668 L 432.991, 145.876 L 422.738, 135.683 L 562.962, 115.57 z "/>
<path style="fill:rgb(24, 240, 255);fill-opacity:1.0;fill-rule:evenodd;stroke:rgb(0, 0, 0);stroke-width:3.0;" d="M 594.642, 568.826 L 586.043, 565.874 L 630.101, 547.823 z "/>
<path style="fill:rgb(28, 37, 255);fill-opacity:1.0;fill-rule:evenodd;stroke:rgb(0, 0, 0);stroke-width:3.0;" d="M 425.232, 443.477 L 405.966, 455.921 L 404.535, 456.542 L 401.704, 450.739 L 403.156, 448.206 L 407.666, 443.142 z "/>
<path style="fill:rgb(8, 37, 159);fill-opacity:1.0;fill-rule:evenodd;stroke:rgb(0, 0, 0);stroke-width:3.0;" d="M 303.26, 170.214 L 303.772, 172.947 L 289.67, 174.51 L 284.558, 171.254 L 280, 165.785 L 294.771, 158.988 z "/>
<path style="fill:rgb(8, 37, 159);fill-opacity:1.0;fill-rule:evenodd;stroke:rgb(0, 0, 0);stroke-width:3.0;" d="M 594.642, 568.826 L 568.949, 584.045 L 568.036, 578.711 L 587.245, 566.286 z "/>
<path style="fill:rgb(243, 30, 47);fill-opacity:1.0;fill-rule:evenodd;stroke:rgb(0, 0, 0);stroke-width:3.0;" d="M 334.073, 142.716 L 331.821, 152.488 L 276.749, 105.109 L 308.782, 77.2334 L 322.774, 70.0195 z "/>
<path style="fill:rgb(89, 88, 255);fill-opacity:1.0;fill-rule:evenodd;stroke:rgb(0, 0, 0);stroke-width:3.0;" d="M 42.0261, 18.2135 L 40.8353, 24.5643 L 40.6867, 24.7338 L 22.4761, 30.3848 L 20.0946, 23.7247 L 35.6913, 14.1796 z "/>
<path style="fill:rgb(89, 88, 255);fill-opacity:1.0;fill-rule:evenodd;stroke:rgb(0, 0, 0);stroke-width:3.0;" d="M 725.261, 302.266 L 729.528, 314.937 L 716.345, 325.937 L 708.199, 317.553 L 704.692, 293.119 z "/>
<path style="fill:rgb(252, 23, 192);fill-opacity:1.0;fill-rule:evenodd;stroke:rgb(0, 0, 0);stroke-width:3.0;" d="M 459.814, 372.769 L 466.92, 391.944 L 463.123, 405.392 L 458.084, 407.103 L 433.375, 395.493 L 448.435, 369.223 z "/>
<path style="fill:rgb(142, 5, 223);fill-opacity:1.0;fill-rule:evenodd;stroke:rgb(0, 0, 0);stroke-width:3.0;" d="M 444.878, 311.409 L 457.51, 315.368 L 455.339, 322.31 L 452.871, 324.536 L 446.777, 323.971 L 439.023, 311.437 L 443.778, 311.192 z "/>
<path style="fill:rgb(35, 246, 255);fill-opacity:1.0;fill-rule:evenodd;stroke:rgb(0, 0, 0);stroke-width:3.0;" d="M 591.771, 118.502 L 564.581, 133.484 L 561.798, 122.46 L 571.19, 66.8701 z "/>
<path style="fill:rgb(255, 150, 6);fill-opacity:1.0;fill-rule:evenodd;stroke:rgb(0, 0, 0);stroke-width:3.0;" d="M 437.086, 257.93 L 378.182, 283.603 L 332.644, 228.958 z "/>
<path style="fill:rgb(255, 33, 255);fill-opacity:1.0;fill-rule:evenodd;stroke:rgb(0, 0, 0);stroke-width:3.0;" d="M 599.158, 72.0564 L 596.113, 73.3373 L 573.508, 53.1501 L 574.989, 44.3825 z "/>
<path style="fill:rgb(255, 25, 197);fill-opacity:1.0;fill-rule:evenodd;stroke:rgb(0, 0, 0);stroke-width:3.0;" d="M 621.361, 283.763 L 610.867, 298.984 L 606.374, 296.9 L 612.934, 275.384 z "/>
<path style="fill:rgb(255, 97, 10);fill-opacity:1.0;fill-rule:evenodd;stroke:rgb(0, 0, 0);stroke-width:3.0;" d="M 674.399, 280.549 L 675.122, 283.917 L 644.621, 281.719 L 642.259, 278.579 L 649.307, 271.213 z "/>
<path style="fill:rgb(24, 102, 217);fill-opacity:1.0;fill-rule:evenodd;stroke:rgb(0, 0, 0);stroke-width:3.0;" d="M 778.238, 387.226 L 751.146, 450.05 L 663.953, 412.327 L 667.614, 378.763 L 687.52, 342.843 z "/>
<path style="fill:rgb(255, 170, 9);fill-opacity:1.0;fill-rule:evenodd;stroke:rgb(0, 0, 0);stroke-width:3.0;" d="M 532.887, 257.166 L 527.245, 264.431 L 512.613, 257.273 L 514.029, 254.802 L 522.148, 252.103 L 529.439, 251.894 z "/>
<path style="fill:rgb(255, 74, 16);fill-opacity:1.0;fill-rule:evenodd;stroke:rgb(0, 0, 0);stroke-width:3.0;" d="M 561.748, 399.604 L 547.596, 409.647 L 541.625, 409.23 L 542.512, 407.814 L 558.574, 394.023 z "/>
<path style="fill:rgb(124, 138, 255);fill-opacity:1.0;fill-rule:evenodd;stroke:rgb(0, 0, 0);stroke-width:3.0;" d="M 526.018, 387.6 L 523.806, 404.136 L 513.179, 388.028 L 517.324, 386.003 z "/>
<path style="fill:rgb(255, 204, 7);fill-opacity:1.0;fill-rule:evenodd;stroke:rgb(0, 0, 0);stroke-width:3.0;" d="M 56.5524, 188.06 L 54.6424, 193.088 L 45.346, 185.844 L 45.2669, 171.647 L 47.4076, 170.881 z "/>
<path style="fill:rgb(215, 243, 33);fill-opacity:1.0;fill-rule:evenodd;stroke:rgb(0, 0, 0);stroke-width:3.0;" d="M 243.401, 53.4612 L 257.999, 73.4689 L 248.598, 80.8904 L 215.695, 52.5836 L 211.145, 39.3144 L 224.317, 35.6176 z "/>
<path style="fill:rgb(234, 11, 67);fill-opacity:1.0;fill-rule:evenodd;stroke:rgb(0, 0, 0);stroke-width:3.0;" d="M 685.454, 284.662 L 704.495, 291.747 L 705.32, 297.494 L 661.954, 287.005 L 664.356, 283.141 z "/>
<path style="fill:rgb(255, 71, 48);fill-opacity:1.0;fill-rule:evenodd;stroke:rgb(0, 0, 0);stroke-width:3.0;" d="M 354.161, 158.394 L 342.573, 157.185 L 347.474, 134.089 z "/>
<path style="fill:rgb(37, 154, 255);fill-opacity:1.0;fill-rule:evenodd;stroke:rgb(0, 0, 0);stroke-width:3.0;" d="M 375.277, 31.8614 L 379, 32.4642 L 372.746, 45.742 L 358.022, 47.2203 L 353.484, 31.1868 z "/>
<path style="fill:rgb(13, 246, 50);fill-opacity:1.0;fill-rule:evenodd;stroke:rgb(0, 0, 0);stroke-width:3.0;" d="M 643.659, 61.4375 L 620.305, 81.3569 L 618.268, 72.9705 L 627.437, 56.9764 L 645.188, 45.0371 z "/>
<path style="fill:rgb(89, 27, 189);fill-opacity:1.0;fill-rule:evenodd;stroke:rgb(0, 0, 0);stroke-width:3.0;" d="M 331.315, 10.6357 L 332.3, 11.5877 L 326.554, 14.2377 L 310.961, 13.9403 L 310.843, 7.35247 z "/>
<path style="fill:rgb(255, 255, 10);fill-opacity:1.0;fill-rule:evenodd;stroke:rgb(0, 0, 0);stroke-width:3.0;" d="M 30.9383, 220.746 L 18.9254, 211.537 L 24.9037, 202.431 L 31.7521, 197.436 z "/>
<path style="fill:rgb(234, 38, 22);fill-opacity:1.0;fill-rule:evenodd;stroke:rgb(0, 0, 0);stroke-width:3.0;" d="M 588.95, 31.0451 L 579.85, 45.2304 L 575.841, 45.3579 L 574.989, 44.3825 L 577.345, 30.4387 L 587.199, 26.6272 z "/>
<path style="fill:rgb(217, 150, 52);fill-opacity:1.0;fill-rule:evenodd;stroke:rgb(0, 0, 0);stroke-width:3.0;" d="M 574.382, 171.505 L 572.094, 187.702 L 563.405, 178.345 L 561.526, 171.95 L 563.397, 168.686 z "/>
<path style="fill:rgb(37, 192, 8);fill-opacity:1.0;fill-rule:evenodd;stroke:rgb(0, 0, 0);stroke-width:3.0;" d="M 722.361, 443.341 L 721.435, 445.44 L 708.808, 462.243 L 699.403, 462.223 L 715.097, 436.208 z "/>
<path style="fill:rgb(85, 70, 255);fill-opacity:1.0;fill-rule:evenodd;stroke:rgb(0, 0, 0);stroke-width:3.0;" d="M 28.2123, 298.824 L 11.1361, 320.773 L 16.9233, 301.776 L 28.2495, 297.757 z "/>
<path style="fill:rgb(217, 255, 9);fill-opacity:1.0;fill-rule:evenodd;stroke:rgb(0, 0, 0);stroke-width:3.0;" d="M 28.7557, 283.26 L 28.2495, 297.757 L 16.9233, 301.776 L 23.0828, 281.558 z "/>
<path style="fill:rgb(255, 33, 255);fill-opacity:1.0;fill-rule:evenodd;stroke:rgb(0, 0, 0);stroke-width:3.0;" d="M 100.854, 150.501 L 74.5341, 160.492 L 101.945, 132.427 z "/>
<path style="fill:rgb(255, 49, 255);fill-opacity:1.0;fill-rule:evenodd;stroke:rgb(0, 0, 0);stroke-width:3.0;" d="M 700.941, 296.435 L 700.609, 319.351 L 673.964, 289.91 z "/>
<path style="fill:rgb(209, 1, 7);fill-opacity:1.0;fill-rule:evenodd;stroke:rgb(0, 0, 0);stroke-width:3.0;" d="M 524.386, 236.737 L 518.094, 247.712 L 497.104, 266.526 L 494.812, 265.615 L 498.142, 226.736 L 510.181, 222.616 z "/>
<path style="fill:rgb(108, 223, 255);fill-opacity:1.0;fill-rule:evenodd;stroke:rgb(0, 0, 0);stroke-width:3.0;" d="M 645.188, 45.0371 L 635.866, 51.3073 L 633.865, 48.1998 L 637.01, 40.2778 L 647.307, 22.3156 z "/>
<path style="fill:rgb(234, 255, 21);fill-opacity:1.0;fill-rule:evenodd;stroke:rgb(0, 0, 0);stroke-width:3.0;" d="M 149.811, 249.357 L 94.543, 255.038 L 104.498, 90.1414 z "/>
</svg>