<?xml version="1.0" encoding="iso-8859-1" standalone="no"?>
<!DOCTYPE svg PUBLIC "-//W3C//DTD SVG 1.0//EN" "http://www.w3.org/TR/2001/REC-SVG-20010904/DTD/svg10.dtd">
<svg xmlns="http://www.w3.org/2000/svg" width="800" height="600">
<path style="fill:rgb(0, 0, 0);fill-opacity:0.0;fill-rule:evenodd;stroke:rgb(0, 0, 0);stroke-width:0.0;" d="M 0, 600 L 800, 600 L 800, 0 L 0, 0 z "/>
<path style="fill:rgb(255, 45, 107);fill-opacity:1.0;fill-rule:evenodd;stroke:rgb(0, 0, 0);stroke-width:3.0;" d="M 528.855, 330.066 L 423.483, 324.828 L 457.763, 45.7449 L 602.302, 30.5239 z "/>
<path style="fill:rgb(54, 27, 255);fill-opacity:1.0;fill-rule:evenodd;stroke:rgb(0, 0, 0);stroke-width:3.0;" d="M 232.064, 69.5128 L 213.37, 71.4814 L 207.623, 66.4295 L 222.924, 63.3711 z "/>
<path style="fill:rgb(54, 27, 255);fill-opacity:1.0;fill-rule:evenodd;stroke:rgb(0, 0, 0);stroke-width:3.0;" d="M 343.601, 362.795 L 343.839, 364.171 L 302.495, 373.213 L 299.161, 365.566 L 315.182, 351.004 z "/>
<path style="fill:rgb(54, 27, 255);fill-opacity:1.0;fill-rule:evenodd;stroke:rgb(0, 0, 0);stroke-width:3.0;" d="M 636.502, 32.8777 L 635.966, 35.9682 L 630.075, 40.0945 L 624.36, 39.2142 L 617.781, 28.8939 L 631.123, 27.4889 z "/>
<path style="fill:rgb(54, 27, 255);fill-opacity:1.0;fill-rule:evenodd;stroke:rgb(0, 0, 0);stroke-width:3.0;" d="M 617.254, 183.442 L 706.045, 256.686 L 538.008, 292.737 L 571.239, 157.21 z "/>
<path style="fill:rgb(252, 249, 16);fill-opacity:1.0;fill-rule:evenodd;stroke:rgb(0, 0, 0);stroke-width:3.0;" d="M 60.1959, 409.626 L 59.6278, 411.629 L 58.7151, 412.013 L 37.436, 386.888 L 38.3943, 372.399 z "/>
<path style="fill:rgb(252, 249, 16);fill-opacity:1.0;fill-rule:evenodd;stroke:rgb(0, 0, 0);stroke-width:3.0;" d="M 158.039, 21.7069 L 180.818, 27.2884 L 177.452, 31.638 L 105.561, 21.276 L 138.03, 18.6626 z "/>
<path style="fill:rgb(252, 249, 16);fill-opacity:1.0;fill-rule:evenodd;stroke:rgb(0, 0, 0);stroke-width:3.0;" d="M 768.469, 93.6918 L 765.067, 97.0911 L 738.722, 84.2491 L 774.43, 77.7694 z "/>
<path style="fill:rgb(252, 249, 16);fill-opacity:1.0;fill-rule:evenodd;stroke:rgb(0, 0, 0);stroke-width:3.0;" d="M 725.116, 47.2592 L 721.068, 50.0447 L 689.381, 23.1167 L 688.568, 21.4394 L 709.839, 19.1995 z "/>
<path style="fill:rgb(252, 249, 16);fill-opacity:1.0;fill-rule:evenodd;stroke:rgb(0, 0, 0);stroke-width:3.0;" d="M 765.692, 75.3655 L 763.118, 79.8221 L 738.722, 84.2491 L 730.653, 80.3161 L 730.845, 79.6572 L 739.462, 75.1103 z "/>
<path style="fill:rgb(252, 249, 16);fill-opacity:1.0;fill-rule:evenodd;stroke:rgb(0, 0, 0);stroke-width:3.0;" d="M 675.594, 452.834 L 638.439, 485.695 L 612.082, 477.599 L 634.782, 439.692 z "/>
<path style="fill:rgb(252, 249, 16);fill-opacity:1.0;fill-rule:evenodd;stroke:rgb(0, 0, 0);stroke-width:3.0;" d="M 137.929, 407.322 L 108.676, 392.812 L 122.816, 391.214 z "/>
<path style="fill:rgb(252, 249, 16);fill-opacity:1.0;fill-rule:evenodd;stroke:rgb(0, 0, 0);stroke-width:3.0;" d="M 336.917, 320.524 L 165.284, 311.992 L 191.761, 73.757 L 322.908, 59.9462 z "/>
<path style="fill:rgb(255, 234, 66);fill-opacity:1.0;fill-rule:evenodd;stroke:rgb(0, 0, 0);stroke-width:3.0;" d="M 731.699, 277.848 L 612.082, 477.599 L 572.087, 465.313 L 637.05, 271.488 L 706.045, 256.686 z "/>
<path style="fill:rgb(231, 47, 150);fill-opacity:1.0;fill-rule:evenodd;stroke:rgb(0, 0, 0);stroke-width:3.0;" d="M 177.411, 202.87 L 170.717, 263.108 L 101.45, 211.394 L 152.392, 201.558 z "/>
<path style="fill:rgb(255, 56, 25);fill-opacity:1.0;fill-rule:evenodd;stroke:rgb(0, 0, 0);stroke-width:3.0;" d="M 411.153, 497.966 L 410.425, 506.003 L 380.257, 509.96 L 332.739, 483.549 z "/>
<path style="fill:rgb(255, 56, 25);fill-opacity:1.0;fill-rule:evenodd;stroke:rgb(0, 0, 0);stroke-width:3.0;" d="M 730.061, 144.013 L 730.218, 161.368 L 720.255, 147.175 L 720.281, 138.109 z "/>
<path style="fill:rgb(255, 56, 25);fill-opacity:1.0;fill-rule:evenodd;stroke:rgb(0, 0, 0);stroke-width:3.0;" d="M 741.946, 35.6774 L 725.116, 47.2592 L 709.839, 19.1995 L 717.381, 18.4053 z "/>
<path style="fill:rgb(255, 56, 25);fill-opacity:1.0;fill-rule:evenodd;stroke:rgb(0, 0, 0);stroke-width:3.0;" d="M 743, 46.1767 L 741.935, 49.4216 L 723.685, 54.7634 L 711.203, 56.8334 L 732.849, 41.9379 z "/>
<path style="fill:rgb(255, 56, 25);fill-opacity:1.0;fill-rule:evenodd;stroke:rgb(0, 0, 0);stroke-width:3.0;" d="M 675.751, 37.101 L 671.706, 41.5075 L 666.583, 30.6724 L 671.836, 23.2015 L 680.313, 22.3088 z "/>
<path style="fill:rgb(255, 56, 25);fill-opacity:1.0;fill-rule:evenodd;stroke:rgb(0, 0, 0);stroke-width:3.0;" d="M 30.4575, 419.773 L 18.4217, 394.661 L 34.2479, 391.087 z "/>
<path style="fill:rgb(252, 179, 7);fill-opacity:1.0;fill-rule:evenodd;stroke:rgb(0, 0, 0);stroke-width:3.0;" d="M 617.865, 112.5 L 646.184, 163.231 L 608.235, 119.85 L 606.495, 101.983 z "/>
<path style="fill:rgb(252, 179, 7);fill-opacity:1.0;fill-rule:evenodd;stroke:rgb(0, 0, 0);stroke-width:3.0;" d="M 243.115, 527.559 L 242.79, 528.554 L 186.74, 482.568 L 193.189, 474.122 z "/>
<path style="fill:rgb(252, 179, 7);fill-opacity:1.0;fill-rule:evenodd;stroke:rgb(0, 0, 0);stroke-width:3.0;" d="M 772.105, 250.571 L 774.629, 264.398 L 725.872, 191.047 L 749.313, 187.719 z "/>
<path style="fill:rgb(14, 126, 255);fill-opacity:1.0;fill-rule:evenodd;stroke:rgb(0, 0, 0);stroke-width:3.0;" d="M 370.586, 511.51 L 297.645, 573.56 L 242.79, 528.554 L 266.765, 454.989 z "/>
<path style="fill:rgb(255, 144, 255);fill-opacity:1.0;fill-rule:evenodd;stroke:rgb(0, 0, 0);stroke-width:3.0;" d="M 107.336, 220.678 L 95.6854, 239.227 L 97.1604, 214.885 z "/>
<path style="fill:rgb(255, 144, 255);fill-opacity:1.0;fill-rule:evenodd;stroke:rgb(0, 0, 0);stroke-width:3.0;" d="M 31.0956, 299.137 L 128.75, 382.551 L 70.4438, 407.079 L 24.6318, 297.152 z "/>
<path style="fill:rgb(255, 94, 228);fill-opacity:1.0;fill-rule:evenodd;stroke:rgb(0, 0, 0);stroke-width:3.0;" d="M 761.011, 30.6111 L 764.261, 44.7816 L 764.432, 48.0057 L 755.679, 49.4573 L 744.125, 34.1779 L 751.988, 28.7673 z "/>
<path style="fill:rgb(255, 94, 228);fill-opacity:1.0;fill-rule:evenodd;stroke:rgb(0, 0, 0);stroke-width:3.0;" d="M 422.208, 500.768 L 414.788, 503.582 L 411.77, 491.145 L 412.022, 488.359 L 424.35, 483.171 z "/>
<path style="fill:rgb(255, 94, 228);fill-opacity:1.0;fill-rule:evenodd;stroke:rgb(0, 0, 0);stroke-width:3.0;" d="M 362.803, 142.149 L 374.071, 195.919 L 331.581, 221.282 L 322.908, 59.9462 L 326.723, 59.5444 z "/>
<path style="fill:rgb(255, 94, 228);fill-opacity:1.0;fill-rule:evenodd;stroke:rgb(0, 0, 0);stroke-width:3.0;" d="M 689.799, 31.2714 L 678.414, 53.9062 L 677.319, 52.8061 L 679.779, 34.5602 L 686.226, 24.4454 z "/>
<path style="fill:rgb(240, 128, 14);fill-opacity:1.0;fill-rule:evenodd;stroke:rgb(0, 0, 0);stroke-width:3.0;" d="M 413.472, 472.329 L 413.384, 473.306 L 359.322, 463.587 L 364.136, 460.688 z "/>
<path style="fill:rgb(240, 128, 14);fill-opacity:1.0;fill-rule:evenodd;stroke:rgb(0, 0, 0);stroke-width:3.0;" d="M 429.453, 172.88 L 428.954, 190.773 L 393.085, 171.758 L 399.982, 159.546 z "/>
<path style="fill:rgb(240, 128, 14);fill-opacity:1.0;fill-rule:evenodd;stroke:rgb(0, 0, 0);stroke-width:3.0;" d="M 170.717, 263.108 L 167.501, 292.042 L 105.349, 294.708 L 104.904, 292.803 L 153.708, 250.41 z "/>
<path style="fill:rgb(255, 24, 136);fill-opacity:1.0;fill-rule:evenodd;stroke:rgb(0, 0, 0);stroke-width:3.0;" d="M 283.655, 456.267 L 303.57, 467.336 L 304.529, 475.548 L 253.059, 447.527 L 250.172, 444.077 L 253.298, 443.584 z "/>
<path style="fill:rgb(255, 24, 136);fill-opacity:1.0;fill-rule:evenodd;stroke:rgb(0, 0, 0);stroke-width:3.0;" d="M 87.4868, 449.078 L 84.0768, 451.741 L 17.4565, 429.37 L 62.1049, 410.587 z "/>
<path style="fill:rgb(234, 146, 150);fill-opacity:1.0;fill-rule:evenodd;stroke:rgb(0, 0, 0);stroke-width:3.0;" d="M 436.001, 124.468 L 390.635, 130.677 L 437.197, 88.7251 z "/>
<path style="fill:rgb(234, 146, 150);fill-opacity:1.0;fill-rule:evenodd;stroke:rgb(0, 0, 0);stroke-width:3.0;" d="M 266.765, 454.989 L 252.507, 498.74 L 207.775, 489.734 L 204.987, 486.749 L 259.547, 451.059 z "/>
<path style="fill:rgb(234, 146, 150);fill-opacity:1.0;fill-rule:evenodd;stroke:rgb(0, 0, 0);stroke-width:3.0;" d="M 614.891, 337.604 L 585, 426.786 L 525.882, 342.189 L 530.976, 321.415 z "/>
<path style="fill:rgb(234, 146, 150);fill-opacity:1.0;fill-rule:evenodd;stroke:rgb(0, 0, 0);stroke-width:3.0;" d="M 33.0859, 439.021 L 19.8605, 454.487 L 16.4055, 437.004 z "/>
<path style="fill:rgb(220, 199, 194);fill-opacity:1.0;fill-rule:evenodd;stroke:rgb(0, 0, 0);stroke-width:3.0;" d="M 429.419, 276.5 L 427.677, 290.68 L 411.311, 253.21 L 419.562, 249.65 z "/>
<path style="fill:rgb(52, 252, 255);fill-opacity:1.0;fill-rule:evenodd;stroke:rgb(0, 0, 0);stroke-width:3.0;" d="M 70.4438, 407.079 L 61.0247, 411.042 L 37.5511, 370.959 L 43.4678, 342.349 z "/>
<path style="fill:rgb(85, 54, 202);fill-opacity:1.0;fill-rule:evenodd;stroke:rgb(0, 0, 0);stroke-width:3.0;" d="M 617.45, 329.967 L 614.891, 337.604 L 530.976, 321.415 L 538.008, 292.737 L 538.537, 292.624 z "/>
<path style="fill:rgb(85, 54, 202);fill-opacity:1.0;fill-rule:evenodd;stroke:rgb(0, 0, 0);stroke-width:3.0;" d="M 721.068, 50.0447 L 711.203, 56.8334 L 703.819, 58.058 L 684.857, 21.8303 L 687.536, 21.5482 z "/>
<path style="fill:rgb(61, 252, 187);fill-opacity:1.0;fill-rule:evenodd;stroke:rgb(0, 0, 0);stroke-width:3.0;" d="M 344.355, 395.361 L 195.06, 439.191 L 117.1, 372.599 L 146.922, 334.715 z "/>
<path style="fill:rgb(255, 192, 10);fill-opacity:1.0;fill-rule:evenodd;stroke:rgb(0, 0, 0);stroke-width:3.0;" d="M 526.943, 337.86 L 358.209, 374.677 L 384.408, 341.33 L 528.367, 332.053 z "/>
<path style="fill:rgb(255, 192, 10);fill-opacity:1.0;fill-rule:evenodd;stroke:rgb(0, 0, 0);stroke-width:3.0;" d="M 682.979, 111.408 L 679.399, 112.204 L 667.327, 95.76 L 671.987, 89.1285 z "/>
<path style="fill:rgb(255, 192, 10);fill-opacity:1.0;fill-rule:evenodd;stroke:rgb(0, 0, 0);stroke-width:3.0;" d="M 355.21, 466.064 L 341.768, 474.16 L 322.876, 467.803 L 327.105, 437.086 L 333.384, 435.643 z "/>
<path style="fill:rgb(255, 192, 10);fill-opacity:1.0;fill-rule:evenodd;stroke:rgb(0, 0, 0);stroke-width:3.0;" d="M 629.062, 92.9199 L 610.167, 91.4897 L 598.595, 77.9793 L 593.086, 68.1102 L 596.067, 55.9514 z "/>
<path style="fill:rgb(255, 192, 10);fill-opacity:1.0;fill-rule:evenodd;stroke:rgb(0, 0, 0);stroke-width:3.0;" d="M 419.161, 225.066 L 398.154, 223.086 L 389.277, 202.762 L 393.565, 191.847 z "/>
<path style="fill:rgb(246, 27, 194);fill-opacity:1.0;fill-rule:evenodd;stroke:rgb(0, 0, 0);stroke-width:3.0;" d="M 81.99, 314.77 L 89.8984, 325.141 L 84.146, 323.444 L 63.8461, 309.765 L 63.8794, 309.207 z "/>
<path style="fill:rgb(246, 27, 194);fill-opacity:1.0;fill-rule:evenodd;stroke:rgb(0, 0, 0);stroke-width:3.0;" d="M 670.757, 42.5406 L 658.715, 55.658 L 653.153, 52.8878 L 653.519, 36.7302 z "/>
<path style="fill:rgb(246, 27, 194);fill-opacity:1.0;fill-rule:evenodd;stroke:rgb(0, 0, 0);stroke-width:3.0;" d="M 444.67, 58.4184 L 439.239, 61.7103 L 399.226, 64.9727 L 393.412, 52.5216 L 453.133, 46.2325 z "/>
<path style="fill:rgb(246, 27, 194);fill-opacity:1.0;fill-rule:evenodd;stroke:rgb(0, 0, 0);stroke-width:3.0;" d="M 427.561, 229.018 L 420.118, 226.309 L 391.189, 188.763 L 393.645, 181.634 z "/>
<path style="fill:rgb(62, 249, 67);fill-opacity:1.0;fill-rule:evenodd;stroke:rgb(0, 0, 0);stroke-width:3.0;" d="M 58.7151, 412.013 L 29.88, 424.144 L 30.6891, 418.02 L 48.2451, 399.651 z "/>
<path style="fill:rgb(62, 249, 67);fill-opacity:1.0;fill-rule:evenodd;stroke:rgb(0, 0, 0);stroke-width:3.0;" d="M 107.278, 414.583 L 74.1194, 405.533 L 97.0566, 395.884 z "/>
<path style="fill:rgb(255, 94, 12);fill-opacity:1.0;fill-rule:evenodd;stroke:rgb(0, 0, 0);stroke-width:3.0;" d="M 747.704, 187.948 L 734.019, 189.89 L 710.632, 135.155 z "/>
<path style="fill:rgb(255, 94, 12);fill-opacity:1.0;fill-rule:evenodd;stroke:rgb(0, 0, 0);stroke-width:3.0;" d="M 296.622, 329.656 L 296.796, 331.695 L 289.761, 345.175 L 266.776, 348.251 L 265.788, 346.15 L 272.757, 338.527 L 289.753, 328.632 z "/>
<path style="fill:rgb(255, 94, 12);fill-opacity:1.0;fill-rule:evenodd;stroke:rgb(0, 0, 0);stroke-width:3.0;" d="M 427.677, 290.68 L 423.483, 324.828 L 336.917, 320.524 L 331.581, 221.282 L 383.761, 190.134 z "/>
<path style="fill:rgb(255, 94, 12);fill-opacity:1.0;fill-rule:evenodd;stroke:rgb(0, 0, 0);stroke-width:3.0;" d="M 243.896, 341.56 L 245.197, 351.138 L 240.237, 351.801 L 229.36, 338.282 L 230.881, 337.548 z "/>
<path style="fill:rgb(255, 94, 12);fill-opacity:1.0;fill-rule:evenodd;stroke:rgb(0, 0, 0);stroke-width:3.0;" d="M 696.397, 93.7926 L 691.729, 100.085 L 690.517, 99.6797 L 670.376, 75.5456 L 688.149, 74.3473 z "/>
<path style="fill:rgb(255, 94, 12);fill-opacity:1.0;fill-rule:evenodd;stroke:rgb(0, 0, 0);stroke-width:3.0;" d="M 298.66, 43.1021 L 297.134, 49.5172 L 279.349, 64.0247 L 276.928, 62.9777 L 286.369, 41.232 z "/>
<path style="fill:rgb(49, 209, 212);fill-opacity:1.0;fill-rule:evenodd;stroke:rgb(0, 0, 0);stroke-width:3.0;" d="M 268.313, 40.3205 L 265.839, 58.1823 L 249.148, 50.9648 L 257.508, 37.4395 z "/>
<path style="fill:rgb(49, 209, 212);fill-opacity:1.0;fill-rule:evenodd;stroke:rgb(0, 0, 0);stroke-width:3.0;" d="M 757.469, 160.559 L 708.12, 130.767 L 701.221, 120.653 L 731.822, 111.56 z "/>
<path style="fill:rgb(49, 209, 212);fill-opacity:1.0;fill-rule:evenodd;stroke:rgb(0, 0, 0);stroke-width:3.0;" d="M 115.568, 416.846 L 119.24, 424.277 L 87.4868, 449.078 L 63.3299, 412.445 L 96.7767, 411.717 z "/>
<path style="fill:rgb(212, 0, 62);fill-opacity:1.0;fill-rule:evenodd;stroke:rgb(0, 0, 0);stroke-width:3.0;" d="M 414.683, 416.964 L 295.415, 444.367 L 330.981, 399.287 L 344.355, 395.361 z "/>
<path style="fill:rgb(212, 0, 62);fill-opacity:1.0;fill-rule:evenodd;stroke:rgb(0, 0, 0);stroke-width:3.0;" d="M 410.2, 180.831 L 427.854, 215.823 L 390.558, 170.419 z "/>
<path style="fill:rgb(212, 0, 62);fill-opacity:1.0;fill-rule:evenodd;stroke:rgb(0, 0, 0);stroke-width:3.0;" d="M 791.667, 532.762 L 769.249, 578.827 L 754.858, 543.537 L 763.991, 524.26 z "/>
<path style="fill:rgb(212, 0, 62);fill-opacity:1.0;fill-rule:evenodd;stroke:rgb(0, 0, 0);stroke-width:3.0;" d="M 661.137, 180.323 L 666.309, 186.236 L 676.866, 232.616 L 613.045, 179.97 z "/>
<path style="fill:rgb(252, 36, 27);fill-opacity:1.0;fill-rule:evenodd;stroke:rgb(0, 0, 0);stroke-width:3.0;" d="M 84.0768, 451.741 L 48.9935, 479.142 L 24.8607, 448.639 L 36.0111, 435.601 z "/>
<path style="fill:rgb(255, 252, 42);fill-opacity:1.0;fill-rule:evenodd;stroke:rgb(0, 0, 0);stroke-width:3.0;" d="M 187.465, 432.704 L 157.1, 429.793 L 156.231, 406.025 z "/>
<path style="fill:rgb(255, 252, 42);fill-opacity:1.0;fill-rule:evenodd;stroke:rgb(0, 0, 0);stroke-width:3.0;" d="M 399.982, 159.546 L 393.085, 171.758 L 388.536, 169.347 L 371.049, 148.323 L 372.429, 147.08 z "/>
<path style="fill:rgb(255, 252, 42);fill-opacity:1.0;fill-rule:evenodd;stroke:rgb(0, 0, 0);stroke-width:3.0;" d="M 736.092, 515.691 L 726.976, 518.309 L 450.64, 549.079 L 380.257, 509.96 L 616.538, 478.967 z "/>
<path style="fill:rgb(107, 255, 255);fill-opacity:1.0;fill-rule:evenodd;stroke:rgb(0, 0, 0);stroke-width:3.0;" d="M 181.145, 461.231 L 187.781, 481.204 L 186.74, 482.568 L 156.032, 457.374 L 169.875, 449.169 z "/>
<path style="fill:rgb(107, 255, 255);fill-opacity:1.0;fill-rule:evenodd;stroke:rgb(0, 0, 0);stroke-width:3.0;" d="M 322.876, 467.803 L 276.081, 452.057 L 271.946, 449.759 L 327.105, 437.086 z "/>
<path style="fill:rgb(107, 255, 255);fill-opacity:1.0;fill-rule:evenodd;stroke:rgb(0, 0, 0);stroke-width:3.0;" d="M 146.922, 334.715 L 137.423, 346.782 L 132.159, 332.983 L 137.487, 331.817 z "/>
<path style="fill:rgb(255, 22, 192);fill-opacity:1.0;fill-rule:evenodd;stroke:rgb(0, 0, 0);stroke-width:3.0;" d="M 337.498, 393.255 L 291.864, 379.237 L 338.554, 374.636 z "/>
<path style="fill:rgb(255, 22, 192);fill-opacity:1.0;fill-rule:evenodd;stroke:rgb(0, 0, 0);stroke-width:3.0;" d="M 147.84, 78.3821 L 33.5336, 90.4195 L 73.2027, 80.6732 L 147.734, 73.7925 z "/>
<path style="fill:rgb(255, 22, 192);fill-opacity:1.0;fill-rule:evenodd;stroke:rgb(0, 0, 0);stroke-width:3.0;" d="M 389.293, 170.257 L 395.142, 177.29 L 391.189, 188.763 L 375.652, 168.6 z "/>
<path style="fill:rgb(105, 150, 177);fill-opacity:1.0;fill-rule:evenodd;stroke:rgb(0, 0, 0);stroke-width:3.0;" d="M 435.627, 225.964 L 428.874, 217.845 L 423.159, 206.517 L 438.103, 205.801 z "/>
<path style="fill:rgb(105, 150, 177);fill-opacity:1.0;fill-rule:evenodd;stroke:rgb(0, 0, 0);stroke-width:3.0;" d="M 259.169, 442.657 L 252.654, 443.685 L 228.675, 432.529 L 227.987, 429.524 L 232.93, 428.073 z "/>
<path style="fill:rgb(252, 255, 217);fill-opacity:1.0;fill-rule:evenodd;stroke:rgb(0, 0, 0);stroke-width:3.0;" d="M 785.443, 214.006 L 783.054, 221.786 L 767.862, 217.524 L 771.471, 207.9 L 780.037, 203.677 z "/>
<path style="fill:rgb(252, 255, 217);fill-opacity:1.0;fill-rule:evenodd;stroke:rgb(0, 0, 0);stroke-width:3.0;" d="M 617.45, 329.967 L 538.537, 292.624 L 637.05, 271.488 z "/>
<path style="fill:rgb(252, 255, 217);fill-opacity:1.0;fill-rule:evenodd;stroke:rgb(0, 0, 0);stroke-width:3.0;" d="M 763.776, 248.07 L 771.146, 259.157 L 760.182, 252.262 L 738.621, 218.443 z "/>
<path style="fill:rgb(62, 182, 255);fill-opacity:1.0;fill-rule:evenodd;stroke:rgb(0, 0, 0);stroke-width:3.0;" d="M 128.417, 551.743 L 87.5113, 536.576 L 87.7133, 536.058 L 110.677, 520.081 z "/>
<path style="fill:rgb(62, 182, 255);fill-opacity:1.0;fill-rule:evenodd;stroke:rgb(0, 0, 0);stroke-width:3.0;" d="M 699.181, 117.662 L 689.657, 119.621 L 677.916, 112.533 L 693.344, 109.106 z "/>
<path style="fill:rgb(10, 124, 255);fill-opacity:1.0;fill-rule:evenodd;stroke:rgb(0, 0, 0);stroke-width:3.0;" d="M 226.924, 336.328 L 228.765, 340.811 L 155.208, 337.261 L 145.541, 334.291 L 148.727, 312.219 z "/>
<path style="fill:rgb(10, 124, 255);fill-opacity:1.0;fill-rule:evenodd;stroke:rgb(0, 0, 0);stroke-width:3.0;" d="M 640.28, 27.4603 L 652.217, 40.1167 L 650.271, 49.2565 L 639.845, 41.0846 L 636.266, 34.2371 L 637.554, 26.8117 L 638.617, 26.6997 z "/>
<path style="fill:rgb(10, 124, 255);fill-opacity:1.0;fill-rule:evenodd;stroke:rgb(0, 0, 0);stroke-width:3.0;" d="M 98.9362, 499.125 L 87.5721, 504.047 L 85.8388, 500.235 L 83.2959, 485.106 L 86.1784, 476.355 z "/>
<path style="fill:rgb(10, 124, 255);fill-opacity:1.0;fill-rule:evenodd;stroke:rgb(0, 0, 0);stroke-width:3.0;" d="M 310.881, 424.764 L 295.415, 444.367 L 271.946, 449.759 L 244.622, 434.572 L 260.692, 419.923 L 279.533, 414.391 z "/>
<path style="fill:rgb(10, 124, 255);fill-opacity:1.0;fill-rule:evenodd;stroke:rgb(0, 0, 0);stroke-width:3.0;" d="M 211.007, 316.9 L 200.855, 325.149 L 182.926, 321.407 L 199.149, 315.133 z "/>
<path style="fill:rgb(10, 124, 255);fill-opacity:1.0;fill-rule:evenodd;stroke:rgb(0, 0, 0);stroke-width:3.0;" d="M 741.457, 214.493 L 763.776, 248.07 L 738.621, 218.443 L 734.377, 211.785 z "/>
<path style="fill:rgb(10, 124, 255);fill-opacity:1.0;fill-rule:evenodd;stroke:rgb(0, 0, 0);stroke-width:3.0;" d="M 30.4575, 419.773 L 29.88, 424.144 L 23.8644, 426.674 L 9.7451, 418.047 L 7.56844, 414.742 L 26.6793, 411.89 z "/>
<path style="fill:rgb(255, 4, 74);fill-opacity:1.0;fill-rule:evenodd;stroke:rgb(0, 0, 0);stroke-width:3.0;" d="M 501.043, 443.491 L 483.021, 437.955 L 418.152, 361.598 L 526.943, 337.86 z "/>
<path style="fill:rgb(17, 255, 255);fill-opacity:1.0;fill-rule:evenodd;stroke:rgb(0, 0, 0);stroke-width:3.0;" d="M 251.667, 52.0542 L 256.118, 66.9796 L 255.645, 67.0295 L 241.703, 58.0281 L 248.091, 50.5079 z "/>
<path style="fill:rgb(17, 255, 255);fill-opacity:1.0;fill-rule:evenodd;stroke:rgb(0, 0, 0);stroke-width:3.0;" d="M 93.8187, 517.788 L 57.0987, 553.141 L 37.3694, 536.265 L 74.8571, 476.079 z "/>
<path style="fill:rgb(35, 228, 228);fill-opacity:1.0;fill-rule:evenodd;stroke:rgb(0, 0, 0);stroke-width:3.0;" d="M 782.021, 30.1093 L 763.422, 28.9584 L 763.056, 22.0584 L 787.77, 20.4169 z "/>
<path style="fill:rgb(35, 228, 228);fill-opacity:1.0;fill-rule:evenodd;stroke:rgb(0, 0, 0);stroke-width:3.0;" d="M 605.333, 90.0499 L 608.235, 119.85 L 587.935, 96.6446 L 602.291, 84.6002 z "/>
<path style="fill:rgb(35, 228, 228);fill-opacity:1.0;fill-rule:evenodd;stroke:rgb(0, 0, 0);stroke-width:3.0;" d="M 613.874, 35.4866 L 608.306, 39.2212 L 600.857, 36.4154 L 602.302, 30.5239 L 616.878, 28.9889 z "/>
<path style="fill:rgb(35, 228, 228);fill-opacity:1.0;fill-rule:evenodd;stroke:rgb(0, 0, 0);stroke-width:3.0;" d="M 165.284, 311.992 L 132.775, 310.376 L 132.099, 307.947 L 165.836, 307.025 z "/>
<path style="fill:rgb(35, 228, 228);fill-opacity:1.0;fill-rule:evenodd;stroke:rgb(0, 0, 0);stroke-width:3.0;" d="M 616.538, 478.967 L 571.985, 484.811 L 543.344, 463.075 L 545.754, 457.225 z "/>
<path style="fill:rgb(255, 255, 23);fill-opacity:1.0;fill-rule:evenodd;stroke:rgb(0, 0, 0);stroke-width:3.0;" d="M 611.656, 123.76 L 622.058, 135.651 L 598.902, 127.592 L 598.834, 127.481 L 600.401, 119.494 z "/>
<path style="fill:rgb(255, 255, 23);fill-opacity:1.0;fill-rule:evenodd;stroke:rgb(0, 0, 0);stroke-width:3.0;" d="M 301.369, 363.559 L 275.024, 363.291 L 278.703, 346.655 L 327.09, 340.181 z "/>
<path style="fill:rgb(255, 255, 23);fill-opacity:1.0;fill-rule:evenodd;stroke:rgb(0, 0, 0);stroke-width:3.0;" d="M 418.279, 105.77 L 367.066, 151.911 L 336.944, 82.9451 L 393.627, 52.9814 z "/>
<path style="fill:rgb(75, 234, 255);fill-opacity:1.0;fill-rule:evenodd;stroke:rgb(0, 0, 0);stroke-width:3.0;" d="M 629.44, 47.182 L 706.379, 167.868 L 705.242, 178.275 L 604.145, 65.0024 L 626.426, 46.0469 z "/>
<path style="fill:rgb(255, 204, 52);fill-opacity:1.0;fill-rule:evenodd;stroke:rgb(0, 0, 0);stroke-width:3.0;" d="M 787.122, 20.4599 L 763.056, 22.0584 L 763.036, 21.6842 L 767.193, 13.1597 L 783.982, 11.3917 z "/>
<path style="fill:rgb(255, 204, 52);fill-opacity:1.0;fill-rule:evenodd;stroke:rgb(0, 0, 0);stroke-width:3.0;" d="M 45.3684, 523.423 L 26.1051, 521.696 L 9.2814, 498.749 L 61.2143, 497.982 z "/>
<path style="fill:rgb(231, 249, 48);fill-opacity:1.0;fill-rule:evenodd;stroke:rgb(0, 0, 0);stroke-width:3.0;" d="M 780.037, 203.677 L 775.23, 206.047 L 773.341, 202.716 L 767.386, 188.256 L 767.548, 185.131 L 770.137, 184.764 z "/>
<path style="fill:rgb(231, 249, 48);fill-opacity:1.0;fill-rule:evenodd;stroke:rgb(0, 0, 0);stroke-width:3.0;" d="M 428.747, 237.506 L 407.261, 243.936 L 404.653, 237.966 L 424.388, 231.849 z "/>
<path style="fill:rgb(252, 255, 21);fill-opacity:1.0;fill-rule:evenodd;stroke:rgb(0, 0, 0);stroke-width:3.0;" d="M 552.155, 568.522 L 485.969, 545.145 L 726.976, 518.309 z "/>
<path style="fill:rgb(252, 255, 21);fill-opacity:1.0;fill-rule:evenodd;stroke:rgb(0, 0, 0);stroke-width:3.0;" d="M 326.324, 334.081 L 311.069, 339.572 L 297.314, 337.788 L 297.238, 336.89 L 300.21, 330.19 z "/>
<path style="fill:rgb(252, 255, 21);fill-opacity:1.0;fill-rule:evenodd;stroke:rgb(0, 0, 0);stroke-width:3.0;" d="M 383.761, 190.134 L 374.071, 195.919 L 362.803, 142.149 z "/>
<path style="fill:rgb(252, 255, 21);fill-opacity:1.0;fill-rule:evenodd;stroke:rgb(0, 0, 0);stroke-width:3.0;" d="M 37.6544, 11.4882 L 52.2361, 44.7608 L 46.8826, 49.3718 L 19.095, 8.81309 z "/>
<path style="fill:rgb(252, 255, 21);fill-opacity:1.0;fill-rule:evenodd;stroke:rgb(0, 0, 0);stroke-width:3.0;" d="M 36.8258, 58.0338 L 24.5715, 68.5885 L 23.8652, 50.2282 z "/>
<path style="fill:rgb(252, 255, 21);fill-opacity:1.0;fill-rule:evenodd;stroke:rgb(0, 0, 0);stroke-width:3.0;" d="M 218.941, 37.6181 L 193.576, 54.0819 L 181.106, 43.1196 L 181.602, 32.2361 z "/>
<path style="fill:rgb(255, 237, 44);fill-opacity:1.0;fill-rule:evenodd;stroke:rgb(0, 0, 0);stroke-width:3.0;" d="M 769.164, 59.4384 L 764.163, 62.0774 L 736.594, 63.4024 L 755.242, 49.9399 z "/>
<path style="fill:rgb(255, 199, 11);fill-opacity:1.0;fill-rule:evenodd;stroke:rgb(0, 0, 0);stroke-width:3.0;" d="M 61.2143, 497.982 L 46.6574, 498.197 L 65.5641, 477.208 L 76.0758, 474.122 z "/>
<path style="fill:rgb(255, 199, 11);fill-opacity:1.0;fill-rule:evenodd;stroke:rgb(0, 0, 0);stroke-width:3.0;" d="M 102.951, 510.622 L 100.212, 527.362 L 87.7133, 536.058 L 95.4629, 516.205 L 102.508, 509.422 z "/>
<path style="fill:rgb(255, 199, 11);fill-opacity:1.0;fill-rule:evenodd;stroke:rgb(0, 0, 0);stroke-width:3.0;" d="M 653.156, 52.7449 L 652.976, 60.715 L 633.882, 47.9851 L 634.847, 42.4232 z "/>
<path style="fill:rgb(249, 197, 13);fill-opacity:1.0;fill-rule:evenodd;stroke:rgb(0, 0, 0);stroke-width:3.0;" d="M 784.159, 30.2416 L 764.111, 41.946 L 763.422, 28.9584 z "/>
<path style="fill:rgb(249, 197, 13);fill-opacity:1.0;fill-rule:evenodd;stroke:rgb(0, 0, 0);stroke-width:3.0;" d="M 700.039, 61.8369 L 681.928, 46.9189 L 687.954, 34.9383 z "/>
<path style="fill:rgb(249, 197, 13);fill-opacity:1.0;fill-rule:evenodd;stroke:rgb(0, 0, 0);stroke-width:3.0;" d="M 34.7239, 321.368 L 34.4802, 365.715 L 15.3649, 333.075 L 25.5641, 317.328 L 32.2428, 315.414 z "/>
<path style="fill:rgb(7, 4, 209);fill-opacity:1.0;fill-rule:evenodd;stroke:rgb(0, 0, 0);stroke-width:3.0;" d="M 165.836, 307.025 L 132.099, 307.947 L 128.138, 293.73 L 167.501, 292.042 z "/>
<path style="fill:rgb(7, 4, 209);fill-opacity:1.0;fill-rule:evenodd;stroke:rgb(0, 0, 0);stroke-width:3.0;" d="M 124.468, 265.63 L 115.613, 283.501 L 115.476, 283.62 L 118.733, 254.223 z "/>
<path style="fill:rgb(7, 4, 209);fill-opacity:1.0;fill-rule:evenodd;stroke:rgb(0, 0, 0);stroke-width:3.0;" d="M 143.811, 201.107 L 136.967, 204.536 L 121.813, 207.462 L 106.747, 199.625 L 106.443, 199.147 z "/>
<path style="fill:rgb(78, 255, 252);fill-opacity:1.0;fill-rule:evenodd;stroke:rgb(0, 0, 0);stroke-width:3.0;" d="M 596.948, 89.0832 L 587.935, 96.6446 L 586.493, 94.9962 L 592.923, 68.7752 z "/>
<path style="fill:rgb(78, 255, 252);fill-opacity:1.0;fill-rule:evenodd;stroke:rgb(0, 0, 0);stroke-width:3.0;" d="M 766.868, 97.9691 L 761.687, 111.808 L 734.588, 103.458 L 758.858, 94.0645 z "/>
<path style="fill:rgb(78, 255, 252);fill-opacity:1.0;fill-rule:evenodd;stroke:rgb(0, 0, 0);stroke-width:3.0;" d="M 434.089, 224.116 L 426.294, 227.247 L 393.645, 181.634 L 395.142, 177.29 z "/>
<path style="fill:rgb(197, 146, 56);fill-opacity:1.0;fill-rule:evenodd;stroke:rgb(0, 0, 0);stroke-width:3.0;" d="M 48.9935, 479.142 L 45.1401, 482.152 L 33.744, 486.55 L 26.611, 488.644 L 24.6396, 478.669 L 37.3897, 464.476 z "/>
<path style="fill:rgb(197, 146, 56);fill-opacity:1.0;fill-rule:evenodd;stroke:rgb(0, 0, 0);stroke-width:3.0;" d="M 454.386, 73.2372 L 418.279, 105.77 L 414.697, 98.0994 L 455.041, 67.9116 z "/>
<path style="fill:rgb(138, 47, 255);fill-opacity:1.0;fill-rule:evenodd;stroke:rgb(0, 0, 0);stroke-width:3.0;" d="M 571.985, 484.811 L 549.719, 487.732 L 539.925, 482.883 L 547.512, 466.239 z "/>
<path style="fill:rgb(255, 255, 24);fill-opacity:1.0;fill-rule:evenodd;stroke:rgb(0, 0, 0);stroke-width:3.0;" d="M 137.333, 346.896 L 117.1, 372.599 L 81.1529, 341.895 L 87.0425, 336.156 z "/>
<path style="fill:rgb(255, 255, 24);fill-opacity:1.0;fill-rule:evenodd;stroke:rgb(0, 0, 0);stroke-width:3.0;" d="M 128.417, 551.743 L 135.072, 563.62 L 67.6986, 578.429 L 52.4444, 557.622 L 77.9767, 533.04 z "/>
<path style="fill:rgb(255, 37, 102);fill-opacity:1.0;fill-rule:evenodd;stroke:rgb(0, 0, 0);stroke-width:3.0;" d="M 124.186, 400.505 L 126.676, 410.584 L 112.708, 407.327 L 110.27, 399.626 L 121.537, 399.191 z "/>
<path style="fill:rgb(255, 37, 102);fill-opacity:1.0;fill-rule:evenodd;stroke:rgb(0, 0, 0);stroke-width:3.0;" d="M 252.507, 498.74 L 243.115, 527.559 L 207.775, 489.734 z "/>
<path style="fill:rgb(255, 237, 21);fill-opacity:1.0;fill-rule:evenodd;stroke:rgb(0, 0, 0);stroke-width:3.0;" d="M 702.243, 63.6522 L 677.473, 55.7766 L 681.928, 46.9189 z "/>
<path style="fill:rgb(255, 237, 21);fill-opacity:1.0;fill-rule:evenodd;stroke:rgb(0, 0, 0);stroke-width:3.0;" d="M 301.369, 363.559 L 287.024, 376.597 L 284.83, 377.077 L 272.793, 373.379 L 275.024, 363.291 z "/>
<path style="fill:rgb(255, 237, 21);fill-opacity:1.0;fill-rule:evenodd;stroke:rgb(0, 0, 0);stroke-width:3.0;" d="M 156.231, 406.025 L 157.843, 450.117 L 42.9811, 483.838 L 149.725, 400.467 z "/>
<path style="fill:rgb(249, 29, 16);fill-opacity:1.0;fill-rule:evenodd;stroke:rgb(0, 0, 0);stroke-width:3.0;" d="M 188.94, 99.139 L 150.174, 78.1363 L 191.761, 73.757 z "/>
<path style="fill:rgb(249, 29, 16);fill-opacity:1.0;fill-rule:evenodd;stroke:rgb(0, 0, 0);stroke-width:3.0;" d="M 234.642, 332.2 L 242.215, 339.108 L 239.214, 340.116 L 180.975, 322.162 L 182.926, 321.407 z "/>
<path style="fill:rgb(255, 255, 25);fill-opacity:1.0;fill-rule:evenodd;stroke:rgb(0, 0, 0);stroke-width:3.0;" d="M 228.765, 340.811 L 233.64, 352.684 L 213.981, 355.314 L 155.208, 337.261 z "/>
<path style="fill:rgb(255, 15, 13);fill-opacity:1.0;fill-rule:evenodd;stroke:rgb(0, 0, 0);stroke-width:3.0;" d="M 180.82, 548.057 L 141.2, 574.557 L 93.098, 488.705 z "/>
<path style="fill:rgb(255, 15, 13);fill-opacity:1.0;fill-rule:evenodd;stroke:rgb(0, 0, 0);stroke-width:3.0;" d="M 614.58, 153.246 L 590.871, 156.188 L 581.943, 113.555 L 584.342, 103.769 z "/>
<path style="fill:rgb(255, 15, 13);fill-opacity:1.0;fill-rule:evenodd;stroke:rgb(0, 0, 0);stroke-width:3.0;" d="M 539.552, 472.278 L 532.241, 490.024 L 504.107, 493.715 L 364.136, 460.688 L 375.837, 453.64 z "/>
<path style="fill:rgb(237, 11, 81);fill-opacity:1.0;fill-rule:evenodd;stroke:rgb(0, 0, 0);stroke-width:3.0;" d="M 97.5485, 208.481 L 95.6854, 239.227 L 93.2806, 243.056 L 84.8383, 206.924 L 88.128, 201.448 z "/>
<path style="fill:rgb(237, 11, 81);fill-opacity:1.0;fill-rule:evenodd;stroke:rgb(0, 0, 0);stroke-width:3.0;" d="M 670.055, 38.0163 L 671.706, 41.5075 L 670.757, 42.5406 L 653.519, 36.7302 L 653.782, 25.1027 L 656.168, 24.8515 z "/>
<path style="fill:rgb(237, 11, 81);fill-opacity:1.0;fill-rule:evenodd;stroke:rgb(0, 0, 0);stroke-width:3.0;" d="M 545.754, 457.225 L 539.552, 472.278 L 375.837, 453.64 L 429.284, 421.448 z "/>
<path style="fill:rgb(237, 30, 8);fill-opacity:1.0;fill-rule:evenodd;stroke:rgb(0, 0, 0);stroke-width:3.0;" d="M 413.384, 473.306 L 411.153, 497.966 L 377.593, 491.795 L 387.258, 468.609 z "/>
<path style="fill:rgb(237, 30, 8);fill-opacity:1.0;fill-rule:evenodd;stroke:rgb(0, 0, 0);stroke-width:3.0;" d="M 103.935, 508.048 L 93.8187, 517.788 L 87.5721, 504.047 L 98.9362, 499.125 z "/>
<path style="fill:rgb(255, 52, 249);fill-opacity:1.0;fill-rule:evenodd;stroke:rgb(0, 0, 0);stroke-width:3.0;" d="M 784.688, 321.559 L 676.866, 232.616 L 671.194, 207.696 L 684.634, 207.184 z "/>
<path style="fill:rgb(61, 1, 255);fill-opacity:1.0;fill-rule:evenodd;stroke:rgb(0, 0, 0);stroke-width:3.0;" d="M 493.422, 24.1744 L 473.664, 29.2938 L 474.603, 6.91448 z "/>
<path style="fill:rgb(85, 100, 255);fill-opacity:1.0;fill-rule:evenodd;stroke:rgb(0, 0, 0);stroke-width:3.0;" d="M 362.193, 321.781 L 363.656, 335.289 L 348.258, 337.349 L 184.467, 312.946 z "/>
<path style="fill:rgb(215, 37, 91);fill-opacity:1.0;fill-rule:evenodd;stroke:rgb(0, 0, 0);stroke-width:3.0;" d="M 777.533, 220.237 L 781.014, 228.431 L 777.833, 238.793 L 766.662, 220.751 L 766.648, 220.677 L 767.509, 217.425 z "/>
<path style="fill:rgb(215, 37, 91);fill-opacity:1.0;fill-rule:evenodd;stroke:rgb(0, 0, 0);stroke-width:3.0;" d="M 278.414, 326.943 L 251.994, 335.822 L 200.855, 325.149 L 211.007, 316.9 z "/>
<path style="fill:rgb(215, 37, 91);fill-opacity:1.0;fill-rule:evenodd;stroke:rgb(0, 0, 0);stroke-width:3.0;" d="M 366.852, 359.138 L 345.431, 363.823 L 352.246, 338.993 z "/>
<path style="fill:rgb(187, 187, 252);fill-opacity:1.0;fill-rule:evenodd;stroke:rgb(0, 0, 0);stroke-width:3.0;" d="M 726.664, 101.704 L 703.655, 106.815 L 706.725, 94.3873 L 720.094, 89.1527 z "/>
<path style="fill:rgb(187, 187, 252);fill-opacity:1.0;fill-rule:evenodd;stroke:rgb(0, 0, 0);stroke-width:3.0;" d="M 736.266, 103.975 L 781.703, 174.744 L 768.261, 181.178 L 726.234, 100.884 z "/>
<path style="fill:rgb(187, 187, 252);fill-opacity:1.0;fill-rule:evenodd;stroke:rgb(0, 0, 0);stroke-width:3.0;" d="M 410.633, 324.189 L 411.35, 328.908 L 369.155, 334.553 L 370.168, 322.177 z "/>
<path style="fill:rgb(243, 103, 7);fill-opacity:1.0;fill-rule:evenodd;stroke:rgb(0, 0, 0);stroke-width:3.0;" d="M 524.472, 16.1288 L 493.422, 24.1744 L 485.762, 17.1493 L 495.013, 14.2438 L 518.05, 13.516 z "/>
<path style="fill:rgb(243, 103, 7);fill-opacity:1.0;fill-rule:evenodd;stroke:rgb(0, 0, 0);stroke-width:3.0;" d="M 439.407, 195.186 L 433.803, 190.164 L 435.449, 140.957 L 448.786, 118.828 z "/>
<path style="fill:rgb(36, 246, 255);fill-opacity:1.0;fill-rule:evenodd;stroke:rgb(0, 0, 0);stroke-width:3.0;" d="M 707.133, 130.171 L 710.632, 135.155 L 731.812, 184.724 L 730.301, 187.323 L 706.007, 129.492 z "/>
<path style="fill:rgb(36, 246, 255);fill-opacity:1.0;fill-rule:evenodd;stroke:rgb(0, 0, 0);stroke-width:3.0;" d="M 351.985, 382.599 L 342.424, 394.768 L 337.498, 393.255 L 339.035, 366.159 z "/>
<path style="fill:rgb(25, 197, 189);fill-opacity:1.0;fill-rule:evenodd;stroke:rgb(0, 0, 0);stroke-width:3.0;" d="M 425.33, 475.127 L 424.35, 483.171 L 412.022, 488.359 L 413.208, 475.247 L 421.638, 474.255 z "/>
<path style="fill:rgb(40, 231, 67);fill-opacity:1.0;fill-rule:evenodd;stroke:rgb(0, 0, 0);stroke-width:3.0;" d="M 695.218, 41.6249 L 707.646, 65.3703 L 702.243, 63.6522 L 700.039, 61.8369 L 687.954, 34.9383 L 688.421, 34.0106 z "/>
<path style="fill:rgb(23, 252, 7);fill-opacity:1.0;fill-rule:evenodd;stroke:rgb(0, 0, 0);stroke-width:3.0;" d="M 130.948, 329.809 L 137.423, 346.782 L 137.333, 346.896 L 87.0425, 336.156 L 102.518, 321.076 z "/>
<path style="fill:rgb(255, 9, 32);fill-opacity:1.0;fill-rule:evenodd;stroke:rgb(0, 0, 0);stroke-width:3.0;" d="M 20.7333, 514.369 L 17.5209, 533.025 L 14.2063, 537.093 L 14.1004, 536.987 L 15.5533, 507.304 z "/>
<path style="fill:rgb(14, 255, 237);fill-opacity:1.0;fill-rule:evenodd;stroke:rgb(0, 0, 0);stroke-width:3.0;" d="M 677.807, 53.296 L 678.414, 53.9062 L 670.07, 70.4941 L 656.567, 70.977 L 668.1, 52.8826 z "/>
<path style="fill:rgb(237, 9, 81);fill-opacity:1.0;fill-rule:evenodd;stroke:rgb(0, 0, 0);stroke-width:3.0;" d="M 37.3897, 464.476 L 24.6396, 478.669 L 20.5293, 457.871 L 21.837, 452.175 L 24.8607, 448.639 z "/>
<path style="fill:rgb(237, 9, 81);fill-opacity:1.0;fill-rule:evenodd;stroke:rgb(0, 0, 0);stroke-width:3.0;" d="M 758.495, 19.6395 L 759.416, 23.6554 L 741.946, 35.6774 L 739.948, 34.2728 L 724.534, 19.0793 z "/>
<path style="fill:rgb(255, 72, 115);fill-opacity:1.0;fill-rule:evenodd;stroke:rgb(0, 0, 0);stroke-width:3.0;" d="M 528.855, 330.066 L 528.367, 332.053 L 404.139, 340.058 L 412.029, 328.817 L 436.872, 325.493 z "/>
<path style="fill:rgb(255, 7, 48);fill-opacity:1.0;fill-rule:evenodd;stroke:rgb(0, 0, 0);stroke-width:3.0;" d="M 404.139, 340.058 L 384.408, 341.33 L 392.149, 331.477 L 412.029, 328.817 z "/>
<path style="fill:rgb(79, 255, 194);fill-opacity:1.0;fill-rule:evenodd;stroke:rgb(0, 0, 0);stroke-width:3.0;" d="M 383.061, 343.044 L 380.412, 346.416 L 358.58, 347.729 L 350.807, 337.008 L 380.953, 332.975 z "/>
<path style="fill:rgb(255, 9, 79);fill-opacity:1.0;fill-rule:evenodd;stroke:rgb(0, 0, 0);stroke-width:3.0;" d="M 429.453, 172.88 L 372.429, 147.08 L 390.635, 130.677 L 430.782, 125.182 z "/>
<path style="fill:rgb(255, 9, 79);fill-opacity:1.0;fill-rule:evenodd;stroke:rgb(0, 0, 0);stroke-width:3.0;" d="M 504.107, 493.715 L 421.751, 504.517 L 423.464, 490.447 L 429.097, 476.016 z "/>
<path style="fill:rgb(246, 161, 42);fill-opacity:1.0;fill-rule:evenodd;stroke:rgb(0, 0, 0);stroke-width:3.0;" d="M 772.722, 583.618 L 671.553, 534.228 L 725.471, 518.741 z "/>
<path style="fill:rgb(255, 10, 10);fill-opacity:1.0;fill-rule:evenodd;stroke:rgb(0, 0, 0);stroke-width:3.0;" d="M 232.479, 39.5694 L 234.742, 49.0923 L 222.555, 62.4209 L 197.994, 57.9656 L 193.576, 54.0819 L 218.941, 37.6181 z "/>
<path style="fill:rgb(243, 44, 15);fill-opacity:1.0;fill-rule:evenodd;stroke:rgb(0, 0, 0);stroke-width:3.0;" d="M 630.993, 180.102 L 613.045, 179.97 L 585.085, 156.906 L 614.58, 153.246 z "/>
<path style="fill:rgb(243, 44, 15);fill-opacity:1.0;fill-rule:evenodd;stroke:rgb(0, 0, 0);stroke-width:3.0;" d="M 213.37, 71.4814 L 147.84, 78.3821 L 147.734, 73.7925 L 209.511, 68.0893 z "/>
<path style="fill:rgb(243, 44, 15);fill-opacity:1.0;fill-rule:evenodd;stroke:rgb(0, 0, 0);stroke-width:3.0;" d="M 452.971, 402.583 L 440.319, 424.838 L 410.17, 415.577 L 444.546, 392.666 z "/>
<path style="fill:rgb(243, 44, 15);fill-opacity:1.0;fill-rule:evenodd;stroke:rgb(0, 0, 0);stroke-width:3.0;" d="M 280.649, 43.6095 L 278.349, 54.8169 L 274.123, 56.9951 L 266.19, 55.6457 L 266.703, 51.9458 L 277.434, 42.7523 z "/>
<path style="fill:rgb(255, 0, 255);fill-opacity:1.0;fill-rule:evenodd;stroke:rgb(0, 0, 0);stroke-width:3.0;" d="M 130.689, 302.885 L 132.775, 310.376 L 114.053, 309.445 L 117.363, 297.069 z "/>
<path style="fill:rgb(71, 159, 226);fill-opacity:1.0;fill-rule:evenodd;stroke:rgb(0, 0, 0);stroke-width:3.0;" d="M 758.495, 19.6395 L 723.465, 19.0617 L 723.642, 17.7459 L 757.249, 14.2069 z "/>
<path style="fill:rgb(71, 159, 226);fill-opacity:1.0;fill-rule:evenodd;stroke:rgb(0, 0, 0);stroke-width:3.0;" d="M 691.729, 100.085 L 683.396, 111.316 L 682.979, 111.408 L 679.904, 105.176 L 678.946, 95.8149 z "/>
<path style="fill:rgb(243, 192, 33);fill-opacity:1.0;fill-rule:evenodd;stroke:rgb(0, 0, 0);stroke-width:3.0;" d="M 744.564, 518.293 L 769.27, 578.878 L 725.471, 518.741 L 736.092, 515.691 z "/>
<path style="fill:rgb(255, 255, 25);fill-opacity:1.0;fill-rule:evenodd;stroke:rgb(0, 0, 0);stroke-width:3.0;" d="M 93.5704, 329.794 L 81.1529, 341.895 L 78.5855, 339.702 L 71.1645, 327.029 L 70.048, 313.944 z "/>
<path style="fill:rgb(255, 255, 25);fill-opacity:1.0;fill-rule:evenodd;stroke:rgb(0, 0, 0);stroke-width:3.0;" d="M 442.077, 544.32 L 451.95, 555.804 L 304.529, 475.548 L 303.57, 467.336 z "/>
<path style="fill:rgb(255, 255, 25);fill-opacity:1.0;fill-rule:evenodd;stroke:rgb(0, 0, 0);stroke-width:3.0;" d="M 343.601, 362.795 L 315.182, 351.004 L 327.09, 340.181 L 339.402, 338.534 z "/>
<path style="fill:rgb(75, 132, 226);fill-opacity:1.0;fill-rule:evenodd;stroke:rgb(0, 0, 0);stroke-width:3.0;" d="M 144.664, 310.967 L 145.855, 311.334 L 141.266, 332.978 L 104.075, 321.554 L 79.4511, 307.725 z "/>
<path style="fill:rgb(75, 132, 226);fill-opacity:1.0;fill-rule:evenodd;stroke:rgb(0, 0, 0);stroke-width:3.0;" d="M 267.889, 343.853 L 266.342, 339.887 L 265.315, 331.352 L 281.752, 328.687 z "/>
<path style="fill:rgb(75, 132, 226);fill-opacity:1.0;fill-rule:evenodd;stroke:rgb(0, 0, 0);stroke-width:3.0;" d="M 19.095, 8.81309 L 46.8826, 49.3718 L 44.0433, 51.8173 L 17.8153, 8.62864 z "/>
<path style="fill:rgb(75, 132, 226);fill-opacity:1.0;fill-rule:evenodd;stroke:rgb(0, 0, 0);stroke-width:3.0;" d="M 766.894, 184.172 L 759.285, 185.197 L 741.155, 176.949 L 732.09, 164.035 L 731.225, 162.243 z "/>
<path style="fill:rgb(75, 132, 226);fill-opacity:1.0;fill-rule:evenodd;stroke:rgb(0, 0, 0);stroke-width:3.0;" d="M 622.058, 135.651 L 660.979, 180.143 L 619.544, 161.369 L 598.902, 127.592 z "/>
<path style="fill:rgb(255, 204, 163);fill-opacity:1.0;fill-rule:evenodd;stroke:rgb(0, 0, 0);stroke-width:3.0;" d="M 669.302, 50.9967 L 652.603, 77.1958 L 652.948, 61.9389 L 671.311, 41.9377 z "/>
<path style="fill:rgb(255, 67, 8);fill-opacity:1.0;fill-rule:evenodd;stroke:rgb(0, 0, 0);stroke-width:3.0;" d="M 670.405, 85.9217 L 665.992, 99.1707 L 657.073, 86.0653 L 658.947, 76.3162 L 665.45, 75.8777 z "/>
<path style="fill:rgb(255, 67, 8);fill-opacity:1.0;fill-rule:evenodd;stroke:rgb(0, 0, 0);stroke-width:3.0;" d="M 187.465, 432.704 L 195.06, 439.191 L 157.843, 450.117 L 157.1, 429.793 z "/>
<path style="fill:rgb(159, 0, 231);fill-opacity:1.0;fill-rule:evenodd;stroke:rgb(0, 0, 0);stroke-width:3.0;" d="M 590.871, 156.188 L 585.085, 156.906 L 573.63, 147.457 L 581.943, 113.555 z "/>
<path style="fill:rgb(159, 0, 231);fill-opacity:1.0;fill-rule:evenodd;stroke:rgb(0, 0, 0);stroke-width:3.0;" d="M 46.6574, 498.197 L 9.2814, 498.749 L 6.25473, 494.62 L 65.5641, 477.208 z "/>
<path style="fill:rgb(255, 130, 16);fill-opacity:1.0;fill-rule:evenodd;stroke:rgb(0, 0, 0);stroke-width:3.0;" d="M 700.276, 88.5655 L 696.397, 93.7926 L 688.149, 74.3473 L 704.888, 73.2188 z "/>
<path style="fill:rgb(255, 130, 16);fill-opacity:1.0;fill-rule:evenodd;stroke:rgb(0, 0, 0);stroke-width:3.0;" d="M 455.041, 67.9116 L 414.697, 98.0994 L 406.866, 81.3314 L 457.135, 50.8633 z "/>
<path style="fill:rgb(255, 237, 25);fill-opacity:1.0;fill-rule:evenodd;stroke:rgb(0, 0, 0);stroke-width:3.0;" d="M 387.258, 468.609 L 377.593, 491.795 L 332.739, 483.549 L 329.328, 481.653 L 359.322, 463.587 z "/>
<path style="fill:rgb(243, 14, 165);fill-opacity:1.0;fill-rule:evenodd;stroke:rgb(0, 0, 0);stroke-width:3.0;" d="M 406.866, 81.3314 L 399.226, 64.9727 L 439.239, 61.7103 z "/>
<path style="fill:rgb(243, 14, 165);fill-opacity:1.0;fill-rule:evenodd;stroke:rgb(0, 0, 0);stroke-width:3.0;" d="M 348.258, 337.349 L 314.061, 341.924 L 316.988, 337.441 L 326.324, 334.081 z "/>
<path style="fill:rgb(255, 255, 12);fill-opacity:1.0;fill-rule:evenodd;stroke:rgb(0, 0, 0);stroke-width:3.0;" d="M 552.155, 568.522 L 508.288, 581.121 L 450.64, 549.079 L 485.969, 545.145 z "/>
<path style="fill:rgb(192, 9, 249);fill-opacity:1.0;fill-rule:evenodd;stroke:rgb(0, 0, 0);stroke-width:3.0;" d="M 426.79, 371.764 L 407.035, 414.614 L 342.424, 394.768 L 358.209, 374.677 L 418.152, 361.598 z "/>
<path style="fill:rgb(255, 255, 27);fill-opacity:1.0;fill-rule:evenodd;stroke:rgb(0, 0, 0);stroke-width:3.0;" d="M 431.93, 256.06 L 429.419, 276.5 L 419.562, 249.65 L 420.348, 249.311 z "/>
<path style="fill:rgb(255, 255, 27);fill-opacity:1.0;fill-rule:evenodd;stroke:rgb(0, 0, 0);stroke-width:3.0;" d="M 737.561, 148.541 L 749.451, 155.719 L 739.02, 167.035 L 730.533, 161.817 L 730.218, 161.368 L 730.077, 145.725 z "/>
<path style="fill:rgb(172, 119, 226);fill-opacity:1.0;fill-rule:evenodd;stroke:rgb(0, 0, 0);stroke-width:3.0;" d="M 444.546, 392.666 L 410.17, 415.577 L 407.035, 414.614 L 426.79, 371.764 z "/>
<path style="fill:rgb(172, 119, 226);fill-opacity:1.0;fill-rule:evenodd;stroke:rgb(0, 0, 0);stroke-width:3.0;" d="M 757.469, 160.559 L 763.985, 173.009 L 739.072, 167.067 L 739.02, 167.035 L 749.451, 155.719 z "/>
<path style="fill:rgb(172, 119, 226);fill-opacity:1.0;fill-rule:evenodd;stroke:rgb(0, 0, 0);stroke-width:3.0;" d="M 383.149, 58.5201 L 336.944, 82.9451 L 336.676, 82.3313 L 346.101, 71.7601 L 383.604, 57.2026 z "/>
<path style="fill:rgb(172, 119, 226);fill-opacity:1.0;fill-rule:evenodd;stroke:rgb(0, 0, 0);stroke-width:3.0;" d="M 708.493, 66.9884 L 711.52, 72.7716 L 683.89, 74.6345 L 681.886, 58.964 z "/>
<path style="fill:rgb(172, 119, 226);fill-opacity:1.0;fill-rule:evenodd;stroke:rgb(0, 0, 0);stroke-width:3.0;" d="M 244.622, 434.572 L 242.36, 433.315 L 241.411, 425.583 L 260.692, 419.923 z "/>
<path style="fill:rgb(172, 119, 226);fill-opacity:1.0;fill-rule:evenodd;stroke:rgb(0, 0, 0);stroke-width:3.0;" d="M 79.4511, 307.725 L 104.075, 321.554 L 55.1162, 306.515 z "/>
<path style="fill:rgb(95, 1, 255);fill-opacity:1.0;fill-rule:evenodd;stroke:rgb(0, 0, 0);stroke-width:3.0;" d="M 87.5113, 536.576 L 77.9767, 533.04 L 95.4629, 516.205 z "/>
<path style="fill:rgb(89, 159, 204);fill-opacity:1.0;fill-rule:evenodd;stroke:rgb(0, 0, 0);stroke-width:3.0;" d="M 116.477, 274.578 L 115.476, 283.62 L 104.904, 292.803 L 100.258, 272.918 z "/>
<path style="fill:rgb(89, 159, 204);fill-opacity:1.0;fill-rule:evenodd;stroke:rgb(0, 0, 0);stroke-width:3.0;" d="M 722.757, 191.489 L 721.547, 191.661 L 689.377, 141.199 L 686.543, 125.202 z "/>
<path style="fill:rgb(168, 255, 172);fill-opacity:1.0;fill-rule:evenodd;stroke:rgb(0, 0, 0);stroke-width:3.0;" d="M 452.217, 90.8998 L 436.944, 96.2599 L 437.125, 90.8699 L 453.628, 79.4149 z "/>
<path style="fill:rgb(255, 234, 8);fill-opacity:1.0;fill-rule:evenodd;stroke:rgb(0, 0, 0);stroke-width:3.0;" d="M 429.284, 421.448 L 355.21, 466.064 L 333.384, 435.643 L 414.683, 416.964 z "/>
<path style="fill:rgb(255, 234, 8);fill-opacity:1.0;fill-rule:evenodd;stroke:rgb(0, 0, 0);stroke-width:3.0;" d="M 763.991, 524.26 L 754.858, 543.537 L 744.564, 518.293 z "/>
<path style="fill:rgb(255, 234, 8);fill-opacity:1.0;fill-rule:evenodd;stroke:rgb(0, 0, 0);stroke-width:3.0;" d="M 338.73, 371.535 L 338.554, 374.636 L 291.864, 379.237 L 284.83, 377.077 L 326.733, 367.912 z "/>
<path style="fill:rgb(175, 66, 228);fill-opacity:1.0;fill-rule:evenodd;stroke:rgb(0, 0, 0);stroke-width:3.0;" d="M 66.7991, 589.661 L 14.2063, 537.093 L 20.6628, 529.169 z "/>
<path style="fill:rgb(255, 25, 69);fill-opacity:1.0;fill-rule:evenodd;stroke:rgb(0, 0, 0);stroke-width:3.0;" d="M 41.4401, 12.0338 L 72.5115, 19.4669 L 73.2599, 26.653 L 52.2361, 44.7608 L 37.6544, 11.4882 z "/>
<path style="fill:rgb(255, 240, 17);fill-opacity:1.0;fill-rule:evenodd;stroke:rgb(0, 0, 0);stroke-width:3.0;" d="M 601.78, 112.471 L 598.834, 127.481 L 584.342, 103.769 L 586.493, 94.9962 z "/>
<path style="fill:rgb(255, 240, 17);fill-opacity:1.0;fill-rule:evenodd;stroke:rgb(0, 0, 0);stroke-width:3.0;" d="M 690.517, 99.6797 L 674.564, 94.3512 L 665.45, 75.8777 L 670.376, 75.5456 z "/>
<path style="fill:rgb(207, 17, 11);fill-opacity:1.0;fill-rule:evenodd;stroke:rgb(0, 0, 0);stroke-width:3.0;" d="M 763.985, 173.009 L 767.475, 179.676 L 751.603, 174.771 L 739.072, 167.067 z "/>
<path style="fill:rgb(255, 249, 83);fill-opacity:1.0;fill-rule:evenodd;stroke:rgb(0, 0, 0);stroke-width:3.0;" d="M 151.806, 248.989 L 126.639, 269.95 L 118.733, 254.223 L 119.487, 247.42 L 129.851, 232.598 z "/>
<path style="fill:rgb(105, 88, 234);fill-opacity:1.0;fill-rule:evenodd;stroke:rgb(0, 0, 0);stroke-width:3.0;" d="M 619.422, 43.4085 L 626.426, 46.0469 L 608.823, 61.0228 L 607.559, 60.3655 L 598.008, 48.0353 L 599.396, 42.3753 z "/>
<path style="fill:rgb(249, 3, 82);fill-opacity:1.0;fill-rule:evenodd;stroke:rgb(0, 0, 0);stroke-width:3.0;" d="M 585, 426.786 L 572.087, 465.313 L 501.043, 443.491 L 525.882, 342.189 z "/>
<path style="fill:rgb(249, 3, 82);fill-opacity:1.0;fill-rule:evenodd;stroke:rgb(0, 0, 0);stroke-width:3.0;" d="M 748.235, 88.8863 L 732.278, 102.746 L 726.234, 100.884 L 725.226, 98.9584 L 730.653, 80.3161 z "/>
<path style="fill:rgb(249, 207, 10);fill-opacity:1.0;fill-rule:evenodd;stroke:rgb(0, 0, 0);stroke-width:3.0;" d="M 776.472, 72.314 L 775.295, 75.4589 L 739.462, 75.1103 L 759.982, 64.2833 z "/>
<path style="fill:rgb(98, 212, 154);fill-opacity:1.0;fill-rule:evenodd;stroke:rgb(0, 0, 0);stroke-width:3.0;" d="M 776.472, 72.314 L 759.982, 64.2833 L 784.278, 51.464 z "/>
<path style="fill:rgb(255, 179, 31);fill-opacity:1.0;fill-rule:evenodd;stroke:rgb(0, 0, 0);stroke-width:3.0;" d="M 48.2451, 399.651 L 30.6891, 418.02 L 34.4348, 389.672 L 39.3493, 389.147 z "/>
<path style="fill:rgb(255, 4, 50);fill-opacity:1.0;fill-rule:evenodd;stroke:rgb(0, 0, 0);stroke-width:3.0;" d="M 786.617, 323.15 L 709.187, 315.442 L 731.699, 277.848 z "/>
<path style="fill:rgb(255, 4, 50);fill-opacity:1.0;fill-rule:evenodd;stroke:rgb(0, 0, 0);stroke-width:3.0;" d="M 720.094, 89.1527 L 706.725, 94.3873 L 711.891, 73.4794 z "/>
<path style="fill:rgb(255, 237, 21);fill-opacity:1.0;fill-rule:evenodd;stroke:rgb(0, 0, 0);stroke-width:3.0;" d="M 729.812, 107.719 L 697.776, 115.603 L 693.344, 109.106 L 726.664, 101.704 z "/>
<path style="fill:rgb(252, 209, 9);fill-opacity:1.0;fill-rule:evenodd;stroke:rgb(0, 0, 0);stroke-width:3.0;" d="M 706.007, 129.492 L 730.301, 187.323 L 728.34, 190.696 L 722.757, 191.489 L 686.112, 124.414 L 694.46, 122.52 z "/>
<path style="fill:rgb(29, 255, 255);fill-opacity:1.0;fill-rule:evenodd;stroke:rgb(0, 0, 0);stroke-width:3.0;" d="M 439.277, 196.245 L 438.508, 202.502 L 418.6, 197.482 L 410.2, 180.831 z "/>
<path style="fill:rgb(255, 115, 175);fill-opacity:1.0;fill-rule:evenodd;stroke:rgb(0, 0, 0);stroke-width:3.0;" d="M 681.436, 447.667 L 675.594, 452.834 L 634.782, 439.692 L 658.523, 400.046 z "/>
<path style="fill:rgb(255, 115, 175);fill-opacity:1.0;fill-rule:evenodd;stroke:rgb(0, 0, 0);stroke-width:3.0;" d="M 742.31, 68.2586 L 732.984, 76.0418 L 714.169, 77.8334 L 708.457, 66.9191 L 710.519, 64.6557 L 721.556, 64.1252 z "/>
<path style="fill:rgb(95, 1, 255);fill-opacity:1.0;fill-rule:evenodd;stroke:rgb(0, 0, 0);stroke-width:3.0;" d="M 272.793, 373.379 L 241.232, 363.685 L 260.679, 349.066 L 278.703, 346.655 z "/>
<path style="fill:rgb(85, 209, 246);fill-opacity:1.0;fill-rule:evenodd;stroke:rgb(0, 0, 0);stroke-width:3.0;" d="M 259.547, 451.059 L 204.987, 486.749 L 167.981, 447.141 L 222.792, 431.049 z "/>
<path style="fill:rgb(255, 41, 15);fill-opacity:1.0;fill-rule:evenodd;stroke:rgb(0, 0, 0);stroke-width:3.0;" d="M 310.881, 424.764 L 279.533, 414.391 L 330.981, 399.287 z "/>
<path style="fill:rgb(207, 223, 217);fill-opacity:1.0;fill-rule:evenodd;stroke:rgb(0, 0, 0);stroke-width:3.0;" d="M 651.507, 489.709 L 638.439, 485.695 L 733.353, 401.749 L 765.933, 399.951 z "/>
<path style="fill:rgb(255, 255, 54);fill-opacity:1.0;fill-rule:evenodd;stroke:rgb(0, 0, 0);stroke-width:3.0;" d="M 711.891, 73.4794 L 703.655, 106.815 L 689.998, 109.849 L 688.134, 104.93 L 711.716, 73.1463 z "/>
<path style="fill:rgb(144, 82, 255);fill-opacity:1.0;fill-rule:evenodd;stroke:rgb(0, 0, 0);stroke-width:3.0;" d="M 433.698, 193.288 L 428.954, 190.773 L 430.782, 125.182 L 436.001, 124.468 z "/>
<path style="fill:rgb(86, 207, 255);fill-opacity:1.0;fill-rule:evenodd;stroke:rgb(0, 0, 0);stroke-width:3.0;" d="M 149.725, 400.467 L 139.776, 408.238 L 137.929, 407.322 L 122.816, 391.214 L 137.013, 389.609 z "/>
<path style="fill:rgb(255, 19, 21);fill-opacity:1.0;fill-rule:evenodd;stroke:rgb(0, 0, 0);stroke-width:3.0;" d="M 374.962, 60.5573 L 334.094, 76.4205 L 326.723, 59.5444 L 365.982, 55.4101 z "/>
<path style="fill:rgb(231, 62, 10);fill-opacity:1.0;fill-rule:evenodd;stroke:rgb(0, 0, 0);stroke-width:3.0;" d="M 634.886, 168.32 L 638.451, 180.157 L 630.993, 180.102 L 626.442, 172.656 L 624.607, 168.991 L 626.838, 164.674 z "/>
<path style="fill:rgb(237, 228, 18);fill-opacity:1.0;fill-rule:evenodd;stroke:rgb(0, 0, 0);stroke-width:3.0;" d="M 772.768, 201.707 L 769.24, 209 L 768.092, 209.566 L 762.578, 198.379 L 760.347, 186.153 L 763.678, 185.68 z "/>
<path style="fill:rgb(220, 192, 207);fill-opacity:1.0;fill-rule:evenodd;stroke:rgb(0, 0, 0);stroke-width:3.0;" d="M 483.021, 437.955 L 440.319, 424.838 L 452.971, 402.583 z "/>
<path style="fill:rgb(246, 59, 11);fill-opacity:1.0;fill-rule:evenodd;stroke:rgb(0, 0, 0);stroke-width:3.0;" d="M 42.656, 344.04 L 42.6111, 346.492 L 38.6982, 365.412 L 34.4823, 365.332 L 34.6418, 336.307 z "/>
<path style="fill:rgb(114, 134, 246);fill-opacity:1.0;fill-rule:evenodd;stroke:rgb(0, 0, 0);stroke-width:3.0;" d="M 44.0433, 51.8173 L 36.8258, 58.0338 L 19.5232, 47.6133 L 35.5497, 37.8313 z "/>
<path style="fill:rgb(255, 30, 255);fill-opacity:1.0;fill-rule:evenodd;stroke:rgb(0, 0, 0);stroke-width:3.0;" d="M 681.886, 58.964 L 683.89, 74.6345 L 667.43, 75.7443 L 676.662, 57.3884 z "/>
<path style="fill:rgb(243, 44, 37);fill-opacity:1.0;fill-rule:evenodd;stroke:rgb(0, 0, 0);stroke-width:3.0;" d="M 111.036, 274.021 L 100.258, 272.918 L 93.2806, 243.056 L 93.3997, 242.867 z "/>
<path style="fill:rgb(204, 26, 65);fill-opacity:1.0;fill-rule:evenodd;stroke:rgb(0, 0, 0);stroke-width:3.0;" d="M 121.795, 226.584 L 116.477, 274.578 L 111.036, 274.021 L 93.3997, 242.867 L 109.427, 217.349 z "/>
<path style="fill:rgb(49, 255, 144);fill-opacity:1.0;fill-rule:evenodd;stroke:rgb(0, 0, 0);stroke-width:3.0;" d="M 741.457, 214.493 L 734.377, 211.785 L 721.547, 191.661 L 725.872, 191.047 z "/>
</svg>