<?xml version="1.0" encoding="iso-8859-1" standalone="no"?>
<!DOCTYPE svg PUBLIC "-//W3C//DTD SVG 1.0//EN" "http://www.w3.org/TR/2001/REC-SVG-20010904/DTD/svg10.dtd">
<svg xmlns="http://www.w3.org/2000/svg" width="800" height="600">
<path style="fill:rgb(0, 0, 0);fill-opacity:0.0;fill-rule:evenodd;stroke:rgb(0, 0, 0);stroke-width:0.0;" d="M 0, 600 L 800, 600 L 800, 0 L 0, 0 z "/>
<path style="fill:rgb(246, 170, 9);fill-opacity:1.0;fill-rule:evenodd;stroke:rgb(0, 0, 0);stroke-width:3.0;" d="M 643.879, 210.773 L 629.006, 199.504 L 632.24, 184.857 z "/>
<path style="fill:rgb(246, 170, 9);fill-opacity:1.0;fill-rule:evenodd;stroke:rgb(0, 0, 0);stroke-width:3.0;" d="M 285.167, 344.492 L 204.129, 444.882 L 184.058, 440.042 L 163.754, 335.049 z "/>
<path style="fill:rgb(246, 170, 9);fill-opacity:1.0;fill-rule:evenodd;stroke:rgb(0, 0, 0);stroke-width:3.0;" d="M 121.879, 115.238 L 109.007, 124.43 L 95.7242, 132.001 L 116.066, 106.748 L 139.159, 94.5487 z "/>
<path style="fill:rgb(246, 170, 9);fill-opacity:1.0;fill-rule:evenodd;stroke:rgb(0, 0, 0);stroke-width:3.0;" d="M 584.743, 30.4038 L 584.776, 41.076 L 569.012, 32.3637 L 578.704, 23.759 z "/>
<path style="fill:rgb(246, 170, 9);fill-opacity:1.0;fill-rule:evenodd;stroke:rgb(0, 0, 0);stroke-width:3.0;" d="M 95.7242, 132.001 L 55.3065, 155.036 L 46.4986, 149.823 L 56.0627, 138.447 L 116.066, 106.748 z "/>
<path style="fill:rgb(246, 170, 9);fill-opacity:1.0;fill-rule:evenodd;stroke:rgb(0, 0, 0);stroke-width:3.0;" d="M 739.609, 485.391 L 756.119, 540.634 L 720.365, 482.953 z "/>
<path style="fill:rgb(246, 170, 9);fill-opacity:1.0;fill-rule:evenodd;stroke:rgb(0, 0, 0);stroke-width:3.0;" d="M 80.7279, 340.163 L 35.2653, 334.044 L 40.9, 282.511 z "/>
<path style="fill:rgb(246, 170, 9);fill-opacity:1.0;fill-rule:evenodd;stroke:rgb(0, 0, 0);stroke-width:3.0;" d="M 555.703, 178.203 L 518.953, 258.673 L 480.405, 222.409 L 531.861, 176.12 z "/>
<path style="fill:rgb(246, 170, 9);fill-opacity:1.0;fill-rule:evenodd;stroke:rgb(0, 0, 0);stroke-width:3.0;" d="M 493.649, 170.795 L 474.535, 234.811 L 469.117, 183.535 L 480.893, 155.392 z "/>
<path style="fill:rgb(246, 170, 9);fill-opacity:1.0;fill-rule:evenodd;stroke:rgb(0, 0, 0);stroke-width:3.0;" d="M 185.873, 108.081 L 163.353, 149.181 L 148.78, 143.825 L 149.789, 81.8205 L 150.796, 80.614 z "/>
<path style="fill:rgb(246, 170, 9);fill-opacity:1.0;fill-rule:evenodd;stroke:rgb(0, 0, 0);stroke-width:3.0;" d="M 439.277, 72.2292 L 441.502, 88.2217 L 392.593, 83.0957 L 394.207, 77.6225 L 418.532, 39.3784 z "/>
<path style="fill:rgb(255, 255, 7);fill-opacity:1.0;fill-rule:evenodd;stroke:rgb(0, 0, 0);stroke-width:3.0;" d="M 383.495, 222.683 L 373.863, 234.614 L 353.117, 208.88 L 357.519, 205.667 z "/>
<path style="fill:rgb(255, 255, 7);fill-opacity:1.0;fill-rule:evenodd;stroke:rgb(0, 0, 0);stroke-width:3.0;" d="M 636.539, 502.874 L 625.805, 519.012 L 611.447, 495.211 L 627.863, 489.402 z "/>
<path style="fill:rgb(255, 255, 7);fill-opacity:1.0;fill-rule:evenodd;stroke:rgb(0, 0, 0);stroke-width:3.0;" d="M 444.413, 166.387 L 425.862, 170.198 L 432.825, 161.572 L 441.517, 156.021 z "/>
<path style="fill:rgb(255, 255, 7);fill-opacity:1.0;fill-rule:evenodd;stroke:rgb(0, 0, 0);stroke-width:3.0;" d="M 255.865, 268.209 L 246.906, 281.997 L 244.183, 278.459 L 246.496, 263.23 z "/>
<path style="fill:rgb(255, 255, 7);fill-opacity:1.0;fill-rule:evenodd;stroke:rgb(0, 0, 0);stroke-width:3.0;" d="M 792.024, 324.075 L 783.866, 329.498 L 780.095, 328.579 L 762.254, 320.523 L 767.255, 312.867 z "/>
<path style="fill:rgb(12, 117, 240);fill-opacity:1.0;fill-rule:evenodd;stroke:rgb(0, 0, 0);stroke-width:3.0;" d="M 14.098, 316.991 L 12.0111, 342.923 L 5.40232, 353.805 L 12.0298, 316.849 z "/>
<path style="fill:rgb(228, 255, 39);fill-opacity:1.0;fill-rule:evenodd;stroke:rgb(0, 0, 0);stroke-width:3.0;" d="M 763.248, 533.25 L 767.685, 559.294 L 756.119, 540.634 L 747.792, 512.771 z "/>
<path style="fill:rgb(228, 255, 39);fill-opacity:1.0;fill-rule:evenodd;stroke:rgb(0, 0, 0);stroke-width:3.0;" d="M 593.909, 120.303 L 568.848, 142.847 L 520.302, 81.5262 L 524.332, 68.0312 L 594.469, 62.7139 z "/>
<path style="fill:rgb(255, 4, 10);fill-opacity:1.0;fill-rule:evenodd;stroke:rgb(0, 0, 0);stroke-width:3.0;" d="M 591.519, 366.025 L 586.636, 377.035 L 586.285, 365.01 L 590.06, 340.097 L 591.786, 338.58 z "/>
<path style="fill:rgb(255, 1, 11);fill-opacity:1.0;fill-rule:evenodd;stroke:rgb(0, 0, 0);stroke-width:3.0;" d="M 727.804, 256.059 L 714.661, 264.4 L 701.941, 254.763 L 720.142, 250.173 z "/>
<path style="fill:rgb(255, 1, 11);fill-opacity:1.0;fill-rule:evenodd;stroke:rgb(0, 0, 0);stroke-width:3.0;" d="M 607.577, 14.1971 L 613.268, 61.2887 L 612.843, 61.3209 L 575.251, 19.9597 L 601.469, 7.16552 z "/>
<path style="fill:rgb(255, 108, 8);fill-opacity:1.0;fill-rule:evenodd;stroke:rgb(0, 0, 0);stroke-width:3.0;" d="M 93.6516, 69.2934 L 75.1056, 88.5008 L 63.8141, 69.0515 L 70.5038, 47.2943 z "/>
<path style="fill:rgb(255, 114, 26);fill-opacity:1.0;fill-rule:evenodd;stroke:rgb(0, 0, 0);stroke-width:3.0;" d="M 205.46, 277.204 L 177.246, 336.098 L 151.908, 334.127 L 129.141, 301.208 L 205.15, 277.001 z "/>
<path style="fill:rgb(255, 255, 61);fill-opacity:1.0;fill-rule:evenodd;stroke:rgb(0, 0, 0);stroke-width:3.0;" d="M 683.729, 244.062 L 688.645, 288.091 L 686.87, 288.832 L 656.865, 268.933 L 658.317, 243.107 z "/>
<path style="fill:rgb(255, 255, 61);fill-opacity:1.0;fill-rule:evenodd;stroke:rgb(0, 0, 0);stroke-width:3.0;" d="M 205.15, 277.001 L 129.141, 301.208 L 77.5457, 226.602 L 79.9813, 194.989 z "/>
<path style="fill:rgb(237, 17, 17);fill-opacity:1.0;fill-rule:evenodd;stroke:rgb(0, 0, 0);stroke-width:3.0;" d="M 346.059, 269.058 L 294.818, 332.535 L 286.64, 330.395 L 281.421, 326.975 L 319.625, 262.121 z "/>
<path style="fill:rgb(255, 14, 9);fill-opacity:1.0;fill-rule:evenodd;stroke:rgb(0, 0, 0);stroke-width:3.0;" d="M 253.561, 330.054 L 239.992, 340.978 L 238.471, 340.86 L 236.984, 337.545 L 248.077, 324.627 z "/>
<path style="fill:rgb(255, 14, 9);fill-opacity:1.0;fill-rule:evenodd;stroke:rgb(0, 0, 0);stroke-width:3.0;" d="M 593.697, 142.035 L 586.596, 145.689 L 581.828, 131.171 L 593.909, 120.303 z "/>
<path style="fill:rgb(255, 37, 182);fill-opacity:1.0;fill-rule:evenodd;stroke:rgb(0, 0, 0);stroke-width:3.0;" d="M 55.7216, 95.3705 L 48.7265, 68.1086 L 64.6867, 66.2132 z "/>
<path style="fill:rgb(255, 8, 114);fill-opacity:1.0;fill-rule:evenodd;stroke:rgb(0, 0, 0);stroke-width:3.0;" d="M 149.339, 446.176 L 147.263, 467.663 L 89.8401, 423.642 L 96.7153, 410.825 z "/>
<path style="fill:rgb(255, 8, 114);fill-opacity:1.0;fill-rule:evenodd;stroke:rgb(0, 0, 0);stroke-width:3.0;" d="M 408.714, 566.94 L 374.423, 579.072 L 291.699, 517.921 L 338.827, 503.253 z "/>
<path style="fill:rgb(255, 8, 114);fill-opacity:1.0;fill-rule:evenodd;stroke:rgb(0, 0, 0);stroke-width:3.0;" d="M 660.397, 204.282 L 648.295, 214.119 L 643.879, 210.773 L 632.24, 184.857 L 632.656, 182.973 z "/>
<path style="fill:rgb(255, 197, 19);fill-opacity:1.0;fill-rule:evenodd;stroke:rgb(0, 0, 0);stroke-width:3.0;" d="M 721.591, 342.11 L 704.688, 357.619 L 696.386, 351.592 L 696.506, 346.353 L 721.629, 341.094 z "/>
<path style="fill:rgb(255, 197, 19);fill-opacity:1.0;fill-rule:evenodd;stroke:rgb(0, 0, 0);stroke-width:3.0;" d="M 281.421, 326.975 L 271.033, 320.169 L 270.683, 314.199 L 291.99, 309.033 z "/>
<path style="fill:rgb(255, 197, 19);fill-opacity:1.0;fill-rule:evenodd;stroke:rgb(0, 0, 0);stroke-width:3.0;" d="M 220.391, 219.023 L 220.526, 231.234 L 209.344, 233.179 L 205.714, 232.227 L 219.376, 218.914 z "/>
<path style="fill:rgb(255, 197, 19);fill-opacity:1.0;fill-rule:evenodd;stroke:rgb(0, 0, 0);stroke-width:3.0;" d="M 148.64, 152.443 L 86.9244, 157.091 L 109.42, 130.156 L 149.073, 125.809 z "/>
<path style="fill:rgb(255, 197, 19);fill-opacity:1.0;fill-rule:evenodd;stroke:rgb(0, 0, 0);stroke-width:3.0;" d="M 686.87, 288.832 L 650.759, 303.912 L 627.201, 249.259 z "/>
<path style="fill:rgb(52, 231, 161);fill-opacity:1.0;fill-rule:evenodd;stroke:rgb(0, 0, 0);stroke-width:3.0;" d="M 646.192, 54.5824 L 630.347, 59.9939 L 614.464, 61.198 L 615.357, 58.3664 L 631.472, 54.5685 z "/>
<path style="fill:rgb(52, 231, 161);fill-opacity:1.0;fill-rule:evenodd;stroke:rgb(0, 0, 0);stroke-width:3.0;" d="M 441.502, 88.2217 L 443.11, 99.7809 L 398.454, 113.066 L 384.243, 111.414 L 392.593, 83.0957 z "/>
<path style="fill:rgb(252, 187, 29);fill-opacity:1.0;fill-rule:evenodd;stroke:rgb(0, 0, 0);stroke-width:3.0;" d="M 14.8502, 369.499 L 14.1479, 376.63 L 9.91063, 391.84 L 8.09294, 391.614 L 11.823, 345.262 z "/>
<path style="fill:rgb(252, 187, 29);fill-opacity:1.0;fill-rule:evenodd;stroke:rgb(0, 0, 0);stroke-width:3.0;" d="M 532.636, 97.1053 L 498.726, 184.717 L 493.843, 170.143 L 520.302, 81.5262 z "/>
<path style="fill:rgb(252, 187, 29);fill-opacity:1.0;fill-rule:evenodd;stroke:rgb(0, 0, 0);stroke-width:3.0;" d="M 243.066, 152.868 L 201.639, 232.001 L 66.122, 181.999 L 86.9244, 157.091 L 234.287, 145.993 z "/>
<path style="fill:rgb(252, 187, 29);fill-opacity:1.0;fill-rule:evenodd;stroke:rgb(0, 0, 0);stroke-width:3.0;" d="M 721.629, 341.094 L 692.618, 347.167 L 667.373, 342.454 L 650.759, 303.912 L 679.095, 292.079 L 723.471, 291.614 z "/>
<path style="fill:rgb(252, 187, 29);fill-opacity:1.0;fill-rule:evenodd;stroke:rgb(0, 0, 0);stroke-width:3.0;" d="M 267.137, 335.102 L 267.622, 343.127 L 239.992, 340.978 L 250.313, 332.668 z "/>
<path style="fill:rgb(252, 187, 29);fill-opacity:1.0;fill-rule:evenodd;stroke:rgb(0, 0, 0);stroke-width:3.0;" d="M 330.669, 221.467 L 318.32, 240.85 L 305.883, 237.161 L 321.147, 214.011 z "/>
<path style="fill:rgb(252, 187, 29);fill-opacity:1.0;fill-rule:evenodd;stroke:rgb(0, 0, 0);stroke-width:3.0;" d="M 70.7463, 176.462 L 64.012, 184.525 L 44.8637, 171.979 L 38.7951, 158.859 z "/>
<path style="fill:rgb(255, 138, 150);fill-opacity:1.0;fill-rule:evenodd;stroke:rgb(0, 0, 0);stroke-width:3.0;" d="M 248.082, 243.346 L 240.397, 272.277 L 203.898, 231.75 z "/>
<path style="fill:rgb(255, 138, 150);fill-opacity:1.0;fill-rule:evenodd;stroke:rgb(0, 0, 0);stroke-width:3.0;" d="M 22.5462, 279.78 L 21.5712, 298.245 L 16.7678, 304.605 L 15.4673, 299.975 L 15.8021, 295.814 L 19.3721, 275.906 L 20.5828, 274.304 z "/>
<path style="fill:rgb(255, 138, 150);fill-opacity:1.0;fill-rule:evenodd;stroke:rgb(0, 0, 0);stroke-width:3.0;" d="M 140.924, 92.4347 L 139.159, 94.5487 L 125.353, 101.842 L 118.778, 67.4634 L 119.171, 66.6824 z "/>
<path style="fill:rgb(255, 138, 150);fill-opacity:1.0;fill-rule:evenodd;stroke:rgb(0, 0, 0);stroke-width:3.0;" d="M 545.341, 163.994 L 544.47, 164.777 L 534.694, 126.221 L 540.979, 117.001 z "/>
<path style="fill:rgb(255, 138, 150);fill-opacity:1.0;fill-rule:evenodd;stroke:rgb(0, 0, 0);stroke-width:3.0;" d="M 490.579, 130.336 L 451.578, 192.027 L 451.071, 190.213 L 455.391, 133.617 L 474.066, 110.483 z "/>
<path style="fill:rgb(240, 246, 10);fill-opacity:1.0;fill-rule:evenodd;stroke:rgb(0, 0, 0);stroke-width:3.0;" d="M 319.625, 262.121 L 291.99, 309.033 L 270.683, 314.199 L 266.823, 248.264 z "/>
<path style="fill:rgb(240, 246, 10);fill-opacity:1.0;fill-rule:evenodd;stroke:rgb(0, 0, 0);stroke-width:3.0;" d="M 720.142, 250.173 L 701.941, 254.763 L 648.295, 214.119 L 660.397, 204.282 z "/>
<path style="fill:rgb(255, 41, 105);fill-opacity:1.0;fill-rule:evenodd;stroke:rgb(0, 0, 0);stroke-width:3.0;" d="M 743.773, 286.457 L 743.242, 287.749 L 723.778, 283.386 L 724.215, 271.639 z "/>
<path style="fill:rgb(255, 41, 105);fill-opacity:1.0;fill-rule:evenodd;stroke:rgb(0, 0, 0);stroke-width:3.0;" d="M 51.1467, 495.776 L 45.9794, 505.409 L 27.5091, 495.301 L 29.3256, 463.093 z "/>
<path style="fill:rgb(255, 41, 105);fill-opacity:1.0;fill-rule:evenodd;stroke:rgb(0, 0, 0);stroke-width:3.0;" d="M 594.224, 56.77 L 596.222, 62.581 L 561.197, 65.2363 L 565.561, 38.7275 z "/>
<path style="fill:rgb(255, 41, 105);fill-opacity:1.0;fill-rule:evenodd;stroke:rgb(0, 0, 0);stroke-width:3.0;" d="M 575.538, 534.05 L 560.116, 525.395 L 563.87, 512.044 L 575.52, 507.922 z "/>
<path style="fill:rgb(255, 41, 105);fill-opacity:1.0;fill-rule:evenodd;stroke:rgb(0, 0, 0);stroke-width:3.0;" d="M 418.046, 12.0414 L 423.957, 28.9154 L 409.596, 25.4328 L 413.751, 11.3422 z "/>
<path style="fill:rgb(255, 41, 105);fill-opacity:1.0;fill-rule:evenodd;stroke:rgb(0, 0, 0);stroke-width:3.0;" d="M 755.436, 487.396 L 763.248, 533.25 L 747.792, 512.771 L 739.609, 485.391 z "/>
<path style="fill:rgb(255, 41, 105);fill-opacity:1.0;fill-rule:evenodd;stroke:rgb(0, 0, 0);stroke-width:3.0;" d="M 48.8581, 178.6 L 60.7101, 190.137 L 64.505, 207.746 L 41.0929, 173.893 z "/>
<path style="fill:rgb(255, 41, 105);fill-opacity:1.0;fill-rule:evenodd;stroke:rgb(0, 0, 0);stroke-width:3.0;" d="M 656.138, 220.061 L 639.539, 254.393 L 632.058, 238.603 L 650.395, 215.71 z "/>
<path style="fill:rgb(255, 41, 105);fill-opacity:1.0;fill-rule:evenodd;stroke:rgb(0, 0, 0);stroke-width:3.0;" d="M 71.3064, 130.394 L 66.2016, 133.09 L 62.0907, 133.962 L 47.8332, 125.181 L 54.7514, 114.782 z "/>
<path style="fill:rgb(255, 199, 15);fill-opacity:1.0;fill-rule:evenodd;stroke:rgb(0, 0, 0);stroke-width:3.0;" d="M 147.263, 467.663 L 142.029, 521.812 L 128.133, 539.027 L 70.4216, 527.411 L 46.5404, 504.363 L 89.8401, 423.642 z "/>
<path style="fill:rgb(255, 199, 15);fill-opacity:1.0;fill-rule:evenodd;stroke:rgb(0, 0, 0);stroke-width:3.0;" d="M 591.494, 569.681 L 594.778, 541.014 L 608.904, 538.055 z "/>
<path style="fill:rgb(240, 40, 15);fill-opacity:1.0;fill-rule:evenodd;stroke:rgb(0, 0, 0);stroke-width:3.0;" d="M 498.726, 184.717 L 486.131, 217.258 L 477.442, 225.075 L 493.843, 170.143 z "/>
<path style="fill:rgb(255, 130, 11);fill-opacity:1.0;fill-rule:evenodd;stroke:rgb(0, 0, 0);stroke-width:3.0;" d="M 559.109, 162.575 L 558.798, 171.584 L 540.912, 167.978 L 553.992, 156.212 z "/>
<path style="fill:rgb(255, 130, 11);fill-opacity:1.0;fill-rule:evenodd;stroke:rgb(0, 0, 0);stroke-width:3.0;" d="M 556.852, 65.5657 L 516.221, 68.646 L 510.101, 65.8423 L 525.528, 46.7314 z "/>
<path style="fill:rgb(231, 45, 175);fill-opacity:1.0;fill-rule:evenodd;stroke:rgb(0, 0, 0);stroke-width:3.0;" d="M 265.705, 318.142 L 227.29, 324.7 L 201.945, 318.349 L 228.137, 303.841 z "/>
<path style="fill:rgb(231, 45, 175);fill-opacity:1.0;fill-rule:evenodd;stroke:rgb(0, 0, 0);stroke-width:3.0;" d="M 101.896, 139.165 L 77.6143, 168.238 L 72.7345, 165.35 L 70.6648, 146.283 L 93.0321, 133.535 z "/>
<path style="fill:rgb(105, 246, 237);fill-opacity:1.0;fill-rule:evenodd;stroke:rgb(0, 0, 0);stroke-width:3.0;" d="M 580.734, 143.173 L 571.366, 164.92 L 568.773, 158.2 L 568.101, 143.519 L 581.113, 131.814 z "/>
<path style="fill:rgb(105, 246, 237);fill-opacity:1.0;fill-rule:evenodd;stroke:rgb(0, 0, 0);stroke-width:3.0;" d="M 508.06, 283.517 L 509.362, 305.396 L 493.032, 280.039 z "/>
<path style="fill:rgb(105, 246, 237);fill-opacity:1.0;fill-rule:evenodd;stroke:rgb(0, 0, 0);stroke-width:3.0;" d="M 620.867, 173.919 L 630.396, 193.212 L 629.006, 199.504 L 603.827, 180.427 L 605.279, 161.945 z "/>
<path style="fill:rgb(105, 246, 237);fill-opacity:1.0;fill-rule:evenodd;stroke:rgb(0, 0, 0);stroke-width:3.0;" d="M 530.694, 177.17 L 505.381, 199.941 L 501.082, 178.629 L 508.078, 160.555 L 524.403, 153.857 z "/>
<path style="fill:rgb(105, 246, 237);fill-opacity:1.0;fill-rule:evenodd;stroke:rgb(0, 0, 0);stroke-width:3.0;" d="M 560.289, 45.481 L 560.367, 65.2992 L 556.852, 65.5657 L 536.142, 53.1133 L 536.753, 38.7466 L 546.011, 34.2283 z "/>
<path style="fill:rgb(94, 15, 255);fill-opacity:1.0;fill-rule:evenodd;stroke:rgb(0, 0, 0);stroke-width:3.0;" d="M 761.555, 321.551 L 754.961, 327.237 L 732.023, 334.439 L 728.224, 327.084 L 740.874, 310.448 z "/>
<path style="fill:rgb(94, 15, 255);fill-opacity:1.0;fill-rule:evenodd;stroke:rgb(0, 0, 0);stroke-width:3.0;" d="M 201.639, 232.001 L 184.995, 263.795 L 105.963, 212.012 L 121.047, 202.264 z "/>
<path style="fill:rgb(48, 29, 255);fill-opacity:1.0;fill-rule:evenodd;stroke:rgb(0, 0, 0);stroke-width:3.0;" d="M 704.688, 357.619 L 690.026, 371.072 L 678.268, 367.731 L 673.424, 356.493 L 696.389, 351.594 z "/>
<path style="fill:rgb(48, 29, 255);fill-opacity:1.0;fill-rule:evenodd;stroke:rgb(0, 0, 0);stroke-width:3.0;" d="M 267.505, 318.827 L 253.561, 330.054 L 245.081, 321.663 L 265.705, 318.142 z "/>
<path style="fill:rgb(55, 255, 252);fill-opacity:1.0;fill-rule:evenodd;stroke:rgb(0, 0, 0);stroke-width:3.0;" d="M 588.623, 247.162 L 517.52, 318.063 L 513.513, 311.841 L 575.613, 242.504 z "/>
<path style="fill:rgb(55, 255, 252);fill-opacity:1.0;fill-rule:evenodd;stroke:rgb(0, 0, 0);stroke-width:3.0;" d="M 51.7667, 51.9061 L 57.7037, 67.0425 L 55.316, 67.3261 L 46.9819, 61.2503 L 45.6153, 52.9876 L 47.6965, 45.719 z "/>
<path style="fill:rgb(55, 255, 252);fill-opacity:1.0;fill-rule:evenodd;stroke:rgb(0, 0, 0);stroke-width:3.0;" d="M 75.0608, 194.484 L 78.9239, 207.866 L 54.9803, 184.559 L 55.5976, 182.685 z "/>
<path style="fill:rgb(55, 255, 252);fill-opacity:1.0;fill-rule:evenodd;stroke:rgb(0, 0, 0);stroke-width:3.0;" d="M 595.841, 531.737 L 594.552, 542.983 L 575.542, 539.219 L 575.523, 511.928 z "/>
<path style="fill:rgb(255, 255, 9);fill-opacity:1.0;fill-rule:evenodd;stroke:rgb(0, 0, 0);stroke-width:3.0;" d="M 77.8278, 23.4743 L 69.7729, 49.6714 L 51.8142, 51.9784 L 47.6965, 45.719 L 58.4177, 8.27474 z "/>
<path style="fill:rgb(194, 255, 177);fill-opacity:1.0;fill-rule:evenodd;stroke:rgb(0, 0, 0);stroke-width:3.0;" d="M 708.176, 463.288 L 628.84, 524.748 L 689.097, 432.509 z "/>
<path style="fill:rgb(194, 255, 177);fill-opacity:1.0;fill-rule:evenodd;stroke:rgb(0, 0, 0);stroke-width:3.0;" d="M 558.652, 175.793 L 558.561, 178.452 L 533.724, 176.283 L 539.267, 169.866 z "/>
<path style="fill:rgb(249, 184, 57);fill-opacity:1.0;fill-rule:evenodd;stroke:rgb(0, 0, 0);stroke-width:3.0;" d="M 639.811, 507.954 L 625.848, 529.329 L 623.16, 522.989 L 636.539, 502.874 z "/>
<path style="fill:rgb(249, 184, 57);fill-opacity:1.0;fill-rule:evenodd;stroke:rgb(0, 0, 0);stroke-width:3.0;" d="M 752.324, 335.724 L 738.081, 346.165 L 732.023, 334.439 L 758.618, 326.089 z "/>
<path style="fill:rgb(249, 184, 57);fill-opacity:1.0;fill-rule:evenodd;stroke:rgb(0, 0, 0);stroke-width:3.0;" d="M 587.031, 425.998 L 95.9996, 578.834 L 423.877, 172.656 z "/>
<path style="fill:rgb(255, 255, 179);fill-opacity:1.0;fill-rule:evenodd;stroke:rgb(0, 0, 0);stroke-width:3.0;" d="M 359.073, 252.937 L 358.785, 253.293 L 357.321, 253.829 L 321.055, 262.496 L 295.35, 255.75 L 317.795, 240.694 z "/>
<path style="fill:rgb(255, 255, 179);fill-opacity:1.0;fill-rule:evenodd;stroke:rgb(0, 0, 0);stroke-width:3.0;" d="M 790.505, 491.838 L 779.315, 567.763 L 772.726, 567.427 L 767.685, 559.294 L 755.436, 487.396 z "/>
<path style="fill:rgb(255, 255, 179);fill-opacity:1.0;fill-rule:evenodd;stroke:rgb(0, 0, 0);stroke-width:3.0;" d="M 490.579, 130.336 L 474.066, 110.483 L 481.116, 101.749 L 510.205, 99.2918 z "/>
<path style="fill:rgb(237, 255, 126);fill-opacity:1.0;fill-rule:evenodd;stroke:rgb(0, 0, 0);stroke-width:3.0;" d="M 121.047, 202.264 L 112.039, 208.086 L 65.8646, 182.307 L 66.122, 181.999 z "/>
<path style="fill:rgb(237, 255, 126);fill-opacity:1.0;fill-rule:evenodd;stroke:rgb(0, 0, 0);stroke-width:3.0;" d="M 112.039, 208.086 L 105.963, 212.012 L 64.012, 184.525 L 65.8646, 182.307 z "/>
<path style="fill:rgb(199, 47, 6);fill-opacity:1.0;fill-rule:evenodd;stroke:rgb(0, 0, 0);stroke-width:3.0;" d="M 779.84, 293.603 L 778.785, 295.218 L 593.591, 152.967 L 594.095, 101.158 z "/>
<path style="fill:rgb(199, 47, 6);fill-opacity:1.0;fill-rule:evenodd;stroke:rgb(0, 0, 0);stroke-width:3.0;" d="M 75.4412, 166.952 L 73.9694, 172.533 L 55.4845, 168.054 L 50.9391, 165.549 L 66.1304, 161.442 z "/>
<path style="fill:rgb(199, 47, 6);fill-opacity:1.0;fill-rule:evenodd;stroke:rgb(0, 0, 0);stroke-width:3.0;" d="M 28.2031, 292.7 L 23.1891, 299.327 L 21.8673, 298.252 L 24.147, 275.106 L 27.2443, 271.258 z "/>
<path style="fill:rgb(11, 75, 231);fill-opacity:1.0;fill-rule:evenodd;stroke:rgb(0, 0, 0);stroke-width:3.0;" d="M 614.541, 510.082 L 599.388, 520.09 L 597.295, 519.047 L 599.543, 499.422 L 603.871, 497.891 z "/>
<path style="fill:rgb(11, 75, 231);fill-opacity:1.0;fill-rule:evenodd;stroke:rgb(0, 0, 0);stroke-width:3.0;" d="M 271.032, 249.368 L 240.593, 241.38 L 281.758, 225.628 z "/>
<path style="fill:rgb(70, 7, 246);fill-opacity:1.0;fill-rule:evenodd;stroke:rgb(0, 0, 0);stroke-width:3.0;" d="M 234.287, 145.993 L 162.122, 151.428 L 185.873, 108.081 z "/>
<path style="fill:rgb(70, 7, 246);fill-opacity:1.0;fill-rule:evenodd;stroke:rgb(0, 0, 0);stroke-width:3.0;" d="M 617.023, 260.831 L 610.214, 258.918 L 592.921, 221.856 L 593.386, 174.106 z "/>
<path style="fill:rgb(70, 7, 246);fill-opacity:1.0;fill-rule:evenodd;stroke:rgb(0, 0, 0);stroke-width:3.0;" d="M 396.199, 70.8666 L 393.551, 79.8478 L 353.975, 56.4863 z "/>
<path style="fill:rgb(124, 255, 184);fill-opacity:1.0;fill-rule:evenodd;stroke:rgb(0, 0, 0);stroke-width:3.0;" d="M 80.7279, 340.163 L 121.63, 399.37 L 60.8386, 386.725 L 31.6491, 367.117 L 35.2653, 334.044 z "/>
<path style="fill:rgb(124, 255, 184);fill-opacity:1.0;fill-rule:evenodd;stroke:rgb(0, 0, 0);stroke-width:3.0;" d="M 440.077, 107.62 L 416.536, 115.168 L 398.454, 113.066 L 434.729, 102.274 z "/>
<path style="fill:rgb(11, 11, 234);fill-opacity:1.0;fill-rule:evenodd;stroke:rgb(0, 0, 0);stroke-width:3.0;" d="M 610.214, 258.918 L 592.609, 253.972 L 592.814, 232.883 L 595.091, 226.505 z "/>
<path style="fill:rgb(11, 11, 234);fill-opacity:1.0;fill-rule:evenodd;stroke:rgb(0, 0, 0);stroke-width:3.0;" d="M 726.654, 52.6927 L 648.316, 58.6316 L 646.782, 50.9603 L 713.919, 35.1374 z "/>
<path style="fill:rgb(234, 10, 8);fill-opacity:1.0;fill-rule:evenodd;stroke:rgb(0, 0, 0);stroke-width:3.0;" d="M 599.23, 502.153 L 583.621, 519.823 L 581.521, 517.776 L 589.998, 502.799 L 599.543, 499.422 z "/>
<path style="fill:rgb(234, 10, 8);fill-opacity:1.0;fill-rule:evenodd;stroke:rgb(0, 0, 0);stroke-width:3.0;" d="M 203.898, 231.75 L 216.112, 245.311 L 215.305, 251.137 L 187.522, 265.451 L 184.995, 263.795 L 202.027, 231.259 z "/>
<path style="fill:rgb(234, 10, 8);fill-opacity:1.0;fill-rule:evenodd;stroke:rgb(0, 0, 0);stroke-width:3.0;" d="M 740.874, 310.448 L 728.224, 327.084 L 722.559, 316.118 L 723.125, 300.919 z "/>
<path style="fill:rgb(255, 132, 25);fill-opacity:1.0;fill-rule:evenodd;stroke:rgb(0, 0, 0);stroke-width:3.0;" d="M 634.278, 265.678 L 667.283, 342.246 L 595.986, 439.904 L 590.878, 431.973 L 592.609, 253.972 z "/>
<path style="fill:rgb(255, 132, 25);fill-opacity:1.0;fill-rule:evenodd;stroke:rgb(0, 0, 0);stroke-width:3.0;" d="M 64.7964, 124.255 L 52.1227, 112.303 L 82.7935, 80.5388 L 103.563, 78.0412 z "/>
<path style="fill:rgb(255, 132, 25);fill-opacity:1.0;fill-rule:evenodd;stroke:rgb(0, 0, 0);stroke-width:3.0;" d="M 489.801, 134.101 L 467.721, 182.365 L 457.002, 183.902 L 456.861, 183.671 L 492.938, 126.604 z "/>
<path style="fill:rgb(255, 132, 25);fill-opacity:1.0;fill-rule:evenodd;stroke:rgb(0, 0, 0);stroke-width:3.0;" d="M 623.504, 32.5305 L 614.464, 61.198 L 613.268, 61.2887 L 608.933, 25.4127 L 613.478, 20.9892 z "/>
<path style="fill:rgb(255, 132, 25);fill-opacity:1.0;fill-rule:evenodd;stroke:rgb(0, 0, 0);stroke-width:3.0;" d="M 112.55, 68.4514 L 113.933, 75.1248 L 108.483, 79.5956 L 99.6497, 73.8822 L 101.933, 69.3226 L 110.389, 66.4301 z "/>
<path style="fill:rgb(255, 132, 25);fill-opacity:1.0;fill-rule:evenodd;stroke:rgb(0, 0, 0);stroke-width:3.0;" d="M 271.037, 320.171 L 285.079, 329.372 L 274.988, 343.7 L 267.622, 343.127 L 266.217, 319.864 L 267.505, 318.827 z "/>
<path style="fill:rgb(67, 148, 228);fill-opacity:1.0;fill-rule:evenodd;stroke:rgb(0, 0, 0);stroke-width:3.0;" d="M 706.082, 88.0005 L 654.595, 90.1938 L 710.586, 77.9562 z "/>
<path style="fill:rgb(249, 69, 152);fill-opacity:1.0;fill-rule:evenodd;stroke:rgb(0, 0, 0);stroke-width:3.0;" d="M 128.133, 539.027 L 108.131, 563.805 L 70.4216, 527.411 z "/>
<path style="fill:rgb(249, 69, 152);fill-opacity:1.0;fill-rule:evenodd;stroke:rgb(0, 0, 0);stroke-width:3.0;" d="M 253.094, 290.037 L 246.906, 281.997 L 263.705, 256.143 z "/>
<path style="fill:rgb(249, 69, 152);fill-opacity:1.0;fill-rule:evenodd;stroke:rgb(0, 0, 0);stroke-width:3.0;" d="M 187.289, 456.751 L 157.779, 434.5 L 180.91, 423.764 z "/>
<path style="fill:rgb(249, 69, 152);fill-opacity:1.0;fill-rule:evenodd;stroke:rgb(0, 0, 0);stroke-width:3.0;" d="M 658.167, 221.598 L 646.085, 261.783 L 638.423, 256.702 L 656.138, 220.061 z "/>
<path style="fill:rgb(249, 69, 152);fill-opacity:1.0;fill-rule:evenodd;stroke:rgb(0, 0, 0);stroke-width:3.0;" d="M 750.219, 291.341 L 746.383, 313.406 L 735.176, 307.389 L 743.773, 286.457 z "/>
<path style="fill:rgb(249, 69, 152);fill-opacity:1.0;fill-rule:evenodd;stroke:rgb(0, 0, 0);stroke-width:3.0;" d="M 66.1304, 161.442 L 51.9107, 165.287 L 43.4316, 160.529 L 45.8691, 155.998 L 55.479, 155.138 z "/>
<path style="fill:rgb(246, 52, 27);fill-opacity:1.0;fill-rule:evenodd;stroke:rgb(0, 0, 0);stroke-width:3.0;" d="M 253.53, 292.729 L 254.441, 309.298 L 245.134, 303.199 L 235.977, 288.918 L 240.07, 273.507 z "/>
<path style="fill:rgb(246, 52, 27);fill-opacity:1.0;fill-rule:evenodd;stroke:rgb(0, 0, 0);stroke-width:3.0;" d="M 537.186, 102.853 L 542.984, 114.058 L 537.431, 122.205 L 531.568, 107.727 L 533.952, 98.7672 z "/>
<path style="fill:rgb(246, 52, 27);fill-opacity:1.0;fill-rule:evenodd;stroke:rgb(0, 0, 0);stroke-width:3.0;" d="M 385.516, 220.178 L 383.495, 222.683 L 285.102, 158.229 L 285.127, 157.411 z "/>
<path style="fill:rgb(246, 52, 27);fill-opacity:1.0;fill-rule:evenodd;stroke:rgb(0, 0, 0);stroke-width:3.0;" d="M 699.396, 416.744 L 639.811, 507.954 L 595.986, 439.904 L 667.283, 342.246 z "/>
<path style="fill:rgb(150, 45, 255);fill-opacity:1.0;fill-rule:evenodd;stroke:rgb(0, 0, 0);stroke-width:3.0;" d="M 769.331, 287.956 L 765.049, 297.244 L 753.671, 279.787 L 752.53, 275.051 z "/>
<path style="fill:rgb(150, 45, 255);fill-opacity:1.0;fill-rule:evenodd;stroke:rgb(0, 0, 0);stroke-width:3.0;" d="M 555.148, 543.066 L 522.305, 526.75 L 563.87, 512.044 z "/>
<path style="fill:rgb(246, 34, 223);fill-opacity:1.0;fill-rule:evenodd;stroke:rgb(0, 0, 0);stroke-width:3.0;" d="M 448.24, 180.084 L 446.656, 187.371 L 432.488, 186.027 L 423.877, 172.656 L 425.862, 170.198 L 444.413, 166.387 z "/>
<path style="fill:rgb(246, 34, 223);fill-opacity:1.0;fill-rule:evenodd;stroke:rgb(0, 0, 0);stroke-width:3.0;" d="M 474.535, 234.811 L 471.168, 246.088 L 454.059, 219.523 L 469.117, 183.535 z "/>
<path style="fill:rgb(246, 34, 223);fill-opacity:1.0;fill-rule:evenodd;stroke:rgb(0, 0, 0);stroke-width:3.0;" d="M 151.908, 334.127 L 72.2795, 327.934 L 57.1238, 305.995 L 37.7622, 208.115 L 56.2594, 195.823 z "/>
<path style="fill:rgb(255, 95, 255);fill-opacity:1.0;fill-rule:evenodd;stroke:rgb(0, 0, 0);stroke-width:3.0;" d="M 202.681, 318.533 L 203.901, 328.693 L 194.169, 330.355 L 185.057, 327.704 L 201.945, 318.349 z "/>
<path style="fill:rgb(47, 138, 255);fill-opacity:1.0;fill-rule:evenodd;stroke:rgb(0, 0, 0);stroke-width:3.0;" d="M 774.935, 49.0323 L 726.654, 52.6927 L 713.919, 35.1374 L 785.122, 18.3562 z "/>
<path style="fill:rgb(255, 255, 6);fill-opacity:1.0;fill-rule:evenodd;stroke:rgb(0, 0, 0);stroke-width:3.0;" d="M 608.061, 556.555 L 596.108, 574.854 L 591.187, 572.357 L 591.494, 569.681 L 603.471, 547.924 z "/>
<path style="fill:rgb(255, 255, 6);fill-opacity:1.0;fill-rule:evenodd;stroke:rgb(0, 0, 0);stroke-width:3.0;" d="M 607.419, 55.3526 L 587.866, 49.8503 L 584.796, 47.2907 L 584.743, 30.4038 z "/>
<path style="fill:rgb(255, 255, 6);fill-opacity:1.0;fill-rule:evenodd;stroke:rgb(0, 0, 0);stroke-width:3.0;" d="M 436.224, 50.2853 L 439.277, 72.2292 L 422.374, 45.4616 z "/>
<path style="fill:rgb(184, 0, 58);fill-opacity:1.0;fill-rule:evenodd;stroke:rgb(0, 0, 0);stroke-width:3.0;" d="M 620.533, 516.929 L 614.619, 527.673 L 599.388, 520.09 L 614.541, 510.082 z "/>
<path style="fill:rgb(92, 184, 255);fill-opacity:1.0;fill-rule:evenodd;stroke:rgb(0, 0, 0);stroke-width:3.0;" d="M 575.538, 534.05 L 575.552, 553.202 L 555.148, 543.066 L 560.116, 525.395 z "/>
<path style="fill:rgb(92, 184, 255);fill-opacity:1.0;fill-rule:evenodd;stroke:rgb(0, 0, 0);stroke-width:3.0;" d="M 69.0736, 81.5594 L 69.7297, 94.0684 L 62.0596, 102.012 L 59.4414, 100.74 L 66.2679, 79.7303 z "/>
<path style="fill:rgb(30, 20, 255);fill-opacity:1.0;fill-rule:evenodd;stroke:rgb(0, 0, 0);stroke-width:3.0;" d="M 317.795, 240.694 L 295.35, 255.75 L 293.88, 255.364 L 305.883, 237.161 z "/>
<path style="fill:rgb(30, 20, 255);fill-opacity:1.0;fill-rule:evenodd;stroke:rgb(0, 0, 0);stroke-width:3.0;" d="M 64.2204, 66.2686 L 61.4327, 66.5997 L 51.8142, 51.9784 L 63.7711, 50.4424 z "/>
<path style="fill:rgb(30, 20, 255);fill-opacity:1.0;fill-rule:evenodd;stroke:rgb(0, 0, 0);stroke-width:3.0;" d="M 187.289, 456.751 L 188.692, 464.006 L 176.617, 478.964 L 148.784, 438.675 L 157.779, 434.5 z "/>
<path style="fill:rgb(30, 20, 255);fill-opacity:1.0;fill-rule:evenodd;stroke:rgb(0, 0, 0);stroke-width:3.0;" d="M 741.358, 352.509 L 728.311, 372.481 L 721.34, 348.846 L 721.971, 331.905 L 725.88, 322.548 z "/>
<path style="fill:rgb(165, 152, 161);fill-opacity:1.0;fill-rule:evenodd;stroke:rgb(0, 0, 0);stroke-width:3.0;" d="M 696.389, 351.594 L 673.424, 356.493 L 671.326, 351.625 L 690.812, 347.546 z "/>
<path style="fill:rgb(165, 152, 161);fill-opacity:1.0;fill-rule:evenodd;stroke:rgb(0, 0, 0);stroke-width:3.0;" d="M 220.013, 332.56 L 213.255, 335.907 L 202.091, 332.659 L 203.046, 328.839 L 222.534, 325.512 z "/>
<path style="fill:rgb(165, 152, 161);fill-opacity:1.0;fill-rule:evenodd;stroke:rgb(0, 0, 0);stroke-width:3.0;" d="M 743.242, 287.749 L 735.176, 307.389 L 724.915, 301.881 L 724.951, 301.328 L 729.541, 284.678 z "/>
<path style="fill:rgb(165, 152, 161);fill-opacity:1.0;fill-rule:evenodd;stroke:rgb(0, 0, 0);stroke-width:3.0;" d="M 441.317, 151.052 L 385.516, 220.178 L 285.127, 157.411 L 285.522, 144.736 z "/>
<path style="fill:rgb(165, 152, 161);fill-opacity:1.0;fill-rule:evenodd;stroke:rgb(0, 0, 0);stroke-width:3.0;" d="M 493.649, 170.795 L 480.893, 155.392 L 492.938, 126.604 L 519.288, 84.9242 z "/>
<path style="fill:rgb(207, 3, 28);fill-opacity:1.0;fill-rule:evenodd;stroke:rgb(0, 0, 0);stroke-width:3.0;" d="M 723.471, 291.614 L 689.054, 291.975 L 692.632, 287.3 L 724.11, 274.472 z "/>
<path style="fill:rgb(252, 34, 255);fill-opacity:1.0;fill-rule:evenodd;stroke:rgb(0, 0, 0);stroke-width:3.0;" d="M 425.023, 29.1738 L 422.326, 33.4142 L 407.812, 41.4973 L 405.5, 39.3235 L 409.596, 25.4328 z "/>
<path style="fill:rgb(252, 34, 255);fill-opacity:1.0;fill-rule:evenodd;stroke:rgb(0, 0, 0);stroke-width:3.0;" d="M 42.7582, 503.646 L 38.7837, 518.824 L 24.7019, 545.075 L 27.5091, 495.301 z "/>
<path style="fill:rgb(255, 157, 255);fill-opacity:1.0;fill-rule:evenodd;stroke:rgb(0, 0, 0);stroke-width:3.0;" d="M 111.645, 81.641 L 98.2773, 108.213 L 70.2509, 129.398 L 64.7964, 124.255 L 103.563, 78.0412 L 105.685, 77.786 z "/>
<path style="fill:rgb(249, 243, 7);fill-opacity:1.0;fill-rule:evenodd;stroke:rgb(0, 0, 0);stroke-width:3.0;" d="M 464.105, 195.515 L 454.059, 219.523 L 444.036, 203.958 L 456.861, 183.671 z "/>
<path style="fill:rgb(170, 255, 240);fill-opacity:1.0;fill-rule:evenodd;stroke:rgb(0, 0, 0);stroke-width:3.0;" d="M 35.8134, 329.031 L 35.0148, 336.335 L 15.4657, 363.25 L 20.0986, 316.21 L 24.2857, 305.068 z "/>
<path style="fill:rgb(255, 76, 11);fill-opacity:1.0;fill-rule:evenodd;stroke:rgb(0, 0, 0);stroke-width:3.0;" d="M 537.302, 136.506 L 540.071, 147.429 L 518.979, 156.083 L 509.796, 156.114 L 515.958, 140.196 L 533.069, 134.942 z "/>
<path style="fill:rgb(255, 246, 16);fill-opacity:1.0;fill-rule:evenodd;stroke:rgb(0, 0, 0);stroke-width:3.0;" d="M 157.972, 451.975 L 176.617, 478.964 L 142.029, 521.812 L 149.339, 446.176 z "/>
<path style="fill:rgb(152, 255, 255);fill-opacity:1.0;fill-rule:evenodd;stroke:rgb(0, 0, 0);stroke-width:3.0;" d="M 752.53, 275.051 L 755.093, 285.687 L 747.881, 289.569 L 714.661, 264.4 L 727.804, 256.059 z "/>
<path style="fill:rgb(255, 255, 11);fill-opacity:1.0;fill-rule:evenodd;stroke:rgb(0, 0, 0);stroke-width:3.0;" d="M 533.59, 289.425 L 513.513, 311.841 L 509.362, 305.396 L 508.06, 283.517 z "/>
<path style="fill:rgb(255, 255, 11);fill-opacity:1.0;fill-rule:evenodd;stroke:rgb(0, 0, 0);stroke-width:3.0;" d="M 303.31, 240.766 L 278.59, 251.352 L 271.032, 249.368 L 276.891, 236.401 L 289.371, 234.947 z "/>
<path style="fill:rgb(34, 33, 255);fill-opacity:1.0;fill-rule:evenodd;stroke:rgb(0, 0, 0);stroke-width:3.0;" d="M 575.98, 176.884 L 560.686, 178.638 L 558.561, 178.452 L 558.749, 173.009 L 573.423, 170.254 z "/>
<path style="fill:rgb(34, 33, 255);fill-opacity:1.0;fill-rule:evenodd;stroke:rgb(0, 0, 0);stroke-width:3.0;" d="M 658.317, 243.107 L 656.865, 268.933 L 646.085, 261.783 L 651.774, 242.861 z "/>
<path style="fill:rgb(34, 33, 255);fill-opacity:1.0;fill-rule:evenodd;stroke:rgb(0, 0, 0);stroke-width:3.0;" d="M 286.914, 100.1 L 285.102, 158.229 L 176.825, 87.3015 z "/>
<path style="fill:rgb(243, 215, 26);fill-opacity:1.0;fill-rule:evenodd;stroke:rgb(0, 0, 0);stroke-width:3.0;" d="M 642.087, 52.0667 L 615.357, 58.3664 L 623.466, 32.6505 z "/>
<path style="fill:rgb(255, 246, 56);fill-opacity:1.0;fill-rule:evenodd;stroke:rgb(0, 0, 0);stroke-width:3.0;" d="M 373.863, 234.614 L 363.637, 247.283 L 345.447, 233.039 L 345.333, 232.722 L 360.403, 217.917 z "/>
<path style="fill:rgb(255, 121, 57);fill-opacity:1.0;fill-rule:evenodd;stroke:rgb(0, 0, 0);stroke-width:3.0;" d="M 360.403, 217.917 L 345.333, 232.722 L 340.181, 218.321 L 353.117, 208.88 z "/>
<path style="fill:rgb(18, 255, 231);fill-opacity:1.0;fill-rule:evenodd;stroke:rgb(0, 0, 0);stroke-width:3.0;" d="M 269.349, 147.91 L 271.733, 152.962 L 269.512, 162.599 L 248.777, 134.435 z "/>
<path style="fill:rgb(255, 231, 15);fill-opacity:1.0;fill-rule:evenodd;stroke:rgb(0, 0, 0);stroke-width:3.0;" d="M 159.598, 76.0165 L 156.052, 84.7297 L 69.8419, 17.2208 z "/>
<path style="fill:rgb(252, 81, 226);fill-opacity:1.0;fill-rule:evenodd;stroke:rgb(0, 0, 0);stroke-width:3.0;" d="M 139.494, 425.228 L 151.114, 442.048 L 131.848, 434.426 L 98.3136, 411.899 z "/>
<path style="fill:rgb(255, 37, 132);fill-opacity:1.0;fill-rule:evenodd;stroke:rgb(0, 0, 0);stroke-width:3.0;" d="M 121.63, 399.37 L 139.494, 425.228 L 98.3136, 411.899 L 96.2752, 410.53 L 91.5134, 393.105 z "/>
<path style="fill:rgb(255, 252, 16);fill-opacity:1.0;fill-rule:evenodd;stroke:rgb(0, 0, 0);stroke-width:3.0;" d="M 270.877, 317.499 L 271.033, 320.169 L 254.441, 309.298 L 253.53, 292.729 z "/>
<path style="fill:rgb(255, 187, 9);fill-opacity:1.0;fill-rule:evenodd;stroke:rgb(0, 0, 0);stroke-width:3.0;" d="M 229.226, 327.897 L 233.661, 339.516 L 218.628, 336.434 L 222.534, 325.512 L 226.967, 324.755 z "/>
<path style="fill:rgb(22, 108, 255);fill-opacity:1.0;fill-rule:evenodd;stroke:rgb(0, 0, 0);stroke-width:3.0;" d="M 321.147, 214.011 L 308.838, 232.679 L 288.443, 235.055 L 281.143, 226.989 L 281.758, 225.628 L 318.183, 211.69 z "/>
<path style="fill:rgb(252, 215, 8);fill-opacity:1.0;fill-rule:evenodd;stroke:rgb(0, 0, 0);stroke-width:3.0;" d="M 541.845, 280.208 L 533.59, 289.425 L 493.032, 280.039 L 471.168, 246.088 L 477.442, 225.075 L 480.405, 222.409 z "/>
<path style="fill:rgb(23, 246, 255);fill-opacity:1.0;fill-rule:evenodd;stroke:rgb(0, 0, 0);stroke-width:3.0;" d="M 627.863, 489.402 L 408.714, 566.94 L 338.827, 503.253 L 587.031, 425.998 z "/>
<path style="fill:rgb(15, 94, 255);fill-opacity:1.0;fill-rule:evenodd;stroke:rgb(0, 0, 0);stroke-width:3.0;" d="M 411.185, 50.9299 L 394.207, 77.6225 L 402.877, 48.2192 z "/>
<path style="fill:rgb(15, 94, 255);fill-opacity:1.0;fill-rule:evenodd;stroke:rgb(0, 0, 0);stroke-width:3.0;" d="M 427.961, 13.656 L 427.343, 25.5255 L 425.023, 29.1738 L 423.957, 28.9154 L 418.046, 12.0414 z "/>
<path style="fill:rgb(255, 255, 50);fill-opacity:1.0;fill-rule:evenodd;stroke:rgb(0, 0, 0);stroke-width:3.0;" d="M 579.769, 172.074 L 574.776, 173.761 L 573.991, 171.726 L 571.891, 163.7 L 580.734, 143.173 z "/>
<path style="fill:rgb(59, 228, 177);fill-opacity:1.0;fill-rule:evenodd;stroke:rgb(0, 0, 0);stroke-width:3.0;" d="M 505.381, 199.941 L 486.131, 217.258 L 501.082, 178.629 z "/>
<path style="fill:rgb(6, 202, 105);fill-opacity:1.0;fill-rule:evenodd;stroke:rgb(0, 0, 0);stroke-width:3.0;" d="M 266.823, 248.264 L 266.989, 251.09 L 261.857, 258.988 L 248.282, 251.477 L 249.462, 243.708 z "/>
<path style="fill:rgb(240, 5, 37);fill-opacity:1.0;fill-rule:evenodd;stroke:rgb(0, 0, 0);stroke-width:3.0;" d="M 137.451, 70.1634 L 146.155, 85.8472 L 132.083, 81.9685 L 124.568, 73.072 L 131.918, 65.8309 z "/>
<path style="fill:rgb(240, 5, 37);fill-opacity:1.0;fill-rule:evenodd;stroke:rgb(0, 0, 0);stroke-width:3.0;" d="M 12.6168, 392.176 L 10.1962, 416.753 L 7.59076, 417.398 L 6.3137, 413.725 L 8.09294, 391.614 z "/>
<path style="fill:rgb(10, 14, 182);fill-opacity:1.0;fill-rule:evenodd;stroke:rgb(0, 0, 0);stroke-width:3.0;" d="M 625.848, 529.329 L 610.167, 553.333 L 610.262, 535.587 L 620.566, 516.87 z "/>
<path style="fill:rgb(10, 14, 182);fill-opacity:1.0;fill-rule:evenodd;stroke:rgb(0, 0, 0);stroke-width:3.0;" d="M 246.973, 133.253 L 251.049, 159.119 L 156.052, 84.7297 L 159.598, 76.0165 z "/>
<path style="fill:rgb(179, 237, 67);fill-opacity:1.0;fill-rule:evenodd;stroke:rgb(0, 0, 0);stroke-width:3.0;" d="M 248.777, 134.435 L 269.512, 162.599 L 267.369, 171.899 L 251.049, 159.119 L 246.973, 133.253 z "/>
<path style="fill:rgb(255, 13, 11);fill-opacity:1.0;fill-rule:evenodd;stroke:rgb(0, 0, 0);stroke-width:3.0;" d="M 124.562, 97.7044 L 125.353, 101.842 L 99.4327, 115.535 L 110.623, 92.6394 z "/>
<path style="fill:rgb(255, 209, 138);fill-opacity:1.0;fill-rule:evenodd;stroke:rgb(0, 0, 0);stroke-width:3.0;" d="M 34.6258, 369.116 L 32.8366, 400.84 L 28.265, 398.066 L 31.6491, 367.117 z "/>
<path style="fill:rgb(255, 209, 138);fill-opacity:1.0;fill-rule:evenodd;stroke:rgb(0, 0, 0);stroke-width:3.0;" d="M 110.623, 92.6394 L 99.4327, 115.535 L 92.8423, 119.017 L 106.81, 91.2536 z "/>
<path style="fill:rgb(16, 9, 249);fill-opacity:1.0;fill-rule:evenodd;stroke:rgb(0, 0, 0);stroke-width:3.0;" d="M 778.785, 295.218 L 771.021, 307.102 L 763.226, 301.196 L 769.331, 287.956 z "/>
<path style="fill:rgb(17, 2, 237);fill-opacity:1.0;fill-rule:evenodd;stroke:rgb(0, 0, 0);stroke-width:3.0;" d="M 772.726, 567.427 L 761.298, 566.844 L 725.839, 549.038 L 732.076, 501.845 z "/>
<path style="fill:rgb(17, 2, 237);fill-opacity:1.0;fill-rule:evenodd;stroke:rgb(0, 0, 0);stroke-width:3.0;" d="M 584.776, 41.076 L 584.805, 50.3713 L 556.52, 29.1001 L 560.018, 27.3932 z "/>
<path style="fill:rgb(17, 2, 237);fill-opacity:1.0;fill-rule:evenodd;stroke:rgb(0, 0, 0);stroke-width:3.0;" d="M 544.47, 164.777 L 530.694, 177.17 L 524.403, 153.857 L 540.071, 147.429 z "/>
<path style="fill:rgb(17, 2, 237);fill-opacity:1.0;fill-rule:evenodd;stroke:rgb(0, 0, 0);stroke-width:3.0;" d="M 688.03, 244.223 L 724.215, 271.639 L 724.155, 273.263 L 688.645, 288.091 L 683.729, 244.062 z "/>
<path style="fill:rgb(17, 2, 237);fill-opacity:1.0;fill-rule:evenodd;stroke:rgb(0, 0, 0);stroke-width:3.0;" d="M 536.544, 133.515 L 520.11, 129.468 L 529.419, 105.416 z "/>
<path style="fill:rgb(255, 220, 13);fill-opacity:1.0;fill-rule:evenodd;stroke:rgb(0, 0, 0);stroke-width:3.0;" d="M 484.205, 548.726 L 462.599, 547.874 L 486.712, 539.343 z "/>
<path style="fill:rgb(255, 220, 13);fill-opacity:1.0;fill-rule:evenodd;stroke:rgb(0, 0, 0);stroke-width:3.0;" d="M 705.096, 403.69 L 697.373, 412.051 L 682.632, 377.855 L 696.669, 364.977 z "/>
<path style="fill:rgb(243, 8, 255);fill-opacity:1.0;fill-rule:evenodd;stroke:rgb(0, 0, 0);stroke-width:3.0;" d="M 555.878, 126.464 L 542.251, 130.708 L 540.979, 117.001 L 544.406, 111.972 z "/>
<path style="fill:rgb(243, 8, 255);fill-opacity:1.0;fill-rule:evenodd;stroke:rgb(0, 0, 0);stroke-width:3.0;" d="M 720.394, 374.233 L 719.985, 385.227 L 714.753, 393.236 L 705.096, 403.69 L 696.669, 364.977 L 706.966, 355.529 z "/>
<path style="fill:rgb(255, 2, 237);fill-opacity:1.0;fill-rule:evenodd;stroke:rgb(0, 0, 0);stroke-width:3.0;" d="M 720.394, 374.233 L 706.966, 355.529 L 721.591, 342.11 z "/>
<path style="fill:rgb(255, 4, 39);fill-opacity:1.0;fill-rule:evenodd;stroke:rgb(0, 0, 0);stroke-width:3.0;" d="M 585.512, 365.712 L 551.405, 370.679 L 517.52, 318.063 L 556.191, 279.502 z "/>
<path style="fill:rgb(119, 115, 255);fill-opacity:1.0;fill-rule:evenodd;stroke:rgb(0, 0, 0);stroke-width:3.0;" d="M 592.689, 245.701 L 591.889, 328.029 L 586.194, 365.612 L 585.512, 365.712 L 556.191, 279.502 L 590.561, 245.23 z "/>
<path style="fill:rgb(17, 142, 217);fill-opacity:1.0;fill-rule:evenodd;stroke:rgb(0, 0, 0);stroke-width:3.0;" d="M 123.081, 58.9107 L 122.346, 60.3709 L 113.81, 74.5325 L 112.583, 68.6119 L 114.678, 52.331 z "/>
<path style="fill:rgb(255, 19, 172);fill-opacity:1.0;fill-rule:evenodd;stroke:rgb(0, 0, 0);stroke-width:3.0;" d="M 56.2594, 195.823 L 38.2788, 207.772 L 39.0926, 171.001 z "/>
<path style="fill:rgb(255, 114, 36);fill-opacity:1.0;fill-rule:evenodd;stroke:rgb(0, 0, 0);stroke-width:3.0;" d="M 35.548, 165.875 L 39.0926, 171.001 L 38.2788, 207.772 L 37.7622, 208.115 L 28.4924, 161.252 z "/>
<path style="fill:rgb(255, 234, 13);fill-opacity:1.0;fill-rule:evenodd;stroke:rgb(0, 0, 0);stroke-width:3.0;" d="M 634.278, 265.678 L 617.023, 260.831 L 593.386, 174.106 L 593.417, 170.885 z "/>
<path style="fill:rgb(52, 179, 243);fill-opacity:1.0;fill-rule:evenodd;stroke:rgb(0, 0, 0);stroke-width:3.0;" d="M 270.6, 312.783 L 253.094, 290.037 L 263.705, 256.143 L 266.989, 251.09 z "/>
<path style="fill:rgb(13, 243, 72);fill-opacity:1.0;fill-rule:evenodd;stroke:rgb(0, 0, 0);stroke-width:3.0;" d="M 21.9275, 385.569 L 13.5589, 382.611 L 15.4657, 363.25 L 20.6914, 356.055 z "/>
<path style="fill:rgb(30, 112, 255);fill-opacity:1.0;fill-rule:evenodd;stroke:rgb(0, 0, 0);stroke-width:3.0;" d="M 29.3447, 388.191 L 21.9275, 385.569 L 20.6914, 356.055 L 35.0148, 336.335 z "/>
<path style="fill:rgb(9, 0, 249);fill-opacity:1.0;fill-rule:evenodd;stroke:rgb(0, 0, 0);stroke-width:3.0;" d="M 688.03, 244.223 L 655.768, 243.011 L 672.174, 232.21 z "/>
<path style="fill:rgb(231, 89, 16);fill-opacity:1.0;fill-rule:evenodd;stroke:rgb(0, 0, 0);stroke-width:3.0;" d="M 453.089, 163.778 L 443.613, 163.523 L 441.425, 155.692 L 454.719, 142.415 z "/>
<path style="fill:rgb(184, 255, 199);fill-opacity:1.0;fill-rule:evenodd;stroke:rgb(0, 0, 0);stroke-width:3.0;" d="M 134.528, 332.775 L 164.985, 341.412 L 180.91, 423.764 L 148.784, 438.675 L 94.5822, 360.217 L 126.024, 332.114 z "/>
<path style="fill:rgb(255, 51, 15);fill-opacity:1.0;fill-rule:evenodd;stroke:rgb(0, 0, 0);stroke-width:3.0;" d="M 755.241, 16.144 L 746.802, 27.0831 L 737.603, 12.1049 z "/>
<path style="fill:rgb(246, 58, 8);fill-opacity:1.0;fill-rule:evenodd;stroke:rgb(0, 0, 0);stroke-width:3.0;" d="M 783.866, 329.498 L 769.42, 339.1 L 755.37, 338.179 L 754.975, 337.744 L 758.66, 326.024 L 760.165, 323.72 z "/>
<path style="fill:rgb(255, 5, 255);fill-opacity:1.0;fill-rule:evenodd;stroke:rgb(0, 0, 0);stroke-width:3.0;" d="M 593.314, 181.488 L 592.908, 223.193 L 541.845, 280.208 L 518.953, 258.673 L 555.703, 178.203 z "/>
<path style="fill:rgb(255, 252, 34);fill-opacity:1.0;fill-rule:evenodd;stroke:rgb(0, 0, 0);stroke-width:3.0;" d="M 607.419, 55.3526 L 612.843, 61.3209 L 602.678, 62.0916 L 602.145, 61.7561 L 587.866, 49.8503 z "/>
<path style="fill:rgb(10, 223, 234);fill-opacity:1.0;fill-rule:evenodd;stroke:rgb(0, 0, 0);stroke-width:3.0;" d="M 672.174, 232.21 L 658.564, 241.171 L 654.512, 233.753 L 658.167, 221.598 z "/>
<path style="fill:rgb(255, 223, 10);fill-opacity:1.0;fill-rule:evenodd;stroke:rgb(0, 0, 0);stroke-width:3.0;" d="M 465.672, 120.881 L 441.317, 151.052 L 285.522, 144.736 L 286.914, 100.1 z "/>
<path style="fill:rgb(255, 223, 10);fill-opacity:1.0;fill-rule:evenodd;stroke:rgb(0, 0, 0);stroke-width:3.0;" d="M 318.183, 211.69 L 240.593, 241.38 L 229.194, 238.389 L 303.712, 200.358 z "/>
<path style="fill:rgb(255, 161, 255);fill-opacity:1.0;fill-rule:evenodd;stroke:rgb(0, 0, 0);stroke-width:3.0;" d="M 303.712, 200.358 L 229.194, 238.389 L 220.58, 236.128 L 220.275, 208.495 L 243.551, 153.247 z "/>
<path style="fill:rgb(175, 2, 255);fill-opacity:1.0;fill-rule:evenodd;stroke:rgb(0, 0, 0);stroke-width:3.0;" d="M 363.637, 247.283 L 359.073, 252.937 L 318.32, 240.85 L 330.669, 221.467 z "/>
<path style="fill:rgb(54, 240, 255);fill-opacity:1.0;fill-rule:evenodd;stroke:rgb(0, 0, 0);stroke-width:3.0;" d="M 255.241, 255.327 L 256.78, 266.8 L 255.865, 268.209 L 246.496, 263.23 L 248.282, 251.477 z "/>
<path style="fill:rgb(54, 240, 255);fill-opacity:1.0;fill-rule:evenodd;stroke:rgb(0, 0, 0);stroke-width:3.0;" d="M 357.519, 205.667 L 333.179, 223.432 L 306.899, 202.854 L 310.766, 175.041 z "/>
<path style="fill:rgb(249, 14, 243);fill-opacity:1.0;fill-rule:evenodd;stroke:rgb(0, 0, 0);stroke-width:3.0;" d="M 605.279, 161.945 L 603.827, 180.427 L 594.476, 173.343 L 593.417, 170.885 L 593.591, 152.967 z "/>
<path style="fill:rgb(249, 14, 243);fill-opacity:1.0;fill-rule:evenodd;stroke:rgb(0, 0, 0);stroke-width:3.0;" d="M 96.7153, 410.825 L 78.8027, 444.219 L 32.1375, 413.235 L 34.6258, 369.116 z "/>
<path style="fill:rgb(249, 14, 243);fill-opacity:1.0;fill-rule:evenodd;stroke:rgb(0, 0, 0);stroke-width:3.0;" d="M 310.766, 175.041 L 306.899, 202.854 L 267.369, 171.899 L 272.432, 149.93 z "/>
<path style="fill:rgb(52, 6, 240);fill-opacity:1.0;fill-rule:evenodd;stroke:rgb(0, 0, 0);stroke-width:3.0;" d="M 78.9239, 207.866 L 78.9755, 208.044 L 78.1718, 218.476 L 72.8912, 219.872 L 64.505, 207.746 L 60.7101, 190.137 z "/>
<path style="fill:rgb(249, 231, 15);fill-opacity:1.0;fill-rule:evenodd;stroke:rgb(0, 0, 0);stroke-width:3.0;" d="M 149.073, 125.809 L 109.42, 130.156 L 149.789, 81.8205 z "/>
<path style="fill:rgb(212, 52, 255);fill-opacity:1.0;fill-rule:evenodd;stroke:rgb(0, 0, 0);stroke-width:3.0;" d="M 732.076, 501.845 L 723.739, 564.927 L 606.5, 558.946 L 628.84, 524.748 L 708.176, 463.288 z "/>
<path style="fill:rgb(194, 10, 148);fill-opacity:1.0;fill-rule:evenodd;stroke:rgb(0, 0, 0);stroke-width:3.0;" d="M 123.271, 90.9563 L 107.241, 90.3957 L 118.778, 67.4634 z "/>
<path style="fill:rgb(223, 223, 20);fill-opacity:1.0;fill-rule:evenodd;stroke:rgb(0, 0, 0);stroke-width:3.0;" d="M 78.8027, 444.219 L 51.1467, 495.776 L 29.3256, 463.093 L 32.1375, 413.235 z "/>
<path style="fill:rgb(243, 47, 237);fill-opacity:1.0;fill-rule:evenodd;stroke:rgb(0, 0, 0);stroke-width:3.0;" d="M 650.395, 215.71 L 625.914, 246.274 L 594.476, 173.343 z "/>
<path style="fill:rgb(240, 57, 66);fill-opacity:1.0;fill-rule:evenodd;stroke:rgb(0, 0, 0);stroke-width:3.0;" d="M 519.288, 84.9242 L 510.266, 99.1946 L 492.007, 88.2565 L 507.291, 69.3231 L 524.332, 68.0312 z "/>
<path style="fill:rgb(255, 255, 57);fill-opacity:1.0;fill-rule:evenodd;stroke:rgb(0, 0, 0);stroke-width:3.0;" d="M 761.298, 566.844 L 723.739, 564.927 L 725.839, 549.038 z "/>
<path style="fill:rgb(255, 117, 9);fill-opacity:1.0;fill-rule:evenodd;stroke:rgb(0, 0, 0);stroke-width:3.0;" d="M 771.021, 307.102 L 761.575, 321.562 L 746.383, 313.406 L 750.219, 291.341 z "/>
<path style="fill:rgb(255, 255, 27);fill-opacity:1.0;fill-rule:evenodd;stroke:rgb(0, 0, 0);stroke-width:3.0;" d="M 240.397, 272.277 L 234.103, 295.972 L 211.178, 280.951 L 216.112, 245.311 z "/>
<path style="fill:rgb(45, 11, 255);fill-opacity:1.0;fill-rule:evenodd;stroke:rgb(0, 0, 0);stroke-width:3.0;" d="M 568.848, 142.847 L 545.341, 163.994 L 542.251, 130.708 L 555.878, 126.464 z "/>
<path style="fill:rgb(255, 12, 11);fill-opacity:1.0;fill-rule:evenodd;stroke:rgb(0, 0, 0);stroke-width:3.0;" d="M 639.539, 254.393 L 638.423, 256.702 L 627.201, 249.259 L 625.914, 246.274 L 632.058, 238.603 z "/>
<path style="fill:rgb(67, 252, 26);fill-opacity:1.0;fill-rule:evenodd;stroke:rgb(0, 0, 0);stroke-width:3.0;" d="M 211.178, 280.951 L 187.522, 265.451 L 215.305, 251.137 z "/>
<path style="fill:rgb(246, 3, 17);fill-opacity:1.0;fill-rule:evenodd;stroke:rgb(0, 0, 0);stroke-width:3.0;" d="M 303.464, 240.83 L 296.747, 251.017 L 292.976, 255.127 L 278.59, 251.352 L 303.31, 240.766 z "/>
<path style="fill:rgb(177, 0, 18);fill-opacity:1.0;fill-rule:evenodd;stroke:rgb(0, 0, 0);stroke-width:3.0;" d="M 509.141, 98.5204 L 484.788, 97.1999 L 492.007, 88.2565 z "/>
</svg>