<?xml version="1.0" encoding="iso-8859-1" standalone="no"?>
<!DOCTYPE svg PUBLIC "-//W3C//DTD SVG 1.0//EN" "http://www.w3.org/TR/2001/REC-SVG-20010904/DTD/svg10.dtd">
<svg xmlns="http://www.w3.org/2000/svg" width="800" height="600">
<path style="fill:rgb(0, 0, 0);fill-opacity:0.0;fill-rule:evenodd;stroke:rgb(0, 0, 0);stroke-width:0.0;" d="M 0, 600 L 800, 600 L 800, 0 L 0, 0 z "/>
<path style="fill:rgb(255, 85, 255);fill-opacity:1.0;fill-rule:evenodd;stroke:rgb(0, 0, 0);stroke-width:3.0;" d="M 717.577, 417.656 L 719.127, 430.536 L 696.314, 399.311 L 701.39, 393.04 z "/>
<path style="fill:rgb(237, 246, 14);fill-opacity:1.0;fill-rule:evenodd;stroke:rgb(0, 0, 0);stroke-width:3.0;" d="M 762.123, 494.823 L 767.931, 517.778 L 749.271, 532.748 L 744.076, 521.397 L 736.449, 469.956 z "/>
<path style="fill:rgb(240, 119, 6);fill-opacity:1.0;fill-rule:evenodd;stroke:rgb(0, 0, 0);stroke-width:3.0;" d="M 78.4351, 360.419 L 77.1149, 360.349 L 54.4157, 248.722 L 62.0145, 245.415 z "/>
<path style="fill:rgb(237, 228, 43);fill-opacity:1.0;fill-rule:evenodd;stroke:rgb(0, 0, 0);stroke-width:3.0;" d="M 74.1625, 345.83 L 72.4844, 349.647 L 63.2461, 341.476 L 61.5312, 335.507 L 61.8147, 335.324 L 71.3089, 331.797 z "/>
<path style="fill:rgb(249, 234, 142);fill-opacity:1.0;fill-rule:evenodd;stroke:rgb(0, 0, 0);stroke-width:3.0;" d="M 764.132, 577.811 L 754.335, 587.419 L 748.647, 573.08 L 759.793, 572.391 z "/>
<path style="fill:rgb(255, 237, 19);fill-opacity:1.0;fill-rule:evenodd;stroke:rgb(0, 0, 0);stroke-width:3.0;" d="M 37.5687, 366.68 L 35.1739, 375.254 L 25.7547, 371.512 L 34.1411, 358.746 z "/>
<path style="fill:rgb(255, 217, 48);fill-opacity:1.0;fill-rule:evenodd;stroke:rgb(0, 0, 0);stroke-width:3.0;" d="M 120.329, 519.323 L 108.465, 525.494 L 93.7469, 506.264 L 93.7965, 504.881 L 119.686, 493.764 z "/>
<path style="fill:rgb(255, 217, 48);fill-opacity:1.0;fill-rule:evenodd;stroke:rgb(0, 0, 0);stroke-width:3.0;" d="M 118.17, 433.459 L 91.9969, 489.024 L 58.9909, 485.553 L 118.159, 433.03 z "/>
<path style="fill:rgb(249, 21, 184);fill-opacity:1.0;fill-rule:evenodd;stroke:rgb(0, 0, 0);stroke-width:3.0;" d="M 748.377, 90.0794 L 749.105, 93.7513 L 741.371, 100.506 L 730.811, 91.2297 L 734.237, 88.022 z "/>
<path style="fill:rgb(95, 12, 255);fill-opacity:1.0;fill-rule:evenodd;stroke:rgb(0, 0, 0);stroke-width:3.0;" d="M 654.946, 391.011 L 322.466, 373.368 L 306.465, 276.213 L 357.938, 140.178 L 394.519, 138.758 z "/>
<path style="fill:rgb(95, 12, 255);fill-opacity:1.0;fill-rule:evenodd;stroke:rgb(0, 0, 0);stroke-width:3.0;" d="M 791.577, 103.283 L 786.123, 109.058 L 779.418, 105.744 L 772.608, 98.2016 L 789.682, 97.3761 z "/>
<path style="fill:rgb(95, 12, 255);fill-opacity:1.0;fill-rule:evenodd;stroke:rgb(0, 0, 0);stroke-width:3.0;" d="M 119.64, 491.932 L 119.686, 493.764 L 99.0498, 502.625 L 104.529, 490.343 z "/>
<path style="fill:rgb(95, 12, 255);fill-opacity:1.0;fill-rule:evenodd;stroke:rgb(0, 0, 0);stroke-width:3.0;" d="M 612.288, 388.747 L 623.605, 426.907 L 592.049, 387.673 z "/>
<path style="fill:rgb(95, 12, 255);fill-opacity:1.0;fill-rule:evenodd;stroke:rgb(0, 0, 0);stroke-width:3.0;" d="M 42.8779, 141.924 L 35.528, 155.838 L 33.9125, 147.893 L 34.2241, 132 z "/>
<path style="fill:rgb(95, 12, 255);fill-opacity:1.0;fill-rule:evenodd;stroke:rgb(0, 0, 0);stroke-width:3.0;" d="M 690.621, 43.2614 L 698.272, 56.8121 L 693.361, 58.3345 L 682.45, 48.7503 L 684.569, 41.95 z "/>
<path style="fill:rgb(255, 0, 243);fill-opacity:1.0;fill-rule:evenodd;stroke:rgb(0, 0, 0);stroke-width:3.0;" d="M 791.598, 131.586 L 782.489, 136.623 L 771.466, 126.941 L 782.4, 120.803 z "/>
<path style="fill:rgb(255, 243, 57);fill-opacity:1.0;fill-rule:evenodd;stroke:rgb(0, 0, 0);stroke-width:3.0;" d="M 753.577, 397.779 L 742.029, 377.026 L 743.859, 364.864 L 760.227, 337.866 z "/>
<path style="fill:rgb(61, 182, 255);fill-opacity:1.0;fill-rule:evenodd;stroke:rgb(0, 0, 0);stroke-width:3.0;" d="M 612.802, 388.775 L 648.002, 432.746 L 629.282, 433.967 L 623.605, 426.907 L 612.288, 388.747 z "/>
<path style="fill:rgb(61, 182, 255);fill-opacity:1.0;fill-rule:evenodd;stroke:rgb(0, 0, 0);stroke-width:3.0;" d="M 50.6349, 165.717 L 55.4305, 199.303 L 54.1998, 200.388 L 40.4192, 179.891 L 39.1932, 173.862 L 43.1366, 161.755 z "/>
<path style="fill:rgb(246, 14, 175);fill-opacity:1.0;fill-rule:evenodd;stroke:rgb(0, 0, 0);stroke-width:3.0;" d="M 717.283, 417.209 L 701.39, 393.04 L 710.743, 381.484 z "/>
<path style="fill:rgb(255, 126, 132);fill-opacity:1.0;fill-rule:evenodd;stroke:rgb(0, 0, 0);stroke-width:3.0;" d="M 601.372, 228.261 L 594.668, 233.252 L 588.987, 218.849 L 596.975, 216.894 z "/>
<path style="fill:rgb(255, 126, 132);fill-opacity:1.0;fill-rule:evenodd;stroke:rgb(0, 0, 0);stroke-width:3.0;" d="M 104.529, 490.343 L 99.0498, 502.625 L 86.1306, 508.173 L 67.8284, 486.482 z "/>
<path style="fill:rgb(255, 126, 132);fill-opacity:1.0;fill-rule:evenodd;stroke:rgb(0, 0, 0);stroke-width:3.0;" d="M 24.5585, 32.8124 L 23.5725, 42.9976 L 12.162, 40.9311 L 9.35074, 27.1063 L 10.4333, 25.2801 z "/>
<path style="fill:rgb(46, 89, 234);fill-opacity:1.0;fill-rule:evenodd;stroke:rgb(0, 0, 0);stroke-width:3.0;" d="M 116.546, 368.887 L 117.529, 407.974 L 106.723, 403.681 L 75.5992, 361.032 z "/>
<path style="fill:rgb(46, 89, 234);fill-opacity:1.0;fill-rule:evenodd;stroke:rgb(0, 0, 0);stroke-width:3.0;" d="M 782.79, 137.819 L 780.746, 272.579 L 633.098, 369.849 L 573.031, 311.667 L 703.313, 155.028 L 763.675, 127.771 z "/>
<path style="fill:rgb(255, 39, 170);fill-opacity:1.0;fill-rule:evenodd;stroke:rgb(0, 0, 0);stroke-width:3.0;" d="M 777.964, 526.975 L 759.272, 537.267 L 764.195, 521.644 L 766.299, 519.087 L 773.978, 512.926 z "/>
<path style="fill:rgb(34, 102, 255);fill-opacity:1.0;fill-rule:evenodd;stroke:rgb(0, 0, 0);stroke-width:3.0;" d="M 626.28, 209.72 L 530.004, 233.287 L 694.263, 159.114 z "/>
<path style="fill:rgb(255, 255, 57);fill-opacity:1.0;fill-rule:evenodd;stroke:rgb(0, 0, 0);stroke-width:3.0;" d="M 652.924, 414.983 L 630.04, 402.796 L 653.213, 394.294 z "/>
<path style="fill:rgb(255, 255, 57);fill-opacity:1.0;fill-rule:evenodd;stroke:rgb(0, 0, 0);stroke-width:3.0;" d="M 614.101, 49.1486 L 706.001, 153.814 L 504.159, 244.957 L 463.739, 205.806 L 494.329, 63.3864 L 588.984, 35.9459 z "/>
<path style="fill:rgb(255, 179, 31);fill-opacity:1.0;fill-rule:evenodd;stroke:rgb(0, 0, 0);stroke-width:3.0;" d="M 763.675, 127.771 L 706.001, 153.814 L 614.101, 49.1486 z "/>
<path style="fill:rgb(204, 255, 15);fill-opacity:1.0;fill-rule:evenodd;stroke:rgb(0, 0, 0);stroke-width:3.0;" d="M 16.7409, 177.915 L 50.4974, 248.515 L 33.8452, 239.139 L 16.2313, 177.83 z "/>
<path style="fill:rgb(249, 24, 192);fill-opacity:1.0;fill-rule:evenodd;stroke:rgb(0, 0, 0);stroke-width:3.0;" d="M 45.2012, 278.667 L 17.4738, 311.375 L 8.08948, 252.705 L 6.39443, 240.857 L 31.4114, 230.668 z "/>
<path style="fill:rgb(249, 24, 192);fill-opacity:1.0;fill-rule:evenodd;stroke:rgb(0, 0, 0);stroke-width:3.0;" d="M 745.818, 77.181 L 745.757, 77.2378 L 729.872, 64.427 L 742.437, 60.1362 z "/>
<path style="fill:rgb(249, 24, 192);fill-opacity:1.0;fill-rule:evenodd;stroke:rgb(0, 0, 0);stroke-width:3.0;" d="M 62.5935, 288.937 L 62.6348, 289.14 L 51.773, 301.541 L 48.0906, 288.724 L 53.5261, 284.117 L 57.4483, 283.84 z "/>
<path style="fill:rgb(255, 23, 194);fill-opacity:1.0;fill-rule:evenodd;stroke:rgb(0, 0, 0);stroke-width:3.0;" d="M 37.5278, 165.672 L 19.5567, 173.485 L 14.1453, 170.569 L 12.6262, 165.281 L 36.7985, 162.086 z "/>
<path style="fill:rgb(255, 23, 194);fill-opacity:1.0;fill-rule:evenodd;stroke:rgb(0, 0, 0);stroke-width:3.0;" d="M 734.577, 468.142 L 734.226, 468.509 L 733.764, 468.506 L 714.757, 457.34 L 707.854, 442.258 z "/>
<path style="fill:rgb(255, 255, 16);fill-opacity:1.0;fill-rule:evenodd;stroke:rgb(0, 0, 0);stroke-width:3.0;" d="M 39.9954, 189.544 L 25.2317, 195.673 L 19.392, 183.459 L 35.785, 183.452 z "/>
<path style="fill:rgb(255, 255, 16);fill-opacity:1.0;fill-rule:evenodd;stroke:rgb(0, 0, 0);stroke-width:3.0;" d="M 756.912, 114.157 L 734.61, 108.421 L 742.37, 101.384 z "/>
<path style="fill:rgb(170, 94, 220);fill-opacity:1.0;fill-rule:evenodd;stroke:rgb(0, 0, 0);stroke-width:3.0;" d="M 777.567, 355.447 L 769.556, 358.35 L 766.606, 353.146 L 771.466, 346.035 L 787.555, 344.668 z "/>
<path style="fill:rgb(170, 94, 220);fill-opacity:1.0;fill-rule:evenodd;stroke:rgb(0, 0, 0);stroke-width:3.0;" d="M 322.466, 373.368 L 270.741, 370.623 L 306.465, 276.213 z "/>
<path style="fill:rgb(75, 3, 255);fill-opacity:1.0;fill-rule:evenodd;stroke:rgb(0, 0, 0);stroke-width:3.0;" d="M 237.772, 368.874 L 275.201, 503.197 L 227.869, 563.117 L 120.073, 509.17 L 116.384, 362.433 z "/>
<path style="fill:rgb(75, 3, 255);fill-opacity:1.0;fill-rule:evenodd;stroke:rgb(0, 0, 0);stroke-width:3.0;" d="M 728.424, 533.206 L 726.689, 555.074 L 686.517, 505.128 L 691.579, 487.18 z "/>
<path style="fill:rgb(75, 3, 255);fill-opacity:1.0;fill-rule:evenodd;stroke:rgb(0, 0, 0);stroke-width:3.0;" d="M 85.506, 462.016 L 70.4244, 475.403 L 67.8608, 445.3 L 71.328, 442.786 z "/>
<path style="fill:rgb(75, 3, 255);fill-opacity:1.0;fill-rule:evenodd;stroke:rgb(0, 0, 0);stroke-width:3.0;" d="M 46.3099, 135.426 L 42.8779, 141.924 L 34.2241, 132 L 35.6238, 60.5855 z "/>
<path style="fill:rgb(75, 3, 255);fill-opacity:1.0;fill-rule:evenodd;stroke:rgb(0, 0, 0);stroke-width:3.0;" d="M 738.145, 546.611 L 747.987, 571.417 L 741.55, 573.551 L 726.689, 555.074 L 727.483, 545.072 z "/>
<path style="fill:rgb(11, 119, 255);fill-opacity:1.0;fill-rule:evenodd;stroke:rgb(0, 0, 0);stroke-width:3.0;" d="M 744.076, 521.397 L 726.753, 483.548 L 736.648, 471.3 z "/>
<path style="fill:rgb(11, 119, 255);fill-opacity:1.0;fill-rule:evenodd;stroke:rgb(0, 0, 0);stroke-width:3.0;" d="M 755.957, 408.885 L 751.756, 414.185 L 754.979, 385.15 L 772.362, 383.574 z "/>
<path style="fill:rgb(11, 119, 255);fill-opacity:1.0;fill-rule:evenodd;stroke:rgb(0, 0, 0);stroke-width:3.0;" d="M 753.866, 542.786 L 744.045, 541.218 L 736.351, 529.597 L 745.416, 524.324 z "/>
<path style="fill:rgb(11, 119, 255);fill-opacity:1.0;fill-rule:evenodd;stroke:rgb(0, 0, 0);stroke-width:3.0;" d="M 33.3022, 90.5242 L 27.8657, 118.157 L 21.4972, 86.8387 L 23.4137, 85.6138 z "/>
<path style="fill:rgb(249, 255, 20);fill-opacity:1.0;fill-rule:evenodd;stroke:rgb(0, 0, 0);stroke-width:3.0;" d="M 776.915, 114.373 L 782.4, 120.803 L 771.466, 126.941 L 762.303, 118.892 L 776.26, 114.314 z "/>
<path style="fill:rgb(249, 255, 20);fill-opacity:1.0;fill-rule:evenodd;stroke:rgb(0, 0, 0);stroke-width:3.0;" d="M 735.53, 95.3752 L 726.187, 99.8766 L 719.721, 88.1039 L 719.145, 80.983 z "/>
<path style="fill:rgb(249, 255, 20);fill-opacity:1.0;fill-rule:evenodd;stroke:rgb(0, 0, 0);stroke-width:3.0;" d="M 691.034, 169.791 L 598.503, 236.731 L 589.004, 237.468 L 694.263, 159.114 L 703.313, 155.028 z "/>
<path style="fill:rgb(226, 252, 10);fill-opacity:1.0;fill-rule:evenodd;stroke:rgb(0, 0, 0);stroke-width:3.0;" d="M 415.766, 90.9037 L 371.291, 111.607 L 381.951, 88.0826 z "/>
<path style="fill:rgb(226, 252, 10);fill-opacity:1.0;fill-rule:evenodd;stroke:rgb(0, 0, 0);stroke-width:3.0;" d="M 394.519, 138.758 L 48.7013, 152.175 L 38.4546, 80.4109 L 271.01, 19.1268 z "/>
<path style="fill:rgb(228, 33, 157);fill-opacity:1.0;fill-rule:evenodd;stroke:rgb(0, 0, 0);stroke-width:3.0;" d="M 735.472, 68.9433 L 727.829, 76.6591 L 721.635, 75.6706 L 722.273, 58.2981 z "/>
<path style="fill:rgb(231, 255, 7);fill-opacity:1.0;fill-rule:evenodd;stroke:rgb(0, 0, 0);stroke-width:3.0;" d="M 632.73, 233.989 L 625.973, 216.858 L 646.51, 202.001 L 671.867, 192.675 z "/>
<path style="fill:rgb(231, 255, 7);fill-opacity:1.0;fill-rule:evenodd;stroke:rgb(0, 0, 0);stroke-width:3.0;" d="M 60.485, 234.703 L 53.2559, 243.018 L 47.6356, 215.379 L 52.4593, 201.923 L 55.4305, 199.303 z "/>
<path style="fill:rgb(255, 55, 34);fill-opacity:1.0;fill-rule:evenodd;stroke:rgb(0, 0, 0);stroke-width:3.0;" d="M 67.7733, 357.234 L 23.3402, 348.051 L 17.4738, 311.375 L 45.2012, 278.667 z "/>
<path style="fill:rgb(255, 55, 34);fill-opacity:1.0;fill-rule:evenodd;stroke:rgb(0, 0, 0);stroke-width:3.0;" d="M 719.179, 430.607 L 722.48, 435.124 L 720.422, 441.947 L 717.429, 445.491 L 708.306, 441.82 L 708.471, 439.514 L 716.987, 430.094 z "/>
<path style="fill:rgb(119, 15, 170);fill-opacity:1.0;fill-rule:evenodd;stroke:rgb(0, 0, 0);stroke-width:3.0;" d="M 67.166, 437.141 L 70.4244, 475.403 L 29.4179, 511.804 L 19.3817, 495.721 L 62.3321, 430.585 z "/>
<path style="fill:rgb(255, 61, 14);fill-opacity:1.0;fill-rule:evenodd;stroke:rgb(0, 0, 0);stroke-width:3.0;" d="M 724.614, 511.868 L 720.726, 523.589 L 703.373, 501.913 L 717.43, 501.016 z "/>
<path style="fill:rgb(249, 255, 69);fill-opacity:1.0;fill-rule:evenodd;stroke:rgb(0, 0, 0);stroke-width:3.0;" d="M 40.8358, 181.94 L 32.7317, 180.586 L 19.5567, 173.485 L 37.5278, 165.672 z "/>
<path style="fill:rgb(249, 255, 69);fill-opacity:1.0;fill-rule:evenodd;stroke:rgb(0, 0, 0);stroke-width:3.0;" d="M 23.0795, 357.481 L 10.0186, 356.788 L 9.99553, 346.672 L 13.0717, 335.155 L 19.8395, 334.835 z "/>
<path style="fill:rgb(182, 19, 217);fill-opacity:1.0;fill-rule:evenodd;stroke:rgb(0, 0, 0);stroke-width:3.0;" d="M 109.216, 526.475 L 120.892, 541.731 L 120.93, 543.231 L 92.6625, 536.553 L 93.6301, 509.528 z "/>
<path style="fill:rgb(255, 148, 255);fill-opacity:1.0;fill-rule:evenodd;stroke:rgb(0, 0, 0);stroke-width:3.0;" d="M 751.285, 418.425 L 751.011, 420.895 L 733.609, 427.284 L 729.405, 415.759 z "/>
<path style="fill:rgb(25, 21, 255);fill-opacity:1.0;fill-rule:evenodd;stroke:rgb(0, 0, 0);stroke-width:3.0;" d="M 487.139, 96.8581 L 463.739, 205.806 L 462.127, 204.244 L 439.789, 92.9078 z "/>
<path style="fill:rgb(25, 21, 255);fill-opacity:1.0;fill-rule:evenodd;stroke:rgb(0, 0, 0);stroke-width:3.0;" d="M 766.633, 493.343 L 750.943, 472.146 L 773.108, 466.82 z "/>
<path style="fill:rgb(228, 197, 197);fill-opacity:1.0;fill-rule:evenodd;stroke:rgb(0, 0, 0);stroke-width:3.0;" d="M 422.183, 91.439 L 421.908, 165.288 L 368.047, 113.117 L 415.766, 90.9037 z "/>
<path style="fill:rgb(18, 13, 255);fill-opacity:1.0;fill-rule:evenodd;stroke:rgb(0, 0, 0);stroke-width:3.0;" d="M 711.475, 94.2161 L 708.082, 98.549 L 699.99, 94.2959 L 695.457, 90.559 L 700.409, 86.4826 L 712.122, 80.2166 z "/>
<path style="fill:rgb(18, 13, 255);fill-opacity:1.0;fill-rule:evenodd;stroke:rgb(0, 0, 0);stroke-width:3.0;" d="M 654.946, 391.011 L 707.854, 442.258 L 710.72, 448.521 L 652.538, 433.979 L 654.298, 390.977 z "/>
<path style="fill:rgb(204, 108, 7);fill-opacity:1.0;fill-rule:evenodd;stroke:rgb(0, 0, 0);stroke-width:3.0;" d="M 50.4974, 248.515 L 57.2423, 262.622 L 60.4243, 278.27 L 50.8152, 286.414 L 41.8488, 249.211 L 46.609, 246.326 z "/>
<path style="fill:rgb(204, 108, 7);fill-opacity:1.0;fill-rule:evenodd;stroke:rgb(0, 0, 0);stroke-width:3.0;" d="M 747.413, 541.756 L 752.226, 545.043 L 752.949, 546.674 L 743.458, 551.987 L 733.49, 539.534 z "/>
<path style="fill:rgb(255, 17, 107);fill-opacity:1.0;fill-rule:evenodd;stroke:rgb(0, 0, 0);stroke-width:3.0;" d="M 60.8877, 385.47 L 107.314, 442.657 L 85.506, 462.016 L 15.8852, 367.59 z "/>
<path style="fill:rgb(204, 21, 12);fill-opacity:1.0;fill-rule:evenodd;stroke:rgb(0, 0, 0);stroke-width:3.0;" d="M 270.741, 370.623 L 78.4351, 360.419 L 74.7351, 334.505 L 354.726, 148.667 z "/>
<path style="fill:rgb(204, 21, 12);fill-opacity:1.0;fill-rule:evenodd;stroke:rgb(0, 0, 0);stroke-width:3.0;" d="M 20.1451, 524.837 L 6.38783, 501.898 L 15.708, 491.431 z "/>
<path style="fill:rgb(204, 21, 12);fill-opacity:1.0;fill-rule:evenodd;stroke:rgb(0, 0, 0);stroke-width:3.0;" d="M 710.72, 448.521 L 711.089, 449.326 L 667.674, 452.14 L 658.067, 444.41 L 658.999, 435.594 z "/>
<path style="fill:rgb(204, 21, 12);fill-opacity:1.0;fill-rule:evenodd;stroke:rgb(0, 0, 0);stroke-width:3.0;" d="M 116.97, 407.753 L 110.34, 439.971 L 107.314, 442.657 L 60.8877, 385.47 z "/>
<path style="fill:rgb(209, 18, 61);fill-opacity:1.0;fill-rule:evenodd;stroke:rgb(0, 0, 0);stroke-width:3.0;" d="M 760.93, 361.449 L 757.578, 361.726 L 759.204, 347.077 L 771.466, 346.035 z "/>
<path style="fill:rgb(14, 92, 217);fill-opacity:1.0;fill-rule:evenodd;stroke:rgb(0, 0, 0);stroke-width:3.0;" d="M 47.9563, 146.958 L 39.1932, 173.862 L 35.528, 155.838 L 46.3099, 135.426 z "/>
<path style="fill:rgb(255, 4, 21);fill-opacity:1.0;fill-rule:evenodd;stroke:rgb(0, 0, 0);stroke-width:3.0;" d="M 723.794, 477.085 L 714.396, 484.507 L 708.586, 480.646 L 719.023, 466.66 z "/>
<path style="fill:rgb(255, 4, 21);fill-opacity:1.0;fill-rule:evenodd;stroke:rgb(0, 0, 0);stroke-width:3.0;" d="M 586.703, 245.268 L 556.833, 266.877 L 555.837, 265.536 L 556.54, 261.634 L 584.657, 240.704 z "/>
<path style="fill:rgb(243, 146, 48);fill-opacity:1.0;fill-rule:evenodd;stroke:rgb(0, 0, 0);stroke-width:3.0;" d="M 29.4179, 511.804 L 28.6711, 512.467 L 18.1549, 509.854 L 16.7982, 499.639 L 19.3817, 495.721 z "/>
<path style="fill:rgb(255, 69, 255);fill-opacity:1.0;fill-rule:evenodd;stroke:rgb(0, 0, 0);stroke-width:3.0;" d="M 698.953, 418.086 L 694.803, 424.487 L 692.209, 427.104 L 681.9, 417.119 L 686.885, 410.96 z "/>
<path style="fill:rgb(246, 6, 255);fill-opacity:1.0;fill-rule:evenodd;stroke:rgb(0, 0, 0);stroke-width:3.0;" d="M 744.921, 405.031 L 750.925, 418.381 L 729.405, 415.759 L 722.796, 397.64 z "/>
<path style="fill:rgb(246, 6, 255);fill-opacity:1.0;fill-rule:evenodd;stroke:rgb(0, 0, 0);stroke-width:3.0;" d="M 67.8284, 486.482 L 86.1306, 508.173 L 33.7331, 530.672 L 35.3186, 507.622 L 60.6799, 485.73 z "/>
<path style="fill:rgb(255, 24, 194);fill-opacity:1.0;fill-rule:evenodd;stroke:rgb(0, 0, 0);stroke-width:3.0;" d="M 719.023, 466.66 L 708.586, 480.646 L 698.842, 474.17 L 711.171, 449.505 z "/>
<path style="fill:rgb(255, 243, 17);fill-opacity:1.0;fill-rule:evenodd;stroke:rgb(0, 0, 0);stroke-width:3.0;" d="M 753.494, 398.529 L 752.491, 407.56 L 729.105, 399.747 L 748.104, 395.7 z "/>
<path style="fill:rgb(255, 231, 24);fill-opacity:1.0;fill-rule:evenodd;stroke:rgb(0, 0, 0);stroke-width:3.0;" d="M 748.104, 395.7 L 729.105, 399.747 L 722.796, 397.64 L 715.928, 378.811 z "/>
<path style="fill:rgb(58, 60, 255);fill-opacity:1.0;fill-rule:evenodd;stroke:rgb(0, 0, 0);stroke-width:3.0;" d="M 307.691, 179.886 L 74.7351, 334.505 L 48.7013, 152.175 L 262.115, 143.895 z "/>
<path style="fill:rgb(58, 60, 255);fill-opacity:1.0;fill-rule:evenodd;stroke:rgb(0, 0, 0);stroke-width:3.0;" d="M 652.924, 414.983 L 652.721, 429.515 L 652.366, 438.196 L 619.557, 397.213 z "/>
<path style="fill:rgb(249, 226, 255);fill-opacity:1.0;fill-rule:evenodd;stroke:rgb(0, 0, 0);stroke-width:3.0;" d="M 106.723, 403.681 L 61.7585, 385.816 L 91.8345, 383.279 z "/>
<path style="fill:rgb(249, 226, 255);fill-opacity:1.0;fill-rule:evenodd;stroke:rgb(0, 0, 0);stroke-width:3.0;" d="M 32.3636, 525.647 L 20.5268, 527.711 L 19.5746, 520.542 L 28.5093, 512.611 z "/>
<path style="fill:rgb(194, 170, 52);fill-opacity:1.0;fill-rule:evenodd;stroke:rgb(0, 0, 0);stroke-width:3.0;" d="M 748.198, 444.941 L 742.39, 451.36 L 735.4, 432.195 L 738.542, 425.872 z "/>
<path style="fill:rgb(226, 16, 159);fill-opacity:1.0;fill-rule:evenodd;stroke:rgb(0, 0, 0);stroke-width:3.0;" d="M 112.712, 456.963 L 111.248, 490.641 L 91.999, 489.02 L 108.458, 454.077 z "/>
<path style="fill:rgb(88, 163, 255);fill-opacity:1.0;fill-rule:evenodd;stroke:rgb(0, 0, 0);stroke-width:3.0;" d="M 91.5298, 568.186 L 68.4392, 515.769 L 93.7965, 504.881 z "/>
<path style="fill:rgb(30, 33, 161);fill-opacity:1.0;fill-rule:evenodd;stroke:rgb(0, 0, 0);stroke-width:3.0;" d="M 12.1863, 163.75 L 9.19389, 153.334 L 29.654, 145.112 z "/>
<path style="fill:rgb(249, 255, 6);fill-opacity:1.0;fill-rule:evenodd;stroke:rgb(0, 0, 0);stroke-width:3.0;" d="M 729.2, 494.345 L 705.364, 487.22 L 695.528, 480.801 L 698.842, 474.17 z "/>
<path style="fill:rgb(237, 7, 31);fill-opacity:1.0;fill-rule:evenodd;stroke:rgb(0, 0, 0);stroke-width:3.0;" d="M 781.779, 540.416 L 787.109, 559.2 L 777.39, 552.684 L 770.663, 534.098 z "/>
<path style="fill:rgb(12, 231, 226);fill-opacity:1.0;fill-rule:evenodd;stroke:rgb(0, 0, 0);stroke-width:3.0;" d="M 15.708, 491.431 L 6.38783, 501.898 L 5.78502, 500.893 L 12.9814, 470.902 z "/>
<path style="fill:rgb(12, 231, 226);fill-opacity:1.0;fill-rule:evenodd;stroke:rgb(0, 0, 0);stroke-width:3.0;" d="M 594.668, 233.252 L 536.657, 276.435 L 514.703, 255.17 L 589.092, 219.115 z "/>
<path style="fill:rgb(255, 44, 78);fill-opacity:1.0;fill-rule:evenodd;stroke:rgb(0, 0, 0);stroke-width:3.0;" d="M 589.092, 219.115 L 514.703, 255.17 L 504.159, 244.957 L 530.004, 233.287 L 588.987, 218.849 z "/>
<path style="fill:rgb(246, 255, 17);fill-opacity:1.0;fill-rule:evenodd;stroke:rgb(0, 0, 0);stroke-width:3.0;" d="M 653.261, 390.922 L 653.213, 394.294 L 630.04, 402.796 L 619.557, 397.213 L 612.802, 388.775 z "/>
<path style="fill:rgb(246, 255, 17);fill-opacity:1.0;fill-rule:evenodd;stroke:rgb(0, 0, 0);stroke-width:3.0;" d="M 738.991, 371.567 L 723.914, 374.967 L 723.041, 369.563 L 734.118, 362.809 z "/>
<path style="fill:rgb(240, 13, 11);fill-opacity:1.0;fill-rule:evenodd;stroke:rgb(0, 0, 0);stroke-width:3.0;" d="M 632.73, 233.989 L 565.789, 304.652 L 539.634, 279.319 L 625.973, 216.858 z "/>
<path style="fill:rgb(134, 58, 243);fill-opacity:1.0;fill-rule:evenodd;stroke:rgb(0, 0, 0);stroke-width:3.0;" d="M 692.203, 483.285 L 709.869, 498.219 L 700.431, 498.239 L 687.284, 481.815 z "/>
<path style="fill:rgb(22, 5, 255);fill-opacity:1.0;fill-rule:evenodd;stroke:rgb(0, 0, 0);stroke-width:3.0;" d="M 732.09, 495.209 L 733.445, 498.17 L 709.869, 498.219 L 692.203, 483.285 z "/>
<path style="fill:rgb(57, 27, 255);fill-opacity:1.0;fill-rule:evenodd;stroke:rgb(0, 0, 0);stroke-width:3.0;" d="M 34.582, 564.884 L 32.4103, 570.123 L 20.8667, 569.56 L 26.2611, 554.298 z "/>
<path style="fill:rgb(14, 194, 255);fill-opacity:1.0;fill-rule:evenodd;stroke:rgb(0, 0, 0);stroke-width:3.0;" d="M 86.1084, 555.879 L 50.09, 552.814 L 34.7365, 530.241 L 68.4392, 515.769 z "/>
<path style="fill:rgb(255, 212, 22);fill-opacity:1.0;fill-rule:evenodd;stroke:rgb(0, 0, 0);stroke-width:3.0;" d="M 35.8104, 157.227 L 36.7985, 162.086 L 12.6262, 165.281 L 12.1863, 163.75 L 25.9681, 149.045 z "/>
<path style="fill:rgb(207, 3, 255);fill-opacity:1.0;fill-rule:evenodd;stroke:rgb(0, 0, 0);stroke-width:3.0;" d="M 786.123, 109.058 L 780.649, 114.854 L 769.219, 105.352 L 763.495, 98.6422 L 764.913, 98.5737 z "/>
<path style="fill:rgb(234, 2, 17);fill-opacity:1.0;fill-rule:evenodd;stroke:rgb(0, 0, 0);stroke-width:3.0;" d="M 118.328, 439.773 L 119.625, 491.346 L 111.248, 490.641 L 113.283, 443.833 L 116.9, 436.154 z "/>
<path style="fill:rgb(187, 9, 61);fill-opacity:1.0;fill-rule:evenodd;stroke:rgb(0, 0, 0);stroke-width:3.0;" d="M 633.806, 238.597 L 573.031, 311.667 L 565.789, 304.652 L 631.024, 235.789 z "/>
<path style="fill:rgb(18, 255, 202);fill-opacity:1.0;fill-rule:evenodd;stroke:rgb(0, 0, 0);stroke-width:3.0;" d="M 732.149, 77.3487 L 731.298, 90.773 L 730.811, 91.2297 L 721.368, 82.9352 L 721.635, 75.6706 z "/>
<path style="fill:rgb(18, 255, 202);fill-opacity:1.0;fill-rule:evenodd;stroke:rgb(0, 0, 0);stroke-width:3.0;" d="M 633.806, 238.597 L 631.024, 235.789 L 671.867, 192.675 L 672.059, 192.605 z "/>
<path style="fill:rgb(255, 234, 130);fill-opacity:1.0;fill-rule:evenodd;stroke:rgb(0, 0, 0);stroke-width:3.0;" d="M 439.789, 92.9078 L 462.127, 204.244 L 421.908, 165.288 L 422.183, 91.439 z "/>
<path style="fill:rgb(252, 136, 30);fill-opacity:1.0;fill-rule:evenodd;stroke:rgb(0, 0, 0);stroke-width:3.0;" d="M 691.579, 487.18 L 686.517, 505.128 L 647.153, 456.185 L 663.085, 451.586 z "/>
<path style="fill:rgb(255, 255, 19);fill-opacity:1.0;fill-rule:evenodd;stroke:rgb(0, 0, 0);stroke-width:3.0;" d="M 663.085, 451.586 L 647.153, 456.185 L 629.282, 433.967 L 648.002, 432.746 z "/>
<path style="fill:rgb(246, 56, 204);fill-opacity:1.0;fill-rule:evenodd;stroke:rgb(0, 0, 0);stroke-width:3.0;" d="M 721.933, 67.5406 L 716.369, 69.9726 L 704.96, 68.5224 L 704.81, 68.3913 L 703.33, 65.77 L 722.531, 51.2714 z "/>
<path style="fill:rgb(255, 231, 15);fill-opacity:1.0;fill-rule:evenodd;stroke:rgb(0, 0, 0);stroke-width:3.0;" d="M 718.21, 38.1266 L 700.098, 45.3148 L 684.587, 41.954 L 695.212, 30.9434 z "/>
<path style="fill:rgb(243, 44, 81);fill-opacity:1.0;fill-rule:evenodd;stroke:rgb(0, 0, 0);stroke-width:3.0;" d="M 75.0198, 360.238 L 91.8345, 383.279 L 61.7585, 385.816 L 35.1739, 375.254 L 39.8886, 358.373 z "/>
<path style="fill:rgb(255, 240, 15);fill-opacity:1.0;fill-rule:evenodd;stroke:rgb(0, 0, 0);stroke-width:3.0;" d="M 354.726, 148.667 L 307.691, 179.886 L 262.115, 143.895 L 357.938, 140.178 z "/>
<path style="fill:rgb(255, 157, 159);fill-opacity:1.0;fill-rule:evenodd;stroke:rgb(0, 0, 0);stroke-width:3.0;" d="M 742.437, 60.1362 L 729.872, 64.427 L 722.273, 58.2981 L 722.37, 55.6601 L 738.715, 41.3732 z "/>
<path style="fill:rgb(252, 252, 14);fill-opacity:1.0;fill-rule:evenodd;stroke:rgb(0, 0, 0);stroke-width:3.0;" d="M 381.951, 88.0826 L 371.291, 111.607 L 368.047, 113.117 L 338.454, 84.4538 z "/>
<path style="fill:rgb(204, 2, 119);fill-opacity:1.0;fill-rule:evenodd;stroke:rgb(0, 0, 0);stroke-width:3.0;" d="M 732.09, 495.209 L 731.771, 495.114 L 727.75, 493.382 L 722.717, 490.037 L 719.223, 485.811 L 719.617, 480.384 L 723.794, 477.085 z "/>
</svg>