<?xml version="1.0" encoding="iso-8859-1" standalone="no"?>
<!DOCTYPE svg PUBLIC "-//W3C//DTD SVG 1.0//EN" "http://www.w3.org/TR/2001/REC-SVG-20010904/DTD/svg10.dtd">
<svg xmlns="http://www.w3.org/2000/svg" width="800" height="600">
<path style="fill:rgb(0, 0, 0);fill-opacity:0.0;fill-rule:evenodd;stroke:rgb(0, 0, 0);stroke-width:0.0;" d="M 0, 600 L 800, 600 L 800, 0 L 0, 0 z "/>
<path style="fill:rgb(255, 197, 30);fill-opacity:1.0;fill-rule:evenodd;stroke:rgb(0, 0, 0);stroke-width:3.0;" d="M 735.075, 310.58 L 736.621, 313.554 L 713.431, 319.255 L 714.695, 309.52 z "/>
<path style="fill:rgb(255, 197, 30);fill-opacity:1.0;fill-rule:evenodd;stroke:rgb(0, 0, 0);stroke-width:3.0;" d="M 469.579, 29.931 L 460.772, 37.0027 L 455.675, 39.5085 L 439.122, 32.9634 L 448.421, 29.7409 L 470.119, 26.7497 z "/>
<path style="fill:rgb(255, 197, 30);fill-opacity:1.0;fill-rule:evenodd;stroke:rgb(0, 0, 0);stroke-width:3.0;" d="M 684.001, 229.641 L 692.315, 241.944 L 675.789, 246.176 L 669.147, 244.553 L 669.856, 229.483 L 679.274, 228.184 z "/>
<path style="fill:rgb(255, 197, 30);fill-opacity:1.0;fill-rule:evenodd;stroke:rgb(0, 0, 0);stroke-width:3.0;" d="M 493.198, 384.76 L 455.017, 371.344 L 470.657, 366.987 z "/>
<path style="fill:rgb(255, 197, 30);fill-opacity:1.0;fill-rule:evenodd;stroke:rgb(0, 0, 0);stroke-width:3.0;" d="M 287.332, 337.387 L 247.179, 355.963 L 197.55, 368.675 L 274.496, 311.224 z "/>
<path style="fill:rgb(255, 197, 30);fill-opacity:1.0;fill-rule:evenodd;stroke:rgb(0, 0, 0);stroke-width:3.0;" d="M 701.839, 180.4 L 594.935, 226.411 L 579.956, 222.748 L 620.398, 130.118 z "/>
<path style="fill:rgb(18, 14, 207);fill-opacity:1.0;fill-rule:evenodd;stroke:rgb(0, 0, 0);stroke-width:3.0;" d="M 787.294, 297.103 L 772.45, 294.575 L 779.798, 235.419 z "/>
<path style="fill:rgb(18, 14, 207);fill-opacity:1.0;fill-rule:evenodd;stroke:rgb(0, 0, 0);stroke-width:3.0;" d="M 174.808, 423.454 L 165.114, 422.082 L 149.76, 409.325 L 170.043, 404.943 z "/>
<path style="fill:rgb(18, 14, 207);fill-opacity:1.0;fill-rule:evenodd;stroke:rgb(0, 0, 0);stroke-width:3.0;" d="M 637.052, 91.9725 L 626.375, 83.9682 L 640.651, 66.1016 L 650.412, 61.3722 z "/>
<path style="fill:rgb(18, 14, 207);fill-opacity:1.0;fill-rule:evenodd;stroke:rgb(0, 0, 0);stroke-width:3.0;" d="M 647.314, 253.47 L 599.966, 265.598 L 601.34, 231.747 z "/>
<path style="fill:rgb(255, 148, 56);fill-opacity:1.0;fill-rule:evenodd;stroke:rgb(0, 0, 0);stroke-width:3.0;" d="M 685.933, 315.908 L 684.021, 315.626 L 732.795, 231.575 L 754.086, 226.121 z "/>
<path style="fill:rgb(40, 246, 246);fill-opacity:1.0;fill-rule:evenodd;stroke:rgb(0, 0, 0);stroke-width:3.0;" d="M 637.052, 91.9725 L 585.704, 209.582 L 558.538, 228.107 L 530.407, 229.463 L 556.21, 184.179 L 630.881, 87.3464 z "/>
<path style="fill:rgb(124, 217, 207);fill-opacity:1.0;fill-rule:evenodd;stroke:rgb(0, 0, 0);stroke-width:3.0;" d="M 363.649, 339.238 L 342.072, 331.657 L 357.911, 327.6 z "/>
<path style="fill:rgb(124, 217, 207);fill-opacity:1.0;fill-rule:evenodd;stroke:rgb(0, 0, 0);stroke-width:3.0;" d="M 355.608, 47.646 L 342.943, 61.4269 L 339.784, 60.5191 L 335.785, 58.4189 L 337.006, 54.6832 L 344.818, 46.6327 z "/>
<path style="fill:rgb(124, 217, 207);fill-opacity:1.0;fill-rule:evenodd;stroke:rgb(0, 0, 0);stroke-width:3.0;" d="M 703.485, 181.417 L 703.398, 185.782 L 697.803, 189.051 L 619.977, 215.633 L 701.839, 180.4 z "/>
<path style="fill:rgb(246, 255, 6);fill-opacity:1.0;fill-rule:evenodd;stroke:rgb(0, 0, 0);stroke-width:3.0;" d="M 525.991, 64.5784 L 515.376, 61.5519 L 524.923, 44.9055 z "/>
<path style="fill:rgb(246, 255, 6);fill-opacity:1.0;fill-rule:evenodd;stroke:rgb(0, 0, 0);stroke-width:3.0;" d="M 760.837, 460.681 L 767.955, 472.262 L 765.968, 480.608 L 755.783, 476.714 L 756.889, 458.025 z "/>
<path style="fill:rgb(246, 255, 6);fill-opacity:1.0;fill-rule:evenodd;stroke:rgb(0, 0, 0);stroke-width:3.0;" d="M 789.762, 317.415 L 791.085, 328.307 L 769.203, 320.717 L 771.45, 302.629 z "/>
<path style="fill:rgb(89, 79, 240);fill-opacity:1.0;fill-rule:evenodd;stroke:rgb(0, 0, 0);stroke-width:3.0;" d="M 750.038, 475.009 L 746.396, 504.33 L 724.943, 501.295 L 694.416, 456.537 L 697.319, 456.485 z "/>
<path style="fill:rgb(89, 79, 240);fill-opacity:1.0;fill-rule:evenodd;stroke:rgb(0, 0, 0);stroke-width:3.0;" d="M 458.948, 338.704 L 425.37, 360.926 L 411.427, 356.027 L 455.301, 332.658 z "/>
<path style="fill:rgb(89, 79, 240);fill-opacity:1.0;fill-rule:evenodd;stroke:rgb(0, 0, 0);stroke-width:3.0;" d="M 392.929, 317.547 L 344.901, 327.939 L 370.974, 318.06 L 392.275, 316.332 z "/>
<path style="fill:rgb(89, 79, 240);fill-opacity:1.0;fill-rule:evenodd;stroke:rgb(0, 0, 0);stroke-width:3.0;" d="M 535.415, 220.675 L 494.411, 292.636 L 418.716, 312.025 L 445.195, 192.578 z "/>
<path style="fill:rgb(237, 154, 9);fill-opacity:1.0;fill-rule:evenodd;stroke:rgb(0, 0, 0);stroke-width:3.0;" d="M 528.763, 350.802 L 485.948, 362.728 L 446.928, 304.798 L 463.957, 300.436 z "/>
<path style="fill:rgb(237, 154, 9);fill-opacity:1.0;fill-rule:evenodd;stroke:rgb(0, 0, 0);stroke-width:3.0;" d="M 670.327, 218.291 L 664.465, 223.62 L 640.72, 216.303 L 636.86, 209.866 L 670.715, 198.303 z "/>
<path style="fill:rgb(237, 154, 9);fill-opacity:1.0;fill-rule:evenodd;stroke:rgb(0, 0, 0);stroke-width:3.0;" d="M 457.436, 49.776 L 454.051, 59.798 L 447.681, 57.8884 L 449.05, 46.4145 L 454.417, 42.1054 z "/>
<path style="fill:rgb(237, 154, 9);fill-opacity:1.0;fill-rule:evenodd;stroke:rgb(0, 0, 0);stroke-width:3.0;" d="M 710.639, 297.021 L 697.227, 317.573 L 696.518, 317.468 L 699.118, 299.532 L 709.726, 293.608 z "/>
<path style="fill:rgb(237, 154, 9);fill-opacity:1.0;fill-rule:evenodd;stroke:rgb(0, 0, 0);stroke-width:3.0;" d="M 744.664, 257.387 L 732.853, 254.095 L 754.086, 226.121 L 776.045, 220.496 z "/>
<path style="fill:rgb(237, 154, 9);fill-opacity:1.0;fill-rule:evenodd;stroke:rgb(0, 0, 0);stroke-width:3.0;" d="M 617.187, 77.1649 L 535.415, 220.675 L 534.79, 220.48 L 541.461, 111.895 L 601.715, 66.9056 z "/>
<path style="fill:rgb(237, 154, 9);fill-opacity:1.0;fill-rule:evenodd;stroke:rgb(0, 0, 0);stroke-width:3.0;" d="M 622.286, 68.217 L 617.187, 77.1649 L 601.715, 66.9056 L 618.396, 54.4508 z "/>
<path style="fill:rgb(237, 154, 9);fill-opacity:1.0;fill-rule:evenodd;stroke:rgb(0, 0, 0);stroke-width:3.0;" d="M 494.448, 43.127 L 460.272, 45.842 L 456.8, 44.8519 L 495.039, 33.9467 z "/>
<path style="fill:rgb(237, 154, 9);fill-opacity:1.0;fill-rule:evenodd;stroke:rgb(0, 0, 0);stroke-width:3.0;" d="M 704.979, 279.509 L 685.322, 295.371 L 649.128, 260.768 L 650.576, 258.695 L 722.496, 249.322 z "/>
<path style="fill:rgb(237, 217, 115);fill-opacity:1.0;fill-rule:evenodd;stroke:rgb(0, 0, 0);stroke-width:3.0;" d="M 398.909, 48.8491 L 389.932, 75.142 L 363.858, 50.5539 L 398.5, 37.0235 z "/>
<path style="fill:rgb(237, 217, 115);fill-opacity:1.0;fill-rule:evenodd;stroke:rgb(0, 0, 0);stroke-width:3.0;" d="M 717.462, 190.046 L 721.631, 193.971 L 712.071, 215.554 L 711.726, 215.121 L 703.096, 200.979 L 703.224, 194.553 L 714.785, 188.394 z "/>
<path style="fill:rgb(237, 217, 115);fill-opacity:1.0;fill-rule:evenodd;stroke:rgb(0, 0, 0);stroke-width:3.0;" d="M 462.949, 328.584 L 411.427, 356.027 L 377.892, 344.243 L 372.846, 323.774 L 446.928, 304.798 z "/>
<path style="fill:rgb(255, 1, 255);fill-opacity:1.0;fill-rule:evenodd;stroke:rgb(0, 0, 0);stroke-width:3.0;" d="M 682.814, 292.973 L 659.762, 312.049 L 617.664, 305.842 L 649.128, 260.768 z "/>
<path style="fill:rgb(255, 255, 38);fill-opacity:1.0;fill-rule:evenodd;stroke:rgb(0, 0, 0);stroke-width:3.0;" d="M 760.129, 393.771 L 628.503, 379.18 L 764.456, 358.939 z "/>
<path style="fill:rgb(255, 220, 11);fill-opacity:1.0;fill-rule:evenodd;stroke:rgb(0, 0, 0);stroke-width:3.0;" d="M 243.254, 560.982 L 231.657, 586.182 L 223.274, 589.654 L 201.526, 594.102 L 238.913, 559.375 z "/>
<path style="fill:rgb(255, 220, 11);fill-opacity:1.0;fill-rule:evenodd;stroke:rgb(0, 0, 0);stroke-width:3.0;" d="M 318.802, 550.084 L 293.653, 560.502 L 287.969, 545.769 z "/>
<path style="fill:rgb(255, 220, 11);fill-opacity:1.0;fill-rule:evenodd;stroke:rgb(0, 0, 0);stroke-width:3.0;" d="M 702.77, 217.337 L 702.413, 235.315 L 678.689, 228.004 L 695.815, 209.433 z "/>
<path style="fill:rgb(255, 220, 11);fill-opacity:1.0;fill-rule:evenodd;stroke:rgb(0, 0, 0);stroke-width:3.0;" d="M 443.337, 567.513 L 440.968, 572.897 L 396.153, 561.389 L 395.612, 560.834 z "/>
<path style="fill:rgb(255, 220, 11);fill-opacity:1.0;fill-rule:evenodd;stroke:rgb(0, 0, 0);stroke-width:3.0;" d="M 732.441, 199.295 L 721.308, 227.127 L 712.071, 215.554 L 722.101, 192.911 z "/>
<path style="fill:rgb(255, 220, 11);fill-opacity:1.0;fill-rule:evenodd;stroke:rgb(0, 0, 0);stroke-width:3.0;" d="M 195.466, 395.24 L 218.832, 429.683 L 174.808, 423.454 L 166.647, 391.748 L 182.301, 380.061 z "/>
<path style="fill:rgb(255, 220, 11);fill-opacity:1.0;fill-rule:evenodd;stroke:rgb(0, 0, 0);stroke-width:3.0;" d="M 613.751, 109.561 L 609.924, 114.524 L 602.907, 102.227 L 610.413, 89.0538 z "/>
<path style="fill:rgb(249, 21, 184);fill-opacity:1.0;fill-rule:evenodd;stroke:rgb(0, 0, 0);stroke-width:3.0;" d="M 783.72, 203.843 L 781.836, 219.013 L 777.714, 220.069 L 765.623, 205.493 L 768.641, 198.666 z "/>
<path style="fill:rgb(255, 3, 231);fill-opacity:1.0;fill-rule:evenodd;stroke:rgb(0, 0, 0);stroke-width:3.0;" d="M 479.851, 134.075 L 383.945, 221.605 L 381.207, 206.211 L 447.242, 116.95 z "/>
<path style="fill:rgb(255, 175, 14);fill-opacity:1.0;fill-rule:evenodd;stroke:rgb(0, 0, 0);stroke-width:3.0;" d="M 591.422, 301.973 L 565.331, 298.126 L 639.58, 261.984 z "/>
<path style="fill:rgb(255, 175, 14);fill-opacity:1.0;fill-rule:evenodd;stroke:rgb(0, 0, 0);stroke-width:3.0;" d="M 623.913, 32.6514 L 601.281, 67.2301 L 587.969, 77.1693 L 586.614, 72.1796 L 592.415, 25.1005 L 601.269, 17.5109 z "/>
<path style="fill:rgb(255, 175, 14);fill-opacity:1.0;fill-rule:evenodd;stroke:rgb(0, 0, 0);stroke-width:3.0;" d="M 587.299, 252.493 L 563.72, 268.277 L 590.881, 234.733 z "/>
<path style="fill:rgb(255, 175, 14);fill-opacity:1.0;fill-rule:evenodd;stroke:rgb(0, 0, 0);stroke-width:3.0;" d="M 770.424, 310.886 L 770.235, 312.408 L 724.943, 310.053 L 738.293, 298.573 z "/>
<path style="fill:rgb(255, 255, 7);fill-opacity:1.0;fill-rule:evenodd;stroke:rgb(0, 0, 0);stroke-width:3.0;" d="M 539.314, 371.36 L 522.57, 352.527 L 542.569, 346.956 z "/>
<path style="fill:rgb(255, 255, 7);fill-opacity:1.0;fill-rule:evenodd;stroke:rgb(0, 0, 0);stroke-width:3.0;" d="M 339.606, 332.288 L 247.179, 355.963 L 334.06, 315.769 z "/>
<path style="fill:rgb(62, 212, 255);fill-opacity:1.0;fill-rule:evenodd;stroke:rgb(0, 0, 0);stroke-width:3.0;" d="M 454.051, 59.798 L 451.464, 67.4615 L 422.357, 67.8474 L 438.273, 55.068 z "/>
<path style="fill:rgb(62, 212, 255);fill-opacity:1.0;fill-rule:evenodd;stroke:rgb(0, 0, 0);stroke-width:3.0;" d="M 482.347, 16.5368 L 476.522, 24.3565 L 474.454, 26.0171 L 471.324, 19.6539 L 472.294, 13.9427 L 483.206, 10.6809 z "/>
<path style="fill:rgb(62, 212, 255);fill-opacity:1.0;fill-rule:evenodd;stroke:rgb(0, 0, 0);stroke-width:3.0;" d="M 626.375, 83.9682 L 617.505, 77.3174 L 640.651, 66.1016 z "/>
<path style="fill:rgb(62, 212, 255);fill-opacity:1.0;fill-rule:evenodd;stroke:rgb(0, 0, 0);stroke-width:3.0;" d="M 516.555, 214.801 L 445.195, 192.578 L 447.535, 182.024 L 506.262, 138.176 z "/>
<path style="fill:rgb(209, 11, 31);fill-opacity:1.0;fill-rule:evenodd;stroke:rgb(0, 0, 0);stroke-width:3.0;" d="M 571.825, 241.373 L 562.291, 263.21 L 536.833, 281.769 L 523.999, 285.057 L 511.525, 271.697 L 559.797, 233.323 z "/>
<path style="fill:rgb(255, 62, 18);fill-opacity:1.0;fill-rule:evenodd;stroke:rgb(0, 0, 0);stroke-width:3.0;" d="M 742.252, 261.198 L 743.315, 262.713 L 723.922, 285.999 L 722.994, 267.083 L 728.946, 259.241 z "/>
<path style="fill:rgb(255, 62, 18);fill-opacity:1.0;fill-rule:evenodd;stroke:rgb(0, 0, 0);stroke-width:3.0;" d="M 668.877, 224.98 L 667.726, 229.776 L 629.986, 234.979 L 616.625, 231.713 L 611.65, 226.325 L 633.117, 213.96 z "/>
<path style="fill:rgb(255, 23, 11);fill-opacity:1.0;fill-rule:evenodd;stroke:rgb(0, 0, 0);stroke-width:3.0;" d="M 428.946, 265.877 L 421.632, 298.867 L 380.589, 314.418 L 405.598, 227.189 z "/>
<path style="fill:rgb(255, 249, 58);fill-opacity:1.0;fill-rule:evenodd;stroke:rgb(0, 0, 0);stroke-width:3.0;" d="M 542.354, 294.738 L 554.118, 343.739 L 528.763, 350.802 L 463.957, 300.436 L 506.717, 289.484 z "/>
<path style="fill:rgb(107, 159, 231);fill-opacity:1.0;fill-rule:evenodd;stroke:rgb(0, 0, 0);stroke-width:3.0;" d="M 471.255, 20.0624 L 470.119, 26.7497 L 435.483, 31.5244 L 428.673, 28.8318 L 427.775, 19.2449 z "/>
<path style="fill:rgb(177, 69, 255);fill-opacity:1.0;fill-rule:evenodd;stroke:rgb(0, 0, 0);stroke-width:3.0;" d="M 725.693, 309.408 L 711.827, 309.371 L 704.763, 309.004 L 709.201, 303.675 L 732.434, 303.611 z "/>
<path style="fill:rgb(177, 69, 255);fill-opacity:1.0;fill-rule:evenodd;stroke:rgb(0, 0, 0);stroke-width:3.0;" d="M 451.723, 178.897 L 445.929, 183.223 L 431.14, 180.62 L 434.54, 175.428 L 442.32, 168.328 z "/>
<path style="fill:rgb(59, 246, 182);fill-opacity:1.0;fill-rule:evenodd;stroke:rgb(0, 0, 0);stroke-width:3.0;" d="M 760.129, 393.771 L 753.198, 449.575 L 640.771, 436.615 L 522.313, 394.99 L 628.503, 379.18 z "/>
<path style="fill:rgb(255, 14, 27);fill-opacity:1.0;fill-rule:evenodd;stroke:rgb(0, 0, 0);stroke-width:3.0;" d="M 211.531, 428.65 L 52.5877, 512.826 L 12.0793, 507.157 L 132.249, 417.432 z "/>
<path style="fill:rgb(255, 110, 11);fill-opacity:1.0;fill-rule:evenodd;stroke:rgb(0, 0, 0);stroke-width:3.0;" d="M 368.653, 55.0761 L 351.655, 66.753 L 342.478, 61.9334 L 358.007, 45.0364 z "/>
<path style="fill:rgb(255, 110, 11);fill-opacity:1.0;fill-rule:evenodd;stroke:rgb(0, 0, 0);stroke-width:3.0;" d="M 355.816, 40.1648 L 354.008, 47.4958 L 338.561, 46.0451 L 343.434, 39.9606 L 352.412, 35.9708 z "/>
<path style="fill:rgb(255, 110, 11);fill-opacity:1.0;fill-rule:evenodd;stroke:rgb(0, 0, 0);stroke-width:3.0;" d="M 754.43, 201.802 L 754.47, 202.429 L 746.973, 199.853 L 732.855, 177.972 L 737.681, 177.584 z "/>
<path style="fill:rgb(60, 61, 10);fill-opacity:1.0;fill-rule:evenodd;stroke:rgb(0, 0, 0);stroke-width:3.0;" d="M 751.911, 459.929 L 750.038, 475.009 L 659.901, 443.336 z "/>
<path style="fill:rgb(60, 61, 10);fill-opacity:1.0;fill-rule:evenodd;stroke:rgb(0, 0, 0);stroke-width:3.0;" d="M 321.214, 21.7997 L 320.966, 33.0801 L 302.134, 20.0208 z "/>
<path style="fill:rgb(60, 61, 10);fill-opacity:1.0;fill-rule:evenodd;stroke:rgb(0, 0, 0);stroke-width:3.0;" d="M 665.073, 312.832 L 554.118, 343.739 L 549.985, 326.522 L 600.771, 303.351 z "/>
<path style="fill:rgb(15, 29, 255);fill-opacity:1.0;fill-rule:evenodd;stroke:rgb(0, 0, 0);stroke-width:3.0;" d="M 771.432, 401.054 L 776.84, 443.449 L 757.445, 425.895 L 757.993, 410.97 L 759.714, 397.112 z "/>
<path style="fill:rgb(15, 29, 255);fill-opacity:1.0;fill-rule:evenodd;stroke:rgb(0, 0, 0);stroke-width:3.0;" d="M 460.461, 369.827 L 457.753, 370.582 L 440.269, 351.066 L 447.902, 346.014 z "/>
<path style="fill:rgb(15, 29, 255);fill-opacity:1.0;fill-rule:evenodd;stroke:rgb(0, 0, 0);stroke-width:3.0;" d="M 479.139, 104.926 L 443.819, 90.0995 L 457.436, 49.776 z "/>
<path style="fill:rgb(255, 114, 21);fill-opacity:1.0;fill-rule:evenodd;stroke:rgb(0, 0, 0);stroke-width:3.0;" d="M 437.136, 228.933 L 420.523, 202.192 L 447.535, 182.024 z "/>
<path style="fill:rgb(255, 43, 17);fill-opacity:1.0;fill-rule:evenodd;stroke:rgb(0, 0, 0);stroke-width:3.0;" d="M 238.913, 559.375 L 204.549, 591.294 L 181.938, 570.846 L 213.604, 550.008 z "/>
<path style="fill:rgb(10, 21, 189);fill-opacity:1.0;fill-rule:evenodd;stroke:rgb(0, 0, 0);stroke-width:3.0;" d="M 776.312, 263.483 L 771.287, 303.94 L 727.907, 281.214 L 760.786, 241.735 z "/>
<path style="fill:rgb(240, 67, 17);fill-opacity:1.0;fill-rule:evenodd;stroke:rgb(0, 0, 0);stroke-width:3.0;" d="M 443.819, 90.0995 L 411.526, 76.5438 L 422.357, 67.8474 L 451.464, 67.4615 z "/>
<path style="fill:rgb(255, 243, 9);fill-opacity:1.0;fill-rule:evenodd;stroke:rgb(0, 0, 0);stroke-width:3.0;" d="M 697.319, 456.485 L 441.043, 461.125 L 405.874, 456.148 L 487.18, 382.645 z "/>
<path style="fill:rgb(246, 23, 252);fill-opacity:1.0;fill-rule:evenodd;stroke:rgb(0, 0, 0);stroke-width:3.0;" d="M 378.982, 22.2131 L 355.608, 47.646 L 354.008, 47.4958 L 363.782, 7.8611 L 365.696, 7.59831 z "/>
<path style="fill:rgb(246, 23, 252);fill-opacity:1.0;fill-rule:evenodd;stroke:rgb(0, 0, 0);stroke-width:3.0;" d="M 715.834, 487.939 L 724.943, 501.295 L 655.806, 491.512 L 664.183, 457.918 z "/>
<path style="fill:rgb(246, 23, 252);fill-opacity:1.0;fill-rule:evenodd;stroke:rgb(0, 0, 0);stroke-width:3.0;" d="M 691.208, 253.4 L 650.576, 258.695 L 655.727, 251.315 L 697.16, 240.703 z "/>
<path style="fill:rgb(246, 23, 252);fill-opacity:1.0;fill-rule:evenodd;stroke:rgb(0, 0, 0);stroke-width:3.0;" d="M 383.199, 217.41 L 375.773, 225.096 L 368.743, 223.058 L 381.207, 206.211 z "/>
<path style="fill:rgb(255, 1, 42);fill-opacity:1.0;fill-rule:evenodd;stroke:rgb(0, 0, 0);stroke-width:3.0;" d="M 269.258, 570.607 L 231.657, 586.182 L 243.254, 560.982 z "/>
<path style="fill:rgb(255, 52, 49);fill-opacity:1.0;fill-rule:evenodd;stroke:rgb(0, 0, 0);stroke-width:3.0;" d="M 524.696, 40.7241 L 507.061, 42.1251 L 500.325, 32.8886 L 524.045, 28.7418 z "/>
<path style="fill:rgb(255, 52, 49);fill-opacity:1.0;fill-rule:evenodd;stroke:rgb(0, 0, 0);stroke-width:3.0;" d="M 773.424, 365.989 L 778.147, 387.858 L 770.732, 395.566 L 766.806, 364.791 z "/>
<path style="fill:rgb(255, 36, 18);fill-opacity:1.0;fill-rule:evenodd;stroke:rgb(0, 0, 0);stroke-width:3.0;" d="M 792.646, 455.003 L 777.964, 445.833 L 781.443, 403.123 z "/>
<path style="fill:rgb(255, 5, 13);fill-opacity:1.0;fill-rule:evenodd;stroke:rgb(0, 0, 0);stroke-width:3.0;" d="M 669.147, 244.553 L 640.849, 237.635 L 662.152, 230.545 L 669.856, 229.483 z "/>
<path style="fill:rgb(67, 8, 243);fill-opacity:1.0;fill-rule:evenodd;stroke:rgb(0, 0, 0);stroke-width:3.0;" d="M 715.834, 487.939 L 664.183, 457.918 L 664.392, 457.081 L 694.416, 456.537 z "/>
<path style="fill:rgb(67, 8, 243);fill-opacity:1.0;fill-rule:evenodd;stroke:rgb(0, 0, 0);stroke-width:3.0;" d="M 775.363, 239.045 L 767.823, 248.491 L 766.246, 249.382 L 760.786, 241.735 L 767.974, 233.104 z "/>
<path style="fill:rgb(165, 92, 52);fill-opacity:1.0;fill-rule:evenodd;stroke:rgb(0, 0, 0);stroke-width:3.0;" d="M 218.713, 545.099 L 226.079, 554.625 L 196.347, 543.621 z "/>
<path style="fill:rgb(165, 92, 52);fill-opacity:1.0;fill-rule:evenodd;stroke:rgb(0, 0, 0);stroke-width:3.0;" d="M 402.519, 455.674 L 284.551, 545.29 L 52.5877, 512.826 L 211.531, 428.65 z "/>
<path style="fill:rgb(255, 255, 23);fill-opacity:1.0;fill-rule:evenodd;stroke:rgb(0, 0, 0);stroke-width:3.0;" d="M 506.842, 132.539 L 492.875, 130.71 L 491.465, 130.002 L 501.206, 117.369 z "/>
<path style="fill:rgb(255, 223, 8);fill-opacity:1.0;fill-rule:evenodd;stroke:rgb(0, 0, 0);stroke-width:3.0;" d="M 685.872, 198.135 L 684.084, 205.786 L 677.517, 211.755 L 676.13, 206.159 L 679.222, 195.398 L 682.483, 194.284 z "/>
<path style="fill:rgb(255, 223, 8);fill-opacity:1.0;fill-rule:evenodd;stroke:rgb(0, 0, 0);stroke-width:3.0;" d="M 487.18, 382.645 L 405.874, 456.148 L 226.248, 430.732 L 182.301, 380.061 L 197.55, 368.675 L 342.072, 331.657 z "/>
<path style="fill:rgb(255, 187, 18);fill-opacity:1.0;fill-rule:evenodd;stroke:rgb(0, 0, 0);stroke-width:3.0;" d="M 601.34, 231.747 L 600.969, 240.887 L 595.311, 248.856 L 590.546, 236.393 L 590.881, 234.733 L 591.119, 234.439 L 597.976, 230.158 z "/>
<path style="fill:rgb(255, 187, 18);fill-opacity:1.0;fill-rule:evenodd;stroke:rgb(0, 0, 0);stroke-width:3.0;" d="M 650.412, 61.3722 L 623.222, 74.5469 L 621.634, 69.3602 L 632.267, 50.7004 L 649.398, 33.8063 L 666.832, 23.7629 z "/>
<path style="fill:rgb(255, 187, 18);fill-opacity:1.0;fill-rule:evenodd;stroke:rgb(0, 0, 0);stroke-width:3.0;" d="M 483.778, 359.507 L 471.048, 366.878 L 468.112, 367.696 L 467.635, 366.432 L 470.489, 339.777 z "/>
<path style="fill:rgb(103, 107, 255);fill-opacity:1.0;fill-rule:evenodd;stroke:rgb(0, 0, 0);stroke-width:3.0;" d="M 437.139, 92.2961 L 448.355, 103.065 L 436.604, 111.364 L 415.369, 100.212 L 425.069, 91.8789 z "/>
<path style="fill:rgb(255, 49, 177);fill-opacity:1.0;fill-rule:evenodd;stroke:rgb(0, 0, 0);stroke-width:3.0;" d="M 593.001, 302.205 L 548.889, 321.955 L 542.354, 294.738 z "/>
<path style="fill:rgb(255, 49, 177);fill-opacity:1.0;fill-rule:evenodd;stroke:rgb(0, 0, 0);stroke-width:3.0;" d="M 279.861, 544.634 L 276.828, 555.324 L 263.865, 551.085 L 265.265, 542.591 z "/>
<path style="fill:rgb(255, 49, 177);fill-opacity:1.0;fill-rule:evenodd;stroke:rgb(0, 0, 0);stroke-width:3.0;" d="M 154.925, 413.617 L 160, 421.359 L 132.249, 417.432 L 146.611, 406.709 z "/>
<path style="fill:rgb(255, 4, 7);fill-opacity:1.0;fill-rule:evenodd;stroke:rgb(0, 0, 0);stroke-width:3.0;" d="M 293.216, 560.682 L 269.258, 570.607 L 261.142, 567.603 L 263.865, 551.085 z "/>
<path style="fill:rgb(189, 5, 215);fill-opacity:1.0;fill-rule:evenodd;stroke:rgb(0, 0, 0);stroke-width:3.0;" d="M 386.452, 293.968 L 361.345, 246.378 L 403.363, 215.005 L 409.858, 212.33 z "/>
<path style="fill:rgb(189, 5, 215);fill-opacity:1.0;fill-rule:evenodd;stroke:rgb(0, 0, 0);stroke-width:3.0;" d="M 722.496, 249.322 L 691.208, 253.4 L 697.16, 240.703 L 732.795, 231.575 z "/>
<path style="fill:rgb(189, 5, 215);fill-opacity:1.0;fill-rule:evenodd;stroke:rgb(0, 0, 0);stroke-width:3.0;" d="M 390.582, 75.7541 L 388.67, 77.4954 L 365.641, 74.0978 L 351.655, 66.753 L 368.653, 55.0761 z "/>
<path style="fill:rgb(65, 255, 255);fill-opacity:1.0;fill-rule:evenodd;stroke:rgb(0, 0, 0);stroke-width:3.0;" d="M 149.509, 526.391 L 148.118, 537.339 L 141.322, 540.694 L 128.859, 530.957 L 128.293, 523.421 z "/>
<path style="fill:rgb(234, 182, 17);fill-opacity:1.0;fill-rule:evenodd;stroke:rgb(0, 0, 0);stroke-width:3.0;" d="M 770.886, 177.633 L 760.27, 191.387 L 750.946, 181.236 L 762.896, 177.55 z "/>
<path style="fill:rgb(243, 76, 255);fill-opacity:1.0;fill-rule:evenodd;stroke:rgb(0, 0, 0);stroke-width:3.0;" d="M 435.428, 236.637 L 429.762, 262.197 L 410.202, 211.13 L 410.651, 209.563 L 415.536, 205.916 z "/>
<path style="fill:rgb(243, 76, 255);fill-opacity:1.0;fill-rule:evenodd;stroke:rgb(0, 0, 0);stroke-width:3.0;" d="M 585.144, 263.177 L 579.749, 270.777 L 569.166, 273.487 L 562.302, 270.028 L 563.72, 268.277 L 587.299, 252.493 z "/>
<path style="fill:rgb(243, 76, 255);fill-opacity:1.0;fill-rule:evenodd;stroke:rgb(0, 0, 0);stroke-width:3.0;" d="M 773.301, 469.065 L 781.861, 482.812 L 782.377, 486.854 L 775.538, 484.601 L 760.837, 460.681 z "/>
<path style="fill:rgb(255, 0, 78);fill-opacity:1.0;fill-rule:evenodd;stroke:rgb(0, 0, 0);stroke-width:3.0;" d="M 785.913, 388.826 L 785.554, 402.774 L 780.886, 400.546 L 777.978, 387.08 L 779.529, 377.712 z "/>
<path style="fill:rgb(17, 255, 255);fill-opacity:1.0;fill-rule:evenodd;stroke:rgb(0, 0, 0);stroke-width:3.0;" d="M 776.84, 443.449 L 780.753, 474.128 L 764.569, 440.166 L 769.852, 437.124 z "/>
<path style="fill:rgb(7, 255, 11);fill-opacity:1.0;fill-rule:evenodd;stroke:rgb(0, 0, 0);stroke-width:3.0;" d="M 511.469, 60.438 L 515.78, 64.0368 L 467.411, 75.123 L 455.333, 44.4338 z "/>
<path style="fill:rgb(7, 255, 11);fill-opacity:1.0;fill-rule:evenodd;stroke:rgb(0, 0, 0);stroke-width:3.0;" d="M 787.181, 175.98 L 786.012, 185.395 L 780.267, 192.091 L 777.324, 187.84 L 773.482, 179.643 L 773.346, 174.809 z "/>
<path style="fill:rgb(234, 2, 199);fill-opacity:1.0;fill-rule:evenodd;stroke:rgb(0, 0, 0);stroke-width:3.0;" d="M 740.208, 299.307 L 719.46, 291.356 L 726.314, 283.126 z "/>
<path style="fill:rgb(234, 2, 199);fill-opacity:1.0;fill-rule:evenodd;stroke:rgb(0, 0, 0);stroke-width:3.0;" d="M 373.603, 326.847 L 374.875, 332.007 L 374.275, 342.972 L 363.649, 339.238 L 357.911, 327.6 L 364.228, 325.981 z "/>
<path style="fill:rgb(234, 2, 199);fill-opacity:1.0;fill-rule:evenodd;stroke:rgb(0, 0, 0);stroke-width:3.0;" d="M 767.252, 327.897 L 751.881, 360.811 L 536.442, 392.887 L 542.569, 346.956 L 665.073, 312.832 z "/>
<path style="fill:rgb(234, 2, 199);fill-opacity:1.0;fill-rule:evenodd;stroke:rgb(0, 0, 0);stroke-width:3.0;" d="M 418.716, 312.025 L 405.077, 315.518 L 414.278, 301.653 L 421.632, 298.867 z "/>
<path style="fill:rgb(234, 2, 199);fill-opacity:1.0;fill-rule:evenodd;stroke:rgb(0, 0, 0);stroke-width:3.0;" d="M 703.114, 200.048 L 702.77, 217.337 L 701.176, 215.525 L 689.093, 192.026 L 696.87, 189.37 z "/>
<path style="fill:rgb(115, 17, 255);fill-opacity:1.0;fill-rule:evenodd;stroke:rgb(0, 0, 0);stroke-width:3.0;" d="M 771.287, 303.94 L 770.424, 310.886 L 740.208, 299.307 L 726.314, 283.126 L 727.907, 281.214 z "/>
<path style="fill:rgb(255, 170, 182);fill-opacity:1.0;fill-rule:evenodd;stroke:rgb(0, 0, 0);stroke-width:3.0;" d="M 386.452, 293.968 L 380.589, 314.418 L 338.908, 330.209 L 320.902, 276.575 L 361.345, 246.378 z "/>
<path style="fill:rgb(255, 3, 11);fill-opacity:1.0;fill-rule:evenodd;stroke:rgb(0, 0, 0);stroke-width:3.0;" d="M 470.489, 339.777 L 470.101, 343.403 L 460.63, 341.492 L 455.301, 332.658 L 462.949, 328.584 z "/>
<path style="fill:rgb(255, 3, 11);fill-opacity:1.0;fill-rule:evenodd;stroke:rgb(0, 0, 0);stroke-width:3.0;" d="M 265.265, 542.591 L 261.142, 567.603 L 226.079, 554.625 L 210.89, 534.981 z "/>
<path style="fill:rgb(255, 11, 165);fill-opacity:1.0;fill-rule:evenodd;stroke:rgb(0, 0, 0);stroke-width:3.0;" d="M 452.18, 93.6091 L 461.869, 107.448 L 461.037, 114.723 L 452.26, 110.316 L 443.156, 89.821 z "/>
<path style="fill:rgb(255, 11, 165);fill-opacity:1.0;fill-rule:evenodd;stroke:rgb(0, 0, 0);stroke-width:3.0;" d="M 334.493, 32.2461 L 328.24, 24.5369 L 328.602, 20.0773 L 347.312, 6.75876 z "/>
<path style="fill:rgb(223, 64, 220);fill-opacity:1.0;fill-rule:evenodd;stroke:rgb(0, 0, 0);stroke-width:3.0;" d="M 534.79, 220.48 L 516.555, 214.801 L 514.864, 202.216 L 537.731, 172.615 z "/>
<path style="fill:rgb(223, 64, 220);fill-opacity:1.0;fill-rule:evenodd;stroke:rgb(0, 0, 0);stroke-width:3.0;" d="M 334.06, 315.769 L 287.332, 337.387 L 274.496, 311.224 L 320.902, 276.575 z "/>
<path style="fill:rgb(255, 19, 18);fill-opacity:1.0;fill-rule:evenodd;stroke:rgb(0, 0, 0);stroke-width:3.0;" d="M 349.501, 32.3851 L 338.561, 46.0451 L 333.666, 45.5853 L 342.74, 24.0551 z "/>
<path style="fill:rgb(255, 19, 18);fill-opacity:1.0;fill-rule:evenodd;stroke:rgb(0, 0, 0);stroke-width:3.0;" d="M 539.314, 371.36 L 537.267, 386.703 L 499.52, 358.947 L 522.57, 352.527 z "/>
<path style="fill:rgb(255, 19, 18);fill-opacity:1.0;fill-rule:evenodd;stroke:rgb(0, 0, 0);stroke-width:3.0;" d="M 457.753, 370.582 L 455.017, 371.344 L 425.37, 360.926 L 440.269, 351.066 z "/>
<path style="fill:rgb(159, 10, 255);fill-opacity:1.0;fill-rule:evenodd;stroke:rgb(0, 0, 0);stroke-width:3.0;" d="M 758.323, 196.693 L 757.233, 197.766 L 749.404, 194.535 L 737.681, 177.584 L 742.173, 177.224 z "/>
<path style="fill:rgb(159, 10, 255);fill-opacity:1.0;fill-rule:evenodd;stroke:rgb(0, 0, 0);stroke-width:3.0;" d="M 787.294, 297.103 L 789.762, 317.415 L 771.45, 302.629 L 772.45, 294.575 z "/>
<path style="fill:rgb(52, 94, 255);fill-opacity:1.0;fill-rule:evenodd;stroke:rgb(0, 0, 0);stroke-width:3.0;" d="M 622.286, 68.217 L 618.396, 54.4508 L 638.818, 39.2033 z "/>
<path style="fill:rgb(52, 94, 255);fill-opacity:1.0;fill-rule:evenodd;stroke:rgb(0, 0, 0);stroke-width:3.0;" d="M 394.022, 34.8029 L 377.432, 45.2521 L 363.858, 50.5539 L 358.007, 45.0364 L 391.384, 8.71845 z "/>
<path style="fill:rgb(52, 94, 255);fill-opacity:1.0;fill-rule:evenodd;stroke:rgb(0, 0, 0);stroke-width:3.0;" d="M 375.773, 225.096 L 361.736, 239.625 L 356.847, 239.138 L 368.743, 223.058 z "/>
<path style="fill:rgb(52, 94, 255);fill-opacity:1.0;fill-rule:evenodd;stroke:rgb(0, 0, 0);stroke-width:3.0;" d="M 432.009, 42.0417 L 434.634, 55.2297 L 401.318, 62.2103 L 400.865, 43.7389 L 408.115, 40.5827 z "/>
<path style="fill:rgb(179, 1, 142);fill-opacity:1.0;fill-rule:evenodd;stroke:rgb(0, 0, 0);stroke-width:3.0;" d="M 417.448, 230.047 L 409.801, 234.154 L 405.598, 227.189 L 410.202, 211.13 z "/>
<path style="fill:rgb(179, 1, 142);fill-opacity:1.0;fill-rule:evenodd;stroke:rgb(0, 0, 0);stroke-width:3.0;" d="M 738.293, 298.573 L 732.434, 303.611 L 709.201, 303.675 L 719.46, 291.356 z "/>
<path style="fill:rgb(255, 14, 52);fill-opacity:1.0;fill-rule:evenodd;stroke:rgb(0, 0, 0);stroke-width:3.0;" d="M 722.983, 190.38 L 711.208, 186.185 L 701.926, 180.454 L 719.064, 179.079 z "/>
<path style="fill:rgb(69, 124, 255);fill-opacity:1.0;fill-rule:evenodd;stroke:rgb(0, 0, 0);stroke-width:3.0;" d="M 526.354, 72.8618 L 523.996, 123.755 L 479.139, 104.926 L 467.411, 75.123 L 515.78, 64.0368 z "/>
<path style="fill:rgb(69, 124, 255);fill-opacity:1.0;fill-rule:evenodd;stroke:rgb(0, 0, 0);stroke-width:3.0;" d="M 661.164, 438.965 L 751.949, 459.624 L 751.911, 459.929 L 659.901, 443.336 L 640.771, 436.615 z "/>
<path style="fill:rgb(69, 124, 255);fill-opacity:1.0;fill-rule:evenodd;stroke:rgb(0, 0, 0);stroke-width:3.0;" d="M 445.751, 574.125 L 451.704, 591.213 L 431.597, 570.49 z "/>
<path style="fill:rgb(69, 124, 255);fill-opacity:1.0;fill-rule:evenodd;stroke:rgb(0, 0, 0);stroke-width:3.0;" d="M 590.733, 31.7923 L 588.701, 51.4023 L 578.199, 41.2056 L 577.335, 38.0256 L 587.622, 29.2087 z "/>
<path style="fill:rgb(69, 124, 255);fill-opacity:1.0;fill-rule:evenodd;stroke:rgb(0, 0, 0);stroke-width:3.0;" d="M 460.557, 97.1256 L 481.013, 124.754 L 470.174, 119.311 L 452.18, 93.6091 z "/>
<path style="fill:rgb(69, 124, 255);fill-opacity:1.0;fill-rule:evenodd;stroke:rgb(0, 0, 0);stroke-width:3.0;" d="M 684.021, 315.626 L 663.897, 312.659 L 685.884, 294.917 L 700.94, 286.47 z "/>
<path style="fill:rgb(150, 194, 255);fill-opacity:1.0;fill-rule:evenodd;stroke:rgb(0, 0, 0);stroke-width:3.0;" d="M 524.923, 44.9055 L 515.376, 61.5519 L 460.272, 45.842 L 524.696, 40.7241 z "/>
<path style="fill:rgb(45, 246, 255);fill-opacity:1.0;fill-rule:evenodd;stroke:rgb(0, 0, 0);stroke-width:3.0;" d="M 500.78, 114.01 L 501.996, 116.344 L 491.465, 130.002 L 481.013, 124.754 L 460.557, 97.1256 z "/>
<path style="fill:rgb(45, 246, 255);fill-opacity:1.0;fill-rule:evenodd;stroke:rgb(0, 0, 0);stroke-width:3.0;" d="M 655.806, 491.512 L 441.043, 461.125 L 664.392, 457.081 z "/>
<path style="fill:rgb(234, 0, 70);fill-opacity:1.0;fill-rule:evenodd;stroke:rgb(0, 0, 0);stroke-width:3.0;" d="M 322.841, 34.3802 L 317.049, 48.5797 L 297.767, 38.4537 L 296.094, 28.6384 L 308.691, 24.5678 z "/>
<path style="fill:rgb(234, 0, 70);fill-opacity:1.0;fill-rule:evenodd;stroke:rgb(0, 0, 0);stroke-width:3.0;" d="M 695.815, 209.433 L 678.689, 228.004 L 667.261, 224.482 L 685.305, 206.98 L 692.368, 205.516 z "/>
<path style="fill:rgb(11, 234, 105);fill-opacity:1.0;fill-rule:evenodd;stroke:rgb(0, 0, 0);stroke-width:3.0;" d="M 429.762, 262.197 L 428.946, 265.877 L 409.801, 234.154 L 417.448, 230.047 z "/>
<path style="fill:rgb(69, 3, 202);fill-opacity:1.0;fill-rule:evenodd;stroke:rgb(0, 0, 0);stroke-width:3.0;" d="M 210.89, 534.981 L 218.713, 545.099 L 196.347, 543.621 L 191.223, 541.724 L 205.279, 534.196 z "/>
<path style="fill:rgb(202, 30, 243);fill-opacity:1.0;fill-rule:evenodd;stroke:rgb(0, 0, 0);stroke-width:3.0;" d="M 537.267, 386.703 L 536.442, 392.887 L 522.313, 394.99 L 500.807, 387.434 L 472.219, 366.552 L 499.52, 358.947 z "/>
<path style="fill:rgb(255, 119, 74);fill-opacity:1.0;fill-rule:evenodd;stroke:rgb(0, 0, 0);stroke-width:3.0;" d="M 423.534, 41.5242 L 410.325, 40.7176 L 405.002, 31.5899 L 428.758, 29.5432 z "/>
<path style="fill:rgb(255, 25, 197);fill-opacity:1.0;fill-rule:evenodd;stroke:rgb(0, 0, 0);stroke-width:3.0;" d="M 467.205, 352.391 L 448.504, 347.156 L 447.902, 346.014 L 458.948, 338.704 z "/>
<path style="fill:rgb(255, 25, 197);fill-opacity:1.0;fill-rule:evenodd;stroke:rgb(0, 0, 0);stroke-width:3.0;" d="M 551.553, 239.876 L 511.525, 271.697 L 510.992, 271.125 L 513.041, 259.941 L 513.795, 258.617 L 543.018, 238.69 z "/>
<path style="fill:rgb(74, 189, 255);fill-opacity:1.0;fill-rule:evenodd;stroke:rgb(0, 0, 0);stroke-width:3.0;" d="M 321.214, 21.7997 L 302.134, 20.0208 L 300.119, 18.6235 L 321.439, 11.5864 z "/>
<path style="fill:rgb(74, 189, 255);fill-opacity:1.0;fill-rule:evenodd;stroke:rgb(0, 0, 0);stroke-width:3.0;" d="M 781.443, 403.123 L 780.829, 410.666 L 773.742, 419.166 L 770.732, 395.566 L 778.147, 387.858 z "/>
<path style="fill:rgb(74, 189, 255);fill-opacity:1.0;fill-rule:evenodd;stroke:rgb(0, 0, 0);stroke-width:3.0;" d="M 664.917, 11.0909 L 660.362, 15.6807 L 650.009, 23.0608 L 649.284, 21.4932 L 649.538, 8.88158 L 662.605, 7.57109 z "/>
<path style="fill:rgb(58, 255, 56);fill-opacity:1.0;fill-rule:evenodd;stroke:rgb(0, 0, 0);stroke-width:3.0;" d="M 530.102, 231.426 L 527.05, 249.578 L 513.795, 258.617 L 529.839, 230.461 z "/>
<path style="fill:rgb(65, 136, 228);fill-opacity:1.0;fill-rule:evenodd;stroke:rgb(0, 0, 0);stroke-width:3.0;" d="M 753.198, 449.575 L 751.949, 459.624 L 678.644, 442.943 L 677.156, 440.809 z "/>
<path style="fill:rgb(223, 231, 33);fill-opacity:1.0;fill-rule:evenodd;stroke:rgb(0, 0, 0);stroke-width:3.0;" d="M 639.35, 274.776 L 624.953, 295.401 L 613.748, 300.966 L 630.834, 269.246 L 647.941, 255.041 z "/>
<path style="fill:rgb(33, 3, 255);fill-opacity:1.0;fill-rule:evenodd;stroke:rgb(0, 0, 0);stroke-width:3.0;" d="M 790.604, 290.908 L 785.875, 285.432 L 784.154, 271.262 L 792.478, 270.166 z "/>
<path style="fill:rgb(33, 3, 255);fill-opacity:1.0;fill-rule:evenodd;stroke:rgb(0, 0, 0);stroke-width:3.0;" d="M 226.248, 430.732 L 218.832, 429.683 L 201.081, 403.517 L 201.708, 402.437 z "/>
<path style="fill:rgb(33, 3, 255);fill-opacity:1.0;fill-rule:evenodd;stroke:rgb(0, 0, 0);stroke-width:3.0;" d="M 447.242, 116.95 L 364.777, 228.419 L 243.81, 188.766 L 251.056, 154.038 L 382.103, 82.7426 z "/>
<path style="fill:rgb(234, 2, 220);fill-opacity:1.0;fill-rule:evenodd;stroke:rgb(0, 0, 0);stroke-width:3.0;" d="M 613.748, 300.966 L 607.075, 304.281 L 593.813, 302.325 L 628.756, 273.104 z "/>
<path style="fill:rgb(26, 6, 199);fill-opacity:1.0;fill-rule:evenodd;stroke:rgb(0, 0, 0);stroke-width:3.0;" d="M 639.58, 261.984 L 565.331, 298.126 L 506.717, 289.484 L 650.957, 252.537 z "/>
<path style="fill:rgb(255, 3, 11);fill-opacity:1.0;fill-rule:evenodd;stroke:rgb(0, 0, 0);stroke-width:3.0;" d="M 770.235, 312.408 L 769.59, 317.606 L 745.355, 324.669 L 743.43, 324.385 L 743.292, 318.326 L 747.838, 311.243 z "/>
<path style="fill:rgb(52, 66, 255);fill-opacity:1.0;fill-rule:evenodd;stroke:rgb(0, 0, 0);stroke-width:3.0;" d="M 605.155, 120.708 L 564.975, 172.813 L 567.636, 164.128 L 599.947, 107.42 z "/>
<path style="fill:rgb(255, 217, 13);fill-opacity:1.0;fill-rule:evenodd;stroke:rgb(0, 0, 0);stroke-width:3.0;" d="M 769.497, 222.174 L 726.205, 233.263 L 721.308, 227.127 L 732.441, 199.295 z "/>
<path style="fill:rgb(255, 170, 9);fill-opacity:1.0;fill-rule:evenodd;stroke:rgb(0, 0, 0);stroke-width:3.0;" d="M 587.373, 74.9749 L 581.691, 80.0855 L 577.09, 64.106 L 579.588, 46.3177 z "/>
<path style="fill:rgb(255, 207, 12);fill-opacity:1.0;fill-rule:evenodd;stroke:rgb(0, 0, 0);stroke-width:3.0;" d="M 375.178, 86.5101 L 251.056, 154.038 L 270.012, 63.199 z "/>
<path style="fill:rgb(243, 124, 44);fill-opacity:1.0;fill-rule:evenodd;stroke:rgb(0, 0, 0);stroke-width:3.0;" d="M 382.103, 82.7426 L 375.178, 86.5101 L 270.012, 63.199 L 277.407, 27.7619 z "/>
<path style="fill:rgb(246, 140, 82);fill-opacity:1.0;fill-rule:evenodd;stroke:rgb(0, 0, 0);stroke-width:3.0;" d="M 696.518, 317.468 L 685.933, 315.908 L 697.808, 300.264 L 699.118, 299.532 z "/>
<path style="fill:rgb(27, 243, 237);fill-opacity:1.0;fill-rule:evenodd;stroke:rgb(0, 0, 0);stroke-width:3.0;" d="M 170.043, 404.943 L 149.76, 409.325 L 146.611, 406.709 L 166.647, 391.748 z "/>
<path style="fill:rgb(52, 255, 231);fill-opacity:1.0;fill-rule:evenodd;stroke:rgb(0, 0, 0);stroke-width:3.0;" d="M 287.969, 545.769 L 293.653, 560.502 L 293.216, 560.682 L 276.828, 555.324 L 279.861, 544.634 z "/>
<path style="fill:rgb(255, 255, 102);fill-opacity:1.0;fill-rule:evenodd;stroke:rgb(0, 0, 0);stroke-width:3.0;" d="M 525.007, 124.18 L 523.996, 123.755 L 524.476, 113.399 L 546.8, 107.908 z "/>
<path style="fill:rgb(234, 18, 56);fill-opacity:1.0;fill-rule:evenodd;stroke:rgb(0, 0, 0);stroke-width:3.0;" d="M 243.81, 188.766 L 205.335, 176.153 L 274.242, 42.9298 z "/>
<path style="fill:rgb(231, 255, 10);fill-opacity:1.0;fill-rule:evenodd;stroke:rgb(0, 0, 0);stroke-width:3.0;" d="M 277.407, 27.7619 L 274.242, 42.9298 L 205.335, 176.153 L 194.312, 172.54 L 269.756, 23.744 z "/>
<path style="fill:rgb(249, 252, 24);fill-opacity:1.0;fill-rule:evenodd;stroke:rgb(0, 0, 0);stroke-width:3.0;" d="M 132.762, 582.89 L 120.55, 582.514 L 131.382, 564.534 z "/>
<path style="fill:rgb(168, 234, 27);fill-opacity:1.0;fill-rule:evenodd;stroke:rgb(0, 0, 0);stroke-width:3.0;" d="M 636.405, 41.0046 L 601.281, 67.2301 L 623.913, 32.6514 z "/>
<path style="fill:rgb(255, 34, 18);fill-opacity:1.0;fill-rule:evenodd;stroke:rgb(0, 0, 0);stroke-width:3.0;" d="M 176.983, 530.236 L 202.283, 535.8 L 191.223, 541.724 L 149.97, 526.455 z "/>
<path style="fill:rgb(226, 6, 46);fill-opacity:1.0;fill-rule:evenodd;stroke:rgb(0, 0, 0);stroke-width:3.0;" d="M 549.985, 326.522 L 548.889, 321.955 L 587.13, 304.834 L 598.147, 304.548 z "/>
<path style="fill:rgb(204, 234, 255);fill-opacity:1.0;fill-rule:evenodd;stroke:rgb(0, 0, 0);stroke-width:3.0;" d="M 574.405, 233.701 L 569.009, 239.488 L 562.09, 234.857 L 558.788, 227.937 L 572.49, 218.593 z "/>
<path style="fill:rgb(197, 255, 255);fill-opacity:1.0;fill-rule:evenodd;stroke:rgb(0, 0, 0);stroke-width:3.0;" d="M 768.292, 328.051 L 764.456, 358.939 L 751.881, 360.811 L 767.252, 327.897 z "/>
<path style="fill:rgb(194, 11, 6);fill-opacity:1.0;fill-rule:evenodd;stroke:rgb(0, 0, 0);stroke-width:3.0;" d="M 405.077, 315.518 L 393.442, 318.499 L 389.438, 311.065 L 414.278, 301.653 z "/>
<path style="fill:rgb(98, 255, 249);fill-opacity:1.0;fill-rule:evenodd;stroke:rgb(0, 0, 0);stroke-width:3.0;" d="M 467.205, 352.391 L 468.847, 355.114 L 467.481, 367.872 L 460.461, 369.827 L 448.504, 347.156 z "/>
<path style="fill:rgb(255, 61, 14);fill-opacity:1.0;fill-rule:evenodd;stroke:rgb(0, 0, 0);stroke-width:3.0;" d="M 777.964, 445.833 L 777.073, 445.277 L 773.742, 419.166 L 780.829, 410.666 z "/>
<path style="fill:rgb(255, 112, 255);fill-opacity:1.0;fill-rule:evenodd;stroke:rgb(0, 0, 0);stroke-width:3.0;" d="M 537.731, 172.615 L 514.864, 202.216 L 506.262, 138.176 L 541.461, 111.895 z "/>
</svg>