<?xml version="1.0" encoding="iso-8859-1" standalone="no"?>
<!DOCTYPE svg PUBLIC "-//W3C//DTD SVG 1.0//EN" "http://www.w3.org/TR/2001/REC-SVG-20010904/DTD/svg10.dtd">
<svg xmlns="http://www.w3.org/2000/svg" width="800" height="600">
<path style="fill:rgb(0, 0, 0);fill-opacity:0.0;fill-rule:evenodd;stroke:rgb(0, 0, 0);stroke-width:0.0;" d="M 0, 600 L 800, 600 L 800, 0 L 0, 0 z "/>
<path style="fill:rgb(6, 117, 223);fill-opacity:1.0;fill-rule:evenodd;stroke:rgb(0, 0, 0);stroke-width:3.0;" d="M 582.868, 346.035 L 583.564, 351.51 L 566.642, 343.141 L 563.171, 334.672 L 570.172, 332.268 z "/>
<path style="fill:rgb(6, 117, 223);fill-opacity:1.0;fill-rule:evenodd;stroke:rgb(0, 0, 0);stroke-width:3.0;" d="M 708.978, 217.723 L 683.261, 227.411 L 677.359, 223.773 L 689.75, 213.804 z "/>
<path style="fill:rgb(6, 117, 223);fill-opacity:1.0;fill-rule:evenodd;stroke:rgb(0, 0, 0);stroke-width:3.0;" d="M 590.606, 52.7482 L 600.191, 64.8869 L 573.325, 57.6596 L 574.866, 47.869 z "/>
<path style="fill:rgb(6, 117, 223);fill-opacity:1.0;fill-rule:evenodd;stroke:rgb(0, 0, 0);stroke-width:3.0;" d="M 576.633, 339.274 L 571.735, 333.963 L 556.304, 312.361 L 561.187, 294.712 L 568.95, 291.506 z "/>
<path style="fill:rgb(6, 117, 223);fill-opacity:1.0;fill-rule:evenodd;stroke:rgb(0, 0, 0);stroke-width:3.0;" d="M 731.727, 154.476 L 706.422, 155.482 L 705.538, 154.694 L 710.328, 148.575 L 732.583, 132.331 z "/>
<path style="fill:rgb(12, 126, 255);fill-opacity:1.0;fill-rule:evenodd;stroke:rgb(0, 0, 0);stroke-width:3.0;" d="M 744.26, 20.2073 L 713.585, 21.6591 L 712.384, 20.9936 L 718.108, 15.2505 L 754.682, 14.0997 z "/>
<path style="fill:rgb(12, 126, 255);fill-opacity:1.0;fill-rule:evenodd;stroke:rgb(0, 0, 0);stroke-width:3.0;" d="M 579.056, 404.764 L 594.489, 437.523 L 606.391, 531.233 L 556.438, 401.77 z "/>
<path style="fill:rgb(12, 126, 255);fill-opacity:1.0;fill-rule:evenodd;stroke:rgb(0, 0, 0);stroke-width:3.0;" d="M 660.552, 158.168 L 657.448, 150.725 L 680.778, 136.539 z "/>
<path style="fill:rgb(12, 126, 255);fill-opacity:1.0;fill-rule:evenodd;stroke:rgb(0, 0, 0);stroke-width:3.0;" d="M 561.968, 43.871 L 574.866, 47.869 L 573.325, 57.6596 L 567.796, 56.1722 L 558.04, 42.9105 z "/>
<path style="fill:rgb(12, 126, 255);fill-opacity:1.0;fill-rule:evenodd;stroke:rgb(0, 0, 0);stroke-width:3.0;" d="M 560.03, 210.283 L 552.512, 214.799 L 529.893, 204.09 L 540.316, 193.632 z "/>
<path style="fill:rgb(12, 126, 255);fill-opacity:1.0;fill-rule:evenodd;stroke:rgb(0, 0, 0);stroke-width:3.0;" d="M 494.032, 177.715 L 483.96, 197.165 L 482.404, 175.668 L 482.579, 175.075 L 484.57, 172.749 z "/>
<path style="fill:rgb(12, 126, 255);fill-opacity:1.0;fill-rule:evenodd;stroke:rgb(0, 0, 0);stroke-width:3.0;" d="M 754.428, 262.265 L 725.69, 268.609 L 723.11, 266.595 L 733.934, 260.663 L 755.84, 255.442 z "/>
<path style="fill:rgb(12, 126, 255);fill-opacity:1.0;fill-rule:evenodd;stroke:rgb(0, 0, 0);stroke-width:3.0;" d="M 515.182, 176.091 L 514.885, 176.788 L 500.186, 180.057 L 500.039, 179.62 L 514.558, 161.201 z "/>
<path style="fill:rgb(12, 126, 255);fill-opacity:1.0;fill-rule:evenodd;stroke:rgb(0, 0, 0);stroke-width:3.0;" d="M 547.516, 186.408 L 513.705, 220.332 L 506.057, 197.549 L 523.359, 156.861 z "/>
<path style="fill:rgb(249, 33, 97);fill-opacity:1.0;fill-rule:evenodd;stroke:rgb(0, 0, 0);stroke-width:3.0;" d="M 738.406, 226.525 L 640.387, 282.96 L 576.782, 298.12 L 575.594, 288.762 L 735.94, 222.544 z "/>
<path style="fill:rgb(255, 14, 32);fill-opacity:1.0;fill-rule:evenodd;stroke:rgb(0, 0, 0);stroke-width:3.0;" d="M 628.782, 57.7308 L 657.025, 76.5359 L 654.164, 79.4065 L 633.206, 73.7686 L 595.705, 59.2054 L 587.886, 49.3035 z "/>
<path style="fill:rgb(33, 3, 199);fill-opacity:1.0;fill-rule:evenodd;stroke:rgb(0, 0, 0);stroke-width:3.0;" d="M 616.982, 49.8736 L 618.657, 55.6442 L 587.886, 49.3035 L 576.552, 34.948 L 590.313, 32.1164 z "/>
<path style="fill:rgb(12, 30, 255);fill-opacity:1.0;fill-rule:evenodd;stroke:rgb(0, 0, 0);stroke-width:3.0;" d="M 414.578, 356.434 L 393.948, 363.97 L 391.363, 343.08 L 406.647, 327.744 z "/>
<path style="fill:rgb(79, 207, 255);fill-opacity:1.0;fill-rule:evenodd;stroke:rgb(0, 0, 0);stroke-width:3.0;" d="M 439.465, 346.284 L 436.56, 348.405 L 414.578, 356.434 L 409.857, 339.357 z "/>
<path style="fill:rgb(79, 207, 255);fill-opacity:1.0;fill-rule:evenodd;stroke:rgb(0, 0, 0);stroke-width:3.0;" d="M 663.952, 250.203 L 657.486, 254.943 L 648.981, 258.455 L 648.764, 256.678 L 649.093, 251.99 L 669.08, 241.403 z "/>
<path style="fill:rgb(79, 207, 255);fill-opacity:1.0;fill-rule:evenodd;stroke:rgb(0, 0, 0);stroke-width:3.0;" d="M 583.564, 351.51 L 589.62, 399.196 L 566.642, 343.141 z "/>
<path style="fill:rgb(234, 42, 16);fill-opacity:1.0;fill-rule:evenodd;stroke:rgb(0, 0, 0);stroke-width:3.0;" d="M 741.072, 144.057 L 743.632, 145.898 L 743.38, 154.012 L 731.727, 154.476 L 732.237, 141.297 z "/>
<path style="fill:rgb(172, 5, 199);fill-opacity:1.0;fill-rule:evenodd;stroke:rgb(0, 0, 0);stroke-width:3.0;" d="M 655.087, 103.303 L 636.352, 128.332 L 618.784, 118.232 L 618.237, 115.452 L 643.218, 90.3886 z "/>
<path style="fill:rgb(255, 255, 95);fill-opacity:1.0;fill-rule:evenodd;stroke:rgb(0, 0, 0);stroke-width:3.0;" d="M 665.57, 89.2992 L 655.087, 103.303 L 643.218, 90.3886 L 661.729, 71.8165 z "/>
<path style="fill:rgb(255, 59, 17);fill-opacity:1.0;fill-rule:evenodd;stroke:rgb(0, 0, 0);stroke-width:3.0;" d="M 284.134, 450.664 L 251.217, 483.691 L 177.173, 537.737 L 162.846, 509.075 L 217.398, 439.103 L 261.044, 414.859 z "/>
<path style="fill:rgb(182, 0, 7);fill-opacity:1.0;fill-rule:evenodd;stroke:rgb(0, 0, 0);stroke-width:3.0;" d="M 722.053, 213.342 L 688.914, 230.896 L 688.447, 230.608 L 686.532, 226.179 L 721.223, 213.11 z "/>
<path style="fill:rgb(182, 0, 7);fill-opacity:1.0;fill-rule:evenodd;stroke:rgb(0, 0, 0);stroke-width:3.0;" d="M 131.747, 522.995 L 102.48, 550.096 L 70.0513, 574.611 L 86.0614, 507.676 z "/>
<path style="fill:rgb(249, 237, 43);fill-opacity:1.0;fill-rule:evenodd;stroke:rgb(0, 0, 0);stroke-width:3.0;" d="M 696.421, 158.726 L 694.674, 160.002 L 685.06, 133.935 L 692.36, 129.496 z "/>
<path style="fill:rgb(249, 237, 43);fill-opacity:1.0;fill-rule:evenodd;stroke:rgb(0, 0, 0);stroke-width:3.0;" d="M 420.919, 332.856 L 441.493, 337.857 L 441.525, 344.781 L 439.465, 346.284 L 409.857, 339.357 L 407.613, 331.239 z "/>
<path style="fill:rgb(249, 237, 43);fill-opacity:1.0;fill-rule:evenodd;stroke:rgb(0, 0, 0);stroke-width:3.0;" d="M 271.702, 408.939 L 147.326, 478.025 L 115.099, 413.551 L 269.884, 406.231 z "/>
<path style="fill:rgb(249, 237, 43);fill-opacity:1.0;fill-rule:evenodd;stroke:rgb(0, 0, 0);stroke-width:3.0;" d="M 662.194, 143.19 L 642.107, 143.182 L 640.836, 130.91 z "/>
<path style="fill:rgb(240, 76, 255);fill-opacity:1.0;fill-rule:evenodd;stroke:rgb(0, 0, 0);stroke-width:3.0;" d="M 668.653, 103.332 L 676.518, 139.129 L 669.836, 143.192 L 662.194, 143.19 L 636.352, 128.332 L 662.95, 92.7994 z "/>
<path style="fill:rgb(240, 75, 46);fill-opacity:1.0;fill-rule:evenodd;stroke:rgb(0, 0, 0);stroke-width:3.0;" d="M 727.586, 127.288 L 715.617, 144.715 L 699.169, 156.721 L 695.104, 149.249 L 692.36, 129.496 L 720.442, 112.42 z "/>
<path style="fill:rgb(240, 75, 46);fill-opacity:1.0;fill-rule:evenodd;stroke:rgb(0, 0, 0);stroke-width:3.0;" d="M 513.147, 41.471 L 533.623, 169.415 L 476.43, 99.4568 L 498.959, 37.6541 z "/>
<path style="fill:rgb(255, 70, 9);fill-opacity:1.0;fill-rule:evenodd;stroke:rgb(0, 0, 0);stroke-width:3.0;" d="M 610.079, 170.422 L 607.62, 176.914 L 559.532, 174.352 L 577.681, 156.144 z "/>
<path style="fill:rgb(255, 70, 9);fill-opacity:1.0;fill-rule:evenodd;stroke:rgb(0, 0, 0);stroke-width:3.0;" d="M 614.598, 158.494 L 610.079, 170.422 L 577.681, 156.144 L 598.549, 135.206 z "/>
<path style="fill:rgb(255, 70, 9);fill-opacity:1.0;fill-rule:evenodd;stroke:rgb(0, 0, 0);stroke-width:3.0;" d="M 606.391, 531.233 L 607.923, 543.29 L 461.732, 541.23 L 472.562, 506.174 L 584.13, 473.539 z "/>
<path style="fill:rgb(255, 70, 9);fill-opacity:1.0;fill-rule:evenodd;stroke:rgb(0, 0, 0);stroke-width:3.0;" d="M 784.177, 87.9055 L 777.369, 95.4301 L 775.87, 95.2857 L 763.776, 86.0696 L 778.719, 76.9834 z "/>
<path style="fill:rgb(255, 70, 9);fill-opacity:1.0;fill-rule:evenodd;stroke:rgb(0, 0, 0);stroke-width:3.0;" d="M 414.847, 332.118 L 407.613, 331.239 L 406.647, 327.744 L 422.025, 312.316 z "/>
<path style="fill:rgb(255, 5, 56);fill-opacity:1.0;fill-rule:evenodd;stroke:rgb(0, 0, 0);stroke-width:3.0;" d="M 591.93, 218.33 L 569.491, 219.947 L 567.502, 211.585 L 604.234, 185.852 z "/>
<path style="fill:rgb(255, 150, 9);fill-opacity:1.0;fill-rule:evenodd;stroke:rgb(0, 0, 0);stroke-width:3.0;" d="M 632.039, 101.605 L 547.516, 186.408 L 533.623, 169.415 L 517.613, 69.3753 z "/>
<path style="fill:rgb(255, 252, 14);fill-opacity:1.0;fill-rule:evenodd;stroke:rgb(0, 0, 0);stroke-width:3.0;" d="M 588.772, 50.4246 L 564.27, 44.4337 L 567.223, 37.8314 L 567.935, 36.7211 L 576.552, 34.948 z "/>
<path style="fill:rgb(255, 252, 14);fill-opacity:1.0;fill-rule:evenodd;stroke:rgb(0, 0, 0);stroke-width:3.0;" d="M 688.639, 276.789 L 577.198, 301.391 L 576.782, 298.12 L 693.143, 270.385 z "/>
<path style="fill:rgb(255, 252, 14);fill-opacity:1.0;fill-rule:evenodd;stroke:rgb(0, 0, 0);stroke-width:3.0;" d="M 319.845, 421.491 L 319.138, 426.832 L 305.612, 438.203 L 300.519, 434.225 L 314.034, 420.665 z "/>
<path style="fill:rgb(255, 252, 14);fill-opacity:1.0;fill-rule:evenodd;stroke:rgb(0, 0, 0);stroke-width:3.0;" d="M 654.164, 79.4065 L 632.039, 101.605 L 517.613, 69.3753 L 513.147, 41.471 z "/>
<path style="fill:rgb(11, 255, 126);fill-opacity:1.0;fill-rule:evenodd;stroke:rgb(0, 0, 0);stroke-width:3.0;" d="M 575.86, 246.727 L 512.797, 292.758 L 489.929, 299.435 L 569.706, 220.853 z "/>
<path style="fill:rgb(215, 209, 246);fill-opacity:1.0;fill-rule:evenodd;stroke:rgb(0, 0, 0);stroke-width:3.0;" d="M 491.912, 237.497 L 482.102, 252.039 L 465.182, 269.015 L 458.492, 263.973 L 490.348, 235.602 z "/>
<path style="fill:rgb(215, 209, 246);fill-opacity:1.0;fill-rule:evenodd;stroke:rgb(0, 0, 0);stroke-width:3.0;" d="M 474.222, 237.716 L 473.908, 250.244 L 452.099, 269.667 L 448.661, 265.331 L 453.042, 256.869 L 471.817, 237.559 z "/>
<path style="fill:rgb(215, 209, 246);fill-opacity:1.0;fill-rule:evenodd;stroke:rgb(0, 0, 0);stroke-width:3.0;" d="M 544.95, 14.729 L 561.276, 22.6587 L 549.387, 32.7293 L 532.146, 10.8678 z "/>
<path style="fill:rgb(215, 209, 246);fill-opacity:1.0;fill-rule:evenodd;stroke:rgb(0, 0, 0);stroke-width:3.0;" d="M 569.706, 220.853 L 489.929, 299.435 L 471.764, 304.738 L 469.085, 280.532 L 567.502, 211.585 z "/>
<path style="fill:rgb(255, 27, 57);fill-opacity:1.0;fill-rule:evenodd;stroke:rgb(0, 0, 0);stroke-width:3.0;" d="M 643.32, 200.555 L 573.435, 273.21 L 573.022, 273.26 L 564.526, 260.405 L 569.931, 251.055 L 641.726, 198.65 z "/>
<path style="fill:rgb(231, 18, 13);fill-opacity:1.0;fill-rule:evenodd;stroke:rgb(0, 0, 0);stroke-width:3.0;" d="M 504.141, 191.839 L 513.705, 220.332 L 506.153, 227.909 L 476.236, 218.503 L 474.192, 216.027 L 492.951, 179.801 L 497.353, 178.5 z "/>
<path style="fill:rgb(255, 8, 8);fill-opacity:1.0;fill-rule:evenodd;stroke:rgb(0, 0, 0);stroke-width:3.0;" d="M 593.157, 193.612 L 558.72, 217.738 L 552.512, 214.799 L 593.427, 190.222 z "/>
<path style="fill:rgb(255, 8, 8);fill-opacity:1.0;fill-rule:evenodd;stroke:rgb(0, 0, 0);stroke-width:3.0;" d="M 243.383, 546.362 L 214.172, 544.095 L 213.501, 541.992 L 236.65, 539.501 z "/>
<path style="fill:rgb(255, 8, 8);fill-opacity:1.0;fill-rule:evenodd;stroke:rgb(0, 0, 0);stroke-width:3.0;" d="M 69.8908, 63.1685 L 86.9534, 91.1733 L 67.3109, 104.418 L 7.28089, 14.9797 z "/>
<path style="fill:rgb(255, 8, 8);fill-opacity:1.0;fill-rule:evenodd;stroke:rgb(0, 0, 0);stroke-width:3.0;" d="M 733.073, 32.459 L 732.835, 37.4402 L 720.698, 39.0029 L 713.825, 33.2847 L 715.13, 22.5154 z "/>
<path style="fill:rgb(255, 8, 8);fill-opacity:1.0;fill-rule:evenodd;stroke:rgb(0, 0, 0);stroke-width:3.0;" d="M 713.044, 430.826 L 784.403, 545.777 L 608.99, 543.305 L 654.388, 426.255 z "/>
<path style="fill:rgb(255, 8, 8);fill-opacity:1.0;fill-rule:evenodd;stroke:rgb(0, 0, 0);stroke-width:3.0;" d="M 703.129, 196.975 L 685.57, 210.782 L 698.958, 186.618 L 698.998, 186.583 z "/>
<path style="fill:rgb(255, 8, 8);fill-opacity:1.0;fill-rule:evenodd;stroke:rgb(0, 0, 0);stroke-width:3.0;" d="M 532.146, 10.8678 L 545.091, 27.2818 L 543.975, 31.0482 L 524.4, 14.024 L 524.7, 13.199 L 528.832, 9.86829 z "/>
<path style="fill:rgb(255, 25, 199);fill-opacity:1.0;fill-rule:evenodd;stroke:rgb(0, 0, 0);stroke-width:3.0;" d="M 652.107, 177.671 L 652.41, 178.459 L 646.051, 189.519 L 630.355, 172.133 z "/>
<path style="fill:rgb(202, 255, 6);fill-opacity:1.0;fill-rule:evenodd;stroke:rgb(0, 0, 0);stroke-width:3.0;" d="M 589.62, 399.196 L 590.98, 409.903 L 563.262, 348.954 L 568.445, 347.538 z "/>
<path style="fill:rgb(237, 209, 32);fill-opacity:1.0;fill-rule:evenodd;stroke:rgb(0, 0, 0);stroke-width:3.0;" d="M 730.672, 106.199 L 676.518, 139.129 L 672.426, 120.505 L 715.969, 100.866 z "/>
<path style="fill:rgb(237, 209, 32);fill-opacity:1.0;fill-rule:evenodd;stroke:rgb(0, 0, 0);stroke-width:3.0;" d="M 756.017, 68.3839 L 723.635, 50.9964 L 726.005, 43.4177 z "/>
<path style="fill:rgb(237, 209, 32);fill-opacity:1.0;fill-rule:evenodd;stroke:rgb(0, 0, 0);stroke-width:3.0;" d="M 590.382, 28.4302 L 589.677, 32.2473 L 583.595, 33.4987 L 544.95, 14.729 z "/>
<path style="fill:rgb(105, 255, 255);fill-opacity:1.0;fill-rule:evenodd;stroke:rgb(0, 0, 0);stroke-width:3.0;" d="M 543.855, 31.453 L 543.468, 32.7607 L 510.245, 24.8516 L 516.065, 20.1601 z "/>
<path style="fill:rgb(79, 49, 150);fill-opacity:1.0;fill-rule:evenodd;stroke:rgb(0, 0, 0);stroke-width:3.0;" d="M 208.75, 537.665 L 177.867, 537.23 L 245.232, 488.059 z "/>
<path style="fill:rgb(79, 49, 150);fill-opacity:1.0;fill-rule:evenodd;stroke:rgb(0, 0, 0);stroke-width:3.0;" d="M 543.975, 31.0482 L 543.855, 31.453 L 516.065, 20.1601 L 524.052, 13.7215 z "/>
<path style="fill:rgb(255, 66, 7);fill-opacity:1.0;fill-rule:evenodd;stroke:rgb(0, 0, 0);stroke-width:3.0;" d="M 763.444, 195.01 L 755.728, 201.779 L 742.231, 191.049 L 742.333, 187.764 z "/>
<path style="fill:rgb(255, 66, 7);fill-opacity:1.0;fill-rule:evenodd;stroke:rgb(0, 0, 0);stroke-width:3.0;" d="M 754.02, 157.288 L 743.326, 155.778 L 744.319, 123.765 L 751.226, 118.723 z "/>
<path style="fill:rgb(255, 66, 7);fill-opacity:1.0;fill-rule:evenodd;stroke:rgb(0, 0, 0);stroke-width:3.0;" d="M 678.489, 55.0012 L 657.025, 76.5359 L 606.452, 42.8621 L 613.477, 35.3952 z "/>
<path style="fill:rgb(161, 8, 9);fill-opacity:1.0;fill-rule:evenodd;stroke:rgb(0, 0, 0);stroke-width:3.0;" d="M 613.477, 35.3952 L 606.452, 42.8621 L 590.313, 32.1164 L 597.62, 30.613 z "/>
<path style="fill:rgb(220, 255, 23);fill-opacity:1.0;fill-rule:evenodd;stroke:rgb(0, 0, 0);stroke-width:3.0;" d="M 439.405, 283.206 L 426.823, 307.501 L 385.464, 348.999 L 413.525, 272.019 z "/>
<path style="fill:rgb(138, 255, 255);fill-opacity:1.0;fill-rule:evenodd;stroke:rgb(0, 0, 0);stroke-width:3.0;" d="M 234.942, 354.171 L 152.832, 375.061 L 137.117, 370.992 L 158.824, 299.736 L 181.859, 275.083 z "/>
<path style="fill:rgb(138, 255, 255);fill-opacity:1.0;fill-rule:evenodd;stroke:rgb(0, 0, 0);stroke-width:3.0;" d="M 744.027, 80.3401 L 755.166, 82.8672 L 751.764, 93.374 L 740.951, 99.9492 L 738.127, 95.732 L 732.216, 83.6443 L 739.152, 79.7846 z "/>
<path style="fill:rgb(138, 255, 255);fill-opacity:1.0;fill-rule:evenodd;stroke:rgb(0, 0, 0);stroke-width:3.0;" d="M 457.833, 276.388 L 426.823, 307.501 L 441.551, 279.06 L 454.517, 267.513 z "/>
<path style="fill:rgb(255, 161, 9);fill-opacity:1.0;fill-rule:evenodd;stroke:rgb(0, 0, 0);stroke-width:3.0;" d="M 583.202, 241.368 L 578.962, 244.462 L 577.7, 219.355 L 591.93, 218.33 z "/>
<path style="fill:rgb(255, 161, 9);fill-opacity:1.0;fill-rule:evenodd;stroke:rgb(0, 0, 0);stroke-width:3.0;" d="M 717.319, 224.787 L 716.458, 230.589 L 696.08, 239.005 L 711.594, 218.883 L 712.635, 218.331 z "/>
<path style="fill:rgb(215, 255, 37);fill-opacity:1.0;fill-rule:evenodd;stroke:rgb(0, 0, 0);stroke-width:3.0;" d="M 768.318, 31.9319 L 752.595, 29.9656 L 751.223, 24.1303 L 758.024, 12.6356 L 764.845, 12.4526 z "/>
<path style="fill:rgb(215, 255, 37);fill-opacity:1.0;fill-rule:evenodd;stroke:rgb(0, 0, 0);stroke-width:3.0;" d="M 543.022, 38.4362 L 540.28, 42.4113 L 529.288, 44.673 L 515.874, 38.4354 L 523.599, 29.0052 z "/>
<path style="fill:rgb(255, 110, 15);fill-opacity:1.0;fill-rule:evenodd;stroke:rgb(0, 0, 0);stroke-width:3.0;" d="M 166.887, 503.891 L 153.748, 474.458 L 217.398, 439.103 z "/>
<path style="fill:rgb(255, 255, 7);fill-opacity:1.0;fill-rule:evenodd;stroke:rgb(0, 0, 0);stroke-width:3.0;" d="M 363.298, 399.304 L 361.547, 403.159 L 354.619, 408.216 L 350.76, 398.868 L 349.331, 393.208 L 351.32, 388.197 z "/>
<path style="fill:rgb(255, 21, 70);fill-opacity:1.0;fill-rule:evenodd;stroke:rgb(0, 0, 0);stroke-width:3.0;" d="M 778.152, 219.607 L 774.049, 221.401 L 752.01, 211.786 L 745.798, 193.884 z "/>
<path style="fill:rgb(255, 21, 70);fill-opacity:1.0;fill-rule:evenodd;stroke:rgb(0, 0, 0);stroke-width:3.0;" d="M 222.606, 313.818 L 225.779, 322.195 L 217.609, 328.346 L 201.475, 304.308 L 207.936, 289.741 z "/>
<path style="fill:rgb(255, 21, 70);fill-opacity:1.0;fill-rule:evenodd;stroke:rgb(0, 0, 0);stroke-width:3.0;" d="M 137.117, 370.992 L 100.985, 361.638 L 158.824, 299.736 z "/>
<path style="fill:rgb(220, 61, 255);fill-opacity:1.0;fill-rule:evenodd;stroke:rgb(0, 0, 0);stroke-width:3.0;" d="M 590.98, 409.903 L 594.489, 437.523 L 590.816, 429.728 L 580.47, 394.573 L 583.092, 392.556 z "/>
<path style="fill:rgb(220, 61, 255);fill-opacity:1.0;fill-rule:evenodd;stroke:rgb(0, 0, 0);stroke-width:3.0;" d="M 297.694, 437.059 L 293.44, 441.327 L 251.588, 378.972 L 258.758, 373.155 z "/>
<path style="fill:rgb(255, 37, 7);fill-opacity:1.0;fill-rule:evenodd;stroke:rgb(0, 0, 0);stroke-width:3.0;" d="M 753.344, 117.177 L 740.331, 126.675 L 733.425, 128.232 L 734.803, 108.47 L 745.351, 104.628 z "/>
<path style="fill:rgb(255, 37, 7);fill-opacity:1.0;fill-rule:evenodd;stroke:rgb(0, 0, 0);stroke-width:3.0;" d="M 250.415, 359.462 L 258.758, 373.155 L 251.588, 378.972 L 217.609, 328.346 L 221.052, 325.754 z "/>
<path style="fill:rgb(255, 3, 88);fill-opacity:1.0;fill-rule:evenodd;stroke:rgb(0, 0, 0);stroke-width:3.0;" d="M 497.34, 125.033 L 482.258, 176.161 L 469.736, 195.578 L 480.971, 105.012 z "/>
<path style="fill:rgb(255, 3, 88);fill-opacity:1.0;fill-rule:evenodd;stroke:rgb(0, 0, 0);stroke-width:3.0;" d="M 537.015, 315.518 L 579.056, 404.764 L 556.438, 401.77 L 522.311, 313.323 z "/>
<path style="fill:rgb(255, 255, 24);fill-opacity:1.0;fill-rule:evenodd;stroke:rgb(0, 0, 0);stroke-width:3.0;" d="M 747.85, 40.6474 L 740.19, 36.4029 L 737.846, 30.8382 L 740.811, 22.2286 L 749.12, 17.3596 z "/>
<path style="fill:rgb(194, 11, 79);fill-opacity:1.0;fill-rule:evenodd;stroke:rgb(0, 0, 0);stroke-width:3.0;" d="M 698.998, 186.583 L 670.401, 211.471 L 680.208, 177.818 L 693.996, 173.998 z "/>
<path style="fill:rgb(194, 11, 79);fill-opacity:1.0;fill-rule:evenodd;stroke:rgb(0, 0, 0);stroke-width:3.0;" d="M 669.836, 143.192 L 647.646, 156.686 L 642.456, 151.574 L 643.507, 143.182 z "/>
<path style="fill:rgb(252, 24, 194);fill-opacity:1.0;fill-rule:evenodd;stroke:rgb(0, 0, 0);stroke-width:3.0;" d="M 632.108, 258.036 L 625.509, 264.483 L 600.284, 277.845 L 640.917, 245.894 z "/>
<path style="fill:rgb(255, 252, 67);fill-opacity:1.0;fill-rule:evenodd;stroke:rgb(0, 0, 0);stroke-width:3.0;" d="M 715.969, 100.866 L 672.426, 120.505 L 666.006, 91.2828 L 670.677, 84.437 z "/>
<path style="fill:rgb(255, 0, 11);fill-opacity:1.0;fill-rule:evenodd;stroke:rgb(0, 0, 0);stroke-width:3.0;" d="M 750.437, 245.946 L 744.424, 250.017 L 697.618, 257.371 L 704.623, 245.975 L 738.406, 226.525 z "/>
<path style="fill:rgb(255, 0, 11);fill-opacity:1.0;fill-rule:evenodd;stroke:rgb(0, 0, 0);stroke-width:3.0;" d="M 688.261, 164.682 L 673.064, 175.775 L 661.167, 157.51 L 680.778, 136.539 L 683.794, 134.705 z "/>
<path style="fill:rgb(255, 0, 11);fill-opacity:1.0;fill-rule:evenodd;stroke:rgb(0, 0, 0);stroke-width:3.0;" d="M 785.968, 161.799 L 789.062, 172.536 L 763.444, 195.01 L 742.333, 187.764 L 743.326, 155.778 z "/>
<path style="fill:rgb(255, 44, 23);fill-opacity:1.0;fill-rule:evenodd;stroke:rgb(0, 0, 0);stroke-width:3.0;" d="M 534.914, 297.565 L 535.245, 298.439 L 534.943, 302.141 L 519.29, 304.879 L 513.718, 301.31 L 514.951, 298.021 L 526.835, 296.463 z "/>
<path style="fill:rgb(255, 44, 23);fill-opacity:1.0;fill-rule:evenodd;stroke:rgb(0, 0, 0);stroke-width:3.0;" d="M 715.216, 270.921 L 688.639, 276.789 L 693.143, 270.385 L 733.934, 260.663 z "/>
<path style="fill:rgb(255, 44, 23);fill-opacity:1.0;fill-rule:evenodd;stroke:rgb(0, 0, 0);stroke-width:3.0;" d="M 733.444, 127.968 L 726.241, 124.49 L 725.833, 123.641 L 729.293, 110.477 L 734.803, 108.47 z "/>
<path style="fill:rgb(255, 44, 23);fill-opacity:1.0;fill-rule:evenodd;stroke:rgb(0, 0, 0);stroke-width:3.0;" d="M 763.874, 49.5276 L 779.15, 76.7211 L 771.576, 81.327 L 744.017, 58.4011 L 760.341, 47.5694 z "/>
<path style="fill:rgb(32, 220, 240);fill-opacity:1.0;fill-rule:evenodd;stroke:rgb(0, 0, 0);stroke-width:3.0;" d="M 666.529, 224.758 L 666.152, 226.051 L 665.245, 226.764 L 641.726, 198.65 L 649.146, 193.233 z "/>
<path style="fill:rgb(32, 220, 240);fill-opacity:1.0;fill-rule:evenodd;stroke:rgb(0, 0, 0);stroke-width:3.0;" d="M 760.341, 47.5694 L 744.017, 58.4011 L 734.034, 50.0968 L 743.33, 38.1427 z "/>
<path style="fill:rgb(240, 28, 51);fill-opacity:1.0;fill-rule:evenodd;stroke:rgb(0, 0, 0);stroke-width:3.0;" d="M 565.901, 341.333 L 558.279, 337.998 L 552.641, 325.601 L 555.386, 315.682 z "/>
<path style="fill:rgb(231, 0, 32);fill-opacity:1.0;fill-rule:evenodd;stroke:rgb(0, 0, 0);stroke-width:3.0;" d="M 725.858, 262.588 L 686.491, 271.971 L 684.88, 265.554 L 686.803, 259.07 L 744.424, 250.017 z "/>
<path style="fill:rgb(231, 0, 32);fill-opacity:1.0;fill-rule:evenodd;stroke:rgb(0, 0, 0);stroke-width:3.0;" d="M 122.659, 174.903 L 124.107, 189.038 L 116.324, 177.443 L 112.937, 164.653 L 112.925, 162.493 z "/>
<path style="fill:rgb(231, 0, 32);fill-opacity:1.0;fill-rule:evenodd;stroke:rgb(0, 0, 0);stroke-width:3.0;" d="M 724.917, 76.0041 L 740.951, 99.9492 L 730.672, 106.199 L 708.844, 98.2814 L 716.416, 74.0753 z "/>
<path style="fill:rgb(114, 255, 249);fill-opacity:1.0;fill-rule:evenodd;stroke:rgb(0, 0, 0);stroke-width:3.0;" d="M 470.056, 323.956 L 466.08, 326.858 L 437.207, 297.083 L 465.157, 269.04 z "/>
<path style="fill:rgb(114, 255, 249);fill-opacity:1.0;fill-rule:evenodd;stroke:rgb(0, 0, 0);stroke-width:3.0;" d="M 218.191, 544.407 L 143.695, 585.915 L 154.014, 554.974 L 198.651, 542.889 z "/>
<path style="fill:rgb(114, 255, 249);fill-opacity:1.0;fill-rule:evenodd;stroke:rgb(0, 0, 0);stroke-width:3.0;" d="M 506.153, 227.909 L 494.034, 240.068 L 490.414, 235.682 L 496.639, 224.918 z "/>
<path style="fill:rgb(237, 31, 177);fill-opacity:1.0;fill-rule:evenodd;stroke:rgb(0, 0, 0);stroke-width:3.0;" d="M 665.245, 226.764 L 663.239, 228.341 L 623.868, 247.978 L 618.308, 226.558 L 643.32, 200.555 z "/>
<path style="fill:rgb(237, 31, 177);fill-opacity:1.0;fill-rule:evenodd;stroke:rgb(0, 0, 0);stroke-width:3.0;" d="M 551.148, 214.153 L 541.752, 229.625 L 541.361, 229.898 L 537.659, 223.95 L 534.159, 206.109 z "/>
<path style="fill:rgb(243, 255, 18);fill-opacity:1.0;fill-rule:evenodd;stroke:rgb(0, 0, 0);stroke-width:3.0;" d="M 682.555, 226.976 L 686.432, 231.483 L 676.419, 232.889 L 668.907, 229.205 L 674.173, 221.809 z "/>
<path style="fill:rgb(243, 255, 18);fill-opacity:1.0;fill-rule:evenodd;stroke:rgb(0, 0, 0);stroke-width:3.0;" d="M 276.842, 439.357 L 268.021, 425.678 L 267.638, 423.594 L 273.262, 412.45 z "/>
<path style="fill:rgb(243, 152, 57);fill-opacity:1.0;fill-rule:evenodd;stroke:rgb(0, 0, 0);stroke-width:3.0;" d="M 774.049, 221.401 L 763.908, 225.836 L 756.706, 225.317 L 752.01, 211.786 z "/>
<path style="fill:rgb(243, 152, 57);fill-opacity:1.0;fill-rule:evenodd;stroke:rgb(0, 0, 0);stroke-width:3.0;" d="M 640.647, 132.217 L 641.052, 132.998 L 642.107, 143.182 L 623.687, 143.175 L 621.453, 131.812 z "/>
<path style="fill:rgb(179, 62, 85);fill-opacity:1.0;fill-rule:evenodd;stroke:rgb(0, 0, 0);stroke-width:3.0;" d="M 639.601, 130.2 L 640.647, 132.217 L 621.453, 131.812 L 618.784, 118.232 z "/>
<path style="fill:rgb(226, 150, 144);fill-opacity:1.0;fill-rule:evenodd;stroke:rgb(0, 0, 0);stroke-width:3.0;" d="M 520.749, 29.2255 L 507.929, 40.0672 L 498.959, 37.6541 L 502.429, 28.1364 z "/>
<path style="fill:rgb(38, 44, 255);fill-opacity:1.0;fill-rule:evenodd;stroke:rgb(0, 0, 0);stroke-width:3.0;" d="M 458.19, 318.721 L 455.897, 329.998 L 445.106, 335.798 L 437.467, 334.869 L 444.961, 313.959 L 450.82, 311.121 z "/>
<path style="fill:rgb(38, 44, 255);fill-opacity:1.0;fill-rule:evenodd;stroke:rgb(0, 0, 0);stroke-width:3.0;" d="M 573.979, 372.519 L 590.816, 429.728 L 557.156, 358.274 L 563.68, 349.873 z "/>
<path style="fill:rgb(184, 15, 83);fill-opacity:1.0;fill-rule:evenodd;stroke:rgb(0, 0, 0);stroke-width:3.0;" d="M 347.495, 539.62 L 208.75, 537.665 L 245.232, 488.059 L 286.014, 458.292 z "/>
<path style="fill:rgb(228, 89, 154);fill-opacity:1.0;fill-rule:evenodd;stroke:rgb(0, 0, 0);stroke-width:3.0;" d="M 541.361, 229.898 L 469.085, 280.532 L 467.548, 266.642 L 487.912, 246.21 L 539.95, 227.631 z "/>
<path style="fill:rgb(228, 89, 154);fill-opacity:1.0;fill-rule:evenodd;stroke:rgb(0, 0, 0);stroke-width:3.0;" d="M 278.581, 538.649 L 276.411, 540.144 L 257.792, 547.481 L 245.037, 546.491 L 251.973, 538.274 z "/>
<path style="fill:rgb(199, 209, 255);fill-opacity:1.0;fill-rule:evenodd;stroke:rgb(0, 0, 0);stroke-width:3.0;" d="M 445.265, 271.889 L 426.744, 277.733 L 413.525, 272.019 L 416.409, 264.108 L 452.136, 258.62 z "/>
<path style="fill:rgb(223, 52, 119);fill-opacity:1.0;fill-rule:evenodd;stroke:rgb(0, 0, 0);stroke-width:3.0;" d="M 432.184, 261.685 L 416.409, 264.108 L 424.367, 242.279 z "/>
<path style="fill:rgb(255, 11, 85);fill-opacity:1.0;fill-rule:evenodd;stroke:rgb(0, 0, 0);stroke-width:3.0;" d="M 623.868, 247.978 L 615.544, 252.13 L 613.939, 231.101 L 618.308, 226.558 z "/>
<path style="fill:rgb(255, 11, 85);fill-opacity:1.0;fill-rule:evenodd;stroke:rgb(0, 0, 0);stroke-width:3.0;" d="M 191.223, 262.309 L 207.936, 289.741 L 201.475, 304.308 L 124.107, 189.038 L 122.659, 174.903 z "/>
<path style="fill:rgb(255, 11, 85);fill-opacity:1.0;fill-rule:evenodd;stroke:rgb(0, 0, 0);stroke-width:3.0;" d="M 615.371, 265.981 L 612.176, 268.493 L 573.435, 273.21 L 604.389, 241.028 z "/>
<path style="fill:rgb(10, 103, 255);fill-opacity:1.0;fill-rule:evenodd;stroke:rgb(0, 0, 0);stroke-width:3.0;" d="M 709.356, 96.6446 L 708.844, 98.2814 L 670.677, 84.437 L 675.295, 77.6696 z "/>
<path style="fill:rgb(249, 202, 9);fill-opacity:1.0;fill-rule:evenodd;stroke:rgb(0, 0, 0);stroke-width:3.0;" d="M 726.005, 43.4177 L 709.356, 96.6446 L 675.295, 77.6696 L 708.566, 28.9098 z "/>
<path style="fill:rgb(255, 228, 67);fill-opacity:1.0;fill-rule:evenodd;stroke:rgb(0, 0, 0);stroke-width:3.0;" d="M 734.381, 195.153 L 725.528, 205.738 L 722.46, 200.786 L 728.075, 185.687 L 730.551, 184.558 z "/>
<path style="fill:rgb(255, 2, 138);fill-opacity:1.0;fill-rule:evenodd;stroke:rgb(0, 0, 0);stroke-width:3.0;" d="M 599.623, 221.304 L 591.776, 218.736 L 603.219, 188.531 z "/>
<path style="fill:rgb(255, 2, 138);fill-opacity:1.0;fill-rule:evenodd;stroke:rgb(0, 0, 0);stroke-width:3.0;" d="M 636.522, 190.305 L 632.05, 194.81 L 609.449, 187.587 L 627.269, 176.879 z "/>
<path style="fill:rgb(55, 157, 249);fill-opacity:1.0;fill-rule:evenodd;stroke:rgb(0, 0, 0);stroke-width:3.0;" d="M 269.18, 405.182 L 216.619, 391.574 L 241.801, 364.39 z "/>
<path style="fill:rgb(55, 157, 249);fill-opacity:1.0;fill-rule:evenodd;stroke:rgb(0, 0, 0);stroke-width:3.0;" d="M 93.2752, 369.89 L 75.1435, 333.615 L 130.693, 329.843 z "/>
<path style="fill:rgb(228, 255, 30);fill-opacity:1.0;fill-rule:evenodd;stroke:rgb(0, 0, 0);stroke-width:3.0;" d="M 584.13, 473.539 L 472.562, 506.174 L 527.77, 327.473 z "/>
<path style="fill:rgb(15, 6, 140);fill-opacity:1.0;fill-rule:evenodd;stroke:rgb(0, 0, 0);stroke-width:3.0;" d="M 768.17, 226.143 L 767.731, 234.398 L 751.826, 248.187 L 741.001, 230.713 L 741.203, 224.201 z "/>
<path style="fill:rgb(23, 98, 255);fill-opacity:1.0;fill-rule:evenodd;stroke:rgb(0, 0, 0);stroke-width:3.0;" d="M 756.017, 68.3839 L 771.576, 81.327 L 765.272, 85.1602 L 716.416, 74.0753 L 723.635, 50.9964 z "/>
<path style="fill:rgb(234, 255, 47);fill-opacity:1.0;fill-rule:evenodd;stroke:rgb(0, 0, 0);stroke-width:3.0;" d="M 604.25, 222.818 L 592.769, 234.384 L 583.202, 241.368 L 591.776, 218.736 z "/>
<path style="fill:rgb(255, 1, 54);fill-opacity:1.0;fill-rule:evenodd;stroke:rgb(0, 0, 0);stroke-width:3.0;" d="M 470.432, 115.91 L 421.746, 249.467 L 131.704, 32.5544 z "/>
<path style="fill:rgb(255, 1, 54);fill-opacity:1.0;fill-rule:evenodd;stroke:rgb(0, 0, 0);stroke-width:3.0;" d="M 527.77, 327.473 L 461.732, 541.23 L 348.787, 539.639 L 347.4, 539.494 L 286.014, 458.292 L 443.582, 343.279 L 521.46, 311.118 z "/>
<path style="fill:rgb(255, 1, 98);fill-opacity:1.0;fill-rule:evenodd;stroke:rgb(0, 0, 0);stroke-width:3.0;" d="M 28.2667, 46.2464 L 24.4425, 51.1962 L 6.8046, 37.6268 L 21.8944, 36.7522 z "/>
<path style="fill:rgb(243, 65, 58);fill-opacity:1.0;fill-rule:evenodd;stroke:rgb(0, 0, 0);stroke-width:3.0;" d="M 633.932, 143.179 L 637.875, 147.063 L 642.026, 160.103 L 623.48, 171.381 L 604.036, 143.167 z "/>
<path style="fill:rgb(255, 29, 255);fill-opacity:1.0;fill-rule:evenodd;stroke:rgb(0, 0, 0);stroke-width:3.0;" d="M 745.798, 193.884 L 751.022, 208.939 L 750.145, 212.825 L 745.685, 224.499 L 741.329, 220.141 L 742.231, 191.049 z "/>
<path style="fill:rgb(252, 24, 194);fill-opacity:1.0;fill-rule:evenodd;stroke:rgb(0, 0, 0);stroke-width:3.0;" d="M 455.908, 251.336 L 452.136, 258.62 L 432.184, 261.685 L 424.367, 242.279 L 424.539, 241.805 L 445.649, 241.457 z "/>
<path style="fill:rgb(255, 252, 64);fill-opacity:1.0;fill-rule:evenodd;stroke:rgb(0, 0, 0);stroke-width:3.0;" d="M 480.971, 105.012 L 469.736, 195.578 L 442.347, 238.052 L 432.236, 220.69 L 476.43, 99.4568 z "/>
<path style="fill:rgb(252, 29, 228);fill-opacity:1.0;fill-rule:evenodd;stroke:rgb(0, 0, 0);stroke-width:3.0;" d="M 682.709, 272.872 L 640.387, 282.96 L 680.032, 260.134 L 686.803, 259.07 z "/>
<path style="fill:rgb(6, 102, 255);fill-opacity:1.0;fill-rule:evenodd;stroke:rgb(0, 0, 0);stroke-width:3.0;" d="M 307.876, 439.972 L 298.27, 449.345 L 298.101, 449.469 L 284.238, 453.801 L 292.118, 442.654 L 294.142, 440.623 L 301.698, 435.146 z "/>
<path style="fill:rgb(163, 192, 255);fill-opacity:1.0;fill-rule:evenodd;stroke:rgb(0, 0, 0);stroke-width:3.0;" d="M 437.467, 334.869 L 427.345, 333.638 L 434.338, 319.103 L 444.961, 313.959 z "/>
<path style="fill:rgb(182, 94, 217);fill-opacity:1.0;fill-rule:evenodd;stroke:rgb(0, 0, 0);stroke-width:3.0;" d="M 427.345, 333.638 L 414.847, 332.118 L 416.419, 327.781 L 434.338, 319.103 z "/>
<path style="fill:rgb(60, 231, 255);fill-opacity:1.0;fill-rule:evenodd;stroke:rgb(0, 0, 0);stroke-width:3.0;" d="M 476.946, 229.265 L 481.718, 238.207 L 467.296, 237.263 L 464.109, 235.498 L 468.489, 227.041 z "/>
<path style="fill:rgb(255, 184, 33);fill-opacity:1.0;fill-rule:evenodd;stroke:rgb(0, 0, 0);stroke-width:3.0;" d="M 137.279, 578.105 L 144.08, 584.76 L 141.88, 591.356 L 126.007, 591.318 L 121.658, 578.259 L 124.565, 576.137 z "/>
<path style="fill:rgb(255, 1, 38);fill-opacity:1.0;fill-rule:evenodd;stroke:rgb(0, 0, 0);stroke-width:3.0;" d="M 269.18, 405.182 L 269.884, 406.231 L 115.099, 413.551 L 93.2752, 369.89 L 100.985, 361.638 z "/>
<path style="fill:rgb(255, 1, 38);fill-opacity:1.0;fill-rule:evenodd;stroke:rgb(0, 0, 0);stroke-width:3.0;" d="M 615.39, 159.642 L 621.523, 180.332 L 613.197, 185.335 L 608.091, 175.669 L 614.598, 158.494 z "/>
<path style="fill:rgb(209, 70, 255);fill-opacity:1.0;fill-rule:evenodd;stroke:rgb(0, 0, 0);stroke-width:3.0;" d="M 539.95, 227.631 L 505.189, 240.042 L 499.793, 234.29 L 527.064, 206.928 z "/>
<path style="fill:rgb(28, 154, 237);fill-opacity:1.0;fill-rule:evenodd;stroke:rgb(0, 0, 0);stroke-width:3.0;" d="M 666.529, 224.758 L 649.146, 193.233 L 682.894, 168.6 z "/>
<path style="fill:rgb(255, 30, 255);fill-opacity:1.0;fill-rule:evenodd;stroke:rgb(0, 0, 0);stroke-width:3.0;" d="M 145.229, 186.82 L 191.223, 262.309 L 128.866, 182.816 z "/>
<path style="fill:rgb(255, 21, 187);fill-opacity:1.0;fill-rule:evenodd;stroke:rgb(0, 0, 0);stroke-width:3.0;" d="M 145.229, 186.82 L 128.866, 182.816 L 112.08, 161.415 L 98.4931, 110.113 z "/>
<path style="fill:rgb(19, 7, 255);fill-opacity:1.0;fill-rule:evenodd;stroke:rgb(0, 0, 0);stroke-width:3.0;" d="M 583.595, 33.4987 L 563.734, 37.5853 L 550.786, 34.5028 L 549.387, 32.7293 L 561.276, 22.6587 z "/>
<path style="fill:rgb(255, 21, 78);fill-opacity:1.0;fill-rule:evenodd;stroke:rgb(0, 0, 0);stroke-width:3.0;" d="M 632.05, 194.81 L 604.25, 222.818 L 599.623, 221.304 L 603.219, 188.531 L 604.211, 185.913 z "/>
<path style="fill:rgb(255, 2, 9);fill-opacity:1.0;fill-rule:evenodd;stroke:rgb(0, 0, 0);stroke-width:3.0;" d="M 637.844, 201.483 L 621.506, 213.409 L 615.882, 211.626 L 616.238, 210.74 L 625.488, 201.421 z "/>
<path style="fill:rgb(231, 5, 159);fill-opacity:1.0;fill-rule:evenodd;stroke:rgb(0, 0, 0);stroke-width:3.0;" d="M 98.4931, 110.113 L 116.324, 177.443 L 67.3109, 104.418 L 86.9534, 91.1733 z "/>
<path style="fill:rgb(246, 126, 24);fill-opacity:1.0;fill-rule:evenodd;stroke:rgb(0, 0, 0);stroke-width:3.0;" d="M 386.227, 356.567 L 389.803, 365.484 L 378.163, 369.735 L 369.354, 365.162 L 381.215, 353.261 z "/>
<path style="fill:rgb(255, 0, 146);fill-opacity:1.0;fill-rule:evenodd;stroke:rgb(0, 0, 0);stroke-width:3.0;" d="M 790.757, 280.382 L 794.072, 291.249 L 782.906, 298.357 L 776.857, 288.593 L 786.001, 279.33 z "/>
<path style="fill:rgb(249, 0, 64);fill-opacity:1.0;fill-rule:evenodd;stroke:rgb(0, 0, 0);stroke-width:3.0;" d="M 607.62, 176.914 L 605.274, 183.106 L 564.905, 207.355 L 561.252, 201.368 L 602.904, 176.663 z "/>
<path style="fill:rgb(255, 252, 8);fill-opacity:1.0;fill-rule:evenodd;stroke:rgb(0, 0, 0);stroke-width:3.0;" d="M 602.904, 176.663 L 561.252, 201.368 L 550.375, 183.54 L 559.532, 174.352 z "/>
<path style="fill:rgb(19, 119, 243);fill-opacity:1.0;fill-rule:evenodd;stroke:rgb(0, 0, 0);stroke-width:3.0;" d="M 465.033, 233.714 L 461.156, 241.2 L 440.092, 241.548 L 449.673, 226.691 z "/>
<path style="fill:rgb(184, 35, 28);fill-opacity:1.0;fill-rule:evenodd;stroke:rgb(0, 0, 0);stroke-width:3.0;" d="M 465.61, 232.599 L 465.033, 233.714 L 449.673, 226.691 L 482.258, 176.161 z "/>
<path style="fill:rgb(94, 249, 249);fill-opacity:1.0;fill-rule:evenodd;stroke:rgb(0, 0, 0);stroke-width:3.0;" d="M 654.388, 426.255 L 608.99, 543.305 L 607.923, 543.29 L 592.444, 421.428 z "/>
<path style="fill:rgb(249, 102, 35);fill-opacity:1.0;fill-rule:evenodd;stroke:rgb(0, 0, 0);stroke-width:3.0;" d="M 498.084, 299.731 L 477.543, 316.636 L 471.78, 304.734 L 498.734, 296.864 z "/>
<path style="fill:rgb(249, 50, 7);fill-opacity:1.0;fill-rule:evenodd;stroke:rgb(0, 0, 0);stroke-width:3.0;" d="M 648.804, 169.071 L 633.967, 172.663 L 628.299, 169.328 L 627.933, 168.672 L 628.171, 168.528 L 646.102, 162.038 z "/>
<path style="fill:rgb(16, 165, 237);fill-opacity:1.0;fill-rule:evenodd;stroke:rgb(0, 0, 0);stroke-width:3.0;" d="M 131.704, 32.5544 L 421.746, 249.467 L 385.464, 348.999 L 297.694, 437.059 L 37.0458, 9.26043 z "/>
<path style="fill:rgb(255, 36, 91);fill-opacity:1.0;fill-rule:evenodd;stroke:rgb(0, 0, 0);stroke-width:3.0;" d="M 577.559, 304.232 L 581.451, 334.879 L 576.619, 339.189 L 570.831, 303.2 z "/>
<path style="fill:rgb(7, 142, 212);fill-opacity:1.0;fill-rule:evenodd;stroke:rgb(0, 0, 0);stroke-width:3.0;" d="M 241.801, 364.39 L 216.619, 391.574 L 152.832, 375.061 L 234.942, 354.171 z "/>
<path style="fill:rgb(199, 6, 69);fill-opacity:1.0;fill-rule:evenodd;stroke:rgb(0, 0, 0);stroke-width:3.0;" d="M 644.362, 243.185 L 625.628, 257.916 L 627.707, 246.063 L 638.126, 240.867 z "/>
<path style="fill:rgb(199, 6, 69);fill-opacity:1.0;fill-rule:evenodd;stroke:rgb(0, 0, 0);stroke-width:3.0;" d="M 688.435, 205.611 L 685.57, 210.782 L 668.414, 224.272 L 680.374, 202.792 L 691.37, 193.222 z "/>
<path style="fill:rgb(255, 48, 6);fill-opacity:1.0;fill-rule:evenodd;stroke:rgb(0, 0, 0);stroke-width:3.0;" d="M 443.039, 303.097 L 450.82, 311.121 L 437.758, 317.447 L 419.361, 319.665 L 422.025, 312.316 L 426.957, 307.368 L 438.132, 302.587 z "/>
<path style="fill:rgb(243, 148, 52);fill-opacity:1.0;fill-rule:evenodd;stroke:rgb(0, 0, 0);stroke-width:3.0;" d="M 560.531, 342.95 L 554.745, 345.139 L 548.643, 340.202 L 548.617, 340.148 L 552.641, 325.601 z "/>
<path style="fill:rgb(18, 100, 240);fill-opacity:1.0;fill-rule:evenodd;stroke:rgb(0, 0, 0);stroke-width:3.0;" d="M 469.6, 285.188 L 473.604, 321.365 L 470.056, 323.956 L 466.134, 279.994 z "/>
<path style="fill:rgb(255, 192, 6);fill-opacity:1.0;fill-rule:evenodd;stroke:rgb(0, 0, 0);stroke-width:3.0;" d="M 625.628, 257.916 L 616.532, 265.069 L 615.544, 252.13 L 627.707, 246.063 z "/>
<path style="fill:rgb(255, 45, 18);fill-opacity:1.0;fill-rule:evenodd;stroke:rgb(0, 0, 0);stroke-width:3.0;" d="M 784.933, 265.864 L 793.409, 280.494 L 765.345, 270.009 L 763.579, 267.159 L 774.826, 260.266 z "/>
<path style="fill:rgb(37, 255, 142);fill-opacity:1.0;fill-rule:evenodd;stroke:rgb(0, 0, 0);stroke-width:3.0;" d="M 555.879, 192.562 L 556.939, 207.673 L 540.316, 193.632 L 550.375, 183.54 z "/>
</svg>