<?xml version="1.0" encoding="iso-8859-1" standalone="no"?>
<!DOCTYPE svg PUBLIC "-//W3C//DTD SVG 1.0//EN" "http://www.w3.org/TR/2001/REC-SVG-20010904/DTD/svg10.dtd">
<svg xmlns="http://www.w3.org/2000/svg" width="800" height="600">
<path style="fill:rgb(0, 0, 0);fill-opacity:0.0;fill-rule:evenodd;stroke:rgb(0, 0, 0);stroke-width:0.0;" d="M 0, 600 L 800, 600 L 800, 0 L 0, 0 z "/>
<path style="fill:rgb(249, 25, 252);fill-opacity:1.0;fill-rule:evenodd;stroke:rgb(0, 0, 0);stroke-width:3.0;" d="M 603.769, 577.237 L 597.448, 589.534 L 592.515, 575.413 L 592.185, 572.695 L 592.205, 570.36 L 594.83, 561.657 z "/>
<path style="fill:rgb(249, 25, 252);fill-opacity:1.0;fill-rule:evenodd;stroke:rgb(0, 0, 0);stroke-width:3.0;" d="M 670.595, 165.931 L 621.536, 217.309 L 650.615, 144.983 z "/>
<path style="fill:rgb(249, 25, 252);fill-opacity:1.0;fill-rule:evenodd;stroke:rgb(0, 0, 0);stroke-width:3.0;" d="M 772.107, 44.692 L 686.302, 56.2193 L 692.131, 41.7224 z "/>
<path style="fill:rgb(255, 237, 8);fill-opacity:1.0;fill-rule:evenodd;stroke:rgb(0, 0, 0);stroke-width:3.0;" d="M 20.8565, 103.436 L 46.4775, 117.853 L 46.0498, 118.968 L 28.106, 120.724 L 11.8585, 108.6 L 11.7691, 102.95 z "/>
<path style="fill:rgb(255, 237, 8);fill-opacity:1.0;fill-rule:evenodd;stroke:rgb(0, 0, 0);stroke-width:3.0;" d="M 42.9969, 483.74 L 33.1283, 508.425 L 18.2774, 501.209 L 32.0649, 456.479 z "/>
<path style="fill:rgb(246, 130, 130);fill-opacity:1.0;fill-rule:evenodd;stroke:rgb(0, 0, 0);stroke-width:3.0;" d="M 764.068, 226.134 L 778.073, 272.573 L 752.409, 246.877 L 761.097, 225.871 z "/>
<path style="fill:rgb(246, 130, 130);fill-opacity:1.0;fill-rule:evenodd;stroke:rgb(0, 0, 0);stroke-width:3.0;" d="M 454.55, 32.278 L 439.409, 45.8309 L 436.588, 45.2887 L 434.571, 31.6222 L 451.885, 23.5381 z "/>
<path style="fill:rgb(246, 130, 130);fill-opacity:1.0;fill-rule:evenodd;stroke:rgb(0, 0, 0);stroke-width:3.0;" d="M 111.788, 577.107 L 102.188, 592.611 L 94.1353, 589.845 L 101.247, 576.586 L 106.636, 573.788 z "/>
<path style="fill:rgb(255, 182, 8);fill-opacity:1.0;fill-rule:evenodd;stroke:rgb(0, 0, 0);stroke-width:3.0;" d="M 785.875, 45.2031 L 750.632, 82.1113 L 706.425, 74.1245 L 703.504, 53.9083 L 772.107, 44.692 z "/>
<path style="fill:rgb(255, 255, 38);fill-opacity:1.0;fill-rule:evenodd;stroke:rgb(0, 0, 0);stroke-width:3.0;" d="M 619.455, 121.035 L 596.277, 143.901 L 616.223, 96.3905 z "/>
<path style="fill:rgb(255, 255, 38);fill-opacity:1.0;fill-rule:evenodd;stroke:rgb(0, 0, 0);stroke-width:3.0;" d="M 703.963, 130.986 L 672.475, 163.962 L 665.321, 152.196 L 690.559, 120.708 z "/>
<path style="fill:rgb(255, 255, 38);fill-opacity:1.0;fill-rule:evenodd;stroke:rgb(0, 0, 0);stroke-width:3.0;" d="M 730.155, 103.557 L 723.235, 110.804 L 712.93, 90.5729 L 724.91, 81.5938 z "/>
<path style="fill:rgb(255, 255, 38);fill-opacity:1.0;fill-rule:evenodd;stroke:rgb(0, 0, 0);stroke-width:3.0;" d="M 769.125, 78.806 L 752.087, 80.5878 L 774.826, 56.7736 z "/>
<path style="fill:rgb(255, 255, 38);fill-opacity:1.0;fill-rule:evenodd;stroke:rgb(0, 0, 0);stroke-width:3.0;" d="M 614.79, 75.9589 L 583.561, 52.4093 L 584.133, 47.1161 L 604.948, 43.413 z "/>
<path style="fill:rgb(255, 255, 38);fill-opacity:1.0;fill-rule:evenodd;stroke:rgb(0, 0, 0);stroke-width:3.0;" d="M 471.742, 572.556 L 461.085, 550.189 L 506.665, 521.628 L 508.222, 521.415 z "/>
<path style="fill:rgb(199, 255, 29);fill-opacity:1.0;fill-rule:evenodd;stroke:rgb(0, 0, 0);stroke-width:3.0;" d="M 472.283, 369.836 L 476.931, 386.481 L 466.645, 395.537 L 391.874, 404.929 L 390.745, 402.561 L 468.433, 368.845 z "/>
<path style="fill:rgb(199, 255, 29);fill-opacity:1.0;fill-rule:evenodd;stroke:rgb(0, 0, 0);stroke-width:3.0;" d="M 562.988, 444.64 L 508.222, 521.415 L 451.099, 529.23 L 442.279, 510.72 L 504.768, 361.873 z "/>
<path style="fill:rgb(199, 255, 29);fill-opacity:1.0;fill-rule:evenodd;stroke:rgb(0, 0, 0);stroke-width:3.0;" d="M 793.008, 45.468 L 759.776, 44.2341 L 771.655, 31.6334 z "/>
<path style="fill:rgb(255, 57, 74);fill-opacity:1.0;fill-rule:evenodd;stroke:rgb(0, 0, 0);stroke-width:3.0;" d="M 436.588, 45.2887 L 414.424, 41.029 L 434.571, 31.6222 z "/>
<path style="fill:rgb(255, 57, 74);fill-opacity:1.0;fill-rule:evenodd;stroke:rgb(0, 0, 0);stroke-width:3.0;" d="M 420.913, 435.803 L 413.264, 442.538 L 407.593, 437.921 L 405.955, 434.482 L 412.501, 428.507 z "/>
<path style="fill:rgb(255, 57, 74);fill-opacity:1.0;fill-rule:evenodd;stroke:rgb(0, 0, 0);stroke-width:3.0;" d="M 112.39, 514.37 L 64.9907, 538.585 L 30.5673, 452.744 L 136.205, 420.514 z "/>
<path style="fill:rgb(255, 255, 54);fill-opacity:1.0;fill-rule:evenodd;stroke:rgb(0, 0, 0);stroke-width:3.0;" d="M 753.652, 177.35 L 741.22, 194.778 L 739.111, 173.932 L 740.572, 165.816 z "/>
<path style="fill:rgb(255, 255, 54);fill-opacity:1.0;fill-rule:evenodd;stroke:rgb(0, 0, 0);stroke-width:3.0;" d="M 607.135, 215.382 L 605.443, 234.163 L 595.65, 244.418 L 594.772, 213.181 z "/>
<path style="fill:rgb(255, 255, 54);fill-opacity:1.0;fill-rule:evenodd;stroke:rgb(0, 0, 0);stroke-width:3.0;" d="M 51.5843, 61.7961 L 43.2854, 80.7473 L 42.2859, 81.7672 L 43.9522, 55.9952 z "/>
<path style="fill:rgb(255, 255, 54);fill-opacity:1.0;fill-rule:evenodd;stroke:rgb(0, 0, 0);stroke-width:3.0;" d="M 115.556, 517.262 L 91.2353, 533.319 L 87.2439, 527.217 L 121.564, 509.684 z "/>
<path style="fill:rgb(255, 255, 54);fill-opacity:1.0;fill-rule:evenodd;stroke:rgb(0, 0, 0);stroke-width:3.0;" d="M 110.291, 569.111 L 83.2907, 584.219 L 68.8153, 548.122 L 95.7418, 530.344 z "/>
<path style="fill:rgb(255, 255, 16);fill-opacity:1.0;fill-rule:evenodd;stroke:rgb(0, 0, 0);stroke-width:3.0;" d="M 721.216, 31.484 L 721.184, 31.5756 L 702.135, 14.0586 L 726.671, 14.0388 z "/>
<path style="fill:rgb(249, 255, 9);fill-opacity:1.0;fill-rule:evenodd;stroke:rgb(0, 0, 0);stroke-width:3.0;" d="M 189.379, 546.12 L 191.269, 560.663 L 178.476, 548.907 L 185.43, 535.519 z "/>
<path style="fill:rgb(255, 41, 19);fill-opacity:1.0;fill-rule:evenodd;stroke:rgb(0, 0, 0);stroke-width:3.0;" d="M 739.03, 376.807 L 715.377, 380.356 L 718.808, 370.464 z "/>
<path style="fill:rgb(255, 41, 19);fill-opacity:1.0;fill-rule:evenodd;stroke:rgb(0, 0, 0);stroke-width:3.0;" d="M 723.879, 77.2778 L 724.91, 81.5938 L 712.93, 90.5729 L 704.361, 73.7516 z "/>
<path style="fill:rgb(255, 41, 19);fill-opacity:1.0;fill-rule:evenodd;stroke:rgb(0, 0, 0);stroke-width:3.0;" d="M 579.866, 72.8253 L 564.73, 69.9162 L 562.595, 63.6408 L 573.667, 62.3912 z "/>
<path style="fill:rgb(220, 86, 60);fill-opacity:1.0;fill-rule:evenodd;stroke:rgb(0, 0, 0);stroke-width:3.0;" d="M 43.6362, 60.8834 L 35.7754, 67.3925 L 23.6066, 61.5907 L 23.0592, 58.7739 L 43.8017, 58.3228 z "/>
<path style="fill:rgb(220, 86, 60);fill-opacity:1.0;fill-rule:evenodd;stroke:rgb(0, 0, 0);stroke-width:3.0;" d="M 765.285, 27.506 L 746.177, 32.1219 L 736.874, 31.5258 L 731.084, 22.643 L 733.82, 20.546 L 754.337, 20.4128 z "/>
<path style="fill:rgb(220, 86, 60);fill-opacity:1.0;fill-rule:evenodd;stroke:rgb(0, 0, 0);stroke-width:3.0;" d="M 785.11, 167.806 L 742.912, 192.406 L 764.092, 162.714 L 788.717, 159.083 z "/>
<path style="fill:rgb(252, 172, 7);fill-opacity:1.0;fill-rule:evenodd;stroke:rgb(0, 0, 0);stroke-width:3.0;" d="M 704.022, 16.359 L 712.723, 26.8966 L 697.695, 29.2687 L 694.137, 14.1813 z "/>
<path style="fill:rgb(252, 172, 7);fill-opacity:1.0;fill-rule:evenodd;stroke:rgb(0, 0, 0);stroke-width:3.0;" d="M 509.461, 59.2942 L 484.143, 54.4284 L 479.882, 44.3125 z "/>
<path style="fill:rgb(252, 172, 7);fill-opacity:1.0;fill-rule:evenodd;stroke:rgb(0, 0, 0);stroke-width:3.0;" d="M 624.377, 537.149 L 603.769, 577.237 L 594.83, 561.657 L 604.342, 530.122 z "/>
<path style="fill:rgb(11, 231, 44);fill-opacity:1.0;fill-rule:evenodd;stroke:rgb(0, 0, 0);stroke-width:3.0;" d="M 765.718, 349.783 L 761.998, 360.357 L 760.364, 359.366 L 746.671, 345.804 L 750.627, 340.028 L 764.836, 336.862 z "/>
<path style="fill:rgb(11, 231, 44);fill-opacity:1.0;fill-rule:evenodd;stroke:rgb(0, 0, 0);stroke-width:3.0;" d="M 784.505, 353.063 L 774.297, 367.824 L 771.373, 366.049 L 775.285, 345.058 z "/>
<path style="fill:rgb(142, 15, 199);fill-opacity:1.0;fill-rule:evenodd;stroke:rgb(0, 0, 0);stroke-width:3.0;" d="M 769.589, 30.2945 L 753.993, 44.0194 L 717.305, 42.6571 L 718.666, 38.7674 L 765.285, 27.506 z "/>
<path style="fill:rgb(255, 240, 7);fill-opacity:1.0;fill-rule:evenodd;stroke:rgb(0, 0, 0);stroke-width:3.0;" d="M 516.591, 535.841 L 488.424, 549.169 L 524.152, 499.082 z "/>
<path style="fill:rgb(255, 44, 19);fill-opacity:1.0;fill-rule:evenodd;stroke:rgb(0, 0, 0);stroke-width:3.0;" d="M 748.47, 92.8483 L 747.959, 112.599 L 745.835, 114.919 L 741.474, 91.702 L 745.612, 87.3691 z "/>
<path style="fill:rgb(255, 44, 19);fill-opacity:1.0;fill-rule:evenodd;stroke:rgb(0, 0, 0);stroke-width:3.0;" d="M 68.0427, 577.387 L 77.63, 586.116 L 35.9058, 585.8 L 56.019, 575.834 z "/>
<path style="fill:rgb(255, 44, 19);fill-opacity:1.0;fill-rule:evenodd;stroke:rgb(0, 0, 0);stroke-width:3.0;" d="M 791.99, 293.096 L 794.155, 322.417 L 793.688, 322.976 L 792.881, 321.673 L 786.203, 299.53 L 789.078, 294.608 L 791.261, 291.878 z "/>
<path style="fill:rgb(255, 44, 19);fill-opacity:1.0;fill-rule:evenodd;stroke:rgb(0, 0, 0);stroke-width:3.0;" d="M 750.977, 292.781 L 754.391, 300.948 L 747.734, 321.14 L 728.576, 304.507 L 738.923, 279.486 z "/>
<path style="fill:rgb(161, 209, 187);fill-opacity:1.0;fill-rule:evenodd;stroke:rgb(0, 0, 0);stroke-width:3.0;" d="M 718.773, 328.209 L 716.82, 332.932 L 665.077, 301.521 L 693.275, 261.991 z "/>
<path style="fill:rgb(161, 209, 187);fill-opacity:1.0;fill-rule:evenodd;stroke:rgb(0, 0, 0);stroke-width:3.0;" d="M 40.5203, 412.257 L 35.5002, 446.232 L 21.4405, 429.985 L 14.125, 411.743 z "/>
<path style="fill:rgb(67, 165, 240);fill-opacity:1.0;fill-rule:evenodd;stroke:rgb(0, 0, 0);stroke-width:3.0;" d="M 557.93, 283.921 L 538.457, 298.665 L 552.152, 279.049 L 562.601, 279.029 z "/>
<path style="fill:rgb(170, 220, 49);fill-opacity:1.0;fill-rule:evenodd;stroke:rgb(0, 0, 0);stroke-width:3.0;" d="M 696.314, 379.142 L 677.139, 555.655 L 670.823, 553.439 L 610.667, 509.154 L 657.003, 355.539 z "/>
<path style="fill:rgb(170, 220, 49);fill-opacity:1.0;fill-rule:evenodd;stroke:rgb(0, 0, 0);stroke-width:3.0;" d="M 736.509, 134.438 L 725.434, 138.033 L 727.397, 122.378 L 731.102, 121.808 z "/>
<path style="fill:rgb(234, 100, 35);fill-opacity:1.0;fill-rule:evenodd;stroke:rgb(0, 0, 0);stroke-width:3.0;" d="M 738.066, 163.605 L 741.22, 194.778 L 739.306, 197.461 L 716.191, 211.731 L 723.804, 151.028 z "/>
<path style="fill:rgb(255, 44, 8);fill-opacity:1.0;fill-rule:evenodd;stroke:rgb(0, 0, 0);stroke-width:3.0;" d="M 40.2844, 567.469 L 33.9899, 583.125 L 29.31, 558.238 z "/>
<path style="fill:rgb(255, 142, 7);fill-opacity:1.0;fill-rule:evenodd;stroke:rgb(0, 0, 0);stroke-width:3.0;" d="M 756.006, 338.83 L 734.987, 343.513 L 739.546, 335.098 L 753.393, 328.762 z "/>
<path style="fill:rgb(255, 114, 22);fill-opacity:1.0;fill-rule:evenodd;stroke:rgb(0, 0, 0);stroke-width:3.0;" d="M 184.963, 479.74 L 146.383, 540.877 L 140.286, 540.31 L 124.534, 511.334 L 183.985, 472.082 z "/>
<path style="fill:rgb(255, 114, 22);fill-opacity:1.0;fill-rule:evenodd;stroke:rgb(0, 0, 0);stroke-width:3.0;" d="M 147.621, 414.343 L 127.899, 420.928 L 54.5235, 424.232 L 53.2421, 412.505 z "/>
<path style="fill:rgb(255, 114, 22);fill-opacity:1.0;fill-rule:evenodd;stroke:rgb(0, 0, 0);stroke-width:3.0;" d="M 53.8842, 537.712 L 52.4055, 539.928 L 32.2838, 544.831 L 29.1507, 541.979 L 46.0047, 531.509 z "/>
<path style="fill:rgb(255, 114, 22);fill-opacity:1.0;fill-rule:evenodd;stroke:rgb(0, 0, 0);stroke-width:3.0;" d="M 780.379, 280.217 L 790.762, 314.647 L 764.721, 325.661 L 742.155, 271.673 L 744.003, 267.203 z "/>
<path style="fill:rgb(255, 114, 22);fill-opacity:1.0;fill-rule:evenodd;stroke:rgb(0, 0, 0);stroke-width:3.0;" d="M 670.823, 553.439 L 623.039, 536.68 L 607.991, 518.027 L 610.667, 509.154 z "/>
<path style="fill:rgb(246, 10, 8);fill-opacity:1.0;fill-rule:evenodd;stroke:rgb(0, 0, 0);stroke-width:3.0;" d="M 43.8017, 58.3228 L 38.3484, 58.4414 L 12.0087, 58.3703 L 10.8072, 56.2264 L 13.1409, 54.2195 L 44.1121, 53.523 z "/>
<path style="fill:rgb(252, 20, 76);fill-opacity:1.0;fill-rule:evenodd;stroke:rgb(0, 0, 0);stroke-width:3.0;" d="M 490.505, 374.528 L 476.931, 386.481 L 472.283, 369.836 z "/>
<path style="fill:rgb(252, 20, 76);fill-opacity:1.0;fill-rule:evenodd;stroke:rgb(0, 0, 0);stroke-width:3.0;" d="M 113.03, 514.043 L 112.39, 514.37 L 134.218, 428.347 L 149.15, 422.552 z "/>
<path style="fill:rgb(255, 130, 40);fill-opacity:1.0;fill-rule:evenodd;stroke:rgb(0, 0, 0);stroke-width:3.0;" d="M 621.159, 80.7612 L 579.866, 72.8253 L 569.292, 55.0257 L 576.235, 46.8853 z "/>
<path style="fill:rgb(255, 226, 60);fill-opacity:1.0;fill-rule:evenodd;stroke:rgb(0, 0, 0);stroke-width:3.0;" d="M 77.9668, 35.7999 L 58.2328, 37.9067 L 58.4419, 34.0351 L 85.4521, 16.295 z "/>
<path style="fill:rgb(255, 226, 60);fill-opacity:1.0;fill-rule:evenodd;stroke:rgb(0, 0, 0);stroke-width:3.0;" d="M 82.1337, 581.334 L 67.7171, 577.091 L 60.7057, 570.707 L 76.5416, 567.389 z "/>
<path style="fill:rgb(234, 215, 76);fill-opacity:1.0;fill-rule:evenodd;stroke:rgb(0, 0, 0);stroke-width:3.0;" d="M 53.1494, 100.468 L 51.3839, 105.069 L 13.799, 103.059 L 37.8155, 95.8807 z "/>
<path style="fill:rgb(209, 0, 255);fill-opacity:1.0;fill-rule:evenodd;stroke:rgb(0, 0, 0);stroke-width:3.0;" d="M 305.481, 585.409 L 306.408, 572.624 L 372.582, 493.767 L 398.725, 470.154 z "/>
<path style="fill:rgb(209, 0, 255);fill-opacity:1.0;fill-rule:evenodd;stroke:rgb(0, 0, 0);stroke-width:3.0;" d="M 456.775, 39.5738 L 447.648, 47.4143 L 439.409, 45.8309 L 454.55, 32.278 z "/>
<path style="fill:rgb(249, 56, 223);fill-opacity:1.0;fill-rule:evenodd;stroke:rgb(0, 0, 0);stroke-width:3.0;" d="M 458.313, 257.009 L 358.332, 334.533 L 328.235, 271.364 L 336.84, 152.592 z "/>
<path style="fill:rgb(249, 56, 223);fill-opacity:1.0;fill-rule:evenodd;stroke:rgb(0, 0, 0);stroke-width:3.0;" d="M 430.133, 427.685 L 420.913, 435.803 L 412.501, 428.507 L 417.299, 424.127 z "/>
<path style="fill:rgb(255, 44, 132);fill-opacity:1.0;fill-rule:evenodd;stroke:rgb(0, 0, 0);stroke-width:3.0;" d="M 405.964, 460.707 L 308.584, 542.583 L 317.014, 426.241 z "/>
<path style="fill:rgb(240, 246, 44);fill-opacity:1.0;fill-rule:evenodd;stroke:rgb(0, 0, 0);stroke-width:3.0;" d="M 453.699, 483.52 L 449.174, 478.113 L 445.324, 414.309 L 473.284, 389.692 L 496.648, 381.216 z "/>
<path style="fill:rgb(177, 249, 78);fill-opacity:1.0;fill-rule:evenodd;stroke:rgb(0, 0, 0);stroke-width:3.0;" d="M 145.296, 549.524 L 110.291, 569.111 L 98.6168, 538.005 L 134.724, 530.078 z "/>
<path style="fill:rgb(177, 249, 78);fill-opacity:1.0;fill-rule:evenodd;stroke:rgb(0, 0, 0);stroke-width:3.0;" d="M 559.1, 279.036 L 539.529, 279.073 L 554.519, 243.368 z "/>
<path style="fill:rgb(177, 249, 78);fill-opacity:1.0;fill-rule:evenodd;stroke:rgb(0, 0, 0);stroke-width:3.0;" d="M 776.585, 388.586 L 774.934, 394.869 L 714.022, 380.559 L 739.03, 376.807 z "/>
<path style="fill:rgb(177, 249, 78);fill-opacity:1.0;fill-rule:evenodd;stroke:rgb(0, 0, 0);stroke-width:3.0;" d="M 764.592, 113.031 L 766.347, 116.385 L 747.787, 119.241 L 748.695, 84.1397 L 748.699, 84.1357 z "/>
<path style="fill:rgb(105, 255, 255);fill-opacity:1.0;fill-rule:evenodd;stroke:rgb(0, 0, 0);stroke-width:3.0;" d="M 772.354, 198.651 L 766.699, 212.323 L 739.032, 197.845 L 742.912, 192.406 L 744.083, 191.723 z "/>
<path style="fill:rgb(7, 165, 255);fill-opacity:1.0;fill-rule:evenodd;stroke:rgb(0, 0, 0);stroke-width:3.0;" d="M 54.399, 518.762 L 52.6376, 517.906 L 38.6896, 494.514 L 41.5844, 487.273 L 43.5084, 487.198 z "/>
<path style="fill:rgb(94, 7, 240);fill-opacity:1.0;fill-rule:evenodd;stroke:rgb(0, 0, 0);stroke-width:3.0;" d="M 622.663, 81.0503 L 583.999, 173.148 L 445.388, 245.898 L 336.84, 152.592 L 345.878, 27.8552 z "/>
<path style="fill:rgb(226, 10, 6);fill-opacity:1.0;fill-rule:evenodd;stroke:rgb(0, 0, 0);stroke-width:3.0;" d="M 787.177, 45.2515 L 761.914, 106.669 L 774.826, 56.7736 L 785.875, 45.2031 z "/>
<path style="fill:rgb(6, 146, 252);fill-opacity:1.0;fill-rule:evenodd;stroke:rgb(0, 0, 0);stroke-width:3.0;" d="M 466.666, 37.6189 L 466.417, 42.277 L 459.83, 49.5933 L 454.263, 31.3368 z "/>
<path style="fill:rgb(6, 146, 252);fill-opacity:1.0;fill-rule:evenodd;stroke:rgb(0, 0, 0);stroke-width:3.0;" d="M 778.78, 36.2494 L 744.477, 14.0245 L 776.746, 13.9986 z "/>
<path style="fill:rgb(7, 79, 240);fill-opacity:1.0;fill-rule:evenodd;stroke:rgb(0, 0, 0);stroke-width:3.0;" d="M 528.001, 306.533 L 524.799, 314.159 L 445.388, 245.898 L 505.395, 214.403 z "/>
<path style="fill:rgb(163, 14, 212);fill-opacity:1.0;fill-rule:evenodd;stroke:rgb(0, 0, 0);stroke-width:3.0;" d="M 190.635, 524.155 L 158.699, 542.024 L 146.383, 540.877 L 184.963, 479.74 z "/>
<path style="fill:rgb(26, 255, 234);fill-opacity:1.0;fill-rule:evenodd;stroke:rgb(0, 0, 0);stroke-width:3.0;" d="M 776.947, 395.342 L 788, 414.574 L 785.097, 415.529 L 742, 406.574 L 688.809, 374.636 z "/>
<path style="fill:rgb(26, 255, 234);fill-opacity:1.0;fill-rule:evenodd;stroke:rgb(0, 0, 0);stroke-width:3.0;" d="M 550.221, 27.2684 L 564.73, 69.9162 L 549.487, 66.9866 L 524.224, 7.66418 z "/>
<path style="fill:rgb(255, 43, 10);fill-opacity:1.0;fill-rule:evenodd;stroke:rgb(0, 0, 0);stroke-width:3.0;" d="M 721.514, 335.781 L 698.18, 338.524 L 697.647, 321.293 z "/>
<path style="fill:rgb(8, 5, 182);fill-opacity:1.0;fill-rule:evenodd;stroke:rgb(0, 0, 0);stroke-width:3.0;" d="M 690.559, 120.708 L 665.321, 152.196 L 654.723, 134.764 L 667.487, 103.018 z "/>
<path style="fill:rgb(8, 5, 182);fill-opacity:1.0;fill-rule:evenodd;stroke:rgb(0, 0, 0);stroke-width:3.0;" d="M 736.066, 9.28801 L 738.832, 13.4397 L 734.744, 14.0323 L 669.279, 14.085 L 731.563, 7.26259 z "/>
<path style="fill:rgb(255, 255, 19);fill-opacity:1.0;fill-rule:evenodd;stroke:rgb(0, 0, 0);stroke-width:3.0;" d="M 594.772, 213.181 L 595.65, 244.418 L 588.506, 251.9 L 586.145, 211.644 z "/>
<path style="fill:rgb(88, 3, 152);fill-opacity:1.0;fill-rule:evenodd;stroke:rgb(0, 0, 0);stroke-width:3.0;" d="M 761.977, 121.478 L 759.131, 127.095 L 744.58, 131.818 L 737.651, 120.8 L 760.843, 117.232 z "/>
<path style="fill:rgb(88, 3, 152);fill-opacity:1.0;fill-rule:evenodd;stroke:rgb(0, 0, 0);stroke-width:3.0;" d="M 523.791, 319.673 L 521.459, 322.116 L 532.063, 296.856 L 544.895, 289.445 z "/>
<path style="fill:rgb(88, 3, 152);fill-opacity:1.0;fill-rule:evenodd;stroke:rgb(0, 0, 0);stroke-width:3.0;" d="M 719.697, 245.686 L 729.489, 292.699 L 719.235, 318.449 L 708.221, 245.056 z "/>
<path style="fill:rgb(88, 3, 152);fill-opacity:1.0;fill-rule:evenodd;stroke:rgb(0, 0, 0);stroke-width:3.0;" d="M 608.659, 198.469 L 608.43, 201.009 L 586.092, 210.747 L 583.9, 173.383 L 588.836, 161.626 z "/>
<path style="fill:rgb(255, 255, 18);fill-opacity:1.0;fill-rule:evenodd;stroke:rgb(0, 0, 0);stroke-width:3.0;" d="M 588.506, 251.9 L 562.601, 279.029 L 559.1, 279.036 L 554.519, 243.368 L 583.9, 173.383 z "/>
<path style="fill:rgb(255, 28, 76);fill-opacity:1.0;fill-rule:evenodd;stroke:rgb(0, 0, 0);stroke-width:3.0;" d="M 61.7487, 530.5 L 69.6028, 550.086 L 54.2341, 537.987 L 50.9411, 523.373 z "/>
<path style="fill:rgb(255, 163, 8);fill-opacity:1.0;fill-rule:evenodd;stroke:rgb(0, 0, 0);stroke-width:3.0;" d="M 753.652, 177.35 L 729.459, 156.015 L 785.873, 132.179 z "/>
<path style="fill:rgb(226, 115, 255);fill-opacity:1.0;fill-rule:evenodd;stroke:rgb(0, 0, 0);stroke-width:3.0;" d="M 48.5579, 515.924 L 49.349, 516.308 L 54.2341, 537.987 L 49.7756, 534.477 L 24.8861, 511.745 L 30.1292, 509.967 z "/>
<path style="fill:rgb(226, 115, 255);fill-opacity:1.0;fill-rule:evenodd;stroke:rgb(0, 0, 0);stroke-width:3.0;" d="M 699.062, 35.0641 L 653.919, 14.0974 L 694.109, 14.065 z "/>
<path style="fill:rgb(226, 115, 255);fill-opacity:1.0;fill-rule:evenodd;stroke:rgb(0, 0, 0);stroke-width:3.0;" d="M 500.457, 365.766 L 490.505, 374.528 L 468.433, 368.845 L 491.375, 358.888 z "/>
<path style="fill:rgb(237, 0, 33);fill-opacity:1.0;fill-rule:evenodd;stroke:rgb(0, 0, 0);stroke-width:3.0;" d="M 504.703, 362.027 L 500.457, 365.766 L 491.375, 358.888 L 509.284, 351.116 z "/>
<path style="fill:rgb(255, 182, 15);fill-opacity:1.0;fill-rule:evenodd;stroke:rgb(0, 0, 0);stroke-width:3.0;" d="M 692.131, 41.7224 L 682.02, 66.8699 L 649.3, 40.1321 z "/>
<path style="fill:rgb(177, 59, 240);fill-opacity:1.0;fill-rule:evenodd;stroke:rgb(0, 0, 0);stroke-width:3.0;" d="M 89.105, 433.882 L 55.5635, 433.749 L 54.5235, 424.232 L 127.899, 420.928 z "/>
<path style="fill:rgb(177, 59, 240);fill-opacity:1.0;fill-rule:evenodd;stroke:rgb(0, 0, 0);stroke-width:3.0;" d="M 599.342, 24.8758 L 596.966, 38.1811 L 594.494, 38.9574 L 584.633, 34.9222 L 595.565, 12.3832 z "/>
<path style="fill:rgb(246, 100, 48);fill-opacity:1.0;fill-rule:evenodd;stroke:rgb(0, 0, 0);stroke-width:3.0;" d="M 616.808, 213.614 L 619.783, 219.145 L 605.443, 234.163 L 607.998, 205.801 z "/>
<path style="fill:rgb(246, 100, 48);fill-opacity:1.0;fill-rule:evenodd;stroke:rgb(0, 0, 0);stroke-width:3.0;" d="M 525.97, 544.997 L 512.916, 537.58 L 543.13, 523.284 z "/>
<path style="fill:rgb(184, 9, 40);fill-opacity:1.0;fill-rule:evenodd;stroke:rgb(0, 0, 0);stroke-width:3.0;" d="M 777.708, 185.704 L 772.354, 198.651 L 744.083, 191.723 L 776.221, 172.988 z "/>
<path style="fill:rgb(184, 9, 40);fill-opacity:1.0;fill-rule:evenodd;stroke:rgb(0, 0, 0);stroke-width:3.0;" d="M 52.6376, 517.906 L 33.1283, 508.425 L 37.4569, 497.598 L 39.6196, 496.074 z "/>
<path style="fill:rgb(184, 9, 40);fill-opacity:1.0;fill-rule:evenodd;stroke:rgb(0, 0, 0);stroke-width:3.0;" d="M 524.799, 314.159 L 509.284, 351.116 L 390.745, 402.561 L 358.332, 334.533 L 458.313, 257.009 z "/>
<path style="fill:rgb(184, 9, 40);fill-opacity:1.0;fill-rule:evenodd;stroke:rgb(0, 0, 0);stroke-width:3.0;" d="M 605.294, 44.5567 L 594.29, 8.17012 L 620.635, 5.68759 z "/>
<path style="fill:rgb(255, 255, 17);fill-opacity:1.0;fill-rule:evenodd;stroke:rgb(0, 0, 0);stroke-width:3.0;" d="M 626.076, 572.381 L 624.817, 573.023 L 601.68, 581.3 L 613.665, 557.987 z "/>
<path style="fill:rgb(255, 255, 17);fill-opacity:1.0;fill-rule:evenodd;stroke:rgb(0, 0, 0);stroke-width:3.0;" d="M 53.2421, 412.505 L 56.7658, 444.751 L 39.5027, 450.018 L 35.7976, 444.22 L 40.5203, 412.257 z "/>
<path style="fill:rgb(255, 255, 17);fill-opacity:1.0;fill-rule:evenodd;stroke:rgb(0, 0, 0);stroke-width:3.0;" d="M 704.361, 73.7516 L 721.61, 107.613 L 673.675, 87.6262 L 680.953, 69.5225 z "/>
<path style="fill:rgb(255, 255, 17);fill-opacity:1.0;fill-rule:evenodd;stroke:rgb(0, 0, 0);stroke-width:3.0;" d="M 786.321, 98.6527 L 785.257, 112.419 L 776.105, 110.744 L 765.17, 98.7526 L 777.535, 68.6921 z "/>
<path style="fill:rgb(255, 255, 17);fill-opacity:1.0;fill-rule:evenodd;stroke:rgb(0, 0, 0);stroke-width:3.0;" d="M 413.972, 451.308 L 406.271, 460.826 L 395.324, 456.584 L 320.567, 377.194 L 328.235, 271.364 z "/>
<path style="fill:rgb(255, 14, 12);fill-opacity:1.0;fill-rule:evenodd;stroke:rgb(0, 0, 0);stroke-width:3.0;" d="M 43.2721, 66.5147 L 41.3059, 96.9249 L 32.0669, 94.161 L 22.9956, 77.9747 L 41.1354, 62.9542 z "/>
<path style="fill:rgb(255, 22, 192);fill-opacity:1.0;fill-rule:evenodd;stroke:rgb(0, 0, 0);stroke-width:3.0;" d="M 766.143, 261.301 L 765.856, 266.324 L 752.564, 270.266 L 744.003, 267.203 L 750.043, 252.598 z "/>
<path style="fill:rgb(212, 27, 209);fill-opacity:1.0;fill-rule:evenodd;stroke:rgb(0, 0, 0);stroke-width:3.0;" d="M 736.201, 30.4926 L 731.861, 35.5801 L 718.666, 38.7674 L 721.826, 29.7411 L 724.782, 27.4749 L 733.124, 25.7729 z "/>
<path style="fill:rgb(255, 255, 10);fill-opacity:1.0;fill-rule:evenodd;stroke:rgb(0, 0, 0);stroke-width:3.0;" d="M 633.003, 552.986 L 624.694, 566.088 L 621.695, 567.301 L 616.869, 561.703 L 623.454, 550.477 z "/>
<path style="fill:rgb(255, 255, 18);fill-opacity:1.0;fill-rule:evenodd;stroke:rgb(0, 0, 0);stroke-width:3.0;" d="M 155.901, 414.505 L 92.3496, 433.895 L 89.105, 433.882 L 147.621, 414.343 z "/>
<path style="fill:rgb(212, 22, 108);fill-opacity:1.0;fill-rule:evenodd;stroke:rgb(0, 0, 0);stroke-width:3.0;" d="M 51.3839, 105.069 L 46.4775, 117.853 L 32.4415, 109.955 L 24.6499, 103.639 z "/>
<path style="fill:rgb(212, 22, 108);fill-opacity:1.0;fill-rule:evenodd;stroke:rgb(0, 0, 0);stroke-width:3.0;" d="M 751.7, 136.182 L 744.077, 149.839 L 729.459, 156.015 L 723.804, 151.028 L 725.434, 138.033 L 742.983, 132.337 z "/>
<path style="fill:rgb(212, 22, 108);fill-opacity:1.0;fill-rule:evenodd;stroke:rgb(0, 0, 0);stroke-width:3.0;" d="M 440.677, 449.946 L 431.485, 488.065 L 430.815, 486.659 L 424.615, 432.543 L 430.303, 427.535 z "/>
<path style="fill:rgb(13, 172, 255);fill-opacity:1.0;fill-rule:evenodd;stroke:rgb(0, 0, 0);stroke-width:3.0;" d="M 743.631, 578.976 L 745.498, 583.645 L 688.627, 561.884 L 686.611, 558.977 z "/>
<path style="fill:rgb(255, 234, 33);fill-opacity:1.0;fill-rule:evenodd;stroke:rgb(0, 0, 0);stroke-width:3.0;" d="M 682.02, 66.8699 L 621.536, 217.309 L 619.783, 219.145 L 588.836, 161.626 L 596.277, 143.901 L 677.83, 63.4461 z "/>
<path style="fill:rgb(255, 255, 57);fill-opacity:1.0;fill-rule:evenodd;stroke:rgb(0, 0, 0);stroke-width:3.0;" d="M 714.163, 28.6403 L 715.587, 30.3654 L 712.089, 42.4635 L 700.708, 42.0409 L 697.695, 29.2687 L 711.674, 27.0622 z "/>
<path style="fill:rgb(255, 255, 57);fill-opacity:1.0;fill-rule:evenodd;stroke:rgb(0, 0, 0);stroke-width:3.0;" d="M 34.6514, 68.3232 L 27.7387, 74.0472 L 17.4225, 68.0304 L 15.9051, 65.3227 L 14.7079, 58.9555 L 15.4692, 58.9389 z "/>
<path style="fill:rgb(252, 8, 19);fill-opacity:1.0;fill-rule:evenodd;stroke:rgb(0, 0, 0);stroke-width:3.0;" d="M 766.699, 212.323 L 762.411, 222.692 L 728.311, 212.875 L 739.032, 197.845 z "/>
<path style="fill:rgb(252, 8, 19);fill-opacity:1.0;fill-rule:evenodd;stroke:rgb(0, 0, 0);stroke-width:3.0;" d="M 176.685, 414.91 L 183.985, 472.082 L 169.172, 481.863 L 145.682, 431.339 L 151.838, 415.744 L 155.901, 414.505 z "/>
<path style="fill:rgb(252, 8, 19);fill-opacity:1.0;fill-rule:evenodd;stroke:rgb(0, 0, 0);stroke-width:3.0;" d="M 430.547, 484.318 L 416.438, 456.485 L 410.819, 444.691 L 424.615, 432.543 z "/>
<path style="fill:rgb(249, 9, 7);fill-opacity:1.0;fill-rule:evenodd;stroke:rgb(0, 0, 0);stroke-width:3.0;" d="M 630.148, 444.57 L 616.939, 488.359 L 516.591, 535.841 L 524.152, 499.082 L 612.252, 375.576 z "/>
<path style="fill:rgb(79, 47, 209);fill-opacity:1.0;fill-rule:evenodd;stroke:rgb(0, 0, 0);stroke-width:3.0;" d="M 672.025, 305.738 L 630.148, 444.57 L 612.252, 375.576 L 665.077, 301.521 z "/>
<path style="fill:rgb(209, 65, 18);fill-opacity:1.0;fill-rule:evenodd;stroke:rgb(0, 0, 0);stroke-width:3.0;" d="M 544.895, 289.445 L 532.063, 296.856 L 539.529, 279.073 L 552.152, 279.049 z "/>
<path style="fill:rgb(7, 197, 252);fill-opacity:1.0;fill-rule:evenodd;stroke:rgb(0, 0, 0);stroke-width:3.0;" d="M 733.277, 246.431 L 740.014, 266.268 L 729.489, 292.699 L 719.697, 245.686 z "/>
<path style="fill:rgb(7, 197, 252);fill-opacity:1.0;fill-rule:evenodd;stroke:rgb(0, 0, 0);stroke-width:3.0;" d="M 649.3, 40.1321 L 677.83, 63.4461 L 619.455, 121.035 L 616.223, 96.3905 L 639.986, 39.7863 z "/>
<path style="fill:rgb(81, 252, 215);fill-opacity:1.0;fill-rule:evenodd;stroke:rgb(0, 0, 0);stroke-width:3.0;" d="M 496.648, 381.216 L 478.763, 387.704 L 487.903, 376.82 L 504.703, 362.027 z "/>
<path style="fill:rgb(255, 237, 8);fill-opacity:1.0;fill-rule:evenodd;stroke:rgb(0, 0, 0);stroke-width:3.0;" d="M 775.334, 121.836 L 763.13, 125.797 L 760.843, 117.232 L 775.371, 114.997 z "/>
<path style="fill:rgb(255, 11, 58);fill-opacity:1.0;fill-rule:evenodd;stroke:rgb(0, 0, 0);stroke-width:3.0;" d="M 779.415, 114.375 L 766.347, 116.385 L 761.628, 107.364 L 765.17, 98.7526 z "/>
<path style="fill:rgb(255, 194, 27);fill-opacity:1.0;fill-rule:evenodd;stroke:rgb(0, 0, 0);stroke-width:3.0;" d="M 51.6495, 577.029 L 52.0344, 577.808 L 35.9058, 585.8 L 34.491, 585.789 L 33.9899, 583.125 L 37.0937, 575.405 L 45.4636, 571.825 z "/>
<path style="fill:rgb(255, 255, 79);fill-opacity:1.0;fill-rule:evenodd;stroke:rgb(0, 0, 0);stroke-width:3.0;" d="M 775.285, 345.058 L 772.999, 357.322 L 765.785, 350.762 L 764.836, 336.862 L 765.638, 336.684 z "/>
<path style="fill:rgb(255, 255, 79);fill-opacity:1.0;fill-rule:evenodd;stroke:rgb(0, 0, 0);stroke-width:3.0;" d="M 562.953, 44.3553 L 573.667, 62.3912 L 562.595, 63.6408 L 557.347, 48.2139 L 556.064, 43.7888 z "/>
<path style="fill:rgb(255, 168, 79);fill-opacity:1.0;fill-rule:evenodd;stroke:rgb(0, 0, 0);stroke-width:3.0;" d="M 672.475, 163.962 L 670.595, 165.931 L 650.615, 144.983 L 654.723, 134.764 z "/>
<path style="fill:rgb(255, 168, 79);fill-opacity:1.0;fill-rule:evenodd;stroke:rgb(0, 0, 0);stroke-width:3.0;" d="M 784.659, 294.412 L 766.527, 234.289 L 779.365, 227.792 z "/>
<path style="fill:rgb(56, 60, 255);fill-opacity:1.0;fill-rule:evenodd;stroke:rgb(0, 0, 0);stroke-width:3.0;" d="M 528.001, 306.533 L 515.27, 254.649 L 546.841, 192.65 L 583.999, 173.148 z "/>
<path style="fill:rgb(102, 187, 255);fill-opacity:1.0;fill-rule:evenodd;stroke:rgb(0, 0, 0);stroke-width:3.0;" d="M 515.27, 254.649 L 505.395, 214.403 L 546.841, 192.65 z "/>
<path style="fill:rgb(252, 0, 8);fill-opacity:1.0;fill-rule:evenodd;stroke:rgb(0, 0, 0);stroke-width:3.0;" d="M 720.187, 324.792 L 718.773, 328.209 L 693.275, 261.991 L 707.723, 241.737 z "/>
<path style="fill:rgb(255, 189, 76);fill-opacity:1.0;fill-rule:evenodd;stroke:rgb(0, 0, 0);stroke-width:3.0;" d="M 438.271, 420.52 L 430.133, 427.685 L 398.543, 418.926 L 396.371, 414.367 L 416.857, 401.791 L 448.503, 397.816 z "/>
<path style="fill:rgb(255, 189, 76);fill-opacity:1.0;fill-rule:evenodd;stroke:rgb(0, 0, 0);stroke-width:3.0;" d="M 699.062, 35.0641 L 700.708, 42.0409 L 639.986, 39.7863 L 650.77, 14.0999 L 653.919, 14.0974 z "/>
<path style="fill:rgb(255, 0, 123);fill-opacity:1.0;fill-rule:evenodd;stroke:rgb(0, 0, 0);stroke-width:3.0;" d="M 747.044, 85.8696 L 730.155, 103.557 L 723.961, 77.6211 z "/>
<path style="fill:rgb(255, 39, 255);fill-opacity:1.0;fill-rule:evenodd;stroke:rgb(0, 0, 0);stroke-width:3.0;" d="M 713.432, 233.734 L 562.988, 444.64 L 504.768, 361.873 L 521.459, 322.116 L 729.697, 104.036 z "/>
<path style="fill:rgb(246, 223, 14);fill-opacity:1.0;fill-rule:evenodd;stroke:rgb(0, 0, 0);stroke-width:3.0;" d="M 448.493, 466.832 L 450.028, 492.264 L 449.318, 493.953 L 433.324, 480.439 L 440.677, 449.946 z "/>
<path style="fill:rgb(107, 255, 255);fill-opacity:1.0;fill-rule:evenodd;stroke:rgb(0, 0, 0);stroke-width:3.0;" d="M 623.595, 39.7635 L 629.756, 64.1553 L 622.663, 81.0503 L 621.159, 80.7612 L 617.901, 78.3049 L 612.914, 40.0072 L 614.517, 32.5648 z "/>
<path style="fill:rgb(82, 255, 255);fill-opacity:1.0;fill-rule:evenodd;stroke:rgb(0, 0, 0);stroke-width:3.0;" d="M 635.9, 49.5207 L 629.756, 64.1553 L 623.595, 39.7635 z "/>
<path style="fill:rgb(150, 240, 42);fill-opacity:1.0;fill-rule:evenodd;stroke:rgb(0, 0, 0);stroke-width:3.0;" d="M 479.524, 44.1313 L 483.598, 54.3235 L 465.954, 50.9325 L 466.212, 46.1026 L 469.44, 39.0237 z "/>
<path style="fill:rgb(142, 5, 228);fill-opacity:1.0;fill-rule:evenodd;stroke:rgb(0, 0, 0);stroke-width:3.0;" d="M 37.8155, 95.8807 L 20.6715, 101.005 L 11.7139, 93.2662 L 26.2273, 92.414 z "/>
<path style="fill:rgb(194, 226, 14);fill-opacity:1.0;fill-rule:evenodd;stroke:rgb(0, 0, 0);stroke-width:3.0;" d="M 441.063, 486.978 L 449.318, 493.953 L 442.279, 510.72 L 431.485, 488.065 L 432.409, 484.234 z "/>
<path style="fill:rgb(255, 255, 30);fill-opacity:1.0;fill-rule:evenodd;stroke:rgb(0, 0, 0);stroke-width:3.0;" d="M 721.61, 107.613 L 723.235, 110.804 L 707.981, 126.778 L 708.292, 102.06 z "/>
<path style="fill:rgb(255, 255, 30);fill-opacity:1.0;fill-rule:evenodd;stroke:rgb(0, 0, 0);stroke-width:3.0;" d="M 46.0047, 531.509 L 29.1507, 541.979 L 24.456, 537.704 L 29.673, 518.652 z "/>
<path style="fill:rgb(255, 255, 30);fill-opacity:1.0;fill-rule:evenodd;stroke:rgb(0, 0, 0);stroke-width:3.0;" d="M 706.425, 74.1245 L 701.378, 73.2126 L 697.537, 64.3466 L 697.935, 54.6565 L 703.504, 53.9083 z "/>
<path style="fill:rgb(255, 255, 30);fill-opacity:1.0;fill-rule:evenodd;stroke:rgb(0, 0, 0);stroke-width:3.0;" d="M 718.808, 370.464 L 715.377, 380.356 L 714.022, 380.559 L 688.809, 374.636 L 657.003, 355.539 L 658.232, 351.465 z "/>
<path style="fill:rgb(81, 255, 228);fill-opacity:1.0;fill-rule:evenodd;stroke:rgb(0, 0, 0);stroke-width:3.0;" d="M 20.892, 492.726 L 7.65052, 474.186 L 27.166, 472.372 z "/>
<path style="fill:rgb(237, 43, 157);fill-opacity:1.0;fill-rule:evenodd;stroke:rgb(0, 0, 0);stroke-width:3.0;" d="M 779.365, 227.792 L 768.825, 233.125 L 764.506, 227.586 L 762.769, 221.827 L 764.382, 217.926 L 778.216, 213.345 z "/>
<path style="fill:rgb(138, 237, 136);fill-opacity:1.0;fill-rule:evenodd;stroke:rgb(0, 0, 0);stroke-width:3.0;" d="M 733.277, 246.431 L 708.221, 245.056 L 707.723, 241.737 L 723.954, 218.982 z "/>
<path style="fill:rgb(252, 20, 189);fill-opacity:1.0;fill-rule:evenodd;stroke:rgb(0, 0, 0);stroke-width:3.0;" d="M 62.1951, 433.775 L 71.3741, 440.294 L 56.7658, 444.751 L 55.5635, 433.749 z "/>
<path style="fill:rgb(255, 255, 32);fill-opacity:1.0;fill-rule:evenodd;stroke:rgb(0, 0, 0);stroke-width:3.0;" d="M 614.739, 54.0218 L 611.61, 65.2111 L 611.561, 65.2799 L 605.294, 44.5567 L 611.469, 28.9102 z "/>
<path style="fill:rgb(252, 240, 10);fill-opacity:1.0;fill-rule:evenodd;stroke:rgb(0, 0, 0);stroke-width:3.0;" d="M 762.411, 222.692 L 741.987, 272.078 L 723.954, 218.982 L 728.311, 212.875 z "/>
<path style="fill:rgb(231, 17, 88);fill-opacity:1.0;fill-rule:evenodd;stroke:rgb(0, 0, 0);stroke-width:3.0;" d="M 42.7654, 554.374 L 32.2838, 544.831 L 52.4055, 539.928 z "/>
<path style="fill:rgb(130, 81, 67);fill-opacity:1.0;fill-rule:evenodd;stroke:rgb(0, 0, 0);stroke-width:3.0;" d="M 708.292, 102.06 L 707.981, 126.778 L 703.963, 130.986 L 667.487, 103.018 L 673.675, 87.6262 z "/>
<path style="fill:rgb(240, 217, 13);fill-opacity:1.0;fill-rule:evenodd;stroke:rgb(0, 0, 0);stroke-width:3.0;" d="M 697.647, 321.293 L 698.18, 338.524 L 680.252, 340.631 L 662.833, 336.21 L 668.773, 316.518 L 683.411, 312.65 z "/>
<path style="fill:rgb(13, 243, 144);fill-opacity:1.0;fill-rule:evenodd;stroke:rgb(0, 0, 0);stroke-width:3.0;" d="M 697.546, 64.125 L 697.204, 72.4584 L 680.953, 69.5225 L 685.78, 57.5188 z "/>
<path style="fill:rgb(234, 8, 35);fill-opacity:1.0;fill-rule:evenodd;stroke:rgb(0, 0, 0);stroke-width:3.0;" d="M 130.321, 521.978 L 133.03, 526.962 L 111.786, 535.114 L 98.6168, 538.005 L 95.7418, 530.344 L 122.525, 512.661 z "/>
<path style="fill:rgb(212, 100, 18);fill-opacity:1.0;fill-rule:evenodd;stroke:rgb(0, 0, 0);stroke-width:3.0;" d="M 395.324, 456.584 L 390.933, 454.883 L 317.738, 416.25 L 320.567, 377.194 z "/>
<path style="fill:rgb(212, 100, 18);fill-opacity:1.0;fill-rule:evenodd;stroke:rgb(0, 0, 0);stroke-width:3.0;" d="M 650.96, 548.338 L 632.779, 580.154 L 627.357, 573.866 L 627.968, 568.127 L 644.744, 546.281 z "/>
<path style="fill:rgb(17, 47, 255);fill-opacity:1.0;fill-rule:evenodd;stroke:rgb(0, 0, 0);stroke-width:3.0;" d="M 492.124, 529.265 L 487.603, 532.552 L 469.782, 534.505 L 467.451, 527.467 z "/>
<path style="fill:rgb(14, 255, 255);fill-opacity:1.0;fill-rule:evenodd;stroke:rgb(0, 0, 0);stroke-width:3.0;" d="M 641.869, 31.3618 L 630.163, 44.9714 L 611.649, 30.291 L 611.469, 28.9102 L 619.561, 8.40842 z "/>
<path style="fill:rgb(121, 255, 16);fill-opacity:1.0;fill-rule:evenodd;stroke:rgb(0, 0, 0);stroke-width:3.0;" d="M 86.3144, 14.0481 L 26.9396, 49.9851 L 23.9395, 49.5408 L 89.6782, 5.283 z "/>
<path style="fill:rgb(231, 246, 10);fill-opacity:1.0;fill-rule:evenodd;stroke:rgb(0, 0, 0);stroke-width:3.0;" d="M 306.408, 572.624 L 308.584, 542.583 L 386.809, 476.813 z "/>
<path style="fill:rgb(16, 246, 255);fill-opacity:1.0;fill-rule:evenodd;stroke:rgb(0, 0, 0);stroke-width:3.0;" d="M 644.744, 546.281 L 625.348, 571.537 L 622.98, 568.79 L 635.23, 549.474 L 640.958, 545.028 z "/>
<path style="fill:rgb(240, 28, 8);fill-opacity:1.0;fill-rule:evenodd;stroke:rgb(0, 0, 0);stroke-width:3.0;" d="M 785.097, 415.529 L 766.891, 421.519 L 742, 406.574 z "/>
<path style="fill:rgb(243, 82, 8);fill-opacity:1.0;fill-rule:evenodd;stroke:rgb(0, 0, 0);stroke-width:3.0;" d="M 604.948, 43.413 L 584.133, 47.1161 L 584.682, 42.039 L 602.811, 36.3454 z "/>
<path style="fill:rgb(243, 82, 8);fill-opacity:1.0;fill-rule:evenodd;stroke:rgb(0, 0, 0);stroke-width:3.0;" d="M 761.965, 106.472 L 761.248, 106.638 L 749.202, 83.6087 L 752.087, 80.5878 L 769.125, 78.806 z "/>
<path style="fill:rgb(255, 21, 81);fill-opacity:1.0;fill-rule:evenodd;stroke:rgb(0, 0, 0);stroke-width:3.0;" d="M 438.271, 420.52 L 448.503, 397.816 L 466.645, 395.537 z "/>
<path style="fill:rgb(255, 255, 20);fill-opacity:1.0;fill-rule:evenodd;stroke:rgb(0, 0, 0);stroke-width:3.0;" d="M 741.987, 272.078 L 728.492, 304.71 L 725.546, 302.601 L 740.014, 266.268 z "/>
<path style="fill:rgb(255, 255, 54);fill-opacity:1.0;fill-rule:evenodd;stroke:rgb(0, 0, 0);stroke-width:3.0;" d="M 639.012, 543.511 L 633.003, 552.986 L 622.907, 550.333 L 630.289, 540.595 z "/>
<path style="fill:rgb(243, 146, 12);fill-opacity:1.0;fill-rule:evenodd;stroke:rgb(0, 0, 0);stroke-width:3.0;" d="M 169.172, 481.863 L 145.74, 497.333 L 113.03, 514.043 L 145.682, 431.339 z "/>
<path style="fill:rgb(159, 255, 228);fill-opacity:1.0;fill-rule:evenodd;stroke:rgb(0, 0, 0);stroke-width:3.0;" d="M 372.931, 447.908 L 317.014, 426.241 L 317.54, 418.982 z "/>
<path style="fill:rgb(66, 88, 255);fill-opacity:1.0;fill-rule:evenodd;stroke:rgb(0, 0, 0);stroke-width:3.0;" d="M 760.262, 139.959 L 762.682, 141.978 L 744.077, 149.839 L 751.7, 136.182 z "/>
<path style="fill:rgb(255, 35, 40);fill-opacity:1.0;fill-rule:evenodd;stroke:rgb(0, 0, 0);stroke-width:3.0;" d="M 390.933, 454.883 L 372.931, 447.908 L 317.54, 418.982 L 317.738, 416.25 z "/>
</svg>