<?xml version="1.0" encoding="iso-8859-1" standalone="no"?>
<!DOCTYPE svg PUBLIC "-//W3C//DTD SVG 1.0//EN" "http://www.w3.org/TR/2001/REC-SVG-20010904/DTD/svg10.dtd">
<svg xmlns="http://www.w3.org/2000/svg" width="800" height="600">
<path style="fill:rgb(0, 0, 0);fill-opacity:0.0;fill-rule:evenodd;stroke:rgb(0, 0, 0);stroke-width:0.0;" d="M 0, 600 L 800, 600 L 800, 0 L 0, 0 z "/>
<path style="fill:rgb(255, 249, 33);fill-opacity:1.0;fill-rule:evenodd;stroke:rgb(0, 0, 0);stroke-width:3.0;" d="M 708.285, 459.846 L 478.753, 414.328 L 579.99, 354.132 L 718.491, 328.747 z "/>
<path style="fill:rgb(255, 228, 17);fill-opacity:1.0;fill-rule:evenodd;stroke:rgb(0, 0, 0);stroke-width:3.0;" d="M 19.6132, 279.777 L 8.45814, 357.986 L 9.41001, 279.656 z "/>
<path style="fill:rgb(255, 228, 17);fill-opacity:1.0;fill-rule:evenodd;stroke:rgb(0, 0, 0);stroke-width:3.0;" d="M 273.504, 109.72 L 266.514, 115.264 L 258.333, 107.177 L 266.735, 99.3072 z "/>
<path style="fill:rgb(255, 228, 17);fill-opacity:1.0;fill-rule:evenodd;stroke:rgb(0, 0, 0);stroke-width:3.0;" d="M 377.025, 78.7093 L 335.977, 103.703 L 335.69, 103.412 L 331.615, 72.1982 L 384.3, 67.2605 z "/>
<path style="fill:rgb(255, 59, 56);fill-opacity:1.0;fill-rule:evenodd;stroke:rgb(0, 0, 0);stroke-width:3.0;" d="M 214.493, 167.364 L 211.198, 154.223 L 227.88, 152.944 z "/>
<path style="fill:rgb(255, 59, 56);fill-opacity:1.0;fill-rule:evenodd;stroke:rgb(0, 0, 0);stroke-width:3.0;" d="M 217.784, 65.2505 L 208.441, 41.6991 L 219.502, 40.8151 z "/>
<path style="fill:rgb(9, 192, 142);fill-opacity:1.0;fill-rule:evenodd;stroke:rgb(0, 0, 0);stroke-width:3.0;" d="M 507.13, 84.6134 L 508.501, 88.4813 L 497.882, 91.7081 L 492.141, 76.3848 z "/>
<path style="fill:rgb(255, 255, 37);fill-opacity:1.0;fill-rule:evenodd;stroke:rgb(0, 0, 0);stroke-width:3.0;" d="M 94.3004, 345.024 L 13.5061, 427.735 L 29.6106, 395.161 L 77.1593, 353.887 L 92.4099, 344.404 z "/>
<path style="fill:rgb(255, 255, 37);fill-opacity:1.0;fill-rule:evenodd;stroke:rgb(0, 0, 0);stroke-width:3.0;" d="M 593.479, 346.112 L 478.753, 414.328 L 476.957, 413.971 L 581.339, 334.804 z "/>
<path style="fill:rgb(255, 255, 37);fill-opacity:1.0;fill-rule:evenodd;stroke:rgb(0, 0, 0);stroke-width:3.0;" d="M 685.126, 334.862 L 680.907, 335.635 L 647.127, 323.398 L 660.267, 312.791 L 663.219, 310.995 z "/>
<path style="fill:rgb(255, 255, 37);fill-opacity:1.0;fill-rule:evenodd;stroke:rgb(0, 0, 0);stroke-width:3.0;" d="M 192.256, 48.1726 L 119.229, 73.8272 L 70.2257, 52.7458 L 171.676, 44.6376 z "/>
<path style="fill:rgb(163, 255, 255);fill-opacity:1.0;fill-rule:evenodd;stroke:rgb(0, 0, 0);stroke-width:3.0;" d="M 273.926, 34.2675 L 272.568, 35.3004 L 233.97, 32.6008 L 263.726, 15.8633 z "/>
<path style="fill:rgb(163, 255, 255);fill-opacity:1.0;fill-rule:evenodd;stroke:rgb(0, 0, 0);stroke-width:3.0;" d="M 339.327, 12.4481 L 326.762, 24.9401 L 325.383, 23.6272 L 324.438, 15.3205 L 337.58, 8.70768 z "/>
<path style="fill:rgb(163, 255, 255);fill-opacity:1.0;fill-rule:evenodd;stroke:rgb(0, 0, 0);stroke-width:3.0;" d="M 738.058, 77.4096 L 726.596, 224.637 L 476.957, 413.971 L 181.616, 355.403 L 724.144, 71.2708 z "/>
<path style="fill:rgb(255, 22, 81);fill-opacity:1.0;fill-rule:evenodd;stroke:rgb(0, 0, 0);stroke-width:3.0;" d="M 724.545, 51.8858 L 623.868, 70.6549 L 655.41, 43.8383 L 706.997, 28.1618 z "/>
<path style="fill:rgb(255, 22, 81);fill-opacity:1.0;fill-rule:evenodd;stroke:rgb(0, 0, 0);stroke-width:3.0;" d="M 35.7017, 22.9992 L 41.898, 26.8002 L 39.5212, 28.6048 L 17.4159, 28.4892 L 15.1985, 22.8613 z "/>
<path style="fill:rgb(255, 22, 81);fill-opacity:1.0;fill-rule:evenodd;stroke:rgb(0, 0, 0);stroke-width:3.0;" d="M 281.081, 64.6421 L 245.439, 67.1542 L 244.991, 52.8251 L 258.25, 37.7182 L 276.638, 36.2485 z "/>
<path style="fill:rgb(10, 115, 255);fill-opacity:1.0;fill-rule:evenodd;stroke:rgb(0, 0, 0);stroke-width:3.0;" d="M 57.492, 280.227 L 62.2927, 309.927 L 53.5041, 316.703 L 50.8951, 280.149 z "/>
<path style="fill:rgb(10, 115, 255);fill-opacity:1.0;fill-rule:evenodd;stroke:rgb(0, 0, 0);stroke-width:3.0;" d="M 367.468, 113.631 L 376.395, 128.626 L 300.336, 151.739 L 274.992, 140.836 L 329.598, 107.587 z "/>
<path style="fill:rgb(121, 217, 255);fill-opacity:1.0;fill-rule:evenodd;stroke:rgb(0, 0, 0);stroke-width:3.0;" d="M 549.918, 162.517 L 495.248, 191.148 L 481.424, 188.006 L 523.533, 89.3602 L 543.964, 85.5513 z "/>
<path style="fill:rgb(121, 217, 255);fill-opacity:1.0;fill-rule:evenodd;stroke:rgb(0, 0, 0);stroke-width:3.0;" d="M 304.114, 285.563 L 267.586, 285.767 L 272.015, 281.525 L 306.841, 279.339 z "/>
<path style="fill:rgb(252, 69, 9);fill-opacity:1.0;fill-rule:evenodd;stroke:rgb(0, 0, 0);stroke-width:3.0;" d="M 283.664, 120.835 L 282.472, 123.028 L 271.863, 119.758 L 266.412, 115.344 L 269.132, 113.187 L 285.609, 109.983 z "/>
<path style="fill:rgb(252, 69, 9);fill-opacity:1.0;fill-rule:evenodd;stroke:rgb(0, 0, 0);stroke-width:3.0;" d="M 41.5553, 280.038 L 50.7756, 310.818 L 50.741, 340.096 L 42.7909, 333.443 L 33.7308, 321.281 L 27.2754, 279.868 z "/>
<path style="fill:rgb(255, 240, 16);fill-opacity:1.0;fill-rule:evenodd;stroke:rgb(0, 0, 0);stroke-width:3.0;" d="M 143.115, 367.612 L 137.854, 375.785 L 130.747, 362.344 L 142.971, 350.501 L 144.202, 350.093 z "/>
<path style="fill:rgb(234, 2, 255);fill-opacity:1.0;fill-rule:evenodd;stroke:rgb(0, 0, 0);stroke-width:3.0;" d="M 162.281, 29.2464 L 175.538, 34.8086 L 168.683, 39.2323 L 156.666, 36.1648 L 159.842, 29.2336 z "/>
<path style="fill:rgb(234, 2, 255);fill-opacity:1.0;fill-rule:evenodd;stroke:rgb(0, 0, 0);stroke-width:3.0;" d="M 332.943, 82.3679 L 333.187, 84.2404 L 316.451, 83.8991 L 312.029, 79.4142 L 317.407, 73.5297 L 321.084, 73.1852 z "/>
<path style="fill:rgb(243, 17, 11);fill-opacity:1.0;fill-rule:evenodd;stroke:rgb(0, 0, 0);stroke-width:3.0;" d="M 529.61, 79.6807 L 526.449, 81.9293 L 520.783, 76.8253 L 511.425, 61.0272 L 512.83, 58.5697 z "/>
<path style="fill:rgb(243, 17, 11);fill-opacity:1.0;fill-rule:evenodd;stroke:rgb(0, 0, 0);stroke-width:3.0;" d="M 326.45, 94.04 L 319.46, 97.7825 L 295.127, 99.7562 L 304.281, 82.9233 L 304.662, 82.8138 L 314.562, 81.983 z "/>
<path style="fill:rgb(243, 17, 11);fill-opacity:1.0;fill-rule:evenodd;stroke:rgb(0, 0, 0);stroke-width:3.0;" d="M 249.859, 319.663 L 234.804, 327.547 L 230.987, 321.365 L 253.959, 313.76 z "/>
<path style="fill:rgb(243, 17, 11);fill-opacity:1.0;fill-rule:evenodd;stroke:rgb(0, 0, 0);stroke-width:3.0;" d="M 155.302, 45.9462 L 151.767, 46.2287 L 139.87, 33.2482 L 152.476, 32.1603 z "/>
<path style="fill:rgb(215, 13, 7);fill-opacity:1.0;fill-rule:evenodd;stroke:rgb(0, 0, 0);stroke-width:3.0;" d="M 320.07, 245.244 L 314.805, 251.025 L 304.746, 254.443 L 304.262, 250.643 L 314.631, 240.714 z "/>
<path style="fill:rgb(20, 13, 252);fill-opacity:1.0;fill-rule:evenodd;stroke:rgb(0, 0, 0);stroke-width:3.0;" d="M 333.203, 256.179 L 328.357, 274.468 L 323.985, 277.874 L 328.288, 252.086 z "/>
<path style="fill:rgb(240, 43, 19);fill-opacity:1.0;fill-rule:evenodd;stroke:rgb(0, 0, 0);stroke-width:3.0;" d="M 298.665, 152.247 L 274.907, 159.466 L 265.181, 144.206 z "/>
<path style="fill:rgb(240, 43, 19);fill-opacity:1.0;fill-rule:evenodd;stroke:rgb(0, 0, 0);stroke-width:3.0;" d="M 171.803, 354 L 161.371, 366.006 L 158.922, 367.288 L 152.3, 362.156 L 153.687, 356.496 L 171.781, 353.339 z "/>
<path style="fill:rgb(240, 43, 19);fill-opacity:1.0;fill-rule:evenodd;stroke:rgb(0, 0, 0);stroke-width:3.0;" d="M 278.43, 105.813 L 280.937, 89.6323 L 281.693, 89.4151 L 299.336, 89.2328 z "/>
<path style="fill:rgb(240, 43, 19);fill-opacity:1.0;fill-rule:evenodd;stroke:rgb(0, 0, 0);stroke-width:3.0;" d="M 129.381, 382.759 L 117.928, 388.757 L 118.55, 374.162 L 123.308, 369.552 z "/>
<path style="fill:rgb(255, 0, 11);fill-opacity:1.0;fill-rule:evenodd;stroke:rgb(0, 0, 0);stroke-width:3.0;" d="M 750.309, 420.337 L 719.667, 425.051 L 729.843, 406.92 z "/>
<path style="fill:rgb(255, 0, 11);fill-opacity:1.0;fill-rule:evenodd;stroke:rgb(0, 0, 0);stroke-width:3.0;" d="M 723.141, 269.014 L 693.606, 286.576 L 673.177, 284.494 L 724.823, 247.417 z "/>
<path style="fill:rgb(255, 0, 11);fill-opacity:1.0;fill-rule:evenodd;stroke:rgb(0, 0, 0);stroke-width:3.0;" d="M 593.14, 561.023 L 562.666, 576.797 L 553.573, 575.129 L 588.184, 548.727 z "/>
<path style="fill:rgb(255, 0, 11);fill-opacity:1.0;fill-rule:evenodd;stroke:rgb(0, 0, 0);stroke-width:3.0;" d="M 728.388, 405.966 L 710.67, 429.202 L 713.252, 396.042 z "/>
<path style="fill:rgb(255, 255, 57);fill-opacity:1.0;fill-rule:evenodd;stroke:rgb(0, 0, 0);stroke-width:3.0;" d="M 704.778, 504.891 L 593.934, 553.353 L 602.586, 531.951 L 705.59, 494.457 z "/>
<path style="fill:rgb(255, 255, 57);fill-opacity:1.0;fill-rule:evenodd;stroke:rgb(0, 0, 0);stroke-width:3.0;" d="M 274.907, 159.466 L 254.855, 165.56 L 264.044, 142.422 z "/>
<path style="fill:rgb(25, 255, 246);fill-opacity:1.0;fill-rule:evenodd;stroke:rgb(0, 0, 0);stroke-width:3.0;" d="M 580.415, 51.7384 L 582.312, 58.9996 L 565.484, 64.4295 L 562.865, 57.155 L 572.659, 51.2305 z "/>
<path style="fill:rgb(25, 255, 246);fill-opacity:1.0;fill-rule:evenodd;stroke:rgb(0, 0, 0);stroke-width:3.0;" d="M 502.778, 56.1567 L 315.942, 73.667 L 303.092, 34.1342 L 554.049, 14.0768 z "/>
<path style="fill:rgb(25, 255, 246);fill-opacity:1.0;fill-rule:evenodd;stroke:rgb(0, 0, 0);stroke-width:3.0;" d="M 234.876, 174.302 L 192.901, 240.403 L 204.566, 192.759 L 218.63, 176.568 L 232.526, 172.345 z "/>
<path style="fill:rgb(25, 255, 246);fill-opacity:1.0;fill-rule:evenodd;stroke:rgb(0, 0, 0);stroke-width:3.0;" d="M 132.786, 335.072 L 120.924, 353.753 L 73.5632, 338.225 L 108.548, 327.171 z "/>
<path style="fill:rgb(255, 5, 207);fill-opacity:1.0;fill-rule:evenodd;stroke:rgb(0, 0, 0);stroke-width:3.0;" d="M 512.714, 58.7728 L 503.519, 69.2766 L 477.809, 69.0358 L 477.74, 69.0133 L 481.028, 63.6992 L 512.764, 58.686 z "/>
<path style="fill:rgb(255, 5, 207);fill-opacity:1.0;fill-rule:evenodd;stroke:rgb(0, 0, 0);stroke-width:3.0;" d="M 248.774, 80.3895 L 254.02, 84.9545 L 247.237, 87.6328 L 229.582, 89.1143 L 230.02, 87.8608 L 238.422, 80.9322 L 247.174, 80.112 z "/>
<path style="fill:rgb(255, 5, 207);fill-opacity:1.0;fill-rule:evenodd;stroke:rgb(0, 0, 0);stroke-width:3.0;" d="M 737.817, 100.684 L 736.251, 100.62 L 738.717, 68.9425 L 744.828, 65.3387 z "/>
<path style="fill:rgb(51, 123, 255);fill-opacity:1.0;fill-rule:evenodd;stroke:rgb(0, 0, 0);stroke-width:3.0;" d="M 92.4975, 28.8817 L 93.2225, 33.1936 L 59.5104, 40.1837 L 56.294, 40.4613 L 82.4448, 28.8291 z "/>
<path style="fill:rgb(51, 123, 255);fill-opacity:1.0;fill-rule:evenodd;stroke:rgb(0, 0, 0);stroke-width:3.0;" d="M 272.991, 206.04 L 314.631, 240.714 L 230.111, 321.655 L 223.229, 323.933 L 252.935, 202.009 z "/>
<path style="fill:rgb(51, 123, 255);fill-opacity:1.0;fill-rule:evenodd;stroke:rgb(0, 0, 0);stroke-width:3.0;" d="M 44.2351, 229.563 L 31.5118, 233.43 L 21.0815, 204.065 L 30.3909, 202.746 z "/>
<path style="fill:rgb(51, 123, 255);fill-opacity:1.0;fill-rule:evenodd;stroke:rgb(0, 0, 0);stroke-width:3.0;" d="M 282.977, 76.7566 L 266.512, 78.2997 L 272.021, 65.2807 L 281.081, 64.6421 z "/>
<path style="fill:rgb(255, 255, 74);fill-opacity:1.0;fill-rule:evenodd;stroke:rgb(0, 0, 0);stroke-width:3.0;" d="M 216.674, 176.064 L 203.209, 175.485 L 205.75, 154.64 L 211.198, 154.223 z "/>
<path style="fill:rgb(255, 255, 74);fill-opacity:1.0;fill-rule:evenodd;stroke:rgb(0, 0, 0);stroke-width:3.0;" d="M 235.88, 135.593 L 232.685, 152.576 L 213.732, 154.028 L 207.237, 142.447 L 208.116, 135.235 L 213.008, 132.11 z "/>
<path style="fill:rgb(255, 255, 74);fill-opacity:1.0;fill-rule:evenodd;stroke:rgb(0, 0, 0);stroke-width:3.0;" d="M 54.0023, 321.59 L 60.4189, 343.01 L 56.9299, 346.726 L 50.7384, 342.288 L 50.7642, 320.445 z "/>
<path style="fill:rgb(255, 255, 74);fill-opacity:1.0;fill-rule:evenodd;stroke:rgb(0, 0, 0);stroke-width:3.0;" d="M 597.623, 350.9 L 579.99, 354.132 L 635.97, 320.846 L 654.068, 316.562 z "/>
<path style="fill:rgb(50, 252, 204);fill-opacity:1.0;fill-rule:evenodd;stroke:rgb(0, 0, 0);stroke-width:3.0;" d="M 475.716, 201.378 L 469.731, 204.512 L 256.506, 192.313 L 232.526, 172.345 L 526.205, 83.1013 z "/>
<path style="fill:rgb(50, 252, 204);fill-opacity:1.0;fill-rule:evenodd;stroke:rgb(0, 0, 0);stroke-width:3.0;" d="M 588.184, 548.727 L 553.573, 575.129 L 507.291, 566.64 L 584.13, 538.67 z "/>
<path style="fill:rgb(50, 252, 204);fill-opacity:1.0;fill-rule:evenodd;stroke:rgb(0, 0, 0);stroke-width:3.0;" d="M 564.266, 155.002 L 549.918, 162.517 L 543.964, 85.5513 L 609.402, 73.3518 z "/>
<path style="fill:rgb(50, 252, 204);fill-opacity:1.0;fill-rule:evenodd;stroke:rgb(0, 0, 0);stroke-width:3.0;" d="M 771.215, 454.901 L 771.068, 457.663 L 724.191, 485.574 L 740.791, 453.094 z "/>
<path style="fill:rgb(34, 234, 115);fill-opacity:1.0;fill-rule:evenodd;stroke:rgb(0, 0, 0);stroke-width:3.0;" d="M 258.742, 133.845 L 249.942, 151.253 L 232.685, 152.576 L 237.895, 124.877 z "/>
<path style="fill:rgb(54, 27, 255);fill-opacity:1.0;fill-rule:evenodd;stroke:rgb(0, 0, 0);stroke-width:3.0;" d="M 337.58, 8.70768 L 310.623, 22.272 L 312.98, 14.4629 L 313.945, 13.6796 L 336.223, 5.8034 z "/>
<path style="fill:rgb(56, 72, 255);fill-opacity:1.0;fill-rule:evenodd;stroke:rgb(0, 0, 0);stroke-width:3.0;" d="M 46.5511, 338.491 L 47.7817, 340.143 L 40.1861, 362.694 L 35.2491, 331.022 z "/>
<path style="fill:rgb(255, 33, 13);fill-opacity:1.0;fill-rule:evenodd;stroke:rgb(0, 0, 0);stroke-width:3.0;" d="M 575.729, 68.052 L 546.088, 77.0594 L 556.112, 67.4533 L 566.041, 64.2496 z "/>
<path style="fill:rgb(255, 33, 13);fill-opacity:1.0;fill-rule:evenodd;stroke:rgb(0, 0, 0);stroke-width:3.0;" d="M 144.093, 253.89 L 118.682, 280.955 L 24.7973, 279.839 L 40.5116, 231.749 z "/>
<path style="fill:rgb(202, 255, 8);fill-opacity:1.0;fill-rule:evenodd;stroke:rgb(0, 0, 0);stroke-width:3.0;" d="M 637.363, 49.3224 L 630.316, 51.4638 L 601.029, 48.8932 L 602.543, 46.8065 L 641.091, 43.1939 z "/>
<path style="fill:rgb(255, 226, 61);fill-opacity:1.0;fill-rule:evenodd;stroke:rgb(0, 0, 0);stroke-width:3.0;" d="M 171.478, 224.722 L 144.093, 253.89 L 40.5116, 231.749 L 40.8942, 230.578 L 176.73, 189.301 z "/>
<path style="fill:rgb(255, 226, 61);fill-opacity:1.0;fill-rule:evenodd;stroke:rgb(0, 0, 0);stroke-width:3.0;" d="M 753.068, 115.933 L 752.15, 123.696 L 744.612, 144.509 L 737.798, 153.748 L 734.544, 122.546 L 735.134, 114.972 L 744.858, 100.489 z "/>
<path style="fill:rgb(255, 226, 61);fill-opacity:1.0;fill-rule:evenodd;stroke:rgb(0, 0, 0);stroke-width:3.0;" d="M 300.881, 292.942 L 283.107, 302.25 L 242.909, 309.399 L 243.195, 309.124 L 289.117, 285.647 L 304.114, 285.563 z "/>
<path style="fill:rgb(255, 252, 97);fill-opacity:1.0;fill-rule:evenodd;stroke:rgb(0, 0, 0);stroke-width:3.0;" d="M 243.195, 309.124 L 267.586, 285.767 L 289.117, 285.647 z "/>
<path style="fill:rgb(12, 134, 255);fill-opacity:1.0;fill-rule:evenodd;stroke:rgb(0, 0, 0);stroke-width:3.0;" d="M 724.823, 247.417 L 635.241, 311.728 L 592.976, 325.979 L 726.596, 224.637 z "/>
<path style="fill:rgb(12, 134, 255);fill-opacity:1.0;fill-rule:evenodd;stroke:rgb(0, 0, 0);stroke-width:3.0;" d="M 120.924, 353.753 L 93.0256, 397.687 L 88.2086, 399.776 L 74.3351, 385.208 L 115.506, 351.977 z "/>
<path style="fill:rgb(12, 134, 255);fill-opacity:1.0;fill-rule:evenodd;stroke:rgb(0, 0, 0);stroke-width:3.0;" d="M 138.552, 325.992 L 132.786, 335.072 L 108.548, 327.171 L 129.206, 320.643 z "/>
<path style="fill:rgb(12, 134, 255);fill-opacity:1.0;fill-rule:evenodd;stroke:rgb(0, 0, 0);stroke-width:3.0;" d="M 171.478, 224.722 L 176.73, 189.301 L 215.916, 177.393 z "/>
<path style="fill:rgb(12, 66, 255);fill-opacity:1.0;fill-rule:evenodd;stroke:rgb(0, 0, 0);stroke-width:3.0;" d="M 112.981, 26.7891 L 107.731, 28.9613 L 56.9468, 28.6958 L 101.573, 14.0334 L 110.033, 12.2485 z "/>
<path style="fill:rgb(12, 66, 255);fill-opacity:1.0;fill-rule:evenodd;stroke:rgb(0, 0, 0);stroke-width:3.0;" d="M 110.422, 382.208 L 108.824, 393.525 L 89.113, 403.849 L 102.235, 383.185 L 109.088, 379.874 z "/>
<path style="fill:rgb(252, 170, 184);fill-opacity:1.0;fill-rule:evenodd;stroke:rgb(0, 0, 0);stroke-width:3.0;" d="M 327.829, 95.4387 L 329.315, 107.759 L 327.638, 108.781 L 313.827, 100.799 L 326.45, 94.04 z "/>
<path style="fill:rgb(252, 170, 184);fill-opacity:1.0;fill-rule:evenodd;stroke:rgb(0, 0, 0);stroke-width:3.0;" d="M 315.942, 73.667 L 288.896, 76.2018 L 310.518, 56.9801 z "/>
<path style="fill:rgb(79, 194, 255);fill-opacity:1.0;fill-rule:evenodd;stroke:rgb(0, 0, 0);stroke-width:3.0;" d="M 93.5476, 280.656 L 63.2351, 315.757 L 57.492, 280.227 z "/>
<path style="fill:rgb(17, 112, 255);fill-opacity:1.0;fill-rule:evenodd;stroke:rgb(0, 0, 0);stroke-width:3.0;" d="M 682.85, 299.053 L 659.165, 313.461 L 656.949, 308.372 L 674.959, 297.663 z "/>
<path style="fill:rgb(28, 252, 22);fill-opacity:1.0;fill-rule:evenodd;stroke:rgb(0, 0, 0);stroke-width:3.0;" d="M 147.248, 46.5899 L 110.794, 49.5035 L 94.4854, 47.7421 L 92.6294, 37.3253 L 129.323, 34.1585 z "/>
<path style="fill:rgb(28, 252, 22);fill-opacity:1.0;fill-rule:evenodd;stroke:rgb(0, 0, 0);stroke-width:3.0;" d="M 17.4216, 383.434 L 12.736, 372.019 L 36.811, 351.564 z "/>
<path style="fill:rgb(28, 252, 22);fill-opacity:1.0;fill-rule:evenodd;stroke:rgb(0, 0, 0);stroke-width:3.0;" d="M 706.349, 321.604 L 697.897, 332.521 L 685.126, 334.862 L 684.05, 333.689 L 705.152, 319.118 z "/>
<path style="fill:rgb(28, 252, 22);fill-opacity:1.0;fill-rule:evenodd;stroke:rgb(0, 0, 0);stroke-width:3.0;" d="M 223.229, 323.933 L 210.544, 328.132 L 219.555, 294.456 L 231.533, 289.851 z "/>
<path style="fill:rgb(28, 252, 22);fill-opacity:1.0;fill-rule:evenodd;stroke:rgb(0, 0, 0);stroke-width:3.0;" d="M 210.544, 328.132 L 175.238, 339.819 L 193.813, 304.351 L 219.555, 294.456 z "/>
<path style="fill:rgb(28, 252, 22);fill-opacity:1.0;fill-rule:evenodd;stroke:rgb(0, 0, 0);stroke-width:3.0;" d="M 622.255, 329.001 L 613.538, 326.031 L 613.087, 325.016 L 644.739, 308.526 L 672.345, 299.218 z "/>
<path style="fill:rgb(28, 252, 22);fill-opacity:1.0;fill-rule:evenodd;stroke:rgb(0, 0, 0);stroke-width:3.0;" d="M 247.414, 9.08097 L 252.979, 21.9083 L 233.97, 32.6008 L 225.448, 32.0048 L 228.233, 5.82683 z "/>
<path style="fill:rgb(28, 252, 22);fill-opacity:1.0;fill-rule:evenodd;stroke:rgb(0, 0, 0);stroke-width:3.0;" d="M 303.154, 34.3235 L 286.731, 49.4365 L 281, 43.3411 L 285.288, 35.5572 L 303.092, 34.1342 z "/>
<path style="fill:rgb(7, 161, 255);fill-opacity:1.0;fill-rule:evenodd;stroke:rgb(0, 0, 0);stroke-width:3.0;" d="M 242.083, 50.581 L 222.664, 44.8865 L 220.002, 40.7751 L 233.474, 39.6984 z "/>
<path style="fill:rgb(7, 161, 255);fill-opacity:1.0;fill-rule:evenodd;stroke:rgb(0, 0, 0);stroke-width:3.0;" d="M 724.191, 485.574 L 705.411, 496.755 L 708.044, 462.938 L 736.284, 461.912 z "/>
<path style="fill:rgb(136, 255, 209);fill-opacity:1.0;fill-rule:evenodd;stroke:rgb(0, 0, 0);stroke-width:3.0;" d="M 740.791, 453.094 L 736.284, 461.912 L 708.044, 462.938 L 708.957, 451.203 z "/>
<path style="fill:rgb(255, 231, 32);fill-opacity:1.0;fill-rule:evenodd;stroke:rgb(0, 0, 0);stroke-width:3.0;" d="M 615.722, 330.946 L 588.802, 329.145 L 592.976, 325.979 L 610.839, 319.956 z "/>
<path style="fill:rgb(194, 9, 24);fill-opacity:1.0;fill-rule:evenodd;stroke:rgb(0, 0, 0);stroke-width:3.0;" d="M 66.4699, 23.6834 L 57.5357, 28.5024 L 56.9468, 28.6958 L 39.5212, 28.6048 L 62.908, 10.8488 z "/>
<path style="fill:rgb(194, 9, 24);fill-opacity:1.0;fill-rule:evenodd;stroke:rgb(0, 0, 0);stroke-width:3.0;" d="M 115.506, 351.977 L 19.2045, 429.707 L 5.97305, 435.446 L 94.3004, 345.024 z "/>
<path style="fill:rgb(194, 9, 24);fill-opacity:1.0;fill-rule:evenodd;stroke:rgb(0, 0, 0);stroke-width:3.0;" d="M 564.266, 155.002 L 609.402, 73.3518 L 781.396, 41.287 z "/>
<path style="fill:rgb(194, 9, 24);fill-opacity:1.0;fill-rule:evenodd;stroke:rgb(0, 0, 0);stroke-width:3.0;" d="M 617.594, 347.24 L 613.184, 348.048 L 647.457, 320.584 L 660.267, 312.791 z "/>
<path style="fill:rgb(194, 9, 24);fill-opacity:1.0;fill-rule:evenodd;stroke:rgb(0, 0, 0);stroke-width:3.0;" d="M 450.387, 22.3619 L 428.835, 24.0844 L 428.163, 23.1903 L 437.819, 17.3703 L 449.545, 16.8663 z "/>
<path style="fill:rgb(249, 76, 79);fill-opacity:1.0;fill-rule:evenodd;stroke:rgb(0, 0, 0);stroke-width:3.0;" d="M 171.781, 353.339 L 153.687, 356.496 L 154.617, 352.697 L 171.489, 344.491 z "/>
<path style="fill:rgb(255, 252, 37);fill-opacity:1.0;fill-rule:evenodd;stroke:rgb(0, 0, 0);stroke-width:3.0;" d="M 170.193, 341.489 L 118.586, 358.573 L 162.075, 299.019 z "/>
<path style="fill:rgb(255, 252, 148);fill-opacity:1.0;fill-rule:evenodd;stroke:rgb(0, 0, 0);stroke-width:3.0;" d="M 40.4354, 364.294 L 18.9557, 387.172 L 17.4216, 383.434 L 38.1167, 349.418 z "/>
<path style="fill:rgb(255, 243, 9);fill-opacity:1.0;fill-rule:evenodd;stroke:rgb(0, 0, 0);stroke-width:3.0;" d="M 162.075, 299.019 L 144.512, 323.069 L 142.59, 319.633 L 160.595, 291.279 z "/>
<path style="fill:rgb(134, 144, 255);fill-opacity:1.0;fill-rule:evenodd;stroke:rgb(0, 0, 0);stroke-width:3.0;" d="M 245.006, 161.016 L 230.713, 172.896 L 229.686, 173.208 L 214.567, 167.658 L 214.493, 167.364 L 227.88, 152.944 L 249.942, 151.253 z "/>
<path style="fill:rgb(246, 23, 189);fill-opacity:1.0;fill-rule:evenodd;stroke:rgb(0, 0, 0);stroke-width:3.0;" d="M 318.927, 114.085 L 297.193, 127.318 L 285.014, 124.582 L 286.021, 116.501 L 286.645, 115.353 L 312.828, 101.334 z "/>
<path style="fill:rgb(207, 0, 17);fill-opacity:1.0;fill-rule:evenodd;stroke:rgb(0, 0, 0);stroke-width:3.0;" d="M 197.326, 22.0192 L 195.875, 29.422 L 163.019, 29.2502 L 179.633, 14.5391 z "/>
<path style="fill:rgb(207, 0, 17);fill-opacity:1.0;fill-rule:evenodd;stroke:rgb(0, 0, 0);stroke-width:3.0;" d="M 79.7309, 46.1485 L 83.1845, 49.631 L 80.9151, 51.8915 L 70.2257, 52.7458 L 64.3301, 50.2096 L 64.0947, 44.4596 z "/>
<path style="fill:rgb(207, 0, 17);fill-opacity:1.0;fill-rule:evenodd;stroke:rgb(0, 0, 0);stroke-width:3.0;" d="M 766.962, 577.158 L 768.109, 564.778 L 790.769, 564.478 z "/>
<path style="fill:rgb(207, 0, 17);fill-opacity:1.0;fill-rule:evenodd;stroke:rgb(0, 0, 0);stroke-width:3.0;" d="M 254.545, 79.4212 L 237.81, 80.9896 L 256.663, 66.3631 L 266.126, 65.6961 z "/>
<path style="fill:rgb(207, 0, 17);fill-opacity:1.0;fill-rule:evenodd;stroke:rgb(0, 0, 0);stroke-width:3.0;" d="M 322.688, 196.1 L 336.499, 258.924 L 256.506, 192.313 z "/>
<path style="fill:rgb(98, 240, 246);fill-opacity:1.0;fill-rule:evenodd;stroke:rgb(0, 0, 0);stroke-width:3.0;" d="M 469.731, 204.512 L 347.826, 268.356 L 336.499, 258.924 L 322.688, 196.1 z "/>
<path style="fill:rgb(108, 249, 255);fill-opacity:1.0;fill-rule:evenodd;stroke:rgb(0, 0, 0);stroke-width:3.0;" d="M 92.4099, 344.404 L 58.3926, 365.556 L 51.2741, 352.75 L 66.9476, 336.056 z "/>
<path style="fill:rgb(255, 255, 15);fill-opacity:1.0;fill-rule:evenodd;stroke:rgb(0, 0, 0);stroke-width:3.0;" d="M 50.8951, 280.149 L 52.1447, 297.656 L 46.6431, 297.023 L 46.078, 295.136 L 43.3708, 280.06 z "/>
<path style="fill:rgb(49, 56, 255);fill-opacity:1.0;fill-rule:evenodd;stroke:rgb(0, 0, 0);stroke-width:3.0;" d="M 302.576, 22.9098 L 291.526, 31.8812 L 286.589, 34.3654 L 283.753, 28.984 L 296.225, 18.0512 L 300.547, 16.2465 z "/>
<path style="fill:rgb(49, 56, 255);fill-opacity:1.0;fill-rule:evenodd;stroke:rgb(0, 0, 0);stroke-width:3.0;" d="M 77.4051, 17.7851 L 66.4699, 23.6834 L 62.908, 10.8488 L 66.7367, 7.94189 z "/>
<path style="fill:rgb(59, 7, 255);fill-opacity:1.0;fill-rule:evenodd;stroke:rgb(0, 0, 0);stroke-width:3.0;" d="M 200.035, 52.5904 L 209.446, 83.6479 L 154.112, 88.8338 L 151.614, 87.759 L 149.964, 76.1172 L 160.385, 59.369 L 191.104, 48.5775 z "/>
<path style="fill:rgb(59, 7, 255);fill-opacity:1.0;fill-rule:evenodd;stroke:rgb(0, 0, 0);stroke-width:3.0;" d="M 361.4, 103.44 L 330.922, 106.781 L 354.751, 92.2716 z "/>
<path style="fill:rgb(255, 6, 19);fill-opacity:1.0;fill-rule:evenodd;stroke:rgb(0, 0, 0);stroke-width:3.0;" d="M 66.5798, 336.448 L 60.4189, 343.01 L 53.8062, 320.935 L 53.5041, 316.703 L 62.2927, 309.927 z "/>
<path style="fill:rgb(49, 37, 220);fill-opacity:1.0;fill-rule:evenodd;stroke:rgb(0, 0, 0);stroke-width:3.0;" d="M 88.2083, 313.412 L 76.6067, 325.768 L 65.8774, 332.103 L 65.8128, 331.703 L 88.5436, 307.026 L 94.7754, 304.245 z "/>
<path style="fill:rgb(49, 37, 220);fill-opacity:1.0;fill-rule:evenodd;stroke:rgb(0, 0, 0);stroke-width:3.0;" d="M 29.6106, 395.161 L 37.969, 378.255 L 77.1593, 353.887 z "/>
<path style="fill:rgb(255, 255, 9);fill-opacity:1.0;fill-rule:evenodd;stroke:rgb(0, 0, 0);stroke-width:3.0;" d="M 263.569, 141.676 L 255.509, 152.057 L 250.909, 149.34 L 258.669, 133.989 z "/>
<path style="fill:rgb(67, 252, 255);fill-opacity:1.0;fill-rule:evenodd;stroke:rgb(0, 0, 0);stroke-width:3.0;" d="M 255.074, 111.089 L 253.68, 112.052 L 244.559, 107.187 L 263.676, 94.9566 z "/>
<path style="fill:rgb(67, 252, 255);fill-opacity:1.0;fill-rule:evenodd;stroke:rgb(0, 0, 0);stroke-width:3.0;" d="M 706.747, 318.016 L 684.05, 333.689 L 663.219, 310.995 L 686.218, 297.004 z "/>
<path style="fill:rgb(204, 21, 37);fill-opacity:1.0;fill-rule:evenodd;stroke:rgb(0, 0, 0);stroke-width:3.0;" d="M 112.624, 280.883 L 77.7309, 318.764 L 97.489, 280.703 z "/>
<path style="fill:rgb(255, 255, 86);fill-opacity:1.0;fill-rule:evenodd;stroke:rgb(0, 0, 0);stroke-width:3.0;" d="M 593.934, 553.353 L 590.631, 554.797 L 584.13, 538.67 L 602.586, 531.951 z "/>
<path style="fill:rgb(255, 255, 86);fill-opacity:1.0;fill-rule:evenodd;stroke:rgb(0, 0, 0);stroke-width:3.0;" d="M 97.489, 280.703 L 77.7309, 318.764 L 65.8128, 331.703 L 63.2351, 315.757 L 93.5476, 280.656 z "/>
<path style="fill:rgb(212, 1, 255);fill-opacity:1.0;fill-rule:evenodd;stroke:rgb(0, 0, 0);stroke-width:3.0;" d="M 618.654, 331.142 L 593.479, 346.112 L 581.339, 334.804 L 588.802, 329.145 z "/>
<path style="fill:rgb(20, 231, 255);fill-opacity:1.0;fill-rule:evenodd;stroke:rgb(0, 0, 0);stroke-width:3.0;" d="M 434.536, 110.958 L 376.395, 128.626 L 354.751, 92.2716 L 397.925, 65.9835 L 440.786, 61.9665 z "/>
<path style="fill:rgb(20, 231, 255);fill-opacity:1.0;fill-rule:evenodd;stroke:rgb(0, 0, 0);stroke-width:3.0;" d="M 237.895, 124.877 L 235.88, 135.593 L 213.008, 132.11 L 229.789, 121.39 z "/>
<path style="fill:rgb(255, 22, 8);fill-opacity:1.0;fill-rule:evenodd;stroke:rgb(0, 0, 0);stroke-width:3.0;" d="M 70.0409, 413.837 L 30.0129, 434.8 L 20.2455, 433.543 L 19.6609, 432.642 L 29.7038, 425.153 L 69.0609, 408.082 z "/>
<path style="fill:rgb(14, 3, 182);fill-opacity:1.0;fill-rule:evenodd;stroke:rgb(0, 0, 0);stroke-width:3.0;" d="M 292.34, 269.077 L 291.19, 274.927 L 280.865, 280.969 L 280.229, 281.009 L 278.884, 274.947 L 286.399, 267.751 z "/>
<path style="fill:rgb(215, 255, 52);fill-opacity:1.0;fill-rule:evenodd;stroke:rgb(0, 0, 0);stroke-width:3.0;" d="M 363.109, 20.8142 L 362.367, 29.3968 L 353.876, 30.0754 L 342.398, 19.0195 L 341.399, 16.8804 z "/>
<path style="fill:rgb(215, 255, 52);fill-opacity:1.0;fill-rule:evenodd;stroke:rgb(0, 0, 0);stroke-width:3.0;" d="M 309.083, 103.339 L 286.645, 115.353 L 295.127, 99.7562 L 298.91, 99.4494 z "/>
<path style="fill:rgb(215, 255, 52);fill-opacity:1.0;fill-rule:evenodd;stroke:rgb(0, 0, 0);stroke-width:3.0;" d="M 772.283, 434.744 L 771.215, 454.901 L 708.957, 451.203 L 709.597, 442.993 L 719.667, 425.051 L 750.309, 420.337 z "/>
<path style="fill:rgb(12, 69, 237);fill-opacity:1.0;fill-rule:evenodd;stroke:rgb(0, 0, 0);stroke-width:3.0;" d="M 253.707, 189.983 L 205.391, 282.243 L 169.757, 276.851 L 234.876, 174.302 z "/>
<path style="fill:rgb(12, 69, 237);fill-opacity:1.0;fill-rule:evenodd;stroke:rgb(0, 0, 0);stroke-width:3.0;" d="M 141.963, 73.7254 L 141.779, 74.308 L 131.273, 79.0082 L 126.201, 76.8264 L 126.453, 71.2896 L 137.623, 67.3653 z "/>
<path style="fill:rgb(12, 69, 237);fill-opacity:1.0;fill-rule:evenodd;stroke:rgb(0, 0, 0);stroke-width:3.0;" d="M 491.015, 73.3807 L 497.882, 91.7081 L 434.536, 110.958 L 440.786, 61.9665 L 452.877, 60.8334 z "/>
<path style="fill:rgb(255, 161, 10);fill-opacity:1.0;fill-rule:evenodd;stroke:rgb(0, 0, 0);stroke-width:3.0;" d="M 552.974, 63.0601 L 541.55, 71.1867 L 537.339, 61.9876 L 549.86, 57.3972 z "/>
<path style="fill:rgb(54, 8, 255);fill-opacity:1.0;fill-rule:evenodd;stroke:rgb(0, 0, 0);stroke-width:3.0;" d="M 766.298, 547.684 L 746.44, 543.53 L 768.143, 512.872 z "/>
<path style="fill:rgb(54, 8, 255);fill-opacity:1.0;fill-rule:evenodd;stroke:rgb(0, 0, 0);stroke-width:3.0;" d="M 344.83, 24.225 L 327.913, 26.0362 L 326.762, 24.9401 L 339.327, 12.4481 z "/>
<path style="fill:rgb(54, 8, 255);fill-opacity:1.0;fill-rule:evenodd;stroke:rgb(0, 0, 0);stroke-width:3.0;" d="M 623.868, 70.6549 L 523.533, 89.3602 L 526.205, 83.1013 L 572.825, 68.9345 L 628.175, 66.9931 z "/>
<path style="fill:rgb(209, 5, 100);fill-opacity:1.0;fill-rule:evenodd;stroke:rgb(0, 0, 0);stroke-width:3.0;" d="M 628.175, 66.9931 L 572.825, 68.9345 L 655.41, 43.8383 z "/>
<path style="fill:rgb(231, 54, 58);fill-opacity:1.0;fill-rule:evenodd;stroke:rgb(0, 0, 0);stroke-width:3.0;" d="M 88.2086, 399.776 L 57.8473, 412.946 L 49.8598, 404.964 L 74.3351, 385.208 z "/>
<path style="fill:rgb(255, 29, 65);fill-opacity:1.0;fill-rule:evenodd;stroke:rgb(0, 0, 0);stroke-width:3.0;" d="M 305.958, 61.034 L 288.896, 76.2018 L 282.977, 76.7566 L 279.712, 55.8947 L 284.609, 51.3887 L 301.662, 48.5427 z "/>
<path style="fill:rgb(52, 46, 226);fill-opacity:1.0;fill-rule:evenodd;stroke:rgb(0, 0, 0);stroke-width:3.0;" d="M 124.132, 285.36 L 79.9722, 336.2 L 73.5632, 338.225 L 66.9476, 336.056 L 121.047, 278.436 z "/>
<path style="fill:rgb(52, 46, 226);fill-opacity:1.0;fill-rule:evenodd;stroke:rgb(0, 0, 0);stroke-width:3.0;" d="M 27.2754, 279.868 L 37.7061, 346.784 L 8.27593, 372.979 L 8.45814, 357.986 L 19.6132, 279.777 z "/>
<path style="fill:rgb(52, 207, 255);fill-opacity:1.0;fill-rule:evenodd;stroke:rgb(0, 0, 0);stroke-width:3.0;" d="M 541.956, 52.4849 L 502.778, 56.1567 L 516.797, 44.6508 z "/>
<path style="fill:rgb(52, 207, 255);fill-opacity:1.0;fill-rule:evenodd;stroke:rgb(0, 0, 0);stroke-width:3.0;" d="M 722.213, 280.933 L 721.854, 285.552 L 710.793, 297.617 L 709.208, 277.299 L 714.317, 274.261 z "/>
<path style="fill:rgb(240, 61, 21);fill-opacity:1.0;fill-rule:evenodd;stroke:rgb(0, 0, 0);stroke-width:3.0;" d="M 219.939, 327.903 L 224.294, 333.052 L 202.849, 344.283 L 211.609, 327.78 L 212.712, 327.414 z "/>
<path style="fill:rgb(255, 121, 7);fill-opacity:1.0;fill-rule:evenodd;stroke:rgb(0, 0, 0);stroke-width:3.0;" d="M 124.132, 285.36 L 121.047, 278.436 L 215.916, 177.393 L 218.63, 176.568 z "/>
<path style="fill:rgb(65, 4, 249);fill-opacity:1.0;fill-rule:evenodd;stroke:rgb(0, 0, 0);stroke-width:3.0;" d="M 231.533, 289.851 L 193.813, 304.351 L 216.546, 260.942 L 241.842, 247.539 z "/>
<path style="fill:rgb(255, 52, 11);fill-opacity:1.0;fill-rule:evenodd;stroke:rgb(0, 0, 0);stroke-width:3.0;" d="M 255.501, 191.476 L 241.842, 247.539 L 216.546, 260.942 L 253.707, 189.983 z "/>
<path style="fill:rgb(255, 255, 89);fill-opacity:1.0;fill-rule:evenodd;stroke:rgb(0, 0, 0);stroke-width:3.0;" d="M 278.43, 105.813 L 273.504, 109.72 L 266.735, 99.3072 L 275.35, 91.2382 L 280.937, 89.6323 z "/>
<path style="fill:rgb(255, 0, 11);fill-opacity:1.0;fill-rule:evenodd;stroke:rgb(0, 0, 0);stroke-width:3.0;" d="M 51.1673, 415.843 L 19.2045, 429.707 L 44.0471, 409.655 z "/>
<path style="fill:rgb(243, 255, 51);fill-opacity:1.0;fill-rule:evenodd;stroke:rgb(0, 0, 0);stroke-width:3.0;" d="M 205.391, 282.243 L 175.238, 339.819 L 170.193, 341.489 L 160.595, 291.279 L 169.757, 276.851 z "/>
<path style="fill:rgb(13, 240, 85);fill-opacity:1.0;fill-rule:evenodd;stroke:rgb(0, 0, 0);stroke-width:3.0;" d="M 257.463, 38.6141 L 242.107, 50.5881 L 242.083, 50.581 L 233.474, 39.6984 L 258.25, 37.7182 z "/>
<path style="fill:rgb(13, 240, 85);fill-opacity:1.0;fill-rule:evenodd;stroke:rgb(0, 0, 0);stroke-width:3.0;" d="M 270.246, 308.321 L 239.944, 315.126 L 240.025, 312.161 L 242.909, 309.399 L 257.394, 306.823 z "/>
<path style="fill:rgb(79, 212, 255);fill-opacity:1.0;fill-rule:evenodd;stroke:rgb(0, 0, 0);stroke-width:3.0;" d="M 58.3926, 365.556 L 25.2441, 386.168 L 21.6101, 384.344 L 51.2741, 352.75 z "/>
<path style="fill:rgb(255, 192, 46);fill-opacity:1.0;fill-rule:evenodd;stroke:rgb(0, 0, 0);stroke-width:3.0;" d="M 625.006, 44.7013 L 541.956, 52.4849 L 516.797, 44.6508 L 554.049, 14.0768 L 567.658, 12.9891 z "/>
<path style="fill:rgb(246, 243, 114);fill-opacity:1.0;fill-rule:evenodd;stroke:rgb(0, 0, 0);stroke-width:3.0;" d="M 192.901, 240.403 L 145.147, 315.606 L 79.9722, 336.2 L 204.566, 192.759 z "/>
<path style="fill:rgb(67, 3, 204);fill-opacity:1.0;fill-rule:evenodd;stroke:rgb(0, 0, 0);stroke-width:3.0;" d="M 751.044, 91.2742 L 740.802, 106.529 L 739.332, 93.0499 L 742.114, 79.0206 z "/>
<path style="fill:rgb(255, 59, 138);fill-opacity:1.0;fill-rule:evenodd;stroke:rgb(0, 0, 0);stroke-width:3.0;" d="M 253.68, 112.052 L 236.307, 124.051 L 235.791, 123.972 L 232.007, 122.344 L 230.573, 119.88 L 232.508, 114.897 L 244.559, 107.187 z "/>
<path style="fill:rgb(207, 30, 194);fill-opacity:1.0;fill-rule:evenodd;stroke:rgb(0, 0, 0);stroke-width:3.0;" d="M 602.44, 584.093 L 562.666, 576.797 L 593.14, 561.023 z "/>
<path style="fill:rgb(16, 60, 249);fill-opacity:1.0;fill-rule:evenodd;stroke:rgb(0, 0, 0);stroke-width:3.0;" d="M 693.606, 286.576 L 672.345, 299.218 L 635.241, 311.728 L 641.84, 306.99 L 689.351, 286.142 z "/>
<path style="fill:rgb(20, 15, 170);fill-opacity:1.0;fill-rule:evenodd;stroke:rgb(0, 0, 0);stroke-width:3.0;" d="M 689.351, 286.142 L 641.84, 306.99 L 673.177, 284.494 z "/>
<path style="fill:rgb(124, 138, 255);fill-opacity:1.0;fill-rule:evenodd;stroke:rgb(0, 0, 0);stroke-width:3.0;" d="M 711.406, 305.471 L 712.279, 316.662 L 708.697, 320.012 L 683.66, 294.385 z "/>
<path style="fill:rgb(12, 243, 255);fill-opacity:1.0;fill-rule:evenodd;stroke:rgb(0, 0, 0);stroke-width:3.0;" d="M 711.406, 305.471 L 683.66, 294.385 L 682.488, 293.186 L 709.208, 277.299 z "/>
<path style="fill:rgb(136, 194, 234);fill-opacity:1.0;fill-rule:evenodd;stroke:rgb(0, 0, 0);stroke-width:3.0;" d="M 495.248, 191.148 L 475.716, 201.378 L 481.424, 188.006 z "/>
<path style="fill:rgb(9, 0, 19);fill-opacity:1.0;fill-rule:evenodd;stroke:rgb(0, 0, 0);stroke-width:3.0;" d="M 680.907, 335.635 L 617.594, 347.24 L 647.127, 323.398 z "/>
<path style="fill:rgb(249, 184, 255);fill-opacity:1.0;fill-rule:evenodd;stroke:rgb(0, 0, 0);stroke-width:3.0;" d="M 303.722, 9.51879 L 304.324, 11.1412 L 296.161, 17.3515 L 273.503, 13.5074 L 272.029, 8.54423 z "/>
</svg>