<?xml version="1.0" encoding="iso-8859-1" standalone="no"?>
<!DOCTYPE svg PUBLIC "-//W3C//DTD SVG 1.0//EN" "http://www.w3.org/TR/2001/REC-SVG-20010904/DTD/svg10.dtd">
<svg xmlns="http://www.w3.org/2000/svg" width="800" height="600">
<path style="fill:rgb(0, 0, 0);fill-opacity:0.0;fill-rule:evenodd;stroke:rgb(0, 0, 0);stroke-width:0.0;" d="M 0, 600 L 800, 600 L 800, 0 L 0, 0 z "/>
<path style="fill:rgb(168, 209, 8);fill-opacity:1.0;fill-rule:evenodd;stroke:rgb(0, 0, 0);stroke-width:3.0;" d="M 173.234, 446.327 L 161.191, 419.457 L 174.657, 415.054 z "/>
<path style="fill:rgb(168, 209, 8);fill-opacity:1.0;fill-rule:evenodd;stroke:rgb(0, 0, 0);stroke-width:3.0;" d="M 18.7003, 407.095 L 22.5642, 457.418 L 7.33181, 448.11 L 17.7437, 406.494 z "/>
<path style="fill:rgb(168, 209, 8);fill-opacity:1.0;fill-rule:evenodd;stroke:rgb(0, 0, 0);stroke-width:3.0;" d="M 715.619, 380.031 L 775.352, 448.26 L 770.909, 447.298 L 702.058, 368.464 z "/>
<path style="fill:rgb(168, 209, 8);fill-opacity:1.0;fill-rule:evenodd;stroke:rgb(0, 0, 0);stroke-width:3.0;" d="M 118.782, 204.345 L 129.092, 219.201 L 155.977, 334.41 L 89.0311, 258.449 L 71.7468, 219.883 L 78.1672, 191.227 z "/>
<path style="fill:rgb(168, 209, 8);fill-opacity:1.0;fill-rule:evenodd;stroke:rgb(0, 0, 0);stroke-width:3.0;" d="M 444.838, 449.617 L 447.202, 452.4 L 397.478, 436.888 L 385.785, 431.52 L 385.509, 428.709 z "/>
<path style="fill:rgb(168, 209, 8);fill-opacity:1.0;fill-rule:evenodd;stroke:rgb(0, 0, 0);stroke-width:3.0;" d="M 475.099, 362.964 L 472.161, 380.512 L 466.991, 381.427 L 469.868, 360.547 z "/>
<path style="fill:rgb(168, 209, 8);fill-opacity:1.0;fill-rule:evenodd;stroke:rgb(0, 0, 0);stroke-width:3.0;" d="M 271.67, 386.261 L 238.005, 413.974 L 270.415, 370.373 z "/>
<path style="fill:rgb(168, 209, 8);fill-opacity:1.0;fill-rule:evenodd;stroke:rgb(0, 0, 0);stroke-width:3.0;" d="M 678.633, 348.482 L 634.006, 373.343 L 629.34, 372.367 L 674.537, 345.59 L 675.233, 345.582 z "/>
<path style="fill:rgb(168, 209, 8);fill-opacity:1.0;fill-rule:evenodd;stroke:rgb(0, 0, 0);stroke-width:3.0;" d="M 60.6402, 120.561 L 50.1766, 122.97 L 16.0308, 95.5663 L 9.75225, 81.5573 L 7.64879, 44.1993 z "/>
<path style="fill:rgb(55, 243, 246);fill-opacity:1.0;fill-rule:evenodd;stroke:rgb(0, 0, 0);stroke-width:3.0;" d="M 686.972, 366.391 L 682.583, 383.494 L 669.662, 380.794 L 677.874, 362.92 z "/>
<path style="fill:rgb(55, 243, 246);fill-opacity:1.0;fill-rule:evenodd;stroke:rgb(0, 0, 0);stroke-width:3.0;" d="M 191.719, 487.571 L 194.239, 498.37 L 71.4595, 509.301 L 49.4602, 382.359 L 94.4414, 298.415 L 105.722, 295.69 z "/>
<path style="fill:rgb(55, 243, 246);fill-opacity:1.0;fill-rule:evenodd;stroke:rgb(0, 0, 0);stroke-width:3.0;" d="M 281.363, 508.898 L 281.662, 512.676 L 270.268, 516.802 L 266.368, 505.59 L 260.605, 487.128 L 262.937, 485.841 z "/>
<path style="fill:rgb(55, 243, 246);fill-opacity:1.0;fill-rule:evenodd;stroke:rgb(0, 0, 0);stroke-width:3.0;" d="M 277.543, 460.563 L 274.459, 465.267 L 258.131, 456.236 L 276.4, 446.098 z "/>
<path style="fill:rgb(55, 243, 246);fill-opacity:1.0;fill-rule:evenodd;stroke:rgb(0, 0, 0);stroke-width:3.0;" d="M 629.34, 372.367 L 626.984, 371.875 L 633.24, 357.747 L 663.227, 345.727 L 674.537, 345.59 z "/>
<path style="fill:rgb(55, 243, 246);fill-opacity:1.0;fill-rule:evenodd;stroke:rgb(0, 0, 0);stroke-width:3.0;" d="M 671.109, 181.711 L 554.466, 581.424 L 449.305, 289.667 L 514.155, 127.264 z "/>
<path style="fill:rgb(243, 246, 14);fill-opacity:1.0;fill-rule:evenodd;stroke:rgb(0, 0, 0);stroke-width:3.0;" d="M 71.7468, 219.883 L 59.3432, 192.208 L 55.9548, 181.674 L 81.9316, 174.425 z "/>
<path style="fill:rgb(243, 246, 14);fill-opacity:1.0;fill-rule:evenodd;stroke:rgb(0, 0, 0);stroke-width:3.0;" d="M 749.357, 264.913 L 758.338, 301.816 L 749.426, 296.975 L 745.245, 263.614 z "/>
<path style="fill:rgb(243, 246, 14);fill-opacity:1.0;fill-rule:evenodd;stroke:rgb(0, 0, 0);stroke-width:3.0;" d="M 515.658, 473.756 L 525.137, 500.053 L 367.717, 586.448 L 371.208, 428.692 z "/>
<path style="fill:rgb(255, 11, 64);fill-opacity:1.0;fill-rule:evenodd;stroke:rgb(0, 0, 0);stroke-width:3.0;" d="M 713.382, 172.053 L 713.426, 179.402 L 688.332, 174.088 L 701.311, 163.745 z "/>
<path style="fill:rgb(255, 138, 207);fill-opacity:1.0;fill-rule:evenodd;stroke:rgb(0, 0, 0);stroke-width:3.0;" d="M 216.642, 458.167 L 234.112, 503.742 L 243.058, 579.337 L 208.872, 561.078 L 179.518, 435.29 z "/>
<path style="fill:rgb(255, 138, 207);fill-opacity:1.0;fill-rule:evenodd;stroke:rgb(0, 0, 0);stroke-width:3.0;" d="M 99.7079, 270.563 L 163.803, 391.199 L 140.316, 372.88 L 89.0311, 258.449 z "/>
<path style="fill:rgb(255, 138, 207);fill-opacity:1.0;fill-rule:evenodd;stroke:rgb(0, 0, 0);stroke-width:3.0;" d="M 735.273, 184.028 L 736.27, 191.989 L 718.253, 187.709 L 718.594, 186.648 L 726.468, 182.164 z "/>
<path style="fill:rgb(255, 138, 207);fill-opacity:1.0;fill-rule:evenodd;stroke:rgb(0, 0, 0);stroke-width:3.0;" d="M 688.001, 174.352 L 668.789, 189.663 L 676.2, 164.264 z "/>
<path style="fill:rgb(49, 66, 187);fill-opacity:1.0;fill-rule:evenodd;stroke:rgb(0, 0, 0);stroke-width:3.0;" d="M 373.136, 78.3444 L 453.342, 300.866 L 257.741, 159.422 L 270.857, 42.864 z "/>
<path style="fill:rgb(255, 5, 10);fill-opacity:1.0;fill-rule:evenodd;stroke:rgb(0, 0, 0);stroke-width:3.0;" d="M 696.434, 227.997 L 714.083, 265.935 L 706.197, 269.963 L 691.384, 235.855 L 694.513, 227.835 z "/>
<path style="fill:rgb(255, 5, 10);fill-opacity:1.0;fill-rule:evenodd;stroke:rgb(0, 0, 0);stroke-width:3.0;" d="M 223.512, 422.19 L 200.199, 415.269 L 197.14, 407.287 L 196.796, 403.362 z "/>
<path style="fill:rgb(255, 5, 10);fill-opacity:1.0;fill-rule:evenodd;stroke:rgb(0, 0, 0);stroke-width:3.0;" d="M 270.857, 42.864 L 257.741, 159.422 L 232.12, 140.895 L 209.841, 47.413 L 238.422, 31.6124 z "/>
<path style="fill:rgb(249, 1, 14);fill-opacity:1.0;fill-rule:evenodd;stroke:rgb(0, 0, 0);stroke-width:3.0;" d="M 685.177, 384.036 L 691.245, 394.049 L 675.631, 397.709 L 673.818, 390.509 L 678.04, 382.545 z "/>
<path style="fill:rgb(249, 1, 14);fill-opacity:1.0;fill-rule:evenodd;stroke:rgb(0, 0, 0);stroke-width:3.0;" d="M 488.137, 397.401 L 505.09, 444.435 L 371.972, 394.185 L 372.707, 360.942 z "/>
<path style="fill:rgb(255, 6, 38);fill-opacity:1.0;fill-rule:evenodd;stroke:rgb(0, 0, 0);stroke-width:3.0;" d="M 722.729, 406.072 L 732.029, 422.765 L 728.467, 427.417 L 717.486, 418.713 L 714.531, 405.594 z "/>
<path style="fill:rgb(255, 6, 38);fill-opacity:1.0;fill-rule:evenodd;stroke:rgb(0, 0, 0);stroke-width:3.0;" d="M 285.433, 560.399 L 285.876, 565.993 L 264.462, 576.604 L 268.934, 562.274 L 274.761, 556.062 L 281.808, 549.977 z "/>
<path style="fill:rgb(255, 6, 38);fill-opacity:1.0;fill-rule:evenodd;stroke:rgb(0, 0, 0);stroke-width:3.0;" d="M 69.9422, 82.1859 L 33.3788, 70.4618 L 54.3917, 64.7592 z "/>
<path style="fill:rgb(255, 6, 38);fill-opacity:1.0;fill-rule:evenodd;stroke:rgb(0, 0, 0);stroke-width:3.0;" d="M 252.464, 520.911 L 240.684, 520.888 L 233.283, 501.58 z "/>
<path style="fill:rgb(69, 38, 223);fill-opacity:1.0;fill-rule:evenodd;stroke:rgb(0, 0, 0);stroke-width:3.0;" d="M 238.134, 424.425 L 238.951, 426.772 L 227.823, 423.469 L 193.738, 398.411 L 186.72, 380.104 z "/>
<path style="fill:rgb(69, 38, 223);fill-opacity:1.0;fill-rule:evenodd;stroke:rgb(0, 0, 0);stroke-width:3.0;" d="M 529.7, 512.714 L 476.424, 526.787 L 525.137, 500.053 z "/>
<path style="fill:rgb(69, 38, 223);fill-opacity:1.0;fill-rule:evenodd;stroke:rgb(0, 0, 0);stroke-width:3.0;" d="M 734.311, 176.355 L 735.273, 184.028 L 728.781, 182.653 L 711.652, 170.863 L 731.34, 170.016 z "/>
<path style="fill:rgb(69, 38, 223);fill-opacity:1.0;fill-rule:evenodd;stroke:rgb(0, 0, 0);stroke-width:3.0;" d="M 773.27, 412.697 L 769.692, 416.165 L 746.661, 363.136 L 748.884, 349.845 z "/>
<path style="fill:rgb(69, 38, 223);fill-opacity:1.0;fill-rule:evenodd;stroke:rgb(0, 0, 0);stroke-width:3.0;" d="M 427.16, 97.0854 L 443.18, 110.682 L 432.406, 126.608 L 389.434, 123.561 L 373.136, 78.3444 z "/>
<path style="fill:rgb(69, 38, 223);fill-opacity:1.0;fill-rule:evenodd;stroke:rgb(0, 0, 0);stroke-width:3.0;" d="M 240.836, 265.925 L 310.566, 286.951 L 354.812, 307.392 L 363.397, 358.002 L 145.416, 289.152 L 135.391, 246.193 z "/>
<path style="fill:rgb(231, 57, 25);fill-opacity:1.0;fill-rule:evenodd;stroke:rgb(0, 0, 0);stroke-width:3.0;" d="M 196.715, 305.355 L 236.381, 419.384 L 178.312, 358.168 L 157.516, 303.913 L 181.918, 300.681 z "/>
<path style="fill:rgb(255, 231, 23);fill-opacity:1.0;fill-rule:evenodd;stroke:rgb(0, 0, 0);stroke-width:3.0;" d="M 704.289, 432.864 L 685.824, 428.864 L 684.234, 421.871 L 698.563, 421.871 z "/>
<path style="fill:rgb(255, 30, 182);fill-opacity:1.0;fill-rule:evenodd;stroke:rgb(0, 0, 0);stroke-width:3.0;" d="M 193.13, 426.245 L 192.954, 443.569 L 179.518, 435.29 L 177.914, 428.414 L 192.881, 422.506 z "/>
<path style="fill:rgb(255, 30, 182);fill-opacity:1.0;fill-rule:evenodd;stroke:rgb(0, 0, 0);stroke-width:3.0;" d="M 699.472, 335.733 L 703.236, 347.401 L 684.75, 344.265 L 684.609, 317.276 z "/>
<path style="fill:rgb(255, 30, 182);fill-opacity:1.0;fill-rule:evenodd;stroke:rgb(0, 0, 0);stroke-width:3.0;" d="M 121.356, 186.051 L 124.331, 198.801 L 115.691, 199.89 L 107.323, 187.832 L 107.291, 185.731 L 109.192, 180.043 L 112.166, 178.735 z "/>
<path style="fill:rgb(255, 30, 182);fill-opacity:1.0;fill-rule:evenodd;stroke:rgb(0, 0, 0);stroke-width:3.0;" d="M 242.682, 386.719 L 237.408, 391.395 L 210.211, 335.811 L 228.485, 323.548 z "/>
<path style="fill:rgb(255, 30, 182);fill-opacity:1.0;fill-rule:evenodd;stroke:rgb(0, 0, 0);stroke-width:3.0;" d="M 785.013, 127.364 L 788.362, 140.271 L 787.749, 140.937 L 776.911, 138.241 L 772.156, 126.076 z "/>
<path style="fill:rgb(81, 255, 217);fill-opacity:1.0;fill-rule:evenodd;stroke:rgb(0, 0, 0);stroke-width:3.0;" d="M 281.446, 548.936 L 270.308, 560.81 L 251.651, 549.502 L 243.757, 528.907 L 273.167, 525.135 z "/>
<path style="fill:rgb(81, 255, 217);fill-opacity:1.0;fill-rule:evenodd;stroke:rgb(0, 0, 0);stroke-width:3.0;" d="M 684.609, 317.276 L 684.657, 326.458 L 661.566, 333.924 L 655.638, 328.867 L 672.146, 301.8 z "/>
<path style="fill:rgb(81, 255, 217);fill-opacity:1.0;fill-rule:evenodd;stroke:rgb(0, 0, 0);stroke-width:3.0;" d="M 742.758, 360.625 L 745.614, 372.977 L 741.789, 372.499 L 723.282, 357.981 z "/>
<path style="fill:rgb(81, 255, 217);fill-opacity:1.0;fill-rule:evenodd;stroke:rgb(0, 0, 0);stroke-width:3.0;" d="M 267.031, 327.565 L 269.806, 362.671 L 242.682, 386.719 L 226.511, 314.766 z "/>
<path style="fill:rgb(36, 45, 255);fill-opacity:1.0;fill-rule:evenodd;stroke:rgb(0, 0, 0);stroke-width:3.0;" d="M 754.339, 380.816 L 776.069, 430.85 L 726.677, 369.515 z "/>
<path style="fill:rgb(255, 2, 48);fill-opacity:1.0;fill-rule:evenodd;stroke:rgb(0, 0, 0);stroke-width:3.0;" d="M 53.9678, 64.8743 L 33.3788, 70.4618 L 30.6866, 69.5985 L 31.3432, 62.3474 L 37.2372, 55.8042 z "/>
<path style="fill:rgb(255, 2, 48);fill-opacity:1.0;fill-rule:evenodd;stroke:rgb(0, 0, 0);stroke-width:3.0;" d="M 230.283, 412.956 L 211.675, 401.616 L 186.72, 380.104 L 178.312, 358.168 z "/>
<path style="fill:rgb(255, 2, 48);fill-opacity:1.0;fill-rule:evenodd;stroke:rgb(0, 0, 0);stroke-width:3.0;" d="M 633.24, 357.747 L 638.43, 346.028 L 663.227, 345.727 z "/>
<path style="fill:rgb(255, 2, 48);fill-opacity:1.0;fill-rule:evenodd;stroke:rgb(0, 0, 0);stroke-width:3.0;" d="M 710.885, 389.409 L 717.171, 417.311 L 715.991, 417.527 L 695.749, 401.481 L 685.177, 384.036 z "/>
<path style="fill:rgb(20, 217, 255);fill-opacity:1.0;fill-rule:evenodd;stroke:rgb(0, 0, 0);stroke-width:3.0;" d="M 452.866, 106.003 L 453.518, 160.473 L 424.712, 137.981 L 447.585, 104.171 z "/>
<path style="fill:rgb(20, 217, 255);fill-opacity:1.0;fill-rule:evenodd;stroke:rgb(0, 0, 0);stroke-width:3.0;" d="M 453.342, 300.866 L 465.124, 333.555 L 397.322, 313.111 L 407.866, 267.982 z "/>
<path style="fill:rgb(189, 44, 255);fill-opacity:1.0;fill-rule:evenodd;stroke:rgb(0, 0, 0);stroke-width:3.0;" d="M 220.386, 25.3557 L 228.815, 36.9237 L 209.841, 47.413 L 203.16, 19.3801 z "/>
<path style="fill:rgb(27, 255, 255);fill-opacity:1.0;fill-rule:evenodd;stroke:rgb(0, 0, 0);stroke-width:3.0;" d="M 420.494, 376.036 L 363.397, 358.002 L 356.571, 317.763 z "/>
<path style="fill:rgb(27, 255, 255);fill-opacity:1.0;fill-rule:evenodd;stroke:rgb(0, 0, 0);stroke-width:3.0;" d="M 105.722, 295.69 L 37.304, 312.214 L 15.7303, 187.729 L 9.75225, 81.5573 z "/>
<path style="fill:rgb(27, 255, 255);fill-opacity:1.0;fill-rule:evenodd;stroke:rgb(0, 0, 0);stroke-width:3.0;" d="M 39.1645, 322.95 L 60.2233, 444.465 L 25.6462, 363.837 L 23.2222, 320.788 z "/>
<path style="fill:rgb(27, 255, 255);fill-opacity:1.0;fill-rule:evenodd;stroke:rgb(0, 0, 0);stroke-width:3.0;" d="M 220.803, 585.388 L 215.273, 588.509 L 211.763, 573.468 L 217.494, 566.601 z "/>
<path style="fill:rgb(240, 182, 132);fill-opacity:1.0;fill-rule:evenodd;stroke:rgb(0, 0, 0);stroke-width:3.0;" d="M 49.4602, 382.359 L 37.304, 312.214 L 94.4414, 298.415 z "/>
<path style="fill:rgb(240, 182, 132);fill-opacity:1.0;fill-rule:evenodd;stroke:rgb(0, 0, 0);stroke-width:3.0;" d="M 734.334, 334.751 L 733.274, 335.908 L 706.822, 321.838 L 726.676, 317.12 z "/>
<path style="fill:rgb(240, 182, 132);fill-opacity:1.0;fill-rule:evenodd;stroke:rgb(0, 0, 0);stroke-width:3.0;" d="M 748.805, 142.098 L 749.484, 182.459 L 747.684, 184.413 L 732.669, 163.248 L 729.879, 140.978 L 739.941, 132.959 z "/>
<path style="fill:rgb(240, 182, 132);fill-opacity:1.0;fill-rule:evenodd;stroke:rgb(0, 0, 0);stroke-width:3.0;" d="M 514.155, 127.264 L 489.634, 188.672 L 453.518, 160.473 L 452.866, 106.003 z "/>
<path style="fill:rgb(255, 134, 54);fill-opacity:1.0;fill-rule:evenodd;stroke:rgb(0, 0, 0);stroke-width:3.0;" d="M 697.431, 404.256 L 672.113, 417.476 L 662.237, 407.112 L 693.774, 398.222 z "/>
<path style="fill:rgb(184, 23, 246);fill-opacity:1.0;fill-rule:evenodd;stroke:rgb(0, 0, 0);stroke-width:3.0;" d="M 677.142, 161.036 L 671.109, 181.711 L 664.581, 179.446 L 676.047, 146.396 L 677.66, 146.16 z "/>
<path style="fill:rgb(184, 23, 246);fill-opacity:1.0;fill-rule:evenodd;stroke:rgb(0, 0, 0);stroke-width:3.0;" d="M 775.461, 273.156 L 758.84, 267.907 L 743.172, 247.065 L 743.133, 246.756 z "/>
<path style="fill:rgb(249, 255, 32);fill-opacity:1.0;fill-rule:evenodd;stroke:rgb(0, 0, 0);stroke-width:3.0;" d="M 99.3161, 91.6047 L 81.693, 85.9538 L 76.7061, 57.1899 L 85.7944, 33.6612 z "/>
<path style="fill:rgb(41, 82, 249);fill-opacity:1.0;fill-rule:evenodd;stroke:rgb(0, 0, 0);stroke-width:3.0;" d="M 783.476, 417.325 L 781.597, 431.601 L 771.892, 414.032 L 777.686, 408.416 z "/>
<path style="fill:rgb(41, 82, 249);fill-opacity:1.0;fill-rule:evenodd;stroke:rgb(0, 0, 0);stroke-width:3.0;" d="M 753.639, 115.613 L 745.462, 128.559 L 737.193, 135.149 L 709.61, 125.929 L 708.422, 93.4889 z "/>
<path style="fill:rgb(41, 82, 249);fill-opacity:1.0;fill-rule:evenodd;stroke:rgb(0, 0, 0);stroke-width:3.0;" d="M 170.437, 396.373 L 173.095, 407.763 L 160.607, 418.153 L 150.793, 396.256 L 155.248, 384.526 z "/>
<path style="fill:rgb(19, 234, 46);fill-opacity:1.0;fill-rule:evenodd;stroke:rgb(0, 0, 0);stroke-width:3.0;" d="M 406.101, 315.758 L 405.795, 330.946 L 386.955, 322.242 L 388.542, 310.463 z "/>
<path style="fill:rgb(19, 234, 46);fill-opacity:1.0;fill-rule:evenodd;stroke:rgb(0, 0, 0);stroke-width:3.0;" d="M 155.248, 384.526 L 150.793, 396.256 L 140.316, 372.88 z "/>
<path style="fill:rgb(240, 5, 8);fill-opacity:1.0;fill-rule:evenodd;stroke:rgb(0, 0, 0);stroke-width:3.0;" d="M 631.744, 359.115 L 624.926, 375.382 L 618.427, 362.244 L 619.775, 357.624 z "/>
<path style="fill:rgb(249, 19, 100);fill-opacity:1.0;fill-rule:evenodd;stroke:rgb(0, 0, 0);stroke-width:3.0;" d="M 647.376, 321.819 L 631.744, 359.115 L 619.775, 357.624 L 633.642, 310.104 z "/>
<path style="fill:rgb(255, 33, 61);fill-opacity:1.0;fill-rule:evenodd;stroke:rgb(0, 0, 0);stroke-width:3.0;" d="M 675.547, 397.375 L 676.955, 402.964 L 663.417, 406.78 L 649.113, 395.34 L 661.176, 386.478 z "/>
<path style="fill:rgb(34, 97, 226);fill-opacity:1.0;fill-rule:evenodd;stroke:rgb(0, 0, 0);stroke-width:3.0;" d="M 279.064, 479.812 L 271.786, 490.548 L 264.998, 479.699 L 277.543, 460.563 z "/>
<path style="fill:rgb(34, 97, 226);fill-opacity:1.0;fill-rule:evenodd;stroke:rgb(0, 0, 0);stroke-width:3.0;" d="M 717.447, 353.176 L 716.865, 353.811 L 698.961, 335.098 L 667.772, 296.369 L 674.539, 279.027 z "/>
<path style="fill:rgb(34, 97, 226);fill-opacity:1.0;fill-rule:evenodd;stroke:rgb(0, 0, 0);stroke-width:3.0;" d="M 129.824, 42.0795 L 102.749, 47.3434 L 86.1936, 35.3719 L 81.7669, 16.4026 L 115.764, 10.9542 z "/>
<path style="fill:rgb(34, 97, 226);fill-opacity:1.0;fill-rule:evenodd;stroke:rgb(0, 0, 0);stroke-width:3.0;" d="M 653.012, 416.754 L 646.003, 420.237 L 639.49, 418.826 L 637.551, 414.071 L 655.32, 409.062 z "/>
<path style="fill:rgb(223, 82, 212);fill-opacity:1.0;fill-rule:evenodd;stroke:rgb(0, 0, 0);stroke-width:3.0;" d="M 777.988, 433.233 L 793.204, 452.128 L 775.352, 448.26 L 769.553, 441.637 L 772.365, 428.437 z "/>
<path style="fill:rgb(223, 82, 212);fill-opacity:1.0;fill-rule:evenodd;stroke:rgb(0, 0, 0);stroke-width:3.0;" d="M 226.511, 314.766 L 228.485, 323.548 L 207.859, 337.39 L 201.597, 319.389 L 214.153, 310.863 z "/>
<path style="fill:rgb(13, 3, 204);fill-opacity:1.0;fill-rule:evenodd;stroke:rgb(0, 0, 0);stroke-width:3.0;" d="M 434.787, 145.848 L 410.775, 182.769 L 405.087, 166.99 L 424.712, 137.981 z "/>
<path style="fill:rgb(255, 252, 81);fill-opacity:1.0;fill-rule:evenodd;stroke:rgb(0, 0, 0);stroke-width:3.0;" d="M 684.703, 335.218 L 668.221, 339.601 L 661.566, 333.924 L 684.657, 326.458 z "/>
<path style="fill:rgb(255, 252, 81);fill-opacity:1.0;fill-rule:evenodd;stroke:rgb(0, 0, 0);stroke-width:3.0;" d="M 646.693, 307.354 L 636.71, 299.589 L 638.456, 293.606 L 647.099, 283.258 z "/>
<path style="fill:rgb(249, 202, 9);fill-opacity:1.0;fill-rule:evenodd;stroke:rgb(0, 0, 0);stroke-width:3.0;" d="M 469.868, 360.547 L 468.137, 373.106 L 423.921, 372.647 L 431.714, 342.92 z "/>
<path style="fill:rgb(249, 202, 9);fill-opacity:1.0;fill-rule:evenodd;stroke:rgb(0, 0, 0);stroke-width:3.0;" d="M 726.836, 369.713 L 738.772, 384.535 L 741.854, 402.41 L 719.126, 383.023 L 698.69, 361.844 z "/>
<path style="fill:rgb(249, 202, 9);fill-opacity:1.0;fill-rule:evenodd;stroke:rgb(0, 0, 0);stroke-width:3.0;" d="M 733.274, 335.908 L 717.447, 353.176 L 700.221, 323.407 L 706.822, 321.838 z "/>
<path style="fill:rgb(249, 202, 9);fill-opacity:1.0;fill-rule:evenodd;stroke:rgb(0, 0, 0);stroke-width:3.0;" d="M 789.552, 408.443 L 790.066, 424.611 L 787.831, 424.454 L 772.79, 392.123 L 775.845, 390.943 z "/>
<path style="fill:rgb(249, 202, 9);fill-opacity:1.0;fill-rule:evenodd;stroke:rgb(0, 0, 0);stroke-width:3.0;" d="M 682.372, 197.863 L 676.929, 216.418 L 676.838, 216.506 L 672.725, 212.357 L 675.465, 195.333 z "/>
<path style="fill:rgb(47, 255, 255);fill-opacity:1.0;fill-rule:evenodd;stroke:rgb(0, 0, 0);stroke-width:3.0;" d="M 649.959, 174.374 L 616.95, 162.923 L 616.415, 155.095 L 645.404, 150.866 z "/>
<path style="fill:rgb(47, 255, 255);fill-opacity:1.0;fill-rule:evenodd;stroke:rgb(0, 0, 0);stroke-width:3.0;" d="M 756.712, 300.933 L 759.547, 303.292 L 763.492, 319.227 L 752.025, 317.718 L 750.236, 303.442 L 753.237, 299.045 z "/>
<path style="fill:rgb(194, 89, 192);fill-opacity:1.0;fill-rule:evenodd;stroke:rgb(0, 0, 0);stroke-width:3.0;" d="M 505.09, 444.435 L 515.658, 473.756 L 495.409, 467.439 L 477.727, 461.208 L 371.473, 416.715 L 371.972, 394.185 z "/>
<path style="fill:rgb(194, 89, 192);fill-opacity:1.0;fill-rule:evenodd;stroke:rgb(0, 0, 0);stroke-width:3.0;" d="M 770.909, 447.298 L 757.933, 444.486 L 738.345, 435.248 L 728.467, 427.417 L 728.845, 426.922 L 746.042, 418.825 z "/>
<path style="fill:rgb(255, 14, 65);fill-opacity:1.0;fill-rule:evenodd;stroke:rgb(0, 0, 0);stroke-width:3.0;" d="M 39.1645, 322.95 L 23.2222, 320.788 L 15.7303, 187.729 z "/>
<path style="fill:rgb(255, 14, 65);fill-opacity:1.0;fill-rule:evenodd;stroke:rgb(0, 0, 0);stroke-width:3.0;" d="M 389.151, 310.647 L 363.504, 302.914 L 391.179, 293.804 z "/>
<path style="fill:rgb(255, 14, 65);fill-opacity:1.0;fill-rule:evenodd;stroke:rgb(0, 0, 0);stroke-width:3.0;" d="M 432.406, 126.608 L 405.087, 166.99 L 389.434, 123.561 z "/>
<path style="fill:rgb(255, 14, 65);fill-opacity:1.0;fill-rule:evenodd;stroke:rgb(0, 0, 0);stroke-width:3.0;" d="M 258.177, 386.837 L 235.617, 417.187 L 232.944, 409.505 L 253.584, 377.054 L 261.408, 370.117 z "/>
<path style="fill:rgb(249, 249, 8);fill-opacity:1.0;fill-rule:evenodd;stroke:rgb(0, 0, 0);stroke-width:3.0;" d="M 648.905, 381.992 L 645.884, 392.757 L 630.828, 380.715 L 640.431, 376.611 z "/>
<path style="fill:rgb(228, 217, 19);fill-opacity:1.0;fill-rule:evenodd;stroke:rgb(0, 0, 0);stroke-width:3.0;" d="M 682.846, 352.076 L 656.746, 370.606 L 637.773, 371.245 L 678.633, 348.482 z "/>
<path style="fill:rgb(255, 18, 175);fill-opacity:1.0;fill-rule:evenodd;stroke:rgb(0, 0, 0);stroke-width:3.0;" d="M 34.4676, 42.4313 L 21.4563, 64.0962 L 7.64879, 44.1993 L 6.96743, 32.0982 L 18.6118, 24.6624 z "/>
<path style="fill:rgb(255, 18, 175);fill-opacity:1.0;fill-rule:evenodd;stroke:rgb(0, 0, 0);stroke-width:3.0;" d="M 255.418, 559.328 L 241.365, 565.035 L 234.112, 503.742 z "/>
<path style="fill:rgb(255, 18, 175);fill-opacity:1.0;fill-rule:evenodd;stroke:rgb(0, 0, 0);stroke-width:3.0;" d="M 747.684, 184.413 L 743.326, 189.142 L 736.311, 192.314 L 732.669, 163.248 z "/>
<path style="fill:rgb(255, 18, 175);fill-opacity:1.0;fill-rule:evenodd;stroke:rgb(0, 0, 0);stroke-width:3.0;" d="M 121.332, 185.948 L 108.349, 146.535 L 108.609, 131.429 z "/>
<path style="fill:rgb(255, 194, 30);fill-opacity:1.0;fill-rule:evenodd;stroke:rgb(0, 0, 0);stroke-width:3.0;" d="M 653.288, 580.346 L 619.288, 588.66 L 623.63, 580.412 L 655.674, 576.279 z "/>
<path style="fill:rgb(255, 194, 30);fill-opacity:1.0;fill-rule:evenodd;stroke:rgb(0, 0, 0);stroke-width:3.0;" d="M 64.5481, 80.4563 L 39.5248, 89.6747 L 39.495, 89.6542 L 42.0274, 73.235 z "/>
<path style="fill:rgb(255, 194, 30);fill-opacity:1.0;fill-rule:evenodd;stroke:rgb(0, 0, 0);stroke-width:3.0;" d="M 208.902, 437.974 L 193.882, 437.523 L 192.881, 422.506 L 201.647, 419.046 z "/>
<path style="fill:rgb(237, 107, 255);fill-opacity:1.0;fill-rule:evenodd;stroke:rgb(0, 0, 0);stroke-width:3.0;" d="M 726.468, 182.164 L 717.18, 187.454 L 702.599, 183.989 L 693.393, 176.172 L 694.974, 175.495 z "/>
<path style="fill:rgb(237, 107, 255);fill-opacity:1.0;fill-rule:evenodd;stroke:rgb(0, 0, 0);stroke-width:3.0;" d="M 431.714, 342.92 L 422.839, 376.777 L 420.494, 376.036 L 398.63, 356.104 L 416.017, 335.669 z "/>
<path style="fill:rgb(30, 33, 255);fill-opacity:1.0;fill-rule:evenodd;stroke:rgb(0, 0, 0);stroke-width:3.0;" d="M 168.374, 296.403 L 166.323, 302.746 L 157.516, 303.913 L 152.745, 291.467 z "/>
<path style="fill:rgb(30, 33, 255);fill-opacity:1.0;fill-rule:evenodd;stroke:rgb(0, 0, 0);stroke-width:3.0;" d="M 702.058, 368.464 L 707.229, 374.385 L 701.9, 380.077 L 695.334, 379.15 L 688.29, 360.861 L 689.58, 357.82 z "/>
<path style="fill:rgb(30, 33, 255);fill-opacity:1.0;fill-rule:evenodd;stroke:rgb(0, 0, 0);stroke-width:3.0;" d="M 380.42, 308.014 L 376.543, 317.432 L 354.226, 307.122 L 352.07, 303.908 L 357.291, 301.04 z "/>
<path style="fill:rgb(30, 33, 255);fill-opacity:1.0;fill-rule:evenodd;stroke:rgb(0, 0, 0);stroke-width:3.0;" d="M 685.293, 251.466 L 671.118, 287.794 L 655.511, 259.501 L 666.973, 243.19 z "/>
<path style="fill:rgb(255, 255, 7);fill-opacity:1.0;fill-rule:evenodd;stroke:rgb(0, 0, 0);stroke-width:3.0;" d="M 782.023, 115.842 L 783.717, 122.373 L 780.195, 126.881 L 776.896, 126.551 L 770.617, 117.349 L 777.198, 108.912 z "/>
<path style="fill:rgb(240, 51, 37);fill-opacity:1.0;fill-rule:evenodd;stroke:rgb(0, 0, 0);stroke-width:3.0;" d="M 73.9078, 157.231 L 54.0825, 180.47 L 41.6773, 152.79 L 50.3556, 148.93 z "/>
<path style="fill:rgb(240, 51, 37);fill-opacity:1.0;fill-rule:evenodd;stroke:rgb(0, 0, 0);stroke-width:3.0;" d="M 118.782, 204.345 L 78.1672, 191.227 L 85.8579, 156.9 z "/>
<path style="fill:rgb(240, 51, 37);fill-opacity:1.0;fill-rule:evenodd;stroke:rgb(0, 0, 0);stroke-width:3.0;" d="M 220.472, 132.472 L 220.097, 208.167 L 130.849, 226.732 L 86.1936, 35.3719 z "/>
<path style="fill:rgb(45, 52, 255);fill-opacity:1.0;fill-rule:evenodd;stroke:rgb(0, 0, 0);stroke-width:3.0;" d="M 77.9773, 64.5219 L 81.693, 85.9538 L 69.9422, 82.1859 L 47.3097, 56.8228 z "/>
<path style="fill:rgb(255, 6, 7);fill-opacity:1.0;fill-rule:evenodd;stroke:rgb(0, 0, 0);stroke-width:3.0;" d="M 15.5675, 209.592 L 8.74056, 207.663 L 7.70923, 186.767 L 11.5494, 185.491 z "/>
<path style="fill:rgb(255, 7, 89);fill-opacity:1.0;fill-rule:evenodd;stroke:rgb(0, 0, 0);stroke-width:3.0;" d="M 84.9148, 161.11 L 81.9316, 174.425 L 54.7706, 182.005 L 54.0825, 180.47 L 73.9078, 157.231 z "/>
<path style="fill:rgb(252, 132, 9);fill-opacity:1.0;fill-rule:evenodd;stroke:rgb(0, 0, 0);stroke-width:3.0;" d="M 165.034, 243.069 L 213.986, 260.901 L 161.639, 251.105 L 142.268, 237.307 L 140.727, 235.74 z "/>
<path style="fill:rgb(252, 132, 9);fill-opacity:1.0;fill-rule:evenodd;stroke:rgb(0, 0, 0);stroke-width:3.0;" d="M 64.0039, 125.408 L 37.6952, 136.57 L 55.8258, 121.669 L 60.6402, 120.561 z "/>
<path style="fill:rgb(81, 35, 255);fill-opacity:1.0;fill-rule:evenodd;stroke:rgb(0, 0, 0);stroke-width:3.0;" d="M 639.622, 393.166 L 648.009, 410.299 L 627.565, 410.045 L 623.801, 395.14 L 636.498, 393.023 z "/>
<path style="fill:rgb(223, 12, 249);fill-opacity:1.0;fill-rule:evenodd;stroke:rgb(0, 0, 0);stroke-width:3.0;" d="M 386.029, 321.814 L 402.332, 351.753 L 398.63, 356.104 L 356.571, 317.763 L 354.812, 307.392 z "/>
<path style="fill:rgb(255, 28, 7);fill-opacity:1.0;fill-rule:evenodd;stroke:rgb(0, 0, 0);stroke-width:3.0;" d="M 465.124, 333.555 L 470.161, 347.529 L 467.278, 348.058 L 458.115, 347.443 L 454.822, 330.449 z "/>
<path style="fill:rgb(189, 217, 9);fill-opacity:1.0;fill-rule:evenodd;stroke:rgb(0, 0, 0);stroke-width:3.0;" d="M 719.86, 14.6515 L 704.637, 66.8185 L 606.888, 15.8341 L 606.488, 9.99031 z "/>
<path style="fill:rgb(189, 217, 9);fill-opacity:1.0;fill-rule:evenodd;stroke:rgb(0, 0, 0);stroke-width:3.0;" d="M 733.505, 169.923 L 711.652, 170.863 L 711.153, 170.519 L 732.427, 161.313 z "/>
<path style="fill:rgb(189, 217, 9);fill-opacity:1.0;fill-rule:evenodd;stroke:rgb(0, 0, 0);stroke-width:3.0;" d="M 468.137, 373.106 L 465.764, 390.335 L 422.839, 376.777 L 423.921, 372.647 z "/>
<path style="fill:rgb(121, 207, 226);fill-opacity:1.0;fill-rule:evenodd;stroke:rgb(0, 0, 0);stroke-width:3.0;" d="M 554.466, 581.424 L 552.763, 587.261 L 424.554, 555.255 L 476.424, 526.787 L 529.7, 512.714 z "/>
<path style="fill:rgb(121, 207, 226);fill-opacity:1.0;fill-rule:evenodd;stroke:rgb(0, 0, 0);stroke-width:3.0;" d="M 67.4562, 108.847 L 57.9847, 116.734 L 50.699, 106.236 L 55.2398, 100.461 z "/>
<path style="fill:rgb(121, 207, 226);fill-opacity:1.0;fill-rule:evenodd;stroke:rgb(0, 0, 0);stroke-width:3.0;" d="M 238.951, 426.772 L 273.079, 524.884 L 255.234, 523.703 L 233.283, 501.58 L 200.199, 415.269 z "/>
<path style="fill:rgb(255, 234, 44);fill-opacity:1.0;fill-rule:evenodd;stroke:rgb(0, 0, 0);stroke-width:3.0;" d="M 781.325, 321.573 L 774.223, 386.594 L 771.61, 389.587 L 757.13, 358.464 L 752.025, 317.718 z "/>
<path style="fill:rgb(246, 24, 255);fill-opacity:1.0;fill-rule:evenodd;stroke:rgb(0, 0, 0);stroke-width:3.0;" d="M 66.5122, 129.023 L 47.2159, 140.574 L 49.9689, 131.363 L 64.0039, 125.408 z "/>
<path style="fill:rgb(246, 24, 255);fill-opacity:1.0;fill-rule:evenodd;stroke:rgb(0, 0, 0);stroke-width:3.0;" d="M 176.999, 354.743 L 165.809, 370.936 L 159.591, 345.658 L 172.25, 342.351 z "/>
<path style="fill:rgb(246, 24, 255);fill-opacity:1.0;fill-rule:evenodd;stroke:rgb(0, 0, 0);stroke-width:3.0;" d="M 268.243, 592.788 L 243.058, 579.337 L 242.443, 574.138 L 256.504, 562.163 z "/>
<path style="fill:rgb(246, 24, 255);fill-opacity:1.0;fill-rule:evenodd;stroke:rgb(0, 0, 0);stroke-width:3.0;" d="M 698.406, 89.6727 L 698.373, 122.173 L 689.362, 119.161 L 698.183, 88.9349 z "/>
<path style="fill:rgb(246, 24, 255);fill-opacity:1.0;fill-rule:evenodd;stroke:rgb(0, 0, 0);stroke-width:3.0;" d="M 734.907, 432.797 L 725.841, 433.953 L 712.18, 428.592 L 708.043, 421.764 L 715.372, 418.571 z "/>
<path style="fill:rgb(246, 24, 255);fill-opacity:1.0;fill-rule:evenodd;stroke:rgb(0, 0, 0);stroke-width:3.0;" d="M 773.697, 137.441 L 782.999, 146.09 L 774.445, 155.373 L 766.534, 145.461 L 767.815, 135.978 z "/>
<path style="fill:rgb(255, 197, 45);fill-opacity:1.0;fill-rule:evenodd;stroke:rgb(0, 0, 0);stroke-width:3.0;" d="M 756.774, 133.232 L 761.571, 139.242 L 754.104, 164.055 L 749.087, 158.869 L 748.622, 131.204 z "/>
<path style="fill:rgb(255, 197, 45);fill-opacity:1.0;fill-rule:evenodd;stroke:rgb(0, 0, 0);stroke-width:3.0;" d="M 90.669, 163.833 L 74.9375, 141.164 L 91.2723, 91.1785 z "/>
<path style="fill:rgb(255, 255, 74);fill-opacity:1.0;fill-rule:evenodd;stroke:rgb(0, 0, 0);stroke-width:3.0;" d="M 91.2901, 89.0312 L 91.2723, 91.1785 L 74.9375, 141.164 L 57.9847, 116.734 L 91.2619, 89.0221 z "/>
<path style="fill:rgb(24, 234, 121);fill-opacity:1.0;fill-rule:evenodd;stroke:rgb(0, 0, 0);stroke-width:3.0;" d="M 23.0227, 317.243 L 23.2217, 320.778 L 12.0736, 320.788 L 6.91638, 253.621 L 7.79851, 253.233 L 11.0367, 252.794 z "/>
<path style="fill:rgb(26, 249, 246);fill-opacity:1.0;fill-rule:evenodd;stroke:rgb(0, 0, 0);stroke-width:3.0;" d="M 704.637, 66.8185 L 681.653, 145.578 L 616.415, 155.095 L 606.888, 15.8341 z "/>
<path style="fill:rgb(26, 249, 246);fill-opacity:1.0;fill-rule:evenodd;stroke:rgb(0, 0, 0);stroke-width:3.0;" d="M 201.647, 419.046 L 177.914, 428.414 L 164.831, 372.351 L 176.999, 354.743 z "/>
<path style="fill:rgb(255, 249, 14);fill-opacity:1.0;fill-rule:evenodd;stroke:rgb(0, 0, 0);stroke-width:3.0;" d="M 741.716, 235.452 L 751.515, 313.653 L 738.396, 318.194 L 691.751, 217.933 z "/>
<path style="fill:rgb(255, 249, 14);fill-opacity:1.0;fill-rule:evenodd;stroke:rgb(0, 0, 0);stroke-width:3.0;" d="M 407.866, 267.982 L 402.721, 290.005 L 363.504, 302.914 L 132.363, 233.217 L 130.849, 226.732 L 301.681, 191.196 z "/>
<path style="fill:rgb(62, 170, 255);fill-opacity:1.0;fill-rule:evenodd;stroke:rgb(0, 0, 0);stroke-width:3.0;" d="M 402.332, 351.753 L 396.634, 341.289 L 415.285, 336.529 z "/>
<path style="fill:rgb(226, 182, 146);fill-opacity:1.0;fill-rule:evenodd;stroke:rgb(0, 0, 0);stroke-width:3.0;" d="M 99.3161, 91.6047 L 101.866, 102.534 L 91.1263, 108.758 L 91.2901, 89.0312 z "/>
<path style="fill:rgb(226, 182, 146);fill-opacity:1.0;fill-rule:evenodd;stroke:rgb(0, 0, 0);stroke-width:3.0;" d="M 416.017, 335.669 L 415.285, 336.529 L 396.634, 341.289 L 386.029, 321.814 z "/>
<path style="fill:rgb(220, 2, 237);fill-opacity:1.0;fill-rule:evenodd;stroke:rgb(0, 0, 0);stroke-width:3.0;" d="M 737.193, 135.149 L 732.957, 138.525 L 683.842, 138.076 L 689.362, 119.161 z "/>
<path style="fill:rgb(220, 16, 243);fill-opacity:1.0;fill-rule:evenodd;stroke:rgb(0, 0, 0);stroke-width:3.0;" d="M 779.536, 406.623 L 773.27, 412.697 L 758.852, 375.535 L 741.797, 325.505 z "/>
<path style="fill:rgb(184, 255, 255);fill-opacity:1.0;fill-rule:evenodd;stroke:rgb(0, 0, 0);stroke-width:3.0;" d="M 732.957, 138.525 L 713.712, 153.862 L 682.568, 142.442 L 683.842, 138.076 z "/>
<path style="fill:rgb(237, 79, 7);fill-opacity:1.0;fill-rule:evenodd;stroke:rgb(0, 0, 0);stroke-width:3.0;" d="M 106.314, 121.592 L 107.323, 187.832 L 90.669, 163.833 L 91.1263, 108.758 L 101.866, 102.534 z "/>
<path style="fill:rgb(246, 42, 105);fill-opacity:1.0;fill-rule:evenodd;stroke:rgb(0, 0, 0);stroke-width:3.0;" d="M 726.676, 317.12 L 700.221, 323.407 L 674.539, 279.027 L 691.384, 235.855 z "/>
<path style="fill:rgb(255, 1, 54);fill-opacity:1.0;fill-rule:evenodd;stroke:rgb(0, 0, 0);stroke-width:3.0;" d="M 477.727, 461.208 L 371.318, 423.708 L 371.473, 416.715 z "/>
<path style="fill:rgb(17, 237, 209);fill-opacity:1.0;fill-rule:evenodd;stroke:rgb(0, 0, 0);stroke-width:3.0;" d="M 35.9097, 44.0474 L 36.9307, 56.1446 L 26.1281, 68.1368 L 23.7258, 67.3665 L 21.4563, 64.0962 L 34.4676, 42.4313 z "/>
<path style="fill:rgb(83, 0, 255);fill-opacity:1.0;fill-rule:evenodd;stroke:rgb(0, 0, 0);stroke-width:3.0;" d="M 153.637, 293.794 L 163.813, 320.342 L 161.086, 327.758 L 152.718, 320.446 L 145.775, 290.693 z "/>
<path style="fill:rgb(249, 119, 14);fill-opacity:1.0;fill-rule:evenodd;stroke:rgb(0, 0, 0);stroke-width:3.0;" d="M 42.0274, 73.235 L 40.522, 82.9952 L 34.5531, 82.969 L 23.7258, 67.3665 z "/>
<path style="fill:rgb(249, 119, 14);fill-opacity:1.0;fill-rule:evenodd;stroke:rgb(0, 0, 0);stroke-width:3.0;" d="M 763.906, 269.507 L 766.495, 291.45 L 756.207, 293.058 L 749.357, 264.913 z "/>
<path style="fill:rgb(249, 119, 14);fill-opacity:1.0;fill-rule:evenodd;stroke:rgb(0, 0, 0);stroke-width:3.0;" d="M 774.405, 155.323 L 774.445, 155.373 L 765.611, 164.959 L 755.986, 157.8 L 758.293, 150.134 z "/>
<path style="fill:rgb(249, 177, 6);fill-opacity:1.0;fill-rule:evenodd;stroke:rgb(0, 0, 0);stroke-width:3.0;" d="M 657.379, 283.462 L 649.458, 292.629 L 646.797, 270.321 z "/>
<path style="fill:rgb(255, 252, 78);fill-opacity:1.0;fill-rule:evenodd;stroke:rgb(0, 0, 0);stroke-width:3.0;" d="M 155.977, 334.41 L 170.437, 396.373 L 163.803, 391.199 L 99.7079, 270.563 z "/>
<path style="fill:rgb(172, 0, 255);fill-opacity:1.0;fill-rule:evenodd;stroke:rgb(0, 0, 0);stroke-width:3.0;" d="M 732.427, 161.313 L 711.153, 170.519 L 701.311, 163.745 L 729.879, 140.978 z "/>
<path style="fill:rgb(255, 2, 182);fill-opacity:1.0;fill-rule:evenodd;stroke:rgb(0, 0, 0);stroke-width:3.0;" d="M 721.853, 391.701 L 736.316, 417.164 L 732.029, 422.765 L 725.919, 411.798 L 719.505, 391.21 z "/>
<path style="fill:rgb(246, 152, 14);fill-opacity:1.0;fill-rule:evenodd;stroke:rgb(0, 0, 0);stroke-width:3.0;" d="M 270.308, 560.81 L 260.14, 571.649 L 255.304, 559.03 L 266.976, 558.79 z "/>
<path style="fill:rgb(223, 1, 13);fill-opacity:1.0;fill-rule:evenodd;stroke:rgb(0, 0, 0);stroke-width:3.0;" d="M 708.422, 93.4889 L 709.61, 125.929 L 709.374, 125.85 L 698.183, 88.9349 L 698.299, 88.5359 z "/>
<path style="fill:rgb(223, 1, 13);fill-opacity:1.0;fill-rule:evenodd;stroke:rgb(0, 0, 0);stroke-width:3.0;" d="M 772.365, 428.437 L 769.553, 441.637 L 753.417, 423.206 L 752.909, 420.619 L 761.642, 419.29 z "/>
<path style="fill:rgb(223, 1, 13);fill-opacity:1.0;fill-rule:evenodd;stroke:rgb(0, 0, 0);stroke-width:3.0;" d="M 743.185, 355.131 L 745.747, 361.031 L 716.664, 357.082 L 715.356, 355.457 L 728.069, 341.587 z "/>
<path style="fill:rgb(79, 82, 255);fill-opacity:1.0;fill-rule:evenodd;stroke:rgb(0, 0, 0);stroke-width:3.0;" d="M 237.602, 204.526 L 220.097, 208.167 L 220.212, 184.87 z "/>
<path style="fill:rgb(79, 82, 255);fill-opacity:1.0;fill-rule:evenodd;stroke:rgb(0, 0, 0);stroke-width:3.0;" d="M 397.322, 313.111 L 389.151, 310.647 L 391.179, 293.804 L 402.721, 290.005 z "/>
<path style="fill:rgb(45, 154, 252);fill-opacity:1.0;fill-rule:evenodd;stroke:rgb(0, 0, 0);stroke-width:3.0;" d="M 33.0314, 495.001 L 22.051, 450.734 L 17.0606, 385.74 L 26.6552, 381.758 z "/>
<path style="fill:rgb(255, 4, 35);fill-opacity:1.0;fill-rule:evenodd;stroke:rgb(0, 0, 0);stroke-width:3.0;" d="M 23.8606, 332.125 L 26.6552, 381.758 L 17.0606, 385.74 L 12.4703, 325.956 z "/>
<path style="fill:rgb(255, 255, 8);fill-opacity:1.0;fill-rule:evenodd;stroke:rgb(0, 0, 0);stroke-width:3.0;" d="M 664.581, 179.446 L 649.959, 174.374 L 645.404, 150.866 L 676.047, 146.396 z "/>
<path style="fill:rgb(33, 243, 255);fill-opacity:1.0;fill-rule:evenodd;stroke:rgb(0, 0, 0);stroke-width:3.0;" d="M 301.681, 191.196 L 237.602, 204.526 L 220.212, 184.87 L 220.472, 132.472 z "/>
<path style="fill:rgb(50, 26, 255);fill-opacity:1.0;fill-rule:evenodd;stroke:rgb(0, 0, 0);stroke-width:3.0;" d="M 91.2619, 89.0221 L 67.4562, 108.847 L 53.7802, 99.4596 L 56.0615, 93.9 L 81.9323, 86.0306 z "/>
<path style="fill:rgb(255, 25, 197);fill-opacity:1.0;fill-rule:evenodd;stroke:rgb(0, 0, 0);stroke-width:3.0;" d="M 272.39, 395.361 L 263.501, 438.136 L 249.858, 458.127 L 237.864, 423.648 L 242.727, 410.088 L 271.67, 386.261 z "/>
<path style="fill:rgb(189, 61, 255);fill-opacity:1.0;fill-rule:evenodd;stroke:rgb(0, 0, 0);stroke-width:3.0;" d="M 698.705, 160.707 L 700.556, 164.347 L 688.001, 174.352 L 678.855, 166.534 L 690.636, 153.264 z "/>
<path style="fill:rgb(255, 182, 33);fill-opacity:1.0;fill-rule:evenodd;stroke:rgb(0, 0, 0);stroke-width:3.0;" d="M 489.634, 188.672 L 454.718, 276.111 L 437.059, 255.691 L 410.775, 182.769 L 434.787, 145.848 z "/>
<path style="fill:rgb(255, 30, 30);fill-opacity:1.0;fill-rule:evenodd;stroke:rgb(0, 0, 0);stroke-width:3.0;" d="M 234.833, 264.115 L 235.897, 265.001 L 213.986, 260.901 L 165.034, 243.069 z "/>
<path style="fill:rgb(212, 2, 243);fill-opacity:1.0;fill-rule:evenodd;stroke:rgb(0, 0, 0);stroke-width:3.0;" d="M 734.432, 396.079 L 752.002, 420.757 L 751.359, 420.855 L 715.619, 380.031 z "/>
<path style="fill:rgb(255, 255, 24);fill-opacity:1.0;fill-rule:evenodd;stroke:rgb(0, 0, 0);stroke-width:3.0;" d="M 78.7159, 146.608 L 68.0691, 155.173 L 50.3556, 148.93 L 73.2578, 138.743 z "/>
<path style="fill:rgb(255, 255, 24);fill-opacity:1.0;fill-rule:evenodd;stroke:rgb(0, 0, 0);stroke-width:3.0;" d="M 450.25, 329.07 L 453.312, 347.12 L 438.677, 346.138 L 405.795, 330.946 L 406.101, 315.758 z "/>
<path style="fill:rgb(255, 220, 71);fill-opacity:1.0;fill-rule:evenodd;stroke:rgb(0, 0, 0);stroke-width:3.0;" d="M 274.459, 465.267 L 261.858, 484.49 L 256.847, 478.22 L 250.645, 460.391 L 258.131, 456.236 z "/>
<path style="fill:rgb(220, 112, 24);fill-opacity:1.0;fill-rule:evenodd;stroke:rgb(0, 0, 0);stroke-width:3.0;" d="M 727.608, 295.006 L 748.884, 349.845 L 746.661, 363.136 L 717.693, 296.435 L 722.46, 283.939 z "/>
<path style="fill:rgb(252, 19, 75);fill-opacity:1.0;fill-rule:evenodd;stroke:rgb(0, 0, 0);stroke-width:3.0;" d="M 790.449, 558.895 L 580.805, 585.936 L 555.73, 577.094 L 597.512, 433.913 z "/>
<path style="fill:rgb(252, 19, 75);fill-opacity:1.0;fill-rule:evenodd;stroke:rgb(0, 0, 0);stroke-width:3.0;" d="M 709.374, 125.85 L 698.373, 122.173 L 698.406, 89.6727 z "/>
<path style="fill:rgb(255, 25, 199);fill-opacity:1.0;fill-rule:evenodd;stroke:rgb(0, 0, 0);stroke-width:3.0;" d="M 129.988, 42.0477 L 129.824, 42.0795 L 115.764, 10.9542 L 149.048, 5.62008 z "/>
<path style="fill:rgb(134, 255, 255);fill-opacity:1.0;fill-rule:evenodd;stroke:rgb(0, 0, 0);stroke-width:3.0;" d="M 81.9323, 86.0306 L 48.8683, 96.0881 L 39.5248, 89.6747 L 64.5481, 80.4563 z "/>
<path style="fill:rgb(234, 76, 8);fill-opacity:1.0;fill-rule:evenodd;stroke:rgb(0, 0, 0);stroke-width:3.0;" d="M 768.361, 307.261 L 758.338, 301.816 L 756.207, 293.058 L 766.495, 291.45 z "/>
<path style="fill:rgb(234, 76, 8);fill-opacity:1.0;fill-rule:evenodd;stroke:rgb(0, 0, 0);stroke-width:3.0;" d="M 736.27, 191.989 L 741.716, 235.452 L 691.751, 217.933 L 675.946, 183.959 L 682.038, 179.104 z "/>
<path style="fill:rgb(255, 75, 8);fill-opacity:1.0;fill-rule:evenodd;stroke:rgb(0, 0, 0);stroke-width:3.0;" d="M 82.6602, 26.6476 L 78.9884, 33.4036 L 72.8968, 35.2188 L 72.0524, 30.3481 L 74.4204, 7.27418 L 76.6543, 5.84411 z "/>
<path style="fill:rgb(255, 6, 8);fill-opacity:1.0;fill-rule:evenodd;stroke:rgb(0, 0, 0);stroke-width:3.0;" d="M 681.438, 355.162 L 669.662, 380.794 L 648.596, 376.392 L 680.567, 353.694 z "/>
<path style="fill:rgb(21, 255, 255);fill-opacity:1.0;fill-rule:evenodd;stroke:rgb(0, 0, 0);stroke-width:3.0;" d="M 787.827, 406.241 L 773.282, 387.672 L 786.203, 372.87 z "/>
<path style="fill:rgb(255, 255, 75);fill-opacity:1.0;fill-rule:evenodd;stroke:rgb(0, 0, 0);stroke-width:3.0;" d="M 85.8579, 156.9 L 84.9148, 161.11 L 68.0691, 155.173 L 78.7159, 146.608 z "/>
<path style="fill:rgb(255, 249, 13);fill-opacity:1.0;fill-rule:evenodd;stroke:rgb(0, 0, 0);stroke-width:3.0;" d="M 237.408, 391.395 L 229.182, 398.689 L 207.859, 337.39 L 210.211, 335.811 z "/>
</svg>