<?xml version="1.0" encoding="iso-8859-1" standalone="no"?>
<!DOCTYPE svg PUBLIC "-//W3C//DTD SVG 1.0//EN" "http://www.w3.org/TR/2001/REC-SVG-20010904/DTD/svg10.dtd">
<svg xmlns="http://www.w3.org/2000/svg" width="800" height="600">
<path style="fill:rgb(0, 0, 0);fill-opacity:0.0;fill-rule:evenodd;stroke:rgb(0, 0, 0);stroke-width:0.0;" d="M 0, 600 L 800, 600 L 800, 0 L 0, 0 z "/>
<path style="fill:rgb(243, 23, 121);fill-opacity:1.0;fill-rule:evenodd;stroke:rgb(0, 0, 0);stroke-width:3.0;" d="M 396.551, 179.196 L 389.004, 170.426 L 413.143, 125.906 L 442.611, 124.105 z "/>
<path style="fill:rgb(243, 23, 121);fill-opacity:1.0;fill-rule:evenodd;stroke:rgb(0, 0, 0);stroke-width:3.0;" d="M 496.623, 340.176 L 347.939, 342.969 L 378.67, 327.564 L 508.056, 313.368 z "/>
<path style="fill:rgb(243, 23, 121);fill-opacity:1.0;fill-rule:evenodd;stroke:rgb(0, 0, 0);stroke-width:3.0;" d="M 397.857, 154.098 L 381.153, 112.728 L 416.916, 37.876 L 474.91, 11.9904 z "/>
<path style="fill:rgb(255, 182, 15);fill-opacity:1.0;fill-rule:evenodd;stroke:rgb(0, 0, 0);stroke-width:3.0;" d="M 479.668, 500.6 L 480.614, 509.508 L 461.858, 501.484 L 456.998, 489.017 z "/>
<path style="fill:rgb(255, 182, 15);fill-opacity:1.0;fill-rule:evenodd;stroke:rgb(0, 0, 0);stroke-width:3.0;" d="M 556.769, 550.044 L 557.721, 558.514 L 529.555, 556.628 L 527.509, 555.698 L 529.413, 551.445 L 539.953, 547.206 z "/>
<path style="fill:rgb(255, 182, 15);fill-opacity:1.0;fill-rule:evenodd;stroke:rgb(0, 0, 0);stroke-width:3.0;" d="M 367.925, 209.301 L 305, 325.352 L 284.871, 328.87 L 294.581, 293.928 L 350.048, 177.833 z "/>
<path style="fill:rgb(255, 182, 15);fill-opacity:1.0;fill-rule:evenodd;stroke:rgb(0, 0, 0);stroke-width:3.0;" d="M 402.349, 573.895 L 396.308, 590.793 L 381.694, 581.727 L 399.843, 567.061 z "/>
<path style="fill:rgb(255, 182, 15);fill-opacity:1.0;fill-rule:evenodd;stroke:rgb(0, 0, 0);stroke-width:3.0;" d="M 478.006, 465.595 L 476.151, 466.936 L 466.431, 442.95 L 473.022, 442.488 z "/>
<path style="fill:rgb(255, 182, 15);fill-opacity:1.0;fill-rule:evenodd;stroke:rgb(0, 0, 0);stroke-width:3.0;" d="M 379.217, 36.9312 L 371.867, 57.9836 L 354.539, 65.7178 L 351.081, 65.2453 L 352.086, 17.5694 L 360.904, 15.1728 z "/>
<path style="fill:rgb(255, 182, 15);fill-opacity:1.0;fill-rule:evenodd;stroke:rgb(0, 0, 0);stroke-width:3.0;" d="M 338.226, 295.855 L 321.63, 294.681 L 325.857, 286.885 L 347.861, 284.459 z "/>
<path style="fill:rgb(255, 182, 15);fill-opacity:1.0;fill-rule:evenodd;stroke:rgb(0, 0, 0);stroke-width:3.0;" d="M 484.146, 293.522 L 487.063, 308.914 L 482.428, 314.03 L 468.13, 309.153 L 483.857, 293.342 z "/>
<path style="fill:rgb(255, 182, 15);fill-opacity:1.0;fill-rule:evenodd;stroke:rgb(0, 0, 0);stroke-width:3.0;" d="M 406.091, 190.282 L 338.156, 264.203 L 381.458, 184.342 L 396.855, 179.549 z "/>
<path style="fill:rgb(255, 182, 15);fill-opacity:1.0;fill-rule:evenodd;stroke:rgb(0, 0, 0);stroke-width:3.0;" d="M 420.109, 571.026 L 401.414, 571.344 L 401.102, 570.494 L 405.504, 563.327 L 431.037, 562.254 z "/>
<path style="fill:rgb(255, 182, 15);fill-opacity:1.0;fill-rule:evenodd;stroke:rgb(0, 0, 0);stroke-width:3.0;" d="M 587.448, 345.663 L 548.681, 414.514 L 527.785, 429.617 L 539.102, 324.791 z "/>
<path style="fill:rgb(255, 255, 24);fill-opacity:1.0;fill-rule:evenodd;stroke:rgb(0, 0, 0);stroke-width:3.0;" d="M 468.316, 210.006 L 459.916, 251.389 L 422.911, 195.692 L 457.785, 154.445 z "/>
<path style="fill:rgb(255, 14, 255);fill-opacity:1.0;fill-rule:evenodd;stroke:rgb(0, 0, 0);stroke-width:3.0;" d="M 540.138, 440.515 L 539.999, 441.085 L 532.142, 445.343 L 520.569, 434.832 L 524.401, 432.062 z "/>
<path style="fill:rgb(255, 14, 255);fill-opacity:1.0;fill-rule:evenodd;stroke:rgb(0, 0, 0);stroke-width:3.0;" d="M 455.096, 482.154 L 452.957, 483.7 L 448.659, 462.523 L 459.605, 461.491 z "/>
<path style="fill:rgb(255, 14, 255);fill-opacity:1.0;fill-rule:evenodd;stroke:rgb(0, 0, 0);stroke-width:3.0;" d="M 537.462, 500.014 L 498.821, 496.801 L 533.89, 471.772 L 552.486, 467.812 z "/>
<path style="fill:rgb(255, 252, 21);fill-opacity:1.0;fill-rule:evenodd;stroke:rgb(0, 0, 0);stroke-width:3.0;" d="M 451.926, 123.535 L 435.104, 124.564 L 435.972, 83.8038 L 442.213, 72.2929 z "/>
<path style="fill:rgb(249, 228, 13);fill-opacity:1.0;fill-rule:evenodd;stroke:rgb(0, 0, 0);stroke-width:3.0;" d="M 338.049, 22.3967 L 291.229, 57.0671 L 289.152, 56.7833 L 280.372, 48.1534 L 287.567, 35.1052 L 338.286, 21.3202 z "/>
<path style="fill:rgb(249, 228, 13);fill-opacity:1.0;fill-rule:evenodd;stroke:rgb(0, 0, 0);stroke-width:3.0;" d="M 527.785, 429.617 L 478.006, 465.595 L 451.14, 341.031 L 537.524, 339.408 z "/>
<path style="fill:rgb(231, 46, 142);fill-opacity:1.0;fill-rule:evenodd;stroke:rgb(0, 0, 0);stroke-width:3.0;" d="M 605.43, 79.7292 L 579.734, 121.947 L 563.535, 98.4783 L 565.777, 77.715 L 617.55, 50.7123 z "/>
<path style="fill:rgb(255, 217, 10);fill-opacity:1.0;fill-rule:evenodd;stroke:rgb(0, 0, 0);stroke-width:3.0;" d="M 454.148, 279.807 L 445.599, 282.233 L 456.267, 252.464 L 459.763, 252.144 z "/>
<path style="fill:rgb(255, 217, 10);fill-opacity:1.0;fill-rule:evenodd;stroke:rgb(0, 0, 0);stroke-width:3.0;" d="M 336.104, 16.7176 L 333.524, 22.6144 L 311.571, 28.581 L 306.588, 16.1712 L 308.072, 14.7329 z "/>
<path style="fill:rgb(255, 217, 10);fill-opacity:1.0;fill-rule:evenodd;stroke:rgb(0, 0, 0);stroke-width:3.0;" d="M 581.977, 390.449 L 572.94, 396.98 L 575.268, 384.958 L 588.001, 375.949 z "/>
<path style="fill:rgb(255, 217, 10);fill-opacity:1.0;fill-rule:evenodd;stroke:rgb(0, 0, 0);stroke-width:3.0;" d="M 270.044, 88.0554 L 248.508, 110.723 L 209.781, 101.993 L 216.769, 75.2192 L 230.263, 65.228 z "/>
<path style="fill:rgb(255, 217, 10);fill-opacity:1.0;fill-rule:evenodd;stroke:rgb(0, 0, 0);stroke-width:3.0;" d="M 506.9, 15.7567 L 507.216, 23.7715 L 474.411, 12.9106 L 474.91, 11.9904 L 480.577, 9.46088 z "/>
<path style="fill:rgb(255, 217, 10);fill-opacity:1.0;fill-rule:evenodd;stroke:rgb(0, 0, 0);stroke-width:3.0;" d="M 398.253, 325.415 L 304.541, 335.697 L 402.517, 219.813 z "/>
<path style="fill:rgb(255, 217, 10);fill-opacity:1.0;fill-rule:evenodd;stroke:rgb(0, 0, 0);stroke-width:3.0;" d="M 761.373, 520.493 L 760.766, 524.357 L 750.5, 536.036 L 743.659, 519.73 L 746.256, 518.364 L 759.849, 517.192 z "/>
<path style="fill:rgb(255, 217, 10);fill-opacity:1.0;fill-rule:evenodd;stroke:rgb(0, 0, 0);stroke-width:3.0;" d="M 246.395, 45.6264 L 253.098, 53.1011 L 237.847, 53.5948 L 229.254, 44.1394 L 228.088, 38.2752 L 231.999, 33.2435 L 233.37, 33.1928 z "/>
<path style="fill:rgb(255, 217, 10);fill-opacity:1.0;fill-rule:evenodd;stroke:rgb(0, 0, 0);stroke-width:3.0;" d="M 489.576, 568.808 L 475.222, 580.944 L 474.991, 572.516 L 489.546, 562.474 z "/>
<path style="fill:rgb(255, 217, 10);fill-opacity:1.0;fill-rule:evenodd;stroke:rgb(0, 0, 0);stroke-width:3.0;" d="M 158.471, 134.204 L 163.825, 150.842 L 148.507, 157.679 L 151.895, 133.206 z "/>
<path style="fill:rgb(255, 217, 10);fill-opacity:1.0;fill-rule:evenodd;stroke:rgb(0, 0, 0);stroke-width:3.0;" d="M 537.462, 500.014 L 535.199, 504.865 L 500.575, 519.449 L 468.796, 519.283 L 468.475, 518.46 L 498.821, 496.801 z "/>
<path style="fill:rgb(252, 136, 14);fill-opacity:1.0;fill-rule:evenodd;stroke:rgb(0, 0, 0);stroke-width:3.0;" d="M 473.334, 530.924 L 358.129, 579.451 L 443.734, 494.064 L 455.682, 485.64 z "/>
<path style="fill:rgb(252, 94, 69);fill-opacity:1.0;fill-rule:evenodd;stroke:rgb(0, 0, 0);stroke-width:3.0;" d="M 603.258, 509.939 L 537.728, 450.417 L 545.994, 416.456 L 663.266, 331.696 z "/>
<path style="fill:rgb(252, 94, 69);fill-opacity:1.0;fill-rule:evenodd;stroke:rgb(0, 0, 0);stroke-width:3.0;" d="M 531.005, 514.108 L 518.456, 542.383 L 441.451, 558.966 L 435.741, 546.759 L 530.537, 506.829 z "/>
<path style="fill:rgb(252, 94, 69);fill-opacity:1.0;fill-rule:evenodd;stroke:rgb(0, 0, 0);stroke-width:3.0;" d="M 454.205, 242.793 L 450.012, 269.919 L 449.837, 270.406 L 433.548, 286.337 L 423.269, 244.103 L 443.627, 226.872 z "/>
<path style="fill:rgb(252, 94, 69);fill-opacity:1.0;fill-rule:evenodd;stroke:rgb(0, 0, 0);stroke-width:3.0;" d="M 461.789, 416.07 L 469.515, 426.226 L 473.022, 442.488 L 466.431, 442.95 L 455.346, 415.594 z "/>
<path style="fill:rgb(252, 94, 69);fill-opacity:1.0;fill-rule:evenodd;stroke:rgb(0, 0, 0);stroke-width:3.0;" d="M 563.54, 491.882 L 541.925, 498.185 L 541.826, 498.104 L 545.694, 489.673 L 559.515, 488.439 z "/>
<path style="fill:rgb(252, 94, 69);fill-opacity:1.0;fill-rule:evenodd;stroke:rgb(0, 0, 0);stroke-width:3.0;" d="M 351.081, 65.2453 L 329.277, 62.266 L 338.286, 21.3202 L 352.086, 17.5694 z "/>
<path style="fill:rgb(226, 255, 11);fill-opacity:1.0;fill-rule:evenodd;stroke:rgb(0, 0, 0);stroke-width:3.0;" d="M 57.5718, 185.869 L 54.0004, 199.862 L 47.0208, 202.977 L 45.0053, 185.705 z "/>
<path style="fill:rgb(226, 255, 11);fill-opacity:1.0;fill-rule:evenodd;stroke:rgb(0, 0, 0);stroke-width:3.0;" d="M 569.625, 399.376 L 556.632, 408.767 L 554.464, 404.244 L 557.199, 399.386 L 559.252, 396.213 L 571.619, 391.944 z "/>
<path style="fill:rgb(105, 237, 255);fill-opacity:1.0;fill-rule:evenodd;stroke:rgb(0, 0, 0);stroke-width:3.0;" d="M 94.515, 517.441 L 70.7916, 542.672 L 40.2628, 420.754 L 51.8017, 389.624 z "/>
<path style="fill:rgb(105, 237, 255);fill-opacity:1.0;fill-rule:evenodd;stroke:rgb(0, 0, 0);stroke-width:3.0;" d="M 435.989, 400.084 L 406.248, 419.439 L 289.241, 354.416 L 294.907, 343.965 L 424.107, 341.538 z "/>
<path style="fill:rgb(105, 237, 255);fill-opacity:1.0;fill-rule:evenodd;stroke:rgb(0, 0, 0);stroke-width:3.0;" d="M 690.55, 311.976 L 622.815, 360.932 L 539.102, 324.791 L 548.024, 242.153 L 592.041, 233.204 z "/>
<path style="fill:rgb(255, 46, 255);fill-opacity:1.0;fill-rule:evenodd;stroke:rgb(0, 0, 0);stroke-width:3.0;" d="M 385.729, 19.0429 L 389.73, 50.0101 L 371.867, 57.9836 L 385.516, 18.891 z "/>
<path style="fill:rgb(255, 46, 255);fill-opacity:1.0;fill-rule:evenodd;stroke:rgb(0, 0, 0);stroke-width:3.0;" d="M 622.815, 360.932 L 584.565, 388.578 L 589.62, 374.804 L 614.376, 357.288 z "/>
<path style="fill:rgb(255, 150, 215);fill-opacity:1.0;fill-rule:evenodd;stroke:rgb(0, 0, 0);stroke-width:3.0;" d="M 198.437, 521.883 L 181.442, 545.501 L 174.026, 546.252 L 177.645, 538.677 L 214.947, 491.433 z "/>
<path style="fill:rgb(209, 108, 146);fill-opacity:1.0;fill-rule:evenodd;stroke:rgb(0, 0, 0);stroke-width:3.0;" d="M 567.827, 155.716 L 596.743, 232.248 L 563.186, 239.07 L 565.483, 155.598 z "/>
<path style="fill:rgb(209, 108, 146);fill-opacity:1.0;fill-rule:evenodd;stroke:rgb(0, 0, 0);stroke-width:3.0;" d="M 273.923, 26.2893 L 280.669, 36.9798 L 266.252, 40.8985 L 266.403, 26.3761 L 272.263, 25.5574 z "/>
<path style="fill:rgb(209, 108, 146);fill-opacity:1.0;fill-rule:evenodd;stroke:rgb(0, 0, 0);stroke-width:3.0;" d="M 784.043, 267.269 L 770.872, 257.826 L 771.46, 253.496 L 786.608, 242.548 z "/>
<path style="fill:rgb(209, 108, 146);fill-opacity:1.0;fill-rule:evenodd;stroke:rgb(0, 0, 0);stroke-width:3.0;" d="M 76.5641, 565.725 L 59.5326, 584.447 L 69.8887, 561.067 L 74.7201, 558.361 z "/>
<path style="fill:rgb(209, 108, 146);fill-opacity:1.0;fill-rule:evenodd;stroke:rgb(0, 0, 0);stroke-width:3.0;" d="M 347.861, 284.459 L 325.857, 286.885 L 328.809, 281.441 L 413.193, 207.187 z "/>
<path style="fill:rgb(249, 81, 165);fill-opacity:1.0;fill-rule:evenodd;stroke:rgb(0, 0, 0);stroke-width:3.0;" d="M 260.387, 78.3971 L 246.863, 63.5158 L 254.003, 55.3277 z "/>
<path style="fill:rgb(249, 81, 165);fill-opacity:1.0;fill-rule:evenodd;stroke:rgb(0, 0, 0);stroke-width:3.0;" d="M 192.042, 72.5344 L 183.288, 70.6848 L 182.496, 54.4567 L 185.353, 44.7854 z "/>
<path style="fill:rgb(249, 81, 165);fill-opacity:1.0;fill-rule:evenodd;stroke:rgb(0, 0, 0);stroke-width:3.0;" d="M 410.664, 195.596 L 388.573, 228.851 L 328.809, 281.441 L 335.778, 268.588 L 408.363, 192.923 z "/>
<path style="fill:rgb(249, 81, 165);fill-opacity:1.0;fill-rule:evenodd;stroke:rgb(0, 0, 0);stroke-width:3.0;" d="M 371.734, 172.011 L 381.171, 184.872 L 380.665, 185.805 L 375.32, 190.901 L 364.761, 170.277 z "/>
<path style="fill:rgb(249, 81, 165);fill-opacity:1.0;fill-rule:evenodd;stroke:rgb(0, 0, 0);stroke-width:3.0;" d="M 721.335, 336.112 L 712.045, 347.845 L 696.817, 335.8 z "/>
<path style="fill:rgb(56, 255, 207);fill-opacity:1.0;fill-rule:evenodd;stroke:rgb(0, 0, 0);stroke-width:3.0;" d="M 408.363, 192.923 L 335.778, 268.588 L 338.156, 264.203 L 406.091, 190.282 z "/>
<path style="fill:rgb(56, 255, 207);fill-opacity:1.0;fill-rule:evenodd;stroke:rgb(0, 0, 0);stroke-width:3.0;" d="M 123.41, 166.246 L 125.201, 168.082 L 84.5587, 186.223 L 45.0053, 185.705 L 44.0966, 177.916 L 70.4868, 165.039 z "/>
<path style="fill:rgb(255, 252, 11);fill-opacity:1.0;fill-rule:evenodd;stroke:rgb(0, 0, 0);stroke-width:3.0;" d="M 123.41, 166.246 L 70.4868, 165.039 L 105.546, 147.931 z "/>
<path style="fill:rgb(255, 194, 7);fill-opacity:1.0;fill-rule:evenodd;stroke:rgb(0, 0, 0);stroke-width:3.0;" d="M 648.592, 221.706 L 600.874, 231.408 L 606.635, 160.92 z "/>
<path style="fill:rgb(255, 194, 7);fill-opacity:1.0;fill-rule:evenodd;stroke:rgb(0, 0, 0);stroke-width:3.0;" d="M 714.468, 336.024 L 696.817, 335.8 L 688.939, 329.569 L 705.825, 316.658 z "/>
<path style="fill:rgb(105, 38, 255);fill-opacity:1.0;fill-rule:evenodd;stroke:rgb(0, 0, 0);stroke-width:3.0;" d="M 473.996, 584.913 L 467.893, 590.988 L 459.799, 593.23 L 443.184, 594.461 L 444.348, 593.657 L 467.319, 584.655 z "/>
<path style="fill:rgb(105, 38, 255);fill-opacity:1.0;fill-rule:evenodd;stroke:rgb(0, 0, 0);stroke-width:3.0;" d="M 437.827, 303.92 L 433.548, 286.337 L 449.837, 270.406 z "/>
<path style="fill:rgb(105, 38, 255);fill-opacity:1.0;fill-rule:evenodd;stroke:rgb(0, 0, 0);stroke-width:3.0;" d="M 768.295, 276.808 L 721.335, 336.112 L 714.468, 336.024 L 705.825, 316.658 L 769.494, 267.979 z "/>
<path style="fill:rgb(255, 18, 18);fill-opacity:1.0;fill-rule:evenodd;stroke:rgb(0, 0, 0);stroke-width:3.0;" d="M 484.146, 293.522 L 455.043, 275.398 L 468.316, 210.006 z "/>
<path style="fill:rgb(243, 46, 140);fill-opacity:1.0;fill-rule:evenodd;stroke:rgb(0, 0, 0);stroke-width:3.0;" d="M 309.608, 29.1146 L 289.732, 34.5167 L 300.111, 22.4475 L 304.578, 18.1189 z "/>
<path style="fill:rgb(202, 94, 209);fill-opacity:1.0;fill-rule:evenodd;stroke:rgb(0, 0, 0);stroke-width:3.0;" d="M 40.0328, 354.406 L 42.6591, 362.265 L 32.1515, 388.361 L 22.6059, 350.241 z "/>
<path style="fill:rgb(202, 94, 209);fill-opacity:1.0;fill-rule:evenodd;stroke:rgb(0, 0, 0);stroke-width:3.0;" d="M 29.2381, 112.581 L 20.8402, 121.46 L 9.54633, 116.566 L 13.1972, 111.524 L 26.2128, 106.515 z "/>
<path style="fill:rgb(255, 138, 255);fill-opacity:1.0;fill-rule:evenodd;stroke:rgb(0, 0, 0);stroke-width:3.0;" d="M 556.045, 467.055 L 532.204, 472.131 L 524.791, 466.421 L 535.85, 453.764 L 539.982, 452.465 z "/>
<path style="fill:rgb(255, 138, 255);fill-opacity:1.0;fill-rule:evenodd;stroke:rgb(0, 0, 0);stroke-width:3.0;" d="M 210.942, 54.1411 L 213.113, 89.2278 L 210.515, 99.1802 L 184.048, 39.3736 L 183.862, 38.6018 z "/>
<path style="fill:rgb(255, 228, 7);fill-opacity:1.0;fill-rule:evenodd;stroke:rgb(0, 0, 0);stroke-width:3.0;" d="M 577.791, 486.807 L 556.942, 488.668 L 545.906, 481.917 L 552.486, 467.812 L 556.045, 467.055 z "/>
<path style="fill:rgb(255, 0, 9);fill-opacity:1.0;fill-rule:evenodd;stroke:rgb(0, 0, 0);stroke-width:3.0;" d="M 437.772, 218.059 L 436.541, 232.87 L 423.269, 244.103 L 421.578, 237.155 L 434.745, 213.503 z "/>
<path style="fill:rgb(255, 0, 9);fill-opacity:1.0;fill-rule:evenodd;stroke:rgb(0, 0, 0);stroke-width:3.0;" d="M 751.365, 515.675 L 743.659, 519.73 L 737.351, 504.695 L 737.398, 504.356 L 748.741, 502.618 z "/>
<path style="fill:rgb(9, 105, 255);fill-opacity:1.0;fill-rule:evenodd;stroke:rgb(0, 0, 0);stroke-width:3.0;" d="M 755.259, 372.813 L 746.282, 365.809 L 760.816, 331.885 z "/>
<path style="fill:rgb(226, 255, 249);fill-opacity:1.0;fill-rule:evenodd;stroke:rgb(0, 0, 0);stroke-width:3.0;" d="M 760.816, 331.885 L 746.282, 365.809 L 716.327, 342.436 L 768.295, 276.808 z "/>
<path style="fill:rgb(246, 215, 15);fill-opacity:1.0;fill-rule:evenodd;stroke:rgb(0, 0, 0);stroke-width:3.0;" d="M 751.273, 498.616 L 752.832, 501.992 L 737.398, 504.356 L 739.063, 492.088 z "/>
<path style="fill:rgb(83, 255, 255);fill-opacity:1.0;fill-rule:evenodd;stroke:rgb(0, 0, 0);stroke-width:3.0;" d="M 751.273, 498.616 L 739.063, 492.088 L 741.153, 476.695 z "/>
<path style="fill:rgb(35, 18, 255);fill-opacity:1.0;fill-rule:evenodd;stroke:rgb(0, 0, 0);stroke-width:3.0;" d="M 272.263, 25.5574 L 246.75, 29.1218 L 242.083, 12.2558 z "/>
<path style="fill:rgb(35, 18, 255);fill-opacity:1.0;fill-rule:evenodd;stroke:rgb(0, 0, 0);stroke-width:3.0;" d="M 380.749, 167.838 L 382.092, 170.625 L 381.436, 184.383 L 381.171, 184.872 L 360.528, 156.74 z "/>
<path style="fill:rgb(35, 18, 255);fill-opacity:1.0;fill-rule:evenodd;stroke:rgb(0, 0, 0);stroke-width:3.0;" d="M 483.857, 293.342 L 468.13, 309.153 L 449.483, 302.793 L 455.043, 275.398 z "/>
<path style="fill:rgb(35, 18, 255);fill-opacity:1.0;fill-rule:evenodd;stroke:rgb(0, 0, 0);stroke-width:3.0;" d="M 644.767, 547.641 L 599.562, 588.456 L 559.015, 570.022 L 551.403, 502.322 L 553.766, 497.044 L 577.88, 486.887 z "/>
<path style="fill:rgb(249, 37, 255);fill-opacity:1.0;fill-rule:evenodd;stroke:rgb(0, 0, 0);stroke-width:3.0;" d="M 406.248, 419.439 L 253.339, 518.949 L 206.461, 507.084 L 289.241, 354.416 z "/>
<path style="fill:rgb(249, 37, 255);fill-opacity:1.0;fill-rule:evenodd;stroke:rgb(0, 0, 0);stroke-width:3.0;" d="M 195.998, 564.192 L 176.567, 564.848 L 175.461, 564.257 L 182.914, 550.513 z "/>
<path style="fill:rgb(249, 37, 255);fill-opacity:1.0;fill-rule:evenodd;stroke:rgb(0, 0, 0);stroke-width:3.0;" d="M 647.292, 251.029 L 650.185, 279.699 L 632.805, 265.801 L 642.296, 245.059 z "/>
<path style="fill:rgb(255, 255, 28);fill-opacity:1.0;fill-rule:evenodd;stroke:rgb(0, 0, 0);stroke-width:3.0;" d="M 642.296, 245.059 L 632.805, 265.801 L 592.041, 233.204 L 626.512, 226.195 z "/>
<path style="fill:rgb(255, 243, 31);fill-opacity:1.0;fill-rule:evenodd;stroke:rgb(0, 0, 0);stroke-width:3.0;" d="M 68.8257, 162.73 L 66.2259, 167.118 L 44.0966, 177.916 L 42.2422, 162.025 z "/>
<path style="fill:rgb(255, 243, 31);fill-opacity:1.0;fill-rule:evenodd;stroke:rgb(0, 0, 0);stroke-width:3.0;" d="M 195.308, 64.8165 L 199.216, 85.733 L 194.859, 84.2234 L 184.048, 39.3736 z "/>
<path style="fill:rgb(255, 243, 31);fill-opacity:1.0;fill-rule:evenodd;stroke:rgb(0, 0, 0);stroke-width:3.0;" d="M 482.428, 314.03 L 480.266, 316.417 L 445.954, 320.181 L 449.483, 302.793 z "/>
<path style="fill:rgb(31, 189, 255);fill-opacity:1.0;fill-rule:evenodd;stroke:rgb(0, 0, 0);stroke-width:3.0;" d="M 565.483, 155.598 L 564.014, 208.985 L 556.209, 166.34 L 557.412, 155.192 z "/>
<path style="fill:rgb(255, 255, 7);fill-opacity:1.0;fill-rule:evenodd;stroke:rgb(0, 0, 0);stroke-width:3.0;" d="M 105.546, 147.931 L 66.2259, 167.118 L 79.4679, 144.769 L 98.3665, 140.57 z "/>
<path style="fill:rgb(255, 255, 74);fill-opacity:1.0;fill-rule:evenodd;stroke:rgb(0, 0, 0);stroke-width:3.0;" d="M 374.804, 562.818 L 358.129, 579.451 L 345.138, 584.923 L 341.057, 566.453 L 350.528, 559.776 z "/>
<path style="fill:rgb(255, 255, 74);fill-opacity:1.0;fill-rule:evenodd;stroke:rgb(0, 0, 0);stroke-width:3.0;" d="M 272.263, 54.4756 L 266.849, 53.7358 L 265.066, 49.6017 L 265.75, 41.0349 L 281.963, 36.6282 z "/>
<path style="fill:rgb(231, 255, 23);fill-opacity:1.0;fill-rule:evenodd;stroke:rgb(0, 0, 0);stroke-width:3.0;" d="M 790.457, 490.866 L 766.832, 485.719 L 771.434, 456.402 L 792.279, 452.756 z "/>
<path style="fill:rgb(231, 255, 23);fill-opacity:1.0;fill-rule:evenodd;stroke:rgb(0, 0, 0);stroke-width:3.0;" d="M 464.782, 16.5113 L 413.983, 39.1849 L 398.552, 28.1841 L 460.474, 7.33613 z "/>
<path style="fill:rgb(231, 255, 23);fill-opacity:1.0;fill-rule:evenodd;stroke:rgb(0, 0, 0);stroke-width:3.0;" d="M 376.574, 193.349 L 367.925, 209.301 L 350.048, 177.833 L 359.017, 159.06 z "/>
<path style="fill:rgb(231, 255, 23);fill-opacity:1.0;fill-rule:evenodd;stroke:rgb(0, 0, 0);stroke-width:3.0;" d="M 557.721, 558.514 L 558.194, 562.719 L 551.675, 566.685 L 529.555, 556.628 z "/>
<path style="fill:rgb(59, 255, 255);fill-opacity:1.0;fill-rule:evenodd;stroke:rgb(0, 0, 0);stroke-width:3.0;" d="M 753.763, 371.646 L 741.95, 371.499 L 715.37, 350.475 L 714.604, 344.613 L 716.327, 342.436 z "/>
<path style="fill:rgb(59, 255, 255);fill-opacity:1.0;fill-rule:evenodd;stroke:rgb(0, 0, 0);stroke-width:3.0;" d="M 506.166, 27.0199 L 494.036, 49.1224 L 464.39, 31.3926 L 467.873, 24.9693 z "/>
<path style="fill:rgb(59, 255, 255);fill-opacity:1.0;fill-rule:evenodd;stroke:rgb(0, 0, 0);stroke-width:3.0;" d="M 770.237, 262.507 L 769.494, 267.979 L 688.939, 329.569 L 678.086, 320.984 L 764.077, 258.832 z "/>
<path style="fill:rgb(255, 123, 124);fill-opacity:1.0;fill-rule:evenodd;stroke:rgb(0, 0, 0);stroke-width:3.0;" d="M 399.843, 567.061 L 381.694, 581.727 L 369.978, 574.46 L 398.198, 562.573 z "/>
<path style="fill:rgb(12, 3, 148);fill-opacity:1.0;fill-rule:evenodd;stroke:rgb(0, 0, 0);stroke-width:3.0;" d="M 791.675, 327.475 L 761.373, 520.493 L 741.153, 476.695 L 751.812, 398.197 L 787.924, 324.964 z "/>
<path style="fill:rgb(255, 255, 56);fill-opacity:1.0;fill-rule:evenodd;stroke:rgb(0, 0, 0);stroke-width:3.0;" d="M 51.09, 387.494 L 49.9551, 390.956 L 33.4194, 393.425 L 32.1515, 388.361 L 42.6591, 362.265 z "/>
<path style="fill:rgb(255, 255, 56);fill-opacity:1.0;fill-rule:evenodd;stroke:rgb(0, 0, 0);stroke-width:3.0;" d="M 108.963, 141.496 L 120.366, 163.126 L 95.613, 137.747 L 97.1168, 136.526 z "/>
<path style="fill:rgb(255, 255, 56);fill-opacity:1.0;fill-rule:evenodd;stroke:rgb(0, 0, 0);stroke-width:3.0;" d="M 284.871, 328.87 L 277.25, 330.202 L 294.581, 293.928 z "/>
<path style="fill:rgb(70, 255, 223);fill-opacity:1.0;fill-rule:evenodd;stroke:rgb(0, 0, 0);stroke-width:3.0;" d="M 494.036, 49.1224 L 491.695, 53.3888 L 444.681, 85.31 L 442.213, 72.2929 L 464.39, 31.3926 z "/>
<path style="fill:rgb(39, 255, 204);fill-opacity:1.0;fill-rule:evenodd;stroke:rgb(0, 0, 0);stroke-width:3.0;" d="M 40.0328, 354.406 L 22.6059, 350.241 L 20.6105, 342.272 L 33.8905, 336.026 z "/>
<path style="fill:rgb(39, 255, 204);fill-opacity:1.0;fill-rule:evenodd;stroke:rgb(0, 0, 0);stroke-width:3.0;" d="M 174.28, 566.435 L 170.541, 573.332 L 161.192, 573.114 L 169.629, 555.455 z "/>
<path style="fill:rgb(255, 255, 75);fill-opacity:1.0;fill-rule:evenodd;stroke:rgb(0, 0, 0);stroke-width:3.0;" d="M 190.284, 139.032 L 163.825, 150.842 L 158.471, 134.204 z "/>
<path style="fill:rgb(226, 11, 220);fill-opacity:1.0;fill-rule:evenodd;stroke:rgb(0, 0, 0);stroke-width:3.0;" d="M 679.843, 18.2232 L 565.777, 77.715 L 572.391, 16.4511 z "/>
<path style="fill:rgb(226, 11, 220);fill-opacity:1.0;fill-rule:evenodd;stroke:rgb(0, 0, 0);stroke-width:3.0;" d="M 253.339, 518.949 L 191.325, 559.307 L 182.914, 550.513 L 206.461, 507.084 z "/>
<path style="fill:rgb(226, 11, 220);fill-opacity:1.0;fill-rule:evenodd;stroke:rgb(0, 0, 0);stroke-width:3.0;" d="M 329.277, 62.266 L 291.229, 57.0671 L 338.049, 22.3967 z "/>
<path style="fill:rgb(226, 11, 220);fill-opacity:1.0;fill-rule:evenodd;stroke:rgb(0, 0, 0);stroke-width:3.0;" d="M 192.042, 72.5344 L 197.466, 95.0399 L 195.557, 136.679 L 191.177, 138.634 L 186.242, 131.179 L 183.288, 70.6848 z "/>
<path style="fill:rgb(255, 100, 37);fill-opacity:1.0;fill-rule:evenodd;stroke:rgb(0, 0, 0);stroke-width:3.0;" d="M 100.48, 125.403 L 103.577, 131.278 L 95.613, 137.747 L 80.635, 122.391 z "/>
<path style="fill:rgb(249, 3, 140);fill-opacity:1.0;fill-rule:evenodd;stroke:rgb(0, 0, 0);stroke-width:3.0;" d="M 98.3665, 140.57 L 79.4679, 144.769 L 86.5987, 132.735 L 88.5518, 130.508 z "/>
<path style="fill:rgb(255, 223, 11);fill-opacity:1.0;fill-rule:evenodd;stroke:rgb(0, 0, 0);stroke-width:3.0;" d="M 244.023, 437.809 L 222.083, 452.382 L 221.65, 446.574 L 229.359, 430.439 L 251.348, 424.301 z "/>
<path style="fill:rgb(246, 252, 59);fill-opacity:1.0;fill-rule:evenodd;stroke:rgb(0, 0, 0);stroke-width:3.0;" d="M 426.545, 511.209 L 374.804, 562.818 L 350.528, 559.776 L 423.164, 508.566 z "/>
<path style="fill:rgb(255, 45, 212);fill-opacity:1.0;fill-rule:evenodd;stroke:rgb(0, 0, 0);stroke-width:3.0;" d="M 493.392, 480.395 L 478.018, 483.669 L 481.053, 471.001 L 493.281, 467.154 z "/>
<path style="fill:rgb(255, 45, 212);fill-opacity:1.0;fill-rule:evenodd;stroke:rgb(0, 0, 0);stroke-width:3.0;" d="M 297.19, 339.756 L 251.348, 424.301 L 229.359, 430.439 L 274.025, 336.951 z "/>
<path style="fill:rgb(255, 228, 8);fill-opacity:1.0;fill-rule:evenodd;stroke:rgb(0, 0, 0);stroke-width:3.0;" d="M 297.19, 339.756 L 274.025, 336.951 L 277.25, 330.202 L 305, 325.352 z "/>
<path style="fill:rgb(44, 179, 231);fill-opacity:1.0;fill-rule:evenodd;stroke:rgb(0, 0, 0);stroke-width:3.0;" d="M 701.773, 298.752 L 704.127, 302.162 L 690.55, 311.976 L 665.759, 292.152 L 670.389, 273.958 z "/>
<path style="fill:rgb(44, 179, 231);fill-opacity:1.0;fill-rule:evenodd;stroke:rgb(0, 0, 0);stroke-width:3.0;" d="M 266.252, 40.8985 L 251.146, 45.0041 L 246.75, 29.1218 L 266.403, 26.3761 z "/>
<path style="fill:rgb(255, 4, 255);fill-opacity:1.0;fill-rule:evenodd;stroke:rgb(0, 0, 0);stroke-width:3.0;" d="M 564.014, 208.985 L 563.838, 215.351 L 557.951, 215.333 L 553.648, 190.057 L 556.209, 166.34 z "/>
<path style="fill:rgb(255, 4, 255);fill-opacity:1.0;fill-rule:evenodd;stroke:rgb(0, 0, 0);stroke-width:3.0;" d="M 611.565, 356.075 L 607.012, 362.499 L 573.077, 386.508 L 580.929, 357.241 L 587.448, 345.663 z "/>
<path style="fill:rgb(64, 243, 243);fill-opacity:1.0;fill-rule:evenodd;stroke:rgb(0, 0, 0);stroke-width:3.0;" d="M 445.954, 320.181 L 434.068, 321.485 L 434.399, 313.486 L 436.665, 307.164 L 450.602, 297.278 z "/>
<path style="fill:rgb(177, 22, 177);fill-opacity:1.0;fill-rule:evenodd;stroke:rgb(0, 0, 0);stroke-width:3.0;" d="M 452.278, 346.309 L 443.973, 376.434 L 426.66, 354.119 L 424.107, 341.538 L 451.14, 341.031 z "/>
<path style="fill:rgb(177, 22, 177);fill-opacity:1.0;fill-rule:evenodd;stroke:rgb(0, 0, 0);stroke-width:3.0;" d="M 435.372, 111.974 L 433.431, 112.912 L 425.248, 109.306 L 425.395, 103.31 L 435.972, 83.8038 z "/>
<path style="fill:rgb(177, 22, 177);fill-opacity:1.0;fill-rule:evenodd;stroke:rgb(0, 0, 0);stroke-width:3.0;" d="M 220.795, 59.7946 L 216.316, 76.954 L 212.348, 76.8679 L 210.942, 54.1411 z "/>
<path style="fill:rgb(255, 255, 10);fill-opacity:1.0;fill-rule:evenodd;stroke:rgb(0, 0, 0);stroke-width:3.0;" d="M 434.745, 213.503 L 421.578, 237.155 L 419.812, 229.902 L 415.214, 204.796 L 422.911, 195.692 z "/>
<path style="fill:rgb(255, 14, 12);fill-opacity:1.0;fill-rule:evenodd;stroke:rgb(0, 0, 0);stroke-width:3.0;" d="M 457.785, 154.445 L 416.883, 202.822 L 415.462, 201.172 L 426.632, 165.164 L 456.969, 150.142 z "/>
<path style="fill:rgb(255, 14, 12);fill-opacity:1.0;fill-rule:evenodd;stroke:rgb(0, 0, 0);stroke-width:3.0;" d="M 518.364, 542.591 L 454.426, 586.704 L 441.451, 558.966 L 518.456, 542.383 z "/>
<path style="fill:rgb(255, 107, 237);fill-opacity:1.0;fill-rule:evenodd;stroke:rgb(0, 0, 0);stroke-width:3.0;" d="M 756.636, 550.663 L 756.214, 553.353 L 729.85, 559.938 L 731.884, 544.962 L 746.292, 526.006 z "/>
<path style="fill:rgb(255, 107, 237);fill-opacity:1.0;fill-rule:evenodd;stroke:rgb(0, 0, 0);stroke-width:3.0;" d="M 456.006, 145.059 L 456.969, 150.142 L 397.071, 179.801 L 396.551, 179.196 L 419.866, 151.31 L 453.186, 142.108 z "/>
<path style="fill:rgb(237, 132, 7);fill-opacity:1.0;fill-rule:evenodd;stroke:rgb(0, 0, 0);stroke-width:3.0;" d="M 489.167, 503.692 L 480.642, 509.776 L 477.873, 483.7 L 481.035, 483.027 z "/>
<path style="fill:rgb(25, 8, 255);fill-opacity:1.0;fill-rule:evenodd;stroke:rgb(0, 0, 0);stroke-width:3.0;" d="M 489.167, 503.692 L 481.035, 483.027 L 533.89, 471.772 z "/>
<path style="fill:rgb(255, 223, 21);fill-opacity:1.0;fill-rule:evenodd;stroke:rgb(0, 0, 0);stroke-width:3.0;" d="M 701.773, 298.752 L 647.805, 256.116 L 644.418, 222.555 L 648.592, 221.706 z "/>
<path style="fill:rgb(255, 223, 21);fill-opacity:1.0;fill-rule:evenodd;stroke:rgb(0, 0, 0);stroke-width:3.0;" d="M 461.935, 431.854 L 462.462, 461.222 L 448.659, 462.523 L 436.609, 403.143 L 442.153, 383.036 z "/>
<path style="fill:rgb(14, 3, 197);fill-opacity:1.0;fill-rule:evenodd;stroke:rgb(0, 0, 0);stroke-width:3.0;" d="M 407.254, 34.3878 L 404.759, 43.3021 L 401.946, 44.5579 L 388.091, 37.3217 L 385.729, 19.0429 z "/>
<path style="fill:rgb(64, 255, 255);fill-opacity:1.0;fill-rule:evenodd;stroke:rgb(0, 0, 0);stroke-width:3.0;" d="M 84.5587, 186.223 L 65.7189, 194.632 L 60.2885, 193.262 L 62.2138, 188.949 L 71.9373, 186.057 z "/>
<path style="fill:rgb(64, 255, 255);fill-opacity:1.0;fill-rule:evenodd;stroke:rgb(0, 0, 0);stroke-width:3.0;" d="M 36.6937, 183.626 L 33.2418, 191.622 L 25.9574, 189.479 L 27.0209, 181.25 L 32.4146, 174.809 z "/>
<path style="fill:rgb(240, 8, 184);fill-opacity:1.0;fill-rule:evenodd;stroke:rgb(0, 0, 0);stroke-width:3.0;" d="M 476.151, 466.936 L 455.096, 482.154 L 459.605, 461.491 L 473.417, 460.19 z "/>
<path style="fill:rgb(240, 8, 184);fill-opacity:1.0;fill-rule:evenodd;stroke:rgb(0, 0, 0);stroke-width:3.0;" d="M 779.536, 448.405 L 774.017, 439.95 L 774.602, 436.222 L 791.449, 435.372 z "/>
<path style="fill:rgb(255, 37, 184);fill-opacity:1.0;fill-rule:evenodd;stroke:rgb(0, 0, 0);stroke-width:3.0;" d="M 384.455, 18.1348 L 371.637, 27.9254 L 360.904, 15.1728 L 374.947, 11.356 z "/>
<path style="fill:rgb(255, 95, 78);fill-opacity:1.0;fill-rule:evenodd;stroke:rgb(0, 0, 0);stroke-width:3.0;" d="M 555.827, 202.856 L 562.032, 239.305 L 548.024, 242.153 L 552.353, 202.057 z "/>
<path style="fill:rgb(134, 184, 255);fill-opacity:1.0;fill-rule:evenodd;stroke:rgb(0, 0, 0);stroke-width:3.0;" d="M 604.311, 157.553 L 606.635, 160.92 L 600.874, 231.408 L 596.743, 232.248 L 567.827, 155.716 z "/>
<path style="fill:rgb(255, 70, 103);fill-opacity:1.0;fill-rule:evenodd;stroke:rgb(0, 0, 0);stroke-width:3.0;" d="M 452.922, 583.487 L 436.538, 587.379 L 433.036, 582.538 L 446.569, 569.907 z "/>
<path style="fill:rgb(121, 170, 255);fill-opacity:1.0;fill-rule:evenodd;stroke:rgb(0, 0, 0);stroke-width:3.0;" d="M 184.807, 589.189 L 170.392, 594.943 L 169.229, 590.459 L 196.509, 579.905 z "/>
<path style="fill:rgb(10, 209, 255);fill-opacity:1.0;fill-rule:evenodd;stroke:rgb(0, 0, 0);stroke-width:3.0;" d="M 199.216, 85.733 L 205.395, 118.798 L 204.25, 123.185 L 194.859, 84.2234 z "/>
<path style="fill:rgb(255, 2, 128);fill-opacity:1.0;fill-rule:evenodd;stroke:rgb(0, 0, 0);stroke-width:3.0;" d="M 151.895, 133.206 L 148.507, 157.679 L 125.201, 168.082 L 120.366, 163.126 L 100.48, 125.403 z "/>
<path style="fill:rgb(255, 2, 128);fill-opacity:1.0;fill-rule:evenodd;stroke:rgb(0, 0, 0);stroke-width:3.0;" d="M 443.973, 376.434 L 436.609, 403.143 L 426.66, 354.119 z "/>
<path style="fill:rgb(159, 22, 23);fill-opacity:1.0;fill-rule:evenodd;stroke:rgb(0, 0, 0);stroke-width:3.0;" d="M 670.389, 273.958 L 665.759, 292.152 L 650.185, 279.699 L 647.805, 256.116 z "/>
<path style="fill:rgb(243, 14, 64);fill-opacity:1.0;fill-rule:evenodd;stroke:rgb(0, 0, 0);stroke-width:3.0;" d="M 384.463, 120.926 L 382.092, 170.625 L 367.731, 140.822 L 381.153, 112.728 z "/>
<path style="fill:rgb(152, 226, 220);fill-opacity:1.0;fill-rule:evenodd;stroke:rgb(0, 0, 0);stroke-width:3.0;" d="M 221.898, 459.172 L 227.296, 468.659 L 214.947, 491.433 L 177.645, 538.677 L 217.112, 456.072 z "/>
<path style="fill:rgb(46, 15, 179);fill-opacity:1.0;fill-rule:evenodd;stroke:rgb(0, 0, 0);stroke-width:3.0;" d="M 245.623, 44.766 L 230.333, 27.7155 L 226.932, 13.7078 L 229.708, 13.5735 z "/>
<path style="fill:rgb(46, 15, 179);fill-opacity:1.0;fill-rule:evenodd;stroke:rgb(0, 0, 0);stroke-width:3.0;" d="M 354.539, 65.7178 L 296.434, 91.6528 L 273.07, 73.8039 L 256.235, 52.2856 z "/>
<path style="fill:rgb(228, 6, 255);fill-opacity:1.0;fill-rule:evenodd;stroke:rgb(0, 0, 0);stroke-width:3.0;" d="M 205.716, 574.351 L 203.699, 579.346 L 176.567, 564.848 L 195.998, 564.192 z "/>
<path style="fill:rgb(255, 255, 27);fill-opacity:1.0;fill-rule:evenodd;stroke:rgb(0, 0, 0);stroke-width:3.0;" d="M 241.996, 403.989 L 152.642, 334.899 L 303.12, 276.054 z "/>
<path style="fill:rgb(240, 121, 19);fill-opacity:1.0;fill-rule:evenodd;stroke:rgb(0, 0, 0);stroke-width:3.0;" d="M 750.968, 586.771 L 728.995, 566.24 L 729.85, 559.938 L 756.214, 553.353 z "/>
<path style="fill:rgb(240, 121, 19);fill-opacity:1.0;fill-rule:evenodd;stroke:rgb(0, 0, 0);stroke-width:3.0;" d="M 45.5983, 117.074 L 77.1373, 148.703 L 68.8257, 162.73 L 42.2422, 162.025 L 36.842, 115.745 z "/>
<path style="fill:rgb(240, 121, 19);fill-opacity:1.0;fill-rule:evenodd;stroke:rgb(0, 0, 0);stroke-width:3.0;" d="M 287.807, 85.0625 L 282.673, 95.3025 L 266.118, 85.8025 L 270.145, 71.5698 z "/>
<path style="fill:rgb(240, 121, 19);fill-opacity:1.0;fill-rule:evenodd;stroke:rgb(0, 0, 0);stroke-width:3.0;" d="M 248.508, 110.723 L 244.678, 114.754 L 201.41, 134.066 L 209.781, 101.993 z "/>
<path style="fill:rgb(28, 255, 252);fill-opacity:1.0;fill-rule:evenodd;stroke:rgb(0, 0, 0);stroke-width:3.0;" d="M 347.939, 342.969 L 294.907, 343.965 L 299.065, 336.297 L 378.67, 327.564 z "/>
<path style="fill:rgb(67, 255, 231);fill-opacity:1.0;fill-rule:evenodd;stroke:rgb(0, 0, 0);stroke-width:3.0;" d="M 338.226, 295.855 L 304.541, 335.697 L 302.289, 335.944 L 300.565, 333.532 L 321.63, 294.681 z "/>
<path style="fill:rgb(237, 128, 11);fill-opacity:1.0;fill-rule:evenodd;stroke:rgb(0, 0, 0);stroke-width:3.0;" d="M 537.524, 339.408 L 496.623, 340.176 L 508.056, 313.368 L 540.722, 309.784 z "/>
<path style="fill:rgb(255, 124, 19);fill-opacity:1.0;fill-rule:evenodd;stroke:rgb(0, 0, 0);stroke-width:3.0;" d="M 40.23, 420.623 L 33.4194, 393.425 L 49.9551, 390.956 z "/>
<path style="fill:rgb(243, 5, 8);fill-opacity:1.0;fill-rule:evenodd;stroke:rgb(0, 0, 0);stroke-width:3.0;" d="M 507.836, 23.9767 L 506.166, 27.0199 L 467.873, 24.9693 L 474.411, 12.9106 z "/>
<path style="fill:rgb(6, 252, 182);fill-opacity:1.0;fill-rule:evenodd;stroke:rgb(0, 0, 0);stroke-width:3.0;" d="M 416.883, 202.822 L 413.193, 207.187 L 396.817, 221.596 L 405.173, 203.862 L 410.664, 195.596 z "/>
<path style="fill:rgb(79, 202, 255);fill-opacity:1.0;fill-rule:evenodd;stroke:rgb(0, 0, 0);stroke-width:3.0;" d="M 739.639, 487.849 L 725.806, 589.724 L 696.028, 594.201 L 603.258, 509.939 L 663.266, 331.696 L 663.353, 331.633 z "/>
<path style="fill:rgb(255, 243, 9);fill-opacity:1.0;fill-rule:evenodd;stroke:rgb(0, 0, 0);stroke-width:3.0;" d="M 447.1, 135.738 L 420.634, 151.098 L 419.866, 151.31 L 439.519, 127.804 z "/>
<path style="fill:rgb(255, 243, 9);fill-opacity:1.0;fill-rule:evenodd;stroke:rgb(0, 0, 0);stroke-width:3.0;" d="M 754.129, 381.132 L 739.639, 487.849 L 663.353, 331.633 L 678.086, 320.984 z "/>
<path style="fill:rgb(27, 138, 215);fill-opacity:1.0;fill-rule:evenodd;stroke:rgb(0, 0, 0);stroke-width:3.0;" d="M 516.966, 475.376 L 493.392, 480.395 L 493.281, 467.154 L 535.85, 453.764 z "/>
<path style="fill:rgb(255, 234, 51);fill-opacity:1.0;fill-rule:evenodd;stroke:rgb(0, 0, 0);stroke-width:3.0;" d="M 595.862, 145.312 L 584.839, 154.68 L 559.206, 138.573 L 563.535, 98.4783 z "/>
<path style="fill:rgb(177, 52, 26);fill-opacity:1.0;fill-rule:evenodd;stroke:rgb(0, 0, 0);stroke-width:3.0;" d="M 380.749, 167.838 L 361.011, 157.005 L 368.18, 141.754 z "/>
<path style="fill:rgb(177, 52, 26);fill-opacity:1.0;fill-rule:evenodd;stroke:rgb(0, 0, 0);stroke-width:3.0;" d="M 437.827, 303.92 L 431.429, 321.775 L 398.253, 325.415 L 402.517, 219.813 L 414.04, 206.185 z "/>
<path style="fill:rgb(255, 194, 10);fill-opacity:1.0;fill-rule:evenodd;stroke:rgb(0, 0, 0);stroke-width:3.0;" d="M 467.127, 415.153 L 453.943, 412.132 L 447.712, 396.756 L 461.411, 388.654 z "/>
<path style="fill:rgb(64, 255, 252);fill-opacity:1.0;fill-rule:evenodd;stroke:rgb(0, 0, 0);stroke-width:3.0;" d="M 461.411, 388.654 L 447.712, 396.756 L 442.153, 383.036 L 452.278, 346.309 z "/>
<path style="fill:rgb(197, 220, 83);fill-opacity:1.0;fill-rule:evenodd;stroke:rgb(0, 0, 0);stroke-width:3.0;" d="M 80.635, 122.391 L 88.1576, 130.104 L 77.1373, 148.703 L 45.5983, 117.074 z "/>
<path style="fill:rgb(255, 1, 150);fill-opacity:1.0;fill-rule:evenodd;stroke:rgb(0, 0, 0);stroke-width:3.0;" d="M 264.72, 67.4252 L 270.145, 71.5698 L 269.589, 73.5365 L 265.12, 79.7156 L 264.411, 79.0008 L 258.425, 71.3075 L 255.565, 60.9753 z "/>
<path style="fill:rgb(255, 5, 7);fill-opacity:1.0;fill-rule:evenodd;stroke:rgb(0, 0, 0);stroke-width:3.0;" d="M 345.138, 584.923 L 322.087, 594.632 L 316.242, 583.948 L 341.057, 566.453 z "/>
<path style="fill:rgb(255, 228, 11);fill-opacity:1.0;fill-rule:evenodd;stroke:rgb(0, 0, 0);stroke-width:3.0;" d="M 568.716, 144.548 L 573.105, 155.982 L 557.412, 155.192 L 559.206, 138.573 z "/>
<path style="fill:rgb(114, 100, 231);fill-opacity:1.0;fill-rule:evenodd;stroke:rgb(0, 0, 0);stroke-width:3.0;" d="M 439.727, 555.279 L 431.037, 562.254 L 405.504, 563.327 L 408.678, 558.158 L 435.741, 546.759 z "/>
<path style="fill:rgb(255, 7, 29);fill-opacity:1.0;fill-rule:evenodd;stroke:rgb(0, 0, 0);stroke-width:3.0;" d="M 634.183, 232.309 L 645.837, 236.611 L 647.292, 251.029 L 631.506, 232.163 z "/>
<path style="fill:rgb(94, 255, 207);fill-opacity:1.0;fill-rule:evenodd;stroke:rgb(0, 0, 0);stroke-width:3.0;" d="M 446.569, 569.907 L 442.319, 573.873 L 406.4, 584.945 L 405.574, 582.692 L 439.727, 555.279 z "/>
<path style="fill:rgb(255, 252, 76);fill-opacity:1.0;fill-rule:evenodd;stroke:rgb(0, 0, 0);stroke-width:3.0;" d="M 535.048, 538.857 L 532.774, 538.709 L 532.274, 522.162 L 532.691, 520.573 L 544.507, 517.726 z "/>
<path style="fill:rgb(88, 59, 187);fill-opacity:1.0;fill-rule:evenodd;stroke:rgb(0, 0, 0);stroke-width:3.0;" d="M 303.12, 276.054 L 47.2824, 376.1 L 38.4305, 349.611 L 311.4, 258.723 z "/>
<path style="fill:rgb(234, 4, 17);fill-opacity:1.0;fill-rule:evenodd;stroke:rgb(0, 0, 0);stroke-width:3.0;" d="M 421.706, 181.043 L 415.462, 201.172 L 407.854, 192.331 L 416.266, 179.296 z "/>
<path style="fill:rgb(58, 27, 255);fill-opacity:1.0;fill-rule:evenodd;stroke:rgb(0, 0, 0);stroke-width:3.0;" d="M 416.266, 179.296 L 407.854, 192.331 L 397.071, 179.801 L 405.242, 175.755 z "/>
</svg>