<?xml version="1.0" encoding="iso-8859-1" standalone="no"?>
<!DOCTYPE svg PUBLIC "-//W3C//DTD SVG 1.0//EN" "http://www.w3.org/TR/2001/REC-SVG-20010904/DTD/svg10.dtd">
<svg xmlns="http://www.w3.org/2000/svg" width="800" height="600">
<path style="fill:rgb(0, 0, 0);fill-opacity:0.0;fill-rule:evenodd;stroke:rgb(0, 0, 0);stroke-width:0.0;" d="M 0, 600 L 800, 600 L 800, 0 L 0, 0 z "/>
<path style="fill:rgb(95, 102, 255);fill-opacity:1.0;fill-rule:evenodd;stroke:rgb(0, 0, 0);stroke-width:3.0;" d="M 596.548, 145.571 L 542.593, 152.456 L 514.41, 123.255 L 517.212, 108.316 z "/>
<path style="fill:rgb(95, 102, 255);fill-opacity:1.0;fill-rule:evenodd;stroke:rgb(0, 0, 0);stroke-width:3.0;" d="M 297.772, 122.325 L 301.154, 127.966 L 286.634, 130.056 L 289.183, 113.935 L 290.308, 113.209 z "/>
<path style="fill:rgb(95, 102, 255);fill-opacity:1.0;fill-rule:evenodd;stroke:rgb(0, 0, 0);stroke-width:3.0;" d="M 495.066, 315.114 L 492.406, 314.353 L 362.095, 96.3869 L 387.534, 95.22 z "/>
<path style="fill:rgb(9, 60, 255);fill-opacity:1.0;fill-rule:evenodd;stroke:rgb(0, 0, 0);stroke-width:3.0;" d="M 563.242, 181.823 L 554.255, 194.323 L 541.296, 174.944 L 541.479, 174.837 z "/>
<path style="fill:rgb(9, 60, 255);fill-opacity:1.0;fill-rule:evenodd;stroke:rgb(0, 0, 0);stroke-width:3.0;" d="M 575.29, 347.491 L 563.09, 381.061 L 532.308, 331.583 z "/>
<path style="fill:rgb(51, 70, 175);fill-opacity:1.0;fill-rule:evenodd;stroke:rgb(0, 0, 0);stroke-width:3.0;" d="M 682.18, 311.696 L 703.414, 320.167 L 698.859, 337.889 L 643.693, 307.595 z "/>
<path style="fill:rgb(51, 70, 175);fill-opacity:1.0;fill-rule:evenodd;stroke:rgb(0, 0, 0);stroke-width:3.0;" d="M 565.857, 569.421 L 538.352, 570.06 L 474.987, 533.307 L 525.735, 508.306 L 550.432, 502.14 z "/>
<path style="fill:rgb(249, 57, 86);fill-opacity:1.0;fill-rule:evenodd;stroke:rgb(0, 0, 0);stroke-width:3.0;" d="M 253.294, 406.065 L 252.422, 410.285 L 171.997, 393.935 L 160.52, 377.372 z "/>
<path style="fill:rgb(249, 57, 86);fill-opacity:1.0;fill-rule:evenodd;stroke:rgb(0, 0, 0);stroke-width:3.0;" d="M 140.417, 39.5444 L 85.1811, 23.835 L 97.3102, 6.74919 z "/>
<path style="fill:rgb(249, 57, 86);fill-opacity:1.0;fill-rule:evenodd;stroke:rgb(0, 0, 0);stroke-width:3.0;" d="M 550.206, 501.154 L 531.058, 468.078 L 509.249, 338.858 L 512.506, 336.714 z "/>
<path style="fill:rgb(255, 246, 22);fill-opacity:1.0;fill-rule:evenodd;stroke:rgb(0, 0, 0);stroke-width:3.0;" d="M 291.636, 82.5517 L 263.205, 74.4659 L 253.463, 67.8128 L 291.221, 67.4085 z "/>
<path style="fill:rgb(255, 246, 22);fill-opacity:1.0;fill-rule:evenodd;stroke:rgb(0, 0, 0);stroke-width:3.0;" d="M 736.332, 395.383 L 722.327, 393.287 L 684.243, 223.67 L 692.375, 218.317 z "/>
<path style="fill:rgb(255, 100, 6);fill-opacity:1.0;fill-rule:evenodd;stroke:rgb(0, 0, 0);stroke-width:3.0;" d="M 501.739, 190.809 L 463.989, 251.564 L 419.126, 159.824 L 512.856, 131.538 z "/>
<path style="fill:rgb(255, 19, 33);fill-opacity:1.0;fill-rule:evenodd;stroke:rgb(0, 0, 0);stroke-width:3.0;" d="M 783.641, 343.265 L 747.388, 321.452 L 778.374, 298.248 z "/>
<path style="fill:rgb(255, 19, 33);fill-opacity:1.0;fill-rule:evenodd;stroke:rgb(0, 0, 0);stroke-width:3.0;" d="M 602.281, 352.715 L 589.062, 368.757 L 586.09, 348.802 L 589.49, 347.577 z "/>
<path style="fill:rgb(255, 115, 17);fill-opacity:1.0;fill-rule:evenodd;stroke:rgb(0, 0, 0);stroke-width:3.0;" d="M 454.464, 374.919 L 440.555, 384.074 L 414.268, 372.96 L 449.618, 370.779 z "/>
<path style="fill:rgb(246, 79, 88);fill-opacity:1.0;fill-rule:evenodd;stroke:rgb(0, 0, 0);stroke-width:3.0;" d="M 768.071, 210.557 L 767.886, 223.194 L 755.661, 221.611 L 755.539, 206.709 z "/>
<path style="fill:rgb(246, 79, 88);fill-opacity:1.0;fill-rule:evenodd;stroke:rgb(0, 0, 0);stroke-width:3.0;" d="M 509.934, 356.607 L 507.914, 371.381 L 500.536, 344.593 L 503.694, 342.514 z "/>
<path style="fill:rgb(246, 79, 88);fill-opacity:1.0;fill-rule:evenodd;stroke:rgb(0, 0, 0);stroke-width:3.0;" d="M 440.555, 384.074 L 395.315, 413.853 L 369.954, 375.694 L 414.268, 372.96 z "/>
<path style="fill:rgb(246, 79, 88);fill-opacity:1.0;fill-rule:evenodd;stroke:rgb(0, 0, 0);stroke-width:3.0;" d="M 328.367, 415.551 L 325.33, 419.954 L 310.05, 421.295 L 309.595, 419.667 L 310.592, 410.672 z "/>
<path style="fill:rgb(246, 79, 88);fill-opacity:1.0;fill-rule:evenodd;stroke:rgb(0, 0, 0);stroke-width:3.0;" d="M 618.58, 217.666 L 627.664, 222.188 L 624.966, 237.806 L 601.765, 213.766 z "/>
<path style="fill:rgb(246, 79, 88);fill-opacity:1.0;fill-rule:evenodd;stroke:rgb(0, 0, 0);stroke-width:3.0;" d="M 531.464, 419.404 L 528.884, 408.151 L 549.672, 401.549 z "/>
<path style="fill:rgb(249, 81, 43);fill-opacity:1.0;fill-rule:evenodd;stroke:rgb(0, 0, 0);stroke-width:3.0;" d="M 474.914, 361.458 L 461.905, 370.021 L 217.437, 385.105 L 98.4774, 352.455 L 153.35, 149.245 L 355.099, 120.199 z "/>
<path style="fill:rgb(249, 81, 43);fill-opacity:1.0;fill-rule:evenodd;stroke:rgb(0, 0, 0);stroke-width:3.0;" d="M 785.654, 119.445 L 755.487, 126.568 L 775.99, 111.092 z "/>
<path style="fill:rgb(249, 81, 43);fill-opacity:1.0;fill-rule:evenodd;stroke:rgb(0, 0, 0);stroke-width:3.0;" d="M 541.004, 345.561 L 558.968, 374.436 L 549.63, 390.052 L 523.691, 330.902 z "/>
<path style="fill:rgb(212, 0, 189);fill-opacity:1.0;fill-rule:evenodd;stroke:rgb(0, 0, 0);stroke-width:3.0;" d="M 407.599, 172.499 L 386.115, 182.653 L 381.415, 173.19 L 400.217, 160.151 z "/>
<path style="fill:rgb(212, 0, 189);fill-opacity:1.0;fill-rule:evenodd;stroke:rgb(0, 0, 0);stroke-width:3.0;" d="M 290.302, 426.161 L 306.828, 472.098 L 291.223, 482.37 L 288.328, 425.08 z "/>
<path style="fill:rgb(192, 19, 55);fill-opacity:1.0;fill-rule:evenodd;stroke:rgb(0, 0, 0);stroke-width:3.0;" d="M 775.415, 212.812 L 756.84, 207.108 L 785.829, 198.228 z "/>
<path style="fill:rgb(228, 0, 47);fill-opacity:1.0;fill-rule:evenodd;stroke:rgb(0, 0, 0);stroke-width:3.0;" d="M 132.682, 85.4418 L 126.022, 107.669 L 123.842, 106.388 L 122.823, 84.6622 L 132.544, 83.1313 z "/>
<path style="fill:rgb(228, 0, 47);fill-opacity:1.0;fill-rule:evenodd;stroke:rgb(0, 0, 0);stroke-width:3.0;" d="M 776.092, 409.223 L 754.526, 416.379 L 742.563, 410.938 L 784.098, 399.392 z "/>
<path style="fill:rgb(228, 0, 47);fill-opacity:1.0;fill-rule:evenodd;stroke:rgb(0, 0, 0);stroke-width:3.0;" d="M 740.681, 266.623 L 744.46, 275.764 L 733.835, 293.051 L 723.26, 281.161 L 734.491, 264.902 z "/>
<path style="fill:rgb(228, 0, 47);fill-opacity:1.0;fill-rule:evenodd;stroke:rgb(0, 0, 0);stroke-width:3.0;" d="M 198.921, 499.525 L 198.001, 501.781 L 192.203, 506.448 L 175.953, 489.7 L 175.391, 485.907 z "/>
<path style="fill:rgb(228, 0, 47);fill-opacity:1.0;fill-rule:evenodd;stroke:rgb(0, 0, 0);stroke-width:3.0;" d="M 401.092, 542.179 L 276.062, 578.24 L 295.437, 565.806 L 411.285, 536.882 z "/>
<path style="fill:rgb(130, 105, 255);fill-opacity:1.0;fill-rule:evenodd;stroke:rgb(0, 0, 0);stroke-width:3.0;" d="M 337.413, 451.966 L 306.828, 472.098 L 298.684, 449.461 L 312.864, 438.52 z "/>
<path style="fill:rgb(130, 105, 255);fill-opacity:1.0;fill-rule:evenodd;stroke:rgb(0, 0, 0);stroke-width:3.0;" d="M 160.52, 377.372 L 171.997, 393.935 L 122.394, 383.851 L 130.085, 367.959 z "/>
<path style="fill:rgb(130, 105, 255);fill-opacity:1.0;fill-rule:evenodd;stroke:rgb(0, 0, 0);stroke-width:3.0;" d="M 631.533, 161.999 L 622.058, 168.362 L 596.747, 145.665 z "/>
<path style="fill:rgb(255, 220, 82);fill-opacity:1.0;fill-rule:evenodd;stroke:rgb(0, 0, 0);stroke-width:3.0;" d="M 553.169, 398.121 L 551.006, 400.242 L 544.446, 402.44 L 540.427, 399.496 L 546.224, 382.284 z "/>
<path style="fill:rgb(255, 255, 30);fill-opacity:1.0;fill-rule:evenodd;stroke:rgb(0, 0, 0);stroke-width:3.0;" d="M 342.287, 428.554 L 332.155, 449.086 L 278.598, 419.75 L 285.977, 417.106 z "/>
<path style="fill:rgb(255, 255, 30);fill-opacity:1.0;fill-rule:evenodd;stroke:rgb(0, 0, 0);stroke-width:3.0;" d="M 533.14, 199.519 L 500.364, 198.875 L 531.825, 180.481 z "/>
<path style="fill:rgb(255, 157, 8);fill-opacity:1.0;fill-rule:evenodd;stroke:rgb(0, 0, 0);stroke-width:3.0;" d="M 700.468, 191.619 L 701.84, 114.524 L 791.116, 62.2543 z "/>
<path style="fill:rgb(192, 161, 202);fill-opacity:1.0;fill-rule:evenodd;stroke:rgb(0, 0, 0);stroke-width:3.0;" d="M 639.652, 253.022 L 507.304, 340.138 L 505.222, 335.881 L 604.366, 216.461 z "/>
<path style="fill:rgb(252, 255, 51);fill-opacity:1.0;fill-rule:evenodd;stroke:rgb(0, 0, 0);stroke-width:3.0;" d="M 479.696, 319.747 L 461.663, 334.777 L 453.886, 319.116 L 476.227, 314.698 z "/>
<path style="fill:rgb(252, 255, 51);fill-opacity:1.0;fill-rule:evenodd;stroke:rgb(0, 0, 0);stroke-width:3.0;" d="M 299.434, 100.742 L 182.606, 140.936 L 134.309, 112.542 L 130.455, 48.3194 z "/>
<path style="fill:rgb(199, 231, 6);fill-opacity:1.0;fill-rule:evenodd;stroke:rgb(0, 0, 0);stroke-width:3.0;" d="M 114.693, 32.2285 L 96.0169, 90.0294 L 51.2032, 63.6831 L 47.0379, 37.0193 L 86.848, 24.3091 z "/>
<path style="fill:rgb(199, 231, 6);fill-opacity:1.0;fill-rule:evenodd;stroke:rgb(0, 0, 0);stroke-width:3.0;" d="M 720.928, 278.538 L 726.717, 336.932 L 722.589, 340.023 L 709.052, 285.496 L 720.906, 278.514 z "/>
<path style="fill:rgb(199, 231, 6);fill-opacity:1.0;fill-rule:evenodd;stroke:rgb(0, 0, 0);stroke-width:3.0;" d="M 575.215, 426.406 L 541.759, 464.31 L 536.3, 440.498 L 551.35, 417.146 z "/>
<path style="fill:rgb(199, 231, 6);fill-opacity:1.0;fill-rule:evenodd;stroke:rgb(0, 0, 0);stroke-width:3.0;" d="M 705.848, 341.726 L 576.642, 294.497 L 596.289, 281.565 z "/>
<path style="fill:rgb(199, 231, 6);fill-opacity:1.0;fill-rule:evenodd;stroke:rgb(0, 0, 0);stroke-width:3.0;" d="M 189.055, 503.204 L 204.287, 518.903 L 181.095, 524.397 L 177.379, 499.324 z "/>
<path style="fill:rgb(199, 231, 6);fill-opacity:1.0;fill-rule:evenodd;stroke:rgb(0, 0, 0);stroke-width:3.0;" d="M 267.086, 128.194 L 257.757, 134.214 L 188.205, 144.227 L 182.606, 140.936 L 259.674, 114.421 z "/>
<path style="fill:rgb(255, 252, 81);fill-opacity:1.0;fill-rule:evenodd;stroke:rgb(0, 0, 0);stroke-width:3.0;" d="M 182.083, 26.1312 L 207.023, 45.5067 L 196.589, 51.7708 L 176.763, 49.8814 L 143.734, 40.4878 L 162.672, 22.1623 z "/>
<path style="fill:rgb(255, 252, 81);fill-opacity:1.0;fill-rule:evenodd;stroke:rgb(0, 0, 0);stroke-width:3.0;" d="M 458.133, 257.026 L 431.356, 255.842 L 393.153, 196.824 L 386.115, 182.653 L 407.599, 172.499 z "/>
<path style="fill:rgb(255, 252, 81);fill-opacity:1.0;fill-rule:evenodd;stroke:rgb(0, 0, 0);stroke-width:3.0;" d="M 791.29, 101.487 L 789.8, 118.466 L 785.654, 119.445 L 775.99, 111.092 L 790.612, 100.056 z "/>
<path style="fill:rgb(255, 252, 81);fill-opacity:1.0;fill-rule:evenodd;stroke:rgb(0, 0, 0);stroke-width:3.0;" d="M 286.634, 130.056 L 257.757, 134.214 L 289.183, 113.935 z "/>
<path style="fill:rgb(255, 252, 81);fill-opacity:1.0;fill-rule:evenodd;stroke:rgb(0, 0, 0);stroke-width:3.0;" d="M 758.101, 272.782 L 758.05, 273.42 L 750.014, 278.817 L 745.911, 279.273 L 735.474, 254.03 L 736.155, 252.805 z "/>
<path style="fill:rgb(187, 2, 240);fill-opacity:1.0;fill-rule:evenodd;stroke:rgb(0, 0, 0);stroke-width:3.0;" d="M 564.341, 308.503 L 542.792, 334.458 L 531.362, 330.061 L 528.82, 325.976 L 557.292, 307.234 z "/>
<path style="fill:rgb(187, 2, 240);fill-opacity:1.0;fill-rule:evenodd;stroke:rgb(0, 0, 0);stroke-width:3.0;" d="M 734.251, 251.072 L 737.918, 259.94 L 723.26, 281.161 L 717.974, 275.217 L 717.922, 264.033 L 732.082, 249.097 z "/>
<path style="fill:rgb(187, 2, 240);fill-opacity:1.0;fill-rule:evenodd;stroke:rgb(0, 0, 0);stroke-width:3.0;" d="M 347.28, 570.141 L 302.429, 593.447 L 292.409, 594.783 L 320.806, 572.809 L 328.798, 568.918 z "/>
<path style="fill:rgb(187, 2, 240);fill-opacity:1.0;fill-rule:evenodd;stroke:rgb(0, 0, 0);stroke-width:3.0;" d="M 544.008, 423.438 L 540.118, 428.159 L 534.136, 431.062 L 533.963, 430.305 L 536.907, 414.067 L 552.308, 398.965 z "/>
<path style="fill:rgb(187, 2, 240);fill-opacity:1.0;fill-rule:evenodd;stroke:rgb(0, 0, 0);stroke-width:3.0;" d="M 266.567, 413.16 L 288.328, 425.08 L 290.989, 477.743 L 274.388, 445.132 L 265.888, 413.022 z "/>
<path style="fill:rgb(187, 2, 240);fill-opacity:1.0;fill-rule:evenodd;stroke:rgb(0, 0, 0);stroke-width:3.0;" d="M 701.67, 124.106 L 700.566, 186.145 L 692.416, 121.812 z "/>
<path style="fill:rgb(30, 184, 255);fill-opacity:1.0;fill-rule:evenodd;stroke:rgb(0, 0, 0);stroke-width:3.0;" d="M 86.848, 24.3091 L 46.2314, 37.2768 L 29.711, 24.4623 L 19.2305, 5.07835 z "/>
<path style="fill:rgb(30, 184, 255);fill-opacity:1.0;fill-rule:evenodd;stroke:rgb(0, 0, 0);stroke-width:3.0;" d="M 760.768, 169.263 L 761.606, 172.747 L 745.074, 183.629 L 749.673, 160.153 z "/>
<path style="fill:rgb(30, 184, 255);fill-opacity:1.0;fill-rule:evenodd;stroke:rgb(0, 0, 0);stroke-width:3.0;" d="M 598.289, 396.918 L 576.693, 383.77 L 599.582, 355.99 z "/>
<path style="fill:rgb(255, 252, 76);fill-opacity:1.0;fill-rule:evenodd;stroke:rgb(0, 0, 0);stroke-width:3.0;" d="M 369.349, 558.673 L 359.789, 554.091 L 401.092, 542.179 z "/>
<path style="fill:rgb(255, 252, 76);fill-opacity:1.0;fill-rule:evenodd;stroke:rgb(0, 0, 0);stroke-width:3.0;" d="M 609.221, 387.879 L 598.179, 400.389 L 599.582, 355.99 L 606.466, 347.635 L 616.019, 346.855 z "/>
<path style="fill:rgb(243, 209, 15);fill-opacity:1.0;fill-rule:evenodd;stroke:rgb(0, 0, 0);stroke-width:3.0;" d="M 692.416, 121.812 L 695.4, 145.365 L 664.108, 148.33 L 661.757, 137.992 L 690.291, 121.285 z "/>
<path style="fill:rgb(243, 209, 15);fill-opacity:1.0;fill-rule:evenodd;stroke:rgb(0, 0, 0);stroke-width:3.0;" d="M 391.097, 144.898 L 363.785, 137.689 L 343.693, 97.231 L 362.095, 96.3869 z "/>
<path style="fill:rgb(243, 209, 15);fill-opacity:1.0;fill-rule:evenodd;stroke:rgb(0, 0, 0);stroke-width:3.0;" d="M 704.542, 314.078 L 643.693, 307.595 L 596.289, 281.565 L 684.243, 223.67 z "/>
<path style="fill:rgb(69, 234, 252);fill-opacity:1.0;fill-rule:evenodd;stroke:rgb(0, 0, 0);stroke-width:3.0;" d="M 789.945, 217.274 L 784.064, 225.287 L 769.969, 223.463 L 774.259, 212.457 z "/>
<path style="fill:rgb(255, 255, 21);fill-opacity:1.0;fill-rule:evenodd;stroke:rgb(0, 0, 0);stroke-width:3.0;" d="M 343.765, 97.3775 L 291.636, 82.5517 L 291.221, 67.4085 L 328.683, 67.0074 z "/>
<path style="fill:rgb(255, 255, 21);fill-opacity:1.0;fill-rule:evenodd;stroke:rgb(0, 0, 0);stroke-width:3.0;" d="M 224.762, 34.8576 L 207.023, 45.5067 L 182.083, 26.1312 z "/>
<path style="fill:rgb(220, 45, 246);fill-opacity:1.0;fill-rule:evenodd;stroke:rgb(0, 0, 0);stroke-width:3.0;" d="M 221.24, 54.1201 L 222.39, 62.8578 L 206.829, 58.4321 L 196.811, 51.792 z "/>
<path style="fill:rgb(56, 69, 252);fill-opacity:1.0;fill-rule:evenodd;stroke:rgb(0, 0, 0);stroke-width:3.0;" d="M 45.9545, 58.4602 L 42.0721, 58.3148 L 20.3454, 45.5415 L 29.9113, 42.4874 z "/>
<path style="fill:rgb(56, 69, 252);fill-opacity:1.0;fill-rule:evenodd;stroke:rgb(0, 0, 0);stroke-width:3.0;" d="M 732.889, 184.136 L 691.396, 218.873 L 689.39, 216.319 L 696.084, 197.876 L 717.432, 167.409 z "/>
<path style="fill:rgb(56, 69, 252);fill-opacity:1.0;fill-rule:evenodd;stroke:rgb(0, 0, 0);stroke-width:3.0;" d="M 596.747, 145.665 L 680.219, 220.516 L 672.673, 231.286 L 661.164, 238.861 L 593.465, 205.166 L 542.593, 152.456 L 596.548, 145.571 z "/>
<path style="fill:rgb(255, 24, 197);fill-opacity:1.0;fill-rule:evenodd;stroke:rgb(0, 0, 0);stroke-width:3.0;" d="M 735.856, 189.697 L 690.901, 219.287 L 735.729, 181.758 z "/>
<path style="fill:rgb(197, 252, 179);fill-opacity:1.0;fill-rule:evenodd;stroke:rgb(0, 0, 0);stroke-width:3.0;" d="M 661.164, 238.861 L 639.652, 253.022 L 637.056, 250.333 L 642.412, 229.528 z "/>
<path style="fill:rgb(21, 255, 255);fill-opacity:1.0;fill-rule:evenodd;stroke:rgb(0, 0, 0);stroke-width:3.0;" d="M 697.722, 195.538 L 691.255, 204.768 L 668.531, 183.425 z "/>
<path style="fill:rgb(21, 255, 255);fill-opacity:1.0;fill-rule:evenodd;stroke:rgb(0, 0, 0);stroke-width:3.0;" d="M 589.075, 200.618 L 554.315, 199.935 L 553.874, 196.28 L 573.157, 184.124 z "/>
<path style="fill:rgb(209, 44, 115);fill-opacity:1.0;fill-rule:evenodd;stroke:rgb(0, 0, 0);stroke-width:3.0;" d="M 130.59, 50.5743 L 132.544, 83.1313 L 122.823, 84.6622 L 120.771, 40.9211 z "/>
<path style="fill:rgb(231, 1, 45);fill-opacity:1.0;fill-rule:evenodd;stroke:rgb(0, 0, 0);stroke-width:3.0;" d="M 755.869, 257.907 L 755.852, 257.917 L 745.745, 261.534 L 745.675, 261.47 L 758.495, 236.948 z "/>
<path style="fill:rgb(231, 1, 45);fill-opacity:1.0;fill-rule:evenodd;stroke:rgb(0, 0, 0);stroke-width:3.0;" d="M 349.786, 568.839 L 347.28, 570.141 L 328.798, 568.918 L 345.964, 560.56 z "/>
<path style="fill:rgb(231, 1, 45);fill-opacity:1.0;fill-rule:evenodd;stroke:rgb(0, 0, 0);stroke-width:3.0;" d="M 118.811, 103.43 L 101.95, 125.826 L 90.2017, 86.6106 z "/>
<path style="fill:rgb(231, 1, 45);fill-opacity:1.0;fill-rule:evenodd;stroke:rgb(0, 0, 0);stroke-width:3.0;" d="M 754.306, 269.327 L 745.745, 261.534 L 764.41, 254.855 z "/>
<path style="fill:rgb(136, 140, 255);fill-opacity:1.0;fill-rule:evenodd;stroke:rgb(0, 0, 0);stroke-width:3.0;" d="M 61.4971, 342.306 L 56.8115, 354.15 L 29.7539, 359.281 L 18.8434, 353.049 L 45.5705, 337.935 z "/>
<path style="fill:rgb(100, 255, 255);fill-opacity:1.0;fill-rule:evenodd;stroke:rgb(0, 0, 0);stroke-width:3.0;" d="M 732.082, 249.097 L 717.922, 264.033 L 717.863, 251.367 L 729.706, 246.935 z "/>
<path style="fill:rgb(100, 255, 255);fill-opacity:1.0;fill-rule:evenodd;stroke:rgb(0, 0, 0);stroke-width:3.0;" d="M 604.366, 216.461 L 506.021, 334.919 L 519.535, 276.528 L 592.631, 204.302 z "/>
<path style="fill:rgb(100, 255, 255);fill-opacity:1.0;fill-rule:evenodd;stroke:rgb(0, 0, 0);stroke-width:3.0;" d="M 357.94, 34.7022 L 334.477, 78.6738 L 324.152, 57.8832 L 353.732, 26.0981 z "/>
<path style="fill:rgb(100, 255, 255);fill-opacity:1.0;fill-rule:evenodd;stroke:rgb(0, 0, 0);stroke-width:3.0;" d="M 761.084, 329.692 L 782.166, 399.232 L 729.735, 334.671 L 747.388, 321.452 z "/>
<path style="fill:rgb(100, 255, 255);fill-opacity:1.0;fill-rule:evenodd;stroke:rgb(0, 0, 0);stroke-width:3.0;" d="M 458.133, 257.026 L 461.21, 262.172 L 449.6, 270.668 L 443.537, 256.381 z "/>
<path style="fill:rgb(100, 255, 255);fill-opacity:1.0;fill-rule:evenodd;stroke:rgb(0, 0, 0);stroke-width:3.0;" d="M 490.624, 311.372 L 492.406, 314.353 L 475.929, 309.643 L 474.941, 294.856 z "/>
<path style="fill:rgb(100, 255, 255);fill-opacity:1.0;fill-rule:evenodd;stroke:rgb(0, 0, 0);stroke-width:3.0;" d="M 375.227, 95.7846 L 347.876, 97.0391 L 340.27, 90.3396 L 337.04, 83.8357 L 354.816, 83.4516 z "/>
<path style="fill:rgb(36, 154, 134);fill-opacity:1.0;fill-rule:evenodd;stroke:rgb(0, 0, 0);stroke-width:3.0;" d="M 563.09, 381.061 L 557.024, 397.751 L 549.94, 389.534 L 558.968, 374.436 z "/>
<path style="fill:rgb(36, 154, 134);fill-opacity:1.0;fill-rule:evenodd;stroke:rgb(0, 0, 0);stroke-width:3.0;" d="M 343.765, 97.3775 L 349.27, 108.461 L 348.433, 121.159 L 301.154, 127.966 L 291.749, 112.279 L 321.267, 93.231 L 324.851, 91.9981 z "/>
<path style="fill:rgb(255, 79, 11);fill-opacity:1.0;fill-rule:evenodd;stroke:rgb(0, 0, 0);stroke-width:3.0;" d="M 754.215, 83.8593 L 625.551, 159.19 L 522.104, 110.613 L 639.619, 23.1012 z "/>
<path style="fill:rgb(255, 79, 11);fill-opacity:1.0;fill-rule:evenodd;stroke:rgb(0, 0, 0);stroke-width:3.0;" d="M 717.872, 253.192 L 717.974, 275.217 L 705.801, 261.53 L 704.279, 256.452 L 714.671, 252.562 z "/>
<path style="fill:rgb(255, 231, 21);fill-opacity:1.0;fill-rule:evenodd;stroke:rgb(0, 0, 0);stroke-width:3.0;" d="M 554.255, 194.323 L 551.997, 197.463 L 548.264, 199.816 L 533.14, 199.519 L 531.825, 180.481 L 541.296, 174.944 z "/>
<path style="fill:rgb(23, 161, 92);fill-opacity:1.0;fill-rule:evenodd;stroke:rgb(0, 0, 0);stroke-width:3.0;" d="M 296.463, 406.794 L 290.758, 417.652 L 130.085, 367.959 L 133.003, 361.931 z "/>
<path style="fill:rgb(226, 182, 255);fill-opacity:1.0;fill-rule:evenodd;stroke:rgb(0, 0, 0);stroke-width:3.0;" d="M 395.315, 413.853 L 377.462, 425.605 L 341.408, 377.456 L 369.954, 375.694 z "/>
<path style="fill:rgb(226, 182, 255);fill-opacity:1.0;fill-rule:evenodd;stroke:rgb(0, 0, 0);stroke-width:3.0;" d="M 770.008, 384.26 L 734.932, 389.743 L 722.589, 340.023 L 729.735, 334.671 z "/>
<path style="fill:rgb(11, 255, 130);fill-opacity:1.0;fill-rule:evenodd;stroke:rgb(0, 0, 0);stroke-width:3.0;" d="M 108.935, 76.6582 L 115.406, 95.7876 L 110.507, 98.5483 L 106.695, 96.307 L 103.353, 73.6981 z "/>
<path style="fill:rgb(11, 255, 130);fill-opacity:1.0;fill-rule:evenodd;stroke:rgb(0, 0, 0);stroke-width:3.0;" d="M 777.854, 265.664 L 770.29, 274.244 L 764.153, 262.557 L 768.433, 259.407 L 774.316, 258.586 z "/>
<path style="fill:rgb(11, 255, 130);fill-opacity:1.0;fill-rule:evenodd;stroke:rgb(0, 0, 0);stroke-width:3.0;" d="M 324.851, 91.9981 L 299.434, 100.742 L 161.231, 57.8673 L 164.386, 49.68 L 167.061, 47.1221 z "/>
<path style="fill:rgb(11, 255, 130);fill-opacity:1.0;fill-rule:evenodd;stroke:rgb(0, 0, 0);stroke-width:3.0;" d="M 760.768, 169.263 L 745.62, 156.826 L 752.75, 135.93 z "/>
<path style="fill:rgb(237, 168, 43);fill-opacity:1.0;fill-rule:evenodd;stroke:rgb(0, 0, 0);stroke-width:3.0;" d="M 219.539, 511.458 L 226, 521.851 L 218.394, 530.309 L 216.539, 531.53 L 194.944, 509.273 L 198.921, 499.525 z "/>
<path style="fill:rgb(237, 168, 43);fill-opacity:1.0;fill-rule:evenodd;stroke:rgb(0, 0, 0);stroke-width:3.0;" d="M 589.075, 200.618 L 592.631, 204.302 L 543.415, 252.932 L 497.676, 292.31 L 493.751, 233.394 L 500.226, 198.872 z "/>
<path style="fill:rgb(13, 192, 255);fill-opacity:1.0;fill-rule:evenodd;stroke:rgb(0, 0, 0);stroke-width:3.0;" d="M 530.067, 181.494 L 506.001, 170.419 L 524.116, 158.731 z "/>
<path style="fill:rgb(10, 172, 240);fill-opacity:1.0;fill-rule:evenodd;stroke:rgb(0, 0, 0);stroke-width:3.0;" d="M 688.032, 9.58385 L 685.979, 14.4548 L 680.422, 17.3554 L 658.962, 21.6542 L 678.394, 6.39119 z "/>
<path style="fill:rgb(10, 172, 240);fill-opacity:1.0;fill-rule:evenodd;stroke:rgb(0, 0, 0);stroke-width:3.0;" d="M 780.632, 196.674 L 785.919, 197.351 L 765.227, 203.188 L 750.217, 202.117 L 749.936, 201.891 L 755.41, 193.83 z "/>
<path style="fill:rgb(10, 172, 240);fill-opacity:1.0;fill-rule:evenodd;stroke:rgb(0, 0, 0);stroke-width:3.0;" d="M 524.582, 158.431 L 511.691, 166.748 L 507.503, 160.079 L 508.503, 154.748 L 508.849, 154.207 L 521.016, 154.032 z "/>
<path style="fill:rgb(255, 243, 17);fill-opacity:1.0;fill-rule:evenodd;stroke:rgb(0, 0, 0);stroke-width:3.0;" d="M 776.845, 160.667 L 759.922, 165.748 L 757.785, 156.865 L 766.423, 146.298 z "/>
<path style="fill:rgb(255, 255, 35);fill-opacity:1.0;fill-rule:evenodd;stroke:rgb(0, 0, 0);stroke-width:3.0;" d="M 755.285, 301.946 L 737.411, 294.707 L 736.295, 289.049 L 744.46, 275.764 z "/>
<path style="fill:rgb(255, 255, 35);fill-opacity:1.0;fill-rule:evenodd;stroke:rgb(0, 0, 0);stroke-width:3.0;" d="M 469.776, 307.884 L 444.755, 300.731 L 435.096, 281.282 L 455.167, 266.594 z "/>
<path style="fill:rgb(220, 255, 49);fill-opacity:1.0;fill-rule:evenodd;stroke:rgb(0, 0, 0);stroke-width:3.0;" d="M 470.467, 309.617 L 472.625, 315.41 L 453.886, 319.116 L 453.464, 318.267 L 458.547, 309.17 z "/>
<path style="fill:rgb(255, 134, 7);fill-opacity:1.0;fill-rule:evenodd;stroke:rgb(0, 0, 0);stroke-width:3.0;" d="M 784.206, 185.162 L 777.731, 196.303 L 777.301, 196.248 L 776.976, 176.962 L 784.259, 175.506 z "/>
<path style="fill:rgb(252, 117, 18);fill-opacity:1.0;fill-rule:evenodd;stroke:rgb(0, 0, 0);stroke-width:3.0;" d="M 530.084, 373.371 L 525.635, 393.98 L 520.046, 369.601 z "/>
<path style="fill:rgb(252, 117, 18);fill-opacity:1.0;fill-rule:evenodd;stroke:rgb(0, 0, 0);stroke-width:3.0;" d="M 749.204, 239.637 L 733.352, 245.57 L 732.13, 235.025 L 738.094, 229.513 z "/>
<path style="fill:rgb(249, 223, 8);fill-opacity:1.0;fill-rule:evenodd;stroke:rgb(0, 0, 0);stroke-width:3.0;" d="M 495.207, 255.247 L 497.676, 292.31 L 487.992, 300.648 L 483.037, 290.515 L 493.165, 236.517 z "/>
<path style="fill:rgb(249, 223, 8);fill-opacity:1.0;fill-rule:evenodd;stroke:rgb(0, 0, 0);stroke-width:3.0;" d="M 659.167, 174.976 L 663.876, 179.698 L 647.671, 191.329 L 638.225, 182.858 L 630.507, 162.688 L 631.533, 161.999 z "/>
<path style="fill:rgb(19, 154, 138);fill-opacity:1.0;fill-rule:evenodd;stroke:rgb(0, 0, 0);stroke-width:3.0;" d="M 598.289, 396.918 L 598.179, 400.389 L 575.215, 426.406 L 551.35, 417.146 L 559.103, 405.118 L 576.693, 383.77 z "/>
<path style="fill:rgb(66, 32, 255);fill-opacity:1.0;fill-rule:evenodd;stroke:rgb(0, 0, 0);stroke-width:3.0;" d="M 744.629, 410.364 L 741.984, 411.099 L 739.882, 409.684 L 734.932, 389.743 L 763.302, 385.308 z "/>
<path style="fill:rgb(215, 170, 10);fill-opacity:1.0;fill-rule:evenodd;stroke:rgb(0, 0, 0);stroke-width:3.0;" d="M 48.6708, 47.4721 L 51.2032, 63.6831 L 51.1964, 63.6791 L 34.672, 47.2272 z "/>
<path style="fill:rgb(246, 11, 255);fill-opacity:1.0;fill-rule:evenodd;stroke:rgb(0, 0, 0);stroke-width:3.0;" d="M 490.624, 311.372 L 459.362, 278.45 L 455.167, 266.594 L 461.21, 262.172 z "/>
<path style="fill:rgb(243, 57, 255);fill-opacity:1.0;fill-rule:evenodd;stroke:rgb(0, 0, 0);stroke-width:3.0;" d="M 522.315, 423.665 L 520.869, 450.479 L 486.262, 390.699 L 484.151, 371.515 L 506.123, 364.879 z "/>
<path style="fill:rgb(243, 57, 255);fill-opacity:1.0;fill-rule:evenodd;stroke:rgb(0, 0, 0);stroke-width:3.0;" d="M 496.156, 220.573 L 482.819, 224.699 L 482.899, 221.131 L 501.739, 190.809 z "/>
<path style="fill:rgb(255, 255, 19);fill-opacity:1.0;fill-rule:evenodd;stroke:rgb(0, 0, 0);stroke-width:3.0;" d="M 749.673, 160.153 L 745.074, 183.629 L 743.164, 184.887 L 723.759, 158.38 L 732.435, 145.999 z "/>
<path style="fill:rgb(255, 255, 19);fill-opacity:1.0;fill-rule:evenodd;stroke:rgb(0, 0, 0);stroke-width:3.0;" d="M 634.21, 345.369 L 612.136, 347.172 L 615.781, 340.079 L 627.156, 333.825 z "/>
<path style="fill:rgb(255, 223, 18);fill-opacity:1.0;fill-rule:evenodd;stroke:rgb(0, 0, 0);stroke-width:3.0;" d="M 750.586, 220.955 L 748, 220.62 L 732.683, 208.088 L 734.255, 207.146 L 751.229, 206.156 z "/>
<path style="fill:rgb(255, 223, 18);fill-opacity:1.0;fill-rule:evenodd;stroke:rgb(0, 0, 0);stroke-width:3.0;" d="M 499.093, 521.431 L 497.05, 522.438 L 466.802, 528.56 L 460.126, 524.687 L 498.072, 515.213 z "/>
<path style="fill:rgb(255, 223, 18);fill-opacity:1.0;fill-rule:evenodd;stroke:rgb(0, 0, 0);stroke-width:3.0;" d="M 489.929, 246.844 L 483.455, 268.43 L 481.958, 263.337 L 482.362, 245.187 z "/>
<path style="fill:rgb(187, 110, 255);fill-opacity:1.0;fill-rule:evenodd;stroke:rgb(0, 0, 0);stroke-width:3.0;" d="M 160.721, 45.3189 L 150.925, 54.6699 L 130.455, 48.3194 L 129.746, 36.5094 z "/>
<path style="fill:rgb(187, 110, 255);fill-opacity:1.0;fill-rule:evenodd;stroke:rgb(0, 0, 0);stroke-width:3.0;" d="M 542.261, 152.113 L 541.79, 166.605 L 532.976, 163.607 L 532.419, 153.375 L 539.235, 148.977 z "/>
<path style="fill:rgb(237, 121, 202);fill-opacity:1.0;fill-rule:evenodd;stroke:rgb(0, 0, 0);stroke-width:3.0;" d="M 559.208, 340.773 L 546.751, 335.981 L 551.376, 324.119 L 570.069, 301.603 z "/>
<path style="fill:rgb(237, 121, 202);fill-opacity:1.0;fill-rule:evenodd;stroke:rgb(0, 0, 0);stroke-width:3.0;" d="M 782.628, 399.801 L 750.434, 408.75 L 755.898, 395.243 L 763.302, 385.308 L 770.008, 384.26 z "/>
<path style="fill:rgb(6, 13, 163);fill-opacity:1.0;fill-rule:evenodd;stroke:rgb(0, 0, 0);stroke-width:3.0;" d="M 583.45, 372.588 L 578.662, 381.38 L 557.233, 407.387 L 555.771, 404.054 L 557.339, 396.885 L 567.661, 368.484 L 584.226, 361.672 z "/>
<path style="fill:rgb(194, 184, 252);fill-opacity:1.0;fill-rule:evenodd;stroke:rgb(0, 0, 0);stroke-width:3.0;" d="M 530.067, 181.494 L 530.071, 181.507 L 500.364, 198.875 L 500.226, 198.872 L 501.632, 191.379 L 518.648, 176.239 z "/>
<path style="fill:rgb(194, 184, 252);fill-opacity:1.0;fill-rule:evenodd;stroke:rgb(0, 0, 0);stroke-width:3.0;" d="M 351.011, 421.765 L 323, 414.078 L 328.337, 378.262 L 329.306, 378.203 z "/>
<path style="fill:rgb(246, 255, 10);fill-opacity:1.0;fill-rule:evenodd;stroke:rgb(0, 0, 0);stroke-width:3.0;" d="M 323, 414.078 L 217.437, 385.105 L 328.337, 378.262 z "/>
<path style="fill:rgb(252, 17, 21);fill-opacity:1.0;fill-rule:evenodd;stroke:rgb(0, 0, 0);stroke-width:3.0;" d="M 701.133, 340.003 L 672.775, 364.501 L 572.678, 297.106 L 576.642, 294.497 z "/>
<path style="fill:rgb(252, 17, 21);fill-opacity:1.0;fill-rule:evenodd;stroke:rgb(0, 0, 0);stroke-width:3.0;" d="M 605.184, 338.224 L 602.473, 342.898 L 589.624, 347.529 L 582.477, 335.428 z "/>
<path style="fill:rgb(207, 255, 13);fill-opacity:1.0;fill-rule:evenodd;stroke:rgb(0, 0, 0);stroke-width:3.0;" d="M 613.206, 324.394 L 605.184, 338.224 L 582.477, 335.428 L 580.742, 332.491 L 583.797, 324.085 L 600.132, 315.591 z "/>
<path style="fill:rgb(255, 231, 10);fill-opacity:1.0;fill-rule:evenodd;stroke:rgb(0, 0, 0);stroke-width:3.0;" d="M 353.732, 26.0981 L 324.152, 57.8832 L 310.45, 30.2945 L 352.334, 23.2388 z "/>
<path style="fill:rgb(255, 231, 10);fill-opacity:1.0;fill-rule:evenodd;stroke:rgb(0, 0, 0);stroke-width:3.0;" d="M 732.857, 170.807 L 738.919, 179.088 L 732.889, 184.136 L 719.914, 170.095 L 723.116, 168.292 z "/>
<path style="fill:rgb(255, 44, 6);fill-opacity:1.0;fill-rule:evenodd;stroke:rgb(0, 0, 0);stroke-width:3.0;" d="M 365.739, 433.321 L 344.41, 447.361 L 339.322, 437.188 L 355.1, 431.158 z "/>
<path style="fill:rgb(255, 3, 179);fill-opacity:1.0;fill-rule:evenodd;stroke:rgb(0, 0, 0);stroke-width:3.0;" d="M 120.439, 33.8626 L 121.33, 52.8385 L 104.549, 63.6254 L 114.693, 32.2285 z "/>
<path style="fill:rgb(255, 255, 35);fill-opacity:1.0;fill-rule:evenodd;stroke:rgb(0, 0, 0);stroke-width:3.0;" d="M 752.741, 229.963 L 758.012, 236.34 L 749.204, 239.637 L 738.094, 229.513 L 742.799, 225.165 L 746.002, 224.881 z "/>
<path style="fill:rgb(157, 202, 255);fill-opacity:1.0;fill-rule:evenodd;stroke:rgb(0, 0, 0);stroke-width:3.0;" d="M 563.056, 173.658 L 560.205, 180.848 L 541.479, 174.837 L 556, 166.347 z "/>
<path style="fill:rgb(255, 70, 103);fill-opacity:1.0;fill-rule:evenodd;stroke:rgb(0, 0, 0);stroke-width:3.0;" d="M 517.818, 278.224 L 495.27, 300.504 L 494.031, 295.449 L 516.231, 276.336 z "/>
<path style="fill:rgb(231, 107, 207);fill-opacity:1.0;fill-rule:evenodd;stroke:rgb(0, 0, 0);stroke-width:3.0;" d="M 526.805, 442.883 L 531.058, 468.078 L 520.869, 450.479 L 521.341, 441.723 z "/>
<path style="fill:rgb(255, 40, 59);fill-opacity:1.0;fill-rule:evenodd;stroke:rgb(0, 0, 0);stroke-width:3.0;" d="M 533.916, 355.617 L 532.127, 363.907 L 518.453, 353.152 L 516.125, 346.942 z "/>
<path style="fill:rgb(11, 54, 199);fill-opacity:1.0;fill-rule:evenodd;stroke:rgb(0, 0, 0);stroke-width:3.0;" d="M 779.813, 124.227 L 779.826, 124.281 L 781.252, 141.433 L 778.576, 154.405 L 773.209, 149.249 L 772.107, 122.644 L 774.408, 122.101 z "/>
<path style="fill:rgb(11, 54, 199);fill-opacity:1.0;fill-rule:evenodd;stroke:rgb(0, 0, 0);stroke-width:3.0;" d="M 506.021, 334.919 L 505.222, 335.881 L 490.316, 305.399 L 519.535, 276.528 z "/>
<path style="fill:rgb(237, 27, 11);fill-opacity:1.0;fill-rule:evenodd;stroke:rgb(0, 0, 0);stroke-width:3.0;" d="M 502.328, 351.098 L 483.555, 366.089 L 483.008, 361.125 L 487.343, 353.277 L 500.536, 344.593 z "/>
<path style="fill:rgb(237, 27, 11);fill-opacity:1.0;fill-rule:evenodd;stroke:rgb(0, 0, 0);stroke-width:3.0;" d="M 246.515, 409.084 L 183.28, 490.473 L 175.391, 485.907 L 161.441, 391.789 z "/>
<path style="fill:rgb(212, 255, 25);fill-opacity:1.0;fill-rule:evenodd;stroke:rgb(0, 0, 0);stroke-width:3.0;" d="M 122.792, 84.0058 L 106.833, 75.5439 L 114.353, 57.3233 L 121.33, 52.8385 z "/>
<path style="fill:rgb(11, 94, 255);fill-opacity:1.0;fill-rule:evenodd;stroke:rgb(0, 0, 0);stroke-width:3.0;" d="M 545.041, 379.588 L 546.224, 382.284 L 541.515, 396.265 L 531.288, 380.387 L 532.522, 376.594 z "/>
<path style="fill:rgb(255, 94, 130);fill-opacity:1.0;fill-rule:evenodd;stroke:rgb(0, 0, 0);stroke-width:3.0;" d="M 653.159, 162.461 L 652.718, 171.948 L 625.551, 159.19 L 640.09, 150.677 z "/>
<path style="fill:rgb(255, 25, 202);fill-opacity:1.0;fill-rule:evenodd;stroke:rgb(0, 0, 0);stroke-width:3.0;" d="M 748, 220.62 L 718.216, 216.766 L 732.683, 208.088 z "/>
<path style="fill:rgb(223, 23, 197);fill-opacity:1.0;fill-rule:evenodd;stroke:rgb(0, 0, 0);stroke-width:3.0;" d="M 377.462, 425.605 L 373.794, 428.019 L 351.011, 421.765 L 329.306, 378.203 L 341.408, 377.456 z "/>
<path style="fill:rgb(255, 24, 130);fill-opacity:1.0;fill-rule:evenodd;stroke:rgb(0, 0, 0);stroke-width:3.0;" d="M 770.182, 243.564 L 758.167, 255.139 L 757.167, 247.547 L 757.435, 245.405 L 761.278, 238.466 z "/>
<path style="fill:rgb(21, 154, 243);fill-opacity:1.0;fill-rule:evenodd;stroke:rgb(0, 0, 0);stroke-width:3.0;" d="M 506.123, 364.879 L 484.151, 371.515 L 483.555, 366.089 L 502.328, 351.098 z "/>
<path style="fill:rgb(37, 228, 204);fill-opacity:1.0;fill-rule:evenodd;stroke:rgb(0, 0, 0);stroke-width:3.0;" d="M 746.619, 307.424 L 736.115, 318.834 L 727.406, 317.77 L 721.788, 287.214 L 720.928, 278.538 z "/>
<path style="fill:rgb(234, 192, 9);fill-opacity:1.0;fill-rule:evenodd;stroke:rgb(0, 0, 0);stroke-width:3.0;" d="M 582.525, 315.556 L 577.225, 324.622 L 572.509, 327.115 L 568.79, 314.087 z "/>
<path style="fill:rgb(255, 19, 76);fill-opacity:1.0;fill-rule:evenodd;stroke:rgb(0, 0, 0);stroke-width:3.0;" d="M 770.29, 274.244 L 765.579, 279.589 L 754.596, 269.592 L 764.153, 262.557 z "/>
<path style="fill:rgb(243, 172, 189);fill-opacity:1.0;fill-rule:evenodd;stroke:rgb(0, 0, 0);stroke-width:3.0;" d="M 513.667, 365.038 L 519.682, 400.674 L 516.53, 402.663 L 507.914, 371.381 L 509.934, 356.607 z "/>
<path style="fill:rgb(128, 187, 100);fill-opacity:1.0;fill-rule:evenodd;stroke:rgb(0, 0, 0);stroke-width:3.0;" d="M 641.354, 351.473 L 635.848, 357.712 L 631.309, 355.399 L 628.193, 345.86 L 639.553, 344.932 z "/>
<path style="fill:rgb(234, 102, 11);fill-opacity:1.0;fill-rule:evenodd;stroke:rgb(0, 0, 0);stroke-width:3.0;" d="M 772.675, 136.35 L 773.162, 148.103 L 772.804, 148.861 L 760.943, 137.467 L 761.343, 125.185 L 764.645, 124.406 z "/>
<path style="fill:rgb(255, 246, 243);fill-opacity:1.0;fill-rule:evenodd;stroke:rgb(0, 0, 0);stroke-width:3.0;" d="M 743.868, 324.088 L 726.717, 336.932 L 726.011, 329.809 L 737.495, 317.335 z "/>
<path style="fill:rgb(249, 255, 47);fill-opacity:1.0;fill-rule:evenodd;stroke:rgb(0, 0, 0);stroke-width:3.0;" d="M 474.996, 257.414 L 466.638, 256.98 L 463.989, 251.564 L 471.768, 239.044 z "/>
<path style="fill:rgb(246, 170, 13);fill-opacity:1.0;fill-rule:evenodd;stroke:rgb(0, 0, 0);stroke-width:3.0;" d="M 257.135, 411.243 L 290.989, 477.743 L 291.223, 482.37 L 234.169, 519.925 L 183.28, 490.473 L 246.515, 409.084 z "/>
<path style="fill:rgb(255, 246, 8);fill-opacity:1.0;fill-rule:evenodd;stroke:rgb(0, 0, 0);stroke-width:3.0;" d="M 369.349, 558.673 L 350.16, 568.644 L 351.17, 556.577 L 359.789, 554.091 z "/>
<path style="fill:rgb(194, 255, 11);fill-opacity:1.0;fill-rule:evenodd;stroke:rgb(0, 0, 0);stroke-width:3.0;" d="M 532.127, 363.907 L 530.084, 373.371 L 520.046, 369.601 L 515.795, 351.061 z "/>
<path style="fill:rgb(255, 134, 16);fill-opacity:1.0;fill-rule:evenodd;stroke:rgb(0, 0, 0);stroke-width:3.0;" d="M 720.906, 278.514 L 711.854, 283.846 L 707.514, 279.299 L 702.058, 257.322 z "/>
<path style="fill:rgb(255, 134, 16);fill-opacity:1.0;fill-rule:evenodd;stroke:rgb(0, 0, 0);stroke-width:3.0;" d="M 733.352, 245.57 L 708.323, 254.938 L 731.593, 230.393 z "/>
<path style="fill:rgb(255, 243, 54);fill-opacity:1.0;fill-rule:evenodd;stroke:rgb(0, 0, 0);stroke-width:3.0;" d="M 705.848, 341.726 L 711.44, 344.797 L 722.327, 393.287 L 713.586, 391.979 L 672.775, 364.501 L 701.133, 340.003 z "/>
<path style="fill:rgb(255, 243, 54);fill-opacity:1.0;fill-rule:evenodd;stroke:rgb(0, 0, 0);stroke-width:3.0;" d="M 730.194, 218.316 L 731.593, 230.393 L 708.323, 254.938 L 702.049, 257.286 L 692.375, 218.317 L 698.591, 214.226 z "/>
<path style="fill:rgb(255, 44, 21);fill-opacity:1.0;fill-rule:evenodd;stroke:rgb(0, 0, 0);stroke-width:3.0;" d="M 443.537, 256.381 L 449.6, 270.668 L 437.844, 279.271 L 431.802, 274.648 L 422.263, 255.44 z "/>
<path style="fill:rgb(252, 234, 40);fill-opacity:1.0;fill-rule:evenodd;stroke:rgb(0, 0, 0);stroke-width:3.0;" d="M 518.648, 176.239 L 501.632, 191.379 L 505.503, 170.74 L 506.001, 170.419 z "/>
<path style="fill:rgb(255, 252, 78);fill-opacity:1.0;fill-rule:evenodd;stroke:rgb(0, 0, 0);stroke-width:3.0;" d="M 686.179, 202.059 L 688.342, 208.924 L 680.219, 220.516 L 660.806, 203.107 L 653.195, 187.364 L 655.415, 185.771 L 665.414, 181.239 z "/>
<path style="fill:rgb(255, 252, 78);fill-opacity:1.0;fill-rule:evenodd;stroke:rgb(0, 0, 0);stroke-width:3.0;" d="M 216.539, 531.53 L 185.588, 551.903 L 183.185, 523.902 L 204.287, 518.903 z "/>
<path style="fill:rgb(249, 19, 19);fill-opacity:1.0;fill-rule:evenodd;stroke:rgb(0, 0, 0);stroke-width:3.0;" d="M 626.596, 355.781 L 631.897, 359.032 L 632.576, 360.3 L 616.79, 368.015 L 613.236, 363.649 L 614.632, 355.22 z "/>
<path style="fill:rgb(255, 240, 44);fill-opacity:1.0;fill-rule:evenodd;stroke:rgb(0, 0, 0);stroke-width:3.0;" d="M 188.205, 144.227 L 110.802, 155.371 L 101.95, 125.826 L 118.811, 103.43 z "/>
<path style="fill:rgb(249, 0, 255);fill-opacity:1.0;fill-rule:evenodd;stroke:rgb(0, 0, 0);stroke-width:3.0;" d="M 265.888, 413.022 L 274.388, 445.132 L 257.135, 411.243 z "/>
<path style="fill:rgb(21, 105, 252);fill-opacity:1.0;fill-rule:evenodd;stroke:rgb(0, 0, 0);stroke-width:3.0;" d="M 775.28, 288.419 L 779.693, 297.26 L 761.953, 310.545 L 756.459, 293.35 L 758.101, 272.782 z "/>
<path style="fill:rgb(240, 60, 48);fill-opacity:1.0;fill-rule:evenodd;stroke:rgb(0, 0, 0);stroke-width:3.0;" d="M 391.097, 144.898 L 400.217, 160.151 L 381.415, 173.19 L 363.785, 137.689 z "/>
<path style="fill:rgb(105, 92, 255);fill-opacity:1.0;fill-rule:evenodd;stroke:rgb(0, 0, 0);stroke-width:3.0;" d="M 285.245, 60.2198 L 279.716, 63.6263 L 230.564, 62.5869 L 242.952, 56.1892 z "/>
<path style="fill:rgb(255, 39, 29);fill-opacity:1.0;fill-rule:evenodd;stroke:rgb(0, 0, 0);stroke-width:3.0;" d="M 696.588, 154.742 L 700.056, 182.122 L 686.092, 187.619 L 671.482, 180.759 L 664.108, 148.33 L 691.429, 145.742 z "/>
<path style="fill:rgb(152, 255, 255);fill-opacity:1.0;fill-rule:evenodd;stroke:rgb(0, 0, 0);stroke-width:3.0;" d="M 494.497, 341.29 L 481.184, 342.646 L 479.505, 340.356 L 483.942, 326.069 L 484.023, 326.045 z "/>
<path style="fill:rgb(74, 3, 243);fill-opacity:1.0;fill-rule:evenodd;stroke:rgb(0, 0, 0);stroke-width:3.0;" d="M 380.037, 79.8905 L 387.534, 95.22 L 375.227, 95.7846 L 337.508, 72.9933 L 349.04, 51.3814 z "/>
<path style="fill:rgb(107, 88, 157);fill-opacity:1.0;fill-rule:evenodd;stroke:rgb(0, 0, 0);stroke-width:3.0;" d="M 474.941, 294.856 L 475.929, 309.643 L 469.776, 307.884 L 465.685, 296.322 L 466.159, 285.608 z "/>
<path style="fill:rgb(107, 88, 157);fill-opacity:1.0;fill-rule:evenodd;stroke:rgb(0, 0, 0);stroke-width:3.0;" d="M 380.037, 79.8905 L 349.04, 51.3814 L 357.94, 34.7022 z "/>
</svg>